<svg id="Layer_1" data-name="Layer 1" xmlns="http://www.w3.org/2000/svg" viewBox="0 0 452.16 446.36"><path d="M83.24,150.3l5.21-7.4-8.92-8.45,6.38-9.06-.14-.11,11.1,5.65,5.62-8L45.88,95.47l-7.61,10.81,45,44ZM73.3,128.66,50.65,107.51l.1-.15,27.6,14.12-5,7.18Zm45.08-19.83c-7,6.55-14.5,5.79-21.29-1.47L74.79,83.51c-6.78-7.26-7-14.8,0-21.34s14.5-5.79,21.29,1.47l3.64,3.88L93,73.83l-4.06-4.35c-3-3.24-5.61-3.14-7.88-1s-2.54,4.69.49,7.93l23.2,24.82c3,3.25,5.55,3.08,7.82,1s2.6-4.62-.43-7.86l-8.3-8.88-3.56,3.33-6.06-6.48,10.3-9.64,13.88,14.85c6.78,7.26,7,14.8,0,21.34Zm17.7-16.19,8.55-4.71L131.8,64.61,134.75,63c3.89-2.13,6.26-1.31,9,3.74l5.48,10c2.44,4.43,3.22,5.11,4.46,6.26l8.7-4.79c-2-1.56-3.11-3.46-4.57-6.1l-5.26-9.56c-3.38-6.14-7-9.41-12-8.38l-.09-.16c3-3.65,2.77-8.21-.3-13.81l-1.84-3.34c-4.62-8.39-10.7-10.42-19.56-5.54l-12.67,7,29.94,54.42Zm-8.56-35.8,3.11-1.71c3.19-1.76,4.36-4.23,2-8.58l-2.31-4.2c-2.14-3.88-4.41-4.87-7.44-3.2L119,41.29l8.55,15.55Zm56.91,15.6c-9.19,2.73-15.82-1.22-18.65-10.75l-9.3-31.3c-2.83-9.52.57-16.46,9.76-19.19S182.06,12.43,184.89,22l9.3,31.3c2.83,9.53-.58,16.46-9.76,19.19Zm-2.53-8.5c3-.89,4.37-3.06,3.11-7.31l-9.65-32.49c-1.27-4.25-3.62-5.31-6.59-4.43s-4.37,3.06-3.11,7.31l9.65,32.49c1.26,4.25,3.62,5.31,6.59,4.43Zm47.4,2.12,9.76,0,.29-53.23,10.2,0,0-8.87L219.44,3.9l-.05,8.87,10.2.05-.29,53.24Zm27.47,1.86,9.35,2.78,7.58-25.52,3.23,1c4.26,1.27,5.34,3.53,3.7,9.06l-3.24,10.89C276,70.94,276,72,276.07,73.65l9.53,2.83c-.28-2.48.27-4.64,1.13-7.53l3.1-10.46c2-6.72,1.78-11.6-2.47-14.43l.05-.17c4.68-.47,7.79-3.8,9.61-9.92l1.09-3.66c2.73-9.18-.1-14.93-9.8-17.81L274.45,8.38,256.77,67.92Zm19.46-31.24,5-17,4.25,1.26c3.32,1,4.21,3.29,3,7.54l-1.37,4.59c-1.41,4.76-4,5.66-7.48,4.63l-3.4-1ZM292,78.94l39.4-49.06,11.5,6.52-21.8,59-8.49-4.8L317.17,79l-.08.15-9.65-5.46-7.54,9.7L292,78.94Zm20.56-12,7.65,4.33L331.58,42.4l-.16-.08L312.59,66.93ZM327,100.43l10.88,10.19c7.12,6.68,14.31,6,21.11-1.24l21.48-22.91c6.8-7.25,7-14.48-.11-21.15l-10.88-10.2L327,100.43Zm13.19.2,3.62,3.4c2.27,2.12,4.72,2.23,7.76-1l22.09-23.56c3-3.24,2.76-5.68.5-7.8l-3.63-3.4-30.34,32.36Zm14.48,27,51.93-34.08,14.6,22.26-7.42,4.87-9.25-14.1-13.72,9,7.35,11.2-7.42,4.87-7.35-11.21-16,10.47L376.65,145l-7.41,4.87Z" transform="translate(-3.55 -3.9)" style="fill:#00743b;fill-rule:evenodd"/><path d="M40.28,348.94c5.69,8.87,14,10.27,23.37,4.26,7.15-4.58,10.22-9.91,12-21.73,1.38-9.24,3.21-13.07,7.4-15.76,3.94-2.53,6.56-1.89,8.4,1s1.34,5.52-2.77,8.15l-3,1.9,5.48,8.54,2.38-1.53c9.2-5.89,11.67-13.62,6-22.41S85.75,301.25,76.71,307c-6.57,4.22-9.67,9.68-11.48,21.51-1.39,9.23-3.27,13-8,16-4.27,2.74-6.91,1.88-8.75-1S46.92,338,51,335.33L55,332.8l-5.47-8.54-3.29,2.1c-9.2,5.9-11.62,13.71-5.93,22.58Zm24.51,31,47.14-49.44,11.44,10.91c7.77,7.41,7.47,15.35-.07,23.26l-4.64,4.88c-7.55,7.91-15.47,8.58-23.24,1.17l-3.67-3.5L72.56,387.38,64.79,380Zm33.69-19.78L113,345l3.67,3.5c2.48,2.36,2.74,4.77-.63,8.3l-5.59,5.86c-3.36,3.54-5.78,3.39-8.25,1l-3.68-3.5ZM106,414.34l25.38,14.59,4.86-8.46-16.07-9.24L130.62,393l12.77,7.35,4.87-8.46-12.78-7.35,9-15.65,16.08,9.24,4.86-8.46L140,355.12l-34,59.22Zm60.86,28.56c-9.95-2.82-13.51-10.32-10.63-20.46l10-35.3c2.87-10.14,9.84-14.65,19.79-11.83s13.5,10.33,10.62,20.47l-2,6.94L184.93,400l2.15-7.6c1.23-4.32-.33-6.69-3.43-7.57s-5.67.32-6.89,4.64l-10.42,36.7c-1.23,4.32.36,6.6,3.45,7.47s5.65-.22,6.87-4.54l2.85-10,9.77,2.77-2.64,9.29c-2.88,10.14-9.84,14.66-19.79,11.83Zm38.88,5.85,10.7.82,5.18-68.12-10.7-.81-5.18,68.11Zm32.53,1.5,9.87-1.25.25-13.51,12.1-1.54,0-.19L264.1,447l10.65-1.35-19.64-66.37-14.43,1.84-2.42,69.16Zm10.21-24.12.39-34.08.2,0,9,32.9-9.59,1.21Zm47.13,13-25.06-63.54,10-3.94L302,426.16l16.43-6.48,3.58,9.08L295.6,439.17ZM341.53,419l9-5.8-36.87-57.5-9,5.79L341.53,419Zm39.81-30c-7.63,7.27-15.76,6.39-23.3-1.52l-2.69-2.83,7.34-7,3.24,3.39c3.36,3.53,6.13,3.32,8.6,1s2.82-5.11-.69-8.78c-3.9-4.1-7.95-5.23-17.27-4.83-12,.48-17.91-1.53-23.3-7.18-7.41-7.77-7.69-16.13-.13-23.33s15.61-6.26,23.15,1.65l1.95,2-7.34,7L348.47,346c-3.37-3.53-6.06-3.52-8.53-1.17s-2.6,5.05.63,8.44c3.43,3.6,7.55,4.66,16.87,4.27,12-.48,17.78,1.52,23.63,7.67,7.68,8.05,7.89,16.48.27,23.75Zm29.35-35.83,5.79-9-49.29-31.6,6.06-9.45L365,297.77l-17.9,27.93,8.21,5.26,6.06-9.44Z" transform="translate(-3.55 -3.9)" style="fill:#00743b;fill-rule:evenodd"/><path d="M9.51,241.44c4,0,6.11-2.36,6.11-6.55,0-3.21-1.07-5.27-4.46-8.25-2.64-2.32-3.49-3.68-3.49-5.55s.74-2.47,2-2.47,2,.7,2,2.54v1.32h3.82v-1.06c0-4.12-1.95-6.48-5.88-6.48s-6,2.36-6,6.4c0,2.95,1.11,5,4.49,8,2.65,2.31,3.46,3.68,3.46,5.81,0,1.91-.81,2.58-2.1,2.58s-2.1-.67-2.1-2.51v-1.76H3.55V235c0,4.12,2,6.48,6,6.48Zm10.84-.37h4V215.31h-4v25.76Zm9.49,0h3.6V222.26h.08l4.85,18.81h4.16V215.31h-3.6v15.42h-.08l-3.94-15.42H29.84v25.76Zm23.83.37c3.9,0,6-2.36,6-6.33v-3.65H55.81v3.94c0,1.69-.81,2.36-2,2.36s-2-.67-2-2.36V221c0-1.69.81-2.39,2-2.39s2,.7,2,2.39v3h3.82v-2.72c0-4-2.06-6.33-6-6.33s-6,2.36-6,6.33v13.84c0,4,2.06,6.33,6,6.33Zm10.81-.37h11v-3.68h-7v-7.91h5.55V225.8H68.53V219h7v-3.68h-11v25.76Zm327.75,0h11.7v-3.68h-7.69v-.55c0-1.81.62-3.1,3.05-5.67,3.75-4,5-6.7,5-9.75,0-4.12-2.07-6.48-6-6.48s-6,2.36-6,6.48v2.5h3.82v-2.76c0-1.84.81-2.54,2.1-2.54s2.1.63,2.1,2.94-.89,4.35-4,7.62-4,5.41-4,9.09v2.8Zm23.06.37c4,0,6.14-2.36,6.14-6.48V221.42c0-4.12-2.17-6.48-6.14-6.48s-6.15,2.36-6.15,6.48V235c0,4.12,2.17,6.48,6.15,6.48Zm0-3.68c-1.29,0-2.1-.7-2.1-2.54V221.16c0-1.84.81-2.54,2.1-2.54s2.09.7,2.09,2.54v14.06c0,1.84-.8,2.54-2.09,2.54Zm16.95,3.31h4.05V215.31h-2.72c-.92,2.5-2.14,3.24-5.56,3.24v2.87h4.23v19.65Zm17.32.37c4,0,6.15-2.36,6.15-6.48V221.42c0-4.12-2.17-6.48-6.15-6.48s-6.14,2.36-6.14,6.48V235c0,4.12,2.17,6.48,6.14,6.48Zm0-3.68c-1.29,0-2.1-.7-2.1-2.54V221.16c0-1.84.81-2.54,2.1-2.54s2.1.7,2.1,2.54v14.06C451.66,237.06,450.85,237.76,449.56,237.76Z" transform="translate(-3.55 -3.9)" style="fill:#00743b;fill-rule:evenodd"/><path d="M236.15,198.35a74.33,74.33,0,0,1,6.23-7.7,23.08,23.08,0,0,1,8.52-5.38,47.22,47.22,0,0,1,11-2.36c4-.45,8.07-.79,12.11-1.17l25.52-2.45c8.49-.81,17-1.54,25.5-2,7.74-.37,15.47-.38,23.22-.16.69,0,1.38.05,2.07.1s1.16.11,1.81.22a10.06,10.06,0,0,1,3.49,1.17,4.44,4.44,0,0,1,1.25,1,4,4,0,0,1,.44.65,3.31,3.31,0,0,1,.37,1.11,8.06,8.06,0,0,1-1,4.55,56.77,56.77,0,0,1-6.3,9.58c-2.24,3-4.4,6-6.38,9.11a117.65,117.65,0,0,0-9.89,19.6,119.49,119.49,0,0,0-6.08,21,115,115,0,0,0-2.11,22c0,1.78.05,3.55.14,5.33a1.54,1.54,0,0,0,3.08,0,113.84,113.84,0,0,1,15.54-63.81q2.83-4.82,6.14-9.33c2.29-3.13,4.74-6.16,6.76-9.48,1.9-3.15,3.93-7.17,2.21-10.83-1.26-2.68-4.28-4-7-4.43a55.59,55.59,0,0,0-8.65-.53c-4.31-.09-8.63-.05-12.94.09-8.64.28-17.26.95-25.86,1.76s-17.33,1.74-26,2.65l-12.9,1.34a107.68,107.68,0,0,0-11.59,1.62,27.9,27.9,0,0,0-10.41,4.22,27.19,27.19,0,0,0-6.89,7.45,44.12,44.12,0,0,0-2.45,4.35A.62.62,0,0,0,236.15,198.35Z" transform="translate(-3.55 -3.9)" style="fill:#00743b;fill-rule:evenodd"/><path d="M352,196.33a5.43,5.43,0,0,0-.82-6.34c-1.79-1.89-4.5-2.62-7-3.08a97,97,0,0,0-18-1.54c-12.09,0-24.22,1.4-36.22,2.78s-24.11,3.08-36.11,5-24,4-35.77,6.86a32.78,32.78,0,0,0-7.93,2.84,31.18,31.18,0,0,0-6,4.18,62.44,62.44,0,0,0-9.68,11.16c-.7,1-1.38,2-2.05,3-1.08,1.59,1.52,3.12,2.57,1.51,2.55-3.92,5-8.11,8.31-11.47a30.92,30.92,0,0,1,5.19-4.36,22.64,22.64,0,0,1,6.74-2.89c5.5-1.46,11.16-2.46,16.74-3.61q8.63-1.78,17.31-3.35,17.18-3.09,34.5-5.26c11.57-1.45,23.21-2.8,34.85-3.39a123,123,0,0,1,17.28.18,82.56,82.56,0,0,1,8.43,1.18c2.26.43,4.55,1.14,5.94,3.11a3.58,3.58,0,0,1,.48,3A.64.64,0,0,0,352,196.33Z" transform="translate(-3.55 -3.9)" style="fill:#00743b;fill-rule:evenodd"/><path d="M342.09,209.21a.11.11,0,0,0,0-.22A.11.11,0,0,0,342.09,209.21Z" transform="translate(-3.55 -3.9)" style="fill:#00743b;fill-rule:evenodd"/><path d="M342.79,208.71c.22-3.22-2.77-5.15-5.49-6a28.87,28.87,0,0,0-5.78-1c-2.45-.25-4.91-.4-7.37-.47-9.61-.27-19.26.78-28.81,1.76q-28,2.88-55.7,7.88c-18.55,3.35-37,7.33-55.29,12-18.11,4.65-36,10.18-53.69,16.27q-13.38,4.62-26.57,9.73c-1.89.74-4,1.33-5.7,2.54A5.92,5.92,0,0,0,96,256.5a11.44,11.44,0,0,0,.38,3,29.16,29.16,0,0,1,.91,3.29,34,34,0,0,0,1.69,6.5,46.25,46.25,0,0,0,2.57,5.86c.94,1.78,3.72.18,2.71-1.59a44.64,44.64,0,0,1-4.65-11.85,17.26,17.26,0,0,1-.12-3.05,13.31,13.31,0,0,1-.08-2.89c.33-1.8,2.4-2.32,3.88-2.89q12.53-4.91,25.23-9.34,25.41-8.9,51.41-15.91c17.4-4.71,34.88-9,52.58-12.43s35.38-6.27,53.22-8.44c9-1.1,18.11-2.15,27.19-2.72,4.61-.3,9.23-.43,13.84-.29,2.38.08,4.75.25,7.12.49a15.67,15.67,0,0,1,4.92,1.13c1.44.65,2.72,1.61,2.83,3.31A.58.58,0,0,0,342.79,208.71Z" transform="translate(-3.55 -3.9)" style="fill:#00743b;fill-rule:evenodd"/><path d="M345.53,188.8a3.28,3.28,0,0,0,.85.39,3.5,3.5,0,0,1,.78.3,4.93,4.93,0,0,1,1.38,1.11,5.47,5.47,0,0,1,1.29,3.37,8.46,8.46,0,0,1-1.14,4.13c-.38.72-.83,1.4-1.27,2.09s-1.05,1.39-.84,2.31a.78.78,0,0,0,.74.56c1.07-.08,1.6-1.07,2.17-1.88a14.34,14.34,0,0,0,1.36-2.57,9.62,9.62,0,0,0,.77-5.26,7.08,7.08,0,0,0-2.15-4,5.24,5.24,0,0,0-1.92-1.15,5,5,0,0,0-1-.19,1.33,1.33,0,0,0-1,.33A.27.27,0,0,0,345.53,188.8Z" transform="translate(-3.55 -3.9)" style="fill:#00743b;fill-rule:evenodd"/><path d="M332.29,202.64c3.15.66,7.15,1.62,7.83,5.3a10.06,10.06,0,0,1-1,5.65c-.43,1-.92,2-1.37,3l-.69,1.54a4.85,4.85,0,0,0-.31,1.68.7.7,0,0,0,1.17.49,5.73,5.73,0,0,0,.86-1c.24-.42.41-.9.61-1.35.41-.91.81-1.82,1.19-2.74a16.13,16.13,0,0,0,1.39-5.27,6.6,6.6,0,0,0-4.8-7,15.72,15.72,0,0,0-4.88-.55C332.18,202.36,332.14,202.61,332.29,202.64Z" transform="translate(-3.55 -3.9)" style="fill:#00743b;fill-rule:evenodd"/><path d="M353,275.33c-8.15,3.14-17.08-.83-25.4-3.49-21.21-6.78-44.25-5-66-.41-17.63,3.7-35.2,9.18-53.19,8.41-19.13-.82-37.92-8.72-56.89-6.17-7.4,1-14.59,3.59-22.11,3.65-6.65.06-12.72-2.71-19.17-3.93a38.85,38.85,0,0,0-29.07,6.23,54.19,54.19,0,0,1,28-1.41c4.22.91,8.1,2.8,12.3,3.61a57.57,57.57,0,0,0,15.06.71,92,92,0,0,1-31,.14c-2.62-.47-5.38-1.15-7.24-3.06,6.58,6,15.62,8.29,24.45,9.25,17.31,1.88,35.8-.19,53.15-1.22a118.2,118.2,0,0,0-27.17-3.93c6.77-.8,13.84-1.55,20.61-.8s13.42,2.12,20.11,3.24c13.68,2.27,27.91,3.3,41.49-.15-7.45,5-16.58,6.87-25.52,7.21s-17.88-.77-26.81-1.34a93.63,93.63,0,0,0-28.43,2.18c25-1.78,49.74,9.65,74.65,6.76-14.68,7-32,5.64-47.73,1.42,3.28.88,6.67,3.61,9.89,4.91a74.31,74.31,0,0,0,11,3.52,83.41,83.41,0,0,0,23.9,1.76c10.53-.69,21.18-4.08,31.42-1.58a66.85,66.85,0,0,0-29.29-4.37c19.38-5.06,40.61-10.58,60.69-7-14.91-6.95-32.1-5.83-48.07-4.66,12.48-2.49,25.18-5,37.83-3.68,12.11,1.25,24,6,36.1,4.58-8.58-.71-16.56-4.47-24.57-7.61a62.45,62.45,0,0,0-23.42-4.32c-7.56-.08-14.95-.13-22.18,2.73,12.44-7,27.05-9.63,41.3-9s28.22,4.51,41.5,9.75a344.69,344.69,0,0,1-39.33-5.06,71.33,71.33,0,0,0,47,7.45c6.38-1.24,12.89-3.43,19.22-1.95A127.76,127.76,0,0,1,311.52,275c7.13,1.88,14.3,3.77,21.66,4.23s15-.6,21.35-4.29Z" transform="translate(-3.55 -3.9)" style="fill:#00743b;fill-rule:evenodd"/><path d="M98,253c-1.37.91-1.91,2.76-2.06,4.31a15.53,15.53,0,0,0,.81,5.53c1.11,3.95,2.47,7.85,3.72,11.76.35,1.1,2.1.63,1.74-.48-1.18-3.65-2.3-7.33-3.52-11A19.79,19.79,0,0,1,97.4,258a9,9,0,0,1,.13-2.32,11.07,11.07,0,0,1,.87-2.35C98.49,253.15,98.28,252.85,98,253Z" transform="translate(-3.55 -3.9)" style="fill:#00743b;fill-rule:evenodd"/><path d="M103.55,251.51c-3.13.14-4.93,3.32-5.16,6.14a17.42,17.42,0,0,0,.79,5.82c.47,1.83.95,3.66,1.54,5.45.32,1,.68,1.91,1.08,2.85a7.53,7.53,0,0,0,1.55,2.8.69.69,0,0,0,1.15-.66,10.37,10.37,0,0,0-1.08-2.19,23,23,0,0,1-1-2.34c-.58-1.54-1.06-3.12-1.52-4.7-.9-3.08-2.22-6.74-.73-9.85a5.24,5.24,0,0,1,3.45-3A.19.19,0,0,0,103.55,251.51Z" transform="translate(-3.55 -3.9)" style="fill:#00743b;fill-rule:evenodd"/><path d="M99,265.9a88.54,88.54,0,0,0,11.32-2.66q5.81-1.55,11.63-3c7.84-2,15.7-4,23.6-5.73q23.5-5.19,47.24-9.2c15.81-2.7,31.73-4.79,47.72-6.09a418.14,418.14,0,0,1,47.75-1.28c7.06.23,14.24.39,21.2,1.68,5.41,1,11.28,2.45,15.77,5.79a8.29,8.29,0,0,1,2,1.95c1.19,1.78,4.07.11,2.87-1.67-3-4.5-8.52-6.56-13.5-8a88.26,88.26,0,0,0-19.67-2.83,403.06,403.06,0,0,0-48.66.4c-16.3,1.08-32.51,3.07-48.63,5.71s-32.05,6.06-47.87,10-31.67,8-47.34,12.58a41.53,41.53,0,0,0-5.52,1.94C98.69,265.55,98.79,265.93,99,265.9Z" transform="translate(-3.55 -3.9)" style="fill:#00743b;fill-rule:evenodd"/><path d="M358.89,185.11A117.26,117.26,0,0,0,347,199.44a140.5,140.5,0,0,0-9.83,16,119,119,0,0,0-7.42,17.16,109.64,109.64,0,0,0-4.48,18,98.92,98.92,0,0,0-1.21,18.59c0,.77.06,1.53.1,2.3a1.37,1.37,0,0,0,2.74,0,100.23,100.23,0,0,1,4.24-36.05A133.43,133.43,0,0,1,346.66,202a205.09,205.09,0,0,1,12.25-16.89S358.9,185.1,358.89,185.11Z" transform="translate(-3.55 -3.9)" style="fill:#00743b;fill-rule:evenodd"/><path d="M101.5,272.5c7.28-.17,14.57-.78,21.84-1.18s14.57-.77,21.86-1.12q21.86-1.06,43.72-1.84c29.17-1.05,58.33-1.84,87.51-2.22,16.38-.21,32.76-.11,49.14-.12a1.45,1.45,0,0,0,0-2.89c-29.18.08-58.38.75-87.54,1.57s-58.34,2.05-87.48,3.65q-12.27.67-24.53,1.44c-8.17.5-16.39.82-24.52,1.69C100.86,271.54,100.83,272.52,101.5,272.5Z" transform="translate(-3.55 -3.9)" style="fill:#00743b;fill-rule:evenodd"/><path d="M297.82,177.9l-2.73-65.18a15.74,15.74,0,0,1,5.39-.18c.54,21.73.9,43.42,1.44,65.16A10.47,10.47,0,0,0,297.82,177.9Z" transform="translate(-3.55 -3.9)" style="fill:#00743b;fill-rule:evenodd"/><path d="M124.61,244.55c-1.79-.2-3.28,1.82-3,3.59a4.93,4.93,0,0,0,3.65,3.6,14.24,14.24,0,0,0,5.37.18q21.85-2.05,43.58-5.44a2.45,2.45,0,0,1,2.17.58q-15,2.67-29.82,6.38c-10.49,2.63-21.21,4.07-31.61,7.05-2.79.81-9,2.11-10.49,4.82,5.83-1,11.61-2.59,17.41-3.77,1.27-.26,16.46-3,16.47-3.21-.1,3.6,1.35,5.56,4.75,6.5,10.36,2.87,21.27,2.84,32,2.8l-71.85,3.78a2.07,2.07,0,0,1-1-.11,2.13,2.13,0,0,1-.9-1.22,34,34,0,0,1-2.49-8,11.39,11.39,0,0,1,1.6-8.06c1.69-2.4,4.48-3.75,7.19-4.87C113.24,246.86,118.75,245.74,124.61,244.55Z" transform="translate(-3.55 -3.9)" style="fill:#00743b;fill-rule:evenodd"/><path d="M297.64,131.61a11.79,11.79,0,0,1-3.14.09,4,4,0,0,0-1.69-2.9,4.84,4.84,0,0,0-1.63-.55,13.55,13.55,0,0,0-3.42-.21v-2.29c7,.13,14-.36,21-.69.07.82.12,1.45.19,2.28-1,.15-2.3.07-3.29.19a4.39,4.39,0,0,0-2.69,1.13,2.16,2.16,0,0,0-.3,2.72A27.88,27.88,0,0,0,297.64,131.61Z" transform="translate(-3.55 -3.9)" style="fill:#00743b;fill-rule:evenodd"/><path d="M126.24,207.86a13,13,0,0,1-2-.12,2.56,2.56,0,0,0-1-1.88,2.83,2.83,0,0,0-1-.4,9.28,9.28,0,0,0-2.16-.23l.06-1.45c0,.16,11.81.12,12.82.16l0,1.45a5.25,5.25,0,0,0-2.43.25,2.1,2.1,0,0,0-1.34,1.89c0,.1,0,.22-.07.29a.31.31,0,0,1-.21,0C128,207.82,127.12,207.85,126.24,207.86Z" transform="translate(-3.55 -3.9)" style="fill:#00743b;fill-rule:evenodd"/><path d="M296.18,127.22a49.88,49.88,0,0,0-2.26,4.86q-1,2.41-2.08,4.82c-1.37,3.11-2.77,6.21-4.16,9.31-3,6.7-6.12,13.38-9.12,20.09q-3,6.66-5.85,13.37a1,1,0,1,0,1.79.75c3.09-7.59,6.32-15.13,9.61-22.64,2.82-6.42,5.71-12.8,8.41-19.27q1.11-2.69,2.19-5.38a42.7,42.7,0,0,0,2-5.7A.28.28,0,0,0,296.18,127.22Z" transform="translate(-3.55 -3.9)" style="fill:#00743b;fill-rule:evenodd"/><path d="M300.16,129.6c4,6.37,8.5,12.39,12.94,18.43s8.92,12.07,13.45,18.05l3.76,4.95c.65.85,1.3,1.7,2,2.54a14.18,14.18,0,0,0,2.08,2.48.85.85,0,0,0,1.32-1,12.51,12.51,0,0,0-1.66-2.26c-.58-.72-1.16-1.45-1.75-2.17l-3.54-4.44c-2.32-2.94-4.64-5.89-6.93-8.86-4.6-6-9-12-13.42-18.13-2.45-3.41-4.89-6.83-7.47-10.13C300.57,128.62,299.89,129.16,300.16,129.6Z" transform="translate(-3.55 -3.9)" style="fill:#00743b;fill-rule:evenodd"/><path d="M258.72,183.89c1.65-.4,3.32-.72,5-1l11.77-1.77-6.45.35c-6.46.34-13,.7-19.09,2.94s-11.66,6.68-13.68,12.82a35.49,35.49,0,0,0,5-.1c.08-4.39,4.26-7.57,7.79-9.58A37.08,37.08,0,0,1,258.72,183.89Z" transform="translate(-3.55 -3.9)" style="fill:#00743b;fill-rule:evenodd"/><path d="M342.23,202.05c-3.07-3.45-9.62-3.13-13.87-3.17a228.43,228.43,0,0,0-37.94,2.76c6.63-2.88,13.89-3.95,20.95-5.25,6.71-1.24,12.1-1.44,17.51-6.4a13.18,13.18,0,0,1,2.65-2.13c2.76-1.47,5.16-.38,7.87.25,3.79.89,7.26,1.22,10.75,3.18Z" transform="translate(-3.55 -3.9)" style="fill:#00743b;fill-rule:evenodd"/><path d="M324.7,237.2c-17-6.81-37.92-7.31-56-6a175.78,175.78,0,0,1,19.53-2.35c11.06-.71,23.24-.21,29.69-10.85,2.5-4.12,3.85-8.8,6.33-12.92a1.73,1.73,0,0,0,.26-.57c.13-.72-.62-1.26-1.27-1.61,3.94-1.16,7.12-.69,10.83.68.45.17,6.4,2.59,6.22,2.84A101.84,101.84,0,0,0,324.7,237.2Z" transform="translate(-3.55 -3.9)" style="fill:#00743b;fill-rule:evenodd"/><path d="M321.54,258.09a.83.83,0,0,1-.23.42,1.32,1.32,0,0,1-.88.21c-18.15-.06-36.67,1.16-54.84,2.62,11.7-1.22,30.13-1.56,37.59-12.3,2.3-3.31,3.24-7.47,5.83-10.56a2.34,2.34,0,0,1,.91-.75,2.65,2.65,0,0,1,1.19,0,41.47,41.47,0,0,1,12.51,3.51,2.12,2.12,0,0,1,.76.47c.56.6.3,1.56,0,2.33a51.62,51.62,0,0,0-2.8,13.57A2.08,2.08,0,0,1,321.54,258.09Z" transform="translate(-3.55 -3.9)" style="fill:#00743b;fill-rule:evenodd"/><path d="M334.11,188.92l.05.88-7.75.46q-15.86,1.05-31.07,2.72t-29.56,3.85c-19.13,2.9-37,6.41-53.29,10.12,8.29-2,17.14-4,26.47-5.91s19.14-3.65,29.38-5.24,20.88-3,31.87-4.15S322.52,189.56,334.11,188.92Z" transform="translate(-3.55 -3.9)" style="fill:#00743b;fill-rule:evenodd"/><path d="M335.68,190.67l0,.89-7.06.42q-14.45.93-28.31,2.39c-9.23,1-18.24,2.07-27,3.32-17.45,2.48-33.8,5.46-48.68,8.59,15.17-3.47,32.34-6.82,51-9.56S314.56,191.84,335.68,190.67Z" transform="translate(-3.55 -3.9)" style="fill:#00743b;fill-rule:evenodd"/><path d="M333,193.39v.88l-7.36.22c-10.05.4-19.91,1.18-29.53,2.2s-19,2.3-28.07,3.71-17.87,2.94-26.33,4.51-16.6,3.16-24.38,4.72c7.93-1.73,16.36-3.51,25.23-5.25s18.19-3.45,27.9-5,19.83-2.92,30.27-4S322,193.62,333,193.39Z" transform="translate(-3.55 -3.9)" style="fill:#00743b;fill-rule:evenodd"/><path d="M325.72,196.11V197l-3.75.1-3.77.16c-10.26.51-20.32,1.59-30.12,2.9s-19.35,2.86-28.62,4.36-18.28,3-26.92,4.65-17,3.35-24.84,5.21c8-2,16.64-3.94,25.71-5.74s18.6-3.49,28.51-5.17,20.2-3.37,30.85-4.74A309.15,309.15,0,0,1,325.72,196.11Z" transform="translate(-3.55 -3.9)" style="fill:#00743b;fill-rule:evenodd"/><path d="M315,197.93l.09.88-3.6.36c-9.81,1-19.27,2.08-28.2,3.24s-17.32,2.39-25,3.59c7.81-1.49,16.61-3,26.15-4.38S304.25,199,315,197.93Z" transform="translate(-3.55 -3.9)" style="fill:#00743b;fill-rule:evenodd"/><path d="M324.78,206.39l.05.89-6.4.35q-13.1.78-25.67,2.06c-8.36.84-16.53,1.84-24.43,3-15.82,2.23-30.63,5-44.11,7.84,13.74-3.21,29.28-6.3,46.21-8.78S305.64,207.35,324.78,206.39Z" transform="translate(-3.55 -3.9)" style="fill:#00743b;fill-rule:evenodd"/><path d="M328.43,208.58l0,.89-7.45.3c-10.16.47-20.14,1.2-29.87,2.14s-19.23,2.11-28.43,3.45-18.09,2.86-26.64,4.51-16.74,3.41-24.55,5.23c8-2,16.45-3.95,25.41-5.77s18.4-3.49,28.24-5,20.08-2.73,30.65-3.71S317.29,209,328.43,208.58Z" transform="translate(-3.55 -3.9)" style="fill:#00743b;fill-rule:evenodd"/><path d="M324.79,210.41l0,.89-6,.38q-12.36.82-24.23,2t-23.09,2.65c-15,1.95-29,4.25-41.77,6.63,13-2.7,27.77-5.34,43.76-7.53S306.73,211.48,324.79,210.41Z" transform="translate(-3.55 -3.9)" style="fill:#00743b;fill-rule:evenodd"/><path d="M326.84,212.2l.06.89-6.76.48Q306.3,214.62,293,216c-8.84.92-17.48,1.95-25.86,3.06-16.75,2.22-32.47,4.77-46.81,7.38,14.63-2.94,31.13-5.83,49-8.31S306.62,213.59,326.84,212.2Z" transform="translate(-3.55 -3.9)" style="fill:#00743b;fill-rule:evenodd"/><path d="M327.28,214.09l.06.88-7.35.5c-10,.71-19.86,1.6-29.46,2.62s-19,2.19-28.07,3.48c-18.17,2.56-35.2,5.57-50.72,8.71,15.82-3.48,33.71-6.87,53.15-9.69S305.32,215.48,327.28,214.09Z" transform="translate(-3.55 -3.9)" style="fill:#00743b;fill-rule:evenodd"/><path d="M325.93,216.22l.05.89-7.87.52q-16.11,1.14-31.57,2.85c-10.29,1.14-20.33,2.43-30.06,3.88-19.46,2.88-37.67,6.31-54.25,9.9,8.45-2,17.46-3.91,27-5.75s19.49-3.59,29.89-5.17,21.23-3,32.4-4.2S314.16,217,325.93,216.22Z" transform="translate(-3.55 -3.9)" style="fill:#00743b;fill-rule:evenodd"/><path d="M323.44,218.21l.06.88-8.12.61q-16.62,1.32-32.56,3.19c-10.61,1.23-21,2.63-31,4.16-20.07,3.07-38.86,6.65-56,10.37,8.72-2,18-4,27.81-6s20.1-3.76,30.83-5.43,21.89-3.21,33.4-4.52S311.3,219.07,323.44,218.21Z" transform="translate(-3.55 -3.9)" style="fill:#00743b;fill-rule:evenodd"/><path d="M318.88,220.5l.06.88-5.36.41c-14.65,1.15-28.79,2.61-42.11,4.26s-25.83,3.5-37.25,5.36c11.65-2.17,24.78-4.33,39-6.22S302.83,221.67,318.88,220.5Z" transform="translate(-3.55 -3.9)" style="fill:#00743b;fill-rule:evenodd"/><path d="M320.71,222.83l.05.88-4.5.25c-12.28.71-24.13,1.66-35.3,2.76s-21.69,2.36-31.29,3.64c9.79-1.58,20.82-3.11,32.77-4.42S307.26,223.54,320.71,222.83Z" transform="translate(-3.55 -3.9)" style="fill:#00743b;fill-rule:evenodd"/><path d="M317.78,225.52v.88l-4,0c-10.95.16-21.52.75-31.48,1.65s-19.32,2.11-27.84,3.44c8.68-1.63,18.5-3.12,29.16-4.2S305.77,225.58,317.78,225.52Z" transform="translate(-3.55 -3.9)" style="fill:#00743b;fill-rule:evenodd"/><path d="M303.69,228.6l0,.89-5.74.13c-15.65.42-30.77,1.31-45,2.55s-27.64,2.81-39.86,4.5c12.47-2,26.53-3.88,41.77-5.31S286.54,228.94,303.69,228.6Z" transform="translate(-3.55 -3.9)" style="fill:#00743b;fill-rule:evenodd"/><path d="M313.33,240.61l-.11.88-6.9-.8a271.48,271.48,0,0,0-27.85-1.27c-9.11,0-18,.43-26.65,1.06s-17,1.45-25.06,2.35-15.82,1.85-23.23,2.77c7.57-1.08,15.6-2.2,24.06-3.23s17.34-2,26.58-2.69,18.86-1.12,28.76-1.05A251.7,251.7,0,0,1,313.33,240.61Z" transform="translate(-3.55 -3.9)" style="fill:#00743b;fill-rule:evenodd"/><path d="M314.83,242.75l-.14.87-1.82-.27-.92-.13c-.3-.05-.61-.1-.91-.13l-1.84-.23c-.61-.07-1.23-.16-1.84-.22a217.07,217.07,0,0,0-29.72-.9c-4.86.14-9.67.39-14.41.68s-9.42.61-14,1c-9.21.7-18.16,1.48-26.77,2.35q-6.47.66-12.67,1.35t-12.14,1.44c8.08-1.14,16.67-2.24,25.71-3.24s18.52-1.94,28.38-2.73c4.93-.39,10-.76,15.07-1.08s10.31-.56,15.59-.66c.66,0,1.32,0,2,0h2c1.33,0,2.66,0,4,0,.67,0,1.34,0,2,0l2,.05,2,.08c.68,0,1.35.05,2,.1A161.8,161.8,0,0,1,314.83,242.75Z" transform="translate(-3.55 -3.9)" style="fill:#00743b;fill-rule:evenodd"/><path d="M311.68,243.45l0,.89-6.7-.23q-13.71-.37-26.93-.19c-8.79.12-17.38.4-25.72.84-16.68.88-32.36,2.35-46.66,4.1,7.3-1,15.07-2,23.25-2.81s16.76-1.53,25.69-2C272.43,243,291.65,242.7,311.68,243.45Z" transform="translate(-3.55 -3.9)" style="fill:#00743b;fill-rule:evenodd"/><path d="M313.13,245.25l0,.88-6.87-.2q-14.07-.33-27.62-.14c-9,.12-17.83.4-26.38.82-17.11.84-33.2,2.24-47.88,3.9,15-2,31.9-3.66,50.22-4.65S292.59,244.57,313.13,245.25Z" transform="translate(-3.55 -3.9)" style="fill:#00743b;fill-rule:evenodd"/><path d="M314,247.17l0,.88-7.16-.16c-9.77-.18-19.38-.18-28.77,0s-18.57.44-27.49.87c-17.82.86-34.58,2.24-49.89,3.85C216.35,250.65,234,249,253,248S292.64,246.6,314,247.17Z" transform="translate(-3.55 -3.9)" style="fill:#00743b;fill-rule:evenodd"/><path d="M309.19,248.75l0,.88-6.19-.19c-8.45-.21-16.77-.18-24.89,0s-16.08.48-23.79.87-15.2.86-22.42,1.33-14.18,1-20.82,1.41c6.79-.6,14-1.23,21.58-1.83s15.51-1.17,23.76-1.65,16.82-.85,25.64-1S299.92,248.4,309.19,248.75Z" transform="translate(-3.55 -3.9)" style="fill:#00743b;fill-rule:evenodd"/><path d="M308.05,250.83l0,.88-5.88-.16c-16-.4-31.57-.3-46.23.19s-28.44,1.34-41,2.38c12.87-1.34,27.37-2.46,43.05-3.09S290.48,250.27,308.05,250.83Z" transform="translate(-3.55 -3.9)" style="fill:#00743b;fill-rule:evenodd"/><path d="M307.13,252.27v.89l-6.23,0c-17-.07-33.41.19-48.92.69s-30.11,1.25-43.47,2.1c13.65-1.14,29-2.15,45.59-2.81S288.53,252.11,307.13,252.27Z" transform="translate(-3.55 -3.9)" style="fill:#00743b;fill-rule:evenodd"/><path d="M305.34,254.37v.89h-6.47c-17.66,0-34.73.15-50.86.54-8.06.19-15.89.44-23.43.75s-14.82.7-21.76,1.13c7.1-.58,14.64-1.09,22.56-1.52s16.22-.79,24.85-1.05,17.57-.46,26.77-.57S295.68,254.38,305.34,254.37Z" transform="translate(-3.55 -3.9)" style="fill:#00743b;fill-rule:evenodd"/><path d="M301,256.18v.88l-6.64,0c-18.11-.06-35.61.23-52.15.77s-32.1,1.34-46.33,2.25c14.55-1.2,30.91-2.26,48.6-3S281.13,256,301,256.18Z" transform="translate(-3.55 -3.9)" style="fill:#00743b;fill-rule:evenodd"/><path d="M296.07,257.84v.89l-6.68,0c-18.21,0-35.81.33-52.43,1s-32.26,1.62-46.56,2.7c14.62-1.38,31.06-2.6,48.84-3.43S276.13,257.7,296.07,257.84Z" transform="translate(-3.55 -3.9)" style="fill:#00743b;fill-rule:evenodd"/><path d="M298.05,258.33l.07.88-4.94.4c-13.51,1.06-26.58,1.8-38.94,2.27s-24,.69-34.66.71c10.9-.29,23.14-.73,36.35-1.42S283.29,259.56,298.05,258.33Z" transform="translate(-3.55 -3.9)" style="fill:#00743b;fill-rule:evenodd"/><path d="M292.25,258.24l0,.88-3.67.14c-20,.73-38.74,1.27-54.53,1.62C250.22,260,270.32,259.06,292.25,258.24Z" transform="translate(-3.55 -3.9)" style="fill:#00743b;fill-rule:evenodd"/><path d="M296.51,257.4l-.83-.3c.13-.36.26-.72.4-1.09a57.29,57.29,0,0,1,3.89-8.22,54.68,54.68,0,0,1,4.53-6.68,83.69,83.69,0,0,0-4.16,7.33A76.6,76.6,0,0,0,296.51,257.4Z" transform="translate(-3.55 -3.9)" style="fill:#00743b;fill-rule:evenodd"/><path d="M292.73,257.66l-.83-.3c.13-.37.26-.73.4-1.1a67.26,67.26,0,0,1,3.78-8.42,64.35,64.35,0,0,1,4.32-7c-1.27,2.24-2.62,4.79-3.93,7.61A97.6,97.6,0,0,0,292.73,257.66Z" transform="translate(-3.55 -3.9)" style="fill:#00743b;fill-rule:evenodd"/><path d="M289.15,258.05l-.83-.3.39-1.05c1.07-2.85,2.23-5.55,3.44-8.06s2.47-4.8,3.69-6.86c-1,2.24-2.13,4.74-3.27,7.48S290.27,254.94,289.15,258.05Z" transform="translate(-3.55 -3.9)" style="fill:#00743b;fill-rule:evenodd"/><path d="M286.27,257.79l-.87-.17c.07-.36.15-.72.22-1.08a51.74,51.74,0,0,1,2.51-8.31,50,50,0,0,1,3.38-6.91,77.48,77.48,0,0,0-2.91,7.49A71.58,71.58,0,0,0,286.27,257.79Z" transform="translate(-3.55 -3.9)" style="fill:#00743b;fill-rule:evenodd"/><path d="M281.23,259l-.88-.12c0-.37.11-.73.16-1.1a36.81,36.81,0,0,1,1-4.32c.43-1.38.92-2.71,1.44-4,1.05-2.53,2.19-4.84,3.26-6.94-.43,1.13-.89,2.33-1.36,3.58s-1,2.57-1.44,3.94A46.22,46.22,0,0,0,281.23,259Z" transform="translate(-3.55 -3.9)" style="fill:#00743b;fill-rule:evenodd"/><path d="M275.11,260.3l-.86-.2.27-1.17c.76-3.18,1.63-6.22,2.58-9.05s2-5.45,3-7.81c-.78,2.51-1.64,5.33-2.49,8.39S275.89,256.83,275.11,260.3Z" transform="translate(-3.55 -3.9)" style="fill:#00743b;fill-rule:evenodd"/><path d="M274.16,243.09l-.16.15-.15.16-.15.17-.08.09-.07.1a10,10,0,0,0-.52.87l-.27.49c-.08.18-.17.35-.26.53s-.17.36-.25.55l-.24.58a25.83,25.83,0,0,0-1.51,5.29c-.08.47-.17.93-.21,1.39,0,.23-.06.46-.08.69l-.06.67c-.07.9-.1,1.76-.1,2.55s.05,1.53.09,2.16c0,.16,0,.31,0,.46l0,.41c0,.26,0,.5.05.72,0-.21.05-.45.07-.72s0-.27,0-.42,0-.3,0-.46l.06-.5c0-.17.05-.35.06-.53,0-.37.06-.75.12-1.15s.09-.82.15-1.25l.09-.65c0-.22.07-.44.11-.67s.07-.45.11-.67.09-.46.13-.69,0-.23.07-.34,0-.23.07-.35.09-.46.13-.69c.4-1.84.91-3.67,1.4-5.23.11-.4.25-.77.36-1.13s.23-.7.33-1A7.66,7.66,0,0,1,274.16,243.09Z" transform="translate(-3.55 -3.9)" style="fill:#00743b;fill-rule:evenodd"/><path d="M268.21,243.19c0,.05-.11.09-.16.15l-.11.18c-.08.12-.17.24-.25.37l-.13.2a1.55,1.55,0,0,0-.12.22l-.24.45c-.14.32-.27.66-.4,1-.06.18-.13.36-.19.55s-.13.38-.19.58a32.24,32.24,0,0,0-1.12,5.2,37.87,37.87,0,0,0-.32,5.14c0,.77,0,1.48.06,2.09s.06,1.09.09,1.55c.05-.4.13-.93.2-1.55s.14-1.34.24-2.12c.05-.39.09-.8.15-1.22l.09-.63c0-.21.07-.43.1-.65.07-.44.13-.88.2-1.33s.14-.9.21-1.35c.31-1.81.68-3.62,1-5.18.08-.39.16-.77.24-1.12s.14-.69.2-1c0-.15.07-.31.09-.45s.07-.29.1-.42.07-.25.1-.37a1,1,0,0,1,.06-.16Z" transform="translate(-3.55 -3.9)" style="fill:#00743b;fill-rule:evenodd"/><path d="M261.35,243.4s-.09.09-.13.15l-.12.16-.06.08,0,0s0,0,0,0l-.07.09,0,.09c-.07.13-.15.26-.22.4l-.19.43c-.06.15-.13.31-.19.47l-.18.49-.18.52c-.05.18-.11.36-.17.55a26.87,26.87,0,0,0-1,4.88c-.09.84-.13,1.69-.14,2.5s0,1.59.05,2.31c.08,1.44.21,2.63.3,3.38,0-.19,0-.41,0-.64s0-.25,0-.39,0-.27,0-.42.05-.6.08-.94,0-.68.09-1,.06-.75.11-1.14c0-.19,0-.39.06-.59s0-.4.07-.61c0-.41.1-.82.15-1.24,0-.21.05-.42.08-.63s0-.42.08-.64c.22-1.69.52-3.38.81-4.84.13-.71.26-1.38.38-2,0-.15.05-.29.08-.43s.05-.27.07-.39a2.92,2.92,0,0,1,.1-.35.66.66,0,0,1,0-.15Z" transform="translate(-3.55 -3.9)" style="fill:#00743b;fill-rule:evenodd"/><path d="M255.74,243.59l-.09.07-.05,0s0,0,0,0l-.07.08-.06.09-.21.38c-.07.14-.13.28-.19.43l-.18.46c-.25.63-.48,1.34-.7,2.11a34.26,34.26,0,0,0-1,5.08,23.46,23.46,0,0,0-.2,2.62c0,.42,0,.84,0,1.24v.6l0,.58c0,.75.11,1.43.2,2l.06.43c0,.13,0,.26.08.39s0,.24.05.35,0,.21,0,.32c0-.1,0-.21,0-.32a2.17,2.17,0,0,0,0-.36v-.84c0-.3,0-.63,0-1s0-.71.07-1.09c.11-1.52.38-3.27.65-5s.64-3.53.92-5.07c.14-.77.26-1.48.35-2.1,0-.32.07-.61.11-.87s0-.26.05-.37a.75.75,0,0,1,0-.16A.71.71,0,0,1,255.74,243.59Z" transform="translate(-3.55 -3.9)" style="fill:#00743b;fill-rule:evenodd"/><path d="M248.82,243.75c0,.05-.1.09-.14.14a1.63,1.63,0,0,0-.11.17c-.08.11-.14.24-.21.36s-.26.54-.39.84-.14.31-.2.47-.12.33-.19.5l-.18.52-.18.54a28,28,0,0,0-1,4.89A39.7,39.7,0,0,0,246,257c0,.73,0,1.39.08,2s.05,1.07.05,1.45c0-.19.06-.41.1-.65l.06-.39c0-.13,0-.27,0-.42.05-.59.11-1.26.18-2,.16-1.47.39-3.17.68-4.87s.6-3.4.92-4.87l.42-2c.06-.28.11-.56.17-.82s0-.25.06-.36,0-.11,0-.16A.91.91,0,0,0,248.82,243.75Z" transform="translate(-3.55 -3.9)" style="fill:#00743b;fill-rule:evenodd"/><path d="M239.15,245.39l-.07.07,0,0,0,0-.09.16a3.79,3.79,0,0,0-.2.34l-.11.18c0,.06,0,.13-.08.19s-.11.27-.16.42l-.15.44c-.05.15-.1.31-.14.47s-.1.32-.14.49-.08.34-.13.52a22.87,22.87,0,0,0-.56,4.58,29.06,29.06,0,0,0,.33,4.46c.21,1.32.45,2.41.61,3.09,0-.18,0-.38,0-.6s0-.23,0-.35v-.39c0-.55,0-1.17,0-1.85,0-.34,0-.69,0-1.05v-.55c0-.19,0-.38,0-.57,0-.76.06-1.55.1-2.34.08-1.57.24-3.16.41-4.53.08-.66.16-1.29.23-1.87,0-.14,0-.27.05-.4s0-.25,0-.37l.06-.33a.8.8,0,0,1,0-.15Z" transform="translate(-3.55 -3.9)" style="fill:#00743b;fill-rule:evenodd"/><path d="M229.77,247l-.24.49a1.71,1.71,0,0,0-.14.27,2.83,2.83,0,0,0-.11.31,6.81,6.81,0,0,0-.36,1.4,18.89,18.89,0,0,0-.3,3.35c0,.29,0,.58,0,.86s0,.56,0,.84c.05.55.11,1.07.18,1.55a19.11,19.11,0,0,0,.45,2.27c0-.51,0-1.34,0-2.33,0-.25,0-.51,0-.77l0-.82c0-.55,0-1.13,0-1.71,0-1.15.12-2.31.18-3.32,0-.25,0-.49,0-.73s0-.45,0-.65A7.61,7.61,0,0,1,229.77,247Z" transform="translate(-3.55 -3.9)" style="fill:#00743b;fill-rule:evenodd"/><path d="M310.09,228.11l-.75-.46.75-1.29a55.94,55.94,0,0,0,2.62-5.41c.78-1.81,1.51-3.6,2.25-5.34s1.51-3.4,2.35-5a33.66,33.66,0,0,1,2.71-4.31,40.42,40.42,0,0,0-2.48,4.64c-.76,1.68-1.47,3.48-2.19,5.36s-1.44,3.83-2.27,5.82A44.15,44.15,0,0,1,310.09,228.11Z" transform="translate(-3.55 -3.9)" style="fill:#00743b;fill-rule:evenodd"/><path d="M307.53,227.83l-.86-.21c.11-.46.23-.92.34-1.38a75.58,75.58,0,0,1,3.6-10.56,74.22,74.22,0,0,1,4.49-8.84c-1.36,2.81-2.78,6-4.08,9.53A97.38,97.38,0,0,0,307.53,227.83Z" transform="translate(-3.55 -3.9)" style="fill:#00743b;fill-rule:evenodd"/><path d="M303,229.83l-.86-.19.33-1.49a86.67,86.67,0,0,1,3.5-11.44,82.5,82.5,0,0,1,4.43-9.66c-1.34,3.06-2.73,6.54-4,10.37A113.49,113.49,0,0,0,303,229.83Z" transform="translate(-3.55 -3.9)" style="fill:#00743b;fill-rule:evenodd"/><path d="M298.12,230.23l-.86-.21c.12-.49.23-1,.35-1.48A105.69,105.69,0,0,1,301,217a52.84,52.84,0,0,1,2.19-5.1,39.33,39.33,0,0,1,2.57-4.45,46.25,46.25,0,0,0-2.32,4.78c-.73,1.72-1.39,3.55-2,5.48s-1.17,3.95-1.7,6S298.64,228,298.12,230.23Z" transform="translate(-3.55 -3.9)" style="fill:#00743b;fill-rule:evenodd"/><path d="M293.1,228.86l-.87-.12c.06-.44.13-.88.19-1.33A57.33,57.33,0,0,1,295,217.18a56.19,56.19,0,0,1,3.88-8.52,76.34,76.34,0,0,0-3.42,9.16A72,72,0,0,0,293.1,228.86Z" transform="translate(-3.55 -3.9)" style="fill:#00743b;fill-rule:evenodd"/><path d="M286.42,229.8l-.87-.17.27-1.35a80.66,80.66,0,0,1,2.9-10.48,81.68,81.68,0,0,1,3.75-8.9c-1.1,2.83-2.24,6-3.29,9.55A112.38,112.38,0,0,0,286.42,229.8Z" transform="translate(-3.55 -3.9)" style="fill:#00743b;fill-rule:evenodd"/><path d="M281,230.3l-.89-.07c0-.42.07-.84.1-1.26a75.29,75.29,0,0,1,1.52-9.87,71.34,71.34,0,0,1,2.47-8.5c-.68,2.7-1.37,5.74-1.93,9.06A103.46,103.46,0,0,0,281,230.3Z" transform="translate(-3.55 -3.9)" style="fill:#00743b;fill-rule:evenodd"/><path d="M276.17,230.11l-.89-.08c0-.42.09-.85.13-1.28a80.34,80.34,0,0,1,1.67-10,76.26,76.26,0,0,1,2.56-8.64c-.71,2.74-1.42,5.84-2,9.2S276.49,226.3,276.17,230.11Z" transform="translate(-3.55 -3.9)" style="fill:#00743b;fill-rule:evenodd"/><path d="M270.32,230.68l-.89-.05c0-.42.06-.83.08-1.25.11-1.7.24-3.37.43-5s.41-3.23.72-4.76a37.68,37.68,0,0,1,1.16-4.4,30.83,30.83,0,0,1,1.62-3.9,37.44,37.44,0,0,0-1.32,4.15,45.67,45.67,0,0,0-.9,4.68c-.24,1.64-.41,3.35-.55,5.11S270.43,228.83,270.32,230.68Z" transform="translate(-3.55 -3.9)" style="fill:#00743b;fill-rule:evenodd"/><path d="M265,231l-.88,0c0-.4,0-.8,0-1.2a61.13,61.13,0,0,1,1.16-9.41,58.91,58.91,0,0,1,2.27-8.1c-.64,2.57-1.25,5.47-1.72,8.62A83.14,83.14,0,0,0,265,231Z" transform="translate(-3.55 -3.9)" style="fill:#00743b;fill-rule:evenodd"/><path d="M261.11,214.77a1.59,1.59,0,0,0-.13.13h0l0,0,0,0,0,0a0,0,0,0,0,0,0s0,0,0,0a3.24,3.24,0,0,0-.17.32c-.1.23-.19.48-.29.75s-.19.56-.27.86a8.6,8.6,0,0,0-.25.94,27,27,0,0,0-.61,4.29,34.67,34.67,0,0,0,0,4.2c0,.63.08,1.2.13,1.7,0,.24,0,.47,0,.69s0,.4,0,.57c0-.33.09-.76.16-1.27s.09-1.1.15-1.74c0-.32,0-.65.09-1,0-.17,0-.35,0-.52s0-.36,0-.54c.06-.71.14-1.46.22-2.2.17-1.49.37-3,.54-4.26.08-.65.15-1.25.21-1.77,0-.27.05-.51.06-.73l0-.17v-.07s0-.06,0-.08a.75.75,0,0,1,.07-.12A.47.47,0,0,1,261.11,214.77Z" transform="translate(-3.55 -3.9)" style="fill:#00743b;fill-rule:evenodd"/><path d="M253.84,217.87c-.07.15-.17.31-.27.48l-.08.13-.06.15c0,.1-.08.2-.13.3a3,3,0,0,0-.1.32l-.09.34c-.06.24-.11.48-.16.74a20.46,20.46,0,0,0-.31,3.32,31.76,31.76,0,0,0,.18,3.24,18.78,18.78,0,0,0,.36,2.27c0-.5.1-1.33.16-2.31s.15-2.13.23-3.28.14-2.3.18-3.31S253.75,218.39,253.84,217.87Z" transform="translate(-3.55 -3.9)" style="fill:#00743b;fill-rule:evenodd"/><path d="M247.69,220.43l-.06.12,0,.06v0l0,0-.05.07s0,0,0,.07l-.06.15a1.67,1.67,0,0,0-.08.32c0,.12,0,.24-.06.36a6.57,6.57,0,0,0,0,.78,7.7,7.7,0,0,0,.05.83,9,9,0,0,0,.61,2.64,8,8,0,0,0,.1-1.11c0-.48,0-1,0-1.58,0-.28,0-.56,0-.83s0-.53-.08-.77-.07-.47-.11-.67,0-.19-.06-.27Z" transform="translate(-3.55 -3.9)" style="fill:#00743b;fill-rule:evenodd"/><path d="M323.55,189l-.24,0-.12,0-.06,0-.05,0-.11.06-.1.08a1.56,1.56,0,0,0-.2.16,4.81,4.81,0,0,0-.42.38,5.92,5.92,0,0,0-.41.45,9.87,9.87,0,0,0-.79,1.07q-.18.28-.36.6c-.11.2-.22.41-.31.62a13.68,13.68,0,0,0-.86,2.49,8.33,8.33,0,0,0-.21,1,4,4,0,0,0-.06.43c0,.07,0,.13,0,.19a1,1,0,0,0-.07.15l.13-.13h0v0l0,0,.05-.09.19-.38c.14-.28.31-.6.49-.94.35-.7.78-1.5,1.22-2.28.06-.1.12-.2.17-.3s.11-.2.16-.3l.33-.59.16-.29.16-.28c.11-.18.21-.36.31-.54.2-.35.38-.68.53-1S323.36,189.13,323.55,189Z" transform="translate(-3.55 -3.9)" style="fill:#00743b;fill-rule:evenodd"/><path d="M318.36,189.94a1.82,1.82,0,0,0-.93.56c-.14.13-.28.29-.42.45s-.28.34-.42.52A16.42,16.42,0,0,0,315,194q-.18.34-.33.69c-.11.23-.21.46-.3.68-.19.45-.34.89-.48,1.3a14.32,14.32,0,0,0-.55,2c.25-.37.62-1,1.06-1.76s.95-1.64,1.46-2.52,1-1.76,1.46-2.55c.21-.39.4-.76.56-1.09.08-.17.14-.33.21-.47a1.14,1.14,0,0,1,.1-.19A.86.86,0,0,1,318.36,189.94Z" transform="translate(-3.55 -3.9)" style="fill:#00743b;fill-rule:evenodd"/><path d="M314,190.37l-.25.09-.12.07-.06,0-.06,0c-.16.1-.31.22-.49.35s-.29.31-.44.48a6.41,6.41,0,0,0-.44.56,12.61,12.61,0,0,0-1.53,2.76,17.44,17.44,0,0,0-.85,2.93c-.09.45-.15.86-.19,1.22,0,.18-.05.35-.07.5l-.06.4.18-.37.23-.46c.13-.34.28-.73.45-1.15.35-.84.78-1.81,1.24-2.76s.94-1.92,1.37-2.75c.21-.41.41-.8.58-1.15,0-.08.08-.16.13-.24l.12-.23.12-.19Z" transform="translate(-3.55 -3.9)" style="fill:#00743b;fill-rule:evenodd"/><path d="M309.07,191.51c-.11.07-.27.13-.39.22l-.4.31-.36.42c-.12.15-.23.31-.35.48a5.37,5.37,0,0,0-.34.53c-.1.18-.2.38-.3.58l-.27.62c-.09.21-.17.42-.25.63a15.56,15.56,0,0,0-.64,2.47c-.06.38-.1.72-.13,1s-.09.55-.13.74l.18-.3.1-.17a1.28,1.28,0,0,0,.11-.2c.12-.29.27-.61.42-1,.29-.7.63-1.52,1-2.33s.74-1.62,1-2.35c.15-.36.29-.7.4-1A4,4,0,0,1,309.07,191.51Z" transform="translate(-3.55 -3.9)" style="fill:#00743b;fill-rule:evenodd"/><path d="M304,191.68l-.1,0-.08.06c-.05.05-.13.08-.18.13a1.39,1.39,0,0,0-.19.15l-.17.18-.33.41-.16.23-.15.25a12.57,12.57,0,0,0-1,2.32,16.3,16.3,0,0,0-.56,2.39c-.05.37-.08.71-.11,1s-.05.54-.07.74c.1-.17.21-.4.36-.66l.11-.2.06-.11a.49.49,0,0,0,0-.11c.07-.16.13-.32.2-.49l.9-2.28c.32-.8.63-1.6.88-2.32.12-.36.22-.7.31-1q.06-.22.12-.42a1.54,1.54,0,0,0,.05-.17l0-.08A.43.43,0,0,1,304,191.68Z" transform="translate(-3.55 -3.9)" style="fill:#00743b;fill-rule:evenodd"/><path d="M298.49,192.44l-.18.09-.06,0h-.05l-.05,0,0,0-.19.13a1,1,0,0,0-.19.16,3.3,3.3,0,0,0-.32.4,5.15,5.15,0,0,0-.32.45,9.36,9.36,0,0,0-1,2.23,10.78,10.78,0,0,0-.51,2.33,8.23,8.23,0,0,0,0,1.68c.14-.34.33-.9.59-1.56s.49-1.44.79-2.21.63-1.53.92-2.21c.14-.33.26-.65.37-.93s.1-.27.15-.39A1.15,1.15,0,0,1,298.49,192.44Z" transform="translate(-3.55 -3.9)" style="fill:#00743b;fill-rule:evenodd"/><path d="M292.34,192.88l-.32.26-.09.07-.07.08-.16.18-.15.19a2.39,2.39,0,0,0-.13.21c-.09.15-.17.31-.25.47a13.81,13.81,0,0,0-.82,2.22l-.15.59-.12.58c-.06.39-.12.76-.16,1.1s-.07.63-.11.94-.07.5-.1.68c.1-.19.22-.39.34-.62l.22-.39c.06-.15.12-.31.19-.47l.42-1,.39-1.14c.25-.78.49-1.56.67-2.25S292.18,193.22,292.34,192.88Z" transform="translate(-3.55 -3.9)" style="fill:#00743b;fill-rule:evenodd"/><path d="M286.11,194.05l-.08,0-.09.05a1.08,1.08,0,0,0-.18.11,1.93,1.93,0,0,0-.36.28l-.17.18a1,1,0,0,0-.16.19c-.1.14-.19.29-.28.44a9.86,9.86,0,0,0-1.08,3.31c0,.38-.08.75-.1,1.08s0,.66,0,.93,0,.5,0,.67a7.81,7.81,0,0,0,.61-1.46l.34-1,.18-.54.18-.55c.23-.74.48-1.49.68-2.15A6.26,6.26,0,0,1,286.11,194.05Z" transform="translate(-3.55 -3.9)" style="fill:#00743b;fill-rule:evenodd"/><path d="M279.34,194.51a.47.47,0,0,0-.09.06l-.1.05-.21.13c-.14.1-.27.21-.41.33a1,1,0,0,0-.2.21l-.17.22q-.18.24-.36.51a12.49,12.49,0,0,0-1.1,2.48,15,15,0,0,0-.6,2.57c-.06.39-.09.75-.11,1.07a7.54,7.54,0,0,0,0,.81,16.42,16.42,0,0,0,.76-1.7l1-2.44c.34-.86.7-1.71,1-2.48.13-.39.25-.75.34-1.07A2.42,2.42,0,0,1,279.34,194.51Z" transform="translate(-3.55 -3.9)" style="fill:#00743b;fill-rule:evenodd"/><path d="M271.36,196l-.1.05-.08.06-.18.15-.37.33c-.12.13-.23.27-.35.42l-.18.23a.54.54,0,0,0-.07.13l-.07.13a7.77,7.77,0,0,0-.5,1.17c-.07.2-.13.42-.19.63s0,.22-.07.33a1.91,1.91,0,0,0-.06.33,11,11,0,0,0-.14,2.51,6.24,6.24,0,0,0,.33,1.75c.11-.36.22-1,.38-1.68s.34-1.54.55-2.37l.08-.31c0-.1.05-.21.07-.31l.15-.61.08-.31.08-.29c0-.19.09-.38.14-.57.08-.38.16-.73.24-1,0-.15.08-.29.12-.41l.06-.18s0-.06,0-.08Z" transform="translate(-3.55 -3.9)" style="fill:#00743b;fill-rule:evenodd"/><path d="M263.9,197l-.16.14-.16.15-.09.09h0l0,0-.06,0-.17.19a3.9,3.9,0,0,0-.36.43c-.05.08-.11.16-.16.25s-.09.18-.14.27a11.67,11.67,0,0,0-.86,2.5,12.75,12.75,0,0,0-.33,2.56,13.55,13.55,0,0,0,.05,1.82c.15-.37.35-1,.61-1.71l.09-.27c0-.1.06-.2.08-.3s.11-.4.17-.6c.12-.41.24-.84.36-1.27.25-.86.51-1.73.71-2.49.1-.39.17-.76.24-1.07,0-.16.09-.3.13-.43l.06-.18A.52.52,0,0,1,263.9,197Z" transform="translate(-3.55 -3.9)" style="fill:#00743b;fill-rule:evenodd"/><path d="M255.62,198.05l-.15.13a1.83,1.83,0,0,1-.13.16l-.06.08-.06.09-.1.19a7.79,7.79,0,0,0-.38.91,13.12,13.12,0,0,0-.52,2.22c-.1.78-.15,1.55-.17,2.22a10.38,10.38,0,0,0,0,1.59,15.62,15.62,0,0,0,.48-1.51c.18-.65.38-1.41.55-2.17s.31-1.55.39-2.24a8.69,8.69,0,0,0,.08-.95c0-.14,0-.28,0-.4s0-.12,0-.17A.89.89,0,0,0,255.62,198.05Z" transform="translate(-3.55 -3.9)" style="fill:#00743b;fill-rule:evenodd"/><path d="M119.1,249.06l-.29-.84,3.24-1.09c8.84-2.94,17.45-5.57,25.64-7.89s15.95-4.31,23.08-6c-7.23,2-15.33,4.3-24,6.94S128.74,245.79,119.1,249.06Z" transform="translate(-3.55 -3.9)" style="fill:#00743b;fill-rule:evenodd"/><path d="M117.91,250.86l-.26-.85,3-.95c8.35-2.6,16.45-5,24.14-7.12s14.95-4.05,21.63-5.71c-6.77,2-14.35,4.17-22.52,6.62S127,248,117.91,250.86Z" transform="translate(-3.55 -3.9)" style="fill:#00743b;fill-rule:evenodd"/><path d="M119,252.22l-.26-.85,3.47-1.06c9.46-2.86,18.64-5.5,27.35-7.87s16.95-4.5,24.51-6.35c-7.67,2.16-16.27,4.6-25.54,7.3S129.31,249,119,252.22Z" transform="translate(-3.55 -3.9)" style="fill:#00743b;fill-rule:evenodd"/><path d="M120.51,253.72l-.27-.84,3.7-1.2c10.12-3.23,20-6.1,29.37-8.58s18.27-4.61,26.45-6.38c-8.31,2.08-17.6,4.51-27.58,7.34S131.55,250.11,120.51,253.72Z" transform="translate(-3.55 -3.9)" style="fill:#00743b;fill-rule:evenodd"/><path d="M124,253.73l-.25-.85,3.9-1.11c10.65-3,21-5.71,30.79-8.14s19.08-4.57,27.59-6.41c-8.65,2.15-18.35,4.61-28.78,7.37S135.66,250.41,124,253.73Z" transform="translate(-3.55 -3.9)" style="fill:#00743b;fill-rule:evenodd"/><path d="M132.16,253.21l-.25-.84,3.32-1c9.06-2.63,17.88-5,26.25-7s16.3-3.77,23.59-5.23c-7.4,1.76-15.68,3.8-24.59,6.14S142.05,250.28,132.16,253.21Z" transform="translate(-3.55 -3.9)" style="fill:#00743b;fill-rule:evenodd"/><path d="M143.21,252.46l-.27-.85,3-1c8.2-2.54,16.23-4.68,23.87-6.41s14.9-3.09,21.58-4.12c-6.79,1.32-14.37,3-22.49,5S152.13,249.59,143.21,252.46Z" transform="translate(-3.55 -3.9)" style="fill:#00743b;fill-rule:evenodd"/><path d="M132.2,253.69l-.27.84-.69-.24a11.83,11.83,0,0,1-4.61-3.27,12.25,12.25,0,0,1-1.48-2.14,11.52,11.52,0,0,1-.89-2.23,13.91,13.91,0,0,0,3,4.11A13,13,0,0,0,132.2,253.69Z" transform="translate(-3.55 -3.9)" style="fill:#00743b;fill-rule:evenodd"/><path d="M136.06,253.17l-.3.84-.7-.27a12.85,12.85,0,0,1-4.65-3.44,12.32,12.32,0,0,1-1.5-2.21,11.44,11.44,0,0,1-.93-2.27,14.74,14.74,0,0,0,1.28,2.16A14.2,14.2,0,0,0,131,250,14,14,0,0,0,136.06,253.17Z" transform="translate(-3.55 -3.9)" style="fill:#00743b;fill-rule:evenodd"/><path d="M141.38,252.15l-.33.83-.74-.31a16.3,16.3,0,0,1-5.08-3.64,15.7,15.7,0,0,1-3-4.63,19.52,19.52,0,0,0,3.64,4.36A18.27,18.27,0,0,0,141.38,252.15Z" transform="translate(-3.55 -3.9)" style="fill:#00743b;fill-rule:evenodd"/><path d="M148.63,252.38l-.16.87-.47-.1-.46-.11a12.42,12.42,0,0,1-6.18-3.89,30.6,30.6,0,0,1-2-2.69,26.41,26.41,0,0,0-1.85-2.44,20.52,20.52,0,0,1,2.21,2.32c.73.85,1.46,1.77,2.32,2.6a12.49,12.49,0,0,0,3,2.17A12.72,12.72,0,0,0,148.63,252.38Z" transform="translate(-3.55 -3.9)" style="fill:#00743b;fill-rule:evenodd"/><path d="M152.45,250.9v.88a4.33,4.33,0,0,1-.95-.11,4.8,4.8,0,0,1-1.76-.77,12.21,12.21,0,0,1-1.35-1.17c-.84-.78-1.65-1.55-2.4-2.34s-1.47-1.57-2.11-2.37a22.06,22.06,0,0,1-1.69-2.41c.61.74,1.29,1.5,2,2.26s1.56,1.51,2.42,2.28l2.7,2.36a6.12,6.12,0,0,0,1.44,1A4.22,4.22,0,0,0,152.45,250.9Z" transform="translate(-3.55 -3.9)" style="fill:#00743b;fill-rule:evenodd"/><path d="M156.73,249.63l-.35.81-.74-.32a12.85,12.85,0,0,1-1.48-.75c-.25-.13-.47-.3-.7-.45a4,4,0,0,1-.33-.24l-.33-.26a13.24,13.24,0,0,1-2.13-2.32,21.52,21.52,0,0,1-1.53-2.5c-.44-.83-.83-1.64-1.18-2.42.48.73,1,1.52,1.54,2.33a24.85,24.85,0,0,0,1.84,2.41l.26.3.27.29c.18.19.38.37.57.56l.3.27.16.13.15.13.32.25.34.24A15.27,15.27,0,0,0,156.73,249.63Z" transform="translate(-3.55 -3.9)" style="fill:#00743b;fill-rule:evenodd"/><path d="M163.06,249.81l-.39.79-.85-.45a15.48,15.48,0,0,1-3-2.35,21.69,21.69,0,0,1-2.38-2.75c-.7-.94-1.32-1.9-1.88-2.83s-1.08-1.85-1.56-2.74c.6.83,1.24,1.72,1.92,2.64s1.41,1.86,2.22,2.79a24.26,24.26,0,0,0,2.67,2.7A16.28,16.28,0,0,0,163.06,249.81Z" transform="translate(-3.55 -3.9)" style="fill:#00743b;fill-rule:evenodd"/><path d="M170.75,247.58l-.25.84-.95-.32a14.87,14.87,0,0,1-3.54-1.91,19,19,0,0,1-2.85-2.55,23.63,23.63,0,0,1-2.19-2.83,26.34,26.34,0,0,1-1.63-2.87c.59.9,1.25,1.83,2,2.76a27.67,27.67,0,0,0,2.51,2.74,19.89,19.89,0,0,0,3.13,2.42A15.75,15.75,0,0,0,170.75,247.58Z" transform="translate(-3.55 -3.9)" style="fill:#00743b;fill-rule:evenodd"/><path d="M175.08,246.22l-.57.68-.51-.43a33.91,33.91,0,0,1-3.74-3.75,30.59,30.59,0,0,1-2.76-3.79c1,1.09,2.12,2.29,3.38,3.53S173.55,245,175.08,246.22Z" transform="translate(-3.55 -3.9)" style="fill:#00743b;fill-rule:evenodd"/><path d="M182,245.12l-.44.77-.45-.27a16.38,16.38,0,0,1-3.23-2.57,15.79,15.79,0,0,1-2.22-2.9,30.73,30.73,0,0,0,2.78,2.55A26.71,26.71,0,0,0,182,245.12Z" transform="translate(-3.55 -3.9)" style="fill:#00743b;fill-rule:evenodd"/><path d="M131.84,260.76l-.19-.86,2.74-.62c7.49-1.67,14.76-3.16,21.65-4.46s13.39-2.42,19.36-3.36c-6.07,1.23-12.86,2.62-20.19,4.17S140,258.9,131.84,260.76Z" transform="translate(-3.55 -3.9)" style="fill:#00743b;fill-rule:evenodd"/><path d="M135.51,261.32l-.2-.86,3-.68c8.15-1.83,16.06-3.44,23.56-4.81s14.59-2.51,21.09-3.45c-6.61,1.23-14,2.65-22,4.28S144.4,259.27,135.51,261.32Z" transform="translate(-3.55 -3.9)" style="fill:#00743b;fill-rule:evenodd"/><path d="M136.07,262.41l-.19-.87,3.12-.67c8.54-1.82,16.83-3.36,24.7-4.61s15.31-2.24,22.14-3c-7,1-14.74,2.29-23.12,3.81S145.38,260.36,136.07,262.41Z" transform="translate(-3.55 -3.9)" style="fill:#00743b;fill-rule:evenodd"/><path d="M135.73,263.62l-.18-.87,2.68-.55c7.31-1.49,14.4-2.76,21.13-3.82s13.09-1.9,18.92-2.57c-5.93.95-12.58,2.06-19.74,3.35S143.71,261.94,135.73,263.62Z" transform="translate(-3.55 -3.9)" style="fill:#00743b;fill-rule:evenodd"/><path d="M137.85,264.58l-.17-.87,2.47-.49c6.76-1.33,13.31-2.5,19.52-3.52s12.07-1.88,17.44-2.6c-5.46,1-11.58,2.13-18.19,3.38S145.23,263.09,137.85,264.58Z" transform="translate(-3.55 -3.9)" style="fill:#00743b;fill-rule:evenodd"/><path d="M139.19,265.59l-.14-.87,2.86-.49c15.61-2.63,30.2-5,42.53-6.8C171.91,259.85,156.27,262.68,139.19,265.59Z" transform="translate(-3.55 -3.9)" style="fill:#00743b;fill-rule:evenodd"/><path d="M142.23,266.26l-.13-.87,2.91-.45c15.91-2.45,30.77-4.6,43.33-6.3C175.57,260.91,159.63,263.56,142.23,266.26Z" transform="translate(-3.55 -3.9)" style="fill:#00743b;fill-rule:evenodd"/><path d="M147.06,266.9l-.12-.87,2.58-.37c14.11-2,27.28-3.69,38.42-5C176.62,262.54,162.49,264.71,147.06,266.9Z" transform="translate(-3.55 -3.9)" style="fill:#00743b;fill-rule:evenodd"/><path d="M152.28,267.47l-.13-.88,2.29-.33c6.24-.91,12.29-1.68,18-2.34s11.13-1.18,16.08-1.6l-16.79,2.33C165.65,265.51,159.1,266.45,152.28,267.47Z" transform="translate(-3.55 -3.9)" style="fill:#00743b;fill-rule:evenodd"/><path d="M155.55,268.26l-.1-.87,2.66-.32c14.49-1.71,28-3.16,39.47-4.27C185.93,264.47,171.41,266.37,155.55,268.26Z" transform="translate(-3.55 -3.9)" style="fill:#00743b;fill-rule:evenodd"/><path d="M165.22,268.65l-.12-.87,3-.4c8.29-1.06,16.33-1.9,23.94-2.55s14.79-1.1,21.37-1.41c-6.71.58-14.24,1.28-22.36,2.14S174.28,267.45,165.22,268.65Z" transform="translate(-3.55 -3.9)" style="fill:#00743b;fill-rule:evenodd"/><path d="M148,267l-.39.8-.67-.36a10,10,0,0,1-2.32-2,13.86,13.86,0,0,1-1.64-2.33,22.71,22.71,0,0,1-1.17-2.38c-.33-.79-.62-1.55-.88-2.29.39.7.8,1.44,1.25,2.21s.92,1.56,1.47,2.34a15.76,15.76,0,0,0,1.88,2.23A9.65,9.65,0,0,0,148,267Z" transform="translate(-3.55 -3.9)" style="fill:#00743b;fill-rule:evenodd"/><path d="M151.8,266.83l-.36.81-.69-.34a11.09,11.09,0,0,1-2.49-1.8,11.3,11.3,0,0,1-1.85-2.27,11.17,11.17,0,0,1-1.17-2.48,10.78,10.78,0,0,1-.49-2.48,12.68,12.68,0,0,0,.87,2.43,12.39,12.39,0,0,0,1.46,2.38,12.94,12.94,0,0,0,2.07,2.12A11.86,11.86,0,0,0,151.8,266.83Z" transform="translate(-3.55 -3.9)" style="fill:#00743b;fill-rule:evenodd"/><path d="M156.48,267.54l-.39.8-.8-.42a16.75,16.75,0,0,1-5.24-4.64,16.58,16.58,0,0,1-1.65-2.77,15.57,15.57,0,0,1-1-2.8,20.09,20.09,0,0,0,1.39,2.73,19.15,19.15,0,0,0,2,2.68A18.41,18.41,0,0,0,156.48,267.54Z" transform="translate(-3.55 -3.9)" style="fill:#00743b;fill-rule:evenodd"/><path d="M161.51,267.87l-.26.85-.48-.17-.48-.18a12,12,0,0,1-3.39-2.21,15.07,15.07,0,0,1-2.47-2.92,23,23,0,0,1-1.71-3.14c-.47-1-.86-2.07-1.21-3.06.48,1,1,2,1.59,3a26.23,26.23,0,0,0,2,3.1,15.94,15.94,0,0,0,2.77,2.8A11.24,11.24,0,0,0,161.51,267.87Z" transform="translate(-3.55 -3.9)" style="fill:#00743b;fill-rule:evenodd"/><path d="M165.22,267.78l-.08.88a4.7,4.7,0,0,1-1-.22,5.65,5.65,0,0,1-1.78-1.09,9.62,9.62,0,0,1-1.34-1.46c-.39-.51-.75-1-1.08-1.54s-.68-1-1-1.52c-1.29-2-2.45-3.94-3.45-5.74,1.26,1.7,2.65,3.61,4.16,5.65l1.15,1.57c.39.52.8,1.05,1.23,1.54a9.1,9.1,0,0,0,.7.69c.12.12.25.21.37.32l.2.14.2.14a3.92,3.92,0,0,0,.84.43A3.32,3.32,0,0,0,165.22,267.78Z" transform="translate(-3.55 -3.9)" style="fill:#00743b;fill-rule:evenodd"/><path d="M169.17,268.17l-.61.65-.66-.65a25.11,25.11,0,0,1-4.29-5.84,24.44,24.44,0,0,1-2.24-6,32.23,32.23,0,0,0,2.95,6A30.16,30.16,0,0,0,169.17,268.17Z" transform="translate(-3.55 -3.9)" style="fill:#00743b;fill-rule:evenodd"/><path d="M173.88,267.51l-.6.65-.61-.59a25.7,25.7,0,0,1-4.11-5.26,25.4,25.4,0,0,1-2.38-5.4,37.22,37.22,0,0,0,3.07,5.31A33.62,33.62,0,0,0,173.88,267.51Z" transform="translate(-3.55 -3.9)" style="fill:#00743b;fill-rule:evenodd"/><path d="M179.08,266.87l-.44.77-.62-.39a10.7,10.7,0,0,1-2.13-1.94,16.05,16.05,0,0,1-1.55-2.24,25.21,25.21,0,0,1-1.13-2.27c-.32-.74-.61-1.47-.88-2.17.4.66.8,1.36,1.24,2.09s.91,1.47,1.44,2.22a17.8,17.8,0,0,0,1.78,2.15A11.07,11.07,0,0,0,179.08,266.87Z" transform="translate(-3.55 -3.9)" style="fill:#00743b;fill-rule:evenodd"/><path d="M186.65,267.41l-.51.73-.59-.42a22.81,22.81,0,0,1-4.1-3.9,22,22,0,0,1-2.71-4.22,33.72,33.72,0,0,0,3.35,4A30.66,30.66,0,0,0,186.65,267.41Z" transform="translate(-3.55 -3.9)" style="fill:#00743b;fill-rule:evenodd"/><path d="M192.05,266.83l-.49.74-.36-.25a11.88,11.88,0,0,1-2.46-2.32,11.54,11.54,0,0,1-1.53-2.56,25,25,0,0,0,2.1,2.24A19.6,19.6,0,0,0,192.05,266.83Z" transform="translate(-3.55 -3.9)" style="fill:#00743b;fill-rule:evenodd"/><path d="M172.78,270.65l.47.05.23,0,.25,0h1l2.12,0c1.48,0,3.06,0,4.73,0,3.35,0,7.08-.05,11-.11,7.92-.13,16.8-.36,25.55-.66,4.38-.15,8.72-.31,12.9-.5s8.2-.36,11.91-.54l10.12-.49,4.13-.2,3.38-.12-3.39,0-4.21.11-10.45.26-12.36.32-13.32.37L191.1,270c-3.88.11-7.46.23-10.56.35l-4.29.17-1.85.09-.43,0h-.41Z" transform="translate(-3.55 -3.9)" style="fill:#00743b;fill-rule:evenodd"/><path d="M186.2,272.57l.32.05.16,0,.16,0,.67.06.35,0,.17,0,.18,0,.36,0h.37c1,0,2.05,0,3.17.05h3.55l3.86,0c5.32-.09,11.28-.3,17.15-.59s11.66-.65,16.64-1l6.78-.51,2.77-.2,2.26-.12-2.27,0-2.83.07-7,.22-17.22.71-17.29.68c-2.6.1-5,.21-7.09.32l-2.88.16-1.23,0h-.57Z" transform="translate(-3.55 -3.9)" style="fill:#00743b;fill-rule:evenodd"/><path d="M194.4,275l.44.07.46.05c.31,0,.64.05,1,.08.17,0,.34,0,.52,0h1.66c1.55,0,3.27,0,5.09-.05s3.77-.11,5.75-.19l3-.14,3-.18c4-.25,8-.56,11.43-.86,1.71-.16,3.28-.31,4.65-.46l1.9-.19.43-.05.2,0h.93l-.73-.08h-.84l-.92,0-1,0-4.82.21-11.83.56c-4.15.21-8.3.44-11.88.66-1.79.11-3.43.22-4.87.33l-2,.15c-.3,0-.59,0-.85,0s-.27,0-.39,0Z" transform="translate(-3.55 -3.9)" style="fill:#00743b;fill-rule:evenodd"/><path d="M205.09,277.15c.32,0,.68.1,1.07.13l.6,0,.64,0c.88,0,1.86,0,2.9-.08l3.26-.18c1.12-.07,2.27-.16,3.42-.27,2.28-.2,4.54-.44,6.48-.67l2.64-.31,2-.22-2,0h-2l-.74,0c-2,.09-4.37.22-6.72.38s-4.7.39-6.73.61c-1,.11-2,.22-2.76.34l-1.11.15-.49,0Z" transform="translate(-3.55 -3.9)" style="fill:#00743b;fill-rule:evenodd"/><path d="M223.87,199.55c-.43-11.52-.93-23.16-.92-34.69a52.53,52.53,0,0,0-10.93-.34q.24,18.79.47,37.6c1.71-.36,3.49-.44,5.2-.8A23.32,23.32,0,0,0,223.87,199.55Z" transform="translate(-3.55 -3.9)" style="fill:#00743b;fill-rule:evenodd"/><path d="M186.49,223.48c-.55-12.77-1.23-25.62-1.36-38.41-2.67-.26-5.27-.1-7.95-.19q.27,20.07,1.53,40.11C181.43,224.2,183.7,224,186.49,223.48Z" transform="translate(-3.55 -3.9)" style="fill:#00743b;fill-rule:evenodd"/><path d="M141.07,237.06c.21-9.19.33-18.45.85-27.64-1.91-.31-3.78-.32-5.7-.51q-.76,14.42-.81,28.87C137.4,237.34,139,237.33,141.07,237.06Z" transform="translate(-3.55 -3.9)" style="fill:#00743b;fill-rule:evenodd"/><path d="M162.54,231.16c-.26-10.74-.64-21.53-.55-32.27-2.24-.26-4.42-.17-6.67-.29q-.07,16.86.67,33.7C158.29,231.68,160.2,231.58,162.54,231.16Z" transform="translate(-3.55 -3.9)" style="fill:#00743b;fill-rule:evenodd"/><path d="M127.48,223c.1-7.23.17-14.5.4-21.73a19.58,19.58,0,0,0-2.41-.2q-.34,11.34-.38,22.69A15.06,15.06,0,0,1,127.48,223Z" transform="translate(-3.55 -3.9)" style="fill:#00743b;fill-rule:evenodd"/><path d="M117.6,222.69a22.86,22.86,0,0,0-.3,5.67c0,1.94.09,3.88.15,5.82s.13,3.81.19,5.71c0,1,.06,1.91.1,2.86,0,.47,0,.95,0,1.43a6.2,6.2,0,0,0,.15,1.61,1.13,1.13,0,0,0,2.16,0,11.05,11.05,0,0,0,0-2.93c0-1-.07-1.91-.1-2.86l-.21-5.82c-.07-1.91-.13-3.81-.25-5.71a22.86,22.86,0,0,0-.68-5.78A.66.66,0,0,0,117.6,222.69Z" transform="translate(-3.55 -3.9)" style="fill:#00743b;fill-rule:evenodd"/><path d="M117.92,223.83a8.4,8.4,0,0,0,2.3.21c.77.05,1.54,0,2.31,0,1.51,0,3,.05,4.51.09,3,.09,6.09.2,9.13.38,1.5.09,1.5-2.26,0-2.33-3-.14-6.08-.23-9.13-.25-1.5,0-3,0-4.51,0-.73,0-1.47,0-2.2,0a8.42,8.42,0,0,0-2.41.28A.8.8,0,0,0,117.92,223.83Z" transform="translate(-3.55 -3.9)" style="fill:#00743b;fill-rule:evenodd"/><path d="M135.44,223.37c-.22,2.4-.11,4.84-.12,7.25s.07,4.83.11,7.24a1.07,1.07,0,0,0,2.14,0c0-2.41,0-4.83-.11-7.24s-.05-4.85-.34-7.25A.84.84,0,0,0,135.44,223.37Z" transform="translate(-3.55 -3.9)" style="fill:#00743b;fill-rule:evenodd"/><path d="M112,247.92c.12-6.19.2-12.31.32-18.5,1.72.06,3.57.06,5.28,0,.08-2.09.23-4,.24-6.09l-23.18-.08c0,2,.08,4,.29,6,2.48.05,5,.22,7.53.27-.09,6.13.36,12.36.27,18.48a7.8,7.8,0,0,0,.24,2.51,6.18,6.18,0,0,0,2.35-.17c-.05.11,0,0,.12-.09s.23-.15.34-.09c.34-5,.1-10,.13-15.11a5.69,5.69,0,0,1,2.43,0c0,4.39-.06,8.84,0,13.22.28.27.49-.18.88-.2A14.38,14.38,0,0,0,112,247.92Z" transform="translate(-3.55 -3.9)" style="fill:#00743b;fill-rule:evenodd"/><path d="M139,225.13a14.32,14.32,0,0,0,2-.33c.7-.22,1.39-.48,2.08-.71l3.86-1.31c2.57-.88,5.13-1.81,7.69-2.72,5.16-1.83,10.31-3.69,15.46-5.54q15.36-5.52,30.71-11l17.43-6.29a1.41,1.41,0,0,0,1-1.7,1.4,1.4,0,0,0-1.7-1q-15.42,5.73-30.83,11.44c-10.27,3.82-20.56,7.61-30.82,11.47-2.89,1.09-5.79,2.16-8.67,3.28l-4.33,1.69-2,.8a13.64,13.64,0,0,0-2.08,1.16A.42.42,0,0,0,139,225.13Z" transform="translate(-3.55 -3.9)" style="fill:#00743b;fill-rule:evenodd"/><path d="M139.3,223.78a23.93,23.93,0,0,0,3.8-1.1l3.85-1.36c2.5-.87,5-1.8,7.47-2.72l15-5.57q15-5.53,29.93-11.07l8.38-3.12,4.14-1.54c1.49-.56,3-1.07,4.44-1.75s.41-2.89-1-2.47c-2.57.75-5.06,1.86-7.56,2.81l-7.43,2.84q-7.48,2.85-15,5.74L155.5,215.91c-2.79,1.06-5.58,2.11-8.35,3.23L143,220.8a27.27,27.27,0,0,0-4.18,1.92A.58.58,0,0,0,139.3,223.78Z" transform="translate(-3.55 -3.9)" style="fill:#00743b;fill-rule:evenodd"/><path d="M185.29,206.84A33.69,33.69,0,0,0,191.8,203c2.12-1.4,4.25-2.79,6.37-4.17q6.44-4.19,12.91-8.3l3.67-2.33c.59-.36,1.17-.73,1.75-1.1s1.33-.76,1.38-1.64a.73.73,0,0,0-.51-.68c-.67-.26-1.17.09-1.72.44l-1.73,1.13-3.09,2q-3.18,2.1-6.35,4.21-6.34,4.24-12.61,8.58l-3.59,2.48a17.06,17.06,0,0,0-3.26,2.73C184.85,206.56,185,206.94,185.29,206.84Z" transform="translate(-3.55 -3.9)" style="fill:#00743b;fill-rule:evenodd"/><path d="M184.89,206.21c.58-.55,1.17-1.09,1.73-1.66s1.15-1.31,1.72-2q1.56-1.82,3.14-3.62,3.22-3.71,6.42-7.43c4.21-4.92,8.42-9.84,12.7-14.7q3.68-4.17,7.37-8.34a1.26,1.26,0,0,0-1.79-1.78c-8.46,10-17,20-25.26,30.15l-3.44,4.24c-.6.74-1.21,1.47-1.79,2.22s-1.05,1.53-1.56,2.3C183.83,206.09,184.5,206.58,184.89,206.21Z" transform="translate(-3.55 -3.9)" style="fill:#00743b;fill-rule:evenodd"/><path d="M220.42,167a1.34,1.34,0,0,0,.8,1.13l1.51.92c1,.58,2,1.19,2.94,1.76,2,1.15,4,2.27,6.06,3.4q6,3.36,11.93,6.69l6.84,3.82a1.49,1.49,0,0,0,1.51-2.58l-24.33-12.8c-1.15-.6-2.31-1.16-3.47-1.73l-1.79-.87c-.56-.27-1.11-.6-1.72-.24A.57.57,0,0,0,220.42,167Z" transform="translate(-3.55 -3.9)" style="fill:#00743b;fill-rule:evenodd"/><path d="M138,225.15l0,.89-1,0c-2.64-.07-5.19-.1-7.61-.12s-4.69,0-6.78,0c2.12-.28,4.51-.51,7.1-.65S135.05,225.07,138,225.15Z" transform="translate(-3.55 -3.9)" style="fill:#00743b;fill-rule:evenodd"/><path d="M138.66,226.78v.88h-.94c-5.11.06-9.87,0-13.9-.23C128,227.1,133.07,226.86,138.66,226.78Z" transform="translate(-3.55 -3.9)" style="fill:#00743b;fill-rule:evenodd"/><path d="M137.94,228.63v.89H137c-5.05,0-9.76-.14-13.73-.37C127.36,228.85,132.42,228.66,137.94,228.63Z" transform="translate(-3.55 -3.9)" style="fill:#00743b;fill-rule:evenodd"/><path d="M138,230.72l0,.88h-1c-5.34-.06-10.33,0-14.56,0,2.15-.29,4.57-.52,7.18-.68S135,230.68,138,230.72Z" transform="translate(-3.55 -3.9)" style="fill:#00743b;fill-rule:evenodd"/><path d="M137.78,232.75l0,.89-.89,0c-4.84-.13-9.37-.19-13.2-.27A100.56,100.56,0,0,1,137.78,232.75Z" transform="translate(-3.55 -3.9)" style="fill:#00743b;fill-rule:evenodd"/><path d="M138.12,234.67v.89h-1c-5.22,0-10.1,0-14.22,0A112.58,112.58,0,0,1,138.12,234.67Z" transform="translate(-3.55 -3.9)" style="fill:#00743b;fill-rule:evenodd"/><path d="M138.14,236.34l0,.89-.92,0c-2.51-.09-4.94-.1-7.24-.06s-4.47.14-6.46.25a64.52,64.52,0,0,1,6.75-.9A68.3,68.3,0,0,1,138.14,236.34Z" transform="translate(-3.55 -3.9)" style="fill:#00743b;fill-rule:evenodd"/><path d="M135.59,238.18v.88h-.8c-4.35,0-8.41.08-11.85.06A94.48,94.48,0,0,1,135.59,238.18Z" transform="translate(-3.55 -3.9)" style="fill:#00743b;fill-rule:evenodd"/><path d="M131,239.87l.1.88-.54.06a49.19,49.19,0,0,1-8,.22C124.92,240.63,127.84,240.25,131,239.87Z" transform="translate(-3.55 -3.9)" style="fill:#00743b;fill-rule:evenodd"/><path d="M177.92,186.3c-1.5,4.12-2.83,8.29-4.28,12.43s-3,8.24-4.57,12.33c-.31.77,1,1.13,1.26.34q2.25-6.17,4.3-12.4c1.36-4.16,2.72-8.32,3.77-12.57A.25.25,0,0,0,177.92,186.3Z" transform="translate(-3.55 -3.9)" style="fill:#00743b;fill-rule:evenodd"/><path d="M160.31,200.23a20.15,20.15,0,0,0,2.22,3.13c.79,1,1.58,2,2.39,3s1.6,2,2.41,2.93c.43.51.86,1,1.3,1.51a8.91,8.91,0,0,0,1.37,1.44c.67.5,1.5-.45,1.1-1.1a9.28,9.28,0,0,0-1.24-1.42l-1.27-1.4c-.87-1-1.73-1.92-2.58-2.89s-1.65-1.9-2.46-2.87a28.15,28.15,0,0,0-2.54-2.91A.45.45,0,0,0,160.31,200.23Z" transform="translate(-3.55 -3.9)" style="fill:#00743b;fill-rule:evenodd"/><path d="M156,200.9a23.92,23.92,0,0,0-2,4.55c-.6,1.55-1.21,3.09-1.79,4.64q-1.77,4.71-3.55,9.42c-.34.9,1.14,1.32,1.46.4q1.68-4.74,3.35-9.47c.56-1.56,1.08-3.12,1.62-4.69a23.77,23.77,0,0,0,1.39-4.71C156.49,200.75,156.08,200.7,156,200.9Z" transform="translate(-3.55 -3.9)" style="fill:#00743b;fill-rule:evenodd"/><path d="M140.62,210.2q1.24,2.63,2.56,5.2l1.28,2.53a26.79,26.79,0,0,0,1.35,2.61.83.83,0,0,0,1.44-.84,22.18,22.18,0,0,0-1.38-2.47l-1.45-2.56q-1.44-2.5-2.92-5A.51.51,0,0,0,140.62,210.2Z" transform="translate(-3.55 -3.9)" style="fill:#00743b;fill-rule:evenodd"/><path d="M147.16,222.09a35.49,35.49,0,0,1,.25,5.74c1.73-.54,3.37-1,5.1-1.49,0,2.24,0,4.46-.06,6.69a91.28,91.28,0,0,1-12.85,3.75c.19-4.46.16-9.46.08-13.93C142.27,221.93,144.48,222.75,147.16,222.09Z" transform="translate(-3.55 -3.9)" style="fill:#00743b;fill-rule:evenodd"/></svg>