<svg width="50" height="50" viewBox="0 0 50 50" fill="none" xmlns="http://www.w3.org/2000/svg">
<g clip-path="url(#clip0_1352_35434)">
<path d="M0 46.8718V14.9408H49.9961V45.9886C49.9961 48.4842 48.4841 49.9909 45.9794 49.9909C39.5525 49.9909 33.125 49.9909 26.6972 49.9909C19.0666 49.9909 11.4355 49.9909 3.80401 49.9909C3.30714 50.0019 2.813 49.9145 2.35001 49.7339C1.88703 49.5532 1.46433 49.2827 1.10624 48.9381C0.502243 48.3785 0.22177 47.644 0 46.8718ZM29.9768 26.3463V23.5129H20.7238C20.3989 26.2184 20.0715 28.9058 19.7532 31.6114C20.6768 31.8266 21.543 32.0367 22.4144 32.2245C22.482 32.2384 22.5517 32.2381 22.6191 32.2235C22.6865 32.2089 22.7501 32.1803 22.8058 32.1397C23.4972 31.4874 24.319 31.3779 25.2113 31.5305C25.9941 31.6609 26.5093 32.1241 26.7194 32.8781C26.9706 33.7788 26.9396 34.735 26.6307 35.6176C26.3776 36.3559 25.8479 36.7199 25.0874 36.7408C24.2473 36.7629 23.6342 36.4029 23.3354 35.6815C23.2428 35.4251 23.1645 35.1638 23.1006 34.8988H19.4362C19.5131 36.7538 20.4381 38.0166 21.9944 38.8567C23.2063 39.509 24.516 39.672 25.8727 39.5494C28.1452 39.3446 29.8568 37.8757 30.3812 35.6528C30.6997 34.3134 30.5949 32.9082 30.0811 31.6309C29.8636 31.0308 29.5044 30.4921 29.034 30.0606C28.5637 29.629 27.9961 29.3175 27.3795 29.1523C26.1389 28.7936 24.9087 28.8145 23.7033 29.3206C23.6081 29.3598 23.5063 29.3819 23.3641 29.425C23.4854 28.3814 23.6015 27.3821 23.7216 26.3463H29.9768Z" fill="#FF5EE5"/>
<path d="M0 12.6944V6.44567C0.0208725 6.42089 0.0521801 6.40001 0.0600072 6.37131C0.67705 4.28406 1.88635 3.37089 4.04665 3.37089C5.93387 3.37089 7.82152 3.37089 9.70961 3.37089C9.88051 3.37089 10.0527 3.38788 10.2627 3.39831C10.2627 4.62848 10.2523 5.81298 10.2627 6.99879C10.2745 8.03329 10.6711 8.90601 11.4994 9.5374C12.5013 10.3006 13.618 10.4506 14.7608 9.92876C15.9648 9.38216 16.5962 8.39857 16.6406 7.07838C16.6745 6.02171 16.6497 4.96373 16.6549 3.90576C16.6549 3.73487 16.6719 3.56399 16.681 3.40223H33.3372C33.3372 3.60834 33.3372 3.78185 33.3372 3.95665C33.3372 4.98201 33.3059 6.00866 33.3503 7.03141C33.4338 8.89427 34.8414 10.2027 36.6573 10.1544C38.3819 10.1088 39.7151 8.696 39.7334 6.88401C39.7425 5.89126 39.7334 4.89851 39.7334 3.90576V3.38395C42.0124 3.38395 44.2092 3.33961 46.4034 3.3957C48.5259 3.45049 49.9831 5.02766 49.9935 7.16839C50 8.86428 49.9935 10.5523 49.9935 12.2443C49.9935 12.3852 49.9765 12.5261 49.9648 12.6944H0Z" fill="#FF5EE5"/>
<path d="M13.9633 -0.00524902C15.0434 0.427855 15.4348 1.2445 15.3983 2.38074C15.3513 3.87312 15.3983 5.36809 15.3813 6.86178C15.3643 8.35546 14.0585 9.29214 12.7723 8.77555C11.9895 8.45985 11.5551 7.84541 11.5421 7.0079C11.5147 5.28723 11.5199 3.56524 11.5421 1.84326C11.5525 0.930088 12.1396 0.390023 12.8923 -0.00524902H13.9633Z" fill="#FF5EE5"/>
<path d="M36.9119 -0.00524902C38.1147 0.418723 38.5282 1.29275 38.4773 2.52683C38.4199 4.00356 38.4773 5.48289 38.459 6.96223C38.4642 7.42201 38.3046 7.86846 38.0091 8.22071C37.7135 8.57296 37.3016 8.80771 36.848 8.88249C35.9022 9.01295 35.0216 8.51332 34.7333 7.62364C34.6462 7.32725 34.6049 7.01932 34.6107 6.71047C34.5989 5.27548 34.6107 3.85095 34.6107 2.42119C34.6107 0.991424 34.9225 0.530913 36.227 -0.00524902H36.9119Z" fill="#FF5EE5"/>
</g>
<defs>
<clipPath id="clip0_1352_35434">
<rect width="49.9987" height="50" fill="white"/>
</clipPath>
</defs>
</svg>
