<svg width="92" height="150" viewBox="0 0 92 150" fill="none" xmlns="http://www.w3.org/2000/svg">
<path d="M37.5935 96.4655H8.42664V141.285H37.5935V96.4655Z" fill="#263238"/>
<path opacity="0.6" d="M32.6706 96.461H8.42664V141.285H32.6706V96.461Z" fill="white"/>
<path opacity="0.3" d="M37.5934 96.461H32.6659V141.285H37.5934V96.461Z" fill="white"/>
<path d="M15.7951 98.7415H10.5057V104.031H15.7951V98.7415Z" fill="#263238"/>
<path d="M23.1909 98.7415H17.9016V104.031H23.1909V98.7415Z" fill="#263238"/>
<path d="M30.5868 98.7415H25.2975V104.031H30.5868V98.7415Z" fill="#263238"/>
<path d="M15.7951 105.634H10.5057V110.923H15.7951V105.634Z" fill="#263238"/>
<path d="M23.1909 105.634H17.9016V110.923H23.1909V105.634Z" fill="#263238"/>
<path d="M30.5868 105.634H25.2975V110.923H30.5868V105.634Z" fill="#263238"/>
<path d="M15.7951 112.526H10.5057V117.815H15.7951V112.526Z" fill="#263238"/>
<path d="M23.1909 112.526H17.9016V117.815H23.1909V112.526Z" fill="#263238"/>
<path d="M30.5868 112.526H25.2975V117.815H30.5868V112.526Z" fill="#263238"/>
<path d="M15.7951 119.418H10.5057V124.707H15.7951V119.418Z" fill="#263238"/>
<path d="M23.1909 119.418H17.9016V124.707H23.1909V119.418Z" fill="#263238"/>
<path d="M30.5868 119.418H25.2975V124.707H30.5868V119.418Z" fill="#263238"/>
<path d="M15.7951 126.31H10.5057V131.6H15.7951V126.31Z" fill="#263238"/>
<path d="M23.1909 126.31H17.9016V131.6H23.1909V126.31Z" fill="#263238"/>
<path d="M30.5868 126.31H25.2975V131.6H30.5868V126.31Z" fill="#263238"/>
<path d="M15.7951 135.034H10.5057V141.285H15.7951V135.034Z" fill="#263238"/>
<path d="M23.1909 133.202H17.9016V141.285H23.1909V133.202Z" fill="#263238"/>
<path d="M30.5868 135.034H25.2975V141.285H30.5868V135.034Z" fill="#263238"/>
<path opacity="0.4" d="M15.7995 98.7415H10.9452V104.031H15.7995V98.7415Z" fill="white"/>
<path opacity="0.4" d="M23.1953 98.7415H18.3411V104.031H23.1953V98.7415Z" fill="white"/>
<path opacity="0.4" d="M30.5869 98.7415H25.7327V104.031H30.5869V98.7415Z" fill="white"/>
<path opacity="0.4" d="M15.7995 105.634H10.9452V110.923H15.7995V105.634Z" fill="white"/>
<path opacity="0.4" d="M23.1953 105.634H18.3411V110.923H23.1953V105.634Z" fill="white"/>
<path opacity="0.4" d="M30.5869 105.634H25.7327V110.923H30.5869V105.634Z" fill="white"/>
<path opacity="0.4" d="M15.7995 112.526H10.9452V117.815H15.7995V112.526Z" fill="white"/>
<path opacity="0.4" d="M23.1953 112.526H18.3411V117.815H23.1953V112.526Z" fill="white"/>
<path opacity="0.4" d="M30.5869 112.526H25.7327V117.815H30.5869V112.526Z" fill="white"/>
<path opacity="0.4" d="M15.7995 119.418H10.9452V124.707H15.7995V119.418Z" fill="white"/>
<path opacity="0.4" d="M23.1953 119.418H18.3411V124.707H23.1953V119.418Z" fill="white"/>
<path opacity="0.4" d="M30.5869 119.418H25.7327V124.707H30.5869V119.418Z" fill="white"/>
<path opacity="0.4" d="M15.7995 126.31H10.9452V131.6H15.7995V126.31Z" fill="white"/>
<path opacity="0.4" d="M23.1953 126.31H18.3411V131.6H23.1953V126.31Z" fill="white"/>
<path opacity="0.4" d="M30.5869 126.31H25.7327V131.6H30.5869V126.31Z" fill="white"/>
<path opacity="0.4" d="M15.7995 135.034H10.9452V141.285H15.7995V135.034Z" fill="white"/>
<path opacity="0.4" d="M23.1953 133.202H18.3411V141.285H23.1953V133.202Z" fill="white"/>
<path opacity="0.4" d="M30.5869 135.034H25.7327V141.285H30.5869V135.034Z" fill="white"/>
<path d="M6.6543 94.5238H42.5943L41.5227 96.7998H7.7259L6.6543 94.5238Z" fill="#263238"/>
<path opacity="0.2" d="M33.197 94.5238H42.5942L41.5226 96.7998H32.6887L33.197 94.5238Z" fill="black"/>
<path d="M78.342 35.4573H56.2184V47.1488H78.342V35.4573Z" fill="#263238"/>
<path opacity="0.7" d="M78.342 35.4573H56.2184V47.1488H78.342V35.4573Z" fill="white"/>
<path d="M65.5466 35.4573H43.423V47.1488H65.5466V35.4573Z" fill="#263238"/>
<path opacity="0.4" d="M65.5466 35.4573H43.423V47.1488H65.5466V35.4573Z" fill="white"/>
<path opacity="0.5" d="M41.3213 53.4181H40.213V57.9976H41.3213V53.4181Z" fill="white"/>
<path opacity="0.5" d="M41.3213 65.2424H40.213V69.8219H41.3213V65.2424Z" fill="white"/>
<path opacity="0.5" d="M41.3213 73.252H40.213V77.8315H41.3213V73.252Z" fill="white"/>
<path opacity="0.5" d="M41.3213 81.257H40.213V85.8365H41.3213V81.257Z" fill="white"/>
<path opacity="0.5" d="M41.3213 89.262H40.213V93.8415H41.3213V89.262Z" fill="white"/>
<path opacity="0.5" d="M41.3213 97.267H40.213V101.846H41.3213V97.267Z" fill="white"/>
<path opacity="0.5" d="M41.3213 106.092H40.213V110.671H41.3213V106.092Z" fill="white"/>
<path opacity="0.5" d="M41.3213 114.916H40.213V119.496H41.3213V114.916Z" fill="white"/>
<path opacity="0.5" d="M41.3213 123.737H40.213V128.316H41.3213V123.737Z" fill="white"/>
<path opacity="0.5" d="M41.3213 132.561H40.213V137.141H41.3213V132.561Z" fill="white"/>
<path d="M84.5655 47.3182H49.9948V141.285H84.5655V47.3182Z" fill="#263238"/>
<path d="M71.7658 47.3182H37.1951V141.285H71.7658V47.3182Z" fill="#455A64"/>
<path opacity="0.3" d="M84.5653 48.6097H71.7701V141.29H84.5653V48.6097Z" fill="white"/>
<path opacity="0.5" d="M71.7658 47.3182H37.1951V141.285H71.7658V47.3182Z" fill="white"/>
<path d="M68.4912 51.4306H64.2506V139.046H68.4912V51.4306Z" fill="#455A64"/>
<path d="M60.3168 51.4306H56.0762V139.046H60.3168V51.4306Z" fill="#455A64"/>
<path d="M52.1471 51.4306H47.9065V139.046H52.1471V51.4306Z" fill="#455A64"/>
<path d="M43.9728 51.4306H39.7322V139.046H43.9728V51.4306Z" fill="#455A64"/>
<path opacity="0.2" d="M68.4912 52.5389H64.2506V139.046H68.4912V52.5389Z" fill="white"/>
<path opacity="0.2" d="M60.3168 52.5389H56.0762V139.046H60.3168V52.5389Z" fill="white"/>
<path opacity="0.2" d="M52.1471 52.5389H47.9065V139.046H52.1471V52.5389Z" fill="white"/>
<path opacity="0.2" d="M43.9728 52.5389H39.7322V139.046H43.9728V52.5389Z" fill="white"/>
<path d="M83.0908 51.4306H81.314V139.046H83.0908V51.4306Z" fill="#A2ADB2"/>
<path d="M79.6606 51.4306H77.8838V139.046H79.6606V51.4306Z" fill="#A2ADB2"/>
<path d="M76.2352 51.4306H74.4584V139.046H76.2352V51.4306Z" fill="#A2ADB2"/>
<g opacity="0.3">
<path opacity="0.4" d="M83.0911 52.5389H81.3142V139.046H83.0911V52.5389Z" fill="white"/>
<path opacity="0.4" d="M79.6609 52.5389H77.884V139.046H79.6609V52.5389Z" fill="white"/>
<path opacity="0.4" d="M76.2352 52.5389H74.4584V139.046H76.2352V52.5389Z" fill="white"/>
</g>
<path d="M83.828 44.6484H71.7701V46.4115H83.828V44.6484Z" fill="#263238"/>
<path d="M83.8282 44.2225H37.1951V46.4161H83.8282V44.2225Z" fill="#F0F0F0"/>
<path d="M85.4632 46.4161H36.2197V48.6097H85.4632V46.4161Z" fill="#263238"/>
<path d="M85.4632 42.4594H36.2197V44.653H85.4632V42.4594Z" fill="#263238"/>
<path opacity="0.1" d="M85.4632 46.4161H36.2197V48.6097H85.4632V46.4161Z" fill="black"/>
<path opacity="0.1" d="M85.4632 42.4594H36.2197V44.653H85.4632V42.4594Z" fill="black"/>
<path opacity="0.2" d="M85.4629 46.4161H71.7701V48.6097H85.4629V46.4161Z" fill="black"/>
<path opacity="0.2" d="M85.4629 42.4594H71.7701V44.653H85.4629V42.4594Z" fill="black"/>
<path opacity="0.3" d="M57.1341 35.4573H51.8494V40.7421H57.1341V35.4573Z" fill="white"/>
<path d="M91.9016 141.02H0V145.856H91.9016V141.02Z" fill="#B2B2B3"/>
<g opacity="0.7">
<path d="M91.9016 141.02H0V145.856H91.9016V141.02Z" fill="white"/>
</g>
<path d="M4.95968 141.02H4.73987V146.199H4.95968V141.02Z" fill="white"/>
<path d="M25.5124 141.02H25.2926V146.199H25.5124V141.02Z" fill="white"/>
<path d="M46.0698 141.02H45.85V146.199H46.0698V141.02Z" fill="white"/>
<path d="M66.6273 141.02H66.4075V146.199H66.6273V141.02Z" fill="white"/>
<path d="M87.1847 141.02H86.9648V146.199H87.1847V141.02Z" fill="white"/>
<path d="M91.9016 147.756H0V150H91.9016V147.756Z" fill="#263238"/>
<path opacity="0.9" d="M91.9016 147.756H0V150H91.9016V147.756Z" fill="white"/>
<path fill-rule="evenodd" clip-rule="evenodd" d="M49.6071 13.8663C49.6071 8.1978 53.8579 3.49432 59.3609 2.74136C56.7645 4.17319 54.9277 6.80792 54.6062 9.89216C54.5708 9.93972 54.5517 9.99739 54.5518 10.0566V23.6215C51.9652 20.1383 49.6071 16.9357 49.6071 13.8663Z" fill="#FF6C37"/>
<path fill-rule="evenodd" clip-rule="evenodd" d="M56.9497 11.5999C56.8978 11.1099 56.8978 10.6159 56.9497 10.1259C57.3185 6.64932 60.2681 3.93863 63.8521 3.93863C67.6856 3.93863 70.7933 7.03873 70.7933 10.863C70.7933 14.6873 67.6856 17.7872 63.8521 17.7872C60.2681 17.7872 57.3185 15.0775 56.9497 11.5999Z" fill="#FF6C37"/>
<path opacity="0.2" fill-rule="evenodd" clip-rule="evenodd" d="M50.934 19.6925C50.934 19.6925 56.2007 9.06617 71.573 10.8628V0L45.9355 5.11523" fill="white"/>
<path fill-rule="evenodd" clip-rule="evenodd" d="M72.0801 15.1829C70.8916 20.9864 62.4248 27.1672 60.9131 35.2765C60.3129 32.2962 58.739 29.5317 56.9497 26.9309V17.0753C58.6509 18.9552 61.1129 20.1366 63.8522 20.1366C67.4226 20.1366 70.523 18.1286 72.0801 15.1829Z" fill="#FF6C37"/>
</svg>
