<svg width="500" height="396" viewBox="0 0 500 396" fill="none" xmlns="http://www.w3.org/2000/svg">
<g clip-path="url(#clip0_2334_25764)">
<path d="M240.4 125.8C243.87 121.67 257.06 118.9 264.4 125.43C264.4 125.43 261.89 121.55 264.4 118.24C264.4 118.24 261.08 120.39 258.12 118.24C255.16 116.09 254.46 105.34 254.46 105.34C254.46 105.34 253.76 116.26 248.89 117.26C244.02 118.26 240.89 111.33 240.89 111.33C240.89 111.33 243.53 118.93 242.21 120.11C240.89 121.29 238.21 120.11 238.21 120.11L240.4 125.8Z" fill="#E0E0E0"/>
<path d="M230.83 136.34C230.83 136.34 226.04 145.64 230.83 153.96C229.839 153.327 228.715 152.931 227.546 152.803C226.378 152.674 225.195 152.817 224.09 153.22C224.09 153.22 225.97 151.22 225.7 149.12C225.43 147.02 216.77 144.04 216.77 144.04C216.77 144.04 223.59 144.67 225.08 142.3C226.57 139.93 221.32 135.36 221.32 135.36C221.32 135.36 227.05 138.46 228.32 137.47C229.59 136.48 228.32 133.37 228.32 133.37L230.83 136.34Z" fill="#E0E0E0"/>
<path d="M273.7 155.08C273.7 155.08 278.54 148.36 274.7 138.17L278.02 136.17C278.02 136.17 276.77 138.29 277.53 139.64C278.29 140.99 285.34 140.06 285.34 140.06C285.34 140.06 279.76 141.18 279.52 144.13C279.28 147.08 286.46 151.38 286.46 151.38C286.46 151.38 279.89 149.74 278.53 151.38C277.17 153.02 280.08 156.21 280.08 156.21C280.08 156.21 276.8 153.88 273.7 155.08Z" fill="#E0E0E0"/>
<path d="M82 88.6898C79.4236 92.6214 77.6151 97.0053 76.67 101.61L69.45 102.29V116.29L76.67 116.97C77.6186 121.567 79.427 125.944 82 129.87L77.39 135.43L87.27 145.32L92.84 140.71C96.7737 143.282 101.157 145.09 105.76 146.04L106.44 153.26H120.44L121.12 146.04C125.709 145.086 130.078 143.278 134 140.71L139.57 145.32L149.45 135.43L144.84 129.87C147.416 125.935 149.225 121.547 150.17 116.94L157.39 116.26V102.26L150.17 101.58C149.225 96.9753 147.416 92.5914 144.84 88.6598L149.45 83.0898L139.57 73.2098L134 77.8498C130.069 75.2704 125.685 73.4585 121.08 72.5098L120.4 65.2998H106.4L105.72 72.5098C101.115 73.4585 96.731 75.2704 92.8 77.8498L87.23 73.2398L77.35 83.1198L82 88.6898ZM126.81 95.8998C129.456 98.546 131.257 101.917 131.987 105.587C132.716 109.257 132.341 113.061 130.909 116.518C129.477 119.975 127.052 122.93 123.941 125.008C120.83 127.087 117.172 128.197 113.43 128.197C109.688 128.197 106.03 127.087 102.919 125.008C99.8077 122.93 97.3827 119.975 95.9506 116.518C94.5184 113.061 94.1435 109.257 94.8732 105.587C95.6029 101.917 97.4044 98.546 100.05 95.8998C101.806 94.1398 103.893 92.7434 106.19 91.7907C108.486 90.838 110.948 90.3476 113.435 90.3476C115.921 90.3476 118.384 90.838 120.68 91.7907C122.977 92.7434 125.063 94.1398 126.82 95.8998H126.81Z" fill="#E0E0E0"/>
<path d="M168.38 21.2202C166.982 23.3506 165.998 25.7254 165.48 28.2202L161.55 28.5902V36.2002L165.48 36.5702C165.998 39.065 166.982 41.4398 168.38 43.5702L165.87 46.5702L171.25 51.9502L174.25 49.4402C176.382 50.838 178.756 51.825 181.25 52.3502L181.62 56.2802H189.23L189.61 52.3502C192.104 51.8232 194.478 50.8363 196.61 49.4402L199.61 51.9502L204.99 46.5702L202.48 43.5702C203.878 41.4398 204.862 39.065 205.38 36.5702L209.31 36.2002V28.6302L205.38 28.2602C204.862 25.7654 203.878 23.3906 202.48 21.2602L204.99 18.2602L199.74 12.8002L196.74 15.3102C194.61 13.9101 192.235 12.923 189.74 12.4002L189.37 8.47021H181.75L181.38 12.4002C178.884 12.9212 176.51 13.9084 174.38 15.3102L171.38 12.8002L166 18.1802L168.38 21.2202ZM192.79 25.1502C194.232 26.5921 195.214 28.4291 195.612 30.4291C196.01 32.4291 195.806 34.5021 195.025 36.386C194.245 38.27 192.924 39.8802 191.228 41.0132C189.533 42.1461 187.539 42.7508 185.5 42.7508C183.461 42.7508 181.468 42.1461 179.772 41.0132C178.077 39.8802 176.755 38.27 175.975 36.386C175.194 34.5021 174.99 32.4291 175.388 30.4291C175.786 28.4291 176.768 26.5921 178.21 25.1502C180.144 23.2169 182.766 22.1308 185.5 22.1308C188.234 22.1308 190.857 23.2169 192.79 25.1502Z" fill="#F0F0F0"/>
<path d="M308 165.51C307.033 167.022 306.355 168.7 306 170.46L303.24 170.72V176.07L306 176.33C306.351 178.09 307.03 179.769 308 181.28L306.24 183.41L310.02 187.19L312.15 185.43C313.676 186.404 315.373 187.083 317.15 187.43L317.41 190.19H322.76L323.02 187.43C324.78 187.077 326.459 186.399 327.97 185.43L330.1 187.19L333.88 183.41L332.12 181.28C333.09 179.769 333.769 178.09 334.12 176.33L336.88 176.07V170.72L334.12 170.46C333.767 168.703 333.089 167.028 332.12 165.52L333.88 163.38L330.1 159.6L327.97 161.37C326.461 160.398 324.781 159.719 323.02 159.37L322.76 156.61H317.41L317.15 159.37C315.373 159.717 313.676 160.395 312.15 161.37L310 159.6L306.22 163.38L308 165.51ZM325.16 168.28C326.171 169.293 326.859 170.583 327.137 171.987C327.415 173.391 327.271 174.846 326.722 176.168C326.174 177.49 325.246 178.62 324.056 179.415C322.865 180.21 321.466 180.634 320.035 180.634C318.604 180.634 317.205 180.21 316.014 179.415C314.824 178.62 313.896 177.49 313.348 176.168C312.799 174.846 312.655 173.391 312.933 171.987C313.211 170.583 313.899 169.293 314.91 168.28C316.27 166.921 318.113 166.158 320.035 166.158C321.957 166.158 323.8 166.921 325.16 168.28Z" fill="#E0E0E0"/>
<path d="M293.28 210.06C291.881 212.19 290.897 214.565 290.38 217.06L286.45 217.43V225.05L290.38 225.42C290.897 227.915 291.881 230.29 293.28 232.42L290.77 235.42L296.16 240.8L299.16 238.29C301.29 239.688 303.665 240.672 306.16 241.19L306.53 245.12H314.14L314.51 241.19C317.004 240.67 319.379 239.686 321.51 238.29L324.51 240.8L329.89 235.42L327.38 232.42C328.779 230.29 329.763 227.915 330.28 225.42L334.21 225.05V217.43L330.28 217.06C329.763 214.565 328.779 212.19 327.38 210.06L329.89 207.06L324.51 201.68L321.51 204.19C319.379 202.794 317.004 201.81 314.51 201.29L314.14 197.36H306.6L306.23 201.29C303.735 201.808 301.36 202.792 299.23 204.19L296.23 201.68L290.84 207.06L293.28 210.06ZM317.69 213.98C319.133 215.421 320.117 217.258 320.516 219.259C320.915 221.259 320.711 223.333 319.932 225.217C319.152 227.102 317.83 228.713 316.134 229.847C314.439 230.98 312.445 231.585 310.405 231.585C308.365 231.585 306.371 230.98 304.675 229.847C302.98 228.713 301.658 227.102 300.878 225.217C300.098 223.333 299.895 221.259 300.294 219.259C300.693 217.258 301.677 215.421 303.12 213.98C305.054 212.052 307.674 210.97 310.405 210.97C313.136 210.97 315.756 212.052 317.69 213.98Z" fill="#E0E0E0"/>
<path d="M349.84 195.13C347.856 198.154 346.465 201.527 345.74 205.07L340.18 205.59V216.34L345.74 216.87C346.468 220.412 347.859 223.785 349.84 226.81L346.29 231.09L353.9 238.69L358.18 235.15C361.204 237.134 364.577 238.525 368.12 239.25L368.64 244.8H379.39L379.92 239.25C383.462 238.522 386.834 237.131 389.86 235.15L394.14 238.69L401.74 231.09L398.2 226.8C400.18 223.775 401.571 220.402 402.3 216.86L407.85 216.33V205.59L402.3 205.07C401.575 201.527 400.184 198.154 398.2 195.13L401.74 190.84L394.14 183.24L389.86 186.8C386.833 184.821 383.461 183.427 379.92 182.69L379.39 177.14H368.64L368.12 182.7C364.577 183.425 361.204 184.816 358.18 186.8L353.9 183.25L346.29 190.85L349.84 195.13ZM384.31 200.68C386.344 202.715 387.73 205.308 388.291 208.13C388.852 210.952 388.563 213.878 387.462 216.536C386.361 219.194 384.496 221.467 382.103 223.065C379.71 224.664 376.897 225.517 374.02 225.517C371.142 225.517 368.329 224.664 365.937 223.065C363.544 221.467 361.679 219.194 360.578 216.536C359.477 213.878 359.188 210.952 359.749 208.13C360.31 205.308 361.696 202.715 363.73 200.68C366.46 197.953 370.161 196.421 374.02 196.421C377.879 196.421 381.58 197.953 384.31 200.68Z" fill="#F0F0F0"/>
<path d="M295.66 30.8599C294.02 33.3689 292.866 36.1642 292.26 39.0999L287.66 39.5299V48.4399L292.26 48.8799C292.866 51.8157 294.02 54.611 295.66 57.1199L292.72 60.6699L299.02 66.9699L302.57 64.0299C305.08 65.6679 307.875 66.8211 310.81 67.4299L311.25 72.0299H320.16L320.59 67.4299C323.526 66.8238 326.321 65.6704 328.83 64.0299L332.38 66.9699L338.68 60.6699L335.75 57.1199C337.39 54.611 338.544 51.8157 339.15 48.8799L343.75 48.4399V39.5299L339.15 39.0999C338.545 36.1623 337.388 33.3662 335.74 30.8599L338.68 27.3099L332.38 21.0099L328.83 23.9499C326.323 22.3054 323.527 21.1517 320.59 20.5499L320.16 15.9399H311.25L310.81 20.5499C307.874 21.1535 305.078 22.3071 302.57 23.9499L299 21.0099L292.7 27.3099L295.66 30.8599ZM324.23 35.4599C325.916 37.1468 327.064 39.2957 327.529 41.635C327.994 43.9742 327.754 46.3987 326.841 48.602C325.928 50.8053 324.383 52.6884 322.4 54.0133C320.416 55.3382 318.085 56.0454 315.7 56.0454C313.315 56.0454 310.984 55.3382 309.001 54.0133C307.017 52.6884 305.472 50.8053 304.559 48.602C303.646 46.3987 303.406 43.9742 303.871 41.635C304.336 39.2957 305.484 37.1468 307.17 35.4599C309.433 33.1993 312.501 31.9295 315.7 31.9295C318.899 31.9295 321.967 33.1993 324.23 35.4599Z" fill="#F0F0F0"/>
<path d="M68.05 223.03C66.5016 225.396 65.4126 228.032 64.84 230.8L60.5 231.21V239.63L64.84 240.03C65.4137 242.798 66.5026 245.434 68.05 247.8L65.28 251.15L71.28 257.1L74.63 254.33C76.999 255.879 79.6383 256.968 82.41 257.54L82.81 261.88H91.23L91.64 257.54C94.4086 256.968 97.0446 255.879 99.41 254.33L102.76 257.1L108.76 251.15L105.89 247.8C107.439 245.431 108.527 242.792 109.1 240.02L113.44 239.62V231.2L109.1 230.8C108.527 228.032 107.438 225.396 105.89 223.03L108.66 219.68L102.66 213.73L99.31 216.5C96.9446 214.952 94.3086 213.863 91.54 213.29L91.13 208.95H82.76L82.36 213.29C79.5883 213.863 76.949 214.952 74.58 216.5L71.23 213.73L65.23 219.68L68.05 223.03ZM95.05 227.37C96.6406 228.962 97.7236 230.99 98.162 233.197C98.6004 235.404 98.3745 237.692 97.5129 239.771C96.6513 241.85 95.1927 243.627 93.3215 244.877C91.4502 246.127 89.2504 246.794 87 246.794C84.7496 246.794 82.5498 246.127 80.6785 244.877C78.8073 243.627 77.3487 241.85 76.4871 239.771C75.6255 237.692 75.3996 235.404 75.838 233.197C76.2764 230.99 77.3594 228.962 78.95 227.37C81.0824 225.249 83.9675 224.059 86.975 224.059C89.9825 224.059 92.8676 225.249 95 227.37H95.05Z" fill="#F0F0F0"/>
<path d="M443.92 275H263.17C261.617 274.997 260.128 274.379 259.029 273.281C257.931 272.182 257.313 270.693 257.31 269.14V5.86C257.313 4.30664 257.931 2.81766 259.029 1.71927C260.128 0.620882 261.617 0.00264402 263.17 0H443.92C445.473 0.00264402 446.962 0.620882 448.061 1.71927C449.159 2.81766 449.777 4.30664 449.78 5.86V269.14C449.777 270.693 449.159 272.182 448.061 273.281C446.962 274.379 445.473 274.997 443.92 275ZM263.17 0.25C261.683 0.252644 260.258 0.844543 259.206 1.89605C258.155 2.94756 257.563 4.37295 257.56 5.86V269.14C257.563 270.627 258.155 272.052 259.206 273.104C260.258 274.155 261.683 274.747 263.17 274.75H443.92C445.408 274.75 446.835 274.159 447.887 273.107C448.939 272.055 449.53 270.628 449.53 269.14V5.86C449.53 4.37214 448.939 2.94521 447.887 1.89313C446.835 0.841052 445.408 0.25 443.92 0.25H263.17Z" fill="#E0E0E0"/>
<path d="M235.49 275H54.7499C53.1948 275 51.7032 274.383 50.6027 273.284C49.5021 272.186 48.8825 270.695 48.8799 269.14V5.86C48.8825 4.30491 49.5021 2.81442 50.6027 1.71574C51.7032 0.617067 53.1948 -2.25657e-06 54.7499 0H235.49C237.044 0 238.535 0.617391 239.634 1.71635C240.732 2.81532 241.35 4.30583 241.35 5.86V269.14C241.35 270.694 240.732 272.185 239.634 273.284C238.535 274.383 237.044 275 235.49 275ZM54.7499 0.25C53.2611 0.249998 51.8331 0.840728 50.7795 1.89252C49.7258 2.94431 49.1325 4.37122 49.1299 5.86V269.14C49.1246 269.881 49.2661 270.616 49.5461 271.303C49.8262 271.989 50.2393 272.614 50.7617 273.14C51.2841 273.666 51.9055 274.083 52.5899 274.368C53.2744 274.653 54.0085 274.8 54.7499 274.8H235.49C236.227 274.8 236.956 274.655 237.637 274.373C238.317 274.091 238.936 273.678 239.457 273.157C239.978 272.636 240.391 272.017 240.673 271.337C240.955 270.656 241.1 269.927 241.1 269.19V5.86C241.1 5.12328 240.955 4.39378 240.673 3.71315C240.391 3.03251 239.978 2.41407 239.457 1.89313C238.936 1.37219 238.317 0.958965 237.637 0.677036C236.956 0.395107 236.227 0.25 235.49 0.25H54.7499Z" fill="#E0E0E0"/>
<path d="M500 336.07H0V336.32H500V336.07Z" fill="#E0E0E0"/>
<path d="M67.7299 350.33H51.6699V350.58H67.7299V350.33Z" fill="#E0E0E0"/>
<path d="M223.88 347.62H170.35V347.87H223.88V347.62Z" fill="#E0E0E0"/>
<path d="M104.98 359.62H68.73V359.87H104.98V359.62Z" fill="#E0E0E0"/>
<path d="M421.54 347.49H378.35V347.74H421.54V347.49Z" fill="#E0E0E0"/>
<path d="M436.78 347.49H430.45V347.74H436.78V347.49Z" fill="#E0E0E0"/>
<path d="M370.1 353.72H316.21V353.97H370.1V353.72Z" fill="#E0E0E0"/>
<path d="M458.88 389.53C458.88 392.92 365.36 395.67 250 395.67C134.64 395.67 41.1201 392.92 41.1201 389.53C41.1201 386.14 134.64 383.4 250 383.4C365.36 383.4 458.88 386.15 458.88 389.53Z" fill="#F5F5F5"/>
<path d="M260.55 177.31C260.55 179.85 257.02 181.88 252.73 181.82C248.44 181.76 244.99 179.67 245.02 177.13C245.05 174.59 248.55 172.56 252.83 172.63C257.11 172.7 260.58 174.8 260.55 177.31Z" fill="#263238"/>
<path d="M263.91 168.94C264.329 168.536 264.583 167.991 264.62 167.41C264.62 164.92 259.38 162.84 252.85 162.77C246.32 162.7 241 164.66 241 167.14C241.021 167.716 241.26 168.264 241.67 168.67C241.549 168.906 241.481 169.165 241.47 169.43C241.491 170.011 241.739 170.56 242.16 170.96C242.022 171.204 241.947 171.479 241.94 171.76C241.95 172.05 242.019 172.336 242.142 172.599C242.266 172.862 242.442 173.097 242.66 173.29C242.504 173.536 242.418 173.819 242.41 174.11C242.429 174.396 242.508 174.676 242.64 174.93C242.773 175.185 242.956 175.41 243.18 175.59C243.021 175.838 242.931 176.125 242.92 176.42C242.92 178.49 247.27 180.24 252.7 180.28C258.13 180.32 262.55 178.76 262.57 176.65C262.569 176.352 262.482 176.06 262.32 175.81C262.543 175.632 262.727 175.409 262.86 175.156C262.992 174.903 263.071 174.625 263.09 174.34C263.083 174.053 263.008 173.772 262.87 173.52C263.308 173.146 263.581 172.614 263.63 172.04C263.632 171.753 263.559 171.471 263.42 171.22C263.861 170.847 264.138 170.315 264.19 169.74C264.155 169.456 264.059 169.183 263.91 168.94Z" fill="#263238"/>
<path opacity="0.3" d="M263.91 168.94C264.329 168.536 264.583 167.991 264.62 167.41C264.62 164.92 259.38 162.84 252.85 162.77C246.32 162.7 241 164.66 241 167.14C241.021 167.716 241.26 168.264 241.67 168.67C241.549 168.906 241.481 169.165 241.47 169.43C241.491 170.011 241.739 170.56 242.16 170.96C242.022 171.204 241.947 171.479 241.94 171.76C241.95 172.05 242.019 172.336 242.142 172.599C242.266 172.862 242.442 173.097 242.66 173.29C242.504 173.536 242.418 173.819 242.41 174.11C242.429 174.396 242.508 174.676 242.64 174.93C242.773 175.185 242.956 175.41 243.18 175.59C243.021 175.838 242.931 176.125 242.92 176.42C242.92 178.49 247.27 180.24 252.7 180.28C258.13 180.32 262.55 178.76 262.57 176.65C262.569 176.352 262.482 176.06 262.32 175.81C262.543 175.632 262.727 175.409 262.86 175.156C262.992 174.903 263.071 174.625 263.09 174.34C263.083 174.053 263.008 173.772 262.87 173.52C263.308 173.146 263.581 172.614 263.63 172.04C263.632 171.753 263.559 171.471 263.42 171.22C263.861 170.847 264.138 170.315 264.19 169.74C264.155 169.456 264.059 169.183 263.91 168.94Z" fill="white"/>
<path d="M273.7 146.97C273.734 143.444 272.876 139.966 271.205 136.86C269.535 133.755 267.107 131.121 264.146 129.206C261.186 127.29 257.789 126.154 254.271 125.902C250.754 125.651 247.23 126.293 244.027 127.769C240.824 129.244 238.047 131.505 235.952 134.342C233.857 137.179 232.513 140.499 232.046 143.995C231.578 147.49 232.002 151.047 233.277 154.334C234.552 157.622 236.638 160.534 239.34 162.8C239.775 163.161 240.115 163.623 240.329 164.146C240.544 164.67 240.627 165.237 240.57 165.8V165.97C240.57 168.49 245.91 170.6 252.57 170.68C259.23 170.76 264.57 168.77 264.57 166.24V166.08C264.525 165.511 264.62 164.939 264.849 164.416C265.078 163.892 265.432 163.434 265.88 163.08C268.298 161.144 270.254 158.693 271.607 155.907C272.959 153.12 273.674 150.067 273.7 146.97Z" fill="#407BFF"/>
<path opacity="0.5" d="M273.71 146.97C273.744 143.444 272.886 139.966 271.215 136.86C269.545 133.755 267.117 131.121 264.156 129.206C261.196 127.29 257.799 126.154 254.281 125.902C250.764 125.651 247.24 126.293 244.037 127.769C240.834 129.244 238.057 131.505 235.962 134.342C233.867 137.179 232.523 140.499 232.056 143.995C231.588 147.49 232.012 151.047 233.287 154.334C234.562 157.622 236.648 160.534 239.35 162.8C239.786 163.16 240.127 163.622 240.344 164.145C240.56 164.669 240.644 165.237 240.59 165.8C240.58 165.856 240.58 165.914 240.59 165.97C240.59 168.49 245.92 170.6 252.54 170.68C259.16 170.76 264.54 168.77 264.6 166.24V166.08C264.554 165.512 264.649 164.941 264.876 164.418C265.102 163.895 265.454 163.435 265.9 163.08C268.316 161.143 270.27 158.692 271.621 155.905C272.972 153.119 273.686 150.067 273.71 146.97Z" fill="white"/>
<path opacity="0.2" d="M263.43 134.8C263.43 138.87 258.66 142.18 252.75 142.18C246.84 142.18 242.07 138.87 242.07 134.8C242.07 130.73 246.84 127.41 252.75 127.41C258.66 127.41 263.43 130.8 263.43 134.8Z" fill="white"/>
<path d="M236.84 154.68C234.999 151.525 234.288 147.837 234.822 144.224C235.356 140.611 237.105 137.287 239.78 134.8" stroke="white" stroke-width="0.5" stroke-linecap="round" stroke-linejoin="round"/>
<path d="M243.12 175.64C249.231 178.134 256.061 178.216 262.23 175.87C259.209 177.184 255.944 177.842 252.65 177.803C249.356 177.763 246.108 177.026 243.12 175.64Z" fill="#263238"/>
<path d="M243 173.4C249.112 175.889 255.94 175.971 262.11 173.63C259.088 174.938 255.824 175.594 252.53 175.555C249.237 175.515 245.99 174.781 243 173.4Z" fill="#263238"/>
<path d="M242.84 171.15C248.95 173.65 255.782 173.732 261.95 171.38C258.929 172.693 255.664 173.352 252.37 173.312C249.076 173.273 245.828 172.536 242.84 171.15Z" fill="#263238"/>
<path d="M248.26 166.19C249.856 160.664 250.13 154.841 249.06 149.19C248.89 148.28 248.48 147.19 247.66 147.19C246.84 147.19 246.45 148.07 246.3 148.88C245.74 151.75 247.23 154.67 249.14 156.66C250.065 157.788 251.377 158.529 252.82 158.74C253.543 158.718 254.253 158.539 254.9 158.217C255.548 157.894 256.117 157.434 256.57 156.87C257.574 155.747 258.296 154.401 258.679 152.945C259.061 151.488 259.092 149.961 258.77 148.49C258.48 147.25 257.59 145.9 256.48 146.14C256.13 146.258 255.819 146.471 255.582 146.755C255.346 147.04 255.193 147.384 255.14 147.75C255.005 148.517 255.005 149.302 255.14 150.07C255.834 155.598 257.176 161.026 259.14 166.24" stroke="#263238" stroke-width="0.5" stroke-linecap="round" stroke-linejoin="round"/>
<path d="M354.49 97.5996C355.12 97.7196 363.89 108.03 363.89 108.03L371.42 97.1196L354.49 97.5996Z" fill="#CBD9F9"/>
<path d="M410.26 39.8398H320.92C318.661 39.8398 316.83 41.671 316.83 43.9298V93.6298C316.83 95.8887 318.661 97.7198 320.92 97.7198H410.26C412.519 97.7198 414.35 95.8887 414.35 93.6298V43.9298C414.35 41.671 412.519 39.8398 410.26 39.8398Z" fill="#CBD9F9"/>
<path d="M331.5 71.9899C331.92 71.6099 343.33 60.3399 343.33 60.3399L354.59 65.8799L365.59 52.8799L376.84 69.0999L387.84 61.9399" stroke="#263238" stroke-width="0.5" stroke-miterlimit="10"/>
<path d="M335.02 77.0601H329.74V88.7501H335.02V77.0601Z" fill="#407BFF"/>
<path d="M345.89 69.3301H340.61V88.7501H345.89V69.3301Z" fill="#407BFF"/>
<path d="M356.96 71.29H351.68V88.76H356.96V71.29Z" fill="#407BFF"/>
<path d="M368.24 60.3398H362.96V88.7598H368.24V60.3398Z" fill="#407BFF"/>
<path d="M379.63 75.4097H374.35V88.7597H379.63V75.4097Z" fill="#407BFF"/>
<path d="M335.22 70.6601C335.222 71.2222 335.057 71.7723 334.746 72.2406C334.435 72.709 333.993 73.0745 333.474 73.291C332.955 73.5075 332.384 73.5652 331.832 73.4567C331.281 73.3483 330.774 73.0786 330.375 72.6818C329.977 72.285 329.706 71.779 329.595 71.2278C329.485 70.6766 329.541 70.1051 329.755 69.5856C329.97 69.0661 330.334 68.6219 330.801 68.3094C331.268 67.9969 331.818 67.8301 332.38 67.8301C333.132 67.8301 333.852 68.1279 334.385 68.6584C334.917 69.1888 335.217 69.9086 335.22 70.6601Z" fill="#407BFF"/>
<path d="M346.09 60.34C346.09 60.9017 345.923 61.4508 345.611 61.9178C345.299 62.3849 344.856 62.7489 344.337 62.9638C343.818 63.1788 343.247 63.235 342.696 63.1254C342.145 63.0159 341.639 62.7454 341.242 62.3482C340.845 61.951 340.574 61.445 340.464 60.8941C340.355 60.3432 340.411 59.7721 340.626 59.2532C340.841 58.7342 341.205 58.2907 341.672 57.9786C342.139 57.6666 342.688 57.5 343.25 57.5C344.003 57.5 344.725 57.7992 345.258 58.3318C345.791 58.8644 346.09 59.5868 346.09 60.34Z" fill="#407BFF"/>
<path d="M357.43 64.9897C357.432 65.5518 357.267 66.1019 356.956 66.5702C356.645 67.0386 356.203 67.4041 355.684 67.6206C355.165 67.8371 354.594 67.8948 354.042 67.7863C353.491 67.6779 352.984 67.4082 352.585 67.0114C352.187 66.6146 351.916 66.1086 351.805 65.5574C351.695 65.0062 351.751 64.4347 351.965 63.9152C352.18 63.3956 352.544 62.9515 353.011 62.639C353.478 62.3265 354.028 62.1597 354.59 62.1597C355.341 62.1597 356.062 62.4575 356.595 62.9879C357.127 63.5184 357.427 64.2382 357.43 64.9897Z" fill="#407BFF"/>
<path d="M368.43 52.9299C368.43 53.492 368.263 54.0415 367.951 54.5087C367.638 54.976 367.194 55.34 366.675 55.5546C366.155 55.7693 365.583 55.8249 365.032 55.7145C364.481 55.6041 363.975 55.3327 363.578 54.9345C363.182 54.5363 362.912 54.0293 362.803 53.4778C362.695 52.9262 362.753 52.3549 362.969 51.8361C363.186 51.3173 363.551 50.8745 364.019 50.5636C364.488 50.2528 365.038 50.0879 365.6 50.0899C366.351 50.0925 367.071 50.3929 367.602 50.9252C368.132 51.4575 368.43 52.1784 368.43 52.9299Z" fill="#407BFF"/>
<path d="M379.69 69.1498C379.692 69.7119 379.527 70.262 379.216 70.7304C378.905 71.1987 378.463 71.5643 377.944 71.7808C377.425 71.9972 376.854 72.0549 376.302 71.9465C375.751 71.838 375.244 71.5683 374.845 71.1715C374.447 70.7748 374.176 70.2688 374.065 69.7176C373.955 69.1664 374.011 68.5949 374.225 68.0753C374.44 67.5558 374.804 67.1117 375.271 66.7992C375.738 66.4866 376.288 66.3198 376.85 66.3198C377.601 66.3198 378.322 66.6177 378.855 67.1481C379.387 67.6786 379.687 68.3983 379.69 69.1498Z" fill="#407BFF"/>
<path d="M390.91 68.71H385.63V88.75H390.91V68.71Z" fill="#407BFF"/>
<path opacity="0.3" d="M345.89 69.3301H340.61V88.7501H345.89V69.3301Z" fill="black"/>
<path opacity="0.3" d="M368.24 60.3398H362.96V88.7598H368.24V60.3398Z" fill="black"/>
<path opacity="0.3" d="M390.91 68.71H385.63V88.75H390.91V68.71Z" fill="black"/>
<path d="M402.59 75.4097H397.31V88.7597H402.59V75.4097Z" fill="#407BFF"/>
<path d="M387.83 61.9897L399.94 68.7097" stroke="#263238" stroke-width="0.5" stroke-miterlimit="10"/>
<path d="M391.3 61.9899C391.3 62.5516 391.133 63.1007 390.821 63.5677C390.509 64.0348 390.066 64.3988 389.547 64.6137C389.028 64.8287 388.457 64.8849 387.906 64.7753C387.355 64.6658 386.849 64.3953 386.452 63.9981C386.055 63.6009 385.784 63.0949 385.675 62.544C385.565 61.9931 385.621 61.422 385.836 60.9031C386.051 60.3841 386.415 59.9406 386.882 59.6285C387.349 59.3165 387.898 59.1499 388.46 59.1499C389.213 59.1499 389.936 59.4491 390.468 59.9817C391.001 60.5143 391.3 61.2367 391.3 61.9899Z" fill="#407BFF"/>
<path d="M402.78 68.7099C402.782 69.272 402.617 69.8221 402.306 70.2904C401.995 70.7588 401.552 71.1243 401.034 71.3408C400.515 71.5573 399.944 71.615 399.392 71.5065C398.84 71.3981 398.334 71.1284 397.935 70.7316C397.537 70.3348 397.266 69.8288 397.155 69.2776C397.045 68.7264 397.101 68.1549 397.315 67.6354C397.53 67.1159 397.894 66.6717 398.361 66.3592C398.828 66.0467 399.378 65.8799 399.94 65.8799C400.691 65.8799 401.412 66.1777 401.945 66.7082C402.477 67.2386 402.777 67.9584 402.78 68.7099Z" fill="#407BFF"/>
<path d="M333.21 329.42V282.89C333.207 282.413 333.339 281.945 333.59 281.54C333.841 281.135 334.202 280.809 334.631 280.6C335.059 280.391 335.538 280.307 336.012 280.358C336.486 280.41 336.936 280.594 337.31 280.89L366.89 304.15C367.194 304.387 367.439 304.691 367.608 305.038C367.777 305.384 367.864 305.764 367.864 306.15C367.864 306.535 367.777 306.916 367.608 307.262C367.439 307.609 367.194 307.912 366.89 308.15L337.31 331.41C336.937 331.705 336.488 331.889 336.015 331.941C335.542 331.993 335.063 331.91 334.635 331.702C334.207 331.494 333.846 331.17 333.594 330.766C333.342 330.362 333.209 329.896 333.21 329.42Z" fill="#407BFF"/>
<path d="M338 292.32H198.49V319.98H338V292.32Z" fill="#407BFF"/>
<path d="M222.94 320.03H92.1001L107 305.94L92.1001 291.68H222.94C236.402 291.813 249.757 289.277 262.233 284.218C274.709 279.158 286.058 271.676 295.625 262.204C305.191 252.731 312.785 241.457 317.968 229.032C323.151 216.607 325.819 203.278 325.819 189.815C325.819 176.352 323.151 163.023 317.968 150.598C312.785 138.173 305.191 126.898 295.625 117.426C286.058 107.954 274.709 100.472 262.233 95.4121C249.757 90.3528 236.402 87.8165 222.94 87.9498V59.5898C257.477 59.5898 290.599 73.3094 315.02 97.7304C339.441 122.151 353.16 155.273 353.16 189.81C353.16 224.346 339.441 257.468 315.02 281.889C290.599 306.31 257.477 320.03 222.94 320.03Z" fill="#407BFF"/>
<g opacity="0.4">
<path d="M222.94 320.03H92.1001L107 305.94L92.1001 291.68H222.94C236.402 291.813 249.757 289.277 262.233 284.218C274.709 279.158 286.058 271.676 295.625 262.204C305.191 252.731 312.785 241.457 317.968 229.032C323.151 216.607 325.819 203.278 325.819 189.815C325.819 176.352 323.151 163.023 317.968 150.598C312.785 138.173 305.191 126.898 295.625 117.426C286.058 107.954 274.709 100.472 262.233 95.4121C249.757 90.3528 236.402 87.8165 222.94 87.9498V59.5898C257.477 59.5898 290.599 73.3094 315.02 97.7304C339.441 122.151 353.16 155.273 353.16 189.81C353.16 224.346 339.441 257.468 315.02 281.889C290.599 306.31 257.477 320.03 222.94 320.03Z" fill="white"/>
</g>
<path d="M125.87 280.8C110.656 263.914 100.039 243.401 95.0382 221.229C90.037 199.057 90.8198 175.972 97.3113 154.19C103.803 132.408 115.785 112.661 132.108 96.8445C148.43 81.0278 168.545 69.6729 190.52 63.8701L180.75 76.1401L197.87 91.8001C180.681 96.3427 164.949 105.227 152.182 117.601C139.416 129.975 130.045 145.423 124.969 162.462C119.892 179.501 119.281 197.558 123.193 214.901C127.105 232.245 135.41 248.291 147.31 261.5L125.87 280.8Z" fill="#407BFF"/>
<path d="M128.72 282.46C129.79 282.19 165.12 282.46 165.12 282.46L147.31 261.46L125.87 280.8L128.72 282.46Z" fill="#407BFF"/>
<path d="M223.5 49.2601L226.12 95.7101C226.149 96.1878 226.043 96.6641 225.813 97.084C225.583 97.5039 225.24 97.8504 224.822 98.0835C224.404 98.3165 223.928 98.4268 223.45 98.4014C222.972 98.376 222.511 98.2161 222.12 97.9401L191.28 76.3701C190.961 76.1509 190.697 75.8615 190.507 75.5241C190.318 75.1868 190.208 74.8105 190.187 74.4242C190.166 74.0378 190.234 73.6518 190.385 73.2957C190.536 72.9396 190.767 72.6229 191.06 72.3701L219.27 47.4801C219.628 47.1599 220.07 46.9479 220.544 46.8687C221.018 46.7895 221.505 46.8464 221.948 47.0328C222.391 47.2192 222.772 47.5274 223.046 47.9217C223.321 48.3159 223.479 48.78 223.5 49.2601Z" fill="#407BFF"/>
<path opacity="0.4" d="M223.5 49.2601L226.12 95.7101C226.149 96.1878 226.043 96.6641 225.813 97.084C225.583 97.5039 225.24 97.8504 224.822 98.0835C224.404 98.3165 223.928 98.4268 223.45 98.4014C222.972 98.376 222.511 98.2161 222.12 97.9401L191.28 76.3701C190.961 76.1509 190.697 75.8615 190.507 75.5241C190.318 75.1868 190.208 74.8105 190.187 74.4242C190.166 74.0378 190.234 73.6518 190.385 73.2957C190.536 72.9396 190.767 72.6229 191.06 72.3701L219.27 47.4801C219.628 47.1599 220.07 46.9479 220.544 46.8687C221.018 46.7895 221.505 46.8464 221.948 47.0328C222.391 47.2192 222.772 47.5274 223.046 47.9217C223.321 48.3159 223.479 48.78 223.5 49.2601Z" fill="white"/>
<path d="M208.94 148.43C211.076 149.775 212.834 151.642 214.047 153.856C215.259 156.07 215.887 158.556 215.87 161.08C215.2 166.19 213.42 169.81 212.04 174.78L198.49 144.87C201.66 145.49 203.08 144.85 208.94 148.43Z" fill="#263238"/>
<path d="M202.14 145.8C196.83 143.33 191.62 146.25 188.59 148.27C186.944 149.664 185.613 151.391 184.684 153.337C183.755 155.283 183.249 157.404 183.2 159.56C183.2 163.63 183.2 168.56 185.67 170.69C186.354 171.298 187.158 171.757 188.029 172.037C188.9 172.318 189.82 172.414 190.73 172.32L210.88 153.73C208.687 150.388 205.679 147.659 202.14 145.8Z" fill="#263238"/>
<path d="M202.49 200.87C200.94 202.47 199.49 201.93 197.49 201.09C185.19 196.66 188.83 190.72 188.83 190.72C191.17 187.98 191.27 184.72 190.42 179.72C190.405 179.577 190.405 179.433 190.42 179.29C190.428 178.622 190.641 177.973 191.03 177.43C191.526 176.709 192.287 176.214 193.148 176.053C194.008 175.892 194.897 176.078 195.62 176.57L201.13 178.15C201.13 178.22 201.13 178.3 201.18 178.38C201.18 181.12 201.11 183.24 201.13 184.9C201.145 185.103 201.145 185.307 201.13 185.51C201.15 185.716 201.15 185.924 201.13 186.13C201.26 188.41 205.13 191.77 206.7 192.56C207.64 193.1 207.74 195.48 202.49 200.87Z" fill="#B97964"/>
<path opacity="0.2" d="M201.06 178.12C201.066 178.202 201.083 178.283 201.11 178.36C201.11 181.1 201.05 183.22 201.11 184.88C201.095 185.083 201.095 185.287 201.11 185.49C201.11 185.7 201.11 185.92 201.19 186.13C197.008 184.988 193.274 182.594 190.49 179.27C190.493 178.612 190.687 177.969 191.05 177.42C191.538 176.694 192.294 176.191 193.152 176.02C194.011 175.849 194.901 176.026 195.63 176.51L201.06 178.12Z" fill="black"/>
<path d="M186.22 160.74C186.43 170.16 186.31 174.13 190.79 179.25C197.53 186.93 208.79 184.88 211.41 175.64C213.68 167.32 213 153.34 204.12 149.01C195.24 144.68 186 151.31 186.22 160.74Z" fill="#B97964"/>
<path d="M182.05 168.8C182.466 169.717 183.059 170.542 183.795 171.229C184.532 171.915 185.396 172.449 186.34 172.8C188.79 173.64 190.42 169.72 189.78 167.14C189.472 165.978 188.761 164.964 187.773 164.278C186.786 163.593 185.586 163.282 184.39 163.4C182 163.66 181 166.48 182.05 168.8Z" fill="#B97964"/>
<path opacity="0.2" d="M187.38 168.8C187.396 167.888 187.051 167.007 186.419 166.35C185.788 165.692 184.922 165.311 184.01 165.29" stroke="black" stroke-width="0.5" stroke-linecap="round" stroke-linejoin="round"/>
<path d="M198.49 164.8C198.49 165.8 198.93 166.67 199.55 166.74C200.17 166.81 200.7 166.04 200.74 165.04C200.78 164.04 200.3 163.17 199.68 163.1C199.06 163.03 198.53 163.8 198.49 164.8Z" fill="#263238"/>
<path d="M207.82 165.55C207.82 166.55 208.26 167.37 208.87 167.43C209.48 167.49 210 166.8 210.06 165.8C210.12 164.8 209.62 163.98 209 163.92C208.38 163.86 207.85 164.58 207.82 165.55Z" fill="#263238"/>
<path d="M196.81 161.14C196.871 161.152 196.933 161.151 196.994 161.137C197.054 161.123 197.111 161.097 197.16 161.06C197.6 160.703 198.123 160.462 198.679 160.357C199.236 160.253 199.81 160.288 200.35 160.46C200.405 160.482 200.464 160.492 200.523 160.491C200.582 160.489 200.641 160.475 200.694 160.449C200.748 160.424 200.795 160.388 200.834 160.343C200.873 160.299 200.902 160.246 200.92 160.19C200.954 160.069 200.942 159.94 200.887 159.828C200.831 159.715 200.736 159.627 200.62 159.58C199.947 159.354 199.228 159.301 198.53 159.425C197.831 159.549 197.174 159.846 196.62 160.29C196.527 160.371 196.469 160.485 196.458 160.608C196.447 160.731 196.483 160.853 196.56 160.95C196.621 161.038 196.709 161.105 196.81 161.14Z" fill="#263238"/>
<path d="M211.35 161.07C211.401 161.06 211.449 161.039 211.491 161.008C211.533 160.977 211.566 160.936 211.59 160.89C211.638 160.779 211.645 160.655 211.61 160.54C211.575 160.425 211.501 160.326 211.4 160.26C210.87 159.845 210.242 159.574 209.576 159.472C208.91 159.371 208.23 159.442 207.6 159.68C207.502 159.738 207.431 159.832 207.401 159.943C207.371 160.053 207.385 160.17 207.44 160.27C207.486 160.375 207.571 160.46 207.676 160.506C207.782 160.552 207.901 160.557 208.01 160.52C208.51 160.337 209.049 160.286 209.574 160.372C210.1 160.458 210.594 160.677 211.01 161.01C211.058 161.046 211.114 161.07 211.173 161.081C211.232 161.091 211.293 161.087 211.35 161.07Z" fill="#263238"/>
<path d="M205.32 164.88C206.001 166.965 206.892 168.975 207.98 170.88C208.038 170.976 208.073 171.085 208.082 171.197C208.091 171.309 208.075 171.422 208.033 171.527C207.991 171.631 207.926 171.725 207.842 171.8C207.758 171.875 207.658 171.93 207.55 171.96C206.702 172.147 205.818 172.092 205 171.8L205.32 164.88Z" fill="#A24E3F"/>
<path d="M199.32 163.1L201.54 162.77C201.54 162.77 200.21 164.29 199.32 163.1Z" fill="#263238"/>
<path d="M208.78 163.91L210.99 163.58C210.99 163.58 209.67 165.1 208.78 163.91Z" fill="#263238"/>
<path d="M204.39 174.39C203.717 175.224 203.105 176.107 202.56 177.03C202.38 176.97 202.21 176.9 202.03 176.82C199.65 175.82 198.86 174.64 198.71 173.56C198.649 173.032 198.714 172.498 198.9 172C198.996 171.716 199.131 171.447 199.3 171.2C200.509 172.447 201.972 173.419 203.59 174.05C204.07 174.27 204.39 174.39 204.39 174.39Z" fill="#263238"/>
<path d="M203.59 174.05L203 174.8C200.75 173.9 199.3 172.96 198.87 171.99C198.966 171.706 199.101 171.437 199.27 171.19C200.487 172.444 201.961 173.419 203.59 174.05Z" fill="white"/>
<path d="M202 176.8C199.62 175.8 198.83 174.62 198.68 173.54C199.577 173.923 200.4 174.461 201.11 175.13C201.576 175.579 201.887 176.163 202 176.8Z" fill="#DE5753"/>
<path d="M189.48 163.03C189.48 163.03 194.86 156.88 195.03 151.63C195.03 151.63 214.28 147.35 212.51 163.97C212.51 163.97 216.67 149.6 200.94 147.25C185.21 144.9 181.94 165.45 189.09 172.61C189.12 172.54 186.15 166.89 189.48 163.03Z" fill="#263238"/>
<path d="M172.7 150.52C172.83 152.027 173.396 153.463 174.328 154.653C175.261 155.844 176.52 156.737 177.951 157.225C179.383 157.712 180.925 157.772 182.39 157.397C183.855 157.023 185.18 156.23 186.202 155.116C187.224 154.001 187.9 152.614 188.147 151.122C188.394 149.63 188.201 148.098 187.592 146.714C186.983 145.33 185.985 144.153 184.718 143.326C183.452 142.5 181.972 142.06 180.46 142.06C178.313 142.164 176.294 143.111 174.841 144.695C173.388 146.279 172.619 148.372 172.7 150.52Z" fill="#263238"/>
<path d="M208.09 149.31C210.163 151.296 211.547 153.893 212.04 156.72C212.04 158.77 209.25 160.25 209.25 160.25L205.84 155.8V159.73C203.495 159.569 201.244 158.746 199.348 157.357C197.452 155.967 195.99 154.068 195.13 151.88L198.24 146.32C198.24 146.32 206.24 147.71 208.09 149.31Z" fill="#263238"/>
<path d="M181.5 155.01C181.004 157.253 179.715 159.241 177.87 160.61C178.865 160.69 179.859 160.452 180.71 159.93C180.669 160.735 180.49 161.527 180.18 162.27C181.306 161.319 182.206 160.129 182.815 158.787C183.424 157.445 183.726 155.984 183.7 154.51L181.5 155.01Z" fill="#263238"/>
<path d="M291.72 357.8L282.38 358.07C282.38 358.07 265.71 325.98 257.71 307.99C248.26 286.73 250.34 279.88 247.5 279.76C242.26 279.53 188.83 304.1 175.45 290.47C162.07 276.84 181.45 244.01 181.45 244.01C181.45 244.01 211.27 239.4 213.7 246.68C214.3 248.83 215.6 251.05 215.91 253.26C216.22 255.47 217 258.67 217 258.67C217.7 258.49 238.14 256.51 250.83 256.8C254.571 256.895 258.207 258.059 261.306 260.156C264.406 262.252 266.84 265.193 268.32 268.63C279.77 295.03 291.72 357.8 291.72 357.8Z" fill="black"/>
<path d="M197.66 293.71C197.66 293.71 199.84 293.71 233.66 292.18C233.66 292.18 229.02 303.18 227.73 325.73C227.2 335.01 228.73 365.11 227.52 378.42C228.1 379.25 234.32 382 238.11 379.22C238.11 379.22 260.05 300.04 259.83 289.3C259.61 278.56 247.16 275.39 247.16 275.39C247.16 275.39 223.16 289.3 197.66 293.71Z" fill="black"/>
<path opacity="0.2" d="M229.12 284.85C233.747 282.977 238.29 280.92 242.75 278.68C250.48 274.78 259.98 279.79 260.75 288.42C260.75 288.71 260.75 289 260.8 289.3C260.9 293.66 257.01 310.03 251.43 327.82C251.58 326.76 251.78 325.72 252.03 324.69C257.57 302.47 260.34 290.92 257.57 285.55C255.704 282.208 252.745 279.609 249.19 278.19L218.97 292.92C202.32 293.65 199.84 293.68 199.54 293.68C209.679 291.767 219.592 288.807 229.12 284.85Z" fill="black"/>
<path d="M239.69 374.73C239.696 374.615 239.677 374.499 239.636 374.391C239.595 374.283 239.533 374.185 239.452 374.103C239.371 374.02 239.274 373.955 239.167 373.911C239.06 373.868 238.946 373.847 238.83 373.85H236C235.28 373.85 234.5 375.12 234.06 375.68C232.17 378.14 230.82 377.16 228.89 374.76C227.63 374.59 227.25 376.03 227.14 376.42L224.56 384.99C224.454 385.333 224.487 385.705 224.654 386.024C224.821 386.342 225.107 386.582 225.45 386.69C225.576 386.729 225.708 386.75 225.84 386.75L236.31 387L250.98 387.36C254.98 387.45 255.9 383.44 254.26 383.03C246.9 381.22 241.71 378.91 239.47 376.7C239.15 376.41 239.62 375.61 239.69 374.73Z" fill="#407BFF"/>
<path d="M241 377.62C240.451 377.685 239.923 377.868 239.452 378.156C238.981 378.445 238.578 378.831 238.27 379.29" stroke="white" stroke-width="0.5" stroke-linecap="round" stroke-linejoin="round"/>
<path d="M243 378.89C242.452 378.96 241.924 379.145 241.453 379.435C240.983 379.725 240.579 380.112 240.27 380.57" stroke="white" stroke-width="0.5" stroke-linecap="round" stroke-linejoin="round"/>
<path d="M245.56 380.2C245.01 380.264 244.48 380.446 244.007 380.734C243.534 381.023 243.129 381.41 242.82 381.87" stroke="white" stroke-width="0.5" stroke-linecap="round" stroke-linejoin="round"/>
<path d="M291.26 351.5L288.26 352.57C287.928 352.694 287.63 352.894 287.39 353.155C287.151 353.415 286.976 353.729 286.88 354.07C286 357.07 284.39 356.62 281.72 355.07C280.48 355.36 280.65 356.84 280.72 357.24L281.41 366.16C281.422 366.339 281.468 366.513 281.547 366.674C281.626 366.835 281.737 366.978 281.871 367.096C282.006 367.214 282.163 367.304 282.332 367.362C282.502 367.419 282.681 367.442 282.86 367.43C282.991 367.42 283.119 367.39 283.24 367.34L293.1 363.79L306.9 358.79C310.66 357.43 310.07 353.36 308.4 353.57C300.87 354.57 295.2 354.27 292.32 353.01C291.78 352.85 292.09 352.44 291.26 351.5Z" fill="#407BFF"/>
<path d="M294.17 353.45C293.681 353.71 293.253 354.072 292.917 354.512C292.58 354.952 292.343 355.46 292.22 356" stroke="white" stroke-width="0.5" stroke-linecap="round" stroke-linejoin="round"/>
<path d="M296.52 353.8C296.032 354.061 295.606 354.423 295.271 354.863C294.937 355.303 294.701 355.811 294.58 356.35" stroke="white" stroke-width="0.5" stroke-linecap="round" stroke-linejoin="round"/>
<path d="M299.26 354.12C298.772 354.381 298.345 354.744 298.009 355.184C297.673 355.624 297.434 356.131 297.31 356.67" stroke="white" stroke-width="0.5" stroke-linecap="round" stroke-linejoin="round"/>
<path d="M222.33 258.07L218.04 258.48C218.04 258.48 217.68 255.53 217.32 253.35C216.96 251.17 214.58 243.71 213.99 241.56C201.71 242.78 180.87 242.05 180.87 242.05C180.87 242.05 162.07 276.82 175.44 290.41C183.44 298.56 207.12 293.79 224.63 286.63L222.33 258.07Z" fill="black"/>
<path opacity="0.3" d="M218 257.3L199.17 261.23C199.17 261.23 209.47 255.64 217.28 253.37C217.68 255.6 218 257.3 218 257.3Z" fill="black"/>
<path d="M245.65 213.04C245.76 211.38 240.85 220.87 240.85 220.87L232.56 215.02L239.16 208.38C239.16 208.38 245.86 212.76 245.75 212.9" fill="#B97964"/>
<path d="M212.4 191.57C214.595 192.649 216.553 194.153 218.162 195.995C219.77 197.837 220.997 199.98 221.77 202.3C223.633 208.344 224.971 214.537 225.77 220.81L236.23 211.49L244.03 217.28C244.03 217.28 233.82 232.8 226.93 238.85C221.2 243.85 214.72 234.13 214.72 234.13L211.9 191.33L212.4 191.57Z" fill="black"/>
<path opacity="0.2" d="M192.16 247.14L189.91 282.43L169.73 280.02V276.4L192.16 247.14Z" fill="black"/>
<path d="M182.4 248.02C181.61 239.02 178.4 222.66 172.96 205.43C171.18 199.83 177.54 193.64 177.54 193.64C177.54 193.64 181.65 193.31 182.4 193.23C183.15 193.15 184.07 193.05 184.92 192.98C190.675 192.366 196.467 192.169 202.25 192.39C203.69 192.47 205.16 192.59 206.6 192.71C207.07 192.76 210.09 192.81 210.6 192.85C210.6 192.85 218.8 202.45 219.24 209.22C219.48 213 221.31 214.63 221.1 223.68C221.1 229.82 216.61 238.77 216.2 247.41L182.4 248.02Z" fill="white"/>
<path d="M193.58 217.94C193.15 203.89 191.49 194.94 190.73 191.56C190.636 191.128 190.384 190.747 190.023 190.492C189.662 190.236 189.219 190.125 188.78 190.18L183.35 191.33C178.03 192.74 175.18 191.98 172.22 195.93C171.65 196.69 171.17 202.58 171.22 203.38C171.81 207.167 172.618 210.917 173.64 214.61C174.56 218.33 175.64 222.49 176.69 226.42C178.02 231.42 179.13 232.73 179.56 234.34L165.8 274.95C165.709 275.204 165.677 275.474 165.706 275.742C165.735 276.009 165.825 276.266 165.969 276.494C166.113 276.721 166.306 276.913 166.535 277.055C166.764 277.196 167.022 277.284 167.29 277.31L187 279.38C187.233 279.411 187.47 279.395 187.698 279.334C187.925 279.273 188.137 279.167 188.323 279.023C188.509 278.878 188.665 278.699 188.781 278.494C188.897 278.29 188.972 278.064 189 277.83C190 269.58 194.07 234.09 193.58 217.94Z" fill="black"/>
<path d="M219.54 245.46C219.54 245.46 223.69 219.77 222.54 213.34C221.39 206.91 211.86 191.34 211.86 191.34L207.48 191.03L202.31 188.94C202.31 188.94 214.31 203.35 217.19 213.75C219.12 220.6 215.27 242.22 215.72 247.43L217.94 258.23L223.44 257.98L219.54 245.46Z" fill="black"/>
<path d="M190 187.97C190 187.97 195.38 198.58 193.35 225.27L184.42 206.08L187.65 200.84L183.36 192.27C183.36 192.27 187.95 189.32 189.88 187.76L190 187.97Z" fill="#181818"/>
<path d="M217.51 225.42C218.692 221.767 219.244 217.939 219.14 214.1C218.78 208.67 218.69 204.62 218.69 204.62L212.53 200.06L213.34 194.51C213.34 194.51 210.34 192.69 207.61 190.82C205.72 189.54 202.02 187.61 201.53 187.76C201.53 187.76 217.27 207.67 217.35 215.82C217.43 223.68 217.51 225.42 217.51 225.42Z" fill="#181818"/>
<path opacity="0.3" d="M220.54 239.08L222.68 219.27L223.48 239.72C222.47 239.685 221.474 239.468 220.54 239.08Z" fill="black"/>
<path d="M205.51 193.07L201.27 187.25L199.27 190.71L190.91 185.71L189.91 187.79L192.91 196.49C192.91 196.49 200.33 199.49 200.72 199.49C201.11 199.49 205.51 193.07 205.51 193.07Z" fill="white"/>
<path opacity="0.3" d="M205.7 193.34L203.97 197.62L199.66 193.34L196.73 198.37L192.36 196.23L197.02 199.92L199.72 194.41L204.66 199.06L205.7 193.34Z" fill="black"/>
<path opacity="0.3" d="M182.64 233.79L180.95 214.87L179.65 235.48L199.21 243.43L182.64 233.79Z" fill="black"/>
<path d="M174.9 193.34C173.012 193.894 171.317 194.967 170.007 196.435C168.697 197.904 167.825 199.711 167.49 201.65C166.3 208.43 164.72 242.34 166.07 244.48C167.42 246.62 205.21 258.8 205.21 258.8L209.21 248.31L180.67 234.5C180.67 234.5 180.9 224.81 181.13 217.26C181.25 213.26 181.38 209.88 181.47 208.83C181.76 205.8 174.9 193.34 174.9 193.34Z" fill="black"/>
<path d="M209.11 248.94C209.11 248.94 221 251.8 223.74 254.17C224.114 254.528 224.412 254.958 224.617 255.434C224.821 255.91 224.928 256.422 224.93 256.94L205.7 257.8L209.11 248.94Z" fill="#B97964"/>
<path opacity="0.3" d="M174.79 248.4L191.51 254.4V256.45L174 250.86L174.79 248.4Z" fill="black"/>
<path opacity="0.2" d="M199.72 194.41C208.62 209.93 208.13 230.12 208.62 247.26" stroke="black" stroke-width="0.5" stroke-linecap="round" stroke-linejoin="round"/>
<path d="M239.6 209.36C238.693 207.862 238.339 206.093 238.6 204.36C239.19 201.92 239.01 199.82 239.6 198.04C240.19 196.26 241.16 198.57 241.44 199.91C241.72 201.25 242 202.8 243 202.38C244 201.96 249.62 195.06 251 194.69C252.38 194.32 251.85 195.69 251.85 195.69C251.85 195.69 253.26 194.04 254.07 194.43C254.28 194.52 254.61 195.1 254.07 195.95C252.88 197.87 250.18 201.77 250.18 201.77C250.33 201.55 254.01 196.97 254.65 196.35C255.49 195.55 256.29 195.6 256.74 196.1C257.38 196.81 253.01 202.64 253 203.02C253 203.02 255.4 199.58 256.63 199.71C257.86 199.84 256.46 202.09 254.86 203.84C253.26 205.59 250.92 208.98 249.27 210.47C247.27 212.3 245.45 213.07 243.1 212.04C241.722 211.464 240.516 210.541 239.6 209.36Z" fill="#B97964"/>
<path opacity="0.3" d="M251.61 195.91C250.51 197.243 249.47 198.647 248.49 200.12" stroke="black" stroke-width="0.5" stroke-linecap="round" stroke-linejoin="round"/>
<path opacity="0.3" d="M252.12 204.43C250.792 202.59 248.957 201.176 246.84 200.36" stroke="black" stroke-width="0.5" stroke-linecap="round" stroke-linejoin="round"/>
<path opacity="0.3" d="M243.25 203.47C243.871 204.159 244.234 205.042 244.276 205.969C244.318 206.896 244.037 207.808 243.48 208.55" stroke="black" stroke-width="0.5" stroke-linecap="round" stroke-linejoin="round"/>
<path d="M257.2 257.27H226.39C226.273 257.287 226.153 257.28 226.039 257.249C225.925 257.219 225.817 257.166 225.724 257.093C225.631 257.02 225.553 256.929 225.496 256.826C225.438 256.722 225.402 256.608 225.39 256.49C225.376 256.411 225.376 256.33 225.39 256.25L239.19 224.8C239.418 224.324 239.782 223.925 240.235 223.655C240.689 223.384 241.213 223.254 241.74 223.28H272.57C272.796 223.258 273.022 223.324 273.2 223.467C273.378 223.609 273.492 223.814 273.52 224.04C273.519 224.13 273.499 224.219 273.46 224.3L259.75 255.8C259.514 256.266 259.147 256.654 258.694 256.915C258.241 257.176 257.722 257.299 257.2 257.27Z" fill="#263238"/>
<path opacity="0.7" d="M272.57 223.31H241.74C241.212 223.284 240.689 223.414 240.235 223.685C239.782 223.955 239.418 224.354 239.19 224.83L225.48 256.25C225.466 256.329 225.466 256.411 225.48 256.49C225.492 256.608 225.528 256.722 225.586 256.825C225.643 256.929 225.721 257.02 225.814 257.093C225.907 257.166 226.015 257.219 226.129 257.249C226.243 257.28 226.363 257.287 226.48 257.27H257.2C257.727 257.295 258.25 257.164 258.704 256.894C259.157 256.623 259.521 256.226 259.75 255.75L273.46 224.33C273.499 224.249 273.519 224.16 273.52 224.07C273.492 223.844 273.377 223.638 273.2 223.496C273.022 223.354 272.796 223.287 272.57 223.31Z" fill="white"/>
<path d="M253.48 240.99C252.81 242.5 251.48 243.53 250.48 243.32C249.48 243.11 249.21 241.74 249.86 240.23C250.51 238.72 251.86 237.7 252.86 237.91C253.86 238.12 254.15 239.44 253.48 240.99Z" fill="white"/>
<path opacity="0.3" d="M241.92 223.31H241.74C241.212 223.284 240.689 223.414 240.235 223.685C239.782 223.955 239.418 224.353 239.19 224.83L225.48 256.25C225.466 256.329 225.466 256.411 225.48 256.49C225.492 256.608 225.528 256.722 225.586 256.825C225.643 256.929 225.721 257.02 225.814 257.093C225.907 257.165 226.015 257.219 226.129 257.249C226.243 257.28 226.363 257.287 226.48 257.27H227.48L241.92 223.31Z" fill="black"/>
<path d="M201.39 257.55V260.09L225.94 257.59L226.31 254.36L201.39 257.55Z" fill="#263238"/>
<path opacity="0.7" d="M201.39 257.55V260.09L225.94 257.59L226.31 254.36L201.39 257.55Z" fill="white"/>
<path opacity="0.3" d="M134.49 94.5898H152.49C153.57 94.5898 154.605 94.1611 155.368 93.3978C156.131 92.6345 156.56 91.5993 156.56 90.5199V78.0898C156.56 78.0898 141.2 87.9398 134.49 94.5898Z" fill="black"/>
<path opacity="0.2" d="M340.26 148.97C339.566 149.361 338.986 149.927 338.577 150.611C338.169 151.295 337.946 152.073 337.93 152.87C337.93 155.57 341.33 160.19 341.15 161.72C340.97 163.25 340.8 167.8 342.4 169.8C344 171.8 352.14 173.42 352.13 173.37C352.12 173.32 351.23 167.68 350.13 161.69C349.03 155.7 340.28 148.94 340.28 148.94" fill="black"/>
<path d="M100.6 248.94C86.23 265.8 82 290.64 90.1 311.24C99.1 303.24 105.36 291.05 105.76 280.4C106.16 269.75 103.37 259.25 100.6 248.94Z" fill="#407BFF"/>
<path d="M98.1 313.18C93.2025 320.73 90.906 329.674 91.56 338.65C99.33 335.94 106.18 327.17 110.29 320.04C114.4 312.91 116.69 304.9 118.78 296.94C110.301 299.954 103.039 305.657 98.1 313.18Z" fill="#407BFF"/>
<path d="M96.2301 278.28C90.4435 299.076 87.5166 320.564 87.5301 342.15C87.5301 348.27 87.7734 354.38 88.2601 360.48C88.2601 360.95 89.0501 360.96 89.0101 360.48C87.3242 338.946 88.5859 317.283 92.7601 296.09C93.9334 290.17 95.3301 284.3 96.9501 278.48C96.9766 278.384 96.9641 278.282 96.9153 278.196C96.8666 278.11 96.7856 278.047 96.6901 278.02C96.5946 277.993 96.4925 278.006 96.4062 278.055C96.32 278.103 96.2566 278.185 96.2301 278.28Z" fill="#263238"/>
<path d="M88.58 345.7C94.5619 331.711 102.149 318.466 111.19 306.23C111.47 305.84 110.82 305.46 110.54 305.85C101.469 318.144 93.8544 331.45 87.85 345.5C87.67 345.94 88.39 346.14 88.58 345.7Z" fill="#263238"/>
<path d="M80.14 324.8C84.2202 331.098 86.1305 338.556 85.58 346.04C79.11 343.8 73.39 336.49 70 330.54C66.61 324.59 64.66 317.92 62.92 311.29C69.9771 313.8 76.0229 318.543 80.14 324.8Z" fill="#407BFF"/>
<path d="M88.4 350.95C83.4794 339.509 77.2441 328.679 69.82 318.68C69.53 318.29 68.88 318.68 69.17 319.06C76.5628 329.003 82.7745 339.772 87.68 351.15C87.86 351.59 88.59 351.4 88.4 350.95Z" fill="#263238"/>
<path d="M88.61 354.86C97.75 345.45 107.09 336.23 116.23 326.86C116.57 326.51 116.04 325.98 115.7 326.33C106.56 335.73 97.22 344.95 88.08 354.33C87.74 354.68 88.27 355.21 88.61 354.87V354.86Z" fill="#263238"/>
<path d="M116.52 322.45C108.581 330.103 101.364 338.472 94.9601 347.45H96.4101C99.4394 347.306 102.404 346.521 105.107 345.146C107.81 343.772 110.191 341.839 112.092 339.476C113.993 337.113 115.37 334.373 116.134 331.438C116.897 328.503 117.029 325.439 116.52 322.45Z" fill="#407BFF"/>
<path d="M78.9 304.25C82.3 309.817 85.5067 315.5 88.52 321.3C88.74 321.73 89.39 321.35 89.17 320.92C86.1567 315.127 82.95 309.443 79.55 303.87C79.4933 303.798 79.4124 303.748 79.3221 303.731C79.2319 303.714 79.1386 303.73 79.0593 303.777C78.98 303.823 78.9202 303.896 78.8909 303.983C78.8617 304.07 78.8649 304.165 78.9 304.25Z" fill="#263238"/>
<path d="M70.76 276.09C69.2461 282.494 68.3751 289.033 68.16 295.61C68.16 301.69 70 307.61 73.46 311.7C76.92 315.79 83.89 317.57 86.7 315.23L70.76 276.09Z" fill="#407BFF"/>
<path d="M105.23 357.51H70.5801V363.93H105.23V357.51Z" fill="#263238"/>
<path d="M99.6201 386.81H78.1001L74.1901 362.46H102.7L99.6201 386.81Z" fill="#263238"/>
<path opacity="0.2" d="M74.4501 364.06H102.5L102.15 366.81H74.8901L74.4501 364.06Z" fill="black"/>
<path d="M147.65 24.4097H79.24C76.5118 24.4097 74.3 26.6214 74.3 29.3497V85.2997C74.3 88.028 76.5118 90.2397 79.24 90.2397H147.65C150.378 90.2397 152.59 88.028 152.59 85.2997V29.3497C152.59 26.6214 150.378 24.4097 147.65 24.4097Z" fill="white"/>
<path d="M78.92 24.4098H148C148.604 24.4045 149.204 24.5196 149.763 24.7484C150.322 24.9771 150.83 25.315 151.258 25.7423C151.685 26.1696 152.023 26.6777 152.252 27.237C152.48 27.7963 152.595 28.3956 152.59 28.9998V35.9298H74.3V28.9998C74.3106 27.7806 74.8017 26.6147 75.6666 25.7553C76.5316 24.8959 77.7007 24.4124 78.92 24.4098Z" fill="#407BFF"/>
<path opacity="0.5" d="M148.16 30.99C148.16 31.4869 148.013 31.9725 147.736 32.3855C147.46 32.7985 147.067 33.1202 146.608 33.3099C146.149 33.4996 145.644 33.5487 145.157 33.451C144.669 33.3534 144.222 33.1133 143.872 32.7613C143.521 32.4092 143.283 31.9611 143.187 31.4735C143.091 30.986 143.142 30.481 143.334 30.0225C143.525 29.5641 143.849 29.1727 144.263 28.8981C144.677 28.6235 145.163 28.478 145.66 28.48C145.989 28.48 146.315 28.545 146.619 28.6713C146.923 28.7975 147.199 28.9826 147.431 29.2158C147.664 29.449 147.848 29.7257 147.973 30.0302C148.098 30.3347 148.161 30.6609 148.16 30.99Z" fill="white"/>
<path opacity="0.5" d="M141 30.99C141 31.4869 140.853 31.9725 140.576 32.3855C140.3 32.7985 139.908 33.1202 139.448 33.3099C138.989 33.4996 138.484 33.5487 137.997 33.451C137.51 33.3534 137.062 33.1133 136.712 32.7613C136.361 32.4092 136.123 31.9611 136.027 31.4735C135.931 30.986 135.983 30.481 136.174 30.0225C136.366 29.5641 136.689 29.1727 137.103 28.8981C137.517 28.6235 138.003 28.478 138.5 28.48C138.829 28.48 139.155 28.545 139.459 28.6713C139.763 28.7975 140.039 28.9826 140.271 29.2158C140.504 29.449 140.688 29.7257 140.813 30.0302C140.938 30.3347 141.001 30.6609 141 30.99Z" fill="white"/>
<path opacity="0.5" d="M133.92 30.99C133.92 31.4864 133.773 31.9717 133.497 32.3845C133.221 32.7972 132.829 33.119 132.371 33.3089C131.912 33.4989 131.407 33.5486 130.92 33.4518C130.433 33.3549 129.986 33.1159 129.635 32.7648C129.284 32.4138 129.045 31.9666 128.948 31.4797C128.851 30.9928 128.901 30.4881 129.091 30.0295C129.281 29.5708 129.603 29.1788 130.016 28.903C130.428 28.6272 130.914 28.48 131.41 28.48C131.74 28.4787 132.067 28.5427 132.372 28.6684C132.677 28.794 132.954 28.9789 133.188 29.2122C133.421 29.4456 133.606 29.7228 133.732 30.0279C133.857 30.333 133.921 30.66 133.92 30.99Z" fill="white"/>
<path d="M112.21 62.88L119 44.23C121.532 45.1475 123.85 46.5734 125.81 48.42C127.767 50.2652 129.331 52.4862 130.41 54.95L112.21 62.88Z" fill="#F5F5F5"/>
<path d="M112.21 62.8799L118 81.8799C114.994 82.7971 111.813 82.9873 108.719 82.4351C105.625 81.8829 102.707 80.6039 100.204 78.7034C97.7006 76.8029 95.6845 74.3352 94.3214 71.5033C92.9583 68.6715 92.2871 65.5565 92.363 62.4146C92.4389 59.2727 93.2597 56.1937 94.758 53.431C96.2562 50.6683 98.3891 48.3008 100.981 46.5234C103.573 44.7459 106.55 43.6094 109.667 43.2072C112.784 42.805 115.952 43.1486 118.91 44.2099L112.21 62.8799Z" fill="#407BFF"/>
<path d="M112.21 62.88L130.45 55.04C131.549 57.5988 132.097 60.3601 132.06 63.1446C132.022 65.9291 131.4 68.6745 130.232 71.2028C129.065 73.731 127.379 75.9854 125.283 77.8197C123.188 79.654 120.73 81.0272 118.07 81.85L112.21 62.88Z" fill="#407BFF"/>
<path opacity="0.3" d="M112.21 62.88L130.45 55.04C131.549 57.5988 132.097 60.3601 132.06 63.1446C132.022 65.9291 131.4 68.6745 130.232 71.2028C129.065 73.731 127.379 75.9854 125.283 77.8197C123.188 79.654 120.73 81.0272 118.07 81.85L112.21 62.88Z" fill="black"/>
<path d="M388.32 129.03C384.96 129.71 383.63 132.4 380.27 139.44C376.02 148.3 369.84 164.29 368.44 164.44C366.44 164.63 341.28 154.81 341.28 154.81L337.37 159.24C337.37 159.24 350.56 176.88 371.44 182.47C375.19 183.47 379.92 179.23 384.44 173.42C385.32 172.29 386.18 171.1 387.05 169.87C391.694 162.984 395.861 155.787 399.52 148.33L388.32 129.05V129.03Z" fill="#FF6C37"/>
<path opacity="0.2" d="M387.26 140.28C385.911 145.497 384.225 150.622 382.21 155.62C381.6 157.092 381.403 158.704 381.64 160.28C382.331 164.346 383.385 168.342 384.79 172.22C385.51 174.33 388.79 174.22 388.88 176.41C389.76 175.28 390.63 174.08 391.49 172.86L393.41 165.24L387.26 140.28Z" fill="black"/>
<path d="M372.62 167.87C372.9 167.791 373.162 167.658 373.39 167.479C373.619 167.299 373.809 167.076 373.951 166.822C374.094 166.569 374.184 166.289 374.218 166.001C374.252 165.712 374.229 165.419 374.15 165.14L365.73 129.73C365.489 128.915 365 128.196 364.332 127.671C363.663 127.146 362.849 126.841 362 126.8L335 126.24C334.706 126.2 334.406 126.22 334.12 126.3C333.556 126.463 333.079 126.842 332.794 127.356C332.509 127.869 332.439 128.475 332.6 129.04L341.02 164.44C341.263 165.259 341.756 165.982 342.43 166.507C343.105 167.033 343.926 167.334 344.78 167.37L371.78 167.93C372.061 167.961 372.346 167.941 372.62 167.87Z" fill="black"/>
<path opacity="0.2" d="M372.62 167.87C372.9 167.791 373.162 167.658 373.39 167.479C373.619 167.299 373.809 167.076 373.951 166.822C374.094 166.569 374.184 166.289 374.218 166.001C374.252 165.712 374.229 165.419 374.15 165.14L365.73 129.73C365.489 128.915 365 128.196 364.332 127.671C363.663 127.146 362.849 126.841 362 126.8L335 126.24C334.706 126.2 334.406 126.22 334.12 126.3C333.556 126.463 333.079 126.842 332.794 127.356C332.509 127.869 332.439 128.475 332.6 129.04L341.02 164.44C341.263 165.259 341.756 165.982 342.43 166.507C343.105 167.033 343.926 167.334 344.78 167.37L371.78 167.93C372.061 167.961 372.346 167.941 372.62 167.87Z" fill="white"/>
<path d="M369.85 167.8C370.13 167.721 370.392 167.588 370.62 167.409C370.848 167.229 371.039 167.006 371.181 166.752C371.324 166.499 371.414 166.219 371.448 165.931C371.482 165.642 371.459 165.349 371.38 165.07L363 129.68C362.756 128.862 362.265 128.139 361.593 127.613C360.921 127.086 360.103 126.781 359.25 126.74L332.25 126.19C331.958 126.153 331.662 126.177 331.38 126.26C331.1 126.338 330.838 126.471 330.61 126.651C330.381 126.831 330.191 127.054 330.048 127.307C329.906 127.561 329.816 127.84 329.782 128.129C329.748 128.417 329.771 128.71 329.85 128.99L338.28 164.4C338.525 165.216 339.017 165.936 339.689 166.461C340.361 166.986 341.179 167.289 342.03 167.33L369.03 167.88C369.306 167.908 369.585 167.881 369.85 167.8Z" fill="black"/>
<path opacity="0.3" d="M369.85 167.8C370.13 167.721 370.392 167.588 370.62 167.409C370.848 167.229 371.039 167.006 371.181 166.752C371.324 166.499 371.414 166.219 371.448 165.931C371.482 165.642 371.459 165.349 371.38 165.07L363 129.68C362.756 128.862 362.265 128.139 361.593 127.613C360.921 127.086 360.103 126.781 359.25 126.74L332.25 126.19C331.958 126.153 331.662 126.177 331.38 126.26C331.1 126.338 330.838 126.471 330.61 126.651C330.381 126.831 330.191 127.054 330.048 127.307C329.906 127.561 329.816 127.84 329.782 128.129C329.748 128.417 329.771 128.71 329.85 128.99L338.28 164.4C338.525 165.216 339.017 165.936 339.689 166.461C340.361 166.986 341.179 167.289 342.03 167.33L369.03 167.88C369.306 167.908 369.585 167.881 369.85 167.8Z" fill="white"/>
<path opacity="0.2" d="M347.1 144.46C347.121 144.193 347.196 143.933 347.319 143.696C347.442 143.459 347.612 143.248 347.818 143.078C348.024 142.907 348.262 142.78 348.519 142.703C348.775 142.626 349.044 142.601 349.31 142.63C350.082 142.672 350.821 142.956 351.424 143.44C352.026 143.924 352.462 144.585 352.67 145.33C352.743 145.583 352.766 145.848 352.74 146.11C352.716 146.375 352.64 146.632 352.516 146.868C352.391 147.103 352.221 147.311 352.015 147.479C351.809 147.648 351.572 147.773 351.317 147.849C351.062 147.925 350.794 147.949 350.53 147.92C349.758 147.876 349.02 147.592 348.418 147.108C347.815 146.624 347.379 145.964 347.17 145.22C347.096 144.974 347.072 144.715 347.1 144.46Z" fill="white"/>
<path d="M336.37 148.63C336.9 148.63 339.16 149.7 340.22 148.96C341.28 148.22 340.29 147.61 340.29 147.61C338.29 147.14 336.21 144.7 335.02 145.4C333.83 146.1 331.88 146.97 332.17 148.08C332.492 149.105 332.883 150.107 333.34 151.08C333.188 151.321 333.098 151.596 333.079 151.881C333.06 152.165 333.112 152.45 333.23 152.71C333.354 153.009 333.549 153.274 333.798 153.481C334.047 153.688 334.343 153.832 334.66 153.9C334.475 154.083 334.333 154.304 334.241 154.547C334.15 154.79 334.112 155.05 334.13 155.31C334.21 156.15 336.43 157.31 336.43 157.31C336.43 157.31 336 158.63 336.5 159.14C336.927 159.489 337.429 159.734 337.967 159.856C338.505 159.977 339.064 159.972 339.6 159.84C340.9 159.53 341.78 159.09 341.69 157.79C341.6 156.49 339.27 156.48 339.27 156.48C339.27 156.48 343.65 155.15 342.72 154.32C341.79 153.49 338.3 153.59 338.3 153.59C338.3 153.59 344.23 152.42 343.3 151.2C342.37 149.98 336.45 150.32 336.45 150.32C336.45 150.32 335.84 148.67 336.37 148.63Z" fill="#E9B376"/>
<path d="M386.79 358.68L389.32 380.16L381.61 381.23L373.5 361.04L386.79 358.68Z" fill="#E9B376"/>
<path d="M375.49 375.97C375.37 374.66 375.49 373.56 377 373.49L379.17 373.37C379.934 373.467 380.652 373.791 381.23 374.3C386.23 377.47 388.23 373.37 390.23 373.37C392.71 373.37 391.11 380.65 391.23 381.03L393.94 389.48C394.18 390.19 393.7 391.71 392.88 391.91C392.733 391.946 392.582 391.963 392.43 391.96H363.63C359.06 391.96 359.01 386.83 360.89 386.46C369.36 384.86 372.7 382.32 375.49 380.46C375.597 378.965 375.597 377.465 375.49 375.97Z" fill="#263238"/>
<path opacity="0.4" d="M363.63 391.96H392.39C392.542 391.963 392.693 391.946 392.84 391.91C393.4 391.77 393.84 391.03 393.92 390.34V389.7H360C360.285 390.414 360.791 391.018 361.444 391.425C362.097 391.832 362.863 392.019 363.63 391.96Z" fill="white"/>
<path d="M371 383.57C371.364 383.871 371.699 384.205 372 384.57C372.031 384.615 372.064 384.659 372.1 384.7L372.15 384.77C372.22 384.87 372.29 384.96 372.35 385.06C372.478 385.246 372.595 385.44 372.7 385.64C372.721 385.69 372.752 385.735 372.792 385.772C372.831 385.809 372.878 385.837 372.93 385.855C372.981 385.872 373.036 385.878 373.09 385.873C373.144 385.867 373.196 385.85 373.243 385.823C373.29 385.795 373.33 385.758 373.361 385.714C373.393 385.67 373.414 385.619 373.424 385.566C373.434 385.512 373.433 385.457 373.42 385.405C373.407 385.352 373.383 385.303 373.35 385.26C372.896 384.419 372.285 383.672 371.55 383.06C371.515 383.025 371.474 382.998 371.428 382.979C371.383 382.96 371.334 382.95 371.285 382.95C371.236 382.95 371.187 382.96 371.141 382.979C371.096 382.998 371.055 383.025 371.02 383.06C370.985 383.095 370.957 383.136 370.939 383.182C370.92 383.227 370.91 383.276 370.91 383.325C370.91 383.374 370.92 383.423 370.939 383.468C370.957 383.514 370.985 383.555 371.02 383.59L371 383.57Z" fill="black"/>
<path d="M373.65 382.1C373.971 382.378 374.269 382.682 374.54 383.01L374.64 383.13V383.18L374.82 383.43C374.95 383.61 375.06 383.79 375.17 383.97C375.22 384.055 375.301 384.117 375.397 384.143C375.492 384.169 375.593 384.157 375.68 384.11C375.766 384.058 375.828 383.975 375.854 383.878C375.88 383.781 375.868 383.678 375.82 383.59C375.363 382.837 374.789 382.162 374.12 381.59C374.085 381.555 374.044 381.527 373.998 381.509C373.953 381.49 373.904 381.48 373.855 381.48C373.806 381.48 373.757 381.49 373.712 381.509C373.666 381.527 373.625 381.555 373.59 381.59C373.555 381.625 373.528 381.666 373.509 381.711C373.49 381.757 373.48 381.806 373.48 381.855C373.48 381.904 373.49 381.953 373.509 381.998C373.528 382.044 373.555 382.085 373.59 382.12L373.65 382.1Z" fill="black"/>
<path d="M375.6 380.87C375.752 380.95 375.899 381.04 376.04 381.14L376.15 381.21L376.21 381.26L376.4 381.43L376.57 381.61L376.65 381.7V381.75C376.751 381.882 376.842 382.022 376.92 382.17C376.97 382.255 377.052 382.316 377.148 382.34C377.244 382.365 377.345 382.35 377.43 382.3C377.515 382.249 377.576 382.167 377.6 382.072C377.625 381.976 377.61 381.875 377.56 381.79C377.209 381.117 376.652 380.574 375.97 380.24C375.885 380.189 375.784 380.175 375.688 380.199C375.592 380.223 375.51 380.285 375.46 380.37C375.409 380.455 375.395 380.556 375.419 380.652C375.444 380.747 375.505 380.829 375.59 380.88L375.6 380.87Z" fill="black"/>
<path d="M375.79 378.24C375.986 378.23 376.183 378.23 376.38 378.24L376.86 378.32C377.228 378.389 377.589 378.49 377.94 378.62C377.987 378.634 378.037 378.638 378.086 378.632C378.134 378.626 378.182 378.611 378.225 378.587C378.267 378.562 378.305 378.53 378.335 378.491C378.365 378.452 378.387 378.407 378.4 378.36C378.425 378.265 378.411 378.163 378.363 378.077C378.314 377.992 378.234 377.928 378.14 377.9C377.388 377.62 376.593 377.471 375.79 377.46C375.691 377.463 375.597 377.504 375.528 377.575C375.459 377.646 375.42 377.741 375.42 377.84C375.422 377.937 375.462 378.03 375.531 378.099C375.6 378.168 375.693 378.207 375.79 378.21V378.24Z" fill="black"/>
<g opacity="0.3">
<path d="M383.89 378.51C383.878 378.898 383.969 379.283 384.156 379.624C384.342 379.965 384.616 380.25 384.95 380.45C385.43 380.623 385.942 380.688 386.45 380.64L391.03 380.52C391.27 378.52 391.92 373.68 390.03 373.68C388.55 373.68 386.98 376.46 383.87 375.68C383.91 376.66 383.86 378.01 383.89 378.51Z" fill="black"/>
</g>
<path d="M363 291.95C364.37 279.52 381.68 213.58 381.68 213.58L403.68 213.05L437.54 212.05C437.54 212.05 439.54 229.72 439.54 252.87C439.54 252.87 437.9 351.7 436.54 375.23L417.94 375.94C415.84 357.5 413 299.8 413 299.8C411.72 289.35 410.57 258.51 409.66 249.7C409.28 247.746 408.907 245.79 408.54 243.83C404.93 253.38 388.35 294.25 387.07 300.11L393.88 377.83L373.88 377.06C373.88 377.06 361.62 304.37 363 291.95Z" fill="black"/>
<path d="M393.31 216.14C392.215 219.352 390.346 222.244 387.867 224.562C385.389 226.88 382.378 228.552 379.1 229.43C379.064 229.44 379.031 229.458 379.003 229.481C378.974 229.504 378.95 229.533 378.932 229.565C378.915 229.598 378.904 229.634 378.9 229.67C378.896 229.707 378.899 229.744 378.91 229.78C378.92 229.815 378.938 229.848 378.961 229.877C378.984 229.906 379.013 229.93 379.046 229.947C379.078 229.965 379.114 229.976 379.15 229.98C379.187 229.984 379.224 229.98 379.26 229.97C382.632 229.063 385.729 227.341 388.278 224.956C390.828 222.57 392.752 219.594 393.88 216.29C393.99 215.95 393.42 215.8 393.31 216.14Z" fill="black"/>
<path d="M410.18 217.07C409.793 222.623 409.4 228.177 409 233.73C409 234.09 408.4 234.09 408.42 233.73L409.02 225.17C407.57 226.23 405.88 224.95 405.41 223.53C404.76 221.134 404.801 218.603 405.53 216.23C405.63 215.88 406.19 216.03 406.1 216.37C405.661 217.971 405.499 219.635 405.62 221.29C405.622 222.179 405.809 223.058 406.17 223.87C406.64 224.72 407.81 225.45 408.75 224.67C408.796 224.64 408.85 224.623 408.905 224.623C408.96 224.623 409.014 224.64 409.06 224.67L409.6 217.11C409.62 216.71 410.2 216.71 410.18 217.07Z" fill="black"/>
<path d="M424 216.05C423.92 223.41 429.9 229.57 437.64 230.14C438.01 230.14 438.01 229.63 437.64 229.6C430.21 229.04 424.5 223.09 424.58 216.05C424.58 215.973 424.549 215.899 424.495 215.845C424.441 215.79 424.367 215.76 424.29 215.76C424.213 215.76 424.139 215.79 424.085 215.845C424.03 215.899 424 215.973 424 216.05Z" fill="black"/>
<path d="M421.17 359.72L424.45 381.77L432.28 382.13L434.82 360.88L421.17 359.72Z" fill="black"/>
<path d="M439 392.01H421.43C421.169 391.2 421.19 390.326 421.49 389.53C421.561 389.219 421.648 388.912 421.75 388.61V388.56C421.91 388.06 422.1 387.45 422.3 386.79C422.951 383.864 423.402 380.897 423.65 377.91C423.65 377.91 426.96 374.86 430.37 376.29C433.37 377.54 432.9 379.13 432.9 379.13C432.9 379.13 432.95 383.24 435.22 385.13C436.62 386.27 438.02 387.13 438.69 388.59C438.815 388.866 438.912 389.154 438.98 389.45C438.984 389.486 438.984 389.523 438.98 389.56C439.155 390.366 439.162 391.2 439 392.01Z" fill="#263238"/>
<path opacity="0.4" d="M421.49 389.53C421.19 390.326 421.169 391.2 421.43 392.01H439C439.196 391.197 439.22 390.352 439.07 389.53H421.49Z" fill="white"/>
<path d="M432 382.03C431.532 381.694 430.963 381.529 430.388 381.562C429.813 381.595 429.267 381.823 428.84 382.21C428.6 382.43 428.23 382.09 428.47 381.88C428.999 381.404 429.677 381.126 430.388 381.093C431.099 381.06 431.799 381.275 432.37 381.7C432.63 381.88 432.26 382.22 432 382.03Z" fill="black"/>
<path d="M432.47 383.53C432 383.194 431.43 383.028 430.853 383.061C430.277 383.094 429.728 383.323 429.3 383.71C429.06 383.93 428.7 383.59 428.93 383.38C429.459 382.904 430.137 382.626 430.848 382.593C431.559 382.56 432.259 382.775 432.83 383.2C433.09 383.39 432.73 383.72 432.47 383.53Z" fill="black"/>
<path d="M433 384.91C432.532 384.574 431.963 384.409 431.388 384.442C430.813 384.475 430.267 384.703 429.84 385.09C429.6 385.31 429.23 384.97 429.47 384.76C429.999 384.284 430.677 384.006 431.388 383.973C432.099 383.94 432.799 384.155 433.37 384.58C433.63 384.77 433.26 385.1 433 384.91Z" fill="black"/>
<path d="M381.82 208.44C378.7 213.56 378.7 217.68 381.67 218.73C381.67 218.73 408.67 223.31 436.35 220.17C443.01 220.54 439.75 214.37 439.75 214.37L439.9 129.03C418.9 124.58 393.47 128.7 388.32 129.03L381.82 208.44Z" fill="#FF6C37"/>
<path opacity="0.2" d="M439.81 178.65V150.43C439.81 150.43 443.95 179.36 441.87 186.53L439.81 178.65Z" fill="black"/>
<path d="M401.63 91.2799C401.63 91.2799 391.42 85.5299 397.48 79.3699C402.26 74.5099 406.48 75.2199 412.88 76.3699C428.55 79.2199 427.64 85.7499 427.64 85.7499L401.63 91.2799Z" fill="black"/>
<path d="M421.58 124.16C421.58 124.16 420.74 118.16 424.26 107.73C424.26 107.73 423.72 107.45 423.72 107.44C424.2 105.98 424.72 104.64 425.18 103.44L410.36 111.73C410.55 115.12 409.05 121.58 408.21 124.31C408.21 124.31 406.21 129.21 412.8 129.72C417.65 130.08 421.58 124.16 421.58 124.16Z" fill="#E9B376"/>
<path opacity="0.2" d="M409.92 116.45L418.31 114.94C417.44 117.49 415.02 120.45 409.23 120.45C409.569 119.138 409.8 117.8 409.92 116.45Z" fill="black"/>
<path d="M425.61 96.4202C424.24 105.53 423.61 110.69 418.61 114.94C411.02 121.33 400.32 116.26 398.94 106.94C397.7 98.5202 400.15 85.0402 409.45 82.2702C411.506 81.6627 413.681 81.5849 415.775 82.0441C417.869 82.5034 419.812 83.4846 421.425 84.8967C423.038 86.3088 424.267 88.1058 424.999 90.1205C425.73 92.1353 425.941 94.3023 425.61 96.4202Z" fill="#E9B376"/>
<path d="M427.75 85.5098C416.57 74.7398 405.19 80.7898 400.84 86.6898L420.34 86.9198C421.2 86.9198 421.68 87.7898 421.5 89.4198C421.5 89.4198 414.73 101.54 424.06 108.35C427.39 107.07 428.06 101.53 429.37 98.2998C431.31 93.4998 433.76 86.4298 427.75 85.5098Z" fill="black"/>
<path d="M428.55 104.37C428.109 105.425 427.461 106.382 426.646 107.183C425.83 107.985 424.863 108.616 423.8 109.04C420.95 110.16 420.2 107.04 420.71 104.22C421.17 101.64 422.21 98.5498 425.21 98.6498C428.21 98.7498 429.63 101.8 428.55 104.37Z" fill="#E9B376"/>
<path d="M411.46 98.15C411.38 99.08 410.82 99.79 410.2 99.73C409.58 99.67 409.2 98.87 409.2 97.93C409.2 96.99 409.85 96.28 410.46 96.34C411.07 96.4 411.55 97.21 411.46 98.15Z" fill="black"/>
<path d="M402.72 97.71C402.63 98.64 402.07 99.35 401.46 99.29C400.85 99.23 400.46 98.43 400.46 97.49C400.46 96.55 401.1 95.84 401.72 95.9C402.34 95.96 402.8 96.8 402.72 97.71Z" fill="black"/>
<path d="M406.1 97.02C406.1 97.02 402.72 101.42 401.61 103.23C402.81 104.52 405.1 104.18 405.1 104.18L406.1 97.02Z" fill="#D58745"/>
<path d="M415 93.69C414.926 93.7138 414.847 93.717 414.771 93.6994C414.695 93.6818 414.626 93.644 414.57 93.59C414.18 93.2047 413.707 92.9142 413.186 92.7408C412.666 92.5674 412.113 92.5158 411.57 92.59C411.456 92.6175 411.336 92.5995 411.235 92.5397C411.134 92.48 411.061 92.3832 411.03 92.27C411.017 92.2135 411.015 92.155 411.024 92.0977C411.033 92.0404 411.054 91.9856 411.085 91.9364C411.115 91.8871 411.155 91.8444 411.203 91.8107C411.25 91.777 411.303 91.753 411.36 91.74C412.05 91.6165 412.76 91.6601 413.43 91.8672C414.099 92.0742 414.71 92.4387 415.21 92.93C415.252 92.9701 415.285 93.0183 415.308 93.0715C415.33 93.1248 415.342 93.1821 415.342 93.24C415.342 93.2979 415.33 93.3552 415.308 93.4085C415.285 93.4618 415.252 93.5099 415.21 93.55C415.157 93.6187 415.084 93.6679 415 93.69Z" fill="black"/>
<path d="M407.91 107.43C408.645 107.458 409.379 107.337 410.066 107.074C410.754 106.811 411.381 106.412 411.91 105.9" stroke="black" stroke-width="0.75" stroke-linecap="round" stroke-linejoin="round"/>
<path opacity="0.2" d="M426.69 101.66C426.511 101.38 426.253 101.159 425.949 101.025C425.644 100.892 425.307 100.852 424.98 100.91C424.324 101.038 423.733 101.392 423.31 101.91C422.786 102.512 422.424 103.238 422.26 104.02" stroke="black" stroke-width="0.5" stroke-linecap="round" stroke-linejoin="round"/>
<path d="M399.36 92.96C399.277 92.9365 399.203 92.8875 399.15 92.82C399.113 92.7753 399.085 92.7239 399.069 92.6685C399.052 92.6132 399.046 92.5551 399.051 92.4975C399.057 92.4399 399.074 92.384 399.101 92.3329C399.128 92.2819 399.165 92.2367 399.21 92.1999C399.737 91.7461 400.366 91.4255 401.043 91.2654C401.72 91.1053 402.425 91.1103 403.1 91.2799C403.211 91.3188 403.302 91.3984 403.356 91.5024C403.41 91.6065 403.422 91.7272 403.39 91.8399C403.355 91.9513 403.278 92.0444 403.175 92.0987C403.072 92.1531 402.951 92.1643 402.84 92.13C402.306 91.9927 401.746 91.9894 401.211 92.1202C400.675 92.251 400.18 92.512 399.77 92.88C399.715 92.9288 399.648 92.962 399.576 92.9761C399.504 92.9902 399.429 92.9846 399.36 92.96Z" fill="black"/>
<path opacity="0.3" d="M430.75 94.4997L419.56 94.7697C419.852 93.4781 420.254 92.2136 420.76 90.9897H431.5C431.384 92.1844 431.132 93.362 430.75 94.4997Z" fill="white"/>
<g opacity="0.2">
<path d="M412.68 103.8C413.083 104.239 413.395 104.755 413.595 105.317C413.796 105.878 413.883 106.474 413.85 107.07C414.168 106.48 414.274 105.799 414.15 105.14C413.91 104.12 412.68 103.8 412.68 103.8Z" fill="black"/>
</g>
<path d="M408.57 121.73L402.8 126.92L412.43 138.61L426.35 126.87L422.23 120.81L413.52 128.07L408.57 121.73Z" fill="#FF6C37"/>
<path opacity="0.8" d="M408.57 121.73L402.8 126.92L412.43 138.61L426.35 126.87L422.23 120.81L413.52 128.07L408.57 121.73Z" fill="white"/>
<path opacity="0.2" d="M439.53 190.68V200.68C439.53 200.68 417.34 194.2 404.27 182.51C394.96 174.18 396.41 170.68 396.41 170.68L406.96 171.68L439.53 190.68Z" fill="black"/>
<path opacity="0.2" d="M432.57 152.87L434 176.45C437.93 178.96 440.54 175.45 441.14 171.9V165.11L432.57 152.87Z" fill="black"/>
<path d="M432.54 154.39C432.54 154.39 439.67 172.99 437.89 174.12C436.11 175.25 407.11 169.8 407.11 169.8L402.63 176.23C403.63 180.45 452.63 207.08 456.63 184.81C458.71 173.21 450.63 145.81 447.58 137.33C446.73 134.95 442.43 129.86 440.01 129.12C439.205 128.852 438.349 128.776 437.51 128.9C428.26 130.59 432.54 154.39 432.54 154.39Z" fill="#FF6C37"/>
<path d="M402.2 176.8C398.84 177.07 398.72 172.01 396.98 171.8C395.946 171.707 394.933 171.451 393.98 171.04C393.98 171.04 395.09 174.09 393.98 173.84C392.87 173.59 389.32 173.42 388.45 170.52C387.58 167.62 390.74 161.43 391.45 160.52C392.16 159.61 395.95 159.92 395.95 159.92C395.95 159.92 391.88 158.87 389.65 158.56C387.42 158.25 386.99 155.69 390.11 156.26C391.39 156.49 401.5 156.57 402.59 157.61C403.68 158.65 407.75 168.87 407.75 168.87C409.3 169.8 405.48 178.37 402.2 176.8Z" fill="#E9B376"/>
<g opacity="0.3">
<path d="M396 159.67C397.038 159.596 398.08 159.664 399.1 159.87C399.172 159.891 399.233 159.939 399.271 160.005C399.308 160.07 399.319 160.147 399.3 160.22C399.284 160.285 399.244 160.342 399.189 160.381C399.134 160.419 399.067 160.437 399 160.43C398.036 160.239 397.051 160.171 396.07 160.23C395.74 160.23 395.68 159.69 396 159.67Z" fill="black"/>
<path d="M390.83 162.73C390.51 162.9 390.18 162.43 390.5 162.27C392.39 161.27 394.38 161.83 396.3 162.47C396.64 162.58 396.4 163.1 396.05 162.99C394.37 162.42 392.51 161.88 390.83 162.73Z" fill="black"/>
<path d="M389.35 165.23C390.153 164.752 391.062 164.48 391.996 164.44C392.93 164.4 393.859 164.592 394.7 165C394.733 165.02 394.762 165.046 394.785 165.077C394.808 165.108 394.824 165.143 394.832 165.181C394.84 165.218 394.841 165.257 394.834 165.295C394.827 165.333 394.812 165.368 394.79 165.4C394.757 165.453 394.708 165.493 394.65 165.515C394.592 165.536 394.529 165.538 394.47 165.52C393.717 165.154 392.885 164.978 392.047 165.01C391.21 165.041 390.394 165.278 389.67 165.7C389.36 165.89 389 165.42 389.35 165.23Z" fill="black"/>
<path d="M392.06 169.48C391.915 169.179 391.802 168.864 391.72 168.54C391.64 168.19 392.17 167.99 392.26 168.34C392.379 168.878 392.606 169.386 392.927 169.833C393.249 170.28 393.658 170.657 394.13 170.94C394.45 171.12 394.21 171.64 393.9 171.46C393.309 171.122 392.801 170.657 392.41 170.1C392.41 170.1 392.34 170.1 392.3 170.1C392.009 169.998 391.695 169.986 391.397 170.064C391.1 170.142 390.832 170.308 390.63 170.54C390.39 170.82 389.95 170.46 390.2 170.18C390.426 169.917 390.715 169.715 391.04 169.592C391.365 169.47 391.716 169.431 392.06 169.48Z" fill="black"/>
</g>
</g>
<defs>
<clipPath id="clip0_2334_25764">
<rect width="500" height="395.67" fill="white"/>
</clipPath>
</defs>
</svg>
