<svg width="212" height="200" viewBox="0 0 212 200" fill="none" xmlns="http://www.w3.org/2000/svg">
<g clip-path="url(#clip0_1060_26046)">
<path d="M52.1807 116.874L51.957 116.639L53.3625 115.293L53.5874 115.527L52.1807 116.874ZM54.9994 114.173L54.7705 113.942C55.2295 113.491 55.6884 113.025 56.1383 112.557L56.3723 112.784C55.9212 113.252 55.4596 113.72 54.9994 114.173ZM57.7076 111.357L57.467 111.139C57.8974 110.666 58.3316 110.176 58.7581 109.683L59.0038 109.895C58.5761 110.387 58.1405 110.879 57.7076 111.357ZM60.2624 108.4L60.0114 108.194C60.4171 107.7 60.8266 107.188 61.2271 106.674L61.4871 106.874C61.0801 107.388 60.6693 107.902 60.2624 108.397V108.4ZM62.6676 105.321L62.4076 105.126C62.7885 104.614 63.1734 104.086 63.5517 103.551L63.8118 103.74C63.4373 104.272 63.0512 104.803 62.6676 105.318V105.321ZM64.9338 102.126L64.6646 101.944C65.0287 101.407 65.3871 100.866 65.7399 100.322L66.0129 100.499C65.6567 101.048 65.297 101.591 64.9338 102.126ZM82.7458 99.8732C82.1462 99.8732 81.552 99.7598 80.9945 99.539L81.1141 99.2374C81.6336 99.4426 82.1872 99.548 82.7458 99.5481C82.8264 99.5403 82.8862 99.5481 82.9564 99.5481L82.972 99.8732C82.8888 99.8771 82.7991 99.8719 82.738 99.8784L82.7458 99.8732ZM84.904 99.318L84.7415 99.0359C85.2833 98.7225 85.732 98.2706 86.0416 97.7266L86.3238 97.8892C85.9836 98.4854 85.4909 98.9803 84.8962 99.3232L84.904 99.318ZM67.0621 98.8487L66.7865 98.677C67.128 98.1258 67.4647 97.5711 67.7967 97.0129L68.0762 97.1793C67.7382 97.7418 67.3976 98.3 67.0543 98.8539L67.0621 98.8487ZM79.3472 98.3962C78.8937 97.9003 78.5315 97.3281 78.2772 96.706L78.5762 96.576C78.8168 97.161 79.1583 97.6992 79.5851 98.1661L79.3472 98.3962ZM86.8581 95.952L86.5331 95.9441V95.8583C86.5359 95.383 86.438 94.9124 86.2458 94.4776C86.1976 94.3697 86.143 94.2631 86.0845 94.1603L86.368 94.0004C86.4304 94.1122 86.4889 94.2267 86.5422 94.3437C86.753 94.8207 86.8606 95.3368 86.8581 95.8583V95.952ZM69.1878 95.6113L68.9382 95.402C69.3599 94.8991 69.8207 94.4305 70.3164 94.0004L70.5283 94.2462C70.0432 94.6664 69.5924 95.1247 69.18 95.6165L69.1878 95.6113ZM77.7688 94.7857C77.7318 94.4733 77.7132 94.159 77.7129 93.8444C77.7133 93.4967 77.7354 93.1493 77.7792 92.8043L78.1017 92.8446C78.0599 93.1776 78.0386 93.5128 78.0379 93.8483C78.0378 94.1499 78.056 94.4512 78.0925 94.7506L77.7688 94.7857ZM72.0846 93.1085L71.9143 92.8316C72.4746 92.486 73.0595 92.1818 73.6643 91.9215L73.7943 92.2205C73.2034 92.4742 72.6319 92.771 72.0846 93.1085ZM84.826 92.7731C84.3162 92.3948 83.7583 92.0862 83.167 91.8552L83.2879 91.5536C83.9074 91.7973 84.4915 92.1226 85.0249 92.5209L84.826 92.7731ZM75.6028 91.5861L75.517 91.2727C76.1521 91.1004 76.7986 90.9727 77.4516 90.8905L77.4919 91.2129C76.8547 91.2934 76.2239 91.4181 75.6041 91.5861H75.6028ZM81.3234 91.3169C80.6928 91.1983 80.0536 91.1313 79.4122 91.1167L79.42 90.7917C80.0793 90.8066 80.7363 90.8753 81.3845 90.9971L81.3234 91.3169ZM78.545 90.988L78.2395 90.8788C78.4647 90.2564 78.7522 89.6583 79.0976 89.0937L79.3745 89.264C79.0414 89.8093 78.7643 90.3869 78.5476 90.988H78.545ZM80.5329 87.7376L80.2937 87.5166C80.3886 87.4152 80.4861 87.3151 80.5849 87.2163C80.956 86.8503 81.3536 86.5122 81.7746 86.2048L81.967 86.4648C81.5587 86.7624 81.1733 87.0901 80.8137 87.4451C80.7201 87.5426 80.6265 87.6401 80.5355 87.7376H80.5329ZM83.6091 85.4715L83.4647 85.1802C84.0553 84.8877 84.6688 84.6442 85.2993 84.4522L85.3942 84.7629C84.7816 84.9499 84.1854 85.1869 83.6117 85.4715H83.6091ZM87.2755 84.2779L87.1949 83.9633C87.8306 83.8008 88.4625 83.6292 89.0736 83.4563L89.162 83.7696C88.5509 83.9438 87.9164 84.1141 87.2781 84.2779H87.2755ZM91.0355 83.2092L90.938 82.8998C91.5646 82.7022 92.1861 82.4954 92.7842 82.2874L92.8908 82.5943C92.2927 82.8036 91.6687 83.0142 91.0381 83.2092H91.0355ZM94.7266 81.9182L94.6096 81.6152C95.2181 81.3786 95.8226 81.1316 96.4077 80.8794L96.5377 81.1771C95.95 81.4319 95.3416 81.6803 94.7292 81.9182H94.7266ZM98.3176 80.3671L98.1772 80.0746L99.9311 79.223L100.073 79.5155L98.3176 80.3671ZM101.828 78.6626L101.686 78.3701L103.44 77.5172L103.582 77.8097L101.828 78.6626ZM105.338 76.9568L105.197 76.6643L106.951 75.8114L107.092 76.1039L105.338 76.9568ZM108.849 75.251L108.707 74.9598L110.461 74.1069L110.603 74.3994L108.849 75.251ZM112.359 73.5466L112.217 73.254L113.971 72.4011L114.113 72.6937L112.359 73.5466Z" fill="#FF6C37"/>
<path d="M104.17 109.477C104.17 111.472 104.963 113.385 106.373 114.795C107.784 116.206 109.697 116.998 111.691 116.999H195.235C197.229 116.998 199.142 116.206 200.553 114.795C201.963 113.385 202.756 111.472 202.756 109.477V58.6417H104.17V109.477Z" fill="white"/>
<path d="M99.0113 71.6082C100.168 67.9132 103.809 65.0723 107.794 64.7772C111.779 64.4821 115.842 66.7274 117.585 70.2079C119.706 70.1884 121.794 71.3637 122.823 73.1553C123.328 74.0548 123.578 75.075 123.546 76.106C123.514 77.1369 123.201 78.1396 122.641 79.006C125.165 79.4441 127.431 81.1044 128.548 83.3368C129.097 84.454 129.37 85.6869 129.342 86.9315C129.314 88.1761 128.988 89.3958 128.389 90.4876C131.168 89.0756 134.721 89.203 137.386 90.8126C140.052 92.4222 141.731 95.4528 141.638 98.4835C143.368 95.7688 146.686 94.0773 149.985 94.2281C153.283 94.3789 156.427 96.3642 157.895 99.2245C159.443 94.5908 163.571 90.8503 168.457 89.6555C173.343 88.4606 178.823 89.8492 182.479 93.2088C187.979 94.0695 191.986 100.04 190.553 105.236C193.524 107.695 195.043 111.692 194.421 115.418C193.8 119.144 191.062 122.472 187.445 123.896L92.8343 123.839L84.7734 87.743L99.0113 71.6082Z" fill="#FFF3EE"/>
<g opacity="0.8">
<path d="M97.5107 83.5954C98.6262 79.9004 102.151 77.0609 106.001 76.7579C109.85 76.455 113.776 78.7081 115.457 82.1808C116.486 82.1714 117.499 82.44 118.389 82.9583C119.279 83.4767 120.012 84.2256 120.512 85.126C121.011 86.0264 121.258 87.0449 121.227 88.0742C121.196 89.1034 120.888 90.1051 120.335 90.9737C121.56 91.1925 122.715 91.6985 123.707 92.4504C124.698 93.2023 125.497 94.1785 126.038 95.2991C126.579 96.4196 126.847 97.6524 126.819 98.8964C126.791 100.14 126.469 101.36 125.879 102.455C127.229 101.744 128.742 101.399 130.267 101.455C131.792 101.511 133.276 101.966 134.57 102.774C135.864 103.582 136.924 104.716 137.644 106.062C138.364 107.407 138.718 108.918 138.672 110.443C140.347 107.727 143.553 106.033 146.733 106.181C149.913 106.33 152.957 108.312 154.371 111.171C155.872 106.536 159.863 102.793 164.584 101.595C169.305 100.396 174.595 101.779 178.129 105.136C183.441 105.992 187.308 111.959 185.921 117.157C188.787 119.613 190.251 123.609 189.648 127.335C189.045 131.061 186.398 134.392 182.902 135.818L91.4949 135.833L83.7305 99.7432L97.5107 83.5954Z" fill="white"/>
</g>
<path opacity="0.7" d="M170.18 60.2734C142.798 86.0241 123.375 92.9682 98.9182 95.4502L97.293 121.453L122.971 130.229C145.398 129.579 166.933 97.1117 180.234 69.2587L170.18 60.2734Z" fill="#EBEBEB"/>
<path d="M174.038 60.6089C169.586 65.8758 162.872 70.9138 154.953 77.7188L165.759 73.3152C164.434 75.5099 162.508 78.5834 161.423 79.9004C163.912 78.7511 167.923 76.2223 169.247 74.8819C169.247 76.7528 166.992 79.8822 166.01 81.5919C171.773 76.6592 177.017 70.6369 178.709 65.3479L174.038 60.6089Z" fill="#FFA121"/>
<path opacity="0.4" d="M175.3 60.8753C172.666 64.3662 168.725 67.731 164.066 72.2633L170.372 69.273C169.582 70.7226 168.432 72.7521 167.791 73.6245C169.246 72.8445 171.594 71.1543 172.377 70.2611C172.357 71.4845 171.02 73.5556 170.427 74.6816C173.816 71.3961 176.916 67.4007 177.952 63.9255L175.294 60.874" fill="white"/>
<path d="M134.41 78.764C134.446 79.5792 134.41 80.9535 133.597 81.4241C132.239 82.2042 131.172 80.3008 130.673 79.3439C130.078 78.1985 130.23 76.7761 131.575 76.2664C133.351 75.5904 134.345 77.2455 134.41 78.764Z" fill="#FFF3EE"/>
<path d="M198.784 103.481C198.819 104.295 198.784 105.669 197.97 106.141C196.612 106.921 195.545 105.018 195.046 104.061C194.451 102.916 194.604 101.495 195.948 100.984C197.724 100.306 198.718 101.963 198.784 103.481Z" fill="#FFF3EE"/>
<path d="M127.196 70.6941C127.825 70.6941 128.334 70.1847 128.334 69.5565C128.334 68.9282 127.825 68.4188 127.196 68.4188C126.568 68.4188 126.059 68.9282 126.059 69.5565C126.059 70.1847 126.568 70.6941 127.196 70.6941Z" fill="#FFF3EE"/>
<path d="M185.825 91.6275C186.681 91.2018 187.031 90.1624 186.605 89.3059C186.179 88.4494 185.14 88.1002 184.283 88.5259C183.427 88.9516 183.078 89.9911 183.503 90.8475C183.929 91.704 184.968 92.0532 185.825 91.6275Z" fill="#FFF3EE"/>
<path d="M195.235 117.161H111.693C109.656 117.159 107.703 116.349 106.262 114.908C104.821 113.468 104.011 111.515 104.008 109.477V58.4844H202.919V109.477C202.917 111.515 202.106 113.468 200.666 114.908C199.225 116.348 197.272 117.159 195.235 117.161ZM104.329 58.8094V109.477C104.331 111.429 105.108 113.299 106.487 114.679C107.867 116.058 109.738 116.834 111.689 116.836H195.235C197.186 116.834 199.057 116.058 200.436 114.679C201.816 113.299 202.592 111.428 202.594 109.477V58.8094H104.329Z" fill="#FF6C37"/>
<path d="M195.235 38.9536H111.691C110.703 38.9536 109.725 39.1483 108.812 39.5266C107.899 39.9049 107.07 40.4594 106.371 41.1584C105.673 41.8574 105.119 42.6871 104.741 43.6003C104.363 44.5134 104.169 45.492 104.17 46.4802V58.6521H202.756V46.4802C202.757 45.492 202.563 44.5133 202.185 43.6001C201.808 42.6869 201.254 41.857 200.555 41.158C199.857 40.459 199.027 39.9045 198.114 39.5263C197.201 39.148 196.223 38.9534 195.235 38.9536Z" fill="white"/>
<path d="M202.919 58.8095H104.008V46.4802C104.01 44.4428 104.821 42.4896 106.261 41.0491C107.702 39.6086 109.656 38.7984 111.693 38.7963H195.235C197.272 38.7984 199.226 39.6086 200.666 41.0492C202.107 42.4897 202.917 44.4429 202.919 46.4802V58.8095ZM104.329 58.4844H202.594V46.4802C202.592 44.5291 201.816 42.6586 200.436 41.279C199.057 39.8994 197.186 39.1234 195.235 39.1214H111.693C109.741 39.1224 107.869 39.8979 106.489 41.2775C105.108 42.6572 104.331 44.5283 104.329 46.4802V58.4844Z" fill="#FF6C37"/>
<path d="M118.14 49.6156C118.593 47.3834 117.15 45.2067 114.918 44.7538C112.686 44.3009 110.509 45.7432 110.056 47.9754C109.603 50.2075 111.046 52.3843 113.278 52.8372C115.51 53.2901 117.687 51.8477 118.14 49.6156Z" fill="#FF6C37"/>
<path d="M129.164 51.7175C130.775 50.107 130.775 47.4958 129.164 45.8852C127.554 44.2747 124.943 44.2747 123.332 45.8852C121.722 47.4958 121.722 50.107 123.332 51.7175C124.943 53.3281 127.554 53.3281 129.164 51.7175Z" fill="white"/>
<path d="M126.248 53.0862C125.399 53.0862 124.569 52.8346 123.864 52.3631C123.158 51.8917 122.608 51.2216 122.284 50.4376C121.959 49.6536 121.874 48.791 122.039 47.9587C122.205 47.1264 122.614 46.3619 123.214 45.7619C123.814 45.1619 124.578 44.7532 125.41 44.5877C126.243 44.4221 127.105 44.5071 127.889 44.8318C128.673 45.1566 129.343 45.7065 129.815 46.4121C130.286 47.1176 130.538 47.9472 130.538 48.7957C130.538 49.9336 130.086 51.0249 129.281 51.8296C128.477 52.6342 127.385 53.0862 126.248 53.0862ZM126.248 44.8394C125.464 44.8391 124.698 45.0713 124.046 45.5064C123.395 45.9415 122.887 46.5602 122.587 47.284C122.287 48.0079 122.208 48.8044 122.361 49.573C122.513 50.3415 122.891 51.0475 123.445 51.6017C123.998 52.1559 124.704 52.5333 125.473 52.6863C126.241 52.8392 127.038 52.7608 127.762 52.461C128.486 52.1612 129.105 51.6535 129.54 51.002C129.975 50.3505 130.208 49.5845 130.208 48.8009C130.206 47.7509 129.789 46.7443 129.046 46.0017C128.304 45.2591 127.298 44.8411 126.248 44.8394Z" fill="#FF6C37"/>
<path d="M157.638 44.8655H141.219C139.045 44.8655 137.283 46.6275 137.283 48.801V48.8023C137.283 50.9759 139.045 52.7379 141.219 52.7379H157.638C159.812 52.7379 161.574 50.9759 161.574 48.8023V48.801C161.574 46.6275 159.812 44.8655 157.638 44.8655Z" fill="white"/>
<path d="M157.635 52.8989H141.219C140.164 52.8529 139.167 52.4012 138.437 51.6382C137.707 50.8752 137.299 49.8597 137.299 48.8035C137.299 47.7472 137.707 46.7317 138.437 45.9687C139.167 45.2057 140.164 44.7541 141.219 44.708H157.635C158.69 44.7541 159.687 45.2057 160.417 45.9687C161.148 46.7317 161.556 47.7472 161.556 48.8035C161.556 49.8597 161.148 50.8752 160.417 51.6382C159.687 52.4012 158.69 52.8529 157.635 52.8989ZM141.215 45.0265C140.216 45.0265 139.256 45.4238 138.549 46.1309C137.842 46.838 137.445 47.797 137.445 48.797C137.445 49.7969 137.842 50.756 138.549 51.4631C139.256 52.1701 140.216 52.5674 141.215 52.5674H157.635C158.635 52.5674 159.594 52.1701 160.301 51.4631C161.008 50.756 161.405 49.7969 161.405 48.797C161.405 47.797 161.008 46.838 160.301 46.1309C159.594 45.4238 158.635 45.0265 157.635 45.0265H141.215Z" fill="#FF6C37"/>
<path d="M191.146 29.9827C184.562 35.7462 173.204 31.7743 169.678 36.3755L179.76 44.3597L191.146 29.9827Z" fill="#FF6C37"/>
<path d="M169.678 36.3755C169.431 37.0345 169.367 37.7482 169.492 38.4408C169.618 39.1335 169.928 39.7793 170.391 40.3097L177.542 48.5006L179.767 44.3662L169.678 36.3755Z" fill="#FF8356" fill-opacity="0.99"/>
<path d="M206.07 41.7997C201.969 49.529 208.437 59.6715 204.769 64.1622L194.689 56.1767L206.07 41.7997Z" fill="#FF6C37"/>
<path d="M204.766 64.1622C204.181 64.5539 203.501 64.7801 202.798 64.8167C202.095 64.8533 201.395 64.699 200.773 64.3702L191.17 59.2918L194.68 56.178L204.766 64.1622Z" fill="#FF8356" fill-opacity="0.99"/>
<path d="M211.192 20.0768L202.215 23.3727L210.042 29.5705L211.192 20.0768Z" fill="#FF6C37"/>
<path d="M210.041 29.5692C208.786 43.7746 198.291 57.0283 185.543 64.391L173.928 55.2015C178.802 39.8598 187.88 28.8918 202.214 23.3714L210.041 29.5692Z" fill="#FFF3EE"/>
<path d="M173.928 55.2015L168.889 58.6911L183.301 70.1038L185.544 64.391L173.928 55.2015Z" fill="#FF6C37"/>
<path d="M199.481 41.0235C202.437 40.672 204.55 37.99 204.198 35.033C203.847 32.0761 201.164 29.964 198.208 30.3156C195.251 30.6671 193.139 33.3492 193.49 36.3061C193.842 39.263 196.524 41.3751 199.481 41.0235Z" fill="white"/>
<path d="M199.251 39.4893L199.218 39.1656C199.529 39.1333 199.835 39.0599 200.128 38.9471L200.245 39.2501C199.926 39.373 199.592 39.4535 199.251 39.4893ZM198.237 39.4633C197.902 39.4105 197.574 39.3125 197.265 39.1721L197.395 38.8756C197.678 39.0024 197.977 39.0899 198.284 39.1357L198.237 39.4633ZM201.128 38.7599L200.935 38.4999C201.185 38.3136 201.41 38.095 201.602 37.8498L201.862 38.0513C201.65 38.3196 201.403 38.5579 201.128 38.7599ZM196.403 38.6299C196.14 38.4151 195.907 38.1659 195.711 37.8888L195.971 37.7003C196.151 37.9538 196.365 38.1821 196.606 38.379L196.403 38.6299ZM202.254 37.4377L201.966 37.2868C202.11 37.0108 202.216 36.717 202.282 36.4132L202.599 36.4834C202.527 36.8171 202.411 37.1398 202.254 37.4429V37.4377ZM195.233 36.9904C195.116 36.6714 195.041 36.3383 195.012 35.9997L195.335 35.9711C195.362 36.282 195.43 36.5881 195.537 36.8812L195.233 36.9904ZM202.36 35.4927C202.344 35.1833 202.288 34.8773 202.192 34.5825L202.501 34.4824C202.606 34.8053 202.668 35.1406 202.685 35.4797L202.36 35.4927ZM195.384 35.048L195.064 34.9908C195.123 34.656 195.227 34.3307 195.373 34.0235L195.667 34.1626C195.533 34.4438 195.437 34.7415 195.381 35.048H195.384ZM201.788 33.7388C201.617 33.4788 201.413 33.2427 201.18 33.0367L201.395 32.7936C201.65 33.0188 201.873 33.2768 202.06 33.5606L201.788 33.7388ZM196.17 33.3812L195.923 33.1706C196.144 32.9121 196.398 32.6839 196.679 32.4919L196.862 32.761C196.605 32.9367 196.372 33.1457 196.17 33.3825V33.3812ZM200.41 32.5166C200.132 32.378 199.836 32.277 199.531 32.2163L199.593 31.8978C199.927 31.9637 200.25 32.0739 200.554 32.2254L200.41 32.5166ZM197.691 32.3437L197.586 32.0369C197.907 31.9252 198.241 31.857 198.579 31.834L198.603 32.1578C198.292 32.1802 197.986 32.2431 197.691 32.345V32.3437Z" fill="#9192FF"/>
<path d="M183.489 55.3341L183.233 55.1315C182.854 54.8316 182.304 54.8955 182.004 55.2744L171.895 68.0426C171.595 68.4215 171.659 68.9718 172.038 69.2718L172.293 69.4743C172.672 69.7743 173.223 69.7104 173.523 69.3315L183.632 56.5633C183.932 56.1844 183.868 55.6341 183.489 55.3341Z" fill="#1B1B43"/>
<path d="M60.6605 103.75C59.7197 100.489 57.7283 97.6305 54.9958 95.6178L53.8984 94.8091L54.8306 114.088L62.0334 108.517L60.6605 103.75Z" fill="black"/>
<path d="M83.8064 127.046L82.2059 123.913C82.0057 123.52 81.7259 123.173 81.3843 122.895C81.0428 122.616 80.6469 122.411 80.2219 122.294L75.5141 120.994L63.4019 113.261L62.0329 108.514L54.8301 114.088L54.8951 115.441C54.9591 116.772 55.3951 118.058 56.1535 119.153C56.912 120.249 57.9624 121.109 59.1856 121.638L70.9467 126.708L76.5373 126.838C78.3393 127.458 78.9608 129.012 80.0776 128.453C80.4949 128.245 78.8672 125.564 78.8672 125.564L81.5754 128.536L83.8064 127.046Z" fill="#FFBC96"/>
<path d="M63.2589 113.15L61.6758 115.014L61.9602 115.256L63.5433 113.392L63.2589 113.15Z" fill="#D28572"/>
<path d="M62.7402 134.852L71.5526 134.072C77.2889 133.566 82.2788 138.198 82.5583 144.289L84.5489 187.689L72.3938 188.066L62.7402 134.852Z" fill="#26289C"/>
<path d="M73.373 187.64L73.7462 199.627H91.7584L82.8758 192.236L82.3167 186.459L73.373 187.64Z" fill="#1B1B43"/>
<path d="M82.6447 191.946L78.8555 194.865L79.3101 195.455L83.0993 192.536L82.6447 191.946Z" fill="white"/>
<path d="M69.2734 187.64L69.6453 199.627H87.6588L78.7762 192.236L78.2171 186.459L69.2734 187.64Z" fill="#D1D1FF"/>
<path d="M78.547 191.946L74.7578 194.865L75.2125 195.456L79.0017 192.537L78.547 191.946Z" fill="white"/>
<path d="M82.6889 188.819H67.7814L57.1566 156.127L55.6692 151.55L34.4262 151.457C33.1143 151.438 31.8584 150.831 30.7858 149.933C28.53 148.028 27.4899 145.031 27.9033 142.11L29.7678 128.816L61.3262 132.919C64.2458 133.298 66.9749 134.577 69.1343 136.578C71.2937 138.58 72.7762 141.204 73.3759 144.086L82.6889 188.819Z" fill="#3335CF"/>
<path d="M60.0488 151.55L57.1573 156.128L55.6699 151.55H60.0488Z" fill="#1B1B43"/>
<path d="M56.1463 126.409C55.9929 127.024 55.833 127.639 55.6692 128.258L54.551 132.823L39.8295 132.212L29.2307 131.77C28.57 131.743 27.9231 131.573 27.3349 131.271C26.7467 130.969 26.2314 130.542 25.8249 130.021C25.4184 129.499 25.1304 128.895 24.981 128.251C24.8316 127.607 24.8243 126.938 24.9597 126.291L29.9003 102.51C30.2104 100.543 31.1621 98.7335 32.6073 97.3635C34.0525 95.9936 35.9102 95.1398 37.891 94.9353L49.9823 93.691L53.8945 94.8092C57.7143 96.8582 57.7182 100.574 57.9015 103.008C58.7063 113.659 57.7182 120.11 56.1463 126.409Z" fill="black"/>
<path opacity="0.3" d="M46.166 125.649C46.0139 126.264 55.8339 127.639 55.6701 128.258L54.552 132.823L39.8304 132.212C34.6883 128.332 32.7615 119.89 30.8867 109.314L46.166 125.649Z" fill="#1B1B43"/>
<path d="M43.2394 100.566C43.8753 101.261 44.6179 101.849 45.4393 102.31C46.2505 102.771 47.143 103.073 48.0682 103.198C48.9783 103.316 49.9417 103.239 50.7425 102.808C51.5616 102.401 52.0817 101.541 52.1727 100.612L52.3183 100.621C52.3141 101.117 52.1868 101.604 51.9478 102.039C51.6978 102.478 51.3346 102.842 50.896 103.092C50.021 103.598 48.9808 103.69 48.0148 103.567C47.0442 103.431 46.1119 103.097 45.2754 102.587C44.4433 102.086 43.7126 101.434 43.1211 100.664L43.2394 100.566Z" fill="#1B1B43"/>
<path d="M58.2308 115.099L57.9526 115.08C58.2204 111.33 57.9526 106.721 57.1465 101.383L57.4221 101.341C58.2282 106.7 58.4999 111.329 58.2308 115.099Z" fill="#1B1B43"/>
<path d="M83.2482 128.32H69.3965V131.053H83.2482V128.32Z" fill="#1B1B43"/>
<path d="M107.223 131.053H79.3965L92.1925 106.579H120.02L107.223 131.053Z" fill="#455A64"/>
<path d="M46.3051 74.1251C43.0443 70.9099 36.8946 72.2607 36.9883 77.6654C30.2795 79.4349 29.9064 86.7963 32.6081 90.5694L34.9379 90.7553L35.4502 88.0068L36.801 90.8021L43.3239 91.222L46.3051 74.1251Z" fill="#1B1B43"/>
<path d="M51.7569 86.1437V96.4148C51.7569 96.5084 51.7569 96.5981 51.7452 96.6878C51.7055 97.1887 51.5569 97.6748 51.3096 98.1122C51.0623 98.5496 50.7224 98.9276 50.3137 99.2198C49.9049 99.5119 49.4372 99.7112 48.9434 99.8037C48.4495 99.8961 47.9415 99.8795 47.4547 99.7549C45.957 99.3686 44.6315 98.4924 43.6892 97.2659C42.7468 96.0394 42.2417 94.533 42.2541 92.9863L42.3061 86.1476L51.7569 86.1437Z" fill="#FFBC96"/>
<path d="M51.7569 90.5824V96.4057C51.7569 96.4993 51.7569 96.589 51.7452 96.6788C48.9993 96.2328 45.8231 93.054 45.043 89.5917L51.7569 90.5824Z" fill="#1B1B43"/>
<path d="M57.3133 86.9042C57.1741 87.7313 56.9786 88.548 56.7283 89.3485C55.9079 91.9488 54.4361 94.1148 51.8007 93.7391C45.6068 92.8524 42.1602 86.4713 42.1602 86.4713L46.3973 81.627L49.2407 77.8032L57.7645 81.4852C57.7676 83.3011 57.6167 85.1139 57.3133 86.9042Z" fill="#FFBC96"/>
<path d="M43.9909 84.8345C46.7095 84.7474 48.8118 83.3627 49.7115 79.4298C49.7115 79.4298 56.0471 84.8904 59.1519 81.9768C61.7521 79.5325 57.3407 73.9081 50.0378 73.2372C47.3709 73.0056 44.7179 73.8164 42.6361 75.4994C39.0958 78.3364 38.7578 84.932 42.0653 87.215L43.9909 84.8345Z" fill="#1B1B43"/>
<path d="M40.8092 77.9437C40.6311 77.3014 40.7637 76.5889 41.0511 75.9766C41.3473 75.3607 41.7842 74.8232 42.3265 74.4073C42.8607 73.9883 43.4831 73.6962 44.1467 73.5531C44.8029 73.4012 45.4898 73.4539 46.1151 73.7039C45.5337 73.8835 44.9683 74.1113 44.4249 74.3852C43.9209 74.6433 43.4421 74.948 42.9948 75.2953C42.5504 75.6371 42.1418 76.023 41.7752 76.4472C41.3892 76.9017 41.0644 77.4048 40.8092 77.9437Z" fill="#FFA121"/>
<path d="M44.1351 87.6449C45.2217 87.2098 45.6763 85.7926 45.1505 84.4794C44.6247 83.1662 43.3176 82.4543 42.2311 82.8893C41.1445 83.3243 40.6899 84.7416 41.2157 86.0548C41.7415 87.368 43.0485 88.0799 44.1351 87.6449Z" fill="#FFBC96"/>
<path d="M43.1773 86.6819C43.2409 86.2545 43.213 85.8184 43.0954 85.4026C42.9653 85.0125 42.7144 84.6615 42.4258 84.3053L42.5168 84.1921C42.7371 84.3042 42.9328 84.459 43.0927 84.6475C43.2525 84.8359 43.3732 85.0544 43.4477 85.29C43.5223 85.5256 43.5492 85.7737 43.5269 86.0198C43.5045 86.266 43.4334 86.5052 43.3177 86.7235L43.1773 86.6819Z" fill="#1B1B43"/>
<path d="M53.3627 85.3077C53.3504 85.4296 53.303 85.5454 53.2262 85.6408C53.1494 85.7363 53.0465 85.8075 52.9301 85.8457C52.8136 85.8838 52.6886 85.8874 52.5702 85.8559C52.4517 85.8245 52.345 85.7593 52.2628 85.6684C52.1807 85.5774 52.1268 85.4646 52.1075 85.3436C52.0882 85.2225 52.1045 85.0985 52.1543 84.9866C52.2041 84.8746 52.2854 84.7795 52.3882 84.7128C52.491 84.6461 52.6109 84.6107 52.7335 84.6108C52.9092 84.6203 53.074 84.6988 53.1919 84.8294C53.3098 84.96 53.3712 85.132 53.3627 85.3077Z" fill="#1B1B43"/>
<path d="M56.6607 85.8563C56.6364 85.9625 56.5819 86.0594 56.5038 86.1353C56.4256 86.2111 56.3271 86.2626 56.2202 86.2836C56.1133 86.3046 56.0026 86.2941 55.9016 86.2534C55.8006 86.2128 55.7135 86.1437 55.6509 86.0545C55.5884 85.9653 55.553 85.8599 55.5492 85.7511C55.5453 85.6422 55.5731 85.5346 55.6292 85.4412C55.6853 85.3479 55.7673 85.2728 55.8652 85.2251C55.9632 85.1774 56.0728 85.1591 56.1809 85.1725C56.3349 85.2001 56.4718 85.2875 56.5617 85.4156C56.6516 85.5437 56.6871 85.7021 56.6607 85.8563Z" fill="#1B1B43"/>
<path d="M53.3256 83.559C53.3503 83.884 52.8302 83.9152 52.0619 83.9386C51.2935 83.962 50.7617 84.1986 50.7617 83.9919C50.7617 83.7852 51.3234 83.2573 52.0801 83.1299C52.8576 82.9973 53.2944 83.1715 53.3256 83.559Z" fill="#1B1B43"/>
<path d="M55.7771 83.8724C55.7199 84.1935 56.1035 84.2754 56.6703 84.3755C57.2372 84.4756 57.6038 84.7656 57.6324 84.5588C57.661 84.3521 57.3009 83.7788 56.7535 83.5707C56.2062 83.3627 55.8434 83.4901 55.7771 83.8724Z" fill="#1B1B43"/>
<path d="M54.8631 86.4349C55.0104 86.6081 55.1685 86.7718 55.3363 86.9251L55.5873 87.1591C55.6874 87.2452 55.775 87.345 55.8473 87.4555C55.8944 87.5302 55.9217 87.6157 55.9266 87.7039C55.9308 87.7946 55.9097 87.8846 55.8655 87.9639C55.7903 88.0872 55.6875 88.1914 55.5652 88.2681C55.3513 88.3973 55.114 88.4831 54.867 88.5204L54.8137 88.3904C55.0065 88.2756 55.1919 88.1488 55.3688 88.0107C55.4394 87.9527 55.4981 87.8816 55.5418 87.8014C55.5717 87.7403 55.5626 87.7195 55.5288 87.6467C55.4455 87.5167 55.2349 87.3294 55.0958 87.1409C54.938 86.9523 54.8143 86.7376 54.7305 86.5064L54.8631 86.4349Z" fill="#1B1B43"/>
<path d="M51.7095 88.7349C52.0904 89.1704 52.4895 89.5722 52.9628 89.827C53.4493 90.0821 54.0037 90.1781 54.5477 90.1013L54.5867 90.2417C54.3041 90.3693 53.9953 90.4277 53.6857 90.4121C53.3702 90.3957 53.0627 90.3067 52.7873 90.152C52.2546 89.8448 51.8337 89.3757 51.5859 88.8129L51.7095 88.7349Z" fill="#1B1B43"/>
<path opacity="0.2" d="M49.4736 88.3344C50.3231 88.3344 51.0117 87.6458 51.0117 86.7964C51.0117 85.9469 50.3231 85.2583 49.4736 85.2583C48.6242 85.2583 47.9355 85.9469 47.9355 86.7964C47.9355 87.6458 48.6242 88.3344 49.4736 88.3344Z" fill="#FE5B52"/>
<path opacity="0.2" d="M57.3128 86.9043C57.1735 87.7314 56.978 88.548 56.7277 89.3486C56.5648 89.1637 56.4487 88.9424 56.3892 88.7033C56.3297 88.4642 56.3286 88.2143 56.386 87.9746C56.4433 87.735 56.5575 87.5126 56.7188 87.3264C56.8801 87.1401 57.0838 86.9953 57.3128 86.9043Z" fill="#FE5B52"/>
<path d="M39.7693 105.089L30.8867 109.312L33.6729 115.917L42.9859 111.621L39.7693 105.089Z" fill="black"/>
<path d="M72.67 127.991C72.4243 127.861 72.2695 127.785 72.2695 127.785L72.3579 127.609C72.3579 127.609 72.5231 127.689 72.761 127.816L72.67 127.991Z" fill="#C5C5FF"/>
<path d="M76.353 128.909C76.0657 129.476 73.8672 128.474 72.8427 127.971C73.6357 128.41 75.0035 129.271 74.3963 129.748C73.9088 130.125 72.827 129.323 69.2868 127.855C69.8237 128.108 72.9883 129.614 72.19 130.184C71.3215 130.802 67.5953 129.439 67.5953 129.439L64.3631 131.176H60.6434L47.2337 131.261C46.395 131.264 45.5595 131.159 44.7478 130.948C43.1447 130.529 41.6554 129.757 40.3884 128.69C39.5917 128.018 38.8951 127.236 38.3199 126.368C37.8857 125.713 37.5148 125.02 37.2122 124.295L33.6758 115.918L42.9822 111.617L47.8422 121.483L63.8677 124.963L68.3402 123.845C69.3024 123.603 70.6623 124.01 71.5087 124.528C73.5733 125.789 76.6209 128.368 76.353 128.909Z" fill="#FFBC96"/>
<path opacity="0.2" d="M44.9855 129.56C44.9862 130.032 44.9039 130.501 44.7424 130.945C43.1393 130.526 41.65 129.755 40.383 128.687C39.5862 128.016 38.8897 127.234 38.3145 126.365C38.917 125.88 39.6443 125.576 40.4125 125.487C41.1807 125.398 41.9584 125.528 42.6559 125.862C43.3534 126.196 43.9422 126.72 44.3544 127.374C44.7666 128.029 44.9854 128.786 44.9855 129.56Z" fill="#FE5B52"/>
<path d="M63.8457 124.896C64.9538 124.522 66.0825 124.212 67.2261 123.968C67.8021 123.842 68.3866 123.759 68.9748 123.719C69.2748 123.701 69.5758 123.709 69.8745 123.743C70.024 123.773 70.1735 123.812 70.323 123.847C70.4725 123.882 70.6039 123.955 70.7443 124.008C71.8351 124.502 72.7842 125.209 73.7034 125.936C74.6226 126.663 75.4885 127.455 76.331 128.276L76.37 128.314L76.3778 128.362C76.4128 128.535 76.3812 128.715 76.2894 128.867C76.2366 128.941 76.1671 129.002 76.0866 129.045C76.0159 129.089 75.9365 129.117 75.8538 129.127C75.5725 129.161 75.2872 129.133 75.0178 129.045C74.5173 128.888 74.0327 128.684 73.5708 128.436C73.1144 128.193 72.6607 127.94 72.229 127.665C71.7974 127.391 71.3644 127.109 70.9289 126.83L71.1265 126.515C71.8903 126.961 72.6283 127.45 73.3368 127.98C73.7036 128.248 74.039 128.556 74.3366 128.899C74.4167 128.998 74.482 129.109 74.5303 129.227C74.5597 129.299 74.5747 129.376 74.5745 129.454C74.572 129.549 74.5387 129.64 74.4796 129.714C74.3794 129.823 74.2467 129.897 74.1012 129.925C73.9832 129.951 73.8632 129.968 73.7424 129.976H73.706L73.6657 129.959L69.6209 128.268L69.7419 127.984C70.3822 128.27 71.0002 128.604 71.5907 128.982C71.8793 129.188 72.1822 129.372 72.3955 129.731C72.4258 129.785 72.4444 129.844 72.45 129.906C72.4556 129.967 72.4481 130.029 72.428 130.087C72.3817 130.197 72.2964 130.285 72.1887 130.334C72.0142 130.417 71.824 130.461 71.631 130.464C70.9068 130.481 70.2255 130.311 69.5507 130.145C68.876 129.978 68.2142 129.754 67.5602 129.519L67.6096 129.381C68.2597 129.601 68.928 129.794 69.5975 129.953C70.2671 130.113 70.9536 130.251 71.618 130.213C71.9352 130.2 72.3135 130.061 72.1588 129.852C72.0132 129.608 71.7129 129.4 71.4386 129.216C70.8564 128.855 70.2479 128.538 69.6184 128.267L69.7406 127.982L73.8009 129.641L73.7242 129.628C73.8222 129.622 73.9196 129.608 74.0154 129.587C74.0863 129.575 74.1525 129.543 74.2066 129.496C74.2625 129.472 74.1871 129.272 74.0596 129.123C73.7816 128.801 73.468 128.511 73.1248 128.259C72.426 127.741 71.698 127.264 70.9445 126.829L71.1408 126.515C71.5699 126.789 71.9859 127.085 72.4215 127.345C72.857 127.605 73.2926 127.865 73.7372 128.109C74.1762 128.347 74.6368 128.543 75.1128 128.695C75.3292 128.768 75.5587 128.795 75.7862 128.773L75.8577 128.761C75.877 128.753 75.8957 128.743 75.9136 128.733C75.9566 128.721 75.9696 128.686 75.9982 128.665C76.0369 128.593 76.0511 128.51 76.0385 128.43L76.0853 128.515C75.261 127.702 74.3951 126.921 73.498 126.184C72.6009 125.447 71.6648 124.746 70.6377 124.263L70.2476 124.105C70.1176 124.073 69.9798 124.035 69.8446 124.007C69.5635 123.972 69.2799 123.961 68.9969 123.974C68.4198 124.003 67.8454 124.072 67.2781 124.182C66.1359 124.399 65.0072 124.682 63.8977 125.03L63.8457 124.896Z" fill="#D28572"/>
<path d="M33.7283 116.044L33.6113 115.791L42.8008 111.551L38.9731 102.593L39.2306 102.484L43.1648 111.692L33.7283 116.044Z" fill="#1B1B43"/>
<path d="M35.0422 155.278H34.5547V197.267H35.0422V155.278Z" fill="#1B1B43"/>
<path d="M46.5388 151.364H23.0608C21.4653 151.364 20.1719 152.657 20.1719 154.252C20.1719 155.848 21.4653 157.141 23.0608 157.141H46.5388C48.1343 157.141 49.4277 155.848 49.4277 154.252C49.4277 152.657 48.1343 151.364 46.5388 151.364Z" fill="#455A64"/>
<path d="M29.2657 195.18H40.3325C41.4842 195.18 42.5887 195.638 43.4031 196.452C44.2175 197.267 44.675 198.371 44.675 199.523V200H24.9219V199.523C24.9219 198.953 25.0342 198.388 25.2526 197.861C25.4709 197.334 25.7908 196.855 26.1942 196.452C26.5976 196.049 27.0765 195.729 27.6035 195.511C28.1305 195.292 28.6953 195.18 29.2657 195.18Z" fill="#455A64"/>
<path d="M63.2073 133.609L62.7949 133.87L104.415 199.833L104.827 199.573L63.2073 133.609Z" fill="#1B1B43"/>
<path d="M104.416 133.617L62.7852 199.573L63.1974 199.833L104.829 133.877L104.416 133.617Z" fill="#1B1B43"/>
<path d="M120.268 131.053H47.3457V136.553H120.268V131.053Z" fill="#A6A6A6"/>
<path d="M53.4597 43.3742C50.4457 43.3731 47.4996 42.4784 44.9941 40.8032C42.4885 39.1279 40.5359 36.7474 39.3832 33.9625C38.2305 31.1776 37.9295 28.1134 38.5181 25.1574C39.1067 22.2015 40.5586 19.4864 42.6902 17.3555C44.8218 15.2246 47.5374 13.7736 50.4936 13.186C53.4498 12.5984 56.5138 12.9005 59.2983 14.0542C62.0828 15.2078 64.4627 17.1612 66.1371 19.6673C67.8115 22.1735 68.7052 25.1198 68.7052 28.1339C68.7007 32.1754 67.0929 36.05 64.2347 38.9073C61.3764 41.7646 57.5012 43.3711 53.4597 43.3742ZM53.4597 13.2199C50.5096 13.2196 47.6258 14.0942 45.1727 15.733C42.7197 17.3718 40.8078 19.7013 39.6788 22.4267C38.5497 25.1522 38.2542 28.1513 38.8297 31.0447C39.4051 33.9381 40.8257 36.5958 42.9117 38.6818C44.9977 40.7679 47.6555 42.1884 50.5489 42.7639C53.4423 43.3394 56.4414 43.0439 59.1668 41.9148C61.8923 40.7858 64.2217 38.8738 65.8605 36.4208C67.4994 33.9678 68.3739 31.0839 68.3737 28.1339C68.3692 24.1798 66.7965 20.389 64.0005 17.593C61.2046 14.7971 57.4138 13.2244 53.4597 13.2199Z" fill="black"/>
<path d="M63.7643 38.7443C72.9216 38.7443 80.3451 31.3209 80.3451 22.1636C80.3451 13.0063 72.9216 5.58282 63.7643 5.58282C54.607 5.58282 47.1836 13.0063 47.1836 22.1636C47.1836 31.3209 54.607 38.7443 63.7643 38.7443Z" fill="#FFF3EE"/>
<path d="M63.7714 22.4782L54.5781 15.2715L54.8798 14.8879L63.7597 21.8489L68.7107 17.6559L69.0253 18.0278L63.7714 22.4782Z" fill="#1B1B43"/>
<path d="M20.7364 57.9214H12.3167C11.666 57.9214 11.042 58.1799 10.5819 58.64C10.1218 59.1001 9.86328 59.7241 9.86328 60.3748V68.7945C9.86328 69.4452 10.1218 70.0692 10.5819 70.5293C11.042 70.9894 11.666 71.2479 12.3167 71.2479H18.3246L20.9145 74.8233V71.2388C21.5325 71.1944 22.1107 70.9176 22.5329 70.4641C22.955 70.0106 23.1897 69.4141 23.1898 68.7945V60.3748C23.1898 59.7241 22.9313 59.1001 22.4712 58.64C22.0111 58.1799 21.3871 57.9214 20.7364 57.9214Z" fill="white"/>
<path d="M21.0774 75.3252L18.2418 71.4104H12.3171C11.6235 71.4097 10.9585 71.1339 10.4681 70.6435C9.97768 70.1531 9.70186 69.4881 9.70117 68.7945V60.3748C9.70186 59.6812 9.97768 59.0163 10.4681 58.5258C10.9585 58.0354 11.6235 57.7596 12.3171 57.7589H20.7368C21.4303 57.7599 22.095 58.0359 22.5854 58.5262C23.0757 59.0166 23.3517 59.6813 23.3527 60.3748V68.7945C23.3502 69.4284 23.1184 70.0399 22.7002 70.5161C22.282 70.9924 21.7056 71.3013 21.0774 71.3857V75.3252ZM12.3171 58.0839C11.7096 58.0843 11.1271 58.3258 10.6976 58.7553C10.268 59.1848 10.0266 59.7673 10.0262 60.3748V68.7945C10.0266 69.402 10.268 69.9845 10.6976 70.414C11.1271 70.8436 11.7096 71.0851 12.3171 71.0854H18.4082L20.7485 74.3215V71.088L20.8993 71.0763C21.4755 71.0328 22.0141 70.7738 22.4078 70.3509C22.8015 69.928 23.0215 69.3723 23.0238 68.7945V60.3748C23.0231 59.7674 22.7815 59.1852 22.352 58.7557C21.9226 58.3262 21.3403 58.0846 20.7329 58.0839H12.3171Z" fill="#407BFF"/>
<path d="M16.3524 68.9181L12.9824 64.0504L13.7833 63.4952L16.264 67.0771L19.9993 60.3931L20.8509 60.8689L16.3524 68.9181Z" fill="#407BFF"/>
<path d="M206.318 199.512H6.55859V200H206.318V199.512Z" fill="#1B1B43"/>
</g>
<defs>
<clipPath id="clip0_1060_26046">
<rect width="211.192" height="200" fill="white"/>
</clipPath>
</defs>
</svg>
