<svg width="363" height="250" viewBox="0 0 363 250" fill="none" xmlns="http://www.w3.org/2000/svg">
<g clip-path="url(#clip0_1281_18631)">
<path d="M98.7564 59.457V52.3835C98.7564 52.0532 98.6252 51.7364 98.3916 51.5029C98.1581 51.2693 97.8413 51.1381 97.511 51.1381H95.6944C95.4356 51.139 95.1841 51.0526 94.9805 50.8927C94.777 50.7329 94.6333 50.509 94.5729 50.2573C93.9571 47.5585 92.8943 44.9816 91.4284 42.6334C91.2894 42.41 91.2288 42.1466 91.2562 41.885C91.2836 41.6233 91.3975 41.3782 91.5797 41.1884L92.8596 39.9086C92.9761 39.7934 93.0686 39.6563 93.1317 39.5051C93.1948 39.3539 93.2273 39.1917 93.2273 39.0279C93.2273 38.864 93.1948 38.7018 93.1317 38.5507C93.0686 38.3995 92.9761 38.2623 92.8596 38.1471L87.871 33.1586C87.7558 33.0421 87.6186 32.9496 87.4675 32.8864C87.3163 32.8233 87.1541 32.7908 86.9902 32.7908C86.8264 32.7908 86.6642 32.8233 86.513 32.8864C86.3618 32.9496 86.2247 33.0421 86.1095 33.1586L84.8297 34.4315C84.6418 34.617 84.3964 34.7331 84.1337 34.7606C83.8711 34.7881 83.607 34.7255 83.3847 34.5829C81.0351 33.1197 78.4587 32.0571 75.7608 31.4384C75.5091 31.3779 75.2852 31.2343 75.1254 31.0307C74.9655 30.8272 74.8791 30.5756 74.88 30.3168V28.4934C74.88 28.1631 74.7488 27.8463 74.5153 27.6127C74.2817 27.3792 73.9649 27.248 73.6346 27.248H66.5818C66.2508 27.248 65.9334 27.3789 65.6987 27.6123C65.4641 27.8457 65.3313 28.1624 65.3295 28.4934V30.303C65.332 30.5612 65.247 30.8127 65.0883 31.0164C64.9296 31.22 64.7066 31.3639 64.4556 31.4246C61.7546 32.0403 59.1755 33.1031 56.8248 34.5691C56.6026 34.7117 56.3384 34.7744 56.0758 34.7469C55.8132 34.7194 55.5677 34.6033 55.3799 34.4177L54.1138 33.1586C53.879 32.9245 53.5611 32.7931 53.2296 32.7931C52.8981 32.7931 52.5802 32.9245 52.3454 33.1586L47.3568 38.1265C47.2403 38.2417 47.1478 38.3788 47.0847 38.53C47.0216 38.6812 46.9891 38.8434 46.9891 39.0072C46.9891 39.1711 47.0216 39.3333 47.0847 39.4845C47.1478 39.6356 47.2403 39.7728 47.3568 39.888L48.6298 41.1678C48.8148 41.3546 48.9306 41.5988 48.9581 41.8603C48.9856 42.1217 48.9232 42.3847 48.7812 42.6059C47.3191 44.9586 46.2566 47.537 45.6366 50.2367C45.5773 50.489 45.434 50.7136 45.2302 50.8736C45.0264 51.0336 44.7742 51.1196 44.5151 51.1174H42.7054C42.3745 51.1174 42.057 51.2484 41.8223 51.4818C41.5877 51.7152 41.4549 52.0319 41.4531 52.3629V59.457C41.4549 59.7885 41.5874 60.106 41.8219 60.3405C42.0564 60.5749 42.3739 60.7075 42.7054 60.7093H44.522C44.7793 60.707 45.0298 60.7923 45.2323 60.9511C45.4348 61.1098 45.5774 61.3327 45.6366 61.5831C46.2585 64.28 47.321 66.8559 48.7812 69.2071C48.9237 69.4293 48.9864 69.6935 48.9589 69.9561C48.9314 70.2187 48.8153 70.4641 48.6298 70.652L47.3568 71.9319C47.1228 72.1666 46.9914 72.4846 46.9914 72.816C46.9914 73.1475 47.1228 73.4655 47.3568 73.7002L52.3385 78.6819C52.5733 78.916 52.8912 79.0474 53.2227 79.0474C53.5542 79.0474 53.8722 78.916 54.1069 78.6819L55.3867 77.409C55.5751 77.2246 55.8198 77.1087 56.0819 77.08C56.3439 77.0513 56.6079 77.1114 56.8317 77.2507C59.1763 78.7045 61.7455 79.7601 64.435 80.3746C64.6869 80.4293 64.9128 80.5681 65.0753 80.7682C65.2379 80.9683 65.3275 81.2177 65.3295 81.4755V83.2921C65.3313 83.623 65.4641 83.9398 65.6987 84.1731C65.9334 84.4065 66.2508 84.5375 66.5818 84.5375H73.6346C73.9649 84.5375 74.2817 84.4063 74.5153 84.1727C74.7488 83.9391 74.88 83.6224 74.88 83.2921V81.4755C74.8778 81.2164 74.9638 80.9642 75.1239 80.7604C75.2839 80.5566 75.5085 80.4133 75.7608 80.3539C78.4587 79.7352 81.0351 78.6726 83.3847 77.2094C83.6077 77.0693 83.8714 77.008 84.1333 77.0355C84.3953 77.0629 84.6405 77.1775 84.8297 77.3608L86.1095 78.6406C86.2247 78.7571 86.3618 78.8496 86.513 78.9128C86.6642 78.9759 86.8264 79.0084 86.9902 79.0084C87.1541 79.0084 87.3163 78.9759 87.4675 78.9128C87.6186 78.8496 87.7558 78.7571 87.871 78.6406L92.8596 73.6589C93.0936 73.4242 93.225 73.1062 93.225 72.7747C93.225 72.4433 93.0936 72.1253 92.8596 71.8906L91.5797 70.6107C91.3942 70.4229 91.2781 70.1774 91.2506 69.9148C91.2231 69.6522 91.2858 69.388 91.4284 69.1658C92.8915 66.8161 93.9541 64.2398 94.5729 61.5418C94.6324 61.2903 94.776 61.0665 94.9799 60.9076C95.1839 60.7487 95.4359 60.6642 95.6944 60.668H97.511C97.8349 60.6664 98.1456 60.5393 98.3778 60.3135C98.61 60.0877 98.7457 59.7807 98.7564 59.457ZM70.1048 75.8195C66.1715 75.8222 62.3257 74.6585 59.0539 72.4754C55.7821 70.2923 53.2312 67.1879 51.7238 63.555C50.2164 59.922 49.8202 55.9236 50.5854 52.0655C51.3506 48.2074 53.2427 44.6628 56.0225 41.8801C58.8023 39.0974 62.3449 37.2016 66.2023 36.4324C70.0596 35.6633 74.0584 36.0553 77.6929 37.5589C81.3274 39.0625 84.4344 41.6102 86.6209 44.8798C88.8074 48.1493 89.9751 51.9938 89.9765 55.9271C89.9747 61.1969 87.8805 66.2503 84.1542 69.9765C80.4279 73.7028 75.3745 75.797 70.1048 75.7989V75.8195Z" stroke="#E0E0E0" stroke-width="0.789569" stroke-miterlimit="10"/>
<path d="M131.179 83.3127V78.4961C131.179 78.2717 131.09 78.0564 130.931 77.8977C130.773 77.739 130.557 77.6498 130.333 77.6498H129.115C128.938 77.6511 128.765 77.5917 128.627 77.4816C128.488 77.3714 128.391 77.2172 128.351 77.0443C127.931 75.206 127.208 73.4504 126.211 71.8493C126.114 71.698 126.071 71.518 126.09 71.3392C126.109 71.1603 126.188 70.9932 126.315 70.8653L127.182 69.9984C127.261 69.9196 127.324 69.8259 127.368 69.7225C127.411 69.6192 127.433 69.5083 127.433 69.3963C127.433 69.2843 127.411 69.1734 127.368 69.07C127.324 68.9667 127.261 68.8729 127.182 68.7942L123.782 65.3951C123.623 65.2359 123.406 65.1464 123.18 65.1464C122.955 65.1464 122.738 65.2359 122.578 65.3951L121.711 66.2621C121.583 66.3885 121.416 66.4677 121.237 66.4864C121.059 66.5052 120.879 66.4625 120.727 66.3653C119.127 65.3678 117.371 64.6445 115.532 64.2254C115.361 64.1848 115.208 64.0871 115.099 63.9483C114.991 63.8096 114.932 63.6379 114.934 63.4616V62.2093C114.934 61.983 114.844 61.766 114.684 61.606C114.524 61.446 114.307 61.3561 114.081 61.3561H109.264C109.152 61.3561 109.042 61.3782 108.938 61.4211C108.835 61.4641 108.742 61.5271 108.663 61.6064C108.584 61.6857 108.522 61.7798 108.48 61.8833C108.438 61.9868 108.417 62.0976 108.418 62.2093V63.4409C108.418 63.617 108.359 63.788 108.251 63.9265C108.142 64.065 107.99 64.163 107.819 64.2047C105.978 64.6239 104.22 65.3471 102.617 66.3446C102.466 66.4418 102.286 66.4845 102.107 66.4658C101.928 66.447 101.761 66.3679 101.633 66.2414L100.766 65.3745C100.606 65.2152 100.39 65.1258 100.164 65.1258C99.9384 65.1258 99.7219 65.2152 99.562 65.3745L96.1629 68.7736C96.0037 68.9335 95.9143 69.15 95.9143 69.3756C95.9143 69.6013 96.0037 69.8178 96.1629 69.9777L97.0368 70.8447C97.1621 70.9732 97.2405 71.1402 97.2592 71.3187C97.278 71.4973 97.236 71.6769 97.14 71.8286C96.1444 73.4309 95.4191 75.186 94.9932 77.0236C94.954 77.1965 94.8569 77.3508 94.718 77.4609C94.5791 77.5711 94.4067 77.6304 94.2294 77.6292H92.9978C92.886 77.6282 92.7752 77.6495 92.6718 77.6916C92.5683 77.7337 92.4742 77.7959 92.3949 77.8746C92.3155 77.9533 92.2526 78.0469 92.2096 78.15C92.1666 78.2531 92.1445 78.3638 92.1445 78.4755V83.2921C92.1445 83.4038 92.1666 83.5144 92.2096 83.6175C92.2526 83.7207 92.3155 83.8143 92.3949 83.8929C92.4742 83.9716 92.5683 84.0338 92.6718 84.0759C92.7752 84.1181 92.886 84.1393 92.9978 84.1384H94.2294C94.4067 84.1371 94.5791 84.1965 94.718 84.3066C94.8569 84.4167 94.954 84.571 94.9932 84.7439C95.4191 86.5816 96.1444 88.3367 97.14 89.9389C97.236 90.0906 97.278 90.2703 97.2592 90.4488C97.2405 90.6273 97.1621 90.7943 97.0368 90.9229L96.1629 91.7967C96.0037 91.9566 95.9143 92.1731 95.9143 92.3988C95.9143 92.6245 96.0037 92.841 96.1629 93.0009L99.562 96.4C99.7219 96.5592 99.9384 96.6486 100.164 96.6486C100.39 96.6486 100.606 96.5592 100.766 96.4L101.64 95.5261C101.769 95.4008 101.936 95.3224 102.114 95.3037C102.293 95.2849 102.472 95.3269 102.624 95.4229C104.224 96.4216 105.98 97.1449 107.819 97.5628C107.99 97.6045 108.142 97.7025 108.251 97.841C108.359 97.9796 108.418 98.1506 108.418 98.3266V99.5651C108.417 99.6769 108.438 99.7877 108.48 99.8911C108.522 99.9946 108.584 100.089 108.663 100.168C108.742 100.247 108.835 100.31 108.938 100.353C109.042 100.396 109.152 100.418 109.264 100.418H114.081C114.307 100.418 114.524 100.328 114.684 100.168C114.844 100.008 114.934 99.7914 114.934 99.5651V98.3266C114.932 98.1503 114.991 97.9786 115.099 97.8399C115.208 97.7011 115.361 97.6034 115.532 97.5628C117.371 97.1437 119.127 96.4204 120.727 95.4229C120.879 95.3269 121.059 95.2849 121.237 95.3037C121.416 95.3224 121.583 95.4008 121.711 95.5261L122.578 96.4C122.738 96.5592 122.955 96.6486 123.18 96.6486C123.406 96.6486 123.623 96.5592 123.782 96.4L127.182 93.0009C127.261 92.9221 127.324 92.8284 127.368 92.725C127.411 92.6217 127.433 92.5108 127.433 92.3988C127.433 92.2868 127.411 92.1759 127.368 92.0725C127.324 91.9692 127.261 91.8754 127.182 91.7967L126.315 90.9297C126.187 90.8025 126.107 90.6353 126.088 90.4561C126.069 90.2769 126.113 90.0967 126.211 89.9458C127.208 88.3447 127.931 86.5891 128.351 84.7508C128.391 84.5779 128.488 84.4236 128.627 84.3135C128.765 84.2034 128.938 84.144 129.115 84.1453H130.354C130.572 84.14 130.78 84.0503 130.934 83.8951C131.088 83.7399 131.176 83.5312 131.179 83.3127ZM111.658 93.6958C109.13 93.6972 106.658 92.9487 104.555 91.5451C102.451 90.1414 100.812 88.1456 99.8429 85.8101C98.874 83.4745 98.6194 80.9041 99.1114 78.4239C99.6033 75.9437 100.82 73.665 102.607 71.8761C104.394 70.0872 106.671 68.8684 109.151 68.3738C111.63 67.8791 114.201 68.1309 116.538 69.0973C118.874 70.0637 120.872 71.7012 122.278 73.8029C123.684 75.9045 124.435 78.3759 124.436 80.9044C124.438 84.2927 123.095 87.5431 120.701 89.9416C118.308 92.34 115.061 93.6903 111.672 93.6958H111.658Z" fill="#E0E0E0"/>
<path d="M42.3811 190.488H38.4522C38.2014 190.488 37.998 190.691 37.998 190.942V194.871C37.998 195.122 38.2014 195.325 38.4522 195.325H42.3811C42.6319 195.325 42.8352 195.122 42.8352 194.871V190.942C42.8352 190.691 42.6319 190.488 42.3811 190.488Z" fill="#E0E0E0"/>
<path d="M48.8499 190.488H44.9209C44.6701 190.488 44.4668 190.691 44.4668 190.942V194.871C44.4668 195.122 44.6701 195.325 44.9209 195.325H48.8499C49.1007 195.325 49.304 195.122 49.304 194.871V190.942C49.304 190.691 49.1007 190.488 48.8499 190.488Z" fill="#E0E0E0"/>
<path d="M55.3167 190.488H51.3877C51.1369 190.488 50.9336 190.691 50.9336 190.942V194.871C50.9336 195.122 51.1369 195.325 51.3877 195.325H55.3167C55.5675 195.325 55.7708 195.122 55.7708 194.871V190.942C55.7708 190.691 55.5675 190.488 55.3167 190.488Z" fill="#E0E0E0"/>
<path d="M217.635 0.268356H124.538C116.425 0.268356 109.848 6.84552 109.848 14.9589V222.181C109.848 230.294 116.425 236.871 124.538 236.871H217.635C225.749 236.871 232.326 230.294 232.326 222.181V14.9589C232.326 6.84552 225.749 0.268356 217.635 0.268356Z" fill="#FF6C37"/>
<path d="M217.16 2.34636H125.006C117.899 2.34636 112.139 8.10715 112.139 15.2135V220.647C112.139 227.753 117.899 233.514 125.006 233.514H217.16C224.267 233.514 230.027 227.753 230.027 220.647V15.2135C230.027 8.10715 224.267 2.34636 217.16 2.34636Z" fill="white"/>
<path d="M224.873 14.8075V220.007C224.874 221.152 224.649 222.286 224.211 223.344C223.774 224.402 223.132 225.363 222.322 226.173C221.512 226.983 220.551 227.625 219.493 228.063C218.434 228.501 217.3 228.726 216.155 228.725H126.017C124.872 228.726 123.739 228.501 122.681 228.063C121.623 227.626 120.662 226.985 119.853 226.176C119.043 225.367 118.401 224.406 117.963 223.349C117.524 222.291 117.299 221.158 117.299 220.014V14.8075C117.299 13.6629 117.524 12.5296 117.963 11.4723C118.401 10.415 119.043 9.45435 119.853 8.64537C120.662 7.83638 121.623 7.19487 122.681 6.7575C123.739 6.32013 124.872 6.09548 126.017 6.09638H141.044C141.454 6.09545 141.856 6.20896 142.205 6.42413C142.554 6.63929 142.836 6.94758 143.019 7.31428L144.616 10.5001C144.972 11.219 145.522 11.8237 146.204 12.2457C146.887 12.6677 147.674 12.8901 148.476 12.8877H193.696C194.499 12.8901 195.285 12.6677 195.968 12.2457C196.65 11.8237 197.2 11.219 197.556 10.5001L199.153 7.31428C199.336 6.94758 199.618 6.63929 199.967 6.42413C200.316 6.20896 200.718 6.09545 201.128 6.09638H216.155C217.3 6.09548 218.433 6.32013 219.491 6.7575C220.549 7.19487 221.51 7.83638 222.319 8.64537C223.129 9.45435 223.771 10.415 224.209 11.4723C224.648 12.5296 224.873 13.6629 224.873 14.8075Z" fill="#FFF3EE"/>
<path d="M190.064 9.16523H153.644C153.237 9.16523 152.847 9.00357 152.559 8.71581C152.271 8.42805 152.109 8.03776 152.109 7.63081C152.109 7.22386 152.271 6.83357 152.559 6.54581C152.847 6.25805 153.237 6.09639 153.644 6.09639H190.064C190.265 6.09639 190.465 6.13608 190.651 6.21319C190.837 6.29031 191.006 6.40333 191.149 6.54581C191.291 6.68829 191.404 6.85745 191.481 7.04361C191.559 7.22978 191.598 7.42931 191.598 7.63081C191.598 7.83231 191.559 8.03184 191.481 8.21801C191.404 8.40417 191.291 8.57333 191.149 8.71581C191.006 8.85829 190.837 8.97131 190.651 9.04843C190.465 9.12554 190.265 9.16523 190.064 9.16523Z" fill="#E0E0E0"/>
<path d="M210.561 181.447H129.512C126.328 181.447 123.746 184.028 123.746 187.213V215.83C123.746 219.015 126.328 221.596 129.512 221.596H210.561C213.746 221.596 216.327 219.015 216.327 215.83V187.213C216.327 184.028 213.746 181.447 210.561 181.447Z" stroke="#698BD1" stroke-linecap="round" stroke-linejoin="round" stroke-dasharray="2.84 2.84"/>
<path d="M206.453 94.8793H166.242C163.947 94.8793 162.086 96.74 162.086 99.0353V118.914C162.086 121.209 163.947 123.07 166.242 123.07H206.453C208.749 123.07 210.609 121.209 210.609 118.914V99.0353C210.609 96.74 208.749 94.8793 206.453 94.8793Z" stroke="#407BFF" stroke-linecap="round" stroke-linejoin="round" stroke-dasharray="2.84 2.84"/>
<path d="M215.103 129.834H132.065C129.329 129.834 127.111 132.052 127.111 134.788V169.811C127.111 172.547 129.329 174.765 132.065 174.765H215.103C217.839 174.765 220.057 172.547 220.057 169.811V134.788C220.057 132.052 217.839 129.834 215.103 129.834Z" fill="#FFBCA4"/>
<path d="M216.329 131.148V166.192C216.329 166.841 216.201 167.484 215.952 168.084C215.704 168.684 215.339 169.229 214.88 169.688C214.42 170.147 213.875 170.51 213.275 170.758C212.674 171.006 212.031 171.133 211.382 171.132H128.695C128.046 171.133 127.403 171.006 126.803 170.758C126.202 170.51 125.657 170.147 125.197 169.688C124.738 169.229 124.373 168.684 124.125 168.084C123.876 167.484 123.748 166.841 123.748 166.192V131.148C123.748 129.836 124.269 128.578 125.197 127.65C126.125 126.722 127.383 126.201 128.695 126.201H211.382C212.694 126.201 213.952 126.722 214.88 127.65C215.808 128.578 216.329 129.836 216.329 131.148Z" fill="white"/>
<path d="M155.722 136.426H131.364C129.517 136.426 128.02 137.923 128.02 139.77V164.128C128.02 165.975 129.517 167.472 131.364 167.472H155.722C157.569 167.472 159.066 165.975 159.066 164.128V139.77C159.066 137.923 157.569 136.426 155.722 136.426Z" fill="#FF8F60"/>
<path d="M184.6 140.361H163.146C162.865 140.361 162.595 140.25 162.396 140.051C162.198 139.852 162.086 139.583 162.086 139.302C162.088 139.022 162.2 138.754 162.399 138.557C162.597 138.36 162.866 138.249 163.146 138.249H184.6C184.879 138.249 185.147 138.36 185.344 138.557C185.542 138.755 185.653 139.023 185.653 139.302C185.654 139.441 185.627 139.578 185.575 139.707C185.522 139.835 185.445 139.952 185.347 140.051C185.249 140.149 185.133 140.227 185.004 140.281C184.876 140.334 184.739 140.361 184.6 140.361Z" fill="#FF6C37"/>
<path d="M174.823 144.579H163.126C162.845 144.579 162.575 144.468 162.377 144.269C162.178 144.07 162.066 143.801 162.066 143.52C162.066 143.381 162.094 143.243 162.147 143.115C162.201 142.987 162.279 142.871 162.377 142.773C162.476 142.675 162.593 142.598 162.721 142.545C162.85 142.493 162.987 142.466 163.126 142.467H174.823C174.962 142.466 175.1 142.493 175.228 142.545C175.357 142.598 175.474 142.675 175.572 142.773C175.671 142.871 175.749 142.987 175.802 143.115C175.856 143.243 175.883 143.381 175.883 143.52C175.883 143.801 175.771 144.07 175.573 144.269C175.374 144.468 175.104 144.579 174.823 144.579Z" fill="#FF6C37"/>
<path d="M210.721 144.579H179.124C178.843 144.579 178.574 144.468 178.375 144.269C178.176 144.07 178.064 143.801 178.064 143.52C178.064 143.381 178.092 143.243 178.145 143.115C178.199 142.987 178.277 142.871 178.375 142.773C178.474 142.675 178.591 142.598 178.719 142.545C178.848 142.493 178.985 142.466 179.124 142.467H210.721C210.859 142.466 210.997 142.493 211.125 142.545C211.253 142.598 211.369 142.675 211.467 142.773C211.565 142.871 211.643 142.988 211.695 143.116C211.748 143.244 211.774 143.381 211.773 143.52C211.774 143.659 211.748 143.796 211.695 143.925C211.643 144.053 211.565 144.17 211.468 144.269C211.37 144.367 211.253 144.445 211.125 144.499C210.997 144.552 210.86 144.579 210.721 144.579Z" fill="#FF6C37"/>
<path d="M181.215 148.797H163.146C162.865 148.797 162.595 148.686 162.396 148.487C162.198 148.288 162.086 148.019 162.086 147.738C162.086 147.599 162.113 147.461 162.167 147.333C162.22 147.205 162.298 147.089 162.397 146.991C162.495 146.893 162.612 146.815 162.741 146.763C162.869 146.71 163.007 146.684 163.146 146.685H181.215C181.494 146.685 181.762 146.796 181.959 146.993C182.156 147.191 182.267 147.458 182.267 147.738C182.267 148.017 182.157 148.286 181.959 148.484C181.762 148.683 181.494 148.795 181.215 148.797Z" fill="#FF6C37"/>
<path d="M196.546 148.797H185.192C184.916 148.79 184.654 148.675 184.461 148.477C184.268 148.279 184.16 148.014 184.16 147.738C184.16 147.599 184.188 147.461 184.241 147.333C184.294 147.205 184.372 147.089 184.471 146.991C184.569 146.893 184.686 146.815 184.815 146.763C184.943 146.71 185.081 146.684 185.22 146.685H196.546C196.684 146.684 196.822 146.71 196.951 146.763C197.079 146.815 197.196 146.893 197.294 146.991C197.393 147.089 197.471 147.205 197.524 147.333C197.578 147.461 197.605 147.599 197.605 147.738C197.605 148.019 197.494 148.288 197.295 148.487C197.096 148.686 196.827 148.797 196.546 148.797Z" fill="#FF6C37"/>
<path d="M210.72 148.797H200.261C199.98 148.797 199.71 148.686 199.512 148.487C199.313 148.288 199.201 148.019 199.201 147.738C199.201 147.599 199.229 147.461 199.282 147.333C199.335 147.205 199.413 147.089 199.512 146.991C199.61 146.893 199.727 146.815 199.856 146.763C199.984 146.71 200.122 146.684 200.261 146.685H210.72C210.858 146.684 210.995 146.711 211.124 146.763C211.252 146.816 211.368 146.893 211.466 146.991C211.564 147.089 211.642 147.206 211.694 147.334C211.747 147.462 211.773 147.599 211.772 147.738C211.773 147.876 211.747 148.014 211.694 148.143C211.642 148.271 211.564 148.388 211.466 148.486C211.369 148.585 211.252 148.663 211.124 148.716C210.996 148.77 210.858 148.797 210.72 148.797Z" fill="#FF6C37"/>
<path d="M210.719 153.036H163.146C162.865 153.036 162.595 152.924 162.396 152.725C162.198 152.527 162.086 152.257 162.086 151.976C162.086 151.837 162.113 151.7 162.167 151.572C162.22 151.444 162.298 151.327 162.397 151.229C162.495 151.131 162.612 151.054 162.741 151.002C162.869 150.949 163.007 150.923 163.146 150.923H210.719C210.858 150.922 210.995 150.949 211.123 151.002C211.251 151.054 211.368 151.132 211.466 151.23C211.564 151.328 211.641 151.444 211.694 151.572C211.746 151.7 211.773 151.838 211.772 151.976C211.773 152.115 211.747 152.253 211.694 152.381C211.642 152.51 211.564 152.627 211.466 152.725C211.368 152.824 211.252 152.902 211.124 152.955C210.996 153.008 210.858 153.036 210.719 153.036Z" fill="#FF6C37"/>
<path d="M189.327 157.233H163.146C162.865 157.233 162.595 157.121 162.396 156.923C162.198 156.724 162.086 156.454 162.086 156.173C162.086 155.892 162.198 155.623 162.396 155.424C162.595 155.225 162.865 155.114 163.146 155.114H189.327C189.608 155.114 189.878 155.225 190.076 155.424C190.275 155.623 190.387 155.892 190.387 156.173C190.387 156.454 190.275 156.724 190.076 156.923C189.878 157.121 189.608 157.233 189.327 157.233Z" fill="#FF6C37"/>
<path d="M210.721 157.233H193.519C193.238 157.233 192.968 157.121 192.769 156.923C192.571 156.724 192.459 156.454 192.459 156.173C192.459 155.892 192.571 155.623 192.769 155.424C192.968 155.225 193.238 155.114 193.519 155.114H210.721C210.859 155.114 210.997 155.141 211.125 155.195C211.253 155.248 211.37 155.326 211.467 155.425C211.565 155.523 211.643 155.64 211.695 155.768C211.748 155.897 211.774 156.035 211.773 156.173C211.774 156.312 211.748 156.45 211.695 156.578C211.643 156.707 211.565 156.824 211.467 156.922C211.37 157.021 211.253 157.099 211.125 157.152C210.997 157.206 210.859 157.233 210.721 157.233Z" fill="#FF6C37"/>
<path d="M178.531 161.444H163.146C163.007 161.445 162.869 161.418 162.741 161.366C162.612 161.313 162.495 161.236 162.397 161.138C162.298 161.04 162.22 160.924 162.167 160.796C162.113 160.668 162.086 160.53 162.086 160.391C162.086 160.252 162.113 160.114 162.167 159.986C162.22 159.857 162.298 159.74 162.396 159.642C162.495 159.544 162.612 159.466 162.74 159.412C162.869 159.359 163.006 159.332 163.146 159.332H178.531C178.811 159.334 179.079 159.446 179.276 159.645C179.473 159.843 179.584 160.112 179.584 160.391C179.584 160.671 179.473 160.938 179.275 161.136C179.078 161.333 178.81 161.444 178.531 161.444Z" fill="#FF6C37"/>
<path d="M198.073 161.444H182.694C182.556 161.445 182.418 161.418 182.289 161.366C182.161 161.313 182.044 161.236 181.946 161.138C181.847 161.04 181.769 160.924 181.716 160.796C181.662 160.668 181.635 160.53 181.635 160.391C181.635 160.252 181.662 160.114 181.715 159.986C181.769 159.857 181.847 159.74 181.945 159.642C182.044 159.544 182.16 159.466 182.289 159.412C182.417 159.359 182.555 159.332 182.694 159.332H198.073C198.212 159.332 198.35 159.359 198.479 159.412C198.607 159.466 198.724 159.544 198.822 159.642C198.921 159.74 198.999 159.857 199.052 159.986C199.105 160.114 199.133 160.252 199.133 160.391C199.133 160.53 199.105 160.668 199.052 160.796C198.999 160.924 198.92 161.04 198.822 161.138C198.723 161.236 198.607 161.313 198.478 161.366C198.349 161.418 198.212 161.445 198.073 161.444Z" fill="#FF6C37"/>
<path d="M210.72 161.444H201.774C201.636 161.445 201.498 161.418 201.369 161.366C201.241 161.313 201.124 161.236 201.026 161.138C200.927 161.04 200.849 160.924 200.796 160.796C200.742 160.668 200.715 160.53 200.715 160.391C200.715 160.252 200.742 160.114 200.795 159.986C200.849 159.857 200.927 159.74 201.025 159.642C201.124 159.544 201.24 159.466 201.369 159.412C201.498 159.359 201.635 159.332 201.774 159.332H210.72C210.858 159.332 210.996 159.359 211.124 159.413C211.252 159.466 211.369 159.544 211.466 159.643C211.564 159.741 211.642 159.858 211.694 159.986C211.747 160.115 211.773 160.253 211.772 160.391C211.773 160.53 211.747 160.667 211.694 160.795C211.641 160.923 211.564 161.04 211.466 161.138C211.368 161.236 211.252 161.313 211.123 161.366C210.995 161.418 210.858 161.445 210.72 161.444Z" fill="#FF6C37"/>
<path d="M184.6 165.662H163.146C163.007 165.663 162.869 165.636 162.741 165.584C162.612 165.531 162.495 165.454 162.397 165.356C162.298 165.258 162.22 165.142 162.167 165.014C162.113 164.886 162.086 164.748 162.086 164.609C162.086 164.328 162.198 164.059 162.396 163.86C162.595 163.661 162.865 163.55 163.146 163.55H184.6C184.739 163.55 184.876 163.577 185.004 163.63C185.133 163.684 185.249 163.762 185.347 163.86C185.445 163.959 185.522 164.076 185.575 164.204C185.627 164.333 185.654 164.471 185.653 164.609C185.654 164.748 185.627 164.885 185.574 165.013C185.522 165.141 185.444 165.258 185.346 165.356C185.248 165.454 185.132 165.531 185.004 165.584C184.876 165.636 184.738 165.663 184.6 165.662Z" fill="#FF6C37"/>
<path d="M210.721 140.361H189.267C188.986 140.361 188.716 140.25 188.517 140.051C188.319 139.852 188.207 139.583 188.207 139.302C188.209 139.022 188.321 138.754 188.52 138.557C188.718 138.36 188.987 138.249 189.267 138.249H210.721C211 138.249 211.268 138.36 211.465 138.557C211.663 138.755 211.774 139.023 211.774 139.302C211.775 139.441 211.748 139.578 211.696 139.707C211.643 139.835 211.566 139.952 211.468 140.051C211.37 140.149 211.254 140.227 211.125 140.281C210.997 140.334 210.86 140.361 210.721 140.361Z" fill="#FF6C37"/>
<path d="M216.329 131.148V132.62H123.748V131.148C123.748 129.836 124.269 128.578 125.197 127.65C126.125 126.722 127.383 126.201 128.695 126.201H211.382C212.694 126.201 213.952 126.722 214.88 127.65C215.808 128.578 216.329 129.836 216.329 131.148Z" fill="#FF6C37"/>
<path d="M198.879 129.524C198.891 129.682 198.87 129.841 198.818 129.99C198.766 130.14 198.684 130.277 198.576 130.393C198.469 130.51 198.338 130.602 198.193 130.666C198.048 130.729 197.891 130.762 197.733 130.762C197.575 130.762 197.418 130.729 197.273 130.666C197.128 130.602 196.997 130.51 196.89 130.393C196.782 130.277 196.7 130.14 196.648 129.99C196.596 129.841 196.575 129.682 196.587 129.524C196.61 129.236 196.74 128.966 196.953 128.77C197.165 128.573 197.444 128.464 197.733 128.464C198.022 128.464 198.301 128.573 198.514 128.77C198.726 128.966 198.856 129.236 198.879 129.524Z" fill="#E0E0E0"/>
<path d="M204.747 129.524C204.749 129.752 204.683 129.975 204.557 130.164C204.432 130.354 204.253 130.503 204.043 130.591C203.833 130.679 203.602 130.702 203.378 130.659C203.155 130.615 202.95 130.506 202.788 130.346C202.627 130.186 202.517 129.981 202.472 129.758C202.427 129.535 202.449 129.303 202.536 129.093C202.623 128.883 202.77 128.703 202.959 128.576C203.148 128.449 203.371 128.382 203.598 128.382C203.902 128.382 204.193 128.502 204.408 128.716C204.624 128.93 204.746 129.221 204.747 129.524Z" fill="#E0E0E0"/>
<path d="M210.611 129.524C210.612 129.752 210.546 129.975 210.42 130.165C210.294 130.355 210.115 130.503 209.905 130.591C209.694 130.679 209.463 130.702 209.239 130.658C209.016 130.614 208.81 130.505 208.649 130.344C208.488 130.182 208.378 129.977 208.334 129.753C208.29 129.53 208.313 129.298 208.401 129.088C208.489 128.878 208.637 128.698 208.827 128.573C209.017 128.447 209.241 128.381 209.468 128.382C209.771 128.382 210.062 128.502 210.276 128.716C210.49 128.931 210.611 129.221 210.611 129.524Z" fill="#E0E0E0"/>
<path d="M152.405 94.9068H134.082C131.365 94.9068 129.162 97.1095 129.162 99.8266V118.15C129.162 120.867 131.365 123.07 134.082 123.07H152.405C155.123 123.07 157.325 120.867 157.325 118.15V99.8266C157.325 97.1095 155.123 94.9068 152.405 94.9068Z" stroke="#407BFF" stroke-width="0.895593" stroke-miterlimit="10"/>
<path d="M138.85 104.918L134.797 108.971L138.884 113.065" stroke="#407BFF" stroke-width="1.6716" stroke-linecap="round" stroke-linejoin="round"/>
<path d="M147.637 104.918L151.697 108.971L147.609 113.065" stroke="#407BFF" stroke-width="1.6716" stroke-linecap="round" stroke-linejoin="round"/>
<path d="M145.146 104.918L141.348 113.065" stroke="#407BFF" stroke-width="1.6716" stroke-linecap="round" stroke-linejoin="round"/>
<path d="M210.699 20.5392H129.375C126.266 20.5392 123.746 23.0591 123.746 26.1677V83.4641C123.746 86.5726 126.266 89.0926 129.375 89.0926H210.699C213.807 89.0926 216.327 86.5726 216.327 83.4641V26.1677C216.327 23.0591 213.807 20.5392 210.699 20.5392Z" fill="#FF6C37"/>
<path d="M197.578 52.0601C204.988 52.0601 210.995 46.0529 210.995 38.6426C210.995 31.2323 204.988 25.225 197.578 25.225C190.167 25.225 184.16 31.2323 184.16 38.6426C184.16 46.0529 190.167 52.0601 197.578 52.0601Z" fill="#F0F4FF"/>
<path d="M178.168 89.0926H129.377C127.884 89.0926 126.452 88.4996 125.397 87.444C124.341 86.3885 123.748 84.9568 123.748 83.4641V74.4433L145.079 37.4591C145.332 37.0174 145.698 36.6505 146.139 36.3953C146.58 36.1402 147.081 36.0058 147.59 36.0058C148.099 36.0058 148.6 36.1402 149.041 36.3953C149.482 36.6505 149.848 37.0174 150.101 37.4591L166.271 65.3813L178.244 86.1201C178.506 86.5744 178.638 87.0924 178.625 87.617C178.611 88.1415 178.453 88.6521 178.168 89.0926Z" fill="white"/>
<path d="M199.209 89.0926H152.551L166.271 65.3813L173.62 52.5762C173.848 52.1788 174.178 51.8488 174.575 51.6193C174.971 51.3898 175.422 51.269 175.88 51.269C176.339 51.269 176.789 51.3898 177.186 51.6193C177.583 51.8488 177.912 52.1788 178.14 52.5762L199.209 89.0926Z" fill="#F0F4FF"/>
<path d="M291.756 195.559H255.783V249.615H291.756V195.559Z" fill="#455A64"/>
<path d="M291.748 249.615H305.523V195.559H291.748V249.615Z" fill="#5E7783"/>
<path d="M303.837 197.63H293.723V199.357H303.837V197.63Z" fill="white"/>
<path d="M303.837 201.339H293.723V203.066H303.837V201.339Z" fill="white"/>
<path d="M303.837 205.048H293.723V206.775H303.837V205.048Z" fill="white"/>
<path d="M303.837 208.75H293.723V210.477H303.837V208.75Z" fill="white"/>
<path d="M303.837 212.458H293.723V214.185H303.837V212.458Z" fill="white"/>
<path d="M303.837 216.16H293.723V217.887H303.837V216.16Z" fill="white"/>
<path d="M303.837 219.869H293.723V221.596H303.837V219.869Z" fill="white"/>
<path d="M303.837 223.578H293.723V225.305H303.837V223.578Z" fill="white"/>
<path d="M303.837 227.28H293.723V229.007H303.837V227.28Z" fill="white"/>
<path d="M303.837 230.988H293.723V232.715H303.837V230.988Z" fill="white"/>
<path d="M303.837 234.697H293.723V236.424H303.837V234.697Z" fill="white"/>
<path d="M303.837 238.399H293.723V240.126H303.837V238.399Z" fill="white"/>
<path d="M303.837 242.108H293.723V243.835H303.837V242.108Z" fill="white"/>
<path d="M303.837 245.81H293.723V247.537H303.837V245.81Z" fill="white"/>
<path d="M249.94 249.615H268.222C268.222 249.615 269.241 246.36 267.032 242.328C267.032 242.328 265.559 243.511 261.149 242.713C260.186 243.537 259.144 244.263 258.039 244.881C256.766 245.5 249.445 246.938 249.94 249.615Z" fill="#281616"/>
<path d="M251.214 198.071C252.397 205.117 257.847 228.952 260.159 243.03C264.439 243.394 266.496 242.906 267.583 242.651C267.37 237.745 266.95 226 266.998 220.846C267.081 212.142 267.487 200.665 263.654 194.362L250.773 195.38C250.849 196.068 250.925 196.612 250.987 197.011C251.049 197.41 251.145 197.761 251.214 198.071Z" fill="#407BFF"/>
<path d="M216.871 249.615H235.153C235.153 249.615 236.179 246.36 233.963 242.328C233.963 242.328 232.49 243.511 228.087 242.713C227.123 243.535 226.081 244.261 224.977 244.881C223.697 245.5 216.383 246.938 216.871 249.615Z" fill="#281616"/>
<path d="M227.559 242.617C229.908 243.252 232.351 243.471 234.777 243.264C235.747 237.608 237.281 225.153 238.664 219.312C240.811 210.243 242.91 197.761 241.451 193.309L228.776 190.13C228.735 190.529 227.703 228.725 227.559 242.617Z" fill="#3871F0"/>
<path d="M278.001 177.119C277.746 174.607 277.45 172.784 277.45 172.784L263.29 176.224L251.262 178.976C246.803 179.967 241.415 181.165 236.668 182.238C231.335 183.449 227.798 187.495 228.968 192.834L230.303 199.302C237.755 199.206 272.799 195.862 275.799 194.327C279.184 192.655 280.203 186.607 278.001 177.119Z" fill="#3871F0"/>
<path d="M299.139 177.119C298.891 175.327 298.395 173.579 297.667 171.924L284.428 176.245L272.401 178.997C267.942 179.988 262.554 181.185 257.806 182.259C252.474 183.47 248.937 187.516 250.107 192.855L251.442 199.323C258.894 199.227 290.05 198.139 296.938 194.348C300.261 192.538 301.348 186.607 299.139 177.119Z" fill="#407BFF"/>
<path d="M259.505 156.841C259.505 156.841 265.794 153.999 267.521 156.841C268.471 158.403 267.817 161.3 265.67 162.518C263.523 163.735 251.406 168.862 239.963 171.724C239.607 170.611 239.179 169.521 238.684 168.463C242.273 166.894 245.702 164.981 248.922 162.752C252.258 160.456 255.801 158.477 259.505 156.841Z" fill="#E5918F"/>
<path d="M261.074 137.21L255.721 158.733C255.721 158.733 256.278 164.176 261.776 161.485C267.274 158.795 270.858 141.676 270.858 141.676L261.074 137.21Z" fill="#E5918F"/>
<path d="M270.171 149.244C269.483 149.079 268.864 148.907 268.252 148.722C267.639 148.536 267.027 148.343 266.456 148.144C263.654 147.247 260.997 145.946 258.57 144.283C260.18 137.279 262.114 132.586 263.841 129.483C263.893 129.41 263.936 129.331 263.972 129.249L264.109 129.022C265.083 127.481 266.359 126.154 267.859 125.12L268.314 124.804L268.947 136.047L269.057 137.203L270.171 149.244Z" fill="black"/>
<path d="M270.171 149.244C269.483 149.079 268.863 148.907 268.251 148.722C267.639 148.536 267.026 148.343 266.455 148.144C267.535 140.575 268.519 135.813 268.519 135.813L269.07 137.189L270.171 149.244Z" fill="#C7E5F2"/>
<path d="M302.014 129.806C301.883 133.13 301.326 138.476 300.796 143.843C300.638 145.543 300.48 147.283 300.356 148.907C300.259 149.933 298.711 155.417 298.649 156.394C298.374 161.086 296.076 164.602 298.25 171.745C298.644 172.805 298.876 173.918 298.938 175.047C298.938 175.536 298.298 176.045 298.051 176.19C297.136 176.713 295.34 177.084 293.165 177.353C288.659 177.802 284.132 178.009 279.603 177.972C274.924 177.972 267.906 177.229 266.998 176.045C266.186 174.965 266.936 173.396 267.321 171.229C269.048 161.43 268.436 156.325 268.326 149.258C268.326 149.079 268.326 148.907 268.326 148.722C268.147 137.815 267.431 128.485 267.933 125.12L268.387 124.804C269.131 124.295 269.86 123.847 270.562 123.428L270.782 123.304C270.995 123.18 271.216 123.063 271.422 122.953C271.501 122.905 271.584 122.863 271.67 122.829C273.375 122.049 275.121 121.36 276.899 120.765C277.064 120.71 277.222 120.655 277.353 120.62C278.599 120.545 279.961 120.524 281.42 120.565C282.693 120.607 284.64 120.772 286.759 121.047C289.148 121.337 291.515 121.781 293.846 122.375C295.989 123.219 297.901 124.558 299.427 126.283C300.425 127.352 301.293 128.534 302.014 129.806Z" fill="black"/>
<path d="M298.251 171.745C298.645 172.805 298.877 173.918 298.939 175.047C298.939 175.536 298.299 176.045 298.051 176.19C297.136 176.713 295.34 177.084 293.166 177.353C294.06 177.242 295.608 175.818 295.608 174.538C295.608 173.637 294.446 167.568 294.769 163.653C295.092 159.738 295.725 153.511 294.514 148.515C293.303 143.52 292.154 136.976 292.154 136.976L298.987 141.105C298.987 141.105 299.868 142.343 300.831 143.857C300.673 145.556 300.514 147.297 300.391 148.921C300.26 149.933 296.076 164.602 298.251 171.745Z" fill="black"/>
<path d="M268.195 100.983C268.195 100.983 268.787 108.132 271.154 108.613C273.521 109.095 272.943 106.054 272.943 106.054L272.613 102.661L268.195 100.983Z" fill="#002C54"/>
<path d="M279.116 126.889C274.478 126.338 276.205 121.825 276.845 120.792C277.01 120.737 277.809 120.497 277.87 120.455C278.035 120.31 278.161 120.125 278.235 119.919C278.689 118.728 278.483 116.361 278.462 116.203V115.776C278.538 115.494 278.62 115.226 278.676 114.971L281.118 113.051L286.279 108.999C286.279 108.999 284.903 115.783 286.01 120.063C286.052 120.271 286.134 120.468 286.252 120.644C286.37 120.82 286.522 120.971 286.699 121.088C286.853 121.191 287.03 121.255 287.215 121.274C288.501 121.852 286.733 127.783 279.116 126.889Z" fill="#E5918F"/>
<path d="M283.244 113.292C283.132 114.751 282.605 116.148 281.727 117.318C280.848 118.488 279.653 119.383 278.283 119.898C278.744 118.721 278.531 116.347 278.517 116.196L280.581 114.579L283.244 113.292Z" fill="#CC6362"/>
<path d="M269.33 102.001C269.33 102.001 270.397 116.829 274.401 118.088C276.115 118.127 277.813 117.741 279.342 116.965C280.871 116.19 282.185 115.049 283.167 113.643C284.22 112.226 285.555 111.902 285.988 110.203C286.677 107.451 287.695 102.283 286.422 99.1936C284.619 94.7692 269.481 91.2738 269.33 102.001Z" fill="#E5918F"/>
<path d="M286.485 96.7303C286.417 94.0399 283.692 93.0284 283.692 93.0284C280.981 91.7623 275.339 92.3403 269.524 93.6064C268.148 93.9091 266.449 93.0766 265.499 93.7371C264.35 94.5353 265.499 98.1821 265.499 98.1821C267.742 104.973 275.999 102.765 278.476 101.925C279.068 103.673 278.992 106.102 280.458 107.361C281.297 108.049 282.756 108.09 284.235 107.85C284.421 108.194 285.102 108.496 285.24 108.971C285.708 110.561 285.639 113.045 285.625 114.957L286.313 114.62C286.41 114.097 293.648 96.9504 286.485 96.7303Z" fill="#002C54"/>
<path d="M273.431 106.996C273.645 108.228 273.039 109.357 272.055 109.522C271.071 109.687 270.149 108.834 269.943 107.588C269.736 106.343 270.342 105.221 271.319 105.063C272.296 104.905 273.225 105.765 273.431 106.996Z" stroke="white" stroke-width="0.500973" stroke-miterlimit="10"/>
<path d="M278.269 106.095C278.483 107.32 277.877 108.455 276.893 108.613C275.909 108.772 274.994 107.925 274.781 106.68C274.567 105.434 275.18 104.32 276.157 104.155C277.134 103.99 278.063 104.87 278.269 106.095Z" stroke="white" stroke-width="0.500973" stroke-miterlimit="10"/>
<path d="M273.432 106.996C273.432 106.996 273.645 106.652 274.76 106.749" stroke="white" stroke-width="0.500973" stroke-miterlimit="10"/>
<path d="M278.311 106.384L282.446 105.723" stroke="white" stroke-width="0.500973" stroke-miterlimit="10"/>
<path d="M282.756 110.973C285.598 112.068 286.492 105.056 283.788 104.746C281.724 104.512 281.648 107.368 281.648 107.368C281.648 107.368 281.125 110.375 282.756 110.973Z" fill="#E5918F"/>
<g opacity="0.5">
<path d="M283.692 105.806C283.553 105.955 283.435 106.121 283.341 106.301C283.14 106.671 283.02 107.079 282.99 107.499C282.969 107.728 282.969 107.958 282.99 108.187C282.99 108.407 282.99 108.62 283.038 108.799C283.086 108.978 283.038 109.143 283.086 109.253C283.134 109.363 283.086 109.432 283.086 109.432L282.99 109.288C282.899 109.16 282.821 109.024 282.756 108.882C282.659 108.679 282.589 108.463 282.55 108.242C282.489 107.987 282.471 107.725 282.494 107.464C282.517 107.196 282.589 106.935 282.708 106.694C282.805 106.479 282.946 106.287 283.121 106.129C283.28 105.975 283.477 105.864 283.692 105.806Z" fill="#CC6362"/>
<path d="M284.138 107.134C284.045 107.148 283.953 107.171 283.863 107.203C283.673 107.274 283.5 107.384 283.354 107.526C283.172 107.718 283.046 107.956 282.989 108.214L282.521 108.049C282.57 107.952 282.625 107.857 282.687 107.767C282.822 107.572 283.001 107.412 283.21 107.299C283.404 107.189 283.62 107.121 283.843 107.1C283.942 107.1 284.041 107.111 284.138 107.134Z" fill="#CC6362"/>
</g>
<path d="M310.135 159.676C308.889 161.128 304.135 162.187 301.878 160.178C301.19 159.538 300.35 157.852 299.552 155.761C298.013 151.38 296.697 146.925 295.609 142.412L306.24 136.983C306.24 136.983 307.616 143.114 308.786 148.942C308.786 148.942 308.786 148.997 308.786 149.1C309.171 150.965 309.529 152.802 309.811 154.378V154.501C310.116 156.208 310.225 157.944 310.135 159.676Z" fill="#E5918F"/>
<path d="M291.562 134.974C292.588 139.247 295.815 147.359 295.815 147.359C298.454 147.662 301.127 147.339 303.618 146.416C305.48 145.698 307.172 144.599 308.586 143.189C308.586 143.189 306.446 137.176 304.526 132.868C302.799 128.987 301.774 127.542 301.017 126.772C299.784 125.511 298.361 124.452 296.799 123.634L291.562 134.974Z" fill="black"/>
<path d="M305 137.76L298.766 135.07L293.854 122.409C293.854 122.409 294.748 122.685 295.918 123.159L296.076 123.228L296.165 123.263C297.225 123.758 301.34 126.187 304.182 134.96C304.182 135.036 304.23 135.104 304.25 135.18C304.553 136.198 304.773 137.01 304.897 137.43C304.895 137.474 304.895 137.517 304.897 137.561L305 137.76Z" fill="black"/>
<path d="M310.134 159.676C310.044 160.46 309.831 161.018 309.446 161.217L308.455 161.809C306.34 163.107 304.137 164.257 301.863 165.249C294.342 168.393 286.664 171.149 278.861 173.506C278.472 172.406 278.012 171.333 277.484 170.293C281.006 168.578 284.352 166.525 287.475 164.162C292.429 160.378 299.558 155.781 299.558 155.781L301.361 153.662C301.361 153.662 307.76 147.772 308.792 148.962C308.792 148.962 308.792 149.017 308.792 149.121C308.95 149.733 309.48 151.997 309.817 154.398V154.522C310.118 156.222 310.225 157.951 310.134 159.676Z" fill="#E5918F"/>
<path d="M278.179 169.921C277.415 170.361 276.526 170.533 275.654 170.41C274.965 170.258 274.663 169.969 274.14 169.88C273.255 169.775 272.385 169.572 271.546 169.274C270.858 168.937 270.589 168.903 270.61 169.591C270.631 170.279 271.986 170.878 272.358 171.07C272.702 171.308 273.001 171.606 273.238 171.951C273.287 172.027 270.982 173.238 270.355 172.997C270.257 173.275 270.231 173.573 270.28 173.864C270.383 174.174 270.858 174.284 270.892 174.435C270.926 174.586 270.789 174.91 270.892 175.123C270.995 175.336 271.422 175.378 271.58 175.811C271.738 176.245 271.58 176.224 271.69 176.644C271.8 177.064 272.378 177.139 272.454 177.332C272.53 177.525 272.502 177.8 272.722 177.951C272.943 178.103 275.027 177.435 275.784 177.105C276.541 176.775 278.571 173.864 280.821 172.866L278.179 169.921Z" fill="#E5918F"/>
<path d="M288.804 182.954H272.641V181.371H288.804C288.908 181.37 289.011 181.39 289.108 181.429C289.204 181.469 289.291 181.527 289.365 181.601C289.439 181.674 289.497 181.762 289.537 181.858C289.576 181.955 289.596 182.058 289.595 182.162C289.595 182.372 289.512 182.573 289.363 182.722C289.215 182.87 289.013 182.954 288.804 182.954Z" fill="#375F84"/>
<path d="M280.058 182.954H239.578C239.342 182.953 239.111 182.876 238.923 182.733C238.734 182.591 238.597 182.39 238.532 182.162L230.262 152.348C230.219 152.194 230.213 152.032 230.243 151.876C230.274 151.719 230.34 151.571 230.436 151.444C230.533 151.317 230.657 151.214 230.8 151.143C230.943 151.072 231.1 151.034 231.259 151.034H270.411C270.853 151.039 271.281 151.187 271.633 151.455C271.985 151.722 272.242 152.095 272.365 152.52L280.622 182.238C280.645 182.323 280.647 182.413 280.629 182.499C280.611 182.586 280.573 182.667 280.518 182.736C280.464 182.805 280.394 182.861 280.314 182.899C280.234 182.937 280.146 182.955 280.058 182.954Z" fill="#375F84"/>
<path d="M278.592 182.954H238.112C237.876 182.955 237.646 182.879 237.458 182.735C237.27 182.592 237.134 182.391 237.073 182.162L228.816 152.334C228.774 152.18 228.768 152.019 228.798 151.862C228.828 151.705 228.894 151.558 228.991 151.43C229.087 151.303 229.212 151.2 229.354 151.129C229.497 151.058 229.655 151.02 229.814 151.02H268.966C269.408 151.026 269.836 151.173 270.188 151.441C270.54 151.708 270.796 152.082 270.92 152.506L279.177 182.224C279.203 182.312 279.207 182.405 279.189 182.495C279.171 182.585 279.131 182.669 279.074 182.741C279.017 182.812 278.943 182.869 278.859 182.906C278.775 182.943 278.684 182.959 278.592 182.954Z" fill="#455A64"/>
<path d="M118.146 163.68L122.839 158.864C122.885 157.987 123.026 157.117 123.259 156.27C123.514 155.816 124.174 154.144 124.497 153.958C124.821 153.863 125.165 153.863 125.488 153.958C125.794 153.85 126.11 153.776 126.431 153.738C126.723 153.782 127.007 153.873 127.27 154.006C127.27 154.006 127.959 153.958 128.261 153.958C128.395 153.943 128.53 153.972 128.647 154.04C129.17 153.429 129.731 152.85 130.326 152.306C130.876 151.866 131.702 151.061 131.956 151.061C132.211 151.061 132.293 151.474 132.128 151.914C131.883 152.339 131.575 152.725 131.213 153.056L129.073 156.297C129.268 156.222 129.456 156.133 129.637 156.029C129.83 155.905 131.137 154.687 131.213 154.653C131.289 154.618 131.901 154.219 132.218 154.605C132.534 154.99 129.981 158.086 129.569 158.499C128.678 159.1 127.747 159.638 126.782 160.109C126.782 160.109 124.284 164.609 124.03 164.926C123.775 165.242 118.146 163.68 118.146 163.68Z" fill="#E49191"/>
<path d="M122.563 141.49C122.563 141.49 119.941 156.628 117.478 157.013C117.478 157.013 107.632 157.412 105.444 145.467C103.538 135.146 111.168 132.909 114.733 133.701C118.297 134.492 123.327 135.008 122.563 141.49Z" fill="#E49191"/>
<path d="M113.866 154.584C113.866 154.584 112.49 156.449 112.002 160.949C109.299 161.231 106.57 160.755 104.123 159.573C105.415 155.27 106.182 150.827 106.407 146.341" fill="#E49191"/>
<path d="M111.087 131.155C105.706 132.345 106.14 135.696 106.14 135.696C103.621 136.322 103.078 137.361 103.098 142.006C103.119 146.65 104.805 152.238 105.734 152.692C106.662 153.146 111.926 153.167 112.353 153.008C112.78 152.85 114.637 148.584 114.204 147.834C113.77 147.084 114.204 144.132 115.449 144.022C116.695 143.912 116.44 145.811 116.44 145.811L117.445 145.591L118.222 143.685C125.33 144.105 127.167 136.006 127.167 136.006C125.461 134.891 116.468 129.971 111.087 131.155Z" fill="#002C54"/>
<path d="M51.3604 233.878L56.7962 234.663L54.9935 241.014L49.1035 239.527C48.7749 239.089 48.5444 238.585 48.4277 238.049C48.3109 237.513 48.3106 236.959 48.4267 236.423C48.5428 235.888 48.7727 235.383 49.1008 234.944C49.4289 234.505 49.8475 234.142 50.3283 233.878C50.666 233.785 51.0227 233.785 51.3604 233.878Z" fill="#E5918F"/>
<path d="M91.957 217.564L83.9409 193.295C83.9409 193.295 81.512 192.428 80.2665 193.295C80.2665 193.295 71.9201 197.789 72.8077 210.587C73.4958 220.22 75.5188 230.713 76.3445 234.91L54.959 234.119C54.184 235.135 53.6896 236.336 53.5253 237.603C53.3611 238.87 53.5328 240.157 54.0232 241.337C54.0232 241.337 80.8996 248.562 84.684 249.229C87.7597 249.773 91.1313 250.193 92.7552 248.803C95.6314 246.346 91.957 217.564 91.957 217.564Z" fill="black"/>
<path d="M76.7022 233.878L82.138 234.663L80.3353 241.014L74.4453 239.527C74.1167 239.089 73.8862 238.585 73.7695 238.049C73.6527 237.513 73.6524 236.959 73.7685 236.423C73.8846 235.888 74.1145 235.383 74.4426 234.944C74.7707 234.505 75.1893 234.142 75.6701 233.878C76.0078 233.785 76.3645 233.785 76.7022 233.878Z" fill="#E5918F"/>
<path d="M74.7557 237.209C74.6319 238.454 75.7259 239.582 75.5264 239.892C75.3268 240.202 71.6731 246.339 71.6731 246.339C71.6731 246.339 74.4254 247.544 73.9851 249.278H66.9666C65.8724 248.227 65.2348 246.789 65.1914 245.273C65.5339 243.497 66.1124 241.776 66.9116 240.154C68.157 237.745 70.9919 232.323 70.9919 232.323C71.7535 232.102 72.5644 232.116 73.3176 232.365C74.5076 232.718 75.6458 233.227 76.703 233.878C76.703 233.878 75.0309 234.119 74.7557 237.209Z" fill="#467CDB"/>
<path d="M130.717 243.704C128.99 237.264 112.758 209.775 107.26 202.35C95.9826 197.451 83.955 193.295 83.955 193.295C78.9801 194.479 76.5306 204.504 79.3517 211.185C81.2921 215.768 93.5674 227.3 101.081 234.092H80.2187C80.2187 234.092 77.7622 237.766 79.9916 241.255C79.9916 241.255 114.685 249.147 117.726 249.587C120.767 250.028 127.6 249.587 127.6 249.587C127.6 249.587 132.169 249.119 130.717 243.704Z" fill="black"/>
<path d="M49.4079 237.209C49.284 238.454 50.3781 239.582 50.1785 239.892C49.979 240.202 46.3253 246.339 46.3253 246.339C46.3253 246.339 49.0776 247.544 48.6372 249.278H41.6463C40.5521 248.227 39.9145 246.789 39.8711 245.273C40.2136 243.497 40.7921 241.776 41.5913 240.154C42.8367 237.745 45.6716 232.323 45.6716 232.323C46.4332 232.102 47.2441 232.116 47.9973 232.365C49.1867 232.72 50.3247 233.229 51.3827 233.878C51.3827 233.878 49.7106 234.119 49.4079 237.209Z" fill="#467CDB"/>
<path d="M156.836 159.008L145.628 178.687L137.611 170.699L131.006 180.559L132.926 181.488L132.238 182.059C132.238 182.059 147.699 189.593 149.55 187.928C151.401 186.263 160.036 161.231 160.036 161.231L156.836 159.008Z" fill="#E49191"/>
<path d="M139.063 171.951C139.063 171.951 136.95 180.862 132.726 185.087L121.916 180.958C121.916 180.958 116.9 189.394 111.994 195.862C110.108 198.36 109.482 201.876 107.267 202.337C107.129 202.289 106.998 202.247 106.861 202.213C100.854 200.41 91.9912 202.323 84.6769 199.605C76.5989 196.598 78.1677 194.905 78.1677 194.905C81.2959 189.102 83.8671 183.015 85.8467 176.726C86.9206 173.125 87.8116 169.471 88.5164 165.779C89.0034 163.187 90.29 160.813 92.1955 158.991C94.101 157.168 96.5297 155.988 99.1404 155.616H99.3193C105.443 154.839 121.475 156.731 124.592 158.066C127.709 159.401 139.063 171.951 139.063 171.951Z" fill="#407BFF"/>
<path d="M121.917 180.972C121.917 180.972 116.901 189.408 111.995 195.876C110.109 198.373 109.483 201.889 107.268 202.35C108.238 202.006 109.848 196.901 110.419 195.752C110.99 194.603 111.912 193.461 113.894 189.449C115.875 185.437 118.552 179.541 118.552 179.541L121.917 180.972Z" fill="#5996EF"/>
<path d="M101.082 234.092C101.237 234.058 101.393 234.033 101.55 234.016C101.853 233.982 102.279 233.92 102.802 233.899C104.067 233.842 105.333 233.902 106.587 234.078C107.258 234.17 107.924 234.296 108.582 234.456C109.158 234.589 109.726 234.757 110.282 234.959C110.675 235.097 111.061 235.255 111.438 235.433C111.713 235.557 111.864 235.64 111.864 235.64L111.396 235.571C111.1 235.509 110.674 235.447 110.172 235.365C109.167 235.193 107.825 234.979 106.483 234.8C105.795 234.697 105.142 234.621 104.516 234.539L102.782 234.319L101.082 234.092Z" fill="black"/>
<path d="M165.197 151.763C164.522 152.151 163.892 152.613 163.318 153.139L163.958 151.921C164.368 151.526 164.749 151.103 165.1 150.655C165.41 150.208 165.245 149.761 165.011 149.74C164.375 150.08 163.781 150.493 163.242 150.972L163.373 150.724C163.786 150.332 164.17 149.912 164.522 149.465C164.825 149.017 164.667 148.57 164.426 148.543C163.653 149.014 162.923 149.553 162.245 150.153L161.302 151.419L161.99 150.043C162.231 149.746 162.441 149.426 162.616 149.086C162.864 148.584 162.685 148.433 162.547 148.267C162.41 148.102 161.102 149.072 160.765 149.465C160.226 150.16 159.734 150.891 159.293 151.653L158.206 153.91C158.13 153.256 158.027 152.134 157.944 151.419C157.834 150.394 156.905 150.153 156.871 150.648C156.836 151.144 156.32 153.614 156.437 154.949C156.554 156.284 156.781 157.157 156.864 157.907C156.946 158.657 156.176 160.157 156.176 160.157C156.176 160.157 159.286 162.091 159.802 161.534C160.581 160.669 161.296 159.75 161.942 158.781C162.443 157.909 162.851 156.986 163.16 156.029L164.137 153.965C164.547 153.573 164.929 153.152 165.279 152.706C165.582 152.238 165.437 151.79 165.197 151.763Z" fill="#E49191"/>
<path d="M343.926 89.0926H307.416C306.292 89.0926 305.214 89.5391 304.419 90.334C303.624 91.1289 303.178 92.207 303.178 93.3311V101.96C303.179 102.99 303.556 103.985 304.237 104.759C304.918 105.533 305.857 106.032 306.88 106.164C307.028 106.181 307.165 106.252 307.264 106.364C307.363 106.476 307.417 106.62 307.416 106.769V111.49C307.417 111.549 307.436 111.606 307.471 111.654C307.506 111.702 307.555 111.737 307.611 111.756C307.668 111.774 307.728 111.774 307.785 111.756C307.841 111.738 307.89 111.702 307.926 111.655L311.641 106.453C311.698 106.373 311.773 106.308 311.861 106.264C311.948 106.219 312.045 106.197 312.143 106.198H343.926C345.05 106.198 346.128 105.752 346.923 104.957C347.718 104.162 348.164 103.084 348.164 101.96V93.3311C348.164 92.207 347.718 91.1289 346.923 90.334C346.128 89.5391 345.05 89.0926 343.926 89.0926Z" stroke="#407BFF" stroke-width="0.895593" stroke-miterlimit="10"/>
<path d="M313.018 97.6316C313.018 97.9038 312.937 98.1699 312.786 98.3962C312.635 98.6225 312.42 98.7989 312.168 98.903C311.917 99.0072 311.64 99.0345 311.373 98.9814C311.106 98.9283 310.861 98.7972 310.669 98.6047C310.476 98.4123 310.345 98.1671 310.292 97.9001C310.239 97.6332 310.266 97.3565 310.37 97.105C310.475 96.8535 310.651 96.6386 310.877 96.4874C311.104 96.3362 311.37 96.2555 311.642 96.2555C312.007 96.2555 312.357 96.4005 312.615 96.6585C312.873 96.9166 313.018 97.2667 313.018 97.6316Z" stroke="#407BFF" stroke-width="0.895593" stroke-miterlimit="10"/>
<path d="M320.043 97.6316C320.043 97.9038 319.963 98.1699 319.811 98.3962C319.66 98.6225 319.445 98.7989 319.194 98.903C318.942 99.0072 318.666 99.0345 318.399 98.9814C318.132 98.9283 317.887 98.7972 317.694 98.6047C317.502 98.4123 317.371 98.1671 317.317 97.9001C317.264 97.6332 317.292 97.3565 317.396 97.105C317.5 96.8535 317.676 96.6386 317.903 96.4874C318.129 96.3362 318.395 96.2555 318.667 96.2555C319.032 96.2555 319.382 96.4005 319.64 96.6585C319.898 96.9166 320.043 97.2667 320.043 97.6316Z" stroke="#407BFF" stroke-width="0.895593" stroke-miterlimit="10"/>
<path d="M327.069 97.6316C327.069 97.9038 326.988 98.1699 326.837 98.3962C326.686 98.6225 326.471 98.7989 326.219 98.903C325.968 99.0072 325.691 99.0345 325.424 98.9814C325.157 98.9283 324.912 98.7972 324.719 98.6047C324.527 98.4123 324.396 98.1671 324.343 97.9001C324.29 97.6332 324.317 97.3565 324.421 97.105C324.525 96.8535 324.702 96.6386 324.928 96.4874C325.154 96.3362 325.42 96.2555 325.693 96.2555C326.058 96.2555 326.408 96.4005 326.666 96.6585C326.924 96.9166 327.069 97.2667 327.069 97.6316Z" stroke="#407BFF" stroke-width="0.895593" stroke-miterlimit="10"/>
<path d="M334.092 97.6316C334.092 97.9038 334.011 98.1699 333.86 98.3962C333.709 98.6225 333.494 98.7989 333.243 98.903C332.991 99.0072 332.714 99.0345 332.448 98.9814C332.181 98.9283 331.935 98.7972 331.743 98.6047C331.55 98.4123 331.419 98.1671 331.366 97.9001C331.313 97.6332 331.34 97.3565 331.445 97.105C331.549 96.8535 331.725 96.6386 331.951 96.4874C332.178 96.3362 332.444 96.2555 332.716 96.2555C333.081 96.2555 333.431 96.4005 333.689 96.6585C333.947 96.9166 334.092 97.2667 334.092 97.6316Z" stroke="#407BFF" stroke-width="0.895593" stroke-miterlimit="10"/>
<path d="M341.118 97.6316C341.118 97.9038 341.037 98.1699 340.886 98.3962C340.734 98.6225 340.519 98.7989 340.268 98.903C340.017 99.0072 339.74 99.0345 339.473 98.9814C339.206 98.9283 338.961 98.7972 338.768 98.6047C338.576 98.4123 338.445 98.1671 338.392 97.9001C338.339 97.6332 338.366 97.3565 338.47 97.105C338.574 96.8535 338.751 96.6386 338.977 96.4874C339.203 96.3362 339.469 96.2555 339.741 96.2555C340.106 96.2555 340.456 96.4005 340.714 96.6585C340.973 96.9166 341.118 97.2667 341.118 97.6316Z" stroke="#407BFF" stroke-width="0.895593" stroke-miterlimit="10"/>
<path d="M55.4144 126.889H91.9583C93.0825 126.889 94.1606 127.335 94.9554 128.13C95.7503 128.925 96.1969 130.003 96.1969 131.127V139.749C96.1983 140.781 95.8229 141.777 95.1412 142.551C94.4595 143.325 93.5185 143.824 92.495 143.953C92.3478 143.973 92.2126 144.045 92.1141 144.156C92.0156 144.267 91.9603 144.41 91.9583 144.559V149.286C91.9589 149.345 91.9405 149.402 91.9058 149.45C91.8712 149.498 91.8221 149.533 91.7658 149.551C91.7095 149.569 91.649 149.568 91.5933 149.549C91.5375 149.529 91.4894 149.493 91.456 149.444L87.7335 144.249C87.677 144.168 87.6019 144.102 87.5144 144.057C87.427 144.011 87.3298 143.988 87.2312 143.988H55.4144C54.2903 143.988 53.2122 143.541 52.4173 142.746C51.6224 141.951 51.1758 140.873 51.1758 139.749V131.148C51.1731 130.59 51.2807 130.036 51.4925 129.52C51.7043 129.003 52.0161 128.533 52.41 128.138C52.8038 127.742 53.272 127.428 53.7876 127.213C54.3032 126.999 54.856 126.889 55.4144 126.889V126.889Z" stroke="#FF6C37" stroke-width="0.895593" stroke-miterlimit="10"/>
<path d="M86.3223 135.449C86.3223 135.721 86.403 135.987 86.5542 136.213C86.7054 136.439 86.9203 136.616 87.1718 136.72C87.4233 136.824 87.7 136.851 87.9669 136.798C88.2339 136.745 88.4791 136.614 88.6715 136.422C88.864 136.229 88.995 135.984 89.0481 135.717C89.1012 135.45 89.074 135.173 88.9698 134.922C88.8657 134.67 88.6893 134.455 88.463 134.304C88.2367 134.153 87.9706 134.072 87.6984 134.072C87.3334 134.072 86.9834 134.217 86.7253 134.475C86.4673 134.733 86.3223 135.084 86.3223 135.449Z" stroke="#FF6C37" stroke-width="0.895593" stroke-miterlimit="10"/>
<path d="M79.2969 135.449C79.2969 135.721 79.3776 135.987 79.5288 136.213C79.68 136.439 79.8949 136.616 80.1464 136.72C80.3979 136.824 80.6746 136.851 80.9415 136.798C81.2084 136.745 81.4537 136.614 81.6461 136.422C81.8386 136.229 81.9696 135.984 82.0227 135.717C82.0758 135.45 82.0486 135.173 81.9444 134.922C81.8403 134.67 81.6639 134.455 81.4376 134.304C81.2113 134.153 80.9452 134.072 80.673 134.072C80.3081 134.072 79.958 134.217 79.6999 134.475C79.4419 134.733 79.2969 135.084 79.2969 135.449Z" stroke="#FF6C37" stroke-width="0.895593" stroke-miterlimit="10"/>
<path d="M72.2793 135.449C72.2793 135.721 72.36 135.987 72.5112 136.213C72.6624 136.439 72.8774 136.616 73.1288 136.72C73.3803 136.824 73.657 136.851 73.9239 136.798C74.1909 136.745 74.4361 136.614 74.6285 136.422C74.821 136.229 74.9521 135.984 75.0052 135.717C75.0583 135.45 75.031 135.173 74.9269 134.922C74.8227 134.67 74.6463 134.455 74.42 134.304C74.1937 134.153 73.9276 134.072 73.6555 134.072C73.2905 134.072 72.9404 134.217 72.6824 134.475C72.4243 134.733 72.2793 135.084 72.2793 135.449Z" stroke="#FF6C37" stroke-width="0.895593" stroke-miterlimit="10"/>
<path d="M65.2539 135.449C65.2539 135.721 65.3346 135.987 65.4858 136.213C65.637 136.439 65.852 136.616 66.1034 136.72C66.3549 136.824 66.6316 136.851 66.8985 136.798C67.1655 136.745 67.4107 136.614 67.6032 136.422C67.7956 136.229 67.9267 135.984 67.9798 135.717C68.0329 135.45 68.0056 135.173 67.9015 134.922C67.7973 134.67 67.6209 134.455 67.3946 134.304C67.1683 134.153 66.9022 134.072 66.6301 134.072C66.2651 134.072 65.9151 134.217 65.657 134.475C65.3989 134.733 65.2539 135.084 65.2539 135.449Z" stroke="#FF6C37" stroke-width="0.895593" stroke-miterlimit="10"/>
<path d="M58.2422 135.449C58.2422 135.721 58.3229 135.987 58.4741 136.213C58.6253 136.439 58.8403 136.616 59.0917 136.72C59.3432 136.824 59.6199 136.851 59.8868 136.798C60.1538 136.745 60.399 136.614 60.5914 136.422C60.7839 136.229 60.915 135.984 60.9681 135.717C61.0212 135.45 60.9939 135.173 60.8898 134.922C60.7856 134.67 60.6092 134.455 60.3829 134.304C60.1566 134.153 59.8905 134.072 59.6183 134.072C59.2534 134.072 58.9033 134.217 58.6453 134.475C58.3872 134.733 58.2422 135.084 58.2422 135.449Z" stroke="#FF6C37" stroke-width="0.895593" stroke-miterlimit="10"/>
<path d="M275.922 69.1933H209.371C207.612 69.1897 205.926 68.4887 204.683 67.2441C203.439 65.9994 202.74 64.3126 202.738 62.5533C202.738 60.7905 203.439 59.0998 204.685 57.8533C205.932 56.6068 207.622 55.9065 209.385 55.9065H275.936C277.694 55.9138 279.378 56.6173 280.618 57.863C281.859 59.1087 282.556 60.7952 282.556 62.5533C282.554 64.3126 281.855 65.9994 280.611 67.2441C279.368 68.4887 277.682 69.1897 275.922 69.1933Z" fill="white" stroke="#407BFF" stroke-width="0.895593" stroke-miterlimit="10"/>
<path d="M274.946 62.0923C274.946 62.7918 274.739 63.4756 274.35 64.0572C273.962 64.6388 273.409 65.0921 272.763 65.3598C272.117 65.6275 271.406 65.6976 270.72 65.5611C270.034 65.4246 269.404 65.0878 268.909 64.5932C268.414 64.0985 268.077 63.4684 267.941 62.7823C267.805 62.0962 267.875 61.3851 268.142 60.7389C268.41 60.0926 268.863 59.5403 269.445 59.1516C270.026 58.763 270.71 58.5556 271.41 58.5556C272.348 58.5556 273.247 58.9282 273.911 59.5915C274.574 60.2547 274.946 61.1543 274.946 62.0923Z" stroke="#407BFF" stroke-width="1.6716" stroke-miterlimit="10"/>
<path d="M273.906 64.5901L275.86 66.5373" stroke="#495AD6" stroke-width="1.6716" stroke-miterlimit="10" stroke-linecap="round"/>
<path d="M175.112 222.587H158.371C155.442 222.587 153.066 224.962 153.066 227.892V244.633C153.066 247.563 155.442 249.938 158.371 249.938H175.112C178.042 249.938 180.418 247.563 180.418 244.633V227.892C180.418 224.962 178.042 222.587 175.112 222.587Z" fill="#2B6CFE"/>
<path d="M170.13 222.587H153.389C150.459 222.587 148.084 224.962 148.084 227.892V244.633C148.084 247.563 150.459 249.938 153.389 249.938H170.13C173.06 249.938 175.435 247.563 175.435 244.633V227.892C175.435 224.962 173.06 222.587 170.13 222.587Z" fill="#407BFF"/>
<path d="M158.53 231.098L166.381 235.605C166.491 235.67 166.582 235.762 166.645 235.872C166.708 235.983 166.742 236.108 166.742 236.235C166.742 236.362 166.708 236.487 166.645 236.598C166.582 236.708 166.491 236.8 166.381 236.865L158.53 241.399C158.419 241.463 158.293 241.497 158.165 241.497C158.036 241.497 157.911 241.463 157.8 241.399C157.689 241.334 157.597 241.242 157.533 241.131C157.469 241.02 157.435 240.894 157.436 240.766V231.731C157.435 231.603 157.469 231.477 157.533 231.366C157.597 231.255 157.689 231.163 157.8 231.099C157.911 231.035 158.036 231.001 158.165 231.001C158.293 231.001 158.419 231.034 158.53 231.098Z" fill="white"/>
<path d="M348.287 214.185H326.407C322.576 214.185 319.471 217.291 319.471 221.121V243.002C319.471 246.833 322.576 249.938 326.407 249.938H348.287C352.118 249.938 355.223 246.833 355.223 243.002V221.121C355.223 217.291 352.118 214.185 348.287 214.185Z" fill="#2B6CFE"/>
<path d="M341.772 214.185H319.891C316.06 214.185 312.955 217.291 312.955 221.121V243.002C312.955 246.833 316.06 249.938 319.891 249.938H341.772C345.602 249.938 348.708 246.833 348.708 243.002V221.121C348.708 217.291 345.602 214.185 341.772 214.185Z" fill="#407BFF"/>
<path d="M335.132 222.958C335.134 223.809 334.883 224.641 334.411 225.35C333.939 226.058 333.268 226.61 332.482 226.937C331.697 227.263 330.832 227.349 329.997 227.184C329.162 227.019 328.395 226.61 327.793 226.009C327.191 225.408 326.781 224.641 326.614 223.807C326.448 222.972 326.533 222.107 326.858 221.321C327.183 220.535 327.734 219.863 328.442 219.39C329.149 218.917 329.981 218.665 330.832 218.665C331.396 218.664 331.955 218.774 332.477 218.99C332.999 219.205 333.473 219.521 333.872 219.92C334.272 220.319 334.589 220.792 334.805 221.314C335.021 221.835 335.132 222.394 335.132 222.958Z" fill="white"/>
<path d="M339.791 237.498V243.862C339.789 244.137 339.679 244.401 339.484 244.595C339.29 244.79 339.027 244.9 338.752 244.901H322.926C322.65 244.901 322.386 244.792 322.191 244.597C321.996 244.402 321.887 244.138 321.887 243.862V237.518C321.887 235.146 322.829 232.871 324.507 231.193C326.184 229.516 328.459 228.573 330.832 228.573C333.203 228.57 335.479 229.508 337.158 231.181C338.838 232.854 339.785 235.126 339.791 237.498Z" fill="white"/>
<path d="M250.903 76.8516H236.825C236.545 76.8516 236.277 76.7409 236.078 76.5437C235.88 76.3465 235.767 76.0787 235.766 75.7989C235.766 75.5178 235.877 75.2483 236.076 75.0496C236.275 74.8509 236.544 74.7392 236.825 74.7392H250.903C251.184 74.7392 251.454 74.8509 251.653 75.0496C251.851 75.2483 251.963 75.5178 251.963 75.7989C251.961 76.0787 251.849 76.3465 251.65 76.5437C251.452 76.7409 251.183 76.8516 250.903 76.8516Z" fill="#F0F4FF"/>
<path d="M264.94 76.8516H254.771C254.491 76.8516 254.222 76.7409 254.024 76.5437C253.825 76.3465 253.713 76.0787 253.711 75.7989C253.711 75.5178 253.823 75.2483 254.021 75.0496C254.22 74.8509 254.49 74.7392 254.771 74.7392H264.94C265.221 74.7392 265.491 74.8509 265.69 75.0496C265.888 75.2483 266 75.5178 266 75.7989C265.998 76.0787 265.886 76.3465 265.687 76.5437C265.489 76.7409 265.22 76.8516 264.94 76.8516Z" fill="#F0F4FF"/>
<path d="M242.798 81.4755H236.825C236.549 81.4756 236.284 81.3678 236.086 81.1749C235.888 80.9821 235.773 80.7196 235.766 80.4434C235.766 80.1624 235.877 79.8928 236.076 79.6941C236.275 79.4954 236.544 79.3838 236.825 79.3838H242.798C243.078 79.3856 243.345 79.498 243.543 79.6965C243.74 79.8951 243.851 80.1636 243.851 80.4434C243.843 80.7184 243.73 80.9799 243.533 81.1726C243.337 81.3652 243.073 81.4738 242.798 81.4755Z" fill="#F0F4FF"/>
<path d="M264.941 81.4755H246.362C246.083 81.4755 245.814 81.3648 245.616 81.1676C245.417 80.9704 245.305 80.7026 245.303 80.4228C245.303 80.1417 245.414 79.8722 245.613 79.6735C245.812 79.4748 246.081 79.3631 246.362 79.3631H264.941C265.222 79.3631 265.491 79.4748 265.69 79.6735C265.889 79.8722 266 80.1417 266 80.4228C265.998 80.7026 265.886 80.9704 265.687 81.1676C265.489 81.3648 265.22 81.4755 264.941 81.4755Z" fill="#F0F4FF"/>
<path d="M255.348 86.1407H236.825C236.545 86.1407 236.277 86.03 236.078 85.8328C235.88 85.6355 235.767 85.3678 235.766 85.0879C235.766 84.8069 235.877 84.5374 236.076 84.3387C236.275 84.1399 236.544 84.0283 236.825 84.0283H255.348C255.629 84.0283 255.899 84.1399 256.098 84.3387C256.296 84.5374 256.408 84.8069 256.408 85.0879C256.406 85.3678 256.294 85.6355 256.095 85.8328C255.897 86.03 255.628 86.1407 255.348 86.1407Z" fill="#F0F4FF"/>
<path d="M264.941 86.1407H258.969C258.69 86.1407 258.422 86.0298 258.224 85.8324C258.027 85.6349 257.916 85.3672 257.916 85.0879C257.915 84.9491 257.942 84.8115 257.994 84.683C258.047 84.5544 258.124 84.4376 258.222 84.3391C258.32 84.2406 258.436 84.1624 258.564 84.1091C258.693 84.0558 258.83 84.0283 258.969 84.0283H264.941C265.222 84.0283 265.492 84.1399 265.691 84.3387C265.889 84.5374 266.001 84.8069 266.001 85.0879C265.999 85.3678 265.887 85.6355 265.688 85.8328C265.49 86.03 265.221 86.1407 264.941 86.1407Z" fill="#F0F4FF"/>
<path d="M72.884 154.701H23.8101C22.3584 154.701 21.1816 155.878 21.1816 157.329V182.107C21.1816 183.559 22.3584 184.736 23.8101 184.736H72.884C74.3356 184.736 75.5124 183.559 75.5124 182.107V157.329C75.5124 155.878 74.3356 154.701 72.884 154.701Z" fill="#193091"/>
<path d="M23.4863 158.761H73.2001" stroke="white" stroke-width="0.895593" stroke-miterlimit="10" stroke-linecap="round"/>
<path d="M71.8935 157.295C72.2242 157.295 72.4922 157.027 72.4922 156.696C72.4922 156.366 72.2242 156.098 71.8935 156.098C71.5629 156.098 71.2949 156.366 71.2949 156.696C71.2949 157.027 71.5629 157.295 71.8935 157.295Z" fill="white"/>
<path d="M68.749 157.295C69.0796 157.295 69.3476 157.027 69.3476 156.696C69.3476 156.366 69.0796 156.098 68.749 156.098C68.4184 156.098 68.1504 156.366 68.1504 156.696C68.1504 157.027 68.4184 157.295 68.749 157.295Z" fill="white"/>
<path d="M65.6104 157.295C65.941 157.295 66.209 157.027 66.209 156.696C66.209 156.366 65.941 156.098 65.6104 156.098C65.2797 156.098 65.0117 156.366 65.0117 156.696C65.0117 157.027 65.2797 157.295 65.6104 157.295Z" fill="white"/>
<path d="M32.7832 162.807H24.3267C24.1071 162.807 23.8964 162.72 23.7404 162.565C23.5845 162.41 23.496 162.2 23.4941 161.981C23.4941 161.76 23.5819 161.548 23.738 161.392C23.8941 161.236 24.1059 161.148 24.3267 161.148H32.7832C32.8926 161.148 33.0008 161.17 33.1018 161.212C33.2028 161.253 33.2946 161.315 33.3719 161.392C33.4493 161.469 33.5106 161.561 33.5524 161.662C33.5943 161.763 33.6158 161.872 33.6158 161.981C33.614 162.2 33.5255 162.41 33.3695 162.565C33.2136 162.72 33.0028 162.807 32.7832 162.807Z" fill="#6589D1"/>
<path d="M32.7832 166.646H24.3267C24.1059 166.646 23.8941 166.558 23.738 166.402C23.5819 166.246 23.4941 166.034 23.4941 165.813C23.4941 165.593 23.5819 165.381 23.738 165.225C23.8941 165.069 24.1059 164.981 24.3267 164.981H32.7832C32.8926 164.981 33.0008 165.002 33.1018 165.044C33.2028 165.086 33.2946 165.147 33.3719 165.225C33.4493 165.302 33.5106 165.394 33.5524 165.495C33.5943 165.596 33.6158 165.704 33.6158 165.813C33.6158 165.923 33.5943 166.031 33.5524 166.132C33.5106 166.233 33.4493 166.325 33.3719 166.402C33.2946 166.479 33.2028 166.541 33.1018 166.583C33.0008 166.625 32.8926 166.646 32.7832 166.646Z" fill="#6589D1"/>
<path d="M32.7832 170.485H24.3267C24.1071 170.486 23.8964 170.399 23.7404 170.244C23.5845 170.089 23.496 169.879 23.4941 169.66C23.4941 169.439 23.5819 169.227 23.738 169.071C23.8941 168.915 24.1059 168.827 24.3267 168.827H32.7832C32.8926 168.827 33.0008 168.849 33.1018 168.891C33.2028 168.932 33.2946 168.994 33.3719 169.071C33.4493 169.148 33.5106 169.24 33.5524 169.341C33.5943 169.442 33.6158 169.55 33.6158 169.66C33.614 169.879 33.5255 170.089 33.3695 170.244C33.2136 170.399 33.0028 170.486 32.7832 170.485Z" fill="#6589D1"/>
<path d="M32.7832 174.366H24.3267C24.1059 174.366 23.8941 174.279 23.738 174.122C23.5819 173.966 23.4941 173.755 23.4941 173.534C23.4941 173.313 23.5819 173.101 23.738 172.945C23.8941 172.789 24.1059 172.701 24.3267 172.701H32.7832C32.8926 172.701 33.0008 172.723 33.1018 172.765C33.2028 172.806 33.2946 172.868 33.3719 172.945C33.4493 173.022 33.5106 173.114 33.5524 173.215C33.5943 173.316 33.6158 173.424 33.6158 173.534C33.6158 173.643 33.5943 173.751 33.5524 173.852C33.5106 173.953 33.4493 174.045 33.3719 174.122C33.2946 174.2 33.2028 174.261 33.1018 174.303C33.0008 174.345 32.8926 174.366 32.7832 174.366Z" fill="#6589D1"/>
<path d="M32.7832 178.171H24.3267C24.1059 178.171 23.8941 178.084 23.738 177.928C23.5819 177.771 23.4941 177.56 23.4941 177.339C23.4941 177.118 23.5819 176.906 23.738 176.75C23.8941 176.594 24.1059 176.506 24.3267 176.506H32.7832C32.8926 176.506 33.0008 176.528 33.1018 176.57C33.2028 176.611 33.2946 176.673 33.3719 176.75C33.4493 176.827 33.5106 176.919 33.5524 177.02C33.5943 177.121 33.6158 177.229 33.6158 177.339C33.6158 177.448 33.5943 177.556 33.5524 177.657C33.5106 177.758 33.4493 177.85 33.3719 177.928C33.2946 178.005 33.2028 178.066 33.1018 178.108C33.0008 178.15 32.8926 178.171 32.7832 178.171Z" fill="#6589D1"/>
<path d="M32.7832 182.011H24.3267C24.1071 182.011 23.8964 181.924 23.7404 181.769C23.5845 181.615 23.496 181.405 23.4941 181.185C23.4941 180.964 23.5819 180.753 23.738 180.596C23.8941 180.44 24.1059 180.353 24.3267 180.353H32.7832C32.8926 180.353 33.0008 180.374 33.1018 180.416C33.2028 180.458 33.2946 180.519 33.3719 180.596C33.4493 180.674 33.5106 180.766 33.5524 180.867C33.5943 180.968 33.6158 181.076 33.6158 181.185C33.614 181.405 33.5255 181.615 33.3695 181.769C33.2136 181.924 33.0028 182.011 32.7832 182.011Z" fill="#6589D1"/>
<path d="M72.3752 162.807H36.024C35.8044 162.807 35.5936 162.72 35.4377 162.565C35.2817 162.41 35.1932 162.2 35.1914 161.981C35.1914 161.76 35.2791 161.548 35.4353 161.392C35.5914 161.236 35.8032 161.148 36.024 161.148H72.3752C72.5961 161.148 72.8078 161.236 72.964 161.392C73.1201 161.548 73.2078 161.76 73.2078 161.981C73.206 162.2 73.1175 162.41 72.9615 162.565C72.8056 162.72 72.5949 162.807 72.3752 162.807Z" fill="#3B5FB7"/>
<path d="M72.3752 166.646H36.024C35.8032 166.646 35.5914 166.558 35.4353 166.402C35.2791 166.246 35.1914 166.034 35.1914 165.813C35.1914 165.593 35.2791 165.381 35.4353 165.225C35.5914 165.069 35.8032 164.981 36.024 164.981H72.3752C72.5961 164.981 72.8078 165.069 72.964 165.225C73.1201 165.381 73.2078 165.593 73.2078 165.813C73.2078 165.923 73.1863 166.031 73.1444 166.132C73.1026 166.233 73.0413 166.325 72.964 166.402C72.8867 166.479 72.7949 166.541 72.6939 166.583C72.5928 166.625 72.4846 166.646 72.3752 166.646Z" fill="#3B5FB7"/>
<path d="M72.3752 170.485H36.024C35.8044 170.486 35.5936 170.399 35.4377 170.244C35.2817 170.089 35.1932 169.879 35.1914 169.66C35.1914 169.439 35.2791 169.227 35.4353 169.071C35.5914 168.915 35.8032 168.827 36.024 168.827H72.3752C72.5961 168.827 72.8078 168.915 72.964 169.071C73.1201 169.227 73.2078 169.439 73.2078 169.66C73.206 169.879 73.1175 170.089 72.9615 170.244C72.8056 170.399 72.5949 170.486 72.3752 170.485Z" fill="#3B5FB7"/>
<path d="M72.3752 174.366H36.024C35.8032 174.366 35.5914 174.279 35.4353 174.122C35.2791 173.966 35.1914 173.755 35.1914 173.534C35.1914 173.313 35.2791 173.101 35.4353 172.945C35.5914 172.789 35.8032 172.701 36.024 172.701H72.3752C72.5961 172.701 72.8078 172.789 72.964 172.945C73.1201 173.101 73.2078 173.313 73.2078 173.534C73.2078 173.643 73.1863 173.751 73.1444 173.852C73.1026 173.953 73.0413 174.045 72.964 174.122C72.8867 174.2 72.7949 174.261 72.6939 174.303C72.5928 174.345 72.4846 174.366 72.3752 174.366Z" fill="#3B5FB7"/>
<path d="M72.3752 178.171H36.024C35.8032 178.171 35.5914 178.084 35.4353 177.928C35.2791 177.771 35.1914 177.56 35.1914 177.339C35.1914 177.118 35.2791 176.906 35.4353 176.75C35.5914 176.594 35.8032 176.506 36.024 176.506H72.3752C72.5961 176.506 72.8078 176.594 72.964 176.75C73.1201 176.906 73.2078 177.118 73.2078 177.339C73.2078 177.448 73.1863 177.556 73.1444 177.657C73.1026 177.758 73.0413 177.85 72.964 177.928C72.8867 178.005 72.7949 178.066 72.6939 178.108C72.5928 178.15 72.4846 178.171 72.3752 178.171Z" fill="#3B5FB7"/>
<path d="M72.3752 182.011H36.024C35.8044 182.011 35.5936 181.924 35.4377 181.769C35.2817 181.615 35.1932 181.405 35.1914 181.185C35.1914 180.964 35.2791 180.753 35.4353 180.596C35.5914 180.44 35.8032 180.353 36.024 180.353H72.3752C72.5961 180.353 72.8078 180.44 72.964 180.596C73.1201 180.753 73.2078 180.964 73.2078 181.185C73.206 181.405 73.1175 181.615 72.9615 181.769C72.8056 181.924 72.5949 182.011 72.3752 182.011Z" fill="#3B5FB7"/>
<path d="M327.586 27.8351C330.464 15.8207 323.057 3.74812 311.043 0.870349C299.028 -2.00742 286.956 5.39935 284.078 17.4138C281.2 29.4283 288.607 41.5009 300.621 44.3786C312.636 47.2564 324.708 39.8496 327.586 27.8351Z" stroke="#E0E0E0" stroke-width="0.789569" stroke-miterlimit="10"/>
<path d="M313.724 40.3987C323.545 36.053 327.983 24.5688 323.638 14.7481C319.292 4.92742 307.808 0.489142 297.987 4.83492C288.166 9.18069 283.728 20.6649 288.074 30.4856C292.42 40.3062 303.904 44.7445 313.724 40.3987Z" fill="#407BFF"/>
<path d="M307.629 22.6378C307.63 22.9895 307.527 23.3337 307.332 23.6267C307.138 23.9197 306.861 24.1483 306.536 24.2835C306.211 24.4187 305.854 24.4544 305.509 24.3862C305.164 24.3179 304.847 24.1487 304.598 23.9C304.349 23.6513 304.18 23.3343 304.112 22.9893C304.044 22.6443 304.079 22.2868 304.215 21.9622C304.35 21.6375 304.578 21.3603 304.871 21.1658C305.164 20.9712 305.509 20.8681 305.86 20.8695C306.329 20.8695 306.779 21.0558 307.111 21.3874C307.442 21.719 307.629 22.1688 307.629 22.6378Z" fill="white"/>
<path d="M305.661 22.3007C305.533 22.3702 305.383 22.3869 305.243 22.347C305.102 22.3071 304.983 22.2139 304.911 22.0874L299.193 11.7662C299.158 11.7029 299.135 11.6334 299.127 11.5614C299.118 11.4895 299.124 11.4166 299.144 11.3469C299.164 11.2772 299.197 11.2121 299.242 11.1554C299.287 11.0986 299.343 11.0513 299.406 11.0162C299.536 10.9462 299.687 10.9294 299.828 10.9692C299.969 11.0091 300.09 11.1024 300.163 11.2295L305.881 21.5507C305.95 21.6796 305.966 21.8304 305.925 21.9707C305.883 22.111 305.789 22.2295 305.661 22.3007Z" fill="white"/>
<path d="M306.136 22.9199C306.241 22.8166 306.382 22.7586 306.529 22.7586C306.676 22.7586 306.817 22.8166 306.921 22.9199L311.868 27.8672C311.92 27.9184 311.962 27.9795 311.99 28.0468C312.018 28.1142 312.032 28.1864 312.032 28.2594C312.032 28.3324 312.018 28.4047 311.99 28.472C311.962 28.5394 311.92 28.6004 311.868 28.6516C311.817 28.7036 311.756 28.7449 311.689 28.7731C311.621 28.8013 311.549 28.8159 311.476 28.8159C311.403 28.8159 311.331 28.8013 311.263 28.7731C311.196 28.7449 311.135 28.7036 311.084 28.6516L306.136 23.6768C306.041 23.5738 305.988 23.4387 305.988 23.2984C305.988 23.1581 306.041 23.0229 306.136 22.9199Z" fill="white"/>
<path d="M305.979 7.07346V4.8372" stroke="white" stroke-width="2" stroke-miterlimit="10" stroke-linecap="round"/>
<path d="M321.418 22.7548H323.654" stroke="white" stroke-width="2" stroke-miterlimit="10" stroke-linecap="round"/>
<path d="M305.736 38.2022V40.4384" stroke="white" stroke-width="2" stroke-miterlimit="10" stroke-linecap="round"/>
<path d="M290.289 22.5208H288.053" stroke="white" stroke-width="2" stroke-miterlimit="10" stroke-linecap="round"/>
<g opacity="0.5">
<path d="M298.175 9.09641L297.061 7.1629" stroke="#E0E0E0" stroke-miterlimit="10" stroke-linecap="round"/>
<path d="M319.395 14.9589L321.328 13.8442" stroke="#E0E0E0" stroke-miterlimit="10" stroke-linecap="round"/>
<path d="M313.533 36.1792L314.655 38.1127" stroke="#E0E0E0" stroke-miterlimit="10" stroke-linecap="round"/>
<path d="M292.319 30.3168L290.379 31.4384" stroke="#E0E0E0" stroke-miterlimit="10" stroke-linecap="round"/>
</g>
<g opacity="0.5">
<path d="M292.436 14.7524L290.496 13.6377" stroke="#E0E0E0" stroke-miterlimit="10" stroke-linecap="round"/>
<path d="M313.74 9.22026L314.862 7.27988" stroke="#E0E0E0" stroke-miterlimit="10" stroke-linecap="round"/>
<path d="M319.271 30.5232L321.212 31.6379" stroke="#E0E0E0" stroke-miterlimit="10" stroke-linecap="round"/>
<path d="M297.968 36.0554L296.854 37.9958" stroke="#E0E0E0" stroke-miterlimit="10" stroke-linecap="round"/>
</g>
<path d="M40.1112 97.4665H15.5537C11.9169 97.4665 8.96875 100.415 8.96875 104.051V128.609C8.96875 132.246 11.9169 135.194 15.5537 135.194H40.1112C43.748 135.194 46.6962 132.246 46.6962 128.609V104.051C46.6962 100.415 43.748 97.4665 40.1112 97.4665Z" fill="#2B6CFE"/>
<path d="M38.4948 94.1981H11.3225C8.40778 94.1981 6.04492 96.561 6.04492 99.4757V126.648C6.04492 129.563 8.40778 131.926 11.3225 131.926H38.4948C41.4095 131.926 43.7723 129.563 43.7723 126.648V99.4757C43.7723 96.561 41.4095 94.1981 38.4948 94.1981Z" fill="#407BFF" stroke="#E0E0E0" stroke-miterlimit="10"/>
<path d="M31.4479 108.744H31.2484V106.584C31.2484 104.877 30.5705 103.241 29.364 102.034C28.1575 100.828 26.5211 100.15 24.8148 100.15C23.1085 100.15 21.4721 100.828 20.2656 102.034C19.0591 103.241 18.3813 104.877 18.3813 106.584V108.744H18.3331C17.8531 108.744 17.3928 108.935 17.0535 109.274C16.7141 109.614 16.5234 110.074 16.5234 110.554V118.694C16.5234 119.174 16.7141 119.634 17.0535 119.973C17.3928 120.313 17.8531 120.503 18.3331 120.503H31.441C31.9198 120.502 32.3783 120.31 32.7162 119.971C33.0541 119.632 33.2438 119.173 33.2438 118.694V110.554C33.2438 110.076 33.055 109.618 32.7186 109.279C32.3822 108.94 31.9254 108.748 31.4479 108.744ZM20.012 106.584C20.012 105.306 20.5195 104.081 21.4227 103.178C22.326 102.274 23.5511 101.767 24.8286 101.767C26.106 101.767 27.3311 102.274 28.2344 103.178C29.1377 104.081 29.6451 105.306 29.6451 106.584V108.744H20.012V106.584Z" fill="#E0E0E0"/>
<path d="M27.0098 112.935C27.0101 112.567 26.9137 112.205 26.7302 111.886C26.5467 111.567 26.2825 111.302 25.9642 111.117C25.646 110.933 25.2847 110.835 24.9168 110.834C24.5488 110.833 24.1871 110.929 23.8678 111.112C23.5485 111.295 23.283 111.558 23.0978 111.876C22.9125 112.194 22.8142 112.555 22.8125 112.923C22.8109 113.291 22.906 113.653 23.0884 113.973C23.2707 114.292 23.5339 114.558 23.8515 114.744C23.9254 114.783 23.9844 114.845 24.0193 114.921C24.0541 114.997 24.0629 115.082 24.0442 115.164L23.6795 116.54C23.6306 116.726 23.625 116.921 23.6633 117.11C23.7016 117.299 23.7827 117.476 23.9003 117.629C24.018 117.781 24.169 117.905 24.3419 117.99C24.5147 118.075 24.7048 118.119 24.8974 118.119C25.09 118.119 25.28 118.075 25.4529 117.99C25.6257 117.905 25.7768 117.781 25.8944 117.629C26.0121 117.476 26.0932 117.299 26.1314 117.11C26.1697 116.921 26.1642 116.726 26.1153 116.54L25.7506 115.205C25.7302 115.123 25.7381 115.036 25.7731 114.959C25.808 114.881 25.868 114.818 25.9433 114.779C26.2719 114.597 26.5449 114.33 26.7328 114.005C26.9207 113.68 27.0165 113.31 27.0098 112.935Z" fill="#7E89FD"/>
<path d="M32.4739 123.359H17.3361C17.1305 123.357 16.9337 123.275 16.7883 123.129C16.6429 122.984 16.5604 122.787 16.5586 122.581C16.5604 122.376 16.6431 122.18 16.7887 122.036C16.9344 121.892 17.1311 121.811 17.3361 121.811H32.4739C32.5757 121.81 32.6766 121.829 32.7709 121.867C32.8652 121.906 32.951 121.962 33.0233 122.034C33.0956 122.106 33.1529 122.191 33.1921 122.285C33.2313 122.379 33.2514 122.48 33.2514 122.581C33.2514 122.788 33.1695 122.985 33.0237 123.131C32.8779 123.277 32.6801 123.359 32.4739 123.359Z" fill="#E0E0E0"/>
<path d="M32.4739 125.981H17.3361C17.1311 125.981 16.9344 125.9 16.7887 125.755C16.6431 125.611 16.5604 125.415 16.5586 125.21C16.5586 125.004 16.6405 124.806 16.7863 124.66C16.9321 124.514 17.1299 124.432 17.3361 124.432H32.4739C32.5762 124.431 32.6778 124.451 32.7725 124.49C32.8673 124.528 32.9533 124.586 33.0257 124.658C33.0981 124.73 33.1553 124.817 33.1941 124.911C33.2328 125.006 33.2523 125.108 33.2514 125.21C33.2514 125.312 33.2313 125.412 33.1921 125.506C33.1529 125.6 33.0956 125.686 33.0233 125.757C32.951 125.829 32.8652 125.886 32.7709 125.924C32.6766 125.962 32.5757 125.981 32.4739 125.981Z" fill="#E0E0E0"/>
<path d="M337.306 157.336H322.843C320.703 157.336 318.969 159.071 318.969 161.21V175.674C318.969 177.813 320.703 179.548 322.843 179.548H337.306C339.446 179.548 341.18 177.813 341.18 175.674V161.21C341.18 159.071 339.446 157.336 337.306 157.336Z" fill="#2B6CFE"/>
<path d="M336.356 155.41H320.351C318.637 155.41 317.248 156.799 317.248 158.513V174.518C317.248 176.232 318.637 177.621 320.351 177.621H336.356C338.07 177.621 339.459 176.232 339.459 174.518V158.513C339.459 156.799 338.07 155.41 336.356 155.41Z" fill="#407BFF" stroke="#E0E0E0" stroke-miterlimit="10"/>
<path d="M323.84 173.155C323.778 173.162 323.716 173.162 323.654 173.155C323.567 173.131 323.485 173.089 323.414 173.033C323.343 172.977 323.283 172.907 323.239 172.827C323.195 172.748 323.167 172.661 323.157 172.571C323.146 172.481 323.154 172.389 323.179 172.302L326.592 160.385C326.642 160.21 326.759 160.061 326.917 159.973C327.076 159.884 327.263 159.861 327.439 159.91C327.526 159.934 327.608 159.976 327.679 160.032C327.75 160.088 327.809 160.158 327.854 160.238C327.898 160.317 327.926 160.404 327.936 160.494C327.946 160.584 327.938 160.676 327.913 160.763L324.528 172.653C324.486 172.802 324.396 172.932 324.271 173.023C324.146 173.115 323.994 173.161 323.84 173.155Z" fill="white"/>
<path d="M329.489 173.155C329.425 173.162 329.361 173.162 329.297 173.155C329.209 173.131 329.128 173.089 329.056 173.033C328.985 172.977 328.926 172.907 328.882 172.827C328.838 172.748 328.81 172.661 328.799 172.571C328.789 172.481 328.797 172.389 328.822 172.302L332.18 160.412C332.23 160.236 332.348 160.087 332.508 159.998C332.668 159.909 332.857 159.887 333.033 159.937C333.209 159.987 333.358 160.106 333.447 160.266C333.536 160.426 333.558 160.614 333.508 160.79L330.15 172.68C330.105 172.82 330.016 172.941 329.897 173.026C329.778 173.111 329.636 173.157 329.489 173.155Z" fill="white"/>
<path d="M334.299 164.513H322.409C322.226 164.513 322.051 164.441 321.922 164.311C321.793 164.182 321.721 164.007 321.721 163.825C321.721 163.642 321.793 163.467 321.922 163.338C322.051 163.209 322.226 163.137 322.409 163.137H334.299C334.481 163.137 334.656 163.209 334.785 163.338C334.914 163.467 334.987 163.642 334.987 163.825C334.987 164.007 334.914 164.182 334.785 164.311C334.656 164.441 334.481 164.513 334.299 164.513Z" fill="white"/>
<path d="M334.299 169.942H322.409C322.226 169.942 322.051 169.869 321.922 169.74C321.793 169.611 321.721 169.436 321.721 169.254C321.721 169.071 321.793 168.896 321.922 168.767C322.051 168.638 322.226 168.566 322.409 168.566H334.299C334.481 168.566 334.656 168.638 334.785 168.767C334.914 168.896 334.987 169.071 334.987 169.254C334.987 169.436 334.914 169.611 334.785 169.74C334.656 169.869 334.481 169.942 334.299 169.942Z" fill="white"/>
<path d="M69.1609 108.999H60.5599C60.3098 108.999 60.0701 108.899 59.8933 108.723C59.7165 108.546 59.6172 108.306 59.6172 108.056C59.6172 107.806 59.7165 107.566 59.8933 107.389C60.0701 107.213 60.3098 107.113 60.5599 107.113H69.1609C69.4109 107.113 69.6506 107.213 69.8274 107.389C70.0042 107.566 70.1035 107.806 70.1035 108.056C70.1035 108.306 70.0042 108.546 69.8274 108.723C69.6506 108.899 69.4109 108.999 69.1609 108.999Z" fill="#F0F4FF"/>
<path d="M77.8238 113.175H60.5599C60.3098 113.175 60.0701 113.076 59.8933 112.899C59.7165 112.722 59.6172 112.483 59.6172 112.233C59.619 111.983 59.7189 111.744 59.8953 111.568C60.0717 111.392 60.3104 111.292 60.5599 111.29H77.8238C78.0738 111.29 78.3136 111.389 78.4903 111.566C78.6671 111.743 78.7664 111.983 78.7664 112.233C78.7664 112.483 78.6671 112.722 78.4903 112.899C78.3136 113.076 78.0738 113.175 77.8238 113.175Z" fill="#F0F4FF"/>
<path d="M62.6046 117.366H60.5403C60.2909 117.364 60.0521 117.264 59.8758 117.088C59.6994 116.911 59.5995 116.673 59.5977 116.423C59.5977 116.173 59.697 115.933 59.8738 115.757C60.0505 115.58 60.2903 115.48 60.5403 115.48H62.6046C62.8546 115.48 63.0943 115.58 63.2711 115.757C63.4479 115.933 63.5472 116.173 63.5472 116.423C63.5454 116.673 63.4455 116.911 63.2691 117.088C63.0927 117.264 62.854 117.364 62.6046 117.366Z" fill="#F0F4FF"/>
<path d="M77.8237 117.366H65.8099C65.5604 117.364 65.3217 117.264 65.1453 117.088C64.9689 116.911 64.869 116.673 64.8672 116.423C64.8672 116.173 64.9665 115.933 65.1433 115.757C65.3201 115.58 65.5598 115.48 65.8099 115.48H77.8306C78.0806 115.48 78.3204 115.58 78.4972 115.757C78.674 115.933 78.7733 116.173 78.7733 116.423C78.7733 116.547 78.7487 116.671 78.7009 116.785C78.6531 116.9 78.583 117.004 78.4947 117.092C78.4065 117.18 78.3018 117.249 78.1866 117.296C78.0714 117.343 77.9481 117.367 77.8237 117.366Z" fill="#F0F4FF"/>
<path d="M77.8253 108.999H72.6165C72.3665 108.999 72.1267 108.899 71.9499 108.723C71.7731 108.546 71.6738 108.306 71.6738 108.056C71.6738 107.806 71.7731 107.566 71.9499 107.389C72.1267 107.213 72.3665 107.113 72.6165 107.113H77.8253C78.0753 107.113 78.315 107.213 78.4918 107.389C78.6686 107.566 78.7679 107.806 78.7679 108.056C78.7679 108.306 78.6686 108.546 78.4918 108.723C78.315 108.899 78.0753 108.999 77.8253 108.999Z" fill="#F0F4FF"/>
<path d="M29.3427 237.615C28.2646 237.611 27.206 237.901 26.2807 238.454C26.0949 236.822 25.2918 235.323 24.0359 234.264C22.7801 233.204 21.1668 232.666 19.5266 232.758C17.8865 232.851 16.3438 233.567 15.2148 234.76C14.0859 235.954 13.4562 237.534 13.4549 239.177C13.4555 239.406 13.4693 239.636 13.4962 239.865C12.8229 239.734 12.1299 239.747 11.4616 239.9C10.7934 240.054 10.1647 240.346 9.61608 240.757C9.06745 241.169 8.61101 241.69 8.27612 242.289C7.94124 242.887 7.73532 243.549 7.67163 244.232C7.60794 244.915 7.68788 245.603 7.90631 246.253C8.12474 246.903 8.47682 247.5 8.9399 248.006C9.40298 248.512 9.9668 248.915 10.5951 249.19C11.2234 249.464 11.9022 249.604 12.5879 249.601H29.3427C30.1482 249.628 30.9509 249.493 31.7031 249.204C32.4553 248.914 33.1415 248.476 33.721 247.916C34.3005 247.356 34.7613 246.685 35.076 245.943C35.3907 245.201 35.5529 244.403 35.5529 243.597C35.5529 242.791 35.3907 241.994 35.076 241.252C34.7613 240.51 34.3005 239.839 33.721 239.279C33.1415 238.718 32.4553 238.281 31.7031 237.991C30.9509 237.702 30.1482 237.567 29.3427 237.594V237.615Z" fill="white"/>
<path d="M-52.6152 249.615H394.788" stroke="white" stroke-width="1.1144" stroke-miterlimit="10" stroke-linecap="round"/>
</g>
<defs>
<clipPath id="clip0_1281_18631">
<rect width="363" height="250" fill="white"/>
</clipPath>
</defs>
</svg>
