<svg width="263" height="200" viewBox="0 0 263 200" fill="none" xmlns="http://www.w3.org/2000/svg">
<g clip-path="url(#clip0_1060_24911)">
<g clip-path="url(#clip1_1060_24911)">
<path d="M56.3304 180.647V131.888C56.3304 131.888 55.7868 118.744 62.6962 114.952C69.6056 111.16 98.7169 113.19 98.7169 113.19V180.647H56.3304Z" fill="#1C83FF"/>
</g>
<path d="M106.305 67.6141C106.305 67.6141 104.544 82.3892 103.869 83.6073L103.214 84.8255L99.8281 87.1308C99.8281 87.1308 106.332 96.3456 114.328 97.8322C122.325 99.3189 121.644 94.5576 121.644 94.5576L120.425 91.9838L122.05 77.8899C122.05 77.8899 107.523 71.2751 106.305 67.6141Z" fill="#FF9D8C"/>
<path d="M95.6055 88.3489L100.891 86.0436C100.891 86.0436 104.277 91.5973 112.136 94.8523C119.995 98.1072 120.132 96.208 120.538 94.8523C120.761 93.9108 120.714 92.9255 120.401 92.0099L120.984 87.2617L124.127 88.3096L135.032 176.56L106.988 177.916L95.6055 88.3489Z" fill="white"/>
<path d="M121.48 87.3535C121.48 87.3535 123.38 91.7349 125.141 102.037C126.903 112.339 128.527 129.675 128.933 141.601C129.34 153.527 129.588 180.758 129.588 180.758H164.954C165.36 180.758 167.797 167.346 167.797 167.346C167.797 167.346 152.373 154.11 151.568 151.922C151.024 150.481 151.293 123.695 148.987 111.363C146.682 99.0308 143.709 96.5486 137.474 93.477C131.029 90.3203 121.48 87.3535 121.48 87.3535Z" fill="black"/>
<path d="M139.93 165.237C139.843 165.235 139.761 165.2 139.7 165.139C139.639 165.078 139.604 164.996 139.602 164.909C139.602 163.94 139.432 150.174 139.268 136.859C139.105 123.544 138.928 109.784 138.928 108.809C138.928 108.722 138.962 108.639 139.024 108.577C139.085 108.516 139.168 108.481 139.255 108.481C139.342 108.481 139.425 108.516 139.487 108.577C139.548 108.639 139.583 108.722 139.583 108.809C139.583 109.778 139.753 123.544 139.917 136.852C140.08 150.16 140.257 163.933 140.257 164.909C140.257 164.996 140.223 165.079 140.161 165.141C140.1 165.202 140.017 165.237 139.93 165.237Z" fill="#8593B6"/>
<path d="M69.4527 161.923L69.1973 180.739H110.392C110.392 180.739 112.154 164.752 111.472 163.259C110.791 161.766 69.4527 161.923 69.4527 161.923Z" fill="black"/>
<g style="mix-blend-mode:multiply">
<path d="M115.299 83.2013C117.051 84.5187 118.995 85.5611 121.062 86.2925L122.025 77.9161C122.025 77.9161 111.133 72.9256 107.439 69.2122C108.212 73.4299 110.112 79.0163 115.299 83.2013Z" fill="#8E9BBB"/>
</g>
<path d="M134.762 40.1074C136.589 43.4664 137.74 47.1511 138.148 50.9529C138.692 56.9127 138.148 72.2248 133.269 78.7281C128.39 85.2315 118.206 83.3126 113.621 79.3831C109.397 75.781 105.225 71.7991 104.138 63.94C103.051 56.081 106.444 41.1749 116.064 38.0575C125.685 34.9401 134.762 40.1074 134.762 40.1074Z" fill="#FF9D8C"/>
<path d="M146.984 172.225C146.984 172.225 146.506 172.225 145.779 172.225H145.222L142.812 172.159H142.236C141.384 172.159 140.657 172.244 139.976 172.205C139.832 172.205 139.623 172.205 139.452 172.205C139.38 172.211 139.308 172.211 139.236 172.205C138.921 172.133 138.618 172.014 138.339 171.851C133.743 170.682 129.026 170.053 124.284 169.978C118.233 169.978 112.804 170.417 111.919 169.677C111.035 168.937 110.459 161.32 115.639 160.823L121.992 163.233C121.992 163.233 136.499 161.51 141.817 165.433C147.135 169.356 146.984 172.225 146.984 172.225Z" fill="#FF9D8C"/>
<path d="M139.93 172.179C139.786 172.179 139.576 172.179 139.406 172.179C139.239 171.916 139.053 171.667 138.849 171.432C137.212 169.762 133.256 168.682 131.822 168.335C131.759 168.319 131.705 168.279 131.67 168.224C131.636 168.169 131.625 168.103 131.639 168.04C131.646 168.008 131.66 167.978 131.679 167.951C131.699 167.925 131.723 167.903 131.751 167.886C131.779 167.868 131.81 167.857 131.843 167.852C131.875 167.847 131.908 167.849 131.94 167.856C134.029 168.361 138.489 169.651 139.72 171.786C139.786 171.845 139.891 172.048 139.93 172.179Z" fill="black"/>
<path d="M142.817 172.146C142.627 172.146 142.431 172.146 142.241 172.146C140.453 168.872 137.526 167.955 133.91 166.789L133.701 166.717C133.67 166.707 133.642 166.691 133.617 166.671C133.593 166.65 133.572 166.625 133.558 166.596C133.543 166.567 133.534 166.536 133.532 166.504C133.53 166.472 133.534 166.44 133.544 166.409C133.553 166.378 133.569 166.35 133.59 166.325C133.611 166.301 133.636 166.281 133.665 166.266C133.693 166.251 133.725 166.242 133.757 166.24C133.789 166.238 133.821 166.242 133.852 166.252L134.035 166.33C137.886 167.529 140.957 168.511 142.817 172.146Z" fill="black"/>
<path d="M145.785 172.225H145.229C144.242 170.459 142.892 168.922 141.267 167.716C139.642 166.511 137.781 165.663 135.804 165.23C135.772 165.225 135.741 165.213 135.714 165.195C135.686 165.178 135.662 165.155 135.643 165.128C135.624 165.102 135.611 165.071 135.604 165.039C135.597 165.007 135.596 164.974 135.601 164.942C135.617 164.88 135.655 164.825 135.708 164.789C135.761 164.753 135.826 164.737 135.89 164.746C140.782 165.676 144.724 169.658 145.785 172.225Z" fill="black"/>
<path d="M107.394 57.2533C109.59 55.9914 111.359 54.1033 112.476 51.8305C113.724 49.4982 114.353 46.8848 114.303 44.24C114.303 44.24 118.095 43.6309 123.787 45.3271C129.478 47.0234 136.23 49.3222 141.948 46.0737C147.665 42.8253 147.639 37.6056 144.855 35.4378C141.745 33.0081 135.575 34.4882 135.575 34.4882C135.575 34.4882 137.946 32.1829 136.662 30.8272C135.379 29.4715 130.696 31.2332 130.696 31.2332C130.696 31.2332 125.005 26.6946 114.238 27.2382C103.471 27.7818 98.3166 35.3003 97.701 43.7029C97.0854 52.1056 100.144 60.5017 100.144 60.5017L107.394 57.2533Z" fill="black"/>
<g style="mix-blend-mode:multiply">
<path d="M129.248 59.2901C128.639 60.7898 128.652 62.5647 128.495 64.1365C128.377 65.3808 128.148 66.8282 129.287 67.6665C129.831 68.066 132.405 69.1466 131.082 70.0242C130.473 70.2769 129.806 70.3518 129.156 70.2404C128.763 70.2404 128.364 70.2076 127.964 70.1749C127.565 70.1421 127.126 70.0177 126.7 70.0111C126.647 70.0131 126.596 70.032 126.555 70.065C126.513 70.0981 126.484 70.1435 126.47 70.1946C126.456 70.2458 126.459 70.3001 126.478 70.3495C126.497 70.399 126.531 70.441 126.576 70.4696C127.342 70.8676 128.195 71.07 129.058 71.059C129.766 71.1386 130.482 71.0136 131.121 70.6988C131.353 70.6153 131.56 70.4751 131.724 70.2909C131.887 70.1067 132.002 69.8844 132.058 69.6444C132.059 69.3534 131.986 69.0669 131.843 68.8131C131.701 68.5594 131.495 68.347 131.245 68.197C130.735 67.8171 130.106 67.6403 129.589 67.267C128.875 66.7562 128.934 65.8917 128.979 65.0861C129.104 63.1607 129.549 61.2679 129.719 59.349C129.719 59.0608 129.34 59.0608 129.248 59.2901Z" fill="#8E9BBB"/>
</g>
<path d="M134.782 63.7959C134.586 64.9355 133.754 65.7607 132.929 65.5969C132.104 65.4332 131.619 64.405 131.802 63.2654C131.986 62.1258 132.837 61.3006 133.662 61.4578C134.487 61.615 134.985 62.6498 134.782 63.7959Z" fill="black"/>
<path d="M124.415 62.8856C124.231 64.1234 123.367 65.0141 122.45 64.8503C121.533 64.6866 120.99 63.606 121.14 62.3747C121.291 61.1435 122.195 60.2528 123.105 60.41C124.015 60.5671 124.598 61.6543 124.415 62.8856Z" fill="black"/>
<path d="M132.372 59.0871C133.027 59.1919 133.642 59.0871 134.284 59.1264L134.742 59.1722H134.69H134.788L135.024 59.218C135.162 59.2573 135.293 59.3032 135.43 59.3359C135.557 59.3662 135.686 59.3837 135.817 59.3883H136.026H135.895C135.98 59.3935 136.065 59.3935 136.151 59.3883C136.328 59.3379 136.478 59.2195 136.569 59.0589C136.66 58.8983 136.684 58.7084 136.635 58.5304C136.612 58.4291 136.565 58.3348 136.498 58.2553L136.419 58.1505L136.491 58.2357L136.406 58.1243C136.374 58.0627 136.324 58.0124 136.262 57.9802L136.111 57.8624C135.93 57.7505 135.73 57.6707 135.522 57.6266C135.141 57.5306 134.749 57.4801 134.356 57.476C133.97 57.4804 133.585 57.511 133.203 57.5676C132.851 57.6084 132.514 57.7343 132.221 57.9344C132.111 58.0012 132.023 58.099 131.968 58.2155C131.914 58.332 131.894 58.462 131.913 58.5893C131.93 58.7133 131.983 58.8297 132.064 58.9249C132.145 59.0201 132.252 59.09 132.372 59.1264V59.0871Z" fill="black"/>
<path d="M125.142 57.2728C125.059 57.2205 124.971 57.1745 124.88 57.1353C124.802 57.1026 124.592 56.9912 124.749 57.0764L124.579 56.9847C124.318 56.8575 124.043 56.7587 123.761 56.69C123.138 56.5354 122.493 56.491 121.855 56.559C121.192 56.6127 120.55 56.8141 119.975 57.1484C119.89 57.1954 119.811 57.2526 119.739 57.3187L119.602 57.4955L119.641 57.4366C119.553 57.498 119.48 57.5804 119.431 57.6763C119.382 57.7723 119.358 57.8789 119.359 57.9867C119.358 58.0871 119.384 58.1859 119.435 58.2725C119.486 58.3591 119.559 58.4301 119.648 58.4779C119.857 58.5645 120.093 58.5645 120.303 58.4779H119.962C120.128 58.5139 120.3 58.5139 120.466 58.4779C120.466 58.4779 120.65 58.4321 120.538 58.4779C120.427 58.5237 120.722 58.4779 120.754 58.4779C120.787 58.4779 120.99 58.4779 120.754 58.4779H120.872L121.18 58.4452C121.626 58.4452 122.071 58.3928 122.49 58.3797C122.909 58.3666 123.335 58.3797 123.747 58.3797H124.284C124.337 58.3797 124.383 58.3797 124.284 58.3797H124.396L124.612 58.4452C124.759 58.4804 124.913 58.4639 125.049 58.3982C125.186 58.3326 125.295 58.2219 125.359 58.0849C125.412 57.9438 125.415 57.7885 125.368 57.6453C125.32 57.5021 125.224 57.3798 125.097 57.299L125.142 57.2728Z" fill="black"/>
<path d="M128.364 76.1084C129.027 74.8559 130.107 73.8739 131.416 73.3315C130.283 73.2202 124.919 72.7224 123.557 73.4887C122.037 74.3467 123.832 77.8046 126.969 77.9749C127.273 77.9915 127.579 77.9739 127.879 77.9225C127.91 77.2902 128.075 76.6717 128.364 76.1084Z" fill="black"/>
<path d="M103.594 68.8388C103.594 68.8388 104.137 70.9345 107.255 73.3774C109.621 75.0873 112.185 76.5057 114.891 77.6016L115.251 76.0167C115.251 76.0167 110.575 73.9864 108.407 71.7466C106.24 69.5068 105.965 68.2952 105.965 68.2952L103.594 68.8388Z" fill="#DEE1EB"/>
<path d="M115.797 74.851C116.741 74.796 117.674 75.0836 118.424 75.6611C119.173 76.2386 119.689 77.0672 119.877 77.9946C120.054 79.3045 118.849 80.7191 116.026 79.4551C112.522 77.9161 113.288 74.9624 115.797 74.851Z" fill="black"/>
<path d="M105.559 53.3237C105.559 53.3237 106.647 45.5367 111.86 40.2253C121.821 30.1329 130.289 30.742 130.289 30.742C130.289 30.742 130.224 29.3208 127.015 28.2337C124.022 27.2185 122.679 27.7621 122.679 27.7621C122.679 27.7621 114.48 28.4171 107.57 36.0927C100.661 43.7684 99.9141 53.5071 99.9141 53.5071L105.559 53.3237Z" fill="#DEE1EB"/>
<path d="M104.82 52.3741C98.2704 51.2673 94.6552 56.3691 94.3867 61.543C94.1181 66.7169 97.8512 70.6071 102.855 70.2142C114.1 69.3104 112.81 53.7298 104.82 52.3741Z" fill="white"/>
<path d="M101.572 65.1844C100.747 65.1976 99.9355 64.9817 99.2267 64.5608C98.5179 64.1399 97.9398 63.5305 97.5568 62.8005C97.1204 62.0101 96.9075 61.1157 96.9409 60.2134C96.9744 59.3111 97.253 58.435 97.7468 57.679C97.7652 57.6518 97.7888 57.6286 97.8162 57.6105C97.8437 57.5925 97.8744 57.5801 97.9067 57.574C97.939 57.5679 97.9721 57.5683 98.0042 57.5751C98.0364 57.5819 98.0668 57.5949 98.0939 57.6135C98.1203 57.6318 98.1429 57.6552 98.1602 57.6823C98.1775 57.7095 98.1893 57.7398 98.1948 57.7715C98.2002 57.8032 98.1994 57.8356 98.1922 57.867C98.185 57.8984 98.1716 57.928 98.1528 57.9541C97.7128 58.6318 97.4652 59.4162 97.4364 60.2237C97.4075 61.0311 97.5986 61.8312 97.9891 62.5385C98.3356 63.2132 98.87 63.7732 99.5278 64.1509C100.186 64.5286 100.939 64.7079 101.696 64.667C102.401 64.6628 103.093 64.4856 103.713 64.151C104.333 63.8164 104.862 63.3347 105.252 62.7481C105.708 62.0419 105.993 61.2396 106.086 60.4044C106.18 59.5692 106.078 58.7237 105.789 57.9344C105.518 57.1951 105.017 56.5623 104.359 56.1296C103.701 55.6968 102.921 55.487 102.135 55.5309C102.103 55.5355 102.07 55.5337 102.039 55.5256C102.008 55.5175 101.979 55.5033 101.953 55.4838C101.928 55.4643 101.906 55.4399 101.89 55.412C101.874 55.3841 101.864 55.3532 101.86 55.3213C101.855 55.2894 101.857 55.257 101.865 55.2258C101.873 55.1947 101.887 55.1654 101.907 55.1398C101.926 55.1142 101.951 55.0927 101.979 55.0767C102.007 55.0606 102.037 55.0503 102.069 55.0462C102.968 54.9772 103.864 55.206 104.619 55.6973C105.374 56.1886 105.947 56.9149 106.248 57.7642C106.56 58.6237 106.67 59.544 106.568 60.453C106.465 61.362 106.154 62.2349 105.658 63.0035C105.227 63.6524 104.643 64.186 103.958 64.5581C103.273 64.9302 102.508 65.1294 101.729 65.1386L101.572 65.1844Z" fill="#818FB3"/>
<path d="M96.8226 86.4301C96.8226 86.4301 77.0374 91.3092 70.128 99.1683C63.2185 107.027 59.9636 145.799 59.8326 152.983C59.7016 160.168 64.7052 163.148 67.6917 165.178C70.6781 167.208 83.8158 170.869 94.3863 171.413C104.957 171.956 114.977 171.413 114.977 171.413C115.1 169.425 115.642 167.485 116.568 165.721C118.081 162.578 119.994 161.923 119.994 161.923L110.917 158.648C110.917 158.648 109.325 130.159 106.849 116.373C104.001 100.544 96.8226 86.4301 96.8226 86.4301Z" fill="black"/>
<path d="M129.615 154.123C129.571 154.133 129.527 154.133 129.484 154.123C129.444 154.106 129.408 154.081 129.378 154.05C129.348 154.019 129.324 153.982 129.309 153.942C129.293 153.902 129.285 153.859 129.286 153.816C129.287 153.773 129.296 153.73 129.313 153.691C131.167 149.506 133.086 141.299 134.173 135.536L134.258 135.071C134.585 133.375 134.992 131.273 134.179 129.832C133.767 129.092 132.83 127.481 131.926 125.902C131.023 124.324 130.112 122.778 129.87 122.326C129.392 121.442 130.892 119.052 133.066 115.836C133.655 114.958 134.16 114.205 134.461 113.694C135.234 112.385 134.716 111.121 134.12 109.699L133.917 109.208C133.374 107.898 132.758 106.549 132.162 105.279L131.416 103.661L130.459 101.533C128.566 97.0968 126.418 92.7738 124.028 88.5847C123.984 88.5097 123.971 88.4206 123.992 88.3362C124.013 88.2518 124.066 88.1789 124.139 88.1328C124.215 88.0896 124.305 88.0777 124.389 88.0997C124.474 88.1217 124.546 88.1759 124.591 88.2507C126.995 92.4603 129.153 96.8053 131.055 101.264L132.012 103.393L132.739 104.971C133.341 106.281 133.957 107.591 134.507 108.946L134.703 109.431C135.312 110.885 135.941 112.385 135.005 114.015C134.697 114.546 134.186 115.325 133.59 116.196C132.457 117.886 130.099 121.436 130.427 122.005C130.662 122.451 131.547 123.97 132.477 125.568C133.407 127.166 134.317 128.731 134.736 129.498C135.666 131.161 135.227 133.427 134.88 135.196L134.795 135.654C134.402 137.756 132.313 148.497 129.896 153.952C129.868 154.003 129.827 154.045 129.778 154.075C129.728 154.105 129.672 154.121 129.615 154.123Z" fill="#8593B6"/>
<path d="M110.307 155.275C110.219 155.275 110.134 155.24 110.072 155.177C108.533 153.625 101.106 140.769 100.556 138.352C100.254 137.042 101.014 133.67 101.748 130.421C102.317 127.906 102.907 125.306 102.737 124.605C102.488 123.551 100.588 121.986 98.7546 120.499C96.5344 118.685 94.2422 116.812 93.7968 115.122C93.2925 113.21 93.7248 101.199 94.0064 93.2543C94.1112 90.3923 94.1898 88.1394 94.1898 87.3601C94.1898 87.2732 94.2243 87.1899 94.2857 87.1285C94.3471 87.0671 94.4304 87.0326 94.5172 87.0326C94.6041 87.0326 94.6874 87.0671 94.7488 87.1285C94.8102 87.1899 94.8447 87.2732 94.8447 87.3601C94.8447 88.1722 94.7661 90.4382 94.6613 93.3002C94.3928 100.727 93.9475 113.157 94.4255 114.985C94.8185 116.465 97.1304 118.351 99.1672 120.021C101.204 121.691 103.097 123.21 103.372 124.481C103.575 125.326 103.025 127.756 102.383 130.591C101.728 133.624 100.922 137.056 101.191 138.234C101.734 140.605 109.05 153.219 110.537 154.745C110.597 154.806 110.63 154.888 110.63 154.974C110.63 155.06 110.597 155.142 110.537 155.203C110.472 155.256 110.39 155.281 110.307 155.275Z" fill="#8593B6"/>
<path d="M83.679 149.65H83.607C83.5644 149.643 83.5234 149.629 83.4866 149.606C83.4497 149.584 83.4175 149.555 83.392 149.52C83.3664 149.485 83.348 149.446 83.3377 149.404C83.3273 149.362 83.3254 149.319 83.3319 149.276C83.5676 147.574 87.3269 113.649 87.5037 111.049C87.5053 111.006 87.5157 110.963 87.5343 110.924C87.5529 110.885 87.5793 110.851 87.6118 110.823C87.6444 110.794 87.6824 110.773 87.7235 110.76C87.7646 110.747 87.808 110.743 87.8509 110.747C87.9366 110.754 88.0162 110.794 88.0726 110.859C88.129 110.924 88.1575 111.009 88.1521 111.094C87.9818 113.714 84.2226 147.665 83.9803 149.368C83.9688 149.442 83.9329 149.51 83.8783 149.561C83.8237 149.612 83.7535 149.643 83.679 149.65Z" fill="#8593B6"/>
<path d="M110.642 158.864C110.601 158.873 110.559 158.873 110.518 158.864C109.686 158.53 106.005 157.286 101.349 155.721C91.9439 152.544 79.0813 148.202 76.6188 146.932C76.5412 146.891 76.4826 146.822 76.4557 146.738C76.4287 146.655 76.4355 146.565 76.4747 146.486C76.5163 146.41 76.5862 146.353 76.6694 146.327C76.7526 146.301 76.8425 146.309 76.92 146.349C79.3236 147.6 92.7037 152.112 101.558 155.099C106.228 156.67 109.915 157.915 110.766 158.262C110.806 158.278 110.843 158.301 110.874 158.331C110.905 158.361 110.929 158.397 110.946 158.437C110.963 158.476 110.972 158.519 110.973 158.562C110.974 158.605 110.966 158.647 110.95 158.687C110.92 158.743 110.876 158.789 110.821 158.82C110.767 158.851 110.705 158.867 110.642 158.864Z" fill="#8593B6"/>
<path d="M106.122 172.375C97.8442 172.375 81.7986 170.882 69.6105 166.573C69.5289 166.543 69.4623 166.482 69.4255 166.404C69.3887 166.325 69.3845 166.235 69.414 166.154C69.4437 166.072 69.5041 166.005 69.5824 165.967C69.6606 165.929 69.7506 165.923 69.8332 165.951C85.2304 171.4 106.764 172.33 110.772 171.432C110.857 171.413 110.945 171.427 111.019 171.472C111.092 171.518 111.145 171.591 111.165 171.675C111.175 171.717 111.176 171.76 111.169 171.803C111.162 171.846 111.146 171.886 111.123 171.923C111.1 171.959 111.069 171.991 111.034 172.016C110.999 172.041 110.959 172.058 110.916 172.068C109.331 172.319 107.726 172.422 106.122 172.375Z" fill="#8593B6"/>
<path d="M11.3951 91.0145C13.9689 93.274 17.2239 94.7214 19.4768 97.3345C20.361 98.3627 21.16 99.4565 21.9852 100.537C22.5812 101.323 24.1857 102.62 24.4411 103.609C24.559 104.041 24.5328 103.451 24.4411 103.019C24.4449 103.002 24.4449 102.984 24.4411 102.967C24.2185 100.969 24.0547 98.9653 23.9892 96.9547C23.9238 94.944 24.0416 92.94 23.9172 90.9359C23.7404 88.1198 22.8562 85.3822 20.5509 83.6139C19.4244 82.756 17.9771 82.2255 16.9423 81.2693C15.9075 80.3131 16.3529 79.3045 16.9423 78.3025C17.5728 77.3937 18.0486 76.3868 18.3504 75.3226C18.5074 74.064 18.2026 72.7911 17.4924 71.7402C16.1826 69.4872 13.1765 66.9723 10.3538 67.3129C8.00915 67.5945 7.73408 70.3059 7.77338 72.1921C7.81267 74.0782 7.98951 75.8596 8.00261 77.7C8.0157 79.5403 7.70134 81.4396 7.67514 83.3126C7.57036 86.5152 9.05048 88.9515 11.3951 91.0145Z" fill="#C7C7C7"/>
<path d="M35.2667 120.348C35.9703 118.658 36.8228 117.034 37.8143 115.495C39.1962 113.367 40.7353 111.291 41.6653 108.946C42.5952 106.602 42.4774 103.903 42.5691 101.343C42.6345 99.463 43.224 97.5834 43.0472 95.6972C42.9751 94.7868 42.4512 93.3264 41.2789 93.4704C40.3685 93.5883 39.8249 94.7213 39.4778 95.4352C38.8979 96.7123 38.3992 98.0248 37.9846 99.3647C37.8078 99.8821 37.6375 100.406 37.4148 100.904C37.2838 101.192 36.8712 101.899 36.4783 101.808C35.8234 101.637 36.4193 98.9194 36.5176 98.4413C37.0153 96.0246 37.7619 93.7783 37.8667 91.2896C38.0174 87.6809 37.7357 83.3847 34.2057 81.4133C33.2888 80.8959 32.1165 80.5881 31.2389 81.3609C30.3613 82.1337 30.1321 83.4436 30.0011 84.5242C29.6082 87.8578 30.3941 91.0145 31.4616 94.145C32.3457 96.7647 33.3936 99.3844 33.4722 102.174C33.5442 104.84 32.1624 107.198 31.5074 109.719C30.8406 112.138 30.5621 114.647 30.6822 117.152C30.6822 118.777 30.7346 120.388 30.8525 122.012C30.9639 123.505 31.0883 124.998 31.2717 126.479C31.311 126.78 31.3437 127.094 31.383 127.408C30.8132 126.027 30.6102 124.448 30.1386 123.06C29.2938 120.597 28.3114 118.181 27.5189 115.705C26.8943 113.631 26.1597 111.591 25.3184 109.595C24.4932 107.754 23.4912 105.803 21.9456 104.447C21.0431 103.612 19.8611 103.145 18.6317 103.137C17.8544 103.201 17.0884 103.364 16.3525 103.622C15.9412 103.764 15.5004 103.799 15.0718 103.723C14.6433 103.647 14.241 103.464 13.9031 103.189C11.3751 101.225 10.6285 97.7602 8.73579 95.3304C7.33426 93.4901 4.02691 90.3661 1.5906 92.3636C0.280752 93.4246 -0.0597958 95.4811 0.00569642 97.0529C0.182222 99.0016 0.858992 100.872 1.97046 102.482C3.06418 104.237 4.47227 105.809 5.4743 107.61C6.00963 108.613 6.21799 109.758 6.07026 110.885C5.89542 111.993 5.96246 113.126 6.26675 114.205C7.42596 117.48 11.0477 117.028 13.8573 117.12C15.8789 117.156 17.8843 117.487 19.8105 118.102C20.8237 118.413 21.7471 118.964 22.5028 119.707C23.2585 120.45 23.8244 121.364 24.1527 122.372C24.7159 123.918 25.0106 125.647 26.065 126.957C26.564 127.579 27.2068 128.072 27.9381 128.391C29.0318 128.876 32.3785 129.085 32.4047 128.784C32.5865 127.73 32.8784 126.698 33.2757 125.706C33.8324 123.885 34.5332 122.11 35.2667 120.348Z" fill="#C7C7C7"/>
<path d="M50.8081 119.733C50.5199 117.853 50.5788 115.803 49.6882 114.068C49.654 114.01 49.5984 113.968 49.5334 113.951C49.4685 113.933 49.3993 113.943 49.341 113.976C48.6861 114.33 48.6861 115.358 48.6272 115.987C48.542 117.035 48.6272 118.082 48.4765 119.124C48.2576 120.983 47.8179 122.81 47.1667 124.566C46.8385 125.463 46.2957 126.267 45.5856 126.906C44.8755 127.545 44.0198 128.001 43.0931 128.234C41.8148 128.528 40.6037 129.061 39.5238 129.805C38.6061 130.587 37.8896 131.578 37.4346 132.694C36.1247 135.647 35.4698 138.942 34.8804 142.098C34.4678 144.22 34.1338 146.355 33.6164 148.458C33.0546 150.544 32.5999 152.658 32.2541 154.791C32.2083 154.902 32.1559 155.007 32.1035 155.118C31.9725 155.439 32.4768 155.609 32.6471 155.347C34.6839 152.21 37.1595 149.401 40.5454 147.678C42.0714 146.899 44.1017 146.735 45.3722 145.511C46.3415 144.581 46.4725 143.159 46.3284 141.889C46.1385 140.225 45.3395 138.857 44.5143 137.442C44.0558 136.663 43.5188 135.824 43.7022 134.881C43.8253 134.451 44.0353 134.051 44.3192 133.705C44.603 133.359 44.9547 133.075 45.3526 132.871C46.7607 131.999 48.4045 131.607 49.5572 130.349C50.6055 129.189 51.2329 127.711 51.3386 126.151C51.4041 123.998 51.2261 121.845 50.8081 119.733Z" fill="#C7C7C7"/>
<path d="M23.0649 130.546C21.2639 128.246 19.1006 126.255 16.6597 124.651C15.3499 123.787 12.2914 122.084 11.6692 124.651C11.309 126.144 12.7695 127.611 13.7322 128.548C15.1796 129.956 16.8496 131.168 18.0744 132.792C16.5615 133.277 14.9831 133.368 13.6733 134.416C12.1146 135.654 11.4203 138.038 12.9594 139.557C13.7627 140.243 14.6689 140.797 15.6446 141.201C16.8562 141.784 18.094 142.321 19.3383 142.838C22.0301 143.965 24.7545 145.104 27.0533 146.945C29.3521 148.785 31.5854 151.994 31.7753 155.053C31.7753 155.347 31.6771 155.053 31.8539 154.948C31.9456 155.033 32.2665 154.876 32.2665 154.706C32.2737 150.222 31.3481 145.786 29.5486 141.679C27.8343 137.725 25.6579 133.988 23.0649 130.546Z" fill="#C7C7C7"/>
<path d="M16.8631 88.2703C17.8521 90.3267 18.8868 92.3308 19.9871 94.3349C21.0875 96.2322 22.059 98.2014 22.895 100.229C23.8708 102.764 24.8925 105.259 25.9273 107.774C27.0063 110.383 27.9399 113.051 28.7238 115.764C30.2443 121.082 31.2962 126.524 31.8674 132.026C32.1564 134.817 32.2658 137.623 32.1949 140.428C32.1359 142.616 31.8936 144.783 31.684 146.977C31.4221 149.247 31.363 151.535 31.5072 153.815C31.6644 155.714 31.9657 157.974 33.472 159.329C33.5311 159.381 33.6065 159.411 33.6853 159.414C33.764 159.417 33.8413 159.392 33.9039 159.344C33.9664 159.296 34.0105 159.228 34.0284 159.151C34.0464 159.075 34.0372 158.994 34.0025 158.923C32.2473 155.328 32.3455 151.405 32.6926 147.501C32.876 145.353 33.1314 143.212 33.21 141.05C33.292 138.299 33.2001 135.545 32.9349 132.805C32.3853 127.422 31.3885 122.095 29.955 116.877C29.2322 114.21 28.3576 111.586 27.3353 109.018C26.3137 106.438 25.1348 103.923 24.1459 101.329C22.3579 96.6336 19.6335 92.4749 17.2168 88.1C17.0924 87.8708 16.7649 88.1 16.8762 88.303L16.8631 88.2703Z" fill="#43588E"/>
<path d="M31.9659 126.649C32.2475 123.23 32.5553 119.942 33.708 116.681C34.245 115.161 34.8934 113.681 35.4108 112.155C35.843 110.891 36.4849 109.162 36.1509 107.82C36.1437 107.786 36.1251 107.756 36.0983 107.734C36.0715 107.712 36.038 107.7 36.0035 107.7C35.969 107.7 35.9355 107.712 35.9087 107.734C35.8818 107.756 35.8633 107.786 35.8561 107.82C35.6335 108.586 35.6597 109.424 35.5025 110.21C35.3448 110.974 35.1436 111.729 34.9 112.47C34.3957 114.048 33.7342 115.561 33.1644 117.12C32.0165 120.158 31.5276 123.407 31.7301 126.649C31.7301 126.68 31.7425 126.71 31.7647 126.732C31.7868 126.754 31.8168 126.767 31.848 126.767C31.8793 126.767 31.9093 126.754 31.9314 126.732C31.9535 126.71 31.9659 126.68 31.9659 126.649Z" fill="#43588E"/>
<path d="M12.1607 107.008C13.5164 110.282 17.5965 110.472 20.5633 111.206C21.5776 111.482 22.5263 111.958 23.3531 112.607C24.1799 113.257 24.8682 114.065 25.377 114.985C26.5639 117.067 27.4878 119.289 28.1277 121.599C28.1277 121.599 28.1735 121.599 28.167 121.599C27.3352 117.67 26.1433 112.941 22.0959 111.121C18.8212 109.654 14.5708 110.387 12.4947 106.883C12.3965 106.713 12.0756 106.824 12.1607 107.027V107.008Z" fill="#43588E"/>
<path d="M29.8233 126.131C29.9805 126.348 30.1311 126.577 30.2949 126.786C30.3763 126.892 30.4685 126.988 30.5699 127.075C30.668 127.18 30.8003 127.247 30.9432 127.264C30.9574 127.265 30.9714 127.262 30.984 127.255C30.9965 127.249 31.007 127.239 31.0143 127.227C31.0217 127.215 31.0257 127.201 31.0259 127.187C31.026 127.173 31.0224 127.159 31.0153 127.147C30.9348 127.046 30.8399 126.958 30.7337 126.885L30.4455 126.629C30.2556 126.446 30.0787 126.249 29.8954 126.066C29.8561 126.033 29.7906 126.066 29.8233 126.125V126.131Z" fill="#43588E"/>
<path d="M21.3361 136.532C23.7083 138.459 25.8002 140.707 27.5513 143.212C28.3714 144.413 29.1278 145.657 29.8173 146.938C30.506 148.346 31.116 149.792 31.6446 151.267C31.6904 151.379 31.8935 151.379 31.8738 151.235C31.5529 148.15 29.6012 145.511 28.036 142.943C27.2046 141.663 26.2289 140.483 25.1281 139.426C24.0347 138.265 22.8354 137.208 21.5457 136.27C21.3885 136.158 21.1855 136.414 21.3361 136.545V136.532Z" fill="#43588E"/>
<path d="M39.9746 132.929C38.8482 133.584 38.8089 135.346 38.7892 136.479C38.7434 138.667 39.287 140.716 38.3242 142.799C37.4597 144.679 36.0779 146.251 34.9907 147.993C33.969 149.63 32.967 151.719 33.0259 153.684C33.0263 153.711 33.0352 153.737 33.0515 153.758C33.0678 153.779 33.0904 153.795 33.1162 153.802C33.1419 153.809 33.1693 153.808 33.1944 153.799C33.2194 153.789 33.2407 153.772 33.2551 153.749C33.5951 152.82 33.8773 151.871 34.1 150.907C34.4284 149.871 34.8954 148.884 35.4884 147.973C36.5363 146.349 37.82 144.875 38.6714 143.127C39.5228 141.378 39.4376 139.472 39.3787 137.481C39.3394 136.211 39.2084 134.167 40.2366 133.224C40.266 133.191 40.2828 133.149 40.2842 133.104C40.2856 133.06 40.2715 133.017 40.2443 132.982C40.2171 132.947 40.1785 132.922 40.1353 132.913C40.092 132.903 40.0468 132.909 40.0074 132.929H39.9746Z" fill="#43588E"/>
<path d="M32.4382 153.887C27.8996 153.828 19.248 153.776 19.248 153.776L21.3896 169.638C21.6227 171.366 22.4746 172.951 23.7873 174.099C25.1001 175.246 26.7845 175.879 28.5283 175.879H36.348C38.0918 175.879 39.7763 175.246 41.089 174.099C42.4018 172.951 43.2537 171.366 43.4867 169.638L45.6217 153.749C45.6217 153.749 36.9768 153.802 32.4382 153.887Z" fill="#E0E0E0"/>
<path d="M251.902 124.658L225.999 175.971L150.48 176.514L173.789 123.937L251.902 124.658Z" fill="#F6F7FA"/>
<path d="M100.359 176.194V172.087H149.249L171.739 122.765H249.957L251.921 124.664H175.525L152.151 176.154C152.151 176.154 100.359 176.063 100.359 176.194Z" fill="#D9DEE8"/>
<path d="M212.686 152.977C211.835 155.537 207.204 157.515 202.345 157.391C197.485 157.266 194.243 155.099 195.095 152.538C195.946 149.977 200.576 147.993 205.423 148.124C210.269 148.255 213.544 150.416 212.686 152.977Z" fill="#D9DEE8"/>
<path d="M152.15 176.482C152.104 176.481 152.059 176.47 152.019 176.449C151.979 176.432 151.943 176.407 151.913 176.376C151.884 176.345 151.86 176.308 151.845 176.268C151.83 176.227 151.823 176.184 151.824 176.141C151.826 176.098 151.837 176.056 151.855 176.017L175.295 124.337H251.921C252.007 124.337 252.091 124.371 252.152 124.433C252.214 124.494 252.248 124.578 252.248 124.664C252.248 124.751 252.214 124.835 252.152 124.896C252.091 124.957 252.007 124.992 251.921 124.992H175.753L152.471 176.292C152.441 176.351 152.396 176.401 152.339 176.435C152.282 176.468 152.216 176.485 152.15 176.482Z" fill="white"/>
<path d="M96.9528 180.084H7.11719V200H96.9528V180.084Z" fill="#596B9B"/>
<path d="M258.078 180.084H96.4434V200H258.078V180.084Z" fill="#7A89AF"/>
<g style="mix-blend-mode:multiply">
<path d="M96.9528 180.084H96.442H7.11719V183.738H96.442H96.9528H258.077V180.084H96.9528Z" fill="#BDC4D7"/>
</g>
<path d="M100.884 176.154H2.7832V181.033H100.884V176.154Z" fill="#6F7FA9"/>
<path d="M262.008 176.154H100.373V181.033H262.008V176.154Z" fill="#9CA6C3"/>
<path d="M235.732 -0.0196533H162.518C160.26 -0.0196533 158.094 0.877356 156.498 2.47404C154.901 4.07072 154.004 6.23628 154.004 8.49433V43.2052C154.004 45.4632 154.901 47.6288 156.498 49.2255C158.094 50.8222 160.26 51.7192 162.518 51.7192H169.067C169.25 54.8628 168.799 59.5782 166.172 65.538C172.695 62.5736 178.212 57.7713 182.048 51.7192H235.718C237.977 51.7192 240.142 50.8222 241.739 49.2255C243.335 47.6288 244.232 45.4632 244.232 43.2052V8.49433C244.232 6.23855 243.337 4.07497 241.743 2.47866C240.15 0.882359 237.987 -0.0161829 235.732 -0.0196533Z" fill="#407BFF"/>
<path d="M204.499 16.5564H168.184C167.706 16.5547 167.247 16.3635 166.91 16.0247C166.572 15.6859 166.383 15.2271 166.383 14.7488C166.383 14.2705 166.572 13.8118 166.91 13.473C167.247 13.1342 167.706 12.943 168.184 12.9412H204.499C204.979 12.9412 205.438 13.1317 205.777 13.4707C206.116 13.8096 206.307 14.2694 206.307 14.7488C206.307 15.2282 206.116 15.688 205.777 16.027C205.438 16.366 204.979 16.5564 204.499 16.5564Z" fill="white"/>
<path d="M230.539 27.081H167.49C167.196 27.081 166.915 26.9644 166.707 26.7568C166.499 26.5493 166.383 26.2678 166.383 25.9742C166.382 25.8286 166.41 25.6843 166.465 25.5496C166.521 25.4149 166.602 25.2926 166.705 25.1896C166.808 25.0867 166.93 25.0052 167.065 24.9499C167.2 24.8946 167.344 24.8665 167.49 24.8674H230.539C230.828 24.8742 231.103 24.9939 231.305 25.2007C231.507 25.4075 231.62 25.6851 231.62 25.9742C231.62 26.2633 231.507 26.5409 231.305 26.7477C231.103 26.9546 230.828 27.0742 230.539 27.081Z" fill="#D2E6FF"/>
<path d="M230.539 33.2241H167.49C167.196 33.2241 166.915 33.1075 166.707 32.9C166.499 32.6924 166.383 32.4109 166.383 32.1173C166.382 31.9717 166.41 31.8274 166.465 31.6927C166.521 31.5581 166.602 31.4357 166.705 31.3328C166.808 31.2298 166.93 31.1483 167.065 31.093C167.2 31.0377 167.344 31.0096 167.49 31.0105H230.539C230.828 31.0174 231.103 31.137 231.305 31.3438C231.507 31.5506 231.62 31.8283 231.62 32.1173C231.62 32.4064 231.507 32.684 231.305 32.8908C231.103 33.0977 230.828 33.2173 230.539 33.2241Z" fill="#D2E6FF"/>
<path d="M216.786 39.7734H167.49C167.196 39.7734 166.915 39.6568 166.707 39.4492C166.499 39.2417 166.383 38.9601 166.383 38.6666C166.382 38.521 166.41 38.3767 166.465 38.242C166.521 38.1073 166.602 37.985 166.705 37.882C166.808 37.7791 166.93 37.6976 167.065 37.6422C167.2 37.5869 167.344 37.5589 167.49 37.5598H216.786C217.079 37.5598 217.361 37.6764 217.568 37.8839C217.776 38.0915 217.892 38.373 217.892 38.6666C217.892 38.9601 217.776 39.2417 217.568 39.4492C217.361 39.6568 217.079 39.7734 216.786 39.7734Z" fill="#D2E6FF"/>
<path d="M230.046 16.5564H212.717C212.239 16.5547 211.781 16.3635 211.443 16.0247C211.106 15.6859 210.916 15.2271 210.916 14.7488C210.916 14.2705 211.106 13.8118 211.443 13.473C211.781 13.1342 212.239 12.943 212.717 12.9412H230.046C230.525 12.943 230.983 13.1342 231.32 13.473C231.658 13.8118 231.847 14.2705 231.847 14.7488C231.847 15.2271 231.658 15.6859 231.32 16.0247C230.983 16.3635 230.525 16.5547 230.046 16.5564Z" fill="white"/>
<g clip-path="url(#clip2_1060_24911)">
<path d="M250.587 87.1046H221.364C219.556 87.1046 218.09 88.5707 218.09 90.3792V104.971C218.09 106.779 219.556 108.245 221.364 108.245H250.587C252.396 108.245 253.862 106.779 253.862 104.971V90.3792C253.862 88.5707 252.396 87.1046 250.587 87.1046Z" fill="#FF6C37"/>
<path d="M235.976 116.511L240.606 105.534H231.346L235.976 116.511Z" fill="#FF6C37"/>
<path d="M235.865 94.0468H244.229V95.2649L248.335 92.9006L244.229 90.5364V91.7611H235.865V94.0468Z" fill="#223A7A"/>
<path d="M248.335 98.8539H239.965V97.6292L235.865 99.9934L239.965 102.358V101.133H248.335V98.8539Z" fill="white"/>
<path d="M230.73 101.009L230.33 101.153C229.568 100.258 228.933 99.2615 228.444 98.1925C228.04 97.0942 227.818 95.9371 227.789 94.7672L228.084 94.6428L226.315 90.412C225.971 90.6783 225.68 91.0071 225.457 91.3813C224.455 93.0775 224.554 95.671 225.562 98.2056C226.571 100.74 227.645 103.006 229.61 104.427C230.013 104.762 230.479 105.011 230.981 105.16C231.483 105.308 232.011 105.353 232.531 105.292L230.73 101.009Z" fill="#223A7A"/>
<path d="M232.001 100.511L231.451 100.707L233.259 105.043C233.449 104.982 233.634 104.903 233.809 104.807C234.033 104.683 234.205 104.483 234.293 104.242C234.381 104.001 234.379 103.737 234.287 103.497L233.337 101.12C233.239 100.864 233.044 100.656 232.794 100.542C232.544 100.428 232.259 100.417 232.001 100.511Z" fill="#223A7A"/>
<path d="M227.684 89.6653C227.439 89.7561 227.202 89.8679 226.977 89.9994L228.778 94.3218L229.387 94.073C229.641 93.9669 229.843 93.7658 229.951 93.5125C230.059 93.2591 230.063 92.9738 229.963 92.7173L229.013 90.281C228.915 90.0261 228.721 89.8194 228.473 89.7045C228.225 89.5897 227.942 89.5756 227.684 89.6653Z" fill="#223A7A"/>
</g>
<g clip-path="url(#clip3_1060_24911)">
<path d="M77.8378 49.774H46.1265C44.1625 49.774 42.5703 51.3662 42.5703 53.3303V69.1597C42.5703 71.1238 44.1625 72.716 46.1265 72.716H77.8378C79.8019 72.716 81.3941 71.1238 81.3941 69.1597V53.3303C81.3941 51.3662 79.8019 49.774 77.8378 49.774Z" fill="white"/>
<path d="M90.4326 61.2418L78.5195 56.2185V66.2716L90.4326 61.2418Z" fill="white"/>
<path d="M54.4577 63.4357C55.6694 63.4357 56.6516 62.4534 56.6516 61.2417C56.6516 60.03 55.6694 59.0477 54.4577 59.0477C53.246 59.0477 52.2637 60.03 52.2637 61.2417C52.2637 62.4534 53.246 63.4357 54.4577 63.4357Z" fill="#223A7A"/>
<path d="M61.983 63.4357C63.1948 63.4357 64.177 62.4534 64.177 61.2417C64.177 60.03 63.1948 59.0477 61.983 59.0477C60.7713 59.0477 59.7891 60.03 59.7891 61.2417C59.7891 62.4534 60.7713 63.4357 61.983 63.4357Z" fill="#223A7A"/>
<path d="M69.5065 63.4357C70.7182 63.4357 71.7005 62.4534 71.7005 61.2417C71.7005 60.03 70.7182 59.0477 69.5065 59.0477C68.2948 59.0477 67.3125 60.03 67.3125 61.2417C67.3125 62.4534 68.2948 63.4357 69.5065 63.4357Z" fill="#223A7A"/>
</g>
<g clip-path="url(#clip4_1060_24911)">
<path d="M253.861 59.5979H215.469C214.022 59.5979 212.85 60.7708 212.85 62.2176V68.2232C212.85 69.67 214.022 70.8429 215.469 70.8429H253.861C255.308 70.8429 256.48 69.67 256.48 68.2232V62.2176C256.48 60.7708 255.308 59.5979 253.861 59.5979Z" fill="#407BFF"/>
<path d="M218.239 68.1708C218.161 68.1739 218.083 68.1589 218.012 68.1271C217.94 68.0953 217.877 68.0475 217.827 67.9874C217.774 67.9242 217.735 67.851 217.711 67.7722C217.688 67.6934 217.68 67.6107 217.689 67.5289L217.853 66.0685C217.853 66.0685 217.853 66.0095 217.853 65.9964C217.853 65.9833 217.801 65.9964 217.761 65.9964L216.563 66.8609C216.5 66.9135 216.426 66.9513 216.347 66.9717C216.268 66.9921 216.185 66.9945 216.104 66.9788C216.022 66.9676 215.942 66.9383 215.872 66.893C215.802 66.8477 215.743 66.7876 215.698 66.7168C215.647 66.6423 215.614 66.5563 215.602 66.4662C215.591 66.3761 215.601 66.2846 215.633 66.1995C215.704 66.0567 215.825 65.9449 215.973 65.8851L217.323 65.276C217.323 65.276 217.375 65.276 217.375 65.2236C217.375 65.1712 217.375 65.1778 217.323 65.1647L215.973 64.5621C215.895 64.5323 215.825 64.4849 215.768 64.4236C215.712 64.3623 215.67 64.2886 215.646 64.2085C215.621 64.1296 215.612 64.0462 215.621 63.9638C215.63 63.8815 215.656 63.8019 215.698 63.7304C215.739 63.6581 215.795 63.5951 215.861 63.5455C215.928 63.4959 216.004 63.4607 216.085 63.4422C216.245 63.4151 216.41 63.4528 216.543 63.547L217.742 64.4312C217.781 64.4312 217.814 64.4639 217.833 64.4312C217.853 64.3984 217.833 64.3919 217.833 64.3526L217.67 62.8986C217.661 62.8164 217.67 62.7334 217.695 62.6546C217.719 62.5758 217.76 62.5028 217.814 62.4402C217.87 62.379 217.939 62.3308 218.016 62.2991C218.093 62.2675 218.176 62.253 218.259 62.2568C218.339 62.2541 218.419 62.2692 218.492 62.3009C218.566 62.3326 218.632 62.3801 218.685 62.4402C218.74 62.5017 218.78 62.5751 218.801 62.6547C218.823 62.7343 218.826 62.8178 218.809 62.8986L218.645 64.3526C218.645 64.3919 218.645 64.4181 218.645 64.4312C218.645 64.4312 218.698 64.4312 218.737 64.4312L219.936 63.5667C220.001 63.5138 220.077 63.4755 220.158 63.454C220.239 63.4326 220.324 63.4285 220.407 63.4422C220.487 63.4582 220.563 63.4926 220.628 63.5426C220.692 63.5925 220.745 63.6568 220.781 63.7304C220.834 63.8042 220.868 63.8903 220.879 63.9807C220.891 64.0711 220.879 64.163 220.846 64.2478C220.775 64.3906 220.654 64.5024 220.505 64.5621L219.163 65.1647C219.124 65.1647 219.104 65.1843 219.104 65.2236C219.104 65.2236 219.104 65.2629 219.163 65.276L220.505 65.8851C220.585 65.9149 220.657 65.9622 220.716 66.0234C220.775 66.0845 220.819 66.1581 220.846 66.2387C220.874 66.3179 220.883 66.4026 220.872 66.4858C220.86 66.569 220.829 66.6482 220.781 66.7168C220.745 66.7901 220.693 66.8539 220.628 66.9029C220.563 66.9518 220.487 66.9846 220.407 66.9984C220.326 67.0154 220.242 67.0154 220.161 66.9985C220.08 66.9816 220.003 66.9481 219.936 66.9002L218.737 66.0161C218.698 66.0161 218.672 65.9833 218.645 66.0161C218.619 66.0488 218.645 66.0554 218.645 66.0881L218.809 67.5486C218.824 67.6304 218.82 67.7147 218.796 67.7944C218.772 67.8742 218.729 67.947 218.672 68.007C218.614 68.062 218.547 68.1049 218.472 68.133C218.398 68.1612 218.319 68.174 218.239 68.1708Z" fill="white"/>
<path d="M226.178 68.1707C226.1 68.1743 226.022 68.1596 225.95 68.1278C225.878 68.096 225.815 68.0479 225.765 67.9874C225.712 67.9245 225.672 67.8515 225.647 67.7728C225.622 67.694 225.613 67.6111 225.621 67.5289L225.792 66.0684C225.792 66.0684 225.792 66.0095 225.792 65.9964C225.778 65.9876 225.762 65.983 225.746 65.983C225.73 65.983 225.714 65.9876 225.7 65.9964L224.501 66.8609C224.438 66.913 224.365 66.9506 224.285 66.971C224.206 66.9914 224.123 66.994 224.043 66.9788C223.961 66.9639 223.883 66.931 223.815 66.8823C223.747 66.8336 223.69 66.7703 223.65 66.6972C223.599 66.6223 223.567 66.536 223.556 66.4458C223.546 66.3556 223.558 66.2643 223.591 66.1798C223.624 66.1073 223.671 66.0421 223.73 65.9881C223.788 65.9341 223.857 65.8924 223.932 65.8654L225.241 65.2563C225.281 65.2563 225.3 65.2563 225.3 65.2039C225.3 65.1515 225.3 65.1581 225.241 65.145L223.932 64.5425C223.852 64.5135 223.781 64.4665 223.723 64.4051C223.665 64.3437 223.622 64.2697 223.598 64.1888C223.574 64.1097 223.566 64.0266 223.575 63.9444C223.584 63.8623 223.61 63.7828 223.65 63.7107C223.692 63.6377 223.748 63.5743 223.816 63.5246C223.883 63.475 223.961 63.4402 224.043 63.4226C224.203 63.3995 224.367 63.4369 224.501 63.5273L225.7 64.4115C225.714 64.4202 225.73 64.4249 225.746 64.4249C225.762 64.4249 225.778 64.4202 225.792 64.4115C225.792 64.4115 225.792 64.3722 225.792 64.3329L225.621 62.879C225.612 62.7962 225.621 62.7125 225.647 62.6334C225.673 62.5543 225.716 62.4818 225.772 62.4205C225.827 62.3594 225.895 62.3113 225.971 62.2796C226.047 62.2479 226.129 62.2334 226.211 62.2371C226.291 62.234 226.371 62.2488 226.444 62.2805C226.518 62.3123 226.584 62.3601 226.636 62.4205C226.693 62.4814 226.734 62.5546 226.756 62.6342C226.779 62.7138 226.783 62.7976 226.767 62.879L226.604 64.3329C226.604 64.3722 226.604 64.3984 226.604 64.4115C226.617 64.4202 226.633 64.4249 226.65 64.4249C226.666 64.4249 226.682 64.4202 226.695 64.4115L227.894 63.547C227.96 63.4949 228.036 63.4569 228.117 63.4355C228.198 63.4141 228.283 63.4097 228.365 63.4226C228.446 63.4386 228.523 63.4728 228.589 63.5228C228.654 63.5727 228.708 63.637 228.745 63.7107C228.797 63.7853 228.83 63.8713 228.842 63.9614C228.853 64.0515 228.842 64.143 228.811 64.2281C228.739 64.3709 228.618 64.4827 228.47 64.5425L227.121 65.145C227.121 65.145 227.069 65.1777 227.069 65.2039C227.069 65.2301 227.069 65.2432 227.121 65.2563L228.47 65.8654C228.549 65.896 228.621 65.9436 228.68 66.0046C228.738 66.0657 228.783 66.1389 228.811 66.2191C228.837 66.2985 228.845 66.3828 228.833 66.4657C228.822 66.5485 228.792 66.6277 228.745 66.6972C228.709 66.7709 228.655 66.8349 228.589 66.8839C228.523 66.9329 228.447 66.9654 228.365 66.9788C228.284 66.9949 228.201 66.9946 228.12 66.9777C228.039 66.9608 227.962 66.9278 227.894 66.8805L226.695 65.9964C226.682 65.9876 226.666 65.983 226.65 65.983C226.633 65.983 226.617 65.9876 226.604 65.9964C226.596 66.0067 226.591 66.0194 226.591 66.0324C226.591 66.0455 226.596 66.0581 226.604 66.0684L226.767 67.5289C226.783 67.6108 226.778 67.695 226.754 67.7748C226.73 67.8545 226.688 67.9274 226.63 67.9874C226.572 68.0484 226.502 68.0963 226.424 68.128C226.346 68.1596 226.262 68.1742 226.178 68.1707Z" fill="white"/>
<path d="M234.122 68.1708C234.044 68.1739 233.966 68.1589 233.894 68.1271C233.823 68.0953 233.76 68.0475 233.71 67.9874C233.657 67.9242 233.617 67.851 233.594 67.7722C233.57 67.6934 233.563 67.6107 233.572 67.5289L233.736 66.0685C233.736 66.0685 233.736 66.0095 233.736 65.9964C233.736 65.9833 233.683 65.9964 233.644 65.9964L232.446 66.8609C232.383 66.9134 232.309 66.9513 232.23 66.9717C232.15 66.9921 232.067 66.9945 231.987 66.9788C231.906 66.9627 231.83 66.9291 231.763 66.8805C231.696 66.8319 231.641 66.7693 231.601 66.6972C231.549 66.6226 231.516 66.5366 231.504 66.4465C231.493 66.3564 231.504 66.2649 231.535 66.1798C231.607 66.037 231.728 65.9252 231.876 65.8654L233.225 65.2564C233.225 65.2564 233.277 65.2564 233.277 65.204C233.277 65.1516 233.277 65.1581 233.225 65.145L231.876 64.5425C231.798 64.5115 231.727 64.4637 231.67 64.4026C231.612 64.3415 231.568 64.2686 231.542 64.1888C231.5 64.0278 231.521 63.8568 231.601 63.7107C231.641 63.6384 231.697 63.5755 231.763 63.5258C231.83 63.4762 231.906 63.4411 231.987 63.4226C232.148 63.3955 232.313 63.4331 232.446 63.5274L233.644 64.4115C233.683 64.4115 233.716 64.4442 233.736 64.4115C233.755 64.3788 233.736 64.3722 233.736 64.3329L233.572 62.879C233.562 62.7967 233.57 62.7133 233.595 62.6342C233.619 62.5552 233.661 62.4823 233.716 62.4205C233.772 62.3593 233.841 62.3112 233.918 62.2795C233.995 62.2478 234.078 62.2334 234.161 62.2372C234.242 62.2345 234.321 62.2495 234.395 62.2812C234.468 62.3129 234.534 62.3605 234.587 62.4205C234.642 62.482 234.682 62.5555 234.704 62.6351C234.725 62.7146 234.728 62.7982 234.712 62.879L234.548 64.3329C234.548 64.3722 234.548 64.3984 234.548 64.4115C234.548 64.4115 234.6 64.4115 234.64 64.4115L235.838 63.547C235.903 63.4942 235.979 63.4558 236.061 63.4343C236.142 63.4129 236.227 63.4089 236.31 63.4226C236.39 63.4386 236.465 63.4729 236.53 63.5229C236.595 63.5729 236.647 63.6372 236.683 63.7107C236.735 63.7853 236.768 63.8713 236.779 63.9614C236.791 64.0515 236.78 64.143 236.748 64.2281C236.677 64.3709 236.556 64.4827 236.408 64.5425L235.065 65.145C235.026 65.145 235.006 65.1647 235.006 65.204C235.006 65.204 235.006 65.2433 235.065 65.2564L236.408 65.8654C236.487 65.8953 236.559 65.9425 236.618 66.0037C236.677 66.0649 236.722 66.1385 236.748 66.2191C236.777 66.2982 236.785 66.3829 236.774 66.4661C236.763 66.5493 236.731 66.6286 236.683 66.6972C236.648 66.7705 236.595 66.8342 236.53 66.8832C236.465 66.9322 236.39 66.965 236.31 66.9788C236.228 66.9957 236.145 66.9957 236.064 66.9788C235.982 66.9619 235.906 66.9285 235.838 66.8806L234.692 66.0161C234.653 66.0161 234.626 65.9833 234.6 66.0161C234.574 66.0488 234.6 66.0554 234.6 66.0881L234.764 67.5486C234.779 67.6304 234.775 67.7147 234.751 67.7944C234.727 67.8742 234.684 67.947 234.626 68.007C234.561 68.0718 234.481 68.1204 234.394 68.1488C234.306 68.1772 234.213 68.1848 234.122 68.1708Z" fill="white"/>
<path d="M242.065 68.1709C241.986 68.1745 241.907 68.1598 241.834 68.128C241.762 68.0962 241.697 68.0481 241.646 67.9875C241.593 67.9243 241.554 67.8511 241.53 67.7723C241.507 67.6936 241.499 67.6108 241.509 67.529L241.679 66.0686C241.679 66.0686 241.679 66.0096 241.679 65.9965C241.665 65.9878 241.649 65.9831 241.633 65.9831C241.617 65.9831 241.601 65.9878 241.587 65.9965L240.389 66.861C240.325 66.9137 240.25 66.9516 240.169 66.9719C240.089 66.9923 240.005 66.9947 239.924 66.9789C239.843 66.9628 239.766 66.9292 239.7 66.8806C239.633 66.832 239.577 66.7694 239.537 66.6973C239.484 66.6231 239.451 66.5367 239.441 66.4462C239.431 66.3557 239.444 66.2641 239.478 66.1799C239.511 66.1074 239.558 66.0422 239.617 65.9883C239.675 65.9343 239.744 65.8925 239.819 65.8655L241.129 65.2565C241.168 65.2565 241.181 65.2565 241.181 65.2041C241.181 65.1517 241.181 65.1582 241.129 65.1451L239.819 64.5426C239.74 64.5136 239.668 64.4666 239.61 64.4052C239.552 64.3438 239.509 64.2698 239.485 64.1889C239.46 64.11 239.451 64.0267 239.46 63.9443C239.469 63.8619 239.495 63.7824 239.537 63.7109C239.581 63.6415 239.638 63.5819 239.706 63.5357C239.773 63.4895 239.85 63.4577 239.93 63.4423C240.093 63.4176 240.259 63.455 240.395 63.5471L241.594 64.4313C241.607 64.44 241.623 64.4447 241.64 64.4447C241.656 64.4447 241.672 64.44 241.685 64.4313C241.685 64.4313 241.685 64.392 241.685 64.3527L241.515 62.8987C241.506 62.816 241.515 62.7323 241.541 62.6532C241.567 62.5741 241.609 62.5015 241.666 62.4403C241.721 62.3792 241.789 62.3311 241.865 62.2994C241.941 62.2677 242.022 62.2532 242.105 62.2569C242.185 62.2538 242.265 62.2686 242.338 62.3003C242.412 62.332 242.478 62.3799 242.53 62.4403C242.586 62.5012 242.627 62.5744 242.65 62.654C242.673 62.7336 242.677 62.8174 242.661 62.8987L242.498 64.3527C242.498 64.392 242.498 64.4182 242.498 64.4313C242.511 64.44 242.527 64.4447 242.543 64.4447C242.56 64.4447 242.576 64.44 242.589 64.4313L243.788 63.5668C243.854 63.5147 243.929 63.4767 244.011 63.4553C244.092 63.4339 244.176 63.4295 244.259 63.4423C244.34 63.4583 244.417 63.4926 244.483 63.5425C244.548 63.5925 244.602 63.6568 244.639 63.7305C244.691 63.8051 244.724 63.8911 244.735 63.9811C244.747 64.0712 244.736 64.1627 244.705 64.2479C244.633 64.3907 244.512 64.5025 244.364 64.5623L243.015 65.1648C243.015 65.1648 242.963 65.1975 242.963 65.2237C242.963 65.2499 242.963 65.263 243.015 65.2761L244.364 65.8852C244.443 65.9158 244.515 65.9633 244.573 66.0244C244.632 66.0855 244.677 66.1587 244.705 66.2388C244.731 66.3183 244.738 66.4026 244.727 66.4855C244.716 66.5683 244.686 66.6475 244.639 66.7169C244.603 66.7907 244.549 66.8547 244.483 66.9037C244.417 66.9527 244.34 66.9852 244.259 66.9986C244.178 67.0147 244.095 67.0144 244.014 66.9975C243.933 66.9806 243.856 66.9475 243.788 66.9003L242.589 66.0162C242.576 66.0074 242.56 66.0028 242.543 66.0028C242.527 66.0028 242.511 66.0074 242.498 66.0162C242.498 66.0162 242.498 66.0555 242.498 66.0882L242.661 67.5487C242.676 67.6305 242.672 67.7148 242.648 67.7945C242.624 67.8743 242.581 67.9471 242.524 68.0071C242.463 68.0655 242.391 68.1103 242.312 68.1385C242.233 68.1668 242.149 68.1778 242.065 68.1709Z" fill="white"/>
<path d="M250.003 68.1708C249.925 68.1739 249.847 68.1589 249.775 68.1271C249.704 68.0953 249.641 68.0475 249.59 67.9874C249.538 67.9242 249.498 67.851 249.475 67.7722C249.451 67.6934 249.444 67.6107 249.453 67.5289L249.617 66.0685C249.617 66.0685 249.617 66.0095 249.617 65.9964C249.617 65.9833 249.564 65.9964 249.525 65.9964L248.326 66.8609C248.264 66.9134 248.19 66.9513 248.111 66.9717C248.031 66.9921 247.948 66.9945 247.868 66.9788C247.787 66.9627 247.711 66.9291 247.644 66.8805C247.577 66.8319 247.522 66.7693 247.482 66.6972C247.43 66.6226 247.397 66.5366 247.385 66.4465C247.374 66.3564 247.384 66.2649 247.416 66.1798C247.487 66.037 247.609 65.9252 247.757 65.8654L249.066 65.2564C249.106 65.2564 249.125 65.2564 249.125 65.204C249.125 65.1516 249.125 65.1581 249.066 65.145L247.757 64.5425C247.679 64.5115 247.608 64.4637 247.55 64.4026C247.493 64.3415 247.449 64.2686 247.423 64.1888C247.381 64.0278 247.402 63.8568 247.482 63.7107C247.522 63.6384 247.578 63.5755 247.644 63.5258C247.711 63.4762 247.787 63.4411 247.868 63.4226C248.029 63.3955 248.193 63.4331 248.326 63.5274L249.525 64.4115C249.564 64.4115 249.59 64.4442 249.617 64.4115C249.643 64.3788 249.617 64.3722 249.617 64.3329L249.453 62.879C249.443 62.7967 249.451 62.7133 249.475 62.6342C249.5 62.5552 249.542 62.4823 249.597 62.4205C249.653 62.3593 249.722 62.3112 249.799 62.2795C249.876 62.2478 249.959 62.2334 250.042 62.2372C250.122 62.2345 250.202 62.2495 250.276 62.2812C250.349 62.3129 250.415 62.3605 250.468 62.4205C250.523 62.482 250.563 62.5555 250.584 62.6351C250.606 62.7146 250.609 62.7982 250.592 62.879L250.429 64.3329C250.429 64.3722 250.429 64.3984 250.429 64.4115C250.429 64.4115 250.481 64.4115 250.52 64.4115L251.719 63.547C251.784 63.4942 251.86 63.4558 251.941 63.4343C252.023 63.4129 252.108 63.4089 252.19 63.4226C252.271 63.4386 252.346 63.4729 252.411 63.5229C252.476 63.5729 252.528 63.6372 252.564 63.7107C252.616 63.7853 252.649 63.8713 252.66 63.9614C252.671 64.0515 252.661 64.143 252.629 64.2281C252.558 64.3709 252.437 64.4827 252.289 64.5425L250.946 65.145C250.907 65.145 250.887 65.1647 250.887 65.204C250.887 65.204 250.887 65.2433 250.946 65.2564L252.289 65.8654C252.368 65.8953 252.44 65.9425 252.499 66.0037C252.558 66.0649 252.602 66.1385 252.629 66.2191C252.655 66.2985 252.663 66.3829 252.652 66.4657C252.64 66.5485 252.61 66.6277 252.564 66.6972C252.528 66.7705 252.476 66.8342 252.411 66.8832C252.346 66.9322 252.271 66.965 252.19 66.9788C252.109 66.9957 252.026 66.9957 251.944 66.9788C251.863 66.9619 251.787 66.9285 251.719 66.8806L250.52 65.9964C250.481 65.9964 250.455 65.9637 250.429 65.9964C250.403 66.0292 250.429 66.0357 250.429 66.0685L250.592 67.5289C250.608 67.6108 250.603 67.6951 250.579 67.7748C250.555 67.8545 250.513 67.9274 250.455 67.9874C250.397 68.0484 250.327 68.0964 250.249 68.128C250.171 68.1596 250.087 68.1742 250.003 68.1708Z" fill="#67ACFF"/>
</g>
<g clip-path="url(#clip5_1060_24911)">
<path d="M193.876 85.1399H174.208C173.485 85.1399 172.898 85.7263 172.898 86.4497V99.8887C172.898 100.612 173.485 101.199 174.208 101.199H193.876C194.599 101.199 195.185 100.612 195.185 99.8887V86.4497C195.185 85.7263 194.599 85.1399 193.876 85.1399Z" fill="white"/>
<path d="M184.184 95.5663C184.069 95.5654 183.959 95.5262 183.869 95.4549L173.168 86.6069C173.118 86.5658 173.076 86.5152 173.046 86.4579C173.015 86.4007 172.997 86.338 172.99 86.2735C172.984 86.2089 172.991 86.1438 173.01 86.0819C173.029 86.02 173.061 85.9625 173.102 85.9127C173.185 85.8135 173.304 85.7509 173.433 85.7387C173.561 85.7264 173.69 85.7654 173.79 85.8472L184.177 94.4267L194.296 85.618C194.394 85.5335 194.522 85.4909 194.652 85.4995C194.782 85.5081 194.903 85.567 194.99 85.6638C195.073 85.7634 195.115 85.8919 195.105 86.0216C195.095 86.1514 195.035 86.2722 194.937 86.3581L184.504 95.4353C184.419 95.5193 184.304 95.5663 184.184 95.5663Z" fill="#6F7FA9"/>
<path d="M173.476 100.825C173.351 100.827 173.231 100.78 173.142 100.694C173.05 100.602 172.998 100.477 172.998 100.347C172.998 100.217 173.05 100.092 173.142 100L180.627 92.141C180.72 92.049 180.844 91.9973 180.975 91.9973C181.105 91.9973 181.23 92.049 181.322 92.141C181.414 92.2331 181.465 92.3579 181.465 92.4881C181.465 92.6182 181.414 92.7431 181.322 92.8352L173.836 100.694C173.788 100.739 173.731 100.774 173.669 100.797C173.607 100.819 173.541 100.829 173.476 100.825Z" fill="#6F7FA9"/>
<path d="M194.616 100.537C194.552 100.537 194.488 100.525 194.428 100.5C194.369 100.475 194.315 100.439 194.269 100.393L186.81 92.9204C186.718 92.8283 186.666 92.7034 186.666 92.5733C186.666 92.4431 186.718 92.3183 186.81 92.2262C186.902 92.1342 187.027 92.0825 187.157 92.0825C187.287 92.0825 187.412 92.1342 187.504 92.2262L194.963 99.7054C195.054 99.7994 195.105 99.925 195.105 100.056C195.105 100.186 195.054 100.312 194.963 100.406C194.869 100.492 194.744 100.539 194.616 100.537Z" fill="#6F7FA9"/>
</g>
</g>
<defs>
<clipPath id="clip0_1060_24911">
<rect width="262.008" height="200" fill="white"/>
</clipPath>
<clipPath id="clip1_1060_24911">
<rect width="42.4193" height="68.0202" fill="white" transform="translate(56.3242 112.646)"/>
</clipPath>
<clipPath id="clip2_1060_24911">
<rect width="35.7718" height="29.406" fill="white" transform="translate(218.09 87.1046)"/>
</clipPath>
<clipPath id="clip3_1060_24911">
<rect width="47.8617" height="22.9419" fill="white" transform="translate(42.5703 49.774)"/>
</clipPath>
<clipPath id="clip4_1060_24911">
<rect width="43.6309" height="11.245" fill="white" transform="translate(212.85 59.5979)"/>
</clipPath>
<clipPath id="clip5_1060_24911">
<rect width="22.287" height="16.0587" fill="white" transform="translate(172.898 85.1399)"/>
</clipPath>
</defs>
</svg>
