<svg width="269" height="200" viewBox="0 0 269 200" fill="none" xmlns="http://www.w3.org/2000/svg">
<g clip-path="url(#clip0_1102_24847)">
<path d="M165.854 200C223.331 200 269.926 197.28 269.926 193.924C269.926 190.568 223.331 187.848 165.854 187.848C108.378 187.848 61.7832 190.568 61.7832 193.924C61.7832 197.28 108.378 200 165.854 200Z" fill="#F5F5F5"/>
<path d="M254.496 40.3333H75.8701C72.9366 40.3333 70.5586 42.7114 70.5586 45.6448V155.657C70.5586 158.591 72.9366 160.969 75.8701 160.969H254.496C257.43 160.969 259.808 158.591 259.808 155.657V45.6448C259.808 42.7114 257.43 40.3333 254.496 40.3333Z" fill="#407BFF"/>
<path d="M189.392 193.924H145.201C149.53 177.598 146.937 160.009 137.43 143.69H181.621C191.128 160.009 193.721 177.598 189.392 193.924Z" fill="#407BFF"/>
<path d="M187.087 193.924H142.889C147.218 177.598 144.632 160.009 135.117 143.69H179.316C188.86 160.009 191.416 177.598 187.087 193.924Z" fill="#407BFF"/>
<path d="M188.594 167.152H143.916C142.381 158.881 139.403 150.944 135.117 143.705H179.796C184.075 150.947 187.053 158.883 188.594 167.152Z" fill="#407BFF"/>
<path d="M187.087 193.924H142.889C147.218 177.598 144.632 160.009 135.117 143.69H179.316C188.86 160.009 191.416 177.598 187.087 193.924Z" fill="#407BFF"/>
<path d="M251.985 40.3333H73.3584C70.4249 40.3333 68.0469 42.7114 68.0469 45.6448V155.657C68.0469 158.591 70.4249 160.969 73.3584 160.969H251.985C254.918 160.969 257.296 158.591 257.296 155.657V45.6448C257.296 42.7114 254.918 40.3333 251.985 40.3333Z" fill="#407BFF"/>
<path d="M178.887 190.43H128.432C127.505 190.43 126.616 190.798 125.961 191.453C125.306 192.108 124.938 192.997 124.938 193.924H182.382C182.382 192.997 182.013 192.108 181.358 191.453C180.703 190.798 179.814 190.43 178.887 190.43Z" fill="#407BFF"/>
<path d="M257.296 46.4353H68.0469V143.675H257.296V46.4353Z" fill="#407BFF"/>
<path opacity="0.84" d="M257.23 46.4353H67.9805V143.675H257.23V46.4353Z" fill="#FAFAFA"/>
<path opacity="0.23" d="M229.794 53.9556H102.295C101.137 53.9556 100.197 54.8949 100.197 56.0536V130.636C100.197 131.795 101.137 132.734 102.295 132.734H229.794C230.952 132.734 231.892 131.795 231.892 130.636V56.0536C231.892 54.8949 230.952 53.9556 229.794 53.9556Z" fill="#407BFF"/>
<path opacity="0.67" d="M231.337 59.3779V130.636C231.337 131.193 231.116 131.726 230.723 132.12C230.329 132.513 229.795 132.734 229.239 132.734H101.741C101.185 132.732 100.652 132.511 100.259 132.118C99.8662 131.725 99.6445 131.192 99.6426 130.636V59.3779H231.337Z" fill="#FAFAFA"/>
<path opacity="0.41" d="M230.954 62.1631H100.027V129.942H230.954V62.1631Z" fill="white"/>
<path opacity="0.19" d="M204.218 108.962C200.777 108.962 197.413 107.942 194.552 106.03C191.691 104.118 189.461 101.401 188.145 98.2224C186.828 95.0434 186.483 91.5454 187.155 88.1707C187.826 84.796 189.483 81.6961 191.916 79.263C194.349 76.83 197.449 75.173 200.824 74.5018C204.198 73.8305 207.696 74.175 210.875 75.4918C214.054 76.8085 216.771 79.0384 218.683 81.8993C220.594 84.7603 221.615 88.1239 221.615 91.5647C221.609 96.1769 219.774 100.599 216.513 103.86C213.251 107.121 208.83 108.956 204.218 108.962ZM204.218 74.3522C200.813 74.3522 197.485 75.3617 194.655 77.253C191.824 79.1444 189.618 81.8326 188.315 84.9778C187.012 88.123 186.672 91.5838 187.336 94.9227C188 98.2616 189.639 101.329 192.046 103.736C194.454 106.143 197.521 107.782 200.86 108.447C204.198 109.111 207.659 108.77 210.805 107.467C213.95 106.164 216.638 103.958 218.529 101.127C220.421 98.2969 221.43 94.969 221.43 91.5647C221.426 87.0009 219.611 82.6251 216.384 79.3979C213.157 76.1708 208.781 74.3561 204.218 74.3522Z" fill="#407BFF"/>
<path opacity="0.19" d="M174.971 108.962C171.531 108.962 168.167 107.941 165.306 106.03C162.445 104.118 160.215 101.401 158.899 98.2222C157.582 95.0433 157.237 91.5453 157.909 88.1706C158.58 84.7958 160.237 81.696 162.67 79.2629C165.103 76.8299 168.203 75.1729 171.577 74.5016C174.952 73.8304 178.45 74.1749 181.629 75.4917C184.808 76.8084 187.525 79.0382 189.437 81.8992C191.348 84.7602 192.369 88.1237 192.369 91.5646C192.361 96.1762 190.525 100.597 187.265 103.858C184.004 107.119 179.583 108.954 174.971 108.962ZM174.971 74.3521C171.567 74.3521 168.239 75.3616 165.409 77.2529C162.578 79.1442 160.372 81.8325 159.069 84.9777C157.766 88.1228 157.426 91.5837 158.09 94.9226C158.754 98.2615 160.393 101.328 162.8 103.736C165.208 106.143 168.275 107.782 171.613 108.446C174.952 109.111 178.413 108.77 181.558 107.467C184.704 106.164 187.392 103.958 189.283 101.127C191.175 98.2968 192.184 94.9689 192.184 91.5646C192.178 87.0013 190.363 82.6267 187.136 79.4C183.909 76.1732 179.535 74.3579 174.971 74.3521Z" fill="#407BFF"/>
<path opacity="0.19" d="M221.527 118.684H118.843C118.831 118.684 118.818 118.681 118.807 118.676C118.796 118.671 118.786 118.664 118.777 118.655C118.769 118.646 118.763 118.636 118.759 118.624C118.755 118.612 118.753 118.6 118.754 118.588V115.729C118.753 115.717 118.755 115.704 118.759 115.693C118.763 115.681 118.769 115.67 118.777 115.661C118.786 115.652 118.796 115.645 118.807 115.64C118.818 115.635 118.831 115.633 118.843 115.633H221.527C221.539 115.633 221.552 115.635 221.563 115.64C221.574 115.645 221.584 115.652 221.593 115.661C221.601 115.67 221.607 115.681 221.611 115.693C221.615 115.704 221.617 115.717 221.616 115.729V118.588C221.617 118.6 221.615 118.612 221.611 118.624C221.607 118.636 221.601 118.646 221.593 118.655C221.584 118.664 221.574 118.671 221.563 118.676C221.552 118.681 221.539 118.684 221.527 118.684ZM118.909 118.499H221.431V115.817H118.909V118.499Z" fill="#407BFF"/>
<path opacity="0.19" d="M227.274 123.677H103.728C103.715 123.678 103.703 123.675 103.692 123.67C103.681 123.665 103.671 123.658 103.662 123.649C103.654 123.64 103.647 123.629 103.643 123.618C103.639 123.606 103.638 123.594 103.639 123.581V68.5309C103.638 68.5186 103.639 68.5063 103.643 68.4947C103.647 68.483 103.654 68.4724 103.662 68.4633C103.671 68.4543 103.681 68.4471 103.692 68.4422C103.703 68.4373 103.715 68.4348 103.728 68.4348H227.274C227.286 68.4348 227.298 68.4373 227.31 68.4422C227.321 68.4471 227.331 68.4543 227.339 68.4633C227.348 68.4724 227.354 68.483 227.358 68.4947C227.362 68.5063 227.363 68.5186 227.362 68.5309V123.567C227.366 123.58 227.366 123.594 227.363 123.607C227.36 123.621 227.354 123.633 227.346 123.644C227.337 123.655 227.326 123.664 227.314 123.669C227.301 123.675 227.288 123.678 227.274 123.677ZM103.846 123.493H227.215V68.6195H103.824L103.846 123.493Z" fill="#407BFF"/>
<path d="M225.627 56.6816C225.626 56.9025 225.69 57.1189 225.811 57.3033C225.933 57.4878 226.107 57.6319 226.31 57.7174C226.514 57.803 226.739 57.8262 226.956 57.7839C227.172 57.7417 227.372 57.6361 227.529 57.4804C227.685 57.3247 227.792 57.1259 227.836 56.9093C227.88 56.6928 227.858 56.4681 227.774 56.2638C227.69 56.0596 227.547 55.8849 227.363 55.762C227.179 55.6391 226.963 55.5735 226.742 55.5735C226.596 55.5725 226.451 55.6005 226.316 55.6557C226.181 55.711 226.058 55.7924 225.954 55.8954C225.85 55.9984 225.768 56.1209 225.712 56.2558C225.656 56.3908 225.627 56.5355 225.627 56.6816Z" fill="white"/>
<path d="M222.789 57.797C223.405 57.797 223.905 57.2976 223.905 56.6815C223.905 56.0655 223.405 55.566 222.789 55.566C222.173 55.566 221.674 56.0655 221.674 56.6815C221.674 57.2976 222.173 57.797 222.789 57.797Z" fill="white"/>
<path d="M218.838 57.797C219.454 57.797 219.954 57.2976 219.954 56.6815C219.954 56.0655 219.454 55.566 218.838 55.566C218.222 55.566 217.723 56.0655 217.723 56.6815C217.723 57.2976 218.222 57.797 218.838 57.797Z" fill="white"/>
<path d="M231.337 59.2375H99.6426V59.5183H231.337V59.2375Z" fill="#407BFF"/>
<path opacity="0.47" d="M118.629 46.4427L101.246 143.682H118.451L135.834 46.4427H118.629Z" fill="#FAFAFA"/>
<path opacity="0.47" d="M140.029 46.4427L122.654 143.682H131.253L148.636 46.4427H140.029Z" fill="#FAFAFA"/>
<path opacity="0.4" d="M236.183 46.4427L218.801 143.682H223.108L240.483 46.4427H236.183Z" fill="white"/>
<path opacity="0.4" d="M228.611 46.4427L211.229 143.682H215.535L232.91 46.4427H228.611Z" fill="white"/>
<path d="M190.906 190.43H181.871C180.944 190.43 180.056 190.798 179.4 191.453C178.745 192.108 178.377 192.997 178.377 193.924H194.393C194.394 193.465 194.304 193.011 194.129 192.587C193.955 192.163 193.698 191.778 193.374 191.454C193.05 191.129 192.666 190.871 192.242 190.696C191.818 190.52 191.364 190.43 190.906 190.43Z" fill="#407BFF"/>
<path d="M166.292 152.547C166.292 153.263 166.08 153.963 165.682 154.558C165.285 155.154 164.719 155.618 164.058 155.892C163.396 156.166 162.669 156.237 161.966 156.098C161.264 155.958 160.619 155.613 160.113 155.107C159.607 154.601 159.262 153.956 159.122 153.253C158.983 152.551 159.054 151.824 159.328 151.162C159.602 150.501 160.066 149.935 160.661 149.538C161.257 149.14 161.957 148.927 162.673 148.927C163.633 148.927 164.553 149.309 165.232 149.988C165.911 150.667 166.292 151.587 166.292 152.547Z" fill="#407BFF"/>
<path d="M166.759 184.853C166.388 172.003 166.42 93.642 167.167 87.2063L168.181 85.8054C168.181 85.8054 167.714 87.0507 167.601 109.074C167.489 131.097 167.338 181.584 167.462 184.853H166.759Z" fill="#407BFF"/>
<path d="M172.786 137.194C177.08 130.045 181.782 124.962 185.185 122.165C188.588 119.369 179.667 137.527 176.178 144.285C172.689 151.043 168.39 158.514 167.005 164.826C166.737 151.987 168.487 144.344 172.786 137.194Z" fill="#407BFF"/>
<path d="M167.09 88.1082C167.97 79.9817 166.779 72.4725 171.201 62.9559C175.624 53.4392 178.99 45.9676 183.257 42.4948C184.282 41.6574 180.777 58.2002 176.703 67.5183C173.831 74.0935 172.908 78.7901 169.859 83.2237C169.146 84.2543 167.09 88.1082 167.09 88.1082Z" fill="#407BFF"/>
<path d="M167.068 131.467C167.959 121.435 168.765 111.774 174.524 97.5014C175.925 94.0232 188.909 69.719 192.296 67.0889C193.954 65.7953 188.152 81.9462 182.484 95.5368C178.238 105.735 176.478 108.655 171.749 120.485C169.897 125.171 167.068 131.467 167.068 131.467Z" fill="#407BFF"/>
<path d="M159.512 81.9623C154.681 75.4193 150.011 70.9964 146.581 68.683C143.151 66.3696 152.485 82.4561 156.973 89.4769C161.46 96.4976 165.523 102.59 167.38 108.677C166.489 95.8643 164.342 88.5107 159.512 81.9623Z" fill="#407BFF"/>
<path d="M167.07 149.244C166.157 142.267 164.279 134.07 161.595 127.994C158.911 121.918 154.778 112.6 151.493 109.439C150.704 108.677 154.928 126.803 157.644 131.623C160.36 136.443 162.346 140.989 164.053 143.721C164.622 144.607 167.07 149.244 167.07 149.244Z" fill="#407BFF"/>
<path opacity="0.5" d="M166.759 184.853C166.388 172.003 166.42 93.642 167.167 87.2063L168.181 85.8054C168.181 85.8054 167.714 87.0507 167.601 109.074C167.489 131.097 167.338 181.584 167.462 184.853H166.759Z" fill="white"/>
<path opacity="0.5" d="M172.786 137.194C177.08 130.045 181.782 124.962 185.185 122.165C188.588 119.369 179.667 137.527 176.178 144.285C172.689 151.043 168.39 158.514 167.005 164.826C166.737 151.987 168.487 144.344 172.786 137.194Z" fill="white"/>
<path opacity="0.5" d="M167.09 88.1082C167.97 79.9817 166.779 72.4725 171.201 62.9559C175.624 53.4392 178.99 45.9676 183.257 42.4948C184.282 41.6574 180.777 58.2002 176.703 67.5183C173.831 74.0935 172.908 78.7901 169.859 83.2237C169.146 84.2543 167.09 88.1082 167.09 88.1082Z" fill="white"/>
<path opacity="0.5" d="M167.068 131.467C167.959 121.435 168.765 111.774 174.524 97.5014C175.925 94.0232 188.909 69.719 192.296 67.0889C193.954 65.7953 188.152 81.9462 182.484 95.5368C178.238 105.735 176.478 108.655 171.749 120.485C169.897 125.171 167.068 131.467 167.068 131.467Z" fill="white"/>
<path opacity="0.5" d="M159.512 81.9623C154.681 75.4193 150.011 70.9964 146.581 68.683C143.151 66.3696 152.485 82.4561 156.973 89.4769C161.46 96.4976 165.523 102.59 167.38 108.677C166.489 95.8643 164.342 88.5107 159.512 81.9623Z" fill="white"/>
<path opacity="0.5" d="M167.07 149.244C166.157 142.267 164.279 134.07 161.595 127.994C158.911 121.918 154.778 112.6 151.493 109.439C150.704 108.677 154.928 126.803 157.644 131.623C160.36 136.443 162.346 140.989 164.053 143.721C164.622 144.607 167.07 149.244 167.07 149.244Z" fill="white"/>
<path d="M177.288 193.924H156.945L155.41 182.228H178.823L177.288 193.924Z" fill="#263238"/>
<path d="M180.337 183.591H153.892L153.135 179.646H181.094L180.337 183.591Z" fill="#263238"/>
<path d="M115.689 57.4943H32.3962C29.5443 57.4943 27.2324 59.8062 27.2324 62.658V188.753C27.2324 191.605 29.5443 193.917 32.3962 193.917H115.689C118.541 193.917 120.852 191.605 120.852 188.753V62.658C120.852 59.8062 118.541 57.4943 115.689 57.4943Z" fill="#407BFF"/>
<path d="M113.214 57.4943H29.9216C27.0697 57.4943 24.7578 59.8062 24.7578 62.658V188.753C24.7578 191.605 27.0697 193.917 29.9216 193.917H113.214C116.066 193.917 118.378 191.605 118.378 188.753V62.658C118.378 59.8062 116.066 57.4943 113.214 57.4943Z" fill="#407BFF"/>
<path d="M118.378 63.4261H24.7578V181.846H118.378V63.4261Z" fill="#FAFAFA"/>
<path opacity="0.1" d="M118.378 63.4261H24.7578V181.846H118.378V63.4261Z" fill="#407BFF"/>
<path opacity="0.48" d="M57.9487 63.7145L36.5254 182.141H52.8884L74.3117 63.7145H57.9487Z" fill="#FAFAFA"/>
<path opacity="0.48" d="M79.1733 63.4263L57.75 181.846H65.9278L87.3511 63.4263H79.1733Z" fill="#FAFAFA"/>
<path d="M71.5633 191.324C73.5053 191.324 75.0796 189.749 75.0796 187.807C75.0796 185.865 73.5053 184.291 71.5633 184.291C69.6212 184.291 68.0469 185.865 68.0469 187.807C68.0469 189.749 69.6212 191.324 71.5633 191.324Z" fill="#407BFF"/>
<path d="M72.3772 60.2275C72.3772 60.3882 72.3295 60.5454 72.2402 60.679C72.1509 60.8126 72.024 60.9168 71.8755 60.9783C71.727 61.0398 71.5637 61.0559 71.406 61.0245C71.2484 60.9932 71.1036 60.9158 70.99 60.8021C70.8763 60.6885 70.7989 60.5437 70.7676 60.3861C70.7362 60.2284 70.7523 60.065 70.8138 59.9166C70.8753 59.7681 70.9795 59.6412 71.1131 59.5519C71.2467 59.4626 71.4038 59.4149 71.5646 59.4149C71.7801 59.4149 71.9868 59.5005 72.1392 59.6529C72.2916 59.8053 72.3772 60.012 72.3772 60.2275Z" fill="#407BFF"/>
<path d="M143.578 108.688L146.661 108.11C146.711 108.102 146.758 108.083 146.799 108.054C146.84 108.026 146.874 107.989 146.899 107.946C146.924 107.902 146.94 107.854 146.944 107.804C146.948 107.755 146.941 107.704 146.924 107.657L144.499 100.476C144.461 100.373 144.389 100.285 144.294 100.229C144.198 100.173 144.087 100.152 143.978 100.169L140.898 100.743C140.849 100.751 140.801 100.77 140.76 100.799C140.718 100.827 140.684 100.865 140.658 100.909C140.633 100.952 140.618 101.001 140.614 101.052C140.61 101.102 140.618 101.152 140.636 101.2L143.061 108.381C143.097 108.485 143.169 108.572 143.263 108.628C143.358 108.685 143.469 108.706 143.578 108.688Z" fill="#FF6C37"/>
<path opacity="0.6" d="M143.578 108.688L146.661 108.11C146.711 108.102 146.758 108.083 146.799 108.054C146.84 108.026 146.874 107.989 146.899 107.946C146.924 107.902 146.94 107.854 146.944 107.804C146.948 107.755 146.941 107.704 146.924 107.657L144.499 100.476C144.461 100.373 144.389 100.285 144.294 100.229C144.198 100.173 144.087 100.152 143.978 100.169L140.898 100.743C140.849 100.751 140.801 100.77 140.76 100.799C140.718 100.827 140.684 100.865 140.658 100.909C140.633 100.952 140.618 101.001 140.614 101.052C140.61 101.102 140.618 101.152 140.636 101.2L143.061 108.381C143.097 108.485 143.169 108.572 143.263 108.628C143.358 108.685 143.469 108.706 143.578 108.688Z" fill="black"/>
<path d="M143.959 108.632L147.038 108.058C147.088 108.05 147.136 108.031 147.177 108.002C147.219 107.973 147.253 107.936 147.278 107.892C147.303 107.848 147.319 107.799 147.323 107.749C147.326 107.699 147.319 107.648 147.301 107.601L144.876 100.42C144.838 100.316 144.766 100.229 144.671 100.173C144.575 100.117 144.464 100.096 144.355 100.113L141.275 100.69C141.226 100.698 141.178 100.717 141.137 100.745C141.095 100.773 141.061 100.81 141.036 100.854C141.01 100.897 140.995 100.946 140.991 100.996C140.987 101.046 140.995 101.096 141.013 101.143L143.438 108.324C143.476 108.428 143.548 108.515 143.643 108.571C143.738 108.627 143.85 108.649 143.959 108.632Z" fill="#FF6C37"/>
<path opacity="0.3" d="M143.959 108.632L147.038 108.058C147.088 108.05 147.136 108.031 147.177 108.002C147.219 107.973 147.253 107.936 147.278 107.892C147.303 107.848 147.319 107.799 147.323 107.749C147.326 107.699 147.319 107.648 147.301 107.601L144.876 100.42C144.838 100.316 144.766 100.229 144.671 100.173C144.575 100.117 144.464 100.096 144.355 100.113L141.275 100.69C141.226 100.698 141.178 100.717 141.137 100.745C141.095 100.773 141.061 100.81 141.036 100.854C141.01 100.897 140.995 100.946 140.991 100.996C140.987 101.046 140.995 101.096 141.013 101.143L143.438 108.324C143.476 108.428 143.548 108.515 143.643 108.571C143.738 108.627 143.85 108.649 143.959 108.632Z" fill="black"/>
<path d="M143.272 107.835L147.135 107.112L144.961 100.67L141.094 101.39L143.272 107.835Z" fill="#FAFAFA"/>
<path opacity="0.14" d="M143.272 107.835L147.135 107.112L144.961 100.67L141.094 101.39L143.272 107.835Z" fill="#FF6C37"/>
<path d="M141.094 104.174L141.397 103.471L144.307 106.74L141.789 106.938L141.094 104.174Z" fill="#E58A7B"/>
<path d="M91.3822 78.8191C94.826 78.8191 97.6178 76.0273 97.6178 72.5834C97.6178 69.1396 94.826 66.3478 91.3822 66.3478C87.9383 66.3478 85.1465 69.1396 85.1465 72.5834C85.1465 76.0273 87.9383 78.8191 91.3822 78.8191Z" fill="#FF6C37"/>
<path d="M91.3817 79.9951C90.9537 79.9954 90.5264 79.9589 90.1047 79.886L90.1734 79.4818C90.9758 79.6188 91.7957 79.6188 92.5981 79.4818L92.6668 79.886C92.2423 79.9585 91.8124 79.995 91.3817 79.9951ZM87.692 79.009C86.9453 78.5795 86.2792 78.0229 85.7239 77.3642L86.0351 77.1015C86.5587 77.7263 87.1879 78.2543 87.8941 78.6615L87.692 79.009ZM95.0795 79.009L94.8774 78.6615C95.5836 78.2543 96.2128 77.7263 96.7364 77.1015L97.0435 77.3602C96.4887 78.0122 95.8239 78.562 95.0795 78.9848V79.009ZM84.4348 75.1456C84.1395 74.3348 83.9891 73.4785 83.9902 72.6157H84.3944C84.3882 73.4294 84.525 74.2378 84.7985 75.0041L84.4348 75.1456ZM98.3286 75.1456L97.9488 75.0082C98.2223 74.2418 98.3591 73.4334 98.3529 72.6198H98.6277H98.757C98.7592 73.4694 98.6142 74.313 98.3286 75.1132V75.1456ZM84.8066 70.2435L84.4267 70.1061C84.7203 69.2947 85.1539 68.5411 85.7078 67.8794L86.0149 68.138C85.4961 68.7545 85.0873 69.4559 84.8066 70.2112V70.2435ZM97.9407 70.2031C97.662 69.4398 97.2517 68.7313 96.7283 68.1097L97.0395 67.847C97.5954 68.5049 98.033 69.2542 98.3327 70.0617L97.9407 70.2031ZM87.8699 66.566L87.6678 66.2184C88.4165 65.7806 89.2378 65.4808 90.0926 65.3334L90.1613 65.7375C89.3564 65.8698 88.5809 66.142 87.8699 66.5417V66.566ZM94.8532 66.566C94.1472 66.1639 93.3755 65.8902 92.5739 65.7577L92.6426 65.3536C93.4955 65.499 94.3162 65.7931 95.0673 66.2225L94.8532 66.566Z" fill="#FF6C37"/>
<path d="M139.892 104.117H138.68V104.522H139.892V104.117Z" fill="#FF6C37"/>
<path d="M136.252 104.522H133.828V104.117H136.252V104.522ZM131.37 104.243C130.568 104.021 129.804 103.676 129.107 103.22L129.33 102.885C129.991 103.315 130.715 103.641 131.475 103.851L131.37 104.243ZM127.256 101.567C126.728 100.926 126.302 100.208 125.991 99.4377L126.367 99.2882C126.666 100.02 127.075 100.701 127.58 101.309L127.256 101.567ZM125.426 97.021C125.426 96.8149 125.426 96.6169 125.426 96.3987C125.425 95.7757 125.495 95.1547 125.636 94.5478L126.04 94.6407C125.907 95.2172 125.841 95.807 125.842 96.3987C125.842 96.5967 125.842 96.8028 125.842 96.9927L125.426 97.021ZM126.889 92.4544L126.541 92.2483C126.966 91.5333 127.497 90.8873 128.117 90.3327L128.388 90.6358C127.799 91.158 127.293 91.7672 126.889 92.4423V92.4544ZM130.364 89.3467L130.198 88.9789C130.956 88.6368 131.761 88.4145 132.587 88.3202L132.635 88.7243C131.852 88.8109 131.086 89.0167 130.364 89.3345V89.3467ZM140.16 88.6677H139.893V88.2636H140.16C140.863 88.2631 141.564 88.168 142.241 87.9807L142.351 88.3848C141.636 88.5739 140.899 88.665 140.16 88.6556V88.6677ZM137.465 88.6677H135.04V88.2636H137.465V88.6677ZM144.61 87.3422L144.387 87.0068C145.049 86.5738 145.64 86.0423 146.141 85.4307L146.452 85.6853C145.927 86.3257 145.305 86.8806 144.61 87.3301V87.3422ZM147.717 83.5515L147.341 83.4019C147.633 82.6664 147.811 81.8912 147.871 81.1025L148.275 81.1348C148.211 81.9598 148.023 82.7703 147.717 83.5394V83.5515ZM147.685 78.7545C147.504 77.9847 147.205 77.2473 146.8 76.5682L147.148 76.3621C147.574 77.0762 147.887 77.8518 148.077 78.6615L147.685 78.7545ZM145.297 74.7536C144.706 74.2294 144.04 73.7974 143.32 73.4726L143.482 73.1048C144.241 73.4437 144.943 73.8976 145.563 74.4506L145.297 74.7536ZM141.045 72.8502C140.753 72.8178 140.459 72.8016 140.164 72.8017H138.641V72.3976H140.16C140.471 72.3944 140.781 72.4119 141.09 72.4501L141.045 72.8502ZM136.196 72.8017H133.771V72.3976H136.196V72.8017ZM131.346 72.8017H128.921V72.3976H131.346V72.8017ZM126.497 72.8017H124.072V72.3976H126.497V72.8017ZM121.647 72.8017H119.222V72.3976H121.647V72.8017ZM116.798 72.8017H114.373V72.3976H116.798V72.8017ZM111.948 72.8017H109.523V72.3976H111.948V72.8017ZM107.099 72.8017H104.674V72.3976H107.099V72.8017Z" fill="#FF6C37"/>
<path d="M102.175 72.3813H100.963V72.7855H102.175V72.3813Z" fill="#FF6C37"/>
<path d="M91.5504 81.2964H91.2109V82.3107H91.5504V81.2964Z" fill="#FF6C37"/>
<path d="M49.2108 148.406H48.8754V146.385H49.2108V148.406ZM49.2108 144.364H48.8754V142.344H49.2108V144.364ZM86.0954 143.326C85.6999 143.325 85.3056 143.282 84.9194 143.196L84.9922 142.869C85.6355 143.006 86.2988 143.023 86.9482 142.918L87.0007 143.249C86.6983 143.293 86.3928 143.312 86.0874 143.306L86.0954 143.326ZM65.2668 143.326L65.2466 142.986C65.9025 142.946 66.5445 142.78 67.1379 142.497L67.2834 142.8C66.6464 143.093 65.959 143.261 65.2587 143.293L65.2668 143.326ZM63.1936 143.039C62.5287 142.818 61.9126 142.471 61.3791 142.016L61.5973 141.758C62.0974 142.185 62.675 142.511 63.2987 142.72L63.1936 143.039ZM88.9445 142.509L88.7667 142.222C89.326 141.878 89.8144 141.429 90.2054 140.901L90.4802 141.103C90.0617 141.661 89.5405 142.135 88.9445 142.497V142.509ZM82.9998 142.36C82.4222 141.965 81.9256 141.463 81.5369 140.881L81.8198 140.691C82.1841 141.238 82.6507 141.71 83.1938 142.081L82.9998 142.36ZM68.9443 141.552L68.6978 141.325C69.1409 140.839 69.4866 140.273 69.7162 139.656L70.0355 139.773C69.7867 140.422 69.4163 141.018 68.9443 141.527V141.552ZM60.0778 140.404C59.7506 139.784 59.5474 139.106 59.4797 138.408L59.8151 138.375C59.8793 139.029 60.0701 139.665 60.3768 140.246L60.0778 140.404ZM49.2108 140.283H48.8754V138.262H49.2108V140.283ZM91.3855 139.212L91.0581 139.127C91.1643 138.707 91.2186 138.275 91.2198 137.842V137.151H91.5592V137.842C91.5556 138.304 91.4945 138.764 91.3774 139.212H91.3855ZM80.7327 138.945C80.6585 138.582 80.6206 138.212 80.6195 137.842V136.888H80.959V137.842C80.9595 138.189 80.9947 138.536 81.0641 138.876L80.7327 138.945ZM70.3709 137.7H70.0355V135.68H70.3709V137.7ZM59.7868 136.338H59.4474V134.318H59.7868V136.338ZM49.1987 136.217H48.8633V134.197H49.2108L49.1987 136.217ZM91.5471 135.122H91.2076V133.101H91.5471V135.122ZM80.959 134.855H80.6195V133.425C80.621 133.232 80.6102 133.039 80.5872 132.847L80.9226 132.806C80.9468 133.012 80.959 133.218 80.959 133.425V134.855ZM70.3709 133.643H70.0355V133.429C70.0343 132.802 70.141 132.18 70.3507 131.59L70.6699 131.703C70.4715 132.257 70.3703 132.841 70.3709 133.429V133.643ZM59.3302 132.325C59.1889 131.682 58.924 131.073 58.5502 130.531L58.829 130.341C59.2201 130.92 59.4946 131.569 59.6373 132.253L59.3302 132.325ZM49.3442 132.212L49.0168 132.131C49.1827 131.45 49.4791 130.808 49.8898 130.24L50.1605 130.438C49.7802 130.971 49.5046 131.572 49.3482 132.208L49.3442 132.212ZM91.5471 131.061H91.2076V129.04H91.5471V131.061ZM80.0012 130.988C79.6881 130.409 79.2669 129.896 78.7605 129.476L78.9747 129.218C79.5164 129.666 79.9664 130.215 80.3003 130.834L80.0012 130.988ZM71.6681 130.026L71.4135 129.8C71.8793 129.275 72.4419 128.846 73.0704 128.535L73.22 128.838C72.6321 129.128 72.1064 129.53 71.6722 130.022L71.6681 130.026ZM57.16 129.161C56.6137 128.796 56.0015 128.541 55.3576 128.409L55.4263 128.078C56.1126 128.22 56.7647 128.495 57.3459 128.886L57.16 129.161ZM51.5831 129.1L51.4052 128.814C51.9956 128.435 52.6548 128.177 53.345 128.054L53.4057 128.389C52.7594 128.505 52.1417 128.745 51.5871 129.096L51.5831 129.1ZM77.043 128.543C76.5438 128.384 76.023 128.304 75.4993 128.304C75.3497 128.304 75.2325 128.304 75.0951 128.304L75.0709 127.965C75.2083 127.965 75.3497 127.965 75.475 127.965C76.0341 127.965 76.59 128.049 77.1238 128.215L77.043 128.543ZM91.5471 126.999H91.2076V124.978H91.5471V126.999ZM91.5471 122.938H91.2076V120.917H91.5471V122.938ZM91.5471 118.876H91.2076V116.855H91.5471V118.876ZM91.5471 114.835H91.2076V112.814H91.5471V114.835ZM91.5471 110.773H91.2076V108.753H91.5471V110.773ZM91.5471 106.708H91.2076V104.687H91.5471V106.708ZM91.5471 102.667H91.2076V100.646H91.5471V102.667ZM91.5471 98.6051H91.2076V96.5845H91.5471V98.6051ZM91.5471 94.5437H91.2076V92.523H91.5471V94.5437ZM91.5471 90.5024H91.2076V88.4818H91.5471V90.5024ZM91.5471 86.4409H91.2076V84.4203H91.5471V86.4409Z" fill="#FF6C37"/>
<path d="M49.2067 150.479H48.8672V151.493H49.2067V150.479Z" fill="#FF6C37"/>
<path d="M90.6181 75.6265C90.4577 75.6251 90.304 75.5613 90.1897 75.4487L88.0721 73.3311C87.9596 73.2169 87.8965 73.063 87.8965 72.9027C87.8965 72.7424 87.9596 72.5885 88.0721 72.4743C88.1281 72.4176 88.1948 72.3726 88.2684 72.3419C88.3419 72.3112 88.4208 72.2954 88.5005 72.2954C88.5802 72.2954 88.6591 72.3112 88.7326 72.3419C88.8062 72.3726 88.8729 72.4176 88.9289 72.4743L90.6181 74.1636L93.8309 70.9508C93.9458 70.8437 94.0978 70.7854 94.2549 70.7882C94.4119 70.791 94.5617 70.8546 94.6728 70.9656C94.7839 71.0767 94.8475 71.2265 94.8503 71.3836C94.853 71.5406 94.7947 71.6926 94.6877 71.8075L91.0505 75.4447C90.9943 75.5024 90.927 75.5482 90.8528 75.5794C90.7785 75.6107 90.6987 75.6267 90.6181 75.6265Z" fill="white"/>
<path d="M166.609 87.7179C166.205 89.7385 165.324 93.7798 166.73 95.1336C166.73 95.1336 166.18 97.1542 162.45 97.1542C158.344 97.1542 160.486 95.1336 160.486 95.1336C162.729 94.6002 162.668 92.9392 162.28 91.3793L166.609 87.7179Z" fill="#E58A7B"/>
<path d="M158.438 95.8246C158.438 95.5216 158.898 95.2104 159.569 94.9679C159.929 94.8345 160.28 94.3294 160.826 94.2364C161.23 94.1677 161.751 94.5153 162.269 94.4789C162.701 94.4466 163.154 94.0263 163.655 94.0222C164.156 94.0182 164.56 94.4264 165.053 94.4547C165.36 94.4547 165.667 94.0829 165.926 94.1071C166.185 94.1314 166.463 94.5719 166.71 94.6163C167.037 94.6729 167.405 94.3455 167.627 94.4183C167.983 94.5314 168.031 95.0124 168.189 95.1417C168.642 95.5094 168.997 95.857 168.593 95.9216C167.595 96.0792 167.555 95.5175 166.544 95.5175C165.534 95.5175 165.534 95.9216 164.524 95.9014C163.513 95.8812 163.517 95.4973 162.503 95.4973C161.489 95.4973 161.509 95.7762 160.482 95.8812C159.804 95.995 159.109 95.9758 158.438 95.8246Z" fill="#FF6C37"/>
<path d="M158.438 95.8246C158.438 95.5216 158.898 95.2104 159.569 94.9679C159.929 94.8345 160.28 94.3294 160.826 94.2364C161.23 94.1677 161.751 94.5153 162.269 94.4789C162.701 94.4466 163.154 94.0263 163.655 94.0222C164.156 94.0182 164.56 94.4264 165.053 94.4547C165.36 94.4547 165.667 94.0829 165.926 94.1071C166.185 94.1314 166.463 94.5719 166.71 94.6163C167.037 94.6729 167.405 94.3455 167.627 94.4183C167.983 94.5314 168.031 95.0124 168.189 95.1417C168.642 95.5094 168.997 95.857 168.593 95.9216C167.595 96.0792 167.555 95.5175 166.544 95.5175C165.534 95.5175 165.534 95.9216 164.524 95.9014C163.513 95.8812 163.517 95.4973 162.503 95.4973C161.489 95.4973 161.509 95.7762 160.482 95.8812C159.804 95.995 159.109 95.9758 158.438 95.8246Z" fill="black"/>
<path d="M173.948 99.4861C174.473 100.597 174.885 101.66 175.302 102.768C175.718 103.875 176.053 104.99 176.377 106.118C176.704 107.257 176.974 108.411 177.185 109.577C177.282 110.163 177.383 110.749 177.448 111.351C177.488 111.646 177.524 111.945 177.544 112.248L177.613 113.178C177.631 113.946 177.493 114.711 177.209 115.425C176.977 116.024 176.7 116.605 176.381 117.163C175.778 118.201 175.103 119.195 174.36 120.137C172.921 121.963 171.343 123.675 169.64 125.257L168.379 124.093C169.046 123.212 169.729 122.307 170.367 121.394C171.006 120.48 171.644 119.567 172.222 118.634C172.801 117.723 173.325 116.778 173.79 115.805C174.004 115.359 174.185 114.899 174.332 114.427C174.45 114.077 174.505 113.709 174.493 113.34L174.392 112.576C174.364 112.313 174.32 112.05 174.267 111.767C174.182 111.242 174.065 110.713 173.948 110.187C173.831 109.662 173.697 109.137 173.544 108.611C173.39 108.086 173.253 107.561 173.091 107.039C172.772 105.997 172.404 104.958 172.024 103.931C171.644 102.905 171.216 101.862 170.812 100.905L173.948 99.4861Z" fill="#E58A7B"/>
<path d="M172.571 95.9056C173.977 96.2127 175.476 101.272 175.476 101.272L169.94 104.804C169.94 104.804 168.202 100.763 168.873 99.0012C169.576 97.1826 170.91 95.5419 172.571 95.9056Z" fill="#FF6C37"/>
<path d="M172.571 95.9056C173.977 96.2127 175.476 101.272 175.476 101.272L169.94 104.804C169.94 104.804 168.202 100.763 168.873 99.0012C169.576 97.1826 170.91 95.5419 172.571 95.9056Z" fill="black"/>
<path d="M171.819 97.6272L169.928 104.772V104.804L172.142 103.39L171.819 97.6272Z" fill="black"/>
<path d="M154.765 96.0025C154.765 96.0025 153.149 96.5723 156.382 116.431H170.122C169.892 110.838 169.884 107.387 172.547 95.9055C170.622 95.5081 168.67 95.2501 166.707 95.1336C164.629 94.988 162.542 94.988 160.464 95.1336C157.809 95.3802 154.765 96.0025 154.765 96.0025Z" fill="#FF6C37"/>
<path d="M154.765 96.0025C154.765 96.0025 153.149 96.5723 156.382 116.431H170.122C169.892 110.838 169.884 107.387 172.547 95.9055C170.622 95.5081 168.67 95.2501 166.707 95.1336C164.629 94.988 162.542 94.988 160.464 95.1336C157.809 95.3802 154.765 96.0025 154.765 96.0025Z" fill="black"/>
<path d="M169.035 123.641L165.762 122.655L167.128 125.815C167.128 125.815 169.29 126.025 170.07 124.853L169.035 123.641Z" fill="#E58A7B"/>
<path d="M163.109 123.697L164.394 126.28L167.126 125.823L165.76 122.663L163.109 123.697Z" fill="#E58A7B"/>
<path d="M177.694 192.637H174.312L173.221 184.797H176.607L177.694 192.637Z" fill="#E58A7B"/>
<path d="M162.314 192.637H158.931L158.705 184.797H162.088L162.314 192.637Z" fill="#E58A7B"/>
<path d="M158.705 184.797L158.822 188.838H162.209L162.092 184.797H158.705Z" fill="#CF6F64"/>
<path d="M176.607 184.797H173.221L173.782 188.838H177.169L176.607 184.797Z" fill="#CF6F64"/>
<path d="M160.014 116.431C160.014 116.431 161.978 139.668 164.019 152.762C165.663 163.338 172.966 188.058 172.966 188.058H177.581C177.581 188.058 173.778 164.183 172.942 153.708C170.828 127.237 174.534 122.554 170.133 116.415L160.014 116.431Z" fill="#FF6C37"/>
<path opacity="0.4" d="M164.209 125.573C164.209 125.573 162.318 131.465 162.346 139.963C162.673 142.837 163.021 145.69 163.377 148.333C164.46 145.868 166.452 138.682 164.209 125.573Z" fill="black"/>
<path d="M156.386 116.431C156.386 116.431 153.715 142.509 153.937 152.831C154.167 163.568 158.104 188.059 158.104 188.059H162.678C162.678 188.059 161.955 164.215 162.359 153.651C162.799 142.154 166.453 116.431 166.453 116.431H156.386Z" fill="#FF6C37"/>
<path d="M172.941 192.835C172.712 192.855 172.483 192.793 172.295 192.662C172.239 192.607 172.197 192.539 172.174 192.464C172.15 192.39 172.146 192.31 172.161 192.233C172.166 192.185 172.184 192.138 172.212 192.098C172.24 192.059 172.279 192.027 172.323 192.007C172.727 191.833 173.746 192.492 173.859 192.569C173.872 192.577 173.883 192.589 173.889 192.604C173.895 192.618 173.898 192.634 173.895 192.649C173.893 192.665 173.886 192.68 173.875 192.691C173.864 192.703 173.85 192.711 173.835 192.714C173.542 192.787 173.243 192.828 172.941 192.835ZM172.489 192.136C172.454 192.134 172.419 192.141 172.388 192.156C172.363 192.156 172.331 192.189 172.323 192.257C172.31 192.307 172.311 192.36 172.325 192.41C172.339 192.46 172.367 192.505 172.404 192.54C172.574 192.698 173.018 192.718 173.616 192.601C173.277 192.369 172.893 192.211 172.489 192.136Z" fill="#FF6C37"/>
<path d="M173.815 192.718C173.803 192.721 173.791 192.721 173.779 192.718C173.456 192.536 172.841 191.805 172.914 191.425C172.927 191.362 172.961 191.305 173.01 191.264C173.059 191.223 173.121 191.2 173.185 191.199C173.246 191.19 173.308 191.195 173.367 191.214C173.426 191.233 173.48 191.265 173.524 191.308C173.892 191.631 173.896 192.609 173.896 192.649C173.896 192.663 173.893 192.677 173.886 192.689C173.878 192.701 173.868 192.711 173.856 192.718C173.843 192.722 173.828 192.722 173.815 192.718ZM173.241 191.344H173.205C173.104 191.344 173.08 191.401 173.072 191.437C173.027 191.671 173.411 192.221 173.73 192.476C173.74 192.097 173.631 191.726 173.419 191.413C173.371 191.368 173.307 191.343 173.241 191.344Z" fill="#FF6C37"/>
<path d="M157.542 192.835C157.257 192.858 156.973 192.786 156.733 192.629C156.678 192.579 156.636 192.516 156.611 192.445C156.586 192.375 156.58 192.299 156.592 192.225C156.594 192.181 156.607 192.138 156.63 192.1C156.654 192.063 156.686 192.032 156.725 192.011C157.13 191.785 158.491 192.476 158.641 192.552C158.656 192.56 158.669 192.572 158.677 192.588C158.685 192.603 158.688 192.62 158.685 192.637C158.683 192.654 158.675 192.669 158.664 192.68C158.652 192.692 158.637 192.7 158.621 192.702C158.266 192.78 157.905 192.825 157.542 192.835ZM156.94 192.136C156.888 192.133 156.837 192.143 156.79 192.164C156.774 192.174 156.761 192.186 156.752 192.202C156.743 192.218 156.738 192.235 156.738 192.253C156.731 192.3 156.736 192.348 156.753 192.392C156.769 192.437 156.795 192.476 156.83 192.508C157.037 192.694 157.594 192.726 158.342 192.601C157.904 192.367 157.43 192.21 156.94 192.136Z" fill="#FF6C37"/>
<path d="M158.593 192.718H158.56C158.156 192.536 157.348 191.805 157.421 191.421C157.421 191.332 157.501 191.219 157.724 191.195C157.804 191.187 157.884 191.195 157.961 191.219C158.037 191.244 158.108 191.283 158.168 191.336C158.593 191.688 158.669 192.601 158.673 192.637C158.674 192.651 158.672 192.665 158.666 192.678C158.661 192.69 158.652 192.701 158.641 192.71C158.626 192.718 158.609 192.721 158.593 192.718ZM157.784 191.344H157.736C157.59 191.344 157.578 191.417 157.574 191.437C157.538 191.667 158.079 192.245 158.492 192.488C158.458 192.104 158.307 191.74 158.059 191.445C157.983 191.381 157.888 191.345 157.788 191.344H157.784Z" fill="#FF6C37"/>
<path d="M158.475 84.1576C158.449 84.1603 158.423 84.157 158.399 84.1479C158.374 84.1388 158.352 84.1241 158.334 84.105C158.204 83.9502 158.039 83.8286 157.853 83.7506C157.667 83.6726 157.464 83.6403 157.263 83.6564C157.221 83.6622 157.178 83.651 157.144 83.6253C157.11 83.5995 157.087 83.5613 157.081 83.519C157.076 83.4775 157.087 83.4357 157.112 83.4019C157.137 83.3682 157.173 83.3451 157.215 83.3372C157.468 83.3159 157.724 83.355 157.96 83.4512C158.196 83.5474 158.406 83.6981 158.572 83.8908C158.601 83.9215 158.617 83.962 158.617 84.004C158.617 84.046 158.601 84.0865 158.572 84.1172C158.545 84.1399 158.511 84.1539 158.475 84.1576Z" fill="#263238"/>
<path d="M157.772 86.1661C157.62 86.8171 157.38 87.444 157.057 88.0292C157.208 88.1082 157.376 88.1531 157.547 88.1608C157.718 88.1685 157.888 88.1387 158.047 88.0736L157.772 86.1661Z" fill="#DF5753"/>
<path d="M157.95 85.6527C157.986 85.9235 157.877 86.1619 157.699 86.1862C157.522 86.2104 157.348 86.0124 157.295 85.7457C157.243 85.4789 157.368 85.2324 157.546 85.2082C157.724 85.1839 157.922 85.3981 157.95 85.6527Z" fill="#263238"/>
<path d="M157.638 85.2487L156.963 85.1558C156.963 85.1558 157.367 85.5922 157.638 85.2487Z" fill="#263238"/>
<path d="M174.085 192.245H177.888C177.953 192.244 178.017 192.266 178.066 192.309C178.115 192.352 178.147 192.411 178.155 192.476L178.591 195.486C178.599 195.563 178.591 195.64 178.567 195.712C178.543 195.785 178.505 195.852 178.453 195.909C178.402 195.966 178.339 196.011 178.269 196.042C178.198 196.073 178.122 196.089 178.046 196.088C176.72 196.064 176.082 195.987 174.409 195.987C173.382 195.987 171.879 196.092 170.456 196.092C169.034 196.092 168.961 194.686 169.551 194.561C172.206 193.991 172.622 193.203 173.52 192.451C173.678 192.318 173.878 192.245 174.085 192.245Z" fill="#263238"/>
<path d="M158.813 192.245H162.616C162.681 192.244 162.745 192.267 162.795 192.31C162.844 192.352 162.877 192.411 162.887 192.475L163.319 195.486C163.327 195.562 163.319 195.639 163.295 195.711C163.272 195.784 163.233 195.851 163.182 195.908C163.131 195.964 163.069 196.01 162.999 196.041C162.929 196.072 162.854 196.088 162.778 196.088C161.452 196.064 160.814 195.987 159.141 195.987C158.11 195.987 155.984 196.092 154.562 196.092C153.139 196.092 153.067 194.686 153.657 194.561C156.308 193.991 157.354 193.203 158.247 192.451C158.406 192.319 158.606 192.246 158.813 192.245Z" fill="#263238"/>
<path d="M154.369 99.2112V99.292C154.41 101.551 154.721 105.354 155.658 111.747L157.574 104.243L154.369 99.2112Z" fill="black"/>
<path d="M157.088 100.371C156.708 102.291 156.279 104.17 155.77 106.057C155.261 107.944 154.744 109.82 154.073 111.715L153.81 112.422L153.523 113.133C153.459 113.302 153.382 113.465 153.293 113.622C153.182 113.832 153.046 114.027 152.889 114.204C152.522 114.608 152.042 114.89 151.511 115.013C151.066 115.114 150.605 115.114 150.161 115.013C149.822 114.943 149.493 114.834 149.179 114.689C148.658 114.445 148.165 114.146 147.708 113.796C146.891 113.167 146.131 112.468 145.437 111.707C145.089 111.343 144.766 110.963 144.451 110.579C144.135 110.195 143.832 109.812 143.533 109.387L144.814 108.252C146.173 109.479 147.641 110.58 149.199 111.541C149.535 111.737 149.89 111.899 150.258 112.026C150.569 112.143 150.848 112.111 150.739 112.091C150.673 112.1 150.611 112.125 150.557 112.164L150.614 111.99L150.828 111.351L151.03 110.693C151.555 108.918 152.004 107.055 152.448 105.229L153.713 99.668L157.088 100.371Z" fill="#E58A7B"/>
<path d="M143.64 109.557L141.789 106.938L144.307 106.744C144.307 106.744 145.729 108.385 145.228 109.702L143.64 109.557Z" fill="#E58A7B"/>
<path d="M143.486 106.263L144.02 105.932L144.266 104.695L144.674 105.205L144.978 108.118L143.486 106.263Z" fill="#E58A7B"/>
<path d="M166.901 83.4383C167.176 86.7845 167.362 88.1949 165.931 90.1428C163.777 93.0646 159.603 92.6686 158.338 89.4679C157.194 86.5865 156.94 81.5955 160.003 79.8092C160.675 79.4116 161.438 79.1927 162.219 79.1733C163.001 79.1539 163.774 79.3347 164.465 79.6984C165.156 80.0621 165.743 80.5967 166.17 81.2514C166.596 81.906 166.848 82.6589 166.901 83.4383Z" fill="#E58A7B"/>
<path d="M159.42 79.4334C158.736 79.7211 158.175 80.2415 157.837 80.9026C157.499 81.5637 157.406 82.323 157.573 83.0463C157.573 83.0463 160.204 81.9107 160.309 86.1257C160.386 89.1688 158.289 93.2747 158.289 93.2747C158.289 93.2747 163.167 94.285 170.186 92.1351C173.173 91.2218 171.827 73.2947 159.42 79.4334Z" fill="#263238"/>
<path d="M159.169 81.2964C158.692 82.4441 158.818 84.7153 160.697 84.4728C162.576 84.2303 162.026 82.335 162.026 82.335L159.169 81.2964Z" fill="#263238"/>
<path d="M161.262 85.8306C161.282 86.4803 161.045 87.1117 160.603 87.5885C160.013 88.2109 159.274 87.7906 159.072 86.9985C158.886 86.2913 158.971 85.1072 159.742 84.7758C159.913 84.7064 160.097 84.6806 160.28 84.7007C160.463 84.7208 160.637 84.7863 160.788 84.891C160.939 84.9958 161.062 85.1366 161.144 85.3007C161.227 85.4648 161.268 85.6469 161.262 85.8306Z" fill="#E58A7B"/>
<path d="M177.925 188.208H172.652L172.09 186.369L178.107 186.511L177.925 188.208Z" fill="#FF6C37"/>
<path d="M168.468 117.175H168.832C168.909 117.175 168.965 117.138 168.957 117.09L168.783 115.473C168.783 115.429 168.715 115.388 168.638 115.388H168.266C168.193 115.388 168.137 115.429 168.141 115.473L168.315 117.09C168.331 117.146 168.395 117.175 168.468 117.175Z" fill="#FF6C37"/>
<path d="M159.431 117.175H159.803C159.876 117.175 159.932 117.138 159.928 117.09L159.755 115.473C159.755 115.429 159.682 115.388 159.609 115.388H159.237C159.161 115.388 159.104 115.429 159.112 115.473L159.286 117.09C159.29 117.146 159.355 117.175 159.431 117.175Z" fill="#FF6C37"/>
<path d="M163.029 188.208H157.751L157.371 186.632L163.227 186.369L163.029 188.208Z" fill="#FF6C37"/>
<path d="M170.34 115.627L170.959 116.839C171.007 116.936 170.894 117.033 170.736 117.033H156.305C156.18 117.033 156.079 116.973 156.071 116.896L155.945 115.684C155.945 115.599 156.046 115.526 156.18 115.526H170.102C170.147 115.52 170.193 115.526 170.235 115.544C170.277 115.562 170.313 115.59 170.34 115.627Z" fill="#FF6C37"/>
<path opacity="0.1" d="M170.34 115.627L170.959 116.839C171.007 116.936 170.894 117.033 170.736 117.033H156.305C156.18 117.033 156.079 116.973 156.071 116.896L155.945 115.684C155.945 115.599 156.046 115.526 156.18 115.526H170.102C170.147 115.52 170.193 115.526 170.235 115.544C170.277 115.562 170.313 115.59 170.34 115.627Z" fill="black"/>
<path opacity="0.6" d="M168.468 117.175H168.832C168.909 117.175 168.965 117.138 168.957 117.09L168.783 115.473C168.783 115.429 168.715 115.388 168.638 115.388H168.266C168.193 115.388 168.137 115.429 168.141 115.473L168.315 117.09C168.331 117.146 168.395 117.175 168.468 117.175Z" fill="black"/>
<path opacity="0.6" d="M159.431 117.175H159.803C159.876 117.175 159.932 117.138 159.928 117.09L159.755 115.473C159.755 115.429 159.682 115.388 159.609 115.388H159.237C159.161 115.388 159.104 115.429 159.112 115.473L159.286 117.09C159.29 117.146 159.355 117.175 159.431 117.175Z" fill="black"/>
<path d="M154.765 96.0026C153.37 96.3582 152.396 102.101 152.396 102.101L157.779 105.758C157.779 105.758 159.942 98.9204 158.854 97.3726C157.735 95.7884 156.801 95.4853 154.765 96.0026Z" fill="#FF6C37"/>
<path d="M154.765 96.0026C153.37 96.3582 152.396 102.101 152.396 102.101L157.779 105.758C157.779 105.758 159.942 98.9204 158.854 97.3726C157.735 95.7884 156.801 95.4853 154.765 96.0026Z" fill="black"/>
<path d="M121.445 161.499C121.448 161.481 121.448 161.463 121.445 161.445C121.596 160.581 121.724 159.711 121.832 158.831C123.351 160.522 124.671 160.951 125.616 160.951C125.716 160.957 125.816 160.957 125.916 160.951C127.768 160.769 129.33 158.954 130.103 156.12C130.118 156.064 130.121 156.006 130.112 155.948C130.103 155.891 130.082 155.836 130.049 155.788C129.983 155.686 129.882 155.611 129.765 155.578C128.453 155.219 127.078 155.156 125.739 155.393C124.399 155.629 123.129 156.16 122.02 156.947C122.084 156.12 122.122 155.294 122.132 154.462C122.432 154.514 122.735 154.541 123.039 154.542C126.099 154.542 127.994 151.821 128.085 151.687C128.119 151.635 128.14 151.576 128.146 151.514C128.151 151.452 128.141 151.39 128.117 151.333C128.092 151.27 128.055 151.213 128.006 151.166C127.958 151.119 127.901 151.082 127.838 151.059C125.927 150.34 124.376 150.275 123.233 150.876C122.505 151.272 121.946 151.919 121.66 152.696C120.851 150.934 119.627 149.396 118.091 148.213C116.556 147.03 114.756 146.238 112.846 145.906C112.792 145.893 112.735 145.893 112.68 145.906C112.626 145.92 112.575 145.946 112.533 145.983C112.49 146.019 112.457 146.066 112.436 146.118C112.415 146.17 112.407 146.226 112.412 146.282C112.605 149.057 113.12 152.444 115.407 154.065C116.322 154.691 117.411 155.013 118.52 154.982C119.468 154.962 120.409 154.812 121.316 154.537C121.269 156.515 121.089 158.487 120.78 160.441C119.508 158.997 116.271 155.788 111.853 154.682C111.804 154.667 111.752 154.662 111.701 154.669C111.65 154.676 111.602 154.694 111.558 154.721C111.515 154.749 111.478 154.785 111.45 154.829C111.422 154.872 111.404 154.921 111.397 154.972C111.07 157.36 111.639 159.298 113.034 160.575C114.194 161.649 115.858 162.186 117.865 162.186C118.756 162.178 119.644 162.084 120.517 161.907C120.216 163.544 119.846 165.127 119.443 166.673C118.053 165.567 114.033 162.771 110.2 163.936C110.15 163.952 110.103 163.98 110.065 164.017C110.027 164.055 109.998 164.1 109.98 164.15C109.962 164.204 109.955 164.261 109.961 164.317C109.966 164.374 109.984 164.429 110.012 164.478C111.429 167.118 112.846 168.584 114.462 169.094C114.883 169.224 115.321 169.291 115.761 169.292C116.901 169.245 118.009 168.907 118.982 168.31C118.375 170.339 117.709 172.228 117.055 173.914C115.96 172.891 114.626 172.159 113.176 171.784C111.725 171.409 110.204 171.403 108.751 171.767C108.705 171.777 108.662 171.796 108.623 171.823C108.585 171.851 108.553 171.885 108.528 171.925C108.503 171.966 108.487 172.01 108.48 172.057C108.473 172.103 108.476 172.151 108.488 172.196C108.713 173.066 109.137 173.872 109.728 174.55C110.319 175.227 111.059 175.757 111.891 176.098C112.499 176.35 113.15 176.479 113.807 176.479C114.677 176.473 115.531 176.244 116.287 175.814C115.431 177.905 114.465 179.949 113.394 181.938C113.348 182.037 113.341 182.15 113.374 182.254C113.407 182.358 113.477 182.447 113.571 182.502C113.641 182.548 113.723 182.572 113.807 182.572C113.87 182.574 113.932 182.559 113.986 182.528C114.041 182.498 114.087 182.454 114.119 182.4C115.418 179.964 116.574 177.455 117.581 174.885C117.601 174.844 117.618 174.801 117.629 174.756C117.829 174.252 118.028 173.731 118.225 173.195C119.518 174.687 121.091 175.513 122.669 175.513C122.841 175.513 123.007 175.513 123.179 175.513C124.054 175.426 124.88 175.069 125.543 174.492C126.207 173.916 126.675 173.147 126.883 172.293C126.898 172.197 126.882 172.098 126.838 172.011C126.793 171.924 126.723 171.854 126.636 171.81C125.452 171.146 124.129 170.773 122.773 170.72C121.417 170.666 120.068 170.935 118.837 171.504C119.261 170.275 119.674 168.97 120.055 167.618C120.089 167.563 120.108 167.5 120.109 167.435C120.211 167.054 120.318 166.673 120.415 166.281C121.966 167.967 123.399 168.793 124.778 168.793C126.453 168.793 127.999 167.553 129.486 165.036C129.526 164.942 129.532 164.838 129.504 164.74C129.476 164.642 129.414 164.557 129.33 164.499C126.212 162.352 122.481 163.817 120.817 164.676C121.053 163.671 121.261 162.647 121.44 161.606L121.445 161.499Z" fill="#407BFF"/>
<path opacity="0.3" d="M121.445 161.499C121.448 161.481 121.448 161.463 121.445 161.445C121.596 160.581 121.724 159.711 121.832 158.831C123.351 160.522 124.671 160.951 125.616 160.951C125.716 160.957 125.816 160.957 125.916 160.951C127.768 160.769 129.33 158.954 130.103 156.12C130.118 156.064 130.121 156.006 130.112 155.948C130.103 155.891 130.082 155.836 130.049 155.788C129.983 155.686 129.882 155.611 129.765 155.578C128.453 155.219 127.078 155.156 125.739 155.393C124.399 155.629 123.129 156.16 122.02 156.947C122.084 156.12 122.122 155.294 122.132 154.462C122.432 154.514 122.735 154.541 123.039 154.542C126.099 154.542 127.994 151.821 128.085 151.687C128.119 151.635 128.14 151.576 128.146 151.514C128.151 151.452 128.141 151.39 128.117 151.333C128.092 151.27 128.055 151.213 128.006 151.166C127.958 151.119 127.901 151.082 127.838 151.059C125.927 150.34 124.376 150.275 123.233 150.876C122.505 151.272 121.946 151.919 121.66 152.696C120.851 150.934 119.627 149.396 118.091 148.213C116.556 147.03 114.756 146.238 112.846 145.906C112.792 145.893 112.735 145.893 112.68 145.906C112.626 145.92 112.575 145.946 112.533 145.983C112.49 146.019 112.457 146.066 112.436 146.118C112.415 146.17 112.407 146.226 112.412 146.282C112.605 149.057 113.12 152.444 115.407 154.065C116.322 154.691 117.411 155.013 118.52 154.982C119.468 154.962 120.409 154.812 121.316 154.537C121.269 156.515 121.089 158.487 120.78 160.441C119.508 158.997 116.271 155.788 111.853 154.682C111.804 154.667 111.752 154.662 111.701 154.669C111.65 154.676 111.602 154.694 111.558 154.721C111.515 154.749 111.478 154.785 111.45 154.829C111.422 154.872 111.404 154.921 111.397 154.972C111.07 157.36 111.639 159.298 113.034 160.575C114.194 161.649 115.858 162.186 117.865 162.186C118.756 162.178 119.644 162.084 120.517 161.907C120.216 163.544 119.846 165.127 119.443 166.673C118.053 165.567 114.033 162.771 110.2 163.936C110.15 163.952 110.103 163.98 110.065 164.017C110.027 164.055 109.998 164.1 109.98 164.15C109.962 164.204 109.955 164.261 109.961 164.317C109.966 164.374 109.984 164.429 110.012 164.478C111.429 167.118 112.846 168.584 114.462 169.094C114.883 169.224 115.321 169.291 115.761 169.292C116.901 169.245 118.009 168.907 118.982 168.31C118.375 170.339 117.709 172.228 117.055 173.914C115.96 172.891 114.626 172.159 113.176 171.784C111.725 171.409 110.204 171.403 108.751 171.767C108.705 171.777 108.662 171.796 108.623 171.823C108.585 171.851 108.553 171.885 108.528 171.925C108.503 171.966 108.487 172.01 108.48 172.057C108.473 172.103 108.476 172.151 108.488 172.196C108.713 173.066 109.137 173.872 109.728 174.55C110.319 175.227 111.059 175.757 111.891 176.098C112.499 176.35 113.15 176.479 113.807 176.479C114.677 176.473 115.531 176.244 116.287 175.814C115.431 177.905 114.465 179.949 113.394 181.938C113.348 182.037 113.341 182.15 113.374 182.254C113.407 182.358 113.477 182.447 113.571 182.502C113.641 182.548 113.723 182.572 113.807 182.572C113.87 182.574 113.932 182.559 113.986 182.528C114.041 182.498 114.087 182.454 114.119 182.4C115.418 179.964 116.574 177.455 117.581 174.885C117.601 174.844 117.618 174.801 117.629 174.756C117.829 174.252 118.028 173.731 118.225 173.195C119.518 174.687 121.091 175.513 122.669 175.513C122.841 175.513 123.007 175.513 123.179 175.513C124.054 175.426 124.88 175.069 125.543 174.492C126.207 173.916 126.675 173.147 126.883 172.293C126.898 172.197 126.882 172.098 126.838 172.011C126.793 171.924 126.723 171.854 126.636 171.81C125.452 171.146 124.129 170.773 122.773 170.72C121.417 170.666 120.068 170.935 118.837 171.504C119.261 170.275 119.674 168.97 120.055 167.618C120.089 167.563 120.108 167.5 120.109 167.435C120.211 167.054 120.318 166.673 120.415 166.281C121.966 167.967 123.399 168.793 124.778 168.793C126.453 168.793 127.999 167.553 129.486 165.036C129.526 164.942 129.532 164.838 129.504 164.74C129.476 164.642 129.414 164.557 129.33 164.499C126.212 162.352 122.481 163.817 120.817 164.676C121.053 163.671 121.261 162.647 121.44 161.606L121.445 161.499Z" fill="black"/>
<path d="M101.982 172.379C102.56 172.56 103.162 172.656 103.769 172.663C104.539 172.659 105.299 172.491 105.999 172.17C106.699 171.849 107.322 171.383 107.827 170.801C108.333 170.22 108.708 169.538 108.928 168.8C109.148 168.062 109.208 167.286 109.104 166.523C109.086 166.439 109.038 166.366 108.968 166.316C108.899 166.266 108.813 166.244 108.729 166.254C107.245 166.418 105.816 166.911 104.546 167.695C103.276 168.479 102.197 169.537 101.386 170.79C100.709 168.933 100.076 166.957 99.5447 164.912C100.412 165.425 101.393 165.715 102.4 165.755C102.814 165.756 103.226 165.691 103.619 165.562C105.707 164.869 107.14 162.379 108.38 159.786C108.402 159.739 108.414 159.688 108.414 159.636C108.414 159.584 108.402 159.533 108.38 159.486C108.361 159.439 108.333 159.397 108.295 159.364C108.258 159.33 108.213 159.306 108.165 159.293C104.08 158.128 100.366 162.121 99.1958 163.549C98.786 161.818 98.4706 160.065 98.2512 158.3C99.1164 158.465 99.995 158.551 100.876 158.557C103.023 158.557 104.719 157.988 105.868 156.866C107.231 155.541 107.698 153.555 107.226 151.129C107.217 151.082 107.198 151.037 107.17 150.998C107.143 150.959 107.107 150.926 107.066 150.902C107.025 150.878 106.979 150.862 106.932 150.857C106.884 150.852 106.836 150.856 106.791 150.871C102.432 152.03 99.3569 155.272 98.1009 156.807C98.1009 156.491 98.0472 156.174 98.0257 155.857C98.0192 155.778 97.9872 155.702 97.9345 155.643C97.8257 155.048 97.585 154.485 97.2302 153.996C96.8754 153.506 96.4154 153.102 95.8841 152.814C94.6925 152.223 93.1198 152.309 91.2197 153.066C91.1634 153.088 91.1127 153.122 91.0709 153.166C91.0292 153.209 90.9975 153.261 90.9781 153.318C90.9589 153.374 90.9533 153.433 90.9617 153.491C90.9701 153.549 90.9923 153.604 91.0264 153.651C91.1231 153.78 93.1735 156.475 96.2437 156.475C96.5752 156.474 96.9059 156.441 97.2313 156.378C97.2957 157.251 97.387 158.126 97.5051 159.003C96.3483 158.216 95.0337 157.692 93.6532 157.467C92.2726 157.242 90.8596 157.321 89.5128 157.698C89.4597 157.711 89.4099 157.735 89.3665 157.769C89.3231 157.802 89.287 157.844 89.2605 157.892C89.2336 157.937 89.2164 157.988 89.2099 158.041C89.2034 158.093 89.2079 158.147 89.223 158.198C90.173 161.085 91.8638 162.905 93.7532 163.061C93.8389 163.066 93.925 163.066 94.0108 163.061C94.977 163.061 96.3135 162.62 97.7681 160.838C98.1237 162.847 98.5896 164.834 99.1636 166.791C97.4353 165.943 93.5277 164.483 90.4682 166.705C90.425 166.732 90.3876 166.768 90.3583 166.81C90.3289 166.852 90.3081 166.899 90.2971 166.949C90.2861 166.999 90.2852 167.05 90.2943 167.101C90.3034 167.151 90.3224 167.199 90.3501 167.242C91.998 169.781 93.619 170.999 95.3044 170.999H95.3473C96.7482 170.999 98.1599 170.124 99.6413 168.38C100.248 170.291 100.913 172.105 101.595 173.79C99.899 172.679 97.913 172.856 95.4654 174.327C95.4124 174.361 95.3672 174.406 95.3329 174.458C95.2987 174.511 95.2761 174.571 95.2668 174.633C95.2602 174.692 95.2686 174.751 95.2911 174.805C95.3137 174.86 95.3496 174.908 95.3956 174.944C95.5191 175.041 97.607 176.614 99.9419 176.614C100.838 176.622 101.717 176.362 102.465 175.868C103.786 178.938 105.308 181.918 107.022 184.788C107.056 184.842 107.104 184.887 107.16 184.917C107.217 184.947 107.28 184.962 107.344 184.96C107.43 184.961 107.515 184.935 107.585 184.885C107.68 184.827 107.748 184.735 107.775 184.627C107.802 184.52 107.786 184.406 107.73 184.311C105.484 180.501 103.561 176.51 101.982 172.379Z" fill="#407BFF"/>
<path opacity="0.5" d="M101.982 172.379C102.56 172.56 103.162 172.656 103.769 172.663C104.539 172.659 105.299 172.491 105.999 172.17C106.699 171.849 107.322 171.383 107.827 170.801C108.333 170.22 108.708 169.538 108.928 168.8C109.148 168.062 109.208 167.286 109.104 166.523C109.086 166.439 109.038 166.366 108.968 166.316C108.899 166.266 108.813 166.244 108.729 166.254C107.245 166.418 105.816 166.911 104.546 167.695C103.276 168.479 102.197 169.537 101.386 170.79C100.709 168.933 100.076 166.957 99.5447 164.912C100.412 165.425 101.393 165.715 102.4 165.755C102.814 165.756 103.226 165.691 103.619 165.562C105.707 164.869 107.14 162.379 108.38 159.786C108.402 159.739 108.414 159.688 108.414 159.636C108.414 159.584 108.402 159.533 108.38 159.486C108.361 159.439 108.333 159.397 108.295 159.364C108.258 159.33 108.213 159.306 108.165 159.293C104.08 158.128 100.366 162.121 99.1958 163.549C98.786 161.818 98.4706 160.065 98.2512 158.3C99.1164 158.465 99.995 158.551 100.876 158.557C103.023 158.557 104.719 157.988 105.868 156.866C107.231 155.541 107.698 153.555 107.226 151.129C107.217 151.082 107.198 151.037 107.17 150.998C107.143 150.959 107.107 150.926 107.066 150.902C107.025 150.878 106.979 150.862 106.932 150.857C106.884 150.852 106.836 150.856 106.791 150.871C102.432 152.03 99.3569 155.272 98.1009 156.807C98.1009 156.491 98.0472 156.174 98.0257 155.857C98.0192 155.778 97.9872 155.702 97.9345 155.643C97.8257 155.048 97.585 154.485 97.2302 153.996C96.8754 153.506 96.4154 153.102 95.8841 152.814C94.6925 152.223 93.1198 152.309 91.2197 153.066C91.1634 153.088 91.1127 153.122 91.0709 153.166C91.0292 153.209 90.9975 153.261 90.9781 153.318C90.9589 153.374 90.9533 153.433 90.9617 153.491C90.9701 153.549 90.9923 153.604 91.0264 153.651C91.1231 153.78 93.1735 156.475 96.2437 156.475C96.5752 156.474 96.9059 156.441 97.2313 156.378C97.2957 157.251 97.387 158.126 97.5051 159.003C96.3483 158.216 95.0337 157.692 93.6532 157.467C92.2726 157.242 90.8596 157.321 89.5128 157.698C89.4597 157.711 89.4099 157.735 89.3665 157.769C89.3231 157.802 89.287 157.844 89.2605 157.892C89.2336 157.937 89.2164 157.988 89.2099 158.041C89.2034 158.093 89.2079 158.147 89.223 158.198C90.173 161.085 91.8638 162.905 93.7532 163.061C93.8389 163.066 93.925 163.066 94.0108 163.061C94.977 163.061 96.3135 162.62 97.7681 160.838C98.1237 162.847 98.5896 164.834 99.1636 166.791C97.4353 165.943 93.5277 164.483 90.4682 166.705C90.425 166.732 90.3876 166.768 90.3583 166.81C90.3289 166.852 90.3081 166.899 90.2971 166.949C90.2861 166.999 90.2852 167.05 90.2943 167.101C90.3034 167.151 90.3224 167.199 90.3501 167.242C91.998 169.781 93.619 170.999 95.3044 170.999H95.3473C96.7482 170.999 98.1599 170.124 99.6413 168.38C100.248 170.291 100.913 172.105 101.595 173.79C99.899 172.679 97.913 172.856 95.4654 174.327C95.4124 174.361 95.3672 174.406 95.3329 174.458C95.2987 174.511 95.2761 174.571 95.2668 174.633C95.2602 174.692 95.2686 174.751 95.2911 174.805C95.3137 174.86 95.3496 174.908 95.3956 174.944C95.5191 175.041 97.607 176.614 99.9419 176.614C100.838 176.622 101.717 176.362 102.465 175.868C103.786 178.938 105.308 181.918 107.022 184.788C107.056 184.842 107.104 184.887 107.16 184.917C107.217 184.947 107.28 184.962 107.344 184.96C107.43 184.961 107.515 184.935 107.585 184.885C107.68 184.827 107.748 184.735 107.775 184.627C107.802 184.52 107.786 184.406 107.73 184.311C105.484 180.501 103.561 176.51 101.982 172.379Z" fill="white"/>
<path d="M116.742 193.924H103.956L102.99 180.704H117.708L116.742 193.924Z" fill="#263238"/>
<path d="M118.658 179.807H102.035V182.046H118.658V179.807Z" fill="#263238"/>
<path d="M55.1482 86.3049H14.5251C11.6732 86.3049 9.36133 88.6168 9.36133 91.4687V188.753C9.36133 191.605 11.6732 193.917 14.5251 193.917H55.1482C58 193.917 60.312 191.605 60.312 188.753V91.4687C60.312 88.6168 58 86.3049 55.1482 86.3049Z" fill="#407BFF"/>
<path d="M52.6736 86.3049H12.0505C9.19862 86.3049 6.88672 88.6168 6.88672 91.4687V188.753C6.88672 191.605 9.19862 193.917 12.0505 193.917H52.6736C55.5254 193.917 57.8373 191.605 57.8373 188.753V91.4687C57.8373 88.6168 55.5254 86.3049 52.6736 86.3049Z" fill="#407BFF"/>
<path d="M57.8373 92.2371H6.88672V184.712H57.8373V92.2371Z" fill="#FAFAFA"/>
<path opacity="0.18" d="M57.8666 92.0449H6.91602V184.52H57.8666V92.0449Z" fill="#407BFF"/>
<path opacity="0.4" d="M25.3771 92.2371L8.85156 184.719H25.2146L41.7475 92.2371H25.3771Z" fill="white"/>
<path opacity="0.4" d="M45.7365 92.2371L29.2109 184.719H37.3961L53.9217 92.2371H45.7365Z" fill="white"/>
<path d="M34.6633 188.996C34.6633 189.451 34.5286 189.895 34.2761 190.273C34.0237 190.651 33.6648 190.945 33.245 191.119C32.8252 191.293 32.3633 191.338 31.9176 191.25C31.472 191.161 31.0626 190.942 30.7413 190.621C30.42 190.3 30.2012 189.89 30.1125 189.445C30.0239 188.999 30.0694 188.537 30.2432 188.117C30.4171 187.697 30.7116 187.339 31.0894 187.086C31.4672 186.834 31.9114 186.699 32.3658 186.699C32.9752 186.699 33.5595 186.941 33.9904 187.372C34.4212 187.803 34.6633 188.387 34.6633 188.996Z" fill="#407BFF"/>
<path d="M38.3868 89.8508C38.8356 89.8508 39.1994 89.487 39.1994 89.0382C39.1994 88.5894 38.8356 88.2256 38.3868 88.2256C37.938 88.2256 37.5742 88.5894 37.5742 89.0382C37.5742 89.487 37.938 89.8508 38.3868 89.8508Z" fill="#407BFF"/>
<path d="M35.0699 89.8508H26.338C26.1225 89.8508 25.9158 89.7652 25.7634 89.6128C25.611 89.4604 25.5254 89.2537 25.5254 89.0382C25.5273 88.8233 25.6136 88.6177 25.7655 88.4657C25.9175 88.3138 26.1231 88.2275 26.338 88.2256H35.0625C35.2774 88.2275 35.483 88.3138 35.6349 88.4657C35.7869 88.6177 35.8732 88.8233 35.8751 89.0382C35.8751 89.2524 35.7905 89.458 35.6397 89.6102C35.4889 89.7624 35.2841 89.8488 35.0699 89.8508Z" fill="#407BFF"/>
</g>
<defs>
<clipPath id="clip0_1102_24847">
<rect width="268.377" height="200" fill="white"/>
</clipPath>
</defs>
</svg>
