<svg width="232" height="200" viewBox="0 0 232 200" fill="none" xmlns="http://www.w3.org/2000/svg">
<g clip-path="url(#clip0_1107_12187)">
<path style="mix-blend-mode:screen" d="M187.719 41.1889V128.752C187.719 129.493 187.425 130.204 186.901 130.728C186.376 131.252 185.665 131.547 184.924 131.547H53.2031C52.4618 131.547 51.751 131.252 51.2268 130.728C50.7027 130.204 50.4082 129.493 50.4082 128.752V41.1889C50.4082 39.4885 51.0837 37.8577 52.2861 36.6553C53.4884 35.453 55.1192 34.7775 56.8196 34.7775H181.314C183.013 34.7791 184.642 35.4553 185.843 36.6575C187.044 37.8597 187.719 39.4896 187.719 41.1889Z" fill="url(#paint0_linear_1107_12187)"/>
<path d="M187.719 41.1889V42.4836H50.377V41.1889C50.377 39.4885 51.0525 37.8577 52.2548 36.6553C53.4572 35.4529 55.088 34.7775 56.7884 34.7775H181.283C182.127 34.7742 182.963 34.9376 183.744 35.2583C184.525 35.5791 185.234 36.0508 185.832 36.6465C186.43 37.2422 186.905 37.9501 187.229 38.7296C187.552 39.5091 187.719 40.3448 187.719 41.1889Z" fill="#FF6C37"/>
<path d="M170.662 38.6306C170.662 38.8411 170.6 39.0469 170.483 39.2219C170.366 39.397 170.199 39.5334 170.005 39.614C169.81 39.6946 169.596 39.7156 169.39 39.6746C169.183 39.6335 168.994 39.5321 168.845 39.3833C168.696 39.2344 168.595 39.0447 168.554 38.8383C168.513 38.6318 168.534 38.4178 168.614 38.2233C168.695 38.0288 168.831 37.8625 169.006 37.7456C169.181 37.6286 169.387 37.5662 169.598 37.5662C169.879 37.5678 170.149 37.6805 170.348 37.8797C170.548 38.079 170.66 38.3488 170.662 38.6306Z" fill="url(#paint1_linear_1107_12187)"/>
<path d="M175.605 38.6306C175.605 38.8411 175.543 39.0469 175.426 39.2219C175.309 39.397 175.143 39.5334 174.948 39.614C174.754 39.6946 174.54 39.7156 174.333 39.6746C174.127 39.6335 173.937 39.5321 173.788 39.3833C173.639 39.2344 173.538 39.0447 173.497 38.8383C173.456 38.6318 173.477 38.4178 173.558 38.2233C173.638 38.0288 173.775 37.8625 173.95 37.7456C174.125 37.6286 174.33 37.5662 174.541 37.5662C174.681 37.5662 174.819 37.5937 174.948 37.6472C175.077 37.7007 175.195 37.7791 175.294 37.8779C175.392 37.9768 175.471 38.0941 175.524 38.2233C175.578 38.3524 175.605 38.4908 175.605 38.6306Z" fill="url(#paint2_linear_1107_12187)"/>
<path d="M180.23 38.6306C180.23 38.8411 180.168 39.0469 180.051 39.2219C179.934 39.397 179.768 39.5334 179.573 39.614C179.379 39.6946 179.165 39.7156 178.958 39.6746C178.752 39.6335 178.562 39.5321 178.413 39.3833C178.264 39.2344 178.163 39.0447 178.122 38.8383C178.081 38.6318 178.102 38.4178 178.183 38.2233C178.263 38.0288 178.4 37.8625 178.575 37.7456C178.75 37.6286 178.955 37.5662 179.166 37.5662C179.306 37.5662 179.444 37.5937 179.573 37.6472C179.702 37.7007 179.82 37.7791 179.919 37.8779C180.017 37.9768 180.096 38.0941 180.149 38.2233C180.203 38.3524 180.23 38.4908 180.23 38.6306Z" fill="url(#paint3_linear_1107_12187)"/>
<path d="M98.8051 54.1239H62.7391C61.2058 54.1239 59.9629 55.3669 59.9629 56.9001V117.305C59.9629 118.838 61.2058 120.081 62.7391 120.081H98.8051C100.338 120.081 101.581 118.838 101.581 117.305V56.9001C101.581 55.3669 100.338 54.1239 98.8051 54.1239Z" fill="white"/>
<path d="M97.5101 60.5664V79.3402C97.5068 79.885 97.2885 80.4065 96.9026 80.7912C96.5167 81.1759 95.9945 81.3927 95.4497 81.3943H66.0815C65.5372 81.3927 65.0157 81.1757 64.6308 80.7909C64.2459 80.406 64.029 79.8845 64.0273 79.3402V60.5664C64.0273 60.2967 64.0805 60.0296 64.1837 59.7803C64.2869 59.5311 64.4382 59.3047 64.629 59.1139C64.8197 58.9232 65.0462 58.7719 65.2954 58.6686C65.5446 58.5654 65.8117 58.5123 66.0815 58.5123H95.4497C95.995 58.5123 96.5182 58.7285 96.9044 59.1135C97.2906 59.4986 97.5084 60.0211 97.5101 60.5664Z" fill="#407BFF"/>
<path d="M97.5101 74.7152V79.3402C97.5068 79.885 97.2885 80.4065 96.9026 80.7912C96.5167 81.1759 95.9945 81.3927 95.4497 81.3943H66.0815C65.5372 81.3927 65.0157 81.1757 64.6308 80.7909C64.2459 80.406 64.029 79.8844 64.0273 79.3402V74.7152L73.1901 65.8201C73.3418 65.6716 73.5216 65.5549 73.7191 65.4768C73.9165 65.3988 74.1275 65.361 74.3397 65.3656C74.5519 65.3703 74.7611 65.4173 74.9549 65.5039C75.1487 65.5904 75.3233 65.7149 75.4683 65.8699L83.4982 74.3542C83.7478 74.6184 84.0909 74.7741 84.454 74.7881C84.8172 74.8021 85.1713 74.6731 85.4403 74.4289L90.2458 70.0716C90.6105 69.7388 91.0893 69.559 91.5829 69.5694C92.0765 69.5799 92.5472 69.7797 92.8975 70.1276L97.5101 74.7152Z" fill="#E0E0E0"/>
<path d="M91.0794 67.1024C92.3961 67.1024 93.4634 66.035 93.4634 64.7184C93.4634 63.4017 92.3961 62.3343 91.0794 62.3343C89.7627 62.3343 88.6953 63.4017 88.6953 64.7184C88.6953 66.035 89.7627 67.1024 91.0794 67.1024Z" fill="url(#paint4_linear_1107_12187)"/>
<path d="M80.2178 90.6567H65.8076C65.3354 90.6567 64.8826 90.4692 64.5488 90.1353C64.2149 89.8014 64.0273 89.3486 64.0273 88.8765C64.029 88.4054 64.2173 87.9542 64.551 87.6216C64.8846 87.2891 65.3365 87.1024 65.8076 87.1024H80.2178C80.6889 87.1024 81.1408 87.2891 81.4745 87.6216C81.8081 87.9542 81.9964 88.4054 81.9981 88.8765C81.9981 89.3486 81.8105 89.8014 81.4767 90.1353C81.1428 90.4692 80.69 90.6567 80.2178 90.6567Z" fill="#FF6C37"/>
<path d="M76.6697 95.4311H64.7058C64.617 95.4319 64.5289 95.4151 64.4466 95.3817C64.3644 95.3483 64.2895 95.2989 64.2264 95.2364C64.1633 95.1739 64.1133 95.0995 64.0791 95.0175C64.0449 94.9356 64.0273 94.8476 64.0273 94.7588C64.0273 94.5789 64.0988 94.4063 64.2261 94.2791C64.3533 94.1518 64.5259 94.0803 64.7058 94.0803H76.6697C76.7585 94.0803 76.8465 94.0979 76.9284 94.1321C77.0104 94.1663 77.0848 94.2163 77.1473 94.2794C77.2098 94.3425 77.2592 94.4174 77.2926 94.4996C77.326 94.5819 77.3428 94.67 77.342 94.7588C77.342 94.9371 77.2712 95.1081 77.1451 95.2342C77.019 95.3603 76.848 95.4311 76.6697 95.4311Z" fill="#BCCAFC"/>
<path d="M90.4014 98.6804H64.7058C64.5259 98.6804 64.3533 98.6089 64.2261 98.4817C64.0988 98.3544 64.0273 98.1818 64.0273 98.0019C64.0273 97.9131 64.0449 97.8251 64.0791 97.7432C64.1133 97.6612 64.1633 97.5868 64.2264 97.5243C64.2895 97.4618 64.3644 97.4124 64.4466 97.379C64.5289 97.3456 64.617 97.3288 64.7058 97.3296H90.4014C90.5797 97.3296 90.7507 97.4005 90.8768 97.5265C91.0029 97.6526 91.0737 97.8236 91.0737 98.0019C91.0745 98.0907 91.0578 98.1788 91.0243 98.2611C90.9909 98.3433 90.9415 98.4182 90.879 98.4813C90.8165 98.5444 90.7421 98.5945 90.6602 98.6286C90.5782 98.6628 90.4903 98.6804 90.4014 98.6804Z" fill="#BCCAFC"/>
<path d="M90.4014 101.923H64.7058C64.617 101.924 64.5289 101.907 64.4466 101.874C64.3644 101.841 64.2895 101.791 64.2264 101.729C64.1633 101.666 64.1133 101.592 64.0791 101.51C64.0449 101.428 64.0273 101.34 64.0273 101.251C64.0273 101.162 64.0449 101.074 64.0791 100.992C64.1133 100.91 64.1633 100.836 64.2264 100.774C64.2895 100.711 64.3644 100.662 64.4466 100.628C64.5289 100.595 64.617 100.578 64.7058 100.579H90.4014C90.4897 100.579 90.5772 100.596 90.6587 100.63C90.7403 100.664 90.8144 100.713 90.8768 100.776C90.9392 100.838 90.9887 100.912 91.0225 100.994C91.0563 101.075 91.0737 101.163 91.0737 101.251C91.0737 101.429 91.0029 101.6 90.8768 101.727C90.7507 101.853 90.5797 101.923 90.4014 101.923Z" fill="#BCCAFC"/>
<path d="M85.3594 105.173H64.7058C64.617 105.174 64.5289 105.157 64.4466 105.123C64.3644 105.09 64.2895 105.041 64.2264 104.978C64.1633 104.916 64.1133 104.841 64.0791 104.759C64.0449 104.677 64.0273 104.589 64.0273 104.5C64.0273 104.321 64.0988 104.148 64.2261 104.021C64.3533 103.893 64.5259 103.822 64.7058 103.822H85.3594C85.4482 103.822 85.5362 103.84 85.6181 103.874C85.7001 103.908 85.7745 103.958 85.837 104.021C85.8995 104.084 85.9489 104.159 85.9823 104.241C86.0157 104.324 86.0325 104.412 86.0317 104.5C86.0317 104.679 85.9609 104.85 85.8348 104.976C85.7087 105.102 85.5377 105.173 85.3594 105.173Z" fill="#BCCAFC"/>
<path d="M88.5396 115.618H72.9778C72.3984 115.618 71.8426 115.388 71.4329 114.978C71.0232 114.568 70.793 114.012 70.793 113.433C70.7946 112.855 71.0255 112.3 71.4351 111.892C71.8447 111.484 72.3994 111.254 72.9778 111.254H88.5396C89.1174 111.254 89.6716 111.484 90.0802 111.892C90.4887 112.301 90.7183 112.855 90.7183 113.433C90.7183 114.011 90.4889 114.566 90.0805 114.976C89.6721 115.385 89.118 115.616 88.5396 115.618Z" fill="#FF6C37"/>
<path d="M129.187 56.2528V84.9736C129.187 85.5382 128.962 86.0797 128.563 86.4789C128.164 86.8781 127.622 87.1024 127.058 87.1024H109.006C108.441 87.1024 107.899 86.8783 107.499 86.4793C107.098 86.0802 106.873 85.5388 106.871 84.9736V56.2528C106.873 55.6876 107.098 55.1461 107.499 54.747C107.899 54.348 108.441 54.1239 109.006 54.1239H127.058C127.622 54.1239 128.164 54.3482 128.563 54.7474C128.962 55.1467 129.187 55.6881 129.187 56.2528Z" fill="white"/>
<path d="M106.842 80.7594H129.189V84.986C129.189 85.5506 128.964 86.0921 128.565 86.4913C128.166 86.8905 127.624 87.1148 127.06 87.1148H109.008C108.443 87.1148 107.901 86.8907 107.5 86.4917C107.1 86.0926 106.875 85.5512 106.873 84.986L106.842 80.7594Z" fill="#FF6C37"/>
<path d="M118.014 60.0187C116.56 60.0174 115.138 60.4476 113.928 61.2546C112.718 62.0616 111.775 63.2093 111.218 64.5525C110.66 65.8957 110.514 67.374 110.797 68.8004C111.08 70.2269 111.779 71.5373 112.807 72.5661C113.835 73.5948 115.145 74.2956 116.571 74.5797C117.997 74.8639 119.476 74.7187 120.819 74.1625C122.163 73.6062 123.312 72.664 124.12 71.4549C124.928 70.2459 125.359 68.8243 125.359 67.3701C125.36 66.405 125.17 65.4492 124.802 64.5573C124.433 63.6654 123.892 62.855 123.21 62.1722C122.528 61.4895 121.718 60.9479 120.826 60.5784C119.935 60.2089 118.979 60.0187 118.014 60.0187ZM118.014 73.0346C116.892 73.0358 115.795 72.7041 114.861 72.0815C113.928 71.4588 113.2 70.5733 112.77 69.5368C112.34 68.5004 112.227 67.3597 112.446 66.2591C112.664 65.1585 113.204 64.1475 113.998 63.3541C114.791 62.5606 115.802 62.0204 116.903 61.8018C118.003 61.5832 119.144 61.696 120.181 62.126C121.217 62.556 122.103 63.2837 122.725 64.2172C123.348 65.1507 123.68 66.248 123.678 67.3701C123.678 68.8724 123.082 70.3132 122.019 71.3755C120.957 72.4378 119.516 73.0346 118.014 73.0346Z" fill="#A4BBFC"/>
<path d="M125.36 67.3701C125.361 68.7566 124.969 70.115 124.23 71.288C123.49 72.461 122.434 73.4006 121.183 73.9979C119.931 74.5952 118.536 74.8258 117.159 74.6631C115.783 74.5003 114.48 73.9507 113.402 73.0781L114.461 71.7772C115.166 72.3448 115.997 72.7351 116.885 72.9152C117.772 73.0953 118.69 73.06 119.561 72.8122C120.432 72.5645 121.231 72.1116 121.891 71.4914C122.551 70.8712 123.052 70.1019 123.353 69.2479C123.655 68.3939 123.747 67.4801 123.622 66.5832C123.497 65.6863 123.159 64.8324 122.636 64.0931C122.113 63.3537 121.421 62.7505 120.617 62.334C119.813 61.9175 118.92 61.6999 118.015 61.6994V60.0187C118.98 60.0187 119.936 60.2089 120.827 60.5784C121.719 60.9479 122.529 61.4895 123.211 62.1722C123.893 62.855 124.434 63.6654 124.803 64.5573C125.171 65.4492 125.361 66.405 125.36 67.3701Z" fill="#FF6C37"/>
<path d="M120.416 68.1544H115.617V68.8578H120.416V68.1544Z" fill="#A4BBFC"/>
<path d="M121.724 66.3492H114.311V67.0526H121.724V66.3492Z" fill="#A4BBFC"/>
<path d="M154.708 56.2528V84.9736C154.708 85.5371 154.485 86.0776 154.087 86.4767C153.689 86.8758 153.149 87.1008 152.585 87.1024H134.496C133.931 87.1024 133.389 86.8783 132.989 86.4793C132.589 86.0802 132.363 85.5388 132.361 84.9736V56.2528C132.363 55.6876 132.589 55.1461 132.989 54.747C133.389 54.348 133.931 54.1239 134.496 54.1239H152.585C153.149 54.1255 153.689 54.3506 154.087 54.7496C154.485 55.1487 154.708 55.6892 154.708 56.2528Z" fill="white"/>
<path d="M132.361 80.7594H154.708V84.986C154.708 85.5495 154.485 86.09 154.087 86.4891C153.689 86.8882 153.149 87.1132 152.585 87.1148H134.496C133.931 87.1148 133.389 86.8907 132.989 86.4917C132.589 86.0926 132.363 85.5512 132.361 84.986V80.7594Z" fill="#407BFF"/>
<path d="M143.535 60.0187C142.081 60.0174 140.659 60.4476 139.449 61.2546C138.24 62.0616 137.296 63.2093 136.739 64.5525C136.182 65.8957 136.035 67.374 136.318 68.8004C136.601 70.2269 137.301 71.5373 138.329 72.5661C139.357 73.5948 140.666 74.2956 142.093 74.5797C143.519 74.8639 144.997 74.7187 146.341 74.1625C147.685 73.6062 148.833 72.664 149.641 71.4549C150.449 70.2459 150.881 68.8243 150.881 67.3701C150.881 66.405 150.692 65.4492 150.323 64.5573C149.954 63.6654 149.414 62.855 148.731 62.1722C148.049 61.4895 147.239 60.9479 146.348 60.5784C145.456 60.2089 144.5 60.0187 143.535 60.0187ZM143.535 73.0346C142.413 73.0358 141.316 72.7041 140.383 72.0815C139.449 71.4588 138.721 70.5733 138.291 69.5368C137.861 68.5004 137.748 67.3597 137.967 66.2591C138.186 65.1585 138.726 64.1475 139.519 63.3541C140.313 62.5606 141.324 62.0204 142.424 61.8018C143.525 61.5832 144.666 61.696 145.702 62.126C146.739 62.556 147.624 63.2837 148.247 64.2172C148.869 65.1507 149.201 66.248 149.2 67.3701C149.204 68.5164 148.854 69.6359 148.198 70.5758C147.682 71.3367 146.987 71.9589 146.174 72.3877C145.361 72.8165 144.455 73.0387 143.535 73.0346Z" fill="#A4BBFC"/>
<path d="M150.88 67.3701C150.883 68.8576 150.431 70.3104 149.586 71.5344L148.197 70.5758C148.854 69.6359 149.204 68.5164 149.2 67.3701C149.2 66.6257 149.055 65.8884 148.77 65.2005C148.486 64.5125 148.069 63.8873 147.543 63.3606C147.017 62.834 146.392 62.4162 145.704 62.1311C145.017 61.8461 144.28 61.6994 143.535 61.6994V60.0187C144.5 60.0187 145.456 60.2089 146.347 60.5784C147.239 60.9479 148.049 61.4895 148.731 62.1722C149.413 62.855 149.954 63.6654 150.323 64.5573C150.692 65.4492 150.881 66.405 150.88 67.3701Z" fill="#407BFF"/>
<path d="M145.938 68.1544H141.139V68.8578H145.938V68.1544Z" fill="#A4BBFC"/>
<path d="M147.246 66.3492H139.832V67.0526H147.246V66.3492Z" fill="#A4BBFC"/>
<g style="mix-blend-mode:multiply">
<path d="M180.231 56.2527V84.9735C180.231 85.5381 180.007 86.0796 179.608 86.4789C179.208 86.8781 178.667 87.1024 178.102 87.1024H160.051C159.486 87.1024 158.945 86.8781 158.545 86.4789C158.146 86.0796 157.922 85.5381 157.922 84.9735V56.2527C157.921 55.9729 157.976 55.6957 158.082 55.437C158.189 55.1784 158.346 54.9434 158.544 54.7455C158.741 54.5477 158.976 54.3909 159.235 54.2842C159.494 54.1775 159.771 54.123 160.051 54.1238H178.102C178.667 54.1238 179.208 54.3481 179.608 54.7474C180.007 55.1466 180.231 55.6881 180.231 56.2527Z" fill="url(#paint5_linear_1107_12187)"/>
</g>
<path d="M189.281 44.7619V79.9004C189.279 80.5927 189.003 81.2561 188.513 81.745C188.023 82.234 187.359 82.5086 186.666 82.5086H164.544C163.852 82.5086 163.189 82.2338 162.699 81.7447C162.21 81.2555 161.936 80.5921 161.936 79.9004V44.7619C161.936 44.4197 162.003 44.0808 162.134 43.7648C162.265 43.4487 162.458 43.1616 162.7 42.9199C162.942 42.6782 163.23 42.4866 163.546 42.3563C163.862 42.2259 164.201 42.1592 164.544 42.16H186.666C187.009 42.1592 187.348 42.2258 187.665 42.3561C187.982 42.4864 188.27 42.6779 188.512 42.9195C188.755 43.1611 188.948 43.4482 189.08 43.7643C189.212 44.0804 189.28 44.4194 189.281 44.7619Z" fill="white"/>
<path d="M189.281 74.7277V79.9004C189.279 80.5927 189.003 81.2561 188.513 81.745C188.023 82.234 187.359 82.5086 186.666 82.5086H164.544C163.852 82.5086 163.189 82.2338 162.699 81.7446C162.21 81.2555 161.936 80.5921 161.936 79.9004V74.7277H189.281Z" fill="#FFC727"/>
<path d="M175.605 49.3744C173.224 49.3744 170.94 50.3199 169.256 52.003C167.572 53.6862 166.625 55.9693 166.623 58.3504V58.4189C166.637 60.1939 167.175 61.9252 168.171 63.3945C169.168 64.8637 170.576 66.0051 172.22 66.6748C173.864 67.3444 175.67 67.5123 177.409 67.1573C179.148 66.8023 180.743 65.9402 181.993 64.6799C183.243 63.4195 184.092 61.8172 184.433 60.0751C184.773 58.333 184.59 56.5291 183.907 54.8907C183.224 53.2524 182.071 51.8531 180.594 50.8691C179.116 49.8852 177.38 49.3608 175.605 49.3619V49.3744ZM181.313 62.2907C180.478 63.5053 179.277 64.4218 177.885 64.9069C176.492 65.3919 174.982 65.4202 173.572 64.9877C172.163 64.5552 170.928 63.6844 170.048 62.5019C169.168 61.3194 168.687 59.8869 168.677 58.4127V58.3504C168.677 57.2647 168.933 56.1942 169.423 55.2253C169.913 54.2565 170.624 53.4163 171.498 52.7726C172.372 52.1289 173.386 51.6997 174.456 51.5197C175.527 51.3396 176.625 51.4137 177.662 51.7359C178.699 52.0582 179.645 52.6197 180.425 53.375C181.205 54.1303 181.796 55.0583 182.152 56.0843C182.507 57.1102 182.616 58.2053 182.471 59.2812C182.325 60.3571 181.929 61.3837 181.313 62.2782V62.2907Z" fill="#A4BBFC"/>
<path d="M184.594 58.3504C184.542 60.6932 183.577 62.923 181.905 64.5647C180.232 66.2064 177.985 67.1301 175.642 67.1391C173.298 67.148 171.044 66.2414 169.36 64.6125C167.675 62.9836 166.693 60.7612 166.623 58.4189H168.677C168.688 59.7867 169.104 61.1206 169.872 62.2526C170.64 63.3845 171.726 64.2638 172.993 64.7796C174.26 65.2953 175.651 65.4246 176.991 65.151C178.331 64.8773 179.56 64.2131 180.524 63.242C181.487 62.2709 182.141 61.0364 182.404 59.694C182.667 58.3516 182.526 56.9615 182 55.6988C181.475 54.4361 180.587 53.3574 179.448 52.5986C178.31 51.8398 176.973 51.4348 175.605 51.4348V49.3806C177.986 49.379 180.271 50.3229 181.956 52.0049C183.642 53.6869 184.59 55.9693 184.594 58.3504Z" fill="#FFC727"/>
<path d="M178.544 59.3215H172.674V60.1805H178.544V59.3215Z" fill="#A4BBFC"/>
<path d="M180.15 57.1118H171.074V57.9708H180.15V57.1118Z" fill="#A4BBFC"/>
<g style="mix-blend-mode:multiply">
<path d="M176.95 94.1799H110.134C108.319 94.1799 106.848 95.6514 106.848 97.4666V116.788C106.848 118.603 108.319 120.075 110.134 120.075H176.95C178.766 120.075 180.237 118.603 180.237 116.788V97.4666C180.237 95.6514 178.766 94.1799 176.95 94.1799Z" fill="#407BFF"/>
</g>
<path d="M134.771 96.4519H134.086V117.261H134.771V96.4519Z" fill="white"/>
<path d="M155.288 102.664H141.917C141.643 102.664 141.371 102.61 141.118 102.505C140.864 102.4 140.634 102.246 140.441 102.051C140.247 101.857 140.093 101.626 139.989 101.373C139.885 101.119 139.831 100.847 139.832 100.573C139.832 100.02 140.052 99.4893 140.443 99.0982C140.834 98.7071 141.364 98.4874 141.917 98.4874H155.288C155.842 98.4874 156.373 98.7069 156.765 99.0978C157.157 99.4887 157.378 100.019 157.38 100.573C157.38 101.127 157.159 101.659 156.767 102.052C156.375 102.444 155.843 102.664 155.288 102.664Z" fill="#FF6C37"/>
<path d="M158.195 106.853H139.832V108.08H158.195V106.853Z" fill="#A4BBFC"/>
<path d="M169.63 110.439H139.832V111.665H169.63V110.439Z" fill="#A4BBFC"/>
<path d="M126.935 98.5309H113.222C112.253 98.5309 111.467 99.3169 111.467 100.286V113.999C111.467 114.969 112.253 115.755 113.222 115.755H126.935C127.905 115.755 128.691 114.969 128.691 113.999V100.286C128.691 99.3169 127.905 98.5309 126.935 98.5309Z" fill="white"/>
<path d="M125.166 107.14C125.166 108.147 124.867 109.131 124.308 109.969C123.748 110.806 122.953 111.459 122.023 111.844C121.092 112.229 120.069 112.33 119.081 112.134C118.093 111.937 117.186 111.452 116.474 110.74C115.762 110.028 115.277 109.121 115.08 108.133C114.884 107.145 114.985 106.122 115.37 105.191C115.755 104.261 116.408 103.466 117.245 102.906C118.083 102.347 119.067 102.048 120.074 102.048V107.14H125.166Z" fill="#A4BBFC"/>
<path d="M126.087 107.14H120.074V101.133C120.864 101.132 121.645 101.287 122.375 101.588C123.104 101.89 123.767 102.332 124.326 102.89C124.884 103.448 125.327 104.11 125.629 104.84C125.932 105.569 126.087 106.35 126.087 107.14Z" fill="#FF6C37"/>
<g style="mix-blend-mode:multiply">
<path d="M38.7177 33.6384H5.29101C2.36886 33.6384 0 36.0072 0 38.9294V90.4949C0 93.417 2.36886 95.7859 5.29101 95.7859H38.7177C41.6399 95.7859 44.0087 93.417 44.0087 90.4949V38.9294C44.0087 36.0072 41.6399 33.6384 38.7177 33.6384Z" fill="#407BFF"/>
</g>
<path d="M30.3639 78.8173H13.6443C13.0461 78.8173 12.4723 78.5801 12.0488 78.1577C11.6252 77.7353 11.3864 77.1621 11.3848 76.5639C11.3848 75.9647 11.6228 75.3899 12.0466 74.9662C12.4703 74.5424 13.0451 74.3044 13.6443 74.3044H30.3639C30.6603 74.3044 30.9539 74.3629 31.2277 74.4765C31.5015 74.5901 31.7501 74.7567 31.9595 74.9666C32.1688 75.1765 32.3346 75.4256 32.4475 75.6997C32.5604 75.9738 32.6181 76.2675 32.6173 76.5639C32.6173 77.1616 32.3798 77.7347 31.9573 78.1573C31.5347 78.5799 30.9615 78.8173 30.3639 78.8173Z" fill="white"/>
<path d="M36.4634 41.2014H7.54343C6.49146 41.2014 5.63867 42.0541 5.63867 43.1061V68.0485C5.63867 69.1005 6.49146 69.9533 7.54343 69.9533H36.4634C37.5154 69.9533 38.3682 69.1005 38.3682 68.0485V43.1061C38.3682 42.0541 37.5154 41.2014 36.4634 41.2014Z" fill="#FF6C37"/>
<path d="M27.6804 61.2501C30.8163 58.1143 30.8163 53.03 27.6804 49.8942C24.5446 46.7583 19.4603 46.7583 16.3245 49.8942C13.1886 53.03 13.1886 58.1143 16.3245 61.2501C19.4603 64.386 24.5446 64.386 27.6804 61.2501Z" fill="white"/>
<path d="M25.3841 56.2216L20.7031 59.1535C20.5896 59.225 20.4593 59.2651 20.3252 59.2699C20.1912 59.2747 20.0583 59.2439 19.9401 59.1807C19.8218 59.1174 19.7224 59.024 19.652 58.9099C19.5816 58.7958 19.5426 58.665 19.5391 58.531V52.6673C19.5426 52.5333 19.5816 52.4025 19.652 52.2884C19.7224 52.1743 19.8218 52.0809 19.9401 52.0177C20.0583 51.9544 20.1912 51.9236 20.3252 51.9284C20.4593 51.9332 20.5896 51.9733 20.7031 52.0448L25.3841 54.9767C25.4842 55.0467 25.566 55.1398 25.6225 55.2482C25.679 55.3566 25.7085 55.477 25.7085 55.5992C25.7085 55.7214 25.679 55.8418 25.6225 55.9501C25.566 56.0585 25.4842 56.1516 25.3841 56.2216Z" fill="#FF6C37"/>
<g style="mix-blend-mode:screen" opacity="0.53">
<path d="M31.2976 82.5521H12.7168V84.376H31.2976V82.5521Z" fill="#BEABFB"/>
<path d="M35.9604 86.5422H8.04883V88.366H35.9604V86.5422Z" fill="#BEABFB"/>
</g>
<g style="mix-blend-mode:multiply">
<path d="M142.328 0H101.133C98.6885 0 96.707 1.98149 96.707 4.42577V33.8687C96.707 36.3129 98.6885 38.2944 101.133 38.2944H142.328C144.772 38.2944 146.754 36.3129 146.754 33.8687V4.42577C146.754 1.98149 144.772 0 142.328 0Z" fill="#407BFF"/>
</g>
<path d="M129.101 13.0905C129.101 14.5509 128.668 15.9785 127.856 17.1927C127.045 18.4069 125.892 19.3531 124.542 19.9117C123.193 20.4702 121.708 20.6161 120.276 20.3307C118.844 20.0454 117.528 19.3416 116.496 18.3085C115.464 17.2755 114.761 15.9594 114.477 14.527C114.193 13.0945 114.34 11.6099 114.9 10.261C115.459 8.91218 116.407 7.75962 117.621 6.94917C118.836 6.13871 120.264 5.70679 121.725 5.70802C122.694 5.70638 123.655 5.89626 124.551 6.26676C125.447 6.63726 126.261 7.18108 126.946 7.86702C127.632 8.55296 128.175 9.3675 128.545 10.2639C128.914 11.1603 129.103 12.1209 129.101 13.0905Z" fill="url(#paint6_linear_1107_12187)"/>
<path d="M124.165 10.2832C124.165 10.7624 124.023 11.2308 123.757 11.6291C123.49 12.0275 123.112 12.3378 122.669 12.5209C122.226 12.704 121.739 12.7516 121.269 12.6577C120.799 12.5637 120.368 12.3325 120.029 11.9932C119.691 11.654 119.461 11.2219 119.368 10.7518C119.275 10.2817 119.324 9.79463 119.508 9.35228C119.693 8.90993 120.004 8.5322 120.403 8.26688C120.802 8.00156 121.271 7.86059 121.75 7.86182C122.068 7.86182 122.382 7.9245 122.676 8.04626C122.969 8.16803 123.236 8.34649 123.46 8.57142C123.684 8.79635 123.862 9.06333 123.983 9.35707C124.104 9.65082 124.166 9.96555 124.165 10.2832Z" fill="#F5F7F9"/>
<path d="M126.816 18.4314C125.446 19.7414 123.623 20.4725 121.727 20.4725C119.832 20.4725 118.009 19.7414 116.639 18.4314C116.937 17.3099 117.598 16.3185 118.518 15.6113C119.439 14.904 120.567 14.5206 121.727 14.5206C122.888 14.5206 124.016 14.904 124.936 15.6113C125.857 16.3185 126.517 17.3099 126.816 18.4314Z" fill="#F5F7F9"/>
<path d="M107.98 26.2808L108.54 27.4199C108.563 27.467 108.597 27.5076 108.639 27.5381C108.682 27.5685 108.731 27.5878 108.783 27.5942L110.028 27.7747C110.087 27.7839 110.143 27.8096 110.189 27.849C110.235 27.8884 110.269 27.9398 110.287 27.9975C110.305 28.0551 110.307 28.1167 110.292 28.1753C110.277 28.2338 110.246 28.287 110.202 28.3287L109.299 29.2126C109.261 29.2498 109.232 29.296 109.216 29.3471C109.2 29.3982 109.196 29.4525 109.206 29.5052L109.418 30.7501C109.429 30.8102 109.422 30.8721 109.4 30.9288C109.377 30.9855 109.338 31.0345 109.289 31.0703C109.24 31.1061 109.181 31.1272 109.12 31.1311C109.059 31.135 108.998 31.1216 108.945 31.0925L107.824 30.47C107.778 30.4455 107.727 30.4326 107.675 30.4326C107.623 30.4326 107.571 30.4455 107.525 30.47L106.399 31.0925C106.345 31.1199 106.285 31.1319 106.225 31.1272C106.165 31.1224 106.108 31.101 106.06 31.0655C106.011 31.03 105.973 30.9816 105.951 30.9259C105.928 30.8702 105.922 30.8094 105.932 30.7501L106.143 29.5052C106.153 29.4525 106.15 29.3982 106.134 29.3471C106.117 29.296 106.089 29.2498 106.05 29.2126L105.141 28.3287C105.1 28.2856 105.071 28.232 105.057 28.1736C105.044 28.1153 105.047 28.0544 105.065 27.9974C105.084 27.9405 105.117 27.8897 105.163 27.8505C105.208 27.8112 105.263 27.785 105.322 27.7747L106.567 27.5942C106.618 27.5868 106.667 27.5671 106.709 27.5367C106.752 27.5064 106.786 27.4663 106.81 27.4199L107.37 26.2808C107.392 26.2178 107.433 26.1632 107.488 26.1247C107.543 26.0861 107.608 26.0654 107.675 26.0654C107.742 26.0654 107.807 26.0861 107.861 26.1247C107.916 26.1632 107.957 26.2178 107.98 26.2808Z" fill="url(#paint7_linear_1107_12187)"/>
<path d="M115.139 26.2807L115.705 27.4198C115.728 27.4669 115.762 27.5076 115.804 27.538C115.847 27.5685 115.896 27.5878 115.948 27.5941L117.193 27.7747C117.253 27.7829 117.31 27.8079 117.357 27.8469C117.403 27.8859 117.438 27.9372 117.457 27.9951C117.476 28.0529 117.478 28.1149 117.463 28.1738C117.448 28.2328 117.417 28.2865 117.373 28.3286L116.465 29.2126C116.427 29.2504 116.399 29.2967 116.383 29.3476C116.366 29.3984 116.362 29.4524 116.371 29.5051L116.589 30.7501C116.6 30.8101 116.594 30.8721 116.571 30.9288C116.548 30.9854 116.51 31.0345 116.46 31.0703C116.411 31.1061 116.352 31.1272 116.291 31.1311C116.23 31.135 116.17 31.1216 116.116 31.0924L114.996 30.47C114.948 30.4454 114.896 30.4326 114.843 30.4326C114.79 30.4326 114.738 30.4454 114.691 30.47L113.57 31.0924C113.517 31.1199 113.457 31.1319 113.397 31.1271C113.337 31.1223 113.279 31.101 113.231 31.0654C113.182 31.0299 113.145 30.9816 113.122 30.9259C113.1 30.8702 113.093 30.8093 113.103 30.7501L113.315 29.5051C113.324 29.4524 113.32 29.3984 113.304 29.3476C113.287 29.2967 113.259 29.2504 113.222 29.2126L112.338 28.3286C112.294 28.2865 112.263 28.2328 112.248 28.1738C112.233 28.1149 112.235 28.0529 112.254 27.9951C112.273 27.9372 112.308 27.8859 112.354 27.8469C112.401 27.8079 112.458 27.7829 112.518 27.7747L113.763 27.5941C113.815 27.5867 113.863 27.567 113.906 27.5367C113.948 27.5063 113.982 27.4663 114.006 27.4198L114.566 26.2807C114.594 26.2286 114.635 26.1849 114.685 26.1545C114.736 26.1241 114.793 26.108 114.852 26.108C114.911 26.108 114.969 26.1241 115.02 26.1545C115.07 26.1849 115.111 26.2286 115.139 26.2807Z" fill="url(#paint8_linear_1107_12187)"/>
<path d="M122.03 26.2808L122.59 27.4199C122.615 27.4668 122.65 27.5071 122.693 27.5374C122.737 27.5677 122.787 27.5872 122.839 27.5942L124.084 27.7747C124.144 27.7829 124.201 27.808 124.248 27.847C124.294 27.886 124.329 27.9373 124.348 27.9951C124.367 28.0529 124.369 28.1149 124.354 28.1739C124.34 28.2329 124.308 28.2865 124.265 28.3287L123.356 29.2126C123.318 29.2504 123.29 29.2967 123.274 29.3476C123.258 29.3985 123.254 29.4525 123.262 29.5052L123.48 30.7501C123.491 30.8102 123.485 30.8721 123.462 30.9288C123.439 30.9855 123.401 31.0345 123.352 31.0703C123.302 31.1061 123.244 31.1272 123.183 31.1311C123.122 31.135 123.061 31.1216 123.007 31.0925L121.887 30.47C121.84 30.4455 121.787 30.4326 121.734 30.4326C121.681 30.4326 121.629 30.4455 121.582 30.47L120.461 31.0925C120.408 31.1216 120.347 31.135 120.286 31.1311C120.225 31.1272 120.166 31.1061 120.117 31.0703C120.067 31.0345 120.029 30.9855 120.006 30.9288C119.984 30.8721 119.977 30.8102 119.988 30.7501L120.206 29.5052C120.215 29.4525 120.211 29.3985 120.195 29.3476C120.179 29.2967 120.15 29.2504 120.113 29.2126L119.185 28.3287C119.141 28.2865 119.11 28.2329 119.096 28.1739C119.081 28.1149 119.083 28.0529 119.102 27.9951C119.121 27.9373 119.155 27.886 119.202 27.847C119.249 27.808 119.306 27.7829 119.366 27.7747L120.611 27.5942C120.663 27.5872 120.713 27.5677 120.756 27.5374C120.8 27.5071 120.835 27.4668 120.86 27.4199L121.42 26.2808C121.442 26.2178 121.484 26.1632 121.538 26.1247C121.593 26.0861 121.658 26.0654 121.725 26.0654C121.792 26.0654 121.857 26.0861 121.912 26.1247C121.966 26.1632 122.008 26.2178 122.03 26.2808Z" fill="url(#paint9_linear_1107_12187)"/>
<path d="M129.187 26.2807L129.748 27.4199C129.771 27.4663 129.805 27.5063 129.848 27.5367C129.89 27.567 129.939 27.5867 129.99 27.5941L131.235 27.7747C131.296 27.7829 131.352 27.808 131.399 27.8469C131.446 27.8859 131.48 27.9373 131.499 27.9951C131.518 28.0529 131.52 28.1149 131.506 28.1739C131.491 28.2329 131.46 28.2865 131.416 28.3287L130.507 29.2126C130.469 29.2504 130.441 29.2967 130.425 29.3476C130.409 29.3984 130.405 29.4525 130.414 29.5051L130.625 30.7501C130.635 30.8093 130.629 30.8702 130.606 30.9259C130.584 30.9816 130.546 31.0299 130.498 31.0655C130.449 31.101 130.392 31.1224 130.332 31.1271C130.272 31.1319 130.212 31.1199 130.158 31.0924L129.032 30.47C128.986 30.4454 128.935 30.4326 128.882 30.4326C128.83 30.4326 128.779 30.4454 128.733 30.47L127.613 31.0924C127.559 31.1216 127.498 31.135 127.437 31.1311C127.376 31.1272 127.318 31.1061 127.268 31.0703C127.219 31.0345 127.18 30.9854 127.158 30.9288C127.135 30.8721 127.129 30.8102 127.14 30.7501L127.357 29.5051C127.365 29.4525 127.36 29.3989 127.344 29.3482C127.328 29.2976 127.3 29.2512 127.264 29.2126L126.355 28.3287C126.311 28.2865 126.28 28.2329 126.266 28.1739C126.251 28.1149 126.253 28.0529 126.272 27.9951C126.291 27.9373 126.325 27.8859 126.372 27.8469C126.419 27.808 126.475 27.7829 126.536 27.7747L127.781 27.5941C127.832 27.5878 127.882 27.5685 127.924 27.538C127.967 27.5076 128.001 27.4669 128.023 27.4199L128.59 26.2807C128.614 26.2217 128.656 26.1713 128.709 26.1359C128.762 26.1005 128.825 26.0815 128.889 26.0815C128.953 26.0815 129.015 26.1005 129.068 26.1359C129.121 26.1713 129.163 26.2217 129.187 26.2807Z" fill="url(#paint10_linear_1107_12187)"/>
<path d="M136.046 26.2807L136.613 27.4199C136.635 27.4669 136.67 27.5076 136.712 27.538C136.754 27.5685 136.804 27.5878 136.856 27.5941L138.101 27.7747C138.161 27.7829 138.218 27.808 138.264 27.8469C138.311 27.8859 138.346 27.9373 138.364 27.9951C138.383 28.0529 138.385 28.1149 138.371 28.1739C138.356 28.2329 138.325 28.2865 138.281 28.3287L137.372 29.2126C137.335 29.2504 137.306 29.2967 137.29 29.3476C137.274 29.3984 137.27 29.4525 137.279 29.5051L137.497 30.7501C137.508 30.8102 137.501 30.8721 137.479 30.9288C137.456 30.9854 137.418 31.0345 137.368 31.0703C137.319 31.1061 137.26 31.1272 137.199 31.1311C137.138 31.135 137.077 31.1216 137.024 31.0924L135.903 30.47C135.856 30.4454 135.804 30.4326 135.751 30.4326C135.698 30.4326 135.645 30.4454 135.598 30.47L134.478 31.0924C134.424 31.1199 134.364 31.1319 134.304 31.1271C134.244 31.1224 134.187 31.101 134.139 31.0655C134.09 31.0299 134.053 30.9816 134.03 30.9259C134.007 30.8702 134.001 30.8093 134.011 30.7501L134.223 29.5051C134.231 29.4525 134.227 29.3984 134.211 29.3476C134.195 29.2967 134.167 29.2504 134.129 29.2126L133.22 28.3287C133.177 28.2865 133.146 28.2329 133.131 28.1739C133.116 28.1149 133.118 28.0529 133.137 27.9951C133.156 27.9373 133.191 27.8859 133.237 27.8469C133.284 27.808 133.341 27.7829 133.401 27.7747L134.646 27.5941C134.697 27.5867 134.746 27.567 134.789 27.5367C134.831 27.5063 134.865 27.4663 134.889 27.4199L135.449 26.2807C135.473 26.2217 135.515 26.1713 135.568 26.1359C135.621 26.1005 135.684 26.0815 135.748 26.0815C135.812 26.0815 135.874 26.1005 135.927 26.1359C135.98 26.1713 136.022 26.2217 136.046 26.2807Z" fill="url(#paint11_linear_1107_12187)"/>
<g style="mix-blend-mode:multiply">
<path d="M229.276 22.3779H203.443C201.958 22.3779 200.754 23.5818 200.754 25.0669V42.353C200.754 43.8381 201.958 45.042 203.443 45.042H229.276C230.761 45.042 231.965 43.8381 231.965 42.353V25.0669C231.965 23.5818 230.761 22.3779 229.276 22.3779Z" fill="#407BFF"/>
</g>
<path d="M206.691 33.5014L212.437 30.5883V32.2067L208.316 34.2173L212.437 36.2839V37.8961L206.691 34.9393V33.5014Z" fill="#F5F7F9"/>
<path d="M213.875 38.4314L217.342 29.0196H218.836L215.375 38.4314H213.875Z" fill="#F5F7F9"/>
<path d="M226.013 34.958L220.268 37.8774V36.2652L224.388 34.2546L220.268 32.2067V30.5883L226.013 33.545V34.958Z" fill="#F5F7F9"/>
<path d="M186.866 78.3256C186.866 78.3256 184.445 78.6181 184.575 78.9978C184.706 79.3775 187.096 79.2655 187.283 79.2904C187.47 79.3153 189.25 80.1805 189.25 80.1805L186.866 78.3256Z" fill="#D481A0"/>
<path d="M187.942 77.8712C187.942 77.8712 184.767 76.3834 184.282 76.5764C183.796 76.7694 186.112 78.0766 186.112 78.0766L188.9 79.888L187.942 77.8712Z" fill="#D481A0"/>
<path d="M204.17 96.0411L199.813 98.78L193.588 84.0274C193.588 84.0274 190.09 78.7302 188.67 76.9624C187.251 75.1945 186.672 73.8936 186.212 73.9683C185.751 74.043 186.772 76.6075 187.382 77.5662C187.992 78.5248 189 80.7968 189 81.4939C189 82.1911 188.421 82.3343 186.268 81.2761C184.618 80.4669 185.421 81.8986 186.268 82.6891C186.809 83.2057 190.799 85.9073 190.799 85.9073C190.799 85.9073 193.818 104.096 196.171 106.38C198.524 108.665 208.87 102.353 208.87 102.353L204.17 96.0411Z" fill="url(#paint12_linear_1107_12187)"/>
<path d="M208.89 102.353C206.725 103.652 204.47 104.794 202.142 105.77C199.652 106.76 197.2 107.351 196.191 106.393C195.183 105.434 194.162 101.892 193.235 97.9894C192.948 96.7942 192.681 95.568 192.432 94.3791L194.131 93.0594L194.467 92.798L196.608 91.1484L199.845 98.7924L204.171 96.0535L208.89 102.353Z" fill="url(#paint13_linear_1107_12187)"/>
<path d="M171.348 88.447C171.468 87.7738 171.468 87.0847 171.348 86.4115C171.13 85.4716 171.23 84.737 171.392 84.6623C171.554 84.5876 172.014 85.7268 172.549 87.2705C172.876 88.5319 173.021 89.8336 172.979 91.136L171.348 88.447Z" fill="#E098B1"/>
<path d="M192.014 94.8895L186.66 98.3567L173.42 90.887C173.42 90.887 170.439 85.7392 169.605 85.1167C168.771 84.4943 166.374 82.4214 165.764 82.5335C165.154 82.6455 166.069 83.7784 166.069 83.7784C166.069 83.7784 164.544 82.6393 164.202 82.907C163.859 83.1746 164.88 84.4631 164.88 84.4631C164.88 84.4631 164.121 84.0087 163.859 84.2017C163.598 84.3947 164.351 85.4155 164.351 85.4155C164.351 85.4155 163.822 85.1105 163.797 85.7952C163.772 86.4799 166.555 88.7208 167.165 89.7479C167.775 90.775 168.883 92.63 169.605 93.2773C170.138 93.7164 170.739 94.0654 171.385 94.3106C171.385 94.3106 182.284 104.588 185.384 105.845C188.484 107.102 195.749 101.538 195.749 101.538L192.014 94.8895Z" fill="url(#paint14_linear_1107_12187)"/>
<path d="M191.658 95.1323L194.129 102.664L195.356 101.811L191.658 95.1323Z" fill="url(#paint15_linear_1107_12187)"/>
<path d="M206.006 193.906L203.952 195.114L200.777 193.682L201.188 188.621H206.753L206.006 193.906Z" fill="#E098B1"/>
<path d="M206.163 200H192.188C192.021 200.001 191.857 199.961 191.708 199.885C191.56 199.809 191.432 199.698 191.336 199.561C191.239 199.425 191.177 199.268 191.154 199.103C191.131 198.937 191.149 198.769 191.205 198.612L191.242 198.512C191.43 197.998 191.782 197.561 192.244 197.267C193.614 196.433 200.336 193.533 200.336 193.533C200.404 193.106 200.448 192.676 200.467 192.244C200.498 191.653 200.965 191.659 200.965 191.659C200.965 191.659 201.656 193.526 203.019 193.925C204.023 194.112 205.059 194.002 206.001 193.607L206.225 192.512C207.14 193.638 207.208 196.688 207.37 198.531V198.711C207.381 198.877 207.358 199.043 207.303 199.198C207.247 199.354 207.16 199.497 207.047 199.618C206.933 199.739 206.796 199.835 206.644 199.901C206.492 199.967 206.328 200 206.163 200Z" fill="black"/>
<path d="M206.331 200H191.69C191.596 200.002 191.502 199.983 191.416 199.944C191.33 199.904 191.254 199.846 191.194 199.772C191.134 199.699 191.091 199.613 191.069 199.521C191.048 199.429 191.047 199.333 191.068 199.241C191.109 198.992 191.176 198.748 191.267 198.512H207.371C207.371 198.649 207.371 198.774 207.371 198.892C207.382 199.035 207.363 199.178 207.316 199.313C207.269 199.448 207.194 199.572 207.096 199.676C206.998 199.78 206.879 199.863 206.748 199.919C206.616 199.974 206.474 200.002 206.331 200Z" fill="#CCBCF1"/>
<path d="M199.627 196.421C199.594 196.421 199.562 196.414 199.533 196.4C199.504 196.386 199.479 196.365 199.459 196.34C199.012 195.676 198.354 195.182 197.591 194.939C197.536 194.93 197.486 194.899 197.454 194.854C197.421 194.808 197.408 194.752 197.417 194.697C197.421 194.669 197.43 194.642 197.444 194.618C197.459 194.594 197.478 194.573 197.501 194.557C197.523 194.541 197.549 194.529 197.576 194.523C197.604 194.517 197.632 194.517 197.66 194.522C198.53 194.771 199.283 195.323 199.782 196.078C199.8 196.1 199.812 196.126 199.82 196.153C199.827 196.18 199.829 196.208 199.826 196.236C199.822 196.263 199.814 196.29 199.8 196.315C199.786 196.339 199.767 196.36 199.745 196.377C199.711 196.404 199.67 196.419 199.627 196.421Z" fill="#CCBCF1"/>
<path d="M201.854 195.686C201.799 195.684 201.746 195.662 201.705 195.624C200.217 194.167 199.078 194.23 199.059 194.23C199.01 194.227 198.964 194.208 198.928 194.175C198.891 194.142 198.867 194.098 198.86 194.049C198.858 194.022 198.861 193.994 198.869 193.968C198.878 193.941 198.891 193.917 198.909 193.896C198.927 193.875 198.949 193.858 198.974 193.846C198.999 193.834 199.026 193.827 199.053 193.825C199.103 193.825 200.385 193.732 202.029 195.338C202.068 195.377 202.09 195.431 202.09 195.487C202.09 195.543 202.068 195.597 202.029 195.636C202.005 195.656 201.977 195.671 201.947 195.68C201.917 195.688 201.885 195.691 201.854 195.686Z" fill="#CCBCF1"/>
<path d="M219.758 118.923C220.589 121.869 221.041 124.908 221.103 127.968C221.103 132.53 210.969 164.557 210.969 164.557L207.925 190.507H200.02C200.02 190.507 200.642 162.328 201.439 156.651C202.236 150.974 206.331 118.923 206.331 118.923H219.758Z" fill="url(#paint16_linear_1107_12187)"/>
<g opacity="0.5">
<path d="M219.758 118.923C220.589 121.869 221.041 124.908 221.103 127.968C221.103 132.53 210.969 164.557 210.969 164.557L207.925 190.507H200.02C200.02 190.507 200.642 162.328 201.439 156.651C202.236 150.974 206.331 118.923 206.331 118.923H219.758Z" fill="#407BFF" style="mix-blend-mode:multiply"/>
</g>
<path d="M221.357 193.906L219.303 195.114L216.62 193.906L215.338 188.621H220.865L221.357 193.906Z" fill="#E9A8BC"/>
<path d="M221.512 200H207.537C207.371 199.999 207.207 199.959 207.06 199.882C206.912 199.805 206.785 199.695 206.689 199.559C206.592 199.423 206.53 199.266 206.507 199.102C206.483 198.937 206.499 198.769 206.554 198.612L206.591 198.512C206.779 197.998 207.131 197.561 207.593 197.267C208.963 196.433 215.685 193.533 215.685 193.533C215.685 193.533 215.567 192.804 215.536 192.256C215.505 191.709 216.233 191.634 216.233 191.634C216.233 191.634 217.005 193.501 218.368 193.9C219.372 194.087 220.408 193.977 221.35 193.582L221.244 192.487C222.159 193.613 222.557 196.664 222.719 198.506V198.687C222.734 198.854 222.714 199.022 222.66 199.181C222.606 199.34 222.519 199.486 222.405 199.61C222.292 199.733 222.154 199.832 222 199.899C221.846 199.966 221.68 200.001 221.512 200Z" fill="black"/>
<path d="M221.706 200H207.04C206.948 199.996 206.857 199.972 206.774 199.931C206.692 199.889 206.618 199.831 206.56 199.759C206.501 199.688 206.458 199.604 206.434 199.515C206.409 199.426 206.404 199.332 206.418 199.241C206.459 198.992 206.526 198.748 206.617 198.512H222.72C222.72 198.649 222.72 198.774 222.758 198.892C222.768 199.035 222.748 199.179 222.7 199.315C222.652 199.45 222.575 199.574 222.476 199.678C222.377 199.783 222.258 199.865 222.125 199.921C221.992 199.976 221.849 200.003 221.706 200Z" fill="#E6DAFD"/>
<path d="M214.423 196.539C214.39 196.538 214.358 196.53 214.329 196.515C214.3 196.5 214.275 196.478 214.255 196.452C213.813 195.784 213.153 195.291 212.387 195.058C212.339 195.04 212.298 195.007 212.272 194.962C212.246 194.917 212.237 194.865 212.246 194.814C212.254 194.763 212.281 194.718 212.321 194.685C212.361 194.652 212.411 194.634 212.462 194.634C213.334 194.884 214.087 195.439 214.585 196.197C214.618 196.242 214.631 196.299 214.623 196.355C214.615 196.411 214.586 196.461 214.541 196.495C214.506 196.52 214.466 196.535 214.423 196.539Z" fill="#E6DAFD"/>
<path d="M216.639 195.811C216.582 195.811 216.529 195.788 216.489 195.749C215.001 194.292 213.862 194.354 213.85 194.354C213.822 194.357 213.794 194.354 213.767 194.345C213.741 194.337 213.716 194.324 213.695 194.306C213.673 194.288 213.655 194.266 213.643 194.241C213.63 194.216 213.622 194.189 213.62 194.161C213.616 194.105 213.634 194.05 213.67 194.007C213.706 193.965 213.757 193.937 213.813 193.931C213.869 193.931 215.145 193.838 216.788 195.443C216.82 195.473 216.842 195.511 216.851 195.553C216.861 195.595 216.857 195.639 216.841 195.679C216.824 195.719 216.796 195.753 216.76 195.776C216.724 195.8 216.682 195.812 216.639 195.811Z" fill="#E6DAFD"/>
<path d="M222.378 190.507H213.701C213.701 190.507 205.391 163.119 204.682 158.176C204.327 155.686 202.615 141.369 201.725 133.869C201.613 132.96 201.526 132.051 201.451 131.136C201.297 129.227 201.21 127.314 201.189 125.397C201.189 125.198 201.189 124.992 201.189 124.774V121.693L212.076 120.056L218.114 119.147C218.264 120.261 218.382 121.251 218.475 122.166C218.98 126.941 218.83 129.598 217.978 135.356L216.851 158.052L222.378 190.507Z" fill="#407BFF"/>
<path d="M218.5 190.507H218.064C217.535 188.453 212.711 169.555 211.572 164.195C210.377 158.55 207.215 123.05 207.152 122.695L207.582 122.658C207.582 123.013 210.8 158.487 211.989 164.108C213.178 169.574 218.158 189.15 218.5 190.507Z" fill="#407BFF"/>
<path style="mix-blend-mode:multiply" opacity="0.5" d="M218.469 122.185C218.469 122.185 211.622 125.758 201.189 125.397C201.189 125.198 201.189 124.992 201.189 124.774V121.662L212.076 120.031C215.575 121.22 218.469 122.185 218.469 122.185Z" fill="url(#paint17_linear_1107_12187)"/>
<path d="M205.459 69.1379C205.459 69.1379 204.059 66.7352 204.177 64.5316C204.295 62.3281 207.862 61.108 207.862 61.108C207.862 61.108 207.557 57.6533 213.601 58.4127C219.645 59.1721 220.785 65.4031 220.785 65.4031C220.785 65.4031 222.092 65.4716 222.117 68.2167C222.117 71.1423 221.494 72.5055 219.004 74.7899C216.633 76.9499 216.359 78.5248 216.359 78.5248L205.459 69.1379Z" fill="black"/>
<path d="M217.605 73.5914C220.32 70.876 220.32 66.4737 217.605 63.7583C214.89 61.043 210.487 61.043 207.772 63.7583C205.057 66.4736 205.057 70.8761 207.772 73.5914C210.487 76.3067 214.89 76.3067 217.605 73.5914Z" fill="black"/>
<path d="M205.951 66.9343C205.186 68.8265 204.801 70.8506 204.818 72.8914C204.78 76.5017 204.556 81.7865 209.175 80.9524L208.833 84.0274H216.508L216.333 78.4936L212.667 73.9558C213.012 73.9671 213.354 73.9024 213.671 73.7661C213.988 73.6299 214.271 73.4256 214.5 73.1677C214.728 72.9097 214.897 72.6046 214.995 72.2739C215.092 71.9432 215.116 71.5951 215.064 71.2543C214.883 68.7146 212.175 70.0778 212.063 71.4472L210.881 73.2337C210.881 73.2337 209.592 72.3996 209.704 69.2437L205.951 66.9343Z" fill="url(#paint18_linear_1107_12187)"/>
<path d="M209.194 80.9524C210.593 80.7122 211.933 80.205 213.14 79.4584C213.165 80.0414 213.072 80.6234 212.869 81.1703C212.665 81.7172 212.355 82.218 211.955 82.6435C211.556 83.0689 211.076 83.4104 210.543 83.648C210.01 83.8857 209.435 84.0146 208.852 84.0274L209.194 80.9524Z" fill="url(#paint19_linear_1107_12187)"/>
<path d="M222.458 92.6984V93.1217C222.458 95.2381 222.359 97.6408 222.203 100.093V100.168C222.203 100.286 222.203 100.411 222.203 100.529C222.023 103.262 221.767 106.057 221.518 108.571C221.518 108.733 221.487 108.889 221.475 109.044C221.188 111.802 220.896 114.205 220.703 115.805C220.703 115.966 220.666 116.122 220.641 116.265C220.51 117.311 220.429 117.921 220.429 117.921C220.429 117.921 221.799 119.216 221.674 119.819C221.325 120.578 220.89 121.294 220.379 121.955C214.067 122.826 206.816 123.094 201.232 121.712L201.338 114.865V114.373L201.462 106.218V105.777L201.537 100.741V100.678L198.86 101.973L198.45 102.179L196.196 103.268L195.717 102.403L193.258 97.9832L192.455 96.5328L191.621 95.0202C191.621 95.0202 191.926 94.7712 192.455 94.3977L194.155 93.0781C194.254 92.991 194.379 92.91 194.491 92.8167L196.626 91.1671L199.24 89.1752L199.589 88.9138C201.406 87.5381 203.012 86.3492 203.734 85.8823C203.927 85.7578 204.12 85.6458 204.357 85.54C204.522 85.443 204.692 85.3557 204.867 85.2785C205.81 84.8526 206.792 84.519 207.799 84.2826C208.316 84.1519 208.702 84.0959 208.832 84.071H208.882C208.882 84.071 215.692 82.5397 219.558 84.4631C219.611 84.4884 219.663 84.5175 219.713 84.5502C219.744 84.5589 219.773 84.5714 219.8 84.5876L219.856 84.625C219.956 84.6747 220.056 84.7432 220.161 84.8055C220.527 85.0425 220.857 85.3319 221.139 85.6645C221.36 85.9183 221.547 86.201 221.693 86.5048C222.203 87.5692 222.427 89.8475 222.458 92.6984Z" fill="black"/>
<path style="mix-blend-mode:multiply" opacity="0.5" d="M210.774 96.3959L208.272 99.1223L207.961 99.4958L201.406 106.99L201.5 100.66L205.546 98.755L206.106 98.4874L210.774 96.3959Z" fill="url(#paint20_linear_1107_12187)"/>
<path d="M169.73 87.2456C169.707 87.2442 169.684 87.238 169.664 87.2273C169.644 87.2165 169.626 87.2016 169.612 87.1834C169.331 86.8087 169.023 86.455 168.69 86.1251C168.305 85.789 166.02 83.8843 165.995 83.8656C165.981 83.8517 165.97 83.8352 165.963 83.817C165.955 83.7989 165.951 83.7794 165.951 83.7598C165.951 83.7401 165.955 83.7206 165.963 83.7025C165.97 83.6843 165.981 83.6678 165.995 83.6539C166.023 83.6277 166.06 83.613 166.098 83.613C166.136 83.613 166.173 83.6277 166.201 83.6539C166.3 83.7349 168.522 85.5836 168.902 85.9197C169.245 86.2504 169.564 86.6062 169.854 86.9842C169.88 87.0136 169.894 87.0511 169.894 87.09C169.894 87.1288 169.88 87.1664 169.854 87.1958C169.821 87.2272 169.776 87.245 169.73 87.2456Z" fill="#E4A2B6"/>
<path d="M168.36 87.7996C168.335 87.8 168.31 87.7939 168.288 87.7819C168.267 87.7699 168.248 87.7524 168.235 87.7311C168.01 87.3817 167.761 87.0488 167.488 86.7351C167.109 86.3368 164.862 84.5689 164.837 84.5503C164.821 84.538 164.808 84.5228 164.798 84.5055C164.789 84.4883 164.783 84.4693 164.78 84.4496C164.778 84.43 164.78 84.41 164.785 84.391C164.79 84.372 164.799 84.3542 164.812 84.3386C164.824 84.3231 164.839 84.3101 164.856 84.3005C164.874 84.2908 164.893 84.2847 164.912 84.2823C164.932 84.28 164.952 84.2816 164.971 84.287C164.99 84.2924 165.008 84.3015 165.023 84.3137C165.117 84.3884 167.308 86.1189 167.7 86.5297C167.992 86.8544 168.254 87.2044 168.484 87.5755C168.506 87.6086 168.513 87.6487 168.505 87.6871C168.497 87.7256 168.474 87.7593 168.441 87.7809C168.415 87.7929 168.388 87.7993 168.36 87.7996Z" fill="#E4A2B6"/>
<path d="M167.576 88.8018C167.551 88.8022 167.527 88.7961 167.505 88.7841C167.483 88.772 167.465 88.7545 167.452 88.7333C167.15 88.235 166.802 87.7661 166.412 87.3327L164.178 85.4653C164.163 85.4519 164.151 85.4356 164.143 85.4173C164.135 85.3991 164.131 85.3794 164.131 85.3595C164.131 85.3396 164.135 85.3199 164.143 85.3017C164.151 85.2834 164.163 85.2671 164.178 85.2537C164.205 85.2274 164.242 85.2128 164.28 85.2128C164.319 85.2128 164.355 85.2274 164.383 85.2537C164.383 85.2537 166.25 86.8099 166.624 87.1211C167.037 87.5732 167.404 88.0653 167.719 88.5901C167.741 88.6232 167.748 88.6633 167.74 88.7018C167.732 88.7402 167.709 88.7739 167.676 88.7955C167.644 88.8063 167.609 88.8085 167.576 88.8018Z" fill="#E4A2B6"/>
</g>
<defs>
<linearGradient id="paint0_linear_1107_12187" x1="119.048" y1="149.767" x2="119.048" y2="-19.2966" gradientUnits="userSpaceOnUse">
<stop stop-color="#5D5DD7"/>
<stop offset="1" stop-color="#8EB6F6"/>
</linearGradient>
<linearGradient id="paint1_linear_1107_12187" x1="169.598" y1="40.4109" x2="169.598" y2="37.977" gradientUnits="userSpaceOnUse">
<stop stop-color="#EBB02A"/>
<stop offset="0.17" stop-color="#EDB93D"/>
<stop offset="0.51" stop-color="#F0C85D"/>
<stop offset="0.8" stop-color="#F2D171"/>
<stop offset="1" stop-color="#F3D478"/>
</linearGradient>
<linearGradient id="paint2_linear_1107_12187" x1="174.541" y1="40.4109" x2="174.541" y2="37.977" gradientUnits="userSpaceOnUse">
<stop stop-color="#EBB02A"/>
<stop offset="0.17" stop-color="#EDB93D"/>
<stop offset="0.51" stop-color="#F0C85D"/>
<stop offset="0.8" stop-color="#F2D171"/>
<stop offset="1" stop-color="#F3D478"/>
</linearGradient>
<linearGradient id="paint3_linear_1107_12187" x1="179.166" y1="40.4109" x2="179.166" y2="37.977" gradientUnits="userSpaceOnUse">
<stop stop-color="#EBB02A"/>
<stop offset="0.17" stop-color="#EDB93D"/>
<stop offset="0.51" stop-color="#F0C85D"/>
<stop offset="0.8" stop-color="#F2D171"/>
<stop offset="1" stop-color="#F3D478"/>
</linearGradient>
<linearGradient id="paint4_linear_1107_12187" x1="91.0794" y1="70.1276" x2="91.0794" y2="63.7473" gradientUnits="userSpaceOnUse">
<stop stop-color="#EBB02A"/>
<stop offset="1" stop-color="#F3D478"/>
</linearGradient>
<linearGradient id="paint5_linear_1107_12187" x1="169.058" y1="93.8562" x2="169.058" y2="52.0946" gradientUnits="userSpaceOnUse">
<stop stop-color="#8886FA"/>
<stop offset="1" stop-color="#8886FA" stop-opacity="0.3"/>
</linearGradient>
<linearGradient id="paint6_linear_1107_12187" x1="121.725" y1="3.9153" x2="121.725" y2="26.4052" gradientUnits="userSpaceOnUse">
<stop stop-color="#BEABFB"/>
<stop offset="1" stop-color="#BEABFB" stop-opacity="0.1"/>
</linearGradient>
<linearGradient id="paint7_linear_1107_12187" x1="108.963" y1="30.968" x2="106.934" y2="27.258" gradientUnits="userSpaceOnUse">
<stop stop-color="#EBB02A"/>
<stop offset="1" stop-color="#F3D478"/>
</linearGradient>
<linearGradient id="paint8_linear_1107_12187" x1="116.116" y1="30.9679" x2="114.093" y2="27.258" gradientUnits="userSpaceOnUse">
<stop stop-color="#EBB02A"/>
<stop offset="1" stop-color="#F3D478"/>
</linearGradient>
<linearGradient id="paint9_linear_1107_12187" x1="123.007" y1="30.968" x2="120.984" y2="27.258" gradientUnits="userSpaceOnUse">
<stop stop-color="#EBB02A"/>
<stop offset="1" stop-color="#F3D478"/>
</linearGradient>
<linearGradient id="paint10_linear_1107_12187" x1="130.165" y1="30.9679" x2="128.135" y2="27.258" gradientUnits="userSpaceOnUse">
<stop stop-color="#EBB02A"/>
<stop offset="1" stop-color="#F3D478"/>
</linearGradient>
<linearGradient id="paint11_linear_1107_12187" x1="137.024" y1="30.9679" x2="135.001" y2="27.258" gradientUnits="userSpaceOnUse">
<stop stop-color="#EBB02A"/>
<stop offset="1" stop-color="#F3D478"/>
</linearGradient>
<linearGradient id="paint12_linear_1107_12187" x1="191.042" y1="97.0993" x2="195.816" y2="90.526" gradientUnits="userSpaceOnUse">
<stop stop-color="#E098B1"/>
<stop offset="1" stop-color="#ECB4C0"/>
</linearGradient>
<linearGradient id="paint13_linear_1107_12187" x1="200.935" y1="100.903" x2="201.843" y2="109.362" gradientUnits="userSpaceOnUse">
<stop stop-color="#D1719E"/>
<stop offset="1" stop-color="#E098B1" stop-opacity="0.3"/>
</linearGradient>
<linearGradient id="paint14_linear_1107_12187" x1="176.664" y1="100.075" x2="179.714" y2="92.7794" gradientUnits="userSpaceOnUse">
<stop stop-color="#E9A8BC"/>
<stop offset="1" stop-color="#F0C6C7"/>
</linearGradient>
<linearGradient id="paint15_linear_1107_12187" x1="194.111" y1="95.2132" x2="192.057" y2="106.274" gradientUnits="userSpaceOnUse">
<stop stop-color="#D1719E"/>
<stop offset="1" stop-color="#E098B1" stop-opacity="0.3"/>
</linearGradient>
<linearGradient id="paint16_linear_1107_12187" x1="211.573" y1="154.529" x2="198.7" y2="155.064" gradientUnits="userSpaceOnUse">
<stop stop-color="#2F2B86"/>
<stop offset="1" stop-color="#4141BB"/>
</linearGradient>
<linearGradient id="paint17_linear_1107_12187" x1="201.183" y1="122.751" x2="218.469" y2="122.751" gradientUnits="userSpaceOnUse">
<stop stop-color="#2F2B86"/>
<stop offset="1" stop-color="#2F2B86" stop-opacity="0.3"/>
</linearGradient>
<linearGradient id="paint18_linear_1107_12187" x1="216.495" y1="78.9356" x2="206.056" y2="74.7339" gradientUnits="userSpaceOnUse">
<stop stop-color="#E9A8BC"/>
<stop offset="1" stop-color="#F0C6C7"/>
</linearGradient>
<linearGradient id="paint19_linear_1107_12187" x1="211.41" y1="80.0871" x2="209.667" y2="84.5129" gradientUnits="userSpaceOnUse">
<stop stop-color="#D1719E"/>
<stop offset="1" stop-color="#E098B1" stop-opacity="0.3"/>
</linearGradient>
<linearGradient id="paint20_linear_1107_12187" x1="206.896" y1="97.479" x2="177.914" y2="137.51" gradientUnits="userSpaceOnUse">
<stop stop-color="#E27A1E"/>
<stop offset="1" stop-color="#E27A1E" stop-opacity="0.3"/>
</linearGradient>
<clipPath id="clip0_1107_12187">
<rect width="231.958" height="200" fill="white"/>
</clipPath>
</defs>
</svg>
