<svg width="240" height="200" viewBox="0 0 240 200" fill="none" xmlns="http://www.w3.org/2000/svg">
<g clip-path="url(#clip0_1108_12492)">
<path d="M221.078 1.90399H202.99V19.9919H221.078V1.90399Z" fill="#F6F9FF"/>
<path d="M229.639 23.3575H223.176V29.8203H229.639V23.3575Z" fill="#FF6C37" stroke="#407BFF" stroke-width="0.498186" stroke-miterlimit="10"/>
<path d="M208.762 14.1124H191.057V32.4618H208.762V14.1124Z" fill="white" stroke="#407BFF" stroke-width="0.469173" stroke-miterlimit="10"/>
<path d="M191.539 14.2867L208.286 32.2741" stroke="#407BFF" stroke-width="0.469173" stroke-miterlimit="10"/>
<path d="M208.286 14.2867L191.539 32.2741" stroke="#407BFF" stroke-width="0.469173" stroke-miterlimit="10"/>
<path d="M146.126 14.1124H128.42V32.4618H146.126V14.1124Z" fill="white" stroke="#407BFF" stroke-width="0.469173" stroke-miterlimit="10"/>
<path d="M128.902 14.2867L145.649 32.2741" stroke="#407BFF" stroke-width="0.469173" stroke-miterlimit="10"/>
<path d="M145.649 14.2867L128.902 32.2741" stroke="#407BFF" stroke-width="0.469173" stroke-miterlimit="10"/>
<path d="M40.3131 51.8035H6.10156V77.2594H40.3131V51.8035Z" stroke="#407BFF" stroke-width="0.469173" stroke-linecap="round" stroke-linejoin="round"/>
<path d="M37.8652 55.464H8.54102V58.7222H37.8652V55.464Z" fill="white" stroke="#407BFF" stroke-width="0.469173" stroke-miterlimit="10"/>
<path d="M8.24023 62.7983H24.8332" stroke="#407BFF" stroke-width="0.469173" stroke-miterlimit="10"/>
<path d="M8.24023 66.6667H24.8332" stroke="#407BFF" stroke-width="0.469173" stroke-miterlimit="10"/>
<path d="M8.24023 70.5349H24.8332" stroke="#407BFF" stroke-width="0.469173" stroke-miterlimit="10"/>
<path d="M8.24023 74.6045H24.8332" stroke="#407BFF" stroke-width="0.469173" stroke-miterlimit="10"/>
<path d="M37.866 62.7983H26.8711V74.6112H37.866V62.7983Z" fill="white" stroke="#407BFF" stroke-width="0.469173" stroke-miterlimit="10"/>
<path d="M26.8711 62.7983L37.866 74.6045" stroke="#407BFF" stroke-width="0.469173" stroke-miterlimit="10"/>
<path d="M37.866 62.7983L26.8711 74.6045" stroke="#407BFF" stroke-width="0.469173" stroke-miterlimit="10"/>
<path d="M109.729 11.6H40.4004V32.9462H109.729V11.6Z" fill="#F6F9FF"/>
<path d="M44.5156 16.4052H104.478" stroke="#407BFF" stroke-width="0.469173" stroke-miterlimit="10"/>
<path d="M44.5156 20.2802H104.478" stroke="#407BFF" stroke-width="0.469173" stroke-miterlimit="10"/>
<path d="M44.5156 24.1553H104.478" stroke="#407BFF" stroke-width="0.469173" stroke-miterlimit="10"/>
<path d="M44.5156 28.0303H104.478" stroke="#407BFF" stroke-width="0.469173" stroke-miterlimit="10"/>
<path d="M34.7608 111.431V112.765H33.4199" stroke="#2D1D6A" stroke-width="0.703759" stroke-linecap="round" stroke-linejoin="round"/>
<path d="M30.7044 112.765H21.1777" stroke="#2D1D6A" stroke-width="0.703759" stroke-linecap="round" stroke-linejoin="round" stroke-dasharray="4.06 4.06"/>
<path d="M19.8252 112.765H18.4844V111.431" stroke="#2D1D6A" stroke-width="0.703759" stroke-linecap="round" stroke-linejoin="round"/>
<path d="M18.4844 108.709V99.1887" stroke="#2D1D6A" stroke-width="0.703759" stroke-linecap="round" stroke-linejoin="round" stroke-dasharray="4.06 4.06"/>
<path d="M18.4844 97.8279V96.4871H19.8252" stroke="#2D1D6A" stroke-width="0.703759" stroke-linecap="round" stroke-linejoin="round"/>
<path d="M22.5391 96.4871H32.059" stroke="#2D1D6A" stroke-width="0.703759" stroke-linecap="round" stroke-linejoin="round" stroke-dasharray="4.06 4.06"/>
<path d="M33.4199 96.4871H34.7608V97.8279" stroke="#2D1D6A" stroke-width="0.703759" stroke-linecap="round" stroke-linejoin="round"/>
<path d="M34.7617 100.55V110.07" stroke="#2D1D6A" stroke-width="0.703759" stroke-linecap="round" stroke-linejoin="round" stroke-dasharray="4.06 4.06"/>
<path d="M185.15 125.657V44.5361C185.149 44.0342 185.049 43.5375 184.857 43.0742C184.664 42.6109 184.382 42.1901 184.026 41.8359C183.671 41.4817 183.249 41.2009 182.785 41.0097C182.321 40.8185 181.824 40.7205 181.322 40.7214H49.3496C48.8477 40.7205 48.3507 40.8185 47.8867 41.0097C47.4227 41.2009 47.001 41.4817 46.6455 41.8359C46.29 42.1901 46.0078 42.6109 45.8149 43.0742C45.6221 43.5375 45.5224 44.0342 45.5215 44.5361V125.657H185.15Z" fill="#455A64"/>
<path d="M49.3428 141.559C48.276 141.559 47.2528 141.136 46.4985 140.381C45.7441 139.627 45.3203 138.604 45.3203 137.537V125.885H185.13V137.544C185.13 138.61 184.706 139.634 183.952 140.388C183.197 141.142 182.174 141.566 181.107 141.566L49.3428 141.559Z" fill="white"/>
<path d="M185.062 125.952V137.544C185.061 138.592 184.643 139.596 183.901 140.336C183.16 141.077 182.155 141.492 181.107 141.492H49.3424C48.2951 141.492 47.2907 141.076 46.5502 140.336C45.8096 139.595 45.3936 138.591 45.3936 137.544V125.952H185.062ZM185.203 125.811H45.2461V137.544C45.2479 138.629 45.6802 139.669 46.4482 140.436C47.2162 141.203 48.2571 141.633 49.3424 141.633H181.107C182.192 141.633 183.233 141.203 184.001 140.436C184.769 139.669 185.201 138.629 185.203 137.544V125.811Z" fill="black"/>
<path d="M118.892 132.71C118.891 133.43 118.676 134.133 118.275 134.73C117.875 135.328 117.305 135.794 116.64 136.068C115.975 136.343 115.243 136.414 114.537 136.273C113.832 136.132 113.184 135.784 112.675 135.275C112.167 134.766 111.821 134.117 111.681 133.411C111.541 132.705 111.613 131.973 111.889 131.308C112.165 130.644 112.631 130.076 113.23 129.676C113.828 129.276 114.532 129.063 115.252 129.063C115.73 129.063 116.204 129.157 116.646 129.34C117.088 129.524 117.49 129.793 117.828 130.131C118.166 130.47 118.434 130.872 118.617 131.315C118.799 131.757 118.893 132.231 118.892 132.71Z" fill="white"/>
<path d="M91.7612 159.279C91.0505 159.238 90.9835 159.104 90.9768 159.078C90.9701 159.051 91.1109 158.883 91.2316 158.816C91.2316 158.816 92.197 158.474 93.3702 158.032C94.5434 157.589 96.0519 157.006 96.957 156.563C98.5526 155.799 98.6665 155.276 99.2431 152.769C99.8733 150.02 100.463 144.167 100.698 141.707H129.761C129.989 144.154 130.579 149.993 131.215 152.769C131.785 155.276 131.886 155.799 133.502 156.563C134.427 157.013 135.982 157.616 137.129 158.045C138.275 158.474 139.287 158.977 139.301 158.984C139.314 158.99 139.482 159.131 139.475 159.165C139.468 159.198 139.435 159.279 138.805 159.279H91.7612Z" fill="white"/>
<path d="M129.693 141.774C129.928 144.268 130.518 150.034 131.142 152.782C131.711 155.263 131.846 155.853 133.475 156.63C134.4 157.073 135.955 157.683 137.102 158.112C138.248 158.541 139.26 159.044 139.26 159.044C139.308 159.07 139.351 159.104 139.388 159.145C139.198 159.197 139.001 159.217 138.804 159.205H91.7744C91.1442 159.205 91.0571 159.071 91.0504 159.071C91.0504 159.031 91.1644 158.937 91.2448 158.89C91.3253 158.843 92.2102 158.541 93.3969 158.092C94.5835 157.643 96.0786 157.073 96.9836 156.63C98.6128 155.853 98.7468 155.29 99.3167 152.782C99.9335 150.054 100.523 144.275 100.765 141.774H129.693ZM129.828 141.633H100.631C100.396 144.174 99.8061 149.993 99.1759 152.749C98.5993 155.276 98.4653 155.766 96.9233 156.503C96.0517 156.919 94.5768 157.495 93.3432 157.965C92.1097 158.434 91.1979 158.756 91.1979 158.756C91.1979 158.756 90.2593 159.272 91.761 159.346H138.804C140.072 159.346 139.334 158.91 139.334 158.91C139.334 158.91 138.315 158.407 137.149 157.971C135.982 157.536 134.413 156.919 133.535 156.496C131.993 155.759 131.859 155.27 131.282 152.742C130.652 149.987 130.062 144.167 129.828 141.626V141.633Z" fill="black"/>
<path d="M130.725 148.552C130.598 147.345 129.894 142.411 129.82 141.633H100.63C100.556 142.411 100.63 142.793 100.496 144L130.725 148.552Z" fill="#455A64"/>
<path d="M178.446 47.2379H51.998V118.443H178.446V47.2379Z" fill="#EBF5FF"/>
<path d="M178.446 47.2379H51.998V54.3042H178.446V47.2379Z" fill="white" stroke="#407BFF" stroke-width="0.469173" stroke-miterlimit="10"/>
<path d="M176.067 55.8125H149.484V90.3995H176.067V55.8125Z" fill="white" stroke="#407BFF" stroke-width="0.469173" stroke-miterlimit="10"/>
<path d="M148.283 55.8528H53.3379V116.962H148.283V55.8528Z" fill="white" stroke="#407BFF" stroke-width="0.469173" stroke-miterlimit="10"/>
<path d="M148.599 49.0748H63.1543V52.4672H148.599V49.0748Z" fill="#E2E0F6"/>
<path d="M60.8145 49.0748H57.1875V52.4672H60.8145V49.0748Z" fill="#E2E0F6"/>
<path d="M162.377 52.2123V52.0112C162.377 51.6947 162.251 51.3912 162.027 51.1674C161.804 50.9436 161.5 50.8179 161.184 50.8179H159.99C159.674 50.8179 159.37 50.9436 159.146 51.1674C158.923 51.3912 158.797 51.6947 158.797 52.0112V52.2123H162.377Z" fill="#E2E0F6"/>
<path d="M161.385 49.4234C161.386 49.5815 161.34 49.7364 161.253 49.8685C161.167 50.0005 161.042 50.1038 160.897 50.1653C160.751 50.2267 160.591 50.2434 160.435 50.2134C160.28 50.1834 160.137 50.1079 160.025 49.9966C159.913 49.8853 159.836 49.7432 159.805 49.5882C159.774 49.4333 159.789 49.2726 159.849 49.1264C159.909 48.9802 160.012 48.8552 160.143 48.7673C160.274 48.6793 160.429 48.6323 160.587 48.6323C160.797 48.6323 160.999 48.7155 161.149 48.8636C161.298 49.0118 161.383 49.213 161.385 49.4234Z" fill="#E2E0F6"/>
<path d="M163.302 52.1253C163.302 52.3364 163.239 52.5428 163.122 52.7182C163.004 52.8937 162.837 53.0303 162.642 53.1108C162.447 53.1913 162.232 53.212 162.025 53.1703C161.818 53.1286 161.629 53.0264 161.48 52.8767C161.331 52.7269 161.23 52.5364 161.19 52.3291C161.149 52.1219 161.171 51.9074 161.253 51.7127C161.335 51.5181 161.472 51.352 161.649 51.2357C161.825 51.1194 162.031 51.058 162.243 51.0593C162.382 51.0593 162.521 51.087 162.65 51.1406C162.778 51.1943 162.896 51.2729 162.994 51.372C163.092 51.471 163.17 51.5886 163.223 51.7179C163.276 51.8472 163.303 51.9857 163.302 52.1253Z" fill="#FF6C37"/>
<path d="M169.343 48.8401H166.104C166.024 48.8401 165.948 48.8719 165.891 48.9285C165.835 48.985 165.803 49.0618 165.803 49.1418V51.676C165.803 51.756 165.835 51.8327 165.891 51.8893C165.948 51.9459 166.024 51.9777 166.104 51.9777H166.306V52.6883L167.016 51.9777H169.343C169.423 51.9777 169.501 51.9461 169.558 51.8897C169.616 51.8333 169.649 51.7566 169.651 51.676V49.1418C169.649 49.0612 169.616 48.9844 169.558 48.928C169.501 48.8716 169.423 48.8401 169.343 48.8401Z" fill="#E2E0F6"/>
<path d="M170.65 52.1253C170.65 52.3364 170.587 52.5428 170.469 52.7182C170.352 52.8937 170.185 53.0303 169.99 53.1108C169.795 53.1913 169.58 53.212 169.373 53.1703C169.166 53.1286 168.976 53.0264 168.827 52.8767C168.679 52.7269 168.578 52.5364 168.537 52.3291C168.497 52.1219 168.519 51.9074 168.601 51.7127C168.682 51.5181 168.82 51.352 168.996 51.2357C169.172 51.1194 169.379 51.058 169.59 51.0593C169.73 51.0593 169.868 51.087 169.997 51.1406C170.126 51.1943 170.243 51.2729 170.342 51.372C170.44 51.471 170.518 51.5886 170.571 51.7179C170.624 51.8472 170.65 51.9857 170.65 52.1253Z" fill="#FF6C37"/>
<path d="M176.067 91.8008H149.484V116.647H176.067V91.8008Z" fill="white" stroke="#407BFF" stroke-width="0.469173" stroke-miterlimit="10"/>
<path d="M164.609 62.3157H158.26V63.7839H164.609V62.3157Z" fill="#E2E0F6"/>
<path d="M157.622 57.5557H151.273V59.0239H157.622V57.5557Z" fill="#E2E0F6"/>
<path d="M157.622 86.8732H151.273V88.3414H157.622V86.8732Z" fill="#E2E0F6"/>
<path d="M166.458 57.5557H164.293V59.0239H166.458V57.5557Z" fill="#E2E0F6"/>
<path d="M169.798 57.5557H167.633V59.0239H169.798V57.5557Z" fill="#E2E0F6"/>
<path d="M157.622 93.5438H151.273V95.012H157.622V93.5438Z" fill="#E2E0F6"/>
<path d="M166.458 93.5438H164.293V95.012H166.458V93.5438Z" fill="#E2E0F6"/>
<path d="M169.798 93.5438H167.633V95.012H169.798V93.5438Z" fill="#E2E0F6"/>
<path d="M169.483 65.071H158.26V66.5393H169.483V65.071Z" fill="#E2E0F6"/>
<path d="M156.517 64.327C156.517 64.8401 156.365 65.3417 156.08 65.7684C155.795 66.1951 155.39 66.5276 154.916 66.724C154.441 66.9204 153.92 66.9717 153.416 66.8716C152.913 66.7715 152.451 66.5244 152.088 66.1616C151.725 65.7987 151.478 65.3364 151.378 64.8331C151.278 64.3298 151.329 63.8082 151.526 63.3341C151.722 62.86 152.055 62.4548 152.481 62.1697C152.908 61.8846 153.41 61.7324 153.923 61.7324C154.264 61.7315 154.601 61.798 154.917 61.9281C155.232 62.0582 155.518 62.2493 155.759 62.4904C156 62.7315 156.191 63.0178 156.322 63.333C156.452 63.6482 156.518 63.986 156.517 64.327Z" fill="#E2E0F6"/>
<path d="M164.609 70.7831H158.26V72.2513H164.609V70.7831Z" fill="#E2E0F6"/>
<path d="M169.483 73.5385H158.26V75.0067H169.483V73.5385Z" fill="#E2E0F6"/>
<path d="M156.517 72.7943C156.517 73.3074 156.365 73.809 156.08 74.2357C155.795 74.6624 155.39 74.9949 154.916 75.1913C154.441 75.3877 153.92 75.439 153.416 75.3389C152.913 75.2388 152.451 74.9917 152.088 74.6289C151.725 74.266 151.478 73.8037 151.378 73.3004C151.278 72.7971 151.329 72.2755 151.526 71.8014C151.722 71.3273 152.055 70.9221 152.481 70.637C152.908 70.3519 153.41 70.1997 153.923 70.1997C154.264 70.1988 154.601 70.2653 154.917 70.3954C155.232 70.5255 155.518 70.7166 155.759 70.9577C156 71.1988 156.191 71.4851 156.322 71.8003C156.452 72.1155 156.518 72.4533 156.517 72.7943Z" fill="#E2E0F6"/>
<path d="M164.609 79.2505H158.26V80.7187H164.609V79.2505Z" fill="#E2E0F6"/>
<path d="M169.483 82.0059H158.26V83.4741H169.483V82.0059Z" fill="#E2E0F6"/>
<path d="M156.517 81.2618C156.517 81.7749 156.365 82.2765 156.08 82.7032C155.795 83.1299 155.39 83.4624 154.916 83.6588C154.441 83.8552 153.92 83.9066 153.416 83.8064C152.913 83.7063 152.451 83.4592 152.088 83.0964C151.725 82.7335 151.478 82.2712 151.378 81.7679C151.278 81.2647 151.329 80.743 151.526 80.2689C151.722 79.7948 152.055 79.3896 152.481 79.1045C152.908 78.8194 153.41 78.6672 153.923 78.6672C154.264 78.6664 154.601 78.7329 154.917 78.8629C155.232 78.993 155.518 79.1841 155.759 79.4252C156 79.6663 156.191 79.9527 156.322 80.2678C156.452 80.583 156.518 80.9208 156.517 81.2618Z" fill="#E2E0F6"/>
<path d="M164.609 98.9407H158.26V100.409H164.609V98.9407Z" fill="#E2E0F6"/>
<path d="M169.483 101.689H158.26V103.158H169.483V101.689Z" fill="#E2E0F6"/>
<path d="M156.463 98.0826H151.381V103.164H156.463V98.0826Z" fill="#E2E0F6"/>
<path d="M164.609 108.414H158.26V109.882H164.609V108.414Z" fill="#E2E0F6"/>
<path d="M169.483 111.169H158.26V112.637H169.483V111.169Z" fill="#E2E0F6"/>
<path d="M156.463 107.556H151.381V112.637H156.463V107.556Z" fill="#E2E0F6"/>
<path d="M145.434 56.7645H56.6973V84.3456H145.434V56.7645Z" fill="#FFE2D7"/>
<path d="M125.477 61.5513H94.7715V63.6296H125.477V61.5513Z" fill="#FF6C37"/>
<path d="M129.794 66.0029H94.7715V67.5583H129.794V66.0029Z" fill="#FF6C37"/>
<path d="M125.209 69.6367H94.6309V71.2055H125.209V69.6367Z" fill="#FF6C37"/>
<path d="M128.675 73.1497H94.6309V74.705H128.675V73.1497Z" fill="#FF6C37"/>
<path d="M102.24 76.9442H94.6309V78.4996H102.24V76.9442Z" fill="#FF6C37"/>
<path d="M91.8938 61.6587H60.9941V79.9277H91.8938V61.6587Z" fill="#FF6C37"/>
<path d="M60.9941 61.6587L91.8938 79.9277" stroke="white" stroke-width="0.331027" stroke-miterlimit="10"/>
<path d="M91.8938 61.6587L60.9941 79.9277" stroke="white" stroke-width="0.331027" stroke-miterlimit="10"/>
<path d="M5.92578 37.2084C7.69039 37.9812 9.66603 38.1282 11.5256 37.625C13.3851 37.1218 15.017 35.9986 16.1511 34.4414C17.2852 32.8842 17.8535 30.9863 17.7618 29.0621C17.6701 27.1378 16.9239 25.3026 15.6469 23.8603C14.3664 22.4189 11.8791 21.5272 10.612 22.9888C10.3474 23.3544 10.1593 23.7697 10.0591 24.2098C9.95889 24.6498 9.94856 25.1056 10.0288 25.5498C10.1928 26.6844 10.583 27.7746 11.176 28.7558C11.7691 29.7369 12.553 30.5891 13.4814 31.2617C15.3498 32.5989 17.5233 33.4471 19.8035 33.7289C21.9634 34.134 24.1928 33.944 26.253 33.1792C27.2764 32.7889 28.1915 32.1592 28.9217 31.3427C29.6518 30.5262 30.1758 29.5467 30.4498 28.4862" stroke="#407BFF" stroke-width="0.498186" stroke-linecap="round" stroke-linejoin="round"/>
<path d="M193.014 50.543L195.3 53.0101" stroke="#407BFF" stroke-width="0.498186" stroke-linecap="round" stroke-linejoin="round"/>
<path d="M178.459 73.6726L181.027 75.8381" stroke="#2D1D6A" stroke-width="0.498186" stroke-linecap="round" stroke-linejoin="round"/>
<path d="M17.3235 181.577L15.5469 194.684L19.5426 194.241L22.8746 183.132L17.3235 181.577Z" fill="#EEBCC4"/>
<path d="M37.9786 190.017L38.5083 193.899C38.5725 194.114 38.561 194.345 38.4755 194.552C38.3901 194.76 38.236 194.932 38.0389 195.039C37.5846 195.287 37.0658 195.392 36.5506 195.341C36.1685 195.307 35.6657 195.488 35.5383 195.133L34.6466 191.352C34.4187 190.728 34.9617 190.775 35.6254 190.742L36.7786 190.681C37.2411 190.654 37.8512 189.582 37.9786 190.017Z" fill="#EEBCC4"/>
<path d="M34.6465 194.02V199.497L38.2064 199.571C38.2064 199.571 38.4143 199.028 38.7159 199.035C39.0176 199.041 39.2858 199.591 39.6277 199.598L41.5384 199.631L48.6784 199.779C48.6784 199.779 48.8527 198.974 48.6784 198.686C48.3519 198.447 47.9868 198.265 47.599 198.15C45.7688 197.546 40.6333 195.468 39.554 193.799C39.1115 193.128 38.964 192.599 38.669 192.907C37.2879 194.315 34.6465 194.02 34.6465 194.02Z" fill="black"/>
<path d="M15.104 193.128L14.4336 199.718L17.9935 199.792C17.9935 199.792 18.2014 199.249 18.5031 199.256C18.8047 199.263 19.0729 199.812 19.4148 199.819L21.3255 199.859L28.4655 200C28.4655 200 28.6465 199.195 28.4655 198.907C28.1399 198.667 27.7745 198.485 27.3861 198.371C25.5559 197.767 20.6819 196.018 20.0115 194.02C19.8104 193.43 18.3019 193.738 17.7857 193.799C15.7677 194.02 15.104 193.128 15.104 193.128Z" fill="black"/>
<path d="M38.4423 191.352L34.6678 192.464L30.8933 178.694C30.766 177.353 30.3972 174.001 30.6721 172.694L32.013 166.03L25.416 139.153L38.2278 133.36C38.2278 133.36 41.4458 166.224 38.4423 191.352Z" fill="#FF6C37"/>
<path d="M38.1401 85.5725C40.3525 88.2542 37.0808 93.0477 37.7647 95.2065C39.9033 101.998 33.0181 103.486 29.3911 100.972C27.8492 99.9061 30.8124 93.5975 30.256 91.7873C29.9421 90.9024 29.8661 89.9505 30.0355 89.0269C30.2049 88.1034 30.6139 87.2405 31.2214 86.5245C31.7478 85.9966 32.3911 85.6001 33.0993 85.3672C33.8075 85.1342 34.5605 85.0714 35.2975 85.1837C36.7742 85.4391 38.1029 86.235 39.0251 87.4162" fill="#151852"/>
<path d="M31.067 95.1528C32.3073 102.722 30.4569 111.075 24.9662 116.439C19.4754 121.802 10.1097 123.27 3.94179 118.711C2.21881 117.438 0.703655 115.48 1.00534 113.348C1.27411 111.984 2.06876 110.78 3.21773 109.996C4.96809 108.691 7.1493 108.102 9.31856 108.347C6.38212 105.705 6.69721 100.302 9.92194 98.0289C11.9332 96.6077 14.5009 96.4132 16.9077 95.9708C19.5786 95.5941 22.1133 94.5571 24.2824 92.9539C26.0791 91.4991 26.9976 89.6018 27.6881 87.4497C29.8536 88.5023 30.6581 92.8801 31.067 95.1528Z" fill="#151852"/>
<path d="M34.8217 121.514C34.8217 121.628 34.2854 121.762 33.615 121.815L25.9789 122.412C25.3085 122.472 24.7453 122.412 24.7386 122.305L24.7051 121.869C24.7051 121.755 25.2347 121.614 25.9051 121.567L33.5412 120.964C34.2116 120.91 34.7748 120.964 34.7815 121.078L34.8217 121.514Z" fill="#1A1714"/>
<path d="M50.5098 103.721L57.2475 100.04L60.1303 97.4926C60.5874 97.1965 61.121 97.0404 61.6656 97.0434L63.8176 96.8423C63.7506 96.7685 64.1729 96.916 64.2065 96.9361L65.6613 97.573C65.7048 97.5904 65.7422 97.6205 65.7685 97.6593C65.7948 97.6982 65.8088 97.744 65.8088 97.7909C65.8088 97.8378 65.7948 97.8837 65.7685 97.9225C65.7422 97.9613 65.7048 97.9914 65.6613 98.0088L63.3014 98.7194C63.0005 98.8101 62.7215 98.9616 62.4816 99.1646C62.2417 99.3675 62.0461 99.6177 61.9069 99.8994L61.86 99.9865C61.8404 100.027 61.8309 100.072 61.832 100.116C61.8332 100.161 61.8451 100.205 61.8668 100.245C61.8884 100.284 61.9192 100.318 61.9565 100.343C61.9938 100.368 62.0366 100.384 62.0812 100.389L63.4221 100.536C63.5251 100.549 63.6206 100.597 63.6923 100.672C63.764 100.747 63.8075 100.844 63.8154 100.948C63.8233 101.051 63.7951 101.154 63.7356 101.24C63.6761 101.325 63.589 101.386 63.4891 101.415L61.9203 101.844C61.7586 101.886 61.591 101.902 61.4242 101.891L58.1727 101.73L52.4741 106.034C52.2059 106.221 50.5098 103.815 50.5098 103.721Z" fill="white" stroke="#2D1D6A" stroke-width="0.242115" stroke-miterlimit="10"/>
<path d="M62.3164 98.2099L65.5411 97.573" stroke="#2D1D6A" stroke-width="0.242115" stroke-miterlimit="10"/>
<path d="M62.0801 97.7004L64.9696 97.2714" stroke="#2D1D6A" stroke-width="0.242115" stroke-miterlimit="10"/>
<path d="M61.5039 97.3854L64.3867 96.9563" stroke="#2D1D6A" stroke-width="0.242115" stroke-miterlimit="10"/>
<path d="M23.8867 103.547C23.8867 102.608 24.9125 100.127 28.5797 100.483C36.7722 101.28 44.6027 106.014 44.6027 106.014C44.6027 106.014 46.4799 108.461 45.7424 110.298C44.6899 112.906 41.3579 110.968 28.3718 108.139C24.6175 107.328 23.9404 105.115 23.8867 103.547Z" fill="black"/>
<path d="M57.0196 105.122C56.7469 103.887 56.1445 102.75 55.2765 101.83C51.9579 102.957 47.4393 104.559 44.3017 106.396C43.1352 107.066 43.1687 110.961 43.9263 111.451C44.6839 111.94 50.8249 108.943 53.3122 107.381C54.6396 106.543 56.2955 105.893 57.0196 105.122Z" fill="black"/>
<path d="M40.2716 91.1839C39.9901 95.0724 36.2491 97.5127 32.6221 97.2177C28.9952 96.9227 26.2598 93.584 26.5414 89.7023C26.823 85.8206 30.0075 82.8841 33.6479 83.1456C37.2883 83.407 40.5599 87.3223 40.2716 91.1839Z" fill="#151852"/>
<path d="M23.8672 101.575C23.8672 101.575 26.5019 107.287 30.1021 108.387C33.7023 109.486 35.5057 108.836 36.1359 107.408C36.7661 105.98 36.9873 103.077 36.2029 102.286C35.3286 101.445 34.6311 100.437 34.1514 99.3228C33.6352 98.1697 33.9637 96.1584 34.4933 94.6299C35.023 93.1013 36.2901 93.0812 35.09 92.2566C33.89 91.432 34.4665 90.7414 33.1927 90.8554C31.9189 90.9694 31.2284 90.4532 31.1345 91.6532C30.9804 93.8522 30.9334 96.9428 29.606 98.2703C28.1311 99.7251 26.3276 100.121 23.8672 101.575Z" fill="#EEBCC4"/>
<path d="M35.908 86.2363C35.8034 86.1948 35.6958 86.1612 35.5862 86.1357C35.0311 87.7421 33.9177 89.0958 32.4486 89.9504C32.0547 90.2044 31.6424 90.4285 31.215 90.6209L31.1212 91.8343C31.0782 92.7238 31.3847 93.5949 31.9752 94.2615C32.5656 94.9282 33.3933 95.3376 34.2815 95.4023C35.1697 95.4671 36.048 95.1821 36.7289 94.6081C37.4099 94.0342 37.8394 93.2168 37.926 92.3304L38.1204 89.5951C37.0859 88.7021 36.32 87.5393 35.908 86.2363Z" fill="#EEBCC4"/>
<path d="M36.6729 88.7973C36.5914 88.7915 36.5097 88.8035 36.4332 88.8324C36.3568 88.8614 36.2876 88.9066 36.2305 88.9649C36.2558 89.0026 36.2896 89.0338 36.3292 89.0559C36.3688 89.078 36.4131 89.0905 36.4584 89.0923C36.5477 89.099 36.6373 89.099 36.7266 89.0923C36.8155 89.079 36.9058 89.079 36.9947 89.0923C37.0347 89.0989 37.0755 89.0989 37.1154 89.0923C37.3165 89.0923 37.1154 88.9314 37.0752 88.8979C36.9516 88.8312 36.8133 88.7966 36.6729 88.7973Z" fill="#282E53"/>
<path d="M36.344 90.1649C36.3521 90.1696 36.3614 90.1721 36.3708 90.1721C36.3802 90.1721 36.3895 90.1696 36.3976 90.1649C36.4371 90.1212 36.4859 90.087 36.5405 90.0649C36.5951 90.0429 36.654 90.0335 36.7127 90.0375C36.7703 90.0418 36.8262 90.0591 36.8761 90.0882C36.926 90.1172 36.9687 90.1572 37.001 90.2051C37.006 90.2108 37.0122 90.2154 37.0191 90.2185C37.0261 90.2216 37.0336 90.2232 37.0412 90.2232C37.0488 90.2232 37.0563 90.2216 37.0633 90.2185C37.0702 90.2154 37.0764 90.2108 37.0814 90.2051C37.0896 90.1945 37.094 90.1816 37.094 90.1682C37.094 90.1549 37.0896 90.1419 37.0814 90.1313C37.0384 90.0702 36.9825 90.0193 36.9176 89.9823C36.8527 89.9452 36.7805 89.9228 36.706 89.9168C36.631 89.9099 36.5554 89.9209 36.4855 89.9488C36.4156 89.9768 36.3533 90.021 36.3038 90.0777C36.2943 90.0877 36.2891 90.1009 36.2891 90.1146C36.2891 90.1283 36.2943 90.1415 36.3038 90.1515L36.344 90.1649Z" fill="#282E53"/>
<path d="M34.3723 88.8911C34.2061 88.8277 34.0223 88.8277 33.8561 88.8911C33.7488 88.9514 33.6617 89.0654 33.541 89.0855C33.5588 89.0159 33.5931 88.9515 33.6409 88.8978C33.6887 88.8442 33.7487 88.8028 33.8159 88.7771C33.9497 88.7298 34.0898 88.7027 34.2315 88.6967C34.4126 88.6967 34.8349 88.5425 34.902 88.7905C34.969 89.0386 34.5265 88.938 34.3723 88.8911Z" fill="#282E53"/>
<path d="M33.9306 90.1917H33.9775C34.0671 90.1121 34.1756 90.0567 34.2926 90.0308C34.3539 90.0152 34.4182 90.0157 34.4792 90.0321C34.5403 90.0486 34.596 90.0804 34.6412 90.1247C34.6523 90.1346 34.6666 90.14 34.6815 90.14C34.6963 90.14 34.7106 90.1346 34.7217 90.1247C34.7311 90.1147 34.7364 90.1015 34.7364 90.0878C34.7364 90.0741 34.7311 90.0609 34.7217 90.0509C34.6645 89.99 34.5921 89.9455 34.512 89.9219C34.4318 89.8983 34.3468 89.8966 34.2658 89.9168C34.1312 89.9496 34.0053 90.0114 33.8971 90.0978C33.8914 90.1029 33.8868 90.1091 33.8837 90.116C33.8805 90.1229 33.8789 90.1305 33.8789 90.1381C33.8789 90.1457 33.8805 90.1532 33.8837 90.1601C33.8868 90.1671 33.8914 90.1733 33.8971 90.1783L33.9306 90.1917Z" fill="#282E53"/>
<path d="M35.5723 92.0421C35.6842 92.0598 35.7988 92.0437 35.9015 91.996C36.0042 91.9482 36.0903 91.8709 36.1489 91.774C36.1545 91.7696 36.159 91.764 36.1621 91.7576C36.1652 91.7512 36.1668 91.7442 36.1668 91.7371C36.1668 91.73 36.1652 91.723 36.1621 91.7166C36.159 91.7102 36.1545 91.7046 36.1489 91.7002C36.1389 91.6908 36.1257 91.6855 36.112 91.6855C36.0983 91.6855 36.0851 91.6908 36.0752 91.7002C36.0231 91.7778 35.9501 91.8391 35.8647 91.8771C35.7793 91.915 35.685 91.9281 35.5925 91.9148C35.5849 91.9128 35.577 91.9125 35.5694 91.9138C35.5617 91.9152 35.5544 91.9182 35.5481 91.9227C35.5417 91.9272 35.5364 91.933 35.5324 91.9397C35.5285 91.9464 35.5261 91.9539 35.5254 91.9617C35.5251 91.9756 35.5296 91.9892 35.5381 92.0002C35.5467 92.0112 35.5588 92.0189 35.5723 92.022V92.0421Z" fill="#282E53"/>
<path d="M35.3439 93.9193C35.4666 93.9414 35.593 93.925 35.706 93.8724C35.7154 93.8624 35.7206 93.8492 35.7206 93.8355C35.7206 93.8218 35.7154 93.8086 35.706 93.7986C35.6954 93.7905 35.6824 93.7861 35.6691 93.7861C35.6557 93.7861 35.6428 93.7905 35.6322 93.7986C35.5442 93.8335 35.4494 93.8473 35.3552 93.8392C35.2609 93.8311 35.1698 93.8011 35.0892 93.7517C34.9214 93.6445 34.7831 93.497 34.6869 93.3226C34.6798 93.3102 34.668 93.3011 34.6542 93.2973C34.6404 93.2935 34.6256 93.2954 34.6132 93.3025C34.6007 93.3096 34.5916 93.3214 34.5878 93.3352C34.5841 93.3491 34.5859 93.3638 34.5931 93.3763C34.6971 93.5686 34.8496 93.7304 35.0355 93.8456C35.1315 93.8931 35.2369 93.9183 35.3439 93.9193Z" fill="#F89A7A"/>
<path d="M35.3236 122.6C35.3236 122.727 34.7337 122.875 33.9828 122.935L25.4751 123.605C24.7243 123.659 24.1343 123.605 24.0941 123.478L24.0605 122.995C24.0605 122.868 24.6505 122.714 25.4014 122.653L33.9023 121.983C34.6532 121.929 35.2432 121.983 35.2834 122.11L35.3236 122.6Z" fill="#1A1714"/>
<path d="M39.535 109.225C39.1729 105.202 37.8053 104.13 36.3371 102.326C35.9683 101.87 34.5873 100.268 34.3258 99.8458C37.3293 107.314 29.4787 103.835 26.8037 100.241C22.9555 100.912 21.0582 103.808 21.0783 104.063C21.3599 106.838 24.96 117.981 24.96 117.981C25.0807 119.094 24.189 122.499 23.5253 125.355L35.3113 122.124C36.0756 122.07 37.0142 112.973 37.0142 112.973C37.0051 112.878 36.9894 112.784 36.9672 112.691C37.6712 111.652 39.6556 110.546 39.535 109.225Z" fill="black"/>
<path d="M35.9808 121.386C35.9808 121.386 35.3104 122.794 30.8722 123.163C28.1905 123.384 24.2082 122.493 24.2082 122.493C24.2082 122.493 22.9277 125.845 22.4047 127.239C21.2344 130.394 20.4707 133.686 20.132 137.034C20.0895 137.674 20.1164 138.317 20.2125 138.952L22.6528 158.474L19.0996 166.694C18.5565 167.907 17.6984 169.59 17.5442 170.91L15.7676 191.345L20.655 192.237C23.3366 184.373 28.6598 173.089 31.3146 160.915C32.9449 153.31 33.9827 145.59 34.4187 137.825L38.4412 136.049L38.2334 135.378C38.3651 135.109 38.436 134.813 38.4412 134.513C38.6491 126.716 36.6244 122.566 35.9808 121.386Z" fill="#FF6C37"/>
<path d="M28.1107 128.587C27.946 130.026 27.33 131.377 26.3509 132.445C25.3719 133.513 24.08 134.244 22.6602 134.533" stroke="#2D1D6A" stroke-width="0.498186" stroke-linecap="round" stroke-linejoin="round"/>
<path d="M136.522 82.4593L48.5703 94.2413L52.2324 121.578L140.184 109.796L136.522 82.4593Z" fill="#FFE2D7"/>
<path d="M117.383 89.8533L86.9492 93.9302L87.2252 95.9901L117.659 91.9132L117.383 89.8533Z" fill="#FF6C37"/>
<path d="M122.252 93.6975L87.5391 98.3477L87.7456 99.8893L122.458 95.2391L122.252 93.6975Z" fill="#FF6C37"/>
<path d="M118.182 97.9123L87.875 101.972L88.0833 103.527L118.39 99.4672L118.182 97.9123Z" fill="#FF6C37"/>
<path d="M122.086 100.937L88.3438 105.457L88.5503 106.999L122.293 102.479L122.086 100.937Z" fill="#FF6C37"/>
<path d="M96.3896 108.197L88.8477 109.207L89.0542 110.749L96.5961 109.739L96.3896 108.197Z" fill="#FF6C37"/>
<path d="M84.1144 94.4298L53.4883 98.5325L55.914 116.64L86.5401 112.537L84.1144 94.4298Z" fill="#FF6C37"/>
<path d="M53.4727 98.5452L86.5244 112.55" stroke="white" stroke-width="0.331027" stroke-miterlimit="10"/>
<path d="M84.0983 94.449L55.9004 116.653" stroke="white" stroke-width="0.331027" stroke-miterlimit="10"/>
<path d="M48.357 115.252L55.155 111.685L58.8692 110.693C59.3701 110.479 59.7968 110.123 60.096 109.667L61.4369 107.985C61.4369 108.079 61.5776 107.649 61.5843 107.609L61.8525 106.04C61.8619 105.994 61.8562 105.945 61.8364 105.901C61.8166 105.858 61.7836 105.822 61.7421 105.798C61.7006 105.774 61.6526 105.764 61.6051 105.769C61.5575 105.774 61.5127 105.794 61.4771 105.826L59.5731 107.395C59.3311 107.596 59.0503 107.745 58.748 107.833C58.4458 107.92 58.1287 107.945 57.8166 107.904H57.716C57.6709 107.899 57.6277 107.883 57.5903 107.857C57.553 107.831 57.5227 107.796 57.5021 107.756C57.4815 107.715 57.4713 107.67 57.4724 107.625C57.4734 107.579 57.4857 107.535 57.5082 107.495L58.125 106.309C58.1768 106.206 58.1876 106.087 58.1553 105.976C58.1229 105.865 58.0498 105.771 57.9507 105.712C57.8688 105.667 57.7752 105.647 57.682 105.655C57.5889 105.664 57.5003 105.7 57.4278 105.759L56.2009 106.832C56.0763 106.942 55.9719 107.074 55.8925 107.22L54.2164 110.016L47.4787 112.369C47.2105 112.456 48.2765 115.205 48.357 115.252Z" fill="#EEBCC4"/>
<path d="M59.4805 108.481L61.8001 106.148" stroke="#2D1D6A" stroke-width="0.242115" stroke-miterlimit="10"/>
<path d="M59.7754 108.957L61.733 106.791" stroke="#2D1D6A" stroke-width="0.242115" stroke-miterlimit="10"/>
<path d="M59.7148 109.614L61.6658 107.448" stroke="#2D1D6A" stroke-width="0.242115" stroke-miterlimit="10"/>
<path d="M20.8168 104.646C21.1117 103.754 23.6191 100.308 26.0393 102.098C30.8138 105.731 35.2825 109.75 39.4008 114.112C39.4008 114.112 40.3193 117.055 38.9852 118.524C37.1013 120.609 34.0308 118.289 23.3979 111.149C20.2134 109.017 20.3408 106.141 20.8168 104.646Z" fill="black"/>
<path d="M50.9517 114.649C50.8548 113.389 50.4117 112.18 49.6712 111.156C46.2386 111.826 41.5457 112.785 38.1869 114.186C36.9332 114.702 36.4371 118.551 37.1209 119.14C37.8047 119.73 44.3011 117.592 46.9627 116.385C48.4041 115.708 50.1338 115.319 50.9517 114.649Z" fill="black"/>
<path d="M22.9148 137.718C23.6791 144.306 24.4412 150.894 25.201 157.482C25.3996 158.71 25.4311 159.959 25.2948 161.196C24.9998 163.134 23.9138 164.836 22.9618 166.559C19.1873 173.331 17.7861 181.778 17.4375 189.635" stroke="#2D1D6A" stroke-width="0.498186" stroke-linecap="round" stroke-linejoin="round"/>
<path d="M173.197 160.237H48.4381C48.2354 160.237 48.0411 160.157 47.8977 160.013C47.7544 159.87 47.6739 159.676 47.6739 159.473C47.673 159.372 47.6921 159.272 47.7301 159.178C47.7681 159.085 47.8243 159 47.8953 158.928C47.9664 158.857 48.0509 158.8 48.1441 158.761C48.2373 158.722 48.3372 158.702 48.4381 158.702H173.197C173.298 158.702 173.398 158.722 173.491 158.761C173.584 158.8 173.669 158.857 173.74 158.928C173.811 159 173.867 159.085 173.905 159.178C173.943 159.272 173.962 159.372 173.961 159.473C173.961 159.676 173.881 159.87 173.737 160.013C173.594 160.157 173.399 160.237 173.197 160.237Z" fill="#455A64"/>
<path d="M164.206 164.541H72.7467C72.544 164.541 72.3496 164.461 72.2063 164.318C72.0629 164.174 71.9824 163.98 71.9824 163.777C71.9824 163.575 72.0629 163.38 72.2063 163.237C72.3496 163.093 72.544 163.013 72.7467 163.013H164.206C164.408 163.013 164.603 163.093 164.746 163.237C164.889 163.38 164.97 163.575 164.97 163.777C164.97 163.98 164.889 164.174 164.746 164.318C164.603 164.461 164.408 164.541 164.206 164.541Z" fill="#455A64"/>
<path d="M171.568 138.121L153.676 144.864L163.138 169.97L181.03 163.227L171.568 138.121Z" fill="white"/>
<path d="M171.521 138.247L180.907 163.214L163.155 169.918L153.769 144.952L171.521 138.247ZM171.609 138.053L153.574 144.818L163.087 170.072L181.122 163.274L171.609 138.026V138.053Z" fill="black"/>
<path d="M156.504 146.621L170.576 141.318" stroke="black" stroke-width="0.22619" stroke-miterlimit="10"/>
<path d="M157.355 148.887L171.434 143.584" stroke="black" stroke-width="0.22619" stroke-miterlimit="10"/>
<path d="M158.205 151.153L172.284 145.85" stroke="black" stroke-width="0.22619" stroke-miterlimit="10"/>
<path d="M159.057 153.419L173.135 148.109" stroke="black" stroke-width="0.22619" stroke-miterlimit="10"/>
<path d="M159.916 155.679L173.988 150.375" stroke="black" stroke-width="0.22619" stroke-miterlimit="10"/>
<path d="M160.768 157.945L174.846 152.641" stroke="black" stroke-width="0.22619" stroke-miterlimit="10"/>
<path d="M161.619 160.211L175.698 154.907" stroke="black" stroke-width="0.22619" stroke-miterlimit="10"/>
<path d="M162.471 162.476L176.55 157.173" stroke="black" stroke-width="0.22619" stroke-miterlimit="10"/>
<path d="M163.328 164.736L177.4 159.433" stroke="black" stroke-width="0.22619" stroke-miterlimit="10"/>
<path d="M164.18 167.002L178.259 161.699" stroke="black" stroke-width="0.22619" stroke-miterlimit="10"/>
<path d="M192.048 81.2014C182.729 83.5278 179.981 95.4076 175.462 109.051C173.062 116.338 171.929 122.372 170.87 131.175L167.283 136.665C167.079 136.907 166.93 137.189 166.845 137.493C166.761 137.798 166.743 138.117 166.794 138.429L166.874 141.714C166.753 141.633 167.048 142.237 167.082 142.29L168.309 144.368C168.343 144.437 168.398 144.492 168.466 144.527C168.534 144.561 168.611 144.573 168.686 144.56C168.761 144.547 168.83 144.511 168.883 144.456C168.936 144.401 168.97 144.33 168.979 144.255L169.65 140.56C169.733 140.088 169.913 139.637 170.178 139.237C170.443 138.836 170.788 138.495 171.192 138.234L171.312 138.154C171.371 138.114 171.438 138.089 171.509 138.081C171.579 138.072 171.65 138.082 171.716 138.107C171.782 138.133 171.841 138.175 171.888 138.228C171.934 138.282 171.967 138.346 171.983 138.415L172.438 140.426C172.476 140.598 172.579 140.748 172.725 140.845C172.872 140.941 173.051 140.976 173.223 140.943C173.364 140.92 173.495 140.852 173.595 140.749C173.695 140.647 173.76 140.515 173.779 140.373L174.148 137.919C174.188 137.67 174.188 137.417 174.148 137.168L173.357 132.475C180.544 120.113 184.318 115.044 187.597 104.391C189.749 97.1507 194.65 83.7356 192.048 81.2014Z" fill="#EEBCC4"/>
<path d="M190.218 192.042L189.896 196.225L186.483 196.118C186.483 196.118 186.316 195.589 186.028 195.582C185.739 195.575 185.451 196.085 185.122 196.071L183.292 196.018L176.447 195.77C176.447 195.77 176.32 194.992 176.514 194.73C176.838 194.512 177.199 194.355 177.58 194.268C179.357 193.778 184.452 192.257 185.391 190.4C186.524 188.201 190.218 192.042 190.218 192.042Z" fill="#2D1D6A"/>
<path d="M176.448 194.918C176.4 195.209 176.4 195.506 176.448 195.796L183.293 196.018L185.123 196.071C185.451 196.071 185.793 195.575 186.028 195.582C186.263 195.589 186.484 196.118 186.484 196.118L189.896 196.226L190.077 195.354L176.448 194.918Z" fill="#2D1D6A"/>
<path d="M184.533 191.606L190.144 192.042L191.706 166.566C191.722 164.966 191.496 163.372 191.036 161.84L188.984 155.042L190.399 144.402L188.864 126.381L177.668 116.392C176.85 116.023 178.238 161.779 184.533 191.606Z" fill="black"/>
<path d="M217.009 197.11C217.131 197.59 217.131 198.092 217.009 198.572C217.009 198.572 211.74 199.048 210.064 198.572C209.409 198.302 208.79 197.953 208.22 197.533C208.099 197.459 207.912 197.003 207.798 196.929C207.684 196.856 207.469 197.01 207.295 196.883C207.019 196.688 206.757 196.476 206.511 196.246C206.142 193.564 206.785 192.518 206.785 192.518C206.785 192.518 210.198 190.99 211.002 192.156C212.92 194.878 216.305 195.803 217.009 197.11Z" fill="#2D1D6A"/>
<path d="M217.236 197.814C215.34 198.031 213.432 198.136 211.524 198.129C209.61 197.687 207.849 196.743 206.422 195.394C206.437 195.763 206.475 196.13 206.536 196.494C206.788 196.7 207.055 196.888 207.334 197.057C207.508 197.171 207.629 196.97 207.836 197.104C208.044 197.238 208.145 197.566 208.266 197.64C208.852 198.014 209.48 198.32 210.136 198.552C211.825 198.994 217.135 198.599 217.135 198.599C217.2 198.342 217.233 198.079 217.236 197.814Z" fill="#2D1D6A"/>
<path d="M199.738 121.909L192.115 119.677V119.623L190.962 118.745L177.889 114.89C177.889 114.89 177.346 116.083 177.661 123.605L185.364 129.586C187.523 136.786 189.876 145.361 193.409 152.058C195.169 155.436 196.217 159.14 196.486 162.939C197.378 174.933 206.844 192.438 206.844 192.438L211.986 192.605L199.738 121.909Z" fill="black"/>
<path d="M188.221 131.744C189.985 137.846 192.383 143.746 195.374 149.35C196.146 150.686 196.819 152.077 197.385 153.513C197.95 155.303 198.339 157.145 198.545 159.01C200.152 169.63 202.831 180.059 206.543 190.138" stroke="white" stroke-width="0.498186" stroke-miterlimit="10"/>
<path d="M179.035 98.3307C180.022 98.9473 181.071 99.4574 182.166 99.8525C184.09 100.556 185.518 100.959 185.518 100.959L192.45 81.1277C192.45 81.1277 192.45 80.4237 189.547 81.8383C186.644 83.2529 186.021 83.1792 182.877 88.6096C181.068 91.6157 179.77 94.9005 179.035 98.3307Z" fill="#407BFF"/>
<path d="M200.683 82.0126C200.683 82.0126 191.009 76.8705 184.922 86.9335C178.834 96.9965 177.312 117.954 177.312 117.954L200.067 122.345L203.238 96.4602C203.238 96.4602 203.955 83.5144 200.683 82.0126Z" fill="#407BFF"/>
<path d="M190.399 77.5409C189.825 77.5487 189.261 77.3879 188.777 77.0783C186.94 74.1285 189.534 66.5192 189.534 66.5192L192.739 65.3392L196.621 68.0209V73.1966C196.612 73.8934 196.429 74.577 196.09 75.1856C195.75 75.7942 195.264 76.3088 194.676 76.6828C193.355 77.3511 191.876 77.6477 190.399 77.5409Z" fill="#F8B791"/>
<path d="M191.083 103.627H185.968L184.828 93.2756H192.035L191.083 103.627Z" fill="#ECBB95"/>
<path d="M191.64 100.1L185.344 100.067L184.875 95.4478H192.075L191.64 100.1Z" fill="#5425CD"/>
<path d="M192.276 92.8868H184.6V93.45H192.276V92.8868Z" fill="#5425CD"/>
<path d="M210.151 100.315C208.28 100.738 206.379 101.018 204.466 101.153C202.514 101.284 200.553 101.144 198.64 100.737L200.336 107.717L192.364 103.627L192.579 97.8077L187.276 96.0043C187.198 95.9783 187.116 95.9681 187.034 95.9743C186.952 95.9805 186.872 96.003 186.799 96.0405C186.726 96.078 186.661 96.1296 186.609 96.1925C186.556 96.2553 186.516 96.3281 186.492 96.4065L185.821 98.5921C185.771 98.7551 185.768 98.9288 185.812 99.0935C185.856 99.2582 185.945 99.4074 186.069 99.524L190.407 103.62L190.018 109.145C190.018 109.145 205.753 122.861 207.999 123.17C210.245 123.478 212.021 123.666 211.84 114.535C211.647 109.758 211.083 105.004 210.151 100.315Z" fill="#EEBCC4"/>
<path d="M204.587 101.24C206.518 101.108 208.437 100.828 210.325 100.402C208.985 93.5372 207.081 87.0676 205.116 85.0363C198.747 78.4527 191.084 81.2618 191.44 81.3691H191.487L198.244 98.9006L198.707 100.798C200.636 101.22 202.616 101.369 204.587 101.24Z" fill="#407BFF"/>
<path d="M195.775 89.3269L200.334 107.717" stroke="#2D1D6A" stroke-width="0.498186" stroke-miterlimit="10"/>
<path d="M192.243 103.506C192.135 103.687 191.961 106.711 191.961 106.711L193.838 104.378L192.243 103.506Z" fill="#2D1D6A"/>
<path d="M192.834 123.485C193.363 124.646 194.172 125.659 195.187 126.432C196.202 127.205 197.393 127.715 198.653 127.916" stroke="white" stroke-width="0.498186" stroke-miterlimit="10"/>
<path d="M187.135 97.0367L191.191 98.5586" stroke="#2D1D6A" stroke-width="0.498186" stroke-linecap="round" stroke-linejoin="round"/>
<path d="M187.055 97.7676L190.936 99.6917" stroke="#2D1D6A" stroke-width="0.498186" stroke-linecap="round" stroke-linejoin="round"/>
<path d="M186.799 98.7396L190.681 100.664" stroke="#2D1D6A" stroke-width="0.498186" stroke-linecap="round" stroke-linejoin="round"/>
<path d="M197.137 75.4425L196.997 73.1698L192.8 76.3878L192.659 78.1041L192.451 81.1478C192.491 82.368 193.162 83.5211 194.375 83.6284L194.952 83.7021C196.648 83.6686 197.861 82.3613 197.533 80.8126L197.137 75.4425Z" fill="#EEBCC4"/>
<path d="M190.399 77.5409C189.825 77.5487 189.261 77.3879 188.777 77.0783C186.94 74.1285 189.534 66.5192 189.534 66.5192L192.739 65.3392L196.621 68.0209V73.1966C196.612 73.8934 196.429 74.577 196.09 75.1856C195.75 75.7942 195.264 76.3088 194.676 76.6828C193.355 77.3511 191.876 77.6477 190.399 77.5409Z" fill="#EEBCC4"/>
<path d="M189.435 68.4835C189.543 68.4911 189.647 68.5228 189.741 68.5761C189.835 68.6295 189.916 68.7032 189.978 68.7919C189.937 68.8345 189.886 68.867 189.83 68.8868C189.775 68.9066 189.715 68.9131 189.656 68.9059C189.538 68.891 189.421 68.8663 189.307 68.8321C189.192 68.8156 189.074 68.8156 188.959 68.8321C188.908 68.8389 188.856 68.8389 188.805 68.8321C188.543 68.7517 188.805 68.6176 188.892 68.5773C189.061 68.4987 189.249 68.4663 189.435 68.4835Z" fill="#282E53"/>
<path d="M189.581 70.3272C189.571 70.3315 189.561 70.3337 189.551 70.3337C189.54 70.3337 189.53 70.3315 189.52 70.3272C189.478 70.2635 189.421 70.2101 189.355 70.1708C189.289 70.1316 189.215 70.1076 189.139 70.1005C189.063 70.0935 188.986 70.1035 188.914 70.13C188.841 70.1565 188.776 70.1987 188.723 70.2535C188.71 70.2668 188.693 70.2747 188.675 70.2753C188.656 70.2759 188.639 70.2693 188.625 70.2569C188.612 70.2444 188.604 70.2272 188.604 70.2089C188.603 70.1907 188.61 70.173 188.622 70.1596C188.688 70.0867 188.771 70.0304 188.863 69.9955C188.955 69.9605 189.054 69.9478 189.152 69.9585C189.249 69.9678 189.344 69.9985 189.428 70.0483C189.513 70.0981 189.586 70.1659 189.641 70.2468C189.653 70.2593 189.66 70.2762 189.66 70.2937C189.66 70.3113 189.653 70.3281 189.641 70.3407C189.631 70.3461 189.619 70.3478 189.608 70.3453C189.597 70.3428 189.587 70.3364 189.581 70.3272Z" fill="#282E53"/>
<path d="M192.404 69.0601C192.632 69.007 192.872 69.0429 193.074 69.1607C193.208 69.2613 193.289 69.4289 193.449 69.4758C193.438 69.3832 193.406 69.2945 193.355 69.2166C193.304 69.1386 193.235 69.0736 193.154 69.0266C192.991 68.9354 192.815 68.8698 192.632 68.8322C192.39 68.7719 191.874 68.5104 191.753 68.8322C191.633 69.154 192.189 69.0937 192.404 69.0601Z" fill="#282E53"/>
<path d="M192.719 70.8434C192.702 70.8496 192.683 70.8496 192.666 70.8434C192.564 70.7222 192.432 70.6297 192.284 70.5752C192.207 70.541 192.123 70.5274 192.039 70.5356C191.956 70.5438 191.876 70.5737 191.808 70.6222C191.793 70.6294 191.776 70.6316 191.761 70.6284C191.745 70.6252 191.73 70.6169 191.719 70.6046C191.709 70.5924 191.702 70.577 191.701 70.5607C191.7 70.5445 191.705 70.5284 191.714 70.5149C191.8 70.4478 191.903 70.4056 192.012 70.3926C192.121 70.3796 192.231 70.3964 192.33 70.4412C192.503 70.5032 192.655 70.6096 192.773 70.7496C192.78 70.7559 192.786 70.7636 192.79 70.7723C192.794 70.7809 192.796 70.7903 192.796 70.7998C192.796 70.8094 192.794 70.8188 192.79 70.8274C192.786 70.8361 192.78 70.8438 192.773 70.8501C192.764 70.8533 192.755 70.8543 192.745 70.8531C192.736 70.8519 192.727 70.8486 192.719 70.8434Z" fill="#282E53"/>
<path d="M190.211 72.9217C190.067 72.9149 189.928 72.8679 189.81 72.7862C189.691 72.7044 189.598 72.5911 189.541 72.4591C189.528 72.4466 189.521 72.4298 189.521 72.4122C189.521 72.3947 189.528 72.3778 189.541 72.3653C189.549 72.361 189.559 72.3586 189.569 72.3583C189.578 72.358 189.588 72.3599 189.597 72.3637C189.606 72.3675 189.614 72.3732 189.62 72.3805C189.627 72.3877 189.632 72.3962 189.635 72.4055C189.688 72.5153 189.771 72.6083 189.874 72.6745C189.977 72.7407 190.096 72.7775 190.218 72.7809C190.235 72.7824 190.251 72.79 190.263 72.8023C190.276 72.8145 190.283 72.8307 190.285 72.848C190.286 72.8573 190.285 72.8668 190.282 72.8757C190.279 72.8846 190.274 72.8928 190.268 72.8998C190.261 72.9067 190.254 72.9123 190.245 72.9161C190.236 72.9198 190.227 72.9218 190.218 72.9217H190.211Z" fill="#282E53"/>
<path d="M190.138 75.4089C189.972 75.411 189.809 75.3644 189.669 75.2749C189.657 75.2629 189.649 75.2469 189.647 75.2298C189.645 75.2126 189.649 75.1954 189.659 75.1811C189.668 75.1667 189.683 75.1562 189.699 75.1513C189.716 75.1464 189.733 75.1474 189.749 75.1542C189.857 75.2171 189.978 75.2541 190.102 75.2622C190.227 75.2704 190.352 75.2495 190.467 75.2011C190.706 75.0921 190.916 74.9264 191.077 74.7184C191.09 74.7057 191.108 74.6986 191.127 74.6986C191.146 74.6986 191.164 74.7057 191.177 74.7184C191.184 74.7247 191.19 74.7324 191.194 74.7411C191.198 74.7498 191.2 74.7592 191.2 74.7687C191.2 74.7782 191.198 74.7876 191.194 74.7963C191.19 74.8049 191.184 74.8127 191.177 74.819C191.001 75.0463 190.77 75.2261 190.507 75.3419C190.389 75.3851 190.264 75.4077 190.138 75.4089Z" fill="#F89A7A"/>
<path d="M198.887 63.0933C198.685 63.0201 198.47 62.9877 198.256 62.9981C198.041 63.0085 197.831 63.0613 197.637 63.1536C197.443 63.2459 197.269 63.3758 197.126 63.5358C196.982 63.6958 196.872 63.8826 196.802 64.0855C196.831 63.4043 196.62 62.7345 196.206 62.1929C195.792 61.6513 195.201 61.2724 194.536 61.1222C194.072 61.0577 193.6 61.1209 193.17 61.3053C192.74 61.4896 192.368 61.7879 192.095 62.1681C191.874 62.0608 191.653 61.967 191.425 61.8798C190.983 61.7051 190.512 61.612 190.037 61.6049C189.323 61.5216 188.604 61.7134 188.026 62.1413C187.832 62.2906 187.662 62.4693 187.523 62.6709C186.978 63.1561 186.636 63.8287 186.564 64.5548C186.437 67.2365 189.601 67.8197 191.338 68.175C192.518 68.4097 193.832 68.6242 194.824 68.7449C195.199 69.4469 195.528 70.1725 195.809 70.9171L196.48 74.0345C197.231 73.4043 198.739 72.7875 199.275 71.9696C200.241 70.5973 200.748 68.9546 200.724 67.2767C200.797 65.5939 200.12 63.5357 198.887 63.0933Z" fill="#2D1D6A"/>
<path d="M196.374 73.4983C196.847 73.3018 197.256 72.9766 197.554 72.5597C197.738 72.3241 197.837 72.0338 197.837 71.7351C197.837 71.4363 197.738 71.146 197.554 70.9104C197.172 70.5417 196.374 70.6758 195.67 71.3797" fill="white"/>
<path d="M196.374 73.4983C196.847 73.3018 197.256 72.9766 197.554 72.5597C197.738 72.3241 197.837 72.0338 197.837 71.7351C197.837 71.4363 197.738 71.146 197.554 70.9104C197.172 70.5417 196.374 70.6758 195.67 71.3797" stroke="#2D1D6A" stroke-width="0.498186" stroke-miterlimit="10"/>
<path d="M197.586 80.8326C200.435 81.845 203.425 82.9512 205.383 85.2574C206.777 86.9067 207.501 89.0118 208.065 91.0968C208.876 94.0936 209.868 97.2647 210.136 100.369" stroke="#2D1D6A" stroke-width="0.498186" stroke-miterlimit="10"/>
<path d="M188.57 142.806C188.157 147.189 187.354 151.526 186.17 155.766C189.522 165.373 189.18 175.664 188.563 185.807" stroke="white" stroke-width="0.498186" stroke-miterlimit="10"/>
<path d="M216.318 136.022L221.011 137.986" stroke="#407BFF" stroke-width="0.498186" stroke-miterlimit="10"/>
<path d="M220.307 87.2218C221.782 86.4509 222.278 86.2497 223.753 85.4788" stroke="#407BFF" stroke-width="0.498186" stroke-miterlimit="10"/>
<path d="M235.773 110.224C237.436 110.224 237.972 110.291 239.635 110.311" stroke="#407BFF" stroke-width="0.498186" stroke-miterlimit="10"/>
<path d="M168.672 139.166L168.283 144.161" stroke="#2D1D6A" stroke-width="0.368224" stroke-miterlimit="10"/>
<path d="M167.86 138.911L167.732 143.349" stroke="#2D1D6A" stroke-width="0.368224" stroke-miterlimit="10"/>
<path d="M167.284 138.093L167.156 142.525" stroke="#2D1D6A" stroke-width="0.368224" stroke-miterlimit="10"/>
<path d="M208.441 54.1432C210.212 56.3288 212.63 57.896 215.348 58.6189C218.066 59.3419 220.944 59.1832 223.566 58.1657C224.947 57.5959 226.402 56.0137 225.483 54.8136C223.78 54.3347 221.973 54.3631 220.285 54.8955C218.597 55.4278 217.101 56.441 215.98 57.8108C214.86 59.1807 214.163 60.8477 213.975 62.6076C213.788 64.3675 214.118 66.1439 214.924 67.7192C215.883 69.6299 218.062 71.2858 220.053 70.5015" stroke="#407BFF" stroke-width="0.498186" stroke-linecap="round" stroke-linejoin="round"/>
<path d="M122.366 16.0968C122.184 17.3269 122.266 18.5816 122.607 19.7774" stroke="#407BFF" stroke-width="0.498186" stroke-miterlimit="10"/>
<path d="M26.0449 5.74548C26.9211 7.06083 27.9297 8.28291 29.0551 9.39258" stroke="#407BFF" stroke-width="0.498186" stroke-miterlimit="10"/>
<path d="M70.0312 0.0737305C70.3933 0.831306 71.3319 4.09626 71.3721 3.07051" stroke="#2D1D6A" stroke-width="0.498186" stroke-miterlimit="10"/>
<path d="M0.0742188 139.005C1.20667 138.441 2.47575 138.208 3.73473 138.335" stroke="#407BFF" stroke-width="0.498186" stroke-miterlimit="10"/>
<path d="M3.74023 88.6699C4.74991 88.8431 5.78728 88.7507 6.75044 88.4017" stroke="#407BFF" stroke-width="0.498186" stroke-miterlimit="10"/>
<path d="M75.5635 146.393L73.4785 147.948" stroke="#407BFF" stroke-width="0.498186" stroke-miterlimit="10"/>
<path d="M46.916 183.032C48.5384 182.111 50.0233 180.967 51.3274 179.633" stroke="#407BFF" stroke-width="0.498186" stroke-miterlimit="10"/>
<path d="M180.143 27.1253L182.999 22.5597" stroke="#407BFF" stroke-width="0.498186" stroke-miterlimit="10"/>
<path d="M166.834 19.831C166.021 19.8008 165.218 20.0127 164.526 20.44C163.834 20.8672 163.284 21.4905 162.947 22.2307C162.61 22.9709 162.501 23.7945 162.633 24.597C162.765 25.3996 163.132 26.1448 163.688 26.738C164.245 27.3312 164.965 27.7457 165.757 27.9288C166.55 28.1119 167.379 28.0554 168.139 27.7664C168.899 27.4774 169.556 26.969 170.027 26.3057C170.498 25.6425 170.761 24.8543 170.783 24.0413C170.801 23.5051 170.714 22.9706 170.525 22.4684C170.337 21.9661 170.051 21.5062 169.684 21.1149C169.317 20.7236 168.876 20.4087 168.387 20.1884C167.898 19.9681 167.37 19.8466 166.834 19.831ZM168.376 24.0078L165.634 25.4827C165.634 25.4827 165.634 25.4827 165.594 25.4827C165.592 25.4693 165.592 25.4558 165.594 25.4425L165.681 22.2848C165.678 22.2692 165.678 22.2534 165.681 22.2378H165.721L168.403 23.8871C168.403 23.8871 168.436 23.8871 168.436 23.9273L168.376 24.0078Z" fill="#407BFF"/>
</g>
<defs>
<clipPath id="clip0_1108_12492">
<rect width="239.635" height="200" fill="white"/>
</clipPath>
</defs>
</svg>
