<svg width="339" height="250" viewBox="0 0 339 250" fill="none" xmlns="http://www.w3.org/2000/svg">
<g clip-path="url(#clip0_1281_20503)">
<path d="M167.676 250C253.014 250 322.195 245.961 322.195 240.979C322.195 235.996 253.014 231.957 167.676 231.957C82.3384 231.957 13.1582 235.996 13.1582 240.979C13.1582 245.961 82.3384 250 167.676 250Z" fill="#F5F5F5"/>
<path d="M330.387 131.838H5.53906V135.926H330.387V131.838Z" fill="#455A64"/>
<path d="M24.8887 134.771V232.268H27.4229L30.6107 134.771H24.8887Z" fill="#455A64"/>
<path d="M54.8066 137.959V228.283H57.3409L60.5287 137.959H54.8066Z" fill="#455A64"/>
<path opacity="0.5" d="M54.8066 137.959V228.283H57.3409L60.5287 137.959H54.8066Z" fill="black"/>
<path d="M312.193 134.771V232.268H309.666L306.471 134.771H312.193Z" fill="#455A64"/>
<path d="M282.285 137.959V228.283H279.75L276.562 137.959H282.285Z" fill="#455A64"/>
<path opacity="0.5" d="M282.285 137.959V228.283H279.75L276.562 137.959H282.285Z" fill="black"/>
<path d="M317.97 140.302H18.9115L12.2969 135.926H324.585L317.97 140.302Z" fill="#455A64"/>
<path opacity="0.5" d="M317.97 140.302H18.9115L12.2969 135.926H324.585L317.97 140.302Z" fill="black"/>
<path d="M26.8965 119.302V122.49C26.8964 123.019 27.1056 123.526 27.4783 123.901L30.0045 126.427C30.2283 126.649 30.5013 126.816 30.8015 126.913C31.3223 128.034 32.1526 128.983 33.1946 129.648C34.2365 130.313 35.4468 130.666 36.6829 130.667H37.6312C38.4888 130.672 39.3389 130.507 40.1322 130.181C40.9255 129.855 41.6462 129.375 42.2526 128.769C42.859 128.163 43.339 127.442 43.6647 126.649C43.9905 125.855 44.1555 125.005 44.1502 124.148V116.712H30.2197V117.318H28.8888C28.3618 117.318 27.8563 117.527 27.4828 117.899C27.1094 118.271 26.8986 118.775 26.8965 119.302ZM28.4904 119.302C28.4903 119.25 28.5007 119.199 28.5208 119.151C28.5409 119.103 28.5704 119.06 28.6075 119.023C28.6446 118.987 28.6886 118.958 28.7369 118.939C28.7852 118.92 28.8369 118.911 28.8888 118.912H30.2197V124.148C30.2197 124.219 30.2197 124.291 30.2197 124.363L28.6258 122.769C28.5876 122.733 28.5571 122.69 28.5366 122.642C28.516 122.594 28.5057 122.542 28.5063 122.49L28.4904 119.302Z" fill="#C7C7C7"/>
<path opacity="0.5" d="M26.8965 119.302V122.49C26.8964 123.019 27.1056 123.526 27.4783 123.901L30.0045 126.427C30.2283 126.649 30.5013 126.816 30.8015 126.913C31.3223 128.034 32.1526 128.983 33.1946 129.648C34.2365 130.313 35.4468 130.666 36.6829 130.667H37.6312C38.4888 130.672 39.3389 130.507 40.1322 130.181C40.9255 129.855 41.6462 129.375 42.2526 128.769C42.859 128.163 43.339 127.442 43.6647 126.649C43.9905 125.855 44.1555 125.005 44.1502 124.148V116.712H30.2197V117.318H28.8888C28.3618 117.318 27.8563 117.527 27.4828 117.899C27.1094 118.271 26.8986 118.775 26.8965 119.302ZM28.4904 119.302C28.4903 119.25 28.5007 119.199 28.5208 119.151C28.5409 119.103 28.5704 119.06 28.6075 119.023C28.6446 118.987 28.6886 118.958 28.7369 118.939C28.7852 118.92 28.8369 118.911 28.8888 118.912H30.2197V124.148C30.2197 124.219 30.2197 124.291 30.2197 124.363L28.6258 122.769C28.5876 122.733 28.5571 122.69 28.5366 122.642C28.516 122.594 28.5057 122.542 28.5063 122.49L28.4904 119.302Z" fill="white"/>
<path d="M47.4493 131.742H27.4142C26.4982 131.661 25.6455 131.24 25.0234 130.563H49.8082C49.1954 131.235 48.3547 131.656 47.4493 131.742Z" fill="#C7C7C7"/>
<path opacity="0.5" d="M47.4493 131.742H27.4142C26.4982 131.661 25.6455 131.24 25.0234 130.563H49.8082C49.1954 131.235 48.3547 131.656 47.4493 131.742Z" fill="white"/>
<path d="M316.99 121.988C316.886 118.8 314.48 118.051 311.34 117.692V116.537C311.336 116.403 311.279 116.276 311.182 116.184C311.085 116.091 310.956 116.041 310.822 116.043H299.967C299.9 116.041 299.834 116.052 299.771 116.075C299.708 116.099 299.651 116.135 299.602 116.181C299.553 116.227 299.514 116.282 299.486 116.343C299.459 116.404 299.443 116.47 299.441 116.537V131.607H311.348V129.957C314.488 129.607 316.894 125.16 316.99 121.988ZM311.34 128.013V119.645C313.651 119.98 315.245 120.298 314.902 122.61C314.631 124.458 313.181 127.758 311.34 128.013Z" fill="#C7C7C7"/>
<g opacity="0.5">
<path d="M316.99 121.988C316.886 118.8 314.48 118.051 311.34 117.692V116.537C311.336 116.403 311.279 116.276 311.182 116.184C311.085 116.091 310.956 116.041 310.822 116.043H299.967C299.9 116.041 299.834 116.052 299.771 116.075C299.708 116.099 299.651 116.135 299.602 116.181C299.553 116.227 299.514 116.282 299.486 116.343C299.459 116.404 299.443 116.47 299.441 116.537V131.607H311.348V129.957C314.488 129.607 316.894 125.16 316.99 121.988ZM311.34 128.013V119.645C313.651 119.98 315.245 120.298 314.902 122.61C314.631 124.458 313.181 127.758 311.34 128.013Z" fill="white"/>
</g>
<path d="M178.664 95.6895H160.266V133.063H178.664V95.6895Z" fill="#BDC1C3"/>
<path d="M186.967 133.734H152.121L160.61 126.259H178.462L186.967 133.734Z" fill="#BDC1C3"/>
<path d="M263.602 121.64H176.465L192.21 133.781H279.332L263.602 121.64Z" fill="#455A64"/>
<path opacity="0.4" d="M263.602 121.64H176.465L192.21 133.781H279.332L263.602 121.64Z" fill="#FF6C37"/>
<path d="M178.478 133.781L176.465 121.64L192.21 133.781H178.478Z" fill="#455A64"/>
<path opacity="0.5" d="M178.478 133.781L176.465 121.64L192.21 133.781H178.478Z" fill="black"/>
<path d="M248.309 7.22543H89.7168C88.0535 7.22543 86.7051 8.57385 86.7051 10.2372V107.487C86.7051 109.15 88.0535 110.498 89.7168 110.498H248.309C249.972 110.498 251.321 109.15 251.321 107.487V10.2372C251.321 8.57385 249.972 7.22543 248.309 7.22543Z" fill="#BDC1C3"/>
<path d="M245.172 13.6861H92.6816V103.679H245.172V13.6861Z" fill="#FFF0EB"/>
<path d="M240.334 32.1933H163.387V85.1718H240.334V32.1933Z" fill="white"/>
<path d="M240.334 32.1933H163.387V37.0464H240.334V32.1933Z" fill="#FF6C37"/>
<path d="M177.494 61.4992L190.071 68.459C190.551 68.6903 190.981 69.0137 191.335 69.4109C191.55 69.7224 191.659 70.0941 191.647 70.472C191.648 70.7363 191.596 70.9981 191.494 71.2419C191.393 71.4858 191.243 71.7068 191.055 71.892C190.88 72.078 190.67 72.2265 190.437 72.3285C190.203 72.4305 189.952 72.4837 189.697 72.485C189.138 72.4216 188.602 72.2235 188.136 71.9077L171.907 62.8881C171.648 62.7586 171.429 62.5594 171.277 62.3127C171.124 62.066 171.043 61.7816 171.043 61.4914C171.043 61.2013 171.124 60.9169 171.277 60.6702C171.429 60.4235 171.648 60.2242 171.907 60.0948L188.136 51.0752C188.606 50.7726 189.141 50.5854 189.697 50.529C189.953 50.5252 190.208 50.5746 190.444 50.674C190.68 50.7733 190.893 50.9206 191.07 51.1064C191.26 51.2876 191.41 51.5056 191.512 51.7472C191.614 51.9887 191.665 52.2486 191.663 52.5108C191.677 52.889 191.567 53.2614 191.351 53.572C190.996 53.9691 190.567 54.2926 190.087 54.5239L177.494 61.4992Z" fill="#FF6C37"/>
<path d="M209.858 48.5005L197.374 75.3252C197.174 75.8128 196.882 76.2578 196.515 76.636C196.178 76.9002 195.758 77.0382 195.33 77.0262C195.075 77.0301 194.821 76.9823 194.585 76.8858C194.349 76.7892 194.135 76.6459 193.956 76.4644C193.773 76.3016 193.625 76.1023 193.523 75.8793C193.421 75.6563 193.367 75.4144 193.363 75.1692C193.408 74.622 193.568 74.0903 193.831 73.6087L206.315 46.7995C206.51 46.3214 206.791 45.8826 207.142 45.5044C207.485 45.2369 207.909 45.0938 208.344 45.0986C208.597 45.095 208.847 45.1429 209.081 45.2395C209.314 45.3361 209.525 45.4793 209.702 45.6604C209.878 45.8236 210.019 46.0214 210.116 46.2416C210.213 46.4618 210.263 46.6995 210.263 46.94C210.241 47.4831 210.102 48.0151 209.858 48.5005Z" fill="#FF6C37"/>
<path d="M225.51 61.4992L212.933 54.5238C212.458 54.284 212.03 53.9617 211.669 53.5719C211.453 53.2613 211.343 52.8889 211.357 52.5108C211.354 52.2486 211.406 51.9887 211.508 51.7471C211.61 51.5056 211.76 51.2875 211.95 51.1063C212.13 50.9208 212.346 50.7739 212.585 50.6747C212.823 50.5754 213.08 50.5258 213.338 50.5289C213.894 50.5882 214.428 50.7751 214.899 51.0751L231.128 60.0947C231.388 60.2241 231.606 60.4234 231.759 60.6701C231.911 60.9168 231.992 61.2012 231.992 61.4914C231.992 61.7815 231.911 62.0659 231.759 62.3126C231.606 62.5593 231.388 62.7586 231.128 62.888L214.899 71.9076C214.431 72.2202 213.897 72.418 213.338 72.485C213.075 72.4882 212.813 72.4356 212.571 72.3307C212.329 72.2258 212.112 72.071 211.934 71.8764C211.749 71.6923 211.603 71.4733 211.504 71.2322C211.405 70.991 211.355 70.7326 211.357 70.472C211.345 70.0941 211.455 69.7224 211.669 69.4108C212.03 69.021 212.458 68.6987 212.933 68.4589L225.51 61.4992Z" fill="#FF6C37"/>
<path d="M104.151 21.9875H98.9395V27.1995H104.151V21.9875Z" fill="#FF6C37"/>
<path d="M104.151 35.4701H98.9395V40.6822H104.151V35.4701Z" fill="#FF6C37"/>
<path d="M104.151 48.9684H98.9395V54.1805H104.151V48.9684Z" fill="#FF6C37"/>
<path d="M104.151 62.4511H98.9395V67.6631H104.151V62.4511Z" fill="#FF6C37"/>
<path d="M104.151 75.9339H98.9395V81.1459H104.151V75.9339Z" fill="#FF6C37"/>
<path d="M104.151 89.4164H98.9395V94.6284H104.151V89.4164Z" fill="#FF6C37"/>
<path d="M129.868 23.1582H109.098V24.7187H129.868V23.1582Z" fill="#FF6C37"/>
<path d="M121.332 36.6874H113.936V38.2479H121.332V36.6874Z" fill="#FF6C37"/>
<path d="M153.526 51.8552H146.129V53.4157H153.526V51.8552Z" fill="#FF6C37"/>
<path d="M121.332 63.8866H113.936V65.4471H121.332V63.8866Z" fill="#FF6C37"/>
<path d="M132.006 63.8866H124.609V65.4471H132.006V63.8866Z" fill="#FF6C37"/>
<path d="M143.507 51.8552H124.609V53.4157H143.507V51.8552Z" fill="#FF6C37"/>
<path d="M148.048 63.8866H135.611V65.4471H148.048V63.8866Z" fill="#FF6C37"/>
<path d="M142.977 92.8024H135.58V94.3628H142.977V92.8024Z" fill="#FF6C37"/>
<path d="M153.635 92.8024H146.238V94.3628H153.635V92.8024Z" fill="#FF6C37"/>
<path d="M161.389 92.8024H157.254V94.3628H161.389V92.8024Z" fill="#FF6C37"/>
<path d="M148.064 36.6874H125.047V38.2479H148.064V36.6874Z" fill="#FF6C37"/>
<path d="M132.006 77.9777H124.609V79.5381H132.006V77.9777Z" fill="#FF6C37"/>
<path d="M138.746 77.9777H134.471V79.5381H138.746V77.9777Z" fill="#FF6C37"/>
<path d="M154.102 77.9777H142.023V79.5381H154.102V77.9777Z" fill="#FF6C37"/>
<path d="M31.3135 40.9821C31.5127 50.625 41.5302 58.7139 53.6994 59.0327C57.4367 59.1587 61.1566 58.4707 64.6015 57.0165C65.8288 60.0448 68.4109 62.6428 75.8145 63.8064C68.0921 57.8373 72.3159 52.7847 74.0771 48.3458C74.9883 46.4078 75.4435 44.2868 75.408 42.1456C75.2088 32.4947 65.1913 24.4217 53.022 24.095C40.8528 23.7682 31.1222 31.3391 31.3135 40.9821Z" fill="#407BFF"/>
<path d="M53.1017 30.8849H63.709V31.6818H53.1017V30.8849Z" fill="white"/>
<path d="M57.4608 37.7943H61.2383V38.5913H57.4608V37.7943Z" fill="white"/>
<path d="M41.0194 45.5406H44.7969V46.3375H41.0194V45.5406Z" fill="white"/>
<path d="M57.4608 51.6849H61.2383V52.4819H57.4608V51.6849Z" fill="white"/>
<path d="M52.0174 51.6849H55.7949V52.4819H52.0174V51.6849Z" fill="white"/>
<path d="M46.144 45.5406H55.7949V46.3375H46.144V45.5406Z" fill="white"/>
<path d="M43.8183 51.6849H50.1699V52.4819H43.8183V51.6849Z" fill="white"/>
<path d="M43.8174 37.7943H55.5723V38.5913H43.8174V37.7943Z" fill="white"/>
<path d="M206.853 227.973L201.043 226.235L202.398 211.994L208.207 213.731L206.853 227.973Z" fill="#7F3E3B"/>
<path opacity="0.2" d="M208.686 210.512L202.876 208.782L202.119 216.76L207.993 217.851L208.686 210.512Z" fill="black"/>
<path d="M241.248 140.015C241.248 140.015 201.298 143.386 202.278 160.735C203.075 174.936 205.187 171.095 201.051 213.333L211.1 213.891C211.1 213.891 221.325 179.351 219.946 165.628C231.207 165.628 256.988 166.616 260.733 156.455C262.592 151.296 263.496 145.841 263.403 140.357L241.248 140.015Z" fill="#407BFF"/>
<path d="M212.694 215.803L199.561 213.556L199.776 207.746L213.371 210.767L212.694 215.803Z" fill="#263238"/>
<path d="M200.453 223.844L207.163 225.175C207.285 225.204 207.392 225.277 207.463 225.38C207.534 225.483 207.563 225.609 207.546 225.733L206.988 232.109C206.978 232.259 206.938 232.406 206.871 232.54C206.803 232.675 206.71 232.794 206.596 232.892C206.481 232.99 206.349 233.065 206.205 233.111C206.062 233.157 205.911 233.174 205.761 233.161C203.434 232.651 202.334 232.276 199.385 231.686C197.568 231.328 193.416 230.459 190.89 230.172C188.364 229.885 188.667 226.937 189.758 226.785C194.668 226.14 197.457 225.343 199.361 224.115C199.676 223.886 200.068 223.789 200.453 223.844Z" fill="#263238"/>
<path d="M197.441 224.984C197.969 225.056 198.503 225.072 199.034 225.032C199.061 225.033 199.088 225.025 199.109 225.009C199.131 224.993 199.147 224.97 199.154 224.944C199.166 224.921 199.172 224.895 199.172 224.868C199.172 224.842 199.166 224.816 199.154 224.793C198.987 224.625 197.48 223.199 196.707 223.358C196.618 223.373 196.534 223.412 196.465 223.471C196.396 223.53 196.345 223.607 196.317 223.693C196.254 223.818 196.225 223.958 196.234 224.098C196.242 224.238 196.287 224.373 196.365 224.49C196.647 224.787 197.032 224.964 197.441 224.984ZM198.724 224.769C197.616 224.769 196.835 224.641 196.604 224.315C196.557 224.238 196.532 224.15 196.532 224.06C196.532 223.97 196.557 223.881 196.604 223.805C196.616 223.762 196.64 223.723 196.672 223.692C196.704 223.662 196.744 223.64 196.787 223.629C197.162 223.55 198.102 224.187 198.756 224.777L198.724 224.769Z" fill="#407BFF"/>
<path d="M199.041 225.04H199.105C199.128 225.031 199.148 225.017 199.165 224.999C199.182 224.981 199.194 224.96 199.201 224.936C199.201 224.864 199.639 223.167 199.129 222.489C199.067 222.399 198.984 222.324 198.886 222.273C198.789 222.222 198.681 222.195 198.571 222.195C198.452 222.177 198.33 222.201 198.226 222.262C198.122 222.323 198.041 222.417 197.997 222.529C197.75 223.159 198.436 224.554 198.97 225.008C198.978 225.018 198.989 225.027 199.002 225.032C199.014 225.038 199.028 225.04 199.041 225.04ZM198.627 222.481C198.738 222.504 198.837 222.567 198.906 222.657C199.135 223.287 199.16 223.973 198.978 224.617C198.491 224.073 198.235 223.362 198.26 222.633C198.26 222.553 198.348 222.466 198.555 222.474L198.627 222.481Z" fill="#407BFF"/>
<path d="M180.953 230.188L175.422 227.702L179.247 214.058L184.778 216.544L180.953 230.188Z" fill="#7F3E3B"/>
<path opacity="0.2" d="M185.71 213.03L180.179 210.544L178.211 217.58L183.742 220.067L185.71 213.03Z" fill="black"/>
<path d="M229.357 140.015C229.094 140.015 184.569 144.597 184.513 159.699C184.418 184.675 177.285 213.301 177.285 213.301L186.051 217.66C186.051 217.66 201.377 186.627 201.145 167.158C213.394 163.644 245.081 169.549 248.826 159.396C251.894 151.092 250.237 140.015 250.237 140.015H229.357Z" fill="#407BFF"/>
<path d="M187.486 218.927L175.691 213.62L176.64 208.79L189.08 213.086L187.486 218.927Z" fill="#263238"/>
<path d="M175.979 223.119L182.705 224.514C182.831 224.556 182.938 224.641 183.007 224.755C183.076 224.869 183.101 225.004 183.079 225.135L182.553 232.109C182.458 232.866 181.916 233.384 181.334 233.264C179.007 232.73 177.907 232.316 174.959 231.67C173.142 231.304 168.193 230.076 165.698 229.447C163.204 228.817 163.762 225.622 164.901 225.598C169.834 225.526 173.03 224.721 174.927 223.342C175.077 223.234 175.248 223.159 175.429 223.12C175.61 223.082 175.798 223.082 175.979 223.119Z" fill="#263238"/>
<path d="M173.253 224.625C173.721 224.368 174.161 224.064 174.568 223.717C174.588 223.698 174.604 223.674 174.612 223.648C174.62 223.621 174.622 223.593 174.616 223.565C174.608 223.539 174.592 223.516 174.571 223.499C174.549 223.482 174.523 223.472 174.496 223.47C174.265 223.47 172.209 223.167 171.675 223.765C171.616 223.833 171.575 223.914 171.556 224.002C171.536 224.089 171.539 224.18 171.563 224.267C171.587 224.405 171.647 224.534 171.736 224.642C171.826 224.75 171.942 224.832 172.073 224.88C172.485 224.946 172.905 224.855 173.253 224.625ZM174.153 223.693C173.285 224.37 172.56 224.697 172.185 224.586C172.101 224.548 172.029 224.489 171.974 224.415C171.92 224.341 171.885 224.254 171.874 224.163C171.861 224.122 171.859 224.078 171.869 224.036C171.879 223.994 171.9 223.955 171.93 223.924C172.169 223.637 173.253 223.613 174.114 223.693H174.153Z" fill="#407BFF"/>
<path d="M174.528 223.717L174.584 223.677C174.598 223.657 174.605 223.633 174.605 223.609C174.605 223.585 174.598 223.561 174.584 223.542C174.544 223.486 173.883 221.852 173.078 221.605C172.974 221.572 172.864 221.564 172.756 221.58C172.648 221.597 172.546 221.638 172.456 221.701C172.349 221.758 172.265 221.85 172.217 221.961C172.169 222.073 172.161 222.197 172.193 222.314C172.361 222.976 173.739 223.685 174.449 223.733L174.528 223.717ZM172.671 221.9C172.724 221.877 172.781 221.865 172.839 221.865C172.896 221.865 172.953 221.877 173.006 221.9C173.567 222.27 173.997 222.809 174.233 223.438C173.517 223.289 172.886 222.869 172.472 222.266C172.424 222.203 172.472 222.075 172.616 221.964L172.671 221.9Z" fill="#407BFF"/>
<path d="M244.484 91.8317C245.656 94.35 246.62 96.7727 247.585 99.2911C248.549 101.809 249.402 104.328 250.191 106.91C250.98 109.492 251.665 112.138 252.215 114.879C252.815 117.728 253.114 120.631 253.107 123.542C253.099 125.251 252.844 126.95 252.35 128.586C252.038 129.588 251.59 130.543 251.019 131.424C250.682 131.919 250.301 132.383 249.88 132.81L249.537 133.145C249.346 133.304 249.139 133.48 248.939 133.615C248.602 133.844 248.245 134.042 247.871 134.205C247.317 134.443 246.74 134.627 246.15 134.755C245.684 134.851 245.213 134.92 244.739 134.962C243.93 135.01 243.118 135.01 242.309 134.962C240.871 134.891 239.439 134.731 238.021 134.484C232.732 133.521 227.55 132.037 222.553 130.053L223.708 125.662C228.769 126.267 233.933 126.913 238.802 127.136C240.014 127.136 241.193 127.192 242.293 127.136C242.782 127.106 243.27 127.045 243.751 126.953C244.15 126.881 244.492 126.738 244.373 126.746C244.293 126.77 244.217 126.807 244.15 126.857C244.069 126.904 243.994 126.96 243.927 127.024C243.953 126.981 243.977 126.936 243.998 126.889C244.1 126.661 244.181 126.423 244.237 126.18C244.412 125.304 244.485 124.411 244.453 123.518C244.332 121.236 243.993 118.97 243.44 116.752C242.899 114.361 242.197 112.034 241.432 109.667C240.667 107.3 239.838 104.933 238.93 102.574C238.021 100.216 237.065 97.8486 236.125 95.6251L244.484 91.8317Z" fill="#7F3E3B"/>
<path d="M225.906 126.857L220.623 123.885L217.969 129.607C217.969 129.607 224.145 132.181 225.444 130.571L225.906 126.857Z" fill="#7F3E3B"/>
<path d="M216.337 124.968L213.922 128.794L217.962 129.567L220.616 123.845L216.337 124.968Z" fill="#7F3E3B"/>
<path d="M232.163 96.3743C231.151 98.9165 230.091 101.347 228.975 103.81C227.859 106.272 226.744 108.695 225.564 111.118C223.189 116.05 220.528 120.84 217.595 125.462C216.798 126.642 216.001 127.813 215.108 128.985C214.662 129.575 214.168 130.156 213.642 130.754C213.355 131.057 213.124 131.336 212.789 131.647L212.311 132.109L212.04 132.364C211.281 133.013 210.389 133.486 209.426 133.751C208.919 133.895 208.402 134.004 207.88 134.077C207.029 134.179 206.171 134.214 205.314 134.181C203.834 134.135 202.359 133.988 200.899 133.743C195.496 132.788 190.204 131.287 185.104 129.264L186.267 124.865C191.423 125.486 196.691 126.148 201.648 126.355C202.817 126.399 203.987 126.383 205.154 126.307C205.624 126.269 206.091 126.194 206.549 126.084C206.698 126.046 206.842 125.993 206.979 125.925C207.027 125.925 206.979 125.869 206.764 126.004C206.684 126.046 206.612 126.099 206.549 126.164L206.629 126.068L206.852 125.821C206.995 125.678 207.171 125.439 207.338 125.247C207.665 124.833 208 124.387 208.334 123.9C208.996 122.952 209.641 121.9 210.279 120.832C211.554 118.696 212.741 116.425 213.905 114.13C215.068 111.835 216.184 109.492 217.284 107.133C219.475 102.431 221.619 97.5697 223.659 92.8677L232.163 96.3743Z" fill="#7F3E3B"/>
<path d="M188.531 126.012L183.24 122.976L180.586 128.698C180.586 128.698 186.762 131.28 188.069 129.67L188.531 126.012Z" fill="#7F3E3B"/>
<path d="M178.96 124.132L176.537 127.949L180.578 128.722L183.231 123L178.96 124.132Z" fill="#7F3E3B"/>
<path d="M245.846 68.0989L242.467 72.0119L237.311 77.3434L237.701 78.3077C238.099 79.2934 238.33 80.3383 238.386 81.3998C238.506 83.5356 238.299 85.3447 234.928 86.7951C234.928 86.7951 231.389 91.4173 239.805 90.1342C248.221 88.8512 249.488 84.484 249.488 84.484C245.774 81.8302 245.551 73.0081 245.846 68.0989Z" fill="#7F3E3B"/>
<path d="M228.689 63.6839C228.689 64.2099 228.426 64.6561 228.075 64.6721C227.725 64.688 227.446 64.2736 227.438 63.7476C227.43 63.2216 227.709 62.7754 228.051 62.7594C228.394 62.7435 228.681 63.1579 228.689 63.6839Z" fill="#263238"/>
<path d="M230.449 61.7234C230.398 61.723 230.348 61.7096 230.303 61.6845C230.259 61.6595 230.221 61.6235 230.194 61.58C229.988 61.2419 229.707 60.9555 229.372 60.7428C229.038 60.5301 228.659 60.3966 228.266 60.3527C228.184 60.3486 228.107 60.3132 228.051 60.2539C227.994 60.1945 227.963 60.1158 227.963 60.0339C227.963 59.9928 227.971 59.952 227.987 59.9142C228.004 59.8764 228.027 59.8423 228.057 59.8139C228.087 59.7856 228.122 59.7636 228.161 59.7494C228.199 59.7351 228.241 59.7289 228.282 59.7311C228.778 59.7752 229.258 59.9352 229.681 60.1981C230.105 60.4611 230.461 60.8198 230.72 61.2452C230.763 61.3155 230.777 61.3995 230.759 61.4796C230.741 61.5598 230.693 61.63 230.625 61.6756C230.571 61.706 230.511 61.7224 230.449 61.7234Z" fill="#263238"/>
<path d="M228.497 64.0027C228.068 65.4373 227.451 66.8092 226.664 68.083C226.991 68.2676 227.355 68.3776 227.73 68.4052C228.105 68.4327 228.481 68.3771 228.832 68.2424L228.497 64.0027Z" fill="#630F0F"/>
<path d="M246.324 61.0301C246.013 67.5331 246.156 71.3903 242.929 74.833C241.891 75.9765 240.561 76.8147 239.081 77.2569C237.602 77.6992 236.03 77.7287 234.535 77.3422C233.04 76.9558 231.679 76.1681 230.599 75.0643C229.52 73.9605 228.762 72.5826 228.409 71.0795C226.942 65.3176 227.707 55.6508 233.987 52.7499C235.339 52.0805 236.843 51.78 238.348 51.8789C239.852 51.9777 241.304 52.4724 242.556 53.3128C243.809 54.1533 244.816 55.3096 245.478 56.6648C246.14 58.02 246.431 59.5259 246.324 61.0301Z" fill="#7F3E3B"/>
<path d="M249.272 63.2057C248.334 65.9641 246.903 68.5293 245.049 70.7766L236.585 72.3705C236.585 72.3705 229.899 69.5733 231.684 64.967C230.552 64.0106 230.975 61.054 231.772 59.4282C232.413 59.9552 233.223 60.2333 234.053 60.2113C234.883 60.1894 235.677 59.8689 236.29 59.3087C236.546 59.7097 236.892 60.0462 237.299 60.2919C237.707 60.5375 238.166 60.6858 238.64 60.7252C239.114 60.7645 239.591 60.6938 240.034 60.5186C240.476 60.3434 240.873 60.0685 241.191 59.7151C241.554 60.0661 241.993 60.3283 242.474 60.4812C242.955 60.634 243.465 60.6734 243.964 60.5962C244.462 60.519 244.936 60.3273 245.349 60.0362C245.761 59.7451 246.1 59.3624 246.34 58.9182C246.86 59.2434 247.469 59.3968 248.081 59.3568C248.693 59.3167 249.277 59.0852 249.75 58.6951L249.87 58.5835C249.985 60.1488 249.781 61.7211 249.272 63.2057Z" fill="#263238"/>
<path opacity="0.1" d="M249.272 63.2057C248.334 65.9641 246.903 68.5293 245.049 70.7766L236.585 72.3705C236.585 72.3705 229.899 69.5733 231.684 64.967C230.552 64.0106 230.975 61.054 231.772 59.4282C232.413 59.9552 233.223 60.2333 234.053 60.2113C234.883 60.1894 235.677 59.8689 236.29 59.3087C236.546 59.7097 236.892 60.0462 237.299 60.2919C237.707 60.5375 238.166 60.6858 238.64 60.7252C239.114 60.7645 239.591 60.6938 240.034 60.5186C240.476 60.3434 240.873 60.0685 241.191 59.7151C241.554 60.0661 241.993 60.3283 242.474 60.4812C242.955 60.634 243.465 60.6734 243.964 60.5962C244.462 60.519 244.936 60.3273 245.349 60.0362C245.761 59.7451 246.1 59.3624 246.34 58.9182C246.86 59.2434 247.469 59.3968 248.081 59.3568C248.693 59.3167 249.277 59.0852 249.75 58.6951L249.87 58.5835C249.985 60.1488 249.781 61.7211 249.272 63.2057Z" fill="white"/>
<path d="M250.492 55.316C250.722 55.8548 250.785 56.4498 250.674 57.0248C250.564 57.5998 250.284 58.1287 249.87 58.5436L249.751 58.6552C249.278 59.0454 248.694 59.2769 248.081 59.3169C247.469 59.357 246.86 59.2035 246.34 58.8784C246.1 59.3226 245.761 59.7052 245.349 59.9964C244.937 60.2875 244.463 60.4792 243.964 60.5564C243.465 60.6336 242.955 60.5942 242.474 60.4413C241.993 60.2885 241.554 60.0263 241.192 59.6753C240.873 60.0286 240.477 60.3036 240.034 60.4788C239.592 60.654 239.115 60.7246 238.641 60.6853C238.166 60.646 237.708 60.4977 237.3 60.252C236.892 60.0063 236.547 59.6699 236.291 59.2688C235.678 59.829 234.884 60.1495 234.054 60.1715C233.224 60.1934 232.414 59.9154 231.772 59.3884C231.433 59.1257 231.16 58.7872 230.975 58.4002C230.931 58.3155 230.894 58.2276 230.864 58.1372C230.795 58.2149 230.721 58.2869 230.64 58.3524C230.243 58.67 229.756 58.8567 229.248 58.8866C228.74 58.9166 228.236 58.7884 227.803 58.5197C227.461 58.2822 227.187 57.9594 227.008 57.5834C226.829 57.2074 226.752 56.7912 226.783 56.376C226.792 56.2031 226.822 56.0319 226.871 55.8659C226.808 55.986 226.727 56.0961 226.632 56.1927C226.442 56.376 226.217 56.5197 225.971 56.6155C225.725 56.7112 225.462 56.7571 225.198 56.7504C224.934 56.7438 224.674 56.6847 224.433 56.5766C224.192 56.4685 223.975 56.3137 223.795 56.1209C223.611 55.8429 223.486 55.5304 223.426 55.2024C223.367 54.8744 223.375 54.5378 223.449 54.213C223.524 53.8881 223.663 53.5817 223.86 53.3124C224.056 53.0431 224.305 52.8165 224.592 52.6463C225.046 52.3815 225.564 52.2439 226.09 52.2478C226.918 52.2599 227.721 52.5394 228.377 53.0448C228.124 52.5424 228.056 51.9668 228.185 51.4193C228.315 50.8719 228.633 50.3875 229.084 50.0515C229.535 49.7155 230.091 49.5493 230.652 49.5823C231.214 49.6152 231.746 49.8451 232.155 50.2316C232.066 49.8248 232.101 49.4008 232.256 49.0143C232.411 48.6279 232.678 48.2968 233.023 48.0639C234.123 47.4264 235.956 47.9762 236.849 49.0441C236.849 49.0441 238.076 46.0795 240.196 46.4142C240.658 46.478 242.834 47.4423 242.778 48.2233C242.79 48.2731 242.79 48.3249 242.778 48.3747C242.807 48.3136 242.842 48.255 242.881 48.1994C243.116 47.8831 243.425 47.6296 243.78 47.4614C244.136 47.2932 244.528 47.2154 244.921 47.2351C245.773 47.2979 246.606 47.5195 247.376 47.8886C249.026 48.566 250.779 49.3231 251.735 50.8293C252.692 52.3355 252.206 54.8379 250.492 55.316Z" fill="#263238"/>
<path d="M235.415 65.5965C235.18 67.2015 234.443 68.691 233.311 69.8522C231.868 71.2309 230.641 69.8522 230.625 67.7562C230.625 65.8595 231.334 62.8551 233.016 62.2972C234.697 61.7393 235.733 63.5006 235.415 65.5965Z" fill="#7F3E3B"/>
<path d="M260.916 86.7473C260.318 85.1534 257.529 83.5595 255.816 83.5595H254.684C252.401 83.5796 250.121 83.7259 247.854 83.9978C243.299 84.5018 238.776 85.2628 234.306 86.2771C232.25 86.819 230.266 87.5044 228.688 88.0941C226.679 88.891 225.5 89.425 225.5 89.425C225.5 89.425 227.7 104.073 228.839 118.625C229.469 126.73 229.206 134.771 229.413 140.301H263.41C264.582 133.655 264.399 127.861 264.494 115.859C264.542 108.631 263.37 93.3061 260.916 86.7473Z" fill="black"/>
<path opacity="0.2" d="M228.098 110.496C228.353 113.548 228.616 116.752 228.895 119.956C232.879 114.138 235.079 98.2232 235.079 98.2232L228.098 110.496Z" fill="black"/>
<path d="M223.573 90.4929C218.703 93.2343 213.93 107.229 213.93 107.229L225.087 115.636C229.342 111.612 235.567 101.626 236.244 97.6334C237.328 91.5448 231.375 86.1257 223.573 90.4929Z" fill="black"/>
<path d="M213.945 233.304C213.945 233.99 213.742 234.66 213.361 235.23C212.98 235.8 212.438 236.244 211.805 236.507C211.172 236.769 210.475 236.838 209.802 236.704C209.13 236.57 208.512 236.24 208.027 235.755C207.542 235.271 207.212 234.653 207.078 233.98C206.945 233.308 207.013 232.611 207.276 231.977C207.538 231.344 207.982 230.803 208.552 230.422C209.123 230.041 209.793 229.837 210.478 229.837C211.398 229.837 212.28 230.203 212.93 230.853C213.58 231.503 213.945 232.385 213.945 233.304Z" fill="#263238"/>
<path d="M265.697 233.304C265.697 233.99 265.901 234.66 266.281 235.23C266.662 235.8 267.204 236.244 267.837 236.507C268.471 236.769 269.168 236.838 269.84 236.704C270.513 236.57 271.13 236.24 271.615 235.755C272.1 235.271 272.43 234.653 272.564 233.98C272.698 233.308 272.629 232.611 272.367 231.977C272.104 231.344 271.66 230.803 271.09 230.422C270.52 230.041 269.85 229.837 269.164 229.837C268.245 229.837 267.363 230.203 266.713 230.853C266.062 231.503 265.697 232.385 265.697 233.304Z" fill="#263238"/>
<path d="M236.426 232.156C236.426 232.842 236.629 233.512 237.01 234.082C237.391 234.653 237.932 235.097 238.566 235.359C239.199 235.622 239.896 235.69 240.569 235.557C241.241 235.423 241.859 235.093 242.344 234.608C242.829 234.123 243.159 233.505 243.293 232.833C243.426 232.16 243.358 231.463 243.095 230.83C242.833 230.196 242.389 229.655 241.818 229.274C241.248 228.893 240.578 228.69 239.892 228.69C238.973 228.69 238.091 229.055 237.441 229.705C236.791 230.355 236.426 231.237 236.426 232.156Z" fill="#263238"/>
<path d="M238.817 227.917V221.215H228.887C226.938 221.212 224.993 221.393 223.077 221.756L204.588 225.343C204.174 225.423 203.805 225.657 203.555 225.998C203.304 226.339 203.192 226.761 203.239 227.181C203.286 227.601 203.49 227.988 203.809 228.264C204.129 228.541 204.541 228.687 204.963 228.674L238.817 227.917Z" fill="#263238"/>
<path d="M238.816 227.917V221.214H248.754C250.697 221.226 252.634 221.421 254.54 221.796L275.324 225.112C275.739 225.192 276.108 225.426 276.358 225.767C276.608 226.108 276.721 226.53 276.674 226.95C276.626 227.37 276.423 227.757 276.103 228.033C275.784 228.31 275.372 228.456 274.95 228.443L238.816 227.917Z" fill="#263238"/>
<path d="M244.961 190.524H232.664V221.215H244.961V190.524Z" fill="#263238"/>
<path d="M243.2 176.251H234.434V190.524H243.2V176.251Z" fill="#263238"/>
<path opacity="0.5" d="M234.434 180.443L243.2 182.643V176.251H234.434V180.443Z" fill="black"/>
<path d="M210.478 143.959H206.023V162.966H210.478V143.959Z" fill="#263238"/>
<path d="M232.816 176.251V93.6169C232.815 92.0709 233.146 90.5426 233.785 89.1349C234.424 87.7272 235.357 86.4729 236.522 85.4562L242.412 80.3C244.395 78.5605 246.946 77.6054 249.584 77.6144H270.854L281.23 88.7077V176.251H232.816Z" fill="#407BFF"/>
<path d="M201.146 160.265H249.68V176.251H193.232C192.22 176.25 191.227 175.981 190.352 175.472C189.477 174.962 188.752 174.231 188.251 173.352C187.749 172.473 187.489 171.477 187.496 170.465C187.503 169.453 187.778 168.461 188.291 167.589C189.611 165.354 191.491 163.503 193.746 162.219C196 160.934 198.551 160.261 201.146 160.265Z" fill="#407BFF"/>
<path opacity="0.7" d="M281.23 88.7077V176.251H193.232C192.22 176.25 191.227 175.981 190.352 175.472C189.477 174.962 188.752 174.231 188.251 173.352C187.749 172.473 187.489 171.477 187.496 170.465C187.503 169.453 187.778 168.461 188.291 167.589C189.612 165.355 191.492 163.504 193.746 162.22C196.001 160.935 198.551 160.262 201.146 160.265H225.588C227.514 160.265 229.36 159.5 230.722 158.138C232.083 156.777 232.848 154.93 232.848 153.005V93.6169C232.847 92.0709 233.177 90.5426 233.817 89.1349C234.456 87.7272 235.389 86.4729 236.554 85.4562L242.443 80.3C244.427 78.5605 246.978 77.6054 249.616 77.6144H270.886L281.23 88.7077Z" fill="white"/>
<path d="M239.893 176.251V93.6169C239.894 92.0712 240.225 90.5436 240.864 89.1362C241.503 87.7288 242.435 86.4742 243.598 85.4562L249.488 80.3C251.471 78.5605 254.022 77.6054 256.66 77.6144H273.244C274.726 77.6132 276.192 77.916 277.552 78.5041C278.912 79.0922 280.136 79.9529 281.15 81.0332L285.39 85.5359C287.279 87.5508 288.33 90.2093 288.33 92.9714V167.971C288.331 169.059 288.118 170.137 287.702 171.143C287.285 172.148 286.675 173.062 285.905 173.831C285.135 174.6 284.221 175.21 283.215 175.625C282.209 176.041 281.131 176.253 280.042 176.251H239.893Z" fill="#407BFF"/>
<path opacity="0.5" d="M239.893 176.251V93.6169C239.894 92.0712 240.225 90.5436 240.864 89.1362C241.503 87.7288 242.435 86.4742 243.598 85.4562L249.488 80.3C251.471 78.5605 254.022 77.6054 256.66 77.6144H273.244C274.726 77.6132 276.192 77.916 277.552 78.5041C278.912 79.0922 280.136 79.9529 281.15 81.0332L285.39 85.5359C287.279 87.5508 288.33 90.2093 288.33 92.9714V167.971C288.331 169.059 288.118 170.137 287.702 171.143C287.285 172.148 286.675 173.062 285.905 173.831C285.135 174.6 284.221 175.21 283.215 175.625C282.209 176.041 281.131 176.253 280.042 176.251H239.893Z" fill="white"/>
<path d="M223.38 149.761C213.576 146.334 202.9 146.334 193.096 149.761C192.113 150.128 191.029 150.125 190.047 149.751C189.066 149.377 188.255 148.658 187.765 147.729C186.856 145.808 188.076 143.322 190.546 142.453C201.996 138.452 214.464 138.452 225.914 142.453C228.385 143.314 229.604 145.808 228.696 147.729C228.206 148.654 227.398 149.37 226.42 149.744C225.442 150.118 224.362 150.124 223.38 149.761Z" fill="#407BFF"/>
<path opacity="0.7" d="M223.38 149.761C213.576 146.334 202.9 146.334 193.096 149.761C192.113 150.128 191.029 150.125 190.047 149.751C189.066 149.377 188.255 148.658 187.765 147.729C186.856 145.808 188.076 143.322 190.546 142.453C201.996 138.452 214.464 138.452 225.914 142.453C228.385 143.314 229.604 145.808 228.696 147.729C228.206 148.654 227.398 149.37 226.42 149.744C225.442 150.118 224.362 150.124 223.38 149.761Z" fill="white"/>
<path d="M99.5309 70.6891C99.3635 71.1593 99.483 71.6295 99.7939 71.7331C100.105 71.8367 100.487 71.5498 100.647 71.0796C100.806 70.6094 100.694 70.1313 100.392 70.0277C100.089 69.924 99.6982 70.2109 99.5309 70.6891Z" fill="#263238"/>
<path d="M99.4424 71.1752C99.5074 72.8162 99.7942 74.4407 100.295 76.0047C99.8936 76.1181 99.4724 76.1441 99.0599 76.0809C98.6475 76.0177 98.2534 75.8667 97.9043 75.6381L99.4424 71.1752Z" fill="#A02724"/>
<path d="M98.7646 67.4854C98.7937 67.4975 98.8248 67.5037 98.8563 67.5037C98.8877 67.5037 98.9189 67.4975 98.9479 67.4854C99.2983 67.3738 99.6696 67.3445 100.033 67.3998C100.397 67.4551 100.743 67.5935 101.044 67.8042C101.075 67.8274 101.111 67.8442 101.149 67.8536C101.187 67.863 101.226 67.8647 101.264 67.8588C101.303 67.8529 101.34 67.8394 101.373 67.819C101.406 67.7987 101.435 67.772 101.458 67.7404C101.502 67.6864 101.526 67.6189 101.526 67.5492C101.526 67.4795 101.502 67.4119 101.458 67.3579C101.084 67.0797 100.649 66.8948 100.188 66.8186C99.7282 66.7424 99.2565 66.777 98.8124 66.9196C98.7397 66.9467 98.6802 67.0006 98.6461 67.0703C98.6119 67.14 98.6059 67.2201 98.6292 67.2942C98.6426 67.3373 98.6663 67.3765 98.6982 67.4084C98.7301 67.4403 98.7693 67.464 98.8124 67.4774L98.7646 67.4854Z" fill="#263238"/>
<path d="M82.0528 72.4265C82.9454 76.961 83.83 85.2731 80.6582 88.3014C80.6582 88.3014 81.9014 92.8998 90.333 92.8998C99.6014 92.8998 94.764 88.3014 94.764 88.3014C89.7034 87.0901 90.5163 83.3365 91.4009 79.8141L82.0528 72.4265Z" fill="#B55B52"/>
<path d="M84.1164 64.202C82.4588 70.1312 81.1837 73.5182 83.0804 77.5109C85.9254 83.5278 95.8712 84.3088 98.5808 77.4232C100.645 71.0477 102.685 64.3774 97.7839 60.0978C96.7122 59.1488 95.416 58.4892 94.0181 58.1813C92.6202 57.8735 91.1668 57.9276 89.7957 58.3386C88.4245 58.7497 87.181 59.5039 86.183 60.53C85.1849 61.5561 84.4654 62.82 84.0925 64.202H84.1164Z" fill="#B55B52"/>
<path d="M77.6948 66.1784C77.2644 63.9948 77.1529 61.604 78.2447 59.6595C79.3365 57.715 81.9743 56.5275 83.8949 57.6592C84.519 56.3446 85.4422 55.1944 86.5905 54.3006C87.7387 53.4067 89.0803 52.794 90.5078 52.5115C91.9353 52.229 93.4091 52.2845 94.8112 52.6736C96.2134 53.0627 97.5051 53.7746 98.5829 54.7523C99.6606 55.73 100.495 56.9465 101.018 58.3042C101.541 59.662 101.74 61.1234 101.597 62.5716C101.455 64.0198 100.975 65.4145 100.197 66.6442C99.419 67.8738 98.3639 68.9043 97.1161 69.6531C97.5545 68.0194 98.0007 66.3936 98.439 64.7599C98.0475 67.0346 96.8406 69.0886 95.0441 70.5377L95.841 65.6525C95.7158 66.8056 95.3236 67.9138 94.6956 68.889C94.0675 69.8642 93.221 70.6797 92.2229 71.2709L93.1554 67.852C92.683 69.4242 92.0805 70.9543 91.3543 72.4264C90.5573 73.3429 90.0473 79.3359 87.3058 79.5271C77.886 81.4 78.6989 71.2788 77.6948 66.1784Z" fill="#263238"/>
<path d="M90.3741 69.0156C90.215 70.5357 90.5564 72.0663 91.3463 73.3748C92.4063 75.0802 93.9603 74.4268 94.5341 72.6815C95.0441 71.0876 95.0999 68.3382 93.6256 67.2304C92.1512 66.1227 90.5972 67.1906 90.3741 69.0156Z" fill="#B55B52"/>
<path d="M67.9075 126.459C66.8954 126.124 62.1537 123.685 61.3966 124.124C63.5881 118.545 64.9509 117.677 65.9471 114.122C66.2244 113.24 66.2727 112.301 66.0872 111.395C65.9018 110.489 65.4888 109.645 64.8872 108.942C63.4845 107.061 62.9984 106.113 60.6714 106.344C57.4836 111.7 53.4272 118.298 51.8493 124.347C51.3153 126.379 50.9328 127.925 52.1441 129.647C53.212 131.161 55.1805 131.766 57.0294 131.934C61.4683 132.332 68.059 131.519 67.9713 128.881C67.9235 127.216 67.9075 126.459 67.9075 126.459Z" fill="#B55B52"/>
<path d="M67.1583 126.26L70.9198 125.04L70.5851 131.838C70.5851 131.838 67.5727 131.942 65.9629 129.925L67.1583 126.26Z" fill="#B55B52"/>
<path d="M75.6226 124.929L75.0807 130.539L70.5859 131.838L70.9206 125.04L75.6226 124.929Z" fill="#B55B52"/>
<path d="M118.752 131.089C118.752 131.089 113.484 126.961 106.615 113.413C105.595 111.516 104.622 109.596 103.682 107.667C102.742 105.738 101.849 103.81 100.988 101.762L109.133 98.2552C110.807 101.905 113.421 105.675 115.269 109.301C117.118 112.927 121.478 121.518 122.027 122.315C122.298 122.729 122.593 123.072 122.872 123.454L123.295 124.012L118.043 130.085L118.752 131.089Z" fill="#B55B52"/>
<path d="M125.646 104.647L124.052 102.702L123.303 99.7933L128.22 95.2268C128.972 96.183 129.641 97.2014 130.22 98.2711C130.347 98.5171 130.407 98.7917 130.395 99.0681L130.196 104.192L125.646 104.647Z" fill="#B55B52"/>
<path d="M123.326 96.6533L127.007 93.3142L128.171 95.2667L123.254 99.8092L123.326 96.6533Z" fill="#B55B52"/>
<path d="M125.717 103.244C125.844 102.694 125.956 103.77 126.322 103.34C127.406 102.033 128.984 101.897 129.925 103.34C130.865 104.782 130.06 118.976 128.562 123.431C127.566 126.387 127.032 128.746 124.481 130.547C123.451 131.342 122.196 131.794 120.895 131.838C120.247 131.846 119.611 131.669 119.06 131.327C118.509 130.985 118.068 130.494 117.787 129.91C116.99 128.053 119.843 121.359 120.847 119.199C123.995 112.401 124.21 109.667 125.717 103.244Z" fill="#B55B52"/>
<path d="M115.175 102.63L121.686 102.567C122.615 102.626 123.546 102.479 124.411 102.136C125.472 101.517 126.264 100.526 126.635 99.355C127.559 96.9641 127.639 94.398 127.998 91.8956C128.356 89.3932 129.121 86.7633 131.018 85.0818C127.559 85.544 121.455 84.4602 118.785 87.2893C117.382 88.7955 114.904 102.63 115.175 102.63Z" fill="#407BFF"/>
<path opacity="0.5" d="M115.175 102.63L121.686 102.567C122.615 102.626 123.546 102.479 124.411 102.136C125.472 101.517 126.264 100.526 126.635 99.355C127.559 96.9641 127.639 94.398 127.998 91.8956C128.356 89.3932 129.121 86.7633 131.018 85.0818C127.559 85.544 121.455 84.4602 118.785 87.2893C117.382 88.7955 114.904 102.63 115.175 102.63Z" fill="white"/>
<path d="M126.315 92.9556C125.94 93.0592 125.693 94.39 125.773 94.7726L126.139 95.4261L126.881 98.6138L129.367 97.2431L127.128 93.2584C127.042 93.128 126.917 93.0283 126.771 92.9739C126.625 92.9194 126.465 92.913 126.315 92.9556Z" fill="#B55B52"/>
<path d="M70.155 89.441C64.3374 90.7719 55.7305 108.902 55.7305 108.902L67.4056 116.872C70.7679 112.074 73.8031 107.055 76.4907 101.849C79.9414 94.6291 76.1002 88.0783 70.155 89.441Z" fill="#407BFF"/>
<path d="M78.6506 89.8794C77.9812 88.421 77.2559 86.7554 78.7622 86.2374C80.4278 85.6636 89.5447 85.0738 92.6847 86.1497C93.096 86.2613 93.4812 86.4531 93.8181 86.714C94.1551 86.9749 94.4373 87.2998 94.6483 87.6701C94.8593 88.0403 94.9952 88.4487 95.048 88.8716C95.1007 89.2945 95.0695 89.7236 94.9559 90.1344V90.1902L78.6506 89.8794Z" fill="#263238"/>
<path opacity="0.2" d="M73.7492 99.9128L65.4531 115.533L67.4056 116.872C67.4056 116.872 71.1672 111.636 73.7811 107.109L73.7492 99.9128Z" fill="black"/>
<path d="M105.515 97.4184C106.774 103.794 103.833 118.936 103.865 143.641H70.6968C70.4817 138.652 74.1157 126.825 69.5971 103.268C69.4536 102.471 69.3899 89.6004 70.1549 89.4649C73.3668 88.9035 76.6073 88.5204 79.8616 88.3174C84.5596 88.0464 89.2694 88.0464 93.9674 88.3174C95.888 88.5166 98.9084 89.704 100.821 90.3894C103.794 91.4414 104.909 94.2864 105.515 97.4184Z" fill="#407BFF"/>
<path opacity="0.2" d="M96.748 103.754C97.6087 108.99 101.044 115.907 104.462 119.972C104.598 116.999 104.901 113.891 104.893 111.508L96.748 103.754Z" fill="black"/>
<path d="M94.3578 95.8803C93.5608 101.754 105.116 116.744 105.116 116.744L116.744 108.775C116.744 108.775 113.516 100.511 108.089 95.0913C101.929 88.8912 95.2902 89.5048 94.3578 95.8803Z" fill="#407BFF"/>
<path d="M132.389 225.877H138.589L139.999 211.508H133.799L132.389 225.877Z" fill="#B55B52"/>
<path opacity="0.2" d="M139.902 212.384L139.185 219.788H132.977L133.702 212.384H139.902Z" fill="black"/>
<path d="M107.93 225.877H114.13L117.246 211.508H111.046L107.93 225.877Z" fill="#B55B52"/>
<g opacity="0.2">
<path d="M110.911 212.281H117.111L115.501 219.685H109.301L110.911 212.281Z" fill="black"/>
</g>
<path d="M138.938 223.095H132.172C132.032 223.112 131.902 223.176 131.805 223.278C131.707 223.38 131.649 223.513 131.638 223.653L130.411 230.746C130.34 231.021 130.369 231.312 130.491 231.569C130.614 231.825 130.822 232.03 131.08 232.149C131.154 232.16 131.23 232.16 131.304 232.149C133.742 232.101 137.273 231.91 140.341 231.91C143.935 231.91 147.035 232.157 151.243 232.157C153.793 232.157 154.502 228.825 153.435 228.531C148.581 227.16 144.62 227.016 140.429 223.661C140.011 223.308 139.485 223.108 138.938 223.095Z" fill="#263238"/>
<path d="M143.863 225.399C144.66 225.399 145.457 225.287 145.688 224.928C145.754 224.834 145.789 224.721 145.789 224.606C145.789 224.49 145.754 224.378 145.688 224.283C145.582 224.115 145.417 223.993 145.226 223.94C144.19 223.661 142.038 224.896 141.934 224.952C141.907 224.966 141.885 224.988 141.872 225.016C141.859 225.043 141.856 225.074 141.863 225.104C141.867 225.133 141.88 225.16 141.9 225.181C141.92 225.202 141.946 225.217 141.974 225.223C142.597 225.341 143.229 225.4 143.863 225.399ZM144.851 224.195H145.13C145.19 224.207 145.246 224.232 145.296 224.268C145.345 224.304 145.387 224.349 145.417 224.402C145.521 224.586 145.489 224.673 145.417 224.721C145.13 225.128 143.56 225.136 142.405 224.968C143.165 224.559 143.994 224.294 144.851 224.187V224.195Z" fill="#407BFF"/>
<path d="M141.99 225.223H142.054C142.803 224.889 144.286 223.55 144.166 222.832C144.166 222.665 144.023 222.466 143.624 222.418C143.335 222.396 143.05 222.488 142.827 222.673C142.03 223.319 141.871 224.992 141.863 225.064C141.859 225.089 141.862 225.115 141.872 225.139C141.882 225.163 141.898 225.184 141.919 225.199C141.94 225.214 141.965 225.223 141.99 225.223ZM143.505 222.713H143.592C143.855 222.713 143.871 222.848 143.879 222.88C143.951 223.303 142.939 224.355 142.174 224.809C142.239 224.107 142.517 223.443 142.971 222.904C143.122 222.783 143.31 222.716 143.505 222.713Z" fill="#407BFF"/>
<path d="M114.568 223.095H107.603C107.464 223.112 107.335 223.177 107.239 223.279C107.142 223.381 107.085 223.513 107.077 223.653L105.85 230.746C105.783 231.027 105.817 231.322 105.947 231.58C106.077 231.838 106.294 232.042 106.559 232.157C106.625 232.164 106.692 232.164 106.758 232.157C109.189 232.109 110.376 231.918 113.436 231.918C115.325 231.918 117.74 232.165 120.346 232.165C122.952 232.165 123.287 228.833 122.219 228.538C117.437 227.184 117.11 225.351 115.58 223.534C115.453 223.392 115.297 223.279 115.122 223.203C114.947 223.128 114.758 223.091 114.568 223.095Z" fill="#263238"/>
<path d="M118.211 226.188C118.474 226.224 118.741 226.206 118.998 226.137C119.254 226.067 119.493 225.946 119.701 225.781C119.774 225.68 119.814 225.559 119.814 225.434C119.814 225.31 119.774 225.189 119.701 225.088C119.654 225 119.588 224.924 119.508 224.865C119.428 224.806 119.336 224.765 119.239 224.745C118.33 224.53 116.617 225.701 116.545 225.749C116.523 225.767 116.505 225.79 116.494 225.817C116.482 225.843 116.478 225.872 116.482 225.901C116.486 225.929 116.499 225.954 116.519 225.974C116.539 225.994 116.565 226.008 116.593 226.012C117.124 226.13 117.667 226.189 118.211 226.188ZM119.008 225.008H119.183C119.239 225.019 119.293 225.041 119.34 225.074C119.386 225.107 119.425 225.15 119.454 225.199C119.59 225.446 119.51 225.542 119.454 225.582C119.191 225.925 117.924 225.933 116.992 225.781C117.591 225.37 118.274 225.097 118.992 224.984L119.008 225.008Z" fill="#407BFF"/>
<path d="M116.672 226.02C117.318 225.67 118.561 224.315 118.426 223.629C118.405 223.52 118.347 223.421 118.261 223.349C118.175 223.278 118.067 223.239 117.955 223.239C117.844 223.228 117.732 223.239 117.625 223.272C117.519 223.305 117.42 223.359 117.334 223.43C116.617 224.02 116.465 225.821 116.457 225.885C116.456 225.912 116.462 225.938 116.475 225.962C116.487 225.986 116.506 226.006 116.529 226.02H116.672ZM117.924 223.51H117.987C118.179 223.51 118.195 223.621 118.202 223.661C118.282 224.068 117.485 225.096 116.848 225.582C116.897 224.876 117.152 224.2 117.581 223.637C117.677 223.556 117.798 223.511 117.924 223.51Z" fill="#407BFF"/>
<path d="M93.9283 143.625C93.9283 143.625 123.295 155.754 129.368 165.07C125.758 188.771 119.279 215.772 119.279 215.772H108.233C108.251 204.089 109.208 192.427 111.094 180.898C112.688 151.929 60.5526 181.902 70.6817 143.625H93.9283Z" fill="black"/>
<path opacity="0.3" d="M114.234 163.62C112.177 163.741 110.128 163.978 108.097 164.329L101.666 165.317C104.984 168.105 108.485 170.666 112.146 172.984C114.369 174.395 116.792 175.749 119.414 175.757C122.362 175.757 130.364 171.98 129.041 168.051C127.718 164.122 117.581 163.477 114.234 163.62Z" fill="black"/>
<path d="M103.873 143.625C103.873 143.625 131.017 147.131 145.983 155.651C150.59 158.273 149.968 166.696 149.824 172.243C149.504 187.127 146.647 201.848 141.377 215.772H132.148C132.148 215.772 132.619 200.733 132.308 176.467C132.212 169.191 117.525 166.792 103.172 165.947C97.0938 165.565 91.2435 163.492 86.2812 159.961C81.3188 156.431 77.4418 151.584 75.0877 145.968L74.1074 143.625H103.873Z" fill="black"/>
<path d="M143.617 213.301C143.665 213.301 143.02 217.66 143.02 217.66H130.269L129.918 213.771L143.617 213.301Z" fill="#407BFF"/>
<path d="M120.346 213.301C120.394 213.301 119.175 217.66 119.175 217.66H106.424L106.655 213.771L120.346 213.301Z" fill="#407BFF"/>
<path d="M86.0776 165.62L76.9447 232.969L75.2871 232.738L82.34 165.11L86.0776 165.62Z" fill="#407BFF"/>
<path opacity="0.4" d="M85.7509 168.027L76.9447 232.969L75.2871 232.738L82.0372 168.019L85.7509 168.027Z" fill="black"/>
<path d="M118.219 168.027H66.418C66.418 167.251 66.5709 166.482 66.8681 165.764C67.1653 165.047 67.6008 164.395 68.1499 163.846C68.699 163.297 69.3509 162.861 70.0683 162.564C70.7858 162.267 71.5547 162.114 72.3312 162.114H112.306C113.082 162.114 113.851 162.267 114.569 162.564C115.286 162.861 115.938 163.297 116.487 163.846C117.036 164.395 117.472 165.047 117.769 165.764C118.066 166.482 118.219 167.251 118.219 168.027Z" fill="#407BFF"/>
<path opacity="0.7" d="M118.219 168.027H66.418C66.418 167.251 66.5709 166.482 66.8681 165.764C67.1653 165.047 67.6008 164.395 68.1499 163.846C68.699 163.297 69.3509 162.861 70.0683 162.564C70.7858 162.267 71.5547 162.114 72.3312 162.114H112.306C113.082 162.114 113.851 162.267 114.569 162.564C115.286 162.861 115.938 163.297 116.487 163.846C117.036 164.395 117.472 165.047 117.769 165.764C118.066 166.482 118.219 167.251 118.219 168.027Z" fill="white"/>
<path d="M68.8158 168.019L61.0059 233.495H62.6794L72.5854 168.019H68.8158Z" fill="#407BFF"/>
<path d="M115.82 168.019L123.63 233.495H121.957L112.059 168.019H115.82Z" fill="#407BFF"/>
<path opacity="0.4" d="M115.82 168.019L123.63 233.495H121.957L112.059 168.019H115.82Z" fill="black"/>
<path d="M105.371 168.019L105.522 233.495H103.857L101.602 168.019H105.371Z" fill="#407BFF"/>
</g>
<defs>
<clipPath id="clip0_1281_20503">
<rect width="338.632" height="250" fill="white"/>
</clipPath>
</defs>
</svg>
