<svg width="49" height="50" viewBox="0 0 49 50" fill="none" xmlns="http://www.w3.org/2000/svg">
<g clip-path="url(#clip0_1352_35401)">
<path d="M21.9343 20.8247C20.6562 21.4222 19.8255 22.3217 19.4277 23.5758C18.8813 25.3012 18.3658 27.0367 17.8812 28.7823C17.5777 29.8687 16.977 30.5765 15.8123 30.7266C15.6639 30.7541 15.5318 30.8376 15.4433 30.9599C14.5007 32.4361 13.5725 33.9218 12.6107 35.4491L14.4815 36.6489C14.8122 36.8598 14.9704 37.1282 14.734 37.4972C13.3494 39.6636 11.9648 41.8294 10.5802 43.9947C10.5067 44.1097 10.4204 44.2183 10.3214 44.3621C9.0529 43.4355 7.69174 43.2071 6.27307 43.8828C4.85441 44.5586 4.18022 45.776 4.08916 47.4471C2.97084 46.7026 1.8685 46.0652 0.885976 45.2744C-0.0965466 44.4835 -0.277073 43.0681 0.384333 42.0057C2.05861 39.3164 3.76272 36.6473 5.49664 33.9985C6.29544 32.7955 7.8547 32.508 9.10721 33.2476C9.9811 33.7637 10.8278 34.3244 11.7448 34.9028L14.5534 30.4295C13.4766 29.6307 13.392 28.6098 13.7546 27.426C14.3266 25.544 14.6653 23.5726 15.4033 21.7625C16.8492 18.2095 19.1289 15.2715 22.5702 13.3943C26.2782 11.3717 30.5869 11.4916 33.7773 14.7618C34.2566 15.2411 34.7774 15.6757 35.2679 16.1454C36.7831 17.6038 38.6509 18.6442 40.6885 19.1648C42.7095 19.6968 44.7177 20.272 46.7274 20.8455C47.9304 21.189 48.5982 22.2626 48.3506 23.4017C48.103 24.5407 47.0246 25.2597 45.7593 25.0248C42.7446 24.4641 39.7284 23.9065 36.7265 23.285C35.9644 23.1253 35.2519 22.7338 34.4771 22.4351C34.3716 23.6061 34.2582 24.8123 34.1575 26.0217C34.0569 27.2311 33.9387 28.4421 33.8668 29.6546C33.8615 29.7722 33.8805 29.8896 33.9225 29.9996C33.9646 30.1095 34.0288 30.2096 34.1112 30.2937C37.6259 33.0559 39.3833 36.6937 39.6261 41.1174C39.7236 42.8748 39.8721 44.6161 39.9872 46.3655C40.0654 47.5525 39.5207 48.4711 38.535 48.861C38.2295 48.9881 37.8999 49.0469 37.5693 49.033C37.2388 49.0192 36.9152 48.9331 36.6215 48.7808C36.3278 48.6286 36.0709 48.4138 35.8691 48.1516C35.6673 47.8895 35.5253 47.5863 35.4532 47.2634C34.9835 45.391 34.5969 43.4978 34.1416 41.6222C33.3076 38.1858 31.3665 35.537 28.3902 33.6342C28.3061 33.5799 28.2198 33.5304 28.1314 33.4857C28.099 33.4749 28.0648 33.4706 28.0308 33.4729C27.7624 34.7286 27.5387 35.9939 27.2208 37.2336C26.6668 39.3576 25.774 41.3784 24.5767 43.2183C23.3817 45.08 22.1718 46.9305 20.947 48.7699C20.7171 49.1502 20.3734 49.4485 19.9645 49.6226C19.5556 49.7966 19.1023 49.8376 18.6688 49.7396C17.8173 49.5799 17.1687 49.0654 17.0121 48.2139C16.9103 47.6348 16.9655 47.0391 17.1719 46.4885C18.1304 44.0666 19.2488 41.6957 20.1738 39.2674C21.4327 35.9875 21.6803 32.5814 21.3065 29.0923C21.185 27.9628 21.4183 26.7934 21.5094 25.6447C21.6468 24.0647 21.7969 22.4846 21.9343 20.8247Z" fill="#755CBB"/>
<path d="M31.7552 11.6257C30.6055 11.6273 29.4812 11.288 28.5243 10.6506C27.5675 10.0132 26.8211 9.10648 26.3795 8.04496C25.9379 6.98345 25.821 5.81485 26.0435 4.68689C26.266 3.55893 26.818 2.52228 27.6296 1.70798C28.4412 0.893685 29.4761 0.338312 30.6033 0.112081C31.7305 -0.114149 32.8995 -0.00108802 33.9624 0.436983C35.0254 0.875055 35.9346 1.61846 36.5751 2.57321C37.2156 3.52796 37.5587 4.65119 37.5609 5.80088C37.5596 7.34202 36.9482 8.81997 35.8602 9.91151C34.7723 11.0031 33.2964 11.6194 31.7552 11.6257Z" fill="#755CBB"/>
<path d="M7.92008 49.9984C7.55432 50.0087 7.19018 49.9459 6.84908 49.8135C6.50797 49.681 6.19679 49.4818 5.93383 49.2273C5.67086 48.9729 5.46142 48.6684 5.31783 48.3319C5.17424 47.9953 5.09939 47.6335 5.09769 47.2676C5.09598 46.9017 5.16746 46.5391 5.30791 46.2013C5.44836 45.8634 5.65495 45.557 5.91553 45.3001C6.17612 45.0433 6.48543 44.8411 6.82528 44.7055C7.16514 44.5699 7.52868 44.5037 7.89451 44.5106C8.61107 44.5243 9.29387 44.8176 9.79699 45.328C10.3001 45.8384 10.5836 46.5253 10.587 47.242C10.5903 47.9587 10.3132 48.6482 9.81485 49.1633C9.31651 49.6784 8.63647 49.9781 7.92008 49.9984Z" fill="#755CBB"/>
</g>
<defs>
<clipPath id="clip0_1352_35401">
<rect width="48.4008" height="50" fill="white"/>
</clipPath>
</defs>
</svg>
