<svg width="226" height="200" viewBox="0 0 226 200" fill="none" xmlns="http://www.w3.org/2000/svg">
<g clip-path="url(#clip0_1184_22890)">
<path opacity="0.18" d="M38.4058 113.228H6.11981C3.97826 113.228 2.24219 114.964 2.24219 117.106V149.123C2.24219 151.265 3.97826 153.001 6.11981 153.001H38.4058C40.5474 153.001 42.2834 151.265 42.2834 149.123V117.106C42.2834 114.964 40.5474 113.228 38.4058 113.228Z" fill="#6EA2E6"/>
<path opacity="0.18" d="M219.429 38.2399H187.143C185.002 38.2399 183.266 39.976 183.266 42.1176V74.1354C183.266 76.277 185.002 78.0131 187.143 78.0131H219.429C221.571 78.0131 223.307 76.277 223.307 74.1354V42.1176C223.307 39.976 221.571 38.2399 219.429 38.2399Z" fill="#6EA2E6"/>
<path opacity="0.18" d="M181.183 141.389H148.897C146.756 141.389 145.02 143.125 145.02 145.266V177.284C145.02 179.426 146.756 181.162 148.897 181.162H181.183C183.325 181.162 185.061 179.426 185.061 177.284V145.266C185.061 143.125 183.325 141.389 181.183 141.389Z" fill="#6EA2E6"/>
<path opacity="0.18" d="M76.48 27.164H44.194C42.0525 27.164 40.3164 28.9001 40.3164 31.0416V63.0595C40.3164 65.2011 42.0525 66.9371 44.194 66.9371H76.48C78.6216 66.9371 80.3577 65.2011 80.3577 63.0595V31.0416C80.3577 28.9001 78.6216 27.164 76.48 27.164Z" fill="#6EA2E6"/>
<path d="M193.234 50.7391H34.2175C32.0759 50.7391 30.3398 52.4752 30.3398 54.6168V157.951C30.3398 160.093 32.0759 161.829 34.2175 161.829H193.234C195.376 161.829 197.112 160.093 197.112 157.951V54.6168C197.112 52.4752 195.376 50.7391 193.234 50.7391Z" fill="#FF6C37"/>
<path d="M190.08 58.9275C190.911 58.9275 191.586 58.2534 191.586 57.4218C191.586 56.5902 190.911 55.9161 190.08 55.9161C189.248 55.9161 188.574 56.5902 188.574 57.4218C188.574 58.2534 189.248 58.9275 190.08 58.9275Z" fill="white"/>
<path d="M185.066 57.4287C185.066 57.7267 184.978 58.0181 184.812 58.2659C184.646 58.5136 184.411 58.7066 184.135 58.8204C183.859 58.9341 183.556 58.9635 183.264 58.9049C182.972 58.8462 182.704 58.7021 182.493 58.4909C182.283 58.2796 182.14 58.0107 182.083 57.7182C182.025 57.4256 182.056 57.1227 182.171 56.8477C182.286 56.5727 182.48 56.338 182.729 56.1734C182.977 56.0088 183.269 55.9216 183.567 55.923C183.965 55.9248 184.347 56.0842 184.627 56.3664C184.908 56.6486 185.066 57.0305 185.066 57.4287Z" fill="white"/>
<path d="M178.558 57.4286C178.558 57.7264 178.47 58.0175 178.304 58.2651C178.139 58.5128 177.904 58.7057 177.629 58.8197C177.354 58.9337 177.051 58.9635 176.759 58.9054C176.467 58.8473 176.198 58.7039 175.988 58.4933C175.777 58.2827 175.634 58.0145 175.576 57.7224C175.518 57.4303 175.548 57.1276 175.661 56.8525C175.775 56.5773 175.968 56.3422 176.216 56.1767C176.464 56.0113 176.755 55.923 177.053 55.923C177.25 55.923 177.446 55.9619 177.629 56.0376C177.811 56.1133 177.977 56.2242 178.117 56.364C178.257 56.5038 178.368 56.6698 178.444 56.8525C178.519 57.0351 178.558 57.2309 178.558 57.4286Z" fill="white"/>
<path d="M73.3199 65.679H41.0339C38.8923 65.679 37.1562 67.415 37.1562 69.5566V101.574C37.1562 103.716 38.8923 105.452 41.0339 105.452H73.3199C75.4614 105.452 77.1975 103.716 77.1975 101.574V69.5566C77.1975 67.415 75.4614 65.679 73.3199 65.679Z" fill="#FF6C37"/>
<path d="M38.7554 103.94V70.3541C38.7545 69.9481 38.8337 69.546 38.9885 69.1707C39.1432 68.7953 39.3704 68.4542 39.6572 68.1668C39.9439 67.8795 40.2845 67.6515 40.6595 67.4959C41.0345 67.3403 41.4365 67.2603 41.8424 67.2603H75.696C76.1194 67.2588 76.5385 67.3454 76.9267 67.5146C76.6842 66.9678 76.288 66.5031 75.7864 66.1772C75.2847 65.8514 74.6991 65.6782 74.1009 65.679H40.2474C39.428 65.6808 38.6428 66.0075 38.0641 66.5876C37.4854 67.1676 37.1604 67.9535 37.1604 68.7728V102.358C37.1526 102.968 37.3253 103.566 37.6569 104.077C37.9884 104.589 38.464 104.99 39.0236 105.232C38.8419 104.826 38.7504 104.385 38.7554 103.94Z" fill="#EB4103"/>
<path d="M75.4443 65.9883C75.7794 66.4913 75.9588 67.082 75.9599 67.6865V101.272C75.9599 102.092 75.634 102.879 75.0538 103.46C74.4736 104.04 73.6866 104.366 72.8661 104.366H39.0125C38.5478 104.367 38.0891 104.261 37.6719 104.056C37.9542 104.481 38.3375 104.829 38.7875 105.069C39.2375 105.309 39.7401 105.434 40.2501 105.431H74.1036C74.5102 105.432 74.9129 105.353 75.2887 105.198C75.6644 105.043 76.0059 104.815 76.2933 104.527C76.5808 104.24 76.8087 103.898 76.9638 103.523C77.119 103.147 77.1984 102.744 77.1975 102.338V68.7934C77.2007 68.2078 77.0376 67.6334 76.7273 67.1368C76.4169 66.6403 75.972 66.242 75.4443 65.9883Z" fill="#EB4103"/>
<path d="M120.832 111.805H88.5456C86.404 111.805 84.668 113.541 84.668 115.682V147.7C84.668 149.842 86.404 151.578 88.5456 151.578H120.832C122.973 151.578 124.709 149.842 124.709 147.7V115.682C124.709 113.541 122.973 111.805 120.832 111.805Z" fill="#FF6C37"/>
<path d="M86.264 150.065V116.48C86.264 115.659 86.5899 114.872 87.1701 114.292C87.7503 113.712 88.5373 113.386 89.3578 113.386H123.211C123.635 113.385 124.054 113.471 124.442 113.64C124.198 113.095 123.802 112.631 123.3 112.305C122.799 111.98 122.214 111.806 121.616 111.805H87.7696C86.9491 111.805 86.1622 112.131 85.582 112.711C85.0017 113.291 84.6758 114.078 84.6758 114.899V148.484C84.6762 149.088 84.8535 149.679 85.1858 150.184C85.5181 150.688 85.9909 151.084 86.5458 151.323C86.3644 150.929 86.2683 150.5 86.264 150.065Z" fill="#EB4103"/>
<path d="M122.959 112.107C123.292 112.611 123.469 113.202 123.468 113.805V147.391C123.469 147.797 123.39 148.199 123.235 148.574C123.08 148.95 122.853 149.291 122.566 149.578C122.279 149.866 121.939 150.094 121.564 150.249C121.189 150.405 120.787 150.485 120.381 150.485H86.5274C86.0517 150.486 85.5817 150.38 85.1523 150.175C85.4366 150.6 85.8214 150.947 86.2724 151.187C86.7233 151.427 87.2266 151.552 87.7374 151.55H121.591C122.412 151.55 123.198 151.224 123.779 150.644C124.359 150.064 124.685 149.277 124.685 148.457V114.899C124.689 114.318 124.529 113.748 124.224 113.255C123.918 112.761 123.48 112.363 122.959 112.107Z" fill="#EB4103"/>
<path d="M73.5738 111.805H41.2878C39.1462 111.805 37.4102 113.541 37.4102 115.682V147.7C37.4102 149.842 39.1462 151.578 41.2878 151.578H73.5738C75.7153 151.578 77.4514 149.842 77.4514 147.7V115.682C77.4514 113.541 75.7153 111.805 73.5738 111.805Z" fill="#407BFF"/>
<path d="M74.3546 151.578C75.1751 151.578 75.962 151.252 76.5423 150.672C77.1225 150.091 77.4484 149.305 77.4484 148.484V114.899C77.4491 114.3 77.276 113.715 76.9501 113.213C76.6242 112.712 76.1596 112.315 75.6128 112.073C61.6698 133.737 46.455 143.891 37.4141 148.367V148.484C37.4141 149.303 37.7391 150.089 38.3178 150.669C38.8965 151.249 39.6817 151.576 40.501 151.578H74.3546Z" fill="#6EA2E6"/>
<path d="M64.3524 133.812L63.2318 133.166C63.1984 133.147 63.1714 133.119 63.1542 133.084C63.1371 133.05 63.1306 133.012 63.1355 132.974C63.1576 132.775 63.1691 132.575 63.1699 132.375C63.1706 132.002 63.1361 131.629 63.0668 131.262C63.0588 131.221 63.0638 131.18 63.0811 131.143C63.0984 131.106 63.1271 131.075 63.163 131.055L64.1049 130.512C64.1966 130.459 64.2771 130.389 64.3416 130.305C64.4061 130.221 64.4535 130.126 64.481 130.023C64.5084 129.921 64.5155 129.815 64.5017 129.71C64.4879 129.605 64.4535 129.504 64.4005 129.412L63.108 127.178C63.0553 127.086 62.985 127.006 62.9011 126.941C62.8173 126.876 62.7215 126.829 62.6193 126.802C62.5171 126.774 62.4105 126.767 62.3056 126.781C62.2007 126.795 62.0996 126.829 62.008 126.882L60.9767 127.473C60.9455 127.495 60.9083 127.507 60.8701 127.507C60.832 127.507 60.7948 127.495 60.7636 127.473C60.2717 127.094 59.7274 126.789 59.1479 126.566C59.1111 126.553 59.0793 126.529 59.0571 126.496C59.0349 126.464 59.0233 126.426 59.0241 126.387V125.445C59.0241 125.232 58.9394 125.027 58.7885 124.876C58.6377 124.725 58.4331 124.641 58.2197 124.641H55.6347C55.4213 124.641 55.2167 124.725 55.0658 124.876C54.915 125.027 54.8302 125.232 54.8302 125.445V126.373C54.831 126.412 54.8195 126.451 54.7973 126.483C54.7751 126.515 54.7433 126.539 54.7065 126.552C54.0466 126.803 53.4349 127.166 52.8983 127.625C52.865 127.648 52.8254 127.66 52.7849 127.66C52.7443 127.66 52.7048 127.648 52.6714 127.625L52.0939 127.295C52.0029 127.24 51.9021 127.205 51.7973 127.19C51.6925 127.175 51.5858 127.182 51.4834 127.208C51.381 127.235 51.285 127.282 51.2009 127.347C51.1169 127.411 51.0465 127.491 50.9939 127.583L49.7082 129.825C49.6543 129.916 49.6192 130.017 49.6049 130.122C49.5906 130.227 49.5975 130.334 49.625 130.437C49.6525 130.539 49.7002 130.635 49.7652 130.719C49.8303 130.803 49.9114 130.873 50.0038 130.925L50.657 131.303C50.6916 131.322 50.7194 131.352 50.7366 131.387C50.7539 131.423 50.7597 131.463 50.7532 131.502C50.7096 131.784 50.6866 132.069 50.6845 132.355C50.6871 132.817 50.7401 133.279 50.8426 133.73C50.8528 133.77 50.8496 133.813 50.8335 133.851C50.8174 133.89 50.7892 133.922 50.7532 133.943L50.2513 134.232C50.1596 134.284 50.0792 134.355 50.0146 134.439C49.9501 134.522 49.9028 134.618 49.8753 134.72C49.8478 134.823 49.8408 134.929 49.8546 135.034C49.8684 135.139 49.9028 135.24 49.9557 135.332L51.2483 137.566C51.301 137.658 51.3713 137.738 51.4551 137.803C51.539 137.867 51.6348 137.915 51.7369 137.942C51.8391 137.97 51.9457 137.977 52.0506 137.963C52.1555 137.949 52.2567 137.915 52.3483 137.862L53.0977 137.429C53.1289 137.407 53.1661 137.395 53.2043 137.395C53.2424 137.395 53.2796 137.407 53.3108 137.429C53.882 137.833 54.5163 138.139 55.1877 138.336C55.2279 138.349 55.2632 138.373 55.289 138.406C55.3148 138.44 55.3299 138.48 55.3321 138.522V139.285C55.3321 139.498 55.4169 139.703 55.5677 139.854C55.7186 140.005 55.9232 140.089 56.1365 140.089H58.7147C58.9287 140.089 59.134 140.005 59.286 139.854C59.4379 139.704 59.5242 139.499 59.526 139.285V138.144C59.5259 138.107 59.5362 138.07 59.5556 138.039C59.575 138.007 59.6029 137.982 59.636 137.965C60.1894 137.699 60.7012 137.354 61.1554 136.94C61.1874 136.914 61.2275 136.9 61.2689 136.9C61.3102 136.9 61.3503 136.914 61.3823 136.94L62.2555 137.442C62.3471 137.495 62.4482 137.53 62.5532 137.544C62.6581 137.557 62.7646 137.55 62.8668 137.523C62.969 137.495 63.0648 137.448 63.1486 137.383C63.2325 137.319 63.3028 137.239 63.3555 137.147L64.648 134.912C64.701 134.821 64.7354 134.72 64.7492 134.615C64.763 134.51 64.7559 134.403 64.7285 134.301C64.701 134.199 64.6537 134.103 64.5891 134.019C64.5246 133.935 64.4442 133.865 64.3524 133.812ZM57.1747 135.435C56.5696 135.435 55.9781 135.255 55.4749 134.919C54.9718 134.583 54.5797 134.105 54.3481 133.546C54.1165 132.987 54.056 132.372 54.174 131.778C54.2921 131.185 54.5834 130.64 55.0113 130.212C55.4392 129.784 55.9843 129.493 56.5778 129.375C57.1713 129.257 57.7865 129.317 58.3455 129.549C58.9045 129.78 59.3824 130.172 59.7186 130.676C60.0547 131.179 60.2342 131.77 60.2342 132.375C60.2351 132.777 60.1566 133.176 60.0031 133.547C59.8497 133.919 59.6244 134.256 59.3401 134.541C59.0558 134.825 58.7182 135.05 58.3466 135.204C57.975 135.357 57.5767 135.436 57.1747 135.435Z" fill="white"/>
<path d="M121.478 65.9883H87.8993C86.1147 65.9883 84.668 67.435 84.668 69.2196V78.5837C84.668 80.3683 86.1147 81.815 87.8993 81.815H121.478C123.262 81.815 124.709 80.3683 124.709 78.5837V69.2196C124.709 67.435 123.262 65.9883 121.478 65.9883Z" fill="#FFF0EB"/>
<path opacity="0.2" d="M124.711 78.7281V69.1028C124.71 68.5817 124.578 68.0691 124.327 67.6125C124.076 67.1558 123.714 66.7699 123.274 66.4902C110.486 75.648 92.4316 78.5356 84.7383 79.3813C84.8837 80.0757 85.2638 80.6989 85.8148 81.1459C86.3657 81.593 87.0539 81.8366 87.7634 81.8357H121.617C122.025 81.8366 122.428 81.7568 122.805 81.6008C123.182 81.4448 123.524 81.2157 123.812 80.9267C124.099 80.6378 124.327 80.2947 124.481 79.9174C124.635 79.54 124.714 79.1358 124.711 78.7281Z" fill="#FF6C37"/>
<path d="M92.7334 78.6113C95.2851 78.6113 97.3536 76.5428 97.3536 73.9911C97.3536 71.4395 95.2851 69.371 92.7334 69.371C90.1818 69.371 88.1133 71.4395 88.1133 73.9911C88.1133 76.5428 90.1818 78.6113 92.7334 78.6113Z" fill="white"/>
<path d="M119.733 71.791H101.823C101.706 71.7891 101.594 71.7413 101.511 71.6577C101.429 71.574 101.383 71.4614 101.383 71.3441C101.383 71.2274 101.429 71.1154 101.512 71.0329C101.594 70.9504 101.706 70.9041 101.823 70.9041H119.733C119.849 70.9041 119.961 70.9504 120.044 71.0329C120.126 71.1154 120.173 71.2274 120.173 71.3441C120.173 71.4614 120.127 71.574 120.044 71.6577C119.962 71.7413 119.85 71.7891 119.733 71.791Z" fill="white"/>
<path d="M119.733 74.7886H101.823C101.706 74.7886 101.594 74.7423 101.512 74.6598C101.429 74.5772 101.383 74.4653 101.383 74.3486C101.383 74.2313 101.429 74.1187 101.511 74.035C101.594 73.9514 101.706 73.9035 101.823 73.9017H119.733C119.85 73.9035 119.962 73.9514 120.044 74.035C120.127 74.1187 120.173 74.2313 120.173 74.3486C120.173 74.4653 120.126 74.5772 120.044 74.6598C119.961 74.7423 119.849 74.7886 119.733 74.7886Z" fill="white"/>
<path d="M115.271 77.793H101.823C101.706 77.793 101.594 77.7467 101.512 77.6641C101.429 77.5816 101.383 77.4697 101.383 77.353C101.383 77.2357 101.429 77.123 101.511 77.0394C101.594 76.9558 101.706 76.9079 101.823 76.9061H115.271C115.388 76.9079 115.5 76.9558 115.582 77.0394C115.665 77.123 115.711 77.2357 115.711 77.353C115.711 77.4697 115.664 77.5816 115.582 77.6641C115.499 77.7467 115.387 77.793 115.271 77.793Z" fill="white"/>
<path d="M121.478 89.2402H87.8993C86.1147 89.2402 84.668 90.687 84.668 92.4716V101.836C84.668 103.62 86.1147 105.067 87.8993 105.067H121.478C123.262 105.067 124.709 103.62 124.709 101.836V92.4716C124.709 90.687 123.262 89.2402 121.478 89.2402Z" fill="#FFF0EB"/>
<path d="M124.711 101.973V92.3479C124.71 91.8268 124.578 91.3142 124.327 90.8576C124.076 90.401 123.714 90.015 123.274 89.7354C110.458 98.8794 92.4316 101.794 84.7383 102.613C84.8837 103.307 85.2638 103.93 85.8148 104.377C86.3657 104.824 87.0539 105.068 87.7634 105.067H121.617C122.023 105.068 122.426 104.989 122.802 104.833C123.178 104.678 123.519 104.45 123.807 104.163C124.094 103.875 124.322 103.534 124.477 103.158C124.632 102.782 124.712 102.38 124.711 101.973Z" fill="#FFD6C7"/>
<path d="M97.3536 97.2499C97.3536 98.1637 97.0826 99.057 96.5749 99.8167C96.0673 100.577 95.3457 101.169 94.5015 101.518C93.6573 101.868 92.7283 101.96 91.8321 101.781C90.9359 101.603 90.1126 101.163 89.4665 100.517C88.8203 99.8707 88.3803 99.0475 88.2021 98.1512C88.0238 97.255 88.1153 96.3261 88.465 95.4819C88.8147 94.6376 89.4068 93.9161 90.1666 93.4084C90.9264 92.9007 91.8197 92.6298 92.7334 92.6298C93.9588 92.6298 95.1339 93.1165 96.0004 93.983C96.8668 94.8494 97.3536 96.0246 97.3536 97.2499Z" fill="white"/>
<path d="M119.733 95.0361H101.823C101.706 95.0361 101.594 94.9897 101.512 94.9072C101.429 94.8247 101.383 94.7128 101.383 94.5961C101.383 94.4787 101.429 94.3661 101.511 94.2825C101.594 94.1989 101.706 94.151 101.823 94.1492H119.733C119.85 94.151 119.962 94.1989 120.044 94.2825C120.127 94.3661 120.173 94.4787 120.173 94.5961C120.173 94.7128 120.126 94.8247 120.044 94.9072C119.961 94.9897 119.849 95.0361 119.733 95.0361Z" fill="white"/>
<path d="M119.733 98.0406H101.823C101.706 98.0406 101.594 97.9942 101.512 97.9117C101.429 97.8292 101.383 97.7173 101.383 97.6006C101.383 97.4832 101.429 97.3706 101.511 97.287C101.594 97.2034 101.706 97.1555 101.823 97.1537H119.733C119.85 97.1555 119.962 97.2034 120.044 97.287C120.127 97.3706 120.173 97.4832 120.173 97.6006C120.173 97.7173 120.126 97.8292 120.044 97.9117C119.961 97.9942 119.849 98.0406 119.733 98.0406Z" fill="white"/>
<path d="M115.271 101.045H101.823C101.706 101.045 101.594 100.999 101.512 100.916C101.429 100.834 101.383 100.722 101.383 100.605C101.383 100.488 101.429 100.375 101.511 100.291C101.594 100.208 101.706 100.16 101.823 100.158H115.271C115.388 100.16 115.5 100.208 115.582 100.291C115.665 100.375 115.711 100.488 115.711 100.605C115.711 100.722 115.664 100.834 115.582 100.916C115.499 100.999 115.387 101.045 115.271 101.045Z" fill="white"/>
<path d="M181.829 133.118H148.251C146.466 133.118 145.02 134.565 145.02 136.349V145.713C145.02 147.498 146.466 148.945 148.251 148.945H181.829C183.614 148.945 185.061 147.498 185.061 145.713V136.349C185.061 134.565 183.614 133.118 181.829 133.118Z" fill="#FFC182"/>
<path d="M185.062 145.851V136.225C185.061 135.704 184.929 135.19 184.676 134.734C184.424 134.277 184.06 133.891 183.618 133.613C170.837 142.771 152.776 145.658 145.117 146.504C145.263 147.198 145.643 147.822 146.194 148.269C146.745 148.716 147.433 148.959 148.142 148.958H181.961C182.37 148.959 182.774 148.879 183.151 148.724C183.528 148.568 183.87 148.339 184.158 148.05C184.447 147.761 184.675 147.418 184.83 147.041C184.985 146.663 185.064 146.259 185.062 145.851Z" fill="#FFD98C"/>
<path d="M153.085 145.741C155.637 145.741 157.705 143.672 157.705 141.121C157.705 138.569 155.637 136.5 153.085 136.5C150.533 136.5 148.465 138.569 148.465 141.121C148.465 143.672 150.533 145.741 153.085 145.741Z" fill="white"/>
<path d="M180.076 138.921H162.201C162.083 138.921 161.971 138.874 161.887 138.792C161.804 138.71 161.756 138.598 161.754 138.481C161.754 138.362 161.801 138.248 161.885 138.165C161.969 138.081 162.082 138.034 162.201 138.034H180.076C180.195 138.034 180.309 138.081 180.392 138.165C180.476 138.248 180.523 138.362 180.523 138.481C180.521 138.598 180.474 138.71 180.39 138.792C180.306 138.874 180.194 138.921 180.076 138.921Z" fill="white"/>
<path d="M180.076 141.918H162.201C162.083 141.918 161.971 141.872 161.887 141.79C161.804 141.707 161.756 141.595 161.754 141.478C161.754 141.36 161.801 141.246 161.885 141.162C161.969 141.078 162.082 141.031 162.201 141.031H180.076C180.195 141.031 180.309 141.078 180.392 141.162C180.476 141.246 180.523 141.36 180.523 141.478C180.521 141.595 180.474 141.707 180.39 141.79C180.306 141.872 180.194 141.918 180.076 141.918Z" fill="white"/>
<path d="M175.621 144.923H162.173C162.055 144.923 161.941 144.876 161.857 144.792C161.774 144.708 161.727 144.594 161.727 144.476C161.728 144.358 161.776 144.247 161.86 144.164C161.943 144.082 162.056 144.036 162.173 144.036H175.621C175.739 144.036 175.851 144.082 175.935 144.164C176.019 144.247 176.066 144.358 176.068 144.476C176.068 144.594 176.021 144.708 175.937 144.792C175.854 144.876 175.74 144.923 175.621 144.923Z" fill="white"/>
<path d="M135.621 131.268H103.335C101.193 131.268 99.457 133.005 99.457 135.146V167.164C99.457 169.305 101.193 171.042 103.335 171.042H135.621C137.762 171.042 139.498 169.305 139.498 167.164V135.146C139.498 133.005 137.762 131.268 135.621 131.268Z" fill="#407BFF"/>
<path d="M136.404 171.042C136.81 171.042 137.213 170.963 137.588 170.809C137.963 170.654 138.304 170.427 138.592 170.14C138.879 169.853 139.107 169.513 139.263 169.138C139.418 168.763 139.498 168.361 139.498 167.955V134.369C139.499 133.771 139.326 133.185 139 132.684C138.674 132.182 138.209 131.786 137.663 131.543C123.72 153.207 108.505 163.362 99.457 167.838V167.955C99.4589 168.774 99.7856 169.559 100.366 170.138C100.946 170.717 101.732 171.042 102.551 171.042H136.404Z" fill="white" fill-opacity="0.49"/>
<path d="M107.71 153.578C107.528 153.491 107.374 153.355 107.266 153.185C107.158 153.015 107.1 152.818 107.098 152.616C107.098 152.402 107.163 152.194 107.283 152.018C107.421 151.821 107.615 151.67 107.84 151.585L114.495 148.835C114.556 148.81 114.621 148.798 114.686 148.798C114.751 148.799 114.816 148.812 114.876 148.838C114.936 148.863 114.99 148.9 115.036 148.947C115.082 148.994 115.117 149.049 115.142 149.11C115.284 149.29 115.364 149.512 115.369 149.742C115.377 149.86 115.347 149.978 115.282 150.077C115.218 150.176 115.122 150.252 115.011 150.292L109.25 152.63L115.032 155.077C115.124 155.121 115.201 155.194 115.25 155.284C115.3 155.374 115.319 155.477 115.307 155.579C115.304 155.809 115.235 156.034 115.107 156.225C115.067 156.311 115.005 156.384 114.928 156.438C114.851 156.493 114.761 156.526 114.667 156.535H114.53L107.71 153.578Z" fill="white"/>
<path d="M117.533 157.628C117.46 157.567 117.402 157.49 117.364 157.403C117.326 157.316 117.308 157.221 117.313 157.126C117.318 156.986 117.341 156.848 117.382 156.714L121.177 145.473C121.228 145.291 121.328 145.127 121.466 144.998C121.586 144.892 121.739 144.832 121.899 144.826C122.088 144.827 122.271 144.896 122.415 145.019C122.486 145.085 122.542 145.164 122.58 145.253C122.618 145.342 122.636 145.438 122.635 145.535C122.629 145.673 122.603 145.809 122.559 145.94L118.709 157.319C118.666 157.466 118.575 157.595 118.451 157.685C118.326 157.774 118.175 157.82 118.021 157.814C117.842 157.809 117.67 157.743 117.533 157.628Z" fill="white"/>
<path d="M124.798 156.528C124.703 156.519 124.613 156.486 124.534 156.432C124.456 156.377 124.393 156.304 124.351 156.219C124.224 156.027 124.154 155.803 124.152 155.572C124.137 155.47 124.156 155.366 124.205 155.275C124.255 155.185 124.333 155.113 124.427 155.07L130.209 152.623L124.454 150.285C124.34 150.248 124.242 150.173 124.175 150.074C124.108 149.974 124.076 149.855 124.083 149.735C124.09 149.505 124.172 149.282 124.317 149.103C124.341 149.042 124.377 148.987 124.423 148.94C124.468 148.894 124.523 148.856 124.583 148.831C124.643 148.805 124.707 148.792 124.773 148.791C124.838 148.791 124.903 148.803 124.963 148.828L131.618 151.578C131.844 151.661 132.039 151.813 132.175 152.011C132.296 152.187 132.361 152.396 132.361 152.609C132.36 152.811 132.303 153.009 132.196 153.18C132.092 153.355 131.936 153.492 131.749 153.572L124.936 156.5L124.798 156.528Z" fill="white"/>
<path d="M98.8932 4.4895H88.3672C88.0025 4.4895 87.6528 4.63437 87.3949 4.89224C87.1371 5.15011 86.9922 5.49986 86.9922 5.86454V22.9013C86.9922 23.266 87.1371 23.6158 87.3949 23.8736C87.6528 24.1315 88.0025 24.2764 88.3672 24.2764H101.293C101.657 24.2764 102.007 24.1315 102.265 23.8736C102.523 23.6158 102.668 23.266 102.668 22.9013V8.09899L98.8932 4.4895Z" fill="#E6E6E6"/>
<path d="M98.8926 4.4895L102.674 8.09899H99.5664C99.3841 8.09899 99.2092 8.02656 99.0803 7.89762C98.9513 7.76868 98.8789 7.59381 98.8789 7.41147L98.8926 4.4895Z" fill="#C4C4C4"/>
<path d="M99.3359 18.68H90.3294C90.271 18.68 90.2151 18.6568 90.1738 18.6155C90.1325 18.5743 90.1094 18.5183 90.1094 18.46C90.1093 18.401 90.1323 18.3443 90.1734 18.3019C90.2145 18.2596 90.2704 18.2349 90.3294 18.2331H99.3359C99.3654 18.2331 99.3946 18.239 99.4217 18.2505C99.4489 18.2619 99.4735 18.2788 99.494 18.2999C99.5145 18.3211 99.5305 18.3462 99.5412 18.3737C99.5518 18.4012 99.5569 18.4305 99.5559 18.46C99.5559 18.5183 99.5327 18.5743 99.4915 18.6155C99.4502 18.6568 99.3943 18.68 99.3359 18.68Z" fill="#6EA2E6"/>
<path d="M99.3359 16.2186H90.3294C90.2704 16.2168 90.2145 16.1921 90.1734 16.1498C90.1323 16.1074 90.1093 16.0507 90.1094 15.9917C90.1094 15.9334 90.1325 15.8774 90.1738 15.8362C90.2151 15.7949 90.271 15.7717 90.3294 15.7717H99.3359C99.3943 15.7717 99.4502 15.7949 99.4915 15.8362C99.5327 15.8774 99.5559 15.9334 99.5559 15.9917C99.5569 16.0212 99.5518 16.0505 99.5412 16.078C99.5305 16.1055 99.5145 16.1306 99.494 16.1518C99.4735 16.1729 99.4489 16.1897 99.4217 16.2012C99.3946 16.2127 99.3654 16.2186 99.3359 16.2186Z" fill="#6EA2E6"/>
<path d="M99.3359 13.7504H90.3294C90.2704 13.7486 90.2145 13.7239 90.1734 13.6816C90.1323 13.6392 90.1093 13.5825 90.1094 13.5235C90.1094 13.4652 90.1325 13.4092 90.1738 13.368C90.2151 13.3267 90.271 13.3035 90.3294 13.3035H99.3359C99.3943 13.3035 99.4502 13.3267 99.4915 13.368C99.5327 13.4092 99.5559 13.4652 99.5559 13.5235C99.5569 13.553 99.5518 13.5824 99.5412 13.6098C99.5305 13.6373 99.5145 13.6624 99.494 13.6836C99.4735 13.7047 99.4489 13.7216 99.4217 13.733C99.3946 13.7445 99.3654 13.7504 99.3359 13.7504Z" fill="#6EA2E6"/>
<path d="M99.3359 11.2822H90.3294C90.271 11.2822 90.2151 11.259 90.1738 11.2178C90.1325 11.1765 90.1094 11.1206 90.1094 11.0622C90.1093 11.0032 90.1323 10.9465 90.1734 10.9042C90.2145 10.8618 90.2704 10.8371 90.3294 10.8353H99.3359C99.3654 10.8353 99.3946 10.8412 99.4217 10.8527C99.4489 10.8642 99.4735 10.881 99.494 10.9022C99.5145 10.9233 99.5305 10.9484 99.5412 10.9759C99.5518 11.0034 99.5569 11.0327 99.5559 11.0622C99.5559 11.1206 99.5327 11.1765 99.4915 11.2178C99.4502 11.259 99.3943 11.2822 99.3359 11.2822Z" fill="#6EA2E6"/>
<path d="M97.0946 20.8594H90.3294C90.271 20.8594 90.2151 20.8362 90.1738 20.795C90.1325 20.7537 90.1094 20.6978 90.1094 20.6394C90.1093 20.5804 90.1323 20.5237 90.1734 20.4814C90.2145 20.439 90.2704 20.4143 90.3294 20.4125H97.0946C97.1548 20.4125 97.2125 20.4364 97.255 20.479C97.2976 20.5215 97.3215 20.5792 97.3215 20.6394C97.3215 20.6689 97.3156 20.6981 97.3041 20.7252C97.2926 20.7524 97.2758 20.7769 97.2546 20.7975C97.2335 20.818 97.2084 20.834 97.1809 20.8447C97.1534 20.8553 97.1241 20.8603 97.0946 20.8594Z" fill="#6EA2E6"/>
<path d="M99.5663 15.373L98.0812 16.913L85.919 16.9474C85.6936 16.9474 85.4704 16.9919 85.2622 17.0784C85.0541 17.1648 84.8651 17.2915 84.706 17.4512C84.5469 17.6109 84.421 17.8005 84.3354 18.009C84.2497 18.2175 84.2061 18.4408 84.207 18.6662L84.2414 31.2479C84.2414 31.4732 84.2859 31.6964 84.3724 31.9046C84.4588 32.1127 84.5856 32.3017 84.7453 32.4608C84.905 32.6199 85.0945 32.7458 85.303 32.8314C85.5115 32.9171 85.7348 32.9607 85.9602 32.9598L105.073 32.9117C105.298 32.9107 105.521 32.8656 105.728 32.7787C105.935 32.6918 106.123 32.565 106.282 32.4054C106.44 32.2458 106.565 32.0565 106.651 31.8485C106.736 31.6405 106.779 31.4177 106.778 31.1928L106.744 18.3224V16.0055C106.744 15.7557 106.645 15.5161 106.468 15.3395C106.291 15.1628 106.052 15.0636 105.802 15.0636H100.226C99.974 15.0755 99.7368 15.1867 99.5663 15.373Z" fill="#FFC987"/>
<path d="M106.785 22.1382H109.37C109.516 22.1382 109.66 22.1668 109.794 22.2224C109.928 22.2781 110.05 22.3596 110.153 22.4624C110.256 22.5652 110.337 22.6872 110.393 22.8215C110.449 22.9558 110.477 23.0997 110.477 23.2451V25.5689C110.477 25.7143 110.449 25.8582 110.393 25.9925C110.337 26.1268 110.256 26.2488 110.153 26.3516C110.05 26.4544 109.928 26.5359 109.794 26.5916C109.66 26.6472 109.516 26.6758 109.37 26.6758H106.785V22.1382Z" fill="#407BFF"/>
<path d="M147.812 50.7391V48.154C147.813 47.8605 147.929 47.5789 148.137 47.3714C148.344 47.1638 148.626 47.0471 148.919 47.0471H151.243C151.537 47.0471 151.818 47.1638 152.026 47.3714C152.234 47.5789 152.35 47.8605 152.35 48.154V50.7391H147.812Z" fill="#407BFF"/>
<path d="M108.629 24.407H143.094C144.946 24.407 146.721 25.142 148.031 26.4505C149.341 27.759 150.078 29.534 150.08 31.3854V50.7391" stroke="#407BFF" stroke-miterlimit="10"/>
<path d="M197.105 67.5765H199.691C199.984 67.5765 200.266 67.6932 200.473 67.9007C200.681 68.1083 200.797 68.3899 200.797 68.6834V71.0073C200.797 71.3008 200.681 71.5824 200.473 71.79C200.266 71.9976 199.984 72.1142 199.691 72.1142H197.105V67.5765Z" fill="#407BFF"/>
<path d="M211.578 167.26V164.675C211.578 164.382 211.695 164.1 211.902 163.892C212.11 163.685 212.391 163.568 212.685 163.568H215.009C215.302 163.568 215.584 163.685 215.792 163.892C215.999 164.1 216.116 164.382 216.116 164.675V167.26H211.578Z" fill="#407BFF"/>
<path d="M198.957 69.8522H206.87C207.787 69.8513 208.695 70.0312 209.542 70.3815C210.389 70.7319 211.159 71.2459 211.807 71.8941C212.455 72.5423 212.969 73.3119 213.319 74.159C213.67 75.006 213.85 75.9139 213.849 76.8305V167.267" stroke="#407BFF" stroke-miterlimit="10"/>
<path d="M84.6204 174.747H73.2007C72.5893 174.747 72.0938 175.243 72.0938 175.854V187.185C72.0938 187.796 72.5893 188.291 73.2007 188.291H84.6204C85.2317 188.291 85.7273 187.796 85.7273 187.185V175.854C85.7273 175.243 85.2317 174.747 84.6204 174.747Z" fill="#FC826A"/>
<path d="M84.6685 188.291C84.9481 188.291 85.2164 188.181 85.4148 187.984C85.6131 187.787 85.7255 187.519 85.7273 187.24V175.799C85.7258 175.596 85.666 175.397 85.5552 175.226C85.4443 175.056 85.2869 174.921 85.1016 174.837C80.3509 182.214 75.1738 185.672 72.0938 187.212V187.253C72.0937 187.532 72.2046 187.8 72.4018 187.997C72.5991 188.194 72.8667 188.305 73.1457 188.305L84.6685 188.291Z" fill="#FF9670"/>
<path d="M75.1814 184.366H78.8871C78.9551 184.366 79.0219 184.347 79.0803 184.312C79.1387 184.277 79.1866 184.227 79.219 184.168C79.2514 184.108 79.267 184.04 79.2643 183.972C79.2615 183.904 79.2405 183.838 79.2034 183.781L77.3471 181.031C77.3132 180.98 77.2672 180.938 77.2132 180.909C77.1593 180.88 77.099 180.865 77.0377 180.865C76.9764 180.865 76.9161 180.88 76.8621 180.909C76.8081 180.938 76.7622 180.98 76.7283 181.031L74.872 183.781C74.8327 183.837 74.8097 183.903 74.8054 183.971C74.8011 184.04 74.8158 184.108 74.8478 184.168C74.8798 184.229 74.9279 184.279 74.9868 184.314C75.0456 184.349 75.113 184.367 75.1814 184.366Z" fill="white"/>
<path d="M78.6618 184.366H82.3745C82.4429 184.367 82.5102 184.349 82.5691 184.314C82.6279 184.279 82.676 184.229 82.708 184.168C82.74 184.108 82.7547 184.04 82.7504 183.971C82.7462 183.903 82.7231 183.837 82.6839 183.781L80.8275 181.031C80.7937 180.98 80.7477 180.938 80.6937 180.909C80.6397 180.88 80.5794 180.865 80.5182 180.865C80.4569 180.865 80.3966 180.88 80.3426 180.909C80.2886 180.938 80.2426 180.98 80.2088 181.031L78.3525 183.781C78.3132 183.837 78.2901 183.903 78.2859 183.971C78.2816 184.04 78.2963 184.108 78.3283 184.168C78.3603 184.229 78.4084 184.279 78.4672 184.314C78.5261 184.349 78.5935 184.367 78.6618 184.366Z" fill="white"/>
<path d="M79.4505 179.381C79.4505 179.57 79.3756 179.751 79.2421 179.884C79.1087 180.018 78.9277 180.093 78.7389 180.093C78.5502 180.093 78.3692 180.018 78.2358 179.884C78.1023 179.751 78.0273 179.57 78.0273 179.381C78.0273 179.193 78.1023 179.012 78.2358 178.878C78.3692 178.745 78.5502 178.67 78.7389 178.67C78.9277 178.67 79.1087 178.745 79.2421 178.878C79.3756 179.012 79.4505 179.193 79.4505 179.381Z" fill="white"/>
<path d="M82.9568 182.413L81.4924 183.953L69.3301 183.988C69.105 183.988 68.8822 184.032 68.6744 184.119C68.4666 184.205 68.2781 184.332 68.1196 184.492C67.9611 184.652 67.8357 184.841 67.7509 185.05C67.666 185.258 67.6232 185.481 67.6251 185.706V198.295C67.6287 198.748 67.8114 199.182 68.1333 199.501C68.4553 199.821 68.8904 200 69.3439 200L88.4569 199.952C88.6823 199.952 88.9055 199.907 89.1137 199.821C89.3218 199.734 89.5109 199.608 89.6699 199.448C89.829 199.288 89.9549 199.099 90.0405 198.89C90.1262 198.682 90.1698 198.458 90.1689 198.233V185.363V183.046C90.1689 182.921 90.1443 182.798 90.0965 182.684C90.0488 182.569 89.9788 182.465 89.8906 182.377C89.8024 182.29 89.6977 182.22 89.5827 182.174C89.4676 182.127 89.3444 182.103 89.2201 182.104H83.6512C83.5204 182.105 83.3913 182.133 83.2719 182.186C83.1525 182.24 83.0452 182.317 82.9568 182.413Z" fill="#FFC987"/>
<path d="M90.168 190.203H92.7531C93.0466 190.203 93.3282 190.32 93.5358 190.527C93.7433 190.735 93.86 191.016 93.86 191.31V193.634C93.86 193.779 93.8313 193.923 93.7757 194.057C93.7201 194.192 93.6385 194.314 93.5358 194.416C93.433 194.519 93.3109 194.601 93.1767 194.656C93.0424 194.712 92.8984 194.741 92.7531 194.741H90.168V190.203Z" fill="#407BFF"/>
<path d="M167.805 161.829V164.414C167.805 164.559 167.776 164.703 167.72 164.838C167.665 164.972 167.583 165.094 167.48 165.197C167.378 165.299 167.256 165.381 167.121 165.437C166.987 165.492 166.843 165.521 166.698 165.521H164.374C164.08 165.521 163.799 165.404 163.591 165.197C163.384 164.989 163.267 164.708 163.267 164.414V161.829H167.805Z" fill="#407BFF"/>
<path d="M92.0195 192.479H158.585C160.436 192.477 162.209 191.741 163.518 190.433C164.826 189.124 165.562 187.35 165.564 185.5V161.829" stroke="#407BFF" stroke-miterlimit="10"/>
<path d="M19.5078 23.2864V25.8714C19.5078 26.165 19.3912 26.4466 19.1836 26.6542C18.976 26.8617 18.6945 26.9784 18.4009 26.9784H16.0771C15.7835 26.9784 15.502 26.8617 15.2944 26.6542C15.0868 26.4466 14.9702 26.165 14.9702 25.8714V23.2864H19.5078Z" fill="#407BFF"/>
<path d="M60.3359 50.7322V48.1471C60.3359 47.8535 60.4526 47.572 60.6601 47.3644C60.8677 47.1568 61.1493 47.0402 61.4428 47.0402H63.7667C64.0602 47.0402 64.3418 47.1568 64.5494 47.3644C64.757 47.572 64.8736 47.8535 64.8736 48.1471V50.7322H60.3359Z" fill="#407BFF"/>
<path d="M17.2383 25.1358V30.9041C17.2456 32.7513 17.9849 34.5202 19.2943 35.8232C20.6037 37.1261 22.3763 37.8568 24.2235 37.855H56.2207C57.0601 37.8549 57.8912 38.0204 58.6666 38.3418C59.4419 38.6632 60.1463 39.1343 60.7395 39.7281C61.3327 40.3219 61.803 41.0269 62.1236 41.8026C62.4442 42.5783 62.6087 43.4096 62.6078 44.2489V49.2747" stroke="#407BFF" stroke-miterlimit="10"/>
<path d="M157.671 66.6689H137.17C136.458 66.6689 135.776 66.9514 135.274 67.4543C134.771 67.9571 134.488 68.6391 134.488 69.3503V102.537C134.487 102.89 134.556 103.239 134.69 103.565C134.825 103.891 135.022 104.188 135.271 104.437C135.52 104.687 135.816 104.885 136.142 105.02C136.468 105.156 136.817 105.225 137.17 105.225H162.354C163.066 105.225 163.75 104.942 164.254 104.438C164.759 103.934 165.042 103.25 165.042 102.537V73.7023L157.671 66.6689Z" fill="#E6E6E6"/>
<path d="M157.669 65.3971H137.167C136.457 65.4062 135.779 65.6964 135.283 66.2043C134.787 66.7121 134.512 67.396 134.52 68.1059V101.286C134.519 101.638 134.587 101.988 134.722 102.314C134.856 102.64 135.054 102.936 135.303 103.186C135.552 103.436 135.848 103.634 136.173 103.769C136.499 103.904 136.848 103.974 137.201 103.974H162.385C163.098 103.974 163.782 103.691 164.286 103.187C164.79 102.682 165.073 101.999 165.073 101.286V72.4304L157.669 65.3971Z" fill="white"/>
<path d="M157.672 65.3971L165.042 72.4304H158.999C158.824 72.4313 158.651 72.3976 158.49 72.3313C158.329 72.2649 158.182 72.1672 158.058 72.0438C157.935 71.9204 157.837 71.7738 157.771 71.6124C157.705 71.451 157.671 71.278 157.672 71.1035V65.3971Z" fill="#E6E6E6"/>
<path d="M158.53 93.056H140.992C140.877 93.056 140.767 93.0104 140.685 92.9292C140.604 92.8479 140.559 92.7378 140.559 92.6229C140.559 92.5074 140.604 92.3965 140.685 92.3141C140.766 92.2318 140.876 92.1847 140.992 92.1829H158.53C158.647 92.1829 158.759 92.2292 158.842 92.3117C158.924 92.3943 158.97 92.5062 158.97 92.6229C158.969 92.7384 158.921 92.8485 158.839 92.9296C158.757 93.0106 158.646 93.056 158.53 93.056Z" fill="#407BFF"/>
<path d="M158.53 88.2502H140.992C140.877 88.2502 140.767 88.2046 140.685 88.1234C140.604 88.0421 140.559 87.932 140.559 87.8171C140.559 87.7016 140.604 87.5907 140.685 87.5084C140.766 87.426 140.876 87.3789 140.992 87.3771H158.53C158.647 87.3771 158.759 87.4234 158.842 87.506C158.924 87.5885 158.97 87.7004 158.97 87.8171C158.969 87.9326 158.921 88.0428 158.839 88.1238C158.757 88.2048 158.646 88.2502 158.53 88.2502Z" fill="#407BFF"/>
<path d="M158.53 83.4444H140.992C140.877 83.4444 140.767 83.3988 140.685 83.3176C140.604 83.2364 140.559 83.1262 140.559 83.0113C140.559 82.8958 140.604 82.7849 140.685 82.7026C140.766 82.6203 140.876 82.5731 140.992 82.5713H158.53C158.647 82.5713 158.759 82.6176 158.842 82.7002C158.924 82.7827 158.97 82.8946 158.97 83.0113C158.969 83.1268 158.921 83.237 158.839 83.318C158.757 83.399 158.646 83.4445 158.53 83.4444Z" fill="#407BFF"/>
<path d="M158.53 78.6387H140.992C140.877 78.6387 140.767 78.5931 140.685 78.5119C140.604 78.4307 140.559 78.3205 140.559 78.2056C140.559 78.0907 140.604 77.9806 140.685 77.8993C140.767 77.8181 140.877 77.7725 140.992 77.7725H158.53C158.646 77.7724 158.757 77.8179 158.839 77.8989C158.921 77.9799 158.969 78.0901 158.97 78.2056C158.969 78.3211 158.921 78.4313 158.839 78.5123C158.757 78.5933 158.646 78.6388 158.53 78.6387Z" fill="#407BFF"/>
<path d="M154.172 97.298H140.992C140.877 97.298 140.767 97.2524 140.685 97.1712C140.604 97.09 140.559 96.9798 140.559 96.8649C140.559 96.75 140.604 96.6399 140.685 96.5586C140.767 96.4774 140.877 96.4318 140.992 96.4318H154.172C154.286 96.4318 154.397 96.4774 154.478 96.5586C154.559 96.6399 154.605 96.75 154.605 96.8649C154.605 96.9798 154.559 97.09 154.478 97.1712C154.397 97.2524 154.286 97.298 154.172 97.298Z" fill="#407BFF"/>
<path d="M138.523 71.3578C139.457 71.3578 140.215 70.6006 140.215 69.6665C140.215 68.7324 139.457 67.9752 138.523 67.9752C137.589 67.9752 136.832 68.7324 136.832 69.6665C136.832 70.6006 137.589 71.3578 138.523 71.3578Z" fill="#407BFF"/>
<path d="M177.696 86.7927H157.208C156.495 86.7927 155.811 87.0759 155.307 87.5801C154.803 88.0842 154.52 88.768 154.52 89.4809V122.668C154.521 123.379 154.805 124.061 155.309 124.564C155.813 125.067 156.496 125.349 157.208 125.349H182.392C183.102 125.347 183.783 125.064 184.286 124.562C184.788 124.059 185.071 123.378 185.073 122.668V93.7917L177.696 86.7927Z" fill="#E6E6E6"/>
<path d="M177.696 85.5277H157.208C156.496 85.5277 155.813 85.81 155.309 86.3126C154.805 86.8153 154.521 87.4973 154.52 88.2091V121.396C154.52 122.109 154.803 122.792 155.307 123.297C155.811 123.801 156.495 124.084 157.208 124.084H182.392C183.103 124.082 183.785 123.798 184.288 123.294C184.791 122.79 185.073 122.107 185.073 121.396V92.5611L177.696 85.5277Z" fill="white"/>
<path d="M177.699 85.5277L185.069 92.5611H179.026C178.675 92.5593 178.338 92.4189 178.09 92.1704C177.841 91.922 177.701 91.5855 177.699 91.2341V85.5277Z" fill="#E6E6E6"/>
<path d="M178.565 113.18H161.019C160.904 113.18 160.794 113.134 160.713 113.053C160.632 112.972 160.586 112.861 160.586 112.747C160.586 112.632 160.632 112.522 160.713 112.44C160.794 112.359 160.904 112.313 161.019 112.313H178.565C178.68 112.313 178.79 112.359 178.871 112.44C178.952 112.522 178.998 112.632 178.998 112.747C178.998 112.861 178.952 112.972 178.871 113.053C178.79 113.134 178.68 113.18 178.565 113.18Z" fill="#407BFF"/>
<path d="M178.565 108.374H161.019C160.904 108.374 160.794 108.328 160.713 108.247C160.632 108.166 160.586 108.056 160.586 107.941C160.586 107.826 160.632 107.716 160.713 107.635C160.794 107.553 160.904 107.508 161.019 107.508H178.565C178.68 107.508 178.79 107.553 178.871 107.635C178.952 107.716 178.998 107.826 178.998 107.941C178.998 108.056 178.952 108.166 178.871 108.247C178.79 108.328 178.68 108.374 178.565 108.374Z" fill="#407BFF"/>
<path d="M178.565 103.568H161.019C160.904 103.568 160.794 103.523 160.713 103.441C160.632 103.36 160.586 103.25 160.586 103.135C160.586 103.02 160.632 102.91 160.713 102.829C160.794 102.748 160.904 102.702 161.019 102.702H178.565C178.68 102.702 178.79 102.748 178.871 102.829C178.952 102.91 178.998 103.02 178.998 103.135C178.998 103.25 178.952 103.36 178.871 103.441C178.79 103.523 178.68 103.568 178.565 103.568Z" fill="#407BFF"/>
<path d="M178.565 98.7625H161.019C160.904 98.7625 160.794 98.7169 160.713 98.6356C160.632 98.5544 160.586 98.4443 160.586 98.3294C160.586 98.2145 160.632 98.1043 160.713 98.0231C160.794 97.9419 160.904 97.8962 161.019 97.8962H178.565C178.68 97.8962 178.79 97.9419 178.871 98.0231C178.952 98.1043 178.998 98.2145 178.998 98.3294C178.998 98.4443 178.952 98.5544 178.871 98.6356C178.79 98.7169 178.68 98.7625 178.565 98.7625Z" fill="#407BFF"/>
<path d="M174.199 117.429H161.019C160.904 117.427 160.793 117.38 160.712 117.297C160.631 117.215 160.586 117.104 160.586 116.989C160.586 116.874 160.632 116.764 160.713 116.682C160.794 116.601 160.904 116.556 161.019 116.556H174.199C174.314 116.556 174.424 116.601 174.505 116.682C174.586 116.764 174.632 116.874 174.632 116.989C174.632 117.104 174.587 117.215 174.506 117.297C174.425 117.38 174.314 117.427 174.199 117.429Z" fill="#407BFF"/>
<path d="M160.242 89.7972C160.242 90.132 160.143 90.4592 159.956 90.7375C159.77 91.0158 159.506 91.2326 159.196 91.3604C158.887 91.4882 158.546 91.5213 158.218 91.4554C157.89 91.3896 157.589 91.2279 157.352 90.9906C157.116 90.7534 156.956 90.4514 156.891 90.1229C156.827 89.7943 156.861 89.4541 156.99 89.1451C157.119 88.8362 157.337 88.5725 157.616 88.3875C157.895 88.2025 158.223 88.1045 158.558 88.1058C158.779 88.1058 158.999 88.1496 159.204 88.2347C159.409 88.3198 159.595 88.4445 159.751 88.6016C159.908 88.7588 160.031 88.9453 160.116 89.1504C160.2 89.3556 160.243 89.5754 160.242 89.7972Z" fill="#407BFF"/>
<path d="M145.953 112.114H135.531C134.927 112.114 134.438 112.604 134.438 113.207V123.548C134.438 124.151 134.927 124.641 135.531 124.641H145.953C146.557 124.641 147.047 124.151 147.047 123.548V113.207C147.047 112.604 146.557 112.114 145.953 112.114Z" fill="#6887D9"/>
<path d="M146.077 124.641C146.336 124.641 146.584 124.538 146.768 124.355C146.951 124.172 147.054 123.923 147.054 123.665V113.09C147.053 112.901 146.998 112.715 146.894 112.557C146.791 112.398 146.643 112.273 146.469 112.197C142.083 119.024 137.291 122.221 134.438 123.63V123.665C134.437 123.923 134.54 124.172 134.723 124.355C134.907 124.538 135.155 124.641 135.414 124.641H146.077Z" fill="#6EA2E6"/>
<path d="M140.55 119.862L141.993 118.412C142.027 118.381 142.069 118.36 142.113 118.35C142.158 118.341 142.204 118.343 142.248 118.357C142.584 118.468 142.945 118.487 143.291 118.411C143.637 118.335 143.956 118.166 144.214 117.924C144.403 117.747 144.554 117.534 144.659 117.298C144.764 117.062 144.821 116.807 144.826 116.549C144.828 116.501 144.816 116.453 144.791 116.412C144.766 116.372 144.729 116.339 144.686 116.319C144.642 116.299 144.594 116.293 144.546 116.3C144.499 116.308 144.455 116.33 144.42 116.363L143.733 117.05C143.568 117.215 143.417 117.215 143.327 117.126L142.234 116.033C142.192 115.987 142.168 115.927 142.168 115.864C142.168 115.802 142.192 115.742 142.234 115.696L142.963 114.967C142.999 114.934 143.024 114.891 143.034 114.843C143.044 114.795 143.039 114.745 143.019 114.7C143 114.655 142.966 114.618 142.924 114.593C142.882 114.568 142.833 114.557 142.784 114.562C142.28 114.569 141.798 114.774 141.443 115.132C141.186 115.391 141.005 115.717 140.921 116.072C140.837 116.428 140.854 116.8 140.969 117.147C140.985 117.189 140.988 117.235 140.978 117.279C140.968 117.322 140.946 117.363 140.914 117.394L139.47 118.845C139.436 118.875 139.395 118.897 139.35 118.906C139.306 118.916 139.259 118.914 139.216 118.9C138.88 118.789 138.52 118.77 138.175 118.845C137.829 118.92 137.509 119.086 137.25 119.326C137.061 119.503 136.91 119.716 136.805 119.952C136.7 120.188 136.643 120.443 136.638 120.701C136.633 120.75 136.644 120.799 136.669 120.841C136.694 120.883 136.731 120.917 136.776 120.937C136.821 120.956 136.871 120.961 136.919 120.951C136.967 120.941 137.01 120.916 137.043 120.88L137.772 120.151C137.818 120.109 137.878 120.085 137.941 120.085C138.003 120.085 138.063 120.109 138.109 120.151L139.202 121.244C139.245 121.29 139.268 121.35 139.268 121.413C139.268 121.475 139.245 121.535 139.202 121.581L138.467 122.31C138.434 122.345 138.412 122.389 138.404 122.436C138.396 122.483 138.403 122.532 138.423 122.575C138.443 122.619 138.475 122.656 138.516 122.681C138.557 122.706 138.604 122.718 138.652 122.716C139.156 122.707 139.637 122.502 139.993 122.145C140.251 121.886 140.432 121.561 140.515 121.205C140.599 120.849 140.582 120.477 140.467 120.131C140.45 120.083 140.449 120.031 140.464 119.983C140.479 119.934 140.509 119.892 140.55 119.862Z" fill="white"/>
<path d="M175.553 86.1739V90.6497C175.553 91.5366 175.237 92.781 173.566 92.781C171.895 92.781 171.559 91.5366 171.559 90.6497V83.8295" stroke="#FFC182" stroke-miterlimit="10" stroke-linecap="round"/>
<path d="M175.551 89.4191V84.9571C175.551 84.5924 175.406 84.2426 175.148 83.9848C174.89 83.7269 174.541 83.582 174.176 83.582C173.811 83.582 173.461 83.7269 173.204 83.9848C172.946 84.2426 172.801 84.5924 172.801 84.9571V88.4497" stroke="#FFC182" stroke-miterlimit="10" stroke-linecap="round"/>
<path d="M172.825 86.9164V90.1065C172.825 90.4434 172.77 91.2409 173.513 91.2409C174.255 91.2409 174.29 90.4434 174.29 90.1065V86.1602" stroke="#FFC182" stroke-miterlimit="10" stroke-linecap="round"/>
<path d="M155.319 65.3558V69.8384C155.319 70.7253 155.002 71.9629 153.339 71.9629C151.675 71.9629 151.324 70.7253 151.324 69.8384V63.0114" stroke="#FFC182" stroke-miterlimit="10" stroke-linecap="round"/>
<path d="M155.32 68.5872V64.1252C155.32 63.7605 155.176 63.4107 154.918 63.1529C154.66 62.895 154.31 62.7501 153.945 62.7501C153.581 62.7501 153.231 62.895 152.973 63.1529C152.715 63.4107 152.57 63.7605 152.57 64.1252V67.6178" stroke="#FFC182" stroke-miterlimit="10" stroke-linecap="round"/>
<path d="M152.595 66.1121V69.316C152.595 69.6528 152.533 70.4504 153.283 70.4504C154.032 70.4504 154.066 69.6528 154.066 69.316V65.3558" stroke="#FFC182" stroke-miterlimit="10" stroke-linecap="round"/>
<path d="M186.011 25.1702H212.425C214.083 25.1702 215.673 24.5118 216.845 23.3397C218.017 22.1677 218.675 20.5781 218.675 18.9206C218.675 17.2631 218.017 15.6735 216.845 14.5015C215.673 13.3295 214.083 12.671 212.425 12.671H212.267C211.841 9.99656 210.577 7.52657 208.656 5.61737C206.735 3.70817 204.257 2.45845 201.58 2.04849C198.903 1.63852 196.165 2.0895 193.761 3.33637C191.357 4.58325 189.411 6.56156 188.204 8.98593C187.497 8.78737 186.766 8.68561 186.032 8.68342C183.843 8.68342 181.745 9.55264 180.198 11.0999C178.65 12.6471 177.781 14.7456 177.781 16.9337C177.781 19.1218 178.65 21.2203 180.198 22.7675C181.745 24.3147 183.843 25.1839 186.032 25.1839L186.011 25.1702Z" fill="#407BFF"/>
<path d="M202.8 17.9168H194.852C194.789 17.9154 194.728 17.8977 194.674 17.8655C194.62 17.8333 194.575 17.7876 194.544 17.7329C194.513 17.6782 194.496 17.6163 194.496 17.5534C194.496 17.4904 194.512 17.4285 194.543 17.3737L198.524 10.7597C198.555 10.7055 198.6 10.6604 198.655 10.6291C198.709 10.5978 198.77 10.5814 198.833 10.5814C198.896 10.5814 198.957 10.5978 199.012 10.6291C199.066 10.6604 199.111 10.7055 199.143 10.7597L203.11 17.3806C203.141 17.4349 203.157 17.4965 203.157 17.5593C203.157 17.622 203.141 17.6836 203.11 17.738C203.078 17.7923 203.033 17.8374 202.979 17.8688C202.925 17.9002 202.863 17.9168 202.8 17.9168Z" fill="white"/>
<path d="M198.527 20.3662L199.112 20.3667C199.468 20.367 199.758 20.0779 199.758 19.721L199.763 14.2071C199.763 13.8501 199.474 13.5605 199.117 13.5602L198.533 13.5597C198.176 13.5594 197.887 13.8485 197.886 14.2054L197.881 19.7193C197.881 20.0763 198.17 20.3659 198.527 20.3662Z" fill="white"/>
<path d="M8.23745 197.167H34.652C36.3095 197.167 37.8991 196.509 39.0711 195.337C40.2432 194.165 40.9016 192.575 40.9016 190.918C40.9016 189.26 40.2432 187.671 39.0711 186.499C37.8991 185.327 36.3095 184.668 34.652 184.668H34.5008C34.0746 181.994 32.8099 179.524 30.8891 177.615C28.9683 175.705 26.4907 174.456 23.8137 174.046C21.1367 173.636 18.3987 174.087 15.9946 175.334C13.5904 176.58 11.6445 178.559 10.4375 180.983C9.72707 180.79 8.99435 180.69 8.25807 180.688C6.06997 180.688 3.97147 181.557 2.42425 183.104C0.877027 184.651 0.0078125 186.75 0.0078125 188.938C0.0078125 191.126 0.877027 193.224 2.42425 194.772C3.97147 196.319 6.06997 197.188 8.25807 197.188L8.23745 197.167Z" fill="#407BFF"/>
<path d="M17.0848 184.985H25.0326C25.0963 184.984 25.1591 185 25.2144 185.032C25.2697 185.064 25.3155 185.11 25.3471 185.165C25.3787 185.22 25.3948 185.283 25.3939 185.347C25.393 185.411 25.3751 185.473 25.342 185.528L21.3612 192.142C21.3294 192.194 21.2845 192.238 21.2309 192.268C21.1773 192.298 21.1168 192.314 21.0553 192.314C20.9937 192.314 20.9332 192.298 20.8797 192.268C20.8261 192.238 20.7811 192.194 20.7493 192.142L16.7823 185.521C16.7512 185.467 16.7347 185.406 16.7344 185.344C16.7341 185.282 16.75 185.22 16.7805 185.166C16.8111 185.112 16.8552 185.067 16.9085 185.035C16.9619 185.003 17.0227 184.986 17.0848 184.985Z" fill="white"/>
<path d="M21.3557 182.585H20.7713C20.4143 182.585 20.125 182.874 20.125 183.231V188.745C20.125 189.102 20.4143 189.392 20.7713 189.392H21.3557C21.7126 189.392 22.0019 189.102 22.0019 188.745V183.231C22.0019 182.874 21.7126 182.585 21.3557 182.585Z" fill="white"/>
<path d="M45.816 57.3118H13.53C11.3884 57.3118 9.65234 59.0478 9.65234 61.1894V93.2073C9.65234 95.3488 11.3884 97.0849 13.53 97.0849H45.816C47.9575 97.0849 49.6936 95.3488 49.6936 93.2073V61.1894C49.6936 59.0478 47.9575 57.3118 45.816 57.3118Z" fill="#FC826A"/>
<path d="M46.5997 97.0849C47.4203 97.0849 48.2072 96.759 48.7874 96.1788C49.3676 95.5986 49.6936 94.8116 49.6936 93.9911V60.4057C49.6929 59.8069 49.5184 59.2212 49.1913 58.7196C48.8643 58.218 48.3987 57.8221 47.851 57.58C33.915 79.2438 18.7001 89.3984 9.65235 93.8742V93.9911C9.65144 94.3976 9.73084 94.8004 9.886 95.1761C10.0412 95.5519 10.269 95.8933 10.5565 96.1808C10.844 96.4683 11.1854 96.6961 11.5612 96.8513C11.9369 97.0064 12.3397 97.0858 12.7462 97.0849H46.5997Z" fill="#FF9670"/>
<path d="M48.2708 54.8711H11.069C8.92748 54.8711 7.19141 56.6072 7.19141 58.7487V95.648C7.19141 97.7895 8.92748 99.5256 11.069 99.5256H48.2708C50.4124 99.5256 52.1484 97.7895 52.1484 95.648V58.7487C52.1484 56.6072 50.4124 54.8711 48.2708 54.8711Z" stroke="#FF9670" stroke-width="2" stroke-miterlimit="10"/>
<path d="M18.7271 85.5689H29.6175C29.8191 85.5692 30.017 85.5143 30.1898 85.4103C30.3625 85.3063 30.5036 85.157 30.5977 84.9787C30.6918 84.8003 30.7354 84.5997 30.7238 84.3984C30.7122 84.1971 30.6459 84.0027 30.5319 83.8364L25.0867 75.8267C24.9851 75.6779 24.8488 75.556 24.6894 75.4718C24.53 75.3876 24.3525 75.3436 24.1723 75.3436C23.9921 75.3436 23.8146 75.3876 23.6552 75.4718C23.4959 75.556 23.3595 75.6779 23.2579 75.8267L17.8127 83.8364C17.7012 84.0033 17.6369 84.1972 17.6265 84.3976C17.6161 84.598 17.6601 84.7976 17.7538 84.9751C17.8475 85.1526 17.9874 85.3015 18.1587 85.406C18.33 85.5105 18.5264 85.5668 18.7271 85.5689Z" fill="white"/>
<path d="M28.9519 85.5689H39.8354C40.037 85.5691 40.2349 85.5143 40.4077 85.4102C40.5804 85.3062 40.7215 85.157 40.8156 84.9787C40.9097 84.8003 40.9533 84.5997 40.9417 84.3983C40.9302 84.197 40.8638 84.0027 40.7498 83.8364L35.3115 75.8267C35.2092 75.6778 35.0721 75.5561 34.9122 75.472C34.7523 75.3878 34.5743 75.3439 34.3937 75.3439C34.213 75.3439 34.035 75.3878 33.8751 75.472C33.7152 75.5561 33.5782 75.6778 33.4758 75.8267L28.0375 83.8364C27.9235 84.0027 27.8572 84.197 27.8456 84.3983C27.834 84.5997 27.8776 84.8003 27.9717 84.9787C28.0658 85.157 28.2069 85.3062 28.3796 85.4102C28.5524 85.5143 28.7503 85.5691 28.9519 85.5689Z" fill="white"/>
<path d="M31.254 70.9247C31.254 71.3327 31.1331 71.7315 30.9064 72.0706C30.6798 72.4098 30.3577 72.6742 29.9808 72.8303C29.6039 72.9864 29.1892 73.0273 28.7891 72.9477C28.389 72.8681 28.0215 72.6716 27.733 72.3832C27.4446 72.0947 27.2481 71.7272 27.1685 71.3271C27.089 70.927 27.1298 70.5123 27.2859 70.1354C27.442 69.7585 27.7064 69.4364 28.0456 69.2098C28.3848 68.9831 28.7835 68.8622 29.1915 68.8622C29.7385 68.8622 30.2631 69.0795 30.6499 69.4663C31.0367 69.8531 31.254 70.3777 31.254 70.9247Z" fill="white"/>
<path d="M57.4506 94.1286L49.2691 102.303C49.2043 102.37 49.1226 102.418 49.0327 102.442C48.9429 102.466 48.8482 102.465 48.7587 102.44C48.6692 102.415 48.5882 102.365 48.5244 102.298C48.4605 102.23 48.4161 102.147 48.3959 102.056L45.6871 91.1517C45.6655 91.0643 45.6669 90.9729 45.691 90.8862C45.7152 90.7995 45.7613 90.7206 45.8249 90.6569C45.8885 90.5933 45.9675 90.5472 46.0542 90.5231C46.1409 90.4989 46.2323 90.4976 46.3196 90.5191L57.2168 93.2692C57.3026 93.2943 57.3804 93.341 57.443 93.4048C57.5056 93.4686 57.5507 93.5473 57.5742 93.6335C57.5976 93.7197 57.5986 93.8105 57.5769 93.8972C57.5553 93.9839 57.5118 94.0635 57.4506 94.1286Z" fill="white"/>
<path d="M57.4983 103.393L58.5153 102.377C58.7679 102.125 58.7682 101.716 58.5161 101.464L52.4251 95.3619C52.1729 95.1093 51.7637 95.1089 51.5111 95.3611L50.4941 96.3762C50.2415 96.6284 50.2412 97.0376 50.4934 97.2902L56.5844 103.392C56.8365 103.644 57.2457 103.645 57.4983 103.393Z" fill="white"/>
<path d="M144.336 193.737C145.023 190.324 142.813 187 139.399 186.313C135.986 185.626 132.661 187.836 131.974 191.249C131.287 194.663 133.498 197.987 136.911 198.674C140.325 199.361 143.649 197.151 144.336 193.737Z" fill="#407BFF"/>
<path d="M139.719 189.172C139.685 189.087 139.641 189.006 139.588 188.931L139.554 188.883C139.512 188.823 139.466 188.765 139.416 188.711L139.375 188.67C139.242 188.543 139.089 188.441 138.921 188.367H138.866L138.66 188.298H138.584C138.493 188.291 138.401 188.291 138.309 188.298H137.958C137.867 188.292 137.775 188.292 137.683 188.298H137.608L137.402 188.367H137.347C137.179 188.441 137.026 188.543 136.893 188.67L136.858 188.711C136.805 188.763 136.756 188.821 136.714 188.883L136.68 188.931C136.629 189.007 136.586 189.088 136.549 189.172C136.466 189.36 136.424 189.564 136.425 189.77V190.698C136.419 190.737 136.421 190.777 136.432 190.816C136.443 190.854 136.462 190.889 136.488 190.92C136.513 190.95 136.546 190.974 136.582 190.991C136.618 191.008 136.657 191.016 136.697 191.016C136.737 191.016 136.776 191.008 136.812 190.991C136.848 190.974 136.88 190.95 136.906 190.92C136.932 190.889 136.951 190.854 136.962 190.816C136.972 190.777 136.975 190.737 136.968 190.698V189.797C136.968 189.662 136.996 189.529 137.051 189.405C137.085 189.329 137.129 189.257 137.182 189.192L137.223 189.137C137.278 189.075 137.34 189.02 137.408 188.972C137.471 188.933 137.538 188.901 137.608 188.876H137.677C137.76 188.854 137.845 188.842 137.931 188.842H138.282C138.368 188.842 138.453 188.854 138.536 188.876H138.605C138.674 188.901 138.741 188.933 138.804 188.972C138.872 189.02 138.935 189.075 138.99 189.137L139.038 189.192C139.086 189.259 139.127 189.331 139.162 189.405C139.217 189.529 139.245 189.662 139.244 189.797V190.725C139.238 190.765 139.24 190.805 139.251 190.843C139.262 190.881 139.281 190.917 139.307 190.947C139.332 190.977 139.364 191.002 139.401 191.018C139.437 191.035 139.476 191.044 139.516 191.044C139.556 191.044 139.595 191.035 139.631 191.018C139.667 191.002 139.699 190.977 139.725 190.947C139.751 190.917 139.77 190.881 139.78 190.843C139.791 190.805 139.794 190.765 139.787 190.725V189.797C139.81 189.586 139.787 189.373 139.719 189.172Z" fill="white"/>
<path d="M138.138 194.486C138.066 194.486 137.997 194.458 137.946 194.408C137.894 194.358 137.865 194.29 137.863 194.218V193.235C137.857 193.196 137.859 193.155 137.87 193.117C137.88 193.079 137.899 193.043 137.925 193.013C137.951 192.983 137.983 192.958 138.019 192.942C138.055 192.925 138.095 192.917 138.134 192.917C138.174 192.917 138.213 192.925 138.25 192.942C138.286 192.958 138.318 192.983 138.344 193.013C138.369 193.043 138.388 193.079 138.399 193.117C138.41 193.155 138.412 193.196 138.406 193.235V194.191C138.409 194.228 138.404 194.265 138.392 194.3C138.38 194.336 138.361 194.368 138.335 194.396C138.31 194.424 138.28 194.446 138.246 194.461C138.212 194.477 138.175 194.485 138.138 194.486Z" fill="white"/>
<path d="M139.643 196.308H136.625C136.26 196.308 135.911 196.163 135.653 195.905C135.395 195.647 135.25 195.298 135.25 194.933V191.915C135.25 191.55 135.395 191.2 135.653 190.942C135.911 190.685 136.26 190.54 136.625 190.54H139.643C140.008 190.54 140.358 190.685 140.616 190.942C140.873 191.2 141.018 191.55 141.018 191.915V194.933C141.018 195.298 140.873 195.647 140.616 195.905C140.358 196.163 140.008 196.308 139.643 196.308ZM136.625 191.124C136.41 191.124 136.204 191.21 136.051 191.362C135.899 191.514 135.814 191.72 135.814 191.935V194.954C135.814 195.169 135.899 195.375 136.051 195.527C136.204 195.679 136.41 195.765 136.625 195.765H139.643C139.858 195.765 140.065 195.679 140.217 195.527C140.369 195.375 140.455 195.169 140.455 194.954V191.935C140.455 191.72 140.369 191.514 140.217 191.362C140.065 191.21 139.858 191.124 139.643 191.124H136.625Z" fill="white"/>
<path d="M138.708 193.235C138.708 193.386 138.648 193.531 138.541 193.638C138.434 193.745 138.288 193.805 138.137 193.805C137.986 193.805 137.841 193.745 137.734 193.638C137.627 193.531 137.566 193.386 137.566 193.235C137.566 193.083 137.627 192.938 137.734 192.831C137.841 192.724 137.986 192.664 138.137 192.664C138.212 192.664 138.286 192.679 138.355 192.708C138.425 192.736 138.488 192.778 138.541 192.831C138.594 192.884 138.636 192.947 138.664 193.016C138.693 193.086 138.708 193.16 138.708 193.235Z" fill="white"/>
<path d="M153.944 27.5347C154.741 24.1452 152.639 20.7515 149.25 19.9546C145.86 19.1577 142.466 21.2594 141.669 24.6489C140.873 28.0384 142.974 31.4322 146.364 32.2291C149.753 33.0259 153.147 30.9242 153.944 27.5347Z" fill="#407BFF"/>
<path d="M149.392 22.7845C149.356 22.7007 149.312 22.6202 149.262 22.5438L149.227 22.4957C149.185 22.4338 149.137 22.3762 149.083 22.3238V22.2826C148.95 22.1563 148.797 22.054 148.629 21.9801H148.574L148.368 21.9113H148.292C148.201 21.9012 148.109 21.9012 148.017 21.9113H147.667C147.575 21.9008 147.483 21.9008 147.392 21.9113H147.316L147.11 21.9801H147.055C146.887 22.054 146.734 22.1563 146.601 22.2826L146.56 22.3238C146.51 22.3781 146.464 22.4355 146.422 22.4957V22.5438C146.37 22.6187 146.326 22.6994 146.292 22.7845C146.209 22.9729 146.167 23.1767 146.168 23.3826V24.3108C146.178 24.3754 146.211 24.4342 146.261 24.4767C146.311 24.5191 146.374 24.5424 146.44 24.5424C146.505 24.5424 146.568 24.5191 146.618 24.4767C146.668 24.4342 146.701 24.3754 146.711 24.3108V23.417C146.713 23.1984 146.785 22.9863 146.917 22.812L146.897 22.7295C146.952 22.6674 147.014 22.612 147.082 22.5645C147.145 22.5255 147.212 22.4933 147.282 22.4682H147.351C147.434 22.4462 147.519 22.4347 147.605 22.4338H147.956C148.041 22.4347 148.127 22.4462 148.21 22.4682H148.279C148.348 22.4933 148.415 22.5255 148.478 22.5645C148.546 22.612 148.608 22.6674 148.664 22.7295L148.705 22.7845C148.757 22.8497 148.801 22.9213 148.836 22.9976C148.89 23.1209 148.919 23.2545 148.918 23.3895V24.3177C148.928 24.3823 148.961 24.4411 149.011 24.4835C149.061 24.526 149.124 24.5493 149.19 24.5493C149.255 24.5493 149.318 24.526 149.368 24.4835C149.418 24.4411 149.451 24.3823 149.461 24.3177V23.417C149.485 23.2037 149.462 22.9877 149.392 22.7845Z" fill="white"/>
<path d="M147.803 28.099C147.731 28.0972 147.663 28.0675 147.613 28.0161C147.563 27.9647 147.535 27.8958 147.535 27.824V26.8546C147.528 26.8153 147.531 26.7751 147.542 26.7368C147.552 26.6986 147.571 26.663 147.597 26.6328C147.623 26.6025 147.655 26.5782 147.691 26.5615C147.727 26.5449 147.766 26.5363 147.806 26.5363C147.846 26.5363 147.885 26.5449 147.921 26.5615C147.958 26.5782 147.99 26.6025 148.015 26.6328C148.041 26.663 148.06 26.6986 148.071 26.7368C148.082 26.7751 148.084 26.8153 148.078 26.8546V27.8034C148.081 27.8412 148.076 27.8792 148.063 27.915C148.051 27.9508 148.031 27.9836 148.005 28.0113C147.979 28.0391 147.948 28.0612 147.913 28.0763C147.878 28.0914 147.841 28.0991 147.803 28.099Z" fill="white"/>
<path d="M149.315 29.921H146.297C145.932 29.921 145.582 29.7761 145.325 29.5182C145.067 29.2603 144.922 28.9106 144.922 28.5459V25.5483C144.922 25.1836 145.067 24.8339 145.325 24.576C145.582 24.3181 145.932 24.1733 146.297 24.1733H149.315C149.68 24.1733 150.03 24.3181 150.287 24.576C150.545 24.8339 150.69 25.1836 150.69 25.5483V28.5665C150.685 28.9276 150.537 29.2721 150.28 29.5255C150.023 29.779 149.676 29.921 149.315 29.921ZM146.297 24.737C146.088 24.7459 145.89 24.8353 145.745 24.9865C145.601 25.1377 145.52 25.339 145.52 25.5483V28.5665C145.52 28.6731 145.541 28.7786 145.582 28.877C145.623 28.9754 145.682 29.0649 145.758 29.1402C145.833 29.2155 145.922 29.2753 146.021 29.3161C146.119 29.3568 146.225 29.3778 146.331 29.3778H149.35C149.456 29.3778 149.562 29.3568 149.66 29.3161C149.758 29.2753 149.848 29.2155 149.923 29.1402C149.998 29.0649 150.058 28.9754 150.099 28.877C150.14 28.7786 150.161 28.6731 150.161 28.5665V25.5483C150.161 25.3332 150.075 25.1268 149.923 24.9747C149.771 24.8225 149.565 24.737 149.35 24.737H146.297Z" fill="white"/>
<path d="M148.383 26.8546C148.381 27.0066 148.319 27.1517 148.211 27.2585C148.103 27.3654 147.957 27.4253 147.805 27.4253C147.654 27.4253 147.509 27.3651 147.402 27.2581C147.294 27.1511 147.234 27.006 147.234 26.8546C147.234 26.7026 147.294 26.5568 147.401 26.4487C147.508 26.3405 147.653 26.2789 147.805 26.2771C147.958 26.2789 148.103 26.3403 148.211 26.4482C148.319 26.5561 148.381 26.702 148.383 26.8546Z" fill="white"/>
<path d="M220.793 174.837H206.837C206.111 174.837 205.523 175.425 205.523 176.15V184.077C205.523 184.802 206.111 185.39 206.837 185.39H220.793C221.519 185.39 222.106 184.802 222.106 184.077V176.15C222.106 175.425 221.519 174.837 220.793 174.837Z" fill="#D6D6D6"/>
<g style="mix-blend-mode:multiply">
<path d="M221.148 174.837H206.484C206.291 174.838 206.103 174.897 205.943 175.006C205.784 175.115 205.661 175.269 205.59 175.449L213.242 182.42C213.403 182.551 213.605 182.622 213.813 182.622C214.02 182.622 214.222 182.551 214.383 182.42L222.035 175.449C221.967 175.269 221.846 175.114 221.687 175.005C221.529 174.895 221.341 174.837 221.148 174.837Z" fill="#E6E6E6"/>
</g>
<path d="M221.148 174.837H206.484C206.291 174.838 206.103 174.897 205.943 175.006C205.784 175.115 205.661 175.269 205.59 175.449L213.242 181.409C213.403 181.54 213.605 181.611 213.813 181.611C214.02 181.611 214.222 181.54 214.383 181.409L222.035 175.449C221.967 175.269 221.846 175.114 221.687 175.005C221.529 174.895 221.341 174.837 221.148 174.837Z" fill="#E6E6E6"/>
<path d="M183.743 65.5896H171.106C170.381 65.5896 169.793 66.1775 169.793 66.9028V73.9911C169.793 74.7164 170.381 75.3043 171.106 75.3043H183.743C184.468 75.3043 185.056 74.7164 185.056 73.9911V66.9028C185.056 66.1775 184.468 65.5896 183.743 65.5896Z" fill="white"/>
<g style="mix-blend-mode:multiply">
<path d="M184.174 65.5964H170.678C170.5 65.5961 170.327 65.6499 170.18 65.7506C170.034 65.8513 169.922 65.9942 169.859 66.1602L176.9 72.5748C177.049 72.6947 177.234 72.7602 177.426 72.7602C177.617 72.7602 177.802 72.6947 177.951 72.5748L184.999 66.1602C184.934 65.9942 184.82 65.8516 184.673 65.7511C184.526 65.6505 184.352 65.5966 184.174 65.5964Z" fill="#E6E6E6"/>
</g>
<path d="M184.174 65.5964H170.678C170.5 65.5961 170.327 65.6499 170.18 65.7506C170.034 65.8513 169.922 65.9942 169.859 66.1602L176.9 71.6604C177.049 71.7803 177.234 71.8458 177.426 71.8458C177.617 71.8458 177.802 71.7803 177.951 71.6604L184.999 66.1602C184.934 65.9942 184.82 65.8516 184.673 65.7511C184.526 65.6505 184.352 65.5966 184.174 65.5964Z" fill="white"/>
<path d="M217.897 182.393L216.433 183.933H204.271C204.046 183.935 203.823 183.983 203.617 184.072C203.41 184.161 203.223 184.29 203.066 184.451C202.91 184.613 202.787 184.804 202.704 185.014C202.622 185.223 202.582 185.447 202.586 185.672V198.261C202.59 198.714 202.773 199.148 203.095 199.467C203.416 199.786 203.852 199.966 204.305 199.966L223.418 199.918C223.644 199.918 223.867 199.873 224.075 199.787C224.283 199.7 224.472 199.573 224.631 199.414C224.79 199.254 224.916 199.064 225.002 198.856C225.087 198.647 225.131 198.424 225.13 198.199V185.328V183.011C225.13 182.762 225.031 182.522 224.854 182.345C224.678 182.169 224.438 182.069 224.188 182.069H218.612C218.477 182.071 218.344 182.1 218.221 182.155C218.098 182.211 217.987 182.292 217.897 182.393Z" fill="#FFC987"/>
<path d="M26.0977 10.1478H8.37337C6.83176 10.1478 5.58203 11.3976 5.58203 12.9392V20.495C5.58203 22.0366 6.83176 23.2864 8.37337 23.2864H26.0977C27.6393 23.2864 28.889 22.0366 28.889 20.495V12.9392C28.889 11.3976 27.6393 10.1478 26.0977 10.1478Z" fill="#3D517D"/>
<path d="M8.82879 12.9941H8.34752C7.983 12.9941 7.6875 13.2896 7.6875 13.6542V13.7779C7.6875 14.1424 7.983 14.4379 8.34752 14.4379H8.82879C9.19331 14.4379 9.48881 14.1424 9.48881 13.7779V13.6542C9.48881 13.2896 9.19331 12.9941 8.82879 12.9941Z" fill="#FC826A"/>
<path d="M16.0397 12.9941H15.5585C15.1939 12.9941 14.8984 13.2896 14.8984 13.6542V13.7779C14.8984 14.1424 15.1939 14.4379 15.5585 14.4379H16.0397C16.4042 14.4379 16.6997 14.1424 16.6997 13.7779V13.6542C16.6997 13.2896 16.4042 12.9941 16.0397 12.9941Z" fill="#FC826A"/>
<path d="M13.0784 12.9941H11.3046C10.94 12.9941 10.6445 13.2896 10.6445 13.6542V13.7779C10.6445 14.1424 10.94 14.4379 11.3046 14.4379H13.0784C13.4429 14.4379 13.7384 14.1424 13.7384 13.7779V13.6542C13.7384 13.2896 13.4429 12.9941 13.0784 12.9941Z" fill="#FFC182"/>
<path d="M25.4049 12.9941H19.121C18.7564 12.9941 18.4609 13.2896 18.4609 13.6542V13.7779C18.4609 14.1424 18.7564 14.4379 19.121 14.4379H25.4049C25.7694 14.4379 26.0649 14.1424 26.0649 13.7779V13.6542C26.0649 13.2896 25.7694 12.9941 25.4049 12.9941Z" fill="#FC826A"/>
<path d="M8.82879 19.0031H8.34752C7.983 19.0031 7.6875 19.2986 7.6875 19.6631V19.7869C7.6875 20.1514 7.983 20.4469 8.34752 20.4469H8.82879C9.19331 20.4469 9.48881 20.1514 9.48881 19.7869V19.6631C9.48881 19.2986 9.19331 19.0031 8.82879 19.0031Z" fill="#FFC182"/>
<path d="M26.1257 19.0031H25.6444C25.2799 19.0031 24.9844 19.2986 24.9844 19.6631V19.7869C24.9844 20.1514 25.2799 20.4469 25.6444 20.4469H26.1257C26.4902 20.4469 26.7857 20.1514 26.7857 19.7869V19.6631C26.7857 19.2986 26.4902 19.0031 26.1257 19.0031Z" fill="#FFC182"/>
<path d="M13.0784 19.0031H11.3046C10.94 19.0031 10.6445 19.2986 10.6445 19.6631V19.7869C10.6445 20.1514 10.94 20.4469 11.3046 20.4469H13.0784C13.4429 20.4469 13.7384 20.1514 13.7384 19.7869V19.6631C13.7384 19.2986 13.4429 19.0031 13.0784 19.0031Z" fill="#FC826A"/>
<path d="M22.8122 19.0031H17.5389C17.1744 19.0031 16.8789 19.2986 16.8789 19.6631V19.7869C16.8789 20.1514 17.1744 20.4469 17.5389 20.4469H22.8122C23.1767 20.4469 23.4722 20.1514 23.4722 19.7869V19.6631C23.4722 19.2986 23.1767 19.0031 22.8122 19.0031Z" fill="#FFC182"/>
<path d="M8.82879 15.9711H8.34752C7.983 15.9711 7.6875 16.2666 7.6875 16.6312V16.7549C7.6875 17.1194 7.983 17.4149 8.34752 17.4149H8.82879C9.19331 17.4149 9.48881 17.1194 9.48881 16.7549V16.6312C9.48881 16.2666 9.19331 15.9711 8.82879 15.9711Z" fill="#FFC182"/>
<path d="M11.6257 15.9711H11.1444C10.7799 15.9711 10.4844 16.2666 10.4844 16.6312V16.7549C10.4844 17.1194 10.7799 17.4149 11.1444 17.4149H11.6257C11.9902 17.4149 12.2857 17.1194 12.2857 16.7549V16.6312C12.2857 16.2666 11.9902 15.9711 11.6257 15.9711Z" fill="#FC826A"/>
<path d="M17.4229 15.9711H14.3085C13.9439 15.9711 13.6484 16.2666 13.6484 16.6312V16.7549C13.6484 17.1194 13.9439 17.4149 14.3085 17.4149H17.4229C17.7874 17.4149 18.083 17.1194 18.083 16.7549V16.6312C18.083 16.2666 17.7874 15.9711 17.4229 15.9711Z" fill="#FFC182"/>
<path d="M26.0977 0H8.37337C6.83176 0 5.58203 1.24972 5.58203 2.79134V6.03644C5.58203 7.57805 6.83176 8.82778 8.37337 8.82778H26.0977C27.6393 8.82778 28.889 7.57805 28.889 6.03644V2.79134C28.889 1.24972 27.6393 0 26.0977 0Z" fill="#3D517D"/>
<path d="M8.82879 5.20453H8.34752C7.983 5.20453 7.6875 5.50003 7.6875 5.86455V5.9883C7.6875 6.35282 7.983 6.64832 8.34752 6.64832H8.82879C9.19331 6.64832 9.48881 6.35282 9.48881 5.9883V5.86455C9.48881 5.50003 9.19331 5.20453 8.82879 5.20453Z" fill="#FFC182"/>
<path d="M26.1257 5.20453H25.6444C25.2799 5.20453 24.9844 5.50003 24.9844 5.86455V5.9883C24.9844 6.35282 25.2799 6.64832 25.6444 6.64832H26.1257C26.4902 6.64832 26.7857 6.35282 26.7857 5.9883V5.86455C26.7857 5.50003 26.4902 5.20453 26.1257 5.20453Z" fill="#FFC182"/>
<path d="M13.0784 5.20453H11.3046C10.94 5.20453 10.6445 5.50003 10.6445 5.86455V5.9883C10.6445 6.35282 10.94 6.64832 11.3046 6.64832H13.0784C13.4429 6.64832 13.7384 6.35282 13.7384 5.9883V5.86455C13.7384 5.50003 13.4429 5.20453 13.0784 5.20453Z" fill="#FC826A"/>
<path d="M22.8122 5.20453H17.5389C17.1744 5.20453 16.8789 5.50003 16.8789 5.86455V5.9883C16.8789 6.35282 17.1744 6.64832 17.5389 6.64832H22.8122C23.1767 6.64832 23.4722 6.35282 23.4722 5.9883V5.86455C23.4722 5.50003 23.1767 5.20453 22.8122 5.20453Z" fill="#FFC182"/>
<path d="M8.82879 2.17255H8.34752C7.983 2.17255 7.6875 2.46805 7.6875 2.83257V2.95632C7.6875 3.32084 7.983 3.61634 8.34752 3.61634H8.82879C9.19331 3.61634 9.48881 3.32084 9.48881 2.95632V2.83257C9.48881 2.46805 9.19331 2.17255 8.82879 2.17255Z" fill="#FFC182"/>
<path d="M11.6257 2.17255H11.1444C10.7799 2.17255 10.4844 2.46805 10.4844 2.83257V2.95632C10.4844 3.32084 10.7799 3.61634 11.1444 3.61634H11.6257C11.9902 3.61634 12.2857 3.32084 12.2857 2.95632V2.83257C12.2857 2.46805 11.9902 2.17255 11.6257 2.17255Z" fill="#FC826A"/>
<path d="M17.4229 2.17255H14.3085C13.9439 2.17255 13.6484 2.46805 13.6484 2.83257V2.95632C13.6484 3.32084 13.9439 3.61634 14.3085 3.61634H17.4229C17.7874 3.61634 18.083 3.32084 18.083 2.95632V2.83257C18.083 2.46805 17.7874 2.17255 17.4229 2.17255Z" fill="#FFC182"/>
</g>
<defs>
<clipPath id="clip0_1184_22890">
<rect width="225.136" height="200" fill="white"/>
</clipPath>
</defs>
</svg>
