<svg width="192" height="200" viewBox="0 0 192 200" fill="none" xmlns="http://www.w3.org/2000/svg">
<g clip-path="url(#clip0_1188_24841)">
<path d="M14.4832 77.9707C14.4832 77.5913 14.5329 76.5839 14.5329 76.1638C14.5329 74.3252 13.8779 73.494 12.1658 73.4533C11.3571 73.4036 10.8828 72.9248 10.8828 72.2472C10.8825 72.0819 10.9161 71.9183 10.9814 71.7665C11.0467 71.6147 11.1424 71.4779 11.2626 71.3645C11.3828 71.2511 11.5249 71.1635 11.6802 71.107C11.8356 71.0506 12.0008 71.0266 12.1658 71.0365C13.8779 70.9642 14.5329 70.133 14.5329 68.2944C14.5329 67.8653 14.4832 66.8579 14.4832 66.4874C14.4832 64.048 15.5132 62.485 19.4162 61.6312C19.6851 61.5582 19.9717 61.591 20.2171 61.7229C20.4625 61.8548 20.6479 62.0758 20.7353 62.3403C20.8228 62.6048 20.8054 62.8928 20.6869 63.1449C20.5684 63.397 20.3578 63.5942 20.0984 63.6957C17.6544 64.4501 17.3021 65.2316 17.3021 66.9437C17.3021 67.4451 17.3518 68.2989 17.3518 68.8049C17.3518 70.77 16.3941 71.7277 14.7317 72.2562C16.4212 72.8073 17.3518 73.7424 17.3518 75.703C17.3518 76.2361 17.3021 77.0582 17.3021 77.5687C17.3021 79.2808 17.6544 80.0623 20.0984 80.8167C20.3578 80.9182 20.5684 81.1154 20.6869 81.3675C20.8054 81.6196 20.8228 81.9076 20.7353 82.1721C20.6479 82.4366 20.4625 82.6576 20.2171 82.7895C19.9717 82.9214 19.6851 82.9542 19.4162 82.8812C15.5132 82.0003 14.4832 80.4373 14.4832 77.9707Z" fill="#EBEBEB"/>
<path d="M29.2384 66.4604C29.2384 66.8399 29.1887 67.8472 29.1887 68.2674C29.1887 70.1285 29.8663 70.9372 31.5784 71.0094C31.7433 70.9994 31.9086 71.0231 32.0639 71.0793C32.2193 71.1355 32.3615 71.2228 32.4819 71.336C32.6022 71.4492 32.6981 71.5859 32.7636 71.7375C32.8292 71.8892 32.863 72.0526 32.863 72.2179C32.863 72.3831 32.8292 72.5465 32.7636 72.6982C32.6981 72.8498 32.6022 72.9865 32.4819 73.0997C32.3615 73.2129 32.2193 73.3003 32.0639 73.3564C31.9086 73.4126 31.7433 73.4364 31.5784 73.4263C29.8663 73.476 29.1887 74.3072 29.1887 76.1367C29.1887 76.5659 29.2384 77.5733 29.2384 77.9437C29.2384 80.4102 28.2039 81.9732 24.3054 82.827C24.1442 82.88 23.9726 82.8935 23.8051 82.8662C23.6376 82.8389 23.4791 82.7716 23.3431 82.6702C23.2071 82.5687 23.0975 82.436 23.0236 82.2832C22.9497 82.1305 22.9137 81.9622 22.9185 81.7925C22.9111 81.5645 22.9787 81.3402 23.1108 81.1542C23.243 80.9682 23.4325 80.8306 23.6503 80.7626C26.0672 80.0082 26.4195 79.2266 26.4195 77.5145C26.4195 77.0086 26.3698 76.1593 26.3698 75.6488C26.3698 73.6883 27.323 72.7306 28.9854 72.202C27.3004 71.6464 26.3698 70.7158 26.3698 68.7507C26.3698 68.2222 26.4195 67.3955 26.4195 66.8896C26.4195 65.1775 26.0672 64.3959 23.6503 63.6415C23.3891 63.5447 23.1752 63.351 23.053 63.1007C22.9308 62.8504 22.9096 62.5626 22.9938 62.2971C23.0781 62.0315 23.2613 61.8086 23.5055 61.6746C23.7497 61.5405 24.0361 61.5056 24.3054 61.5771C28.2039 62.458 29.2384 64.021 29.2384 66.4604Z" fill="#EBEBEB"/>
<path d="M77.7379 45.1742C77.8765 45.3127 77.9865 45.4771 78.0615 45.6581C78.1366 45.8391 78.1752 46.0331 78.1752 46.2291C78.1752 46.425 78.1366 46.619 78.0615 46.8C77.9865 46.981 77.8765 47.1454 77.7379 47.2839C77.4596 47.5519 77.0897 47.7038 76.7034 47.7085C76.3039 47.7096 75.9192 47.5576 75.6282 47.2839L69.0418 40.6116C69.0112 40.6001 68.9842 40.5806 68.9636 40.5552C68.943 40.5298 68.9294 40.4994 68.9244 40.4671C68.9025 40.4488 68.8781 40.4336 68.8521 40.4219C68.8196 40.3626 68.7968 40.2986 68.7843 40.2322C68.7655 40.2246 68.749 40.2124 68.7363 40.1965C68.7236 40.1807 68.7153 40.1618 68.712 40.1418C68.6895 40.0921 68.6895 40.0244 68.6669 40.0018C68.6443 39.9792 68.6172 39.9069 68.6172 39.8843V39.7172C68.6172 39.672 68.6172 39.6494 68.6172 39.5771C68.6172 39.5049 68.6172 39.4823 68.6172 39.4597V39.3016C68.6172 39.2564 68.6669 39.2293 68.6669 39.2067C68.6669 39.1841 68.6669 39.0893 68.712 39.0215C68.7572 38.9537 68.712 38.9944 68.712 38.9718C68.712 38.9492 68.7843 38.8092 68.8295 38.764C68.8295 38.7575 68.8308 38.751 68.8333 38.745C68.8358 38.739 68.8394 38.7335 68.8441 38.7289C68.8487 38.7243 68.8542 38.7206 68.8602 38.7181C68.8662 38.7156 68.8727 38.7143 68.8792 38.7143C68.9107 38.6487 68.959 38.5925 69.0192 38.5517L75.6056 31.8704C75.8908 31.601 76.2682 31.4509 76.6605 31.4509C77.0527 31.4509 77.4301 31.601 77.7153 31.8704C77.8539 32.0089 77.9639 32.1733 78.0389 32.3543C78.114 32.5353 78.1526 32.7293 78.1526 32.9252C78.1526 33.1212 78.114 33.3152 78.0389 33.4962C77.9639 33.6772 77.8539 33.8416 77.7153 33.9801L72.1588 39.5817L77.7379 45.1742Z" fill="#EBEBEB"/>
<path d="M98.4653 33.7047C98.3266 33.5662 98.2166 33.4018 98.1416 33.2208C98.0665 33.0398 98.0279 32.8458 98.0279 32.6498C98.0279 32.4539 98.0665 32.2599 98.1416 32.0789C98.2166 31.8979 98.3266 31.7335 98.4653 31.595C98.7435 31.327 99.1134 31.1751 99.4997 31.1704C99.8992 31.1693 100.284 31.3213 100.575 31.595L107.161 38.2673C107.192 38.2788 107.219 38.2983 107.24 38.3237C107.26 38.3491 107.274 38.3795 107.279 38.4118C107.301 38.4301 107.325 38.4453 107.351 38.457C107.383 38.5163 107.406 38.5803 107.419 38.6467C107.438 38.6543 107.454 38.6666 107.467 38.6824C107.479 38.6982 107.488 38.7171 107.491 38.7371C107.514 38.7868 107.514 38.8545 107.536 38.8771C107.559 38.8997 107.586 38.972 107.586 38.9946V39.1617C107.586 39.2069 107.586 39.2295 107.586 39.3018C107.586 39.374 107.586 39.3966 107.586 39.4192V39.5773C107.586 39.6225 107.536 39.6496 107.536 39.6722C107.536 39.6948 107.536 39.7896 107.491 39.8574C107.446 39.9252 107.491 39.8845 107.491 39.9071C107.491 39.9297 107.419 40.0697 107.374 40.1149C107.374 40.1214 107.372 40.1279 107.37 40.1339C107.367 40.1399 107.364 40.1454 107.359 40.15C107.354 40.1546 107.349 40.1583 107.343 40.1608C107.337 40.1633 107.33 40.1646 107.324 40.1646C107.292 40.2302 107.244 40.2864 107.184 40.3272L100.597 47.0085C100.312 47.2779 99.9349 47.428 99.5427 47.428C99.1504 47.428 98.773 47.2779 98.4878 47.0085C98.3492 46.87 98.2392 46.7056 98.1642 46.5246C98.0891 46.3436 98.0505 46.1496 98.0505 45.9537C98.0505 45.7577 98.0891 45.5637 98.1642 45.3827C98.2392 45.2017 98.3492 45.0373 98.4878 44.8988L104.044 39.2972L98.4653 33.7047Z" fill="#EBEBEB"/>
<path d="M83.7142 45.9287L89.4559 32.2635C89.5233 32.1067 89.6209 31.9647 89.7433 31.8457C89.8657 31.7267 90.0103 31.633 90.169 31.5701C90.3276 31.5071 90.4971 31.4761 90.6678 31.4788C90.8385 31.4815 91.0069 31.5179 91.1635 31.5859C91.3163 31.6513 91.4547 31.7463 91.5707 31.8654C91.6866 31.9845 91.7779 32.1253 91.8392 32.2798C91.9005 32.4343 91.9306 32.5995 91.9279 32.7657C91.9251 32.9319 91.8895 33.0959 91.823 33.2483L86.0814 46.9361C85.9788 47.1678 85.811 47.3647 85.5984 47.5026C85.3858 47.6406 85.1377 47.7137 84.8843 47.7131C84.7289 47.7119 84.5753 47.6796 84.4325 47.6182C84.2716 47.5582 84.1245 47.4661 84.0003 47.3474C83.8761 47.2287 83.7774 47.086 83.7102 46.9279C83.643 46.7698 83.6087 46.5996 83.6094 46.4279C83.6101 46.2561 83.6458 46.0862 83.7142 45.9287Z" fill="#EBEBEB"/>
<path d="M168.974 133.065L175.009 132.943L177.981 132.889C178.971 132.889 179.951 132.889 180.936 132.867L180.737 133.065L180.71 128.015L180.936 128.236L174.941 128.209C172.949 128.209 170.957 128.159 168.96 128.137L169.086 128.015C169.086 128.841 169.046 129.673 169.023 130.513L168.974 133.065ZM168.974 133.065L168.91 130.567C168.91 129.722 168.861 128.869 168.852 128.015V127.893H168.974C170.97 127.87 172.962 127.821 174.955 127.821L180.936 127.793H181.162V128.024V133.074V133.264H180.958C179.951 133.264 178.939 133.264 177.936 133.241L174.928 133.187L168.974 133.065Z" fill="#EBEBEB"/>
<path d="M175.645 139.439L181.681 139.317L184.653 139.263C185.642 139.263 186.623 139.263 187.608 139.263L187.409 139.462L187.386 134.412L187.608 134.633L181.626 134.606C179.634 134.606 177.642 134.556 175.645 134.534L175.772 134.412C175.772 135.238 175.731 136.069 175.713 136.91L175.645 139.439ZM175.645 139.439L175.582 136.941C175.582 136.097 175.532 135.243 175.523 134.389V134.267H175.645C177.642 134.267 179.634 134.195 181.626 134.195L187.589 134.168H187.82V134.398L187.797 139.448V139.652H187.589C186.582 139.652 185.575 139.652 184.567 139.629L181.559 139.575L175.645 139.439Z" fill="#EBEBEB"/>
<path d="M162.294 139.439L168.329 139.317L171.302 139.263C172.286 139.263 173.271 139.263 174.256 139.263L174.057 139.462L174.039 134.389L174.265 134.61L168.284 134.583C166.292 134.583 164.295 134.534 162.303 134.511L162.425 134.389C162.425 135.216 162.389 136.047 162.366 136.887L162.294 139.439ZM162.294 139.439L162.231 136.941C162.208 136.097 162.181 135.243 162.172 134.389V134.267H162.294C164.286 134.267 166.283 134.195 168.275 134.195L174.265 134.168H174.491V134.398V139.439V139.643H174.292C173.285 139.643 172.273 139.643 171.27 139.62L168.261 139.566L162.294 139.439Z" fill="#EBEBEB"/>
<path d="M8.12649 139.439L14.1573 139.317L17.1297 139.263C18.119 139.263 19.1038 139.263 20.0886 139.263L19.8853 139.462L19.8628 134.412L20.0886 134.633L14.1211 134.583C12.1244 134.583 10.1322 134.534 8.14004 134.511L8.26201 134.389C8.26201 135.216 8.22135 136.047 8.20328 136.887L8.12649 139.439ZM8.12649 139.439L8.05873 136.941C8.05873 136.097 8.00903 135.243 8 134.389V134.267H8.12649C10.1187 134.267 12.1109 134.195 14.1076 134.195L20.0886 134.168H20.3145V134.398L20.2874 139.448V139.652H20.0886C19.0812 139.652 18.0693 139.652 17.062 139.629L14.0533 139.589L8.12649 139.439Z" fill="#EBEBEB"/>
<path d="M8.12649 25.9481L14.1573 25.8216L17.1297 25.7719C18.119 25.7719 19.1038 25.7719 20.0886 25.7448L19.8853 25.9481L19.8628 20.8931L20.0886 21.119L14.1211 21.0919C12.1244 21.0919 10.1322 21.0377 8.14004 21.0151L8.26201 20.8931C8.26201 21.7198 8.22135 22.551 8.20328 23.3958L8.12649 25.9481ZM8.12649 25.9481L8.05873 23.4455C8.05873 22.6052 8.00903 21.7514 8 20.8931V20.7802H8.12649C10.1187 20.7802 12.1109 20.7079 14.1076 20.7034L20.0886 20.6763H20.3145V20.9021L20.2874 25.9571V26.1604H20.0886C19.0812 26.1604 18.0693 26.1604 17.062 26.1333L14.0533 26.0836L8.12649 25.9481Z" fill="#EBEBEB"/>
<path d="M1.47268 32.3222L7.50345 32.1957L10.4759 32.146C11.4652 32.146 12.4455 32.146 13.4348 32.1189L13.2315 32.3222V27.2672L13.4574 27.4931L7.43569 27.466C5.43898 27.466 3.4468 27.4118 1.45461 27.3892L1.57658 27.2672C1.57658 28.0939 1.53593 28.9251 1.51786 29.7698L1.47268 32.3222ZM1.47268 32.3222L1.38685 29.815C1.38685 28.9748 1.33716 28.121 1.32812 27.2627V27.1407H1.47268C3.46487 27.1181 5.45705 27.0684 7.45376 27.0639L13.4348 27.0368H13.6607V27.2627L13.6336 32.3177V32.5255H13.4348C12.4229 32.5255 11.4155 32.5255 10.4082 32.4984L7.39955 32.4487L1.47268 32.3222Z" fill="#EBEBEB"/>
<path d="M175.645 25.9526L181.681 25.8261L184.653 25.7764C185.642 25.7539 186.623 25.7764 187.608 25.7539L187.409 25.9526L187.386 20.8976L187.608 21.1235L181.626 21.0964C179.634 21.0964 177.642 21.0467 175.645 21.0241L175.772 20.8976C175.772 21.7243 175.731 22.56 175.713 23.4003L175.645 25.9526ZM175.645 25.9526L175.582 23.4545C175.582 22.6097 175.532 21.7559 175.523 20.8976V20.7802H175.645C177.642 20.7576 179.634 20.7079 181.626 20.7079L187.589 20.6718H187.82V20.8976L187.797 25.9526V26.1559H187.589C186.582 26.1559 185.575 26.1559 184.567 26.1288L181.559 26.0791L175.645 25.9526Z" fill="#EBEBEB"/>
<path d="M110.891 59.8604L104.86 59.9869L101.888 60.0366C100.899 60.0366 99.9138 60.0366 98.929 60.0366L99.1323 59.8378L99.1549 64.8928L98.929 64.6669L104.91 64.694C106.907 64.694 108.899 64.7437 110.891 64.7663L110.769 64.8928C110.769 64.0661 110.81 63.2304 110.828 62.3901L110.891 59.8604ZM110.891 59.8604L110.959 62.3585C110.959 63.2033 111.009 64.0571 111.018 64.9154V65.0509H110.891C108.899 65.0735 106.907 65.1232 104.91 65.1232L98.929 65.1548H98.7031V64.9289L98.7302 59.8739V59.6707H98.929C99.9364 59.6707 100.948 59.6707 101.956 59.6978L104.964 59.7474L110.891 59.8604Z" fill="#EBEBEB"/>
<path d="M104.216 53.4864L98.1852 53.6128L95.2127 53.6625C94.2234 53.6625 93.2386 53.6625 92.2538 53.6625L92.4571 53.4638L92.4797 58.5188L92.2538 58.2929L98.2349 58.32C100.227 58.32 102.224 58.3697 104.216 58.3923L104.094 58.5188C104.094 57.6921 104.13 56.8564 104.153 56.0161L104.216 53.4864ZM104.216 53.4864L104.279 55.9845C104.302 56.8293 104.333 57.683 104.338 58.5414V58.6633H104.211C102.219 58.6633 100.223 58.7356 98.2304 58.7356L92.2493 58.7672H92.0234V58.5414L92.0505 53.4864V53.3057H92.2719C93.2793 53.3057 94.2912 53.3057 95.2986 53.3328L98.3072 53.3825L104.216 53.4864Z" fill="#EBEBEB"/>
<path d="M154.219 85.4426L155.723 88.7494H190.123L191.623 85.4426H154.219Z" fill="#DBDBDB"/>
<path d="M19.6298 183.891V127.12L7.55469 110.641V79.7732" stroke="#EBEBEB" stroke-miterlimit="10"/>
<path d="M8.62294 78.7161C8.62384 78.9292 8.56143 79.1377 8.44363 79.3152C8.32584 79.4927 8.15797 79.6312 7.96133 79.7131C7.76469 79.795 7.54814 79.8167 7.33916 79.7754C7.13018 79.734 6.93819 79.6315 6.78756 79.4809C6.63693 79.3303 6.53444 79.1383 6.4931 78.9293C6.45176 78.7203 6.47343 78.5038 6.55536 78.3071C6.6373 78.1105 6.7758 77.9426 6.9533 77.8248C7.1308 77.707 7.33929 77.6446 7.55231 77.6455C7.83589 77.6467 8.10752 77.7599 8.30805 77.9604C8.50857 78.1609 8.62175 78.4326 8.62294 78.7161Z" stroke="#EBEBEB" stroke-miterlimit="10"/>
<path d="M16.5165 183.891V129.113L4.44141 112.633V91.0623" stroke="#EBEBEB" stroke-miterlimit="10"/>
<path d="M5.537 90.0097C5.5379 90.2225 5.4756 90.4309 5.35801 90.6083C5.24042 90.7857 5.07282 90.9242 4.87644 91.0062C4.68006 91.0883 4.46374 91.1102 4.25489 91.0693C4.04603 91.0283 3.85404 90.9263 3.70323 90.7761C3.55241 90.6259 3.44956 90.4343 3.40771 90.2257C3.36586 90.017 3.38689 89.8006 3.46813 89.6038C3.54937 89.4071 3.68717 89.2389 3.86407 89.1206C4.04098 89.0023 4.24902 88.9391 4.46186 88.9391C4.74622 88.9391 5.01901 89.0517 5.22051 89.2524C5.42201 89.453 5.53581 89.7254 5.537 90.0097Z" stroke="#EBEBEB" stroke-miterlimit="10"/>
<path d="M22.625 183.891V108.716" stroke="#EBEBEB" stroke-miterlimit="10"/>
<path d="M23.6972 107.641C23.6981 107.854 23.6358 108.062 23.5182 108.24C23.4006 108.417 23.233 108.556 23.0366 108.638C22.8402 108.72 22.6239 108.742 22.415 108.701C22.2062 108.66 22.0142 108.558 21.8634 108.408C21.7126 108.257 21.6097 108.066 21.5679 107.857C21.526 107.648 21.547 107.432 21.6283 107.235C21.7095 107.039 21.8473 106.87 22.0242 106.752C22.2011 106.634 22.4092 106.571 22.622 106.571C22.906 106.572 23.1781 106.685 23.3794 106.885C23.5806 107.086 23.6948 107.357 23.6972 107.641Z" stroke="#EBEBEB" stroke-miterlimit="10"/>
<path d="M25.5117 183.891V145.682L33.7063 130.219V102.5" stroke="#EBEBEB" stroke-miterlimit="10"/>
<path d="M34.7792 101.425C34.7801 101.638 34.7178 101.846 34.6002 102.024C34.4826 102.201 34.315 102.34 34.1186 102.422C33.9223 102.504 33.7059 102.526 33.4971 102.485C33.2882 102.444 33.0962 102.342 32.9454 102.192C32.7946 102.041 32.6918 101.85 32.6499 101.641C32.608 101.433 32.6291 101.216 32.7103 101.019C32.7916 100.823 32.9294 100.654 33.1063 100.536C33.2832 100.418 33.4912 100.355 33.704 100.355C33.845 100.354 33.9847 100.381 34.1151 100.435C34.2456 100.488 34.3641 100.567 34.464 100.667C34.5639 100.766 34.6432 100.884 34.6973 101.014C34.7514 101.145 34.7792 101.284 34.7792 101.425Z" stroke="#EBEBEB" stroke-miterlimit="10"/>
<path d="M28.375 183.891V147.336L38.0423 130.242V111.982" stroke="#EBEBEB" stroke-miterlimit="10"/>
<path d="M39.1151 110.912C39.1151 111.124 39.0521 111.332 38.9339 111.509C38.8158 111.686 38.6479 111.824 38.4514 111.905C38.255 111.986 38.0388 112.008 37.8302 111.966C37.6217 111.925 37.4301 111.822 37.2797 111.672C37.1294 111.522 37.027 111.33 36.9855 111.122C36.944 110.913 36.9653 110.697 37.0467 110.5C37.1281 110.304 37.2659 110.136 37.4427 110.018C37.6195 109.9 37.8273 109.837 38.04 109.837C38.3251 109.837 38.5986 109.95 38.8002 110.152C39.0019 110.353 39.1151 110.627 39.1151 110.912Z" stroke="#EBEBEB" stroke-miterlimit="10"/>
<path d="M169.434 183.891V154.225L181.509 137.745V120.43" stroke="#EBEBEB" stroke-miterlimit="10"/>
<path d="M180.441 119.373C180.441 119.586 180.503 119.795 180.621 119.972C180.739 120.15 180.906 120.288 181.103 120.37C181.3 120.452 181.516 120.474 181.725 120.432C181.934 120.391 182.126 120.288 182.277 120.138C182.427 119.987 182.53 119.795 182.571 119.586C182.613 119.377 182.591 119.161 182.509 118.964C182.427 118.767 182.289 118.599 182.111 118.482C181.934 118.364 181.725 118.301 181.512 118.302C181.228 118.304 180.957 118.417 180.756 118.617C180.556 118.818 180.443 119.089 180.441 119.373Z" stroke="#EBEBEB" stroke-miterlimit="10"/>
<path d="M172.543 183.891V156.217L184.623 139.738V131.719" stroke="#EBEBEB" stroke-miterlimit="10"/>
<path d="M183.547 130.667C183.546 130.879 183.608 131.088 183.726 131.265C183.843 131.443 184.011 131.581 184.207 131.663C184.404 131.745 184.62 131.767 184.829 131.726C185.038 131.685 185.23 131.583 185.381 131.433C185.531 131.283 185.634 131.091 185.676 130.883C185.718 130.674 185.697 130.457 185.616 130.261C185.535 130.064 185.397 129.896 185.22 129.777C185.043 129.659 184.835 129.596 184.622 129.596C184.338 129.596 184.065 129.709 183.863 129.909C183.662 130.11 183.548 130.382 183.547 130.667Z" stroke="#EBEBEB" stroke-miterlimit="10"/>
<path d="M166.441 183.891V135.821" stroke="#EBEBEB" stroke-miterlimit="10"/>
<path d="M165.363 134.746C165.362 134.959 165.425 135.167 165.542 135.344C165.66 135.522 165.827 135.66 166.024 135.742C166.22 135.824 166.437 135.846 166.645 135.805C166.854 135.764 167.046 135.662 167.197 135.512C167.348 135.362 167.451 135.17 167.493 134.962C167.534 134.753 167.513 134.537 167.432 134.34C167.351 134.143 167.213 133.975 167.036 133.857C166.859 133.738 166.651 133.675 166.438 133.675C166.154 133.676 165.882 133.789 165.681 133.99C165.48 134.19 165.366 134.462 165.363 134.746Z" stroke="#EBEBEB" stroke-miterlimit="10"/>
<path d="M163.555 183.891V159.235L155.355 143.772V116.053" stroke="#EBEBEB" stroke-miterlimit="10"/>
<path d="M154.285 114.978C154.284 115.19 154.347 115.399 154.464 115.576C154.582 115.753 154.749 115.892 154.946 115.974C155.142 116.056 155.358 116.078 155.567 116.037C155.776 115.996 155.968 115.894 156.119 115.744C156.27 115.594 156.373 115.402 156.414 115.193C156.456 114.985 156.435 114.768 156.354 114.572C156.273 114.375 156.135 114.207 155.958 114.088C155.781 113.97 155.573 113.907 155.36 113.907C155.219 113.906 155.08 113.934 154.949 113.987C154.819 114.041 154.7 114.119 154.6 114.219C154.5 114.318 154.421 114.437 154.367 114.567C154.313 114.697 154.285 114.837 154.285 114.978Z" stroke="#EBEBEB" stroke-miterlimit="10"/>
<path d="M160.686 183.891V160.888L151.023 143.794V125.535" stroke="#EBEBEB" stroke-miterlimit="10"/>
<path d="M149.945 124.464C149.945 124.677 150.008 124.885 150.127 125.061C150.245 125.238 150.413 125.376 150.609 125.457C150.805 125.539 151.022 125.56 151.23 125.519C151.439 125.477 151.63 125.375 151.781 125.224C151.931 125.074 152.033 124.882 152.075 124.674C152.116 124.465 152.095 124.249 152.014 124.053C151.932 123.856 151.795 123.688 151.618 123.57C151.441 123.452 151.233 123.389 151.02 123.389C150.735 123.389 150.462 123.502 150.26 123.704C150.059 123.906 149.945 124.179 149.945 124.464Z" stroke="#EBEBEB" stroke-miterlimit="10"/>
<path d="M94.5325 200C144.815 200 185.577 196.752 185.577 192.745C185.577 188.738 144.815 185.49 94.5325 185.49C44.2502 185.49 3.48828 188.738 3.48828 192.745C3.48828 196.752 44.2502 200 94.5325 200Z" fill="#EBEBEB"/>
<path d="M6.19531 183.963H60.9104L50.0008 120.502H9.08647L6.19531 183.963Z" fill="#DBDBDB"/>
<path d="M6.19531 183.963H10.9928L13.6852 120.502H9.08647L6.19531 183.963Z" fill="#A6A6A6"/>
<path d="M0 183.963L23.6307 183.855L47.2658 183.814L94.5317 183.737L141.797 183.814L165.428 183.855L189.063 183.963L165.428 184.076L141.797 184.112L94.5317 184.189L47.2658 184.112L23.6307 184.076L0 183.963Z" fill="#263238"/>
<path d="M102.22 183.398H98.9766V185.517H102.22V183.398Z" fill="#455A64"/>
<path d="M106.431 183.258H103.188V185.377H106.431V183.258Z" fill="#455A64"/>
<path d="M110.638 183.118H107.395V185.237H110.638V183.118Z" fill="#455A64"/>
<path d="M114.849 182.978H111.605V185.097H114.849V182.978Z" fill="#455A64"/>
<path d="M119.052 182.838H115.809V184.957H119.052V182.838Z" fill="#455A64"/>
<path d="M123.263 182.698H120.02V184.817H123.263V182.698Z" fill="#455A64"/>
<path d="M127.47 182.558H124.227V184.677H127.47V182.558Z" fill="#455A64"/>
<path d="M131.681 182.418H128.438V184.537H131.681V182.418Z" fill="#455A64"/>
<path d="M135.884 182.278H132.641V184.397H135.884V182.278Z" fill="#455A64"/>
<path d="M136.681 186.732H98.1836V184.157L136.681 183.082V186.732Z" fill="#37474F"/>
<path d="M174.258 176.568H110.707L120.813 129.253H184.364L174.258 176.568Z" fill="#455A64"/>
<path d="M176.606 176.568H113.055L123.16 129.253H186.716L176.606 176.568Z" fill="#37474F"/>
<path d="M154.955 153.9C154.761 154.977 154.203 155.956 153.374 156.671C152.545 157.386 151.496 157.795 150.402 157.83C149.908 157.846 149.416 157.749 148.965 157.547C148.513 157.346 148.114 157.045 147.795 156.667C147.477 156.288 147.249 155.843 147.127 155.364C147.006 154.884 146.995 154.384 147.095 153.9C147.29 152.822 147.848 151.845 148.677 151.129C149.505 150.414 150.554 150.005 151.648 149.97C152.143 149.954 152.634 150.05 153.085 150.252C153.537 150.453 153.936 150.755 154.255 151.133C154.573 151.511 154.801 151.957 154.923 152.436C155.044 152.915 155.055 153.416 154.955 153.9Z" fill="#263238"/>
<path d="M146.977 138.269L145.445 145.452H144.059L145.59 138.269H146.977Z" fill="#263238"/>
<path d="M149.934 138.269L148.403 145.452H147.012L148.543 138.269H149.934Z" fill="#263238"/>
<path d="M152.891 138.269L151.359 145.452H149.973L151.504 138.269H152.891Z" fill="#263238"/>
<path d="M155.849 138.269L154.317 145.452H152.926L154.457 138.269H155.849Z" fill="#263238"/>
<path d="M158.801 138.269L157.27 145.452H155.883L157.414 138.269H158.801Z" fill="#263238"/>
<path d="M161.763 138.269L160.231 145.452H158.84L160.371 138.269H161.763Z" fill="#263238"/>
<path d="M157.729 188.923H126.473V186.497L157.729 185.485V188.923Z" fill="#455A64"/>
<path d="M166.228 188.919H149.446L139.336 162.41H156.118L166.228 188.919Z" fill="#455A64"/>
<path d="M168.989 188.919H152.207L142.102 162.41H158.884L168.989 188.919Z" fill="#263238"/>
<path d="M105.276 189.569H73.0484C70.2973 189.569 74.2771 181.741 84.3149 178.727C94.3526 175.714 108.442 186.633 105.276 189.569Z" fill="#37474F"/>
<path d="M92.6328 189.569C92.6637 188.678 92.8157 187.795 93.0846 186.945C93.3456 186.086 93.7096 185.262 94.1687 184.492C94.6294 183.716 95.2052 183.016 95.8763 182.414C96.5411 181.814 97.3055 181.336 98.135 181C97.7872 181.28 97.3942 181.478 97.078 181.786L96.581 182.206L96.1293 182.658C95.5302 183.281 95.0056 183.973 94.5663 184.717C94.1207 185.461 93.7384 186.241 93.4234 187.048C93.1011 187.869 92.837 188.711 92.6328 189.569Z" fill="#263238"/>
<path d="M96.4492 182.12C98.3586 182.748 100.166 183.65 101.816 184.799C102.654 185.375 103.413 186.059 104.075 186.832C104.399 187.226 104.679 187.655 104.91 188.11C105.132 188.567 105.261 189.063 105.29 189.569C105.179 189.087 104.984 188.628 104.712 188.214C104.453 187.798 104.15 187.412 103.808 187.062C103.118 186.36 102.362 185.726 101.549 185.169C100.75 184.591 99.9051 184.076 99.0558 183.566C98.6311 183.313 98.1975 183.069 97.7593 182.829C97.3211 182.59 96.8919 182.355 96.4492 182.12Z" fill="#263238"/>
<path d="M49.3134 90.9404C47.7774 87.9634 42.2752 81.7835 35.7204 85.0903C26.3739 89.811 30.1866 109.286 26.8934 116.586C20.9304 129.813 23.5731 140.555 31.3566 140.248C40.0843 139.9 45.6407 128.909 40.1069 109.954C36.642 98.1005 38.5483 91.8845 41.0103 91.5999C43.4723 91.3153 45.6046 93.949 45.6046 93.949L49.3134 90.9404Z" fill="#263238"/>
<path d="M48.6514 89.8426C47.7565 88.5059 46.7039 87.2819 45.5163 86.197C44.3153 85.0778 42.8935 84.2222 41.3422 83.6853C39.7425 83.146 38.0139 83.1223 36.4001 83.6176C34.8009 84.1096 33.3441 84.9805 32.1537 86.1564C31.0014 87.3563 30.1188 88.7887 29.5652 90.3576C29.0262 91.894 28.664 93.4869 28.4856 95.1054C28.1847 98.3047 28.2438 101.528 28.6618 104.714C28.5986 101.534 28.7723 98.3542 29.1813 95.2002C29.421 93.6581 29.8176 92.1444 30.3648 90.6828C30.8947 89.2363 31.7227 87.9173 32.7952 86.8114C33.8796 85.7297 35.2047 84.9201 36.6621 84.4488C38.1106 83.9689 39.6712 83.9436 41.1344 84.3765C42.6291 84.8281 44.021 85.5678 45.2317 86.5539C45.8652 87.0361 46.4687 87.5565 47.0386 88.1124C47.5853 88.6545 48.1273 89.2418 48.6514 89.8426Z" fill="#263238"/>
<path d="M38.3559 103.377C38.7715 105.292 39.3994 107.153 39.9551 109.033C40.5107 110.912 41.1115 112.769 41.631 114.648C42.1505 116.527 42.6068 118.415 42.932 120.326C43.2825 122.224 43.4474 124.152 43.4244 126.081C43.4263 127.988 43.0677 129.878 42.3674 131.651C41.5951 133.399 40.5252 135 39.2052 136.381C37.8863 137.777 36.2565 138.842 34.4483 139.489C33.5401 139.818 32.5922 140.025 31.6294 140.104C31.1452 140.14 30.659 140.14 30.1748 140.104C29.6869 140.094 29.203 140.013 28.7383 139.864C29.6657 140.211 30.6541 140.364 31.643 140.316C32.6388 140.294 33.6274 140.142 34.5838 139.864C35.544 139.582 36.4651 139.182 37.3259 138.671C38.1842 138.151 38.9813 137.536 39.7021 136.837C40.4229 136.14 41.0749 135.374 41.6491 134.552L42.0647 133.928L42.4577 133.287C42.7193 132.851 42.9517 132.398 43.1534 131.931C43.9166 130.067 44.3153 128.073 44.3279 126.059C44.3821 122.052 43.4651 118.153 42.3041 114.408C41.7214 112.529 41.0573 110.682 40.3752 108.847C39.693 107.013 38.9657 105.256 38.3559 103.377Z" fill="#263238"/>
<path d="M49.8894 90.8364C49.7584 89.9329 48.9001 88.8759 48.2858 88.8171C47.6714 88.7584 43.6554 91.3875 43.4792 92.5711C43.303 93.7547 45.4082 94.3781 45.4082 94.3781L49.8894 90.8364Z" fill="#407BFF"/>
<path d="M50.2816 132.88C63.6035 140.944 82.3327 149.215 88.8785 147.991C94.1819 147.006 114.041 132.568 115.03 131.728C117.474 129.664 105.819 111.219 102.869 112.958C99.1511 115.145 84.9754 128.914 83.3627 128.918C81.6822 128.918 69.6884 127.315 55.9284 125.304C46.4192 123.954 42.0147 127.893 50.2816 132.88Z" fill="#AD6359"/>
<path d="M106.203 106.724C109.388 105.098 112.903 102.979 116.625 102.555C120.347 102.13 124.074 106.62 124.259 108.021C124.445 109.421 124.214 118.357 120.505 118.862C116.797 119.368 118.138 112.339 117.894 111.589C117.65 110.84 117.384 109.873 116.693 110.035C116.002 110.198 104.527 117.643 104.527 117.643L106.203 106.724Z" fill="#AD6359"/>
<path d="M106.512 107.203C106.72 107.176 116.138 101.931 119.856 101.507C123.574 101.082 127.31 105.572 127.495 106.973C127.68 108.373 127.445 117.309 123.737 117.814C120.028 118.32 121.374 111.291 121.13 110.541C120.886 109.792 120.615 108.825 119.924 108.987C119.233 109.15 107.759 116.595 107.759 116.595L106.512 107.203Z" fill="#AD6359"/>
<path d="M122.417 117.498C121.88 116.974 121.686 116.102 121.514 115.389C121.33 114.608 121.269 113.803 121.333 113.003C121.452 112.309 121.512 111.607 121.514 110.903C121.417 110.216 121.148 109.565 120.732 109.01C120.38 108.527 119.856 108.78 119.413 109.01C118.756 109.364 118.123 109.759 117.516 110.194C116.852 110.645 116.201 111.097 115.546 111.549C114.851 111.998 114.184 112.49 113.55 113.021C113.504 113.062 113.55 113.148 113.608 113.116C114.217 112.782 114.809 112.415 115.379 112.019C116.039 111.594 116.703 111.175 117.371 110.763C117.995 110.379 118.6 109.963 119.233 109.588C119.454 109.457 119.892 109.136 120.172 109.168C120.452 109.2 120.696 109.868 120.787 110.072C121.031 110.718 121.08 111.422 120.927 112.095C120.821 112.784 120.784 113.482 120.814 114.178C120.834 114.836 120.973 115.485 121.225 116.093C121.531 116.627 121.899 117.123 122.322 117.571C122.368 117.652 122.476 117.557 122.417 117.498Z" fill="#263238"/>
<path d="M96.0391 118.506C96.0391 118.506 105.074 107.768 106.962 105.622C110.761 101.317 127.855 91.523 130.34 90.9222C132.824 90.3214 134.406 95.3628 122.868 102.365C116.774 106.056 116.119 109.913 116.517 111.951C116.914 113.988 119.381 117.552 122.841 116.997C126.301 116.441 127.846 111.124 130.945 110.126C134.044 109.127 132.725 115.235 130.945 118.894C129.165 122.553 125.425 125.864 122.588 127.391C119.751 128.918 111.041 134.122 111.041 134.122L96.0391 118.506Z" fill="#AD6359"/>
<path d="M126.787 113.997C125.622 115.181 124.321 116.681 122.618 116.97C120.915 117.259 119.555 116.279 118.552 114.946C117.549 113.613 116.826 112.01 117.007 110.293C117.208 108.748 117.851 107.294 118.859 106.105C120.092 104.66 121.528 103.401 123.124 102.369C123.191 102.32 123.124 102.22 123.038 102.266C121.542 103.169 116.871 105.879 116.465 110.365C116.298 112.204 117.043 113.722 118.073 115.104C119.022 116.378 120.332 117.552 122.003 117.467C124.068 117.358 125.617 115.465 126.9 114.033C126.95 113.97 126.846 113.939 126.787 113.997Z" fill="#263238"/>
<path d="M81.6549 127.513L66.2324 142.154C66.2324 142.154 55.9868 137.61 48.2846 132.13C40.5824 126.65 48.5286 123.262 61.2451 124.595C73.9617 125.928 81.6549 127.513 81.6549 127.513Z" fill="#407BFF"/>
<path d="M62.5571 140.411L62.3538 140.311C62.3538 140.28 62.3538 140.253 62.3538 140.221C62.3022 138.986 62.0568 137.766 61.6265 136.607C61.4077 136.039 61.0277 135.548 60.5333 135.193C60.2803 135.032 59.9977 134.923 59.7021 134.872C59.402 134.842 59.1001 134.831 58.7986 134.841C57.5645 134.902 56.3465 135.148 55.1847 135.568C54.8639 135.681 54.5432 135.803 54.227 135.934L54.0508 135.83C54.4077 135.681 54.7645 135.541 55.1259 135.41C56.3081 134.98 57.5472 134.728 58.8031 134.66C59.1198 134.65 59.4368 134.662 59.7518 134.696C60.0731 134.748 60.3805 134.865 60.6553 135.039C61.1817 135.413 61.587 135.933 61.8208 136.535C62.2644 137.711 62.5176 138.951 62.5706 140.207L62.5571 140.411ZM73.1143 126.077L73.0466 126.262C72.4819 127.766 71.7726 129.28 70.5439 130.328C69.9252 130.841 69.173 131.167 68.3755 131.267C67.573 131.338 66.7669 131.181 66.0491 130.816C64.5899 130.12 63.3928 128.982 62.2544 127.839C61.116 126.696 60.0996 125.53 59.0064 124.392H58.9251C60.0228 125.553 61.0799 126.754 62.2002 127.906C63.2887 129.123 64.5765 130.145 66.0084 130.929C66.7411 131.316 67.5729 131.474 68.3966 131.384C69.2203 131.294 69.9981 130.959 70.6297 130.423C71.8856 129.338 72.5993 127.807 73.1776 126.303C73.2047 126.23 73.2318 126.163 73.2544 126.09L73.1143 126.077ZM64.983 141.572C65.7871 141.951 66.2478 142.154 66.2478 142.154C65.8322 141.942 65.3986 141.757 64.9694 141.572H64.983Z" fill="white"/>
<path d="M62.4175 139.471C65.53 136.087 68.8819 132.916 72.288 129.822C73.2487 128.945 74.232 128.092 75.2379 127.26C75.2437 127.257 75.2506 127.255 75.2574 127.256C75.2642 127.256 75.2707 127.259 75.2758 127.264C75.2809 127.268 75.2844 127.274 75.2857 127.281C75.287 127.288 75.2861 127.295 75.2831 127.301C73.693 128.954 72.0351 130.549 70.3862 132.148C68.7373 133.747 67.0704 135.347 65.3719 136.905C64.4142 137.786 63.461 138.667 62.4807 139.53C62.4581 139.588 62.3768 139.512 62.4175 139.471Z" fill="#263238"/>
<path opacity="0.1" d="M72.6429 136.069L66.2327 142.154C66.2327 142.154 55.9872 137.61 48.2849 132.13C45.1499 129.899 44.6078 128.015 45.9223 126.66L72.6429 136.069Z" fill="black"/>
<path d="M71.6082 184.044H20.0508C20.0508 184.044 31.2495 140.795 41.6125 128.616C41.8428 128.336 42.0642 128.074 42.3262 127.825C42.3759 127.766 42.4166 127.726 42.4662 127.676C43.2679 126.818 44.203 126.095 45.2354 125.535C45.4161 125.435 45.5968 125.345 45.7866 125.259C49.78 123.425 53.9947 124.948 57.0395 127.55C58.0062 128.376 68.9338 142.597 69.9006 148.018C70.7363 152.802 67.5018 157.956 67.5018 157.956L71.6082 184.044Z" fill="#407BFF"/>
<path d="M59.749 156.091C57.5607 156.302 55.3909 156.675 53.2575 157.206C52.1959 157.487 51.1569 157.816 50.1178 158.169C49.5983 158.34 49.0788 158.498 48.5548 158.657C48.0116 158.834 47.4488 158.945 46.8789 158.986C46.8709 158.989 46.864 158.994 46.8591 159.001C46.8542 159.008 46.8516 159.016 46.8516 159.025C46.8516 159.033 46.8542 159.041 46.8591 159.048C46.864 159.055 46.8709 159.06 46.8789 159.063C47.4197 159.088 47.9617 159.074 48.5006 159.022C49.0202 158.954 49.5348 158.851 50.0411 158.715C51.1162 158.44 52.1823 158.114 53.2575 157.812C55.4258 157.234 57.5897 156.655 59.7987 156.235C59.8981 156.253 59.871 156.082 59.749 156.091Z" fill="#263238"/>
<path d="M65.2148 157.993C63.4028 157.819 61.5824 157.746 59.7623 157.776C58.8588 157.776 57.9553 157.866 57.0518 157.961C56.6226 158.011 56.189 158.06 55.7598 158.119C55.3307 158.178 54.8202 158.313 54.3459 158.372C54.2962 158.372 54.2962 158.453 54.3459 158.449C54.7976 158.408 55.2493 158.449 55.7011 158.426L57.0563 158.381C57.9598 158.349 58.8633 158.331 59.7668 158.291C61.5737 158.214 63.3807 158.155 65.2103 158.142C65.3187 158.142 65.3097 158.002 65.2148 157.993Z" fill="#263238"/>
<g opacity="0.1">
<path d="M54.8246 150.882C54.979 150.967 55.0954 151.108 55.1507 151.275C55.206 151.443 55.196 151.625 55.1228 151.786C55.0772 151.85 55.0178 151.903 54.949 151.941C54.8803 151.979 54.8038 152.002 54.7252 152.007C54.5367 152.024 54.3481 151.974 54.1922 151.867L50.3253 149.229C50.2936 149.229 50.2756 149.202 50.253 149.174H50.2168C50.1943 149.15 50.1746 149.122 50.1581 149.093C50.1389 149.087 50.1227 149.074 50.1129 149.057C50.1129 149.057 50.0858 149.007 50.0723 148.998C50.0587 148.989 50.0407 148.958 50.0361 148.949L50.0135 148.876C50.0002 148.858 49.9895 148.839 49.9819 148.818C49.9842 148.801 49.9842 148.784 49.9819 148.768L49.9593 148.696C49.9593 148.673 49.9593 148.664 49.9593 148.65C49.9593 148.637 49.9593 148.601 49.9593 148.569C49.9563 148.538 49.9563 148.506 49.9593 148.474V148.452C49.9638 148.422 49.9781 148.395 50 148.375L51.9696 145.213C52.0848 145.081 52.2465 144.999 52.4208 144.984C52.5951 144.969 52.7685 145.022 52.9047 145.131C53.0591 145.217 53.1755 145.357 53.2308 145.525C53.2861 145.692 53.2761 145.874 53.2029 146.035L51.5359 148.687L54.8246 150.882Z" fill="black"/>
<path d="M57.579 150.959L58.1844 144.806C58.1956 144.734 58.2232 144.665 58.2652 144.605C58.3072 144.545 58.3623 144.495 58.4265 144.46C58.4906 144.425 58.562 144.404 58.6351 144.401C58.7083 144.398 58.7813 144.411 58.8484 144.44C59.0015 144.482 59.1362 144.573 59.2312 144.7C59.3262 144.827 59.3759 144.982 59.3724 145.14L58.7671 151.302C58.7517 151.405 58.7016 151.499 58.6251 151.569C58.5486 151.639 58.4504 151.68 58.347 151.686C58.2755 151.701 58.2017 151.701 58.1302 151.686C57.9674 151.649 57.8229 151.556 57.7221 151.423C57.6213 151.29 57.5706 151.126 57.579 150.959Z" fill="black"/>
<path d="M65.415 147.801C65.4016 147.829 65.385 147.855 65.3653 147.878L63.3957 151.04C63.3478 151.106 63.2862 151.16 63.2152 151.199C63.1441 151.238 63.0655 151.261 62.9846 151.266C62.7987 151.278 62.6141 151.227 62.4606 151.121C62.3054 151.037 62.1883 150.896 62.1329 150.729C62.0775 150.561 62.0881 150.378 62.1624 150.218L63.8294 147.566L60.5723 145.357C60.4179 145.272 60.3015 145.131 60.2462 144.964C60.1909 144.796 60.2009 144.614 60.2742 144.454C60.3894 144.322 60.551 144.24 60.7253 144.225C60.8996 144.21 61.073 144.263 61.2093 144.372L65.0717 147.011C65.1053 147.028 65.1371 147.05 65.1665 147.074C65.1964 147.101 65.2236 147.132 65.2478 147.164C65.2664 147.196 65.2876 147.226 65.3111 147.255C65.3111 147.255 65.3111 147.255 65.3111 147.282L65.3337 147.354L65.3608 147.404C65.3608 147.404 65.3608 147.444 65.3608 147.453V147.535C65.3608 147.535 65.3608 147.535 65.3608 147.557C65.359 147.589 65.359 147.62 65.3608 147.652C65.3608 147.652 65.3608 147.652 65.3608 147.684L65.415 147.801Z" fill="black"/>
</g>
<path d="M68.605 164.94C68.5336 164.984 68.4597 165.023 68.3836 165.058L67.9319 165.256C67.7873 165.32 67.6337 165.36 67.4801 165.415C67.1853 165.512 66.8832 165.586 66.5766 165.636C65.944 165.724 65.2999 165.683 64.6838 165.514C64.3788 165.412 64.0933 165.259 63.8391 165.062C63.5931 164.855 63.3785 164.613 63.2021 164.344C62.8576 163.811 62.5999 163.227 62.4387 162.614C62.1269 161.399 61.9467 160.154 61.9011 158.9C61.9011 158.684 61.9011 158.449 61.9011 158.25C61.9011 158.169 61.9011 158.087 61.9011 158.006C61.8379 155.806 61.9463 153.611 62.0637 151.42C62.1992 148.931 62.3799 146.45 62.4342 143.957C62.4342 142.864 62.4613 141.766 62.398 140.677C62.398 140.627 62.398 140.578 62.398 140.528C62.398 140.478 62.398 140.334 62.398 140.234C62.3464 138.999 62.101 137.78 61.6707 136.621C61.4519 136.053 61.0719 135.561 60.5775 135.207C60.3245 135.046 60.0419 134.936 59.7463 134.886C59.4462 134.855 59.1443 134.845 58.8428 134.854C57.6087 134.916 56.3907 135.161 55.2289 135.582C54.4386 135.865 53.6635 136.189 52.9069 136.553L52.7307 136.634C51.3077 137.321 49.9344 138.116 48.5747 138.924C46.4334 140.198 44.3283 141.535 42.1148 142.692C41.3604 143.08 40.5969 143.451 39.8154 143.776L39.725 143.817C39.3877 143.955 39.0444 144.086 38.6951 144.21C37.5177 144.644 36.2806 144.896 35.0269 144.955C34.3365 144.969 33.6479 144.878 32.9851 144.684C32.9851 144.653 32.9851 144.625 33.0212 144.598C33.6737 144.78 34.3497 144.864 35.0269 144.847C36.2629 144.78 37.4815 144.526 38.6409 144.092C38.9797 143.97 39.3185 143.839 39.6528 143.704L39.7476 143.663C40.5292 143.333 41.2926 142.967 42.0425 142.574C44.2425 141.418 46.3431 140.076 48.4843 138.793C49.808 138.007 51.1496 137.226 52.55 136.535L52.7217 136.449C53.5181 136.062 54.3338 135.717 55.1656 135.414C56.3477 134.985 57.5868 134.732 58.8428 134.664C59.1595 134.654 59.4765 134.666 59.7915 134.701C60.1128 134.753 60.4202 134.869 60.6949 135.044C61.2214 135.418 61.6267 135.937 61.8604 136.539C62.3041 137.716 62.5573 138.956 62.6103 140.212C62.6103 140.343 62.6103 140.474 62.6329 140.605C62.6374 140.653 62.6374 140.701 62.6329 140.749C62.6962 141.82 62.6962 142.891 62.6781 143.957C62.6284 146.455 62.4567 148.926 62.3212 151.429C62.2083 153.525 62.0999 155.621 62.1405 157.712C62.1405 157.794 62.1405 157.875 62.1405 157.956C62.1405 158.268 62.1405 158.575 62.1721 158.887C62.2129 160.125 62.3871 161.355 62.6917 162.555C62.8454 163.149 63.0924 163.715 63.4235 164.231C63.5918 164.483 63.7939 164.711 64.0243 164.909C64.2565 165.104 64.521 165.256 64.8058 165.36C65.3937 165.523 66.0084 165.564 66.6128 165.482C66.9189 165.435 67.2209 165.364 67.5163 165.27C67.6608 165.216 67.8054 165.175 67.968 165.116L68.3836 164.927L68.6546 164.787L68.605 164.94ZM69.8608 147.828C68.861 148.831 67.9155 149.887 67.0284 150.99C65.2756 153.154 63.681 155.436 62.0592 157.712L61.8559 158.001L61.2551 158.851C60.1438 160.418 59.019 161.99 57.8264 163.499C57.7948 163.54 57.7631 163.585 57.727 163.626C56.941 164.615 56.1278 165.577 55.2605 166.494C54.1671 167.687 52.9478 168.758 51.624 169.688C51.2979 169.924 50.9586 170.141 50.6075 170.339C50.2642 170.555 49.8983 170.727 49.5414 170.912C48.8393 171.294 48.0262 171.418 47.2421 171.265C46.4679 171.066 45.7573 170.672 45.1776 170.122C44.5828 169.578 44.0482 168.972 43.5829 168.315C42.654 166.991 41.8322 165.595 41.1255 164.141C39.6754 161.24 38.4421 158.236 37.1682 155.255C35.9364 152.247 34.5399 149.309 32.9851 146.455C32.8269 146.179 32.6643 145.908 32.4972 145.637L32.4023 145.872C32.5423 146.098 32.6779 146.324 32.8089 146.559C34.355 149.408 35.741 152.342 36.9604 155.345C38.2433 158.322 39.4811 161.326 40.9402 164.231C41.6574 165.694 42.4882 167.099 43.4248 168.432C43.9008 169.098 44.4459 169.711 45.0511 170.262C45.6559 170.834 46.3981 171.24 47.2059 171.441C48.0286 171.601 48.8814 171.47 49.6182 171.07C49.9841 170.885 50.3546 170.709 50.6979 170.492C51.0412 170.275 51.3936 170.068 51.7279 169.833C53.0564 168.888 54.2827 167.807 55.387 166.607C56.2453 165.704 57.0584 164.728 57.8354 163.743C57.8716 163.702 57.9032 163.657 57.9348 163.617C59.1364 162.094 60.2613 160.513 61.3771 158.932L61.865 158.241L62.0637 157.952C63.699 155.621 65.3163 153.281 67.1097 151.067C67.974 149.989 68.8953 148.957 69.8698 147.977C69.8834 147.928 69.8744 147.878 69.8608 147.828ZM45.1053 180.458C43.0905 177.919 41.1119 175.335 38.93 172.932C36.7481 170.528 34.3312 168.261 31.3723 166.851C30.6299 166.516 29.8527 166.265 29.0549 166.101C28.6551 166.018 28.2509 165.958 27.8442 165.921C27.4384 165.89 27.0312 165.883 26.6245 165.898C26.1707 165.907 25.7179 165.946 25.2693 166.015L25.2422 166.097C25.6907 166.026 26.1435 165.987 26.5974 165.979C27.0012 165.968 27.4052 165.977 27.8081 166.006C28.2089 166.047 28.6071 166.11 29.0007 166.196C29.7915 166.361 30.5613 166.614 31.2955 166.951C34.2228 168.355 36.6306 170.632 38.799 173.017C40.9673 175.403 42.946 177.987 44.9562 180.548C45.8868 181.723 46.8264 182.897 47.7977 184.044H48.0055C47.0342 182.87 46.0675 181.664 45.1053 180.458ZM69.8789 173.049C69.5672 173.88 69.2645 174.707 68.9754 175.538C67.9409 178.389 66.9425 181.253 65.7635 184.044H65.9894C67.1594 181.275 68.1532 178.438 69.1877 175.615C69.4452 174.91 69.7072 174.201 69.9692 173.496L69.8789 173.049ZM65.1672 177.566C65.1265 177.332 65.0904 177.092 65.0407 176.853L64.8781 176.148C64.7832 175.696 64.6341 175.217 64.5031 174.752C63.9401 172.906 63.1655 171.131 62.1947 169.462C60.9744 167.373 59.5554 165.406 57.9574 163.59C57.9188 163.551 57.8825 163.51 57.849 163.468C56.9455 162.424 55.9968 161.421 55.0391 160.432C52.3287 157.681 49.5098 155.083 46.7993 152.359C45.4441 151.004 44.125 149.604 42.8692 148.149C42.553 147.788 42.2413 147.422 41.9386 147.051C41.6359 146.681 41.3333 146.306 41.0351 145.917C40.5357 145.231 40.0987 144.5 39.7296 143.735C39.707 143.7 39.6888 143.662 39.6754 143.623C39.6417 143.564 39.6115 143.504 39.585 143.442C38.7897 141.691 38.3681 139.794 38.3472 137.872C38.3349 135.95 38.6277 134.038 39.2146 132.207C39.2823 131.986 39.3591 131.755 39.4359 131.543L39.332 131.706C39.2748 131.868 39.2206 132.031 39.1694 132.193C38.57 134.027 38.2651 135.943 38.2659 137.872C38.2809 139.807 38.6978 141.717 39.4901 143.482C39.5173 143.546 39.5444 143.604 39.576 143.663C39.5891 143.704 39.609 143.742 39.6347 143.776C40.0047 144.549 40.4415 145.288 40.9402 145.985C41.2203 146.378 41.523 146.753 41.8437 147.124C42.1645 147.494 42.4536 147.864 42.7698 148.226C44.0256 149.685 45.3492 151.081 46.7 152.45C49.4104 155.16 52.2428 157.785 54.9217 160.531C55.8884 161.525 56.8371 162.546 57.7405 163.594C57.7812 163.635 57.8128 163.675 57.849 163.716C59.4316 165.517 60.8356 167.467 62.0411 169.539C63.0061 171.207 63.7761 172.98 64.336 174.824C64.4625 175.276 64.607 175.728 64.7019 176.211L64.8645 176.911C64.9097 177.146 64.9458 177.386 64.991 177.621C65.4394 179.804 65.1203 182.074 64.0875 184.049H64.3044C65.316 182.056 65.6187 179.777 65.1627 177.589L65.1672 177.566ZM67.715 142.782L67.4666 142.66C65.8584 141.892 64.2185 141.21 62.5652 140.56L62.3664 140.478C60.9344 139.914 59.4933 139.367 58.0658 138.802C56.4937 138.175 54.9307 137.529 53.4129 136.788L52.8391 136.499L52.6584 136.404C51.4004 135.767 50.2068 135.011 49.0942 134.145C47.7443 133.131 46.6287 131.839 45.8236 130.355C45.4298 129.615 45.1438 128.822 44.9743 128.001C44.8261 127.244 44.7836 126.471 44.8478 125.702C44.7826 125.738 44.7193 125.777 44.6581 125.819C44.6098 126.56 44.6569 127.304 44.7981 128.033C44.976 128.871 45.271 129.68 45.6745 130.436C46.4937 131.938 47.626 133.246 48.9948 134.271C50.0899 135.109 51.2587 135.845 52.4868 136.471L52.663 136.562L53.3451 136.905C54.872 137.65 56.4395 138.292 58.0116 138.915C59.4617 139.489 60.9253 140.036 62.3754 140.609L62.5742 140.686C64.2095 141.328 65.8267 141.996 67.4124 142.755L67.8189 142.949C67.7828 142.945 67.7466 142.882 67.715 142.818V142.782Z" fill="white"/>
<path d="M39.7349 129.727C30.7994 138.933 9.29649 173.713 15.9236 180.322C22.5506 186.931 59.5348 182.798 69.7351 180.842C73.1413 180.187 64.9557 157.744 61.2876 157.215C58.2293 156.764 40.1776 160.278 39.5542 159.474C39.0483 158.833 42.6758 150.439 46.7053 136.887C51.3537 121.302 43.6831 125.657 39.7349 129.727Z" fill="#AD6359"/>
<path d="M78.7852 154.225C86.4648 154.324 88.4253 155.53 94.953 152.169C99.2355 149.965 102.484 151.754 99.606 155.856C94.8988 162.564 84.9605 164.52 81.3194 164.204L78.7852 154.225Z" fill="#AD6359"/>
<path d="M57.6953 158.422C57.6953 158.422 66.8612 155.015 75.0603 154.311C80.7297 153.823 93.1842 154.139 103.032 167.976C105.368 171.256 106.371 177.589 100.606 173.614C96.5136 170.795 94.7743 167.764 92.091 166.558C92.091 166.558 92.4117 174.766 89.0327 176.975C86.0779 178.91 82.9893 180.632 79.79 182.129C79.383 181.605 79.0088 181.055 78.6697 180.485C78.6697 180.485 75.3178 182.256 69.7343 180.851L57.6953 158.422Z" fill="#AD6359"/>
<path d="M80.5289 154.708C82.9367 156.47 87.9737 160.292 91.0094 164.85C94.3794 169.909 99.5066 180.571 95.7436 183.019C92.9835 184.826 90.6706 180.918 90.6706 180.918C90.6706 180.918 91.8586 185.77 89.0127 186.85C86.4197 187.83 84.8069 184.708 84.8069 184.708C84.8069 184.708 85.0238 187.776 82.3449 188.241C79.1195 188.797 79.1827 182.278 75.4378 180.019C74.6156 179.513 80.5289 154.708 80.5289 154.708Z" fill="#AD6359"/>
<path d="M85.0823 167.515C87.0745 169.544 90.4174 175.312 90.7472 180.806C90.7472 180.932 90.6613 181.004 90.6342 180.891C89.318 176.234 87.4416 171.753 85.0462 167.547C85.0191 167.52 85.0462 167.493 85.0823 167.515Z" fill="#263238"/>
<path d="M80.0737 171.066C81.6142 172.995 84.7899 179.089 84.9345 184.672C84.9345 184.794 84.8396 184.862 84.8125 184.749C83.7376 180.032 82.1312 175.452 80.024 171.098C80.0228 171.091 80.0235 171.085 80.026 171.079C80.0285 171.073 80.0327 171.068 80.0381 171.065C80.0435 171.061 80.0497 171.06 80.0561 171.06C80.0624 171.06 80.0686 171.062 80.0737 171.066Z" fill="#263238"/>
<path d="M92.1011 166.508C94.4457 167.606 95.8551 169.051 97.7072 170.804C98.6105 171.683 99.5622 172.511 100.558 173.284C101.461 173.975 102.816 175.019 104.018 174.332C104.682 173.953 104.804 173.094 104.772 172.399C104.75 171.614 104.557 170.843 104.208 170.14C104.208 170.108 104.253 170.072 104.271 170.108C104.61 170.726 104.858 171.389 105.007 172.078C105.18 172.719 105.156 173.397 104.94 174.025C104.37 175.321 102.749 175.254 101.678 174.711C101.036 174.363 100.431 173.952 99.8711 173.483C99.329 173.031 98.8095 172.579 98.299 172.127C97.2555 171.165 96.2662 170.14 95.2317 169.164C94.222 168.236 93.1537 167.375 92.0334 166.585C92.0108 166.553 92.0559 166.485 92.1011 166.508Z" fill="#263238"/>
<path d="M95.9244 175.918C95.5043 174.422 92.9565 168.075 92.044 166.558C92.0402 166.55 92.0393 166.541 92.0415 166.533C92.0437 166.524 92.0488 166.517 92.0559 166.512C92.063 166.507 92.0716 166.505 92.0802 166.506C92.0888 166.507 92.0967 166.511 92.1027 166.517C93.738 168.622 96.0735 173.903 96.5569 175.552C97.0402 177.201 97.5507 179.256 97.2887 180.973C96.9002 183.534 95.1248 183.76 94.4789 183.787C93.7134 183.808 92.9639 183.566 92.3557 183.1C91.6503 182.503 91.074 181.768 90.6616 180.941C90.639 180.9 90.6932 180.86 90.7204 180.9C91.4522 182.043 92.7758 183.267 94.1943 183.295C94.5069 183.312 94.8199 183.267 95.1147 183.161C95.4096 183.056 95.6803 182.892 95.9109 182.68C96.3846 182.122 96.6412 181.411 96.6337 180.679C96.6688 179.063 96.429 177.453 95.9244 175.918Z" fill="#263238"/>
<path d="M84.933 184.672C85.2402 185.029 85.8139 186.204 86.9478 186.61C87.3448 186.785 87.7784 186.861 88.2113 186.831C88.6441 186.802 89.0632 186.667 89.4324 186.439C90.126 185.904 90.5831 185.119 90.7063 184.252C90.7776 183.151 90.764 182.045 90.6656 180.946C90.6656 180.891 90.7243 180.878 90.7334 180.946C90.9899 182.123 91.0706 183.331 90.9728 184.532C90.9197 185.003 90.7723 185.459 90.5395 185.872C90.3067 186.285 89.9931 186.646 89.6176 186.936C89.2143 187.213 88.7425 187.373 88.2539 187.399C87.7654 187.426 87.2791 187.317 86.8484 187.085C86.3966 186.845 85.1182 185.702 84.8381 184.727C84.8201 184.686 84.9194 184.654 84.933 184.672Z" fill="#263238"/>
<path d="M75.7652 179.595C76.1213 179.919 76.4396 180.283 76.7138 180.679C77.021 181.077 77.3101 181.492 77.5947 181.908C78.1532 182.761 78.6225 183.669 78.9951 184.618C79.3836 185.567 79.7089 186.606 80.4633 187.329C80.8173 187.694 81.2777 187.939 81.7788 188.029C82.28 188.118 82.7966 188.047 83.2551 187.826C83.7368 187.572 84.1165 187.161 84.3302 186.66C84.5898 186.121 84.7432 185.536 84.782 184.939C84.782 184.929 84.7858 184.92 84.7925 184.913C84.7993 184.907 84.8085 184.903 84.8181 184.903C84.8277 184.903 84.8369 184.907 84.8436 184.913C84.8504 184.92 84.8542 184.929 84.8542 184.939C84.867 185.476 84.8277 186.013 84.7368 186.543C84.6158 187.022 84.3712 187.461 84.0275 187.817C83.6644 188.158 83.2142 188.392 82.7265 188.494C82.2387 188.596 81.7323 188.562 81.2629 188.395C80.2239 188.033 79.5598 187.112 79.1126 186.136C78.6157 185.065 78.2362 183.954 77.6896 182.906C77.4005 182.355 77.1204 181.799 76.7861 181.271C76.4518 180.742 76.0091 180.245 75.6974 179.658C75.6748 179.613 75.72 179.559 75.7652 179.595Z" fill="#263238"/>
<path d="M72.4367 181.325C73.8592 181.386 75.2842 181.311 76.6922 181.099C76.7373 181.099 76.778 181.221 76.7373 181.235C76.0409 181.435 75.3241 181.556 74.6006 181.596C73.8737 181.64 73.1442 181.575 72.4367 181.402C72.3961 181.393 72.3961 181.32 72.4367 181.325Z" fill="#263238"/>
<path d="M21.0746 167.208C23.302 165.774 25.63 164.503 28.0405 163.404C30.4248 162.321 32.886 161.415 35.4039 160.694C36.8359 160.269 38.286 159.912 39.7316 159.551C39.7371 159.549 39.743 159.548 39.7487 159.549C39.7545 159.55 39.76 159.552 39.7648 159.555C39.7696 159.558 39.7735 159.563 39.7762 159.568C39.7789 159.573 39.7803 159.579 39.7803 159.585C39.7803 159.591 39.7789 159.596 39.7762 159.602C39.7735 159.607 39.7696 159.611 39.7648 159.615C39.76 159.618 39.7545 159.62 39.7487 159.621C39.743 159.621 39.7371 159.621 39.7316 159.619C37.204 160.35 34.7212 161.227 32.2959 162.248C29.8866 163.239 27.4864 164.27 25.0952 165.342C23.7399 165.952 22.4299 166.625 21.1063 167.28C21.0993 167.278 21.0929 167.274 21.0875 167.269C21.0821 167.264 21.0778 167.258 21.0749 167.251C21.0719 167.244 21.0703 167.237 21.0703 167.229C21.0703 167.222 21.0718 167.215 21.0746 167.208Z" fill="#263238"/>
<path d="M21.3789 151.492L42.6424 151.198C42.6424 151.198 46.7985 140.786 48.4835 131.484C50.1685 122.183 42.4708 124.884 34.3033 134.719C26.1358 144.553 21.3789 151.492 21.3789 151.492Z" fill="#407BFF"/>
<path d="M46.4355 139.986C46.4355 140.054 46.3993 140.121 46.3768 140.189C44.9538 141.052 43.5263 141.901 42.0491 142.674C41.2947 143.062 40.5312 143.433 39.7497 143.758L39.6593 143.799C39.322 143.937 38.9787 144.068 38.6294 144.192C37.452 144.626 36.2149 144.878 34.9612 144.937C33.7417 144.963 32.5376 144.662 31.4738 144.065L31.3653 144.006L31.022 143.799C30.1415 143.211 29.3646 142.481 28.7227 141.639L28.7543 141.594C29.3504 142.36 30.0585 143.032 30.8549 143.586C31.0155 143.702 31.1829 143.807 31.3563 143.903L31.406 143.934C32.4861 144.555 33.7158 144.867 34.9612 144.838C36.1972 144.771 37.4158 144.517 38.5752 144.083C38.914 143.961 39.2528 143.83 39.5871 143.695L39.6819 143.654C40.4634 143.324 41.2269 142.958 41.9768 142.565C43.4856 141.761 44.9718 140.876 46.4355 139.986ZM33.0097 146.45C32.544 145.626 32.0312 144.83 31.4738 144.065L31.3563 143.903C30.9838 143.41 30.581 142.94 30.1502 142.498C29.7653 142.099 29.3364 141.746 28.8717 141.445L28.7543 141.594C29.2106 141.894 29.6318 142.244 30.0101 142.638C30.3083 142.94 30.5884 143.257 30.8549 143.586L31.022 143.799C31.69 144.672 32.2939 145.593 32.829 146.554C33.7054 148.095 34.4824 149.685 35.2142 151.302H35.4491C34.7037 149.649 33.9087 148.022 33.0097 146.45ZM42.8712 148.172C42.555 147.81 42.2433 147.444 41.9406 147.074C41.638 146.703 41.3353 146.328 41.0372 145.94C40.5377 145.253 40.1008 144.523 39.7316 143.758C39.7091 143.723 39.6909 143.685 39.6774 143.645C39.6437 143.587 39.6135 143.526 39.5871 143.464C38.7917 141.714 38.3702 139.817 38.3493 137.894C38.337 135.972 38.6297 134.06 39.2166 132.23C39.6502 130.857 40.1972 129.523 40.8519 128.241C40.8318 128.251 40.8135 128.265 40.7977 128.281C40.148 129.546 39.604 130.862 39.1715 132.216C38.5721 134.049 38.2671 135.966 38.268 137.894C38.2829 139.829 38.6998 141.74 39.4922 143.505C39.5193 143.568 39.5464 143.627 39.578 143.686C39.5912 143.726 39.611 143.765 39.6368 143.799C40.0067 144.572 40.4436 145.311 40.9423 146.008C41.2224 146.401 41.525 146.776 41.8458 147.146C42.1665 147.517 42.4556 147.887 42.7719 148.248C42.9977 148.51 43.2236 148.768 43.454 149.025C43.454 148.985 43.4856 148.944 43.5037 148.899C43.2959 148.659 43.0836 148.415 42.8712 148.172ZM45.8256 130.409C45.4318 129.669 45.1458 128.876 44.9764 128.055C44.8447 127.38 44.7962 126.691 44.8318 126.005C44.7704 126.022 44.7101 126.043 44.6511 126.068C44.6194 126.744 44.6694 127.422 44.8002 128.087C44.9781 128.925 45.2731 129.734 45.6766 130.49C46.2927 131.641 47.1044 132.676 48.0753 133.549L48.116 133.363C47.1899 132.516 46.4154 131.517 45.8256 130.409Z" fill="white"/>
<path d="M41.7662 151.108C41.8836 151.108 42.6335 150.995 42.6335 150.995C42.6922 150.719 43.9887 146.356 44.3275 145.411C45.0142 143.478 45.8138 141.581 46.5863 139.683C46.5928 139.673 46.6023 139.666 46.6134 139.662C46.6246 139.658 46.6367 139.658 46.6479 139.662C46.6591 139.665 46.6689 139.672 46.6757 139.682C46.6825 139.692 46.686 139.703 46.6856 139.715C46.1752 141.35 45.6918 142.999 45.1678 144.63C45.3214 144.4 45.4705 144.178 45.6195 143.934C45.9177 143.451 46.1797 142.954 46.4598 142.462C46.4646 142.451 46.4732 142.444 46.4838 142.44C46.4944 142.436 46.5061 142.436 46.5162 142.441C46.5264 142.446 46.5343 142.455 46.5381 142.465C46.5419 142.476 46.5414 142.488 46.5366 142.498C46.2975 143.184 45.9695 143.835 45.5608 144.436C45.3896 144.694 45.201 144.94 44.9961 145.172C44.951 145.308 44.9103 145.448 44.8651 145.583C44.5444 146.536 42.8955 151.252 42.8142 151.252H41.7888C41.7255 151.252 41.7074 151.108 41.7662 151.108Z" fill="#263238"/>
<path d="M24.9001 147.444C29.4898 147.191 34.1021 147.255 38.7008 147.413C40.0019 147.458 41.3029 147.533 42.6039 147.638C42.64 147.638 42.6446 147.697 42.6039 147.697C40.3136 147.779 38.0142 147.76 35.7193 147.76C33.4245 147.76 31.107 147.76 28.8032 147.67C27.5021 147.629 26.2056 147.593 24.9046 147.53C24.8954 147.528 24.8872 147.522 24.8812 147.515C24.8752 147.507 24.8717 147.498 24.8712 147.489C24.8707 147.479 24.8732 147.47 24.8784 147.462C24.8836 147.454 24.8912 147.448 24.9001 147.444Z" fill="#263238"/>
<path d="M47.6172 125.697C47.7753 126.601 51.719 132.704 55.8434 132.758C57.1987 132.758 57.5917 125.444 57.5917 125.444L57.7453 124.911L59.891 117.453L51.3305 111.215L50.0882 110.383C50.0882 110.383 49.6365 112.466 49.1034 115.068C49.0763 115.185 49.0492 115.307 49.0266 115.438C49.004 115.569 48.9543 115.723 48.9318 115.858C48.8459 116.247 48.7601 116.644 48.6833 117.037C48.6246 117.34 48.5659 117.634 48.5116 117.941C48.4574 118.248 48.4032 118.569 48.3445 118.89C47.9458 121.139 47.7028 123.414 47.6172 125.697Z" fill="#AD6359"/>
<path d="M49.1055 115.05C49.7441 117.222 50.8479 119.229 52.3402 120.932C53.8325 122.635 55.6776 123.993 57.7473 124.911L59.8931 117.453L51.3326 111.215L50.0903 110.383C50.0903 110.383 49.6385 112.448 49.1055 115.05Z" fill="#263238"/>
<path d="M69.4091 102.482C73.2624 115.583 65.8538 119.364 63.0305 120.191C60.4646 120.941 51.642 123.177 46.4515 110.55C41.261 97.9243 46.1353 91.9929 51.9085 89.9646C57.6818 87.9363 65.5512 89.3863 69.4091 102.482Z" fill="#AD6359"/>
<path d="M66.8946 100.766C66.5824 100.798 66.2688 100.815 65.955 100.815C65.6261 100.881 65.2848 100.837 64.9837 100.689C64.8985 100.624 64.8373 100.532 64.8096 100.428C64.7818 100.324 64.789 100.214 64.8301 100.115C64.9422 99.9321 65.1006 99.7817 65.2894 99.6794C65.4782 99.5771 65.6906 99.5264 65.9053 99.5325C66.3414 99.4809 66.781 99.5937 67.1385 99.8487C67.2166 99.9118 67.2748 99.9961 67.3059 100.092C67.3371 100.187 67.3399 100.289 67.3141 100.386C67.2883 100.483 67.235 100.571 67.1605 100.638C67.0861 100.705 66.9937 100.75 66.8946 100.766Z" fill="#263238"/>
<path d="M58.0754 103.228C58.3735 103.106 58.631 102.948 58.9156 102.799C59.2311 102.687 59.502 102.476 59.6881 102.198C59.7292 102.098 59.7364 101.989 59.7087 101.885C59.6809 101.781 59.6197 101.689 59.5345 101.624C59.3462 101.521 59.1337 101.47 58.9191 101.477C58.7045 101.484 58.4958 101.549 58.3148 101.665C57.9104 101.841 57.5877 102.164 57.4113 102.568C57.3794 102.661 57.3742 102.76 57.3963 102.855C57.4184 102.95 57.4669 103.038 57.5362 103.106C57.6056 103.175 57.693 103.223 57.7883 103.245C57.8837 103.266 57.9832 103.26 58.0754 103.228Z" fill="#263238"/>
<path d="M60.5034 105.947C60.5034 105.916 60.4446 106.01 60.4582 106.047C60.7518 106.927 60.937 107.989 60.2188 108.522C60.2188 108.522 60.2188 108.585 60.2188 108.572C61.181 108.143 60.9235 106.738 60.5034 105.947Z" fill="#263238"/>
<path d="M59.4294 105.256C57.9613 105.572 58.7021 108.481 60.0574 108.188C61.4126 107.894 60.6491 104.989 59.4294 105.256Z" fill="#263238"/>
<path d="M58.8992 105.55C58.6869 105.78 58.5108 106.132 58.2126 106.241C57.9145 106.349 57.5214 106.128 57.2188 105.897C57.1871 105.87 57.1691 105.897 57.1781 105.943C57.3091 106.503 57.6705 107.018 58.2894 106.95C58.9083 106.882 59.1161 106.295 59.1161 105.699C59.1161 105.59 58.9851 105.459 58.8992 105.55Z" fill="#263238"/>
<path d="M65.7734 104.389C65.7734 104.353 65.8547 104.416 65.8638 104.452C66.058 105.355 66.433 106.372 67.3229 106.471C67.35 106.471 67.3591 106.516 67.3229 106.521C66.2929 106.611 65.8096 105.283 65.7734 104.389Z" fill="#263238"/>
<path d="M66.3456 103.25C67.7731 102.798 68.6043 105.667 67.2807 106.096C65.9571 106.525 65.1665 103.639 66.3456 103.25Z" fill="#263238"/>
<path d="M67.0068 103.264C67.2778 103.354 67.5805 103.567 67.8606 103.503C68.1407 103.44 68.3123 103.052 68.4388 102.699C68.4388 102.663 68.484 102.699 68.493 102.699C68.6692 103.246 68.6511 103.874 68.1497 104.131C67.6483 104.389 67.2056 103.996 66.9164 103.485C66.8622 103.408 66.8939 103.228 67.0068 103.264Z" fill="#263238"/>
<path d="M62.4785 113.564C62.7405 113.731 63.0206 113.979 63.3549 113.938C63.6934 113.863 64.0122 113.717 64.29 113.509C64.2954 113.506 64.3015 113.505 64.3076 113.506C64.3137 113.506 64.3195 113.509 64.3243 113.513C64.3291 113.516 64.3327 113.522 64.3346 113.527C64.3365 113.533 64.3367 113.54 64.3351 113.545C64.2434 113.752 64.0969 113.93 63.9114 114.06C63.7259 114.19 63.5085 114.267 63.2826 114.282C63.0833 114.275 62.8908 114.208 62.7298 114.09C62.5688 113.973 62.4466 113.81 62.3791 113.622C62.3746 113.573 62.4559 113.541 62.4785 113.564Z" fill="#263238"/>
<path d="M65.4791 109.024C65.4791 109.024 66.0211 110.316 66.1883 110.948C66.1883 111.007 64.0244 112.095 62.6015 110.808C62.5892 110.797 62.5811 110.783 62.5788 110.766C62.5765 110.75 62.58 110.734 62.5888 110.72C62.5976 110.707 62.611 110.697 62.6266 110.692C62.6422 110.687 62.6589 110.688 62.6737 110.695C63.6265 111.033 64.6636 111.052 65.6281 110.749C65.6281 110.564 64.6253 108.567 64.7246 108.536C65.2273 108.449 65.7392 108.429 66.247 108.477C65.1945 105.767 63.7173 103.219 62.7099 100.495C62.7042 100.475 62.7054 100.454 62.7132 100.435C62.7209 100.416 62.7348 100.401 62.7526 100.391C62.7704 100.381 62.7911 100.377 62.8112 100.381C62.8313 100.384 62.8497 100.394 62.8635 100.409C64.6027 102.952 65.8811 106.06 67.0421 108.847C67.1912 109.191 65.7591 109.064 65.4791 109.024Z" fill="#263238"/>
<path d="M65.4633 110.966C65.279 111.514 64.9589 112.007 64.5327 112.398C64.2906 112.601 63.993 112.725 63.6789 112.755C62.9922 112.809 62.7754 112.235 62.7212 111.702C62.6867 111.419 62.6867 111.132 62.7212 110.849C63.5991 111.18 64.5602 111.221 65.4633 110.966Z" fill="#263238"/>
<path d="M64.5302 112.398C64.2882 112.601 63.9905 112.725 63.6764 112.755C62.9898 112.809 62.773 112.235 62.7188 111.702C63.419 111.535 64.2637 111.761 64.5302 112.398Z" fill="#FF99BA"/>
<path d="M47.0993 112.204C47.8891 111.63 48.5162 110.86 48.9193 109.971C49.3223 109.082 49.4875 108.103 49.3987 107.131C51.5729 105.681 53.321 103.677 54.4628 101.326C54.4221 101.619 54.1285 103.743 53.9432 104.818C62.2011 101.696 63.6738 94.6897 63.6738 94.6897C66.9354 96.9485 67.8072 98.6289 68.3674 99.4376C68.3674 99.4376 67.491 94.1883 64.1707 91.1616C60.105 87.4528 55.7547 89.0701 55.7547 89.0701C53.554 88.9356 51.3577 89.3971 49.3972 90.406C47.4367 91.4149 45.7846 92.9338 44.6148 94.8027C40.147 101.841 47.0993 112.204 47.0993 112.204Z" fill="#263238"/>
<path d="M60.1983 102.243C58.9608 103.239 57.5813 104.045 56.1055 104.633C58.3897 103.549 60.3253 101.848 61.6935 99.7221C62.2761 98.8161 62.7421 97.8401 63.0804 96.8174C63.4915 95.7134 63.6788 94.5387 63.6315 93.3616C63.6315 93.3436 63.6386 93.3264 63.6513 93.3137C63.6641 93.301 63.6813 93.2938 63.6993 93.2938C63.7172 93.2938 63.7345 93.301 63.7472 93.3137C63.7599 93.3264 63.767 93.3436 63.767 93.3616C63.9359 94.5202 63.91 95.6989 63.6902 96.849C63.4215 97.9786 62.9501 99.05 62.2989 100.011C61.7104 100.859 61.0046 101.62 60.2028 102.27" fill="#263238"/>
<path d="M59.7907 110.722C59.0498 110.838 58.2912 110.744 57.6013 110.45C56.9113 110.156 56.3176 109.675 55.8878 109.06C55.4579 108.446 55.2091 107.723 55.1696 106.974C55.1302 106.225 55.3016 105.48 55.6645 104.824C56.0274 104.168 56.5672 103.627 57.2225 103.262C57.8778 102.897 58.6222 102.724 59.3712 102.761C60.1201 102.799 60.8436 103.046 61.4592 103.474C62.0748 103.902 62.5579 104.495 62.8535 105.184C63.27 106.161 63.2824 107.263 62.8878 108.25C62.4933 109.236 61.724 110.026 60.7484 110.447C60.442 110.578 60.1202 110.671 59.7907 110.722ZM58.6297 103.332C57.9145 103.444 57.2521 103.776 56.7352 104.283C56.2184 104.79 55.8728 105.446 55.7468 106.159C55.6208 106.872 55.7207 107.606 56.0325 108.26C56.3443 108.913 56.8524 109.453 57.4859 109.803C58.1194 110.154 58.8465 110.298 59.5657 110.215C60.2849 110.132 60.9603 109.826 61.4973 109.341C62.0343 108.855 62.4063 108.214 62.5612 107.507C62.716 106.799 62.6461 106.062 62.3611 105.396C62.0564 104.687 61.5244 104.099 60.8489 103.725C60.1733 103.351 59.3926 103.213 58.6297 103.332Z" fill="#407BFF"/>
<path d="M68.6374 108.201C67.124 108.441 65.5023 107.104 64.9421 105.089C64.6568 104.131 64.6773 103.107 65.0008 102.162C65.1157 101.747 65.3358 101.369 65.6397 101.064C65.9437 100.759 66.3212 100.538 66.7356 100.423C67.1501 100.307 67.5874 100.3 68.0053 100.403C68.4232 100.506 68.8074 100.715 69.1207 101.01C69.8878 101.65 70.4358 102.514 70.6883 103.481C71.2846 105.608 70.4805 107.7 68.8813 108.147L68.6374 108.201ZM67.0788 100.897C67.0117 100.907 66.9453 100.922 66.8801 100.942C66.5588 101.052 66.2683 101.236 66.0327 101.48C65.797 101.725 65.6229 102.022 65.5249 102.347C65.2421 103.187 65.2263 104.095 65.4797 104.944C65.9947 106.787 67.4673 107.994 68.7729 107.628C70.0784 107.262 70.7109 105.468 70.1959 103.625C69.9739 102.767 69.489 101.999 68.809 101.43C68.574 101.225 68.2986 101.071 68.0005 100.979C67.7025 100.888 67.3885 100.859 67.0788 100.897Z" fill="#407BFF"/>
<path d="M62.8502 105.667L62.3984 105.364C62.8502 104.709 64.0157 103.67 65.2399 104.416L64.9598 104.868C63.8756 104.203 62.9089 105.608 62.8502 105.667Z" fill="#407BFF"/>
<path d="M45.927 111.467L45.3984 111.359C45.4526 111.115 45.927 108.956 47.0292 108.445C48.0592 107.971 55.1606 106.688 55.4587 106.638L55.5536 107.162C53.5162 107.528 48.0456 108.567 47.2551 108.938C46.4646 109.308 46.0489 110.876 45.927 111.467Z" fill="#407BFF"/>
<path d="M48.9057 110.013C48.9057 110.013 45.1427 106.431 43.4577 107.854C41.7727 109.277 45.1924 114.887 47.5866 115.267C47.8886 115.336 48.2014 115.344 48.5065 115.29C48.8116 115.236 49.1028 115.122 49.3628 114.953C49.6228 114.785 49.8462 114.566 50.0199 114.309C50.1936 114.053 50.314 113.764 50.3739 113.46L48.9057 110.013Z" fill="#AD6359"/>
<path d="M44.4652 109.439C44.4593 109.441 44.4543 109.446 44.4508 109.451C44.4472 109.456 44.4453 109.462 44.4453 109.469C44.4453 109.475 44.4472 109.481 44.4508 109.486C44.4543 109.491 44.4593 109.496 44.4652 109.498C46.1547 109.814 47.266 111.097 48.1469 112.479C47.5642 111.996 46.8685 111.806 46.2089 112.516C46.1728 112.552 46.2089 112.61 46.2677 112.592C46.5242 112.45 46.8184 112.39 47.1102 112.421C47.402 112.451 47.6772 112.571 47.8984 112.764C48.2623 113.093 48.5908 113.46 48.8787 113.857C48.9826 113.979 49.2175 113.857 49.1317 113.704C49.1308 113.693 49.1308 113.683 49.1317 113.672C48.7477 111.675 46.6471 109.204 44.4652 109.439Z" fill="#263238"/>
<path d="M45.9219 126.66C46.464 127.351 47.0196 128.015 47.6069 128.679C48.1941 129.343 48.7814 129.975 49.4139 130.576C50.6742 131.769 52.0249 132.921 53.606 133.585C54.3698 133.941 55.2165 134.082 56.0545 133.991C56.2513 133.981 56.4441 133.932 56.6218 133.847C56.7994 133.762 56.9582 133.642 57.089 133.494C57.3521 133.174 57.5542 132.808 57.6853 132.415C57.9477 131.591 58.0996 130.735 58.137 129.871C58.2206 129 58.2206 128.123 58.137 127.251C58.3126 128.118 58.3914 129.001 58.3719 129.885C58.3726 130.777 58.251 131.664 58.0105 132.523C57.89 132.973 57.6743 133.392 57.3781 133.752C57.2198 133.942 57.0227 134.096 56.7998 134.204C56.5812 134.3 56.3501 134.366 56.1132 134.398C55.1977 134.516 54.2675 134.378 53.4253 134C52.6075 133.631 51.8383 133.162 51.135 132.604C50.4325 132.054 49.774 131.45 49.1654 130.798C47.9484 129.53 46.8617 128.144 45.9219 126.66Z" fill="#263238"/>
<path opacity="0.6" d="M180.583 44.8076H91.3008V107.355H180.583V44.8076Z" fill="white"/>
<path d="M180.927 107.693H90.9648V44.4646H180.927V107.693ZM91.6452 107.018H180.264V45.145H91.6452V107.018Z" fill="#EBEBEB"/>
<path d="M180.583 44.8076H91.3008V51.2682H180.583V44.8076Z" fill="#455A64"/>
<path d="M180.927 51.5998H90.9648V44.4646H180.927V51.5998ZM91.6452 50.9252H180.264V45.145H91.6452V50.9252Z" fill="#EBEBEB"/>
<path d="M97.3682 48.0837C97.3682 48.4059 97.2727 48.721 97.0937 48.9889C96.9146 49.2569 96.6601 49.4657 96.3624 49.5891C96.0646 49.7124 95.737 49.7447 95.4209 49.6818C95.1048 49.6189 94.8145 49.4637 94.5866 49.2358C94.3588 49.008 94.2036 48.7176 94.1407 48.4015C94.0778 48.0855 94.1101 47.7578 94.2334 47.4601C94.3567 47.1624 94.5656 46.9079 94.8336 46.7288C95.1015 46.5498 95.4166 46.4542 95.7388 46.4542C96.171 46.4542 96.5854 46.6259 96.891 46.9315C97.1966 47.2371 97.3682 47.6515 97.3682 48.0837Z" fill="#FF6C37"/>
<path d="M104.005 48.0837C104.005 48.4059 103.909 48.721 103.73 48.9889C103.551 49.2569 103.297 49.4657 102.999 49.5891C102.701 49.7124 102.374 49.7447 102.058 49.6818C101.742 49.6189 101.451 49.4637 101.223 49.2358C100.995 49.008 100.84 48.7176 100.777 48.4015C100.715 48.0855 100.747 47.7578 100.87 47.4601C100.993 47.1624 101.202 46.9079 101.47 46.7288C101.738 46.5498 102.053 46.4542 102.376 46.4542C102.808 46.4542 103.222 46.6259 103.528 46.9315C103.833 47.2371 104.005 47.6515 104.005 48.0837Z" fill="#EBEBEB"/>
<path d="M110.642 48.0837C110.642 48.4059 110.546 48.721 110.367 48.9889C110.188 49.2569 109.934 49.4657 109.636 49.5891C109.338 49.7124 109.01 49.7447 108.694 49.6818C108.378 49.6189 108.088 49.4637 107.86 49.2358C107.632 49.008 107.477 48.7176 107.414 48.4015C107.351 48.0855 107.384 47.7578 107.507 47.4601C107.63 47.1624 107.839 46.9079 108.107 46.7288C108.375 46.5498 108.69 46.4542 109.012 46.4542C109.444 46.4542 109.859 46.6259 110.164 46.9315C110.47 47.2371 110.642 47.6515 110.642 48.0837Z" fill="white"/>
<path d="M101.684 64.1091H98.2305V65.3727H101.684V64.1091Z" fill="#EBEBEB"/>
<path d="M143.809 64.1091H104.199V65.3727H143.809V64.1091Z" fill="#EBEBEB"/>
<path d="M152.487 64.1091H145.93V65.3727H152.487V64.1091Z" fill="#FF6C37"/>
<path d="M165.248 64.1091H153.91V65.3727H165.248V64.1091Z" fill="#A6A6A6"/>
<path d="M105.137 67.4883H101.684V68.7518H105.137V67.4883Z" fill="#EBEBEB"/>
<path d="M133.557 67.4883H107.566V68.7518H133.557V67.4883Z" fill="#A6A6A6"/>
<path d="M129.024 77.6135H104.199V78.8771H129.024V77.6135Z" fill="#A6A6A6"/>
<path d="M124.981 70.8613H107.566V72.1249H124.981V70.8613Z" fill="#FF6C37"/>
<path d="M156.96 74.2405H150.316V75.504H156.96V74.2405Z" fill="#A6A6A6"/>
<path d="M154.729 70.8613H126.914V72.1249H154.729V70.8613Z" fill="#A6A6A6"/>
<path d="M137.4 80.9868H104.199V82.2503H137.4V80.9868Z" fill="#FF6C37"/>
<path d="M171.176 67.4883H153.184V68.7518H171.176V67.4883Z" fill="#FF6C37"/>
<path d="M151.755 67.4883H135.191V68.7518H151.755V67.4883Z" fill="#EBEBEB"/>
<path d="M167.216 70.8613H156.039V72.1249H167.216V70.8613Z" fill="#EBEBEB"/>
<path d="M105.137 70.8613H101.684V72.1249H105.137V70.8613Z" fill="#EBEBEB"/>
<path d="M101.684 74.2405H98.2305V75.504H101.684V74.2405Z" fill="#A6A6A6"/>
<path d="M124.604 74.2405H104.199V75.504H124.604V74.2405Z" fill="#EBEBEB"/>
<path d="M152.487 77.6135H130.43V78.8771H152.487V77.6135Z" fill="#EBEBEB"/>
<path d="M167.946 77.6135H153.91V78.8771H167.946V77.6135Z" fill="#FF6C37"/>
<path d="M148.709 74.2405H126.68V75.504H148.709V74.2405Z" fill="#FF6C37"/>
<path d="M101.684 77.6135H98.2305V78.8771H101.684V77.6135Z" fill="#EBEBEB"/>
<path d="M101.684 80.9868H98.2305V82.2503H101.684V80.9868Z" fill="#EBEBEB"/>
<path d="M100.361 60.7873C100.402 60.8293 100.43 60.8823 100.441 60.9399C100.453 60.9975 100.447 61.0571 100.425 61.1116C100.403 61.1661 100.366 61.2131 100.318 61.2469C100.27 61.2807 100.213 61.2998 100.155 61.3019C100.074 61.3029 99.9959 61.2721 99.9375 61.2161L98.6054 59.8668C98.6029 59.8615 98.6016 59.8556 98.6016 59.8497C98.6016 59.8438 98.6029 59.8379 98.6054 59.8325C98.6054 59.8325 98.6054 59.8325 98.6054 59.804V59.7697C98.6042 59.7602 98.6042 59.7506 98.6054 59.7411V59.6667C98.6061 59.6534 98.6061 59.6401 98.6054 59.6267C98.6054 59.6267 98.6054 59.5924 98.6054 59.581C98.6054 59.581 98.6054 59.5524 98.634 59.5467L99.9661 58.1974C100.023 58.1422 100.099 58.1113 100.178 58.1113C100.257 58.1113 100.333 58.1422 100.389 58.1974C100.418 58.2246 100.441 58.2574 100.456 58.2938C100.472 58.3302 100.48 58.3693 100.48 58.4089C100.48 58.4485 100.472 58.4877 100.456 58.524C100.441 58.5604 100.418 58.5932 100.389 58.6205L99.2458 59.7639L100.361 60.7873Z" fill="#FF6C37"/>
<path d="M101.568 60.936L102.711 58.1745C102.725 58.1424 102.745 58.1134 102.77 58.0891C102.795 58.0648 102.824 58.0457 102.857 58.0329C102.889 58.0201 102.924 58.014 102.959 58.0147C102.994 58.0155 103.028 58.0231 103.06 58.0373C103.09 58.0504 103.118 58.0693 103.141 58.0931C103.164 58.1169 103.182 58.145 103.194 58.1758C103.207 58.2066 103.213 58.2395 103.212 58.2727C103.212 58.3058 103.204 58.3385 103.191 58.3689L102.048 61.1418C102.027 61.1879 101.993 61.227 101.951 61.2544C101.908 61.2818 101.858 61.2963 101.808 61.2962C101.776 61.3016 101.743 61.3016 101.71 61.2962C101.676 61.2839 101.644 61.2644 101.618 61.239C101.591 61.2135 101.571 61.1827 101.557 61.1486C101.544 61.1144 101.538 61.0778 101.539 61.0412C101.541 61.0045 101.551 60.9686 101.568 60.936Z" fill="#FF6C37"/>
<path d="M105.504 59.8268V59.8611L104.172 61.2104C104.114 61.2663 104.036 61.2971 103.955 61.2961C103.876 61.2962 103.8 61.2654 103.743 61.2104C103.715 61.1822 103.693 61.1488 103.677 61.112C103.662 61.0752 103.654 61.0358 103.654 60.996C103.654 60.9562 103.662 60.9167 103.677 60.8799C103.693 60.8431 103.715 60.8097 103.743 60.7816L104.887 59.6381L103.743 58.4946C103.715 58.4674 103.692 58.4346 103.676 58.3982C103.66 58.3619 103.652 58.3227 103.652 58.2831C103.652 58.2435 103.66 58.2044 103.676 58.168C103.692 58.1316 103.715 58.0988 103.743 58.0716C103.801 58.016 103.878 57.985 103.958 57.985C104.038 57.985 104.115 58.016 104.172 58.0716L105.504 59.4209C105.507 59.4322 105.507 59.4438 105.504 59.4552C105.505 59.4704 105.505 59.4857 105.504 59.5009C105.502 59.5161 105.502 59.5315 105.504 59.5466V59.6152V59.6667C105.504 59.6667 105.504 59.701 105.504 59.7067V59.8268Z" fill="#FF6C37"/>
<path d="M184.618 4.72314H130.418V42.6919H184.618V4.72314Z" fill="white"/>
<path d="M184.823 42.8979H130.211V4.51746H184.817L184.823 42.8979ZM130.623 42.492H184.411V4.90623H130.623V42.492Z" fill="#EBEBEB"/>
<path d="M184.618 4.72314H130.418V8.64523H184.618V4.72314Z" fill="#455A64"/>
<path d="M184.823 8.85119H130.211V4.51746H184.817L184.823 8.85119ZM130.623 8.43955H184.411V4.90623H130.623V8.43955Z" fill="#EBEBEB"/>
<path d="M134.099 6.71295C134.1 6.90906 134.043 7.10107 133.935 7.2646C133.827 7.42813 133.672 7.55579 133.491 7.63136C133.31 7.70693 133.111 7.727 132.919 7.68902C132.726 7.65104 132.549 7.55672 132.411 7.41805C132.272 7.27938 132.178 7.10261 132.14 6.91022C132.102 6.71782 132.122 6.51847 132.197 6.33751C132.273 6.15654 132.401 6.00212 132.564 5.89388C132.728 5.78563 132.92 5.72844 133.116 5.72957C133.376 5.73107 133.626 5.83516 133.81 6.01925C133.994 6.20335 134.098 6.45261 134.099 6.71295Z" fill="#FF6C37"/>
<path d="M138.131 6.71293C138.132 6.9088 138.075 7.10059 137.967 7.264C137.859 7.4274 137.705 7.55507 137.524 7.63081C137.343 7.70655 137.144 7.72695 136.952 7.68943C136.76 7.65192 136.583 7.55817 136.444 7.42007C136.305 7.28198 136.21 7.10575 136.172 6.91373C136.133 6.7217 136.152 6.52254 136.227 6.34147C136.302 6.1604 136.429 6.00559 136.591 5.89665C136.754 5.78771 136.946 5.72956 137.141 5.72955C137.403 5.72955 137.653 5.83297 137.839 6.01723C138.024 6.20148 138.129 6.4516 138.131 6.71293Z" fill="#EBEBEB"/>
<path d="M142.162 6.71293C142.163 6.9088 142.106 7.10059 141.998 7.264C141.89 7.4274 141.736 7.55507 141.555 7.63081C141.375 7.70655 141.175 7.72695 140.983 7.68943C140.791 7.65192 140.614 7.55817 140.475 7.42007C140.336 7.28198 140.242 7.10575 140.203 6.91373C140.164 6.7217 140.184 6.52254 140.258 6.34147C140.333 6.1604 140.46 6.00559 140.623 5.89665C140.785 5.78771 140.977 5.72956 141.173 5.72955C141.434 5.73104 141.683 5.83494 141.868 6.01887C142.053 6.20281 142.159 6.45207 142.162 6.71293Z" fill="white"/>
<path d="M136.723 16.4437H134.625V17.2098H136.723V16.4437Z" fill="#EBEBEB"/>
<path d="M162.291 16.4437H138.25V17.2098H162.291V16.4437Z" fill="#EBEBEB"/>
<path d="M167.557 16.4437H163.578V17.2098H167.557V16.4437Z" fill="#FF6C37"/>
<path d="M175.309 16.4437H168.426V17.2098H175.309V16.4437Z" fill="#A6A6A6"/>
<path d="M138.821 18.4965H136.723V19.2626H138.821V18.4965Z" fill="#EBEBEB"/>
<path d="M156.073 18.4965H140.293V19.2626H156.073V18.4965Z" fill="#A6A6A6"/>
<path d="M153.321 24.6426H138.25V25.4087H153.321V24.6426Z" fill="#A6A6A6"/>
<path d="M150.864 20.5431H140.293V21.3092H150.864V20.5431Z" fill="#FF6C37"/>
<path d="M170.273 22.5899H166.242V23.356H170.273V22.5899Z" fill="#A6A6A6"/>
<path d="M168.926 20.5431H152.043V21.3092H168.926V20.5431Z" fill="#A6A6A6"/>
<path d="M158.404 26.6891H138.25V27.4553H158.404V26.6891Z" fill="#FF6C37"/>
<path d="M178.901 18.4965H167.98V19.2626H178.901V18.4965Z" fill="#FF6C37"/>
<path d="M167.119 18.4965H157.062V19.2626H167.119V18.4965Z" fill="#EBEBEB"/>
<path d="M176.505 20.5431H169.719V21.3092H176.505V20.5431Z" fill="#EBEBEB"/>
<path d="M138.821 20.5431H136.723V21.3092H138.821V20.5431Z" fill="#EBEBEB"/>
<path d="M136.723 22.5899H134.625V23.356H136.723V22.5899Z" fill="#A6A6A6"/>
<path d="M150.639 22.5899H138.25V23.356H150.639V22.5899Z" fill="#EBEBEB"/>
<path d="M167.566 24.6426H154.176V25.4087H167.566V24.6426Z" fill="#EBEBEB"/>
<path d="M176.945 24.6426H168.426V25.4087H176.945V24.6426Z" fill="#FF6C37"/>
<path d="M165.271 22.5899H151.898V23.356H165.271V22.5899Z" fill="#FF6C37"/>
<path d="M136.723 24.6426H134.625V25.4087H136.723V24.6426Z" fill="#EBEBEB"/>
<path d="M136.723 26.6891H134.625V27.4553H136.723V26.6891Z" fill="#EBEBEB"/>
<path d="M135.929 14.4256C135.961 14.4615 135.98 14.5084 135.98 14.5571C135.98 14.6058 135.961 14.6528 135.929 14.6886C135.893 14.7216 135.846 14.7399 135.797 14.7399C135.748 14.7399 135.701 14.7216 135.666 14.6886L134.859 13.8653V13.831L135.666 13.0134C135.701 12.9805 135.748 12.9622 135.797 12.9622C135.846 12.9622 135.893 12.9805 135.929 13.0134C135.961 13.0484 135.979 13.0943 135.979 13.1421C135.979 13.1898 135.961 13.2358 135.929 13.2707L135.242 13.9568L135.929 14.4256Z" fill="#FF6C37"/>
<path d="M136.655 14.5229L137.359 12.842C137.376 12.8034 137.408 12.7732 137.448 12.7582C137.488 12.7432 137.532 12.7446 137.57 12.762C137.607 12.7783 137.636 12.8083 137.651 12.8457C137.666 12.8831 137.666 12.9249 137.65 12.9621L136.941 14.6258C136.93 14.6544 136.91 14.679 136.885 14.6963C136.859 14.7136 136.829 14.7229 136.798 14.723H136.741C136.703 14.7077 136.673 14.6781 136.657 14.6406C136.641 14.6031 136.64 14.5608 136.655 14.5229Z" fill="#FF6C37"/>
<path d="M139.039 13.8425L138.215 14.6886C138.18 14.7222 138.133 14.7406 138.084 14.7401C138.061 14.7402 138.037 14.7357 138.016 14.7269C137.994 14.7181 137.975 14.7051 137.958 14.6886C137.94 14.6716 137.926 14.6511 137.917 14.6285C137.907 14.606 137.902 14.5817 137.902 14.5571C137.902 14.5326 137.907 14.5083 137.917 14.4857C137.926 14.4631 137.94 14.4427 137.958 14.4256L138.638 13.7396L137.958 13.0535C137.941 13.0369 137.927 13.017 137.917 12.9949C137.908 12.9727 137.903 12.9489 137.903 12.9248C137.903 12.9008 137.908 12.8769 137.917 12.8548C137.927 12.8327 137.941 12.8128 137.958 12.7962C137.993 12.7636 138.039 12.7455 138.087 12.7455C138.134 12.7455 138.18 12.7636 138.215 12.7962L139.022 13.6138V13.6481L139.039 13.8425Z" fill="#FF6C37"/>
<g opacity="0.6">
<path d="M81.0898 45.8251H35.2539V77.9336H81.0898V45.8251Z" fill="white"/>
<path d="M81.2609 78.0882H35.082V45.6538H81.2609V78.0882ZM35.4308 77.7395H80.9122V46.0026H35.4308V77.7395Z" fill="#EBEBEB"/>
<path d="M81.0898 45.8251H35.2539V49.1411H81.0898V45.8251Z" fill="#455A64"/>
<path d="M81.2609 49.3186H35.082V45.6538H81.2609V49.3186ZM35.4308 48.9699H80.9122V46.0026H35.4308V48.9699Z" fill="#EBEBEB"/>
<path d="M38.3648 47.5119C38.3648 47.6772 38.3157 47.8388 38.2237 47.9762C38.1317 48.1136 38.001 48.2206 37.8481 48.2836C37.6953 48.3466 37.5272 48.3628 37.3651 48.3301C37.203 48.2974 37.0543 48.2174 36.9378 48.1001C36.8213 47.9828 36.7422 47.8335 36.7107 47.6712C36.6791 47.5089 36.6964 47.3409 36.7605 47.1885C36.8246 47.036 36.9324 46.9061 37.0705 46.815C37.2085 46.724 37.3704 46.676 37.5358 46.6771C37.7561 46.6787 37.967 46.7673 38.1223 46.9236C38.2776 47.08 38.3648 47.2915 38.3648 47.5119Z" fill="#FF6C37"/>
<path d="M41.771 47.5119C41.771 47.677 41.7221 47.8383 41.6303 47.9756C41.5386 48.1129 41.4083 48.2199 41.2557 48.283C41.1032 48.3462 40.9354 48.3628 40.7734 48.3305C40.6115 48.2983 40.4628 48.2188 40.346 48.1021C40.2293 47.9854 40.1498 47.8366 40.1176 47.6747C40.0854 47.5128 40.1019 47.3449 40.1651 47.1924C40.2283 47.0399 40.3353 46.9095 40.4725 46.8178C40.6098 46.7261 40.7712 46.6771 40.9363 46.6771C41.1577 46.6771 41.37 46.7651 41.5265 46.9216C41.6831 47.0782 41.771 47.2905 41.771 47.5119Z" fill="#EBEBEB"/>
<path d="M45.1773 47.5119C45.1773 47.677 45.1283 47.8383 45.0366 47.9756C44.9449 48.1129 44.8145 48.2199 44.662 48.283C44.5095 48.3462 44.3416 48.3628 44.1797 48.3305C44.0178 48.2983 43.869 48.2188 43.7523 48.1021C43.6356 47.9854 43.5561 47.8366 43.5239 47.6747C43.4916 47.5128 43.5082 47.3449 43.5714 47.1924C43.6345 47.0399 43.7415 46.9095 43.8788 46.8178C44.0161 46.7261 44.1774 46.6771 44.3425 46.6771C44.5639 46.6771 44.7762 46.7651 44.9328 46.9216C45.0893 47.0782 45.1773 47.2905 45.1773 47.5119Z" fill="white"/>
<path d="M40.581 55.7393H38.8086V56.3853H40.581V55.7393Z" fill="#EBEBEB"/>
<path d="M62.2058 55.7393H41.875V56.3853H62.2058V55.7393Z" fill="#EBEBEB"/>
<path d="M66.6644 55.7393H63.2969V56.3853H66.6644V55.7393Z" fill="#FF6C37"/>
<path d="M73.2148 55.7393H67.3945V56.3853H73.2148V55.7393Z" fill="#A6A6A6"/>
<path d="M42.3544 57.4713H40.582V58.1174H42.3544V57.4713Z" fill="#EBEBEB"/>
<path d="M56.9458 57.4713H43.6016V58.1174H56.9458V57.4713Z" fill="#A6A6A6"/>
<path d="M54.6189 62.6685H41.875V63.3145H54.6189V62.6685Z" fill="#A6A6A6"/>
<path d="M52.5435 59.2039H43.6016V59.8499H52.5435V59.2039Z" fill="#FF6C37"/>
<path d="M68.964 60.9362H65.5508V61.5822H68.964V60.9362Z" fill="#A6A6A6"/>
<path d="M67.8152 59.2039H53.5391V59.8499H67.8152V59.2039Z" fill="#A6A6A6"/>
<path d="M58.9184 64.401H41.875V65.0471H58.9184V64.401Z" fill="#FF6C37"/>
<path d="M76.2587 57.4713H67.0195V58.1174H76.2587V57.4713Z" fill="#FF6C37"/>
<path d="M66.2868 57.4713H57.7852V58.1174H66.2868V57.4713Z" fill="#EBEBEB"/>
<path d="M74.2285 59.2039H68.4883V59.8499H74.2285V59.2039Z" fill="#EBEBEB"/>
<path d="M42.3544 59.2039H40.582V59.8499H42.3544V59.2039Z" fill="#EBEBEB"/>
<path d="M40.581 60.9362H38.8086V61.5822H40.581V60.9362Z" fill="#A6A6A6"/>
<path d="M52.3492 60.9362H41.875V61.5822H52.3492V60.9362Z" fill="#EBEBEB"/>
<path d="M66.6602 62.6685H55.3398V63.3145H66.6602V62.6685Z" fill="#EBEBEB"/>
<path d="M74.5984 62.6685H67.3945V63.3145H74.5984V62.6685Z" fill="#FF6C37"/>
<path d="M64.7268 60.9362H53.418V61.5822H64.7268V60.9362Z" fill="#FF6C37"/>
<path d="M40.581 62.6685H38.8086V63.3145H40.581V62.6685Z" fill="#EBEBEB"/>
<path d="M40.581 64.401H38.8086V65.0471H40.581V64.401Z" fill="#EBEBEB"/>
<path d="M39.9072 54.0352C39.9346 54.0648 39.9497 54.1036 39.9497 54.1439C39.9497 54.1841 39.9346 54.2229 39.9072 54.2525C39.8779 54.2805 39.8392 54.2968 39.7986 54.2982C39.7564 54.2967 39.716 54.2805 39.6843 54.2525L39.0039 53.5607V53.4978L39.6843 52.806C39.7148 52.7783 39.7545 52.7629 39.7958 52.7629C39.837 52.7629 39.8767 52.7783 39.9072 52.806C39.9346 52.8356 39.9497 52.8744 39.9497 52.9146C39.9497 52.9549 39.9346 52.9937 39.9072 53.0233L39.3355 53.595L39.9072 54.0352Z" fill="#FF6C37"/>
<path d="M40.5258 54.1099L41.0975 52.692C41.1043 52.6756 41.1144 52.6607 41.1271 52.6483C41.1398 52.6359 41.1549 52.6262 41.1714 52.6198C41.188 52.6134 41.2057 52.6104 41.2235 52.611C41.2412 52.6117 41.2586 52.6159 41.2747 52.6234C41.3064 52.6372 41.3314 52.663 41.3442 52.6951C41.3571 52.7272 41.3567 52.763 41.3433 52.7949L40.7716 54.2185C40.7606 54.2426 40.7428 54.2629 40.7205 54.2771C40.6982 54.2913 40.6723 54.2988 40.6458 54.2986H40.6001C40.5822 54.2918 40.566 54.2813 40.5525 54.2679C40.5389 54.2545 40.5283 54.2384 40.5213 54.2206C40.5143 54.2029 40.5111 54.1839 40.5118 54.1648C40.5126 54.1457 40.5173 54.127 40.5258 54.1099Z" fill="#FF6C37"/>
<path d="M42.5443 53.5379L41.8582 54.2297C41.8293 54.2584 41.7902 54.2744 41.7496 54.2744C41.7089 54.2744 41.6698 54.2584 41.6409 54.2297C41.626 54.2158 41.6142 54.199 41.6061 54.1803C41.5979 54.1616 41.5938 54.1415 41.5938 54.1211C41.5938 54.1007 41.5979 54.0806 41.6061 54.0619C41.6142 54.0432 41.626 54.0264 41.6409 54.0125L42.2127 53.4407L41.6409 52.869C41.626 52.8551 41.6142 52.8383 41.6061 52.8196C41.5979 52.8009 41.5938 52.7808 41.5938 52.7604C41.5938 52.74 41.5979 52.7198 41.6061 52.7012C41.6142 52.6825 41.626 52.6657 41.6409 52.6517C41.6705 52.6244 41.7093 52.6093 41.7496 52.6093C41.7898 52.6093 41.8286 52.6244 41.8582 52.6517L42.5443 53.3435V53.5036V53.5379Z" fill="#FF6C37"/>
</g>
<path d="M103.899 85.8312H77.2461V107.967H103.899V85.8312Z" fill="#FF6C37"/>
<path opacity="0.6" d="M29.8661 178.976C29.8661 178.976 39.7412 174.427 39.7412 168.328C39.7412 162.23 26.9343 158.3 26.9343 153.534C26.9343 148.768 32.5178 145.958 32.5178 145.958C32.5178 145.958 23.6953 148.976 23.6953 154.993C23.6953 161.01 32.1384 165.107 32.947 168.943C34.0673 174.287 29.8661 178.976 29.8661 178.976Z" fill="#DBDBDB"/>
<path opacity="0.6" d="M30.3523 178.976C30.3523 178.976 20.4727 175.398 20.4727 170.605C20.4727 165.812 33.2841 162.718 33.2841 158.973C33.2841 155.228 27.696 153.019 27.696 153.019C27.696 153.019 36.5231 155.386 36.5231 160.129C36.5231 164.873 26.8242 168.13 26.133 171.983C25.4509 175.76 30.3523 178.976 30.3523 178.976Z" fill="#DBDBDB"/>
<path d="M34.6658 194.317H25.2695V195.785H34.6658V194.317Z" fill="#37474F"/>
<path d="M34.6658 194.317H25.2695V195.284H34.6658V194.317Z" fill="#263238"/>
<path d="M14.121 190.373C14.6933 191.217 15.4962 191.879 16.4342 192.28C17.3721 192.68 18.4054 192.802 19.4109 192.632C19.7368 192.571 20.056 192.479 20.3641 192.356C20.8314 192.175 21.2769 191.941 21.6922 191.661L20.4996 189.89C20.2775 190.044 20.0416 190.177 19.7949 190.287C17.5362 191.304 16.1403 189.542 15.8602 189.135C14.5727 187.329 14.112 183.191 15.4085 181.6C15.4943 181.483 15.8602 181.298 17.3871 181.6C17.6627 181.664 17.9834 181.736 18.3403 181.835C18.6184 181.93 18.9063 181.992 19.1986 182.021L19.2347 180.954L19.3386 179.897C19.2438 179.897 19.0902 179.834 18.8869 179.78C18.188 179.572 17.4734 179.421 16.7501 179.328C15.6389 179.211 14.4914 179.328 13.7551 180.232C11.6455 182.852 12.5038 188.106 14.121 190.373Z" fill="#37474F"/>
<path d="M20.4938 189.895C20.2717 190.049 20.0358 190.182 19.7891 190.292L20.3583 192.361C20.8256 192.179 21.271 191.946 21.6864 191.665L20.4938 189.895Z" fill="#263238"/>
<path d="M16.7578 179.342L17.3903 181.601C17.6658 181.664 17.9866 181.736 18.3434 181.835C18.6215 181.93 18.9095 181.992 19.2017 182.021L19.2379 180.955L19.3418 179.897C19.2469 179.897 19.0933 179.834 18.89 179.78C18.1922 179.577 17.4792 179.43 16.7578 179.342Z" fill="#263238"/>
<path d="M42.4682 176.586C42.4682 176.586 41.3388 186.163 39.3918 190.197C37.4448 194.231 34.7253 194.674 33.0403 194.674H26.8966C25.2071 194.674 22.4921 194.222 20.5451 190.197C18.5981 186.172 17.4688 176.586 17.4688 176.586H42.4682Z" fill="#37474F"/>
<path d="M41.1298 184.541C40.9356 185.422 40.7232 186.294 40.4883 187.116H19.4462C19.2113 186.294 18.9944 185.422 18.8047 184.541H41.1298Z" fill="#455A64"/>
<path d="M40.1983 188.092C40.0538 188.544 39.9047 188.996 39.7466 189.38H20.1861C20.028 188.982 19.8789 188.548 19.7344 188.092H40.1983Z" fill="#455A64"/>
<path d="M41.6122 182.12C41.5354 182.54 41.454 182.969 41.3637 183.407H18.5688C18.4784 182.956 18.3971 182.54 18.3203 182.12H41.6122Z" fill="#455A64"/>
<g clip-path="url(#clip1_1188_24841)">
<path d="M91.517 88.5422L85.523 93.7521L80.4102 102.954H85.021L91.517 88.5422ZM92.3141 89.761L89.7563 96.9878L94.6602 103.165L85.1455 104.804H100.739L92.3141 89.761Z" fill="white"/>
</g>
</g>
<defs>
<clipPath id="clip0_1188_24841">
<rect width="191.625" height="200" fill="white"/>
</clipPath>
<clipPath id="clip1_1188_24841">
<rect width="20.3284" height="16.2627" fill="white" transform="translate(80.4102 88.5415)"/>
</clipPath>
</defs>
</svg>
