<svg width="260" height="200" viewBox="0 0 260 200" fill="none" xmlns="http://www.w3.org/2000/svg">
<path d="M211.554 27.9202C211.134 27.9683 210.744 28.1602 210.449 28.4633C210.155 28.7664 209.974 29.1621 209.938 29.5831C209.903 30.0042 210.013 30.4246 210.252 30.7733C210.491 31.1219 210.843 31.3771 211.249 31.4956L211.249 59.6843L211.859 59.6843L211.859 31.52C212.264 31.4015 212.617 31.1463 212.855 30.7977C213.094 30.4491 213.205 30.0286 213.169 29.6075C213.133 29.1865 212.953 28.7908 212.658 28.4877C212.364 28.1846 211.974 27.9927 211.554 27.9446L211.554 27.9202ZM211.554 30.916C211.311 30.9221 211.072 30.8557 210.868 30.7253C210.663 30.595 210.502 30.4066 210.405 30.1842C210.308 29.9619 210.279 29.7156 210.323 29.4769C210.366 29.2382 210.48 29.0179 210.65 28.8442C210.819 28.6705 211.036 28.5512 211.274 28.5016C211.511 28.452 211.758 28.4743 211.983 28.5657C212.208 28.6571 212.4 28.8134 212.536 29.0147C212.671 29.216 212.744 29.4531 212.744 29.6957C212.742 30.0131 212.617 30.3174 212.395 30.5441C212.173 30.7707 211.871 30.902 211.554 30.9099L211.554 30.916Z" fill="#A6D7FF"/>
<path d="M205.474 37.4994L205.474 65.688L206.084 65.688L206.084 37.4994C206.537 37.4229 206.944 37.1792 207.225 36.8165C207.507 36.4539 207.641 35.9988 207.603 35.5415C207.565 35.0841 207.356 34.6579 207.018 34.3472C206.68 34.0365 206.238 33.8641 205.779 33.8641C205.32 33.8641 204.878 34.0365 204.54 34.3472C204.202 34.6579 203.993 35.0841 203.955 35.5415C203.917 35.9988 204.051 36.4539 204.333 36.8165C204.614 37.1792 205.021 37.4229 205.474 37.4994ZM205.779 34.5341C206.022 34.5342 206.259 34.6066 206.46 34.742C206.661 34.8775 206.818 35.0699 206.909 35.2947C207 35.5195 207.023 35.7664 206.973 36.0039C206.923 36.2414 206.804 36.4587 206.63 36.6281C206.457 36.7975 206.236 36.9112 205.998 36.9548C205.759 36.9984 205.513 36.9698 205.29 36.8728C205.068 36.7757 204.88 36.6146 204.749 36.4099C204.619 36.2053 204.553 35.9664 204.559 35.7239C204.567 35.4055 204.699 35.1029 204.927 34.8806C205.155 34.6583 205.461 34.534 205.779 34.5341Z" fill="#A6D7FF"/>
<path d="M27.6135 181.453H19.6816V196.139C19.2291 196.215 18.8218 196.459 18.5404 196.822C18.2591 197.184 18.1243 197.639 18.1627 198.097C18.201 198.554 18.4098 198.98 18.7477 199.291C19.0855 199.602 19.5277 199.774 19.9867 199.774C20.4456 199.774 20.8879 199.602 21.2257 199.291C21.5635 198.98 21.7723 198.554 21.8107 198.097C21.8491 197.639 21.7142 197.184 21.4329 196.822C21.1516 196.459 20.7443 196.215 20.2918 196.139V182.063H28.2236V156.913H27.6135V181.453ZM21.1765 197.926C21.1764 198.169 21.104 198.406 20.9685 198.607C20.833 198.809 20.6406 198.965 20.4158 199.056C20.1911 199.148 19.9442 199.17 19.7067 199.121C19.4692 199.071 19.2518 198.952 19.0825 198.778C18.9131 198.604 18.7993 198.384 18.7557 198.145C18.7122 197.907 18.7407 197.66 18.8378 197.438C18.9348 197.216 19.096 197.027 19.3006 196.897C19.5053 196.766 19.7441 196.7 19.9867 196.706C20.3019 196.714 20.6018 196.844 20.8236 197.068C21.0454 197.292 21.1718 197.593 21.1765 197.908V197.926Z" fill="#FF928E"/>
<path d="M35.3347 185.925V157.736H34.7246V185.925C34.272 186.001 33.8647 186.245 33.5834 186.608C33.3021 186.97 33.1673 187.425 33.2056 187.883C33.244 188.34 33.4528 188.766 33.7906 189.077C34.1285 189.388 34.5707 189.56 35.0297 189.56C35.4886 189.56 35.9308 189.388 36.2687 189.077C36.6065 188.766 36.8153 188.34 36.8537 187.883C36.8921 187.425 36.7572 186.97 36.4759 186.608C36.1946 186.245 35.7873 186.001 35.3347 185.925ZM35.0297 188.884C34.7883 188.884 34.5524 188.813 34.3517 188.678C34.151 188.544 33.9946 188.354 33.9023 188.131C33.8099 187.908 33.7857 187.662 33.8328 187.426C33.8799 187.189 33.9961 186.972 34.1668 186.801C34.3374 186.63 34.5549 186.514 34.7916 186.467C35.0283 186.42 35.2737 186.444 35.4966 186.536C35.7196 186.629 35.9102 186.785 36.0443 186.986C36.1784 187.187 36.2499 187.422 36.2499 187.664C36.2541 187.825 36.2254 187.986 36.1656 188.136C36.1058 188.286 36.016 188.422 35.9019 188.536C35.7877 188.65 35.6515 188.74 35.5016 188.8C35.3516 188.86 35.191 188.888 35.0297 188.884Z" fill="#FF928E"/>
<path opacity="0.5" d="M254.898 160.157C254.899 160.365 254.859 160.572 254.779 160.765C254.7 160.958 254.583 161.133 254.436 161.28C254.288 161.428 254.113 161.545 253.92 161.624C253.727 161.704 253.521 161.744 253.312 161.743H2.04903C1.84099 161.743 1.635 161.702 1.44288 161.622C1.25075 161.543 1.07627 161.426 0.92945 161.278C0.782628 161.131 0.666352 160.956 0.587296 160.763C0.50824 160.571 0.467959 160.365 0.468762 160.157C0.468762 159.738 0.635254 159.336 0.931612 159.039C1.22797 158.743 1.62992 158.577 2.04903 158.577H253.3C253.508 158.576 253.714 158.616 253.907 158.695C254.099 158.774 254.274 158.89 254.421 159.037C254.569 159.184 254.686 159.359 254.765 159.551C254.845 159.743 254.886 159.949 254.886 160.157H254.898Z" fill="#A6D7FF"/>
<path d="M109.051 4.15527H37.7131C32.9247 4.15527 29.043 8.03702 29.043 12.8254V149.906C29.043 154.695 32.9247 158.576 37.7131 158.576H109.051C113.839 158.576 117.721 154.695 117.721 149.906V12.8254C117.721 8.03702 113.839 4.15527 109.051 4.15527Z" fill="#263238"/>
<path d="M79.1582 148.936C79.1594 150.081 78.821 151.2 78.1859 152.152C77.5508 153.104 76.6475 153.846 75.5903 154.285C74.5332 154.723 73.3696 154.839 72.2471 154.616C71.1245 154.393 70.0933 153.842 69.284 153.032C68.4747 152.223 67.9237 151.192 67.7007 150.069C67.4777 148.947 67.5928 147.783 68.0313 146.726C68.4699 145.669 69.2122 144.765 70.1643 144.13C71.1164 143.495 72.2356 143.157 73.3801 143.158C74.1389 143.158 74.8902 143.308 75.5913 143.598C76.2923 143.888 76.9293 144.314 77.4658 144.85C78.0023 145.387 78.428 146.024 78.7183 146.725C79.0087 147.426 79.1582 148.177 79.1582 148.936Z" fill="white"/>
<path d="M84.7605 13.9725C84.7605 14.3074 84.6275 14.6287 84.3906 14.8655C84.1538 15.1024 83.8325 15.2355 83.4975 15.2355H63.2591C62.9241 15.2355 62.6029 15.1024 62.366 14.8655C62.1292 14.6287 61.9961 14.3074 61.9961 13.9725C61.9961 13.6375 62.1292 13.3163 62.366 13.0794C62.6029 12.8425 62.9241 12.7095 63.2591 12.7095H83.4975C83.8325 12.7095 84.1538 12.8425 84.3906 13.0794C84.6275 13.3163 84.7605 13.6375 84.7605 13.9725Z" fill="white"/>
<path d="M74.5285 9.10974C74.5297 9.33712 74.4633 9.55973 74.3377 9.74929C74.2122 9.93886 74.0331 10.0868 73.8232 10.1744C73.6134 10.262 73.3822 10.2852 73.1592 10.2411C72.9361 10.1971 72.7311 10.0877 72.5703 9.92692C72.4096 9.76613 72.3002 9.56118 72.2561 9.33811C72.2121 9.11503 72.2353 8.88389 72.3229 8.67404C72.4104 8.4642 72.5584 8.28511 72.748 8.15954C72.9375 8.03396 73.1602 7.96756 73.3875 7.96877C73.6896 7.97037 73.9789 8.09109 74.1925 8.30472C74.4062 8.51835 74.5269 8.80763 74.5285 9.10974Z" fill="white"/>
<path d="M113.835 18.3594H32.9297V140.083H113.835V18.3594Z" fill="#FFE2D7"/>
<path opacity="0.5" d="M32.9297 140.083L113.835 18.3594V140.083H32.9297Z" fill="#EEC1BB"/>
<path d="M106.88 24.6805H39.8867V54.4311H106.88V24.6805Z" fill="white"/>
<g opacity="0.4">
<path d="M67.8896 31.8679L77.9082 45.0897L83.3995 37.8412L91.8377 48.9824H80.8552H74.9612H54.918L67.8896 31.8679Z" fill="#FF6C37"/>
<path d="M76.4727 34.8515C76.4739 35.2579 76.5955 35.6549 76.8222 35.9922C77.0488 36.3295 77.3704 36.5921 77.7462 36.7468C78.122 36.9015 78.5353 36.9414 78.9337 36.8613C79.3322 36.7813 79.698 36.585 79.9849 36.2972C80.2719 36.0094 80.4671 35.643 80.546 35.2443C80.6248 34.8456 80.5837 34.4325 80.4279 34.0572C80.2721 33.6818 80.0086 33.361 79.6706 33.1354C79.3326 32.9097 78.9353 32.7892 78.5288 32.7892C78.2583 32.7892 77.9904 32.8426 77.7406 32.9463C77.4907 33.0501 77.2638 33.2021 77.0727 33.3936C76.8817 33.5852 76.7304 33.8126 76.6274 34.0628C76.5245 34.313 76.4719 34.581 76.4727 34.8515Z" fill="#FF6C37"/>
</g>
<path d="M70.1498 64.645H39.8867V65.9934H70.1498V64.645Z" fill="#FF6C37"/>
<path d="M70.1498 67.9519H39.8867V69.3003H70.1498V67.9519Z" fill="#FF6C37"/>
<path d="M70.1498 71.2589H39.8867V72.6073H70.1498V71.2589Z" fill="#FF6C37"/>
<path d="M70.1498 74.5659H39.8867V75.9143H70.1498V74.5659Z" fill="#FF6C37"/>
<path d="M70.1498 58.7264H39.8867V61.7039H70.1498V58.7264Z" fill="white"/>
<path d="M106.88 58.7264H76.6172V61.7039H106.88V58.7264Z" fill="white"/>
<path d="M106.88 64.645H76.6172V65.9934H106.88V64.645Z" fill="#FF6C37"/>
<path d="M106.88 67.9519H76.6172V69.3003H106.88V67.9519Z" fill="#FF6C37"/>
<path d="M106.88 71.2589H76.6172V72.6073H106.88V71.2589Z" fill="#FF6C37"/>
<path d="M106.88 74.5659H76.6172V75.9143H106.88V74.5659Z" fill="#FF6C37"/>
<path d="M70.1498 85.8046H39.8867V87.153H70.1498V85.8046Z" fill="#FF6C37"/>
<path d="M70.1498 89.1055H39.8867V90.4539H70.1498V89.1055Z" fill="#FF6C37"/>
<path d="M70.1498 92.4126H39.8867V93.761H70.1498V92.4126Z" fill="#FF6C37"/>
<path d="M70.1498 95.7195H39.8867V97.068H70.1498V95.7195Z" fill="#FF6C37"/>
<path d="M70.1498 79.8802H39.8867V82.8577H70.1498V79.8802Z" fill="white"/>
<path d="M106.88 79.8802H76.6172V82.8577H106.88V79.8802Z" fill="white"/>
<path d="M106.88 85.8046H76.6172V87.153H106.88V85.8046Z" fill="#FF6C37"/>
<path d="M106.88 89.1055H76.6172V90.4539H106.88V89.1055Z" fill="#FF6C37"/>
<path d="M106.88 92.4126H76.6172V93.761H106.88V92.4126Z" fill="#FF6C37"/>
<path d="M106.88 95.7195H76.6172V97.068H106.88V95.7195Z" fill="#FF6C37"/>
<path d="M70.7356 103.133H39.8867V133.982H70.7356V103.133Z" fill="white"/>
<g opacity="0.4">
<path d="M51.7405 113.56L57.7199 121.449L60.9903 117.123L66.024 123.768H59.471H55.9566H44.0039L51.7405 113.56Z" fill="#407BFF"/>
<path d="M56.8359 115.342C56.8359 115.583 56.9075 115.819 57.0416 116.02C57.1757 116.22 57.3663 116.377 57.5892 116.469C57.8122 116.561 58.0576 116.586 58.2943 116.539C58.531 116.491 58.7484 116.375 58.9191 116.205C59.0898 116.034 59.206 115.816 59.2531 115.58C59.3001 115.343 59.276 115.098 59.1836 114.875C59.0913 114.652 58.9349 114.461 58.7342 114.327C58.5335 114.193 58.2976 114.121 58.0562 114.121C57.7326 114.121 57.4222 114.25 57.1934 114.479C56.9645 114.708 56.8359 115.018 56.8359 115.342Z" fill="#407BFF"/>
</g>
<path d="M106.88 103.133H76.6172V106.11H106.88V103.133Z" fill="white"/>
<path d="M106.88 109.051H76.6172V110.4H106.88V109.051Z" fill="#FF6C37"/>
<path d="M106.88 112.358H76.6172V113.707H106.88V112.358Z" fill="#FF6C37"/>
<path d="M106.88 115.665H76.6172V117.013H106.88V115.665Z" fill="#FF6C37"/>
<path d="M106.88 118.966H76.6172V120.314H106.88V118.966Z" fill="#FF6C37"/>
<path d="M106.88 122.273H76.6172V123.621H106.88V122.273Z" fill="#FF6C37"/>
<path d="M106.88 125.58H76.6172V126.928H106.88V125.58Z" fill="#FF6C37"/>
<path d="M106.88 128.887H76.6172V130.235H106.88V128.887Z" fill="#FF6C37"/>
<path d="M106.88 132.188H76.6172V133.536H106.88V132.188Z" fill="#FF6C37"/>
<path d="M216.473 63.9493H99.1795C96.5174 63.9493 94.3594 66.1073 94.3594 68.7694V149.009C94.3594 151.671 96.5174 153.829 99.1795 153.829H216.473C219.136 153.829 221.294 151.671 221.294 149.009V68.7694C221.294 66.1073 219.136 63.9493 216.473 63.9493Z" fill="#455A64"/>
<path d="M216.65 69.8067H98.9961V147.966H216.65V69.8067Z" fill="white"/>
<path d="M84.7188 147.99V153.024C84.7236 154.495 85.3101 155.905 86.3503 156.945C87.3905 157.985 88.8 158.572 90.2711 158.576H225.369C226.84 158.572 228.249 157.985 229.29 156.945C230.33 155.905 230.916 154.495 230.921 153.024V147.99H84.7188Z" fill="#455A64"/>
<path d="M133.102 147.99V149.693C133.103 150.191 133.302 150.668 133.654 151.02C134.006 151.372 134.483 151.57 134.981 151.572H180.693C181.191 151.57 181.668 151.372 182.02 151.02C182.372 150.668 182.57 150.191 182.572 149.693V147.99H133.102Z" fill="#263238"/>
<path d="M128.355 75.0601H103.949V76.8905H128.355V75.0601Z" fill="#407BFF"/>
<path d="M191.406 75.0601H137.305V76.8905H191.406V75.0601Z" fill="#FF6C37"/>
<path d="M120.807 81.1615H103.949V82.9919H120.807V81.1615Z" fill="#407BFF"/>
<path d="M164.353 81.1615H126.988V82.9919H164.353V81.1615Z" fill="#FF6C37"/>
<path d="M122.394 87.2629H103.949V89.0934H122.394V87.2629Z" fill="#407BFF"/>
<path d="M170.052 87.2629H129.16V89.0934H170.052V87.2629Z" fill="#FF6C37"/>
<path d="M115.005 93.3644H103.949V95.1948H115.005V93.3644Z" fill="#407BFF"/>
<path d="M186.723 93.3644H119.059V95.1948H186.723V93.3644Z" fill="#FF6C37"/>
<path d="M128.355 99.4658H103.949V101.296H128.355V99.4658Z" fill="#407BFF"/>
<path d="M191.406 99.4658H137.305V101.296H191.406V99.4658Z" fill="#FF6C37"/>
<path d="M120.807 105.567H103.949V107.398H120.807V105.567Z" fill="#407BFF"/>
<path d="M164.353 105.567H126.988V107.398H164.353V105.567Z" fill="#FF6C37"/>
<path d="M124.95 111.669H103.949V113.499H124.95V111.669Z" fill="#407BFF"/>
<path d="M179.2 111.669H132.652V113.499H179.2V111.669Z" fill="#FF6C37"/>
<path d="M115.005 117.77H103.949V119.601H115.005V117.77Z" fill="#407BFF"/>
<path d="M186.723 117.77H119.059V119.601H186.723V117.77Z" fill="#FF6C37"/>
<path d="M130.454 123.872H103.949V125.702H130.454V123.872Z" fill="#407BFF"/>
<path d="M198.933 123.872H140.176V125.702H198.933V123.872Z" fill="#FF6C37"/>
<path d="M126.598 129.973H103.949V131.803H126.598V129.973Z" fill="#407BFF"/>
<path d="M185.105 129.973H134.902V131.803H185.105V129.973Z" fill="#FF6C37"/>
<path d="M123.98 136.074H103.949V137.905H123.98V136.074Z" fill="#407BFF"/>
<path d="M175.734 136.074H131.328V137.905H175.734V136.074Z" fill="#FF6C37"/>
<path d="M115.957 142.176H103.949V144.006H115.957V142.176Z" fill="#407BFF"/>
<path d="M193.847 142.176H120.355V144.006H193.847V142.176Z" fill="#FF6C37"/>
<path d="M244.656 119.613V113.048H241.099C240.602 110.005 239.407 107.119 237.609 104.615L240.116 102.114L235.485 97.4828L232.978 99.9905C230.476 98.1915 227.592 96.995 224.552 96.4943V92.9494H218.017V96.4943C214.975 96.995 212.089 98.1915 209.585 99.9905L207.077 97.4828L202.452 102.114L204.954 104.615C203.149 107.118 201.946 110.004 201.439 113.048H197.895V119.594H201.439C201.938 122.634 203.132 125.518 204.929 128.02L202.428 130.528L207.053 135.159L209.56 132.651C212.065 134.45 214.95 135.647 217.993 136.148V139.692H224.564V136.148C227.604 135.647 230.488 134.45 232.99 132.651L235.498 135.159L240.129 130.528L237.621 128.02C239.413 125.524 240.604 122.646 241.099 119.613H244.656ZM221.287 129.808C218.623 129.808 216.018 129.018 213.803 127.538C211.587 126.057 209.861 123.953 208.841 121.492C207.821 119.03 207.555 116.321 208.074 113.708C208.594 111.095 209.877 108.694 211.761 106.81C213.645 104.926 216.046 103.643 218.659 103.123C221.272 102.603 223.981 102.87 226.443 103.89C228.905 104.909 231.009 106.636 232.489 108.852C233.969 111.067 234.759 113.672 234.759 116.336C234.76 118.106 234.412 119.858 233.736 121.493C233.059 123.128 232.066 124.613 230.815 125.864C229.564 127.115 228.079 128.108 226.444 128.784C224.809 129.461 223.057 129.809 221.287 129.808Z" fill="#A6D7FF"/>
<path d="M148.431 68.3241V59.5746H143.696C143.026 55.5115 141.429 51.6574 139.029 48.3114L142.378 44.9617L136.191 38.7748L132.842 42.1245C129.495 39.7254 125.641 38.1284 121.578 37.4569V32.7222H112.829V37.4569C108.766 38.1269 104.912 39.7241 101.566 42.1245L98.216 38.7748L92.0292 44.9617L95.3789 48.3114C92.9759 51.656 91.3785 55.5107 90.7113 59.5746H85.9766V68.3241H90.7113C91.3785 72.388 92.9759 76.2427 95.3789 79.5873L92.0292 82.937L98.216 89.1239L101.566 85.7742C104.909 88.1855 108.763 89.7932 112.829 90.4723V95.207H121.578V90.4723C125.641 89.8008 129.495 88.2038 132.842 85.8047L136.191 89.1544L142.378 82.9675L139.022 79.6178C141.427 76.2736 143.027 72.4189 143.696 68.3546L148.431 68.3241ZM117.204 81.9303C113.644 81.9303 110.164 80.8746 107.204 78.8969C104.244 76.9191 101.937 74.108 100.575 70.8191C99.2123 67.5301 98.8558 63.9111 99.5503 60.4196C100.245 56.9281 101.959 53.7209 104.476 51.2037C106.994 48.6864 110.201 46.9722 113.692 46.2777C117.184 45.5832 120.803 45.9396 124.092 47.3019C127.381 48.6643 130.192 50.9713 132.17 53.9312C134.147 56.8912 135.203 60.3711 135.203 63.9311C135.203 66.2947 134.737 68.6353 133.833 70.8191C132.928 73.0028 131.602 74.987 129.931 76.6584C128.26 78.3298 126.275 79.6556 124.092 80.5602C121.908 81.4647 119.567 81.9303 117.204 81.9303Z" fill="#A6D7FF"/>
<path d="M196.01 45.1262L222.203 45.1262L222.203 71.3196L196.01 71.3196L196.01 45.1262ZM221.593 45.7363L196.62 45.7363L196.62 70.7095L221.593 70.7095L221.593 45.7363Z" fill="#407BFF"/>
<path d="M198.486 69L220 69L220 47.4863L198.486 47.4863L198.486 69Z" fill="#407BFF"/>
<path d="M206.842 61.064L202.558 59.435V58.265L206.842 56.636V57.761L202.981 59.165V58.535L206.842 59.939V61.064ZM207.091 62.9L210.061 54.422H211.312L208.342 62.9H207.091ZM211.47 61.064V59.939L215.331 58.535V59.165L211.47 57.761V56.636L215.754 58.265V59.435L211.47 61.064Z" fill="white"/>
<path d="M43.8575 172.056H17.6641V145.869H43.8575V172.056ZM18.2742 171.446H43.2474V146.479H18.2742V171.446Z" fill="#FF6C37"/>
<path d="M41.5137 148H20V169.514H41.5137V148Z" fill="#FF6C37"/>
<path d="M27.842 161.064L23.558 159.435V158.265L27.842 156.636V157.761L23.981 159.165V158.535L27.842 159.939V161.064ZM28.0907 162.9L31.0607 154.422H32.3117L29.3417 162.9H28.0907ZM32.4701 161.064V159.939L36.3311 158.535V159.165L32.4701 157.761V156.636L36.7541 158.265V159.435L32.4701 161.064Z" fill="white"/>
<path d="M160.739 20.6173L155.517 22.5271L160.739 24.4246V26.3832L153.277 23.546V21.5081L160.739 18.671V20.6173Z" fill="#FF6C37"/>
<path d="M167.92 14.8148H170.098L164.924 29.5803H162.746L167.92 14.8148Z" fill="#FF6C37"/>
<path d="M179.407 21.5081V23.546L171.945 26.3832V24.4246L177.168 22.5271L171.945 20.6173V18.671L179.407 21.5081Z" fill="#FF6C37"/>
</svg>
