<svg width="291" height="193" viewBox="0 0 291 193" fill="none" xmlns="http://www.w3.org/2000/svg">
<path d="M62.1696 60.1447C62.8993 59.4634 62.8364 57.9896 62.5417 57.1971C61.4689 54.2979 59.4105 53.143 54.5832 53.143H54.1C54.0614 50.1616 50.8577 47.6103 48.6011 47.3687C42.0488 46.668 28.0841 46.3781 23.7497 47.7552C21.5801 48.4462 19.6183 50.1713 19.6183 53.1913C19.6183 53.2493 19.6183 53.3073 19.6183 53.3701C19.0574 53.2803 18.4902 53.2351 17.9222 53.2348C13.5733 53.2348 10.0121 55.8248 10.0121 59.0333C10.0132 59.4642 10.0783 59.8925 10.2054 60.3042H10.0121C9.80913 60.3042 9.60618 60.3042 9.40807 60.3042H8.96835C8.62862 60.3065 8.29068 60.3536 7.96327 60.4443C3.41628 61.1401 0 64.1118 0 67.6634C0 71.7369 3.38246 74.9454 11.597 74.9454H62.503C66.9389 74.9454 69.8671 70.5965 69.8671 67.5136C69.8671 63.7156 66.504 60.5844 62.1696 60.1447Z" fill="white"/>
<path d="M282.513 106.861C283.243 106.175 283.18 104.701 282.885 103.909C281.813 101.01 279.754 99.8596 274.927 99.8596H274.444C274.405 96.8782 271.201 94.3317 268.945 94.0901C262.393 93.3846 248.428 93.1237 244.093 94.4767C241.924 95.1628 239.962 96.8927 239.962 99.9128C239.962 99.9708 239.962 100.029 239.962 100.087C239.401 99.9969 238.834 99.9517 238.266 99.9514C233.917 99.9514 230.356 102.541 230.356 105.75C230.356 106.182 230.422 106.612 230.549 107.026H230.356C230.153 107.026 229.95 107.026 229.752 107.026H229.312C228.972 107.026 228.634 107.073 228.307 107.166C223.76 107.862 220.344 110.828 220.344 114.385C220.344 118.458 223.726 121.662 231.941 121.662H282.847C287.283 121.662 290.211 117.313 290.211 114.235C290.211 110.427 286.848 107.296 282.513 106.861Z" fill="white"/>
<path d="M160.854 136.656H133.133V160.995H160.854V136.656Z" fill="#455A64"/>
<path d="M198.506 160.241H95.4766V167.987H198.506V160.241Z" fill="#263238"/>
<path d="M198.506 165.774H95.4766V167.987H198.506V165.774Z" fill="#455A64"/>
<path d="M253.719 19.0043H40.2617V138.468H253.719V19.0043Z" fill="#37474F"/>
<path d="M247.01 23.1986H46.9766V126.373H247.01V23.1986Z" fill="#FFE2D7"/>
<path d="M247.28 23.1986H47.2031V32.3796H247.28V23.1986Z" fill="#FF6C37"/>
<path d="M91.2587 35.849H51.6211V122.396H91.2587V35.849Z" fill="white"/>
<path d="M88.9508 38.4921H53.9375V41.1353H88.9508V38.4921Z" fill="#B8D0FF"/>
<path d="M88.9508 43.4499H53.9375V46.093H88.9508V43.4499Z" fill="#B8D0FF"/>
<path d="M88.9508 84.7401H53.9375V87.3832H88.9508V84.7401Z" fill="white"/>
<path d="M88.9508 90.1085H53.9375V91.5967H88.9508V90.1085Z" fill="white"/>
<path d="M88.9508 93.0802H53.9375V94.5685H88.9508V93.0802Z" fill="white"/>
<path d="M88.9508 96.3854H53.9375V97.8737H88.9508V96.3854Z" fill="white"/>
<path d="M84.4878 51.7079H58.3945V78.1346H84.4878V51.7079Z" fill="#B8D0FF"/>
<path d="M60.5234 102.464V114.636L71.0332 108.553L60.5234 102.464Z" fill="#B8D0FF"/>
<path d="M73.7969 102.464V114.636L84.3067 108.553L73.7969 102.464Z" fill="#B8D0FF"/>
<path d="M241.87 36.511H95.5352V121.734H241.87V36.511Z" fill="white"/>
<path d="M122.291 51.7079C122.291 53.733 121.69 55.7126 120.565 57.3965C119.44 59.0803 117.841 60.3927 115.97 61.1677C114.099 61.9426 112.04 62.1454 110.054 61.7503C108.068 61.3552 106.243 60.3801 104.811 58.9481C103.38 57.5161 102.404 55.6916 102.009 53.7054C101.614 51.7192 101.817 49.6605 102.592 47.7895C103.367 45.9185 104.679 44.3194 106.363 43.1943C108.047 42.0692 110.027 41.4687 112.052 41.4687C114.767 41.4687 117.372 42.5475 119.292 44.4677C121.212 46.3879 122.291 48.9923 122.291 51.7079Z" fill="#E1EDFF"/>
<path d="M149.051 51.7079C149.052 53.7346 148.451 55.716 147.326 57.4015C146.2 59.0869 144.6 60.4007 142.728 61.1765C140.856 61.9523 138.795 62.1553 136.807 61.7598C134.82 61.3643 132.994 60.388 131.561 58.9546C130.128 57.5212 129.153 55.695 128.759 53.7071C128.364 51.7192 128.568 49.6589 129.345 47.7869C130.121 45.915 131.436 44.3154 133.122 43.1908C134.808 42.0661 136.79 41.4668 138.816 41.4687C141.531 41.4713 144.133 42.551 146.052 44.4708C147.971 46.3906 149.049 48.9935 149.051 51.7079Z" fill="#E1EDFF"/>
<path d="M175.804 51.7079C175.805 53.7344 175.205 55.7156 174.08 57.401C172.955 59.0863 171.355 60.4001 169.483 61.176C167.611 61.952 165.551 62.1552 163.563 61.7601C161.576 61.365 159.75 60.3893 158.317 58.9563C156.884 57.5234 155.908 55.6976 155.513 53.71C155.118 51.7224 155.321 49.6623 156.097 47.7903C156.873 45.9182 158.187 44.3184 159.872 43.1931C161.558 42.0678 163.539 41.4677 165.565 41.4687C168.281 41.4687 170.885 42.5475 172.805 44.4677C174.726 46.3879 175.804 48.9923 175.804 51.7079Z" fill="#E1EDFF"/>
<path d="M197.319 45.2136H183.074V47.1947H197.319V45.2136Z" fill="#B8D0FF"/>
<path d="M217.284 45.2136H203.039V47.1947H217.284V45.2136Z" fill="#B8D0FF"/>
<path d="M237.245 45.2136H223V47.1947H237.245V45.2136Z" fill="#B8D0FF"/>
<path d="M167.93 70.5385H101.812V73.1817H167.93V70.5385Z" fill="#E1EDFF"/>
<path d="M159.517 76.482H101.812V78.7966H159.517V76.482Z" fill="#E1EDFF"/>
<path d="M209.5 82.4303H101.812V85.402H209.5V82.4303Z" fill="#E1EDFF"/>
<path d="M128.621 88.7023H101.812V92.0075H128.621V88.7023Z" fill="#B8D0FF"/>
<path d="M175.874 96.9604H101.812V100.923H175.874V96.9604Z" fill="#E1EDFF"/>
<path d="M135.893 105.552H101.812V106.542H135.893V105.552Z" fill="#B8D0FF"/>
<path d="M161.788 111.495H101.812V115.458H161.788V111.495Z" fill="#B8D0FF"/>
<path d="M234.604 64.9188H217.426V115.458H234.604V64.9188Z" fill="#B8D0FF"/>
<path d="M211.892 25.7258C212.801 24.7594 212.723 22.7541 212.375 21.662C211.037 17.6707 208.481 16.0761 202.484 16.0761C202.278 16.0761 202.07 16.0761 201.861 16.0761C201.817 11.9688 197.836 8.45592 195.033 8.1225C186.896 7.15609 169.544 6.75985 164.161 8.65403C161.46 9.62045 159.029 12.0075 159.029 16.1438C159.029 16.2259 159.029 16.3081 159.029 16.3902C158.332 16.2656 157.626 16.2026 156.918 16.2017C151.491 16.2017 147.094 19.7678 147.094 24.1699C147.093 24.7629 147.175 25.3532 147.336 25.9239H147.094C146.843 25.9239 146.611 25.9239 146.345 25.9239H145.794C145.371 25.9252 144.951 25.9903 144.548 26.1172C138.899 27.0836 134.656 31.1619 134.656 36.0616C134.656 41.6717 138.841 46.0882 149.085 46.0882H212.308C217.816 46.0882 221.455 40.1109 221.455 35.8538C221.445 30.6449 217.275 26.3298 211.892 25.7258Z" fill="white"/>
<path d="M148.329 15.5349L146.304 11.9592C146.065 11.5578 145.677 11.2675 145.224 11.1516C144.771 11.0357 144.291 11.1037 143.888 11.3407L142.729 11.9978C142.377 12.2019 141.972 12.2928 141.567 12.2582C141.163 12.2236 140.779 12.0652 140.467 11.8046C139.996 11.4108 139.504 11.0431 138.993 10.7028C138.659 10.4834 138.405 10.1608 138.271 9.78403C138.137 9.40724 138.129 8.99689 138.249 8.61538L138.617 7.36387C138.686 7.14629 138.71 6.91673 138.686 6.68958C138.662 6.46243 138.592 6.2426 138.48 6.04388C138.367 5.84515 138.215 5.67182 138.032 5.53477C137.849 5.39771 137.64 5.29988 137.418 5.24742L133.354 4.20852C132.897 4.09248 132.412 4.15727 132 4.38944C131.589 4.62161 131.283 5.0033 131.146 5.4552L130.769 6.70188C130.65 7.09693 130.414 7.4467 130.092 7.70536C129.771 7.96403 129.378 8.11953 128.967 8.1515C128.331 8.20021 127.699 8.28409 127.073 8.40277C126.68 8.48192 126.272 8.43701 125.906 8.27426C125.54 8.11151 125.233 7.83896 125.029 7.49434L124.401 6.38296C124.162 5.9806 123.774 5.6894 123.321 5.57342C122.867 5.45743 122.387 5.52614 121.984 5.76445L118.254 7.86641C117.853 8.08896 117.554 8.46003 117.423 8.89999C117.292 9.33994 117.339 9.81372 117.553 10.2196L118.182 11.331C118.372 11.6843 118.448 12.088 118.399 12.4864C118.349 12.8847 118.177 13.2577 117.906 13.5538C117.477 14.0297 117.075 14.5298 116.703 15.0517C116.464 15.3849 116.13 15.6385 115.745 15.7798C115.36 15.9211 114.941 15.9435 114.543 15.8442L113.277 15.5204C112.818 15.4057 112.333 15.4715 111.921 15.7044C111.509 15.9373 111.202 16.3195 111.064 16.7719L109.861 20.7826C109.793 21.0002 109.77 21.2294 109.795 21.4561C109.819 21.6827 109.889 21.902 110.002 22.1004C110.114 22.2987 110.266 22.4719 110.448 22.6093C110.629 22.7467 110.838 22.8453 111.059 22.899L112.32 23.2276C112.71 23.3198 113.06 23.5367 113.315 23.8454C113.571 24.1541 113.718 24.5378 113.736 24.9382C113.764 25.5551 113.829 26.1698 113.929 26.7792C113.993 27.1806 113.93 27.5916 113.75 27.9559C113.57 28.3202 113.281 28.6198 112.924 28.8135L111.755 29.4513C111.344 29.6724 111.038 30.0476 110.904 30.4943C110.77 30.9411 110.819 31.4228 111.04 31.8336L113.06 35.4045C113.178 35.6038 113.334 35.7778 113.519 35.9166C113.705 36.0554 113.916 36.1562 114.14 36.2132C114.365 36.2702 114.598 36.2823 114.827 36.2489C115.057 36.2154 115.277 36.137 115.476 36.0181L116.635 35.3706C116.986 35.1653 117.391 35.0732 117.796 35.1069C118.201 35.1406 118.585 35.2985 118.897 35.5591C119.366 35.9616 119.86 36.3344 120.375 36.6753C120.709 36.8962 120.962 37.22 121.096 37.5975C121.229 37.9751 121.236 38.3859 121.115 38.7676L120.738 40.0094C120.671 40.2283 120.649 40.4586 120.674 40.6862C120.699 40.9138 120.77 41.1338 120.884 41.3329C120.997 41.532 121.149 41.7058 121.332 41.8439C121.515 41.9819 121.723 42.0811 121.946 42.1356L126.01 43.1696C126.467 43.2836 126.951 43.2186 127.363 42.9878C127.774 42.7569 128.082 42.3778 128.223 41.9278L128.595 40.6763C128.713 40.2816 128.948 39.932 129.269 39.6733C129.59 39.4146 129.981 39.2589 130.392 39.2266C131.028 39.1746 131.66 39.0891 132.286 38.9705C132.681 38.8908 133.09 38.9359 133.457 39.0996C133.824 39.2633 134.131 39.5374 134.335 39.8838L134.963 40.9904C135.202 41.3927 135.59 41.6839 136.043 41.7999C136.496 41.9159 136.977 41.8472 137.38 41.6089L141.105 39.5069C141.308 39.3975 141.488 39.249 141.634 39.0699C141.78 38.8908 141.889 38.6847 141.955 38.4634C142.021 38.242 142.043 38.0098 142.019 37.7801C141.995 37.5504 141.926 37.3276 141.815 37.1247L141.231 36.0326C141.039 35.6804 140.961 35.2771 141.009 34.8789C141.057 34.4806 141.227 34.107 141.496 33.8099C141.926 33.3372 142.327 32.8403 142.7 32.3216C142.938 31.9876 143.272 31.733 143.657 31.5908C144.042 31.4487 144.461 31.4255 144.86 31.5243L146.13 31.8432C146.588 31.9568 147.072 31.8909 147.483 31.6591C147.893 31.4273 148.199 31.0471 148.339 30.5965L149.542 26.5859C149.61 26.3683 149.632 26.1391 149.608 25.9124C149.584 25.6858 149.513 25.4665 149.401 25.2681C149.289 25.0698 149.137 24.8966 148.955 24.7592C148.773 24.6218 148.565 24.5232 148.344 24.4695L147.077 24.1457C146.689 24.0515 146.341 23.8331 146.087 23.5235C145.833 23.214 145.687 22.8302 145.671 22.4303C145.641 21.8149 145.575 21.2018 145.473 20.5941C145.41 20.1921 145.472 19.7802 145.652 19.4151C145.832 19.05 146.121 18.7495 146.478 18.555L147.638 17.9027C148.042 17.6784 148.341 17.304 148.47 16.8608C148.599 16.4175 148.549 15.9411 148.329 15.5349ZM134.973 31.4083C129.962 34.7521 123.284 33.0464 120.854 27.8036C118.945 23.6722 120.472 18.5936 124.415 15.965C129.416 12.6212 136.094 14.3269 138.525 19.5746C140.433 23.6915 138.906 28.7652 134.973 31.3987V31.4083Z" fill="#407BFF"/>
<path d="M164.424 23.6867L163.096 21.3334C162.937 21.0669 162.679 20.8741 162.378 20.7971C162.078 20.7201 161.759 20.7653 161.491 20.9227L160.718 21.3576C160.484 21.4931 160.214 21.5538 159.945 21.5313C159.675 21.5088 159.419 21.4044 159.211 21.232C158.904 20.964 158.582 20.7155 158.244 20.4878C158.026 20.3386 157.862 20.1234 157.775 19.8739C157.688 19.6243 157.683 19.3535 157.761 19.101L158.007 18.2651C158.056 18.1166 158.073 17.9595 158.057 17.804C158.041 17.6486 157.992 17.4984 157.913 17.3633C157.835 17.2281 157.728 17.1112 157.601 17.0201C157.474 16.929 157.33 16.8658 157.176 16.8348L154.475 16.1438C154.174 16.0711 153.856 16.116 153.587 16.2696C153.317 16.4231 153.117 16.6737 153.026 16.9701L152.774 17.8012C152.694 18.0633 152.536 18.2953 152.323 18.4675C152.109 18.6396 151.849 18.7442 151.576 18.7676C151.153 18.7986 150.732 18.8534 150.315 18.9319C150.054 18.9841 149.783 18.9536 149.541 18.8444C149.298 18.7352 149.096 18.5529 148.962 18.323L148.546 17.5837C148.387 17.3172 148.129 17.1244 147.829 17.0474C147.528 16.9704 147.209 17.0156 146.942 17.173L144.463 18.5695C144.189 18.7161 143.985 18.9651 143.894 19.2622C143.804 19.5592 143.835 19.88 143.98 20.1544L144.4 20.8937C144.53 21.1279 144.582 21.3972 144.549 21.6629C144.516 21.9286 144.4 22.1769 144.217 22.3723C143.934 22.6803 143.668 23.0028 143.419 23.3387C143.259 23.5627 143.035 23.7329 142.776 23.8269C142.518 23.9209 142.236 23.9344 141.97 23.8654L141.129 23.648C140.827 23.5802 140.511 23.6279 140.243 23.7818C139.974 23.9356 139.773 24.1844 139.679 24.4791L138.877 27.1513C138.833 27.2959 138.818 27.4481 138.835 27.5986C138.851 27.7491 138.898 27.8946 138.973 28.0262C139.047 28.1579 139.148 28.2729 139.269 28.3643C139.39 28.4556 139.528 28.5213 139.675 28.5574L140.515 28.7748C140.78 28.832 141.017 28.9747 141.192 29.1809C141.367 29.3871 141.469 29.6452 141.482 29.9152C141.499 30.3251 141.543 30.7334 141.612 31.1377C141.653 31.4056 141.611 31.6797 141.491 31.9227C141.371 32.1656 141.178 32.3656 140.941 32.4955L140.177 32.9256C140.041 32.9972 139.92 33.0952 139.821 33.2139C139.723 33.3326 139.649 33.4697 139.604 33.6171C139.559 33.7645 139.544 33.9194 139.56 34.0728C139.575 34.2262 139.621 34.3749 139.694 34.5105L141.037 36.8879C141.115 37.0205 141.219 37.1362 141.342 37.2284C141.465 37.3207 141.606 37.3876 141.755 37.4254C141.904 37.4631 142.059 37.4709 142.211 37.4483C142.363 37.4258 142.51 37.3732 142.641 37.2938L143.415 36.8637C143.648 36.7275 143.919 36.6665 144.188 36.689C144.458 36.7115 144.714 36.8163 144.922 36.9894C145.228 37.2575 145.551 37.506 145.889 37.7335C146.109 37.8811 146.275 38.0962 146.362 38.3463C146.449 38.5964 146.452 38.868 146.372 39.1203L146.121 39.9466C146.076 40.0922 146.062 40.2454 146.078 40.3967C146.095 40.5481 146.142 40.6945 146.217 40.827C146.292 40.9594 146.394 41.0752 146.515 41.1673C146.636 41.2594 146.775 41.3258 146.923 41.3624L149.624 42.0534C149.929 42.128 150.251 42.0836 150.525 41.9292C150.799 41.7749 151.003 41.5221 151.098 41.2223L151.344 40.396C151.423 40.1329 151.58 39.8998 151.794 39.7274C152.008 39.5549 152.269 39.4511 152.542 39.4296C152.963 39.3909 153.383 39.3378 153.804 39.2605C154.065 39.2048 154.338 39.2333 154.583 39.3417C154.827 39.4502 155.032 39.6331 155.166 39.8645L155.582 40.6038C155.741 40.8708 156.001 41.0636 156.302 41.1397C156.604 41.2158 156.924 41.169 157.191 41.0097L159.67 39.6132C159.807 39.5421 159.928 39.4443 160.027 39.3257C160.125 39.207 160.199 39.0699 160.244 38.9223C160.289 38.7747 160.304 38.6196 160.289 38.4661C160.273 38.3126 160.227 38.1637 160.153 38.0283L159.742 37.2938C159.611 37.0606 159.558 36.7919 159.589 36.5262C159.62 36.2606 159.735 36.0117 159.916 35.8152C160.202 35.5019 160.469 35.171 160.713 34.8246C160.874 34.6017 161.099 34.4323 161.357 34.3383C161.616 34.2444 161.897 34.2303 162.163 34.2979L163.004 34.5105C163.309 34.5851 163.631 34.5407 163.905 34.3863C164.179 34.232 164.384 33.9792 164.478 33.6794L165.28 31.0121C165.324 30.8671 165.339 30.7146 165.322 30.5638C165.306 30.413 165.259 30.2672 165.185 30.1351C165.11 30.0031 165.009 29.8876 164.889 29.7958C164.768 29.704 164.63 29.6378 164.482 29.6011L163.637 29.3837C163.379 29.3211 163.149 29.1765 162.981 28.9717C162.813 28.7668 162.716 28.5129 162.704 28.2481C162.682 27.8386 162.639 27.4305 162.574 27.0256C162.531 26.7581 162.572 26.4839 162.691 26.2407C162.811 25.9975 163.003 25.7973 163.241 25.6678L164.014 25.2329C164.267 25.0764 164.45 24.829 164.527 24.5415C164.603 24.2539 164.567 23.9481 164.424 23.6867Z" fill="#FFE2D7"/>
<path d="M66.1402 189.601C66.1402 191.114 58.1335 192.341 48.2615 192.341C38.3896 192.341 30.3828 191.114 30.3828 189.601C30.3828 188.089 38.3847 186.861 48.2615 186.861C58.1383 186.861 66.1402 188.089 66.1402 189.601Z" fill="#B8D0FF"/>
<path d="M60.5365 183.991C61.6286 185.658 63.7789 186.199 65.1512 187.63C65.2582 187.724 65.3396 187.843 65.388 187.978C65.4131 188.13 65.3831 188.286 65.3033 188.418C65.2236 188.55 65.0994 188.649 64.9531 188.697C64.6615 188.773 64.3556 188.773 64.064 188.697L59.0241 187.929C58.8401 187.913 58.6612 187.86 58.4974 187.775C58.3419 187.644 58.2142 187.483 58.122 187.302C58.0299 187.121 57.9751 186.924 57.961 186.721C57.7146 185.508 57.4778 184.305 57.2266 183.092C58.364 183.237 59.4772 183.533 60.5365 183.972" fill="#132444"/>
<path d="M56.515 184.073H56.0318C54.3502 175.346 56.2396 165.76 53.8428 157.125C53.0987 154.453 51.9583 151.935 50.9436 149.369C47.6433 141.077 44.7827 129.915 44.082 120.894C47.4307 120.116 50.6972 119.927 53.9685 118.424C60.0424 138.647 62.8305 161.797 62.9078 183.136C60.8096 183.662 58.6655 183.986 56.5053 184.102" fill="#5D81EC"/>
<g style="mix-blend-mode:multiply" opacity="0.4">
<path d="M49.4216 135.694C52.0599 139.879 53.4709 144.784 55.0462 149.461C58.8152 160.671 58.7572 172.747 58.5301 183.899C57.8584 183.977 57.1819 184.035 56.5054 184.073H56.0222C54.3407 175.346 56.23 165.76 53.8333 157.125C53.0892 154.453 51.9488 151.935 50.9341 149.369C48.7975 143.982 47.192 138.398 46.1406 132.698C47.5004 133.36 48.6398 134.4 49.4216 135.694Z" fill="#5D81EC"/>
</g>
<path d="M35.9738 184.933C37.0659 186.6 39.2162 187.146 40.5885 188.572C40.6955 188.666 40.7769 188.786 40.8253 188.92C40.8484 189.072 40.8175 189.227 40.7381 189.358C40.6586 189.49 40.5356 189.59 40.3904 189.64C40.0987 189.715 39.7929 189.715 39.5013 189.64L34.4421 188.891C34.2578 188.876 34.0785 188.823 33.9154 188.736C33.7594 188.606 33.6315 188.445 33.5393 188.264C33.4471 188.083 33.3926 187.886 33.379 187.683C33.1342 186.475 32.8894 185.265 32.6445 184.054C33.782 184.199 34.8951 184.495 35.9545 184.933" fill="#132444"/>
<path d="M51.2671 118.26C50.2137 122.686 46.7153 142.696 46.0533 145.586C45.5073 147.968 44.5022 150.2 43.7001 152.5C42.9897 154.53 42.4437 156.612 41.9122 158.695C39.6991 167.431 37.8049 176.289 37.1526 185.272C35.2351 184.851 33.2621 184.745 31.3106 184.957C30.233 174.81 29.7692 164.479 31.7455 154.491C32.6298 150.026 33.9924 145.658 34.5143 141.135C35.1569 135.603 34.5143 129.93 35.5773 124.465C35.6066 123.842 35.8583 123.251 36.2866 122.799C36.715 122.347 37.2915 122.063 37.9112 122C42.3374 120.638 46.8023 119.391 51.2671 118.241" fill="#407BFF"/>
<path d="M39.7577 122.706C39.6466 128.987 39.5306 135.313 38.2356 141.459C37.1049 146.823 35.0899 151.979 34.0993 157.371C32.4854 166.122 33.6161 175.119 34.7806 183.948" stroke="#132444" stroke-width="0.5" stroke-miterlimit="10"/>
<g style="mix-blend-mode:multiply" opacity="0.3">
<path d="M34.5154 141.169C35.0759 136.337 34.6652 131.408 35.2547 126.596C36.9749 130.461 37.4533 134.37 36.9701 138.71C36.1728 145.847 33.665 152.655 33.0078 159.816C32.5004 165.325 32.2008 171.012 32.8967 176.516C33.2494 179.314 33.9017 184.247 37.1682 185.122V185.305C35.2508 184.885 33.2777 184.779 31.3262 184.991C30.2487 174.844 29.7848 164.513 31.7611 154.525C32.6309 150.046 33.9935 145.677 34.5154 141.169Z" fill="#5D81EC"/>
</g>
<path d="M50.3906 90.6497C54.7351 94.3637 59.2775 97.8398 63.9978 101.063C66.0871 97.3943 67.8651 93.5571 69.3131 89.5914L72.3911 91.1619C71.802 95.3275 70.5747 99.3776 68.7525 103.17C68.2259 104.266 67.6025 105.388 66.5974 106.011C64.597 107.248 62.0794 106.069 60.0451 104.89L53.5218 101.116C53.1785 100.947 52.8716 100.712 52.6182 100.425C52.3033 99.9458 52.1185 99.3929 52.0819 98.8207C51.7258 96.0581 51.1604 93.3266 50.3906 90.6497Z" fill="#FFBC96"/>
<path d="M49.9048 89.978C53.0896 91.6631 55.9956 93.8291 58.5204 96.3999C58.8267 96.6472 59.0285 97.0009 59.0857 97.3904C59.0674 97.6597 58.9827 97.9204 58.8393 98.1491L56.4233 102.754C56.3715 102.873 56.2858 102.974 56.1768 103.044C56.0279 103.085 55.8688 103.068 55.7323 102.996C53.2051 102.029 50.504 100.971 49.0157 98.7144C48.0782 97.289 47.74 95.5591 47.566 93.8823C47.4597 92.8869 47.4211 91.8142 47.9333 90.9589C48.4455 90.1036 49.726 89.6398 49.8661 89.9925" fill="black"/>
<path d="M68.7812 90.9589C69.0712 89.8959 69.4384 88.3206 69.2306 87.4508C69.0905 86.8662 68.9745 85.8031 69.2306 85.2861C69.2935 85.1556 69.4674 85.0251 69.6172 85.1169C69.6596 85.1543 69.6916 85.2019 69.7103 85.2552C69.7289 85.3085 69.7334 85.3658 69.7235 85.4214C69.7235 85.8369 70.1101 87.4895 70.0907 87.1029C70.5691 86.2457 70.9422 85.3339 71.2021 84.3873C71.239 84.1981 71.3183 84.0196 71.4341 83.8654C71.5645 83.7205 71.8641 83.5417 72.0139 83.706C72.1637 83.8703 71.5984 85.6002 71.3857 86.5472L72.3522 84.31C72.4295 84.1264 72.6614 83.9041 72.8354 84.0587C73.0093 84.2133 72.386 86.0399 72.1589 87.0353L73.1543 84.9478C73.2848 84.6676 73.6858 84.2133 73.7921 84.5274C73.9902 85.0976 73.2606 86.4893 72.8982 87.5282L73.6665 86.2718C73.7486 86.1317 73.9516 85.9819 74.0869 86.1124C74.1159 86.1455 74.1354 86.1861 74.143 86.2295C74.1507 86.2729 74.1463 86.3177 74.1304 86.3588C73.7148 88.1757 73.0673 89.5238 72.3425 91.4711C71.3374 90.9009 69.6607 91.7707 68.8006 90.9589" fill="#FFBC96"/>
<path d="M49.51 90.0263C47.4612 88.9101 45.108 89.92 42.8079 90.3066C39.0582 90.9347 35.1684 91.6209 32.0662 93.8147C31.7955 93.9922 31.5569 94.2144 31.3607 94.4718C31.1219 94.8945 31.0001 95.3732 31.0079 95.8586C30.7277 101.493 34.2696 106.61 35.0621 112.191C35.2618 113.905 35.3312 115.632 35.2698 117.357L35.1974 123.638C41.8721 121.667 48.5919 119.858 55.3568 118.212C54.8446 109.442 52.733 100.85 50.631 92.3167C50.3653 91.2488 49.8531 90.1954 49.51 90.007" fill="black"/>
<path d="M31.0065 95.8586C30.998 95.3725 31.1216 94.8932 31.3641 94.4718C31.5573 94.2134 31.7945 93.991 32.0647 93.8147C32.3885 93.5876 32.7219 93.375 33.065 93.1817C33.8212 93.8018 34.5228 94.4856 35.1621 95.2256C36.2668 96.5753 37.124 98.1098 37.6941 99.7581C38.9456 103.078 39.5351 106.596 40.6659 109.949C40.8935 110.739 41.2388 111.49 41.6903 112.177C41.9153 112.506 42.2183 112.775 42.5725 112.959C42.9266 113.142 43.3208 113.236 43.7197 113.23C44.5626 113.123 45.3514 112.757 45.9763 112.181C46.677 111.613 47.3359 110.994 47.9478 110.331C48.5663 109.645 49.1027 108.881 49.6825 108.18C49.9483 107.847 50.2769 107.581 50.5281 107.214C50.7504 106.848 50.9427 106.465 51.1032 106.069C51.4676 105.186 51.6737 104.245 51.712 103.29C51.7966 102.295 51.7966 101.295 51.712 100.299C51.568 98.3786 51.3098 96.4682 50.9389 94.5781C50.6709 92.8983 50.0678 91.2895 49.1655 89.8475C49.2815 89.9007 49.3926 89.949 49.5037 90.0118C49.8468 90.2003 50.359 91.2537 50.6248 92.3216C52.7267 100.855 54.8384 109.446 55.3506 118.217C48.5856 119.86 41.8658 121.668 35.1911 123.643L35.2636 117.361C35.3274 115.637 35.2579 113.91 35.0558 112.196C34.2633 106.615 30.7069 101.498 31.0017 95.8635" fill="black"/>
<path d="M48.4804 99.7823C47.7894 101.643 47.9972 103.735 47.4125 105.624C46.765 107.644 45.2188 109.253 43.5469 110.563" stroke="#26395E" stroke-width="0.5" stroke-miterlimit="10"/>
<path d="M45.8264 95.9891C45.8274 97.7454 45.6198 99.4956 45.2078 101.203C44.7799 102.925 43.7519 104.438 42.3086 105.47" stroke="#26395E" stroke-width="0.5" stroke-miterlimit="10"/>
<path d="M41.8425 88.0162C42.0238 89.3145 42.4963 90.5551 43.2245 91.6451C42.461 92.4037 41.2917 92.5439 40.1803 92.5632C39.6449 92.587 39.1087 92.5399 38.5857 92.4231C38.5264 92.4097 38.4716 92.3814 38.4263 92.3409C38.3893 92.2933 38.3659 92.2365 38.3586 92.1766C37.9624 89.8733 37.5967 87.5652 37.2617 85.2523C38.3634 85.4407 39.5038 85.0928 40.6152 85.2523C40.723 85.2593 40.8275 85.2925 40.9196 85.3489C41.0216 85.4288 41.0987 85.536 41.1419 85.6581C41.483 86.4132 41.7188 87.2115 41.8425 88.0307" fill="#FFBC96"/>
<path d="M38.9907 88.77C38.0581 87.8036 37.9035 86.3926 37.2656 85.2474C38.3673 85.4359 39.5029 85.088 40.6143 85.2474C40.7221 85.2545 40.8265 85.2877 40.9187 85.3441C41.0207 85.4239 41.0978 85.5312 41.141 85.6533C41.4821 86.4083 41.7179 87.2067 41.8416 88.0259C41.9445 88.7405 42.1343 89.4399 42.407 90.1085C41.7759 90.1451 41.1444 90.0459 40.555 89.8175C39.9657 89.5891 39.4322 89.2368 38.9907 88.7845" fill="#D75246"/>
<path d="M42.3325 81.9374C42.6901 82.6864 42.8157 83.5127 43.1588 84.2761C43.6034 85.315 44.4007 86.3443 44.1252 87.446C43.9808 87.8906 43.7067 88.2818 43.3381 88.5694C42.9696 88.857 42.5235 89.0278 42.0571 89.0599C41.1109 89.1092 40.1758 88.8367 39.4043 88.2868C38.6633 87.7955 38.0329 87.1549 37.5537 86.4061C37.0744 85.6572 36.7567 84.8166 36.621 83.9379C36.5386 83.6461 36.5378 83.3372 36.6187 83.045C36.6997 82.7528 36.8592 82.4883 37.0801 82.2805C37.6971 81.6784 38.4493 81.2327 39.2738 80.9807C40.5205 80.5264 41.9653 81.1788 42.3229 81.9229" fill="#FFBC96"/>
<path d="M40.2091 79.8838C40.7389 79.9297 41.241 80.1411 41.6442 80.4879C42.0474 80.8348 42.3314 81.2996 42.456 81.8166C42.4828 81.8866 42.4828 81.964 42.456 82.034C42.3787 82.1548 42.1951 82.1355 42.0646 82.0775C41.9455 81.9966 41.8022 81.9591 41.6587 81.9712C41.4316 82.0292 41.4171 82.3336 41.3398 82.5462C41.2328 82.7328 41.0798 82.8889 40.8954 82.9997C40.711 83.1105 40.5014 83.1723 40.2864 83.1793C39.8625 83.2681 39.4222 83.2363 39.0156 83.0874C38.7498 82.9715 38.5324 82.7782 38.2473 82.6816C38.1152 82.6208 37.9663 82.6073 37.8255 82.6434C37.6847 82.6795 37.5607 82.7629 37.4741 82.8797C37.305 83.1937 37.6094 83.59 37.4741 83.9234C37.4166 84.0322 37.3303 84.123 37.2246 84.1861C37.1189 84.2491 36.998 84.282 36.8749 84.281C36.6481 84.283 36.4246 84.2268 36.2257 84.1177C36.0269 84.0085 35.8594 83.8501 35.7394 83.6576C35.5142 83.2712 35.4369 82.8162 35.522 82.3771C35.6067 81.9107 35.823 81.4781 36.1453 81.1304C36.9088 80.3042 38.1216 80.0674 39.2523 79.8789C39.6969 79.8065 40.1946 79.7436 40.2187 79.8789" fill="#132444"/>
<path d="M39.0887 79.9369L42.2778 79.0865C42.5677 78.9914 42.8716 78.9457 43.1766 78.9512C43.595 79.0045 43.9814 79.2028 44.2687 79.5117C44.5891 79.8384 44.8118 80.2481 44.9117 80.6947C45.0116 81.1412 44.9847 81.6068 44.834 82.0389C44.7393 82.3502 44.5475 82.6232 44.2868 82.8179C44.026 83.0126 43.7098 83.1189 43.3844 83.1213C42.6982 83.0633 42.2585 82.411 41.6352 82.1259C41.571 82.0897 41.4997 82.0679 41.4263 82.0621C41.3528 82.0563 41.279 82.0665 41.2099 82.092C41.1434 82.1425 41.0834 82.2009 41.0312 82.266C40.9291 82.3596 40.806 82.4274 40.6723 82.4635C40.5386 82.4997 40.3982 82.5032 40.2629 82.4738C39.9923 82.4173 39.7448 82.2809 39.5525 82.0824C39.2691 81.8125 39.0719 81.4647 38.9859 81.0829C38.8999 80.701 38.9289 80.3023 39.0693 79.9369" fill="#132444"/>
<path d="M37.7688 82.3143C37.6385 82.9986 37.6817 83.7047 37.8944 84.368C37.9294 84.4546 37.9522 84.5457 37.9621 84.6386C37.9616 84.7459 37.9419 84.8522 37.9041 84.9527C37.764 85.4359 37.6287 85.8901 37.4885 86.3588C36.6333 85.9432 35.9278 84.9816 35.5557 83.2324C35.4929 82.928 35.5557 82.8797 35.691 82.5994C35.9278 82.1404 36.5221 82.0196 37.044 81.9809C37.2074 81.9617 37.373 81.9816 37.5272 82.0389C37.6818 82.1114 37.7978 82.2853 37.764 82.3143" fill="#132444"/>
<path d="M37.9431 84.7594C37.8047 84.5801 37.6178 84.4443 37.4045 84.3681C37.1912 84.2919 36.9606 84.2784 36.7399 84.3293C35.9619 84.5178 36.7399 85.9626 38.0446 86.1462C38.1222 86.1905 38.2129 86.2061 38.3009 86.1904C38.3888 86.1747 38.4685 86.1286 38.526 86.0602C38.5835 85.9918 38.6152 85.9054 38.6155 85.816C38.6158 85.7266 38.5848 85.64 38.5278 85.5712C38.4208 85.2496 38.2206 84.967 37.9528 84.7594" fill="#FFBC96"/>
<path d="M90.5393 87.1948H103.658C104.713 87.1948 105.725 87.6137 106.47 88.3595C107.216 89.1053 107.635 90.1169 107.635 91.1716V94.7473C107.635 95.8007 107.217 96.811 106.472 97.5559C105.727 98.3008 104.717 98.7193 103.663 98.7193H90.5393C89.4846 98.7193 88.4731 98.3003 87.7273 97.5545C86.9815 96.8087 86.5625 95.7972 86.5625 94.7425V91.1667C86.5638 90.1129 86.9833 89.1026 87.729 88.3578C88.4746 87.6131 89.4854 87.1948 90.5393 87.1948Z" fill="#2D4C7F"/>
<path d="M90.5393 100.096H103.658C104.713 100.096 105.725 100.515 106.47 101.261C107.216 102.007 107.635 103.019 107.635 104.073V107.649C107.635 108.702 107.217 109.713 106.472 110.458C105.727 111.202 104.717 111.621 103.663 111.621H90.5393C89.4846 111.621 88.4731 111.202 87.7273 110.456C86.9815 109.71 86.5625 108.699 86.5625 107.644V104.068C86.5638 103.015 86.9833 102.004 87.729 101.26C88.4746 100.515 89.4854 100.096 90.5393 100.096Z" fill="#2D4C7F"/>
<path d="M50.7305 150.886V68.6878C50.7381 66.7329 51.5198 64.8606 52.9044 63.4806C54.289 62.1005 56.1638 61.325 58.1187 61.3237H98.4811C100.434 61.3275 102.307 62.1042 103.689 63.484C105.072 64.8638 105.852 66.7346 105.86 68.6878V150.886C105.858 152.844 105.08 154.722 103.696 156.106C102.311 157.49 100.434 158.269 98.4763 158.27H58.1187C56.1601 158.27 54.2816 157.492 52.8961 156.108C51.5107 154.723 50.7317 152.845 50.7305 150.886ZM58.1187 64.1602C56.9127 64.1614 55.7564 64.6408 54.9032 65.4931C54.05 66.3454 53.5695 67.5012 53.5669 68.7072V150.886C53.5695 152.093 54.0498 153.249 54.9029 154.102C55.756 154.955 56.9123 155.436 58.1187 155.438H98.4811C99.6876 155.436 100.844 154.955 101.697 154.102C102.55 153.249 103.03 152.093 103.033 150.886V68.6878C103.03 67.4818 102.55 66.326 101.697 65.4737C100.843 64.6214 99.6871 64.1421 98.4811 64.1408L58.1187 64.1602Z" fill="#455A64"/>
<path d="M53.4146 149.949C53.3939 151.484 53.9831 152.965 55.053 154.067C56.1228 155.168 57.5859 155.801 59.1213 155.825H97.7441C99.2795 155.801 100.743 155.168 101.812 154.067C102.882 152.965 103.471 151.484 103.451 149.949V69.0648C103.47 67.5302 102.88 66.0505 101.811 64.95C100.741 63.8495 99.2787 63.218 97.7441 63.1938H59.1213C57.5868 63.218 56.1244 63.8495 55.0547 64.95C53.985 66.0505 53.3952 67.5302 53.4146 69.0648V149.949Z" fill="#FFE2D7"/>
<path d="M95.8088 96.4675L93.33 93.201C93.04 92.835 92.6167 92.599 92.1529 92.5446C91.6891 92.4903 91.2227 92.622 90.856 92.9111L89.7929 93.7132C89.4728 93.963 89.0836 94.1081 88.6781 94.1289C88.2726 94.1496 87.8706 94.045 87.5266 93.8292C87.0048 93.4957 86.4644 93.1924 85.9079 92.9207C85.548 92.7464 85.2545 92.4599 85.0715 92.1043C84.8885 91.7488 84.8259 91.3434 84.8932 90.9492L85.0913 89.6591C85.1295 89.4343 85.1211 89.2041 85.0666 88.9828C85.0121 88.7614 84.9126 88.5537 84.7744 88.3724C84.6362 88.1911 84.4621 88.0402 84.2631 87.929C84.0641 87.8179 83.8443 87.7489 83.6175 87.7262L79.4522 87.243C78.9826 87.1897 78.5105 87.319 78.1336 87.6041C77.7568 87.8893 77.504 88.3084 77.4276 88.7748L77.2246 90.0601C77.1569 90.4657 76.9693 90.8417 76.686 91.1397C76.4027 91.4377 76.0366 91.644 75.6349 91.732C75.011 91.8581 74.3947 92.0194 73.789 92.2153C73.4102 92.3473 72.9997 92.3583 72.6144 92.2466C72.2292 92.1349 71.8882 91.9061 71.6387 91.5919L70.8656 90.5723C70.5757 90.2078 70.1534 89.9727 69.6908 89.9183C69.2282 89.864 68.7629 89.9949 68.3964 90.2824L64.985 92.8676C64.7977 93.0028 64.639 93.1736 64.5179 93.3702C64.3968 93.5669 64.3158 93.7856 64.2794 94.0136C64.243 94.2417 64.2521 94.4747 64.306 94.6993C64.3599 94.9239 64.4576 95.1356 64.5936 95.3223L65.3667 96.337C65.5998 96.6644 65.725 97.0562 65.725 97.4581C65.725 97.8599 65.5998 98.2518 65.3667 98.5791C65.0145 99.1051 64.6918 99.6504 64.4003 100.212C64.2097 100.576 63.9133 100.874 63.5502 101.067C63.1871 101.259 62.7742 101.337 62.366 101.29L61.071 101.14C60.6003 101.088 60.1276 101.218 59.7501 101.504C59.3726 101.79 59.119 102.21 59.0415 102.677L58.3892 106.813C58.3524 107.038 58.3618 107.267 58.4169 107.488C58.472 107.709 58.5716 107.916 58.7096 108.097C58.8476 108.278 59.021 108.429 59.2193 108.54C59.4177 108.652 59.6367 108.722 59.863 108.746L61.158 108.896C61.5568 108.937 61.9315 109.106 62.2253 109.379C62.5191 109.652 62.716 110.013 62.7864 110.408C62.8969 111.014 63.0453 111.613 63.2309 112.201C63.3446 112.591 63.336 113.007 63.2064 113.392C63.0769 113.777 62.8325 114.114 62.5061 114.356L61.4431 115.158C61.0667 115.433 60.8146 115.845 60.7421 116.305C60.6696 116.766 60.7827 117.236 61.0565 117.613L63.5402 120.879C63.6837 121.061 63.8617 121.212 64.0638 121.324C64.2659 121.437 64.4882 121.509 64.718 121.535C64.9479 121.561 65.1806 121.542 65.4031 121.479C65.6255 121.415 65.8331 121.308 66.0142 121.164L67.0773 120.367C67.3961 120.115 67.7857 119.968 68.1919 119.947C68.598 119.926 69.0005 120.032 69.3435 120.251C69.8631 120.585 70.402 120.889 70.9574 121.159C71.3178 121.333 71.6118 121.62 71.7949 121.975C71.978 122.331 72.0402 122.737 71.9722 123.131L71.7644 124.416C71.7283 124.641 71.7385 124.871 71.7941 125.092C71.8498 125.313 71.9499 125.52 72.0882 125.701C72.2266 125.881 72.4003 126.032 72.5989 126.144C72.7974 126.255 73.0166 126.325 73.243 126.349L77.4131 126.832C77.8822 126.883 78.3531 126.753 78.7295 126.468C79.1058 126.184 79.3592 125.766 79.4377 125.301L79.6407 124.015C79.7086 123.61 79.8964 123.235 80.1798 122.938C80.4632 122.641 80.8292 122.435 81.2304 122.348C81.8522 122.22 82.4668 122.058 83.0715 121.865C83.4514 121.732 83.8632 121.721 84.2496 121.834C84.6359 121.947 84.9774 122.177 85.2266 122.493L85.9949 123.508C86.2872 123.872 86.7115 124.107 87.1757 124.16C87.6398 124.213 88.1063 124.082 88.4737 123.793L91.8804 121.213C92.0685 121.077 92.2278 120.906 92.3493 120.709C92.4707 120.512 92.5517 120.292 92.5877 120.064C92.6237 119.835 92.6138 119.601 92.5588 119.376C92.5037 119.151 92.4045 118.939 92.2669 118.753L91.5035 117.738C91.2607 117.418 91.1264 117.029 91.1204 116.628C91.1143 116.226 91.2366 115.833 91.4696 115.506C91.8215 114.978 92.1442 114.431 92.436 113.868C92.6295 113.505 92.9271 113.209 93.2905 113.017C93.654 112.825 94.0666 112.746 94.4752 112.79L95.775 112.935C96.2436 112.986 96.7139 112.856 97.0894 112.571C97.465 112.286 97.7174 111.868 97.7948 111.403L98.452 107.267C98.4895 107.043 98.4806 106.813 98.4258 106.592C98.371 106.37 98.2714 106.163 98.1333 105.982C97.9952 105.801 97.8215 105.65 97.6228 105.538C97.4241 105.427 97.2048 105.358 96.9782 105.334L95.6784 105.185C95.2809 105.141 94.9082 104.97 94.6156 104.698C94.323 104.425 94.1263 104.065 94.0548 103.672C93.9436 103.066 93.7968 102.468 93.6151 101.879C93.4974 101.49 93.5034 101.073 93.6323 100.687C93.7613 100.301 94.0068 99.9649 94.3351 99.7243L95.3981 98.9222C95.5869 98.7885 95.7473 98.6187 95.8702 98.4228C95.9932 98.2268 96.0761 98.0085 96.1143 97.7803C96.1524 97.5521 96.1451 97.3187 96.0927 97.0934C96.0403 96.8681 95.9438 96.6554 95.8088 96.4675ZM84.695 113.989C80.1819 117.98 73.33 117.183 70.223 112.312C67.7731 108.48 68.609 103.242 72.1558 100.101C76.6641 96.1196 83.5112 96.9169 86.623 101.792C89.0777 105.619 88.2466 110.857 84.695 113.989Z" fill="#407BFF"/>
<path d="M97.2801 71.6306H59.5898V75.4963H97.2801V71.6306Z" fill="white"/>
<path d="M83.7503 78.0718H59.5898V81.9374H83.7503V78.0718Z" fill="white"/>
<path d="M94.3809 131.867H59.5898V135.733H94.3809V131.867Z" fill="white"/>
<path d="M94.3809 138.313H59.5898V142.179H94.3809V138.313Z" fill="white"/>
<path d="M87.6159 145.078H59.5898V148.944H87.6159V145.078Z" fill="white"/>
<g style="mix-blend-mode:multiply" opacity="0.3">
<path d="M102.422 149.05C98.2725 146.4 94.3817 143.364 90.8006 139.985C83.3786 133.172 77.5027 124.184 72.9219 115.264C68.1623 105.943 64.8862 96.1486 62.4701 85.9771C61.1993 80.628 60.0541 75.2402 58.8557 69.8766C58.3725 67.7939 57.6574 65.6726 57.2273 63.5369C56.106 63.9604 55.1414 64.7172 54.4632 65.7056C53.7851 66.6939 53.4259 67.8662 53.4341 69.0648V149.949C53.4135 151.484 54.0027 152.965 55.0725 154.067C56.1424 155.168 57.6054 155.801 59.1408 155.825H97.7443C99.2797 155.801 100.743 155.168 101.813 154.067C102.882 152.965 103.472 151.484 103.451 149.949V149.649C103.103 149.456 102.755 149.258 102.422 149.05Z" fill="#B8D0FF"/>
</g>
<path d="M32.5598 95.9553C35.1111 97.4581 36.0727 100.304 36.6622 102.943C37.2257 105.44 37.6148 107.973 37.8268 110.524C37.8194 111.056 37.9545 111.58 38.2182 112.041C38.9623 113.133 40.7502 113.09 42.2046 112.984C45.7417 112.723 49.0807 113.8 52.7966 113.525C52.2833 114.445 52.0704 115.503 52.1877 116.55C47.2107 117.39 42.1225 118.236 37.1068 117.618C35.725 117.501 34.38 117.111 33.1493 116.472C30.6173 114.999 29.7668 112.123 29.2836 109.5C28.7764 106.691 28.4824 103.848 28.4042 100.995C28.3655 99.6615 28.4042 98.2409 29.2691 97.1295C30.1341 96.0181 32.0331 95.6219 32.5839 95.9457" fill="#FFBC96"/>
<path d="M31.8802 93.9597C33.383 94.3028 34.3446 95.6799 35.0259 96.9942C36.7822 100.351 37.7397 104.069 37.8237 107.857C34.9221 107.751 32.0168 107.834 29.1259 108.103C28.5799 105.871 28.1595 103.609 27.8116 101.338C27.5608 100.15 27.574 98.921 27.8502 97.7384C28.0998 96.9945 28.4794 96.3008 28.9713 95.6896C29.841 94.5492 31.1071 93.7567 31.9237 93.9597" fill="black"/>
<path d="M52.079 113.559C53.2677 113.457 53.8089 113.375 54.6062 112.911C55.2706 112.51 56.0175 112.266 56.7903 112.196C56.9498 112.196 57.1479 112.312 57.1092 112.467C57.0706 112.621 56.9546 112.621 56.8483 112.655C56.4231 112.79 54.9154 113.66 55.2875 113.515C56.3434 113.633 57.4083 113.648 58.467 113.559C58.6711 113.525 58.8798 113.534 59.0807 113.583C59.2788 113.641 59.5639 113.839 59.4721 114.013C59.3803 114.187 57.3943 114.283 56.3506 114.419L58.9889 114.486C59.2015 114.486 59.5204 114.617 59.4286 114.81C59.3126 115.076 57.2493 115.081 56.1573 115.216L58.6555 115.371C58.9889 115.371 59.6219 115.574 59.3271 115.767C58.8439 116.12 57.1382 115.965 55.9447 116.004L57.5151 116.231C57.6891 116.255 57.921 116.376 57.8389 116.535C57.8002 116.617 57.6939 116.637 57.6069 116.646C55.6113 116.893 53.8524 116.617 51.6055 116.646C51.7939 115.617 51.6055 114.554 52.0887 113.559" fill="#FFBC96"/>
<path d="M75.9023 62.8507V7.28174H102.962V19.1445" stroke="#2E6ADB" stroke-miterlimit="10" stroke-dasharray="3 3"/>
<path d="M103.082 18.8787C103.949 18.8787 104.653 18.1756 104.653 17.3083C104.653 16.441 103.949 15.7379 103.082 15.7379C102.215 15.7379 101.512 16.441 101.512 17.3083C101.512 18.1756 102.215 18.8787 103.082 18.8787Z" fill="#2E6ADB"/>
<path d="M75.6603 61.7635C76.5276 61.7635 77.2307 61.0604 77.2307 60.193C77.2307 59.3257 76.5276 58.6226 75.6603 58.6226C74.7929 58.6226 74.0898 59.3257 74.0898 60.193C74.0898 61.0604 74.7929 61.7635 75.6603 61.7635Z" fill="#2E6ADB"/>
<path d="M267.475 189.601C267.475 191.114 260.768 192.341 252.495 192.341C244.223 192.341 237.516 191.114 237.516 189.601C237.516 188.089 244.223 186.861 252.495 186.861C260.768 186.861 267.475 188.089 267.475 189.601Z" fill="#B8D0FF"/>
<path d="M195.253 73.9645V1H151.281V30.2003" stroke="#2E6ADB" stroke-miterlimit="10" stroke-dasharray="3 3"/>
<path d="M213.623 50.2921H180.441V68.8618H213.623V50.2921Z" fill="#407BFF"/>
<path d="M192.206 53.2783L186.277 58.7821L191.612 63.3532" stroke="white" stroke-miterlimit="10"/>
<path d="M202.086 53.8727L207.783 59.618L202.26 63.9621" stroke="white" stroke-miterlimit="10"/>
<path d="M200.377 52.2877L192.699 66.8661" stroke="white" stroke-miterlimit="10"/>
<path d="M245.697 183.605C244.247 185.301 241.594 185.228 239.898 186.62C239.771 186.714 239.667 186.836 239.594 186.977C239.547 187.141 239.56 187.316 239.63 187.472C239.7 187.628 239.822 187.754 239.976 187.828C240.281 187.953 240.613 188.002 240.942 187.968L246.625 187.794C246.831 187.802 247.036 187.767 247.229 187.692C247.418 187.569 247.58 187.408 247.706 187.221C247.832 187.033 247.92 186.822 247.963 186.6C248.393 185.296 248.417 184.184 248.852 182.856C247.591 182.885 246.948 183.232 245.692 183.605" fill="#FFBC96"/>
<path d="M239.579 186.977C239.651 186.836 239.755 186.714 239.883 186.62C240.597 186.095 241.396 185.7 242.246 185.45C242.418 185.711 242.651 185.925 242.925 186.076C243.198 186.227 243.504 186.309 243.816 186.315C244.256 186.354 244.701 186.349 245.14 186.364C245.583 186.382 246.026 186.346 246.459 186.257C247.125 186.106 247.748 185.805 248.281 185.378C248.199 185.791 248.094 186.199 247.967 186.6C247.924 186.822 247.836 187.033 247.71 187.221C247.584 187.408 247.422 187.569 247.233 187.692C247.04 187.767 246.835 187.802 246.629 187.794L240.946 187.968C240.617 188.002 240.285 187.953 239.98 187.828C239.826 187.754 239.704 187.628 239.634 187.472C239.564 187.316 239.551 187.141 239.598 186.977" fill="#132444"/>
<path d="M259.275 116.617C261.025 126.707 256.42 140.618 252.723 150.171C251.493 152.574 251.071 155.309 251.52 157.97C251.969 163.962 251.235 169.62 250.471 175.583C250.041 178.917 250.075 180.754 249.592 184.518C248.674 184.378 244.383 183.658 244.523 183.749C244.074 180.198 242.445 158.903 244.194 144.73C245.217 136.58 246.71 128.495 248.664 120.517C248.741 120.208 249.389 116.434 249.747 116.463C251.839 116.646 254.332 116.53 255.738 116.617H259.275Z" fill="black"/>
<g style="mix-blend-mode:multiply" opacity="0.3">
<path d="M252.721 150.171C254.861 144.789 256.637 139.27 258.037 133.65C257.767 133.903 257.513 134.172 257.278 134.457C256.013 136.074 254.953 137.842 254.123 139.719C252.137 143.914 249.943 148.354 249.078 152.945C248.112 158.101 248.846 163.435 249.015 168.635C249.184 173.834 248.576 179.048 248.141 184.266L249.59 184.498C250.073 180.734 250.04 178.898 250.47 175.564C251.233 169.601 251.968 163.943 251.518 157.951C251.069 155.29 251.491 152.554 252.721 150.152V150.171Z" fill="#5D81EC"/>
</g>
<path d="M262.092 185.624C260.643 187.32 257.995 187.248 256.294 188.64C256.165 188.731 256.062 188.854 255.994 188.997C255.946 189.161 255.958 189.337 256.028 189.493C256.098 189.649 256.221 189.775 256.376 189.848C256.681 189.975 257.014 190.021 257.342 189.983L263.025 189.814C263.231 189.821 263.437 189.787 263.629 189.712C263.819 189.588 263.981 189.427 264.107 189.238C264.233 189.05 264.321 188.838 264.363 188.615C264.794 187.316 264.822 186.199 265.253 184.875C263.991 184.9 263.349 185.252 262.092 185.624Z" fill="#FFBC96"/>
<path d="M255.98 188.973C256.048 188.83 256.151 188.707 256.279 188.615C256.994 188.089 257.795 187.693 258.647 187.446C258.818 187.708 259.05 187.923 259.324 188.073C259.598 188.223 259.905 188.303 260.218 188.306C260.657 188.345 261.097 188.345 261.537 188.354C261.979 188.377 262.423 188.341 262.856 188.248C263.523 188.102 264.146 187.802 264.678 187.374C264.599 187.786 264.495 188.193 264.363 188.591C264.321 188.814 264.233 189.026 264.107 189.214C263.981 189.402 263.819 189.564 263.629 189.688C263.437 189.763 263.231 189.797 263.025 189.79L257.342 189.959C257.014 189.997 256.681 189.95 256.376 189.823C256.221 189.751 256.098 189.625 256.028 189.469C255.958 189.313 255.946 189.137 255.994 188.973" fill="#132444"/>
<path d="M266.039 113.998C269.247 124.86 269.944 136.309 268.078 147.48C267.707 149.186 267.519 150.928 267.518 152.674C267.59 154.332 268.054 155.946 268.388 157.569C270.321 167.127 268.412 177.076 265.416 186.364C264.044 186.127 262.212 185.827 260.84 185.595C262.145 174.308 258.424 161.435 257.738 150.108C257.506 146.243 257.361 140.415 256.815 136.579C255.433 126.914 255.795 124.648 255.737 116.453C259.248 115.992 262.7 115.166 266.039 113.989" fill="black"/>
<g style="mix-blend-mode:multiply" opacity="0.3">
<path d="M268.39 157.569C268.057 155.946 267.593 154.332 267.521 152.674C267.522 150.928 267.71 149.186 268.081 147.48C269.947 136.309 269.25 124.86 266.042 113.998C265.076 114.366 263.747 114.771 262.316 115.153C265.216 119.918 265.486 126.243 265.699 131.582C265.863 135.849 265.699 140.063 265.506 144.324C265.264 149.311 265.738 153.989 266.472 158.937C267.144 163.344 267.284 167.407 266.443 171.795C265.834 174.974 265.477 178.193 264.892 181.372C264.612 182.971 264.24 184.552 263.776 186.107L265.419 186.383C268.414 177.076 270.343 167.127 268.39 157.569Z" fill="#5D81EC"/>
</g>
<path d="M261.73 116.927C261.759 118.27 262.455 119.565 262.658 120.884C262.846 122.271 262.946 123.669 262.958 125.069C263.016 127.842 263.311 130.621 263.581 133.365C264.113 138.714 264.035 144.344 264.035 149.794C264.035 154.979 265.727 159.613 265.727 164.697C265.727 169.78 265.814 174.844 264.837 179.753C264.639 180.758 263.615 186.035 263.774 186.083" stroke="black" stroke-width="0.5" stroke-miterlimit="10"/>
<path d="M256.993 89.5963C259.337 89.6398 261.956 89.7993 263.555 91.4857C265.155 93.1721 265.13 95.7959 265.005 98.1249C264.7 104.015 264.604 110.311 267.778 115.318C261.483 118.009 254.438 118.381 247.894 116.366C248.503 112.317 248.991 108.152 248.059 104.16C247.228 100.58 245.3 96.714 247.054 93.4475C248.02 91.7031 249.89 90.5966 251.842 90.1037C253.794 89.6108 255.843 89.6688 256.983 89.6205" fill="#FF6C37"/>
<path d="M248.735 110.978C249.132 111.018 249.53 111.036 249.929 111.031C250.318 110.995 250.706 110.937 251.089 110.857C251.79 110.758 252.486 110.618 253.171 110.437C254.414 110.02 255.56 109.354 256.538 108.48C257.515 107.606 258.305 106.543 258.859 105.354C260.149 102.682 260.4 99.7775 260.366 96.8541C260.332 94.3801 259.922 91.8142 258.627 89.6591C260.482 89.7944 262.323 90.1858 263.555 91.4856C265.169 93.1914 265.131 95.7959 265.005 98.1249C264.701 104.015 264.604 110.311 267.779 115.317C261.484 118.009 254.438 118.381 247.895 116.366C248.16 114.578 248.407 112.766 248.518 110.959H248.726" fill="#FF6C37"/>
<path d="M256.617 101.667C254.986 101.071 253.519 100.098 252.336 98.8278C251.153 97.5573 250.287 96.0249 249.809 94.3559" stroke="#26395E" stroke-width="0.5" stroke-miterlimit="10"/>
<path d="M252.881 102.512C251.362 101.437 250.167 99.9667 249.426 98.2602" stroke="#26395E" stroke-width="0.5" stroke-miterlimit="10"/>
<path d="M256.831 82.9618C257.27 84.4115 259.029 84.9237 259.971 86.093C260.812 87.1416 261.015 88.7362 262.189 89.3934C263.156 89.9442 264.49 89.6253 265.398 90.2776C266.437 91.0169 266.427 92.6308 267.331 93.5103C267.778 93.9034 268.341 94.1393 268.935 94.1819C271.351 94.4332 273.68 92.0897 273.414 89.6736C273.313 88.7893 272.931 87.9631 272.762 87.0884C272.593 86.2138 272.699 85.1894 273.385 84.6289C273.695 84.4231 274.018 84.2374 274.352 84.0732C275.835 83.1696 276.072 80.8889 275.028 79.5069C273.985 78.1249 272.008 77.6562 270.331 78.1008C269.365 78.352 268.196 78.8159 267.51 78.1008C267.288 77.8002 267.1 77.4761 266.949 77.1343C266.701 76.7608 266.354 76.4635 265.947 76.2758C265.54 76.088 265.089 76.0172 264.644 76.0713C263.75 76.1979 262.931 76.6401 262.334 77.318C261.924 77.7577 262.006 79.0575 261.59 79.5021C260.624 80.5458 259.252 79.333 258.503 79.5552C258.019 79.6954 256.502 81.9374 256.821 82.9715" fill="#132444"/>
<path d="M253.583 87.533C253.643 88.8919 253.406 90.2477 252.887 91.505C253.785 92.138 254.989 92.0607 256.076 91.8819C256.614 91.8095 257.14 91.6615 257.637 91.4422C257.693 91.4198 257.743 91.3832 257.782 91.3359C257.815 91.2808 257.825 91.2149 257.811 91.1522C257.197 88.915 257.245 86.8034 257.651 84.1312C256.593 84.5323 255.361 84.1312 254.269 84.4598C254.163 84.4871 254.066 84.5384 253.984 84.6096C253.899 84.7139 253.844 84.8391 253.824 84.972C253.623 85.81 253.536 86.6717 253.568 87.533" fill="#FFBC96"/>
<path d="M256.556 87.7649C257.3 86.581 257.194 85.1314 257.614 83.8364C256.561 84.2375 255.362 84.0877 254.285 84.4404C254.179 84.4677 254.082 84.519 254 84.5902C253.915 84.6945 253.86 84.8197 253.84 84.9526C253.639 85.7907 253.552 86.6523 253.584 87.5136C253.616 88.2637 253.557 89.0148 253.41 89.7509C254.047 89.668 254.659 89.4474 255.202 89.1044C255.745 88.7615 256.207 88.3044 256.556 87.7649Z" fill="#D75246"/>
<path d="M251.964 81.3817C251.751 82.2128 251.539 82.9473 251.36 83.7978C251.114 84.9478 250.78 85.8224 251.244 86.9C251.429 87.3661 251.752 87.7651 252.168 88.0446C252.585 88.3241 253.076 88.4708 253.578 88.4655C254.512 88.4354 255.397 88.0398 256.042 87.3638C256.69 86.716 257.199 85.9424 257.536 85.0905C257.873 84.2387 258.033 83.3267 258.004 82.4109C258.031 82.0979 257.975 81.7832 257.84 81.4995C257.704 81.2157 257.496 80.9732 257.236 80.797C256.517 80.2969 255.688 79.9771 254.82 79.8644C253.496 79.6325 252.181 80.5651 251.964 81.3962" fill="#FFBC96"/>
<path d="M251.728 78.5646C250.564 79.2653 250.057 80.0433 250.603 80.9227C250.955 81.4977 251.477 81.1112 251.651 81.1305C251.825 81.1498 251.956 81.4542 252.071 81.662C252.21 81.832 252.39 81.9632 252.594 82.0429C252.798 82.1225 253.019 82.1478 253.236 82.1162C253.673 82.1293 254.104 82.0152 254.478 81.7876C254.719 81.6185 254.913 81.3818 255.164 81.232C255.285 81.1465 255.432 81.1055 255.58 81.1161C255.728 81.1266 255.868 81.1881 255.976 81.2899C256.198 81.5847 255.976 82.0437 256.164 82.3627C256.238 82.463 256.34 82.54 256.456 82.5845C256.573 82.629 256.699 82.6392 256.821 82.6139C257.05 82.5755 257.264 82.4775 257.442 82.3299C257.62 82.1823 257.756 81.9902 257.836 81.7732C257.995 81.3362 257.995 80.8571 257.836 80.4202C257.669 79.9604 257.376 79.5569 256.991 79.2556C256.077 78.5501 255.13 79.1445 254.183 78.4825C253.395 77.9268 251.878 78.4825 251.767 78.5646" fill="#132444"/>
<path d="M256.574 80.9275C256.826 81.6061 256.912 82.335 256.825 83.0536C256.811 83.1497 256.811 83.2475 256.825 83.3436C256.847 83.4517 256.884 83.556 256.937 83.6528C257.164 84.107 257.391 84.5612 257.613 85.0155C258.386 84.4356 259.43 83.6431 259.092 81.9471C259.034 81.5553 258.907 81.1772 258.715 80.8309C257.792 79.5794 256.908 80.4975 256.782 80.5989C256.656 80.7004 256.555 80.9034 256.598 80.9275" fill="#132444"/>
<path d="M257.2 84.2762C257.38 84.1326 257.598 84.0443 257.827 84.022C258.056 83.9997 258.286 84.0444 258.49 84.1505C259.196 84.5468 258.06 85.7983 256.722 85.6436C256.534 85.6195 256.321 85.5422 256.273 85.3586C256.264 85.2821 256.273 85.2048 256.298 85.1322C256.323 85.0595 256.364 84.9932 256.418 84.9382C256.606 84.6441 256.879 84.4134 257.2 84.2762Z" fill="#FFBC96"/>
<path d="M249.359 72.5149H166.098V153.694H249.359V72.5149Z" fill="#FFE2D7"/>
<path d="M249.33 72.5149H166.098V82.5995H249.33V72.5149Z" fill="#FF6C37"/>
<path d="M173.124 76.714C173.125 77.0219 173.034 77.3232 172.864 77.5797C172.693 77.8362 172.451 78.0364 172.166 78.1549C171.882 78.2734 171.569 78.3049 171.267 78.2454C170.965 78.1859 170.687 78.0381 170.469 77.8207C170.251 77.6033 170.102 77.3261 170.042 77.0241C169.982 76.7222 170.012 76.4091 170.13 76.1245C170.247 75.8399 170.447 75.5966 170.703 75.4254C170.959 75.2542 171.26 75.1629 171.568 75.1628C171.772 75.1622 171.974 75.2019 172.163 75.2795C172.351 75.3572 172.523 75.4713 172.668 75.6154C172.812 75.7595 172.927 75.9307 173.005 76.1193C173.083 76.3078 173.124 76.5099 173.124 76.714Z" fill="white"/>
<path d="M180.295 76.714C180.296 77.0219 180.206 77.3232 180.036 77.5797C179.865 77.8362 179.623 78.0364 179.338 78.1549C179.054 78.2734 178.741 78.3049 178.439 78.2454C178.137 78.1859 177.859 78.0381 177.641 77.8207C177.423 77.6033 177.274 77.3261 177.214 77.0241C177.153 76.7222 177.184 76.4091 177.302 76.1245C177.419 75.8399 177.619 75.5966 177.875 75.4254C178.131 75.2542 178.432 75.1629 178.74 75.1628C178.944 75.1622 179.146 75.2019 179.335 75.2795C179.523 75.3572 179.695 75.4713 179.839 75.6154C179.984 75.7595 180.099 75.9307 180.177 76.1193C180.255 76.3078 180.295 76.5099 180.295 76.714Z" fill="white"/>
<path d="M187.491 76.714C187.492 77.0219 187.401 77.3232 187.231 77.5797C187.061 77.8362 186.818 78.0364 186.534 78.1549C186.249 78.2734 185.936 78.3049 185.634 78.2454C185.332 78.1859 185.054 78.0381 184.836 77.8207C184.618 77.6033 184.47 77.3261 184.409 77.0241C184.349 76.7222 184.379 76.4091 184.497 76.1245C184.614 75.8399 184.814 75.5966 185.07 75.4254C185.326 75.2542 185.627 75.1629 185.935 75.1628C186.139 75.1622 186.341 75.2019 186.53 75.2795C186.719 75.3572 186.89 75.4713 187.035 75.6154C187.179 75.7595 187.294 75.9307 187.372 76.1193C187.45 76.3078 187.491 76.5099 187.491 76.714Z" fill="white"/>
<path d="M241.16 92.4858H198.879V95.3851H241.16V92.4858Z" fill="white"/>
<path d="M241.16 98.6081H198.879V101.507H241.16V98.6081Z" fill="white"/>
<path d="M226.34 105.373H198.879V108.272H226.34V105.373Z" fill="white"/>
<path d="M240.517 116.004H198.879V118.903H240.517V116.004Z" fill="white"/>
<path d="M240.517 122.445H198.879V125.344H240.517V122.445Z" fill="white"/>
<path d="M240.517 130.176H198.879V133.075H240.517V130.176Z" fill="white"/>
<path d="M240.517 139.198H198.879V142.097H240.517V139.198Z" fill="white"/>
<path d="M192.835 107.306H181.32V110.205H192.835V107.306Z" fill="white"/>
<path d="M192.835 98.6081H181.32V101.507H192.835V98.6081Z" fill="white"/>
<path d="M192.84 92.4858H170.371V95.3851H192.84V92.4858Z" fill="white"/>
<path d="M192.838 113.747H172.664V116.646H192.838V113.747Z" fill="white"/>
<path d="M192.833 121.159H183.613V124.059H192.833V121.159Z" fill="white"/>
<path d="M192.837 128.567H176.949V131.466H192.837V128.567Z" fill="white"/>
<path d="M192.841 140.807H180.176V143.706H192.841V140.807Z" fill="white"/>
<g style="mix-blend-mode:multiply" opacity="0.3">
<path d="M236.284 144.242C225.716 139.927 216.429 133.346 207.683 126.093C191.519 112.684 177.497 94.1723 176.545 72.5149H166.098V153.694H249.359V148.137C244.893 147.233 240.517 145.929 236.284 144.242Z" fill="#B8D0FF"/>
</g>
<path d="M258.729 103.228C255.129 105.291 249.572 108.992 246.707 109.442C245.23 109.653 243.726 109.563 242.286 109.176C238.27 108.147 236.448 105.856 232.742 103.991C233.486 103.112 233.032 103.653 233.452 102.575C236.999 103.725 245.881 107.924 251.428 102.29C255.815 97.8398 256.555 98.1104 259.894 96.6511C260.618 96.3322 262.31 96.0085 263.035 96.3564C263.759 96.7043 265.107 99.5649 258.729 103.228Z" fill="#FFBC96"/>
<path d="M233.11 104.059C232.041 103.994 230.983 103.801 229.96 103.484C229.636 103.368 229.191 103.286 229.095 102.957C229.259 102.764 229.317 102.904 229.761 103.025C230.015 103.134 230.294 103.173 230.568 103.136C229.632 102.879 228.792 102.353 228.152 101.623C228.223 101.576 228.305 101.547 228.389 101.542C228.474 101.536 228.559 101.552 228.636 101.59C228.787 101.668 228.929 101.766 229.056 101.879C229.408 102.142 229.823 102.309 230.259 102.363C229.496 102 228.679 101.58 228.326 100.812C228.372 100.761 228.433 100.726 228.5 100.713C228.567 100.699 228.636 100.706 228.698 100.734C228.822 100.791 228.934 100.872 229.027 100.971C229.413 101.304 229.869 101.545 230.361 101.677C229.696 101.312 229.13 100.793 228.708 100.164C228.872 99.9805 229.167 100.164 229.356 100.314C229.814 100.715 230.36 101.002 230.95 101.155C231.032 101.155 231.433 101.319 231.501 101.251C231.569 101.184 231.284 100.459 231.25 100.179C231.216 99.8983 231.337 99.618 231.588 99.5891C232.071 100.831 232.68 102.184 233.883 102.773C233.587 103.181 233.321 103.609 233.086 104.054" fill="#FFBC96"/>
<path d="M263.722 91.9543C264.397 92.919 264.707 94.0922 264.597 95.2643C264.51 95.9659 264.326 96.6521 264.051 97.3035C262.856 100.339 260.883 103.005 258.33 105.035C256.665 103.762 255.15 102.303 253.816 100.686C253.76 100.633 253.715 100.569 253.684 100.499C253.652 100.428 253.635 100.352 253.633 100.275C253.659 100.156 253.722 100.048 253.812 99.9659C256.161 97.3566 258.735 94.9587 261.504 92.8C262.019 92.3353 262.639 92.0035 263.311 91.8335C263.592 91.7804 263.998 92.0703 263.722 91.9688" fill="#FF6C37"/>
</svg>
