<svg width="55" height="50" viewBox="0 0 55 50" fill="none" xmlns="http://www.w3.org/2000/svg">
<g clip-path="url(#clip0_1352_35411)">
<path d="M0 44.0124C0.20216 43.5668 0.348458 43.0814 0.619778 42.6824C1.32601 41.6397 2.38469 41.2819 3.6043 41.2832C19.316 41.2832 35.0269 41.2797 50.7368 41.2726C53.6216 41.2726 55.2801 43.8235 53.861 46.7894C52.8435 48.9174 51.1012 49.9814 48.7285 49.9814C34.3645 49.9814 19.9983 49.9867 5.62989 49.9974C2.94196 49.9974 0.492099 48.0742 0.0758089 45.4195C0.0691589 45.3716 0.02527 45.3304 0 45.2865V44.0124Z" fill="#00749A"/>
<path d="M15.2169 15.2032C15.2169 14.4278 15.2289 13.7402 15.2049 13.0526C15.1911 12.9807 15.1621 12.9126 15.1199 12.8527C15.0777 12.7929 15.0233 12.7427 14.9602 12.7055C13.2897 11.7399 12.7271 10.3634 13.2405 8.50137C13.6395 7.04635 14.4375 5.84137 15.455 4.75078C15.9404 4.23208 16.5868 4.16557 17.051 4.6457C18.369 6.0023 19.3944 7.53179 19.5407 9.49221C19.6485 10.9326 19.0087 11.986 17.7532 12.655C17.4965 12.788 17.3914 12.921 17.4021 13.2122C17.4234 13.8466 17.4087 14.4824 17.4087 15.1633H26.1083V11.9221C26.1016 11.8336 26.1016 11.7447 26.1083 11.6561C26.2133 11.0018 26.0098 10.6014 25.3781 10.241C24.1505 9.54142 23.7076 8.1396 24.0361 6.517C24.4511 4.45683 25.2704 2.5403 26.1854 0.665005C26.595 -0.176885 27.7468 -0.218104 28.1498 0.609155C29.1686 2.70656 30.1448 4.82658 30.4042 7.18999C30.5571 8.60112 29.9187 9.83536 28.6525 10.4698C28.5225 10.5162 28.4122 10.6055 28.3396 10.7229C28.2671 10.8404 28.2368 10.9791 28.2535 11.1162C28.2708 12.4568 28.2602 13.7974 28.2602 15.1753H36.9557C36.9557 14.4358 36.9557 13.7017 36.9478 12.9662C36.9361 12.9178 36.9138 12.8727 36.8825 12.8341C36.8512 12.7954 36.8117 12.7642 36.7669 12.7427C34.5577 11.6867 34.5192 9.59462 35.1789 7.86163C35.6317 6.7045 36.3144 5.65122 37.1858 4.7654C37.6992 4.2334 38.3389 4.17089 38.8257 4.67362C40.0493 5.93978 40.9963 7.37619 41.257 9.1677C41.4831 10.7198 40.8473 11.9447 39.4694 12.6909C39.3457 12.7574 39.1755 12.889 39.1715 12.9968C39.1449 13.7163 39.1582 14.4372 39.1582 15.2139H39.8432C42.7984 15.2139 45.7537 15.2072 48.7076 15.2139C50.4446 15.2139 51.6562 16.101 52.0672 17.6544C52.1564 18.0326 52.198 18.4204 52.1909 18.8089C52.2028 20.7374 52.1975 22.6659 52.1909 24.5957C52.1909 25.5493 52.0326 25.7794 51.1415 26.1505C49.87 26.6825 48.5919 27.1972 47.3271 27.7465C46.6327 28.0614 45.8792 28.2249 45.1167 28.2261C44.3542 28.2272 43.6002 28.066 42.9048 27.7531C42.0443 27.3847 41.1758 27.0456 40.31 26.6785C39.922 26.5033 39.5009 26.4136 39.0753 26.4155C38.6496 26.4173 38.2293 26.5106 37.8428 26.6891C37.0342 27.0429 36.2096 27.3541 35.4023 27.7185C34.7036 28.0463 33.9418 28.2178 33.17 28.221C32.3982 28.2243 31.6349 28.0591 30.9335 27.7371C30.1249 27.3847 29.2976 27.0722 28.4903 26.7131C28.0811 26.5206 27.6344 26.4208 27.1822 26.4208C26.73 26.4208 26.2834 26.5206 25.8742 26.7131C25.0509 27.0788 24.2104 27.4047 23.3818 27.7584C22.6944 28.0682 21.9488 28.2276 21.1949 28.226C20.441 28.2244 19.6961 28.0618 19.0101 27.7491C18.2653 27.4246 17.4992 27.1453 16.7677 26.7955C16.31 26.5608 15.8037 26.4365 15.2894 26.4326C14.7751 26.4286 14.267 26.5452 13.8058 26.7729C12.9891 27.1493 12.1406 27.4605 11.3094 27.8063C10.6589 28.0892 9.95717 28.2352 9.24785 28.2352C8.53853 28.2352 7.83681 28.0892 7.18635 27.8063C5.80049 27.2291 4.4173 26.6452 3.02612 26.0773C2.49412 25.8619 2.16827 25.5094 2.17093 24.9269C2.17093 22.6446 2.14832 20.3623 2.22812 18.0827C2.28132 16.5918 3.6193 15.2897 5.11022 15.2551C8.24104 15.1979 11.3732 15.2218 14.504 15.2125L15.2169 15.2032Z" fill="#00749A"/>
<path d="M49.9896 28.9834V39.0914H4.39453V28.9927C5.00367 29.2427 5.59153 29.4648 6.16875 29.7242C8.20498 30.6392 10.2386 30.6339 12.2867 29.7495C13.0648 29.413 13.8628 29.1217 14.6342 28.7706C14.8394 28.67 15.0654 28.6191 15.2939 28.6221C15.5225 28.6251 15.7471 28.6819 15.9496 28.7879C16.717 29.147 17.5097 29.4529 18.289 29.784C19.2043 30.1935 20.1953 30.406 21.1979 30.4078C22.2006 30.4097 23.1924 30.2008 24.1091 29.7947C24.971 29.4289 25.8275 29.0472 26.7079 28.7307C27.0176 28.6283 27.3519 28.6283 27.6615 28.7307C28.558 29.0525 29.4304 29.4422 30.3109 29.8106C31.2127 30.2056 32.1868 30.4088 33.1714 30.4072C34.1559 30.4056 35.1294 30.1993 36.0299 29.8013C36.8758 29.4436 37.711 29.0539 38.5755 28.7493C38.9174 28.6382 39.2857 28.6382 39.6276 28.7493C40.4787 29.0419 41.302 29.4143 42.1306 29.7667C44.1416 30.6273 46.1445 30.6299 48.1488 29.7481C48.7394 29.4914 49.3419 29.2494 49.9896 28.9834Z" fill="#00749A"/>
</g>
<defs>
<clipPath id="clip0_1352_35411">
<rect width="54.3784" height="50" fill="white"/>
</clipPath>
</defs>
</svg>
