<svg width="9" height="15" viewBox="0 0 9 15" fill="none" xmlns="http://www.w3.org/2000/svg">
<path d="M1.05204 13.746C0.867281 13.5612 0.774902 13.3424 0.774902 13.0897C0.774902 12.8374 0.867281 12.6189 1.05204 12.4342L6.46543 7.02078L1.03356 1.58891C0.861122 1.41647 0.774902 1.20092 0.774902 0.942263C0.774902 0.683603 0.867281 0.461894 1.05204 0.277136C1.2368 0.0923788 1.45555 0 1.7083 0C1.96055 0 2.17906 0.0923788 2.36382 0.277136L8.57167 6.50346C8.64557 6.57737 8.69804 6.65743 8.72908 6.74365C8.75963 6.82987 8.7749 6.92225 8.7749 7.02078C8.7749 7.11932 8.75963 7.2117 8.72908 7.29792C8.69804 7.38414 8.64557 7.4642 8.57167 7.53811L2.34534 13.7644C2.1729 13.9369 1.96055 14.0231 1.7083 14.0231C1.45555 14.0231 1.2368 13.9307 1.05204 13.746Z" fill="black"/>
</svg>
