<svg width="50" height="50" viewBox="0 0 50 50" fill="none" xmlns="http://www.w3.org/2000/svg">
<g clip-path="url(#clip0_1352_35405)">
<path d="M10.7344 48.2128V30.9554C12.9652 30.3386 15.2994 30.1889 17.5908 30.5157C19.2124 30.7466 20.7858 31.2384 22.2502 31.972C22.484 32.0796 22.7382 32.1355 22.9955 32.1359C24.6127 32.1508 26.2315 32.1166 27.8487 32.1523C31.1562 32.2284 33.8749 34.968 33.9226 38.2352C33.9465 39.8748 32.8017 41.0672 31.1443 41.0672C27.7414 41.0762 24.3385 41.0672 20.9356 41.0672C20.7501 41.0546 20.5637 41.0616 20.3796 41.0881C19.9325 41.1894 19.6582 41.4801 19.6522 41.9496C19.6463 42.4191 19.9176 42.7053 20.3588 42.8305C20.4499 42.8495 20.5431 42.8565 20.636 42.8514C24.2267 42.8514 27.8159 42.8857 31.4036 42.8365C34.1149 42.7992 36.0377 40.3443 35.671 37.5421C35.4102 35.5478 34.5844 33.8515 33.1088 32.4743C33.0298 32.4013 32.9597 32.3163 32.8599 32.203L36.8426 29.0177C38.5418 27.6599 40.2201 26.2752 41.9462 24.9516C42.9217 24.2035 44.1249 23.8137 45.3538 23.8476C46.5827 23.8815 47.7625 24.3371 48.6953 25.1379C50.2723 26.4704 50.4407 28.511 49.0888 30.0805C46.0422 33.618 42.992 37.1511 39.9384 40.6797C38.6119 42.2209 37.2858 43.7606 35.9602 45.2989C34.2838 47.2465 32.1613 48.2208 29.5926 48.2218H10.7344V48.2128Z" fill="#00A0FF"/>
<path d="M28.6124 12.4981C28.2517 10.5738 27.3439 9.81513 25.4301 9.81513H24.4269C22.6487 9.81513 21.6546 10.6737 21.3848 12.5592C19.8361 12.4862 18.2427 12.5726 16.7134 12.3013C14.7757 11.9555 13.4342 10.1132 13.3955 8.13828C13.3731 6.96672 13.3851 5.79665 13.3955 4.62509C13.3955 3.89472 13.7234 3.56979 14.4523 3.56681C16.2543 3.56681 18.0564 3.56681 19.8599 3.56681H20.5352C20.5352 2.75745 20.5352 1.98385 20.5352 1.21176C20.5352 0.289115 20.8184 -0.00302607 21.7172 -0.0045166C23.9102 -0.0045166 26.1028 -0.0045166 28.2949 -0.0045166C29.1654 -0.0045166 29.459 0.293591 29.462 1.17003C29.462 1.94659 29.462 2.72316 29.462 3.56532H30.0969C31.9005 3.56532 33.7025 3.56532 35.5046 3.56532C36.2752 3.56532 36.6076 3.88429 36.6002 4.64148C36.5852 6.03215 36.6747 7.4407 36.4913 8.81498C36.2066 10.945 34.3658 12.4489 32.2224 12.4892C31.0136 12.5175 29.8078 12.4981 28.6124 12.4981ZM22.3402 3.53401H27.6271V1.81692H22.3402V3.53401Z" fill="#00A0FF"/>
<path d="M28.5868 14.3136C30.9792 14.1378 33.4579 14.7757 35.6505 13.1719C35.6743 13.3865 35.7012 13.5207 35.7012 13.6533C35.7012 16.4595 35.7012 19.2662 35.7012 22.0734C35.7012 22.9081 35.3941 23.2136 34.5549 23.2136H15.4418C14.5967 23.2136 14.2866 22.9155 14.2852 22.0853C14.2852 19.1504 14.2852 16.2141 14.2852 13.1421C16.4882 14.7683 18.9729 14.1557 21.3801 14.3077C21.4248 14.5164 21.4636 14.728 21.5157 14.9352C21.6535 15.4992 21.9722 16.0026 22.423 16.3684C22.8739 16.7342 23.4321 16.9423 24.0124 16.9608C24.5326 16.9787 25.0558 16.9608 25.573 16.9608C27.3437 16.9623 28.3275 16.1083 28.5868 14.3136Z" fill="#00A0FF"/>
<path d="M0.00119192 40.1789C0.00119192 37.3141 0.00119192 34.4493 0.00119192 31.5845C0.00119192 30.6335 0.276947 30.3578 1.22791 30.3578H7.75496C8.63139 30.3578 8.92652 30.6559 8.92801 31.5279C8.92801 37.2913 8.92801 43.0576 8.92801 48.827C8.92801 49.7019 8.6299 49.9971 7.75645 49.9986H1.17276C0.297815 49.9986 0.00268391 49.7005 0.00268391 48.827C-0.000297164 45.9443 -0.000795464 43.0616 0.00119192 40.1789Z" fill="#00A0FF"/>
<path d="M26.7808 13.4282C26.7808 15.0991 26.7003 15.1796 25.016 15.1796C23.2676 15.1796 23.2109 15.1215 23.2109 13.3582C23.2109 11.6858 23.2884 11.6083 24.9757 11.6083C26.7241 11.6127 26.7808 11.6649 26.7808 13.4282Z" fill="#00A0FF"/>
</g>
<defs>
<clipPath id="clip0_1352_35405">
<rect width="49.9985" height="50" fill="white"/>
</clipPath>
</defs>
</svg>
