<svg width="26" height="18" viewBox="0 0 26 18" fill="none" xmlns="http://www.w3.org/2000/svg">
<path d="M10.13 0.484306C10.4529 0.807177 10.6079 1.19731 10.595 1.65471C10.581 2.11211 10.4126 2.50224 10.0897 2.82511L5.52914 7.38565L23.5291 7.38565C23.9865 7.38565 24.3702 7.54063 24.6802 7.85058C24.9891 8.15946 25.1435 8.5426 25.1435 9C25.1435 9.4574 24.9891 9.84108 24.6802 10.151C24.3702 10.4599 23.9865 10.6144 23.5291 10.6144L5.52914 10.6144L10.13 15.2152C10.4529 15.5381 10.6143 15.9218 10.6143 16.3663C10.6143 16.8097 10.4529 17.1928 10.13 17.5157C9.80717 17.8386 9.4235 18 8.97901 18C8.5356 18 8.15246 17.8386 7.82959 17.5157L0.443945 10.13C0.282509 9.96861 0.167889 9.79372 0.100086 9.60538C0.0333595 9.41704 -3.8147e-06 9.21525 -3.8147e-06 9C-3.8147e-06 8.78475 0.0333595 8.58296 0.100086 8.39462C0.167889 8.20628 0.282509 8.03139 0.443945 7.86996L7.86995 0.443949C8.16592 0.147984 8.5356 0 8.97901 0C9.4235 0 9.80717 0.161436 10.13 0.484306Z" fill="black"/>
</svg>
