<svg width="26" height="18" viewBox="0 0 26 18" fill="none" xmlns="http://www.w3.org/2000/svg">
<path d="M15.0135 17.5157C14.6906 17.1928 14.5356 16.8027 14.5485 16.3453C14.5625 15.8879 14.7309 15.4978 15.0538 15.1749L19.6143 10.6143H1.61435C1.15695 10.6143 0.773274 10.4594 0.463319 10.1494C0.15444 9.84054 0 9.4574 0 9C0 8.5426 0.15444 8.15892 0.463319 7.84897C0.773274 7.54009 1.15695 7.38565 1.61435 7.38565H19.6143L15.0135 2.78475C14.6906 2.46188 14.5291 2.07821 14.5291 1.63372C14.5291 1.19031 14.6906 0.807174 15.0135 0.484304C15.3363 0.161435 15.72 0 16.1645 0C16.6079 0 16.991 0.161435 17.3139 0.484304L24.6995 7.86996C24.861 8.03139 24.9756 8.20628 25.0434 8.39462C25.1101 8.58296 25.1435 8.78475 25.1435 9C25.1435 9.21525 25.1101 9.41704 25.0434 9.60538C24.9756 9.79372 24.861 9.96861 24.6995 10.13L17.2735 17.5561C16.9776 17.852 16.6079 18 16.1645 18C15.72 18 15.3363 17.8386 15.0135 17.5157Z" fill="black"/>
</svg>
