<svg width="148" height="150" viewBox="0 0 148 150" fill="none" xmlns="http://www.w3.org/2000/svg">
<g opacity="0.5">
<path d="M112.262 0.0969445L102.752 4.86695C102.403 5.01502 102.106 5.2623 101.898 5.578C101.689 5.89369 101.578 6.26383 101.578 6.64229V11.0904C101.569 15.1341 102.749 19.0913 104.969 22.4708C106.683 25.072 108.956 28.4179 112.737 30.3265H114.441C118.652 29.0259 121.793 25.6215 123.711 22.6951C125.931 19.3155 127.111 15.3584 127.103 11.3148V6.64229C127.103 6.26429 126.992 5.8946 126.784 5.57902C126.575 5.26344 126.279 5.01586 125.932 4.86695L115.098 0.249767C114.613 0.0449196 112.744 -0.107902 112.262 0.0969445Z" fill="#A8BFF3"/>
<path d="M111.879 0.249778L101.045 4.86696C100.696 5.01503 100.399 5.26232 100.191 5.57801C99.9819 5.8937 99.8707 6.26385 99.8708 6.6423V11.0904C99.8711 15.2113 101.094 19.2396 103.384 22.6654C105.674 26.0913 108.929 28.7608 112.737 30.3363C116.945 29.0357 120.086 25.6313 122.007 22.7049C124.228 19.3219 125.407 15.3615 125.399 11.3148V6.6423C125.399 6.26385 125.288 5.8937 125.079 5.57801C124.87 5.26232 124.573 5.01503 124.225 4.86696L113.391 0.249778C113.151 0.149172 112.894 0.0973511 112.635 0.0973511C112.375 0.0973511 112.118 0.149172 111.879 0.249778Z" fill="#B3CAFF"/>
<path d="M125.363 10.1084C125.378 10.1757 125.384 10.2445 125.382 10.3133C125.382 10.4661 125.399 10.6612 125.408 10.9018C125.418 11.1424 125.434 11.4708 125.408 11.835C125.382 12.1992 125.408 12.6154 125.35 13.0706C125.291 13.5258 125.275 14.046 125.181 14.563C125.139 14.8297 125.106 15.106 125.051 15.3889C124.996 15.6718 124.927 15.9579 124.865 16.2538C124.566 17.5376 124.147 18.7906 123.614 19.9964C123.066 21.1962 122.413 22.3453 121.663 23.43C121.302 23.9177 120.967 24.4054 120.609 24.7924C120.434 24.9972 120.284 25.2053 120.105 25.3874L119.611 25.9109C119.302 26.2361 118.987 26.5222 118.723 26.7758C118.46 27.0294 118.219 27.2278 118.021 27.3871L117.595 27.7578C117.544 27.804 117.489 27.8444 117.429 27.8781C117.472 27.8241 117.522 27.775 117.576 27.7318L118.014 27.3383C118.206 27.1725 118.44 26.9644 118.694 26.688C118.948 26.4116 119.26 26.158 119.559 25.8134L120.043 25.2834C120.209 25.1013 120.369 24.8932 120.538 24.6883C120.889 24.2819 121.214 23.8104 121.568 23.3227C122.305 22.2429 122.946 21.1017 123.487 19.9118C124.014 18.7149 124.433 17.4733 124.739 16.2018L124.931 15.3434C124.989 15.0638 125.025 14.7874 125.07 14.524C125.168 13.9973 125.207 13.4998 125.256 13.0446C125.304 12.5894 125.311 12.1797 125.337 11.8155C125.363 11.4513 125.36 11.1424 125.36 10.8855C125.36 10.6287 125.36 10.4498 125.36 10.297C125.354 10.2342 125.355 10.171 125.363 10.1084Z" fill="#A1B8EE"/>
<path d="M111.827 19.7785L105.613 14.8394L107.336 12.6707L111.505 15.984L117.588 9.172L119.656 11.0189L111.827 19.7785Z" fill="white"/>
<path d="M141.182 24.438H140.005V18.0357C140.005 17.3113 139.717 16.6166 139.205 16.1044C138.692 15.5922 137.998 15.3044 137.273 15.3044C136.549 15.3044 135.854 15.5922 135.342 16.1044C134.83 16.6166 134.542 17.3113 134.542 18.0357V24.438H133.365V18.0357C133.365 17.0009 133.776 16.0084 134.508 15.2767C135.24 14.5449 136.232 14.1339 137.267 14.1339C138.302 14.1339 139.294 14.5449 140.026 15.2767C140.758 16.0084 141.169 17.0009 141.169 18.0357L141.182 24.438Z" fill="#B3CAFF"/>
<path d="M141.536 20.0939H133.007C132.454 20.0939 132.006 20.5423 132.006 21.0954V27.3481C132.006 27.9012 132.454 28.3496 133.007 28.3496H141.536C142.089 28.3496 142.538 27.9012 142.538 27.3481V21.0954C142.538 20.5423 142.089 20.0939 141.536 20.0939Z" fill="#B3CAFF"/>
<path d="M138.08 24.4347C138.184 24.3284 138.267 24.2024 138.323 24.064C138.379 23.9256 138.406 23.7775 138.405 23.6283C138.406 23.412 138.347 23.1995 138.235 23.0149C138.122 22.8302 137.96 22.6808 137.767 22.5834C137.573 22.486 137.357 22.4446 137.141 22.4637C136.926 22.4829 136.72 22.5619 136.547 22.6918C136.374 22.8218 136.241 22.9974 136.162 23.1991C136.084 23.4007 136.063 23.6202 136.103 23.8329C136.143 24.0456 136.241 24.243 136.387 24.4027C136.533 24.5625 136.72 24.6783 136.929 24.7371L136.682 25.8361H137.784L137.563 24.7371C137.755 24.6821 137.93 24.5779 138.07 24.4347" fill="#FAFAFA"/>
<path d="M142.434 100.514C143.137 100.203 143.734 99.693 144.151 99.0464C144.568 98.3997 144.786 97.645 144.778 96.8758C144.778 94.7037 143.152 92.9349 141.107 92.9284C139.062 92.9219 137.41 94.6712 137.403 96.8302C137.389 97.6055 137.604 98.3678 138.022 99.0211C138.439 99.6744 139.041 100.189 139.751 100.501C134.077 101.356 134.334 107.521 134.334 107.521L147.753 107.583C147.753 107.583 148.059 101.363 142.434 100.514Z" fill="#B3CAFF"/>
<path d="M82.1109 10.8628C82.6052 10.7657 83.0606 10.5272 83.4219 10.1763C83.7833 9.82538 84.0349 9.37708 84.1464 8.88587C84.2389 8.57064 84.2662 8.23987 84.2267 7.91373C84.1872 7.5876 84.0817 7.27292 83.9166 6.9889C83.7515 6.70488 83.5303 6.45745 83.2664 6.26172C83.0026 6.06599 82.7016 5.92606 82.3819 5.85044C82.0622 5.77483 81.7305 5.76512 81.4069 5.82192C81.0833 5.87871 80.7747 6.00082 80.4999 6.18079C80.225 6.36076 79.9897 6.59483 79.8083 6.86872C79.6269 7.1426 79.5032 7.45057 79.4447 7.77384C79.3196 8.26682 79.3436 8.78585 79.5138 9.26514C79.684 9.74443 79.9926 10.1624 80.4006 10.4661C76.6516 10.1702 75.907 14.1436 75.907 14.1436L84.4585 16.1693C84.4585 16.1693 85.5771 12.2252 82.1109 10.8628Z" fill="#B3CAFF"/>
<path d="M142.801 43.9634C143.211 43.707 143.537 43.3358 143.738 42.896C143.939 42.4561 144.007 41.9669 143.933 41.489C143.908 41.1726 143.819 40.8646 143.671 40.584C143.523 40.3034 143.319 40.0561 143.071 39.8575C142.824 39.6588 142.538 39.513 142.232 39.429C141.926 39.345 141.606 39.3247 141.292 39.3692C140.978 39.4138 140.676 39.5222 140.406 39.6879C140.135 39.8536 139.901 40.0731 139.719 40.3327C139.536 40.5923 139.409 40.8865 139.344 41.1973C139.28 41.508 139.28 41.8286 139.345 42.1393C139.405 42.6232 139.607 43.0784 139.926 43.4471C140.245 43.8159 140.666 44.0816 141.136 44.2106C137.686 45.2543 138.398 49.0651 138.398 49.0651L146.748 47.8978C146.748 47.8978 146.374 43.9862 142.801 43.9634Z" fill="#B3CAFF"/>
<path d="M8.82458 45.1438L4.3147 41.5573L5.56329 39.9836L8.58722 42.3897L13.0028 37.4474L14.5018 38.787L8.82458 45.1438Z" fill="#B3CAFF"/>
</g>
<path d="M145.448 145.324C145.448 145.372 112.884 145.408 72.7272 145.408C32.5707 145.408 0 145.372 0 145.324C0 145.275 32.5544 145.239 72.7272 145.239C112.9 145.239 145.448 145.278 145.448 145.324Z" fill="#263238"/>
<path d="M14.9766 50.3365L5.00416 55.3406C4.64238 55.4982 4.33471 55.7583 4.11916 56.0888C3.90361 56.4194 3.78964 56.8058 3.79134 57.2005V61.8664C3.77989 66.1107 5.01571 70.2647 7.34527 73.8126C9.14337 76.5504 11.5268 80.049 15.4904 82.0487H17.2787C21.6943 80.7026 24.9881 77.1161 27.0008 74.0467C29.3314 70.4991 30.5683 66.3451 30.558 62.1005V57.2005C30.5575 56.8042 30.4408 56.4168 30.2223 56.0862C30.0039 55.7556 29.6932 55.4964 29.3289 55.3406L17.9518 50.499C17.4478 50.2844 15.4969 50.1219 14.9766 50.3365Z" fill="#FF725E"/>
<path opacity="0.3" d="M14.9766 50.3365L5.00416 55.3406C4.64238 55.4982 4.33471 55.7583 4.11916 56.0888C3.90361 56.4194 3.78964 56.8058 3.79134 57.2005V61.8664C3.77989 66.1107 5.01571 70.2647 7.34527 73.8126C9.14337 76.5504 11.5268 80.049 15.4904 82.0487H17.2787C21.6943 80.7026 24.9881 77.1161 27.0008 74.0467C29.3314 70.4991 30.5683 66.3451 30.558 62.1005V57.2005C30.5575 56.8042 30.4408 56.4168 30.2223 56.0862C30.0039 55.7556 29.6932 55.4964 29.3289 55.3406L17.9518 50.499C17.4478 50.2844 15.4969 50.1219 14.9766 50.3365Z" fill="black"/>
<path d="M14.5766 50.499L3.21248 55.3406C2.84816 55.4964 2.53754 55.7556 2.31908 56.0862C2.10062 56.4168 1.98391 56.8042 1.9834 57.2005V61.8664C1.98365 66.1876 3.26555 70.4117 5.66693 74.0042C8.06831 77.5967 11.4813 80.3963 15.474 82.0487C19.8864 80.7026 23.1802 77.1161 25.1961 74.0467C27.5267 70.4991 28.7636 66.3451 28.7533 62.1005V57.2005C28.7531 56.8046 28.6368 56.4174 28.419 56.0869C28.2011 55.7563 27.8912 55.4969 27.5275 55.3406L16.1471 50.499C15.8985 50.3947 15.6315 50.3409 15.3619 50.3409C15.0922 50.3409 14.8252 50.3947 14.5766 50.499Z" fill="#FF6C37"/>
<path opacity="0.3" d="M18.0616 71.6624C21.8973 70.1746 23.8006 65.8591 22.3129 62.0234C20.8251 58.1877 16.5096 56.2844 12.6739 57.7721C8.8382 59.2599 6.93483 63.5754 8.4226 67.4111C9.91037 71.2468 14.2259 73.1502 18.0616 71.6624Z" fill="black"/>
<path d="M15.3666 65.1309C17.0744 65.1309 18.4588 63.7465 18.4588 62.0387C18.4588 60.331 17.0744 58.9465 15.3666 58.9465C13.6588 58.9465 12.2744 60.331 12.2744 62.0387C12.2744 63.7465 13.6588 65.1309 15.3666 65.1309Z" fill="white"/>
<path d="M9.72217 69.5725C10.2195 68.5321 11.0043 67.6559 11.9839 67.0474C12.9634 66.4389 14.0967 66.1237 15.2498 66.1389C16.4321 66.1391 17.5926 66.4581 18.6089 67.0624C19.6251 67.6667 20.4597 68.5338 21.0245 69.5725C21.0245 69.5725 19.2004 72.2713 15.1717 72.1738C14.1277 72.1696 13.0975 71.9341 12.1552 71.4844C11.213 71.0346 10.382 70.3817 9.72217 69.5725Z" fill="white"/>
<path d="M22.8161 64.718C22.8124 64.678 22.8124 64.6377 22.8161 64.5977C22.8161 64.5099 22.8161 64.3929 22.7869 64.2465C22.7869 64.1685 22.7869 64.0807 22.7869 63.9864C22.7869 63.8921 22.7543 63.7881 22.7381 63.6613C22.7042 63.4032 22.652 63.1478 22.582 62.8971C22.4052 62.2027 22.1258 61.5386 21.7529 60.9267C21.2638 60.1147 20.6236 59.4038 19.867 58.8327C18.9529 58.1376 17.888 57.6675 16.7585 57.4606C15.4617 57.2219 14.1247 57.3341 12.8859 57.7857C12.5507 57.9021 12.2246 58.0434 11.9105 58.2084C11.5963 58.3806 11.2943 58.5739 11.0065 58.7872C10.7138 59.0074 10.4348 59.2452 10.1709 59.4993C9.91223 59.7675 9.67112 60.052 9.44904 60.3512C8.99385 60.9677 8.63936 61.6525 8.3988 62.3802C7.8915 63.8885 7.8915 65.5215 8.3988 67.0299C8.63792 67.7581 8.99252 68.4431 9.44904 69.0588C9.6711 69.359 9.91221 69.6447 10.1709 69.914C10.434 70.1679 10.7131 70.4047 11.0065 70.6228C11.571 71.0533 12.1998 71.3924 12.8697 71.6275C14.1085 72.0791 15.4455 72.1914 16.7422 71.9527C17.7721 71.7588 18.7494 71.3495 19.6101 70.7516C20.4708 70.1537 21.1955 69.3807 21.7366 68.4833C22.1054 67.8755 22.3805 67.2156 22.5527 66.5259C22.6225 66.274 22.6746 66.0176 22.7088 65.7585C22.7088 65.6479 22.7478 65.5439 22.7576 65.4333C22.7673 65.3228 22.7576 65.2513 22.7576 65.1732L22.7869 64.8188C22.7835 64.7788 22.7835 64.7385 22.7869 64.6985C22.7904 64.7385 22.7904 64.7788 22.7869 64.8188C22.7869 64.9098 22.7869 65.0269 22.7869 65.1765C22.7869 65.2545 22.7869 65.3423 22.7869 65.4366C22.7869 65.5309 22.7608 65.6382 22.7446 65.7617C22.7186 66.0243 22.6707 66.2843 22.6015 66.5389C22.4365 67.2432 22.1634 67.9178 21.7919 68.5386C20.9083 70.0471 19.5241 71.1983 17.8799 71.7923C16.2357 72.3864 14.4353 72.3856 12.7916 71.7901C12.4569 71.6698 12.131 71.5264 11.8162 71.3609C11.4961 71.1809 11.1896 70.9776 10.8992 70.7529C10.5968 70.5312 10.31 70.2889 10.0408 70.0278C9.78199 69.7575 9.54088 69.4707 9.31898 69.1694C8.85091 68.5398 8.48647 67.8395 8.23947 67.0949C7.99254 66.3264 7.86211 65.5252 7.85254 64.718C7.86158 63.9105 7.99314 63.1091 8.24272 62.3411C8.48726 61.5961 8.85071 60.8956 9.31898 60.2666C9.54759 59.9609 9.79519 59.6699 10.0603 59.3952C10.3285 59.1343 10.6142 58.892 10.9155 58.6701C11.2038 58.4501 11.5069 58.2502 11.8227 58.0719C12.1374 57.9053 12.4634 57.7608 12.7981 57.6394C14.0626 57.1812 15.4264 57.069 16.7487 57.3143C17.7977 57.5159 18.7914 57.9393 19.6634 58.5562C20.5354 59.173 21.2655 59.969 21.8049 60.8909C22.1765 61.5128 22.4496 62.1885 22.6145 62.8939C22.6837 63.1474 22.7316 63.4063 22.7576 63.6678C22.7576 63.7816 22.7934 63.8856 22.7999 63.9929V64.2563C22.7999 64.4059 22.7999 64.5229 22.7999 64.6107C22.8083 64.646 22.8137 64.6819 22.8161 64.718Z" fill="#263238"/>
<path d="M28.7143 60.8357C28.7295 60.9073 28.7371 60.9803 28.7371 61.0535C28.7371 61.2096 28.7371 61.4145 28.7631 61.6713C28.7891 61.9282 28.7891 62.2664 28.7631 62.6468C28.7631 62.8386 28.7631 63.0402 28.7631 63.2581C28.7631 63.4759 28.7631 63.7035 28.7208 63.9409C28.6753 64.4189 28.6428 64.9456 28.542 65.5049C28.4997 65.7845 28.464 66.0739 28.4054 66.3698C28.3469 66.6657 28.2754 66.9681 28.2103 67.2802C27.8977 68.6244 27.4623 69.937 26.9097 71.2016C26.3387 72.4597 25.6564 73.6643 24.871 74.801C24.4938 75.3115 24.1459 75.8058 23.7687 76.2317C23.5867 76.4463 23.4176 76.6642 23.2387 76.856L22.7217 77.4023C22.3966 77.7632 22.0714 78.0526 21.7918 78.3094C21.5578 78.5395 21.3114 78.7566 21.0537 78.9598L20.5725 79.3499C20.5197 79.3973 20.4619 79.4387 20.4001 79.4735C20.4464 79.419 20.4975 79.369 20.553 79.3239L21.0114 78.911C21.2163 78.7354 21.4601 78.5175 21.7268 78.2607C21.9934 78.0038 22.3186 77.7014 22.634 77.3405L23.1412 76.7877C23.3168 76.5959 23.4663 76.378 23.6614 76.1634C24.0289 75.7375 24.3703 75.2432 24.7442 74.7295C25.516 73.5975 26.1883 72.4008 26.7537 71.1528C27.3031 69.8938 27.7384 68.5879 28.0543 67.251L28.2559 66.347C28.3144 66.0544 28.3534 65.765 28.4022 65.4886C28.5062 64.9359 28.5453 64.4124 28.5973 63.9376C28.6265 63.7003 28.646 63.4727 28.6526 63.2581L28.6818 62.65C28.7111 62.2696 28.7046 61.9412 28.7046 61.6746C28.7046 61.4079 28.7046 61.2161 28.7046 61.0568C28.7023 60.9829 28.7055 60.909 28.7143 60.8357Z" fill="#263238"/>
<path d="M107.779 145.324H30.8927C30.389 145.315 29.8918 145.208 29.4297 145.007C28.9677 144.806 28.5497 144.516 28.1997 144.154C27.8497 143.792 27.5745 143.364 27.39 142.895C27.2054 142.426 27.1151 141.926 27.1242 141.422V23.9047C27.1151 23.401 27.2054 22.9004 27.39 22.4316C27.5745 21.9629 27.8497 21.535 28.1997 21.1727C28.5497 20.8103 28.9677 20.5205 29.4297 20.3197C29.8918 20.119 30.389 20.0113 30.8927 20.0029H107.779C108.282 20.0113 108.779 20.119 109.241 20.3198C109.703 20.5206 110.121 20.8104 110.47 21.1729C110.82 21.5353 111.095 21.9631 111.279 22.4319C111.463 22.9007 111.553 23.4012 111.544 23.9047V141.428C111.552 141.931 111.462 142.431 111.277 142.899C111.093 143.367 110.818 143.794 110.468 144.156C110.118 144.518 109.701 144.807 109.24 145.007C108.778 145.208 108.282 145.315 107.779 145.324Z" fill="#263238"/>
<path d="M70.8086 139.624C70.8209 140.334 70.6216 141.031 70.2361 141.627C69.8506 142.224 69.2964 142.692 68.644 142.972C67.9916 143.252 67.2706 143.332 66.5728 143.201C65.875 143.07 65.2319 142.734 64.7255 142.237C64.2191 141.739 63.8722 141.102 63.7291 140.406C63.5861 139.711 63.6532 138.989 63.922 138.331C64.1908 137.674 64.6491 137.112 65.2385 136.716C65.828 136.32 66.5219 136.109 67.2319 136.109C68.1722 136.101 69.0771 136.467 69.7478 137.126C70.4185 137.785 70.8 138.683 70.8086 139.624Z" fill="#455A64"/>
<path d="M77.9847 26.6295H60.7516C60.591 26.627 60.4325 26.5928 60.2852 26.529C60.1378 26.4652 60.0045 26.373 59.8927 26.2577C59.781 26.1423 59.6931 26.0061 59.6341 25.8568C59.575 25.7075 59.5459 25.548 59.5485 25.3874C59.5433 25.0629 59.667 24.7495 59.8925 24.516C60.1181 24.2825 60.427 24.1481 60.7516 24.1421H77.9847C78.3093 24.1481 78.6182 24.2825 78.8438 24.516C79.0693 24.7495 79.193 25.0629 79.1878 25.3874C79.1904 25.548 79.1613 25.7075 79.1022 25.8568C79.0432 26.0061 78.9553 26.1423 78.8436 26.2577C78.7318 26.373 78.5985 26.4652 78.4511 26.529C78.3038 26.5928 78.1453 26.627 77.9847 26.6295Z" fill="#455A64"/>
<path d="M108.809 28.9511H29.7124V133.605H108.809V28.9511Z" fill="white"/>
<path d="M108.809 28.9511H105.434V133.605H108.809V28.9511Z" fill="#F5F5F5"/>
<path d="M107.122 66.5487C106.843 66.5478 106.576 66.4364 106.379 66.2389C106.182 66.0415 106.072 65.774 106.072 65.4952V42.3474C106.072 42.0686 106.182 41.8011 106.379 41.6037C106.576 41.4062 106.843 41.2948 107.122 41.2939C107.401 41.2939 107.669 41.4049 107.867 41.6025C108.064 41.8001 108.175 42.068 108.175 42.3474V65.4952C108.175 65.7746 108.064 66.0425 107.867 66.2401C107.669 66.4377 107.401 66.5487 107.122 66.5487Z" fill="#E0E0E0"/>
<path d="M98.4954 52.7654H40.1758C39.7309 52.7654 39.3041 52.5886 38.9895 52.274C38.6748 51.9593 38.498 51.5326 38.498 51.0876C38.498 50.6426 38.6748 50.2158 38.9895 49.9012C39.3041 49.5866 39.7309 49.4098 40.1758 49.4098H98.4954C98.9404 49.4098 99.3672 49.5866 99.6818 49.9012C99.9965 50.2158 100.173 50.6426 100.173 51.0876C100.173 51.5326 99.9965 51.9593 99.6818 52.274C99.3672 52.5886 98.9404 52.7654 98.4954 52.7654Z" fill="#E0E0E0"/>
<path d="M89.5243 40.5136H52.8372C52.3922 40.5136 51.9655 40.3368 51.6508 40.0222C51.3362 39.7075 51.1594 39.2808 51.1594 38.8358C51.1594 38.3908 51.3362 37.9641 51.6508 37.6494C51.9655 37.3348 52.3922 37.158 52.8372 37.158H89.5243C89.9693 37.158 90.3961 37.3348 90.7107 37.6494C91.0254 37.9641 91.2021 38.3908 91.2021 38.8358C91.2021 39.2808 91.0254 39.7075 90.7107 40.0222C90.3961 40.3368 89.9693 40.5136 89.5243 40.5136Z" fill="#FF6C37"/>
<path d="M90.2138 59.5188H48.4576C48.0126 59.5188 47.5858 59.3421 47.2712 59.0274C46.9565 58.7128 46.7798 58.286 46.7798 57.841C46.7798 57.3961 46.9565 56.9693 47.2712 56.6547C47.5858 56.34 48.0126 56.1632 48.4576 56.1632H90.2138C90.4342 56.1632 90.6523 56.2066 90.8559 56.291C91.0595 56.3753 91.2444 56.4989 91.4002 56.6547C91.556 56.8104 91.6796 56.9954 91.7639 57.199C91.8482 57.4025 91.8916 57.6207 91.8916 57.841C91.8916 58.0614 91.8482 58.2795 91.7639 58.4831C91.6796 58.6867 91.556 58.8716 91.4002 59.0274C91.2444 59.1832 91.0595 59.3068 90.8559 59.3911C90.6523 59.4754 90.4342 59.5188 90.2138 59.5188Z" fill="#E0E0E0"/>
<path d="M71.3614 88.9615H39.233C38.788 88.9615 38.3612 88.7848 38.0466 88.4701C37.7319 88.1555 37.5552 87.7287 37.5552 87.2837C37.5552 87.0634 37.5986 86.8452 37.6829 86.6417C37.7672 86.4381 37.8908 86.2531 38.0466 86.0973C38.2024 85.9415 38.3873 85.818 38.5909 85.7336C38.7945 85.6493 39.0126 85.6059 39.233 85.6059H71.3614C71.5818 85.6059 71.7999 85.6493 72.0035 85.7336C72.2071 85.818 72.392 85.9415 72.5478 86.0973C72.7036 86.2531 72.8272 86.4381 72.9115 86.6417C72.9958 86.8452 73.0392 87.0634 73.0392 87.2837C73.0392 87.7287 72.8625 88.1555 72.5478 88.4701C72.2332 88.7848 71.8064 88.9615 71.3614 88.9615Z" fill="#E0E0E0"/>
<path d="M97.5526 81.9284H39.233C38.788 81.9284 38.3612 81.7517 38.0466 81.437C37.7319 81.1224 37.5552 80.6956 37.5552 80.2506C37.5552 80.0305 37.5986 79.8125 37.683 79.6091C37.7673 79.4057 37.8909 79.2209 38.0468 79.0654C38.2026 78.9099 38.3876 78.7866 38.5912 78.7026C38.7947 78.6187 39.0128 78.5757 39.233 78.5761H97.5526C97.7728 78.5757 97.9909 78.6187 98.1944 78.7026C98.3979 78.7866 98.5829 78.9099 98.7388 79.0654C98.8946 79.2209 99.0182 79.4057 99.1026 79.6091C99.1869 79.8125 99.2304 80.0305 99.2304 80.2506C99.2304 80.471 99.187 80.6891 99.1027 80.8927C99.0183 81.0963 98.8948 81.2812 98.739 81.437C98.5832 81.5928 98.3982 81.7164 98.1946 81.8007C97.9911 81.885 97.7729 81.9284 97.5526 81.9284Z" fill="#E0E0E0"/>
<path d="M97.5526 101.204H46.5067C45.58 101.204 44.8289 101.955 44.8289 102.881C44.8289 103.808 45.58 104.559 46.5067 104.559H97.5526C98.4792 104.559 99.2304 103.808 99.2304 102.881C99.2304 101.955 98.4792 101.204 97.5526 101.204Z" fill="#E0E0E0"/>
<path d="M97.5526 111.722H39.233C38.788 111.722 38.3612 111.546 38.0466 111.231C37.7319 110.916 37.5552 110.489 37.5552 110.044C37.5569 109.601 37.7344 109.176 38.0489 108.862C38.3633 108.549 38.7891 108.373 39.233 108.373H97.5526C97.7729 108.373 97.9911 108.417 98.1946 108.501C98.3982 108.585 98.5832 108.709 98.739 108.865C98.8948 109.02 99.0183 109.205 99.1027 109.409C99.187 109.612 99.2304 109.831 99.2304 110.051C99.2286 110.495 99.0511 110.92 98.7367 111.233C98.4222 111.546 97.9964 111.722 97.5526 111.722Z" fill="#E0E0E0"/>
<path d="M97.5526 119.012H39.233C38.788 119.012 38.3612 118.835 38.0466 118.521C37.7319 118.206 37.5552 117.779 37.5552 117.334C37.5552 116.889 37.7319 116.463 38.0466 116.148C38.3612 115.833 38.788 115.657 39.233 115.657H97.5526C97.7729 115.657 97.9911 115.7 98.1946 115.784C98.3982 115.869 98.5832 115.992 98.739 116.148C98.8948 116.304 99.0183 116.489 99.1027 116.692C99.187 116.896 99.2304 117.114 99.2304 117.334C99.2304 117.779 99.0536 118.206 98.739 118.521C98.4243 118.835 97.9976 119.012 97.5526 119.012Z" fill="#E0E0E0"/>
<path d="M41.857 102.881C41.857 103.226 41.7547 103.563 41.563 103.85C41.3714 104.137 41.099 104.36 40.7804 104.492C40.4617 104.624 40.1111 104.658 39.773 104.59C39.4348 104.523 39.1243 104.357 38.8807 104.113C38.637 103.868 38.4713 103.558 38.4044 103.219C38.3376 102.881 38.3725 102.531 38.5049 102.212C38.6373 101.894 38.8612 101.622 39.1483 101.431C39.4353 101.24 39.7726 101.138 40.1174 101.139C40.5791 101.139 41.0215 101.323 41.3477 101.65C41.6738 101.977 41.857 102.42 41.857 102.881Z" fill="#FF6C37"/>
<path d="M97.5524 75.3766H46.5032C46.0583 75.3766 45.6315 75.1998 45.3169 74.8852C45.0022 74.5705 44.8254 74.1438 44.8254 73.6988C44.8254 73.2538 45.0022 72.8271 45.3169 72.5124C45.6315 72.1978 46.0583 72.021 46.5032 72.021H97.5524C97.7727 72.021 97.9909 72.0644 98.1945 72.1487C98.398 72.233 98.583 72.3566 98.7388 72.5124C98.8946 72.6682 99.0182 72.8532 99.1025 73.0567C99.1868 73.2603 99.2302 73.4785 99.2302 73.6988C99.2302 73.9191 99.1868 74.1373 99.1025 74.3409C99.0182 74.5444 98.8946 74.7294 98.7388 74.8852C98.583 75.041 98.398 75.1646 98.1945 75.2489C97.9909 75.3332 97.7727 75.3766 97.5524 75.3766Z" fill="#E0E0E0"/>
<path d="M40.1142 75.4416C41.0767 75.4416 41.857 74.6613 41.857 73.6988C41.857 72.7363 41.0767 71.956 40.1142 71.956C39.1516 71.956 38.3713 72.7363 38.3713 73.6988C38.3713 74.6613 39.1516 75.4416 40.1142 75.4416Z" fill="#FF6C37"/>
<path d="M95.9235 129.681H82.8361C82.1272 129.681 81.4474 129.399 80.9462 128.898C80.4449 128.396 80.1633 127.717 80.1633 127.008C80.1633 126.299 80.4449 125.619 80.9462 125.118C81.4474 124.617 82.1272 124.335 82.8361 124.335H95.9235C96.6324 124.335 97.3122 124.617 97.8135 125.118C98.3147 125.619 98.5963 126.299 98.5963 127.008C98.5963 127.717 98.3147 128.396 97.8135 128.898C97.3122 129.399 96.6324 129.681 95.9235 129.681Z" fill="#FF6C37"/>
<path d="M28.5033 3.55982L14.9378 10.3653C14.4414 10.5763 14.018 10.9287 13.7203 11.3784C13.4226 11.8282 13.2637 12.3556 13.2633 12.895V19.242C13.2473 25.0184 14.9298 30.672 18.1016 35.4997C20.5467 39.2129 23.7853 43.9732 29.1796 46.6915H31.6117C37.6141 44.8609 42.0947 39.9803 44.8357 35.8086C48.0076 30.9809 49.6901 25.3273 49.674 19.5509V12.895C49.6748 12.3571 49.5178 11.8307 49.2224 11.3811C48.9271 10.9315 48.5065 10.5783 48.0125 10.3653L32.5482 3.77117C31.8589 3.48829 29.1926 3.26718 28.5033 3.55982Z" fill="#FF725E"/>
<path opacity="0.3" d="M28.5033 3.55982L14.9378 10.3653C14.4414 10.5763 14.018 10.9287 13.7203 11.3784C13.4226 11.8282 13.2637 12.3556 13.2633 12.895V19.242C13.2473 25.0184 14.9298 30.672 18.1016 35.4997C20.5467 39.2129 23.7853 43.9732 29.1796 46.6915H31.6117C37.6141 44.8609 42.0947 39.9803 44.8357 35.8086C48.0076 30.9809 49.6901 25.3273 49.674 19.5509V12.895C49.6748 12.3571 49.5178 11.8307 49.2224 11.3811C48.9271 10.9315 48.5065 10.5783 48.0125 10.3653L32.5482 3.77117C31.8589 3.48829 29.1926 3.26718 28.5033 3.55982Z" fill="black"/>
<path d="M27.9569 3.77116L12.5023 10.3653C12.0063 10.5765 11.5834 10.9289 11.2862 11.3787C10.989 11.8285 10.8307 12.3559 10.8311 12.895V19.242C10.8318 25.1191 12.5755 30.8639 15.8415 35.7499C19.1076 40.636 23.7492 44.4437 29.1795 46.6915C35.1818 44.8609 39.6625 39.9803 42.4002 35.8086C45.5735 30.9816 47.2561 25.3275 47.2385 19.5509V12.895C47.2389 12.3559 47.0806 11.8285 46.7834 11.3787C46.4862 10.9289 46.0633 10.5765 45.5672 10.3653L30.1289 3.77116C29.7858 3.6241 29.4163 3.54828 29.0429 3.54828C28.6696 3.54828 28.3001 3.6241 27.9569 3.77116Z" fill="#FF6C37"/>
<path d="M47.1897 17.8406C47.1937 17.8653 47.1937 17.8906 47.1897 17.9154C47.1897 17.9739 47.1897 18.0454 47.1897 18.1332C47.1897 18.3413 47.2059 18.6209 47.2189 18.9754C47.2319 19.3298 47.2515 19.785 47.2189 20.3052C47.2189 20.5654 47.2189 20.8417 47.1929 21.1344C47.1929 21.284 47.1929 21.4335 47.1929 21.5896C47.1929 21.7457 47.1637 21.9148 47.1474 22.0676C47.0824 22.7179 47.0401 23.4332 46.9035 24.1908C46.8418 24.568 46.793 24.9647 46.715 25.3646C46.6369 25.7646 46.5394 26.1775 46.4483 26.6002C46.0189 28.4279 45.4213 30.2119 44.6632 31.9295C43.8886 33.6393 42.9637 35.2769 41.8994 36.8231C41.3857 37.5189 40.924 38.192 40.4037 38.774C40.1533 39.0666 39.9257 39.3625 39.6819 39.6226L38.9795 40.3705C38.5438 40.8582 38.0951 41.2452 37.7212 41.6061C37.5294 41.7817 37.357 41.9507 37.1912 42.0971L36.736 42.4645L36.0857 42.9977L35.9133 43.1343C35.8743 43.1636 35.8516 43.1766 35.8516 43.1733C35.8516 43.1701 35.8516 43.1538 35.9003 43.118L36.0629 42.9717L36.6905 42.4157L37.1489 42.0158C37.3148 41.8694 37.4741 41.6906 37.6692 41.515C38.0366 41.1509 38.4756 40.7607 38.9048 40.2697L39.5973 39.5153C39.8379 39.2552 40.0623 38.9593 40.3062 38.6667C40.8102 38.0879 41.2816 37.4148 41.7824 36.7158C42.8362 35.1729 43.7534 33.5409 44.5234 31.8385C45.2749 30.1295 45.8723 28.3569 46.3085 26.5417C46.4028 26.1222 46.4906 25.7126 46.5816 25.3159C46.6727 24.9192 46.7117 24.5225 46.7767 24.1453C46.9198 23.391 46.9686 22.6789 47.0401 22.0318C47.0596 21.8725 47.0759 21.7067 47.0921 21.5603C47.1084 21.414 47.0921 21.2547 47.1116 21.1084C47.1246 20.8157 47.1377 20.5394 47.1507 20.2792C47.1864 19.7622 47.1767 19.3038 47.1767 18.9526V18.1365V17.9154C47.1761 17.8898 47.1805 17.8644 47.1897 17.8406Z" fill="#263238"/>
<path d="M35.1559 26.3694H33.5073V17.3984C33.4783 16.4022 33.0622 15.4567 32.3473 14.7623C31.6325 14.068 30.6752 13.6796 29.6786 13.6796C28.6821 13.6796 27.7248 14.068 27.0099 14.7623C26.2951 15.4567 25.879 16.4022 25.8499 17.3984V26.3694H24.2014V17.3984C24.2362 15.9688 24.8286 14.6095 25.852 13.6108C26.8754 12.612 28.2487 12.053 29.6786 12.053C31.1086 12.053 32.4819 12.612 33.5053 13.6108C34.5287 14.6095 35.121 15.9688 35.1559 17.3984V26.3694Z" fill="#F5F5F5"/>
<path d="M35.1687 20.2825H24.185C23.1417 20.2825 22.2959 21.1283 22.2959 22.1716V29.9623C22.2959 31.0057 23.1417 31.8515 24.185 31.8515H35.1687C36.2121 31.8515 37.0579 31.0057 37.0579 29.9623V22.1716C37.0579 21.1283 36.2121 20.2825 35.1687 20.2825Z" fill="white"/>
<path d="M35.1722 31.8515C35.3375 31.834 35.5015 31.8057 35.6631 31.7669C36.0571 31.6532 36.4029 31.4137 36.6477 31.0848C36.8926 30.756 37.023 30.356 37.019 29.946C37.019 29.5656 37.019 29.1527 37.019 28.7072C37.019 27.8195 37.019 26.8083 37.019 25.6898C37.019 24.5713 37.019 23.3519 37.019 22.0383C36.9946 21.7109 36.8819 21.3962 36.693 21.1277C36.5041 20.8592 36.2459 20.6469 35.946 20.5133C35.6262 20.3816 35.2795 20.3281 34.9348 20.3573H33.8423L24.1885 20.354C23.7827 20.3539 23.3887 20.4905 23.0701 20.7418C22.7515 20.9931 22.5269 21.3445 22.4326 21.7392C22.3904 21.9356 22.373 22.1366 22.3806 22.3374V24.1681C22.3806 25.7938 22.3806 27.3286 22.3806 28.808C22.4099 29.5429 22.257 30.3005 22.6342 30.8792C22.8012 31.1635 23.042 31.3974 23.3311 31.5559C23.6202 31.7145 23.9468 31.7919 24.2762 31.7799H27.9342L33.231 31.8092H34.6682H35.0421C35.0854 31.8051 35.1289 31.8051 35.1722 31.8092C35.1289 31.814 35.0853 31.814 35.0421 31.8092H34.6682H33.231L27.9342 31.8352H24.2762C24.0076 31.8472 23.7393 31.8041 23.488 31.7084C23.2367 31.6127 23.0076 31.4664 22.815 31.2787C22.6224 31.091 22.4704 30.8658 22.3683 30.617C22.2661 30.3682 22.2161 30.1011 22.2213 29.8322V28.808C22.2213 27.3286 22.2213 25.7776 22.2213 24.1681V22.3505C22.2115 22.1322 22.2301 21.9136 22.2766 21.7001C22.3822 21.274 22.6285 20.896 22.9756 20.6271C23.3256 20.3503 23.7585 20.1991 24.2047 20.1979H33.8228H34.9153C35.2818 20.1699 35.6498 20.2302 35.9883 20.3735C36.3117 20.5179 36.5898 20.7477 36.7925 21.0381C36.9953 21.3285 37.1152 21.6687 37.1393 22.022C37.1393 23.3487 37.1393 24.5648 37.1393 25.6833C37.1393 26.8018 37.1393 27.813 37.1393 28.7007C37.1393 29.1462 37.1393 29.5591 37.1393 29.9395C37.1397 30.2956 37.0406 30.6447 36.8532 30.9475C36.5983 31.368 36.1884 31.6716 35.7119 31.7929C35.5372 31.8459 35.3541 31.8658 35.1722 31.8515Z" fill="#263238"/>
<path d="M30.8119 26.3661C30.9607 26.2177 31.0787 26.0413 31.159 25.8471C31.2394 25.6529 31.2805 25.4447 31.2801 25.2346C31.282 24.9316 31.1992 24.6342 31.0411 24.3758C30.883 24.1174 30.6558 23.9083 30.3852 23.7721C30.1147 23.6359 29.8114 23.5781 29.5097 23.605C29.2079 23.632 28.9197 23.7427 28.6776 23.9247C28.4354 24.1067 28.2489 24.3528 28.1391 24.6351C28.0293 24.9174 28.0006 25.2248 28.0562 25.5226C28.1117 25.8204 28.2494 26.0967 28.4537 26.3205C28.6579 26.5442 28.9206 26.7064 29.2121 26.7888L28.8642 28.33H30.4087L30.0835 26.7888C30.3534 26.7117 30.5987 26.5661 30.7956 26.3661" fill="#FF725E"/>
<path d="M131.519 37.9676V51.1428C131.548 53.4189 131.883 56.9956 128.267 56.8785C125.149 56.5534 124.32 53.5847 124.297 51.4582C124.297 50.4503 124.274 49.6081 124.264 49.5073C124.264 49.5073 120.85 49.2277 120.561 45.8526C120.421 44.2268 120.408 40.842 120.431 37.7823C120.445 36.1976 121.054 34.6762 122.139 33.5207C123.223 32.3651 124.703 31.6601 126.284 31.5458L126.609 31.523C130.143 31.471 131.577 34.4397 131.519 37.9676Z" fill="#FFBF9D"/>
<path d="M124.274 49.5073C125.834 49.3875 127.327 48.8233 128.576 47.8815C128.576 47.8815 127.685 50.4275 124.294 50.369L124.274 49.5073Z" fill="#FF9A6C"/>
<path d="M126.209 39.1674C126.277 39.2357 126.667 38.9203 127.23 38.9073C127.792 38.8943 128.205 39.1674 128.277 39.0959C128.348 39.0243 128.238 38.9365 128.052 38.8097C127.805 38.6435 127.511 38.5593 127.214 38.5691C126.918 38.5784 126.633 38.6821 126.401 38.865C126.232 39.0081 126.176 39.1349 126.209 39.1674Z" fill="#263238"/>
<path d="M126.199 40.7639C126.206 40.8835 126.259 40.9957 126.348 41.076C126.437 41.1564 126.554 41.1984 126.674 41.1931C126.732 41.1936 126.79 41.1823 126.844 41.16C126.898 41.1377 126.946 41.1048 126.987 41.0632C127.028 41.0217 127.061 40.9724 127.082 40.9182C127.104 40.8639 127.114 40.806 127.113 40.7477C127.105 40.6289 127.052 40.5178 126.964 40.4377C126.876 40.3576 126.76 40.3148 126.641 40.3184C126.583 40.3184 126.525 40.33 126.471 40.3524C126.417 40.3748 126.368 40.4077 126.327 40.4491C126.286 40.4905 126.254 40.5397 126.232 40.5937C126.21 40.6477 126.199 40.7056 126.199 40.7639Z" fill="#263238"/>
<path d="M124.794 43.1148C124.514 43.0495 124.227 43.019 123.939 43.0237C123.806 43.0237 123.679 43.001 123.65 42.9132C123.628 42.777 123.649 42.6375 123.708 42.5132C123.812 42.1881 123.916 41.8402 124.034 41.476C124.473 39.9998 124.781 38.7902 124.723 38.774C124.664 38.7577 124.258 39.938 123.819 41.4142C123.715 41.7784 123.614 42.1263 123.517 42.458C123.446 42.6237 123.436 42.8089 123.487 42.9815C123.509 43.0272 123.541 43.0672 123.582 43.0983C123.622 43.1293 123.668 43.1506 123.718 43.1603C123.794 43.1692 123.87 43.1692 123.946 43.1603C124.229 43.1789 124.514 43.1636 124.794 43.1148Z" fill="#263238"/>
<path d="M126.449 36.7613C126.505 36.8881 126.956 36.7938 127.499 36.8198C128.042 36.8458 128.475 36.9661 128.55 36.8458C128.576 36.7905 128.491 36.6735 128.309 36.5629C128.066 36.4268 127.795 36.3499 127.517 36.3386C127.239 36.3273 126.962 36.3819 126.709 36.4979C126.518 36.5922 126.426 36.7027 126.449 36.7613Z" fill="#263238"/>
<path d="M121.081 37.6067C121.143 37.7107 121.582 37.6067 122.118 37.5807C122.655 37.5546 123.094 37.6327 123.152 37.5254C123.175 37.4734 123.087 37.3823 122.902 37.301C122.651 37.2009 122.382 37.1565 122.112 37.171C121.839 37.1785 121.57 37.245 121.325 37.3661C121.143 37.4604 121.055 37.5579 121.081 37.6067Z" fill="#263238"/>
<path d="M115.97 34.7551C115.989 34.6865 116.021 34.6224 116.065 34.5665C116.109 34.5107 116.164 34.4642 116.227 34.4299C116.496 34.3072 116.794 34.2589 117.088 34.2901C117.989 34.2735 118.867 34.0066 119.624 33.5195C119.978 33.0112 120.373 32.5327 120.805 32.0888C121.829 31.0353 122.668 30.3167 123.539 29.9655C124.664 29.5136 126.547 29.3152 127.721 29.6404C128.895 29.9655 129.948 30.902 130.114 32.1018C130.764 31.5458 131.759 31.5523 132.562 31.8742H132.582C133.473 32.1994 133.98 33.1358 134.243 34.0462C134.507 34.9567 134.621 35.9321 135.102 36.7483C135.203 36.9173 135.323 37.1222 135.235 37.301C135.194 37.3658 135.135 37.4166 135.065 37.4468C134.994 37.477 134.917 37.4851 134.842 37.4701C134.691 37.4378 134.549 37.3735 134.425 37.2815C134.526 37.5221 134.624 37.7595 134.725 37.9968C134.399 38.0535 134.065 38.0323 133.749 37.9351C133.585 38.7467 133.374 39.548 133.115 40.3347C132.782 40.2955 132.446 40.3774 132.169 40.5656C131.844 40.8484 131.717 41.3784 131.193 41.1768C130.93 41.0728 130.689 40.5265 130.598 40.2502C130.01 38.4494 129.816 36.5431 130.029 34.6608C129.659 34.2669 129.218 33.9469 128.729 33.7178L128.768 33.7536C127.825 33.4284 126.758 33.1033 125.864 33.5455C125.172 33.8902 124.765 34.6087 124.238 35.1713C123.762 35.706 123.181 36.1382 122.532 36.4417C121.883 36.7452 121.179 36.9137 120.463 36.9368C120.415 37.8863 120.493 39.2292 120.444 40.1884L119.644 38.6667C119.581 38.5612 119.524 38.4527 119.472 38.3415V38.309C119.392 38.1233 119.301 37.942 119.202 37.766C119.091 37.855 118.952 37.9014 118.81 37.8969C118.668 37.8924 118.532 37.8372 118.428 37.7414C118.323 37.6456 118.256 37.5154 118.238 37.3744C118.221 37.2334 118.255 37.0909 118.334 36.9726C118.414 36.8622 118.51 36.7646 118.62 36.6832C118.504 36.7962 118.36 36.877 118.203 36.9175C118.046 36.958 117.882 36.9568 117.726 36.9141C117.571 36.8669 117.436 36.77 117.342 36.6383C117.248 36.5066 117.2 36.3475 117.205 36.1857C117.219 36.077 117.26 35.9736 117.326 35.8858C117.391 35.798 117.479 35.7288 117.579 35.685C117.161 35.7186 116.741 35.6257 116.376 35.4184C116.116 35.2786 115.882 35.0542 115.97 34.7551Z" fill="#263238"/>
<path d="M129.044 32.4952C129.162 32.594 129.27 32.7028 129.369 32.8204C129.636 33.1416 129.814 33.5273 129.886 33.9389C129.945 34.2212 129.975 34.5089 129.974 34.7973C129.974 35.1225 129.951 35.4476 129.925 35.7923C129.894 36.16 129.887 36.5292 129.902 36.8978C129.911 37.0946 129.936 37.2903 129.977 37.4831C130.007 37.6886 130.089 37.8832 130.215 38.0489C130.274 38.1145 130.349 38.1637 130.432 38.1916C130.516 38.2195 130.606 38.2252 130.692 38.2082C130.857 38.178 131.007 38.0933 131.118 37.9676C131.302 37.716 131.415 37.4194 131.444 37.1092H131.375C131.476 37.3645 131.614 37.6034 131.785 37.818C131.949 38.0153 132.181 38.1432 132.435 38.1757C132.555 38.1876 132.675 38.1662 132.783 38.1139C132.884 38.0613 132.967 37.9798 133.021 37.8798C133.069 37.7877 133.094 37.6848 133.092 37.5806C133.087 37.4836 133.048 37.3915 132.982 37.3205L132.946 37.353C133.147 37.5827 133.394 37.7677 133.671 37.896C133.768 37.9394 133.843 37.9687 133.895 37.9838L133.977 38.0033L133.902 37.9708C133.85 37.9481 133.775 37.9188 133.684 37.8733C133.416 37.7373 133.177 37.5494 132.982 37.3205L132.946 37.353C133.001 37.4238 133.033 37.51 133.037 37.5998C133.041 37.6895 133.017 37.7783 132.969 37.8538C132.921 37.9419 132.847 38.0134 132.757 38.0586C132.656 38.1073 132.543 38.1253 132.432 38.1106C132.195 38.0834 131.976 37.9672 131.821 37.7855C131.657 37.5745 131.525 37.3413 131.427 37.0929L131.379 36.9856L131.356 37.1027C131.321 37.3996 131.209 37.6821 131.031 37.9221C130.929 38.0324 130.794 38.1076 130.647 38.1367C130.573 38.1516 130.497 38.1471 130.426 38.1238C130.355 38.1004 130.291 38.0589 130.241 38.0033C130.124 37.8484 130.048 37.6658 130.023 37.4733C129.983 37.2848 129.956 37.0935 129.945 36.9011C129.929 36.5346 129.937 36.1676 129.967 35.8021C129.987 35.4509 130.01 35.1192 130.006 34.8038C130.004 34.5118 129.972 34.2208 129.909 33.9357C129.83 33.5163 129.64 33.1257 129.359 32.8041C129.273 32.684 129.166 32.5795 129.044 32.4952Z" fill="#455A64"/>
<path d="M118.603 35.776L118.633 35.7988C118.659 35.8214 118.687 35.8421 118.717 35.8606C118.761 35.8968 118.809 35.9284 118.86 35.9549C118.927 35.994 118.995 36.0299 119.065 36.0622C119.517 36.2672 120.013 36.3566 120.509 36.3223C121.246 36.2726 121.953 36.0106 122.544 35.5679C123.26 35.0235 123.855 34.3372 124.293 33.552C124.541 33.1455 124.739 32.7261 124.944 32.3392C125.154 31.9614 125.417 31.6154 125.724 31.3117C125.995 31.0359 126.33 30.8324 126.7 30.7199C126.867 30.6736 127.04 30.6538 127.213 30.6614C127.371 30.6733 127.526 30.7061 127.675 30.7589C127.938 30.8481 128.178 30.9922 128.381 31.1816C128.534 31.3245 128.662 31.4915 128.761 31.6759C128.84 31.837 128.898 32.0074 128.933 32.1831C128.933 32.1831 128.933 32.1831 128.933 32.1473C128.933 32.1116 128.933 32.0855 128.917 32.0433C128.89 31.9115 128.846 31.7836 128.787 31.6628C128.559 31.2155 128.168 30.8731 127.695 30.7069C127.538 30.6524 127.375 30.6186 127.21 30.6061C127.03 30.5985 126.851 30.6183 126.677 30.6646C126.296 30.7769 125.951 30.9839 125.672 31.2662C125.365 31.5732 125.106 31.9238 124.902 32.3067C124.677 32.6968 124.476 33.113 124.235 33.5195C123.8 34.2944 123.212 34.9734 122.508 35.5159C121.929 35.9547 121.236 36.2177 120.512 36.2735C120.024 36.312 119.534 36.2317 119.084 36.0394C118.919 35.9617 118.758 35.8738 118.603 35.776Z" fill="#455A64"/>
<path d="M118.298 34.2933C118.298 34.2933 118.337 34.3291 118.418 34.3779C118.533 34.4473 118.652 34.5082 118.776 34.56C118.96 34.6381 119.15 34.7002 119.345 34.7453C119.583 34.8013 119.826 34.834 120.07 34.8428C120.315 34.8489 120.56 34.8326 120.802 34.7941C120.997 34.7611 121.19 34.711 121.377 34.6445C121.505 34.6009 121.628 34.5477 121.748 34.4852C121.793 34.465 121.835 34.4399 121.875 34.4104C121.875 34.4104 121.683 34.4917 121.361 34.5925C121.173 34.6484 120.982 34.6918 120.789 34.7225C120.552 34.7555 120.312 34.7696 120.073 34.7648C119.834 34.7542 119.596 34.7249 119.361 34.677C119.17 34.6349 118.982 34.5784 118.799 34.5079C118.486 34.3876 118.304 34.2803 118.298 34.2933Z" fill="#455A64"/>
<path d="M121.058 39.1674C121.123 39.2357 121.513 38.9203 122.079 38.9073C122.645 38.8943 123.055 39.1674 123.126 39.0959C123.198 39.0243 123.084 38.9365 122.902 38.8097C122.653 38.6437 122.359 38.5595 122.06 38.5691C121.765 38.5782 121.481 38.682 121.25 38.865C121.078 39.0081 121.022 39.1349 121.058 39.1674Z" fill="#263238"/>
<path d="M121.634 40.7639C121.641 40.8827 121.695 40.9938 121.783 41.0739C121.871 41.154 121.986 41.1967 122.105 41.1931C122.164 41.1936 122.222 41.1823 122.276 41.16C122.33 41.1378 122.379 41.1049 122.42 41.0634C122.461 41.0219 122.494 40.9726 122.516 40.9184C122.538 40.8642 122.548 40.8061 122.548 40.7477C122.539 40.6286 122.485 40.5175 122.397 40.4375C122.308 40.3575 122.192 40.3148 122.073 40.3185C122.015 40.3184 121.957 40.33 121.903 40.3525C121.85 40.3749 121.801 40.4079 121.76 40.4493C121.719 40.4908 121.687 40.5399 121.665 40.5939C121.644 40.6479 121.633 40.7057 121.634 40.7639Z" fill="#263238"/>
<path d="M131.431 40.4875C131.486 40.4583 133.707 39.6324 133.795 41.9442C133.882 44.2561 131.548 43.8724 131.541 43.8074C131.535 43.7423 131.431 40.4875 131.431 40.4875Z" fill="#FFBF9D"/>
<path d="M132.227 42.9034C132.227 42.9034 132.27 42.9294 132.338 42.9587C132.435 42.9963 132.543 42.9963 132.64 42.9587C132.786 42.8578 132.902 42.7199 132.976 42.5593C133.05 42.3987 133.08 42.2211 133.063 42.045C133.063 41.8466 133.017 41.6508 132.93 41.4727C132.904 41.4003 132.861 41.3353 132.805 41.2836C132.748 41.232 132.679 41.1953 132.605 41.1769C132.558 41.1677 132.51 41.1746 132.468 41.1964C132.426 41.2183 132.393 41.2538 132.374 41.2972C132.344 41.3622 132.374 41.4077 132.348 41.4142C132.322 41.4207 132.299 41.3784 132.312 41.2809C132.324 41.2235 132.354 41.1712 132.397 41.1313C132.459 41.0822 132.538 41.0579 132.618 41.0631C132.713 41.0785 132.803 41.1179 132.879 41.1776C132.956 41.2373 133.016 41.3153 133.053 41.4045C133.162 41.6039 133.219 41.8275 133.219 42.0548C133.219 42.5197 133.005 42.9652 132.673 43.0758C132.612 43.0963 132.547 43.1029 132.482 43.0951C132.418 43.0872 132.357 43.065 132.302 43.0302C132.227 42.9587 132.205 42.9067 132.227 42.9034Z" fill="#FF9A6C"/>
<path d="M126.44 43.5765C126.459 43.5765 126.459 43.713 126.381 43.9016C126.268 44.1554 126.082 44.3702 125.848 44.5194C125.62 44.6731 125.349 44.7505 125.074 44.7405C124.863 44.721 124.749 44.6495 124.749 44.6332C124.749 44.617 124.879 44.6332 125.074 44.6332C125.322 44.6149 125.561 44.5344 125.77 44.3991C125.98 44.264 126.157 44.0828 126.287 43.8691C126.375 43.6903 126.414 43.57 126.44 43.5765Z" fill="#263238"/>
<path d="M138.08 135L138.77 142.804L141.215 148.839C141.255 148.944 141.272 149.056 141.265 149.168C141.259 149.281 141.228 149.39 141.176 149.49C141.124 149.59 141.051 149.677 140.962 149.746C140.874 149.816 140.771 149.865 140.662 149.892C140.533 149.931 140.396 149.939 140.263 149.916C140.13 149.894 140.004 149.841 139.895 149.762C138.5 148.748 133.47 145.015 133.414 144.53C133.343 143.899 132.058 136.216 132.058 136.216L138.08 135Z" fill="#455A64"/>
<path d="M140.681 149.902L133.294 143.649L133.369 144.228C133.418 144.553 133.424 144.716 133.645 144.914C135.608 146.692 137.671 148.358 139.823 149.902C139.955 149.964 140.1 149.996 140.246 149.996C140.392 149.996 140.536 149.964 140.668 149.902H140.681Z" fill="#263238"/>
<path d="M134.731 141.21C134.839 141.266 134.922 141.362 134.962 141.476C135.002 141.591 134.996 141.717 134.946 141.828C134.881 141.935 134.779 142.015 134.659 142.053C134.539 142.091 134.41 142.084 134.295 142.033C134.183 141.973 134.097 141.873 134.056 141.752C134.015 141.631 134.021 141.499 134.074 141.383C134.153 141.277 134.268 141.205 134.397 141.179C134.526 141.153 134.66 141.176 134.773 141.243" fill="white"/>
<path d="M138.386 146.683C138.435 146.702 138.574 146.273 139.036 146.006C139.329 145.863 139.645 145.772 139.969 145.737C139.969 145.717 139.862 145.668 139.667 145.662C139.409 145.66 139.156 145.728 138.935 145.86C138.72 145.985 138.546 146.17 138.435 146.393C138.363 146.563 138.363 146.68 138.386 146.683Z" fill="#263238"/>
<path d="M139.095 147.668C139.137 147.701 139.374 147.418 139.79 147.262C140.053 147.186 140.32 147.126 140.59 147.083C140.453 147.02 140.304 146.989 140.154 146.993C140.004 146.996 139.856 147.034 139.722 147.102C139.247 147.284 139.055 147.652 139.095 147.668Z" fill="#263238"/>
<path d="M137.134 145.457C137.46 145.199 137.804 144.965 138.165 144.758C138.555 144.598 138.956 144.467 139.365 144.364C138.922 144.298 138.469 144.383 138.08 144.605C137.41 144.927 137.105 145.437 137.134 145.457Z" fill="#263238"/>
<path d="M136.714 143.096C136.74 143.142 137.179 142.914 137.771 142.836C138.363 142.758 138.854 142.836 138.867 142.794C138.518 142.627 138.123 142.581 137.745 142.664C137.362 142.687 136.999 142.839 136.714 143.096Z" fill="#263238"/>
<path d="M136.454 140.807C136.796 140.636 137.169 140.534 137.551 140.508C137.933 140.482 138.316 140.533 138.678 140.658C138.678 140.638 138.591 140.55 138.386 140.466C138.116 140.36 137.826 140.316 137.537 140.336C137.249 140.352 136.968 140.436 136.718 140.58C136.523 140.69 136.435 140.791 136.454 140.807Z" fill="#263238"/>
<path d="M137.479 140.072C137.479 140.072 137.498 139.965 137.459 139.777C137.402 139.508 137.291 139.254 137.134 139.029C137.027 138.851 136.865 138.713 136.672 138.635C136.605 138.615 136.534 138.615 136.467 138.635C136.4 138.654 136.34 138.693 136.295 138.746C136.256 138.798 136.228 138.857 136.213 138.92C136.197 138.983 136.194 139.049 136.204 139.113C136.26 139.381 136.408 139.621 136.621 139.792C136.835 139.964 137.101 140.056 137.375 140.053C137.648 140.057 137.916 139.982 138.148 139.836C138.379 139.689 138.562 139.479 138.675 139.23C138.701 139.17 138.713 139.104 138.709 139.038C138.706 138.972 138.687 138.908 138.656 138.85C138.614 138.793 138.556 138.751 138.491 138.727C138.425 138.703 138.353 138.7 138.285 138.717C138.088 138.78 137.91 138.892 137.768 139.042C137.566 139.228 137.397 139.448 137.27 139.692C137.218 139.778 137.185 139.875 137.173 139.975C137.359 139.658 137.59 139.37 137.859 139.12C137.987 138.994 138.143 138.9 138.314 138.847C138.351 138.836 138.39 138.838 138.426 138.85C138.462 138.863 138.494 138.887 138.516 138.918C138.534 138.957 138.543 139 138.543 139.043C138.543 139.086 138.534 139.129 138.516 139.168C138.412 139.379 138.252 139.557 138.052 139.681C137.853 139.805 137.622 139.871 137.388 139.871C137.156 139.872 136.93 139.795 136.747 139.652C136.564 139.509 136.435 139.309 136.38 139.084C136.364 138.995 136.382 138.903 136.432 138.827C136.456 138.797 136.489 138.775 136.526 138.764C136.563 138.753 136.603 138.753 136.64 138.765C136.803 138.831 136.942 138.944 137.04 139.09C137.245 139.388 137.394 139.721 137.479 140.072Z" fill="#263238"/>
<path d="M118.395 135.403L118.701 142.02C118.701 142.02 111.648 144.537 111.58 145.766L125.253 145.665L125.224 135.335L118.395 135.403Z" fill="#455A64"/>
<path d="M122.925 141.432C123.053 141.463 123.165 141.543 123.238 141.654C123.31 141.765 123.338 141.899 123.315 142.03C123.276 142.158 123.19 142.267 123.074 142.335C122.959 142.403 122.822 142.425 122.691 142.397C122.555 142.364 122.437 142.28 122.361 142.163C122.285 142.046 122.256 141.904 122.281 141.766C122.335 141.635 122.436 141.528 122.565 141.468C122.694 141.407 122.841 141.398 122.977 141.441" fill="#E0E0E0"/>
<path d="M125.253 145.665L125.207 144.625L112.113 145.109C112.113 145.109 111.509 145.363 111.58 145.759L125.253 145.665Z" fill="#263238"/>
<path d="M118.48 141.962C118.48 142.023 118.805 142.049 119.13 142.248C119.455 142.446 119.637 142.709 119.699 142.683C119.761 142.657 119.657 142.296 119.254 142.062C118.85 141.828 118.463 141.9 118.48 141.962Z" fill="#263238"/>
<path d="M117.049 142.524C117.049 142.586 117.325 142.69 117.553 142.953C117.781 143.217 117.852 143.5 117.917 143.496C117.982 143.493 118.025 143.135 117.732 142.813C117.439 142.492 117.052 142.466 117.049 142.524Z" fill="#263238"/>
<path d="M116.249 144.143C116.311 144.143 116.399 143.844 116.226 143.493C116.054 143.142 115.739 143.018 115.709 143.07C115.68 143.122 115.879 143.304 116.015 143.587C116.152 143.87 116.184 144.14 116.249 144.143Z" fill="#263238"/>
<path d="M118.587 140.44C118.616 140.498 118.912 140.411 119.299 140.44C119.686 140.469 119.972 140.57 120.005 140.518C120.037 140.466 119.758 140.242 119.312 140.222C118.867 140.202 118.571 140.391 118.587 140.44Z" fill="#263238"/>
<path d="M116.015 87.882C116.015 88.2624 117.602 141.158 117.602 141.158H126.056L127.769 95.91C127.769 95.91 129.769 119.568 129.769 120.079C129.769 120.589 131.531 141.412 131.531 141.412L139.368 140.811L138.851 93.1885L137.895 86.2042L116.015 87.882Z" fill="#263238"/>
<path d="M128.651 94.2355C128.544 94.2962 128.429 94.3421 128.309 94.372C128.085 94.4501 127.757 94.5574 127.353 94.6972L127.279 94.72V94.6452C127.233 94.0111 127.178 93.1592 127.129 92.226C127.074 91.2148 127.035 90.3011 127.015 89.6248C127.015 89.2996 126.999 89.0233 126.999 88.8379C126.989 88.741 126.996 88.6432 127.018 88.5485C127.046 88.6416 127.061 88.7378 127.064 88.8347C127.087 89.02 127.109 89.2899 127.132 89.6183C127.184 90.2686 127.243 91.1953 127.295 92.2195C127.347 93.1527 127.383 94.0046 127.402 94.6419L127.321 94.5899C127.731 94.4761 128.062 94.385 128.296 94.3265C128.411 94.2847 128.53 94.2542 128.651 94.2355Z" fill="#455A64"/>
<path d="M128 88.7371C128 88.7371 128.026 88.6948 128.114 88.6656C128.238 88.633 128.369 88.6445 128.485 88.6981C128.572 88.7301 128.647 88.7895 128.698 88.8674C128.749 88.9453 128.773 89.0376 128.768 89.1306C128.757 89.2481 128.708 89.3588 128.628 89.4457C128.548 89.5326 128.442 89.591 128.326 89.6118C128.207 89.6295 128.087 89.6143 127.976 89.5678C127.866 89.5214 127.771 89.4454 127.701 89.3484C127.652 89.2734 127.626 89.1859 127.626 89.0964C127.626 89.0069 127.652 88.9194 127.701 88.8444C127.769 88.7436 127.867 88.6672 127.981 88.6266C128.065 88.5973 128.114 88.6038 128.117 88.6103C128.121 88.6168 127.926 88.6721 127.809 88.8932C127.774 88.9521 127.758 89.0198 127.761 89.0879C127.765 89.1561 127.788 89.2217 127.828 89.2769C127.881 89.3464 127.951 89.4006 128.032 89.4338C128.112 89.4669 128.2 89.4779 128.287 89.4655C128.367 89.45 128.441 89.4108 128.499 89.3528C128.557 89.2948 128.596 89.2208 128.612 89.1403C128.618 89.0736 128.604 89.0066 128.571 88.9484C128.537 88.8902 128.487 88.8437 128.426 88.8152C128.296 88.7447 128.147 88.7174 128 88.7371Z" fill="#455A64"/>
<path d="M131.883 89.2866C131.837 89.2866 131.772 89.059 131.74 88.7729C131.707 88.4868 131.717 88.2494 131.762 88.2461C131.808 88.2429 131.873 88.4705 131.905 88.7566C131.938 89.0428 131.928 89.2866 131.883 89.2866Z" fill="#455A64"/>
<path d="M132.468 89.2249C132.422 89.2249 132.383 88.981 132.383 88.6786C132.383 88.3762 132.416 88.1323 132.465 88.1323C132.513 88.1323 132.549 88.3762 132.549 88.6786C132.549 88.981 132.517 89.2249 132.468 89.2249Z" fill="#455A64"/>
<path d="M122.281 89.589C122.235 89.589 122.164 89.3191 122.122 88.9777C122.079 88.6363 122.083 88.3502 122.122 88.3469C122.161 88.3437 122.239 88.6168 122.281 88.9615C122.323 89.3061 122.326 89.5858 122.281 89.589Z" fill="#455A64"/>
<path d="M122.993 89.641C122.843 89.459 122.768 89.2262 122.785 88.9907C122.75 88.7633 122.802 88.5309 122.931 88.3404C122.98 88.3404 122.931 88.6396 122.954 88.9907C122.977 89.3419 123.038 89.628 122.993 89.641Z" fill="#455A64"/>
<path d="M120.32 88.9355C120.324 89.0135 120.314 89.0916 120.291 89.1663C120.25 89.3773 120.194 89.5848 120.122 89.7874C119.881 90.4701 119.527 91.1076 119.075 91.6732C118.605 92.2566 118.048 92.7633 117.423 93.1755C117.231 93.3023 117.031 93.4174 116.825 93.5201C116.75 93.5624 116.67 93.5962 116.587 93.6209C116.587 93.6014 116.893 93.4323 117.358 93.0974C117.956 92.6729 118.492 92.1673 118.951 91.5952C119.394 91.0374 119.755 90.4187 120.021 89.7581C120.219 89.2541 120.294 88.929 120.32 88.9355Z" fill="#455A64"/>
<path d="M138.594 92.4992C138.51 92.5239 138.424 92.537 138.337 92.5382C138.101 92.5568 137.864 92.5568 137.628 92.5382C136.856 92.4639 136.114 92.2052 135.463 91.7838C134.846 91.38 134.349 90.8187 134.022 90.158C133.927 89.966 133.853 89.7643 133.801 89.5565C133.775 89.4836 133.763 89.4064 133.765 89.3289C133.791 89.3289 133.863 89.6541 134.12 90.119C134.463 90.7479 134.955 91.2827 135.554 91.6765C136.184 92.0835 136.897 92.3456 137.641 92.4439C138.223 92.5089 138.591 92.4731 138.594 92.4992Z" fill="#455A64"/>
<path d="M124.823 119.285C124.823 119.321 123.412 119.015 121.695 118.609C119.979 118.203 118.594 117.838 118.607 117.803C118.62 117.767 120.018 118.069 121.735 118.479C123.451 118.889 124.833 119.25 124.823 119.285Z" fill="#455A64"/>
<path d="M138.441 117.36C138.46 117.393 137.241 118.027 135.719 118.781C134.198 119.536 132.943 120.118 132.923 120.082C132.904 120.046 134.123 119.412 135.645 118.661C137.166 117.91 138.421 117.328 138.441 117.36Z" fill="#455A64"/>
<path d="M111.912 69.9692L113.066 71.4162V68.9287H116.708C116.708 68.9287 117.111 74.6222 117.033 75.835C116.946 76.4672 116.797 77.0891 116.587 77.6916C116.479 78.0423 116.281 78.359 116.014 78.6112C115.748 78.8634 115.42 79.0426 115.064 79.1315C114.708 79.2204 114.335 79.2159 113.981 79.1187C113.627 79.0214 113.304 78.8345 113.043 78.5761C112.636 78.1796 112.255 77.7559 111.905 77.308C110.279 75.227 107.6 70.1546 107.6 70.1546L110.409 68.4768L111.912 69.9692Z" fill="#FFBF9D"/>
<path d="M111.681 69.7026C111.818 69.9337 111.977 70.1515 112.156 70.3529C112.481 70.7333 112.89 71.2568 113.375 71.8226C113.859 72.3884 114.321 72.8891 114.676 73.2305C114.855 73.4275 115.063 73.5963 115.293 73.7313C115.128 73.5249 114.95 73.3294 114.76 73.146C114.435 72.7883 113.986 72.2778 113.502 71.7121C112.543 70.561 111.723 69.6636 111.681 69.7026Z" fill="#FF9A6C"/>
<path d="M120.216 52.4792L124.053 50.9737L131.125 50.5706L134.451 51.8354L129.896 54.3651L125.968 54.222L120.216 52.4792Z" fill="#FFBF9D"/>
<path d="M115.687 88.6038C116.035 88.6623 139.205 89.6476 139.205 89.6476L138.405 68.8019L138.337 64.7115L137.036 52.3199C137.036 52.3199 133.57 51.1266 131.805 50.5576C131.805 50.5576 129.945 52.5085 126.407 52.4434C122.951 52.3947 122.229 51.6143 122.229 51.6143L117.397 53.4677C117.397 53.4677 113.96 54.7 113.368 56.2217C112.777 57.7435 111.743 66.1552 111.743 66.1552H116.753L116.62 81.1025L115.687 88.6038Z" fill="#407BFF"/>
<g opacity="0.2">
<path d="M130.257 60.7999L130.975 66.0511L134.451 67.6021L137.02 65.4138V60.5365L130.257 60.7999Z" fill="black"/>
</g>
<path d="M136.929 62.2988C136.929 62.3411 135.485 62.3769 133.704 62.3769C131.922 62.3769 130.475 62.3411 130.475 62.2988C131.549 62.2173 132.627 62.1902 133.704 62.2176C134.779 62.1901 135.856 62.2173 136.929 62.2988Z" fill="#263238"/>
<path d="M114.126 58.397C114.143 58.4425 114.156 58.4893 114.165 58.5368C114.188 58.6409 114.217 58.7709 114.256 58.9368C114.381 59.4385 114.535 59.9325 114.718 60.4162C114.949 61.0373 115.274 61.7688 115.674 62.5882C116.074 63.4076 116.392 64.3863 116.747 65.4268C116.747 66.6754 116.747 68.0281 116.721 69.4685C116.688 72.655 116.656 75.5391 116.636 77.6429C116.617 78.6769 116.604 79.519 116.591 80.1205C116.591 80.4002 116.584 80.6245 116.571 80.7936C116.573 80.872 116.567 80.9503 116.555 81.0277C116.549 80.9487 116.549 80.8694 116.555 80.7904C116.555 80.6256 116.555 80.4012 116.555 80.1173C116.555 79.519 116.555 78.6736 116.555 77.6396C116.555 75.5359 116.581 72.6518 116.597 69.4685C116.597 68.0411 116.623 66.6754 116.633 65.4268V65.4496C116.285 64.4091 115.95 63.4434 115.586 62.6142C115.238 61.9003 114.928 61.1688 114.656 60.4227C114.48 59.9344 114.338 59.4347 114.23 58.927C114.198 58.7482 114.172 58.6018 114.158 58.5173C114.144 58.4783 114.133 58.438 114.126 58.397Z" fill="#263238"/>
<path d="M138.691 55.9648C138.703 56.1131 138.703 56.262 138.691 56.4103C138.691 56.7355 138.665 57.1321 138.646 57.6199C138.604 58.6669 138.548 60.065 138.487 61.6095C138.425 63.154 138.353 64.5554 138.308 65.6024C138.279 66.0901 138.256 66.4966 138.236 66.812C138.236 66.9605 138.22 67.1086 138.191 67.2542C138.179 67.1059 138.179 66.957 138.191 66.8087C138.191 66.4836 138.191 66.0869 138.213 65.5991C138.239 64.5749 138.285 63.1637 138.35 61.6063C138.415 60.0488 138.487 58.6344 138.552 57.6166C138.584 57.1061 138.617 56.6932 138.646 56.4071C138.648 56.2586 138.663 56.1106 138.691 55.9648Z" fill="#263238"/>
<g opacity="0.3">
<path d="M114.139 59.1611C114.051 61.4492 114.869 63.6797 116.415 65.3683C115.944 63.219 114.767 61.2193 114.139 59.1611Z" fill="black"/>
</g>
<g opacity="0.3">
<path d="M124.316 79.7856C125.406 79.6405 126.399 79.0874 127.096 78.2379C127.83 77.4188 128.458 76.511 128.966 75.5359C129.622 74.2095 129.994 72.761 130.059 71.2829C128.709 74.9018 126.732 77.7632 124.316 79.7856Z" fill="black"/>
</g>
<path d="M130.488 69.7059C130.485 69.7508 130.479 69.7955 130.468 69.8392C130.445 69.9432 130.416 70.0668 130.384 70.2164C130.351 70.3659 130.299 70.5773 130.228 70.8049C130.156 71.0325 130.088 71.2926 129.984 71.5755C129.756 72.2411 129.489 72.8925 129.184 73.5264C128.438 75.0784 127.48 76.5195 126.339 77.8087C125.873 78.3347 125.373 78.83 124.843 79.2914C124.625 79.4962 124.407 79.6588 124.222 79.8084C124.037 79.958 123.874 80.0783 123.734 80.1726L123.409 80.3904C123.334 80.4359 123.295 80.4619 123.292 80.4554C123.321 80.4212 123.353 80.3906 123.39 80.3644L123.692 80.1238C123.825 80.0262 123.985 79.8994 124.163 79.7434C124.342 79.5873 124.554 79.4182 124.768 79.2134C125.282 78.7418 125.769 78.2425 126.228 77.7177C126.784 77.0698 127.302 76.3902 127.779 75.6822C128.245 74.9688 128.671 74.2295 129.054 73.4679C129.361 72.8421 129.636 72.2007 129.876 71.5462C129.987 71.2699 130.065 71.0097 130.14 70.7854C130.215 70.561 130.276 70.3659 130.322 70.2066C130.367 70.0473 130.4 69.94 130.432 69.8392C130.465 69.7384 130.481 69.7026 130.488 69.7059Z" fill="#263238"/>
<path d="M129.818 63.1833C129.813 63.2554 129.803 63.3271 129.789 63.3979C129.763 63.5507 129.727 63.7523 129.685 64.0027C129.642 64.253 129.577 64.5847 129.483 64.9521C129.389 65.3195 129.304 65.7455 129.158 66.2007C129.093 66.4283 129.021 66.6689 128.946 66.9193C128.872 67.1697 128.774 67.4233 128.683 67.6867C128.511 68.2232 128.277 68.7759 128.033 69.3612C126.965 71.8874 125.529 74.242 123.773 76.3488C123.36 76.8235 122.973 77.2852 122.577 77.6819C122.382 77.8835 122.2 78.0851 122.011 78.2639C121.822 78.4427 121.643 78.6183 121.468 78.7809C121.143 79.1061 120.792 79.3889 120.492 79.6361C120.193 79.8832 119.953 80.088 119.738 80.2474L119.247 80.618C119.194 80.6649 119.135 80.7053 119.072 80.7383C119.119 80.6859 119.171 80.638 119.228 80.5953L119.699 80.2018C119.907 80.036 120.161 79.8312 120.437 79.5743C120.714 79.3174 121.048 79.0443 121.383 78.7029L121.917 78.1826C122.102 78.0005 122.281 77.7989 122.473 77.5973C122.866 77.1974 123.247 76.7357 123.656 76.2577C125.397 74.1544 126.829 71.8136 127.909 69.3059C128.15 68.7239 128.384 68.1776 128.56 67.6476C128.654 67.381 128.751 67.1306 128.829 66.8835C128.907 66.6364 128.979 66.399 129.051 66.1714C129.2 65.7195 129.294 65.3 129.395 64.9326C129.496 64.5652 129.568 64.2498 129.62 63.9897C129.672 63.7295 129.72 63.5442 129.753 63.3914C129.767 63.3199 129.789 63.2501 129.818 63.1833Z" fill="#263238"/>
<path d="M111.508 56.7029L120.431 70.2684C120.473 70.3324 120.497 70.4074 120.498 70.4844C120.499 70.5613 120.477 70.6369 120.437 70.7022C120.396 70.7674 120.337 70.8194 120.267 70.8521C120.198 70.8847 120.12 70.8965 120.044 70.8862L109.769 69.5855C109.715 69.578 109.663 69.5597 109.616 69.5318C109.569 69.5039 109.528 69.4669 109.496 69.423L99.6826 56.0201C99.634 55.9581 99.6046 55.8833 99.5981 55.8047C99.5915 55.7262 99.6081 55.6475 99.6458 55.5784C99.6835 55.5092 99.7407 55.4526 99.8102 55.4155C99.8797 55.3784 99.9586 55.3626 100.037 55.3698L110.608 56.1502C110.79 56.1667 110.967 56.2252 111.123 56.3211C111.279 56.417 111.411 56.5477 111.508 56.7029Z" fill="#E0E0E0"/>
<path d="M111.509 56.703C111.486 56.6587 111.459 56.6172 111.427 56.5794C111.337 56.4672 111.227 56.3725 111.102 56.2998C110.89 56.1892 110.655 56.1323 110.416 56.1339L109.467 56.0559L103.373 55.5779L101.354 55.4219L100.281 55.3406C100.187 55.3406 100.105 55.3406 99.9981 55.3406C99.8883 55.3442 99.7833 55.3869 99.7022 55.4609C99.6196 55.5361 99.5665 55.6382 99.5522 55.749C99.5379 55.8597 99.5634 55.9719 99.6241 56.0657L102.479 59.9838C104.495 62.7378 106.706 65.765 109.031 68.945C109.18 69.1434 109.314 69.3352 109.476 69.5433C109.526 69.5985 109.589 69.6408 109.658 69.6669C109.722 69.6893 109.789 69.7024 109.857 69.7059L110.221 69.7514L111.658 69.9335L114.467 70.2846L119.78 70.935C119.891 70.935 119.982 70.9642 120.106 70.9707C120.169 70.9712 120.232 70.9591 120.29 70.9351C120.349 70.9111 120.402 70.8757 120.447 70.8309C120.532 70.7435 120.582 70.6277 120.587 70.5058C120.582 70.3869 120.539 70.2727 120.463 70.1806L119.774 69.1271L118.473 67.1762L116.145 63.6548C114.721 61.512 113.57 59.7724 112.767 58.5661L111.84 57.1842C111.736 57.0346 111.655 56.9143 111.593 56.8298C111.567 56.7875 111.538 56.7473 111.505 56.7095C111.528 56.7543 111.553 56.7977 111.58 56.8395L111.811 57.2037C112.019 57.5289 112.321 58.0003 112.708 58.6019L116.044 63.723L118.356 67.2542L119.657 69.2214L120.333 70.2521C120.392 70.3205 120.426 70.4062 120.431 70.496C120.428 70.5813 120.393 70.6624 120.333 70.7236C120.273 70.7837 120.191 70.8175 120.106 70.8179C120.018 70.8179 119.897 70.7919 119.797 70.7821L114.474 70.1026L111.665 69.7481L110.227 69.5661L109.866 69.5205C109.813 69.516 109.759 69.5062 109.707 69.4913C109.661 69.4736 109.62 69.4458 109.587 69.41C109.444 69.2149 109.301 69.0231 109.158 68.8247C106.83 65.6512 104.605 62.6273 102.596 59.8732C101.585 58.5011 100.629 57.1939 99.7314 55.9714C99.6979 55.9231 99.6781 55.8666 99.6741 55.808C99.6702 55.7493 99.6821 55.6907 99.7088 55.6383C99.7355 55.586 99.7759 55.5418 99.8257 55.5106C99.8755 55.4793 99.9328 55.4621 99.9916 55.4609C100.066 55.4609 100.17 55.4609 100.258 55.4771L101.331 55.5552L103.354 55.6982L109.467 56.1209L110.422 56.186C110.656 56.1781 110.887 56.2284 111.096 56.3323C111.258 56.4247 111.399 56.5511 111.509 56.703Z" fill="#263238"/>
<path d="M99.6826 56.0299C99.7529 56.048 99.8248 56.0589 99.8972 56.0624L100.522 56.1274L102.843 56.3323L110.738 56.9826L110.676 56.9468C111.17 57.6817 111.681 58.4425 112.191 59.2229C114.276 62.4257 116.093 65.3716 117.469 67.4655C118.151 68.5158 118.72 69.3547 119.117 69.9335L119.579 70.5838C119.629 70.6631 119.686 70.7372 119.751 70.8049C119.708 70.7219 119.661 70.6415 119.608 70.5643L119.172 69.8847L117.569 67.3908C116.223 65.2805 114.419 62.3281 112.334 59.1221C111.824 58.332 111.31 57.5711 110.813 56.846L110.79 56.8135H110.767L102.869 56.2282L100.544 56.0722L99.9167 56.0364C99.839 56.0284 99.7607 56.0262 99.6826 56.0299Z" fill="#263238"/>
<path d="M105.799 58.1011C105.805 58.0741 105.816 58.0486 105.833 58.0262C105.849 58.0037 105.869 57.9848 105.893 57.9705C105.917 57.9562 105.943 57.9469 105.971 57.9431C105.998 57.9393 106.026 57.941 106.053 57.9483C106.157 57.9721 106.253 58.0251 106.329 58.1011C106.377 58.1452 106.408 58.2048 106.417 58.2695C106.426 58.3342 106.412 58.4001 106.378 58.4555C106.277 58.5823 106.053 58.5336 105.942 58.4295C105.892 58.3915 105.853 58.3414 105.828 58.2839C105.803 58.2264 105.793 58.1635 105.799 58.1011Z" fill="white"/>
<path d="M110.598 65.7032C110.598 65.7032 111.001 64.7278 109.974 64.6107C108.732 64.5461 107.487 64.5461 106.244 64.6107C106.244 64.6107 104.765 64.7668 105.077 65.8268C105.077 65.8268 104.206 66.6071 104.674 67.4525C105.142 68.2979 105.324 68.0443 105.324 68.0443C105.324 68.0443 105.201 69.0751 105.974 69.2279C105.974 69.2279 106.82 70.2261 107.6 70.1643C108.381 70.1026 111.681 68.5125 111.899 68.2134C112.117 67.9143 112.429 67.7257 112.243 67.3778C112.243 67.3778 112.647 66.4641 111.775 66.3243C111.782 66.308 111.72 65.5504 110.598 65.7032Z" fill="#FFBF9D"/>
<path d="M105.909 66.0511C106.138 66.0988 106.372 66.1163 106.605 66.1032C107.034 66.1032 107.626 66.1032 108.28 66.1032C108.843 66.1196 109.407 66.0869 109.964 66.0056C110.406 65.9016 110.582 65.6414 110.562 65.6349C110.371 65.756 110.16 65.8408 109.938 65.8853C109.532 65.9536 108.93 65.9113 108.277 65.9341C107.623 65.9568 107.031 65.9633 106.602 65.9829C106.369 65.9778 106.137 66.0007 105.909 66.0511Z" fill="#FF9A6C"/>
<path d="M106.644 67.6119C106.713 67.6521 106.789 67.6776 106.869 67.6867C107.082 67.7301 107.301 67.7443 107.519 67.7289C107.836 67.7047 108.15 67.647 108.455 67.5566C108.8 67.4623 109.167 67.329 109.554 67.2119C109.914 67.0929 110.286 67.0155 110.663 66.9811C110.989 67.0114 111.317 66.9458 111.606 66.7925C111.719 66.7161 111.799 66.6 111.83 66.4673C111.851 66.3682 111.838 66.2649 111.791 66.1747C111.71 66.0284 111.6 66.0186 111.603 66.0251C111.606 66.0316 111.681 66.0706 111.73 66.2039C111.761 66.2943 111.759 66.3928 111.723 66.4817C111.688 66.5706 111.622 66.6439 111.538 66.6884C111.26 66.8107 110.955 66.8567 110.653 66.8217C110.263 66.8461 109.877 66.9204 109.506 67.0428L108.413 67.4038C108.118 67.4956 107.816 67.563 107.509 67.6054C107.221 67.625 106.932 67.6271 106.644 67.6119Z" fill="#FF9A6C"/>
<path d="M107.75 68.9287C107.986 68.9152 108.22 68.8704 108.445 68.7954C108.868 68.6881 109.447 68.5223 110.071 68.3174C110.696 68.1126 111.268 67.9013 111.671 67.7354C111.9 67.6635 112.119 67.5618 112.321 67.433C112.302 67.3875 111.287 67.7582 110.045 68.1516C108.803 68.5451 107.737 68.8832 107.75 68.9287Z" fill="#FF9A6C"/>
<path d="M107.486 70.1513C107.681 70.1684 107.876 70.1463 108.062 70.0863C108.515 69.9762 108.957 69.8204 109.379 69.6213C109.873 69.397 110.305 69.1661 110.618 69.0003C110.796 68.9249 110.962 68.8242 111.112 68.7011C110.489 68.9024 109.885 69.1581 109.307 69.4653C108.335 69.9335 107.48 70.1026 107.486 70.1513Z" fill="#FF9A6C"/>
<path d="M140.333 60.8552C140.333 60.8552 138.233 69.2701 135.609 72.3786C133.066 75.3895 129.083 74.0044 127.704 70.1025C126.326 66.2007 123.868 57.3207 123.868 57.3207L126.885 55.0121L132.088 65.1212L134.438 58.2312L140.333 60.8552Z" fill="#FFBF9D"/>
<path d="M124.008 57.5614L121.793 54.3521C121.471 54.2825 121.155 54.1846 120.85 54.0594C120.6 53.9131 120.353 52.6385 120.359 52.3914C120.366 52.1443 119.93 51.5623 120.106 51.3964C120.281 51.2306 120.873 51.2209 120.841 50.9835C120.841 50.9315 120.402 50.3982 120.746 50.008C120.936 49.8824 121.148 49.7931 121.371 49.7447L121.335 48.5188C121.335 48.5188 121.985 47.0751 122.671 47.5986C122.671 47.5986 125.217 49.5496 125.474 49.8747C125.731 50.1999 126.713 54.261 126.885 55.0252" fill="#FFBF9D"/>
<path d="M126.885 55.0187C126.882 54.9462 126.871 54.8743 126.853 54.8041C126.817 54.648 126.775 54.4464 126.719 54.1928C126.602 53.6595 126.423 52.8921 126.183 51.946C126.059 51.4712 125.926 50.9705 125.754 50.4015C125.711 50.2649 125.666 50.1251 125.607 49.982C125.54 49.8363 125.437 49.7099 125.308 49.6146C125.074 49.4098 124.83 49.2082 124.58 49.0033C124.076 48.5969 123.539 48.1742 122.983 47.7417C122.843 47.6167 122.685 47.5127 122.515 47.4328C122.416 47.409 122.312 47.409 122.213 47.4327C122.113 47.4564 122.021 47.5032 121.943 47.5694C121.652 47.822 121.42 48.1349 121.263 48.4863V48.5058C121.263 48.6261 121.263 48.7529 121.263 48.8797C121.263 49.1659 121.263 49.452 121.289 49.7317L121.348 49.6536C121.194 49.6907 121.044 49.7407 120.899 49.8032C120.818 49.8368 120.744 49.8853 120.681 49.9463C120.625 50.0118 120.583 50.0882 120.558 50.1706C120.516 50.333 120.53 50.5046 120.597 50.6583C120.624 50.7318 120.657 50.8025 120.697 50.8697L120.753 50.964V50.9867C120.754 50.9943 120.754 51.002 120.753 51.0095C120.753 51.0355 120.688 51.0745 120.626 51.0973C120.564 51.1201 120.496 51.1428 120.428 51.1656C120.357 51.1844 120.288 51.2072 120.219 51.2339C120.134 51.2584 120.06 51.3112 120.008 51.3834C119.974 51.4668 119.974 51.5602 120.008 51.6436C120.028 51.7137 120.053 51.7822 120.083 51.8484C120.138 51.9785 120.2 52.102 120.246 52.2223C120.269 52.277 120.282 52.3354 120.285 52.3947C120.286 52.4644 120.292 52.534 120.304 52.6028C120.324 52.7361 120.346 52.8661 120.376 52.9962C120.426 53.2468 120.495 53.4935 120.58 53.7343C120.622 53.8602 120.688 53.9763 120.776 54.0757C120.882 54.1444 120.998 54.196 121.12 54.2285C121.345 54.2968 121.566 54.3521 121.77 54.4009L121.735 54.3781L123.36 56.7062L123.816 57.337C123.866 57.413 123.923 57.4848 123.985 57.5516C123.943 57.4707 123.896 57.3925 123.845 57.3175L123.416 56.6672C123.029 56.0917 122.486 55.2885 121.819 54.3066V54.2871H121.823C121.614 54.235 121.397 54.1765 121.172 54.1082C121.068 54.0785 120.969 54.0348 120.876 53.9782C120.806 53.8925 120.753 53.7943 120.72 53.6888C120.637 53.4534 120.572 53.2121 120.525 52.9669C120.499 52.8401 120.476 52.7133 120.457 52.5832C120.457 52.5215 120.457 52.4532 120.457 52.3947C120.454 52.319 120.439 52.2442 120.411 52.1736C120.363 52.0402 120.301 51.9167 120.249 51.7899C120.22 51.7303 120.197 51.6683 120.18 51.6045C120.163 51.5562 120.163 51.5033 120.18 51.455C120.218 51.4161 120.265 51.388 120.317 51.3737C120.382 51.3481 120.448 51.3264 120.515 51.3086C120.584 51.2859 120.655 51.2664 120.727 51.2371C120.816 51.2094 120.891 51.1474 120.935 51.0648C120.947 51.0382 120.952 51.0093 120.951 50.9802C120.95 50.9597 120.945 50.9397 120.935 50.9217V50.8957L120.88 50.8014C120.845 50.7397 120.814 50.6756 120.789 50.6096C120.736 50.4875 120.725 50.3517 120.756 50.2226C120.773 50.1601 120.804 50.1023 120.847 50.0536C120.896 50.0105 120.952 49.9764 121.013 49.9528C121.15 49.8939 121.291 49.8461 121.436 49.8097L121.494 49.7934V49.7317C121.494 49.452 121.478 49.1691 121.468 48.883C121.468 48.7562 121.468 48.6261 121.468 48.5091V48.5448C121.613 48.2167 121.827 47.9238 122.096 47.6864C122.153 47.6331 122.223 47.5949 122.299 47.575C122.375 47.5552 122.455 47.5543 122.531 47.5726C122.683 47.647 122.824 47.741 122.951 47.8523C123.51 48.2847 124.047 48.7042 124.551 49.1074C124.804 49.3089 125.048 49.5073 125.279 49.7056C125.396 49.7886 125.489 49.9007 125.549 50.0308C125.604 50.1641 125.65 50.3039 125.695 50.4372C125.867 50.9835 126.02 51.5005 126.137 51.9687C126.381 52.9019 126.583 53.6595 126.723 54.2025C126.791 54.4529 126.843 54.6545 126.882 54.8073C126.876 54.8777 126.877 54.9485 126.885 55.0187Z" fill="#FF9A6C"/>
<path d="M121.37 49.7447C121.37 49.7707 121.627 49.7447 122.021 49.7902C122.256 49.8265 122.489 49.8798 122.717 49.9495C123.015 49.9919 123.318 49.9919 123.617 49.9495C123.874 49.9135 124.135 49.9363 124.381 50.0163C124.627 50.0963 124.852 50.2314 125.038 50.4112C125.182 50.5713 125.298 50.755 125.38 50.9542C125.381 50.8384 125.359 50.7235 125.314 50.6167C125.269 50.5099 125.203 50.4134 125.119 50.3332C124.95 50.1471 124.741 50.0015 124.508 49.9072C124.222 49.7961 123.912 49.7571 123.607 49.7934C123.321 49.8291 123.032 49.8291 122.746 49.7934C122.511 49.728 122.27 49.6855 122.027 49.6666C121.805 49.649 121.582 49.6755 121.37 49.7447Z" fill="#FF9A6C"/>
<path d="M122.271 49.6764C122.307 49.6959 122.411 49.5463 122.398 49.335C122.385 49.1236 122.264 48.9903 122.232 49.0098C122.199 49.0293 122.232 49.1724 122.232 49.335C122.232 49.4976 122.229 49.6601 122.271 49.6764Z" fill="#FF9A6C"/>
<path d="M120.762 51.029C121.406 51.0904 122.055 51.0398 122.681 50.8794C122.908 50.8048 123.148 50.7739 123.386 50.7884C123.571 50.8292 123.735 50.9369 123.845 51.0908C123.941 51.2439 124.025 51.4036 124.099 51.5688C124.11 51.3718 124.054 51.1768 123.939 51.016C123.822 50.8267 123.635 50.6912 123.419 50.6388C123.161 50.6086 122.899 50.6341 122.652 50.7136C121.621 50.9477 120.762 50.9835 120.762 51.029Z" fill="#FF9A6C"/>
<path d="M120.424 52.1866C120.579 52.2228 120.741 52.2228 120.896 52.1866C121.185 52.154 121.575 52.0533 121.998 51.9687C122.193 51.9252 122.393 51.9055 122.593 51.9102C122.749 51.9129 122.899 51.9679 123.019 52.0663C123.127 52.1658 123.201 52.2965 123.23 52.4402C123.23 52.4402 123.26 52.3979 123.256 52.3101C123.243 52.1864 123.187 52.0713 123.097 51.985C122.965 51.8551 122.791 51.7776 122.606 51.7671C122.388 51.7521 122.169 51.7685 121.956 51.8159C121.52 51.9004 121.143 52.0175 120.863 52.076C120.714 52.0979 120.567 52.1349 120.424 52.1866Z" fill="#FF9A6C"/>
<path d="M121.172 53.1035C121.146 53.123 121.364 53.3506 121.761 53.3506L121.683 53.2824C121.683 53.3506 121.683 53.4189 121.705 53.4872C121.716 53.766 121.778 54.0404 121.887 54.2968C121.931 54.0223 121.922 53.7422 121.861 53.4709L121.832 53.2661V53.1946H121.764C121.564 53.1863 121.365 53.1557 121.172 53.1035Z" fill="#FF9A6C"/>
<path d="M137.01 52.3329C137.01 52.3329 141.312 53.3734 141.302 59.0798C141.293 64.7863 140.002 67.6021 140.002 67.6021L132.071 63.2743L133.853 58.8425L137.01 52.3329Z" fill="#407BFF"/>
<path d="M140.002 67.6021C139.945 67.5855 139.89 67.5614 139.839 67.5306L139.378 67.2965L137.687 66.4056L132.032 63.3589L131.967 63.3263L131.993 63.2581L132.419 62.146C132.926 60.8292 133.395 59.5741 133.85 58.4328C134.071 57.8638 134.279 57.3207 134.477 56.807C134.651 56.3298 134.86 55.8667 135.105 55.4219C135.432 54.7563 135.924 54.1863 136.536 53.7668C136.707 53.6594 136.897 53.5834 137.095 53.5425C137.145 53.5317 137.196 53.5252 137.248 53.5229H137.303C137.043 53.5771 136.795 53.6785 136.571 53.8221C135.985 54.2512 135.516 54.8216 135.209 55.4804C134.975 55.9236 134.774 56.3833 134.608 56.8558C134.416 57.3663 134.211 57.9093 133.993 58.4815L132.575 62.2013L132.149 63.3133L132.11 63.2093L137.755 66.308L139.42 67.2444L139.865 67.5046C139.914 67.532 139.96 67.5647 140.002 67.6021Z" fill="#263238"/>
</svg>
