<svg width="34" height="40" viewBox="0 0 34 40" fill="none" xmlns="http://www.w3.org/2000/svg">
<g clip-path="url(#clip0_2340_25005)">
<path fill-rule="evenodd" clip-rule="evenodd" d="M10.7162 39.9967C8.31713 38.9616 6.07429 36.3249 6.06778 33.6296C6.06127 30.6901 7.92325 28.1934 10.241 26.556C9.96101 27.6074 9.81127 28.571 10.5014 29.5117C11.1427 30.3874 12.2657 30.8105 13.3269 30.5827C15.8041 30.0391 15.918 27.3145 14.4499 25.7259C12.9981 24.1536 11.5919 22.3763 12.1453 20.0977C12.422 18.9551 13.1251 17.8841 14.0137 17.1191C13.3302 18.916 15.2735 20.6868 16.5528 21.569C18.7729 23.099 21.2078 24.2578 23.2488 26.0514C25.394 27.9362 26.9792 30.485 26.6602 33.444C26.3119 36.6504 23.7664 38.877 20.9115 40.0033C26.9467 38.6719 33.1869 33.9844 33.3139 27.2917C33.4213 21.7839 29.642 17.5456 24.961 15.1172L24.7169 14.9837C24.8438 15.2962 24.8861 15.5599 24.8829 15.7975C24.9252 15.6217 24.9545 15.4427 24.961 15.2572C24.961 15.4785 24.9317 15.6966 24.8764 15.9115L24.8829 15.7975C24.8145 16.0905 24.6973 16.3704 24.5378 16.6243L24.6062 16.5495C23.672 18.099 21.1459 18.4342 19.8959 16.8294C17.8874 14.2513 19.9382 11.4681 20.2247 8.73698C20.5762 5.3125 18.4278 1.98893 15.7651 0C17.2299 2.37305 15.2996 5.51107 13.7533 7.26237C12.2559 8.96159 10.433 10.3841 8.77937 11.9271C7.00203 13.5872 5.29304 15.3353 3.83471 17.2819C0.911534 21.1816 -0.875576 26.0872 0.439529 30.9505C1.75138 35.8105 5.96036 38.903 10.7162 39.9967Z" fill="#EE4323"/>
</g>
<defs>
<clipPath id="clip0_2340_25005">
<rect width="33.3105" height="40" fill="white"/>
</clipPath>
</defs>
</svg>
