<svg width="67" height="80" viewBox="0 0 67 80" fill="none" xmlns="http://www.w3.org/2000/svg">
<g clip-path="url(#clip0_1180_17889)">
<path fill-rule="evenodd" clip-rule="evenodd" d="M21.4315 79.9935C16.6333 77.9232 12.1476 72.6497 12.1346 67.2591C12.1216 61.3802 15.8455 56.3867 20.4809 53.112C19.9211 55.2148 19.6216 57.1419 21.0018 59.0234C22.2843 60.7747 24.5304 61.6211 26.6528 61.1654C31.6073 60.0781 31.8351 54.6289 28.8989 51.4518C25.9953 48.3073 23.1828 44.7526 24.2895 40.1953C24.8429 37.9102 26.2492 35.7682 28.0265 34.2383C26.6593 37.832 30.5461 41.3737 33.1046 43.138C37.5448 46.1979 42.4145 48.5156 46.4966 52.1029C50.7869 55.8724 53.9575 60.9701 53.3195 66.888C52.6229 73.3008 47.5317 77.7539 41.8221 80.0065C53.8924 77.3438 66.3729 67.9688 66.6268 54.5833C66.8416 43.5677 59.283 35.0911 49.9211 30.2344L49.4328 29.9674C49.6867 30.5924 49.7713 31.1198 49.7648 31.5951C49.8494 31.2435 49.908 30.8854 49.9211 30.5143C49.9211 30.957 49.8625 31.3932 49.7518 31.8229L49.7648 31.5951C49.6281 32.181 49.3937 32.7409 49.0747 33.2487L49.2114 33.099C47.3429 36.1979 42.2908 36.8685 39.7908 33.6589C35.7739 28.5026 39.8755 22.9362 40.4484 17.474C41.1515 10.625 36.8546 3.97786 31.5291 0C34.4588 4.74609 30.5981 11.0221 27.5057 14.5247C24.5109 17.9232 20.8651 20.7682 17.5578 23.8542C14.0031 27.1745 10.5851 30.6706 7.66845 34.5638C1.82209 42.3633 -1.75213 52.1745 0.878081 61.901C3.50178 71.6211 11.9197 77.806 21.4315 79.9935Z" fill="#EE4323"/>
</g>
<defs>
<clipPath id="clip0_1180_17889">
<rect width="66.6211" height="80" fill="white"/>
</clipPath>
</defs>
</svg>
