<svg width="255" height="188" viewBox="0 0 255 188" fill="none" xmlns="http://www.w3.org/2000/svg">
<g clip-path="url(#clip0_175_5899)">
<path d="M241.944 98.1154V85.7123H237.207C236.648 83.5734 235.794 81.5218 234.67 79.616L238.007 76.2861L229.208 67.5145L225.865 70.8387C223.952 69.7185 221.893 68.8679 219.745 68.3114V63.6097H207.312V68.3114C205.171 68.8702 203.117 69.7207 201.21 70.8387L197.867 67.5145L189.062 76.2861L192.399 79.616C191.277 81.523 190.424 83.5742 189.862 85.7123H185.142V98.1154H189.862C190.424 100.254 191.277 102.305 192.399 104.212L189.062 107.542L197.867 116.308L201.21 112.983C203.125 114.1 205.184 114.952 207.329 115.516V120.218H219.774V115.516C221.92 114.953 223.979 114.101 225.894 112.983L229.236 116.308L238.041 107.542L234.704 104.212C235.816 102.304 236.658 100.253 237.207 98.1154H241.944ZM213.54 102.669C211.406 102.67 209.32 102.041 207.545 100.861C205.77 99.6806 204.387 98.0026 203.569 96.0389C202.752 94.0753 202.538 91.9143 202.953 89.8293C203.369 87.7442 204.396 85.8288 205.904 84.3253C207.413 82.8218 209.335 81.7977 211.428 81.3825C213.521 80.9674 215.69 81.1799 217.661 81.9931C219.633 82.8064 221.318 84.1838 222.504 85.9512C223.689 87.7186 224.322 89.7966 224.322 91.9224C224.318 94.7692 223.18 97.498 221.159 99.5105C219.138 101.523 216.398 102.655 213.54 102.658V102.669Z" fill="white"/>
<path d="M204.324 129.189L201.958 123.03L199.615 123.924C198.93 122.969 198.115 122.115 197.193 121.385L198.215 119.108L192.17 116.433L191.147 118.71C189.986 118.515 188.803 118.482 187.633 118.613L186.73 116.279L180.559 118.641L181.456 120.969C180.5 121.656 179.642 122.47 178.908 123.389L176.623 122.37L173.931 128.386L176.217 129.405C176.026 130.564 175.995 131.744 176.125 132.911L173.783 133.805L176.154 139.958L178.491 139.065C179.179 140.016 179.994 140.87 180.914 141.603L179.897 143.88L185.936 146.556L186.959 144.279C188.122 144.473 189.307 144.506 190.479 144.375L191.376 146.709L197.553 144.347L196.638 142.025C197.595 141.337 198.455 140.523 199.192 139.605L201.478 140.624L204.169 134.608L201.884 133.589C202.076 132.43 202.109 131.25 201.981 130.082L204.324 129.189ZM191.107 136.828C190.053 137.226 188.904 137.305 187.805 137.055C186.706 136.805 185.706 136.236 184.931 135.421C184.155 134.605 183.64 133.579 183.448 132.473C183.257 131.366 183.398 130.227 183.855 129.2C184.312 128.173 185.063 127.304 186.015 126.702C186.966 126.099 188.076 125.791 189.203 125.815C190.33 125.84 191.425 126.196 192.349 126.839C193.274 127.481 193.987 128.382 194.398 129.428C194.674 130.129 194.808 130.877 194.792 131.629C194.775 132.382 194.609 133.124 194.303 133.812C193.997 134.5 193.557 135.121 193.008 135.639C192.46 136.156 191.814 136.56 191.107 136.828Z" fill="white" stroke="white" stroke-miterlimit="10"/>
<path d="M184.096 107.616L182.496 103.46L180.914 104.064C180.45 103.423 179.9 102.848 179.279 102.356L179.965 100.813L175.885 99.0034L175.194 100.546C174.408 100.415 173.609 100.392 172.817 100.478L172.211 98.9066L168.04 100.5L168.646 102.071C168.004 102.537 167.427 103.087 166.932 103.705L165.383 103.016L163.555 107.092L165.103 107.781C164.971 108.563 164.949 109.36 165.04 110.149L163.458 110.752L165.057 114.907L166.64 114.304C167.104 114.945 167.654 115.519 168.274 116.012L167.589 117.554L171.668 119.364L172.36 117.822C173.145 117.951 173.945 117.972 174.737 117.884L175.342 119.461L179.514 117.867L178.925 116.285C179.568 115.823 180.145 115.275 180.639 114.657L182.188 115.34L184.005 111.276L182.456 110.587C182.589 109.804 182.61 109.007 182.519 108.219L184.096 107.616ZM175.165 112.784C174.451 113.056 173.672 113.112 172.926 112.943C172.18 112.774 171.501 112.389 170.975 111.836C170.449 111.283 170.099 110.587 169.97 109.836C169.841 109.085 169.938 108.312 170.249 107.616C170.561 106.92 171.072 106.332 171.719 105.925C172.366 105.519 173.12 105.313 173.884 105.333C174.649 105.353 175.39 105.598 176.015 106.038C176.64 106.478 177.119 107.092 177.394 107.803C177.76 108.758 177.731 109.819 177.314 110.753C176.896 111.687 176.123 112.417 175.165 112.784Z" fill="white" stroke="white" stroke-miterlimit="10"/>
<path d="M182.645 34.853C182.645 38.7294 181.491 42.5187 179.329 45.7417C177.167 48.9647 174.094 51.4766 170.499 52.9598C166.904 54.4429 162.948 54.8307 159.132 54.074C155.315 53.3174 151.81 51.4503 149.059 48.7089C146.308 45.9675 144.435 42.4749 143.676 38.6729C142.918 34.8709 143.308 30.9302 144.798 27.3492C146.288 23.7682 148.81 20.7078 152.046 18.555C155.282 16.4023 159.086 15.2538 162.978 15.255C165.561 15.2527 168.12 15.7581 170.508 16.7423C172.895 17.7265 175.065 19.17 176.891 20.9904C178.718 22.8108 180.167 24.9722 181.154 27.3509C182.141 29.7296 182.648 32.279 182.645 34.853Z" fill="#407BFF" stroke="#407BFF" stroke-miterlimit="10"/>
<path d="M163.769 34.7611C167.298 34.3268 169.806 31.1244 169.371 27.6082C168.935 24.0919 165.72 21.5935 162.19 22.0277C158.661 22.462 156.153 25.6644 156.589 29.1806C157.024 32.6969 160.239 35.1953 163.769 34.7611Z" fill="white"/>
<path d="M175.171 47.7571C171.697 50.4888 167.4 51.9746 162.975 51.9746C158.549 51.9746 154.252 50.4888 150.778 47.7571C152.035 42.2414 153.195 37.5112 154.395 36.276C156.109 34.5684 160.618 33.595 162.966 33.595C165.314 33.595 170.051 34.7904 170.926 35.6613C172.708 37.4372 174.245 42.3268 175.171 47.7571Z" fill="white"/>
<path d="M134.705 83.1849V73.5083C134.705 72.2402 135.211 71.024 136.111 70.1273C137.011 69.2306 138.232 68.7269 139.505 68.7269H170.108C170.74 68.7247 171.366 68.8467 171.95 69.0859C172.535 69.3252 173.066 69.6771 173.513 70.1213C173.961 70.5655 174.316 71.0934 174.558 71.6746C174.801 72.2558 174.925 72.879 174.925 73.5083V83.1849C174.925 84.453 174.42 85.6692 173.519 86.5659C172.619 87.4626 171.399 87.9663 170.126 87.9663H139.499C138.227 87.9648 137.008 87.4604 136.109 86.5639C135.21 85.6674 134.705 84.4521 134.705 83.1849Z" fill="#407BFF"/>
<path d="M147.63 82.6556L132.82 97.0282L156.824 84.9381" fill="#407BFF"/>
<path d="M138.419 73.2408V73.1895C138.419 73.0008 138.495 72.8199 138.629 72.6864C138.763 72.553 138.944 72.478 139.134 72.478H154.264C154.454 72.478 154.635 72.553 154.769 72.6864C154.903 72.8199 154.978 73.0008 154.978 73.1895V73.2408C154.978 73.4295 154.903 73.6105 154.769 73.7439C154.635 73.8773 154.454 73.9523 154.264 73.9523H139.134C138.944 73.9523 138.763 73.8773 138.629 73.7439C138.495 73.6105 138.419 73.4295 138.419 73.2408Z" fill="white"/>
<path d="M155.658 73.2408V73.1895C155.658 73.0008 155.733 72.8199 155.867 72.6864C156.001 72.553 156.183 72.478 156.372 72.478H169.577C169.767 72.478 169.948 72.553 170.082 72.6864C170.216 72.8199 170.292 73.0008 170.292 73.1895V73.2408C170.292 73.4295 170.216 73.6105 170.082 73.7439C169.948 73.8773 169.767 73.9523 169.577 73.9523H156.372C156.183 73.9523 156.001 73.8773 155.867 73.7439C155.733 73.6105 155.658 73.4295 155.658 73.2408Z" fill="white"/>
<path d="M149.893 76.4796V76.4284C149.893 76.2397 149.968 76.0587 150.102 75.9252C150.236 75.7918 150.417 75.7169 150.607 75.7169H169.577C169.766 75.7169 169.948 75.7918 170.082 75.9252C170.216 76.0587 170.291 76.2397 170.291 76.4284V76.4796C170.291 76.6683 170.216 76.8493 170.082 76.9827C169.948 77.1162 169.766 77.1911 169.577 77.1911H150.607C150.417 77.1911 150.236 77.1162 150.102 76.9827C149.968 76.8493 149.893 76.6683 149.893 76.4796Z" fill="white"/>
<path d="M138.419 76.4796V76.4284C138.419 76.2397 138.495 76.0587 138.629 75.9252C138.763 75.7918 138.944 75.7169 139.134 75.7169H147.607C147.797 75.7169 147.978 75.7918 148.112 75.9252C148.246 76.0587 148.322 76.2397 148.322 76.4284V76.4796C148.322 76.6683 148.246 76.8493 148.112 76.9827C147.978 77.1162 147.797 77.1911 147.607 77.1911H139.134C138.944 77.1911 138.763 77.1162 138.629 76.9827C138.495 76.8493 138.419 76.6683 138.419 76.4796Z" fill="white"/>
<path d="M152.527 79.7184V79.6672C152.527 79.4785 152.602 79.2975 152.736 79.1641C152.87 79.0306 153.052 78.9557 153.241 78.9557H169.577C169.767 78.9557 169.948 79.0306 170.082 79.1641C170.216 79.2975 170.291 79.4785 170.291 79.6672V79.7184C170.291 79.9071 170.216 80.0881 170.082 80.2216C169.948 80.355 169.767 80.43 169.577 80.43H153.241C153.052 80.43 152.87 80.355 152.736 80.2216C152.602 80.0881 152.527 79.9071 152.527 79.7184Z" fill="white"/>
<path d="M138.419 79.7184V79.6672C138.419 79.4785 138.495 79.2975 138.629 79.1641C138.763 79.0306 138.944 78.9557 139.134 78.9557H150.419C150.608 78.9557 150.79 79.0306 150.924 79.1641C151.058 79.2975 151.133 79.4785 151.133 79.6672V79.7184C151.133 79.9071 151.058 80.0881 150.924 80.2216C150.79 80.355 150.608 80.43 150.419 80.43H139.134C138.944 80.43 138.763 80.355 138.629 80.2216C138.495 80.0881 138.419 79.9071 138.419 79.7184Z" fill="white"/>
<path d="M138.419 82.9573V82.906C138.419 82.7173 138.495 82.5364 138.629 82.4029C138.763 82.2695 138.944 82.1945 139.134 82.1945H143.322C143.511 82.1945 143.693 82.2695 143.827 82.4029C143.961 82.5364 144.036 82.7173 144.036 82.906V82.9573C144.036 83.146 143.961 83.327 143.827 83.4604C143.693 83.5938 143.511 83.6688 143.322 83.6688H139.134C138.944 83.6688 138.763 83.5938 138.629 83.4604C138.495 83.327 138.419 83.146 138.419 82.9573Z" fill="white"/>
<path d="M145.516 82.9573V82.906C145.516 82.7173 145.591 82.5364 145.725 82.4029C145.859 82.2695 146.041 82.1945 146.23 82.1945H169.577C169.767 82.1945 169.948 82.2695 170.082 82.4029C170.216 82.5364 170.292 82.7173 170.292 82.906V82.9573C170.292 83.146 170.216 83.327 170.082 83.4604C169.948 83.5938 169.767 83.6688 169.577 83.6688H146.23C146.041 83.6688 145.859 83.5938 145.725 83.4604C145.591 83.327 145.516 83.146 145.516 82.9573Z" fill="white"/>
<path d="M59.1589 69.4512C63.5677 60.011 59.4597 48.7978 49.9834 44.4058C40.5071 40.0138 29.251 44.1061 24.8422 53.5463C20.4334 62.9865 24.5414 74.1998 34.0177 78.5918C43.494 82.9838 54.7501 78.8914 59.1589 69.4512Z" fill="#407BFF"/>
<path d="M39.0532 75.0806C41.4441 74.2441 42.7016 71.6353 41.862 69.2535C41.0224 66.8717 38.4036 65.619 36.0127 66.4554C33.6218 67.2918 32.3642 69.9007 33.2039 72.2824C34.0435 74.6642 36.6623 75.917 39.0532 75.0806Z" fill="white"/>
<path d="M35.135 72.3983L34.9121 69.501L37.3234 67.8617L39.9518 69.1197L40.1746 72.017L37.7633 73.6563L35.135 72.3983Z" fill="#407BFF"/>
<path d="M48.0056 56.5642C50.3917 55.7145 51.6346 53.0987 50.7817 50.7216C49.9287 48.3446 47.3029 47.1064 44.9167 47.9561C42.5306 48.8058 41.2877 51.4216 42.1406 53.7987C42.9936 56.1758 45.6194 57.4139 48.0056 56.5642Z" fill="white"/>
<path d="M44.1855 53.6199L44.3455 49.9314L47.1339 47.5066L49.7623 48.7646L49.6023 52.4474L46.8139 54.8779L44.1855 53.6199Z" fill="#407BFF"/>
<path d="M40.7173 68.6472L37.209 66.9396L39.8031 60.9856C39.9688 60.6042 40.1459 60.2342 40.3402 59.8472L43.3857 54.155L46.894 55.8342L44.3914 61.7028C44.1971 62.1582 43.9857 62.6022 43.7514 63.0348L40.7173 68.6472Z" fill="white"/>
<path d="M55.145 71.6469C55.825 71.3396 66.6814 71.8291 66.6814 71.8291L58.8533 64.6741L55.145 71.6469Z" fill="#407BFF"/>
<path d="M103.065 29.6272C107.143 20.2354 102.806 9.32869 93.3783 5.26644C83.9506 1.20419 73.0023 5.52465 68.9245 14.9164C64.8467 24.3083 69.1837 35.2149 78.6114 39.2772C88.0391 43.3394 98.9875 39.019 103.065 29.6272Z" fill="#407BFF"/>
<path d="M86.6169 6.48334H85.377V22.0456H86.6169V6.48334Z" fill="white"/>
<path d="M72.2709 31.0254L72.9766 32.0411L85.9953 23.0641L85.2896 22.0485L72.2709 31.0254Z" fill="white"/>
<path d="M87.7086 22.2791C87.7086 22.6168 87.6081 22.9469 87.4197 23.2278C87.2314 23.5086 86.9637 23.7275 86.6504 23.8567C86.3372 23.986 85.9925 24.0198 85.66 23.9539C85.3275 23.888 85.0221 23.7254 84.7823 23.4865C84.5426 23.2477 84.3794 22.9434 84.3132 22.6122C84.2471 22.2809 84.281 21.9376 84.4108 21.6256C84.5405 21.3135 84.7602 21.0468 85.0421 20.8592C85.324 20.6716 85.6554 20.5714 85.9944 20.5714C86.4491 20.5714 86.8851 20.7513 87.2065 21.0716C87.528 21.3918 87.7086 21.8262 87.7086 22.2791Z" fill="white"/>
<path d="M136.493 147.739C135.391 130.8 142.83 113.268 155.349 103.238C155.749 120.264 148.384 137.494 136.493 147.739Z" fill="white"/>
<path d="M153.315 107.798C148.009 117.659 143.45 127.901 139.676 138.439C135.065 151.286 131.437 164.935 123.54 175.705" stroke="#E5E8E9" stroke-miterlimit="10" stroke-linecap="round"/>
<path d="M132.54 158.395C138.882 144.262 151.47 133.583 165.349 130.561C159.441 145.707 146.15 157.262 132.54 158.395Z" fill="white"/>
<path d="M161.943 133.674C152.466 141.985 142.827 150.06 133.025 157.9" stroke="#E5E8E9" stroke-miterlimit="10" stroke-linecap="round"/>
<path d="M128.797 170.707C137.271 158.099 152.904 151.519 165.84 155.117C156.326 167.565 140.642 174.162 128.797 170.707Z" fill="white"/>
<path d="M162.738 156.044C151.796 162.898 139.842 167.996 127.312 171.151" stroke="#E5E8E9" stroke-miterlimit="10" stroke-linecap="round"/>
<path d="M133.374 154.109C136.082 139.913 132.02 124.089 122.974 113.621C119.266 127.584 122.803 143.92 133.374 154.109Z" fill="white"/>
<path d="M123.906 117.241C125.583 130.162 128.903 142.819 133.785 154.906" stroke="#E5E8E9" stroke-miterlimit="10" stroke-linecap="round"/>
<path d="M128.723 166.199C127.58 151.604 120.061 137.898 109.079 130.339C109.701 137.96 111.725 145.402 115.05 152.293C118.815 160.069 124.346 165.004 128.723 166.199Z" fill="white"/>
<path d="M110.707 133.276C114.932 145.273 121.11 156.496 128.992 166.495" stroke="#E5E8E9" stroke-miterlimit="10" stroke-linecap="round"/>
<path d="M213.534 162.698C219.528 147.165 233.316 134.562 248.52 130.726C241.858 146.049 228.259 158.401 213.534 162.698Z" fill="white"/>
<path d="M244.835 133.953C236.084 140.583 227.841 147.853 220.174 155.703C210.814 165.277 201.986 175.955 190.576 182.342" stroke="#E5E8E9" stroke-miterlimit="10" stroke-linecap="round"/>
<path d="M205.655 170.582C217.083 160.57 232.596 156.175 246.104 159.124C234.653 170.218 218.151 175.107 205.655 170.582Z" fill="white"/>
<path d="M241.812 160.518C230.004 164.07 218.161 167.345 206.283 170.343" stroke="#E5E8E9" stroke-miterlimit="10" stroke-linecap="round"/>
<path d="M197.278 180.031C209.957 172.244 226.482 172.739 236.436 181.204C222.922 188.421 206.352 187.92 197.278 180.031Z" fill="white"/>
<path d="M233.322 180.748C220.836 182.405 208.166 182.084 195.781 179.798" stroke="#E5E8E9" stroke-miterlimit="10" stroke-linecap="round"/>
<path d="M208.157 167.104C216.391 155.56 219.311 139.81 215.626 126.81C206.603 137.727 203.004 153.728 208.157 167.104Z" fill="white"/>
<path d="M214.957 130.43C211.118 142.618 208.843 155.241 208.186 167.998" stroke="#E5E8E9" stroke-miterlimit="10" stroke-linecap="round"/>
<path d="M199.072 175.967C204.055 162.499 203.072 147.233 196.467 136.031C193.883 143.07 192.611 150.52 192.713 158.014C192.833 166.489 195.69 173.121 199.072 175.967Z" fill="white"/>
<path d="M196.684 139.338C195.483 151.733 196.327 164.241 199.181 176.365" stroke="#E5E8E9" stroke-miterlimit="10" stroke-linecap="round"/>
<path d="M43.6599 135.553C37.546 116.922 20.4957 101.878 0.651367 97.6088C8.99938 113.718 24.1241 126.536 43.6599 135.553Z" fill="white"/>
<path d="M44.6941 138.427C37.9439 134.685 30.4953 132.361 22.8081 131.598C15.121 130.835 7.35857 131.651 0 133.993C13.848 140.882 29.7544 142.46 44.6941 138.427Z" fill="white"/>
<path d="M48.3966 142.469C33.929 140.471 18.7815 144.023 7.03369 152.145C20.3528 156.989 36.3346 153.859 48.3966 142.469Z" fill="white"/>
<path d="M52.905 151.286C38.5803 151.229 24.4955 158.008 16.0732 169.022C22.4746 170.29 29.1132 169.546 35.072 166.894C40.9173 164.258 45.8198 159.75 52.905 151.286Z" fill="white"/>
<path d="M63.0071 166.045C48.8766 163.632 33.8319 167.992 23.644 177.43C29.7531 179.732 36.4276 180.093 42.7513 178.466C48.9681 176.849 54.5734 173.218 63.0071 166.045Z" fill="white"/>
<path d="M47.7568 136.424C38.426 123.901 35.8947 107.018 41.1972 92.6624C45.2427 99.4929 48.7339 106.705 50.3395 114.378C51.9451 122.051 51.6765 130.23 47.7568 136.424Z" fill="white"/>
<path d="M53.4534 148.508C52.4008 141.828 52.9383 134.994 55.0225 128.559C57.1067 122.123 60.6794 116.266 65.4526 111.458C66.5668 125.227 62.3614 139.253 53.4534 148.508Z" fill="white"/>
<path d="M4.99951 100.944C33.3919 119.04 55.5904 146.009 67.3096 176.65" stroke="#E5E8E9" stroke-miterlimit="10" stroke-linecap="round"/>
<path d="M42.0771 99.2652C45.5342 113.209 47.6389 127.452 48.3624 141.797" stroke="#E5E8E9" stroke-miterlimit="10" stroke-linecap="round"/>
<path d="M63.3387 116.86C62.1893 128.179 58.7136 139.142 53.1279 149.066" stroke="#E5E8E9" stroke-miterlimit="10" stroke-linecap="round"/>
<path d="M5.97656 134.317C18.9937 136.778 32.2002 138.111 45.4482 138.302" stroke="#E5E8E9" stroke-miterlimit="10" stroke-linecap="round"/>
<path d="M13.7935 151.058C25.7694 150.189 37.5104 147.302 48.5168 142.52" stroke="#E5E8E9" stroke-miterlimit="10" stroke-linecap="round"/>
<path d="M21.0103 167.013L54.2309 150.506" stroke="#E5E8E9" stroke-miterlimit="10" stroke-linecap="round"/>
<path d="M28.2095 176.73C42.6714 173.946 46.9625 170.633 63.0128 166.045" stroke="#E5E8E9" stroke-miterlimit="10" stroke-linecap="round"/>
<path d="M119.74 150.352C119.74 150.352 120.992 161.776 122.392 162.693C124.894 164.338 153.864 168.14 153.864 168.14L152.915 175.648C152.915 175.648 113.238 179.2 111.552 177.225C108.627 173.809 103.484 157.268 103.484 157.268L119.74 150.352Z" fill="#E06A58"/>
<path d="M100.61 120.935L103.816 113.268C103.816 113.268 112.512 117.338 115.381 122.375C118.449 127.749 122.203 156.318 122.203 156.318C122.203 156.318 106.85 159.841 104.027 158.344C101.205 156.847 100.61 120.935 100.61 120.935Z" fill="#3171FF"/>
<path d="M76.1949 85.3479C73.9494 84.5283 71.5724 83.8111 69.1668 83.9932C66.7613 84.1754 64.3043 85.4618 63.5044 87.5508C62.933 89.0421 63.1901 90.801 62.2702 92.1444C61.3502 93.4877 59.6418 93.9659 58.0076 94.074C56.3734 94.1822 54.7164 93.9715 53.0879 94.1822C48.0597 94.8481 44.4714 100.29 46.1227 104.747C46.7798 106.523 48.1282 108.219 47.8368 110.069C47.5111 112.05 45.4256 113.353 44.5685 115.192C43.4257 117.639 44.7913 120.605 47.0369 122.273C49.2825 123.941 52.1794 124.55 55.0364 124.988C58.9389 125.557 62.9672 125.842 66.8241 125.022C70.681 124.202 74.3665 122.176 76.3606 119.011C77.2463 117.611 77.7834 116.029 78.8119 114.714C80.9375 111.999 84.7029 110.946 87.6684 109.022C90.9082 106.91 93.2852 102.8 91.3768 99.584C89.5369 96.4932 84.7486 95.8044 82.8059 92.7534C82.0117 91.4955 81.8231 89.9984 81.3089 88.6266C80.7946 87.2548 79.5033 86.5604 76.1949 85.3479Z" fill="#0A2240"/>
<path d="M89.2799 123.263C89.8513 123.912 90.5141 124.624 91.4397 124.686C92.3654 124.749 93.2339 124.066 93.8624 123.4C97.0405 120.081 99.2183 115.939 100.148 111.446C99.3421 110.991 98.565 110.553 97.8622 110.143C97.2364 109.783 96.739 109.238 96.4394 108.583C96.2464 108.119 96.1737 107.614 96.228 107.115C96.5185 103.356 97.3161 99.6529 98.5992 96.1061C91.434 94.4952 84.6745 92.5827 80.789 89.3495C80.3148 91.3418 79.7548 95.2409 78.5606 99.1058C77.2864 103.198 75.298 107.246 71.9268 108.987C78.4353 112.798 84.2931 117.617 89.2799 123.263Z" fill="#F9A07B"/>
<path d="M96.1991 107.12C96.1446 107.62 96.2173 108.125 96.4105 108.589C92.1708 113.712 82.6972 107.018 78.5317 99.1116C79.7259 95.2466 80.2859 91.3475 80.7602 89.3552C84.6399 92.5884 91.4052 94.4782 98.5704 96.1118C97.2867 99.6584 96.4891 103.361 96.1991 107.12Z" fill="#E06A58"/>
<path d="M108.004 169.051C107.067 175.233 113.764 181.887 113.929 185.188C99.7075 185.188 69.9323 186.053 54.7448 183.998C54.0534 180.185 61.5443 171.607 61.5443 163.137C61.5443 161.998 61.4986 160.786 61.4072 159.465C61.1672 155.686 60.6072 151.189 59.9844 146.578C58.2703 134.209 56.0418 120.964 57.6989 118.237C60.9558 112.892 68.5553 109.261 72.3493 107.701C73.6464 107.166 74.492 106.876 74.5549 106.841C79.2917 114.89 88.9311 121.755 92.5708 121.447C93.5822 121.368 96.5705 120.309 98.5647 110.382C99.3361 110.82 100.107 111.224 100.85 111.617C104.616 113.57 108.147 115.18 109.164 117.691C111.85 124.299 114.484 140.96 113.901 146.886C113.318 152.811 110.93 157.428 109.215 163.444C108.821 164.85 108.461 166.341 108.17 167.947C108.118 168.288 108.073 168.664 108.004 169.051Z" fill="#407BFF"/>
<path d="M113.929 185.188C99.7075 185.188 69.9323 186.053 54.7448 183.998C54.0534 180.185 61.5443 171.607 61.5443 163.137C61.5443 161.998 61.4986 160.786 61.4072 159.465C61.1672 155.686 60.6072 151.189 59.9844 146.578C62.6757 149.424 66.6011 137.471 68.3382 140.954C77.7375 159.852 85.1485 164.822 98.0504 164.822C101.813 164.787 105.558 164.325 109.215 163.444C108.821 164.85 108.461 166.341 108.17 167.947C108.101 168.326 108.038 168.706 107.981 169.085C107.067 175.227 113.787 181.881 113.929 185.188Z" fill="#3171FF"/>
<path d="M100.879 111.646C100.267 116.068 98.4561 122.028 93.1879 123.599C86.0683 125.722 75.7662 112.471 72.355 107.729C73.652 107.194 74.4977 106.904 74.5605 106.87C79.2974 114.919 88.9367 121.783 92.5765 121.476C93.5878 121.396 96.5762 120.338 98.5704 110.41C99.3417 110.815 100.113 111.219 100.879 111.646Z" fill="#3171FF"/>
<path d="M103.804 178.534L103.753 183.469L192.318 183.998L192.501 178.403L103.804 178.534Z" fill="#7D8488"/>
<path d="M230.705 134.511L228.733 132.519L164.223 132.092L131.86 178.722L133.551 180.077L230.705 134.511Z" fill="#263238"/>
<path d="M165.469 133.817L133.551 180.077L194.518 180.373L230.704 134.511L165.469 133.817Z" fill="#7D8488"/>
<path d="M180.874 163.342C184.793 163.342 187.97 161.759 187.97 159.807C187.97 157.855 184.793 156.272 180.874 156.272C176.954 156.272 173.777 157.855 173.777 159.807C173.777 161.759 176.954 163.342 180.874 163.342Z" fill="#3C738C"/>
<path d="M118.011 90.5588C119.017 85.1845 116.947 80.2921 113.389 79.6313C109.831 78.9705 106.131 82.7915 105.125 88.1658C104.119 93.54 106.189 98.4325 109.747 99.0933C113.305 99.7541 117.005 95.9331 118.011 90.5588Z" fill="#56C4F9"/>
<path d="M118.009 73.6791C117.347 78.358 115.25 83.5151 112.193 89.2129C111.118 84.5454 110.433 78.8589 109.484 73.1725C108.536 67.486 107.29 61.7882 105.159 57.1206C104.696 56.1153 104.173 55.1383 103.593 54.1949C104.857 54.078 106.131 54.1918 107.353 54.5307C109.264 55.0459 111.026 56.0035 112.496 57.3255C114.875 59.5435 116.607 62.3623 117.507 65.4824C118.295 68.1414 118.467 70.9442 118.009 73.6791Z" fill="#0B2D50"/>
<path d="M114.421 78.5174C114.386 79.4395 114.324 80.3787 114.238 81.3123C112.935 96.4533 106.553 106.841 96.7877 106.841C83 106.841 74.0635 91.4386 74.0635 76.3487C74.0635 61.4638 83.2057 50.6885 93.9307 51.9351C100.107 52.6409 104.621 54.6844 107.827 57.6785C109.919 59.6692 111.526 62.111 112.524 64.8164C113.73 68.1128 114.369 71.5882 114.415 75.0964C114.415 75.0964 114.415 75.0964 114.415 75.1306C114.472 76.2349 114.461 77.3619 114.421 78.5174Z" fill="#F9A07B"/>
<path d="M114.421 78.5174C114.016 77.0415 113.39 75.6349 112.564 74.345C104.264 78.649 94.7895 80.1645 85.5542 78.6654L80.3774 82.9743C80.4117 76.0868 80.5089 71.425 83.2058 68.0894C85.7371 64.9587 89.9597 63.7804 93.9594 63.2681C98.4656 62.6788 103.032 62.7076 107.53 63.3535C109.276 63.5219 110.973 64.0224 112.53 64.8278C113.736 68.1242 114.375 71.5996 114.421 75.1078C114.421 75.1078 114.421 75.1078 114.421 75.1419C114.472 76.2348 114.461 77.3619 114.421 78.5174Z" fill="#E06A58"/>
<path d="M116.409 69.1936C114.326 70.8768 111.989 72.2215 109.484 73.1781C101.907 76.2234 92.0623 77.2309 84.3885 76.861C80.6173 85.1146 79.0917 88.0745 78.1032 95.275C74.4177 91.8313 71.4179 85.5244 70.5266 80.5665C69.5833 75.5934 69.7786 70.4723 71.098 65.5848C71.9608 62.6317 73.4248 59.8871 75.3987 57.5221C77.3727 55.1571 79.8143 53.2224 82.5715 51.8383C83.3694 51.4075 84.1939 51.0272 85.0399 50.6999C89.9024 48.8272 95.382 48.9922 100.37 50.5177C102.953 51.3291 105.322 52.7017 107.307 54.5364C111.198 58.0371 113.592 62.7786 115.158 66.3305C115.689 67.4177 116.072 68.3854 116.409 69.1936Z" fill="#0B2D50"/>
<path d="M118.009 73.6791C117.704 72.0284 117.219 70.4156 116.564 68.8692C116.185 67.9834 115.73 67.132 115.204 66.3248C113.528 63.5765 110.95 61.4893 107.907 60.4164C107.082 59.2545 106.165 58.16 105.164 57.1434C102.004 53.8586 97.8601 51.6818 93.3538 50.939C89.7557 50.3703 86.0727 50.6828 82.623 51.8497C83.421 51.4189 84.2454 51.0386 85.0914 50.7113C89.954 48.8386 95.4336 49.0037 100.422 50.5292C103.004 51.3405 105.374 52.7131 107.359 54.5478C109.27 55.063 111.032 56.0206 112.501 57.3426C114.881 59.5606 116.612 62.3794 117.512 65.4995C118.293 68.154 118.463 70.95 118.009 73.6791Z" fill="#225570"/>
<path d="M88.7827 82.9629C91.3311 81.5114 93.9767 80.8568 97.685 82.2059" stroke="#0B2D50" stroke-width="2" stroke-miterlimit="10" stroke-linecap="round"/>
<path d="M106.233 82.8605C108.416 81.2382 111.65 81.0731 113.335 82.8605" stroke="#0B2D50" stroke-width="2" stroke-miterlimit="10" stroke-linecap="round"/>
<path d="M103.599 91.1539C103.821 92.2924 103.701 94.8481 103.153 95.9923" stroke="#CC454E" stroke-width="2" stroke-miterlimit="10" stroke-linecap="round"/>
<path d="M94.9879 91.911C95.5685 91.911 96.0392 91.172 96.0392 90.2603C96.0392 89.3486 95.5685 88.6096 94.9879 88.6096C94.4072 88.6096 93.9365 89.3486 93.9365 90.2603C93.9365 91.172 94.4072 91.911 94.9879 91.911Z" fill="#262D40"/>
<path d="M108.73 91.1426C109.311 91.1426 109.781 90.4035 109.781 89.4918C109.781 88.5802 109.311 87.8411 108.73 87.8411C108.149 87.8411 107.679 88.5802 107.679 89.4918C107.679 90.4035 108.149 91.1426 108.73 91.1426Z" fill="#262D40"/>
<path d="M102.296 98.2236C102.127 98.5492 101.936 98.863 101.724 99.1628C100.963 100.264 99.88 101.105 98.6218 101.571C97.9785 101.779 97.2929 101.824 96.6276 101.701C94.4792 101.32 93.9135 99.3449 93.8107 97.8251C93.7968 97.5521 93.7968 97.2785 93.8107 97.0055C93.8146 96.6625 93.8413 96.3203 93.8907 95.9809C97.2619 97.8593 102.296 98.2236 102.296 98.2236Z" fill="#CC454E"/>
<path d="M102.296 98.2236C102.127 98.5492 101.936 98.863 101.725 99.1628C99.9762 99.1628 96.3993 98.2463 93.7881 97.0055C93.792 96.6625 93.8187 96.3203 93.8681 95.9809C97.2621 97.8593 102.296 98.2236 102.296 98.2236Z" fill="white"/>
<path d="M98.5875 101.565C97.9442 101.774 97.2586 101.819 96.5933 101.696C94.4449 101.314 93.8792 99.3392 93.7764 97.8194C94.8467 97.9419 95.8623 98.3565 96.7112 99.0174C97.5602 99.6783 98.2094 100.56 98.5875 101.565Z" fill="#E8729B"/>
<path d="M78.1603 80.3389C78.2286 75.4869 79.1972 70.6893 81.0172 66.1882C84.737 57.337 92.3193 53.5517 99.6731 53.2955C102.329 53.2329 104.97 53.6968 107.444 54.6603C109.918 55.6238 112.175 57.0677 114.084 58.908C114.084 58.908 111.198 53.8363 105.513 52.3791C101.776 51.4228 96.1362 51.2407 91.6108 53.102C86.9482 54.9861 81.1372 60.2172 79.0402 65.7442C76.9432 71.2713 75.9204 79.8778 75.9204 79.8778L78.1603 80.3389Z" fill="#3D86E0"/>
<path d="M77.083 98.465C80.8601 98.0849 83.4533 93.1547 82.8752 87.4531C82.2971 81.7515 78.7665 77.4375 74.9894 77.8176C71.2123 78.1976 68.6191 83.1278 69.1972 88.8295C69.7753 94.5311 73.3059 98.8451 77.083 98.465Z" fill="#56C4F9"/>
<path d="M76.277 96.9882C78.7267 96.6213 80.1873 92.8436 79.5394 88.5504C78.8915 84.2572 76.3804 81.0743 73.9307 81.4412C71.481 81.8081 70.0204 85.5858 70.6683 89.879C71.3162 94.1722 73.8273 97.3551 76.277 96.9882Z" fill="#3D86E0"/>
<path d="M99.7188 107.052C101.751 107.052 103.399 106.03 103.399 104.77C103.399 103.509 101.751 102.487 99.7188 102.487C97.6865 102.487 96.0391 103.509 96.0391 104.77C96.0391 106.03 97.6865 107.052 99.7188 107.052Z" fill="#3A92C9"/>
<path d="M81.2173 97.1364C81.2173 97.1364 86.6226 104.058 96.022 104.77" stroke="#3A92C9" stroke-width="2" stroke-miterlimit="10" stroke-linecap="round"/>
<path d="M103.753 165.357L103.399 174.464C103.399 174.464 70.3612 184.323 64.8987 181.204C62.236 179.678 59.7562 171.288 57.8934 163.097C55.9507 154.49 54.7051 146.112 54.7051 146.112L74.0752 142.332C74.0752 142.332 74.0752 154.098 74.7437 160.9C74.978 163.433 75.3151 165.277 75.7665 165.579C77.475 166.7 103.753 165.357 103.753 165.357Z" fill="#F9A07B"/>
<path d="M74.7437 160.888C71.224 162.027 64.4587 163.786 57.8934 163.091C55.9507 154.485 54.7051 146.106 54.7051 146.106L74.0752 142.326C74.0752 142.326 74.0866 154.086 74.7437 160.888Z" fill="#E06A58"/>
<path d="M102.81 165.448C107.724 164.4 116.044 161.884 119.495 161.019C121.946 160.405 128.329 163.695 130.014 166.797C130.751 168.152 131.449 175.825 128.872 175.033C127.592 174.635 127.803 171.345 127.403 170.001C127.077 168.909 126.037 167.85 124.455 166.939C125.512 169.563 125.472 171.851 125.358 174.686C125.38 175.313 125.255 175.937 124.992 176.508C124.857 176.785 124.629 177.006 124.346 177.132C124.064 177.258 123.746 177.281 123.449 177.196C122.878 176.957 122.666 176.234 122.535 175.603C122.019 173.352 121.654 171.07 121.443 168.772C121.489 171.203 121.443 173.639 121.283 176.064C121.169 177.919 120.244 178.938 119.107 178.614C118.598 178.471 118.392 178.005 118.175 177.39C117.832 178.58 116.975 179.894 115.89 179.393C115.215 179.092 114.798 176.667 114.918 174.174C112.705 175.463 110.191 176.152 107.627 176.172C105.147 176.286 102.61 175.825 101.119 174.145C101.385 171.197 101.952 168.282 102.81 165.448Z" fill="#F9A07B"/>
<path d="M118.249 177.003C118.416 175.032 118.244 173.047 117.741 171.134" stroke="#CC454E" stroke-miterlimit="10" stroke-linecap="round"/>
<path d="M71.8978 123.241C70.4922 119.296 65.344 111.224 65.344 111.224C65.344 111.224 57.4874 114.48 54.699 120.007C49.9793 129.365 52.3791 156.232 52.3791 156.232C58.7387 158.885 71.5036 158.925 76.9489 158.162C76.9375 158.162 74.7148 131.124 71.8978 123.241Z" fill="#3171FF"/>
<path d="M72.8979 124.891C74.9356 134.465 76.1588 144.193 76.5548 153.972" stroke="#2062F5" stroke-miterlimit="10" stroke-linecap="round"/>
<path d="M241.058 182.37H15.7705V188H241.058V182.37Z" fill="#0740C2"/>
</g>
<defs>
<clipPath id="clip0_175_5899">
<rect width="255" height="188" fill="white"/>
</clipPath>
</defs>
</svg>
