<svg width="302" height="198" viewBox="0 0 302 198" fill="none" xmlns="http://www.w3.org/2000/svg">
<g clip-path="url(#clip0_1314_19608)">
<path d="M287.076 16.2472H9.17188C4.10639 16.2472 0 20.3 0 25.2994V188.617C0 193.616 4.10639 197.669 9.17188 197.669H287.076C292.142 197.669 296.248 193.616 296.248 188.617V25.2994C296.248 20.3 292.142 16.2472 287.076 16.2472Z" fill="#A6A6A6"/>
<path d="M285.66 52.8132C285.667 52.3166 285.574 51.8235 285.386 51.3627C285.199 50.9019 284.92 50.4825 284.566 50.1291C284.213 49.7756 283.792 49.4951 283.327 49.304C282.863 49.1128 282.364 49.0147 281.861 49.0155L14.5969 47.9229C14.0807 47.9194 13.569 48.0172 13.0915 48.2108C12.614 48.4043 12.1804 48.6898 11.8158 49.0504C11.4512 49.4111 11.163 49.8398 10.968 50.3115C10.773 50.7832 10.675 51.2884 10.6799 51.7979V182.733C10.6799 184.819 12.3157 186.204 14.4751 186.204H280.452C281.488 186.204 282.494 185.953 283.241 185.233C283.607 184.897 283.9 184.492 284.103 184.041C284.306 183.59 284.414 183.104 284.422 182.611L285.66 52.8132Z" fill="white"/>
<path d="M78.5993 30.5217C77.8596 28.9986 76.3 27.8989 74.5878 27.8989H22.6156C21.1488 27.8989 19.7746 28.7439 18.9458 29.9386L12.0605 39.9255C11.9169 40.1382 11.8335 40.3848 11.8188 40.64C11.8041 40.8951 11.8586 41.1495 11.9769 41.3768C12.0948 41.6024 12.2722 41.7923 12.4904 41.9265C12.7086 42.0607 12.9595 42.1342 13.2165 42.1393H81.9511C82.1875 42.1407 82.4205 42.0829 82.6281 41.9712C82.8357 41.8595 83.0112 41.6976 83.138 41.5006C83.2644 41.2915 83.3375 41.0552 83.3508 40.8121C83.3641 40.5689 83.3173 40.3262 83.2144 40.1049L78.5993 30.5217Z" fill="#FF6C37"/>
<path d="M141.152 29.6713C140.447 28.6452 139.273 27.8989 138.015 27.8989H87.0443C86.4372 27.8989 85.8737 28.3438 85.5574 28.8569C85.402 29.121 85.3155 29.4191 85.3056 29.7244C85.2958 30.0297 85.3629 30.3326 85.5011 30.606L90.6523 40.3974C90.9244 40.9179 91.3353 41.3553 91.8408 41.6623C92.3462 41.9693 92.9271 42.1342 93.5205 42.1393H147.287C147.511 42.1389 147.73 42.0786 147.922 41.9649C148.114 41.8512 148.272 41.6883 148.377 41.4935C148.484 41.2854 148.533 41.0535 148.521 40.8206C148.509 40.5878 148.436 40.3622 148.308 40.1659L141.152 29.6713Z" fill="#FF6C37"/>
<path d="M212.542 40.4207L204.97 29.2641C204.439 28.4927 203.556 27.8989 202.607 27.8989H149.621C149.021 27.8989 148.468 28.3528 148.179 28.8712C148.037 29.138 147.968 29.4365 147.977 29.7376C147.987 30.0388 148.075 30.3323 148.234 30.5898L154.565 40.4225C154.898 40.9441 155.359 41.3748 155.905 41.6748C156.451 41.9748 157.064 42.1345 157.689 42.1393H211.612C211.815 42.141 212.015 42.0878 212.19 41.9853C212.365 41.8828 212.508 41.735 212.604 41.558C212.7 41.3809 212.745 41.1813 212.734 40.9808C212.723 40.7803 212.657 40.5866 212.542 40.4207Z" fill="#FF6C37"/>
<path d="M239.429 40.8979C237.892 40.8983 236.389 40.4488 235.111 39.6062C233.833 38.7636 232.836 37.5659 232.248 36.1645C231.66 34.7631 231.506 33.2209 231.805 31.7331C232.105 30.2453 232.845 28.8786 233.932 27.8059C235.019 26.7333 236.404 26.0028 237.911 25.707C239.419 25.4111 240.981 25.5631 242.401 26.1438C243.821 26.7245 245.035 27.7077 245.888 28.9692C246.742 30.2307 247.198 31.7136 247.197 33.2306C247.195 35.2634 246.376 37.2122 244.919 38.6496C243.463 40.087 241.488 40.8956 239.429 40.8979ZM239.429 27.5097C238.282 27.5097 237.161 27.8452 236.208 28.4739C235.255 29.1025 234.512 29.996 234.073 31.0413C233.635 32.0867 233.52 33.237 233.743 34.3467C233.967 35.4564 234.519 36.4758 235.33 37.2759C236.14 38.076 237.173 38.6208 238.298 38.8416C239.422 39.0623 240.588 38.949 241.647 38.516C242.706 38.083 243.611 37.3498 244.248 36.409C244.885 35.4682 245.225 34.3621 245.225 33.2306C245.222 31.7145 244.61 30.2614 243.524 29.1897C242.437 28.1181 240.965 27.5152 239.429 27.5133V27.5097Z" fill="#FF6C37"/>
<path d="M258.634 40.8978C257.097 40.8978 255.594 40.448 254.317 39.6052C253.039 38.7624 252.043 37.5646 251.455 36.1631C250.867 34.7617 250.713 33.2196 251.013 31.7319C251.313 30.2442 252.053 28.8776 253.14 27.8052C254.227 26.7327 255.611 26.0024 257.119 25.7067C258.626 25.411 260.189 25.5631 261.609 26.1439C263.028 26.7246 264.242 27.7078 265.096 28.9693C265.949 30.2307 266.405 31.7136 266.404 33.2305C266.402 35.2637 265.583 37.2131 264.126 38.6506C262.669 40.0882 260.694 40.8964 258.634 40.8978ZM258.634 27.5096C257.487 27.5096 256.367 27.8451 255.413 28.4737C254.46 29.1024 253.717 29.9958 253.278 31.0412C252.84 32.0866 252.725 33.2368 252.949 34.3466C253.172 35.4563 253.724 36.4757 254.535 37.2758C255.346 38.0759 256.379 38.6207 257.503 38.8415C258.627 39.0622 259.793 38.9489 260.852 38.5159C261.911 38.0829 262.816 37.3496 263.453 36.4088C264.09 35.4681 264.43 34.362 264.43 33.2305C264.427 31.7144 263.816 30.2613 262.729 29.1896C261.643 28.1179 260.17 27.5151 258.634 27.5132V27.5096Z" fill="#FCF7F4"/>
<path d="M258.686 40.8978C257.149 40.8982 255.647 40.4486 254.369 39.6061C253.091 38.7635 252.094 37.5658 251.506 36.1644C250.918 34.7629 250.764 33.2208 251.063 31.733C251.363 30.2451 252.103 28.8785 253.19 27.8058C254.277 26.7332 255.662 26.0027 257.169 25.7068C258.677 25.411 260.239 25.563 261.659 26.1437C263.079 26.7244 264.292 27.7076 265.146 28.9691C266 30.2305 266.455 31.7135 266.455 33.2305C266.453 35.2633 265.633 37.2121 264.177 38.6495C262.721 40.0869 260.746 40.8954 258.686 40.8978ZM258.686 27.5096C257.54 27.5096 256.419 27.8451 255.466 28.4737C254.513 29.1024 253.77 29.9958 253.331 31.0412C252.892 32.0866 252.778 33.2368 253.001 34.3466C253.225 35.4563 253.777 36.4757 254.588 37.2758C255.398 38.0759 256.431 38.6207 257.556 38.8415C258.68 39.0622 259.845 38.9489 260.905 38.5159C261.964 38.0829 262.869 37.3496 263.506 36.4088C264.143 35.4681 264.483 34.362 264.483 33.2305C264.48 31.7144 263.868 30.2613 262.782 29.1896C261.695 28.1179 260.222 27.5151 258.686 27.5132V27.5096Z" fill="#FF6C37"/>
<path d="M277.892 40.8979C276.355 40.8979 274.852 40.4481 273.574 39.6053C272.296 38.7626 271.3 37.5647 270.712 36.1632C270.124 34.7618 269.971 33.2197 270.271 31.732C270.571 30.2443 271.311 28.8778 272.398 27.8053C273.485 26.7328 274.869 26.0025 276.377 25.7068C277.884 25.4111 279.447 25.5633 280.866 26.144C282.286 26.7247 283.5 27.708 284.353 28.9694C285.207 30.2308 285.662 31.7137 285.662 33.2306C285.66 35.2638 284.841 37.2132 283.384 38.6508C281.927 40.0883 279.952 40.8965 277.892 40.8979ZM277.892 27.5097C276.745 27.5097 275.624 27.8452 274.671 28.4739C273.718 29.1025 272.975 29.996 272.536 31.0413C272.098 32.0867 271.983 33.237 272.206 34.3467C272.43 35.4564 272.982 36.4758 273.793 37.2759C274.603 38.076 275.636 38.6208 276.761 38.8416C277.885 39.0623 279.051 38.949 280.11 38.516C281.169 38.083 282.074 37.3498 282.711 36.409C283.348 35.4682 283.688 34.3621 283.688 33.2306C283.685 31.7145 283.073 30.2614 281.987 29.1897C280.9 28.1181 279.428 27.5152 277.892 27.5133V27.5097Z" fill="#FF6C37"/>
<path d="M91.1962 13.9257C92.2506 7.51508 87.8398 1.47472 81.3445 0.434135C74.8492 -0.60645 68.729 3.74679 67.6747 10.1574C66.6203 16.568 71.0311 22.6083 77.5264 23.6489C84.0217 24.6895 90.1419 20.3363 91.1962 13.9257Z" fill="#407BFF"/>
<path d="M90.7335 14.5567C91.9421 8.40375 87.8681 2.44876 81.6339 1.25584C75.3996 0.0629281 69.3659 4.08382 68.1573 10.2368C66.9486 16.3897 71.0226 22.3447 77.2568 23.5376C83.4911 24.7305 89.5248 20.7096 90.7335 14.5567Z" fill="#407BFF"/>
<path opacity="0.62" d="M69.9312 7.4802C69.9053 7.48028 69.8797 7.47412 69.8567 7.46226C69.8372 7.45257 69.8198 7.43915 69.8055 7.42278C69.7913 7.40641 69.7805 7.38742 69.7737 7.3669C69.767 7.34638 69.7644 7.32474 69.7662 7.30324C69.7679 7.28173 69.774 7.26079 69.784 7.24161C70.6801 5.47558 72.0577 3.99137 73.7619 2.95596C75.466 1.92056 77.4291 1.37504 79.4303 1.38078C80.0833 1.38277 80.7349 1.44281 81.377 1.56018C81.4203 1.56805 81.4586 1.59242 81.4838 1.62801C81.509 1.6636 81.5189 1.70755 81.5115 1.75033C81.508 1.77169 81.5002 1.79213 81.4886 1.81045C81.4769 1.82877 81.4616 1.84459 81.4437 1.85698C81.4257 1.86936 81.4054 1.87805 81.3839 1.88254C81.3625 1.88702 81.3404 1.88721 81.3188 1.88309C80.6957 1.77177 80.0636 1.71594 79.4303 1.71625C77.4905 1.71047 75.5875 2.23922 73.9356 3.24297C72.2837 4.24671 70.9485 5.68561 70.0803 7.39768C70.0654 7.42352 70.0437 7.44487 70.0174 7.45941C69.9911 7.47395 69.9613 7.48114 69.9312 7.4802Z" fill="white"/>
<path opacity="0.62" d="M89.4155 12.8176C89.7132 7.51221 85.5969 2.97317 80.2214 2.67934C74.846 2.38551 70.2469 6.44816 69.9492 11.7535C69.6515 17.0589 73.7678 21.5979 79.1433 21.8918C84.5188 22.1856 89.1178 18.1229 89.4155 12.8176Z" fill="white"/>
<path d="M78.7253 19.4387V18.3928C77.7026 18.3553 76.6947 18.1397 75.748 17.7559C75.6139 17.6961 75.506 17.5908 75.444 17.4591C75.382 17.3274 75.3699 17.1781 75.4099 17.0384L75.6789 16.0625C75.7024 15.9785 75.7438 15.9004 75.8004 15.8336C75.857 15.7667 75.9275 15.7126 76.007 15.6748C76.0866 15.6371 76.1734 15.6166 76.2617 15.6148C76.3499 15.613 76.4376 15.6298 76.5187 15.6642C77.3874 16.0303 78.3206 16.2241 79.2652 16.2347C80.3303 16.2347 81.1246 15.8759 81.1246 15.1475C81.1246 14.4892 80.5121 14.0963 79.0307 13.7124C76.9204 13.1419 75.3954 12.2342 75.3954 10.399C75.3954 8.74136 76.6241 7.47663 78.7526 7.13937V6.09529C78.7526 5.93353 78.8177 5.77838 78.9336 5.664C79.0495 5.54961 79.2067 5.48535 79.3706 5.48535H79.994C80.1579 5.48535 80.3151 5.54961 80.431 5.664C80.5469 5.77838 80.612 5.93353 80.612 6.09529V7.03532C81.4166 7.05547 82.2134 7.19642 82.975 7.45331C83.1208 7.50483 83.2415 7.60898 83.3127 7.74479C83.3838 7.8806 83.4002 8.03799 83.3585 8.18524L83.1113 9.08221C83.089 9.16437 83.0494 9.24099 82.9952 9.30713C82.941 9.37326 82.8734 9.42744 82.7966 9.46615C82.7199 9.50487 82.6358 9.52726 82.5497 9.53189C82.4636 9.53652 82.3776 9.52328 82.297 9.49303C81.5586 9.21596 80.7749 9.07548 79.985 9.07863C78.7217 9.07863 78.36 9.59528 78.36 10.0581C78.36 10.6286 79.1179 11.0197 80.7611 11.5202C83.1077 12.2144 84.0819 13.176 84.0819 14.9036C84.0819 16.4894 82.8896 17.9156 80.5793 18.2708V19.4423C80.5793 19.604 80.5142 19.7592 80.3983 19.8735C80.2824 19.9879 80.1252 20.0522 79.9613 20.0522H79.3379C79.1743 20.0508 79.0179 19.9854 78.9031 19.8704C78.7883 19.7554 78.7243 19.6001 78.7253 19.4387Z" fill="#407BFF"/>
<path d="M60.1932 24.9269C60.7884 15.4853 53.5158 7.35514 43.9494 6.76775C34.383 6.18035 26.1455 13.3581 25.5503 22.7997C24.9551 32.2413 32.2277 40.3714 41.7941 40.9588C51.3605 41.5462 59.5981 34.3685 60.1932 24.9269Z" fill="#407BFF"/>
<path d="M59.598 25.1246C60.304 16.0064 53.3869 8.04977 44.1482 7.35296C34.9094 6.65615 26.8476 13.4831 26.1416 22.6013C25.4356 31.7195 32.3527 39.6761 41.5914 40.3729C50.8302 41.0698 58.8919 34.2429 59.598 25.1246Z" fill="#407BFF"/>
<path opacity="0.62" d="M29.0416 17.2285C29.0036 17.2281 28.9663 17.2189 28.9326 17.2016C28.9043 17.1875 28.8792 17.1681 28.8586 17.1444C28.838 17.1207 28.8224 17.0932 28.8126 17.0635C28.8028 17.0339 28.799 17.0026 28.8015 16.9715C28.804 16.9403 28.8127 16.91 28.8271 16.8823C30.3589 13.8872 32.8314 11.4617 35.8753 9.96821C38.9192 8.47469 42.371 7.99331 45.715 8.59601C45.7781 8.60743 45.8341 8.64315 45.8706 8.69529C45.907 8.74744 45.921 8.81175 45.9095 8.87407C45.8979 8.9364 45.8617 8.99164 45.8089 9.02764C45.756 9.06364 45.6909 9.07745 45.6277 9.06603C42.3864 8.48229 39.0407 8.94905 36.0904 10.3966C33.14 11.8441 30.7432 14.1948 29.2579 17.0975C29.2377 17.137 29.2068 17.1701 29.1686 17.1933C29.1304 17.2164 29.0864 17.2286 29.0416 17.2285Z" fill="white"/>
<path opacity="0.62" d="M43.2425 38.2428C51.0846 38.2428 57.442 31.9684 57.442 24.2285C57.442 16.4886 51.0846 10.2142 43.2425 10.2142C35.4003 10.2142 29.043 16.4886 29.043 24.2285C29.043 31.9684 35.4003 38.2428 43.2425 38.2428Z" fill="white"/>
<path d="M41.8461 34.6477V33.1229C40.3595 33.0673 38.8944 32.7534 37.5183 32.1954C37.3233 32.1087 37.1663 31.9559 37.0759 31.7646C36.9854 31.5733 36.9676 31.3563 37.0257 31.1531L37.4165 29.7323C37.4518 29.6106 37.5127 29.4977 37.5954 29.4009C37.678 29.3042 37.7805 29.2258 37.896 29.1709C38.0116 29.116 38.1376 29.0858 38.2658 29.0824C38.3939 29.079 38.5214 29.1024 38.6398 29.1511C39.9043 29.6853 41.2632 29.9682 42.6386 29.9835C44.1891 29.9835 45.3469 29.4632 45.3469 28.3994C45.3469 27.4396 44.4526 26.8692 42.2969 26.2987C39.2214 25.4681 37.013 24.146 37.013 21.4712C37.013 19.0583 38.7997 17.2159 41.9025 16.7226V15.1978C41.9048 14.963 42.0004 14.7385 42.1686 14.5724C42.3368 14.4064 42.5643 14.3121 42.8022 14.3098H43.711C43.9505 14.3097 44.1803 14.403 44.3505 14.5693C44.5206 14.7356 44.6175 14.9614 44.6199 15.1978V16.5665C45.7898 16.5954 46.9484 16.8011 48.0552 17.1765C48.2696 17.2521 48.4468 17.4055 48.5508 17.6054C48.6548 17.8053 48.6778 18.0368 48.6151 18.2528L48.2424 19.5499C48.2097 19.6693 48.152 19.7806 48.0731 19.8767C47.9941 19.9728 47.8957 20.0516 47.7841 20.1078C47.6724 20.1641 47.5501 20.1967 47.4249 20.2035C47.2998 20.2103 47.1745 20.1911 47.0573 20.1473C45.9805 19.7465 44.8383 19.544 43.6874 19.5499C41.8461 19.5499 41.3244 20.3015 41.3244 20.9761C41.3244 21.8067 42.4278 22.3771 44.8216 23.1055C48.2388 24.1173 49.6584 25.5183 49.6584 28.0352C49.6584 30.344 47.9225 32.4196 44.558 32.9399V34.6459C44.5557 34.8823 44.4589 35.1081 44.2887 35.2744C44.1185 35.4407 43.8887 35.5339 43.6492 35.5339H42.7404C42.5038 35.5302 42.2779 35.4355 42.1109 35.27C41.9439 35.1045 41.8489 34.8813 41.8461 34.6477Z" fill="#407BFF"/>
<path d="M196.14 94.2911H98.4247C88.9804 94.2911 81.3242 101.847 81.3242 111.169V115.51C81.3242 124.831 88.9804 132.387 98.4247 132.387H196.14C205.584 132.387 213.24 124.831 213.24 115.51V111.169C213.24 101.847 205.584 94.2911 196.14 94.2911Z" fill="#FF6C37"/>
<path d="M196.023 96.3253H98.3566C89.9854 96.3253 83.1992 103.023 83.1992 111.285V115.578C83.1992 123.84 89.9854 130.538 98.3566 130.538H196.023C204.394 130.538 211.18 123.84 211.18 115.578V111.285C211.18 103.023 204.394 96.3253 196.023 96.3253Z" fill="#FF6C37"/>
<path d="M116.852 122.289V103.812H120.82V119.051H128.414V122.28L116.852 122.289Z" fill="white"/>
<path d="M131.672 122.289V103.812H135.642V122.289H131.672Z" fill="white"/>
<path d="M156.954 122.289H151.91L143.767 108.313H143.65C143.812 110.781 143.893 112.541 143.894 113.594V122.289H140.348V103.812H145.353L153.486 117.652H153.575C153.447 115.25 153.387 113.553 153.393 112.559V103.813H156.965L156.954 122.289Z" fill="white"/>
<path d="M176.721 122.289H172.216L167.308 114.505L165.63 115.693V122.289H161.664V103.812H165.634V112.266L167.195 110.092L172.266 103.813H176.671L170.142 111.99L176.721 122.289Z" fill="white"/>
<path d="M112.429 128.319H103.621C103.521 128.319 103.426 128.28 103.356 128.21C103.286 128.141 103.246 128.047 103.246 127.949C103.246 127.851 103.286 127.757 103.356 127.688C103.426 127.618 103.521 127.58 103.621 127.58H112.429C112.528 127.58 112.623 127.618 112.694 127.688C112.764 127.757 112.803 127.851 112.803 127.949C112.803 128.047 112.764 128.141 112.694 128.21C112.623 128.28 112.528 128.319 112.429 128.319Z" fill="white"/>
<path d="M99.3198 128.319H96.7388C93.811 128.34 90.992 127.225 88.8901 125.213C87.8538 124.221 87.0312 123.033 86.4715 121.719C85.9118 120.406 85.6265 118.994 85.6329 117.569V112.785C85.6329 112.687 85.6724 112.593 85.7426 112.524C85.8128 112.454 85.908 112.415 86.0074 112.415C86.1067 112.415 86.2019 112.454 86.2721 112.524C86.3423 112.593 86.3818 112.687 86.3818 112.785V117.568C86.3764 118.892 86.6419 120.205 87.1626 121.426C87.6832 122.648 88.4482 123.753 89.4118 124.675C91.3725 126.55 94.0001 127.59 96.7297 127.572H99.3198C99.4191 127.572 99.5144 127.611 99.5846 127.681C99.6548 127.75 99.6943 127.844 99.6943 127.942C99.6943 128.04 99.6548 128.134 99.5846 128.203C99.5144 128.273 99.4191 128.311 99.3198 128.311V128.319Z" fill="white"/>
<path d="M113.252 149.116L116.422 125.642C116.508 125.011 115.695 124.372 115.095 124.593L92.5963 132.807C92.0819 132.987 92.1019 133.684 92.6327 134.102L95.7681 136.576C96.1698 136.896 96.2989 137.398 96.0553 137.699L82.2521 154.731C82.0085 155.032 82.1375 155.535 82.5392 155.852L92.6872 163.862C93.0907 164.18 93.6142 164.194 93.8596 163.893L107.661 146.861C107.905 146.558 108.43 146.572 108.833 146.89L111.967 149.363C112.492 149.79 113.179 149.65 113.252 149.116Z" fill="#EBEBEB"/>
<path d="M93.3504 165.039C92.8941 165.033 92.4535 164.874 92.1017 164.587L81.9537 156.579C81.6082 156.311 81.3601 155.939 81.2467 155.52C81.1826 155.289 81.1741 155.047 81.2218 154.812C81.2694 154.577 81.3719 154.356 81.5211 154.168L95.1844 137.305L92.0508 134.82C91.7845 134.622 91.5759 134.358 91.446 134.055C91.3161 133.752 91.2695 133.421 91.311 133.094C91.3523 132.836 91.4632 132.593 91.632 132.391C91.8008 132.189 92.0214 132.035 92.2707 131.946L114.771 123.733C115.081 123.641 115.41 123.625 115.727 123.686C116.045 123.746 116.343 123.882 116.596 124.082C116.849 124.282 117.049 124.539 117.179 124.831C117.309 125.124 117.364 125.444 117.342 125.762L114.17 149.236C114.138 149.496 114.035 149.743 113.872 149.95C113.71 150.157 113.493 150.317 113.246 150.413C112.933 150.525 112.596 150.553 112.268 150.494C111.94 150.436 111.634 150.294 111.38 150.081L108.244 147.605L94.581 164.468C94.4334 164.65 94.2459 164.795 94.0326 164.894C93.8193 164.993 93.586 165.043 93.3504 165.039ZM83.1116 155.144L93.2577 163.153L106.921 146.29C107.495 145.584 108.584 145.533 109.4 146.177L112.385 148.533L115.499 125.572C115.465 125.529 115.421 125.495 115.371 125.472L93.3613 133.505L96.3459 135.86C97.162 136.504 97.3511 137.565 96.7785 138.271L83.1116 155.144Z" fill="#407BFF"/>
<path d="M275.93 56.7491H181.092C179.805 56.7491 178.762 57.7788 178.762 59.049V62.4019C178.762 63.672 179.805 64.7017 181.092 64.7017H275.93C277.217 64.7017 278.26 63.672 278.26 62.4019V59.049C278.26 57.7788 277.217 56.7491 275.93 56.7491Z" fill="#407BFF"/>
<path d="M275.93 69.6943H181.092C179.805 69.6943 178.762 70.7239 178.762 71.9941V75.347C178.762 76.6172 179.805 77.6468 181.092 77.6468H275.93C277.217 77.6468 278.26 76.6172 278.26 75.347V71.9941C278.26 70.7239 277.217 69.6943 275.93 69.6943Z" fill="#407BFF"/>
<path d="M231.807 82.3003C231.801 82.2879 231.793 82.2767 231.784 82.2674C231.774 82.258 231.762 82.2507 231.75 82.2458C231.737 82.241 231.723 82.2387 231.71 82.2391C231.696 82.2395 231.683 82.2427 231.67 82.2483C231.646 82.2593 231.626 82.2793 231.617 82.3041C231.607 82.3289 231.607 82.3565 231.617 82.3811C231.687 82.5371 231.759 82.6914 231.837 82.8457C231.845 82.8602 231.856 82.8728 231.869 82.8824C231.882 82.8921 231.898 82.8986 231.914 82.9013C231.933 82.9075 231.954 82.9075 231.974 82.9013C231.998 82.8893 232.017 82.8683 232.026 82.8427C232.035 82.8172 232.033 82.7892 232.021 82.765C231.946 82.6053 231.874 82.4528 231.807 82.3003Z" fill="#263238"/>
<path d="M241.53 88.9756C241.218 88.9559 240.905 88.9254 240.596 88.8823H240.54C240.483 88.8733 240.436 88.8823 240.427 88.9307C240.418 88.9792 240.463 89.0025 240.52 89.0097H240.576C240.892 89.0545 241.207 89.1227 241.523 89.1406C241.579 89.1406 241.627 89.1191 241.63 89.0635C241.634 89.0079 241.587 88.9756 241.53 88.9756Z" fill="#263238"/>
<path d="M237.676 88.0786C237.372 87.9476 237.071 87.8041 236.78 87.648C236.756 87.6352 236.728 87.6322 236.702 87.6396C236.677 87.647 236.655 87.6642 236.642 87.6875C236.629 87.7111 236.625 87.7388 236.633 87.7647C236.64 87.7905 236.658 87.8124 236.682 87.8257C236.978 87.9853 237.285 88.1324 237.59 88.2652H237.616C237.638 88.2682 237.661 88.2638 237.681 88.2528C237.701 88.2418 237.716 88.2247 237.725 88.2042C237.734 88.181 237.734 88.1553 237.725 88.1321C237.716 88.1089 237.698 88.0898 237.676 88.0786Z" fill="#263238"/>
<path d="M243.518 88.9218C243.191 88.9595 242.857 88.9828 242.526 88.9936C242.512 88.9938 242.499 88.9967 242.487 89.0021C242.474 89.0074 242.463 89.0152 242.454 89.0249C242.444 89.0346 242.437 89.046 242.432 89.0585C242.428 89.071 242.425 89.0843 242.426 89.0976C242.427 89.1215 242.436 89.1442 242.453 89.1619C242.469 89.1796 242.491 89.1911 242.515 89.1945H242.531C242.869 89.1837 243.209 89.1604 243.544 89.1209C243.557 89.1194 243.57 89.1152 243.582 89.1087C243.594 89.1021 243.604 89.0933 243.612 89.0828C243.621 89.0723 243.627 89.0603 243.63 89.0474C243.634 89.0345 243.635 89.0211 243.633 89.0079C243.631 88.9947 243.627 88.982 243.62 88.9705C243.614 88.959 243.605 88.9489 243.594 88.9408C243.583 88.9328 243.571 88.927 243.558 88.9237C243.545 88.9204 243.532 88.9198 243.518 88.9218Z" fill="#263238"/>
<path d="M239.563 88.6939C239.241 88.6168 238.918 88.5271 238.605 88.4249C238.579 88.4167 238.551 88.4187 238.527 88.4304C238.502 88.4421 238.483 88.4626 238.474 88.4876C238.465 88.5133 238.467 88.5414 238.48 88.5656C238.492 88.5898 238.513 88.6082 238.539 88.6168C238.859 88.7209 239.187 88.8141 239.514 88.8913H239.525C239.55 88.8943 239.575 88.8881 239.597 88.8739C239.618 88.8597 239.633 88.8385 239.639 88.8141C239.645 88.7882 239.64 88.7613 239.626 88.7389C239.611 88.7164 239.589 88.7003 239.563 88.6939Z" fill="#263238"/>
<path d="M232.501 83.6171C232.487 83.5933 232.464 83.5761 232.437 83.5692C232.409 83.5623 232.381 83.5663 232.357 83.5803C232.332 83.5943 232.315 83.6172 232.308 83.644C232.301 83.6707 232.305 83.6991 232.319 83.7229C232.501 84.0064 232.683 84.2844 232.885 84.5535C232.893 84.5648 232.903 84.5742 232.915 84.5813C232.927 84.5884 232.94 84.593 232.954 84.5948C232.974 84.5972 232.994 84.5937 233.012 84.5849C233.03 84.5761 233.045 84.5623 233.055 84.5452C233.066 84.528 233.071 84.5083 233.07 84.4885C233.069 84.4686 233.062 84.4494 233.05 84.4333C232.859 84.1696 232.672 83.8951 232.501 83.6171Z" fill="#263238"/>
<path d="M234.035 85.5761C233.914 85.4565 233.793 85.3309 233.671 85.1993C233.662 85.1892 233.652 85.1809 233.64 85.1749C233.627 85.169 233.614 85.1655 233.601 85.1646C233.587 85.1638 233.573 85.1656 233.561 85.1701C233.548 85.1745 233.536 85.1814 233.526 85.1904C233.506 85.2082 233.494 85.233 233.492 85.2594C233.491 85.2859 233.499 85.3119 233.517 85.3321C233.633 85.4631 233.753 85.5922 233.88 85.7178C234.008 85.8434 234.108 85.9456 234.224 86.0551C234.24 86.0689 234.259 86.0782 234.28 86.082C234.296 86.0837 234.313 86.0818 234.328 86.0765C234.344 86.0713 234.358 86.0627 234.369 86.0515C234.388 86.0323 234.399 86.0066 234.399 85.9797C234.399 85.9529 234.388 85.9271 234.369 85.908C234.257 85.8003 234.144 85.6891 234.035 85.5761Z" fill="#263238"/>
<path d="M235.925 87.135C235.649 86.9556 235.38 86.7583 235.122 86.5555C235.101 86.5385 235.073 86.5304 235.046 86.5331C235.019 86.5358 234.994 86.549 234.976 86.5699C234.968 86.5803 234.961 86.5923 234.957 86.6052C234.953 86.6181 234.952 86.6317 234.954 86.6451C234.955 86.6585 234.96 86.6714 234.966 86.6832C234.973 86.6949 234.982 86.7052 234.993 86.7134C235.255 86.9215 235.538 87.1188 235.811 87.3036C235.824 87.3121 235.839 87.3176 235.854 87.3198C235.876 87.3215 235.898 87.3163 235.917 87.3048C235.935 87.2934 235.95 87.2763 235.958 87.2561C235.966 87.236 235.967 87.2138 235.961 87.193C235.955 87.1721 235.943 87.1537 235.925 87.1404V87.135Z" fill="#263238"/>
<path d="M250.482 85.4433C250.347 85.5832 250.208 85.725 250.066 85.8595C249.968 85.9528 249.869 86.0389 249.771 86.1304C249.753 86.1497 249.742 86.1754 249.742 86.2022C249.742 86.2289 249.753 86.2546 249.771 86.2739C249.787 86.2925 249.81 86.3041 249.835 86.3062C249.85 86.3088 249.865 86.3079 249.879 86.3035C249.893 86.2992 249.906 86.2915 249.917 86.2811C250.018 86.1914 250.118 86.1017 250.218 86.0066C250.362 85.8685 250.506 85.725 250.642 85.5815C250.661 85.5623 250.672 85.5365 250.672 85.5097C250.672 85.4828 250.661 85.4571 250.642 85.4379C250.632 85.4263 250.62 85.4171 250.605 85.4109C250.591 85.4047 250.576 85.4018 250.561 85.4023C250.545 85.4028 250.53 85.4068 250.517 85.4139C250.503 85.421 250.491 85.431 250.482 85.4433Z" fill="#263238"/>
<path d="M249.003 86.7565C248.738 86.9538 248.458 87.1404 248.182 87.3126C248.17 87.3196 248.16 87.3287 248.152 87.3396C248.144 87.3504 248.138 87.3627 248.135 87.3758C248.132 87.3888 248.132 87.4023 248.134 87.4155C248.137 87.4287 248.142 87.4413 248.149 87.4525C248.163 87.4752 248.187 87.4913 248.213 87.4974C248.24 87.5034 248.267 87.4989 248.291 87.4848C248.576 87.3054 248.856 87.126 249.127 86.9179C249.138 86.9099 249.147 86.8999 249.153 86.8885C249.16 86.877 249.165 86.8643 249.166 86.8512C249.168 86.838 249.168 86.8246 249.164 86.8118C249.161 86.7989 249.155 86.7868 249.147 86.7762C249.139 86.7656 249.128 86.7567 249.117 86.75C249.105 86.7432 249.092 86.7388 249.079 86.737C249.066 86.7352 249.052 86.7359 249.039 86.7393C249.026 86.7426 249.014 86.7485 249.003 86.7565Z" fill="#263238"/>
<path d="M247.315 87.7934C247.02 87.9423 246.715 88.0786 246.406 88.1988C246.391 88.2025 246.378 88.2091 246.367 88.2182C246.355 88.2273 246.346 88.2387 246.339 88.2516C246.333 88.2646 246.329 88.2788 246.328 88.2933C246.328 88.3078 246.33 88.3223 246.336 88.3358C246.341 88.3492 246.349 88.3614 246.36 88.3715C246.371 88.3815 246.383 88.3893 246.397 88.3941C246.411 88.399 246.426 88.4009 246.44 88.3997C246.455 88.3985 246.469 88.3942 246.482 88.3872C246.795 88.2652 247.105 88.1253 247.405 87.9746C247.425 87.9601 247.438 87.9393 247.444 87.9159C247.449 87.8925 247.446 87.8679 247.435 87.8465C247.424 87.8251 247.406 87.8082 247.383 87.7988C247.361 87.7894 247.336 87.7882 247.313 87.7952L247.315 87.7934Z" fill="#263238"/>
<path d="M252.777 82.1066C252.765 82.101 252.751 82.098 252.738 82.0977C252.724 82.0975 252.711 82.0999 252.698 82.1049C252.685 82.11 252.674 82.1175 252.665 82.127C252.655 82.1366 252.648 82.1479 252.643 82.1604C252.514 82.4618 252.37 82.7596 252.215 83.0574C252.202 83.0812 252.2 83.1091 252.207 83.135C252.215 83.1608 252.233 83.1826 252.257 83.1955C252.268 83.2007 252.28 83.2043 252.292 83.2063C252.313 83.209 252.334 83.2054 252.353 83.1957C252.372 83.1861 252.387 83.171 252.397 83.1524C252.555 82.8582 252.701 82.5551 252.832 82.2555C252.84 82.2426 252.845 82.2279 252.847 82.2128C252.848 82.1976 252.846 82.1823 252.841 82.1679C252.836 82.1536 252.827 82.1406 252.816 82.13C252.805 82.1193 252.792 82.1113 252.777 82.1066Z" fill="#263238"/>
<path d="M251.852 83.8665C251.841 83.8591 251.828 83.854 251.815 83.8514C251.802 83.8489 251.788 83.8489 251.775 83.8516C251.762 83.8543 251.749 83.8595 251.738 83.867C251.727 83.8744 251.718 83.884 251.71 83.8952C251.529 84.1696 251.336 84.4333 251.13 84.6953C251.114 84.7168 251.107 84.7439 251.11 84.7706C251.114 84.7974 251.127 84.8218 251.149 84.8388C251.163 84.8494 251.18 84.8562 251.198 84.8585C251.216 84.8613 251.234 84.8593 251.251 84.8527C251.268 84.846 251.283 84.8351 251.294 84.8208C251.501 84.5589 251.699 84.2826 251.883 84.0064C251.897 83.9837 251.902 83.9563 251.897 83.9302C251.891 83.904 251.875 83.8811 251.852 83.8665Z" fill="#263238"/>
<path d="M245.467 88.5235C245.151 88.6168 244.826 88.7029 244.502 88.7639C244.479 88.7684 244.457 88.7808 244.442 88.7992C244.426 88.8175 244.418 88.8406 244.418 88.8644C244.418 88.8882 244.426 88.9113 244.442 88.9296C244.457 88.9479 244.479 88.9604 244.502 88.9649C244.514 88.9675 244.525 88.9675 244.537 88.9649C244.866 88.8985 245.197 88.816 245.52 88.7191C245.533 88.7154 245.545 88.7092 245.556 88.7008C245.566 88.6925 245.575 88.6822 245.581 88.6705C245.588 88.6588 245.592 88.646 245.593 88.6328C245.594 88.6196 245.593 88.6062 245.589 88.5935C245.582 88.5688 245.565 88.5479 245.542 88.5349C245.52 88.522 245.493 88.5179 245.467 88.5235Z" fill="#263238"/>
<path d="M253.264 80.6732C253.251 80.6697 253.237 80.6688 253.224 80.6705C253.21 80.6722 253.197 80.6765 253.186 80.6832C253.174 80.6899 253.164 80.6988 253.156 80.7094C253.148 80.72 253.142 80.7321 253.138 80.745C253.093 80.9065 253.046 81.0661 252.993 81.2276C252.985 81.2533 252.987 81.281 253 81.3049C253.013 81.3287 253.034 81.3467 253.06 81.3549H253.076C253.101 81.3586 253.125 81.3535 253.146 81.3407C253.167 81.3278 253.182 81.3081 253.189 81.285C253.242 81.1217 253.291 80.9585 253.336 80.7934C253.342 80.768 253.338 80.7415 253.324 80.7191C253.311 80.6968 253.289 80.6804 253.264 80.6732Z" fill="#263238"/>
<path d="M252.158 72.4713C252.166 72.485 252.177 72.4967 252.19 72.5057C252.204 72.5147 252.219 72.5207 252.234 72.5233C252.256 72.5255 252.279 72.5211 252.298 72.5108C252.31 72.5047 252.321 72.4964 252.329 72.4862C252.338 72.476 252.345 72.4641 252.348 72.4514C252.352 72.4387 252.354 72.4253 252.352 72.4121C252.351 72.3988 252.347 72.386 252.34 72.3744C252.258 72.2237 252.171 72.0766 252.082 71.9295C252.067 71.9069 252.044 71.8907 252.018 71.8844C251.991 71.878 251.964 71.882 251.94 71.8954C251.917 71.9095 251.9 71.9322 251.894 71.9584C251.887 71.9846 251.891 72.0123 251.905 72.0354C252.002 72.1717 252.078 72.317 252.158 72.4713Z" fill="#263238"/>
<path d="M241.127 66.6625H241.15C241.503 66.632 241.857 66.6159 242.208 66.6159C242.233 66.6126 242.256 66.6005 242.272 66.5819C242.289 66.5632 242.298 66.5393 242.298 66.5145C242.298 66.4897 242.289 66.4658 242.272 66.4472C242.256 66.4285 242.233 66.4164 242.208 66.4131C241.845 66.4131 241.49 66.4293 241.132 66.4616C241.119 66.4627 241.106 66.4664 241.094 66.4726C241.082 66.4787 241.071 66.4871 241.063 66.4972C241.054 66.5074 241.048 66.5192 241.044 66.5318C241.04 66.5445 241.038 66.5578 241.04 66.571C241.041 66.5939 241.051 66.6155 241.066 66.6322C241.082 66.6489 241.104 66.6596 241.127 66.6625Z" fill="#263238"/>
<path d="M239.03 67.05C239.044 67.0526 239.058 67.0526 239.072 67.05C239.41 66.9549 239.755 66.8706 240.102 66.8114C240.129 66.8058 240.152 66.7902 240.167 66.768C240.181 66.7458 240.187 66.7188 240.182 66.6927C240.177 66.6665 240.162 66.6433 240.14 66.628C240.118 66.6126 240.091 66.6064 240.064 66.6105C239.711 66.6769 239.359 66.7576 239.015 66.8545C238.993 66.8611 238.973 66.8752 238.96 66.8944C238.946 66.9135 238.94 66.9366 238.942 66.9598C238.943 66.983 238.953 67.0049 238.969 67.022C238.985 67.0391 239.007 67.0502 239.03 67.0536V67.05Z" fill="#263238"/>
<path d="M237.043 67.807C237.062 67.8131 237.083 67.8131 237.103 67.807C237.415 67.6509 237.741 67.5074 238.068 67.3819C238.083 67.3799 238.098 67.3745 238.111 67.366C238.124 67.3575 238.135 67.3462 238.143 67.3329C238.151 67.3195 238.156 67.3046 238.157 67.2892C238.158 67.2738 238.155 67.2583 238.149 67.244C238.144 67.2298 238.134 67.217 238.123 67.2068C238.111 67.1966 238.097 67.1892 238.082 67.1852C238.067 67.1811 238.051 67.1806 238.036 67.1836C238.02 67.1866 238.006 67.1931 237.993 67.2025C237.661 67.3298 237.33 67.4751 237.01 67.633C236.998 67.6389 236.987 67.6471 236.978 67.6572C236.969 67.6673 236.962 67.6791 236.958 67.6918C236.954 67.7045 236.952 67.7178 236.953 67.7312C236.955 67.7445 236.958 67.7575 236.965 67.7693C236.974 67.7812 236.985 67.7908 236.999 67.7974C237.013 67.8039 237.028 67.8072 237.043 67.807Z" fill="#263238"/>
<path d="M251.316 71.1599C251.324 71.1707 251.334 71.1798 251.346 71.1866C251.357 71.1934 251.37 71.1977 251.384 71.1994C251.41 71.2031 251.438 71.1967 251.46 71.1815C251.482 71.1654 251.496 71.1415 251.5 71.115C251.504 71.0885 251.498 71.0615 251.482 71.0397C251.269 70.7563 251.04 70.4782 250.8 70.2145C250.781 70.1957 250.755 70.1851 250.727 70.1851C250.7 70.1851 250.674 70.1957 250.655 70.2145C250.636 70.2333 250.625 70.2588 250.625 70.2854C250.625 70.3119 250.636 70.3374 250.655 70.3562C250.882 70.6092 251.107 70.8819 251.316 71.1599Z" fill="#263238"/>
<path d="M249.094 68.9282C249.374 69.1399 249.64 69.3677 249.903 69.6045C249.918 69.6186 249.937 69.6274 249.958 69.6297C249.974 69.6323 249.991 69.631 250.007 69.6256C250.023 69.6203 250.037 69.6112 250.049 69.5992C250.068 69.58 250.078 69.5543 250.078 69.5274C250.078 69.5006 250.068 69.4748 250.049 69.4556C249.787 69.2153 249.503 68.9838 249.225 68.7686C249.215 68.7601 249.203 68.7539 249.19 68.7502C249.177 68.7465 249.163 68.7455 249.15 68.7472C249.136 68.7489 249.123 68.7532 249.112 68.76C249.1 68.7667 249.09 68.7758 249.082 68.7865C249.065 68.8071 249.057 68.8335 249.059 68.8599C249.061 68.8864 249.074 68.9109 249.094 68.9282Z" fill="#263238"/>
<path d="M247.311 67.816C247.625 67.9738 247.934 68.1461 248.232 68.3308C248.244 68.339 248.258 68.344 248.272 68.3452C248.292 68.3481 248.312 68.3454 248.33 68.3374C248.348 68.3295 248.363 68.3166 248.374 68.3003C248.381 68.2891 248.386 68.2765 248.389 68.2633C248.391 68.2501 248.391 68.2366 248.388 68.2236C248.384 68.2105 248.379 68.1982 248.371 68.1874C248.363 68.1765 248.353 68.1674 248.341 68.1604C248.04 67.972 247.723 67.8016 247.403 67.6348C247.379 67.6229 247.351 67.6209 247.325 67.6293C247.299 67.6377 247.278 67.6557 247.265 67.6796C247.259 67.6915 247.255 67.7045 247.254 67.7178C247.253 67.7311 247.255 67.7445 247.259 67.7572C247.263 67.7699 247.27 67.7817 247.279 67.7917C247.288 67.8018 247.299 67.8101 247.311 67.816Z" fill="#263238"/>
<path d="M245.343 67.0536C245.683 67.1504 246.019 67.2635 246.346 67.3908H246.368C246.391 67.3937 246.415 67.3889 246.435 67.3772C246.455 67.3655 246.47 67.3476 246.479 67.3263C246.488 67.3013 246.488 67.2735 246.477 67.2491C246.466 67.2246 246.446 67.2053 246.421 67.1953C246.088 67.0679 245.745 66.9513 245.401 66.8544C245.388 66.8507 245.375 66.8494 245.361 66.8508C245.348 66.8522 245.335 66.8562 245.323 66.8625C245.311 66.8689 245.301 66.8774 245.292 66.8877C245.284 66.898 245.278 66.9099 245.274 66.9226C245.27 66.9353 245.269 66.9487 245.27 66.9619C245.271 66.9751 245.276 66.9879 245.282 66.9995C245.288 67.0112 245.297 67.0215 245.307 67.0298C245.318 67.0382 245.33 67.0444 245.343 67.0482V67.0536Z" fill="#263238"/>
<path d="M243.25 66.7306C243.599 66.7791 243.955 66.7791 244.302 66.8437C244.331 66.8449 244.36 66.8356 244.383 66.8174C244.406 66.7993 244.421 66.7735 244.426 66.745C244.431 66.7175 244.425 66.6891 244.41 66.6655C244.395 66.6419 244.371 66.6248 244.344 66.6176C243.991 66.5513 243.635 66.4974 243.279 66.4651C243.222 66.4651 243.166 66.5315 243.161 66.5889C243.155 66.6463 243.197 66.7306 243.25 66.7306Z" fill="#263238"/>
<path d="M235.233 68.9319C235.247 68.934 235.261 68.9334 235.274 68.93C235.288 68.9266 235.3 68.9205 235.311 68.9121C235.59 68.7004 235.882 68.5013 236.18 68.3165C236.203 68.3018 236.219 68.2791 236.225 68.253C236.231 68.227 236.227 68.1996 236.213 68.1766C236.198 68.1539 236.175 68.1378 236.149 68.1318C236.122 68.1257 236.094 68.1302 236.071 68.1443C235.768 68.3237 235.47 68.5354 235.186 68.7507C235.171 68.7631 235.16 68.7795 235.153 68.798C235.147 68.8165 235.147 68.8364 235.152 68.8552C235.157 68.8741 235.167 68.8911 235.181 68.9044C235.196 68.9176 235.214 68.9265 235.233 68.9301V68.9319Z" fill="#263238"/>
<path d="M233.069 70.9949C233.058 70.9868 233.046 70.9808 233.033 70.9774C233.02 70.974 233.006 70.9732 232.993 70.9751C232.979 70.9769 232.966 70.9814 232.955 70.9881C232.943 70.9949 232.933 71.0039 232.925 71.0146C232.712 71.298 232.509 71.5958 232.323 71.8972C232.309 71.9203 232.305 71.948 232.312 71.9742C232.318 72.0004 232.335 72.023 232.358 72.0371C232.37 72.0437 232.383 72.048 232.396 72.0497C232.416 72.0528 232.437 72.05 232.455 72.0417C232.473 72.0334 232.489 72.02 232.5 72.0031C232.682 71.7053 232.881 71.4146 233.09 71.1366C233.099 71.1259 233.105 71.1137 233.108 71.1008C233.111 71.0879 233.112 71.0744 233.11 71.0612C233.108 71.048 233.103 71.0353 233.096 71.024C233.089 71.0126 233.08 71.0027 233.069 70.9949Z" fill="#263238"/>
<path d="M231.943 72.7833C231.918 72.772 231.89 72.7705 231.864 72.7792C231.839 72.7879 231.817 72.8061 231.805 72.83C231.649 73.1493 231.507 73.4776 231.381 73.8095C231.377 73.8218 231.375 73.835 231.375 73.8482C231.376 73.8614 231.379 73.8743 231.384 73.8863C231.39 73.8983 231.398 73.9091 231.408 73.9181C231.417 73.927 231.429 73.934 231.441 73.9386C231.449 73.9402 231.456 73.9402 231.463 73.9386C231.486 73.9418 231.51 73.9371 231.53 73.9254C231.55 73.9137 231.566 73.8956 231.574 73.874C231.698 73.5493 231.838 73.2264 231.99 72.9143C232.001 72.8906 232.001 72.8639 231.993 72.8397C231.984 72.8154 231.966 72.7953 231.943 72.7833Z" fill="#263238"/>
<path d="M233.669 70.3615C233.686 70.3636 233.703 70.3616 233.719 70.3556C233.735 70.3497 233.749 70.34 233.76 70.3274C233.942 70.1319 234.124 69.9381 234.322 69.7533L234.504 69.5847C234.513 69.5754 234.521 69.5642 234.526 69.5519C234.532 69.5396 234.534 69.5263 234.534 69.513C234.534 69.4996 234.532 69.4864 234.526 69.474C234.521 69.4617 234.513 69.4506 234.504 69.4412C234.484 69.4224 234.458 69.4118 234.431 69.4118C234.404 69.4118 234.378 69.4224 234.358 69.4412C234.297 69.4968 234.235 69.5542 234.177 69.6206C233.978 69.809 233.786 70.0045 233.604 70.2054C233.585 70.2246 233.574 70.2503 233.574 70.2772C233.574 70.304 233.585 70.3298 233.604 70.3489C233.624 70.3599 233.647 70.3643 233.669 70.3615Z" fill="#263238"/>
<path d="M231.174 74.7604C231.161 74.7569 231.147 74.756 231.134 74.7577C231.12 74.7594 231.107 74.7637 231.096 74.7704C231.084 74.7771 231.074 74.786 231.066 74.7966C231.058 74.8072 231.052 74.8193 231.048 74.8321C231.003 74.9972 230.961 75.1622 230.925 75.3291C230.922 75.3421 230.921 75.3555 230.923 75.3687C230.925 75.3819 230.93 75.3945 230.938 75.4057C230.945 75.4169 230.955 75.4266 230.966 75.4341C230.977 75.4416 230.99 75.4467 231.003 75.4493C231.029 75.453 231.055 75.4469 231.076 75.4323C231.097 75.4176 231.112 75.3954 231.117 75.3703C231.156 75.2071 231.196 75.0456 231.239 74.8824C231.246 74.8577 231.243 74.8314 231.23 74.8088C231.218 74.7863 231.198 74.769 231.174 74.7604Z" fill="#263238"/>
<path d="M238.926 81.0625C238.833 81.3477 239.562 81.7532 239.835 81.6007C242.44 78.551 244.066 81.2419 244.495 81.6007C244.995 82.0133 245.015 81.6886 245.388 81.2419C245.76 80.7952 241.974 76.6745 238.926 81.0625Z" fill="black"/>
<path d="M247.769 79.1556C241.727 72.1054 236.304 78.3609 236.136 78.8435C235.969 79.3261 236.511 79.7171 237.08 79.7817C237.649 79.8463 241.364 73.9101 246.895 80.0975C247.199 80.1351 247.44 79.9826 247.707 79.7566C247.751 79.7206 247.788 79.6764 247.814 79.6265C247.841 79.5767 247.857 79.5221 247.862 79.466C247.873 79.3546 247.84 79.2434 247.769 79.1556Z" fill="black"/>
<path d="M233.249 77.0405C233.037 77.6953 233.862 77.9949 234.265 77.9141C234.669 77.8334 242.187 68.6466 249.79 78.2729C249.996 78.3596 250.225 78.3769 250.442 78.3221C250.659 78.2673 250.851 78.1435 250.99 77.9698C251.3 77.532 242.797 66.7863 233.249 77.0405Z" fill="black"/>
<path d="M242.214 81.9273C241.962 81.9273 241.716 82.001 241.507 82.1389C241.298 82.2769 241.135 82.473 241.038 82.7025C240.942 82.932 240.917 83.1845 240.966 83.4281C241.015 83.6716 241.136 83.8954 241.314 84.071C241.492 84.2466 241.719 84.3662 241.966 84.4147C242.212 84.4632 242.468 84.4383 242.701 84.3432C242.933 84.2482 243.132 84.0872 243.272 83.8807C243.412 83.6742 243.486 83.4314 243.486 83.1831C243.486 82.85 243.352 82.5306 243.113 82.2951C242.875 82.0596 242.551 81.9273 242.214 81.9273Z" fill="black"/>
<path d="M41.6462 4.80901L42.3441 4.58298C42.5259 4.52378 42.7077 4.46996 42.8294 4.43229L43.0494 4.3677C43.0674 4.36132 43.0865 4.35864 43.1056 4.35983C43.1247 4.36103 43.1433 4.36607 43.1603 4.37464C43.1774 4.38321 43.1924 4.39513 43.2046 4.40968C43.2168 4.42422 43.2258 4.44107 43.2311 4.45919C43.2409 4.49392 43.2367 4.53101 43.2194 4.56276C43.2022 4.59451 43.1732 4.61845 43.1384 4.62962L42.9203 4.696C42.784 4.73546 42.6168 4.78748 42.4441 4.84848L41.7479 5.08169C41.7298 5.08782 41.7106 5.09035 41.6915 5.08916C41.6723 5.08797 41.6536 5.08307 41.6364 5.07474C41.6192 5.06641 41.6038 5.05482 41.5911 5.04062C41.5785 5.02643 41.5688 5.0099 41.5625 4.992C41.5563 4.97409 41.5538 4.95516 41.555 4.93627C41.5562 4.91738 41.5611 4.89892 41.5696 4.88193C41.578 4.86494 41.5898 4.84975 41.6042 4.83724C41.6185 4.82473 41.6353 4.81514 41.6534 4.80901H41.6462Z" fill="url(#paint0_linear_1314_19608)"/>
<path d="M46.4138 3.62321L47.8679 3.42588C47.8957 3.42473 47.923 3.43379 47.9445 3.45131C47.9659 3.46884 47.9801 3.49358 47.9841 3.52077C47.9882 3.54796 47.9819 3.57567 47.9665 3.59857C47.9511 3.62146 47.9276 3.63791 47.9006 3.64474L46.4465 3.85822C46.4309 3.8605 46.4149 3.85971 46.3996 3.85589C46.3843 3.85207 46.3699 3.8453 46.3572 3.83597C46.3445 3.82663 46.3339 3.81491 46.3258 3.80149C46.3177 3.78807 46.3124 3.77321 46.3102 3.75776C46.3076 3.74242 46.3082 3.72673 46.3118 3.71161C46.3155 3.69649 46.3222 3.68225 46.3315 3.66971C46.3408 3.65717 46.3525 3.6466 46.3661 3.63862C46.3796 3.63063 46.3946 3.6254 46.4102 3.62321H46.4138Z" fill="url(#paint1_linear_1314_19608)"/>
<path d="M51.3034 3.23933L52.7702 3.27342C52.7932 3.27434 52.815 3.28401 52.8309 3.3004C52.8468 3.31679 52.8557 3.33862 52.8557 3.36132C52.8547 3.38385 52.8449 3.4051 52.8282 3.42053C52.8116 3.43596 52.7894 3.44433 52.7666 3.44384L51.2998 3.42411C51.2874 3.42411 51.2752 3.42169 51.2639 3.41698C51.2525 3.41227 51.2422 3.40536 51.2336 3.39668C51.2249 3.38799 51.2181 3.37769 51.2136 3.36639C51.209 3.35508 51.2068 3.34299 51.2071 3.33082C51.2068 3.31859 51.2091 3.30642 51.2138 3.29509C51.2184 3.28376 51.2254 3.27349 51.2343 3.26492C51.2431 3.25635 51.2537 3.24966 51.2652 3.24526C51.2768 3.24086 51.2892 3.23884 51.3016 3.23933H51.3034Z" fill="url(#paint2_linear_1314_19608)"/>
<path d="M56.1909 3.61602L57.645 3.86717C57.654 3.86731 57.6628 3.86937 57.6709 3.87322C57.679 3.87706 57.6861 3.8826 57.6918 3.88944C57.6975 3.89628 57.7016 3.90427 57.7039 3.91284C57.7061 3.92141 57.7065 3.93036 57.7049 3.93907C57.7033 3.94778 57.6997 3.95605 57.6946 3.96329C57.6894 3.97053 57.6827 3.97657 57.6749 3.98099C57.6672 3.98542 57.6585 3.98812 57.6496 3.98891C57.6406 3.9897 57.6316 3.98856 57.6232 3.98557L56.1691 3.74878C56.1515 3.74538 56.136 3.73538 56.1257 3.72089C56.1155 3.7064 56.1113 3.68855 56.1141 3.67111C56.117 3.65366 56.1266 3.63798 56.1409 3.62736C56.1552 3.61675 56.1731 3.61205 56.1909 3.61423V3.61602Z" fill="url(#paint3_linear_1314_19608)"/>
<path d="M60.9666 4.69419L62.3626 5.14626C62.3671 5.14749 62.3713 5.14962 62.375 5.15251C62.3786 5.1554 62.3816 5.159 62.3838 5.16308C62.386 5.16717 62.3874 5.17165 62.3878 5.17626C62.3882 5.18087 62.3876 5.18551 62.3861 5.1899C62.3847 5.19429 62.3823 5.19834 62.3792 5.20179C62.376 5.20525 62.3722 5.20804 62.368 5.21C62.3638 5.21196 62.3591 5.21305 62.3545 5.21319C62.3498 5.21334 62.3451 5.21254 62.3407 5.21085L60.9411 4.77492C60.9356 4.77328 60.9305 4.77058 60.9261 4.76699C60.9217 4.76339 60.918 4.75897 60.9153 4.75397C60.9126 4.74897 60.9109 4.74349 60.9104 4.73785C60.9098 4.73221 60.9104 4.72652 60.9121 4.7211C60.9158 4.71048 60.9236 4.70171 60.9338 4.69668C60.944 4.69165 60.9557 4.69076 60.9666 4.69419Z" fill="url(#paint4_linear_1314_19608)"/>
<path d="M65.5383 6.41637L66.8579 7.04783C66.8592 7.04966 66.8599 7.05186 66.8599 7.05411C66.8599 7.05637 66.8592 7.05856 66.8579 7.06039C66.8559 7.0615 66.8537 7.06207 66.8515 7.06207C66.8493 7.06207 66.8471 7.0615 66.8452 7.06039L65.5183 6.44148C65.5162 6.44069 65.5143 6.43951 65.5127 6.43799C65.5112 6.43647 65.5099 6.43464 65.5091 6.43263C65.5082 6.43062 65.5078 6.42846 65.5078 6.42628C65.5078 6.4241 65.5083 6.42195 65.5092 6.41995C65.5126 6.41748 65.5167 6.41614 65.521 6.41614C65.5252 6.41614 65.5294 6.41748 65.5328 6.41995L65.5383 6.41637Z" fill="url(#paint5_linear_1314_19608)"/>
<path d="M112.712 61.3413C115.118 45.673 104.198 31.0468 88.3226 28.6729C72.4473 26.2989 57.6278 37.076 55.2225 52.7443C52.8171 68.4126 63.7367 83.0388 79.612 85.4127C95.4874 87.7867 110.307 77.0096 112.712 61.3413Z" fill="#407BFF"/>
<path d="M103.264 76.4687C114.226 65.6497 114.226 48.1085 103.264 37.2895C92.3022 26.4704 74.5293 26.4704 63.5672 37.2895C52.6052 48.1085 52.6052 65.6497 63.5673 76.4687C74.5293 87.2878 92.3022 87.2878 103.264 76.4687Z" fill="#407BFF"/>
<path opacity="0.62" d="M60.269 45.6751C60.2208 45.6749 60.1734 45.6632 60.1308 45.641C60.0946 45.6231 60.0622 45.5983 60.0357 45.568C60.0092 45.5377 59.989 45.5025 59.9763 45.4645C59.9636 45.4265 59.9587 45.3864 59.9618 45.3465C59.965 45.3065 59.9761 45.2676 59.9945 45.232C62.55 40.241 66.6719 36.1993 71.7455 33.7098C76.819 31.2204 82.5721 30.4167 88.1463 31.4186C88.2233 31.4367 88.2903 31.4832 88.3336 31.5486C88.3768 31.614 88.393 31.6933 88.3788 31.7701C88.3646 31.8469 88.321 31.9154 88.2572 31.9615C88.1933 32.0076 88.1139 32.0277 88.0354 32.0178C86.5109 31.7442 84.9645 31.6067 83.415 31.607C78.6703 31.594 74.0161 32.888 69.9759 35.3432C65.9356 37.7984 62.6696 41.3175 60.5453 45.5047C60.5199 45.5556 60.4805 45.5986 60.4317 45.6287C60.3829 45.6588 60.3265 45.6749 60.269 45.6751Z" fill="white"/>
<path opacity="0.62" d="M100.825 74.06C110.103 64.9035 110.103 50.0577 100.825 40.9011C91.5477 31.7446 76.5058 31.7446 67.2282 40.9011C57.9507 50.0577 57.9507 64.9035 67.2282 74.06C76.5058 83.2166 91.5477 83.2166 100.825 74.06Z" fill="white"/>
<path d="M81.69 74.9129V72.3619C78.9962 72.256 76.3316 71.6281 74.4376 70.8101C74.112 70.6635 73.8505 70.4067 73.7004 70.0861C73.5504 69.7655 73.5217 69.4025 73.6196 69.0628L74.2758 66.6876C74.3327 66.4829 74.4334 66.2926 74.5711 66.1294C74.7087 65.9663 74.8802 65.8342 75.0739 65.7419C75.2676 65.6496 75.4791 65.5993 75.6942 65.5944C75.9092 65.5895 76.1228 65.6301 76.3207 65.7135C78.4383 66.6076 80.7138 67.0807 83.0169 67.1056C85.6125 67.1056 87.5483 66.2373 87.5483 64.456C87.5483 62.8414 86.0524 61.896 82.4461 60.9398C77.2985 59.5513 73.6051 57.3376 73.6051 52.8671C73.6051 48.8289 76.5951 45.7469 81.7845 44.9235V42.3725C81.7845 41.9785 81.9431 41.6007 82.2253 41.3221C82.5076 41.0436 82.8904 40.8871 83.2895 40.8871H84.8091C85.2082 40.8871 85.591 41.0436 85.8733 41.3221C86.1555 41.6007 86.3141 41.9785 86.3141 42.3725V44.6651C88.2719 44.7141 90.2106 45.0577 92.0633 45.6841C92.4206 45.8104 92.716 46.0659 92.8898 46.3989C93.0635 46.7319 93.1027 47.1176 92.9994 47.478L92.396 49.6756C92.3405 49.8747 92.2435 50.0601 92.1112 50.2199C91.9789 50.3797 91.8141 50.5105 91.6275 50.6037C91.4409 50.697 91.2367 50.7507 91.0278 50.7614C90.8189 50.7721 90.6101 50.7396 90.4147 50.6659C88.615 49.9914 86.7051 49.649 84.78 49.6559C81.7009 49.6559 80.8212 50.9117 80.8212 52.0436C80.8212 53.4339 82.6697 54.3883 86.6722 55.6046C92.3905 57.2963 94.7662 59.641 94.7662 63.8568C94.7662 67.7191 91.8579 71.1922 86.2323 72.0605V74.9165C86.2318 75.3106 86.0729 75.6884 85.7903 75.9669C85.5078 76.2454 85.1248 76.4018 84.7255 76.4018H83.2077C83.0088 76.4033 82.8115 76.3658 82.6273 76.2916C82.4431 76.2174 82.2756 76.1079 82.1345 75.9694C81.9934 75.831 81.8815 75.6664 81.8052 75.485C81.7289 75.3037 81.6898 75.1092 81.69 74.9129Z" fill="#407BFF"/>
</g>
<defs>
<linearGradient id="paint0_linear_1314_19608" x1="41.5462" y1="4.72649" x2="43.2275" y2="4.72649" gradientUnits="userSpaceOnUse">
<stop stop-color="#DAE3FE"/>
<stop offset="1" stop-color="#E9EFFD"/>
</linearGradient>
<linearGradient id="paint1_linear_1314_19608" x1="46.3102" y1="3.64115" x2="47.9952" y2="3.64115" gradientUnits="userSpaceOnUse">
<stop stop-color="#DAE3FE"/>
<stop offset="1" stop-color="#E9EFFD"/>
</linearGradient>
<linearGradient id="paint2_linear_1314_19608" x1="51.2052" y1="3.34159" x2="52.8557" y2="3.34159" gradientUnits="userSpaceOnUse">
<stop stop-color="#DAE3FE"/>
<stop offset="1" stop-color="#E9EFFD"/>
</linearGradient>
<linearGradient id="paint3_linear_1314_19608" x1="56.1109" y1="3.8008" x2="57.6868" y2="3.8008" gradientUnits="userSpaceOnUse">
<stop stop-color="#DAE3FE"/>
<stop offset="1" stop-color="#E9EFFD"/>
</linearGradient>
<linearGradient id="paint4_linear_1314_19608" x1="60.9066" y1="4.95252" x2="62.3825" y2="4.95252" gradientUnits="userSpaceOnUse">
<stop stop-color="#DAE3FE"/>
<stop offset="1" stop-color="#E9EFFD"/>
</linearGradient>
<linearGradient id="paint5_linear_1314_19608" x1="65.5146" y1="6.73927" x2="66.8633" y2="6.73927" gradientUnits="userSpaceOnUse">
<stop stop-color="#DAE3FE"/>
<stop offset="1" stop-color="#E9EFFD"/>
</linearGradient>
<clipPath id="clip0_1314_19608">
<rect width="302" height="197.392" fill="white" transform="translate(0 0.279297)"/>
</clipPath>
</defs>
</svg>
