<svg width="303" height="198" viewBox="0 0 303 198" fill="none" xmlns="http://www.w3.org/2000/svg">
<g clip-path="url(#clip0_1208_24711)">
<path d="M214.16 37.3043V34.5897L214.273 33.6053C214.804 28.5801 216.978 23.8621 220.467 20.1646C223.956 16.4672 228.569 13.9913 233.61 13.1114C234.494 12.9622 235.386 12.8727 236.277 12.7534H239.035C239.152 12.7861 239.271 12.8111 239.391 12.828C243.019 13.0506 246.537 14.1465 249.637 16.0199C252.564 17.7097 255.079 20.0126 257.007 22.7663C258.934 25.5199 260.225 28.6573 260.79 31.9571C260.956 32.8222 261.032 33.7097 261.153 34.5897V37.3043L261.039 38.2813C260.509 43.3064 258.335 48.0244 254.846 51.7219C251.357 55.4194 246.744 57.8952 241.703 58.7751C240.819 58.9318 239.927 59.0213 239.035 59.1331H236.277C236.164 59.1331 236.043 59.0735 235.922 59.0585C232.29 58.8373 228.768 57.7442 225.661 55.8741C222.735 54.1835 220.22 51.8804 218.293 49.1268C216.366 46.3733 215.074 43.2364 214.508 39.9369C214.326 39.0643 214.281 38.1843 214.16 37.3043ZM257.503 35.9545C257.506 32.0787 256.344 28.2891 254.164 25.0652C251.985 21.8412 248.885 19.3278 245.258 17.8429C241.63 16.358 237.638 15.9684 233.787 16.7232C229.935 17.4781 226.396 19.3436 223.619 22.0836C220.842 24.8237 218.95 28.3152 218.184 32.1165C217.418 35.9178 217.811 39.858 219.314 43.4386C220.817 47.0192 223.363 50.0794 226.628 52.2319C229.894 54.3844 233.733 55.5325 237.66 55.531C242.92 55.5271 247.964 53.4635 251.684 49.7933C255.404 46.123 257.497 41.146 257.503 35.9545Z" fill="#FFBC96"/>
<path d="M235.833 30.6968C235.833 28.9293 235.833 27.1618 235.833 25.3943C235.821 25.0947 235.885 24.7968 236.019 24.5276C236.153 24.2583 236.352 24.0263 236.6 23.8523C236.847 23.6784 237.135 23.568 237.436 23.5313C237.738 23.4945 238.044 23.5325 238.327 23.6418C238.699 23.7931 239.012 24.0579 239.22 24.3975C239.428 24.737 239.52 25.1334 239.483 25.5286C239.483 28.5117 239.483 31.4948 239.483 34.4779C239.466 34.704 239.512 34.9304 239.618 35.1319C239.723 35.3334 239.883 35.502 240.08 35.6189C242.037 37.0433 243.972 38.4976 245.921 39.9295C246.132 40.0552 246.315 40.2219 246.458 40.4193C246.602 40.6168 246.703 40.8409 246.757 41.0782C246.81 41.3155 246.814 41.561 246.768 41.7998C246.723 42.0387 246.629 42.2659 246.492 42.4678C246.355 42.6698 246.177 42.8421 245.971 42.9746C245.764 43.107 245.533 43.1967 245.29 43.2382C245.048 43.2798 244.799 43.2724 244.559 43.2164C244.32 43.1604 244.094 43.0571 243.896 42.9126C243.216 42.4502 242.566 41.9431 241.909 41.421C240.231 40.183 238.569 38.9301 236.876 37.6921C236.539 37.4715 236.266 37.1674 236.084 36.8102C235.902 36.4531 235.819 36.0552 235.841 35.6562C235.849 34.0453 235.833 32.3673 235.833 30.6968Z" fill="#FFBC96"/>
<path d="M36.4439 87.92C39.3943 87.92 41.7862 85.5594 41.7862 82.6474C41.7862 79.7354 39.3943 77.3748 36.4439 77.3748C33.4934 77.3748 31.1016 79.7354 31.1016 82.6474C31.1016 85.5594 33.4934 87.92 36.4439 87.92Z" fill="#FFBC96"/>
<path d="M52.0417 35.5816C52.0417 36.0462 51.9021 36.5004 51.6406 36.8868C51.379 37.2731 51.0073 37.5742 50.5724 37.752C50.1374 37.9298 49.6588 37.9763 49.1971 37.8857C48.7354 37.795 48.3113 37.5713 47.9784 37.2427C47.6455 36.9142 47.4188 36.4956 47.327 36.0399C47.2351 35.5842 47.2823 35.1119 47.4624 34.6826C47.6426 34.2534 47.9477 33.8865 48.3391 33.6283C48.7305 33.3702 49.1907 33.2324 49.6615 33.2324C50.2928 33.2324 50.8982 33.4799 51.3446 33.9205C51.7909 34.361 52.0417 34.9586 52.0417 35.5816Z" fill="#FFBC96"/>
<path d="M19.5876 47.7825C21.0232 47.7825 22.187 46.6339 22.187 45.217C22.187 43.8001 21.0232 42.6516 19.5876 42.6516C18.1521 42.6516 16.9883 43.8001 16.9883 45.217C16.9883 46.6339 18.1521 47.7825 19.5876 47.7825Z" fill="#FFBC96"/>
<path d="M83.0801 24.3502C83.0801 24.7382 82.9635 25.1174 82.7452 25.4399C82.5268 25.7625 82.2164 26.0139 81.8533 26.1623C81.4902 26.3108 81.0906 26.3496 80.7051 26.2739C80.3196 26.1983 79.9655 26.0115 79.6875 25.7372C79.4096 25.4628 79.2203 25.1134 79.1437 24.7329C79.067 24.3524 79.1063 23.958 79.2567 23.5997C79.4072 23.2413 79.6619 22.9349 79.9887 22.7194C80.3155 22.5039 80.6997 22.3889 81.0928 22.3889C81.6198 22.3889 82.1253 22.5955 82.498 22.9633C82.8707 23.3312 83.0801 23.83 83.0801 24.3502Z" fill="#FFBC96"/>
<path d="M2.77316 182.559C4.30473 182.559 5.54632 181.333 5.54632 179.822C5.54632 178.31 4.30473 177.085 2.77316 177.085C1.24159 177.085 0 178.31 0 179.822C0 181.333 1.24159 182.559 2.77316 182.559Z" fill="#FFBC96"/>
<path d="M267.295 57.7385C268.464 57.7385 269.411 56.8036 269.411 55.6504C269.411 54.4971 268.464 53.5622 267.295 53.5622C266.127 53.5622 265.18 54.4971 265.18 55.6504C265.18 56.8036 266.127 57.7385 267.295 57.7385Z" fill="#FFBC96"/>
<path d="M196.092 17.7874C196.092 18.2211 195.961 18.645 195.717 19.0056C195.473 19.3661 195.126 19.6471 194.72 19.8131C194.314 19.9791 193.868 20.0225 193.437 19.9379C193.006 19.8533 192.61 19.6444 192.299 19.3378C191.988 19.0312 191.777 18.6405 191.691 18.2152C191.605 17.7899 191.649 17.349 191.818 16.9484C191.986 16.5477 192.27 16.2053 192.636 15.9644C193.001 15.7234 193.431 15.5948 193.87 15.5948C194.459 15.5948 195.024 15.8259 195.441 16.237C195.857 16.6482 196.092 17.2059 196.092 17.7874Z" fill="#FFBC96"/>
<path d="M209.673 1.47733C209.671 1.81891 209.532 2.14594 209.288 2.38747C209.043 2.62901 208.712 2.76557 208.366 2.76752C208.018 2.76753 207.685 2.63184 207.439 2.39009C207.192 2.14835 207.053 1.8202 207.051 1.47733C207.051 1.30693 207.085 1.13818 207.151 0.980747C207.217 0.823309 207.314 0.680257 207.436 0.55976C207.558 0.439262 207.703 0.343678 207.862 0.278465C208.022 0.213252 208.193 0.179687 208.366 0.179688C208.713 0.181658 209.045 0.319244 209.29 0.562386C209.535 0.805529 209.673 1.13447 209.673 1.47733Z" fill="#FFBC96"/>
<path d="M41.0142 183.812C41.7018 182.574 47.2859 172.163 44.3994 166.458C44.0065 165.712 43.6438 165.331 43.2055 165.331C42.7672 165.331 41.5658 165.331 40.8177 174.683C40.591 177.547 40.4701 180.426 40.4097 182.141C40.3492 181.985 40.2963 181.82 40.2359 181.656C40.2249 181.609 40.2071 181.564 40.183 181.522C39.5558 179.829 38.8757 178.047 38.1428 176.22C38.1366 176.167 38.1185 176.116 38.0899 176.071L37.1453 173.759C37.5685 172.334 42.1174 156.755 37.9539 151.587C37.5307 151.057 37.1378 150.796 36.7675 150.796C36.6443 150.798 36.5228 150.826 36.4118 150.878C36.3008 150.931 36.203 151.008 36.1252 151.102C34.41 153.019 35.6643 166.249 36.2613 171.67C34.5776 167.677 32.6679 163.781 30.5411 159.999C30.5285 159.963 30.5078 159.93 30.4807 159.902C29.1843 157.556 27.6663 155.336 25.9469 153.272C25.8916 153.211 25.8145 153.173 25.7315 153.166C25.6486 153.159 25.5661 153.184 25.5011 153.235C25.4425 153.294 25.4096 153.373 25.4096 153.455C25.4096 153.537 25.4425 153.616 25.5011 153.675C26.951 155.39 28.2503 157.224 29.385 159.156C26.7932 157.56 20.3704 153.735 18.0959 153.735C17.907 153.704 17.7132 153.728 17.5377 153.804C17.3622 153.879 17.2123 154.003 17.106 154.16C16.8567 154.592 17.0154 155.256 17.5972 156.24C19.8641 160.021 23.7556 160.819 26.6648 160.819C27.8232 160.819 28.9783 160.696 30.1104 160.454C32.7472 165.195 35.0693 170.1 37.0622 175.138C34.1228 172.595 25.6447 165.488 22.7053 165.488C22.5407 165.48 22.3763 165.505 22.2218 165.562C22.0673 165.618 21.9259 165.705 21.8061 165.816C21.6806 165.964 21.5865 166.135 21.5293 166.32C21.4722 166.504 21.4533 166.698 21.4736 166.89C21.6247 171.924 35.8305 176.003 37.6063 176.496C38.2334 178.069 38.8228 179.606 39.3745 181.082C37.2209 180.113 30.6696 177.353 26.5287 177.353C24.9268 177.353 23.8236 177.778 23.2569 178.621C23.1071 178.807 23.0141 179.032 22.9886 179.268C22.9632 179.504 23.0065 179.743 23.1133 179.956C23.8689 181.366 28.2214 182.089 36.0043 182.089C37.7725 182.089 39.1855 182.044 39.7296 182.029C42.2307 188.823 43.81 194.021 43.8478 194.148C43.8675 194.212 43.9076 194.267 43.9622 194.306C44.0167 194.345 44.0827 194.366 44.15 194.364H44.2331C44.313 194.34 44.3801 194.286 44.4197 194.213C44.4593 194.141 44.4683 194.056 44.4447 193.977C44.3843 193.85 43.0997 189.621 41.0142 183.812ZM41.4449 174.728C42.1249 166.197 43.0997 165.95 43.2055 165.95C43.3113 165.95 43.4473 165.95 43.8402 166.733C46.1449 171.283 42.5481 179.412 41.0293 182.395C41.0822 180.747 41.2031 177.726 41.4449 174.728ZM36.5937 151.527C36.6844 151.43 36.7449 151.43 36.7675 151.43C36.7902 151.43 37.0622 151.482 37.4627 151.982C40.8026 156.129 38.0672 167.942 36.9489 172.118C36.231 165.764 35.1505 153.131 36.5937 151.527ZM26.6421 160.223C23.9143 160.223 20.2268 159.477 18.1337 155.957C17.5065 154.891 17.5972 154.562 17.6425 154.465C17.6879 154.369 17.9146 154.346 18.0355 154.346C20.3024 154.346 27.2768 158.605 29.4379 159.954C28.5157 160.124 27.5802 160.214 26.6421 160.223ZM22.1083 166.935C22.0895 166.825 22.094 166.713 22.1213 166.605C22.1486 166.497 22.1982 166.396 22.267 166.308C22.3271 166.255 22.3978 166.215 22.4746 166.191C22.5514 166.166 22.6326 166.158 22.7128 166.167C25.1157 166.167 32.332 171.909 36.6088 175.616C32.7929 174.43 22.2065 170.858 22.0856 166.898L22.1083 166.935ZM35.9968 181.462C28.7805 181.462 24.2845 180.806 23.6574 179.658C23.5893 179.531 23.5289 179.315 23.7707 178.957C24.2165 178.3 25.1384 177.965 26.5212 177.965C30.2162 177.965 36.0799 180.336 38.6113 181.433C37.8934 181.448 36.9942 181.462 35.9968 181.462Z" fill="#407BFF"/>
<path d="M218.958 72.3781H88.2044C84.6613 72.3781 81.7891 75.2128 81.7891 78.7097V177.853C81.7891 181.35 84.6613 184.185 88.2044 184.185H218.958C222.502 184.185 225.374 181.35 225.374 177.853V78.7097C225.374 75.2128 222.502 72.3781 218.958 72.3781Z" fill="#263238"/>
<path d="M219.437 77.7477H87.7305V177.241H219.437V77.7477Z" fill="#F8EEE7"/>
<path d="M216.707 89.3966H146.191V152.34H216.707V89.3966Z" fill="white"/>
<path d="M214.805 92.6259H148.211V97.011H214.805V92.6259Z" fill="#407BFF"/>
<path d="M213.828 103.193C213.828 103.599 213.706 103.996 213.478 104.333C213.249 104.67 212.925 104.933 212.545 105.088C212.165 105.243 211.748 105.284 211.344 105.205C210.941 105.126 210.571 104.93 210.28 104.644C209.99 104.357 209.792 103.991 209.712 103.594C209.632 103.196 209.673 102.783 209.83 102.409C209.987 102.034 210.254 101.714 210.595 101.488C210.937 101.263 211.339 101.143 211.75 101.143C212.301 101.143 212.83 101.359 213.219 101.743C213.609 102.128 213.828 102.65 213.828 103.193Z" fill="#FF6C37"/>
<path d="M213.828 110.741C213.828 111.146 213.706 111.543 213.478 111.88C213.249 112.217 212.925 112.48 212.545 112.635C212.165 112.791 211.748 112.831 211.344 112.752C210.941 112.673 210.571 112.478 210.28 112.191C209.99 111.904 209.792 111.539 209.712 111.141C209.632 110.743 209.673 110.331 209.83 109.956C209.987 109.581 210.254 109.261 210.595 109.035C210.937 108.81 211.339 108.69 211.75 108.69C212.301 108.69 212.83 108.906 213.219 109.291C213.609 109.675 213.828 110.197 213.828 110.741Z" fill="#FF6C37"/>
<path d="M213.828 118.407C213.828 118.813 213.706 119.209 213.478 119.547C213.249 119.884 212.925 120.147 212.545 120.302C212.165 120.457 211.748 120.498 211.344 120.419C210.941 120.34 210.571 120.144 210.28 119.858C209.99 119.571 209.792 119.205 209.712 118.807C209.632 118.41 209.673 117.997 209.83 117.622C209.987 117.248 210.254 116.927 210.595 116.702C210.937 116.477 211.339 116.356 211.75 116.356C212.301 116.356 212.83 116.573 213.219 116.957C213.609 117.342 213.828 117.863 213.828 118.407Z" fill="#FF6C37"/>
<path d="M213.828 126.566C213.828 126.972 213.706 127.368 213.478 127.705C213.249 128.043 212.925 128.306 212.545 128.461C212.165 128.616 211.748 128.657 211.344 128.577C210.941 128.498 210.571 128.303 210.28 128.016C209.99 127.729 209.792 127.364 209.712 126.966C209.632 126.568 209.673 126.156 209.83 125.781C209.987 125.406 210.254 125.086 210.595 124.861C210.937 124.635 211.339 124.515 211.75 124.515C212.301 124.515 212.83 124.731 213.219 125.116C213.609 125.5 213.828 126.022 213.828 126.566Z" fill="#FF6C37"/>
<path d="M207.052 100.896H148.211V102.701H207.052V100.896Z" fill="#E5E2E8"/>
<path d="M177.023 103.85H148.211V105.655H177.023V103.85Z" fill="#E5E2E8"/>
<path d="M207.052 108.436H148.211V110.241H207.052V108.436Z" fill="#E5E2E8"/>
<path d="M177.023 111.397H148.211V113.202H177.023V111.397Z" fill="#E5E2E8"/>
<path d="M207.052 116.11H148.211V117.915H207.052V116.11Z" fill="#E5E2E8"/>
<path d="M177.023 119.064H148.211V120.868H177.023V119.064Z" fill="#E5E2E8"/>
<path d="M207.052 124.262H148.211V126.066H207.052V124.262Z" fill="#E5E2E8"/>
<path d="M177.023 127.215H148.211V129.02H177.023V127.215Z" fill="#E5E2E8"/>
<path d="M111.623 143.435H91.0703V146.665H111.623V143.435Z" fill="#DDC4B3"/>
<path d="M111.623 149.439H91.0703V152.668H111.623V149.439Z" fill="#DDC4B3"/>
<path d="M142.314 126.641V150.55C142.295 150.594 142.28 150.639 142.268 150.684C142.169 151.333 141.83 151.923 141.316 152.34C140.895 152.668 140.395 152.884 139.865 152.966H115.64L115.542 152.922C114.863 152.833 114.246 152.488 113.819 151.96C113.495 151.549 113.281 151.064 113.199 150.55V126.641C113.219 126.6 113.234 126.558 113.245 126.514C113.337 125.864 113.675 125.273 114.189 124.858C114.611 124.532 115.11 124.316 115.64 124.232H139.865C139.9 124.238 139.936 124.238 139.971 124.232C140.65 124.321 141.267 124.666 141.694 125.194C142.02 125.618 142.233 126.115 142.314 126.641ZM140.493 138.573V127.096C140.493 126.35 140.153 126.029 139.42 126.029H116.093C115.338 126.029 115.005 126.365 115.005 127.111V150.088C115.005 150.834 115.338 151.169 116.093 151.169H139.374C140.13 151.169 140.477 150.841 140.477 150.073L140.493 138.573Z" fill="#FF6C37"/>
<path d="M129.582 141.817L131.139 140.281L131.622 139.804C131.708 139.706 131.814 139.627 131.934 139.573C132.053 139.519 132.182 139.492 132.314 139.492C132.445 139.492 132.574 139.519 132.694 139.573C132.813 139.627 132.919 139.706 133.005 139.804L133.065 139.863C134.509 141.28 135.952 142.705 137.38 144.129C137.546 144.295 137.67 144.497 137.743 144.718C137.768 144.84 137.766 144.966 137.739 145.087C137.711 145.208 137.657 145.322 137.582 145.422C137.506 145.521 137.41 145.603 137.3 145.663C137.189 145.723 137.067 145.76 136.942 145.77H118.807C118.567 145.803 118.324 145.744 118.127 145.605C117.93 145.466 117.795 145.258 117.749 145.024C117.72 144.867 117.734 144.705 117.788 144.555C117.843 144.404 117.936 144.27 118.059 144.166L119.97 142.28L124.21 138.096C124.298 137.968 124.416 137.864 124.554 137.791C124.692 137.719 124.846 137.681 125.003 137.681C125.159 137.681 125.313 137.719 125.452 137.791C125.59 137.864 125.708 137.968 125.796 138.096L129.31 141.571L129.582 141.817Z" fill="#D9876F"/>
<path d="M130.497 131.414C131.036 131.415 131.563 131.574 132.011 131.871C132.458 132.168 132.807 132.589 133.012 133.081C133.217 133.573 133.27 134.114 133.164 134.636C133.058 135.157 132.798 135.636 132.416 136.012C132.034 136.388 131.548 136.644 131.019 136.747C130.49 136.85 129.942 136.796 129.444 136.592C128.946 136.388 128.52 136.043 128.221 135.601C127.922 135.158 127.762 134.638 127.762 134.106C127.768 133.392 128.058 132.71 128.57 132.206C129.082 131.702 129.774 131.417 130.497 131.414Z" fill="#D9876F"/>
<path d="M183.271 154.115H91.0391V174.765H183.271V154.115Z" fill="#FFBC96"/>
<path d="M200.656 173.326C205.63 173.326 209.663 169.346 209.663 164.437C209.663 159.527 205.63 155.547 200.656 155.547C195.681 155.547 191.648 159.527 191.648 164.437C191.648 169.346 195.681 173.326 200.656 173.326Z" fill="#D9876F"/>
<path d="M143.26 89.3966H91.7266V92.6258H143.26V89.3966Z" fill="#DDC4B3"/>
<path d="M143.26 95.4001H91.7266V98.6293H143.26V95.4001Z" fill="#DDC4B3"/>
<path d="M109.333 101.583H91.7266V104.812H109.333V101.583Z" fill="#DDC4B3"/>
<path d="M93.1992 171.29H180.762" stroke="white" stroke-miterlimit="10" stroke-linecap="round"/>
<path d="M93.1992 167.643H180.762" stroke="white" stroke-miterlimit="10" stroke-linecap="round"/>
<path d="M93.1992 164.436H180.762" stroke="white" stroke-miterlimit="10" stroke-linecap="round"/>
<path d="M93.1992 160.79H180.762" stroke="white" stroke-miterlimit="10" stroke-linecap="round"/>
<path d="M93.1992 157.456H180.762" stroke="white" stroke-miterlimit="10" stroke-linecap="round"/>
<path d="M219.437 77.7477H87.7305V84.9593H219.437V77.7477Z" fill="#FF6C37"/>
<path d="M93.2064 81.3497C93.2064 81.745 93.0877 82.1315 92.8651 82.4601C92.6426 82.7888 92.3263 83.045 91.9563 83.1963C91.5863 83.3476 91.1791 83.3871 90.7863 83.31C90.3934 83.2329 90.0326 83.0425 89.7494 82.763C89.4662 82.4835 89.2733 82.1274 89.1952 81.7397C89.117 81.352 89.1571 80.9501 89.3104 80.5849C89.4637 80.2197 89.7232 79.9075 90.0563 79.6879C90.3893 79.4683 90.7808 79.3511 91.1813 79.3511C91.7184 79.3511 92.2335 79.5616 92.6133 79.9365C92.9931 80.3113 93.2064 80.8197 93.2064 81.3497Z" fill="#AA3350"/>
<path d="M98.7142 81.3497C98.7142 81.745 98.5955 82.1315 98.3729 82.4601C98.1504 82.7888 97.8342 83.045 97.4641 83.1963C97.0941 83.3476 96.6869 83.3871 96.2941 83.31C95.9012 83.2329 95.5404 83.0425 95.2572 82.763C94.974 82.4835 94.7811 82.1274 94.703 81.7397C94.6248 81.352 94.6649 80.9501 94.8182 80.5849C94.9715 80.2197 95.231 79.9075 95.5641 79.6879C95.8971 79.4683 96.2886 79.3511 96.6892 79.3511C97.2262 79.3511 97.7413 79.5616 98.1211 79.9365C98.5009 80.3113 98.7142 80.8197 98.7142 81.3497Z" fill="#E7A945"/>
<path d="M104.445 81.3497C104.445 81.745 104.326 82.1315 104.103 82.4601C103.881 82.7888 103.565 83.045 103.195 83.1963C102.825 83.3476 102.417 83.3871 102.025 83.31C101.632 83.2329 101.271 83.0425 100.988 82.763C100.704 82.4835 100.512 82.1274 100.433 81.7397C100.355 81.352 100.395 80.9501 100.549 80.5849C100.702 80.2197 100.962 79.9075 101.295 79.6879C101.628 79.4683 102.019 79.3511 102.42 79.3511C102.686 79.3511 102.949 79.4028 103.195 79.5032C103.44 79.6037 103.664 79.7509 103.852 79.9365C104.04 80.1221 104.189 80.3424 104.291 80.5849C104.392 80.8274 104.445 81.0873 104.445 81.3497Z" fill="#F8EEE7"/>
<path d="M129.864 190.091H177.302C178.4 190.091 179.453 190.522 180.23 191.288C181.006 192.055 181.443 193.094 181.443 194.178V194.64H125.723V194.178C125.723 193.641 125.83 193.11 126.038 192.614C126.246 192.118 126.551 191.668 126.935 191.288C127.32 190.909 127.776 190.608 128.279 190.402C128.781 190.197 129.32 190.091 129.864 190.091Z" fill="#262970"/>
<path d="M153.581 184.185H138.227L140.607 190.091H153.581H166.555L168.928 184.185H153.581Z" fill="#1D2051"/>
<path d="M168.928 184.185L139.617 187.645L138.227 184.185H168.928Z" fill="#180F33"/>
<path d="M286.301 194.64H24.3846C23.6501 194.64 23.0547 195.228 23.0547 195.953V196.259C23.0547 196.984 23.6501 197.571 24.3846 197.571H286.301C287.035 197.571 287.631 196.984 287.631 196.259V195.953C287.631 195.228 287.035 194.64 286.301 194.64Z" fill="#19100C"/>
<path opacity="0.45" d="M133.708 80.686L133.852 80.7606L126.522 83.3111C125.704 83.6366 125.043 84.261 124.679 85.0545C124.315 85.8479 124.275 86.7495 124.567 87.5716C124.858 88.3937 125.46 89.0731 126.247 89.4686C127.033 89.8641 127.944 89.9451 128.789 89.6949L139.073 86.0929C139.652 85.8997 140.167 85.5571 140.566 85.1007C140.965 84.6442 141.232 84.0906 141.34 83.4976C141.501 83.4824 141.66 83.4549 141.816 83.4155C142.219 84.1413 142.878 84.696 143.668 84.9742L153.959 88.5688C154.391 88.75 154.856 88.8419 155.325 88.8388C155.794 88.8356 156.258 88.7376 156.687 88.5506C157.116 88.3636 157.502 88.0918 157.82 87.7518C158.139 87.4118 158.384 87.011 158.539 86.574C158.694 86.1371 158.757 85.6734 158.724 85.2115C158.69 84.7496 158.561 84.2994 158.344 83.8888C158.127 83.4781 157.828 83.1157 157.463 82.8239C157.099 82.5321 156.678 82.3172 156.226 82.1924L149.184 79.7239C151.753 78.4263 157.79 72.3706 157.79 72.3706H118.656C123.19 75.2418 129.19 78.4636 133.708 80.6785V80.686Z" fill="#0F2328"/>
<path opacity="0.45" d="M95.4204 121.189L96.2818 121.935L96.6445 120.026L96.3044 119.765L98.2162 118.885L99.7274 114.857L98.6318 115.521L102.327 113.239L109.369 104.111L97.9668 106.348L81.7888 116.334V125.895L92.4432 119.317L84.6904 125.619L81.7812 126.052V131.787L86.5266 130.295L95.4204 121.189ZM94.6647 117.967L94.4834 118.348L95.9946 119.504L94.2718 118.199L94.6647 117.967Z" fill="#0F2328"/>
<path opacity="0.45" d="M221.711 73.6161V85.8841H217.789V114.223H225.345V80.1864C225.348 78.8779 225.017 77.5898 224.382 76.4413C223.746 75.2929 222.828 74.3211 221.711 73.6161Z" fill="#0F2328"/>
<path opacity="0.45" d="M199.031 162.11H149.031V184.185H199.031V162.11Z" fill="#0F2328"/>
<path d="M96.723 104.246L34.8086 142.46L39.1716 149.346L101.086 111.132L96.723 104.246Z" fill="#FECF0F"/>
<path d="M96.7191 104.251L34.8047 142.465L36.9842 145.905L98.8986 107.691L96.7191 104.251Z" fill="#F88A28"/>
<path d="M39.415 139.616L34.8086 142.459L39.1716 149.345L43.778 146.502L39.415 139.616Z" fill="#CE243D"/>
<path d="M40.6531 138.852L39.4102 139.619L43.7732 146.505L45.0161 145.738L40.6531 138.852Z" fill="#22364C"/>
<path d="M96.7148 104.26L108.117 102.015L101.075 111.151L96.7148 104.26Z" fill="#F5A584"/>
<path d="M108.117 102.015L103.145 103L105.041 106.005L108.117 102.015Z" fill="#443961"/>
<path d="M71.46 123.397L70.6666 125.686L67.0547 122.584L69.042 120.57L71.46 123.397Z" fill="#FF9382"/>
<path d="M68.0153 172.207L64.0709 179.188H61.5547L63.7007 170.395L68.0153 172.207Z" fill="#FF9382"/>
<path d="M47.2734 175.824L43.329 182.805H40.8203L42.9663 174.02L47.2734 175.824Z" fill="#FF9382"/>
<path d="M48.2531 176.518L50.6635 173.065L49.4545 172.312L60.2978 137.231L50.195 135.254L49.0389 137.529L41.7924 169.485L40.8177 169.418L40.3945 174.586L48.2531 176.518Z" fill="black"/>
<path d="M58.7973 136.94L50.1982 135.254L49.0421 137.492L48.7701 138.707C48.6596 139.839 49.0074 140.968 49.7373 141.847C50.9765 143.338 56.6891 148.894 56.6891 148.894L60.0894 137.879L58.7973 136.94Z" fill="#180F33"/>
<path d="M75.3903 155.01C75.6746 154.129 75.6961 153.186 75.4523 152.293C75.2084 151.401 74.7095 150.596 74.0151 149.976L57.0814 134.904C56.6102 134.458 56.053 134.111 55.4431 133.881C54.8331 133.652 54.1827 133.547 53.5305 133.57C52.8784 133.594 52.2376 133.747 51.6464 134.019C51.0551 134.292 50.5254 134.679 50.0886 135.158C49.6518 135.636 49.3168 136.197 49.1035 136.805C48.8903 137.414 48.803 138.059 48.847 138.702C48.891 139.344 49.0653 139.972 49.3597 140.546C49.654 141.121 50.0623 141.632 50.5603 142.048L65.6729 155.472L61.0862 168.598C60.6998 168.741 60.3033 168.855 59.8999 168.941C59.6883 168.941 60.5271 173.08 60.5271 173.08L68.907 172.118L71.1739 168.531H70.0782L75.1712 155.577C75.2589 155.394 75.3321 155.204 75.3903 155.01Z" fill="black"/>
<path d="M64.0683 141.198V141.153L57.0409 134.904C56.0801 134.051 54.816 133.609 53.5256 133.675C52.2353 133.741 51.0239 134.309 50.1571 135.254L49.9531 135.508L60.6075 142.22L64.0683 141.198Z" fill="#180F33"/>
<path d="M92.9267 116.073L95.3901 117.93L95.0198 119.847L94.1584 119.123L85.2798 128.266L66.7895 133.957L64.0692 140.266V141.191L60.8729 141.81L48.2539 134.009L48.5637 132.666L66.2152 122.017L67.1598 122.121L71.822 125.276L83.4436 123.568L91.1963 117.259L90.5163 116.535L92.9267 116.073Z" fill="#407BFF"/>
<path d="M66.2171 122.017L54.3613 125.515L51.8828 130.668L66.2171 122.017Z" fill="#407BFF"/>
<path d="M78.9658 118.952C79.675 115.744 77.6155 112.577 74.3659 111.877C71.1163 111.177 67.9072 113.21 67.198 116.417C66.4889 119.624 68.5484 122.792 71.798 123.492C75.0476 124.191 78.2567 122.159 78.9658 118.952Z" fill="#FFC5BC"/>
<path d="M72.4718 118.094C72.3509 119.727 71.5198 120.995 70.6054 120.928C69.6911 120.861 69.0942 119.481 69.1849 117.855C69.2755 116.23 70.137 114.954 71.0513 115.021C71.9656 115.089 72.5927 116.461 72.4718 118.094Z" fill="#FF9697"/>
<path d="M79.3633 115.454C79.3633 115.454 79.1517 108.996 70.4091 111.472C70.4091 111.472 72.2906 109.234 69.6534 108.63C69.6534 108.63 71.5878 105.58 65.4068 106.147C59.2258 106.714 55.9312 113.023 57.6616 115.558C59.392 118.094 61.742 113.44 61.742 113.44C61.742 113.44 62.4976 117.057 65.9357 114.186H66.8274C66.8274 114.186 65.1197 120.51 68.4671 121.987C71.8145 123.464 71.4367 120.54 71.4367 120.54C70.8948 120.173 70.5197 119.611 70.3912 118.974C70.2628 118.337 70.3912 117.677 70.7491 117.132C72.011 115.014 72.6911 116.513 72.3208 117.647C71.9506 118.78 70.9153 121.554 73.7414 117.184C73.7414 117.184 75.2527 118.422 75.6002 116.714C75.6002 116.714 77.1115 117.848 77.3004 116.312C77.3004 116.312 79.265 118.885 78.8117 116.043C79.127 117.359 79.0509 118.737 78.5925 120.011C78.5925 120.011 80.5798 119.108 79.3633 115.454Z" fill="#4C1813"/>
<path d="M58.4473 180.829H72.0486C72.0486 180.829 72.5398 178.278 65.248 177.1C65.248 177.1 63.7367 179.516 61.9837 177.435C61.9912 177.428 58.2735 176.928 58.4473 180.829Z" fill="#22364C"/>
<path d="M36.9648 182.178L50.0146 186.004C50.0146 186.004 51.2236 183.7 44.5665 180.508C44.5665 180.508 42.4507 182.41 41.3399 179.911C41.3399 179.911 37.9169 178.397 36.9648 182.178Z" fill="#22364C"/>
<path d="M61.0625 168.59L70.0772 168.523L61.2287 168.135L61.0625 168.59Z" fill="#180F33"/>
<path d="M41.793 169.485L49.455 172.312L41.9517 168.777L41.793 169.485Z" fill="#180F33"/>
<path d="M51.8828 130.668L66.2171 122.017L52.3664 129.654L51.8828 130.668Z" fill="#180F33"/>
<path d="M93.1992 116.282L94.6047 113.329L94.9674 113.694L94.7634 115.014L98.4811 112.762L96.9623 116.796L95.043 117.676L93.1992 116.282Z" fill="#FFC5BC"/>
<path d="M215.467 162.453H214.137V194.64H215.467V162.453Z" fill="#603128"/>
<path d="M235.471 162.453H234.141V194.64H235.471V162.453Z" fill="#603128"/>
<path d="M237.745 159.902H211.555V162.587H237.745V159.902Z" fill="#DB8B78"/>
<path d="M240.334 186.385C238.506 190.322 235.717 188.092 235.717 188.092C235.033 188.745 234.392 189.44 233.798 190.173C229.944 191.993 229.105 194.596 229.105 194.596H231.448C231.448 194.596 231.448 194.596 231.448 194.64H237.123L244.248 189.211C245.744 186.593 240.334 186.385 240.334 186.385Z" fill="black"/>
<path d="M212.31 185.378C212.31 185.378 211.471 188.816 215.861 188.756C215.861 188.756 218 193.663 214.962 193.455L200.824 186.385C200.824 186.385 203.748 182.208 212.31 185.378Z" fill="black"/>
<path d="M234.138 159.91H212.686L205.696 144.912C205.586 144.678 205.561 144.413 205.624 144.162C205.687 143.911 205.835 143.689 206.044 143.532C206.25 143.382 206.499 143.301 206.754 143.301H226.454L234.138 159.91Z" fill="#34454F"/>
<path d="M225.745 144.189H207.051L213.285 157.628H231.775L225.745 144.189Z" fill="white"/>
<path d="M208.676 146.21L213.822 156.956H220.252L215.469 146.21H208.676Z" fill="#FF6C37"/>
<path d="M207.051 144.189H225.745L226.365 145.561H207.686L207.051 144.189Z" fill="#FF6C37"/>
<path d="M223.763 144.718C223.799 144.774 223.812 144.842 223.8 144.907C223.787 144.972 223.75 145.03 223.695 145.069C223.664 145.079 223.631 145.083 223.598 145.081C223.565 145.079 223.533 145.07 223.504 145.056C223.474 145.041 223.448 145.021 223.426 144.996C223.405 144.972 223.388 144.943 223.378 144.912C223.34 144.858 223.324 144.79 223.336 144.725C223.347 144.659 223.384 144.601 223.439 144.562C223.503 144.542 223.572 144.547 223.632 144.577C223.693 144.606 223.74 144.656 223.763 144.718Z" fill="white"/>
<path d="M224.602 144.718C224.61 144.759 224.606 144.801 224.591 144.84C224.576 144.879 224.551 144.913 224.517 144.939C224.484 144.964 224.444 144.98 224.402 144.984C224.36 144.988 224.317 144.98 224.28 144.962C224.242 144.944 224.21 144.916 224.187 144.88C224.165 144.845 224.153 144.804 224.152 144.763C224.152 144.721 224.164 144.68 224.185 144.645C224.207 144.609 224.239 144.58 224.277 144.562C224.341 144.542 224.41 144.547 224.47 144.577C224.531 144.606 224.578 144.656 224.602 144.718Z" fill="white"/>
<path d="M225.391 144.718C225.399 144.759 225.395 144.801 225.38 144.84C225.365 144.879 225.34 144.913 225.306 144.939C225.273 144.964 225.233 144.98 225.191 144.984C225.149 144.988 225.107 144.98 225.069 144.962C225.031 144.944 224.999 144.916 224.976 144.88C224.954 144.845 224.942 144.804 224.941 144.763C224.941 144.721 224.953 144.68 224.975 144.645C224.996 144.609 225.028 144.58 225.066 144.562C225.13 144.542 225.199 144.547 225.259 144.577C225.32 144.606 225.367 144.656 225.391 144.718Z" fill="white"/>
<path d="M216.375 146.21L216.707 146.948H226.531L226.077 146.21H216.375Z" fill="#FACAF4"/>
<path d="M216.902 147.142L217.235 147.888H227.066L226.612 147.142H216.902Z" fill="#FACAF4"/>
<path d="M222.617 168.531L232.554 187.459L240.934 182.596L231.012 160.931L229.259 159.544L222.617 168.531Z" fill="black"/>
<path d="M235.554 170.843L227.869 178.532L222.617 168.531L229.259 159.544L231.012 160.931L235.554 170.843Z" fill="#180F33"/>
<path d="M259.901 165.719C259.901 165.719 258.745 170.298 249.949 170.298H235.229L219.678 187.72L212.5 182.238L229.26 159.544L245.022 159.291C245.022 159.291 259.319 163.616 259.901 165.719Z" fill="black"/>
<path d="M228.312 160.73L237.947 162.281L240.425 159.283L229.257 159.544L228.312 160.73Z" fill="#180F33"/>
<path d="M245.02 159.291L259.067 167.166C259.438 166.743 259.721 166.251 259.898 165.719C259.316 163.616 245.02 159.291 245.02 159.291Z" fill="#180F33"/>
<path d="M222.033 155.099L221.504 159.082L237.954 162.289L244.709 152.668L245.019 159.291L260.207 165.853C260.207 165.853 263.721 167.919 262.474 162.236C261.227 156.554 253.988 135.769 253.988 135.769L254.245 133.338L246.689 135.575L244.86 137.126L232.77 153.72L222.033 155.099Z" fill="#FF6C37"/>
<path d="M221.989 155.435C221.989 155.435 215.944 155.599 213.828 158.843L221.505 159.082L221.989 155.435Z" fill="#FFC5BC"/>
<path d="M250.795 132.756L251.248 134.24L246.556 135.732L245.113 136.955L244.516 133.338L250.795 132.756Z" fill="#FF9382"/>
<path d="M246.349 134.367C250.139 134.367 253.211 131.335 253.211 127.595C253.211 123.855 250.139 120.824 246.349 120.824C242.56 120.824 239.488 123.855 239.488 127.595C239.488 131.335 242.56 134.367 246.349 134.367Z" fill="#FFC5BC"/>
<path d="M252.396 127.006C251.852 128.751 250.439 129.87 249.253 129.504C248.067 129.139 247.553 127.431 248.104 125.686C248.656 123.941 250.061 122.822 251.248 123.188C252.434 123.553 252.948 125.261 252.396 127.006Z" fill="#FF9697"/>
<path d="M253.771 118.295C250.363 112.717 239.792 117.363 239.157 118.504C236.641 122.979 240.601 123.911 240.601 123.911C238.999 126.014 244.515 123.001 244.515 123.001C243.835 124.582 246.298 124.925 247.537 125C247.537 125 247.537 128.259 248.384 128.885C248.384 128.885 247.809 126.096 248.792 124.478C249.547 123.829 250.922 123.031 251.814 124.813C253.099 127.371 249.88 129.363 249.88 129.363C247.998 133.39 250.779 132.756 250.779 132.756C255.562 133.211 255.313 125.634 255.313 125.634C259.378 121.86 253.771 118.295 253.771 118.295Z" fill="#20354C"/>
<path d="M234.375 186.407L237.216 190.091L240.934 187.712L239.309 183.543L234.375 186.407Z" fill="#FFC5BC"/>
<path d="M213.645 183.111L211.25 187.16L214.892 189.651L218.187 186.586L213.645 183.111Z" fill="#FFC5BC"/>
<path d="M242.845 171.099L242.722 171.06C242.412 170.964 242.081 171.134 241.983 171.441L234.834 193.848C234.736 194.154 234.908 194.481 235.219 194.577L235.341 194.615C235.652 194.712 235.983 194.542 236.08 194.235L243.23 171.828C243.328 171.522 243.155 171.195 242.845 171.099Z" fill="#132433"/>
<path d="M268.882 194.601L269.004 194.563C269.315 194.467 269.487 194.14 269.389 193.834L262.24 171.427C262.142 171.12 261.811 170.95 261.501 171.046L261.378 171.084C261.068 171.181 260.895 171.508 260.993 171.814L268.142 194.221C268.24 194.528 268.571 194.698 268.882 194.601Z" fill="#132433"/>
<path d="M273.885 142.138C273.687 142.052 273.464 142.048 273.263 142.124C273.062 142.201 272.899 142.354 272.812 142.548L260.503 170.298H241.242C241.04 170.317 240.852 170.41 240.716 170.558C240.579 170.707 240.504 170.9 240.504 171.1C240.504 171.3 240.579 171.493 240.716 171.641C240.852 171.79 241.04 171.882 241.242 171.902H264.198C264.399 171.882 264.587 171.79 264.723 171.641C264.86 171.493 264.935 171.3 264.935 171.1C264.935 170.9 264.86 170.707 264.723 170.558C264.587 170.41 264.399 170.317 264.198 170.298H262.301L274.331 143.197C274.373 143.098 274.394 142.993 274.394 142.886C274.395 142.779 274.373 142.674 274.332 142.575C274.291 142.477 274.23 142.387 274.153 142.312C274.076 142.237 273.985 142.178 273.885 142.138Z" fill="#31567E"/>
<path d="M140.815 83.6284L151.754 87.456C153.359 88.0175 155.121 87.1887 155.69 85.6048L155.923 84.9581C156.491 83.3742 155.652 81.635 154.047 81.0735L143.108 77.246C141.503 76.6845 139.741 77.5133 139.172 79.0972L138.939 79.7438C138.37 81.3277 139.21 83.0669 140.815 83.6284Z" fill="#AF3552"/>
<path d="M138.871 80.947L144.916 84.2135C145.605 84.2189 146.273 83.9861 146.806 83.5556C147.339 83.1252 147.702 82.5241 147.833 81.8569C148.294 79.4629 147.115 79.1348 147.115 79.1348L143.035 76.2487L138.871 80.947Z" fill="#E0948C"/>
<path d="M134.615 78.3689L123.675 82.1964C122.07 82.7579 121.231 84.4971 121.8 86.081L122.032 86.7277C122.601 88.3116 124.363 89.1404 125.968 88.5789L136.907 84.7513C138.512 84.1898 139.352 82.4506 138.783 80.8667L138.551 80.2201C137.982 78.6362 136.22 77.8074 134.615 78.3689Z" fill="#D04964"/>
<path d="M139.512 40.8989L137.041 40.2203L134.57 40.8989L134.109 41.6671L137.041 45.1498L139.981 41.6671L139.512 40.8989Z" fill="#FF9382"/>
<path d="M149.758 45.3587C148.334 44.4158 146.707 43.8155 145.005 43.6061C143.203 43.3489 141.484 42.6882 139.98 41.6746C139.98 41.6746 138.514 43.017 137.048 43.017C135.583 43.017 134.117 41.6746 134.117 41.6746C132.609 42.6872 130.888 43.3477 129.084 43.6061C127.385 43.8142 125.759 44.4146 124.339 45.3587C120.009 49.4977 119.238 72.3781 119.238 72.3781H154.851C154.851 72.3781 154.088 49.4977 149.758 45.3587Z" fill="#407BFF"/>
<path d="M127.205 48.118C127.205 48.118 124.409 68.5224 124.938 72.3781H126.018L127.205 48.118Z" fill="#180F33"/>
<path d="M147.266 48.118C147.266 48.118 150.061 68.5224 149.533 72.3781H148.452L147.266 48.118Z" fill="#180F33"/>
<path d="M141.363 77.0616C141.363 77.0616 130.543 66.6207 123.84 63.2797C117.138 59.9386 113.261 59.424 113.261 59.424C113.261 59.424 109.075 62.1759 109.423 65.4872C109.77 68.7984 133.475 81.0738 137.253 82.0955C141.031 83.1173 142.346 79.4779 141.363 77.0616Z" fill="black"/>
<path d="M141.362 77.0616C141.362 77.0616 133.05 68.9998 126.453 64.7861L126.521 74.0859L135.506 75.1076L131.206 79.4481C133.158 80.4655 135.177 81.3501 137.251 82.0956C141.029 83.1322 142.344 79.4779 141.362 77.0616Z" fill="#180F33"/>
<path d="M132.167 52.6971H149.192C150.695 52.6971 152.136 53.2864 153.199 54.3353C154.262 55.3843 154.859 56.807 154.859 58.2904V74.1008H126.5V58.2904C126.5 56.807 127.097 55.3843 128.16 54.3353C129.223 53.2864 130.664 52.6971 132.167 52.6971Z" fill="#5BA1DB"/>
<path d="M138.877 82.0731L132.832 85.3396C132.144 85.345 131.475 85.1122 130.942 84.6817C130.409 84.2513 130.046 83.6502 129.916 82.983C129.455 80.589 130.633 80.2609 130.633 80.2609L134.714 77.3748L138.877 82.0731Z" fill="#FFC5BC"/>
<path d="M134.599 77.0615C134.599 77.0615 145.427 66.6207 152.129 63.2796C158.832 59.9386 162.67 59.4464 162.67 59.4464C162.67 59.4464 166.864 62.1983 166.516 65.5095C166.169 68.8207 142.495 81.0738 138.717 82.0955C134.939 83.1172 133.624 79.4778 134.599 77.0615Z" fill="black"/>
<path d="M133.096 34.8358C133.678 36.0589 133.406 37.3938 132.499 37.8189C131.593 38.244 130.384 37.5877 129.809 36.3647C129.235 35.1416 129.492 33.8067 130.399 33.3816C131.306 32.9565 132.515 33.6277 133.096 34.8358Z" fill="#FF9697"/>
<path d="M141.032 34.8358C140.45 36.0589 140.714 37.3938 141.621 37.8189C142.528 38.244 143.737 37.5877 144.319 36.3647C144.9 35.1416 144.628 33.8067 143.722 33.3816C142.815 32.9565 141.576 33.6277 141.032 34.8358Z" fill="#FF9697"/>
<path d="M137.041 41.4583C140.129 41.4583 142.633 38.9875 142.633 35.9396C142.633 32.8917 140.129 30.4208 137.041 30.4208C133.953 30.4208 131.449 32.8917 131.449 35.9396C131.449 38.9875 133.953 41.4583 137.041 41.4583Z" fill="#FFC5BC"/>
<path d="M141.507 32.5985C141.507 32.5985 138.129 34.9626 137.948 33.747C137.831 33.0403 137.875 32.3168 138.076 31.629C138.076 31.629 132.447 35.5294 132.394 33.5158C132.394 33.5158 132.288 36.3348 131.593 37.185L131.321 34.9477C131.321 34.9477 131.268 33.2473 130.399 33.3741C130.399 33.3741 128.389 32.6283 128.986 30.6819C128.986 30.6819 126.999 30.6296 128.072 27.9449C129.145 25.2601 132.84 22.8811 137.29 22.4112C141.741 21.9414 143.993 24.9245 144.31 26.8859C144.628 28.8472 146.388 33.7022 144.461 34.269C144.342 33.9096 144.084 33.6111 143.743 33.4381C143.402 33.265 143.006 33.2313 142.64 33.3443C142.64 33.3443 142.988 37.2223 142.263 37.9606C142.263 37.9531 142.497 34.1721 141.507 32.5985Z" fill="#443C61"/>
<path d="M36.957 194.64H98.896V173.065H87.7278V180.821H61.0616V187.645H36.957V194.64Z" fill="#455A64"/>
<path d="M83.0728 52.6449H45.8203V73.4595H83.0728V52.6449Z" fill="#E7AA46"/>
<path d="M45.8203 73.452L63.6078 58.8497L83.0728 73.452H45.8203Z" fill="#BA8332"/>
<path d="M45.8203 52.6449L63.6078 63.4213L83.0728 52.6449H45.8203Z" fill="#EDB564"/>
<path d="M87.7227 52.7141C88.4864 49.5107 86.4742 46.3028 83.2285 45.5491C79.9827 44.7954 76.7324 46.7812 75.9687 49.9847C75.205 53.1881 77.2172 56.396 80.4629 57.1498C83.7087 57.9035 86.959 55.9176 87.7227 52.7141Z" fill="#407BFF"/>
<path d="M84.2447 60.3044C83.5131 60.3044 82.8668 60.1747 82.3058 59.9155C81.7482 59.6527 81.3132 59.2923 81.0007 58.8342C80.6882 58.3725 80.5337 57.847 80.5373 57.2575C80.5337 56.7958 80.6243 56.3697 80.8089 55.9791C80.9936 55.5849 81.2457 55.2564 81.5653 54.9936C81.8885 54.7273 82.2489 54.5586 82.6467 54.4876V54.4237C82.1246 54.2887 81.7092 53.9958 81.4002 53.5448C81.0913 53.0902 80.9386 52.5735 80.9421 51.9947C80.9386 51.4407 81.0788 50.9453 81.3629 50.5086C81.647 50.0718 82.0376 49.7273 82.5348 49.4752C83.0355 49.223 83.6055 49.097 84.2447 49.097C84.8768 49.097 85.4414 49.223 85.9386 49.4752C86.4357 49.7273 86.8263 50.0718 87.1104 50.5086C87.3981 50.9453 87.5437 51.4407 87.5472 51.9947C87.5437 52.5735 87.3857 53.0902 87.0732 53.5448C86.7642 53.9958 86.354 54.2887 85.8427 54.4237V54.4876C86.2369 54.5586 86.592 54.7273 86.908 54.9936C87.2241 55.2564 87.4762 55.5849 87.6644 55.9791C87.8526 56.3697 87.9485 56.7958 87.9521 57.2575C87.9485 57.847 87.7887 58.3725 87.4727 58.8342C87.1602 59.2923 86.7251 59.6527 86.1676 59.9155C85.6136 60.1747 84.9727 60.3044 84.2447 60.3044ZM84.2447 59.1325C84.7383 59.1325 85.1644 59.0526 85.5231 58.8928C85.8817 58.733 86.1587 58.5075 86.354 58.2163C86.5494 57.9251 86.6488 57.5842 86.6523 57.1936C86.6488 56.7816 86.5423 56.4176 86.3327 56.1016C86.1232 55.7855 85.8374 55.537 85.4751 55.3559C85.1165 55.1747 84.7063 55.0842 84.2447 55.0842C83.7795 55.0842 83.364 55.1747 82.9982 55.3559C82.636 55.537 82.3501 55.7855 82.1406 56.1016C81.9347 56.4176 81.8335 56.7816 81.837 57.1936C81.8335 57.5842 81.9276 57.9251 82.1193 58.2163C82.3146 58.5075 82.5934 58.733 82.9556 58.8928C83.3178 59.0526 83.7475 59.1325 84.2447 59.1325ZM84.2447 53.9549C84.6353 53.9549 84.9815 53.8768 85.2834 53.7206C85.5888 53.5643 85.8285 53.3459 86.0025 53.0654C86.1765 52.7848 86.2653 52.4563 86.2688 52.0799C86.2653 51.7106 86.1783 51.3892 86.0078 51.1158C85.8374 50.8388 85.6012 50.6257 85.2994 50.4766C84.9975 50.3239 84.646 50.2475 84.2447 50.2475C83.8363 50.2475 83.4794 50.3239 83.174 50.4766C82.8686 50.6257 82.6325 50.8388 82.4656 51.1158C82.2987 51.3892 82.217 51.7106 82.2205 52.0799C82.217 52.4563 82.3004 52.7848 82.4709 53.0654C82.6449 53.3459 82.8846 53.5643 83.19 53.7206C83.4954 53.8768 83.8469 53.9549 84.2447 53.9549Z" fill="white"/>
<path d="M53.8611 106.713V101.21H51.4658C51.2945 100.668 51.0719 100.144 50.8008 99.6435L52.501 97.9656L48.5566 94.0801L46.8564 95.7506C46.3491 95.4861 45.8179 95.2689 45.2696 95.1018V92.7302H39.6931V95.1018C39.1458 95.2715 38.6148 95.4886 38.1062 95.7506L36.4061 94.0801L32.4617 97.9656L34.1619 99.6435C33.8964 100.145 33.6764 100.67 33.5045 101.21H31.1016V106.721H33.5045C33.6764 107.261 33.8964 107.785 34.1619 108.287L32.4617 109.958L36.4061 113.851L38.1062 112.18C38.6148 112.442 39.1458 112.659 39.6931 112.829V115.2H45.2696V112.829C45.8179 112.662 46.3491 112.445 46.8564 112.18L48.5566 113.851L52.501 109.958L50.8008 108.287C51.0719 107.787 51.2945 107.262 51.4658 106.721L53.8611 106.713ZM42.4813 110.905C41.084 110.905 39.718 110.496 38.5562 109.73C37.3943 108.963 36.4888 107.874 35.954 106.6C35.4193 105.326 35.2794 103.924 35.552 102.571C35.8246 101.219 36.4975 99.9763 37.4855 99.0011C38.4736 98.0259 39.7325 97.3618 41.103 97.0928C42.4735 96.8237 43.8941 96.9618 45.1851 97.4896C46.476 98.0173 47.5795 98.9111 48.3558 100.058C49.1321 101.204 49.5465 102.553 49.5465 103.932C49.5475 104.848 49.3654 105.755 49.0107 106.601C48.656 107.448 48.1356 108.217 47.4794 108.865C46.8231 109.512 46.0439 110.026 45.1862 110.376C44.3286 110.726 43.4094 110.906 42.4813 110.905Z" fill="#407BFF"/>
<path d="M58.5244 89.7472V86.5255H57.1567C57.0597 86.2053 56.9306 85.8955 56.7713 85.6007L57.7687 84.6238L55.4187 82.3417L54.4213 83.3112C54.1222 83.1602 53.8114 83.0331 53.4919 82.9308V81.5437H50.22V82.9308C49.9004 83.0331 49.5896 83.1602 49.2906 83.3112L48.2931 82.3342L45.9809 84.6163L46.9783 85.5933C46.8222 85.8896 46.6932 86.199 46.593 86.518H45.1875V89.7398H46.5779C46.6781 90.0563 46.8071 90.3633 46.9632 90.6571L45.9658 91.6415L48.278 93.9236L49.2755 92.9391C49.5729 93.0956 49.8839 93.2254 50.2049 93.3269V94.7141H53.4768V93.3269C53.7977 93.2254 54.1088 93.0956 54.4062 92.9391L55.4036 93.9236L57.7158 91.6415L56.7184 90.6571C56.8777 90.3648 57.0068 90.0575 57.1038 89.7398L58.5244 89.7472ZM51.8673 92.2605C51.048 92.262 50.2466 92.0235 49.5647 91.5754C48.8827 91.1272 48.3508 90.4894 48.0362 89.7428C47.7217 88.9961 47.6386 88.1742 47.7975 87.3809C47.9564 86.5877 48.3502 85.8588 48.929 85.2864C49.5078 84.7141 50.2456 84.3242 51.0491 84.1659C51.8525 84.0076 52.6855 84.0881 53.4426 84.3972C54.1997 84.7063 54.8468 85.2301 55.3022 85.9023C55.7575 86.5746 56.0006 87.365 56.0006 88.1736C56.0006 89.2562 55.5653 90.2946 54.7904 91.0608C54.0155 91.8271 52.9642 92.2585 51.8673 92.2605Z" fill="#FF6C37"/>
<path d="M196.102 160.044H146.102V194.64H196.102V160.044Z" fill="#407BFF"/>
<path d="M193.116 165.205H148.73V192.366H193.116V165.205Z" fill="white"/>
<path d="M156.802 186.385H153.727V190.986H156.802V186.385Z" fill="#407BFF"/>
<path d="M162.513 172.931H159.438V190.986H162.513V172.931Z" fill="#407BFF"/>
<path d="M168.384 179.613H165.309V190.986H168.384V179.613Z" fill="#407BFF"/>
<path d="M173.97 174.997H170.895V190.986H173.97V174.997Z" fill="#407BFF"/>
<path d="M180.521 172.931H177.445V190.986H180.521V172.931Z" fill="#407BFF"/>
<path d="M186.806 168.247H183.73V190.993H186.806V168.247Z" fill="#407BFF"/>
<path d="M150.287 164.064C151.018 164.064 151.61 163.479 151.61 162.758C151.61 162.038 151.018 161.453 150.287 161.453C149.557 161.453 148.965 162.038 148.965 162.758C148.965 163.479 149.557 164.064 150.287 164.064Z" fill="#AA3350"/>
<path d="M153.893 164.064C154.623 164.064 155.215 163.479 155.215 162.758C155.215 162.038 154.623 161.453 153.893 161.453C153.162 161.453 152.57 162.038 152.57 162.758C152.57 163.479 153.162 164.064 153.893 164.064Z" fill="#E7A945"/>
<path d="M157.6 164.064C158.33 164.064 158.922 163.479 158.922 162.758C158.922 162.038 158.33 161.453 157.6 161.453C156.869 161.453 156.277 162.038 156.277 162.758C156.277 163.479 156.869 164.064 157.6 164.064Z" fill="#F8EEE7"/>
<path d="M227.4 42.6516L219.617 49.9228V82.983H249.85V42.6516H227.4Z" fill="white"/>
<path d="M219.617 49.9228L227.113 50.87L227.4 42.6516L219.617 49.9228Z" fill="#CEC2BA"/>
<path d="M227.4 42.6516L219.617 49.9228H228.073L227.4 42.6516Z" fill="#E0BCA4"/>
<path d="M247.469 77.9714L242.55 82.983H215.688V111.345H253.915V82.983V77.9714H247.469Z" fill="#D9876F"/>
<path d="M223.75 54.6063H245.709" stroke="#180F33" stroke-linecap="round" stroke-linejoin="round"/>
<path d="M223.75 57.4999H245.709" stroke="#180F33" stroke-linecap="round" stroke-linejoin="round"/>
<path d="M223.75 60.3339H245.709" stroke="#180F33" stroke-linecap="round" stroke-linejoin="round"/>
<path d="M223.75 63.2274H245.709" stroke="#180F33" stroke-linecap="round" stroke-linejoin="round"/>
<path d="M223.75 65.5692H245.709" stroke="#180F33" stroke-linecap="round" stroke-linejoin="round"/>
<path d="M223.75 68.4628H245.709" stroke="#180F33" stroke-linecap="round" stroke-linejoin="round"/>
<path d="M223.75 70.7672H245.709" stroke="#180F33" stroke-linecap="round" stroke-linejoin="round"/>
<path d="M223.75 73.6608H245.709" stroke="#180F33" stroke-linecap="round" stroke-linejoin="round"/>
<path d="M154.533 32.7327V39.3105L151.367 42.7485L157.919 39.3105H168.641C168.948 39.3105 169.252 39.2506 169.536 39.1343C169.82 39.0181 170.078 38.8477 170.295 38.6329C170.511 38.4181 170.683 38.1632 170.8 37.8827C170.917 37.6023 170.977 37.3018 170.976 36.9986V32.7327C170.977 32.4295 170.917 32.129 170.8 31.8486C170.683 31.5681 170.511 31.3132 170.295 31.0984C170.078 30.8837 169.82 30.7132 169.536 30.597C169.252 30.4807 168.948 30.4208 168.641 30.4208H156.898C156.589 30.4169 156.281 30.4738 155.994 30.5883C155.707 30.7028 155.445 30.8726 155.225 31.0878C155.005 31.303 154.83 31.5592 154.712 31.8416C154.593 32.124 154.532 32.427 154.533 32.7327Z" fill="#407BFF"/>
<path d="M159.795 34.8358C159.796 35.1459 159.704 35.4494 159.531 35.7079C159.358 35.9665 159.11 36.1684 158.82 36.288C158.531 36.4077 158.211 36.4398 157.903 36.3802C157.595 36.3206 157.311 36.1721 157.089 35.9533C156.866 35.7346 156.714 35.4556 156.652 35.1516C156.59 34.8476 156.621 34.5323 156.741 34.2457C156.861 33.9591 157.064 33.714 157.326 33.5416C157.587 33.3692 157.894 33.2772 158.208 33.2772C158.627 33.2772 159.03 33.4411 159.327 33.7332C159.625 34.0253 159.793 34.4218 159.795 34.8358Z" fill="white"/>
<path d="M164.584 34.8358C164.585 35.1462 164.493 35.45 164.32 35.7087C164.146 35.9674 163.898 36.1692 163.608 36.2887C163.317 36.4082 162.998 36.4398 162.689 36.3796C162.381 36.3194 162.097 36.1701 161.875 35.9506C161.653 35.7312 161.501 35.4514 161.44 35.1469C161.379 34.8424 161.411 34.5269 161.532 34.2405C161.653 33.954 161.858 33.7095 162.12 33.5379C162.382 33.3664 162.69 33.2756 163.005 33.2771C163.423 33.2771 163.825 33.4413 164.121 33.7336C164.417 34.0259 164.584 34.4224 164.584 34.8358Z" fill="white"/>
<path d="M169.322 34.8358C169.324 35.1462 169.232 35.45 169.058 35.7087C168.884 35.9674 168.636 36.1692 168.346 36.2887C168.056 36.4082 167.736 36.4398 167.428 36.3796C167.119 36.3194 166.836 36.1701 166.613 35.9506C166.391 35.7312 166.24 35.4514 166.179 35.1469C166.118 34.8424 166.15 34.5269 166.271 34.2405C166.392 33.954 166.596 33.7095 166.858 33.5379C167.12 33.3664 167.428 33.2756 167.743 33.2771C168.161 33.2791 168.562 33.4439 168.857 33.7358C169.153 34.0277 169.32 34.423 169.322 34.8358Z" fill="white"/>
<path d="M103.379 24.4845H104.762C105.14 24.5367 105.518 24.5814 105.911 24.656C108.001 25.0832 109.884 26.194 111.256 27.8086C112.627 29.4232 113.406 31.4472 113.467 33.5531C113.5 35.3097 113.048 37.0419 112.16 38.5647C109.999 42.4577 107.843 46.3531 105.692 50.251C105.569 50.5318 105.384 50.7817 105.15 50.9819C104.915 51.182 104.638 51.3273 104.339 51.4069H103.81C103.543 51.3439 103.292 51.2246 103.076 51.0573C102.859 50.89 102.682 50.6786 102.556 50.4374C100.349 46.4252 98.1354 42.4204 95.9139 38.423C94.8857 36.61 94.4901 34.5136 94.788 32.4568C95.0484 30.6588 95.8349 28.975 97.051 27.6118C98.2671 26.2486 99.8599 25.2654 101.634 24.7828C102.201 24.656 102.798 24.5889 103.379 24.4845ZM104.082 29.1158C103.323 29.1143 102.581 29.3349 101.949 29.7496C101.317 30.1643 100.824 30.7546 100.532 31.4459C100.24 32.1371 100.162 32.8984 100.308 33.6333C100.454 34.3683 100.817 35.0441 101.352 35.5753C101.887 36.1064 102.57 36.4692 103.314 36.6176C104.058 36.7661 104.829 36.6936 105.531 36.4094C106.234 36.1252 106.835 35.6419 107.258 35.0207C107.682 34.3995 107.91 33.6682 107.913 32.9192C107.915 32.4211 107.818 31.9274 107.626 31.4665C107.435 31.0057 107.153 30.5866 106.797 30.2333C106.441 29.88 106.018 29.5995 105.552 29.4077C105.087 29.2159 104.587 29.1167 104.082 29.1158Z" fill="#FF6C37"/>
<path d="M227.4 42.6516L219.617 49.9228V82.983H249.85V42.6516H227.4Z" fill="#CBE0FF"/>
<path d="M219.617 49.9228L227.113 50.87L227.4 42.6516L219.617 49.9228Z" fill="#AA8B61"/>
<path d="M227.4 42.6516L219.617 49.9228H228.073L227.4 42.6516Z" fill="#407BFF"/>
<path d="M247.469 77.9714L242.55 82.983H215.688V111.345H253.915V82.983V77.9714H247.469Z" fill="#407BFF"/>
<path d="M223.75 54.6063H245.709" stroke="white" stroke-linecap="round" stroke-linejoin="round"/>
<path d="M223.75 57.4999H245.709" stroke="white" stroke-linecap="round" stroke-linejoin="round"/>
<path d="M223.75 60.3339H245.709" stroke="white" stroke-linecap="round" stroke-linejoin="round"/>
<path d="M223.75 63.2274H245.709" stroke="white" stroke-linecap="round" stroke-linejoin="round"/>
<path d="M223.75 65.5692H245.709" stroke="white" stroke-linecap="round" stroke-linejoin="round"/>
<path d="M223.75 68.4628H245.709" stroke="white" stroke-linecap="round" stroke-linejoin="round"/>
<path d="M223.75 70.7672H245.709" stroke="white" stroke-linecap="round" stroke-linejoin="round"/>
<path d="M223.75 73.6608H245.709" stroke="white" stroke-linecap="round" stroke-linejoin="round"/>
<path d="M228.473 96.5039L233.052 101.262L242.459 91.2686" stroke="white" stroke-width="4" stroke-linecap="round" stroke-linejoin="round"/>
<path d="M212.16 52.2193C214.234 43.4681 208.726 34.7151 199.859 32.669C190.992 30.6229 182.124 36.0584 180.051 44.8096C177.978 53.5608 183.485 62.3137 192.352 64.3599C201.219 66.406 210.087 60.9705 212.16 52.2193Z" fill="#FF6C37"/>
<path d="M188.711 58.723V39.1912L208.501 48.9608L188.711 58.723Z" fill="white"/>
</g>
<defs>
<clipPath id="clip0_1208_24711">
<rect width="302.682" height="197.392" fill="white" transform="translate(0 0.179688)"/>
</clipPath>
</defs>
</svg>
