<svg width="243" height="198" viewBox="0 0 243 198" fill="none" xmlns="http://www.w3.org/2000/svg">
<g clip-path="url(#clip0_1208_24320)">
<path d="M237.762 108.611C237.576 102.142 231.467 99.6337 227.389 104.314C224.498 107.585 222.751 111.688 222.408 116.015C221.472 127.559 231.701 124.206 235.518 118.03C237.15 115.396 237.857 111.886 237.762 108.611Z" fill="#DCEDF9"/>
<path d="M125.233 29.7C118.789 28.4932 114.999 33.8452 118.763 38.7775C121.378 42.2708 125.063 44.8394 129.274 46.1025C140.497 49.4659 139.375 38.893 134.058 33.8872C131.815 31.7359 128.492 30.3087 125.233 29.7Z" fill="#DCEDF9"/>
<path d="M121.416 197.571C182.418 197.571 231.871 194.357 231.871 190.393C231.871 186.429 182.418 183.215 121.416 183.215C60.4132 183.215 10.9609 186.429 10.9609 190.393C10.9609 194.357 60.4132 197.571 121.416 197.571Z" fill="#DCEDF9"/>
<path d="M228.894 131.515C222.131 138.189 229.676 138.756 224.71 143.793C220.191 148.385 213.513 143.914 213.96 155.132C214.056 157.588 212.248 159.409 209.707 160.343C207.846 161.04 205.812 161.154 203.883 160.669C201.954 160.185 200.223 159.125 198.925 157.635C198.723 157.41 198.526 157.168 198.346 156.922C197.332 155.572 196.689 153.987 196.481 152.32C196.272 150.653 196.504 148.961 197.155 147.409C198.303 144.601 200.345 141.847 203.939 140.745C212.397 138.168 207.703 127.102 214.848 126.63C223.471 126.042 223.78 122.926 229.894 118.717C236.38 114.257 238.06 122.474 228.894 131.515Z" fill="#E0E0E0"/>
<path d="M225.862 127.868C225.67 128.063 209.992 144.019 198.923 157.635C198.721 157.41 198.525 157.168 198.344 156.922C209.439 143.279 225.022 127.438 225.213 127.249C225.255 127.207 225.304 127.174 225.359 127.151C225.414 127.129 225.473 127.117 225.532 127.117C225.592 127.117 225.65 127.129 225.705 127.151C225.76 127.174 225.81 127.207 225.851 127.249C225.934 127.331 225.981 127.441 225.983 127.557C225.985 127.672 225.942 127.784 225.862 127.868Z" fill="#CECECE"/>
<path d="M230.626 153.789C220.035 159.944 229.238 163.05 221.418 167.741C214.288 172.023 207.441 164.336 204.331 178.44C203.65 181.525 200.806 183.22 197.345 183.572C194.797 183.849 192.226 183.343 189.981 182.123C187.736 180.903 185.928 179.028 184.803 176.756C184.622 176.41 184.463 176.053 184.314 175.706C183.492 173.705 183.21 171.527 183.494 169.385C183.778 167.244 184.619 165.211 185.936 163.486C188.28 160.338 191.709 157.572 196.568 157.347C207.935 156.822 205.697 141.574 214.751 143.242C225.671 145.252 227.074 141.469 236.059 138.179C245.576 134.69 244.986 145.446 230.626 153.789Z" fill="#E0E0E0"/>
<path d="M228.044 148.29C227.747 148.469 203.02 163.344 184.806 176.777C184.625 176.431 184.465 176.074 184.316 175.727C202.573 162.295 227.141 147.508 227.444 147.33C227.508 147.291 227.581 147.264 227.656 147.253C227.731 147.241 227.808 147.244 227.882 147.261C227.956 147.279 228.026 147.311 228.087 147.355C228.149 147.399 228.201 147.455 228.241 147.519C228.315 147.648 228.335 147.8 228.299 147.943C228.262 148.087 228.171 148.211 228.044 148.29Z" fill="#CECECE"/>
<path d="M23.9899 55.2955C27.6264 64.0215 20.4439 61.676 23.0596 68.2139C25.436 74.1694 33.3416 72.5848 28.5515 82.7642C27.4882 84.9942 28.4611 87.3607 30.4441 89.1867C31.8892 90.545 33.7249 91.4286 35.6992 91.7161C37.6734 92.0036 39.6895 91.6809 41.4705 90.7923C41.7522 90.6611 42.0021 90.5142 42.2892 90.3568C43.7514 89.4969 44.9631 88.278 45.8063 86.8187C46.6494 85.3594 47.0953 83.7095 47.1006 82.0296C47.1378 79.002 46.335 75.6858 43.4429 73.2984C36.6431 67.7049 45.293 59.2886 38.8867 56.1245C31.1618 52.3046 32.0922 49.3033 28.0942 43.1012C23.8251 36.5213 19.0669 43.479 23.9899 55.2955Z" fill="#E0E0E0"/>
<path d="M28.2146 53.0812C28.3156 53.333 36.5561 74.0172 41.4473 90.7922C41.729 90.6611 41.9789 90.5141 42.266 90.3567C37.3483 73.5659 29.1609 53.0025 29.0599 52.7558C29.0383 52.7011 29.0059 52.651 28.9647 52.6086C28.9234 52.5662 28.8741 52.5321 28.8196 52.5085C28.765 52.4849 28.7063 52.4721 28.6467 52.4709C28.5872 52.4696 28.5279 52.48 28.4724 52.5014C28.4169 52.5227 28.3662 52.5547 28.3232 52.5954C28.2802 52.6361 28.2458 52.6847 28.2218 52.7386C28.1979 52.7924 28.1849 52.8504 28.1837 52.9091C28.1824 52.9679 28.1929 53.0264 28.2146 53.0812Z" fill="#CECECE"/>
<path d="M13.6411 78.11C21.3075 87.5968 11.589 87.2452 17.1925 94.376C22.3017 100.882 31.4832 96.1233 29.2768 110.39C28.7931 113.539 30.8399 116.094 33.95 117.647C36.225 118.804 38.8062 119.241 41.3418 118.897C43.8773 118.553 46.2437 117.446 48.1184 115.727C48.4108 115.464 48.6926 115.202 48.9637 114.898C50.4576 113.318 51.5109 111.383 52.0206 109.281C52.5303 107.18 52.479 104.984 51.8718 102.908C50.8085 99.1614 48.6181 95.352 44.1789 93.4316C33.748 88.9348 41.3612 75.4812 32.2966 73.844C21.3713 71.8711 21.4298 67.8413 14.2206 61.5973C6.59682 54.9806 3.25277 65.2388 13.6411 78.11Z" fill="#E0E0E0"/>
<path d="M18.0476 73.865C18.2603 74.1378 35.9694 96.7582 48.1175 115.727C48.4099 115.464 48.6917 115.202 48.9628 114.897C36.7775 95.9134 19.1906 73.4452 18.9673 73.1619C18.8729 73.0415 18.7338 72.9631 18.5808 72.9439C18.4277 72.9247 18.2732 72.9663 18.1513 73.0596C18.0293 73.1528 17.9499 73.29 17.9304 73.4411C17.911 73.5921 17.9531 73.7446 18.0476 73.865Z" fill="#CECECE"/>
<path d="M65.3529 69.8353C68.4418 67.7364 76.1772 72.8996 80.239 79.1489L76.6504 69.2266C74.5421 67.4972 72.1263 66.1699 69.5263 65.3122C63.9972 63.3813 58.4628 60.3537 61.5516 58.2601C64.4491 56.3029 71.4456 60.721 75.6349 66.4404L71.0309 53.7003C69.8064 52.7981 68.4467 52.09 67.001 51.6015C63.5187 50.3842 60.0311 48.4532 61.9823 47.1572C63.6729 46.0133 67.5805 48.3168 70.2441 51.528L68.7501 47.3986C67.8925 45.7737 66.8198 44.2686 65.5602 42.9228C62.0142 39.297 59.3294 35.2252 62.0673 34.6323C64.8053 34.0394 69.2871 41.1387 69.9942 47.556L70.7597 49.6811C70.1643 45.0164 71.8656 39.3652 74.2314 39.1868C76.5972 39.0084 75.1086 42.6447 73.2 45.7667C72.1655 47.3538 71.4942 49.1444 71.2329 51.0138L74.8587 61.0516C73.939 53.6636 76.6291 44.7488 80.3772 44.4339C84.1253 44.1191 81.7701 49.9224 78.7344 54.8705C76.4377 58.6117 75.7944 61.5868 75.619 63.1452L79.9679 75.1768C79.197 67.8781 81.8446 59.0157 85.5395 58.9842C88.3838 58.9842 87.5119 62.93 84.1147 68.5287C82.4071 71.2724 81.2838 74.3307 80.8132 77.517L82.86 83.1839C82.5532 83.4137 82.1817 83.5439 81.7967 83.5565L80.978 81.3002C79.8296 80.2036 77.4266 78.3303 73.301 76.8874C67.7985 74.9617 62.2587 71.9289 65.3529 69.8353Z" fill="#008EFF"/>
<path d="M38.1759 153.92C34.986 155.888 36.7192 164.939 40.9245 171.089L33.1305 163.895C32.3544 161.298 32.0803 158.58 32.3224 155.883C32.7212 150.111 32.1098 143.893 28.9305 145.866C25.9586 147.713 27.2878 155.804 30.9402 161.875L20.9239 152.619C20.5711 151.154 20.4544 149.644 20.5784 148.143C20.8283 144.502 20.4455 140.582 18.4518 141.847C16.708 142.922 17.2981 147.372 19.2227 151.045L15.9531 148.07C14.783 146.648 13.8087 145.079 13.0556 143.405C11.0991 138.751 8.3771 134.705 6.73963 136.946C5.10216 139.186 9.92951 146.071 15.6022 149.261L17.2715 150.804C13.1725 148.406 7.24469 147.703 6.10697 149.754C4.96925 151.806 8.97786 151.926 12.6356 151.433C14.5175 151.131 16.4433 151.233 18.2817 151.732L26.2032 159.021C19.7012 155.248 10.3442 154.141 8.55786 157.41C6.77153 160.679 13.1088 160.857 18.9196 160.07C23.3057 159.482 26.3308 160.07 27.846 160.537L37.3093 169.263C30.8232 165.663 21.53 164.541 20.0361 167.867C18.8877 170.438 22.9176 171.225 29.4781 170.37C32.7176 169.927 36.0145 170.136 39.1701 170.984L43.6252 175.098C43.9566 174.91 44.2233 174.629 44.3908 174.29L42.6151 172.653C42.0516 171.173 41.2701 168.255 41.5518 163.948C41.9665 158.171 41.3498 151.947 38.1759 153.92Z" fill="#008EFF"/>
<path d="M198.084 72.8103H28.9727V188.105H198.084V72.8103Z" fill="#407BFF"/>
<path d="M198.084 72.8156V80.2035L113.531 154.167L28.9727 80.2035V72.8156L113.526 147.031L198.084 72.8156Z" fill="#155DFF"/>
<path d="M97.2414 132.475L33.8744 188.1H28.9727V185.162L93.5943 128.435L97.2414 132.475Z" fill="#155DFF"/>
<path d="M198.089 185.555V188.1H192.746L129.379 132.475L133.021 128.435L198.089 185.555Z" fill="#155DFF"/>
<path d="M28.9688 72.8052L113.527 147.031L198.085 72.8052H28.9688Z" fill="#76A1FF"/>
<path d="M151.432 62.4263L153.591 66.9808L149.029 67.049L147.27 62.9038L151.432 62.4263Z" fill="#F9AF8B"/>
<path d="M152.15 66.6922C152.15 66.6922 153.091 65.4539 153.835 65.5064C154.579 65.5589 160.316 70.0609 162.283 70.4334C164.25 70.806 164.069 72.7841 163.245 72.7841H147.796C147.796 72.7841 147.402 68.1667 147.902 66.7919C148.402 65.4172 150.613 67.0228 152.15 66.6922Z" fill="#008EFF"/>
<path d="M155.323 69.8353C155.29 69.8494 155.254 69.8567 155.217 69.8567C155.181 69.8567 155.144 69.8494 155.111 69.8353C155.079 69.8178 155.051 69.7943 155.028 69.766C155.006 69.7378 154.989 69.7054 154.979 69.6708C154.969 69.6362 154.966 69.6 154.971 69.5643C154.975 69.5286 154.987 69.4941 155.004 69.4627C155.354 68.8632 155.847 68.357 156.44 67.9883C156.743 67.8283 157.084 67.7522 157.428 67.7679C157.771 67.7836 158.104 67.8906 158.391 68.0775C158.443 68.123 158.475 68.1858 158.482 68.2537C158.489 68.3216 158.47 68.3896 158.428 68.4442C158.387 68.4989 158.326 68.5363 158.258 68.549C158.19 68.5617 158.12 68.5489 158.061 68.513C157.857 68.3865 157.622 68.3163 157.381 68.3099C157.139 68.3034 156.901 68.3609 156.69 68.4763C156.191 68.795 155.778 69.2268 155.483 69.7356C155.465 69.7622 155.441 69.7848 155.414 69.802C155.386 69.8192 155.356 69.8305 155.323 69.8353Z" fill="white"/>
<path d="M154.505 69.0744C154.432 69.0919 154.354 69.0826 154.287 69.0482C154.254 69.0308 154.225 69.0068 154.201 68.9777C154.178 68.9487 154.16 68.9152 154.15 68.8793C154.14 68.8435 154.138 68.806 154.143 68.7691C154.149 68.7323 154.161 68.6969 154.181 68.6652C154.531 68.0656 155.023 67.5594 155.617 67.1907C155.919 67.0301 156.259 66.9536 156.602 66.9693C156.945 66.985 157.277 67.0924 157.562 67.2799C157.592 67.3012 157.617 67.328 157.636 67.3588C157.654 67.3896 157.667 67.4238 157.672 67.4594C157.678 67.495 157.676 67.5314 157.667 67.5663C157.658 67.6012 157.643 67.6341 157.621 67.663C157.6 67.692 157.573 67.7166 157.542 67.7351C157.511 67.7536 157.477 67.7657 157.441 67.7706C157.405 67.7755 157.369 67.7732 157.334 67.7637C157.299 67.7542 157.266 67.7378 157.238 67.7154C157.032 67.5895 156.797 67.5197 156.555 67.5133C156.313 67.5068 156.073 67.5639 155.861 67.6787C155.365 67.9981 154.953 68.4298 154.66 68.938C154.627 69.0008 154.572 69.0495 154.505 69.0744Z" fill="white"/>
<path d="M156.442 70.4597C156.407 70.4749 156.37 70.4828 156.333 70.4828C156.295 70.4828 156.258 70.4749 156.224 70.4597C156.192 70.4423 156.165 70.4189 156.143 70.3909C156.121 70.363 156.105 70.331 156.095 70.2968C156.086 70.2627 156.084 70.227 156.088 70.1919C156.093 70.1568 156.105 70.123 156.123 70.0924C156.466 69.4882 156.957 68.9793 157.553 68.6127C157.852 68.4472 158.19 68.3648 158.533 68.374C158.876 68.3832 159.209 68.4838 159.499 68.6652C159.528 68.686 159.553 68.7123 159.571 68.7427C159.59 68.773 159.603 68.8068 159.608 68.8419C159.614 68.8771 159.612 68.913 159.603 68.9475C159.594 68.9821 159.579 69.0145 159.557 69.043C159.535 69.072 159.508 69.0966 159.477 69.1152C159.446 69.1339 159.411 69.1462 159.375 69.1516C159.339 69.157 159.302 69.1552 159.267 69.1465C159.231 69.1377 159.198 69.1222 159.169 69.1007C158.965 68.9739 158.73 68.9031 158.489 68.8957C158.248 68.8884 158.009 68.9446 157.797 69.0587C157.301 69.3781 156.889 69.8098 156.596 70.318C156.564 70.3828 156.509 70.4334 156.442 70.4597Z" fill="white"/>
<path d="M152.73 63.906L150.71 64.5566L149.588 64.6249L147.658 64.735C145.106 62.7464 138.222 56.7542 136.882 53.2176C136.882 53.2176 128.025 73.5397 115.781 73.5397C114.989 73.5397 117.089 63.4285 119.082 61.3244C119.082 61.3244 130.369 40.5668 137.69 42.7706C140.96 43.757 144.277 48.4637 152.73 63.906Z" fill="black"/>
<path d="M150.709 64.5567L149.587 64.6249C142.075 59.0105 138.598 54.2618 136.992 51.2132C136.975 51.1743 136.947 51.1409 136.911 51.1169C136.875 51.0928 136.834 51.0789 136.79 51.0768C136.764 51.0779 136.738 51.087 136.717 51.103C136.696 51.119 136.681 51.141 136.673 51.166C133.079 59.5194 128.762 64.5357 125.775 67.2747C122.521 70.2393 120.155 71.2363 120.038 71.2887L119.9 70.9582L119.762 70.6276C119.788 70.6276 122.149 69.6359 125.317 66.729C128.241 64.0372 132.473 59.1101 136.009 50.8984C136.067 50.7465 136.17 50.6154 136.305 50.5219C136.439 50.4284 136.599 50.3768 136.764 50.3737C136.945 50.3693 137.125 50.4164 137.28 50.5094C137.436 50.6024 137.561 50.7374 137.641 50.8984C139.252 53.9732 142.83 58.8058 150.709 64.5567Z" fill="#001030"/>
<path d="M145.633 63.376C145.983 64.0664 146.457 64.6886 147.031 65.2125C147.031 65.2125 151.359 65.0184 153.459 63.9742L152.518 61.8019C150.288 62.5742 147.979 63.1021 145.633 63.376Z" fill="#524E84"/>
<path d="M151.289 34.244C145.143 36.7154 140.225 37.959 136.041 38.4417C135.988 38.4417 135.004 38.5204 134.622 38.5047C133.17 38.4495 131.744 38.1088 130.427 37.5025C129.326 36.9777 127.769 35.687 126.105 34.1233C124.069 32.1819 121.921 29.8522 120.437 28.1941C119.278 26.898 118.523 26.0113 118.523 26.0113C119.55 24.5053 121.82 23.1306 123.797 22.4012C123.797 22.4012 127.923 29.1805 134.17 32.5072C134.51 32.6908 134.861 32.8588 135.233 33.0319C136.658 32.8063 140.507 32.6331 142.176 32.5072C144.929 32.3098 147.667 31.9436 150.374 31.4106L151.289 34.244Z" fill="#0077EB"/>
<path d="M150.219 31.2059C150.219 31.2059 151.075 29.0756 152.239 28.4669C153.403 27.8583 156.721 25.7122 157.428 26.3681C158.135 27.024 157.986 30.0935 155.014 32.6646C153.977 33.6193 152.63 34.1775 151.213 34.2388L150.219 31.2059Z" fill="#F9AF8B"/>
<path d="M157.641 28.3148L152.744 32.8273C152.642 32.9108 152.519 32.9652 152.388 32.9846C152.256 33.004 152.122 32.9877 152 32.9375L149.001 31.505C148.92 31.468 148.856 31.4025 148.821 31.3214L148.672 30.8281L149.469 30.5291L157.168 27.6431L157.588 27.4857L157.742 28.0104V28.0472C157.748 28.0965 157.742 28.1466 157.724 28.1931C157.707 28.2397 157.678 28.2814 157.641 28.3148Z" fill="#001030"/>
<path d="M157.163 27.6221L149.465 30.5081L153.819 26.4888C153.921 26.4053 154.044 26.3509 154.176 26.3314C154.307 26.312 154.441 26.3283 154.563 26.3786L157.163 27.6221Z" fill="#1F2232"/>
<path d="M151.852 32.46L148.864 31.0013C148.807 30.9892 148.755 30.9603 148.715 30.9183C148.675 30.8763 148.649 30.8232 148.64 30.7662C148.631 30.7091 148.64 30.6509 148.666 30.5991C148.692 30.5474 148.733 30.5046 148.784 30.4766L153.681 25.964C153.781 25.8783 153.903 25.8223 154.034 25.8028C154.165 25.7833 154.299 25.801 154.42 25.8538L157.423 27.2811C157.478 27.296 157.528 27.3265 157.566 27.3689C157.603 27.4112 157.627 27.4635 157.635 27.5193C157.643 27.5751 157.634 27.6319 157.61 27.6828C157.586 27.7337 157.547 27.7765 157.498 27.8058L152.607 32.3183C152.507 32.4101 152.384 32.4722 152.25 32.4973C152.116 32.5223 151.978 32.5094 151.852 32.46Z" fill="#2E3052"/>
<g style="mix-blend-mode:screen">
<path d="M152.219 31.6257L149.891 30.5185C149.836 30.5036 149.786 30.4731 149.748 30.4307C149.711 30.3884 149.687 30.3361 149.679 30.2803C149.671 30.2245 149.679 30.1677 149.704 30.1168C149.728 30.0659 149.767 30.0231 149.816 29.9938L153.623 26.4835C153.723 26.3988 153.846 26.3437 153.976 26.3242C154.107 26.3047 154.24 26.3217 154.362 26.3733L156.69 27.4857C156.747 27.4985 156.799 27.528 156.838 27.5703C156.877 27.6126 156.903 27.6658 156.911 27.7227C156.919 27.7797 156.909 27.8377 156.883 27.8891C156.857 27.9404 156.816 27.9828 156.765 28.0104L152.958 31.5207C152.857 31.6045 152.734 31.6588 152.604 31.6773C152.473 31.6959 152.34 31.678 152.219 31.6257Z" fill="#2E3052"/>
</g>
<path d="M152.154 27.386C152.154 27.386 152.85 27.491 152.925 28.0839C152.999 28.6768 152.345 28.4407 151.931 28.3095C151.792 28.2586 151.645 28.2383 151.498 28.2501C151.35 28.2619 151.208 28.3055 151.08 28.3777C150.894 28.5876 150.926 27.2129 152.154 27.386Z" fill="#F9AF8B"/>
<path d="M155.27 30.5973C155.857 29.6442 156.503 28.7278 157.205 27.853C157.763 27.2076 158.045 28.1416 157.667 28.7975C157.29 29.4534 156.53 30.7809 155.27 30.5973Z" fill="#F9AF8B"/>
<path d="M104.306 62.5837L101.882 47.1519L101.738 46.2389V45.5463L102.27 23.6973L108.458 21.6562L108.788 21.546L110.165 21.0842L111.26 20.7222L117.746 21.6037L118.809 21.7454L119.182 21.7978L123.818 22.4275C123.86 36.9148 122.451 40.0421 125.168 51.8114C126.502 56.2714 121.494 72.0128 104.306 62.5837Z" fill="#008EFF"/>
<path d="M107.757 58.6379C112.611 57.2999 116.157 53.9942 118.273 51.4546C119.625 49.8405 120.788 48.0802 121.739 46.2074C121.764 46.1488 121.766 46.0828 121.743 46.0231C121.72 45.9634 121.675 45.9148 121.617 45.8874C121.588 45.8743 121.556 45.8671 121.525 45.8661C121.493 45.8651 121.461 45.8704 121.431 45.8816C121.402 45.8929 121.375 45.9098 121.352 45.9315C121.329 45.9532 121.31 45.9793 121.298 46.0081C120.365 47.8469 119.221 49.574 117.89 51.1555C115.816 53.6374 112.355 56.8696 107.624 58.1709C107.562 58.1892 107.509 58.2307 107.477 58.2865C107.446 58.3423 107.437 58.4081 107.454 58.47C107.461 58.5011 107.476 58.5303 107.496 58.5558C107.515 58.5813 107.54 58.6026 107.568 58.6183C107.597 58.634 107.628 58.6439 107.66 58.6472C107.693 58.6506 107.726 58.6474 107.757 58.6379Z" fill="#0077EB"/>
<path d="M113.283 58.895C117.504 57.7564 121.05 54.2408 121.209 54.0781C121.232 54.0562 121.25 54.03 121.262 54.0012C121.274 53.9724 121.28 53.9415 121.28 53.9102C121.28 53.879 121.274 53.8481 121.262 53.8192C121.25 53.7904 121.232 53.7643 121.209 53.7423C121.164 53.6971 121.101 53.6718 121.037 53.6718C120.972 53.6718 120.91 53.6971 120.864 53.7423C120.827 53.7843 116.648 57.94 112.134 58.6589C112.071 58.6692 112.015 58.7036 111.977 58.7546C111.939 58.8056 111.923 58.8692 111.932 58.9317C111.944 58.9945 111.98 59.0503 112.032 59.0875C112.085 59.1247 112.15 59.1403 112.214 59.1311C112.575 59.0736 112.932 58.9947 113.283 58.895Z" fill="#0077EB"/>
<path d="M110.294 28.0839C114.51 26.9295 118.051 23.4087 118.21 23.246C118.233 23.2241 118.25 23.1979 118.263 23.1691C118.275 23.1403 118.281 23.1094 118.281 23.0781C118.281 23.0469 118.275 23.016 118.263 22.9871C118.25 22.9583 118.233 22.9322 118.21 22.9102C118.164 22.865 118.102 22.8397 118.037 22.8397C117.973 22.8397 117.91 22.865 117.865 22.9102C117.822 22.9522 113.659 27.1079 109.146 27.8478C109.082 27.8593 109.026 27.8949 108.989 27.947C108.953 27.999 108.938 28.0633 108.949 28.1259C108.954 28.1566 108.965 28.186 108.982 28.2123C108.999 28.2387 109.02 28.2616 109.046 28.2797C109.072 28.2977 109.101 28.3106 109.132 28.3175C109.162 28.3244 109.194 28.3253 109.225 28.32C109.586 28.2625 109.943 28.1836 110.294 28.0839Z" fill="#0077EB"/>
<path d="M147.295 102.509L148.996 106.24L145.514 107.719L143.488 103.863L147.295 102.509Z" fill="#F9AF8B"/>
<path d="M148.239 106.161C148.239 106.161 148.595 104.65 149.302 104.409C150.009 104.167 157.091 106.03 159.047 105.594C161.003 105.159 161.227 106.644 161.174 107.436C161.12 108.228 146.676 113.365 146.676 113.365C146.676 113.365 144.469 109.404 144.374 107.94C144.278 106.476 146.957 107.064 148.239 106.161Z" fill="#008EFF"/>
<path d="M152.418 107.793C152.359 107.838 152.285 107.861 152.21 107.856C152.138 107.847 152.073 107.81 152.027 107.755C151.982 107.699 151.96 107.628 151.966 107.557C152.042 106.868 152.289 106.209 152.684 105.636C152.897 105.37 153.179 105.166 153.5 105.045C153.821 104.924 154.169 104.891 154.507 104.949C154.578 104.965 154.64 105.008 154.679 105.069C154.717 105.13 154.73 105.204 154.714 105.274C154.707 105.309 154.692 105.343 154.672 105.372C154.651 105.401 154.624 105.426 154.594 105.445C154.563 105.465 154.528 105.477 154.493 105.483C154.457 105.489 154.42 105.487 154.385 105.479C154.144 105.445 153.898 105.476 153.674 105.569C153.45 105.661 153.254 105.811 153.109 106.004C152.784 106.494 152.58 107.053 152.513 107.635C152.501 107.697 152.467 107.753 152.418 107.793Z" fill="white"/>
<path d="M151.351 107.415C151.308 107.448 151.256 107.467 151.202 107.471C151.148 107.475 151.094 107.464 151.046 107.439C150.998 107.413 150.959 107.375 150.933 107.328C150.907 107.281 150.895 107.227 150.899 107.174C150.977 106.487 151.223 105.83 151.617 105.259C151.829 104.991 152.111 104.786 152.432 104.665C152.753 104.544 153.102 104.511 153.44 104.571C153.501 104.596 153.551 104.641 153.581 104.698C153.611 104.756 153.62 104.822 153.605 104.885C153.59 104.948 153.553 105.004 153.501 105.042C153.448 105.081 153.384 105.1 153.318 105.096C153.077 105.062 152.832 105.093 152.607 105.186C152.383 105.278 152.188 105.428 152.042 105.621C151.718 106.11 151.514 106.667 151.447 107.247C151.437 107.313 151.403 107.372 151.351 107.415Z" fill="white"/>
<path d="M153.688 107.924C153.629 107.97 153.555 107.992 153.48 107.987C153.407 107.978 153.341 107.941 153.295 107.884C153.25 107.827 153.228 107.755 153.236 107.683C153.316 106.996 153.565 106.339 153.959 105.768C154.17 105.501 154.451 105.296 154.771 105.175C155.092 105.054 155.439 105.021 155.777 105.08C155.847 105.098 155.908 105.141 155.945 105.202C155.983 105.263 155.995 105.336 155.979 105.406C155.972 105.441 155.957 105.474 155.936 105.503C155.916 105.533 155.889 105.558 155.858 105.577C155.827 105.596 155.793 105.609 155.757 105.614C155.721 105.62 155.685 105.619 155.65 105.61C155.409 105.577 155.163 105.608 154.939 105.7C154.714 105.792 154.519 105.943 154.374 106.135C154.046 106.624 153.844 107.184 153.783 107.767C153.769 107.828 153.735 107.883 153.688 107.924Z" fill="white"/>
<path d="M148.174 103.233C147.369 103.897 146.46 104.428 145.484 104.807C145.266 104.907 145.038 105.001 144.814 105.091C144.421 105.253 144.033 105.4 143.661 105.521C143.661 105.521 135.404 90.4932 132.23 79.6001C132.23 79.6001 104.271 76.1895 103.303 66.5243C103.269 66.1946 103.269 65.8623 103.303 65.5326C103.415 64.4963 103.76 63.4978 104.313 62.61C104.951 61.5238 114.521 62.5785 119.689 64.0109C119.689 64.0109 133.708 69.3997 138.892 74.9564C141.507 77.7427 148.174 103.233 148.174 103.233Z" fill="black"/>
<path d="M145.484 104.786C145.266 104.886 145.038 104.98 144.814 105.07C140.641 98.2484 134.835 82.3024 133.543 78.4772C133.503 78.3455 133.428 78.2271 133.325 78.1346C133.222 78.0422 133.095 77.9792 132.959 77.9525C119.375 75.4339 111.544 71.9131 107.37 69.4102C105.926 68.5601 104.565 67.58 103.303 66.4823C103.269 66.1526 103.269 65.8203 103.303 65.4906C104.68 66.7748 106.2 67.9014 107.833 68.8488C111.959 71.3044 119.683 74.7623 133.097 77.2442C133.359 77.2923 133.603 77.4086 133.804 77.5812C134.005 77.7537 134.155 77.9761 134.24 78.2254C135.526 82.082 141.353 98.0962 145.484 104.786Z" fill="#001030"/>
<path d="M142.172 103.926L143.49 106.025C143.49 106.025 146.776 105.463 148.998 103.249L148.174 101.386C146.223 102.342 144.219 103.19 142.172 103.926Z" fill="#524E84"/>
<path d="M97.6666 68.2926C97.6666 68.2926 99.5699 70.8374 99.4104 72.1544C99.2509 73.4715 97.5337 75.9586 96.1568 76.074C94.7798 76.1895 97.7517 72.8838 97.0393 72.994C96.194 73.1199 90.4894 77.7426 89.2826 77.7426C88.0757 77.7426 90.7021 75.5966 91.7228 75.0509C91.7228 75.0509 89.0221 76.242 88.3947 76.8664C87.7674 77.4908 87.3314 76.1527 90.4469 74.269C90.4469 74.269 87.5654 75.8799 87.3687 75.9061C86.7307 75.9901 88.5595 73.8755 90.1332 73.1094C90.1332 73.1094 87.8259 74.2218 87.5866 74.2271C87.2623 74.2271 87.9588 73.4872 89.676 72.548C91.2178 71.7032 93.7431 67.8256 93.7431 67.8256L97.6666 68.2926Z" fill="#F9AF8B"/>
<path d="M102.296 23.7078C102.296 23.7078 95.9166 35.8496 94.4333 48.5476L93.7422 67.8308C93.7422 67.8308 94.4014 69.2056 97.6657 68.2926L100.824 49.0094L103.243 40.189C103.243 40.189 104.343 29.3117 102.296 23.7078Z" fill="#0077EB"/>
<path d="M121.778 11.3384C122.886 7.63974 120.747 3.75437 117 2.66018C113.252 1.56599 109.315 3.67733 108.207 7.37599C107.098 11.0746 109.237 14.96 112.985 16.0542C116.732 17.1484 120.669 15.0371 121.778 11.3384Z" fill="#2E3052"/>
<path d="M122.075 9.32538C122.075 9.32538 124.143 9.13123 124.201 7.19504C124.265 5.54744 122.165 6.25581 122.558 5.02798C122.952 3.80015 123.531 2.72449 121.942 2.12108C120.549 1.59636 120.347 2.56708 118.709 0.819787C116.769 -1.24233 114.36 2.33096 112.329 2.10009C109.352 1.75378 108.688 3.33316 108.161 4.59772C108.023 4.99987 107.991 5.43014 108.068 5.84789C108.146 6.26563 108.329 6.65705 108.603 6.98516L122.075 9.32538Z" fill="#2E3052"/>
<path d="M120.454 12.3005C120.454 12.3005 121.815 11.0412 122.421 12.3845C123.027 13.7277 121.23 17.0754 119.375 15.8581L120.454 12.3005Z" fill="#FC8664"/>
<path d="M120.011 14.8349C120.047 14.8423 120.086 14.8375 120.119 14.8214C120.153 14.8053 120.18 14.7787 120.197 14.7457C120.379 14.4206 120.629 14.1373 120.931 13.9148C121.232 13.6923 121.578 13.5355 121.946 13.4549C121.991 13.446 122.03 13.4202 122.056 13.3829C122.082 13.3457 122.092 13.3 122.084 13.2555C122.074 13.2122 122.047 13.1745 122.01 13.1501C121.972 13.1257 121.926 13.1164 121.882 13.1243C121.461 13.2115 121.064 13.388 120.719 13.6417C120.374 13.8954 120.088 14.2202 119.883 14.5935C119.864 14.6348 119.862 14.6816 119.877 14.7245C119.892 14.7674 119.922 14.8031 119.963 14.8244L120.011 14.8349Z" fill="#FD664D"/>
<path d="M121.271 14.4886C121.302 14.4964 121.335 14.4964 121.367 14.4886C121.409 14.4702 121.442 14.4362 121.459 14.394C121.476 14.3518 121.475 14.3048 121.457 14.263C121.339 14.0151 121.155 13.8031 120.925 13.6491C120.907 13.6354 120.886 13.6255 120.864 13.6202C120.842 13.6149 120.819 13.6142 120.796 13.6181C120.774 13.6221 120.753 13.6306 120.734 13.6431C120.715 13.6557 120.698 13.672 120.686 13.691C120.673 13.7095 120.664 13.7304 120.66 13.7524C120.655 13.7744 120.655 13.7971 120.66 13.8191C120.664 13.8411 120.673 13.862 120.686 13.8806C120.698 13.8991 120.715 13.915 120.734 13.9272C120.912 14.0449 121.057 14.2056 121.154 14.3942C121.165 14.4173 121.182 14.4377 121.202 14.454C121.222 14.4703 121.246 14.4821 121.271 14.4886Z" fill="#FD664D"/>
<path d="M111.258 17.5424L110.625 21.0737C110.625 21.0737 111.816 22.884 113.235 23.2565C114.655 23.6291 115.835 22.0969 115.835 22.0969L116.441 18.702L111.258 17.5424Z" fill="#F9AF8B"/>
<path d="M111.254 17.5424L110.973 19.1166C111.749 20.3444 113.424 20.9058 116.029 20.9793L116.438 18.7073L111.254 17.5424Z" fill="#FC8664"/>
<path d="M109.108 7.82474C108.9 9.32924 108.789 10.8451 108.773 12.3635C108.773 12.7151 108.773 13.0509 108.827 13.3552C109.114 16.0837 110.198 20.8691 115.802 19.9351C118.274 19.5206 119.81 17.1489 120.757 14.6303C121.316 13.0843 121.724 11.4889 121.974 9.86587C122.076 9.22396 122.006 8.56706 121.772 7.95983C121.538 7.3526 121.148 6.81597 120.64 6.40276C117.843 4.12026 114.446 4.19373 112.133 4.63973C111.354 4.78907 110.642 5.17727 110.099 5.7491C109.556 6.32094 109.209 7.04727 109.108 7.82474Z" fill="#F9AF8B"/>
<path d="M117.72 12.3006C117.651 12.6731 117.795 13.0142 118.039 13.0561C118.284 13.0981 118.534 12.8305 118.571 12.4527C118.608 12.0749 118.497 11.7339 118.257 11.6919C118.018 11.6499 117.79 11.9228 117.72 12.3006Z" fill="#2E3052"/>
<path d="M112.574 11.398C112.51 11.7758 112.649 12.1169 112.893 12.1589C113.138 12.2008 113.388 11.928 113.457 11.5554C113.526 11.1829 113.382 10.8366 113.138 10.7946C112.893 10.7526 112.643 11.0255 112.574 11.398Z" fill="#2E3052"/>
<path d="M119.963 10.5323C119.963 10.5323 118.262 9.48284 116.773 9.85014V10.5165C117.816 10.5062 118.843 10.761 119.756 11.2564C119.873 10.9783 120.027 10.8576 119.963 10.5323Z" fill="#2E3052"/>
<path d="M111.596 9.06829C111.596 9.06829 113.552 8.67476 114.855 9.51955L114.621 10.144C113.646 9.78351 112.593 9.67689 111.564 9.83437C111.521 9.51954 111.42 9.37263 111.596 9.06829Z" fill="#2E3052"/>
<path d="M114.808 14.5568C114.597 14.5116 114.396 14.4318 114.212 14.3207C114.174 14.296 114.147 14.2574 114.137 14.2133C114.127 14.1692 114.135 14.123 114.159 14.0846C114.184 14.0467 114.223 14.0201 114.268 14.0103C114.313 14.0005 114.359 14.0083 114.398 14.0321C114.542 14.1213 114.893 14.284 115.068 14.2157C115.098 14.204 115.124 14.1847 115.143 14.1598C115.163 14.1349 115.176 14.1053 115.18 14.0741C115.343 13.2184 115.462 12.355 115.536 11.4872C115.546 11.4469 115.57 11.4115 115.605 11.3874C115.639 11.3634 115.681 11.3522 115.723 11.356C115.764 11.3598 115.804 11.3784 115.833 11.4082C115.862 11.4381 115.879 11.4773 115.882 11.5187C115.803 12.3989 115.679 13.2746 115.509 14.1423C115.49 14.2243 115.451 14.3004 115.395 14.3644C115.34 14.4283 115.27 14.4781 115.191 14.5096C115.069 14.5569 114.937 14.5731 114.808 14.5568Z" fill="#FC8664"/>
<path d="M116.758 15.9525C116.498 16.6189 115.806 17.81 114.254 17.5267C112.702 17.2433 112.468 16.0208 112.457 15.197L116.758 15.9525Z" fill="white"/>
<path d="M114.116 18.4135C113.828 18.354 113.557 18.2261 113.33 18.0409C113.303 18.0092 113.289 17.9691 113.289 17.9279C113.29 17.8867 113.305 17.847 113.333 17.816C113.36 17.785 113.398 17.7647 113.439 17.7588C113.481 17.7529 113.523 17.7618 113.558 17.7838C113.738 17.9307 113.952 18.0316 114.18 18.0776C114.399 18.1057 114.621 18.0823 114.829 18.0094C114.85 18.0002 114.872 17.9953 114.895 17.995C114.918 17.9948 114.941 17.9993 114.962 18.0082C114.983 18.0171 115.001 18.0302 115.017 18.0466C115.033 18.0631 115.045 18.0826 115.052 18.1039C115.061 18.1245 115.065 18.1467 115.065 18.169C115.065 18.1913 115.06 18.2134 115.051 18.2339C115.042 18.2544 115.029 18.273 115.013 18.2885C114.997 18.304 114.978 18.3162 114.956 18.3243C114.688 18.4213 114.4 18.4519 114.116 18.4135Z" fill="#FC8664"/>
<path d="M120.425 13.4497C120.7 12.8069 120.879 12.1282 120.957 11.4348C120.957 10.5952 120.346 10.0023 120.707 9.26246C121.069 8.52261 120.393 7.53615 119.798 7.28954C119.203 7.04292 117.719 7.09015 116.422 6.1824C115.125 5.27464 112.754 5.35335 112.217 6.14567C111.568 7.10064 112.18 7.30528 110.718 8.20779C110.133 8.56459 110.526 9.82915 110.473 10.6005C110.458 10.901 110.415 11.1996 110.345 11.4925L110.308 11.6814L108.793 11.419C108.836 10.2174 108.974 8.9109 109.112 7.82475C109.213 7.04656 109.56 6.31969 110.104 5.74777C110.649 5.17586 111.362 4.78809 112.142 4.63975C114.45 4.19374 117.847 4.11503 120.649 6.40277C121.157 6.81555 121.547 7.3523 121.78 7.95979C122.013 8.56727 122.081 9.22437 121.978 9.86588C121.784 11.1191 121.499 12.357 121.127 13.5703L120.425 13.4497Z" fill="#2E3052"/>
<path d="M109.341 12.1799C109.417 11.7908 109.456 11.3955 109.458 10.9993C109.498 10.7426 109.465 10.48 109.364 10.2404C109.263 10.0007 109.097 9.7931 108.884 9.64027C108.698 9.48751 108.459 9.41154 108.217 9.42815C107.976 9.44477 107.75 9.55269 107.587 9.72947C106.523 10.7789 106.8 14.6828 108.964 14.1685L109.341 12.1799Z" fill="#F9AF8B"/>
<path d="M108.766 13.0142C108.731 13.0004 108.701 12.9754 108.682 12.9431C108.663 12.9107 108.655 12.873 108.66 12.8358C108.674 12.4652 108.608 12.0959 108.467 11.7522C108.326 11.4085 108.113 11.0982 107.841 10.8419C107.82 10.8281 107.802 10.81 107.788 10.7887C107.775 10.7674 107.766 10.7434 107.763 10.7185C107.76 10.6936 107.762 10.6682 107.77 10.6443C107.778 10.6204 107.791 10.5984 107.808 10.5798C107.825 10.5613 107.846 10.5467 107.87 10.537C107.893 10.5274 107.918 10.5228 107.944 10.5238C107.969 10.5248 107.994 10.5312 108.017 10.5426C108.04 10.5541 108.06 10.5702 108.075 10.59C108.386 10.8823 108.629 11.2378 108.787 11.6319C108.945 12.026 109.014 12.4494 108.99 12.8725C108.988 12.8948 108.982 12.9167 108.972 12.9367C108.962 12.9567 108.948 12.9744 108.93 12.9887C108.913 13.0029 108.893 13.0135 108.871 13.0197C108.849 13.0259 108.826 13.0276 108.804 13.0247L108.766 13.0142Z" fill="#FC8664"/>
<path d="M107.881 12.0697C107.849 12.0584 107.822 12.0384 107.801 12.012C107.775 11.9746 107.765 11.9289 107.772 11.884C107.779 11.8392 107.802 11.7986 107.839 11.7706C108.076 11.6208 108.349 11.5357 108.631 11.524C108.671 11.531 108.708 11.552 108.735 11.5832C108.761 11.6144 108.776 11.6538 108.776 11.6945C108.776 11.7352 108.761 11.7746 108.735 11.8058C108.708 11.837 108.671 11.858 108.631 11.8651C108.414 11.8714 108.203 11.9348 108.019 12.0487C107.999 12.0617 107.976 12.0702 107.953 12.0739C107.929 12.0775 107.904 12.0761 107.881 12.0697Z" fill="#FC8664"/>
<path d="M189.227 92.8334C187.744 95.5714 186.048 98.1922 184.155 100.673C183.409 101.64 182.577 102.539 181.667 103.359C180.322 104.535 179.009 105.154 177.946 104.629C173.974 102.693 165.117 87.282 165.117 87.282L167.297 84.7791C167.297 84.7791 171.236 89.1814 174.123 91.8155C176.782 94.2449 178.823 96.0604 178.823 96.0604C179.19 95.5357 179.583 94.927 179.993 94.2974C180.402 93.6677 180.875 92.9226 181.332 92.1985C184.65 86.9514 188.648 81.1796 188.648 81.1796L189.227 92.8334Z" fill="#F9AF8B"/>
<path d="M167.867 86.2692C167.867 86.2692 168.765 84.8105 168.398 83.5092C168.032 82.2079 167.713 79.2538 166.272 79.3115C165.74 79.343 166.516 80.5761 166.16 81.7147C165.263 81.2849 164.401 80.7867 163.582 80.2245C162.667 79.5634 160.785 78.4825 159.908 77.9892C159.857 77.9593 159.798 77.9466 159.739 77.9533C159.68 77.9599 159.625 77.9854 159.582 78.0259C159.539 78.0664 159.511 78.1196 159.501 78.1774C159.492 78.2353 159.502 78.2945 159.531 78.346C159.754 78.7238 160.301 79.2853 161.572 80.0671C161.572 80.0671 158.414 78.325 157.888 78.7081C157.361 79.0911 161.349 81.2005 161.349 81.2005C161.349 81.2005 158.127 79.9202 157.861 80.3872C157.702 80.6758 160.86 82.486 160.86 82.486C160.86 82.486 157.723 81.531 158.308 82.2551C158.478 82.465 164.438 85.1306 165.682 88.2211C165.698 88.2631 167.431 87.3239 167.867 86.2692Z" fill="#F9AF8B"/>
<path d="M184.154 100.673C183.408 101.64 182.575 102.539 181.666 103.359L179.98 94.2973C180.411 93.631 180.863 92.9226 181.32 92.1985L184.154 100.673Z" fill="#FC8664"/>
<path d="M188.738 80.7335L180.344 92.6865L183.002 103.333L189.589 92.9593C189.589 92.9593 190.865 86.0226 188.738 80.7335Z" fill="#FF6C37"/>
<path d="M193.066 182.989V186.762L196.634 186.704L196.868 182.706L193.066 182.989Z" fill="#F9AF8B"/>
<path d="M202.125 127.863C202.098 128.314 201.976 130.487 201.79 133.467C201.285 141.716 200.344 156.371 199.796 159.661C199.227 163.04 199.482 174.117 199.669 179.915C199.682 180.383 199.599 180.85 199.426 181.286C199.252 181.722 198.991 182.12 198.658 182.454C198.411 182.697 198.132 182.907 197.829 183.079C197.28 183.377 196.664 183.534 196.037 183.535H193.315C192.834 183.541 192.356 183.451 191.91 183.271C191.465 183.09 191.06 182.823 190.722 182.485C190.383 182.147 190.116 181.746 189.938 181.304C189.76 180.862 189.674 180.39 189.684 179.915C189.838 175.014 190.025 166.068 189.684 159.162C189.344 152.588 189.838 140.955 190.216 133.703C190.37 130.807 190.503 128.614 190.556 127.716L202.125 127.863Z" fill="black"/>
<path d="M190.547 127.716L202.127 127.863C202.1 128.314 201.978 130.487 201.792 133.467C197.952 133.988 194.065 134.067 190.207 133.703C190.361 130.807 190.494 128.614 190.547 127.716Z" fill="#001030"/>
<path d="M198.61 169.573C198.711 173.282 198.818 177.113 198.749 180.203C198.749 181.074 198.701 181.814 198.658 182.449C198.414 182.699 198.132 182.911 197.824 183.079C197.893 182.339 197.946 181.394 197.972 180.188C198.042 177.118 197.935 173.293 197.834 169.594C197.707 165.076 197.59 160.805 197.834 158.984C198.392 155.007 199.631 133.441 199.961 127.685L200.737 127.722C200.413 133.493 199.142 155.08 198.61 159.084C198.371 160.841 198.488 165.086 198.61 169.573Z" fill="#001030"/>
<path d="M193.982 186.615C193.982 186.615 193.243 185.613 192.637 185.639C192.031 185.665 187.288 189.16 185.683 189.422C184.077 189.685 184.359 190.829 184.619 191.416C184.88 192.004 197.379 191.463 197.379 191.463C197.379 191.463 197.799 187.89 197.416 186.783C197.033 185.676 195.226 186.904 193.982 186.615Z" fill="#008EFF"/>
<path d="M191.344 189.066C191.401 189.087 191.463 189.087 191.52 189.066C191.546 189.052 191.568 189.034 191.587 189.012C191.605 188.99 191.619 188.965 191.628 188.937C191.636 188.91 191.639 188.881 191.636 188.853C191.633 188.824 191.624 188.797 191.61 188.772C191.339 188.284 190.948 187.87 190.473 187.57C190.226 187.438 189.949 187.373 189.669 187.38C189.389 187.388 189.116 187.468 188.878 187.612C188.83 187.645 188.798 187.695 188.788 187.751C188.778 187.807 188.791 187.865 188.824 187.911C188.86 187.958 188.912 187.99 188.971 188C189.029 188.01 189.089 187.997 189.138 187.964C189.308 187.868 189.501 187.818 189.696 187.818C189.892 187.818 190.084 187.868 190.255 187.964C190.65 188.225 190.976 188.576 191.206 188.987C191.241 189.029 191.29 189.057 191.344 189.066Z" fill="white"/>
<path d="M192.025 188.467C192.052 188.48 192.082 188.487 192.112 188.487C192.143 188.487 192.173 188.48 192.2 188.467C192.226 188.455 192.249 188.438 192.268 188.417C192.287 188.395 192.301 188.37 192.31 188.343C192.319 188.316 192.323 188.288 192.32 188.26C192.318 188.231 192.309 188.204 192.296 188.179C192.022 187.691 191.629 187.278 191.153 186.977C190.907 186.845 190.63 186.778 190.35 186.785C190.07 186.791 189.797 186.87 189.558 187.014C189.51 187.048 189.478 187.098 189.468 187.155C189.458 187.212 189.471 187.271 189.505 187.318C189.54 187.365 189.593 187.396 189.652 187.404C189.71 187.413 189.77 187.399 189.818 187.365C189.988 187.27 190.181 187.22 190.376 187.22C190.572 187.22 190.764 187.27 190.935 187.365C191.332 187.624 191.659 187.975 191.886 188.389C191.923 188.429 191.971 188.456 192.025 188.467Z" fill="white"/>
<path d="M190.429 189.538C190.457 189.549 190.487 189.556 190.517 189.556C190.547 189.556 190.577 189.549 190.604 189.538C190.63 189.525 190.653 189.506 190.671 189.484C190.69 189.462 190.704 189.437 190.712 189.41C190.721 189.382 190.723 189.354 190.72 189.325C190.717 189.297 190.709 189.269 190.695 189.244C190.422 188.757 190.031 188.344 189.557 188.042C189.312 187.907 189.035 187.838 188.755 187.845C188.474 187.851 188.2 187.932 187.962 188.079C187.938 188.095 187.918 188.116 187.902 188.14C187.886 188.165 187.875 188.192 187.87 188.22C187.865 188.249 187.866 188.278 187.873 188.306C187.88 188.334 187.892 188.36 187.909 188.383C187.926 188.407 187.947 188.427 187.972 188.442C187.997 188.457 188.024 188.467 188.053 188.471C188.082 188.476 188.111 188.474 188.139 188.467C188.168 188.46 188.194 188.448 188.217 188.431C188.388 188.336 188.58 188.286 188.776 188.286C188.971 188.286 189.163 188.336 189.334 188.431C189.731 188.691 190.059 189.042 190.291 189.454C190.307 189.477 190.327 189.496 190.351 189.51C190.375 189.525 190.401 189.534 190.429 189.538Z" fill="white"/>
<path d="M210.445 182.989L210.828 186.752L214.013 186.704L214.247 182.706L210.445 182.989Z" fill="#F9AF8B"/>
<path d="M216.999 159.162C216.643 166.067 216.829 175.014 216.999 179.915C217.009 180.39 216.922 180.862 216.744 181.303C216.565 181.744 216.299 182.146 215.96 182.484C215.621 182.821 215.218 183.088 214.772 183.269C214.327 183.45 213.849 183.54 213.368 183.535H210.651C210.069 183.537 209.495 183.402 208.977 183.142C208.678 182.992 208.402 182.801 208.158 182.575C207.783 182.24 207.488 181.828 207.291 181.369C207.095 180.909 207.002 180.413 207.02 179.915C207.201 174.143 207.456 163.04 206.887 159.661C206.318 156.282 205.361 141.212 204.867 133.047C204.702 130.324 204.59 128.377 204.559 127.895L216.159 128.042C216.191 128.624 216.244 129.516 216.308 130.665C216.669 137.177 217.393 151.57 216.999 159.162Z" fill="black"/>
<path d="M216.292 130.655C212.522 131.642 208.703 132.441 204.851 133.047C204.687 130.324 204.575 128.377 204.543 127.895L216.143 128.042C216.175 128.624 216.229 129.532 216.292 130.655Z" fill="#001030"/>
<path d="M208.817 180.188C208.843 181.431 208.896 182.397 208.966 183.142C208.664 182.992 208.384 182.801 208.136 182.575C208.094 181.914 208.056 181.132 208.035 180.203C207.966 177.113 208.072 173.282 208.173 169.573C208.296 165.086 208.413 160.841 208.173 159.078C207.615 155.075 206.366 133.457 206.047 127.711L206.823 127.674C207.153 133.446 208.391 155.001 208.95 158.979C209.205 160.799 209.088 165.071 208.95 169.588C208.854 173.293 208.748 177.118 208.817 180.188Z" fill="#001030"/>
<path d="M212.073 186.201C212.754 186.015 213.447 185.879 214.147 185.791C214.593 185.791 217.602 189.05 218.613 189.239C220.452 189.59 220.452 192.361 219.336 192.497C216.103 192.896 210.574 191.579 210.574 191.579C210.574 191.579 210.042 188.021 210.287 186.904C210.532 185.786 211.17 186.5 212.073 186.201Z" fill="#008EFF"/>
<path d="M214.745 189.212C214.686 189.223 214.626 189.212 214.575 189.181C214.55 189.166 214.528 189.145 214.512 189.122C214.495 189.098 214.483 189.071 214.477 189.042C214.471 189.014 214.471 188.985 214.477 188.956C214.483 188.928 214.494 188.901 214.511 188.877C214.832 188.418 215.263 188.045 215.766 187.791C216.024 187.679 216.308 187.638 216.588 187.67C216.869 187.702 217.135 187.807 217.361 187.974C217.381 187.994 217.397 188.018 217.408 188.044C217.419 188.07 217.425 188.098 217.425 188.126C217.425 188.155 217.419 188.183 217.408 188.209C217.397 188.235 217.381 188.259 217.361 188.278C217.319 188.319 217.263 188.342 217.204 188.342C217.145 188.342 217.089 188.319 217.047 188.278C216.887 188.167 216.701 188.099 216.506 188.08C216.312 188.06 216.115 188.091 215.936 188.168C215.512 188.391 215.148 188.709 214.873 189.097C214.845 189.149 214.8 189.19 214.745 189.212Z" fill="white"/>
<path d="M214.131 188.557C214.071 188.567 214.009 188.556 213.956 188.525C213.907 188.492 213.874 188.442 213.863 188.385C213.852 188.328 213.865 188.269 213.897 188.221C214.216 187.762 214.645 187.389 215.147 187.135C215.405 187.023 215.689 186.982 215.969 187.014C216.25 187.046 216.516 187.151 216.742 187.318C216.764 187.336 216.783 187.358 216.797 187.383C216.811 187.409 216.819 187.436 216.821 187.465C216.824 187.493 216.821 187.522 216.811 187.549C216.802 187.576 216.788 187.601 216.768 187.623C216.725 187.662 216.668 187.685 216.609 187.685C216.55 187.685 216.493 187.662 216.449 187.623C216.289 187.511 216.103 187.442 215.908 187.423C215.714 187.404 215.517 187.434 215.338 187.512C214.914 187.734 214.549 188.052 214.275 188.441C214.244 188.497 214.193 188.538 214.131 188.557Z" fill="white"/>
<path d="M215.611 189.769C215.551 189.779 215.489 189.768 215.436 189.737C215.412 189.721 215.392 189.701 215.376 189.678C215.36 189.654 215.349 189.627 215.344 189.6C215.338 189.572 215.339 189.543 215.344 189.516C215.35 189.488 215.361 189.462 215.377 189.438C215.694 188.976 216.124 188.601 216.627 188.347C216.885 188.235 217.169 188.194 217.449 188.226C217.73 188.258 217.996 188.363 218.222 188.53C218.244 188.548 218.263 188.57 218.277 188.596C218.291 188.621 218.299 188.648 218.302 188.677C218.304 188.705 218.301 188.734 218.291 188.761C218.282 188.788 218.268 188.813 218.248 188.835C218.209 188.879 218.154 188.907 218.094 188.912C218.035 188.917 217.975 188.899 217.929 188.861C217.771 188.747 217.585 188.676 217.39 188.655C217.194 188.635 216.997 188.666 216.818 188.746C216.393 188.968 216.028 189.289 215.755 189.68C215.72 189.726 215.669 189.758 215.611 189.769Z" fill="white"/>
<path d="M218.775 129.007C208.47 131.56 197.686 131.56 187.381 129.007C187.328 125.229 187.275 110.117 187.573 97.7394C187.573 97.4928 187.573 97.2514 187.573 97.0101C187.573 96.8894 187.573 96.7687 187.573 96.6533C187.573 96.5011 187.573 96.3489 187.573 96.1968C187.796 88.0218 188.184 81.3474 188.854 80.4554C190.417 78.3566 198.253 75.0719 200.423 73.5974C200.603 73.8755 201.672 75.4392 203.081 75.5546C204.612 75.6858 205.978 73.9385 205.978 73.9385V73.6079C208.153 75.0876 215.255 78.1519 216.813 80.214C218.552 82.4755 218.844 122.59 218.775 129.007Z" fill="#FF6C37"/>
<path d="M190.769 91.9361C189.707 93.5532 188.77 95.2477 187.968 97.0048L187.771 97.4246C187.702 97.5663 187.665 97.6502 187.659 97.6555C187.642 97.6964 187.612 97.7311 187.574 97.7552C187.574 97.5085 187.574 97.2672 187.574 97.0258C187.574 96.9051 187.574 96.7844 187.574 96.669C187.691 96.4171 187.835 96.1443 187.994 95.8032C188.668 94.3706 189.454 92.9918 190.344 91.679C190.383 91.6285 190.441 91.5953 190.504 91.5865C190.568 91.5776 190.633 91.5939 190.684 91.6318C190.736 91.6614 190.774 91.7099 190.79 91.7668C190.806 91.8237 190.798 91.8845 190.769 91.9361Z" fill="#0077EB"/>
<path d="M210.827 82.8324C207.465 82.6956 204.219 81.5821 201.496 79.6316C200.265 78.7807 199.157 77.7693 198.2 76.625C198.162 76.5749 198.146 76.512 198.155 76.45C198.164 76.388 198.197 76.332 198.248 76.2945C198.3 76.2579 198.364 76.2424 198.428 76.2512C198.491 76.26 198.548 76.2924 198.588 76.3417C198.636 76.3994 203.129 82.1135 210.848 82.3444C210.912 82.3444 210.972 82.3693 211.017 82.4135C211.062 82.4578 211.087 82.5179 211.087 82.5805C211.087 82.6431 211.062 82.7032 211.017 82.7475C210.972 82.7917 210.912 82.8166 210.848 82.8166L210.827 82.8324Z" fill="#0077EB"/>
<path d="M196.802 121.136C196.742 121.138 196.683 121.116 196.639 121.076C196.594 121.036 196.567 120.981 196.563 120.921C196.561 120.89 196.565 120.859 196.575 120.83C196.585 120.8 196.601 120.773 196.622 120.75C196.642 120.726 196.668 120.707 196.696 120.693C196.724 120.68 196.755 120.671 196.786 120.669C203.618 120.234 207.69 116.892 209.907 114.158C211.336 112.405 212.419 110.402 213.097 108.255C213.115 108.194 213.156 108.142 213.211 108.111C213.267 108.079 213.333 108.071 213.395 108.087C213.456 108.102 213.509 108.14 213.542 108.193C213.575 108.246 213.585 108.31 213.57 108.37C212.874 110.58 211.757 112.639 210.28 114.436C208.004 117.248 203.815 120.69 196.797 121.136H196.802Z" fill="#0077EB"/>
<path d="M200.471 116.939C200.414 116.937 200.36 116.916 200.318 116.878C200.276 116.841 200.248 116.79 200.24 116.735C200.233 116.679 200.245 116.623 200.276 116.575C200.306 116.528 200.353 116.493 200.407 116.477C206.34 114.929 207.489 110.133 207.499 110.086C207.515 110.025 207.553 109.973 207.607 109.94C207.66 109.906 207.725 109.895 207.787 109.908C207.848 109.92 207.903 109.957 207.938 110.009C207.973 110.061 207.985 110.124 207.973 110.186C207.699 111.183 207.237 112.121 206.612 112.951C205.126 114.946 202.974 116.358 200.535 116.939H200.471Z" fill="#0077EB"/>
<path d="M226.485 128.608C226.336 130.66 225.06 132.187 225.055 133.535C225.049 134.884 223.46 134.008 224.177 131.337C224.895 128.666 223.816 126.09 223.226 126.09C222.636 126.09 223.412 129.096 222.795 130.088C222.178 131.08 221.7 129.002 221.158 127.711C220.615 126.42 220.908 123.602 221.418 121.651C221.929 119.699 219.414 107.31 219.743 103.81L218.834 99.282L218.303 96.6585L218.207 93.8985L223.056 92.041C223.242 92.9278 223.428 93.846 223.614 94.7643L223.853 95.9869C224.502 99.2873 225.087 102.541 225.326 104.624C225.953 110.401 224.89 122.186 224.89 122.186C224.89 122.186 226.602 126.683 226.485 128.608Z" fill="#F9AF8B"/>
<path d="M223.826 95.9974C222.731 97.2094 220.981 98.7468 218.807 99.3083L218.275 96.6847L218.18 93.9247L223.028 92.0673C223.214 92.954 223.4 93.8723 223.587 94.7905L223.826 95.9974Z" fill="#FC8664"/>
<path d="M225.181 93.3843C224.699 93.9004 224.165 94.3663 223.586 94.7748C222.057 95.9372 220.199 96.5995 218.27 96.669C218.004 89.024 217.611 82.57 217.031 80.6758C218.073 81.8984 222.991 87.9168 225.181 93.3843Z" fill="#FF6C37"/>
<path d="M214.958 91.17C216.022 92.7865 216.958 94.4811 217.76 96.2388C217.839 96.4067 217.908 96.5483 217.956 96.6585L218.063 96.8842C218.083 96.9261 218.114 96.9616 218.154 96.9867C218.193 97.0117 218.239 97.0253 218.286 97.0258C218.286 96.9051 218.286 96.7845 218.286 96.669H218.499L218.275 96.1968C218.132 95.8977 217.935 95.4832 217.706 95.0162C217.032 93.5852 216.247 92.2081 215.357 90.8972C215.318 90.847 215.26 90.8136 215.197 90.8039C215.134 90.7941 215.069 90.8087 215.016 90.8447C214.991 90.862 214.969 90.8843 214.952 90.9101C214.935 90.936 214.923 90.9649 214.918 90.9952C214.912 91.0255 214.913 91.0566 214.92 91.0866C214.927 91.1167 214.94 91.145 214.958 91.17Z" fill="#0077EB"/>
<path d="M210.572 61.3192C210.572 65.4592 207.914 68.3084 203.661 68.3084C199.408 68.3084 196.398 65.244 196.398 61.1041C196.398 56.9641 198.934 53.8315 203.214 53.8315C208.339 53.8315 210.572 57.1792 210.572 61.3192Z" fill="#2E3052"/>
<path d="M209.61 63.1032C209.61 63.1032 210.8 61.5658 211.683 62.8356C212.566 64.1054 211.316 67.8466 209.152 66.9336L209.61 63.1032Z" fill="#FC8664"/>
<path d="M209.626 65.7793C209.666 65.7795 209.704 65.7668 209.736 65.7431C209.768 65.7193 209.791 65.686 209.801 65.6481C209.936 65.2806 210.147 64.9453 210.422 64.6641C210.697 64.3829 211.029 64.1621 211.396 64.0162C211.418 64.0081 211.438 63.9958 211.455 63.98C211.472 63.9642 211.485 63.9453 211.495 63.9243C211.504 63.9033 211.509 63.8807 211.51 63.8577C211.51 63.8348 211.506 63.8119 211.497 63.7906C211.479 63.7468 211.445 63.7114 211.402 63.6919C211.358 63.6723 211.309 63.6701 211.263 63.6857C210.843 63.8499 210.464 64.1019 210.152 64.4243C209.84 64.7468 209.603 65.132 209.456 65.5536C209.449 65.576 209.448 65.5995 209.451 65.6225C209.454 65.6456 209.461 65.6679 209.473 65.688C209.485 65.708 209.501 65.7255 209.52 65.7394C209.539 65.7533 209.56 65.7633 209.583 65.7688L209.626 65.7793Z" fill="#FD664D"/>
<path d="M210.877 65.1967C210.909 65.1969 210.941 65.1885 210.969 65.1724C210.997 65.1563 211.02 65.1331 211.036 65.1052C211.052 65.0774 211.059 65.0459 211.059 65.014C211.058 64.9821 211.048 64.951 211.031 64.9239C210.855 64.6907 210.618 64.5093 210.345 64.3992C210.301 64.3795 210.25 64.3778 210.205 64.3944C210.159 64.4111 210.122 64.4449 210.101 64.4884C210.091 64.5097 210.086 64.5327 210.086 64.556C210.086 64.5792 210.09 64.6024 210.099 64.6239C210.108 64.6455 210.121 64.665 210.138 64.6814C210.155 64.6978 210.175 64.7107 210.197 64.7193C210.406 64.8068 210.589 64.946 210.728 65.1233C210.746 65.1458 210.768 65.1641 210.794 65.1768C210.82 65.1895 210.848 65.1964 210.877 65.1967Z" fill="#FD664D"/>
<path d="M197.355 63.1032C197.355 63.1032 196.165 61.5658 195.282 62.8356C194.399 64.1054 195.649 67.8466 197.813 66.9336L197.355 63.1032Z" fill="#FC8664"/>
<path d="M197.341 65.7793C197.301 65.7795 197.262 65.7668 197.23 65.7431C197.199 65.7193 197.176 65.686 197.165 65.6481C197.031 65.2806 196.819 64.9453 196.544 64.6641C196.269 64.3829 195.938 64.1621 195.57 64.0162C195.549 64.0081 195.529 63.9958 195.512 63.98C195.495 63.9642 195.481 63.9453 195.472 63.9243C195.463 63.9033 195.458 63.8807 195.457 63.8577C195.457 63.8348 195.461 63.8119 195.469 63.7906C195.487 63.7468 195.521 63.7114 195.565 63.6919C195.609 63.6723 195.658 63.6701 195.703 63.6857C196.123 63.8499 196.502 64.1019 196.814 64.4243C197.126 64.7468 197.364 65.132 197.511 65.5536C197.517 65.576 197.519 65.5995 197.516 65.6225C197.513 65.6456 197.505 65.6679 197.493 65.688C197.481 65.708 197.466 65.7255 197.447 65.7394C197.428 65.7533 197.406 65.7633 197.383 65.7688L197.341 65.7793Z" fill="#FD664D"/>
<path d="M196.092 65.1967C196.059 65.1969 196.028 65.1885 196 65.1724C195.972 65.1563 195.949 65.1331 195.933 65.1052C195.917 65.0774 195.909 65.0459 195.91 65.014C195.911 64.9821 195.92 64.951 195.938 64.9239C196.114 64.6907 196.351 64.5093 196.623 64.3992C196.668 64.3795 196.718 64.3778 196.764 64.3944C196.81 64.4111 196.847 64.4449 196.868 64.4884C196.877 64.5097 196.883 64.5327 196.883 64.556C196.883 64.5792 196.879 64.6024 196.87 64.6239C196.861 64.6455 196.848 64.665 196.831 64.6814C196.814 64.6978 196.794 64.7107 196.772 64.7193C196.563 64.8068 196.38 64.946 196.241 65.1233C196.223 65.1458 196.2 65.1641 196.175 65.1768C196.149 65.1895 196.121 65.1964 196.092 65.1967Z" fill="#FD664D"/>
<path d="M200.555 70.1082V73.8336C200.555 73.8336 201.703 75.7331 203.255 75.859C204.808 75.9849 206.185 74.2271 206.185 74.2271V70.3705L200.555 70.1082Z" fill="#F9AF8B"/>
<path d="M200.555 70.1082V71.761C201.618 72.8786 203.447 73.162 206.185 72.7684V70.3705L200.555 70.1082Z" fill="#FC8664"/>
<path d="M210.25 62.9825C210.193 63.8045 210.088 64.6226 209.937 65.4329C209.405 68.1771 208.257 70.8794 205.753 71.7294C200.075 73.6866 198.049 68.9799 197.246 66.2409C197.161 65.9366 197.082 65.5955 197.007 65.2335C196.879 64.5776 196.778 63.8483 196.699 63.1346C196.608 62.2479 196.545 61.3454 196.507 60.5531C196.473 59.7324 196.703 58.9221 197.164 58.2385C197.625 57.555 198.295 57.0334 199.075 56.7489C201.404 55.8831 204.923 55.201 208.283 57.0375C208.888 57.3628 209.395 57.8397 209.753 58.42C210.112 59.0004 210.309 59.6637 210.325 60.3432C210.33 61.0883 210.319 61.996 210.25 62.9825Z" fill="#F9AF8B"/>
<path d="M209.54 63.1295C209.353 63.4705 208.29 66.6398 207.992 67.0858C207.323 65.6586 204.085 66.6975 204.085 66.6975C203.882 66.7603 203.67 66.7922 203.458 66.792C203.25 66.791 203.045 66.7609 202.846 66.7028C202.846 66.7028 199.571 65.7058 198.928 67.2275C198.63 66.7815 197.705 63.6699 197.53 63.1557H196.711C196.791 63.8903 196.892 64.6197 197.019 65.2546C197.094 65.6166 197.173 65.9577 197.259 66.262C198.072 69.001 200.098 73.7077 205.765 71.7505C208.269 70.8847 209.433 68.1824 209.949 65.4539C210.1 64.6437 210.205 63.8256 210.263 63.0035L209.54 63.1295ZM206.488 68.9328C206.262 69.154 206.006 69.343 205.728 69.4942C204.287 70.2446 204.133 70.1344 203.564 70.1554C202.799 70.1575 202.047 69.9602 201.384 69.5834C201.003 69.3656 200.647 69.1089 200.321 68.8173C200.321 68.8173 199.736 66.8917 203.442 67.3744C207.179 66.7552 206.552 68.555 206.488 68.9328Z" fill="#2E3052"/>
<path d="M205.914 63.5859C205.914 63.9847 206.127 64.3048 206.387 64.3048C206.648 64.3048 206.86 63.9847 206.86 63.5859C206.86 63.1871 206.648 62.8671 206.387 62.8671C206.127 62.8671 205.914 63.1871 205.914 63.5859Z" fill="#2E3052"/>
<path d="M200.34 63.5702C200.34 63.969 200.552 64.2943 200.813 64.2943C201.074 64.2943 201.286 63.969 201.286 63.5702C201.286 63.1714 201.074 62.8513 200.813 62.8513C200.552 62.8513 200.34 63.1766 200.34 63.5702Z" fill="#2E3052"/>
<path d="M208.264 61.5553C208.264 61.5553 206.451 60.8627 205.074 61.4451L205.212 62.1955C205.212 62.1955 207.259 62.0275 208.291 62.4316C208.388 62.1458 208.379 61.8348 208.264 61.5553Z" fill="#2E3052"/>
<path d="M199.247 61.5553C199.247 61.5553 201.06 60.8627 202.437 61.4451L202.298 62.1955C202.298 62.1955 200.246 62.0275 199.215 62.4316C199.122 62.1448 199.133 61.8348 199.247 61.5553Z" fill="#2E3052"/>
<path d="M203.42 66.3721C203.192 66.3663 202.967 66.3201 202.756 66.2357C202.733 66.2276 202.713 66.2151 202.696 66.199C202.678 66.1828 202.664 66.1633 202.655 66.1417C202.646 66.1201 202.641 66.0968 202.641 66.0733C202.641 66.0497 202.645 66.0264 202.655 66.0048C202.675 65.9616 202.711 65.9277 202.755 65.9101C202.8 65.8925 202.85 65.8926 202.894 65.9104C203.124 66.0132 203.382 66.0372 203.628 65.9786C203.656 65.9602 203.679 65.9353 203.695 65.9059C203.71 65.8766 203.718 65.8439 203.718 65.8107C203.782 65.1968 203.606 63.1241 203.606 63.1032C203.609 63.0591 203.628 63.0175 203.659 62.9859C203.69 62.9543 203.732 62.9348 203.776 62.931C203.821 62.9272 203.865 62.9393 203.901 62.9651C203.937 62.9909 203.963 63.0288 203.973 63.0717C204.058 63.9945 204.093 64.921 204.08 65.8474C204.076 65.9363 204.05 66.0229 204.004 66.0991C203.957 66.1752 203.892 66.2385 203.814 66.2829C203.693 66.3469 203.557 66.3777 203.42 66.3721Z" fill="#FC8664"/>
<path d="M205.917 67.6682C205.752 68.3976 205.273 69.7146 203.625 69.7146C201.977 69.7146 201.472 68.492 201.312 67.6472L205.917 67.6682Z" fill="white"/>
<path d="M196.712 63.1346H197.536C197.446 62.3266 197.318 60.9099 197.999 60.7052C200.162 60.0651 197.361 58.6064 198.334 57.8508C199.306 57.0952 201.736 57.431 203.427 57.3785C205.123 57.3015 206.824 57.3418 208.515 57.4992C209.179 57.6461 208.818 58.7113 208.573 59.5351C208.328 60.3589 209.386 61.2719 209.562 62.1272C209.61 62.4613 209.61 62.8005 209.562 63.1346H210.253C210.338 62.0852 210.349 61.125 210.333 60.3379C210.317 59.6591 210.12 58.9963 209.763 58.4161C209.406 57.8359 208.9 57.3587 208.297 57.0322C204.947 55.1957 201.412 55.8779 199.083 56.7436C198.302 57.0275 197.632 57.5489 197.171 58.2326C196.709 58.9163 196.48 59.727 196.515 60.5478C196.537 61.3191 196.595 62.2426 196.712 63.1346Z" fill="#2E3052"/>
<path d="M75.1164 153.752H33.0312C33.7224 149.586 37.0718 146.559 40.9794 146.569L54.0738 146.611L67.1683 146.569C71.0705 146.559 74.4359 149.586 75.1164 153.752Z" fill="white"/>
<path d="M38.6273 153.16H36.3359V191.889H38.6273V153.16Z" fill="white"/>
<path d="M71.8031 153.16H69.5117V191.889H71.8031V153.16Z" fill="white"/>
<path d="M69.5108 164.011H38.6328V166.193H69.5108V164.011Z" fill="#DCEDF9"/>
<path d="M43.769 101.617C43.769 101.617 36.7353 110.873 35.7943 118.933C35.1297 124.631 43.769 133.147 43.769 133.147L46.7356 131.688L43.7743 125.098C42.711 121.887 41.4244 120.622 42.3814 117.379L44.508 112.814L43.769 101.617Z" fill="#FF8052"/>
<path d="M65.9266 101.481C65.9266 101.481 72.8645 111.345 73.4387 119.447C73.9331 126.431 65.464 133.152 65.464 133.152L63.0078 131.951L66.405 125.292C67.4683 122.081 67.9628 120.145 66.522 116.65L64.6985 112.82L65.9266 101.481Z" fill="#FF8052"/>
<path d="M45.1924 122.711L40.5352 137.34C40.5352 137.34 60.7058 139.879 66.8729 138.237L63.7415 122.301L65.9266 101.481C62.9113 100.21 59.7056 99.4358 56.4367 99.1877C51.6519 98.8466 48.6534 99.6232 43.7782 101.617L45.1924 122.711Z" fill="#FF6C37"/>
<path d="M50.2377 106.03C54.6929 105.505 58.8291 102.499 59.0205 102.357C59.0723 102.316 59.1062 102.258 59.1152 102.193C59.1241 102.129 59.1073 102.063 59.0683 102.011C59.0494 101.984 59.0253 101.962 58.9973 101.945C58.9694 101.928 58.9383 101.918 58.9059 101.913C58.8735 101.909 58.8405 101.911 58.809 101.92C58.7775 101.928 58.7482 101.943 58.7227 101.963C58.6749 101.995 53.7997 105.547 49.1159 105.61C49.0831 105.609 49.0505 105.615 49.0202 105.627C48.9898 105.64 48.9623 105.658 48.9394 105.681C48.9164 105.704 48.8986 105.732 48.8869 105.762C48.8752 105.792 48.8699 105.824 48.8713 105.857C48.8713 105.889 48.8778 105.921 48.8904 105.95C48.9031 105.98 48.9216 106.007 48.9448 106.029C48.9681 106.052 48.9957 106.069 49.026 106.081C49.0563 106.093 49.0886 106.099 49.1212 106.098C49.4943 106.094 49.8669 106.071 50.2377 106.03Z" fill="#FF581B"/>
<path d="M53.8281 184.406L54.1896 187.633L57.6719 187.712L57.9643 185.036L53.8281 184.406Z" fill="#F9AF8B"/>
<path d="M53.2784 133.205C53.2784 133.205 44.267 132.717 41.2154 135.183C38.1637 137.649 38.7751 144.722 41.8853 146.653C44.9954 148.584 50.2959 152.378 50.2959 152.378L53.6665 185.466L58.1217 185.618C58.1217 185.618 62.2314 152.378 60.1473 145.94C58.0633 139.501 53.2784 133.205 53.2784 133.205Z" fill="black"/>
<path d="M58.539 183.965C58.7434 184.714 58.7025 185.508 58.422 186.232L53.2969 186.117C53.1201 185.39 53.0858 184.637 53.1959 183.897L58.539 183.965Z" fill="#2E3052"/>
<path d="M66.0323 132.942H42.3794L40.1943 120.349C40.1495 120.092 40.162 119.828 40.231 119.577C40.3 119.325 40.4239 119.091 40.594 118.891C40.764 118.691 40.9762 118.53 41.2157 118.42C41.4552 118.309 41.7162 118.251 41.9806 118.25H66.4364C66.7011 118.25 66.9626 118.307 67.2025 118.418C67.4425 118.528 67.655 118.689 67.8253 118.889C67.9955 119.089 68.1193 119.323 68.188 119.576C68.2566 119.828 68.2685 120.092 68.2227 120.349L66.0323 132.942Z" fill="white"/>
<path d="M64.1378 135.687H44.3074C43.7969 135.687 43.3074 135.487 42.9465 135.13C42.5856 134.774 42.3828 134.291 42.3828 133.787V132.942H66.0623V133.787C66.0623 134.291 65.8596 134.774 65.4986 135.13C65.1377 135.487 64.6482 135.687 64.1378 135.687Z" fill="#DCEDF9"/>
<path d="M56.3142 126.111C56.3152 126.513 56.1953 126.906 55.9696 127.241C55.744 127.575 55.4227 127.837 55.0465 127.991C54.6703 128.145 54.2562 128.186 53.8566 128.108C53.457 128.03 53.0899 127.836 52.8018 127.552C52.5138 127.267 52.3177 126.905 52.2385 126.511C52.1593 126.116 52.2005 125.708 52.3569 125.336C52.5132 124.965 52.7778 124.648 53.1169 124.425C53.4561 124.203 53.8546 124.084 54.262 124.085C54.8063 124.085 55.3282 124.299 55.7131 124.678C56.0979 125.058 56.3142 125.573 56.3142 126.111Z" fill="#DCEDF9"/>
<path d="M39.0443 175.323L38.2734 178.519L41.3942 179.128L42.6702 176.273L39.0443 175.323Z" fill="#F9AF8B"/>
<path d="M57.8614 132.643C57.8614 132.643 51.8219 130.592 48.2918 134.905C44.7616 139.218 38.8125 175.638 38.8125 175.638L42.8743 177.291L55.9368 144.948C55.9368 144.948 66.5698 150.94 67.8563 142.424C68.8824 135.687 57.8614 132.643 57.8614 132.643Z" fill="black"/>
<path d="M43.8051 175.622C43.7583 176.422 43.459 177.187 42.9492 177.81L37.957 176.068C38.0194 175.299 38.2324 174.549 38.5844 173.859L43.8051 175.622Z" fill="#524E84"/>
<path d="M40.6516 177.989C39.8602 177.584 39.0413 177.233 38.2007 176.94C37.6691 176.829 33.0438 180.051 31.7412 180.02C29.3754 179.962 28.6205 183.393 29.9602 183.855C33.8466 185.204 41.045 185.041 41.045 185.041C41.045 185.041 42.64 180.775 42.6719 179.337C42.7038 177.9 41.6777 178.634 40.6516 177.989Z" fill="#008EFF"/>
<path d="M36.5209 181.032C36.5554 181.047 36.5925 181.054 36.6299 181.054C36.6673 181.054 36.7044 181.047 36.7389 181.032C36.7733 181.02 36.8049 181 36.8316 180.975C36.8584 180.95 36.8798 180.92 36.8946 180.887C36.9095 180.854 36.9175 180.818 36.9181 180.782C36.9188 180.745 36.912 180.709 36.8984 180.675C36.6278 180.023 36.1987 179.446 35.649 178.996C35.3625 178.793 35.0266 178.669 34.6754 178.635C34.3242 178.602 33.9704 178.662 33.65 178.808C33.6177 178.825 33.5892 178.848 33.566 178.876C33.5429 178.904 33.5256 178.936 33.5153 178.971C33.5049 179.005 33.5016 179.042 33.5055 179.078C33.5095 179.114 33.5207 179.148 33.5384 179.18C33.5753 179.244 33.6358 179.291 33.7072 179.311C33.7786 179.332 33.8553 179.324 33.9212 179.29C34.1489 179.194 34.398 179.158 34.644 179.186C34.89 179.214 35.1246 179.304 35.3247 179.448C35.7918 179.831 36.1569 180.321 36.388 180.875C36.4113 180.942 36.4586 180.998 36.5209 181.032Z" fill="white"/>
<path d="M37.4648 180.387C37.5363 180.416 37.6166 180.416 37.6881 180.387C37.7568 180.36 37.812 180.307 37.8418 180.241C37.8717 180.174 37.8737 180.098 37.8476 180.03C37.5741 179.378 37.1434 178.801 36.5929 178.351C36.3077 178.147 35.9726 178.022 35.6221 177.989C35.2716 177.956 34.9185 178.016 34.5992 178.162C34.5669 178.179 34.5384 178.202 34.5153 178.23C34.4921 178.258 34.4749 178.291 34.4645 178.325C34.4541 178.36 34.4508 178.396 34.4548 178.432C34.4587 178.468 34.4699 178.503 34.4876 178.535C34.5245 178.598 34.585 178.645 34.6564 178.666C34.7278 178.687 34.8045 178.679 34.8704 178.645C35.0981 178.549 35.3472 178.513 35.5932 178.541C35.8392 178.568 36.0738 178.658 36.2739 178.802C36.7392 179.187 37.1038 179.676 37.3372 180.229C37.3469 180.263 37.3632 180.294 37.3851 180.321C37.407 180.348 37.4341 180.37 37.4648 180.387Z" fill="white"/>
<path d="M35.3007 181.478C35.3722 181.507 35.4525 181.507 35.524 181.478C35.5927 181.451 35.6479 181.399 35.6778 181.332C35.7076 181.265 35.7097 181.19 35.6835 181.121C35.4101 180.469 34.9794 179.893 34.4288 179.442C34.1437 179.239 33.8085 179.114 33.458 179.08C33.1075 179.047 32.7544 179.107 32.4352 179.254C32.4029 179.271 32.3743 179.294 32.3512 179.322C32.3281 179.35 32.3108 179.382 32.3004 179.417C32.29 179.451 32.2867 179.488 32.2907 179.524C32.2947 179.56 32.3058 179.594 32.3235 179.626C32.3604 179.69 32.421 179.737 32.4924 179.757C32.5638 179.778 32.6405 179.77 32.7063 179.736C32.9337 179.639 33.1831 179.602 33.4294 179.63C33.6758 179.657 33.9104 179.748 34.1099 179.894C34.5751 180.278 34.9398 180.768 35.1732 181.321C35.1829 181.354 35.1991 181.385 35.221 181.412C35.2429 181.439 35.27 181.462 35.3007 181.478Z" fill="white"/>
<path d="M55.5329 187.497C56.3438 187.244 57.1717 187.047 58.0104 186.909C58.5421 186.909 62.3327 190.676 63.5661 190.86C65.7937 191.196 65.9266 194.533 64.5869 194.753C60.7112 195.388 53.9805 194.05 53.9805 194.05C53.9805 194.05 53.199 189.784 53.4117 188.431C53.6243 187.077 54.459 187.937 55.5329 187.497Z" fill="#008EFF"/>
<path d="M58.9046 191.033C58.8709 191.047 58.8348 191.054 58.7983 191.054C58.7618 191.054 58.7257 191.047 58.692 191.033C58.6622 191.015 58.6365 190.991 58.6161 190.963C58.5957 190.935 58.5812 190.903 58.5733 190.87C58.5654 190.836 58.5643 190.801 58.57 190.767C58.5758 190.733 58.5883 190.701 58.6069 190.671C58.9704 190.103 59.4708 189.632 60.0636 189.302C60.3665 189.158 60.7027 189.095 61.038 189.121C61.3733 189.147 61.6956 189.26 61.9722 189.449C62.027 189.492 62.0622 189.555 62.0702 189.624C62.0781 189.693 62.0582 189.762 62.0148 189.816C61.969 189.871 61.9035 189.906 61.832 189.914C61.7605 189.921 61.6888 189.901 61.632 189.858C61.4353 189.73 61.2083 189.656 60.9734 189.641C60.7385 189.626 60.5037 189.672 60.2922 189.774C59.7958 190.064 59.3752 190.465 59.0641 190.944C59.0243 190.993 58.9673 191.025 58.9046 191.033Z" fill="white"/>
<path d="M58.1294 190.272C58.094 190.283 58.0569 190.285 58.0203 190.281C57.9837 190.276 57.9485 190.265 57.9167 190.246C57.8864 190.229 57.8601 190.205 57.8393 190.177C57.8186 190.149 57.8037 190.117 57.7958 190.083C57.7878 190.049 57.7869 190.014 57.7931 189.98C57.7993 189.946 57.8124 189.913 57.8317 189.884C58.1951 189.316 58.6956 188.845 59.2884 188.515C59.5899 188.369 59.9256 188.306 60.2604 188.331C60.5951 188.357 60.9167 188.471 61.1917 188.662C61.2194 188.683 61.2425 188.709 61.2598 188.739C61.277 188.769 61.2879 188.802 61.2918 188.836C61.2958 188.871 61.2928 188.905 61.2828 188.938C61.2729 188.971 61.2564 189.002 61.2342 189.029C61.1894 189.083 61.1247 189.118 61.0541 189.126C60.9836 189.134 60.9127 189.114 60.8567 189.071C60.6596 188.942 60.4316 188.866 60.1956 188.851C59.9595 188.837 59.7237 188.883 59.5117 188.987C59.0163 189.276 58.5973 189.677 58.2889 190.157C58.2716 190.186 58.2486 190.211 58.2212 190.231C58.1938 190.251 58.1625 190.265 58.1294 190.272Z" fill="white"/>
<path d="M59.9746 191.668C59.9388 191.677 59.9015 191.679 59.865 191.674C59.8285 191.668 59.7934 191.656 59.7619 191.637C59.7324 191.619 59.7067 191.596 59.6864 191.568C59.6661 191.54 59.6516 191.509 59.6436 191.476C59.6357 191.443 59.6346 191.408 59.6403 191.375C59.646 191.341 59.6584 191.309 59.6768 191.28C60.0387 190.71 60.5396 190.239 61.1336 189.91C61.4362 189.765 61.7726 189.702 62.1081 189.728C62.4436 189.754 62.766 189.868 63.0422 190.057C63.0699 190.078 63.093 190.105 63.1103 190.135C63.1275 190.165 63.1384 190.198 63.1424 190.232C63.1463 190.266 63.1433 190.301 63.1334 190.334C63.1235 190.367 63.1069 190.398 63.0847 190.425C63.0382 190.478 62.9728 190.512 62.9017 190.52C62.8306 190.528 62.7592 190.509 62.7019 190.467C62.5058 190.337 62.2787 190.262 62.0435 190.247C61.8082 190.232 61.5732 190.279 61.3622 190.383C60.8633 190.669 60.442 191.071 60.1341 191.553C60.0975 191.61 60.0406 191.651 59.9746 191.668Z" fill="white"/>
<path d="M60.7982 80.7335C60.7982 80.7335 63.6637 85.1201 63.3501 89.6851C63.0364 94.2501 63.7754 99.5287 59.6285 99.2926C55.4817 99.0565 48.0971 100.935 45.7526 97.3774C43.408 93.8198 60.7982 80.7335 60.7982 80.7335Z" fill="#2E3052"/>
<path d="M61.8604 88.8194C61.8604 88.8194 62.6047 95.436 59.4202 97.262C56.2356 99.088 53.9336 97.0469 53.9336 97.0469C53.9336 97.0469 60.643 87.8224 61.8604 88.8194Z" fill="#000B29"/>
<path d="M48.6368 88.7878C48.6368 88.7878 47.4938 87.2819 46.6432 88.5255C45.7925 89.769 46.994 93.442 49.0728 92.5448L48.6368 88.7878Z" fill="#FC8664"/>
<path d="M48.6216 91.4114C48.5831 91.4116 48.5457 91.3995 48.515 91.3767C48.4842 91.354 48.4619 91.3219 48.4514 91.2854C48.3249 90.9281 48.1236 90.6009 47.8608 90.3253C47.5979 90.0496 47.2793 89.8314 46.9256 89.6851C46.9041 89.6775 46.8843 89.6657 46.8674 89.6504C46.8506 89.6351 46.8371 89.6166 46.8276 89.5961C46.8182 89.5755 46.8131 89.5532 46.8125 89.5307C46.812 89.5081 46.8161 89.4857 46.8246 89.4647C46.8413 89.4212 46.8746 89.386 46.9173 89.3664C46.96 89.3468 47.0088 89.3444 47.0532 89.3597C47.4597 89.5231 47.8256 89.7713 48.1257 90.0874C48.4258 90.4035 48.653 90.78 48.7917 91.191C48.8033 91.2355 48.7971 91.2827 48.7743 91.3228C48.7515 91.3628 48.7139 91.3927 48.6694 91.4061L48.6216 91.4114Z" fill="#FD664D"/>
<path d="M47.4197 90.8395C47.3883 90.8472 47.3555 90.8472 47.324 90.8395C47.3043 90.8272 47.2873 90.8112 47.2739 90.7923C47.2606 90.7735 47.2511 90.7522 47.2462 90.7298C47.2412 90.7073 47.2409 90.6841 47.2451 90.6615C47.2494 90.6389 47.2581 90.6173 47.2709 90.5981C47.44 90.369 47.6674 90.188 47.9301 90.0734C47.9732 90.0555 48.0217 90.0548 48.0653 90.0714C48.1089 90.0881 48.1443 90.1207 48.164 90.1626C48.1819 90.2044 48.1825 90.2514 48.1656 90.2936C48.1487 90.3358 48.1157 90.3698 48.0737 90.3882C47.8636 90.472 47.68 90.6097 47.542 90.787C47.5098 90.8197 47.4659 90.8385 47.4197 90.8395Z" fill="#FD664D"/>
<path d="M60.4139 88.7878C60.4139 88.7878 61.557 87.2819 62.4076 88.5255C63.2582 89.769 62.0567 93.442 59.9727 92.5448L60.4139 88.7878Z" fill="#FC8664"/>
<path d="M60.4309 91.4114C60.4691 91.4108 60.5062 91.3984 60.5368 91.3757C60.5673 91.3531 60.5898 91.3215 60.6011 91.2855C60.7261 90.9273 60.9268 90.5995 61.1899 90.3236C61.4529 90.0477 61.7723 89.8301 62.1269 89.6851C62.1695 89.6686 62.204 89.6364 62.2228 89.5952C62.2417 89.554 62.2435 89.5072 62.2279 89.4647C62.2101 89.4221 62.1767 89.3876 62.1344 89.3682C62.092 89.3488 62.0438 89.3458 61.9993 89.3598C61.5928 89.5231 61.2269 89.7714 60.9268 90.0875C60.6267 90.4036 60.3995 90.78 60.2608 91.191C60.2544 91.2131 60.2524 91.2362 60.2551 91.259C60.2577 91.2818 60.265 91.3038 60.2763 91.3238C60.2877 91.3439 60.303 91.3614 60.3213 91.3756C60.3397 91.3897 60.3607 91.4001 60.3831 91.4061L60.4309 91.4114Z" fill="#FD664D"/>
<path d="M61.6309 90.8395C61.6624 90.8465 61.6951 90.8465 61.7266 90.8395C61.7653 90.8138 61.7925 90.7744 61.8024 90.7294C61.8123 90.6844 61.8042 90.6374 61.7798 90.5982C61.6091 90.3706 61.3821 90.1899 61.1206 90.0734C61.0993 90.0639 61.0763 90.0586 61.053 90.0579C61.0296 90.0573 61.0064 90.0612 60.9846 90.0695C60.9628 90.0778 60.9429 90.0903 60.9261 90.1063C60.9093 90.1223 60.8959 90.1415 60.8866 90.1626C60.877 90.1832 60.8718 90.2055 60.8712 90.2282C60.8705 90.2509 60.8746 90.2734 60.883 90.2945C60.8915 90.3156 60.9041 90.3348 60.9203 90.3509C60.9365 90.367 60.9557 90.3797 60.977 90.3883C61.1774 90.476 61.3514 90.6134 61.4821 90.7871C61.5007 90.807 61.524 90.8222 61.55 90.8314C61.5759 90.8405 61.6037 90.8433 61.6309 90.8395Z" fill="#FD664D"/>
<path d="M57.3415 95.6616V99.3346C57.3415 99.3346 56.2357 101.197 54.763 101.302C53.2904 101.407 51.9453 99.7019 51.9453 99.7019V95.9187L57.3415 95.6616Z" fill="#F9AF8B"/>
<path d="M57.3433 95.6616V97.283C56.3384 98.3796 54.5627 98.7679 51.9258 98.3849V95.9187L57.3433 95.6616Z" fill="#FC8664"/>
<path d="M61.2425 86.2797C61.184 87.8277 61.0224 89.3701 60.7587 90.8972C60.6896 91.2487 60.6152 91.5845 60.5301 91.8784C59.7486 94.5702 57.8028 99.1876 52.3481 97.2672C49.9397 96.4171 48.8179 93.7673 48.3235 91.0756C48.0393 89.4242 47.9164 87.7496 47.9567 86.0751C47.9709 85.4131 48.1592 84.7662 48.5031 84.1977C48.847 83.6292 49.3348 83.1587 49.9185 82.8323C53.1402 81.0326 56.5375 81.7042 58.7757 82.549C59.5315 82.8367 60.1765 83.3518 60.6192 84.0214C61.062 84.6909 61.28 85.481 61.2425 86.2797Z" fill="#F9AF8B"/>
<path d="M52.1044 89.3494C52.1044 89.7429 51.9024 90.0577 51.6525 90.0577C51.4027 90.0577 51.1953 89.7429 51.1953 89.3494C51.1953 88.9558 51.4027 88.6462 51.6525 88.6462C51.9024 88.6462 52.1044 88.9611 52.1044 89.3494Z" fill="#2E3052"/>
<path d="M57.7411 89.3494C57.7411 89.7429 57.5391 90.0577 57.2839 90.0577C57.0287 90.0577 56.832 89.7429 56.832 89.3494C56.832 88.9558 57.0341 88.6462 57.2839 88.6462C57.5338 88.6462 57.7411 88.9611 57.7411 89.3494Z" fill="#2E3052"/>
<path d="M50.766 86.9986C51.3994 86.8213 52.0535 86.7261 52.7118 86.7152C52.7614 86.7146 52.8104 86.7247 52.8556 86.7448C52.9008 86.7648 52.941 86.7944 52.9734 86.8314C53.0058 86.8683 53.0296 86.9118 53.0432 86.9589C53.0568 87.0059 53.0598 87.0552 53.0521 87.1035C53.0368 87.1831 52.9928 87.2546 52.9284 87.3047C52.8639 87.3549 52.7832 87.3803 52.7012 87.3764C51.8033 87.3451 50.906 87.4549 50.043 87.7017C50.0449 87.5659 50.1002 87.4361 50.1971 87.3396C50.3508 87.1758 50.5479 87.0577 50.766 86.9986Z" fill="#2E3052"/>
<path d="M58.1189 87.0301C57.4854 86.8528 56.8315 86.7558 56.1731 86.7415C56.1232 86.7406 56.0737 86.7507 56.0283 86.7711C55.9829 86.7915 55.9426 86.8217 55.9105 86.8594C55.8784 86.8971 55.8552 86.9415 55.8427 86.9891C55.8302 87.0368 55.8287 87.0867 55.8382 87.135C55.8523 87.2142 55.8952 87.2856 55.9588 87.3358C56.0224 87.386 56.1024 87.4117 56.1837 87.4079C57.0813 87.377 57.9783 87.485 58.842 87.728C58.8424 87.6613 58.8289 87.5952 58.8024 87.5338C58.7758 87.4724 58.7369 87.4171 58.6878 87.3712C58.5341 87.2073 58.3371 87.0892 58.1189 87.0301Z" fill="#2E3052"/>
<path d="M54.5872 92.2248C54.4532 92.2292 54.3206 92.1965 54.2044 92.1303C54.1305 92.0861 54.0686 92.0247 54.0242 91.9516C53.9797 91.8785 53.954 91.7957 53.9492 91.7105C53.9328 90.8015 53.9683 89.8923 54.0555 88.9873C54.0569 88.9647 54.0628 88.9427 54.0729 88.9225C54.0831 88.9022 54.0973 88.8842 54.1147 88.8695C54.132 88.8548 54.1522 88.8437 54.1741 88.8369C54.1959 88.8301 54.2188 88.8277 54.2416 88.8299C54.2647 88.8312 54.2872 88.837 54.308 88.847C54.3288 88.8569 54.3473 88.8709 54.3627 88.8879C54.378 88.905 54.3897 88.9249 54.3972 88.9464C54.4047 88.968 54.4079 88.9908 54.4064 89.0135C54.3235 89.8978 54.288 90.7858 54.3001 91.6738C54.2996 91.7057 54.3072 91.7373 54.322 91.7657C54.3368 91.794 54.3585 91.8184 54.3852 91.8365C54.6218 91.8944 54.8715 91.8703 55.0923 91.7683C55.1353 91.7509 55.1835 91.7511 55.2263 91.7688C55.2692 91.7865 55.3032 91.8203 55.3209 91.8627C55.337 91.9053 55.3361 91.9523 55.3184 91.9943C55.3006 92.0362 55.2672 92.0698 55.2252 92.0883C55.0227 92.1719 54.8065 92.2181 54.5872 92.2248Z" fill="#FC8664"/>
<path d="M52.3555 93.3267C52.4884 93.9878 52.9296 95.2051 54.4183 95.2051C55.9069 95.2051 56.3269 94.0927 56.4704 93.3267H52.3555Z" fill="white"/>
<path d="M54.396 96.2073C54.1051 96.1969 53.8216 96.1139 53.572 95.966C53.5494 95.9559 53.5292 95.9412 53.5127 95.9228C53.4963 95.9044 53.484 95.8828 53.4766 95.8594C53.4693 95.836 53.467 95.8113 53.4701 95.787C53.4731 95.7627 53.4813 95.7393 53.4942 95.7183C53.5071 95.6974 53.5244 95.6793 53.5448 95.6655C53.5653 95.6516 53.5885 95.6421 53.613 95.6378C53.6374 95.6334 53.6625 95.6342 53.6866 95.6401C53.7107 95.6461 53.7332 95.657 53.7528 95.6721C53.9493 95.7838 54.1696 95.8485 54.396 95.861C54.633 95.8511 54.8643 95.7864 55.0712 95.6721C55.0906 95.6599 55.1123 95.6516 55.1351 95.6479C55.1578 95.6442 55.181 95.645 55.2034 95.6504C55.2257 95.6558 55.2468 95.6657 55.2652 95.6793C55.2836 95.693 55.299 95.7102 55.3105 95.7299C55.3229 95.749 55.3312 95.7704 55.335 95.7928C55.3388 95.8153 55.3379 95.8382 55.3325 95.8603C55.327 95.8824 55.3171 95.9031 55.3032 95.9213C55.2894 95.9394 55.272 95.9546 55.252 95.966C54.9914 96.1154 54.6973 96.1984 54.396 96.2073Z" fill="#FC8664"/>
<path d="M61.9498 85.9807C61.9102 86.0638 61.8508 86.1363 61.7768 86.192C61.7028 86.2478 61.6162 86.285 61.5245 86.3008C61.5284 86.7301 61.5071 87.1594 61.4607 87.5863C61.2427 90.0944 60.6048 90.5352 60.4559 89.916C60.3728 88.7355 60.3586 87.5511 60.4134 86.369C60.1012 86.3484 59.7906 86.3099 59.483 86.2535L58.8929 83.8189L58.6855 86.2273C57.803 86.5264 55.7402 86.0436 55.7402 86.0436L55.0491 83.6405L54.6184 85.9492C53.6711 86.3254 52.6285 86.4006 51.6359 86.1643L51.2531 83.672L50.3759 86.1643C50.3759 86.1643 47.5475 87.1665 47.5156 86.1643C47.6635 84.9777 47.9252 83.8076 48.2971 82.6697C48.4842 81.9901 48.808 81.3547 49.2491 80.8012C49.6903 80.2477 50.2398 79.7875 50.865 79.448C52.1729 78.7676 53.6252 78.4019 55.1035 78.381C56.5818 78.36 58.0442 78.6843 59.3713 79.3273C62.0615 80.933 61.9498 85.9807 61.9498 85.9807Z" fill="#2E3052"/>
<path d="M49.0754 80.9381C49.0754 80.9381 46.7468 83.6719 45.9813 88.5569C45.2157 93.442 44.1524 97.0468 47.1349 98.6629C50.362 100.405 50.0802 96.8264 50.0377 95.8557C49.9952 94.885 47.2466 92.2247 49.0754 84.7318C49.6656 82.3076 49.0754 80.9381 49.0754 80.9381Z" fill="#2E3052"/>
<path d="M48.5313 91.0283C48.5313 91.0598 48.5313 91.2592 48.5313 91.553C48.5313 91.7419 48.5312 91.9728 48.5685 92.2352C48.6801 93.8775 49.0044 96.7215 49.9561 97.7079C50.5143 98.1355 51.2006 98.368 51.9072 98.369V97.0783C51.0212 96.6381 50.2828 95.9549 49.7806 95.1106C49.1959 93.9761 48.7958 92.7579 48.595 91.5006L48.5313 91.0283Z" fill="#000B29"/>
<path d="M61.2811 92.6288C61.2818 92.6823 61.2717 92.7354 61.2515 92.785C61.2312 92.8347 61.2012 92.8798 61.1631 92.9179C61.125 92.956 61.0796 92.9862 61.0296 93.0068C60.9796 93.0275 60.9259 93.0381 60.8717 93.0381C60.7617 93.0381 60.6563 92.995 60.5785 92.9182C60.5007 92.8414 60.457 92.7373 60.457 92.6288C60.457 92.5753 60.4678 92.5223 60.4887 92.473C60.5096 92.4236 60.5402 92.3788 60.5788 92.3412C60.6174 92.3036 60.6631 92.274 60.7134 92.254C60.7637 92.234 60.8175 92.2241 60.8717 92.2248C60.9257 92.2241 60.9792 92.234 61.0292 92.2541C61.0792 92.2741 61.1246 92.3039 61.1628 92.3415C61.2009 92.3792 61.2311 92.424 61.2514 92.4734C61.2717 92.5227 61.2818 92.5755 61.2811 92.6288Z" fill="white"/>
<path d="M185.416 44.8694H175.31C174.535 44.8694 173.906 45.4896 173.906 46.2547V56.2295C173.906 56.9945 174.535 57.6147 175.31 57.6147H185.416C186.192 57.6147 186.82 56.9945 186.82 56.2295V46.2547C186.82 45.4896 186.192 44.8694 185.416 44.8694Z" fill="#FF6C37"/>
<path d="M184.761 51.2394C184.762 52.0992 184.505 52.9399 184.021 53.6552C183.538 54.3704 182.851 54.9281 182.046 55.2576C181.242 55.5871 180.356 55.6736 179.502 55.5061C178.647 55.3386 177.862 54.9247 177.246 54.3168C176.63 53.7089 176.211 52.9343 176.041 52.091C175.872 51.2477 175.959 50.3737 176.293 49.5797C176.627 48.7856 177.192 48.1071 177.917 47.6301C178.641 47.1531 179.493 46.899 180.364 46.9001C180.943 46.8959 181.517 47.0053 182.052 47.2219C182.587 47.4384 183.074 47.7579 183.483 48.1617C183.892 48.5655 184.216 49.0455 184.435 49.5739C184.655 50.1023 184.765 50.6684 184.761 51.2394Z" fill="#FF895E"/>
<path d="M183.751 54.0047C183.339 54.4974 182.821 54.894 182.235 55.1663C181.649 55.4386 181.01 55.5798 180.362 55.5798C179.714 55.5798 179.075 55.4386 178.489 55.1663C177.903 54.894 177.385 54.4974 176.973 54.0047L177.031 53.8892C177.127 53.7058 177.256 53.542 177.414 53.4065C177.57 53.2759 177.75 53.1777 177.946 53.1179C178.663 52.9028 179.323 52.6824 179.7 52.0685C179.304 51.8715 178.991 51.5425 178.817 51.1397C178.318 51.2447 177.962 50.3369 178.227 50.0903C178.265 50.0517 178.311 50.0214 178.361 50.0015C178.411 49.9816 178.466 49.9725 178.52 49.9749C178.545 49.5137 178.748 49.0796 179.088 48.7619C179.428 48.4442 179.878 48.2672 180.346 48.2672C180.814 48.2672 181.264 48.4442 181.604 48.7619C181.944 49.0796 182.147 49.5137 182.172 49.9749C182.226 49.9725 182.281 49.9816 182.331 50.0015C182.381 50.0214 182.427 50.0517 182.465 50.0903C182.73 50.3317 182.374 51.2394 181.874 51.1397C181.722 51.5196 181.432 51.83 181.061 52.0108C181.45 52.5907 182.056 52.9946 182.746 53.1336C182.941 53.1935 183.122 53.2916 183.278 53.4222C183.437 53.5563 183.567 53.7204 183.661 53.905L183.751 54.0047Z" fill="white"/>
<path d="M17.6156 112.646H7.50902C6.73386 112.646 6.10547 113.267 6.10547 114.032V124.007C6.10547 124.772 6.73386 125.392 7.50902 125.392H17.6156C18.3908 125.392 19.0192 124.772 19.0192 124.007V114.032C19.0192 113.267 18.3908 112.646 17.6156 112.646Z" fill="#FF6C37"/>
<path d="M12.762 114.793C12.3756 114.767 11.9881 114.819 11.6232 114.947C11.2584 115.075 10.9241 115.276 10.641 115.537C10.3579 115.797 10.132 116.113 9.97744 116.463C9.82284 116.813 9.74278 117.191 9.74221 117.574C9.74029 118.075 9.87824 118.567 10.1409 118.995C10.5131 119.62 10.9012 120.234 11.2521 120.869L12.5812 123.235L14.628 119.599C14.745 119.384 14.8779 119.179 15.0002 118.969C15.2676 118.522 15.4021 118.009 15.3883 117.49C15.3629 116.8 15.081 116.144 14.5966 115.646C14.1122 115.149 13.459 114.845 12.762 114.793ZM12.5706 118.418C12.3335 118.419 12.1015 118.351 11.904 118.222C11.7065 118.092 11.5523 117.908 11.4611 117.692C11.3699 117.476 11.3458 117.238 11.3918 117.009C11.4378 116.779 11.5518 116.568 11.7194 116.403C11.887 116.237 12.1007 116.125 12.3332 116.08C12.5657 116.034 12.8067 116.058 13.0255 116.148C13.2443 116.238 13.431 116.39 13.5621 116.585C13.6931 116.78 13.7625 117.009 13.7615 117.243C13.7615 117.398 13.7303 117.552 13.6698 117.695C13.6093 117.838 13.5206 117.968 13.4089 118.078C13.2972 118.187 13.1646 118.273 13.0189 118.332C12.8732 118.39 12.7172 118.42 12.5599 118.418H12.5706Z" fill="white"/>
<path d="M229.811 61.8124C230.381 61.8124 230.938 61.9792 231.412 62.2917C231.886 62.6042 232.255 63.0483 232.473 63.568C232.691 64.0877 232.749 64.6595 232.637 65.2111C232.526 65.7628 232.252 66.2696 231.849 66.6673C231.446 67.065 230.932 67.3359 230.373 67.4456C229.814 67.5553 229.235 67.499 228.708 67.2838C228.182 67.0685 227.732 66.704 227.415 66.2363C227.099 65.7686 226.93 65.2188 226.93 64.6563C226.931 63.9025 227.235 63.1799 227.775 62.6469C228.315 62.1138 229.047 61.8138 229.811 61.8124ZM229.811 66.6082C230.202 66.6082 230.585 66.4938 230.91 66.2793C231.235 66.0648 231.489 65.76 231.638 65.4033C231.788 65.0466 231.827 64.6542 231.751 64.2755C231.675 63.8969 231.486 63.5491 231.21 63.2761C230.933 63.0031 230.581 62.8172 230.197 62.7419C229.813 62.6666 229.416 62.7052 229.054 62.853C228.693 63.0007 228.384 63.2509 228.167 63.5719C227.949 63.8929 227.833 64.2703 227.833 64.6563C227.835 65.1736 228.044 65.6693 228.414 66.035C228.785 66.4008 229.287 66.6069 229.811 66.6082Z" fill="#008EFF"/>
<path d="M219.436 51.8271C220.007 51.8261 220.566 51.9923 221.041 52.3047C221.517 52.6172 221.888 53.0618 222.107 53.5823C222.326 54.1028 222.384 54.6759 222.274 55.2289C222.163 55.7819 221.888 56.2901 221.485 56.6891C221.081 57.0881 220.567 57.36 220.007 57.4703C219.447 57.5807 218.866 57.5246 218.338 57.3091C217.81 57.0936 217.359 56.7284 217.042 56.2597C216.724 55.7911 216.555 55.24 216.555 54.6763C216.556 53.922 216.86 53.1989 217.4 52.665C217.94 52.1311 218.672 51.8299 219.436 51.8271ZM219.436 56.6282C219.827 56.6282 220.21 56.5137 220.535 56.2992C220.86 56.0848 221.114 55.7799 221.263 55.4232C221.413 55.0666 221.452 54.6741 221.376 54.2955C221.3 53.9168 221.111 53.569 220.835 53.2961C220.558 53.0231 220.206 52.8372 219.822 52.7619C219.438 52.6865 219.041 52.7252 218.679 52.8729C218.318 53.0207 218.009 53.2709 217.792 53.5918C217.574 53.9128 217.458 54.2902 217.458 54.6763C217.46 55.1935 217.669 55.6892 218.039 56.055C218.41 56.4207 218.912 56.6268 219.436 56.6282Z" fill="#FF6C37"/>
<path d="M215.85 42.5817C215.97 42.5817 216.085 42.6287 216.17 42.7123C216.255 42.7959 216.302 42.9094 216.302 43.0277V44.9953C216.302 45.1136 216.255 45.2271 216.17 45.3107C216.085 45.3944 215.97 45.4414 215.85 45.4414C215.73 45.4414 215.616 45.3944 215.531 45.3107C215.446 45.2271 215.398 45.1136 215.398 44.9953V43.0277C215.398 42.9094 215.446 42.7959 215.531 42.7123C215.616 42.6287 215.73 42.5817 215.85 42.5817Z" fill="#008EFF"/>
<path d="M215.85 39.1396C215.97 39.1396 216.085 39.1866 216.17 39.2702C216.255 39.3539 216.302 39.4673 216.302 39.5856V41.5533C216.302 41.6716 216.255 41.785 216.17 41.8686C216.085 41.9523 215.97 41.9993 215.85 41.9993C215.73 41.9993 215.616 41.9523 215.531 41.8686C215.446 41.785 215.398 41.6716 215.398 41.5533V39.5856C215.398 39.4673 215.446 39.3539 215.531 39.2702C215.616 39.1866 215.73 39.1396 215.85 39.1396Z" fill="#008EFF"/>
<path d="M213.077 41.8471H214.869C214.988 41.8471 215.103 41.8941 215.188 41.9777C215.273 42.0614 215.32 42.1748 215.32 42.2931C215.32 42.4114 215.273 42.5248 215.188 42.6085C215.103 42.6921 214.988 42.7391 214.869 42.7391H213.077C212.957 42.7391 212.842 42.6921 212.757 42.6085C212.673 42.5248 212.625 42.4114 212.625 42.2931C212.625 42.1748 212.673 42.0614 212.757 41.9777C212.842 41.8941 212.957 41.8471 213.077 41.8471Z" fill="#008EFF"/>
<path d="M216.882 41.8471H218.673C218.793 41.8471 218.908 41.8941 218.993 41.9777C219.078 42.0614 219.125 42.1748 219.125 42.2931C219.125 42.4114 219.078 42.5248 218.993 42.6085C218.908 42.6921 218.793 42.7391 218.673 42.7391H216.882C216.762 42.7391 216.647 42.6921 216.562 42.6085C216.477 42.5248 216.43 42.4114 216.43 42.2931C216.43 42.1748 216.477 42.0614 216.562 41.9777C216.647 41.8941 216.762 41.8471 216.882 41.8471Z" fill="#008EFF"/>
<path d="M231.8 53.6111C231.919 53.6111 232.034 53.6581 232.119 53.7418C232.204 53.8254 232.251 53.9389 232.251 54.0572V56.0248C232.251 56.1431 232.204 56.2566 232.119 56.3402C232.034 56.4238 231.919 56.4708 231.8 56.4708C231.68 56.4708 231.565 56.4238 231.48 56.3402C231.395 56.2566 231.348 56.1431 231.348 56.0248V54.0572C231.348 53.9389 231.395 53.8254 231.48 53.7418C231.565 53.6581 231.68 53.6111 231.8 53.6111Z" fill="#FF6C37"/>
<path d="M231.8 50.169C231.919 50.169 232.034 50.216 232.119 50.2996C232.204 50.3833 232.251 50.4967 232.251 50.615V52.5827C232.251 52.701 232.204 52.8144 232.119 52.8981C232.034 52.9817 231.919 53.0287 231.8 53.0287C231.68 53.0287 231.565 52.9817 231.48 52.8981C231.395 52.8144 231.348 52.701 231.348 52.5827V50.615C231.348 50.4967 231.395 50.3833 231.48 50.2996C231.565 50.216 231.68 50.169 231.8 50.169Z" fill="#FF6C37"/>
<path d="M228.995 52.8765H230.787C230.906 52.8765 231.021 52.9235 231.106 53.0072C231.191 53.0908 231.238 53.2042 231.238 53.3225C231.238 53.4408 231.191 53.5543 231.106 53.6379C231.021 53.7215 230.906 53.7685 230.787 53.7685H228.995C228.875 53.7685 228.76 53.7215 228.675 53.6379C228.591 53.5543 228.543 53.4408 228.543 53.3225C228.543 53.2042 228.591 53.0908 228.675 53.0072C228.76 52.9235 228.875 52.8765 228.995 52.8765Z" fill="#FF6C37"/>
<path d="M232.8 52.8765H234.591C234.711 52.8765 234.826 52.9235 234.911 53.0072C234.995 53.0908 235.043 53.2042 235.043 53.3225C235.043 53.4408 234.995 53.5543 234.911 53.6379C234.826 53.7215 234.711 53.7685 234.591 53.7685H232.8C232.68 53.7685 232.565 53.7215 232.48 53.6379C232.395 53.5543 232.348 53.4408 232.348 53.3225C232.348 53.2042 232.395 53.0908 232.48 53.0072C232.565 52.9235 232.68 52.8765 232.8 52.8765Z" fill="#FF6C37"/>
<path d="M51.28 25.4813C51.8499 25.4813 52.407 25.6481 52.8808 25.9606C53.3547 26.2731 53.724 26.7173 53.9421 27.2369C54.1602 27.7566 54.2173 28.3284 54.1061 28.8801C53.9949 29.4318 53.7205 29.9385 53.3175 30.3362C52.9145 30.734 52.4011 31.0048 51.8421 31.1146C51.2832 31.2243 50.7038 31.168 50.1772 30.9527C49.6507 30.7375 49.2007 30.373 48.8841 29.9053C48.5674 29.4376 48.3984 28.8877 48.3984 28.3253C48.3998 27.5714 48.7039 26.8489 49.244 26.3158C49.7841 25.7828 50.5162 25.4827 51.28 25.4813ZM51.28 26.3733C50.889 26.3744 50.5072 26.4897 50.1826 26.7048C49.8581 26.92 49.6055 27.2252 49.4566 27.5819C49.3077 27.9387 49.2693 28.331 49.3462 28.7093C49.4231 29.0876 49.6119 29.4349 49.8887 29.7073C50.1655 29.9798 50.5179 30.1652 50.9014 30.2401C51.2849 30.315 51.6823 30.276 52.0433 30.1281C52.4044 29.9802 52.713 29.73 52.9301 29.4092C53.1471 29.0883 53.263 28.7111 53.263 28.3253C53.2616 27.8071 53.052 27.3106 52.6803 26.9447C52.3086 26.5788 51.805 26.3733 51.28 26.3733Z" fill="#008EFF"/>
<path d="M40.7853 16.0785C41.3562 16.0785 41.9144 16.2456 42.3891 16.5587C42.8639 16.8717 43.2339 17.3167 43.4524 17.8373C43.6709 18.358 43.728 18.9308 43.6166 19.4835C43.5053 20.0362 43.2303 20.5439 42.8266 20.9424C42.4228 21.3408 41.9085 21.6122 41.3485 21.7221C40.7885 21.8321 40.208 21.7756 39.6805 21.56C39.153 21.3443 38.7022 20.9791 38.385 20.5106C38.0677 20.0421 37.8984 19.4912 37.8984 18.9277C37.8984 18.172 38.2026 17.4473 38.744 16.913C39.2854 16.3787 40.0196 16.0785 40.7853 16.0785ZM40.7853 16.9757C40.3941 16.9757 40.0117 17.0902 39.6865 17.3047C39.3613 17.5192 39.1078 17.824 38.9581 18.1807C38.8084 18.5374 38.7692 18.9298 38.8456 19.3085C38.9219 19.6871 39.1102 20.0349 39.3868 20.3079C39.6634 20.5809 40.0158 20.7668 40.3994 20.8421C40.7831 20.9174 41.1807 20.8788 41.5421 20.731C41.9035 20.5833 42.2124 20.3331 42.4297 20.0121C42.647 19.6911 42.763 19.3137 42.763 18.9277C42.7616 18.4104 42.5528 17.9147 42.1822 17.549C41.8116 17.1832 41.3094 16.9771 40.7853 16.9757Z" fill="#FF6C37"/>
<path d="M36.9805 32.3446C36.9805 32.4629 37.0281 32.5763 37.1128 32.6599C37.1976 32.7436 37.3125 32.7906 37.4324 32.7906H39.426C39.5459 32.7906 39.6608 32.7436 39.7456 32.6599C39.8303 32.5763 39.8779 32.4629 39.8779 32.3446C39.8779 32.2263 39.8303 32.1128 39.7456 32.0292C39.6608 31.9456 39.5459 31.8986 39.426 31.8986H37.4324C37.3125 31.8986 37.1976 31.9456 37.1128 32.0292C37.0281 32.1128 36.9805 32.2263 36.9805 32.3446Z" fill="#008EFF"/>
<path d="M33.4961 32.3446C33.4961 32.4629 33.5437 32.5763 33.6285 32.6599C33.7132 32.7436 33.8281 32.7906 33.948 32.7906H35.9417C36.0615 32.7906 36.1765 32.7436 36.2612 32.6599C36.346 32.5763 36.3936 32.4629 36.3936 32.3446C36.3936 32.2263 36.346 32.1128 36.2612 32.0292C36.1765 31.9456 36.0615 31.8986 35.9417 31.8986H33.9427C33.8237 31.8999 33.7102 31.9475 33.6266 32.031C33.543 32.1145 33.4961 32.2272 33.4961 32.3446Z" fill="#008EFF"/>
<path d="M36.2344 29.5846V31.3528C36.2344 31.4711 36.282 31.5846 36.3667 31.6682C36.4515 31.7519 36.5664 31.7988 36.6863 31.7988C36.8061 31.7988 36.9211 31.7519 37.0058 31.6682C37.0906 31.5846 37.1382 31.4711 37.1382 31.3528V29.5846C37.1382 29.4663 37.0906 29.3528 37.0058 29.2692C36.9211 29.1855 36.8061 29.1385 36.6863 29.1385C36.5664 29.1385 36.4515 29.1855 36.3667 29.2692C36.282 29.3528 36.2344 29.4663 36.2344 29.5846Z" fill="#008EFF"/>
<path d="M36.2344 33.3415V35.1098C36.2344 35.2281 36.282 35.3415 36.3667 35.4252C36.4515 35.5088 36.5664 35.5558 36.6863 35.5558C36.8061 35.5558 36.9211 35.5088 37.0058 35.4252C37.0906 35.3415 37.1382 35.2281 37.1382 35.1098V33.3415C37.1382 33.2232 37.0906 33.1098 37.0058 33.0261C36.9211 32.9425 36.8061 32.8955 36.6863 32.8955C36.5664 32.8955 36.4515 32.9425 36.3667 33.0261C36.282 33.1098 36.2344 33.2232 36.2344 33.3415Z" fill="#008EFF"/>
<path d="M58.0977 16.9757C58.0977 17.094 58.1453 17.2075 58.23 17.2911C58.3148 17.3747 58.4297 17.4217 58.5496 17.4217H60.5485C60.6684 17.4217 60.7833 17.3747 60.8681 17.2911C60.9528 17.2075 61.0004 17.094 61.0004 16.9757C61.0004 16.8574 60.9528 16.744 60.8681 16.6604C60.7833 16.5767 60.6684 16.5297 60.5485 16.5297H58.5496C58.4297 16.5297 58.3148 16.5767 58.23 16.6604C58.1453 16.744 58.0977 16.8574 58.0977 16.9757Z" fill="#FF6C37"/>
<path d="M54.6094 16.9757C54.6094 17.094 54.657 17.2075 54.7417 17.2911C54.8265 17.3747 54.9414 17.4217 55.0613 17.4217H57.0549C57.1748 17.4217 57.2897 17.3747 57.3745 17.2911C57.4592 17.2075 57.5068 17.094 57.5068 16.9757C57.5068 16.8574 57.4592 16.744 57.3745 16.6604C57.2897 16.5767 57.1748 16.5297 57.0549 16.5297H55.0613C54.9414 16.5297 54.8265 16.5767 54.7417 16.6604C54.657 16.744 54.6094 16.8574 54.6094 16.9757Z" fill="#FF6C37"/>
<path d="M57.3516 14.2105V15.9787C57.3516 16.097 57.3992 16.2105 57.4839 16.2941C57.5687 16.3778 57.6836 16.4248 57.8035 16.4248C57.9233 16.4248 58.0383 16.3778 58.123 16.2941C58.2078 16.2105 58.2554 16.097 58.2554 15.9787V14.2105C58.2554 14.0922 58.2078 13.9787 58.123 13.8951C58.0383 13.8115 57.9233 13.7645 57.8035 13.7645C57.6836 13.7645 57.5687 13.8115 57.4839 13.8951C57.3992 13.9787 57.3516 14.0922 57.3516 14.2105Z" fill="#FF6C37"/>
<path d="M57.3516 17.9674V19.7357C57.3516 19.7943 57.3633 19.8523 57.386 19.9064C57.4087 19.9605 57.442 20.0097 57.4839 20.0511C57.5259 20.0925 57.5757 20.1254 57.6305 20.1478C57.6854 20.1702 57.7441 20.1817 57.8035 20.1817C57.8628 20.1817 57.9216 20.1702 57.9764 20.1478C58.0312 20.1254 58.081 20.0925 58.123 20.0511C58.165 20.0097 58.1983 19.9605 58.221 19.9064C58.2437 19.8523 58.2554 19.7943 58.2554 19.7357V17.9674C58.2554 17.9089 58.2437 17.8509 58.221 17.7967C58.1983 17.7426 58.165 17.6935 58.123 17.6521C58.081 17.6106 58.0312 17.5778 57.9764 17.5554C57.9216 17.533 57.8628 17.5214 57.8035 17.5214C57.7441 17.5214 57.6854 17.533 57.6305 17.5554C57.5757 17.5778 57.5259 17.6106 57.4839 17.6521C57.442 17.6935 57.4087 17.7426 57.386 17.7967C57.3633 17.8509 57.3516 17.9089 57.3516 17.9674Z" fill="#FF6C37"/>
<path d="M178.308 30.7075C178.371 30.7232 178.437 30.7232 178.5 30.7075C179.186 30.5448 179.563 30.4766 179.563 30.4766C179.611 30.4696 179.657 30.4532 179.698 30.4285C179.74 30.4038 179.776 30.3713 179.805 30.3327C179.833 30.2942 179.854 30.2504 179.866 30.204C179.877 30.1575 179.879 30.1093 179.871 30.0621C179.849 29.9681 179.79 29.8863 179.708 29.8336C179.626 29.7809 179.526 29.7613 179.43 29.7787C179.43 29.7787 179.005 29.8522 178.287 30.0253C178.24 30.0346 178.195 30.0532 178.155 30.0802C178.115 30.1071 178.081 30.1417 178.055 30.1819C178.03 30.2222 178.012 30.2672 178.005 30.3142C177.997 30.3613 177.999 30.4094 178.011 30.4556C178.031 30.5211 178.07 30.5795 178.123 30.6241C178.175 30.6687 178.24 30.6976 178.308 30.7075Z" fill="#DCEDF9"/>
<path d="M156.153 46.9053C155.797 47.5087 155.451 48.1279 155.132 48.7575C155.091 48.8323 155.026 48.8915 154.947 48.9257C154.868 48.9599 154.78 48.9672 154.696 48.9464H154.627C154.582 48.9288 154.542 48.9023 154.508 48.8686C154.474 48.8348 154.448 48.7945 154.43 48.7502C154.413 48.7059 154.405 48.6586 154.407 48.6111C154.408 48.5636 154.42 48.517 154.441 48.4742C154.771 47.834 155.116 47.1991 155.504 46.5852C155.558 46.4985 155.643 46.4357 155.742 46.4103C155.841 46.3848 155.947 46.3986 156.036 46.4488C156.111 46.4955 156.165 46.5689 156.187 46.6539C156.209 46.7389 156.197 46.8289 156.153 46.9053Z" fill="#DCEDF9"/>
<path d="M154.241 50.6623C153.964 51.2919 153.709 51.9478 153.459 52.6089C153.426 52.6954 153.361 52.7667 153.278 52.8092C153.194 52.8518 153.098 52.8627 153.007 52.8398H152.975C152.93 52.8267 152.887 52.8046 152.85 52.7748C152.813 52.7451 152.782 52.7084 152.76 52.6668C152.738 52.6252 152.724 52.5796 152.72 52.5327C152.716 52.4858 152.721 52.4386 152.736 52.3938C152.986 51.7222 153.268 51.0505 153.528 50.4051C153.571 50.3163 153.647 50.2469 153.739 50.2108C153.832 50.1748 153.935 50.1748 154.028 50.211C154.072 50.2268 154.112 50.251 154.147 50.2823C154.182 50.3135 154.209 50.3512 154.229 50.3931C154.249 50.435 154.26 50.4804 154.262 50.5265C154.264 50.5727 154.257 50.6188 154.241 50.6623Z" fill="#DCEDF9"/>
<path d="M150.991 61.0096C150.904 60.9918 150.827 60.9427 150.775 60.8719C150.723 60.801 150.699 60.7135 150.709 60.6265C150.805 59.9182 150.922 59.215 151.049 58.5277C151.071 58.4327 151.129 58.3497 151.211 58.296C151.294 58.2422 151.394 58.2218 151.491 58.2391C151.538 58.2455 151.584 58.2612 151.626 58.2854C151.667 58.3095 151.703 58.3416 151.732 58.3797C151.761 58.4178 151.782 58.4612 151.793 58.5074C151.805 58.5535 151.807 58.6014 151.799 58.6484C151.671 59.3252 151.56 60.0179 151.464 60.7105C151.448 60.8064 151.395 60.8923 151.315 60.9494C151.235 61.0064 151.136 61.0299 151.039 61.0148L150.991 61.0096Z" fill="#DCEDF9"/>
<path d="M152.534 54.1621C152.581 54.1725 152.626 54.1921 152.665 54.2199C152.704 54.2477 152.737 54.283 152.762 54.3237C152.787 54.3644 152.803 54.4097 152.809 54.4568C152.816 54.5038 152.813 54.5517 152.8 54.5976C152.71 54.9072 152.62 55.222 152.534 55.5263C152.449 55.8307 152.343 56.2504 152.253 56.6125C152.225 56.7061 152.163 56.786 152.078 56.8357C151.993 56.8854 151.892 56.9013 151.795 56.8801C151.703 56.8599 151.622 56.8046 151.57 56.7261C151.518 56.6476 151.5 56.5521 151.519 56.4603C151.609 56.0878 151.705 55.7205 151.806 55.3532C151.907 54.9859 151.982 54.7235 152.077 54.4035C152.108 54.3118 152.173 54.2352 152.259 54.1894C152.345 54.1435 152.445 54.1319 152.54 54.1568L152.534 54.1621Z" fill="#DCEDF9"/>
<path d="M157.292 45.116C157.247 45.1814 157.182 45.2316 157.107 45.2597C157.032 45.2879 156.95 45.2926 156.872 45.2734C156.835 45.2631 156.799 45.2472 156.766 45.2262C156.724 45.2036 156.687 45.1725 156.658 45.1351C156.629 45.0977 156.608 45.0546 156.596 45.0088C156.585 44.9629 156.583 44.9151 156.591 44.8686C156.599 44.822 156.617 44.7776 156.644 44.7382C157.053 44.1453 157.484 43.5524 157.93 42.9857C157.992 42.9085 158.082 42.8574 158.18 42.8427C158.279 42.8281 158.38 42.8511 158.462 42.907C158.502 42.9327 158.536 42.9662 158.562 43.0055C158.588 43.0448 158.605 43.089 158.613 43.1353C158.621 43.1816 158.62 43.229 158.608 43.2746C158.597 43.3202 158.576 43.363 158.547 43.4002C158.111 43.9564 157.686 44.5283 157.292 45.116Z" fill="#DCEDF9"/>
<path d="M176.357 31.3108C175.66 31.5312 174.958 31.7778 174.262 32.0454C174.184 32.0686 174.101 32.0686 174.023 32.0454C173.965 32.0335 173.912 32.0082 173.867 31.9717C173.821 31.9352 173.785 31.8885 173.762 31.8356C173.743 31.792 173.734 31.7451 173.734 31.6977C173.735 31.6504 173.745 31.6037 173.764 31.5604C173.784 31.5171 173.812 31.4782 173.847 31.4461C173.883 31.4141 173.924 31.3894 173.969 31.3738C174.682 31.101 175.4 30.8491 176.096 30.6235C176.19 30.5923 176.292 30.5978 176.382 30.6388C176.472 30.6797 176.543 30.7531 176.58 30.8438C176.599 30.8887 176.608 30.9371 176.607 30.9859C176.606 31.0346 176.595 31.0826 176.574 31.1266C176.553 31.1707 176.523 31.2099 176.485 31.2417C176.448 31.2734 176.404 31.297 176.357 31.3108Z" fill="#DCEDF9"/>
<path d="M170.22 33.8557C170.132 33.8969 170.033 33.908 169.938 33.8872C169.889 33.8767 169.842 33.8564 169.801 33.8275C169.76 33.7986 169.725 33.7618 169.699 33.7193C169.675 33.6783 169.66 33.6329 169.655 33.5859C169.649 33.5389 169.654 33.4914 169.668 33.4461C169.681 33.4009 169.705 33.359 169.736 33.3229C169.767 33.2869 169.805 33.2575 169.848 33.2365C170.512 32.8955 171.193 32.5649 171.879 32.2606C171.924 32.2361 171.974 32.2208 172.026 32.2158C172.078 32.2107 172.13 32.2159 172.179 32.231C172.229 32.2462 172.275 32.271 172.314 32.304C172.354 32.337 172.387 32.3776 172.41 32.4232C172.431 32.4657 172.443 32.512 172.446 32.5593C172.448 32.6065 172.44 32.6537 172.423 32.6979C172.406 32.7422 172.381 32.7825 172.347 32.8165C172.314 32.8505 172.274 32.8774 172.23 32.8955C171.538 33.1946 170.868 33.5094 170.22 33.8557Z" fill="#DCEDF9"/>
<path d="M162.984 38.7566C162.936 38.798 162.879 38.8273 162.817 38.8419C162.755 38.8566 162.69 38.8561 162.628 38.8405C162.565 38.8263 162.507 38.7954 162.461 38.7513C162.414 38.7073 162.381 38.6515 162.364 38.5901C162.347 38.5287 162.347 38.464 162.365 38.4027C162.382 38.3415 162.416 38.286 162.463 38.2423C162.995 37.7596 163.596 37.2874 164.18 36.8414C164.259 36.7818 164.357 36.7536 164.456 36.7624C164.554 36.7711 164.646 36.8162 164.712 36.8886C164.744 36.9236 164.768 36.9648 164.783 37.0094C164.798 37.0541 164.803 37.1013 164.798 37.1481C164.794 37.195 164.78 37.2403 164.757 37.2815C164.734 37.3226 164.702 37.3585 164.664 37.3871C164.095 37.8016 163.526 38.2633 162.984 38.7566Z" fill="#DCEDF9"/>
<path d="M166.442 36.091C166.395 36.1218 166.343 36.1429 166.288 36.1528C166.233 36.1628 166.177 36.1614 166.123 36.1487C166.038 36.1284 165.963 36.0803 165.91 36.0123C165.88 35.9753 165.859 35.9326 165.847 35.8869C165.835 35.8412 165.833 35.7935 165.841 35.7469C165.849 35.7004 165.867 35.656 165.893 35.6168C165.92 35.5775 165.954 35.5442 165.995 35.5191C166.606 35.1098 167.239 34.7058 167.882 34.3227C167.969 34.2714 168.071 34.2542 168.17 34.2746C168.269 34.2951 168.356 34.3516 168.414 34.4329C168.441 34.4716 168.459 34.5154 168.468 34.5616C168.477 34.6077 168.477 34.6551 168.466 34.701C168.456 34.7468 168.436 34.79 168.407 34.8278C168.379 34.8656 168.343 34.8973 168.302 34.9209C167.664 35.2934 167.042 35.687 166.442 36.091Z" fill="#DCEDF9"/>
<path d="M159.918 41.7579C159.871 41.811 159.81 41.85 159.741 41.8705C159.672 41.8909 159.599 41.8919 159.53 41.8733C159.475 41.8638 159.424 41.8403 159.381 41.8051C159.343 41.777 159.311 41.7413 159.287 41.7004C159.264 41.6595 159.249 41.6142 159.244 41.5673C159.239 41.5205 159.244 41.4732 159.258 41.4283C159.273 41.3834 159.297 41.342 159.328 41.3066C159.812 40.7819 160.322 40.231 160.843 39.7325C160.917 39.669 161.011 39.634 161.109 39.634C161.207 39.634 161.301 39.669 161.375 39.7325C161.41 39.7644 161.437 39.803 161.456 39.8459C161.475 39.8887 161.485 39.935 161.485 39.9817C161.485 40.0285 161.475 40.0747 161.456 40.1176C161.437 40.1605 161.41 40.1991 161.375 40.231C160.891 40.7032 160.391 41.2279 159.918 41.7579Z" fill="#DCEDF9"/>
<path d="M178.689 28.32L177.918 22.4275L198.136 25.2924L178.689 28.32Z" fill="#008EFF"/>
<path d="M198.138 25.2924L179.462 29.8207L179.408 29.8312L178.473 30.8911L178.691 28.32L198.138 25.2924Z" fill="#0077EB"/>
<path d="M178.473 30.8911L180.153 30.8701L179.408 29.8312L178.473 30.8911Z" fill="#0059D3"/>
<path d="M181.756 29.2592L179.406 29.8312L183.229 35.2042L198.136 25.2924L181.756 29.2592Z" fill="#008EFF"/>
</g>
<defs>
<clipPath id="clip0_1208_24320">
<rect width="242.441" height="197.392" fill="white" transform="translate(0 0.179688)"/>
</clipPath>
</defs>
</svg>
