<svg width="191" height="198" viewBox="0 0 191 198" fill="none" xmlns="http://www.w3.org/2000/svg">
<g clip-path="url(#clip0_1208_24156)">
<path d="M174.352 121.471C173.08 122.11 171.712 122.543 170.301 122.755C166.915 123.272 163.456 122.511 160.614 120.623C157.771 118.734 155.755 115.858 154.967 112.567C154.179 109.276 154.676 105.813 156.361 102.868C158.046 99.9239 160.793 97.7145 164.056 96.6811C167.318 95.6476 170.855 95.8661 173.961 97.2929C177.068 98.7197 179.515 101.25 180.814 104.379C182.114 107.508 182.17 111.005 180.973 114.173C179.775 117.341 177.411 119.947 174.352 121.471Z" fill="#EBEBEB"/>
<path d="M172.473 108.303C172.402 109.108 172.09 109.875 171.578 110.506C171.065 111.136 170.374 111.603 169.592 111.846C168.811 112.089 167.974 112.098 167.187 111.871C166.401 111.644 165.7 111.192 165.174 110.572C164.647 109.952 164.319 109.192 164.231 108.388C164.143 107.584 164.298 106.772 164.678 106.056C165.057 105.339 165.643 104.749 166.363 104.362C167.082 103.974 167.901 103.805 168.717 103.877C169.809 103.974 170.818 104.494 171.522 105.324C172.226 106.153 172.568 107.224 172.473 108.303Z" fill="white"/>
<path d="M174.497 119.789L174.351 121.471C173.079 122.11 171.711 122.543 170.3 122.755C168.516 123.031 166.695 122.953 164.943 122.524C163.191 122.095 161.543 121.324 160.098 120.257L160.243 118.58C160.324 117.656 160.588 116.757 161.02 115.933C161.453 115.11 162.046 114.379 162.764 113.782C163.483 113.184 164.314 112.733 165.21 112.453C166.106 112.172 167.049 112.069 167.985 112.148C168.921 112.228 169.832 112.488 170.667 112.915C171.501 113.342 172.241 113.927 172.847 114.637C173.452 115.346 173.909 116.166 174.193 117.051C174.477 117.935 174.582 118.865 174.501 119.789H174.497Z" fill="white"/>
<path d="M167.773 28.6276C175.371 25.4337 178.907 16.7656 175.671 9.26676C172.435 1.76796 163.652 -1.72187 156.054 1.472C148.456 4.66587 144.92 13.334 148.156 20.8328C151.392 28.3316 160.175 31.8214 167.773 28.6276Z" fill="#EBEBEB"/>
<path fill-rule="evenodd" clip-rule="evenodd" d="M159.872 20.9081C159.478 20.6625 159.135 20.3057 158.605 20.3567C158.403 20.3567 158.445 20.2084 158.445 20.1019C158.445 18.1326 158.445 16.1726 158.445 14.2033C158.445 14.0643 158.445 13.9438 158.614 13.865C160.135 13.1098 160.792 11.6177 161.727 10.3481C162.204 9.71536 162.548 8.99424 162.738 8.22768C162.927 7.46111 162.959 6.66476 162.83 5.88597C162.764 5.44578 162.976 5.24654 163.379 5.15386C163.583 5.08656 163.802 5.08486 164.007 5.14901C164.211 5.21316 164.389 5.33982 164.516 5.51065C164.953 6.31377 165.247 7.18529 165.384 8.08693C165.473 8.82831 165.201 9.55579 165.107 10.2925C165.037 10.8347 164.91 11.3675 164.807 11.9143C164.938 12.007 165.093 11.9606 165.239 11.9606H170.285C170.994 11.9606 171.342 12.1599 171.44 12.6232C171.494 12.9094 171.452 13.2051 171.32 13.4652C171.187 13.7254 170.973 13.9358 170.708 14.0643C170.581 14.1245 170.351 14.0643 170.337 14.2635C170.323 14.4628 170.558 14.4396 170.675 14.523C171.281 14.9354 171.168 15.7834 170.464 16.2745C170.295 16.395 169.966 16.3394 169.957 16.585C169.947 16.8305 170.262 16.7796 170.403 16.9139C170.872 17.3773 170.647 18.304 169.933 18.6516C169.833 18.683 169.734 18.7201 169.638 18.7628C169.553 18.8184 169.473 18.8832 169.638 18.9944C170.365 19.5088 170.351 20.2223 169.638 20.7459L169.417 20.8988C169.151 21.0587 168.839 21.1272 168.53 21.0935C165.891 21.0935 163.253 21.0935 160.614 21.0935C160.484 21.1157 160.351 21.1107 160.223 21.0787C160.095 21.0468 159.976 20.9887 159.872 20.9081Z" fill="white"/>
<path fill-rule="evenodd" clip-rule="evenodd" d="M152.373 17.4422C152.373 16.1911 152.373 14.9447 152.373 13.6936C152.373 13.4434 152.396 13.3183 152.711 13.3183C154.256 13.3183 155.795 13.3183 157.34 13.3183C157.645 13.3183 157.692 13.4156 157.687 13.6797C157.687 16.1973 157.687 18.7118 157.687 21.2232C157.687 21.5429 157.598 21.631 157.274 21.6263C155.778 21.6078 154.282 21.6078 152.786 21.6263C152.411 21.6263 152.359 21.5012 152.364 21.163C152.382 19.9444 152.373 18.6933 152.373 17.4422Z" fill="white"/>
<path d="M31.1459 153.665C31.9299 158.61 29.113 163.832 29.113 163.832C29.113 163.832 23.1787 164.703 18.7233 162.312C14.9862 160.343 13.62 156.339 15.498 153.934C18.2304 150.487 23.3759 155.834 23.3759 155.834C23.3759 155.834 20.0097 149.25 24.2257 147.873C27.1693 146.905 30.5215 149.542 31.1459 153.665Z" fill="#EBEBEB"/>
<path d="M41.5029 141.493C39.2588 144.435 35.0194 145.663 35.0194 145.663C35.0194 145.663 31.5076 143.027 30.4935 139.482C29.6485 136.526 31.0616 133.76 33.3104 133.519C36.5546 133.166 36.3433 138.588 36.3433 138.588C36.3433 138.588 38.1273 133.458 41.0381 134.941C43.0663 135.956 43.3715 139.028 41.5029 141.493Z" fill="#EBEBEB"/>
<path d="M95.3092 197.699C136.386 197.699 169.685 193.299 169.685 187.871C169.685 182.443 136.386 178.043 95.3092 178.043C54.2327 178.043 20.9336 182.443 20.9336 187.871C20.9336 193.299 54.2327 197.699 95.3092 197.699Z" fill="#EBEBEB"/>
<path d="M0 179.414L23.8263 179.303L47.6573 179.262L95.3099 179.187L142.967 179.262L166.798 179.303L190.624 179.414L166.798 179.53L142.967 179.572L95.3099 179.646L47.6573 179.572L23.8263 179.53L0 179.414Z" fill="#263238"/>
<path d="M134.985 7.39648H55.6426C54.578 7.40557 53.5257 7.6216 52.5458 8.03222C51.5659 8.44285 50.6776 9.04002 49.9316 9.78962C49.1856 10.5392 48.5966 11.4266 48.1982 12.4009C47.7998 13.3753 47.5998 14.4176 47.6097 15.4682V176.718C47.591 178.839 48.4266 180.881 49.933 182.395C51.4393 183.909 53.493 184.77 55.6426 184.789H134.985C137.136 184.771 139.192 183.91 140.7 182.397C142.208 180.883 143.045 178.84 143.028 176.718V15.4682C143.037 14.417 142.836 13.3742 142.437 12.3995C142.038 11.4248 141.448 10.5373 140.701 9.78772C139.954 9.03812 139.065 8.44111 138.084 8.03081C137.104 7.62052 136.05 7.40497 134.985 7.39648ZM138.004 171.736C138.004 175.981 134.783 179.414 130.812 179.414H59.8116C55.8257 179.414 52.6097 175.981 52.6097 171.736V21.5799C52.6097 12.9336 55.8257 12.512 59.8116 12.512H74.0323C74.8585 12.512 75.5346 13.4387 75.5346 14.5878V15.0836C75.5346 17.7758 77.0276 17.785 78.8632 17.785H111.727C113.605 17.785 115.056 17.785 115.056 15.0836V14.5878C115.056 13.4387 115.722 12.512 116.567 12.512H130.788C134.76 12.512 137.981 13.6611 137.981 21.5799L138.004 171.736Z" fill="#263238"/>
<path d="M99.7914 14.421H90.8196C90.6727 14.421 90.5318 14.3634 90.4279 14.2609C90.324 14.1584 90.2656 14.0193 90.2656 13.8743C90.2656 13.7293 90.324 13.5902 90.4279 13.4877C90.5318 13.3851 90.6727 13.3275 90.8196 13.3275H99.7914C99.9384 13.3275 100.079 13.3851 100.183 13.4877C100.287 13.5902 100.345 13.7293 100.345 13.8743C100.345 14.0193 100.287 14.1584 100.183 14.2609C100.079 14.3634 99.9384 14.421 99.7914 14.421Z" fill="white"/>
<path d="M138.004 21.5799V171.736C138.004 175.981 134.783 179.414 130.811 179.414H59.8113C55.8253 179.414 52.6094 175.981 52.6094 171.736V21.5799C52.6094 12.9336 55.8253 12.512 59.8113 12.512H74.0319C74.8582 12.512 75.5343 13.4387 75.5343 14.5878V15.0836C75.5343 17.7757 77.0272 17.785 78.8629 17.785H111.727C113.605 17.785 115.055 17.785 115.055 15.0836V14.5878C115.055 13.4387 115.722 12.512 116.567 12.512H130.788C134.783 12.5305 138.004 13.6611 138.004 21.5799Z" fill="white"/>
<path d="M138.004 21.5799V32.784H52.5859V21.5799C52.5859 12.9336 55.8254 12.5305 59.8066 12.5305H74.0319C74.8582 12.5305 75.5343 13.4572 75.5343 14.6064V15.1021C75.5343 17.7943 77.0273 17.8035 78.8582 17.8035H111.741C113.591 17.8035 115.074 17.8035 115.074 15.1021V14.5878C115.074 13.4387 115.741 12.512 116.581 12.512H130.802C134.783 12.5305 138.004 13.6611 138.004 21.5799Z" fill="#FF6C37"/>
<path d="M60.7008 27.3164L58.1797 24.981L60.7008 22.6503L61.0952 23.0627L59.0154 24.981L61.0952 26.904L60.7008 27.3164Z" fill="white"/>
<path d="M130.257 27.4785H128.567V26.8947C128.566 26.8687 128.559 26.8433 128.544 26.8212C128.53 26.7992 128.511 26.7814 128.487 26.7696C128.421 26.7372 128.36 26.7001 128.299 26.663C128.277 26.6495 128.251 26.6424 128.224 26.6424C128.198 26.6424 128.172 26.6495 128.149 26.663L127.642 26.9503L126.797 25.5093L127.309 25.2173C127.331 25.2042 127.349 25.185 127.361 25.162C127.372 25.139 127.377 25.1132 127.374 25.0876C127.372 25.0521 127.372 25.0165 127.374 24.981C127.372 24.9455 127.372 24.9099 127.374 24.8745C127.377 24.8489 127.372 24.8231 127.361 24.8001C127.349 24.7771 127.331 24.7579 127.309 24.7447L126.797 24.4528L127.642 23.0118L128.149 23.299C128.172 23.3125 128.198 23.3196 128.224 23.3196C128.251 23.3196 128.277 23.3125 128.299 23.299C128.36 23.262 128.421 23.2249 128.487 23.1925C128.511 23.1807 128.53 23.1629 128.544 23.1408C128.559 23.1188 128.566 23.0934 128.567 23.0674V22.4835H130.257V23.0627C130.258 23.0888 130.265 23.1141 130.279 23.1362C130.293 23.1582 130.313 23.1761 130.337 23.1878L130.525 23.2944C130.547 23.3079 130.573 23.315 130.6 23.315C130.626 23.315 130.652 23.3079 130.675 23.2944L131.182 23.0071L132.022 24.4482L131.515 24.7401C131.492 24.753 131.474 24.7721 131.461 24.795C131.449 24.8179 131.443 24.8439 131.445 24.8698C131.447 24.9053 131.447 24.9409 131.445 24.9764V25.0783C131.44 25.1047 131.444 25.1317 131.456 25.1558C131.468 25.1798 131.487 25.1997 131.51 25.2127L132.018 25.5046L131.177 26.9457L130.665 26.6584C130.644 26.6448 130.618 26.6376 130.593 26.6376C130.567 26.6376 130.542 26.6448 130.52 26.6584L130.332 26.765C130.309 26.7767 130.289 26.7946 130.275 26.8166C130.261 26.8386 130.253 26.864 130.252 26.8901L130.257 27.4785ZM128.919 27.131H129.905V26.8947C129.905 26.8049 129.93 26.7168 129.977 26.64C130.024 26.5632 130.092 26.5007 130.172 26.4591C130.228 26.4344 130.282 26.4049 130.332 26.3711C130.409 26.3213 130.499 26.2947 130.59 26.2947C130.682 26.2947 130.772 26.3213 130.849 26.3711L131.05 26.487L131.543 25.6436L131.337 25.5278C131.254 25.4831 131.188 25.415 131.145 25.3324C131.102 25.2498 131.086 25.1565 131.097 25.0644V24.8884C131.086 24.7959 131.103 24.7022 131.147 24.6195C131.191 24.5368 131.258 24.4691 131.341 24.425L131.543 24.3092L131.05 23.4658L130.849 23.5817C130.772 23.6315 130.682 23.6581 130.59 23.6581C130.499 23.6581 130.409 23.6315 130.332 23.5817C130.283 23.5489 130.231 23.5195 130.177 23.4936C130.095 23.4532 130.026 23.391 129.978 23.3141C129.93 23.2371 129.905 23.1485 129.905 23.0581V22.8264H128.919V23.0581C128.919 23.1485 128.894 23.2371 128.846 23.3141C128.797 23.391 128.729 23.4532 128.647 23.4936C128.592 23.5185 128.541 23.5479 128.492 23.5817C128.415 23.6315 128.325 23.6581 128.233 23.6581C128.142 23.6581 128.052 23.6315 127.975 23.5817L127.773 23.4658L127.304 24.3092L127.506 24.425C127.589 24.4691 127.657 24.5368 127.7 24.6195C127.744 24.7022 127.761 24.7959 127.75 24.8884C127.744 24.9469 127.744 25.0059 127.75 25.0644C127.761 25.1569 127.744 25.2506 127.7 25.3333C127.657 25.416 127.589 25.4837 127.506 25.5278L127.304 25.6436L127.773 26.487L127.975 26.3711C128.052 26.3213 128.142 26.2947 128.233 26.2947C128.325 26.2947 128.415 26.3213 128.492 26.3711C128.541 26.4039 128.593 26.4333 128.647 26.4591C128.729 26.4996 128.797 26.5618 128.846 26.6387C128.894 26.7157 128.919 26.8043 128.919 26.8947V27.131ZM129.412 26.2321C129.16 26.233 128.913 26.16 128.703 26.0224C128.493 25.8848 128.33 25.6887 128.233 25.4591C128.136 25.2294 128.11 24.9766 128.159 24.7326C128.208 24.4885 128.329 24.2644 128.508 24.0885C128.686 23.9126 128.913 23.7929 129.16 23.7446C129.407 23.6963 129.664 23.7216 129.896 23.8172C130.129 23.9128 130.328 24.0745 130.467 24.2817C130.606 24.4889 130.68 24.7323 130.679 24.981C130.678 25.3125 130.544 25.63 130.307 25.8643C130.069 26.0987 129.748 26.2309 129.412 26.2321ZM129.412 24.0728C129.225 24.0682 129.041 24.1187 128.884 24.2176C128.727 24.3166 128.603 24.4597 128.528 24.6286C128.453 24.7975 128.431 24.9845 128.465 25.1657C128.498 25.347 128.586 25.5143 128.716 25.6462C128.846 25.7782 129.014 25.8687 129.196 25.9064C129.379 25.9441 129.569 25.9271 129.742 25.8577C129.915 25.7883 130.063 25.6696 130.167 25.5168C130.272 25.3639 130.327 25.1838 130.327 24.9996C130.327 24.7577 130.232 24.5255 130.061 24.3523C129.89 24.1792 129.657 24.0789 129.412 24.0728Z" fill="white"/>
<path d="M71.5751 15.8852L71.439 16.0196C71.4108 16.0196 71.3873 16.0706 71.3592 16.0984C71.1868 15.9248 70.9807 15.7873 70.7532 15.6942C70.5257 15.601 70.2815 15.5541 70.0352 15.5563C69.7888 15.553 69.5443 15.5994 69.3166 15.6926C69.089 15.7859 68.883 15.9239 68.7113 16.0984L68.6362 16.0196L68.5 15.8852L68.6737 15.737C68.7969 15.6356 68.9326 15.55 69.0775 15.4821C69.2449 15.3987 69.4235 15.3394 69.608 15.306C69.6972 15.306 69.7864 15.3061 69.8756 15.269H70.1103H70.2887C70.4492 15.2898 70.6067 15.3286 70.7582 15.3848C70.8736 15.4263 70.9851 15.4775 71.0916 15.5377C71.2029 15.6007 71.3082 15.6736 71.4061 15.7555L71.5516 15.8852H71.5751Z" fill="white"/>
<path d="M69.1417 16.5247C69.0713 16.4506 69.0009 16.3811 68.9258 16.3116C69.0706 16.1677 69.2429 16.0535 69.4327 15.9756C69.6224 15.8977 69.8259 15.8575 70.0314 15.8575C70.2369 15.8575 70.4404 15.8977 70.6302 15.9756C70.8199 16.0535 70.9922 16.1677 71.1371 16.3116L70.9211 16.5247C70.6851 16.2918 70.3651 16.161 70.0314 16.161C69.6977 16.161 69.3777 16.2918 69.1417 16.5247Z" fill="white"/>
<path d="M70.7068 16.7378L70.4909 16.951C70.4304 16.889 70.3573 16.8404 70.2763 16.8085C70.1954 16.7765 70.1085 16.7619 70.0214 16.7656C69.9344 16.7631 69.8479 16.7782 69.7671 16.8101C69.6863 16.842 69.6131 16.8899 69.5519 16.951L69.3359 16.7378C69.4238 16.6452 69.5299 16.5714 69.6478 16.521C69.7657 16.4705 69.8929 16.4445 70.0214 16.4445C70.1499 16.4445 70.277 16.4705 70.3949 16.521C70.5129 16.5714 70.619 16.6452 70.7068 16.7378Z" fill="white"/>
<path d="M70.2286 17.1642C70.2286 17.2145 70.2083 17.2629 70.1722 17.2985C70.1361 17.3341 70.0872 17.3541 70.0361 17.3541C70.008 17.3585 69.9793 17.3567 69.9519 17.349C69.9245 17.3414 69.8991 17.3279 69.8775 17.3097C69.8559 17.2914 69.8386 17.2687 69.8267 17.2432C69.8148 17.2177 69.8086 17.1899 69.8086 17.1618C69.8086 17.1337 69.8148 17.106 69.8267 17.0805C69.8386 17.055 69.8559 17.0323 69.8775 17.014C69.8991 16.9957 69.9245 16.9823 69.9519 16.9746C69.9793 16.967 70.008 16.9652 70.0361 16.9695C70.0618 16.9695 70.0872 16.9746 70.1109 16.9844C70.1345 16.9943 70.156 17.0087 70.1739 17.0268C70.1918 17.0449 70.2059 17.0664 70.2153 17.09C70.2247 17.1136 70.2292 17.1388 70.2286 17.1642Z" fill="white"/>
<path d="M58.1719 16.293C58.1719 16.1821 58.2052 16.0737 58.2676 15.9815C58.33 15.8893 58.4188 15.8175 58.5226 15.775C58.6264 15.7326 58.7406 15.7215 58.8508 15.7431C58.961 15.7648 59.0622 15.8182 59.1416 15.8966C59.2211 15.975 59.2752 16.0749 59.2971 16.1836C59.319 16.2924 59.3078 16.4051 59.2648 16.5076C59.2218 16.61 59.149 16.6976 59.0556 16.7592C58.9621 16.8208 58.8523 16.8537 58.74 16.8537C58.5893 16.8537 58.4448 16.7946 58.3383 16.6895C58.2317 16.5843 58.1719 16.4417 58.1719 16.293Z" fill="white"/>
<path d="M59.957 16.293C59.957 16.1821 59.9903 16.0737 60.0528 15.9815C60.1152 15.8893 60.2039 15.8175 60.3077 15.775C60.4115 15.7326 60.5257 15.7215 60.6359 15.7431C60.7461 15.7648 60.8473 15.8182 60.9268 15.8966C61.0062 15.975 61.0604 16.0749 61.0823 16.1836C61.1042 16.2924 61.0929 16.4051 61.0499 16.5076C61.0069 16.61 60.9341 16.6976 60.8407 16.7592C60.7473 16.8208 60.6375 16.8537 60.5251 16.8537C60.4505 16.8537 60.3766 16.8392 60.3077 16.811C60.2388 16.7828 60.1762 16.7415 60.1234 16.6895C60.0707 16.6374 60.0288 16.5756 60.0003 16.5076C59.9717 16.4396 59.957 16.3667 59.957 16.293Z" fill="white"/>
<path d="M61.7422 16.293C61.7422 16.1819 61.7756 16.0733 61.8383 15.981C61.9009 15.8887 61.9899 15.8169 62.094 15.7746C62.1981 15.7323 62.3125 15.7215 62.4228 15.7435C62.5332 15.7655 62.6344 15.8193 62.7136 15.8982C62.7929 15.9771 62.8466 16.0774 62.868 16.1865C62.8894 16.2956 62.8775 16.4084 62.8338 16.5108C62.79 16.6132 62.7165 16.7004 62.6225 16.7614C62.5284 16.8225 62.4181 16.8546 62.3056 16.8537C62.2312 16.8537 62.1576 16.8391 62.0889 16.8109C62.0202 16.7827 61.9579 16.7413 61.9055 16.6892C61.8532 16.6371 61.8118 16.5752 61.7837 16.5072C61.7557 16.4392 61.7416 16.3664 61.7422 16.293Z" fill="white"/>
<path d="M63.5235 16.293C63.5235 16.1819 63.5569 16.0733 63.6195 15.981C63.6822 15.8887 63.7712 15.8169 63.8752 15.7746C63.9793 15.7323 64.0938 15.7215 64.2041 15.7435C64.3144 15.7655 64.4156 15.8193 64.4949 15.8982C64.5741 15.9771 64.6279 16.0774 64.6493 16.1865C64.6706 16.2956 64.6587 16.4084 64.615 16.5108C64.5713 16.6132 64.4977 16.7004 64.4037 16.7614C64.3097 16.8225 64.1994 16.8546 64.0868 16.8537C64.0125 16.8537 63.9388 16.8391 63.8701 16.8109C63.8015 16.7827 63.7392 16.7413 63.6868 16.6892C63.6344 16.6371 63.593 16.5752 63.565 16.5072C63.537 16.4392 63.5228 16.3664 63.5235 16.293Z" fill="white"/>
<path d="M65.3047 16.293C65.3047 16.1821 65.338 16.0737 65.4004 15.9815C65.4628 15.8893 65.5516 15.8175 65.6554 15.775C65.7592 15.7326 65.8734 15.7215 65.9836 15.7431C66.0938 15.7648 66.195 15.8182 66.2745 15.8966C66.3539 15.975 66.408 16.0749 66.4299 16.1836C66.4518 16.2924 66.4406 16.4051 66.3976 16.5076C66.3546 16.61 66.2818 16.6976 66.1884 16.7592C66.095 16.8208 65.9851 16.8537 65.8728 16.8537C65.7221 16.8537 65.5776 16.7946 65.4711 16.6895C65.3645 16.5843 65.3047 16.4417 65.3047 16.293Z" fill="white"/>
<path d="M131.599 17.5116H126.988V15.408H131.599V17.5116ZM127.223 17.2799H131.364V15.6396H127.232L127.223 17.2799Z" fill="white"/>
<path d="M130.347 15.7648H127.375V17.1549H130.347V15.7648Z" fill="white"/>
<path d="M132.014 15.8992H131.605V17.0251H132.014V15.8992Z" fill="white"/>
<path d="M65.5881 170.235H64.9355V173.178H63.7242V171.681H61.5787V173.178H60.3627V170.235H59.7148L62.6491 167.242L65.5881 170.235Z" fill="#EBEBEB"/>
<path d="M130.912 167.242H123.832V168.238H130.912V167.242Z" fill="#EBEBEB"/>
<path d="M130.912 169.712H123.832V170.708H130.912V169.712Z" fill="#EBEBEB"/>
<path d="M130.912 172.181H123.832V173.178H130.912V172.181Z" fill="#EBEBEB"/>
<path d="M65.4441 47.5235C65.0196 47.7851 64.5551 47.9775 64.0685 48.0934C62.9016 48.376 61.6696 48.2139 60.6184 47.6395C59.5672 47.0652 58.774 46.1208 58.3972 44.9947C58.0203 43.8687 58.0875 42.6438 58.5853 41.5645C59.0831 40.4851 59.9749 39.6307 61.0828 39.1717C62.1907 38.7127 63.4332 38.6828 64.5624 39.088C65.6916 39.4932 66.6245 40.3038 67.175 41.3579C67.7255 42.412 67.853 43.6322 67.5322 44.775C67.2114 45.9178 66.4658 46.8993 65.4441 47.5235Z" fill="#DBDBDB"/>
<path d="M64.3897 42.9872C64.3897 43.2704 64.3046 43.5472 64.1452 43.7827C63.9858 44.0181 63.7592 44.2016 63.4941 44.31C63.2291 44.4184 62.9374 44.4467 62.656 44.3915C62.3746 44.3362 62.1161 44.1999 61.9132 43.9996C61.7103 43.7994 61.5721 43.5443 61.5162 43.2665C61.4602 42.9888 61.4889 42.7009 61.5987 42.4393C61.7085 42.1777 61.8944 41.954 62.133 41.7967C62.3716 41.6394 62.6521 41.5554 62.939 41.5554C63.3237 41.5554 63.6927 41.7063 63.9648 41.9748C64.2368 42.2433 64.3897 42.6075 64.3897 42.9872Z" fill="white"/>
<path d="M65.4453 46.935V47.5235C65.0208 47.7851 64.5563 47.9776 64.0697 48.0934C63.4561 48.2419 62.8186 48.268 62.1946 48.1701C61.5706 48.0723 60.9727 47.8524 60.4359 47.5235V46.935C60.4213 46.6014 60.4752 46.2683 60.5945 45.9558C60.7138 45.6433 60.8959 45.3578 61.1299 45.1166C61.364 44.8754 61.645 44.6835 61.9562 44.5524C62.2674 44.4212 62.6023 44.3536 62.9406 44.3536C63.279 44.3536 63.6139 44.4212 63.925 44.5524C64.2362 44.6835 64.5173 44.8754 64.7513 45.1166C64.9854 45.3578 65.1675 45.6433 65.2868 45.9558C65.406 46.2683 65.46 46.6014 65.4453 46.935Z" fill="white"/>
<path d="M103.966 39.095H73.6797V41.56H103.966V39.095Z" fill="#EBEBEB"/>
<path d="M100.116 43.205H73.6797V44.836H100.116V43.205Z" fill="#EBEBEB"/>
<path d="M117.393 46.3466H73.6797V47.9776H117.393V46.3466Z" fill="#EBEBEB"/>
<path d="M52.6033 111.138L137.988 111.138V52.1247L52.6033 52.1247L52.6033 111.138Z" fill="#EBEBEB"/>
<path d="M62.5859 68.8983C62.5859 70.2794 63.0009 71.6294 63.7783 72.7778C64.5557 73.9261 65.6607 74.8211 66.9535 75.3496C68.2463 75.8781 69.6689 76.0164 71.0413 75.747C72.4138 75.4775 73.6744 74.8125 74.6639 73.8359C75.6534 72.8594 76.3272 71.6151 76.6002 70.2606C76.8732 68.9061 76.7331 67.502 76.1976 66.2261C75.6621 64.9501 74.7553 63.8596 73.5918 63.0923C72.4283 62.325 71.0604 61.9155 69.6611 61.9155C67.7846 61.9155 65.985 62.6512 64.6582 63.9607C63.3313 65.2702 62.5859 67.0463 62.5859 68.8983Z" fill="#DBDBDB"/>
<path d="M90.5234 98.2985H138.002L114.261 66.5398L90.5234 98.2985Z" fill="#C7C7C7"/>
<path d="M71.9102 98.4514H111.112L91.5111 77.7717L71.9102 98.4514Z" fill="#DBDBDB"/>
<path d="M137.994 98.4236H52.6094V111.138H137.994V98.4236Z" fill="#DBDBDB"/>
<path d="M65.4459 142.271C65.0201 142.53 64.556 142.72 64.0704 142.837C63.1556 143.056 62.1957 143.002 61.3118 142.683C60.4279 142.364 59.6598 141.793 59.1044 141.043C58.5491 140.293 58.2315 139.397 58.1917 138.469C58.152 137.541 58.3919 136.622 58.8812 135.828C59.3705 135.035 60.0871 134.402 60.9406 134.01C61.794 133.619 62.746 133.485 63.6762 133.627C64.6063 133.77 65.4729 134.181 66.1665 134.809C66.86 135.437 67.3494 136.253 67.5727 137.156C67.8095 138.121 67.7313 139.135 67.3494 140.054C66.9675 140.973 66.3013 141.749 65.4459 142.271Z" fill="#DBDBDB"/>
<path d="M64.3897 137.717C64.3897 138 64.3046 138.277 64.1452 138.512C63.9858 138.747 63.7592 138.931 63.4941 139.039C63.2291 139.148 62.9374 139.176 62.656 139.121C62.3746 139.066 62.1161 138.929 61.9132 138.729C61.7103 138.529 61.5721 138.274 61.5162 137.996C61.4602 137.718 61.4889 137.43 61.5987 137.169C61.7085 136.907 61.8944 136.683 62.133 136.526C62.3716 136.369 62.6521 136.285 62.939 136.285C63.3237 136.285 63.6927 136.436 63.9648 136.704C64.2368 136.973 64.3897 137.337 64.3897 137.717Z" fill="white"/>
<path d="M65.4453 141.664V142.271C65.0195 142.53 64.5554 142.72 64.0697 142.837C63.4562 142.986 62.8185 143.013 62.1944 142.915C61.5702 142.817 60.9723 142.597 60.4359 142.267V141.678C60.4213 141.345 60.4752 141.012 60.5945 140.699C60.7138 140.387 60.8959 140.101 61.1299 139.86C61.364 139.619 61.645 139.427 61.9562 139.296C62.2674 139.165 62.6023 139.097 62.9406 139.097C63.279 139.097 63.6139 139.165 63.925 139.296C64.2362 139.427 64.5173 139.619 64.7513 139.86C64.9854 140.101 65.1675 140.387 65.2868 140.699C65.406 141.012 65.46 141.345 65.4453 141.678V141.664Z" fill="white"/>
<path d="M112.633 133.824H73.6797V136.289H112.633V133.824Z" fill="#EBEBEB"/>
<path d="M123.403 137.934H73.6797V139.565H123.403V137.934Z" fill="#EBEBEB"/>
<path d="M90.6187 141.076H73.6797V142.707H90.6187V141.076Z" fill="#EBEBEB"/>
<path d="M137.994 146.854H52.6094V161.269H137.994V146.854Z" fill="#EBEBEB"/>
<path d="M76.3185 161.269H63.0039C63.497 159.917 64.401 158.747 65.5924 157.921C66.7839 157.094 68.2048 156.651 69.6612 156.651C71.1176 156.651 72.5385 157.094 73.7299 157.921C74.9214 158.747 75.8254 159.917 76.3185 161.269Z" fill="#DBDBDB"/>
<path d="M61.0919 120.183C62.6528 120.183 63.9182 118.934 63.9182 117.394C63.9182 115.853 62.6528 114.604 61.0919 114.604C59.531 114.604 58.2656 115.853 58.2656 117.394C58.2656 118.934 59.531 120.183 61.0919 120.183Z" fill="#EBEBEB"/>
<path fill-rule="evenodd" clip-rule="evenodd" d="M60.7021 118.501C60.627 118.455 60.5613 118.385 60.4627 118.394C60.3641 118.404 60.4345 118.371 60.4345 118.348C60.4345 117.977 60.4345 117.607 60.4345 117.236C60.4321 117.223 60.434 117.21 60.44 117.198C60.4459 117.186 60.4555 117.177 60.4674 117.171C60.7538 117.028 60.8805 116.745 61.0589 116.504C61.1486 116.384 61.2131 116.248 61.2486 116.103C61.2841 115.958 61.2898 115.808 61.2655 115.661C61.2655 115.577 61.2937 115.54 61.3688 115.522C61.4076 115.509 61.4494 115.509 61.4883 115.522C61.5271 115.534 61.5609 115.558 61.5848 115.591C61.6673 115.743 61.7229 115.907 61.7491 116.078C61.7458 116.218 61.7285 116.358 61.6974 116.495C61.6974 116.597 61.6599 116.699 61.6411 116.8C61.6646 116.8 61.6927 116.8 61.7209 116.8H62.6599C62.796 116.8 62.8618 116.838 62.8805 116.926C62.8911 116.98 62.883 117.037 62.8575 117.086C62.832 117.136 62.7906 117.175 62.7397 117.199C62.7162 117.199 62.674 117.199 62.6693 117.236C62.6646 117.273 62.7115 117.268 62.735 117.287C62.8477 117.361 62.8289 117.523 62.6927 117.616C62.6646 117.639 62.5988 117.616 62.5988 117.676C62.5988 117.736 62.6552 117.713 62.6833 117.736C62.7039 117.763 62.7179 117.793 62.7242 117.826C62.7306 117.859 62.7292 117.892 62.72 117.924C62.7109 117.956 62.6944 117.986 62.6717 118.01C62.649 118.035 62.6209 118.054 62.5895 118.065C62.5699 118.071 62.551 118.079 62.5331 118.089C62.5331 118.089 62.5049 118.089 62.5331 118.13C62.5649 118.146 62.5916 118.169 62.6104 118.199C62.6291 118.228 62.6391 118.262 62.6391 118.297C62.6391 118.332 62.6291 118.366 62.6104 118.396C62.5916 118.425 62.5649 118.449 62.5331 118.464L62.4956 118.492C62.4448 118.522 62.3855 118.535 62.3265 118.529H60.8289C60.7846 118.535 60.7397 118.525 60.7021 118.501Z" fill="white"/>
<path fill-rule="evenodd" clip-rule="evenodd" d="M59.2852 117.848V117.139C59.2852 117.088 59.2852 117.065 59.3509 117.065H60.2241C60.2805 117.065 60.2899 117.065 60.2899 117.134V118.561C60.2899 118.622 60.2898 118.64 60.2147 118.635H59.365C59.2945 118.635 59.2852 118.612 59.2852 118.547C59.2899 118.316 59.2852 118.084 59.2852 117.848Z" fill="white"/>
<path d="M64.2812 118.052C64.1512 117.518 64.1841 116.958 64.3759 116.443C64.5678 115.927 64.9099 115.48 65.3591 115.156C65.8084 114.832 66.3447 114.647 66.9004 114.624C67.4562 114.6 68.0065 114.74 68.4819 115.025C68.9574 115.31 69.3368 115.727 69.5722 116.225C69.8076 116.722 69.8886 117.277 69.8048 117.82C69.7211 118.363 69.4764 118.869 69.1017 119.274C68.727 119.68 68.2389 119.967 67.6991 120.1C67.3383 120.188 66.9635 120.205 66.596 120.15C66.2286 120.095 65.8758 119.968 65.5581 119.778C65.2404 119.588 64.964 119.337 64.7449 119.041C64.5257 118.744 64.3681 118.408 64.2812 118.052Z" fill="#FF6C37"/>
<path d="M68.4701 117.741C68.1265 118.316 67.6274 118.784 67.0288 119.094C66.4283 118.785 65.9274 118.316 65.5828 117.741C65.2307 117.032 65.456 116.263 66.0147 116.096C66.8222 115.855 67.0288 117.241 67.0288 117.241C67.0288 117.241 67.2354 115.851 68.0382 116.096C68.6016 116.263 68.8269 117.032 68.4701 117.741Z" fill="white"/>
<path d="M114.266 117.028H74.1484V118.64H114.266V117.028Z" fill="#EBEBEB"/>
<path d="M52.6094 126.642L63.2807 126.559L73.9568 126.531L95.3042 126.471L116.647 126.531L127.323 126.559L137.994 126.642L127.323 126.73L116.647 126.758L95.3042 126.818L73.9568 126.758L63.2807 126.73L52.6094 126.642Z" fill="#EBEBEB"/>
<path d="M35.9816 97.5105L7.17578 105.091L14.8566 133.521L43.6623 125.941L35.9816 97.5105Z" fill="#407BFF"/>
<path d="M23.554 119.228L19.6948 120.243C19.2911 118.756 18.9108 117.352 18.5117 115.869L22.3005 114.873C22.2253 114.535 22.1784 114.271 22.1127 114.011C21.8263 112.853 21.4695 111.694 21.2676 110.54C20.831 107.964 21.9108 105.782 24.338 104.776C25.8497 104.146 27.5211 103.896 29.1596 103.465C29.5305 104.823 29.8638 106.06 30.2394 107.445C29.6526 107.598 29.0657 107.742 28.4882 107.909C27.964 108.031 27.453 108.203 26.9624 108.423C26.6382 108.561 26.3743 108.808 26.2177 109.121C26.0612 109.433 26.0223 109.79 26.108 110.128C26.3615 111.259 26.6995 112.371 27.0469 113.585L31.4507 112.422C31.6479 113.904 31.8497 115.276 32 116.652C32 116.787 31.723 117.037 31.5305 117.116C30.4742 117.426 29.4084 117.69 28.2441 117.991C29.2582 121.758 30.2582 125.461 31.277 129.223L26.5821 130.456C25.5821 126.721 24.5774 123.019 23.554 119.228Z" fill="white"/>
<path d="M178.246 131.164L148.5 128.254L145.552 157.613L175.298 160.522L178.246 131.164Z" fill="#FF6C37"/>
<path d="M173.448 139.491C173.73 136.554 172.04 134.468 169.11 134.153C165.042 133.712 160.957 133.312 156.857 132.953C153.965 132.703 151.904 134.408 151.575 137.249C151.345 139.26 151.167 141.275 150.965 143.272C150.763 145.269 150.556 147.211 150.373 149.18C150.096 152.187 151.782 154.277 154.772 154.615C158.81 155.051 162.851 155.446 166.894 155.802C169.852 156.056 171.941 154.323 172.247 151.423C172.669 147.447 173.07 143.47 173.448 139.491ZM170.289 151.279C170.082 153.133 168.965 154.059 167.082 153.892C163.038 153.522 158.998 153.126 154.96 152.706C153.082 152.512 152.143 151.386 152.322 149.537C152.707 145.521 153.11 141.498 153.533 137.466C153.725 135.613 154.876 134.686 156.744 134.839C160.788 135.207 164.829 135.601 168.866 136.021C170.744 136.22 171.683 137.374 171.5 139.213C171.322 141.224 171.106 143.235 170.904 145.237C170.702 147.239 170.514 149.259 170.289 151.27V151.279Z" fill="white"/>
<path d="M162.491 138.713C161.363 138.597 160.226 138.814 159.222 139.335C158.219 139.857 157.394 140.66 156.852 141.643C156.309 142.626 156.074 143.745 156.175 144.86C156.276 145.975 156.709 147.035 157.42 147.907C158.13 148.78 159.087 149.425 160.168 149.762C161.249 150.099 162.408 150.113 163.497 149.802C164.586 149.491 165.558 148.868 166.29 148.013C167.021 147.158 167.48 146.108 167.608 144.996C167.695 144.251 167.631 143.497 167.42 142.776C167.209 142.056 166.855 141.384 166.379 140.8C165.903 140.215 165.314 139.73 164.647 139.372C163.98 139.013 163.247 138.789 162.491 138.713ZM161.472 148.105C160.487 147.98 159.589 147.487 158.961 146.727C158.333 145.968 158.024 145 158.097 144.023C158.146 143.528 158.294 143.048 158.532 142.61C158.77 142.171 159.092 141.784 159.482 141.468C159.871 141.153 160.32 140.917 160.802 140.773C161.284 140.629 161.79 140.58 162.291 140.629C162.793 140.678 163.279 140.824 163.723 141.058C164.167 141.293 164.56 141.611 164.88 141.996C165.199 142.38 165.439 142.823 165.585 143.299C165.731 143.775 165.78 144.274 165.73 144.769C165.606 145.765 165.089 146.673 164.293 147.297C163.496 147.921 162.483 148.211 161.472 148.105Z" fill="white"/>
<path d="M169.922 139.301C169.906 139.471 169.853 139.635 169.767 139.783C169.681 139.931 169.563 140.059 169.422 140.157C169.281 140.256 169.12 140.323 168.951 140.354C168.781 140.386 168.606 140.381 168.438 140.339C168.255 140.331 168.076 140.282 167.915 140.196C167.754 140.109 167.615 139.988 167.509 139.84C167.403 139.693 167.332 139.523 167.302 139.345C167.271 139.166 167.283 138.984 167.335 138.81C167.476 138.027 168.035 137.712 168.838 137.744C169.636 137.958 170.068 138.463 169.922 139.301Z" fill="white"/>
<path d="M174.283 67.0356L153.34 59.6793L145.886 80.3494L166.83 87.7057L174.283 67.0356Z" fill="#407BFF"/>
<path d="M150.27 76.0109C151.913 76.6725 153.739 76.7495 155.434 76.2287C153.716 74.9776 153.157 74.125 153.265 72.9481L154.579 73.3373C153.27 72.2299 152.739 70.9093 153.213 69.2227L154.42 70.0336C153.65 67.8141 153.852 66.373 155.133 65.4C155.622 66.6903 156.375 67.8677 157.344 68.8593C158.313 69.8508 159.478 70.6353 160.767 71.1642C160.833 70.9464 160.875 70.7796 160.927 70.6174C161.094 69.9558 161.466 69.3618 161.99 68.917C162.513 68.4723 163.164 68.1986 163.852 68.1338C164.538 68.0315 165.24 68.1403 165.861 68.4454C166.483 68.7505 166.994 69.237 167.326 69.8389C167.384 69.966 167.48 70.0728 167.6 70.1456C167.721 70.2183 167.861 70.2535 168.002 70.2467C168.593 70.2467 169.18 70.2467 169.824 70.2467C169.349 70.8171 168.703 71.2229 167.978 71.4051C167.981 71.4406 167.981 71.4762 167.978 71.5117L169.72 71.6646L169.762 71.7526C169.204 72.0167 168.65 72.304 168.077 72.5357C167.938 72.5796 167.812 72.6548 167.707 72.7553C167.603 72.8558 167.524 72.9789 167.476 73.1149C166.658 75.4321 164.988 77.3613 162.797 78.52C160.605 79.6787 158.053 79.9822 155.645 79.3703C153.655 78.8899 151.862 77.8213 150.504 76.3075C150.429 76.2009 150.349 76.099 150.27 76.0109Z" fill="white"/>
<path d="M163.968 24.8812L145.641 30.9124L151.752 49.0006L170.079 42.9694L163.968 24.8812Z" fill="#FF6C37"/>
<path d="M153.289 45.8925C153.228 44.7572 153.162 43.7054 153.129 42.6489C153.129 42.493 153.095 42.3388 153.032 42.1961C152.968 42.0534 152.875 41.9252 152.759 41.8195C152.018 41.0531 151.462 40.1319 151.132 39.1244C150.802 38.1169 150.706 37.0489 150.851 35.9997C150.996 34.9505 151.379 33.947 151.97 33.0637C152.562 32.1804 153.348 31.44 154.269 30.8974C155.191 30.3548 156.224 30.0239 157.293 29.9294C158.361 29.8348 159.438 29.979 160.442 30.3511C161.447 30.7233 162.353 31.314 163.095 32.0793C163.836 32.8446 164.394 33.7648 164.726 34.7718C165.217 36.4609 165.058 38.2698 164.277 39.8495C163.497 41.4291 162.151 42.6675 160.5 43.3255C159.364 43.758 158.139 43.9169 156.928 43.7888C156.695 43.775 156.464 43.8316 156.266 43.951C155.284 44.5858 154.331 45.2067 153.289 45.8925ZM154.402 43.7749C155.012 43.3857 155.524 43.0382 156.059 42.7277C156.25 42.6257 156.468 42.5837 156.683 42.6072C157.674 42.7748 158.691 42.7081 159.651 42.4126C163.162 41.3237 164.89 37.1998 163.092 34.0721C162.576 33.046 161.747 32.2046 160.723 31.6655C159.699 31.1264 158.529 30.9164 157.378 31.0649C156.189 31.1265 155.051 31.5564 154.123 32.2934C153.196 33.0304 152.528 34.0371 152.214 35.1703C151.444 37.5474 152.101 39.6139 153.96 41.3145C154.13 41.4833 154.238 41.7036 154.266 41.94C154.355 42.5192 154.364 43.1123 154.402 43.7564V43.7749Z" fill="white"/>
<path d="M153.993 35.1564C154.247 34.3919 154.909 34.3085 155.458 34.8784C155.674 35.1008 155.735 35.1796 155.961 35.4437C156.119 35.5792 156.224 35.7663 156.255 35.9712C156.286 36.176 156.241 36.3851 156.13 36.5604C155.956 36.8523 156.045 37.0238 156.294 37.223C157.053 37.8113 157.967 38.1716 158.928 38.2609C158.988 38.2768 159.052 38.2805 159.114 38.2718C159.176 38.263 159.236 38.2421 159.29 38.2101C159.344 38.1781 159.391 38.1358 159.428 38.0856C159.465 38.0355 159.491 37.9785 159.505 37.9181C159.862 37.0238 159.876 37.0284 160.848 37.1396L161.181 37.1813C161.337 37.1776 161.491 37.2172 161.625 37.2957C161.759 37.3742 161.868 37.4884 161.94 37.6252C162.011 37.762 162.042 37.9159 162.03 38.0693C162.017 38.2227 161.96 38.3694 161.867 38.4926C161.703 38.8117 161.454 39.0808 161.148 39.271C160.841 39.4612 160.487 39.5654 160.125 39.5723C158.241 39.6793 156.388 39.0577 154.961 37.8393C154.482 37.5102 154.122 37.0397 153.932 36.4955C153.823 36.0526 153.844 35.5879 153.993 35.1564Z" fill="white"/>
<mask id="mask0_1208_24156" style="mask-type:luminance" maskUnits="userSpaceOnUse" x="5" y="12" width="146" height="168">
<path d="M150.24 135.289C150.268 138.208 149.456 143.393 147.808 144.44C146.828 145.013 145.673 145.223 144.55 145.033C144.55 145.033 142.963 147.54 141.226 147.466C140.144 147.377 139.114 146.971 138.268 146.298C138.268 146.298 138.184 146.483 138.029 146.761V171.746C138.054 173.244 137.635 174.718 136.824 175.985C136.012 177.252 134.844 178.257 133.461 178.877C132.625 179.232 131.724 179.415 130.813 179.414H59.8083C55.8271 179.414 52.6064 175.981 52.6064 171.737V59.5385L29.9257 63.5651L29.6628 63.6114C29.4465 63.6439 29.2265 63.6439 29.0102 63.6114C26.9914 63.2593 25.7238 60.0528 25.3576 55.3358C24.4186 55.5211 23.4797 55.6879 22.5407 55.8501C21.3905 56.0447 20.2402 56.2347 19.0806 56.3923L17.3435 56.6239C16.7661 56.6842 16.1839 56.7583 15.6017 56.8046C16.1651 56.6564 16.7379 56.5359 17.306 56.3969L19.0196 56.0401C20.1604 55.7991 21.3107 55.5767 22.4609 55.396C23.3999 55.2385 24.3623 55.0763 25.3201 54.9327C25.2306 53.343 25.2306 51.7497 25.3201 50.1601L23.3435 50.2574C21.6299 50.3361 19.9163 50.3778 18.1792 50.4242C16.4421 50.4705 14.7473 50.4844 13.0149 50.4798C11.2825 50.4751 9.58297 50.4798 7.85057 50.4149C9.56419 50.2852 11.2778 50.2018 13.0149 50.1276C14.752 50.0535 16.4421 50.0025 18.1557 49.9608C19.8694 49.9191 21.5877 49.8959 23.3201 49.9006H25.3576C25.4885 47.6052 25.7597 45.3198 26.1698 43.0567V42.9872C25.1886 42.8343 24.2074 42.6721 23.2262 42.5239C21.2449 42.1949 19.2684 41.8288 17.2919 41.4859C15.3154 41.1431 13.3435 40.7399 11.3764 40.3368L8.42334 39.7298C7.44682 39.5074 6.4609 39.3035 5.48438 39.0672C6.47968 39.2016 7.47498 39.3591 8.46559 39.5028L11.4421 39.9661C13.4233 40.2905 15.3999 40.6612 17.3764 41.004C19.3529 41.3469 21.3247 41.7501 23.2919 42.1532C24.2637 42.3524 25.2355 42.5517 26.2074 42.7602C26.6816 40.1665 27.3389 37.6087 28.1745 35.1055L26.6534 34.0722C25.2168 33.0991 23.8036 32.0983 22.3905 31.0974C20.9773 30.0965 19.5736 29.0725 18.1933 28.0346C16.813 26.9967 15.4233 25.9541 14.0712 24.8698C15.536 25.7966 16.9726 26.7696 18.4046 27.7473C19.8365 28.725 21.2543 29.7212 22.6675 30.7221C24.0806 31.7229 25.4844 32.7423 26.8647 33.7849L28.2731 34.8367C28.7479 33.431 29.3059 32.0539 29.9445 30.7128C29.2825 30.1336 28.6346 29.5312 27.9914 28.9289C27.2449 28.2199 26.5032 27.511 25.7848 26.7743C25.0665 26.0375 24.3435 25.3054 23.6628 24.5316C24.475 25.1664 25.259 25.8429 26.0102 26.5194C26.7614 27.1959 27.5407 27.9095 28.2919 28.5953C28.8975 29.1698 29.5032 29.749 30.0994 30.3421C31.9773 26.5889 34.09 24.3926 35.9586 24.7169C36.1749 24.7542 36.384 24.8245 36.5783 24.9254H36.6064L52.5877 34.1324V21.58C52.5877 12.9337 55.8271 12.5306 59.8083 12.5306H74.0337C74.86 12.5306 75.536 13.4573 75.536 14.6064V15.1022C75.536 17.7943 77.029 17.8036 78.86 17.8036H111.743C113.592 17.8036 115.076 17.8036 115.076 15.1022V14.5879C115.076 13.4387 115.743 12.512 116.583 12.512H130.804C134.775 12.512 137.996 13.6612 137.996 21.58V88.1093C139.094 89.6232 140.037 91.2404 140.813 92.9375C143.301 98.9195 147.888 121.054 147.888 121.054L146.879 121.133C146.982 121.856 147.062 122.523 147.118 123.116C147.851 125.632 150.193 132.643 150.24 135.289Z" fill="white"/>
</mask>
<g mask="url(#mask0_1208_24156)">
<path d="M69.5302 271.378H103.131C103.131 271.378 96.3659 193.932 96.6288 192.579C96.9668 190.846 98.948 183.005 101.587 172.765L104.234 162.571C106.741 152.938 109.502 142.406 111.91 133.245C115.521 119.516 118.338 108.854 118.338 108.854H89.8635C89.8635 108.854 86.5443 119.233 82.3518 132.745C75.549 154.685 66.441 184.901 65.5443 192.245C64.0889 204.107 69.5302 271.378 69.5302 271.378Z" fill="black"/>
<path d="M90.3059 187.843C91.4092 183.052 93.0571 178.353 94.489 173.646C97.3998 164.088 100.329 154.534 103.278 144.982C104.746 140.203 106.223 135.429 107.71 130.66C108.461 128.25 109.217 125.842 109.977 123.436C110.724 121.087 111.574 118.751 112.25 116.374C112.522 115.41 112.672 115.939 112.32 117.167C111.611 119.641 110.912 122.115 110.184 124.58C108.738 129.464 107.281 134.346 105.813 139.227C102.902 148.945 99.9648 158.653 97.0008 168.349C95.5235 173.215 94.0415 178.08 92.5548 182.945C91.802 185.257 91.1952 187.612 90.7379 189.998C90.3398 192.495 90.239 195.03 90.4374 197.55C90.7613 202.624 91.3764 207.689 91.8458 212.753C92.3153 217.818 92.7848 222.896 93.2543 227.965C94.1933 238.06 95.1322 248.155 96.0712 258.251C96.1886 259.529 96.3059 260.813 96.4045 262.092C96.4374 262.523 95.7801 262.49 95.7332 262.092C94.6299 252.106 93.7801 242.093 92.8318 232.099C91.8834 222.104 90.9538 212.202 90.0149 202.253C89.7801 199.756 89.5125 197.254 89.5078 194.747C89.5122 192.424 89.7799 190.108 90.3059 187.843Z" fill="#263238"/>
<path d="M93.1016 108.84C95.0781 123.932 98.8433 152.234 101.59 172.784C108.017 147.906 118.341 108.84 118.341 108.84H93.1016Z" fill="black"/>
<path d="M90.7852 108.84C90.7852 108.84 91.4424 122.277 94.541 132.935C94.7899 133.815 95.0622 134.682 95.3579 135.511C98.2161 136.652 100.963 138.048 103.564 139.681C103.564 139.681 103.893 150.496 104.217 162.562C104.583 176.05 104.964 191.096 104.884 194.288C104.597 206.224 106.395 271.869 106.395 271.869L139.987 272.003C139.987 272.003 133.912 198.695 133.959 194.321C134.02 187.292 132.33 156.223 131.025 133.565C130.226 119.604 129.569 108.845 129.569 108.845L90.7852 108.84Z" fill="black"/>
<path d="M126.766 113.645C127.386 132.138 128.043 150.64 128.879 169.128C129.714 187.616 130.855 206.224 132.428 224.731C133.306 235.069 134.132 249.614 135.245 259.946C135.245 260.016 135.146 260.039 135.137 259.97C132.691 241.621 131.329 218.934 130.123 200.469C128.916 182.005 128.109 163.517 127.47 145.028C127.109 134.57 126.832 124.108 126.531 113.65C126.527 113.483 126.766 113.497 126.766 113.645Z" fill="#263238"/>
<path d="M97.1047 71.4886C95.1798 86.6312 91.8183 112.028 86.377 114.081C85.438 114.437 81.4286 115.221 78.6916 112.181C74.0765 107.056 66.0953 89.7635 63.8559 84.1985C62.8653 81.7335 79.1563 73.6895 80.5507 76.1685C82.5038 79.6391 84.5554 84.8658 84.9404 84.6897C85.593 84.3978 86.7009 77.9524 91.0437 68.8984C96.4662 57.648 97.823 65.8587 97.1047 71.4886Z" fill="#AD6359"/>
<path d="M59.1348 78.2212C60.7404 81.6222 66.7779 87.3076 68.7686 88.1278C70.7592 88.9479 80.8953 79.1432 80.6371 76.9701C80.3789 74.7969 74.0643 63.7689 70.6042 62.0684C67.1441 60.3679 57.4775 74.6996 59.1348 78.2212Z" fill="#AD6359"/>
<path d="M79.8986 74.9082C79.8986 74.9082 79.5652 70.0382 80.7342 65.9004C81.7202 62.4206 83.584 57.3607 81.7061 56.7676C77.8563 55.549 73.2178 68.1663 73.2178 68.1663C73.2178 68.1663 72.0723 74.0556 75.7812 75.58C76.4636 75.8535 77.2092 75.9354 77.9358 75.8168C78.6624 75.6983 79.3417 75.3838 79.8986 74.9082Z" fill="#AD6359"/>
<path d="M69.5808 78.9347L63.8672 77.9385L66.7827 61.605L74.0174 62.8607L69.5808 78.9347Z" fill="#407BFF"/>
<path d="M74.0174 62.8607L72.3273 68.991L69.5808 78.9347L63.8672 77.9385L66.7827 61.605L74.0174 62.8607Z" fill="#407BFF"/>
<path opacity="0.1" d="M74.0154 62.8607L72.3252 68.991L65.668 67.8372L66.7806 61.605L74.0154 62.8607Z" fill="black"/>
<path d="M75.4544 58.6528L66.457 57.087L65.2521 63.8315L74.2494 65.3972L75.4544 58.6528Z" fill="#407BFF"/>
<path d="M81.9252 57.2263L74.8125 56.7027L76.7609 45.7859L83.6294 47.6904L81.9252 57.2263Z" fill="#407BFF"/>
<path d="M73.5561 42.9965L70.6781 59.1076L58.7016 58.4542L29.6641 63.6114L36.5749 24.9255L62.0725 39.5723L73.5561 42.9965Z" fill="#407BFF"/>
<path d="M38.8118 45.2669C40.7299 34.5309 39.4509 25.3345 35.9552 24.7262C32.4595 24.1178 28.0707 32.3279 26.1527 43.0639C24.2346 53.7999 25.5135 62.9963 29.0093 63.6047C32.505 64.213 36.8938 56.003 38.8118 45.2669Z" fill="#407BFF"/>
<path opacity="0.2" d="M37.4023 44.6761C39.1052 35.1447 38.1651 27.0142 35.3026 26.5161C32.4402 26.0179 28.7392 33.3408 27.0364 42.8721C25.3336 52.4035 26.2736 60.534 29.1361 61.0322C31.9986 61.5303 35.6995 54.2074 37.4023 44.6761Z" fill="black"/>
<path d="M36.5554 44.5024C36.3254 45.772 36.086 46.9999 35.7714 48.1769C35.1155 48.5364 34.3699 48.7052 33.6208 48.6638C32.8717 48.6224 32.1499 48.3725 31.5388 47.9429C30.9277 47.5134 30.4523 46.9218 30.1678 46.2366C29.8833 45.5515 29.8012 44.8008 29.931 44.0715L30.255 42.2459C30.3834 41.5185 30.7175 40.8419 31.2188 40.2939C31.7201 39.7459 32.3681 39.349 33.0882 39.1489C33.8082 38.9489 34.5709 38.9538 35.2882 39.1632C36.0056 39.3725 36.6483 39.7778 37.1423 40.3322C37.0061 41.6945 36.809 43.1123 36.5554 44.5024Z" fill="#407BFF"/>
<path d="M76.8457 61.1L63.0898 60.0806L66.8598 38.9699L80.1368 42.6583L76.8457 61.1Z" fill="#407BFF"/>
<path opacity="0.2" d="M76.8457 61.1L63.0898 60.0806L66.8598 38.9699L80.1368 42.6583L76.8457 61.1Z" fill="black"/>
<path opacity="0.2" d="M37.9373 27.891C38.6596 29.195 39.1367 30.6173 39.3457 32.089C39.5827 33.554 39.7004 35.0353 39.6979 36.5188C39.6979 37.2601 39.6744 38.0015 39.6509 38.7383C39.6274 39.475 39.5523 40.2164 39.4725 40.9531C39.3927 41.6899 39.3129 42.4266 39.2002 43.1587C39.0875 43.8908 38.9795 44.6229 38.8481 45.3504C38.3324 48.271 37.5466 51.1389 36.5007 53.9179C35.9711 55.3069 35.3175 56.6466 34.5476 57.9214C33.8001 59.2133 32.7841 60.3344 31.5664 61.2112C32.7304 60.2826 33.6891 59.1282 34.3833 57.8194C35.1107 56.5376 35.7218 55.1948 36.2096 53.8067C37.1934 51.0305 37.9363 48.1767 38.4303 45.2763C38.9889 42.3879 39.303 39.4586 39.3692 36.5188C39.4101 35.0493 39.3332 33.579 39.1392 32.1215C38.9891 30.6534 38.5825 29.2221 37.9373 27.891Z" fill="black"/>
<path d="M23.6367 24.5316C24.4489 25.1664 25.233 25.8429 25.9841 26.5194C26.7353 27.1959 27.5147 27.9095 28.2658 28.5953C29.017 29.2811 29.7541 30.0132 30.4771 30.7499L31.5522 31.8527C31.8996 32.2327 32.2611 32.6034 32.5992 32.9926C32.186 32.6775 31.7963 32.3439 31.3926 32.0195L30.2236 31.0048C29.4489 30.3329 28.6931 29.6147 27.9419 28.9289C27.1907 28.2431 26.4536 27.511 25.7353 26.7743C25.017 26.0375 24.3175 25.3054 23.6367 24.5316Z" fill="#263238"/>
<path d="M29.4114 54.4276C28.2799 54.7195 27.1344 54.9605 25.9936 55.1922C24.8527 55.4238 23.7025 55.6555 22.5522 55.8362C21.402 56.0169 20.2518 56.2208 19.0922 56.3784L17.3551 56.61C16.7776 56.6703 16.1954 56.7444 15.6133 56.7908C16.1767 56.6425 16.7494 56.522 17.3175 56.383L19.0311 56.0262C20.172 55.7853 21.3222 55.5628 22.4724 55.3821C23.6227 55.2014 24.7729 54.9975 25.9325 54.8446C27.0922 54.6917 28.2471 54.5296 29.4114 54.4276Z" fill="#263238"/>
<path d="M7.90625 50.4103C9.61987 50.2806 11.3335 50.1972 13.0706 50.123C14.8077 50.0489 16.4978 49.9979 18.2114 49.9562C19.925 49.9145 21.6433 49.8913 23.3757 49.896H25.9485C26.8077 49.896 27.6668 49.896 28.526 49.9562C27.6668 50.0257 26.8124 50.0674 25.9532 50.123L23.3804 50.2481C21.6668 50.3269 19.9532 50.3686 18.2161 50.4149C16.479 50.4613 14.7842 50.4752 13.0518 50.4705C11.3194 50.4659 9.62456 50.4705 7.90625 50.4103Z" fill="#263238"/>
<path d="M14.0547 24.8699C15.5195 25.7966 16.9561 26.7696 18.388 27.7473C19.8199 28.725 21.2378 29.7213 22.6509 30.7221C24.0641 31.723 25.4678 32.7424 26.8481 33.7849L28.9232 35.3464C29.604 35.8839 30.2941 36.4029 30.9702 36.9497C30.2331 36.4863 29.5148 36.023 28.7871 35.5318L26.6368 34.0722C25.2002 33.0992 23.7871 32.0983 22.3739 31.0974C20.9608 30.0966 19.557 29.0726 18.1768 28.0346C16.7965 26.9967 15.4068 25.968 14.0547 24.8699Z" fill="#263238"/>
<path d="M29.18 43.4275C27.1894 43.1587 25.2035 42.839 23.2222 42.5007C21.241 42.1625 19.2645 41.8057 17.288 41.4628C15.3115 41.1199 13.3396 40.7168 11.3725 40.3137L8.41944 39.7067C7.44291 39.4843 6.45699 39.2804 5.48047 39.0441C6.47577 39.1784 7.47108 39.336 8.46169 39.4796L11.4382 39.943C13.4194 40.2673 15.396 40.638 17.3725 40.9809C19.349 41.3238 21.3208 41.7269 23.288 42.13C25.2551 42.5332 27.2363 42.9687 29.18 43.4275Z" fill="#263238"/>
<path d="M75.4158 65.7429C75.1998 67.7168 72.9651 66.336 72.9651 66.336C72.9651 66.336 75.6975 69.0884 74.674 71.0437C73.6834 72.9203 71.0449 71.1549 70.8524 71.0437C70.9979 71.192 73.4393 73.7868 72.2092 75.6449C70.9792 77.503 68.5848 75.353 68.4533 75.2093C68.5425 75.3901 69.7069 77.7995 68.4533 78.9996C66.2843 81.0616 63.1435 74.9777 60.7961 74.3336C60.7961 74.3336 59.2327 78.1332 59.1623 78.2351C59.1623 78.2351 56.0543 72.5126 57.1153 69.4312C57.2618 68.9814 57.5593 68.5944 57.9588 68.3341C58.3583 68.0737 58.8358 67.9557 59.3125 67.9995C59.3125 67.9995 58.1059 66.2665 59.0261 64.7559C59.4956 63.9914 61.167 64.0609 61.167 64.0609C61.167 64.0609 60.2562 62.6291 61.167 61.3549C61.8853 60.3355 63.4393 60.5625 63.4393 60.5625C63.4393 60.5625 63.2092 58.7925 64.289 57.9816C66.4252 56.3598 75.8806 61.5124 75.4158 65.7429Z" fill="#AD6359"/>
<path d="M63.6575 60.5718C63.6525 60.5696 63.6482 60.5661 63.6452 60.5615C63.6422 60.557 63.6406 60.5517 63.6406 60.5463C63.6406 60.5409 63.6422 60.5356 63.6452 60.5311C63.6482 60.5265 63.6525 60.523 63.6575 60.5208C67.1881 61.4475 70.7702 63.5697 73.0801 66.3962C73.1552 66.4889 73.0331 66.6511 72.9298 66.563C70.148 64.135 67.0249 62.117 63.6575 60.5718Z" fill="#263238"/>
<path d="M61.1016 64.0238C61.0641 64.0238 61.1016 63.945 61.1345 63.9589C64.7636 64.9505 68.7307 67.4341 70.9936 70.9974C71.0687 71.1225 71.0171 71.3078 70.9138 71.1734C69.2378 68.9169 64.2894 65.4278 61.1016 64.0238Z" fill="#263238"/>
<path d="M68.5034 75.4966C66.1888 72.1604 63.0245 69.8899 59.4377 68.0226C59.3907 68.0226 59.4377 67.9345 59.4752 67.9484C61.4799 68.4118 63.6442 69.8019 65.2311 71.0669C66.728 72.1987 67.897 73.6992 68.6208 75.4178C68.6489 75.4873 68.5503 75.5476 68.5034 75.4966Z" fill="#263238"/>
<path d="M73.0356 66.3314C73.1248 66.4426 72.8619 66.4518 72.9464 66.563C73.3173 67.0264 75.2703 70.1216 74.4159 71.104C73.7304 71.8917 72.1811 71.5256 71.6459 71.1549L70.2891 70.2282L71.2281 71.5673C71.6471 72.1591 71.9643 72.8151 72.1671 73.5088C72.2833 73.8242 72.3304 74.1603 72.3054 74.495C72.2803 74.8296 72.1835 75.1552 72.0215 75.4503C71.8685 75.7235 71.625 75.9365 71.3319 76.0538C71.0388 76.171 70.7137 76.1853 70.4112 76.0944C69.7392 75.875 69.1338 75.4927 68.6506 74.9823L67.275 73.5922L68.1154 75.3252C68.3516 75.8067 68.5251 76.3158 68.6318 76.8404C68.7512 77.3334 68.7235 77.8499 68.552 78.3278C68.4614 78.5383 68.3133 78.72 68.1244 78.8525C67.9354 78.985 67.7129 79.0632 67.4816 79.0784C66.9619 79.0353 66.4653 78.8473 66.0497 78.5363C65.1374 77.8725 64.2788 77.1397 63.4816 76.3446C63.0685 75.9554 62.6506 75.5661 62.214 75.1954C61.7961 74.8009 61.2986 74.4977 60.7539 74.3058C61.2662 74.5516 61.7254 74.8931 62.106 75.3113C62.5098 75.7098 62.8901 76.1268 63.275 76.5438C64.0315 77.4107 64.8694 78.205 65.7774 78.9162C66.2624 79.3128 66.8552 79.5594 67.4816 79.6252C67.8251 79.6229 68.1605 79.5223 68.4471 79.3356C68.7338 79.1489 68.9594 78.8841 69.0966 78.5733C69.337 77.9853 69.3927 77.3395 69.2563 76.7199C69.1498 76.1337 68.9668 75.5637 68.7117 75.024L68.1764 75.3854C68.7366 76.0011 69.4504 76.4612 70.2469 76.7199C70.6927 76.8503 71.1705 76.8241 71.599 76.6458C72.0119 76.4562 72.3583 76.1498 72.5943 75.7654C72.7993 75.3914 72.9217 74.9787 72.9532 74.5545C72.9848 74.1304 72.9249 73.7045 72.7774 73.3049C72.5374 72.5446 72.1709 71.829 71.6929 71.1874L71.2797 71.5951C71.984 72.0585 73.6647 72.6377 74.8854 71.5488C76.2797 69.927 73.5708 66.855 73.0356 66.3314Z" fill="#263238"/>
<path d="M72.9648 66.3359C73.353 66.4814 73.7615 66.5674 74.1761 66.5908C74.342 66.6044 74.5085 66.5742 74.6586 66.5033C74.8088 66.4325 74.9371 66.3236 75.0306 66.1877C75.19 65.8609 75.2503 65.4957 75.2043 65.1358C75.1761 64.7374 75.1245 64.3203 75.0541 63.8894C75.3331 64.2373 75.5332 64.6402 75.6409 65.071C75.7134 65.3038 75.7387 65.5485 75.7154 65.791C75.692 66.0335 75.6204 66.269 75.5048 66.4842C75.3544 66.71 75.136 66.8835 74.8803 66.98C74.637 67.0617 74.3756 67.0762 74.1245 67.0217C73.6739 66.9206 73.2677 66.6804 72.9648 66.3359Z" fill="#263238"/>
<path d="M62.5898 89.6569L80.3974 75.5476C80.3974 75.5476 84.7119 84.3514 84.9654 84.3143C85.219 84.2773 88.0452 72.5959 92.7307 65.3166C97.4161 58.0372 98.5429 65.9375 97.5476 71.9426C96.5523 77.9478 91.8668 111.231 87.6556 114.28C83.4443 117.329 79.4866 113.511 77.7964 111.894C75.4349 109.637 62.5898 89.6569 62.5898 89.6569Z" fill="#FF6C37"/>
<path d="M66.0161 91.2462C66.5747 90.6809 72.171 86.3717 73.4057 85.4635L77.124 82.7389C78.401 81.8122 79.6639 80.7882 81.0161 79.9588C81.0219 79.9542 81.0286 79.9508 81.0358 79.9488C81.043 79.9468 81.0505 79.9462 81.0579 79.9471C81.0653 79.948 81.0725 79.9503 81.079 79.9538C81.0855 79.9574 81.0912 79.9623 81.0959 79.968C81.1005 79.9738 81.1039 79.9804 81.1059 79.9875C81.108 79.9946 81.1086 80.002 81.1077 80.0093C81.1068 80.0167 81.1045 80.0237 81.1009 80.0302C81.0972 80.0366 81.0923 80.0423 81.0865 80.0468C79.9128 81.1125 78.5888 82.0393 77.3306 83.0077C76.0724 83.9761 74.8564 84.926 73.617 85.8759C72.3776 86.8258 66.7438 90.9729 66.0677 91.3389C66.0114 91.3667 65.9785 91.3018 66.0161 91.2462Z" fill="#263238"/>
<path d="M84.9844 84.2912C85.4539 85.3291 85.9233 86.3949 86.3177 87.4606C86.7121 88.5263 87.1064 89.6152 87.4586 90.7041C87.8107 91.793 88.1299 92.8958 88.3975 94.0125C88.6778 95.1253 88.8925 96.2531 89.0407 97.3904C88.867 96.839 88.7262 96.2876 88.5712 95.7455C88.4163 95.2033 88.2426 94.6519 88.0689 94.1052L87.036 90.8617L86.0032 87.6181L85.4539 85.9408C85.2942 85.3894 85.1205 84.8426 84.9844 84.2912Z" fill="#263238"/>
<path d="M85.0492 120.545C85.8192 121.3 133.167 118.825 133.406 118.524C134.03 117.699 117.096 67.967 105.998 60.0992C103.613 58.4079 97.1995 60.6737 95.5516 62.3048C94.5187 63.3288 92.2652 69.7927 90.8004 75.1352C87.8427 85.8388 84.3779 119.882 85.0492 120.545Z" fill="white"/>
<path d="M96.5119 60.2057C94.634 61.5958 93.1973 68.6898 97.4884 69.649C101.78 70.6082 105.761 63.9219 106.348 61.7719C106.934 59.6219 100.573 57.2309 96.5119 60.2057Z" fill="#FF6C37"/>
<path d="M97.8002 68.6759C100.462 69.0142 104.504 64.6354 105.927 61.2622C106.026 61.0305 105.457 58.7739 104.866 55.9938C104.523 54.3071 104.185 52.4212 103.997 50.6744L93.1992 54.4786C93.1992 54.4786 94.6781 58.0233 94.9833 61.0675C95.0067 61.3079 95.0067 61.55 94.9833 61.7904C94.9833 61.8228 94.9833 61.8645 94.9833 61.9109C94.8941 63.3056 95.2274 68.3516 97.8002 68.6759Z" fill="#AD6359"/>
<path d="M103.484 50.869C103.371 53.0839 102.522 61.0629 96.1179 61.8692C95.738 61.9163 95.355 61.9349 94.9723 61.9248C94.9648 61.885 94.9648 61.8441 94.9723 61.8043C94.9911 61.5637 94.9911 61.3221 94.9723 61.0815C94.6625 58.0418 93.1836 54.4971 93.1836 54.4971L103.484 50.869Z" fill="#263238"/>
<path d="M104.178 37.6169C105.751 41.3887 104.756 52.7966 102.202 55.5629C98.4927 59.5709 91.873 60.5393 88.3002 56.0262C84.826 51.6475 86.3894 36.7968 89.2955 34.2483C93.5725 30.4441 101.85 32.0473 104.178 37.6169Z" fill="#AD6359"/>
<path d="M93.97 45.4987C93.97 45.4709 94.031 45.5404 94.0263 45.5728C93.9371 46.342 93.97 47.2316 94.6507 47.5421C94.6507 47.5421 94.6507 47.5931 94.6507 47.5884C93.7916 47.3985 93.7634 46.2122 93.97 45.4987Z" fill="#263238"/>
<path d="M94.7359 44.7526C95.9941 44.7526 95.8908 47.2455 94.7359 47.2409C93.581 47.2362 93.6795 44.748 94.7359 44.7526Z" fill="#263238"/>
<path d="M89.5975 45.3411C89.5975 45.3133 89.5365 45.3782 89.5365 45.406C89.5365 46.1798 89.3863 47.0602 88.668 47.2872V47.3336C89.5412 47.2502 89.7149 46.0732 89.5975 45.3411Z" fill="#263238"/>
<path d="M88.9374 44.5024C87.6839 44.3588 87.482 46.8192 88.6416 46.9768C89.8012 47.1343 89.9843 44.6322 88.9374 44.5024Z" fill="#263238"/>
<path d="M95.7813 43.6545C95.4532 43.5464 95.1319 43.4195 94.8188 43.2745C94.4616 43.1879 94.1432 42.9876 93.9127 42.7046C93.8579 42.6014 93.8392 42.4831 93.8596 42.3683C93.88 42.2535 93.9383 42.1485 94.0254 42.0698C94.2211 41.9403 94.4483 41.8648 94.6836 41.851C94.9188 41.8371 95.1535 41.8855 95.3634 41.991C95.8222 42.1405 96.2086 42.4525 96.4479 42.8668C96.4969 42.9643 96.5161 43.0737 96.5031 43.1818C96.4902 43.2898 96.4457 43.3918 96.375 43.4753C96.3043 43.5588 96.2105 43.6202 96.1051 43.652C95.9997 43.6839 95.8872 43.6847 95.7813 43.6545Z" fill="#263238"/>
<path d="M88.0144 43.2143C88.3619 43.1726 88.6811 43.0753 89.0238 43.0011C89.392 42.9755 89.7409 42.8287 90.0144 42.5841C90.086 42.4925 90.1248 42.3801 90.1248 42.2644C90.1248 42.1487 90.086 42.0363 90.0144 41.9447C89.8433 41.7836 89.6315 41.6707 89.4011 41.6177C89.1708 41.5647 88.9303 41.5736 88.7046 41.6435C88.228 41.7147 87.7949 41.9573 87.4886 42.3246C87.4248 42.4132 87.3883 42.5181 87.3834 42.6267C87.3785 42.7353 87.4054 42.8429 87.4608 42.9368C87.5163 43.0307 87.5981 43.1068 87.6962 43.156C87.7944 43.2052 87.9049 43.2254 88.0144 43.2143Z" fill="#263238"/>
<path d="M94.9676 52.7178C94.7751 52.8893 94.5779 53.1302 94.2915 53.1395C94.0011 53.1242 93.7176 53.0467 93.4605 52.9124C93.4555 52.9112 93.4503 52.9114 93.4454 52.913C93.4405 52.9145 93.4361 52.9173 93.4327 52.9211C93.4294 52.925 93.4271 52.9296 93.4262 52.9346C93.4253 52.9396 93.4258 52.9448 93.4277 52.9495C93.5306 53.1077 93.6759 53.2346 93.8474 53.3164C94.0189 53.3982 94.21 53.4316 94.3995 53.4128C94.5604 53.3795 94.7076 53.2995 94.8222 53.1831C94.9367 53.0667 95.0135 52.9192 95.0427 52.7595C95.0568 52.7085 94.9958 52.69 94.9676 52.7178Z" fill="#263238"/>
<path d="M94.2474 50.3732C94.0375 50.6706 93.7671 50.9214 93.4535 51.1097C93.1398 51.298 92.7898 51.4196 92.4258 51.4668C92.1144 51.5111 91.7982 51.5111 91.4868 51.4668C91.4251 51.4627 91.3638 51.4534 91.3037 51.439L91.1347 51.4065C91.0928 51.3972 91.0553 51.3744 91.0281 51.3417C91.0009 51.3089 90.9855 51.2682 90.9845 51.2258C90.9822 51.1996 90.9822 51.1733 90.9845 51.1471V51.0776C90.9845 50.4845 91.0924 49.5855 91.0924 49.5855C90.8671 49.6828 89.7263 50.1369 89.7544 49.8265C90.022 47.2641 90.3131 44.4191 91.1253 41.9494C91.1488 41.8659 91.2802 41.8891 91.2662 41.9494C91.1112 44.4237 90.515 46.8471 90.3272 49.326C90.7321 49.1602 91.1589 49.0526 91.5948 49.0063C91.6793 49.0341 91.3788 50.7393 91.3976 51.008C91.3966 51.0173 91.3966 51.0266 91.3976 51.0359C92.4023 51.2073 93.177 50.9339 94.1816 50.3084C94.238 50.262 94.299 50.313 94.2474 50.3732Z" fill="#263238"/>
<path d="M91.9141 51.3231C92.2598 51.7295 92.7062 52.0408 93.2098 52.2266C93.4892 52.3149 93.7896 52.3149 94.069 52.2266C94.6793 52.0367 94.6652 51.476 94.5385 51.0034C94.462 50.7513 94.3564 50.5088 94.2239 50.2805C93.5873 50.8637 92.7774 51.2292 91.9141 51.3231Z" fill="#263238"/>
<path d="M93.207 52.2266C93.4864 52.3149 93.7868 52.3149 94.0662 52.2266C94.6765 52.0367 94.6624 51.476 94.5357 51.0034C94.2065 51.0283 93.8956 51.1629 93.6542 51.3852C93.4127 51.6075 93.2551 51.9042 93.207 52.2266Z" fill="#F392B9"/>
<path d="M104.43 47.0787C104.712 46.0825 107.317 35.3418 107.031 34.1695C106.768 33.1038 105.585 33.5394 105.571 33.4791C105.557 33.4189 105.514 32.4458 104.904 32.089C104.696 31.9999 104.471 31.9539 104.244 31.9539C104.018 31.9539 103.793 31.9999 103.585 32.089C103.585 32.089 103.402 31.065 102.749 30.787C102.531 30.7187 102.298 30.708 102.074 30.756C101.85 30.804 101.642 30.9089 101.472 31.0604C101.412 30.7883 101.286 30.5347 101.104 30.3215C100.923 30.1084 100.691 29.9421 100.43 29.8371C100.197 29.7705 99.9483 29.7796 99.7209 29.863C99.4936 29.9465 99.2994 30.0998 99.167 30.3005C99.167 30.3005 98.89 29.3228 98.228 29.1328C97.5661 28.9428 96.9604 29.6703 96.9604 29.6703C96.8626 29.4237 96.6994 29.2076 96.488 29.0446C96.2765 28.8816 96.0246 28.7776 95.7585 28.7436C95.4999 28.761 95.2524 28.854 95.0475 29.0108C94.8427 29.1676 94.6898 29.3811 94.6083 29.624C94.6083 29.624 94.1388 28.7621 93.3407 28.7389C92.5426 28.7158 92.2985 29.6657 92.2985 29.6657C92.2985 29.6657 91.9792 28.8131 91.2468 28.8687C90.5144 28.9243 90.3454 29.9344 90.3454 29.9344C90.3454 29.9344 89.937 29.0077 89.0731 29.2718C87.7539 29.6935 87.5895 35.921 87.2891 38.6271C87.2891 38.6271 87.6553 37.3343 88.228 37.2879C88.8008 37.2416 89.2046 38.1174 90.2515 38.349C91.7398 38.6734 94.2186 36.959 96.2703 37.3806C98.3219 37.8023 99.7398 39.8689 100.458 42.9409C101.242 46.5042 103.763 49.4419 104.43 47.0787Z" fill="#263238"/>
<path d="M94.4571 49.3121C93.6149 49.16 92.8684 48.6841 92.3816 47.989C91.8948 47.294 91.7075 46.4366 91.8609 45.6053C91.9687 45.0211 92.2403 44.4785 92.645 44.0392C93.0496 43.5998 93.571 43.2813 94.15 43.1197C94.7289 42.9582 95.3421 42.9602 95.9199 43.1255C96.4977 43.2908 97.017 43.6127 97.4187 44.0547C97.8204 44.4966 98.0885 45.041 98.1924 45.6258C98.2963 46.2106 98.2319 46.8125 98.0066 47.363C97.7812 47.9135 97.4039 48.3906 96.9176 48.7401C96.4312 49.0896 95.8553 49.2974 95.2552 49.3399C94.989 49.3627 94.721 49.3534 94.4571 49.3121ZM92.2834 45.6979C92.1854 46.2336 92.2505 46.786 92.4706 47.2852C92.6907 47.7844 93.0558 48.2079 93.5197 48.5023C93.9837 48.7967 94.5257 48.9487 95.0772 48.939C95.6287 48.9293 96.1649 48.7585 96.618 48.448C97.0711 48.1376 97.4208 47.7015 97.6228 47.1949C97.8247 46.6883 97.87 46.134 97.7528 45.6021C97.6355 45.0701 97.3611 44.5844 96.9642 44.2064C96.5672 43.8284 96.0656 43.5751 95.5228 43.4784C95.2954 43.4364 95.0634 43.4239 94.8327 43.4414C94.2138 43.4834 93.6268 43.7282 93.1649 44.1371C92.7031 44.5459 92.3928 45.0952 92.2834 45.6979Z" fill="#407BFF"/>
<path d="M87.6665 48.9785C86.3473 48.9183 85.3426 47.4448 85.4224 45.6979C85.446 44.906 85.7202 44.1412 86.2064 43.5109C86.3985 43.228 86.6613 42.9988 86.9694 42.8455C87.2775 42.6922 87.6204 42.62 87.9651 42.6359C88.3097 42.6517 88.6444 42.7551 88.9367 42.936C89.229 43.1168 89.4691 43.3691 89.6337 43.6684C90.0582 44.3399 90.2586 45.1259 90.2065 45.9157C90.1313 47.5745 89.1032 48.8905 87.859 48.9785H87.6665ZM86.5398 43.775C86.1113 44.3355 85.8716 45.0145 85.8543 45.7165C85.7839 47.2316 86.6055 48.4966 87.6853 48.5569C88.7651 48.6171 89.7088 47.4123 89.7792 45.8972C89.8238 45.1963 89.6484 44.499 89.2769 43.9001C89.1389 43.6651 88.9458 43.4663 88.7137 43.3204C88.4817 43.1744 88.2176 43.0856 87.9435 43.0614H87.798C87.5495 43.0873 87.3092 43.1641 87.0925 43.287C86.8758 43.4099 86.6876 43.5761 86.5398 43.775Z" fill="#407BFF"/>
<path d="M91.9509 45.9944L92.242 45.6794C91.7725 45.2531 90.6739 44.66 89.8477 45.4523L90.1481 45.7535C90.8852 45.0446 91.9087 45.9527 91.9509 45.9944Z" fill="#407BFF"/>
<path d="M106.231 47.4633L106.625 47.2872C106.541 47.1065 105.776 45.5218 104.827 45.3272C103.879 45.1326 98.1512 45.4106 97.9023 45.4245V45.8462C99.5596 45.7674 104.006 45.6006 104.715 45.7396C105.423 45.8786 106.029 47.0277 106.231 47.4633Z" fill="#407BFF"/>
<path d="M101.883 46.6849C101.883 46.6849 104.183 42.8622 105.92 43.6452C107.657 44.4283 106.122 49.8357 104.216 50.7022C103.979 50.8302 103.719 50.9094 103.45 50.9352C103.182 50.961 102.911 50.9327 102.654 50.8522C102.396 50.7716 102.159 50.6404 101.954 50.4665C101.75 50.2926 101.583 50.0796 101.465 49.8404L101.883 46.6849Z" fill="#AD6359"/>
<path d="M105.425 45.1836C105.43 45.1858 105.435 45.1893 105.438 45.1938C105.441 45.1984 105.442 45.2037 105.442 45.2091C105.442 45.2145 105.441 45.2198 105.438 45.2243C105.435 45.2288 105.43 45.2324 105.425 45.2346C104.092 45.8879 103.463 47.1992 103.054 48.543C103.425 48.0101 103.961 47.6904 104.679 48.1213C104.686 48.1268 104.691 48.1343 104.693 48.1428C104.695 48.1512 104.695 48.1602 104.692 48.1684C104.689 48.1766 104.683 48.1836 104.676 48.1885C104.668 48.1934 104.66 48.1958 104.651 48.1954C104.403 48.1386 104.143 48.1583 103.907 48.2519C103.671 48.3456 103.47 48.5087 103.331 48.719C103.103 49.0731 102.914 49.4506 102.768 49.845C102.712 49.9701 102.486 49.9238 102.519 49.7801C102.521 49.7694 102.521 49.7584 102.519 49.7477C102.378 48.0194 103.557 45.4987 105.425 45.1836Z" fill="#263238"/>
<path d="M112.684 63.3519C128.003 73.7497 139.059 90.0508 140.125 93.4703C142.702 101.811 146.547 116.499 147.139 123.098C147.36 125.54 128.308 125.085 127.989 122.486C126.998 114.34 123.449 96.6212 123.36 96.32C122.726 94.1747 117.317 84.8936 111.759 74.7969C106.2 64.7003 106.223 58.9732 112.684 63.3519Z" fill="#AD6359"/>
<path d="M129.5 148.221C131.443 148.879 132.706 147.183 132.706 147.183C133.354 147.966 134.259 148.501 135.265 148.694C137.054 148.953 138.246 146.298 138.246 146.298C139.092 146.971 140.122 147.377 141.204 147.466C142.941 147.54 144.528 145.033 144.528 145.033C145.651 145.223 146.806 145.013 147.786 144.44C149.434 143.393 150.246 138.208 150.218 135.289C150.19 132.369 147.34 124.122 146.96 122.491H127.979C127.979 122.491 124.331 135.608 124.861 139.037C125.303 141.942 127.317 147.484 129.5 148.221Z" fill="#AD6359"/>
<path d="M132.402 147.058C131.186 144.097 130.919 140.946 130.473 137.814C130.473 137.799 130.479 137.785 130.489 137.775C130.5 137.764 130.514 137.758 130.529 137.758C130.544 137.758 130.558 137.764 130.569 137.775C130.579 137.785 130.585 137.799 130.585 137.814C130.989 140.932 132.017 143.935 132.552 147.03C132.551 147.047 132.543 147.063 132.532 147.075C132.52 147.088 132.505 147.096 132.488 147.099C132.471 147.102 132.454 147.1 132.438 147.093C132.423 147.085 132.41 147.073 132.402 147.058Z" fill="#263238"/>
<path d="M137.999 146.238C137.789 145.539 137.672 144.816 137.651 144.088C137.579 143.319 137.523 142.546 137.482 141.771C137.393 140.228 137.337 138.685 137.332 137.137C137.332 137.068 137.435 137.049 137.44 137.137C137.534 138.676 137.647 140.21 137.802 141.739C137.881 142.508 137.966 143.272 138.055 144.055C138.189 144.772 138.241 145.501 138.21 146.229C138.203 146.25 138.189 146.269 138.171 146.283C138.153 146.297 138.131 146.305 138.108 146.306C138.085 146.307 138.062 146.301 138.042 146.289C138.023 146.277 138.008 146.259 137.999 146.238Z" fill="#263238"/>
<path d="M144.522 144.968C144.34 144.333 144.27 143.672 144.315 143.013C144.287 142.313 144.259 141.623 144.226 140.905C144.16 139.514 144.09 138.097 143.973 136.693C143.973 136.678 143.979 136.664 143.989 136.653C144 136.643 144.014 136.637 144.029 136.637C144.044 136.637 144.058 136.643 144.069 136.653C144.079 136.664 144.085 136.678 144.085 136.693C144.207 138.115 144.353 139.538 144.47 140.965L144.625 143.064C144.73 143.699 144.718 144.347 144.592 144.978C144.589 144.984 144.583 144.99 144.576 144.994C144.569 144.997 144.562 144.999 144.554 144.998C144.546 144.997 144.539 144.993 144.533 144.988C144.527 144.983 144.523 144.976 144.522 144.968Z" fill="#263238"/>
<path d="M127.072 122.713L147.894 121.054C147.894 121.054 143.307 98.9195 140.819 92.9375C138.331 86.9555 125.941 72.1975 113.021 63.4493C104.232 57.5044 104.777 62.5735 108.838 70.4506C112.899 78.3278 122.453 96.3571 122.922 97.7889C123.392 99.2207 127.072 122.713 127.072 122.713Z" fill="#FF6C37"/>
<path d="M127.439 118.473C128.219 118.292 135.284 117.653 136.829 117.546L141.444 117.231C143.036 117.125 144.651 116.944 146.247 116.963C146.255 116.96 146.264 116.96 146.273 116.961C146.281 116.963 146.29 116.966 146.297 116.971C146.304 116.977 146.309 116.983 146.313 116.991C146.317 116.999 146.319 117.007 146.319 117.016C146.319 117.025 146.317 117.033 146.313 117.041C146.309 117.049 146.304 117.055 146.297 117.061C146.29 117.066 146.281 117.069 146.273 117.071C146.264 117.072 146.255 117.072 146.247 117.069C144.679 117.343 143.054 117.421 141.472 117.57L136.777 118.005C135.209 118.144 128.209 118.626 127.435 118.575C127.374 118.571 127.388 118.487 127.439 118.473Z" fill="#263238"/>
</g>
</g>
<defs>
<clipPath id="clip0_1208_24156">
<rect width="190.61" height="197.392" fill="white" transform="translate(0 0.279297)"/>
</clipPath>
</defs>
</svg>
