<svg width="127" height="100" viewBox="0 0 127 100" fill="none" xmlns="http://www.w3.org/2000/svg">
<g clip-path="url(#clip0_2334_25981)">
<path d="M60.7576 31.7941C61.6346 30.7503 64.9682 30.0503 66.8233 31.7006C66.8233 31.7006 66.1889 30.72 66.8233 29.8835C66.8233 29.8835 65.9842 30.4268 65.2361 29.8835C64.488 29.3401 64.3111 26.6232 64.3111 26.6232C64.3111 26.6232 64.1341 29.383 62.9033 29.6358C61.6725 29.8885 60.8814 28.1371 60.8814 28.1371C60.8814 28.1371 61.5487 30.0579 61.215 30.3561C60.8814 30.6543 60.2041 30.3561 60.2041 30.3561L60.7576 31.7941Z" fill="#E0E0E0"/>
<path d="M58.3391 34.458C58.3391 34.458 57.1285 36.8085 58.3391 38.9112C58.0886 38.7512 57.8047 38.6511 57.5092 38.6187C57.2138 38.5862 56.9149 38.6224 56.6357 38.7242C56.6357 38.7242 57.1108 38.2187 57.0426 37.688C56.9743 37.1572 54.7856 36.4041 54.7856 36.4041C54.7856 36.4041 56.5093 36.5633 56.8859 35.9643C57.2625 35.3653 55.9356 34.2103 55.9356 34.2103C55.9356 34.2103 57.3838 34.9938 57.7047 34.7436C58.0257 34.4934 57.7047 33.7074 57.7047 33.7074L58.3391 34.458Z" fill="#E0E0E0"/>
<path d="M69.1738 39.1943C69.1738 39.1943 70.3971 37.4959 69.4266 34.9205L70.2656 34.415C70.2656 34.415 69.9497 34.9508 70.1418 35.292C70.3339 35.6332 72.1157 35.3982 72.1157 35.3982C72.1157 35.3982 70.7054 35.6812 70.6447 36.4268C70.5841 37.1724 72.3987 38.2592 72.3987 38.2592C72.3987 38.2592 70.7383 37.8447 70.3945 38.2592C70.0508 38.6736 70.7863 39.4799 70.7863 39.4799C70.7863 39.4799 69.9573 38.891 69.1738 39.1943Z" fill="#E0E0E0"/>
<path d="M20.7243 22.4152C20.0732 23.4088 19.6161 24.5168 19.3772 25.6805L17.5525 25.8524V29.3907L19.3772 29.5625C19.617 30.7244 20.074 31.8306 20.7243 32.8228L19.5592 34.228L22.0562 36.7276L23.464 35.5625C24.4582 36.2126 25.5659 36.6696 26.7293 36.9096L26.9012 38.7343H30.4395L30.6114 36.9096C31.7712 36.6684 32.8755 36.2114 33.8666 35.5625L35.2743 36.7276L37.7714 34.228L36.6062 32.8228C37.2574 31.8283 37.7145 30.7195 37.9533 29.5549L39.7781 29.3831V25.8448L37.9533 25.6729C37.7145 24.5092 37.2574 23.4012 36.6062 22.4076L37.7714 20.9998L35.2743 18.5028L33.8666 19.6755C32.8731 19.0236 31.7651 18.5656 30.6012 18.3259L30.4294 16.5037H26.8911L26.7192 18.3259C25.5554 18.5656 24.4474 19.0236 23.4539 19.6755L22.0461 18.5104L19.5491 21.0074L20.7243 22.4152ZM32.0494 24.2374C32.7181 24.9062 33.1734 25.7582 33.3578 26.6857C33.5422 27.6133 33.4474 28.5747 33.0855 29.4484C32.7235 30.322 32.1106 31.0688 31.3243 31.5942C30.538 32.1196 29.6135 32.4 28.6678 32.4C27.7221 32.4 26.7977 32.1196 26.0113 31.5942C25.225 31.0688 24.6121 30.322 24.2501 29.4484C23.8882 28.5747 23.7934 27.6133 23.9779 26.6857C24.1623 25.7582 24.6176 24.9062 25.2862 24.2374C25.7301 23.7926 26.2574 23.4396 26.8379 23.1989C27.4184 22.9581 28.0406 22.8341 28.6691 22.8341C29.2975 22.8341 29.9198 22.9581 30.5003 23.1989C31.0807 23.4396 31.608 23.7926 32.0519 24.2374H32.0494Z" fill="#E0E0E0"/>
<path d="M42.5558 5.36301C42.2025 5.90144 41.9538 6.50163 41.8228 7.13216L40.8296 7.22567V9.14899L41.8228 9.2425C41.9538 9.87303 42.2025 10.4732 42.5558 11.0117L41.9214 11.7699L43.2811 13.1296L44.0393 12.4952C44.5781 12.8485 45.1781 13.0979 45.8085 13.2307L45.902 14.2239H47.8253L47.9214 13.2307C48.5516 13.0975 49.1516 12.8481 49.6905 12.4952L50.4487 13.1296L51.8084 11.7699L51.1741 11.0117C51.5274 10.4732 51.776 9.87303 51.907 9.2425L52.9003 9.14899V7.23578L51.907 7.14227C51.776 6.51174 51.5274 5.91155 51.1741 5.37312L51.8084 4.61491L50.4816 3.23497L49.7234 3.86934C49.1849 3.51549 48.5848 3.266 47.9542 3.13388L47.8607 2.14062H45.9349L45.8413 3.13388C45.2106 3.26554 44.6104 3.51506 44.0722 3.86934L43.314 3.23497L41.9543 4.59469L42.5558 5.36301ZM48.7251 6.35626C49.0895 6.72067 49.3377 7.18496 49.4382 7.69042C49.5388 8.19588 49.4872 8.71981 49.29 9.19596C49.0928 9.6721 48.7588 10.0791 48.3303 10.3654C47.9018 10.6517 47.398 10.8045 46.8826 10.8045C46.3672 10.8045 45.8634 10.6517 45.4349 10.3654C45.0064 10.0791 44.6725 9.6721 44.4752 9.19596C44.278 8.71981 44.2264 8.19588 44.327 7.69042C44.4275 7.18496 44.6757 6.72067 45.0402 6.35626C45.5288 5.86764 46.1916 5.59313 46.8826 5.59313C47.5737 5.59313 48.2364 5.86764 48.7251 6.35626Z" fill="#F0F0F0"/>
<path d="M77.8427 41.8303C77.5983 42.2124 77.4269 42.6366 77.3372 43.0813L76.6396 43.147V44.4992L77.3372 44.5649C77.426 45.0098 77.5974 45.4342 77.8427 45.8159L77.3979 46.3543L78.3532 47.3096L78.8915 46.8648C79.2773 47.1111 79.706 47.2826 80.1552 47.3703L80.2209 48.0678H81.5731L81.6388 47.3703C82.0836 47.281 82.5079 47.1096 82.8898 46.8648L83.4281 47.3096L84.3835 46.3543L83.9387 45.8159C84.1839 45.4342 84.3554 45.0098 84.4441 44.5649L85.1417 44.4992V43.147L84.4441 43.0813C84.3549 42.6373 84.1835 42.2139 83.9387 41.8328L84.3835 41.292L83.4281 40.3366L82.8898 40.784C82.5083 40.5382 82.0839 40.3667 81.6388 40.2785L81.5731 39.5809H80.2209L80.1552 40.2785C79.706 40.3662 79.2773 40.5377 78.8915 40.784L78.3481 40.3366L77.3928 41.292L77.8427 41.8303ZM82.1796 42.5304C82.4351 42.7864 82.609 43.1125 82.6793 43.4673C82.7496 43.8221 82.7131 44.1899 82.5745 44.524C82.4359 44.8581 82.2013 45.1436 81.9005 45.3445C81.5997 45.5454 81.2461 45.6526 80.8844 45.6526C80.5226 45.6526 80.169 45.5454 79.8682 45.3445C79.5674 45.1436 79.3328 44.8581 79.1942 44.524C79.0556 44.1899 79.0191 43.8221 79.0894 43.4673C79.1597 43.1125 79.3336 42.7864 79.5891 42.5304C79.9327 42.187 80.3986 41.9941 80.8844 41.9941C81.3701 41.9941 81.836 42.187 82.1796 42.5304Z" fill="#E0E0E0"/>
<path d="M74.1224 53.0898C73.7689 53.6281 73.5203 54.2283 73.3895 54.8589L72.3962 54.9524V56.8783L73.3895 56.9718C73.5203 57.6024 73.7689 58.2026 74.1224 58.7409L73.4881 59.4991L74.8503 60.8589L75.6085 60.2245C76.1469 60.5778 76.7471 60.8264 77.3777 60.9574L77.4712 61.9507H79.3945L79.488 60.9574C80.1184 60.826 80.7185 60.5773 81.2572 60.2245L82.0154 60.8589L83.3751 59.4991L82.7407 58.7409C83.0942 58.2026 83.3429 57.6024 83.4736 56.9718L84.4669 56.8783V54.9524L83.4736 54.8589C83.3429 54.2283 83.0942 53.6281 82.7407 53.0898L83.3751 52.3315L82.0154 50.9718L81.2572 51.6062C80.7185 51.2533 80.1184 51.0047 79.488 50.8733L79.3945 49.88H77.4889L77.3954 50.8733C76.7648 51.0043 76.1646 51.2529 75.6262 51.6062L74.868 50.9718L73.5057 52.3315L74.1224 53.0898ZM80.2917 54.0805C80.6565 54.4447 80.905 54.909 81.0059 55.4146C81.1067 55.9201 81.0553 56.4443 80.8582 56.9206C80.6611 57.397 80.3272 57.8041 79.8986 58.0906C79.47 58.3771 78.966 58.53 78.4505 58.53C77.935 58.53 77.4311 58.3771 77.0025 58.0906C76.5739 57.8041 76.2399 57.397 76.0428 56.9206C75.8457 56.4443 75.7943 55.9201 75.8952 55.4146C75.996 54.909 76.2446 54.4447 76.6093 54.0805C77.0982 53.5932 77.7603 53.3197 78.4505 53.3197C79.1407 53.3197 79.8028 53.5932 80.2917 54.0805Z" fill="#E0E0E0"/>
<path d="M88.417 49.3164C87.9156 50.0806 87.564 50.9331 87.3808 51.8286L85.9756 51.96V54.6769L87.3808 54.8109C87.5649 55.706 87.9165 56.5584 88.417 57.323L87.5198 58.4048L89.4431 60.3256L90.5248 59.4309C91.289 59.9323 92.1416 60.2839 93.037 60.4671L93.1685 61.8698H95.8854L96.0193 60.4671C96.9145 60.283 97.7668 59.9314 98.5315 59.4309L99.6132 60.3256L101.534 58.4048L100.639 57.3205C101.14 56.5558 101.491 55.7035 101.676 54.8083L103.078 54.6744V51.96L101.676 51.8286C101.492 50.9331 101.141 50.0806 100.639 49.3164L101.534 48.2321L99.6132 46.3113L98.5315 47.2111C97.7664 46.7108 96.9143 46.3584 96.0193 46.1723L95.8854 44.7697H93.1685L93.037 46.1749C92.1416 46.358 91.289 46.7097 90.5248 47.2111L89.4431 46.3139L87.5198 48.2347L88.417 49.3164ZM97.1288 50.7191C97.643 51.2334 97.9931 51.8886 98.1349 52.6019C98.2767 53.3152 98.2038 54.0545 97.9254 54.7264C97.6471 55.3983 97.1758 55.9725 96.5711 56.3766C95.9664 56.7806 95.2554 56.9962 94.5282 56.9962C93.8009 56.9962 93.09 56.7806 92.4853 56.3766C91.8806 55.9725 91.4092 55.3983 91.1309 54.7264C90.8525 54.0545 90.7796 53.3152 90.9214 52.6019C91.0632 51.8886 91.4134 51.2334 91.9275 50.7191C92.6175 50.0298 93.5529 49.6426 94.5282 49.6426C95.5034 49.6426 96.4388 50.0298 97.1288 50.7191Z" fill="#F0F0F0"/>
<path d="M74.7238 7.79938C74.3092 8.43348 74.0177 9.13997 73.8645 9.88193L72.7019 9.9906V12.2425L73.8645 12.3537C74.0177 13.0956 74.3092 13.8021 74.7238 14.4362L73.9807 15.3334L75.573 16.9257L76.4702 16.1826C77.1046 16.5966 77.811 16.8881 78.5527 17.0419L78.6639 18.2045H80.9158L81.0245 17.0419C81.7665 16.8887 82.4729 16.5972 83.107 16.1826L84.0043 16.9257L85.5965 15.3334L84.856 14.4362C85.2706 13.8021 85.5621 13.0956 85.7153 12.3537L86.8779 12.2425V9.9906L85.7153 9.88193C85.5623 9.13948 85.2699 8.4328 84.8534 7.79938L85.5965 6.90217L84.0043 5.30994L83.107 6.05298C82.4735 5.63735 81.7668 5.34575 81.0245 5.19368L80.9158 4.02856H78.6639L78.5527 5.19368C77.8106 5.34622 77.104 5.63778 76.4702 6.05298L75.5679 5.30994L73.9757 6.90217L74.7238 7.79938ZM81.9445 8.96197C82.3706 9.3883 82.6607 9.93141 82.7782 10.5226C82.8956 11.1138 82.8352 11.7266 82.6044 12.2834C82.3737 12.8403 81.983 13.3162 81.4818 13.6511C80.9806 13.9859 80.3914 14.1646 79.7886 14.1646C79.1859 14.1646 78.5966 13.9859 78.0954 13.6511C77.5942 13.3162 77.2035 12.8403 76.9728 12.2834C76.742 11.7266 76.6816 11.1138 76.7991 10.5226C76.9165 9.93141 77.2067 9.3883 77.6328 8.96197C78.2048 8.39062 78.9802 8.0697 79.7886 8.0697C80.5971 8.0697 81.3725 8.39062 81.9445 8.96197Z" fill="#F0F0F0"/>
<path d="M17.1987 56.3677C16.8073 56.9656 16.5321 57.6318 16.3874 58.3315L15.2905 58.4351V60.5631L16.3874 60.6642C16.5324 61.3639 16.8076 62.03 17.1987 62.628L16.4986 63.4747L18.015 64.9784L18.8617 64.2784C19.4604 64.6697 20.1275 64.9449 20.828 65.0896L20.9291 66.1865H23.0571L23.1607 65.0896C23.8604 64.9449 24.5267 64.6697 25.1245 64.2784L25.9711 64.9784L27.4876 63.4747L26.7622 62.628C27.1536 62.0293 27.4288 61.3622 27.5735 60.6617L28.6704 60.5606V58.4326L27.5735 58.3315C27.4288 57.6318 27.1536 56.9656 26.7622 56.3677L27.4623 55.5211L25.9459 54.0173L25.0992 54.7174C24.5014 54.326 23.8352 54.0508 23.1354 53.9061L23.0318 52.8092H20.9164L20.8153 53.9061C20.1148 54.0508 19.4478 54.326 18.849 54.7174L18.0024 54.0173L16.486 55.5211L17.1987 56.3677ZM24.0226 57.4646C24.4246 57.8669 24.6983 58.3794 24.8091 58.9373C24.9199 59.4951 24.8628 60.0733 24.645 60.5987C24.4273 61.1241 24.0586 61.5732 23.5857 61.8891C23.1128 62.205 22.5568 62.3737 21.988 62.3737C21.4193 62.3737 20.8633 62.205 20.3904 61.8891C19.9174 61.5732 19.5488 61.1241 19.331 60.5987C19.1133 60.0733 19.0562 59.4951 19.167 58.9373C19.2778 58.3794 19.5515 57.8669 19.9535 57.4646C20.4924 56.9286 21.2216 56.6277 21.9817 56.6277C22.7418 56.6277 23.471 56.9286 24.0099 57.4646H24.0226Z" fill="#F0F0F0"/>
<path d="M112.195 69.5024H66.5125C66.1199 69.5017 65.7436 69.3454 65.466 69.0678C65.1884 68.7902 65.0322 68.4139 65.0315 68.0213V1.48103C65.0322 1.08844 65.1884 0.712125 65.466 0.434522C65.7436 0.156919 66.1199 0.000668238 66.5125 0H112.195C112.587 0.000668238 112.963 0.156919 113.241 0.434522C113.519 0.712125 113.675 1.08844 113.676 1.48103V68.0213C113.675 68.4139 113.519 68.7902 113.241 69.0678C112.963 69.3454 112.587 69.5017 112.195 69.5024ZM66.5125 0.063184C66.1367 0.0638521 65.7764 0.213446 65.5107 0.4792C65.2449 0.744953 65.0953 1.1052 65.0947 1.48103V68.0213C65.0953 68.3972 65.2449 68.7574 65.5107 69.0232C65.7764 69.2889 66.1367 69.4385 66.5125 69.4392H112.195C112.571 69.4392 112.931 69.2898 113.197 69.0239C113.463 68.758 113.612 68.3974 113.612 68.0213V1.48103C113.612 1.105 113.463 0.74436 113.197 0.478462C112.931 0.212564 112.571 0.063184 112.195 0.063184H66.5125Z" fill="#E0E0E0"/>
<path d="M59.5168 69.5024H13.8373C13.4443 69.5024 13.0673 69.3464 12.7892 69.0687C12.511 68.7911 12.3544 68.4144 12.3538 68.0213V1.48103C12.3544 1.08801 12.511 0.711305 12.7892 0.43363C13.0673 0.155955 13.4443 -5.70316e-07 13.8373 0H59.5168C59.9096 0 60.2863 0.156037 60.564 0.433784C60.8418 0.711532 60.9978 1.08824 60.9978 1.48103V68.0213C60.9978 68.4141 60.8418 68.7908 60.564 69.0686C60.2863 69.3463 59.9096 69.5024 59.5168 69.5024ZM13.8373 0.063184C13.461 0.0631834 13.1002 0.212482 12.8339 0.478308C12.5676 0.744134 12.4176 1.10476 12.4169 1.48103V68.0213C12.4156 68.2087 12.4514 68.3945 12.5221 68.568C12.5929 68.7415 12.6973 68.8993 12.8294 69.0322C12.9614 69.1652 13.1184 69.2707 13.2914 69.3427C13.4644 69.4147 13.6499 69.4518 13.8373 69.4518H59.5168C59.703 69.4518 59.8874 69.4151 60.0594 69.3439C60.2314 69.2726 60.3877 69.1682 60.5194 69.0365C60.651 68.9049 60.7555 68.7486 60.8267 68.5766C60.898 68.4045 60.9346 68.2202 60.9346 68.034V1.48103C60.9346 1.29484 60.898 1.11047 60.8267 0.938445C60.7555 0.766424 60.651 0.610121 60.5194 0.478462C60.3877 0.346803 60.2314 0.242365 60.0594 0.171111C59.8874 0.0998578 59.703 0.063184 59.5168 0.063184H13.8373Z" fill="#E0E0E0"/>
<path d="M126.368 84.9369H0V85.0001H126.368V84.9369Z" fill="#E0E0E0"/>
<path d="M17.1178 88.5409H13.0588V88.6041H17.1178V88.5409Z" fill="#E0E0E0"/>
<path d="M56.5824 87.8561H43.0535V87.9193H56.5824V87.8561Z" fill="#E0E0E0"/>
<path d="M26.5323 90.8889H17.3706V90.9521H26.5323V90.8889Z" fill="#E0E0E0"/>
<path d="M106.538 87.8232H95.6226V87.8864H106.538V87.8232Z" fill="#E0E0E0"/>
<path d="M110.39 87.8232H108.79V87.8864H110.39V87.8232Z" fill="#E0E0E0"/>
<path d="M93.5374 89.3977H79.9175V89.4609H93.5374V89.3977Z" fill="#E0E0E0"/>
<path d="M115.976 98.4482C115.976 99.305 92.3397 100 63.184 100C34.0284 100 10.3926 99.305 10.3926 98.4482C10.3926 97.5914 34.0284 96.8989 63.184 96.8989C92.3397 96.8989 115.976 97.594 115.976 98.4482Z" fill="#F5F5F5"/>
<path d="M65.8503 44.8126C65.8503 45.4546 64.9582 45.9676 63.8739 45.9525C62.7897 45.9373 61.9178 45.4091 61.9253 44.7672C61.9329 44.1252 62.8175 43.6121 63.8992 43.6298C64.9809 43.6475 65.8579 44.1783 65.8503 44.8126Z" fill="#263238"/>
<path d="M66.6996 42.6973C66.8056 42.5953 66.8696 42.4574 66.879 42.3106C66.879 41.6813 65.5547 41.1556 63.9043 41.1379C62.254 41.1202 60.9094 41.6156 60.9094 42.2424C60.9147 42.3881 60.9752 42.5264 61.0788 42.6291C61.0482 42.6887 61.031 42.7542 61.0282 42.8211C61.0335 42.9679 61.0961 43.1067 61.2026 43.2078C61.1677 43.2696 61.1487 43.3391 61.147 43.41C61.1495 43.4834 61.1669 43.5556 61.1982 43.6221C61.2295 43.6886 61.274 43.748 61.329 43.7967C61.2896 43.8588 61.2677 43.9304 61.2658 44.0039C61.2706 44.0763 61.2904 44.147 61.3239 44.2113C61.3574 44.2757 61.4039 44.3324 61.4604 44.378C61.4201 44.4408 61.3974 44.5132 61.3947 44.5878C61.3947 45.1109 62.4941 45.5532 63.8664 45.5633C65.2388 45.5734 66.3559 45.1792 66.3609 44.6459C66.3606 44.5705 66.3387 44.4969 66.2978 44.4336C66.3542 44.3885 66.4006 44.3322 66.4341 44.2683C66.4676 44.2043 66.4875 44.1341 66.4924 44.0621C66.4907 43.9895 66.4716 43.9184 66.4368 43.8548C66.5475 43.7603 66.6165 43.6259 66.6288 43.4808C66.6292 43.4083 66.611 43.3369 66.5758 43.2735C66.6872 43.1792 66.7571 43.0449 66.7704 42.8995C66.7615 42.8278 66.7374 42.7589 66.6996 42.6973Z" fill="#263238"/>
<path opacity="0.3" d="M66.6996 42.6973C66.8056 42.5953 66.8696 42.4574 66.879 42.3106C66.879 41.6813 65.5547 41.1556 63.9043 41.1379C62.254 41.1202 60.9094 41.6156 60.9094 42.2424C60.9147 42.3881 60.9752 42.5264 61.0788 42.6291C61.0482 42.6887 61.031 42.7542 61.0282 42.8211C61.0335 42.9679 61.0961 43.1067 61.2026 43.2078C61.1677 43.2696 61.1487 43.3391 61.147 43.41C61.1495 43.4834 61.1669 43.5556 61.1982 43.6221C61.2295 43.6886 61.274 43.748 61.329 43.7967C61.2896 43.8588 61.2677 43.9304 61.2658 44.0039C61.2706 44.0763 61.2904 44.147 61.3239 44.2113C61.3574 44.2757 61.4039 44.3324 61.4604 44.378C61.4201 44.4408 61.3974 44.5132 61.3947 44.5878C61.3947 45.1109 62.4941 45.5532 63.8664 45.5633C65.2388 45.5734 66.3559 45.1792 66.3609 44.6459C66.3606 44.5705 66.3387 44.4969 66.2978 44.4336C66.3542 44.3885 66.4006 44.3322 66.4341 44.2683C66.4676 44.2043 66.4875 44.1341 66.4924 44.0621C66.4907 43.9895 66.4716 43.9184 66.4368 43.8548C66.5475 43.7603 66.6165 43.6259 66.6288 43.4808C66.6292 43.4083 66.611 43.3369 66.5758 43.2735C66.6872 43.1792 66.7571 43.0449 66.7704 42.8995C66.7615 42.8278 66.7374 42.7589 66.6996 42.6973Z" fill="white"/>
<path d="M69.1738 37.1446C69.1824 36.2534 68.9655 35.3745 68.5434 34.5896C68.1212 33.8046 67.5075 33.1392 66.7593 32.655C66.011 32.1708 65.1525 31.8836 64.2635 31.8201C63.3746 31.7566 62.4839 31.9188 61.6745 32.2918C60.865 32.6647 60.1629 33.2362 59.6335 33.9532C59.1041 34.6701 58.7645 35.5093 58.6463 36.3927C58.5281 37.2761 58.6351 38.175 58.9574 39.0059C59.2798 39.8368 59.8069 40.5728 60.4898 41.1454C60.5998 41.2367 60.6857 41.3535 60.7399 41.4857C60.7941 41.618 60.815 41.7615 60.8007 41.9036V41.9466C60.8007 42.5835 62.1503 43.1168 63.8335 43.137C65.5168 43.1572 66.8664 42.6543 66.8664 42.0148V41.9744C66.8549 41.8305 66.8791 41.6861 66.9369 41.5538C66.9946 41.4215 67.0841 41.3056 67.1974 41.2162C67.8085 40.7268 68.3029 40.1076 68.6448 39.4033C68.9866 38.699 69.1674 37.9275 69.1738 37.1446Z" fill="#407BFF"/>
<path opacity="0.5" d="M69.1763 37.1446C69.1848 36.2534 68.968 35.3745 68.5458 34.5896C68.1237 33.8046 67.51 33.1392 66.7617 32.655C66.0135 32.1708 65.155 31.8836 64.266 31.8201C63.377 31.7566 62.4864 31.9188 61.6769 32.2918C60.8674 32.6647 60.1654 33.2362 59.6359 33.9532C59.1065 34.6701 58.767 35.5093 58.6488 36.3927C58.5306 37.2761 58.6376 38.175 58.9599 39.0059C59.2822 39.8368 59.8093 40.5728 60.4923 41.1454C60.6025 41.2365 60.6888 41.3533 60.7434 41.4855C60.798 41.6177 60.8194 41.7613 60.8057 41.9036C60.8032 41.9179 60.8032 41.9324 60.8057 41.9466C60.8057 42.5835 62.1527 43.1168 63.8259 43.137C65.499 43.1572 66.8587 42.6543 66.8739 42.0148V41.9744C66.8623 41.8308 66.8862 41.6865 66.9435 41.5543C67.0008 41.4221 67.0897 41.306 67.2024 41.2162C67.813 40.7266 68.3069 40.1072 68.6484 39.4029C68.9898 38.6987 69.1701 37.9273 69.1763 37.1446Z" fill="white"/>
<path opacity="0.2" d="M66.5781 34.0689C66.5781 35.0975 65.3726 35.9341 63.8789 35.9341C62.3852 35.9341 61.1797 35.0975 61.1797 34.0689C61.1797 33.0403 62.3852 32.2012 63.8789 32.2012C65.3726 32.2012 66.5781 33.0579 66.5781 34.0689Z" fill="white"/>
<path d="M59.858 39.0932C59.3928 38.2959 59.2129 37.3639 59.3479 36.4507C59.483 35.5374 59.9249 34.6974 60.601 34.0688" stroke="white" stroke-width="0.5" stroke-linecap="round" stroke-linejoin="round"/>
<path d="M61.4451 44.3905C62.9895 45.0208 64.7157 45.0416 66.2749 44.4486C65.5114 44.7806 64.6862 44.9471 63.8537 44.9371C63.0213 44.927 62.2003 44.7408 61.4451 44.3905Z" fill="#263238"/>
<path d="M61.4148 43.8245C62.9595 44.4535 64.6852 44.4743 66.2446 43.8826C65.4808 44.2133 64.6558 44.3791 63.8235 44.3691C62.9912 44.3591 62.1704 44.1735 61.4148 43.8245Z" fill="#263238"/>
<path d="M61.3745 43.2557C62.9187 43.8876 64.6454 43.9083 66.2043 43.3139C65.4408 43.6458 64.6157 43.8123 63.7832 43.8023C62.9507 43.7923 62.1298 43.606 61.3745 43.2557Z" fill="#263238"/>
<path d="M62.7443 42.0022C63.1477 40.6057 63.2169 39.1339 62.9464 37.7056C62.9035 37.4757 62.7999 37.2002 62.5926 37.2002C62.3854 37.2002 62.2868 37.4226 62.2489 37.6273C62.1074 38.3526 62.4839 39.0906 62.9667 39.5936C63.2003 39.8786 63.532 40.0661 63.8967 40.1193C64.0795 40.1138 64.2589 40.0686 64.4225 39.987C64.5861 39.9054 64.7301 39.7893 64.8445 39.6467C65.0981 39.3628 65.2807 39.0228 65.3774 38.6546C65.474 38.2864 65.482 37.9006 65.4005 37.5287C65.3272 37.2153 65.1023 36.8741 64.8217 36.9348C64.7332 36.9647 64.6547 37.0185 64.5949 37.0904C64.5351 37.1622 64.4964 37.2492 64.4831 37.3417C64.449 37.5357 64.449 37.7341 64.4831 37.9281C64.6584 39.3253 64.9977 40.697 65.494 42.0148" stroke="#263238" stroke-width="0.5" stroke-linecap="round" stroke-linejoin="round"/>
<path d="M89.5923 24.667C89.7515 24.6973 91.968 27.303 91.968 27.303L93.8711 24.5457L89.5923 24.667Z" fill="#CBD9F9"/>
<path d="M103.687 10.069H81.1079C80.537 10.069 80.0742 10.5318 80.0742 11.1027V23.6636C80.0742 24.2345 80.537 24.6973 81.1079 24.6973H103.687C104.258 24.6973 104.721 24.2345 104.721 23.6636V11.1027C104.721 10.5318 104.258 10.069 103.687 10.069Z" fill="#CBD9F9"/>
<path d="M83.7817 18.1944C83.8879 18.0984 86.7716 15.25 86.7716 15.25L89.6174 16.6502L92.3975 13.3646L95.2408 17.464L98.0209 15.6544" stroke="#263238" stroke-width="0.5" stroke-miterlimit="10"/>
<path d="M84.6716 19.4758H83.3372V22.4303H84.6716V19.4758Z" fill="#407BFF"/>
<path d="M87.4187 17.5221H86.0842V22.4302H87.4187V17.5221Z" fill="#407BFF"/>
<path d="M90.2165 18.0175H88.8821V22.4328H90.2165V18.0175Z" fill="#407BFF"/>
<path d="M93.0674 15.25H91.7329V22.4328H93.0674V15.25Z" fill="#407BFF"/>
<path d="M95.946 19.0588H94.6116V22.4329H95.946V19.0588Z" fill="#407BFF"/>
<path d="M84.7222 17.8583C84.7227 18.0004 84.681 18.1394 84.6024 18.2578C84.5239 18.3761 84.4119 18.4685 84.2808 18.5232C84.1497 18.578 84.0053 18.5925 83.8659 18.5651C83.7265 18.5377 83.5984 18.4696 83.4977 18.3693C83.3971 18.269 83.3285 18.1411 83.3006 18.0018C83.2727 17.8625 83.2868 17.718 83.341 17.5867C83.3953 17.4554 83.4873 17.3432 83.6054 17.2642C83.7234 17.1852 83.8623 17.1431 84.0044 17.1431C84.1943 17.1431 84.3765 17.2183 84.511 17.3524C84.6456 17.4865 84.7215 17.6684 84.7222 17.8583Z" fill="#407BFF"/>
<path d="M87.4692 15.25C87.4692 15.392 87.4271 15.5307 87.3483 15.6488C87.2694 15.7668 87.1573 15.8588 87.0261 15.9131C86.895 15.9675 86.7507 15.9817 86.6114 15.954C86.4722 15.9263 86.3443 15.8579 86.2439 15.7575C86.1435 15.6572 86.0752 15.5293 86.0475 15.39C86.0198 15.2508 86.034 15.1065 86.0883 14.9753C86.1427 14.8442 86.2347 14.7321 86.3527 14.6532C86.4707 14.5743 86.6095 14.5322 86.7515 14.5322C86.9418 14.5322 87.1244 14.6078 87.259 14.7425C87.3936 14.8771 87.4692 15.0596 87.4692 15.25Z" fill="#407BFF"/>
<path d="M90.3352 16.4253C90.3357 16.5674 90.294 16.7064 90.2155 16.8248C90.1369 16.9432 90.025 17.0355 89.8939 17.0903C89.7627 17.145 89.6183 17.1595 89.4789 17.1321C89.3395 17.1047 89.2114 17.0366 89.1108 16.9363C89.0102 16.836 88.9415 16.7081 88.9136 16.5688C88.8857 16.4295 88.8998 16.2851 88.9541 16.1538C89.0083 16.0225 89.1003 15.9102 89.2184 15.8312C89.3365 15.7522 89.4754 15.7101 89.6174 15.7101C89.8073 15.7101 89.9895 15.7854 90.1241 15.9194C90.2586 16.0535 90.3345 16.2354 90.3352 16.4253Z" fill="#407BFF"/>
<path d="M93.1155 13.3773C93.1155 13.5194 93.0733 13.6583 92.9943 13.7764C92.9154 13.8944 92.8031 13.9864 92.6718 14.0407C92.5405 14.0949 92.396 14.109 92.2567 14.0811C92.1174 14.0532 91.9896 13.9846 91.8893 13.884C91.789 13.7833 91.7208 13.6552 91.6934 13.5158C91.666 13.3764 91.6806 13.232 91.7353 13.1009C91.79 12.9698 91.8824 12.8579 92.0008 12.7793C92.1191 12.7007 92.2582 12.6591 92.4002 12.6596C92.5902 12.6602 92.7721 12.7361 92.9061 12.8707C93.0402 13.0052 93.1155 13.1874 93.1155 13.3773Z" fill="#407BFF"/>
<path d="M95.9612 17.4767C95.9617 17.6188 95.92 17.7578 95.8414 17.8762C95.7629 17.9945 95.6509 18.0869 95.5198 18.1416C95.3887 18.1964 95.2443 18.2109 95.1049 18.1835C94.9655 18.1561 94.8374 18.088 94.7368 17.9877C94.6361 17.8874 94.5675 17.7595 94.5396 17.6202C94.5117 17.4809 94.5258 17.3365 94.58 17.2052C94.6343 17.0739 94.7263 16.9616 94.8444 16.8826C94.9625 16.8036 95.1013 16.7615 95.2434 16.7615C95.4333 16.7615 95.6155 16.8368 95.75 16.9708C95.8846 17.1049 95.9605 17.2868 95.9612 17.4767Z" fill="#407BFF"/>
<path d="M98.7968 17.3655H97.4624V22.4303H98.7968V17.3655Z" fill="#407BFF"/>
<path opacity="0.3" d="M87.4187 17.5221H86.0842V22.4302H87.4187V17.5221Z" fill="black"/>
<path opacity="0.3" d="M93.0674 15.25H91.7329V22.4328H93.0674V15.25Z" fill="black"/>
<path opacity="0.3" d="M98.7968 17.3655H97.4624V22.4303H98.7968V17.3655Z" fill="black"/>
<path d="M101.749 19.0588H100.414V22.4329H101.749V19.0588Z" fill="#407BFF"/>
<path d="M98.0186 15.6671L101.079 17.3655" stroke="#263238" stroke-width="0.5" stroke-miterlimit="10"/>
<path d="M98.8955 15.6671C98.8955 15.8091 98.8534 15.9478 98.7745 16.0659C98.6957 16.1839 98.5836 16.2759 98.4524 16.3302C98.3213 16.3846 98.1769 16.3988 98.0377 16.3711C97.8985 16.3434 97.7706 16.275 97.6702 16.1747C97.5698 16.0743 97.5014 15.9464 97.4738 15.8071C97.4461 15.6679 97.4603 15.5236 97.5146 15.3924C97.5689 15.2613 97.6609 15.1492 97.779 15.0703C97.897 14.9914 98.0358 14.9493 98.1777 14.9493C98.3681 14.9493 98.5507 15.025 98.6853 15.1596C98.8199 15.2942 98.8955 15.4767 98.8955 15.6671Z" fill="#407BFF"/>
<path d="M101.797 17.3655C101.797 17.5076 101.756 17.6466 101.677 17.765C101.599 17.8833 101.487 17.9757 101.356 18.0304C101.224 18.0852 101.08 18.0997 100.941 18.0723C100.801 18.0449 100.673 17.9768 100.572 17.8765C100.472 17.7762 100.403 17.6483 100.375 17.509C100.347 17.3697 100.361 17.2252 100.416 17.0939C100.47 16.9626 100.562 16.8504 100.68 16.7714C100.798 16.6924 100.937 16.6503 101.079 16.6503C101.269 16.6503 101.451 16.7255 101.586 16.8596C101.72 16.9937 101.796 17.1756 101.797 17.3655Z" fill="#407BFF"/>
<path d="M84.2141 83.2562V71.4964C84.2134 71.3759 84.2467 71.2576 84.3102 71.1552C84.3737 71.0528 84.4649 70.9705 84.5732 70.9176C84.6815 70.8648 84.8025 70.8437 84.9223 70.8566C85.0422 70.8696 85.1558 70.9161 85.2503 70.9909L92.7263 76.8696C92.803 76.9296 92.865 77.0063 92.9077 77.0939C92.9503 77.1815 92.9725 77.2776 92.9725 77.375C92.9725 77.4724 92.9503 77.5686 92.9077 77.6562C92.865 77.7437 92.803 77.8205 92.7263 77.8805L85.2503 83.7591C85.156 83.8338 85.0425 83.8803 84.923 83.8934C84.8034 83.9064 84.6826 83.8855 84.5743 83.833C84.4661 83.7804 84.3749 83.6985 84.3112 83.5964C84.2475 83.4944 84.2138 83.3765 84.2141 83.2562Z" fill="#407BFF"/>
<path d="M85.4247 73.8796H50.1655V80.8703H85.4247V73.8796Z" fill="#407BFF"/>
<path d="M56.3448 80.8829H23.2769L27.0426 77.3219L23.2769 73.7179H56.3448C59.7472 73.7516 63.1224 73.1106 66.2755 71.8319C69.4286 70.5532 72.297 68.6622 74.7148 66.2682C77.1326 63.8742 79.0519 61.0247 80.3618 57.8845C81.6717 54.7442 82.3461 51.3755 82.3461 47.973C82.3461 44.5704 81.6717 41.2017 80.3618 38.0614C79.0519 34.9211 77.1326 32.0717 74.7148 29.6777C72.297 27.2837 69.4286 25.3927 66.2755 24.114C63.1224 22.8353 59.7472 22.1943 56.3448 22.228V15.0604C65.0734 15.0604 73.4445 18.5279 79.6166 24.6999C85.7887 30.872 89.2561 39.2431 89.2561 47.9717C89.2561 56.7003 85.7887 65.0714 79.6166 71.2435C73.4445 77.4155 65.0734 80.8829 56.3448 80.8829Z" fill="#407BFF"/>
<g opacity="0.4">
<path d="M56.3448 80.8829H23.2769L27.0426 77.3219L23.2769 73.7179H56.3448C59.7472 73.7516 63.1224 73.1106 66.2755 71.8319C69.4286 70.5532 72.297 68.6622 74.7148 66.2682C77.1326 63.8742 79.0519 61.0247 80.3618 57.8845C81.6717 54.7442 82.3461 51.3755 82.3461 47.973C82.3461 44.5704 81.6717 41.2017 80.3618 38.0614C79.0519 34.9211 77.1326 32.0717 74.7148 29.6777C72.297 27.2837 69.4286 25.3927 66.2755 24.114C63.1224 22.8353 59.7472 22.1943 56.3448 22.228V15.0604C65.0734 15.0604 73.4445 18.5279 79.6166 24.6999C85.7887 30.872 89.2561 39.2431 89.2561 47.9717C89.2561 56.7003 85.7887 65.0714 79.6166 71.2435C73.4445 77.4155 65.0734 80.8829 56.3448 80.8829Z" fill="white"/>
</g>
<path d="M31.8118 70.9682C27.9668 66.7005 25.2834 61.516 24.0195 55.9124C22.7555 50.3089 22.9533 44.4745 24.594 38.9694C26.2346 33.4643 29.2629 28.4735 33.3882 24.476C37.5135 20.4786 42.5972 17.6088 48.1512 16.1422L45.6819 19.2433L50.0088 23.2011C45.6645 24.3492 41.6884 26.5947 38.4619 29.722C35.2354 32.8494 32.867 36.7536 31.584 41.0599C30.301 45.3662 30.1464 49.93 31.1352 54.3133C32.124 58.6965 34.2229 62.752 37.2305 66.0904L31.8118 70.9682Z" fill="#407BFF"/>
<path d="M32.5321 71.3877C32.8025 71.3194 41.7316 71.3877 41.7316 71.3877L37.2304 66.0802L31.8118 70.9681L32.5321 71.3877Z" fill="#407BFF"/>
<path d="M56.4865 12.4497L57.1487 24.1893C57.156 24.31 57.1292 24.4304 57.0711 24.5365C57.013 24.6427 56.9262 24.7302 56.8205 24.7891C56.7148 24.848 56.5947 24.8759 56.4739 24.8695C56.3531 24.8631 56.2366 24.8227 56.1377 24.7529L48.3434 19.3014C48.2628 19.246 48.196 19.1728 48.1481 19.0876C48.1002 19.0023 48.0725 18.9072 48.0671 18.8096C48.0618 18.7119 48.0789 18.6144 48.1171 18.5244C48.1554 18.4344 48.2137 18.3543 48.2878 18.2904L55.4174 11.9998C55.508 11.9189 55.6196 11.8653 55.7394 11.8453C55.8592 11.8253 55.9822 11.8397 56.0942 11.8868C56.2061 11.9339 56.3024 12.0118 56.3719 12.1114C56.4413 12.2111 56.4811 12.3284 56.4865 12.4497Z" fill="#407BFF"/>
<path opacity="0.4" d="M56.4865 12.4497L57.1487 24.1893C57.156 24.31 57.1292 24.4304 57.0711 24.5365C57.013 24.6427 56.9262 24.7302 56.8205 24.7891C56.7148 24.848 56.5947 24.8759 56.4739 24.8695C56.3531 24.8631 56.2366 24.8227 56.1377 24.7529L48.3434 19.3014C48.2628 19.246 48.196 19.1728 48.1481 19.0876C48.1002 19.0023 48.0725 18.9072 48.0671 18.8096C48.0618 18.7119 48.0789 18.6144 48.1171 18.5244C48.1554 18.4344 48.2137 18.3543 48.2878 18.2904L55.4174 11.9998C55.508 11.9189 55.6196 11.8653 55.7394 11.8453C55.8592 11.8253 55.9822 11.8397 56.0942 11.8868C56.2061 11.9339 56.3024 12.0118 56.3719 12.1114C56.4413 12.2111 56.4811 12.3284 56.4865 12.4497Z" fill="white"/>
<path d="M52.8066 37.5135C53.3465 37.8533 53.7907 38.3253 54.0972 38.8848C54.4037 39.4443 54.5623 40.0727 54.5581 40.7106C54.3887 42.0021 53.9389 42.917 53.5901 44.1731L50.1655 36.6138C50.9667 36.7705 51.3256 36.6087 52.8066 37.5135Z" fill="#263238"/>
<path d="M51.0878 36.8488C49.7458 36.2245 48.4291 36.9625 47.6633 37.473C47.2474 37.8253 46.9109 38.2617 46.6761 38.7536C46.4413 39.2455 46.3134 39.7815 46.301 40.3264C46.301 41.3551 46.301 42.601 46.9253 43.1394C47.0982 43.2929 47.3012 43.4089 47.5214 43.4798C47.7415 43.5507 47.9741 43.5751 48.2041 43.5513L53.2968 38.853C52.7425 38.0083 51.9823 37.3185 51.0878 36.8488Z" fill="#263238"/>
<path d="M51.1765 50.767C50.7847 51.1714 50.4183 51.0349 49.9128 50.8226C46.8041 49.703 47.7241 48.2018 47.7241 48.2018C48.3155 47.5093 48.3408 46.6853 48.1259 45.4217C48.1222 45.3855 48.1222 45.3491 48.1259 45.313C48.128 45.1442 48.1818 44.9801 48.2801 44.8429C48.4055 44.6607 48.5979 44.5355 48.8153 44.4948C49.0327 44.454 49.2574 44.5011 49.4402 44.6256L50.8328 45.0249C50.8328 45.0426 50.8327 45.0628 50.8454 45.083C50.8454 45.7755 50.8277 46.3113 50.8328 46.7308C50.8365 46.7822 50.8365 46.8337 50.8328 46.885C50.8378 46.9371 50.8378 46.9896 50.8328 47.0417C50.8656 47.6179 51.8437 48.4671 52.2405 48.6668C52.4781 48.8033 52.5033 49.4048 51.1765 50.767Z" fill="#B97964"/>
<path opacity="0.2" d="M50.815 45.0173C50.8165 45.038 50.8207 45.0584 50.8276 45.078C50.8276 45.7705 50.8124 46.3063 50.8276 46.7258C50.8238 46.7771 50.8238 46.8287 50.8276 46.88C50.8276 46.933 50.8276 46.9887 50.8478 47.0417C49.7908 46.7529 48.8472 46.148 48.1436 45.308C48.1442 45.1417 48.1934 44.9791 48.2851 44.8404C48.4084 44.6568 48.5995 44.5296 48.8164 44.4865C49.0333 44.4434 49.2585 44.488 49.4426 44.6104L50.815 45.0173Z" fill="black"/>
<path d="M47.0645 40.6247C47.1175 43.0055 47.0872 44.0088 48.2195 45.3028C49.9229 47.2438 52.7687 46.7257 53.4309 44.3904C54.0046 42.2877 53.8327 38.7544 51.5884 37.6601C49.3441 36.5657 47.0088 38.2414 47.0645 40.6247Z" fill="#B97964"/>
<path d="M46.0105 42.6618C46.1155 42.8935 46.2655 43.1021 46.4515 43.2756C46.6376 43.4491 46.8562 43.5841 47.0947 43.6727C47.7139 43.885 48.1258 42.8943 47.9641 42.2422C47.8863 41.9485 47.7065 41.6921 47.4569 41.5189C47.2073 41.3457 46.9042 41.2671 46.6019 41.297C45.9978 41.3627 45.7451 42.0754 46.0105 42.6618Z" fill="#B97964"/>
<path opacity="0.2" d="M47.3576 42.6618C47.3617 42.4314 47.2743 42.2087 47.1147 42.0425C46.9552 41.8763 46.7362 41.78 46.5059 41.7747" stroke="black" stroke-width="0.5" stroke-linecap="round" stroke-linejoin="round"/>
<path d="M50.1655 41.6509C50.1655 41.9036 50.2767 42.1235 50.4334 42.1412C50.5901 42.1589 50.7241 41.9643 50.7342 41.7115C50.7443 41.4588 50.623 41.2389 50.4663 41.2212C50.3096 41.2035 50.1756 41.3981 50.1655 41.6509Z" fill="#263238"/>
<path d="M52.5234 41.8403C52.5234 42.0931 52.6346 42.3003 52.7888 42.3155C52.943 42.3306 53.0744 42.1563 53.0896 41.9035C53.1047 41.6508 52.9784 41.4435 52.8217 41.4284C52.665 41.4132 52.531 41.5952 52.5234 41.8403Z" fill="#263238"/>
<path d="M49.7409 40.7258C49.7562 40.7288 49.772 40.7286 49.7873 40.7251C49.8025 40.7216 49.8168 40.7149 49.8293 40.7055C49.9406 40.6155 50.0726 40.5544 50.2133 40.528C50.354 40.5015 50.4991 40.5104 50.6356 40.5539C50.6495 40.5595 50.6643 40.5621 50.6793 40.5616C50.6943 40.5612 50.709 40.5576 50.7225 40.5512C50.736 40.5448 50.7481 40.5357 50.7579 40.5244C50.7677 40.5131 50.7751 40.4999 50.7796 40.4857C50.7881 40.4551 50.7851 40.4225 50.7711 40.3941C50.7572 40.3657 50.7332 40.3434 50.7038 40.3315C50.5337 40.2744 50.3521 40.2609 50.1754 40.2922C49.9988 40.3236 49.8329 40.3988 49.6929 40.5109C49.6694 40.5315 49.6547 40.5602 49.6519 40.5913C49.649 40.6224 49.6583 40.6533 49.6777 40.6777C49.693 40.7001 49.7152 40.7169 49.7409 40.7258Z" fill="#263238"/>
<path d="M53.4156 40.7081C53.4285 40.7057 53.4407 40.7003 53.4512 40.6924C53.4617 40.6845 53.4703 40.6743 53.4762 40.6626C53.4883 40.6347 53.4901 40.6034 53.4813 40.5742C53.4725 40.5451 53.4537 40.52 53.4282 40.5034C53.2942 40.3986 53.1354 40.33 52.9672 40.3043C52.799 40.2786 52.627 40.2967 52.4678 40.3568C52.443 40.3716 52.425 40.3954 52.4175 40.4232C52.4099 40.451 52.4135 40.4807 52.4274 40.5059C52.4391 40.5326 52.4604 40.5539 52.4871 40.5656C52.5138 40.5773 52.5439 40.5785 52.5714 40.5691C52.6978 40.5229 52.8339 40.51 52.9667 40.5317C53.0995 40.5534 53.2245 40.6089 53.3296 40.693C53.3417 40.7021 53.3558 40.7082 53.3708 40.7109C53.3857 40.7135 53.4011 40.7126 53.4156 40.7081Z" fill="#263238"/>
<path d="M51.8917 41.671C52.0638 42.198 52.2891 42.706 52.5639 43.1874C52.5786 43.2118 52.5875 43.2392 52.5898 43.2676C52.5921 43.2959 52.5878 43.3244 52.5773 43.3509C52.5668 43.3773 52.5503 43.4009 52.5291 43.4199C52.508 43.4389 52.4827 43.4528 52.4553 43.4604C52.2409 43.5078 52.0175 43.4937 51.8108 43.42L51.8917 41.671Z" fill="#A24E3F"/>
<path d="M50.3752 41.2212L50.9363 41.1378C50.9363 41.1378 50.6002 41.522 50.3752 41.2212Z" fill="#263238"/>
<path d="M52.7661 41.4259L53.3247 41.3425C53.3247 41.3425 52.991 41.7267 52.7661 41.4259Z" fill="#263238"/>
<path d="M51.6567 44.0745C51.4865 44.2854 51.3319 44.5084 51.1942 44.7418C51.1487 44.7266 51.1057 44.7089 51.0603 44.6887C50.4587 44.436 50.2591 44.1377 50.2212 43.8648C50.2058 43.7314 50.2222 43.5963 50.2692 43.4705C50.2934 43.3988 50.3274 43.3307 50.3703 43.2683C50.6759 43.5834 51.0456 43.829 51.4545 43.9886C51.5758 44.0442 51.6567 44.0745 51.6567 44.0745Z" fill="#263238"/>
<path d="M51.4544 43.9886L51.3053 44.1781C50.7366 43.9507 50.3702 43.7131 50.2615 43.4679C50.2857 43.3962 50.3197 43.3282 50.3626 43.2657C50.6701 43.5826 51.0426 43.8292 51.4544 43.9886Z" fill="white"/>
<path d="M51.0525 44.6837C50.451 44.4309 50.2513 44.1327 50.2134 43.8597C50.4402 43.9564 50.6481 44.0925 50.8275 44.2616C50.9452 44.375 51.024 44.5227 51.0525 44.6837Z" fill="#DE5753"/>
<path d="M47.8883 41.2034C47.8883 41.2034 49.2481 39.6491 49.291 38.3222C49.291 38.3222 54.1562 37.2405 53.7089 41.441C53.7089 41.441 54.7602 37.8092 50.7847 37.2152C46.8092 36.6213 45.9827 41.815 47.7898 43.6246C47.7974 43.6069 47.0467 42.179 47.8883 41.2034Z" fill="#263238"/>
<path d="M43.6475 38.0417C43.6804 38.4225 43.8233 38.7855 44.059 39.0863C44.2947 39.3872 44.6128 39.613 44.9746 39.7362C45.3364 39.8593 45.7262 39.8745 46.0965 39.7799C46.4668 39.6852 46.8015 39.4849 47.0599 39.2032C47.3182 38.9216 47.489 38.5708 47.5514 38.1938C47.6138 37.8167 47.5651 37.4296 47.4112 37.0798C47.2574 36.7299 47.005 36.4324 46.6849 36.2236C46.3648 36.0147 45.9909 35.9035 45.6087 35.9036C45.0661 35.9298 44.5557 36.1691 44.1885 36.5694C43.8213 36.9698 43.6269 37.4988 43.6475 38.0417Z" fill="#263238"/>
<path d="M52.5916 37.7359C53.1154 38.2378 53.4652 38.894 53.5899 39.6087C53.5899 40.1268 52.8848 40.5008 52.8848 40.5008L52.023 39.3762V40.3694C51.4303 40.3287 50.8613 40.1207 50.3822 39.7695C49.903 39.4183 49.5334 38.9384 49.3162 38.3854L50.1022 36.9802C50.1022 36.9802 52.1241 37.3315 52.5916 37.7359Z" fill="#263238"/>
<path d="M45.8715 39.1765C45.7461 39.7434 45.4203 40.2459 44.9541 40.5919C45.2055 40.6121 45.4569 40.5519 45.6719 40.42C45.6616 40.6234 45.6163 40.8234 45.5379 41.0114C45.8225 40.771 46.0499 40.4703 46.2038 40.1311C46.3577 39.7918 46.4341 39.4226 46.4276 39.0502L45.8715 39.1765Z" fill="#263238"/>
<path d="M73.728 90.4289L71.3675 90.4971C71.3675 90.4971 67.1544 82.3868 65.1325 77.8401C62.7441 72.467 63.2698 70.7357 62.552 70.7054C61.2277 70.6472 47.724 76.857 44.3424 73.4122C40.9608 69.9674 45.8588 61.6701 45.8588 61.6701C45.8588 61.6701 53.3954 60.505 54.0096 62.3449C54.1612 62.8883 54.4898 63.4493 54.5681 64.0079C54.6465 64.5664 54.8436 65.3752 54.8436 65.3752C55.0205 65.3297 60.1864 64.8293 63.3937 64.9026C64.3391 64.9264 65.258 65.2207 66.0414 65.7506C66.8248 66.2805 67.44 67.0238 67.814 67.8924C70.7078 74.5647 73.728 90.4289 73.728 90.4289Z" fill="black"/>
<path d="M49.9558 74.231C49.9558 74.231 50.5068 74.231 59.0543 73.8443C59.0543 73.8443 57.8816 76.6244 57.5556 82.3236C57.4216 84.6689 57.8083 92.2763 57.5025 95.6402C57.6491 95.85 59.2211 96.545 60.179 95.8424C60.179 95.8424 65.724 75.8308 65.6684 73.1164C65.6128 70.402 62.4662 69.6008 62.4662 69.6008C62.4662 69.6008 56.4006 73.1164 49.9558 74.231Z" fill="black"/>
<path opacity="0.2" d="M57.9068 71.9918C59.0762 71.5183 60.2244 70.9986 61.3516 70.4324C63.3053 69.4468 65.7063 70.713 65.9009 72.8941C65.9009 72.9674 65.9009 73.0407 65.9135 73.1165C65.9388 74.2184 64.9556 78.3557 63.5454 82.8519C63.5833 82.584 63.6338 82.3211 63.697 82.0608C65.0972 76.445 65.7973 73.5259 65.0972 72.1687C64.6256 71.324 63.8777 70.6673 62.9792 70.3086L55.3416 74.0314C51.1335 74.2159 50.5067 74.2235 50.4309 74.2235C52.9933 73.7399 55.4987 72.992 57.9068 71.9918Z" fill="black"/>
<path d="M60.5781 94.7076C60.5795 94.6784 60.5749 94.6493 60.5645 94.622C60.5541 94.5947 60.5383 94.5699 60.5179 94.549C60.4975 94.5282 60.473 94.5117 60.446 94.5007C60.4189 94.4897 60.3899 94.4844 60.3607 94.4852H59.6455C59.4635 94.4852 59.2664 94.8062 59.1552 94.9477C58.6775 95.5694 58.3363 95.3217 57.8485 94.7152C57.5301 94.6722 57.4341 95.0361 57.4063 95.1347L56.7542 97.3007C56.7273 97.3875 56.7358 97.4814 56.778 97.5619C56.8201 97.6424 56.8925 97.703 56.9791 97.7303C57.011 97.7403 57.0443 97.7454 57.0777 97.7455L59.7238 97.8087L63.4315 97.8996C64.4424 97.9224 64.6749 96.9089 64.2605 96.8053C62.4003 96.3478 61.0886 95.764 60.5225 95.2055C60.4416 95.1322 60.5604 94.93 60.5781 94.7076Z" fill="#407BFF"/>
<path d="M60.9092 95.4381C60.7706 95.4545 60.6371 95.5008 60.518 95.5736C60.3989 95.6465 60.297 95.7442 60.2192 95.8602" stroke="white" stroke-width="0.5" stroke-linecap="round" stroke-linejoin="round"/>
<path d="M61.4148 95.759C61.2762 95.7766 61.1429 95.8235 61.0239 95.8967C60.9049 95.97 60.803 96.0678 60.7249 96.1836" stroke="white" stroke-width="0.5" stroke-linecap="round" stroke-linejoin="round"/>
<path d="M62.0616 96.0901C61.9225 96.1062 61.7886 96.1522 61.6691 96.2251C61.5495 96.298 61.4472 96.3959 61.3691 96.5122" stroke="white" stroke-width="0.5" stroke-linecap="round" stroke-linejoin="round"/>
<path d="M73.6118 88.8365L72.8536 89.107C72.7698 89.1382 72.6945 89.1889 72.6339 89.2548C72.5733 89.3206 72.5291 89.3999 72.5049 89.4861C72.2825 90.2443 71.8755 90.1305 71.2007 89.7388C70.8874 89.8121 70.9303 90.1862 70.948 90.2872L71.1224 92.5416C71.1253 92.5868 71.1371 92.631 71.1571 92.6716C71.1771 92.7122 71.2049 92.7484 71.2389 92.7783C71.273 92.8081 71.3126 92.8309 71.3555 92.8454C71.3984 92.8599 71.4437 92.8657 71.4889 92.8626C71.5219 92.8602 71.5543 92.8525 71.5849 92.8399L74.0769 91.9427L77.5646 90.679C78.5149 90.3353 78.3658 89.3066 77.9437 89.3597C76.0406 89.6124 74.6076 89.5366 73.8797 89.2182C73.7433 89.1777 73.8216 89.0741 73.6118 88.8365Z" fill="#407BFF"/>
<path d="M74.3473 89.3295C74.2236 89.3951 74.1156 89.4867 74.0305 89.5979C73.9455 89.7091 73.8854 89.8374 73.8545 89.9739" stroke="white" stroke-width="0.5" stroke-linecap="round" stroke-linejoin="round"/>
<path d="M74.9412 89.4178C74.8179 89.4836 74.7103 89.5753 74.6257 89.6865C74.541 89.7977 74.4814 89.9259 74.4509 90.0623" stroke="white" stroke-width="0.5" stroke-linecap="round" stroke-linejoin="round"/>
<path d="M75.6337 89.4988C75.5103 89.5648 75.4025 89.6565 75.3175 89.7677C75.2325 89.8788 75.1723 90.0069 75.1409 90.1433" stroke="white" stroke-width="0.5" stroke-linecap="round" stroke-linejoin="round"/>
<path d="M56.1908 65.2234L55.1066 65.3271C55.1066 65.3271 55.0156 64.5815 54.9246 64.0305C54.8336 63.4796 54.2321 61.5942 54.083 61.0508C50.9794 61.3591 45.7124 61.1746 45.7124 61.1746C45.7124 61.1746 40.9609 69.9622 44.34 73.3969C46.3619 75.4567 52.3467 74.2512 56.7721 72.4416L56.1908 65.2234Z" fill="black"/>
<path opacity="0.3" d="M55.0964 65.0289L50.3374 66.0221C50.3374 66.0221 52.9406 64.6094 54.9144 64.0356C55.0155 64.5992 55.0964 65.0289 55.0964 65.0289Z" fill="black"/>
<path d="M62.0844 53.8428C62.1122 53.4232 60.8713 55.8217 60.8713 55.8217L58.7761 54.3432L60.4442 52.665C60.4442 52.665 62.1375 53.772 62.1097 53.8074" fill="#B97964"/>
<path d="M53.6811 48.4166C54.2357 48.6892 54.7307 49.0694 55.1372 49.5349C55.5438 50.0004 55.8538 50.5421 56.0492 51.1285C56.52 52.6559 56.8583 54.2211 57.0601 55.8066L59.7038 53.4511L61.6751 54.9145C61.6751 54.9145 59.0947 58.8369 57.3533 60.366C55.9051 61.6296 54.2674 59.173 54.2674 59.173L53.5547 48.356L53.6811 48.4166Z" fill="black"/>
<path opacity="0.2" d="M48.5656 62.4611L47.9969 71.3801L42.8967 70.771V69.8561L48.5656 62.4611Z" fill="black"/>
<path d="M46.0991 62.6835C45.8994 60.4089 45.0881 56.2741 43.7132 51.9195C43.2634 50.5041 44.8708 48.9397 44.8708 48.9397C44.8708 48.9397 45.9095 48.8563 46.0991 48.8361C46.2886 48.8159 46.5211 48.7906 46.736 48.7729C48.1904 48.6176 49.6542 48.5678 51.1159 48.6238C51.4798 48.644 51.8513 48.6743 52.2153 48.7047C52.3341 48.7173 53.0973 48.7299 53.2262 48.74C53.2262 48.74 55.2986 51.1663 55.4099 52.8773C55.4705 53.8327 55.933 54.2446 55.8799 56.5319C55.8799 58.0837 54.7452 60.3457 54.6415 62.5293L46.0991 62.6835Z" fill="white"/>
<path d="M48.9246 55.0812C48.8159 51.5303 48.3964 49.2683 48.2043 48.414C48.1805 48.3048 48.1168 48.2085 48.0256 48.144C47.9344 48.0794 47.8223 48.0513 47.7114 48.0653L46.3391 48.3559C44.9945 48.7123 44.2742 48.5202 43.5261 49.5185C43.3821 49.7106 43.2608 51.1992 43.2734 51.4014C43.4226 52.3584 43.6268 53.306 43.885 54.2396C44.1175 55.1798 44.3905 56.2311 44.6559 57.2244C44.992 58.4881 45.2725 58.8192 45.3812 59.2261L41.9036 69.4897C41.8806 69.5537 41.8725 69.6221 41.8799 69.6897C41.8873 69.7573 41.91 69.8223 41.9463 69.8798C41.9826 69.9373 42.0315 69.9858 42.0894 70.0215C42.1472 70.0573 42.2125 70.0794 42.2801 70.0861L47.2616 70.6093C47.3205 70.6171 47.3804 70.6131 47.4379 70.5976C47.4953 70.5821 47.549 70.5553 47.596 70.5189C47.643 70.4824 47.6824 70.4371 47.7117 70.3853C47.7411 70.3336 47.7599 70.2766 47.767 70.2175C48.0198 68.1325 49.0484 59.1629 48.9246 55.0812Z" fill="black"/>
<path d="M55.4855 62.0365C55.4855 62.0365 56.5344 55.5437 56.2437 53.9186C55.9531 52.2935 53.5445 48.3584 53.5445 48.3584L52.4375 48.28L51.1309 47.7518C51.1309 47.7518 54.1637 51.3938 54.8916 54.0222C55.3794 55.7535 54.4063 61.2176 54.52 62.5344L55.0811 65.2639L56.4712 65.2007L55.4855 62.0365Z" fill="black"/>
<path d="M48.0197 47.5067C48.0197 47.5067 49.3794 50.1882 48.8664 56.9337L46.6095 52.0837L47.4258 50.7594L46.3416 48.5935C46.3416 48.5935 47.5016 47.8479 47.9894 47.4536L48.0197 47.5067Z" fill="#181818"/>
<path d="M54.9726 56.9717C55.2714 56.0483 55.4107 55.0808 55.3845 54.1107C55.2935 52.7383 55.2708 51.7147 55.2708 51.7147L53.7139 50.5623L53.9186 49.1596C53.9186 49.1596 53.1604 48.6996 52.4705 48.227C51.9928 47.9035 51.0577 47.4157 50.9338 47.4536C50.9338 47.4536 54.9119 52.4856 54.9321 54.5454C54.9523 56.5319 54.9726 56.9717 54.9726 56.9717Z" fill="#181818"/>
<path opacity="0.3" d="M55.7383 60.4241L56.2791 55.4174L56.4813 60.5858C56.2259 60.577 55.9742 60.5222 55.7383 60.4241Z" fill="black"/>
<path d="M51.9397 48.7957L50.8681 47.3248L50.3627 48.1992L48.2498 46.9355L47.9971 47.4612L48.7553 49.66C48.7553 49.66 50.6306 50.4182 50.7291 50.4182C50.8277 50.4182 51.9397 48.7957 51.9397 48.7957Z" fill="white"/>
<path opacity="0.3" d="M51.9877 48.8639L51.5505 49.9456L50.4612 48.8639L49.7207 50.1352L48.6162 49.5943L49.794 50.5269L50.4763 49.1343L51.7249 50.3095L51.9877 48.8639Z" fill="black"/>
<path opacity="0.3" d="M46.1595 59.0871L45.7324 54.3053L45.4038 59.5142L50.3473 61.5234L46.1595 59.0871Z" fill="black"/>
<path d="M44.2034 48.8639C43.7262 49.004 43.2978 49.275 42.9667 49.6462C42.6357 50.0175 42.4154 50.474 42.3306 50.9641C42.0299 52.6777 41.6306 61.2479 41.9718 61.7888C42.313 62.3297 51.8638 65.408 51.8638 65.408L52.8748 62.7568L45.6617 59.2665C45.6617 59.2665 45.7198 56.8175 45.778 54.9093C45.8083 53.8984 45.8411 53.0441 45.8639 52.7788C45.9372 52.013 44.2034 48.8639 44.2034 48.8639Z" fill="black"/>
<path d="M52.8496 62.916C52.8496 62.916 55.8547 63.6388 56.5472 64.2378C56.6417 64.3284 56.717 64.437 56.7687 64.5573C56.8204 64.6776 56.8473 64.807 56.8479 64.9379L51.9878 65.1553L52.8496 62.916Z" fill="#B97964"/>
<path opacity="0.3" d="M44.1757 62.7795L48.4015 64.296V64.8141L43.9761 63.4013L44.1757 62.7795Z" fill="black"/>
<path opacity="0.2" d="M50.4763 49.1343C52.7257 53.0567 52.6018 58.1595 52.7257 62.4914" stroke="black" stroke-width="0.5" stroke-linecap="round" stroke-linejoin="round"/>
<path d="M60.5554 52.9127C60.3261 52.5339 60.2367 52.0868 60.3026 51.649C60.4517 51.0323 60.4062 50.5016 60.5554 50.0517C60.7045 49.6019 60.9496 50.1857 61.0204 50.5243C61.0912 50.863 61.1619 51.2547 61.4147 51.1486C61.6674 51.0424 63.0878 49.2986 63.4366 49.2051C63.7853 49.1115 63.6514 49.4578 63.6514 49.4578C63.6514 49.4578 64.0077 49.0408 64.2125 49.1393C64.2655 49.1621 64.3489 49.3087 64.2125 49.5235C63.9117 50.0088 63.2293 50.9944 63.2293 50.9944C63.2672 50.9388 64.1973 49.7813 64.359 49.6246C64.5713 49.4224 64.7735 49.435 64.8873 49.5614C65.049 49.7409 63.9445 51.2143 63.942 51.3103C63.942 51.3103 64.5486 50.4409 64.8595 50.4738C65.1703 50.5066 64.8165 51.0753 64.4121 51.5176C64.0077 51.9599 63.4163 52.8167 62.9993 53.1932C62.4938 53.6557 62.0339 53.8503 61.4399 53.59C61.0915 53.4444 60.7868 53.2111 60.5554 52.9127Z" fill="#B97964"/>
<path opacity="0.3" d="M63.5908 49.5134C63.3128 49.8504 63.0499 50.2051 62.8022 50.5774" stroke="black" stroke-width="0.5" stroke-linecap="round" stroke-linejoin="round"/>
<path opacity="0.3" d="M63.7197 51.6667C63.3839 51.2018 62.9203 50.8444 62.3853 50.6381" stroke="black" stroke-width="0.5" stroke-linecap="round" stroke-linejoin="round"/>
<path opacity="0.3" d="M61.478 51.4241C61.6351 51.5981 61.7268 51.8214 61.7374 52.0556C61.748 52.2898 61.6768 52.5204 61.5362 52.708" stroke="black" stroke-width="0.5" stroke-linecap="round" stroke-linejoin="round"/>
<path d="M65.0036 65.0213H57.2168C57.1872 65.0255 57.157 65.0237 57.1281 65.016C57.0992 65.0083 57.0721 64.9949 57.0485 64.9765C57.0249 64.9581 57.0053 64.9351 56.9908 64.9089C56.9763 64.8827 56.9672 64.8539 56.9641 64.8241C56.9605 64.8041 56.9605 64.7835 56.9641 64.7635L60.4518 56.8149C60.5095 56.6945 60.6014 56.5938 60.716 56.5255C60.8307 56.4571 60.963 56.4242 61.0963 56.4308H68.8882C68.9453 56.4251 69.0025 56.442 69.0474 56.4779C69.0922 56.5138 69.1213 56.5658 69.1283 56.6229C69.128 56.6456 69.1229 56.668 69.1131 56.6886L65.6481 64.6497C65.5884 64.7676 65.4956 64.8655 65.3812 64.9315C65.2667 64.9975 65.1355 65.0287 65.0036 65.0213Z" fill="#263238"/>
<path opacity="0.7" d="M68.8881 56.4383H61.0963C60.963 56.4317 60.8306 56.4647 60.716 56.533C60.6013 56.6014 60.5094 56.7021 60.4518 56.8225L56.9868 64.7635C56.9832 64.7835 56.9832 64.8041 56.9868 64.8241C56.9899 64.8539 56.999 64.8827 57.0135 64.9089C57.028 64.9351 57.0476 64.958 57.0712 64.9765C57.0948 64.9949 57.1219 65.0083 57.1508 65.016C57.1797 65.0237 57.2099 65.0255 57.2395 65.0213H65.0036C65.1368 65.0275 65.269 64.9944 65.3836 64.9261C65.4982 64.8578 65.5902 64.7573 65.648 64.6371L69.1131 56.6961C69.1228 56.6756 69.128 56.6532 69.1282 56.6304C69.1212 56.5734 69.0922 56.5213 69.0473 56.4854C69.0024 56.4495 68.9453 56.4326 68.8881 56.4383Z" fill="white"/>
<path d="M64.0635 60.9068C63.8942 61.2884 63.558 61.5488 63.3053 61.4957C63.0526 61.4426 62.9843 61.0964 63.1486 60.7147C63.3129 60.3331 63.6541 60.0753 63.9068 60.1284C64.1596 60.1815 64.2329 60.5151 64.0635 60.9068Z" fill="white"/>
<path opacity="0.3" d="M61.1418 56.4385H61.0963C60.963 56.4319 60.8306 56.4648 60.716 56.5331C60.6013 56.6015 60.5094 56.7022 60.4518 56.8226L56.9868 64.7636C56.9832 64.7836 56.9832 64.8042 56.9868 64.8242C56.9899 64.854 56.999 64.8828 57.0135 64.909C57.028 64.9352 57.0476 64.9582 57.0712 64.9766C57.0948 64.995 57.1219 65.0084 57.1508 65.0161C57.1797 65.0238 57.2099 65.0256 57.2395 65.0214H57.4923L61.1418 56.4385Z" fill="black"/>
<path d="M50.8984 65.0921V65.7341L57.1031 65.1022L57.1966 64.2859L50.8984 65.0921Z" fill="#263238"/>
<path opacity="0.7" d="M50.8984 65.0921V65.7341L57.1031 65.1022L57.1966 64.2859L50.8984 65.0921Z" fill="white"/>
<path opacity="0.3" d="M33.9905 23.9062H38.5397C38.8125 23.9062 39.0742 23.7979 39.2671 23.6049C39.46 23.412 39.5684 23.1504 39.5684 22.8776V19.7361C39.5684 19.7361 35.6863 22.2255 33.9905 23.9062Z" fill="black"/>
<path opacity="0.2" d="M85.9959 37.65C85.8205 37.7489 85.6739 37.8919 85.5706 38.0647C85.4673 38.2376 85.4109 38.4344 85.407 38.6357C85.407 39.3181 86.2663 40.4857 86.2208 40.8724C86.1753 41.2591 86.1323 42.4091 86.5367 42.9145C86.9411 43.42 88.9984 43.8294 88.9958 43.8168C88.9933 43.8042 88.7684 42.3787 88.4904 40.8648C88.2124 39.351 86.0009 37.6425 86.0009 37.6425" fill="black"/>
<path d="M25.4251 62.916C21.7933 67.1771 20.7242 73.4551 22.7714 78.6615C25.046 76.6396 26.6281 73.5587 26.7292 70.8671C26.8303 68.1754 26.1252 65.5217 25.4251 62.916Z" fill="#407BFF"/>
<path d="M24.7933 79.1518C23.5555 81.06 22.9751 83.3205 23.1404 85.589C25.1042 84.9041 26.8354 82.6876 27.8741 80.8856C28.9129 79.0835 29.4916 77.0591 30.0199 75.0474C27.8769 75.8092 26.0415 77.2505 24.7933 79.1518Z" fill="#407BFF"/>
<path d="M24.3206 70.3312C22.8582 75.5872 22.1184 81.0179 22.1218 86.4735C22.1218 88.0202 22.1833 89.5644 22.3063 91.1061C22.3063 91.2249 22.506 91.2274 22.4959 91.1061C22.0698 85.6637 22.3887 80.1886 23.4436 74.8325C23.7402 73.3363 24.0932 71.8527 24.5026 70.3818C24.5093 70.3577 24.5062 70.3319 24.4938 70.31C24.4815 70.2882 24.461 70.2722 24.4369 70.2655C24.4128 70.2588 24.387 70.262 24.3652 70.2743C24.3434 70.2866 24.3273 70.3071 24.3206 70.3312Z" fill="#263238"/>
<path d="M22.3873 87.3707C23.8991 83.8354 25.8168 80.4877 28.1016 77.3952C28.1724 77.2966 28.0081 77.2006 27.9374 77.2992C25.6447 80.4065 23.7203 83.7693 22.2028 87.3202C22.1573 87.4314 22.3393 87.4819 22.3873 87.3707Z" fill="#263238"/>
<path d="M20.2542 82.0885C21.2854 83.6802 21.7682 85.5652 21.6291 87.4566C19.9939 86.8905 18.5482 85.043 17.6915 83.5392C16.8347 82.0355 16.3419 80.3497 15.9021 78.6741C17.6857 79.3084 19.2137 80.5072 20.2542 82.0885Z" fill="#407BFF"/>
<path d="M22.3419 88.6975C21.0983 85.806 19.5224 83.069 17.6461 80.5417C17.5728 80.4432 17.4085 80.5417 17.4818 80.6378C19.3502 83.1508 20.9201 85.8725 22.1599 88.7481C22.2054 88.8593 22.3899 88.8113 22.3419 88.6975Z" fill="#263238"/>
<path d="M22.3948 89.6858C24.7048 87.3076 27.0653 84.9774 29.3753 82.6092C29.4613 82.5208 29.3273 82.3868 29.2414 82.4753C26.9314 84.851 24.5708 87.1812 22.2608 89.5519C22.1749 89.6403 22.3088 89.7743 22.3948 89.6884V89.6858Z" fill="#263238"/>
<path d="M29.4487 81.4946C27.4422 83.4289 25.6181 85.544 23.9998 87.813H24.3662C25.1318 87.7767 25.881 87.5782 26.5642 87.2308C27.2474 86.8834 27.8491 86.395 28.3295 85.7977C28.81 85.2005 29.1581 84.5081 29.3511 83.7663C29.544 83.0245 29.5773 82.2502 29.4487 81.4946Z" fill="#407BFF"/>
<path d="M19.9409 76.8949C20.8002 78.3018 21.6106 79.7381 22.3722 81.204C22.4278 81.3127 22.5921 81.2166 22.5365 81.108C21.7749 79.6438 20.9645 78.2074 20.1052 76.7988C20.0908 76.7806 20.0704 76.7681 20.0476 76.7638C20.0248 76.7594 20.0012 76.7635 19.9812 76.7752C19.9611 76.7869 19.946 76.8055 19.9386 76.8275C19.9312 76.8495 19.932 76.8734 19.9409 76.8949Z" fill="#263238"/>
<path d="M17.8834 69.7778C17.5008 71.3963 17.2807 73.049 17.2263 74.7112C17.2263 76.2479 17.6914 77.7441 18.5658 78.7778C19.4403 79.8114 21.2019 80.2613 21.912 79.6699L17.8834 69.7778Z" fill="#407BFF"/>
<path d="M26.5954 90.3556H17.8381V91.9782H26.5954V90.3556Z" fill="#263238"/>
<path d="M25.1776 97.7607H19.7387L18.7505 91.6066H25.956L25.1776 97.7607Z" fill="#263238"/>
<path opacity="0.2" d="M18.8162 92.011H25.9054L25.8169 92.706H18.9274L18.8162 92.011Z" fill="black"/>
<path d="M37.3165 6.16931H20.0268C19.3373 6.16931 18.7783 6.72829 18.7783 7.41783V21.5584C18.7783 22.2479 19.3373 22.8069 20.0268 22.8069H37.3165C38.006 22.8069 38.565 22.2479 38.565 21.5584V7.41783C38.565 6.72829 38.006 6.16931 37.3165 6.16931Z" fill="white"/>
<path d="M19.946 6.16923H37.405C37.5577 6.16789 37.7091 6.19697 37.8505 6.25479C37.9918 6.31261 38.1203 6.39801 38.2282 6.506C38.3362 6.61399 38.4216 6.74241 38.4795 6.88377C38.5373 7.02512 38.5664 7.17658 38.565 7.32929V9.08075H18.7783V7.32929C18.781 7.02114 18.9051 6.72647 19.1237 6.50927C19.3423 6.29208 19.6378 6.16989 19.946 6.16923Z" fill="#407BFF"/>
<path opacity="0.5" d="M37.4455 7.83225C37.4455 7.95782 37.4082 8.08057 37.3384 8.18495C37.2686 8.28932 37.1694 8.37063 37.0533 8.41856C36.9372 8.4665 36.8096 8.47892 36.6864 8.45423C36.5633 8.42955 36.4503 8.36888 36.3617 8.27991C36.2731 8.19094 36.2128 8.07767 36.1886 7.95445C36.1644 7.83123 36.1774 7.7036 36.2258 7.58773C36.2742 7.47186 36.3559 7.37296 36.4605 7.30356C36.5652 7.23416 36.6881 7.19738 36.8137 7.19788C36.8968 7.19788 36.9792 7.21431 37.056 7.24622C37.1329 7.27813 37.2026 7.3249 37.2613 7.38383C37.32 7.44277 37.3665 7.51273 37.3981 7.58968C37.4297 7.66663 37.4458 7.74906 37.4455 7.83225Z" fill="white"/>
<path opacity="0.5" d="M35.6359 7.83225C35.6359 7.95782 35.5986 8.08057 35.5288 8.18495C35.459 8.28932 35.3598 8.37063 35.2437 8.41856C35.1277 8.4665 35 8.47892 34.8769 8.45423C34.7537 8.42955 34.6407 8.36888 34.5521 8.27991C34.4635 8.19094 34.4033 8.07767 34.3791 7.95445C34.3549 7.83123 34.3678 7.7036 34.4162 7.58773C34.4646 7.47186 34.5463 7.37296 34.651 7.30356C34.7556 7.23416 34.8785 7.19738 35.0041 7.19788C35.0873 7.19788 35.1696 7.21431 35.2465 7.24622C35.3233 7.27813 35.3931 7.3249 35.4518 7.38383C35.5105 7.44277 35.5569 7.51273 35.5886 7.58968C35.6202 7.66663 35.6363 7.74906 35.6359 7.83225Z" fill="white"/>
<path opacity="0.5" d="M33.8464 7.83225C33.8464 7.95771 33.8092 8.08036 33.7395 8.18468C33.6698 8.289 33.5707 8.37031 33.4548 8.41833C33.3388 8.46634 33.2113 8.4789 33.0882 8.45443C32.9652 8.42995 32.8522 8.36953 32.7634 8.28081C32.6747 8.19209 32.6143 8.07906 32.5898 7.95601C32.5653 7.83295 32.5779 7.7054 32.6259 7.58949C32.6739 7.47357 32.7552 7.3745 32.8596 7.30479C32.9639 7.23509 33.0865 7.19788 33.212 7.19788C33.2954 7.19755 33.378 7.21373 33.4552 7.24549C33.5323 7.27725 33.6023 7.32397 33.6613 7.38294C33.7203 7.44191 33.767 7.51198 33.7988 7.58909C33.8305 7.66621 33.8467 7.74885 33.8464 7.83225Z" fill="white"/>
<path d="M28.3596 15.892L30.0757 11.1785C30.7156 11.4104 31.3014 11.7707 31.7968 12.2374C32.2914 12.7038 32.6868 13.2651 32.9594 13.8878L28.3596 15.892Z" fill="#F5F5F5"/>
<path d="M28.3596 15.892L29.8229 20.694C29.0632 20.9258 28.2593 20.9739 27.4773 20.8343C26.6954 20.6948 25.9577 20.3715 25.3251 19.8912C24.6925 19.4109 24.183 18.7872 23.8385 18.0715C23.494 17.3558 23.3243 16.5685 23.3435 15.7744C23.3627 14.9804 23.5701 14.2022 23.9488 13.504C24.3275 12.8057 24.8665 12.2074 25.5216 11.7582C26.1767 11.3089 26.929 11.0217 27.7168 10.92C28.5046 10.8184 29.3052 10.9052 30.0529 11.1735L28.3596 15.892Z" fill="#407BFF"/>
<path d="M28.3596 15.892L32.9695 13.9105C33.2472 14.5572 33.3859 15.2551 33.3764 15.9588C33.3669 16.6626 33.2095 17.3565 32.9145 17.9954C32.6194 18.6344 32.1933 19.2042 31.6637 19.6678C31.1342 20.1314 30.513 20.4784 29.8407 20.6864L28.3596 15.892Z" fill="#407BFF"/>
<path opacity="0.3" d="M28.3596 15.892L32.9695 13.9105C33.2472 14.5572 33.3859 15.2551 33.3764 15.9588C33.3669 16.6626 33.2095 17.3565 32.9145 17.9954C32.6194 18.6344 32.1933 19.2042 31.6637 19.6678C31.1342 20.1314 30.513 20.4784 29.8407 20.6864L28.3596 15.892Z" fill="black"/>
<path d="M98.1423 32.6105C97.2931 32.7823 96.9569 33.4622 96.1077 35.2415C95.0336 37.4807 93.4717 41.5219 93.1179 41.5599C92.6124 41.6079 86.2536 39.126 86.2536 39.126L85.2654 40.2456C85.2654 40.2456 88.599 44.7039 93.8761 46.1167C94.8239 46.3694 96.0193 45.2978 97.1617 43.8294C97.3841 43.5438 97.6014 43.2431 97.8213 42.9322C98.9951 41.1918 100.048 39.3729 100.973 37.4883L98.1423 32.6155V32.6105Z" fill="#FF6C37"/>
<path opacity="0.2" d="M97.8745 35.4537C97.5336 36.7724 97.1073 38.0675 96.5981 39.3307C96.444 39.7029 96.3942 40.1101 96.4541 40.5085C96.6286 41.5361 96.8951 42.5461 97.2502 43.5261C97.4322 44.0594 98.2611 44.0316 98.2839 44.5851C98.5063 44.2995 98.7262 43.9962 98.9435 43.6879L99.4288 41.762L97.8745 35.4537Z" fill="black"/>
<path d="M94.1744 42.4267C94.2452 42.4069 94.3113 42.3733 94.3691 42.3279C94.4268 42.2824 94.475 42.2261 94.5109 42.162C94.5469 42.0979 94.5698 42.0273 94.5784 41.9544C94.587 41.8814 94.5811 41.8074 94.5611 41.7368L92.4331 32.7874C92.3721 32.5815 92.2486 32.3996 92.0797 32.267C91.9108 32.1343 91.7049 32.0574 91.4904 32.0469L84.6665 31.9053C84.5921 31.8952 84.5164 31.9003 84.4441 31.9205C84.3015 31.9616 84.181 32.0576 84.109 32.1874C84.037 32.3172 84.0194 32.4702 84.06 32.613L86.188 41.5598C86.2494 41.7669 86.3741 41.9496 86.5445 42.0824C86.7148 42.2152 86.9225 42.2914 87.1383 42.3004L93.9621 42.4419C94.0332 42.4498 94.1052 42.4447 94.1744 42.4267Z" fill="black"/>
<path opacity="0.2" d="M94.1744 42.4267C94.2452 42.4069 94.3113 42.3733 94.3691 42.3279C94.4268 42.2824 94.475 42.2261 94.5109 42.162C94.5469 42.0979 94.5698 42.0273 94.5784 41.9544C94.587 41.8814 94.5811 41.8074 94.5611 41.7368L92.4331 32.7874C92.3721 32.5815 92.2486 32.3996 92.0797 32.267C91.9108 32.1343 91.7049 32.0574 91.4904 32.0469L84.6665 31.9053C84.5921 31.8952 84.5164 31.9003 84.4441 31.9205C84.3015 31.9616 84.181 32.0576 84.109 32.1874C84.037 32.3172 84.0194 32.4702 84.06 32.613L86.188 41.5598C86.2494 41.7669 86.3741 41.9496 86.5445 42.0824C86.7148 42.2152 86.9225 42.2914 87.1383 42.3004L93.9621 42.4419C94.0332 42.4498 94.1052 42.4447 94.1744 42.4267Z" fill="white"/>
<path d="M93.4743 42.409C93.5451 42.3892 93.6112 42.3556 93.6689 42.3102C93.7267 42.2648 93.7749 42.2084 93.8108 42.1443C93.8467 42.0802 93.8697 42.0096 93.8783 41.9367C93.8869 41.8637 93.881 41.7898 93.861 41.7191L91.7431 32.7747C91.6815 32.568 91.5573 32.3854 91.3875 32.2523C91.2177 32.1192 91.0108 32.0421 90.7953 32.0317L83.9714 31.8927C83.8977 31.8834 83.8228 31.8894 83.7516 31.9104C83.6808 31.9302 83.6147 31.9638 83.5569 32.0092C83.4992 32.0547 83.451 32.111 83.4151 32.1751C83.3791 32.2392 83.3562 32.3098 83.3476 32.3828C83.339 32.4557 83.3449 32.5297 83.3649 32.6004L85.4954 41.5497C85.5574 41.756 85.6818 41.938 85.8516 42.0707C86.0213 42.2033 86.228 42.28 86.4432 42.2903L93.2671 42.4293C93.3368 42.4364 93.4073 42.4295 93.4743 42.409Z" fill="black"/>
<path opacity="0.3" d="M93.4743 42.409C93.5451 42.3892 93.6112 42.3556 93.6689 42.3102C93.7267 42.2648 93.7749 42.2084 93.8108 42.1443C93.8467 42.0802 93.8697 42.0096 93.8783 41.9367C93.8869 41.8637 93.881 41.7898 93.861 41.7191L91.7431 32.7747C91.6815 32.568 91.5573 32.3854 91.3875 32.2523C91.2177 32.1192 91.0108 32.0421 90.7953 32.0317L83.9714 31.8927C83.8977 31.8834 83.8228 31.8894 83.7516 31.9104C83.6808 31.9302 83.6147 31.9638 83.5569 32.0092C83.4992 32.0547 83.451 32.111 83.4151 32.1751C83.3791 32.2392 83.3562 32.3098 83.3476 32.3828C83.339 32.4557 83.3449 32.5297 83.3649 32.6004L85.4954 41.5497C85.5574 41.756 85.6818 41.938 85.8516 42.0707C86.0213 42.2033 86.228 42.28 86.4432 42.2903L93.2671 42.4293C93.3368 42.4364 93.4073 42.4295 93.4743 42.409Z" fill="white"/>
<path opacity="0.2" d="M87.7245 36.5103C87.7298 36.4429 87.7486 36.3772 87.7798 36.3172C87.811 36.2572 87.8539 36.2041 87.906 36.1609C87.9581 36.1178 88.0183 36.0856 88.083 36.0661C88.1478 36.0467 88.2158 36.0405 88.283 36.0478C88.4781 36.0585 88.6649 36.1301 88.8172 36.2525C88.9696 36.3749 89.0797 36.5419 89.1322 36.7301C89.1506 36.7941 89.1566 36.861 89.1499 36.9273C89.1439 36.9942 89.1246 37.0593 89.0932 37.1188C89.0617 37.1782 89.0187 37.2307 88.9667 37.2733C88.9147 37.3159 88.8547 37.3477 88.7903 37.3669C88.7258 37.386 88.6582 37.3921 88.5914 37.3847C88.3964 37.3736 88.2097 37.3019 88.0575 37.1795C87.9053 37.0572 87.795 36.8904 87.7422 36.7023C87.7235 36.6401 87.7175 36.5748 87.7245 36.5103Z" fill="white"/>
<path d="M85.0127 37.5642C85.1466 37.5642 85.7178 37.8346 85.9857 37.6476C86.2536 37.4606 86.0034 37.3064 86.0034 37.3064C85.4979 37.1876 84.9722 36.5709 84.6715 36.7479C84.3707 36.9248 83.8779 37.1446 83.9512 37.4252C84.0326 37.6843 84.1314 37.9376 84.2469 38.1834C84.2085 38.2444 84.1858 38.3139 84.181 38.3859C84.1761 38.4578 84.1892 38.5298 84.2191 38.5954C84.2505 38.671 84.2997 38.7379 84.3627 38.7903C84.4256 38.8427 84.5004 38.879 84.5805 38.8961C84.5339 38.9424 84.4978 38.9982 84.4747 39.0597C84.4516 39.1212 84.442 39.1869 84.4465 39.2525C84.4668 39.4648 85.0278 39.7579 85.0278 39.7579C85.0278 39.7579 84.9192 40.0915 85.0455 40.2204C85.1534 40.3088 85.2804 40.3708 85.4164 40.4015C85.5524 40.4322 85.6937 40.4308 85.829 40.3974C86.1576 40.319 86.38 40.2078 86.3572 39.8793C86.3345 39.5507 85.7456 39.5482 85.7456 39.5482C85.7456 39.5482 86.8526 39.212 86.6175 39.0023C86.3825 38.7925 85.5004 38.8178 85.5004 38.8178C85.5004 38.8178 86.9992 38.5221 86.7641 38.2137C86.5291 37.9054 85.0329 37.9913 85.0329 37.9913C85.0329 37.9913 84.8787 37.5743 85.0127 37.5642Z" fill="#E9B376"/>
<path d="M97.7556 90.6514L98.395 96.0801L96.4464 96.3506L94.3967 91.2478L97.7556 90.6514Z" fill="#E9B376"/>
<path d="M94.8998 95.0211C94.8694 94.69 94.8998 94.412 95.2814 94.3943L95.8298 94.364C96.023 94.3885 96.2043 94.4704 96.3505 94.5991C97.6141 95.4002 98.1196 94.364 98.6251 94.364C99.2519 94.364 98.8475 96.2039 98.8778 96.3L99.5627 98.4356C99.6234 98.615 99.5021 98.9992 99.2948 99.0497C99.2576 99.0589 99.2194 99.0632 99.1811 99.0624H91.9023C90.7473 99.0624 90.7347 97.7658 91.2098 97.6723C93.3505 97.2679 94.1946 96.626 94.8998 96.1559C94.9268 95.7781 94.9268 95.3989 94.8998 95.0211Z" fill="#263238"/>
<path opacity="0.4" d="M91.9023 99.0624H99.171C99.2093 99.0632 99.2475 99.0589 99.2847 99.0498C99.4262 99.0144 99.5374 98.8274 99.5577 98.653V98.4912H90.9849C91.057 98.6717 91.1849 98.8245 91.3499 98.9273C91.5149 99.03 91.7085 99.0773 91.9023 99.0624Z" fill="white"/>
<path d="M93.7649 96.9419C93.857 97.0179 93.9416 97.1025 94.0176 97.1946C94.0254 97.2061 94.0339 97.217 94.0429 97.2275L94.0555 97.2452C94.0732 97.2705 94.0909 97.2932 94.1061 97.3185C94.1385 97.3655 94.168 97.4145 94.1945 97.4651C94.1998 97.4778 94.2077 97.4892 94.2177 97.4985C94.2277 97.5079 94.2396 97.515 94.2526 97.5194C94.2656 97.5237 94.2794 97.5253 94.2931 97.5239C94.3067 97.5225 94.3199 97.5182 94.3317 97.5113C94.3436 97.5043 94.3538 97.495 94.3617 97.4837C94.3696 97.4725 94.375 97.4598 94.3776 97.4463C94.3802 97.4328 94.3798 97.419 94.3766 97.4056C94.3733 97.3923 94.3673 97.3798 94.3588 97.369C94.244 97.1564 94.0896 96.9677 93.9039 96.813C93.8951 96.8042 93.8846 96.7972 93.8731 96.7925C93.8617 96.7877 93.8493 96.7853 93.8369 96.7853C93.8245 96.7853 93.8121 96.7877 93.8007 96.7925C93.7892 96.7972 93.7787 96.8042 93.7699 96.813C93.7611 96.8218 93.7542 96.8323 93.7494 96.8437C93.7446 96.8552 93.7422 96.8676 93.7422 96.88C93.7422 96.8924 93.7446 96.9048 93.7494 96.9162C93.7542 96.9277 93.7611 96.9382 93.7699 96.947L93.7649 96.9419Z" fill="black"/>
<path d="M94.4348 96.5703C94.516 96.6406 94.5912 96.7175 94.6597 96.8003L94.685 96.8306V96.8433L94.7305 96.9065C94.7633 96.952 94.7911 96.9975 94.8189 97.043C94.8316 97.0644 94.8521 97.0801 94.8762 97.0867C94.9002 97.0933 94.9259 97.0903 94.9478 97.0783C94.9695 97.0652 94.9852 97.0442 94.9918 97.0197C94.9984 96.9952 94.9953 96.9692 94.9832 96.9469C94.8676 96.7567 94.7226 96.5861 94.5535 96.4414C94.5447 96.4326 94.5343 96.4257 94.5228 96.4209C94.5113 96.4161 94.499 96.4137 94.4866 96.4137C94.4741 96.4137 94.4618 96.4161 94.4503 96.4209C94.4388 96.4257 94.4284 96.4326 94.4196 96.4414C94.4108 96.4502 94.4038 96.4607 94.3991 96.4722C94.3943 96.4837 94.3918 96.496 94.3918 96.5084C94.3918 96.5208 94.3943 96.5332 94.3991 96.5447C94.4038 96.5562 94.4108 96.5666 94.4196 96.5754L94.4348 96.5703Z" fill="black"/>
<path d="M94.9275 96.2596C94.966 96.2799 95.0031 96.3027 95.0387 96.3278L95.0665 96.3455L95.0816 96.3581L95.1297 96.4011L95.1726 96.4466L95.1928 96.4693V96.482C95.2185 96.5154 95.2413 96.5509 95.2611 96.5881C95.2738 96.6096 95.2946 96.6251 95.3187 96.6312C95.3429 96.6374 95.3685 96.6337 95.39 96.621C95.4114 96.6082 95.4269 96.5875 95.4331 96.5633C95.4393 96.5392 95.4356 96.5135 95.4228 96.4921C95.3341 96.322 95.1933 96.1847 95.021 96.1003C94.9995 96.0876 94.9739 96.0839 94.9497 96.0901C94.9256 96.0962 94.9048 96.1117 94.8921 96.1332C94.8794 96.1546 94.8757 96.1803 94.8818 96.2044C94.888 96.2286 94.9035 96.2494 94.9249 96.2621L94.9275 96.2596Z" fill="black"/>
<path d="M94.9756 95.5948C95.0253 95.5923 95.075 95.5923 95.1247 95.5948L95.246 95.6151C95.339 95.6326 95.4303 95.658 95.519 95.6909C95.5309 95.6943 95.5434 95.6954 95.5558 95.6939C95.5681 95.6925 95.5801 95.6886 95.5909 95.6824C95.6017 95.6763 95.6112 95.6681 95.6188 95.6583C95.6264 95.6484 95.632 95.6372 95.6352 95.6252C95.6415 95.601 95.6381 95.5754 95.6259 95.5537C95.6136 95.5321 95.5934 95.516 95.5695 95.5089C95.3794 95.4381 95.1785 95.4004 94.9756 95.3977C94.9506 95.3984 94.9268 95.4088 94.9093 95.4267C94.8918 95.4447 94.8821 95.4687 94.8821 95.4937C94.8827 95.5183 94.8928 95.5418 94.9102 95.5592C94.9276 95.5766 94.951 95.5866 94.9756 95.5873V95.5948Z" fill="black"/>
<g opacity="0.3">
<path d="M97.0226 95.6631C97.0195 95.7613 97.0427 95.8585 97.0898 95.9447C97.1369 96.0309 97.2062 96.103 97.2905 96.1534C97.4118 96.1973 97.5413 96.2137 97.6696 96.2014L98.8272 96.1711C98.8878 95.6656 99.0521 94.4424 98.5744 94.4424C98.2004 94.4424 97.8036 95.145 97.0176 94.9479C97.0277 95.1955 97.0151 95.5367 97.0226 95.6631Z" fill="black"/>
</g>
<path d="M91.743 73.7862C92.0892 70.6447 96.4641 53.9793 96.4641 53.9793L102.024 53.8454L110.582 53.5927C110.582 53.5927 111.087 58.0585 111.087 63.9093C111.087 63.9093 110.673 88.8872 110.329 94.8341L105.628 95.0135C105.098 90.3531 104.38 75.7702 104.38 75.7702C104.056 73.1291 103.766 65.3348 103.536 63.1082C103.44 62.6145 103.345 62.12 103.253 61.6246C102.34 64.0382 98.1498 74.3675 97.8263 75.8486L99.5474 95.4912L94.4927 95.2966C94.4927 95.2966 91.3942 76.9252 91.743 73.7862Z" fill="black"/>
<path d="M99.4036 54.6263C99.1268 55.438 98.6544 56.1691 98.028 56.7549C97.4016 57.3408 96.6406 57.7633 95.8122 57.9852C95.8032 57.9878 95.7949 57.9922 95.7876 57.9981C95.7803 58.004 95.7743 58.0112 95.7699 58.0194C95.7654 58.0277 95.7626 58.0367 95.7616 58.046C95.7606 58.0553 95.7615 58.0647 95.7642 58.0736C95.7668 58.0826 95.7712 58.0909 95.7771 58.0982C95.783 58.1054 95.7902 58.1115 95.7984 58.1159C95.8067 58.1204 95.8157 58.1232 95.825 58.1242C95.8343 58.1251 95.8437 58.1243 95.8526 58.1216C96.7048 57.8925 97.4876 57.4573 98.1319 56.8544C98.7763 56.2515 99.2625 55.4993 99.5476 54.6642C99.5754 54.5783 99.4314 54.5404 99.4036 54.6263Z" fill="black"/>
<path d="M103.667 54.8614C103.57 56.265 103.47 57.6685 103.369 59.072C103.369 59.163 103.217 59.163 103.222 59.072L103.374 56.9086C103.008 57.1765 102.58 56.853 102.462 56.4941C102.297 55.8886 102.308 55.2489 102.492 54.6491C102.517 54.5607 102.659 54.5986 102.636 54.6845C102.525 55.0891 102.484 55.5096 102.515 55.928C102.515 56.1526 102.563 56.3747 102.654 56.58C102.773 56.7949 103.068 56.9794 103.306 56.7822C103.317 56.7745 103.331 56.7704 103.345 56.7704C103.359 56.7704 103.373 56.7745 103.384 56.7822L103.521 54.8715C103.526 54.7705 103.672 54.7705 103.667 54.8614Z" fill="black"/>
<path d="M107.16 54.6036C107.14 56.4637 108.651 58.0206 110.607 58.1646C110.701 58.1646 110.701 58.0357 110.607 58.0281C108.729 57.8866 107.286 56.3828 107.306 54.6036C107.306 54.5841 107.299 54.5655 107.285 54.5517C107.271 54.538 107.253 54.5303 107.233 54.5303C107.214 54.5303 107.195 54.538 107.181 54.5517C107.168 54.5655 107.16 54.5841 107.16 54.6036Z" fill="black"/>
<path d="M106.445 90.9142L107.274 96.487L109.253 96.578L109.895 91.2074L106.445 90.9142Z" fill="black"/>
<path d="M110.951 99.0749H106.51C106.444 98.8703 106.45 98.6494 106.526 98.4482C106.544 98.3696 106.566 98.292 106.591 98.2156V98.203C106.632 98.0766 106.68 97.9225 106.73 97.7557C106.895 97.0162 107.009 96.2663 107.072 95.5114C107.072 95.5114 107.908 94.7405 108.77 95.1019C109.528 95.4178 109.409 95.8197 109.409 95.8197C109.409 95.8197 109.422 96.8584 109.996 97.3361C110.35 97.6242 110.703 97.8416 110.873 98.2106C110.904 98.2804 110.929 98.3532 110.946 98.4279C110.947 98.4372 110.947 98.4465 110.946 98.4557C110.99 98.6596 110.992 98.8704 110.951 99.0749Z" fill="#263238"/>
<path opacity="0.4" d="M106.526 98.4482C106.45 98.6494 106.444 98.8704 106.51 99.075H110.951C111.001 98.8696 111.007 98.6561 110.969 98.4482H106.526Z" fill="white"/>
<path d="M109.182 96.5527C109.064 96.4679 108.92 96.4261 108.774 96.4344C108.629 96.4427 108.491 96.5005 108.383 96.5982C108.323 96.6538 108.229 96.5678 108.29 96.5148C108.423 96.3945 108.595 96.3242 108.774 96.3159C108.954 96.3076 109.131 96.3618 109.275 96.4693C109.341 96.5148 109.248 96.6007 109.182 96.5527Z" fill="black"/>
<path d="M109.301 96.9318C109.182 96.8468 109.038 96.805 108.892 96.8132C108.746 96.8215 108.608 96.8794 108.499 96.9773C108.439 97.0329 108.348 96.947 108.406 96.8939C108.54 96.7736 108.711 96.7033 108.891 96.695C109.07 96.6867 109.247 96.7409 109.392 96.8484C109.457 96.8964 109.366 96.9798 109.301 96.9318Z" fill="black"/>
<path d="M109.435 97.2806C109.316 97.1958 109.172 97.154 109.027 97.1623C108.882 97.1706 108.744 97.2284 108.636 97.3261C108.575 97.3817 108.482 97.2957 108.542 97.2427C108.676 97.1224 108.847 97.0521 109.027 97.0438C109.207 97.0355 109.384 97.0897 109.528 97.1972C109.594 97.2452 109.5 97.3286 109.435 97.2806Z" fill="black"/>
<path d="M96.4995 52.6802C95.711 53.9742 95.711 55.0155 96.4616 55.2809C96.4616 55.2809 103.286 56.4384 110.281 55.6448C111.964 55.7383 111.141 54.1789 111.141 54.1789L111.178 32.6105C105.871 31.4858 99.4439 32.5271 98.1423 32.6105L96.4995 52.6802Z" fill="#FF6C37"/>
<path opacity="0.2" d="M111.156 45.1512V38.019C111.156 38.019 112.202 45.3307 111.676 47.1428L111.156 45.1512Z" fill="black"/>
<path d="M101.506 23.0697C101.506 23.0697 98.9258 21.6165 100.457 20.0597C101.665 18.8314 102.732 19.0108 104.349 19.3014C108.31 20.0217 108.08 21.6721 108.08 21.6721L101.506 23.0697Z" fill="black"/>
<path d="M106.548 31.3798C106.548 31.3798 106.336 29.8633 107.226 27.2273C107.226 27.2273 107.089 27.1565 107.089 27.154C107.211 26.785 107.342 26.4463 107.458 26.1431L103.713 28.2382C103.761 29.095 103.382 30.7277 103.169 31.4177C103.169 31.4177 102.664 32.6561 104.329 32.785C105.555 32.8759 106.548 31.3798 106.548 31.3798Z" fill="#E9B376"/>
<path opacity="0.2" d="M103.601 29.4311L105.722 29.0494C105.502 29.6939 104.89 30.442 103.427 30.442C103.513 30.1104 103.571 29.7723 103.601 29.4311Z" fill="black"/>
<path d="M107.567 24.3688C107.22 26.6712 107.061 27.9754 105.798 29.0495C103.879 30.6645 101.175 29.3831 100.826 27.0276C100.513 24.8996 101.132 21.4927 103.483 20.7926C104.002 20.6391 104.552 20.6194 105.081 20.7355C105.61 20.8515 106.102 21.0995 106.509 21.4564C106.917 21.8133 107.227 22.2675 107.412 22.7767C107.597 23.2859 107.65 23.8336 107.567 24.3688Z" fill="#E9B376"/>
<path d="M108.108 21.6115C105.282 18.8895 102.406 20.4185 101.307 21.9097L106.235 21.9678C106.452 21.9678 106.574 22.1877 106.528 22.5997C106.528 22.5997 104.817 25.6628 107.175 27.3839C108.017 27.0604 108.186 25.6603 108.517 24.844C109.008 23.6308 109.627 21.844 108.108 21.6115Z" fill="black"/>
<path d="M108.31 26.378C108.198 26.6447 108.035 26.8864 107.829 27.0891C107.623 27.2918 107.378 27.4513 107.109 27.5583C106.389 27.8414 106.2 27.0528 106.329 26.3401C106.445 25.688 106.708 24.9071 107.466 24.9324C108.224 24.9576 108.583 25.7285 108.31 26.378Z" fill="#E9B376"/>
<path d="M103.991 24.806C103.97 25.0411 103.829 25.2205 103.672 25.2053C103.515 25.1902 103.419 24.988 103.419 24.7504C103.419 24.5128 103.584 24.3334 103.738 24.3486C103.892 24.3637 104.013 24.5684 103.991 24.806Z" fill="black"/>
<path d="M101.782 24.6948C101.759 24.9298 101.617 25.1093 101.463 25.0941C101.309 25.079 101.21 24.8768 101.21 24.6392C101.21 24.4016 101.372 24.2222 101.529 24.2373C101.686 24.2525 101.802 24.4648 101.782 24.6948Z" fill="black"/>
<path d="M102.636 24.5204C102.636 24.5204 101.782 25.6324 101.501 26.0899C101.805 26.4159 102.383 26.33 102.383 26.33L102.636 24.5204Z" fill="#D58745"/>
<path d="M104.885 23.6789C104.867 23.6849 104.847 23.6857 104.827 23.6813C104.808 23.6768 104.791 23.6672 104.777 23.6536C104.678 23.5562 104.558 23.4828 104.427 23.439C104.295 23.3952 104.156 23.3821 104.018 23.4009C103.99 23.4078 103.959 23.4033 103.934 23.3882C103.908 23.3731 103.89 23.3486 103.882 23.32C103.879 23.3057 103.878 23.2909 103.88 23.2764C103.883 23.262 103.888 23.2481 103.896 23.2357C103.903 23.2232 103.914 23.2124 103.926 23.2039C103.937 23.1954 103.951 23.1893 103.965 23.186C104.14 23.1548 104.319 23.1659 104.488 23.2182C104.658 23.2705 104.812 23.3626 104.938 23.4868C104.949 23.4969 104.957 23.5091 104.963 23.5226C104.969 23.536 104.972 23.5505 104.972 23.5652C104.972 23.5798 104.969 23.5943 104.963 23.6077C104.957 23.6212 104.949 23.6334 104.938 23.6435C104.925 23.6608 104.906 23.6733 104.885 23.6789Z" fill="black"/>
<path d="M103.094 27.1515C103.279 27.1586 103.465 27.128 103.639 27.0616C103.812 26.9951 103.971 26.8942 104.104 26.7648" stroke="black" stroke-width="0.75" stroke-linecap="round" stroke-linejoin="round"/>
<path opacity="0.2" d="M107.84 25.6932C107.795 25.6224 107.729 25.5666 107.653 25.5328C107.576 25.4991 107.49 25.4889 107.408 25.5036C107.242 25.5361 107.093 25.6255 106.986 25.7564C106.853 25.9086 106.762 26.0921 106.72 26.2896" stroke="black" stroke-width="0.5" stroke-linecap="round" stroke-linejoin="round"/>
<path d="M100.933 23.4943C100.912 23.4884 100.893 23.476 100.879 23.459C100.87 23.4477 100.863 23.4347 100.859 23.4207C100.855 23.4067 100.853 23.392 100.855 23.3775C100.856 23.3629 100.86 23.3488 100.867 23.3359C100.874 23.323 100.883 23.3115 100.895 23.3023C101.028 23.1875 101.187 23.1065 101.358 23.0661C101.529 23.0256 101.707 23.0269 101.878 23.0697C101.906 23.0795 101.929 23.0997 101.942 23.126C101.956 23.1523 101.959 23.1828 101.951 23.2113C101.942 23.2394 101.923 23.2629 101.897 23.2767C101.871 23.2904 101.84 23.2933 101.812 23.2846C101.677 23.2499 101.536 23.249 101.4 23.2821C101.265 23.3152 101.14 23.3811 101.036 23.4741C101.022 23.4865 101.005 23.4949 100.987 23.4984C100.969 23.502 100.95 23.5006 100.933 23.4943Z" fill="black"/>
<path opacity="0.3" d="M108.866 23.8836L106.038 23.9518C106.112 23.6254 106.213 23.3058 106.341 22.9965H109.056C109.026 23.2984 108.963 23.596 108.866 23.8836Z" fill="white"/>
<g opacity="0.2">
<path d="M104.299 26.234C104.401 26.3451 104.48 26.4754 104.53 26.6173C104.581 26.7593 104.603 26.9099 104.595 27.0605C104.675 26.9113 104.702 26.7392 104.671 26.5727C104.61 26.3149 104.299 26.234 104.299 26.234Z" fill="black"/>
</g>
<path d="M103.26 30.7656L101.802 32.0773L104.236 35.0318L107.754 32.0647L106.713 30.5331L104.511 32.3679L103.26 30.7656Z" fill="#FF6C37"/>
<path opacity="0.8" d="M103.26 30.7656L101.802 32.0773L104.236 35.0318L107.754 32.0647L106.713 30.5331L104.511 32.3679L103.26 30.7656Z" fill="white"/>
<path opacity="0.2" d="M111.085 48.1917V50.719C111.085 50.719 105.477 49.0813 102.173 46.1268C99.8205 44.0215 100.187 43.137 100.187 43.137L102.853 43.3897L111.085 48.1917Z" fill="black"/>
<path opacity="0.2" d="M109.326 38.6357L109.687 44.5953C110.681 45.2296 111.34 44.3425 111.492 43.4453V41.7292L109.326 38.6357Z" fill="black"/>
<path d="M109.318 39.02C109.318 39.02 111.12 43.7208 110.671 44.0064C110.221 44.292 102.891 42.9146 102.891 42.9146L101.759 44.5397C102.012 45.6062 114.396 52.3366 115.407 46.7082C115.932 43.7764 113.89 36.8515 113.12 34.7083C112.905 34.1068 111.818 32.8203 111.206 32.6333C111.003 32.5655 110.787 32.5465 110.574 32.5777C108.237 33.0048 109.318 39.02 109.318 39.02Z" fill="#FF6C37"/>
<path d="M101.65 44.6837C100.801 44.752 100.771 43.4731 100.331 43.42C100.07 43.3967 99.8138 43.3318 99.5728 43.228C99.5728 43.228 99.8534 43.9988 99.5728 43.9356C99.2923 43.8724 98.3951 43.8295 98.1752 43.0965C97.9553 42.3636 98.754 40.7992 98.9334 40.5692C99.1128 40.3392 100.071 40.4175 100.071 40.4175C100.071 40.4175 99.0421 40.1522 98.4785 40.0738C97.9149 39.9955 97.8062 39.3485 98.5947 39.4925C98.9182 39.5507 101.473 39.5709 101.749 39.8337C102.024 40.0966 103.053 42.6795 103.053 42.6795C103.445 42.9146 102.479 45.0805 101.65 44.6837Z" fill="#E9B376"/>
<g opacity="0.3">
<path d="M100.083 40.3544C100.345 40.3357 100.609 40.3527 100.867 40.4049C100.885 40.4102 100.9 40.4224 100.91 40.4389C100.919 40.4554 100.922 40.4749 100.917 40.4934C100.913 40.5098 100.903 40.5243 100.889 40.534C100.875 40.5438 100.858 40.5482 100.841 40.5464C100.598 40.498 100.349 40.4811 100.101 40.4959C100.017 40.4959 100.002 40.3594 100.083 40.3544Z" fill="black"/>
<path d="M98.7765 41.1278C98.6957 41.1708 98.6123 41.052 98.6931 41.0115C99.1708 40.7588 99.6738 40.9003 100.159 41.0621C100.245 41.0899 100.184 41.2213 100.096 41.1935C99.6712 41.0494 99.2011 40.913 98.7765 41.1278Z" fill="black"/>
<path d="M98.4026 41.7596C98.6055 41.6386 98.8353 41.5699 99.0713 41.5598C99.3073 41.5496 99.5422 41.5983 99.7547 41.7014C99.7631 41.7063 99.7704 41.7129 99.7762 41.7207C99.7819 41.7286 99.786 41.7375 99.7881 41.747C99.7902 41.7565 99.7904 41.7663 99.7886 41.7759C99.7867 41.7854 99.783 41.7945 99.7775 41.8025C99.7692 41.8158 99.7568 41.826 99.7422 41.8315C99.7276 41.8369 99.7115 41.8374 99.6966 41.8329C99.5062 41.7402 99.2959 41.6959 99.0843 41.7038C98.8727 41.7118 98.6664 41.7717 98.4835 41.8783C98.4051 41.9264 98.3141 41.8076 98.4026 41.7596Z" fill="black"/>
<path d="M99.0875 42.8337C99.051 42.7576 99.0222 42.678 99.0016 42.5962C98.9814 42.5077 99.1153 42.4572 99.1381 42.5456C99.1681 42.6815 99.2254 42.8099 99.3067 42.9229C99.3879 43.0359 99.4914 43.1311 99.6107 43.2027C99.6916 43.2482 99.6309 43.3796 99.5526 43.3341C99.4033 43.2486 99.2747 43.1313 99.176 42.9904C99.176 42.9904 99.1583 42.9904 99.1482 42.9904C99.0748 42.9647 98.9953 42.9615 98.9201 42.9813C98.8449 43.0011 98.7773 43.043 98.7261 43.1016C98.6655 43.1724 98.5543 43.0814 98.6175 43.0106C98.6747 42.9441 98.7477 42.893 98.8299 42.8621C98.912 42.8312 99.0006 42.8214 99.0875 42.8337Z" fill="black"/>
</g>
</g>
<defs>
<clipPath id="clip0_2334_25981">
<rect width="126.368" height="100" fill="white"/>
</clipPath>
</defs>
</svg>
