<svg width="210" height="82" viewBox="0 0 210 82" fill="none" xmlns="http://www.w3.org/2000/svg">
<g opacity="0.95" clip-path="url(#clip0_2249_4288)">
<path d="M73.0161 16.9146C80.5082 39.8275 83.3468 80.7022 105.257 80.7022C106.925 80.7022 108.611 80.5387 110.303 80.2166C90.3852 75.5728 88.0241 35.1429 75.871 14.2061C74.9016 15.0902 73.9495 15.9933 73.0153 16.9146" fill="url(#paint0_linear_2249_4288)"/>
<path d="M75.8711 14.206C88.0249 35.1428 90.3852 75.5727 110.303 80.2165C111.867 79.9295 113.435 79.4946 115.007 78.946C97.1292 70.1875 92.1879 30.9267 78.3851 12.0264C77.5331 12.7369 76.6949 13.4638 75.8711 14.2068" fill="url(#paint1_linear_2249_4288)"/>
<path d="M93.3824 1.75352C91.7178 1.75352 90.0287 1.91703 88.3339 2.23915C83.9003 3.07469 79.3964 4.98369 74.8565 7.87213C76.0967 9.09601 77.2764 10.4965 78.3867 12.0253C83.0043 8.19343 87.5916 5.36222 92.1626 3.66006C93.8307 3.03589 95.55 2.558 97.3009 2.23179C96.0198 1.9095 94.7034 1.74883 93.3824 1.75352Z" fill="#14559A"/>
<path d="M128.963 70.8718C130.867 69.3501 132.701 67.7425 134.46 66.0539C126.847 43.2473 124.122 1.78809 102.057 1.78809C100.48 1.78809 98.8878 1.93525 97.2993 2.22957C117.397 7.22812 119.972 50.9544 128.963 70.8718" fill="url(#paint2_linear_2249_4288)"/>
<path d="M97.3001 2.23049C96.0189 1.90862 94.7025 1.74823 93.3815 1.75303L102.058 1.78492C100.48 1.78492 98.8886 1.93208 97.3001 2.22967" fill="#3092C4"/>
<path d="M128.577 75.7165C127.715 74.894 126.896 73.9914 126.09 73.0283C122.378 75.656 118.681 77.6492 115.006 78.9458C116.318 79.59 117.707 80.0632 119.139 80.3537C120.297 80.5883 121.477 80.705 122.659 80.7019C126.782 80.7019 130.042 80.2138 132.817 78.8829C131.288 78.0571 129.888 76.9861 128.577 75.7165Z" fill="#1969BC"/>
<path d="M92.1609 3.66349C110.162 13.0785 111.727 55.7158 126.09 73.0284C127.068 72.3379 128.025 71.6186 128.96 70.8717C119.969 50.9544 117.397 7.22478 97.3034 2.22949C95.5513 2.55929 93.8308 3.03905 92.1609 3.66349Z" fill="url(#paint3_linear_2249_4288)"/>
<path d="M78.385 12.0264C92.1871 30.9267 97.1292 70.1867 115.007 78.946C118.682 77.6494 122.38 75.6561 126.09 73.0285C111.727 55.7159 110.162 13.0786 92.1609 3.66357C87.5907 5.36246 83.0026 8.19367 78.385 12.0256" fill="url(#paint4_linear_2249_4288)"/>
<path d="M64.1849 16.3627C62.0216 21.2541 59.8118 27.6834 57.14 36.0756C62.4533 28.5901 67.7494 22.1395 73.0162 16.9153C72.291 14.685 71.5118 12.6289 70.6722 10.7959C68.4113 12.5335 66.2459 14.3921 64.1857 16.3635" fill="url(#paint5_linear_2249_4288)"/>
<path d="M72.5902 9.38477C71.9438 9.84478 71.305 10.3152 70.6738 10.7959C71.5135 12.628 72.2885 14.6842 73.0145 16.9145C73.9501 15.9948 74.9019 15.0918 75.8694 14.2059C74.8499 12.4539 73.7667 10.8359 72.5902 9.38477Z" fill="#2B74B1"/>
<path d="M74.8557 7.87289C74.0893 8.35994 73.3337 8.86367 72.5894 9.38374C73.7667 10.8349 74.8491 12.4529 75.8727 14.2081C76.6948 13.4624 77.533 12.7346 78.3867 12.0253C77.2773 10.4973 76.0975 9.09596 74.8565 7.87207" fill="#125A9E"/>
<path d="M197.642 0.00899314C187.461 39.2722 166.197 70.8079 148.368 78.7587H148.335C148.011 78.9058 147.69 79.0399 147.372 79.1699C147.328 79.1969 147.288 79.2002 147.255 79.2157C147.161 79.2533 147.075 79.2827 146.981 79.3204C146.937 79.3465 146.897 79.3555 146.857 79.371C146.707 79.425 146.56 79.47 146.412 79.5288C146.349 79.5558 146.289 79.5722 146.229 79.5934C146.156 79.6212 146.083 79.6452 146.008 79.6654C145.941 79.6915 145.87 79.7112 145.794 79.7406C145.73 79.7667 145.663 79.7782 145.603 79.8043C145.472 79.8419 145.353 79.8738 145.222 79.9188C145.168 79.9188 145.118 79.9482 145.062 79.963C144.981 79.9891 144.89 80.0079 144.804 80.0324C144.744 80.0586 144.694 80.0676 144.63 80.0807C144.54 80.1068 144.44 80.1314 144.349 80.1526L144.008 80.2278C144.825 80.5289 145.689 80.6806 146.559 80.6759C163.464 80.6759 180.509 50.3804 208.712 0H197.638L197.642 0.00899314Z" fill="url(#paint6_linear_2249_4288)"/>
<path d="M53.4691 3.34708C53.4798 3.34708 53.4937 3.32092 53.4994 3.32092C53.5133 3.32092 53.5337 3.32092 53.5403 3.29475H53.5615C53.6547 3.26205 53.7414 3.22526 53.8354 3.19011C53.8599 3.19011 53.8722 3.19011 53.8894 3.16394C53.9131 3.16394 53.936 3.13696 53.9597 3.13369C54.0594 3.10181 54.16 3.0642 54.254 3.02986H54.2695C54.4935 2.96283 54.7012 2.87943 54.9178 2.80177C54.9489 2.80177 54.9783 2.7756 55.0151 2.7756C55.1051 2.74617 55.1991 2.71429 55.2931 2.69303C55.3364 2.66605 55.3798 2.66605 55.4198 2.65215C55.5163 2.62354 55.6103 2.59084 55.7002 2.56958C55.7411 2.56958 55.7771 2.5426 55.8073 2.54015C56.118 2.4543 56.4262 2.37418 56.7369 2.29978C56.7802 2.29978 56.817 2.27281 56.8636 2.27035C56.9536 2.24419 57.0378 2.22947 57.1351 2.21639C57.1751 2.19023 57.2217 2.19023 57.2683 2.17633C57.3583 2.15017 57.4457 2.1469 57.543 2.12564H57.606C57.794 2.08722 57.9845 2.05615 58.1717 2.021H58.2854C58.3753 1.99484 58.4554 1.99157 58.5462 1.97521C58.5952 1.97521 58.6459 1.94905 58.6933 1.94905C58.7767 1.94905 58.8601 1.92207 58.9435 1.91144C58.9877 1.91144 59.0302 1.91144 59.0809 1.88447C59.2779 1.8583 59.4815 1.84768 59.6891 1.83132C59.0914 1.77124 58.4912 1.73986 57.8905 1.7373C38.8528 1.7373 12.6223 37.0616 0.806915 82.8072H3.08382C6.86502 76.064 10.262 69.6846 13.3687 63.696C21.6432 31.2937 38.498 9.19671 53.47 3.34217" fill="url(#paint7_linear_2249_4288)"/>
<path d="M64.1857 16.3624C66.2456 14.3909 68.4107 12.5324 70.6714 10.7948C70.2116 9.77205 69.6961 8.7753 69.127 7.80908C67.3856 9.92247 65.7938 12.7112 64.1857 16.3624Z" fill="#0D82CA"/>
<path d="M65.7497 3.61515C66.9924 4.65836 68.1067 6.09235 69.1262 7.81168C69.4475 7.4168 69.7721 7.05217 70.1089 6.71125C68.6945 5.39089 67.1673 4.30762 65.5085 3.4917C65.5756 3.52849 65.6426 3.55874 65.7121 3.58817C65.7121 3.58817 65.7382 3.61433 65.7497 3.61433" fill="#0D82CA"/>
<path d="M13.3671 63.6998C30.7271 30.2478 38.9517 9.0763 53.4691 3.34521C38.5005 9.20384 21.6424 31.3008 13.3679 63.6998" fill="url(#paint8_linear_2249_4288)"/>
<path d="M70.1081 6.71045C69.7704 7.05464 69.4499 7.416 69.1254 7.81088C69.6948 8.77718 70.2114 9.77361 70.673 10.7958C71.3042 10.3154 71.943 9.84525 72.5894 9.3855C71.8258 8.43695 70.9966 7.54308 70.1081 6.71045Z" fill="#127BCA"/>
<path d="M21.2483 82.6609C21.1412 82.6879 21.0341 82.6879 20.9336 82.6985H20.8739C20.7831 82.6985 20.6891 82.7255 20.6057 82.7255H20.5624C20.3449 82.7516 20.1307 82.7516 19.9239 82.768H19.8568C37.427 82.2766 45.4579 73.4797 49.4443 60.7209C52.4733 51.0484 54.9604 42.8997 57.1408 36.0625C49.7811 46.421 42.3888 58.7686 34.9563 72.6008C31.3722 79.2672 25.9223 82.0518 21.2475 82.6486" fill="url(#paint9_linear_2249_4288)"/>
<path d="M21.2483 82.6546C25.9223 82.0594 31.3722 79.2781 34.9563 72.6068C42.3888 58.7786 49.7852 46.4277 57.1367 36.0693C59.8118 27.6729 62.0192 21.2469 64.1857 16.3555C49.531 30.3047 34.819 53.4988 21.2475 82.648" fill="url(#paint10_linear_2249_4288)"/>
<path d="M13.3671 63.7007C10.2603 69.6885 6.86339 76.0679 3.08218 82.8119H9.70523C10.5416 76.375 11.7645 69.9941 13.3671 63.704" fill="#05A1E6"/>
<path d="M59.08 1.90179C59.0261 1.90179 58.986 1.92795 58.9394 1.92795C58.8593 1.95493 58.7759 1.95493 58.6917 1.9631C58.6426 1.9631 58.5952 1.9631 58.5445 1.99008C58.4546 2.01624 58.3712 2.0187 58.2837 2.03587C58.2437 2.03587 58.2036 2.03587 58.1701 2.06203C57.9796 2.09391 57.7924 2.12907 57.606 2.16095H57.5422C57.4449 2.18793 57.3574 2.20183 57.2675 2.21491C57.2209 2.24107 57.1743 2.24107 57.1302 2.2517C57.0402 2.27868 56.9503 2.28931 56.8628 2.30566C56.8162 2.33182 56.7794 2.33182 56.7361 2.33428C56.4254 2.40949 56.1172 2.48961 55.8065 2.57545C55.7738 2.57545 55.7395 2.60162 55.6994 2.60734C55.6062 2.6335 55.5155 2.66048 55.4182 2.68991C55.3781 2.71689 55.3315 2.71689 55.2915 2.72752C55.1983 2.75331 55.1056 2.78084 55.0135 2.81009C54.9775 2.81009 54.9473 2.83626 54.9138 2.83626C54.6996 2.91638 54.4886 2.99732 54.2679 3.06354C54.1747 3.09297 54.0741 3.13058 53.9736 3.16573C53.9335 3.19189 53.8975 3.19843 53.8509 3.21642C53.7569 3.24585 53.6629 3.28346 53.5762 3.3178C53.5435 3.34478 53.5092 3.34723 53.4863 3.36113C38.9689 9.09222 30.7435 30.2629 13.3842 63.7149C11.7802 70.005 10.5576 76.3862 9.72321 82.8237H10.6528C13.2706 82.8237 14.0097 82.7968 17.0216 82.7968H19.9411C20.1479 82.7706 20.3621 82.7706 20.5787 82.7534H20.6196C20.7096 82.7534 20.7995 82.7273 20.887 82.7273H20.9507C21.0472 82.7273 21.1576 82.7011 21.2647 82.6897C34.8362 53.5404 49.5473 30.3463 64.2029 16.3971C65.8135 12.7467 67.402 9.95801 69.1409 7.84789C68.1239 6.12938 67.0104 4.69211 65.7669 3.64891C65.7669 3.64891 65.7333 3.64891 65.7309 3.62193C65.6597 3.59332 65.5935 3.55816 65.5232 3.52382C65.4529 3.4854 65.3924 3.45597 65.3188 3.41918C65.2505 3.39039 65.1836 3.3582 65.1185 3.3227C65.0319 3.29572 64.9616 3.25812 64.8847 3.22378C64.8209 3.1968 64.7645 3.16982 64.7008 3.14366C64.5713 3.09339 64.4431 3.03969 64.3165 2.9826C64.2593 2.95644 64.2061 2.94172 64.153 2.92128C64.0557 2.88587 63.9595 2.8477 63.8644 2.80682C63.8178 2.77984 63.7646 2.77412 63.7107 2.75532C63.5742 2.70953 63.4401 2.6613 63.3134 2.61879H63.2798C63.1261 2.5681 62.9757 2.53049 62.8187 2.48798C62.7819 2.461 62.7517 2.461 62.7149 2.45527C62.5776 2.41848 62.4574 2.38169 62.3274 2.34654C62.2947 2.34654 62.2636 2.31956 62.2374 2.31956C61.9177 2.23765 61.5951 2.16729 61.2703 2.10863C61.2376 2.10863 61.2041 2.08165 61.1705 2.08165C61.0322 2.05415 60.8928 2.03179 60.7528 2.01461C60.7184 1.98845 60.6988 1.98845 60.6694 1.98845C60.5047 1.96322 60.3395 1.94168 60.1739 1.92386H60.0873C59.9532 1.8977 59.8297 1.89525 59.7063 1.88135C59.4954 1.90751 59.2951 1.91896 59.0972 1.93776" fill="url(#paint11_linear_2249_4288)"/>
<path d="M157.874 21.7455C154.534 32.4449 151.829 41.2713 149.475 48.5337C158.64 35.922 167.667 20.0565 176.264 1.74805C166.237 4.89728 160.887 12.1065 157.874 21.7455Z" fill="url(#paint12_linear_2249_4288)"/>
<path d="M149.766 78.0897C149.298 78.3284 148.83 78.5549 148.368 78.7585C166.197 70.8077 187.461 39.272 197.642 0.00878906H195.579C172.188 41.7926 164.665 69.7645 149.766 78.0897Z" fill="url(#paint13_linear_2249_4288)"/>
<path d="M138.125 74.5803C142.003 69.8458 145.163 61.7978 149.477 48.5337C144.501 55.3685 139.493 61.2426 134.48 66.0343C134.48 66.0605 134.48 66.0605 134.454 66.0769C135.547 69.3536 136.747 72.2453 138.115 74.5795" fill="#079AE1"/>
<path d="M138.125 74.5801C136.805 76.1907 135.407 77.4186 133.852 78.3278C133.511 78.5256 133.166 78.712 132.816 78.8837C134.503 79.7972 136.349 80.3792 138.255 80.5981C138.549 80.6276 138.84 80.6545 139.144 80.6758H139.198C139.335 80.6758 139.479 80.6758 139.626 80.702H141.077C141.13 80.702 141.186 80.702 141.24 80.6758C141.344 80.6758 141.453 80.6758 141.56 80.6488H141.719C141.828 80.6488 141.949 80.6227 142.066 80.6112H142.093C142.128 80.6112 142.165 80.585 142.2 80.585C142.322 80.5581 142.451 80.5474 142.571 80.5286H142.681C142.817 80.5025 142.958 80.4853 143.098 80.4591H143.166C143.446 80.4052 143.72 80.3529 143.998 80.2825C141.698 79.4405 139.771 77.4538 138.113 74.625" fill="#1969BC"/>
<path d="M105.257 80.7021C106.926 80.7021 108.611 80.5386 110.303 80.214C111.868 79.9303 113.436 79.4945 115.008 78.9468C116.318 79.5904 117.706 80.0635 119.136 80.3546C120.296 80.589 121.477 80.7054 122.661 80.7021H105.257Z" fill="#1E5CB3"/>
<path d="M122.661 80.7019C126.78 80.7019 130.043 80.2138 132.815 78.8828C134.502 79.7969 136.349 80.3794 138.255 80.5989C138.549 80.6275 138.84 80.6545 139.144 80.6757H139.198C139.335 80.6757 139.479 80.6757 139.626 80.7027H140.126H122.649H122.661V80.7019Z" fill="#1E5CB3"/>
<path d="M140.136 80.7021H141.089C141.146 80.7021 141.199 80.7021 141.253 80.6759C141.357 80.6759 141.466 80.6759 141.577 80.6489H141.735C141.845 80.6489 141.965 80.6228 142.079 80.6121H142.109C142.144 80.6121 142.178 80.586 142.214 80.586C142.336 80.559 142.465 80.5484 142.584 80.5287C142.625 80.5287 142.657 80.5287 142.699 80.5026C142.836 80.4764 142.977 80.4625 143.118 80.4364H143.185C143.465 80.3824 143.739 80.3293 144.016 80.2598C144.833 80.5607 145.697 80.7125 146.567 80.7078L140.141 80.734L140.136 80.7021Z" fill="#1D60B5"/>
<path d="M134.465 66.0778V66.0508C132.707 67.7394 130.873 69.3471 128.968 70.8687C128.031 71.6147 127.074 72.3338 126.096 73.0254C126.901 73.9885 127.721 74.891 128.584 75.7143C129.895 76.984 131.295 78.0542 132.823 78.8799C133.171 78.7082 133.518 78.5218 133.856 78.3248C135.414 77.4157 136.812 76.1885 138.132 74.5771C136.765 72.243 135.565 69.3513 134.471 66.0745" fill="#175FAB"/>
<path d="M189.046 0.00878906H178.662C178.101 0.0357685 177.556 0.0545723 177.018 0.0889098C176.764 0.634221 176.503 1.17953 176.252 1.72812C167.656 20.0365 158.628 35.9021 149.464 48.5137C145.153 61.777 141.991 69.825 138.113 74.5595C139.771 77.3883 141.7 79.3774 143.993 80.2203C144.06 80.1933 144.114 80.1933 144.174 80.1794H144.212C144.252 80.1794 144.295 80.1532 144.338 80.1532C144.432 80.1263 144.532 80.1099 144.626 80.0813C144.686 80.0543 144.736 80.0519 144.796 80.0322C144.884 80.0061 144.974 79.9873 145.054 79.966C145.108 79.939 145.161 79.9309 145.214 79.9202C145.348 79.8769 145.468 79.845 145.596 79.805C145.655 79.7788 145.719 79.7559 145.786 79.7404C145.86 79.7142 145.933 79.6954 146 79.6635C146.077 79.6366 146.154 79.6227 146.221 79.594C146.281 79.5671 146.344 79.5507 146.401 79.527C146.551 79.473 146.699 79.4281 146.849 79.3692C146.89 79.3692 146.93 79.3316 146.973 79.3234C147.063 79.2858 147.157 79.2564 147.247 79.2163C147.28 79.1893 147.321 79.1869 147.364 79.173C147.679 79.0422 148.003 78.9081 148.327 78.7618H148.361C148.832 78.552 149.297 78.329 149.755 78.093C164.657 69.7678 172.181 41.7958 195.571 0.0120593H189.038L189.047 0.00878906H189.046Z" fill="url(#paint14_linear_2249_4288)"/>
<path d="M59.6891 1.84532C59.7259 1.84532 59.7594 1.84532 59.7954 1.87148C59.8861 1.87148 59.9769 1.87148 60.0668 1.90091H60.1568C60.3211 1.92707 60.4846 1.94179 60.6522 1.9655C60.6824 1.9655 60.7094 1.9655 60.7356 1.99166C60.8729 2.01782 61.0136 2.04071 61.1534 2.06115C61.1836 2.06115 61.2237 2.08813 61.2572 2.08813C61.5785 2.1519 61.9063 2.21894 62.2203 2.30151C62.2497 2.30151 62.2808 2.32849 62.3069 2.32849C62.441 2.36038 62.5612 2.40044 62.6953 2.43805C62.7362 2.43805 62.7648 2.46421 62.8016 2.47075C62.9594 2.51081 63.1065 2.55087 63.2594 2.60156C63.2668 2.60156 63.2757 2.60156 63.2937 2.62772C63.4245 2.66778 63.5578 2.71847 63.6943 2.76425C63.7491 2.79041 63.799 2.80186 63.8489 2.81494C63.9429 2.85582 64.0467 2.89506 64.1366 2.93267C64.1898 2.93267 64.2429 2.97028 64.3001 2.9899C64.4236 3.04549 64.5536 3.09618 64.6811 3.14932C64.7482 3.1763 64.8046 3.20655 64.8692 3.23026C64.9427 3.26787 65.0188 3.30221 65.0989 3.32837C65.1659 3.36107 65.2395 3.39541 65.3033 3.42484C65.3736 3.46326 65.4398 3.49188 65.5077 3.52949C67.1657 4.34541 68.6937 5.43195 70.1081 6.74985C70.6145 6.21657 71.1597 5.72142 71.7391 5.26843C68.6463 3.07411 65.143 1.82324 61.1002 1.82324C60.6318 1.82324 60.1641 1.85022 59.6891 1.88538" fill="#7DCBEC"/>
<path d="M70.1081 6.71075C70.9967 7.54338 71.8258 8.43726 72.5894 9.3858C73.3329 8.86395 74.0885 8.35965 74.8557 7.87332C73.8934 6.90429 72.8499 6.01945 71.7367 5.22852C71.1573 5.68063 70.6129 6.17584 70.1081 6.70993" fill="#5EC5ED"/>
<path d="M59.6883 1.84431C60.1625 1.80425 60.6309 1.78708 61.0994 1.78708C65.1414 1.78708 68.6455 3.03795 71.7383 5.229C75.002 2.65369 78.9467 1.75438 84.4268 1.75438H57.8889C58.502 1.75438 59.0997 1.79117 59.6883 1.84431Z" fill="url(#paint15_linear_2249_4288)"/>
<path d="M84.4268 1.75444C78.9467 1.75444 75.002 2.65375 71.7383 5.22906C72.8501 6.02058 73.8927 6.90508 74.8548 7.87305C79.398 4.98461 83.8987 3.07152 88.3364 2.23598C89.9993 1.91974 91.688 1.75854 93.3807 1.75444H84.4268Z" fill="url(#paint16_linear_2249_4288)"/>
<path d="M149.475 48.5399C151.832 41.2718 154.531 32.4479 157.877 21.7452C160.894 12.1021 166.233 4.89373 176.26 1.74776C176.525 1.20899 176.775 0.653869 177.033 0.109375C160.686 1.08881 153.046 9.4042 149.201 21.7183C142.478 43.2168 138.404 57.1529 134.483 66.0332C139.492 61.2456 144.5 55.3673 149.475 48.5399Z" fill="url(#paint17_linear_2249_4288)"/>
<path d="M173.457 74.975H171.605V80.7331H170.849V74.975H168.989V74.2899H173.457V74.975H173.457ZM181.042 80.7314H180.29V76.4049C180.29 76.064 180.316 75.6462 180.351 75.154C180.273 75.4484 180.21 75.6528 180.151 75.7836L177.957 80.7314H177.589L175.39 75.8204C175.325 75.6838 175.261 75.4623 175.191 75.1549H175.165C175.191 75.414 175.2 75.8334 175.2 76.4155V80.7322H174.478V74.2891H175.474L177.45 78.7856C177.6 79.1233 177.694 79.3841 177.741 79.5582H177.77C177.901 79.2034 178.009 78.9393 178.081 78.7652L180.098 74.2891H181.047V80.7314H181.042Z" fill="black"/>
</g>
<defs>
<linearGradient id="paint0_linear_2249_4288" x1="91.6578" y1="1.22867" x2="91.6578" y2="100.402" gradientUnits="userSpaceOnUse">
<stop stop-color="#0994DC"/>
<stop offset="0.35001" stop-color="#66CEF5"/>
<stop offset="0.84616" stop-color="#127BCA"/>
<stop offset="1" stop-color="#127BCA"/>
</linearGradient>
<linearGradient id="paint1_linear_2249_4288" x1="95.4393" y1="-1.28161" x2="95.4393" y2="100.417" gradientUnits="userSpaceOnUse">
<stop stop-color="#0E76BC"/>
<stop offset="0.36" stop-color="#36AEE8"/>
<stop offset="0.84616" stop-color="#00ADEF"/>
<stop offset="1" stop-color="#00ADEF"/>
</linearGradient>
<linearGradient id="paint2_linear_2249_4288" x1="115.879" y1="78.4171" x2="115.879" y2="-2.50478" gradientUnits="userSpaceOnUse">
<stop stop-color="#1C63B7"/>
<stop offset="0.5" stop-color="#33BDF2"/>
<stop offset="1" stop-color="#33BDF2" stop-opacity="0.42"/>
</linearGradient>
<linearGradient id="paint3_linear_2249_4288" x1="110.561" y1="-11.5869" x2="110.561" y2="94.004" gradientUnits="userSpaceOnUse">
<stop stop-color="#166AB8"/>
<stop offset="0.39999" stop-color="#36AEE8"/>
<stop offset="0.84616" stop-color="#0798DD"/>
<stop offset="1" stop-color="#0798DD"/>
</linearGradient>
<linearGradient id="paint4_linear_2249_4288" x1="102.237" y1="-11.0323" x2="102.237" y2="101.25" gradientUnits="userSpaceOnUse">
<stop stop-color="#124379"/>
<stop offset="0.39" stop-color="#1487CB"/>
<stop offset="0.78023" stop-color="#165197"/>
<stop offset="1" stop-color="#165197"/>
</linearGradient>
<linearGradient id="paint5_linear_2249_4288" x1="57.14" y1="23.436" x2="73.0162" y2="23.436" gradientUnits="userSpaceOnUse">
<stop stop-color="#33BDF2" stop-opacity="0.698"/>
<stop offset="1" stop-color="#1DACD8"/>
</linearGradient>
<linearGradient id="paint6_linear_2249_4288" x1="176.367" y1="76.3889" x2="176.367" y2="-2.44045" gradientUnits="userSpaceOnUse">
<stop stop-color="#136AB4"/>
<stop offset="0.6" stop-color="#59CAF5" stop-opacity="0.549"/>
<stop offset="1" stop-color="#59CAF5" stop-opacity="0.235"/>
</linearGradient>
<linearGradient id="paint7_linear_2249_4288" x1="0.806326" y1="42.2723" x2="59.6885" y2="42.2723" gradientUnits="userSpaceOnUse">
<stop stop-color="#05A1E6" stop-opacity="0.247"/>
<stop offset="1" stop-color="#05A1E6"/>
</linearGradient>
<linearGradient id="paint8_linear_2249_4288" x1="33.4173" y1="78.3745" x2="33.4173" y2="-2.3408" gradientUnits="userSpaceOnUse">
<stop stop-color="#318ED5"/>
<stop offset="1" stop-color="#38A7E4"/>
</linearGradient>
<linearGradient id="paint9_linear_2249_4288" x1="38.4984" y1="78.6579" x2="38.4984" y2="0.199691" gradientUnits="userSpaceOnUse">
<stop stop-color="#05A1E6"/>
<stop offset="1" stop-color="#05A1E6" stop-opacity="0.549"/>
</linearGradient>
<linearGradient id="paint10_linear_2249_4288" x1="42.7166" y1="82.6612" x2="42.7166" y2="16.3621" gradientUnits="userSpaceOnUse">
<stop stop-color="#1959A6"/>
<stop offset="0.5" stop-color="#05A1E6"/>
<stop offset="0.91759" stop-color="#7EC5EA"/>
<stop offset="1" stop-color="#7EC5EA"/>
</linearGradient>
<linearGradient id="paint11_linear_2249_4288" x1="45.2574" y1="78.4269" x2="22.7837" y2="9.74568" gradientUnits="userSpaceOnUse">
<stop stop-color="#165096"/>
<stop offset="1" stop-color="#0D82CA"/>
</linearGradient>
<linearGradient id="paint12_linear_2249_4288" x1="162.868" y1="37.772" x2="162.868" y2="0.204591" gradientUnits="userSpaceOnUse">
<stop stop-color="#05A1E6"/>
<stop offset="0.87363" stop-color="#0495D6"/>
<stop offset="1" stop-color="#0495D6"/>
</linearGradient>
<linearGradient id="paint13_linear_2249_4288" x1="180.526" y1="-3.26799" x2="145.514" y2="74.4714" gradientUnits="userSpaceOnUse">
<stop stop-color="#38A7E4" stop-opacity="0.329"/>
<stop offset="0.96153" stop-color="#0E88D3"/>
<stop offset="1" stop-color="#0E88D3"/>
</linearGradient>
<linearGradient id="paint14_linear_2249_4288" x1="166.852" y1="-0.228637" x2="166.852" y2="81.7299" gradientUnits="userSpaceOnUse">
<stop stop-color="#168CD4"/>
<stop offset="0.5" stop-color="#1C87CC"/>
<stop offset="1" stop-color="#154B8D"/>
</linearGradient>
<linearGradient id="paint15_linear_2249_4288" x1="62.3138" y1="-1.91361" x2="62.6691" y2="6.68368" gradientUnits="userSpaceOnUse">
<stop stop-color="#97D6EE"/>
<stop offset="0.70329" stop-color="#55C1EA"/>
<stop offset="1" stop-color="#55C1EA"/>
</linearGradient>
<linearGradient id="paint16_linear_2249_4288" x1="73.2294" y1="7.48757" x2="74.8347" y2="-1.61747" gradientUnits="userSpaceOnUse">
<stop stop-color="#7ACCEC"/>
<stop offset="1" stop-color="#3FB7ED"/>
</linearGradient>
<linearGradient id="paint17_linear_2249_4288" x1="155.756" y1="4.30411" x2="155.756" y2="84.4662" gradientUnits="userSpaceOnUse">
<stop stop-color="#1DA7E7"/>
<stop offset="1" stop-color="#37ABE7" stop-opacity="0"/>
</linearGradient>
<clipPath id="clip0_2249_4288">
<rect width="210" height="81.9" fill="white"/>
</clipPath>
</defs>
</svg>
