<svg width="15" height="9" viewBox="0 0 15 9" fill="none" xmlns="http://www.w3.org/2000/svg">
<path d="M1.04042 0.288671C1.22518 0.103914 1.44393 0.0115351 1.69668 0.0115351C1.94893 0.0115351 2.16744 0.103914 2.3522 0.288671L7.76559 5.70207L13.1975 0.270196C13.3699 0.0977557 13.5855 0.0115356 13.8441 0.0115356C14.1028 0.0115356 14.3245 0.103914 14.5092 0.288672C14.694 0.473429 14.7864 0.692182 14.7864 0.944931C14.7864 1.19719 14.694 1.41569 14.5092 1.60045L8.28291 7.8083C8.20901 7.88221 8.12895 7.93468 8.04273 7.96572C7.95651 7.99626 7.86413 8.01154 7.76559 8.01154C7.66705 8.01154 7.57468 7.99626 7.48846 7.96572C7.40224 7.93468 7.32217 7.88221 7.24827 7.8083L1.02194 1.58197C0.849504 1.40953 0.763284 1.19719 0.763284 0.94493C0.763284 0.692182 0.855662 0.473429 1.04042 0.288671Z" fill="#929292"/>
</svg>
