<svg width="62" height="80" viewBox="0 0 62 80" fill="none" xmlns="http://www.w3.org/2000/svg">
<g clip-path="url(#clip0_1180_17869)">
<path d="M43.2115 17.0396C37.5823 11.413 32.2115 6.04927 30.6131 0C29.0145 6.04927 23.6428 11.413 18.0145 17.0396C9.57203 25.4767 1.64143e-06 35.039 1.64143e-06 49.3807C-0.00131508 53.4018 0.789566 57.3838 2.32747 61.0992C3.86538 64.8146 6.12017 68.1907 8.96307 71.0345C11.806 73.8783 15.1813 76.1342 18.8962 77.6733C22.6111 79.2125 26.5928 80.0047 30.6139 80.0047C34.6351 80.0047 38.6168 79.2125 42.3317 77.6733C46.0466 76.1342 49.4219 73.8783 52.2648 71.0345C55.1077 68.1907 57.3625 64.8146 58.9004 61.0992C60.4383 57.3838 61.2292 53.4018 61.2279 49.3807C61.2279 35.0399 51.6566 25.4767 43.2115 17.0396ZM13.0119 56.5143C11.1348 56.4505 4.20707 44.5097 17.0591 31.7957L25.5637 41.0856C25.6367 41.1577 25.6936 41.2444 25.7307 41.3401C25.7678 41.4358 25.7841 41.5383 25.7788 41.6407C25.7734 41.7432 25.7464 41.8434 25.6996 41.9347C25.6527 42.026 25.5871 42.1063 25.5069 42.1704C23.4775 44.2518 14.8276 52.9259 13.7525 55.9252C13.5306 56.5443 13.2065 56.5209 13.0119 56.5143ZM30.614 72.2519C29.2313 72.2519 27.8622 71.9796 26.5847 71.4505C25.3073 70.9213 24.1466 70.1458 23.1689 69.1681C22.1912 68.1904 21.4156 67.0297 20.8865 65.7523C20.3574 64.4748 20.085 63.1057 20.0851 61.723C20.1239 59.17 21.052 56.7106 22.7094 54.7684C24.6079 52.4469 30.6126 45.9174 30.6126 45.9174C30.6126 45.9174 36.5254 52.5427 38.5016 54.7462C40.2232 56.6599 41.1655 59.149 41.1429 61.723C41.1429 64.5154 40.0336 67.1935 38.059 69.1681C36.0845 71.1426 33.4064 72.2519 30.614 72.2519ZM50.7663 55.1777C50.5394 55.674 50.0246 56.5026 49.3298 56.5278C48.0913 56.573 47.959 55.9384 47.0436 54.5836C45.0339 51.6096 27.4955 33.2799 24.2151 29.735C21.3296 26.617 23.8088 24.4189 24.9587 23.2669C26.4015 21.8216 30.6129 17.6128 30.6129 17.6128C30.6129 17.6128 43.1702 29.5272 48.4011 37.668C53.632 45.8088 51.8293 52.8531 50.7663 55.1777Z" fill="#009CDE"/>
</g>
<defs>
<clipPath id="clip0_1180_17869">
<rect width="61.2279" height="80" fill="white"/>
</clipPath>
</defs>
</svg>
