<svg width="241" height="200" viewBox="0 0 241 200" fill="none" xmlns="http://www.w3.org/2000/svg">
<g clip-path="url(#clip0_1215_24980)">
<path d="M96.8844 195.809C96.8844 198.125 82.6667 200.007 65.1254 200.007C47.5841 200.007 33.3594 198.132 33.3594 195.809C33.3594 193.486 47.5841 191.611 65.1254 191.611C82.6667 191.611 96.8844 193.5 96.8844 195.809Z" fill="#EBEBEB"/>
<path d="M208.57 193.717C226.303 193.717 240.679 192.31 240.679 190.575C240.679 188.84 226.303 187.434 208.57 187.434C190.837 187.434 176.461 188.84 176.461 190.575C176.461 192.31 190.837 193.717 208.57 193.717Z" fill="#EBEBEB"/>
<path d="M9.92163 155.059H6.1433V151.28H3.77834V155.059H0V157.417H3.77834V161.195H6.1433V157.417H9.92163V155.059Z" fill="#FF6C37"/>
<path d="M13.3653 148.104C13.3653 148.566 13.2283 149.018 12.9715 149.402C12.7147 149.786 12.3497 150.086 11.9227 150.263C11.4957 150.44 11.0258 150.486 10.5724 150.396C10.1191 150.306 9.70273 150.083 9.3759 149.756C9.04906 149.429 8.82648 149.013 8.73631 148.56C8.64614 148.106 8.69242 147.637 8.8693 147.209C9.04618 146.782 9.34572 146.417 9.73003 146.161C10.1143 145.904 10.5662 145.767 11.0284 145.767C11.6482 145.767 12.2426 146.013 12.6809 146.451C13.1191 146.89 13.3653 147.484 13.3653 148.104Z" fill="#407BFF"/>
<path d="M208.529 15.0224H30.6256C23.4844 15.0224 17.6953 20.8115 17.6953 27.9527V165.428C17.6953 172.569 23.4844 178.359 30.6256 178.359H208.529C215.671 178.359 221.46 172.569 221.46 165.428V27.9527C221.46 20.8115 215.671 15.0224 208.529 15.0224Z" fill="#455A64"/>
<path d="M215.309 164.141V29.2402C215.309 24.5991 211.546 20.8369 206.905 20.8369L32.2621 20.8369C27.6211 20.8369 23.8588 24.5991 23.8588 29.2402V164.141C23.8588 168.782 27.6211 172.544 32.2621 172.544H206.905C211.546 172.544 215.309 168.782 215.309 164.141Z" fill="#A6A6A6"/>
<path d="M204.862 25.2239H34.3046C31.3059 25.2239 28.875 27.6548 28.875 30.6535V162.727C28.875 165.726 31.3059 168.157 34.3046 168.157H204.862C207.86 168.157 210.291 165.726 210.291 162.727V30.6535C210.291 27.6548 207.86 25.2239 204.862 25.2239Z" fill="#FFF3EE"/>
<path d="M5.46484 167.842C7.53596 171.273 10.4565 174.112 13.9446 176.085C17.4327 178.059 21.3705 179.099 25.3781 179.107H213.784C217.792 179.099 221.73 178.059 225.218 176.085C228.706 174.112 231.626 171.273 233.697 167.842H5.46484Z" fill="#A6A6A6"/>
<path d="M7.89976 171.152H231.262C232.169 170.122 232.984 169.014 233.697 167.842H5.46484C6.17858 169.014 6.99331 170.122 7.89976 171.152Z" fill="#455A64"/>
<path d="M93.8574 110.188H43.1367V138.574H93.8574V110.188Z" fill="#FF6C37"/>
<path d="M111.831 37.5175H92.75V40.1484H111.831V37.5175Z" fill="#455A64"/>
<path d="M79.728 37.5175H68.0781V40.1484H79.728V37.5175Z" fill="#455A64"/>
<path d="M64.5524 37.5175H41.4766V40.1484H64.5524V37.5175Z" fill="#455A64"/>
<path d="M88.3778 37.5175H83.375V40.1484H88.3778V37.5175Z" fill="#455A64"/>
<path d="M128.295 37.5175H116.688V40.1484H128.295V37.5175Z" fill="#455A64"/>
<path d="M99.9078 45.2001H92.75V47.831H99.9078V45.2001Z" fill="#455A64"/>
<path d="M109.916 45.2001H102.758V47.831H109.916V45.2001Z" fill="#455A64"/>
<path d="M67.8647 45.2001H56.2148V47.831H67.8647V45.2001Z" fill="#455A64"/>
<path d="M52.9025 45.2001H41.4766V47.831H52.9025V45.2001Z" fill="#455A64"/>
<path d="M90.2402 45.2001H71.0547V47.831H90.2402V45.2001Z" fill="#455A64"/>
<path d="M75.1249 190.988C73.9215 187.119 71.5775 170.739 71.0597 164.323C70.9478 162.965 56.0233 157.137 56.0233 157.137C47.2842 156.913 42.7852 160.341 42.7852 160.341L63.7759 167.422C63.7759 176.889 71.8364 191.156 71.8364 191.156L75.1249 190.988Z" fill="black"/>
<path d="M57.1314 169.305L50.9041 190.995L54.4586 191.772C56.0119 186.636 64.982 169.144 65.1919 167.045C65.2968 166.149 65.2338 165.463 64.905 165.19C64.5761 164.917 54.5146 158.893 51.6108 158.242C47.6996 157.361 41.8921 155.954 41.8921 155.954C40.8593 157.192 40.0925 158.629 39.6399 160.176C39.1872 161.723 39.0584 163.346 39.2613 164.945C39.898 170.543 57.1314 169.305 57.1314 169.305Z" fill="black"/>
<path d="M48.7281 131.15C48.7281 131.15 41.8991 131.759 41.5843 133.62C41.2694 135.481 44.8448 147.257 44.8448 147.257L41.4023 156.549C41.4023 156.549 51.254 158.97 56.0539 157.165C56.5087 157.368 57.2854 147.446 57.2854 147.446L58.9926 142.548L61.1616 149.902L66.1225 156.899L69.39 154.24L65.7726 147.88C65.7726 147.88 60.1751 135.104 58.6847 133.62C55.858 130.828 48.7281 131.15 48.7281 131.15Z" fill="#407BFF"/>
<path d="M54.1341 131.64L53.6093 124.643H48.4876V131.199C47.8369 131.276 49.1872 136.51 53.3084 136.51C53.2944 136.489 55.2326 135.789 54.1341 131.64Z" fill="#E67750"/>
<path d="M43.7603 143.542C44.362 145.641 44.8448 147.257 44.8448 147.257L41.4023 156.549C41.4023 156.549 48.896 158.389 53.9968 157.662C53.542 157.326 47.4967 153.254 47.2028 151.476C46.5521 147.726 43.7603 143.542 43.7603 143.542Z" fill="#407BFF"/>
<path d="M58.6982 117.534C58.2644 115.736 55.4586 115.211 51.0016 115.736C47.9929 116.093 47.3142 118.864 47.2302 120.928H47.0903C46.5754 121.088 46.1276 121.413 45.8164 121.853C45.5052 122.293 45.3479 122.824 45.3691 123.363C45.3882 123.914 45.5984 124.44 45.9638 124.853C46.162 125.172 46.4288 125.442 46.7448 125.644C47.0607 125.846 47.4178 125.975 47.79 126.022C47.9992 126.046 48.2105 126.046 48.4197 126.022C49.6722 128.631 51.9742 131.885 55.2067 131.5C59.9646 128.205 58.6982 117.534 58.6982 117.534Z" fill="#FD9E71"/>
<path d="M48.5431 122.264C48.2769 121.554 48.2533 120.775 48.4761 120.05C48.6988 119.325 49.1554 118.693 49.7746 118.255C51.9786 116.597 52.1326 119.046 54.4556 119.346C56.7785 119.647 59.0875 119.458 58.8356 120.998C60.235 117.499 58.2059 115.533 55.9319 114.442C53.6579 113.35 50.0825 112.881 47.6056 114.952C45.1287 117.023 45.4645 121.984 45.4645 121.984C47.0948 121.194 47.5356 121.837 48.5431 122.264Z" fill="#201251"/>
<path d="M47.6057 114.952C47.6057 114.952 45.5486 109.425 41.6513 110.789C37.754 112.154 39.5103 120.011 39.0834 123.433C38.6566 126.854 36.2007 127.001 35.3261 125.483C33.6958 128.575 40.077 131.724 42.1551 128.75C44.2332 125.777 43.0367 118.255 44.3661 117.457C44.7892 117.249 45.2613 117.16 45.7313 117.2C46.2013 117.241 46.6511 117.41 47.0319 117.688L47.6057 114.952Z" fill="#201251"/>
<path d="M41.742 132.997C40.0977 133.942 37.082 145.242 37.082 147.103C37.082 148.964 51.6147 158.235 51.6147 158.235C51.6147 158.235 52.3143 155.947 53.8397 155.479C53.5248 155.325 42.9805 145.242 42.9805 145.242L45.7792 137.343C45.7792 137.343 45.7722 130.66 41.742 132.997Z" fill="#407BFF"/>
<path d="M50.5039 159.656L65.3164 159.201L74.9372 162.769L58.6553 163.637L50.5039 159.656Z" fill="#455A64"/>
<path d="M58.6553 163.637L50.5039 160.474V159.656L59.299 162.825L58.6553 163.637Z" fill="#263238"/>
<path d="M58.6562 163.637L63.5541 150.266L79.745 151.133L74.9381 163.077L58.6562 163.637Z" fill="#263238"/>
<path d="M68.5976 156.185C68.1218 157.144 68.2618 158.193 68.9265 158.522C69.5912 158.851 70.5148 158.34 71.0256 157.382C71.5363 156.423 71.3614 155.367 70.6967 155.038C70.032 154.709 69.0804 155.22 68.5976 156.185Z" fill="#455A64"/>
<path d="M53.8422 155.479C53.8422 155.479 59.7336 160.139 59.1179 160.446C57.555 160.802 55.9187 160.638 54.4579 159.978C53.0586 159.208 51.6172 158.235 51.6172 158.235C51.6172 158.235 52.135 155.64 53.8422 155.479Z" fill="#FD9E71"/>
<path d="M54.6199 190.694C55.6624 191.751 59.2239 193.36 60.9801 193.794C62.8553 194.263 62.5264 195.837 61.155 195.837C58.4542 195.837 52.4578 195.501 49.4981 195.501C49.0363 194.102 49.834 192.24 50.7786 190.981C51.0654 190.596 54.466 190.54 54.6199 190.694Z" fill="#201251"/>
<path d="M75.866 190.694C76.9085 191.751 80.4699 193.36 82.2262 193.794C84.1083 194.263 83.7725 195.837 82.4011 195.837C79.7073 195.837 73.7039 195.501 70.7442 195.501C70.2824 194.102 71.0801 192.24 72.0247 190.981C72.3115 190.596 75.6841 190.54 75.866 190.694Z" fill="#201251"/>
<path d="M57.6349 99.1534H43.4102V103.072H57.6349V99.1534Z" fill="#407BFF"/>
<path d="M93.8576 99.1534H79.6328V103.072H93.8576V99.1534Z" fill="#407BFF"/>
<path d="M75.7482 99.1534H61.5234V103.072H75.7482V99.1534Z" fill="#407BFF"/>
<path d="M136.274 23.5293L91.1992 34.584L95.3175 51.3758L140.392 40.3211L136.274 23.5293Z" fill="#407BFF"/>
<path d="M127.341 28.1388L94.1445 36.2803L94.7145 38.6043L127.911 30.4629L127.341 28.1388Z" fill="#FEDB9B"/>
<path d="M122.892 33.6062L95.1523 40.4094L95.7223 42.7334L123.462 35.9303L122.892 33.6062Z" fill="#FEDB9B"/>
<path d="M109.421 41.7012L96.2578 44.9295L96.8278 47.2536L109.991 44.0253L109.421 41.7012Z" fill="#FEDB9B"/>
<path d="M131.32 31.599L124.273 33.3273L124.842 35.6445L131.889 33.9163L131.32 31.599Z" fill="white"/>
<path d="M93.5016 53.5195H42.8789V94.8293H93.5016V53.5195Z" fill="white"/>
<path d="M196.837 77.344H97.2852V95.9698H196.837V77.344Z" fill="#407BFF"/>
<path d="M193.856 80.0448H166.918V93.283H193.856V80.0448Z" fill="white"/>
<path d="M163.194 80.8494H100.922V83.4033H163.194V80.8494Z" fill="#75D5EF"/>
<path d="M163.194 85.3834H100.922V87.9373H163.194V85.3834Z" fill="#75D5EF"/>
<path d="M142.847 89.9244H100.922V92.4783H142.847V89.9244Z" fill="#75D5EF"/>
<path d="M192.974 109.285H97.3047V154.17H192.974V109.285Z" fill="white"/>
<path d="M192.974 109.285H97.3047V116.73H192.974V109.285Z" fill="#FF6C37"/>
<path d="M154.87 127.309H99.6289V131.094H154.87V127.309Z" fill="#FFBC96"/>
<path d="M149.167 134.047H99.6289V137.839H149.167V134.047Z" fill="#FFBC96"/>
<path d="M133.039 140.778H99.6289V144.57H133.039V140.778Z" fill="#FFBC96"/>
<path d="M119.542 121.103H99.6289V124.895H119.542V121.103Z" fill="#FFBC96"/>
<path d="M189.147 120.921H160.25V149.818H189.147V120.921Z" fill="#AFCDFB"/>
<path d="M177.661 135.181C178.12 134.543 178.365 133.776 178.36 132.99V130.786C178.36 129.81 177.973 128.874 177.283 128.184C176.592 127.494 175.656 127.106 174.68 127.106C173.704 127.106 172.768 127.494 172.078 128.184C171.387 128.874 171 129.81 171 130.786V132.99C170.998 133.819 171.28 134.624 171.797 135.271C170.103 135.871 168.636 136.98 167.598 138.447C166.561 139.915 166.004 141.668 166.004 143.465H184.196C184.196 143.465 183.517 136.881 177.661 135.181Z" fill="#F6FFFA"/>
<path d="M102.254 115.064C103.29 115.064 104.129 114.225 104.129 113.189C104.129 112.154 103.29 111.314 102.254 111.314C101.218 111.314 100.379 112.154 100.379 113.189C100.379 114.225 101.218 115.064 102.254 115.064Z" fill="#DB5A28"/>
<path d="M108.27 115.064C109.305 115.064 110.145 114.225 110.145 113.189C110.145 112.154 109.305 111.314 108.27 111.314C107.234 111.314 106.395 112.154 106.395 113.189C106.395 114.225 107.234 115.064 108.27 115.064Z" fill="#FFE780"/>
<path d="M115.246 115.064C116.282 115.064 117.121 114.225 117.121 113.189C117.121 112.154 116.282 111.314 115.246 111.314C114.211 111.314 113.371 112.154 113.371 113.189C113.371 114.225 114.211 115.064 115.246 115.064Z" fill="#1FB288"/>
<path d="M193.915 35.7263H160.406V69.2345H193.915V35.7263Z" fill="#FF6C37"/>
<path d="M207.318 184.572C207.318 184.572 207.605 185.453 204.904 186.671C202.203 187.888 199.349 187.469 198.649 188.504C198.232 189.116 197.937 189.802 197.781 190.526H213.174C213.174 190.526 213.063 186.279 211.32 184.39C211.523 184.81 207.318 184.572 207.318 184.572Z" fill="#9E472D"/>
<path d="M224.068 184.537C224.068 184.537 224.341 185.383 221.745 186.573C219.149 187.762 216.4 187.336 215.728 188.336C215.328 188.922 215.048 189.58 214.902 190.274H229.687C229.687 190.274 229.575 186.188 227.896 184.376C228.113 184.796 224.068 184.537 224.068 184.537Z" fill="#9E472D"/>
<path d="M204.291 103.701L193.124 105.668L185.273 88.8609L197.294 87.8743L204.291 103.701Z" fill="#F5F5F5"/>
<path d="M190.344 102.008C190.309 102.022 190.316 102.022 190.344 102.008V102.008Z" fill="#262845"/>
<path d="M212.019 72.1733C211.16 73.9397 210.658 75.8587 210.543 77.8198C210.543 79.7019 210.781 82.4307 210.928 83.9001C210.944 84.0226 210.986 84.1402 211.052 84.2446C211.118 84.3489 211.207 84.4376 211.311 84.5043C211.415 84.5709 211.532 84.614 211.654 84.6305C211.777 84.647 211.901 84.6365 212.019 84.5998L214.223 83.9001L214.104 87.0907L220.248 86.9857L221.584 74.0904C221.584 74.0904 216.434 68.4929 212.019 72.1733Z" fill="#FD9E71"/>
<path d="M212.484 78.9463C212.484 78.9463 212.827 76.3924 214.758 76.9172C216.689 77.4419 214.471 80.0238 214.471 80.0238L216.312 83.3403C217.001 83.6034 217.735 83.7277 218.472 83.7061C219.209 83.6845 219.935 83.5174 220.608 83.2144C220.608 83.2144 222.623 77.0011 222.623 75.035C222.623 73.0688 220.839 71.7464 220.839 71.7464C220.839 71.7464 216.039 69.3535 213.464 69.4724C212.752 69.5158 212.079 69.8116 211.566 70.3066C211.053 70.8017 210.734 71.4636 210.665 72.1732C210.665 72.1732 209.678 74.1394 210.665 74.972C211.652 75.8046 212.484 78.9463 212.484 78.9463Z" fill="#201251"/>
<path d="M220.521 85.2645L220.248 87.0347H213.895C213.895 87.0347 215.126 85.0965 220.521 85.2645Z" fill="#6AA5CC"/>
<path d="M193.367 101.133C193.367 101.133 193.814 99.7341 192.016 98.9225C191.974 98.1008 191.734 97.3015 191.317 96.5925C190.939 96.2147 190.701 98.3068 190.701 98.3068C190.701 98.3068 188.945 95.1791 188.497 95.9768C188.049 96.7744 192.464 102.932 192.583 103.177C192.702 103.422 193.367 101.133 193.367 101.133Z" fill="#FD9E71"/>
<path d="M209.895 121.334L205.641 157.326L206.529 185.236L211.882 184.852C211.882 184.852 213.393 170.158 213.519 166.499C213.645 162.839 212.54 157.172 212.54 157.172L217.934 134.922L218.837 135.083L219.082 157.004L223.98 184.852L228.479 185.069C228.479 185.069 228.591 170.711 228.22 167.149C227.849 163.588 225.932 156.472 225.932 156.472L227.898 133.774C228.995 129.502 228.437 124.974 226.338 121.096C225.883 121.131 209.895 121.334 209.895 121.334Z" fill="black"/>
<path d="M213.896 87.0627C213.896 87.0627 206.29 89.5116 204.898 90.904C203.505 92.2964 199.531 106.626 199.531 106.626L193.521 100.609L191.652 104.975C191.652 104.975 198.691 115.47 200.902 115.771C203.113 116.072 208.095 102.519 208.095 102.519C208.095 102.519 208.55 109.936 209.404 113.644C209.998 116.164 210.166 118.765 209.9 121.341C216.701 122.579 222.495 122.327 226.336 121.096L228.218 106.801C228.218 106.801 230.807 107.102 231.626 106.199C232.444 105.297 228.68 90.4982 227.868 89.3507C227.057 88.2032 220.228 87.0347 220.228 87.0347L213.896 87.0627Z" fill="#407BFF"/>
<path d="M221.304 96.8864C221.262 96.5925 220.787 96.6695 220.794 96.9563C221.068 103.052 220.743 109.159 219.821 115.19C219.758 115.596 220.367 115.785 220.458 115.365C221.819 109.303 222.105 103.048 221.304 96.8864Z" fill="#6AA5CC"/>
<path d="M228.289 101.441C228.247 101.238 227.932 101.287 227.932 101.49C227.844 105.038 227.446 108.571 226.743 112.049C226.016 115.166 225.694 118.365 225.784 121.565C225.784 122.012 226.484 122.019 226.484 121.565C226.33 117.863 227.086 114.288 227.757 110.663C228.317 107.627 228.919 104.485 228.289 101.441Z" fill="#6AA5CC"/>
<path d="M208.789 101.329C206.746 102.631 205.99 105.171 205.2 107.333C204.136 110.258 203.1 113.133 200.778 115.323C200.435 115.652 200.945 116.156 201.295 115.841C205.549 112.014 205.347 105.758 208.992 101.574C209.083 101.448 208.943 101.231 208.789 101.329Z" fill="#6AA5CC"/>
<path d="M226.414 120.025C226.414 120.025 216.108 121.334 209.895 119.375C210.055 119.375 209.895 121.334 209.895 121.334C215.394 123.124 221.283 123.352 226.904 121.991C226.82 121.963 226.414 120.025 226.414 120.025Z" fill="#9E472D"/>
<path d="M119.765 161.916C119.765 161.916 118.911 163.784 117.435 164.092C115.959 164.4 112.082 165.253 111.466 165.799C110.851 166.345 110.844 167.737 110.844 167.737H123.151C123.151 167.737 123.151 164.008 122.452 162.07C122.711 162.077 119.765 161.916 119.765 161.916Z" fill="#1A133A"/>
<path d="M143.499 161.916C143.499 161.916 142.646 163.784 141.169 164.092C139.693 164.4 135.817 165.253 135.201 165.799C134.585 166.345 134.578 167.737 134.578 167.737H146.886C146.886 167.737 146.886 164.008 146.186 162.07C146.445 162.077 143.499 161.916 143.499 161.916Z" fill="#1A133A"/>
<path d="M141.988 40.946C141.988 40.946 138.56 40.0714 138.35 40.6171C138.14 41.1629 143.653 42.7862 143.653 42.7862L148.614 56.5351L146.753 60.9362L150.167 64.6585C150.167 64.6585 153.89 59.6208 154.198 58.1444C154.506 56.6681 145.361 41.8556 145.361 41.8556C145.361 41.8556 143.541 36.0831 143.261 35.8102C142.982 35.5374 139.707 35.7053 138.965 35.7193C138.224 35.7333 141.127 38.672 141.127 38.672L141.988 40.946Z" fill="#E79673"/>
<path d="M128.652 51.1195C127.671 52.5452 126.995 54.1577 126.665 55.8564C126.464 57.4439 126.504 59.0527 126.784 60.6283L129.778 60.5303V63.3291H135.74C135.799 62.2276 135.916 61.1299 136.09 60.0406C136.32 58.8721 137.951 56.668 137.951 56.668L135.278 49.1044L131.437 48.7545L128.652 51.1195Z" fill="#E79673"/>
<path d="M130.157 54.6949C130.157 54.6949 131.207 52.253 132.487 53.1836C133.767 54.1142 132.137 56.0873 132.137 56.0873C132.137 56.0873 132.949 59.4669 134.348 59.9287L135.748 60.3974C135.748 60.3974 139.358 57.0179 139.946 56.0873C140.534 55.1567 139.015 49.7901 137.966 48.6426C136.916 47.4951 132.368 47.6001 132.032 47.0123C131.696 46.4246 130.521 45.389 129.359 45.8508C128.198 46.3126 128.429 50.154 128.429 50.154C128.429 50.154 129.863 51.3924 129.961 52.288C129.948 53.0246 129.751 53.7461 129.387 54.3871L130.157 54.6949Z" fill="#201251"/>
<path d="M124.522 63.4901C124.522 63.4901 130.463 62.6224 133.877 62.5455C137.292 62.4685 142.721 64.2527 142.721 64.2527L146.675 60.0196L151.705 64.7495C151.705 64.7495 147.423 71.0467 146.038 72.5511C144.652 74.0554 143.652 80.9474 143.344 83.0465C143.036 85.1455 142.253 97.3971 142.253 97.3971C142.253 97.3971 138.607 101.742 123.641 97.0123C123.487 96.8514 124.263 88.0143 124.186 85.8172C124.109 83.6202 122.164 76.2804 121.78 74.4962C121.395 72.712 115.209 69.1436 115.209 69.1436C115.209 69.1436 114.447 64.7985 117.308 62.7064C117.665 62.9513 124.522 63.4901 124.522 63.4901Z" fill="#FF6C37"/>
<path d="M110.668 45.7389C110.668 45.7389 108.415 47.8379 108.261 48.6846C108.108 49.5312 111.368 59.2919 111.368 59.2919L117.281 62.7904L115.181 69.2275C115.181 69.2275 108.723 64.7285 107.793 63.4131C106.862 62.0977 105.232 48.9085 105.232 48.9085C105.232 48.9085 103.133 46.2706 102.979 45.5709C102.825 44.8713 102.342 42.5903 102.699 42.1425C103.056 41.6947 105.498 39.2107 105.813 39.9524C106.127 40.6941 107.457 46.0607 107.457 46.0607C107.457 46.0607 110.144 44.8083 110.668 45.7389Z" fill="#E79673"/>
<path d="M123.641 97.0053L120.269 128.799L118.52 162.539L124.341 162.769C124.341 162.769 127.944 140.379 128.007 136.979C128.07 133.578 127.944 129.499 127.944 129.499L131.66 112.518H133.759L138.062 134.621L142.484 162.077L147.137 162.308C147.137 162.308 147.837 145.207 147.137 141.716C146.437 138.224 145.388 134.852 145.388 134.852L143.289 111.93C143.289 111.93 145.15 103.785 142.239 97.3902C141.672 96.2287 123.641 97.0053 123.641 97.0053Z" fill="black"/>
<path d="M88.0974 60.8242H84.3191V57.0459H81.9611V60.8242H78.1758V63.1822H81.9611V66.9675H84.3191V63.1822H88.0974V60.8242Z" fill="#FF6C37"/>
<path d="M52.9124 90.0014C51.7427 90.0014 50.5994 89.6545 49.6269 89.0045C48.6545 88.3546 47.8967 87.4307 47.4494 86.35C47.0021 85.2692 46.8854 84.0801 47.1141 82.933C47.3428 81.7859 47.9066 80.7324 48.7342 79.9059C49.5617 79.0793 50.6159 78.5167 51.7632 78.2894C52.9106 78.0621 54.0996 78.1801 55.1798 78.6287C56.26 79.0773 57.1829 79.8362 57.8318 80.8094C58.4806 81.7826 58.8262 82.9264 58.8248 84.096C58.8229 85.6629 58.1992 87.1649 57.0906 88.2722C55.982 89.3795 54.4793 90.0014 52.9124 90.0014ZM52.9124 81.2693C52.3589 81.2693 51.8177 81.4334 51.3575 81.741C50.8972 82.0485 50.5385 82.4856 50.3267 82.997C50.1148 83.5084 50.0594 84.0712 50.1674 84.6141C50.2754 85.157 50.542 85.6557 50.9334 86.0471C51.3248 86.4385 51.8235 86.705 52.3664 86.813C52.9093 86.921 53.472 86.8656 53.9834 86.6538C54.4948 86.4419 54.9319 86.0832 55.2395 85.623C55.547 85.1627 55.7112 84.6216 55.7112 84.068C55.7112 83.3258 55.4163 82.6139 54.8914 82.089C54.3666 81.5641 53.6547 81.2693 52.9124 81.2693Z" fill="#455A64"/>
<path d="M234.684 35.6983H230.906V31.913H228.548V35.6983H224.77V38.0563H228.548V41.8346H230.906V38.0563H234.684V35.6983Z" fill="#407BFF"/>
<path d="M215.791 9.89367C215.791 10.3559 215.654 10.8077 215.397 11.192C215.14 11.5763 214.775 11.8759 214.348 12.0528C213.921 12.2296 213.452 12.2759 212.998 12.1857C212.545 12.0956 212.128 11.873 211.802 11.5462C211.475 11.2193 211.252 10.8029 211.162 10.3496C211.072 9.89627 211.118 9.42638 211.295 8.99936C211.472 8.57233 211.771 8.20735 212.156 7.95056C212.54 7.69377 212.992 7.5567 213.454 7.5567C214.074 7.5567 214.668 7.80292 215.107 8.24119C215.545 8.67946 215.791 9.27387 215.791 9.89367Z" fill="#407BFF"/>
<path d="M201.588 11.8248C200.419 11.8248 199.276 11.478 198.303 10.8284C197.331 10.1787 196.573 9.25533 196.126 8.17498C195.678 7.09463 195.561 5.90585 195.789 4.75895C196.018 3.61206 196.581 2.55857 197.408 1.7317C198.234 0.90484 199.288 0.341738 200.435 0.113607C201.582 -0.114524 202.77 0.00256398 203.851 0.450059C204.931 0.897555 205.855 1.65536 206.504 2.62765C207.154 3.59993 207.501 4.74304 207.501 5.91241C207.499 7.4799 206.875 8.98266 205.767 10.0911C204.658 11.1994 203.156 11.823 201.588 11.8248ZM201.588 3.08564C201.035 3.08564 200.494 3.24979 200.033 3.55732C199.573 3.86485 199.214 4.30196 199.002 4.81337C198.791 5.32478 198.735 5.88752 198.843 6.43043C198.951 6.97334 199.218 7.47203 199.609 7.86344C200.001 8.25486 200.499 8.52141 201.042 8.6294C201.585 8.73739 202.148 8.68197 202.659 8.47014C203.171 8.25831 203.608 7.89959 203.915 7.43933C204.223 6.97908 204.387 6.43796 204.387 5.88441C204.387 5.14213 204.092 4.43025 203.567 3.90538C203.042 3.38051 202.33 3.08564 201.588 3.08564Z" fill="#FF6C37"/>
<g clip-path="url(#clip1_1215_24980)">
<path d="M180.703 45.8989C179.049 44.2812 177.47 42.7392 177 41C176.53 42.7392 174.951 44.2812 173.296 45.8989C170.814 48.3246 168 51.0737 168 55.1969C168 56.353 168.232 57.4978 168.684 58.566C169.136 59.6342 169.799 60.6048 170.635 61.4224C171.471 62.24 172.463 62.8886 173.555 63.3311C174.647 63.7736 175.818 64.0013 177 64.0013C178.182 64.0013 179.353 63.7736 180.445 63.3311C181.537 62.8886 182.529 62.24 183.365 61.4224C184.201 60.6048 184.864 59.6342 185.316 58.566C185.768 57.4978 186 56.353 186 55.1969C186 51.074 183.186 48.3246 180.703 45.8989ZM171.825 57.2479C171.273 57.2295 169.237 53.7965 173.015 50.1413L175.515 52.8121C175.537 52.8328 175.554 52.8578 175.564 52.8853C175.575 52.9128 175.58 52.9423 175.579 52.9717C175.577 53.0012 175.569 53.03 175.555 53.0562C175.541 53.0825 175.522 53.1056 175.499 53.124C174.902 53.7224 172.359 56.2162 172.043 57.0785C171.978 57.2565 171.882 57.2498 171.825 57.2479ZM177 61.7724C176.594 61.7724 176.191 61.6941 175.815 61.542C175.44 61.3899 175.099 61.1669 174.811 60.8858C174.524 60.6047 174.296 60.271 174.14 59.9038C173.985 59.5365 173.905 59.1429 173.905 58.7454C173.916 58.0114 174.189 57.3043 174.676 56.7459C175.234 56.0785 177 54.2013 177 54.2013C177 54.2013 178.738 56.106 179.319 56.7395C179.825 57.2897 180.102 58.0053 180.095 58.7454C180.095 59.5482 179.769 60.3181 179.189 60.8858C178.608 61.4535 177.821 61.7724 177 61.7724ZM182.924 56.8636C182.858 57.0063 182.706 57.2445 182.502 57.2518C182.138 57.2647 182.099 57.0823 181.83 56.6928C181.239 55.8378 176.083 50.568 175.119 49.5488C174.271 48.6524 174.999 48.0204 175.337 47.6892C175.762 47.2737 177 46.0637 177 46.0637C177 46.0637 180.691 49.4891 182.229 51.8295C183.767 54.17 183.237 56.1953 182.924 56.8636Z" fill="white"/>
</g>
</g>
<defs>
<clipPath id="clip0_1215_24980">
<rect width="240.68" height="200" fill="white"/>
</clipPath>
<clipPath id="clip1_1215_24980">
<rect width="18" height="23" fill="white" transform="translate(168 41)"/>
</clipPath>
</defs>
</svg>
