<svg width="269" height="200" viewBox="0 0 269 200" fill="none" xmlns="http://www.w3.org/2000/svg">
<g clip-path="url(#clip0_1222_27065)">
<path d="M268.377 175.76H0V175.894H268.377V175.76Z" fill="#EBEBEB"/>
<path d="M241.484 184.397H223.707V184.531H241.484V184.397Z" fill="#EBEBEB"/>
<path d="M177.785 185.857H173.121V185.991H177.785V185.857Z" fill="#EBEBEB"/>
<path d="M223.171 179.416H212.871V179.55H223.171V179.416Z" fill="#EBEBEB"/>
<path d="M51.3387 180.317H28.1562V180.451H51.3387V180.317Z" fill="#EBEBEB"/>
<path d="M59.5187 180.317H56.1211V180.451H59.5187V180.317Z" fill="#EBEBEB"/>
<path d="M120.85 182.582H70.5664V182.717H120.85V182.582Z" fill="#EBEBEB"/>
<path d="M127.209 151.821H23.5673C22.7554 151.82 21.9772 151.496 21.4036 150.921C20.83 150.347 20.5078 149.568 20.5078 148.756V3.06488C20.5149 2.25762 20.8402 1.48574 21.413 0.916911C21.9859 0.34808 22.76 0.0282384 23.5673 0.0268555H127.209C128.022 0.0268555 128.802 0.34976 129.376 0.924534C129.951 1.49931 130.274 2.27887 130.274 3.09172V148.756C130.274 149.569 129.951 150.349 129.376 150.923C128.802 151.498 128.022 151.821 127.209 151.821ZM23.5673 0.134207C22.791 0.135629 22.0469 0.445022 21.4985 0.994477C20.95 1.54393 20.642 2.28855 20.642 3.06488V148.756C20.642 149.532 20.95 150.277 21.4985 150.826C22.0469 151.376 22.791 151.685 23.5673 151.687H127.209C127.986 151.685 128.731 151.376 129.28 150.827C129.829 150.278 130.138 149.533 130.14 148.756V3.06488C130.138 2.28806 129.829 1.54345 129.28 0.994149C128.731 0.444848 127.986 0.135626 127.209 0.134207H23.5673Z" fill="#EBEBEB"/>
<path d="M243.318 151.821H139.67C138.858 151.82 138.079 151.496 137.505 150.922C136.93 150.347 136.607 149.569 136.605 148.756V3.06488C136.614 2.25713 136.94 1.48526 137.514 0.916575C138.088 0.347893 138.863 0.0282233 139.67 0.0268555H243.318C244.124 0.029649 244.897 0.350115 245.468 0.918795C246.04 1.48747 246.365 2.25855 246.372 3.06488V148.756C246.372 149.567 246.05 150.345 245.478 150.919C244.905 151.494 244.129 151.818 243.318 151.821ZM139.67 0.134207C138.894 0.135626 138.149 0.444848 137.6 0.994149C137.05 1.54345 136.741 2.28806 136.74 3.06488V148.756C136.741 149.533 137.05 150.278 137.6 150.827C138.149 151.376 138.894 151.685 139.67 151.687H243.318C244.094 151.685 244.839 151.376 245.388 150.827C245.938 150.278 246.247 149.533 246.248 148.756V3.06488C246.247 2.28806 245.938 1.54345 245.388 0.994149C244.839 0.444848 244.094 0.135626 243.318 0.134207H139.67Z" fill="#EBEBEB"/>
<path d="M138.622 163.026C166.466 148.649 174.551 108.938 156.681 74.3301C138.811 39.7221 101.752 23.322 73.908 37.6995C46.0641 52.0769 37.9788 91.7875 55.849 126.396C73.7192 161.004 110.778 177.404 138.622 163.026Z" fill="#F0F0F0"/>
<path d="M136.321 148.927C158.799 137.325 165.332 105.274 150.913 77.3377C136.495 49.4017 106.584 36.1601 84.106 47.7618C61.6282 59.3635 55.095 91.4151 69.5139 119.351C83.9327 147.287 113.843 160.529 136.321 148.927Z" fill="white"/>
<path d="M146.232 79.7402C157.804 102.118 152.555 127.774 134.552 137.076C116.549 146.378 92.5993 135.767 81.0484 113.395C69.4974 91.0228 74.7254 65.3552 92.7281 56.0586C110.731 46.7621 134.681 57.3683 146.232 79.7402Z" fill="#F0F0F0"/>
<path d="M132.137 126.411C145.415 119.555 148.988 100.071 140.118 82.8916C131.247 65.7128 113.292 57.3446 100.015 64.2008C86.7366 71.0569 83.1636 90.5412 92.0341 107.72C100.905 124.899 118.859 133.267 132.137 126.411Z" fill="white"/>
<path d="M135.734 86.3477C142.057 98.6018 139.845 112.321 130.796 116.991C121.746 121.661 109.277 115.52 102.954 103.272C96.6313 91.0228 98.8373 77.3195 107.887 72.6283C116.937 67.937 129.405 74.099 135.734 86.3477Z" fill="#F0F0F0"/>
<path d="M132.578 87.9848C137.146 96.8305 135.873 106.573 129.744 109.734C123.614 112.896 114.94 108.296 110.372 99.4445C105.804 90.5935 107.071 80.8567 113.201 77.6953C119.331 74.5338 127.999 79.1338 132.578 87.9848Z" fill="white"/>
<path d="M203.673 35.721L187.195 44.2286L185.977 60.4117L199.878 68.7851L216.351 60.2775L202.181 52.0437L203.673 35.721Z" fill="#F0F0F0"/>
<path d="M124.437 95.435C123.72 95.5315 122.992 95.3718 122.381 94.984C121.771 94.5963 121.317 94.0054 121.099 93.3156C120.882 92.6257 120.915 91.8812 121.192 91.2133C121.47 90.5454 121.975 89.9971 122.617 89.6649L203.291 48.0181C204.011 47.6839 204.831 47.6404 205.582 47.8969C206.333 48.1533 206.955 48.6898 207.319 49.3944C207.684 50.0989 207.762 50.9169 207.537 51.6777C207.313 52.4384 206.803 53.083 206.115 53.4769L125.441 95.1237C125.127 95.2853 124.787 95.3906 124.437 95.435Z" fill="#F5F5F5"/>
<path d="M219.727 104.984V107.566L221.058 107.694C221.234 108.546 221.571 109.357 222.051 110.083L221.192 111.113L223.022 112.944L224.058 112.09C224.786 112.567 225.596 112.904 226.447 113.083L226.57 114.414H229.157L229.281 113.083C230.132 112.904 230.942 112.567 231.669 112.09L232.705 112.944L234.53 111.113L233.677 110.061C234.152 109.333 234.489 108.523 234.67 107.673L236.001 107.544V104.962L234.67 104.833C234.489 103.983 234.152 103.173 233.677 102.445L234.53 101.414L232.705 99.584L231.669 100.437C230.942 99.9605 230.132 99.6237 229.281 99.4444L229.157 98.1133H226.57L226.447 99.4444C225.596 99.6237 224.786 99.9605 224.058 100.437L223.022 99.584L221.192 101.414L222.051 102.445C221.571 103.171 221.234 103.981 221.058 104.833L219.727 104.984ZM227.864 102.772C228.557 102.771 229.236 102.976 229.813 103.361C230.39 103.745 230.84 104.293 231.106 104.934C231.372 105.574 231.442 106.279 231.307 106.96C231.172 107.64 230.838 108.265 230.348 108.756C229.857 109.246 229.232 109.58 228.552 109.715C227.871 109.85 227.166 109.78 226.525 109.514C225.885 109.249 225.337 108.798 224.953 108.221C224.568 107.644 224.363 106.966 224.364 106.272C224.364 105.344 224.733 104.454 225.389 103.797C226.045 103.141 226.936 102.772 227.864 102.772Z" fill="#EBEBEB"/>
<path d="M215.358 116.556L216.098 117.168L217.413 115.853L216.796 115.112C217.14 114.59 217.382 114.007 217.51 113.395L218.46 113.282V111.425L217.505 111.334C217.377 110.723 217.135 110.142 216.791 109.621L217.408 108.875L216.093 107.566L215.352 108.177C214.83 107.833 214.247 107.591 213.635 107.464L213.543 106.508H211.686L211.595 107.464C210.983 107.591 210.4 107.833 209.877 108.177L209.137 107.566L207.822 108.875L208.439 109.621C208.095 110.142 207.852 110.723 207.725 111.334L206.77 111.425V113.282L207.725 113.373C207.852 113.986 208.095 114.568 208.439 115.091L207.822 115.832L209.137 117.147L209.872 116.556C210.396 116.896 210.978 117.137 211.59 117.265L211.681 118.226H213.538L213.629 117.265C214.244 117.138 214.83 116.898 215.358 116.556ZM210.103 112.375C210.103 111.877 210.25 111.39 210.527 110.976C210.804 110.562 211.197 110.24 211.657 110.049C212.117 109.859 212.623 109.809 213.111 109.906C213.6 110.003 214.048 110.243 214.4 110.595C214.752 110.947 214.992 111.395 215.089 111.884C215.186 112.372 215.136 112.878 214.946 113.338C214.755 113.798 214.433 114.191 214.019 114.468C213.605 114.745 213.118 114.892 212.62 114.892C211.952 114.892 211.312 114.627 210.84 114.155C210.368 113.683 210.103 113.043 210.103 112.375Z" fill="#EBEBEB"/>
<path d="M223.612 129.138C224.342 128.988 225.036 128.7 225.657 128.29L226.538 129.02L228.105 127.458L227.375 126.572C227.781 125.95 228.069 125.259 228.223 124.532L229.361 124.425V122.208L228.223 122.106C228.07 121.378 227.782 120.684 227.375 120.061L228.121 119.186L226.554 117.624L225.673 118.354C225.052 117.944 224.358 117.656 223.628 117.506L223.521 116.368H221.31L221.202 117.506C220.473 117.656 219.779 117.944 219.157 118.354L218.277 117.624L216.694 119.186L217.429 120.072C217.018 120.694 216.728 121.387 216.575 122.117L215.438 122.219V124.436L216.575 124.543C216.729 125.271 217.018 125.963 217.429 126.583L216.694 127.468L218.261 129.03L219.141 128.3C219.762 128.711 220.457 128.999 221.186 129.148L221.293 130.292H223.505L223.612 129.138ZM219.404 123.319C219.403 122.727 219.578 122.147 219.906 121.654C220.235 121.161 220.702 120.776 221.249 120.548C221.797 120.321 222.399 120.261 222.98 120.376C223.562 120.491 224.096 120.775 224.515 121.194C224.935 121.613 225.22 122.146 225.336 122.728C225.452 123.309 225.393 123.911 225.167 124.459C224.94 125.006 224.556 125.474 224.064 125.804C223.571 126.133 222.992 126.309 222.399 126.309C221.606 126.309 220.845 125.994 220.283 125.434C219.722 124.873 219.406 124.113 219.404 123.319Z" fill="#EBEBEB"/>
<path d="M39.8047 32.1409V34.728L41.1358 34.8515C41.3103 35.704 41.6475 36.515 42.1288 37.24L41.2754 38.276L43.1004 40.1063L44.1363 39.2475C44.8613 39.7288 45.6723 40.066 46.5248 40.2405L46.6483 41.5716H49.2355L49.3589 40.2405C50.2115 40.066 51.0225 39.7288 51.7475 39.2475L52.7834 40.1063L54.6137 38.276L53.7549 37.24C54.2363 36.515 54.5734 35.704 54.7479 34.8515L56.0791 34.728V32.1409L54.7479 32.0174C54.5734 31.1648 54.2363 30.3539 53.7549 29.6288L54.6137 28.5929L52.7834 26.7679L51.7475 27.6214C51.0289 27.1425 50.2255 26.8055 49.3804 26.6284L49.2569 25.2972H46.6483L46.5248 26.6284C45.6723 26.8029 44.8613 27.14 44.1363 27.6214L43.1004 26.7679L41.2754 28.5929L42.1288 29.6288C41.6475 30.3539 41.3103 31.1648 41.1358 32.0174L39.8047 32.1409ZM47.9419 29.9348C48.634 29.9348 49.3107 30.14 49.8862 30.5246C50.4617 30.9091 50.9102 31.4557 51.1751 32.0952C51.44 32.7347 51.5093 33.4383 51.3743 34.1172C51.2392 34.796 50.9059 35.4196 50.4165 35.9091C49.9271 36.3985 49.3035 36.7318 48.6246 36.8668C47.9458 37.0019 47.2421 36.9326 46.6026 36.6677C45.9632 36.4028 45.4166 35.9542 45.032 35.3787C44.6475 34.8032 44.4422 34.1266 44.4422 33.4344C44.4422 32.5063 44.811 31.6161 45.4673 30.9598C46.1236 30.3035 47.0137 29.9348 47.9419 29.9348Z" fill="#EBEBEB"/>
<path d="M55.11 162.62L55.8508 163.238L57.1658 161.923L56.5485 161.177C56.8935 160.657 57.1358 160.075 57.2624 159.464L58.2179 159.373V157.516L57.2624 157.425C57.1349 156.812 56.8927 156.229 56.5485 155.707L57.1658 154.966L55.8508 153.651L55.11 154.269C54.5877 153.924 54.0049 153.682 53.3924 153.555L53.3012 152.594H51.444L51.3528 153.539C50.7403 153.666 50.1575 153.908 49.6352 154.252L48.8944 153.635L47.5794 154.95L48.1966 155.686C47.8525 156.208 47.6103 156.791 47.4828 157.403L46.5273 157.494V159.352L47.4828 159.443C47.6094 160.054 47.8517 160.635 48.1966 161.155L47.5794 161.901L48.8944 163.216L49.6352 162.599C50.1575 162.943 50.7403 163.185 51.3528 163.313L51.444 164.268H53.3012L53.3924 163.313C54.0034 163.192 54.5861 162.957 55.11 162.62ZM49.8552 158.445C49.8542 157.946 50.0009 157.459 50.2769 157.044C50.5528 156.63 50.9456 156.306 51.4055 156.115C51.8654 155.924 52.3717 155.873 52.8604 155.969C53.3491 156.066 53.7981 156.305 54.1507 156.657C54.5033 157.009 54.7436 157.458 54.8412 157.946C54.9388 158.435 54.8892 158.941 54.6989 159.401C54.5085 159.862 54.1858 160.255 53.7717 160.532C53.3576 160.809 52.8707 160.957 52.3726 160.957C51.7059 160.957 51.0664 160.692 50.5944 160.221C50.1225 159.75 49.8566 159.111 49.8552 158.445Z" fill="#EBEBEB"/>
<path d="M218.996 32.9675L219.737 33.5848L221.052 32.2697L220.435 31.529C220.779 31.0066 221.021 30.4238 221.149 29.8114L222.104 29.7201V27.863L221.149 27.7717C221.021 27.1593 220.779 26.5765 220.435 26.0541L221.052 25.3134L219.737 23.9983L218.996 24.6156C218.474 24.2714 217.891 24.0292 217.279 23.9017L217.187 22.9463H215.33L215.239 23.9017C214.627 24.0292 214.044 24.2714 213.521 24.6156L212.781 23.9983L211.482 25.3134L212.099 26.0541C211.755 26.5765 211.513 27.1593 211.385 27.7717L210.43 27.863V29.7201L211.385 29.8114C211.513 30.4238 211.755 31.0066 212.099 31.529L211.482 32.2697L212.797 33.5848L213.537 32.9675C214.06 33.3117 214.643 33.5539 215.255 33.6814L215.346 34.6368H217.204L217.295 33.6814C217.902 33.5519 218.479 33.3098 218.996 32.9675ZM213.741 28.7915C213.741 28.2937 213.889 27.8069 214.166 27.393C214.442 26.979 214.835 26.6563 215.295 26.4658C215.755 26.2753 216.262 26.2254 216.75 26.3225C217.238 26.4197 217.687 26.6594 218.039 27.0115C218.391 27.3636 218.631 27.8121 218.728 28.3004C218.825 28.7888 218.775 29.2949 218.585 29.7549C218.394 30.2149 218.071 30.6081 217.657 30.8847C217.243 31.1613 216.757 31.3089 216.259 31.3089C215.592 31.3075 214.953 31.0417 214.482 30.5697C214.011 30.0978 213.747 29.4583 213.747 28.7915H213.741Z" fill="#EBEBEB"/>
<path d="M37.7936 110.598L38.5344 111.21L39.8494 109.9L39.2375 109.154C39.5777 108.632 39.8179 108.052 39.946 107.442L40.9068 107.351V105.494L39.9514 105.402C39.8191 104.791 39.5773 104.21 39.2375 103.685L39.8494 102.944L38.5344 101.629L37.7936 102.241C37.2698 101.901 36.6874 101.661 36.076 101.532L35.9633 100.582H34.1276L34.0417 101.538C33.4305 101.669 32.8484 101.911 32.3241 102.252L31.578 101.64L30.2683 102.955L30.8802 103.696C30.5361 104.218 30.2939 104.801 30.1664 105.413L29.2109 105.504V107.378L30.1664 107.469C30.2939 108.08 30.5361 108.661 30.8802 109.181L30.2683 109.927L31.578 111.237L32.3241 110.598C32.846 110.943 33.429 111.186 34.0417 111.312L34.1276 112.268H35.9633L36.0546 111.312C36.6745 111.187 37.2648 110.945 37.7936 110.598ZM32.5442 106.422C32.5431 105.924 32.69 105.436 32.9662 105.022C33.2424 104.607 33.6355 104.283 34.0957 104.092C34.5559 103.901 35.0625 103.851 35.5514 103.948C36.0402 104.045 36.4892 104.284 36.8416 104.637C37.194 104.989 37.4339 105.438 37.5308 105.927C37.6278 106.416 37.5775 106.923 37.3863 107.383C37.1951 107.843 36.8716 108.236 36.4568 108.512C36.042 108.788 35.5545 108.935 35.0562 108.934C34.3923 108.933 33.7558 108.669 33.2853 108.201C32.8148 107.732 32.5484 107.097 32.5442 106.433V106.422Z" fill="#EBEBEB"/>
<path d="M141.945 36.2256L140.984 36.3168V38.174L141.945 38.2652C142.071 38.8774 142.311 39.4603 142.654 39.9829L142.042 40.7236L143.351 42.0386L144.092 41.4267C144.615 41.7694 145.198 42.0099 145.81 42.1352L145.901 43.096H147.758L147.849 42.1352C148.462 42.0099 149.045 41.7694 149.567 41.4267L150.308 42.0386L151.623 40.7236L151.011 39.9829C151.354 39.4603 151.594 38.8774 151.719 38.2652L152.68 38.174V36.3168L151.719 36.2256C151.594 35.6134 151.354 35.0305 151.011 34.508L151.623 33.7672L150.292 32.4576L149.551 33.0695C149.028 32.7267 148.446 32.4863 147.833 32.3609L147.742 31.4001H145.885L145.794 32.3609C145.181 32.4863 144.599 32.7267 144.076 33.0695L143.335 32.4576L142.026 33.7672L142.638 34.508C142.301 35.0317 142.066 35.6145 141.945 36.2256ZM148.612 35.4526C148.964 35.8046 149.204 36.2532 149.301 36.7416C149.398 37.2299 149.349 37.7362 149.158 38.1963C148.968 38.6564 148.645 39.0497 148.231 39.3264C147.817 39.6031 147.33 39.7508 146.832 39.7508C146.334 39.7508 145.848 39.6031 145.434 39.3264C145.019 39.0497 144.697 38.6564 144.506 38.1963C144.316 37.7362 144.266 37.2299 144.363 36.7416C144.461 36.2532 144.701 35.8046 145.053 35.4526C145.525 34.981 146.165 34.716 146.832 34.716C147.5 34.716 148.14 34.981 148.612 35.4526Z" fill="#EBEBEB"/>
<path d="M67.7915 176.721C68.5187 176.569 69.2107 176.281 69.8311 175.873L70.7168 176.603L72.2787 175.041L71.5488 174.155C71.9593 173.534 72.2471 172.84 72.3968 172.11L73.5401 172.003V169.792L72.3968 169.684C72.2456 168.955 71.9579 168.261 71.5488 167.639L72.2787 166.759L70.7168 165.192L69.8311 165.927C69.2111 165.517 68.519 165.227 67.7915 165.073L67.6841 163.936H65.4834L65.3815 165.073C64.652 165.226 63.9581 165.516 63.3364 165.927L62.4508 165.192L60.8888 166.759L61.6188 167.639C61.2097 168.261 60.9219 168.955 60.7707 169.684L59.6328 169.792V172.003L60.7707 172.11C60.9204 172.84 61.2083 173.534 61.6188 174.155L60.8888 175.041L62.4508 176.603L63.3364 175.873C63.9585 176.282 64.6524 176.57 65.3815 176.721L65.4834 177.859H67.7002L67.7915 176.721ZM63.5833 170.897C63.5833 170.305 63.759 169.726 64.0881 169.233C64.4172 168.741 64.885 168.357 65.4322 168.13C65.9795 167.903 66.5817 167.844 67.1627 167.96C67.7437 168.075 68.2774 168.361 68.6963 168.779C69.1151 169.198 69.4004 169.732 69.516 170.313C69.6315 170.894 69.5722 171.496 69.3455 172.043C69.1188 172.591 68.7349 173.058 68.2424 173.388C67.7499 173.717 67.1708 173.892 66.5784 173.892C65.7841 173.892 65.0223 173.577 64.4606 173.015C63.8989 172.453 63.5833 171.692 63.5833 170.897Z" fill="#EBEBEB"/>
<path d="M186.985 164.236C186.448 165.052 186.07 165.963 185.874 166.92L184.371 167.065V169.974L185.874 170.113C186.071 171.07 186.448 171.981 186.985 172.797L186.024 173.957L188.08 176.012L189.239 175.052C190.056 175.588 190.967 175.965 191.923 176.163L192.063 177.666H194.972L195.117 176.163C196.074 175.966 196.985 175.589 197.801 175.052L198.96 176.012L201.021 173.957L200.06 172.797C200.595 171.98 200.972 171.07 201.172 170.113L202.674 169.974V167.065L201.172 166.92C200.973 165.963 200.596 165.053 200.06 164.236L201.021 163.077L198.96 161.016L197.801 161.976C196.984 161.441 196.073 161.064 195.117 160.865L194.972 159.362H192.063L191.923 160.865C190.967 161.066 190.057 161.442 189.239 161.976L188.08 161.016L186.024 163.077L186.985 164.236ZM196.314 165.739C196.865 166.29 197.24 166.992 197.392 167.756C197.544 168.52 197.466 169.313 197.168 170.033C196.87 170.752 196.365 171.368 195.717 171.801C195.069 172.234 194.307 172.465 193.528 172.465C192.749 172.465 191.987 172.234 191.339 171.801C190.691 171.368 190.186 170.752 189.888 170.033C189.59 169.313 189.512 168.52 189.664 167.756C189.816 166.992 190.191 166.29 190.742 165.739C191.108 165.372 191.542 165.082 192.02 164.883C192.498 164.685 193.011 164.583 193.528 164.583C194.046 164.583 194.558 164.685 195.036 164.883C195.514 165.082 195.948 165.372 196.314 165.739Z" fill="#EBEBEB"/>
<path d="M153.403 24.5029C152.871 25.3215 152.494 26.2313 152.292 27.1867L150.789 27.3316V30.2408L152.292 30.3803C152.494 31.3358 152.87 32.2456 153.403 33.0641L152.437 34.2396L154.493 36.2954L155.652 35.3399C156.47 35.8728 157.38 36.2478 158.336 36.4457L158.481 37.9486H161.39L161.535 36.4457C162.491 36.2478 163.401 35.8728 164.219 35.3399L165.378 36.2954L167.434 34.2396L166.478 33.0802C167.011 32.2617 167.388 31.3519 167.589 30.3964L169.092 30.2569V27.3477L167.589 27.2028C167.387 26.2474 167.011 25.3376 166.478 24.519L167.466 23.3435L165.41 21.2824L164.245 22.2431C163.428 21.7087 162.518 21.3318 161.562 21.1321L161.417 19.6292H158.508L158.363 21.1321C157.407 21.3318 156.496 21.7087 155.679 22.2431L154.52 21.2824L152.437 23.3435L153.403 24.5029ZM162.737 26.0058C163.288 26.5568 163.663 27.2588 163.816 28.023C163.968 28.7873 163.89 29.5794 163.591 30.2994C163.293 31.0193 162.788 31.6346 162.14 32.0675C161.492 32.5004 160.731 32.7315 159.951 32.7315C159.172 32.7315 158.411 32.5004 157.763 32.0675C157.115 31.6346 156.61 31.0193 156.312 30.2994C156.013 29.5794 155.935 28.7873 156.087 28.023C156.239 27.2588 156.615 26.5568 157.166 26.0058C157.531 25.6393 157.965 25.3486 158.443 25.1502C158.921 24.9518 159.434 24.8497 159.951 24.8497C160.469 24.8497 160.981 24.9518 161.46 25.1502C161.938 25.3486 162.372 25.6393 162.737 26.0058Z" fill="#EBEBEB"/>
<path d="M134.188 200C191.665 200 238.26 197.28 238.26 193.924C238.26 190.568 191.665 187.848 134.188 187.848C76.7115 187.848 30.1172 190.568 30.1172 193.924C30.1172 197.28 76.7115 200 134.188 200Z" fill="#F5F5F5"/>
<path d="M50.0219 31.3626H67.4772C69.0687 31.3626 70.595 31.9948 71.7204 33.1202C72.8458 34.2456 73.4781 35.7719 73.4781 37.3635V44.6096C73.4781 46.2012 72.8458 47.7275 71.7204 48.8529C70.595 49.9783 69.0687 50.6106 67.4772 50.6106H64.5357L63.8433 54.9046L60.4993 50.6106H50.0219C49.2334 50.6113 48.4525 50.4566 47.7238 50.1553C46.9951 49.8541 46.333 49.4121 45.7752 48.8548C45.2173 48.2975 44.7748 47.6358 44.4729 46.9073C44.171 46.1789 44.0156 45.3982 44.0156 44.6096V37.3635C44.0156 36.575 44.171 35.7942 44.4729 35.0658C44.7748 34.3374 45.2173 33.6756 45.7752 33.1183C46.333 32.561 46.9951 32.1191 47.7238 31.8178C48.4525 31.5165 49.2334 31.3618 50.0219 31.3626Z" fill="#407BFF"/>
<path d="M65.5508 40.5732C65.5508 40.8132 65.6219 41.0477 65.7552 41.2472C65.8885 41.4467 66.078 41.6021 66.2996 41.694C66.5213 41.7858 66.7652 41.8098 67.0005 41.763C67.2358 41.7162 67.452 41.6007 67.6216 41.431C67.7913 41.2613 67.9068 41.0452 67.9536 40.8099C68.0004 40.5746 67.9764 40.3307 67.8846 40.109C67.7928 39.8874 67.6373 39.6979 67.4378 39.5646C67.2383 39.4313 67.0038 39.3602 66.7638 39.3602C66.4421 39.3602 66.1336 39.488 65.9061 39.7155C65.6786 39.943 65.5508 40.2515 65.5508 40.5732Z" fill="white"/>
<path d="M60.2109 40.5732C60.2109 40.8132 60.2821 41.0477 60.4154 41.2472C60.5487 41.4467 60.7381 41.6021 60.9598 41.694C61.1814 41.7858 61.4253 41.8098 61.6607 41.763C61.896 41.7162 62.1121 41.6007 62.2818 41.431C62.4514 41.2613 62.567 41.0452 62.6138 40.8099C62.6606 40.5746 62.6365 40.3307 62.5447 40.109C62.4529 39.8874 62.2974 39.6979 62.0979 39.5646C61.8985 39.4313 61.6639 39.3602 61.424 39.3602C61.2647 39.3602 61.107 39.3915 60.9598 39.4525C60.8126 39.5135 60.6789 39.6028 60.5662 39.7155C60.4536 39.8281 60.3642 39.9618 60.3033 40.109C60.2423 40.2562 60.2109 40.4139 60.2109 40.5732Z" fill="white"/>
<path d="M54.8672 40.5732C54.8672 40.8134 54.9385 41.0481 55.072 41.2477C55.2055 41.4473 55.3953 41.6028 55.6173 41.6945C55.8393 41.7861 56.0834 41.8098 56.3189 41.7626C56.5543 41.7153 56.7705 41.5993 56.9399 41.4291C57.1094 41.2589 57.2245 41.0423 57.2707 40.8066C57.3169 40.5709 57.2921 40.3269 57.1994 40.1053C57.1068 39.8837 56.9505 39.6946 56.7503 39.562C56.5501 39.4294 56.315 39.3591 56.0749 39.3602C55.7541 39.3616 55.4469 39.49 55.2206 39.7174C54.9943 39.9447 54.8672 40.2524 54.8672 40.5732Z" fill="white"/>
<path d="M49.5234 40.5732C49.5234 40.8132 49.5946 41.0477 49.7279 41.2472C49.8612 41.4467 50.0506 41.6021 50.2723 41.694C50.4939 41.7858 50.7378 41.8098 50.9732 41.763C51.2085 41.7162 51.4246 41.6007 51.5943 41.431C51.7639 41.2613 51.8794 41.0452 51.9263 40.8099C51.9731 40.5746 51.949 40.3307 51.8572 40.109C51.7654 39.8874 51.6099 39.6979 51.4104 39.5646C51.211 39.4313 50.9764 39.3602 50.7365 39.3602C50.5772 39.3602 50.4195 39.3915 50.2723 39.4525C50.1251 39.5135 49.9914 39.6028 49.8787 39.7155C49.7661 39.8281 49.6767 39.9618 49.6158 40.109C49.5548 40.2562 49.5234 40.4139 49.5234 40.5732Z" fill="white"/>
<path d="M144.986 192.217V194.241C144.986 194.362 144.938 194.478 144.852 194.563C144.767 194.649 144.651 194.697 144.53 194.697H87.3816C86.8943 194.697 86.4145 194.577 85.9841 194.349C85.5538 194.12 85.186 193.79 84.9132 193.386C84.6403 192.982 84.4707 192.518 84.4191 192.033C84.3675 191.549 84.4356 191.059 84.6173 190.607L102.727 145.756L131.991 145.954L130.993 151.773L124.552 189.437C124.503 189.722 124.516 190.015 124.592 190.295C124.668 190.575 124.804 190.835 124.99 191.057C125.177 191.278 125.41 191.457 125.672 191.579C125.935 191.702 126.221 191.766 126.511 191.766H144.546C144.664 191.769 144.776 191.818 144.858 191.902C144.94 191.986 144.986 192.099 144.986 192.217Z" fill="#263238"/>
<path opacity="0.6" d="M144.986 192.217V194.241C144.986 194.362 144.938 194.478 144.852 194.563C144.767 194.649 144.651 194.697 144.53 194.697H87.3816C86.8943 194.697 86.4145 194.577 85.9841 194.349C85.5538 194.12 85.186 193.79 84.9132 193.386C84.6403 192.982 84.4707 192.518 84.4191 192.033C84.3675 191.549 84.4356 191.059 84.6173 190.607L95.8462 162.803L102.727 145.756L131.991 145.954L130.993 151.773L128.186 168.154L124.525 189.437C124.476 189.722 124.489 190.015 124.565 190.295C124.641 190.575 124.777 190.835 124.963 191.057C125.15 191.278 125.383 191.457 125.645 191.579C125.908 191.702 126.194 191.766 126.484 191.766H144.519C144.58 191.764 144.64 191.774 144.697 191.796C144.753 191.817 144.805 191.85 144.848 191.892C144.892 191.935 144.927 191.985 144.95 192.041C144.974 192.097 144.986 192.156 144.986 192.217Z" fill="#1E282D"/>
<path d="M126.494 191.766H89.3133C89.0991 191.766 88.8882 191.713 88.6994 191.611C88.5106 191.51 88.3496 191.364 88.2308 191.185C88.1119 191.007 88.0388 190.802 88.0179 190.589C87.997 190.376 88.029 190.161 88.111 189.963L103.988 151.773H130.992L124.551 189.437C124.502 189.721 124.516 190.013 124.59 190.291C124.665 190.57 124.8 190.829 124.984 191.051C125.169 191.272 125.4 191.451 125.661 191.574C125.921 191.698 126.206 191.763 126.494 191.766Z" fill="#263238"/>
<path opacity="0.1" d="M131.993 145.954L130.994 151.773L128.187 168.149L95.8477 162.803L102.729 145.756L131.993 145.954Z" fill="black"/>
<path d="M188.899 62.3494H53.4167C52.498 62.3494 51.6168 62.7139 50.9667 63.3631C50.3166 64.0122 49.9506 64.8927 49.9492 65.8114V157.532C49.9492 158.452 50.3145 159.334 50.9648 159.984C51.6151 160.634 52.497 160.999 53.4167 160.999H188.899C189.818 160.999 190.7 160.634 191.351 159.984C192.001 159.334 192.366 158.452 192.366 157.532V65.8114C192.365 64.8927 191.999 64.0122 191.349 63.3631C190.699 62.7139 189.817 62.3494 188.899 62.3494Z" fill="#263238"/>
<path opacity="0.2" d="M56.2829 160.999H53.4113C52.4931 160.999 51.6125 160.635 50.9632 159.985C50.314 159.336 49.9492 158.456 49.9492 157.537V65.8168C49.9485 65.3614 50.0375 64.9104 50.2111 64.4895C50.3847 64.0685 50.6395 63.6859 50.961 63.3634C51.2825 63.0409 51.6644 62.7849 52.0848 62.61C52.5052 62.4351 52.9559 62.3447 53.4113 62.344H56.2829C55.8276 62.3447 55.3768 62.4351 54.9564 62.61C54.536 62.7849 54.1541 63.0409 53.8326 63.3634C53.5112 63.6859 53.2564 64.0685 53.0827 64.4895C52.9091 64.9104 52.8202 65.3614 52.8209 65.8168V157.537C52.8209 158.456 53.1856 159.336 53.8349 159.985C54.4841 160.635 55.3647 160.999 56.2829 160.999Z" fill="black"/>
<path d="M189.241 65.323H55.9492V153.769H189.241V65.323Z" fill="#FFF3EE"/>
<path opacity="0.1" d="M175.346 65.7417C156.92 84.206 109.583 125.321 55.9453 122.262V65.7417H175.346Z" fill="white"/>
<path opacity="0.1" d="M189.242 99.6754V154.188H108.992C112.068 143.179 118.219 128.102 130.156 117.329C151.621 97.9416 176.537 98.0007 189.242 99.6754Z" fill="white"/>
<path opacity="0.3" d="M147.208 104.329L140.52 97.6464L133.832 104.329H135.925V141.601H145.115V104.329H147.208Z" fill="black"/>
<path opacity="0.3" d="M164.196 99.9384H157.207V102.611H164.196V99.9384Z" fill="black"/>
<path opacity="0.3" d="M157.21 99.2083H164.198V89.23H165.787L160.704 84.147L155.621 89.23H157.21V99.2083Z" fill="black"/>
<path opacity="0.3" d="M164.196 103.679H157.207V105.617H164.196V103.679Z" fill="black"/>
<path opacity="0.3" d="M164.196 107.893H157.207V108.897H164.196V107.893Z" fill="black"/>
<path opacity="0.3" d="M124.68 91.5166H117.691V94.1896H124.68V91.5166Z" fill="black"/>
<path opacity="0.3" d="M117.694 90.7867H124.683V80.8084H126.272L121.189 75.7253L116.105 80.8084H117.694V90.7867Z" fill="black"/>
<path opacity="0.3" d="M124.68 95.2578H117.691V97.1955H124.68V95.2578Z" fill="black"/>
<path opacity="0.3" d="M124.68 99.4713H117.691V100.475H124.68V99.4713Z" fill="black"/>
<path opacity="0.3" d="M174.832 144.28H167.844V146.953H174.832V144.28Z" fill="black"/>
<path opacity="0.3" d="M167.843 143.555H174.826V133.571H176.415L171.337 128.494L166.254 133.571H167.843V143.555Z" fill="black"/>
<path opacity="0.3" d="M174.832 148.026H167.844V149.964H174.832V148.026Z" fill="black"/>
<path opacity="0.3" d="M174.832 152.234H167.844V153.238H174.832V152.234Z" fill="black"/>
<path d="M150.675 141.836C154.139 136.23 152.404 128.878 146.798 125.413C141.193 121.948 133.84 123.683 130.375 129.289C126.91 134.895 128.646 142.247 134.251 145.712C139.857 149.177 147.21 147.442 150.675 141.836Z" fill="#407BFF"/>
<path opacity="0.1" d="M150.675 141.836C154.139 136.23 152.404 128.878 146.798 125.413C141.193 121.948 133.84 123.683 130.375 129.289C126.91 134.895 128.646 142.247 134.251 145.712C139.857 149.177 147.21 147.442 150.675 141.836Z" fill="black"/>
<path opacity="0.2" d="M140.52 145.944C146.26 145.944 150.912 141.291 150.912 135.552C150.912 129.813 146.26 125.16 140.52 125.16C134.781 125.16 130.129 129.813 130.129 135.552C130.129 141.291 134.781 145.944 140.52 145.944Z" fill="black"/>
<g opacity="0.6">
<path d="M141.166 140.308V141.8H140.093V140.324C138.922 140.292 137.788 139.906 136.84 139.218L137.441 137.881C138.212 138.46 139.131 138.81 140.093 138.891V136.234C138.622 135.874 137.038 135.396 137.038 133.55C137.038 132.197 138.026 131.011 140.093 130.812V129.315H141.166V130.786C142.114 130.83 143.036 131.108 143.85 131.596L143.313 132.938C142.656 132.55 141.924 132.307 141.166 132.224V134.908C142.642 135.267 144.247 135.734 144.247 137.592C144.231 138.928 143.238 140.12 141.166 140.308ZM140.093 134.623V132.262C139.153 132.407 138.756 132.884 138.756 133.469C138.756 134.054 139.293 134.398 140.06 134.623H140.093ZM142.567 137.694C142.567 137.044 141.982 136.738 141.182 136.513V138.864C142.122 138.719 142.535 138.263 142.535 137.694H142.567Z" fill="#407BFF"/>
</g>
<path d="M95.9641 74.7866C97.9288 74.3629 98.9941 71.574 98.3435 68.5574C97.693 65.5408 95.5729 63.4389 93.6082 63.8626C91.6435 64.2863 90.5782 67.0752 91.2287 70.0918C91.8793 73.1084 93.9994 75.2104 95.9641 74.7866Z" fill="#263238"/>
<path opacity="0.2" d="M95.9641 74.7866C97.9288 74.3629 98.9941 71.574 98.3435 68.5574C97.693 65.5408 95.5729 63.4389 93.6082 63.8626C91.6435 64.2863 90.5782 67.0752 91.2287 70.0918C91.8793 73.1084 93.9994 75.2104 95.9641 74.7866Z" fill="white"/>
<path d="M97.1523 71.9788C97.1523 71.9788 99.5785 74.8665 99.8952 76.2138C100.212 77.561 98.7304 78.0602 97.5871 78.3017" stroke="#263238" stroke-width="1.15635" stroke-miterlimit="10"/>
<path d="M116.151 153.759H107.461C107.509 152.835 107.558 151.869 107.611 150.882C107.665 149.98 107.724 149.057 107.778 148.133L107.826 147.441C108.363 139.894 109.211 132.326 110.569 132.347C110.741 132.347 110.923 132.487 111.105 132.761C111.366 133.149 111.588 133.563 111.766 133.995C113.489 137.898 115.104 146.926 116.151 153.759Z" fill="#263238"/>
<path d="M112.746 153.759H66.5851C66.5851 149.207 66.5851 143.303 66.2953 136.55C66.0752 131.097 65.6941 125.08 65.0017 118.778C64.6045 115.166 64.1107 111.452 63.4934 107.705C63.1391 105.558 62.7419 103.374 62.3072 101.205C61.6845 98.1402 60.9814 95.0646 60.1602 92.0051C60.1602 92.0051 63.6759 91.0497 68.2115 90.1855C69.1508 90.0084 70.1384 89.8313 71.1421 89.6488C71.9956 89.5146 72.8651 89.3858 73.7454 89.2784H73.7883L74.6203 89.1764L76.6385 88.951C77.712 88.8383 78.7855 88.7256 79.9181 88.6182C83.5573 88.28 87.4648 88.0009 90.6532 87.9365H91.5173C92.0541 87.9365 92.5909 87.9365 93.0793 87.9365C93.5677 87.9365 94.6305 87.9956 95.0814 88.017H95.3229L101.683 90.0835L106.144 91.5381C106.144 91.5381 106.353 92.4882 106.681 94.281C107.089 96.3904 107.679 99.6485 108.334 103.9C108.989 108.151 109.719 113.266 110.379 119.202C110.883 123.7 111.361 128.644 111.753 133.947C111.903 135.922 112.039 137.948 112.161 140.023C112.3 142.363 112.413 144.768 112.51 147.221C112.51 147.452 112.51 147.688 112.537 147.924C112.574 148.804 112.606 149.701 112.633 150.608C112.719 151.676 112.719 152.712 112.746 153.759Z" fill="white"/>
<g opacity="0.7">
<path d="M112.746 153.759H66.5851C66.5851 149.207 66.5851 143.303 66.2953 136.55C66.0752 131.097 65.6941 125.08 65.0017 118.778C64.6045 115.166 64.1107 111.452 63.4934 107.705C63.1391 105.558 62.7419 103.374 62.3072 101.205C61.6845 98.1402 60.9814 95.0646 60.1602 92.0051C60.1602 92.0051 63.6759 91.0497 68.2115 90.1855C69.1508 90.0084 70.1384 89.8313 71.1421 89.6488C71.9956 89.5146 72.8651 89.3858 73.7454 89.2784H73.7883L74.6203 89.1764L76.6385 88.951C77.712 88.8383 78.7855 88.7256 79.9181 88.6182C83.5573 88.28 87.4648 88.0009 90.6532 87.9365H91.5173C92.0541 87.9365 92.5909 87.9365 93.0793 87.9365C93.5677 87.9365 94.6305 87.9956 95.0814 88.017H95.3229L101.683 90.0835L106.144 91.5381C106.144 91.5381 106.353 92.4882 106.681 94.281C107.089 96.3904 107.679 99.6485 108.334 103.9C108.989 108.151 109.719 113.266 110.379 119.202C110.883 123.7 111.361 128.644 111.753 133.947C111.903 135.922 112.039 137.948 112.161 140.023C112.3 142.363 112.413 144.768 112.51 147.221C112.51 147.452 112.51 147.688 112.537 147.924C112.574 148.804 112.606 149.701 112.633 150.608C112.719 151.676 112.719 152.712 112.746 153.759Z" fill="white"/>
</g>
<path d="M113.607 153.759H68.75L69.6303 148.837L73.774 148.681L107.826 147.441L112.538 147.269L112.812 147.259L112.898 147.962H112.903L113.22 150.619L113.607 153.759Z" fill="#263238"/>
<path opacity="0.4" d="M113.607 153.759H68.75L69.6303 148.837L73.774 148.681L107.826 147.441L112.538 147.269L112.812 147.259L112.898 147.962H112.903L113.22 150.619L113.607 153.759Z" fill="white"/>
<path d="M84.9628 148.896L85.0434 151.95L69.4023 152.696L70.1967 149.395L84.9628 148.896Z" fill="black"/>
<path d="M108.047 148.123L108.348 150.844L85.9868 151.907L85.9492 148.863L108.047 148.123Z" fill="black"/>
<path d="M113.221 150.619L109.292 150.801L109.023 148.09L112.904 147.962L113.221 150.619Z" fill="black"/>
<path d="M94.7936 148.982L94.9868 151.129C94.9963 151.228 95.0432 151.319 95.118 151.385C95.1928 151.451 95.2898 151.486 95.3894 151.483L99.7424 151.316C99.7946 151.314 99.8458 151.301 99.8929 151.278C99.9401 151.256 99.9823 151.224 100.017 151.185C100.052 151.146 100.079 151.101 100.096 151.051C100.114 151.002 100.121 150.95 100.118 150.898L99.9625 148.788C99.9543 148.688 99.9082 148.594 99.8334 148.526C99.7586 148.458 99.6609 148.422 99.56 148.423L95.1693 148.574C95.1176 148.575 95.0667 148.587 95.0196 148.608C94.9725 148.629 94.9302 148.66 94.8952 148.698C94.8601 148.736 94.8331 148.781 94.8156 148.829C94.7982 148.878 94.7907 148.93 94.7936 148.982Z" stroke="white" stroke-width="1.15635" stroke-miterlimit="10"/>
<path d="M98.4453 149.835L99.3524 149.787" stroke="white" stroke-width="1.15635" stroke-linecap="round" stroke-linejoin="round"/>
<path d="M152.976 112.31L161.757 111.135L156.39 102.912C156.39 102.912 148.623 104.431 149.573 108.403L152.976 112.31Z" fill="#EBB376"/>
<path d="M168.578 105.617L161.557 100.115L156.383 102.912L161.756 111.135L168.578 105.617Z" fill="#EBB376"/>
<path d="M106.851 89.5145C112.819 90.5397 126.56 117.791 126.56 117.791L149.753 105.322L155.073 112.804C155.073 112.804 130.833 132.857 124.494 131.532C118.155 130.206 106.137 113.819 106.137 113.819L106.851 89.5145Z" fill="#263238"/>
<path d="M155.05 112.804C155.05 112.804 130.831 132.852 124.492 131.532C122.157 131.049 119.055 128.52 116.071 125.52C112.51 121.84 109.193 117.931 106.141 113.819L106.302 108.339L106.838 89.5145C112.812 90.5344 126.553 117.785 126.553 117.785L149.752 105.322L155.05 112.804Z" fill="black"/>
<path opacity="0.2" d="M116.071 125.531C112.509 121.847 109.192 117.935 106.141 113.819L106.302 108.339L107.423 102.434C107.423 102.434 113.746 111.43 116.071 125.531Z" fill="black"/>
<path d="M76.0586 88.6826C76.0586 88.6826 87.3304 94.3239 90.2396 93.6851C92.2793 93.2396 94.5337 89.2784 94.5337 89.2784C93.1604 88.9554 91.8848 88.3074 90.814 87.389C88.2214 85.0326 88.667 81.4203 89.7029 77.9958L78.7585 67.9478C79.2099 70.8549 79.4378 73.7924 79.4401 76.7344C79.4401 81.5384 78.6457 86.3853 76.0586 88.6826Z" fill="#EBB376"/>
<path opacity="0.2" d="M79.4395 76.7344C81.3933 81.7101 84.8768 87.2011 90.8133 87.3783C88.2208 85.0219 88.6663 81.4095 89.7022 77.9851L78.7578 67.937C79.2098 70.8477 79.4377 73.7888 79.4395 76.7344Z" fill="black"/>
<path d="M76.0311 121.001V121.049C76.0311 121.494 76.0311 121.951 76.0043 122.423V122.461C75.9721 123.636 75.9291 124.871 75.8647 126.164V126.245C75.8271 127.001 75.7788 127.774 75.7305 128.58C75.7332 128.612 75.7332 128.644 75.7305 128.676C75.6983 129.213 75.6661 129.717 75.6339 130.249C75.4568 132.852 75.2206 135.616 74.9361 138.552C74.8824 139.121 74.8234 139.696 74.759 140.275C74.6838 140.995 74.6087 141.725 74.5336 142.455C74.4638 143.04 74.3994 143.625 74.3296 144.226C74.1525 145.686 73.97 147.178 73.7928 148.686C73.7928 148.88 73.7338 149.078 73.7123 149.277C73.7123 149.336 73.7123 149.4 73.6855 149.465C73.5531 150.474 73.4153 151.49 73.2722 152.513C73.2078 152.932 73.1487 153.345 73.095 153.759H65.3819V153.361C65.4678 150.849 65.4946 148.348 65.4141 145.949C65.3819 144.977 65.3282 144.027 65.2638 143.088C65.2638 142.841 65.2262 142.589 65.2101 142.331C65.1511 141.564 65.0759 140.758 64.9954 139.916C64.6465 136.282 64.1313 131.999 63.5247 127.506C63.5277 127.483 63.5277 127.459 63.5247 127.436C63.4335 126.744 63.3422 126.046 63.2402 125.343C63.2402 125.107 63.1758 124.865 63.1436 124.624L62.9504 123.228C62.8752 122.691 62.8055 122.187 62.725 121.661C62.623 120.941 62.521 120.222 62.4136 119.514C62.3385 118.977 62.2633 118.44 62.1828 117.941C62.0433 116.986 61.8984 116.03 61.7588 115.096C61.5119 113.432 61.265 111.801 61.0181 110.223C60.9107 109.568 60.8087 108.913 60.7121 108.274C60.6155 107.635 60.5082 107.002 60.4115 106.385L60.2666 105.483C60.1432 104.726 60.0304 103.985 59.9177 103.266C59.8694 102.982 59.8211 102.703 59.7782 102.423C59.7084 101.967 59.6333 101.532 59.5635 101.098C59.5259 100.867 59.4937 100.647 59.4561 100.427C59.4561 100.298 59.4132 100.174 59.3971 100.046C59.3327 99.6914 59.279 99.3425 59.2253 99.0097C59.1448 98.5159 59.0643 98.0382 58.9891 97.5927C58.9569 97.378 58.9194 97.1633 58.8872 96.9593L58.8228 96.5836C58.3665 93.83 58.082 92.1822 58.082 92.1822H58.1142C58.1947 92.1446 58.4095 92.0588 58.7583 91.9407L59.0858 91.8279C59.1716 91.7957 59.2629 91.7635 59.3595 91.7367C60.2881 91.4307 61.7105 91.0067 63.5784 90.5719C64.3889 90.3841 65.2745 90.1908 66.2622 90.003C66.5681 89.9439 66.8794 89.8849 67.2069 89.8312C67.6309 89.7561 68.0764 89.6756 68.538 89.6058C69.9014 89.3911 71.3989 89.1925 73.0092 89.0315L73.6962 88.967C73.6962 88.967 73.723 89.0851 73.766 89.3267C73.8089 89.5682 73.8411 89.8044 73.8948 90.1586C73.8948 90.1586 73.8948 90.2069 73.8948 90.2338C73.8973 90.2534 73.8973 90.2732 73.8948 90.2928C73.8948 90.4216 73.9378 90.5666 73.9646 90.7169C74.0397 91.2107 74.1256 91.7904 74.2222 92.4667L74.2705 92.8156C74.3027 93.0517 74.335 93.2933 74.3672 93.5456C74.3994 93.7978 74.4369 94.0823 74.4745 94.34C74.5121 94.5976 74.5443 94.8767 74.5765 95.1719C74.7644 96.6748 74.9576 98.3924 75.1454 100.346C75.1454 100.577 75.1884 100.819 75.2099 101.06C75.2689 101.693 75.3279 102.354 75.3816 103.03C75.3816 103.148 75.3816 103.266 75.4085 103.395C75.4514 103.883 75.489 104.383 75.5265 104.887C75.5265 105.097 75.5587 105.306 75.5695 105.521C75.5802 105.735 75.6017 105.955 75.6124 106.17C75.6232 106.385 75.6446 106.605 75.6554 106.825C75.6554 107.174 75.6983 107.533 75.7198 107.898C75.7198 108.075 75.7198 108.258 75.7466 108.435C75.7466 108.72 75.7842 109.009 75.8003 109.31C75.8003 109.46 75.8003 109.621 75.8003 109.777C76.015 113.282 76.1009 117.039 76.0311 121.001Z" fill="#263238"/>
<path d="M76.035 121.006C76.035 121.451 76.035 121.913 76.0028 122.385V122.423C75.9777 123.597 75.9312 124.831 75.8632 126.127V126.207C75.8257 126.964 75.7774 127.737 75.729 128.542C75.7317 128.574 75.7317 128.606 75.729 128.639C75.7022 129.175 75.67 129.68 75.6324 130.211C75.4553 132.814 75.2191 135.579 74.9347 138.515C74.881 139.084 74.8219 139.658 74.7575 140.238C74.6824 140.957 74.6072 141.687 74.5321 142.417C74.4623 143.002 74.3925 143.587 74.3281 144.188C74.151 145.648 73.9685 147.14 73.7914 148.649C73.7914 148.842 73.7323 149.041 73.7109 149.239C73.7109 149.298 73.7109 149.363 73.7109 149.427C73.5785 150.436 73.4407 151.452 73.2976 152.476C73.2331 152.894 73.1741 153.308 73.1204 153.721H65.3804C65.3804 153.78 65.3804 153.839 65.3804 153.898C65.3856 153.839 65.3856 153.78 65.3804 153.721C65.3804 153.592 65.3804 153.453 65.3804 153.324C65.4663 150.812 65.4931 148.311 65.4126 145.911C65.3858 144.94 65.3321 143.984 65.2677 143.05C65.2677 142.803 65.2301 142.551 65.2087 142.294C65.1496 141.526 65.0745 140.721 64.994 139.878C64.6558 136.244 64.1352 131.961 63.5233 127.468C63.5262 127.445 63.5262 127.422 63.5233 127.399L63.3783 126.288C63.3354 125.96 63.2925 125.633 63.2388 125.305C63.2388 125.069 63.1744 124.828 63.1422 124.586C63.0831 124.124 63.0133 123.657 62.9489 123.19C62.8845 122.723 62.804 122.149 62.7235 121.623C62.6215 120.904 62.5195 120.185 62.4122 119.476C62.337 118.939 62.2619 118.403 62.1814 117.903C62.0418 116.948 61.8969 115.993 61.7573 115.059C61.5104 113.395 61.2635 111.763 61.0166 110.185C60.9683 109.895 60.92 109.616 60.8771 109.331C60.8234 108.961 60.7643 108.596 60.7107 108.258C60.6033 107.614 60.5067 106.986 60.4101 106.369L60.2652 105.467C60.1417 104.71 60.029 103.969 59.9163 103.25C59.868 102.966 59.8197 102.681 59.7767 102.407C59.7069 101.951 59.6318 101.516 59.562 101.082C59.5244 100.851 59.4922 100.631 59.4547 100.411C59.4547 100.282 59.4117 100.158 59.3956 100.03C59.3312 99.6753 59.2775 99.3264 59.2239 98.9936C59.1433 98.4998 59.0628 98.0221 58.9877 97.5766C58.9555 97.3619 58.9179 97.1472 58.8857 96.9432L58.8213 96.5675C58.3865 93.8837 58.1074 92.2734 58.0859 92.1661H58.1181C58.1987 92.1285 58.4134 92.0426 58.7622 91.9245L59.0897 91.8118C59.1755 91.7796 59.2668 91.7474 59.3634 91.7206C60.292 91.4146 61.7144 90.9906 63.5823 90.5558C64.3928 90.368 65.2784 90.1747 66.2661 89.9869C66.572 89.9278 66.8833 89.8688 67.2108 89.8151C67.6348 89.74 68.0803 89.6594 68.5419 89.5897C69.9053 89.375 71.4028 89.1764 73.0131 89.0153L73.7001 88.9456C73.7006 88.9545 73.7006 88.9635 73.7001 88.9724C73.7001 89.0261 73.7377 89.1334 73.7645 89.2998C73.7914 89.4662 73.8397 89.7775 73.8987 90.1318C73.8961 90.1603 73.8961 90.1891 73.8987 90.2177C73.9012 90.2373 73.9012 90.2571 73.8987 90.2767C73.8987 90.4055 73.9363 90.5504 73.9685 90.7007C74.0383 91.1892 74.1241 91.7743 74.2261 92.4506L74.2744 92.7994C74.2744 93.0303 74.3335 93.2772 74.3711 93.5294C74.4086 93.7817 74.4408 94.0662 74.4784 94.3238C74.516 94.5815 74.5428 94.8606 74.5804 95.1558C74.7683 96.6587 74.9615 98.3763 75.1494 100.33L75.2138 101.044C75.2728 101.677 75.3319 102.338 75.3855 103.014C75.3855 103.132 75.3855 103.25 75.4124 103.379C75.4553 103.867 75.4929 104.367 75.5305 104.871C75.5305 105.08 75.5627 105.29 75.5734 105.504C75.5841 105.719 75.6056 105.939 75.6163 106.154C75.6271 106.369 75.6485 106.589 75.6593 106.809C75.6593 107.158 75.7022 107.517 75.7237 107.882C75.7237 108.059 75.7237 108.242 75.7505 108.419C75.7505 108.709 75.7881 108.999 75.8042 109.294C75.8042 109.444 75.8042 109.605 75.8042 109.761C75.8471 110.657 75.8793 111.575 75.9115 112.509C76.0457 115.209 76.0833 118.064 76.035 121.006Z" fill="black"/>
<path opacity="0.2" d="M73.7047 88.9294C75.4132 99.5316 76.1927 110.263 76.0342 121.001C76.0333 121.015 76.0333 121.029 76.0342 121.043L65.8359 99.9275L71.6221 98.1401L65.0039 95.8911L68.5358 89.5735C70.1031 89.332 71.8261 89.128 73.7047 88.9294Z" fill="#605F5F"/>
<path d="M117.28 153.759H114.779C114.044 149.599 113.169 145.004 112.192 140.071C111.687 137.567 111.151 134.992 110.582 132.348C109.898 129.213 109.165 125.992 108.381 122.686C108.032 121.194 107.678 119.761 107.307 118.392C106.91 116.782 106.508 115.284 106.121 113.856C100.126 91.7958 95.6224 88.2961 95.3164 88.0922L99.4118 88.6289L106.835 89.579C108.322 94.4849 109.782 101.473 111.129 109.396C111.854 113.599 112.557 118.059 113.223 122.605C114.827 133.249 116.207 144.414 117.28 153.759Z" fill="#263238"/>
<path d="M117.28 153.759H114.779C114.044 149.599 113.169 145.004 112.192 140.071C111.687 137.567 111.151 134.992 110.582 132.348C109.898 129.213 109.165 125.992 108.381 122.686C108.032 121.194 107.678 119.761 107.307 118.392C106.91 116.782 106.508 115.284 106.121 113.856C100.126 91.7958 95.6224 88.2961 95.3164 88.0922L99.4118 88.6289L106.835 89.579C108.322 94.4849 109.782 101.473 111.129 109.396C111.854 113.599 112.557 118.059 113.223 122.605C114.827 133.249 116.207 144.414 117.28 153.759Z" fill="black"/>
<path opacity="0.2" d="M101.36 96.4386L106.277 98.2529C106.277 98.2529 107.807 111.382 107.302 118.344C100.722 92.2144 95.6385 88.2854 95.3164 88.0331L99.4065 88.5698C101.237 89.7239 104.098 91.7582 106.009 94.2541L101.36 96.4386Z" fill="#605F5F"/>
<path d="M92.9434 54.3518C92.9434 54.3518 98.6652 57.9803 96.7006 68.141C94.7361 78.3018 82.5035 58.093 92.9434 54.3518Z" fill="#263238"/>
<path d="M75.6292 67.3735C77.0677 75.2262 76.0908 76.6271 80.578 80.1697C87.3304 85.505 97.314 85.5372 97.7542 77.3356C98.1782 69.9606 97.357 56.794 89.2252 54.647C81.2382 52.5322 74.1907 59.5154 75.6292 67.3735Z" fill="#EBB376"/>
<path d="M85.3016 67.0299C85.409 67.7009 85.7203 67.7277 86.1604 67.6526C86.6005 67.5774 86.9977 67.4379 86.8904 66.7616C86.783 66.0852 86.3536 65.6075 85.9028 65.688C85.4519 65.7686 85.1943 66.359 85.3016 67.0299Z" fill="#263238"/>
<path d="M93.6144 66.5844C93.7218 67.2553 94.0385 67.2768 94.4786 67.2016C94.9187 67.1265 95.3159 66.9869 95.2086 66.316C95.1012 65.645 94.6718 65.1566 94.2156 65.2425C93.7593 65.3283 93.5071 65.8919 93.6144 66.5844Z" fill="#263238"/>
<path d="M92.3203 66.4072C92.3203 66.4072 93.791 69.2842 95.2349 70.5939C94.3975 71.5493 92.7927 71.3239 92.7927 71.3239L92.3203 66.4072Z" fill="#D58745"/>
<path d="M83.6908 64.1475C83.6211 64.1429 83.5541 64.1187 83.4975 64.0777C83.4168 64.0167 83.3624 63.9272 83.3455 63.8274C83.3285 63.7277 83.3503 63.6252 83.4063 63.541C83.7623 63.0101 84.2407 62.5725 84.8011 62.2652C85.3616 61.9578 85.9878 61.7897 86.6268 61.775C86.6797 61.7757 86.7318 61.787 86.7802 61.8084C86.8286 61.8297 86.8721 61.8606 86.9082 61.8992C86.9443 61.9378 86.9722 61.9833 86.9903 62.033C87.0084 62.0827 87.0162 62.1355 87.0133 62.1883C87.0077 62.2942 86.9606 62.3936 86.8822 62.4649C86.8039 62.5363 86.7005 62.5738 86.5946 62.5694C86.0908 62.5929 85.5996 62.7343 85.1605 62.9822C84.7214 63.2302 84.3467 63.5779 84.0665 63.9972C84.0239 64.0545 83.9662 64.0989 83.8999 64.1254C83.8335 64.152 83.7612 64.1596 83.6908 64.1475Z" fill="#263238"/>
<path d="M96.5004 63.0418C96.4371 63.0601 96.3704 63.0628 96.306 63.0497C96.2415 63.0366 96.1811 63.0081 96.13 62.9667C95.7603 62.6286 95.3146 62.3848 94.8305 62.2558C94.3465 62.1269 93.8385 62.1166 93.3496 62.226C93.2479 62.2528 93.1397 62.2393 93.0477 62.1883C92.9557 62.1373 92.8869 62.0527 92.8558 61.9522C92.8411 61.9018 92.8365 61.849 92.8423 61.7968C92.8481 61.7446 92.8642 61.6941 92.8896 61.6482C92.9151 61.6023 92.9494 61.5619 92.9906 61.5293C93.0318 61.4967 93.079 61.4726 93.1295 61.4584C93.7448 61.3122 94.3863 61.3168 94.9994 61.4719C95.6125 61.6271 96.179 61.9281 96.6507 62.3494C96.6909 62.3839 96.724 62.426 96.748 62.4733C96.7719 62.5205 96.7863 62.5721 96.7903 62.625C96.7943 62.6778 96.7878 62.731 96.7712 62.7813C96.7546 62.8317 96.7282 62.8782 96.6936 62.9184C96.6421 62.9769 96.5751 63.0197 96.5004 63.0418Z" fill="#263238"/>
<path d="M77.0767 72.6337C80.7589 74.6036 79.8034 70.8678 79.5351 70.4867C78.3649 68.8388 79.2774 66.4825 80.3939 63.1653C80.8931 61.6893 80.4207 59.3168 80.4207 59.3168C80.4207 59.3168 75.9334 58.5976 73.2926 59.349C70.5659 60.1273 70.5391 62.3441 70.5391 62.3441C71.3496 69.2682 74.1085 71.0449 77.0767 72.6337Z" fill="#263238"/>
<path d="M72.6451 73.0898C73.5296 74.7122 74.9973 75.9382 76.7513 76.5197C78.9788 77.1852 79.902 74.9738 79.1291 72.6604C78.4313 70.5724 76.4453 67.7169 74.2983 68.0712C72.1513 68.4254 71.4965 71.0233 72.6451 73.0898Z" fill="#EBB376"/>
<path d="M93.8935 73.6695C93.5539 74.8194 93.2991 75.9927 93.1313 77.1799H92.498C89.6317 77.2068 88.2952 76.2728 87.6672 75.2315C87.3792 74.7147 87.2174 74.1372 87.1948 73.5461C87.1735 73.2114 87.1988 72.8754 87.27 72.5477C88.7997 73.4387 91.4728 73.6212 92.9059 73.6534C93.5124 73.6856 93.8935 73.6695 93.8935 73.6695Z" fill="#263238"/>
<path d="M92.9176 73.6642L92.6653 74.6948C89.9816 74.6948 88.06 74.3673 87.2066 73.5568C87.1852 73.2222 87.2105 72.8862 87.2817 72.5585C88.8114 73.4495 91.4845 73.6266 92.9176 73.6642Z" fill="white"/>
<path d="M92.4988 77.1906C89.6325 77.2174 88.296 76.2835 87.668 75.2422C88.7577 75.2498 89.8373 75.4516 90.8563 75.838C91.5329 76.104 92.1079 76.5775 92.4988 77.1906Z" fill="#DE5753"/>
<path d="M70.6898 63.4337C70.6898 63.4337 67.2653 59.1396 72.6543 54.6953C78.0433 50.251 86.8568 49.5049 91.9184 51.1151C96.98 52.7254 93.4481 57.0194 88.1611 59.0108C85.2787 60.0843 84.0496 59.6281 84.0496 59.6281C84.0496 59.6281 85.5686 59.7783 87.6566 57.7172C87.6566 57.7172 80.4104 57.8943 79.3745 62.3226C78.3385 66.7508 70.6898 63.4337 70.6898 63.4337Z" fill="#263238"/>
<path opacity="0.2" d="M63.3827 126.325C63.0768 124.071 62.7547 121.773 62.4166 119.498C62.2019 118.011 61.9818 116.529 61.7617 115.075C61.9656 114.489 62.2531 113.936 62.6152 113.432C62.6152 113.432 64.6441 118.827 63.3827 126.325Z" fill="black"/>
<path d="M86.6523 95.1289L90.5438 98.1777C90.5438 98.1777 93.5335 117.082 93.4154 133.426L96.8346 137.082L99.3627 132.755C99.3627 132.755 94.8271 106.148 92.2561 98.1777L94.5426 93.7334L90.2486 93.6851L86.6523 95.1289Z" fill="black"/>
<path d="M90.2445 93.6851C90.2445 93.6851 88.3283 96.3205 86.0525 98.956C82.365 97.4692 73.6749 93.3845 73.7071 88.9294C74.0882 87.6036 77.3839 86.5033 77.3839 86.5033C77.3839 86.5033 81.4578 90.953 90.2445 93.6851Z" fill="#407BFF"/>
<path d="M90.2416 93.6851C92.1034 94.9388 93.777 96.4516 95.2119 98.1777C97.6756 96.2669 95.6628 88.1565 94.6269 87.3246C93.1905 86.6772 91.6131 86.4056 90.043 86.5355C90.043 86.5355 92.2168 90.1157 90.2416 93.6851Z" fill="#407BFF"/>
<path d="M90.2445 93.6851C90.2445 93.6851 88.3283 96.3205 86.0525 98.956C82.365 97.4692 73.6749 93.3845 73.7071 88.9294C74.0882 87.6036 77.3839 86.5033 77.3839 86.5033C77.3839 86.5033 81.4578 90.953 90.2445 93.6851Z" fill="white"/>
<path d="M90.2455 93.6851C92.1073 94.9388 93.781 96.4516 95.2158 98.1777C97.6795 96.2669 95.6667 88.1565 94.6308 87.3246C93.1944 86.6772 91.617 86.4056 90.0469 86.5355C90.0469 86.5355 92.2207 90.1157 90.2455 93.6851Z" fill="white"/>
<path d="M63.6907 116.191L63.5028 117.265L62.7299 121.666L60.1696 136.266L60.5775 153.764H55.9453V94.6191C56.6485 93.245 57.3677 92.3701 58.0923 92.1608C58.205 92.2842 60.6634 95.1022 62.3112 101.2C62.8791 103.331 63.2757 105.505 63.4974 107.7C63.785 110.521 63.8496 113.36 63.6907 116.191Z" fill="black"/>
<path d="M63.6907 116.191L63.5028 117.265L62.7299 121.666L60.1696 136.266L60.5775 153.764H55.9453V94.6191C56.6485 93.245 57.3677 92.3701 58.0923 92.1608C58.205 92.2842 60.6634 95.1022 62.3112 101.2C62.8791 103.331 63.2757 105.505 63.4974 107.7C63.785 110.521 63.8496 113.36 63.6907 116.191Z" fill="black"/>
<path d="M79.0613 70.3793C79.8986 73.3422 79.0613 76.3212 77.1504 77.0351C75.2396 77.7489 73.0442 75.924 72.2069 72.9665C71.3696 70.0089 72.2069 67.0246 74.1177 66.3107C76.0286 65.5968 78.2239 67.4218 79.0613 70.3793Z" fill="#263238"/>
<path opacity="0.2" d="M79.0613 70.3793C79.8986 73.3422 79.0613 76.3212 77.1504 77.0351C75.2396 77.7489 73.0442 75.924 72.2069 72.9665C71.3696 70.0089 72.2069 67.0246 74.1177 66.3107C76.0286 65.5968 78.2239 67.4218 79.0613 70.3793Z" fill="white"/>
<path d="M75.1133 69.1286C75.1133 69.1286 73.707 54.3517 81.1303 50.8252C80.4249 50.7211 79.7044 50.8197 79.053 51.1097C77.9795 51.5982 71.5707 54.2658 72.6442 68.9997L75.1133 69.1286Z" fill="#263238"/>
<path opacity="0.4" d="M75.0272 67.3895C75.0272 68.463 75.1131 69.1286 75.1131 69.1286L72.644 68.9997C72.6172 68.6831 72.6011 68.3717 72.585 68.0658C71.8443 54.1531 78.0116 51.5874 79.0529 51.1097C79.7063 50.8201 80.4284 50.7215 81.1355 50.8252C75.2795 53.6056 74.9145 63.3638 75.0272 67.3895Z" fill="white"/>
<path d="M98.1291 77.6381L96.7484 77.9321C96.499 77.9852 96.3399 78.2303 96.393 78.4797L96.4232 78.6214C96.4763 78.8708 96.7215 79.0299 96.9708 78.9768L98.3515 78.6828C98.6009 78.6297 98.76 78.3845 98.7069 78.1352L98.6767 77.9934C98.6236 77.7441 98.3784 77.585 98.1291 77.6381Z" fill="#263238"/>
<path opacity="0.2" d="M98.1291 77.6381L96.7484 77.9321C96.499 77.9852 96.3399 78.2303 96.393 78.4797L96.4232 78.6214C96.4763 78.8708 96.7215 79.0299 96.9708 78.9768L98.3515 78.6828C98.6009 78.6297 98.76 78.3845 98.7069 78.1352L98.6767 77.9934C98.6236 77.7441 98.3784 77.585 98.1291 77.6381Z" fill="white"/>
<path opacity="0.2" d="M75.1141 69.1286L72.645 68.9998C72.6181 68.6831 72.602 68.3718 72.5859 68.0658C72.5859 68.0658 73.2461 66.8474 75.0282 67.3895C75.0496 68.4737 75.1141 69.1286 75.1141 69.1286Z" fill="black"/>
<path d="M77.1824 71.2649C77.8104 73.4925 77.1824 75.7361 75.7439 76.2729C74.3054 76.8096 72.6522 75.4355 72.0242 73.208C71.3962 70.9805 72.0242 68.7422 73.4627 68.2054C74.9012 67.6687 76.5491 69.0428 77.1824 71.2649Z" fill="#263238"/>
<path opacity="0.4" d="M77.1824 71.2649C77.8104 73.4925 77.1824 75.7361 75.7439 76.2729C74.3054 76.8096 72.6522 75.4355 72.0242 73.208C71.3962 70.9805 72.0242 68.7422 73.4627 68.2054C74.9012 67.6687 76.5491 69.0428 77.1824 71.2649Z" fill="white"/>
<path d="M202.299 66.8206H170.013C169.257 66.8206 168.645 67.4334 168.645 68.1893V98.3549C168.645 99.1108 169.257 99.7236 170.013 99.7236H202.299C203.055 99.7236 203.668 99.1108 203.668 98.3549V68.1893C203.668 67.4334 203.055 66.8206 202.299 66.8206Z" fill="#407BFF"/>
<path opacity="0.7" d="M202.299 66.8206H170.013C169.257 66.8206 168.645 67.4334 168.645 68.1893V98.3549C168.645 99.1108 169.257 99.7236 170.013 99.7236H202.299C203.055 99.7236 203.668 99.1108 203.668 98.3549V68.1893C203.668 67.4334 203.055 66.8206 202.299 66.8206Z" fill="white"/>
<path d="M186.155 94.6298C192.427 94.6298 197.512 89.5447 197.512 83.272C197.512 76.9993 192.427 71.9143 186.155 71.9143C179.882 71.9143 174.797 76.9993 174.797 83.272C174.797 89.5447 179.882 94.6298 186.155 94.6298Z" fill="#407BFF"/>
<path opacity="0.3" d="M186.153 83.272H197.527C197.528 85.7026 196.75 88.0695 195.307 90.0252C193.863 91.9808 191.831 93.4222 189.508 94.1375C187.185 94.8529 184.694 94.8046 182.401 93.9997C180.107 93.1948 178.133 91.6757 176.766 89.6655C175.4 87.6553 174.714 85.26 174.81 82.8313C174.905 80.4027 175.777 78.0686 177.297 76.1719C178.817 74.2752 180.905 72.9159 183.254 72.2935C185.604 71.6711 188.091 71.8185 190.351 72.7141L186.153 83.272Z" fill="white"/>
<path opacity="0.3" d="M186.152 83.2721L185.852 94.6244C184.192 94.5819 182.562 94.176 181.076 93.4356C179.591 92.6951 178.285 91.6379 177.252 90.3385C176.219 89.039 175.484 87.529 175.097 85.9145C174.711 84.3001 174.683 82.6206 175.016 80.9943C175.348 79.3679 176.033 77.8343 177.023 76.5013C178.012 75.1683 179.282 74.0684 180.742 73.279C182.202 72.4896 183.818 72.03 185.475 71.9324C187.132 71.8348 188.791 72.1016 190.334 72.7141L186.152 83.2721Z" fill="white"/>
<path d="M186.152 90.3572C190.065 90.3572 193.237 87.1851 193.237 83.272C193.237 79.359 190.065 76.1869 186.152 76.1869C182.239 76.1869 179.066 79.359 179.066 83.272C179.066 87.1851 182.239 90.3572 186.152 90.3572Z" fill="white"/>
<path d="M177.222 70.551H172.117V73.2241H177.222V70.551Z" fill="white"/>
<path d="M200.065 93.8516H194.961V96.5246H200.065V93.8516Z" fill="white"/>
<path d="M199.534 69.5741H194.43V72.2471H199.534V69.5741Z" fill="white"/>
<path d="M174.668 71.8875L179.069 76.7397" stroke="white" stroke-width="0.481435" stroke-miterlimit="10"/>
<path d="M196.983 71.12L193.988 77.5879" stroke="white" stroke-width="0.481435" stroke-miterlimit="10"/>
<path d="M197.51 95.188L193.527 89.2783" stroke="white" stroke-width="0.481435" stroke-miterlimit="10"/>
<path d="M179.414 76.7398C179.414 76.8309 179.377 76.9182 179.313 76.9827C179.249 77.0471 179.161 77.0833 179.07 77.0833C178.979 77.0833 178.892 77.0471 178.827 76.9827C178.763 76.9182 178.727 76.8309 178.727 76.7398C178.727 76.6487 178.763 76.5613 178.827 76.4969C178.892 76.4324 178.979 76.3962 179.07 76.3962C179.161 76.3962 179.249 76.4324 179.313 76.4969C179.377 76.5613 179.414 76.6487 179.414 76.7398Z" fill="white"/>
<path d="M193.992 77.9314C194.182 77.9314 194.335 77.7776 194.335 77.5879C194.335 77.3982 194.182 77.2444 193.992 77.2444C193.802 77.2444 193.648 77.3982 193.648 77.5879C193.648 77.7776 193.802 77.9314 193.992 77.9314Z" fill="white"/>
<path d="M193.871 89.2783C193.871 89.3694 193.834 89.4568 193.77 89.5212C193.706 89.5857 193.618 89.6219 193.527 89.6219C193.436 89.6219 193.349 89.5857 193.284 89.5212C193.22 89.4568 193.184 89.3694 193.184 89.2783C193.184 89.1872 193.22 89.0999 193.284 89.0354C193.349 88.971 193.436 88.9348 193.527 88.9348C193.618 88.9348 193.706 88.971 193.77 89.0354C193.834 89.0999 193.871 89.1872 193.871 89.2783Z" fill="white"/>
<path d="M197.785 116.293H156.712C155.957 116.293 155.344 116.906 155.344 117.662V147.828C155.344 148.583 155.957 149.196 156.712 149.196H197.785C198.541 149.196 199.154 148.583 199.154 147.828V117.662C199.154 116.906 198.541 116.293 197.785 116.293Z" fill="#FF6C37"/>
<path opacity="0.7" d="M197.785 116.293H156.712C155.957 116.293 155.344 116.906 155.344 117.662V147.828C155.344 148.583 155.957 149.196 156.712 149.196H197.785C198.541 149.196 199.154 148.583 199.154 147.828V117.662C199.154 116.906 198.541 116.293 197.785 116.293Z" fill="white"/>
<path opacity="0.1" d="M194.579 123.577V123.448H192.528V121.521H192.4V123.448H188.97V121.521H188.841V123.448H185.406V121.521H185.277V123.448H181.847V121.521H181.718V123.448H178.288V121.521H178.159V123.448H174.73V121.521H174.601V123.448H171.171V121.521H171.037V123.448H167.607V121.521H167.467V123.448H164.037V121.521H163.909V123.448H160.055V123.577H163.909V126.846H160.055V126.975H163.909V130.238H160.055V130.367H163.909V133.636H160.055V133.765H163.909V137.028H160.055V137.157H163.909V140.426H160.055V140.555H163.909V144.194H164.037V140.555H167.467V144.194H167.596V140.555H171.026V144.194H171.16V140.555H174.59V144.194H174.719V140.555H178.149V144.194H178.278V140.555H181.707V144.194H181.836V140.555H185.266V144.194H185.395V140.555H188.83V144.194H188.959V140.555H192.389V144.194H192.518V140.555H194.568V140.426H192.518V137.157H194.568V137.028H192.518V133.765H194.568V133.636H192.518V130.367H194.568V130.238H192.518V126.975H194.568V126.846H192.518V123.577H194.579ZM188.841 123.577V126.846H185.406V123.577H188.841ZM174.73 130.367H178.159V133.636H174.73V130.367ZM174.601 133.636H171.171V130.367H174.601V133.636ZM178.288 130.367H181.718V133.636H178.288V130.367ZM181.847 130.367H185.277V133.636H181.847V130.367ZM181.847 130.238V126.975H185.277V130.238H181.847ZM181.718 130.238H178.288V126.975H181.718V130.238ZM178.159 130.238H174.73V126.975H178.159V130.238ZM174.601 130.238H171.171V126.975H174.601V130.238ZM171.037 130.238H167.607V126.975H171.037V130.238ZM171.037 130.367V133.636H167.607V130.367H171.037ZM171.037 133.765V137.028H167.607V133.765H171.037ZM171.171 133.765H174.601V137.028H171.171V133.765ZM174.73 133.765H178.159V137.028H174.73V133.765ZM178.288 133.765H181.718V137.028H178.288V133.765ZM181.847 133.765H185.277V137.028H181.847V133.765ZM185.406 133.765H188.841V137.028H185.406V133.765ZM185.406 133.636V130.367H188.841V133.636H185.406ZM185.406 130.238V126.975H188.841V130.238H185.406ZM185.277 123.577V126.846H181.847V123.577H185.277ZM181.718 123.577V126.846H178.288V123.577H181.718ZM178.159 123.577V126.846H174.73V123.577H178.159ZM174.601 123.577V126.846H171.171V123.577H174.601ZM171.037 123.577V126.846H167.607V123.577H171.037ZM164.059 123.577H167.467V126.846H164.037L164.059 123.577ZM164.059 126.975H167.467V130.238H164.037L164.059 126.975ZM164.059 130.367H167.467V133.636H164.037L164.059 130.367ZM164.059 133.765H167.467V137.028H164.037L164.059 133.765ZM164.059 140.426V137.157H167.467V140.426H164.059ZM167.618 140.426V137.157H171.047V140.426H167.618ZM171.182 140.426V137.157H174.611V140.426H171.182ZM174.74 140.426V137.157H178.17V140.426H174.74ZM178.299 140.426V137.157H181.729V140.426H178.299ZM181.858 140.426V137.157H185.288V140.426H181.858ZM185.416 140.426V137.157H188.852V140.426H185.416ZM192.394 140.426H188.964V137.157H192.394V140.426ZM192.394 137.028H188.964V133.765H192.394V137.028ZM192.394 133.636H188.964V130.367H192.394V133.636ZM192.394 130.238H188.964V126.975H192.394V130.238ZM192.394 126.846H188.964V123.577H192.394V126.846Z" fill="black"/>
<path d="M164.787 142.449C164.787 142.616 164.738 142.779 164.645 142.917C164.552 143.056 164.421 143.164 164.267 143.228C164.113 143.292 163.943 143.308 163.78 143.276C163.616 143.243 163.466 143.163 163.348 143.045C163.231 142.927 163.15 142.777 163.118 142.614C163.085 142.45 163.102 142.281 163.166 142.127C163.229 141.973 163.338 141.841 163.476 141.749C163.615 141.656 163.778 141.607 163.944 141.607C164.168 141.607 164.382 141.695 164.54 141.853C164.698 142.011 164.787 142.226 164.787 142.449Z" fill="white"/>
<path d="M160.297 143.893L163.92 142.449L167.479 140.554L171.037 139.116L174.601 137.028L181.719 138.789L185.277 137.028L192.529 133.765" stroke="white" stroke-width="0.96287" stroke-miterlimit="10"/>
<path d="M194.435 143.893H159.922V121.307" stroke="#263238" stroke-width="0.96287" stroke-miterlimit="10"/>
<path d="M159.922 143.893L163.921 140.426L167.479 135.82L171.172 137.028L174.731 133.765L181.719 137.157L185.278 133.636L192.401 126.975" stroke="#FF6C37" stroke-width="0.96287" stroke-miterlimit="10"/>
<path d="M164.787 140.426C164.787 140.592 164.738 140.755 164.645 140.894C164.552 141.032 164.421 141.14 164.267 141.204C164.113 141.268 163.943 141.285 163.78 141.252C163.616 141.22 163.466 141.139 163.348 141.022C163.231 140.904 163.15 140.754 163.118 140.59C163.085 140.427 163.102 140.257 163.166 140.103C163.229 139.949 163.338 139.818 163.476 139.725C163.615 139.632 163.778 139.583 163.944 139.583C164.168 139.583 164.382 139.672 164.54 139.83C164.698 139.988 164.787 140.202 164.787 140.426Z" fill="white" stroke="#FF6C37" stroke-width="0.96287" stroke-miterlimit="10"/>
<path d="M168.322 140.426C168.322 140.592 168.273 140.754 168.181 140.893C168.089 141.031 167.958 141.139 167.804 141.203C167.651 141.267 167.482 141.285 167.319 141.253C167.156 141.221 167.006 141.142 166.887 141.025C166.769 140.908 166.688 140.759 166.654 140.597C166.621 140.434 166.636 140.265 166.698 140.111C166.76 139.956 166.866 139.824 167.003 139.73C167.141 139.636 167.302 139.585 167.469 139.583C167.58 139.582 167.691 139.602 167.794 139.644C167.898 139.686 167.992 139.748 168.072 139.826C168.151 139.904 168.214 139.998 168.257 140.101C168.3 140.204 168.322 140.314 168.322 140.426Z" fill="white"/>
<path d="M171.038 139.959C171.503 139.959 171.881 139.581 171.881 139.116C171.881 138.651 171.503 138.273 171.038 138.273C170.573 138.273 170.195 138.651 170.195 139.116C170.195 139.581 170.573 139.959 171.038 139.959Z" fill="white"/>
<path d="M175.447 137.157C175.447 137.324 175.398 137.487 175.305 137.625C175.213 137.764 175.081 137.872 174.927 137.935C174.773 137.999 174.603 138.016 174.44 137.983C174.277 137.951 174.126 137.871 174.009 137.753C173.891 137.635 173.81 137.485 173.778 137.321C173.745 137.158 173.762 136.988 173.826 136.834C173.89 136.68 173.998 136.549 174.136 136.456C174.275 136.364 174.438 136.314 174.604 136.314C174.828 136.314 175.042 136.403 175.2 136.561C175.358 136.719 175.447 136.933 175.447 137.157Z" fill="white"/>
<path d="M182.564 138.794C182.563 138.96 182.513 139.123 182.42 139.261C182.326 139.399 182.194 139.506 182.04 139.569C181.886 139.632 181.717 139.648 181.554 139.614C181.391 139.581 181.241 139.501 181.124 139.383C181.007 139.265 180.927 139.114 180.895 138.951C180.863 138.788 180.88 138.619 180.944 138.465C181.008 138.311 181.116 138.18 181.254 138.088C181.392 137.995 181.555 137.946 181.722 137.946C181.833 137.946 181.943 137.968 182.045 138.011C182.148 138.053 182.241 138.116 182.319 138.195C182.398 138.273 182.46 138.367 182.502 138.47C182.544 138.573 182.565 138.683 182.564 138.794Z" fill="white"/>
<path d="M186.126 137.157C186.127 137.325 186.078 137.489 185.986 137.63C185.893 137.77 185.761 137.879 185.606 137.944C185.451 138.009 185.28 138.027 185.116 137.995C184.951 137.963 184.799 137.882 184.68 137.764C184.561 137.645 184.48 137.494 184.446 137.33C184.413 137.165 184.43 136.994 184.494 136.839C184.558 136.684 184.666 136.551 184.806 136.458C184.946 136.364 185.11 136.314 185.278 136.314C185.502 136.314 185.717 136.403 185.876 136.561C186.034 136.719 186.124 136.933 186.126 137.157Z" fill="white"/>
<path d="M193.232 133.765C193.232 133.931 193.183 134.094 193.09 134.233C192.998 134.371 192.866 134.479 192.712 134.543C192.558 134.607 192.389 134.624 192.225 134.591C192.062 134.559 191.912 134.478 191.794 134.36C191.676 134.243 191.596 134.092 191.563 133.929C191.531 133.766 191.547 133.596 191.611 133.442C191.675 133.288 191.783 133.156 191.921 133.064C192.06 132.971 192.223 132.922 192.39 132.922C192.613 132.922 192.827 133.011 192.985 133.169C193.143 133.327 193.232 133.541 193.232 133.765Z" fill="white"/>
<path d="M168.322 135.826C168.322 135.992 168.273 136.155 168.18 136.294C168.088 136.433 167.956 136.541 167.802 136.604C167.648 136.668 167.478 136.685 167.315 136.652C167.152 136.62 167.001 136.539 166.884 136.422C166.766 136.304 166.685 136.154 166.653 135.99C166.62 135.827 166.637 135.657 166.701 135.503C166.765 135.349 166.873 135.218 167.011 135.125C167.15 135.032 167.313 134.983 167.479 134.983C167.703 134.983 167.917 135.072 168.075 135.23C168.233 135.388 168.322 135.602 168.322 135.826Z" fill="white" stroke="#FF6C37" stroke-width="0.96287" stroke-miterlimit="10"/>
<path d="M172.016 137.028C172.018 137.196 171.969 137.361 171.876 137.501C171.783 137.641 171.651 137.751 171.495 137.816C171.34 137.881 171.169 137.898 171.004 137.865C170.839 137.833 170.688 137.752 170.569 137.633C170.45 137.514 170.369 137.363 170.336 137.197C170.304 137.032 170.321 136.862 170.386 136.706C170.451 136.551 170.56 136.419 170.701 136.326C170.841 136.233 171.006 136.184 171.174 136.185C171.397 136.187 171.61 136.276 171.768 136.434C171.926 136.591 172.015 136.805 172.016 137.028Z" fill="white" stroke="#FF6C37" stroke-width="0.96287" stroke-miterlimit="10"/>
<path d="M175.572 133.765C175.572 133.931 175.523 134.094 175.43 134.233C175.338 134.371 175.206 134.479 175.052 134.543C174.898 134.607 174.728 134.624 174.565 134.591C174.402 134.559 174.251 134.478 174.134 134.36C174.016 134.243 173.935 134.092 173.903 133.929C173.87 133.766 173.887 133.596 173.951 133.442C174.015 133.288 174.123 133.156 174.261 133.064C174.4 132.971 174.563 132.922 174.729 132.922C174.953 132.922 175.167 133.011 175.325 133.169C175.483 133.327 175.572 133.541 175.572 133.765Z" fill="white" stroke="#FF6C37" stroke-width="0.96287" stroke-miterlimit="10"/>
<path d="M182.564 137.157C182.564 137.324 182.515 137.487 182.422 137.625C182.33 137.764 182.198 137.872 182.044 137.935C181.89 137.999 181.721 138.016 181.557 137.983C181.394 137.951 181.244 137.871 181.126 137.753C181.008 137.635 180.928 137.485 180.895 137.321C180.863 137.158 180.879 136.988 180.943 136.834C181.007 136.68 181.115 136.549 181.253 136.456C181.392 136.364 181.555 136.314 181.722 136.314C181.945 136.314 182.159 136.403 182.317 136.561C182.476 136.719 182.564 136.933 182.564 137.157Z" fill="white" stroke="#FF6C37" stroke-width="0.96287" stroke-miterlimit="10"/>
<path d="M186.126 133.636C186.127 133.804 186.078 133.968 185.986 134.108C185.893 134.248 185.761 134.358 185.606 134.423C185.451 134.488 185.28 134.506 185.116 134.473C184.951 134.441 184.799 134.361 184.68 134.243C184.561 134.124 184.48 133.973 184.446 133.808C184.413 133.644 184.43 133.473 184.494 133.318C184.558 133.162 184.666 133.03 184.806 132.936C184.946 132.843 185.11 132.793 185.278 132.793C185.389 132.792 185.499 132.814 185.602 132.856C185.705 132.898 185.798 132.96 185.877 133.038C185.956 133.116 186.018 133.209 186.061 133.312C186.104 133.415 186.126 133.525 186.126 133.636Z" fill="white" stroke="#FF6C37" stroke-width="0.96287" stroke-miterlimit="10"/>
<path d="M193.232 126.975C193.232 127.141 193.183 127.304 193.09 127.443C192.998 127.581 192.866 127.689 192.712 127.753C192.558 127.817 192.389 127.834 192.225 127.801C192.062 127.769 191.912 127.688 191.794 127.571C191.676 127.453 191.596 127.303 191.563 127.139C191.531 126.976 191.547 126.806 191.611 126.652C191.675 126.498 191.783 126.367 191.921 126.274C192.06 126.181 192.223 126.132 192.39 126.132C192.613 126.132 192.827 126.221 192.985 126.379C193.143 126.537 193.232 126.751 193.232 126.975Z" fill="white" stroke="#FF6C37" stroke-width="0.96287" stroke-miterlimit="10"/>
<path d="M154.929 53.4929H113.857C113.101 53.4929 112.488 54.1057 112.488 54.8616V85.0272C112.488 85.7832 113.101 86.396 113.857 86.396H154.929C155.685 86.396 156.298 85.7832 156.298 85.0272V54.8616C156.298 54.1057 155.685 53.4929 154.929 53.4929Z" fill="#FF6C37"/>
<path opacity="0.7" d="M154.929 53.4929H113.857C113.101 53.4929 112.488 54.1057 112.488 54.8616V85.0272C112.488 85.7832 113.101 86.396 113.857 86.396H154.929C155.685 86.396 156.298 85.7832 156.298 85.0272V54.8616C156.298 54.1057 155.685 53.4929 154.929 53.4929Z" fill="white"/>
<path opacity="0.1" d="M151.72 60.7767V60.6479H149.669V58.7209H149.541V60.6479H146.111V58.7209H145.998V60.6479H142.568V58.7209H142.434V60.6479H139.004V58.7209H138.875V60.6479H135.445V58.7209H135.317V60.6479H131.887V58.7209H131.758V60.6479H128.328V58.7209H128.199V60.6479H124.764V58.7209H124.635V60.6479H121.205V58.7209H121.077V60.6479H117.223V60.7767H121.077V64.0402H117.223V64.169H121.077V67.4378H117.223V67.5667H121.077V70.8301H117.223V70.9643H121.077V74.2278H117.223V74.3566H121.077V77.6254H117.223V77.7542H121.077V81.3934H121.205V77.7542H124.635V81.3934H124.764V77.7542H128.199V81.3934H128.328V77.7542H131.758V81.3934H131.887V77.7542H135.317V81.3934H135.445V77.7542H138.875V81.3934H139.004V77.7542H142.434V81.3934H142.568V77.7542H145.998V81.3934H146.127V77.7542H149.557V81.3934H149.686V77.7542H151.736V77.6254H149.686V74.3566H151.736V74.2278H149.686V70.9643H151.736V70.8301H149.686V67.5667H151.736V67.4378H149.686V64.169H151.736V64.0402H149.686V60.7767H151.72ZM145.982 60.7767V64.0402H142.552V60.7767H145.982ZM131.871 67.5667H135.301V70.8301H131.871V67.5667ZM131.742 70.8301H128.312V67.5667H131.742V70.8301ZM135.429 67.5667H138.859V70.8301H135.429V67.5667ZM138.988 67.5667H142.418V70.8301H138.988V67.5667ZM138.988 67.4378V64.169H142.418V67.4378H138.988ZM138.859 67.4378H135.429V64.169H138.859V67.4378ZM135.301 67.4378H131.871V64.169H135.301V67.4378ZM131.742 67.4378H128.312V64.169H131.742V67.4378ZM128.183 67.4378H124.748V64.169H128.183V67.4378ZM128.183 67.5667V70.8301H124.748V67.5667H128.183ZM128.183 70.9643V74.2278H124.748V70.9643H128.183ZM128.312 70.9643H131.742V74.2278H128.312V70.9643ZM131.871 70.9643H135.301V74.2278H131.871V70.9643ZM135.429 70.9643H138.859V74.2278H135.429V70.9643ZM138.988 70.9643H142.418V74.2278H138.988V70.9643ZM142.552 70.9643H145.998V74.2278H142.568L142.552 70.9643ZM142.552 70.8301V67.5667H145.998V70.8301H142.552ZM142.552 67.4378V64.169H145.998V67.4378H142.552ZM142.418 60.7767V64.0402H138.988V60.7767H142.418ZM138.859 60.7767V64.0402H135.429V60.7767H138.859ZM135.301 60.7767V64.0402H131.871V60.7767H135.301ZM131.742 60.7767V64.0402H128.312V60.7767H131.742ZM128.183 60.7767V64.0402H124.748V60.7767H128.183ZM121.205 60.7767H124.635V64.0402H121.205V60.7767ZM121.205 64.169H124.635V67.4378H121.205V64.169ZM121.205 67.5667H124.635V70.8301H121.205V67.5667ZM121.205 70.9643H124.635V74.2278H121.205V70.9643ZM121.205 77.6254V74.3566H124.635V77.6254H121.205ZM124.764 77.6254V74.3566H128.199V77.6254H124.764ZM128.328 77.6254V74.3566H131.758V77.6254H128.328ZM131.887 77.6254V74.3566H135.317V77.6254H131.887ZM135.445 77.6254V74.3566H138.875V77.6254H135.445ZM139.004 77.6254V74.3566H142.434V77.6254H139.004ZM142.568 77.6254V74.3566H145.998V77.6254H142.568ZM149.546 77.6254H146.116V74.3566H149.546V77.6254ZM149.546 74.2278H146.116V70.9643H149.546V74.2278ZM149.546 70.8301H146.116V67.5667H149.546V70.8301ZM149.546 67.4378H146.116V64.169H149.546V67.4378ZM149.546 64.0402H146.116V60.7767H149.546V64.0402Z" fill="black"/>
<path d="M122.133 79.0425H119.406V81.0875H122.133V79.0425Z" fill="#FF6C37"/>
<path d="M127.414 75.269H124.688V81.0928H127.414V75.269Z" fill="#FF6C37"/>
<path d="M132.692 71.0717H129.965V81.0929H132.692V71.0717Z" fill="#FF6C37"/>
<path d="M137.973 72.8859H135.246V81.0928H137.973V72.8859Z" fill="#FF6C37"/>
<path d="M143.25 69.5902H140.523V81.0929H143.25V69.5902Z" fill="#FF6C37"/>
<path d="M148.527 61.5603H145.801V81.0874H148.527V61.5603Z" fill="#FF6C37"/>
<path d="M151.576 81.0928H117.062V58.5009" stroke="#263238" stroke-width="0.96287" stroke-miterlimit="10"/>
<path d="M228.415 51.503C232.179 47.7383 232.179 41.6345 228.415 37.8698C224.65 34.1051 218.546 34.1051 214.781 37.8698C211.017 41.6345 211.017 47.7383 214.781 51.503C218.546 55.2677 224.65 55.2677 228.415 51.503Z" fill="#FF6C37"/>
<path d="M223.026 42.6397C223.026 41.8292 222.328 41.2764 221.212 41.2764C220.757 41.2509 220.303 41.3397 219.892 41.5347C219.48 41.7297 219.124 42.0247 218.856 42.3928L217.449 41.4803C218.26 40.4068 219.564 39.7144 221.373 39.7144C223.52 39.7144 224.921 40.6859 224.921 42.3499C224.921 44.7116 222.446 44.9263 222.446 46.6439H220.605C220.605 44.4915 223.026 44.089 223.026 42.6397ZM220.375 48.9681C220.369 48.739 220.432 48.5135 220.555 48.3203C220.679 48.1272 220.857 47.9751 221.067 47.8835C221.277 47.7919 221.509 47.7648 221.735 47.8059C221.96 47.8469 222.168 47.9541 222.333 48.1138C222.497 48.2735 222.61 48.4786 222.657 48.7028C222.705 48.927 222.684 49.1602 222.599 49.3727C222.513 49.5852 222.366 49.7674 222.176 49.8961C221.987 50.0248 221.763 50.0941 221.534 50.0952C221.383 50.1018 221.232 50.0775 221.09 50.0236C220.949 49.9697 220.82 49.8874 220.711 49.7819C220.602 49.6763 220.517 49.5497 220.459 49.4097C220.401 49.2698 220.372 49.1195 220.375 48.9681Z" fill="white"/>
<path d="M221.598 51.5659L220.277 53.3533L221.598 57.2877L222.918 53.3533L221.598 51.5659Z" fill="#FF6C37"/>
<path d="M212.955 92.1177C212.955 92.1177 212.3 92.896 211.345 93.9856C210.476 94.9464 209.359 96.1326 208.216 97.2652C206.139 99.2887 203.97 101.022 203.09 100.486C201.399 99.482 202.338 96.7875 202.338 96.7875C202.338 96.7875 208.243 85.9611 211.882 84.2757C214.222 83.2022 217.716 83.6692 217.716 83.6692C218.081 84.7051 212.955 92.1177 212.955 92.1177Z" fill="#FF6C37"/>
<path opacity="0.2" d="M211.328 93.9857C210.459 94.9465 209.343 96.1327 208.199 97.2652C208.736 92.1124 211.194 89.1281 211.194 89.1281C211.645 89.9332 211.613 91.8494 211.328 93.9857Z" fill="black"/>
<path d="M230.225 88.0545C232.093 85.9612 230.955 82.1502 231.54 74.6088C232.125 67.0674 227.375 66.0207 227.375 66.0207C227.375 66.0207 226.72 62.2635 223.204 62.4621C219.689 62.6607 212.807 64.287 212.738 72.392C212.668 80.497 211.557 81.6188 209.683 83.2559C207.81 84.893 211.702 88.1994 210.956 89.7453C210.956 89.7453 218.202 92.8746 228.379 92.2466C228.379 92.2466 228.014 90.5289 230.225 88.0545Z" fill="black"/>
<path d="M231.153 187.016L230.734 187.596L229.897 187.241L229.36 189.802L225.834 194.692C225.834 194.692 224.486 194.906 225.549 192.126C225.601 191.989 225.637 191.847 225.656 191.702C225.973 190.043 225.281 186.871 225.281 186.871L227.218 184.187C227.398 184.193 227.578 184.213 227.755 184.246C228.576 184.364 230.181 184.751 231.153 187.016Z" fill="#FF6C37"/>
<path opacity="0.2" d="M231.153 187.016L230.734 187.596L229.897 187.241L229.36 189.802L225.834 194.692C225.834 194.692 224.486 194.906 225.549 192.126C225.601 191.989 225.637 191.847 225.656 191.702C225.973 190.043 225.281 186.871 225.281 186.871L227.218 184.187C227.398 184.193 227.578 184.213 227.755 184.246C228.576 184.364 230.181 184.751 231.153 187.016Z" fill="black"/>
<path d="M227.777 184.23C227.127 184.3 227.696 187.166 227.439 188.771C227.203 190.204 226.58 191.557 225.662 191.696C225.973 190.038 224.852 186.281 224.852 186.281L226.408 184.134C226.408 184.134 227.433 184.171 227.777 184.23Z" fill="#EBB376"/>
<path opacity="0.2" d="M227.777 184.23C227.127 184.3 227.696 187.166 227.439 188.771C227.203 190.204 226.58 191.557 225.662 191.696C225.973 190.038 224.852 186.281 224.852 186.281L226.408 184.134C226.408 184.134 227.433 184.171 227.777 184.23Z" fill="black"/>
<path d="M225.749 194.509H225.03L224.831 193.618L222.453 194.691H216.42C216.42 194.691 215.459 193.725 218.331 192.958C218.472 192.919 218.608 192.867 218.739 192.802C220.269 192.083 222.453 189.657 222.453 189.657H225.76C225.862 189.809 225.953 189.969 226.033 190.134C226.393 190.864 227.048 192.394 225.749 194.509Z" fill="#FF6C37"/>
<path d="M226.033 190.14C225.593 189.651 223.607 191.793 222.147 192.518C220.848 193.167 219.388 193.452 218.738 192.797C220.268 192.078 222.678 188.943 222.678 188.943H225.362C225.362 188.943 225.877 189.829 226.033 190.14Z" fill="#EBB376"/>
<path d="M207.513 155.385C209.124 158.364 210.761 161.568 212.344 164.778C214.411 169.019 216.354 173.264 218.018 177.064C219.773 181.069 221.195 184.579 222.086 187C222.929 187.091 225.468 185.577 226.203 184.203C224.902 176.388 222.927 168.7 220.299 161.225C218.656 156.732 216.644 152.32 214.228 148.745C224.104 120.657 221.684 110.126 221.684 110.126L210.24 109.616C210.24 109.616 208.512 120.077 207.127 130.807C206.408 136.432 205.78 142.133 205.549 146.437V146.475C205.366 149.57 206.046 152.654 207.513 155.385Z" fill="black"/>
<path opacity="0.2" d="M216.945 140.388C218.394 135.616 219.441 131.478 220.165 127.935C219.435 125.16 218.394 122.788 216.982 121.36C216.993 121.36 214.959 129.084 216.945 140.388Z" fill="black"/>
<path opacity="0.2" d="M218.004 177.064C219.759 181.069 221.182 184.579 222.073 187C222.915 187.091 225.454 185.577 226.189 184.203C224.888 176.388 222.913 168.699 220.285 161.225C219.432 165.884 218.492 171.751 218.004 177.064Z" fill="black"/>
<path d="M214.574 108.344C214.574 108.344 217.907 134.108 219.813 146.518C221.82 159.545 222.073 180.446 221.573 188.964C222.303 189.388 224.96 189.898 226.404 189.453C226.404 189.453 233.194 163.109 228.685 147.806C232.792 117.667 226.85 110.287 226.85 110.287L214.574 108.344Z" fill="black"/>
<path opacity="0.7" d="M215.682 92.1178C219.03 89.0979 222.743 86.5086 226.734 84.41L225.622 84.3026C223.088 84.0342 220.537 83.9481 217.99 84.045C217.362 84.0825 216.712 84.1308 216.074 84.1845C214.495 87.8076 215.682 92.1178 215.682 92.1178Z" fill="white"/>
<path d="M226.735 108.344C227.079 104.436 228.48 97.2706 230.89 89.7453C231.673 87.2977 230.353 84.5334 230.353 84.5334C230.353 84.5334 227.068 84.4475 226.74 84.41L225.629 84.3026C223.095 84.0342 220.544 83.9481 217.997 84.045C217.369 84.0825 216.719 84.1308 216.081 84.1845C215.877 84.1845 213.569 84.2275 213.37 84.2489C213.37 84.2489 210.176 87.8989 209.983 90.8564C209.743 93.1328 209.655 95.4226 209.72 97.7107C209.72 100.395 209.929 103.937 210.106 107.71L226.735 108.344Z" fill="#FF6C37"/>
<path opacity="0.8" d="M226.735 108.344C227.079 104.436 228.48 97.2706 230.89 89.7453C231.673 87.2977 230.353 84.5334 230.353 84.5334C230.353 84.5334 227.068 84.4475 226.74 84.41L225.629 84.3026C223.095 84.0342 220.544 83.9481 217.997 84.045C217.369 84.0825 216.719 84.1308 216.081 84.1845C215.877 84.1845 213.569 84.2275 213.37 84.2489C213.37 84.2489 210.176 87.8989 209.983 90.8564C209.743 93.1328 209.655 95.4226 209.72 97.7107C209.72 100.395 209.929 103.937 210.106 107.71L226.735 108.344Z" fill="white"/>
<path d="M226.734 108.344L210.094 107.222C210.094 107.222 209.595 112.219 209.708 112.149C209.821 112.08 227.539 112.772 227.539 112.772L226.734 108.344Z" fill="black"/>
<path d="M226.584 108.618L210.105 107.705V109.267L226.734 110.153L226.584 108.618Z" fill="black"/>
<path d="M217.621 109.487L217.691 108.569C217.695 108.528 217.691 108.486 217.679 108.446C217.666 108.406 217.646 108.369 217.619 108.338C217.592 108.306 217.558 108.28 217.521 108.262C217.483 108.244 217.443 108.233 217.401 108.231L215.597 108.086C215.554 108.083 215.51 108.089 215.469 108.104C215.428 108.118 215.39 108.141 215.358 108.171C215.326 108.2 215.3 108.236 215.282 108.276C215.264 108.316 215.255 108.359 215.254 108.403V109.369C215.255 109.45 215.287 109.527 215.342 109.586C215.398 109.645 215.474 109.68 215.554 109.686L217.288 109.777C217.37 109.781 217.451 109.754 217.513 109.7C217.576 109.645 217.614 109.569 217.621 109.487Z" stroke="white" stroke-width="0.5" stroke-miterlimit="10"/>
<path d="M225.382 119.782L231.136 118.741L227.786 106.358C227.786 106.358 228.645 103.288 229.59 99.7611C230.046 98.0435 230.529 96.2239 230.932 94.6029C231.387 92.9904 231.745 91.3521 232.005 89.6969C232.112 87.7271 230.352 84.5334 230.352 84.5334L226.197 83.8571C226.197 83.8571 222.408 88.0384 222.161 96.0575C221.914 104.077 225.382 119.782 225.382 119.782Z" fill="#FF6C37"/>
<path d="M216.696 83.8624C216.696 83.8624 213.084 90.1532 212.252 94.8015C211.42 99.4498 209.128 119.229 209.128 119.229L207.883 118.601L209.617 106.793C209.617 106.793 208.994 93.1161 209.477 90.3088C209.96 87.5016 213.105 83.8678 213.105 83.8678L216.696 83.8624Z" fill="#FF6C37"/>
<path d="M218.487 83.5619L218.24 83.3418C218.24 83.3418 214.703 83.7605 211.482 87.8022L212.733 89.026L210.586 90.7436L211.606 99.0365C211.606 99.0365 214.853 87.9847 216.259 85.3278C216.913 84.6352 217.663 84.0404 218.487 83.5619Z" fill="#FF6C37"/>
<path opacity="0.2" d="M218.487 83.5619L218.24 83.3579C218.24 83.3579 214.703 83.7605 211.482 87.8022L212.733 89.026L210.586 90.7436L211.606 99.0365C211.606 99.0365 214.853 87.9847 216.259 85.3278C216.913 84.6352 217.663 84.0405 218.487 83.5619Z" fill="black"/>
<path d="M225.383 83.8624C225.383 83.8624 221.363 88.296 222.254 99.965L226.188 91.5863L224.766 89.2944L228.094 86.1705C228.094 86.1705 226.349 82.8587 225.115 83.1915L225.383 83.8624Z" fill="#FF6C37"/>
<path opacity="0.2" d="M225.383 83.8624C225.383 83.8624 221.363 88.296 222.254 99.965L226.188 91.5863L224.766 89.2944L228.094 86.1705C228.094 86.1705 226.349 82.8587 225.115 83.1915L225.383 83.8624Z" fill="black"/>
<path d="M217.008 85.1184L217.931 90.647L225.199 84.2972C223.664 82.6064 224.63 78.1352 225.381 75.7091L223.32 77.255L220.261 79.5415C220.317 80.1735 220.266 80.8105 220.11 81.4255C219.879 82.4024 219.466 83.3149 219.005 83.5081L217.008 85.1184Z" fill="#EBB376"/>
<path opacity="0.2" d="M220.113 81.4041C221.337 81.1304 222.937 79.869 223.194 78.6237C223.29 78.1668 223.333 77.7003 223.323 77.2335L220.264 79.5201C220.32 80.1521 220.269 80.7891 220.113 81.4041Z" fill="black"/>
<path d="M224.846 82.891C224.846 82.891 221.733 85.2956 218.083 90.3626C218.083 90.3626 217.756 85.301 219.012 83.4922L218.749 83.1808C216.837 84.0134 215.173 85.3262 213.918 86.9918L216.328 86.2296L217.976 90.69L222.935 86.5946L226.274 87.1743C226.274 87.1743 226.129 83.8786 224.846 82.891Z" fill="#FF6C37"/>
<path opacity="0.7" d="M224.846 82.891C224.846 82.891 221.733 85.2956 218.083 90.3626C218.083 90.3626 217.756 85.301 219.012 83.4922L218.749 83.1808C216.837 84.0134 215.173 85.3262 213.918 86.9918L216.328 86.2296L217.976 90.69L222.935 86.5946L226.274 87.1743C226.274 87.1743 226.129 83.8786 224.846 82.891Z" fill="white"/>
<path opacity="0.2" d="M228.827 98.7896C228.969 99.1833 229.237 99.5192 229.589 99.745C230.046 98.0274 230.529 96.2078 230.931 94.5868C229.858 93.304 228.967 92.2305 228.967 92.2305C228.967 92.2305 227.743 96.0522 228.827 98.7896Z" fill="black"/>
<path d="M230.342 84.5334C232.624 84.8072 239.596 102.128 239.183 104.866C238.769 107.603 223.762 106.358 223.762 106.358V102.193L232.516 100.427L229.489 94.4956C228.951 92.7692 228.728 90.9603 228.829 89.1549C229.013 87.5274 229.528 85.9548 230.342 84.5334Z" fill="#FF6C37"/>
<path d="M217.217 109.852L228.725 108.457C228.829 108.447 228.929 108.416 229.02 108.366C229.111 108.316 229.191 108.248 229.255 108.166C229.319 108.084 229.365 107.99 229.391 107.89C229.418 107.789 229.423 107.684 229.407 107.582L227.389 92.778C227.351 92.5671 227.233 92.3789 227.06 92.2521C226.888 92.1253 226.673 92.0695 226.46 92.0963L214.952 93.4919C214.849 93.5023 214.748 93.5337 214.657 93.5842C214.566 93.6347 214.486 93.7032 214.422 93.7856C214.359 93.8679 214.312 93.9624 214.286 94.0632C214.26 94.1641 214.255 94.2692 214.271 94.3721L216.31 109.17C216.346 109.378 216.46 109.565 216.628 109.692C216.797 109.818 217.008 109.876 217.217 109.852Z" fill="black"/>
<path opacity="0.6" d="M217.217 109.852L228.725 108.457C228.829 108.447 228.929 108.416 229.02 108.366C229.111 108.316 229.191 108.248 229.255 108.166C229.319 108.084 229.365 107.99 229.391 107.89C229.418 107.789 229.423 107.684 229.407 107.582L227.389 92.778C227.351 92.5671 227.233 92.3789 227.06 92.2521C226.888 92.1253 226.673 92.0695 226.46 92.0963L214.952 93.4919C214.849 93.5023 214.748 93.5337 214.657 93.5842C214.566 93.6347 214.486 93.7032 214.422 93.7856C214.359 93.8679 214.312 93.9624 214.286 94.0632C214.26 94.1641 214.255 94.2692 214.271 94.3721L216.31 109.17C216.346 109.378 216.46 109.565 216.628 109.692C216.797 109.818 217.008 109.876 217.217 109.852Z" fill="white"/>
<path opacity="0.2" d="M217.702 109.793L228.727 108.451C228.83 108.441 228.93 108.411 229.022 108.361C229.113 108.311 229.192 108.243 229.256 108.161C229.32 108.079 229.367 107.985 229.393 107.884C229.419 107.784 229.424 107.679 229.408 107.576L227.39 92.7726C227.352 92.5617 227.234 92.3735 227.062 92.2467C226.889 92.1199 226.674 92.0641 226.462 92.0909L215.437 93.4221C215.333 93.4325 215.233 93.4639 215.142 93.5144C215.05 93.5649 214.971 93.6334 214.907 93.7158C214.843 93.7982 214.797 93.8926 214.771 93.9935C214.744 94.0943 214.739 94.1994 214.755 94.3023L216.773 109.101C216.809 109.313 216.925 109.504 217.098 109.633C217.271 109.762 217.488 109.82 217.702 109.793Z" fill="white"/>
<path d="M222.109 99.7128C222.44 99.6696 222.776 99.7576 223.044 99.9581C223.311 100.159 223.49 100.456 223.542 100.786C223.565 100.947 223.555 101.11 223.513 101.267C223.471 101.423 223.398 101.569 223.297 101.696C223.197 101.823 223.072 101.929 222.929 102.006C222.786 102.083 222.63 102.13 222.468 102.144C222.137 102.185 221.803 102.096 221.536 101.896C221.269 101.696 221.089 101.4 221.035 101.071C221.197 101.057 221.354 101.011 221.497 100.934C221.64 100.857 221.766 100.752 221.866 100.624C221.967 100.497 222.04 100.351 222.082 100.194C222.124 100.037 222.133 99.8732 222.109 99.7128Z" fill="black"/>
<path opacity="0.3" d="M218.201 94.2916L224.277 93.5563C224.421 93.5395 224.556 93.4791 224.664 93.3831C224.773 93.2871 224.849 93.1602 224.883 93.0195L225.071 92.252L217.047 93.2288L217.455 93.9213C217.531 94.0478 217.641 94.1499 217.774 94.2155C217.906 94.2812 218.054 94.3076 218.201 94.2916Z" fill="black"/>
<path d="M217.33 101.683L220.755 102.66L221.474 104.93C221.147 106.771 217.604 106.004 217.604 106.004L216.874 106.46C216.738 106.545 216.583 106.595 216.423 106.606C216.263 106.618 216.102 106.589 215.956 106.524C215.809 106.459 215.68 106.359 215.581 106.233C215.482 106.106 215.416 105.958 215.387 105.8L215.012 103.653C214.98 103.477 214.997 103.296 215.061 103.129C215.126 102.962 215.235 102.817 215.377 102.708L216.45 101.86C216.572 101.762 216.715 101.694 216.869 101.664C217.022 101.633 217.18 101.639 217.33 101.683Z" fill="#EBB376"/>
<path d="M237.318 97.7161C238.52 101.006 239.331 103.883 239.181 104.866C238.762 107.603 221.194 105.939 221.194 105.939L220.754 102.681L232.514 100.448L237.318 97.7161Z" fill="#FF6C37"/>
<path d="M220.385 66.5844C216.445 66.8581 215.318 69.0534 215.312 73.1381C215.312 78.2427 216.676 81.7745 221.533 80.3467C228.119 78.393 226.933 66.1389 220.385 66.5844Z" fill="#EBB376"/>
<path d="M217.848 72.7462C217.572 73.3576 217.224 73.9342 216.812 74.4638C216.94 74.6183 217.108 74.7349 217.297 74.8012C217.486 74.8674 217.69 74.8807 217.886 74.8396L217.848 72.7462Z" fill="#D58745"/>
<path d="M220.235 72.2579C220.235 72.5853 220.439 72.8376 220.654 72.8268C220.868 72.8161 221.035 72.5477 221.019 72.2257C221.002 71.9036 220.82 71.646 220.6 71.6513C220.38 71.6567 220.224 71.9519 220.235 72.2579Z" fill="black"/>
<path d="M220.69 71.6674L219.977 71.4205C219.977 71.4205 220.352 72.0002 220.69 71.6674Z" fill="black"/>
<path d="M216.204 72.3759C216.204 72.698 216.403 72.9556 216.618 72.9449C216.832 72.9341 216.999 72.6658 216.983 72.3383C216.966 72.0109 216.784 71.7586 216.564 71.7694C216.344 71.7801 216.188 72.0485 216.204 72.3759Z" fill="black"/>
<path d="M216.655 71.7801L215.941 71.5386C215.941 71.5386 216.312 72.1129 216.655 71.7801Z" fill="black"/>
<path d="M220.07 69.5312C220.379 69.4717 220.697 69.4838 221.001 69.5666C221.304 69.6494 221.584 69.8007 221.82 70.0089" stroke="black" stroke-width="0.7" stroke-linecap="round" stroke-linejoin="round"/>
<path d="M217.211 69.5633C216.937 69.5138 216.655 69.5273 216.386 69.6026C216.117 69.6779 215.869 69.8131 215.66 69.9981" stroke="black" stroke-width="0.7" stroke-linecap="round" stroke-linejoin="round"/>
<path d="M225.159 72.9395C225.159 72.9395 223.092 69.8263 223.194 67.3036C223.194 67.3036 215.143 64.652 215.325 72.6121C215.325 72.6121 214.075 65.6343 220.843 64.9955C227.612 64.3568 228.267 74.2867 224.971 77.4858C224.971 77.4858 226.436 74.8879 225.159 72.9395Z" fill="black"/>
<path d="M220.632 75.3763C220.461 75.8091 220.139 76.1652 219.725 76.3784C219.311 76.5917 218.835 76.6475 218.383 76.5357" stroke="black" stroke-width="0.5" stroke-linecap="round" stroke-linejoin="round"/>
<path d="M225.84 72.2418H221.906C221.896 72.1192 221.87 71.9984 221.83 71.8822C221.66 71.42 221.326 71.0364 220.892 70.8039C220.458 70.5715 219.953 70.5063 219.474 70.6208C219.113 70.6898 218.786 70.8762 218.542 71.151C218.298 71.4257 218.152 71.7734 218.127 72.1398C217.992 72.0298 217.823 71.9726 217.649 71.9788C217.569 71.9832 217.493 72.0112 217.429 72.0593C217.42 71.9661 217.4 71.8743 217.37 71.7855C217.201 71.3224 216.867 70.9376 216.433 70.7041C215.998 70.4706 215.493 70.4046 215.014 70.5188C214.785 70.5603 214.568 70.6496 214.376 70.7809C214.185 70.9122 214.023 71.0826 213.902 71.2807C213.781 71.4789 213.703 71.7004 213.674 71.9308C213.644 72.1612 213.664 72.3952 213.731 72.6175C213.902 73.0801 214.237 73.4638 214.672 73.6962C215.108 73.9286 215.613 73.9936 216.093 73.8789C216.452 73.8104 216.778 73.6255 217.022 73.3529C217.265 73.0803 217.412 72.7351 217.44 72.3706C217.466 72.3253 217.502 72.2861 217.544 72.2555C217.587 72.225 217.635 72.2039 217.687 72.1935C217.775 72.2018 217.861 72.2285 217.939 72.272C218.016 72.3154 218.084 72.3746 218.138 72.4457C218.148 72.5384 218.166 72.6299 218.191 72.7195C218.364 73.1813 218.699 73.5644 219.134 73.7966C219.569 74.0289 220.073 74.0944 220.553 73.9809C220.913 73.911 221.241 73.7243 221.484 73.4497C221.728 73.1751 221.874 72.8279 221.9 72.4618H225.851H225.878C225.902 72.4568 225.924 72.4433 225.94 72.4237C225.956 72.4041 225.964 72.3796 225.963 72.3545C225.964 72.3387 225.96 72.3232 225.954 72.3087C225.948 72.2943 225.938 72.2814 225.927 72.2707C225.915 72.2601 225.901 72.2521 225.886 72.2471C225.871 72.2421 225.856 72.2403 225.84 72.2418ZM216.023 73.6749C215.603 73.7737 215.162 73.7159 214.783 73.5122C214.403 73.3086 214.111 72.9732 213.962 72.5692C213.902 72.3751 213.885 72.1706 213.91 71.9693C213.936 71.768 214.004 71.5744 214.11 71.4014C214.216 71.2283 214.358 71.0798 214.526 70.9656C214.693 70.8514 214.884 70.7741 215.083 70.7389C215.499 70.6369 215.937 70.6897 216.316 70.8872C216.696 71.0848 216.99 71.4136 217.145 71.8124C217.208 72.0085 217.229 72.216 217.206 72.4208C217.183 72.6257 217.115 72.8232 217.009 72.9998C216.903 73.1764 216.759 73.3281 216.589 73.4446C216.419 73.5611 216.226 73.6396 216.023 73.6749ZM220.483 73.7769C220.064 73.8757 219.623 73.8179 219.243 73.6142C218.864 73.4106 218.572 73.0752 218.422 72.6712C218.363 72.4768 218.345 72.272 218.371 72.0703C218.396 71.8687 218.464 71.6747 218.57 71.5013C218.676 71.3278 218.818 71.1788 218.986 71.064C219.154 70.9493 219.344 70.8714 219.544 70.8355C219.963 70.7367 220.404 70.7945 220.784 70.9982C221.163 71.2018 221.455 71.5372 221.605 71.9412C221.664 72.1356 221.682 72.3404 221.656 72.5421C221.631 72.7437 221.563 72.9377 221.457 73.1111C221.351 73.2846 221.209 73.4336 221.041 73.5483C220.873 73.6631 220.683 73.741 220.483 73.7769Z" fill="black"/>
<g opacity="0.3">
<path d="M225.84 72.2418H221.906C221.896 72.1192 221.87 71.9984 221.83 71.8822C221.66 71.42 221.326 71.0364 220.892 70.8039C220.458 70.5715 219.953 70.5063 219.474 70.6208C219.113 70.6898 218.786 70.8762 218.542 71.151C218.298 71.4257 218.152 71.7734 218.127 72.1398C217.992 72.0298 217.823 71.9726 217.649 71.9788C217.569 71.9832 217.493 72.0112 217.429 72.0593C217.42 71.9661 217.4 71.8743 217.37 71.7855C217.201 71.3224 216.867 70.9376 216.433 70.7041C215.998 70.4706 215.493 70.4046 215.014 70.5188C214.785 70.5603 214.568 70.6496 214.376 70.7809C214.185 70.9122 214.023 71.0826 213.902 71.2807C213.781 71.4789 213.703 71.7004 213.674 71.9308C213.644 72.1612 213.664 72.3952 213.731 72.6175C213.902 73.0801 214.237 73.4638 214.672 73.6962C215.108 73.9286 215.613 73.9936 216.093 73.8789C216.452 73.8104 216.778 73.6255 217.022 73.3529C217.265 73.0803 217.412 72.7351 217.44 72.3706C217.466 72.3253 217.502 72.2861 217.544 72.2555C217.587 72.225 217.635 72.2039 217.687 72.1935C217.775 72.2018 217.861 72.2285 217.939 72.272C218.016 72.3154 218.084 72.3746 218.138 72.4457C218.148 72.5384 218.166 72.6299 218.191 72.7195C218.364 73.1813 218.699 73.5644 219.134 73.7966C219.569 74.0289 220.073 74.0944 220.553 73.9809C220.913 73.911 221.241 73.7243 221.484 73.4497C221.728 73.1751 221.874 72.8279 221.9 72.4618H225.851H225.878C225.902 72.4568 225.924 72.4433 225.94 72.4237C225.956 72.4041 225.964 72.3796 225.963 72.3545C225.964 72.3387 225.96 72.3232 225.954 72.3087C225.948 72.2943 225.938 72.2814 225.927 72.2707C225.915 72.2601 225.901 72.2521 225.886 72.2471C225.871 72.2421 225.856 72.2403 225.84 72.2418ZM216.023 73.6749C215.603 73.7737 215.162 73.7159 214.783 73.5122C214.403 73.3086 214.111 72.9732 213.962 72.5692C213.902 72.3751 213.885 72.1706 213.91 71.9693C213.936 71.768 214.004 71.5744 214.11 71.4014C214.216 71.2283 214.358 71.0798 214.526 70.9656C214.693 70.8514 214.884 70.7741 215.083 70.7389C215.499 70.6369 215.937 70.6897 216.316 70.8872C216.696 71.0848 216.99 71.4136 217.145 71.8124C217.208 72.0085 217.229 72.216 217.206 72.4208C217.183 72.6257 217.115 72.8232 217.009 72.9998C216.903 73.1764 216.759 73.3281 216.589 73.4446C216.419 73.5611 216.226 73.6396 216.023 73.6749ZM220.483 73.7769C220.064 73.8757 219.623 73.8179 219.243 73.6142C218.864 73.4106 218.572 73.0752 218.422 72.6712C218.363 72.4768 218.345 72.272 218.371 72.0703C218.396 71.8687 218.464 71.6747 218.57 71.5013C218.676 71.3278 218.818 71.1788 218.986 71.064C219.154 70.9493 219.344 70.8714 219.544 70.8355C219.963 70.7367 220.404 70.7945 220.784 70.9982C221.163 71.2018 221.455 71.5372 221.605 71.9412C221.664 72.1356 221.682 72.3404 221.656 72.5421C221.631 72.7437 221.563 72.9377 221.457 73.1111C221.351 73.2846 221.209 73.4336 221.041 73.5483C220.873 73.6631 220.683 73.741 220.483 73.7769Z" fill="white"/>
</g>
<path d="M224.57 73.8144C224.572 73.5872 224.619 73.3627 224.709 73.1537C224.798 72.9448 224.927 72.7556 225.09 72.5969C225.253 72.4383 225.445 72.3134 225.656 72.2294C225.867 72.1454 226.093 72.104 226.32 72.1075C227.549 72.1558 228.306 74.6249 225.311 75.4354C224.898 75.5535 224.603 75.1724 224.57 73.8144Z" fill="#EBB376"/>
<path opacity="0.2" d="M205.277 98.6286C205.277 98.6286 214.134 86.9971 213.366 84.249C212.599 81.5008 207.392 90.1533 207.392 90.1533L205.277 98.6286Z" fill="black"/>
<path opacity="0.2" d="M218.262 80.4648C217.134 80.0837 216.394 79.1659 215.938 77.8723L217.177 77.4858L218.262 80.4648Z" fill="black"/>
<path d="M211.195 82.687L213.444 79.3054L215.752 83.17C215.752 83.17 213.568 86.0685 212.124 84.8769L211.195 82.687Z" fill="#EBB376"/>
<path d="M217.09 77.62L217.949 81.6188L215.753 83.1915L213.445 79.3269L217.09 77.62Z" fill="#EBB376"/>
<path d="M205.49 98.446L203.075 100.502C202.41 100.506 201.767 100.262 201.271 99.8188C200.775 99.3755 200.462 98.7639 200.391 98.1025C199.64 93.991 210.965 82.177 210.965 82.177L213.161 85.1614L205.49 98.446Z" fill="#FF6C37"/>
</g>
<defs>
<clipPath id="clip0_1222_27065">
<rect width="268.377" height="200" fill="white"/>
</clipPath>
</defs>
</svg>
