<svg width="270" height="200" viewBox="0 0 270 200" fill="none" xmlns="http://www.w3.org/2000/svg">
<g clip-path="url(#clip0_1221_25725)">
<g opacity="0.46">
<path d="M195.875 41.088H90.7345C90.476 41.0881 90.221 41.029 89.989 40.9152C89.757 40.8013 89.5542 40.6358 89.3961 40.4314C89.2381 40.227 89.129 39.989 89.0772 39.7358C89.0255 39.4826 89.0324 39.2209 89.0976 38.9709L98.8991 1.23502C98.9952 0.874134 99.2077 0.555054 99.5037 0.327313C99.7997 0.0995722 100.163 -0.0240888 100.536 -0.0244749H205.677C205.935 -0.0246122 206.189 0.0343743 206.421 0.147948C206.652 0.261522 206.854 0.426658 207.012 0.630659C207.169 0.834659 207.278 1.07209 207.33 1.32469C207.381 1.57729 207.374 1.83834 207.309 2.08775L197.507 39.7991C197.419 40.1659 197.211 40.4924 196.915 40.7262C196.619 40.96 196.253 41.0874 195.875 41.088Z" fill="#BFD9FF"/>
<path d="M105.152 8.06665H141.737" stroke="#A9C2FF" stroke-width="3.44553" stroke-linecap="round" stroke-linejoin="round"/>
<path d="M102.336 24.9547H138.925" stroke="#A9C2FF" stroke-width="3.44553" stroke-linecap="round" stroke-linejoin="round"/>
<path d="M117.723 18.5739H154.307" stroke="#A9C2FF" stroke-width="3.44553" stroke-linecap="round" stroke-linejoin="round"/>
<path d="M104.211 13.6976H115.189" stroke="#A9C2FF" stroke-width="3.44553" stroke-linecap="round" stroke-linejoin="round"/>
<path d="M102.711 18.5739H113.689" stroke="#A9C2FF" stroke-width="3.44553" stroke-linecap="round" stroke-linejoin="round"/>
<path d="M147.555 8.06665H160.591" stroke="#A9C2FF" stroke-width="3.44553" stroke-linecap="round" stroke-linejoin="round"/>
<path d="M153.946 32.8743H134.475C134.452 32.8742 134.43 32.8689 134.409 32.8589C134.389 32.8489 134.371 32.8344 134.357 32.8165C134.343 32.7987 134.333 32.7778 134.328 32.7556C134.323 32.7334 134.323 32.7103 134.328 32.6881L135.2 29.336C135.21 29.304 135.229 29.2759 135.256 29.2556C135.282 29.2353 135.314 29.224 135.347 29.2233H154.818C154.841 29.224 154.864 29.2298 154.884 29.2404C154.904 29.251 154.922 29.2661 154.935 29.2845C154.949 29.3028 154.958 29.3241 154.963 29.3466C154.967 29.3691 154.966 29.3923 154.96 29.4144L154.093 32.7616C154.084 32.7936 154.064 32.8217 154.038 32.842C154.011 32.8623 153.979 32.8736 153.946 32.8743Z" stroke="#84AEE5" stroke-width="1.14851" stroke-miterlimit="10"/>
<path d="M129.738 32.8743H110.268C110.241 32.8785 110.215 32.8754 110.19 32.8655C110.165 32.8557 110.144 32.8393 110.128 32.8182C110.112 32.7971 110.102 32.7721 110.099 32.7457C110.096 32.7194 110.1 32.6927 110.111 32.6685L110.978 29.3164C110.988 29.2844 111.007 29.2563 111.033 29.236C111.06 29.2157 111.092 29.2044 111.125 29.2037H130.596C130.619 29.2036 130.642 29.209 130.663 29.2192C130.684 29.2295 130.702 29.2445 130.717 29.263C130.731 29.2814 130.741 29.303 130.745 29.3258C130.75 29.3487 130.749 29.3723 130.743 29.3948L129.871 32.742C129.866 32.7757 129.851 32.807 129.827 32.831C129.803 32.855 129.772 32.8702 129.738 32.8743Z" stroke="#84AEE5" stroke-width="1.14851" stroke-miterlimit="10"/>
<path d="M188.168 28.0177C187.187 26.6896 183.12 25.7241 182.002 24.3911C181.429 23.7148 181.429 22.4308 181.566 21.3772C181.912 21.1782 182.224 20.9269 182.492 20.6323C182.899 20.0123 183.265 19.3674 183.59 18.7014C183.65 18.7648 183.722 18.815 183.802 18.8487C183.882 18.8825 183.969 18.8991 184.056 18.8974C184.585 18.8974 186.609 16.1285 186.09 15.4669C185.791 15.1042 185.31 15.4178 184.948 15.756C185.487 14.5308 185.864 13.5899 185.864 13.5899H185.84C185.894 13.4379 185.938 13.2811 185.977 13.0998C186.781 9.87999 184.82 7.26788 181.601 7.26788C178.381 7.26788 175.122 9.9241 174.313 13.1439C174.274 13.3007 174.24 13.4575 174.215 13.634C174.215 13.634 174.122 14.5749 174.048 15.8001C173.857 15.462 173.534 15.1483 173.068 15.511C172.225 16.153 172.877 18.9072 173.402 18.9415C173.605 18.9338 173.801 18.8656 173.965 18.7455C173.956 19.3916 174 20.0375 174.097 20.6764C174.258 21.0204 174.5 21.32 174.803 21.5487C174.401 22.5828 173.794 23.7491 172.931 24.3911C171.147 25.7241 166.614 26.6896 164.953 28.0177C163.482 29.2135 162.13 32.7077 161.875 33.4085H188.555C188.658 32.7077 189.064 29.238 188.168 28.0177Z" fill="#8DBCF8"/>
</g>
<path d="M177.578 71.1051H72.4368C72.179 71.1053 71.9246 71.0463 71.6931 70.9327C71.4617 70.8191 71.2594 70.654 71.1018 70.45C70.9442 70.246 70.8355 70.0086 70.784 69.756C70.7325 69.5034 70.7396 69.2423 70.8048 68.9929L80.6063 31.2815C80.7007 30.9193 80.9126 30.5987 81.2089 30.3699C81.5051 30.141 81.8689 30.017 82.2432 30.0172H187.394C187.65 30.0202 187.902 30.0814 188.131 30.1963C188.36 30.3111 188.56 30.4765 188.716 30.6799C188.872 30.8834 188.979 31.1196 189.031 31.3707C189.082 31.6218 189.075 31.8812 189.011 32.1294L179.21 69.8407C179.115 70.2021 178.904 70.5222 178.609 70.7509C178.314 70.9797 177.951 71.1042 177.578 71.1051Z" stroke="#7094D8" stroke-width="1.14851" stroke-miterlimit="10"/>
<path d="M175.609 68.2921H70.468C70.2102 68.2922 69.9558 68.2332 69.7244 68.1196C69.493 68.0061 69.2907 67.8409 69.133 67.6369C68.9754 67.4329 68.8667 67.1955 68.8152 66.9429C68.7637 66.6903 68.7709 66.4293 68.8361 66.1798L78.6376 28.4685C78.732 28.1063 78.9439 27.7856 79.2401 27.5568C79.5363 27.328 79.9001 27.2039 80.2744 27.2041H185.425C185.683 27.2042 185.937 27.2633 186.169 27.3768C186.401 27.4903 186.603 27.6554 186.761 27.8592C186.919 28.063 187.028 28.3003 187.08 28.5529C187.133 28.8054 187.126 29.0666 187.062 29.3163L177.26 67.0522C177.161 67.4123 176.945 67.7293 176.646 67.9536C176.347 68.1779 175.982 68.2969 175.609 68.2921Z" fill="#407BFF"/>
<path d="M103.461 68.2921H156.09" stroke="#7094D8" stroke-width="1.14851" stroke-miterlimit="10"/>
<path d="M88.8281 27.2041H133.293" stroke="#7094D8" stroke-width="1.14851" stroke-miterlimit="10"/>
<path d="M167.122 62.6611H143.481C143.239 62.6751 142.997 62.629 142.777 62.5268C142.557 62.4246 142.365 62.2696 142.22 62.0755C142.074 61.8814 141.979 61.6543 141.943 61.4144C141.906 61.1746 141.929 60.9294 142.011 60.7008L147.975 36.7802C148.127 36.2382 148.445 35.7575 148.885 35.4058C149.324 35.0542 149.863 34.8492 150.425 34.8199H174.067C174.309 34.8059 174.551 34.852 174.771 34.9542C174.991 35.0564 175.182 35.2114 175.328 35.4055C175.473 35.5996 175.569 35.8267 175.605 36.0666C175.642 36.3064 175.618 36.5516 175.537 36.7802L169.573 60.7008C169.421 61.2428 169.102 61.7235 168.663 62.0752C168.223 62.4269 167.684 62.6318 167.122 62.6611Z" fill="#B7DEFF"/>
<path d="M155.521 62.7592L157.589 54.4573L154.217 53.0214C154.217 53.0214 147.895 55.3394 147.356 55.8981C146.905 56.3637 144.636 61.2056 143.926 62.7592H155.521Z" fill="#023F61"/>
<path d="M167.222 62.7592C167.276 61.2056 167.418 56.3637 167.222 55.8981C166.963 55.3394 161.792 53.0214 161.792 53.0214L157.646 54.4573L155.578 62.7592H167.222Z" fill="#023F61"/>
<path d="M157.659 62.7591L160.898 55.5795L153.939 55.9764L153.258 62.7591H157.659Z" fill="#BEBECF"/>
<path d="M155.453 51.5119L153.933 52.4676L152.938 54.8591L152.684 58.1329L154.815 57.2556L156.472 59.2502L158.687 57.4124L160.045 58.6915L162.093 54.3005L161.735 51.5903L160.878 51.1885L155.453 51.5119Z" fill="#DEE0E8"/>
<path d="M155.918 45.2242C155.861 45.078 155.77 44.9476 155.652 44.8439C155.534 44.7402 155.394 44.6663 155.241 44.6283C155.089 44.5904 154.93 44.5896 154.777 44.6259C154.625 44.6622 154.483 44.7346 154.364 44.837C153.32 45.6114 154.546 48.5812 155.3 47.6844C156.055 46.7875 155.918 45.2242 155.918 45.2242Z" fill="#FB8E74"/>
<path d="M163.358 45.1654C163.358 45.1654 164.338 43.9402 165.097 44.6263C165.857 45.3124 163.387 48.4538 162.98 47.6158C162.574 46.7778 163.358 45.1654 163.358 45.1654Z" fill="#FB8E74"/>
<path d="M161.033 53.8251L162.102 48.1598L155.917 48.694L154.555 54.0162C154.555 54.0162 155.633 56.5352 156.794 57.6526C156.794 57.6624 160.387 54.5455 161.033 53.8251Z" fill="#FB8877"/>
<path d="M166.041 42.8767C165.811 43.5677 165.242 43.7393 165.203 44.1411C165.129 44.8016 164.892 45.4333 164.512 45.9789C164.336 46.1755 164.135 46.3485 163.914 46.4935C163.914 46.4935 158.612 47.9637 155.921 45.9201C155.813 45.3518 155.813 44.7682 155.921 44.1999C156.102 43.2688 155.652 43.1071 156.176 42.6513C156.39 42.4903 156.564 42.2816 156.684 42.0417C156.804 41.8019 156.867 41.5374 156.867 41.2693C156.845 40.9663 156.886 40.6621 156.988 40.376C157.09 40.0899 157.251 39.8283 157.46 39.6079C157.994 39.0884 158.479 39.26 158.999 38.8042C158.999 38.8042 159.773 37.5055 160.797 37.334C161.822 37.1625 163.968 36.643 165.252 38.2161C166.536 39.7893 165.943 41.1566 166.311 41.6466C166.678 42.1367 166.041 42.8767 166.041 42.8767Z" fill="#713336"/>
<path d="M155.879 44.2489C155.879 44.2489 153.375 51.1443 158.09 51.6589C162.25 51.7569 163.73 46.6748 164.328 44.0676C164.926 41.4604 164.554 38.7356 161.221 38.8238C157.889 38.912 156.242 42.7101 155.879 44.2489Z" fill="#FBA990"/>
<path d="M157.185 41.779C157.27 41.9513 157.314 42.1408 157.314 42.3328C157.314 42.5248 157.27 42.7143 157.185 42.8866C156.901 43.4453 156.127 43.6609 156.009 44.396C155.891 45.1311 155.553 46.6602 155.343 46.7288C155.132 46.7974 155.284 45.234 155.343 44.6998C155.506 43.21 156.037 41.7839 156.886 40.5489C157.999 39.1473 158.685 38.5543 160.665 38.2308C162.645 37.9074 164.144 38.7209 164.693 39.951C165.242 41.1811 164.365 44.2294 164.365 44.2294C164.365 44.2294 164.497 42.7591 164.007 42.4259C163.517 42.0926 163.11 41.828 163.194 41.6271C163.277 41.4261 161.625 42.1564 159.979 41.6271C158.332 41.0978 157.803 41.3379 157.528 41.5094C157.397 41.575 157.28 41.6667 157.185 41.779Z" fill="#713336"/>
<path d="M152.521 54.9375C152.482 55.0992 150.223 60.4852 150.223 60.4852L152.183 61.4653L151.624 62.5827" stroke="#022755" stroke-width="0.488385" stroke-miterlimit="10"/>
<path d="M162.298 54.9375C162.254 55.0992 161.832 60.4852 161.832 60.4852L159.348 61.4653V62.5827" stroke="#022755" stroke-width="0.488385" stroke-miterlimit="10"/>
<path d="M167.122 62.6611H143.481C143.239 62.6751 142.997 62.629 142.777 62.5268C142.557 62.4246 142.365 62.2696 142.22 62.0755C142.074 61.8814 141.979 61.6543 141.943 61.4144C141.906 61.1746 141.929 60.9294 142.011 60.7008L147.975 36.7802C148.127 36.2382 148.445 35.7575 148.885 35.4058C149.324 35.0542 149.863 34.8492 150.425 34.8199H174.067C174.309 34.8059 174.551 34.852 174.771 34.9542C174.991 35.0564 175.182 35.2114 175.328 35.4055C175.473 35.5996 175.569 35.8267 175.605 36.0666C175.642 36.3064 175.618 36.5516 175.537 36.7802L169.573 60.7008C169.421 61.2428 169.102 61.7235 168.663 62.0752C168.223 62.4269 167.684 62.6318 167.122 62.6611Z" stroke="white" stroke-width="1.14851" stroke-miterlimit="10"/>
<path d="M84.8867 36.2117H121.471" stroke="#73A5FF" stroke-width="3.44553" stroke-linecap="round" stroke-linejoin="round"/>
<path d="M82.0742 53.0948H118.658" stroke="#73A5FF" stroke-width="3.44553" stroke-linecap="round" stroke-linejoin="round"/>
<path d="M97.457 46.719H134.041" stroke="#73A5FF" stroke-width="3.44553" stroke-linecap="round" stroke-linejoin="round"/>
<path d="M83.9492 41.8378H94.922" stroke="#73A5FF" stroke-width="3.44553" stroke-linecap="round" stroke-linejoin="round"/>
<path d="M82.4453 46.719H93.423" stroke="#73A5FF" stroke-width="3.44553" stroke-linecap="round" stroke-linejoin="round"/>
<path d="M127.289 36.2117H140.33" stroke="#73A5FF" stroke-width="3.44553" stroke-linecap="round" stroke-linejoin="round"/>
<path d="M133.677 61.0145H114.206C114.183 61.0145 114.161 61.0093 114.141 60.9993C114.12 60.9893 114.103 60.9747 114.089 60.9566C114.075 60.9386 114.066 60.9176 114.061 60.8953C114.057 60.8731 114.058 60.8501 114.064 60.8282L114.931 57.481C114.94 57.4486 114.959 57.42 114.986 57.3996C115.012 57.3793 115.045 57.3682 115.078 57.3683H134.549C134.572 57.3684 134.594 57.3737 134.615 57.3837C134.635 57.3937 134.653 57.4082 134.667 57.4261C134.681 57.444 134.691 57.4648 134.696 57.487C134.701 57.5093 134.701 57.5323 134.696 57.5545L133.824 60.9017C133.815 60.9341 133.796 60.9627 133.769 60.9831C133.743 61.0035 133.71 61.0145 133.677 61.0145Z" stroke="#FFBC96" stroke-width="1.14851" stroke-miterlimit="10"/>
<path d="M109.479 61.0145H90.0181C89.9953 61.0143 89.9729 61.009 89.9524 60.999C89.9319 60.989 89.914 60.9746 89.8999 60.9567C89.8857 60.9388 89.8758 60.918 89.8709 60.8957C89.8659 60.8735 89.866 60.8504 89.8711 60.8282L90.7434 57.481C90.7511 57.449 90.7693 57.4206 90.795 57.4001C90.8208 57.3797 90.8527 57.3685 90.8856 57.3683H110.361C110.384 57.3682 110.406 57.3734 110.427 57.3834C110.447 57.3935 110.465 57.4081 110.478 57.4261C110.492 57.4441 110.502 57.4651 110.506 57.4874C110.51 57.5097 110.509 57.5327 110.503 57.5545L109.621 60.9017C109.614 60.9341 109.596 60.9631 109.57 60.9837C109.544 61.0043 109.512 61.0152 109.479 61.0145Z" stroke="#FFBC96" stroke-width="1.14851" stroke-miterlimit="10"/>
<path d="M131.883 22.9846H154.681" stroke="#7094D8" stroke-width="1.14851" stroke-miterlimit="10"/>
<path d="M176.762 122.137H71.5965C71.3386 122.137 71.0841 122.078 70.8526 121.964C70.621 121.851 70.4185 121.686 70.2606 121.482C70.1026 121.278 69.9934 121.041 69.9412 120.788C69.889 120.535 69.8953 120.274 69.9596 120.025L79.7611 82.3132C79.8555 81.951 80.0675 81.6304 80.3637 81.4015C80.6599 81.1727 81.0237 81.0487 81.398 81.0488H186.563C186.821 81.0495 187.076 81.1091 187.307 81.2233C187.539 81.3374 187.741 81.503 187.898 81.7074C188.056 81.9117 188.165 82.1494 188.216 82.4022C188.267 82.655 188.26 82.9163 188.195 83.166L178.394 120.902C178.295 121.258 178.082 121.572 177.787 121.795C177.492 122.018 177.132 122.138 176.762 122.137Z" fill="#BFD9FF"/>
<path d="M86.0117 89.1204H122.596" stroke="#A9C2FF" stroke-width="3.44553" stroke-linecap="round" stroke-linejoin="round"/>
<path d="M83.1953 106.003H119.784" stroke="#A9C2FF" stroke-width="3.44553" stroke-linecap="round" stroke-linejoin="round"/>
<path d="M98.582 99.6276H135.166" stroke="#A9C2FF" stroke-width="3.44553" stroke-linecap="round" stroke-linejoin="round"/>
<path d="M85.0742 94.7463H96.0519" stroke="#A9C2FF" stroke-width="3.44553" stroke-linecap="round" stroke-linejoin="round"/>
<path d="M83.5742 99.6276H94.5519" stroke="#A9C2FF" stroke-width="3.44553" stroke-linecap="round" stroke-linejoin="round"/>
<path d="M128.414 89.1204H141.455" stroke="#A9C2FF" stroke-width="3.44553" stroke-linecap="round" stroke-linejoin="round"/>
<path d="M134.805 113.923H115.335C115.312 113.923 115.289 113.918 115.269 113.908C115.248 113.898 115.23 113.883 115.216 113.865C115.202 113.847 115.192 113.827 115.187 113.804C115.182 113.782 115.182 113.759 115.188 113.737L116.06 110.39C116.069 110.357 116.088 110.329 116.114 110.308C116.141 110.288 116.173 110.277 116.207 110.277H135.678C135.7 110.277 135.723 110.282 135.743 110.292C135.764 110.302 135.782 110.317 135.796 110.335C135.81 110.353 135.82 110.373 135.825 110.396C135.83 110.418 135.83 110.441 135.825 110.463L134.952 113.81C134.944 113.843 134.925 113.871 134.898 113.892C134.871 113.912 134.839 113.923 134.805 113.923Z" stroke="#84AEE5" stroke-width="1.14851" stroke-miterlimit="10"/>
<path d="M110.599 113.923H91.1279C91.1052 113.923 91.0828 113.918 91.0625 113.908C91.0421 113.898 91.0244 113.883 91.0106 113.865C90.9968 113.847 90.9874 113.826 90.9831 113.804C90.9788 113.782 90.9797 113.759 90.9858 113.737L91.8581 110.39C91.865 110.357 91.8829 110.328 91.9089 110.308C91.9348 110.287 91.9671 110.276 92.0002 110.277H111.471C111.494 110.277 111.516 110.282 111.537 110.292C111.557 110.302 111.575 110.317 111.589 110.335C111.603 110.353 111.613 110.373 111.618 110.396C111.623 110.418 111.623 110.441 111.618 110.463L110.746 113.81C110.738 113.843 110.719 113.872 110.692 113.893C110.665 113.913 110.632 113.924 110.599 113.923Z" stroke="#84AEE5" stroke-width="1.14851" stroke-miterlimit="10"/>
<path d="M169.026 109.071C168.046 107.738 163.978 106.773 162.861 105.445C162.292 104.764 162.292 103.484 162.425 102.431C162.768 102.229 163.08 101.978 163.351 101.686C163.757 101.066 164.123 100.421 164.449 99.7549C164.508 99.8185 164.58 99.8684 164.66 99.9014C164.741 99.9344 164.827 99.9496 164.914 99.9461C165.443 99.9461 167.467 97.1771 166.948 96.54C166.649 96.1725 166.169 96.491 165.806 96.8292C166.345 95.604 166.723 94.663 166.723 94.663C166.772 94.5062 166.816 94.3494 166.86 94.173C167.659 90.9532 165.698 88.3411 162.478 88.3411C159.259 88.3411 155.98 90.9875 155.196 94.1926C155.157 94.3494 155.122 94.5062 155.098 94.6826C155.098 94.6826 155.005 95.6236 154.931 96.8488C154.74 96.5106 154.417 96.1921 153.951 96.5596C153.108 97.1967 153.76 99.951 154.284 99.9657C154.488 99.9619 154.684 99.8951 154.848 99.7745C154.839 100.421 154.883 101.067 154.98 101.705C155.139 102.058 155.381 102.366 155.686 102.602C155.284 103.631 154.676 104.803 153.814 105.445C152.03 106.773 147.497 107.738 145.84 109.071C144.346 110.267 143.013 113.756 142.758 114.462H169.408C169.516 113.756 169.923 110.267 169.026 109.071Z" fill="#8DBCF8"/>
<g opacity="0.46">
<path d="M165.856 172.419H60.7102C60.4524 172.419 60.198 172.36 59.9666 172.246C59.7352 172.133 59.5329 171.967 59.3752 171.763C59.2176 171.559 59.1089 171.322 59.0574 171.069C59.0059 170.817 59.013 170.556 59.0782 170.306L68.8798 132.57C68.9724 132.208 69.1832 131.887 69.4788 131.658C69.7743 131.429 70.1378 131.305 70.5117 131.306H175.667C175.926 131.306 176.181 131.365 176.413 131.479C176.645 131.593 176.848 131.758 177.006 131.963C177.164 132.167 177.273 132.405 177.325 132.658C177.376 132.911 177.369 133.173 177.304 133.423L167.503 171.135C167.412 171.502 167.2 171.828 166.901 172.061C166.603 172.294 166.235 172.42 165.856 172.419Z" fill="#BFD9FF"/>
<path d="M75.1289 139.402H111.718" stroke="#A9C2FF" stroke-width="3.44553" stroke-linecap="round" stroke-linejoin="round"/>
<path d="M72.3164 156.285H108.901" stroke="#A9C2FF" stroke-width="3.44553" stroke-linecap="round" stroke-linejoin="round"/>
<path d="M87.6992 149.909H124.288" stroke="#A9C2FF" stroke-width="3.44553" stroke-linecap="round" stroke-linejoin="round"/>
<path d="M74.1914 145.028H85.1642" stroke="#A9C2FF" stroke-width="3.44553" stroke-linecap="round" stroke-linejoin="round"/>
<path d="M72.6914 149.909H83.6642" stroke="#A9C2FF" stroke-width="3.44553" stroke-linecap="round" stroke-linejoin="round"/>
<path d="M117.531 139.402H130.572" stroke="#A9C2FF" stroke-width="3.44553" stroke-linecap="round" stroke-linejoin="round"/>
<path d="M123.924 164.205H104.448C104.426 164.205 104.403 164.2 104.383 164.19C104.362 164.18 104.345 164.165 104.331 164.147C104.317 164.129 104.308 164.108 104.303 164.086C104.299 164.063 104.3 164.04 104.306 164.019L105.178 160.671C105.185 160.639 105.203 160.61 105.229 160.589C105.255 160.569 105.287 160.558 105.321 160.559H124.811C124.834 160.559 124.856 160.564 124.877 160.574C124.897 160.584 124.915 160.599 124.929 160.616C124.943 160.634 124.953 160.655 124.958 160.677C124.963 160.7 124.963 160.723 124.958 160.745L124.086 164.092C124.078 164.128 124.058 164.16 124.027 164.181C123.997 164.202 123.96 164.211 123.924 164.205Z" stroke="#84AEE5" stroke-width="1.14851" stroke-miterlimit="10"/>
<path d="M99.7193 164.205H80.2486C80.2258 164.205 80.2034 164.199 80.1829 164.189C80.1624 164.179 80.1445 164.165 80.1303 164.147C80.1162 164.129 80.1063 164.108 80.1013 164.086C80.0963 164.064 80.0964 164.041 80.1016 164.019L80.9739 160.671C80.9826 160.639 81.0017 160.61 81.0283 160.59C81.0548 160.57 81.0874 160.559 81.1209 160.559H100.592C100.614 160.559 100.637 160.564 100.657 160.574C100.677 160.584 100.695 160.599 100.709 160.617C100.723 160.635 100.732 160.656 100.736 160.678C100.741 160.7 100.74 160.723 100.734 160.745L99.8663 164.092C99.8577 164.125 99.8386 164.153 99.812 164.174C99.7854 164.194 99.7528 164.205 99.7193 164.205Z" stroke="#84AEE5" stroke-width="1.14851" stroke-miterlimit="10"/>
<path d="M158.139 159.353C157.159 158.02 153.091 157.055 151.974 155.727C151.4 155.045 151.4 153.766 151.538 152.713C151.88 152.509 152.192 152.258 152.464 151.968C152.868 151.347 153.233 150.703 153.557 150.037C153.617 150.099 153.689 150.149 153.769 150.183C153.849 150.217 153.936 150.234 154.022 150.233C154.557 150.233 156.581 147.459 156.056 146.802C155.757 146.435 155.277 146.753 154.919 147.091C155.453 145.866 155.831 144.925 155.831 144.925C155.88 144.768 155.929 144.617 155.968 144.435C156.772 141.215 154.811 138.603 151.592 138.603C148.372 138.603 145.108 141.215 144.304 144.435C144.265 144.597 144.236 144.749 144.211 144.925C144.211 144.925 144.118 145.866 144.04 147.091C143.853 146.753 143.525 146.435 143.059 146.802C142.221 147.439 142.873 150.194 143.393 150.233C143.596 150.225 143.792 150.157 143.956 150.037C143.949 150.683 143.994 151.329 144.089 151.968C144.258 152.329 144.514 152.644 144.833 152.884C144.436 153.913 143.824 155.085 142.961 155.727C141.182 157.055 136.649 158.02 134.988 159.353C133.493 160.549 132.16 164.038 131.91 164.744H158.59C158.629 164.038 159.046 160.549 158.139 159.353Z" fill="#8DBCF8"/>
</g>
<path d="M144.832 172.61H163.592" stroke="#7094D8" stroke-width="1.14851" stroke-miterlimit="10"/>
<path d="M81.0391 122.328H125.695" stroke="#7094D8" stroke-width="1.14851" stroke-miterlimit="10"/>
<path d="M135.918 122.328H146.803" stroke="#7094D8" stroke-width="1.14851" stroke-miterlimit="10"/>
<path d="M182.922 81.235H186.691C186.949 81.2351 187.204 81.2958 187.434 81.4122C187.665 81.5287 187.865 81.6976 188.018 81.9054C188.172 82.1132 188.274 82.3541 188.318 82.6088C188.361 82.8635 188.344 83.1248 188.269 83.3717L186.671 88.5371" stroke="#7094D8" stroke-width="1.14851" stroke-miterlimit="10"/>
<path d="M63.4607 14.9277H61.5347C61.4261 14.9332 61.3178 14.9118 61.2195 14.8655C61.1211 14.8191 61.0357 14.7493 60.9708 14.662C60.9058 14.5748 60.8634 14.473 60.8472 14.3654C60.831 14.2579 60.8416 14.1481 60.878 14.0456L61.3681 12.1196C61.4363 11.8783 61.5784 11.6644 61.7744 11.5079C61.9704 11.3515 62.2105 11.2603 62.4609 11.2473H64.3869C64.4939 11.2451 64.5998 11.2689 64.6955 11.3167C64.7913 11.3644 64.874 11.4346 64.9366 11.5214C64.9993 11.6081 65.04 11.7087 65.0552 11.8146C65.0704 11.9205 65.0597 12.0285 65.024 12.1294L64.5339 14.0456C64.4692 14.2861 64.331 14.5004 64.1386 14.6585C63.9461 14.8167 63.7092 14.9108 63.4607 14.9277Z" fill="#BFD9FF"/>
<path d="M62.052 20.5685H60.1211C60.0136 20.5733 59.9066 20.5519 59.8093 20.5061C59.7121 20.4603 59.6274 20.3914 59.5627 20.3055C59.498 20.2196 59.4553 20.1192 59.4381 20.013C59.421 19.9068 59.43 19.7981 59.4644 19.6962L59.9544 17.7702C60.0227 17.5288 60.1648 17.3149 60.3608 17.1585C60.5568 17.002 60.7969 16.9109 61.0473 16.8978H62.9733C63.0808 16.893 63.1877 16.9144 63.285 16.9602C63.3823 17.0061 63.467 17.0749 63.5317 17.1608C63.5964 17.2468 63.6391 17.3472 63.6562 17.4533C63.6734 17.5595 63.6644 17.6683 63.63 17.7702L63.1399 19.6962C63.0726 19.9371 62.9315 20.1509 62.7363 20.3073C62.5411 20.4638 62.3018 20.5552 62.052 20.5685Z" fill="#EDF4FF"/>
<path d="M68.1732 20.5685H66.2521C66.1443 20.5745 66.0366 20.5539 65.9387 20.5084C65.8408 20.463 65.7556 20.394 65.6906 20.3078C65.6257 20.2215 65.583 20.1206 65.5664 20.0139C65.5498 19.9072 65.5597 19.7981 65.5954 19.6962L66.0854 17.7702C66.1524 17.5281 66.2941 17.3134 66.4904 17.1567C66.6866 17 66.9274 16.9094 67.1783 16.8978H69.0994C69.2072 16.8918 69.3148 16.9124 69.4128 16.9579C69.5107 17.0033 69.5959 17.0723 69.6608 17.1585C69.7258 17.2448 69.7684 17.3457 69.7851 17.4524C69.8017 17.5591 69.7917 17.6682 69.7561 17.7702L69.266 19.6962C69.1991 19.9382 69.0574 20.1529 68.8611 20.3096C68.6648 20.4663 68.424 20.5569 68.1732 20.5685Z" fill="#BFD9FF"/>
<path d="M74.2992 20.5685H72.3732C72.2654 20.5745 72.1577 20.5539 72.0598 20.5084C71.9619 20.463 71.8767 20.394 71.8117 20.3078C71.7468 20.2215 71.7041 20.1206 71.6875 20.0139C71.6709 19.9072 71.6808 19.7981 71.7165 19.6962L72.2065 17.7702C72.2734 17.5281 72.4152 17.3134 72.6115 17.1567C72.8077 17 73.0485 16.9094 73.2994 16.8978H75.2205C75.3283 16.8918 75.4359 16.9124 75.5339 16.9579C75.6318 17.0033 75.717 17.0723 75.7819 17.1585C75.8469 17.2448 75.8895 17.3457 75.9061 17.4524C75.9228 17.5591 75.9128 17.6682 75.8772 17.7702L75.3871 19.6962C75.3205 19.9375 75.1795 20.1516 74.9842 20.3082C74.7889 20.4648 74.5492 20.5559 74.2992 20.5685Z" fill="#EDF4FF"/>
<path d="M60.6107 26.3416H58.6896C58.5818 26.3476 58.4741 26.327 58.3762 26.2815C58.2783 26.236 58.1931 26.1671 58.1281 26.0809C58.0632 25.9946 58.0205 25.8937 58.0039 25.787C57.9873 25.6803 57.9972 25.5711 58.0329 25.4692L58.5229 23.5432C58.5906 23.2988 58.7346 23.0825 58.9338 22.9255C59.133 22.7686 59.3771 22.6794 59.6305 22.6709H61.5516C61.6594 22.6648 61.767 22.6855 61.865 22.7309C61.9629 22.7764 62.0481 22.8453 62.113 22.9316C62.178 23.0179 62.2206 23.1188 62.2373 23.2255C62.2539 23.3322 62.2439 23.4413 62.2083 23.5432L61.7182 25.4692C61.6505 25.7136 61.5066 25.93 61.3074 26.0869C61.1082 26.2438 60.8641 26.333 60.6107 26.3416Z" fill="#EDF4FF"/>
<path d="M59.0783 32.5067H57.1523C57.0449 32.5116 56.9379 32.4901 56.8406 32.4443C56.7433 32.3985 56.6587 32.3296 56.594 32.2437C56.5293 32.1578 56.4865 32.0574 56.4694 31.9512C56.4523 31.8451 56.4613 31.7363 56.4956 31.6344L56.9857 29.7084C57.0533 29.4667 57.1952 29.2524 57.3913 29.0958C57.5875 28.9393 57.8279 28.8484 58.0786 28.8361H60.0046C60.112 28.8312 60.219 28.8526 60.3163 28.8985C60.4136 28.9443 60.4982 29.0132 60.5629 29.0991C60.6276 29.185 60.6704 29.2854 60.6875 29.3916C60.7046 29.4977 60.6956 29.6065 60.6613 29.7084L60.1712 31.6344C60.103 31.8757 59.9609 32.0896 59.7648 32.2461C59.5688 32.4025 59.3288 32.4937 59.0783 32.5067Z" fill="#EDF4FF"/>
<path d="M66.7367 26.3416H64.8107C64.7029 26.3476 64.5952 26.327 64.4973 26.2815C64.3994 26.236 64.3142 26.1671 64.2492 26.0809C64.1843 25.9946 64.1416 25.8937 64.125 25.787C64.1084 25.6803 64.1183 25.5711 64.154 25.4692L64.644 23.5432C64.7109 23.3012 64.8527 23.0864 65.049 22.9298C65.2452 22.7731 65.486 22.6825 65.7369 22.6709H67.658C67.7658 22.6648 67.8734 22.6855 67.9714 22.7309C68.0693 22.7764 68.1545 22.8453 68.2194 22.9316C68.2844 23.0179 68.327 23.1188 68.3436 23.2255C68.3603 23.3322 68.3503 23.4413 68.3147 23.5432L67.8246 25.4692C67.7567 25.7098 67.6153 25.9231 67.4203 26.0795C67.2252 26.2359 66.9862 26.3275 66.7367 26.3416Z" fill="#EDF4FF"/>
<path d="M64.0423 37.0792H62.131C62.0232 37.0852 61.9155 37.0646 61.8176 37.0191C61.7197 36.9736 61.6345 36.9047 61.5695 36.8185C61.5046 36.7322 61.4619 36.6313 61.4453 36.5246C61.4287 36.4179 61.4386 36.3088 61.4743 36.2068L61.9643 34.2808C62.0313 34.0388 62.173 33.8241 62.3693 33.6674C62.5655 33.5107 62.8063 33.4201 63.0572 33.4085H64.9783C65.0861 33.4025 65.1937 33.4231 65.2917 33.4686C65.3896 33.514 65.4748 33.5829 65.5397 33.6692C65.6047 33.7555 65.6473 33.8564 65.664 33.9631C65.6806 34.0698 65.6706 34.1789 65.635 34.2808L65.1449 36.2068C65.0775 36.4504 64.9343 36.6663 64.7361 36.8231C64.5378 36.9799 64.2949 37.0696 64.0423 37.0792Z" fill="#BFD9FF"/>
<path d="M94.3186 3.75397H94.2009C94.0049 3.75397 93.804 3.75397 93.6031 3.75397C87.8937 3.75397 82.1206 8.32638 80.6013 14.0064L80.5327 14.2808C80.5299 14.3085 80.5299 14.3364 80.5327 14.3641L80.4886 14.5356C79.2389 20.294 82.939 24.8762 88.8199 24.6361C94.2107 24.4205 99.6555 20.1176 101.273 14.7807C103.037 8.93897 99.8417 4.11172 94.3186 3.75397ZM98.2392 14.5356C97.1022 18.3288 93.2159 21.3967 89.3884 21.5094C85.2718 21.6417 82.7087 18.4513 83.5565 14.4327L83.6741 13.9426C84.767 9.96323 88.8199 6.77284 92.8238 6.77284C93.0297 6.77284 93.2306 6.77284 93.4315 6.77284C97.2639 7.13059 99.4644 10.4974 98.2539 14.5356H98.2392Z" fill="#EBEDFC"/>
<path d="M93.7621 5.50353C93.7104 5.65393 93.6902 5.81339 93.7029 5.97195C93.7155 6.1305 93.7608 6.28474 93.8357 6.42503C93.9107 6.56531 94.0138 6.68862 94.1386 6.78725C94.2634 6.88588 94.4072 6.95772 94.561 6.99826C97.6778 7.82649 99.3441 10.9189 98.2561 14.5307C97.1192 18.3239 93.2329 21.3918 89.4054 21.5045C85.5779 21.6172 83.1863 18.9806 83.4264 15.4668C83.4425 15.3029 83.4227 15.1375 83.3683 14.9821C83.3138 14.8267 83.2262 14.6851 83.1114 14.567C82.9966 14.449 82.8575 14.3574 82.7037 14.2986C82.5499 14.2399 82.3851 14.2154 82.2209 14.2269C81.7353 14.2501 81.2733 14.4427 80.9151 14.7713C80.557 15.0999 80.3253 15.5437 80.2605 16.0255C79.9224 21.034 83.4657 24.8027 88.8418 24.5822C94.2179 24.3617 99.6676 20.0637 101.29 14.7268C102.853 9.57606 100.496 5.18498 96.0606 4.0088C95.5601 3.92645 95.0469 4.03411 94.6216 4.31064C94.1964 4.58718 93.8899 5.01263 93.7621 5.50353Z" fill="#A5C5FF"/>
<path d="M120.307 2.67584H120.17C119.979 2.67584 119.783 2.67584 119.587 2.67584C113.819 2.67584 107.972 7.35117 106.536 13.1243C105.1 18.8974 108.609 23.5678 114.378 23.5678C114.574 23.5678 114.77 23.5678 114.971 23.5678H115.113C120.602 23.1953 125.992 18.7209 127.404 13.237C127.406 13.2076 127.406 13.1781 127.404 13.1488C128.805 7.5668 125.644 3.0483 120.307 2.67584ZM115.666 20.4166H115.637H115.269H115.147C111.079 20.4166 108.604 17.1233 109.619 13.0655C110.633 9.00762 114.75 5.71431 118.818 5.71431H118.93C119.053 5.71431 119.17 5.71431 119.293 5.71431H119.322C123.081 5.97895 125.306 9.14485 124.336 13.0655C124.33 13.0954 124.322 13.1249 124.311 13.1537C123.341 17.0351 119.528 20.1765 115.666 20.4166Z" fill="white"/>
<path d="M123.877 14.4719C123.206 15.9513 122.196 17.2519 120.929 18.2685C119.662 19.2851 118.174 19.989 116.584 20.3234C116.195 20.3994 115.834 20.5814 115.542 20.8495C115.25 21.1176 115.037 21.4614 114.928 21.8427C114.859 22.0491 114.849 22.2704 114.897 22.4824C114.946 22.6945 115.052 22.8891 115.204 23.0449C115.355 23.2008 115.547 23.3118 115.758 23.366C115.969 23.4202 116.19 23.4154 116.398 23.3521C118.662 22.8819 120.782 21.8823 122.586 20.435C124.389 18.9878 125.824 17.1341 126.773 15.0257C127.185 14.0701 126.685 13.1879 125.715 13.1879C125.319 13.2096 124.937 13.3413 124.613 13.5681C124.288 13.795 124.033 14.108 123.877 14.4719Z" fill="#BFD9FF"/>
<path d="M92.5916 39.4413H73.1209C73.0976 39.4413 73.0746 39.436 73.0537 39.4257C73.0327 39.4154 73.0145 39.4005 73.0003 39.382C72.986 39.3635 72.9763 39.342 72.9717 39.3192C72.9671 39.2963 72.9679 39.2727 72.9739 39.2502L73.8462 35.9029C73.8556 35.871 73.8749 35.8428 73.9013 35.8225C73.9278 35.8023 73.96 35.791 73.9933 35.7902H93.4493C93.4726 35.7902 93.4956 35.7955 93.5165 35.8058C93.5374 35.8161 93.5557 35.831 93.5699 35.8495C93.5841 35.868 93.5939 35.8895 93.5985 35.9124C93.6031 35.9352 93.6023 35.9588 93.5963 35.9814L92.724 39.3286C92.7155 39.3583 92.6984 39.3849 92.6748 39.4049C92.6513 39.425 92.6223 39.4376 92.5916 39.4413Z" fill="#EDF4FF"/>
<path d="M182.901 54.9634C186.954 51.3836 187.977 45.9194 185.186 42.7587C182.394 39.598 176.846 39.9377 172.792 43.5175C168.739 47.0973 167.716 52.5615 170.507 55.7222C173.299 58.883 178.848 58.5432 182.901 54.9634Z" fill="#73A5FF"/>
<path d="M190.635 58.5347C190.455 59.1874 190.074 59.767 189.546 60.1917C189.019 60.6164 188.371 60.8647 187.695 60.9018C187.404 60.9152 187.113 60.8571 186.85 60.7326C186.586 60.6081 186.357 60.4211 186.182 60.1877C186.007 59.9543 185.891 59.6817 185.846 59.3936C185.801 59.1055 185.826 58.8106 185.921 58.5347C186.102 57.882 186.482 57.3024 187.01 56.8778C187.538 56.4531 188.185 56.2047 188.861 56.1677C189.153 56.1543 189.443 56.2124 189.707 56.3368C189.97 56.4613 190.2 56.6484 190.375 56.8818C190.55 57.1152 190.665 57.3878 190.71 57.6759C190.756 57.964 190.73 58.2588 190.635 58.5347Z" fill="#73A5FF"/>
<path d="M175.624 53.6437C175.495 53.6479 175.367 53.6217 175.25 53.5672C175.134 53.5127 175.031 53.4314 174.952 53.33L172.717 50.3553C172.578 50.1039 172.538 49.8089 172.608 49.5297C172.677 49.2505 172.849 49.0079 173.09 48.8507C173.188 48.7507 173.305 48.6713 173.434 48.617C173.563 48.5628 173.702 48.5348 173.842 48.5348C173.982 48.5348 174.121 48.5628 174.25 48.617C174.379 48.6713 174.496 48.7507 174.594 48.8507L176.266 51.0757L182.23 46.3023C182.328 46.2023 182.445 46.1229 182.574 46.0686C182.703 46.0144 182.842 45.9865 182.982 45.9865C183.122 45.9865 183.261 46.0144 183.39 46.0686C183.519 46.1229 183.636 46.2023 183.734 46.3023C183.872 46.5538 183.91 46.8481 183.84 47.1262C183.77 47.4043 183.597 47.6457 183.357 47.802L176.452 53.33C176.219 53.5242 175.927 53.6347 175.624 53.6437Z" fill="white"/>
<path d="M232.732 200.005C253.094 200.005 269.6 198.618 269.6 196.908C269.6 195.197 253.094 193.81 232.732 193.81C212.37 193.81 195.863 195.197 195.863 196.908C195.863 198.618 212.37 200.005 232.732 200.005Z" fill="#BFD9FF"/>
<path d="M234.138 32.0804C234.138 32.0804 233.202 33.9574 232.638 38.0838C232.075 42.2103 233.574 66.0181 233.574 66.0181L249.713 64.3274L242.396 33.2076L234.138 32.0804Z" fill="#024470"/>
<path d="M224.572 132.737L218.941 160.578L229.919 160.863C229.919 160.863 232.732 136.094 231.605 136.094C230.478 136.094 224.572 132.737 224.572 132.737Z" fill="#45242C"/>
<path d="M250.087 192.869C250.087 192.869 245.96 197.187 244.27 198.123C244.647 198.873 250.641 198.873 252.905 197.751C255.169 196.628 256.825 193.997 256.825 193.997L256.639 196.81H257.766C257.766 196.81 258.893 192.889 258.893 191.933C258.893 190.978 257.766 189.679 257.766 189.679L250.087 192.869Z" fill="#713336"/>
<path d="M248.398 137.334L252.525 187.993L257.401 187.616C257.401 187.616 263.032 150.468 260.778 137.711C258.523 124.955 248.398 137.334 248.398 137.334Z" fill="#FF8D68"/>
<path d="M252.526 187.993C252.526 187.993 251.026 191.914 248.963 193.81C246.9 195.707 252.149 195.687 254.403 193.81C256.657 191.933 256.853 190.806 257.593 190.434C258.333 190.061 257.402 187.616 257.402 187.616L252.526 187.993Z" fill="#FF8D68"/>
<path d="M216.206 192.022C216.206 192.022 211.413 195.579 209.59 196.217C209.835 197.02 215.75 198.035 218.161 197.305C220.572 196.574 222.675 194.266 222.675 194.266L222.018 197.011L223.126 197.202C223.126 197.202 224.9 193.506 225.057 192.58C225.213 191.654 224.326 190.174 224.326 190.174L216.206 192.022Z" fill="#713336"/>
<path d="M223.907 136.996L219.438 187.621L224.309 188.076C224.309 188.076 236.12 152.409 236.071 139.451C236.022 126.494 223.907 136.996 223.907 136.996Z" fill="#FF8D68"/>
<path d="M219.438 187.621C219.438 187.621 217.291 191.252 214.943 192.757C212.596 194.261 217.771 195.143 220.305 193.673C222.839 192.203 223.216 191.125 224.02 190.88C224.823 190.635 224.309 188.076 224.309 188.076L219.438 187.621Z" fill="#FF8D68"/>
<path d="M206.622 56.5058L196.919 54.5994C196.919 54.5994 196.777 55.9177 197.654 56.2117L198.536 56.5058C198.536 56.5058 200.741 61.7986 201.77 62.3867C202.8 62.9748 208.975 65.5232 208.975 65.5232L210.587 59.2992L206.622 56.5058Z" fill="#FF7759"/>
<path d="M213.596 64.3518C213.596 64.3518 213.503 63.6951 212.204 61.0634C211.505 59.7413 210.915 58.3646 210.44 56.9468C210.44 56.9468 205.887 55.1874 205.152 54.3053C204.849 53.8716 204.446 53.5184 203.976 53.2761C203.976 53.2761 203.093 54.8934 204.417 56.0647C205.74 57.2359 206.916 58.123 206.916 58.123C206.916 58.123 206.769 61.5045 207.21 63.1217C207.494 64.1066 208.119 64.958 208.974 65.5231L213.596 64.3518Z" fill="#FF8D68"/>
<path d="M228.708 69.7917C228.708 69.7917 222.141 80.2989 221.955 79.3629C221.769 78.4268 213.516 63.9745 213.516 63.9745L208.973 65.5035C208.973 65.5035 215.75 86.6601 220.068 90.0367C220.068 90.0367 220.44 90.6003 221.754 90.4092C223.067 90.2181 233.202 79.7157 233.202 79.7157L228.708 69.7917Z" fill="#FF8D68"/>
<path d="M234.843 57.3143C234.843 57.3143 231.324 58.7209 229.633 61.1614C227.943 63.602 223.066 74.6728 223.066 74.6728C225.063 77.7847 228.135 80.0527 231.697 81.0438L239.954 65.8515L234.843 57.3143Z" fill="#407BFF"/>
<path d="M230.483 93.3399C230.483 93.3399 230.763 97.8437 230.763 99.5296C230.763 99.5296 224.009 132.174 223.725 139.775C223.441 147.376 229.072 162.852 229.072 162.852C229.072 162.852 253.277 162.289 261.157 160.598L262 144.278C262 144.278 263.127 115.854 262 107.689C260.873 99.5247 256.09 95.31 256.09 95.31L254.683 91.3894L230.483 93.3399Z" fill="black"/>
<path d="M251.164 55.3442C251.164 55.3442 257.495 58.2847 259.465 61.3967C261.436 64.5087 267.346 81.235 267.346 81.235C267.346 81.235 260.735 83.6363 254.967 83.6363C254.967 83.6363 255.525 88.9831 256.089 90.6689C256.652 92.3548 254.682 93.0605 254.682 93.0605C254.682 93.0605 240.892 96.8635 230.62 94.6091C230.62 94.6091 229.355 94.3298 229.355 93.7662C229.355 93.2026 229.497 91.8059 229.497 91.8059C229.497 91.8059 228.517 82.2347 228.228 80.5341C227.939 78.8336 224.851 74.2465 225.136 72.4185C225.42 70.5905 230.179 62.1024 230.179 62.1024C230.179 62.1024 233.418 58.2994 234.824 57.3143C236.231 56.3293 239.75 56.3342 239.75 56.3342L251.164 55.3442Z" fill="#407BFF"/>
<path d="M239.167 50.2818C239.167 50.5023 239.975 55.2806 237.329 58.6572C234.683 62.1122 245.116 61.9652 247.542 58.4367C249.747 55.2806 249.527 54.766 249.527 54.766C249.527 54.766 247.763 49.0321 248.277 45.283C248.13 41.9064 239 43.9647 239.167 50.2818Z" fill="#FF8D68"/>
<path d="M239.098 30.3455C239.098 30.3455 236.054 31.1247 234.334 35.7951C232.614 40.4656 233.761 50.3945 234.908 51.5609C236.054 52.7273 239.544 52.2813 244.386 50.6836C249.497 48.9978 251.247 43.6805 252.139 40.1764C253.888 33.4624 248.051 26.5523 239.098 30.3455Z" fill="#FF8D68"/>
<path d="M233.204 35.6481C233.204 35.6481 236.017 42.4014 246.71 42.7738L249.195 54.7219C249.195 54.7219 253.748 56.9076 255.527 57.8878C255.527 57.8878 257.595 36.2166 252.714 30.963C247.832 25.7094 239.207 27.0424 235.831 30.0269C232.454 33.0115 233.204 35.6481 233.204 35.6481Z" fill="#024470"/>
<path d="M251.162 55.3443L248.771 53.0948C248.771 53.0948 246.663 59.1473 239.204 59.5688C238.581 58.4022 238.43 57.0405 238.783 55.7658L237.514 56.7459C237.514 56.7459 234.843 60.5489 235.122 61.6712C235.401 62.7935 238.969 60.8283 238.969 60.8283C238.969 60.8283 243.189 63.3619 244.879 63.5041C246.57 63.6462 250.883 55.7658 251.162 55.3443Z" fill="white"/>
<path d="M246.876 42.6023C246.876 42.6023 248.003 40.74 249.135 41.4261C250.267 42.1122 248.415 46.3268 246.876 46.42C245.337 46.5131 246.16 43.6804 246.876 42.6023Z" fill="#FF7759"/>
<path d="M204.308 58.1524L198.535 56.496C198.763 57.0837 199.064 57.6403 199.432 58.1524C199.804 58.5249 203.843 59.9314 203.843 59.9314" stroke="#E66657" stroke-width="1.02597" stroke-miterlimit="10"/>
<path d="M199.43 58.1525C199.643 58.8331 199.925 59.49 200.273 60.1128C200.552 60.3921 204.12 61.4262 204.12 61.4262" stroke="#E66657" stroke-width="1.02597" stroke-miterlimit="10"/>
<path d="M205.152 56.7557L206.912 58.128L208.25 57.7849" stroke="#E66657" stroke-width="1.02597" stroke-miterlimit="10"/>
<path d="M239.77 51.8745C240.904 51.5801 241.969 51.0639 242.902 50.3556C243.836 49.6474 244.62 48.7611 245.209 47.748" stroke="#E66657" stroke-width="1.02597" stroke-miterlimit="10"/>
<path d="M236.673 43.6217L236.012 47.1846L237.232 47.4688" stroke="#E66657" stroke-width="1.02597" stroke-miterlimit="10"/>
<path d="M236.484 49.0615C237.742 49.2495 239.027 49.0187 240.14 48.4048" stroke="#E66657" stroke-width="1.02597" stroke-miterlimit="10"/>
<path d="M239.771 43.1022C239.772 43.1869 239.747 43.27 239.701 43.3409C239.654 43.4117 239.588 43.4671 239.51 43.5C239.432 43.5329 239.346 43.5417 239.262 43.5254C239.179 43.5091 239.103 43.4684 239.043 43.4085C238.983 43.3486 238.942 43.2722 238.926 43.189C238.91 43.1059 238.918 43.0197 238.951 42.9416C238.984 42.8635 239.04 42.797 239.11 42.7505C239.181 42.704 239.264 42.6797 239.349 42.6807C239.461 42.6807 239.568 42.7251 239.647 42.8041C239.726 42.8832 239.771 42.9904 239.771 43.1022Z" fill="#024470"/>
<path d="M235.218 43.1021C235.218 43.2139 235.174 43.3211 235.094 43.4002C235.015 43.4792 234.908 43.5236 234.796 43.5236C234.685 43.5236 234.577 43.4792 234.498 43.4002C234.419 43.3211 234.375 43.2139 234.375 43.1021C234.375 42.9904 234.419 42.8832 234.498 42.8041C234.577 42.7251 234.685 42.6807 234.796 42.6807C234.908 42.6807 235.015 42.7251 235.094 42.8041C235.174 42.8832 235.218 42.9904 235.218 43.1021Z" fill="#024470"/>
<path d="M232.828 99.2984L217.961 107.882L229.358 127.622L244.225 119.038L232.828 99.2984Z" fill="white"/>
<path d="M246.895 106.94C246.895 106.94 244.552 109.522 243.846 110.086C243.141 110.649 238.363 111.066 238.363 111.066C238.363 111.066 236.25 114.58 235.687 114.443C235.123 114.305 235.265 113.879 235.265 113.879C235.265 113.879 235.123 107.547 235.545 106.842C235.966 106.136 242.861 104.171 242.861 104.171L243.709 103.19L246.895 106.94Z" fill="#FF8D68"/>
<path d="M265.282 81.8917C265.473 82.4553 266.973 86.866 267.732 89.1154C268.492 91.3649 251.599 103.19 248.972 105.254L246.904 106.939L243.719 103.19L258.539 88.3656L256.382 83.4649L265.282 81.8917Z" fill="#FF8D68"/>
<path d="M235.688 114.447L236.575 110.507" stroke="#E66657" stroke-width="1.02597" stroke-miterlimit="10"/>
<path d="M235.168 110.885L236.202 108.63" stroke="#E66657" stroke-width="1.02597" stroke-miterlimit="10"/>
<path d="M235.545 106.851L235.168 114.447H236.388L238.358 111.071" stroke="#E66657" stroke-width="1.02597" stroke-miterlimit="10"/>
<path d="M44.3606 200.005C64.7225 200.005 81.229 198.618 81.229 196.908C81.229 195.197 64.7225 193.81 44.3606 193.81C23.9987 193.81 7.49219 195.197 7.49219 196.908C7.49219 198.618 23.9987 200.005 44.3606 200.005Z" fill="#BFD9FF"/>
<path d="M29.5227 186.944C29.5227 186.944 30.302 185.268 33.2081 185.714C36.1143 186.16 36.4475 186.724 36.7857 188.165C37.1238 189.605 38.1236 191.184 38.795 191.517C39.4664 191.85 41.9217 193.526 43.9359 193.864C45.9501 194.202 46.1706 195.428 45.7247 195.986C45.2787 196.545 37.6776 196.991 36.0016 196.77C36.0016 196.77 30.302 196.658 28.9641 196.212C27.6262 195.766 29.41 187.503 29.5227 186.944Z" fill="#2D2737"/>
<path d="M26.3077 147.67C26.0953 146.322 26.3908 144.944 27.1369 143.802C27.8831 142.66 29.0266 141.836 30.3459 141.49C35.2466 139.936 36.1582 142.196 37.6382 146.415C39.1182 150.635 36.364 186.69 36.364 186.69C36.364 186.69 30.7379 187.67 29.2971 186.797C29.2971 186.797 25.009 163.328 25.3079 156.903C25.6068 150.478 26.3077 147.67 26.3077 147.67Z" fill="black"/>
<path d="M28.6836 185.381C28.6836 185.381 35.0546 184.822 37.0639 184.489L36.9512 187.39C36.9512 187.39 31.923 188.287 28.7963 187.841L28.6836 185.381Z" fill="#51598D"/>
<path d="M27.1199 57.334C27.1199 57.334 23.0964 57.5594 20.6362 66.7189C18.176 75.8785 16.6127 87.0571 17.5095 89.9583C18.4063 92.8596 28.0118 100.686 31.5894 100.686C35.1669 100.686 35.3875 98.0054 34.7161 95.7853C34.0447 93.5653 27.1199 87.5178 27.1199 87.5178C27.1199 87.5178 32.7068 69.6398 32.4813 64.9449C32.2559 60.2499 29.5752 57.334 27.1199 57.334Z" fill="#FF6C37"/>
<path d="M77.4868 54.5994L76.8203 54.668L78.315 51.7276C78.315 51.7276 82.1131 51.4874 82.7257 53.0949L80.9811 56.9616L77.4868 54.5994Z" fill="#FF8D68"/>
<path d="M79.624 46.1897C79.624 46.1897 79.477 43.166 80.5502 42.7347C81.6235 42.3034 82.834 43.1414 82.834 43.1414C82.834 43.1414 84.5738 42.965 85.1324 43.7099C85.4754 44.2708 85.6458 44.9201 85.6225 45.5771C85.9088 45.6493 86.1722 45.7927 86.3882 45.9941C86.6041 46.1955 86.7656 46.4482 86.8575 46.7288C87.1123 47.6649 86.6566 49.4683 86.6566 49.4683C86.6566 49.4683 85.5196 50.865 84.2062 50.522C82.8928 50.1789 79.624 46.1897 79.624 46.1897Z" fill="#FF7759"/>
<path d="M77.6339 48.6303C77.6339 48.6303 77.2271 44.6704 77.6339 44.151C78.0407 43.6315 82.422 37.5938 82.422 37.5938C82.6775 37.8923 82.8483 38.254 82.9164 38.641C82.9845 39.0281 82.9474 39.4263 82.8091 39.7942C82.2896 40.9655 80.2313 44.5234 80.2313 44.5234V47.5668C79.4509 48.1018 78.5654 48.4643 77.6339 48.6303Z" fill="#FF7759"/>
<path d="M77.9519 51.7814C77.9519 51.7814 76.9129 45.4104 77.6236 44.5479C78.3342 43.6854 81.8186 44.1852 82.4851 44.4352C83.1516 44.6851 84.9943 47.062 85.2491 47.998C85.504 48.9341 83.7789 52.3058 82.7252 53.0556C81.6716 53.8054 78.5596 53.0164 77.9519 51.7814Z" fill="#FF8D68"/>
<path d="M75.5 55.9912L76.8379 53.5409C76.8379 53.5409 79.9695 52.9822 81.5328 55.4375C81.9788 56.3343 81.7534 56.3343 81.7534 56.3343L80.7732 58.3436L75.5 55.9912Z" fill="#DEE0E8"/>
<path d="M43.6662 29.0909C43.6662 29.0909 46.9742 29.9387 48.8463 35.0159C50.7184 40.0931 49.4736 50.8748 48.2239 52.1686C46.9742 53.4624 43.181 52.9527 37.9323 51.2178C32.3749 49.3849 30.4979 43.6069 29.5079 39.799C27.5966 32.4773 33.9382 24.9693 43.6662 29.0909Z" fill="#FF8D68"/>
<path d="M31.8125 57.1085L34.4932 47.503C34.4932 47.503 39.8841 45.9397 43.2117 49.5123L44.329 51.0757V57.3339C40.176 57.995 35.939 57.9187 31.8125 57.1085Z" fill="#FF8D68"/>
<path d="M24.3477 108.841C23.1497 117.178 23.1497 125.644 24.3477 133.982C26.357 147.39 30.3805 148.733 34.0659 148.733C37.7513 148.733 38.7608 138.005 39.4273 133.315C40.0938 128.625 42.7795 112.531 37.7513 108.841C32.7231 105.151 27.0088 104.822 24.3477 108.841Z" fill="black"/>
<path d="M38.4021 124.597C38.4021 124.597 34.3786 113.869 41.421 109.179C48.4634 104.489 53.8248 105.156 55.5009 112.865C57.1769 120.573 57.5102 147.057 55.1627 152.419C52.8152 157.78 44.4398 149.405 38.4021 124.597Z" fill="black"/>
<path d="M50.1192 29.5516C50.1192 29.5516 51.7021 31.6148 50.7514 33.9917C49.8006 36.3686 46.3113 37.3242 46.3113 37.3242C46.3113 37.3242 47.4238 38.9121 46.3113 41.1321L45.5174 42.4014C45.5174 42.4014 46.6298 44.94 46.3113 45.5722C45.9927 46.2044 44.8852 46.0623 44.8852 46.0623C44.8852 46.0623 43.6159 42.5729 43.1405 42.8915C42.6651 43.21 41.3958 44.793 41.3958 46.224C41.3958 47.655 41.8859 48.7577 41.5527 49.7133C41.2194 50.669 36.3186 50.6641 34.2554 50.3455C32.1922 50.027 29.0214 43.6854 28.2275 40.8283C28.2275 40.8283 27.115 36.8635 28.7176 33.531C28.7176 33.531 28.399 30.6739 31.0993 27.8216C33.7996 24.9694 42.3711 25.9152 43.7874 27.0277C43.7874 27.0277 43.6306 25.4399 45.2135 25.7584C46.7965 26.077 49.1684 27.4884 50.1192 29.5516Z" fill="#C53A45"/>
<path d="M45.3629 43.9844C45.3629 43.9844 44.8728 41.9261 43.1428 42.8768C41.4129 43.8276 43.4565 48.7577 44.8875 48.4294C46.3185 48.101 45.6765 44.7783 45.3629 43.9844Z" fill="#FF7759"/>
<path d="M30.3945 57.0596C30.3945 57.0596 31.1394 54.4279 31.8109 54.2073C32.4823 53.9868 40.7498 53.09 45.2193 55.7707C47.2286 57.334 47.0081 58.4514 47.0081 58.4514C47.0081 58.4514 33.6584 55.8932 30.3945 57.0596Z" fill="#DEE0E8"/>
<path d="M28.6828 56.442C28.6828 56.442 42.5373 55.5452 52.3682 59.7941C56.8377 62.0289 67.0705 72.1391 67.0705 72.1391L75.1175 55.3785C75.1175 55.3785 79.6409 53.7564 81.4297 58.0054C81.4297 58.0054 76.3476 77.7799 72.1182 84.0382C69.4375 86.2729 56.6465 79.01 56.6465 79.01C56.6465 79.01 58.6559 104.935 57.9845 116.555C57.0925 118.789 39.6605 119.907 36.5338 119.681C33.4071 119.456 22.4539 115.883 22.2285 115.212C22.0031 114.541 23.7968 87.7236 23.3459 84.5969C22.895 81.4702 21.562 66.0475 22.008 63.8128C22.4539 61.578 24.4339 57.3339 28.6828 56.442Z" fill="#FF6C37"/>
<path d="M43.4311 187.616C43.4311 187.616 44.2152 185.94 47.1214 186.386C50.0275 186.832 50.3608 187.366 50.694 188.836C51.0273 190.306 52.0368 191.85 52.7082 192.188C53.3797 192.526 55.8349 194.197 57.8442 194.536C59.8536 194.874 60.079 196.099 59.633 196.658C59.1871 197.216 51.5909 197.662 49.9148 197.437C49.9148 197.437 44.2152 197.329 42.8724 196.878C41.5296 196.427 43.3184 188.174 43.4311 187.616Z" fill="#3E3343"/>
<path d="M44.7725 148.395C44.7093 147.033 45.1542 145.697 46.0208 144.644C46.8874 143.592 48.114 142.899 49.4625 142.7C54.4907 141.72 55.1621 144.038 56.1668 148.395C57.1714 152.752 50.4721 188.287 50.4721 188.287C50.4721 188.287 44.7725 188.62 43.4297 187.616C43.4297 187.616 41.7536 163.818 42.7583 157.447C43.7629 151.076 44.7725 148.395 44.7725 148.395Z" fill="black"/>
<path d="M42.9682 188.174C42.9682 188.174 47.325 189.405 51.0152 188.733L51.3485 186.165L42.8555 185.606L42.9682 188.174Z" fill="#51598D"/>
<path d="M37.0898 122.083C37.0898 122.083 41.7799 137.167 45.2986 144.543" stroke="#2A2E59" stroke-width="1.02597" stroke-miterlimit="10"/>
<path d="M46.6172 147.557C46.6172 147.557 49.4645 145.881 52.3168 147.557" stroke="#2A2E59" stroke-width="1.02597" stroke-miterlimit="10"/>
<path d="M46.1094 149.405C46.1094 149.405 48.4568 148.062 52.4804 150.909" stroke="#2A2E59" stroke-width="1.02597" stroke-miterlimit="10"/>
<path d="M28.5156 145.548C28.5156 145.548 30.3583 143.872 34.5485 145.714" stroke="#2A2E59" stroke-width="1.02597" stroke-miterlimit="10"/>
<path d="M29.8555 147.224C30.6996 146.848 31.6308 146.712 32.5471 146.83C33.4634 146.949 34.3294 147.317 35.0503 147.895" stroke="#2A2E59" stroke-width="1.02597" stroke-miterlimit="10"/>
<path d="M36.0554 149.909L35.0508 184.097" stroke="#2A2E59" stroke-width="1.02597" stroke-miterlimit="10"/>
<path d="M49.9141 121.245C49.9141 121.245 53.7122 123.48 55.2755 119.907" stroke="#2A2E59" stroke-width="1.02597" stroke-miterlimit="10"/>
<path d="M53.7109 121.691C53.7109 121.691 55.4997 135.55 55.0488 144.724" stroke="#2A2E59" stroke-width="1.02597" stroke-miterlimit="10"/>
<path d="M21.9766 69.6251L23.7653 88.8459" stroke="#524B81" stroke-width="1.02597" stroke-miterlimit="10"/>
<path d="M52.6484 76.3293C52.6484 76.3293 65.8805 85.8809 72.0898 84.0382" stroke="#524B81" stroke-width="1.02597" stroke-miterlimit="10"/>
<path d="M68.4062 73.9819C69.2336 74.5208 69.9017 75.2712 70.3412 76.1554C70.7807 77.0396 70.9756 78.0252 70.9056 79.0101" stroke="#524B81" stroke-width="1.02597" stroke-miterlimit="10"/>
<path d="M67.7344 72.644C68.6044 72.4287 69.5214 72.5093 70.3405 72.8732C71.1596 73.237 71.8342 73.8634 72.2578 74.6533" stroke="#524B81" stroke-width="1.02597" stroke-miterlimit="10"/>
<path d="M52.1488 61.0929C52.1488 61.0929 45.1065 64.7783 49.8014 73.3448" stroke="#524B81" stroke-width="1.02597" stroke-miterlimit="10"/>
<path d="M42.1758 49.9338C42.1758 49.9338 43.3471 52.9478 47.2873 52.4479" stroke="#E66657" stroke-width="1.02597" stroke-miterlimit="10"/>
<path d="M80.1094 43.7295L81.4228 42.5582C81.9514 42.5609 82.4579 42.7702 82.8342 43.1414" stroke="#E66657" stroke-width="1.02597" stroke-miterlimit="10"/>
<path d="M81.6875 43.9403C81.6875 43.857 83.5596 42.8523 83.5596 42.8523C83.5596 42.8523 85.2651 43.2689 85.5199 44.1657C85.6779 44.6049 85.6984 45.0818 85.5787 45.533" stroke="#E66657" stroke-width="1.02597" stroke-miterlimit="10"/>
<path d="M83.8828 45.5477C83.9661 45.5183 86.2548 45.6604 86.2548 45.6604C86.5112 45.8504 86.7184 46.0991 86.8591 46.3855C86.9997 46.672 87.0698 46.988 87.0634 47.3071C87.0303 48.0414 86.9001 48.7681 86.6762 49.4683C86.4177 49.8122 86.0845 50.0929 85.7015 50.289C85.3186 50.4851 84.8961 50.5916 84.466 50.6004" stroke="#E66657" stroke-width="1.02597" stroke-miterlimit="10"/>
<path d="M85.1916 47.8903C85.2776 48.092 85.3149 48.3111 85.3004 48.53C85.2859 48.7488 85.2201 48.9611 85.1083 49.1498C84.7457 49.9584 84.3095 52.0902 82.7266 53.0704" stroke="#E66657" stroke-width="1.02597" stroke-miterlimit="10"/>
<path d="M37.6494 33.3399C34.3806 31.7471 30.1953 33.6731 30.1953 33.6731C30.3908 32.9863 30.7531 32.3584 31.2498 31.8454C31.7466 31.3324 32.3625 30.9502 33.0427 30.7327" stroke="#A03A45" stroke-width="1.36796" stroke-miterlimit="10"/>
<path d="M30.3594 35.0159C30.3594 35.0159 31.1974 34.9326 32.2854 36.6087" stroke="#A03A45" stroke-width="1.36796" stroke-miterlimit="10"/>
<path d="M44.7734 27.5031C44.7734 27.5031 48.9048 28.1696 49.0175 32.3058" stroke="#A03A45" stroke-width="1.36796" stroke-miterlimit="10"/>
</g>
<defs>
<clipPath id="clip0_1221_25725">
<rect width="269.596" height="200" fill="white"/>
</clipPath>
</defs>
</svg>
