<svg width="210" height="200" viewBox="0 0 210 200" fill="none" xmlns="http://www.w3.org/2000/svg">
<g clip-path="url(#clip0_1218_25279)">
<path d="M104.709 197.343C162.538 197.343 209.418 194.606 209.418 191.23C209.418 187.853 162.538 185.116 104.709 185.116C46.8799 185.116 0 187.853 0 191.23C0 194.606 46.8799 197.343 104.709 197.343Z" fill="#F5F5F5"/>
<path d="M209.479 16.4605V125.144C209.45 126.431 208.931 127.659 208.027 128.576C207.124 129.493 205.905 130.031 204.619 130.08H48.2166C45.619 130.08 43.6856 127.747 43.6856 125.144V16.4605C43.6675 15.855 43.7714 15.2521 43.9912 14.6875C44.211 14.123 44.5421 13.6085 44.9649 13.1746C45.3877 12.7408 45.8934 12.3964 46.4521 12.1621C47.0107 11.9278 47.6108 11.8083 48.2166 11.8108H204.619C205.876 11.7974 207.088 12.2764 207.996 13.1453C208.905 14.0143 209.437 15.2042 209.479 16.4605Z" fill="#407BFF"/>
<path opacity="0.1" d="M209.481 30.0049V125.144C209.452 126.431 208.933 127.659 208.029 128.576C207.126 129.493 205.907 130.031 204.621 130.08H48.2185C45.6209 130.08 43.6875 127.747 43.6875 125.144V88.1136C57.4478 61.6515 90.2501 57.3635 128.653 72.8358C183.019 94.74 206.203 65.0106 209.481 30.0049Z" fill="white"/>
<path opacity="0.2" d="M166.77 117.659H87.4268C86.7106 117.659 86.0238 117.375 85.5174 116.869C85.011 116.362 84.7266 115.675 84.7266 114.959C84.7266 114.243 85.011 113.556 85.5174 113.05C86.0238 112.544 86.7106 112.259 87.4268 112.259H166.77C167.486 112.259 168.173 112.544 168.679 113.05C169.186 113.556 169.47 114.243 169.47 114.959C169.47 115.675 169.186 116.362 168.679 116.869C168.173 117.375 167.486 117.659 166.77 117.659Z" fill="black"/>
<path d="M87.4258 117.119C86.8529 117.119 86.3034 116.892 85.8983 116.487C85.4932 116.082 85.2656 115.532 85.2656 114.959C85.2656 114.386 85.4932 113.837 85.8983 113.432C86.3034 113.027 86.8529 112.799 87.4258 112.799H134.323C134.896 112.799 135.446 113.027 135.851 113.432C136.256 113.837 136.483 114.386 136.483 114.959C136.483 115.532 136.256 116.082 135.851 116.487C135.446 116.892 134.896 117.119 134.323 117.119H87.4258Z" fill="#407BFF"/>
<path opacity="0.7" d="M87.4258 117.119C86.8529 117.119 86.3034 116.892 85.8983 116.487C85.4932 116.082 85.2656 115.532 85.2656 114.959C85.2656 114.386 85.4932 113.837 85.8983 113.432C86.3034 113.027 86.8529 112.799 87.4258 112.799H134.323C134.896 112.799 135.446 113.027 135.851 113.432C136.256 113.837 136.483 114.386 136.483 114.959C136.483 115.532 136.256 116.082 135.851 116.487C135.446 116.892 134.896 117.119 134.323 117.119H87.4258Z" fill="white"/>
<path d="M56.067 121.58C61.1002 125.625 59.3451 144.932 60.2902 147.902C61.2352 150.872 65.2856 153.302 65.2856 153.302L59.6367 159.918C59.6367 159.918 54.9113 159.097 51.32 151.401C47.7287 143.706 56.067 121.58 56.067 121.58Z" fill="black"/>
<path d="M50.7043 163.968C50.7043 163.968 86.8873 153.875 91.4129 166.571C95.9385 179.268 63.1254 189.383 44.9637 190.025C26.802 190.668 19.3818 177.88 24.739 165.767L50.7043 163.968Z" fill="#FF6C37"/>
<path opacity="0.2" d="M50.7043 163.968C50.7043 163.968 86.8873 153.875 91.4129 166.571C95.9385 179.268 63.1254 189.383 44.9637 190.025C26.802 190.668 19.3818 177.88 24.739 165.767L50.7043 163.968Z" fill="black"/>
<path d="M86.1676 184.517C86.1474 184.53 86.124 184.537 86.1 184.537C86.0761 184.537 86.0526 184.53 86.0325 184.517C86.0147 184.505 86.0016 184.487 85.9957 184.466C85.9898 184.445 85.9914 184.423 86.0001 184.403C86.0595 184.204 86.6644 182.454 87.2692 182.27C87.3346 182.256 87.4025 182.259 87.4666 182.277C87.5308 182.296 87.5892 182.331 87.6365 182.378C87.7205 182.449 87.7843 182.541 87.8213 182.644C87.8583 182.748 87.8672 182.859 87.8471 182.967C87.7491 183.293 87.5507 183.581 87.28 183.788C86.9332 184.066 86.5607 184.31 86.1676 184.517ZM86.3242 184.177C86.8903 183.929 87.3485 183.487 87.6149 182.929C87.6307 182.855 87.6249 182.778 87.5981 182.707C87.5713 182.636 87.5246 182.575 87.4637 182.53C87.4477 182.509 87.4253 182.493 87.3999 182.487C87.3745 182.48 87.3475 182.482 87.3232 182.492C87.2704 182.507 87.2222 182.534 87.1828 182.573C86.8077 183.051 86.5239 183.595 86.3458 184.177H86.3242Z" fill="#FF6C37"/>
<path d="M86.1353 184.538C86.1153 184.545 86.0939 184.545 86.0738 184.539C86.0537 184.533 86.0356 184.522 86.0219 184.506C85.9625 184.457 85.1254 183.394 85.2659 182.681C85.2821 182.592 85.3158 182.508 85.3649 182.433C85.414 182.358 85.4777 182.293 85.5521 182.243C85.616 182.182 85.6991 182.144 85.7875 182.136C85.8759 182.128 85.9643 182.151 86.0381 182.2C86.4755 182.508 86.4215 183.923 86.2055 184.463V184.517L86.1353 184.538ZM85.6547 182.459C85.5807 182.526 85.5313 182.615 85.5143 182.713C85.4225 183.167 85.8437 183.847 86.0543 184.171C86.1893 183.566 86.1461 182.551 85.8869 182.394C85.8599 182.394 85.8059 182.335 85.6763 182.427L85.6331 182.459H85.6547Z" fill="#FF6C37"/>
<path d="M49.2999 190.938C49.3063 190.915 49.3187 190.895 49.3358 190.879C49.3529 190.862 49.3741 190.851 49.3971 190.846C49.4184 190.843 49.44 190.848 49.4585 190.858C49.4771 190.869 49.4916 190.886 49.4997 190.906C49.6078 191.089 50.434 192.742 50.137 193.303C50.1038 193.361 50.0557 193.408 49.9977 193.441C49.9397 193.473 49.874 193.489 49.8076 193.487C49.6989 193.5 49.5888 193.483 49.489 193.438C49.3891 193.394 49.3032 193.323 49.2405 193.233C49.0754 192.934 49.0092 192.59 49.0515 192.25C49.0914 191.806 49.1746 191.366 49.2999 190.938ZM49.4295 191.284C49.2164 191.864 49.2164 192.501 49.4295 193.082C49.4719 193.145 49.5315 193.195 49.6014 193.226C49.6713 193.257 49.7484 193.267 49.8238 193.255C49.8504 193.256 49.877 193.25 49.9001 193.237C49.9231 193.223 49.9417 193.203 49.9534 193.179C49.9737 193.129 49.9865 193.076 49.9912 193.023C49.9099 192.414 49.7196 191.825 49.4295 191.284Z" fill="#FF6C37"/>
<path d="M58.0637 178.722L51.6642 183.41L48.5859 185.667L50.5949 189.167L53.7164 187.46L61.3364 183.296L58.0637 178.722Z" fill="#EBB376"/>
<path d="M51.5879 189.064L49.6546 184.803C49.6291 184.747 49.5926 184.697 49.5473 184.655C49.502 184.614 49.4488 184.581 49.3909 184.561C49.333 184.54 49.2715 184.531 49.2101 184.535C49.1487 184.539 49.0887 184.554 49.0335 184.582L46.9489 185.602C46.9489 185.602 44.0489 186.774 43.7087 187.714C42.6286 190.468 46.6735 200 47.9318 200.005C48.3909 200.005 48.6663 199.292 48.7311 198.839C48.9309 197.391 48.9687 193.762 49.1523 192.558C49.3683 191.154 50.7725 190.074 51.4475 189.642C51.5348 189.577 51.5967 189.484 51.6223 189.378C51.648 189.273 51.6358 189.162 51.5879 189.064Z" fill="#263238"/>
<path d="M49.3064 190.9C49.3164 190.882 49.3312 190.867 49.3494 190.856C49.3675 190.846 49.3881 190.84 49.409 190.841C49.4846 190.841 50.8294 190.976 51.2452 191.575C51.3472 191.726 51.386 191.91 51.3532 192.088C51.3527 192.177 51.3219 192.263 51.2659 192.332C51.2099 192.4 51.1321 192.448 51.0454 192.466C50.5053 192.564 49.544 191.538 49.3118 191.008V190.96C49.3048 190.941 49.3029 190.92 49.3064 190.9ZM51.1264 192.013C51.1328 191.913 51.1042 191.813 51.0454 191.732C50.7862 191.354 50.0031 191.192 49.6143 191.111C49.9491 191.651 50.6943 192.299 50.9968 192.24C51.0292 192.24 51.094 192.24 51.121 192.067V192.013H51.1264Z" fill="#FF6C37"/>
<path opacity="0.2" d="M58.0636 178.722L51.6641 183.41L53.7162 187.46L61.3363 183.296L58.0636 178.722Z" fill="black"/>
<path d="M55.1749 187.725L57.2811 187.26L53.7816 180.58L51.832 182.573L55.1749 187.725Z" fill="#FF6C37"/>
<path opacity="0.6" d="M55.1749 187.725L57.2811 187.26L53.7816 180.58L51.832 182.573L55.1749 187.725Z" fill="white"/>
<path d="M71.3047 186.801L79.1353 188.092L82.894 188.708L83.9957 184.825L80.5935 183.788L72.2822 181.26L71.3047 186.801Z" fill="#EBB376"/>
<path d="M83.2295 184.193L81.5337 188.551C81.5121 188.609 81.5021 188.67 81.5042 188.732C81.5063 188.794 81.5206 188.854 81.5461 188.911C81.5717 188.967 81.6081 189.017 81.6532 189.059C81.6984 189.101 81.7514 189.134 81.8092 189.156L83.9963 189.928C83.9963 189.928 86.864 191.181 87.7767 190.781C90.4769 189.615 94.484 180.067 93.6037 179.165C93.2797 178.836 92.5831 179.138 92.2104 179.413C91.0385 180.278 88.4301 182.794 87.431 183.502C86.2753 184.333 84.5094 184.074 83.7425 183.907C83.637 183.886 83.5274 183.903 83.4334 183.955C83.3394 184.008 83.2671 184.092 83.2295 184.193Z" fill="#263238"/>
<path opacity="0.2" d="M71.3047 186.801L79.1353 188.092L80.5935 183.788L72.2822 181.26L71.3047 186.801Z" fill="black"/>
<path d="M79.244 183.005C79.244 183.005 46.6901 163.801 35.6732 164.314C24.6563 164.827 23.7005 175.768 28.2422 181.844C32.784 187.919 41.2033 189.404 41.2033 189.404C41.2033 189.404 35.4896 181.304 36.3159 179.057C37.1422 176.81 40.2906 184.425 40.2906 184.425C40.2906 184.425 60.4613 187.066 78.0343 188.556L79.244 183.005Z" fill="#FF6C37"/>
<path d="M79.7588 182.486L77.955 181.271L75.6328 188.405H78.4194L79.7588 182.486Z" fill="#FF6C37"/>
<path opacity="0.6" d="M79.7588 182.486L77.955 181.271L75.6328 188.405H78.4194L79.7588 182.486Z" fill="white"/>
<path d="M54.9638 167.343C49.0719 156.003 50.9459 138.748 56.0439 121.58C52.4796 118.604 38.2602 116.596 27.4216 119.749C27.4216 119.749 20.5414 145.245 21.3515 173.095L54.9638 167.343Z" fill="black"/>
<path d="M42.4566 124.367C37.7204 124.367 34.6367 119.398 34.6367 119.398C40.8472 117.238 40.8688 110.666 40.8688 110.666L43.2612 113.004L46.6689 116.342C43.8337 118.351 45.173 120.09 46.0749 120.862C46.2593 121.027 46.4581 121.175 46.6689 121.305C46.6689 121.305 47.1927 124.367 42.4566 124.367Z" fill="#EBB376"/>
<path opacity="0.2" d="M46.0747 120.862C40.2638 121.515 40.6743 112.815 40.6743 112.815C41.5458 112.801 42.4169 112.865 43.2773 113.004L46.685 116.342C43.8335 118.351 45.1728 120.09 46.0747 120.862Z" fill="black"/>
<path d="M50.6108 104.158C48.4129 105.066 48.8341 107.469 52.4848 111.849C54.7314 109.91 55.9519 105.503 54.7692 104.088C53.5865 102.673 52.5334 103.354 50.6108 104.158Z" fill="#263238"/>
<path d="M53.861 113.879C53.6618 114.465 53.4273 115.039 53.1589 115.596C50.9987 120.019 44.745 120.878 41.98 116.504L41.9476 116.46C40.1222 113.517 40.8081 110.768 41.5696 106.005C41.7392 104.901 42.1867 103.858 42.8702 102.975C43.5536 102.091 44.4504 101.396 45.4764 100.954C46.5023 100.513 47.6237 100.339 48.7352 100.45C49.8468 100.561 50.9118 100.952 51.8304 101.588C55.4703 104.12 55.2543 109.813 53.861 113.879Z" fill="#EBB376"/>
<path d="M48.2957 108.884C48.2093 109.267 48.3443 109.624 48.5927 109.678C48.8411 109.732 49.1328 109.472 49.1976 109.089C49.2624 108.706 49.149 108.354 48.9059 108.295C48.6629 108.236 48.4037 108.511 48.2957 108.884Z" fill="#263238"/>
<path d="M52.6355 109.867C52.5491 110.245 52.6841 110.601 52.9379 110.655C53.1917 110.709 53.478 110.455 53.5482 110.066C53.6184 109.678 53.4942 109.326 53.2457 109.272C52.9973 109.218 52.7219 109.483 52.6355 109.867Z" fill="#263238"/>
<path d="M51.1778 109.726C51.3668 110.998 51.7302 112.237 52.2579 113.409C51.4262 113.885 50.3516 113.339 50.3516 113.339L51.1778 109.726Z" fill="#D58745"/>
<path d="M47.414 107.247C47.3623 107.244 47.3139 107.221 47.279 107.182C47.2575 107.161 47.2403 107.136 47.2287 107.108C47.217 107.081 47.2109 107.051 47.2109 107.02C47.2109 106.99 47.217 106.96 47.2287 106.933C47.2403 106.905 47.2575 106.88 47.279 106.858C47.5497 106.611 47.8762 106.432 48.2307 106.338C48.5852 106.244 48.9572 106.238 49.315 106.318C49.3715 106.334 49.4196 106.371 49.449 106.421C49.4783 106.472 49.4864 106.532 49.4716 106.588C49.4518 106.645 49.4116 106.693 49.3587 106.722C49.3058 106.751 49.244 106.759 49.1854 106.745C48.9009 106.68 48.6051 106.685 48.3229 106.76C48.0408 106.834 47.7809 106.975 47.5652 107.172C47.5258 107.215 47.472 107.241 47.414 107.247Z" fill="#263238"/>
<path d="M54.9443 108.846C54.9022 108.834 54.8639 108.812 54.8335 108.78C54.803 108.749 54.7816 108.71 54.7715 108.668C54.713 108.385 54.5886 108.121 54.4084 107.895C54.2282 107.67 53.9974 107.491 53.7346 107.372C53.6775 107.35 53.631 107.307 53.6048 107.251C53.5787 107.196 53.5749 107.133 53.5942 107.074C53.615 107.018 53.6571 106.971 53.7115 106.945C53.766 106.919 53.8285 106.915 53.8858 106.934C54.2205 107.079 54.5157 107.301 54.7468 107.583C54.9779 107.865 55.1382 108.198 55.2144 108.554C55.2216 108.583 55.223 108.614 55.2185 108.643C55.214 108.673 55.2036 108.701 55.1881 108.727C55.1725 108.752 55.152 108.775 55.1278 108.792C55.1036 108.81 55.0761 108.823 55.0469 108.83H54.9443V108.846Z" fill="#263238"/>
<path d="M44.3759 102.279C46.401 103.526 45.6018 105.832 41.303 109.57C39.3859 107.301 38.8836 102.749 40.2823 101.55C41.6811 100.351 42.6045 101.193 44.3759 102.279Z" fill="#263238"/>
<path d="M38.4881 109.278C38.5227 109.878 38.6755 110.466 38.9378 111.007C39.2001 111.548 39.5666 112.033 40.0164 112.432C41.2261 113.512 42.5168 112.572 42.7598 111.071C42.9812 109.715 42.6086 107.534 41.1397 107.058C39.6708 106.583 38.4071 107.793 38.4881 109.278Z" fill="#EBB376"/>
<path d="M46.668 113.388C46.668 113.388 47.1648 115.105 49.4654 115.505" stroke="#263238" stroke-width="0.557248" stroke-linecap="round" stroke-linejoin="round"/>
<path d="M50.8067 109.759C50.8067 110.079 50.7116 110.392 50.5336 110.659C50.3556 110.925 50.1026 111.133 49.8065 111.255C49.5105 111.378 49.1847 111.41 48.8705 111.348C48.5562 111.285 48.2675 111.131 48.0409 110.904C47.8144 110.678 47.6601 110.389 47.5975 110.075C47.535 109.76 47.5671 109.435 47.6897 109.139C47.8124 108.843 48.02 108.589 48.2864 108.411C48.5529 108.233 48.8661 108.138 49.1865 108.138C49.6162 108.138 50.0283 108.309 50.3321 108.613C50.636 108.917 50.8067 109.329 50.8067 109.759Z" stroke="#263238" stroke-width="0.557248" stroke-linecap="round" stroke-linejoin="round"/>
<path d="M55.2168 110.666C55.2168 110.986 55.1218 111.299 54.9438 111.566C54.7658 111.832 54.5127 112.04 54.2167 112.163C53.9207 112.285 53.5949 112.317 53.2806 112.255C52.9663 112.192 52.6777 112.038 52.4511 111.811C52.2245 111.585 52.0702 111.296 52.0077 110.982C51.9452 110.668 51.9773 110.342 52.0999 110.046C52.2225 109.75 52.4302 109.497 52.6966 109.319C52.963 109.141 53.2763 109.046 53.5967 109.046C54.0264 109.046 54.4385 109.216 54.7423 109.52C55.0461 109.824 55.2168 110.236 55.2168 110.666Z" stroke="#263238" stroke-width="0.557248" stroke-linecap="round" stroke-linejoin="round"/>
<path d="M50.8047 110.201C50.9976 110.098 51.2225 110.072 51.434 110.128C51.6455 110.184 51.8278 110.319 51.9442 110.504" stroke="#263238" stroke-width="0.557248" stroke-linecap="round" stroke-linejoin="round"/>
<path d="M47.5639 109.424C47.5639 109.424 42.871 107.447 41.9961 107.264" stroke="#263238" stroke-width="0.557248" stroke-linecap="round" stroke-linejoin="round"/>
<path d="M40.2303 101.615C40.2303 101.615 39.7443 97.802 43.638 97.1701C47.5317 96.5383 52.6243 97.5158 54.2013 96.8407C54.1396 97.1786 54.0084 97.4999 53.8159 97.7844C53.6235 98.0689 53.374 98.3103 53.0834 98.4932C53.0834 98.4932 56.0536 99.5733 58.392 98.6444C58.392 98.6444 57.3767 101.458 56.0644 102.538H57.1823C57.1823 102.538 54.9681 104.655 52.2733 104.698C49.5785 104.742 47.0403 101.031 44.3725 102.279C41.7047 103.526 40.2303 101.615 40.2303 101.615Z" fill="#263238"/>
<path opacity="0.2" d="M29.582 157.353L40.7771 169.774C40.7771 169.774 53.1604 169.498 68.1952 176.848C68.1952 176.848 84.3263 170.184 85.8114 164.649C87.2966 159.113 51.9453 163.029 51.9453 163.029L29.582 157.353Z" fill="black"/>
<path d="M32.7461 153.707L50.7026 159.578C50.7026 159.578 57.1183 158.163 58.2632 158.163C59.4081 158.163 63.8419 161.765 61.3361 163.023C58.8303 164.281 51.9879 164.438 51.2426 164.038C50.4974 163.639 30.5859 158.973 30.5859 158.973L32.7461 153.707Z" fill="#EBB376"/>
<path d="M27.4221 119.749C31.4833 118.961 24.4357 143.717 26.1638 147.362C27.892 151.007 34.6371 153.302 34.6371 153.302L31.5319 160.156C31.5319 160.156 22.3511 158.422 17.3557 152.055C12.3603 145.688 20.7904 121.035 27.4221 119.749Z" fill="black"/>
<path d="M34.6358 152.762L30.8555 160.161L34.0957 160.863L37.066 154.042L34.6358 152.762Z" fill="#263238"/>
<path opacity="0.2" d="M34.6358 152.762L30.8555 160.161L34.0957 160.863L37.066 154.042L34.6358 152.762Z" fill="white"/>
<path d="M42.0625 163.023V164.2C42.0635 164.593 42.2154 164.97 42.4869 165.254C42.7584 165.537 43.1285 165.705 43.5206 165.723H86.9348C87.3397 165.712 87.7256 165.549 88.0165 165.267C88.3074 164.985 88.4822 164.605 88.5063 164.2V163.023H42.0625Z" fill="#263238"/>
<path opacity="0.2" d="M42.0625 163.023V164.2C42.0635 164.593 42.2154 164.97 42.4869 165.254C42.7584 165.537 43.1285 165.705 43.5206 165.723H86.9348C87.3397 165.712 87.7256 165.549 88.0165 165.267C88.3074 164.985 88.4822 164.605 88.5063 164.2V163.023H42.0625Z" fill="white"/>
<path opacity="0.2" d="M58.2656 163.023V164.2C58.268 164.594 58.4211 164.971 58.6935 165.254C58.9658 165.537 59.3365 165.705 59.7291 165.723H86.9366C87.3415 165.712 87.7274 165.549 88.0183 165.267C88.3092 164.985 88.484 164.605 88.5081 164.2V163.023H58.2656Z" fill="white"/>
<path d="M59.7288 164.643H88.4105C88.871 164.621 89.3146 164.463 89.6855 164.189C90.0564 163.915 90.3381 163.538 90.4951 163.104L97.0728 142.469C97.1482 142.293 97.178 142.101 97.1596 141.911C97.1412 141.72 97.0752 141.538 96.9676 141.379C96.86 141.221 96.7143 141.093 96.5439 141.006C96.3735 140.919 96.184 140.876 95.9927 140.881H67.2894C66.8254 140.915 66.3812 141.083 66.011 141.365C65.6409 141.647 65.3608 142.031 65.2048 142.469L58.6271 163.077C58.551 163.254 58.5214 163.446 58.5411 163.637C58.5608 163.829 58.6292 164.011 58.7397 164.168C58.8502 164.326 58.9992 164.452 59.1723 164.535C59.3455 164.618 59.5371 164.655 59.7288 164.643Z" fill="#263238"/>
<path opacity="0.2" d="M59.7288 164.643H88.4105C88.871 164.621 89.3146 164.463 89.6855 164.189C90.0564 163.915 90.3381 163.538 90.4951 163.104L97.0728 142.469C97.1482 142.293 97.178 142.101 97.1596 141.911C97.1412 141.72 97.0752 141.538 96.9676 141.379C96.86 141.221 96.7143 141.093 96.5439 141.006C96.3735 140.919 96.184 140.876 95.9927 140.881H67.2894C66.8254 140.915 66.3812 141.083 66.011 141.365C65.6409 141.647 65.3608 142.031 65.2048 142.469L58.6271 163.077C58.551 163.254 58.5214 163.446 58.5411 163.637C58.5608 163.829 58.6292 164.011 58.7397 164.168C58.8502 164.326 58.9992 164.452 59.1723 164.535C59.3455 164.618 59.5371 164.655 59.7288 164.643Z" fill="white"/>
<path opacity="0.2" d="M60.8069 164.643H88.4086C88.8691 164.621 89.3126 164.463 89.6835 164.189C90.0544 163.915 90.3361 163.538 90.4931 163.104L97.0709 142.469C97.1462 142.293 97.176 142.101 97.1576 141.911C97.1392 141.72 97.0732 141.538 96.9656 141.379C96.858 141.221 96.7123 141.093 96.5419 141.006C96.3716 140.919 96.182 140.876 95.9908 140.881H68.3675C67.9035 140.915 67.4593 141.083 67.0892 141.365C66.719 141.647 66.4389 142.031 66.2829 142.469L59.7052 163.077C59.6291 163.254 59.5995 163.446 59.6192 163.637C59.6389 163.829 59.7073 164.011 59.8178 164.168C59.9283 164.326 60.0773 164.452 60.2505 164.535C60.4236 164.618 60.6152 164.655 60.8069 164.643Z" fill="white"/>
<path opacity="0.2" d="M80.5787 150.5L76.6094 153.308L78.3267 156.121L82.296 153.308L80.5787 150.5Z" fill="white"/>
<path opacity="0.2" d="M100.448 17.0438H64.1301C61.5234 17.0438 59.4102 19.157 59.4102 21.7637V58.0817C59.4102 60.6885 61.5234 62.8017 64.1301 62.8017H100.448C103.055 62.8017 105.168 60.6885 105.168 58.0817V21.7637C105.168 19.157 103.055 17.0438 100.448 17.0438Z" fill="black"/>
<path d="M106.627 12.0214H76.2007C74.0145 12.0214 72.2422 13.7937 72.2422 15.9799V46.406C72.2422 48.5922 74.0145 50.3645 76.2007 50.3645H106.627C108.813 50.3645 110.585 48.5922 110.585 46.406V15.9799C110.585 13.7937 108.813 12.0214 106.627 12.0214Z" fill="#407BFF"/>
<path opacity="0.3" d="M106.627 12.0214H76.2007C74.0145 12.0214 72.2422 13.7937 72.2422 15.9799V46.406C72.2422 48.5922 74.0145 50.3645 76.2007 50.3645H106.627C108.813 50.3645 110.585 48.5922 110.585 46.406V15.9799C110.585 13.7937 108.813 12.0214 106.627 12.0214Z" fill="white"/>
<path d="M94.3664 26.77V24.4532L93.1729 24.3398C93.0165 23.5694 92.714 22.8361 92.2818 22.1796L93.0486 21.2507L91.4285 19.6306L90.505 20.3974C89.8477 19.9667 89.1147 19.6644 88.3449 19.5064L88.226 18.2913H85.9093L85.8066 19.5064C85.0368 19.6644 84.3038 19.9667 83.6465 20.3974L82.723 19.6306L81.1029 21.2507L81.8697 22.1796C81.4375 22.8361 81.135 23.5694 80.9786 24.3398L79.7852 24.4532V26.77L80.9786 26.8834C81.1367 27.6532 81.439 28.3862 81.8697 29.0435L81.1029 29.9724L82.723 31.5925L83.6465 30.8257C84.3038 31.2564 85.0368 31.5587 85.8066 31.7168L85.9201 32.9103H88.2368L88.3503 31.7168C89.1201 31.5587 89.8531 31.2564 90.5104 30.8257L91.4339 31.5925L93.054 29.9724L92.2872 29.0273C92.7179 28.37 93.0202 27.637 93.1782 26.8672L94.3664 26.77ZM87.0703 28.7519C86.4483 28.753 85.8398 28.5694 85.3221 28.2245C84.8044 27.8795 84.4007 27.3887 84.1622 26.8142C83.9236 26.2396 83.8609 25.6072 83.982 24.997C84.1031 24.3868 84.4026 23.8263 84.8425 23.3864C85.2824 22.9465 85.8429 22.647 86.4531 22.5259C87.0633 22.4048 87.6957 22.4675 88.2702 22.7061C88.8448 22.9447 89.3356 23.3483 89.6806 23.866C90.0255 24.3837 90.2091 24.9922 90.208 25.6143C90.2066 26.446 89.8756 27.2432 89.2874 27.8313C88.6993 28.4195 87.9021 28.7505 87.0703 28.7519Z" fill="white"/>
<path d="M103.763 33.3207V31.5008L102.829 31.4144C102.706 30.8154 102.469 30.2454 102.132 29.7348L102.732 29.0112L101.468 27.7258L100.744 28.3253C100.234 27.9886 99.6639 27.7521 99.0649 27.6286L98.9785 26.689H97.1477L97.0613 27.6286C96.4623 27.7521 95.8923 27.9886 95.3818 28.3253L94.6581 27.7258L93.3674 29.0112L93.9669 29.7348C93.6301 30.2454 93.3937 30.8154 93.2702 31.4144L92.3359 31.5008V33.3207L93.2702 33.4071C93.3937 34.0061 93.6301 34.5761 93.9669 35.0867L93.3674 35.8103L94.6527 37.0956L95.3764 36.4962C95.8869 36.8329 96.4569 37.0693 97.0559 37.1928L97.1423 38.1271H98.9623L99.0487 37.1928C99.6477 37.0693 100.218 36.8329 100.728 36.4962L101.452 37.0956L102.737 35.8103L102.138 35.0867C102.474 34.5761 102.711 34.0061 102.834 33.4071L103.763 33.3207ZM98.0442 34.8706C97.5572 34.8706 97.081 34.7262 96.6761 34.4556C96.2711 34.185 95.9555 33.8004 95.7691 33.3504C95.5827 32.9004 95.5339 32.4053 95.6289 31.9276C95.7239 31.4499 95.9585 31.0111 96.3029 30.6667C96.6473 30.3223 97.0861 30.0878 97.5638 29.9927C98.0415 29.8977 98.5366 29.9465 98.9866 30.1329C99.4366 30.3193 99.8212 30.6349 100.092 31.0399C100.362 31.4449 100.507 31.921 100.507 32.408C100.507 33.0612 100.247 33.6875 99.7855 34.1494C99.3237 34.6112 98.6973 34.8706 98.0442 34.8706Z" fill="white"/>
<path d="M94.3682 38.4781V36.9498L93.5797 36.8796C93.4771 36.3768 93.2791 35.8984 92.9965 35.4701L93.4987 34.8598L92.4186 33.7797L91.8084 34.282C91.3791 34.0012 90.901 33.8034 90.3989 33.6987L90.3233 32.9103H88.7949L88.7193 33.6987C88.2172 33.8034 87.7391 34.0012 87.3098 34.282L86.6996 33.7797L85.6195 34.8598L86.1217 35.4701C85.8391 35.8984 85.6411 36.3768 85.5385 36.8796L84.75 36.9498V38.4781L85.5385 38.5537C85.6431 39.0559 85.8409 39.534 86.1217 39.9633L85.6195 40.5735L86.6996 41.6536L87.3098 41.1514C87.74 41.4316 88.2176 41.6311 88.7193 41.74L88.7949 42.5231H90.3233L90.3989 41.74C90.9006 41.6311 91.3782 41.4316 91.8084 41.1514L92.4186 41.6536L93.4987 40.5735L92.9965 39.9633C93.2773 39.534 93.4751 39.0559 93.5797 38.5537L94.3682 38.4781ZM89.5888 39.7796C89.1793 39.7807 88.7786 39.6602 88.4376 39.4333C88.0967 39.2064 87.8307 38.8835 87.6735 38.5053C87.5163 38.1271 87.4749 37.7108 87.5545 37.3091C87.6342 36.9074 87.8313 36.5383 88.1209 36.2487C88.4104 35.9591 88.7795 35.762 89.1812 35.6824C89.5829 35.6028 89.9993 35.6442 90.3774 35.8014C90.7556 35.9586 91.0786 36.2246 91.3054 36.5655C91.5323 36.9065 91.6528 37.3071 91.6518 37.7167C91.6518 38.2638 91.4344 38.7885 91.0475 39.1754C90.6607 39.5623 90.1359 39.7796 89.5888 39.7796Z" fill="white"/>
<path opacity="0.2" d="M108.248 12.0214H77.8218C75.6356 12.0214 73.8633 13.7937 73.8633 15.9799V46.406C73.8633 48.5922 75.6356 50.3645 77.8218 50.3645H108.248C110.434 50.3645 112.206 48.5922 112.206 46.406V15.9799C112.206 13.7937 110.434 12.0214 108.248 12.0214Z" fill="white"/>
<path opacity="0.2" d="M166.411 61.4625H132.836C130.426 61.4625 128.473 63.4162 128.473 65.8261V99.4006C128.473 101.811 130.426 103.764 132.836 103.764H166.411C168.821 103.764 170.774 101.811 170.774 99.4006V65.8261C170.774 63.4162 168.821 61.4625 166.411 61.4625Z" fill="black"/>
<path d="M170.881 59.1997H142.75C140.731 59.1997 139.094 60.8366 139.094 62.8558V90.9867C139.094 93.0059 140.731 94.6428 142.75 94.6428H170.881C172.9 94.6428 174.537 93.0059 174.537 90.9867V62.8558C174.537 60.8366 172.9 59.1997 170.881 59.1997Z" fill="#407BFF"/>
<path opacity="0.2" d="M170.881 59.1997H142.75C140.731 59.1997 139.094 60.8366 139.094 62.8558V90.9867C139.094 93.0059 140.731 94.6428 142.75 94.6428H170.881C172.9 94.6428 174.537 93.0059 174.537 90.9867V62.8558C174.537 60.8366 172.9 59.1997 170.881 59.1997Z" fill="white"/>
<path d="M158.177 82.616C158.177 82.8693 158.102 83.117 157.961 83.3276C157.82 83.5382 157.62 83.7022 157.386 83.799C157.151 83.8957 156.894 83.9207 156.645 83.8709C156.397 83.821 156.169 83.6986 155.99 83.5191C155.811 83.3395 155.69 83.111 155.641 82.8623C155.592 82.6137 155.618 82.3562 155.716 82.1224C155.814 81.8886 155.979 81.6891 156.19 81.5491C156.401 81.4092 156.649 81.335 156.903 81.3361C157.241 81.3375 157.565 81.473 157.804 81.7128C158.043 81.9527 158.177 82.2775 158.177 82.616Z" fill="white"/>
<path d="M156.785 69.8494C155.116 69.8487 153.464 70.1769 151.922 70.8152C150.38 71.4536 148.979 72.3895 147.798 73.5697C146.618 74.7498 145.682 76.1509 145.044 77.6929C144.406 79.235 144.077 80.8877 144.078 82.5566H154.226C154.209 82.2184 154.264 81.8805 154.387 81.5652C154.511 81.2499 154.699 80.9644 154.941 80.7275C155.183 80.4907 155.473 80.3079 155.791 80.1912C156.109 80.0745 156.448 80.0267 156.785 80.0508C157.045 80.0633 157.301 80.1124 157.547 80.1966L162.305 74.672L158.946 81.2065C159.208 81.6073 159.346 82.0774 159.34 82.5566H169.514C169.514 80.8861 169.185 79.2319 168.545 77.6888C167.905 76.1457 166.967 74.7439 165.785 73.5636C164.602 72.3833 163.199 71.4478 161.655 70.8105C160.111 70.1731 158.456 69.8465 156.785 69.8494Z" fill="white"/>
<path opacity="0.2" d="M172.385 59.1997H144.254C142.235 59.1997 140.598 60.8366 140.598 62.8558V90.9867C140.598 93.0059 142.235 94.6428 144.254 94.6428H172.385C174.404 94.6428 176.041 93.0059 176.041 90.9867V62.8558C176.041 60.8366 174.404 59.1997 172.385 59.1997Z" fill="white"/>
<path opacity="0.2" d="M176.718 27.6503H147.259C145.144 27.6503 143.43 29.3645 143.43 31.4792V60.9386C143.43 63.0532 145.144 64.7675 147.259 64.7675H176.718C178.833 64.7675 180.547 63.0532 180.547 60.9386V31.4792C180.547 29.3645 178.833 27.6503 176.718 27.6503Z" fill="black"/>
<path d="M181.276 24.3776H156.591C154.819 24.3776 153.383 25.8138 153.383 27.5855V52.2709C153.383 54.0426 154.819 55.4788 156.591 55.4788H181.276C183.048 55.4788 184.484 54.0426 184.484 52.2709V27.5855C184.484 25.8138 183.048 24.3776 181.276 24.3776Z" fill="#407BFF"/>
<path opacity="0.1" d="M181.276 24.3776H156.591C154.819 24.3776 153.383 25.8138 153.383 27.5855V52.2709C153.383 54.0426 154.819 55.4788 156.591 55.4788H181.276C183.048 55.4788 184.484 54.0426 184.484 52.2709V27.5855C184.484 25.8138 183.048 24.3776 181.276 24.3776Z" fill="white"/>
<path d="M177.613 32.2731C177.613 32.0024 177.506 31.7427 177.315 31.5513C177.123 31.3599 176.863 31.2524 176.593 31.2524H161.353C161.082 31.2524 160.822 31.3599 160.631 31.5513C160.44 31.7427 160.332 32.0024 160.332 32.2731V35.6321C160.332 35.9028 160.44 36.1625 160.631 36.3539C160.822 36.5453 161.082 36.6528 161.353 36.6528H176.593C176.863 36.6528 177.123 36.5453 177.315 36.3539C177.506 36.1625 177.613 35.9028 177.613 35.6321V32.2731ZM172.58 34.093H171.705V33.2181H172.58V34.093ZM174.919 34.5304C174.744 34.5315 174.573 34.4807 174.428 34.3844C174.282 34.288 174.168 34.1506 174.101 33.9895C174.034 33.8285 174.016 33.651 174.05 33.4798C174.083 33.3085 174.167 33.1512 174.291 33.0277C174.414 32.9043 174.572 32.8204 174.743 32.7866C174.914 32.7528 175.092 32.7707 175.253 32.838C175.414 32.9053 175.551 33.0189 175.647 33.1645C175.744 33.3101 175.795 33.481 175.794 33.6556C175.794 33.7709 175.771 33.8851 175.726 33.9916C175.682 34.0981 175.617 34.1948 175.535 34.2761C175.454 34.3574 175.356 34.4218 175.25 34.4654C175.143 34.5091 175.029 34.5312 174.913 34.5304H174.919Z" fill="white"/>
<path d="M177.613 38.2136C177.613 37.9429 177.506 37.6832 177.315 37.4918C177.123 37.3004 176.863 37.1929 176.593 37.1929H161.353C161.082 37.1929 160.822 37.3004 160.631 37.4918C160.44 37.6832 160.332 37.9429 160.332 38.2136V41.5726C160.332 41.8433 160.44 42.1029 160.631 42.2944C160.822 42.4858 161.082 42.5933 161.353 42.5933H176.593C176.863 42.5933 177.123 42.4858 177.315 42.2944C177.506 42.1029 177.613 41.8433 177.613 41.5726V38.2136ZM172.58 40.3737H171.705V39.4989H172.58V40.3737ZM174.919 40.8112C174.746 40.8112 174.576 40.7599 174.433 40.6637C174.289 40.5676 174.177 40.431 174.11 40.2711C174.044 40.1112 174.027 39.9353 174.061 39.7656C174.094 39.5959 174.178 39.44 174.3 39.3177C174.422 39.1953 174.578 39.112 174.748 39.0782C174.918 39.0445 175.094 39.0618 175.253 39.128C175.413 39.1942 175.55 39.3064 175.646 39.4502C175.742 39.5941 175.794 39.7633 175.794 39.9363C175.794 40.0514 175.771 40.1653 175.726 40.2715C175.682 40.3777 175.617 40.4741 175.535 40.555C175.453 40.6358 175.356 40.6997 175.249 40.7427C175.143 40.7858 175.028 40.8072 174.913 40.8058L174.919 40.8112Z" fill="white"/>
<path d="M177.613 44.1541C177.613 43.8834 177.506 43.6238 177.315 43.4324C177.123 43.241 176.863 43.1334 176.593 43.1334H161.353C161.082 43.1334 160.822 43.241 160.631 43.4324C160.44 43.6238 160.332 43.8834 160.332 44.1541V47.5132C160.332 47.7839 160.44 48.0435 160.631 48.2349C160.822 48.4263 161.082 48.5339 161.353 48.5339H176.593C176.863 48.5339 177.123 48.4263 177.315 48.2349C177.506 48.0435 177.613 47.7839 177.613 47.5132V44.1541ZM172.58 46.6491H171.705V45.7742H172.58V46.6491ZM174.919 47.0866C174.746 47.0866 174.576 47.0352 174.433 46.9391C174.289 46.843 174.177 46.7063 174.11 46.5465C174.044 46.3866 174.027 46.2107 174.061 46.041C174.094 45.8713 174.178 45.7154 174.3 45.593C174.422 45.4707 174.578 45.3874 174.748 45.3536C174.918 45.3199 175.094 45.3372 175.253 45.4034C175.413 45.4696 175.55 45.5817 175.646 45.7256C175.742 45.8695 175.794 46.0386 175.794 46.2117C175.794 46.327 175.771 46.4412 175.726 46.5477C175.682 46.6542 175.617 46.7509 175.535 46.8322C175.454 46.9135 175.356 46.9779 175.25 47.0215C175.143 47.0652 175.029 47.0873 174.913 47.0866H174.919Z" fill="white"/>
<path opacity="0.2" d="M182.593 24.3776H157.907C156.135 24.3776 154.699 25.8138 154.699 27.5855V52.2709C154.699 54.0426 156.135 55.4788 157.907 55.4788H182.593C184.364 55.4788 185.8 54.0426 185.8 52.2709V27.5855C185.8 25.8138 184.364 24.3776 182.593 24.3776Z" fill="white"/>
<path opacity="0.2" d="M123.936 56.3969H87.6184C85.0117 56.3969 82.8984 58.5101 82.8984 61.1168V97.4348C82.8984 100.042 85.0117 102.155 87.6184 102.155H123.936C126.543 102.155 128.656 100.042 128.656 97.4348V61.1168C128.656 58.5101 126.543 56.3969 123.936 56.3969Z" fill="black"/>
<path d="M128.017 53.1566H97.5913C95.4051 53.1566 93.6328 54.9289 93.6328 57.1151V87.5412C93.6328 89.7275 95.4051 91.4998 97.5913 91.4998H128.017C130.204 91.4998 131.976 89.7275 131.976 87.5412V57.1151C131.976 54.9289 130.204 53.1566 128.017 53.1566Z" fill="#407BFF"/>
<path opacity="0.5" d="M128.017 53.1566H97.5913C95.4051 53.1566 93.6328 54.9289 93.6328 57.1151V87.5412C93.6328 89.7275 95.4051 91.4998 97.5913 91.4998H128.017C130.204 91.4998 131.976 89.7275 131.976 87.5412V57.1151C131.976 54.9289 130.204 53.1566 128.017 53.1566Z" fill="white"/>
<path d="M102.198 82.859C101.92 82.5807 101.699 82.2502 101.549 81.8866C101.398 81.5229 101.32 81.133 101.32 80.7394C101.32 80.3457 101.398 79.9559 101.549 79.5922C101.699 79.2285 101.92 78.898 102.198 78.6197L109.219 71.6315C109.375 71.4738 109.561 71.3486 109.766 71.2631C109.971 71.1777 110.191 71.1337 110.413 71.1337C110.635 71.1337 110.854 71.1777 111.059 71.2631C111.264 71.3486 111.45 71.4738 111.606 71.6315L113.453 73.4731C113.611 73.6297 113.736 73.816 113.822 74.0213C113.907 74.2266 113.951 74.4469 113.951 74.6693C113.951 74.8917 113.907 75.1119 113.822 75.3172C113.736 75.5225 113.611 75.7088 113.453 75.8655L106.459 82.859C106.181 83.142 105.85 83.3668 105.484 83.5202C105.118 83.6736 104.726 83.7526 104.329 83.7526C103.932 83.7526 103.54 83.6736 103.174 83.5202C102.808 83.3668 102.476 83.142 102.198 82.859Z" fill="white"/>
<path d="M115.079 71.3454L113.707 69.9737L121.608 62.0728L123.325 61.7272L122.985 63.4445L115.079 71.3454Z" fill="white"/>
<path d="M114.309 73.1815L111.879 70.7459C111.826 70.6954 111.784 70.6347 111.755 70.5674C111.726 70.5001 111.711 70.4276 111.711 70.3544C111.711 70.2811 111.726 70.2086 111.755 70.1413C111.784 70.074 111.826 70.0133 111.879 69.9628C111.93 69.9089 111.991 69.8659 112.058 69.8365C112.126 69.807 112.199 69.7919 112.273 69.7919C112.347 69.7919 112.42 69.807 112.488 69.8365C112.556 69.8659 112.617 69.9089 112.668 69.9628L115.098 72.393C115.152 72.4435 115.195 72.5046 115.224 72.5724C115.253 72.6402 115.269 72.7133 115.269 72.7873C115.269 72.8612 115.253 72.9343 115.224 73.0021C115.195 73.0699 115.152 73.131 115.098 73.1815C115.047 73.2354 114.986 73.2785 114.918 73.3079C114.85 73.3373 114.777 73.3524 114.703 73.3524C114.63 73.3524 114.556 73.3373 114.489 73.3079C114.421 73.2785 114.36 73.2354 114.309 73.1815Z" fill="white"/>
<path d="M111.034 68.5154L107.702 65.1726C108.323 63.5038 107.065 61.4517 105.698 60.9116L105.671 63.4822C105.671 63.7687 105.557 64.0434 105.355 64.246C105.152 64.4485 104.878 64.5623 104.591 64.5623C104.305 64.5623 104.03 64.4485 103.827 64.246C103.625 64.0434 103.511 63.7687 103.511 63.4822V60.9548C102.884 61.2088 102.343 61.6365 101.951 62.1875C101.558 62.7385 101.332 63.39 101.297 64.0655C101.305 64.8629 101.601 65.6304 102.132 66.2261C102.662 66.8218 103.39 67.2053 104.181 67.3057C104.731 67.3903 105.295 67.3115 105.801 67.0789L109.16 70.4488L111.034 68.5154Z" fill="white"/>
<path d="M122.127 81.1957V83.7501C122.754 83.4961 123.296 83.0685 123.688 82.5174C124.08 81.9664 124.307 81.3149 124.342 80.6395C124.347 79.8453 124.066 79.0759 123.55 78.472C123.034 77.868 122.318 77.47 121.533 77.3506C121.017 77.2436 120.48 77.2963 119.994 77.5018L116.506 74.0023L114.594 75.9141L118.061 79.3866C117.056 81.4387 118.601 83.1669 119.989 83.7069V81.1687C119.989 80.8822 120.103 80.6075 120.305 80.405C120.508 80.2024 120.782 80.0886 121.069 80.0886C121.211 80.0914 121.352 80.1223 121.482 80.1796C121.612 80.2368 121.73 80.3192 121.828 80.4221C121.927 80.525 122.004 80.6463 122.055 80.779C122.106 80.9118 122.131 81.0534 122.127 81.1957Z" fill="white"/>
<path opacity="0.2" d="M129.639 53.1566H99.2124C97.0262 53.1566 95.2539 54.9289 95.2539 57.1151V87.5412C95.2539 89.7275 97.0262 91.4998 99.2124 91.4998H129.639C131.825 91.4998 133.597 89.7275 133.597 87.5412V57.1151C133.597 54.9289 131.825 53.1566 129.639 53.1566Z" fill="white"/>
<path d="M119.962 46.2224L156.642 46.2224C159.275 46.2224 161.41 44.0874 161.41 41.4538V4.77401C161.41 2.14039 159.275 0.00542068 156.642 0.00542068L119.962 0.00542068C117.328 0.00542068 115.193 2.14039 115.193 4.77401V41.4538C115.193 44.0874 117.328 46.2224 119.962 46.2224Z" fill="#407BFF"/>
<path opacity="0.2" d="M153.995 7.3446H110.219C107.076 7.3446 104.527 9.89303 104.527 13.0367V56.8127C104.527 59.9563 107.076 62.5047 110.219 62.5047H153.995C157.139 62.5047 159.687 59.9563 159.687 56.8127V13.0367C159.687 9.89303 157.139 7.3446 153.995 7.3446Z" fill="black"/>
<path opacity="0.5" d="M119.962 46.2224L156.642 46.2224C159.275 46.2224 161.41 44.0874 161.41 41.4538V4.77401C161.41 2.14039 159.275 0.00542068 156.642 0.00542068L119.962 0.00542068C117.328 0.00542068 115.193 2.14039 115.193 4.77401V41.4538C115.193 44.0874 117.328 46.2224 119.962 46.2224Z" fill="white"/>
<path d="M138.291 8.79187L124.152 14.3435C124.152 14.3435 125.94 33.7851 138.307 37.4304C150.679 33.7851 152.467 14.3435 152.467 14.3435L138.291 8.79187ZM137.934 27.6178C137.842 27.7387 137.724 27.8371 137.588 27.9054C137.453 27.9737 137.303 28.0102 137.151 28.012C136.998 28.0095 136.847 27.9711 136.711 27.8998C136.575 27.8286 136.458 27.7264 136.368 27.6016L131.405 20.7592C131.33 20.6554 131.275 20.5376 131.245 20.4127C131.215 20.2878 131.21 20.1582 131.23 20.0314C131.25 19.9045 131.295 19.7828 131.362 19.6733C131.429 19.5637 131.517 19.4685 131.621 19.3929C131.725 19.3174 131.843 19.2631 131.968 19.2331C132.093 19.203 132.222 19.1979 132.349 19.218C132.476 19.238 132.598 19.2829 132.707 19.35C132.817 19.4171 132.912 19.5051 132.987 19.609L137.178 25.3766L144.026 16.3363C144.182 16.1305 144.414 15.9951 144.67 15.9597C144.926 15.9243 145.186 15.9917 145.392 16.1473C145.595 16.3205 145.726 16.5624 145.761 16.8266C145.796 17.0908 145.732 17.3585 145.581 17.5784L137.934 27.6178Z" fill="white"/>
<path opacity="0.2" d="M121.915 46.2224L158.595 46.2224C161.228 46.2224 163.363 44.0874 163.363 41.4538V4.77401C163.363 2.14039 161.228 0.00542068 158.595 0.00542068L121.915 0.00542068C119.281 0.00542068 117.146 2.14039 117.146 4.77401V41.4538C117.146 44.0874 119.281 46.2224 121.915 46.2224Z" fill="white"/>
<path d="M203.566 120.316H157.527V151.385H203.566V120.316Z" fill="#407BFF"/>
<path opacity="0.7" d="M203.566 120.316H157.527V151.385H203.566V120.316Z" fill="white"/>
<path d="M202.6 122.714H158.387V150.354H202.6V122.714Z" fill="#263238"/>
<path d="M196.761 126.997H160.41V127.807H196.761V126.997Z" fill="#E0E0E0"/>
<path d="M191.355 129.292H160.41V130.102H191.355V129.292Z" fill="#E0E0E0"/>
<path d="M196.761 131.587H160.41V132.397H196.761V131.587Z" fill="#E0E0E0"/>
<path d="M191.355 133.882H160.41V134.692H191.355V133.882Z" fill="#E0E0E0"/>
<path d="M164.336 136.177H160.41V136.988H164.336V136.177Z" fill="#E0E0E0"/>
<path d="M180.548 138.473H160.41V139.283H180.548V138.473Z" fill="#E0E0E0"/>
<path d="M191.355 140.768H160.41V141.578H191.355V140.768Z" fill="#E0E0E0"/>
<path d="M164.336 143.063H160.41V143.873H164.336V143.063Z" fill="#E0E0E0"/>
<path d="M164.336 145.358H160.41V146.168H164.336V145.358Z" fill="#E0E0E0"/>
<path d="M70.8122 55.6786H24.7734V86.7473H70.8122V55.6786Z" fill="#407BFF"/>
<path opacity="0.7" d="M70.8122 55.6786H24.7734V86.7473H70.8122V55.6786Z" fill="white"/>
<path d="M69.8384 58.0764H25.625V85.7159H69.8384V58.0764Z" fill="#263238"/>
<path d="M64.0027 62.3535H27.6523V63.1636H64.0027V62.3535Z" fill="#E0E0E0"/>
<path d="M58.5969 64.6487H27.6523V65.4587H58.5969V64.6487Z" fill="#E0E0E0"/>
<path d="M64.0027 66.944H27.6523V67.754H64.0027V66.944Z" fill="#E0E0E0"/>
<path d="M58.5969 69.2391H27.6523V70.0492H58.5969V69.2391Z" fill="#E0E0E0"/>
<path d="M31.5785 71.5343H27.6523V72.3444H31.5785V71.5343Z" fill="#E0E0E0"/>
<path d="M47.7906 73.8295H27.6523V74.6395H47.7906V73.8295Z" fill="#E0E0E0"/>
<path d="M58.5969 76.1246H27.6523V76.9347H58.5969V76.1246Z" fill="#E0E0E0"/>
<path d="M31.5785 78.4199H27.6523V79.23H31.5785V78.4199Z" fill="#E0E0E0"/>
<path d="M31.5785 80.7151H27.6523V81.5252H31.5785V80.7151Z" fill="#E0E0E0"/>
</g>
<defs>
<clipPath id="clip0_1218_25279">
<rect width="209.478" height="200" fill="white"/>
</clipPath>
</defs>
</svg>
