<svg width="239" height="250" viewBox="0 0 239 250" fill="none" xmlns="http://www.w3.org/2000/svg">
<g clip-path="url(#clip0_1310_22228)">
<path d="M235.219 250H2.93474C2.1564 250 1.40994 249.691 0.859568 249.14C0.309199 248.59 5.0326e-06 247.844 5.0326e-06 247.065C-0.000709509 246.679 0.0746721 246.297 0.221836 245.941C0.369001 245.584 0.585058 245.26 0.857645 244.987C1.13023 244.713 1.45399 244.497 1.81041 244.349C2.16682 244.201 2.54889 244.125 2.93474 244.125H235.219C235.998 244.127 236.744 244.437 237.294 244.988C237.845 245.539 238.154 246.286 238.154 247.065C238.154 247.844 237.844 248.59 237.294 249.14C236.744 249.691 235.997 250 235.219 250Z" fill="#B6B9D1"/>
<path d="M171.981 169.257H27.5V174.98H171.981V169.257Z" fill="#C46C3B"/>
<path d="M45.9411 174.485H39.5391V247.065H45.9411V174.485Z" fill="#C46C3B"/>
<path d="M160.515 174.485H154.113V247.065H160.515V174.485Z" fill="#C46C3B"/>
<path d="M45.9411 174.485H39.5391V181.74H45.9411V174.485Z" fill="#AA5327"/>
<path d="M160.515 174.485H154.113V181.74H160.515V174.485Z" fill="#AA5327"/>
<path d="M130.133 166.507H114.41L115.459 156.192H129.078L130.133 166.507Z" fill="#171923"/>
<path d="M134.472 169.034H110.141C110.141 168.251 110.451 167.5 111.005 166.945C111.558 166.391 112.308 166.079 113.092 166.077H131.51C132.294 166.077 133.046 166.389 133.6 166.943C134.155 167.498 134.466 168.25 134.466 169.034H134.472Z" fill="#2A2B3D"/>
<path d="M148.601 115.019H96.02C93.1655 115.019 90.8516 117.333 90.8516 120.187V151.915C90.8516 154.769 93.1655 157.083 96.02 157.083H148.601C151.455 157.083 153.769 154.769 153.769 151.915V120.187C153.769 117.333 151.455 115.019 148.601 115.019Z" fill="#2A2B3D"/>
<path d="M151.092 117.421H93.5273V151.616H151.092V117.421Z" fill="#FFF3EE"/>
<path d="M123.933 154.561C123.933 154.884 123.837 155.199 123.658 155.467C123.479 155.735 123.224 155.944 122.926 156.068C122.628 156.191 122.3 156.223 121.984 156.16C121.668 156.098 121.377 155.942 121.149 155.714C120.921 155.486 120.766 155.196 120.703 154.879C120.64 154.563 120.673 154.235 120.796 153.937C120.919 153.64 121.128 153.385 121.396 153.206C121.665 153.027 121.98 152.931 122.302 152.931C122.735 152.931 123.149 153.103 123.455 153.409C123.761 153.714 123.933 154.129 123.933 154.561Z" fill="#171923"/>
<path d="M148.394 119.551H96.2266V122.23H148.394V119.551Z" fill="white"/>
<path d="M98.3714 120.953C98.3661 121.059 98.3298 121.162 98.2669 121.247C98.2041 121.333 98.1174 121.399 98.0178 121.436C97.9181 121.473 97.8098 121.48 97.7062 121.456C97.6027 121.432 97.5084 121.378 97.4351 121.301C97.3618 121.224 97.3126 121.127 97.2938 121.022C97.2749 120.918 97.2872 120.81 97.329 120.712C97.3708 120.615 97.4403 120.531 97.529 120.473C97.6177 120.414 97.7217 120.383 97.828 120.383C97.9017 120.383 97.9746 120.397 98.0424 120.426C98.1102 120.455 98.1713 120.498 98.2222 120.551C98.273 120.605 98.3125 120.668 98.3381 120.737C98.3638 120.806 98.3751 120.88 98.3714 120.953Z" fill="#D35473"/>
<path d="M100.505 120.953C100.505 121.066 100.471 121.176 100.408 121.27C100.346 121.364 100.257 121.437 100.152 121.48C100.048 121.524 99.9333 121.535 99.8226 121.513C99.7119 121.491 99.6102 121.437 99.5304 121.357C99.4506 121.277 99.3963 121.175 99.3742 121.065C99.3522 120.954 99.3635 120.839 99.4067 120.735C99.4499 120.631 99.5231 120.541 99.6169 120.479C99.7107 120.416 99.8211 120.383 99.9339 120.383C100.01 120.379 100.086 120.391 100.157 120.418C100.228 120.445 100.292 120.487 100.346 120.541C100.4 120.595 100.442 120.659 100.469 120.73C100.496 120.801 100.508 120.877 100.505 120.953Z" fill="#FFC55A"/>
<path d="M102.633 120.953C102.633 121.066 102.6 121.176 102.537 121.27C102.475 121.364 102.385 121.437 102.281 121.48C102.177 121.524 102.062 121.535 101.952 121.513C101.841 121.491 101.739 121.437 101.659 121.357C101.58 121.277 101.525 121.175 101.503 121.065C101.481 120.954 101.492 120.839 101.536 120.735C101.579 120.631 101.652 120.541 101.746 120.479C101.84 120.416 101.95 120.383 102.063 120.383C102.139 120.379 102.215 120.391 102.286 120.418C102.357 120.445 102.421 120.487 102.475 120.541C102.529 120.595 102.571 120.659 102.598 120.73C102.625 120.801 102.637 120.877 102.633 120.953Z" fill="#54D15F"/>
<path d="M145.902 120.301H147.641" stroke="#61648A" stroke-width="0.5" stroke-miterlimit="10" stroke-linecap="round"/>
<path d="M145.902 120.893H147.641" stroke="#61648A" stroke-width="0.5" stroke-miterlimit="10" stroke-linecap="round"/>
<path d="M145.902 121.48H147.641" stroke="#61648A" stroke-width="0.5" stroke-miterlimit="10" stroke-linecap="round"/>
<path d="M131.754 125.252H135.797" stroke="#407BFF" stroke-miterlimit="10" stroke-linecap="round"/>
<path d="M136.602 125.252H138.498" stroke="#2D292A" stroke-miterlimit="10" stroke-linecap="round"/>
<path d="M139.199 125.252H145.183" stroke="#407BFF" stroke-miterlimit="10" stroke-linecap="round"/>
<path d="M129.73 127.806H135.665" stroke="#455A64" stroke-miterlimit="10" stroke-linecap="round"/>
<path d="M136.477 127.806H140.281" stroke="#FF6C37" stroke-miterlimit="10" stroke-linecap="round"/>
<path d="M140.98 127.806H143.524" stroke="#407BFF" stroke-miterlimit="10" stroke-linecap="round"/>
<path d="M144.316 127.806H146.86" stroke="#FF6C37" stroke-miterlimit="10" stroke-linecap="round"/>
<path d="M130.266 130.355H133.7" stroke="#2D292A" stroke-miterlimit="10" stroke-linecap="round"/>
<path d="M134.5 130.355H137.196" stroke="#FF6C37" stroke-miterlimit="10" stroke-linecap="round"/>
<path d="M137.898 130.355H142.779" stroke="#455A64" stroke-miterlimit="10" stroke-linecap="round"/>
<path d="M143.438 130.355H144.954" stroke="#2D292A" stroke-miterlimit="10" stroke-linecap="round"/>
<path d="M128.641 135.458H129.521" stroke="#455A64" stroke-miterlimit="10" stroke-linecap="round"/>
<path d="M130.328 135.458H135.317" stroke="#407BFF" stroke-miterlimit="10" stroke-linecap="round"/>
<path d="M136.012 135.458H139.604" stroke="#FF6C37" stroke-miterlimit="10" stroke-linecap="round"/>
<path d="M140.145 135.458H144.737" stroke="#407BFF" stroke-miterlimit="10" stroke-linecap="round"/>
<path d="M138.789 140.562H145.447" stroke="#FFC55A" stroke-miterlimit="10" stroke-linecap="round"/>
<path d="M130.266 138.013H133.7" stroke="#54D15F" stroke-miterlimit="10" stroke-linecap="round"/>
<path d="M134.5 138.013H136.337" stroke="#D35473" stroke-miterlimit="10" stroke-linecap="round"/>
<path d="M137.035 138.013H140.769" stroke="#2D292A" stroke-miterlimit="10" stroke-linecap="round"/>
<path d="M141.637 138.013H145.37" stroke="#D35473" stroke-miterlimit="10" stroke-linecap="round"/>
<path d="M130.426 140.562H133.045" stroke="#FFC55A" stroke-miterlimit="10" stroke-linecap="round"/>
<path d="M133.852 140.562H134.966" stroke="#2D292A" stroke-miterlimit="10" stroke-linecap="round"/>
<path d="M135.668 140.562H137.967" stroke="#54D15F" stroke-miterlimit="10" stroke-linecap="round"/>
<path d="M134.5 145.355H137.033" stroke="#FF6C37" stroke-miterlimit="10" stroke-linecap="round"/>
<path d="M137.848 145.355H140.772" stroke="#2D292A" stroke-miterlimit="10" stroke-linecap="round"/>
<path d="M141.469 145.355H146.143" stroke="#FFC55A" stroke-miterlimit="10" stroke-linecap="round"/>
<path d="M132.184 147.904H134.102" stroke="#FF6C37" stroke-miterlimit="10" stroke-linecap="round"/>
<path d="M134.902 147.904H137.962" stroke="#2D292A" stroke-miterlimit="10" stroke-linecap="round"/>
<path d="M138.66 147.904H141.437" stroke="#455A64" stroke-miterlimit="10" stroke-linecap="round"/>
<path d="M142.227 147.904H146.525" stroke="#407BFF" stroke-miterlimit="10" stroke-linecap="round"/>
<path opacity="0.21" d="M129.297 125.252H130.161" stroke="#383952" stroke-miterlimit="10" stroke-linecap="round"/>
<path opacity="0.21" d="M127.035 127.806H127.899" stroke="#383952" stroke-miterlimit="10" stroke-linecap="round"/>
<path opacity="0.21" d="M128.078 130.355H128.942" stroke="#383952" stroke-miterlimit="10" stroke-linecap="round"/>
<path opacity="0.21" d="M126.027 132.91H126.891" stroke="#383952" stroke-miterlimit="10" stroke-linecap="round"/>
<path opacity="0.21" d="M126.027 135.458H126.891" stroke="#383952" stroke-miterlimit="10" stroke-linecap="round"/>
<path opacity="0.21" d="M127.977 138.013H128.835" stroke="#383952" stroke-miterlimit="10" stroke-linecap="round"/>
<path opacity="0.21" d="M128.211 140.562H129.075" stroke="#383952" stroke-miterlimit="10" stroke-linecap="round"/>
<path opacity="0.21" d="M126.027 143.11H126.891" stroke="#383952" stroke-miterlimit="10" stroke-linecap="round"/>
<path opacity="0.21" d="M131.547 145.355H132.411" stroke="#383952" stroke-miterlimit="10" stroke-linecap="round"/>
<path opacity="0.21" d="M129.52 147.904H130.384" stroke="#383952" stroke-miterlimit="10" stroke-linecap="round"/>
<path opacity="0.33" d="M109.286 124.622H96.2266V136.964H109.286V124.622Z" fill="#61648A"/>
<path d="M122.343 124.622H110.914V125.741H122.343V124.622Z" fill="#407BFF"/>
<path d="M122.343 127.426H110.914V128.546H122.343V127.426Z" fill="#407BFF"/>
<path opacity="0.33" d="M122.343 130.236H110.914V131.355H122.343V130.236Z" fill="#61648A"/>
<path opacity="0.33" d="M122.343 133.04H110.914V134.16H122.343V133.04Z" fill="#61648A"/>
<path opacity="0.33" d="M122.343 135.844H110.914V136.964H122.343V135.844Z" fill="#61648A"/>
<path d="M109.287 138.85H96.2656V147.909H109.287V138.85Z" fill="#407BFF"/>
<path d="M122.343 138.85H110.914V143.116H122.343V138.85Z" fill="#FF6C37"/>
<path d="M122.343 145.263H110.914V147.904H122.343V145.263Z" fill="#407BFF"/>
<path d="M119.624 237.152C118.972 243.158 118.118 245.848 119.624 246.679C121.129 247.511 129.673 246.679 131.526 246.679C133.379 246.679 133.379 242.783 130.292 241.152C127.205 239.522 126.586 233.701 126.586 233.701L119.624 237.152Z" fill="black"/>
<path d="M80.8582 237.152C80.2006 243.158 79.3473 245.848 80.8582 246.679C82.369 247.511 90.9069 246.679 92.7547 246.679C94.6025 246.679 94.608 242.783 91.521 241.152C88.4341 239.522 87.82 233.701 87.82 233.701L80.8582 237.152Z" fill="black"/>
<path d="M91.0045 214.022C90.8361 220.462 90.3687 226.522 89.5589 230.267H77.6461L73.2114 204.24L72.7548 201.571C71.5417 201.573 70.3774 201.093 69.5175 200.237C68.6576 199.381 68.1723 198.22 68.168 197.006V196.925C68.2495 191.778 69.1408 183.789 73.5701 180.719C78.5048 177.3 88.4013 184.523 89.2817 186.278C90.1622 188.034 90.7328 193.941 90.9665 201.066C91.1187 205.191 91.1187 209.675 91.0045 214.022Z" fill="#252525"/>
<path d="M91.0041 214.022C86.7977 215.838 83.3629 227.066 82.4553 230.267H77.6456L73.2109 204.24C73.6442 203.447 74.2496 202.762 74.9826 202.234C77.1565 200.881 89.6563 201.044 90.9661 201.066C91.1182 205.191 91.1182 209.675 91.0041 214.022Z" fill="#0A0A0E"/>
<path d="M130.149 164.632C133.953 163.203 136.589 164.866 137.273 166.039C137.958 167.213 138.36 168.295 138.056 168.882C137.752 169.469 136.784 168.882 136.784 168.882C134.846 169.231 132.871 169.319 130.909 169.143C128.361 168.784 130.149 164.632 130.149 164.632Z" fill="#F4B8AB"/>
<path opacity="0.53" d="M130.794 165.735C132.854 166.822 136.451 168.409 136.435 168.675C136.419 168.942 133.207 169.675 131.163 169.105C129.12 168.534 130.794 165.735 130.794 165.735Z" fill="#DD6595"/>
<path d="M94.0743 119.393C95.5145 125.285 94.4656 132.23 89.4168 132.785V134.855C89.424 135.592 89.1385 136.302 88.623 136.829C88.1074 137.356 87.4039 137.656 86.6668 137.665C85.9298 137.672 85.2199 137.387 84.6932 136.871C84.1664 136.356 83.8657 135.652 83.8571 134.915V132.839C83.8571 132.839 79.7974 131.165 78.9659 128.643C78.1344 126.122 78.9659 128.241 78.9659 128.241L78.5039 117.915L94.1993 117.763L94.0743 119.393Z" fill="#F4B8AB"/>
<path opacity="0.53" d="M89.4174 132.785C87.8108 132.923 86.1982 132.979 84.5859 132.953L89.4391 134.855L89.4174 132.785Z" fill="#DD6595"/>
<path d="M94.3179 120.546C98.7743 117.73 97.9319 111.932 94.7744 113.986C94.7744 113.986 89.7962 108.866 82.0789 111.66C74.3617 114.453 73.3834 120.899 75.0138 124.942C76.6443 128.986 86.6441 131.056 86.6441 131.056L91.2636 126.165L94.3179 120.546Z" fill="#6D3744"/>
<path d="M94.7789 113.975C95.5506 111.731 93.6158 108.883 91.8115 108.883C90.0072 108.883 90.1105 111.975 90.1105 111.975L93.1865 116.051L94.7789 113.975Z" fill="#6D3744"/>
<path d="M91.4495 124.377C91.3951 125.078 90.8625 131.404 89.4169 132.785L83.1996 132.866C83.1996 132.866 76.3301 131.469 75.1834 125.768C75.053 125.1 74.9606 124.48 74.9062 123.904C76.9334 128.029 85.493 128.719 90.1234 123.518C90.1125 123.518 90.6995 123.883 91.4495 124.377Z" fill="#542633"/>
<path d="M93.1879 123.143C91.8945 120.839 90.4108 121.828 90.1228 123.176C89.8347 124.524 92.563 127.774 93.226 126.616C93.889 125.459 93.1879 123.143 93.1879 123.143Z" fill="#F4B8AB"/>
<path opacity="0.53" d="M93.0622 123.768C91.9155 122.589 91.3611 123.084 91.4318 124.312C91.5024 125.54 93.0187 126.421 93.497 126.062C93.9752 125.703 93.0622 123.768 93.0622 123.768Z" fill="#DD6595"/>
<path d="M131.161 169.105C130.557 170.306 114.905 172.713 110.895 171.914C106.884 171.115 103.672 165.289 103.672 165.289V180.74H73.5692C73.5692 180.74 70.6453 166.539 69.0149 157.045C68.3465 153.137 67.8899 150.029 67.928 149.034C67.9373 147.763 68.219 146.508 68.7541 145.355C68.8471 145.152 68.9759 144.968 69.1345 144.812C70.4673 142.701 72.2609 140.92 74.3807 139.602C76.5004 138.285 78.8912 137.464 81.3734 137.203L81.5745 134.594C88.5961 133.192 93.6124 134.594 93.8134 135.801C93.9304 136.592 93.9304 137.396 93.8134 138.187C93.8134 138.187 102.243 136.013 108.264 144.627C114.286 153.241 116.693 160.072 116.693 160.072C116.693 160.072 128.106 162.485 129.536 163.876C130.133 164.502 130.599 165.241 130.905 166.05C131.383 167.197 131.514 168.371 131.161 169.105Z" fill="#FF6C37"/>
<path opacity="0.38" d="M131.158 169.105C130.555 170.306 114.903 172.713 110.892 171.914C106.881 171.115 103.67 165.289 103.67 165.289V180.74H73.5668C73.5668 180.74 70.643 166.539 69.0126 157.045L68.7734 145.355C68.7734 145.355 76.1211 145.6 87.3764 145.676C98.6316 145.752 99.2458 152.741 102.305 156.931C105.365 161.121 107.36 168.262 112.8 168.344C118.24 168.425 129.647 169.338 130.789 166.088L130.925 166.056C131.381 167.197 131.512 168.371 131.158 169.105Z" fill="#8E253E"/>
<path d="M128.506 229.337C128.446 229.653 128.386 229.957 128.321 230.25H116.414L111.522 201.593H90.1043L84.0501 193.914L73.5938 180.729H103.669H105.088C113.294 180.876 126.077 182.305 128.049 186.273C128.756 187.702 129.283 192.017 129.571 197.501C130.12 207.724 129.865 221.973 128.506 229.337Z" fill="#252525"/>
<path d="M128.51 229.337L127.467 230.25H116.418L111.527 201.593H90.1089L84.0547 193.914L84.5982 185.126L88.6796 180.729H103.674H105.092C103.397 195.224 113.935 199.006 120.679 198.637C123.668 198.469 126.641 198.09 129.576 197.501C130.125 207.724 129.869 221.973 128.51 229.337Z" fill="black"/>
<path d="M128.24 237.158H116.376L115.289 230.256H129.327L128.24 237.158Z" fill="#252525"/>
<path d="M89.4743 237.158H77.6104L76.5234 230.256H90.5612L89.4743 237.158Z" fill="#252525"/>
<path d="M69.394 241.446H68.3125V245.5H69.394V241.446Z" fill="#55597C"/>
<path d="M77.0659 241.446H75.9844V245.5H77.0659V241.446Z" fill="#55597C"/>
<path d="M84.7378 241.446H83.6562V245.5H84.7378V241.446Z" fill="#55597C"/>
<path d="M74.0088 148.36H86.4434C89.9473 148.36 93.3078 149.752 95.7855 152.23C98.2631 154.708 99.6551 158.068 99.6551 161.572V197.767C99.6551 198.776 99.2543 199.744 98.5408 200.457C97.8274 201.171 96.8598 201.571 95.8508 201.571H64.6285C63.6195 201.571 62.6519 201.171 61.9385 200.457C61.225 199.744 60.8242 198.776 60.8242 197.767V161.572C60.8242 158.073 62.2124 154.717 64.6842 152.24C67.156 149.763 70.5095 148.368 74.0088 148.36Z" fill="#FFC55A"/>
<path d="M74.0088 148.36H86.4434C89.9473 148.36 93.3078 149.752 95.7855 152.23C98.2631 154.708 99.6551 158.068 99.6551 161.572V197.767C99.6551 198.776 99.2543 199.744 98.5408 200.457C97.8274 201.171 96.8598 201.571 95.8508 201.571H64.6285C63.6195 201.571 62.6519 201.171 61.9385 200.457C61.225 199.744 60.8242 198.776 60.8242 197.767V161.572C60.8242 158.073 62.2124 154.717 64.6842 152.24C67.156 149.763 70.5095 148.368 74.0088 148.36Z" fill="#F49947"/>
<path d="M67.3564 148.36H79.791C81.526 148.36 83.244 148.702 84.8469 149.366C86.4498 150.03 87.9063 151.003 89.1331 152.23C90.3599 153.457 91.3331 154.913 91.9971 156.516C92.661 158.119 93.0028 159.837 93.0028 161.572V197.767C93.0028 198.776 92.6019 199.744 91.8885 200.457C91.1751 201.171 90.2074 201.571 89.1985 201.571H57.9762C56.9672 201.571 55.9996 201.171 55.2861 200.457C54.5727 199.744 54.1719 198.776 54.1719 197.767V161.572C54.1719 158.073 55.5601 154.717 58.0319 152.24C60.5037 149.763 63.8572 148.368 67.3564 148.36Z" fill="#FFC55A"/>
<path d="M102.06 201.599H68.3053C66.1562 201.599 64.4141 203.341 64.4141 205.49C64.4141 207.639 66.1562 209.381 68.3053 209.381H102.06C104.209 209.381 105.951 207.639 105.951 205.49C105.951 203.341 104.209 201.599 102.06 201.599Z" fill="#F49947"/>
<path d="M92.1539 201.599H58.3991C56.25 201.599 54.5078 203.341 54.5078 205.49C54.5078 207.639 56.25 209.381 58.3991 209.381H92.1539C94.303 209.381 96.0452 207.639 96.0452 205.49C96.0452 203.341 94.303 201.599 92.1539 201.599Z" fill="#FFC55A"/>
<path d="M78.1764 212.528H75.0352V240.212H78.1764V212.528Z" fill="#14161E"/>
<path d="M70.6211 209.376H82.2242V211.348C82.2242 211.661 82.0999 211.961 81.8787 212.182C81.6576 212.404 81.3576 212.528 81.0448 212.528H71.8059C71.4931 212.528 71.1931 212.404 70.9719 212.182C70.7508 211.961 70.6265 211.661 70.6265 211.348V209.376H70.6211Z" fill="#1F202D"/>
<path d="M85.6731 239.516H67.168V242.272H85.6731V239.516Z" fill="#1F202D"/>
<path d="M74.9875 179.028H70.8789V209.376H74.9875V179.028Z" fill="#2A2B3D"/>
<path d="M75.5102 173.338H70.3527C69.1461 173.338 68.168 174.316 68.168 175.523V181.74C68.168 182.947 69.1461 183.925 70.3527 183.925H75.5102C76.7168 183.925 77.695 182.947 77.695 181.74V175.523C77.695 174.316 76.7168 173.338 75.5102 173.338Z" fill="#1F202D"/>
<path d="M73.1338 175.979H72.7316C71.525 175.979 70.5469 176.958 70.5469 178.164V179.094C70.5469 180.3 71.525 181.278 72.7316 181.278H73.1338C74.3404 181.278 75.3185 180.3 75.3185 179.094V178.164C75.3185 176.958 74.3404 175.979 73.1338 175.979Z" fill="#2A2B3D"/>
<path d="M70.5297 245.772C70.5297 246.105 70.4309 246.431 70.2457 246.708C70.0606 246.985 69.7975 247.201 69.4896 247.328C69.1818 247.456 68.843 247.489 68.5162 247.424C68.1894 247.359 67.8892 247.199 67.6536 246.963C67.418 246.728 67.2575 246.427 67.1925 246.1C67.1275 245.774 67.1609 245.435 67.2884 245.127C67.4159 244.819 67.6319 244.556 67.9089 244.371C68.186 244.186 68.5117 244.087 68.8449 244.087C69.0662 244.087 69.2852 244.131 69.4896 244.215C69.694 244.3 69.8798 244.424 70.0362 244.581C70.1927 244.737 70.3168 244.923 70.4014 245.127C70.4861 245.331 70.5297 245.551 70.5297 245.772Z" fill="#14161E"/>
<path d="M78.2055 245.772C78.2055 246.105 78.1066 246.431 77.9215 246.708C77.7364 246.985 77.4733 247.201 77.1654 247.328C76.8576 247.456 76.5188 247.489 76.192 247.424C75.8652 247.359 75.565 247.199 75.3294 246.963C75.0938 246.728 74.9333 246.427 74.8683 246.1C74.8033 245.774 74.8367 245.435 74.9642 245.127C75.0917 244.819 75.3076 244.556 75.5847 244.371C75.8618 244.186 76.1875 244.087 76.5207 244.087C76.7419 244.087 76.961 244.131 77.1654 244.215C77.3698 244.3 77.5556 244.424 77.712 244.581C77.8684 244.737 77.9925 244.923 78.0772 245.127C78.1619 245.331 78.2055 245.551 78.2055 245.772Z" fill="#14161E"/>
<path d="M85.8734 245.772C85.8734 246.105 85.7746 246.431 85.5895 246.708C85.4044 246.985 85.1412 247.201 84.8334 247.328C84.5255 247.456 84.1868 247.489 83.86 247.424C83.5332 247.359 83.233 247.199 82.9974 246.963C82.7617 246.728 82.6013 246.427 82.5363 246.1C82.4713 245.774 82.5046 245.435 82.6322 245.127C82.7597 244.819 82.9756 244.556 83.2527 244.371C83.5297 244.186 83.8554 244.087 84.1887 244.087C84.4099 244.087 84.629 244.131 84.8334 244.215C85.0378 244.3 85.2235 244.424 85.38 244.581C85.5364 244.737 85.6605 244.923 85.7452 245.127C85.8298 245.331 85.8734 245.551 85.8734 245.772Z" fill="#14161E"/>
<path d="M43.9399 167.659L27.5 133.823L45.478 116.741" stroke="#61648A" stroke-width="4" stroke-miterlimit="10"/>
<path d="M30.641 133.817C30.6421 134.44 30.4583 135.049 30.113 135.567C29.7676 136.086 29.2762 136.49 28.701 136.729C28.1258 136.968 27.4927 137.03 26.8818 136.909C26.2709 136.788 25.7097 136.488 25.2693 136.048C24.8289 135.607 24.5291 135.046 24.4079 134.435C24.2866 133.824 24.3494 133.191 24.5882 132.616C24.8271 132.041 25.2312 131.549 25.7495 131.204C26.2678 130.859 26.877 130.675 27.4998 130.676C28.3329 130.676 29.1319 131.007 29.721 131.596C30.3101 132.185 30.641 132.984 30.641 133.817Z" fill="#61648A" stroke="#2A2B3D" stroke-width="4" stroke-miterlimit="10"/>
<path d="M44.6521 110.763C44.9884 110.531 45.3683 110.369 45.769 110.287C46.1696 110.206 46.5827 110.207 46.983 110.289C47.3834 110.372 47.7628 110.535 48.0983 110.769C48.4337 111.003 48.7183 111.302 48.9347 111.649L49.5814 112.687L44.6902 115.921L44.0924 115.236C43.8126 114.915 43.6037 114.539 43.4794 114.132C43.3551 113.725 43.3182 113.297 43.371 112.874C43.4239 112.452 43.5653 112.046 43.7861 111.682C44.0069 111.318 44.302 111.005 44.6521 110.763Z" fill="#61648A"/>
<path d="M58.6793 126.524C58.6793 127.048 58.5237 127.561 58.2323 127.997C57.9409 128.433 57.5267 128.773 57.0421 128.974C56.5574 129.175 56.0242 129.227 55.5097 129.125C54.9953 129.023 54.5227 128.77 54.1518 128.399C53.7809 128.028 53.5283 127.556 53.426 127.041C53.3236 126.527 53.3762 125.993 53.5769 125.509C53.7776 125.024 54.1175 124.61 54.5537 124.319C54.9898 124.027 55.5026 123.872 56.0271 123.872C56.7301 123.873 57.4038 124.153 57.9009 124.65C58.3979 125.147 58.6778 125.821 58.6793 126.524Z" fill="#FFC55A"/>
<path d="M44.6914 115.899L49.6424 128.54C49.7216 128.745 49.8416 128.933 49.995 129.09C50.1485 129.248 50.3324 129.373 50.5355 129.458C50.7387 129.543 50.9569 129.586 51.177 129.584C51.3971 129.582 51.6146 129.536 51.8163 129.448C53.9413 128.524 57.7075 126.66 59.6803 124.29C59.9478 123.97 60.0823 123.559 60.056 123.142C60.0297 122.726 59.8447 122.335 59.539 122.051L49.5826 112.665L44.6914 115.899Z" fill="#2A2B3D"/>
<path d="M51.9557 166.366H35.918V168.952H51.9557V166.366Z" fill="#2A2B3D"/>
<path d="M180.745 21.1149H103.887V96.2838H180.745V21.1149Z" fill="#407BFF" fill-opacity="0.12"/>
<path d="M158.22 23.8146C159.97 16.345 155.334 8.87058 147.864 7.11998C140.395 5.36938 132.92 10.0055 131.17 17.4751C129.419 24.9447 134.055 32.4191 141.525 34.1697C148.994 35.9203 156.469 31.2842 158.22 23.8146Z" fill="#263238"/>
<path d="M148.599 14.4729C147.088 12.9959 145.646 11.5879 145.217 10C144.788 11.5879 143.346 12.9959 141.835 14.4729C139.569 16.6877 137 19.1978 137 22.9625C137 24.0181 137.212 25.0633 137.625 26.0386C138.038 27.0139 138.643 27.9002 139.406 28.6467C140.169 29.3932 141.075 29.9853 142.072 30.3894C143.069 30.7934 144.138 31.0013 145.217 31.0013C146.297 31.0013 147.366 30.7934 148.363 30.3894C149.36 29.9853 150.266 29.3932 151.029 28.6467C151.792 27.9002 152.397 27.0139 152.81 26.0386C153.223 25.0633 153.435 24.0181 153.435 22.9625C153.435 19.198 150.866 16.6877 148.599 14.4729ZM140.493 24.8351C139.989 24.8183 138.129 21.6839 141.579 18.3464L143.862 20.785C143.881 20.804 143.897 20.8267 143.907 20.8518C143.917 20.877 143.921 20.9039 143.92 20.9308C143.918 20.9577 143.911 20.984 143.898 21.0079C143.886 21.0319 143.868 21.053 143.847 21.0698C143.302 21.6162 140.98 23.8931 140.691 24.6805C140.632 24.843 140.545 24.8368 140.493 24.8351ZM145.217 28.9662C144.846 28.9662 144.479 28.8947 144.136 28.7559C143.793 28.617 143.481 28.4134 143.219 28.1567C142.957 27.9001 142.748 27.5954 142.606 27.2601C142.464 26.9247 142.391 26.5653 142.391 26.2024C142.402 25.5322 142.651 24.8866 143.096 24.3768C143.605 23.7674 145.217 22.0534 145.217 22.0534C145.217 22.0534 146.804 23.7925 147.335 24.371C147.797 24.8733 148.05 25.5267 148.044 26.2024C148.044 26.9354 147.746 27.6384 147.216 28.1567C146.686 28.675 145.967 28.9662 145.217 28.9662ZM150.627 24.4842C150.566 24.6145 150.428 24.832 150.241 24.8386C149.909 24.8505 149.873 24.6839 149.628 24.3283C149.088 23.5476 144.38 18.736 143.5 17.8055C142.725 16.987 143.391 16.41 143.699 16.1076C144.087 15.7282 145.217 14.6234 145.217 14.6234C145.217 14.6234 148.588 17.7509 149.992 19.8879C151.396 22.0249 150.912 23.874 150.627 24.4842Z" fill="white"/>
<path d="M169.764 48.1419H125V55.7432H169.764V48.1419Z" fill="#263238"/>
<path d="M125 48.1419H117.398V55.7432H125V48.1419Z" fill="white"/>
<path d="M169.764 60.8108H125V67.5676H169.764V60.8108Z" fill="#263238"/>
<path opacity="0.33" d="M169.764 72.6351H147.805V76.0135H169.764V72.6351Z" fill="#61648A"/>
<path d="M125 60.8108H117.398V67.5676H125V60.8108Z" fill="white"/>
<path d="M211.15 27.027H173.988V46.4527H211.15V27.027Z" fill="#FF6C37"/>
<path d="M184.628 43.0743L178.211 54.8987L195.103 44.1184L184.628 43.0743Z" fill="#FF6C37"/>
<path d="M186.657 36.7301C186.658 37.1486 186.536 37.5581 186.305 37.9069C186.074 38.2556 185.744 38.5277 185.358 38.6888C184.971 38.8498 184.546 38.8924 184.136 38.8113C183.725 38.7301 183.348 38.5288 183.052 38.2329C182.756 37.937 182.555 37.5599 182.474 37.1494C182.393 36.7389 182.435 36.3136 182.596 35.9273C182.757 35.5411 183.029 35.2115 183.378 34.9802C183.727 34.7489 184.136 34.6265 184.555 34.6284C185.112 34.6284 185.647 34.8498 186.041 35.244C186.435 35.6381 186.657 36.1727 186.657 36.7301Z" fill="white"/>
<path d="M194.257 36.7399C194.257 37.1575 194.158 37.5657 193.973 37.9129C193.787 38.2602 193.523 38.5308 193.215 38.6906C192.906 38.8504 192.566 38.8923 192.239 38.8108C191.911 38.7293 191.61 38.5282 191.374 38.2329C191.137 37.9376 190.977 37.5614 190.911 37.1518C190.846 36.7422 190.88 36.3177 191.007 35.9318C191.135 35.546 191.352 35.2163 191.63 34.9842C191.907 34.7522 192.234 34.6284 192.568 34.6284C193.016 34.6284 193.446 34.8508 193.763 35.2468C194.079 35.6428 194.257 36.1799 194.257 36.7399Z" fill="white"/>
<path d="M201.435 38.8514C202.135 38.8514 202.702 37.906 202.702 36.7399C202.702 35.5737 202.135 34.6284 201.435 34.6284C200.735 34.6284 200.168 35.5737 200.168 36.7399C200.168 37.906 200.735 38.8514 201.435 38.8514Z" fill="white"/>
<path d="M160.266 233.701C160.919 239.707 161.571 245.826 160.065 246.679C158.56 247.533 150.017 246.679 148.163 246.679C146.31 246.679 146.31 242.783 149.397 241.152C152.484 239.522 153.103 233.701 153.103 233.701H160.266Z" fill="#407BFF"/>
<path d="M197.487 237.152C198.139 243.158 198.998 245.848 197.487 246.679C195.976 247.511 187.438 246.679 185.585 246.679C183.732 246.679 183.732 242.783 186.819 241.152C187.695 240.716 188.443 240.058 188.987 239.244C189.531 238.43 189.854 237.488 189.922 236.511L197.487 237.152Z" fill="#407BFF"/>
<path d="M147.862 89.0733C145.335 94.133 145.645 99.2906 150.688 99.5025C155.732 99.7145 147.862 89.0733 147.862 89.0733Z" fill="#542633"/>
<path d="M148.655 94.3667C150.237 100.579 154.666 106.54 159.655 104.551L160.666 106.497C160.844 106.839 161.087 107.143 161.383 107.392C161.678 107.64 162.02 107.828 162.388 107.944C162.756 108.06 163.143 108.102 163.527 108.068C163.912 108.035 164.286 107.925 164.628 107.747C165.319 107.388 165.84 106.769 166.075 106.026C166.311 105.283 166.242 104.477 165.883 103.785L164.872 101.839C164.872 101.839 167.829 98.258 167.356 95.4917C166.883 92.7254 167.16 95.1113 167.16 95.1113L162.47 85.2582L147.742 92.9102L148.655 94.3667Z" fill="#F4B8AB"/>
<path opacity="0.53" d="M159.656 104.551C161.226 103.883 162.761 103.134 164.254 102.307L160.667 106.497L159.656 104.551Z" fill="#DD6595"/>
<path d="M167.503 93.807C167.34 96.9428 166.536 99.6601 165.932 100.329C164.628 101.736 160.166 103.296 160.166 103.296C158.134 103.024 154.732 101.546 151.954 99.2308C149.02 96.7797 146.813 93.3939 147.742 89.5081C149.324 82.905 159.047 79.7637 164.253 83.856C167.036 86.0354 167.693 90.1983 167.503 93.807Z" fill="#6D3744"/>
<path d="M167.502 93.807C167.339 96.9428 166.534 99.6601 165.931 100.329C164.627 101.736 160.165 103.296 160.165 103.296C158.132 103.024 154.73 101.546 151.953 99.2308C151.959 98.2835 152.322 97.3732 152.969 96.6819C154.899 94.9482 160.551 99.0134 161.828 92.47L163.018 92.0624C163.018 92.0624 165.616 93.0624 167.502 93.807Z" fill="#542633"/>
<path d="M151.34 97.4265C151.405 94.6276 153.28 94.8124 154.22 95.9319C155.16 97.0515 154.22 101.432 153.035 100.682C151.851 99.9319 151.34 97.4265 151.34 97.4265Z" fill="#F4B8AB"/>
<path opacity="0.53" d="M151.777 97.9428C152.261 96.2743 153.022 96.4591 153.549 97.6547C154.076 98.8504 153.114 100.41 152.489 100.312C151.864 100.214 151.777 97.9428 151.777 97.9428Z" fill="#DD6595"/>
<path d="M163.474 85.7256C162.872 86.0078 162.34 86.4217 161.92 86.9367C161.499 87.4518 161.199 88.0547 161.043 88.7011C160.886 89.3475 160.877 90.0208 161.015 90.6712C161.154 91.3217 161.437 91.9327 161.843 92.4591C163.126 94.0896 165.408 93.345 165.408 93.345L163.474 85.7256Z" fill="#FFC55A"/>
<path d="M162.264 89.5679C161.509 85.8723 165.34 82.731 168.688 84.4756C169.561 84.9096 170.246 85.6453 170.617 86.5462C171.873 89.6875 171.797 93.758 175.639 94.3124C175.639 94.3124 171.009 99.2634 166.4 96.2797C163.786 94.5841 162.71 91.7418 162.264 89.5679Z" fill="#6D3744"/>
<path d="M176.09 103.894C183.568 104.024 191.644 113.606 193.921 119.893C196.198 126.181 190.193 133.817 190.193 133.817L176.09 103.894Z" fill="#3D64C1"/>
<path d="M130.793 138.975C127.57 134.85 126.092 134.627 125.07 135.415C124.048 136.203 120.179 138.442 119.499 138.975C118.82 139.507 119.613 140.301 120.863 140.062L122.113 139.833C122.113 139.833 121.554 142.828 123.021 144.17C124.488 145.513 129.162 143.6 129.162 143.6L130.793 138.975Z" fill="#F4B8AB"/>
<path d="M189.987 166.36C189.264 169.567 187.27 175.393 184.634 182.392C176.411 204.305 162.102 237.674 162.102 237.674L149.934 236.511L168.085 146.295L168.471 144.371C168.471 144.371 176.536 132.464 182.819 135.132C184.217 135.804 185.406 136.842 186.259 138.138C187.798 140.418 188.924 142.951 189.585 145.621C191.35 152.406 191.488 159.512 189.987 166.36Z" fill="black"/>
<path d="M199.103 237.299L188.641 237.674L184.635 182.392L182.82 157.393V138.181H194.749C196.673 140.665 198.336 144.1 199.706 148.355C205.597 166.605 206.13 199.892 199.103 237.299Z" fill="black"/>
<path d="M184.324 183.224L194.438 164.735L185.384 192.746L184.324 183.224Z" fill="black"/>
<path d="M199.705 148.355C199.542 148.273 195.977 146.589 189.586 145.638C187.343 145.323 185.084 145.142 182.819 145.094C177.879 144.977 172.94 145.385 168.086 146.312L168.472 144.388C168.472 144.388 176.537 132.48 182.819 135.149C184.217 135.82 185.407 136.859 186.26 138.154H194.749C196.672 140.654 198.335 144.1 199.705 148.355Z" fill="black"/>
<path d="M194.745 138.181L168.468 144.393L159.724 132.785C159.724 132.785 155.001 143.98 151.865 145.638C148.73 147.295 128.915 144.6 128.915 144.6C128.398 144.013 128.371 142.877 128.507 141.654C128.752 140.054 129.158 138.482 129.719 136.964L145.262 135.491C145.262 135.491 149.969 122.817 151.86 116.736C153.751 110.655 157.751 109.774 157.751 109.774C157.793 109.131 157.78 108.486 157.713 107.845C157.594 107.41 164.066 102.617 168.463 102.617L169.485 103.546C169.485 103.546 173.626 101.747 179.006 105.475C181.838 107.432 186.039 116.345 189.387 124.399C192.414 131.66 194.745 138.181 194.745 138.181Z" fill="#407BFF"/>
<path opacity="0.36" d="M194.745 138.181L168.468 144.393L159.724 132.785C159.724 132.785 155.001 143.98 151.865 145.638C148.73 147.295 128.915 144.6 128.915 144.6C128.398 144.013 128.371 142.877 128.507 141.654C134.002 139.149 147.681 145.36 151.083 140.98C154.485 136.6 158.077 124.241 159.724 127.714C161.371 131.187 164.735 136.41 168.898 137.323C173.061 138.236 190.18 133.817 189.387 124.404C192.414 131.66 194.745 138.181 194.745 138.181Z" fill="#383952"/>
<path d="M86.795 28H46.205C43.3304 28 41 30.349 41 33.2466V86.7534C41 89.651 43.3304 92 46.205 92H86.795C89.6696 92 92 89.651 92 86.7534V33.2466C92 30.349 89.6696 28 86.795 28Z" fill="#25353A"/>
<path d="M50.2109 38.3433H66.0198" stroke="white" stroke-width="1.15984" stroke-linecap="round" stroke-linejoin="round"/>
<path d="M50.2109 41.686H61.0989" stroke="white" stroke-width="1.15984" stroke-linecap="round" stroke-linejoin="round"/>
<path d="M63.5195 41.686H68.4049" stroke="#407BFF" stroke-width="1.15984" stroke-linecap="round" stroke-linejoin="round"/>
<path d="M70.6484 41.686H73.8049" stroke="white" stroke-width="1.15984" stroke-linecap="round" stroke-linejoin="round"/>
<path d="M74.9766 45.0286H81.8392" stroke="white" stroke-width="1.15984" stroke-linecap="round" stroke-linejoin="round"/>
<path d="M64.957 45.0286H72.6708" stroke="white" stroke-width="1.15984" stroke-linecap="round" stroke-linejoin="round"/>
<path d="M50.2109 45.0286H63.0673" stroke="#FF6C37" stroke-width="1.15984" stroke-linecap="round" stroke-linejoin="round"/>
<path d="M57.2891 48.3713H69.6223" stroke="white" stroke-width="1.15984" stroke-linecap="round" stroke-linejoin="round"/>
<path d="M50.2109 48.3713H55.0963" stroke="white" stroke-width="1.15984" stroke-linecap="round" stroke-linejoin="round"/>
<path d="M54.582 55.6949H66.0197" stroke="#FF6C37" stroke-width="1.15984" stroke-linecap="round" stroke-linejoin="round"/>
<path d="M50.2109 59.0376H61.0989" stroke="white" stroke-width="1.15984" stroke-linecap="round" stroke-linejoin="round"/>
<path d="M63.5195 59.0376H65.9578" stroke="#407BFF" stroke-width="1.15984" stroke-linecap="round" stroke-linejoin="round"/>
<path d="M76.3047 62.3802H81.8373" stroke="white" stroke-width="1.15984" stroke-linecap="round" stroke-linejoin="round"/>
<path d="M50.2109 62.3802H73.8045" stroke="#F8E6DA" stroke-width="1.15984" stroke-linecap="round" stroke-linejoin="round"/>
<path d="M62.0312 65.7229H71.6425" stroke="#407BFF" stroke-width="1.15984" stroke-linecap="round" stroke-linejoin="round"/>
<path d="M50.2109 65.7229H58.8291" stroke="white" stroke-width="1.15984" stroke-linecap="round" stroke-linejoin="round"/>
<path d="M50.2109 73.0465H66.0198" stroke="white" stroke-width="1.15984" stroke-linecap="round" stroke-linejoin="round"/>
<path d="M50.2109 76.3892H61.0989" stroke="#FF6C37" stroke-width="1.15984" stroke-linecap="round" stroke-linejoin="round"/>
<path d="M63.5195 76.3892H74.975" stroke="#407BFF" stroke-width="1.15984" stroke-linecap="round" stroke-linejoin="round"/>
<path d="M77.8047 76.3892H82.5216" stroke="white" stroke-width="1.15984" stroke-linecap="round" stroke-linejoin="round"/>
<path d="M50.2109 79.7318H56.6391" stroke="white" stroke-width="1.15984" stroke-linecap="round" stroke-linejoin="round"/>
<path d="M101.492 80.7854H79.7148V95.8721H101.492V80.7854Z" fill="#407BFF"/>
<path d="M82.6035 87.7573L87.3555 85.2793V86.3353C87.3555 86.4153 87.3355 86.4893 87.2955 86.5573C87.2555 86.6213 87.1895 86.6773 87.0975 86.7253L84.9195 87.8413C84.8275 87.8893 84.7295 87.9313 84.6255 87.9673C84.5255 87.9993 84.4175 88.0293 84.3015 88.0573C84.4175 88.0853 84.5255 88.1173 84.6255 88.1533C84.7295 88.1853 84.8275 88.2253 84.9195 88.2733L87.0975 89.3953C87.1895 89.4433 87.2555 89.5013 87.2955 89.5693C87.3355 89.6333 87.3555 89.7053 87.3555 89.7853V90.8413L82.6035 88.3573V87.7573ZM90.0385 92.1193C90.0025 92.2113 89.9565 92.2913 89.9005 92.3593C89.8445 92.4273 89.7805 92.4833 89.7085 92.5273C89.6365 92.5753 89.5605 92.6113 89.4805 92.6353C89.4005 92.6593 89.3225 92.6713 89.2465 92.6713H88.6225L92.1265 83.7073C92.1945 83.5393 92.2925 83.4113 92.4205 83.3233C92.5485 83.2313 92.7025 83.1853 92.8825 83.1853H93.5125L90.0385 92.1193ZM94.7451 90.8413V89.7853C94.7451 89.7053 94.7651 89.6333 94.8051 89.5693C94.8451 89.5013 94.9111 89.4433 95.0031 89.3953L97.1811 88.2733C97.3571 88.1853 97.5631 88.1133 97.7991 88.0573C97.6831 88.0293 97.5731 87.9993 97.4691 87.9673C97.3691 87.9313 97.2731 87.8893 97.1811 87.8413L95.0031 86.7253C94.9111 86.6773 94.8451 86.6213 94.8051 86.5573C94.7651 86.4893 94.7451 86.4153 94.7451 86.3353V85.2793L99.4971 87.7573V88.3573L94.7451 90.8413Z" fill="white"/>
</g>
<defs>
<clipPath id="clip0_1310_22228">
<rect width="238.176" height="250" fill="white"/>
</clipPath>
</defs>
</svg>
