<svg width="258" height="200" viewBox="0 0 258 200" fill="none" xmlns="http://www.w3.org/2000/svg">
<g clip-path="url(#clip0_1216_25182)">
<path d="M214.158 167.097L215.302 165.944C215.415 165.827 215.566 165.754 215.728 165.736C215.889 165.718 216.052 165.757 216.189 165.847C216.472 166.024 216.756 166.192 217.075 166.343C217.214 166.418 217.323 166.538 217.384 166.683C217.445 166.828 217.455 166.99 217.412 167.141L216.995 168.702C216.967 168.792 216.958 168.888 216.968 168.982C216.978 169.077 217.007 169.169 217.053 169.252C217.1 169.334 217.162 169.407 217.238 169.465C217.313 169.523 217.4 169.565 217.492 169.588L220.373 170.36C220.464 170.388 220.56 170.397 220.654 170.387C220.749 170.377 220.84 170.348 220.923 170.302C221.006 170.255 221.079 170.192 221.137 170.117C221.195 170.042 221.237 169.955 221.26 169.863L221.677 168.294C221.717 168.142 221.807 168.009 221.933 167.916C222.058 167.822 222.212 167.774 222.368 167.779H223.291C223.447 167.773 223.602 167.82 223.728 167.914C223.854 168.007 223.944 168.142 223.982 168.294L224.408 169.863C224.43 169.956 224.471 170.043 224.529 170.119C224.586 170.195 224.659 170.259 224.742 170.305C224.826 170.352 224.918 170.381 225.013 170.39C225.108 170.4 225.204 170.389 225.294 170.36L228.167 169.588C228.26 169.566 228.347 169.525 228.423 169.467C228.499 169.41 228.563 169.337 228.609 169.254C228.656 169.17 228.685 169.078 228.694 168.983C228.704 168.888 228.693 168.792 228.664 168.702L228.247 167.141C228.205 166.99 228.216 166.828 228.277 166.684C228.338 166.539 228.446 166.419 228.584 166.343C228.876 166.192 229.16 166.024 229.47 165.847C229.607 165.757 229.769 165.718 229.931 165.736C230.093 165.754 230.244 165.827 230.357 165.944L231.51 167.097C231.575 167.162 231.652 167.214 231.737 167.249C231.823 167.285 231.914 167.303 232.006 167.303C232.098 167.303 232.19 167.285 232.275 167.249C232.36 167.214 232.438 167.162 232.503 167.097L234.604 164.986C234.669 164.921 234.721 164.844 234.757 164.759C234.792 164.674 234.81 164.582 234.81 164.49C234.81 164.398 234.792 164.306 234.757 164.221C234.721 164.136 234.669 164.059 234.604 163.993L233.46 162.85C233.344 162.736 233.269 162.587 233.25 162.425C233.231 162.264 233.267 162.101 233.354 161.963C233.531 161.688 233.7 161.404 233.85 161.076C233.925 160.938 234.045 160.829 234.19 160.768C234.335 160.706 234.497 160.696 234.648 160.739L236.218 161.156C236.309 161.183 236.404 161.192 236.498 161.181C236.592 161.171 236.683 161.141 236.766 161.095C236.848 161.049 236.921 160.986 236.979 160.912C237.037 160.837 237.08 160.751 237.104 160.66L237.876 157.778C237.903 157.687 237.911 157.592 237.901 157.498C237.89 157.404 237.861 157.313 237.815 157.23C237.768 157.147 237.706 157.075 237.631 157.017C237.556 156.959 237.471 156.916 237.379 156.891L235.81 156.475C235.657 156.433 235.522 156.342 235.428 156.215C235.333 156.088 235.283 155.933 235.287 155.774C235.305 155.446 235.305 155.118 235.287 154.79C235.282 154.632 235.331 154.478 235.426 154.352C235.522 154.226 235.657 154.137 235.81 154.099L237.379 153.673C237.471 153.648 237.556 153.606 237.631 153.548C237.706 153.49 237.768 153.417 237.815 153.334C237.861 153.252 237.89 153.161 237.901 153.067C237.911 152.972 237.903 152.877 237.876 152.786L237.104 149.905C237.08 149.813 237.037 149.728 236.979 149.653C236.921 149.578 236.848 149.516 236.766 149.469C236.683 149.423 236.592 149.394 236.498 149.383C236.404 149.373 236.309 149.381 236.218 149.408L234.648 149.834C234.496 149.874 234.334 149.862 234.189 149.8C234.044 149.737 233.925 149.627 233.85 149.488C233.7 149.204 233.531 148.912 233.354 148.601C233.266 148.464 233.228 148.301 233.247 148.139C233.267 147.977 233.342 147.827 233.46 147.715L234.604 146.562C234.669 146.497 234.721 146.42 234.757 146.334C234.792 146.249 234.81 146.158 234.81 146.066C234.81 145.973 234.792 145.882 234.757 145.797C234.721 145.711 234.669 145.634 234.604 145.569L232.503 143.459C232.438 143.393 232.36 143.341 232.275 143.306C232.19 143.271 232.098 143.252 232.006 143.252C231.914 143.252 231.823 143.271 231.737 143.306C231.652 143.341 231.575 143.393 231.51 143.459L230.357 144.611C230.246 144.731 230.095 144.807 229.932 144.825C229.769 144.843 229.605 144.802 229.47 144.709C229.187 144.532 228.903 144.372 228.584 144.212C228.446 144.136 228.338 144.017 228.277 143.872C228.216 143.727 228.205 143.566 228.247 143.414L228.664 141.854C228.693 141.763 228.704 141.667 228.694 141.572C228.685 141.477 228.656 141.385 228.609 141.302C228.563 141.219 228.499 141.146 228.423 141.088C228.347 141.031 228.26 140.99 228.167 140.967L225.294 140.196C225.204 140.166 225.108 140.156 225.013 140.165C224.918 140.175 224.826 140.204 224.742 140.25C224.659 140.297 224.586 140.36 224.529 140.436C224.471 140.512 224.43 140.6 224.408 140.692L223.982 142.262C223.942 142.414 223.852 142.548 223.727 142.643C223.602 142.738 223.448 142.788 223.291 142.785C222.96 142.767 222.628 142.767 222.297 142.785C222.141 142.787 221.988 142.736 221.862 142.641C221.737 142.547 221.647 142.413 221.606 142.262L221.189 140.692C221.166 140.6 221.124 140.514 221.066 140.438C221.008 140.363 220.935 140.3 220.853 140.254C220.77 140.207 220.678 140.178 220.583 140.168C220.489 140.158 220.393 140.168 220.303 140.196L217.421 140.967C217.329 140.992 217.244 141.034 217.169 141.093C217.094 141.151 217.032 141.223 216.986 141.306C216.939 141.389 216.91 141.48 216.9 141.574C216.889 141.668 216.898 141.763 216.924 141.854L217.341 143.423C217.384 143.574 217.373 143.734 217.312 143.877C217.251 144.021 217.142 144.139 217.004 144.212C216.712 144.372 216.428 144.532 216.118 144.709C215.983 144.802 215.819 144.843 215.656 144.825C215.493 144.807 215.342 144.731 215.231 144.611L214.087 143.459C214.022 143.393 213.945 143.341 213.859 143.306C213.774 143.271 213.683 143.252 213.591 143.252C213.498 143.252 213.407 143.271 213.322 143.306C213.237 143.341 213.159 143.393 213.094 143.459L211.055 145.711C210.989 145.776 210.938 145.853 210.902 145.939C210.867 146.024 210.848 146.115 210.848 146.207C210.848 146.3 210.867 146.391 210.902 146.476C210.938 146.561 210.989 146.639 211.055 146.704L212.199 147.857C212.317 147.969 212.392 148.119 212.411 148.281C212.431 148.443 212.393 148.606 212.305 148.743C212.128 149.018 211.959 149.311 211.808 149.63C211.734 149.769 211.615 149.879 211.47 149.942C211.325 150.004 211.163 150.016 211.011 149.976L209.441 149.55C209.35 149.523 209.255 149.515 209.161 149.525C209.067 149.536 208.976 149.565 208.893 149.611C208.81 149.658 208.738 149.72 208.68 149.795C208.622 149.869 208.579 149.955 208.555 150.047L207.783 152.928C207.756 153.019 207.748 153.114 207.758 153.208C207.769 153.303 207.798 153.394 207.844 153.476C207.891 153.559 207.953 153.631 208.028 153.69C208.103 153.748 208.188 153.79 208.28 153.815L209.849 154.24C210.004 154.276 210.141 154.364 210.237 154.491C210.332 154.617 210.38 154.774 210.372 154.932C210.372 155.257 210.372 155.585 210.372 155.916C210.379 156.075 210.331 156.232 210.235 156.36C210.14 156.487 210.004 156.578 209.849 156.617L208.28 157.033C208.188 157.058 208.103 157.1 208.028 157.159C207.953 157.217 207.891 157.289 207.844 157.372C207.798 157.455 207.769 157.546 207.758 157.64C207.748 157.734 207.756 157.829 207.783 157.92L208.555 160.802C208.579 160.893 208.622 160.979 208.68 161.053C208.738 161.128 208.81 161.191 208.893 161.237C208.976 161.283 209.067 161.312 209.161 161.323C209.255 161.333 209.35 161.325 209.441 161.298L211.011 160.881C211.162 160.838 211.324 160.848 211.469 160.909C211.614 160.971 211.734 161.08 211.808 161.218C211.959 161.511 212.128 161.795 212.305 162.105C212.392 162.243 212.428 162.406 212.409 162.567C212.389 162.728 212.315 162.878 212.199 162.992L211.055 164.135C210.989 164.2 210.938 164.278 210.902 164.363C210.867 164.448 210.848 164.54 210.848 164.632C210.848 164.724 210.867 164.815 210.902 164.901C210.938 164.986 210.989 165.063 211.055 165.128L213.165 167.239C213.239 167.296 213.324 167.337 213.414 167.361C213.505 167.385 213.599 167.39 213.691 167.377C213.784 167.364 213.873 167.332 213.953 167.284C214.033 167.236 214.103 167.172 214.158 167.097ZM216.322 148.894C217.6 147.617 219.229 146.747 221.002 146.395C222.775 146.044 224.612 146.225 226.282 146.918C227.952 147.61 229.379 148.782 230.383 150.285C231.387 151.788 231.922 153.555 231.922 155.362C231.922 157.169 231.387 158.936 230.383 160.439C229.379 161.942 227.952 163.114 226.282 163.806C224.612 164.499 222.775 164.68 221.002 164.328C219.229 163.977 217.6 163.107 216.322 161.83C214.607 160.114 213.644 157.788 213.644 155.362C213.644 152.936 214.607 150.61 216.322 148.894Z" fill="#407BFF"/>
<path d="M50.6362 96.8391H47.8432C47.5778 96.8407 47.3192 96.7547 47.1075 96.5944C46.8959 96.4341 46.7431 96.2085 46.6729 95.9524C46.5487 95.3939 46.4069 94.853 46.2384 94.3122C46.1612 94.0524 46.1744 93.7742 46.2759 93.5229C46.3774 93.2717 46.5611 93.0623 46.797 92.929L49.2087 91.537C49.3461 91.4589 49.4665 91.3543 49.563 91.2291C49.6594 91.104 49.7299 90.9608 49.7704 90.8081C49.8109 90.6553 49.8204 90.496 49.7986 90.3395C49.7767 90.1831 49.7239 90.0325 49.6431 89.8967L47.0896 85.4635C46.9283 85.1874 46.6648 84.9861 46.3561 84.9031C46.0473 84.8201 45.7183 84.8622 45.4404 85.0201L43.0199 86.4122C42.7879 86.5505 42.5157 86.6058 42.2482 86.5687C41.9806 86.5316 41.7337 86.4045 41.5481 86.2082C41.1668 85.7915 40.7678 85.3925 40.3511 85.0024C40.1549 84.817 40.027 84.5707 39.9884 84.3035C39.9498 84.0364 40.0026 83.764 40.1383 83.5306L41.5303 81.0834C41.6883 80.8055 41.7304 80.4765 41.6474 80.1678C41.5644 79.8591 41.3631 79.5955 41.087 79.4343L36.6538 76.8719C36.3759 76.7139 36.0469 76.6718 35.7382 76.7548C35.4295 76.8378 35.1659 77.0392 35.0047 77.3152L33.6126 79.7269C33.4797 79.961 33.2718 80.1434 33.0224 80.2447C32.7731 80.3461 32.4968 80.3604 32.2383 80.2855C31.6975 80.117 31.1478 79.9663 30.598 79.8421C30.3397 79.7761 30.1114 79.6244 29.9503 79.4118C29.7893 79.1992 29.7051 78.9384 29.7114 78.6718V75.8877C29.7114 75.5679 29.5844 75.2612 29.3582 75.0351C29.1321 74.8089 28.8254 74.6819 28.5056 74.6819H23.363C23.0432 74.6819 22.7365 74.8089 22.5104 75.0351C22.2842 75.2612 22.1572 75.5679 22.1572 75.8877V78.6718C22.1619 78.938 22.0771 79.1981 21.9163 79.4103C21.7555 79.6226 21.5281 79.7746 21.2706 79.8421C20.712 79.9663 20.1623 80.117 19.6214 80.2855C19.3629 80.3604 19.0866 80.3461 18.8373 80.2447C18.5879 80.1434 18.38 79.961 18.2471 79.7269L16.8551 77.3152C16.6938 77.0392 16.4303 76.8378 16.1215 76.7548C15.8128 76.6718 15.4838 76.7139 15.2059 76.8719L10.7727 79.4343C10.6351 79.5133 10.5145 79.6187 10.4178 79.7444C10.321 79.8701 10.25 80.0137 10.2088 80.1669C10.1676 80.3201 10.1571 80.4799 10.1778 80.6372C10.1985 80.7945 10.25 80.9461 10.3294 81.0834L11.7214 83.4951C11.8571 83.7285 11.91 84.0009 11.8713 84.2681C11.8327 84.5353 11.7049 84.7816 11.5086 84.9669C11.1008 85.3571 10.6929 85.7561 10.3117 86.1728C10.1269 86.3704 9.87988 86.4986 9.6119 86.5357C9.34392 86.5728 9.07133 86.5167 8.83983 86.3767L6.41929 84.9847C6.14272 84.8271 5.81508 84.7853 5.5078 84.8684C5.20053 84.9514 4.93855 85.1526 4.779 85.428L2.21661 89.8612C2.05905 90.1378 2.01724 90.4654 2.10029 90.7727C2.18333 91.08 2.3845 91.3419 2.65993 91.5015L5.0716 92.8935C5.30591 93.0282 5.48777 93.2381 5.58758 93.4893C5.68739 93.7404 5.69928 94.0179 5.62131 94.2767C5.45285 94.8175 5.31099 95.3584 5.18686 95.917C5.11795 96.1738 4.96551 96.4003 4.75359 96.5608C4.54168 96.7214 4.28234 96.8068 4.01649 96.8036H1.20583C0.886027 96.8036 0.579319 96.9307 0.353181 97.1568C0.127043 97.3829 0 97.6896 0 98.0095V103.152C0 103.472 0.127043 103.778 0.353181 104.005C0.579319 104.231 0.886027 104.358 1.20583 104.358H3.98989C4.25574 104.355 4.51508 104.44 4.72699 104.601C4.93891 104.761 5.09135 104.988 5.16026 105.244C5.28439 105.803 5.42625 106.344 5.59472 106.885C5.67268 107.144 5.66079 107.421 5.56098 107.672C5.46117 107.923 5.27931 108.133 5.045 108.268L2.63333 109.66C2.3579 109.819 2.15673 110.081 2.07369 110.389C1.99064 110.696 2.03245 111.024 2.19001 111.3L4.75241 115.733C4.91195 116.009 5.17393 116.21 5.4812 116.293C5.78848 116.376 6.11612 116.334 6.39269 116.177L8.81323 114.785C9.04473 114.645 9.31732 114.589 9.5853 114.626C9.85328 114.663 10.1003 114.791 10.2851 114.989C10.6663 115.405 11.0742 115.804 11.482 116.195C11.6783 116.38 11.8061 116.626 11.8447 116.893C11.8834 117.161 11.8305 117.433 11.6948 117.666L10.3028 120.078C10.2234 120.215 10.1719 120.367 10.1512 120.524C10.1305 120.682 10.141 120.841 10.1822 120.995C10.2234 121.148 10.2944 121.291 10.3912 121.417C10.4879 121.543 10.6086 121.648 10.7461 121.727L15.1793 124.29C15.4572 124.448 15.7862 124.49 16.095 124.407C16.4037 124.324 16.6672 124.122 16.8285 123.846L18.2205 121.435C18.3534 121.2 18.5613 121.018 18.8107 120.917C19.06 120.815 19.3363 120.801 19.5948 120.876C20.1357 121.044 20.6854 121.195 21.244 121.319C21.5015 121.387 21.7289 121.539 21.8897 121.751C22.0505 121.963 22.1353 122.223 22.1306 122.49V125.318C22.1306 125.476 22.1618 125.633 22.2224 125.779C22.283 125.926 22.3718 126.059 22.4838 126.171C22.5958 126.283 22.7287 126.371 22.875 126.432C23.0213 126.493 23.1781 126.524 23.3364 126.524H28.4524C28.6129 126.527 28.7726 126.499 28.922 126.44C29.0714 126.381 29.2075 126.293 29.3223 126.18C29.4371 126.068 29.5283 125.934 29.5905 125.786C29.6528 125.638 29.6848 125.479 29.6848 125.318V122.534C29.6785 122.267 29.7627 122.007 29.9237 121.794C30.0848 121.581 30.3131 121.43 30.5714 121.364C31.1212 121.239 31.6709 121.089 32.2117 120.92C32.4702 120.845 32.7465 120.86 32.9958 120.961C33.2452 121.062 33.4531 121.245 33.586 121.479L34.9781 123.891C35.1393 124.167 35.4029 124.368 35.7116 124.451C36.0203 124.534 36.3493 124.492 36.6272 124.334L41.0604 121.771C41.3365 121.61 41.5378 121.347 41.6208 121.038C41.7038 120.729 41.6617 120.4 41.5037 120.122L40.1028 117.711C39.9671 117.477 39.9143 117.205 39.9529 116.938C39.9916 116.67 40.1194 116.424 40.3156 116.239C40.7324 115.849 41.1314 115.45 41.5126 115.033C41.6982 114.837 41.9452 114.71 42.2127 114.673C42.4803 114.635 42.7525 114.691 42.9844 114.829L45.405 116.221C45.6829 116.379 46.0119 116.421 46.3206 116.338C46.6293 116.255 46.8929 116.054 47.0541 115.778L49.6077 111.345C49.6884 111.209 49.7413 111.058 49.7631 110.902C49.785 110.745 49.7754 110.586 49.7349 110.433C49.6945 110.28 49.624 110.137 49.5275 110.012C49.431 109.887 49.3106 109.782 49.1732 109.704L46.7615 108.312C46.5256 108.179 46.3419 107.97 46.2404 107.718C46.139 107.467 46.1258 107.189 46.2029 106.929C46.3714 106.388 46.5133 105.847 46.6374 105.289C46.7077 105.033 46.8605 104.807 47.0721 104.647C47.2837 104.486 47.5423 104.4 47.8078 104.402H50.6007C50.7658 104.407 50.9302 104.378 51.0836 104.317C51.2371 104.256 51.3763 104.164 51.4927 104.046C51.6091 103.929 51.7001 103.789 51.7602 103.635C51.8203 103.482 51.8481 103.317 51.842 103.152V98.0361C51.8397 97.7178 51.7116 97.4134 51.4857 97.1891C51.2598 96.9649 50.9544 96.8391 50.6362 96.8391ZM25.9166 116.345C22.8105 116.347 19.7738 115.428 17.1903 113.703C14.6069 111.979 12.5929 109.527 11.4031 106.658C10.2132 103.789 9.90102 100.631 10.5059 97.5848C11.1108 94.5383 12.6056 91.7395 14.8013 89.5426C16.9969 87.3457 19.7948 85.8493 22.841 85.2427C25.8873 84.6361 29.0449 84.9466 31.9147 86.1348C34.7845 87.323 37.2374 89.3356 38.9632 91.9181C40.689 94.5005 41.6101 97.5368 41.6101 100.643C41.5984 104.798 39.9401 108.779 36.9985 111.714C34.0569 114.649 30.0719 116.299 25.9166 116.301V116.345Z" fill="#FF6C37"/>
<path d="M237.594 84.036L238.578 83.0518C238.673 82.9558 238.797 82.8948 238.931 82.8786C239.064 82.8625 239.2 82.8923 239.314 82.9632C239.55 83.1201 239.796 83.2622 240.05 83.3888C240.169 83.4524 240.263 83.5546 240.316 83.6788C240.369 83.8029 240.379 83.9414 240.343 84.0715L239.979 85.4192C239.938 85.5732 239.96 85.737 240.04 85.8749C240.12 86.0128 240.251 86.1135 240.405 86.1551L242.878 86.8201C242.955 86.8414 243.035 86.8473 243.113 86.8374C243.192 86.8275 243.267 86.8019 243.336 86.7623C243.405 86.7226 243.465 86.6697 243.512 86.6065C243.56 86.5433 243.595 86.4712 243.614 86.3945L243.978 85.0468C244.012 84.9165 244.089 84.8017 244.197 84.7211C244.305 84.6406 244.437 84.5991 244.572 84.6035C244.856 84.6035 245.151 84.6035 245.459 84.6035C245.593 84.5991 245.725 84.6406 245.833 84.7211C245.941 84.8017 246.019 84.9165 246.053 85.0468L246.416 86.3945C246.436 86.4712 246.47 86.5433 246.518 86.6065C246.566 86.6697 246.626 86.7226 246.694 86.7623C246.763 86.8019 246.839 86.8275 246.917 86.8374C246.996 86.8473 247.076 86.8414 247.152 86.8201L249.626 86.1551C249.703 86.1356 249.775 86.1009 249.838 86.0531C249.901 86.0053 249.954 85.9453 249.994 85.8768C250.033 85.8082 250.059 85.7324 250.069 85.6538C250.079 85.5752 250.073 85.4954 250.051 85.4192L249.688 84.0715C249.652 83.9414 249.661 83.8029 249.714 83.6788C249.767 83.5546 249.861 83.4524 249.98 83.3888C250.234 83.2622 250.48 83.1201 250.716 82.9632C250.831 82.8923 250.966 82.8625 251.1 82.8786C251.234 82.8948 251.358 82.9558 251.452 83.0518L252.436 84.036C252.493 84.0973 252.561 84.1462 252.638 84.1796C252.714 84.213 252.796 84.2303 252.88 84.2303C252.963 84.2303 253.045 84.213 253.122 84.1796C253.198 84.1462 253.267 84.0973 253.323 84.036L255.096 82.2627C255.156 82.2056 255.204 82.1368 255.237 82.0606C255.27 81.9844 255.287 81.9023 255.287 81.8194C255.287 81.7365 255.27 81.6544 255.237 81.5782C255.204 81.502 255.156 81.4332 255.096 81.3761L254.112 80.3919C254.013 80.2993 253.95 80.1747 253.934 80.0401C253.918 79.9055 253.949 79.7695 254.024 79.656C254.174 79.4166 254.316 79.1683 254.449 78.9201C254.513 78.801 254.615 78.7071 254.739 78.6539C254.863 78.6007 255.002 78.5914 255.132 78.6275L256.471 78.991C256.627 79.0316 256.793 79.0087 256.933 78.9273C257.072 78.8459 257.174 78.7126 257.215 78.5566L257.872 76.0917C257.893 76.0148 257.899 75.9345 257.889 75.8553C257.879 75.7761 257.854 75.6997 257.814 75.6304C257.775 75.5611 257.722 75.5004 257.659 75.4517C257.595 75.4031 257.523 75.3674 257.446 75.3469L256.098 74.9923C255.969 74.9567 255.855 74.879 255.775 74.7714C255.694 74.6638 255.652 74.5324 255.655 74.3982C255.655 74.1145 255.655 73.8189 255.655 73.5116C255.652 73.3773 255.694 73.246 255.775 73.1384C255.855 73.0307 255.969 72.953 256.098 72.9175L257.446 72.554C257.523 72.5345 257.595 72.4998 257.658 72.452C257.721 72.4042 257.774 72.3442 257.814 72.2757C257.853 72.2071 257.879 72.1313 257.889 72.0527C257.899 71.9741 257.893 71.8944 257.872 71.8181L257.215 69.3443C257.195 69.2672 257.159 69.195 257.111 69.1317C257.062 69.0685 257.001 69.0156 256.932 68.976C256.863 68.9364 256.786 68.9109 256.707 68.9011C256.628 68.8913 256.548 68.8973 256.471 68.9188L255.132 69.2823C255.002 69.3167 254.864 69.3066 254.74 69.2536C254.616 69.2006 254.514 69.1077 254.449 68.9897C254.316 68.7414 254.174 68.4932 254.024 68.2538C253.95 68.1384 253.919 68.0013 253.935 67.8656C253.952 67.73 254.014 67.604 254.112 67.509L255.096 66.5248C255.156 66.4677 255.204 66.3989 255.237 66.3227C255.27 66.2465 255.287 66.1644 255.287 66.0815C255.287 65.9986 255.27 65.9165 255.237 65.8403C255.204 65.7641 255.156 65.6953 255.096 65.6382L253.323 63.8649C253.265 63.8059 253.196 63.7591 253.12 63.7271C253.044 63.6951 252.962 63.6786 252.88 63.6786C252.797 63.6786 252.715 63.6951 252.639 63.7271C252.563 63.7591 252.494 63.8059 252.436 63.8649L251.452 64.8491C251.358 64.9451 251.234 65.0061 251.1 65.0223C250.966 65.0384 250.831 65.0086 250.716 64.9377C250.477 64.787 250.229 64.6451 249.98 64.5121C249.861 64.4485 249.767 64.3462 249.714 64.2221C249.661 64.098 249.652 63.9595 249.688 63.8294L250.051 62.4817C250.092 62.3277 250.07 62.1639 249.99 62.026C249.911 61.8881 249.78 61.7874 249.626 61.7458L247.152 61.0897C247.076 61.0683 246.996 61.0624 246.917 61.0724C246.839 61.0823 246.763 61.1078 246.694 61.1475C246.626 61.1871 246.566 61.2401 246.518 61.3033C246.47 61.3664 246.436 61.4385 246.416 61.5153L246.053 62.863C246.017 62.9925 245.939 63.1064 245.832 63.1867C245.724 63.267 245.593 63.3091 245.459 63.3063H244.572C244.438 63.3091 244.306 63.267 244.199 63.1867C244.091 63.1064 244.013 62.9925 243.978 62.863L243.614 61.5153C243.595 61.4385 243.56 61.3664 243.512 61.3033C243.465 61.2401 243.405 61.1871 243.336 61.1475C243.267 61.1078 243.192 61.0823 243.113 61.0724C243.035 61.0624 242.955 61.0683 242.878 61.0897L240.405 61.7458C240.252 61.7894 240.123 61.8905 240.043 62.0278C239.964 62.1651 239.941 62.3278 239.979 62.4817L240.343 63.8294C240.379 63.9595 240.369 64.098 240.316 64.2221C240.263 64.3462 240.169 64.4485 240.05 64.5121C239.802 64.6451 239.554 64.787 239.314 64.9377C239.2 65.0086 239.064 65.0384 238.931 65.0223C238.797 65.0061 238.673 64.9451 238.578 64.8491L237.594 63.8649C237.536 63.8059 237.467 63.7591 237.391 63.7271C237.315 63.6951 237.233 63.6786 237.151 63.6786C237.068 63.6786 236.986 63.6951 236.91 63.7271C236.834 63.7591 236.765 63.8059 236.707 63.8649L234.934 65.6382C234.874 65.6953 234.826 65.7641 234.793 65.8403C234.761 65.9165 234.744 65.9986 234.744 66.0815C234.744 66.1644 234.761 66.2465 234.793 66.3227C234.826 66.3989 234.874 66.4677 234.934 66.5248L235.927 67.509C236.021 67.6065 236.081 67.732 236.097 67.8665C236.113 68.0009 236.084 68.137 236.016 68.2538C235.856 68.4932 235.714 68.7414 235.581 68.9897C235.518 69.1088 235.415 69.2027 235.291 69.2558C235.167 69.309 235.029 69.3184 234.899 69.2823L233.56 68.9188C233.483 68.8973 233.403 68.8913 233.323 68.9011C233.244 68.9109 233.168 68.9364 233.099 68.976C233.029 69.0156 232.969 69.0685 232.92 69.1317C232.871 69.195 232.836 69.2672 232.815 69.3443L232.159 71.8535C232.118 72.0075 232.14 72.1714 232.22 72.3093C232.3 72.4472 232.431 72.5479 232.585 72.5895L233.932 72.953C234.062 72.9885 234.176 73.0662 234.256 73.1738C234.336 73.2814 234.378 73.4128 234.376 73.547C234.376 73.8308 234.376 74.1263 234.376 74.4337C234.378 74.5679 234.336 74.6993 234.256 74.8069C234.176 74.9145 234.062 74.9922 233.932 75.0277L232.585 75.3824C232.507 75.4029 232.435 75.4385 232.372 75.4872C232.309 75.5359 232.256 75.5966 232.216 75.6659C232.177 75.7351 232.151 75.8116 232.141 75.8908C232.131 75.97 232.137 76.0503 232.159 76.1272L232.815 78.592C232.857 78.7481 232.958 78.8814 233.098 78.9628C233.237 79.0441 233.403 79.0671 233.56 79.0265L234.899 78.663C235.029 78.6252 235.168 78.6337 235.292 78.687C235.417 78.7404 235.519 78.8353 235.581 78.9555C235.714 79.2038 235.856 79.4521 236.016 79.6915C236.085 79.8065 236.114 79.9413 236.098 80.0747C236.082 80.208 236.022 80.3321 235.927 80.4274L234.934 81.4116C234.874 81.4687 234.826 81.5375 234.793 81.6137C234.761 81.6899 234.744 81.7719 234.744 81.8549C234.744 81.9378 234.761 82.0199 234.793 82.0961C234.826 82.1723 234.874 82.241 234.934 82.2982L236.707 84.0715C236.766 84.1305 236.837 84.1767 236.914 84.2072C236.992 84.2376 237.075 84.2516 237.159 84.2483C237.242 84.2449 237.324 84.2243 237.399 84.1878C237.474 84.1513 237.54 84.0996 237.594 84.036ZM239.447 68.4222C240.545 67.3254 241.943 66.5786 243.465 66.2762C244.987 65.9739 246.564 66.1296 247.998 66.7236C249.431 67.3177 250.657 68.3234 251.519 69.6137C252.381 70.904 252.841 72.4209 252.841 73.9726C252.841 75.5243 252.381 77.0412 251.519 78.3315C250.657 79.6218 249.431 80.6275 247.998 81.2216C246.564 81.8157 244.987 81.9714 243.465 81.669C241.943 81.3667 240.545 80.6199 239.447 79.523C238.718 78.7943 238.139 77.929 237.745 76.9767C237.35 76.0243 237.147 75.0035 237.147 73.9726C237.147 72.9417 237.35 71.9209 237.745 70.9686C238.139 70.0162 238.718 69.1509 239.447 68.4222Z" fill="#FF6C37"/>
<path d="M221.512 29.738H37.3472C34.4091 29.738 32.0273 32.1198 32.0273 35.0578V153.345C32.0273 156.283 34.4091 158.665 37.3472 158.665H221.512C224.45 158.665 226.832 156.283 226.832 153.345V35.0578C226.832 32.1198 224.45 29.738 221.512 29.738Z" fill="#25353A"/>
<path d="M222.797 149.133V36.441C222.797 34.972 221.606 33.7811 220.137 33.7811L38.7387 33.7811C37.2697 33.7811 36.0788 34.972 36.0788 36.441V149.133C36.0788 150.602 37.2697 151.793 38.7387 151.793H220.137C221.606 151.793 222.797 150.602 222.797 149.133Z" fill="white"/>
<path d="M153.07 158.665H105.785V174.695H153.07V158.665Z" fill="#1C282B"/>
<path d="M160.854 182.71H97.9998C96.9369 182.71 95.9176 182.288 95.166 181.537C94.4144 180.785 93.9922 179.766 93.9922 178.703C93.9922 178.177 94.0958 177.655 94.2972 177.169C94.4987 176.683 94.7938 176.241 95.166 175.869C95.5381 175.497 95.9799 175.202 96.4662 175C96.9524 174.799 97.4735 174.695 97.9998 174.695H160.854C161.38 174.695 161.901 174.799 162.388 175C162.874 175.202 163.316 175.497 163.688 175.869C164.06 176.241 164.355 176.683 164.556 177.169C164.758 177.655 164.862 178.177 164.862 178.703C164.862 179.766 164.439 180.785 163.688 181.537C162.936 182.288 161.917 182.71 160.854 182.71Z" fill="#25353A"/>
<path d="M126.834 53.1985H49.7848C47.3364 53.1985 45.3516 55.1834 45.3516 57.6318V107.594C45.3516 110.042 47.3364 112.027 49.7848 112.027H126.834C129.282 112.027 131.267 110.042 131.267 107.594V57.6318C131.267 55.1834 129.282 53.1985 126.834 53.1985Z" fill="#FFF3EE"/>
<path d="M49.7848 53.1985H126.79C127.965 53.1985 129.093 53.6656 129.924 54.497C130.756 55.3284 131.223 56.456 131.223 57.6318V63.6787H45.3516V57.6318C45.3516 56.456 45.8186 55.3284 46.65 54.497C47.4814 53.6656 48.609 53.1985 49.7848 53.1985Z" fill="#FF6C37"/>
<path d="M52.8164 68.9808H58.3136" stroke="#407BFF" stroke-width="2" stroke-linecap="round" stroke-linejoin="round"/>
<path d="M52.8164 72.3146H74.4239" stroke="#407BFF" stroke-width="2" stroke-linecap="round" stroke-linejoin="round"/>
<path d="M77.5 72.3146H93.9383" stroke="#407BFF" stroke-width="2" stroke-linecap="round" stroke-linejoin="round"/>
<path d="M98.3281 72.3146H109.127" stroke="#407BFF" stroke-width="2" stroke-linecap="round" stroke-linejoin="round"/>
<path d="M52.8164 78.4058H58.3136" stroke="#407BFF" stroke-width="2" stroke-linecap="round" stroke-linejoin="round"/>
<path d="M52.8164 81.7485H76.9774" stroke="#407BFF" stroke-width="2" stroke-linecap="round" stroke-linejoin="round"/>
<path d="M80.418 81.7485H98.7892" stroke="#407BFF" stroke-width="2" stroke-linecap="round" stroke-linejoin="round"/>
<path d="M103.691 81.7485H127.267" stroke="#407BFF" stroke-width="2" stroke-linecap="round" stroke-linejoin="round"/>
<path d="M52.8164 87.8397H58.3136" stroke="#407BFF" stroke-width="2" stroke-linecap="round" stroke-linejoin="round"/>
<path d="M52.8164 91.1735H74.4239" stroke="#407BFF" stroke-width="2" stroke-linecap="round" stroke-linejoin="round"/>
<path d="M77.5 91.1735H87.4038" stroke="#407BFF" stroke-width="2" stroke-linecap="round" stroke-linejoin="round"/>
<path d="M91.793 91.1735H117.843" stroke="#407BFF" stroke-width="2" stroke-linecap="round" stroke-linejoin="round"/>
<path d="M52.8164 97.2647H58.3136" stroke="#407BFF" stroke-width="2" stroke-linecap="round" stroke-linejoin="round"/>
<path d="M52.8164 100.607H74.4239" stroke="#407BFF" stroke-width="2" stroke-linecap="round" stroke-linejoin="round"/>
<path d="M77.5 100.607H93.9383" stroke="#407BFF" stroke-width="2" stroke-linecap="round" stroke-linejoin="round"/>
<path d="M212.449 72.0752H131.286C128.597 72.0752 126.418 74.2545 126.418 76.9429V138.955C126.418 141.643 128.597 143.822 131.286 143.822H212.449C215.137 143.822 217.317 141.643 217.317 138.955V76.9429C217.317 74.2545 215.137 72.0752 212.449 72.0752Z" fill="#B9CFFF"/>
<path d="M182.752 108.601C188.583 102.77 188.583 93.3164 182.752 87.4855C176.921 81.6545 167.467 81.6545 161.636 87.4855C155.805 93.3164 155.805 102.77 161.636 108.601C167.467 114.432 176.921 114.432 182.752 108.601Z" fill="#FF6C37"/>
<path d="M176.433 97.1672L168.25 91.7675C168.09 91.6643 167.905 91.606 167.714 91.5987C167.524 91.5914 167.335 91.6353 167.167 91.7259C167 91.8165 166.86 91.9504 166.761 92.1137C166.663 92.277 166.611 92.4637 166.609 92.6542V103.445C166.608 103.636 166.658 103.825 166.756 103.99C166.853 104.155 166.994 104.29 167.163 104.381C167.331 104.473 167.522 104.516 167.713 104.507C167.905 104.498 168.09 104.438 168.25 104.331L176.433 98.9405C176.582 98.8448 176.704 98.7136 176.788 98.5587C176.872 98.4038 176.917 98.2302 176.917 98.0538C176.917 97.8774 176.872 97.7038 176.788 97.5489C176.704 97.3941 176.582 97.2628 176.433 97.1672Z" fill="#F5F5F5"/>
<path d="M126.418 124.024H217.325V138.955C217.325 140.246 216.813 141.484 215.9 142.397C214.987 143.309 213.749 143.822 212.458 143.822H131.295C130.004 143.822 128.765 143.309 127.853 142.397C126.94 141.484 126.427 140.246 126.427 138.955V124.024H126.418Z" fill="#407BFF"/>
<path d="M133.562 129.219H157.262" stroke="#F5F5F5" stroke-width="3.29537" stroke-linecap="round" stroke-linejoin="round"/>
<path d="M165.059 129.219H204.984" stroke="#F5F5F5" stroke-width="3.29537" stroke-linecap="round" stroke-linejoin="round"/>
<path d="M133.562 137.004H145.408" stroke="#F5F5F5" stroke-width="3.29537" stroke-linecap="round" stroke-linejoin="round"/>
<path d="M151.738 137.004H174.463" stroke="#F5F5F5" stroke-width="3.29537" stroke-linecap="round" stroke-linejoin="round"/>
<path d="M251.311 25.8102H192.314C190.076 25.8102 188.262 27.6243 188.262 29.8621V49.1377C188.262 51.3756 190.076 53.1897 192.314 53.1897H251.311C253.549 53.1897 255.363 51.3756 255.363 49.1377V29.8621C255.363 27.6243 253.549 25.8102 251.311 25.8102Z" fill="#263238"/>
<path d="M215.602 30.6424H248.168" stroke="#DEF1FA" stroke-width="1.73981" stroke-linecap="round" stroke-linejoin="round"/>
<path d="M215.602 43.2H248.168" stroke="#DEF1FA" stroke-width="1.73981" stroke-linecap="round" stroke-linejoin="round"/>
<path d="M215.602 35.0135H244.71" stroke="#DEF1FA" stroke-width="1.73981" stroke-linecap="round" stroke-linejoin="round"/>
<path d="M215.602 47.5711H244.71" stroke="#DEF1FA" stroke-width="1.73981" stroke-linecap="round" stroke-linejoin="round"/>
<path d="M215.602 39.3848H228.644" stroke="#DEF1FA" stroke-width="1.73981" stroke-linecap="round" stroke-linejoin="round"/>
<path d="M195.567 61.0985V53.1897H206.446L197.677 61.9586C197.51 62.1417 197.29 62.2692 197.048 62.3237C196.806 62.3782 196.553 62.3572 196.323 62.2635C196.093 62.1698 195.897 62.0079 195.762 61.7996C195.627 61.5913 195.559 61.3467 195.567 61.0985Z" fill="#263238"/>
<path d="M68.795 105H28.205C25.3304 105 23 107.349 23 110.247V163.753C23 166.651 25.3304 169 28.205 169H68.795C71.6696 169 74 166.651 74 163.753V110.247C74 107.349 71.6696 105 68.795 105Z" fill="#25353A"/>
<path d="M32.2109 115.343H48.0198" stroke="white" stroke-width="1.15984" stroke-linecap="round" stroke-linejoin="round"/>
<path d="M32.2109 118.686H43.0989" stroke="white" stroke-width="1.15984" stroke-linecap="round" stroke-linejoin="round"/>
<path d="M45.5195 118.686H50.4049" stroke="#407BFF" stroke-width="1.15984" stroke-linecap="round" stroke-linejoin="round"/>
<path d="M52.6484 118.686H55.8049" stroke="white" stroke-width="1.15984" stroke-linecap="round" stroke-linejoin="round"/>
<path d="M56.9766 122.029H63.8392" stroke="white" stroke-width="1.15984" stroke-linecap="round" stroke-linejoin="round"/>
<path d="M46.957 122.029H54.6708" stroke="white" stroke-width="1.15984" stroke-linecap="round" stroke-linejoin="round"/>
<path d="M32.2109 122.029H45.0673" stroke="#FF6C37" stroke-width="1.15984" stroke-linecap="round" stroke-linejoin="round"/>
<path d="M39.2891 125.371H51.6223" stroke="white" stroke-width="1.15984" stroke-linecap="round" stroke-linejoin="round"/>
<path d="M32.2109 125.371H37.0963" stroke="white" stroke-width="1.15984" stroke-linecap="round" stroke-linejoin="round"/>
<path d="M36.582 132.695H48.0197" stroke="#FF6C37" stroke-width="1.15984" stroke-linecap="round" stroke-linejoin="round"/>
<path d="M32.2109 136.038H43.0989" stroke="white" stroke-width="1.15984" stroke-linecap="round" stroke-linejoin="round"/>
<path d="M45.5195 136.038H47.9578" stroke="#407BFF" stroke-width="1.15984" stroke-linecap="round" stroke-linejoin="round"/>
<path d="M58.3047 139.38H63.8373" stroke="white" stroke-width="1.15984" stroke-linecap="round" stroke-linejoin="round"/>
<path d="M32.2109 139.38H55.8045" stroke="#F8E6DA" stroke-width="1.15984" stroke-linecap="round" stroke-linejoin="round"/>
<path d="M44.0312 142.723H53.6425" stroke="#407BFF" stroke-width="1.15984" stroke-linecap="round" stroke-linejoin="round"/>
<path d="M32.2109 142.723H40.8291" stroke="white" stroke-width="1.15984" stroke-linecap="round" stroke-linejoin="round"/>
<path d="M32.2109 150.047H48.0198" stroke="white" stroke-width="1.15984" stroke-linecap="round" stroke-linejoin="round"/>
<path d="M32.2109 153.389H43.0989" stroke="#FF6C37" stroke-width="1.15984" stroke-linecap="round" stroke-linejoin="round"/>
<path d="M45.5195 153.389H56.975" stroke="#407BFF" stroke-width="1.15984" stroke-linecap="round" stroke-linejoin="round"/>
<path d="M59.8047 153.389H64.5216" stroke="white" stroke-width="1.15984" stroke-linecap="round" stroke-linejoin="round"/>
<path d="M32.2109 156.732H38.6391" stroke="white" stroke-width="1.15984" stroke-linecap="round" stroke-linejoin="round"/>
<path d="M85.1875 125.85H133.066V152.228C133.066 152.933 132.786 153.61 132.287 154.109C131.788 154.607 131.112 154.888 130.406 154.888H87.8474C87.142 154.888 86.4654 154.607 85.9666 154.109C85.4677 153.61 85.1875 152.933 85.1875 152.228V125.85Z" fill="#F6F9FF"/>
<path d="M87.8474 120.53H130.406C131.112 120.53 131.788 120.81 132.287 121.309C132.786 121.808 133.066 122.485 133.066 123.19V125.85H85.1875V123.19C85.1875 122.841 85.2563 122.495 85.39 122.172C85.5237 121.85 85.7196 121.556 85.9666 121.309C86.2136 121.062 86.5068 120.866 86.8295 120.733C87.1522 120.599 87.4981 120.53 87.8474 120.53Z" fill="#FF6C37"/>
<path d="M193.918 36.1733V35.1733L197.918 33.4119V34.5625L195.179 35.6619L195.216 35.6023V35.7443L195.179 35.6847L197.918 36.7841V37.9347L193.918 36.1733ZM203.505 31.9091L201.63 38.875H200.588L202.463 31.9091H203.505ZM210.176 36.1733L206.176 37.9347V36.7841L208.914 35.6847L208.877 35.7443V35.6023L208.914 35.6619L206.176 34.5625V33.4119L210.176 35.1733V36.1733Z" fill="#FF6C37"/>
<path d="M90.8984 123.19H95.9966" stroke="white" stroke-linecap="round" stroke-linejoin="round"/>
<path d="M97.2188 123.19H99.4354" stroke="white" stroke-linecap="round" stroke-linejoin="round"/>
<path d="M158.78 8.28125H107.355C103.927 8.28125 101.148 11.06 101.148 14.4877V59.7065C101.148 63.1343 103.927 65.913 107.355 65.913H158.78C162.208 65.913 164.987 63.1343 164.987 59.7065V14.4877C164.987 11.06 162.208 8.28125 158.78 8.28125Z" fill="#B9CFFF"/>
<path d="M155.233 13.6721H110.679C108.231 13.6721 106.246 15.6569 106.246 18.1053V40.7147C106.246 43.1631 108.231 45.1479 110.679 45.1479H155.233C157.681 45.1479 159.666 43.1631 159.666 40.7147V18.1053C159.666 15.6569 157.681 13.6721 155.233 13.6721Z" fill="white"/>
<path d="M106.254 33.8431L114.234 25.8633L133.846 45.5202H110.687C109.511 45.5202 108.384 45.0531 107.552 44.2218C106.721 43.3904 106.254 42.2628 106.254 41.087V33.8431Z" fill="#00749A"/>
<path d="M118.438 45.5203L143.432 20.5347L159.888 36.9908V40.7945C159.888 41.9702 159.421 43.0978 158.59 43.9292C157.758 44.7606 156.631 45.2277 155.455 45.2277L118.438 45.5203Z" fill="#407BFF"/>
<path d="M126.93 21.5011C126.932 22.0577 126.768 22.6024 126.46 23.0659C126.152 23.5295 125.713 23.8911 125.199 24.1049C124.685 24.3188 124.119 24.3752 123.573 24.267C123.027 24.1589 122.525 23.891 122.132 23.4974C121.738 23.1038 121.47 22.6021 121.362 22.0561C121.254 21.5101 121.31 20.9442 121.524 20.4303C121.738 19.9163 122.1 19.4774 122.563 19.1693C123.027 18.8611 123.571 18.6975 124.128 18.6993C124.871 18.6993 125.584 18.9945 126.109 19.5199C126.635 20.0454 126.93 20.758 126.93 21.5011Z" fill="#407BFF"/>
<path d="M207.51 188.474C209.102 188.474 210.392 187.183 210.392 185.592C210.392 184.001 209.102 182.71 207.51 182.71C205.919 182.71 204.629 184.001 204.629 185.592C204.629 187.183 205.919 188.474 207.51 188.474Z" fill="#8FB2BF"/>
<path d="M52.3582 200C53.9496 200 55.2397 198.71 55.2397 197.118C55.2397 195.527 53.9496 194.237 52.3582 194.237C50.7667 194.237 49.4766 195.527 49.4766 197.118C49.4766 198.71 50.7667 200 52.3582 200Z" fill="#8FB2BF"/>
<path d="M213.54 194.237H192.083C191.319 194.237 190.586 193.933 190.045 193.393C189.505 192.852 189.201 192.119 189.201 191.355C189.201 190.591 189.505 189.858 190.045 189.318C190.586 188.777 191.319 188.474 192.083 188.474H198.289C199.054 188.474 199.787 188.17 200.327 187.63C200.867 187.089 201.171 186.356 201.171 185.592C201.171 184.828 200.867 184.095 200.327 183.554C199.787 183.014 199.054 182.71 198.289 182.71H45.3347C44.5705 182.71 43.8375 183.014 43.2971 183.554C42.7567 184.095 42.4531 184.828 42.4531 185.592C42.4531 186.356 42.7567 187.089 43.2971 187.63C43.8375 188.17 44.5705 188.474 45.3347 188.474H66.8003C67.5646 188.474 68.2975 188.777 68.8379 189.318C69.3783 189.858 69.6819 190.591 69.6819 191.355C69.6819 192.119 69.3783 192.852 68.8379 193.393C68.2975 193.933 67.5646 194.237 66.8003 194.237H61.5957C60.8315 194.237 60.0986 194.54 59.5581 195.081C59.0177 195.621 58.7141 196.354 58.7141 197.118C58.7141 197.883 59.0177 198.616 59.5581 199.156C60.0986 199.696 60.8315 200 61.5957 200H213.54C214.304 200 215.037 199.696 215.577 199.156C216.118 198.616 216.421 197.883 216.421 197.118C216.421 196.354 216.118 195.621 215.577 195.081C215.037 194.54 214.304 194.237 213.54 194.237ZM109.803 194.237H88.3191C87.5549 194.237 86.822 193.933 86.2816 193.393C85.7412 192.852 85.4376 192.119 85.4376 191.355C85.4376 190.591 85.7412 189.858 86.2816 189.318C86.822 188.777 87.5549 188.474 88.3191 188.474H109.803C110.567 188.474 111.3 188.777 111.84 189.318C112.38 189.858 112.684 190.591 112.684 191.355C112.684 192.119 112.38 192.852 111.84 193.393C111.3 193.933 110.567 194.237 109.803 194.237ZM119.946 194.237C119.376 194.237 118.819 194.068 118.345 193.751C117.871 193.435 117.502 192.984 117.283 192.458C117.065 191.931 117.008 191.352 117.119 190.793C117.231 190.234 117.505 189.721 117.908 189.318C118.311 188.915 118.825 188.64 119.384 188.529C119.942 188.418 120.522 188.475 121.048 188.693C121.575 188.911 122.025 189.28 122.342 189.754C122.658 190.228 122.827 190.785 122.827 191.355C122.828 191.734 122.755 192.109 122.61 192.459C122.466 192.809 122.254 193.128 121.986 193.395C121.718 193.663 121.4 193.875 121.05 194.02C120.7 194.164 120.324 194.238 119.946 194.237ZM179.306 194.237C178.737 194.237 178.179 194.068 177.706 193.751C177.232 193.435 176.862 192.984 176.644 192.458C176.426 191.931 176.369 191.352 176.48 190.793C176.591 190.234 176.866 189.721 177.269 189.318C177.672 188.915 178.185 188.64 178.744 188.529C179.303 188.418 179.883 188.475 180.409 188.693C180.936 188.911 181.386 189.28 181.702 189.754C182.019 190.228 182.188 190.785 182.188 191.355C182.188 191.734 182.113 192.108 181.969 192.458C181.824 192.808 181.612 193.125 181.344 193.393C181.076 193.66 180.759 193.873 180.409 194.017C180.06 194.162 179.685 194.237 179.306 194.237Z" fill="#E0E0E0"/>
<path d="M200.232 0.984192H176.293V16.0571H200.232V0.984192Z" stroke="#FF6C37" stroke-width="2" stroke-linecap="round" stroke-linejoin="round"/>
<path d="M176.293 0.984192L188.263 10.2939L200.232 0.984192H176.293Z" stroke="#FF6C37" stroke-width="2.22288" stroke-linecap="round" stroke-linejoin="round"/>
<path d="M176.293 15.1705L184.14 7.08429" stroke="#FF6C37" stroke-width="2.22288" stroke-linecap="round" stroke-linejoin="round"/>
<path d="M192.395 7.08429L200.232 15.1705" stroke="#FF6C37" stroke-width="2.22288" stroke-linecap="round" stroke-linejoin="round"/>
<path d="M68.3608 22.2281C73.0862 22.2281 76.9169 18.3974 76.9169 13.672C76.9169 8.9466 73.0862 5.11591 68.3608 5.11591C63.6354 5.11591 59.8047 8.9466 59.8047 13.672C59.8047 18.3974 63.6354 22.2281 68.3608 22.2281Z" stroke="#407BFF" stroke-width="2" stroke-linecap="round" stroke-linejoin="round"/>
<path d="M64.5117 14.5409L66.4978 16.527L72.2078 10.817" stroke="#407BFF" stroke-width="2" stroke-linecap="round" stroke-linejoin="round"/>
<path d="M35.4299 16.7221C36.5562 16.7221 37.4692 15.8091 37.4692 14.6828C37.4692 13.5566 36.5562 12.6436 35.4299 12.6436C34.3036 12.6436 33.3906 13.5566 33.3906 14.6828C33.3906 15.8091 34.3036 16.7221 35.4299 16.7221Z" stroke="#FF6C37" stroke-width="2" stroke-miterlimit="10"/>
<path d="M221.864 10.817C221.864 11.2204 221.744 11.6147 221.52 11.95C221.296 12.2854 220.977 12.5467 220.605 12.7011C220.232 12.8554 219.822 12.8958 219.427 12.8171C219.031 12.7385 218.668 12.5442 218.382 12.259C218.097 11.9738 217.903 11.6105 217.824 11.2149C217.746 10.8193 217.786 10.4093 217.94 10.0367C218.095 9.66402 218.356 9.34553 218.691 9.12145C219.027 8.89737 219.421 8.77777 219.824 8.77777C220.365 8.77777 220.884 8.99262 221.266 9.37506C221.649 9.7575 221.864 10.2762 221.864 10.817Z" stroke="#407BFF" stroke-width="2" stroke-miterlimit="10"/>
<path d="M239.536 129.21C239.537 129.614 239.419 130.009 239.196 130.346C238.973 130.682 238.655 130.945 238.283 131.101C237.91 131.257 237.5 131.298 237.104 131.22C236.708 131.143 236.344 130.949 236.057 130.664C235.771 130.38 235.576 130.016 235.497 129.62C235.417 129.225 235.457 128.814 235.611 128.441C235.765 128.068 236.027 127.749 236.362 127.524C236.698 127.3 237.093 127.18 237.496 127.18C238.036 127.18 238.553 127.394 238.935 127.774C239.317 128.155 239.533 128.671 239.536 129.21Z" stroke="#FF6C37" stroke-width="2" stroke-linecap="round" stroke-linejoin="round"/>
<path d="M92.6523 17.4314V21.51" stroke="#FF6C37" stroke-width="2" stroke-linecap="round" stroke-linejoin="round"/>
<path d="M94.683 19.4707H90.6133" stroke="#FF6C37" stroke-width="2" stroke-linecap="round" stroke-linejoin="round"/>
<path d="M244.996 95.2254V99.304" stroke="#407BFF" stroke-width="2" stroke-linecap="round" stroke-linejoin="round"/>
<path d="M247.035 97.2647H242.965" stroke="#407BFF" stroke-width="2" stroke-linecap="round" stroke-linejoin="round"/>
<path d="M13.1914 137.341V141.42" stroke="#D87448" stroke-width="2" stroke-linecap="round" stroke-linejoin="round"/>
<path d="M15.2309 139.38H11.1523" stroke="#D87448" stroke-width="2" stroke-linecap="round" stroke-linejoin="round"/>
<g clip-path="url(#clip1_1216_25182)">
<path d="M117.425 151.124C117.339 151.165 117.247 151.193 117.153 151.209C117.069 151.224 116.984 151.233 116.898 151.235C116.678 151.24 116.458 151.209 116.248 151.145C116.083 151.093 115.932 151.006 115.806 150.89C115.69 150.779 115.603 150.643 115.551 150.493C115.495 150.328 115.467 150.156 115.469 149.983C115.47 149.821 115.497 149.661 115.548 149.507C115.601 149.345 115.685 149.194 115.797 149.064C115.916 148.926 116.063 148.813 116.228 148.733C116.424 148.642 116.64 148.597 116.857 148.603C117.361 148.603 117.74 148.757 117.996 149.064C118.252 149.371 118.38 149.813 118.38 150.388C118.386 150.728 118.335 151.067 118.23 151.391C118.139 151.668 117.98 151.919 117.768 152.122C117.539 152.33 117.266 152.483 116.968 152.571C116.594 152.68 116.205 152.734 115.815 152.73C115.811 152.606 115.805 152.487 115.797 152.371C115.789 152.255 115.781 152.135 115.773 152.011C115.975 152.009 116.177 151.993 116.377 151.962C116.541 151.938 116.701 151.889 116.851 151.817C116.985 151.752 117.103 151.66 117.2 151.548C117.302 151.423 117.379 151.279 117.425 151.124ZM116.998 150.562C117.092 150.562 117.186 150.553 117.279 150.536C117.355 150.526 117.429 150.502 117.496 150.464V150.412C117.495 150.396 117.496 150.381 117.498 150.365C117.5 150.352 117.501 150.338 117.501 150.325C117.498 150.194 117.486 150.063 117.466 149.933C117.45 149.823 117.417 149.715 117.367 149.615C117.323 149.528 117.258 149.454 117.176 149.4C117.088 149.346 116.985 149.318 116.88 149.322C116.795 149.32 116.71 149.34 116.634 149.38C116.567 149.416 116.509 149.468 116.465 149.53C116.422 149.592 116.389 149.661 116.368 149.734C116.347 149.803 116.336 149.875 116.336 149.948C116.329 150.032 116.339 150.116 116.366 150.196C116.392 150.275 116.435 150.349 116.491 150.412C116.594 150.512 116.763 150.562 116.998 150.562Z" fill="#009CDE"/>
<path d="M119.894 152.261C119.899 152.335 119.887 152.41 119.858 152.479C119.829 152.547 119.784 152.609 119.727 152.658C119.621 152.746 119.488 152.794 119.349 152.794C119.211 152.794 119.078 152.746 118.972 152.658C118.919 152.606 118.877 152.544 118.848 152.476C118.819 152.408 118.805 152.335 118.805 152.261C118.805 152.187 118.819 152.114 118.848 152.046C118.877 151.978 118.919 151.916 118.972 151.864C119.077 151.776 119.211 151.727 119.349 151.727C119.488 151.727 119.621 151.776 119.727 151.864C119.784 151.913 119.829 151.974 119.858 152.043C119.887 152.112 119.899 152.186 119.894 152.261Z" fill="#009CDE"/>
<path d="M123.198 150.702C123.198 151.377 123.068 151.896 122.809 152.258C122.686 152.426 122.524 152.562 122.337 152.657C122.15 152.751 121.944 152.8 121.734 152.8C121.524 152.8 121.318 152.751 121.131 152.657C120.944 152.562 120.783 152.426 120.659 152.258C120.4 151.897 120.27 151.378 120.27 150.702C120.266 150.401 120.3 150.101 120.373 149.809C120.429 149.574 120.53 149.352 120.668 149.154C120.788 148.984 120.946 148.845 121.131 148.748C121.317 148.653 121.525 148.606 121.734 148.609C121.945 148.602 122.154 148.648 122.342 148.743C122.53 148.837 122.691 148.978 122.809 149.151C123.068 149.512 123.198 150.029 123.198 150.702ZM122.308 150.702C122.309 150.518 122.299 150.335 122.279 150.154C122.263 150.008 122.232 149.866 122.185 149.727C122.151 149.622 122.091 149.526 122.009 149.449C121.934 149.383 121.835 149.348 121.734 149.351C121.634 149.347 121.536 149.383 121.462 149.449C121.382 149.527 121.322 149.622 121.286 149.727C121.237 149.865 121.205 150.008 121.19 150.154C121.169 150.335 121.159 150.518 121.16 150.702C121.159 150.886 121.169 151.069 121.19 151.252C121.204 151.398 121.237 151.542 121.286 151.681C121.321 151.786 121.382 151.882 121.462 151.959C121.536 152.026 121.634 152.061 121.734 152.058C121.835 152.061 121.934 152.026 122.009 151.959C122.091 151.883 122.151 151.787 122.185 151.681C122.232 151.542 122.264 151.398 122.279 151.252C122.299 151.069 122.309 150.886 122.308 150.702Z" fill="#009CDE"/>
<path d="M110.359 132.649C108.54 130.849 106.805 129.134 106.289 127.2C105.772 129.134 104.037 130.849 102.218 132.649C99.4908 135.346 96.3984 138.404 96.3984 142.99C96.3984 145.586 97.4405 148.076 99.2953 149.912C101.15 151.748 103.666 152.779 106.289 152.779C108.912 152.779 111.428 151.748 113.282 149.912C115.137 148.076 116.179 145.586 116.179 142.99C116.179 138.404 113.087 135.346 110.359 132.649ZM100.602 145.271C99.9957 145.251 97.7576 141.432 101.91 137.367L104.657 140.337C104.681 140.361 104.699 140.388 104.711 140.419C104.723 140.449 104.728 140.482 104.727 140.515C104.725 140.548 104.716 140.58 104.701 140.609C104.686 140.638 104.665 140.664 104.639 140.684C103.983 141.35 101.189 144.124 100.841 145.083C100.77 145.281 100.665 145.273 100.602 145.271ZM106.289 150.303C105.842 150.303 105.4 150.216 104.987 150.047C104.574 149.878 104.199 149.63 103.884 149.317C103.568 149.004 103.317 148.633 103.146 148.225C102.975 147.816 102.887 147.379 102.887 146.936C102.887 146.084 103.23 145.324 103.735 144.713C104.348 143.97 106.288 141.883 106.288 141.883C106.288 141.883 108.199 144.001 108.837 144.706C109.393 145.318 109.698 146.113 109.69 146.936C109.69 147.829 109.332 148.686 108.694 149.317C108.056 149.948 107.191 150.303 106.289 150.303ZM112.799 144.844C112.726 145.002 112.56 145.267 112.335 145.275C111.935 145.29 111.892 145.087 111.597 144.654C110.947 143.703 105.281 137.842 104.222 136.708C103.289 135.711 104.09 135.008 104.462 134.64C104.928 134.178 106.288 132.832 106.288 132.832C106.288 132.832 110.345 136.642 112.035 139.245C113.725 141.848 113.143 144.1 112.799 144.844Z" fill="#009CDE"/>
</g>
</g>
<defs>
<clipPath id="clip0_1216_25182">
<rect width="257.871" height="200" fill="white"/>
</clipPath>
<clipPath id="clip1_1216_25182">
<rect width="26.8" height="25.6" fill="white" transform="translate(96.3984 127.2)"/>
</clipPath>
</defs>
</svg>
