<svg width="123" height="100" viewBox="0 0 123 100" fill="none" xmlns="http://www.w3.org/2000/svg">
<g clip-path="url(#clip0_1929_19702)">
<path d="M122.475 32.3234C121.321 33.3309 120.318 34.5306 119.045 35.315C101.788 45.9587 84.512 56.5704 67.2186 67.15C63.1772 69.634 59.2358 69.6109 55.1983 67.1269C37.8638 56.4627 20.5153 45.8241 3.15261 35.2112C2.56917 34.8705 2.00556 34.4969 1.46454 34.0922C-0.492705 32.5541 -0.48886 30.3969 1.46454 28.855C1.87774 28.5428 2.32085 28.2723 2.78733 28.0474C20.696 19.0905 38.606 10.1388 56.5172 1.1921C57.9673 0.422143 59.584 0.0195312 61.2258 0.0195312C62.8675 0.0195312 64.4843 0.422143 65.9343 1.1921C83.8481 10.1388 101.753 19.111 119.649 28.109C120.745 28.6627 121.541 29.8163 122.475 30.6892V32.3234Z" fill="#76C04F"/>
<path d="M107.89 64.7427C107.89 68.1304 107.81 71.5219 107.89 74.9096C108.013 78.9548 106.421 82.2579 103.787 85.1649C100.069 89.2601 95.4393 92.0633 90.4251 94.2051C78.6663 99.227 66.3768 100.807 53.6913 99.6231C44.9625 98.8117 36.5914 96.6968 28.774 92.6593C24.2404 90.3137 20.0952 87.4451 17.0767 83.2115C15.4277 80.9866 14.5379 78.2903 14.5388 75.521C14.5619 68.661 14.5388 61.8011 14.5388 54.9449C14.5237 54.1895 14.6103 53.4355 14.7964 52.7032C15.1118 51.588 15.95 51.2074 17.0305 51.5919C17.549 51.797 18.045 52.0547 18.5109 52.3609L52.3493 73.0984C58.2454 76.7104 64.1414 76.7104 70.0375 73.0984C81.6553 65.9796 93.2694 58.8556 104.88 51.7265C105.187 51.5419 105.487 51.3419 105.806 51.1843C106.91 50.6498 107.563 50.9728 107.775 52.1917C107.844 52.7013 107.87 53.2159 107.852 53.7298C107.883 57.4033 107.895 61.0743 107.89 64.7427Z" fill="#76C04F"/>
<path d="M118.177 65.3695C118.177 71.1374 118.208 76.9322 118.154 82.7155C118.118 83.1816 118.209 83.6488 118.419 84.0668C118.628 84.4848 118.947 84.8379 119.342 85.088C120.448 85.8899 121.258 87.0339 121.647 88.343C122.037 89.6521 121.983 91.053 121.496 92.3287C121.016 93.5616 120.168 94.6167 119.067 95.3502C117.966 96.0838 116.666 96.46 115.343 96.4277C113.955 96.3807 112.622 95.8747 111.553 94.9889C110.483 94.1031 109.738 92.8876 109.433 91.5327C108.883 88.941 109.633 86.6838 111.809 85.088C112.198 84.8308 112.51 84.4737 112.713 84.0542C112.916 83.6347 113.002 83.1683 112.963 82.704C112.928 72.1372 112.963 61.555 112.913 51.0074C112.913 49.2617 113.351 47.9851 114.959 47.2045C115.459 46.9584 115.916 46.6315 116.401 46.3547C117.831 45.5395 118.166 45.7279 118.169 47.4275C118.185 53.403 118.187 59.3837 118.177 65.3695Z" fill="#76C04F"/>
</g>
<defs>
<clipPath id="clip0_1929_19702">
<rect width="122.476" height="100" fill="white"/>
</clipPath>
</defs>
</svg>
