<svg width="267" height="270" viewBox="0 0 267 270" fill="none" xmlns="http://www.w3.org/2000/svg">
<g clip-path="url(#clip0_684_10265)">
<path d="M7.74236 133.359C3.41711 155.841 -5.34869 201.407 15.6298 231.89C53.7033 287.212 183.186 283.315 237.883 213.564C242.612 207.533 266.332 176.078 263.744 133.005C259.255 58.2944 178.223 -7.9254 113.28 5.08042C75.2765 12.6919 50.0158 45.9918 39.6213 59.7008C35.3308 65.3504 15.702 91.9854 7.74236 133.359Z" fill="#F4F7FA"/>
<path d="M192.978 227.223C192.391 230.62 192.291 233.482 191.871 236.83C179.588 229.13 166.343 223.966 153.871 216.182C169.975 206.193 181.23 204.097 186.359 182.683C188.766 172.633 190.573 152.12 198.725 145.502C208.011 137.96 213.608 144.227 216.494 134.499C221.005 119.293 235.377 108.469 250.773 124.24C265.963 139.806 238.337 189.1 220.598 196.975C206.845 206.706 196.041 209.474 192.978 227.223Z" fill="url(#paint0_linear_684_10265)"/>
<path d="M173.03 224.639C176.481 220.547 180.294 216.678 183.982 212.936L185.382 211.515C188.344 208.503 190.939 205.755 193.229 203.33C194.516 201.968 195.732 200.681 196.922 199.442C200.569 195.645 203.125 192.997 204.391 191.686L205.219 190.828C215.187 180.44 224.926 162.644 230.158 153.083C230.724 152.047 231.231 151.121 231.671 150.329C239.225 136.713 248.711 123.452 259.864 110.914L259.659 110.731C248.496 123.283 238.994 136.561 231.431 150.195C230.99 150.989 230.484 151.916 229.916 152.949C224.691 162.497 214.964 180.274 205.021 190.635C204.893 190.768 204.615 191.056 204.197 191.493C202.931 192.804 200.374 195.452 196.728 199.25C195.538 200.489 194.321 201.777 193.033 203.14C190.746 205.563 188.15 208.31 185.19 211.32L183.791 212.74C180.098 216.487 176.282 220.36 172.823 224.46L173.03 224.639Z" fill="#FCFDFE"/>
<path d="M191.612 205.581C197.873 198.403 202.346 187.44 204.546 173.877C206.376 162.58 206.528 149.836 204.955 138.917L204.681 138.957C206.25 149.849 206.102 162.561 204.273 173.833C202.077 187.345 197.631 198.261 191.402 205.4L191.612 205.581Z" fill="#FCFDFE"/>
<path d="M229.328 154.622C231.363 146.631 232.404 138.333 233.409 130.309C234.097 124.816 234.809 119.137 235.834 113.601L235.56 113.55C234.533 119.094 233.821 124.778 233.132 130.274C232.126 138.289 231.089 146.578 229.058 154.553L229.328 154.622Z" fill="#FCFDFE"/>
<path d="M215.615 177.567C224.536 170.387 239.724 164.831 248.12 165.678L248.148 165.403C239.691 164.549 224.41 170.133 215.443 177.351L215.615 177.567Z" fill="#FCFDFE"/>
<path d="M218.923 194.976C208.866 209.516 201.172 202.128 190.941 193.125C186.549 209.007 181.683 224.309 176.695 239.821C183.633 245.744 188.711 249.856 197.126 242.655C206.642 234.512 211.864 229.496 225.349 232.308C238.835 235.12 252.153 230.042 253.157 216.262C254.215 201.761 272.136 190.039 265.548 176.298C254.068 152.354 229.394 179.837 218.923 194.976Z" fill="url(#paint1_linear_684_10265)"/>
<path d="M185.975 221.173C200.83 220.493 213.189 219.512 225.723 213.713C237.717 208.165 245.865 200.126 252.967 186.833C256.649 179.943 260.063 175.424 264.851 169.316L264.635 169.146C259.838 175.265 256.417 179.796 252.725 186.703C245.653 199.938 237.539 207.944 225.607 213.463C213.119 219.24 200.787 220.219 185.962 220.899L185.975 221.173Z" fill="#FCFDFE"/>
<path d="M193.053 247.67L193.317 247.593C191.971 242.873 190.126 238.711 187.675 234.869C186.421 232.905 184.958 231.308 183.146 229.516L182.953 229.712C184.751 231.491 186.203 233.075 187.443 235.018C189.88 238.837 191.714 242.975 193.053 247.67Z" fill="#FCFDFE"/>
<path d="M251.665 227.709L251.824 227.484C241.215 219.875 229.158 215.984 217.877 216.52L217.89 216.795C229.111 216.259 241.107 220.136 251.665 227.709Z" fill="#FCFDFE"/>
<path d="M243.873 200.353C244.537 199.2 247.279 188.379 249.624 178.636C251.979 168.854 254.382 158.292 254.337 157.549L254.062 157.567C254.103 158.198 251.992 167.62 249.356 178.571C247.016 188.296 244.284 199.088 243.635 200.215L243.873 200.353Z" fill="#FCFDFE"/>
<path d="M70.0241 153.478C71.4424 153.364 74.4272 151.861 75.0439 151.146C79.1495 146.396 87.413 138.004 87.3425 131.357C87.3306 130.222 82.3393 128.927 81.6823 127.854C78.7003 126.253 77.5647 125.884 75.4758 122.965C69.304 114.346 85.0395 99.4867 67.8665 93.1642C55.2879 88.5327 44.2885 92.4297 46.6191 72.6001C48.9496 52.7706 34.971 15.7645 13.3685 28.6262C0.970132 36.0081 12.3538 53.5142 5.5708 65.6919C-0.873614 77.2647 3.66667 87.2658 15.8784 94.992C28.0901 102.718 21.1214 107.861 16.9307 118.953C11.8981 132.275 32.5334 135.678 42.1941 136.434C49.9744 137.042 69.3745 143.857 70.0241 153.478Z" fill="url(#paint2_linear_684_10265)"/>
<path d="M80.9845 141.824L81.1392 141.539C60.61 130.243 44.0812 112.941 33.3482 91.5062C23.133 71.1102 18.2597 47.3716 19.257 22.8582L18.934 22.8444C17.9357 47.4111 22.8201 71.2038 33.0599 91.6503C43.8305 113.144 60.3977 130.494 80.9845 141.824Z" fill="#FCFDFE"/>
<path d="M59.3172 126.2L59.4251 125.895C46.7852 121.408 26.4619 120.535 14.1221 123.946L14.2072 124.258C26.4948 120.862 46.7312 121.733 59.3172 126.2Z" fill="#FCFDFE"/>
<path d="M73.0117 137.315L73.2396 137.086C68.3195 132.178 66.0613 124.963 66.528 115.641C66.8702 108.805 68.6425 101.015 71.7957 92.4894L71.4937 92.3765C68.3287 100.934 66.5527 108.755 66.2059 115.625C65.7346 125.046 68.024 132.34 73.0117 137.315Z" fill="#FCFDFE"/>
<path d="M31.7207 88.6915L31.9595 88.4739C23.1516 78.74 9.73571 75.6003 0.0301941 74.6813L0 75.0036C9.64878 75.917 22.9851 79.0347 31.7207 88.6915Z" fill="#FCFDFE"/>
<path d="M22.0297 60.2131L22.3527 60.2057C22.1999 53.8529 23.8378 41.0454 36.5253 26.6322L36.2828 26.4183C23.523 40.9132 21.876 53.8135 22.0297 60.2131Z" fill="#FCFDFE"/>
<path d="M57.0434 154.965C63.8218 155.155 70.6185 155.191 77.4335 155.074C77.525 155.189 82.2145 141.161 76.7152 132.398C65.7882 115.379 77.1727 103.841 81.1338 96.5113C87.1628 86.2651 87.0814 74.0038 75.9851 71.8657C63.7175 69.2511 65.0699 48.3576 70.5737 30.1052C73.8961 21.3159 67.2797 8.77366 59.1846 4.74716C50.9614 0.418615 41.2687 4.60486 35.4254 22.2615C27.7146 42.539 40.7645 57.8877 44.5755 69.4072C48.327 80.7174 33.9248 86.7939 42.7363 97.7828C50.0729 107.461 60.0895 115.254 54.2655 124.757C48.3417 134.125 47.8888 142.557 57.0434 154.965Z" fill="url(#paint3_linear_684_10265)"/>
<path d="M66.0245 157.426C66.0483 157.298 65.0473 125.876 59.3248 94.4311C58.6577 89.3892 57.8681 84.2822 57.105 79.3431C55.0599 66.1234 52.9463 52.4447 53.1192 39.235C53.3123 24.4693 56.405 11.6857 62.5722 0.152394L62.2876 0C56.0921 11.5764 52.9902 24.4124 52.798 39.2314C52.6251 52.4694 54.7406 66.1564 56.7875 79.3927C57.5506 84.3299 58.343 89.4351 59.0073 94.4815C64.7151 125.839 65.7207 157.193 65.707 157.376L66.0245 157.426Z" fill="#FCFDFE"/>
<path d="M53.3818 53.852L53.6563 53.6803C47.728 44.1667 40.8837 30.9332 37.2072 23.8212C34.2435 18.089 34.2234 18.089 34.0404 18.0853L34.0349 18.4094V18.2469L33.9434 18.3754C34.119 18.559 35.3543 20.9459 36.919 23.9754C40.5991 31.0866 47.4471 44.3311 53.3818 53.852Z" fill="#FCFDFE"/>
<path d="M53.1736 42.1911C59.0791 25.1707 71.4235 20.0664 72.4556 20.0664H72.4638V19.9452L72.6075 19.7947C72.5334 19.724 72.4245 19.7332 72.2516 19.7754C69.5669 20.4226 58.4102 26.1099 52.8652 42.0837L53.1736 42.1911Z" fill="#FCFDFE"/>
<path d="M62.4276 114.85C62.9217 105.916 66.6037 96.8565 73.3702 87.9359C76.9003 83.2806 81.1368 78.8566 85.9616 74.7878C86.1423 74.6459 86.3155 74.4945 86.4804 74.3343L86.2334 74.1259C86.2023 74.1626 85.9946 74.3371 85.7539 74.54C80.9108 78.6243 76.6578 83.0648 73.114 87.7395C66.3072 96.717 62.6032 105.832 62.1055 114.832L62.4276 114.85Z" fill="#FCFDFE"/>
<path d="M38.6447 87.2226L38.6602 87.0638L38.5834 87.2043L38.502 87.0289L38.6465 86.9004C38.8497 86.9004 55.3738 90.7451 61.0432 104.975L60.744 105.095C55.0856 90.8948 38.8039 87.2492 38.6447 87.2226ZM38.6612 87.062L38.738 86.9206L38.6612 87.062Z" fill="#FCFDFE"/>
<path d="M65.791 152.279C66.319 148.446 68.8106 142.194 77.7017 134.171C78.1931 133.728 78.1931 133.728 78.1958 133.639H78.0348L77.9012 133.547C77.8719 133.583 77.6935 133.744 77.4858 133.93C68.5251 142.019 66.006 148.35 65.4717 152.236L65.791 152.279Z" fill="#FCFDFE"/>
<path d="M65.0492 144.764L65.3694 144.728C65.0391 141.677 62.736 135.406 51.0193 127.695C50.8583 127.59 50.754 127.522 50.7174 127.494L50.5225 127.752C50.5609 127.781 50.6707 127.854 50.8418 127.966C62.4478 135.603 64.7253 141.769 65.0492 144.764Z" fill="#FCFDFE"/>
<path d="M52.6149 33.0365L219.171 23.3695C223.007 23.1813 226.46 27.3814 226.46 30.9075V246.089C226.46 250.98 221.481 251.964 217.644 251.571L52.6149 234.659C49.5954 234.351 47.166 231.583 47.166 228.476V38.9284C47.166 35.8218 49.5999 33.1843 52.6149 33.0365Z" fill="url(#paint4_linear_684_10265)"/>
<path d="M49.8756 31.3271L216.761 23.0904C220.596 22.9013 223.721 25.6279 223.721 29.1816V246.043C223.721 249.597 220.596 252.155 216.761 251.76L49.8756 234.528C46.8607 234.216 44.4268 231.427 44.4268 228.296V37.2649C44.4268 34.1344 46.8607 31.4758 49.8756 31.3271Z" fill="#D8DEE8"/>
<path style="mix-blend-mode:multiply" opacity="0.3" d="M216.761 248.82C218.829 249.03 220.518 247.643 220.518 245.727V29.3267C220.518 27.4117 218.829 25.9299 216.761 26.0309L49.8756 33.9407C48.246 34.0178 46.9229 35.4582 46.9229 37.1539V228.543C46.9229 230.237 48.246 231.749 49.8756 231.914L216.761 248.82Z" fill="url(#paint5_linear_684_10265)"/>
<path d="M60.6309 226.783L203.369 240.581V40.9316L60.6309 46.325V226.783Z" fill="white"/>
<g style="mix-blend-mode:multiply" opacity="0.3">
<path d="M117.722 47.3018L174.769 48.0225L173.488 35.1149C173.392 33.4376 172.183 32.0615 170.593 31.8164L160.931 30.3264C160.364 30.234 159.828 30.0018 159.371 29.6506C158.915 29.2995 158.553 28.8402 158.317 28.3141L157.269 26.0309L132 27.5962L117.722 47.3018Z" fill="#97A6B7"/>
</g>
<path d="M85.1119 50.5205C84.9371 51.4633 85.7423 52.4134 86.6912 52.3813L173.405 49.4913C174.48 49.4555 175.088 48.3897 174.594 47.412L168.569 35.416C167.815 33.915 166.207 32.9575 164.57 33.0291L154.571 33.479C150.122 33.6791 145.931 30.5412 144.82 26.1934L142.251 16.1483C141.777 14.2938 139.998 12.9755 138.126 13.0875L135.037 13.2711C133.423 13.3629 131.774 12.5367 130.833 11.0201C130.503 10.4822 130.288 9.88185 130.2 9.25656C129.593 5.1254 125.794 2.00407 121.722 2.27948C117.683 2.55489 114.895 6.07832 115.455 10.1599C115.776 12.4954 114.255 14.5151 111.971 14.6519L108.976 14.8355C107.186 14.9429 105.883 16.4099 105.948 18.2405L106.299 28.1378C106.451 32.4094 103.419 35.7814 99.2808 35.9677L90.1655 36.3781C88.696 36.4442 87.5303 37.4687 87.2594 38.9293L85.1119 50.5205ZM120.481 8.79754C120.307 7.59124 121.131 6.54927 122.324 6.47124C123.516 6.39321 124.628 7.31216 124.801 8.52213C124.975 9.7321 124.146 10.775 122.951 10.8494C121.756 10.9237 120.654 10.0048 120.481 8.79754Z" fill="url(#paint6_linear_684_10265)"/>
<path d="M84.5972 50.7885C84.4225 51.7323 85.2277 52.6815 86.1775 52.6494L172.89 49.7603C173.966 49.7245 174.574 48.6633 174.08 47.68L168.054 35.685C167.3 34.1831 165.693 33.2256 164.055 33.2981L154.056 33.7479C149.606 33.9481 145.415 30.8102 144.304 26.4633L141.737 16.4163C141.263 14.5619 139.484 13.2436 137.612 13.3556L134.523 13.5392C132.909 13.6356 131.26 12.8048 130.319 11.2882C129.99 10.7506 129.774 10.1505 129.686 9.52554C129.08 5.39438 125.28 2.27305 121.209 2.54847C117.169 2.82388 114.381 6.34638 114.941 10.428C115.261 12.7635 113.74 14.7841 111.457 14.9208L108.463 15.1044C106.671 15.2119 105.369 16.6789 105.434 18.5094L105.785 28.4077C105.937 32.6784 102.904 36.0513 98.7671 36.2367L89.6518 36.6471C88.9486 36.6707 88.2751 36.9373 87.7453 37.4019C87.2156 37.8665 86.8621 38.5004 86.7448 39.1965L84.5972 50.7885ZM119.966 9.06652C119.793 7.85931 120.618 6.81734 121.809 6.74022C123 6.66311 124.113 7.58022 124.287 8.79111C124.461 10.002 123.632 11.0431 122.437 11.1174C121.243 11.1918 120.143 10.2728 119.966 9.06652Z" fill="#97A6B7"/>
<g style="mix-blend-mode:soft-light" opacity="0.5">
<path d="M101.585 44.7093C109.32 39.9181 115.256 43.3148 120.076 37.9158C125.237 32.1322 121.756 24.5125 127.096 20.9239C130.514 18.6233 133.564 20.6485 137.54 20.0288C138.996 19.8011 140.549 19.2209 142.163 18.089L144.305 26.4688C145.416 30.8139 149.607 33.9536 154.057 33.7534L164.056 33.3036C165.694 33.2302 167.301 34.1877 168.055 35.6905L174.081 47.6865C174.574 48.6688 173.966 49.73 172.891 49.7658L94.0869 52.3914C96.0707 49.2233 98.5366 46.5968 101.585 44.7093Z" fill="white"/>
</g>
<path d="M74.5518 105.429L185.099 106.024V99.438L74.5518 99.0855V105.429Z" fill="#D8DEE8"/>
<path d="M93.2451 123.723L186.753 125.982V119.124L93.2451 117.293V123.723Z" fill="#D8DEE8"/>
<path d="M93.2451 134.98L186.753 137.99V131.131L93.2451 128.55V134.98Z" fill="#D8DEE8"/>
<path d="M93.2451 146.237L186.753 149.998V143.139L93.2451 139.807V146.237Z" fill="#D8DEE8"/>
<path d="M93.2451 157.494L186.753 162.005V155.147L93.2451 151.065V157.494Z" fill="#D8DEE8"/>
<path d="M74.5518 123.271L86.8522 123.569V117.168L74.5518 116.927V123.271Z" fill="#D8DEE8"/>
<path d="M74.5518 134.378L86.8522 134.774V128.374L74.5518 128.034V134.378Z" fill="#D8DEE8"/>
<path d="M74.5518 145.485L86.8522 145.98V139.579L74.5518 139.141V145.485Z" fill="#D8DEE8"/>
<path d="M74.5518 156.592L86.8522 157.185V150.785L74.5518 150.248V156.592Z" fill="#D8DEE8"/>
<path d="M93.2451 175.762L186.753 181.491V174.633L93.2451 169.332V175.762Z" fill="#D8DEE8"/>
<path d="M93.2451 187.019L186.753 193.499V186.64L93.2451 180.589V187.019Z" fill="#D8DEE8"/>
<path d="M93.2451 198.276L186.753 205.506V198.647L93.2451 191.846V198.276Z" fill="#D8DEE8"/>
<path d="M93.2451 209.534L186.753 217.514V210.655L93.2451 203.104V209.534Z" fill="#D8DEE8"/>
<path d="M74.5518 174.617L86.8522 175.37V168.97L74.5518 168.272V174.617Z" fill="#D8DEE8"/>
<path d="M74.5518 185.723L86.8522 186.576V180.176L74.5518 179.38V185.723Z" fill="#D8DEE8"/>
<path d="M74.5518 196.831L86.8522 197.782V191.381L74.5518 190.486V196.831Z" fill="#D8DEE8"/>
<path d="M74.5518 207.938L86.8522 208.987V202.587L74.5518 201.593V207.938Z" fill="#D8DEE8"/>
<path d="M93.4021 94.3705H88.7081L79.5333 75.2276V94.3705H74.8018V65.2366L79.5333 65.276L88.7236 84.486V65.3541L93.4021 65.3936V94.3705Z" fill="#97A6B7"/>
<path d="M97.4912 94.3704V65.4284L104.46 65.4872C106.446 65.5049 108.22 66.0913 109.784 67.2462C111.348 68.401 112.568 70.033 113.444 72.142C114.319 74.2505 114.757 76.6432 114.757 79.3202V80.6449C114.757 83.3219 114.327 85.7008 113.468 87.7817C112.609 89.8626 111.396 91.4777 109.827 92.6271C108.288 93.7666 106.424 94.3783 104.511 94.3714L97.4912 94.3704ZM102.158 70.2913V89.5866H104.411C106.231 89.5866 107.622 88.8292 108.581 87.3144C109.541 85.7997 110.031 83.627 110.052 80.7964V79.2715C110.052 76.3411 109.578 74.1167 108.628 72.5983C107.678 71.0799 106.288 70.3148 104.457 70.3032L102.158 70.2913Z" fill="#97A6B7"/>
<path d="M130.405 88.4647L122.344 88.45L120.806 94.3704H115.895L124.232 65.6552L128.492 65.691L136.813 94.3704H131.947L130.405 88.4647ZM123.587 83.6588L129.169 83.6762L126.365 72.926L123.587 83.6588Z" fill="#97A6B7"/>
<path d="M185.099 87.9075V94.4935L143.639 94.4292V87.9341L185.099 87.9075Z" fill="#D8DEE8"/>
<path d="M185.099 64.8474V71.4324L143.639 71.6858V65.1907L185.099 64.8474Z" fill="#D8DEE8"/>
<path d="M185.099 76.377V82.9629L143.639 83.0575V76.5624L185.099 76.377Z" fill="#D8DEE8"/>
<path d="M132.245 253.393C136.983 253.088 141.458 250.076 143.383 245.437L170.527 180.022C172.998 174.066 170.211 167.324 164.269 164.933C158.285 162.526 148.958 165.362 146.426 171.382L118.576 237.505C115.951 243.74 118.911 250.557 125.155 252.701C126.692 253.231 130.681 253.493 132.245 253.393Z" fill="url(#paint7_linear_684_10265)"/>
<g style="mix-blend-mode:multiply" opacity="0.3">
<path d="M167.608 164.809C162.501 162.754 154.541 165.176 152.378 170.31L130.649 221.904C134.286 220.966 138.591 221.05 142.728 217.415C149.607 211.363 146.223 203.608 151.675 196.699C154.167 193.541 158.779 190.217 168.167 189.216L172.953 177.681C175.058 172.6 172.679 166.848 167.608 164.809Z" fill="#97A6B7"/>
</g>
<path d="M181.553 153.731C181.355 153.731 181.157 153.745 180.961 153.773L166.642 153.615V190.97L180.468 190.78C180.823 190.871 181.187 190.917 181.553 190.918C186.461 190.918 190.439 182.593 190.439 172.325C190.439 162.056 186.461 153.731 181.553 153.731Z" fill="url(#paint8_linear_684_10265)"/>
<path d="M166.642 153.615C172.065 166.053 172.065 178.448 166.642 190.97L60.1273 225.328L59.0293 120.489L166.642 153.615Z" fill="url(#paint9_linear_684_10265)"/>
<path d="M54.9631 226.708C69.2725 226.708 80.8726 202.435 80.8726 172.494C80.8726 142.552 69.2725 118.279 54.9631 118.279C40.6538 118.279 29.0537 142.552 29.0537 172.494C29.0537 202.435 40.6538 226.708 54.9631 226.708Z" fill="url(#paint10_linear_684_10265)"/>
<path d="M54.962 224.868C51.9241 224.868 48.9394 223.59 46.0864 221.069C43.1867 218.498 40.5634 214.789 38.2905 210.034C33.5132 200.037 30.8789 186.705 30.8789 172.494C30.8789 158.282 33.5096 144.952 38.2905 134.952C40.5634 130.197 43.1867 126.485 46.0864 123.918C48.9357 121.397 51.9205 120.118 54.962 120.118C58.0035 120.118 60.9855 121.397 63.8376 123.918C66.7372 126.489 69.3597 130.197 71.6325 134.952C73.63 139.133 75.2523 143.896 76.4647 149.062C78.1502 156.253 73.2768 163.757 73.2768 172.027C73.2768 180.82 78.0349 189.745 76.1344 197.281C74.9641 201.926 73.4543 206.222 71.6325 210.034C69.3597 214.789 66.7372 218.502 63.8376 221.069C60.9855 223.59 57.9998 224.868 54.962 224.868Z" fill="url(#paint11_linear_684_10265)"/>
<path d="M52.8301 173.204C52.8301 186.94 61.8951 197.846 72.92 197.568C83.7739 197.292 92.4509 186.25 92.4509 172.897C92.4509 159.543 83.7739 148.639 72.92 148.529C61.8951 148.422 52.8301 159.472 52.8301 173.204Z" fill="url(#paint12_linear_684_10265)"/>
<path style="mix-blend-mode:multiply" opacity="0.3" d="M54.5723 172.981C54.5723 183.18 58.989 191.279 64.3629 191.073C69.6516 190.869 73.879 182.668 73.879 172.752C73.879 162.837 69.6516 154.736 64.3629 154.658C58.989 154.578 54.5723 162.782 54.5723 172.981Z" fill="url(#paint13_linear_684_10265)"/>
<path d="M157.576 248.554L165.853 241.847L85.2708 141.749L76.994 148.456L157.576 248.554Z" fill="url(#paint14_linear_684_10265)"/>
<path d="M52.7178 194.38C52.7178 232.997 83.9196 264.301 122.408 264.301C160.896 264.301 192.098 232.996 192.098 194.381C192.098 155.767 160.896 124.461 122.408 124.461C83.9196 124.461 52.7178 155.765 52.7178 194.38ZM64.6651 194.38C64.6651 162.385 90.5168 136.447 122.408 136.447C154.299 136.447 180.151 162.385 180.151 194.381C180.151 226.378 154.299 252.315 122.408 252.315C90.5168 252.315 64.6651 226.377 64.6651 194.38Z" fill="url(#paint15_linear_684_10265)"/>
<path d="M153.476 246.408L161.755 239.748L81.7468 139.623L73.4677 146.283L153.476 246.408Z" fill="url(#paint16_linear_684_10265)"/>
<path d="M47.9287 192.992C47.9287 231.608 79.1306 262.913 117.619 262.913C156.107 262.913 187.309 231.608 187.309 192.992C187.309 154.377 156.107 123.072 117.619 123.072C79.1306 123.072 47.9287 154.376 47.9287 192.992ZM59.8751 192.992C59.8751 160.996 85.7278 135.058 117.619 135.058C149.509 135.058 175.361 160.996 175.361 192.992C175.361 224.989 149.509 250.926 117.619 250.926C85.7278 250.926 59.8751 224.989 59.8751 192.992Z" fill="url(#paint17_linear_684_10265)"/>
<path d="M140.279 240.297C144.323 240.037 148.142 237.467 149.785 233.508L172.949 177.684C175.053 172.601 172.674 166.851 167.608 164.809C162.501 162.754 154.542 165.176 152.379 170.31L128.614 226.74C126.374 232.065 128.9 237.878 134.228 239.708C135.541 240.159 138.945 240.383 140.279 240.297Z" fill="url(#paint18_linear_684_10265)"/>
<g style="mix-blend-mode:multiply" opacity="0.3">
<path d="M167.609 164.809C162.502 162.754 154.542 165.176 152.379 170.31L130.65 221.904C134.287 220.966 138.592 221.05 142.729 217.415C149.608 211.363 146.224 203.608 151.675 196.699C154.168 193.541 158.78 190.217 168.168 189.216L172.954 177.681C175.059 172.6 172.68 166.848 167.609 164.809Z" fill="#97A6B7"/>
</g>
<path d="M181.553 153.731C181.355 153.731 181.157 153.745 180.961 153.773L166.642 153.615V190.97L180.468 190.78C180.823 190.871 181.187 190.917 181.553 190.918C186.461 190.918 190.439 182.593 190.439 172.325C190.439 162.056 186.461 153.731 181.553 153.731Z" fill="url(#paint19_linear_684_10265)"/>
<path d="M166.642 153.615C172.065 166.053 172.065 178.448 166.642 190.97L60.1273 225.328L59.0293 120.489L166.642 153.615Z" fill="url(#paint20_linear_684_10265)"/>
<path d="M54.9631 226.708C69.2725 226.708 80.8726 202.435 80.8726 172.494C80.8726 142.552 69.2725 118.279 54.9631 118.279C40.6538 118.279 29.0537 142.552 29.0537 172.494C29.0537 202.435 40.6538 226.708 54.9631 226.708Z" fill="url(#paint21_linear_684_10265)"/>
<path d="M54.962 224.868C51.9241 224.868 48.9394 223.59 46.0864 221.069C43.1867 218.498 40.5634 214.789 38.2905 210.034C33.5132 200.037 30.8789 186.705 30.8789 172.494C30.8789 158.282 33.5096 144.952 38.2905 134.952C40.5634 130.197 43.1867 126.485 46.0864 123.918C48.9357 121.397 51.9205 120.118 54.962 120.118C58.0035 120.118 60.9855 121.397 63.8376 123.918C66.7372 126.489 69.3597 130.197 71.6325 134.952C73.63 139.133 75.2523 143.896 76.4647 149.062C78.1502 156.253 73.2768 163.757 73.2768 172.027C73.2768 180.82 78.0349 189.745 76.1344 197.281C74.9641 201.926 73.4543 206.222 71.6325 210.034C69.3597 214.789 66.7372 218.502 63.8376 221.069C60.9855 223.59 57.9998 224.868 54.962 224.868Z" fill="url(#paint22_linear_684_10265)"/>
<path d="M52.8301 173.204C52.8301 186.94 61.8951 197.846 72.92 197.568C83.7739 197.292 92.4509 186.25 92.4509 172.897C92.4509 159.543 83.7739 148.639 72.92 148.529C61.8951 148.422 52.8301 159.472 52.8301 173.204Z" fill="url(#paint23_linear_684_10265)"/>
<path style="mix-blend-mode:multiply" opacity="0.3" d="M54.5723 172.981C54.5723 183.18 58.989 191.279 64.3629 191.073C69.6516 190.869 73.879 182.668 73.879 172.752C73.879 162.837 69.6516 154.736 64.3629 154.658C58.989 154.578 54.5723 162.782 54.5723 172.981Z" fill="url(#paint24_linear_684_10265)"/>
</g>
<defs>
<linearGradient id="paint0_linear_684_10265" x1="255.176" y1="176.662" x2="153.874" y2="176.662" gradientUnits="userSpaceOnUse">
<stop stop-color="#FFC444"/>
<stop offset="1" stop-color="#F36F56"/>
</linearGradient>
<linearGradient id="paint1_linear_684_10265" x1="256.467" y1="198.351" x2="133.021" y2="226.884" gradientUnits="userSpaceOnUse">
<stop stop-color="#88B9FF"/>
<stop offset="1" stop-color="#407BFF"/>
</linearGradient>
<linearGradient id="paint2_linear_684_10265" x1="-2.81232" y1="48.3591" x2="167.854" y2="233.732" gradientUnits="userSpaceOnUse">
<stop stop-color="#88B9FF"/>
<stop offset="1" stop-color="#407BFF"/>
</linearGradient>
<linearGradient id="paint3_linear_684_10265" x1="58.5476" y1="7.64834" x2="59.8242" y2="153.213" gradientUnits="userSpaceOnUse">
<stop stop-color="#FFC444"/>
<stop offset="1" stop-color="#F36F56"/>
</linearGradient>
<linearGradient id="paint4_linear_684_10265" x1="226.46" y1="137.506" x2="47.166" y2="137.506" gradientUnits="userSpaceOnUse">
<stop stop-color="#444B8C"/>
<stop offset="1" stop-color="#26264F"/>
</linearGradient>
<linearGradient id="paint5_linear_684_10265" x1="220.518" y1="137.434" x2="46.9229" y2="137.434" gradientUnits="userSpaceOnUse">
<stop stop-color="#E38DDD"/>
<stop offset="1" stop-color="#9571F6"/>
</linearGradient>
<linearGradient id="paint6_linear_684_10265" x1="174.768" y1="27.3235" x2="85.0881" y2="27.3235" gradientUnits="userSpaceOnUse">
<stop stop-color="#444B8C"/>
<stop offset="1" stop-color="#26264F"/>
</linearGradient>
<linearGradient id="paint7_linear_684_10265" x1="171.428" y1="208.746" x2="117.618" y2="208.746" gradientUnits="userSpaceOnUse">
<stop stop-color="#88B9FF"/>
<stop offset="1" stop-color="#407BFF"/>
</linearGradient>
<linearGradient id="paint8_linear_684_10265" x1="218.875" y1="160.119" x2="153.614" y2="177.822" gradientUnits="userSpaceOnUse">
<stop stop-color="#88B9FF"/>
<stop offset="1" stop-color="#407BFF"/>
</linearGradient>
<linearGradient id="paint9_linear_684_10265" x1="120.72" y1="115.83" x2="91.6379" y2="276.159" gradientUnits="userSpaceOnUse">
<stop stop-color="#669DFF"/>
<stop offset="1" stop-color="#407BFF"/>
</linearGradient>
<linearGradient id="paint10_linear_684_10265" x1="83.7448" y1="138.438" x2="25.9612" y2="206.36" gradientUnits="userSpaceOnUse">
<stop stop-color="#669DFF"/>
<stop offset="1" stop-color="#407BFF"/>
</linearGradient>
<linearGradient id="paint11_linear_684_10265" x1="87.7742" y1="171.654" x2="32.2841" y2="173.063" gradientUnits="userSpaceOnUse">
<stop stop-color="#311944"/>
<stop offset="1" stop-color="#893976"/>
</linearGradient>
<linearGradient id="paint12_linear_684_10265" x1="82.0363" y1="120.896" x2="63.0478" y2="225.578" gradientUnits="userSpaceOnUse">
<stop stop-color="#FFC444"/>
<stop offset="1" stop-color="#F36F56"/>
</linearGradient>
<linearGradient id="paint13_linear_684_10265" x1="71.1568" y1="134.384" x2="57.1466" y2="211.623" gradientUnits="userSpaceOnUse">
<stop stop-color="#FFC444"/>
<stop offset="1" stop-color="#F36F56"/>
</linearGradient>
<linearGradient id="paint14_linear_684_10265" x1="60.7329" y1="132.439" x2="162.066" y2="236.434" gradientUnits="userSpaceOnUse">
<stop stop-color="#444B8C"/>
<stop offset="1" stop-color="#26264F"/>
</linearGradient>
<linearGradient id="paint15_linear_684_10265" x1="114.035" y1="102.714" x2="127.315" y2="247.149" gradientUnits="userSpaceOnUse">
<stop stop-color="#444B8C"/>
<stop offset="1" stop-color="#26264F"/>
</linearGradient>
<linearGradient id="paint16_linear_684_10265" x1="57.3072" y1="130.25" x2="157.998" y2="234.336" gradientUnits="userSpaceOnUse">
<stop stop-color="#FF9085"/>
<stop offset="1" stop-color="#FF1515"/>
</linearGradient>
<linearGradient id="paint17_linear_684_10265" x1="109.246" y1="101.326" x2="122.526" y2="245.761" gradientUnits="userSpaceOnUse">
<stop stop-color="#EF4D4D"/>
<stop offset="1" stop-color="#FF1515"/>
</linearGradient>
<linearGradient id="paint18_linear_684_10265" x1="173.718" y1="202.197" x2="127.797" y2="202.197" gradientUnits="userSpaceOnUse">
<stop stop-color="#88B9FF"/>
<stop offset="1" stop-color="#407BFF"/>
</linearGradient>
<linearGradient id="paint19_linear_684_10265" x1="218.875" y1="160.119" x2="153.614" y2="177.822" gradientUnits="userSpaceOnUse">
<stop stop-color="#88B9FF"/>
<stop offset="1" stop-color="#407BFF"/>
</linearGradient>
<linearGradient id="paint20_linear_684_10265" x1="120.72" y1="115.83" x2="91.6379" y2="276.159" gradientUnits="userSpaceOnUse">
<stop stop-color="#88B9FF"/>
<stop offset="1" stop-color="#407BFF"/>
</linearGradient>
<linearGradient id="paint21_linear_684_10265" x1="83.7448" y1="138.438" x2="25.9612" y2="206.36" gradientUnits="userSpaceOnUse">
<stop stop-color="#88B9FF"/>
<stop offset="1" stop-color="#407BFF"/>
</linearGradient>
<linearGradient id="paint22_linear_684_10265" x1="87.7742" y1="171.654" x2="32.2841" y2="173.063" gradientUnits="userSpaceOnUse">
<stop stop-color="#88B9FF"/>
<stop offset="1" stop-color="#407BFF"/>
</linearGradient>
<linearGradient id="paint23_linear_684_10265" x1="82.0363" y1="120.896" x2="63.0478" y2="225.578" gradientUnits="userSpaceOnUse">
<stop stop-color="#FFC444"/>
<stop offset="1" stop-color="#F36F56"/>
</linearGradient>
<linearGradient id="paint24_linear_684_10265" x1="71.1568" y1="134.384" x2="57.1466" y2="211.623" gradientUnits="userSpaceOnUse">
<stop stop-color="#FFC444"/>
<stop offset="1" stop-color="#F36F56"/>
</linearGradient>
<clipPath id="clip0_684_10265">
<rect width="267" height="270" fill="white"/>
</clipPath>
</defs>
</svg>
