<svg width="51" height="50" viewBox="0 0 51 50" fill="none" xmlns="http://www.w3.org/2000/svg">
<g clip-path="url(#clip0_1352_35397)">
<path d="M23.3006 26.1985C21.8875 27.4193 21.4418 28.828 21.4135 30.4856C21.3598 33.7398 21.7339 36.8955 23.0293 39.9141C24.5998 43.6212 27.2413 46.775 30.6153 48.9714C31.0947 49.2696 31.544 49.6136 31.9569 49.9985H6.26081C2.53414 49.9985 0 47.4554 0 43.7213C0 31.2414 0 18.7615 0 6.28165C0 2.54306 2.53414 0.00295551 6.26081 0.00146484C12.2135 0.00146484 18.1658 0.00146484 24.1175 0.00146484H25.0119V0.672266C25.0119 3.53733 25.0119 6.4019 25.0119 9.26597C25.0119 12.9136 27.5684 15.4716 31.228 15.485C34.0737 15.4955 36.9194 15.485 39.7651 15.485H40.4329V21.7131C40.1854 21.564 39.932 21.4403 39.6876 21.2882C37.8123 20.0957 35.9698 20.1538 34.0797 21.3076C32.75 22.12 31.3577 22.8296 29.9744 23.5436C29.6441 23.7036 29.2815 23.7857 28.9145 23.7836C22.2174 23.7975 15.5208 23.8015 8.82476 23.7955C8.56481 23.7883 8.30485 23.8098 8.04961 23.8596C7.79555 23.9212 7.56957 24.0664 7.40795 24.2718C7.24633 24.4773 7.15847 24.7311 7.15847 24.9925C7.15847 25.2539 7.24633 25.5078 7.40795 25.7132C7.56957 25.9187 7.79555 26.0639 8.04961 26.1254C8.3042 26.1764 8.56373 26.1984 8.82327 26.191C13.3946 26.191 17.971 26.191 22.5523 26.191L23.3006 26.1985ZM16.6314 16.6582H8.82029C8.61629 16.6514 8.41207 16.6589 8.20911 16.6806C7.92019 16.7116 7.65284 16.848 7.45812 17.0637C7.26339 17.2794 7.15494 17.5593 7.15346 17.8499C7.15199 18.1405 7.2576 18.4214 7.45012 18.6391C7.64265 18.8567 7.90859 18.9958 8.19718 19.0299C8.38154 19.0532 8.56749 19.0617 8.7532 19.0552C14.0361 19.0552 19.3181 19.0552 24.599 19.0552C24.8404 19.0609 25.0816 19.0379 25.3175 18.9866C25.5672 18.9225 25.7885 18.7774 25.947 18.5741C26.1054 18.3708 26.192 18.1207 26.1932 17.863C26.1944 17.6052 26.1101 17.3543 25.9536 17.1495C25.797 16.9448 25.577 16.7977 25.328 16.7312C25.0921 16.6795 24.8509 16.656 24.6094 16.6612C21.9551 16.6562 19.2957 16.6547 16.6314 16.6567V16.6582ZM14.2702 40.485C16.1643 40.485 18.059 40.485 19.9541 40.485C20.4579 40.485 20.92 40.4001 21.2212 39.9409C21.3475 39.7663 21.4208 39.5589 21.4322 39.3437C21.4435 39.1285 21.3925 38.9145 21.2853 38.7275C21.0423 38.2699 20.6264 38.088 20.13 38.088C16.2284 38.088 12.3273 38.088 8.42675 38.088C8.25949 38.0882 8.09353 38.1174 7.93632 38.1745C7.7029 38.2475 7.4999 38.3951 7.35852 38.5947C7.21713 38.7942 7.14518 39.0347 7.15372 39.2791C7.14086 39.5233 7.21022 39.7649 7.35073 39.9651C7.49124 40.1653 7.69479 40.3127 7.92887 40.3837C8.17793 40.4567 8.43719 40.4889 8.69656 40.4791C10.5539 40.488 12.4128 40.485 14.2702 40.4835V40.485ZM13.1164 9.5164H8.82029C8.67122 9.5164 8.52215 9.5164 8.37309 9.5164C7.63968 9.56858 7.15074 10.0441 7.14776 10.7089C7.14478 11.3738 7.62924 11.8672 8.36116 11.9015C8.91718 11.9298 9.47618 11.9104 10.0352 11.9104H17.2858C17.417 11.9104 17.5467 11.9104 17.6763 11.9104C18.5141 11.8851 19.0627 11.3961 19.0478 10.6895C19.0329 9.98297 18.5022 9.52236 17.6883 9.51491C16.1663 9.50597 14.6413 9.51491 13.1164 9.51491V9.5164ZM13.0597 30.9433H8.82029C8.67122 30.9433 8.52215 30.9433 8.37309 30.9433C7.63968 30.9954 7.15074 31.4724 7.14776 32.1358C7.14478 32.7991 7.62924 33.3 8.36116 33.3283C9.06624 33.3581 9.77431 33.3388 10.4809 33.3388C12.8421 33.3388 15.2033 33.3388 17.5645 33.3388C18.049 33.3388 18.4977 33.2628 18.8048 32.8424C18.9391 32.6736 19.0219 32.4696 19.0433 32.2549C19.0647 32.0403 19.0238 31.824 18.9255 31.6319C18.693 31.14 18.2667 30.9418 17.7449 30.9403C16.1842 30.9403 14.622 30.9433 13.0597 30.9418V30.9433Z" fill="#407BFF"/>
<path d="M50.0093 31.474C49.9706 38.182 47.2442 43.4455 41.6258 47.1707C40.5565 47.8793 39.4902 48.5913 38.4269 49.3068C37.3968 50.003 36.3891 49.9761 35.3665 49.2785C34.1397 48.4407 32.8786 47.6507 31.6622 46.7966C26.6729 43.2875 24.0821 38.4637 23.8153 32.3818C23.784 31.6364 23.8004 30.8911 23.8079 30.1458C23.8228 28.8623 24.4638 28.0052 25.704 27.6519C29.1268 26.6987 32.3866 25.2359 35.374 23.3126C36.4174 22.6358 37.4057 22.6477 38.4432 23.3126C40.6577 24.7479 43.0269 25.929 45.506 26.8335C46.3796 27.1451 47.274 27.397 48.1624 27.6623C49.3311 28.0112 49.9944 28.8683 50.0079 30.0772C50.0138 30.5453 50.0093 31.0074 50.0093 31.474ZM35.6989 36.3932C35.216 35.9087 34.7732 35.46 34.323 35.0158C33.7089 34.4076 33.0217 34.3539 32.5029 34.8667C31.9842 35.3795 32.0289 36.0861 32.6207 36.6883C33.3163 37.3909 34.012 38.0866 34.7076 38.7753C35.4082 39.4669 36.0284 39.464 36.7349 38.7633C37.7784 37.7288 38.8129 36.6868 39.8519 35.6478C40.3125 35.1887 40.7791 34.7341 41.2308 34.266C41.7779 33.701 41.8032 32.9676 41.3068 32.4772C40.8104 31.9868 40.1322 32.03 39.5672 32.5532C39.3779 32.7306 39.199 32.9199 39.0142 33.1033L35.6989 36.3932Z" fill="#407BFF"/>
<path d="M27.378 0.790039C27.8252 1.13438 28.1785 1.35948 28.4677 1.65314C31.9459 5.19497 35.4182 8.74325 38.8845 12.298C39.0842 12.5037 39.2452 12.7452 39.4807 13.0433C39.1975 13.0597 39.0216 13.0791 38.8457 13.0791C36.3155 13.0791 33.7864 13.0791 31.2582 13.0791C28.8433 13.0791 27.3825 11.6019 27.375 9.17803C27.375 6.6121 27.375 4.04616 27.375 1.48022L27.378 0.790039Z" fill="#407BFF"/>
</g>
<defs>
<clipPath id="clip0_1352_35397">
<rect width="50.0089" height="50" fill="white"/>
</clipPath>
</defs>
</svg>
