<svg width="219" height="151" viewBox="0 0 219 151" fill="none" xmlns="http://www.w3.org/2000/svg">
<path d="M218.549 145.691C218.549 145.739 169.622 145.779 109.281 145.779C48.94 145.779 0 145.739 0 145.691C0 145.644 48.9164 145.604 109.281 145.604C169.646 145.604 218.549 145.641 218.549 145.691Z" fill="#263238"/>
<path d="M174.736 127.263L170.144 145.904H173.732L178.473 128.648L175.269 127.731" fill="#455A64"/>
<path d="M197.66 127.263L202.255 145.904H198.667L193.927 128.648L197.131 127.731" fill="#455A64"/>
<path d="M200.436 130.647C208.012 123.065 208.012 110.773 200.436 103.192C192.86 95.6107 180.577 95.6107 173.001 103.192C165.425 110.773 165.425 123.065 173.001 130.647C180.577 138.228 192.86 138.228 200.436 130.647Z" fill="#FF725E"/>
<g opacity="0.3">
<path d="M200.436 130.647C208.012 123.065 208.012 110.773 200.436 103.192C192.86 95.6107 180.577 95.6107 173.001 103.192C165.425 110.773 165.425 123.065 173.001 130.647C180.577 138.228 192.86 138.228 200.436 130.647Z" fill="black"/>
</g>
<path d="M195.357 131.594C204.802 126.532 208.358 114.767 203.3 105.315C198.242 95.8636 186.485 92.3047 177.04 97.3663C167.595 102.428 164.039 114.193 169.097 123.645C174.155 133.097 185.912 136.656 195.357 131.594Z" fill="#FF6C37"/>
<path d="M196.68 122.168C200.926 116.378 199.677 108.24 193.891 103.991C188.105 99.742 179.972 100.992 175.727 106.782C171.481 112.572 172.73 120.711 178.516 124.959C184.302 129.208 192.435 127.959 196.68 122.168Z" fill="white"/>
<path d="M192.556 114.623C192.525 115.881 192.121 117.103 191.397 118.132C190.672 119.161 189.659 119.952 188.485 120.405C187.311 120.858 186.029 120.952 184.801 120.676C183.574 120.4 182.456 119.765 181.588 118.853C180.721 117.941 180.144 116.792 179.929 115.551C179.714 114.311 179.872 113.034 180.383 111.883C180.893 110.732 181.733 109.759 182.796 109.086C183.86 108.413 185.099 108.07 186.356 108.102C188.043 108.144 189.643 108.855 190.805 110.078C191.968 111.301 192.597 112.935 192.556 114.623Z" fill="#FF6C37"/>
<path d="M200.072 100.594L199.648 96.4399L203.97 92.0333L204.162 96.5073L200.072 100.594Z" fill="#455A64"/>
<path d="M209.192 97.5221L204.93 97.0704L200.544 101.086L204.816 101.649L209.192 97.5221Z" fill="#455A64"/>
<g opacity="0.3">
<path d="M187.051 114.393L202.161 103.432C201.625 102.614 201.023 101.84 200.362 101.12L187.074 113.382L187.051 114.393Z" fill="black"/>
</g>
<path d="M204.351 95.8903L198.162 101.78L188.344 111.13L186.087 113.277C185.373 113.952 186.424 115.064 187.152 114.383L193.341 108.49L203.158 99.1439L205.416 96.9928C206.13 96.3185 205.079 95.2093 204.351 95.8903Z" fill="#263238"/>
<path d="M62.1066 123.109C62.1588 121.591 61.9042 120.078 61.3581 118.661C60.812 117.244 59.9857 115.953 58.9286 114.863C57.8715 113.773 56.6055 112.908 55.2064 112.32C53.8073 111.732 52.3039 111.433 50.7863 111.44C44.4052 111.474 39.1258 116.743 38.9944 123.213C38.9293 125.405 39.499 127.568 40.6348 129.443C41.7706 131.318 43.424 132.824 45.3957 133.78C45.3654 135.169 45.3351 136.733 45.3351 136.733L55.4425 136.683C55.4425 136.683 55.5402 135.024 55.5907 133.544C57.5098 132.546 59.1266 131.052 60.2726 129.217C61.4186 127.381 62.0519 125.272 62.1066 123.109Z" fill="#FF6C37"/>
<path d="M49.2601 136.635C49.2601 132.836 49.5465 129.036 49.4993 125.236C49.4993 124.467 49.4656 123.699 49.3915 122.937C49.3005 121.979 49.1018 120.914 48.2325 120.388C48.0442 120.266 47.8306 120.19 47.608 120.164C47.3854 120.138 47.1599 120.164 46.9489 120.24C46.5392 120.424 46.2093 120.749 46.019 121.157C45.5978 122.029 45.4476 123.007 45.5878 123.965C45.6878 124.89 46.0408 125.769 46.6079 126.506C47.1749 127.243 47.9341 127.809 48.8019 128.142C49.7011 128.464 50.6706 128.534 51.6066 128.346C52.5426 128.157 53.4098 127.718 54.115 127.074C55.5132 125.759 56.2949 123.493 55.6615 121.656C55.3886 120.863 54.7248 119.97 53.7882 120.084C52.8516 120.199 52.4406 121.096 52.2148 121.905C52.0074 122.848 51.8767 123.807 51.824 124.771C51.723 125.877 51.6522 126.986 51.5949 128.095C51.4703 130.378 51.4029 132.66 51.2816 134.946C51.2546 135.449 51.2243 135.958 51.1906 136.457C51.1906 136.629 51.4399 136.615 51.4501 136.457C51.7297 132.411 51.723 128.365 52.1239 124.319C52.167 123.406 52.3151 122.501 52.5652 121.622C52.6909 121.191 52.9535 120.812 53.3132 120.543C53.5021 120.42 53.7234 120.357 53.9485 120.361C54.1737 120.365 54.3924 120.437 54.5766 120.567C55.3785 121.103 55.6177 122.198 55.5873 123.119C55.5675 124.082 55.2882 125.022 54.7788 125.84C54.2863 126.641 53.5762 127.285 52.7313 127.697C51.8865 128.109 50.9419 128.272 50.0081 128.166C49.1094 128.064 48.2595 127.704 47.5611 127.129C46.8628 126.554 46.3459 125.789 46.0729 124.926C45.7855 124.066 45.7297 123.145 45.9112 122.256C46.0965 121.369 46.6726 120.118 47.771 120.455C48.8693 120.792 49.0445 122.006 49.1355 122.977C49.1995 123.652 49.2197 124.326 49.2332 125C49.2972 128.52 49.0782 132.043 49.0108 135.567C49.0108 135.904 49.0108 136.278 49.0108 136.635C49.0108 136.804 49.2702 136.794 49.2736 136.635H49.2601Z" fill="white"/>
<path d="M48.0438 142.687C48.288 142.853 48.507 143.053 48.6941 143.281C48.7575 143.361 48.8384 143.426 48.9307 143.47C49.0229 143.515 49.124 143.538 49.2264 143.537H51.2479C51.3621 143.537 51.4745 143.509 51.5755 143.455C51.6764 143.402 51.7629 143.324 51.8274 143.23C51.9893 142.968 52.2388 142.772 52.5315 142.677L48.0438 142.687Z" fill="#455A64"/>
<path d="M45.9517 136.949C45.9517 136.989 46.3593 140.216 46.5177 141.447C46.5447 141.694 46.6339 141.931 46.777 142.135C46.9202 142.339 47.1126 142.504 47.3364 142.613C47.5173 142.695 47.7138 142.738 47.9125 142.738L52.3699 142.711C52.3699 142.711 53.5322 142.711 53.8152 141.767C54.0982 140.823 54.7148 136.898 54.7148 136.898L45.9517 136.949Z" fill="#263238"/>
<path d="M54.1083 141.332L46.3593 141.406C46.3304 141.406 46.3018 141.4 46.2752 141.389C46.2486 141.378 46.2245 141.361 46.2044 141.341C46.1843 141.32 46.1685 141.295 46.1581 141.268C46.1477 141.241 46.1428 141.213 46.1437 141.184V141.16C46.1437 141.101 46.167 141.044 46.2086 141.001C46.2502 140.959 46.3067 140.935 46.366 140.934L54.115 140.86C54.1442 140.859 54.1732 140.865 54.2002 140.876C54.2272 140.887 54.2517 140.903 54.2721 140.924C54.2926 140.945 54.3086 140.97 54.3193 140.997C54.3299 141.024 54.3349 141.053 54.334 141.082V141.109C54.3323 141.168 54.3078 141.225 54.2658 141.266C54.2237 141.307 54.1673 141.331 54.1083 141.332Z" fill="#E0E0E0"/>
<path d="M54.1082 141.332C54.165 141.325 54.2181 141.3 54.2598 141.261C54.2836 141.236 54.3015 141.206 54.312 141.174C54.3225 141.141 54.3254 141.106 54.3205 141.072C54.3199 141.027 54.3039 140.983 54.2751 140.948C54.2463 140.913 54.2064 140.889 54.1621 140.88C53.741 140.88 53.1143 140.88 52.3495 140.904L46.3525 140.971C46.3218 140.972 46.2917 140.98 46.2647 140.994C46.2378 141.009 46.2147 141.03 46.1975 141.055C46.181 141.082 46.1706 141.112 46.1672 141.143C46.1603 141.174 46.1603 141.206 46.1672 141.238C46.1753 141.266 46.1903 141.292 46.2109 141.313C46.2314 141.334 46.2569 141.35 46.2851 141.359C46.3524 141.364 46.42 141.364 46.4872 141.359H47.3295H48.9231L51.6184 141.342H53.4344H54.0577H53.9296H53.4344L51.6184 141.372L48.9231 141.406H47.3295H46.4872H46.3794C46.3404 141.413 46.3006 141.413 46.2615 141.406C46.2213 141.393 46.1849 141.37 46.1555 141.339C46.1261 141.309 46.1047 141.272 46.0931 141.231C46.0863 141.191 46.0863 141.15 46.0931 141.109C46.1003 141.044 46.1309 140.984 46.1792 140.939C46.2274 140.894 46.2902 140.869 46.3558 140.867L52.3495 140.823C53.1177 140.823 53.7342 140.823 54.1689 140.823C54.2179 140.835 54.2616 140.863 54.2932 140.903C54.3248 140.943 54.3427 140.991 54.3441 141.042C54.3474 141.079 54.3424 141.116 54.3296 141.151C54.3168 141.186 54.2964 141.218 54.2699 141.244C54.2518 141.271 54.2277 141.292 54.1996 141.308C54.1715 141.323 54.1402 141.331 54.1082 141.332Z" fill="#263238"/>
<path d="M54.2936 140.314L46.2077 140.391C46.1788 140.391 46.1502 140.386 46.1236 140.374C46.097 140.363 46.0729 140.346 46.0528 140.326C46.0327 140.305 46.0169 140.28 46.0065 140.253C45.9961 140.226 45.9911 140.198 45.992 140.169V140.145C45.992 140.086 46.0154 140.029 46.057 139.987C46.0986 139.944 46.1551 139.92 46.2144 139.919L54.3003 139.842C54.3294 139.842 54.3581 139.848 54.3849 139.859C54.4117 139.87 54.436 139.886 54.4564 139.907C54.4768 139.928 54.4928 139.952 54.5036 139.979C54.5144 140.006 54.5198 140.035 54.5193 140.064V140.098C54.5167 140.156 54.4918 140.211 54.4497 140.251C54.4077 140.291 54.3517 140.314 54.2936 140.314Z" fill="#E0E0E0"/>
<path d="M54.2935 140.314C54.3259 140.311 54.3573 140.301 54.3858 140.286C54.4143 140.27 54.4393 140.249 54.4592 140.224C54.4791 140.198 54.4935 140.168 54.5015 140.137C54.5096 140.105 54.511 140.073 54.5058 140.041C54.5007 139.994 54.4799 139.951 54.4468 139.918C54.4137 139.885 54.3704 139.864 54.3239 139.859L52.4371 139.886L46.2076 139.956C46.1757 139.957 46.1444 139.966 46.1167 139.981C46.089 139.997 46.0658 140.02 46.0493 140.047C46.0333 140.075 46.0241 140.106 46.0223 140.138C46.0153 140.171 46.0153 140.204 46.0223 140.236C46.0334 140.265 46.052 140.291 46.0763 140.311C46.1006 140.33 46.1296 140.343 46.1605 140.347C46.2177 140.347 46.3053 140.347 46.3761 140.347H47.2487H48.9029L51.7027 140.327H54.2363H54.1049H53.5894L51.7027 140.358L48.9029 140.395L47.2487 140.412H46.3727C46.2952 140.412 46.2312 140.412 46.1436 140.412C46.1005 140.403 46.0603 140.384 46.0267 140.355C45.9931 140.327 45.9673 140.291 45.9516 140.25C45.9434 140.207 45.9434 140.164 45.9516 140.122C45.9524 140.076 45.9652 140.032 45.9886 139.993C46.0124 139.955 46.0456 139.923 46.0851 139.9C46.1245 139.878 46.169 139.866 46.2144 139.865L52.4405 139.818C53.239 139.818 53.8825 139.818 54.3306 139.818C54.383 139.825 54.4316 139.849 54.4683 139.887C54.5051 139.925 54.5278 139.975 54.5327 140.027C54.5373 140.065 54.5332 140.104 54.521 140.14C54.5088 140.176 54.4886 140.209 54.462 140.236C54.4421 140.262 54.4165 140.282 54.3872 140.295C54.3579 140.309 54.3258 140.315 54.2935 140.314Z" fill="#263238"/>
<path d="M54.4183 139.296L46.1167 139.373C46.088 139.374 46.0595 139.368 46.0329 139.357C46.0063 139.346 45.9822 139.33 45.962 139.31C45.9419 139.289 45.9261 139.265 45.9156 139.238C45.9051 139.211 45.9002 139.183 45.9011 139.154V139.127C45.902 139.068 45.9255 139.011 45.967 138.969C46.0084 138.927 46.0645 138.903 46.1235 138.901L54.425 138.824C54.4541 138.824 54.4828 138.829 54.5096 138.841C54.5364 138.852 54.5607 138.868 54.5811 138.889C54.6014 138.91 54.6175 138.934 54.6283 138.961C54.6391 138.988 54.6444 139.017 54.644 139.046V139.086C54.639 139.143 54.6131 139.196 54.5714 139.235C54.5297 139.273 54.4751 139.295 54.4183 139.296Z" fill="#E0E0E0"/>
<path d="M54.4182 139.296C54.4789 139.29 54.5354 139.263 54.5766 139.218C54.5996 139.189 54.6163 139.156 54.6255 139.121C54.6348 139.085 54.6365 139.048 54.6305 139.012C54.6234 138.965 54.5999 138.922 54.5641 138.891C54.5284 138.859 54.4827 138.841 54.4351 138.84L52.5012 138.871L46.1234 138.942C46.0907 138.942 46.0586 138.951 46.0303 138.968C46.002 138.984 45.9784 139.008 45.9617 139.036C45.9468 139.065 45.9387 139.097 45.9381 139.13C45.9292 139.162 45.9292 139.196 45.9381 139.228C45.9505 139.257 45.9705 139.283 45.9959 139.302C46.0214 139.321 46.0515 139.333 46.083 139.336H46.3087H47.2049H48.8895L51.7566 139.319H53.6905H54.398H54.3509H54.2161H53.6871L51.7566 139.349L48.8895 139.383L47.2049 139.403H46.3087C46.2313 139.403 46.1639 139.403 46.0796 139.403C46.0128 139.396 45.9517 139.362 45.9095 139.31C45.8672 139.257 45.8473 139.191 45.8539 139.124C45.8534 139.078 45.8651 139.032 45.8876 138.992C45.9111 138.952 45.9445 138.918 45.9846 138.895C46.0247 138.871 46.0702 138.858 46.1167 138.857L52.4911 138.81H54.425C54.4787 138.812 54.5299 138.833 54.5695 138.87C54.609 138.906 54.6342 138.956 54.6406 139.009C54.6476 139.048 54.6454 139.088 54.6343 139.126C54.6232 139.164 54.6035 139.199 54.5766 139.228C54.4924 139.319 54.4149 139.296 54.4182 139.296Z" fill="#263238"/>
<path d="M54.6069 138.277L45.9684 138.362C45.9395 138.362 45.9109 138.356 45.8843 138.345C45.8577 138.333 45.8336 138.317 45.8135 138.296C45.7934 138.275 45.7777 138.251 45.7672 138.224C45.7568 138.197 45.7519 138.168 45.7528 138.139V138.112C45.7536 138.053 45.7772 137.997 45.8187 137.955C45.8601 137.912 45.9161 137.888 45.9751 137.886L54.6136 137.805C54.6426 137.805 54.6714 137.811 54.6982 137.822C54.725 137.834 54.7493 137.85 54.7697 137.871C54.79 137.891 54.8061 137.916 54.8169 137.943C54.8277 137.97 54.833 137.999 54.8326 138.028V138.051C54.8326 138.111 54.8088 138.169 54.7665 138.211C54.7241 138.254 54.6667 138.277 54.6069 138.277Z" fill="#E0E0E0"/>
<path d="M54.607 138.277C54.6415 138.275 54.6749 138.264 54.705 138.247C54.7351 138.23 54.761 138.206 54.7809 138.178C54.8009 138.15 54.8143 138.117 54.8204 138.083C54.8264 138.049 54.8249 138.014 54.8158 137.981C54.8047 137.932 54.7763 137.889 54.736 137.86C54.6958 137.831 54.6463 137.818 54.5969 137.822L52.5754 137.853L45.9584 137.927C45.9244 137.927 45.8912 137.937 45.8622 137.955C45.8332 137.973 45.8094 137.998 45.7933 138.028C45.7784 138.059 45.7706 138.093 45.7706 138.127C45.7706 138.162 45.7784 138.196 45.7933 138.227C45.8083 138.256 45.8315 138.281 45.8602 138.298C45.8889 138.315 45.9218 138.323 45.955 138.321H46.1909H47.1208H48.8761L51.851 138.301H53.8556H54.5901H54.543H54.3981H53.8556L51.8342 138.331L48.8626 138.368L47.1039 138.385H46.1774H45.9382C45.8919 138.385 45.8465 138.373 45.8067 138.349C45.767 138.325 45.7344 138.291 45.7125 138.25C45.6925 138.208 45.6821 138.162 45.6821 138.116C45.6817 138.068 45.6933 138.022 45.7158 137.981C45.7375 137.937 45.7707 137.901 45.8117 137.875C45.8527 137.85 45.9 137.836 45.9483 137.836L52.5619 137.785H54.5834C54.6386 137.781 54.6935 137.797 54.7377 137.83C54.7818 137.864 54.812 137.913 54.8226 137.967C54.831 138.007 54.8306 138.048 54.8213 138.088C54.8119 138.127 54.794 138.165 54.7687 138.196C54.7352 138.234 54.6903 138.26 54.6407 138.271L54.607 138.277Z" fill="#263238"/>
<path d="M44.887 134.167C44.887 134.252 45.0285 136.227 45.1026 137.242C45.1153 137.424 45.1696 137.6 45.2614 137.757C45.3531 137.915 45.4798 138.049 45.6315 138.149L46.0796 138.446L54.6945 138.412L55.1493 138.116C55.3061 138.013 55.438 137.876 55.5354 137.716C55.6327 137.555 55.693 137.375 55.712 137.188L56.0287 134.12L44.887 134.167Z" fill="#E0E0E0"/>
<g opacity="0.3">
<path d="M46.6355 141.383C47.48 141.544 48.3404 141.607 49.1994 141.571C49.9339 141.571 50.6549 141.571 51.4534 141.571C52.0396 141.554 52.5786 141.521 53.1615 141.494C53.3943 141.491 53.624 141.44 53.8353 141.342L46.6355 141.383Z" fill="black"/>
</g>
<g opacity="0.3">
<path d="M46.3491 140.364C47.2606 140.526 48.1869 140.589 49.1118 140.55C49.9036 140.55 50.6818 140.55 51.5443 140.55C52.1743 140.533 52.7538 140.503 53.3839 140.472C53.6368 140.472 53.8869 140.419 54.1183 140.317L46.3491 140.364Z" fill="black"/>
</g>
<g opacity="0.3">
<path d="M46.366 139.356C47.2785 139.518 48.206 139.58 49.132 139.542C49.9238 139.542 50.702 139.542 51.5612 139.542C52.1946 139.525 52.774 139.491 53.4041 139.464C53.6568 139.462 53.9065 139.409 54.1385 139.309L46.366 139.356Z" fill="black"/>
</g>
<g opacity="0.3">
<path d="M46.3862 138.345C47.2987 138.508 48.2262 138.571 49.1523 138.534C49.944 138.534 50.7223 138.534 51.5814 138.534C52.2148 138.517 52.7943 138.483 53.4243 138.453C53.6769 138.453 53.9269 138.401 54.1588 138.301L46.3862 138.345Z" fill="black"/>
</g>
<path d="M55.493 137.593C55.493 137.613 53.1885 137.643 50.3483 137.66C47.5082 137.677 45.2003 137.66 45.2003 137.66C45.2003 137.66 47.5048 137.61 50.3483 137.593C53.1919 137.576 55.493 137.573 55.493 137.593Z" fill="#263238"/>
<path d="M55.9681 134.046C55.9681 134.07 53.4682 134.113 50.3787 134.144C47.2892 134.174 44.7893 134.178 44.7893 134.144C44.7893 134.11 47.2892 134.076 50.3787 134.046C53.4682 134.016 55.9681 134.029 55.9681 134.046Z" fill="#263238"/>
<g opacity="0.2">
<path d="M48.3976 114.902C48.4246 114.622 48.5099 114.35 48.648 114.105C48.7861 113.859 48.9739 113.645 49.1994 113.476C49.8821 112.895 50.7649 112.605 51.6589 112.667C54.2632 112.819 56.0388 113.625 57.8109 115.701C58.4106 116.403 59.1047 117.691 59.0474 118.675C59.0367 118.921 58.9769 119.162 58.8716 119.385C58.7663 119.607 58.6176 119.806 58.4342 119.97C57.4504 120.806 56.0994 120.122 55.311 119.238C54.5732 118.416 53.9937 117.37 52.983 116.929C52.1508 116.565 51.1906 116.686 50.2877 116.554C49.3847 116.423 48.4077 115.823 48.3976 114.902Z" fill="white"/>
</g>
<g opacity="0.2">
<path d="M57.6896 122.421C57.8279 122.061 58.0803 121.756 58.4084 121.553C58.7364 121.35 59.1218 121.261 59.5056 121.298C59.7613 121.364 59.9983 121.488 60.1982 121.66C60.3981 121.833 60.5554 122.049 60.6578 122.293C60.7702 122.598 60.7921 122.929 60.721 123.246C60.6498 123.563 60.4887 123.852 60.2569 124.08C60.0206 124.299 59.7208 124.437 59.401 124.473C59.0812 124.51 58.7579 124.445 58.478 124.285C57.9423 123.952 57.4773 123.035 57.6896 122.421Z" fill="white"/>
</g>
<path d="M36.7269 115.422C36.7 115.462 34.601 114.151 32.0337 112.492C29.4665 110.833 27.4113 109.457 27.4383 109.414C27.4652 109.37 29.5642 110.685 32.1314 112.343C34.6987 114.002 36.7539 115.381 36.7269 115.422Z" fill="#263238"/>
<path d="M39.1965 111.018C38.4946 110.199 37.8378 109.343 37.2289 108.453C36.5724 107.597 35.9629 106.707 35.4028 105.786C36.1047 106.605 36.7615 107.461 37.3704 108.352C38.0282 109.206 38.6379 110.096 39.1965 111.018Z" fill="#263238"/>
<path d="M35.1131 120.078C34.7861 120.066 34.4599 120.037 34.136 119.99C33.5262 119.919 32.6806 119.815 31.7507 119.687C30.8208 119.559 29.9785 119.434 29.3687 119.349C29.0655 119.299 28.8196 119.252 28.6511 119.215L28.4591 119.164C28.4395 119.16 28.4211 119.152 28.4052 119.14C28.4254 119.107 28.4254 119.14 28.4287 119.14C28.5066 119.138 28.5845 119.144 28.6612 119.157L29.3889 119.235C29.9987 119.309 30.841 119.414 31.7743 119.542C33.6273 119.768 35.1535 120.014 35.1131 120.078Z" fill="#263238"/>
<path d="M123.718 71.8343C118.842 67.8741 115.194 62.6067 113.199 56.6479C111.205 50.6892 110.947 44.2853 112.455 38.1851C113.963 32.0849 117.176 26.5405 121.717 22.2001C126.258 17.8597 131.94 14.9027 138.099 13.6748C144.257 12.4469 150.638 12.9989 156.495 15.2663C162.351 17.5336 167.442 21.4226 171.172 26.4785C174.901 31.5345 177.115 37.5484 177.555 43.8171C177.995 50.0858 176.642 56.3503 173.655 61.8782L164.579 56.9591C166.633 53.1532 167.562 48.8407 167.257 44.526C166.952 40.2112 165.426 36.0724 162.858 32.5936C160.289 29.1148 156.783 26.4397 152.751 24.8811C148.719 23.3226 144.327 22.945 140.088 23.7925C135.85 24.64 131.94 26.6776 128.816 29.667C125.691 32.6564 123.482 36.4741 122.447 40.6736C121.411 44.8732 121.591 49.281 122.967 53.3817C124.342 57.4824 126.856 61.1065 130.214 63.8303L123.718 71.8343Z" fill="#455A64"/>
<g opacity="0.3">
<path d="M163.42 29.5821L164.265 30.5464L167.298 27.8896C167.19 27.6637 167.072 27.4479 166.961 27.2355C166.961 27.2355 166.961 27.2052 166.961 27.1984C166.961 27.1917 166.961 27.1984 166.934 27.1984C166.755 26.8958 166.558 26.6042 166.344 26.3252C165.868 25.715 165.32 25.1639 164.714 24.6833C164.505 24.518 164.289 24.3461 164.063 24.1978L161.031 26.8512L161.857 27.7918L160.883 28.6482C157.701 25.5952 153.62 23.6512 149.246 23.1054L149.323 21.2949L150.84 21.3589L151.032 16.6826C151.082 16.6522 151.109 16.632 151.102 16.6219C151.096 16.6118 151.079 16.6219 151.035 16.6219C149.152 16.0197 147.142 15.9301 145.213 16.3623V16.3994C145.197 16.3994 145.187 16.3994 145.183 16.3994C145.183 16.3994 145.183 16.3994 145.21 16.4331L145.018 21.1094L146.497 21.1701L146.423 22.9267C141.86 22.9704 137.443 24.5353 133.869 27.3737L132.96 26.2207L133.97 25.4284L131.477 22.2692C131.248 22.3636 131.026 22.4715 130.803 22.5828C130.786 22.5828 130.773 22.5828 130.77 22.5828C130.766 22.5828 130.77 22.5828 130.77 22.6098C130.459 22.7737 130.157 22.9549 129.867 23.1526C129.232 23.5969 128.653 24.1152 128.142 24.6967C127.967 24.899 127.805 25.1047 127.623 25.3205L130.113 28.4762L131.096 27.7008L132.09 28.9617C129.273 31.7853 127.335 35.3671 126.514 39.2719C125.692 43.1766 126.022 47.2361 127.462 50.957C128.903 54.6778 131.392 57.8998 134.629 60.2313C137.865 62.5627 141.708 63.9033 145.691 64.09C149.674 64.2767 153.626 63.3016 157.065 61.283C160.505 59.2645 163.285 56.2896 165.067 52.7198C166.849 49.15 167.556 45.1391 167.103 41.1746C166.649 37.2101 165.055 33.4627 162.514 30.3879L163.42 29.5821Z" fill="black"/>
</g>
<path d="M130.915 26.2469L129.041 27.7288L131.353 30.6574L133.227 29.1755L130.915 26.2469Z" fill="#263238"/>
<path d="M132.609 26.3218L128.745 29.3765L126.255 26.2207C127.247 24.8766 128.58 23.8221 130.116 23.1661L132.609 26.3218Z" fill="#FF6C37"/>
<path d="M129.392 28.864C129.331 28.9145 128.694 28.22 127.973 27.3164C127.252 26.4129 126.716 25.6307 126.777 25.5902C126.838 25.5497 127.475 26.2342 128.196 27.1377C128.917 28.0413 129.452 28.8168 129.392 28.864Z" fill="#263238"/>
<path d="M130.129 28.2841C130.065 28.3313 129.456 27.6098 128.728 26.6522C128.272 26.0994 127.869 25.5045 127.525 24.8754C127.603 24.808 128.243 25.5498 128.957 26.4803C129.671 27.4108 130.19 28.2369 130.129 28.2841Z" fill="#263238"/>
<path d="M131.11 27.5086C131.046 27.5558 130.416 26.8141 129.702 25.8532C128.987 24.8923 128.455 24.0831 128.506 24.0427C128.556 24.0022 129.216 24.717 129.931 25.6813C130.645 26.6455 131.174 27.4614 131.11 27.5086Z" fill="#263238"/>
<path d="M132.003 26.7804C131.942 26.8309 131.309 26.1263 130.594 25.2126C129.88 24.2989 129.348 23.5268 129.412 23.4695C129.476 23.4122 130.103 24.1236 130.82 25.0373C131.538 25.951 132.063 26.7332 132.003 26.7804Z" fill="#263238"/>
<path d="M162.918 29.7336L161.34 27.9384L158.539 30.4027L160.117 32.1979L162.918 29.7336Z" fill="#263238"/>
<path d="M162.911 31.4398L159.663 27.7311L162.695 25.0744C164.089 25.9996 165.211 27.2798 165.947 28.7831L162.911 31.4398Z" fill="#FF6C37"/>
<path d="M160.206 28.3616C160.155 28.3009 160.812 27.63 161.678 26.8613C162.544 26.0926 163.285 25.5127 163.339 25.5734C163.393 25.634 162.732 26.305 161.867 27.0737C161.001 27.8424 160.26 28.4189 160.206 28.3616Z" fill="#263238"/>
<path d="M160.822 29.0663C160.772 29.0056 161.473 28.3414 162.375 27.5794C162.903 27.0943 163.477 26.6608 164.087 26.2848C164.161 26.3589 163.467 27.0366 162.561 27.7986C161.654 28.5606 160.876 29.127 160.822 29.0663Z" fill="#263238"/>
<path d="M161.651 30.0035C161.6 29.9429 162.308 29.2753 163.228 28.5133C164.148 27.7514 164.929 27.1647 164.973 27.2187C165.017 27.2726 164.329 27.9671 163.41 28.7325C162.49 29.4978 161.702 30.0642 161.651 30.0035Z" fill="#263238"/>
<path d="M162.423 30.8599C162.372 30.7992 163.039 30.1317 163.912 29.3697C164.784 28.6077 165.539 28.0211 165.596 28.0953C165.654 28.1694 164.983 28.8201 164.107 29.5855C163.231 30.3508 162.477 30.9172 162.423 30.8599Z" fill="#263238"/>
<path d="M148.223 20.6239L145.393 20.5107L145.216 24.9274L148.046 25.0407L148.223 20.6239Z" fill="#263238"/>
<path d="M149.485 22.2389L143.663 21.9961L143.859 17.2389C145.786 16.8004 147.796 16.8842 149.681 17.4816L149.485 22.2389Z" fill="#FF6C37"/>
<path d="M149.748 17.5053C149.792 17.5592 148.495 18.2032 146.763 18.1324C145.031 18.0616 143.785 17.3401 143.828 17.2861C143.872 17.2322 145.112 17.7952 146.773 17.8458C148.434 17.8964 149.724 17.4176 149.748 17.5053Z" fill="#263238"/>
<path d="M145.587 22.0636C145.506 22.0636 145.483 21.1431 145.53 20.017C145.577 18.8909 145.678 17.9941 145.755 17.9941C145.833 17.9941 145.86 18.9145 145.813 20.0406C145.766 21.1667 145.661 22.0669 145.587 22.0636Z" fill="#263238"/>
<path d="M146.692 22.1377C146.615 22.1377 146.588 21.2139 146.635 20.0811C146.682 18.9483 146.783 18.0346 146.864 18.0379C146.945 18.0413 146.968 18.9617 146.921 20.0946C146.874 21.2274 146.77 22.1411 146.692 22.1377Z" fill="#263238"/>
<path d="M147.801 22.1647C147.723 22.1647 147.696 21.2409 147.743 20.1115C147.79 18.982 147.892 18.0649 147.972 18.0683C148.053 18.0717 148.077 18.9887 148.03 20.1216C147.983 21.2544 147.878 22.1681 147.801 22.1647Z" fill="#263238"/>
<path d="M148.724 22.2052C148.646 22.2052 148.623 21.1937 148.673 19.9833C148.724 18.7729 148.828 17.7716 148.909 17.775C148.99 17.7783 149.01 18.7864 148.96 19.9934C148.909 21.2005 148.801 22.2086 148.724 22.2052Z" fill="#263238"/>
<path d="M144.539 22.0029C144.462 22.0029 144.438 20.9914 144.489 19.781C144.539 18.5706 144.644 17.5693 144.725 17.5727C144.805 17.576 144.826 18.5841 144.775 19.7911C144.725 20.9982 144.617 22.0029 144.539 22.0029Z" fill="#263238"/>
<path d="M152.64 63.6388C163.256 59.5734 168.569 47.6652 164.507 37.0412C160.444 26.4172 148.545 21.1005 137.928 25.1659C127.312 29.2313 121.999 41.1394 126.061 51.7634C130.124 62.3874 142.024 67.7042 152.64 63.6388Z" fill="#FF6C37"/>
<path d="M157.518 56.4813C164.269 49.7254 164.269 38.7721 157.518 32.0162C150.767 25.2604 139.821 25.2604 133.07 32.0162C126.319 38.7721 126.319 49.7254 133.07 56.4813C139.821 63.2371 150.767 63.2371 157.518 56.4813Z" fill="white"/>
<path d="M162.564 44.9665C162.564 44.9665 162.564 44.8721 162.544 44.6866C162.524 44.5012 162.544 44.218 162.524 43.864C162.524 43.6819 162.524 43.4796 162.524 43.2605C162.524 43.0413 162.473 42.7952 162.443 42.5322C162.391 41.9271 162.295 41.3265 162.156 40.7352C161.82 39.1047 161.239 37.5347 160.431 36.0791C159.265 33.9374 157.659 32.0673 155.718 30.5918C153.777 29.1163 151.546 28.069 149.172 27.5187C148.461 27.3592 147.741 27.2466 147.016 27.1816C146.645 27.1546 146.274 27.104 145.897 27.0939H144.762C144.57 27.0939 144.378 27.0939 144.186 27.0939L143.613 27.158C143.229 27.2086 142.838 27.2355 142.45 27.2996C141.667 27.4416 140.894 27.6341 140.136 27.8761C139.358 28.1208 138.599 28.4182 137.862 28.7662C137.491 28.9483 137.134 29.1607 136.767 29.3596C136.397 29.5586 136.043 29.784 135.705 30.0339C134.257 30.9903 132.977 32.181 131.919 33.5572C130.795 34.945 129.902 36.5045 129.274 38.1762C127.952 41.6314 127.791 45.4237 128.816 48.9786C129.301 50.6976 130.061 52.3268 131.066 53.8033C131.553 54.524 132.087 55.2122 132.663 55.8633C133.251 56.482 133.879 57.061 134.543 57.5963C134.862 57.8724 135.2 58.1259 135.554 58.3549C135.891 58.5808 136.228 58.8235 136.592 59.0292C137.989 59.8315 139.486 60.4492 141.042 60.8667C141.423 60.9611 141.807 61.0251 142.188 61.1027L142.754 61.214C142.946 61.2477 143.138 61.2544 143.326 61.2746L144.458 61.3825C144.832 61.4028 145.206 61.3825 145.577 61.3825C146.306 61.3795 147.035 61.3266 147.757 61.2241C150.168 60.8724 152.478 60.014 154.534 58.7054C156.59 57.3968 158.346 55.6676 159.687 53.6313C160.612 52.2462 161.322 50.7286 161.793 49.1303C161.982 48.5532 162.129 47.9626 162.231 47.3636C162.281 47.1074 162.338 46.868 162.369 46.6489C162.399 46.4297 162.413 46.2274 162.433 46.0454C162.47 45.7082 162.5 45.425 162.524 45.2295C162.547 45.0339 162.564 44.9496 162.564 44.9496C162.564 44.9496 162.564 45.044 162.564 45.2295C162.564 45.4149 162.53 45.7015 162.503 46.0521C162.49 46.2342 162.473 46.4365 162.453 46.659C162.426 46.8815 162.372 47.1209 162.325 47.3805C162.233 47.9845 162.095 48.5807 161.914 49.164C161.452 50.787 160.743 52.329 159.812 53.7359C158.471 55.8091 156.705 57.5729 154.631 58.91C152.556 60.2471 150.221 61.1267 147.78 61.4904C147.048 61.5976 146.31 61.655 145.57 61.6624C145.196 61.6624 144.816 61.6826 144.435 61.6624L143.303 61.541C143.111 61.5208 142.915 61.514 142.723 61.4803L142.147 61.369C141.763 61.2915 141.372 61.2308 140.985 61.133C139.403 60.7111 137.882 60.0855 136.46 59.2719C136.1 59.0562 135.756 58.81 135.402 58.5976C135.047 58.3667 134.709 58.1097 134.391 57.8289C133.716 57.2871 133.079 56.699 132.485 56.069C131.896 55.4105 131.352 54.7133 130.857 53.982C129.835 52.4807 129.061 50.8242 128.566 49.0764C127.515 45.4598 127.676 41.5983 129.024 38.0818C129.664 36.3811 130.574 34.7951 131.72 33.3852C132.273 32.6973 132.872 32.0473 133.512 31.4398C134.158 30.8633 134.841 30.3305 135.557 29.8451C135.901 29.5948 136.263 29.3694 136.639 29.1708C137.013 28.9685 137.377 28.7527 137.75 28.5673C139.234 27.8745 140.802 27.3781 142.413 27.0906C142.808 27.0265 143.202 26.9961 143.593 26.9489L144.179 26.8849C144.371 26.8849 144.566 26.8849 144.762 26.8849H145.914C146.295 26.8849 146.672 26.9489 147.046 26.9793C147.782 27.041 148.512 27.1537 149.232 27.3164C151.634 27.8792 153.887 28.9472 155.844 30.4494C157.8 31.9515 159.415 33.8534 160.58 36.0285C161.381 37.5057 161.949 39.0979 162.264 40.7487C162.397 41.3448 162.486 41.95 162.53 42.5592C162.554 42.8222 162.588 43.0649 162.598 43.2875C162.608 43.51 162.598 43.7156 162.598 43.8977C162.598 44.2349 162.598 44.5248 162.598 44.7204C162.598 44.9159 162.564 44.9665 162.564 44.9665Z" fill="#263238"/>
<path d="M160.051 44.5922C158.474 44.5518 157.197 44.4237 157.197 44.3057C157.197 44.1877 158.477 44.0697 160.054 44.0427C161.631 44.0157 162.908 44.1438 162.908 44.3293C162.908 44.5147 161.627 44.6327 160.051 44.5922Z" fill="#263238"/>
<path d="M155.543 54.8788C154.451 53.7392 153.636 52.748 153.717 52.6671C153.798 52.5862 154.791 53.3987 155.93 54.4911C157.069 55.5835 157.888 56.5713 157.756 56.7028C157.625 56.8343 156.634 56.0184 155.543 54.8788Z" fill="#263238"/>
<path d="M145.112 59.0225C145.136 57.4446 145.25 56.1634 145.368 56.1634C145.486 56.1634 145.614 57.4378 145.658 59.0191C145.702 60.6003 145.587 61.8782 145.402 61.8782C145.216 61.8782 145.088 60.597 145.112 59.0225Z" fill="#263238"/>
<path d="M134.782 54.6226C135.908 53.5201 136.888 52.6907 136.972 52.7716C137.056 52.8525 136.251 53.8539 135.173 55.0069C134.095 56.16 133.118 56.9894 132.983 56.8579C132.848 56.7264 133.657 55.7284 134.782 54.6226Z" fill="#263238"/>
<path d="M130.527 44.2281C132.107 44.2281 133.384 44.336 133.387 44.454C133.391 44.572 132.114 44.717 130.537 44.7912C128.96 44.8653 127.68 44.7507 127.677 44.5653C127.673 44.3798 128.954 44.2214 130.527 44.2281Z" fill="#263238"/>
<path d="M134.809 33.8471C135.924 34.9597 136.763 35.9341 136.682 36.0184C136.602 36.1027 135.594 35.307 134.428 34.2416C133.263 33.1762 132.427 32.2187 132.555 32.0703C132.683 31.922 133.694 32.7311 134.809 33.8471Z" fill="#263238"/>
<path d="M145.149 29.4742C145.149 31.0521 145.072 32.3333 144.954 32.3367C144.836 32.34 144.677 31.0656 144.617 29.4911C144.556 27.9166 144.617 26.632 144.812 26.6253C145.008 26.6185 145.139 27.8963 145.149 29.4742Z" fill="#263238"/>
<path d="M155.57 33.6415C154.468 34.7709 153.508 35.6239 153.42 35.543C153.333 35.4621 154.118 34.4439 155.169 33.2672C156.22 32.0905 157.19 31.2443 157.318 31.369C157.446 31.4938 156.671 32.5154 155.57 33.6415Z" fill="#263238"/>
<path d="M150.489 35.2632C150.469 37.8009 150.287 40.3348 149.943 42.8492C149.855 43.7653 149.634 44.6637 149.286 45.5161C148.931 46.3732 148.257 47.0586 147.406 47.4277C146.979 47.5989 146.509 47.6335 146.062 47.5266C145.614 47.4198 145.21 47.1767 144.906 46.831L150.489 35.2632Z" fill="#E0E0E0"/>
<path d="M144.974 42.8694L151.692 32.5525L147.406 44.3326L145.446 44.835L144.974 42.8694Z" fill="#FF6C37"/>
<g opacity="0.4">
<path d="M151.692 32.5525L146.588 43.1661L147.406 44.3326L151.692 32.5525Z" fill="black"/>
</g>
<path d="M147.467 44.9193C147.45 45.3188 147.315 45.7044 147.079 46.0273C146.843 46.3501 146.517 46.5958 146.142 46.7331C145.766 46.8705 145.359 46.8935 144.97 46.7991C144.582 46.7047 144.23 46.4973 143.96 46.2029C143.689 45.9086 143.512 45.5406 143.45 45.1454C143.388 44.7503 143.445 44.3457 143.613 43.9828C143.781 43.6199 144.053 43.315 144.394 43.1066C144.735 42.8983 145.13 42.7957 145.53 42.812C145.795 42.8229 146.056 42.886 146.297 42.9978C146.538 43.1096 146.755 43.2679 146.935 43.4637C147.115 43.6594 147.255 43.8887 147.346 44.1385C147.437 44.3882 147.478 44.6536 147.467 44.9193Z" fill="#FAFAFA"/>
<path d="M147.467 44.9193C147.44 44.9193 147.447 44.7372 147.369 44.4338C147.259 44.0086 147.013 43.6311 146.669 43.3582C146.395 43.1369 146.065 42.996 145.715 42.9513C145.366 42.9067 145.011 42.96 144.691 43.1054C144.37 43.2508 144.096 43.4824 143.899 43.7746C143.702 44.0667 143.59 44.4078 143.576 44.7599C143.562 45.1119 143.645 45.4611 143.818 45.7683C143.99 46.0755 144.244 46.3288 144.552 46.4999C144.86 46.671 145.209 46.7531 145.561 46.7372C145.912 46.7212 146.253 46.6078 146.544 46.4095C146.908 46.1663 147.184 45.8114 147.329 45.398C147.43 45.1013 147.44 44.9193 147.467 44.9226C147.497 45.0912 147.487 45.2646 147.437 45.4284C147.321 45.8915 147.045 46.2987 146.658 46.5781C146.37 46.787 146.033 46.9198 145.68 46.964C145.327 47.0082 144.968 46.9624 144.637 46.8309C144.225 46.6655 143.875 46.3765 143.634 46.0035C143.393 45.6306 143.274 45.1921 143.292 44.7484C143.311 44.3048 143.466 43.8777 143.737 43.5261C144.008 43.1745 144.381 42.9156 144.805 42.7851C145.148 42.6801 145.511 42.6636 145.862 42.7373C146.213 42.811 146.539 42.9725 146.81 43.2065C147.169 43.5172 147.408 43.9445 147.484 44.4135C147.52 44.581 147.514 44.7546 147.467 44.9193Z" fill="#263238"/>
<path d="M146.948 44.8991C146.935 45.1961 146.835 45.4826 146.659 45.7224C146.484 45.9622 146.241 46.1446 145.962 46.2464C145.683 46.3483 145.38 46.365 145.091 46.2946C144.802 46.2242 144.541 46.0697 144.34 45.8508C144.139 45.6318 144.008 45.3581 143.962 45.0644C143.917 44.7706 143.959 44.4699 144.084 44.2003C144.209 43.9306 144.412 43.7042 144.665 43.5495C144.919 43.3948 145.213 43.3189 145.51 43.3313C145.707 43.3395 145.901 43.3866 146.08 43.4699C146.259 43.5532 146.42 43.671 146.554 43.8166C146.687 43.9622 146.791 44.1328 146.859 44.3185C146.926 44.5043 146.957 44.7015 146.948 44.8991Z" fill="#455A64"/>
<path d="M157.355 50.0373L156.075 72.1782C156.064 72.3708 156.098 72.5632 156.174 72.7404C156.25 72.9177 156.366 73.0749 156.513 73.1997C156.66 73.3245 156.834 73.4135 157.021 73.4597C157.208 73.506 157.403 73.5082 157.591 73.4662L180.164 68.3583C180.393 68.3058 180.601 68.1902 180.767 68.0245C180.932 67.8589 181.048 67.6499 181.1 67.4216C181.153 67.1932 181.14 66.9548 181.063 66.7334C180.986 66.5121 180.849 66.3169 180.666 66.1701L159.39 49.1371C159.212 48.9909 158.997 48.897 158.768 48.8659C158.54 48.8348 158.307 48.8678 158.096 48.9611C157.885 49.0543 157.705 49.2043 157.574 49.3943C157.443 49.5843 157.367 49.8069 157.355 50.0373Z" fill="#455A64"/>
<path d="M39.3078 92.1917L51.9994 108.581C52.087 108.694 52.1987 108.786 52.3264 108.851C52.4541 108.916 52.5946 108.952 52.7377 108.956C52.8809 108.959 53.0231 108.931 53.1541 108.874C53.2851 108.816 53.4016 108.73 53.4953 108.621L66.7629 93.2335C66.8815 93.0956 66.9588 92.9271 66.9861 92.7472C67.0133 92.5673 66.9893 92.3834 66.9169 92.2166C66.8444 92.0497 66.7264 91.9067 66.5764 91.8039C66.4264 91.7011 66.2505 91.6427 66.0688 91.6354L40.1265 90.6408C39.9422 90.6302 39.7587 90.6728 39.5978 90.7637C39.437 90.8545 39.3056 90.9896 39.2194 91.153C39.1331 91.3165 39.0956 91.5012 39.1113 91.6854C39.127 91.8695 39.1952 92.0453 39.3078 92.1917Z" fill="#FF6C37"/>
<path d="M126.629 119.225C123.167 124.192 118.558 128.248 113.193 131.05C107.828 133.852 101.866 135.316 95.8149 135.317H62.9794V145.644H95.8149C103.304 145.644 110.688 143.885 117.374 140.51C124.061 137.135 129.863 132.237 134.314 126.211L126.629 119.225Z" fill="#FF6C37"/>
<path d="M131.531 65.7487C127.044 60.709 121.542 56.6764 115.387 53.9157C109.232 51.155 102.563 49.7287 95.8182 49.7305C69.3942 49.7305 47.8958 71.2443 47.8958 97.6873H58.2154C58.2131 90.0805 60.5156 82.6517 64.8192 76.3814C69.1227 70.111 75.2249 65.2939 82.3205 62.5655C89.4162 59.8372 97.1717 59.326 104.564 61.0993C111.956 62.8727 118.637 66.8472 123.725 72.4985L131.531 65.7487Z" fill="#FF6C37"/>
<path d="M134.637 69.6057L126.552 76.0521C130.549 81.7247 132.896 88.3952 133.333 95.3225C133.77 102.25 132.28 109.163 129.028 115.294L137.07 122.037C141.813 114.009 144.109 104.769 143.675 95.4527C143.241 86.1366 140.096 77.1504 134.627 69.599L134.637 69.6057Z" fill="#FF6C37"/>
<g opacity="0.3">
<path d="M48.3641 90.9476L58.7512 91.3286L59.2228 89.0056L48.8055 88.5943L48.3641 90.9476Z" fill="black"/>
</g>
<g opacity="0.3">
<path d="M87.1528 61.0656L88.8273 60.7082L92.1021 51.8647L102.348 51.2881L92.7523 49.7271L90.2693 50.0474L87.1528 61.0656Z" fill="black"/>
</g>
<path d="M34.992 135.412H10.1885V145.739H34.992V135.412Z" fill="#455A64"/>
<path d="M89.4337 29.1472C89.4337 29.1472 89.0766 29.3023 89.0193 28.81C88.9621 28.3178 89.9593 27.3367 90.2794 27.0197C90.5995 26.7028 91.0543 26.7702 91.4586 26.8613C91.8629 26.9523 93.5171 27.1175 94.0663 27.4715C94.6155 27.8255 95.4577 29.5922 95.6329 29.6765C95.8081 29.7608 100.97 30.0137 100.97 30.0137L100.747 34.2483C100.747 34.2483 95.6936 33.2807 94.6828 32.6536C93.6721 32.0265 93.8102 31.777 93.5272 31.1903C93.2442 30.6037 92.9343 29.9833 92.9343 29.9833L92.4592 29.9024L91.7012 30.3239C91.7012 30.3239 91.6102 31.3994 90.8589 31.369L90.4883 31.1769C90.4883 31.1769 90.2423 31.4601 89.9627 31.0218C89.6831 30.5835 89.7336 30.5228 89.7336 30.5228C89.7336 30.5228 89.4405 30.8869 89.1204 30.4351C88.8003 29.9833 89.4337 29.1472 89.4337 29.1472Z" fill="#AE7461"/>
<path d="M94.9961 30.9442C94.9961 30.9442 94.9793 30.9442 94.9422 30.9645C94.8862 30.9691 94.8298 30.9691 94.7738 30.9645C94.5587 30.963 94.3481 30.9036 94.164 30.7925C93.8816 30.6255 93.657 30.3761 93.5204 30.0777C93.3555 29.7032 93.2651 29.3001 93.2543 28.891L93.3351 28.9415C92.7018 29.2307 91.989 29.2961 91.3137 29.127C91.1692 29.1033 91.034 29.0403 90.9229 28.9449C90.8944 28.9096 90.8789 28.8655 90.8789 28.8202C90.8789 28.7748 90.8944 28.7308 90.9229 28.6954C90.9718 28.6405 91.0347 28.5997 91.1048 28.5774C91.5697 28.3886 91.9942 28.2402 92.3581 28.1324C92.722 28.0245 93.0319 27.9469 93.224 27.8997C93.3339 27.8687 93.4469 27.8494 93.5609 27.8424C93.461 27.8858 93.3572 27.9197 93.2509 27.9436C93.0488 28.0042 92.7557 28.0919 92.3985 28.2133C92.0414 28.3347 91.6203 28.4897 91.1587 28.6819C91.108 28.6979 91.0618 28.7256 91.0239 28.7628C91.0107 28.7777 91.0033 28.7969 91.0033 28.8168C91.0033 28.8367 91.0107 28.8559 91.0239 28.8707C91.1217 28.9471 91.2379 28.9959 91.3608 29.0123C92.0062 29.1668 92.6843 29.1053 93.2913 28.837L93.3688 28.7999V28.8876C93.3753 29.2828 93.4577 29.6731 93.6114 30.0373C93.7361 30.3214 93.941 30.5628 94.201 30.7318C94.3735 30.842 94.5699 30.9091 94.7738 30.9274C94.9153 30.951 94.9961 30.9375 94.9961 30.9442Z" fill="#6F4439"/>
<path d="M92.3818 28.0413C92.2363 28.1293 92.0644 28.1627 91.8966 28.1357C91.7417 28.1357 91.5597 28.1088 91.3677 28.1357C91.2657 28.1399 91.1657 28.1658 91.0745 28.2118C90.9833 28.2577 90.9029 28.3226 90.8387 28.4021C90.5695 28.7022 90.2385 28.9403 89.8684 29.1C89.7202 29.1775 89.557 29.2223 89.39 29.2315C89.39 29.2315 89.5652 29.1607 89.8314 29.0225C90.1796 28.8462 90.4926 28.6073 90.7545 28.3178C90.8332 28.2265 90.9295 28.152 91.0375 28.0986C91.1433 28.0503 91.2581 28.025 91.3744 28.0245C91.5548 28.0254 91.735 28.0389 91.9135 28.0649C92.07 28.0728 92.2269 28.0649 92.3818 28.0413Z" fill="#6F4439"/>
<path d="M91.3171 29.1742C91.1878 29.5277 90.9598 29.8366 90.6601 30.0643C90.3877 30.3242 90.0481 30.5029 89.6797 30.5801C89.9931 30.397 90.2947 30.1943 90.5826 29.9732C90.8443 29.7229 91.0897 29.456 91.3171 29.1742Z" fill="#6F4439"/>
<path d="M91.506 29.8181C91.4612 30.1182 91.3443 30.4029 91.1653 30.6478C90.9863 30.8927 90.7506 31.0904 90.4784 31.2241C90.4582 31.1937 90.785 30.9678 91.068 30.5767C91.351 30.1856 91.469 29.808 91.506 29.8181Z" fill="#6F4439"/>
<path d="M107.098 20.8936L102.479 29.2348L95.3096 29.1135L94.7705 33.4223L102.169 35.2362L105.218 31.8883L107.098 20.8936Z" fill="#E0E0E0"/>
<path d="M103.055 30.6543C103.018 30.6543 102.974 30.3171 102.813 29.926C102.651 29.5349 102.449 29.2517 102.476 29.2517C102.671 29.4296 102.825 29.6492 102.924 29.8943C103.024 30.1393 103.068 30.4036 103.052 30.6678L103.055 30.6543Z" fill="#263238"/>
<path d="M108.857 6.12629C108.562 6.16481 108.263 6.09254 108.018 5.92344C107.773 5.75433 107.6 5.5004 107.531 5.21071C107.462 4.92102 107.503 4.61612 107.646 4.35494C107.789 4.09375 108.023 3.89481 108.304 3.79655C108.117 3.61146 107.993 3.37223 107.95 3.11272C107.906 2.85322 107.945 2.58657 108.062 2.35055C108.178 2.11452 108.365 1.92106 108.598 1.79755C108.83 1.67405 109.095 1.62675 109.355 1.66236C109.362 1.40342 109.435 1.15058 109.569 0.928475C109.702 0.706366 109.89 0.522547 110.115 0.39491C110.341 0.267274 110.595 0.200169 110.854 0.200125C111.113 0.200082 111.367 0.267102 111.593 0.394663C111.879 0.154319 112.236 0.015943 112.61 0.00129539C112.983 -0.0133522 113.35 0.09656 113.654 0.313747C113.907 0.260638 114.17 0.29064 114.405 0.399289C114.639 0.507939 114.832 0.689427 114.955 0.916748C115.079 1.14407 115.125 1.40507 115.088 1.66092C115.051 1.91676 114.932 2.15377 114.749 2.33667" fill="#263238"/>
<path d="M113.948 1.49716H113.681C112.399 1.52109 111.172 2.02783 110.246 2.91637C109.32 3.80492 108.763 5.01003 108.685 6.2915C108.533 8.76621 108.399 11.4972 108.439 12.8222C108.527 15.5632 111.276 15.9375 111.276 15.9375L111.107 19.2349L111.444 21.75L117.765 18.9011L118.122 6.94221C118.3 4.09662 116.801 1.60842 113.948 1.49716Z" fill="#AE7461"/>
<path d="M111.252 15.9408C112.525 15.9163 113.765 15.5266 114.823 14.8181C114.823 14.8181 113.971 16.9422 111.235 16.7466L111.252 15.9408Z" fill="#6F4439"/>
<path d="M109.679 9.11009C109.679 9.21234 109.719 9.31046 109.791 9.38307C109.863 9.45569 109.961 9.49693 110.063 9.49782C110.113 9.50149 110.163 9.49495 110.211 9.47859C110.258 9.46224 110.302 9.43641 110.339 9.40268C110.376 9.36895 110.406 9.32801 110.427 9.28235C110.448 9.2367 110.459 9.18727 110.46 9.13707C110.458 9.03504 110.416 8.9379 110.344 8.86574C110.272 8.79357 110.175 8.7519 110.073 8.74934C110.023 8.74662 109.974 8.75384 109.927 8.77059C109.88 8.78733 109.837 8.81326 109.8 8.84685C109.763 8.88045 109.734 8.92104 109.713 8.96624C109.692 9.01144 109.681 9.06034 109.679 9.11009Z" fill="#263238"/>
<path d="M109.298 7.62999C109.349 7.68056 109.635 7.45467 110.063 7.44792C110.491 7.44118 110.794 7.64684 110.841 7.5929C110.888 7.53895 110.811 7.47827 110.673 7.38386C110.489 7.2595 110.271 7.19583 110.049 7.2018C109.83 7.20541 109.618 7.27861 109.443 7.41084C109.315 7.51535 109.275 7.59627 109.298 7.62999Z" fill="#263238"/>
<path d="M113.51 9.1101C113.51 9.21235 113.55 9.31046 113.622 9.38308C113.694 9.45569 113.791 9.49693 113.894 9.49782C113.944 9.50149 113.994 9.49495 114.041 9.4786C114.089 9.46224 114.132 9.43642 114.17 9.40268C114.207 9.36895 114.237 9.32801 114.258 9.28236C114.279 9.2367 114.29 9.18727 114.291 9.13707C114.289 9.03535 114.249 8.93822 114.177 8.86597C114.105 8.79372 114.009 8.75193 113.907 8.74934C113.857 8.74662 113.807 8.75382 113.76 8.77052C113.713 8.78723 113.67 8.81311 113.633 8.84666C113.596 8.88021 113.566 8.92077 113.545 8.96599C113.524 9.01121 113.512 9.06019 113.51 9.1101Z" fill="#263238"/>
<path d="M113.439 7.62663C113.489 7.6772 113.776 7.45131 114.2 7.44457C114.625 7.43782 114.935 7.64349 114.982 7.58954C115.029 7.5356 114.951 7.47491 114.813 7.38051C114.629 7.25795 114.411 7.19553 114.19 7.20182C113.971 7.20543 113.759 7.27863 113.584 7.41085C113.456 7.512 113.415 7.59629 113.439 7.62663Z" fill="#263238"/>
<path d="M111.97 10.7824C111.751 10.7178 111.524 10.6804 111.296 10.6711C111.188 10.6711 111.084 10.6441 111.067 10.57C111.055 10.4591 111.077 10.3473 111.131 10.2497C111.229 9.98669 111.326 9.7136 111.434 9.42364C111.716 8.72475 111.941 8.00429 112.108 7.26923C111.771 7.94441 111.49 8.64573 111.266 9.36633L110.959 10.1957C110.895 10.3278 110.879 10.4777 110.912 10.6205C110.929 10.6575 110.953 10.6903 110.984 10.7165C111.015 10.7428 111.051 10.7618 111.09 10.7723C111.151 10.7874 111.213 10.7953 111.276 10.7959C111.507 10.8206 111.74 10.8161 111.97 10.7824Z" fill="#263238"/>
<path d="M113.041 6.01503C113.099 6.11955 113.459 5.99817 113.904 5.97457C114.349 5.95097 114.722 6.0184 114.76 5.90714C114.776 5.85319 114.696 5.75879 114.534 5.6745C114.324 5.57551 114.092 5.53254 113.86 5.54976C113.632 5.56167 113.411 5.63379 113.22 5.75879C113.082 5.85994 113.018 5.96446 113.041 6.01503Z" fill="#263238"/>
<path d="M109.244 5.9105C109.335 6.00491 109.682 5.9105 110.1 5.88353C110.518 5.85656 110.872 5.9341 110.952 5.83296C110.986 5.78238 110.929 5.68798 110.771 5.60032C110.555 5.49144 110.314 5.44253 110.073 5.45872C109.834 5.46444 109.601 5.53557 109.399 5.66438C109.251 5.74867 109.204 5.84644 109.244 5.9105Z" fill="#263238"/>
<path d="M108.938 5.03728C108.938 5.03728 109.611 3.3043 110.447 2.8896C111.437 2.38387 111.889 3.47625 112.839 3.18967C113.789 2.90309 114.736 2.42096 115.726 3.14247C116.808 3.92804 116.319 4.49109 116.4 5.7217C116.764 10.6475 117.691 12.0265 117.899 9.69675C117.923 9.44051 118.627 9.22473 118.708 8.14921C118.819 6.75002 118.839 5.05751 118.509 4.07301C118.23 3.24361 117.745 2.6772 116.879 2.05009C115.514 1.07571 113.668 1.0892 112.415 1.24092C111.161 1.39264 108.766 2.87612 108.938 5.03728Z" fill="#263238"/>
<path d="M117.721 9.61921C117.722 9.51855 117.744 9.41919 117.785 9.32717C117.825 9.23515 117.884 9.15239 117.958 9.08394C118.032 9.0155 118.119 8.96279 118.214 8.92903C118.308 8.89527 118.409 8.88117 118.509 8.88758C119.021 8.92467 119.598 9.20451 119.584 10.2632C119.561 12.1378 117.684 11.7264 117.681 11.6725C117.677 11.6185 117.697 10.4115 117.721 9.61921Z" fill="#AE7461"/>
<path d="M118.098 10.9678C118.098 10.9678 118.129 10.9914 118.183 11.0184C118.262 11.0494 118.349 11.0494 118.429 11.0184C118.551 10.9439 118.651 10.838 118.718 10.7117C118.786 10.5854 118.818 10.4434 118.813 10.3003C118.82 10.1394 118.79 9.97902 118.725 9.83161C118.708 9.77236 118.678 9.71804 118.635 9.67339C118.593 9.62873 118.541 9.59509 118.482 9.57538C118.445 9.56525 118.406 9.56847 118.371 9.58448C118.335 9.60049 118.307 9.62828 118.29 9.66304C118.263 9.71698 118.274 9.75407 118.263 9.75744C118.253 9.76081 118.226 9.72373 118.24 9.64618C118.253 9.6006 118.28 9.56038 118.317 9.53155C118.369 9.49266 118.435 9.47573 118.499 9.48435C118.575 9.50218 118.646 9.53861 118.705 9.59037C118.764 9.64213 118.809 9.70763 118.836 9.78104C118.914 9.94394 118.949 10.1235 118.941 10.3036C118.948 10.4708 118.905 10.6362 118.819 10.7795C118.733 10.9228 118.606 11.0375 118.455 11.1094C118.405 11.1224 118.351 11.1243 118.3 11.115C118.248 11.1057 118.199 11.0854 118.156 11.0555C118.098 11.0251 118.092 10.9678 118.098 10.9678Z" fill="#6F4439"/>
<path d="M117.613 5.99479C117.388 6.18624 117.118 6.31733 116.828 6.37577C116.685 6.39738 116.539 6.3676 116.415 6.2917C116.292 6.2158 116.2 6.09868 116.154 5.96107C116.131 5.82958 116.154 5.67786 116.073 5.57671C115.993 5.47557 115.78 5.50254 115.622 5.5194C115.08 5.5902 114.433 5.00018 114.274 4.47085C114.205 4.57343 114.099 4.6458 113.978 4.67334C113.858 4.70087 113.731 4.68152 113.624 4.6192C113.447 4.51585 113.29 4.38234 113.159 4.22473C113.084 4.1242 112.985 4.04346 112.872 3.98943C112.759 3.9354 112.634 3.9097 112.509 3.91455C112.378 3.96297 112.243 3.99578 112.105 4.01232C111.859 3.99546 111.731 3.70888 111.69 3.46613C111.65 3.22338 111.613 2.9368 111.404 2.80868C111.186 2.73155 110.948 2.73155 110.73 2.80868C110.504 2.84914 110.211 2.80868 110.147 2.57941C110.136 2.52091 110.137 2.46075 110.151 2.40273C110.164 2.3447 110.189 2.29007 110.225 2.24226C110.373 2.0131 110.593 1.84033 110.851 1.75167C111.109 1.66302 111.389 1.66362 111.646 1.75338C111.731 1.43798 111.907 1.15488 112.153 0.940135C112.399 0.725389 112.703 0.588707 113.027 0.547491C113.351 0.506275 113.679 0.562389 113.971 0.708689C114.263 0.854989 114.504 1.08486 114.665 1.36903C114.862 1.18469 115.101 1.0504 115.36 0.977477C115.62 0.904551 115.894 0.895117 116.158 0.949965C116.422 1.00481 116.669 1.12234 116.878 1.29266C117.088 1.46298 117.253 1.68111 117.36 1.9287C117.589 1.86385 117.831 1.86757 118.057 1.9394C118.283 2.01122 118.483 2.14799 118.632 2.33268C118.781 2.51737 118.872 2.74182 118.895 2.97812C118.917 3.21442 118.87 3.45213 118.759 3.66168C118.929 3.74777 119.076 3.87524 119.185 4.03248C119.293 4.18971 119.361 4.37171 119.382 4.56188C119.382 4.65547 119.363 4.7481 119.326 4.83389C119.288 4.91967 119.234 4.99673 119.165 5.06016C119.096 5.12358 119.015 5.17199 118.926 5.2023C118.838 5.2326 118.744 5.24415 118.651 5.23619C118.729 5.38733 118.747 5.56233 118.701 5.72614C118.655 5.88994 118.55 6.03046 118.405 6.11953C118.257 6.20218 118.084 6.22825 117.919 6.19289C117.753 6.15753 117.606 6.06316 117.505 5.92736" fill="#263238"/>
<path d="M111.522 2.30295C111.521 2.31418 111.521 2.32544 111.522 2.33666C111.52 2.36922 111.52 2.40188 111.522 2.43444C111.547 2.56215 111.595 2.68431 111.663 2.79519C111.77 2.97061 111.915 3.11937 112.088 3.23012C112.316 3.37983 112.587 3.45086 112.859 3.43242L112.826 3.39196C112.799 3.47752 112.79 3.56751 112.799 3.65665C112.807 3.7458 112.834 3.83233 112.876 3.91117C112.965 4.07768 113.079 4.22995 113.213 4.36296C113.276 4.44198 113.349 4.51327 113.429 4.57537C113.518 4.63539 113.621 4.67139 113.729 4.67989C113.839 4.69403 113.952 4.68048 114.056 4.64047C114.16 4.60046 114.252 4.53522 114.325 4.45062L114.254 4.43376C114.285 4.62798 114.355 4.81373 114.461 4.97916C114.567 5.14459 114.707 5.2861 114.871 5.39465C115.051 5.52397 115.269 5.59031 115.491 5.58346C115.698 5.56882 115.902 5.51983 116.094 5.43848L116.043 5.41826C116.143 5.64418 116.3 5.84044 116.498 5.98805C116.587 6.0635 116.692 6.11761 116.806 6.14623C116.919 6.17486 117.037 6.17726 117.152 6.15325C117.348 6.10724 117.526 6.00486 117.665 5.85872C117.804 5.71257 117.897 5.52901 117.933 5.33059L117.889 5.35082C118.089 5.45164 118.318 5.48023 118.536 5.43174C118.699 5.3982 118.851 5.32656 118.981 5.22271C119.062 5.15756 119.132 5.07886 119.187 4.99007C119.206 4.96002 119.221 4.92701 119.23 4.89229C119.16 5.00993 119.068 5.11386 118.961 5.1991C118.832 5.29474 118.684 5.35936 118.526 5.38791C118.319 5.42916 118.104 5.39822 117.916 5.30025L117.883 5.28002V5.32048C117.846 5.50553 117.757 5.67613 117.626 5.81187C117.496 5.9476 117.328 6.04272 117.145 6.08582C117.04 6.10521 116.932 6.10105 116.829 6.07365C116.726 6.04625 116.63 5.99628 116.549 5.92736C116.364 5.78562 116.217 5.6003 116.121 5.38791V5.35082H116.084C115.901 5.4306 115.706 5.4774 115.507 5.48906C115.303 5.49493 115.101 5.43334 114.935 5.31374C114.778 5.21467 114.643 5.08417 114.538 4.93042C114.434 4.77666 114.362 4.60298 114.328 4.42028V4.33262L114.271 4.40342C114.205 4.47682 114.123 4.53325 114.031 4.56789C113.939 4.60253 113.84 4.61435 113.742 4.60234C113.648 4.59482 113.556 4.56476 113.476 4.51468C113.403 4.45448 113.335 4.38791 113.274 4.31576C113.147 4.18679 113.039 4.04033 112.954 3.88083C112.914 3.81004 112.89 3.7321 112.881 3.65162C112.872 3.57114 112.88 3.48973 112.903 3.41219V3.36836H112.856C112.597 3.38733 112.338 3.32232 112.118 3.18292C111.948 3.08001 111.804 2.93926 111.697 2.77159C111.613 2.6261 111.554 2.46776 111.522 2.30295Z" fill="#455A64"/>
<path d="M112.091 12.222C112.091 12.1512 112.563 12.222 112.967 11.9051C113.371 11.5882 113.415 11.069 113.479 11.0791C113.543 11.0892 113.547 11.2072 113.513 11.4162C113.466 11.688 113.324 11.9342 113.112 12.1108C112.91 12.2818 112.648 12.3666 112.384 12.3468C112.185 12.3164 112.081 12.2524 112.091 12.222Z" fill="#263238"/>
<path d="M100.37 37.5558L102.307 34.8283L105.289 25.8026C105.899 24.2315 106.424 22.2389 107.165 20.7453C107.53 20.0192 108.137 19.4433 108.88 19.1169L110.147 18.5538L110.902 17.3738C110.467 20.1115 114.298 20.4486 118.371 17.0366C118.371 17.0366 119.719 17.9469 121.616 19.5215C122.444 20.1958 123.199 20.9645 123.512 22.1041C124.082 24.1674 121.633 30.28 118.968 36.0285C118.169 37.748 115.376 44.191 115.376 44.191L114.443 44.363C114.443 44.363 103.257 42.0434 101.522 40.5633C101.105 40.1896 100.783 39.7219 100.583 39.1989C100.383 38.6759 100.31 38.1127 100.37 37.5558Z" fill="#E0E0E0"/>
<path d="M100.717 36.4196C100.747 36.3771 100.781 36.3376 100.818 36.3016L101.125 35.9644L102.277 34.7844L103.062 32.3603C103.372 31.4432 103.682 30.4284 103.999 29.3528C104.605 27.2423 105.185 25.3373 105.717 23.9955C105.973 23.3211 106.215 22.7918 106.391 22.4277L106.6 22.013C106.62 21.9639 106.646 21.9175 106.677 21.8748C106.662 21.9257 106.643 21.9754 106.62 22.0231C106.573 22.131 106.509 22.2726 106.434 22.4479C106.276 22.8188 106.047 23.3515 105.798 24.0258C105.289 25.3744 104.726 27.276 104.113 29.3866C103.8 30.4621 103.483 31.4803 103.17 32.394C102.856 33.3077 102.587 34.1269 102.354 34.8114L101.179 35.9611L100.842 36.2713C100.806 36.3255 100.764 36.3753 100.717 36.4196Z" fill="#263238"/>
<path d="M111.818 21.3893L107.637 38.5437L103.294 40.7048V36.5073L110.811 21.015L111.818 21.3893Z" fill="#FF6C37"/>
<g opacity="0.3">
<path d="M103.82 36.9995C104.99 37.4887 106.097 38.1157 107.118 38.8673C108.142 39.6165 109.232 40.2689 110.376 40.8161C111.529 41.365 112.823 41.5462 114.082 41.3353C114.708 41.2218 115.294 40.9503 115.785 40.5468C116.276 40.1432 116.656 39.6208 116.889 39.0292L103.82 36.9995Z" fill="black"/>
</g>
<path d="M110.147 18.5134L111.215 16.8748L111.636 19.1202L112.701 17.9132L117.984 15.4385L118.904 17.4041L113.065 20.8599L111.444 20.7386L110.262 19.336L110.147 18.5134Z" fill="#E0E0E0"/>
<path d="M110.147 18.5134C110.186 18.6223 110.212 18.7355 110.225 18.8505C110.279 19.1067 110.339 19.3933 110.403 19.7136H110.299L110.589 19.1843L111.033 18.3852L111.091 18.2841L111.128 18.392C111.222 18.6617 111.269 18.8842 111.313 19.0427C111.342 19.1231 111.36 19.207 111.367 19.2922C111.315 19.2225 111.277 19.1435 111.256 19.0595C111.195 18.9078 111.128 18.6853 111.03 18.4324H111.124L110.693 19.2315C110.589 19.4136 110.491 19.5889 110.4 19.7541L110.322 19.8889L110.285 19.7339C110.188 19.3345 110.142 18.9244 110.147 18.5134Z" fill="#263238"/>
<path d="M111.923 19.3427L111.249 19.2585C111.067 19.4641 110.619 19.8856 110.437 20.0912V20.1115C110.514 20.5599 110.595 21.0083 110.676 21.4601C111.052 21.4433 111.429 21.4739 111.798 21.5511L112.415 20.4655L111.923 19.3427Z" fill="#FF6C37"/>
<path d="M111.98 19.4776L112.725 19.1101L112.977 20.4183L112.357 20.4756L111.98 19.4776Z" fill="#FF6C37"/>
<g opacity="0.3">
<path d="M112.624 18.5841V21.5477L118.129 17.9065L113.004 20.8937L112.624 18.5841Z" fill="black"/>
</g>
<path d="M118.9 17.4075C118.8 17.4971 118.693 17.5783 118.58 17.6502C118.368 17.7952 118.058 17.9874 117.66 18.2402C116.875 18.7224 115.747 19.3158 114.53 20.0137C114.015 20.3137 113.52 20.6138 113.095 20.9105L113.021 20.9577V20.8734C112.853 19.9698 112.708 19.1876 112.6 18.5909L112.661 18.6111L112.081 19.1539C112.015 19.223 111.942 19.2841 111.862 19.336C111.921 19.2616 111.984 19.1907 112.051 19.1236L112.61 18.5572L112.657 18.51V18.5774C112.778 19.1674 112.937 19.9496 113.119 20.8498L113.031 20.8161C113.466 20.5127 113.954 20.2092 114.47 19.9092C115.689 19.2079 116.828 18.628 117.617 18.1661C118.017 17.9368 118.334 17.7446 118.557 17.6098C118.665 17.5327 118.78 17.4651 118.9 17.4075Z" fill="#263238"/>
<path d="M111.262 19.5079L110.952 18.7527L110.444 19.69L110.659 20.0272L111.262 19.5079Z" fill="#FF6C37"/>
<path d="M112.105 19.3967C112.128 19.4203 111.768 19.8485 111.363 20.4082C110.959 20.9678 110.69 21.4668 110.659 21.45C110.982 20.6665 111.476 19.965 112.105 19.3967Z" fill="#263238"/>
<path d="M111.731 21.5713C111.539 21.5823 111.347 21.563 111.161 21.514C110.969 21.5006 110.78 21.455 110.602 21.3791C110.794 21.3397 110.992 21.3455 111.182 21.396C111.376 21.4074 111.565 21.4677 111.731 21.5713Z" fill="#263238"/>
<path d="M84.8989 35.6981L81.4152 25.8464C81.3995 25.7962 81.3944 25.7432 81.4001 25.6909C81.4059 25.6386 81.4224 25.588 81.4487 25.5424C81.475 25.4967 81.5104 25.4571 81.5528 25.4258C81.5951 25.3946 81.6435 25.3725 81.6949 25.3609L89.7336 23.2571C89.8303 23.2363 89.9312 23.252 90.017 23.3012C90.1029 23.3503 90.1675 23.4295 90.1985 23.5235L93.8608 34.6226L105.232 42.0872L104.679 42.6603L101.775 41.9523L84.8989 35.6981Z" fill="#455A64"/>
<path d="M104.679 42.6603C104.679 42.6603 104.659 42.6603 104.622 42.63L104.457 42.5255L103.827 42.1108L101.526 40.5599L93.9451 35.4553L93.3454 35.0474V35.0272C92.274 31.7972 91.3239 28.9044 90.6231 26.8107C90.2862 25.7723 90.0099 24.9294 89.8179 24.3394C89.7303 24.0562 89.6562 23.8303 89.6056 23.6651L89.5551 23.4897C89.5551 23.4493 89.5382 23.429 89.5551 23.429C89.5639 23.4477 89.5718 23.4669 89.5787 23.4864L89.6427 23.6583C89.7 23.8168 89.7775 24.0393 89.8752 24.3326C90.0773 24.9193 90.3637 25.7554 90.7141 26.7905L93.4397 34.98L93.4161 34.9462L94.0158 35.3542L101.576 40.4891L103.857 42.0568L104.477 42.4884L104.635 42.603L104.679 42.6603Z" fill="#263238"/>
<path d="M86.287 35.489C86.287 35.4553 87.8671 35.3542 89.8212 35.2598C91.7753 35.1654 93.3588 35.1216 93.3622 35.1553C93.3655 35.189 91.782 35.2901 89.8279 35.3812C87.8739 35.4722 86.2904 35.5228 86.287 35.489Z" fill="#263238"/>
<path d="M87.5706 29.8653C87.7121 30.3104 87.6313 30.7352 87.3954 30.8094C87.1596 30.8836 86.8496 30.5801 86.7216 30.1351C86.5936 29.69 86.661 29.2652 86.8968 29.191C87.1326 29.1169 87.4291 29.4169 87.5706 29.8653Z" fill="#E0E0E0"/>
<path d="M96.236 29.9193C96.236 29.9193 95.9361 30.0676 95.8991 29.5821C95.8553 29.1573 96.8761 28.5268 97.2467 28.2908C97.6173 28.0548 98.4327 28.2166 98.8437 28.2706C99.3996 28.3414 100.693 28.9213 101.104 29.4135C101.515 29.9058 101.809 31.2005 101.96 31.3218C102.112 31.4432 107.253 33.4729 107.253 33.4729L106.084 37.5491C106.084 37.5491 101.367 35.4655 100.528 34.6259C99.6893 33.7864 99.8746 33.574 99.7298 32.9402C99.5849 32.3063 99.4265 31.632 99.4265 31.632L98.9818 31.4466L98.1463 31.686C98.0684 31.8923 97.9543 32.083 97.8094 32.249C97.748 32.3186 97.6726 32.3743 97.5881 32.4125C97.5036 32.4507 97.4119 32.4705 97.3192 32.4705C97.2264 32.4705 97.1348 32.4507 97.0502 32.4125C96.9657 32.3743 96.8903 32.3186 96.8289 32.249C96.7007 32.2879 96.5623 32.2742 96.4442 32.2109C96.3261 32.1477 96.2378 32.0401 96.1989 31.9119C96.1501 31.7512 96.142 31.5808 96.1753 31.4162C96.1753 31.4162 95.7946 31.4904 95.7913 31.015C95.8387 30.6165 95.9923 30.238 96.236 29.9193Z" fill="#AE7461"/>
<path d="M98.9111 30.4587C98.9111 30.479 98.7393 30.4587 98.4765 30.5295C98.1331 30.606 97.8138 30.7658 97.5466 30.9948C97.2851 31.2295 97.087 31.5263 96.9705 31.8579C96.8795 32.1108 96.8661 32.2827 96.8458 32.2827C96.8218 32.1309 96.8369 31.9754 96.8896 31.831C96.9886 31.4723 97.1897 31.1503 97.4685 30.9042C97.7473 30.6581 98.0917 30.4986 98.4597 30.4452C98.6089 30.4117 98.7642 30.4163 98.9111 30.4587Z" fill="#6F4439"/>
<path d="M98.527 29.5855C98.527 29.6057 98.3417 29.5855 98.0587 29.6394C97.6917 29.7353 97.3567 29.9274 97.0884 30.1957C96.8279 30.4721 96.6016 30.7788 96.4146 31.1094C96.3402 31.2511 96.251 31.3845 96.1484 31.5073C96.1895 31.3511 96.2542 31.2021 96.3405 31.0656C96.5144 30.7136 96.7417 30.3906 97.0143 30.1081C97.2963 29.8229 97.6582 29.6301 98.052 29.5551C98.2097 29.5163 98.3756 29.5269 98.527 29.5855Z" fill="#6F4439"/>
<path d="M98.453 28.628C98.453 28.6482 98.2913 28.628 98.0453 28.6718C97.7245 28.7383 97.4221 28.8741 97.1592 29.0696C96.8977 29.2718 96.6553 29.4975 96.4349 29.744C96.3482 29.8544 96.2474 29.9531 96.135 30.0373C96.1977 29.9146 96.2771 29.8011 96.3709 29.7001C96.5755 29.4275 96.817 29.1847 97.0885 28.9786C97.3638 28.77 97.6892 28.6374 98.0318 28.5943C98.1724 28.5634 98.3191 28.5751 98.453 28.628Z" fill="#6F4439"/>
<path d="M120.393 19.3731C121.838 19.6563 122.778 20.924 123.071 22.5154C123.489 24.7675 118.327 35.4216 117.364 37.748C116.999 38.6501 116.366 39.4179 115.549 39.9469C114.733 40.4759 113.774 40.7406 112.802 40.7048C111.495 40.6745 102.358 36.3791 102.358 36.3791L103.705 31.7298L111.839 34.1472L115.059 25.0744" fill="#E0E0E0"/>
<path d="M115.042 25.0744C115.042 25.0744 115.042 25.1283 114.992 25.2362L114.83 25.7082L114.2 27.5154C113.648 29.0899 112.853 31.3589 111.862 34.1607V34.2011H111.822L103.685 31.7938L103.756 31.7568C103.328 33.2436 102.88 34.7912 102.408 36.4061L102.378 36.3353C104.514 37.3299 106.802 38.3582 109.184 39.3697C110.15 39.7709 111.111 40.1721 112.081 40.4823L112.445 40.5868C112.566 40.6172 112.684 40.6273 112.805 40.6509C113.055 40.6548 113.305 40.6402 113.553 40.6071C114.044 40.5454 114.522 40.4101 114.972 40.2059C115.852 39.8092 116.581 39.1372 117.047 38.2908C117.273 37.8795 117.441 37.4344 117.633 37.0096L118.199 35.752C119.702 32.4378 121.036 29.4405 121.99 26.8613C122.449 25.7134 122.798 24.5247 123.034 23.311C123.075 23.0545 123.08 22.7936 123.051 22.5356C123.009 22.2969 122.95 22.0615 122.876 21.8309C122.745 21.4256 122.558 21.0408 122.32 20.688C121.985 20.196 121.518 19.8091 120.972 19.572C120.832 19.5104 120.688 19.4597 120.541 19.4203L120.389 19.3798L120.544 19.4102C120.694 19.4438 120.841 19.4912 120.982 19.5518C121.528 19.786 121.995 20.1708 122.33 20.661C122.574 21.0154 122.767 21.4024 122.903 21.8107C122.98 22.0434 123.042 22.2811 123.088 22.5221C123.119 22.788 123.114 23.0569 123.071 23.3212C122.854 24.5381 122.522 25.7315 122.077 26.8849C121.13 29.4709 119.806 32.4749 118.307 35.7891L117.745 37.0501C117.552 37.4715 117.387 37.9166 117.155 38.338C116.671 39.2099 115.915 39.8991 115.002 40.3003C114.541 40.5099 114.052 40.6496 113.55 40.715C113.296 40.7488 113.041 40.7623 112.785 40.7554C112.655 40.7398 112.526 40.7173 112.398 40.688L112.027 40.5835C111.047 40.2699 110.09 39.8721 109.12 39.4675C106.734 38.456 104.447 37.421 102.311 36.4331L102.267 36.4095V36.3623C102.732 34.7541 103.183 33.2032 103.614 31.7163L103.631 31.6624L103.685 31.6792L111.811 34.1067L111.758 34.1337L114.156 27.4884C114.436 26.7096 114.655 26.1061 114.807 25.688L114.978 25.2227C115.019 25.1283 115.042 25.0744 115.042 25.0744Z" fill="#263238"/>
<path d="M113.119 37.5558C113.082 37.5558 112.957 36.7466 112.593 35.806C112.229 34.8653 111.788 34.1674 111.822 34.1472C111.943 34.2801 112.049 34.4272 112.135 34.5855C112.36 34.9604 112.551 35.3541 112.708 35.7622C112.861 36.1705 112.979 36.5913 113.061 37.0197C113.105 37.1949 113.124 37.3753 113.119 37.5558Z" fill="#263238"/>
<path d="M119.833 19.3967C119.833 19.4169 119.534 19.5147 119.075 19.7339C118.806 19.8713 118.546 20.0255 118.297 20.1958C117.997 20.4091 117.713 20.6447 117.448 20.9004C117.187 21.1611 116.944 21.4406 116.724 21.7366C116.548 21.9799 116.388 22.2344 116.245 22.4985C116.003 22.9537 115.908 23.2605 115.875 23.2504C115.885 23.1749 115.905 23.1012 115.935 23.0312C115.999 22.836 116.077 22.6456 116.168 22.4614C116.303 22.1857 116.46 21.9209 116.636 21.6691C116.852 21.3662 117.095 21.083 117.36 20.8229C117.631 20.5628 117.923 20.326 118.233 20.1148C118.492 19.9456 118.764 19.7958 119.045 19.6664C119.232 19.5797 119.424 19.5054 119.621 19.4439C119.689 19.4175 119.761 19.4016 119.833 19.3967Z" fill="#263238"/>
<path d="M74.2794 62.4311L68.5519 58.3482C68.5519 58.3482 81.0648 40.2092 82.335 38.7932C83.2986 37.7312 85.4009 36.096 87.8705 36.1971C90.34 36.2983 94.9018 37.8626 96.5527 38.3178C98.2036 38.773 112.597 42.866 114.446 44.3461C114.446 44.3461 113.156 49.926 111.643 51.2308C110.457 52.2423 106.252 52.4311 103.557 51.686C100.862 50.9409 87.7222 44.9058 87.7222 44.9058L74.2794 62.4311Z" fill="#263238"/>
<path d="M77.6047 68.1796L84.498 70.6442L90.3838 49.5922L102.92 51.487L91.9067 41.1398C91.9067 41.1398 85.9096 42.9267 84.936 43.0885C83.6826 43.3009 82.0149 45.8464 81.4691 48.5302C80.9974 50.8734 77.6047 68.1796 77.6047 68.1796Z" fill="#263238"/>
<path d="M98.9077 51.0454C98.8909 51.0723 95.6565 49.2281 91.6843 46.9253C87.7121 44.6226 84.5047 42.7345 84.5216 42.7042C84.5384 42.6738 87.7728 44.5181 91.745 46.8208C95.7172 49.1236 98.9246 51.015 98.9077 51.0454Z" fill="#455A64"/>
<g opacity="0.3">
<path d="M78.0529 57.5187C78.0529 57.5187 80.3506 46.922 82.4934 45.6475C82.4934 45.6475 80.4348 51.1465 80.2293 54.6833L78.0529 57.5187Z" fill="black"/>
</g>
<path d="M85.8793 43.4965C85.6534 43.4963 85.4278 43.5166 85.2055 43.5572C84.5971 43.6906 84.0367 43.9879 83.585 44.4169C82.9264 45.0646 82.431 45.8597 82.1396 46.7365C81.7577 47.8049 81.4382 48.8947 81.1828 50.0002C80.6471 52.3603 80.3371 54.5282 80.0373 56.069C79.8958 56.8512 79.761 57.4783 79.6667 57.9132C79.6195 58.1189 79.5791 58.2841 79.5487 58.4088C79.5379 58.4674 79.5221 58.5249 79.5016 58.5808C79.502 58.5205 79.5099 58.4604 79.5252 58.4021C79.5488 58.2773 79.5824 58.1121 79.6195 57.9031C79.7004 57.4648 79.8217 56.8377 79.9564 56.0555C80.2327 54.4945 80.5325 52.3232 81.0682 49.9597C81.3259 48.85 81.65 47.7568 82.0385 46.686C82.337 45.7896 82.8493 44.9795 83.5311 44.3259C84.0011 43.8904 84.5855 43.598 85.2156 43.483C85.4359 43.4477 85.6607 43.4523 85.8793 43.4965Z" fill="#455A64"/>
<path d="M79.4746 64.0494L77.9889 70.7116C77.9889 70.7116 70.7789 71.8748 70.4589 73.0986L83.4401 75.6678L85.5559 65.2497L79.4746 64.0494Z" fill="#263238"/>
<path d="M82.1126 70.9408C82.1735 70.9685 82.2283 71.0079 82.2739 71.0568C82.3195 71.1056 82.3551 71.163 82.3785 71.2256C82.402 71.2882 82.4129 71.3549 82.4107 71.4217C82.4084 71.4885 82.393 71.5543 82.3653 71.6152C82.3377 71.676 82.2983 71.7309 82.2495 71.7765C82.2007 71.8222 82.1433 71.8578 82.0808 71.8812C82.0182 71.9047 81.9516 71.9156 81.8848 71.9134C81.818 71.9111 81.7523 71.8957 81.6915 71.868C81.0446 71.5511 81.5669 70.5936 82.1564 70.9678" fill="#E0E0E0"/>
<path d="M83.4401 75.6678L83.6119 74.6057L71.1024 72.5423C71.1024 72.5423 70.4757 72.6806 70.4589 73.0986L83.4401 75.6678Z" fill="#455A64"/>
<path d="M77.79 70.6037C77.79 70.6678 78.0899 70.7588 78.3628 71.0218C78.6357 71.2848 78.7469 71.5882 78.8109 71.5747C79.0737 71.2915 78.0562 70.3272 77.79 70.6037Z" fill="white"/>
<path d="M76.3178 70.897C76.2908 70.9543 76.5435 71.1162 76.7052 71.4297C76.867 71.7433 76.8737 72.0366 76.9377 72.0433C77.2679 71.868 76.6513 70.7082 76.3178 70.897Z" fill="white"/>
<path d="M75.2227 72.3738C75.5394 72.3266 75.2227 71.0858 74.933 71.1904C74.9599 71.2241 75.2463 72.3299 75.2227 72.3738Z" fill="white"/>
<path d="M78.2078 69.0933C78.2448 69.0933 79.5116 69.4102 79.5386 69.4304C79.6262 69.127 78.2785 68.7763 78.2078 69.0933Z" fill="white"/>
<path d="M72.2917 54.98L68.0095 60.2902C68.0095 60.2902 61.0321 58.1357 60.2032 59.0899L70.7015 67.1546L76.931 58.5268L72.2917 54.98Z" fill="#263238"/>
<path d="M71.6043 62.3299C71.6761 62.4361 71.7055 62.5653 71.6868 62.692C71.668 62.8188 71.6025 62.9339 71.5031 63.0147C71.4038 63.0956 71.2778 63.1362 71.1499 63.1286C71.0221 63.1211 70.9018 63.0659 70.8126 62.9739C70.3746 62.4041 71.2674 61.7736 71.6347 62.3738" fill="#E0E0E0"/>
<path d="M70.7015 67.1546L71.3247 66.2814L61.0253 58.864C61.0253 58.864 60.402 58.7089 60.2032 59.0764L70.7015 67.1546Z" fill="#455A64"/>
<path d="M67.8815 60.1081C67.8411 60.1587 68.0803 60.3812 68.2184 60.7386C68.3565 61.0959 68.3127 61.4129 68.3734 61.4331C68.7238 61.2949 68.242 59.98 67.8815 60.1081Z" fill="white"/>
<path d="M66.4293 59.717C66.3788 59.7574 66.5337 60.0171 66.5438 60.3677C66.5539 60.7183 66.4259 60.9847 66.4765 61.0218C66.8639 61.015 66.8235 59.6968 66.4293 59.717Z" fill="white"/>
<path d="M64.802 60.5565C65.1086 60.6543 65.3849 59.4068 65.0682 59.3663C65.0648 59.4068 64.802 60.5295 64.802 60.5565Z" fill="white"/>
<g opacity="0.3">
<path d="M97.8196 50.4149C97.8196 50.4149 90.2155 47.4344 88.2041 46.0319C87.0028 45.1893 85.9058 44.2069 84.936 43.1054L97.8196 50.4149Z" fill="black"/>
</g>
<path d="M146.072 135.314H61.7158V145.641H146.072V135.314Z" fill="#455A64"/>
<path d="M145.264 149.822L156.685 139.869C156.764 139.8 156.827 139.715 156.869 139.619C156.911 139.523 156.931 139.419 156.927 139.315C156.924 139.21 156.898 139.107 156.85 139.014C156.802 138.921 156.734 138.84 156.651 138.776L144.859 129.727C144.754 129.645 144.628 129.595 144.495 129.583C144.363 129.57 144.229 129.595 144.111 129.655C143.992 129.715 143.892 129.807 143.824 129.922C143.755 130.036 143.721 130.167 143.724 130.3L144.084 149.299C144.085 149.435 144.126 149.568 144.2 149.682C144.275 149.796 144.381 149.886 144.505 149.941C144.63 149.996 144.768 150.014 144.902 149.993C145.037 149.972 145.162 149.912 145.264 149.822Z" fill="#455A64"/>
<path d="M90.4241 87.984L88.8373 87.5019C86.9169 86.8276 85.3233 87.3502 84.2856 88.6482C83.2479 89.9462 82.8436 91.6826 82.9009 93.3346C82.9379 94.4068 83.1468 95.5363 82.7156 96.5174C82.4369 97.0492 82.0765 97.5338 81.6475 97.9537C81.2224 98.3761 80.8917 98.8841 80.6772 99.4439C80.5749 99.7257 80.5551 100.031 80.6202 100.323C80.6852 100.616 80.8324 100.884 81.0445 101.096C81.2561 101.232 81.4536 101.389 81.6341 101.565C81.8034 101.873 81.8773 102.225 81.8463 102.576C81.8943 103.403 82.2203 104.19 82.7715 104.809C83.3228 105.428 84.0667 105.842 84.8827 105.984C85.6987 106.126 86.5387 105.988 87.2664 105.592C87.994 105.196 88.5666 104.566 88.8912 103.803C89.3561 102.718 89.2719 101.487 89.2281 100.307C89.0664 96.1641 89.4687 92.0184 90.4241 87.984Z" fill="#263238"/>
<path d="M93.8674 86.0488C92.4928 85.6408 91.1957 86.0488 89.9188 86.6826C88.616 87.3841 87.5577 88.4662 86.8847 89.7846C86.2118 91.1031 85.9563 92.5954 86.1521 94.0629C86.2676 94.8107 86.5335 95.5274 86.9336 96.1694C87.3338 96.8115 87.8599 97.3657 88.4801 97.7986C90.195 98.9449 92.5635 98.9011 94.3424 97.8626C95.2205 97.3173 95.969 96.5867 96.5358 95.722C97.1025 94.8572 97.4739 93.8791 97.624 92.8559C97.8679 91.4459 97.6616 89.9949 97.0344 88.7089C96.7177 88.0713 96.273 87.506 95.7281 87.0483C95.1832 86.5906 94.5497 86.2503 93.8674 86.0488Z" fill="#263238"/>
<path d="M89.309 90.3407C89.5785 89.8283 89.5718 89.2214 89.72 88.655C90.0569 87.4243 91.1789 86.541 92.4153 86.1904C93.5541 85.8532 94.868 86.1263 96.1214 86.7028C96.9959 87.0868 97.7428 87.7125 98.2742 88.5066C98.6095 89.0424 98.8117 89.6507 98.8639 90.2807C98.9161 90.9107 98.8167 91.544 98.5741 92.1276L92.2839 90.425C91.6472 90.8858 90.9393 91.2388 90.1883 91.4702C89.97 91.5385 89.7376 91.5478 89.5145 91.4972C89.4028 91.4702 89.3012 91.4117 89.2217 91.3286C89.1423 91.2456 89.0884 91.1414 89.0664 91.0285C89.0778 90.7803 89.1622 90.5411 89.309 90.3407Z" fill="#263238"/>
<path d="M96.0371 88.5133L90.3096 89.0292C90.0471 89.0149 89.7888 89.0998 89.586 89.2672C89.3831 89.4346 89.2506 89.6721 89.2146 89.9328L87.8299 102.05C87.7396 102.872 87.9207 103.701 88.3454 104.41L88.7969 105.162C89.0316 105.559 89.3617 105.892 89.7571 106.13C90.1525 106.367 90.6009 106.503 91.0617 106.523C91.5225 106.544 91.9812 106.45 92.3963 106.248C92.8115 106.047 93.17 105.746 93.4395 105.371C93.5082 105.279 93.5649 105.178 93.608 105.071C93.6383 104.963 93.6754 104.896 93.6922 104.805L93.9415 103.635C94.1234 102.566 94.2616 101.47 94.2616 101.48C94.2616 101.49 96.5863 101.48 97.5229 98.5841C97.9912 97.1546 98.3012 94.7338 98.4898 92.7446C98.6583 90.9543 97.8194 88.5909 96.0371 88.5133Z" fill="#FFBF9D"/>
<path d="M97.405 95.1418C97.3932 95.2427 97.3419 95.3349 97.2623 95.3981C97.1828 95.4613 97.0814 95.4903 96.9805 95.479C96.9314 95.4756 96.8835 95.4624 96.8397 95.44C96.7959 95.4176 96.7571 95.3866 96.7256 95.3488C96.6941 95.311 96.6706 95.2671 96.6565 95.22C96.6424 95.1728 96.638 95.1233 96.6436 95.0744C96.649 95.0242 96.6643 94.9756 96.6887 94.9314C96.713 94.8873 96.7459 94.8484 96.7854 94.817C96.8249 94.7856 96.8702 94.7624 96.9188 94.7487C96.9673 94.735 97.018 94.7311 97.0681 94.7372C97.117 94.741 97.1647 94.7546 97.2082 94.7771C97.2518 94.7996 97.2905 94.8306 97.3219 94.8683C97.3533 94.9061 97.3768 94.9497 97.3911 94.9967C97.4054 95.0436 97.4101 95.093 97.405 95.1418Z" fill="#263238"/>
<path d="M97.7656 93.9078C97.7117 93.9483 97.459 93.692 97.0513 93.628C96.6436 93.5639 96.3135 93.719 96.2764 93.6617C96.2394 93.6044 96.3202 93.5538 96.4651 93.4796C96.6607 93.3849 96.8811 93.3542 97.0951 93.392C97.3068 93.4247 97.5027 93.5239 97.6544 93.6752C97.7656 93.7999 97.7925 93.9078 97.7656 93.9078Z" fill="#263238"/>
<path d="M93.7762 94.7035C93.7704 94.7538 93.7546 94.8025 93.73 94.8467C93.7053 94.8909 93.6721 94.9297 93.6323 94.9611C93.5925 94.9924 93.547 95.0156 93.4983 95.0292C93.4495 95.0429 93.3986 95.0468 93.3483 95.0406C93.2997 95.0368 93.2524 95.0234 93.209 95.0011C93.1657 94.9788 93.1272 94.948 93.0959 94.9107C93.0645 94.8734 93.0409 94.8301 93.0264 94.7836C93.0119 94.737 93.0068 94.688 93.0114 94.6394C93.0241 94.5382 93.0761 94.446 93.1562 94.3829C93.2363 94.3198 93.338 94.2908 93.4393 94.3023C93.5371 94.3109 93.6275 94.3579 93.6907 94.4331C93.7539 94.5084 93.7846 94.6056 93.7762 94.7035Z" fill="#263238"/>
<path d="M93.891 93.3481C93.8371 93.3886 93.581 93.1324 93.1767 93.0683C92.7724 93.0042 92.4355 93.1593 92.4018 93.102C92.3681 93.0447 92.4423 92.9941 92.5905 92.92C92.7865 92.8265 93.0065 92.7959 93.2205 92.8323C93.4322 92.865 93.6281 92.9642 93.7798 93.1155C93.8876 93.2335 93.9179 93.3279 93.891 93.3481Z" fill="#263238"/>
<path d="M94.7468 96.6051C94.9706 96.5777 95.1969 96.5777 95.4207 96.6051C95.5251 96.6051 95.6262 96.6051 95.6565 96.5376C95.6823 96.4324 95.6753 96.3218 95.6363 96.2207C95.579 95.951 95.5184 95.6711 95.4543 95.3778C95.2773 94.6601 95.1568 93.9296 95.0938 93.1931C95.3299 93.8945 95.509 94.6138 95.6295 95.3441C95.6868 95.6374 95.7441 95.9206 95.798 96.187C95.8481 96.3218 95.8481 96.4702 95.798 96.6051C95.7773 96.6396 95.7489 96.6688 95.715 96.6905C95.6811 96.7121 95.6426 96.7256 95.6026 96.7298C95.5434 96.7384 95.4832 96.7384 95.424 96.7298C95.1939 96.7174 94.9663 96.6754 94.7468 96.6051Z" fill="#263238"/>
<path d="M94.2582 101.48C92.8645 101.279 91.5537 100.696 90.4713 99.7945C90.4713 99.7945 91.1451 101.996 94.1403 102.192L94.2582 101.48Z" fill="#FF9A6C"/>
<path d="M94.4165 97.5659C94.3553 97.4556 94.2668 97.3629 94.1594 97.2968C94.052 97.2306 93.9294 97.1933 93.8034 97.1883C93.7122 97.1819 93.6207 97.1942 93.5344 97.2243C93.4481 97.2545 93.3688 97.3019 93.3014 97.3636C93.2359 97.4224 93.1902 97.4998 93.1703 97.5855C93.1504 97.6711 93.1573 97.7608 93.1902 97.8424C93.2439 97.9261 93.3213 97.9919 93.4125 98.0315C93.5036 98.0711 93.6045 98.0827 93.7023 98.0649C93.9048 98.0252 94.098 97.9474 94.2717 97.8356C94.3237 97.8109 94.3705 97.7766 94.4098 97.7345C94.4279 97.7142 94.4397 97.689 94.4439 97.6621C94.4481 97.6352 94.4445 97.6077 94.4334 97.5828" fill="#FF9A6C"/>
<path d="M93.5036 96.6994C93.5676 96.6994 93.5036 97.1512 93.8405 97.5255C94.1774 97.8997 94.6491 97.9267 94.6424 97.9874C94.6356 98.0481 94.5244 98.0582 94.3223 98.0312C94.0619 97.9953 93.8229 97.8673 93.6485 97.6705C93.4831 97.4856 93.3951 97.2442 93.4025 96.9961C93.4059 96.7972 93.4733 96.6927 93.5036 96.6994Z" fill="#263238"/>
<path d="M94.2212 91.9085C94.1639 92.013 93.763 91.9085 93.2778 91.8748C92.7927 91.8411 92.3817 91.9253 92.3345 91.8175C92.3143 91.7635 92.3985 91.6725 92.5703 91.5882C92.7993 91.488 93.0485 91.443 93.2981 91.4567C93.5479 91.4656 93.7918 91.5351 94.009 91.659C94.1707 91.7568 94.2448 91.8579 94.2212 91.9085Z" fill="#263238"/>
<path d="M98.1192 92.131C98.0316 92.2119 97.7823 92.0703 97.4454 92.013C97.1085 91.9557 96.812 91.9726 96.7716 91.868C96.748 91.8141 96.8086 91.7298 96.9468 91.6624C97.1309 91.5811 97.3357 91.5587 97.533 91.5983C97.7312 91.6349 97.9134 91.7314 98.0552 91.8748C98.1327 91.986 98.1563 92.0906 98.1192 92.131Z" fill="#263238"/>
<path d="M88.3859 89.3529C89.1675 87.721 91.9774 85.7015 93.7496 86.0757L96.3674 88.193C96.2059 88.6676 95.9194 89.0898 95.5381 89.415C95.1568 89.7402 94.6949 89.9563 94.201 90.0407C93.6721 90.1249 93.0589 90.0811 92.6984 90.4756C92.3379 90.8701 92.4187 91.5477 92.0684 91.9658C91.5832 92.5457 90.5051 92.3636 90.1143 93.0076C89.9424 93.2908 89.9593 93.6583 89.7773 93.9348C89.5449 94.3057 88.4701 94.6698 88.0726 94.4776C87.675 94.2854 87.7761 93.5842 87.6919 93.1931C87.5776 92.7515 87.6217 92.2838 87.8165 91.8714C88.1197 91.0589 88.0153 90.1317 88.3859 89.3529Z" fill="#263238"/>
<path d="M89.2551 95.0002C89.2888 94.781 89.3326 94.4675 89.1338 94.3663C88.5408 94.0696 87.2875 93.8505 87.0449 95.3205C86.708 97.3434 88.7969 97.2558 88.8104 97.1984C88.8239 97.1411 89.1372 95.7622 89.2551 95.0002Z" fill="#FFBF9D"/>
<path d="M88.3219 96.332C88.3219 96.332 88.2848 96.3522 88.2208 96.369C88.1768 96.381 88.1308 96.3839 88.0856 96.3775C88.0404 96.3711 87.997 96.3556 87.958 96.332C87.8418 96.2276 87.7553 96.0944 87.7074 95.9457C87.6594 95.797 87.6518 95.6383 87.6851 95.4857C87.7107 95.3128 87.7727 95.1473 87.867 95.0002C87.8969 94.9405 87.9407 94.8889 87.9946 94.8496C88.0485 94.8103 88.1111 94.7845 88.177 94.7743C88.2189 94.7705 88.2608 94.7816 88.2953 94.8056C88.3298 94.8297 88.3547 94.8652 88.3657 94.9058C88.3825 94.9665 88.3657 95.0036 88.3657 95.0103C88.3657 95.0171 88.4128 94.9833 88.4095 94.8957C88.4072 94.8443 88.3869 94.7954 88.3522 94.7574C88.3036 94.7065 88.2372 94.6763 88.1669 94.6732C88.0815 94.6762 87.9983 94.7011 87.9252 94.7453C87.8521 94.7896 87.7915 94.8518 87.7491 94.926C87.6358 95.0863 87.5619 95.2712 87.5335 95.4655C87.494 95.643 87.5078 95.8283 87.5732 95.998C87.6385 96.1678 87.7524 96.3144 87.9007 96.4196C87.9531 96.4455 88.0108 96.4589 88.0692 96.4589C88.1276 96.4589 88.1852 96.4455 88.2376 96.4196C88.3118 96.3825 88.3286 96.3387 88.3219 96.332Z" fill="#FF9A6C"/>
<path d="M95.8552 87.5019C95.9428 88.3481 97.0681 89.5518 97.5398 90.2598C98.4427 91.6084 98.6011 92.04 98.2608 94.7743C98.8706 93.891 99.3591 93.0076 99.4501 91.9388C99.5534 90.8605 99.2599 89.7815 98.6246 88.9044C98.3039 88.4716 97.8864 88.12 97.4055 87.8776C96.9246 87.6352 96.3937 87.5089 95.8552 87.5086" fill="#263238"/>
<path d="M87.6918 88.8505C88.8406 87.1917 90.2995 86.3084 91.6134 86.042L87.6918 88.8505Z" fill="#263238"/>
<path d="M87.247 96.6253C87.247 96.6253 87.2167 96.5983 87.1628 96.5343C87.1089 96.4702 87.0381 96.3691 86.9506 96.2376C86.7093 95.8593 86.5296 95.445 86.4182 95.0103C86.2534 94.368 86.1686 93.7078 86.1655 93.0447C86.1414 92.228 86.2871 91.4151 86.5934 90.6577C86.8783 89.895 87.2733 89.1782 87.7659 88.5302C88.1668 88.0012 88.6346 87.5264 89.1573 87.1175C89.5125 86.8484 89.8981 86.6221 90.3062 86.4432C90.4511 86.3825 90.5656 86.3353 90.6431 86.3117L90.7644 86.2746C90.7644 86.2746 90.6061 86.3488 90.3264 86.4871C89.9307 86.683 89.5569 86.9203 89.2112 87.1951C88.7057 87.6087 88.2531 88.0832 87.8636 88.6078C87.3851 89.2506 86.9995 89.9577 86.7181 90.7082C86.4172 91.4507 86.2716 92.2471 86.2902 93.0481C86.2876 93.7042 86.3623 94.3582 86.5126 94.9968C86.6184 95.4253 86.7828 95.8372 87.0011 96.2207C87.1493 96.4837 87.2571 96.6051 87.247 96.6253Z" fill="#455A64"/>
<path d="M97.4117 122.461C97.4117 122.461 108.978 121.15 110.865 120.83C114.48 120.216 118.098 120.803 119.624 123.911C120.325 125.327 119.439 128.058 117.32 130.084C115.74 131.598 107.886 139.542 107.886 139.542L101.148 133.921L109.473 127.441L93.3351 129.71L97.4117 122.461Z" fill="#263238"/>
<path d="M109.406 135.664L105.08 140.236C105.08 140.236 108.348 146.244 107.634 147.168L98.3147 138.952L104.76 131.534L109.406 135.664Z" fill="#263238"/>
<path d="M102.536 137.296C102.424 137.244 102.297 137.234 102.178 137.271C102.06 137.307 101.959 137.386 101.896 137.492C101.841 137.603 101.832 137.731 101.869 137.85C101.906 137.969 101.987 138.068 102.095 138.129C102.213 138.184 102.347 138.193 102.472 138.154C102.596 138.116 102.702 138.032 102.769 137.92C102.812 137.797 102.807 137.662 102.755 137.543C102.702 137.424 102.606 137.33 102.486 137.279" fill="#E0E0E0"/>
<path d="M98.3147 138.952L98.9649 138.203L107.725 146.413C107.799 146.667 107.774 146.939 107.654 147.175L98.3147 138.952Z" fill="#E0E0E0"/>
<path d="M105.272 140.324C105.231 140.368 104.986 140.186 104.635 140.132C104.285 140.078 103.998 140.162 103.961 140.108C103.924 140.054 104.231 139.855 104.655 139.926C105.08 139.997 105.316 140.29 105.272 140.324Z" fill="white"/>
<path d="M105.905 141.585C105.878 141.635 105.612 141.538 105.292 141.585C104.972 141.632 104.75 141.797 104.706 141.757C104.662 141.716 104.857 141.436 105.258 141.379C105.659 141.322 105.936 141.541 105.905 141.585Z" fill="white"/>
<path d="M105.44 143.223C105.393 143.196 105.525 142.917 105.858 142.775C106.192 142.633 106.488 142.724 106.475 142.775C106.461 142.826 106.215 142.842 105.942 142.964C105.669 143.085 105.491 143.26 105.44 143.223Z" fill="white"/>
<path d="M106.141 139.171C106.084 139.194 105.929 138.948 105.656 138.739C105.383 138.53 105.114 138.432 105.124 138.372C105.134 138.311 105.461 138.325 105.798 138.574C106.134 138.824 106.192 139.154 106.141 139.171Z" fill="white"/>
<path d="M112.529 134.869C112.505 134.906 112.477 134.94 112.445 134.97L112.189 135.243L111.225 136.254L107.927 139.585L107.886 139.626L107.843 139.589L107.004 138.891L102.873 135.395L101.627 134.326L101.29 134.029C101.248 133.998 101.211 133.962 101.178 133.921C101.225 133.946 101.268 133.977 101.306 134.012L101.643 134.289L102.917 135.327L107.095 138.793L107.93 139.494H107.849L111.165 136.177L112.155 135.206L112.425 134.946C112.456 134.916 112.491 134.89 112.529 134.869Z" fill="#455A64"/>
<path d="M122.37 134.498L128.051 139.515L133.684 142.182C133.779 142.228 133.864 142.294 133.933 142.374C134.002 142.455 134.054 142.549 134.086 142.65C134.117 142.751 134.128 142.858 134.117 142.964C134.105 143.069 134.073 143.171 134.021 143.264C133.96 143.372 133.875 143.464 133.772 143.533C133.669 143.601 133.551 143.644 133.428 143.658C131.834 143.827 125.975 144.424 125.581 144.033C125.123 143.581 119.237 139.14 119.237 139.14L122.37 134.498Z" fill="#263238"/>
<path d="M134.031 143.264L125.2 143.702L125.591 144.039C125.677 144.106 125.775 144.154 125.88 144.18C125.985 144.207 126.094 144.212 126.201 144.194C126.942 144.194 128.994 144.134 133.424 143.682C133.551 143.668 133.673 143.623 133.779 143.552C133.884 143.48 133.971 143.384 134.031 143.271V143.264Z" fill="#E0E0E0"/>
<g opacity="0.6">
<path d="M125.197 141.541C125.309 141.513 125.427 141.529 125.529 141.583C125.63 141.638 125.708 141.729 125.746 141.838C125.778 141.949 125.766 142.068 125.712 142.171C125.658 142.273 125.566 142.351 125.456 142.387C125.337 142.415 125.212 142.398 125.105 142.34C124.997 142.281 124.915 142.185 124.874 142.07C124.853 141.95 124.881 141.827 124.949 141.727C125.017 141.626 125.122 141.556 125.241 141.531" fill="white"/>
</g>
<path d="M130.385 142.458C130.321 142.167 130.313 141.866 130.362 141.571C130.456 141.288 130.604 141.024 130.796 140.796C130.796 140.779 130.679 140.816 130.547 140.934C130.38 141.096 130.263 141.304 130.21 141.531C130.153 141.753 130.163 141.988 130.237 142.205C130.288 142.384 130.369 142.458 130.385 142.458Z" fill="white"/>
<path d="M131.511 142.697C131.557 142.452 131.618 142.21 131.693 141.973C131.851 141.598 132.124 141.386 132.097 141.345C132.07 141.305 131.723 141.48 131.541 141.908C131.473 142.028 131.435 142.162 131.43 142.299C131.424 142.437 131.452 142.573 131.511 142.697Z" fill="white"/>
<path d="M128.741 142.387C128.783 142.004 128.852 141.624 128.95 141.251C129.099 140.896 129.274 140.553 129.472 140.223C129.157 140.476 128.921 140.815 128.791 141.198C128.662 141.582 128.644 141.994 128.741 142.387Z" fill="white"/>
<path d="M126.888 141.005C126.935 141.005 127.074 140.587 127.407 140.159C127.741 139.73 128.121 139.484 128.098 139.441C127.759 139.542 127.468 139.76 127.276 140.058C127.042 140.319 126.905 140.654 126.888 141.005Z" fill="white"/>
<path d="M125.621 140.118C125.754 139.796 125.928 139.494 126.14 139.218C126.391 138.979 126.673 138.776 126.979 138.614C126.979 138.594 126.851 138.594 126.659 138.665C126.414 138.761 126.195 138.914 126.02 139.11C125.844 139.306 125.717 139.54 125.648 139.795C125.591 139.99 125.601 140.115 125.621 140.118Z" fill="white"/>
<path d="M78.9523 127.623C79.0668 127.913 78.5547 137.215 87.3751 137.273C95.2959 137.323 105.946 130.061 107.159 130.53C107.954 130.836 121.622 142.718 121.622 142.718L126.555 136.922C126.555 136.922 113.907 124.845 112.664 123.975C110.002 122.111 108.129 122.124 103.746 122.92C99.8274 123.628 90.2254 126.821 90.2254 126.821L89.3022 126.035L78.9523 127.623Z" fill="#263238"/>
<path d="M100.912 123.837L101.06 123.773L101.502 123.608C101.893 123.466 102.472 123.271 103.23 123.055C104.154 122.794 105.093 122.596 106.043 122.461C106.638 122.372 107.238 122.33 107.839 122.337C108.515 122.347 109.187 122.432 109.844 122.59C111.357 122.957 112.76 123.683 113.934 124.707C115.154 125.843 116.427 127.087 117.785 128.382L126.605 136.858L126.649 136.898L126.612 136.942L125.938 137.741C125.207 138.601 124.449 139.478 123.698 140.283C122.946 141.089 122.269 141.898 121.578 142.701L121.599 142.745L113.85 136.042L110.531 133.166L109.042 131.871L108.341 131.265C108.227 131.167 108.115 131.066 108.004 130.978C107.888 130.896 107.764 130.826 107.634 130.769C107.387 130.662 107.12 130.609 106.851 130.613C106.582 130.618 106.317 130.679 106.074 130.793L104.767 131.436L102.684 132.448L101.377 133.085L101.04 133.247L100.922 133.301L101.034 133.24L101.37 133.065L102.668 132.411L104.743 131.372L106.047 130.725C106.299 130.605 106.574 130.539 106.853 130.533C107.132 130.526 107.41 130.579 107.667 130.688C107.804 130.748 107.933 130.821 108.055 130.907C108.176 130.998 108.287 131.099 108.392 131.197L109.092 131.801L110.592 133.089L113.917 135.954L121.666 142.643L121.686 142.687C122.36 141.875 123.078 141.042 123.758 140.179C124.439 139.316 125.106 138.493 125.84 137.643L126.514 136.855V136.939L117.697 128.463C116.35 127.168 115.073 125.917 113.86 124.781C112.7 123.766 111.313 123.043 109.817 122.674C109.167 122.516 108.501 122.429 107.832 122.414C107.235 122.405 106.638 122.443 106.047 122.529C105.099 122.657 104.16 122.849 103.237 123.102C102.476 123.308 101.889 123.496 101.505 123.631L101.06 123.786L100.912 123.837Z" fill="#455A64"/>
<path d="M96.0776 103.19C96.0776 103.19 99.002 104.353 99.3491 106.828C99.6388 108.891 98.9953 114.387 99.0121 114.757C99.0013 115.082 99.1118 115.4 99.3221 115.648C99.6794 116.031 99.8771 116.536 99.8746 117.06C99.8964 117.412 99.8352 117.764 99.6961 118.089C99.3592 118.655 96.1248 122.407 96.1248 122.407L93.2476 116.423C93.2476 116.423 95.1343 110.816 95.1478 110.671C95.1612 110.526 96.0776 103.19 96.0776 103.19Z" fill="#407BFF"/>
<path d="M99.3894 117.846C99.5141 117.863 103.732 120.863 103.732 120.863C103.732 120.863 104.763 118.871 105.225 118.813C105.686 118.756 107.108 119.299 107.246 119.451C107.442 119.592 107.679 119.662 107.92 119.65C108.196 119.677 108.692 120.374 108.692 120.374L109.642 121.082C109.642 121.082 109.345 121.639 109.264 121.733C109.183 121.828 108.543 121.561 108.553 121.46C108.564 121.359 108.634 122.084 108.142 122.104C107.748 122.083 107.363 121.976 107.014 121.79L106.849 120.954L105.626 120.159L105.481 120.961C105.481 120.961 106.717 121.217 106.68 121.635C106.669 121.752 106.625 121.863 106.555 121.957C106.484 122.05 106.388 122.122 106.279 122.165L105.269 122.141L103.015 122.681C103.015 122.681 97.1051 121.376 96.8895 120.701C96.6739 120.027 97.6577 117.613 99.3894 117.846Z" fill="#FFBF9D"/>
<path d="M99.4332 116.447C99.9496 116.884 100.35 117.442 100.599 118.072C100.862 118.668 103.678 120.732 103.678 120.732L101.394 122.583C101.394 122.583 96.6301 122.778 96.4044 122.07C96.1787 121.362 96.9266 118.2 96.9266 118.2L99.4332 116.447Z" fill="#407BFF"/>
<path d="M96.4717 124.494C96.4988 124.595 96.5636 124.682 96.6528 124.736C96.7419 124.79 96.8485 124.807 96.9502 124.784L105.231 122.971L112.35 121.672L112.411 121.042L105.605 122.016L96.7682 123.992C96.7152 124.005 96.6653 124.028 96.6215 124.06C96.5776 124.092 96.5408 124.133 96.5131 124.18C96.4854 124.227 96.4675 124.279 96.4604 124.333C96.4533 124.387 96.4571 124.442 96.4717 124.494Z" fill="#E0E0E0"/>
<path d="M109.409 112.266L105.568 122.08C105.533 122.17 105.522 122.267 105.536 122.362C105.55 122.456 105.59 122.546 105.65 122.62C105.711 122.695 105.79 122.752 105.88 122.786C105.97 122.819 106.067 122.829 106.161 122.812L114.618 121.251C114.71 121.236 114.798 121.197 114.87 121.138C114.943 121.079 114.999 121.002 115.032 120.914L118.876 111.173C118.895 111.128 118.901 111.078 118.894 111.03C118.888 110.981 118.869 110.935 118.839 110.896C118.81 110.857 118.771 110.825 118.726 110.806C118.681 110.786 118.632 110.778 118.583 110.782L109.857 111.925C109.758 111.935 109.664 111.972 109.585 112.032C109.506 112.092 109.445 112.173 109.409 112.266Z" fill="#E0E0E0"/>
<path d="M110.285 111.925C110.316 111.925 109.399 114.38 108.233 117.384C107.068 120.388 106.101 122.809 106.07 122.795C106.04 122.782 106.957 120.341 108.119 117.337C109.281 114.333 110.241 111.912 110.285 111.925Z" fill="#263238"/>
<path d="M113.322 117.024C113.561 116.55 113.546 116.061 113.288 115.931C113.031 115.801 112.629 116.079 112.39 116.553C112.151 117.027 112.166 117.517 112.424 117.647C112.681 117.777 113.084 117.498 113.322 117.024Z" fill="white"/>
<path d="M96.5998 122.967C96.5998 122.967 95.9091 120.058 96.0473 119.525C96.4448 117.991 98.4966 114.13 98.3248 111.801C98.153 109.471 96.0776 103.19 96.0776 103.19L94.0965 102.515C93.2947 104.262 90.1884 103.864 87.6514 101.824L84.4709 102.468L79.488 117.977L78.6524 123.625C76.631 126.261 78.959 127.65 78.959 127.65C78.959 127.65 82.7965 128.857 85.8287 128.325C88.0961 127.92 91.4046 126.318 92.1458 125.735C93.9213 124.343 96.7346 124.441 96.7346 124.441L96.5998 122.967Z" fill="#407BFF"/>
<path d="M91.0374 123.112L93.1128 123.958C93.1128 123.958 94.265 123.284 94.4335 123.207C95.3979 123.028 96.3723 122.909 97.3511 122.849C97.6736 122.855 97.9959 122.834 98.3147 122.785L95.5722 124.471L93.8338 126.787C93.3556 126.943 92.8575 127.03 92.3547 127.043C91.4909 126.968 90.6345 126.823 89.7942 126.608L91.0374 123.112Z" fill="#FFBF9D"/>
<path d="M84.8685 102.407C84.8685 102.407 81.2265 102.623 79.9462 105.533C79.0905 107.475 77.3284 116.018 77.069 117.583C76.8095 119.147 77.069 121.049 78.3189 122.033C79.5689 123.018 89.9458 127.428 89.9458 127.428L92.1088 123.257L83.349 117.819H83.066L84.1138 111.544" fill="#407BFF"/>
<path d="M84.1205 111.554C84.1205 111.554 84.1205 111.592 84.1205 111.662C84.1205 111.733 84.0936 111.844 84.0734 111.979C84.0262 112.266 83.9622 112.681 83.8746 113.213C83.6994 114.296 83.4433 115.863 83.1233 117.836L83.0862 117.792H83.3827L92.1424 123.217L92.1896 123.244L92.1626 123.291L90.0064 127.461L89.9794 127.512L89.9289 127.492C87.8232 126.592 85.5793 125.61 83.2782 124.569C82.3686 124.157 81.4758 123.741 80.5998 123.321C80.1618 123.109 79.7272 122.896 79.3027 122.67C78.8683 122.467 78.4618 122.209 78.0931 121.902C77.7504 121.571 77.4817 121.171 77.3048 120.728C77.1286 120.297 77.0152 119.843 76.9679 119.38C76.9212 118.931 76.9212 118.48 76.9679 118.031C77.0116 117.586 77.1026 117.155 77.1835 116.73C77.5204 115.044 77.8573 113.422 78.1942 111.922C78.5311 110.422 78.868 109.026 79.205 107.761C79.3768 107.128 79.5419 106.531 79.744 105.971C79.9267 105.442 80.1953 104.946 80.5391 104.505C80.8487 104.129 81.2081 103.798 81.6071 103.52C81.9458 103.292 82.3057 103.098 82.6819 102.94C83.1999 102.721 83.7414 102.563 84.2957 102.468C84.4877 102.434 84.6326 102.418 84.7303 102.407H84.8819L84.7337 102.428L84.3025 102.499C83.7515 102.603 83.2136 102.768 82.6987 102.991C82.3283 103.151 81.9741 103.346 81.6408 103.574C81.2492 103.851 80.8967 104.18 80.593 104.552C80.2578 104.991 79.9961 105.482 79.8181 106.005C79.6295 106.561 79.4576 107.158 79.2892 107.792C78.9523 109.053 78.6154 110.449 78.2784 111.952C77.9415 113.456 77.6046 115.061 77.2677 116.76C77.1902 117.185 77.0993 117.613 77.0588 118.048C77.0117 118.491 77.0117 118.937 77.0588 119.38C77.1322 120.295 77.5176 121.156 78.1504 121.821C78.5129 122.119 78.9113 122.37 79.3364 122.569C79.7609 122.792 80.1921 123.004 80.6301 123.217C81.5061 123.639 82.4045 124.055 83.3254 124.464C85.6232 125.506 87.8636 126.487 89.9693 127.387L89.8918 127.414C90.6432 125.968 91.3675 124.572 92.0582 123.247L92.0784 123.321L83.3321 117.866H83.3524H83.0154V117.822C83.3524 115.853 83.6219 114.285 83.8038 113.207C83.8982 112.674 83.9723 112.259 84.0194 111.976C84.0464 111.841 84.0632 111.737 84.0801 111.659C84.0969 111.581 84.1205 111.554 84.1205 111.554Z" fill="#263238"/>
<path d="M98.008 106.828C98.008 106.828 97.9609 107.047 97.9171 107.445C97.8943 107.687 97.8864 107.93 97.8935 108.173C97.8935 108.456 97.9407 108.78 97.9878 109.137C98.1253 109.972 98.212 110.814 98.2472 111.659C98.2902 112.702 98.1241 113.743 97.7587 114.72C97.3578 115.752 96.8356 116.669 96.5121 117.556C96.2502 118.353 96.1618 119.197 96.2527 120.031C96.2965 120.749 96.3639 121.329 96.4043 121.716C96.4245 121.905 96.4414 122.053 96.4515 122.178C96.456 122.232 96.456 122.286 96.4515 122.34C96.4328 122.289 96.4214 122.236 96.4178 122.182C96.401 122.064 96.3774 121.912 96.3471 121.723C96.2932 121.322 96.2089 120.745 96.155 120.037C96.0504 119.19 96.1321 118.331 96.3942 117.519C96.7311 116.612 97.2399 115.698 97.6341 114.677C97.9957 113.707 98.1617 112.676 98.1226 111.642C98.0937 110.801 98.0172 109.963 97.8935 109.13C97.8504 108.808 97.8245 108.484 97.816 108.159C97.811 107.912 97.8257 107.666 97.8598 107.421C97.8805 107.267 97.9108 107.115 97.9508 106.966C97.9651 106.918 97.9843 106.872 98.008 106.828Z" fill="#263238"/>
<path d="M85.1515 108.51C85.1279 108.51 85.2424 108.173 85.3031 107.64C85.3307 107.325 85.3307 107.008 85.3031 106.693C85.2061 105.595 84.7758 104.554 84.07 103.709C83.7331 103.294 83.4501 103.085 83.4669 103.065C83.5379 103.102 83.6036 103.149 83.6623 103.203C83.8313 103.34 83.989 103.49 84.134 103.652C84.6158 104.191 84.9776 104.826 85.1953 105.516C85.311 105.896 85.3856 106.287 85.4176 106.683C85.4356 107.007 85.4209 107.332 85.3738 107.654C85.3577 107.776 85.3341 107.898 85.3031 108.018C85.2849 108.11 85.259 108.2 85.2256 108.287C85.2109 108.365 85.1859 108.439 85.1515 108.51Z" fill="#263238"/>
<path d="M80.7683 118.968C81.0834 118.589 81.489 118.296 81.9475 118.115C82.3902 117.898 82.88 117.795 83.3726 117.815C82.9045 117.917 82.445 118.054 81.998 118.227C81.5683 118.439 81.157 118.688 80.7683 118.968Z" fill="#263238"/>
<path d="M98.8571 123.335C98.8457 123.408 98.8127 123.477 98.7623 123.531C98.7119 123.586 98.6464 123.624 98.5741 123.641C98.5427 123.645 98.5111 123.645 98.4798 123.641C98.254 123.641 98.1429 123.213 98.1429 123.213L97.1119 123.355C97.1119 123.355 95.643 125.219 95.1241 125.749C93.0858 127.832 92.5535 126.329 92.5535 126.329L93.1869 123.881L94.4907 121.696C94.4907 121.696 94.4099 121.828 94.4402 121.484C94.4705 121.14 95.0736 121.082 95.0736 121.082C95.114 120.904 95.4678 120.745 95.4678 120.745L97.1052 120.442C97.2721 120.41 97.4439 120.417 97.6079 120.461C97.7718 120.506 97.9236 120.587 98.0519 120.698L99.0458 121.551C99.0458 121.551 99.632 122.205 99.6286 122.401C99.6291 122.485 99.5982 122.566 99.5422 122.628C99.4861 122.69 99.4088 122.73 99.3254 122.738C99.3254 122.738 99.3995 123.264 99.2749 123.321C99.1376 123.358 98.9945 123.367 98.8537 123.348L98.8571 123.335Z" fill="#FFBF9D"/>
<path d="M95.0298 122.866C95.0298 122.883 95.242 122.799 95.5823 122.708C96.0294 122.596 96.4895 122.545 96.9502 122.556C97.2024 122.562 97.4537 122.589 97.7015 122.637C97.9015 122.648 98.0941 122.716 98.2574 122.832C98.2796 122.859 98.295 122.891 98.302 122.925C98.3091 122.959 98.3076 122.994 98.2978 123.028C98.2811 123.082 98.2495 123.129 98.2069 123.166C98.1361 123.223 98.0755 123.217 98.0755 123.227C98.0755 123.237 98.1395 123.257 98.2305 123.196C98.2875 123.162 98.3305 123.108 98.3517 123.045C98.3685 123.002 98.3739 122.956 98.3674 122.91C98.3609 122.865 98.3427 122.821 98.3147 122.785C98.2433 122.707 98.1509 122.651 98.0485 122.623C97.9441 122.593 97.8363 122.563 97.7116 122.539C97.4574 122.488 97.1993 122.458 96.9401 122.451C96.4703 122.435 96.0012 122.498 95.552 122.637C95.3675 122.687 95.1916 122.764 95.0298 122.866Z" fill="#FF9A6C"/>
<path d="M95.2285 123.915C95.2285 123.945 95.8754 123.722 96.6806 123.523C97.4858 123.325 98.1529 123.23 98.1462 123.186C97.9985 123.176 97.8501 123.185 97.7048 123.213C97.3512 123.26 97.0003 123.325 96.6537 123.409C96.3116 123.495 95.9743 123.598 95.6429 123.719C95.4976 123.768 95.3585 123.833 95.2285 123.915Z" fill="#FF9A6C"/>
<path d="M98.8301 123.298C98.8295 123.238 98.8192 123.179 98.7998 123.122C98.7631 122.965 98.7158 122.811 98.6583 122.66C98.6191 122.554 98.5718 122.45 98.5168 122.35C98.4501 122.235 98.3607 122.134 98.254 122.053C98.0254 121.861 97.7608 121.717 97.4757 121.629C97.1933 121.538 96.8996 121.487 96.6031 121.477C96.3615 121.481 96.1215 121.516 95.8889 121.581C95.6901 121.635 95.5519 121.689 95.4273 121.726C95.3695 121.741 95.314 121.764 95.2622 121.794C95.4796 121.762 95.6946 121.716 95.9057 121.656C96.4148 121.526 96.9511 121.552 97.4454 121.73C97.7187 121.815 97.9736 121.951 98.1967 122.131C98.3763 122.277 98.5126 122.469 98.5909 122.687C98.7493 123.058 98.8301 123.304 98.8301 123.298Z" fill="#FF9A6C"/>
<path d="M95.6699 121.126C95.6699 121.126 95.9159 121.076 96.3067 121.002C96.6975 120.927 97.277 120.796 97.7621 121.197C98.1995 121.472 98.5964 121.807 98.9413 122.192C99.07 122.363 99.1828 122.546 99.2783 122.738C99.2765 122.68 99.2627 122.622 99.2378 122.569C99.1819 122.419 99.1048 122.277 99.0087 122.148C98.6744 121.74 98.2761 121.389 97.8295 121.109C97.7046 121.02 97.5688 120.946 97.4252 120.89C97.2883 120.846 97.1447 120.825 97.0007 120.83C96.7632 120.84 96.5273 120.874 96.2966 120.931C96.08 120.968 95.8693 121.034 95.6699 121.126Z" fill="#FF9A6C"/>
<path d="M96.0506 124.818C96.0781 124.787 96.1018 124.753 96.1213 124.717L96.3235 124.424C96.5758 124.063 96.8492 123.717 97.1422 123.389H97.122L98.1495 123.257L98.1057 123.227C98.1272 123.308 98.1577 123.386 98.1967 123.459C98.2362 123.543 98.2995 123.614 98.3786 123.662C98.4249 123.683 98.4766 123.69 98.5269 123.682C98.5757 123.679 98.6236 123.668 98.6684 123.648C98.7587 123.603 98.8302 123.528 98.8705 123.436C98.881 123.413 98.8889 123.389 98.8941 123.365L98.8436 123.402H98.884H99.0221H99.167L99.2445 123.385C99.276 123.378 99.305 123.363 99.3287 123.341C99.3609 123.294 99.3806 123.24 99.386 123.183C99.386 123.132 99.386 123.082 99.386 123.031C99.3847 122.932 99.3768 122.833 99.3624 122.735L99.3186 122.792C99.3913 122.788 99.4614 122.764 99.521 122.722C99.5805 122.681 99.6272 122.623 99.6555 122.556C99.6799 122.485 99.6799 122.408 99.6555 122.337C99.6316 122.273 99.5999 122.213 99.5612 122.158C99.4153 121.939 99.2531 121.732 99.0761 121.538L98.5471 121.082L98.2102 120.793C98.1018 120.691 97.9832 120.6 97.8564 120.523C97.7236 120.452 97.5782 120.409 97.4285 120.395C97.2847 120.387 97.1406 120.401 97.0007 120.435L95.4576 120.725C95.3732 120.767 95.293 120.816 95.2184 120.873C95.1363 120.929 95.0738 121.009 95.0398 121.103L95.0904 121.069C94.9979 121.057 94.904 121.068 94.8166 121.1C94.7291 121.132 94.6508 121.185 94.5884 121.254C94.4873 121.391 94.4416 121.561 94.4603 121.73V121.706C94.083 122.33 93.7865 122.842 93.5608 123.207L93.3182 123.618C93.2875 123.665 93.2615 123.714 93.2407 123.766C93.2763 123.722 93.3089 123.676 93.3384 123.628L93.5978 123.23L94.5277 121.747V121.723C94.5127 121.575 94.5536 121.427 94.6423 121.308C94.6958 121.251 94.7623 121.207 94.8361 121.181C94.91 121.155 94.9891 121.146 95.0668 121.157H95.1241V121.12C95.1539 121.048 95.2044 120.987 95.2689 120.944C95.3401 120.892 95.4156 120.846 95.4947 120.806L97.0377 120.526C97.1688 120.494 97.3039 120.481 97.4387 120.489C97.574 120.502 97.7056 120.541 97.8261 120.604C97.9474 120.678 98.0603 120.765 98.163 120.863L98.4999 121.153L99.0289 121.608C99.2018 121.8 99.3617 122.002 99.5073 122.215C99.5395 122.264 99.5666 122.316 99.5882 122.37C99.6048 122.42 99.6048 122.473 99.5882 122.522C99.5662 122.569 99.5322 122.61 99.4897 122.64C99.4471 122.67 99.3975 122.689 99.3456 122.694H99.295V122.745C99.3086 122.838 99.3154 122.933 99.3153 123.028C99.3245 123.111 99.3117 123.194 99.2782 123.271L99.2411 123.287H99.1805C99.1367 123.287 99.0929 123.287 99.0457 123.287H98.9143H98.8773C98.9244 123.254 98.8166 123.335 98.8267 123.328V123.352C98.8166 123.399 98.7954 123.444 98.765 123.482C98.7346 123.52 98.6957 123.55 98.6515 123.571C98.6176 123.586 98.581 123.595 98.5437 123.598C98.5109 123.608 98.4755 123.608 98.4427 123.598C98.3225 123.504 98.24 123.37 98.2102 123.22V123.186H98.1563L97.1287 123.335C96.8385 123.671 96.5706 124.025 96.3268 124.397C96.2426 124.528 96.182 124.629 96.1415 124.7C96.1071 124.736 96.0766 124.776 96.0506 124.818Z" fill="#FF9A6C"/>
<g opacity="0.3">
<path d="M143.734 135.803H141.642V144.936H143.734V135.803Z" fill="black"/>
</g>
</svg>
