<svg width="101" height="100" viewBox="0 0 101 100" fill="none" xmlns="http://www.w3.org/2000/svg">
<g clip-path="url(#clip0_1929_19715)">
<path d="M100.065 70.1431C99.7494 71.9284 99.5198 73.7372 99.1021 75.499C95.97 88.7242 84.3004 98.7444 70.7567 99.8797C54.2662 101.263 39.6811 90.4547 36.2279 74.301C32.4929 56.8134 44.3505 39.2502 62.0129 36.1181C79.3882 33.0382 95.7743 44.0788 99.4101 61.3367C99.6972 62.6992 99.8512 64.0877 100.065 65.4632V70.1431ZM70.8324 61.8796H76.6424C76.3814 57.8783 74.4056 55.2082 70.7358 53.6317V47.3519H64.897V53.6448C64.529 53.8196 64.2028 53.9632 63.8843 54.125C59.81 56.1792 57.9307 60.9399 59.669 65.1474C61.1568 68.7467 63.9731 70.5581 67.8595 70.733C68.6006 70.7427 69.3107 71.0322 69.8475 71.5433C70.3842 72.0544 70.7081 72.7495 70.7541 73.4892C70.7834 74.2113 70.5499 74.9195 70.0968 75.4825C69.6437 76.0455 69.0018 76.4251 68.2901 76.5508C66.865 76.8119 65.4739 75.8957 65.0093 74.4028C64.9362 74.1652 64.8762 73.9251 64.8005 73.6537H59.0583C59.0291 75.2333 59.4461 76.7892 60.2615 78.1424C61.0768 79.4957 62.2575 80.5915 63.6677 81.3038C64.7117 81.8258 64.9727 82.387 64.9075 83.4362C64.824 85.044 64.884 86.6597 64.884 88.257H70.7488C70.7488 86.4561 70.7828 84.7047 70.7306 82.9586C70.7097 82.2199 70.9028 81.8389 71.618 81.4996C72.8159 80.939 73.8698 80.1119 74.699 79.0816C75.5283 78.0512 76.1109 76.8449 76.4023 75.5548C76.6937 74.2647 76.6862 72.925 76.3804 71.6383C76.0746 70.3515 75.4785 69.1518 74.6379 68.1307C72.8708 65.9565 70.5322 64.9281 67.7342 64.8472C66.9948 64.8286 66.2901 64.5294 65.7632 64.0102C65.2363 63.4911 64.9266 62.7909 64.897 62.0518C64.8782 61.3458 65.111 60.6561 65.5537 60.1058C65.9964 59.5555 66.6203 59.1805 67.314 59.0476C68.7313 58.7684 70.1564 59.6688 70.6236 61.1357C70.6966 61.3837 70.7567 61.6342 70.8219 61.8796H70.8324Z" fill="#90B2FF"/>
<path d="M35.9669 0.000171223C38.0315 0.261179 40.1039 0.446495 42.1528 0.783195C47.8532 1.75154 53.29 3.47418 58.0377 6.89077C59.4392 7.89605 60.7182 9.062 61.8485 10.3648C66.0402 15.2404 65.8862 21.1575 61.5326 25.8922C58.4997 29.1887 54.6864 31.295 50.4972 32.6575C37.593 36.878 24.7618 36.6692 12.0977 31.6578C8.80119 30.3528 5.82048 28.4814 3.40094 25.8426C-1.13538 20.8991 -1.11973 14.9298 3.42703 9.98633C6.5252 6.6141 10.4429 4.53388 14.6686 2.98349C19.052 1.40381 23.6377 0.455543 28.288 0.167204C28.5717 0.129778 28.8525 0.0731045 29.1285 -0.00244141L35.9669 0.000171223Z" fill="#90B2FF"/>
<path d="M0.00976562 30.875C6.96563 37.027 15.1691 39.6788 23.9599 40.8298C26.7355 41.1843 29.5297 41.3735 32.3278 41.3962C35.084 41.4302 37.8455 41.177 40.6409 41.0465C40.5291 41.2116 40.408 41.3702 40.2781 41.5215C37.2514 44.6671 34.8054 48.3237 33.0534 52.322C32.7741 52.9641 32.4426 53.1703 31.7483 53.152C24.153 52.9563 16.7926 51.7191 9.94374 48.2399C6.92649 46.7051 4.21983 44.7528 2.20746 41.9757C0.75146 40.0324 -0.0203726 37.6618 0.0123783 35.2338C0.0280387 33.827 0.00976562 32.441 0.00976562 30.875Z" fill="#90B2FF"/>
<path d="M35.7528 88.2966C34.1868 88.2966 32.8817 88.3227 31.5976 88.2966C24.3781 88.1243 17.3622 86.9628 10.7848 83.8229C7.43085 82.2229 4.40577 80.1688 2.18981 77.1071C0.73648 75.1631 -0.0317611 72.7923 0.00517874 70.3653C0.0286695 68.9767 0.00517874 67.5882 0.00517874 66.1709C1.66519 67.3689 3.1973 68.6113 4.85731 69.6501C9.97829 72.8501 15.6369 74.6328 21.5618 75.5828C24.3155 76.0266 27.1187 76.1649 29.8958 76.4859C30.2404 76.5251 30.7885 76.76 30.8537 77.008C31.9041 80.9978 33.5561 84.8043 35.7528 88.2966Z" fill="#90B2FF"/>
<path d="M30.4811 58.9645C30.1574 62.8431 29.8416 66.6146 29.5127 70.5454C28.7715 70.4932 27.7483 70.4436 26.7278 70.3444C20.7925 69.7546 15.0633 68.4104 9.73355 65.6463C6.96426 64.2108 4.46379 62.4176 2.52189 59.9381C0.841 57.7926 -0.0646939 55.3809 0.00577832 52.6298C0.0397094 51.2987 0.00577832 49.9676 0.00577832 48.4824C8.86961 56.143 19.4822 58.3537 30.4811 58.9645Z" fill="#90B2FF"/>
</g>
<defs>
<clipPath id="clip0_1929_19715">
<rect width="100.065" height="100" fill="white"/>
</clipPath>
</defs>
</svg>
