<svg width="50" height="50" viewBox="0 0 50 50" fill="none" xmlns="http://www.w3.org/2000/svg">
<g clip-path="url(#clip0_1352_35395)">
<path d="M23.4385 0H26.5635C27.415 0.111328 28.2715 0.195309 29.1162 0.337887C33.8115 1.14062 37.9668 3.10253 41.5244 6.26855C45.874 10.1406 48.5947 14.9473 49.6172 20.6924C49.7793 21.6016 49.875 22.5225 50.001 23.4375V26.5625C49.9655 26.6862 49.9384 26.8121 49.9199 26.9395C49.627 30.7959 48.5195 34.4072 46.502 37.7061C42.5332 44.208 36.8027 48.2051 29.3018 49.6201C28.3955 49.791 27.4736 49.877 26.5596 50.0029H23.4385C22.8281 49.9277 22.2168 49.8623 21.6094 49.7754C16.6338 49.0625 12.2344 47.0703 8.47949 43.7315C4.13867 39.876 1.42773 35.0801 0.390625 29.3584C0.222656 28.4346 0.128906 27.4971 0 26.5654V23.4404C0.109375 22.6055 0.195312 21.7646 0.332031 20.9346C1.2168 15.7344 3.49805 11.2344 7.20215 7.48047C10.9414 3.69043 15.4414 1.31054 20.6943 0.386715C21.6045 0.224606 22.5234 0.125977 23.4385 0ZM22.9287 19.2471C22.9287 21.4111 22.9453 23.5762 22.9199 25.7402C22.9064 26.113 22.9732 26.4844 23.1157 26.8291C23.2582 27.1738 23.4732 27.4839 23.7461 27.7383C27.0723 31.0397 30.3887 34.3516 33.6953 37.6738C33.8408 37.8272 33.9957 37.9714 34.1592 38.1055C34.4243 38.3093 34.7347 38.4459 35.064 38.5038C35.3933 38.5617 35.7317 38.5391 36.0504 38.4379C36.3691 38.3367 36.6586 38.1599 36.8941 37.9226C37.1297 37.6853 37.3044 37.3946 37.4033 37.0752C37.667 36.2051 37.3965 35.4844 36.7695 34.8584C33.6445 31.7419 30.5238 28.6253 27.4072 25.5088C27.2953 25.4069 27.2071 25.2817 27.1488 25.142C27.0906 25.0022 27.0638 24.8514 27.0703 24.7002C27.085 22.4219 27.0781 20.1436 27.0781 17.8643C27.0781 16.1065 27.0781 14.3486 27.0781 12.5908C27.0781 11.9346 26.875 11.3711 26.376 10.9424C25.7246 10.3818 24.9717 10.2588 24.1885 10.5918C23.3838 10.9326 22.9385 11.5742 22.9326 12.459C22.9199 14.7227 22.9287 16.9844 22.9287 19.2471Z" fill="#64E8FF"/>
</g>
<defs>
<clipPath id="clip0_1352_35395">
<rect width="50" height="50" fill="white"/>
</clipPath>
</defs>
</svg>
