<svg width="260" height="200" viewBox="0 0 260 200" fill="none" xmlns="http://www.w3.org/2000/svg">
<path d="M211.552 27.9201C211.132 27.9683 210.742 28.1602 210.447 28.4633C210.153 28.7664 209.972 29.162 209.937 29.5831C209.901 30.0041 210.011 30.4246 210.25 30.7732C210.489 31.1218 210.841 31.377 211.247 31.4956L211.247 59.6842L211.857 59.6842L211.857 31.52C212.263 31.4014 212.615 31.1462 212.853 30.7976C213.092 30.449 213.203 30.0285 213.167 29.6075C213.131 29.1864 212.951 28.7908 212.656 28.4877C212.362 28.1846 211.972 27.9927 211.552 27.9445L211.552 27.9201ZM211.552 30.9159C211.309 30.922 211.07 30.8556 210.866 30.7253C210.661 30.5949 210.5 30.4066 210.403 30.1842C210.306 29.9618 210.277 29.7155 210.321 29.4768C210.364 29.2382 210.478 29.0179 210.648 28.8442C210.817 28.6704 211.034 28.5511 211.272 28.5015C211.509 28.4519 211.756 28.4742 211.981 28.5656C212.206 28.657 212.398 28.8134 212.534 29.0146C212.669 29.2159 212.742 29.453 212.742 29.6957C212.74 30.013 212.615 30.3173 212.393 30.544C212.171 30.7707 211.869 30.9019 211.552 30.9098L211.552 30.9159Z" fill="#A6D7FF"/>
<path d="M205.474 37.4994L205.474 65.688L206.084 65.688L206.084 37.4994C206.537 37.4229 206.944 37.1792 207.225 36.8165C207.507 36.4539 207.641 35.9988 207.603 35.5415C207.565 35.0841 207.356 34.6579 207.018 34.3472C206.68 34.0365 206.238 33.8641 205.779 33.8641C205.32 33.8641 204.878 34.0365 204.54 34.3472C204.202 34.6579 203.993 35.0841 203.955 35.5415C203.917 35.9988 204.051 36.4539 204.333 36.8165C204.614 37.1792 205.021 37.4229 205.474 37.4994ZM205.779 34.5341C206.022 34.5342 206.259 34.6066 206.46 34.742C206.661 34.8775 206.818 35.0699 206.909 35.2947C207 35.5195 207.023 35.7664 206.973 36.0039C206.923 36.2414 206.804 36.4587 206.63 36.6281C206.457 36.7975 206.236 36.9112 205.998 36.9548C205.759 36.9984 205.513 36.9698 205.29 36.8728C205.068 36.7757 204.88 36.6146 204.749 36.4099C204.619 36.2053 204.553 35.9664 204.559 35.7239C204.567 35.4055 204.699 35.1029 204.927 34.8806C205.155 34.6583 205.461 34.534 205.779 34.5341Z" fill="#A6D7FF"/>
<path d="M27.6154 181.453H19.6836V196.139C19.231 196.215 18.8237 196.459 18.5424 196.822C18.2611 197.184 18.1262 197.639 18.1646 198.097C18.203 198.554 18.4118 198.98 18.7496 199.291C19.0875 199.602 19.5297 199.774 19.9886 199.774C20.4476 199.774 20.8898 199.602 21.2276 199.291C21.5655 198.98 21.7743 198.554 21.8127 198.097C21.851 197.639 21.7162 197.184 21.4349 196.822C21.1535 196.459 20.7463 196.215 20.2937 196.139V182.063H28.2256V156.913H27.6154V181.453ZM21.1784 197.926C21.1783 198.169 21.1059 198.406 20.9705 198.607C20.835 198.809 20.6426 198.965 20.4178 199.056C20.193 199.148 19.9461 199.17 19.7086 199.121C19.4711 199.071 19.2538 198.952 19.0844 198.778C18.915 198.604 18.8013 198.384 18.7577 198.145C18.7141 197.907 18.7427 197.66 18.8397 197.438C18.9368 197.216 19.0979 197.027 19.3026 196.897C19.5072 196.766 19.7461 196.7 19.9886 196.706C20.3038 196.714 20.6037 196.844 20.8255 197.068C21.0473 197.292 21.1738 197.593 21.1784 197.908V197.926Z" fill="#FF928E"/>
<path d="M35.3328 185.925V157.736H34.7226V185.925C34.2701 186.001 33.8628 186.245 33.5815 186.608C33.3001 186.97 33.1653 187.426 33.2037 187.883C33.2421 188.34 33.4509 188.766 33.7887 189.077C34.1265 189.388 34.5687 189.56 35.0277 189.56C35.4867 189.56 35.9289 189.388 36.2667 189.077C36.6045 188.766 36.8133 188.34 36.8517 187.883C36.8901 187.426 36.7553 186.97 36.4739 186.608C36.1926 186.245 35.7853 186.001 35.3328 185.925ZM35.0277 188.884C34.7864 188.884 34.5504 188.813 34.3497 188.678C34.1491 188.544 33.9927 188.354 33.9003 188.131C33.8079 187.908 33.7838 187.663 33.8309 187.426C33.8779 187.189 33.9942 186.972 34.1648 186.801C34.3355 186.63 34.5529 186.514 34.7896 186.467C35.0263 186.42 35.2717 186.444 35.4947 186.536C35.7177 186.629 35.9082 186.785 36.0423 186.986C36.1764 187.187 36.248 187.423 36.248 187.664C36.2522 187.825 36.2235 187.986 36.1636 188.136C36.1038 188.286 36.0141 188.422 35.8999 188.536C35.7857 188.65 35.6495 188.74 35.4996 188.8C35.3497 188.86 35.1891 188.888 35.0277 188.884Z" fill="#FF928E"/>
<path opacity="0.5" d="M254.9 160.157C254.901 160.365 254.861 160.572 254.781 160.765C254.702 160.958 254.585 161.133 254.438 161.28C254.29 161.428 254.115 161.545 253.922 161.624C253.729 161.704 253.523 161.744 253.314 161.743H2.05098C1.84295 161.743 1.63695 161.702 1.44483 161.622C1.2527 161.543 1.07822 161.426 0.931403 161.278C0.784581 161.131 0.668306 160.956 0.589249 160.763C0.510193 160.571 0.469912 160.365 0.470715 160.157C0.470715 159.738 0.637207 159.336 0.933565 159.039C1.22992 158.743 1.63187 158.577 2.05098 158.577H253.302C253.51 158.576 253.716 158.616 253.908 158.695C254.101 158.774 254.276 158.89 254.423 159.037C254.571 159.184 254.688 159.359 254.767 159.551C254.847 159.743 254.888 159.949 254.888 160.157H254.9Z" fill="#A6D7FF"/>
<path d="M109.051 4.15527H37.7131C32.9247 4.15527 29.043 8.03702 29.043 12.8254V149.906C29.043 154.695 32.9247 158.576 37.7131 158.576H109.051C113.839 158.576 117.721 154.695 117.721 149.906V12.8254C117.721 8.03702 113.839 4.15527 109.051 4.15527Z" fill="#263238"/>
<path d="M79.1601 148.936C79.1613 150.081 78.823 151.2 78.1878 152.152C77.5527 153.104 76.6494 153.846 75.5923 154.285C74.5351 154.723 73.3716 154.839 72.249 154.616C71.1264 154.393 70.0952 153.842 69.2859 153.032C68.4766 152.223 67.9256 151.192 67.7026 150.069C67.4797 148.947 67.5947 147.783 68.0333 146.726C68.4718 145.669 69.2141 144.765 70.1662 144.13C71.1184 143.495 72.2375 143.157 73.3821 143.158C74.1408 143.158 74.8922 143.308 75.5932 143.598C76.2942 143.888 76.9312 144.314 77.4678 144.85C78.0043 145.387 78.4299 146.024 78.7203 146.725C79.0107 147.426 79.1601 148.177 79.1601 148.936Z" fill="white"/>
<path d="M84.7605 13.9725C84.7605 14.3074 84.6275 14.6287 84.3906 14.8655C84.1538 15.1024 83.8325 15.2355 83.4975 15.2355H63.2591C62.9241 15.2355 62.6029 15.1024 62.366 14.8655C62.1292 14.6287 61.9961 14.3074 61.9961 13.9725C61.9961 13.6375 62.1292 13.3163 62.366 13.0794C62.6029 12.8425 62.9241 12.7095 63.2591 12.7095H83.4975C83.8325 12.7095 84.1538 12.8425 84.3906 13.0794C84.6275 13.3163 84.7605 13.6375 84.7605 13.9725Z" fill="white"/>
<path d="M74.5285 9.10974C74.5297 9.33712 74.4633 9.55973 74.3377 9.74929C74.2122 9.93886 74.0331 10.0868 73.8232 10.1744C73.6134 10.262 73.3822 10.2852 73.1592 10.2411C72.9361 10.1971 72.7311 10.0877 72.5703 9.92692C72.4096 9.76613 72.3002 9.56118 72.2561 9.33811C72.2121 9.11503 72.2353 8.88389 72.3229 8.67404C72.4104 8.4642 72.5584 8.28511 72.748 8.15954C72.9375 8.03396 73.1602 7.96756 73.3875 7.96877C73.6896 7.97037 73.9789 8.09109 74.1925 8.30472C74.4062 8.51835 74.5269 8.80763 74.5285 9.10974Z" fill="white"/>
<path d="M113.835 18.3594H32.9297V140.083H113.835V18.3594Z" fill="#FFE2D7"/>
<path opacity="0.5" d="M32.9297 140.083L113.835 18.3594V140.083H32.9297Z" fill="#EEC1BB"/>
<path d="M106.878 24.6805H39.8848V54.4311H106.878V24.6805Z" fill="white"/>
<g opacity="0.4">
<path d="M67.8916 31.8679L77.9101 45.0897L83.4014 37.8412L91.8397 48.9824H80.8571H74.9631H54.9199L67.8916 31.8679Z" fill="#FF6C37"/>
<path d="M76.4766 34.8516C76.4778 35.258 76.5994 35.6549 76.8261 35.9923C77.0527 36.3296 77.3743 36.5922 77.7501 36.7469C78.1259 36.9016 78.5392 36.9414 78.9376 36.8614C79.3361 36.7814 79.7019 36.5851 79.9888 36.2973C80.2758 36.0095 80.471 35.6431 80.5499 35.2444C80.6287 34.8457 80.5876 34.4326 80.4318 34.0572C80.276 33.6819 80.0125 33.3611 79.6745 33.1354C79.3365 32.9097 78.9392 32.7893 78.5328 32.7893C78.2622 32.7893 77.9943 32.8427 77.7445 32.9464C77.4946 33.0501 77.2677 33.2021 77.0767 33.3937C76.8856 33.5853 76.7343 33.8127 76.6313 34.0628C76.5284 34.313 76.4758 34.581 76.4766 34.8516Z" fill="#FF6C37"/>
</g>
<path d="M70.1479 64.645H39.8848V65.9934H70.1479V64.645Z" fill="#FF6C37"/>
<path d="M70.1479 67.9519H39.8848V69.3003H70.1479V67.9519Z" fill="#FF6C37"/>
<path d="M70.1479 71.2589H39.8848V72.6073H70.1479V71.2589Z" fill="#FF6C37"/>
<path d="M70.1479 74.5658H39.8848V75.9142H70.1479V74.5658Z" fill="#FF6C37"/>
<path d="M70.1479 58.7264H39.8848V61.7039H70.1479V58.7264Z" fill="white"/>
<path d="M106.878 58.7264H76.6152V61.7039H106.878V58.7264Z" fill="white"/>
<path d="M106.878 64.645H76.6152V65.9934H106.878V64.645Z" fill="#FF6C37"/>
<path d="M106.878 67.9519H76.6152V69.3003H106.878V67.9519Z" fill="#FF6C37"/>
<path d="M106.878 71.2588H76.6152V72.6072H106.878V71.2588Z" fill="#FF6C37"/>
<path d="M106.878 74.5659H76.6152V75.9143H106.878V74.5659Z" fill="#FF6C37"/>
<path d="M70.1479 85.8047H39.8848V87.1531H70.1479V85.8047Z" fill="#FF6C37"/>
<path d="M70.1479 89.1055H39.8848V90.4539H70.1479V89.1055Z" fill="#FF6C37"/>
<path d="M70.1479 92.4126H39.8848V93.761H70.1479V92.4126Z" fill="#FF6C37"/>
<path d="M70.1479 95.7195H39.8848V97.0679H70.1479V95.7195Z" fill="#FF6C37"/>
<path d="M70.1479 79.8801H39.8848V82.8576H70.1479V79.8801Z" fill="white"/>
<path d="M106.878 79.8801H76.6152V82.8576H106.878V79.8801Z" fill="white"/>
<path d="M106.878 85.8047H76.6152V87.1531H106.878V85.8047Z" fill="#FF6C37"/>
<path d="M106.878 89.1055H76.6152V90.4539H106.878V89.1055Z" fill="#FF6C37"/>
<path d="M106.878 92.4126H76.6152V93.761H106.878V92.4126Z" fill="#FF6C37"/>
<path d="M106.878 95.7195H76.6152V97.0679H106.878V95.7195Z" fill="#FF6C37"/>
<path d="M70.7336 103.133H39.8848V133.982H70.7336V103.133Z" fill="white"/>
<g opacity="0.4">
<path d="M51.7405 113.56L57.7199 121.449L60.9903 117.123L66.024 123.768H59.471H55.9566H44.0039L51.7405 113.56Z" fill="#407BFF"/>
<path d="M56.8359 115.342C56.8359 115.583 56.9075 115.819 57.0416 116.02C57.1757 116.22 57.3663 116.377 57.5892 116.469C57.8122 116.561 58.0576 116.586 58.2943 116.538C58.531 116.491 58.7484 116.375 58.9191 116.204C59.0898 116.034 59.206 115.816 59.2531 115.58C59.3001 115.343 59.276 115.098 59.1836 114.875C59.0913 114.652 58.9349 114.461 58.7342 114.327C58.5335 114.193 58.2976 114.121 58.0562 114.121C57.7326 114.121 57.4222 114.25 57.1934 114.479C56.9645 114.708 56.8359 115.018 56.8359 115.342Z" fill="#407BFF"/>
</g>
<path d="M106.878 103.133H76.6152V106.11H106.878V103.133Z" fill="white"/>
<path d="M106.878 109.051H76.6152V110.4H106.878V109.051Z" fill="#FF6C37"/>
<path d="M106.878 112.358H76.6152V113.707H106.878V112.358Z" fill="#FF6C37"/>
<path d="M106.878 115.665H76.6152V117.013H106.878V115.665Z" fill="#FF6C37"/>
<path d="M106.878 118.966H76.6152V120.314H106.878V118.966Z" fill="#FF6C37"/>
<path d="M106.878 122.273H76.6152V123.621H106.878V122.273Z" fill="#FF6C37"/>
<path d="M106.878 125.58H76.6152V126.928H106.878V125.58Z" fill="#FF6C37"/>
<path d="M106.878 128.887H76.6152V130.235H106.878V128.887Z" fill="#FF6C37"/>
<path d="M106.878 132.188H76.6152V133.536H106.878V132.188Z" fill="#FF6C37"/>
<path d="M216.473 63.9492H99.1795C96.5174 63.9492 94.3594 66.1073 94.3594 68.7693V149.009C94.3594 151.671 96.5174 153.829 99.1795 153.829H216.473C219.136 153.829 221.294 151.671 221.294 149.009V68.7693C221.294 66.1073 219.136 63.9492 216.473 63.9492Z" fill="#455A64"/>
<path d="M216.65 69.8066H98.9961V147.966H216.65V69.8066Z" fill="white"/>
<path d="M84.7188 147.99V153.024C84.7236 154.495 85.3101 155.905 86.3503 156.945C87.3905 157.985 88.8 158.572 90.2711 158.576H225.369C226.84 158.572 228.249 157.985 229.29 156.945C230.33 155.905 230.916 154.495 230.921 153.024V147.99H84.7188Z" fill="#455A64"/>
<path d="M133.104 147.99V149.693C133.105 150.191 133.304 150.668 133.656 151.02C134.008 151.372 134.485 151.57 134.983 151.572H180.695C181.193 151.57 181.67 151.372 182.022 151.02C182.374 150.668 182.572 150.191 182.574 149.693V147.99H133.104Z" fill="#263238"/>
<path d="M128.357 75.0601H103.951V76.8905H128.357V75.0601Z" fill="#407BFF"/>
<path d="M191.408 75.0601H137.307V76.8905H191.408V75.0601Z" fill="#FF6C37"/>
<path d="M120.809 81.1615H103.951V82.9919H120.809V81.1615Z" fill="#407BFF"/>
<path d="M164.353 81.1615H126.988V82.9919H164.353V81.1615Z" fill="#FF6C37"/>
<path d="M122.396 87.2629H103.951V89.0934H122.396V87.2629Z" fill="#407BFF"/>
<path d="M170.052 87.2629H129.16V89.0934H170.052V87.2629Z" fill="#FF6C37"/>
<path d="M115.007 93.3644H103.951V95.1948H115.007V93.3644Z" fill="#407BFF"/>
<path d="M186.722 93.3644H119.057V95.1948H186.722V93.3644Z" fill="#FF6C37"/>
<path d="M128.357 99.4658H103.951V101.296H128.357V99.4658Z" fill="#407BFF"/>
<path d="M191.408 99.4658H137.307V101.296H191.408V99.4658Z" fill="#FF6C37"/>
<path d="M120.809 105.567H103.951V107.398H120.809V105.567Z" fill="#407BFF"/>
<path d="M164.353 105.567H126.988V107.398H164.353V105.567Z" fill="#FF6C37"/>
<path d="M124.952 111.669H103.951V113.499H124.952V111.669Z" fill="#407BFF"/>
<path d="M179.198 111.669H132.65V113.499H179.198V111.669Z" fill="#FF6C37"/>
<path d="M115.007 117.77H103.951V119.6H115.007V117.77Z" fill="#407BFF"/>
<path d="M186.722 117.77H119.057V119.6H186.722V117.77Z" fill="#FF6C37"/>
<path d="M130.456 123.872H103.951V125.702H130.456V123.872Z" fill="#407BFF"/>
<path d="M198.931 123.872H140.174V125.702H198.931V123.872Z" fill="#FF6C37"/>
<path d="M126.6 129.973H103.951V131.803H126.6V129.973Z" fill="#407BFF"/>
<path d="M185.105 129.973H134.902V131.803H185.105V129.973Z" fill="#FF6C37"/>
<path d="M123.982 136.074H103.951V137.905H123.982V136.074Z" fill="#407BFF"/>
<path d="M175.734 136.074H131.328V137.905H175.734V136.074Z" fill="#FF6C37"/>
<path d="M115.959 142.176H103.951V144.006H115.959V142.176Z" fill="#407BFF"/>
<path d="M193.849 142.176H120.357V144.006H193.849V142.176Z" fill="#FF6C37"/>
<path d="M244.656 119.613V113.048H241.099C240.602 110.005 239.407 107.119 237.609 104.615L240.116 102.114L235.485 97.4828L232.978 99.9905C230.476 98.1916 227.592 96.9951 224.552 96.4944V92.9495H218.017V96.4944C214.975 96.9951 212.089 98.1915 209.585 99.9905L207.077 97.4828L202.452 102.114L204.954 104.615C203.149 107.118 201.946 110.004 201.439 113.048H197.895V119.594H201.439C201.938 122.635 203.132 125.518 204.929 128.021L202.428 130.528L207.053 135.159L209.56 132.651C212.065 134.45 214.95 135.647 217.993 136.148V139.693H224.564V136.148C227.604 135.647 230.488 134.45 232.99 132.651L235.498 135.159L240.129 130.528L237.621 128.021C239.413 125.524 240.604 122.646 241.099 119.613H244.656ZM221.287 129.808C218.623 129.808 216.018 129.018 213.803 127.538C211.587 126.057 209.861 123.953 208.841 121.492C207.821 119.03 207.555 116.321 208.074 113.708C208.594 111.095 209.877 108.694 211.761 106.81C213.645 104.926 216.046 103.643 218.659 103.123C221.272 102.603 223.981 102.87 226.443 103.89C228.905 104.909 231.009 106.636 232.489 108.852C233.969 111.067 234.759 113.672 234.759 116.336C234.76 118.106 234.412 119.858 233.736 121.493C233.059 123.128 232.066 124.613 230.815 125.864C229.564 127.115 228.079 128.108 226.444 128.784C224.809 129.461 223.057 129.809 221.287 129.808Z" fill="#A6D7FF"/>
<path d="M148.429 68.324V59.5746H143.694C143.024 55.5114 141.427 51.6573 139.027 48.3113L142.376 44.9616L136.189 38.7748L132.84 42.1245C129.493 39.7254 125.639 38.1283 121.576 37.4569V32.7222H112.827V37.4569C108.764 38.1269 104.91 39.724 101.564 42.1245L98.2141 38.7748L92.0272 44.9616L95.3769 48.3113C92.974 51.6559 91.3766 55.5107 90.7093 59.5746H85.9746V68.324H90.7093C91.3766 72.3879 92.974 76.2427 95.3769 79.5873L92.0272 82.937L98.2141 89.1238L101.564 85.7741C104.907 88.1854 108.761 89.7931 112.827 90.4722V95.2069H121.576V90.4722C125.639 89.8008 129.493 88.2037 132.84 85.8046L136.189 89.1543L142.376 82.9675L139.02 79.6178C141.425 76.2735 143.025 72.4188 143.694 68.3545L148.429 68.324ZM117.202 81.9302C113.642 81.9302 110.162 80.8746 107.202 78.8968C104.242 76.919 101.935 74.1079 100.573 70.819C99.2103 67.5301 98.8539 63.911 99.5484 60.4195C100.243 56.928 101.957 53.7209 104.474 51.2036C106.992 48.6864 110.199 46.9721 113.69 46.2776C117.182 45.5831 120.801 45.9396 124.09 47.3019C127.379 48.6642 130.19 50.9712 132.168 53.9312C134.145 56.8911 135.201 60.3711 135.201 63.931C135.201 66.2947 134.735 68.6352 133.831 70.819C132.926 73.0028 131.6 74.987 129.929 76.6584C128.258 78.3298 126.274 79.6556 124.09 80.5601C121.906 81.4646 119.565 81.9302 117.202 81.9302Z" fill="#A6D7FF"/>
<path d="M196.012 45.1263L222.205 45.1263L222.205 71.3197L196.012 71.3197L196.012 45.1263ZM221.595 45.7364L196.622 45.7364L196.622 70.7096L221.595 70.7096L221.595 45.7364Z" fill="#407BFF"/>
<path d="M198.348 68.9829L219.861 68.9829L219.861 47.4693L198.348 47.4693L198.348 68.9829Z" fill="#407BFF"/>
<path d="M208.241 60.2799L204.909 59.0129V58.1029L208.241 56.8359V57.7109L205.238 58.8029V58.3129L208.241 59.4049V60.2799ZM208.434 61.7079L210.744 55.1139H211.717L209.407 61.7079H208.434ZM211.84 60.2799V59.4049L214.843 58.3129V58.8029L211.84 57.7109V56.8359L215.172 58.1029V59.0129L211.84 60.2799Z" fill="white"/>
<path d="M43.8575 172.056H17.6641V145.869H43.8575V172.056ZM18.2742 171.446H43.2474V146.479H18.2742V171.446Z" fill="#FF6C37"/>
<path d="M41.5195 148.206H20.0059V169.719H41.5195V148.206Z" fill="#FF6C37"/>
<path d="M27.8539 160.201L24.5219 158.934V158.024L27.8539 156.757V157.632L24.8509 158.724V158.234L27.8539 159.326V160.201ZM28.0473 161.629L30.3573 155.035H31.3303L29.0203 161.629H28.0473ZM31.4535 160.201V159.326L34.4565 158.234V158.724L31.4535 157.632V156.757L34.7855 158.024V158.934L31.4535 160.201Z" fill="white"/>
<path d="M160.737 20.6173L155.515 22.5271L160.737 24.4246V26.3832L153.275 23.546V21.5081L160.737 18.671V20.6173Z" fill="#FF6C37"/>
<path d="M167.92 14.8148H170.098L164.924 29.5803H162.746L167.92 14.8148Z" fill="#FF6C37"/>
<path d="M179.409 21.5081V23.546L171.947 26.3832V24.4246L177.17 22.5271L171.947 20.6173V18.671L179.409 21.5081Z" fill="#FF6C37"/>
</svg>
