<svg id="Layer_1" data-name="Layer 1" xmlns="http://www.w3.org/2000/svg" viewBox="0 0 66.19 67.87"><g id="logo_primary_color" data-name="logo primary color"><g id="logo"><g id="UI-Element-_logoMark" data-name="UI-Element-/logoMark"><path id="logo_fill" data-name="logo fill" d="M63.63,4a5.53,5.53,0,0,1,4.79,8.33l0,.06L59.8,26.76a5.45,5.45,0,0,1-4.6,2.66H45.32l4.08,9.34,0,0,0,0a5.53,5.53,0,0,1-.06,5.51l0,.06L40.76,58.77a5.45,5.45,0,0,1-4.6,2.66H24.05L15.4,70.56l0,0a4.27,4.27,0,0,1-3.06,1.29,4.12,4.12,0,0,1-.86-.09,4.3,4.3,0,0,1-3.12-2.57l0,0L3.77,58.72l0,0,0,0,0,0a5.56,5.56,0,0,1,.06-5.51l0-.06L12.13,39.1,6,25.05,6.1,25h0a5.51,5.51,0,0,1,.62-3.82l0-.07,0-.06L15.38,6.66A5.47,5.47,0,0,1,20,4H63.63ZM18.52,61.32H9.39l2.68,6.2v0a.3.3,0,0,0,.22.2.29.29,0,0,0,.25-.07h0ZM44.62,40H16.92l7.57,17.31H36.1a1.44,1.44,0,0,0,1.19-.67l0,0,8.61-14.38A1.47,1.47,0,0,0,46,40.85,1.51,1.51,0,0,0,44.62,40ZM14.15,43.55,7.32,55.06a1.51,1.51,0,0,0,0,1.47l0,0v0l0,0,.05.08.06.08.06.06h0l0,0,0,0a1.41,1.41,0,0,0,.78.34H20.12Zm-1.79-14.1,3,6.88.06,0A5.38,5.38,0,0,1,17,36H43.85L41,29.45ZM63.56,8H35.86l7.57,17.31H55a1.44,1.44,0,0,0,1.2-.66l0,0,8.6-14.38a1.42,1.42,0,0,0,.08-1.37A1.51,1.51,0,0,0,63.6,8ZM31.63,8H20.09a1.44,1.44,0,0,0-1.2.67l0,0L10.29,23.09a1.47,1.47,0,0,0-.08,1.38,1.5,1.5,0,0,0,1.34.85H39.17Z" transform="translate(-3 -4)" style="fill:#4b39ef;fill-rule:evenodd"/></g></g></g></svg>