<svg width="251" height="200" viewBox="0 0 251 200" fill="none" xmlns="http://www.w3.org/2000/svg">
<path d="M125.175 200C194.307 200 250.35 196.728 250.35 192.692C250.35 188.656 194.307 185.384 125.175 185.384C56.0428 185.384 0 188.656 0 192.692C0 196.728 56.0428 200 125.175 200Z" fill="#F5F5F5"/>
<path d="M155.82 3.6928H140.326C139.821 3.70354 139.335 3.88292 138.944 4.20236C138.553 4.52179 138.28 4.96288 138.169 5.45529L138.066 5.93949C137.799 7.14074 137.135 8.21715 136.182 8.99578C135.229 9.77441 134.041 10.2101 132.811 10.2327H118.091C116.924 10.2588 115.793 9.82199 114.947 9.01767C114.1 8.21335 113.606 7.1068 113.572 5.93949V5.45529C113.56 4.97696 113.359 4.52283 113.013 4.19246C112.667 3.86208 112.204 3.6824 111.726 3.6928H96.2314C93.6866 3.73806 91.2466 4.71431 89.3729 6.43691C87.4992 8.15952 86.3217 10.509 86.0632 13.0411L73.629 155.421C73.4976 156.612 73.6214 157.817 73.9921 158.956C74.3628 160.094 74.9719 161.141 75.7788 162.026C76.5857 162.911 77.5719 163.614 78.6717 164.089C79.7716 164.563 80.9598 164.797 82.1573 164.776H141.727C144.272 164.729 146.712 163.752 148.586 162.028C150.459 160.304 151.636 157.954 151.895 155.421L164.355 13.0411C164.485 11.8506 164.361 10.6459 163.989 9.50737C163.618 8.36881 163.008 7.32248 162.2 6.43802C161.393 5.55355 160.406 4.85127 159.306 4.37791C158.206 3.90456 157.018 3.67101 155.82 3.6928Z" fill="#FF6C37"/>
<path opacity="0.7" d="M155.82 3.6928H140.326C139.821 3.70354 139.335 3.88292 138.944 4.20236C138.553 4.52179 138.28 4.96288 138.169 5.45529L138.066 5.93949C137.799 7.14074 137.135 8.21715 136.182 8.99578C135.229 9.77441 134.041 10.2101 132.811 10.2327H118.091C116.924 10.2588 115.793 9.82199 114.947 9.01767C114.1 8.21335 113.606 7.1068 113.572 5.93949V5.45529C113.56 4.97696 113.359 4.52283 113.013 4.19246C112.667 3.86208 112.204 3.6824 111.726 3.6928H96.2314C93.6866 3.73806 91.2466 4.71431 89.3729 6.43691C87.4992 8.15952 86.3217 10.509 86.0632 13.0411L73.629 155.421C73.4976 156.612 73.6214 157.817 73.9921 158.956C74.3628 160.094 74.9719 161.141 75.7788 162.026C76.5857 162.911 77.5719 163.614 78.6717 164.089C79.7716 164.563 80.9598 164.797 82.1573 164.776H141.727C144.272 164.729 146.712 163.752 148.586 162.028C150.459 160.304 151.636 157.954 151.895 155.421L164.355 13.0411C164.485 11.8506 164.361 10.6459 163.989 9.50737C163.618 8.36881 163.008 7.32248 162.2 6.43802C161.393 5.55355 160.406 4.85127 159.306 4.37791C158.206 3.90456 157.018 3.67101 155.82 3.6928Z" fill="white"/>
<path d="M149.783 69.1823H118.149C117.883 69.1865 117.619 69.1342 117.375 69.0287C117.13 68.9233 116.911 68.7671 116.732 68.5706C116.552 68.374 116.416 68.1416 116.334 67.8887C116.251 67.6357 116.223 67.3681 116.251 67.1034L118.633 39.8656C118.69 39.3026 118.951 38.78 119.368 38.3968C119.784 38.0136 120.327 37.7966 120.893 37.7868H152.527C152.794 37.7815 153.058 37.8331 153.303 37.9382C153.548 38.0433 153.767 38.1995 153.947 38.3963C154.127 38.5931 154.262 38.8259 154.345 39.0793C154.427 39.3327 154.455 39.6008 154.425 39.8656L152.043 67.1034C151.985 67.666 151.723 68.1878 151.307 68.5707C150.891 68.9536 150.349 69.1711 149.783 69.1823Z" fill="white"/>
<path d="M139.26 154.35H86.3211C85.6595 154.362 85.003 154.233 84.3952 153.972C83.7875 153.71 83.2424 153.322 82.7964 152.833C82.3505 152.345 82.0138 151.766 81.8089 151.137C81.604 150.508 81.5356 149.843 81.6082 149.185C81.7515 147.786 82.4021 146.489 83.4369 145.537C84.4718 144.586 85.8193 144.046 87.2249 144.02H140.164C140.826 144.008 141.482 144.137 142.09 144.398C142.698 144.66 143.243 145.048 143.689 145.536C144.135 146.025 144.471 146.603 144.676 147.233C144.881 147.862 144.949 148.527 144.877 149.185C144.735 150.584 144.085 151.882 143.05 152.834C142.014 153.786 140.666 154.325 139.26 154.35Z" fill="white"/>
<path d="M143.477 30.2979H94.9081C94.5358 30.3091 94.1655 30.2397 93.8226 30.0943C93.4796 29.9489 93.1722 29.7311 92.9214 29.4557C92.6705 29.1804 92.4822 28.854 92.3694 28.499C92.2566 28.144 92.2218 27.7689 92.2676 27.3992L92.6615 22.88C92.7432 22.0965 93.1087 21.37 93.689 20.8373C94.2693 20.3045 95.0244 20.0024 95.812 19.9877H144.38C144.751 19.981 145.119 20.0533 145.46 20.1997C145.8 20.346 146.106 20.5632 146.356 20.8367C146.607 21.1103 146.796 21.4339 146.912 21.7862C147.027 22.1385 147.067 22.5113 147.027 22.88L146.627 27.3992C146.547 28.1838 146.182 28.9119 145.601 29.446C145.021 29.9801 144.265 30.2831 143.477 30.2979Z" fill="white"/>
<path d="M153.353 22.7251C153.33 22.9438 153.229 23.1467 153.067 23.2955C152.905 23.4443 152.694 23.5284 152.474 23.5321C152.371 23.5336 152.269 23.5131 152.174 23.4721C152.079 23.4311 151.994 23.3705 151.925 23.2942C151.855 23.2179 151.803 23.1277 151.771 23.0296C151.738 22.9315 151.728 22.8277 151.739 22.7251C151.761 22.507 151.863 22.3047 152.025 22.157C152.187 22.0093 152.397 21.9266 152.617 21.9245C152.719 21.9221 152.822 21.9417 152.916 21.9819C153.011 22.0222 153.096 22.0822 153.166 22.158C153.236 22.2338 153.288 22.3236 153.32 22.4214C153.353 22.5192 153.364 22.6227 153.353 22.7251Z" fill="white"/>
<path d="M153.141 25.1396C153.12 25.3577 153.02 25.5607 152.859 25.7095C152.699 25.8584 152.488 25.9428 152.269 25.9466C152.166 25.9481 152.064 25.9277 151.969 25.8867C151.874 25.8457 151.789 25.785 151.72 25.7087C151.65 25.6325 151.598 25.5423 151.566 25.4442C151.533 25.3461 151.522 25.2422 151.533 25.1396C151.554 24.9214 151.654 24.7185 151.815 24.5697C151.976 24.4208 152.186 24.3364 152.405 24.3326C152.508 24.3311 152.611 24.3515 152.705 24.3925C152.8 24.4335 152.885 24.4942 152.955 24.5705C153.024 24.6467 153.077 24.7369 153.109 24.835C153.141 24.9331 153.152 25.0369 153.141 25.1396Z" fill="white"/>
<path d="M152.935 27.5477C152.912 27.7664 152.811 27.9694 152.649 28.1181C152.487 28.2669 152.276 28.351 152.057 28.3547C151.953 28.3562 151.851 28.3357 151.756 28.2947C151.661 28.2537 151.576 28.1931 151.507 28.1168C151.437 28.0405 151.385 27.9504 151.353 27.8523C151.321 27.7541 151.31 27.6503 151.321 27.5477C151.343 27.329 151.444 27.126 151.606 26.9772C151.768 26.8285 151.979 26.7443 152.199 26.7407C152.302 26.7392 152.404 26.7596 152.499 26.8006C152.594 26.8416 152.679 26.9023 152.748 26.9785C152.818 27.0548 152.87 27.145 152.902 27.2431C152.935 27.3412 152.946 27.445 152.935 27.5477Z" fill="white"/>
<path d="M145.853 114.116H86.7611C86.4947 114.121 86.2302 114.07 85.9853 113.965C85.7405 113.859 85.5209 113.703 85.3412 113.507C85.1615 113.31 85.0259 113.077 84.9435 112.823C84.861 112.57 84.8336 112.302 84.863 112.037L87.6133 80.9516C87.6701 80.3885 87.9315 79.8659 88.348 79.4827C88.7645 79.0996 89.3071 78.8825 89.8729 78.8728H148.945C149.211 78.8684 149.475 78.9207 149.719 79.0262C149.963 79.1317 150.182 79.288 150.361 79.4847C150.54 79.6814 150.675 79.9139 150.757 80.1668C150.839 80.4198 150.866 80.6873 150.837 80.9516L148.119 112.037C148.062 112.601 147.799 113.125 147.382 113.508C146.964 113.891 146.42 114.108 145.853 114.116Z" fill="white"/>
<path d="M103.017 120.611H84.6176C84.5531 120.612 84.4891 120.6 84.4298 120.574C84.3705 120.549 84.3174 120.511 84.274 120.463C84.2306 120.415 84.1978 120.359 84.178 120.298C84.1583 120.236 84.1518 120.171 84.1592 120.107C84.1719 119.969 84.2349 119.841 84.3361 119.747C84.4374 119.653 84.5698 119.6 84.708 119.597H103.108C103.173 119.596 103.237 119.608 103.297 119.634C103.357 119.66 103.41 119.698 103.454 119.747C103.497 119.795 103.53 119.853 103.549 119.915C103.569 119.977 103.574 120.043 103.566 120.107C103.552 120.244 103.488 120.37 103.387 120.463C103.286 120.556 103.154 120.608 103.017 120.611Z" fill="white"/>
<path d="M126.014 120.611H106.265C106.2 120.613 106.135 120.601 106.075 120.576C106.015 120.551 105.961 120.513 105.917 120.466C105.873 120.418 105.839 120.361 105.819 120.299C105.799 120.237 105.792 120.172 105.8 120.107C105.813 119.969 105.876 119.841 105.977 119.747C106.078 119.653 106.21 119.6 106.349 119.597H126.104C126.169 119.596 126.234 119.608 126.293 119.634C126.353 119.66 126.407 119.698 126.45 119.747C126.494 119.795 126.526 119.853 126.546 119.915C126.565 119.977 126.571 120.043 126.562 120.107C126.548 120.244 126.485 120.37 126.383 120.463C126.282 120.556 126.151 120.608 126.014 120.611Z" fill="white"/>
<path d="M96.6508 125.098H84.2295C84.1641 125.099 84.0993 125.086 84.0392 125.061C83.9792 125.035 83.9253 124.996 83.8813 124.948C83.8373 124.9 83.8041 124.843 83.784 124.78C83.7639 124.718 83.7573 124.653 83.7646 124.588C83.7787 124.45 83.8421 124.323 83.9431 124.229C84.044 124.135 84.1756 124.082 84.3134 124.078H96.7605C96.8256 124.077 96.89 124.091 96.9495 124.117C97.0091 124.143 97.0625 124.181 97.1063 124.229C97.1501 124.277 97.1834 124.334 97.2039 124.396C97.2244 124.458 97.2317 124.523 97.2254 124.588C97.2109 124.729 97.1438 124.86 97.0374 124.954C96.931 125.049 96.793 125.1 96.6508 125.098Z" fill="white"/>
<path d="M120.307 125.098H99.9189C99.8536 125.099 99.7887 125.086 99.7287 125.061C99.6686 125.035 99.6148 124.996 99.5708 124.948C99.5267 124.9 99.4936 124.843 99.4734 124.78C99.4533 124.718 99.4467 124.653 99.4541 124.588C99.4683 124.449 99.5326 124.321 99.6349 124.227C99.7372 124.133 99.8704 124.08 100.009 124.078H120.391C120.456 124.076 120.521 124.089 120.581 124.115C120.641 124.14 120.695 124.179 120.739 124.227C120.783 124.275 120.816 124.333 120.836 124.395C120.856 124.457 120.863 124.523 120.856 124.588C120.843 124.725 120.78 124.853 120.679 124.947C120.578 125.042 120.445 125.095 120.307 125.098Z" fill="white"/>
<path d="M117.014 129.578H83.837C83.7719 129.58 83.7072 129.569 83.6471 129.544C83.5871 129.518 83.5331 129.481 83.489 129.433C83.4449 129.385 83.4116 129.328 83.3914 129.266C83.3712 129.205 83.3647 129.139 83.3721 129.074C83.3863 128.936 83.4507 128.808 83.553 128.714C83.6553 128.62 83.7885 128.567 83.9273 128.564H117.105C117.17 128.564 117.234 128.577 117.294 128.604C117.353 128.63 117.407 128.668 117.45 128.716C117.494 128.764 117.527 128.821 117.548 128.883C117.568 128.944 117.576 129.01 117.569 129.074C117.554 129.212 117.489 129.338 117.387 129.431C117.285 129.523 117.152 129.576 117.014 129.578Z" fill="white"/>
<path d="M122.475 129.578H120.286C120.221 129.58 120.156 129.569 120.096 129.544C120.036 129.518 119.982 129.481 119.938 129.433C119.894 129.385 119.861 129.328 119.841 129.266C119.82 129.205 119.814 129.139 119.821 129.074C119.834 128.937 119.897 128.809 119.998 128.715C120.1 128.62 120.232 128.567 120.37 128.564H122.565C122.63 128.563 122.695 128.576 122.755 128.601C122.814 128.627 122.868 128.666 122.911 128.714C122.955 128.763 122.988 128.82 123.007 128.882C123.026 128.944 123.032 129.01 123.024 129.074C123.009 129.211 122.946 129.338 122.845 129.43C122.744 129.523 122.612 129.576 122.475 129.578Z" fill="white"/>
<path d="M98.9301 134.065H83.4358C83.3707 134.065 83.3064 134.052 83.2468 134.026C83.1873 134 83.1338 133.961 83.09 133.913C83.0462 133.865 83.013 133.808 82.9925 133.747C82.972 133.685 82.9646 133.62 82.971 133.555C82.9851 133.417 83.0495 133.289 83.1518 133.195C83.2541 133.101 83.3873 133.047 83.5262 133.045H99.0205C99.0859 133.044 99.1507 133.056 99.2108 133.082C99.2708 133.108 99.3247 133.146 99.3687 133.194C99.4127 133.243 99.4459 133.3 99.466 133.362C99.4861 133.424 99.4927 133.49 99.4854 133.555C99.4712 133.693 99.4069 133.821 99.3045 133.915C99.2022 134.009 99.069 134.063 98.9301 134.065Z" fill="white"/>
<path d="M121.468 134.065H102.178C102.113 134.065 102.049 134.052 101.989 134.026C101.929 134 101.876 133.961 101.832 133.913C101.788 133.865 101.755 133.808 101.735 133.747C101.714 133.685 101.707 133.62 101.713 133.555C101.727 133.417 101.792 133.289 101.894 133.195C101.996 133.101 102.129 133.047 102.268 133.045H121.552C121.618 133.044 121.683 133.056 121.743 133.082C121.803 133.108 121.857 133.146 121.901 133.194C121.945 133.243 121.978 133.3 121.998 133.362C122.018 133.424 122.025 133.49 122.017 133.555C122.003 133.692 121.94 133.819 121.839 133.913C121.738 134.007 121.606 134.061 121.468 134.065Z" fill="white"/>
<path d="M102.126 138.545H83.0481C82.983 138.547 82.9183 138.534 82.8585 138.508C82.7988 138.483 82.7453 138.444 82.7017 138.396C82.6582 138.347 82.6257 138.29 82.6063 138.228C82.587 138.166 82.5813 138.1 82.5897 138.035C82.6039 137.899 82.6675 137.772 82.7686 137.68C82.8697 137.587 83.0013 137.534 83.1385 137.532H102.209C102.274 137.53 102.339 137.541 102.399 137.566C102.459 137.591 102.513 137.629 102.557 137.677C102.602 137.725 102.635 137.782 102.655 137.843C102.675 137.905 102.682 137.971 102.674 138.035C102.662 138.173 102.599 138.301 102.497 138.395C102.396 138.489 102.264 138.543 102.126 138.545Z" fill="white"/>
<path d="M120.732 138.545H105.366C105.301 138.547 105.237 138.534 105.177 138.508C105.117 138.483 105.064 138.444 105.02 138.396C104.977 138.347 104.944 138.29 104.925 138.228C104.905 138.166 104.9 138.1 104.908 138.035C104.922 137.899 104.986 137.772 105.087 137.68C105.188 137.587 105.32 137.534 105.457 137.532H120.822C120.887 137.53 120.952 137.541 121.012 137.566C121.072 137.591 121.126 137.629 121.17 137.677C121.214 137.725 121.247 137.782 121.268 137.843C121.288 137.905 121.294 137.971 121.287 138.035C121.273 138.174 121.208 138.302 121.106 138.396C121.004 138.49 120.871 138.543 120.732 138.545Z" fill="white"/>
<path d="M149.035 66.5999C148.979 66.6644 148.91 66.7171 148.834 66.7549C148.757 66.7928 148.674 66.8151 148.588 66.8205C148.503 66.8259 148.418 66.8143 148.337 66.7864C148.256 66.7585 148.182 66.7149 148.118 66.658L121.694 41.4409C121.573 41.32 121.506 41.1563 121.506 40.9858C121.506 40.8152 121.573 40.6516 121.694 40.5306C121.75 40.4662 121.818 40.4135 121.895 40.3756C121.971 40.3378 122.055 40.3155 122.14 40.3101C122.225 40.3047 122.311 40.3162 122.391 40.3441C122.472 40.372 122.547 40.4157 122.61 40.4725L149.035 65.6896C149.155 65.8106 149.222 65.9742 149.222 66.1448C149.222 66.3153 149.155 66.479 149.035 66.5999Z" fill="#FF6C37"/>
<path d="M119.358 66.5935C119.305 66.5249 119.267 66.4464 119.245 66.3628C119.224 66.2791 119.219 66.1919 119.232 66.1064C119.244 66.0209 119.274 65.9389 119.319 65.8651C119.364 65.7912 119.423 65.7272 119.493 65.6767L132.973 54.6564C133.102 54.5455 133.268 54.4895 133.437 54.5004C133.606 54.5112 133.764 54.5881 133.877 54.7145C133.929 54.7829 133.966 54.8609 133.987 54.9439C134.008 55.0269 134.013 55.1133 134 55.198C133.987 55.2828 133.958 55.3641 133.914 55.4374C133.869 55.5107 133.811 55.5744 133.742 55.6248L120.262 66.6516C120.133 66.7625 119.967 66.8185 119.798 66.8076C119.629 66.7968 119.471 66.7199 119.358 66.5935Z" fill="#FF6C37"/>
<path d="M136.774 52.3451C136.723 52.2767 136.686 52.1987 136.664 52.1157C136.643 52.0327 136.639 51.9463 136.652 51.8616C136.664 51.7768 136.694 51.6955 136.738 51.6222C136.782 51.549 136.841 51.4853 136.91 51.4348L150.416 40.3951C150.544 40.2842 150.711 40.2282 150.88 40.2391C151.049 40.2499 151.207 40.3268 151.32 40.4532C151.371 40.5216 151.409 40.5996 151.43 40.6826C151.451 40.7656 151.455 40.852 151.443 40.9367C151.43 41.0215 151.401 41.1028 151.356 41.1761C151.312 41.2494 151.253 41.3131 151.184 41.3635L137.678 52.4032C137.55 52.5141 137.384 52.5701 137.214 52.5593C137.045 52.5484 136.887 52.4715 136.774 52.3451Z" fill="#FF6C37"/>
<g opacity="0.7">
<path d="M149.035 66.5999C148.979 66.6644 148.91 66.7171 148.834 66.7549C148.757 66.7928 148.674 66.8151 148.588 66.8205C148.503 66.8259 148.418 66.8143 148.337 66.7864C148.256 66.7585 148.182 66.7149 148.118 66.658L121.694 41.4409C121.573 41.32 121.506 41.1563 121.506 40.9858C121.506 40.8152 121.573 40.6516 121.694 40.5306C121.75 40.4662 121.818 40.4135 121.895 40.3756C121.971 40.3378 122.055 40.3155 122.14 40.3101C122.225 40.3047 122.311 40.3162 122.391 40.3441C122.472 40.372 122.547 40.4157 122.61 40.4725L149.035 65.6896C149.155 65.8106 149.222 65.9742 149.222 66.1448C149.222 66.3153 149.155 66.479 149.035 66.5999Z" fill="white"/>
</g>
<g opacity="0.7">
<path d="M119.358 66.5935C119.305 66.5249 119.267 66.4464 119.245 66.3628C119.224 66.2791 119.219 66.1919 119.232 66.1064C119.244 66.0209 119.274 65.9389 119.319 65.8651C119.364 65.7912 119.423 65.7272 119.493 65.6767L132.973 54.6564C133.102 54.5455 133.268 54.4895 133.437 54.5004C133.606 54.5112 133.764 54.5881 133.877 54.7145C133.929 54.7829 133.966 54.8609 133.987 54.9439C134.008 55.0269 134.013 55.1133 134 55.198C133.987 55.2828 133.958 55.3641 133.914 55.4374C133.869 55.5107 133.811 55.5744 133.742 55.6248L120.262 66.6516C120.133 66.7625 119.967 66.8185 119.798 66.8076C119.629 66.7968 119.471 66.7199 119.358 66.5935Z" fill="white"/>
</g>
<g opacity="0.7">
<path d="M136.774 52.3451C136.723 52.2767 136.686 52.1987 136.664 52.1157C136.643 52.0327 136.639 51.9463 136.652 51.8616C136.664 51.7768 136.694 51.6955 136.738 51.6222C136.782 51.549 136.841 51.4853 136.91 51.4348L150.416 40.3951C150.544 40.2842 150.711 40.2282 150.88 40.2391C151.049 40.2499 151.207 40.3268 151.32 40.4532C151.371 40.5216 151.409 40.5996 151.43 40.6826C151.451 40.7656 151.455 40.852 151.443 40.9367C151.43 41.0215 151.401 41.1028 151.356 41.1761C151.312 41.2494 151.253 41.3131 151.184 41.3635L137.678 52.4032C137.55 52.5141 137.384 52.5701 137.214 52.5593C137.045 52.5484 136.887 52.4715 136.774 52.3451Z" fill="white"/>
</g>
<path d="M73.8885 0.59396H65.4957C64.6829 0.597375 63.9046 0.922653 63.3311 1.49859C62.7575 2.07453 62.4355 2.85422 62.4355 3.66701V12.0598C62.4355 12.8748 62.7593 13.6565 63.3356 14.2328C63.9119 14.8091 64.6936 15.1328 65.5086 15.1328H73.9014C74.7164 15.1328 75.498 14.8091 76.0743 14.2328C76.6507 13.6565 76.9744 12.8748 76.9744 12.0598V3.66701C76.9744 3.26236 76.8945 2.8617 76.7393 2.48802C76.584 2.11433 76.3565 1.77499 76.0698 1.48946C75.7831 1.20393 75.4428 0.977843 75.0684 0.82417C74.6941 0.670496 74.2931 0.59226 73.8885 0.59396ZM69.7114 3.56372C70.9704 3.56372 71.6482 4.59022 71.6482 5.84914C71.6482 7.10806 70.9704 8.13455 69.7114 8.13455C68.4525 8.13455 67.7746 7.11451 67.7746 5.84914C67.7746 4.58376 68.4461 3.56372 69.7114 3.56372ZM74.7536 12.1308H64.6629C64.6221 12.1309 64.5818 12.123 64.5441 12.1075C64.5065 12.092 64.4722 12.0692 64.4434 12.0404L65.089 10.2779C65.2904 9.72213 65.6581 9.24181 66.1421 8.90223C66.626 8.56265 67.2028 8.38028 67.794 8.37988H71.6095C72.2016 8.37988 72.7794 8.562 73.2644 8.90155C73.7495 9.24109 74.1184 9.72161 74.321 10.2779L74.9666 12.0404C74.939 12.069 74.9059 12.0917 74.8693 12.1072C74.8327 12.1227 74.7933 12.1308 74.7536 12.1308Z" fill="#407BFF"/>
<path opacity="0.7" d="M73.8885 0.59396H65.4957C64.6829 0.597375 63.9046 0.922653 63.3311 1.49859C62.7575 2.07453 62.4355 2.85422 62.4355 3.66701V12.0598C62.4355 12.8748 62.7593 13.6565 63.3356 14.2328C63.9119 14.8091 64.6936 15.1328 65.5086 15.1328H73.9014C74.7164 15.1328 75.498 14.8091 76.0743 14.2328C76.6507 13.6565 76.9744 12.8748 76.9744 12.0598V3.66701C76.9744 3.26236 76.8945 2.8617 76.7393 2.48802C76.584 2.11433 76.3565 1.77499 76.0698 1.48946C75.7831 1.20393 75.4428 0.977843 75.0684 0.82417C74.6941 0.670496 74.2931 0.59226 73.8885 0.59396ZM69.7114 3.56372C70.9704 3.56372 71.6482 4.59022 71.6482 5.84914C71.6482 7.10806 70.9704 8.13455 69.7114 8.13455C68.4525 8.13455 67.7746 7.11451 67.7746 5.84914C67.7746 4.58376 68.4461 3.56372 69.7114 3.56372ZM74.7536 12.1308H64.6629C64.6221 12.1309 64.5818 12.123 64.5441 12.1075C64.5065 12.092 64.4722 12.0692 64.4434 12.0404L65.089 10.2779C65.2904 9.72213 65.6581 9.24181 66.1421 8.90223C66.626 8.56265 67.2028 8.38028 67.794 8.37988H71.6095C72.2016 8.37988 72.7794 8.562 73.2644 8.90155C73.7495 9.24109 74.1184 9.72161 74.321 10.2779L74.9666 12.0404C74.939 12.069 74.9059 12.0917 74.8693 12.1072C74.8327 12.1227 74.7933 12.1308 74.7536 12.1308Z" fill="white"/>
<path d="M44.1394 34.9915H37.7867C37.2436 34.9906 36.7056 35.0969 36.2036 35.3041C35.7015 35.5114 35.2453 35.8156 34.8609 36.1994C34.4765 36.5831 34.1716 37.0389 33.9636 37.5406C33.7555 38.0423 33.6484 38.5802 33.6484 39.1233V45.476C33.6484 46.5735 34.0844 47.6261 34.8605 48.4022C35.6366 49.1783 36.6892 49.6143 37.7867 49.6143H44.1394C44.6826 49.6143 45.2204 49.5072 45.7221 49.2991C46.2238 49.0911 46.6796 48.7862 47.0633 48.4018C47.4471 48.0174 47.7513 47.5612 47.9586 47.0591C48.1658 46.5571 48.2721 46.0191 48.2712 45.476V39.1233C48.2721 38.5805 48.1658 38.0428 47.9585 37.5411C47.7511 37.0394 47.4468 36.5836 47.063 36.1998C46.6791 35.8159 46.2233 35.5116 45.7216 35.3043C45.2199 35.0969 44.6823 34.9906 44.1394 34.9915ZM40.9631 45.7665C40.9631 45.7665 38.3807 42.9323 38.3807 41.4862C38.3807 40.7936 38.6558 40.1294 39.1455 39.6396C39.6353 39.1499 40.2995 38.8747 40.9921 38.8747C41.6847 38.8747 42.349 39.1499 42.8387 39.6396C43.3284 40.1294 43.6036 40.7936 43.6036 41.4862C43.5713 42.9323 40.9631 45.7665 40.9631 45.7665Z" fill="#FF6C37"/>
<path d="M40.9625 40.2983C40.7257 40.297 40.4939 40.3661 40.2965 40.4969C40.0991 40.6276 39.9451 40.8141 39.8539 41.0326C39.7627 41.2511 39.7385 41.4918 39.7844 41.7241C39.8302 41.9564 39.9441 42.1698 40.1115 42.3372C40.279 42.5046 40.4924 42.6185 40.7246 42.6644C40.9569 42.7102 41.1976 42.686 41.4161 42.5948C41.6346 42.5036 41.8211 42.3496 41.9518 42.1522C42.0826 41.9548 42.1517 41.723 42.1504 41.4862C42.1504 41.1711 42.0253 40.869 41.8025 40.6462C41.5797 40.4235 41.2776 40.2983 40.9625 40.2983Z" fill="#FF6C37"/>
<g opacity="0.7">
<path d="M44.1394 34.9915H37.7867C37.2436 34.9906 36.7056 35.0969 36.2036 35.3041C35.7015 35.5114 35.2453 35.8156 34.8609 36.1994C34.4765 36.5831 34.1716 37.0389 33.9636 37.5406C33.7555 38.0423 33.6484 38.5802 33.6484 39.1233V45.476C33.6484 46.5735 34.0844 47.6261 34.8605 48.4022C35.6366 49.1783 36.6892 49.6143 37.7867 49.6143H44.1394C44.6826 49.6143 45.2204 49.5072 45.7221 49.2991C46.2238 49.0911 46.6796 48.7862 47.0633 48.4018C47.4471 48.0174 47.7513 47.5612 47.9586 47.0591C48.1658 46.5571 48.2721 46.0191 48.2712 45.476V39.1233C48.2721 38.5805 48.1658 38.0428 47.9585 37.5411C47.7511 37.0394 47.4468 36.5836 47.063 36.1998C46.6791 35.8159 46.2233 35.5116 45.7216 35.3043C45.2199 35.0969 44.6823 34.9906 44.1394 34.9915ZM40.9631 45.7665C40.9631 45.7665 38.3807 42.9323 38.3807 41.4862C38.3807 40.7936 38.6558 40.1294 39.1455 39.6396C39.6353 39.1499 40.2995 38.8747 40.9921 38.8747C41.6847 38.8747 42.349 39.1499 42.8387 39.6396C43.3284 40.1294 43.6036 40.7936 43.6036 41.4862C43.5713 42.9323 40.9631 45.7665 40.9631 45.7665Z" fill="white"/>
<path d="M40.9625 40.2983C40.7257 40.297 40.4939 40.3661 40.2965 40.4969C40.0991 40.6276 39.9451 40.8141 39.8539 41.0326C39.7627 41.2511 39.7385 41.4918 39.7844 41.7241C39.8302 41.9564 39.9441 42.1698 40.1115 42.3372C40.279 42.5046 40.4924 42.6185 40.7246 42.6644C40.9569 42.7102 41.1976 42.686 41.4161 42.5948C41.6346 42.5036 41.8211 42.3496 41.9518 42.1522C42.0826 41.9548 42.1517 41.723 42.1504 41.4862C42.1504 41.1711 42.0253 40.869 41.8025 40.6462C41.5797 40.4235 41.2776 40.2983 40.9625 40.2983Z" fill="white"/>
</g>
<path d="M183.615 16.9857L187.87 14.2355L183.615 11.4788V16.9857Z" fill="#407BFF"/>
<path d="M189.096 6.72718H180.987C180.071 6.72718 179.193 7.09108 178.545 7.73882C177.897 8.38656 177.533 9.26509 177.533 10.1811V18.2899C177.535 19.2054 177.899 20.0829 178.547 20.7303C179.194 21.3777 180.072 21.7421 180.987 21.7438H189.096C190.012 21.7438 190.89 21.3799 191.538 20.7322C192.186 20.0844 192.55 19.2059 192.55 18.2899V10.1811C192.551 9.72732 192.462 9.27779 192.289 8.85836C192.115 8.43892 191.861 8.05782 191.54 7.73692C191.219 7.41602 190.838 7.16164 190.419 6.98836C189.999 6.81509 189.55 6.72633 189.096 6.72718ZM185.042 19.6392C183.973 19.6391 182.928 19.3221 182.039 18.728C181.15 18.134 180.457 17.2897 180.049 16.3019C179.64 15.3141 179.533 14.2273 179.742 13.1789C179.951 12.1305 180.466 11.1677 181.223 10.4122C181.979 9.65678 182.943 9.14265 183.991 8.93488C185.04 8.72711 186.127 8.83504 187.114 9.24502C188.101 9.655 188.945 10.3486 189.538 11.2381C190.131 12.1276 190.446 13.1729 190.445 14.2419C190.444 14.9507 190.304 15.6524 190.032 16.3069C189.76 16.9614 189.362 17.5559 188.86 18.0565C188.358 18.557 187.763 18.9539 187.107 19.2243C186.452 19.4948 185.75 19.6335 185.042 19.6327V19.6392Z" fill="#407BFF"/>
<g opacity="0.7">
<path d="M183.615 16.9857L187.87 14.2354L183.615 11.4787V16.9857Z" fill="white"/>
<path d="M189.096 6.72712H180.987C180.071 6.72712 179.193 7.09102 178.545 7.73876C177.897 8.3865 177.533 9.26503 177.533 10.1811V18.2898C177.535 19.2053 177.899 20.0828 178.547 20.7302C179.194 21.3776 180.072 21.742 180.987 21.7437H189.096C190.012 21.7437 190.89 21.3798 191.538 20.7321C192.186 20.0844 192.55 19.2058 192.55 18.2898V10.1811C192.551 9.72726 192.462 9.27773 192.289 8.85829C192.115 8.43886 191.861 8.05776 191.54 7.73686C191.219 7.41596 190.838 7.16158 190.419 6.9883C189.999 6.81503 189.55 6.72627 189.096 6.72712ZM185.042 19.6391C183.973 19.6391 182.928 19.322 182.039 18.728C181.15 18.1339 180.457 17.2896 180.049 16.3018C179.64 15.3141 179.533 14.2272 179.742 13.1789C179.951 12.1305 180.466 11.1676 181.223 10.4122C181.979 9.65672 182.943 9.14259 183.991 8.93482C185.04 8.72705 186.127 8.83498 187.114 9.24496C188.101 9.65494 188.945 10.3485 189.538 11.238C190.131 12.1275 190.446 13.1729 190.445 14.2419C190.444 14.9507 190.304 15.6523 190.032 16.3068C189.76 16.9613 189.362 17.5558 188.86 18.0564C188.358 18.557 187.763 18.9538 187.107 19.2243C186.452 19.4947 185.75 19.6335 185.042 19.6326V19.6391Z" fill="white"/>
</g>
<path d="M197.057 37.8256C197.057 37.6578 197.057 37.4899 197.057 37.3285L198.031 36.7862C197.96 36.3246 197.839 35.8721 197.67 35.4369H196.559C196.418 35.1338 196.25 34.8443 196.056 34.5718L196.63 33.6228C196.336 33.2585 196.005 32.9253 195.643 32.6286L194.687 33.2031C194.416 33.0128 194.129 32.8465 193.829 32.706V31.5891C193.392 31.4241 192.94 31.303 192.479 31.2276L191.937 32.2025C191.776 32.2025 191.608 32.2025 191.44 32.2025C191.272 32.2025 191.111 32.2025 190.943 32.2025L190.4 31.2276C189.94 31.3046 189.488 31.4257 189.051 31.5891V32.706C188.75 32.845 188.463 33.0115 188.192 33.2031L187.237 32.6286C186.871 32.9235 186.538 33.2568 186.243 33.6228L186.817 34.5718C186.628 34.8459 186.462 35.1353 186.32 35.4369H185.21C185.041 35.8729 184.918 36.325 184.842 36.7862L185.817 37.3285C185.817 37.4899 185.817 37.6578 185.817 37.8256C185.817 37.9935 185.817 38.1613 185.817 38.3227L184.842 38.865C184.917 39.3264 185.04 39.7786 185.21 40.2143H186.32C186.462 40.516 186.628 40.8053 186.817 41.0794L186.243 42.0349C186.539 42.3973 186.873 42.7283 187.237 43.0227L188.192 42.4481C188.461 42.6421 188.749 42.8087 189.051 42.9452V44.0621C189.487 44.2285 189.939 44.3496 190.4 44.4236L190.943 43.4488C191.111 43.4488 191.272 43.4488 191.44 43.4488C191.608 43.4488 191.776 43.4488 191.937 43.4488L192.479 44.4236C192.941 44.3513 193.393 44.2301 193.829 44.0621V42.9452C194.13 42.8072 194.417 42.6408 194.687 42.4481L195.643 43.0227C196.003 42.7265 196.334 42.3957 196.63 42.0349L196.056 41.0794C196.25 40.807 196.418 40.5174 196.559 40.2143H197.67C197.84 39.7794 197.961 39.3268 198.031 38.865L197.057 38.3227C197.044 38.142 197.057 37.9935 197.057 37.8256ZM191.427 41.6476C190.671 41.6476 189.932 41.4234 189.304 41.0034C188.675 40.5835 188.185 39.9866 187.896 39.2882C187.607 38.5898 187.531 37.8214 187.678 37.08C187.826 36.3386 188.19 35.6576 188.724 35.1231C189.259 34.5886 189.94 34.2246 190.681 34.0771C191.423 33.9296 192.191 34.0053 192.889 34.2946C193.588 34.5839 194.185 35.0737 194.605 35.7023C195.025 36.3308 195.249 37.0697 195.249 37.8256C195.249 38.8393 194.846 39.8114 194.129 40.5281C193.413 41.2449 192.441 41.6476 191.427 41.6476Z" fill="#FF6C37"/>
<path opacity="0.7" d="M197.057 37.8256C197.057 37.6578 197.057 37.4899 197.057 37.3285L198.031 36.7862C197.96 36.3246 197.839 35.8721 197.67 35.4369H196.559C196.418 35.1338 196.25 34.8443 196.056 34.5718L196.63 33.6228C196.336 33.2585 196.005 32.9253 195.643 32.6286L194.687 33.2031C194.416 33.0128 194.129 32.8465 193.829 32.706V31.5891C193.392 31.4241 192.94 31.303 192.479 31.2276L191.937 32.2025C191.776 32.2025 191.608 32.2025 191.44 32.2025C191.272 32.2025 191.111 32.2025 190.943 32.2025L190.4 31.2276C189.94 31.3046 189.488 31.4257 189.051 31.5891V32.706C188.75 32.845 188.463 33.0115 188.192 33.2031L187.237 32.6286C186.871 32.9235 186.538 33.2568 186.243 33.6228L186.817 34.5718C186.628 34.8459 186.462 35.1353 186.32 35.4369H185.21C185.041 35.8729 184.918 36.325 184.842 36.7862L185.817 37.3285C185.817 37.4899 185.817 37.6578 185.817 37.8256C185.817 37.9935 185.817 38.1613 185.817 38.3227L184.842 38.865C184.917 39.3264 185.04 39.7786 185.21 40.2143H186.32C186.462 40.516 186.628 40.8053 186.817 41.0794L186.243 42.0349C186.539 42.3973 186.873 42.7283 187.237 43.0227L188.192 42.4481C188.461 42.6421 188.749 42.8087 189.051 42.9452V44.0621C189.487 44.2285 189.939 44.3496 190.4 44.4236L190.943 43.4488C191.111 43.4488 191.272 43.4488 191.44 43.4488C191.608 43.4488 191.776 43.4488 191.937 43.4488L192.479 44.4236C192.941 44.3513 193.393 44.2301 193.829 44.0621V42.9452C194.13 42.8072 194.417 42.6408 194.687 42.4481L195.643 43.0227C196.003 42.7265 196.334 42.3957 196.63 42.0349L196.056 41.0794C196.25 40.807 196.418 40.5174 196.559 40.2143H197.67C197.84 39.7794 197.961 39.3268 198.031 38.865L197.057 38.3227C197.044 38.142 197.057 37.9935 197.057 37.8256ZM191.427 41.6476C190.671 41.6476 189.932 41.4234 189.304 41.0034C188.675 40.5835 188.185 39.9866 187.896 39.2882C187.607 38.5898 187.531 37.8214 187.678 37.08C187.826 36.3386 188.19 35.6576 188.724 35.1231C189.259 34.5886 189.94 34.2246 190.681 34.0771C191.423 33.9296 192.191 34.0053 192.889 34.2946C193.588 34.5839 194.185 35.0737 194.605 35.7023C195.025 36.3308 195.249 37.0697 195.249 37.8256C195.249 38.8393 194.846 39.8114 194.129 40.5281C193.413 41.2449 192.441 41.6476 191.427 41.6476Z" fill="white"/>
<path d="M182.343 57.0193C182.343 56.7675 182.343 56.5222 182.311 56.2768L183.77 55.4698C183.66 54.7771 183.478 54.0977 183.227 53.4427L181.562 53.4749C181.351 53.0229 181.101 52.5908 180.813 52.1837L181.671 50.757C181.232 50.2139 180.736 49.7183 180.193 49.2786L178.766 50.1307C178.358 49.8473 177.926 49.5989 177.475 49.3883V47.7227C176.823 47.4711 176.145 47.2893 175.454 47.1804L174.647 48.6394C174.402 48.6394 174.157 48.6394 173.905 48.6394C173.653 48.6394 173.408 48.6394 173.162 48.6394L172.375 47.1804C171.684 47.2909 171.007 47.4727 170.354 47.7227V49.3883C169.903 49.5986 169.471 49.847 169.063 50.1307L167.668 49.2786C167.123 49.7183 166.626 50.2137 166.184 50.757L167.042 52.1837C166.756 52.5909 166.508 53.0231 166.3 53.4749L164.634 53.4427C164.38 54.0968 164.199 54.7765 164.092 55.4698L165.551 56.2768C165.499 56.7705 165.499 57.2681 165.551 57.7617L164.092 58.5752C164.199 59.2663 164.381 59.9438 164.634 60.5959L166.3 60.5636C166.506 61.0162 166.755 61.4485 167.042 61.8548L166.184 63.2816C166.626 63.8248 167.123 64.3203 167.668 64.76L169.095 63.9078C169.502 64.194 169.934 64.4425 170.386 64.6503V66.3159C171.038 66.5689 171.716 66.7507 172.407 66.8582L173.221 65.3992C173.714 65.4508 174.212 65.4508 174.705 65.3992L175.512 66.8582C176.204 66.7523 176.882 66.5704 177.533 66.3159V64.6503C177.985 64.4421 178.417 64.1937 178.824 63.9078L180.251 64.76C180.794 64.3202 181.29 63.8247 181.73 63.2816L180.871 61.8548C181.16 61.4487 181.411 61.0164 181.62 60.5636L183.285 60.5959C183.535 59.9428 183.717 59.2656 183.828 58.5752L182.369 57.7617C182.33 57.5099 182.343 57.2711 182.343 57.0193ZM173.95 60.3377C173.294 60.3377 172.652 60.143 172.106 59.7784C171.561 59.4138 171.135 58.8955 170.884 58.2892C170.633 57.6828 170.567 57.0156 170.695 56.3719C170.824 55.7282 171.14 55.1369 171.604 54.6728C172.068 54.2088 172.659 53.8927 173.303 53.7647C173.946 53.6366 174.614 53.7023 175.22 53.9535C175.826 54.2047 176.345 54.63 176.709 55.1757C177.074 55.7214 177.268 56.363 177.268 57.0193C177.268 57.4567 177.182 57.8898 177.014 58.2937C176.846 58.6975 176.6 59.0642 176.29 59.3726C175.98 59.681 175.611 59.925 175.207 60.0906C174.802 60.2563 174.368 60.3402 173.931 60.3377H173.95Z" fill="#407BFF"/>
<path opacity="0.7" d="M182.343 57.0193C182.343 56.7675 182.343 56.5222 182.311 56.2768L183.77 55.4698C183.66 54.7771 183.478 54.0977 183.227 53.4427L181.562 53.4749C181.351 53.0229 181.101 52.5908 180.813 52.1837L181.671 50.757C181.232 50.2139 180.736 49.7183 180.193 49.2786L178.766 50.1307C178.358 49.8473 177.926 49.5989 177.475 49.3883V47.7227C176.823 47.4711 176.145 47.2893 175.454 47.1804L174.647 48.6394C174.402 48.6394 174.157 48.6394 173.905 48.6394C173.653 48.6394 173.408 48.6394 173.162 48.6394L172.375 47.1804C171.684 47.2909 171.007 47.4727 170.354 47.7227V49.3883C169.903 49.5986 169.471 49.847 169.063 50.1307L167.668 49.2786C167.123 49.7183 166.626 50.2137 166.184 50.757L167.042 52.1837C166.756 52.5909 166.508 53.0231 166.3 53.4749L164.634 53.4427C164.38 54.0968 164.199 54.7765 164.092 55.4698L165.551 56.2768C165.499 56.7705 165.499 57.2681 165.551 57.7617L164.092 58.5752C164.199 59.2663 164.381 59.9438 164.634 60.5959L166.3 60.5636C166.506 61.0162 166.755 61.4485 167.042 61.8548L166.184 63.2816C166.626 63.8248 167.123 64.3203 167.668 64.76L169.095 63.9078C169.502 64.194 169.934 64.4425 170.386 64.6503V66.3159C171.038 66.5689 171.716 66.7507 172.407 66.8582L173.221 65.3992C173.714 65.4508 174.212 65.4508 174.705 65.3992L175.512 66.8582C176.204 66.7523 176.882 66.5704 177.533 66.3159V64.6503C177.985 64.4421 178.417 64.1937 178.824 63.9078L180.251 64.76C180.794 64.3202 181.29 63.8247 181.73 63.2816L180.871 61.8548C181.16 61.4487 181.411 61.0164 181.62 60.5636L183.285 60.5959C183.535 59.9428 183.717 59.2656 183.828 58.5752L182.369 57.7617C182.33 57.5099 182.343 57.2711 182.343 57.0193ZM173.95 60.3377C173.294 60.3377 172.652 60.143 172.106 59.7784C171.561 59.4138 171.135 58.8955 170.884 58.2892C170.633 57.6828 170.567 57.0156 170.695 56.3719C170.824 55.7282 171.14 55.1369 171.604 54.6728C172.068 54.2088 172.659 53.8927 173.303 53.7647C173.946 53.6366 174.614 53.7023 175.22 53.9535C175.826 54.2047 176.345 54.63 176.709 55.1757C177.074 55.7214 177.268 56.363 177.268 57.0193C177.268 57.4567 177.182 57.8898 177.014 58.2937C176.846 58.6975 176.6 59.0642 176.29 59.3726C175.98 59.681 175.611 59.925 175.207 60.0906C174.802 60.2563 174.368 60.3402 173.931 60.3377H173.95Z" fill="white"/>
<path d="M158.631 19.5875V22.9704L155.403 24.6683C155.278 24.7357 155.173 24.8358 155.1 24.958C155.027 25.0802 154.988 25.2199 154.988 25.3624C154.988 25.5048 155.027 25.6445 155.1 25.7667C155.173 25.8889 155.278 25.989 155.403 26.0564L158.631 27.7543V31.1372C158.631 31.4985 158.775 31.845 159.03 32.1005C159.286 32.3559 159.632 32.4994 159.994 32.4994H171.543C171.905 32.4995 172.252 32.3561 172.509 32.1009C172.765 31.8456 172.91 31.4991 172.912 31.1372V19.5875C172.912 19.2245 172.768 18.8764 172.511 18.6197C172.255 18.363 171.906 18.2188 171.543 18.2188H159.974C159.615 18.2239 159.273 18.3706 159.021 18.6269C158.77 18.8832 158.63 19.2284 158.631 19.5875Z" fill="#FF6C37"/>
<g opacity="0.9">
<path d="M162.582 23.1124H169.148C169.362 23.1124 169.567 23.0274 169.719 22.876C169.87 22.7247 169.955 22.5194 169.955 22.3054C169.955 22.0914 169.87 21.8861 169.719 21.7348C169.567 21.5834 169.362 21.4984 169.148 21.4984H162.582C162.368 21.4984 162.163 21.5834 162.012 21.7348C161.86 21.8861 161.775 22.0914 161.775 22.3054C161.775 22.5194 161.86 22.7247 162.012 22.876C162.163 23.0274 162.368 23.1124 162.582 23.1124Z" fill="white"/>
<path d="M169.148 24.5844H162.582C162.368 24.5844 162.163 24.6694 162.012 24.8207C161.86 24.9721 161.775 25.1773 161.775 25.3913C161.775 25.6054 161.86 25.8106 162.012 25.962C162.163 26.1133 162.368 26.1983 162.582 26.1983H169.148C169.362 26.1983 169.567 26.1133 169.719 25.962C169.87 25.8106 169.955 25.6054 169.955 25.3913C169.955 25.1773 169.87 24.9721 169.719 24.8207C169.567 24.6694 169.362 24.5844 169.148 24.5844Z" fill="white"/>
<path d="M169.148 27.6122H162.582C162.368 27.6122 162.163 27.6973 162.012 27.8486C161.86 28 161.775 28.2052 161.775 28.4192C161.775 28.6333 161.86 28.8385 162.012 28.9899C162.163 29.1412 162.368 29.2262 162.582 29.2262H169.148C169.362 29.2262 169.567 29.1412 169.719 28.9899C169.87 28.8385 169.955 28.6333 169.955 28.4192C169.955 28.2052 169.87 28 169.719 27.8486C169.567 27.6973 169.362 27.6122 169.148 27.6122Z" fill="white"/>
</g>
<path d="M93.3615 14.2548H96.1182L97.5385 16.947C97.6321 17.1225 97.7717 17.2693 97.9423 17.3716C98.1128 17.474 98.308 17.528 98.5069 17.528C98.7058 17.528 98.901 17.474 99.0716 17.3716C99.2422 17.2693 99.3817 17.1225 99.4753 16.947L100.896 14.2548H103.652C103.914 14.2548 104.173 14.2032 104.415 14.1029C104.656 14.0025 104.876 13.8555 105.061 13.6701C105.245 13.4848 105.392 13.2649 105.491 13.0229C105.591 12.7809 105.642 12.5216 105.641 12.2599V1.98846C105.641 1.46109 105.431 0.95532 105.058 0.582415C104.685 0.209509 104.18 1.05493e-05 103.652 1.05493e-05H93.3615C93.1001 -0.000842199 92.8412 0.0500116 92.5995 0.149638C92.3579 0.249265 92.1384 0.395699 91.9536 0.580513C91.7687 0.765327 91.6223 0.984867 91.5227 1.2265C91.423 1.46814 91.3722 1.72709 91.3731 1.98846V12.318C91.3865 12.8364 91.6019 13.329 91.9734 13.6908C92.3449 14.0526 92.843 14.255 93.3615 14.2548Z" fill="#407BFF"/>
<path opacity="0.9" d="M98.5123 3.07953L95.3359 4.93885V10.3748H97.6988V6.72716H99.3322V10.3748H101.695V4.93885L98.5123 3.07953Z" fill="white"/>
<path d="M124.286 161.961H121.833L120.251 158.953C120.173 158.807 120.056 158.685 119.914 158.601C119.772 158.516 119.61 158.471 119.444 158.471C119.279 158.471 119.116 158.516 118.974 158.601C118.832 158.685 118.716 158.807 118.637 158.953L117.055 161.961H114.538C113.937 161.961 113.36 162.2 112.935 162.625C112.51 163.05 112.271 163.626 112.271 164.227V173.976C112.271 174.577 112.51 175.153 112.935 175.578C113.36 176.003 113.937 176.242 114.538 176.242H124.286C124.887 176.242 125.463 176.003 125.888 175.578C126.313 175.153 126.552 174.577 126.552 173.976V164.227C126.552 163.626 126.313 163.05 125.888 162.625C125.463 162.2 124.887 161.961 124.286 161.961Z" fill="#FF6C37"/>
<path opacity="0.9" d="M120.794 165.686C120.32 165.213 119.722 164.884 119.068 164.738C118.414 164.592 117.733 164.635 117.103 164.863C116.473 165.091 115.921 165.493 115.511 166.023C115.102 166.553 114.852 167.188 114.79 167.855C114.729 168.522 114.859 169.192 115.165 169.788C115.47 170.384 115.94 170.88 116.517 171.219C117.095 171.558 117.757 171.725 118.427 171.701C119.096 171.677 119.744 171.463 120.296 171.084C120.323 171.244 120.398 171.392 120.509 171.51L122.705 173.698C122.853 173.846 123.054 173.93 123.263 173.93C123.472 173.93 123.673 173.846 123.821 173.698C123.97 173.55 124.053 173.349 124.053 173.14C124.053 172.93 123.97 172.73 123.821 172.581L121.633 170.393C121.515 170.276 121.364 170.2 121.2 170.173C121.664 169.495 121.878 168.676 121.803 167.857C121.729 167.038 121.372 166.271 120.794 165.686ZM120.045 169.928C119.699 170.273 119.258 170.509 118.779 170.604C118.299 170.699 117.802 170.65 117.35 170.463C116.899 170.275 116.513 169.958 116.241 169.552C115.97 169.145 115.825 168.667 115.825 168.178C115.825 167.69 115.97 167.212 116.241 166.805C116.513 166.398 116.899 166.082 117.35 165.894C117.802 165.707 118.299 165.658 118.779 165.753C119.258 165.848 119.699 166.083 120.045 166.429C120.275 166.659 120.457 166.931 120.582 167.231C120.706 167.532 120.77 167.853 120.77 168.178C120.77 168.503 120.706 168.825 120.582 169.125C120.457 169.426 120.275 169.698 120.045 169.928Z" fill="white"/>
<path d="M228.542 97.0399C228.542 97.0399 223.28 110.081 218.129 111.488C212.977 112.896 205.217 111.753 205.217 111.753L202.815 112.399L200.459 112.05H200.375L197.721 111.986C197.625 111.994 197.529 111.974 197.445 111.929C197.36 111.884 197.289 111.816 197.242 111.733C197.194 111.649 197.172 111.554 197.176 111.458C197.181 111.362 197.214 111.27 197.269 111.191L198.218 109.9C198.298 109.794 198.408 109.715 198.535 109.674L201.065 108.861C201.165 108.839 201.269 108.839 201.369 108.861L205.242 109.474C205.242 109.474 215.992 107.712 217.089 106.717C218.187 105.723 221.421 95.2968 221.421 95.2968L228.542 97.0399Z" fill="#EEC1BB"/>
<path opacity="0.1" d="M205.481 109.39L205.229 109.429L201.355 108.816C201.255 108.793 201.152 108.793 201.052 108.816L198.521 109.629C198.395 109.67 198.284 109.749 198.205 109.855L197.256 111.146C197.2 111.224 197.168 111.317 197.163 111.413C197.158 111.509 197.181 111.604 197.228 111.688C197.276 111.771 197.346 111.839 197.431 111.884C197.516 111.929 197.612 111.948 197.708 111.94L200.361 112.005H200.445L202.027 112.237C203.376 111.557 204.556 110.585 205.481 109.39Z" fill="black"/>
<path d="M231.716 84.1215C227.894 82.869 222.516 85.7419 220.457 97.7759L228.391 100.119C228.391 100.119 237.178 85.9162 231.716 84.1215Z" fill="#407BFF"/>
<path d="M209.484 68.3947C209.484 68.795 209.697 69.1113 209.956 69.1113C210.214 69.1113 210.44 68.7691 210.421 68.3818C210.401 67.9944 210.207 67.6716 209.949 67.6781C209.691 67.6845 209.484 68.0009 209.484 68.3947Z" fill="#263238"/>
<path d="M211.045 68.7885L209.166 71.8938C209.166 71.8938 209.812 72.6298 211.225 72.0875L211.045 68.7885Z" fill="#D4827D"/>
<path d="M211.401 65.9026C211.378 65.9287 211.348 65.9484 211.316 65.9597C211.283 65.971 211.248 65.9736 211.213 65.9672C210.959 65.9236 210.698 65.9413 210.453 66.0188C210.207 66.0963 209.983 66.2313 209.8 66.4127C209.76 66.4494 209.708 66.4699 209.654 66.4699C209.6 66.4699 209.548 66.4494 209.509 66.4127C209.472 66.3722 209.451 66.3192 209.451 66.2642C209.451 66.2092 209.472 66.1562 209.509 66.1157C209.737 65.8824 210.018 65.7081 210.329 65.608C210.639 65.5079 210.97 65.4849 211.291 65.5411C211.318 65.5443 211.344 65.5529 211.368 65.5663C211.392 65.5798 211.413 65.5978 211.43 65.6195C211.447 65.6411 211.459 65.6659 211.466 65.6923C211.473 65.7188 211.475 65.7464 211.472 65.7735C211.462 65.8228 211.437 65.8679 211.401 65.9026Z" fill="#263238"/>
<path d="M224.673 65.5799C224.964 70.8286 225.203 73.0495 222.885 76.0321C219.186 79.2278 212.885 79.7379 211.025 74.6828C209.353 70.1636 209.159 62.3325 214.014 59.6275C214.838 59.1686 215.744 58.8766 216.68 58.7681C217.617 58.6596 218.565 58.7367 219.472 58.9952C220.378 59.2536 221.225 59.6882 221.964 60.2742C222.702 60.8601 223.318 61.5859 223.776 62.41C224.313 63.3843 224.62 64.4686 224.673 65.5799Z" fill="#EEC1BB"/>
<path d="M217.359 77.0651L218.689 84.8445L225.171 83.3467L222.905 75.4059L217.359 77.0651Z" fill="#EEC1BB"/>
<path d="M212.692 65.9673C213.021 62.5585 211.846 66.4966 210.271 61.9968C208.695 57.497 216.139 53.8429 217.327 54.6822C218.515 55.5215 217.837 56.8062 221.775 57.5357C222.85 57.7064 223.825 58.2626 224.519 59.1003C225.213 59.938 225.578 60.9999 225.545 62.0872C225.545 62.0872 227.812 63.1331 227.005 68.0009C226.412 71.1199 225.084 74.0525 223.131 76.5551C223.131 76.5551 221.64 75.0185 219.257 76.4324C218.328 75.8256 217.541 75.0237 216.953 74.0824C215.894 72.4943 215.565 70.9836 214.112 70.8544C211.078 70.5768 212.582 67.0906 212.692 65.9673Z" fill="#263238"/>
<path d="M225.125 62.6747C225.125 62.6747 228.353 60.6992 226.92 58.6268C225.487 56.5544 226.177 60.9122 225.125 62.6747Z" fill="#263238"/>
<path d="M213.615 67.9492C212.899 68.7496 212.529 69.8014 212.588 70.8738C212.678 72.2941 214.073 72.5459 215.17 71.7711C216.268 70.9964 217.307 69.4857 216.675 68.2397C216.534 67.9679 216.328 67.7356 216.074 67.5642C215.821 67.3929 215.529 67.2879 215.224 67.259C214.919 67.2301 214.612 67.2782 214.331 67.3987C214.05 67.5193 213.804 67.7086 213.615 67.9492Z" fill="#FFC3BD"/>
<path opacity="0.1" d="M217.482 77.8011L218.012 80.887C217.965 80.1229 218.07 79.357 218.321 78.6335C218.571 77.9101 218.962 77.2432 219.471 76.6713C219.075 76.6966 218.691 76.8115 218.347 77.0072C218.002 77.203 217.707 77.4744 217.482 77.8011Z" fill="black"/>
<path d="M171.91 97.8663H170.057V108.796H171.91V97.8663Z" fill="#407BFF"/>
<path opacity="0.7" d="M171.91 97.8663H170.057V108.796H171.91V97.8663Z" fill="white"/>
<path d="M159.177 76.1613H154.561C153.73 76.1613 152.934 76.4911 152.347 77.0783C151.76 77.6656 151.43 78.462 151.43 79.2924V100.681C151.43 101.092 151.511 101.499 151.668 101.879C151.825 102.259 152.056 102.604 152.347 102.895C152.638 103.186 152.983 103.417 153.363 103.574C153.742 103.731 154.15 103.812 154.561 103.812H159.177V76.1613Z" fill="#FF6C37"/>
<path d="M187.41 76.1613H156.176C154.447 76.1613 153.045 77.5631 153.045 79.2924V100.675C153.045 102.404 154.447 103.806 156.176 103.806H187.41C189.139 103.806 190.541 102.404 190.541 100.675V79.2924C190.541 77.5631 189.139 76.1613 187.41 76.1613Z" fill="#FF6C37"/>
<path opacity="0.5" d="M187.41 76.1613H156.176C154.447 76.1613 153.045 77.5631 153.045 79.2924V100.675C153.045 102.404 154.447 103.806 156.176 103.806H187.41C189.139 103.806 190.541 102.404 190.541 100.675V79.2924C190.541 77.5631 189.139 76.1613 187.41 76.1613Z" fill="white"/>
<path d="M187.41 77.4525H156.176C155.16 77.4525 154.336 78.2762 154.336 79.2924V100.675C154.336 101.691 155.16 102.515 156.176 102.515H187.41C188.426 102.515 189.25 101.691 189.25 100.675V79.2924C189.25 78.2762 188.426 77.4525 187.41 77.4525Z" fill="#263238"/>
<path d="M164.24 113.38C164.294 111.628 165.029 109.965 166.287 108.745C167.546 107.525 169.23 106.842 170.984 106.842C172.737 106.842 174.421 107.525 175.68 108.745C176.938 109.965 177.673 111.628 177.727 113.38H164.24Z" fill="#FF6C37"/>
<path d="M180.153 111.082H166.666V113.27H193.639V112.373L180.153 111.082Z" fill="#FF6C37"/>
<path opacity="0.8" d="M180.153 111.082H166.666V113.27H193.639V112.373L180.153 111.082Z" fill="white"/>
<path d="M180.153 113.27H166.666V111.082L180.153 112.373V113.27Z" fill="#FF6C37"/>
<path opacity="0.6" d="M180.153 113.27H166.666V111.082L180.153 112.373V113.27Z" fill="white"/>
<path d="M209.889 188.618H182.07C181.515 188.619 180.966 188.51 180.453 188.299C179.94 188.087 179.473 187.776 179.081 187.384C178.688 186.992 178.376 186.526 178.164 186.013C177.951 185.5 177.842 184.951 177.842 184.396V120.43C177.842 119.875 177.951 119.325 178.164 118.813C178.376 118.3 178.688 117.834 179.081 117.442C179.473 117.05 179.94 116.739 180.453 116.527C180.966 116.315 181.515 116.207 182.07 116.208H209.889C210.189 116.208 210.476 116.327 210.688 116.539C210.9 116.751 211.019 117.038 211.019 117.338C211.019 117.637 210.9 117.925 210.688 118.136C210.476 118.348 210.189 118.467 209.889 118.467H182.07C181.813 118.463 181.558 118.51 181.319 118.605C181.081 118.701 180.863 118.843 180.68 119.023C180.497 119.203 180.351 119.418 180.252 119.655C180.152 119.893 180.101 120.147 180.101 120.404V184.37C180.101 184.627 180.152 184.882 180.252 185.119C180.351 185.356 180.497 185.571 180.68 185.751C180.863 185.931 181.081 186.073 181.319 186.169C181.558 186.264 181.813 186.311 182.07 186.307H209.889C210.189 186.307 210.476 186.426 210.688 186.638C210.9 186.85 211.019 187.137 211.019 187.437C211.026 187.589 211.002 187.742 210.948 187.885C210.895 188.028 210.813 188.159 210.707 188.269C210.601 188.38 210.474 188.467 210.334 188.527C210.193 188.587 210.042 188.618 209.889 188.618Z" fill="#263238"/>
<g opacity="0.5">
<path d="M209.889 188.618H182.07C181.515 188.619 180.966 188.51 180.453 188.299C179.94 188.087 179.473 187.776 179.081 187.384C178.688 186.992 178.376 186.526 178.164 186.013C177.951 185.5 177.842 184.951 177.842 184.396V120.43C177.842 119.875 177.951 119.325 178.164 118.813C178.376 118.3 178.688 117.834 179.081 117.442C179.473 117.05 179.94 116.739 180.453 116.527C180.966 116.315 181.515 116.207 182.07 116.208H209.889C210.189 116.208 210.476 116.327 210.688 116.539C210.9 116.751 211.019 117.038 211.019 117.338C211.019 117.637 210.9 117.925 210.688 118.136C210.476 118.348 210.189 118.467 209.889 118.467H182.07C181.813 118.463 181.558 118.51 181.319 118.605C181.081 118.701 180.863 118.843 180.68 119.023C180.497 119.203 180.351 119.418 180.252 119.655C180.152 119.893 180.101 120.147 180.101 120.404V184.37C180.101 184.627 180.152 184.882 180.252 185.119C180.351 185.356 180.497 185.571 180.68 185.751C180.863 185.931 181.081 186.073 181.319 186.169C181.558 186.264 181.813 186.311 182.07 186.307H209.889C210.189 186.307 210.476 186.426 210.688 186.638C210.9 186.85 211.019 187.137 211.019 187.437C211.026 187.589 211.002 187.742 210.948 187.885C210.895 188.028 210.813 188.159 210.707 188.269C210.601 188.38 210.474 188.467 210.334 188.527C210.193 188.587 210.042 188.618 209.889 188.618Z" fill="white"/>
</g>
<path d="M181.961 113.27H142.457V116.582H181.961V113.27Z" fill="#407BFF"/>
<path opacity="0.2" d="M181.961 113.27H142.457V116.582H181.961V113.27Z" fill="white"/>
<path d="M213.846 113.27H180.152V116.582H213.846V113.27Z" fill="#407BFF"/>
<path opacity="0.5" d="M213.846 113.27H180.152V116.582H213.846V113.27Z" fill="white"/>
<path d="M202.033 165.151L203.899 184.015H199.431L194.957 165.641L202.033 165.151Z" fill="#EEC1BB"/>
<path d="M199.011 182.756L204.712 182.853C204.816 182.855 204.916 182.893 204.996 182.96C205.076 183.027 205.131 183.119 205.151 183.221L206.107 187.876C206.147 188.073 206.108 188.279 205.998 188.448C205.888 188.617 205.716 188.736 205.519 188.779H205.358C203.298 188.708 201.484 188.566 198.902 188.521C195.887 188.47 196.642 188.844 193.091 188.838C190.954 188.838 190.606 186.391 191.51 186.287C195.674 185.836 196.126 184.59 197.752 183.13C198.112 182.856 198.56 182.722 199.011 182.756Z" fill="#263238"/>
<path opacity="0.1" d="M203.414 179.089L202.033 165.151L194.957 165.641L198.23 179.089H203.414Z" fill="black"/>
<path d="M232.622 121.657L214.3 122.302C214.3 122.302 189.618 130.934 188.973 137.564C188.263 144.395 196.552 175.777 196.552 175.777H203.918C203.918 175.777 201.885 152.749 201.11 145.699C200.335 138.649 226.798 140.979 231.395 134.969C235.598 129.455 232.622 121.657 232.622 121.657Z" fill="#263238"/>
<path opacity="0.2" d="M232.622 121.657L214.3 122.302C214.3 122.302 189.618 130.934 188.973 137.564C188.263 144.395 196.552 175.777 196.552 175.777H203.918C203.918 175.777 201.885 152.749 201.11 145.699C200.335 138.649 226.798 140.979 231.395 134.969C235.598 129.455 232.622 121.657 232.622 121.657Z" fill="black"/>
<path d="M205.145 174.744L205.306 177.346H196.203L195.312 174.744H205.145Z" fill="#407BFF"/>
<path d="M184.982 166.048L185.472 184.015H181.082L178.48 166.048H184.982Z" fill="#EEC1BB"/>
<path d="M180.476 182.756L186.177 182.853C186.281 182.855 186.381 182.893 186.461 182.96C186.541 183.027 186.595 183.119 186.616 183.221L187.571 187.876C187.612 188.073 187.573 188.279 187.463 188.448C187.353 188.617 187.181 188.736 186.984 188.78H186.822C184.763 188.708 182.949 188.566 180.366 188.521C177.345 188.47 178.107 188.844 174.556 188.838C172.419 188.838 172.071 186.391 172.974 186.288C177.138 185.836 177.59 184.59 179.217 183.131C179.576 182.855 180.025 182.721 180.476 182.756Z" fill="#263238"/>
<path opacity="0.1" d="M185.337 179.076L184.982 166.048H178.48L180.372 179.089C181.786 179.095 183.729 179.083 185.337 179.076Z" fill="black"/>
<path d="M224.655 123.174C224.655 123.174 226.179 137.106 212.008 137.758C197.837 138.41 186.771 140.03 186.449 145.072C186.126 150.115 186.449 175.803 186.449 175.803H178.747C178.747 175.803 175.751 159.56 174.582 149.488C173.446 139.708 171.354 132.612 181.406 129.3C192.078 125.775 211.046 122.522 211.046 122.522L224.707 121.657L224.655 123.174Z" fill="#263238"/>
<path d="M187.584 174.744L187.1 177.346H178.643L177.752 174.744H187.584Z" fill="#407BFF"/>
<path d="M227.709 83.2047C227.709 83.2047 227.709 80.0671 221.363 80.4287C214.622 80.816 215.894 83.8245 215.894 83.8245L227.709 83.2047Z" fill="#FF6C37"/>
<path opacity="0.3" d="M227.709 83.2047C227.709 83.2047 227.709 80.0671 221.363 80.4287C214.622 80.816 215.894 83.8245 215.894 83.8245L227.709 83.2047Z" fill="black"/>
<path d="M233.622 97.2788C233.196 103.483 233.344 122.147 233.344 122.147C233.344 122.147 219.787 123.038 209.147 122.69L207.914 86.7878C207.919 86.153 208.115 85.5344 208.476 85.0127C208.838 84.491 209.348 84.0904 209.941 83.8632C212.95 82.6947 220.013 81.3712 231.059 82.8238C234.868 83.3338 234.125 89.9448 233.622 97.2788Z" fill="#FF6C37"/>
<path d="M210.089 97.0399C210.089 97.0399 204.821 110.081 199.675 111.488C194.53 112.896 186.763 111.753 186.763 111.753L184.362 112.399L182.012 112.05H181.928L179.268 111.986C179.172 111.994 179.076 111.974 178.991 111.929C178.906 111.884 178.836 111.816 178.789 111.733C178.741 111.649 178.718 111.554 178.723 111.458C178.728 111.362 178.76 111.27 178.816 111.191L179.772 109.9C179.851 109.794 179.962 109.715 180.088 109.674L182.612 108.861C182.714 108.838 182.82 108.838 182.922 108.861L186.796 109.474C186.796 109.474 197.545 107.712 198.636 106.717C199.727 105.723 202.974 95.2968 202.974 95.2968L210.089 97.0399Z" fill="#EEC1BB"/>
<path opacity="0.1" d="M209.955 90.9713C209.955 90.9713 209.135 91.9461 208.141 93.3536L208.496 103.748C212.453 101.998 214.022 91.8106 214.022 91.8106L211.44 89.99L209.955 90.9713Z" fill="black"/>
<path d="M213.266 84.1215C209.444 82.869 204.059 85.7419 202 97.7759L209.941 100.094C209.941 100.094 218.727 85.9162 213.266 84.1215Z" fill="#FF6C37"/>
<path d="M218.321 144.517H212.35V162.019H218.321V144.517Z" fill="#263238"/>
<path opacity="0.6" d="M218.321 144.517H212.35V162.019H218.321V144.517Z" fill="white"/>
<path d="M219.244 177.875V155.641H211.419V177.875L193.607 180.348V182.821L215.332 180.968L237.056 182.821V180.348L219.244 177.875Z" fill="#263238"/>
<path d="M193.349 188.883C194.65 188.883 195.705 187.828 195.705 186.526C195.705 185.225 194.65 184.17 193.349 184.17C192.047 184.17 190.992 185.225 190.992 186.526C190.992 187.828 192.047 188.883 193.349 188.883Z" fill="#407BFF"/>
<path d="M237.058 188.883C238.359 188.883 239.414 187.828 239.414 186.526C239.414 185.225 238.359 184.17 237.058 184.17C235.756 184.17 234.701 185.225 234.701 186.526C234.701 187.828 235.756 188.883 237.058 188.883Z" fill="#407BFF"/>
<path d="M215.333 188.883C216.634 188.883 217.689 187.828 217.689 186.526C217.689 185.225 216.634 184.17 215.333 184.17C214.032 184.17 212.977 185.225 212.977 186.526C212.977 187.828 214.032 188.883 215.333 188.883Z" fill="#407BFF"/>
<path opacity="0.3" d="M218.321 144.517H212.35V148.843H218.321V144.517Z" fill="black"/>
<path d="M238.941 104.845H219.483C217.953 104.847 216.479 105.418 215.348 106.449C214.218 107.479 213.512 108.894 213.369 110.417L211.729 127.996C211.547 129.934 210.674 131.741 209.269 133.088C207.865 134.434 206.022 135.23 204.079 135.33L185.298 136.273C184.199 136.329 183.164 136.805 182.406 137.603C181.648 138.401 181.225 139.459 181.225 140.56V140.954C181.225 141.897 181.599 142.802 182.266 143.469C182.934 144.136 183.838 144.511 184.782 144.511H241.975L245.055 111.585C245.138 110.732 245.041 109.872 244.772 109.058C244.502 108.245 244.066 107.497 243.49 106.862C242.914 106.227 242.212 105.72 241.429 105.373C240.645 105.025 239.798 104.846 238.941 104.845Z" fill="#407BFF"/>
<path opacity="0.3" d="M238.941 104.845H219.483C217.953 104.847 216.479 105.418 215.348 106.449C214.218 107.479 213.512 108.894 213.369 110.417L211.729 127.996C211.547 129.934 210.674 131.741 209.269 133.088C207.865 134.434 206.022 135.23 204.079 135.33L185.298 136.273C184.199 136.329 183.164 136.805 182.406 137.603C181.648 138.401 181.225 139.459 181.225 140.56V140.954C181.225 141.897 181.599 142.802 182.266 143.469C182.934 144.136 183.838 144.511 184.782 144.511H241.975L245.055 111.585C245.138 110.732 245.041 109.872 244.772 109.058C244.502 108.245 244.066 107.497 243.49 106.862C242.914 106.227 242.212 105.72 241.429 105.373C240.645 105.025 239.798 104.846 238.941 104.845Z" fill="white"/>
<path d="M194.279 124.652H196.959V138.668C196.959 139.011 196.822 139.339 196.58 139.581C196.338 139.823 196.01 139.959 195.667 139.959H195.57C195.228 139.959 194.9 139.823 194.657 139.581C194.415 139.339 194.279 139.011 194.279 138.668V124.652Z" fill="#263238"/>
<path opacity="0.2" d="M194.279 124.652H196.959V138.668C196.959 139.011 196.822 139.339 196.58 139.581C196.338 139.823 196.01 139.959 195.667 139.959H195.57C195.228 139.959 194.9 139.823 194.657 139.581C194.415 139.339 194.279 139.011 194.279 138.668V124.652Z" fill="white"/>
<path d="M207.197 120.63H201.238V125.569H207.21C207.545 125.586 207.88 125.535 208.194 125.418C208.509 125.302 208.796 125.123 209.04 124.892C209.283 124.661 209.476 124.383 209.609 124.075C209.741 123.767 209.809 123.435 209.809 123.099C209.809 122.764 209.741 122.432 209.609 122.124C209.476 121.816 209.283 121.538 209.04 121.307C208.796 121.076 208.509 120.897 208.194 120.78C207.88 120.664 207.545 120.613 207.21 120.63H207.197Z" fill="#407BFF"/>
<path opacity="0.5" d="M207.197 120.63H201.238V125.569H207.21C207.545 125.586 207.88 125.535 208.194 125.418C208.509 125.302 208.796 125.123 209.04 124.892C209.283 124.661 209.476 124.383 209.609 124.075C209.741 123.767 209.809 123.435 209.809 123.099C209.809 122.764 209.741 122.432 209.609 122.124C209.476 121.816 209.283 121.538 209.04 121.307C208.796 121.076 208.509 120.897 208.194 120.78C207.88 120.664 207.545 120.613 207.21 120.63H207.197Z" fill="white"/>
<path d="M204.815 120.63H183.943C182.627 120.63 181.561 121.697 181.561 123.012V123.193C181.561 124.509 182.627 125.575 183.943 125.575H204.815C206.131 125.575 207.197 124.509 207.197 123.193V123.012C207.197 121.697 206.131 120.63 204.815 120.63Z" fill="#407BFF"/>
<path opacity="0.3" d="M204.815 120.63H183.943C182.627 120.63 181.561 121.697 181.561 123.012V123.193C181.561 124.509 182.627 125.575 183.943 125.575H204.815C206.131 125.575 207.197 124.509 207.197 123.193V123.012C207.197 121.697 206.131 120.63 204.815 120.63Z" fill="white"/>
<path d="M243.319 144.517H214.713L217.902 110.449C218.045 108.926 218.751 107.511 219.882 106.481C221.012 105.45 222.486 104.879 224.016 104.877H243.474C244.329 104.878 245.174 105.057 245.955 105.403C246.737 105.749 247.437 106.254 248.013 106.886C248.588 107.517 249.025 108.262 249.297 109.073C249.568 109.883 249.667 110.741 249.588 111.592L246.806 141.38C246.715 142.241 246.308 143.038 245.664 143.617C245.021 144.197 244.185 144.517 243.319 144.517Z" fill="#407BFF"/>
<path opacity="0.5" d="M243.319 144.517H214.713L217.902 110.449C218.045 108.926 218.751 107.511 219.882 106.481C221.012 105.45 222.486 104.879 224.016 104.877H243.474C244.329 104.878 245.174 105.057 245.955 105.403C246.737 105.749 247.437 106.254 248.013 106.886C248.588 107.517 249.025 108.262 249.297 109.073C249.568 109.883 249.667 110.741 249.588 111.592L246.806 141.38C246.715 142.241 246.308 143.038 245.664 143.617C245.021 144.197 244.185 144.517 243.319 144.517Z" fill="white"/>
<path d="M176.493 188.618H148.674C148.119 188.619 147.569 188.51 147.056 188.299C146.543 188.087 146.077 187.776 145.684 187.384C145.292 186.992 144.98 186.526 144.767 186.013C144.555 185.5 144.445 184.951 144.445 184.396V120.43C144.445 119.875 144.555 119.325 144.767 118.813C144.98 118.3 145.292 117.834 145.684 117.442C146.077 117.05 146.543 116.739 147.056 116.527C147.569 116.315 148.119 116.207 148.674 116.208H176.493C176.792 116.208 177.08 116.327 177.292 116.539C177.504 116.751 177.623 117.038 177.623 117.338C177.623 117.637 177.504 117.925 177.292 118.136C177.08 118.348 176.792 118.467 176.493 118.467H148.674C148.417 118.463 148.162 118.51 147.923 118.605C147.684 118.701 147.467 118.843 147.284 119.023C147.1 119.203 146.955 119.418 146.855 119.655C146.756 119.893 146.705 120.147 146.705 120.404V184.37C146.705 184.627 146.756 184.882 146.855 185.119C146.955 185.356 147.1 185.571 147.284 185.751C147.467 185.931 147.684 186.073 147.923 186.169C148.162 186.264 148.417 186.311 148.674 186.307H176.493C176.792 186.307 177.08 186.426 177.292 186.638C177.504 186.85 177.623 187.137 177.623 187.437C177.63 187.589 177.606 187.742 177.552 187.885C177.498 188.028 177.416 188.159 177.311 188.269C177.205 188.38 177.078 188.467 176.937 188.527C176.797 188.587 176.646 188.618 176.493 188.618Z" fill="#263238"/>
<g opacity="0.5">
<path d="M176.493 188.618H148.674C148.119 188.619 147.569 188.51 147.056 188.299C146.543 188.087 146.077 187.776 145.684 187.384C145.292 186.992 144.98 186.526 144.767 186.013C144.555 185.5 144.445 184.951 144.445 184.396V120.43C144.445 119.875 144.555 119.325 144.767 118.813C144.98 118.3 145.292 117.834 145.684 117.442C146.077 117.05 146.543 116.739 147.056 116.527C147.569 116.315 148.119 116.207 148.674 116.208H176.493C176.792 116.208 177.08 116.327 177.292 116.539C177.504 116.751 177.623 117.038 177.623 117.338C177.623 117.637 177.504 117.925 177.292 118.136C177.08 118.348 176.792 118.467 176.493 118.467H148.674C148.417 118.463 148.162 118.51 147.923 118.605C147.684 118.701 147.467 118.843 147.284 119.023C147.1 119.203 146.955 119.418 146.855 119.655C146.756 119.893 146.705 120.147 146.705 120.404V184.37C146.705 184.627 146.756 184.882 146.855 185.119C146.955 185.356 147.1 185.571 147.284 185.751C147.467 185.931 147.684 186.073 147.923 186.169C148.162 186.264 148.417 186.311 148.674 186.307H176.493C176.792 186.307 177.08 186.426 177.292 186.638C177.504 186.85 177.623 187.137 177.623 187.437C177.63 187.589 177.606 187.742 177.552 187.885C177.498 188.028 177.416 188.159 177.311 188.269C177.205 188.38 177.078 188.467 176.937 188.527C176.797 188.587 176.646 188.618 176.493 188.618Z" fill="white"/>
</g>
<path d="M158.105 82.5527L156.169 81.2615C156.119 81.23 156.079 81.1865 156.051 81.1352C156.023 81.0838 156.008 81.0263 156.008 80.9677C156.008 80.9092 156.023 80.8516 156.051 80.8003C156.079 80.7489 156.119 80.7055 156.169 80.674L158.105 79.3828C158.177 79.3361 158.263 79.3194 158.347 79.3363C158.43 79.3532 158.504 79.4024 158.551 79.4732C158.596 79.5438 158.611 79.629 158.594 79.7109C158.578 79.7928 158.53 79.8649 158.461 79.9122L156.853 80.9774L158.461 82.0427C158.53 82.0899 158.578 82.162 158.594 82.2439C158.611 82.3258 158.596 82.411 158.551 82.4817C158.5 82.548 158.425 82.5922 158.342 82.6054C158.26 82.6186 158.175 82.5998 158.105 82.5527Z" fill="white"/>
<path d="M162.392 82.4623C162.354 82.3915 162.343 82.3087 162.364 82.2307C162.384 82.1527 162.434 82.0854 162.502 82.0426L164.109 80.9774L162.502 79.8928C162.433 79.8456 162.385 79.7729 162.369 79.6906C162.353 79.6083 162.371 79.5231 162.418 79.4538C162.441 79.4189 162.47 79.389 162.505 79.3656C162.539 79.3422 162.578 79.3258 162.619 79.3174C162.66 79.309 162.702 79.3088 162.742 79.3166C162.783 79.3245 162.822 79.3404 162.857 79.3634L164.794 80.6546C164.843 80.6861 164.884 80.7295 164.912 80.7809C164.94 80.8322 164.955 80.8898 164.955 80.9483C164.955 81.0069 164.94 81.0644 164.912 81.1158C164.884 81.1671 164.843 81.2105 164.794 81.2421L162.857 82.5333C162.822 82.5604 162.782 82.5802 162.74 82.5914C162.697 82.6025 162.653 82.6049 162.609 82.5982C162.566 82.5916 162.524 82.5761 162.487 82.5527C162.449 82.5293 162.417 82.4985 162.392 82.4623Z" fill="white"/>
<path d="M159.74 83.3339C159.7 83.3214 159.663 83.3011 159.631 83.2742C159.598 83.2472 159.572 83.2142 159.553 83.1769C159.534 83.1397 159.522 83.099 159.519 83.0572C159.515 83.0154 159.52 82.9734 159.533 82.9336L160.87 78.7114C160.881 78.6716 160.901 78.6346 160.927 78.6025C160.954 78.5705 160.986 78.544 161.023 78.5248C161.06 78.5055 161.1 78.4938 161.141 78.4904C161.182 78.4869 161.224 78.4918 161.263 78.5048C161.303 78.5165 161.34 78.5361 161.372 78.5625C161.404 78.5888 161.431 78.6213 161.45 78.658C161.469 78.6947 161.481 78.7349 161.484 78.7763C161.488 78.8176 161.483 78.8592 161.47 78.8986L160.14 83.1273C160.128 83.1673 160.107 83.2044 160.08 83.2365C160.053 83.2686 160.02 83.295 159.983 83.3143C159.946 83.3335 159.905 83.3451 159.863 83.3485C159.822 83.3518 159.78 83.3469 159.74 83.3339Z" fill="white"/>
<path d="M170.703 86.5619H156.325C156.282 86.5619 156.238 86.5531 156.198 86.5362C156.158 86.5192 156.121 86.4944 156.09 86.4632C156.06 86.4319 156.035 86.3948 156.019 86.3541C156.003 86.3134 155.995 86.2699 155.996 86.2261C155.995 86.1824 156.003 86.1389 156.019 86.0982C156.035 86.0575 156.06 86.0204 156.09 85.9891C156.121 85.9579 156.158 85.9331 156.198 85.9161C156.238 85.8992 156.282 85.8904 156.325 85.8904H170.703C170.792 85.8904 170.877 85.9258 170.94 85.9888C171.003 86.0517 171.039 86.1371 171.039 86.2261C171.039 86.2702 171.03 86.3139 171.013 86.3546C170.996 86.3954 170.971 86.4324 170.94 86.4635C170.909 86.4947 170.872 86.5194 170.831 86.5363C170.791 86.5532 170.747 86.5619 170.703 86.5619Z" fill="white"/>
<path d="M187.218 86.5619H172.834C172.79 86.5619 172.746 86.5532 172.705 86.5363C172.665 86.5194 172.628 86.4947 172.596 86.4635C172.565 86.4324 172.54 86.3954 172.524 86.3546C172.507 86.3139 172.498 86.2702 172.498 86.2261C172.505 86.1417 172.543 86.0628 172.605 86.0053C172.667 85.9478 172.749 85.916 172.834 85.9163H187.205C187.294 85.9163 187.379 85.9516 187.442 86.0146C187.505 86.0775 187.54 86.1629 187.54 86.252C187.534 86.3343 187.498 86.4114 187.438 86.4685C187.379 86.5257 187.3 86.5589 187.218 86.5619Z" fill="white"/>
<path d="M164.544 89.5187H156.325C156.282 89.5187 156.238 89.5099 156.198 89.493C156.158 89.476 156.121 89.4512 156.09 89.42C156.06 89.3887 156.035 89.3516 156.019 89.3109C156.003 89.2702 155.995 89.2267 155.996 89.183C155.996 89.0956 156.031 89.0119 156.093 88.9501C156.154 88.8884 156.238 88.8537 156.325 88.8537H164.544C164.632 88.8537 164.716 88.8882 164.779 88.9497C164.842 89.0113 164.878 89.095 164.88 89.183C164.88 89.272 164.844 89.3574 164.781 89.4203C164.718 89.4833 164.633 89.5187 164.544 89.5187Z" fill="white"/>
<path d="M180.142 89.5187H166.681C166.637 89.5187 166.594 89.5099 166.553 89.493C166.513 89.476 166.476 89.4512 166.446 89.42C166.415 89.3887 166.391 89.3516 166.375 89.3109C166.359 89.2702 166.351 89.2267 166.352 89.183C166.352 89.0956 166.386 89.0119 166.448 88.9501C166.51 88.8884 166.594 88.8537 166.681 88.8537H180.142C180.229 88.8537 180.313 88.8884 180.374 88.9501C180.436 89.0119 180.471 89.0956 180.471 89.183C180.472 89.2267 180.464 89.2702 180.448 89.3109C180.432 89.3516 180.407 89.3887 180.377 89.42C180.346 89.4512 180.31 89.476 180.269 89.493C180.229 89.5099 180.185 89.5187 180.142 89.5187Z" fill="white"/>
<path d="M178.224 92.482H156.325C156.237 92.4803 156.154 92.4442 156.092 92.3814C156.031 92.3186 155.996 92.2342 155.996 92.1463C155.995 92.1025 156.003 92.059 156.019 92.0183C156.035 91.9776 156.06 91.9405 156.09 91.9093C156.121 91.878 156.158 91.8532 156.198 91.8362C156.238 91.8193 156.282 91.8105 156.325 91.8105H178.224C178.313 91.8105 178.399 91.8459 178.461 91.9089C178.524 91.9718 178.56 92.0572 178.56 92.1463C178.56 92.2353 178.524 92.3207 178.461 92.3836C178.399 92.4466 178.313 92.482 178.224 92.482Z" fill="white"/>
<path d="M184.938 92.482H180.367C180.278 92.482 180.193 92.4466 180.13 92.3836C180.067 92.3207 180.031 92.2353 180.031 92.1463C180.031 92.0572 180.067 91.9718 180.13 91.9089C180.193 91.8459 180.278 91.8105 180.367 91.8105H184.938C185.027 91.8105 185.112 91.8459 185.175 91.9089C185.238 91.9718 185.274 92.0572 185.274 92.1463C185.274 92.2353 185.238 92.3207 185.175 92.3836C185.112 92.4466 185.027 92.482 184.938 92.482Z" fill="white"/>
<path d="M166.552 95.4388H156.325C156.282 95.4388 156.238 95.4301 156.198 95.4132C156.158 95.3962 156.121 95.3714 156.09 95.3401C156.06 95.3089 156.035 95.2718 156.019 95.2311C156.003 95.1904 155.995 95.1469 155.996 95.1031C155.995 95.0593 156.003 95.0158 156.019 94.9751C156.035 94.9344 156.06 94.8974 156.09 94.8661C156.121 94.8348 156.158 94.81 156.198 94.7931C156.238 94.7761 156.282 94.7674 156.325 94.7674H166.552C166.641 94.7674 166.726 94.8028 166.789 94.8657C166.852 94.9287 166.887 95.0141 166.887 95.1031C166.887 95.1922 166.852 95.2775 166.789 95.3405C166.726 95.4034 166.641 95.4388 166.552 95.4388Z" fill="white"/>
<path d="M181.42 95.4388H168.695C168.606 95.4388 168.521 95.4034 168.458 95.3405C168.395 95.2775 168.359 95.1922 168.359 95.1031C168.359 95.0141 168.395 94.9287 168.458 94.8657C168.521 94.8028 168.606 94.7674 168.695 94.7674H181.42C181.509 94.7674 181.594 94.8028 181.657 94.8657C181.72 94.9287 181.756 95.0141 181.756 95.1031C181.756 95.1922 181.72 95.2775 181.657 95.3405C181.594 95.4034 181.509 95.4388 181.42 95.4388Z" fill="white"/>
<path d="M170.703 98.3956H156.325C156.282 98.3956 156.238 98.3869 156.198 98.37C156.158 98.353 156.121 98.3282 156.09 98.2969C156.06 98.2657 156.035 98.2286 156.019 98.1879C156.003 98.1472 155.995 98.1037 155.996 98.0599C155.996 97.9726 156.031 97.8888 156.093 97.8271C156.154 97.7653 156.238 97.7307 156.325 97.7307H170.703C170.747 97.7298 170.79 97.7377 170.831 97.7538C170.872 97.77 170.909 97.7941 170.94 97.8248C170.971 97.8555 170.996 97.892 171.013 97.9324C171.03 97.9728 171.039 98.0161 171.039 98.0599C171.039 98.149 171.003 98.2343 170.94 98.2973C170.877 98.3603 170.792 98.3956 170.703 98.3956Z" fill="white"/>
<path d="M182.989 98.3956H172.834C172.745 98.3956 172.659 98.3603 172.596 98.2973C172.533 98.2343 172.498 98.149 172.498 98.0599C172.498 98.0161 172.507 97.9728 172.524 97.9324C172.541 97.892 172.565 97.8555 172.597 97.8248C172.628 97.7941 172.665 97.77 172.706 97.7538C172.746 97.7377 172.79 97.7298 172.834 97.7307H182.976C183.063 97.7307 183.147 97.7653 183.209 97.8271C183.271 97.8888 183.305 97.9726 183.305 98.0599C183.307 98.1462 183.275 98.2296 183.216 98.2924C183.157 98.3552 183.075 98.3923 182.989 98.3956Z" fill="white"/>
<path d="M58.2208 40.6082C58.4855 43.6489 57.827 49.1559 55.5352 50.9377C59.2732 52.287 63.2372 54.6112 65.7679 57.6778C68.2793 54.0237 65.4257 51.9384 65.4257 51.9384C62.1977 50.7892 62.5399 48.3424 63.3727 46.0893L58.2208 40.6082Z" fill="#B97964"/>
<path d="M70.4408 37.987C70.402 38.3679 70.5828 38.6971 70.8346 38.723C71.0864 38.7488 71.3123 38.4518 71.3511 38.0774C71.3898 37.7029 71.209 37.3672 70.9573 37.3414C70.7055 37.3156 70.486 37.6061 70.4408 37.987Z" fill="#263238"/>
<path d="M70.8613 37.3478L71.7974 37.1671C71.7974 37.1671 71.2616 37.8578 70.8613 37.3478Z" fill="#263238"/>
<path d="M70.5701 38.3937C70.8337 39.3018 71.2181 40.1704 71.7128 40.9761C71.5036 41.0972 71.2705 41.1714 71.0298 41.1937C70.789 41.216 70.5463 41.1858 70.3184 41.1053L70.5701 38.3937Z" fill="#A24E3F"/>
<path d="M71.5252 35.9792C71.5849 35.9697 71.6396 35.9401 71.6801 35.8952C71.7201 35.8523 71.7423 35.7957 71.7423 35.7371C71.7423 35.6784 71.7201 35.6219 71.6801 35.5789C71.4147 35.3365 71.095 35.1614 70.7479 35.0681C70.4008 34.9749 70.0364 34.9663 69.6852 35.0431C69.6358 35.0772 69.601 35.1287 69.5878 35.1873C69.5747 35.246 69.5841 35.3074 69.6142 35.3594C69.6341 35.3926 69.6626 35.4197 69.6967 35.4379C69.7308 35.4561 69.7693 35.4647 69.8079 35.4627C70.087 35.4093 70.3747 35.4218 70.6482 35.4991C70.9217 35.5765 71.1733 35.7165 71.3832 35.9082C71.4207 35.9478 71.471 35.9729 71.5252 35.9792Z" fill="#263238"/>
<path d="M57.9163 35.5595C57.7678 40.2788 57.6064 42.2866 59.711 44.9207C62.8809 48.8782 68.6203 48.0131 70.1568 43.4164C71.5384 39.2782 71.5513 32.2282 67.2064 29.9428C62.8616 27.6574 58.0519 30.8273 57.9163 35.5595Z" fill="#B97964"/>
<path d="M58.1234 44.4753C53.4815 43.6812 54.8115 40.7566 54.8115 40.7566C50.2406 39.8334 53.7721 37.5996 53.7721 37.5996C49.9695 35.9598 53.7721 34.4878 53.7721 34.4878C50.1051 31.4471 55.3344 30.3947 55.3344 30.3947C54.0432 25.6496 58.5624 27.5993 58.5624 27.5993C61.0157 23.5191 63.1332 27.4121 63.1332 27.4121C67.4329 21.6017 68.4788 26.5018 68.4788 26.5018C72.8753 25.3462 71.1903 29.9687 71.1903 29.9687C74.8057 30.937 71.965 32.7705 71.965 32.7705C73.3595 34.533 68.3174 34.8365 68.3174 34.8365C68.3174 34.8365 70.719 38.7101 68.3174 39.7753L62.21 44.4559C62.21 44.4559 59.3888 43.3067 58.1234 44.4753Z" fill="#263238"/>
<path d="M62.6875 40.6662C62.6875 40.6662 65.9155 32.919 63.3912 26.3081L65.5217 25.5786C65.5217 25.5786 68.3042 35.1915 62.6875 40.6662Z" fill="#407BFF"/>
<path d="M65.9081 39.814C66.4375 40.9245 66.6441 41.4087 67.4059 41.7508C67.6412 41.8858 67.911 41.9486 68.1817 41.9313C68.4523 41.914 68.7119 41.8174 68.9281 41.6536C69.1443 41.4897 69.3074 41.2659 69.3972 41.0099C69.487 40.754 69.4995 40.4773 69.4331 40.2143C69.233 39.1039 68.3808 37.4705 67.1993 37.4382C66.923 37.4396 66.6522 37.5151 66.4151 37.657C66.178 37.7988 65.9833 38.0016 65.8513 38.2444C65.7194 38.4871 65.6551 38.7609 65.6651 39.037C65.6751 39.3131 65.759 39.5814 65.9081 39.814Z" fill="#B97964"/>
<path d="M62.5717 55.9411C62.5717 55.9411 66.9424 59.1691 68.7178 60.4603L81.3651 54.4949C81.3473 53.7937 81.5409 53.1034 81.9209 52.5139C82.3009 51.9243 82.8496 51.4628 83.4956 51.1895L84.3994 50.815L86.3039 49.9628C86.6589 49.8043 87.0494 49.7424 87.4359 49.7832C87.8225 49.824 88.1914 49.9661 88.5054 50.1952C88.8743 50.4641 89.151 50.8404 89.2978 51.2726C89.4446 51.7049 89.4542 52.1719 89.3253 52.6098C89.0598 53.5176 88.5633 54.341 87.8843 54.9996C87.2054 55.6582 86.3672 56.1294 85.4517 56.3672L83.6053 56.8514C83.6053 56.8514 72.7657 65.0634 68.8921 65.2571C65.0186 65.4507 59.3438 61.6482 59.3438 61.6482L62.5717 55.9411Z" fill="#B97964"/>
<path d="M52.0601 50.4987C55.3979 50.4987 59.1294 52.5775 64.9721 56.3865C64.1329 59.1324 62.5722 61.6027 60.4529 63.5397C60.4529 63.5397 57.2249 62.6746 52.9381 58.6397C47.7733 53.7525 50.0136 50.5051 52.0601 50.4987Z" fill="#263238"/>
<path d="M115.459 60.1697H83.8248C83.5587 60.174 83.2947 60.1216 83.0503 60.0162C82.8059 59.9107 82.5868 59.7546 82.4073 59.558C82.2279 59.3615 82.0922 59.129 82.0094 58.8761C81.9265 58.6232 81.8983 58.3555 81.9267 58.0909L84.309 30.8595C84.3658 30.2965 84.6272 29.7738 85.0437 29.3907C85.4602 29.0075 86.0028 28.7905 86.5686 28.7807H118.203C118.469 28.7763 118.733 28.8286 118.977 28.9342C119.221 29.0397 119.44 29.196 119.619 29.3926C119.797 29.5893 119.932 29.8219 120.015 30.0748C120.097 30.3277 120.124 30.5953 120.095 30.8595L117.712 58.0909C117.656 58.6528 117.395 59.1746 116.98 59.5576C116.565 59.9406 116.024 60.1584 115.459 60.1697Z" fill="#FF6C37"/>
<path opacity="0.4" d="M115.459 60.1697H83.8248C83.5587 60.174 83.2947 60.1216 83.0503 60.0162C82.8059 59.9107 82.5868 59.7546 82.4073 59.558C82.2279 59.3615 82.0922 59.129 82.0094 58.8761C81.9265 58.6232 81.8983 58.3555 81.9267 58.0909L84.309 30.8595C84.3658 30.2965 84.6272 29.7738 85.0437 29.3907C85.4602 29.0075 86.0028 28.7905 86.5686 28.7807H118.203C118.469 28.7763 118.733 28.8286 118.977 28.9342C119.221 29.0397 119.44 29.196 119.619 29.3926C119.797 29.5893 119.932 29.8219 120.015 30.0748C120.097 30.3277 120.124 30.5953 120.095 30.8595L117.712 58.0909C117.656 58.6528 117.395 59.1746 116.98 59.5576C116.565 59.9406 116.024 60.1584 115.459 60.1697Z" fill="white"/>
<path opacity="0.7" d="M115.574 58.8786C115.788 58.8748 115.993 58.7925 116.15 58.6472C116.307 58.502 116.406 58.304 116.426 58.091L118.808 30.8596C118.819 30.7595 118.809 30.6582 118.778 30.5624C118.747 30.4667 118.696 30.3786 118.628 30.3041C118.56 30.2297 118.477 30.1704 118.385 30.1304C118.292 30.0904 118.192 30.0705 118.092 30.072H86.4575C86.2428 30.0756 86.0369 30.1577 85.8786 30.3028C85.7204 30.448 85.6209 30.646 85.5988 30.8596L83.223 58.091C83.212 58.1911 83.2224 58.2924 83.2536 58.3881C83.2847 58.4839 83.3359 58.5719 83.4036 58.6464C83.4714 58.7209 83.5542 58.7801 83.6467 58.8202C83.7391 58.8602 83.8389 58.8801 83.9396 58.8786H115.574Z" fill="white"/>
<path d="M93.5916 42.8677L83.2621 57.8198V58.0909C83.2511 58.191 83.2615 58.2923 83.2926 58.3881C83.3238 58.4839 83.3749 58.5719 83.4427 58.6464C83.5105 58.7209 83.5933 58.7801 83.6857 58.8202C83.7781 58.8602 83.878 58.8801 83.9787 58.8786H101.9L93.5916 42.8677Z" fill="#FF6C37"/>
<path opacity="0.3" d="M93.5916 42.8677L83.2621 57.8198V58.0909C83.2511 58.191 83.2615 58.2923 83.2926 58.3881C83.3238 58.4839 83.3749 58.5719 83.4427 58.6464C83.5105 58.7209 83.5933 58.7801 83.6857 58.8202C83.7781 58.8602 83.878 58.8801 83.9787 58.8786H101.9L93.5916 42.8677Z" fill="white"/>
<path d="M116.518 57.0515L107.861 40.6082L95.0391 58.8786H115.576C115.79 58.8748 115.995 58.7925 116.152 58.6472C116.309 58.502 116.407 58.304 116.428 58.091L116.518 57.0515Z" fill="#FF6C37"/>
<path d="M104.515 37.7029C104.436 38.4898 104.071 39.2204 103.489 39.7559C102.907 40.2914 102.149 40.5947 101.358 40.6081C100.986 40.6149 100.617 40.5423 100.275 40.3953C99.9329 40.2482 99.6262 40.0299 99.3752 39.7551C99.1242 39.4802 98.9346 39.1551 98.819 38.8012C98.7034 38.4474 98.6645 38.073 98.7049 37.7029C98.7824 36.9149 99.1469 36.1828 99.729 35.6459C100.311 35.1091 101.07 34.8049 101.862 34.7913C102.235 34.7844 102.605 34.8571 102.947 35.0046C103.29 35.152 103.597 35.3709 103.848 35.6465C104.099 35.922 104.288 36.248 104.403 36.6027C104.519 36.9573 104.557 37.3324 104.515 37.7029Z" fill="#FF6C37"/>
<path opacity="0.4" d="M104.515 37.7029C104.436 38.4898 104.071 39.2204 103.489 39.7559C102.907 40.2914 102.149 40.5947 101.358 40.6081C100.986 40.6149 100.617 40.5423 100.275 40.3953C99.9329 40.2482 99.6262 40.0299 99.3752 39.7551C99.1242 39.4802 98.9346 39.1551 98.819 38.8012C98.7034 38.4474 98.6645 38.073 98.7049 37.7029C98.7824 36.9149 99.1469 36.1828 99.729 35.6459C100.311 35.1091 101.07 34.8049 101.862 34.7913C102.235 34.7844 102.605 34.8571 102.947 35.0046C103.29 35.152 103.597 35.3709 103.848 35.6465C104.099 35.922 104.288 36.248 104.403 36.6027C104.519 36.9573 104.557 37.3324 104.515 37.7029Z" fill="white"/>
<path d="M25.5725 170.083L22.3574 179.612L27.2833 181.626L31.1376 172.833L25.5725 170.083Z" fill="#B97964"/>
<path d="M29.0524 181.387C29.0272 181.372 29.0066 181.35 28.9929 181.324C28.9793 181.298 28.973 181.268 28.9749 181.239C28.9786 181.21 28.9912 181.184 29.0109 181.163C29.0306 181.142 29.0565 181.128 29.0847 181.123C29.188 181.123 31.5122 180.58 32.3773 181.123C32.5408 181.223 32.659 181.382 32.7065 181.568C32.7427 181.671 32.7459 181.783 32.7159 181.888C32.6858 181.994 32.6239 182.087 32.5387 182.156C32.2094 182.388 31.4411 182.291 30.7374 182.072C30.1572 181.892 29.5935 181.663 29.0524 181.387ZM29.5431 181.342C30.5567 181.794 31.9899 182.227 32.3643 181.943C32.416 181.904 32.4805 181.839 32.4289 181.639C32.4189 181.581 32.3949 181.525 32.3589 181.478C32.3229 181.431 32.2761 181.393 32.2223 181.368C32.1462 181.32 32.0636 181.283 31.977 181.258C31.1677 181.132 30.3417 181.16 29.5431 181.342Z" fill="#407BFF"/>
<path d="M28.9819 181.355C28.9695 181.333 28.9629 181.309 28.9629 181.284C28.9629 181.259 28.9695 181.235 28.9819 181.213C28.9819 181.148 29.6275 179.664 30.5378 179.276C30.6677 179.222 30.807 179.194 30.9478 179.194C31.0885 179.194 31.2278 179.222 31.3577 179.276C31.7128 179.425 31.7709 179.651 31.7386 179.806C31.6612 180.484 29.918 181.291 29.1562 181.381C29.1472 181.385 29.1373 181.388 29.1272 181.388C29.1171 181.388 29.1071 181.385 29.0981 181.381C29.0782 181.387 29.057 181.388 29.0367 181.383C29.0163 181.379 28.9975 181.369 28.9819 181.355ZM31.1705 179.528C31.0038 179.467 30.8207 179.467 30.654 179.528C30.0793 179.885 29.6285 180.41 29.3628 181.032C30.1956 180.832 31.3835 180.148 31.4675 179.741C31.4675 179.702 31.4675 179.599 31.248 179.509H31.1705V179.528Z" fill="#407BFF"/>
<path d="M28.7159 180.412L22.5311 178.476C22.4179 178.441 22.2961 178.446 22.1859 178.489C22.0756 178.532 21.9834 178.612 21.9242 178.715L19.2515 183.402C19.1937 183.5 19.156 183.609 19.1407 183.723C19.1253 183.836 19.1325 183.951 19.1619 184.062C19.1914 184.172 19.2424 184.276 19.312 184.366C19.3817 184.457 19.4686 184.533 19.5678 184.589C19.6206 184.622 19.6769 184.648 19.7357 184.667C21.9759 185.313 23.9966 185.803 26.7727 186.668C30.0523 187.675 29.0969 187.811 32.9317 189.057C35.243 189.806 36.4825 187.295 35.5141 186.862C31.1821 184.925 31.1369 183.402 29.8974 181.252C29.617 180.839 29.1977 180.541 28.7159 180.412Z" fill="#263238"/>
<path opacity="0.2" d="M24.0293 174.654L29.1941 177.262L31.1373 172.833L25.5723 170.083L24.0293 174.654Z" fill="#263238"/>
<path d="M47.4066 81.9458C47.4066 81.9458 40.4664 87.2462 41.9513 103.851C42.0933 105.387 42.5969 106.995 42.5969 108.751C42.5969 109.92 42.2741 110.739 41.8932 113.367C41.338 117.189 40.3179 131.444 39.2398 133.297C38.1616 135.15 37.7226 134.82 34.7206 139.933C31.4926 145.434 27.2962 155.079 24.0488 171.426C26.2171 172.956 28.6938 173.994 31.3054 174.467C31.3054 174.467 49.0399 146.499 52.8102 136.086C56.1867 126.77 60.2088 97.0399 60.2088 97.0399L60.5316 84.1279L47.4066 81.9458Z" fill="#407BFF"/>
<path opacity="0.1" d="M54.9979 103.851H49.9752C49.9752 103.851 48.3224 119.655 53.7842 132.838C54.3523 130.721 54.9269 128.184 55.4886 125.44L57.6642 111.521C57.3544 109.171 57.1155 107.376 57.0767 107.26C56.967 106.892 54.9979 103.851 54.9979 103.851Z" fill="black"/>
<path d="M54.1719 173.918L54.2042 184.047L59.9177 183.666L60.7957 173.918H54.1719Z" fill="#B97964"/>
<path d="M60.5768 183.492C60.5483 183.488 60.5217 183.476 60.5008 183.456C60.4799 183.436 60.4658 183.411 60.4606 183.382C60.454 183.354 60.4566 183.324 60.4683 183.297C60.4799 183.271 60.4998 183.248 60.5252 183.234C60.6155 183.182 62.6363 181.943 63.6369 182.162C63.8234 182.204 63.9872 182.314 64.0953 182.472C64.1621 182.559 64.2009 182.664 64.2066 182.774C64.2124 182.883 64.1848 182.992 64.1276 183.085C63.6309 183.458 63.0167 183.639 62.3974 183.595C61.7887 183.616 61.1793 183.581 60.5768 183.492ZM61.0287 183.292C62.1327 183.389 63.6111 183.324 63.8887 182.93C63.9275 182.879 63.9597 182.795 63.85 182.62C63.82 182.57 63.7788 182.526 63.7296 182.494C63.6804 182.462 63.6244 182.441 63.5659 182.433C63.4782 182.42 63.389 182.42 63.3012 182.433C62.4949 182.568 61.7229 182.86 61.0287 183.292Z" fill="#407BFF"/>
<path d="M60.4988 183.492C60.4771 183.478 60.4593 183.459 60.4469 183.436C60.4345 183.414 60.4279 183.389 60.4277 183.363C60.4277 183.292 60.5375 181.684 61.267 181.039C61.371 180.943 61.4933 180.87 61.6265 180.823C61.7597 180.777 61.901 180.758 62.0417 180.768C62.4291 180.768 62.5582 180.987 62.5776 181.148C62.7261 181.794 61.3509 183.143 60.6408 183.486C60.6219 183.492 60.6015 183.492 60.5827 183.486C60.5563 183.498 60.5266 183.5 60.4988 183.492ZM61.9578 181.039C61.7802 181.042 61.6101 181.111 61.4801 181.232C61.0543 181.759 60.8017 182.403 60.757 183.079C61.4736 182.62 62.371 181.581 62.3193 181.181C62.3193 181.142 62.2871 181.039 62.0353 181.026H61.9578V181.039Z" fill="#407BFF"/>
<path d="M59.9437 182.685L53.4877 182.917C53.3699 182.923 53.2573 182.968 53.1682 183.045C53.0791 183.122 53.0188 183.228 52.9971 183.343L52.0158 188.65C51.9722 188.875 52.0198 189.109 52.1481 189.299C52.2764 189.489 52.475 189.62 52.7001 189.664C52.7623 189.67 52.8251 189.67 52.8873 189.664C55.2179 189.535 57.2838 189.335 60.189 189.238C63.6172 189.115 62.7714 189.554 66.7935 189.47C69.2274 189.412 69.5696 186.636 68.5366 186.539C63.8044 186.113 63.2621 184.706 61.3834 183.085C60.9697 182.778 60.4566 182.635 59.9437 182.685Z" fill="#263238"/>
<path opacity="0.2" d="M54.1912 179.16L60.3373 179.031L60.7957 173.918H54.1719L54.1912 179.16Z" fill="#263238"/>
<path d="M51.2723 80.1058C51.2723 80.1058 44.3451 89.2798 49.4776 107.221L55.2879 133.426C55.2879 133.426 49.7745 145.344 52.7056 176.784C55.5465 177.183 58.4334 177.118 61.2533 176.591C61.2533 176.591 67.7093 143.387 68.6841 132.173C69.7623 119.817 69.1167 82.572 69.1167 82.572L51.2723 80.1058Z" fill="#407BFF"/>
<path d="M55.4569 50.3696C55.4569 50.3696 54.3852 45.7858 61.2673 47.7872C68.1494 49.7885 67.5684 53.7073 67.5684 53.7073L55.4569 50.3696Z" fill="#263238"/>
<path opacity="0.4" d="M55.4569 50.3696C55.4569 50.3696 54.3852 45.7858 61.2673 47.7872C68.1494 49.7885 67.5684 53.7073 67.5684 53.7073L55.4569 50.3696Z" fill="black"/>
<path d="M72.5265 61.8354C72.5265 63.4429 71.8809 65.7671 71.2353 68.3689C70.9384 69.602 70.6672 70.8867 70.4864 72.1908C69.5116 79.2924 69.1952 86.7749 69.1952 86.7749C65.3961 87.6036 61.4669 87.6409 57.6526 86.8845C53.8384 86.1281 50.2208 84.5942 47.0254 82.3783C47.0254 82.3783 49.7304 80.0865 49.1752 64.2112C48.9235 57.058 46.3411 48.5554 58.162 49.8918C68.1429 51.0216 71.5 54.1205 72.307 58.9689C72.307 59.027 72.307 59.0916 72.307 59.1562L72.3651 59.6081C72.4628 60.3467 72.5166 61.0904 72.5265 61.8354Z" fill="#263238"/>
<path opacity="0.4" d="M72.5269 61.8354C72.5269 63.4429 71.8813 65.7671 71.2357 68.3689C68.5371 65.1409 65.832 59.04 65.832 59.04L68.0594 55.7603L71.9846 57.5874C72.1202 58.0409 72.228 58.5023 72.3074 58.9689C72.3074 59.027 72.3074 59.0916 72.3074 59.1562L72.3655 59.6081C72.4631 60.3467 72.517 61.0904 72.5269 61.8354Z" fill="black"/>
<path d="M76.6389 59.0335C76.6389 59.0335 80.5125 62.8554 82.0426 64.392L95.4323 60.3763C95.5201 59.6841 95.813 59.0339 96.2731 58.5093C96.7333 57.9847 97.3398 57.6097 98.0147 57.4324L98.9573 57.1871L100.972 56.6319C101.347 56.5303 101.742 56.5287 102.118 56.6273C102.494 56.7258 102.838 56.921 103.115 57.1935C103.44 57.5134 103.657 57.9258 103.738 58.3743C103.819 58.8228 103.759 59.2853 103.567 59.6984C103.168 60.5565 102.555 61.2969 101.785 61.8478C101.016 62.3987 100.117 62.7414 99.1768 62.8425L97.2787 63.0427C97.2787 63.0427 85.3287 69.5696 81.4809 69.2081C77.6332 68.8466 72.5781 64.2176 72.5781 64.2176L76.6389 59.0335Z" fill="#B97964"/>
<path d="M67.0197 52.0804C70.3252 52.5646 73.7017 55.1922 78.9439 59.8276C77.702 62.4203 75.7868 64.6321 73.3982 66.2319C73.3982 66.2319 70.3445 64.8955 66.7034 60.2666C62.3004 54.6628 65.0184 51.7834 67.0197 52.0804Z" fill="#263238"/>
</svg>
