<svg width="306" height="200" viewBox="0 0 306 200" fill="none" xmlns="http://www.w3.org/2000/svg">
<path d="M69.6501 67.8039C70.3797 67.1226 70.3169 65.6488 70.0221 64.8563C68.9494 61.9571 66.8909 60.8022 62.0637 60.8022H61.5805C61.5418 57.8208 58.3382 55.2694 56.0816 55.0278C49.5293 54.3272 35.5645 54.0373 31.2302 55.4144C29.0606 56.1054 27.0987 57.8304 27.0987 60.8505C27.0987 60.9085 27.0987 60.9665 27.0987 61.0293C26.5378 60.9395 25.9707 60.8943 25.4027 60.894C21.0538 60.894 17.4925 63.484 17.4925 66.6925C17.4937 67.1233 17.5588 67.5516 17.6858 67.9633H17.4925C17.2896 67.9633 17.0867 67.9633 16.8885 67.9633H16.4488C16.1091 67.9657 15.7712 68.0128 15.4437 68.1035C10.8968 68.7993 7.48047 71.771 7.48047 75.3226C7.48047 79.396 10.8629 82.6046 19.0775 82.6046H69.9835C74.4193 82.6046 77.3476 78.2557 77.3476 75.1728C77.3476 71.3748 73.9845 68.2436 69.6501 67.8039Z" fill="white"/>
<path d="M289.994 114.52C290.723 113.834 290.661 112.361 290.366 111.568C289.293 108.669 287.235 107.519 282.407 107.519H281.924C281.886 104.537 278.682 101.991 276.425 101.749C269.873 101.044 255.908 100.783 251.574 102.136C249.404 102.822 247.443 104.552 247.443 107.572C247.443 107.63 247.443 107.688 247.443 107.746C246.882 107.656 246.314 107.611 245.746 107.611C241.398 107.611 237.836 110.201 237.836 113.409C237.837 113.842 237.902 114.272 238.03 114.685H237.836C237.633 114.685 237.43 114.685 237.232 114.685H236.793C236.453 114.685 236.114 114.732 235.788 114.825C231.241 115.521 227.824 118.488 227.824 122.044C227.824 126.117 231.207 129.321 239.421 129.321H290.327C294.763 129.321 297.691 124.972 297.691 121.894C297.691 118.087 294.328 114.955 289.994 114.52Z" fill="white"/>
<path d="M168.335 144.315H140.613V168.654H168.335V144.315Z" fill="#455A64"/>
<path d="M205.987 167.901H102.957V175.646H205.987V167.901Z" fill="#263238"/>
<path d="M205.987 173.433H102.957V175.646H205.987V173.433Z" fill="#455A64"/>
<path d="M261.2 26.6635H47.7422V146.127H261.2V26.6635Z" fill="#37474F"/>
<path d="M254.491 30.8577H54.457V134.032H254.491V30.8577Z" fill="#FFE2D7"/>
<path d="M254.763 30.8577H54.6855V40.0386H254.763V30.8577Z" fill="#FF6C37"/>
<path d="M98.7392 43.5081H59.1016V130.056H98.7392V43.5081Z" fill="white"/>
<path d="M96.4293 46.1512H61.416V48.7944H96.4293V46.1512Z" fill="#B8D0FF"/>
<path d="M96.4293 51.109H61.416V53.7522H96.4293V51.109Z" fill="#B8D0FF"/>
<path d="M96.4293 92.3992H61.416V95.0423H96.4293V92.3992Z" fill="white"/>
<path d="M96.4293 97.7676H61.416V99.2559H96.4293V97.7676Z" fill="white"/>
<path d="M96.4293 100.739H61.416V102.228H96.4293V100.739Z" fill="white"/>
<path d="M96.4293 104.044H61.416V105.533H96.4293V104.044Z" fill="white"/>
<path d="M91.9702 59.3669H65.877V85.7936H91.9702V59.3669Z" fill="#B8D0FF"/>
<path d="M68.002 110.123V122.295L78.5117 116.212L68.002 110.123Z" fill="#B8D0FF"/>
<path d="M81.2754 110.123V122.295L91.7852 116.212L81.2754 110.123Z" fill="#B8D0FF"/>
<path d="M249.35 44.1702H103.016V129.394H249.35V44.1702Z" fill="white"/>
<path d="M129.771 59.367C129.771 61.3921 129.171 63.3718 128.046 65.0556C126.921 66.7394 125.321 68.0518 123.451 68.8268C121.58 69.6018 119.521 69.8045 117.535 69.4094C115.548 69.0144 113.724 68.0392 112.292 66.6072C110.86 65.1752 109.885 63.3508 109.49 61.3646C109.095 59.3784 109.297 57.3196 110.072 55.4486C110.847 53.5777 112.16 51.9785 113.844 50.8534C115.527 49.7283 117.507 49.1278 119.532 49.1278C122.248 49.1278 124.852 50.2066 126.772 52.1268C128.693 54.047 129.771 56.6514 129.771 59.367Z" fill="#E1EDFF"/>
<path d="M156.531 59.367C156.532 61.3937 155.932 63.3751 154.806 65.0606C153.681 66.7461 152.081 68.0598 150.208 68.8356C148.336 69.6114 146.276 69.8144 144.288 69.4189C142.3 69.0234 140.474 68.0472 139.042 66.6137C137.609 65.1803 136.634 63.3541 136.239 61.3662C135.844 59.3783 136.048 57.318 136.825 55.446C137.602 53.5741 138.916 51.9746 140.602 50.8499C142.288 49.7252 144.27 49.1259 146.297 49.1278C149.011 49.1304 151.613 50.2101 153.532 52.1299C155.451 54.0497 156.53 56.6526 156.531 59.367Z" fill="#E1EDFF"/>
<path d="M183.287 59.367C183.288 61.3935 182.688 63.3747 181.562 65.0601C180.437 66.7454 178.837 68.0592 176.965 68.8351C175.093 69.6111 173.033 69.8144 171.046 69.4192C169.058 69.0241 167.232 68.0484 165.799 66.6154C164.366 65.1825 163.391 63.3568 162.995 61.3692C162.6 59.3816 162.804 57.3214 163.58 55.4494C164.355 53.5773 165.669 51.9775 167.355 50.8522C169.04 49.727 171.021 49.1269 173.048 49.1278C175.763 49.1278 178.368 50.2066 180.288 52.1268C182.208 54.047 183.287 56.6514 183.287 59.367Z" fill="#E1EDFF"/>
<path d="M204.798 52.8727H190.553V54.8538H204.798V52.8727Z" fill="#B8D0FF"/>
<path d="M224.765 52.8727H210.52V54.8538H224.765V52.8727Z" fill="#B8D0FF"/>
<path d="M244.725 52.8727H230.48V54.8538H244.725V52.8727Z" fill="#B8D0FF"/>
<path d="M175.41 78.1976H109.293V80.8408H175.41V78.1976Z" fill="#E1EDFF"/>
<path d="M166.998 84.1411H109.293V86.4557H166.998V84.1411Z" fill="#E1EDFF"/>
<path d="M216.981 90.0894H109.293V93.0611H216.981V90.0894Z" fill="#E1EDFF"/>
<path d="M136.101 96.3615H109.293V99.6666H136.101V96.3615Z" fill="#B8D0FF"/>
<path d="M183.354 104.62H109.293V108.582H183.354V104.62Z" fill="#E1EDFF"/>
<path d="M143.374 113.211H109.293V114.202H143.374V113.211Z" fill="#B8D0FF"/>
<path d="M169.269 119.154H109.293V123.117H169.269V119.154Z" fill="#B8D0FF"/>
<path d="M242.082 72.5779H224.904V123.117H242.082V72.5779Z" fill="#B8D0FF"/>
<path d="M219.373 33.3849C220.281 32.4185 220.204 30.4132 219.856 29.3211C218.517 25.3298 215.961 23.7352 209.965 23.7352C209.759 23.7352 209.551 23.7352 209.341 23.7352C209.298 19.628 205.316 16.115 202.514 15.7816C194.376 14.8152 177.024 14.419 171.641 16.3132C168.94 17.2796 166.51 19.6666 166.51 23.8029C166.51 23.885 166.51 23.9672 166.51 24.0493C165.813 23.9247 165.106 23.8617 164.398 23.8609C158.972 23.8609 154.575 27.4269 154.575 31.829C154.574 32.422 154.655 33.0123 154.816 33.583H154.575C154.323 33.583 154.091 33.583 153.826 33.583H153.275C152.852 33.5843 152.431 33.6495 152.028 33.7763C146.379 34.7427 142.137 38.821 142.137 43.7207C142.137 49.3308 146.321 53.7473 156.565 53.7473H219.788C225.297 53.7473 228.935 47.77 228.935 43.513C228.926 38.304 224.756 33.9889 219.373 33.3849Z" fill="white"/>
<path d="M155.811 23.194L153.787 19.6183C153.547 19.2169 153.159 18.9266 152.706 18.8107C152.254 18.6948 151.773 18.7628 151.371 18.9998L150.211 19.657C149.86 19.861 149.454 19.9519 149.05 19.9173C148.645 19.8827 148.261 19.7243 147.95 19.4637C147.479 19.07 146.987 18.7022 146.476 18.362C146.141 18.1426 145.888 17.8199 145.753 17.4432C145.619 17.0664 145.611 16.656 145.732 16.2745L146.099 15.023C146.168 14.8054 146.192 14.5758 146.168 14.3487C146.145 14.1216 146.075 13.9017 145.962 13.703C145.85 13.5043 145.697 13.3309 145.515 13.1939C145.332 13.0568 145.123 12.959 144.901 12.9065L140.837 11.8676C140.379 11.7516 139.894 11.8164 139.483 12.0486C139.072 12.2807 138.766 12.6624 138.629 13.1143L138.252 14.361C138.132 14.7561 137.896 15.1058 137.575 15.3645C137.253 15.6231 136.861 15.7786 136.449 15.8106C135.814 15.8593 135.181 15.9432 134.555 16.0619C134.162 16.141 133.755 16.0961 133.388 15.9334C133.022 15.7706 132.716 15.4981 132.511 15.1535L131.883 14.0421C131.645 13.6397 131.256 13.3485 130.803 13.2325C130.35 13.1165 129.869 13.1853 129.467 13.4236L125.737 15.5255C125.335 15.7481 125.037 16.1192 124.906 16.5591C124.775 16.9991 124.822 17.4728 125.036 17.8788L125.664 18.9901C125.855 19.3434 125.93 19.7472 125.881 20.1455C125.832 20.5438 125.66 20.9169 125.389 21.2129C124.959 21.6888 124.558 22.1889 124.185 22.7108C123.946 23.044 123.612 23.2976 123.227 23.4389C122.842 23.5802 122.423 23.6026 122.025 23.5033L120.759 23.1796C120.3 23.0648 119.815 23.1306 119.403 23.3635C118.991 23.5964 118.685 23.9786 118.546 24.4311L117.343 28.4417C117.275 28.6593 117.253 28.8885 117.277 29.1152C117.301 29.3418 117.372 29.5611 117.484 29.7595C117.596 29.9578 117.748 30.131 117.93 30.2684C118.112 30.4058 118.32 30.5044 118.542 30.5581L119.803 30.8867C120.193 30.9789 120.542 31.1958 120.798 31.5045C121.053 31.8133 121.201 32.1969 121.219 32.5973C121.247 33.2142 121.311 33.829 121.412 34.4383C121.475 34.8397 121.412 35.2508 121.232 35.615C121.052 35.9793 120.764 36.2789 120.407 36.4726L119.237 37.1105C118.827 37.3315 118.521 37.7067 118.386 38.1535C118.252 38.6002 118.301 39.0819 118.522 39.4927L120.542 43.0636C120.66 43.2629 120.816 43.4369 121.002 43.5757C121.187 43.7145 121.398 43.8153 121.623 43.8723C121.847 43.9293 122.081 43.9415 122.31 43.908C122.539 43.8745 122.759 43.7961 122.958 43.6773L124.118 43.0298C124.468 42.8244 124.874 42.7323 125.278 42.766C125.683 42.7997 126.068 42.9577 126.379 43.2182C126.848 43.6208 127.342 43.9936 127.858 44.3344C128.192 44.5553 128.445 44.8791 128.578 45.2567C128.712 45.6342 128.718 46.045 128.597 46.4267L128.22 47.6686C128.153 47.8875 128.131 48.1178 128.157 48.3453C128.182 48.5729 128.253 48.793 128.366 48.992C128.479 49.1911 128.632 49.365 128.814 49.503C128.997 49.641 129.206 49.7403 129.428 49.7947L133.492 50.8287C133.95 50.9427 134.434 50.8777 134.845 50.6469C135.256 50.4161 135.564 50.0369 135.705 49.5869L136.077 48.3354C136.196 47.9407 136.431 47.5911 136.752 47.3324C137.072 47.0737 137.464 46.918 137.875 46.8858C138.51 46.8337 139.142 46.7482 139.769 46.6297C140.163 46.5499 140.572 46.595 140.939 46.7587C141.307 46.9224 141.614 47.1965 141.818 47.5429L142.446 48.6495C142.684 49.0518 143.073 49.343 143.526 49.459C143.979 49.575 144.46 49.5063 144.862 49.268L148.587 47.166C148.791 47.0566 148.971 46.9081 149.117 46.729C149.262 46.5499 149.371 46.3438 149.437 46.1225C149.503 45.9011 149.525 45.6689 149.501 45.4392C149.477 45.2095 149.408 44.9868 149.298 44.7838L148.713 43.6918C148.521 43.3395 148.444 42.9363 148.491 42.538C148.539 42.1397 148.709 41.7661 148.979 41.469C149.408 40.9963 149.81 40.4994 150.182 39.9807C150.421 39.6467 150.754 39.3921 151.139 39.25C151.525 39.1078 151.944 39.0846 152.342 39.1834L153.613 39.5023C154.071 39.6159 154.554 39.5501 154.965 39.3182C155.376 39.0864 155.682 38.7062 155.821 38.2557L157.024 34.245C157.092 34.0274 157.115 33.7982 157.09 33.5715C157.066 33.3449 156.996 33.1256 156.884 32.9272C156.771 32.7289 156.619 32.5557 156.437 32.4183C156.256 32.2809 156.047 32.1823 155.826 32.1286L154.56 31.8048C154.171 31.7106 153.823 31.4922 153.57 31.1827C153.316 30.8731 153.17 30.4893 153.154 30.0894C153.124 29.474 153.057 28.8609 152.956 28.2532C152.892 27.8512 152.955 27.4393 153.135 27.0742C153.315 26.7091 153.603 26.4087 153.961 26.2141L155.12 25.5618C155.524 25.3375 155.823 24.9631 155.952 24.5199C156.082 24.0766 156.031 23.6002 155.811 23.194ZM142.456 39.0674C137.445 42.4113 130.767 40.7055 128.336 35.4627C126.428 31.3313 127.954 26.2528 131.897 23.6241C136.899 20.2803 143.577 21.986 146.007 27.2337C147.916 31.3506 146.389 36.4243 142.456 39.0578V39.0674Z" fill="#407BFF"/>
<path d="M171.907 31.3458L170.578 28.9925C170.419 28.726 170.161 28.5332 169.861 28.4562C169.56 28.3793 169.241 28.4244 168.974 28.5818L168.201 29.0167C167.967 29.1523 167.697 29.2129 167.427 29.1904C167.158 29.168 166.901 29.0635 166.693 28.8911C166.387 28.6231 166.064 28.3746 165.727 28.1469C165.509 27.9977 165.344 27.7826 165.257 27.533C165.17 27.2834 165.165 27.0126 165.243 26.7601L165.49 25.9242C165.539 25.7757 165.556 25.6186 165.539 25.4632C165.523 25.3077 165.474 25.1575 165.396 25.0224C165.317 24.8873 165.211 24.7703 165.084 24.6792C164.957 24.5881 164.812 24.5249 164.659 24.4939L161.958 23.8029C161.656 23.7302 161.338 23.7752 161.069 23.9287C160.8 24.0823 160.599 24.3328 160.508 24.6292L160.257 25.4603C160.176 25.7224 160.019 25.9544 159.805 26.1266C159.592 26.2988 159.332 26.4033 159.058 26.4267C158.635 26.4577 158.214 26.5125 157.797 26.591C157.536 26.6433 157.266 26.6127 157.023 26.5035C156.781 26.3943 156.578 26.212 156.444 25.9822L156.029 25.2428C155.87 24.9763 155.612 24.7835 155.311 24.7065C155.011 24.6296 154.692 24.6747 154.424 24.8321L151.946 26.2286C151.672 26.3752 151.467 26.6243 151.377 26.9213C151.286 27.2183 151.317 27.5391 151.462 27.8135L151.883 28.5528C152.012 28.787 152.064 29.0563 152.032 29.322C151.999 29.5877 151.882 29.8361 151.699 30.0314C151.417 30.3394 151.15 30.662 150.902 30.9979C150.742 31.2218 150.517 31.392 150.259 31.486C150 31.5801 149.719 31.5935 149.452 31.5246L148.611 31.3071C148.31 31.2393 147.993 31.2871 147.725 31.4409C147.457 31.5948 147.256 31.8435 147.162 32.1382L146.36 34.8104C146.315 34.955 146.301 35.1073 146.317 35.2577C146.334 35.4082 146.381 35.5537 146.455 35.6854C146.53 35.817 146.631 35.932 146.751 36.0234C146.872 36.1147 147.01 36.1804 147.157 36.2165L147.998 36.434C148.262 36.4911 148.5 36.6339 148.675 36.84C148.849 37.0462 148.951 37.3044 148.964 37.5743C148.981 37.9842 149.025 38.3926 149.095 38.7968C149.136 39.0648 149.093 39.3388 148.973 39.5818C148.853 39.8247 148.661 40.0248 148.423 40.1547L147.66 40.5847C147.523 40.6563 147.402 40.7544 147.304 40.8731C147.206 40.9918 147.132 41.1288 147.087 41.2762C147.042 41.4237 147.027 41.5785 147.042 41.7319C147.057 41.8853 147.103 42.0341 147.176 42.1696L148.52 44.547C148.598 44.6796 148.701 44.7953 148.825 44.8876C148.948 44.9798 149.088 45.0467 149.237 45.0845C149.386 45.1222 149.541 45.13 149.694 45.1075C149.846 45.0849 149.992 45.0323 150.124 44.9529L150.897 44.5229C151.131 44.3866 151.401 44.3256 151.671 44.3481C151.94 44.3706 152.197 44.4754 152.405 44.6485C152.711 44.9166 153.034 45.1651 153.371 45.3926C153.591 45.5403 153.757 45.7553 153.844 46.0054C153.931 46.2555 153.935 46.5271 153.854 46.7794L153.603 47.6057C153.558 47.7514 153.544 47.9045 153.561 48.0559C153.577 48.2072 153.625 48.3536 153.7 48.4861C153.775 48.6186 153.876 48.7344 153.997 48.8264C154.119 48.9185 154.257 48.9849 154.405 49.0215L157.106 49.7125C157.412 49.7871 157.734 49.7427 158.007 49.5883C158.281 49.434 158.486 49.1812 158.58 48.8814L158.826 48.0551C158.906 47.792 159.062 47.5589 159.276 47.3865C159.49 47.214 159.751 47.1102 160.025 47.0887C160.445 47.05 160.866 46.9969 161.286 46.9196C161.548 46.8639 161.82 46.8924 162.065 47.0008C162.31 47.1093 162.514 47.2922 162.649 47.5236L163.064 48.2629C163.224 48.5299 163.483 48.7227 163.785 48.7988C164.086 48.8749 164.406 48.8281 164.673 48.6688L167.152 47.2723C167.289 47.2012 167.41 47.1034 167.509 46.9848C167.608 46.8662 167.682 46.729 167.727 46.5814C167.772 46.4338 167.787 46.2787 167.771 46.1252C167.755 45.9717 167.709 45.8228 167.635 45.6874L167.225 44.9529C167.094 44.7197 167.04 44.451 167.071 44.1853C167.103 43.9197 167.217 43.6708 167.399 43.4743C167.685 43.161 167.951 42.8301 168.196 42.4837C168.357 42.2608 168.581 42.0914 168.84 41.9975C169.098 41.9035 169.379 41.8895 169.646 41.957L170.486 42.1696C170.792 42.2442 171.114 42.1998 171.387 42.0455C171.661 41.8911 171.866 41.6383 171.96 41.3385L172.762 38.6712C172.807 38.5262 172.821 38.3737 172.805 38.2229C172.789 38.0722 172.742 37.9263 172.667 37.7943C172.592 37.6622 172.492 37.5468 172.371 37.4549C172.25 37.3631 172.112 37.2969 171.965 37.2602L171.119 37.0428C170.862 36.9802 170.632 36.8356 170.463 36.6308C170.295 36.426 170.198 36.172 170.187 35.9073C170.165 35.4977 170.121 35.0897 170.056 34.6847C170.013 34.4172 170.054 34.143 170.174 33.8998C170.293 33.6566 170.485 33.4565 170.723 33.3269L171.496 32.892C171.749 32.7355 171.933 32.4881 172.009 32.2006C172.086 31.9131 172.049 31.6072 171.907 31.3458Z" fill="#FFE2D7"/>
<path d="M73.6227 197.26C73.6227 198.773 65.6159 200 55.7439 200C45.872 200 37.8652 198.773 37.8652 197.26C37.8652 195.748 45.8672 194.52 55.7439 194.52C65.6207 194.52 73.6227 195.748 73.6227 197.26Z" fill="#B8D0FF"/>
<path d="M68.017 191.65C69.1091 193.317 71.2593 193.858 72.6317 195.289C72.7386 195.383 72.8201 195.503 72.8684 195.637C72.8935 195.789 72.8635 195.945 72.7838 196.077C72.7041 196.209 72.5799 196.308 72.4335 196.357C72.1419 196.432 71.836 196.432 71.5444 196.357L66.5046 195.588C66.3206 195.572 66.1417 195.519 65.9779 195.434C65.8223 195.303 65.6947 195.143 65.6025 194.962C65.5104 194.781 65.4556 194.583 65.4415 194.38C65.1951 193.167 64.9583 191.964 64.707 190.751C65.8445 190.896 66.9576 191.192 68.017 191.631" fill="#132444"/>
<path d="M63.9974 191.732H63.5142C61.8326 183.006 63.722 173.419 61.3253 164.784C60.5811 162.112 59.4407 159.594 58.426 157.028C55.1257 148.736 52.2651 137.574 51.5645 128.553C54.9131 127.775 58.1796 127.586 61.4509 126.084C67.5248 146.306 70.3129 169.456 70.3903 190.795C68.292 191.322 66.148 191.645 63.9877 191.761" fill="#5D81EC"/>
<g style="mix-blend-mode:multiply" opacity="0.4">
<path d="M56.9021 143.353C59.5404 147.538 60.9514 152.443 62.5266 157.12C66.2956 168.33 66.2377 180.406 66.0106 191.558C65.3389 191.636 64.6624 191.694 63.9859 191.732H63.5027C61.8211 183.006 63.7105 173.419 61.3138 164.784C60.5696 162.112 59.4293 159.594 58.4145 157.028C56.2779 151.641 54.6725 146.057 53.6211 140.358C54.9808 141.019 56.1203 142.059 56.9021 143.353Z" fill="#5D81EC"/>
</g>
<path d="M43.4563 192.592C44.5483 194.26 46.6986 194.806 48.0709 196.231C48.1779 196.325 48.2593 196.445 48.3077 196.579C48.3308 196.731 48.3 196.886 48.2205 197.018C48.1411 197.149 48.018 197.249 47.8728 197.299C47.5812 197.374 47.2753 197.374 46.9837 197.299L41.9245 196.55C41.7402 196.535 41.5609 196.482 41.3978 196.395C41.2418 196.265 41.1139 196.105 41.0217 195.924C40.9295 195.742 40.875 195.545 40.8614 195.342C40.6166 194.134 40.3718 192.924 40.127 191.713C41.2644 191.858 42.3776 192.154 43.4369 192.592" fill="#132444"/>
<path d="M58.7495 125.919C57.6961 130.346 54.1977 150.355 53.5357 153.245C52.9897 155.627 51.9846 157.859 51.1825 160.16C50.4722 162.189 49.9261 164.272 49.3946 166.354C47.1815 175.091 45.2873 183.948 44.635 192.931C42.7176 192.51 40.7445 192.404 38.793 192.617C37.7155 182.469 37.2516 172.138 39.2279 162.15C40.1122 157.685 41.4748 153.317 41.9967 148.794C42.6394 143.262 41.9967 137.589 43.0598 132.124C43.089 131.501 43.3407 130.91 43.769 130.458C44.1974 130.006 44.7739 129.722 45.3936 129.659C49.8198 128.297 54.2847 127.05 58.7495 125.9" fill="#407BFF"/>
<path d="M47.2382 130.365C47.127 136.647 47.0111 142.972 45.7161 149.118C44.5854 154.482 42.5704 159.638 41.5798 165.03C39.9659 173.781 41.0966 182.778 42.2611 191.607" stroke="#132444" stroke-width="0.5" stroke-miterlimit="10"/>
<g style="mix-blend-mode:multiply" opacity="0.3">
<path d="M41.9959 148.828C42.5564 143.996 42.1457 139.067 42.7352 134.255C44.4554 138.12 44.9338 142.029 44.4506 146.369C43.6533 153.506 41.1454 160.314 40.4883 167.475C39.9809 172.984 39.6813 178.671 40.3771 184.175C40.7299 186.973 41.3822 191.906 44.6487 192.781V192.964C42.7312 192.544 40.7582 192.438 38.8067 192.65C37.7291 182.503 37.2653 172.172 39.2416 162.184C40.1114 157.705 41.474 153.337 41.9959 148.828Z" fill="#5D81EC"/>
</g>
<path d="M57.8691 98.3087C62.2136 102.023 66.756 105.499 71.4763 108.722C73.5657 105.053 75.3437 101.216 76.7916 97.2505L79.8696 98.8209C79.2805 102.987 78.0532 107.037 76.2311 110.829C75.7044 111.926 75.081 113.047 74.076 113.67C72.0755 114.907 69.558 113.728 67.5236 112.549L61.0003 108.775C60.6571 108.606 60.3501 108.371 60.0967 108.084C59.7818 107.605 59.597 107.052 59.5604 106.48C59.2043 103.717 58.6389 100.986 57.8691 98.3087Z" fill="#FFBC96"/>
<path d="M57.3872 97.6372C60.5721 99.3223 63.4781 101.488 66.0028 104.059C66.3091 104.306 66.511 104.66 66.5682 105.05C66.5498 105.319 66.4651 105.58 66.3217 105.808L63.9057 110.413C63.8539 110.532 63.7682 110.633 63.6592 110.703C63.5103 110.745 63.3512 110.727 63.2147 110.655C60.6875 109.688 57.9864 108.63 56.4981 106.374C55.5607 104.948 55.2224 103.218 55.0485 101.542C54.9422 100.546 54.9035 99.4734 55.4157 98.6181C55.9279 97.7628 57.2084 97.2989 57.3485 97.6517" fill="black"/>
<path d="M76.2598 98.6181C76.5497 97.5551 76.9169 95.9798 76.7092 95.11C76.569 94.5253 76.4531 93.4623 76.7092 92.9452C76.772 92.8148 76.9459 92.6843 77.0957 92.7761C77.1381 92.8135 77.1702 92.8611 77.1888 92.9144C77.2074 92.9677 77.212 93.0249 77.202 93.0805C77.202 93.4961 77.5886 95.1487 77.5693 94.7621C78.0476 93.9049 78.4207 92.9931 78.6806 92.0465C78.7175 91.8572 78.7968 91.6788 78.9126 91.5246C79.043 91.3797 79.3426 91.2009 79.4924 91.3652C79.6422 91.5294 79.0769 93.2593 78.8643 94.2064L79.8307 91.9692C79.908 91.7855 80.1399 91.5633 80.3139 91.7179C80.4878 91.8725 79.8645 93.6991 79.6374 94.6945L80.6328 92.607C80.7633 92.3267 81.1643 91.8725 81.2706 92.1866C81.4688 92.7568 80.7391 94.1484 80.3767 95.1873L81.145 93.931C81.2271 93.7909 81.4301 93.6411 81.5654 93.7715C81.5944 93.8047 81.6139 93.8452 81.6215 93.8887C81.6292 93.9321 81.6248 93.9768 81.6089 94.018C81.1933 95.8348 80.5458 97.183 79.821 99.1303C78.8159 98.5601 77.1392 99.4299 76.2791 98.6181" fill="#FFBC96"/>
<path d="M56.9905 97.6854C54.9417 96.5692 52.5884 97.5791 50.2884 97.9656C46.5387 98.5938 42.6488 99.28 39.5466 101.474C39.2759 101.651 39.0374 101.873 38.8411 102.131C38.6024 102.554 38.4806 103.032 38.4884 103.518C38.2081 109.152 41.7501 114.269 42.5425 119.85C42.7422 121.564 42.8117 123.291 42.7503 125.016L42.6778 131.297C49.3525 129.326 56.0724 127.517 62.8373 125.871C62.3251 117.101 60.2135 108.509 58.1115 99.9758C57.8457 98.9079 57.3335 97.8545 56.9905 97.666" fill="black"/>
<path d="M38.487 103.518C38.4785 103.032 38.6021 102.552 38.8446 102.131C39.0378 101.872 39.275 101.65 39.5452 101.474C39.869 101.247 40.2024 101.034 40.5454 100.841C41.3016 101.461 42.0033 102.145 42.6426 102.885C43.7473 104.234 44.6045 105.769 45.1746 107.417C46.4261 110.737 47.0156 114.255 48.1463 117.608C48.3739 118.398 48.7193 119.149 49.1707 119.836C49.3957 120.165 49.6988 120.434 50.053 120.618C50.4071 120.801 50.8012 120.895 51.2002 120.889C52.0431 120.783 52.8318 120.416 53.4568 119.84C54.1575 119.272 54.8164 118.653 55.4283 117.99C56.0468 117.304 56.5831 116.54 57.163 115.84C57.4288 115.506 57.7573 115.24 58.0086 114.873C58.2309 114.508 58.4232 114.125 58.5836 113.728C58.948 112.845 59.1541 111.904 59.1925 110.949C59.277 109.954 59.277 108.954 59.1925 107.958C59.0484 106.038 58.7903 104.127 58.4193 102.237C58.1514 100.557 57.5483 98.9486 56.646 97.5066C56.7619 97.5597 56.8731 97.6081 56.9842 97.6709C57.3273 97.8593 57.8395 98.9127 58.1053 99.9806C60.2072 108.514 62.3188 117.106 62.831 125.876C56.0661 127.519 49.3463 129.327 42.6716 131.302L42.744 125.02C42.8078 123.296 42.7384 121.569 42.5363 119.855C41.7438 114.274 38.1874 109.157 38.4822 103.523" fill="black"/>
<path d="M55.9609 107.441C55.2699 109.302 55.4777 111.394 54.893 113.283C54.2455 115.303 52.6992 116.912 51.0273 118.222" stroke="#26395E" stroke-width="0.5" stroke-miterlimit="10"/>
<path d="M53.3088 103.648C53.3098 105.404 53.1022 107.155 52.6903 108.862C52.2623 110.584 51.2343 112.097 49.791 113.129" stroke="#26395E" stroke-width="0.5" stroke-miterlimit="10"/>
<path d="M49.321 95.6753C49.5023 96.9736 49.9748 98.2141 50.703 99.3042C49.9396 100.063 48.7702 100.203 47.6588 100.222C47.1234 100.246 46.5872 100.199 46.0642 100.082C46.005 100.069 45.9501 100.04 45.9048 100C45.8678 99.9523 45.8444 99.8956 45.8371 99.8357C45.4409 97.5324 45.0753 95.2243 44.7402 92.9113C45.8419 93.0998 46.9823 92.7519 48.0937 92.9113C48.2015 92.9184 48.306 92.9516 48.3981 93.008C48.5001 93.0878 48.5772 93.1951 48.6204 93.3172C48.9616 94.0722 49.1973 94.8705 49.321 95.6898" fill="#FFBC96"/>
<path d="M46.4712 96.4291C45.5386 95.4627 45.3839 94.0518 44.7461 92.9066C45.8478 93.095 46.9834 92.7471 48.0947 92.9066C48.2025 92.9136 48.307 92.9468 48.3991 93.0032C48.5011 93.0831 48.5782 93.1903 48.6214 93.3124C48.9626 94.0675 49.1983 94.8658 49.3221 95.685C49.4249 96.3997 49.6148 97.0991 49.8874 97.7676C49.2564 97.8043 48.6249 97.705 48.0355 97.4766C47.4462 97.2482 46.9127 96.8959 46.4712 96.4436" fill="#D75246"/>
<path d="M49.8149 89.5965C50.1725 90.3455 50.2982 91.1718 50.6412 91.9352C51.0858 92.9741 51.8831 94.0034 51.6076 95.1051C51.4632 95.5497 51.1891 95.9409 50.8206 96.2285C50.452 96.5161 50.0059 96.687 49.5395 96.719C48.5933 96.7683 47.6583 96.4958 46.8867 95.9459C46.1457 95.4546 45.5154 94.814 45.0361 94.0652C44.5568 93.3163 44.2392 92.4757 44.1034 91.597C44.021 91.3052 44.0202 90.9963 44.1011 90.7041C44.1821 90.4119 44.3417 90.1474 44.5625 89.9396C45.1795 89.3375 45.9317 88.8918 46.7562 88.6398C48.0029 88.1856 49.4477 88.8379 49.8053 89.582" fill="#FFBC96"/>
<path d="M47.6876 87.5429C48.2175 87.5889 48.7195 87.8003 49.1227 88.1471C49.5259 88.4939 49.8099 88.9587 49.9345 89.4758C49.9613 89.5458 49.9613 89.6232 49.9345 89.6932C49.8572 89.814 49.6736 89.7947 49.5431 89.7367C49.424 89.6558 49.2807 89.6183 49.1372 89.6304C48.9101 89.6884 48.8956 89.9928 48.8183 90.2054C48.7113 90.392 48.5583 90.5481 48.3739 90.6589C48.1896 90.7697 47.9799 90.8315 47.7649 90.8384C47.3411 90.9273 46.9008 90.8955 46.4941 90.7466C46.2283 90.6307 46.0109 90.4374 45.7258 90.3407C45.5937 90.28 45.4448 90.2665 45.304 90.3026C45.1633 90.3387 45.0392 90.4221 44.9526 90.5388C44.7835 90.8529 45.0879 91.2492 44.9526 91.5826C44.8951 91.6913 44.8088 91.7822 44.7031 91.8453C44.5975 91.9083 44.4765 91.9412 44.3535 91.9401C44.1266 91.9422 43.9031 91.886 43.7043 91.7768C43.5054 91.6677 43.3379 91.5093 43.2179 91.3168C42.9927 90.9304 42.9154 90.4754 43.0005 90.0363C43.0853 89.5699 43.3015 89.1373 43.6238 88.7896C44.3873 87.9633 45.6001 87.7266 46.7308 87.5381C47.1754 87.4656 47.6731 87.4028 47.6973 87.5381" fill="#132444"/>
<path d="M46.5672 87.5961L49.7564 86.7456C50.0463 86.6505 50.3501 86.6048 50.6551 86.6103C51.0735 86.6636 51.46 86.862 51.7472 87.1708C52.0676 87.4975 52.2903 87.9072 52.3902 88.3538C52.4901 88.8004 52.4632 89.2659 52.3125 89.698C52.2178 90.0094 52.026 90.2823 51.7653 90.477C51.5045 90.6717 51.1883 90.778 50.8629 90.7804C50.1767 90.7224 49.737 90.0701 49.1137 89.785C49.0495 89.7488 48.9782 89.7271 48.9048 89.7212C48.8314 89.7154 48.7575 89.7256 48.6885 89.7512C48.6219 89.8016 48.5619 89.86 48.5097 89.9251C48.4076 90.0187 48.2845 90.0865 48.1508 90.1226C48.0171 90.1588 47.8767 90.1623 47.7414 90.1329C47.4708 90.0764 47.2234 89.9401 47.0311 89.7415C46.7476 89.4716 46.5504 89.1238 46.4644 88.742C46.3784 88.3601 46.4075 87.9614 46.5479 87.5961" fill="#132444"/>
<path d="M45.2473 89.9735C45.117 90.6577 45.1602 91.3638 45.373 92.0271C45.4079 92.1137 45.4307 92.2048 45.4406 92.2977C45.4401 92.405 45.4204 92.5114 45.3826 92.6118C45.2425 93.095 45.1072 93.5492 44.9671 94.0179C44.1118 93.6024 43.4063 92.6408 43.0342 90.8916C42.9714 90.5871 43.0342 90.5388 43.1695 90.2585C43.4063 89.7995 44.0006 89.6787 44.5225 89.64C44.6859 89.6208 44.8515 89.6407 45.0057 89.698C45.1603 89.7705 45.2763 89.9445 45.2425 89.9735" fill="#132444"/>
<path d="M45.4216 92.4185C45.2832 92.2392 45.0963 92.1034 44.883 92.0272C44.6698 91.951 44.4391 91.9375 44.2184 91.9884C43.4405 92.1769 44.2184 93.6217 45.5231 93.8053C45.6007 93.8496 45.6914 93.8652 45.7794 93.8495C45.8674 93.8338 45.947 93.7877 46.0045 93.7193C46.062 93.6509 46.0937 93.5645 46.094 93.4751C46.0943 93.3858 46.0633 93.2991 46.0063 93.2303C45.8993 92.9087 45.6991 92.6261 45.4313 92.4185" fill="#FFBC96"/>
<path d="M98.0198 94.8539H111.139C112.194 94.8539 113.205 95.2729 113.951 96.0187C114.697 96.7645 115.116 97.776 115.116 98.8307V102.406C115.116 103.46 114.697 104.47 113.952 105.215C113.207 105.96 112.197 106.378 111.144 106.378H98.0198C96.9651 106.378 95.9535 105.959 95.2078 105.214C94.462 104.468 94.043 103.456 94.043 102.402V98.8259C94.0442 97.772 94.4638 96.7617 95.2095 96.0169C95.9551 95.2722 96.9659 94.8539 98.0198 94.8539Z" fill="#2D4C7F"/>
<path d="M98.0198 107.755H111.139C112.194 107.755 113.205 108.174 113.951 108.92C114.697 109.666 115.116 110.678 115.116 111.732V115.308C115.116 116.361 114.697 117.372 113.952 118.117C113.207 118.862 112.197 119.28 111.144 119.28H98.0198C96.9651 119.28 95.9535 118.861 95.2078 118.115C94.462 117.369 94.043 116.358 94.043 115.303V111.727C94.0442 110.674 94.4638 109.663 95.2095 108.919C95.9551 108.174 96.9659 107.755 98.0198 107.755Z" fill="#2D4C7F"/>
<path d="M58.2129 158.546V76.347C58.2206 74.3921 59.0022 72.5198 60.3868 71.1397C61.7714 69.7597 63.6462 68.9842 65.6011 68.9829H105.964C107.917 68.9867 109.789 69.7634 111.172 71.1431C112.554 72.5229 113.334 74.3938 113.342 76.347V158.546C113.341 160.503 112.563 162.381 111.178 163.765C109.794 165.149 107.917 165.928 105.959 165.929H65.6011C63.6425 165.929 61.764 165.151 60.3786 163.767C58.9931 162.382 58.2142 160.504 58.2129 158.546ZM65.6011 71.8193C64.3952 71.8206 63.2389 72.2999 62.3856 73.1523C61.5324 74.0046 61.0519 75.1603 61.0493 76.3663V158.546C61.0519 159.752 61.5323 160.908 62.3853 161.761C63.2384 162.615 64.3947 163.095 65.6011 163.097H105.964C107.17 163.095 108.326 162.615 109.179 161.761C110.032 160.908 110.513 159.752 110.515 158.546V76.347C110.513 75.141 110.032 73.9852 109.179 73.1329C108.326 72.2806 107.17 71.8013 105.964 71.8L65.6011 71.8193Z" fill="#455A64"/>
<path d="M60.8951 157.608C60.8744 159.144 61.4636 160.625 62.5335 161.726C63.6033 162.828 65.0664 163.46 66.6018 163.484H105.225C106.76 163.46 108.223 162.828 109.293 161.726C110.363 160.625 110.952 159.144 110.931 157.608V76.7239C110.951 75.1893 110.361 73.7096 109.291 72.6091C108.221 71.5086 106.759 70.8771 105.225 70.8529H66.6018C65.0672 70.8771 63.6049 71.5086 62.5352 72.6091C61.4655 73.7096 60.8757 75.1893 60.8951 76.7239V157.608Z" fill="#FFE2D7"/>
<path d="M103.291 104.127L100.812 100.86C100.522 100.494 100.099 100.258 99.6353 100.204C99.1715 100.149 98.7051 100.281 98.3384 100.57L97.2753 101.372C96.9552 101.622 96.566 101.767 96.1605 101.788C95.755 101.809 95.353 101.704 95.0091 101.488C94.4873 101.155 93.9468 100.852 93.3903 100.58C93.0305 100.405 92.7369 100.119 92.5539 99.7635C92.3709 99.4079 92.3084 99.0026 92.3756 98.6084L92.5737 97.3182C92.6119 97.0935 92.6035 96.8633 92.549 96.6419C92.4945 96.4206 92.395 96.2128 92.2568 96.0315C92.1186 95.8502 91.9446 95.6993 91.7455 95.5882C91.5465 95.477 91.3268 95.408 91.0999 95.3854L86.9347 94.9022C86.4651 94.8488 85.993 94.9781 85.6161 95.2632C85.2392 95.5484 84.9864 95.9675 84.91 96.4339L84.7071 97.7193C84.6394 98.1248 84.4518 98.5009 84.1684 98.7989C83.8851 99.0968 83.519 99.3031 83.1173 99.3912C82.4934 99.5172 81.8771 99.6786 81.2714 99.8744C80.8927 100.006 80.4822 100.017 80.0969 99.9057C79.7116 99.794 79.3706 99.5652 79.1212 99.251L78.348 98.2315C78.0582 97.8669 77.6358 97.6318 77.1732 97.5775C76.7106 97.5231 76.2453 97.654 75.8788 97.9415L72.4674 100.527C72.2801 100.662 72.1214 100.833 72.0003 101.029C71.8792 101.226 71.7982 101.445 71.7618 101.673C71.7255 101.901 71.7345 102.134 71.7884 102.358C71.8423 102.583 71.94 102.795 72.076 102.981L72.8491 103.996C73.0822 104.323 73.2074 104.715 73.2074 105.117C73.2074 105.519 73.0822 105.911 72.8491 106.238C72.4969 106.764 72.1743 107.31 71.8827 107.871C71.6921 108.236 71.3958 108.533 71.0326 108.726C70.6695 108.918 70.2566 108.996 69.8484 108.949L68.5534 108.799C68.0828 108.747 67.61 108.877 67.2325 109.163C66.855 109.449 66.6014 109.869 66.5239 110.336L65.8716 114.472C65.8348 114.697 65.8443 114.926 65.8994 115.147C65.9544 115.368 66.054 115.575 66.192 115.756C66.33 115.937 66.5034 116.088 66.7018 116.199C66.9001 116.311 67.1191 116.381 67.3454 116.405L68.6404 116.555C69.0392 116.596 69.4139 116.766 69.7077 117.038C70.0015 117.311 70.1985 117.672 70.2688 118.067C70.3793 118.673 70.5278 119.272 70.7133 119.86C70.827 120.25 70.8184 120.666 70.6889 121.051C70.5593 121.436 70.3149 121.773 69.9885 122.015L68.9255 122.817C68.5491 123.092 68.297 123.504 68.2245 123.965C68.152 124.425 68.2651 124.895 68.5389 125.272L71.0226 128.538C71.1662 128.72 71.3441 128.871 71.5462 128.984C71.7483 129.096 71.9707 129.168 72.2005 129.194C72.4303 129.221 72.6631 129.201 72.8855 129.138C73.1079 129.074 73.3156 128.967 73.4966 128.823L74.5597 128.026C74.8786 127.774 75.2681 127.627 75.6743 127.606C76.0804 127.585 76.483 127.692 76.8259 127.91C77.3455 128.245 77.8844 128.548 78.4399 128.819C78.8002 128.992 79.0942 129.279 79.2773 129.634C79.4604 129.99 79.5226 130.396 79.4546 130.79L79.2468 132.075C79.2108 132.3 79.2209 132.53 79.2766 132.751C79.3322 132.972 79.4323 133.179 79.5707 133.36C79.709 133.54 79.8827 133.691 80.0813 133.803C80.2798 133.914 80.499 133.984 80.7254 134.008L84.8955 134.491C85.3647 134.542 85.8356 134.412 86.2119 134.127C86.5882 133.843 86.8416 133.425 86.9202 132.96L87.1231 131.674C87.1911 131.269 87.3789 130.894 87.6622 130.597C87.9456 130.3 88.3116 130.094 88.7129 130.007C89.3347 129.879 89.9492 129.718 90.5539 129.524C90.9338 129.391 91.3456 129.381 91.732 129.493C92.1183 129.606 92.4599 129.836 92.709 130.152L93.4773 131.167C93.7696 131.531 94.1939 131.766 94.6581 131.819C95.1223 131.873 95.5887 131.741 95.9562 131.452L99.3628 128.872C99.5509 128.737 99.7103 128.565 99.8317 128.368C99.9531 128.171 100.034 127.952 100.07 127.723C100.106 127.494 100.096 127.26 100.041 127.035C99.9861 126.81 99.8869 126.599 99.7494 126.412L98.9859 125.397C98.7431 125.078 98.6089 124.688 98.6028 124.287C98.5967 123.885 98.7191 123.492 98.952 123.165C99.304 122.637 99.6266 122.09 99.9185 121.527C100.112 121.164 100.41 120.868 100.773 120.676C101.136 120.484 101.549 120.405 101.958 120.449L103.257 120.594C103.726 120.645 104.196 120.515 104.572 120.23C104.947 119.945 105.2 119.528 105.277 119.063L105.934 114.926C105.972 114.702 105.963 114.472 105.908 114.251C105.853 114.03 105.754 113.822 105.616 113.641C105.478 113.46 105.304 113.309 105.105 113.198C104.907 113.086 104.687 113.017 104.461 112.993L103.161 112.844C102.763 112.8 102.391 112.629 102.098 112.357C101.805 112.084 101.609 111.725 101.537 111.331C101.426 110.726 101.279 110.127 101.097 109.539C100.98 109.149 100.986 108.732 101.115 108.346C101.244 107.96 101.489 107.624 101.817 107.383L102.881 106.581C103.069 106.448 103.23 106.278 103.353 106.082C103.476 105.886 103.559 105.668 103.597 105.439C103.635 105.211 103.628 104.978 103.575 104.753C103.523 104.527 103.426 104.314 103.291 104.127ZM92.1775 121.648C87.6643 125.639 80.8124 124.842 77.7054 119.971C75.2555 116.139 76.0915 110.901 79.6382 107.76C84.1465 103.779 90.9936 104.576 94.1055 109.452C96.5602 113.279 95.729 118.517 92.1775 121.648Z" fill="#407BFF"/>
<path d="M104.761 79.2897H67.0703V83.1553H104.761V79.2897Z" fill="white"/>
<path d="M91.2307 85.731H67.0703V89.5966H91.2307V85.731Z" fill="white"/>
<path d="M101.861 139.526H67.0703V143.392H101.861V139.526Z" fill="white"/>
<path d="M101.861 145.972H67.0703V149.838H101.861V145.972Z" fill="white"/>
<path d="M95.0964 152.737H67.0703V156.603H95.0964V152.737Z" fill="white"/>
<g style="mix-blend-mode:multiply" opacity="0.3">
<path d="M109.902 156.709C105.753 154.059 101.862 151.024 98.2811 147.644C90.859 140.831 84.9832 131.844 80.4024 122.924C75.6428 113.602 72.3666 103.808 69.9506 93.6362C68.6797 88.2871 67.5345 82.8994 66.3362 77.5357C65.853 75.4531 65.1378 73.3318 64.7078 71.196C63.5865 71.6196 62.6219 72.3764 61.9437 73.3647C61.2655 74.353 60.9064 75.5254 60.9146 76.724V157.608C60.8939 159.144 61.4831 160.625 62.553 161.726C63.6228 162.828 65.0859 163.46 66.6213 163.484H105.225C106.76 163.46 108.223 162.828 109.293 161.726C110.363 160.625 110.952 159.144 110.931 157.608V157.309C110.584 157.115 110.236 156.917 109.902 156.709Z" fill="#B8D0FF"/>
</g>
<path d="M40.0383 103.615C42.5896 105.117 43.5512 107.963 44.1407 110.602C44.7042 113.099 45.0933 115.632 45.3053 118.183C45.2979 118.715 45.433 119.239 45.6967 119.701C46.4408 120.793 48.2287 120.749 49.6831 120.643C53.2202 120.382 56.5592 121.459 60.2751 121.184C59.7618 122.104 59.5489 123.162 59.6662 124.209C54.6892 125.05 49.601 125.895 44.5853 125.277C43.2035 125.16 41.8586 124.771 40.6278 124.132C38.0958 122.658 37.2454 119.783 36.7621 117.159C36.2549 114.35 35.961 111.507 35.8827 108.654C35.844 107.321 35.8827 105.9 36.7476 104.789C37.6126 103.677 39.5116 103.281 40.0625 103.605" fill="#FFBC96"/>
<path d="M39.3626 101.619C40.8654 101.962 41.827 103.339 42.5083 104.653C44.2646 108.011 45.2221 111.728 45.3061 115.516C42.4045 115.41 39.4992 115.493 36.6083 115.762C36.0623 113.53 35.6419 111.268 35.294 108.997C35.0432 107.809 35.0564 106.58 35.3327 105.397C35.5822 104.654 35.9618 103.96 36.4537 103.349C37.3235 102.208 38.5895 101.416 39.4061 101.619" fill="black"/>
<path d="M59.5614 121.218C60.7501 121.116 61.2913 121.034 62.0886 120.57C62.753 120.169 63.4999 119.925 64.2727 119.855C64.4322 119.855 64.6303 119.971 64.5916 120.126C64.553 120.28 64.437 120.28 64.3307 120.314C63.9055 120.449 62.3979 121.319 62.7699 121.174C63.8258 121.293 64.8907 121.307 65.9495 121.218C66.1536 121.184 66.3623 121.193 66.5631 121.242C66.7612 121.3 67.0463 121.498 66.9545 121.672C66.8627 121.846 64.8767 121.942 63.833 122.078L66.4713 122.145C66.6839 122.145 67.0028 122.276 66.911 122.469C66.7951 122.735 64.7318 122.74 63.6397 122.875L66.1379 123.03C66.4713 123.03 67.1043 123.233 66.8096 123.426C66.3264 123.779 64.6206 123.624 63.4271 123.663L64.9975 123.89C65.1715 123.914 65.4034 124.035 65.3213 124.194C65.2826 124.276 65.1763 124.296 65.0893 124.305C63.0937 124.552 61.3348 124.276 59.0879 124.305C59.2763 123.276 59.0879 122.213 59.5711 121.218" fill="#FFBC96"/>
<path d="M83.3828 70.5098V14.9409H110.442V26.8036" stroke="#2E6ADB" stroke-miterlimit="10" stroke-dasharray="3 3"/>
<path d="M110.563 26.5378C111.43 26.5378 112.133 25.8347 112.133 24.9674C112.133 24.1001 111.43 23.397 110.563 23.397C109.695 23.397 108.992 24.1001 108.992 24.9674C108.992 25.8347 109.695 26.5378 110.563 26.5378Z" fill="#2E6ADB"/>
<path d="M83.1407 69.4226C84.0081 69.4226 84.7112 68.7195 84.7112 67.8522C84.7112 66.9848 84.0081 66.2817 83.1407 66.2817C82.2734 66.2817 81.5703 66.9848 81.5703 67.8522C81.5703 68.7195 82.2734 69.4226 83.1407 69.4226Z" fill="#2E6ADB"/>
<path d="M274.955 197.26C274.955 198.773 268.248 200 259.976 200C251.703 200 244.996 198.773 244.996 197.26C244.996 195.748 251.703 194.52 259.976 194.52C268.248 194.52 274.955 195.748 274.955 197.26Z" fill="#B8D0FF"/>
<path d="M202.736 81.6236V8.65912H158.764V37.8594" stroke="#2E6ADB" stroke-miterlimit="10" stroke-dasharray="3 3"/>
<path d="M221.102 57.9512H187.92V76.5209H221.102V57.9512Z" fill="#407BFF"/>
<path d="M199.687 60.9375L193.758 66.4412L199.092 71.0124" stroke="white" stroke-miterlimit="10"/>
<path d="M209.568 61.5317L215.265 67.2771L209.742 71.6211" stroke="white" stroke-miterlimit="10"/>
<path d="M207.858 59.9469L200.18 74.5253" stroke="white" stroke-miterlimit="10"/>
<path d="M253.177 191.264C251.728 192.96 249.075 192.887 247.379 194.279C247.251 194.373 247.147 194.495 247.074 194.636C247.028 194.8 247.041 194.976 247.11 195.131C247.18 195.287 247.303 195.413 247.456 195.487C247.762 195.612 248.094 195.661 248.423 195.627L254.105 195.453C254.311 195.461 254.517 195.426 254.709 195.352C254.898 195.228 255.06 195.067 255.187 194.88C255.313 194.692 255.4 194.481 255.444 194.26C255.874 192.955 255.898 191.843 256.333 190.515C255.072 190.544 254.429 190.892 253.173 191.264" fill="#FFBC96"/>
<path d="M247.061 194.636C247.134 194.495 247.238 194.373 247.365 194.279C248.079 193.755 248.879 193.359 249.728 193.109C249.901 193.37 250.134 193.584 250.407 193.735C250.681 193.886 250.987 193.968 251.299 193.974C251.738 194.013 252.183 194.008 252.623 194.023C253.065 194.041 253.508 194.005 253.942 193.916C254.608 193.765 255.231 193.464 255.764 193.037C255.681 193.45 255.576 193.858 255.449 194.26C255.406 194.481 255.319 194.692 255.192 194.88C255.066 195.067 254.904 195.228 254.715 195.352C254.523 195.426 254.317 195.461 254.111 195.453L248.428 195.627C248.1 195.661 247.768 195.612 247.462 195.487C247.309 195.413 247.186 195.287 247.116 195.131C247.046 194.976 247.034 194.8 247.08 194.636" fill="#132444"/>
<path d="M266.756 124.276C268.505 134.366 263.9 148.277 260.204 157.83C258.973 160.233 258.551 162.968 259 165.629C259.45 171.621 258.715 177.28 257.952 183.242C257.522 186.576 257.556 188.413 257.072 192.177C256.154 192.037 251.863 191.317 252.004 191.409C251.554 187.857 249.926 166.562 251.675 152.389C252.698 144.239 254.19 136.154 256.145 128.176C256.222 127.867 256.869 124.093 257.227 124.122C259.319 124.305 261.813 124.189 263.219 124.276H266.756Z" fill="black"/>
<g style="mix-blend-mode:multiply" opacity="0.3">
<path d="M260.204 157.83C262.343 152.449 264.119 146.929 265.519 141.31C265.249 141.562 264.996 141.832 264.761 142.117C263.495 143.733 262.435 145.501 261.605 147.379C259.619 151.573 257.425 156.014 256.56 160.604C255.594 165.76 256.329 171.095 256.498 176.294C256.667 181.493 256.058 186.707 255.623 191.926L257.073 192.158C257.556 188.393 257.522 186.557 257.952 183.223C258.716 177.26 259.45 171.602 259.001 165.61C258.552 162.949 258.974 160.213 260.204 157.811V157.83Z" fill="#5D81EC"/>
</g>
<path d="M269.573 193.283C268.123 194.979 265.475 194.907 263.774 196.299C263.646 196.39 263.543 196.514 263.475 196.656C263.426 196.82 263.438 196.996 263.508 197.152C263.578 197.308 263.702 197.434 263.856 197.507C264.162 197.634 264.494 197.68 264.823 197.642L270.505 197.473C270.712 197.481 270.917 197.446 271.109 197.371C271.299 197.247 271.462 197.086 271.588 196.897C271.714 196.709 271.801 196.497 271.844 196.274C272.274 194.975 272.303 193.858 272.733 192.534C271.472 192.559 270.829 192.911 269.573 193.283Z" fill="#FFBC96"/>
<path d="M263.46 196.632C263.528 196.489 263.631 196.366 263.76 196.274C264.474 195.748 265.276 195.352 266.128 195.105C266.298 195.367 266.531 195.582 266.805 195.732C267.079 195.882 267.386 195.962 267.698 195.965C268.138 196.004 268.577 196.004 269.017 196.014C269.46 196.036 269.903 196 270.336 195.907C271.003 195.761 271.627 195.461 272.158 195.033C272.08 195.445 271.975 195.852 271.844 196.25C271.801 196.473 271.714 196.685 271.588 196.873C271.462 197.062 271.299 197.223 271.109 197.347C270.917 197.422 270.712 197.456 270.505 197.449L264.823 197.618C264.494 197.656 264.162 197.609 263.856 197.482C263.702 197.41 263.578 197.284 263.508 197.128C263.438 196.972 263.426 196.796 263.475 196.632" fill="#132444"/>
<path d="M273.52 121.657C276.728 132.519 277.425 143.968 275.559 155.139C275.187 156.845 274.999 158.587 274.998 160.333C275.071 161.991 275.535 163.605 275.868 165.228C277.801 174.786 275.892 184.735 272.896 194.023C271.524 193.786 269.693 193.486 268.32 193.254C269.625 181.967 265.904 169.094 265.218 157.768C264.986 153.902 264.841 148.074 264.295 144.238C262.913 134.574 263.276 132.307 263.218 124.112C266.728 123.651 270.181 122.825 273.52 121.648" fill="black"/>
<g style="mix-blend-mode:multiply" opacity="0.3">
<path d="M275.869 165.228C275.535 163.605 275.072 161.991 274.999 160.333C275 158.587 275.188 156.846 275.56 155.139C277.426 143.968 276.728 132.519 273.52 121.657C272.554 122.025 271.225 122.431 269.795 122.812C272.694 127.577 272.965 133.902 273.177 139.241C273.342 143.508 273.177 147.722 272.984 151.984C272.742 156.97 273.216 161.648 273.951 166.596C274.622 171.003 274.762 175.067 273.922 179.454C273.313 182.634 272.955 185.852 272.37 189.031C272.091 190.63 271.718 192.211 271.254 193.767L272.897 194.042C275.893 184.736 277.821 174.786 275.869 165.228Z" fill="#5D81EC"/>
</g>
<path d="M269.211 124.586C269.24 125.929 269.936 127.224 270.139 128.543C270.326 129.93 270.426 131.328 270.438 132.728C270.496 135.501 270.791 138.28 271.062 141.024C271.593 146.374 271.516 152.003 271.516 157.454C271.516 162.638 273.207 167.272 273.207 172.356C273.207 177.439 273.294 182.503 272.318 187.412C272.12 188.418 271.095 193.694 271.255 193.743" stroke="black" stroke-width="0.5" stroke-miterlimit="10"/>
<path d="M264.476 97.2554C266.819 97.2989 269.438 97.4583 271.038 99.1447C272.637 100.831 272.613 103.455 272.487 105.784C272.183 111.674 272.086 117.971 275.261 122.977C268.966 125.668 261.92 126.04 255.377 124.025C255.986 119.976 256.474 115.811 255.541 111.819C254.71 108.239 252.782 104.373 254.536 101.107C255.502 99.3622 257.372 98.2556 259.325 97.7627C261.277 97.2699 263.326 97.3279 264.466 97.2795" fill="#FF6C37"/>
<path d="M256.218 118.637C256.614 118.677 257.013 118.695 257.411 118.691C257.801 118.654 258.188 118.596 258.571 118.517C259.273 118.417 259.968 118.277 260.654 118.096C261.897 117.679 263.042 117.013 264.02 116.139C264.998 115.265 265.787 114.202 266.341 113.013C267.631 110.341 267.882 107.437 267.849 104.513C267.815 102.039 267.404 99.4733 266.109 97.3182C267.965 97.4535 269.806 97.8449 271.038 99.1448C272.652 100.85 272.613 103.455 272.487 105.784C272.183 111.674 272.086 117.971 275.261 122.977C268.966 125.668 261.92 126.04 255.377 124.025C255.643 122.237 255.889 120.425 256 118.618H256.208" fill="#FF6C37"/>
<path d="M264.097 109.326C262.467 108.73 261 107.758 259.817 106.487C258.633 105.216 257.767 103.684 257.289 102.015" stroke="#26395E" stroke-width="0.5" stroke-miterlimit="10"/>
<path d="M260.363 110.172C258.845 109.096 257.65 107.626 256.908 105.919" stroke="#26395E" stroke-width="0.5" stroke-miterlimit="10"/>
<path d="M264.311 90.621C264.751 92.0706 266.51 92.5828 267.452 93.7522C268.293 94.8007 268.496 96.3953 269.67 97.0525C270.636 97.6033 271.97 97.2844 272.878 97.9367C273.917 98.676 273.908 100.29 274.811 101.169C275.258 101.562 275.822 101.798 276.415 101.841C278.832 102.092 281.161 99.7488 280.895 97.3327C280.793 96.4485 280.412 95.6222 280.243 94.7476C280.073 93.873 280.18 92.8486 280.866 92.288C281.176 92.0822 281.498 91.8966 281.832 91.7323C283.316 90.8287 283.552 88.548 282.509 87.166C281.465 85.784 279.489 85.3153 277.812 85.7599C276.846 86.0112 275.676 86.475 274.99 85.7599C274.768 85.4593 274.58 85.1352 274.429 84.7935C274.182 84.4199 273.835 84.1226 273.428 83.9349C273.021 83.7471 272.57 83.6763 272.125 83.7304C271.231 83.857 270.411 84.2992 269.815 84.9771C269.404 85.4168 269.486 86.7166 269.071 87.1612C268.104 88.2049 266.732 86.9921 265.983 87.2143C265.5 87.3545 263.983 89.5966 264.301 90.6306" fill="#132444"/>
<path d="M261.063 95.1921C261.124 96.551 260.886 97.9067 260.367 99.164C261.266 99.797 262.469 99.7197 263.556 99.5409C264.095 99.4686 264.62 99.3205 265.117 99.1012C265.174 99.0789 265.224 99.0423 265.262 98.9949C265.295 98.9398 265.306 98.8739 265.291 98.8113C264.677 96.574 264.726 94.4624 265.132 91.7903C264.073 92.1913 262.841 91.7903 261.749 92.1189C261.644 92.1461 261.546 92.1974 261.464 92.2687C261.379 92.373 261.324 92.4981 261.305 92.6311C261.103 93.4691 261.017 94.3307 261.048 95.1921" fill="#FFBC96"/>
<path d="M264.034 95.4241C264.778 94.2402 264.672 92.7906 265.093 91.4956C264.039 91.8967 262.841 91.7469 261.763 92.0996C261.658 92.1269 261.56 92.1782 261.478 92.2494C261.393 92.3537 261.338 92.4789 261.319 92.6118C261.117 93.4498 261.031 94.3115 261.063 95.1728C261.094 95.9228 261.036 96.674 260.889 97.4101C261.526 97.3272 262.137 97.1066 262.68 96.7636C263.224 96.4207 263.686 95.9636 264.034 95.4241Z" fill="#D75246"/>
<path d="M259.444 89.0408C259.232 89.872 259.019 90.6064 258.84 91.4569C258.594 92.6069 258.261 93.4815 258.724 94.5591C258.91 95.0252 259.232 95.4243 259.649 95.7037C260.065 95.9832 260.557 96.1299 261.058 96.1247C261.992 96.0945 262.877 95.6989 263.523 95.023C264.171 94.3752 264.679 93.6015 265.017 92.7496C265.354 91.8978 265.513 90.9859 265.485 90.0701C265.512 89.757 265.455 89.4423 265.32 89.1586C265.185 88.8748 264.977 88.6323 264.716 88.4561C263.997 87.956 263.169 87.6362 262.3 87.5236C260.976 87.2916 259.662 88.2242 259.444 89.0553" fill="#FFBC96"/>
<path d="M259.209 86.2238C258.044 86.9244 257.537 87.7024 258.083 88.5818C258.436 89.1568 258.958 88.7703 259.132 88.7896C259.306 88.8089 259.436 89.1134 259.552 89.3211C259.69 89.4911 259.87 89.6224 260.074 89.702C260.278 89.7816 260.5 89.8069 260.716 89.7753C261.154 89.7884 261.585 89.6743 261.958 89.4468C262.2 89.2776 262.393 89.0409 262.645 88.8911C262.766 88.8056 262.913 88.7646 263.061 88.7752C263.209 88.7858 263.348 88.8472 263.456 88.9491C263.679 89.2438 263.456 89.7029 263.645 90.0218C263.719 90.1221 263.82 90.1991 263.937 90.2436C264.053 90.2881 264.18 90.2984 264.302 90.2731C264.53 90.2346 264.744 90.1367 264.922 89.989C265.1 89.8414 265.236 89.6493 265.317 89.4323C265.476 88.9953 265.476 88.5162 265.317 88.0793C265.15 87.6195 264.856 87.216 264.471 86.9147C263.558 86.2093 262.611 86.8036 261.664 86.1416C260.876 85.5859 259.359 86.1416 259.248 86.2238" fill="#132444"/>
<path d="M264.055 88.5867C264.307 89.2653 264.393 89.9942 264.306 90.7128C264.291 90.8089 264.291 90.9066 264.306 91.0027C264.327 91.1109 264.365 91.2152 264.417 91.312C264.644 91.7662 264.871 92.2204 265.094 92.6746C265.867 92.0948 266.91 91.3023 266.572 89.6063C266.515 89.2145 266.387 88.8363 266.195 88.4901C265.272 87.2385 264.388 88.1566 264.262 88.2581C264.137 88.3596 264.035 88.5625 264.079 88.5867" fill="#132444"/>
<path d="M264.683 91.9353C264.863 91.7917 265.08 91.7034 265.309 91.6811C265.538 91.6588 265.769 91.7035 265.973 91.8097C266.678 92.2059 265.543 93.4574 264.204 93.3028C264.016 93.2786 263.803 93.2013 263.755 93.0177C263.747 92.9413 263.755 92.8639 263.78 92.7913C263.806 92.7186 263.846 92.6524 263.9 92.5973C264.089 92.3032 264.361 92.0726 264.683 91.9353Z" fill="#FFBC96"/>
<path d="M256.84 80.174H173.578V161.353H256.84V80.174Z" fill="#FFE2D7"/>
<path d="M256.811 80.174H173.578V90.2585H256.811V80.174Z" fill="#FF6C37"/>
<path d="M180.604 84.3731C180.605 84.6811 180.515 84.9824 180.344 85.2389C180.174 85.4954 179.931 85.6956 179.647 85.8141C179.363 85.9326 179.05 85.9641 178.748 85.9046C178.445 85.8451 178.168 85.6973 177.95 85.4799C177.732 85.2625 177.583 84.9852 177.522 84.6833C177.462 84.3813 177.493 84.0682 177.61 83.7837C177.728 83.4991 177.927 83.2558 178.183 83.0846C178.439 82.9134 178.74 82.822 179.048 82.822C179.252 82.8214 179.454 82.861 179.643 82.9387C179.832 83.0164 180.003 83.1305 180.148 83.2746C180.293 83.4187 180.407 83.5899 180.486 83.7784C180.564 83.9669 180.604 84.169 180.604 84.3731Z" fill="white"/>
<path d="M187.776 84.3731C187.777 84.6811 187.686 84.9824 187.516 85.2389C187.346 85.4954 187.103 85.6956 186.819 85.8141C186.535 85.9326 186.222 85.9641 185.919 85.9046C185.617 85.8451 185.34 85.6973 185.122 85.4799C184.903 85.2625 184.755 84.9852 184.694 84.6833C184.634 84.3813 184.664 84.0682 184.782 83.7837C184.9 83.4991 185.099 83.2558 185.355 83.0846C185.611 82.9134 185.912 82.822 186.22 82.822C186.424 82.8214 186.626 82.861 186.815 82.9387C187.004 83.0164 187.175 83.1305 187.32 83.2746C187.464 83.4187 187.579 83.5899 187.657 83.7784C187.736 83.9669 187.776 84.169 187.776 84.3731Z" fill="white"/>
<path d="M194.969 84.3731C194.97 84.6811 194.88 84.9824 194.709 85.2389C194.539 85.4954 194.296 85.6956 194.012 85.8141C193.728 85.9326 193.415 85.9641 193.113 85.9046C192.811 85.8451 192.533 85.6973 192.315 85.4799C192.097 85.2625 191.948 84.9852 191.888 84.6833C191.827 84.3813 191.858 84.0682 191.975 83.7837C192.093 83.4991 192.292 83.2558 192.548 83.0846C192.804 82.9134 193.105 82.822 193.413 82.822C193.617 82.8214 193.82 82.861 194.008 82.9387C194.197 83.0164 194.369 83.1305 194.513 83.2746C194.658 83.4187 194.772 83.5899 194.851 83.7784C194.929 83.9669 194.969 84.169 194.969 84.3731Z" fill="white"/>
<path d="M248.64 100.145H206.359V103.044H248.64V100.145Z" fill="white"/>
<path d="M248.64 106.267H206.359V109.166H248.64V106.267Z" fill="white"/>
<path d="M233.82 113.032H206.359V115.931H233.82V113.032Z" fill="white"/>
<path d="M247.997 123.663H206.359V126.562H247.997V123.663Z" fill="white"/>
<path d="M247.997 130.104H206.359V133.003H247.997V130.104Z" fill="white"/>
<path d="M247.997 137.835H206.359V140.734H247.997V137.835Z" fill="white"/>
<path d="M247.997 146.857H206.359V149.756H247.997V146.857Z" fill="white"/>
<path d="M200.314 114.965H188.799V117.864H200.314V114.965Z" fill="white"/>
<path d="M200.314 106.267H188.799V109.166H200.314V106.267Z" fill="white"/>
<path d="M200.319 100.145H177.85V103.044H200.319V100.145Z" fill="white"/>
<path d="M200.318 121.406H180.145V124.305H200.318V121.406Z" fill="white"/>
<path d="M200.315 128.819H191.096V131.718H200.315V128.819Z" fill="white"/>
<path d="M200.32 136.226H184.432V139.125H200.32V136.226Z" fill="white"/>
<path d="M200.319 148.466H187.654V151.365H200.319V148.466Z" fill="white"/>
<g style="mix-blend-mode:multiply" opacity="0.3">
<path d="M243.764 151.901C233.196 147.586 223.909 141.005 215.163 133.752C199 120.343 184.977 101.831 184.025 80.174H173.578V161.353H256.84V155.796C252.373 154.892 247.997 153.588 243.764 151.901Z" fill="#B8D0FF"/>
</g>
<path d="M266.21 110.887C262.61 112.95 257.053 116.651 254.187 117.101C252.711 117.312 251.207 117.222 249.766 116.835C245.751 115.806 243.929 113.515 240.223 111.65C240.967 110.771 240.513 111.312 240.933 110.234C244.48 111.384 253.361 115.583 258.908 109.949C263.296 105.499 264.035 105.769 267.374 104.31C268.099 103.991 269.79 103.668 270.515 104.015C271.24 104.363 272.588 107.224 266.21 110.887Z" fill="#FFBC96"/>
<path d="M240.591 111.718C239.521 111.653 238.463 111.46 237.44 111.143C237.116 111.027 236.672 110.945 236.575 110.616C236.739 110.423 236.797 110.563 237.242 110.684C237.496 110.793 237.775 110.832 238.049 110.795C237.113 110.538 236.273 110.012 235.633 109.282C235.703 109.235 235.785 109.207 235.87 109.201C235.955 109.195 236.04 109.211 236.116 109.249C236.268 109.327 236.409 109.425 236.536 109.539C236.889 109.801 237.303 109.968 237.74 110.022C236.976 109.659 236.16 109.239 235.807 108.471C235.853 108.42 235.913 108.386 235.98 108.372C236.047 108.358 236.117 108.365 236.179 108.393C236.303 108.45 236.414 108.531 236.507 108.63C236.893 108.963 237.349 109.204 237.841 109.336C237.177 108.971 236.61 108.452 236.189 107.823C236.353 107.64 236.648 107.823 236.836 107.973C237.295 108.374 237.841 108.662 238.431 108.814C238.513 108.814 238.914 108.978 238.981 108.91C239.049 108.843 238.764 108.118 238.73 107.838C238.696 107.557 238.817 107.277 239.068 107.248C239.552 108.49 240.16 109.843 241.364 110.433C241.068 110.84 240.801 111.268 240.566 111.713" fill="#FFBC96"/>
<path d="M271.201 99.6135C271.876 100.578 272.186 101.751 272.075 102.923C271.988 103.625 271.804 104.311 271.529 104.963C270.335 107.998 268.362 110.664 265.808 112.694C264.143 111.421 262.629 109.962 261.295 108.345C261.239 108.292 261.194 108.229 261.162 108.158C261.131 108.088 261.113 108.012 261.111 107.934C261.138 107.815 261.2 107.707 261.29 107.625C263.64 105.016 266.214 102.618 268.983 100.459C269.497 99.9944 270.118 99.6626 270.79 99.4927C271.07 99.4395 271.476 99.7294 271.201 99.628" fill="#FF6C37"/>
</svg>
