<svg width="100" height="100" viewBox="0 0 100 100" fill="none" xmlns="http://www.w3.org/2000/svg">
<g clip-path="url(#clip0_1929_19623)">
<path d="M12.4989 0C12.7729 0.313096 13.0273 0.645755 13.3208 0.941729C41.1652 28.7877 69.0111 56.6313 96.8588 84.4724C98.5441 86.1577 99.6375 88.0852 99.9139 90.5093C100.501 95.646 95.7287 100.497 90.5553 99.9584C88.1617 99.7515 85.9424 98.6216 84.3667 96.8079C73.7899 84.9624 63.2042 73.1243 52.6095 61.2935C52.3942 61.0489 52.1692 60.8214 51.9368 60.5743L47.3162 65.2806C46.9248 64.9161 46.668 64.6911 46.4258 64.4489C35.0321 53.06 23.6774 41.6222 12.2274 30.2994C6.78245 24.9181 5.06289 18.4262 5.7698 11.0587C6.14161 7.20366 7.32549 3.56147 8.78824 0.00244845L12.4989 0Z" fill="#ED893E"/>
<path d="M0 90.4259C0.349787 87.3414 2.25772 85.228 4.34911 83.1538C12.8288 74.7409 21.2767 66.2996 29.6928 57.8297C29.9311 57.5725 30.1549 57.3022 30.363 57.02L42.8379 69.5121C42.7915 69.5634 42.6129 69.7836 42.4148 69.9817C33.4181 78.98 24.4207 87.9766 15.4224 96.9716C12.2279 100.151 8.209 100.797 4.38091 98.6643C2.02535 97.3532 0.697128 95.2593 0.183455 92.6323C0.127195 92.351 0.0611516 92.0721 0 91.7933V90.4259Z" fill="#ED893E"/>
<path d="M87.3337 8.43206L91.3697 12.4754L75.7516 28.1009L79.9832 32.3423L95.5476 16.734L99.86 21.0562C99.5871 21.218 99.3292 21.4038 99.0895 21.6114C92.6881 28.003 86.2525 34.3603 79.9172 40.8155C76.8963 43.8951 73.3128 45.4019 69.0714 45.9816C67.2955 46.2262 66.3342 45.7712 65.2017 44.5971C61.5864 40.8522 57.8635 37.2076 54.1724 33.5409C53.9756 33.3823 53.8327 33.1666 53.7635 32.9235C53.6943 32.6804 53.7021 32.4218 53.7859 32.1833C54.0819 30.9921 54.2017 29.7568 54.4146 28.5411C54.9178 25.6004 56.3312 22.8918 58.4554 20.7969C65.231 13.9969 72.0181 7.20903 78.8165 0.433427C78.8795 0.371768 78.9474 0.315322 79.0195 0.264648L83.1436 4.37403L67.5426 19.9628L71.674 24.0893L87.3337 8.43206Z" fill="#ED893E"/>
</g>
<defs>
<clipPath id="clip0_1929_19623">
<rect width="99.9633" height="100" fill="white"/>
</clipPath>
</defs>
</svg>
