<svg width="58" height="50" viewBox="0 0 58 50" fill="none" xmlns="http://www.w3.org/2000/svg">
<g clip-path="url(#clip0_1087_21854)">
<path d="M0.000558536 31.1434C0.112176 30.678 0.195888 30.2036 0.340991 29.7493C1.45716 26.2468 3.82084 24.1409 7.43202 23.4318C7.59052 23.4016 7.74679 23.3603 8.00127 23.3034C3.4406 22.473 1.48618 18.6948 1.8255 15.6018C2.22955 11.9107 5.23428 9.20172 8.85738 9.20618C12.3476 9.20618 15.4026 11.8716 15.839 15.286C16.3045 18.9236 14.0398 22.4618 9.84407 23.2856C11.4581 23.2856 12.9839 23.3235 14.5074 23.2699C15.349 23.2409 16.0444 22.7788 16.6795 22.2308C18.9598 20.263 21.2558 18.3119 23.535 16.3441C24.2047 15.7704 24.9191 15.5538 25.7428 15.9367C26.5665 16.3195 26.9092 17.0194 26.9047 17.9224C26.8925 19.9114 26.8869 21.9015 26.9047 23.8916C26.9195 24.2536 26.8489 24.614 26.6986 24.9436C26.5483 25.2732 26.3226 25.5629 26.0397 25.7891C23.3933 28.0449 20.7636 30.3186 18.1093 32.5654C17.7867 32.84 17.6874 33.1157 17.6885 33.5175C17.6997 38.297 17.7019 43.0768 17.6952 47.857C17.6952 49.3883 17.0958 49.99 15.5745 49.99C11.0931 49.99 6.61164 49.9754 2.13021 50.0011C1.09664 50.0011 0.365546 49.6663 -0.00390625 48.6706L0.000558536 31.1434Z" fill="#FFC727"/>
<path d="M57.1484 48.6695C56.7801 49.6629 56.0479 50.0089 55.0154 50C50.515 49.9743 46.0146 49.9899 41.5153 49.9888C40.0699 49.9888 39.4526 49.3671 39.4515 47.9105C39.4515 43.1117 39.4545 38.3122 39.4605 33.5119C39.47 33.3217 39.4325 33.1321 39.3513 32.9598C39.2701 32.7875 39.1477 32.6379 38.995 32.5241C36.3441 30.275 33.7122 28.0036 31.0702 25.7456C30.8022 25.5296 30.5883 25.2541 30.4455 24.941C30.3027 24.6279 30.235 24.2858 30.2476 23.9418C30.2617 21.9327 30.2617 19.9236 30.2476 17.9145C30.242 17.0115 30.5713 16.3195 31.4084 15.9289C32.2455 15.5382 32.9521 15.7625 33.6162 16.3351C35.8854 18.2884 38.1724 20.2205 40.4248 22.1872C41.3111 22.9596 42.2978 23.348 43.4742 23.3224C44.7187 23.2956 45.9644 23.3224 47.2257 23.2833C45.2579 22.877 43.6539 21.9115 42.5043 20.2563C41.3401 18.582 41.0041 16.7191 41.4138 14.7301C42.0924 11.4385 45.288 9.00301 48.6242 9.21285C52.2384 9.43609 55.0277 12.1272 55.3346 15.7045C55.5992 18.784 53.6604 22.4752 49.1064 23.3067C49.5283 23.386 49.8152 23.434 50.0998 23.4965C53.8055 24.3068 56.462 27.1307 57.0502 30.8889C57.0735 30.9753 57.1056 31.0591 57.1462 31.1389L57.1484 48.6695Z" fill="#FFC727"/>
<path d="M30.2481 5.24935C30.2481 6.40013 30.2481 7.5509 30.2481 8.70279C30.2425 9.78212 29.5482 10.5166 28.5571 10.5076C27.5927 10.4998 26.9063 9.76761 26.9029 8.72176C26.8969 6.41947 26.8969 4.11681 26.9029 1.81378C26.9029 0.744486 27.6184 -0.0111618 28.5939 -4.23097e-08C29.546 0.0111617 30.2403 0.755648 30.2481 1.79592C30.2548 2.94669 30.2481 4.09746 30.2481 5.24935Z" fill="#FFC727"/>
<path d="M41.0073 7.28969C40.8957 7.48837 40.7607 7.95269 40.4626 8.26634C39.3241 9.46622 38.1432 10.6259 36.9623 11.7845C36.2569 12.4743 35.2099 12.4732 34.5603 11.8169C33.9107 11.1606 33.9074 10.1337 34.6117 9.41823C35.771 8.23881 36.9404 7.06869 38.1198 5.90787C38.6779 5.35871 39.3532 5.23816 40.0173 5.53283C40.6502 5.82304 40.9638 6.33424 41.0073 7.28969Z" fill="#FFC727"/>
<path d="M21.3391 12.4118C20.9585 12.2087 20.5109 12.077 20.2095 11.789C18.9985 10.6349 17.8232 9.44505 16.6534 8.2474C16.3368 7.93845 16.1553 7.51675 16.1486 7.07442C16.1419 6.63209 16.3106 6.20509 16.6177 5.8867C17.2718 5.217 18.302 5.19802 19.0141 5.89563C20.2092 7.06538 21.3923 8.24815 22.5636 9.44394C23.0815 9.96966 23.2109 10.6003 22.9319 11.2923C22.6774 11.923 22.0903 12.2991 21.3391 12.4118Z" fill="#FFC727"/>
</g>
<defs>
<clipPath id="clip0_1087_21854">
<rect width="57.148" height="50" fill="white"/>
</clipPath>
</defs>
</svg>
