<svg width="226" height="200" viewBox="0 0 226 200" fill="none" xmlns="http://www.w3.org/2000/svg">
<g clip-path="url(#clip0_1182_18885)">
<path d="M137.243 31.1054C136.234 32.6475 135.525 34.3659 135.153 36.1707L132.322 36.4371V41.9178L135.153 42.1841C135.525 43.9903 136.234 45.7103 137.243 47.254L135.437 49.4345L139.311 53.308L141.496 51.5022C143.037 52.5137 144.756 53.223 146.561 53.5925L146.828 56.4231H152.308L152.575 53.5925C154.38 53.2222 156.099 52.5129 157.64 51.5022L159.825 53.308L163.699 49.4345L161.893 47.254C162.902 45.7103 163.611 43.9903 163.983 42.1841L166.814 41.9178V36.4371L163.983 36.1707C163.611 34.3659 162.902 32.6475 161.893 31.1054L163.699 28.9203L159.816 25.0468L157.631 26.8526C156.097 25.8469 154.388 25.1379 152.593 24.7624L152.326 21.9318H146.823L146.557 24.7624C144.752 25.1339 143.033 25.8431 141.491 26.8526L139.306 25.0468L135.437 28.9203L137.243 31.1054ZM155.861 32.9112C157.105 34.1558 157.952 35.7413 158.295 37.4673C158.638 39.1933 158.462 40.9822 157.788 42.6079C157.115 44.2337 155.974 45.6231 154.511 46.6007C153.048 47.5783 151.328 48.1001 149.568 48.1001C147.808 48.1001 146.088 47.5783 144.625 46.6007C143.162 45.6231 142.021 44.2337 141.347 42.6079C140.674 40.9822 140.497 39.1933 140.84 37.4673C141.183 35.7413 142.031 34.1558 143.275 32.9112C144.941 31.2411 147.202 30.3007 149.561 30.2965C151.92 30.2923 154.184 31.2246 155.857 32.8886L155.861 32.9112Z" fill="#F0F0F0"/>
<path d="M121.84 0H83.1501C81.9184 0 80.9199 0.998494 80.9199 2.2302V31.8368C80.9199 33.0685 81.9184 34.067 83.1501 34.067H121.84C123.072 34.067 124.07 33.0685 124.07 31.8368V2.2302C124.07 0.998494 123.072 0 121.84 0Z" fill="#E6E6E6"/>
<path d="M83.0057 0H122.016C122.286 0 122.553 0.0531316 122.802 0.156361C123.051 0.259591 123.278 0.410897 123.469 0.601641C123.659 0.792384 123.811 1.01883 123.914 1.26805C124.017 1.51727 124.07 1.78438 124.07 2.05413V5.94117H80.9199V2.09025C80.9199 1.53666 81.1395 1.00568 81.5305 0.613813C81.9216 0.221945 82.4521 0.00119565 83.0057 0V0Z" fill="#E0E0E0"/>
<path opacity="0.5" d="M121.78 3.40397C121.781 3.6615 121.705 3.9135 121.563 4.12801C121.42 4.34252 121.217 4.50987 120.98 4.60883C120.742 4.7078 120.48 4.73393 120.227 4.6839C119.975 4.63388 119.743 4.50996 119.561 4.32785C119.378 4.14574 119.254 3.91366 119.204 3.66102C119.154 3.40839 119.181 3.14659 119.28 2.90883C119.378 2.67106 119.546 2.46805 119.76 2.32552C119.975 2.183 120.227 2.10739 120.484 2.10828C120.828 2.10828 121.158 2.24479 121.401 2.48778C121.644 2.73077 121.78 3.06033 121.78 3.40397Z" fill="#FAFAFA"/>
<path opacity="0.5" d="M118.096 3.40397C118.097 3.66131 118.022 3.91313 117.88 4.12754C117.737 4.34195 117.534 4.5093 117.297 4.6084C117.059 4.70751 116.798 4.7339 116.545 4.68424C116.293 4.63458 116.061 4.51111 115.879 4.32946C115.696 4.1478 115.572 3.91614 115.521 3.6638C115.471 3.41146 115.496 3.14981 115.595 2.91197C115.693 2.67412 115.86 2.47079 116.073 2.32772C116.287 2.18466 116.539 2.10829 116.796 2.10828C116.967 2.10769 117.136 2.14076 117.294 2.20561C117.451 2.27046 117.595 2.36581 117.715 2.48618C117.836 2.60655 117.932 2.74959 117.997 2.90708C118.063 3.06458 118.096 3.23343 118.096 3.40397Z" fill="#FAFAFA"/>
<path opacity="0.5" d="M113.112 4.69964C113.828 4.69964 114.408 4.11954 114.408 3.40396C114.408 2.68837 113.828 2.10828 113.112 2.10828C112.397 2.10828 111.816 2.68837 111.816 3.40396C111.816 4.11954 112.397 4.69964 113.112 4.69964Z" fill="#FAFAFA"/>
<path opacity="0.6" d="M113.912 10.9072H90.8242V12.1171H113.912V10.9072Z" fill="white"/>
<path d="M107.7 13.5211H91.1816V14.731H107.7V13.5211Z" fill="#E0E0E0"/>
<path d="M120.174 10.9072H115.953V12.1171H120.174V10.9072Z" fill="#F0F0F0"/>
<path d="M89.2213 10.9072H84.6797V12.1171H89.2213V10.9072Z" fill="#F0F0F0"/>
<path d="M113.912 16.4285H90.8242V17.6384H113.912V16.4285Z" fill="#F0F0F0"/>
<path opacity="0.6" d="M120.174 16.4285H115.953V17.6384H120.174V16.4285Z" fill="white"/>
<path d="M89.2213 16.4285H84.6797V17.6384H89.2213V16.4285Z" fill="#F0F0F0"/>
<path opacity="0.6" d="M113.912 27.9407H90.8242V29.1506H113.912V27.9407Z" fill="white"/>
<path opacity="0.6" d="M120.174 27.9407H115.953V29.1506H120.174V27.9407Z" fill="white"/>
<path d="M113.912 19.3404H90.8242V20.5503H113.912V19.3404Z" fill="#F0F0F0"/>
<path d="M120.174 19.3404H115.953V20.5503H120.174V19.3404Z" fill="#E0E0E0"/>
<path d="M89.2213 19.3404H84.6797V20.5503H89.2213V19.3404Z" fill="#E0E0E0"/>
<path d="M120.485 13.5708H109.51V14.7807H120.485V13.5708Z" fill="#F0F0F0"/>
<path opacity="0.6" d="M107.343 21.8776H90.8242V23.0875H107.343V21.8776Z" fill="white"/>
<path d="M120.123 21.9272H109.148V23.1372H120.123V21.9272Z" fill="#F0F0F0"/>
<path d="M99.0859 24.5096H90.8242V25.7195H99.0859V24.5096Z" fill="#E0E0E0"/>
<path d="M180.718 23.9408L175.829 26.2251L180.718 28.5095V30.3515L174.186 27.1913V25.268L180.718 22.1078V23.9408Z" fill="#E0E0E0"/>
<path d="M195.603 25.268V27.1822L189.066 30.3424V28.5095L193.956 26.2251L189.066 23.9408V22.1033L195.603 25.268Z" fill="#E0E0E0"/>
<path d="M186.037 20.8167L182.85 31.8323H184.443L187.631 20.8167H186.037Z" fill="#E0E0E0"/>
<path d="M16.866 82.892C16.2745 83.7929 15.8594 84.7979 15.6426 85.8536L13.9902 86.0071V89.2079L15.6426 89.3659C15.8594 90.4202 16.2746 91.4237 16.866 92.3229L15.8006 93.6006L18.0579 95.8578L19.331 94.8014C20.2328 95.3911 21.2374 95.8061 22.2925 96.0249L22.446 97.6772H25.6469L25.8049 96.0249C26.8588 95.8069 27.8621 95.3918 28.7619 94.8014L30.0395 95.8578L32.2968 93.6006L31.2404 92.3229C31.8462 91.4267 32.2752 90.4231 32.5045 89.3659L34.1568 89.2079V86.0071L32.5045 85.8536C32.2877 84.7979 31.8725 83.7929 31.281 82.892L32.3149 81.6099L30.0576 79.3526L28.78 80.4045C27.8799 79.8155 26.8766 79.4019 25.8229 79.1855L25.6604 77.5468H22.4596L22.3061 79.1991C21.2511 79.4159 20.2464 79.8294 19.3445 80.418L18.0579 79.3526L15.8006 81.6099L16.866 82.892ZM27.7371 83.9349C28.4637 84.6616 28.9584 85.5875 29.1588 86.5955C29.3592 87.6034 29.2562 88.6481 28.8628 89.5975C28.4695 90.5469 27.8035 91.3584 26.949 91.9293C26.0945 92.5002 25.0899 92.8049 24.0622 92.8049C23.0346 92.8049 22.03 92.5002 21.1755 91.9293C20.321 91.3584 19.655 90.5469 19.2617 89.5975C18.8683 88.6481 18.7653 87.6034 18.9657 86.5955C19.1661 85.5875 19.6608 84.6616 20.3874 83.9349C21.3625 82.9612 22.6842 82.4142 24.0622 82.4142C25.4403 82.4142 26.762 82.9612 27.7371 83.9349Z" fill="#E0E0E0"/>
<path d="M198.239 45.6378C197.749 46.3849 197.404 47.2182 197.224 48.0937L195.869 48.2246V50.8792L197.224 51.0101C197.404 51.8856 197.749 52.7189 198.239 53.466L197.363 54.5225L199.242 56.4005L200.302 55.5247C201.05 56.0141 201.883 56.3573 202.758 56.536L202.885 57.8903H205.544L205.675 56.536C206.55 56.3556 207.383 56.0126 208.131 55.5247L209.187 56.4005L211.07 54.5225L210.194 53.4615C210.681 52.7132 211.024 51.8802 211.205 51.0056L212.56 50.8747V48.2201L211.205 48.0892C211.025 47.2137 210.68 46.3804 210.189 45.6333L211.07 44.5723L209.187 42.6943L208.122 43.5746C207.374 43.0867 206.54 42.7437 205.666 42.5634L205.535 41.209H202.885L202.758 42.5634C201.883 42.742 201.05 43.0852 200.302 43.5746L199.242 42.6988L197.363 44.5904L198.239 45.6378ZM207.268 46.5001C207.872 47.1037 208.283 47.8727 208.45 48.7099C208.616 49.5471 208.531 50.4149 208.204 51.2035C207.877 51.9921 207.324 52.6662 206.614 53.1404C205.905 53.6147 205.07 53.8678 204.217 53.8678C203.363 53.8678 202.529 53.6147 201.819 53.1404C201.109 52.6662 200.556 51.9921 200.229 51.2035C199.903 50.4149 199.817 49.5471 199.984 48.7099C200.15 47.8727 200.561 47.1037 201.165 46.5001C201.975 45.6918 203.072 45.2378 204.217 45.2378C205.361 45.2378 206.458 45.6918 207.268 46.5001Z" fill="#E0E0E0"/>
<path d="M212.46 177.079H196.727V177.197H212.46V177.079Z" fill="#EBEBEB"/>
<path d="M156.092 178.371H151.961V178.488H156.092V178.371Z" fill="#EBEBEB"/>
<path d="M196.248 172.669H187.133V172.786H196.248V172.669Z" fill="#EBEBEB"/>
<path d="M44.1978 173.468H23.6836V173.585H44.1978V173.468Z" fill="#EBEBEB"/>
<path d="M51.4344 173.468H48.4277V173.585H51.4344V173.468Z" fill="#EBEBEB"/>
<path d="M105.708 175.472H61.2129V175.59H105.708V175.472Z" fill="#EBEBEB"/>
<path d="M200.41 142.168H118.81C118.108 142.167 117.436 141.888 116.94 141.392C116.444 140.896 116.165 140.224 116.164 139.523V20.6632C116.165 19.9619 116.444 19.2897 116.94 18.7938C117.436 18.2979 118.108 18.0188 118.81 18.0176H200.41C201.112 18.0188 201.784 18.2979 202.28 18.7938C202.776 19.2897 203.055 19.9619 203.056 20.6632V139.523C203.055 140.224 202.776 140.896 202.28 141.392C201.784 141.888 201.112 142.167 200.41 142.168ZM118.81 18.135C118.139 18.135 117.495 18.4012 117.02 18.8752C116.545 19.3492 116.278 19.9923 116.277 20.6632V139.523C116.277 140.195 116.544 140.839 117.019 141.314C117.494 141.789 118.138 142.055 118.81 142.055H200.41C201.082 142.055 201.726 141.789 202.201 141.314C202.676 140.839 202.943 140.195 202.943 139.523V20.6632C202.943 19.9915 202.676 19.3473 202.201 18.8723C201.726 18.3973 201.082 18.1305 200.41 18.1305L118.81 18.135Z" fill="#E0E0E0"/>
<path d="M106.313 142.168H24.7165C24.0144 142.168 23.341 141.89 22.8442 141.394C22.3473 140.898 22.0676 140.225 22.0664 139.523V20.6632C22.0676 19.9611 22.3473 19.2882 22.8442 18.7922C23.341 18.2962 24.0144 18.0176 24.7165 18.0176H106.313C107.014 18.0176 107.687 18.2964 108.183 18.7925C108.68 19.2886 108.958 19.9615 108.958 20.6632V139.523C108.958 140.224 108.68 140.897 108.183 141.393C107.687 141.89 107.014 142.168 106.313 142.168ZM24.7165 18.135C24.0451 18.135 23.4011 18.4011 22.9256 18.875C22.45 19.3488 22.1817 19.9918 22.1793 20.6632V139.523C22.1805 140.195 22.4483 140.839 22.924 141.314C23.3997 141.789 24.0443 142.055 24.7165 142.055H106.313C106.645 142.055 106.975 141.99 107.282 141.863C107.589 141.735 107.868 141.549 108.104 141.314C108.339 141.078 108.525 140.799 108.653 140.492C108.78 140.185 108.845 139.855 108.845 139.523V20.6632C108.845 20.3306 108.78 20.0012 108.653 19.694C108.525 19.3867 108.339 19.1075 108.104 18.8723C107.868 18.6371 107.589 18.4506 107.282 18.3233C106.975 18.196 106.645 18.1305 106.313 18.1305L24.7165 18.135Z" fill="#E0E0E0"/>
<path d="M225.729 169.739H0V169.852H225.729V169.739Z" fill="#E0E0E0"/>
<path d="M205.44 186.569C205.44 188.095 163.22 189.337 111.14 189.337C59.0595 189.337 16.8438 188.095 16.8438 186.569C16.8438 185.043 59.0595 183.797 111.14 183.797C163.22 183.797 205.44 185.039 205.44 186.569Z" fill="#F5F5F5"/>
<path d="M42.6669 39.1774H53.3348V144.155H41.8587C40.9839 144.154 40.1451 143.805 39.5265 143.187C38.9079 142.568 38.5598 141.729 38.5586 140.855V43.2902C38.5586 42.2002 38.9913 41.1548 39.7616 40.3836C40.5319 39.6125 41.5769 39.1786 42.6669 39.1774Z" fill="#263238"/>
<path d="M97.3436 142.344L92.6484 166.403H99.4609L104.896 142.543L97.3436 142.344Z" fill="#263238"/>
<path d="M90.3671 166.114H86.918V169.563H90.3671V166.114Z" fill="#263238"/>
<path opacity="0.5" d="M42.6669 39.1774H53.3348V144.155H41.8587C40.9839 144.154 40.1451 143.805 39.5265 143.187C38.9079 142.568 38.5598 141.729 38.5586 140.855V43.2902C38.5586 42.2002 38.9913 41.1548 39.7616 40.3836C40.5319 39.6125 41.5769 39.1786 42.6669 39.1774Z" fill="white"/>
<path opacity="0.5" d="M97.3436 142.344L92.6484 166.403H99.4609L104.896 142.543L97.3436 142.344Z" fill="white"/>
<path opacity="0.5" d="M90.3671 166.114H86.918V169.563H90.3671V166.114Z" fill="white"/>
<path d="M140.122 169.567H96.3672L102.584 133.108H131.703L140.122 169.567Z" fill="#263238"/>
<path opacity="0.7" d="M140.122 169.567H96.3672L102.584 133.108H131.703L140.122 169.567Z" fill="white"/>
<path opacity="0.1" d="M134.241 144.155H100.684L99.4609 151.337L135.216 148.385L134.241 144.155Z" fill="black"/>
<path d="M146.119 166.114H89.4023V169.563H146.119V166.114Z" fill="#263238"/>
<g opacity="0.7">
<path d="M146.119 166.114H89.4023V169.563H146.119V166.114Z" fill="white"/>
</g>
<path d="M45.6997 39.1729H187.566C188.533 39.186 189.455 39.5812 190.132 40.2723C190.809 40.9634 191.184 41.8941 191.177 42.8613V140.466C191.184 141.434 190.809 142.364 190.132 143.055C189.455 143.746 188.533 144.142 187.566 144.155H45.6997C44.7326 144.142 43.8099 143.746 43.1332 143.055C42.4565 142.364 42.0808 141.434 42.088 140.466V42.8658C42.0796 41.8979 42.4548 40.966 43.1316 40.2739C43.8084 39.5819 44.7318 39.186 45.6997 39.1729Z" fill="#263238"/>
<g opacity="0.7">
<path d="M45.6997 39.1729H187.566C188.533 39.186 189.455 39.5812 190.132 40.2723C190.809 40.9634 191.184 41.8941 191.177 42.8613V140.466C191.184 141.434 190.809 142.364 190.132 143.055C189.455 143.746 188.533 144.142 187.566 144.155H45.6997C44.7326 144.142 43.8099 143.746 43.1332 143.055C42.4565 142.364 42.0808 141.434 42.088 140.466V42.8658C42.0796 41.8979 42.4548 40.966 43.1316 40.2739C43.8084 39.5819 44.7318 39.186 45.6997 39.1729Z" fill="white"/>
</g>
<path d="M187.233 42.7891H45.3945V136.9H187.233V42.7891Z" fill="#FF6C37"/>
<path opacity="0.9" d="M187.233 42.7891H45.3945V136.9H187.233V42.7891Z" fill="white"/>
<path d="M187.233 42.7891H45.3945V50.3419H187.233V42.7891Z" fill="#FF6C37"/>
<path opacity="0.5" d="M185.345 46.5678C185.346 46.8858 185.253 47.197 185.077 47.4619C184.901 47.7268 184.65 47.9335 184.356 48.0558C184.063 48.1782 183.739 48.2106 183.427 48.1491C183.115 48.0876 182.828 47.9349 182.603 47.7103C182.378 47.4857 182.224 47.1994 182.162 46.8875C182.1 46.5756 182.131 46.2522 182.253 45.9583C182.374 45.6643 182.58 45.4131 182.845 45.2363C183.109 45.0595 183.42 44.9651 183.738 44.9651C184.164 44.9651 184.572 45.1338 184.873 45.4342C185.174 45.7347 185.344 46.1423 185.345 46.5678Z" fill="white"/>
<path opacity="0.5" d="M180.781 46.5678C180.782 46.886 180.688 47.1974 180.512 47.4624C180.336 47.7274 180.085 47.9341 179.791 48.0563C179.497 48.1785 179.173 48.2107 178.861 48.1488C178.549 48.0869 178.262 47.9338 178.037 47.7087C177.812 47.4837 177.659 47.1969 177.597 46.8847C177.535 46.5725 177.567 46.249 177.69 45.9552C177.812 45.6613 178.019 45.4103 178.283 45.2341C178.548 45.0578 178.86 44.9642 179.178 44.9651C179.603 44.9663 180.01 45.1355 180.31 45.4358C180.61 45.7361 180.78 46.1431 180.781 46.5678Z" fill="white"/>
<path opacity="0.5" d="M176.222 46.5678C176.223 46.8858 176.13 47.197 175.954 47.4619C175.777 47.7268 175.527 47.9335 175.233 48.0558C174.94 48.1782 174.616 48.2106 174.304 48.1491C173.992 48.0876 173.705 47.9349 173.48 47.7103C173.255 47.4857 173.101 47.1994 173.039 46.8875C172.977 46.5756 173.008 46.2522 173.13 45.9583C173.251 45.6643 173.457 45.4131 173.722 45.2363C173.986 45.0595 174.297 44.9651 174.615 44.9651C175.04 44.9651 175.449 45.1338 175.75 45.4342C176.051 45.7347 176.221 46.1423 176.222 46.5678Z" fill="white"/>
<path d="M71.6907 105.456C71.2383 106.151 70.9198 106.924 70.7516 107.736L69.4785 107.853V110.318L70.7516 110.44C70.9227 111.244 71.2411 112.009 71.6907 112.697L70.878 113.681L72.6207 115.424L73.6048 114.611C74.2925 115.062 75.058 115.38 75.8621 115.55L75.984 116.823H78.449L78.5663 115.55C79.3782 115.382 80.1514 115.064 80.8462 114.611L81.8259 115.424L83.5685 113.681L82.7559 112.697C83.2094 112.011 83.5294 111.245 83.6994 110.44L84.968 110.318V107.853L83.6994 107.736C83.5316 106.923 83.2115 106.149 82.7559 105.456L83.5685 104.476L81.8259 102.734L80.8462 103.546C80.1526 103.091 79.379 102.77 78.5663 102.603L78.449 101.334H75.984L75.8621 102.603C75.0571 102.773 74.2913 103.093 73.6048 103.546L72.6207 102.734L70.878 104.476L71.6907 105.456ZM79.5009 106.81C79.9518 107.257 80.2596 107.828 80.3854 108.451C80.5112 109.073 80.4493 109.719 80.2074 110.306C79.9656 110.894 79.5548 111.396 79.0271 111.749C78.4994 112.103 77.8787 112.291 77.2436 112.291C76.6085 112.291 75.9878 112.103 75.4601 111.749C74.9324 111.396 74.5216 110.894 74.2797 110.306C74.0379 109.719 73.976 109.073 74.1017 108.451C74.2275 107.828 74.5354 107.257 74.9863 106.81C75.5878 106.216 76.3998 105.883 77.2454 105.885C78.091 105.887 78.9017 106.222 79.5009 106.819V106.81Z" fill="#FF6C37"/>
<path opacity="0.4" d="M71.6907 105.456C71.2383 106.151 70.9198 106.924 70.7516 107.736L69.4785 107.853V110.318L70.7516 110.44C70.9227 111.244 71.2411 112.009 71.6907 112.697L70.878 113.681L72.6207 115.424L73.6048 114.611C74.2925 115.062 75.058 115.38 75.8621 115.55L75.984 116.823H78.449L78.5663 115.55C79.3782 115.382 80.1514 115.064 80.8462 114.611L81.8259 115.424L83.5685 113.681L82.7559 112.697C83.2094 112.011 83.5294 111.245 83.6994 110.44L84.968 110.318V107.853L83.6994 107.736C83.5316 106.923 83.2115 106.149 82.7559 105.456L83.5685 104.476L81.8259 102.734L80.8462 103.546C80.1526 103.091 79.379 102.77 78.5663 102.603L78.449 101.334H75.984L75.8621 102.603C75.0571 102.773 74.2913 103.093 73.6048 103.546L72.6207 102.734L70.878 104.476L71.6907 105.456ZM79.5009 106.81C79.9518 107.257 80.2596 107.828 80.3854 108.451C80.5112 109.073 80.4493 109.719 80.2074 110.306C79.9656 110.894 79.5548 111.396 79.0271 111.749C78.4994 112.103 77.8787 112.291 77.2436 112.291C76.6085 112.291 75.9878 112.103 75.4601 111.749C74.9324 111.396 74.5216 110.894 74.2797 110.306C74.0379 109.719 73.976 109.073 74.1017 108.451C74.2275 107.828 74.5354 107.257 74.9863 106.81C75.5878 106.216 76.3998 105.883 77.2454 105.885C78.091 105.887 78.9017 106.222 79.5009 106.819V106.81Z" fill="white"/>
<path d="M144.43 75.2894C144.01 75.9327 143.714 76.6495 143.559 77.4023L142.381 77.5106V79.804L143.559 79.9124C143.714 80.6651 144.01 81.3819 144.43 82.0252L143.677 82.9281L145.293 84.5443L146.196 83.7904C146.839 84.2111 147.556 84.5067 148.308 84.6617L148.417 85.84H150.701L150.81 84.6617C151.562 84.5067 152.279 84.2111 152.922 83.7904L153.825 84.5443L155.442 82.9281L154.688 82.0252C155.108 81.3819 155.404 80.6651 155.559 79.9124L156.737 79.804V77.5467L155.559 77.4384C155.404 76.6856 155.108 75.9688 154.688 75.3256L155.442 74.4226L153.825 72.8064L152.922 73.5604C152.279 73.1397 151.562 72.8441 150.81 72.689L150.701 71.5107H148.417L148.308 72.689C147.556 72.8441 146.839 73.1397 146.196 73.5604L145.293 72.8064L143.677 74.3865L144.43 75.2894ZM151.654 76.5535C152.07 76.9688 152.353 77.4981 152.468 78.0745C152.583 78.6508 152.524 79.2483 152.299 79.7913C152.075 80.3343 151.694 80.7984 151.205 81.125C150.717 81.4516 150.142 81.6259 149.555 81.6259C148.967 81.6259 148.392 81.4516 147.904 81.125C147.415 80.7984 147.034 80.3343 146.81 79.7913C146.585 79.2483 146.526 78.6508 146.641 78.0745C146.756 77.4981 147.039 76.9688 147.455 76.5535C147.732 76.277 148.06 76.058 148.422 75.9089C148.783 75.7599 149.171 75.6838 149.562 75.6851C149.953 75.6863 150.34 75.7649 150.7 75.9163C151.061 76.0676 151.388 76.2888 151.663 76.5671L151.654 76.5535Z" fill="#FF6C37"/>
<path opacity="0.4" d="M144.43 75.2894C144.01 75.9327 143.714 76.6495 143.559 77.4023L142.381 77.5106V79.804L143.559 79.9124C143.714 80.6651 144.01 81.3819 144.43 82.0252L143.677 82.9281L145.293 84.5443L146.196 83.7904C146.839 84.2111 147.556 84.5067 148.308 84.6617L148.417 85.84H150.701L150.81 84.6617C151.562 84.5067 152.279 84.2111 152.922 83.7904L153.825 84.5443L155.442 82.9281L154.688 82.0252C155.108 81.3819 155.404 80.6651 155.559 79.9124L156.737 79.804V77.5467L155.559 77.4384C155.404 76.6856 155.108 75.9688 154.688 75.3256L155.442 74.4226L153.825 72.8064L152.922 73.5604C152.279 73.1397 151.562 72.8441 150.81 72.689L150.701 71.5107H148.417L148.308 72.689C147.556 72.8441 146.839 73.1397 146.196 73.5604L145.293 72.8064L143.677 74.3865L144.43 75.2894ZM151.654 76.5535C152.07 76.9688 152.353 77.4981 152.468 78.0745C152.583 78.6508 152.524 79.2483 152.299 79.7913C152.075 80.3343 151.694 80.7984 151.205 81.125C150.717 81.4516 150.142 81.6259 149.555 81.6259C148.967 81.6259 148.392 81.4516 147.904 81.125C147.415 80.7984 147.034 80.3343 146.81 79.7913C146.585 79.2483 146.526 78.6508 146.641 78.0745C146.756 77.4981 147.039 76.9688 147.455 76.5535C147.732 76.277 148.06 76.058 148.422 75.9089C148.783 75.7599 149.171 75.6838 149.562 75.6851C149.953 75.6863 150.34 75.7649 150.7 75.9163C151.061 76.0676 151.388 76.2888 151.663 76.5671L151.654 76.5535Z" fill="white"/>
<path d="M141.604 62.6713C141.336 63.0844 141.146 63.5436 141.044 64.0256L140.281 64.0933V65.5696L141.044 65.6418C141.145 66.1243 141.334 66.5837 141.604 66.9962L141.116 67.5831L142.159 68.626L142.751 68.1384C143.162 68.4112 143.622 68.6027 144.105 68.7027L144.177 69.4657H145.649L145.721 68.7027C146.205 68.6027 146.664 68.4112 147.076 68.1384L147.663 68.626L148.705 67.5831L148.222 66.9962C148.492 66.5837 148.682 66.1243 148.782 65.6418L149.545 65.5696V64.0933L148.782 64.0211C148.68 63.5391 148.49 63.0801 148.222 62.6667L148.705 62.0798L147.663 61.037L147.076 61.5245C146.663 61.2536 146.204 61.0622 145.721 60.9602L145.649 60.2018H144.177L144.105 60.9602C143.622 61.0622 143.163 61.2536 142.751 61.5245L142.159 61.037L141.116 62.0798L141.604 62.6713ZM146.272 63.4884C146.541 63.7565 146.724 64.0983 146.799 64.4707C146.874 64.8431 146.836 65.2292 146.691 65.5802C146.546 65.9312 146.3 66.2312 145.984 66.4423C145.669 66.6534 145.297 66.7661 144.918 66.7661C144.538 66.7661 144.167 66.6534 143.851 66.4423C143.535 66.2312 143.289 65.9312 143.144 65.5802C142.999 65.2292 142.962 64.8431 143.036 64.4707C143.111 64.0983 143.294 63.7565 143.563 63.4884C143.923 63.13 144.41 62.9288 144.918 62.9288C145.425 62.9288 145.912 63.13 146.272 63.4884Z" fill="#FF6C37"/>
<path opacity="0.7" d="M141.604 62.6713C141.336 63.0844 141.146 63.5436 141.044 64.0256L140.281 64.0933V65.5696L141.044 65.6418C141.145 66.1243 141.334 66.5837 141.604 66.9962L141.116 67.5831L142.159 68.626L142.751 68.1384C143.162 68.4112 143.622 68.6027 144.105 68.7027L144.177 69.4657H145.649L145.721 68.7027C146.205 68.6027 146.664 68.4112 147.076 68.1384L147.663 68.626L148.705 67.5831L148.222 66.9962C148.492 66.5837 148.682 66.1243 148.782 65.6418L149.545 65.5696V64.0933L148.782 64.0211C148.68 63.5391 148.49 63.0801 148.222 62.6667L148.705 62.0798L147.663 61.037L147.076 61.5245C146.663 61.2536 146.204 61.0622 145.721 60.9602L145.649 60.2018H144.177L144.105 60.9602C143.622 61.0622 143.163 61.2536 142.751 61.5245L142.159 61.037L141.116 62.0798L141.604 62.6713ZM146.272 63.4884C146.541 63.7565 146.724 64.0983 146.799 64.4707C146.874 64.8431 146.836 65.2292 146.691 65.5802C146.546 65.9312 146.3 66.2312 145.984 66.4423C145.669 66.6534 145.297 66.7661 144.918 66.7661C144.538 66.7661 144.167 66.6534 143.851 66.4423C143.535 66.2312 143.289 65.9312 143.144 65.5802C142.999 65.2292 142.962 64.8431 143.036 64.4707C143.111 64.0983 143.294 63.7565 143.563 63.4884C143.923 63.13 144.41 62.9288 144.918 62.9288C145.425 62.9288 145.912 63.13 146.272 63.4884Z" fill="white"/>
<path d="M79.9068 120.241C79.6387 120.654 79.4489 121.113 79.3469 121.595L78.584 121.668V123.144L79.3469 123.216C79.4481 123.698 79.638 124.158 79.9068 124.571L79.4237 125.157L80.4666 126.2L81.0534 125.713C81.4648 125.986 81.9245 126.177 82.4078 126.277L82.4801 127.04H83.9699L84.0421 126.277C84.5254 126.177 84.9851 125.986 85.3965 125.713L85.9879 126.2L87.0307 125.157L86.5432 124.571C86.8138 124.159 87.0037 123.699 87.103 123.216L87.8659 123.144V121.668L87.103 121.595C87.003 121.113 86.8131 120.653 86.5432 120.241L87.0307 119.654L85.9879 118.629L85.3965 119.081C84.9842 118.81 84.5248 118.618 84.0421 118.517L83.9699 117.758H82.4981L82.4259 118.517C81.9432 118.618 81.4838 118.81 81.0715 119.081L80.4846 118.593L79.4418 119.636L79.9068 120.241ZM84.5838 121.058C84.8528 121.326 85.0362 121.668 85.1108 122.041C85.1854 122.413 85.1478 122.799 85.0027 123.15C84.8577 123.501 84.6118 123.801 84.2961 124.012C83.9805 124.223 83.6092 124.336 83.2295 124.336C82.8497 124.336 82.4785 124.223 82.1628 124.012C81.8471 123.801 81.6012 123.501 81.4562 123.15C81.3112 122.799 81.2736 122.413 81.3481 122.041C81.4227 121.668 81.6061 121.326 81.8751 121.058C82.2347 120.7 82.7218 120.499 83.2295 120.499C83.7372 120.499 84.2242 120.7 84.5838 121.058Z" fill="#FF6C37"/>
<path opacity="0.7" d="M79.9068 120.241C79.6387 120.654 79.4489 121.113 79.3469 121.595L78.584 121.668V123.144L79.3469 123.216C79.4481 123.698 79.638 124.158 79.9068 124.571L79.4237 125.157L80.4666 126.2L81.0534 125.713C81.4648 125.986 81.9245 126.177 82.4078 126.277L82.4801 127.04H83.9699L84.0421 126.277C84.5254 126.177 84.9851 125.986 85.3965 125.713L85.9879 126.2L87.0307 125.157L86.5432 124.571C86.8138 124.159 87.0037 123.699 87.103 123.216L87.8659 123.144V121.668L87.103 121.595C87.003 121.113 86.8131 120.653 86.5432 120.241L87.0307 119.654L85.9879 118.629L85.3965 119.081C84.9842 118.81 84.5248 118.618 84.0421 118.517L83.9699 117.758H82.4981L82.4259 118.517C81.9432 118.618 81.4838 118.81 81.0715 119.081L80.4846 118.593L79.4418 119.636L79.9068 120.241ZM84.5838 121.058C84.8528 121.326 85.0362 121.668 85.1108 122.041C85.1854 122.413 85.1478 122.799 85.0027 123.15C84.8577 123.501 84.6118 123.801 84.2961 124.012C83.9805 124.223 83.6092 124.336 83.2295 124.336C82.8497 124.336 82.4785 124.223 82.1628 124.012C81.8471 123.801 81.6012 123.501 81.4562 123.15C81.3112 122.799 81.2736 122.413 81.3481 122.041C81.4227 121.668 81.6061 121.326 81.8751 121.058C82.2347 120.7 82.7218 120.499 83.2295 120.499C83.7372 120.499 84.2242 120.7 84.5838 121.058Z" fill="white"/>
<path d="M90.0658 77.6777C88.1039 80.6732 86.7254 84.0123 86.0026 87.5194L80.5039 88.0386V98.684L86.0026 99.2167C86.7263 102.725 88.1048 106.065 90.0658 109.063L86.5534 113.302L94.0837 120.832L98.3229 117.32C101.321 119.281 104.661 120.66 108.169 121.383L108.688 126.882H119.334L119.853 121.383C123.36 120.66 126.699 119.282 129.695 117.32L133.938 120.832L141.469 113.302L137.956 109.063C139.918 106.066 141.297 102.725 142.019 99.2167L147.514 98.6975V88.0386L142.019 87.5194C141.296 84.0126 139.917 80.6737 137.956 77.6777L141.469 73.434L133.938 65.9082L129.695 69.416C126.699 67.455 123.36 66.0766 119.853 65.3529L119.334 59.8541H108.688L108.169 65.3574C104.661 66.0811 101.321 67.4595 98.3229 69.4205L94.0837 65.9082L86.5534 73.4385L90.0658 77.6777ZM126.236 81.1584C128.655 83.5764 130.302 86.6574 130.969 90.0115C131.637 93.3657 131.295 96.8424 129.986 100.002C128.677 103.162 126.461 105.862 123.618 107.762C120.774 109.662 117.431 110.677 114.011 110.677C110.591 110.677 107.248 109.662 104.404 107.762C101.561 105.862 99.3448 103.162 98.0362 100.002C96.7275 96.8424 96.3853 93.3657 97.0527 90.0115C97.7201 86.6574 99.3671 83.5764 101.786 81.1584C105.029 77.9174 109.426 76.0969 114.011 76.0969C118.596 76.0969 122.993 77.9174 126.236 81.1584Z" fill="#FF6C37"/>
<path d="M108.917 94.8827H105.08L104.344 96.6569H102.385L106.091 88.3817H107.978L111.676 96.6524H109.667L108.917 94.8827ZM108.317 93.429L107.003 90.2688L105.694 93.429H108.317Z" fill="#FF6C37"/>
<path d="M118.011 88.7519C118.386 88.931 118.718 89.1867 118.987 89.5025C119.256 89.8183 119.456 90.1872 119.574 90.5852C119.691 90.9831 119.724 91.4014 119.669 91.8127C119.615 92.2241 119.474 92.6194 119.257 92.973C118.953 93.4355 118.52 93.7982 118.011 94.0159C117.406 94.2666 116.756 94.3881 116.102 94.3726H114.436V96.6569H112.521V88.3817H116.102C116.757 88.3682 117.408 88.4944 118.011 88.7519ZM117.307 92.4448C117.45 92.3071 117.564 92.142 117.641 91.9593C117.719 91.7766 117.759 91.5802 117.759 91.3817C117.759 91.1832 117.719 90.9867 117.641 90.804C117.564 90.6213 117.45 90.4562 117.307 90.3185C116.928 90.0446 116.464 89.9121 115.998 89.9438H114.436V92.815H115.998C116.464 92.8481 116.927 92.7171 117.307 92.4448Z" fill="#FF6C37"/>
<path d="M121.053 88.3817H122.967V96.6524H121.053V88.3817Z" fill="#FF6C37"/>
<path d="M98.3215 95.5509C98.2654 95.5512 98.2111 95.5305 98.1694 95.4929C98.1276 95.4554 98.1014 95.4036 98.0958 95.3477C97.8397 93.0761 98.0508 90.7762 98.7161 88.5891C99.3815 86.4021 100.487 84.3743 101.965 82.6302C101.984 82.6076 102.008 82.5891 102.034 82.5757C102.06 82.5622 102.089 82.5541 102.119 82.5518C102.148 82.5495 102.178 82.5531 102.206 82.5622C102.234 82.5714 102.261 82.5861 102.283 82.6053C102.306 82.6246 102.324 82.6481 102.338 82.6745C102.351 82.701 102.359 82.7298 102.361 82.7593C102.364 82.7889 102.36 82.8186 102.351 82.8468C102.342 82.875 102.327 82.9011 102.308 82.9236C100.869 84.6211 99.7937 86.5951 99.147 88.7241C98.5002 90.853 98.2961 93.0918 98.5472 95.3026C98.5523 95.3622 98.534 95.4216 98.496 95.4679C98.4581 95.5143 98.4036 95.544 98.3441 95.5509H98.3215Z" fill="#FF6C37"/>
<path d="M99.0858 99.1174C99.0368 99.1182 98.9889 99.1026 98.9497 99.0732C98.9105 99.0438 98.8821 99.0022 98.8691 98.9549C98.6831 98.3258 98.5323 97.6867 98.4177 97.0407C98.4124 97.0111 98.4129 96.9807 98.4193 96.9513C98.4257 96.9218 98.4379 96.894 98.4551 96.8692C98.4723 96.8445 98.4942 96.8234 98.5195 96.8071C98.5448 96.7908 98.5731 96.7797 98.6028 96.7744C98.6324 96.769 98.6628 96.7696 98.6923 96.776C98.7217 96.7824 98.7496 96.7946 98.7743 96.8118C98.799 96.829 98.8201 96.8508 98.8364 96.8762C98.8527 96.9015 98.8638 96.9298 98.8691 96.9595C98.9859 97.5902 99.1366 98.2141 99.3206 98.8285C99.3374 98.886 99.3306 98.9478 99.3018 99.0003C99.273 99.0527 99.2246 99.0916 99.1671 99.1084C99.1412 99.1183 99.1133 99.1214 99.0858 99.1174Z" fill="#FF6C37"/>
<path d="M57.9355 69.7817V92.3817H77.2353" stroke="#FF6C37" stroke-linecap="round" stroke-linejoin="round"/>
<path d="M57.935 70.9374C58.5733 70.9374 59.0908 70.42 59.0908 69.7817C59.0908 69.1434 58.5733 68.626 57.935 68.626C57.2967 68.626 56.7793 69.1434 56.7793 69.7817C56.7793 70.42 57.2967 70.9374 57.935 70.9374Z" fill="#FF6C37"/>
<path d="M175.707 111.397C176.345 111.397 176.862 110.88 176.862 110.241C176.862 109.603 176.345 109.086 175.707 109.086C175.068 109.086 174.551 109.603 174.551 110.241C174.551 110.88 175.068 111.397 175.707 111.397Z" fill="#FF6C37"/>
<path d="M175.706 110.074V119.036H147.436V106.661H143.201" stroke="#FF6C37" stroke-miterlimit="10"/>
<path d="M211.679 122.417H162.52V169.567H211.679V122.417Z" fill="#407BFF"/>
<path opacity="0.4" d="M211.679 122.417H162.52V169.567H211.679V122.417Z" fill="white"/>
<path opacity="0.4" d="M211.675 122.417H178.168V169.567H211.675V122.417Z" fill="white"/>
<path d="M209.999 124.828H179.842V130.665H209.999V124.828Z" fill="#407BFF"/>
<path d="M209.999 132.128H179.842V137.965H209.999V132.128Z" fill="#407BFF"/>
<path d="M209.999 139.423H179.842V145.261H209.999V139.423Z" fill="#407BFF"/>
<path d="M209.999 146.724H179.842V152.561H209.999V146.724Z" fill="#407BFF"/>
<path d="M209.999 154.024H179.842V159.861H209.999V154.024Z" fill="#407BFF"/>
<path d="M209.999 161.324H179.842V167.161H209.999V161.324Z" fill="#407BFF"/>
<path d="M176.415 124.828H164.275V130.665H176.415V124.828Z" fill="#407BFF"/>
<path d="M176.415 132.128H164.275V137.965H176.415V132.128Z" fill="#407BFF"/>
<path d="M176.415 139.423H164.275V145.261H176.415V139.423Z" fill="#407BFF"/>
<path d="M176.415 146.724H164.275V152.561H176.415V146.724Z" fill="#407BFF"/>
<path d="M176.415 154.024H164.275V159.861H176.415V154.024Z" fill="#407BFF"/>
<path d="M176.415 161.324H164.275V167.161H176.415V161.324Z" fill="#407BFF"/>
<path opacity="0.3" d="M208.523 125.586H207.818V129.907H208.523V125.586Z" fill="white"/>
<path opacity="0.3" d="M207.169 125.586H206.465V129.907H207.169V125.586Z" fill="white"/>
<path opacity="0.3" d="M205.814 125.586H205.109V129.907H205.814V125.586Z" fill="white"/>
<path opacity="0.3" d="M204.46 125.586H203.756V129.907H204.46V125.586Z" fill="white"/>
<path opacity="0.3" d="M203.105 125.586H202.4V129.907H203.105V125.586Z" fill="white"/>
<path opacity="0.3" d="M208.523 132.886H207.818V137.202H208.523V132.886Z" fill="white"/>
<path opacity="0.3" d="M207.169 132.886H206.465V137.202H207.169V132.886Z" fill="white"/>
<path opacity="0.3" d="M205.814 132.886H205.109V137.202H205.814V132.886Z" fill="white"/>
<path opacity="0.3" d="M204.46 132.886H203.756V137.202H204.46V132.886Z" fill="white"/>
<path opacity="0.3" d="M203.105 132.886H202.4V137.202H203.105V132.886Z" fill="white"/>
<path opacity="0.3" d="M208.523 140.186H207.818V144.502H208.523V140.186Z" fill="white"/>
<path opacity="0.3" d="M207.169 140.186H206.465V144.502H207.169V140.186Z" fill="white"/>
<path opacity="0.3" d="M205.814 140.186H205.109V144.502H205.814V140.186Z" fill="white"/>
<path opacity="0.3" d="M204.46 140.186H203.756V144.502H204.46V140.186Z" fill="white"/>
<path opacity="0.3" d="M203.105 140.186H202.4V144.502H203.105V140.186Z" fill="white"/>
<path opacity="0.3" d="M208.523 147.487H207.818V151.807H208.523V147.487Z" fill="white"/>
<path opacity="0.3" d="M207.169 147.487H206.465V151.807H207.169V147.487Z" fill="white"/>
<path opacity="0.3" d="M205.814 147.487H205.109V151.807H205.814V147.487Z" fill="white"/>
<path opacity="0.3" d="M204.46 147.487H203.756V151.807H204.46V147.487Z" fill="white"/>
<path opacity="0.3" d="M203.105 147.487H202.4V151.807H203.105V147.487Z" fill="white"/>
<path opacity="0.3" d="M208.523 154.787H207.818V159.103H208.523V154.787Z" fill="white"/>
<path opacity="0.3" d="M207.169 154.787H206.465V159.103H207.169V154.787Z" fill="white"/>
<path opacity="0.3" d="M205.814 154.787H205.109V159.103H205.814V154.787Z" fill="white"/>
<path opacity="0.3" d="M204.46 154.787H203.756V159.103H204.46V154.787Z" fill="white"/>
<path opacity="0.3" d="M203.105 154.787H202.4V159.103H203.105V154.787Z" fill="white"/>
<path opacity="0.3" d="M208.523 162.082H207.818V166.403H208.523V162.082Z" fill="white"/>
<path opacity="0.3" d="M207.169 162.082H206.465V166.403H207.169V162.082Z" fill="white"/>
<path opacity="0.3" d="M205.814 162.082H205.109V166.403H205.814V162.082Z" fill="white"/>
<path opacity="0.3" d="M204.46 162.082H203.756V166.403H204.46V162.082Z" fill="white"/>
<path opacity="0.3" d="M203.105 162.082H202.4V166.403H203.105V162.082Z" fill="white"/>
<path opacity="0.2" d="M183.35 127.744C183.35 127.886 183.308 128.025 183.229 128.143C183.15 128.261 183.038 128.353 182.907 128.407C182.775 128.462 182.631 128.476 182.492 128.448C182.353 128.421 182.225 128.352 182.124 128.252C182.024 128.151 181.956 128.024 181.928 127.884C181.9 127.745 181.914 127.601 181.969 127.47C182.023 127.338 182.115 127.226 182.233 127.147C182.351 127.069 182.49 127.026 182.632 127.026C182.822 127.026 183.005 127.102 183.139 127.237C183.274 127.371 183.35 127.554 183.35 127.744Z" fill="white"/>
<path opacity="0.2" d="M187.865 127.744C187.865 127.886 187.823 128.025 187.744 128.143C187.665 128.261 187.553 128.353 187.422 128.407C187.291 128.462 187.147 128.476 187.007 128.448C186.868 128.421 186.74 128.352 186.64 128.252C186.54 128.151 186.471 128.024 186.443 127.884C186.416 127.745 186.43 127.601 186.484 127.47C186.539 127.338 186.631 127.226 186.749 127.147C186.867 127.069 187.006 127.026 187.148 127.026C187.338 127.026 187.52 127.102 187.655 127.237C187.79 127.371 187.865 127.554 187.865 127.744Z" fill="white"/>
<path opacity="0.4" d="M192.379 127.744C192.379 127.886 192.337 128.025 192.258 128.143C192.179 128.261 192.067 128.353 191.936 128.407C191.805 128.462 191.66 128.476 191.521 128.448C191.382 128.421 191.254 128.352 191.154 128.252C191.053 128.151 190.985 128.024 190.957 127.884C190.929 127.745 190.944 127.601 190.998 127.47C191.052 127.338 191.144 127.226 191.262 127.147C191.38 127.069 191.519 127.026 191.661 127.026C191.852 127.026 192.034 127.102 192.169 127.237C192.303 127.371 192.379 127.554 192.379 127.744Z" fill="white"/>
<path opacity="0.4" d="M183.35 135.044C183.35 135.186 183.308 135.325 183.229 135.443C183.15 135.561 183.038 135.653 182.907 135.708C182.775 135.762 182.631 135.776 182.492 135.748C182.353 135.721 182.225 135.652 182.124 135.552C182.024 135.452 181.956 135.324 181.928 135.184C181.9 135.045 181.914 134.901 181.969 134.77C182.023 134.638 182.115 134.526 182.233 134.448C182.351 134.369 182.49 134.327 182.632 134.327C182.822 134.327 183.005 134.402 183.139 134.537C183.274 134.671 183.35 134.854 183.35 135.044Z" fill="white"/>
<path opacity="0.2" d="M187.865 135.044C187.865 135.186 187.823 135.325 187.744 135.443C187.665 135.561 187.553 135.653 187.422 135.708C187.291 135.762 187.147 135.776 187.007 135.748C186.868 135.721 186.74 135.652 186.64 135.552C186.54 135.452 186.471 135.324 186.443 135.184C186.416 135.045 186.43 134.901 186.484 134.77C186.539 134.638 186.631 134.526 186.749 134.448C186.867 134.369 187.006 134.327 187.148 134.327C187.338 134.327 187.52 134.402 187.655 134.537C187.79 134.671 187.865 134.854 187.865 135.044Z" fill="white"/>
<path opacity="0.4" d="M192.379 135.044C192.379 135.186 192.337 135.325 192.258 135.443C192.179 135.561 192.067 135.653 191.936 135.708C191.805 135.762 191.66 135.776 191.521 135.748C191.382 135.721 191.254 135.652 191.154 135.552C191.053 135.452 190.985 135.324 190.957 135.184C190.929 135.045 190.944 134.901 190.998 134.77C191.052 134.638 191.144 134.526 191.262 134.448C191.38 134.369 191.519 134.327 191.661 134.327C191.852 134.327 192.034 134.402 192.169 134.537C192.303 134.671 192.379 134.854 192.379 135.044Z" fill="white"/>
<path opacity="0.2" d="M183.35 142.344C183.35 142.486 183.308 142.625 183.229 142.743C183.15 142.861 183.038 142.953 182.907 143.008C182.775 143.062 182.631 143.076 182.492 143.048C182.353 143.021 182.225 142.952 182.124 142.852C182.024 142.752 181.956 142.624 181.928 142.484C181.9 142.345 181.914 142.201 181.969 142.07C182.023 141.939 182.115 141.826 182.233 141.748C182.351 141.669 182.49 141.627 182.632 141.627C182.822 141.627 183.005 141.702 183.139 141.837C183.274 141.971 183.35 142.154 183.35 142.344Z" fill="white"/>
<path opacity="0.4" d="M187.865 142.344C187.865 142.486 187.823 142.625 187.744 142.743C187.665 142.861 187.553 142.953 187.422 143.008C187.291 143.062 187.147 143.076 187.007 143.048C186.868 143.021 186.74 142.952 186.64 142.852C186.54 142.752 186.471 142.624 186.443 142.484C186.416 142.345 186.43 142.201 186.484 142.07C186.539 141.939 186.631 141.826 186.749 141.748C186.867 141.669 187.006 141.627 187.148 141.627C187.338 141.627 187.52 141.702 187.655 141.837C187.79 141.971 187.865 142.154 187.865 142.344Z" fill="white"/>
<path opacity="0.2" d="M192.379 142.344C192.379 142.486 192.337 142.625 192.258 142.743C192.179 142.861 192.067 142.953 191.936 143.008C191.805 143.062 191.66 143.076 191.521 143.048C191.382 143.021 191.254 142.952 191.154 142.852C191.053 142.752 190.985 142.624 190.957 142.484C190.929 142.345 190.944 142.201 190.998 142.07C191.052 141.939 191.144 141.826 191.262 141.748C191.38 141.669 191.519 141.627 191.661 141.627C191.852 141.627 192.034 141.702 192.169 141.837C192.303 141.971 192.379 142.154 192.379 142.344Z" fill="white"/>
<path opacity="0.4" d="M183.35 149.644C183.35 149.786 183.308 149.925 183.229 150.043C183.15 150.161 183.038 150.253 182.907 150.308C182.775 150.362 182.631 150.376 182.492 150.348C182.353 150.321 182.225 150.252 182.124 150.152C182.024 150.052 181.956 149.924 181.928 149.784C181.9 149.645 181.914 149.501 181.969 149.37C182.023 149.239 182.115 149.126 182.233 149.048C182.351 148.969 182.49 148.927 182.632 148.927C182.822 148.927 183.005 149.002 183.139 149.137C183.274 149.272 183.35 149.454 183.35 149.644Z" fill="white"/>
<path opacity="0.2" d="M187.865 149.644C187.865 149.786 187.823 149.925 187.744 150.043C187.665 150.161 187.553 150.253 187.422 150.308C187.291 150.362 187.147 150.376 187.007 150.348C186.868 150.321 186.74 150.252 186.64 150.152C186.54 150.052 186.471 149.924 186.443 149.784C186.416 149.645 186.43 149.501 186.484 149.37C186.539 149.239 186.631 149.126 186.749 149.048C186.867 148.969 187.006 148.927 187.148 148.927C187.338 148.927 187.52 149.002 187.655 149.137C187.79 149.272 187.865 149.454 187.865 149.644Z" fill="white"/>
<path opacity="0.2" d="M192.379 149.644C192.379 149.786 192.337 149.925 192.258 150.043C192.179 150.161 192.067 150.253 191.936 150.308C191.805 150.362 191.66 150.376 191.521 150.348C191.382 150.321 191.254 150.252 191.154 150.152C191.053 150.052 190.985 149.924 190.957 149.784C190.929 149.645 190.944 149.501 190.998 149.37C191.052 149.239 191.144 149.126 191.262 149.048C191.38 148.969 191.519 148.927 191.661 148.927C191.852 148.927 192.034 149.002 192.169 149.137C192.303 149.272 192.379 149.454 192.379 149.644Z" fill="white"/>
<path opacity="0.2" d="M183.35 156.944C183.35 157.086 183.308 157.225 183.229 157.343C183.15 157.461 183.038 157.553 182.907 157.608C182.775 157.662 182.631 157.676 182.492 157.649C182.353 157.621 182.225 157.552 182.124 157.452C182.024 157.352 181.956 157.224 181.928 157.085C181.9 156.945 181.914 156.801 181.969 156.67C182.023 156.539 182.115 156.427 182.233 156.348C182.351 156.269 182.49 156.227 182.632 156.227C182.822 156.227 183.005 156.302 183.139 156.437C183.274 156.572 183.35 156.754 183.35 156.944Z" fill="white"/>
<path opacity="0.4" d="M187.865 156.944C187.865 157.086 187.823 157.225 187.744 157.343C187.665 157.461 187.553 157.553 187.422 157.608C187.291 157.662 187.147 157.676 187.007 157.649C186.868 157.621 186.74 157.552 186.64 157.452C186.54 157.352 186.471 157.224 186.443 157.085C186.416 156.945 186.43 156.801 186.484 156.67C186.539 156.539 186.631 156.427 186.749 156.348C186.867 156.269 187.006 156.227 187.148 156.227C187.338 156.227 187.52 156.302 187.655 156.437C187.79 156.572 187.865 156.754 187.865 156.944Z" fill="white"/>
<path opacity="0.4" d="M192.379 156.944C192.379 157.086 192.337 157.225 192.258 157.343C192.179 157.461 192.067 157.553 191.936 157.608C191.805 157.662 191.66 157.676 191.521 157.649C191.382 157.621 191.254 157.552 191.154 157.452C191.053 157.352 190.985 157.224 190.957 157.085C190.929 156.945 190.944 156.801 190.998 156.67C191.052 156.539 191.144 156.427 191.262 156.348C191.38 156.269 191.519 156.227 191.661 156.227C191.852 156.227 192.034 156.302 192.169 156.437C192.303 156.572 192.379 156.754 192.379 156.944Z" fill="white"/>
<path opacity="0.4" d="M183.35 164.226C183.35 164.368 183.308 164.507 183.229 164.625C183.15 164.743 183.038 164.835 182.907 164.89C182.775 164.944 182.631 164.958 182.492 164.931C182.353 164.903 182.225 164.834 182.124 164.734C182.024 164.634 181.956 164.506 181.928 164.367C181.9 164.227 181.914 164.083 181.969 163.952C182.023 163.821 182.115 163.709 182.233 163.63C182.351 163.551 182.49 163.509 182.632 163.509C182.822 163.509 183.005 163.584 183.139 163.719C183.274 163.854 183.35 164.036 183.35 164.226Z" fill="white"/>
<path opacity="0.2" d="M187.865 164.226C187.865 164.368 187.823 164.507 187.744 164.625C187.665 164.743 187.553 164.835 187.422 164.89C187.291 164.944 187.147 164.958 187.007 164.931C186.868 164.903 186.74 164.834 186.64 164.734C186.54 164.634 186.471 164.506 186.443 164.367C186.416 164.227 186.43 164.083 186.484 163.952C186.539 163.821 186.631 163.709 186.749 163.63C186.867 163.551 187.006 163.509 187.148 163.509C187.338 163.509 187.52 163.584 187.655 163.719C187.79 163.854 187.865 164.036 187.865 164.226Z" fill="white"/>
<path opacity="0.4" d="M192.379 164.226C192.379 164.368 192.337 164.507 192.258 164.625C192.179 164.743 192.067 164.835 191.936 164.89C191.805 164.944 191.66 164.958 191.521 164.931C191.382 164.903 191.254 164.834 191.154 164.734C191.053 164.634 190.985 164.506 190.957 164.367C190.929 164.227 190.944 164.083 190.998 163.952C191.052 163.821 191.144 163.709 191.262 163.63C191.38 163.551 191.519 163.509 191.661 163.509C191.852 163.509 192.034 163.584 192.169 163.719C192.303 163.854 192.379 164.036 192.379 164.226Z" fill="white"/>
<path opacity="0.3" d="M178.167 122.417H162.52V169.567H178.167V122.417Z" fill="black"/>
<path d="M207.738 63.6689H162.051C160.819 63.6689 159.82 64.6674 159.82 65.8991V103.605C159.82 104.837 160.819 105.835 162.051 105.835H207.738C208.97 105.835 209.968 104.837 209.968 103.605V65.8991C209.968 64.6674 208.97 63.6689 207.738 63.6689Z" fill="#FF6C37"/>
<path opacity="0.5" d="M207.738 63.6689H162.051C160.819 63.6689 159.82 64.6674 159.82 65.8991V103.605C159.82 104.837 160.819 105.835 162.051 105.835H207.738C208.97 105.835 209.968 104.837 209.968 103.605V65.8991C209.968 64.6674 208.97 63.6689 207.738 63.6689Z" fill="white"/>
<path d="M161.909 63.6554H207.913C208.458 63.6554 208.98 63.8718 209.365 64.257C209.75 64.6423 209.967 65.1647 209.967 65.7095V71.0096H159.814V65.7592C159.813 65.4832 159.866 65.2095 159.97 64.9541C160.075 64.6986 160.229 64.4664 160.423 64.2708C160.618 64.0752 160.85 63.9201 161.105 63.8145C161.36 63.7089 161.633 63.6548 161.909 63.6554Z" fill="#FF6C37"/>
<path opacity="0.5" d="M207.132 67.8811C207.133 68.1994 207.04 68.5107 206.863 68.7757C206.687 69.0407 206.436 69.2474 206.142 69.3696C205.848 69.4918 205.525 69.524 205.213 69.4622C204.901 69.4003 204.614 69.2471 204.389 69.0221C204.164 68.797 204.011 68.5103 203.949 68.1981C203.887 67.8859 203.919 67.5624 204.041 67.2685C204.163 66.9746 204.37 66.7237 204.635 66.5474C204.9 66.3712 205.211 66.2776 205.53 66.2784C205.74 66.2784 205.949 66.3199 206.143 66.4004C206.337 66.481 206.514 66.599 206.663 66.7479C206.812 66.8967 206.93 67.0734 207.01 67.2678C207.091 67.4623 207.132 67.6707 207.132 67.8811Z" fill="white"/>
<path opacity="0.5" d="M202.572 67.8811C202.573 68.1992 202.479 68.5104 202.303 68.7752C202.127 69.0401 201.876 69.2468 201.583 69.3692C201.289 69.4915 200.966 69.524 200.654 69.4625C200.342 69.401 200.055 69.2483 199.83 69.0237C199.605 68.7991 199.451 68.5127 199.389 68.2008C199.326 67.889 199.358 67.5656 199.479 67.2716C199.601 66.9777 199.807 66.7264 200.071 66.5496C200.336 66.3728 200.647 66.2784 200.965 66.2784C201.39 66.2784 201.798 66.4472 202.099 66.7476C202.401 67.048 202.571 67.4556 202.572 67.8811Z" fill="white"/>
<path opacity="0.5" d="M198.007 67.8811C198.008 68.1994 197.915 68.5107 197.738 68.7757C197.562 69.0407 197.311 69.2474 197.017 69.3696C196.723 69.4918 196.4 69.524 196.088 69.4622C195.776 69.4003 195.489 69.2471 195.264 69.0221C195.039 68.797 194.886 68.5103 194.824 68.1981C194.762 67.8859 194.794 67.5624 194.916 67.2685C195.038 66.9746 195.245 66.7237 195.51 66.5474C195.775 66.3712 196.086 66.2776 196.405 66.2784C196.615 66.2784 196.824 66.3199 197.018 66.4004C197.212 66.481 197.389 66.599 197.538 66.7479C197.687 66.8967 197.805 67.0734 197.885 67.2678C197.966 67.4623 198.007 67.6707 198.007 67.8811Z" fill="white"/>
<path opacity="0.6" d="M196.825 77.1676H171.105V78.6664H196.825V77.1676Z" fill="white"/>
<path opacity="0.6" d="M189.91 80.4091H171.504V81.9079H189.91V80.4091Z" fill="#263238"/>
<path d="M203.778 77.1676H198.717V78.6664H203.778V77.1676Z" fill="white"/>
<path d="M169.319 77.1676H164.258V78.6664H169.319V77.1676Z" fill="white"/>
<path d="M196.825 84.0071H171.105V85.5059H196.825V84.0071Z" fill="white"/>
<path opacity="0.6" d="M203.778 84.0071H198.717V85.5059H203.778V84.0071Z" fill="white"/>
<path d="M169.319 84.0071H164.258V85.5059H169.319V84.0071Z" fill="white"/>
<path d="M196.825 98.2551H171.105V99.754H196.825V98.2551Z" fill="white"/>
<path opacity="0.6" d="M203.778 98.2551H198.717V99.754H203.778V98.2551Z" fill="white"/>
<path d="M196.825 87.6097H171.105V89.1086H196.825V87.6097Z" fill="white"/>
<path opacity="0.6" d="M203.778 87.6097H198.717V89.1086H203.778V87.6097Z" fill="#263238"/>
<path opacity="0.6" d="M169.319 87.6097H164.258V89.1086H169.319V87.6097Z" fill="#263238"/>
<path d="M204.147 80.4678H191.922V81.9666H204.147V80.4678Z" fill="white"/>
<path opacity="0.6" d="M189.511 90.752H171.105V92.2508H189.511V90.752Z" fill="white"/>
<path d="M203.747 90.8105H191.521V92.3094H203.747V90.8105Z" fill="white"/>
<path opacity="0.6" d="M180.306 94.007H171.105V95.5058H180.306V94.007Z" fill="#263238"/>
<path d="M71.7087 20.5052H26.0212C24.7895 20.5052 23.791 21.5037 23.791 22.7354V60.4411C23.791 61.6728 24.7895 62.6713 26.0212 62.6713H71.7087C72.9404 62.6713 73.9389 61.6728 73.9389 60.4411V22.7354C73.9389 21.5037 72.9404 20.5052 71.7087 20.5052Z" fill="#FF6C37"/>
<path opacity="0.5" d="M71.7087 20.5052H26.0212C24.7895 20.5052 23.791 21.5037 23.791 22.7354V60.4411C23.791 61.6728 24.7895 62.6713 26.0212 62.6713H71.7087C72.9404 62.6713 73.9389 61.6728 73.9389 60.4411V22.7354C73.9389 21.5037 72.9404 20.5052 71.7087 20.5052Z" fill="white"/>
<path d="M25.8767 20.5052H71.8847C72.1552 20.5058 72.423 20.5598 72.6726 20.6641C72.9222 20.7685 73.1487 20.9211 73.3391 21.1132C73.5296 21.3053 73.6802 21.5332 73.7823 21.7837C73.8845 22.0342 73.9361 22.3024 73.9344 22.5729V27.8594H23.791V22.5954C23.791 22.0418 24.0106 21.5109 24.4016 21.119C24.7927 20.7271 25.3232 20.5064 25.8767 20.5052Z" fill="#FF6C37"/>
<path opacity="0.5" d="M71.103 24.7263C71.1021 25.0451 71.0064 25.3565 70.828 25.6207C70.6496 25.885 70.3967 26.0902 70.1014 26.2103C69.806 26.3304 69.4816 26.36 69.1695 26.2953C68.8573 26.2305 68.5714 26.0744 68.3482 25.8467C68.125 25.6191 67.9746 25.3301 67.916 25.0167C67.8575 24.7033 67.8934 24.3796 68.0194 24.0867C68.1453 23.7938 68.3555 23.545 68.6233 23.3719C68.891 23.1988 69.2042 23.1092 69.5229 23.1146C69.9456 23.1206 70.3489 23.2933 70.6448 23.5951C70.9408 23.897 71.1055 24.3036 71.103 24.7263Z" fill="white"/>
<path opacity="0.5" d="M66.5444 24.7263C66.5444 25.0442 66.4502 25.3549 66.2736 25.6192C66.097 25.8835 65.846 26.0895 65.5523 26.2112C65.2586 26.3328 64.9355 26.3647 64.6237 26.3026C64.312 26.2406 64.0256 26.0876 63.8008 25.8628C63.576 25.638 63.423 25.3516 63.361 25.0399C63.2989 24.7281 63.3308 24.405 63.4524 24.1113C63.5741 23.8176 63.7801 23.5666 64.0444 23.39C64.3087 23.2134 64.6194 23.1191 64.9373 23.1191C65.1485 23.1186 65.3578 23.1597 65.553 23.2403C65.7483 23.3208 65.9257 23.4392 66.075 23.5886C66.2244 23.7379 66.3428 23.9153 66.4233 24.1106C66.5039 24.3058 66.545 24.5151 66.5444 24.7263Z" fill="white"/>
<path opacity="0.5" d="M61.98 24.7263C61.98 25.0444 61.8856 25.3553 61.7088 25.6197C61.532 25.8841 61.2807 26.0901 60.9868 26.2116C60.6929 26.3331 60.3695 26.3647 60.0576 26.3023C59.7457 26.2399 59.4594 26.0864 59.2348 25.8612C59.0102 25.636 58.8575 25.3492 58.796 25.0371C58.7345 24.725 58.7669 24.4018 58.8893 24.1082C59.0116 23.8146 59.2183 23.5639 59.4832 23.3878C59.7481 23.2118 60.0593 23.1183 60.3773 23.1191C60.5882 23.1191 60.797 23.1607 60.9917 23.2416C61.1864 23.3224 61.3633 23.4409 61.5122 23.5902C61.6611 23.7395 61.779 23.9167 61.8593 24.1116C61.9396 24.3066 61.9806 24.5155 61.98 24.7263Z" fill="white"/>
<path d="M64.6653 44.0126C63.004 41.7824 59.5955 40.6944 57.3246 42.3061C56.9768 39.8126 55.6527 37.5594 53.6436 36.0423C51.6345 34.5251 49.105 33.8681 46.6116 34.2159C44.1181 34.5638 41.865 35.8879 40.3478 37.897C38.8306 39.9061 38.1736 42.4356 38.5215 44.929C36.3274 44.4279 33.9166 44.9561 32.4945 47.2224C30.6435 50.1569 33.0408 53.0688 33.0408 53.0688L45.9073 53.1455V48.4278H44.264C44.1988 48.4285 44.135 48.4099 44.0804 48.3743C44.0258 48.3387 43.9831 48.2877 43.9575 48.2278C43.9318 48.1679 43.9246 48.1017 43.9365 48.0377C43.9485 47.9737 43.9792 47.9146 44.0247 47.868L45.9163 45.8906L48.1104 43.6017C48.1415 43.5698 48.1787 43.5444 48.2198 43.5271C48.2609 43.5097 48.3051 43.5008 48.3497 43.5008C48.3943 43.5008 48.4384 43.5097 48.4795 43.5271C48.5206 43.5444 48.5578 43.5698 48.5889 43.6017L50.7785 45.8906L52.6746 47.868C52.7181 47.9154 52.7469 47.9742 52.7577 48.0376C52.7685 48.1009 52.7609 48.166 52.7356 48.2251C52.7104 48.2842 52.6686 48.3347 52.6154 48.3707C52.5621 48.4067 52.4996 48.4265 52.4354 48.4278H50.7875V53.1681L64.4847 53.2449C66.435 51.0056 66.3312 46.2428 64.6653 44.0126Z" fill="white"/>
<path d="M45.3816 170.822C45.3816 170.822 84.7125 161.608 86.5815 169.797C89.2542 181.495 60.8756 189.359 45.7608 188.881C30.646 188.402 45.3816 170.822 45.3816 170.822Z" fill="#407BFF"/>
<path opacity="0.2" d="M45.3816 170.822C45.3816 170.822 84.7125 161.608 86.5815 169.797C89.2542 181.495 60.8756 189.359 45.7608 188.881C30.646 188.402 45.3816 170.822 45.3816 170.822Z" fill="black"/>
<path opacity="0.7" d="M73.6787 172.326L55.2051 184.064L57.6701 187.567C57.6701 187.567 56.3744 189.495 53.9004 183.58L65.3268 176.028C65.3268 176.028 61.7512 175.671 61.8415 175.125C61.995 174.222 69.8504 172.457 73.4349 171.671C73.5215 171.647 73.614 171.656 73.694 171.697C73.774 171.738 73.8356 171.808 73.8664 171.892C73.8972 171.977 73.895 172.07 73.8602 172.152C73.8254 172.235 73.7606 172.302 73.6787 172.339V172.326Z" fill="black"/>
<path opacity="0.7" d="M54.5358 182.736L57.7411 187.928C53.7853 188.614 49.774 188.93 45.7595 188.872C44.4421 188.862 43.1363 188.625 41.8995 188.172L40.7754 186.113L43.1952 181.237L54.5358 182.736Z" fill="black"/>
<path d="M60.6495 180.678L52.4375 185.887L53.9093 189.874L63.5524 185.54L60.6495 180.678Z" fill="#B97964"/>
<path d="M47.9141 187.224L48.7222 190.09C48.9048 190.137 49.0731 190.228 49.2118 190.356C49.3505 190.483 49.4553 190.644 49.5167 190.822C49.5418 191.251 49.4929 191.682 49.3723 192.095L51.5302 200C51.7925 199.931 52.0456 199.831 52.2842 199.702C52.5153 199.538 52.7259 199.347 52.9117 199.133C53.4986 198.46 53.5618 197.481 53.5844 196.758C53.6205 195.549 54.3157 192.005 54.3157 192.005C54.5624 191.324 54.992 190.724 55.5572 190.271C55.7773 190.112 55.9586 189.905 56.0876 189.665C56.2166 189.426 56.2899 189.161 56.3021 188.89C56.2875 188.74 56.2405 188.595 56.1643 188.465C56.0882 188.335 55.9846 188.223 55.8609 188.137C55.7372 188.051 55.5964 187.993 55.448 187.967C55.2997 187.941 55.1475 187.948 55.0019 187.987L54.2164 188.081C53.9374 187.883 53.7437 187.587 53.6742 187.252C53.6047 186.917 53.6645 186.568 53.8417 186.276C53.8417 186.276 54.2932 184.556 53.5844 184.844C53.169 185.007 51.3587 185.82 49.905 186.416L48.966 186.799L47.9141 187.224Z" fill="#263238"/>
<path d="M54.0123 193.892C54.0224 193.87 54.0251 193.845 54.0203 193.822C54.0154 193.798 54.0031 193.777 53.9852 193.761C53.814 193.6 53.6015 193.489 53.3713 193.44C53.2449 193.44 53.1907 193.616 53.3126 193.643C53.5159 193.685 53.7045 193.78 53.8588 193.919C53.8676 193.931 53.8792 193.941 53.8925 193.948C53.9058 193.954 53.9206 193.958 53.9356 193.958C53.9506 193.958 53.9653 193.954 53.9787 193.948C53.992 193.941 54.0035 193.931 54.0123 193.919V193.892Z" fill="#407BFF"/>
<path d="M54.1745 193.192C54.1845 193.17 54.1873 193.146 54.1824 193.122C54.1775 193.098 54.1652 193.077 54.1474 193.061C53.9763 192.9 53.7636 192.791 53.5334 192.745C53.407 192.718 53.3483 192.917 53.4747 192.944C53.6781 192.985 53.8667 193.08 54.021 193.219C54.0314 193.23 54.0444 193.238 54.0588 193.243C54.0732 193.248 54.0885 193.25 54.1036 193.248C54.1186 193.245 54.1329 193.24 54.1453 193.231C54.1576 193.222 54.1676 193.21 54.1745 193.196V193.192Z" fill="#407BFF"/>
<path d="M54.3114 192.483C54.3206 192.46 54.3228 192.435 54.318 192.411C54.3132 192.387 54.3015 192.365 54.2844 192.348C54.1099 192.189 53.8964 192.08 53.6659 192.032C53.544 192.005 53.4853 192.203 53.6117 192.23C53.8141 192.273 54.0012 192.37 54.1534 192.51C54.1642 192.521 54.1775 192.529 54.1921 192.534C54.2067 192.539 54.2222 192.54 54.2373 192.537C54.2524 192.534 54.2666 192.528 54.2787 192.519C54.2908 192.509 54.3005 192.497 54.3069 192.483H54.3114Z" fill="#407BFF"/>
<path opacity="0.2" d="M48.966 186.799L47.9141 187.251L48.7222 190.118C48.9048 190.164 49.0731 190.255 49.2118 190.383C49.3505 190.511 49.4553 190.671 49.5167 190.849C49.5418 191.278 49.4929 191.709 49.3723 192.122L51.5302 200.027C51.7925 199.958 52.0456 199.858 52.2842 199.729C52.4015 199.643 52.5054 199.557 52.6047 199.472L49.124 186.754L48.966 186.799Z" fill="white"/>
<path d="M54.1973 192.434C54.4616 192.326 54.7351 192.243 55.0144 192.185C55.295 192.128 55.5857 192.143 55.8586 192.23C55.9226 192.248 55.9814 192.28 56.0301 192.325C56.0789 192.37 56.1161 192.425 56.1385 192.488C56.1443 192.557 56.1304 192.627 56.0985 192.69C56.0666 192.752 56.0179 192.804 55.9579 192.84C55.7298 192.988 55.4523 193.04 55.186 192.984C54.83 192.853 54.4965 192.667 54.1973 192.434" stroke="#407BFF" stroke-width="0.25" stroke-miterlimit="10"/>
<path d="M54.175 192.402C54.4017 192.229 54.6146 192.039 54.8116 191.833C55.0076 191.623 55.1447 191.364 55.2089 191.084C55.2284 191.021 55.2321 190.954 55.2195 190.889C55.2069 190.825 55.1784 190.764 55.1366 190.713C55.0808 190.671 55.014 190.647 54.9443 190.642C54.8745 190.637 54.8049 190.652 54.7439 190.686C54.6218 190.743 54.5125 190.824 54.4225 190.924C54.3325 191.024 54.2637 191.141 54.2202 191.269C54.1461 191.642 54.1309 192.024 54.175 192.402" stroke="#407BFF" stroke-width="0.25" stroke-miterlimit="10"/>
<path d="M61.6283 145.798C61.6283 145.798 63.064 158.583 63.4342 159.27C64.7344 161.59 73.3346 165.59 73.3346 165.59L77.7183 164.687L80.8785 167.31L78.8063 168.931L76.3774 168.028C75.0513 168.264 73.7066 168.382 72.3595 168.38C70.1022 168.38 59.1724 165.612 57.3485 162.565C55.5246 159.518 54.6895 145.41 54.6895 145.41L61.6283 145.798Z" fill="#B97964"/>
<path d="M54.4968 150.823C54.4968 150.823 51.1289 139.595 55.3275 136.475C59.526 133.356 62.8623 148.8 62.8623 148.8L54.4968 150.823Z" fill="black"/>
<path opacity="0.3" d="M54.4968 150.823C54.4968 150.823 51.1289 139.595 55.3275 136.475C59.526 133.356 62.8623 148.8 62.8623 148.8L54.4968 150.823Z" fill="white"/>
<path d="M57.1549 171.364L57.1233 156.466L56.708 135.97L48.0084 134.164L40.3337 133.825L31.6476 137.839L31.4445 142.841C31.4445 142.841 32.4377 165.802 32.3835 166.497C32.3158 167.346 29.8418 172.669 29.8418 172.669C40.8483 175.179 57.3355 172.122 57.1549 171.364Z" fill="black"/>
<path opacity="0.3" d="M57.1549 171.364L57.1233 156.466L56.708 135.97L48.0084 134.164L40.3337 133.825L31.6476 137.839L31.4445 142.841C31.4445 142.841 32.4377 165.802 32.3835 166.497C32.3158 167.346 29.8418 172.669 29.8418 172.669C40.8483 175.179 57.3355 172.122 57.1549 171.364Z" fill="white"/>
<path opacity="0.2" d="M47.4492 137.401L49.3002 138.841L49.6027 134.521L49.0158 134.394L48.5237 137.306L47.6479 136.796L47.4492 137.401Z" fill="black"/>
<path opacity="0.2" d="M38.5314 134.688C38.4998 134.688 42.888 140.055 42.888 140.055L44.3778 138.918L45.4026 138.051L45.669 137.726L39.8587 133.69C39.5919 133.975 39.3053 134.24 39.0009 134.485C38.8383 134.537 38.6811 134.605 38.5314 134.688Z" fill="black"/>
<path d="M38.8438 134.597L40.9656 132.701L46.7759 138.141L45.259 137.604L43.0423 139.302L38.8438 134.597Z" fill="black"/>
<path d="M46.7759 138.141C46.6495 137.893 47.2273 132.954 47.2273 132.954L49.286 134.363C49.1776 134.34 49.1054 138.426 49.0377 138.426C48.97 138.426 47.6833 137.026 47.6833 137.026L46.7759 138.141Z" fill="black"/>
<path opacity="0.2" d="M57.0022 150.218L56.5508 140.62L58.6997 149.807L57.0022 150.218Z" fill="black"/>
<path opacity="0.2" d="M38.3741 151.617C38.645 151.563 40.0129 151.112 40.0129 151.112L36.9746 142.633L41.1596 152.037L38.645 153.039L38.3741 151.617Z" fill="black"/>
<path opacity="0.3" d="M38.8438 134.597L40.9656 132.701L46.7759 138.141L45.259 137.604L43.0423 139.302L38.8438 134.597Z" fill="white"/>
<path opacity="0.3" d="M46.7759 138.141C46.6495 137.893 47.2273 132.954 47.2273 132.954L49.286 134.363C49.1776 134.34 49.1054 138.426 49.0377 138.426C48.97 138.426 47.6833 137.026 47.6833 137.026L46.7759 138.141Z" fill="white"/>
<path opacity="0.3" d="M50.0723 146.078L51.0474 150.868L53.8871 151.897L55.8058 150.222L55.4536 145.699L50.0723 146.078Z" fill="white"/>
<path d="M37.2051 144.584C37.2051 144.584 39.3359 158.777 40.5684 160.105C42.6496 162.362 52.9654 168.299 52.9654 168.299L58.1165 166.493C58.2927 166.434 58.4804 166.419 58.6636 166.449C58.8469 166.479 59.0201 166.553 59.1684 166.664L62.6898 169.373L62.3557 169.658C62.2833 169.718 62.1948 169.756 62.101 169.768C62.0072 169.779 61.9122 169.763 61.8275 169.721L61.2813 169.45L61.8907 170.046L61.7011 170.213C61.604 170.294 61.4889 170.35 61.3655 170.376C61.2421 170.403 61.1141 170.4 60.9923 170.366L59.4167 169.942L60.8704 170.913C60.7066 171.047 60.5126 171.14 60.305 171.183C60.0975 171.226 59.8825 171.219 59.6786 171.161L57.3762 170.506C55.8039 170.864 54.2049 171.092 52.5952 171.188C49.8865 171.355 37.0787 166.881 34.6904 163.608C32.3022 160.335 29.8418 146.705 29.8418 146.705L37.2051 144.584Z" fill="#B97964"/>
<path d="M30.3881 154.028C30.3881 154.028 27.1963 141.162 31.3948 138.042C35.5934 134.922 39.7513 151.202 39.7513 151.202L30.3881 154.028Z" fill="black"/>
<path opacity="0.3" d="M30.3881 154.028C30.3881 154.028 27.1963 141.162 31.3948 138.042C35.5934 134.922 39.7513 151.202 39.7513 151.202L30.3881 154.028Z" fill="white"/>
<path d="M57.8673 120.747C58.1349 120.718 58.3834 120.594 58.5675 120.398C58.7516 120.202 58.8591 119.946 58.8706 119.677C58.8821 119.408 58.7967 119.144 58.63 118.933C58.4633 118.721 58.2263 118.577 57.9621 118.526L55.4746 118.277C55.592 119.875 55.7109 121.472 55.8313 123.067C56.3097 123.212 56.8201 123.212 57.2985 123.067C57.5369 122.992 57.7542 122.861 57.933 122.686C58.1117 122.511 58.247 122.297 58.3278 122.06C58.4027 121.821 58.3984 121.564 58.3154 121.327C58.2325 121.09 58.0753 120.887 57.8673 120.747Z" fill="#263238"/>
<path d="M48.3552 129.961L43.0054 123.23C43.0054 123.23 43.0054 123.23 43.0054 123.252C43.0054 123.889 43.0054 124.607 42.9332 125.392C42.9332 125.392 42.3553 125.117 42.3553 125.126C42.125 128.62 40.7436 134.606 40.8068 135.103L46.4274 137.897L47.4522 136.873L47.6509 134.615C47.0775 133.171 47.6102 131.509 48.3552 129.961Z" fill="#B97964"/>
<path opacity="0.2" d="M47.5522 132.232L44.1708 129.559C44.085 130.913 44.7983 133.058 47.5116 134.168C47.3645 133.529 47.3785 132.864 47.5522 132.232Z" fill="black"/>
<path d="M44.1475 119.893C43.0414 124.408 42.6216 126.598 44.1475 129.559C46.4725 134.01 52.1563 134.047 54.6032 129.925C56.8018 126.218 58.2465 119.437 54.4227 116.354C53.5756 115.677 52.5712 115.225 51.5028 115.041C50.4344 114.856 49.3366 114.944 48.3115 115.297C47.2863 115.65 46.3671 116.257 45.6391 117.06C44.9111 117.864 44.398 118.838 44.1475 119.893Z" fill="#B97964"/>
<path d="M45.1007 113.745C46.4551 111.487 50.0667 111.122 51.3895 112.905C51.5836 113.171 49.4437 113.234 49.6875 113.221L48.4324 116.792C48.1841 116.652 47.5702 116.792 47.051 117.532C47.051 117.532 46.2429 122.444 43.6967 123.817C41.2001 120.367 41.4845 113.754 45.1007 113.745Z" fill="#263238"/>
<path d="M41.2402 123.054C41.2457 123.633 41.3658 124.205 41.5936 124.737C41.8214 125.269 42.1524 125.751 42.5675 126.155C43.6916 127.225 44.9918 126.394 45.3033 124.959C45.5787 123.663 45.3304 121.541 43.9083 121.018C42.4863 120.494 41.2402 121.618 41.2402 123.054Z" fill="#B97964"/>
<path d="M50.2794 123.69C50.1395 124.142 50.2794 124.593 50.5638 124.674C50.8483 124.756 51.2185 124.467 51.3629 124.015C51.5074 123.564 51.3629 123.112 51.0785 123.026C50.7941 122.941 50.4239 123.234 50.2794 123.69Z" fill="#263238"/>
<path d="M54.7404 125.139C54.6004 125.591 54.7404 126.042 55.0248 126.124C55.3092 126.205 55.6839 125.916 55.8239 125.464C55.9638 125.013 55.8239 124.561 55.5394 124.476C55.255 124.39 54.8848 124.683 54.7404 125.139Z" fill="#263238"/>
<path d="M53.1693 123.925C53.1693 123.925 53.7381 125.997 53.9954 127.225C54.0106 127.294 54.0105 127.366 53.9952 127.435C53.9799 127.504 53.9497 127.569 53.9067 127.625C53.8638 127.682 53.8091 127.728 53.7464 127.761C53.6838 127.794 53.6147 127.813 53.544 127.816C53.099 127.807 52.6633 127.687 52.2754 127.469L53.1693 123.925Z" fill="#A24E3F"/>
<path d="M49.8049 120.959C49.8352 120.984 49.8715 121.001 49.9102 121.008C49.9489 121.015 49.9888 121.012 50.0261 120.999C50.2857 120.893 50.5666 120.849 50.8463 120.87C51.1261 120.891 51.3971 120.977 51.6378 121.121C51.6861 121.156 51.746 121.171 51.8049 121.162C51.8638 121.154 51.9172 121.123 51.9538 121.076C51.9878 121.028 52.0017 120.969 51.9924 120.91C51.9831 120.852 51.9515 120.8 51.9042 120.765C51.6037 120.574 51.2622 120.459 50.908 120.427C50.5538 120.396 50.1973 120.45 49.8681 120.584C49.8137 120.605 49.7697 120.647 49.7453 120.7C49.7209 120.753 49.718 120.813 49.7372 120.869C49.7517 120.904 49.775 120.935 49.8049 120.959Z" fill="#263238"/>
<path d="M57.1099 123.072C57.1534 123.062 57.1938 123.042 57.2273 123.013C57.2684 122.971 57.2914 122.916 57.2914 122.857C57.2914 122.799 57.2684 122.743 57.2273 122.701C56.9991 122.433 56.7099 122.223 56.3839 122.09C56.0579 121.956 55.7046 121.903 55.3537 121.934C55.295 121.944 55.2424 121.976 55.207 122.024C55.1716 122.072 55.1563 122.132 55.1641 122.191C55.1685 122.22 55.1786 122.248 55.1937 122.273C55.2088 122.297 55.2286 122.319 55.2521 122.336C55.2756 122.353 55.3022 122.366 55.3305 122.373C55.3588 122.38 55.3882 122.381 55.4169 122.376C55.6952 122.351 55.9753 122.395 56.2327 122.504C56.4901 122.612 56.7169 122.783 56.8932 122.999C56.9202 123.029 56.9542 123.051 56.9922 123.064C57.0301 123.076 57.0706 123.079 57.1099 123.072Z" fill="#263238"/>
<path d="M49.9053 128.394C50.0614 128.52 50.2275 128.634 50.4019 128.733C50.4297 128.747 50.4614 128.751 50.4918 128.745C50.5223 128.738 50.5495 128.721 50.5689 128.697C50.5822 128.667 50.584 128.634 50.574 128.603C50.564 128.572 50.5429 128.546 50.5148 128.53C50.0669 128.289 49.6821 127.946 49.3919 127.529C49.1016 127.112 48.914 126.632 48.8444 126.128C48.841 126.097 48.826 126.069 48.8025 126.049C48.7791 126.029 48.7488 126.018 48.718 126.02C48.69 126.018 48.6625 126.028 48.6415 126.047C48.6205 126.065 48.6074 126.091 48.6051 126.119C48.603 126.128 48.603 126.137 48.6051 126.146C48.6577 126.589 48.8002 127.018 49.0237 127.404C49.2472 127.791 49.5472 128.128 49.9053 128.394Z" fill="#263238"/>
<path d="M60.1127 117.365C59.8057 116.462 58.7313 116.083 57.7787 116.011C58.0755 115.976 58.3491 115.833 58.5466 115.609C58.7442 115.385 58.8518 115.095 58.8487 114.796C58.8302 114.497 58.7453 114.206 58.6 113.943C58.4548 113.681 58.2528 113.454 58.009 113.28C57.5853 112.951 57.084 112.736 56.5534 112.657C56.0229 112.578 55.4809 112.637 54.9797 112.828C55.069 112.775 55.1371 112.692 55.1725 112.594C55.2079 112.496 55.2083 112.389 55.1738 112.291C55.1 112.095 54.9676 111.926 54.7946 111.808C54.2778 111.436 53.6501 111.251 53.0144 111.283C52.3787 111.315 51.7727 111.562 51.2958 111.984C51.1149 111.438 50.7371 110.98 50.2363 110.697C49.7354 110.415 49.1474 110.33 48.587 110.458C47.5081 110.738 45.4765 110.955 45.165 113.713C44.9326 113.491 44.6557 113.322 44.3527 113.216C44.0497 113.11 43.7276 113.07 43.4079 113.098C43.0881 113.127 42.7781 113.223 42.4986 113.381C42.219 113.539 41.9763 113.754 41.7866 114.013C41.5969 114.272 41.4646 114.568 41.3986 114.883C41.3325 115.197 41.3343 115.521 41.4036 115.835C41.473 116.148 41.6084 116.443 41.8008 116.7C41.9932 116.957 42.2382 117.17 42.5195 117.325C42.2646 117.241 41.9876 117.258 41.7444 117.371C41.5013 117.484 41.3103 117.685 41.2102 117.934C41.1223 118.188 41.1036 118.46 41.156 118.724C41.2083 118.987 41.3299 119.232 41.5082 119.433C41.8728 119.826 42.3431 120.105 42.8626 120.237C43.3447 120.393 43.8616 120.409 44.3524 120.282C44.5953 120.213 44.816 120.081 44.9926 119.901C45.1692 119.72 45.2956 119.497 45.3591 119.252C45.4133 119.51 45.56 119.738 45.7713 119.894C45.9826 120.051 46.2439 120.124 46.5058 120.101C46.7666 120.062 47.0084 119.941 47.1965 119.756C47.3846 119.571 47.5095 119.332 47.5532 119.072C47.5874 118.811 47.5519 118.546 47.4504 118.303C47.349 118.061 47.185 117.849 46.9753 117.69C47.1303 117.821 47.3126 117.915 47.5087 117.966C47.7049 118.017 47.91 118.023 48.1088 117.984C48.3077 117.945 48.4952 117.862 48.6577 117.741C48.8202 117.619 48.9534 117.463 49.0475 117.284C49.4474 118.157 50.1318 118.869 50.9888 119.302C51.4214 119.507 51.9093 119.564 52.3775 119.464C52.8456 119.365 53.2682 119.114 53.5802 118.751C53.8483 119.096 54.1646 119.4 54.5192 119.654C54.6993 119.779 54.9042 119.864 55.1199 119.903C55.3357 119.942 55.5573 119.934 55.7697 119.88C55.9794 119.817 56.16 119.681 56.2797 119.498C56.3995 119.315 56.4507 119.095 56.4243 118.878C56.7588 119.177 57.1632 119.387 57.6003 119.489C58.0375 119.591 58.4932 119.581 58.9254 119.46C59.3463 119.318 59.7001 119.026 59.9192 118.639C60.1382 118.253 60.2071 117.799 60.1127 117.365Z" fill="#263238"/>
<path d="M64.7524 170.38H48.4277C48.4277 171.003 49.1275 171.504 49.9853 171.499H76.5716C77.4203 171.499 78.102 170.989 78.0975 170.371L64.7524 170.38Z" fill="#263238"/>
<path d="M76.8163 171.45H61.9183C61.8092 171.458 61.7014 171.423 61.6173 171.353C61.5332 171.283 61.4793 171.184 61.4668 171.075C61.4677 171.035 61.4754 170.995 61.4894 170.958L68.1258 155.753C68.2363 155.523 68.4121 155.33 68.6313 155.199C68.8504 155.068 69.1033 155.005 69.3583 155.017H84.2564C84.3649 155.008 84.4727 155.041 84.557 155.111C84.6412 155.18 84.6953 155.279 84.7078 155.387C84.7075 155.429 84.6983 155.471 84.6807 155.509L78.0488 170.718C77.9367 170.947 77.7604 171.138 77.5415 171.268C77.3226 171.398 77.0706 171.461 76.8163 171.45Z" fill="#263238"/>
<path opacity="0.7" d="M84.2554 155.012H69.3573C69.1023 155 68.8495 155.064 68.6303 155.195C68.4111 155.326 68.2353 155.518 68.1248 155.748L61.7412 170.38H48.4277C48.4277 171.003 49.1275 171.504 49.9853 171.499H76.5716C76.8243 171.499 77.0744 171.448 77.3074 171.351C77.4709 171.303 77.6221 171.221 77.7507 171.109C77.8792 170.998 77.9822 170.86 78.0523 170.705L84.6843 155.495C84.7018 155.457 84.711 155.416 84.7113 155.373C84.6967 155.266 84.641 155.168 84.556 155.101C84.471 155.034 84.3633 155.002 84.2554 155.012Z" fill="white"/>
<path d="M75.2944 163.111C74.9694 163.838 74.3193 164.339 73.8317 164.24C73.3441 164.141 73.2132 163.473 73.5292 162.741C73.8452 162.01 74.4999 161.518 74.9874 161.622C75.475 161.725 75.6195 162.362 75.2944 163.111Z" fill="white"/>
<g opacity="0.3">
<path d="M68.1024 155.748L61.7188 170.38H62.4095L69.3348 155.03C69.0818 155.017 68.8303 155.078 68.6114 155.205C68.3924 155.333 68.2155 155.521 68.1024 155.748Z" fill="black"/>
</g>
<path d="M68.8711 187.251L78.4781 188.795L80.0176 184.836L69.923 181.684L68.8711 187.251Z" fill="#B97964"/>
<path d="M82.7487 190.795L84.0444 188.113C83.9376 187.957 83.8717 187.777 83.8527 187.59C83.8338 187.402 83.8624 187.212 83.936 187.039C84.0805 186.714 84.8886 186.181 84.8886 186.181L88.5002 178.831C88.2585 178.708 88.0022 178.615 87.7373 178.556C87.4553 178.524 87.1706 178.524 86.8885 178.556C86.0082 178.678 85.313 179.364 84.8164 179.91C83.9857 180.813 81.1144 182.985 81.1144 182.985C80.4776 183.331 79.7574 183.495 79.0332 183.459C78.7628 183.43 78.4895 183.465 78.2344 183.558C77.9793 183.652 77.749 183.804 77.5614 184C77.4708 184.121 77.4079 184.261 77.3771 184.409C77.3463 184.557 77.3484 184.711 77.3833 184.858C77.4182 185.005 77.485 185.143 77.5789 185.261C77.6729 185.38 77.7918 185.477 77.9271 185.544L78.5817 185.996C78.6606 186.328 78.6115 186.677 78.4441 186.974C78.2767 187.271 78.0034 187.494 77.6788 187.598C77.6788 187.598 76.189 188.583 76.9249 188.84C77.3402 188.993 79.2363 189.589 80.7171 190.104L81.6787 190.438L82.7487 190.795Z" fill="#263238"/>
<path d="M82.6178 181.757C82.5945 181.765 82.5747 181.782 82.5617 181.803C82.5486 181.824 82.5429 181.849 82.5455 181.874C82.5724 182.107 82.6595 182.33 82.7984 182.52C82.8751 182.623 83.0512 182.52 82.9744 182.407C82.8484 182.241 82.7703 182.045 82.7487 181.838C82.7488 181.822 82.7449 181.807 82.7375 181.794C82.73 181.78 82.7192 181.769 82.706 181.761C82.6929 181.752 82.6779 181.748 82.6624 181.747C82.647 181.746 82.6316 181.75 82.6178 181.757Z" fill="#407BFF"/>
<path d="M82.0158 182.172C81.9933 182.182 81.9746 182.198 81.9624 182.219C81.9502 182.241 81.9451 182.265 81.9481 182.289C81.9701 182.523 82.056 182.747 82.1964 182.935C82.2731 183.039 82.4492 182.935 82.3725 182.822C82.2477 182.656 82.1711 182.46 82.1512 182.253C82.1494 182.239 82.1443 182.225 82.1363 182.212C82.1283 182.2 82.1176 182.189 82.1051 182.181C82.0926 182.174 82.0784 182.169 82.0638 182.167C82.0491 182.165 82.0343 182.167 82.0203 182.172H82.0158Z" fill="#407BFF"/>
<path d="M81.4435 182.619C81.4211 182.628 81.4023 182.645 81.3901 182.666C81.3779 182.687 81.3729 182.712 81.3758 182.736C81.3994 182.97 81.4869 183.194 81.6286 183.382C81.7009 183.481 81.8769 183.382 81.8002 183.269C81.678 183.102 81.6017 182.906 81.579 182.7C81.578 182.685 81.5734 182.67 81.5657 182.658C81.5579 182.645 81.5472 182.634 81.5344 182.626C81.5216 182.618 81.5071 182.613 81.4921 182.612C81.4771 182.611 81.462 182.613 81.4481 182.619H81.4435Z" fill="#407BFF"/>
<path opacity="0.2" d="M83.9353 187.039C84.0798 186.713 84.8879 186.181 84.8879 186.181L88.4995 178.831C88.2578 178.708 88.0014 178.615 87.7366 178.556C87.5921 178.556 87.4567 178.556 87.3257 178.556L81.502 190.384L81.6645 190.438L82.7389 190.813L84.0346 188.131C83.9261 187.973 83.86 187.789 83.8426 187.598C83.8253 187.406 83.8572 187.214 83.9353 187.039Z" fill="white"/>
<path d="M81.4969 182.736C81.228 182.641 80.9682 182.521 80.7204 182.38C80.4709 182.238 80.2636 182.032 80.1199 181.784C80.0819 181.73 80.0582 181.667 80.0511 181.602C80.044 181.536 80.0537 181.47 80.0793 181.409C80.1205 181.353 80.1767 181.31 80.2414 181.284C80.306 181.259 80.3766 181.252 80.445 181.265C80.5783 181.283 80.7066 181.328 80.8222 181.397C80.9378 181.466 81.0383 181.558 81.1176 181.666C81.2953 182.003 81.4231 182.363 81.4969 182.736" stroke="#407BFF" stroke-width="0.25" stroke-miterlimit="10"/>
<path d="M81.48 182.759C81.1962 182.732 80.9105 182.732 80.6268 182.759C80.3406 182.784 80.0663 182.886 79.8322 183.052C79.7756 183.087 79.7285 183.135 79.6954 183.193C79.6623 183.25 79.6441 183.315 79.6426 183.382C79.6581 183.449 79.6921 183.511 79.7407 183.561C79.7893 183.61 79.8507 183.645 79.918 183.662C80.0468 183.7 80.182 183.712 80.3155 183.696C80.4489 183.681 80.5779 183.638 80.6945 183.571C80.9962 183.34 81.2611 183.065 81.48 182.754" stroke="#407BFF" stroke-width="0.25" stroke-miterlimit="10"/>
<path d="M32.7805 182.872C30.7083 179.571 26.0087 170.628 35.5254 168.876C45.0421 167.125 76.7705 182.217 76.7705 182.217L74.7615 188.289L45.2136 183.639C45.2136 183.639 49.2767 189.034 44.3513 188.79C37.2183 188.077 35.5073 186.37 32.7805 182.872Z" fill="#407BFF"/>
<path opacity="0.7" d="M45.9133 183.797L37.7871 181.246C37.7871 181.246 44.5861 185.404 47.0826 185.901L45.9133 183.797Z" fill="black"/>
<path d="M15.8005 106.819H32.3239C33.0423 106.819 33.7313 107.105 34.2392 107.613C34.7472 108.121 35.0326 108.81 35.0326 109.528V118.449C35.0326 119.167 34.7472 119.856 34.2392 120.364C33.7313 120.872 33.0423 121.157 32.3239 121.157H28.3691L28.342 123.866L25.3669 121.157H15.8005C15.0821 121.157 14.3932 120.872 13.8852 120.364C13.3772 119.856 13.0918 119.167 13.0918 118.449V109.523C13.093 108.806 13.3789 108.118 13.8868 107.611C14.3946 107.104 15.0829 106.819 15.8005 106.819Z" fill="#407BFF"/>
<path d="M22.0269 112.575L19.4129 113.79L22.0178 115.009V115.988L18.5371 114.3V113.284L22.0178 111.596L22.0269 112.575Z" fill="white"/>
<path d="M29.9534 113.284V114.3L26.4727 115.988V115.018L29.0776 113.799L26.4727 112.584V111.605L29.9534 113.284Z" fill="white"/>
<path d="M24.8615 110.909L23.1641 116.778H24.0128L25.7103 110.909H24.8615Z" fill="white"/>
<path d="M28.5098 106.21H20.0269C19.997 106.21 19.9683 106.198 19.9471 106.177C19.926 106.156 19.9141 106.127 19.9141 106.097C19.9141 106.067 19.926 106.038 19.9471 106.017C19.9683 105.996 19.997 105.984 20.0269 105.984H28.5098C28.5397 105.984 28.5684 105.996 28.5896 106.017C28.6108 106.038 28.6227 106.067 28.6227 106.097C28.6227 106.127 28.6108 106.156 28.5896 106.177C28.5684 106.198 28.5397 106.21 28.5098 106.21Z" fill="#407BFF"/>
<path d="M30.852 106.214H29.4976C29.4677 106.214 29.439 106.202 29.4178 106.181C29.3967 106.16 29.3848 106.131 29.3848 106.101C29.3848 106.071 29.3967 106.043 29.4178 106.022C29.439 106 29.4677 105.989 29.4976 105.989H30.852C30.8819 105.989 30.9106 106 30.9318 106.022C30.953 106.043 30.9649 106.071 30.9649 106.101C30.9649 106.131 30.953 106.16 30.9318 106.181C30.9106 106.202 30.8819 106.214 30.852 106.214Z" fill="#407BFF"/>
</g>
<defs>
<clipPath id="clip0_1182_18885">
<rect width="225.729" height="200" fill="white"/>
</clipPath>
</defs>
</svg>
