<svg width="325" height="250" viewBox="0 0 325 250" fill="none" xmlns="http://www.w3.org/2000/svg">
<path d="M264.441 34.9002C263.917 34.9604 263.429 35.2003 263.061 35.5791C262.693 35.958 262.467 36.4526 262.422 36.9789C262.377 37.5052 262.516 38.0308 262.814 38.4666C263.113 38.9023 263.553 39.2214 264.06 39.3695L264.06 74.6053L264.823 74.6053L264.823 39.4C265.33 39.2519 265.77 38.9328 266.068 38.4971C266.367 38.0613 266.505 37.5357 266.46 37.0094C266.416 36.4831 266.19 35.9885 265.822 35.6096C265.454 35.2308 264.966 34.9909 264.441 34.9307L264.441 34.9002ZM264.441 38.645C264.138 38.6526 263.84 38.5696 263.584 38.4067C263.328 38.2437 263.126 38.0083 263.005 37.7303C262.884 37.4523 262.848 37.1445 262.903 36.8461C262.957 36.5478 263.099 36.2724 263.311 36.0553C263.523 35.8381 263.794 35.689 264.091 35.627C264.388 35.565 264.697 35.5929 264.978 35.7071C265.259 35.8214 265.499 36.0168 265.669 36.2684C265.838 36.52 265.928 36.8163 265.929 37.1196C265.927 37.5163 265.77 37.8967 265.493 38.1801C265.215 38.4634 264.838 38.6275 264.441 38.6374L264.441 38.645Z" fill="#A6D7FF"/>
<path d="M256.842 46.8742L256.842 82.11L257.605 82.11L257.605 46.8742C258.171 46.7786 258.68 46.474 259.031 46.0207C259.383 45.5674 259.552 44.9986 259.504 44.4269C259.456 43.8552 259.195 43.3224 258.772 42.934C258.35 42.5457 257.797 42.3302 257.224 42.3302C256.65 42.3302 256.097 42.5457 255.675 42.934C255.253 43.3224 254.992 43.8552 254.944 44.4269C254.896 44.9986 255.064 45.5674 255.416 46.0207C255.768 46.474 256.277 46.7786 256.842 46.8742ZM257.224 43.1676C257.527 43.1677 257.823 43.2582 258.075 43.4276C258.327 43.5969 258.522 43.8375 258.636 44.1184C258.75 44.3994 258.778 44.708 258.716 45.0049C258.654 45.3018 258.505 45.5734 258.288 45.7851C258.071 45.9969 257.796 46.1391 257.497 46.1935C257.199 46.248 256.891 46.2123 256.613 46.091C256.335 45.9697 256.1 45.7682 255.937 45.5124C255.774 45.2566 255.691 44.958 255.698 44.6548C255.708 44.2569 255.873 43.8787 256.158 43.6008C256.443 43.323 256.826 43.1675 257.224 43.1676Z" fill="#A6D7FF"/>
<path d="M34.5207 226.816H24.6059V245.173C24.0402 245.269 23.5311 245.574 23.1795 246.027C22.8278 246.48 22.6593 247.049 22.7072 247.621C22.7552 248.192 23.0162 248.725 23.4385 249.114C23.8608 249.502 24.4136 249.717 24.9873 249.717C25.561 249.717 26.1137 249.502 26.536 249.114C26.9583 248.725 27.2193 248.192 27.2673 247.621C27.3153 247.049 27.1467 246.48 26.7951 246.027C26.4434 245.574 25.9343 245.269 25.3686 245.173V227.578H35.2834V196.141H34.5207V226.816ZM26.4745 247.408C26.4744 247.711 26.3839 248.008 26.2145 248.259C26.0452 248.511 25.8047 248.706 25.5237 248.821C25.2428 248.935 24.9341 248.963 24.6372 248.901C24.3404 248.839 24.0687 248.69 23.857 248.472C23.6452 248.255 23.5031 247.98 23.4486 247.682C23.3941 247.383 23.4298 247.075 23.5511 246.797C23.6724 246.519 23.8739 246.284 24.1297 246.121C24.3855 245.958 24.6841 245.875 24.9873 245.883C25.3812 245.892 25.7561 246.054 26.0334 246.334C26.3106 246.615 26.4687 246.991 26.4745 247.385V247.408Z" fill="#FF928E"/>
<path d="M44.1655 232.406V197.17H43.4028V232.406C42.8371 232.502 42.328 232.806 41.9763 233.26C41.6247 233.713 41.4561 234.282 41.5041 234.853C41.5521 235.425 41.8131 235.958 42.2354 236.346C42.6577 236.735 43.2104 236.95 43.7841 236.95C44.3578 236.95 44.9106 236.735 45.3329 236.346C45.7552 235.958 46.0162 235.425 46.0642 234.853C46.1121 234.282 45.9436 233.713 45.5919 233.26C45.2403 232.806 44.7312 232.502 44.1655 232.406ZM43.7841 236.105C43.4824 236.105 43.1875 236.016 42.9367 235.848C42.6859 235.68 42.4903 235.442 42.3749 235.163C42.2594 234.885 42.2292 234.578 42.2881 234.282C42.3469 233.986 42.4922 233.714 42.7055 233.501C42.9189 233.288 43.1907 233.143 43.4866 233.084C43.7824 233.025 44.0891 233.055 44.3679 233.17C44.6466 233.286 44.8848 233.481 45.0524 233.732C45.22 233.983 45.3095 234.278 45.3095 234.58C45.3147 234.781 45.2789 234.982 45.2041 235.17C45.1293 235.357 45.0171 235.527 44.8744 235.67C44.7317 235.813 44.5614 235.925 44.374 236C44.1866 236.074 43.9859 236.11 43.7841 236.105Z" fill="#FF928E"/>
<path opacity="0.5" d="M318.623 200.196C318.624 200.457 318.574 200.715 318.474 200.956C318.375 201.197 318.229 201.416 318.045 201.6C317.86 201.785 317.641 201.931 317.4 202.03C317.159 202.129 316.901 202.18 316.64 202.179H2.56129C2.30124 202.179 2.04375 202.128 1.80359 202.028C1.56344 201.928 1.34534 201.782 1.16181 201.598C0.978285 201.413 0.832941 201.195 0.73412 200.954C0.6353 200.714 0.584948 200.456 0.585952 200.196C0.585952 199.672 0.794067 199.17 1.16451 198.799C1.53496 198.429 2.0374 198.221 2.56129 198.221H316.625C316.885 198.22 317.143 198.27 317.383 198.369C317.624 198.468 317.842 198.613 318.027 198.797C318.211 198.98 318.357 199.198 318.457 199.438C318.557 199.678 318.608 199.936 318.608 200.196H318.623Z" fill="#A6D7FF"/>
<path d="M136.315 5.19408H47.1424C41.1569 5.19408 36.3047 10.0463 36.3047 16.0317V187.383C36.3047 193.368 41.1569 198.221 47.1424 198.221H136.315C142.3 198.221 147.152 193.368 147.152 187.383V16.0317C147.152 10.0463 142.3 5.19408 136.315 5.19408Z" fill="#263238"/>
<path d="M98.9487 186.17C98.9502 187.601 98.5272 189 97.7333 190.19C96.9395 191.38 95.8103 192.308 94.4889 192.856C93.1674 193.404 91.713 193.548 90.3098 193.269C88.9066 192.991 87.6176 192.302 86.606 191.29C85.5943 190.279 84.9056 188.99 84.6268 187.586C84.3481 186.183 84.4919 184.729 85.0401 183.407C85.5883 182.086 86.5162 180.957 87.7063 180.163C88.8965 179.369 90.2955 178.946 91.7261 178.948C92.6746 178.948 93.6138 179.134 94.4901 179.497C95.3663 179.86 96.1626 180.392 96.8332 181.063C97.5039 181.734 98.0359 182.53 98.3989 183.406C98.7619 184.282 98.9487 185.222 98.9487 186.17Z" fill="white"/>
<path d="M105.952 17.4656C105.952 17.8843 105.785 18.2859 105.489 18.582C105.193 18.878 104.792 19.0444 104.373 19.0444H79.0748C78.6561 19.0444 78.2546 18.878 77.9585 18.582C77.6624 18.2859 77.4961 17.8843 77.4961 17.4656C77.4961 17.0469 77.6624 16.6454 77.9585 16.3493C78.2546 16.0532 78.6561 15.8869 79.0748 15.8869H104.373C104.792 15.8869 105.193 16.0532 105.489 16.3493C105.785 16.6454 105.952 17.0469 105.952 17.4656Z" fill="white"/>
<path d="M93.1606 11.3871C93.1621 11.6714 93.0791 11.9496 92.9222 12.1866C92.7652 12.4235 92.5413 12.6085 92.279 12.718C92.0167 12.8274 91.7278 12.8565 91.4489 12.8014C91.1701 12.7463 90.9139 12.6096 90.7129 12.4086C90.5119 12.2076 90.3752 11.9514 90.3202 11.6726C90.2651 11.3938 90.2941 11.1048 90.4036 10.8425C90.513 10.5802 90.698 10.3564 90.935 10.1994C91.1719 10.0424 91.4502 9.95942 91.7344 9.96093C92.1121 9.96293 92.4736 10.1138 92.7407 10.3809C93.0077 10.6479 93.1586 11.0095 93.1606 11.3871Z" fill="white"/>
<path d="M142.291 22.9492H41.1602V175.104H142.291V22.9492Z" fill="#FFE2D7"/>
<path opacity="0.5" d="M41.1602 175.104L142.291 22.9492V175.104H41.1602Z" fill="#EEC1BB"/>
<path d="M133.598 30.8506H49.8555V68.0388H133.598V30.8506Z" fill="white"/>
<g opacity="0.4">
<path d="M84.863 39.8349L97.3862 56.3622L104.25 47.3015L114.798 61.2281H101.07H93.7024H68.6484L84.863 39.8349Z" fill="#FF6C37"/>
<path d="M95.5938 43.5644C95.5953 44.0724 95.7473 44.5686 96.0306 44.9903C96.314 45.4119 96.7159 45.7402 97.1857 45.9336C97.6555 46.1269 98.172 46.1767 98.6701 46.0767C99.1681 45.9767 99.6254 45.7313 99.9841 45.3715C100.343 45.0118 100.587 44.5538 100.685 44.0554C100.784 43.5571 100.733 43.0407 100.538 42.5715C100.343 42.1023 100.014 41.7013 99.5911 41.4192C99.1686 41.1371 98.672 40.9866 98.164 40.9866C97.8258 40.9866 97.491 41.0533 97.1786 41.1829C96.8663 41.3126 96.5826 41.5026 96.3439 41.7421C96.1051 41.9815 95.9159 42.2658 95.7872 42.5785C95.6585 42.8912 95.5928 43.2263 95.5938 43.5644Z" fill="#FF6C37"/>
</g>
<path d="M87.6843 80.8062H49.8555V82.4917H87.6843V80.8062Z" fill="#FF6C37"/>
<path d="M87.6843 84.9399H49.8555V86.6254H87.6843V84.9399Z" fill="#FF6C37"/>
<path d="M87.6843 89.0736H49.8555V90.7591H87.6843V89.0736Z" fill="#FF6C37"/>
<path d="M87.6843 93.2073H49.8555V94.8928H87.6843V93.2073Z" fill="#FF6C37"/>
<path d="M87.6843 73.4081H49.8555V77.13H87.6843V73.4081Z" fill="white"/>
<path d="M133.598 73.4081H95.7695V77.13H133.598V73.4081Z" fill="white"/>
<path d="M133.598 80.8062H95.7695V82.4917H133.598V80.8062Z" fill="#FF6C37"/>
<path d="M133.598 84.9399H95.7695V86.6254H133.598V84.9399Z" fill="#FF6C37"/>
<path d="M133.598 89.0736H95.7695V90.7591H133.598V89.0736Z" fill="#FF6C37"/>
<path d="M133.598 93.2073H95.7695V94.8928H133.598V93.2073Z" fill="#FF6C37"/>
<path d="M87.6843 107.256H49.8555V108.941H87.6843V107.256Z" fill="#FF6C37"/>
<path d="M87.6843 111.382H49.8555V113.067H87.6843V111.382Z" fill="#FF6C37"/>
<path d="M87.6843 115.516H49.8555V117.201H87.6843V115.516Z" fill="#FF6C37"/>
<path d="M87.6843 119.649H49.8555V121.335H87.6843V119.649Z" fill="#FF6C37"/>
<path d="M87.6843 99.8502H49.8555V103.572H87.6843V99.8502Z" fill="white"/>
<path d="M133.598 99.8502H95.7695V103.572H133.598V99.8502Z" fill="white"/>
<path d="M133.598 107.256H95.7695V108.941H133.598V107.256Z" fill="#FF6C37"/>
<path d="M133.598 111.382H95.7695V113.067H133.598V111.382Z" fill="#FF6C37"/>
<path d="M133.598 115.516H95.7695V117.201H133.598V115.516Z" fill="#FF6C37"/>
<path d="M133.598 119.649H95.7695V121.335H133.598V119.649Z" fill="#FF6C37"/>
<path d="M88.4165 128.916H49.8555V167.477H88.4165V128.916Z" fill="white"/>
<g opacity="0.4">
<path d="M64.6747 141.95L72.1489 151.811L76.2369 146.404L82.529 154.71H74.3378H69.9448H55.0039L64.6747 141.95Z" fill="#407BFF"/>
<path d="M71.043 144.177C71.043 144.479 71.1324 144.774 71.3 145.025C71.4676 145.275 71.7059 145.471 71.9846 145.586C72.2633 145.702 72.57 145.732 72.8659 145.673C73.1618 145.614 73.4336 145.469 73.6469 145.256C73.8602 145.042 74.0055 144.771 74.0644 144.475C74.1232 144.179 74.093 143.872 73.9776 143.593C73.8621 143.315 73.6666 143.076 73.4158 142.909C73.1649 142.741 72.87 142.652 72.5683 142.652C72.1638 142.652 71.7758 142.812 71.4897 143.098C71.2037 143.385 71.043 143.773 71.043 144.177Z" fill="#407BFF"/>
</g>
<path d="M133.598 128.916H95.7695V132.638H133.598V128.916Z" fill="white"/>
<path d="M133.598 136.314H95.7695V137.999H133.598V136.314Z" fill="#FF6C37"/>
<path d="M133.598 140.448H95.7695V142.133H133.598V140.448Z" fill="#FF6C37"/>
<path d="M133.598 144.581H95.7695V146.267H133.598V144.581Z" fill="#FF6C37"/>
<path d="M133.598 148.707H95.7695V150.393H133.598V148.707Z" fill="#FF6C37"/>
<path d="M133.598 152.841H95.7695V154.527H133.598V152.841Z" fill="#FF6C37"/>
<path d="M133.598 156.975H95.7695V158.66H133.598V156.975Z" fill="#FF6C37"/>
<path d="M133.598 161.109H95.7695V162.794H133.598V161.109Z" fill="#FF6C37"/>
<path d="M133.598 165.235H95.7695V166.92H133.598V165.235Z" fill="#FF6C37"/>
<path d="M270.592 79.9366H123.974C120.647 79.9366 117.949 82.6341 117.949 85.9617V186.262C117.949 189.589 120.647 192.287 123.974 192.287H270.592C273.919 192.287 276.617 189.589 276.617 186.262V85.9617C276.617 82.6341 273.919 79.9366 270.592 79.9366Z" fill="#455A64"/>
<path d="M270.813 87.2584H123.746V184.958H270.813V87.2584Z" fill="white"/>
<path d="M105.898 184.988V191.28C105.904 193.119 106.638 194.881 107.938 196.181C109.238 197.481 111 198.214 112.839 198.22H281.711C283.55 198.214 285.312 197.481 286.612 196.181C287.912 194.881 288.646 193.119 288.652 191.28V184.988H105.898Z" fill="#455A64"/>
<path d="M166.379 184.988V187.116C166.381 187.738 166.629 188.335 167.069 188.775C167.509 189.215 168.106 189.463 168.728 189.465H225.868C226.49 189.463 227.087 189.215 227.527 188.775C227.967 188.335 228.215 187.738 228.217 187.116V184.988H166.379Z" fill="#263238"/>
<path d="M160.445 93.8251H129.938V96.1132H160.445V93.8251Z" fill="#407BFF"/>
<path d="M239.26 93.8251H171.633V96.1132H239.26V93.8251Z" fill="#FF6C37"/>
<path d="M151.01 101.452H129.938V103.74H151.01V101.452Z" fill="#407BFF"/>
<path d="M205.441 101.452H158.734V103.74H205.441V101.452Z" fill="#FF6C37"/>
<path d="M152.993 109.079H129.938V111.367H152.993V109.079Z" fill="#407BFF"/>
<path d="M212.568 109.079H161.453V111.367H212.568V109.079Z" fill="#FF6C37"/>
<path d="M143.757 116.705H129.938V118.994H143.757V116.705Z" fill="#407BFF"/>
<path d="M233.401 116.705H148.82V118.994H233.401V116.705Z" fill="#FF6C37"/>
<path d="M160.445 124.332H129.938V126.62H160.445V124.332Z" fill="#407BFF"/>
<path d="M239.26 124.332H171.633V126.62H239.26V124.332Z" fill="#FF6C37"/>
<path d="M151.01 131.959H129.938V134.247H151.01V131.959Z" fill="#407BFF"/>
<path d="M205.441 131.959H158.734V134.247H205.441V131.959Z" fill="#FF6C37"/>
<path d="M156.189 139.586H129.938V141.874H156.189V139.586Z" fill="#407BFF"/>
<path d="M223.997 139.586H165.812V141.874H223.997V139.586Z" fill="#FF6C37"/>
<path d="M143.757 147.213H129.938V149.501H143.757V147.213Z" fill="#407BFF"/>
<path d="M233.401 147.213H148.82V149.501H233.401V147.213Z" fill="#FF6C37"/>
<path d="M163.068 154.839H129.938V157.127H163.068V154.839Z" fill="#407BFF"/>
<path d="M248.665 154.839H175.219V157.127H248.665V154.839Z" fill="#FF6C37"/>
<path d="M158.248 162.466H129.938V164.754H158.248V162.466Z" fill="#407BFF"/>
<path d="M231.382 162.466H168.629V164.754H231.382V162.466Z" fill="#FF6C37"/>
<path d="M154.976 170.093H129.938V172.381H154.976V170.093Z" fill="#407BFF"/>
<path d="M219.668 170.093H164.16V172.381H219.668V170.093Z" fill="#FF6C37"/>
<path d="M144.947 177.72H129.938V180.008H144.947V177.72Z" fill="#407BFF"/>
<path d="M242.31 177.72H150.445V180.008H242.31V177.72Z" fill="#FF6C37"/>
<path d="M305.819 149.516V141.309H301.372C300.751 137.506 299.258 133.899 297.01 130.769L300.145 127.642L294.356 121.853L291.221 124.988C288.094 122.739 284.489 121.244 280.689 120.618V116.187H272.52V120.618C268.717 121.244 265.11 122.739 261.98 124.988L258.845 121.853L253.064 127.642L256.191 130.769C253.935 133.898 252.432 137.505 251.798 141.309H247.367V149.493H251.798C252.421 153.293 253.914 156.898 256.161 160.026L253.034 163.16L258.815 168.949L261.95 165.814C265.08 168.063 268.687 169.559 272.49 170.184V174.616H280.704V170.184C284.505 169.559 288.109 168.063 291.236 165.814L294.371 168.949L300.16 163.16L297.025 160.026C299.266 156.905 300.754 153.308 301.372 149.516H305.819ZM276.608 162.26C273.278 162.26 270.022 161.273 267.253 159.422C264.483 157.572 262.325 154.942 261.05 151.865C259.776 148.788 259.442 145.402 260.092 142.135C260.742 138.868 262.346 135.868 264.701 133.513C267.056 131.157 270.056 129.554 273.323 128.904C276.59 128.254 279.976 128.588 283.053 129.862C286.13 131.137 288.76 133.295 290.61 136.064C292.461 138.834 293.448 142.09 293.448 145.42C293.449 147.632 293.014 149.822 292.168 151.866C291.323 153.909 290.082 155.766 288.518 157.33C286.954 158.894 285.097 160.134 283.054 160.98C281.01 161.826 278.82 162.261 276.608 162.26Z" fill="#A6D7FF"/>
<path d="M185.537 85.4051V74.4683H179.618C178.781 69.3894 176.784 64.5717 173.784 60.3892L177.971 56.2021L170.237 48.4685L166.05 52.6556C161.867 49.6568 157.049 47.6605 151.971 46.8212V40.9028H141.034V46.8212C135.955 47.6586 131.138 49.6551 126.955 52.6556L122.768 48.4685L115.035 56.2021L119.222 60.3892C116.218 64.57 114.221 69.3884 113.387 74.4683H107.469V85.4051H113.387C114.221 90.485 116.218 95.3034 119.222 99.4841L115.035 103.671L122.768 111.405L126.955 107.218C131.134 110.232 135.952 112.241 141.034 113.09V119.009H151.971V113.09C157.049 112.251 161.867 110.255 166.05 107.256L170.237 111.443L177.971 103.709L173.776 99.5223C176.782 95.3419 178.781 90.5236 179.618 85.4432L185.537 85.4051ZM146.503 102.413C142.053 102.413 137.703 101.093 134.003 98.6211C130.303 96.1488 127.419 92.635 125.716 88.5238C124.013 84.4126 123.568 79.8888 124.436 75.5245C125.304 71.1601 127.447 67.1511 130.593 64.0046C133.74 60.858 137.749 58.7152 142.113 57.8471C146.478 56.9789 151.002 57.4245 155.113 59.1274C159.224 60.8303 162.738 63.7141 165.21 67.414C167.682 71.1139 169.002 75.4639 169.002 79.9138C169.002 82.8684 168.42 85.7941 167.289 88.5238C166.158 91.2535 164.501 93.7338 162.412 95.823C160.323 97.9122 157.842 99.5695 155.113 100.7C152.383 101.831 149.457 102.413 146.503 102.413Z" fill="#A6D7FF"/>
<path d="M245.016 56.4078L277.758 56.4078L277.758 89.1496L245.016 89.1496L245.016 56.4078ZM276.995 57.1704L245.779 57.1704L245.779 88.3869L276.995 88.3869L276.995 57.1704Z" fill="#407BFF"/>
<path d="M247.936 86.2286L274.828 86.2286L274.828 59.3365L247.936 59.3365L247.936 86.2286Z" fill="#407BFF"/>
<path d="M258.5 77.1749L252.39 74.8515V73.1827L258.5 70.8593V72.4639L252.993 74.4664V73.5678L258.5 75.5703V77.1749ZM258.855 79.7936L263.091 67.7015H264.875L260.639 79.7936H258.855ZM265.101 77.1749V75.5703L270.608 73.5678V74.4664L265.101 72.4639V70.8593L271.211 73.1827V74.8515L265.101 77.1749Z" fill="white"/>
<path d="M54.8199 215.07H22.0781V182.336H54.8199V215.07ZM22.8408 214.308H54.0573V183.099H22.8408V214.308Z" fill="#FF6C37"/>
<path d="M51.8999 185.257H25.0078V212.149H51.8999V185.257Z" fill="#FF6C37"/>
<path d="M34.5654 203.163L28.8534 200.991V199.431L34.5654 197.259V198.759L29.4174 200.631V199.791L34.5654 201.663V203.163ZM34.897 205.611L38.857 194.307H40.525L36.565 205.611H34.897ZM40.7362 203.163V201.663L45.8842 199.791V200.631L40.7362 198.759V197.259L46.4482 199.431V200.991L40.7362 203.163Z" fill="white"/>
<path d="M200.921 25.7717L194.393 28.1589L200.921 30.5308V32.979L191.594 29.4325V26.8852L200.921 23.3387V25.7717Z" fill="#FF6C37"/>
<path d="M209.901 18.5185H212.624L206.156 36.9754H203.434L209.901 18.5185Z" fill="#FF6C37"/>
<path d="M224.261 26.8852V29.4325L214.934 32.979V30.5308L221.462 28.1589L214.934 25.7717V23.3387L224.261 26.8852Z" fill="#FF6C37"/>
</svg>
