<svg width="396" height="200" viewBox="0 0 396 200" fill="none" xmlns="http://www.w3.org/2000/svg">
<g clip-path="url(#clip0_1447_23411)">
<path d="M102.823 151.529C102.823 151.529 117.635 154.633 116.887 157.356C116.139 160.078 100.631 152.699 100.631 152.699C100.631 152.699 89.1978 162.925 87.6069 168.137C87.6069 168.137 104.305 165.775 102.911 168.227C101.517 170.68 84.2526 173.945 84.2526 173.945C84.2526 173.945 76.4033 186.035 83.2918 191.351C90.1804 196.668 95.467 194.881 96.7553 193.141C98.0436 191.401 103.04 178.887 104.516 179.881C105.992 180.874 105.103 190.352 101.705 194.437C101.705 194.437 116.62 194.555 118.779 187.497C120.938 180.44 117.613 176.598 119.032 172.26C120.451 167.921 122.854 165.32 123.114 167.89C123.375 170.461 119.668 177.259 121.148 181.849C122.627 186.439 123.266 189.92 127.172 184.155C131.077 178.391 134.957 166.737 131.052 162.464C130.883 162.278 130.72 162.1 130.563 161.93C130.749 162.086 130.913 162.265 131.052 162.464C132.213 161.582 136.174 161.179 139.154 160.996C139.648 160.996 140.346 160.968 141.309 160.892C141.736 160.876 142.085 160.865 142.325 160.861C148.807 160.941 157.922 166.098 157.922 166.098L158.841 164.899C150.4 157.905 140.281 159.847 140.281 159.847C132.57 160.631 127.141 158.191 127.141 158.191C127.141 158.191 125.374 143.254 113.815 145.095C113.82 145.1 106.287 147.282 102.823 151.529Z" fill="#D2E3FC"/>
<path d="M298.119 25.6713C294.173 11.1011 269.587 15.6552 269.587 15.6552C269.587 15.6552 252.892 41.1526 248.037 41.7595C243.181 42.3664 258.053 17.1716 258.053 17.1716C248.643 16.2621 224.664 27.7962 224.664 27.7962C224.664 27.7962 226.18 57.5435 221.324 56.9351C216.467 56.3266 221.324 30.528 221.324 30.528C212.219 33.2599 203.719 43.8844 203.719 43.8844C193.096 61.1849 215.86 73.9344 215.86 73.9344C215.86 73.9344 216.171 84.2548 209.79 96.0916C209.79 96.0916 208.351 98.2786 206.889 101.99H209.372C209.579 101.323 209.804 100.681 210.046 100.064C210.044 100.06 210.044 100.055 210.046 100.051C210.046 100.043 210.046 100.034 210.057 100.025C210.226 99.6414 210.471 99.0935 210.775 98.4307C211.533 96.9469 212.046 95.8495 212.369 95.0579C214.642 90.4014 217.915 84.3246 220.099 83.0503C219.873 82.6959 219.695 82.3134 219.568 81.9126L220.099 83.0503C224.349 92.1569 245.597 93.6749 257.435 91.2458C269.273 88.8166 264.109 85.4794 257.745 80.0608C251.381 74.6422 238.016 76.0702 234.07 73.9453C230.125 71.8204 235.891 69.6954 243.784 70.3023C251.676 70.9092 255.62 78.802 268.37 80.0158C281.119 81.2296 290.834 57.2362 290.834 57.2362C282.032 59.968 266.248 55.1113 265.641 52.0768C265.034 49.0423 288.407 49.345 292.048 48.4338C295.69 47.5227 302.071 40.2415 298.119 25.6713Z" fill="#DFEBFD"/>
<path d="M62.4003 26.7423C67.8329 18.0502 82.9293 25.8452 82.9293 25.8452C82.9293 25.8452 88.7686 45.7129 91.8077 47.0664C94.8468 48.4199 90.1329 29.1032 90.1329 29.1032C96.4332 30.3635 109.76 42.5869 109.76 42.5869C109.76 42.5869 102.913 61.6366 106.19 62.2032C109.467 62.7697 111.39 45.0284 111.39 45.0284C116.774 48.5984 120.211 57.1804 120.211 57.1804C123.714 70.529 106.397 74.3349 106.397 74.3349C106.397 74.3349 104.172 80.9844 105.985 89.9358C105.985 89.9358 106.49 91.6432 106.71 94.3455L105.104 93.8565C105.104 93.3909 105.083 92.9252 105.045 92.4705C105.045 92.4627 105.045 92.4565 105.045 92.4503C105.009 92.1678 104.958 91.7642 104.889 91.2722C104.688 90.1577 104.57 89.3428 104.515 88.7639C103.955 85.2839 103.021 80.6926 101.852 79.4322C102.069 79.246 102.26 79.0321 102.421 78.7959L101.852 79.4322C97.2946 84.5172 83.1761 81.3212 75.9554 77.4144C68.7347 73.5076 72.7471 72.3481 77.9608 70.0789C83.1745 67.8096 91.578 71.3687 94.569 70.7634C97.56 70.158 94.2058 67.6202 88.961 66.4608C83.7162 65.3013 79.5813 69.6536 71.049 67.9462C62.5167 66.2388 60.9226 48.7164 60.9226 48.7164C66.11 52.2274 77.3322 52.1762 78.3256 50.3213C79.3189 48.4665 64.0565 44.0614 61.8726 42.753C59.6887 41.4445 56.9646 35.4422 62.4003 26.7423Z" fill="#D2E3FC"/>
<path d="M190.044 25.7023C186.24 19.3664 175.267 24.7928 175.267 24.7928C175.267 24.7928 170.808 39.0323 168.593 39.9668C166.378 40.9012 170.029 27.0481 170.029 27.0481C165.475 27.8754 155.721 36.5163 155.721 36.5163C155.721 36.5163 160.407 50.3306 158.038 50.6876C155.67 51.0446 154.513 38.2485 154.513 38.2485C150.588 40.7506 148.004 46.8894 148.004 46.8894C145.309 56.4585 157.734 59.4232 157.734 59.4232C157.734 59.4232 159.255 64.2442 157.833 70.6702C157.542 71.7059 157.349 72.7665 157.255 73.8382L158.425 73.506C158.425 73.1661 158.451 72.8324 158.485 72.508C158.485 72.508 158.485 72.4986 158.485 72.494C158.515 72.2907 158.557 72.002 158.611 71.6481C158.766 70.8471 158.866 70.262 158.912 69.846C159.361 67.3486 160.092 64.0502 160.95 63.1592C160.797 63.0219 160.662 62.8654 160.548 62.6936L160.95 63.1592C164.168 66.8845 174.378 64.758 179.631 62.0339C184.883 59.3099 182.005 58.4267 178.28 56.7255C174.555 55.0243 168.453 57.4799 166.311 57.0049C164.169 56.5299 166.602 54.7605 170.4 53.9937C174.198 53.2269 177.111 56.4151 183.283 55.2851C189.454 54.1551 190.823 41.5639 190.823 41.5639C187.041 44.0257 178.958 43.8456 178.268 42.4952C177.577 41.1449 188.625 38.1693 190.219 37.2536C191.814 36.3378 193.848 32.0367 190.044 25.7023Z" fill="#DFEBFD"/>
<path d="M4.79768 193.172C4.67661 193.206 4.5214 193.24 4.33203 193.274C4.48259 193.237 4.63936 193.206 4.79768 193.172Z" fill="#95C38B"/>
<path d="M159.894 105.327L152.428 194.094C152.428 194.094 151.652 199.475 155.649 199.485C162.228 199.5 188.399 199.485 188.399 199.485C188.399 199.485 183.446 198.366 183.507 195.845C183.578 192.874 192.233 104.487 192.233 104.487L159.894 105.327Z" fill="#455A64"/>
<path d="M190.53 197.875C189.235 197.875 164.235 197.957 157.827 197.875C155.033 197.839 154.545 195.392 154.521 193.807C154.512 193.365 154.54 192.923 154.605 192.486L154.799 190.178L155.294 184.298L155.732 179.102L156.294 172.427L156.759 166.793L162.066 103.716L194.414 102.87C194.414 102.87 190.769 139.86 188.191 166.785C187.902 169.786 187.629 172.662 187.376 175.347C187.293 176.204 187.214 177.041 187.137 177.858C186.898 180.405 186.681 182.745 186.49 184.811C186.386 185.9 186.294 186.909 186.213 187.837C185.884 191.469 185.692 193.788 185.689 194.229C185.686 194.47 185.707 194.71 185.752 194.946C186.28 197.782 190.044 197.875 190.53 197.875Z" fill="#455A64"/>
<path d="M81.3477 57.0236L99.5329 130.069L102.023 140.072L110.493 174.094H267.844L236.627 57.0236H81.3477Z" fill="#263238"/>
<path d="M81.3488 57.0236L78.8281 57.8633L107.143 176.635L110.494 174.094L81.3488 57.0236Z" fill="#455A64"/>
<path d="M107.145 176.635H263.527L267.847 174.094H110.496L107.145 176.635Z" fill="#455A64"/>
<path d="M162.059 199.519H195.918V197.909H162.059V199.519Z" fill="#455A64"/>
<path d="M260.221 152.522L234.688 58.5711H81.7326L81.3477 57.0236H236.627L262.073 152.313L260.221 152.522Z" fill="#263238"/>
<path d="M187.311 176.635L187.136 177.865L155.293 184.298L155.731 179.103L155.939 176.635H187.311Z" fill="#263238"/>
<path opacity="0.4" d="M190.528 197.875C189.234 197.875 164.233 197.957 157.826 197.875C155.032 197.839 154.543 195.392 154.52 193.807L186.212 187.843C185.883 191.475 185.69 193.794 185.687 194.235C185.684 194.476 185.706 194.716 185.751 194.952C186.278 197.782 190.042 197.875 190.528 197.875Z" fill="#263238"/>
<path d="M179.615 150.394L110.494 174.094L102.023 140.072L179.615 150.394Z" fill="#263238"/>
<path d="M81.3477 57.0236H236.627L261.82 151.111H104.771L81.3477 57.0236Z" fill="#637C88"/>
<path d="M192.57 166.082C193.977 164.531 193.592 161.889 191.709 160.18C189.826 158.472 187.159 158.344 185.751 159.895C184.344 161.446 184.73 164.088 186.613 165.797C188.495 167.505 191.163 167.633 192.57 166.082Z" fill="white"/>
<path d="M254.498 147.034H109.111L92.6457 81.4439L91.3838 76.4133L90.3066 72.1231L87.7812 62.0635H231.073L233.846 72.1231L235.029 76.4133L236.415 81.4439L254.498 147.034Z" fill="#FFF3EE"/>
<path d="M233.846 72.1231H90.3066L87.7812 62.0635H231.073L233.846 72.1231Z" fill="#FF6C37"/>
<path d="M93.7104 66.6098C93.5381 65.9144 93.9603 65.3525 94.6556 65.3525C95.0164 65.3702 95.3625 65.5012 95.6445 65.7269C95.9265 65.9527 96.1302 66.2616 96.2264 66.6098C96.3987 67.3036 95.9765 67.8671 95.2827 67.8671C94.9218 67.8493 94.5756 67.7182 94.2934 67.4925C94.0111 67.2669 93.8071 66.958 93.7104 66.6098Z" fill="#E9F3FE"/>
<path d="M97.8861 66.6098C97.7139 65.9144 98.136 65.3525 98.8314 65.3525C99.1922 65.3702 99.5383 65.5012 99.8203 65.7269C100.102 65.9527 100.306 66.2616 100.402 66.6098C100.574 67.3036 100.152 67.8671 99.4585 67.8671C99.0975 67.8493 98.7514 67.7182 98.4691 67.4925C98.1869 67.2669 97.9829 66.958 97.8861 66.6098Z" fill="#E9F3FE"/>
<path d="M102.386 66.6098C102.214 65.9144 102.636 65.3525 103.33 65.3525C103.691 65.3701 104.037 65.5011 104.319 65.7268C104.602 65.9525 104.806 66.2615 104.902 66.6098C105.075 67.3036 104.652 67.8671 103.957 67.8671C103.596 67.8489 103.25 67.7178 102.969 67.4921C102.687 67.2664 102.483 66.9577 102.386 66.6098Z" fill="#E9F3FE"/>
<path d="M222.473 141.215H114.78L98.3906 76.9006H204.565L222.473 141.215Z" fill="#CAE0FF"/>
<path d="M236.399 91.8651H211.991L207.527 76.9006H232.232L236.399 91.8651Z" fill="#D2E3FC"/>
<path d="M170.547 83.1636H156.582L156.008 81.0107H169.973L170.547 83.1636Z" fill="#407BFF"/>
<path d="M195.309 83.1636H172.463L171.887 81.0107H194.735L195.309 83.1636Z" fill="#78ACEA"/>
<path d="M172.895 88.9656H148.129L147.555 86.8127H172.321L172.895 88.9656Z" fill="#78ACEA"/>
<path d="M187.963 88.9656H175.125L174.551 86.8127H187.389L187.963 88.9656Z" fill="#FF6C37"/>
<path d="M174.762 98.9539H160.797L160.223 96.801H174.188L174.762 98.9539Z" fill="#699DEE"/>
<path d="M199.524 98.9539H176.677L176.102 96.801H198.949L199.524 98.9539Z" fill="#78ACEA"/>
<path d="M177.112 104.754H152.344L151.77 102.601H176.536L177.112 104.754Z" fill="white"/>
<path d="M192.174 104.754H179.336L178.762 102.601H191.6L192.174 104.754Z" fill="white"/>
<path d="M162.113 113.735H114.863L114.289 111.582H161.539L162.113 113.735Z" fill="#407BFF"/>
<path d="M179.098 113.735H165.133L164.559 111.582H178.523L179.098 113.735Z" fill="#699DEE"/>
<path d="M203.86 113.735H181.012L180.438 111.582H203.285L203.86 113.735Z" fill="#78ACEA"/>
<path d="M130.379 119.536H116.414L115.84 117.383H129.805L130.379 119.536Z" fill="white"/>
<path d="M181.446 119.536H156.68L156.105 117.383H180.872L181.446 119.536Z" fill="#FF6C37"/>
<path d="M155.141 119.536H132.293L131.719 117.383H154.567L155.141 119.536Z" fill="#78ACEA"/>
<path d="M196.514 119.536H183.676L183.102 117.383H195.938L196.514 119.536Z" fill="#78ACEA"/>
<path d="M167.476 129.75H120.227L119.652 127.598H166.902L167.476 129.75Z" fill="#407BFF"/>
<path d="M184.461 129.75H170.496L169.922 127.598H183.887L184.461 129.75Z" fill="#699DEE"/>
<path d="M135.742 135.552H121.777L121.203 133.4H135.168L135.742 135.552Z" fill="white"/>
<path d="M186.809 135.552H162.043L161.469 133.4H186.235L186.809 135.552Z" fill="#FF6C37"/>
<path d="M160.504 135.552H137.656L137.082 133.4H159.928L160.504 135.552Z" fill="#78ACEA"/>
<path d="M201.877 135.552H189.039L188.465 133.4H201.301L201.877 135.552Z" fill="#78ACEA"/>
<path d="M224.246 96.4952L213.505 96.5278L213.266 95.5531L224.008 95.5189L224.246 96.4952Z" fill="#78ACEA"/>
<path d="M229.911 96.4781L225.872 96.4906L225.633 95.5142L229.672 95.5018L229.911 96.4781Z" fill="#78ACEA"/>
<path d="M238.099 96.4517L230.96 96.475L230.723 95.4987L237.861 95.4769L238.099 96.4517Z" fill="#78ACEA"/>
<path d="M219.994 98.9772L214.105 98.9942L213.867 98.0195L219.756 98.0009L219.994 98.9772Z" fill="#78ACEA"/>
<path d="M228.581 98.9507L220.976 98.974L220.738 97.9976L228.344 97.9744L228.581 98.9507Z" fill="#78ACEA"/>
<path d="M238.701 98.9197L229.984 98.9461L229.746 97.9697L238.463 97.9434L238.701 98.9197Z" fill="#78ACEA"/>
<path d="M225.531 101.765L214.788 101.799L214.551 100.823L225.292 100.79L225.531 101.765Z" fill="#78ACEA"/>
<path d="M231.194 101.748L227.155 101.76L226.918 100.785L230.957 100.773L231.194 101.748Z" fill="#78ACEA"/>
<path d="M239.384 101.723L232.245 101.745L232.008 100.77L239.146 100.747L239.384 101.723Z" fill="#78ACEA"/>
<path d="M221.279 104.247L215.39 104.265L215.152 103.289L221.041 103.272L221.279 104.247Z" fill="#78ACEA"/>
<path d="M229.867 104.22L222.261 104.244L222.023 103.269L229.628 103.246L229.867 104.22Z" fill="#78ACEA"/>
<path d="M239.984 104.189L231.269 104.216L231.031 103.241L239.747 103.215L239.984 104.189Z" fill="#78ACEA"/>
<path d="M217.108 78.9775L210.639 78.9976L210.496 78.4109L216.966 78.3907L217.108 78.9775Z" fill="white"/>
<path d="M220.516 78.9666L218.086 78.9744L217.941 78.3876L220.374 78.3799L220.516 78.9666Z" fill="white"/>
<path d="M225.45 78.9527L221.151 78.9651L221.008 78.3783L225.307 78.3644L225.45 78.9527Z" fill="white"/>
<path d="M214.545 80.4722L211 80.4831L210.855 79.8964L214.402 79.8855L214.545 80.4722Z" fill="white"/>
<path d="M219.719 80.4567L215.139 80.4707L214.996 79.8824L219.575 79.8684L219.719 80.4567Z" fill="white"/>
<path d="M225.81 80.438L220.562 80.4535L220.418 79.8668L225.667 79.8497L225.81 80.438Z" fill="white"/>
<path d="M217.882 82.1517L211.414 82.1718L211.27 81.5836L217.739 81.5649L217.882 82.1517Z" fill="white"/>
<path d="M221.294 82.1408L218.862 82.1486L218.719 81.5618L221.151 81.5541L221.294 82.1408Z" fill="white"/>
<path d="M226.224 82.1267L221.926 82.1391L221.781 81.5509L226.081 81.5385L226.224 82.1267Z" fill="white"/>
<path d="M215.322 83.6464L211.776 83.6572L211.633 83.069L215.178 83.0581L215.322 83.6464Z" fill="white"/>
<path d="M220.493 83.6309L215.914 83.6448L215.77 83.0566L220.35 83.0426L220.493 83.6309Z" fill="white"/>
<path d="M226.582 83.6106L221.334 83.6277L221.191 83.0394L226.439 83.0239L226.582 83.6106Z" fill="white"/>
<path d="M227.726 110.771L216.984 110.803L216.746 109.828L227.489 109.794L227.726 110.771Z" fill="#78ACEA"/>
<path d="M233.39 110.753L229.351 110.766L229.113 109.79L233.152 109.777L233.39 110.753Z" fill="#78ACEA"/>
<path d="M241.579 110.727L234.441 110.749L234.203 109.774L241.342 109.752L241.579 110.727Z" fill="#78ACEA"/>
<path d="M223.474 113.252L217.585 113.27L217.348 112.295L223.237 112.276L223.474 113.252Z" fill="#78ACEA"/>
<path d="M232.062 113.226L224.456 113.249L224.219 112.273L231.824 112.25L232.062 113.226Z" fill="#78ACEA"/>
<path d="M242.179 113.193L233.464 113.221L233.227 112.245L241.942 112.219L242.179 113.193Z" fill="#78ACEA"/>
<path d="M229.878 119.596L219.137 119.629L218.898 118.654L229.641 118.621L229.878 119.596Z" fill="#78ACEA"/>
<path d="M235.543 119.579L231.503 119.592L231.266 118.615L235.304 118.603L235.543 119.579Z" fill="#78ACEA"/>
<path d="M243.727 119.553L236.589 119.576L236.352 118.6L243.49 118.578L243.727 119.553Z" fill="#78ACEA"/>
<path d="M225.626 122.078L219.737 122.095L219.5 121.12L225.389 121.102L225.626 122.078Z" fill="#78ACEA"/>
<path d="M234.214 122.052L226.609 122.075L226.371 121.099L233.977 121.075L234.214 122.052Z" fill="#78ACEA"/>
<path d="M244.332 122.021L235.616 122.047L235.379 121.071L244.094 121.044L244.332 122.021Z" fill="#78ACEA"/>
<path d="M231.814 127.548L221.073 127.58L220.836 126.606L231.577 126.572L231.814 127.548Z" fill="#78ACEA"/>
<path d="M237.479 127.531L233.441 127.543L233.203 126.567L237.242 126.554L237.479 127.531Z" fill="#78ACEA"/>
<path d="M245.667 127.504L238.528 127.528L238.289 126.551L245.427 126.53L245.667 127.504Z" fill="#78ACEA"/>
<path d="M227.565 130.03L221.675 130.047L221.438 129.072L227.326 129.053L227.565 130.03Z" fill="#78ACEA"/>
<path d="M236.15 130.003L228.546 130.027L228.309 129.05L235.913 129.027L236.15 130.003Z" fill="#78ACEA"/>
<path d="M246.269 129.972L237.554 129.999L237.316 129.022L246.032 128.996L246.269 129.972Z" fill="#78ACEA"/>
<path d="M236.879 139.374C235.153 139.374 233.339 137.977 232.834 136.243C232.33 134.509 233.325 133.112 235.052 133.112C236.78 133.112 238.593 134.517 239.088 136.243C239.583 137.969 238.601 139.374 236.879 139.374ZM235.218 133.685C233.808 133.685 232.994 134.832 233.407 136.243C233.82 137.654 235.302 138.803 236.713 138.803C238.124 138.803 238.936 137.654 238.525 136.243C238.113 134.832 236.625 133.685 235.214 133.685H235.218Z" fill="#A8D29F"/>
<path d="M236.364 137.836C236.235 137.823 236.113 137.772 236.013 137.69L234.256 136.284C234.019 136.093 233.946 135.791 234.075 135.61C234.204 135.428 234.515 135.434 234.753 135.625L235.995 136.619L236.631 135.147C236.723 134.935 237.007 134.888 237.264 135.042C237.522 135.195 237.657 135.493 237.566 135.706L236.726 137.639C236.7 137.696 236.658 137.745 236.606 137.779C236.553 137.814 236.492 137.833 236.429 137.834L236.364 137.836Z" fill="#A8D29F"/>
<path d="M245.52 139.374C243.794 139.374 241.979 137.977 241.475 136.243C240.971 134.509 241.965 133.112 243.691 133.112C245.417 133.112 247.232 134.517 247.736 136.243C248.241 137.969 247.246 139.374 245.52 139.374ZM243.859 133.685C242.448 133.685 241.635 134.832 242.048 136.243C242.461 137.654 243.941 138.803 245.352 138.803C246.763 138.803 247.577 137.654 247.165 136.243C246.754 134.832 245.264 133.685 243.867 133.685H243.859Z" fill="#FF6C37"/>
<path d="M244.753 136.755C244.624 136.748 244.501 136.701 244.399 136.622C244.297 136.543 244.221 136.436 244.181 136.313L243.793 134.983C243.773 134.933 243.766 134.879 243.772 134.825C243.778 134.772 243.797 134.721 243.828 134.677C243.859 134.633 243.9 134.597 243.948 134.573C243.997 134.55 244.05 134.538 244.104 134.54C244.233 134.548 244.356 134.594 244.458 134.673C244.56 134.752 244.636 134.86 244.675 134.983L245.063 136.313C245.083 136.363 245.091 136.417 245.085 136.47C245.079 136.524 245.059 136.575 245.028 136.619C244.998 136.663 244.956 136.698 244.908 136.722C244.86 136.746 244.806 136.758 244.753 136.755Z" fill="#FF6C37"/>
<path d="M245.109 137.794H245.013C244.898 137.787 244.787 137.745 244.696 137.675C244.605 137.604 244.538 137.508 244.502 137.398C244.484 137.353 244.477 137.305 244.482 137.257C244.488 137.209 244.505 137.163 244.533 137.124C244.561 137.084 244.598 137.053 244.642 137.032C244.685 137.011 244.733 137.001 244.782 137.004H244.878C244.993 137.01 245.103 137.051 245.194 137.122C245.285 137.192 245.353 137.288 245.388 137.398C245.407 137.443 245.413 137.491 245.408 137.539C245.403 137.587 245.385 137.633 245.357 137.673C245.329 137.712 245.292 137.744 245.249 137.765C245.205 137.786 245.157 137.796 245.109 137.794Z" fill="#FF6C37"/>
<path d="M227.247 90.4231C226.3 90.4231 225.305 89.647 225.029 88.7157C224.752 87.7844 225.299 86.999 226.244 86.999C227.189 86.999 228.186 87.7751 228.462 88.7157C228.738 89.6563 228.189 90.4231 227.247 90.4231ZM226.336 87.3048C225.56 87.3048 225.117 87.9257 225.342 88.7017C225.567 89.4778 226.382 90.0987 227.155 90.0987C227.928 90.0987 228.374 89.4778 228.149 88.7017C227.924 87.9257 227.11 87.3048 226.336 87.3048Z" fill="#A8D29F"/>
<path d="M226.967 89.5803C226.896 89.5735 226.829 89.546 226.775 89.5012L225.811 88.7251C225.751 88.6869 225.708 88.6279 225.689 88.5596C225.671 88.4913 225.679 88.4185 225.711 88.3556C225.762 88.3074 225.829 88.2811 225.899 88.2825C225.969 88.284 226.035 88.3131 226.084 88.3634L226.764 88.9082L227.113 88.1011C227.163 87.9847 227.319 87.9598 227.461 88.0437C227.527 88.0753 227.579 88.1293 227.609 88.196C227.64 88.2627 227.645 88.338 227.625 88.4084L227.167 89.4686C227.153 89.4998 227.13 89.5264 227.101 89.5454C227.072 89.5643 227.039 89.5748 227.004 89.5757L226.967 89.5803Z" fill="#A8D29F"/>
<path d="M222.337 90.4231C221.39 90.4231 220.395 89.647 220.119 88.7157C219.842 87.7844 220.387 86.999 221.334 86.999C222.281 86.999 223.276 87.7751 223.552 88.7157C223.828 89.6563 223.284 90.4231 222.337 90.4231ZM221.426 87.3048C220.65 87.3048 220.207 87.9257 220.432 88.7017C220.657 89.4778 221.471 90.0987 222.245 90.0987C223.02 90.0987 223.464 89.4778 223.239 88.7017C223.014 87.9257 222.2 87.3048 221.426 87.3048Z" fill="#A8D29F"/>
<path d="M222.053 89.5803C221.982 89.5735 221.915 89.546 221.86 89.5012L220.897 88.7251C220.837 88.6869 220.794 88.6279 220.775 88.5596C220.757 88.4913 220.765 88.4185 220.797 88.3556C220.848 88.3074 220.915 88.2811 220.985 88.2825C221.055 88.284 221.121 88.3131 221.17 88.3634L221.85 88.9082L222.199 88.1011C222.248 87.9847 222.405 87.9598 222.547 88.0437C222.613 88.0753 222.665 88.1293 222.695 88.196C222.725 88.2627 222.731 88.338 222.711 88.4084L222.245 89.4686C222.232 89.4987 222.21 89.5246 222.182 89.5434C222.155 89.5622 222.123 89.5734 222.09 89.5757L222.053 89.5803Z" fill="#A8D29F"/>
<path d="M217.249 90.4231C216.304 90.4231 215.309 89.647 215.033 88.7157C214.757 87.7844 215.301 86.999 216.248 86.999C217.195 86.999 218.188 87.7751 218.465 88.7157C218.741 89.6563 218.196 90.4231 217.249 90.4231ZM216.34 87.3048C215.564 87.3048 215.12 87.9257 215.346 88.7017C215.573 89.4778 216.385 90.0987 217.158 90.0987C217.931 90.0987 218.378 89.4778 218.151 88.7017C217.924 87.9257 217.113 87.3048 216.34 87.3048Z" fill="#A8D29F"/>
<path d="M216.968 89.5803C216.897 89.5738 216.829 89.5463 216.774 89.5012L215.812 88.7251C215.751 88.6874 215.708 88.6284 215.689 88.5599C215.671 88.4913 215.679 88.4184 215.712 88.3556C215.737 88.3318 215.766 88.3131 215.799 88.3006C215.831 88.288 215.865 88.282 215.899 88.2827C215.934 88.2834 215.968 88.2909 215.999 88.3048C216.031 88.3186 216.059 88.3385 216.083 88.3634L216.765 88.9082L217.112 88.1011C217.164 87.9847 217.319 87.9598 217.46 88.0437C217.526 88.075 217.579 88.1289 217.61 88.1956C217.64 88.2624 217.646 88.3378 217.626 88.4084L217.16 89.4686C217.147 89.4989 217.125 89.5249 217.098 89.5438C217.07 89.5627 217.038 89.5737 217.005 89.5757L216.968 89.5803Z" fill="#A8D29F"/>
<path d="M231.985 90.4231C231.038 90.4231 230.043 89.647 229.767 88.7157C229.491 87.7844 230.036 86.999 230.983 86.999C231.929 86.999 232.924 87.7751 233.201 88.7157C233.477 89.6563 232.93 90.4231 231.985 90.4231ZM231.074 87.3048C230.298 87.3048 229.854 87.9257 230.081 88.7017C230.307 89.4778 231.119 90.0987 231.894 90.0987C232.668 90.0987 233.112 89.4778 232.887 88.7017C232.662 87.9257 231.847 87.3048 231.074 87.3048Z" fill="#FF6C37"/>
<path d="M231.565 88.9874C231.495 88.9827 231.428 88.9572 231.373 88.914C231.318 88.8708 231.276 88.8121 231.255 88.7453L231.041 88.0158C231.029 87.9883 231.025 87.9584 231.028 87.9289C231.032 87.8994 231.043 87.8712 231.06 87.847C231.077 87.8228 231.1 87.8034 231.127 87.7906C231.154 87.7777 231.183 87.7719 231.213 87.7736C231.283 87.7783 231.35 87.8039 231.405 87.847C231.461 87.8902 231.502 87.949 231.523 88.0158L231.736 88.7453C231.747 88.7726 231.752 88.8023 231.748 88.8317C231.745 88.8611 231.734 88.8891 231.717 88.9133C231.7 88.9375 231.677 88.9569 231.651 88.9699C231.624 88.9828 231.595 88.9889 231.565 88.9874Z" fill="#FF6C37"/>
<path d="M231.759 89.5601H231.707C231.644 89.5568 231.583 89.5343 231.533 89.4958C231.483 89.4572 231.446 89.4044 231.427 89.3443C231.416 89.3197 231.412 89.2926 231.415 89.2658C231.418 89.239 231.427 89.2134 231.443 89.1915C231.459 89.1695 231.48 89.1521 231.504 89.1408C231.529 89.1295 231.556 89.1247 231.582 89.127H231.635C231.698 89.1305 231.759 89.1531 231.809 89.192C231.859 89.2308 231.896 89.284 231.915 89.3443C231.925 89.3689 231.929 89.3958 231.926 89.4224C231.923 89.4489 231.914 89.4743 231.898 89.496C231.882 89.5177 231.861 89.535 231.837 89.5462C231.813 89.5575 231.786 89.5622 231.759 89.5601Z" fill="#FF6C37"/>
<path d="M66.6741 137.971C66.6741 137.971 69.2615 138.635 70.9053 138.14C72.549 137.645 75.3817 138.45 75.8381 139.057C76.2944 139.664 76.1252 139.895 75.3119 140.102C74.4985 140.308 71.6162 141.539 69.7241 140.827C67.832 140.114 65.3594 140.089 65.3594 140.089L66.6741 137.971Z" fill="#E49963"/>
<path d="M44.3125 115.494C44.3125 115.494 47.2197 136.153 52.0314 138C54.4063 138.913 64.902 140.982 68.0064 141.19C68.0064 141.19 68.7669 140.569 68.5822 138.062C68.5822 138.062 57.5866 134.027 56.0236 131.829C53.6954 128.569 57.4671 118.48 54.5506 115.413C51.6341 112.346 46.7199 111.028 44.3125 115.494Z" fill="#4A75CB"/>
<path d="M45.9915 197.402H47.3946C48.1173 197.402 48.7031 196.816 48.7031 196.093L48.7031 163.532C48.7031 162.809 48.1173 162.223 47.3946 162.223H45.9915C45.2688 162.223 44.683 162.809 44.683 163.532L44.683 196.093C44.683 196.816 45.2688 197.402 45.9915 197.402Z" fill="#2B478B"/>
<path d="M34.2891 199.714C35.5898 197.023 40.653 195.016 46.694 195.016C52.735 195.016 57.7982 197.023 59.0989 199.714H34.2891Z" fill="#2B478B"/>
<path d="M37.5946 190.589H55.7968C55.9889 190.589 56.1445 190.434 56.1445 190.242V189.52C56.1445 189.328 55.9889 189.172 55.7968 189.172H37.5946C37.4025 189.172 37.2469 189.328 37.2469 189.52V190.242C37.2469 190.434 37.4025 190.589 37.5946 190.589Z" fill="#2B478B"/>
<path d="M45.2913 159.017C46.1458 160.434 47.0964 161.792 48.1364 163.08C51.2609 167.023 54.6555 170.274 55.2547 173.349C55.3887 174.017 55.5719 174.675 55.8026 175.316C56.0509 176.021 56.3567 176.761 56.709 177.526C58.0346 180.405 60.0167 183.632 61.9973 186.564C65.4121 191.635 68.6359 195.865 68.6359 195.865L74.5341 195.614C74.2967 195.022 71.7232 188.022 68.2805 179.471L63.9623 168.742C63.7709 168.266 63.5805 167.793 63.3911 167.322C62.9519 166.236 62.5204 165.16 62.0997 164.114L56.2915 149.679C56.2915 149.679 43.3713 144.783 42.0302 147.954C40.9204 150.571 41.8222 153.134 45.2913 159.017Z" fill="#163560"/>
<path d="M68.8164 194.792C68.8164 194.792 69.1175 199.662 70.0581 199.731C70.1839 199.741 74.8357 199.741 74.8357 199.741L80.7759 199.707C80.7759 199.707 80.7371 198.276 79.0002 197.973C77.2633 197.67 74.3592 196.45 73.3068 194.156C72.197 191.742 68.8164 194.792 68.8164 194.792Z" fill="#163560"/>
<path d="M55.1503 180.884C55.1503 180.884 51.0464 183.522 51.4453 184.376C51.498 184.491 53.7658 188.553 53.7658 188.553L56.6916 193.722C56.6916 193.722 57.9209 192.99 57.3389 191.327C56.7568 189.663 56.4076 186.532 57.8961 184.497C59.4669 182.352 55.1503 180.884 55.1503 180.884Z" fill="#163560"/>
<path d="M60.9313 147.501C60.9313 147.501 76.9186 157.458 78.7331 164.247C80.5476 171.037 57.158 185.512 57.158 185.512C57.158 185.512 54.5922 183.249 54.1406 181.59C54.1406 181.59 64.7093 168.927 67.0018 166.088C68.4112 164.345 46.1826 160.053 43.4679 155.828C40.7531 151.603 41.7232 148.05 41.7232 148.05L60.9313 147.501Z" fill="#1C468A"/>
<path d="M30.0985 169.38H63.2885C63.9554 169.38 64.4961 168.84 64.4961 168.173V161.536C64.4961 160.869 63.9554 160.328 63.2885 160.328H30.0985C29.4316 160.328 28.8909 160.869 28.8909 161.536V168.173C28.8909 168.84 29.4316 169.38 30.0985 169.38Z" fill="#EE9849"/>
<path d="M53.2071 111.953C54.1608 112.542 54.9984 113.301 55.6781 114.192C51.7977 115.197 45.3516 111.596 45.3516 111.596C45.3516 111.596 47.8537 109.917 48.7788 106.224C48.8269 106.038 48.8688 105.847 48.906 105.651C49.0352 104.986 49.1058 104.311 49.1171 103.634L50.9021 105.232L53.8699 107.891C53.7827 108.9 53.636 109.902 53.4306 110.893C53.3664 111.221 53.2919 111.575 53.2071 111.953Z" fill="#E49963"/>
<path d="M41.2371 130.297C41.7928 137.781 41.0617 149.165 41.6919 151.136C42.2367 152.844 48.4454 151.827 50.9242 151.259C51.84 151.049 52.9513 150.748 54.0984 150.393C57.2989 149.402 60.7867 147.987 61.1607 146.938C61.1746 146.898 61.186 146.858 61.1949 146.817C61.2302 146.672 61.2302 146.521 61.1949 146.376C61.0707 145.84 60.5895 145.261 60.5321 143.936C60.47 142.455 60.4793 140.712 60.4235 138.837C60.4235 138.626 60.4235 138.396 60.394 138.186V138.109C60.394 138.068 60.394 138.03 60.394 137.989C60.3396 135.899 60.2387 133.701 60.1037 131.521C60.023 130.152 59.9299 128.796 59.8228 127.498C59.5434 124.144 59.1677 121.162 58.6695 119.272C57.8562 116.198 56.0619 114.195 54.429 112.726L53.2493 111.713C51.93 112.001 50.3732 111.809 48.9638 111.141C47.438 110.418 46.9118 109.9 46.6448 110.094C43.1137 112.818 40.579 121.147 41.2371 130.297Z" fill="#739AF0"/>
<path d="M54.0961 150.393C57.2967 149.402 60.7844 147.987 61.1585 146.938C61.1723 146.898 61.1837 146.857 61.1926 146.816C61.1926 146.661 61.1926 146.523 61.1926 146.376C61.0685 145.84 60.5873 145.261 60.5299 143.936C60.4678 142.455 60.4771 140.712 60.4212 138.837C60.4212 138.626 60.4212 138.396 60.3917 138.186V138.109C60.3917 138.068 60.3917 138.03 60.3917 137.989L48.291 132.505C48.291 132.505 47.5972 142.25 54.0961 150.393Z" fill="#4A75CB"/>
<path d="M53.868 107.887C53.7808 108.895 53.6341 109.897 53.4288 110.888C50.5309 109.957 49.2162 107.334 48.7723 106.224C48.6481 105.914 48.5938 105.717 48.5938 105.717L48.9042 105.651L50.9003 105.228L53.868 107.887Z" fill="#D68D5D"/>
<path d="M55.0428 107.859C55.0428 107.859 48.6789 108.576 48.2893 104.599C47.8997 100.622 46.821 98.0582 50.8706 97.4234C54.9202 96.7885 55.8577 98.2367 56.3032 99.5312C56.7486 100.826 56.6881 107.568 55.0428 107.859Z" fill="#E49963"/>
<path d="M48.3147 104.878C48.3147 104.878 48.7183 99.601 54.5141 99.0609C58.483 98.6868 56.2696 95.2689 55.8474 94.7241C55.8474 94.7241 52.8051 95.1417 49.6884 95.6554C43.1444 96.7373 47.6706 104.057 48.3147 104.878Z" fill="#2B478B"/>
<path d="M79.1256 143.149L79.6836 143.33L84.4228 128.736L83.8648 128.555L79.1256 143.149Z" fill="#4A75CB"/>
<path d="M63.5811 142.993L79.6797 143.335L79.7002 142.372L63.6017 142.029L63.5811 142.993Z" fill="#4A75CB"/>
<path d="M65.3429 141.146C65.3429 141.146 67.8419 142.092 69.5337 141.781C71.2256 141.471 73.9466 142.59 74.3346 143.237C74.7226 143.885 74.5286 144.102 73.6967 144.218C72.8647 144.335 69.8659 145.238 68.0607 144.322C66.2556 143.406 63.8047 143.108 63.8047 143.108L65.3429 141.146Z" fill="#E49963"/>
<path d="M45.5938 116.341C45.5938 116.341 46.2053 137.195 50.7858 139.565C53.0457 140.734 63.2481 143.948 66.3074 144.496C66.3074 144.496 67.1316 143.967 67.2248 141.451C67.2248 141.451 56.7414 136.226 55.4283 133.871C53.4788 130.368 58.334 120.763 55.7729 117.392C53.2118 114.021 48.4792 112.167 45.5938 116.341Z" fill="#739AF0"/>
<path d="M219.582 199.07C219.582 199.07 219.816 197.248 220.358 196.165C220.9 195.081 224.346 195.772 224.346 195.772C224.346 195.772 225.035 196.362 225.182 199.118L219.582 199.07Z" fill="#233862"/>
<path d="M207.843 199.045C208.654 198.55 208.193 194.864 208.193 194.864C208.193 194.864 204.419 191.846 203.901 194.156C203.382 196.466 200.317 197.506 198.572 197.788C197.368 197.984 196.995 198.651 196.879 199.045H207.843Z" fill="#233862"/>
<path d="M215.657 172.232C215.524 172.905 215.432 173.586 215.379 174.27C215.028 181.11 209.621 196.751 208.654 197.116C207.157 197.681 204.801 196.48 203.567 196.087C203.317 196.013 203.103 195.85 202.967 195.628C202.83 195.406 202.779 195.142 202.825 194.886C205.503 182.575 206.488 164.847 206.845 154.352C207.027 149.066 207.932 145.413 207.932 145.413C207.932 145.413 221.125 141.895 221.2 146.345C221.271 150.284 216.832 165.733 215.657 172.232Z" fill="#213F7A"/>
<path d="M215.655 172.232L206.844 154.352C207.025 149.066 207.93 145.413 207.93 145.413C207.93 145.413 221.124 141.895 221.198 146.345C221.27 150.284 216.83 165.733 215.655 172.232Z" fill="#233862"/>
<path d="M212.723 146.362L219.695 196.894C219.695 196.894 222.757 197.633 225.138 197.049C225.138 197.049 227.18 170.173 227.01 163.678C226.841 157.182 228.474 146.293 226.636 145.092C224.799 143.891 212.723 146.362 212.723 146.362Z" fill="#213F7A"/>
<path d="M227.126 133.387L227.995 145.519C228.01 145.74 227.949 145.96 227.822 146.142C227.695 146.324 227.51 146.457 227.296 146.519C226.323 146.801 225.203 146.998 223.039 147.45C220.365 147.99 217.645 148.264 214.918 148.266C209.577 148.3 207.554 146.46 207.554 146.46C207.325 146.46 207.675 145.345 207.992 140.032C208.101 138.232 208.203 135.948 208.278 133.064C208.346 130.469 208.391 127.387 208.396 123.73C208.396 119.329 215.211 114.595 215.337 114.595C215.337 115.228 216.335 116.397 217.873 116.498C219.699 116.618 221.938 115.71 221.938 114.659C221.938 114.648 225.237 119.936 226.409 125.572C226.564 126.286 226.674 127.04 226.766 127.834C226.766 127.845 226.766 127.857 226.766 127.869C226.783 128.014 226.798 128.159 226.814 128.307C226.814 128.333 226.814 128.358 226.814 128.385C226.828 128.518 226.842 128.653 226.852 128.788C226.852 128.827 226.852 128.867 226.863 128.905C226.874 129.029 226.885 129.153 226.894 129.279C226.895 129.29 226.895 129.301 226.894 129.313C226.894 129.406 226.908 129.499 226.916 129.594C226.916 129.659 226.925 129.727 226.93 129.794L226.953 130.125C226.953 130.18 226.953 130.235 226.964 130.291L226.983 130.601L226.992 130.744C226.992 130.899 227.009 131.054 227.017 131.209C227.017 131.222 227.017 131.234 227.017 131.247C227.017 131.402 227.033 131.548 227.039 131.7C227.039 131.739 227.039 131.774 227.039 131.813L227.057 132.243C227.057 132.265 227.057 132.287 227.057 132.308C227.071 132.66 227.085 133.018 227.099 133.383C227.098 133.392 227.098 133.401 227.099 133.41L227.126 133.387Z" fill="#2B478B"/>
<path d="M215.337 114.592C215.337 114.592 209.004 114.538 207.48 116.675C205.955 118.812 202.615 130.311 204.358 134.137C206.101 137.963 209.366 132.555 211.175 130.211C212.985 127.868 215.337 114.592 215.337 114.592Z" fill="#2B478B"/>
<path d="M215.272 113.625V114.28C215.272 114.28 215.093 116.327 217.614 116.625C220.135 116.923 222.045 115.827 221.977 114.247C221.749 113.024 221.501 112.185 221.484 111.173C221.478 110.762 221.508 110.352 221.574 109.946L216.687 109.849L215.25 110.084L215.272 113.625Z" fill="#FFB27D"/>
<path d="M215.254 110.084L215.273 113.625C215.824 113.882 216.425 114.015 217.033 114.013C219.277 114.013 220.728 112.368 221.487 111.173C221.482 110.762 221.512 110.352 221.577 109.946L216.691 109.849L215.254 110.084Z" fill="#E2915A"/>
<path d="M221.952 109.161C221.386 112.211 217.451 112.11 215.744 111.919C215.266 111.865 214.968 111.804 214.968 111.804C214.428 111.66 214.126 110.809 213.987 109.696C213.709 107.492 214.06 104.264 214.432 103.43C214.993 102.189 216.048 100.838 220.011 101.81C223.973 102.782 222.679 105.253 221.952 109.161Z" fill="#FFB27D"/>
<path d="M208.86 123.161C208.86 123.161 206.411 128.569 206.482 130.191C207.285 130.181 208.086 130.286 208.86 130.502C210.775 131.068 208.86 123.161 208.86 123.161Z" fill="#233862"/>
<path d="M213.215 100.526C214.528 100.377 215.81 100.03 217.018 99.4971C218.688 98.7722 220.796 99.5716 221.479 99.9317C221.455 99.7841 221.398 99.6437 221.313 99.5204C221.488 99.6471 221.613 99.8319 221.665 100.042C221.696 100.065 221.71 100.082 221.703 100.087C221.893 100.052 222.089 100.065 222.274 100.124C222.274 100.124 222.119 100.101 222.061 100.202C222.056 100.213 222.047 100.223 222.036 100.23C224.642 101.489 224.883 105.606 224.045 106.559C223.036 107.705 221.827 110.285 221.827 110.285C221.827 110.285 221.384 109.676 221.569 108.667C221.754 107.658 220.88 107.658 219.78 107.199C218.679 106.74 219.596 105.457 218.634 104.678C217.672 103.899 214.133 104.357 214.187 103.761C212.875 103.284 213.215 100.661 213.215 100.526Z" fill="#233862"/>
<path d="M222.758 133.292C221.724 137.444 210.542 139.591 208 140.027C208.109 138.227 208.211 135.943 208.286 133.06L222.758 133.292Z" fill="#233862"/>
<path d="M220.298 134.643C220.403 134.643 222.781 134.287 223.21 134.075C223.638 133.862 225.584 131.092 224.309 130.381C223.033 129.67 219.605 132.512 219.605 132.512L220.298 134.643Z" fill="#FFB27D"/>
<path d="M205.825 135.466C205.825 135.466 215.026 135.965 221.203 134.643C221.203 134.643 221.358 132.858 219.418 132.066C219.418 132.066 209.794 130.027 207.48 130.595C205.166 131.163 205.825 135.466 205.825 135.466Z" fill="#2B478B"/>
<path d="M226.955 128.245C225.046 130.547 222.55 132.426 219.798 132.867C219.254 131.94 219.016 130.865 219.116 129.795C219.214 128.787 219.558 127.818 220.119 126.974C220.334 126.63 220.516 126.266 220.661 125.887C222.163 122.053 221.94 114.663 221.94 114.663C221.94 114.663 228.321 115.331 230.309 118.171C231.526 119.905 229.972 124.6 226.955 128.245Z" fill="#2B478B"/>
<path d="M215.749 111.919C215.271 111.865 214.973 111.804 214.973 111.804C214.433 111.66 214.132 110.809 213.992 109.696C215.004 109.946 215.468 110.727 215.661 111.061C215.745 111.21 215.763 111.547 215.749 111.919Z" fill="#E2915A"/>
<path d="M213.179 113.644C213.179 113.644 210.973 110.007 212.688 109.848C214.403 109.69 215.091 110.851 215.338 111.276C215.585 111.702 215.274 113.625 215.274 113.625L213.179 113.644Z" fill="#FFB27D"/>
<path d="M221.579 129.671C221.512 130.107 221.386 130.532 221.203 130.933C220.87 131.664 220.395 132.321 219.806 132.867C214.082 130.284 212.924 121.412 212.73 116.537C212.652 114.576 212.73 113.263 212.73 113.263C215.313 112.408 216.037 113.894 216.037 113.894C216.037 113.894 219.087 121.144 220.669 125.882C221.265 127.694 221.656 129.14 221.579 129.671Z" fill="#2B478B"/>
<path d="M226.956 128.245C225.047 130.547 222.551 132.426 219.799 132.867C214.075 130.284 212.917 121.412 212.723 116.537C212.723 116.537 215.431 126.361 219.118 129.795C219.783 130.416 220.484 130.828 221.204 130.935C221.204 130.935 225.86 129.622 226.827 128.385C226.896 128.295 226.937 128.25 226.956 128.245Z" fill="#233862"/>
<path d="M394.865 198.952H0.448577C0.200835 198.952 0 199.153 0 199.401V199.553C0 199.801 0.200835 200.002 0.448577 200.002H394.865C395.113 200.002 395.314 199.801 395.314 199.553V199.401C395.314 199.153 395.113 198.952 394.865 198.952Z" fill="#2E3552"/>
<path d="M321.352 190.752C322.468 194.924 330.716 197.38 339.737 198.823H373.406C381.52 194.85 381.509 190.111 382.161 177.026C383.505 150 369.289 136.952 362.949 139.105C362.685 139.195 362.416 139.292 362.143 139.403C360.301 140.145 358.238 141.454 356.229 144.569C356.229 144.569 349.929 155.071 344.743 161.332C343.073 163.35 341.519 164.929 340.33 165.574C340.317 165.583 340.302 165.591 340.287 165.596C340.225 165.63 340.163 165.66 340.101 165.688C337.353 166.947 333.481 169.582 329.943 172.908C324.456 178.065 319.778 184.871 321.352 190.752Z" fill="#455A64"/>
<path d="M329.941 172.908C334.662 174.358 358.958 181.372 364.676 173.936C368.815 168.55 366.237 154.753 363.951 145.826C363.02 142.166 358.335 141.336 356.288 144.473L356.227 144.566C356.227 144.566 349.927 155.068 344.741 161.329C343.24 163.308 341.761 164.834 340.329 165.571C340.315 165.58 340.3 165.587 340.285 165.593C340.225 165.627 340.161 165.657 340.099 165.685C337.351 166.947 333.479 169.582 329.941 172.908Z" fill="#263238"/>
<path d="M348.015 138.813C348.015 138.813 346.333 141.297 345.377 146.543C344.535 151.13 343.798 152.823 342.583 153.764C341.367 154.705 334.602 157.481 334.602 157.481L335.108 158.667C335.108 158.667 345.026 157.317 346.139 155.659C347.252 154.001 351.5 144.207 351.171 141.952C350.842 139.697 348.015 138.813 348.015 138.813Z" fill="#F4A269"/>
<path d="M323.727 193.527C323.817 194.494 322.469 194.729 320.91 194.806C319.35 194.884 319.823 195.204 317.684 195.592C315.545 195.98 314.69 195.393 314.536 195.104C314.398 194.848 315.392 194.448 316.45 193.995C316.584 193.939 316.717 193.88 316.851 193.821C318.043 193.298 318.713 192.228 319.645 191.238C320.525 190.307 321.36 187.292 321.36 187.292L324.264 186.672C324.264 186.672 323.449 189.377 323.166 190.532C322.999 191.21 323.246 191.971 323.463 192.55C323.594 192.862 323.683 193.191 323.727 193.527Z" fill="#FFB27D"/>
<path d="M320.91 194.806C319.357 194.884 319.823 195.204 317.684 195.592C315.545 195.98 314.69 195.393 314.536 195.104C314.398 194.848 315.392 194.448 316.45 193.995L316.467 194.013C317.523 194.318 318.642 194.331 319.705 194.052C321.119 193.667 322.487 192.823 323.46 192.55C323.592 192.862 323.682 193.191 323.727 193.527C323.817 194.494 322.469 194.729 320.91 194.806Z" fill="#C65447"/>
<path d="M352.653 159.083C352.653 159.083 333.352 157.63 329.718 159.925C326.085 162.219 320.25 188.928 320.25 188.928C320.25 188.928 320.609 189.217 321.413 189.304C322.159 189.385 323.804 188.945 323.804 188.945C323.804 188.945 332.186 176.994 332.77 173.983C333.353 170.971 333.215 168.286 334.559 168.213C335.904 168.14 352.647 170.25 355.18 165.787C357.713 161.325 355.619 156.907 355.619 156.907L352.653 159.083Z" fill="#163560"/>
<path d="M331.113 196.621C331.204 197.588 329.856 197.824 328.298 197.901C326.739 197.979 327.211 198.297 325.071 198.678C322.93 199.058 322.077 198.479 321.923 198.19C321.785 197.934 322.778 197.534 323.837 197.08L324.237 196.908C325.429 196.383 326.1 195.314 327.031 194.324C327.911 193.392 328.739 190.38 328.739 190.38L331.644 189.759C331.644 189.759 330.828 192.464 330.545 193.619C330.378 194.297 330.625 195.058 330.842 195.637C330.977 195.951 331.069 196.282 331.113 196.621Z" fill="#FFB27D"/>
<path d="M328.306 197.908C326.746 197.985 327.219 198.303 325.079 198.684C322.938 199.064 322.085 198.485 321.931 198.196C321.793 197.94 322.786 197.54 323.845 197.087L323.862 197.105C324.918 197.41 326.037 197.424 327.1 197.144C328.514 196.761 329.881 195.915 330.854 195.641C330.987 195.954 331.077 196.283 331.121 196.619C331.205 197.594 329.858 197.83 328.306 197.908Z" fill="#C65447"/>
<path d="M356.433 160.28C356.433 160.28 339.288 161.092 335.746 163.524C332.204 165.956 327.422 192.876 327.422 192.876C327.422 192.876 327.793 193.149 328.598 193.205C329.348 193.257 330.975 192.753 330.975 192.753C330.975 192.753 338.878 180.491 339.356 177.453C339.835 174.416 339.58 171.743 340.92 171.619C342.259 171.494 359.08 172.949 361.431 168.392C363.783 163.834 356.433 160.28 356.433 160.28Z" fill="#1C468A"/>
<path d="M350.562 137.443C350.229 136.858 349.832 135.808 349.545 133.91C349.582 134.098 350.071 136.484 351.097 137.791C355.067 140.035 362.917 147.891 362.878 149.48C362.878 149.48 365.157 144.952 365.206 144.923C365.206 144.923 369.543 138.582 363.698 135.504C360.727 133.941 360.593 131.687 360.579 129.724C360.565 127.76 359.109 119.402 353.539 121.986C353.539 121.986 352.593 121.639 352.187 121.727C352.375 121.751 352.555 121.822 352.708 121.935C352.044 121.935 351.099 122.052 350.338 122.556C348.306 123.88 347.142 134.689 350.562 137.443Z" fill="#B5453C"/>
<path d="M357.154 135.945C356.091 135.857 355.022 135.857 353.959 135.945C353.008 136.046 352.075 136.28 351.189 136.64C349.677 137.271 349.835 139.947 353.006 139.451C356.177 138.956 357.376 136.738 357.154 135.945Z" fill="#FFB27D"/>
<path d="M351.324 137.896C351.306 137.906 350.873 140.197 352.948 140.105C354.311 140.046 357.25 138.398 356.983 137.229C356.861 136.675 355.83 135.236 355.622 131.951L355.375 132.018L351.203 133.137C351.203 133.137 351.388 134.461 351.475 135.714C351.555 136.765 351.559 137.767 351.324 137.896Z" fill="#FFB27D"/>
<path d="M351.211 133.137C351.211 133.137 351.396 134.461 351.483 135.714C353.843 135.49 354.95 133.249 355.383 132.018L351.211 133.137Z" fill="#F4A269"/>
<path d="M355.785 131.528C355.785 131.528 356.894 129.485 357.079 127.792C357.213 126.581 356.303 122.188 351.896 123.124C351.008 123.309 350.172 123.69 349.45 124.24C348.527 124.957 347.224 126.461 349.044 130.225L349.536 131.504L355.785 131.528Z" fill="#B5453C"/>
<path d="M350.499 134.379C350.499 134.379 356.102 134.098 355.874 130.612C355.646 127.126 356.214 124.742 352.627 124.773C349.04 124.804 348.436 126.18 348.227 127.363C348.017 128.546 349.034 134.359 350.499 134.379Z" fill="#FFB27D"/>
<path d="M350.07 124.852C350.07 124.852 351.875 128.841 354.261 129.289C356.647 129.738 357.632 129.038 357.632 129.038C356.404 128.096 355.541 126.757 355.191 125.249C355.191 125.249 351.096 122.829 350.07 124.852Z" fill="#B5453C"/>
<path d="M350.474 125.159C350.474 125.159 349.388 126.149 349.17 127.056C348.953 127.962 348.947 129.797 348.41 129.771C348.41 129.771 347.07 127.068 348.255 125.409C349.527 123.649 350.474 125.159 350.474 125.159Z" fill="#B5453C"/>
<path d="M344.893 159.369C345.346 159.911 346.756 160.077 348.275 160.327C349.466 160.522 350.717 160.769 351.606 161.292C353.624 162.478 360.226 166.486 362.161 166.304C362.911 166.233 362.771 164.802 362.316 162.902C361.602 159.903 360.106 155.737 360.106 153.925C360.106 152.937 359.777 150.598 359.338 147.923C359.302 147.707 359.265 147.49 359.229 147.27C358.36 142.07 357.157 135.939 357.157 135.939C357.157 135.939 355.814 138.866 353.199 138.866C350.583 138.866 351.192 136.634 351.192 136.634C351.192 136.634 348.806 136.915 348.243 137.522C347.679 138.129 346.248 140.754 345.964 141.469C345.964 141.469 345.907 142.38 348.162 142.814C348.162 142.814 347.613 145.286 347.541 146.935C347.493 148.151 348.373 151.962 348.628 154.332C348.718 155.172 348.73 155.832 348.594 156.13C348.42 156.513 347.855 156.893 347.212 157.267C345.939 158.017 344.355 158.731 344.893 159.369Z" fill="#1C468A"/>
<path d="M347.211 157.273C345.764 159.741 351.136 160.483 352.022 160.999C354.04 162.185 360.219 166.484 362.153 166.302C362.903 166.231 362.763 164.8 362.309 162.9C361.595 159.901 360.098 155.735 360.098 153.924C360.098 152.935 359.769 150.596 359.33 147.922L357.002 145.687C357.002 145.687 354.506 152.134 352.128 153.19C350.997 153.677 349.824 154.059 348.623 154.331C348.713 155.17 348.726 155.83 348.589 156.128C348.418 156.519 347.86 156.899 347.211 157.273Z" fill="#163560"/>
<path d="M357.87 137.874C357.87 137.874 359.86 136.665 361.784 138.961C363.709 141.257 360.417 157.648 357.564 158.489C354.398 159.42 345.246 158.334 345.246 158.334L345.423 156.903C345.423 156.903 355.164 155.04 355.57 154.515C355.975 153.991 356.864 138.14 357.87 137.874Z" fill="#FFB27D"/>
<path d="M357.153 135.945C357.153 135.945 361.24 136.313 362.43 137.652C363.621 138.992 363.965 142.641 363.965 142.641C363.965 142.641 360.364 145.548 356.027 144.42L357.153 135.945Z" fill="#1C468A"/>
<path d="M338.889 159.743H344.289V159.105H338.889V159.743Z" fill="#9E332E"/>
<path d="M340.035 159.654C339.982 159.443 335.068 151.738 335.068 151.738H324.141L329.621 159.454L340.035 159.654Z" fill="#9E332E"/>
<path d="M339.576 159.741C339.523 159.53 334.597 151.732 334.597 151.732H324.145L329.36 159.741H339.576Z" fill="#B5453C"/>
<path d="M330.365 155.763C330.423 155.921 330.527 156.058 330.661 156.158C330.796 156.258 330.957 156.317 331.125 156.328C331.436 156.328 331.603 156.075 331.496 155.763C331.437 155.605 331.334 155.468 331.2 155.368C331.065 155.267 330.903 155.208 330.736 155.197C330.424 155.197 330.257 155.45 330.365 155.763Z" fill="#9E332E"/>
<path d="M346.218 156.823C346.218 156.823 343.045 156.202 342.686 156.358C342.328 156.513 340.333 158.301 340.538 158.66C340.743 159.018 341.561 159.28 342.481 158.97C343.402 158.66 345.398 158.504 345.757 158.05C346.115 157.595 346.218 156.823 346.218 156.823Z" fill="#FFB27D"/>
<path d="M278.587 67.9213H178.778L171.129 42.8724H270.938L278.587 67.9213Z" fill="#FAFDFF"/>
<path d="M267.139 51.338L268.055 54.3336C268.457 55.653 267.709 56.7302 266.39 56.7302H183.7C182.382 56.7302 180.972 55.653 180.57 54.3336L179.656 51.338C179.253 50.0202 180.002 48.9414 181.32 48.9414H264.012C265.33 48.9461 266.737 50.0248 267.139 51.338Z" fill="#FFE7DC"/>
<path d="M250.579 51.9682H249.311L249.191 51.5786H250.966L251.068 51.9139L250.602 54.1024H250.106L250.579 51.9682Z" fill="#FF6C37"/>
<path d="M251.662 52.8405C251.443 52.1203 251.704 51.5352 252.366 51.5352C253.029 51.5352 253.639 52.1126 253.861 52.8405C254.083 53.5685 253.819 54.1459 253.157 54.1459C252.494 54.1459 251.885 53.5685 251.662 52.8405ZM253.403 52.8405C253.248 52.3438 252.871 51.9356 252.481 51.9356C252.092 51.9356 251.964 52.333 252.12 52.8405C252.275 53.3481 252.649 53.7454 253.042 53.7454C253.434 53.7454 253.557 53.345 253.403 52.8405Z" fill="#FF6C37"/>
<path d="M254.046 52.1948C253.938 51.8456 254.089 51.5507 254.446 51.5507C254.628 51.5642 254.801 51.6333 254.942 51.7485C255.083 51.8637 255.185 52.0195 255.235 52.1948C255.342 52.5456 255.19 52.8405 254.833 52.8405C254.651 52.827 254.478 52.7577 254.337 52.6422C254.196 52.5266 254.094 52.3704 254.046 52.1948ZM255.958 51.5739H256.315L255.239 54.0978H254.887L255.958 51.5739ZM254.913 52.1948C254.892 52.1019 254.844 52.0174 254.774 51.9521C254.705 51.8868 254.618 51.8438 254.524 51.8285C254.354 51.8285 254.305 51.993 254.368 52.1948C254.389 52.288 254.437 52.3729 254.507 52.4385C254.576 52.504 254.664 52.5473 254.758 52.5627C254.926 52.5627 254.975 52.3966 254.913 52.1948ZM255.964 53.4862C255.857 53.137 256.008 52.8405 256.365 52.8405C256.546 52.8537 256.72 52.9228 256.861 53.0384C257.002 53.154 257.104 53.3104 257.153 53.4862C257.26 53.8355 257.108 54.1304 256.753 54.1304C256.571 54.1171 256.398 54.0481 256.257 53.9328C256.115 53.8176 256.013 53.6616 255.964 53.4862ZM256.832 53.4862C256.811 53.393 256.763 53.3081 256.693 53.2426C256.624 53.177 256.536 53.1337 256.442 53.1183C256.273 53.1183 256.223 53.2844 256.287 53.4862C256.308 53.5796 256.356 53.6645 256.426 53.73C256.496 53.7956 256.584 53.8388 256.678 53.8541C256.844 53.8541 256.894 53.688 256.832 53.4862Z" fill="#FF6C37"/>
<path d="M237.235 48.946L239.613 56.7348H183.7C182.601 56.7348 181.441 55.9867 180.853 54.9762C180.734 54.7753 180.639 54.5612 180.57 54.3383L179.656 51.3426C179.253 50.0248 180.002 48.946 181.32 48.946H237.235Z" fill="#FF6C37"/>
<path d="M191.215 48.946L188.859 56.7348H183.698C182.599 56.7348 181.44 55.9867 180.852 54.9762L182.675 48.946H191.215Z" fill="#FF8254"/>
<path d="M205.848 48.946L203.492 56.7364H194.953L197.309 48.946H205.848Z" fill="#FF8254"/>
<path d="M220.484 48.946L218.128 56.7364H209.586L211.942 48.946H220.484Z" fill="#FF8254"/>
<path d="M235.12 48.946L232.763 56.7364H224.223L226.579 48.946H235.12Z" fill="#FF8254"/>
<path d="M198.866 61.3494H183.932L183.617 60.3203H198.552L198.866 61.3494Z" fill="#FF6C37"/>
<path d="M195.662 64.2303H184.81L184.496 63.2012H195.347L195.662 64.2303Z" fill="#FF6C37"/>
<path d="M202.816 64.2303H196.331L196.016 63.2012H202.502L202.816 64.2303Z" fill="#FF6C37"/>
<path d="M213.845 64.2303H203.936L203.621 63.2012H213.53L213.845 64.2303Z" fill="#FF6C37"/>
<path d="M204.508 61.3494H199.987L199.672 60.3203H204.193L204.508 61.3494Z" fill="#FF6C37"/>
<path d="M222.499 61.3494H206.057L205.742 60.3203H222.184L222.499 61.3494Z" fill="#FF6C37"/>
<path d="M143.867 105.729H73.6531L62.7383 69.9888H132.954L143.867 105.729Z" fill="#FAFDFF"/>
<path d="M133.957 87.8589H72.6496L68.0117 72.6694H129.319L133.957 87.8589Z" fill="#407BFF"/>
<path d="M82.7277 75.7566H72.3421L72.0938 74.9464H82.4793L82.7277 75.7566Z" fill="#CAE0FF"/>
<path d="M93.8377 75.7566H85.1999L84.9531 74.9464H93.5909L93.8377 75.7566Z" fill="#CAE0FF"/>
<path d="M113.938 75.7566H96.0866L95.8398 74.9464H113.691L113.938 75.7566Z" fill="#CAE0FF"/>
<path d="M83.6144 78.6592H73.2288L72.9805 77.849H83.366L83.6144 78.6592Z" fill="#CAE0FF"/>
<path d="M94.7245 78.6592H86.0882L85.8398 77.849H94.4777L94.7245 78.6592Z" fill="#CAE0FF"/>
<path d="M104.924 78.6592H96.2874L96.0391 77.849H104.677L104.924 78.6592Z" fill="#CAE0FF"/>
<path d="M125.393 78.9976H107.541L107.293 78.1874H125.146L125.393 78.9976Z" fill="#CAE0FF"/>
<path d="M84.7378 82.341H74.3523L74.1055 81.5308H84.491L84.7378 82.341Z" fill="#CAE0FF"/>
<path d="M95.8455 82.341H87.2093L86.9609 81.5308H95.5987L95.8455 82.341Z" fill="#CAE0FF"/>
<path d="M115.951 82.341H98.0984L97.8516 81.5308H115.703L115.951 82.341Z" fill="#CAE0FF"/>
<path d="M85.6245 85.2436H75.239L74.9922 84.4333H85.3777L85.6245 85.2436Z" fill="#CAE0FF"/>
<path d="M96.7362 85.2436H88.0984L87.8516 84.4333H96.4878L96.7362 85.2436Z" fill="#CAE0FF"/>
<path d="M106.934 85.2436H98.2976L98.0508 84.4333H106.687L106.934 85.2436Z" fill="#CAE0FF"/>
<path d="M127.405 85.582H109.551L109.305 84.7717H127.156L127.405 85.582Z" fill="#CAE0FF"/>
<path d="M113.757 100.441C111.376 100.441 108.849 98.5053 108.123 96.1258C107.396 93.7463 108.744 91.8092 111.12 91.8092C113.496 91.8092 116.028 93.7463 116.754 96.1258C117.481 98.5053 116.137 100.441 113.757 100.441ZM111.362 92.5977C109.416 92.5977 108.317 94.1809 108.911 96.1258C109.506 98.0707 111.57 99.6539 113.516 99.6539C115.463 99.6539 116.56 98.0707 115.966 96.1258C115.371 94.1809 113.307 92.5977 111.362 92.5977Z" fill="#A8D29F"/>
<path d="M113.019 98.3206C112.841 98.3032 112.672 98.2335 112.533 98.1204L110.086 96.1802C109.755 95.9178 109.637 95.5034 109.822 95.2489C110.006 94.9943 110.425 95.0067 110.753 95.269L112.482 96.6396L113.331 94.6125C113.455 94.3191 113.845 94.2539 114.205 94.4572C114.565 94.6606 114.754 95.0781 114.63 95.3746L113.524 98.0583C113.489 98.1369 113.432 98.2039 113.36 98.2514C113.288 98.299 113.205 98.3251 113.118 98.3268C113.085 98.3282 113.052 98.3261 113.019 98.3206Z" fill="#A8D29F"/>
<path d="M101.409 100.441C99.0299 100.441 96.5014 98.5053 95.775 96.1258C95.0486 93.7463 96.3959 91.8092 98.7738 91.8092C101.152 91.8092 103.68 93.7463 104.407 96.1258C105.133 98.5053 103.789 100.441 101.409 100.441ZM99.0144 92.5977C97.0695 92.5977 95.969 94.1809 96.5635 96.1258C97.158 98.0707 99.2239 99.6539 101.169 99.6539C103.114 99.6539 104.213 98.0707 103.618 96.1258C103.024 94.1809 100.959 92.5977 99.0144 92.5977Z" fill="#A8D29F"/>
<path d="M100.676 98.3205C100.498 98.3032 100.328 98.2335 100.189 98.1203L97.7413 96.1801C97.4107 95.9178 97.2927 95.5034 97.479 95.2488C97.6652 94.9942 98.0828 95.0067 98.4103 95.269L100.136 96.6426L100.987 94.6155C101.109 94.3222 101.501 94.257 101.859 94.4603C102.218 94.6636 102.409 95.0812 102.286 95.3776L101.175 98.0582C101.14 98.1369 101.083 98.204 101.011 98.2516C100.94 98.2992 100.856 98.3253 100.77 98.3267C100.738 98.3278 100.707 98.3257 100.676 98.3205Z" fill="#A8D29F"/>
<path d="M88.6187 100.441C86.2393 100.441 83.7123 98.5053 82.9859 96.1258C82.2595 93.7463 83.6068 91.8092 85.9832 91.8092C88.3595 91.8092 90.8896 93.7463 91.616 96.1258C92.3424 98.5053 90.9982 100.441 88.6187 100.441ZM86.2238 92.5977C84.2789 92.5977 83.18 94.1809 83.7729 96.1258C84.3658 98.0707 86.4333 99.6539 88.3782 99.6539C90.323 99.6539 91.422 98.0707 90.829 96.1258C90.2361 94.1809 88.1686 92.5977 86.2238 92.5977Z" fill="#A8D29F"/>
<path d="M87.8835 98.3206C87.7049 98.3032 87.5353 98.2336 87.3961 98.1204L84.9483 96.1802C84.6177 95.9178 84.4998 95.5034 84.686 95.2489C84.8723 94.9943 85.2898 95.0067 85.6173 95.269L87.3464 96.6396L88.197 94.6125C88.3196 94.3191 88.7108 94.2539 89.0693 94.4572C89.4279 94.6606 89.6188 95.0781 89.4962 95.3746L88.3817 98.0583C88.3468 98.137 88.2901 98.2041 88.2184 98.2517C88.1466 98.2992 88.0627 98.3253 87.9766 98.3268C87.9454 98.3279 87.9142 98.3258 87.8835 98.3206Z" fill="#A8D29F"/>
<path d="M125.67 100.441C123.29 100.441 120.763 98.5053 120.037 96.1258C119.31 93.7463 120.658 91.8092 123.034 91.8092C125.41 91.8092 127.94 93.7463 128.668 96.1258C129.396 98.5053 128.049 100.441 125.67 100.441ZM123.275 92.5977C121.33 92.5977 120.231 94.1809 120.824 96.1258C121.417 98.0707 123.484 99.6539 125.429 99.6539C127.374 99.6539 128.473 98.0707 127.88 96.1258C127.287 94.1809 125.219 92.5977 123.275 92.5977Z" fill="#FF6C37"/>
<path d="M124.568 96.832C124.39 96.821 124.219 96.7571 124.077 96.6484C123.935 96.5398 123.829 96.3913 123.772 96.222L123.211 94.3873C123.109 94.0521 123.3 93.7773 123.635 93.7773C123.813 93.7884 123.984 93.8523 124.126 93.9609C124.268 94.0696 124.374 94.218 124.431 94.3873L124.992 96.222C125.094 96.5573 124.903 96.832 124.568 96.832Z" fill="#FF6C37"/>
<path d="M125.075 98.2709H124.943C124.783 98.2611 124.631 98.204 124.504 98.1069C124.377 98.0099 124.283 97.8773 124.232 97.7261C124.205 97.6653 124.195 97.5987 124.201 97.5326C124.207 97.4665 124.231 97.4032 124.268 97.3486C124.306 97.2941 124.357 97.25 124.417 97.2208C124.477 97.1915 124.543 97.1779 124.609 97.1813H124.741C124.9 97.1912 125.053 97.2483 125.179 97.3453C125.306 97.4424 125.401 97.5749 125.452 97.7261C125.478 97.787 125.489 97.8536 125.482 97.9196C125.476 97.9857 125.453 98.049 125.415 98.1036C125.377 98.1582 125.326 98.2022 125.266 98.2315C125.207 98.2608 125.141 98.2743 125.075 98.2709Z" fill="#FF6C37"/>
<path d="M293.461 98.6108C293.461 98.6108 302.342 107.818 302.762 111.284C303.181 114.75 298.507 120.16 298.507 120.16L293.461 98.6108Z" fill="#ED7D2B"/>
<path d="M289.448 194.038C289.448 194.038 289.138 198.923 288.189 198.99C288.064 198.999 283.396 198.99 283.396 198.99L277.438 198.941C277.438 198.941 277.479 197.506 279.222 197.206C280.966 196.906 283.879 195.688 284.942 193.389C286.058 190.969 289.448 194.038 289.448 194.038Z" fill="#163560"/>
<path d="M302.722 194.066C302.722 194.066 302.411 198.951 301.463 199.019C301.337 199.028 296.67 199.019 296.67 199.019L290.711 198.972C290.711 198.972 290.753 197.537 292.496 197.237C294.239 196.938 297.152 195.719 298.216 193.419C299.332 190.999 302.722 194.066 302.722 194.066Z" fill="#163560"/>
<path d="M282.965 141.519C282.965 141.519 284.502 151.49 290.277 169.194C296.053 186.898 296.827 194.563 296.827 194.563L303.064 194.408C303.064 194.408 303.159 175.072 300.5 166.169C297.841 157.266 299.991 134.095 299.991 134.095L282.965 141.519Z" fill="#163560"/>
<path d="M279.945 134.596C279.945 134.596 279.69 149.615 282.249 168.061C284.809 186.507 283.91 194.333 283.91 194.333L290.133 194.555C290.133 194.555 293.892 176.115 292.846 166.883C291.8 157.651 298.009 135.219 298.009 135.219L279.945 134.596Z" fill="#1C468A"/>
<path d="M292.069 99.4769L288.749 101.65L283.957 100.747C284.025 100.359 284.345 98.7567 284.635 97.3054C284.654 97.2185 284.671 97.1331 284.688 97.0493C284.936 95.8076 285.154 94.7536 285.154 94.7536L289.633 92.7808L291.303 92.0482C291.303 92.0746 291.17 93.4188 291.148 93.6159C290.832 97.1036 292.069 99.4769 292.069 99.4769Z" fill="#FFB27D"/>
<path d="M285.191 98.3686C285.284 98.3298 290.967 96.6612 291.583 96.8723C292.199 97.0834 292.562 98.2693 292.562 98.2693L283.27 100.349C283.27 100.349 284.004 98.8607 285.191 98.3686Z" fill="#ED7D2B"/>
<path d="M300.397 136.495C299.424 140.884 283.406 141.37 279.288 137.375C278.822 136.92 278.8 134.806 278.977 131.958C279.336 126.39 280.466 118.018 280.519 113.738C280.567 111.689 280.8 109.648 281.216 107.641C281.711 105.161 282.395 102.722 283.263 100.346C283.263 100.346 291.092 97.8332 292.556 98.2662C299.607 100.354 301.369 132.107 300.397 136.495Z" fill="#F99746"/>
<path d="M278.984 131.958C279.343 126.39 280.473 118.018 280.526 113.738C280.574 111.689 280.807 109.648 281.223 107.641L285.93 106.82C285.93 106.82 290.491 125.625 278.984 131.958Z" fill="#ED7D2B"/>
<path d="M281.55 124.201C281.637 124.425 281.649 124.671 281.585 124.902C281.521 125.133 281.383 125.337 281.193 125.483C280.519 125.996 280.08 126.829 280.234 127.439C280.387 128.049 281.862 129.047 282.374 128.887C282.886 128.727 283.926 127.928 283.819 127.607C283.712 127.286 284.527 124.787 283.281 123.821C282.034 122.856 281.55 124.201 281.55 124.201Z" fill="#FFB27D"/>
<path d="M286.86 99.2271C286.86 99.2271 282.269 100.076 278.6 105.457C274.93 110.839 272.517 114.84 273.186 116.788C273.855 118.736 279.981 125.48 281.04 125.48C282.098 125.48 283.809 124.715 283.908 122.985C283.908 122.985 279.599 116.495 280.453 115.534C280.818 115.12 286.076 110.878 286.817 112.796C288.058 115.978 286.86 99.2271 286.86 99.2271Z" fill="#F99746"/>
<path d="M290.817 93.6781C289.832 95.3404 286.161 96.7731 284.637 97.2993C284.655 97.2124 284.672 97.127 284.69 97.0432C284.938 95.8014 285.155 94.7475 285.155 94.7475L289.635 92.7809C290.623 92.7716 291.226 92.9936 290.817 93.6781Z" fill="#FCA56B"/>
<path d="M283.468 94.4712C283.468 94.4712 290.673 96.7358 292.016 92.2283C293.358 87.7208 295.19 84.975 290.647 83.3375C286.104 81.6999 284.69 83.1574 283.879 84.5544C283.069 85.9513 281.629 93.7665 283.468 94.4712Z" fill="#FFB27D"/>
<path d="M284.162 84.1167C284.162 84.1167 284.611 89.3677 285.697 89.1426C286.784 88.9176 287.768 88.7499 287.605 90.3316C287.442 91.9133 285.93 93.7386 289.279 94.0227C292.629 94.3067 297.453 85.6906 296.537 84.0546C293.896 79.3392 280.342 78.3582 284.162 84.1167Z" fill="#163560"/>
<g opacity="0.5">
<path d="M134.402 45.2612V43.9822H135.72V45.2612H134.402Z" fill="#AFCDFB"/>
<path d="M134.402 42.6738V41.3948H135.72V42.6738H134.402Z" fill="#AFCDFB"/>
<path d="M134.402 40.0863V38.8073H135.72V40.0863H134.402Z" fill="#AFCDFB"/>
<path d="M134.402 37.4988V36.2198H135.72V37.4988H134.402Z" fill="#AFCDFB"/>
<path d="M134.402 34.9129V33.6324H135.72V34.9129H134.402Z" fill="#AFCDFB"/>
<path d="M134.402 32.3254V31.0464H135.72V32.3254H134.402Z" fill="#AFCDFB"/>
<path d="M134.402 29.738V28.459H135.72V29.738H134.402Z" fill="#AFCDFB"/>
<path d="M134.402 27.1505V25.8715H135.72V27.1505H134.402Z" fill="#AFCDFB"/>
<path d="M134.402 24.563V23.2841H135.72V24.563H134.402Z" fill="#AFCDFB"/>
<path d="M134.402 21.9771V20.6966H135.72V21.9771H134.402Z" fill="#AFCDFB"/>
<path d="M134.402 19.3897V18.1091H135.72V19.3897H134.402Z" fill="#AFCDFB"/>
<path d="M134.402 16.8022V15.5233H135.72V16.8022H134.402Z" fill="#AFCDFB"/>
<path d="M134.402 14.2148V12.9358H135.72V14.2148H134.402Z" fill="#AFCDFB"/>
<path d="M134.402 11.6273V10.3483H135.72V11.6273H134.402Z" fill="#AFCDFB"/>
<path d="M134.402 9.03985V7.76086H135.72V9.03985H134.402Z" fill="#AFCDFB"/>
<path d="M134.402 6.45394V5.1734H135.72V6.45394H134.402Z" fill="#AFCDFB"/>
<path d="M134.402 3.86645V2.58746H135.72V3.86645H134.402Z" fill="#AFCDFB"/>
<path d="M134.402 1.27899V0H135.72V1.27899H134.402Z" fill="#AFCDFB"/>
</g>
<g opacity="0.5">
<path d="M130.371 29.738V28.459H131.689V29.738H130.371Z" fill="#AFCDFB"/>
<path d="M130.371 27.1505V25.8715H131.689V27.1505H130.371Z" fill="#AFCDFB"/>
<path d="M130.371 24.563V23.2841H131.689V24.563H130.371Z" fill="#AFCDFB"/>
<path d="M130.371 21.9771V20.6966H131.689V21.9771H130.371Z" fill="#AFCDFB"/>
<path d="M130.371 19.3897V18.1091H131.689V19.3897H130.371Z" fill="#AFCDFB"/>
<path d="M130.371 16.8022V15.5233H131.689V16.8022H130.371Z" fill="#AFCDFB"/>
<path d="M130.371 14.2148V12.9358H131.689V14.2148H130.371Z" fill="#AFCDFB"/>
<path d="M130.371 11.6273V10.3483H131.689V11.6273H130.371Z" fill="#AFCDFB"/>
<path d="M130.371 9.03985V7.76086H131.689V9.03985H130.371Z" fill="#AFCDFB"/>
<path d="M130.371 6.45394V5.1734H131.689V6.45394H130.371Z" fill="#AFCDFB"/>
<path d="M130.371 3.86645V2.58746H131.689V3.86645H130.371Z" fill="#AFCDFB"/>
<path d="M130.371 1.27899V0H131.689V1.27899H130.371Z" fill="#AFCDFB"/>
</g>
<g opacity="0.5">
<path d="M126.27 45.2612V43.9822H127.587V45.2612H126.27Z" fill="#AFCDFB"/>
<path d="M126.27 42.6738V41.3948H127.587V42.6738H126.27Z" fill="#AFCDFB"/>
<path d="M126.27 40.0863V38.8073H127.587V40.0863H126.27Z" fill="#AFCDFB"/>
<path d="M126.27 37.4988V36.2198H127.587V37.4988H126.27Z" fill="#AFCDFB"/>
<path d="M126.27 34.9129V33.6324H127.587V34.9129H126.27Z" fill="#AFCDFB"/>
<path d="M126.27 32.3254V31.0464H127.587V32.3254H126.27Z" fill="#AFCDFB"/>
<path d="M126.27 29.738V28.459H127.587V29.738H126.27Z" fill="#AFCDFB"/>
<path d="M126.27 27.1505V25.8715H127.587V27.1505H126.27Z" fill="#AFCDFB"/>
<path d="M126.27 24.563V23.2841H127.587V24.563H126.27Z" fill="#AFCDFB"/>
<path d="M126.27 21.9771V20.6966H127.587V21.9771H126.27Z" fill="#AFCDFB"/>
<path d="M126.27 19.3897V18.1091H127.587V19.3897H126.27Z" fill="#AFCDFB"/>
<path d="M126.27 16.8022V15.5233H127.587V16.8022H126.27Z" fill="#AFCDFB"/>
<path d="M126.27 14.2148V12.9358H127.587V14.2148H126.27Z" fill="#AFCDFB"/>
<path d="M126.27 11.6273V10.3483H127.587V11.6273H126.27Z" fill="#AFCDFB"/>
<path d="M126.27 9.03985V7.76086H127.587V9.03985H126.27Z" fill="#AFCDFB"/>
<path d="M126.27 6.45394V5.1734H127.587V6.45394H126.27Z" fill="#AFCDFB"/>
<path d="M126.27 3.86645V2.58746H127.587V3.86645H126.27Z" fill="#AFCDFB"/>
<path d="M126.27 1.27899V0H127.587V1.27899H126.27Z" fill="#AFCDFB"/>
</g>
<g opacity="0.5">
<path d="M122.812 50.4346V49.1556H124.13V50.4346H122.812Z" fill="#AFCDFB"/>
<path d="M122.812 47.8487V46.5681H124.13V47.8487H122.812Z" fill="#AFCDFB"/>
<path d="M122.812 45.2612V43.9822H124.13V45.2612H122.812Z" fill="#AFCDFB"/>
<path d="M122.812 42.6738V41.3948H124.13V42.6738H122.812Z" fill="#AFCDFB"/>
<path d="M122.812 40.0863V38.8073H124.13V40.0863H122.812Z" fill="#AFCDFB"/>
<path d="M122.812 37.4988V36.2198H124.13V37.4988H122.812Z" fill="#AFCDFB"/>
<path d="M122.812 34.9129V33.6324H124.13V34.9129H122.812Z" fill="#AFCDFB"/>
<path d="M122.812 32.3254V31.0464H124.13V32.3254H122.812Z" fill="#AFCDFB"/>
<path d="M122.812 29.738V28.459H124.13V29.738H122.812Z" fill="#AFCDFB"/>
<path d="M122.812 27.1505V25.8715H124.13V27.1505H122.812Z" fill="#AFCDFB"/>
<path d="M122.812 24.563V23.2841H124.13V24.563H122.812Z" fill="#AFCDFB"/>
<path d="M122.812 21.9771V20.6966H124.13V21.9771H122.812Z" fill="#AFCDFB"/>
<path d="M122.812 19.3897V18.1091H124.13V19.3897H122.812Z" fill="#AFCDFB"/>
<path d="M122.812 16.8022V15.5233H124.13V16.8022H122.812Z" fill="#AFCDFB"/>
<path d="M122.812 14.2148V12.9358H124.13V14.2148H122.812Z" fill="#AFCDFB"/>
<path d="M122.812 11.6273V10.3483H124.13V11.6273H122.812Z" fill="#AFCDFB"/>
<path d="M122.812 9.03985V7.76086H124.13V9.03985H122.812Z" fill="#AFCDFB"/>
<path d="M122.812 6.45394V5.1734H124.13V6.45394H122.812Z" fill="#AFCDFB"/>
<path d="M122.812 3.86645V2.58746H124.13V3.86645H122.812Z" fill="#AFCDFB"/>
<path d="M122.812 1.27899V0H124.13V1.27899H122.812Z" fill="#AFCDFB"/>
</g>
<g opacity="0.5">
<path d="M118.25 27.1505V25.8715H119.568V27.1505H118.25Z" fill="#AFCDFB"/>
<path d="M118.25 24.563V23.2841H119.568V24.563H118.25Z" fill="#AFCDFB"/>
<path d="M118.25 21.9771V20.6966H119.568V21.9771H118.25Z" fill="#AFCDFB"/>
<path d="M118.25 19.3897V18.1091H119.568V19.3897H118.25Z" fill="#AFCDFB"/>
<path d="M118.25 16.8022V15.5233H119.568V16.8022H118.25Z" fill="#AFCDFB"/>
<path d="M118.25 14.2148V12.9358H119.568V14.2148H118.25Z" fill="#AFCDFB"/>
<path d="M118.25 11.6273V10.3483H119.568V11.6273H118.25Z" fill="#AFCDFB"/>
<path d="M118.25 9.03985V7.76086H119.568V9.03985H118.25Z" fill="#AFCDFB"/>
<path d="M118.25 6.45394V5.1734H119.568V6.45394H118.25Z" fill="#AFCDFB"/>
<path d="M118.25 3.86645V2.58746H119.568V3.86645H118.25Z" fill="#AFCDFB"/>
<path d="M118.25 1.27899V0H119.568V1.27899H118.25Z" fill="#AFCDFB"/>
</g>
<g opacity="0.5">
<path d="M317.126 93.1766V94.4572H315.809V93.1766H317.126Z" fill="#AFCDFB"/>
<path d="M317.126 95.764V97.043H315.809V95.764H317.126Z" fill="#AFCDFB"/>
<path d="M317.126 98.3516V99.6305H315.809V98.3516H317.126Z" fill="#AFCDFB"/>
<path d="M317.126 100.939V102.218H315.809V100.939H317.126Z" fill="#AFCDFB"/>
<path d="M317.126 103.526V104.805H315.809V103.526H317.126Z" fill="#AFCDFB"/>
<path d="M317.126 106.112V107.393H315.809V106.112H317.126Z" fill="#AFCDFB"/>
<path d="M317.126 108.7V109.979H315.809V108.7H317.126Z" fill="#AFCDFB"/>
<path d="M317.126 111.287V112.566H315.809V111.287H317.126Z" fill="#AFCDFB"/>
<path d="M317.126 113.875V115.154H315.809V113.875H317.126Z" fill="#AFCDFB"/>
<path d="M317.126 116.462V117.741H315.809V116.462H317.126Z" fill="#AFCDFB"/>
<path d="M317.126 119.05V120.329H315.809V119.05H317.126Z" fill="#AFCDFB"/>
<path d="M317.126 121.636V122.916H315.809V121.636H317.126Z" fill="#AFCDFB"/>
<path d="M317.126 124.223V125.502H315.809V124.223H317.126Z" fill="#AFCDFB"/>
<path d="M317.126 126.811V128.09H315.809V126.811H317.126Z" fill="#AFCDFB"/>
<path d="M317.126 129.398V130.677H315.809V129.398H317.126Z" fill="#AFCDFB"/>
<path d="M317.126 131.985V133.264H315.809V131.985H317.126Z" fill="#AFCDFB"/>
<path d="M317.126 134.571V135.852H315.809V134.571H317.126Z" fill="#AFCDFB"/>
<path d="M317.126 137.159V138.438H315.809V137.159H317.126Z" fill="#AFCDFB"/>
</g>
<g opacity="0.5">
<path d="M321.15 108.7V109.979H319.832V108.7H321.15Z" fill="#AFCDFB"/>
<path d="M321.15 111.287V112.566H319.832V111.287H321.15Z" fill="#AFCDFB"/>
<path d="M321.15 113.875V115.154H319.832V113.875H321.15Z" fill="#AFCDFB"/>
<path d="M321.15 116.462V117.741H319.832V116.462H321.15Z" fill="#AFCDFB"/>
<path d="M321.15 119.05V120.329H319.832V119.05H321.15Z" fill="#AFCDFB"/>
<path d="M321.15 121.636V122.916H319.832V121.636H321.15Z" fill="#AFCDFB"/>
<path d="M321.15 124.223V125.502H319.832V124.223H321.15Z" fill="#AFCDFB"/>
<path d="M321.15 126.811V128.09H319.832V126.811H321.15Z" fill="#AFCDFB"/>
<path d="M321.15 129.398V130.677H319.832V129.398H321.15Z" fill="#AFCDFB"/>
<path d="M321.15 131.986V133.265H319.832V131.986H321.15Z" fill="#AFCDFB"/>
<path d="M321.15 134.572V135.852H319.832V134.572H321.15Z" fill="#AFCDFB"/>
<path d="M321.15 137.159V138.438H319.832V137.159H321.15Z" fill="#AFCDFB"/>
</g>
<g opacity="0.5">
<path d="M325.255 93.1766V94.4572H323.938V93.1766H325.255Z" fill="#AFCDFB"/>
<path d="M325.255 95.764V97.043H323.938V95.764H325.255Z" fill="#AFCDFB"/>
<path d="M325.255 98.3516V99.6305H323.938V98.3516H325.255Z" fill="#AFCDFB"/>
<path d="M325.255 100.939V102.218H323.938V100.939H325.255Z" fill="#AFCDFB"/>
<path d="M325.255 103.526V104.805H323.938V103.526H325.255Z" fill="#AFCDFB"/>
<path d="M325.255 106.112V107.393H323.938V106.112H325.255Z" fill="#AFCDFB"/>
<path d="M325.255 108.7V109.979H323.938V108.7H325.255Z" fill="#AFCDFB"/>
<path d="M325.255 111.287V112.566H323.938V111.287H325.255Z" fill="#AFCDFB"/>
<path d="M325.255 113.875V115.154H323.938V113.875H325.255Z" fill="#AFCDFB"/>
<path d="M325.255 116.462V117.741H323.938V116.462H325.255Z" fill="#AFCDFB"/>
<path d="M325.255 119.05V120.329H323.938V119.05H325.255Z" fill="#AFCDFB"/>
<path d="M325.255 121.636V122.916H323.938V121.636H325.255Z" fill="#AFCDFB"/>
<path d="M325.255 124.223V125.502H323.938V124.223H325.255Z" fill="#AFCDFB"/>
<path d="M325.255 126.811V128.09H323.938V126.811H325.255Z" fill="#AFCDFB"/>
<path d="M325.255 129.398V130.677H323.938V129.398H325.255Z" fill="#AFCDFB"/>
<path d="M325.255 131.985V133.264H323.938V131.985H325.255Z" fill="#AFCDFB"/>
<path d="M325.255 134.571V135.852H323.938V134.571H325.255Z" fill="#AFCDFB"/>
<path d="M325.255 137.159V138.438H323.938V137.159H325.255Z" fill="#AFCDFB"/>
</g>
<g opacity="0.5">
<path d="M328.712 88.0033V89.2823H327.395V88.0033H328.712Z" fill="#AFCDFB"/>
<path d="M328.712 90.5908V91.8698H327.395V90.5908H328.712Z" fill="#AFCDFB"/>
<path d="M328.712 93.1766V94.4572H327.395V93.1766H328.712Z" fill="#AFCDFB"/>
<path d="M328.712 95.7642V97.0432H327.395V95.7642H328.712Z" fill="#AFCDFB"/>
<path d="M328.712 98.3516V99.6305H327.395V98.3516H328.712Z" fill="#AFCDFB"/>
<path d="M328.712 100.939V102.218H327.395V100.939H328.712Z" fill="#AFCDFB"/>
<path d="M328.712 103.526V104.805H327.395V103.526H328.712Z" fill="#AFCDFB"/>
<path d="M328.712 106.112V107.393H327.395V106.112H328.712Z" fill="#AFCDFB"/>
<path d="M328.712 108.7V109.979H327.395V108.7H328.712Z" fill="#AFCDFB"/>
<path d="M328.712 111.287V112.566H327.395V111.287H328.712Z" fill="#AFCDFB"/>
<path d="M328.712 113.875V115.154H327.395V113.875H328.712Z" fill="#AFCDFB"/>
<path d="M328.712 116.462V117.741H327.395V116.462H328.712Z" fill="#AFCDFB"/>
<path d="M328.712 119.05V120.329H327.395V119.05H328.712Z" fill="#AFCDFB"/>
<path d="M328.712 121.636V122.916H327.395V121.636H328.712Z" fill="#AFCDFB"/>
<path d="M328.712 124.223V125.502H327.395V124.223H328.712Z" fill="#AFCDFB"/>
<path d="M328.712 126.811V128.09H327.395V126.811H328.712Z" fill="#AFCDFB"/>
<path d="M328.712 129.398V130.677H327.395V129.398H328.712Z" fill="#AFCDFB"/>
<path d="M328.712 131.985V133.264H327.395V131.985H328.712Z" fill="#AFCDFB"/>
<path d="M328.712 134.571V135.852H327.395V134.571H328.712Z" fill="#AFCDFB"/>
<path d="M328.712 137.159V138.438H327.395V137.159H328.712Z" fill="#AFCDFB"/>
</g>
<g opacity="0.5">
<path d="M333.271 111.287V112.566H331.953V111.287H333.271Z" fill="#AFCDFB"/>
<path d="M333.271 113.875V115.154H331.953V113.875H333.271Z" fill="#AFCDFB"/>
<path d="M333.271 116.462V117.741H331.953V116.462H333.271Z" fill="#AFCDFB"/>
<path d="M333.271 119.05V120.329H331.953V119.05H333.271Z" fill="#AFCDFB"/>
<path d="M333.271 121.636V122.916H331.953V121.636H333.271Z" fill="#AFCDFB"/>
<path d="M333.271 124.223V125.502H331.953V124.223H333.271Z" fill="#AFCDFB"/>
<path d="M333.271 126.811V128.09H331.953V126.811H333.271Z" fill="#AFCDFB"/>
<path d="M333.271 129.398V130.677H331.953V129.398H333.271Z" fill="#AFCDFB"/>
<path d="M333.271 131.985V133.264H331.953V131.985H333.271Z" fill="#AFCDFB"/>
<path d="M333.271 134.571V135.852H331.953V134.571H333.271Z" fill="#AFCDFB"/>
<path d="M333.271 137.159V138.438H331.953V137.159H333.271Z" fill="#AFCDFB"/>
</g>
</g>
<defs>
<clipPath id="clip0_1447_23411">
<rect width="395.314" height="200" fill="white"/>
</clipPath>
</defs>
</svg>
