<svg width="226" height="200" viewBox="0 0 226 200" fill="none" xmlns="http://www.w3.org/2000/svg">
<g clip-path="url(#clip0_1182_18429)">
<path d="M222.799 200H2.77979C2.04254 200 1.33549 199.707 0.814183 199.186C0.292873 198.665 4.76687e-06 197.957 4.76687e-06 197.22C-0.000672047 196.855 0.0707294 196.493 0.210123 196.155C0.349517 195.817 0.554167 195.51 0.812361 195.251C1.07055 194.993 1.37722 194.787 1.71482 194.647C2.05241 194.507 2.41431 194.435 2.77979 194.435H222.799C223.537 194.437 224.244 194.731 224.765 195.253C225.286 195.775 225.579 196.482 225.579 197.22C225.579 197.957 225.286 198.665 224.765 199.186C224.244 199.707 223.537 200 222.799 200Z" fill="#B6B9D1"/>
<path d="M162.9 123.52H26.0469V128.941H162.9V123.52Z" fill="#C46C3B"/>
<path d="M43.5133 128.472H37.4492V197.22H43.5133V128.472Z" fill="#C46C3B"/>
<path d="M152.039 128.472H145.975V197.22H152.039V128.472Z" fill="#C46C3B"/>
<path d="M43.5133 128.472H37.4492V135.344H43.5133V128.472Z" fill="#AA5327"/>
<path d="M152.039 128.472H145.975V135.344H152.039V128.472Z" fill="#AA5327"/>
<path d="M123.264 120.915H108.371L109.365 111.145H122.265L123.264 120.915Z" fill="#171923"/>
<path d="M127.371 123.309H104.324C104.324 122.567 104.619 121.856 105.143 121.331C105.667 120.806 106.378 120.51 107.119 120.509H124.565C125.308 120.509 126.02 120.804 126.545 121.329C127.07 121.854 127.366 122.566 127.366 123.309H127.371Z" fill="#2A2B3D"/>
<path d="M140.755 72.1456H90.9502C88.2465 72.1456 86.0547 74.3374 86.0547 77.0411V107.094C86.0547 109.797 88.2465 111.989 90.9502 111.989H140.755C143.458 111.989 145.65 109.797 145.65 107.094V77.0411C145.65 74.3374 143.458 72.1456 140.755 72.1456Z" fill="#2A2B3D"/>
<path d="M143.113 74.4209H88.5879V106.81H143.113V74.4209Z" fill="#FFF3EE"/>
<path d="M117.389 109.601C117.389 109.906 117.299 110.205 117.129 110.459C116.959 110.712 116.718 110.91 116.436 111.027C116.154 111.144 115.843 111.175 115.544 111.115C115.244 111.056 114.969 110.909 114.753 110.693C114.537 110.477 114.39 110.201 114.33 109.902C114.271 109.602 114.301 109.292 114.418 109.01C114.535 108.727 114.733 108.486 114.987 108.316C115.241 108.147 115.54 108.056 115.845 108.056C116.255 108.056 116.647 108.219 116.937 108.509C117.227 108.798 117.389 109.191 117.389 109.601Z" fill="#171923"/>
<path d="M140.56 76.4388H91.1465V78.9766H140.56V76.4388Z" fill="white"/>
<path d="M93.1793 77.7669C93.1743 77.8675 93.1399 77.9643 93.0803 78.0455C93.0208 78.1267 92.9387 78.1887 92.8443 78.2237C92.7499 78.2588 92.6473 78.2654 92.5492 78.2427C92.4511 78.22 92.3618 78.1691 92.2924 78.0962C92.223 78.0233 92.1764 77.9316 92.1586 77.8325C92.1407 77.7334 92.1523 77.6312 92.1919 77.5387C92.2315 77.4461 92.2974 77.3672 92.3814 77.3117C92.4654 77.2562 92.5638 77.2265 92.6645 77.2264C92.7343 77.2263 92.8035 77.2404 92.8677 77.2679C92.9318 77.2953 92.9898 77.3356 93.0379 77.3861C93.0861 77.4367 93.1235 77.4965 93.1478 77.562C93.1721 77.6274 93.1828 77.6972 93.1793 77.7669Z" fill="#D35473"/>
<path d="M95.1963 77.7669C95.1963 77.8738 95.1646 77.9783 95.1052 78.0672C95.0458 78.1561 94.9614 78.2254 94.8626 78.2663C94.7638 78.3072 94.6551 78.3179 94.5503 78.297C94.4455 78.2762 94.3491 78.2247 94.2736 78.1491C94.198 78.0735 94.1465 77.9772 94.1256 77.8724C94.1048 77.7675 94.1155 77.6588 94.1564 77.5601C94.1973 77.4613 94.2666 77.3769 94.3555 77.3175C94.4443 77.2581 94.5488 77.2264 94.6558 77.2264C94.7277 77.2227 94.7996 77.2341 94.8669 77.26C94.9341 77.2859 94.9952 77.3255 95.0462 77.3765C95.0971 77.4274 95.1368 77.4885 95.1627 77.5558C95.1885 77.623 95.2 77.6949 95.1963 77.7669Z" fill="#FFC55A"/>
<path d="M97.2158 77.7669C97.2158 77.8738 97.1841 77.9783 97.1247 78.0672C97.0653 78.1561 96.9809 78.2254 96.8821 78.2663C96.7834 78.3072 96.6747 78.3179 96.5698 78.297C96.465 78.2762 96.3687 78.2247 96.2931 78.1491C96.2175 78.0735 96.166 77.9772 96.1452 77.8724C96.1243 77.7675 96.135 77.6588 96.1759 77.5601C96.2168 77.4613 96.2861 77.3769 96.375 77.3175C96.4639 77.2581 96.5684 77.2264 96.6753 77.2264C96.7472 77.2227 96.8192 77.2341 96.8864 77.26C96.9537 77.2859 97.0147 77.3255 97.0657 77.3765C97.1166 77.4274 97.1563 77.4885 97.1822 77.5558C97.208 77.623 97.2195 77.6949 97.2158 77.7669Z" fill="#54D15F"/>
<path d="M138.201 77.1492H139.848" stroke="#61648A" stroke-width="0.5" stroke-miterlimit="10" stroke-linecap="round"/>
<path d="M138.201 77.7103H139.848" stroke="#61648A" stroke-width="0.5" stroke-miterlimit="10" stroke-linecap="round"/>
<path d="M138.201 78.2662H139.848" stroke="#61648A" stroke-width="0.5" stroke-miterlimit="10" stroke-linecap="round"/>
<path d="M124.797 81.8387H128.627" stroke="#407BFF" stroke-miterlimit="10" stroke-linecap="round"/>
<path d="M129.389 81.8387H131.185" stroke="#2D292A" stroke-miterlimit="10" stroke-linecap="round"/>
<path d="M131.85 81.8387H137.517" stroke="#407BFF" stroke-miterlimit="10" stroke-linecap="round"/>
<path d="M122.881 84.2582H128.502" stroke="#455A64" stroke-miterlimit="10" stroke-linecap="round"/>
<path d="M129.27 84.2582H132.873" stroke="#FF6C37" stroke-miterlimit="10" stroke-linecap="round"/>
<path d="M133.537 84.2582H135.946" stroke="#407BFF" stroke-miterlimit="10" stroke-linecap="round"/>
<path d="M136.699 84.2582H139.108" stroke="#FF6C37" stroke-miterlimit="10" stroke-linecap="round"/>
<path d="M123.387 86.6725H126.64" stroke="#2D292A" stroke-miterlimit="10" stroke-linecap="round"/>
<path d="M127.402 86.6725H129.956" stroke="#FF6C37" stroke-miterlimit="10" stroke-linecap="round"/>
<path d="M130.619 86.6725H135.242" stroke="#455A64" stroke-miterlimit="10" stroke-linecap="round"/>
<path d="M135.865 86.6725H137.301" stroke="#2D292A" stroke-miterlimit="10" stroke-linecap="round"/>
<path d="M121.848 91.5062H122.682" stroke="#455A64" stroke-miterlimit="10" stroke-linecap="round"/>
<path d="M123.447 91.5062H128.173" stroke="#407BFF" stroke-miterlimit="10" stroke-linecap="round"/>
<path d="M128.832 91.5062H132.235" stroke="#FF6C37" stroke-miterlimit="10" stroke-linecap="round"/>
<path d="M132.744 91.5062H137.094" stroke="#407BFF" stroke-miterlimit="10" stroke-linecap="round"/>
<path d="M131.463 96.34H137.769" stroke="#FFC55A" stroke-miterlimit="10" stroke-linecap="round"/>
<path d="M123.387 93.9257H126.64" stroke="#54D15F" stroke-miterlimit="10" stroke-linecap="round"/>
<path d="M127.402 93.9257H129.142" stroke="#D35473" stroke-miterlimit="10" stroke-linecap="round"/>
<path d="M129.801 93.9257H133.337" stroke="#2D292A" stroke-miterlimit="10" stroke-linecap="round"/>
<path d="M134.16 93.9257H137.697" stroke="#D35473" stroke-miterlimit="10" stroke-linecap="round"/>
<path d="M123.541 96.34H126.022" stroke="#FFC55A" stroke-miterlimit="10" stroke-linecap="round"/>
<path d="M126.783 96.34H127.838" stroke="#2D292A" stroke-miterlimit="10" stroke-linecap="round"/>
<path d="M128.504 96.34H130.681" stroke="#54D15F" stroke-miterlimit="10" stroke-linecap="round"/>
<path d="M127.402 100.88H129.801" stroke="#FF6C37" stroke-miterlimit="10" stroke-linecap="round"/>
<path d="M130.566 100.88H133.336" stroke="#2D292A" stroke-miterlimit="10" stroke-linecap="round"/>
<path d="M134 100.88H138.427" stroke="#FFC55A" stroke-miterlimit="10" stroke-linecap="round"/>
<path d="M125.203 103.295H127.02" stroke="#FF6C37" stroke-miterlimit="10" stroke-linecap="round"/>
<path d="M127.783 103.295H130.681" stroke="#2D292A" stroke-miterlimit="10" stroke-linecap="round"/>
<path d="M131.34 103.295H133.97" stroke="#455A64" stroke-miterlimit="10" stroke-linecap="round"/>
<path d="M134.717 103.295H138.789" stroke="#407BFF" stroke-miterlimit="10" stroke-linecap="round"/>
<path opacity="0.21" d="M122.471 81.8387H123.289" stroke="#383952" stroke-miterlimit="10" stroke-linecap="round"/>
<path opacity="0.21" d="M120.328 84.2582H121.147" stroke="#383952" stroke-miterlimit="10" stroke-linecap="round"/>
<path opacity="0.21" d="M121.316 86.6725H122.135" stroke="#383952" stroke-miterlimit="10" stroke-linecap="round"/>
<path opacity="0.21" d="M119.371 89.0919H120.19" stroke="#383952" stroke-miterlimit="10" stroke-linecap="round"/>
<path opacity="0.21" d="M119.371 91.5062H120.19" stroke="#383952" stroke-miterlimit="10" stroke-linecap="round"/>
<path opacity="0.21" d="M121.219 93.9257H122.032" stroke="#383952" stroke-miterlimit="10" stroke-linecap="round"/>
<path opacity="0.21" d="M121.439 96.34H122.258" stroke="#383952" stroke-miterlimit="10" stroke-linecap="round"/>
<path opacity="0.21" d="M119.371 98.7543H120.19" stroke="#383952" stroke-miterlimit="10" stroke-linecap="round"/>
<path opacity="0.21" d="M124.602 100.88H125.42" stroke="#383952" stroke-miterlimit="10" stroke-linecap="round"/>
<path opacity="0.21" d="M122.682 103.295H123.5" stroke="#383952" stroke-miterlimit="10" stroke-linecap="round"/>
<path opacity="0.33" d="M103.517 81.2416H91.1465V92.9322H103.517V81.2416Z" fill="#61648A"/>
<path d="M115.886 81.2416H105.061V82.3021H115.886V81.2416Z" fill="#407BFF"/>
<path d="M115.886 83.8979H105.061V84.9583H115.886V83.8979Z" fill="#407BFF"/>
<path opacity="0.33" d="M115.886 86.5593H105.061V87.6197H115.886V86.5593Z" fill="#61648A"/>
<path opacity="0.33" d="M115.886 89.2155H105.061V90.2759H115.886V89.2155Z" fill="#61648A"/>
<path opacity="0.33" d="M115.886 91.8717H105.061V92.9321H115.886V91.8717Z" fill="#61648A"/>
<path d="M103.516 94.7184H91.1816V103.3H103.516V94.7184Z" fill="#407BFF"/>
<path d="M115.886 94.7184H105.061V98.7594H115.886V94.7184Z" fill="#FF6C37"/>
<path d="M115.886 100.793H105.061V103.295H115.886V100.793Z" fill="#407BFF"/>
<path d="M113.306 187.831C112.688 193.519 111.88 196.067 113.306 196.855C114.732 197.642 122.824 196.855 124.58 196.855C126.335 196.855 126.335 193.164 123.411 191.619C120.487 190.075 119.9 184.562 119.9 184.562L113.306 187.831Z" fill="black"/>
<path d="M76.5871 187.831C75.9643 193.519 75.1561 196.067 76.5871 196.855C78.0182 197.642 86.1053 196.855 87.8555 196.855C89.6058 196.855 89.6109 193.164 86.687 191.619C83.7631 190.075 83.1814 184.562 83.1814 184.562L76.5871 187.831Z" fill="black"/>
<path d="M86.1992 165.922C86.0396 172.022 85.5969 177.762 84.8299 181.309H73.546L69.3455 156.656L68.9131 154.129C67.7639 154.13 66.6611 153.675 65.8467 152.865C65.0322 152.054 64.5724 150.954 64.5684 149.804V149.727C64.6456 144.852 65.4898 137.285 69.6852 134.377C74.3594 131.139 83.7334 137.98 84.5673 139.643C85.4013 141.305 85.9418 146.901 86.1631 153.65C86.3073 157.557 86.3073 161.804 86.1992 165.922Z" fill="#252525"/>
<path d="M86.1994 165.922C82.215 167.641 78.9617 178.277 78.102 181.309H73.5463L69.3457 156.656C69.7561 155.905 70.3296 155.256 71.0239 154.757C73.083 153.475 84.9228 153.629 86.1634 153.65C86.3075 157.557 86.3075 161.804 86.1994 165.922Z" fill="#0A0A0E"/>
<path d="M123.278 119.139C126.882 117.785 129.379 119.361 130.027 120.473C130.676 121.584 131.057 122.609 130.768 123.165C130.48 123.721 129.564 123.165 129.564 123.165C127.728 123.495 125.857 123.579 123.999 123.412C121.585 123.072 123.278 119.139 123.278 119.139Z" fill="#F4B8AB"/>
<path opacity="0.53" d="M123.885 120.184C125.836 121.214 129.244 122.717 129.228 122.969C129.213 123.221 126.17 123.916 124.235 123.376C122.299 122.835 123.885 120.184 123.885 120.184Z" fill="#DD6595"/>
<path d="M89.1077 76.2895C90.4718 81.8697 89.4783 88.4485 84.696 88.9735V90.9348C84.7029 91.633 84.4325 92.3053 83.9441 92.8043C83.4558 93.3032 82.7894 93.5881 82.0913 93.5962C81.3931 93.6031 80.7208 93.3326 80.2218 92.8443C79.7229 92.3559 79.4381 91.6896 79.4299 90.9914V89.025C79.4299 89.025 75.5845 87.4395 74.7969 85.0509C74.0093 82.6624 74.7969 84.67 74.7969 84.67L74.3594 74.8893L89.2261 74.7452L89.1077 76.2895Z" fill="#F4B8AB"/>
<path opacity="0.53" d="M84.6955 88.9736C83.1737 89.1047 81.6463 89.158 80.1191 89.1332L84.7161 90.9349L84.6955 88.9736Z" fill="#DD6595"/>
<path d="M89.3394 77.3808C93.5606 74.7143 92.7627 69.2216 89.7718 71.1675C89.7718 71.1675 85.0565 66.3183 77.7467 68.9643C70.4369 71.6102 69.5103 77.7154 71.0546 81.5453C72.599 85.3752 82.0708 87.3365 82.0708 87.3365L86.4464 82.7036L89.3394 77.3808Z" fill="#6D3744"/>
<path d="M89.7706 71.1572C90.5016 69.0312 88.669 66.3338 86.9599 66.3338C85.2509 66.3338 85.3487 69.2629 85.3487 69.2629L88.2623 73.1237L89.7706 71.1572Z" fill="#6D3744"/>
<path d="M86.6209 81.01C86.5694 81.6741 86.0649 87.666 84.6956 88.9736L78.8066 89.0508C78.8066 89.0508 72.2999 87.7278 71.2137 82.3278C71.0902 81.6946 71.0026 81.1078 70.9512 80.5621C72.8713 84.4693 80.979 85.123 85.3648 80.1967C85.3546 80.1967 85.9105 80.5416 86.6209 81.01Z" fill="#542633"/>
<path d="M88.2691 79.8414C87.044 77.6588 85.6386 78.5957 85.3658 79.8723C85.093 81.149 87.6771 84.2273 88.3052 83.1309C88.9332 82.0344 88.2691 79.8414 88.2691 79.8414Z" fill="#F4B8AB"/>
<path opacity="0.53" d="M88.1496 80.4335C87.0634 79.3164 86.5384 79.7849 86.6053 80.9482C86.6722 82.1116 88.1084 82.9456 88.5614 82.6058C89.0144 82.2661 88.1496 80.4335 88.1496 80.4335Z" fill="#DD6595"/>
<path d="M124.236 123.376C123.664 124.514 108.839 126.794 105.04 126.037C101.241 125.281 98.1986 119.762 98.1986 119.762V134.397H69.6853C69.6853 134.397 66.9158 120.946 65.3715 111.953C64.7383 108.252 64.3059 105.307 64.3419 104.365C64.3507 103.161 64.6176 101.973 65.1244 100.88C65.2125 100.688 65.3346 100.514 65.4847 100.366C66.7472 98.3666 68.4461 96.6797 70.4539 95.4315C72.4617 94.1833 74.7263 93.4062 77.0774 93.1587L77.2679 90.6878C83.9188 89.3596 88.6702 90.6878 88.8606 91.8306C88.9715 92.5798 88.9715 93.3412 88.8606 94.0904C88.8606 94.0904 96.8448 92.0313 102.548 100.19C108.252 108.35 110.533 114.82 110.533 114.82C110.533 114.82 121.343 117.106 122.697 118.424C123.262 119.017 123.703 119.717 123.994 120.483C124.447 121.569 124.57 122.681 124.236 123.376Z" fill="#FF6C37"/>
<path opacity="0.38" d="M124.235 123.376C123.664 124.514 108.839 126.794 105.04 126.037C101.24 125.281 98.1982 119.762 98.1982 119.762V134.397H69.6848C69.6848 134.397 66.9154 120.946 65.371 111.953L65.1445 100.88C65.1445 100.88 72.1043 101.112 82.7652 101.184C93.4262 101.256 94.0079 107.876 96.9061 111.845C99.8043 115.814 101.693 122.578 106.846 122.655C111.999 122.732 122.804 123.597 123.885 120.519L124.014 120.488C124.446 121.569 124.57 122.681 124.235 123.376Z" fill="#8E253E"/>
<path d="M121.724 180.428C121.667 180.727 121.61 181.015 121.549 181.293H110.27L105.637 154.149H85.3498L79.6152 146.875L69.7109 134.387H98.1985H99.5421C107.315 134.526 119.423 135.88 121.291 139.638C121.96 140.991 122.46 145.079 122.733 150.273C123.253 159.956 123.011 173.453 121.724 180.428Z" fill="#252525"/>
<path d="M121.724 180.428L120.735 181.293H110.27L105.637 154.149H85.3498L79.6152 146.875L80.13 138.551L83.996 134.387H98.1986H99.5421C97.936 148.116 107.918 151.699 114.306 151.349C117.137 151.19 119.953 150.831 122.733 150.273C123.253 159.956 123.011 173.453 121.724 180.428Z" fill="black"/>
<path d="M121.472 187.836H110.235L109.205 181.298H122.502L121.472 187.836Z" fill="#252525"/>
<path d="M84.7475 187.836H73.51L72.4805 181.298H85.7771L84.7475 187.836Z" fill="#252525"/>
<path d="M65.7314 191.897H64.707V195.738H65.7314V191.897Z" fill="#55597C"/>
<path d="M72.9951 191.897H71.9707V195.738H72.9951V191.897Z" fill="#55597C"/>
<path d="M80.2627 191.897H79.2383V195.738H80.2627V191.897Z" fill="#55597C"/>
<path d="M70.1017 103.727H81.8797C85.1987 103.727 88.3817 105.045 90.7286 107.392C93.0754 109.739 94.3939 112.922 94.3939 116.241V150.525C94.3939 151.481 94.0142 152.397 93.3385 153.073C92.6627 153.749 91.7462 154.129 90.7905 154.129H61.2167C60.261 154.129 59.3445 153.749 58.6687 153.073C57.9929 152.397 57.6133 151.481 57.6133 150.525V116.241C57.6133 112.927 58.9282 109.748 61.2695 107.401C63.6108 105.055 66.7872 103.734 70.1017 103.727Z" fill="#FFC55A"/>
<path d="M70.1017 103.727H81.8797C85.1987 103.727 88.3817 105.045 90.7286 107.392C93.0754 109.739 94.3939 112.922 94.3939 116.241V150.525C94.3939 151.481 94.0142 152.397 93.3385 153.073C92.6627 153.749 91.7462 154.129 90.7905 154.129H61.2167C60.261 154.129 59.3445 153.749 58.6687 153.073C57.9929 152.397 57.6133 151.481 57.6133 150.525V116.241C57.6133 112.927 58.9282 109.748 61.2695 107.401C63.6108 105.055 66.7872 103.734 70.1017 103.727Z" fill="#F49947"/>
<path d="M63.8009 103.727H75.579C77.2223 103.727 78.8496 104.051 80.3679 104.68C81.8862 105.308 83.2657 106.23 84.4278 107.392C85.5898 108.554 86.5116 109.934 87.1405 111.452C87.7694 112.97 88.0931 114.598 88.0931 116.241V150.525C88.0931 151.481 87.7135 152.397 87.0377 153.073C86.3619 153.749 85.4454 154.129 84.4897 154.129H54.9159C53.9602 154.129 53.0437 153.749 52.3679 153.073C51.6921 152.397 51.3125 151.481 51.3125 150.525V116.241C51.3125 112.927 52.6274 109.748 54.9687 107.401C57.31 105.055 60.4864 103.734 63.8009 103.727Z" fill="#FFC55A"/>
<path d="M96.6701 154.154H64.6975C62.6619 154.154 61.0117 155.804 61.0117 157.84C61.0117 159.876 62.6619 161.526 64.6975 161.526H96.6701C98.7057 161.526 100.356 159.876 100.356 157.84C100.356 155.804 98.7057 154.154 96.6701 154.154Z" fill="#F49947"/>
<path d="M87.2912 154.154H55.3186C53.283 154.154 51.6328 155.804 51.6328 157.84C51.6328 159.876 53.283 161.526 55.3186 161.526H87.2912C89.3268 161.526 90.977 159.876 90.977 157.84C90.977 155.804 89.3268 154.154 87.2912 154.154Z" fill="#FFC55A"/>
<path d="M74.0496 164.506H71.0742V190.729H74.0496V164.506Z" fill="#14161E"/>
<path d="M66.8906 161.521H77.881V163.389C77.881 163.686 77.7634 163.97 77.5539 164.179C77.3444 164.389 77.0602 164.506 76.764 164.506H68.0128C67.7166 164.506 67.4324 164.389 67.2229 164.179C67.0135 163.97 66.8958 163.686 66.8958 163.389V161.521H66.8906Z" fill="#1F202D"/>
<path d="M81.1492 190.07H63.6211V192.68H81.1492V190.07Z" fill="#1F202D"/>
<path d="M71.0284 132.776H67.1367V161.521H71.0284V132.776Z" fill="#2A2B3D"/>
<path d="M71.523 127.386H66.6377C65.4949 127.386 64.5684 128.312 64.5684 129.455V135.344C64.5684 136.487 65.4949 137.414 66.6377 137.414H71.523C72.6659 137.414 73.5924 136.487 73.5924 135.344V129.455C73.5924 128.312 72.6659 127.386 71.523 127.386Z" fill="#1F202D"/>
<path d="M69.2726 129.888H68.8917C67.7488 129.888 66.8223 130.814 66.8223 131.957V132.837C66.8223 133.98 67.7488 134.907 68.8917 134.907H69.2726C70.4155 134.907 71.342 133.98 71.342 132.837V131.957C71.342 130.814 70.4155 129.888 69.2726 129.888Z" fill="#2A2B3D"/>
<path d="M66.8068 195.995C66.8068 196.311 66.7132 196.619 66.5379 196.882C66.3625 197.144 66.1133 197.349 65.8217 197.469C65.5301 197.59 65.2093 197.622 64.8997 197.56C64.5902 197.499 64.3058 197.347 64.0826 197.123C63.8595 196.9 63.7075 196.616 63.6459 196.306C63.5843 195.997 63.6159 195.676 63.7367 195.384C63.8575 195.093 64.062 194.844 64.3245 194.668C64.5869 194.493 64.8954 194.399 65.211 194.399C65.4206 194.399 65.6281 194.441 65.8217 194.521C66.0153 194.601 66.1913 194.719 66.3394 194.867C66.4876 195.015 66.6052 195.191 66.6854 195.384C66.7656 195.578 66.8068 195.786 66.8068 195.995Z" fill="#14161E"/>
<path d="M74.0764 195.995C74.0764 196.311 73.9828 196.619 73.8074 196.882C73.6321 197.144 73.3829 197.349 73.0913 197.469C72.7997 197.59 72.4788 197.622 72.1692 197.56C71.8597 197.499 71.5753 197.347 71.3522 197.123C71.129 196.9 70.977 196.616 70.9154 196.306C70.8539 195.997 70.8855 195.676 71.0062 195.384C71.127 195.093 71.3316 194.844 71.594 194.668C71.8564 194.493 72.1649 194.399 72.4806 194.399C72.6901 194.399 72.8976 194.441 73.0913 194.521C73.2849 194.601 73.4608 194.719 73.609 194.867C73.7572 195.015 73.8747 195.191 73.9549 195.384C74.0351 195.578 74.0764 195.786 74.0764 195.995Z" fill="#14161E"/>
<path d="M81.34 195.995C81.34 196.311 81.2464 196.619 81.0711 196.882C80.8958 197.144 80.6465 197.349 80.3549 197.469C80.0633 197.59 79.7425 197.622 79.4329 197.56C79.1234 197.499 78.839 197.347 78.6158 197.123C78.3927 196.9 78.2407 196.616 78.1791 196.306C78.1175 195.997 78.1491 195.676 78.2699 195.384C78.3907 195.093 78.5952 194.844 78.8577 194.668C79.1201 194.493 79.4286 194.399 79.7442 194.399C79.9538 194.399 80.1613 194.441 80.3549 194.521C80.5485 194.601 80.7245 194.719 80.8726 194.867C81.0208 195.015 81.1384 195.191 81.2186 195.384C81.2988 195.578 81.34 195.786 81.34 195.995Z" fill="#14161E"/>
<path d="M41.6188 122.007L26.0469 89.9567L43.0756 73.7774" stroke="#61648A" stroke-width="4" stroke-miterlimit="10"/>
<path d="M29.0236 89.9516C29.0246 90.5415 28.8505 91.1185 28.5234 91.6094C28.1963 92.1004 27.7309 92.4832 27.186 92.7094C26.6412 92.9356 26.0415 92.9951 25.4628 92.8803C24.8842 92.7654 24.3526 92.4814 23.9355 92.0643C23.5183 91.6472 23.2344 91.1156 23.1195 90.537C23.0047 89.9583 23.0641 89.3586 23.2904 88.8138C23.5166 88.2689 23.8994 87.8035 24.3904 87.4764C24.8813 87.1493 25.4583 86.9752 26.0482 86.9762C26.8373 86.9762 27.5941 87.2897 28.1521 87.8477C28.7101 88.4057 29.0236 89.1625 29.0236 89.9516Z" fill="#61648A" stroke="#2A2B3D" stroke-width="4" stroke-miterlimit="10"/>
<path d="M42.2942 68.1149C42.6127 67.8946 42.9726 67.7413 43.3521 67.6641C43.7316 67.587 44.1228 67.5876 44.502 67.6661C44.8813 67.7445 45.2406 67.8991 45.5584 68.1205C45.8761 68.3419 46.1456 68.6254 46.3506 68.954L46.9632 69.9372L42.3302 73.0001L41.764 72.3515C41.499 72.0478 41.3012 71.6915 41.1834 71.306C41.0657 70.9205 41.0307 70.5145 41.0807 70.1145C41.1308 69.7146 41.2648 69.3297 41.4739 68.9851C41.683 68.6405 41.9625 68.344 42.2942 68.1149Z" fill="#61648A"/>
<path d="M55.5808 83.0433C55.5808 83.5402 55.4335 84.0259 55.1575 84.439C54.8814 84.8521 54.4891 85.1741 54.0301 85.3642C53.5711 85.5544 53.066 85.6041 52.5787 85.5072C52.0914 85.4103 51.6437 85.171 51.2924 84.8197C50.9411 84.4683 50.7018 84.0207 50.6049 83.5334C50.508 83.0461 50.5577 82.541 50.7479 82.082C50.938 81.623 51.26 81.2307 51.6731 80.9546C52.0862 80.6786 52.5719 80.5313 53.0687 80.5312C53.7346 80.5326 54.3727 80.7977 54.8436 81.2685C55.3144 81.7393 55.5795 82.3775 55.5808 83.0433Z" fill="#FFC55A"/>
<path d="M42.3301 72.9795L47.0197 84.9532C47.0947 85.1477 47.2083 85.3251 47.3537 85.4745C47.4991 85.624 47.6732 85.7424 47.8656 85.8227C48.058 85.9031 48.2647 85.9436 48.4732 85.9419C48.6817 85.9402 48.8877 85.8963 49.0788 85.8129C51.0915 84.9377 54.6589 83.1721 56.5275 80.9276C56.7809 80.6242 56.9083 80.2351 56.8834 79.8405C56.8585 79.446 56.6832 79.076 56.3937 78.8068L46.963 69.9166L42.3301 72.9795Z" fill="#2A2B3D"/>
<path d="M49.2125 120.781H34.0215V123.232H49.2125V120.781Z" fill="#2A2B3D"/>
<path d="M139.849 8.72028H92.1035V56.4656H139.849V8.72028Z" fill="#407BFF" fill-opacity="0.12"/>
<path d="M125.894 10.7153C126.993 6.02625 124.083 1.33418 119.394 0.235247C114.705 -0.863689 110.013 2.04665 108.914 6.73567C107.815 11.4247 110.725 16.1168 115.414 17.2157C120.103 18.3146 124.795 15.4043 125.894 10.7153Z" fill="#263238"/>
<path d="M132.93 25.991H105.354V30.8144H132.93V25.991Z" fill="#263238"/>
<path d="M105.353 25.991H100.529V30.8144H105.353V25.991Z" fill="white"/>
<path d="M132.93 33.4346H105.354V38.258H132.93V33.4346Z" fill="#263238"/>
<path opacity="0.33" d="M132.93 40.8834H118.887V43.2925H132.93V40.8834Z" fill="#61648A"/>
<path d="M105.353 33.4346H100.529V38.258H105.353V33.4346Z" fill="white"/>
<path d="M159.266 12.7098H135.664V24.7143H159.266V12.7098Z" fill="#FF6C37"/>
<path d="M142.386 23.0773L138.381 30.2481L148.923 23.7105L142.386 23.0773Z" fill="#FF6C37"/>
<path d="M143.245 18.6966C143.246 18.917 143.182 19.1327 143.06 19.3163C142.938 19.4999 142.765 19.6432 142.561 19.728C142.358 19.8128 142.134 19.8353 141.918 19.7926C141.702 19.7498 141.503 19.6438 141.347 19.488C141.191 19.3322 141.085 19.1336 141.043 18.9174C141 18.7013 141.022 18.4773 141.107 18.2739C141.192 18.0705 141.335 17.8969 141.519 17.7751C141.702 17.6533 141.918 17.5888 142.139 17.5899C142.432 17.5899 142.714 17.7065 142.921 17.914C143.129 18.1216 143.245 18.4031 143.245 18.6966Z" fill="white"/>
<path d="M148.594 18.6966C148.594 18.9155 148.529 19.1295 148.408 19.3115C148.286 19.4935 148.113 19.6354 147.911 19.7191C147.709 19.8029 147.486 19.8248 147.272 19.7821C147.057 19.7394 146.86 19.634 146.705 19.4792C146.55 19.3244 146.445 19.1272 146.402 18.9125C146.359 18.6978 146.381 18.4753 146.465 18.2731C146.549 18.0708 146.691 17.898 146.873 17.7764C147.055 17.6548 147.269 17.5898 147.488 17.5898C147.781 17.5898 148.063 17.7065 148.27 17.914C148.478 18.1216 148.594 18.4031 148.594 18.6966Z" fill="white"/>
<path d="M152.79 19.8188C153.402 19.8188 153.897 19.3233 153.897 18.712C153.897 18.1008 153.402 17.6053 152.79 17.6053C152.179 17.6053 151.684 18.1008 151.684 18.712C151.684 19.3233 152.179 19.8188 152.79 19.8188Z" fill="white"/>
<path d="M96.1348 39.72H75.5078V54.0101H96.1348V39.72Z" fill="#407BFF"/>
<path d="M80.1809 52.8135L88.1223 48.6723V50.4371C88.1223 50.5708 88.0888 50.6944 88.022 50.8081C87.9552 50.915 87.8449 51.0086 87.6911 51.0888L84.0513 52.9539C83.8976 53.0341 83.7338 53.1043 83.56 53.1644C83.3929 53.2179 83.2124 53.2681 83.0185 53.3148C83.2124 53.3616 83.3929 53.4151 83.56 53.4753C83.7338 53.5288 83.8976 53.5956 84.0513 53.6758L87.6911 55.5509C87.8449 55.6311 87.9552 55.728 88.022 55.8417C88.0888 55.9486 88.1223 56.0689 88.1223 56.2026V57.9674L80.1809 53.8162V52.8135ZM80.973 84.1031C80.9128 84.2569 80.836 84.3906 80.7424 84.5042C80.6488 84.6179 80.5418 84.7114 80.4215 84.785C80.3012 84.8652 80.1742 84.9254 80.0405 84.9655C79.9068 85.0056 79.7764 85.0256 79.6494 85.0256H78.6066L84.4624 70.0453C84.576 69.7645 84.7398 69.5506 84.9537 69.4035C85.1676 69.2498 85.425 69.1729 85.7258 69.1729H86.7786L80.973 84.1031ZM81.0833 105.967V104.203C81.0833 104.069 81.1167 103.949 81.1836 103.842C81.2504 103.728 81.3607 103.631 81.5145 103.551L85.1543 101.676C85.4484 101.529 85.7927 101.408 86.1871 101.315C85.9932 101.268 85.8094 101.218 85.6356 101.164C85.4685 101.104 85.308 101.034 85.1543 100.954L81.5145 99.0888C81.3607 99.0086 81.2504 98.915 81.1836 98.8081C81.1167 98.6944 81.0833 98.5708 81.0833 98.4371V96.6723L89.0247 100.813V101.816L81.0833 105.967Z" fill="white"/>
<path d="M119.64 14.5191V9.89539H120.842V17.7169H119.64V16.393H119.559C119.376 16.7901 119.09 17.1279 118.703 17.4063C118.316 17.6813 117.828 17.8188 117.237 17.8188C116.748 17.8188 116.314 17.7118 115.933 17.498C115.553 17.2807 115.254 16.9548 115.037 16.5203C114.82 16.0823 114.711 15.5307 114.711 14.8653V9.89539H115.913V14.7838C115.913 15.3542 116.073 15.8091 116.392 16.1485C116.714 16.488 117.125 16.6578 117.624 16.6578C117.923 16.6578 118.227 16.5814 118.535 16.4286C118.848 16.2758 119.109 16.0416 119.32 15.7259C119.533 15.4102 119.64 15.0079 119.64 14.5191ZM120.251 28.6471L119.172 28.9526C119.104 28.7727 119.004 28.5979 118.872 28.4281C118.743 28.255 118.566 28.1124 118.342 28.0004C118.118 27.8884 117.831 27.8323 117.481 27.8323C117.003 27.8323 116.604 27.9427 116.285 28.1633C115.969 28.3806 115.811 28.6573 115.811 28.9934C115.811 29.2921 115.92 29.528 116.137 29.7012C116.354 29.8743 116.694 30.0186 117.155 30.134L118.316 30.4192C119.016 30.5889 119.537 30.8486 119.88 31.1982C120.223 31.5445 120.394 31.9909 120.394 32.5375C120.394 32.9856 120.265 33.3862 120.007 33.7392C119.752 34.0923 119.396 34.3707 118.938 34.5743C118.479 34.778 117.946 34.8799 117.339 34.8799C116.541 34.8799 115.881 34.7067 115.358 34.3605C114.835 34.0142 114.504 33.5084 114.365 32.843L115.506 32.5579C115.614 32.9788 115.82 33.2945 116.122 33.505C116.427 33.7155 116.826 33.8207 117.318 33.8207C117.879 33.8207 118.323 33.7019 118.653 33.4643C118.985 33.2232 119.152 32.9347 119.152 32.5986C119.152 32.327 119.057 32.0996 118.866 31.9162C118.676 31.7295 118.384 31.5903 117.991 31.4987L116.687 31.1932C115.971 31.0234 115.444 30.7603 115.108 30.4039C114.776 30.044 114.609 29.5942 114.609 29.0545C114.609 28.6131 114.733 28.2227 114.981 27.8833C115.232 27.5438 115.574 27.2773 116.005 27.0838C116.439 26.8903 116.931 26.7935 117.481 26.7935C118.255 26.7935 118.863 26.9633 119.304 27.3028C119.749 27.6422 120.065 28.0903 120.251 28.6471ZM117.991 51.8799C117.237 51.8799 116.587 51.7135 116.04 51.3808C115.497 51.0448 115.078 50.5763 114.783 49.9754C114.491 49.3711 114.345 48.6684 114.345 47.8673C114.345 47.0661 114.491 46.36 114.783 45.7489C115.078 45.1345 115.489 44.6558 116.015 44.3129C116.544 43.9667 117.162 43.7935 117.868 43.7935C118.276 43.7935 118.678 43.8614 119.075 43.9972C119.472 44.133 119.834 44.3537 120.16 44.6592C120.486 44.9613 120.745 45.3619 120.939 45.861C121.132 46.36 121.229 46.9744 121.229 47.7043V48.2135H115.2V47.1747H120.007C120.007 46.7334 119.919 46.3396 119.742 45.9934C119.569 45.6471 119.321 45.3738 118.999 45.1735C118.68 44.9732 118.303 44.8731 117.868 44.8731C117.39 44.8731 116.976 44.9919 116.626 45.2295C116.28 45.4638 116.013 45.7693 115.826 46.1461C115.64 46.5229 115.546 46.9269 115.546 47.358V48.0506C115.546 48.6413 115.648 49.142 115.852 49.5528C116.059 49.9601 116.346 50.2708 116.712 50.4846C117.079 50.6951 117.505 50.8003 117.991 50.8003C118.306 50.8003 118.591 50.7562 118.846 50.6679C119.104 50.5763 119.326 50.4405 119.513 50.2606C119.7 50.0772 119.844 49.8498 119.946 49.5782L121.107 49.9041C120.985 50.2979 120.779 50.6442 120.491 50.9429C120.202 51.2383 119.846 51.4691 119.421 51.6354C118.997 51.7984 118.52 51.8799 117.991 51.8799ZM123.057 51.7169V43.8954H124.218V45.0768H124.3C124.442 44.6898 124.7 44.3757 125.074 44.1347C125.447 43.8937 125.868 43.7732 126.337 43.7732C126.425 43.7732 126.535 43.7749 126.668 43.7783C126.8 43.7817 126.9 43.7868 126.968 43.7935V45.0157C126.927 45.0055 126.834 44.9902 126.688 44.9698C126.545 44.9461 126.394 44.9342 126.235 44.9342C125.855 44.9342 125.515 45.014 125.216 45.1735C124.921 45.3297 124.687 45.5469 124.514 45.8253C124.344 46.1003 124.259 46.4143 124.259 46.7674V51.7169H123.057Z" fill="white"/>
<path d="M151.807 184.562C152.424 190.25 153.042 196.047 151.616 196.855C150.19 197.663 142.098 196.855 140.343 196.855C138.587 196.855 138.587 193.164 141.511 191.619C144.435 190.075 145.022 184.562 145.022 184.562H151.807Z" fill="#407BFF"/>
<path d="M187.06 187.831C187.677 193.519 188.491 196.067 187.06 196.855C185.628 197.642 177.541 196.855 175.786 196.855C174.031 196.855 174.031 193.164 176.955 191.62C177.785 191.206 178.493 190.583 179.008 189.812C179.524 189.041 179.829 188.149 179.894 187.223L187.06 187.831Z" fill="#407BFF"/>
<path d="M140.054 47.5703C137.66 52.3628 137.954 57.248 142.731 57.4488C147.508 57.6495 140.054 47.5703 140.054 47.5703Z" fill="#542633"/>
<path d="M140.806 52.5842C142.304 58.468 146.5 64.1151 151.225 62.231L152.183 64.0739C152.351 64.3983 152.582 64.6863 152.862 64.9214C153.142 65.1566 153.465 65.3342 153.814 65.4442C154.162 65.5542 154.529 65.5943 154.893 65.5623C155.257 65.5304 155.611 65.4269 155.935 65.2579C156.591 64.9177 157.084 64.3313 157.307 63.6276C157.53 62.924 157.464 62.1606 157.125 61.5052L156.167 59.6623C156.167 59.6623 158.967 56.2699 158.52 53.6497C158.072 51.0295 158.334 53.2894 158.334 53.2894L153.892 43.9565L139.941 51.2046L140.806 52.5842Z" fill="#F4B8AB"/>
<path opacity="0.53" d="M151.225 62.2311C152.712 61.5979 154.166 60.8882 155.58 60.105L152.182 64.0739L151.225 62.2311Z" fill="#DD6595"/>
<path d="M158.659 52.054C158.505 55.0242 157.743 57.5981 157.172 58.2313C155.936 59.5645 151.71 61.0419 151.71 61.0419C149.785 60.7845 146.562 59.3843 143.932 57.1914C141.152 54.8698 139.062 51.6627 139.942 47.9821C141.44 41.7276 150.649 38.7522 155.581 42.6285C158.217 44.6927 158.839 48.6359 158.659 52.054Z" fill="#6D3744"/>
<path d="M158.659 52.054C158.505 55.0242 157.743 57.5981 157.172 58.2313C155.936 59.5645 151.71 61.0419 151.71 61.0419C149.785 60.7845 146.562 59.3844 143.932 57.1914C143.937 56.2941 144.281 55.4319 144.894 54.7771C146.722 53.135 152.075 56.9855 153.285 50.7876L154.412 50.4016C154.412 50.4016 156.873 51.3487 158.659 52.054Z" fill="#542633"/>
<path d="M143.35 55.4824C143.411 52.8313 145.187 53.0063 146.078 54.0667C146.968 55.1272 146.078 59.2763 144.956 58.5659C143.833 57.8555 143.35 55.4824 143.35 55.4824Z" fill="#F4B8AB"/>
<path opacity="0.53" d="M143.762 55.9714C144.22 54.391 144.941 54.5661 145.44 55.6986C145.939 56.8311 145.028 58.3085 144.436 58.2158C143.844 58.1231 143.762 55.9714 143.762 55.9714Z" fill="#DD6595"/>
<path d="M154.845 44.3992C154.274 44.6666 153.771 45.0586 153.373 45.5465C152.974 46.0343 152.69 46.6054 152.542 47.2177C152.394 47.8299 152.385 48.4676 152.516 49.0838C152.647 49.6999 152.915 50.2786 153.3 50.7773C154.515 52.3216 156.677 51.6164 156.677 51.6164L154.845 44.3992Z" fill="#FFC55A"/>
<path d="M153.697 48.0387C152.981 44.5382 156.61 41.5628 159.781 43.2153C160.608 43.6264 161.257 44.3232 161.609 45.1766C162.798 48.1519 162.726 52.0076 166.365 52.5327C166.365 52.5327 161.979 57.2223 157.614 54.3962C155.138 52.7901 154.119 50.0978 153.697 48.0387Z" fill="#6D3744"/>
<path d="M166.791 61.6082C173.874 61.7317 181.524 70.8072 183.681 76.7631C185.838 82.719 180.149 89.9516 180.149 89.9516L166.791 61.6082Z" fill="#3D64C1"/>
<path d="M123.886 94.8368C120.834 90.9297 119.433 90.7186 118.466 91.465C117.498 92.2115 113.833 94.3323 113.189 94.8368C112.546 95.3413 113.297 96.0929 114.481 95.8664L115.665 95.6502C115.665 95.6502 115.135 98.4866 116.525 99.758C117.915 101.03 122.342 99.2175 122.342 99.2175L123.886 94.8368Z" fill="#F4B8AB"/>
<path d="M179.954 120.776C179.27 123.813 177.381 129.332 174.884 135.962C167.095 156.718 153.541 188.325 153.541 188.325L142.016 187.223L159.209 101.771L159.575 99.9485C159.575 99.9485 167.214 88.6698 173.165 91.1974C174.489 91.8331 175.615 92.8172 176.423 94.0441C177.881 96.204 178.947 98.6033 179.574 101.133C181.246 107.559 181.376 114.29 179.954 120.776Z" fill="black"/>
<path d="M188.587 187.97L178.677 188.325L174.883 135.962L173.164 112.283V94.0853H184.463C186.286 96.4378 187.861 99.6912 189.158 103.722C194.738 121.008 195.243 152.538 188.587 187.97Z" fill="black"/>
<path d="M174.59 136.75L184.17 119.237L175.594 145.769L174.59 136.75Z" fill="black"/>
<path d="M189.159 103.722C189.004 103.645 185.627 102.049 179.573 101.148C177.449 100.85 175.309 100.679 173.165 100.633C168.485 100.522 163.807 100.909 159.209 101.786L159.574 99.964C159.574 99.964 167.214 88.6853 173.165 91.2128C174.489 91.8486 175.615 92.8326 176.423 94.0595H184.464C186.286 96.4275 187.861 99.6911 189.159 103.722Z" fill="black"/>
<path d="M184.465 94.0853L159.576 99.9691L151.293 88.9735C151.293 88.9735 146.819 99.5779 143.849 101.148C140.879 102.718 122.11 100.165 122.11 100.165C121.621 99.6088 121.596 98.5329 121.724 97.3747C121.956 95.8589 122.341 94.3705 122.872 92.9322L137.595 91.5371C137.595 91.5371 142.053 79.5326 143.844 73.7723C145.635 68.012 149.424 67.178 149.424 67.178C149.464 66.5689 149.452 65.9576 149.388 65.3506C149.275 64.9387 155.406 60.3984 159.57 60.3984L160.538 61.2787C160.538 61.2787 164.461 59.5748 169.557 63.1062C172.239 64.9593 176.218 73.4016 179.389 81.0306C182.256 87.908 184.465 94.0853 184.465 94.0853Z" fill="#407BFF"/>
<path opacity="0.36" d="M184.465 94.0853L159.576 99.9692L151.293 88.9736C151.293 88.9736 146.819 99.5779 143.849 101.148C140.879 102.718 122.11 100.165 122.11 100.165C121.621 99.6088 121.596 98.5329 121.724 97.3747C126.929 95.0016 139.885 100.885 143.108 96.7364C146.33 92.5873 149.733 80.8813 151.293 84.1707C152.853 87.4601 156.039 92.4071 159.982 93.2719C163.925 94.1368 180.141 89.9517 179.389 81.0358C182.256 87.908 184.465 94.0853 184.465 94.0853Z" fill="#383952"/>
</g>
<defs>
<clipPath id="clip0_1182_18429">
<rect width="225.579" height="200" fill="white"/>
</clipPath>
</defs>
</svg>
