<svg width="254" height="200" viewBox="0 0 254 200" fill="none" xmlns="http://www.w3.org/2000/svg">
<g clip-path="url(#clip0_1447_23201)">
<path d="M191.996 155.972L60.0694 155.972V62.8729C60.0694 62.2662 60.1888 61.6655 60.421 61.105C60.6532 60.5445 60.9935 60.0352 61.4225 59.6062C61.8515 59.1772 62.3608 58.8369 62.9213 58.6047C63.4818 58.3726 64.0825 58.2531 64.6892 58.2531L187.371 58.2531C187.978 58.2531 188.579 58.3726 189.139 58.6047C189.7 58.8369 190.209 59.1772 190.638 59.6062C191.067 60.0352 191.407 60.5445 191.64 61.105C191.872 61.6655 191.991 62.2662 191.991 62.8729V155.972H191.996Z" fill="#455A64"/>
<path d="M64.7326 138.215L187.098 138.215V63.0436L64.7326 63.0436L64.7326 138.215Z" fill="white"/>
<path d="M51.8781 63.4144H20.7539L20.8076 63.1363C21.0533 61.8924 21.722 60.772 22.7003 59.9654C23.6785 59.1588 24.9059 58.7157 26.1738 58.7116C26.5509 58.7114 26.9269 58.7507 27.2958 58.8287C28.0341 57.4254 29.1176 56.2333 30.4442 55.3647C31.7707 54.4961 33.2966 53.9796 34.878 53.8639C36.4594 53.7483 38.0442 54.0372 39.483 54.7035C40.9218 55.3699 42.1672 56.3916 43.1019 57.6725C44.0351 57.3876 45.0185 57.3061 45.9858 57.4332C46.9532 57.5604 47.8821 57.8933 48.71 58.4097C49.5379 58.926 50.2455 59.6137 50.7853 60.4265C51.325 61.2393 51.6844 62.1583 51.8391 63.1217L51.8781 63.4144ZM21.3296 62.9265H51.3318C51.0354 61.4908 50.2549 60.2005 49.1208 59.2716C47.9868 58.3426 46.568 57.8315 45.102 57.8237C44.4223 57.8227 43.7469 57.9314 43.1019 58.1457L42.936 58.1994L42.8385 58.0579C41.9554 56.8023 40.7619 55.7971 39.3745 55.1405C37.9871 54.4838 36.4531 54.198 34.9223 54.311C33.3914 54.424 31.916 54.932 30.6401 55.7854C29.3642 56.6387 28.3313 57.8083 27.6422 59.1799L27.5593 59.3458L27.3788 59.3019C26.9895 59.2043 26.5897 59.1552 26.1885 59.1555C25.0752 59.1571 23.9941 59.5282 23.1146 60.2108C22.2352 60.8933 21.6073 61.8485 21.3296 62.9265Z" fill="#6AAFE8"/>
<path d="M166.187 25.075L166.084 25.0214C155.035 19.3819 156.518 8.45916 156.537 8.35184L156.567 8.15182H156.767C163.787 8.15182 165.997 5.88824 166.036 5.86873L166.206 5.68335L166.377 5.86873C166.402 5.86873 168.607 8.15182 175.646 8.15182H175.851L175.88 8.35184C175.88 8.45916 177.378 19.3819 166.333 25.0214L166.187 25.075ZM156.976 8.61527C156.835 10.0788 156.372 19.4697 166.187 24.553C176.007 19.4697 175.539 10.0983 175.402 8.61527C169.304 8.58112 166.821 6.87856 166.187 6.33706C165.553 6.87856 163.07 8.58112 156.976 8.61527Z" fill="#6AAFE8"/>
<path d="M72.9918 124.931H60.6641V126.326H72.9918V124.931Z" fill="#1487E3"/>
<path d="M58.0936 86.4161H38.4141V61.2532H38.8775V85.9526H58.0936V86.4161Z" fill="#78C2FF"/>
<path d="M141.382 69.8392H140.914V43.891H165.955V22.065H166.423V44.3544H141.382V69.8392Z" fill="#78C2FF"/>
<path d="M222.274 98.7389H196.219V98.2755H221.806V83.1475H222.274V98.7389Z" fill="#78C2FF"/>
<path d="M27.4916 119.765C27.4916 119.765 26.9306 127.595 28.4673 128.546C29.4429 129.131 33.2432 131.112 33.131 131.473C33.0188 131.834 30.9748 134.776 30.9748 134.776C30.9748 134.776 23.6572 129.946 23.3986 128.434C23.14 126.921 23.7596 116.97 24.7694 116.511C25.5256 116.165 25.9207 116.452 26.8769 117.16C28.2087 118.135 27.4916 119.765 27.4916 119.765Z" fill="#FF7E55"/>
<path d="M26.6369 176.735C26.6369 176.735 26.4077 178.32 26.3784 178.555C26.3491 178.789 23.8416 178.418 23.8416 178.418L23.6367 176.53C23.6367 176.53 26.3247 176.51 26.6369 176.735Z" fill="#424773"/>
<path d="M26.4059 178.355C26.8513 178.89 27.378 179.353 27.967 179.725C28.7378 180.14 29.9476 180.306 30.4062 180.735C30.733 181.047 31.6014 182.384 28.406 182.36C25.2107 182.335 23.674 182.55 23.3325 182.033C22.991 181.516 23.8203 178.247 23.8203 178.247C23.8203 178.247 24.5765 178.545 26.4059 178.355Z" fill="#292C47"/>
<path d="M39.1994 176.735C39.1994 176.735 38.9702 178.32 38.9409 178.555C38.9116 178.789 36.4041 178.418 36.4041 178.418L36.1992 176.53C36.1992 176.53 38.8823 176.51 39.1994 176.735Z" fill="#424773"/>
<path d="M38.9681 178.355C39.4135 178.89 39.9403 179.353 40.5292 179.725C41.3 180.14 44.1295 180.482 44.5832 180.916C44.9149 181.223 45.4564 182.477 40.9634 182.379C37.768 182.296 36.2313 182.569 35.885 182.052C35.5386 181.535 36.3728 178.267 36.3728 178.267C36.3728 178.267 37.0948 178.545 38.9681 178.355Z" fill="#292C47"/>
<path d="M27.5325 136.034C27.5325 136.034 25.1762 139.781 25.3518 143.171C25.5274 146.562 25.142 150.177 24.7859 153.714C24.3908 157.655 23.3224 165.866 23.259 167.973C23.1956 170.081 23.3322 178.028 23.3322 178.028L27.4251 177.993C27.4251 177.993 28.8887 161.958 29.5814 160.29C30.2741 158.621 33.1719 146.572 33.289 145.24C33.4061 143.908 27.5325 136.034 27.5325 136.034Z" fill="#292C47"/>
<path d="M39.9486 136.542C39.9486 136.542 40.8804 145.752 41.1146 147.825C41.3488 149.899 41.1878 158.88 41.3049 160.178C41.4219 161.475 40.5243 175.174 40.2999 177.784L35.8069 177.754C35.8069 177.754 35.4947 166.671 35.4947 161.285C35.4947 155.899 34.1141 149.63 32.5286 146.074C30.9431 142.518 27.3185 142.435 26.3477 135.829C26.3477 135.844 38.6315 134.454 39.9486 136.542Z" fill="#292C47"/>
<path d="M30.0247 104.442C30.0247 104.442 32.8346 102.564 34.8055 104.578C36.7764 106.593 37.7326 111.315 36.3325 112.257C34.9324 113.199 32.5127 113.447 31.3711 112.169C30.2296 110.891 29.0149 108.935 28.7124 107.51C28.4099 106.086 29.3124 105.042 30.0247 104.442Z" fill="#EEA886"/>
<path d="M35.3781 112.579C35.3781 112.579 35.3439 114.53 35.5635 114.974C35.783 115.418 31.4607 115.404 31.4607 115.404C31.2299 113.972 30.8907 112.559 30.446 111.179C29.7777 109.271 35.3781 112.579 35.3781 112.579Z" fill="#EEA886"/>
<path d="M30.5528 111.15C30.5528 111.15 30.9577 111.559 32.0944 111.096C33.2311 110.632 34.3092 108.71 34.7629 108.423C35.2166 108.135 35.1531 107.842 35.1531 107.842L35.5678 108.223L36.1044 108.13C36.1044 108.13 35.2897 106.832 35.88 106.091C36.4703 105.349 34.0555 101.7 30.5674 103.925C30.5674 103.925 27.8404 105.417 28.338 107.052C28.8356 108.686 29.704 110.476 30.5528 111.15Z" fill="#754836"/>
<path d="M35.8179 114.921C35.8179 114.921 35.8179 114.116 35.4423 114.043C35.0666 113.969 31.4176 113.613 30.9688 113.789V114.725C30.9688 114.725 31.8322 115.257 35.8179 114.921Z" fill="#E2D2CA"/>
<path d="M34.9332 107.257C34.8015 106.993 33.9038 106.364 33.8355 107.281C33.7672 108.198 34.7137 109.184 35.0698 108.993C35.4259 108.803 35.2649 107.925 34.9332 107.257Z" fill="#EEA886"/>
<path d="M29.2105 104.925C29.2105 104.925 25.1956 106.003 30.3911 110.993L29.2105 104.925Z" fill="#754836"/>
<path d="M65.1235 126.292L61.0257 126.253C61.3818 126.048 61.9526 125.677 61.8257 125.512C61.6452 125.273 60.4842 125.799 60.011 125.848C59.4379 125.839 58.866 125.901 58.3084 126.034L57.0156 126.585L58.2011 127.682C58.2011 127.682 60.3427 127.99 60.9671 128.034C61.9867 128.107 65.1089 126.892 65.1577 126.707C65.2504 126.375 65.1235 126.292 65.1235 126.292Z" fill="#EEA886"/>
<path d="M41.1623 116.038C38.5573 115.579 35.7961 114.921 35.7961 114.921L30.947 114.725C30.947 114.725 26.493 115.701 24.7416 116.496C24.5758 116.57 24.5758 120.467 24.1172 121.487L25.5807 124.555C25.5807 124.555 26.4198 130.629 26.5954 133.337C26.6735 134.576 24.8636 144.967 24.8636 144.967C26.5857 145.417 28.341 145.731 30.1127 145.903C33.4252 146.269 41.699 145.772 41.7477 145.381C41.7965 144.991 40.1476 130.819 40.0745 130.088C39.9622 128.961 40.3964 123.746 40.3964 123.746C41.0209 124.585 44.6309 127.726 46.392 128.726C47.6409 129.439 50.7143 129.005 51.6168 128.912C53.5681 128.712 58.988 128.322 59.0954 128.131C59.2027 127.941 58.7831 126.043 58.5539 125.97C58.3246 125.897 51.3728 125.556 49.6215 125.648C48.9092 125.687 46.592 123.097 46.592 123.097C46.592 123.097 42.6015 116.682 41.1623 116.038Z" fill="#FF7E55"/>
<path d="M11.332 96.4266H24.1525V105.72V107.676L22.1962 105.72H11.332V96.4266Z" fill="#407BFF"/>
<path d="M217.803 66.8537H205.363V54.3991H217.803V66.8537ZM205.763 66.439H217.389V54.8138H205.763V66.439Z" fill="#6AAFE8"/>
<path d="M248.807 58.9653H220.293V55.9211H248.807V58.9653ZM220.708 58.5506H248.393V56.3358H220.708V58.5506Z" fill="#6AAFE8"/>
<path d="M248.81 73.1273H205.363V70.0832H248.825L248.81 73.1273ZM205.763 72.7127H248.396V70.4979H205.763V72.7127Z" fill="#6AAFE8"/>
<path d="M233.029 78.9716H205.363V75.9275H233.043L233.029 78.9716ZM205.763 78.5374H232.595V76.3422H205.763V78.5374Z" fill="#6AAFE8"/>
<path d="M239.602 64.7754H220.293V61.7264H239.602V64.7754ZM220.708 64.3608H239.187V62.146H220.708V64.3608Z" fill="#6AAFE8"/>
<path d="M253.754 85.5965H200.398V47.7742H253.754V85.5965ZM200.813 85.1818H253.339V48.1889H200.813V85.1818Z" fill="#6AAFE8"/>
<path d="M181.584 30.8364H177.594V30.3681H181.121V26.8459H181.584V30.8364Z" fill="#6AAFE8"/>
<path d="M154.737 30.8364H150.746V26.8459H151.21V30.3681H154.737V30.8364Z" fill="#6AAFE8"/>
<path d="M151.21 3.99054H150.746V0H154.737V0.463449H151.21V3.99054Z" fill="#6AAFE8"/>
<path d="M181.584 3.99054H181.121V0.468327H177.594V0H181.584V3.99054Z" fill="#6AAFE8"/>
<path d="M181.585 9.95197H181.121V20.8845H181.585V9.95197Z" fill="#6AAFE8"/>
<path d="M151.214 9.95197H150.746V20.8845H151.214V9.95197Z" fill="#6AAFE8"/>
<path d="M38.6469 61.4874C38.3078 61.4884 37.9761 61.3887 37.6937 61.2009C37.4114 61.0131 37.1912 60.7457 37.061 60.4327C36.9308 60.1196 36.8964 59.7749 36.9624 59.4423C37.0283 59.1097 37.1914 58.8041 37.4312 58.5643C37.671 58.3246 37.9765 58.1614 38.3091 58.0955C38.6418 58.0296 38.9864 58.0639 39.2995 58.1941C39.6126 58.3243 39.88 58.5445 40.0678 58.8269C40.2556 59.1092 40.3553 59.4409 40.3543 59.78C40.3543 60.2328 40.1744 60.6671 39.8542 60.9873C39.534 61.3075 39.0997 61.4874 38.6469 61.4874ZM38.6469 58.536C38.4008 58.536 38.1603 58.609 37.9558 58.7457C37.7512 58.8823 37.5917 59.0766 37.4976 59.3039C37.4034 59.5313 37.3788 59.7814 37.4268 60.0227C37.4748 60.264 37.5933 60.4857 37.7672 60.6596C37.9412 60.8336 38.1629 60.9521 38.4042 61.0001C38.6455 61.0481 38.8956 61.0235 39.1229 60.9293C39.3502 60.8351 39.5445 60.6757 39.6812 60.4711C39.8179 60.2666 39.8909 60.026 39.8909 59.78C39.8909 59.6166 39.8587 59.4549 39.7962 59.3039C39.7337 59.153 39.642 59.0159 39.5265 58.9004C39.411 58.7848 39.2739 58.6932 39.1229 58.6307C38.972 58.5682 38.8102 58.536 38.6469 58.536Z" fill="#78C2FF"/>
<path d="M166.188 22.2992C165.85 22.2992 165.52 22.1991 165.239 22.0115C164.959 21.8238 164.74 21.5572 164.61 21.2452C164.481 20.9332 164.447 20.5899 164.513 20.2587C164.579 19.9275 164.742 19.6232 164.981 19.3844C165.219 19.1456 165.524 18.983 165.855 18.9171C166.186 18.8513 166.529 18.8851 166.841 19.0143C167.153 19.1435 167.42 19.3624 167.608 19.6432C167.795 19.924 167.895 20.2541 167.895 20.5918C167.895 21.0446 167.715 21.4789 167.395 21.7991C167.075 22.1193 166.641 22.2992 166.188 22.2992ZM166.188 19.3722C165.942 19.3722 165.701 19.4451 165.497 19.5818C165.292 19.7185 165.133 19.9128 165.039 20.1401C164.944 20.3674 164.92 20.6176 164.968 20.8589C165.016 21.1002 165.134 21.3218 165.308 21.4958C165.482 21.6698 165.704 21.7883 165.945 21.8363C166.187 21.8843 166.437 21.8596 166.664 21.7655C166.891 21.6713 167.086 21.5119 167.222 21.3073C167.359 21.1027 167.432 20.8622 167.432 20.6162C167.435 20.4508 167.405 20.2864 167.344 20.1326C167.283 19.9789 167.192 19.8388 167.076 19.7207C166.96 19.6026 166.822 19.5088 166.67 19.4448C166.517 19.3807 166.353 19.3478 166.188 19.3478V19.3722Z" fill="#78C2FF"/>
<path d="M222.042 83.4598C221.705 83.4588 221.375 83.3579 221.095 83.1697C220.815 82.9815 220.597 82.7145 220.468 82.4024C220.34 82.0903 220.307 81.7472 220.373 81.4163C220.44 81.0854 220.603 80.7816 220.842 80.5433C221.081 80.305 221.385 80.1429 221.716 80.0774C222.047 80.0119 222.39 80.046 222.702 80.1754C223.014 80.3047 223.28 80.5236 223.467 80.8043C223.655 81.0849 223.755 81.4149 223.755 81.7524C223.755 81.977 223.71 82.1994 223.624 82.4069C223.538 82.6144 223.412 82.8028 223.253 82.9614C223.094 83.12 222.905 83.2457 222.697 83.3312C222.49 83.4167 222.267 83.4604 222.042 83.4598ZM222.042 80.5084C221.796 80.5084 221.556 80.5813 221.351 80.718C221.147 80.8547 220.987 81.049 220.893 81.2763C220.799 81.5036 220.774 81.7537 220.822 81.995C220.87 82.2364 220.989 82.458 221.163 82.632C221.337 82.806 221.558 82.9244 221.8 82.9724C222.041 83.0204 222.291 82.9958 222.518 82.9017C222.746 82.8075 222.94 82.6481 223.077 82.4435C223.213 82.2389 223.286 81.9984 223.286 81.7524C223.288 81.5875 223.258 81.424 223.196 81.2711C223.134 81.1182 223.043 80.979 222.928 80.8615C222.812 80.7441 222.674 80.6507 222.522 80.5867C222.37 80.5227 222.207 80.4895 222.042 80.4888V80.5084Z" fill="#78C2FF"/>
<path d="M49.9777 14.04H38.2695V2.33185H49.9777V14.04ZM38.7135 13.5522H49.5142V2.77578H38.7135V13.5522Z" fill="#A1D4FF"/>
<path d="M44.3463 5.50769H43.8828V10.9764H44.3463V5.50769Z" fill="#A1D4FF"/>
<path d="M46.8515 8.00549H41.3828V8.46894H46.8515V8.00549Z" fill="#A1D4FF"/>
<path d="M228.72 28.1874H211.953V16.2207H228.72V28.1874ZM212.417 27.6996H228.252V16.6842H212.417V27.6996Z" fill="#A1D4FF"/>
<path d="M220.333 23.4651L212.035 16.6305L212.333 16.2695L220.333 22.8651L228.339 16.2695L228.631 16.6305L220.333 23.4651Z" fill="#A1D4FF"/>
<path d="M222.625 21.4393L222.289 21.7582L228.306 28.1006L228.642 27.7816L222.625 21.4393Z" fill="#A1D4FF"/>
<path d="M218.019 21.4362L212.008 27.7838L212.344 28.1024L218.355 21.7548L218.019 21.4362Z" fill="#A1D4FF"/>
<path d="M79.2514 40.2127L79.0758 39.7541C78.92 39.735 78.7664 39.7007 78.6172 39.6517L78.2611 39.9834L77.2269 39.2468L77.4269 38.8028C77.3293 38.6792 77.2458 38.545 77.1781 38.4028H76.6902L76.4805 37.1539L76.9342 36.9783C76.9531 36.822 76.9891 36.6682 77.0415 36.5197L76.7049 36.1636L77.4415 35.1294L77.8855 35.3294C78.0098 35.2329 78.1439 35.1495 78.2855 35.0806V34.5928L79.5344 34.383L79.71 34.8367C79.866 34.8574 80.0196 34.8934 80.1685 34.944L80.5247 34.6074L81.5589 35.344L81.3589 35.788C81.4554 35.9124 81.5388 36.0464 81.6077 36.188H82.0955L82.3102 37.4418L81.8516 37.6125C81.8332 37.7689 81.7972 37.9227 81.7443 38.0711L82.0809 38.4272L81.3442 39.4614L80.9003 39.2614C80.7759 39.3579 80.6419 39.4413 80.5003 39.5102V39.998L79.2514 40.2127ZM78.5343 39.237L78.6367 39.276C78.8224 39.3494 79.0181 39.3938 79.2173 39.4078H79.3246L79.4758 39.798L80.1588 39.6858V39.2663L80.2612 39.2224C80.4363 39.1372 80.6002 39.0307 80.7491 38.9053L80.832 38.837L81.2125 39.0077L81.6174 38.4418L81.3296 38.1345L81.3686 38.032C81.4415 37.848 81.4859 37.6538 81.5004 37.4564V37.3442L81.8906 37.1978L81.7784 36.51H81.3589L81.315 36.4124C81.232 36.2361 81.1253 36.072 80.9979 35.9246L80.9296 35.8416L81.1003 35.4562L80.5344 35.0513L80.2271 35.3392L80.1246 35.3001C79.9398 35.2299 79.746 35.1855 79.549 35.1684H79.4368L79.2904 34.7781L78.6026 34.8952V35.3099L78.505 35.3587C78.3287 35.4396 78.1645 35.5447 78.0172 35.6709L77.9342 35.7392L77.5537 35.5684L77.1488 36.1392L77.4366 36.4417L77.3976 36.5441C77.3243 36.7298 77.2798 36.9256 77.2659 37.1247V37.232L76.8756 37.3832L76.9927 38.0662H77.4074L77.4513 38.1686C77.5353 38.3444 77.6419 38.5083 77.7684 38.6565L77.8367 38.7394L77.6659 39.1199L78.2367 39.5248L78.5343 39.237ZM79.3978 38.6565C79.1801 38.6572 78.9653 38.6064 78.771 38.5082C78.5767 38.4101 78.4084 38.2674 78.2797 38.0918C78.1511 37.9162 78.0658 37.7126 78.0308 37.4978C77.9958 37.2829 78.0121 37.0628 78.0784 36.8555C78.1447 36.6482 78.2591 36.4594 78.4122 36.3047C78.5653 36.15 78.7529 36.0337 78.9595 35.9653C79.1662 35.8968 79.3861 35.8783 79.6013 35.911C79.8165 35.9438 80.0209 36.027 80.1978 36.1539C80.4214 36.3112 80.5931 36.5315 80.691 36.7868C80.7888 37.0421 80.8083 37.3208 80.7471 37.5873C80.6858 37.8537 80.5466 38.0959 80.3471 38.2829C80.1476 38.4698 79.8969 38.5931 79.627 38.637C79.5518 38.6542 79.475 38.664 79.3978 38.6662V38.6565ZM79.3978 36.2514C79.248 36.2516 79.1001 36.2843 78.9642 36.3473C78.8284 36.4102 78.7078 36.5019 78.6108 36.616C78.5139 36.7301 78.4429 36.8639 78.4027 37.0082C78.3625 37.1525 78.3542 37.3037 78.3782 37.4515C78.4257 37.7204 78.5762 37.9602 78.7977 38.1199C79.0219 38.2767 79.2985 38.3397 79.5685 38.2955C79.7692 38.2615 79.9553 38.1687 80.1032 38.029C80.2512 37.8892 80.3544 37.7087 80.3999 37.5103C80.4453 37.3119 80.4309 37.1045 80.3584 36.9143C80.286 36.7241 80.1588 36.5596 79.9929 36.4417C79.82 36.3211 79.6135 36.2579 79.4026 36.2612L79.3978 36.2514Z" fill="#A1D4FF"/>
<path d="M69.5627 41.6713L69.1724 40.6518C68.757 40.6032 68.3481 40.51 67.9528 40.3737L67.1576 41.1152L65.0013 39.5834L65.4453 38.6077C65.1847 38.2794 64.9621 37.9226 64.7818 37.5442L63.6891 37.5101L63.25 34.9001L64.2696 34.5098C64.3158 34.0941 64.4091 33.6849 64.5477 33.2902L63.8061 32.4951L65.338 30.3388L66.3136 30.7827C66.6408 30.5205 66.9977 30.2978 67.3771 30.1193L67.4113 29.0265L70.0212 28.5875L70.4115 29.607C70.8272 29.6533 71.2364 29.7466 71.6311 29.8851L72.4263 29.1387L74.5825 30.6754L74.1386 31.6511C74.4007 31.9793 74.6249 32.3361 74.8069 32.7146L75.8948 32.7487L76.3339 35.3587L75.3143 35.749C75.2681 36.1647 75.1748 36.5739 75.0362 36.9686L75.7826 37.7637L74.2459 39.92L73.2702 39.4761C72.9419 39.7367 72.5852 39.9592 72.2068 40.1395L72.1726 41.2323L69.5627 41.6713ZM67.8455 39.8322L67.9821 39.8858C68.4229 40.0573 68.8863 40.1641 69.3578 40.2029H69.5041L69.8602 41.1347L71.7189 40.8176L71.7531 39.8419L71.8848 39.7834C72.3174 39.5892 72.7212 39.3364 73.0849 39.0321L73.1971 38.9394L74.1093 39.3443L75.2021 37.8077L74.5191 37.0808L74.5679 36.9442C74.7399 36.5018 74.8467 36.0367 74.885 35.5636V35.4221L75.8168 35.066L75.5046 33.2073L74.5045 33.1732L74.4459 33.0414C74.2517 32.6089 73.9989 32.2051 73.6947 31.8414L73.602 31.7292L74.0069 30.8169L72.4702 29.7241L71.7433 30.4071L71.6116 30.3583C71.1688 30.1874 70.704 30.0806 70.231 30.0412H70.0846L69.7285 29.1095L67.8699 29.4217L67.8357 30.3974L67.704 30.4559C67.2704 30.6483 66.8664 30.9013 66.5039 31.2072L66.3917 31.2999L65.4843 30.8949L64.3915 32.4316L65.0745 33.1585L65.0209 33.2951C64.8494 33.736 64.7426 34.1994 64.7038 34.6708V34.8172L63.772 35.1733L64.0891 37.032L65.0648 37.0661L65.1233 37.1979C65.3175 37.6304 65.5703 38.0342 65.8746 38.3979L65.9673 38.5101L65.5624 39.4175L67.0991 40.5103L67.8455 39.8322ZM69.7968 38.1296C69.1214 38.1324 68.4647 37.9079 67.9323 37.4923C67.3999 37.0766 67.0228 36.494 66.8615 35.8381C66.7003 35.1822 66.7644 34.4912 67.0434 33.8761C67.3225 33.261 67.8003 32.7577 68.4001 32.447C68.9998 32.1363 69.6866 32.0364 70.35 32.1633C71.0134 32.2902 71.6148 32.6365 72.0576 33.1466C72.5003 33.6566 72.7587 34.3008 72.791 34.9754C72.8234 35.6501 72.6279 36.316 72.236 36.8661C71.9594 37.2557 71.5938 37.5737 71.1695 37.7934C70.7453 38.0132 70.2746 38.1285 69.7968 38.1296ZM69.7968 32.5731C69.4261 32.5721 69.0596 32.6521 68.7231 32.8077C68.3866 32.9632 68.0882 33.1905 67.8488 33.4736C67.6094 33.7566 67.4349 34.0887 67.3374 34.4463C67.2399 34.804 67.2218 35.1787 67.2844 35.5441C67.4129 36.1948 67.7902 36.7697 68.3361 37.1465C68.882 37.5233 69.5533 37.6723 70.2073 37.5617C70.8613 37.4511 71.4464 37.0897 71.838 36.5544C72.2296 36.019 72.3969 35.352 72.3043 34.6952C72.2032 34.1028 71.8962 33.5652 71.4375 33.177C70.9788 32.7887 70.3978 32.5749 69.7968 32.5731Z" fill="#A1D4FF"/>
<path d="M8.68354 44.1154C6.37877 44.118 4.16731 43.2052 2.5353 41.5778C0.903301 39.9504 -0.0156526 37.7415 -0.0195312 35.4367H0.468309C0.468309 37.0615 0.950124 38.6499 1.85283 40.0009C2.75553 41.3518 4.03857 42.4048 5.53971 43.0266C7.04085 43.6484 8.69266 43.8111 10.2863 43.4941C11.8799 43.1771 13.3437 42.3947 14.4926 41.2458C15.6415 40.0968 16.4239 38.633 16.7409 37.0394C17.0579 35.4458 16.8952 33.794 16.2734 32.2929C15.6516 30.7917 14.5987 29.5087 13.2477 28.606C11.8967 27.7033 10.3084 27.2215 8.68354 27.2215V26.7336C10.9853 26.7336 13.1927 27.648 14.8203 29.2756C16.4479 30.9031 17.3622 33.1106 17.3622 35.4123C17.3622 37.7141 16.4479 39.9215 14.8203 41.5491C13.1927 43.1767 10.9853 44.091 8.68354 44.091V44.1154ZM8.68354 42.9104C7.20538 42.9104 5.76042 42.4721 4.53137 41.6509C3.30232 40.8297 2.3444 39.6624 1.77873 38.2968C1.21306 36.9311 1.06506 35.4284 1.35343 33.9787C1.64181 32.5289 2.35361 31.1972 3.39883 30.152C4.44405 29.1068 5.77574 28.395 7.2255 28.1066C8.67525 27.8182 10.178 27.9662 11.5436 28.5319C12.9093 29.0976 14.0765 30.0555 14.8977 31.2845C15.7189 32.5136 16.1573 33.9586 16.1573 35.4367H15.6694C15.6713 34.0488 15.2612 32.6915 14.491 31.5368C13.7208 30.3822 12.6252 29.4822 11.343 28.9508C10.0608 28.4195 8.64967 28.2807 7.28851 28.552C5.92734 28.8234 4.67737 29.4927 3.69697 30.4752C2.71656 31.4576 2.04986 32.709 1.78134 34.0707C1.51281 35.4325 1.65455 36.8433 2.1886 38.1244C2.72265 39.4055 3.62496 40.4992 4.78121 41.267C5.93746 42.0348 7.2956 42.4421 8.68354 42.4372V42.9104Z" fill="#78C2FF"/>
<path d="M7.61534 38.3101L4.48828 35.1782L4.81513 34.8514L7.61534 37.6516L12.5474 32.7244L12.8743 33.0512L7.61534 38.3101Z" fill="#78C2FF"/>
<path d="M191.988 141.864H126.047H60.11L45.6797 195.805H126.481H206.418L191.988 141.864Z" fill="#3E515A"/>
<path d="M65.1032 151.328H73.2062C73.2791 151.321 73.3526 151.33 73.4214 151.355C73.4902 151.381 73.5524 151.421 73.6035 151.473C73.6546 151.526 73.6932 151.589 73.7165 151.659C73.7397 151.728 73.7471 151.802 73.7379 151.875L72.9525 155.402C72.9186 155.514 72.8477 155.612 72.7512 155.68C72.6546 155.747 72.5382 155.78 72.4208 155.772H64.1811C64.1072 155.779 64.0328 155.769 63.9634 155.743C63.894 155.716 63.8315 155.675 63.7807 155.621C63.7299 155.566 63.6921 155.501 63.6702 155.431C63.6483 155.36 63.6428 155.285 63.6543 155.211L64.5763 151.689C64.6132 151.58 64.6845 151.486 64.7795 151.421C64.8745 151.356 64.9881 151.323 65.1032 151.328Z" fill="white"/>
<path d="M76.924 151.328H83.0464L82.2317 155.772H75.9922L76.924 151.328Z" fill="white"/>
<path d="M86.1077 151.328H92.2301L91.591 155.772L85.3516 155.777L86.1077 151.328Z" fill="white"/>
<path d="M95.2954 151.328H101.423L100.954 155.772H94.7148L95.2954 151.328Z" fill="white"/>
<path d="M104.484 151.328H110.606L110.314 155.772H104.074L104.484 151.328Z" fill="white"/>
<path d="M113.672 151.328H119.799L119.682 155.772L113.438 155.777L113.672 151.328Z" fill="white"/>
<path d="M187.194 151.328H178.008L178.998 155.772H188.36L187.194 151.328Z" fill="white"/>
<path d="M174.943 151.328H168.82L169.635 155.772H175.874L174.943 151.328Z" fill="white"/>
<path d="M165.76 151.328H159.633L160.272 155.772L166.516 155.777L165.76 151.328Z" fill="white"/>
<path d="M156.568 151.328H150.445L150.909 155.772H157.153L156.568 151.328Z" fill="white"/>
<path d="M147.381 151.328H141.254L141.547 155.772H147.786L147.381 151.328Z" fill="white"/>
<path d="M138.189 151.328H132.066L132.183 155.772L138.423 155.777L138.189 151.328Z" fill="white"/>
<path d="M122.859 151.328H128.987L129.089 155.772H122.859V151.328Z" fill="white"/>
<path d="M62.4083 159.085H75.2044L74.4775 163.671H61.4375L62.4083 159.085Z" fill="white"/>
<path d="M189.196 159.085H173.375L174.273 163.671H190.396L189.196 159.085Z" fill="white"/>
<path d="M170.206 159.085H163.879L164.601 163.671H171.05L170.206 159.085Z" fill="white"/>
<path d="M160.714 159.085H154.387L154.928 163.671H161.377L160.714 159.085Z" fill="white"/>
<path d="M151.222 159.085H144.895L145.256 163.671H151.705L151.222 159.085Z" fill="white"/>
<path d="M141.726 159.085H135.398L135.579 163.671H142.028L141.726 159.085Z" fill="white"/>
<path d="M60.496 167.261H73.5799L72.6237 171.817H59.3008L60.496 167.261Z" fill="white"/>
<path d="M76.8547 167.261H83.3966L82.6209 171.817H75.957L76.8547 167.261Z" fill="white"/>
<path d="M86.6654 167.261H93.2073H135.732L135.918 171.817H85.9531L86.6654 167.261Z" fill="white"/>
<path d="M139.004 167.261H145.551L145.907 171.817H139.243L139.004 167.261Z" fill="white"/>
<path d="M148.82 167.261H155.362L155.899 171.817H149.24L148.82 167.261Z" fill="white"/>
<path d="M158.637 167.261H165.179L165.896 171.817H159.232L158.637 167.261Z" fill="white"/>
<path d="M168.453 167.261H174.995L175.888 171.817H169.229L168.453 167.261Z" fill="white"/>
<path d="M178.262 167.261H191.35L192.541 171.817H179.218L178.262 167.261Z" fill="white"/>
<path d="M132.25 159.085H125.977V163.671H132.372L132.25 159.085Z" fill="white"/>
<path d="M122.759 159.085H116.427L116.246 163.671H122.695L122.759 159.085Z" fill="white"/>
<path d="M113.266 159.085H106.939L106.578 163.671H113.027L113.266 159.085Z" fill="white"/>
<path d="M103.775 159.085H97.4478L96.9062 163.671H103.356L103.775 159.085Z" fill="white"/>
<path d="M94.2798 159.085H87.9525L87.2305 163.671H93.6797L94.2798 159.085Z" fill="white"/>
<path d="M84.7884 159.085H78.4611L77.5586 163.671H84.0078L84.7884 159.085Z" fill="white"/>
<path d="M65.3984 148.533L66.4375 144.562H69.4134L68.4426 148.533H65.3984Z" fill="white"/>
<path d="M72.3898 144.562H78.3366L77.5072 148.533H71.4531L72.3898 144.562Z" fill="white"/>
<path d="M81.3118 144.562H87.2586L86.5805 148.533H80.5312L81.3118 144.562Z" fill="white"/>
<path d="M90.2377 144.562H96.1845L95.6625 148.533H89.6133L90.2377 144.562Z" fill="white"/>
<path d="M99.1549 144.562H105.107L104.741 148.533H98.6914L99.1549 144.562Z" fill="white"/>
<path d="M108.078 144.562H114.03L113.82 148.533H107.766L108.078 144.562Z" fill="white"/>
<path d="M117 144.562H122.952L122.898 148.533H116.844L117 144.562Z" fill="white"/>
<path d="M125.922 144.562H131.869L131.976 148.533H125.922V144.562Z" fill="white"/>
<path d="M134.844 144.562H140.791L141.054 148.533H135L134.844 144.562Z" fill="white"/>
<path d="M143.766 144.562H149.712L150.132 148.533H144.078L143.766 144.562Z" fill="white"/>
<path d="M152.688 144.562H158.634L159.205 148.533H153.156L152.688 144.562Z" fill="white"/>
<path d="M161.613 144.562H167.56L168.287 148.533H162.238L161.613 144.562Z" fill="white"/>
<path d="M170.535 144.562H176.482L177.365 148.533H171.316L170.535 144.562Z" fill="white"/>
<path d="M179.457 144.562H185.404L186.443 148.533H180.389L179.457 144.562Z" fill="white"/>
<path d="M202.221 200.01H49.8829C48.7698 200.008 47.7027 199.565 46.916 198.778C46.1294 197.99 45.6875 196.923 45.6875 195.809H206.421C206.421 196.923 205.979 197.992 205.191 198.78C204.403 199.567 203.335 200.01 202.221 200.01Z" fill="#263238"/>
<path d="M144.736 178.374C144.662 177.911 144.424 177.491 144.066 177.189C143.708 176.887 143.253 176.724 142.784 176.73H109.304C108.836 176.724 108.381 176.887 108.022 177.189C107.664 177.491 107.426 177.911 107.353 178.374L105.26 191.058C105.21 191.341 105.224 191.631 105.299 191.908C105.375 192.185 105.511 192.442 105.697 192.661C105.884 192.88 106.116 193.054 106.378 193.173C106.639 193.291 106.924 193.35 107.211 193.346H144.868C145.155 193.35 145.439 193.291 145.701 193.173C145.963 193.054 146.195 192.88 146.382 192.661C146.568 192.442 146.704 192.185 146.779 191.908C146.855 191.631 146.868 191.341 146.819 191.058L144.736 178.374Z" fill="#4D78EB"/>
<path d="M86.6225 69.4197H72.9922V70.815H86.6225V69.4197Z" fill="#E0E0E0"/>
<path d="M100.281 79.9278H90.4414V81.323H100.281V79.9278Z" fill="#E0E0E0"/>
<path d="M108.349 79.9278H101.816V81.323H108.349V79.9278Z" fill="#1487E3"/>
<path d="M79.6806 106.359H73.1484V107.754H79.6806V106.359Z" fill="#1487E3"/>
<path d="M125.404 79.9278H109.637V81.323H125.404V79.9278Z" fill="#E0E0E0"/>
<path d="M83.2809 101.066H73.1484V102.461H83.2809V101.066Z" fill="#E0E0E0"/>
<path d="M93.4593 111.613H87.2734V113.008H93.4593V111.613Z" fill="#E0E0E0"/>
<path d="M85.403 111.613H73.1484V113.008H85.403V111.613Z" fill="#1487E3"/>
<path d="M79.9099 116.867H73.1484V118.262H79.9099V116.867Z" fill="#E0E0E0"/>
<path d="M98.9522 69.4197H89.2734V70.815H98.9522V69.4197Z" fill="#78C2FF"/>
<path d="M98.9522 85.1818H89.2734V86.577H98.9522V85.1818Z" fill="#1487E3"/>
<path d="M88.5783 90.4359H84.4414V91.8311H88.5783V90.4359Z" fill="#E0E0E0"/>
<path d="M89.5932 95.768H80.3047V97.1632H89.5932V95.768Z" fill="#78C2FF"/>
<path d="M103.817 95.768H90.9961V97.1632H103.817V95.768Z" fill="#1487E3"/>
<path d="M82.8272 90.4749H73.1484V91.8701H82.8272V90.4749Z" fill="#1487E3"/>
<path d="M78.8903 95.768H73.1484V97.1632H78.8903V95.768Z" fill="#1487E3"/>
<path d="M95.9385 90.4749H90.5234V91.8701H95.9385V90.4749Z" fill="#FF6C37"/>
<path d="M78.7275 122.121H73.3125V123.516H78.7275V122.121Z" fill="#FF6C37"/>
<path d="M82.7881 79.9278H73.1094V81.323H82.7881V79.9278Z" fill="#78C2FF"/>
<path d="M91.3467 106.359H81.668V107.754H91.3467V106.359Z" fill="#78C2FF"/>
<path d="M91.4639 116.867H81.7852V118.262H91.4639V116.867Z" fill="#78C2FF"/>
<path d="M108.655 116.867H98.9766V118.262H108.655V116.867Z" fill="#78C2FF"/>
<path d="M86.9055 85.1818H73.1094V86.577H86.9055V85.1818Z" fill="#78C2FF"/>
<path d="M147.429 69.4197H137.75V70.815H147.429V69.4197Z" fill="#78C2FF"/>
<path d="M112.96 122.121H103.281V123.516H112.96V122.121Z" fill="#78C2FF"/>
<path d="M156.92 69.4197H150.441V70.815H156.92V69.4197Z" fill="#78C2FF"/>
<path d="M178.834 74.6738H172.355V76.069H178.834V74.6738Z" fill="#78C2FF"/>
<path d="M113.886 69.4197H101.559V70.815H113.886V69.4197Z" fill="#1487E3"/>
<path d="M161.925 74.6738H149.598V76.069H161.925V74.6738Z" fill="#1487E3"/>
<path d="M146.804 79.9278H134.477V81.323H146.804V79.9278Z" fill="#1487E3"/>
<path d="M130.75 85.1818H118.422V86.577H130.75V85.1818Z" fill="#1487E3"/>
<path d="M157.122 79.9278H148.355V81.323H157.122V79.9278Z" fill="#78C2FF"/>
<path d="M135.336 69.4197H123.008V70.815H135.336V69.4197Z" fill="#FF6C37"/>
<path d="M116.171 85.1818H108.941V86.577H116.171V85.1818Z" fill="#FF6C37"/>
<path d="M110.511 106.437H103.281V107.832H110.511V106.437Z" fill="#FF6C37"/>
<path d="M120.68 69.4197H116.168V70.815H120.68V69.4197Z" fill="#E0E0E0"/>
<path d="M106.071 85.1818H101.559V86.577H106.071V85.1818Z" fill="#E0E0E0"/>
<path d="M169.411 74.6738H164.898V76.069H169.411V74.6738Z" fill="#E0E0E0"/>
<path d="M80.0512 74.6738H72.9922V76.069H80.0512V74.6738Z" fill="#1487E3"/>
<path d="M97.408 101.105H91.832V102.5H97.408V101.105Z" fill="#1487E3"/>
<path d="M84.0634 74.6738H81.7852V76.069H84.0634V74.6738Z" fill="#1487E3"/>
<path d="M147.426 74.6738H128.586V76.069H147.426V74.6738Z" fill="#E0E0E0"/>
<path d="M129.349 116.867H110.504V118.262H129.349V116.867Z" fill="#E0E0E0"/>
<path d="M88.0692 74.6738H85.7422V76.069H88.0692V74.6738Z" fill="#FF6C37"/>
<path d="M126.85 74.6738H120.684V76.069H126.85V74.6738Z" fill="#1487E3"/>
<path d="M133.01 79.9278H126.844V81.323H133.01V79.9278Z" fill="#FF6C37"/>
<path d="M101.315 122.121H95.1484V123.516H101.315V122.121Z" fill="#FF6C37"/>
<path d="M119.052 74.6738H105.934V76.069H119.052V74.6738Z" fill="#1487E3"/>
<path d="M101.387 106.437H93.7227V107.832H101.387V106.437Z" fill="#1487E3"/>
<path d="M97.0649 116.867H93.2305V118.262H97.0649V116.867Z" fill="#1487E3"/>
<path d="M104.071 74.6738H99.5586V76.069H104.071V74.6738Z" fill="#78C2FF"/>
<path d="M88.8797 79.9278H84.3672V81.323H88.8797V79.9278Z" fill="#FF6C37"/>
<path d="M89.7821 101.105H85.2695V102.5H89.7821V101.105Z" fill="#FF6C37"/>
<path d="M97.8367 74.6738H89.9727V76.069H97.8367V74.6738Z" fill="#1487E3"/>
<g opacity="0.76">
<path d="M205.109 86.9283H148.085C147.005 86.9283 146.129 87.8042 146.129 88.8846V128.419C146.129 129.5 147.005 130.375 148.085 130.375H205.109C206.189 130.375 207.065 129.5 207.065 128.419V88.8846C207.065 87.8042 206.189 86.9283 205.109 86.9283Z" fill="white"/>
</g>
<path d="M200.482 109.286H190.661C190.247 109.286 189.91 109.622 189.91 110.037V111.555C189.91 111.969 190.247 112.306 190.661 112.306H200.482C200.897 112.306 201.233 111.969 201.233 111.555V110.037C201.233 109.622 200.897 109.286 200.482 109.286Z" fill="#4AAFFF"/>
<path d="M200.482 114.94H190.661C190.247 114.94 189.91 115.276 189.91 115.691V117.209C189.91 117.623 190.247 117.96 190.661 117.96H200.482C200.897 117.96 201.233 117.623 201.233 117.209V115.691C201.233 115.276 200.897 114.94 200.482 114.94Z" fill="#4AAFFF"/>
<path d="M200.482 120.594H190.661C190.247 120.594 189.91 120.931 189.91 121.345V122.863C189.91 123.278 190.247 123.614 190.661 123.614H200.482C200.897 123.614 201.233 123.278 201.233 122.863V121.345C201.233 120.931 200.897 120.594 200.482 120.594Z" fill="#4AAFFF"/>
<path d="M184.444 102.554C183.7 100.474 182.553 98.5611 181.07 96.9243C179.586 95.2876 177.795 93.959 175.798 93.0145C173.801 92.07 171.638 91.528 169.432 91.4196C167.226 91.3111 165.02 91.6383 162.94 92.3824C160.86 93.1265 158.947 94.273 157.31 95.7563C155.673 97.2397 154.345 99.031 153.4 101.028C152.456 103.025 151.914 105.188 151.805 107.394C151.697 109.601 152.024 111.807 152.768 113.886C152.895 114.243 153.032 114.589 153.183 114.93C154.927 118.928 158.155 122.092 162.186 123.755C166.218 125.418 170.738 125.451 174.793 123.845C178.848 122.24 182.121 119.122 183.921 115.15C185.722 111.178 185.909 106.662 184.444 102.554ZM172.853 120.116C170.441 120.973 167.826 121.075 165.355 120.411C162.884 119.746 160.674 118.345 159.017 116.394C158.218 115.447 157.561 114.389 157.066 113.252C156.954 112.994 156.851 112.735 156.754 112.467C155.914 110.118 155.789 107.574 156.395 105.154C157.001 102.735 158.311 100.55 160.159 98.8748C162.007 97.1999 164.31 96.1105 166.777 95.7445C169.244 95.3785 171.764 95.7522 174.019 96.8185C176.274 97.8848 178.161 99.5957 179.444 101.735C180.726 103.874 181.345 106.345 181.223 108.837C181.101 111.328 180.243 113.727 178.757 115.73C177.272 117.733 175.225 119.251 172.877 120.092L172.853 120.116Z" fill="#4AAFFF"/>
<path d="M156.578 104.461L152.559 103.208C153.604 99.8682 155.663 96.9371 158.45 94.8215C161.237 92.7058 164.614 91.5106 168.111 91.4018L168.238 95.6119C165.615 95.6914 163.083 96.5866 160.993 98.1727C158.904 99.7588 157.36 101.957 156.578 104.461Z" fill="#1A598C"/>
<path d="M157.065 113.252L153.162 114.93C153.011 114.589 152.875 114.243 152.748 113.886C151.513 110.446 151.436 106.696 152.528 103.208L156.548 104.461C155.729 107.076 155.785 109.887 156.709 112.467C156.826 112.735 156.929 112.994 157.065 113.252Z" fill="#2273B5"/>
<path d="M155.789 119.121C154.712 117.861 153.827 116.449 153.164 114.93L157.023 113.252C157.517 114.389 158.175 115.447 158.974 116.394L155.789 119.121Z" fill="#3788CC"/>
<path d="M174.216 118.194C174.216 118.194 173.402 116.769 174.704 112.95C174.913 112.239 175.323 111.604 175.883 111.12C176.444 110.636 177.132 110.324 177.866 110.221C178.599 110.119 179.347 110.229 180.019 110.54C180.691 110.851 181.259 111.349 181.656 111.974C183.032 114.345 182.568 115.813 180.544 118.487C178.519 121.16 175.06 119.418 174.216 118.194Z" fill="#EEA886"/>
<path d="M184.266 183.94C184.266 183.94 184.48 185.506 184.505 185.745C184.529 185.984 186.885 185.604 186.885 185.604L187.08 183.735C187.08 183.735 184.558 183.716 184.266 183.94Z" fill="#EEA886"/>
<path d="M184.483 185.545C184.068 186.071 183.574 186.528 183.019 186.902C182.297 187.316 181.165 187.477 180.741 187.906C180.429 188.214 179.619 189.541 182.614 189.511C185.609 189.482 187.053 189.697 187.375 189.189C187.697 188.682 186.912 185.438 186.912 185.438C186.112 185.592 185.293 185.628 184.483 185.545Z" fill="black"/>
<path d="M167.965 183.94C167.965 183.94 168.179 185.506 168.209 185.745C168.238 185.984 170.589 185.604 170.589 185.604L170.78 183.735C170.78 183.735 168.287 183.716 167.965 183.94Z" fill="#EEA886"/>
<path d="M168.182 185.545C167.767 186.071 167.274 186.528 166.718 186.902C165.996 187.316 163.338 187.653 162.913 188.077C162.606 188.389 162.094 189.629 166.328 189.511C169.323 189.429 170.772 189.697 171.089 189.189C171.407 188.682 170.626 185.438 170.626 185.438C169.817 185.554 168.998 185.59 168.182 185.545Z" fill="black"/>
<path d="M183.471 144.884C183.471 144.884 184.681 148.635 184.52 151.87C184.359 155.104 185.145 158.636 185.467 162.017C185.823 165.778 187.286 174.701 187.335 176.706C187.384 178.711 187.111 185.15 187.111 185.15L184.184 185.223C184.184 185.223 181.744 169.642 181.096 168.051C180.447 166.461 177.305 155.124 177.193 153.855C177.081 152.587 183.471 144.884 183.471 144.884Z" fill="#407BFF"/>
<path d="M171.355 144.474C171.355 144.474 169.579 154.392 169.365 156.372C169.15 158.353 169.013 165.944 168.906 167.183C168.799 168.422 168.199 183.365 167.633 185.204H170.896C170.896 185.204 174.243 174.34 174.243 169.198C174.243 164.056 176.458 158.021 177.887 154.631C179.317 151.24 182.595 151.157 183.473 144.874C183.473 144.884 172.545 142.479 171.355 144.474Z" fill="#407BFF"/>
<path d="M175.402 119.204C175.604 119.799 175.604 120.443 175.402 121.038C175.031 121.804 180.1 121.345 180.1 121.345C179.981 120.364 180.131 119.369 180.534 118.467C181.193 117.17 175.402 119.204 175.402 119.204Z" fill="#EEA886"/>
<path d="M183.71 145.679C183.71 145.679 181.886 147.552 171.188 145.391L171.353 144.474L183.515 144.933L183.71 145.679Z" fill="#2B3B57"/>
<path d="M174.626 121.287C174.626 121.287 172.753 121.477 172.216 121.58C171.679 121.682 168.084 120.936 167.338 120.858C166.591 120.78 163.435 118.628 163.347 118.37C163.259 118.111 161.435 113.525 161.332 112.516C161.23 111.506 159.566 112.028 159.708 112.716C159.976 113.999 160.318 117.106 160.503 118.004C160.688 118.901 161.249 121.18 161.557 121.448C163.343 122.864 165.34 123.993 167.474 124.795C169.181 125.361 170.818 126.121 172.353 127.058H186.012C186.012 127.058 191.334 119.458 191.447 118.311C191.559 117.165 187.734 109.53 186.968 108.593C186.202 107.657 185.1 108.906 185.1 108.906C185.1 108.906 187.388 115.623 187.695 116.574C188.003 117.526 185.032 121.726 184.217 121.741C183.402 121.755 181.29 121.482 180.382 121.448C179.726 121.396 179.081 121.245 178.47 120.999L174.626 121.287Z" fill="#EEA886"/>
<path d="M168.738 126.346C169.236 126.696 169.656 127.145 169.971 127.666C170.285 128.187 170.489 128.767 170.567 129.37C170.772 131.38 171.129 133.371 171.636 135.327C171.943 136.356 171.367 143.845 171.294 144.376C171.221 144.908 181.876 146.181 183.515 144.913C183.515 144.913 183.973 137.922 184.164 135.937C184.354 133.951 185.271 129.141 185.573 128.492C185.876 127.844 189.583 122.638 189.74 121.96C189.74 121.96 187.822 118.906 186.447 118.867C186.447 118.867 184.261 121.428 183.549 121.541C182.837 121.653 178.475 120.858 178.475 120.848C178.475 120.838 177.987 121.497 175.465 120.736C175.465 120.736 172.45 121.072 171.963 121.136C171.367 121.214 167.24 120.619 167.24 120.619C167.24 120.619 165.582 123.414 165.869 124.829L168.738 126.346Z" fill="black"/>
<path d="M161.454 113.13C161.454 113.13 161.083 111.359 161.532 110.852C161.863 110.479 162.172 110.088 162.459 109.681C162.518 109.569 163.176 109.193 163.176 109.008C163.176 108.823 162.532 108.598 161.966 109.12C161.4 109.642 161.054 109.754 160.83 109.696C160.605 109.637 160.278 107.769 160.254 107.305C160.23 106.842 160.044 105.618 159.766 105.7C159.488 105.783 159.488 106.32 159.488 106.32C159.488 106.32 159.152 105.393 158.927 105.574C158.703 105.754 158.727 106.208 158.727 106.208C158.727 106.208 158.308 105.691 158.195 106.066C158.129 106.301 158.129 106.549 158.195 106.783C158.195 106.783 157.756 106.544 157.732 107.135C157.714 108.128 157.861 109.117 158.166 110.062C158.473 110.681 159.63 112.301 159.771 112.935C159.913 113.569 161.454 113.13 161.454 113.13Z" fill="#EEA886"/>
<path d="M185.493 110.023C185.493 110.023 184.224 107.881 183.79 107.691C183.238 107.528 182.707 107.299 182.209 107.008C181.678 106.627 180.97 106.31 181.009 106.183C181.048 106.057 181.678 106.105 182.351 106.398C183.024 106.691 183.327 106.549 183.385 106.398C183.299 105.869 183.107 105.363 182.819 104.91C182.619 104.656 181.165 103.198 181.409 102.983C181.653 102.768 182.595 103.569 182.746 103.73C182.746 103.73 181.995 102.154 182.288 102.076C182.58 101.998 183.127 102.564 183.127 102.564C183.127 102.564 183.063 101.217 184.517 103.408C184.517 103.408 184.21 102.681 184.654 102.92C185.097 103.159 185.532 104.52 185.673 105.208C185.815 105.896 186.449 108.086 186.99 108.623C187.532 109.159 185.493 110.023 185.493 110.023Z" fill="#EEA886"/>
<path d="M180.534 118.467C179.814 118.454 179.102 118.307 178.436 118.033C177.012 117.545 176.904 115.047 176.597 115.345C176.5 115.451 176.379 115.533 176.244 115.584C176.109 115.634 175.964 115.651 175.821 115.635C175.678 115.618 175.541 115.568 175.422 115.488C175.302 115.407 175.203 115.3 175.133 115.174C175.133 115.174 175.831 114.257 175.509 113.818C175.272 113.516 174.985 113.257 174.66 113.052C174.66 113.052 175.665 108.218 180.226 110.423C185.573 113.003 180.534 118.467 180.534 118.467Z" fill="#353A3D"/>
<path d="M175.402 121.038L175.563 120.341C177.065 120.307 178.567 120.364 180.061 120.511L180.232 121.345C180.232 121.345 178.198 122.267 175.402 121.038Z" fill="#D4D8E8"/>
<path d="M176.122 114.735C176.385 114.291 177.366 113.999 177.478 115.223C177.571 116.199 175.732 117.243 175.712 116.345C175.677 115.779 175.82 115.216 176.122 114.735Z" fill="#EEA886"/>
<path d="M161.378 112.725C160.822 112.736 160.281 112.906 159.817 113.213C159.8 113.392 159.83 113.572 159.905 113.735C160.418 113.502 160.959 113.338 161.515 113.247C161.516 113.064 161.469 112.884 161.378 112.725Z" fill="#E55353"/>
<path d="M160.138 112.989C160.114 113.043 160.102 113.102 160.102 113.161C160.101 113.22 160.112 113.279 160.134 113.334C160.157 113.389 160.189 113.438 160.231 113.481C160.273 113.523 160.322 113.556 160.377 113.579C160.459 113.615 160.551 113.625 160.639 113.609C160.728 113.592 160.809 113.55 160.874 113.487C160.938 113.424 160.982 113.344 161.001 113.255C161.019 113.167 161.011 113.076 160.977 112.992C160.943 112.909 160.886 112.837 160.811 112.787C160.737 112.736 160.649 112.709 160.559 112.709C160.469 112.709 160.381 112.735 160.306 112.785C160.231 112.835 160.172 112.906 160.138 112.989Z" fill="#353A3D"/>
<path d="M134.328 75.6397C134.328 75.6397 135.831 78.1862 136.465 78.6058C137.323 79.1668 136.787 79.7376 136.377 79.7376C135.967 79.7376 133.879 79.8888 133.421 79.3668C132.962 78.8448 132.733 77.2788 132.303 76.869C131.874 76.4593 131.435 74.8348 132.513 74.4298C133.464 74.0884 134.328 75.6397 134.328 75.6397Z" fill="#6069A8"/>
<path d="M133.679 74.5225C133.679 74.5225 135.397 77.5032 135.694 77.9374C135.992 78.3716 135.133 78.3813 134.606 78.1716C134.079 77.9618 132.743 75.8202 132.552 75.4299C132.425 75.1195 132.411 74.7738 132.513 74.4542L133.679 74.5225Z" fill="#202338"/>
<path d="M131.93 76.1226L132.325 79.1814L132.539 79.1911L132.471 76.991L131.93 76.1226Z" fill="#6069A8"/>
<path d="M119.428 75.6397C119.428 75.6397 120.93 78.1862 121.564 78.6058C122.428 79.1668 121.886 79.7376 121.477 79.7376C121.067 79.7376 118.984 79.8888 118.52 79.3668C118.057 78.8448 117.832 77.2788 117.408 76.869C116.984 76.4593 116.52 74.7908 117.613 74.4298C118.574 74.1469 119.428 75.6397 119.428 75.6397Z" fill="#6069A8"/>
<path d="M118.874 74.5274C118.874 74.5274 120.503 77.5032 120.825 77.9423C121.147 78.3813 120.264 78.3862 119.732 78.1764C119.2 77.9667 117.873 75.8251 117.683 75.4348C117.555 75.1247 117.539 74.7795 117.639 74.4591L118.874 74.5274Z" fill="#202338"/>
<path d="M117.031 76.1226L117.431 79.1814L117.641 79.1911L117.578 76.991L117.031 76.1226Z" fill="#6069A8"/>
<path d="M112.766 52.4673L126.362 58.6628C126.818 58.8326 127.217 59.1261 127.515 59.5105C127.814 59.8949 127.999 60.3548 128.05 60.8386C128.577 66.0975 132.513 74.4396 132.513 74.4396C133.772 75.0592 133.679 74.5225 133.679 74.5225C132.884 71.9662 131.913 61.4435 131.567 57.2139C131.494 56.3212 131.45 55.7065 131.44 55.5114C131.43 55.3162 131.289 55.1992 131.035 54.9991C129.172 53.4868 121.493 50.3549 121.493 50.3549C115.732 50.2085 112.766 52.4673 112.766 52.4673Z" fill="#202338"/>
<path d="M110.202 55.1211C110.622 58.7945 115.866 58.375 115.866 58.375H122.208C121.232 60.5768 120.458 62.8628 119.896 65.2047C119.213 68.5318 117.598 74.4152 117.598 74.4152C117.598 74.4152 117.705 74.6152 118.857 74.503C118.857 74.503 123.842 64.5559 125.755 62.0582C126.633 60.4346 127.238 58.6777 127.545 56.8578C127.613 56.2724 127.574 55.8187 127.355 55.6333C127.135 55.4479 126.628 55.1016 125.95 54.6576C123.959 53.399 120.501 51.4672 118.574 51.033C115.993 50.4524 111.915 49.3694 111.915 49.3694C111.222 50.142 110.709 51.0585 110.413 52.0531C110.117 53.0476 110.045 54.0954 110.202 55.1211Z" fill="#202338"/>
<path d="M114.532 26.8263C113.968 25.6684 113.797 24.3583 114.044 23.0943C114.507 21.1723 116.293 19.255 118.922 20.1332C121.552 21.0113 123.644 23.0602 122.079 25.3921C120.513 27.724 123.498 28.807 122.737 29.9192C121.976 31.0315 122.249 32.2023 122.586 32.4609C122.922 32.7194 123.947 33.6463 123.835 34.744C123.723 35.8416 118.761 31.5486 118.761 31.5486C118.761 31.5486 116.049 26.1238 114.532 26.8263Z" fill="#464240"/>
<path d="M122.496 49.911C122.496 49.911 122.101 51.8233 111.949 49.4232C111.949 49.4085 115.354 48.2914 122.496 49.911Z" fill="#EB4747"/>
<path d="M111.833 49.9451L111.345 50.8476L122.478 51.1745C121.887 49.2231 122.078 46.5449 122.185 44.5252C122.307 42.0567 123.649 40.3395 123.527 37.8467C124.258 37.9637 124.385 37.9881 125.122 38.1003C124 34.8952 123.614 33.3049 120.121 32.0755C119.129 31.6953 118.059 31.5647 117.004 31.695C112.96 32.0267 111.736 32.0755 109.75 35.7392C112.862 36.227 112.35 37.3539 113.292 40.4469C113.755 41.9592 114.233 43.6422 113.984 45.2326C113.736 46.8229 111.833 48.5157 111.833 49.9451Z" fill="#325BB3"/>
<path d="M118.292 32.8512C116.633 32.539 116.989 31.6169 116.989 31.6169C116.989 31.6169 117.062 31.095 117.092 30.4412C117.092 30.2721 117.092 30.0965 117.092 29.9144C117.093 29.6421 117.076 29.3699 117.043 29.0997C116.911 27.9874 120.048 28.6509 120.048 28.6509C120.048 28.6509 119.867 30.8998 120.302 31.5779C120.736 32.256 119.945 33.1683 118.292 32.8512Z" fill="#EEA886"/>
<path d="M115.109 31.612C115.109 31.612 118.451 35.466 119.685 36.3587C119.685 36.3587 121.105 35.0806 120.232 31.695C120.251 31.7047 118.636 30.8852 115.109 31.612Z" fill="#EEA886"/>
<path d="M115.225 22.3285C115.225 22.3285 113.488 25.6702 115.225 28.8363C116.962 32.0024 120.323 27.4557 120.542 26.9239C120.762 26.3922 121.923 23.3773 119.616 22.4602C117.308 21.5431 115.718 21.4211 115.225 22.3285Z" fill="#EEA886"/>
<path d="M115.799 23.5139C115.799 23.5139 114.604 25.0848 114.462 26.241C114.222 24.752 114.53 23.2263 115.331 21.948C116.677 19.8405 120.092 21.8455 120.551 22.6895C121.009 23.5334 122.351 24.2701 120.097 27.885C120.097 27.885 116.043 25.0653 115.799 23.5139Z" fill="#464240"/>
<path d="M118.569 29.168C118.223 29.7325 117.712 30.1771 117.105 30.4412C117.105 30.2721 117.105 30.0965 117.105 29.9144C117.657 29.8169 118.166 29.557 118.569 29.168Z" fill="#A77860"/>
<path d="M101.041 46.94C101.041 46.94 100.217 47.3059 99.8263 47.14C99.445 47.0083 99.0444 46.9407 98.6409 46.94C98.3823 46.94 97.5871 46.6571 97.6018 46.9693C97.6164 47.2815 98.8945 47.4962 99.158 47.5937C99.4214 47.6913 98.3726 48.2669 98.275 48.5255C98.1774 48.7841 99.3629 50.4769 100.026 49.989C100.69 49.5012 101.056 48.5548 101.192 48.4914C101.362 48.393 101.525 48.2838 101.68 48.1645L101.041 46.94Z" fill="#EEA886"/>
<path d="M98.4006 48.3743C98.4006 48.3743 96.4492 49.9793 96.4492 50.1939C96.4492 50.4086 96.5175 50.511 96.7078 50.3695L98.625 48.8767C98.625 48.8767 96.6736 51.1647 96.62 51.3159C96.5809 51.4135 96.7663 51.6233 96.8785 51.555C96.9907 51.4867 99.0445 49.3353 99.0445 49.3353C99.0445 49.3353 97.2395 51.4721 97.2298 51.633C97.2314 51.6736 97.2448 51.7127 97.2683 51.7458C97.2917 51.7788 97.3242 51.8044 97.3619 51.8194C97.3996 51.8343 97.4408 51.8381 97.4805 51.8301C97.5203 51.8221 97.5569 51.8028 97.5859 51.7745C97.7322 51.6282 99.5372 49.7402 99.5372 49.7402C99.5372 49.7402 98.3274 51.3794 98.4055 51.5257C98.4835 51.6721 98.6006 51.7989 98.8933 51.3647C99.186 50.9306 100.01 49.9841 100.01 49.9841L98.4006 48.3743Z" fill="#EEA886"/>
<path d="M121.56 58.3799H115.867C115.867 58.3799 110.623 58.7994 110.203 55.126C110.054 54.1054 110.131 53.0644 110.429 52.077C110.728 51.0897 111.24 50.1802 111.93 49.4134C111.93 49.4134 114.701 50.15 117.121 50.7354C118.564 50.435 120.038 50.3073 121.511 50.3549C121.511 50.3549 131.756 53.7405 131.458 55.526C131.439 55.526 127.151 53.2332 121.56 58.3799Z" fill="#FF7E55"/>
<path d="M117.855 52.0185L128.71 51.8575L123.227 54.6382L117.855 52.0185Z" fill="#5E5853"/>
<path d="M121.228 50.633C119.466 51.2023 117.574 51.2329 115.794 50.7208L115.652 49.6036L121.819 49.9451L121.228 50.633Z" fill="#325BB3"/>
<path d="M123.227 54.6381L117.855 52.5551V52.0184L123.651 54.1064L123.227 54.6381Z" fill="#91887F"/>
<path d="M121.191 51.1501C121.179 51.2444 121.192 51.3402 121.23 51.4276C121.267 51.515 121.327 51.5909 121.404 51.6475C121.48 51.7041 121.57 51.7393 121.665 51.7496C121.759 51.76 121.855 51.745 121.942 51.7062L122.576 51.4379C122.668 51.3971 122.743 51.3272 122.791 51.2389C122.839 51.1506 122.856 51.049 122.839 50.95C122.576 49.3109 122.015 42.9202 122.839 41.8226C123.094 41.4978 123.296 41.1358 123.44 40.7493C123.981 42.1494 124.659 43.9544 124.927 44.9252L130.055 51.755L131.777 52.1892C130.689 49.4584 129.394 46.8147 127.903 44.2813C127.572 43.3788 126.606 40.6517 125.757 38.2223C125.215 36.6856 124.723 35.2952 124.459 34.5098C124.324 34.1257 124.058 33.8011 123.708 33.5927C122.913 33.1048 121.591 32.3682 120.391 31.7877L120.273 31.734C122.552 35.1879 121.664 44.9399 121.215 51.1745L121.191 51.1501Z" fill="#EDDAD3"/>
<path d="M112.719 31.9877C111.987 32.0999 110.173 33.861 109.211 35.6368C108.114 37.6662 106.997 39.9737 106.158 40.7298C104.616 42.1299 100.304 47.0718 100.094 46.9449C100.503 47.4939 100.953 48.0109 101.44 48.4914C101.518 48.5255 108.529 42.4519 109.202 41.525C109.875 40.5981 111.548 36.9637 112.06 37.0466C112.554 38.1551 112.971 39.2961 113.309 40.4615L113.339 40.5591C113.706 42.0442 113.757 43.5898 113.49 45.096C113.324 46.3644 112.378 48.428 111.812 49.4329C111.777 49.5164 111.759 49.6059 111.759 49.6964C111.759 49.7868 111.777 49.8763 111.812 49.9598C111.827 50.0072 111.852 50.051 111.885 50.0887C111.917 50.1264 111.957 50.1572 112.002 50.1793L114.056 50.9403L114.544 51.1208C114.692 51.1757 114.851 51.1963 115.009 51.1812C115.166 51.1661 115.319 51.1157 115.454 51.0336C115.59 50.9516 115.705 50.8401 115.791 50.7074C115.878 50.5747 115.933 50.4242 115.953 50.2671C116.412 46.7498 116.988 43.1544 117.451 41.7982C118.056 40.1036 118.299 38.3008 118.162 36.5066C118.026 34.7123 117.515 32.9667 116.661 31.3828C115.337 31.5161 114.022 31.718 112.719 31.9877Z" fill="#EDDAD3"/>
<path d="M123.23 54.6382L126.46 45.8229L136.87 45.9936L133.792 54.1162L123.23 54.6382Z" fill="#6E6760"/>
<path d="M129.788 49.7256C129.471 50.3598 129.569 51.0525 130.003 51.272C130.437 51.4916 131.052 51.1501 131.369 50.5159C131.686 49.8817 131.588 49.189 131.154 48.9694C130.72 48.7499 130.105 49.0914 129.788 49.7256Z" fill="#807066"/>
<path d="M118.817 25.6555C118.817 25.6555 119.48 26.6946 118.866 27.6069C118.251 28.5191 119.022 29.3826 119.153 30.329C119.285 31.2754 116.583 33.7976 119.593 35.0611C122.603 36.3246 123.559 34.2366 122.793 33.0805C122.027 31.9243 121.48 30.9925 121.412 29.3534C121.344 27.7142 120.807 25.1287 118.817 25.6555Z" fill="#464240"/>
<path d="M97.0273 13.2059H109.848V22.4992V24.4555L107.892 22.4992H97.0273V13.2059Z" fill="#78C2FF"/>
</g>
<defs>
<clipPath id="clip0_1447_23201">
<rect width="253.755" height="200" fill="white"/>
</clipPath>
</defs>
</svg>
