<svg id="Layer_1" data-name="Layer 1" xmlns="http://www.w3.org/2000/svg" viewBox="0 0 576.8 674.8"><path d="M314.66,9.67h4c7,1.11,14.18.93,21.24,1.68,13.55,1.43,26.25,5.9,38.7,11.15a176.33,176.33,0,0,1,52.59,34.73C463.12,87.29,481.73,124,487.6,167.3c.6,4.4,1.38,8.87,1,13.38a146.09,146.09,0,0,1-3,41c-5.11,24.06-15.51,45.83-28.71,66.39-6.83,10.63-14.55,20.62-22.18,30.67-7,7.56-12.94,16-18.83,24.42a539.82,539.82,0,0,0-46.14,79.74,564.61,564.61,0,0,0-30.3,77.45c-.72,2.39-2.21,4.48-2.52,7-.33,1.8-1.74,3.28-1.54,5.24-5,19.15-10.07,38.29-13.65,57.78C319,585,316.94,599.61,315,614.28c-.83,6.38-2.87,8.35-8.3,8.37s-7.63-2-8.39-8.28A651.54,651.54,0,0,0,277.62,511.8c.06-2.18-1.46-3.95-1.59-6.09a781.52,781.52,0,0,0-30.27-78.53c-6.08-12.57-12.32-25.05-19.14-37.24-12.6-22.53-26.32-44.35-42.41-64.57-11.61-14.58-23.12-29.2-32.68-45.24-13.08-21.95-22.56-45.22-25.81-70.74-2-15.59-2.24-31.15,1.74-46.53a6.68,6.68,0,0,0,0-2.48c6.69-33.9,21.64-63.8,43.8-90.17,23.5-27.95,52.67-47.09,88.1-56.48,10.5-2.78,21.29-2.69,32-3.57,1.45-.12,3,.47,4.35-.49h4A46.54,46.54,0,0,0,314.66,9.67Z" transform="translate(-7.77 -9.67)" style="fill:#db4a3d"/><path d="M279.47,510.45a533.89,533.89,0,0,1,17.17,74.7c1.51,9.35,2.71,18.74,3.9,28.13.5,3.85,1,7.45,6,7.51s5.73-3.44,6.18-7.35a595.47,595.47,0,0,1,19.79-99.06c.33-1.11.79-2.18,1.19-3.26,5.33-3.61,11.37-2.16,17-1.75,14.58,1.08,29.16,2.05,43.71,3.52q45.21,4.58,89.72,13.5c17.78,3.6,35.44,7.68,52.93,12.52,2.67.74,5.7,1,6.8,4.3.77,2.29-.13,4.18-1.32,6.08-15.62,25-35,46.85-57.09,66.31a280.81,280.81,0,0,1-65.32,42.78c-24.19,11.5-49.45,19.69-76,23.61-10.64,1.58-21.44,1.44-32.17,2-1.79.09-3.65-.55-5.35.48h-2a67,67,0,0,0-18,0h-3c-9.78-1.19-19.64-1.19-29.46-1.85-14.41-1-28.24-4.54-41.91-8.68A290.42,290.42,0,0,1,50.57,551c-1.63-2.56-4-5.12-2.55-8.7,1.31-2,3.56-2.34,5.61-2.92a813.86,813.86,0,0,1,108.08-22.16c24.55-3.42,49.2-6,74-7.26,12-.61,23.91-1.27,35.88-1.73C274.41,508.07,277.3,508.1,279.47,510.45Z" transform="translate(-7.77 -9.67)" style="fill:#20a262"/><path d="M7.77,377.56c2.37-6.79,1.86-14,2.89-21,12.08-81.45,51.46-146.43,117.59-195.31a10.38,10.38,0,0,1,1.31-.72c-9.81,52.75,7.77,98.07,38.28,139.68C184.07,322.38,202,343.29,216,367c11.45,19.34,22.62,38.8,31.57,59.46-1.2,2.39-3.5,2.34-5.63,2.36-16.66.16-33.32.23-50,0-6.32-.09-7.52-1.45-7.58-8.43-.19-21.83-.07-43.65-.07-65.48,0-12.53.59-13.53-11.41-8q-35.85,16.49-71.79,32.8c-3.91,1.78-5,4.91-5,8.92q0,29.49,0,59c0,3.17.12,6.34-.15,9.49-.6,7.34-5.46,12.3-12.33,12.7-8.9.51-14.26-3.14-16-10.89-1.87-8.4-3.59-9.85-12.09-9.95-6.67-.07-13.33-.15-20,0-6.5.19-9.18,2.66-10.48,9.12-.76,3.77-1.44,7.67-6.1,8.76a6,6,0,0,1-2.68-.37c-2.74-1.47-2.84-4.35-3.5-6.86-2.83-10.79-3.62-21.85-4-32.94-.16-4.48-.9-8.93-.56-13.42-.24-1.9.52-3.9-.5-5.73v-3c1.09-5.79.21-11.64.5-17.45-.27-2.5.57-5.09-.5-7.54Z" transform="translate(-7.77 -9.67)" style="fill:#f7d746"/><path d="M584.57,405.55l-.42,0h-.41a3.27,3.27,0,0,1-2.08-2.59,58.28,58.28,0,0,1,0-15.83,3.27,3.27,0,0,1,2.07-2.6c.28,0,.56,0,.84,0Z" transform="translate(-7.77 -9.67)" style="fill:#fefbee"/><path d="M8.61,386.52c-.23,6,1.25,12.1-.84,18v-18Q8.15,385.46,8.61,386.52Z" transform="translate(-7.77 -9.67)" style="fill:#fceeb2"/><path d="M286.67,684.47a33.15,33.15,0,0,1,18,0Z" transform="translate(-7.77 -9.67)" style="fill:#d4ede1"/><path d="M314.66,9.67a24.15,24.15,0,0,1-15,0Z" transform="translate(-7.77 -9.67)" style="fill:#eea9a3"/><path d="M8.61,386.52q-.42,0-.84,0v-7C9.75,381.67,8.45,384.19,8.61,386.52Z" transform="translate(-7.77 -9.67)" style="fill:#fdf3c7"/><path d="M8.61,412.59H8.19l-.42,0v-5C9.42,409,8.64,410.86,8.61,412.59Z" transform="translate(-7.77 -9.67)" style="fill:#fdf7d9"/><path d="M567.55,487.07l0-.1a10.49,10.49,0,0,1-1.17,4.72,14.21,14.21,0,0,0-1.18,3.33q-2.37,6.08-5,12c-3.58,9.1-8.37,17.6-12.88,26.24-1.13,2.15-2.19,4.48-4.39,5.91-2,.71-3.94.07-5.87-.45A866.26,866.26,0,0,0,432,517.22c-20.09-2.86-40.27-5.14-60.54-6.47-10.12-.67-20.22-1.65-30.37-1.93-2.3-.06-4.8.1-5.94-2.65a585.37,585.37,0,0,1,57-130.32c12-20.36,24.8-40.17,40.4-58,1.71.14,2.53,1.48,3.47,2.61a13.48,13.48,0,0,0,9.54,4.76c8.78.92,12.35,4.78,12.46,13.61.18,14.64,0,29.28.08,43.92.05,7.31,1.11,8.34,8.43,8.42,3.5,0,7,.12,10.48-.07,5.4-.29,7.76-2.3,9.12-7.53,2.17-8.39,6.63-12.16,15.1-12.29q19.72-.31,39.44,0c7,.1,8.18,1.26,8.29,8.21.24,15,0,30,.11,44.92,0,7.69,1,8.67,8.59,8.75,5.49.06,11-.1,16.47.11,2.11.08,4.42-.17,5.88,2,.15,2.48.52,5-.39,7.38v-.11c-.88,2.34-.22,5-1.46,7.25.36,2.34-1.37,4.33-1.09,6.66-.93,2.36-1.1,5-2.26,7.25a.89.89,0,0,0-.17.74c.07,1.39-.56,2.68-.58,4.05-.65,2.14-2,4.11-1.52,6.51l-.06.29c-1.13,1.79-1.55,3.93-2.8,5.67l0,.15A11.21,11.21,0,0,1,567.55,487.07Z" transform="translate(-7.77 -9.67)" style="fill:#3f8bf3"/><path d="M20.8,476.18a1.29,1.29,0,0,0-.11-.75c-1.69-1.75-1.46-4.23-2.39-6.28,0-1.22-.66-2.53.41-3.63,3-2.08,3.89-5.1,4.1-8.61.38-6.51,4.4-10.28,11-10.35q12.49-.13,25,0c6.8.06,10.51,3.5,11.18,10.14.82,8.09,4.67,11.4,12.87,11.08,7-.27,10.61-4.41,10.62-12.3q.06-35.24,0-70.46c0-2.57,0-4.58,3-5.95,29.39-13.28,58.7-26.75,88.05-40.15a10.92,10.92,0,0,1,1.89-.39c.08,1.87.24,3.6.24,5.33,0,25.82.15,51.64-.12,77.45-.05,4.62,1.35,5.4,5.55,5.34,18.49-.25,37-.15,55.46-.17a490.39,490.39,0,0,1,30.23,79c-1.28,2.7-3.85,2.26-6.09,2.37-19.09.9-38.19,1.55-57.23,3.22A940.51,940.51,0,0,0,96.67,528.58c-14.15,3.08-28.19,6.6-42.17,10.38a11.73,11.73,0,0,1-4.92.48c-3.82-2-4.91-6.07-6.74-9.44-4.82-8.9-9.09-18.09-13.29-27.3-1-3-2.41-5.85-3.3-8.89-1.38-3-2-6.35-3.41-9.38l-.11-2.5A10.17,10.17,0,0,1,20.8,476.18Z" transform="translate(-7.77 -9.67)" style="fill:#3f8bf3"/><path d="M579.57,435.72c-9.66,0-19.33-.1-29,.15-3.44.09-4.09-1.2-4.07-4.3.13-17.33-.15-34.66.2-52,.1-5-1.47-6-6.13-5.89-13,.32-26,.09-39,.12-8.68,0-11.64,2.53-13.06,11-.9,5.43-4.64,8.8-10.31,8.94-6,.15-12-.14-18,.12-3.56.16-4.48-1.12-4.45-4.55.16-16.33.08-32.65.06-49,0-9.5-2.83-12.48-12.27-13-6.2-.36-9-2.73-11.11-9.49,10.8-14.32,21.54-28.66,30.38-44.34,15.89-28.23,25-58.16,23.68-90.84,0-.82.08-1.65.12-2.48,19.09,16.13,35.13,35,48.95,55.72,30,45,45.85,94.65,48.12,148.66q0,10.51,0,21c-.32,9.38-1.2,18.7-2.39,28C580.82,434.33,581.43,436,579.57,435.72Z" transform="translate(-7.77 -9.67)" style="fill:#f7d746"/><path d="M369.72,188.18c0,35.6-27.6,63.59-62.6,63.53-34.77-.05-62.46-28.42-62.42-64,0-35.13,28.6-64.25,62.74-64C341.85,124.08,369.74,152.92,369.72,188.18Z" transform="translate(-7.77 -9.67)" style="fill:#802a28"/><path d="M48.65,537.72C67.87,533,87,528,106.39,524.05a905.24,905.24,0,0,1,127.55-16.62c14.62-.83,29.25-1.32,43.88-2a11.79,11.79,0,0,1,1.65,5c-76.27,1.39-151.39,11-225.07,31.12-1.9.51-3.73,1.28-5.59,1.94a13.46,13.46,0,0,1-2.92-5.13C46.64,537.43,47.72,537.89,48.65,537.72Z" transform="translate(-7.77 -9.67)" style="fill:#ebebeb"/><path d="M335.11,506.17c60.54,2.36,120.36,10.13,179.3,24.33,9.69,2.33,19.36,4.81,29,7.22a1.87,1.87,0,0,1,2.13.85,14.11,14.11,0,0,1-2.77,5.91c-.16-2.47-2.36-2.08-3.76-2.47a847.62,847.62,0,0,0-116.28-23.45c-29.55-3.9-59.22-6.46-89-7.44Z" transform="translate(-7.77 -9.67)" style="fill:#ebebeb"/><path d="M18.71,465.52l.13,4c.55,1,0,1-.78,1l-1.14-5Z" transform="translate(-7.77 -9.67)" style="fill:#f2d756"/><path d="M545.58,538.57l-2.13-.86c6.06-10.05,11.16-20.61,16.26-31.17.94-.07,1.54.15,1.06,1.26A199.39,199.39,0,0,1,545.58,538.57Z" transform="translate(-7.77 -9.67)" style="fill:#f2d651"/><path d="M560.77,507.8l-1.06-1.26,5-12c.9-.16,1.45,0,1,1.09A50.89,50.89,0,0,1,560.77,507.8Z" transform="translate(-7.77 -9.67)" style="fill:#ecd55d"/><path d="M574.74,463.64a18,18,0,0,1,1.7-7.17c.35-.75.65-.73.91,0C576.67,459,577.26,461.87,574.74,463.64Z" transform="translate(-7.77 -9.67)" style="fill:#d6d086"/><path d="M579.57,435.72l1.78-2.16c-.39,3.05-.16,6.22-1.8,9C579.56,440.3,579.56,438,579.57,435.72Z" transform="translate(-7.77 -9.67)" style="fill:#ecdb80"/><path d="M569.61,480.9c.53-2.09.14-4.64,2.8-5.67C571.9,477.32,572.29,479.87,569.61,480.9Z" transform="translate(-7.77 -9.67)" style="fill:#e1d476"/><path d="M567.55,487.07a13.34,13.34,0,0,1,2-6C570.85,483.72,570.11,485.7,567.55,487.07Z" transform="translate(-7.77 -9.67)" style="fill:#dfd171"/><path d="M573.48,468.05a5.12,5.12,0,0,1,1.09-3.67c1.27,2.36,0,4.36-.87,6.43A2.32,2.32,0,0,1,573.48,468.05Z" transform="translate(-7.77 -9.67)" style="fill:#e2d57d"/><path d="M573.48,468.05c.07.92.14,1.84.22,2.76l-1.23,4.13C570.74,472.34,572.81,470.3,573.48,468.05Z" transform="translate(-7.77 -9.67)" style="fill:#d0ca76"/><path d="M565.73,491.53l1.86-4.56c1.52,2.18,0,3.92-.84,5.75C566,492.67,565.9,492.07,565.73,491.53Z" transform="translate(-7.77 -9.67)" style="fill:#e7d56b"/><path d="M577.35,456.52c-.3,0-.61,0-.91,0,.44-2.31.87-4.62,1.31-6.92.24-.51.5-.51.77,0Z" transform="translate(-7.77 -9.67)" style="fill:#d1c971"/><path d="M578.52,449.53l-.77,0c.69-2.34.24-5,1.8-7.07A12.94,12.94,0,0,1,578.52,449.53Z" transform="translate(-7.77 -9.67)" style="fill:#cac67a"/><path d="M565.73,491.53l1,1.19-1.1,2.91c-.32-.37-.65-.73-1-1.09C565,493.53,565.38,492.53,565.73,491.53Z" transform="translate(-7.77 -9.67)" style="fill:#ead460"/><path d="M48.65,537.72a3.3,3.3,0,0,1-2.76.66C40.16,527,33.71,516,29.58,503.86a1.16,1.16,0,0,1,.33-1.69c3.72,5.15,5.31,11.36,8.41,16.82C41.83,525.19,45.21,531.47,48.65,537.72Z" transform="translate(-7.77 -9.67)" style="fill:#f2d652"/><path d="M22.84,484.43c2.62,2.43,2.74,6,4,9,.51.94.87,1.82-.72,2C24.87,491.8,22.76,488.44,22.84,484.43Z" transform="translate(-7.77 -9.67)" style="fill:#f4d95b"/><path d="M26.08,495.43l.72-2a30.92,30.92,0,0,1,3.11,8.74l-.33,1.69C27.65,501.37,27.16,498.28,26.08,495.43Z" transform="translate(-7.77 -9.67)" style="fill:#ebd560"/><path d="M18.06,470.5l.78-1a13.91,13.91,0,0,1,1.85,5.95C18.1,474.7,18.69,472.27,18.06,470.5Z" transform="translate(-7.77 -9.67)" style="fill:#dfd47b"/><path d="M20.8,476.18a12.16,12.16,0,0,1,1.93,5.75C20.19,480.65,19.73,478.67,20.8,476.18Z" transform="translate(-7.77 -9.67)" style="fill:#dfd274"/></svg>