<svg width="22" height="24" viewBox="0 0 22 24" fill="none" xmlns="http://www.w3.org/2000/svg">
<path d="M18.3333 4.45664C20.8633 6.98413 21.8167 10.5152 21.2178 13.8108C21.7189 14.7029 22 15.7436 22 16.8463C22 18.4893 21.3562 20.0649 20.2101 21.2267C19.064 22.3884 17.5097 23.0411 15.8889 23.0411C14.8011 23.0411 13.7744 22.7562 12.8944 22.2482C9.64333 22.8553 6.16 21.8889 3.66667 19.3242C1.13667 16.7967 0.183333 13.2657 0.782222 9.97004C0.281111 9.07798 0 8.03725 0 6.93457C0 5.2916 0.643847 3.71592 1.7899 2.55417C2.93596 1.39241 4.49034 0.739746 6.11111 0.739746C7.19889 0.739746 8.22556 1.02471 9.10556 1.53268C12.3567 0.925591 15.84 1.89198 18.3333 4.45664ZM11.0489 18.2835C14.5567 18.2835 16.3044 16.5737 16.3044 14.2692C16.3044 12.7949 15.62 11.2214 12.9678 10.6143L10.5356 10.0692C9.60667 9.85853 8.55556 9.57357 8.55556 8.6939C8.55556 7.80185 9.28889 7.18236 10.6333 7.18236C13.3589 7.18236 13.1022 9.07798 14.4589 9.07798C15.1678 9.07798 15.7789 8.65673 15.7789 7.92574C15.7789 6.22836 13.1022 4.95223 10.8289 4.95223C8.37222 4.95223 5.74444 6.01774 5.74444 8.84258C5.74444 10.2054 6.22111 11.655 8.86111 12.3241L12.1489 13.1666C13.1389 13.4144 13.3833 13.9719 13.3833 14.4923C13.3833 15.3348 12.5522 16.1649 11.0489 16.1649C8.10333 16.1649 8.50667 13.8728 6.93 13.8728C6.22111 13.8728 5.70778 14.3684 5.70778 15.0746C5.70778 16.4498 7.33333 18.2835 11.0489 18.2835Z" fill="#929292"/>
</svg>
