<svg width="23" height="23" viewBox="0 0 23 23" fill="none" xmlns="http://www.w3.org/2000/svg">
<path d="M19.8212 0.369873C20.4695 0.369873 21.0912 0.63094 21.5497 1.09564C22.0081 1.56034 22.2656 2.19062 22.2656 2.8478V20.1933C22.2656 20.8505 22.0081 21.4808 21.5497 21.9455C21.0912 22.4102 20.4695 22.6712 19.8212 22.6712H2.71007C2.06176 22.6712 1.44001 22.4102 0.981586 21.9455C0.523164 21.4808 0.265625 20.8505 0.265625 20.1933V2.8478C0.265625 2.19062 0.523164 1.56034 0.981586 1.09564C1.44001 0.63094 2.06176 0.369873 2.71007 0.369873H19.8212ZM19.2101 19.5738V13.0073C19.2101 11.9361 18.7903 10.9088 18.0431 10.1513C17.2958 9.39383 16.2824 8.96829 15.2256 8.96829C14.1867 8.96829 12.9767 9.61255 12.3901 10.5789V9.20369H8.98007V19.5738H12.3901V13.4657C12.3901 12.5117 13.1478 11.7312 14.089 11.7312C14.5428 11.7312 14.978 11.9139 15.2989 12.2392C15.6198 12.5645 15.8001 13.0057 15.8001 13.4657V19.5738H19.2101ZM5.00785 7.25852C5.55243 7.25852 6.0747 7.03922 6.45977 6.64887C6.84485 6.25852 7.06118 5.7291 7.06118 5.17706C7.06118 4.02482 6.14451 3.08321 5.00785 3.08321C4.46003 3.08321 3.93465 3.30381 3.54728 3.69648C3.15991 4.08915 2.94229 4.62173 2.94229 5.17706C2.94229 6.3293 3.87118 7.25852 5.00785 7.25852ZM6.70674 19.5738V9.20369H3.32118V19.5738H6.70674Z" fill="#929292"/>
</svg>
