<svg width="17" height="23" viewBox="0 0 17 23" fill="none" xmlns="http://www.w3.org/2000/svg">
<path d="M2.5662 0.774283L4.34142 0.231727C4.9273 0.0529493 5.55734 0.096326 6.11399 0.353765C6.67065 0.611205 7.11591 1.06512 7.36672 1.63085L8.6113 4.43653C8.82731 4.92328 8.88752 5.46637 8.78347 5.98958C8.67942 6.51278 8.41634 6.98981 8.03117 7.3537L6.13681 9.14302C5.88294 9.38736 6.0754 10.3396 7.00288 11.9691C7.93127 13.5996 8.64887 14.2443 8.97972 14.144L11.4615 13.3748C11.9646 13.2188 12.5032 13.2263 13.0019 13.3962C13.5005 13.5662 13.9342 13.89 14.2421 14.3224L16.011 16.8075C16.3682 17.3094 16.5336 17.9256 16.4765 18.5418C16.4194 19.1579 16.1435 19.7321 15.7003 20.1576L14.3329 21.4704C13.8915 21.8941 13.3471 22.1916 12.7552 22.3324C12.1633 22.4733 11.5452 22.4525 10.9639 22.2721C8.09899 21.383 5.44578 18.7446 2.96853 14.3939C0.485793 10.0368 -0.451765 6.36149 0.201685 3.35885C0.333478 2.75382 0.622064 2.19537 1.03769 1.74106C1.45332 1.28675 1.98095 0.953024 2.5662 0.774283Z" fill="#929292"/>
</svg>
