<svg width="28" height="23" viewBox="0 0 28 23" fill="none" xmlns="http://www.w3.org/2000/svg">
<path d="M27.0729 2.99356C26.0765 3.45271 25.0024 3.75443 23.8894 3.89874C25.0282 3.20346 25.9082 2.10151 26.3224 0.776545C25.2482 1.43247 24.0576 1.89161 22.8024 2.15398C21.78 1.0258 20.3435 0.369873 18.7129 0.369873C15.6718 0.369873 13.1871 2.88862 13.1871 5.99769C13.1871 6.44372 13.2388 6.87663 13.3294 7.2833C8.72235 7.04717 4.62 4.80391 1.88941 1.40623C1.41059 2.23269 1.13882 3.20346 1.13882 4.2267C1.13882 6.18135 2.10941 7.91298 3.61059 8.89687C2.69176 8.89687 1.83765 8.6345 1.08706 8.24094V8.2803C1.08706 11.0089 3.00235 13.2915 5.53882 13.8032C4.72447 14.0291 3.86954 14.0605 3.04118 13.895C3.39267 15.0133 4.08105 15.9919 5.00955 16.6931C5.93805 17.3943 7.05999 17.7829 8.21765 17.8043C6.25529 19.3791 3.82282 20.2303 1.32 20.2181C0.88 20.2181 0.44 20.1919 0 20.1394C2.45882 21.7398 5.38353 22.6712 8.51529 22.6712C18.7129 22.6712 24.3165 14.0918 24.3165 6.65361C24.3165 6.40436 24.3165 6.16823 24.3035 5.91898C25.3906 5.13187 26.3224 4.13487 27.0729 2.99356Z" fill="#929292"/>
</svg>
