<svg width="23" height="23" viewBox="0 0 23 23" fill="none" xmlns="http://www.w3.org/2000/svg">
<path d="M6.64563 0.369873H15.8856C19.4056 0.369873 22.2656 3.26905 22.2656 6.83727V16.2038C22.2656 17.9191 21.5934 19.5641 20.397 20.777C19.2005 21.9899 17.5777 22.6712 15.8856 22.6712H6.64563C3.12563 22.6712 0.265625 19.7721 0.265625 16.2038V6.83727C0.265625 5.12201 0.937802 3.477 2.13428 2.26413C3.33077 1.05126 4.95354 0.369873 6.64563 0.369873ZM6.42562 2.60001C5.37537 2.60001 4.36813 3.02294 3.62548 3.77576C2.88284 4.52857 2.46563 5.54961 2.46563 6.61426V16.4269C2.46563 18.6458 4.23662 20.4411 6.42562 20.4411H16.1056C17.1559 20.4411 18.1631 20.0182 18.9058 19.2654C19.6484 18.5125 20.0656 17.4915 20.0656 16.4269V6.61426C20.0656 4.39527 18.2946 2.60001 16.1056 2.60001H6.42562ZM17.0406 4.27261C17.4053 4.27261 17.755 4.41946 18.0129 4.68086C18.2708 4.94225 18.4156 5.29678 18.4156 5.66645C18.4156 6.03612 18.2708 6.39064 18.0129 6.65204C17.755 6.91343 17.4053 7.06028 17.0406 7.06028C16.676 7.06028 16.3262 6.91343 16.0684 6.65204C15.8105 6.39064 15.6656 6.03612 15.6656 5.66645C15.6656 5.29678 15.8105 4.94225 16.0684 4.68086C16.3262 4.41946 16.676 4.27261 17.0406 4.27261ZM11.2656 5.94522C12.7243 5.94522 14.1233 6.53262 15.1547 7.5782C16.1862 8.62378 16.7656 10.0419 16.7656 11.5206C16.7656 12.9992 16.1862 14.4173 15.1547 15.4629C14.1233 16.5085 12.7243 17.0959 11.2656 17.0959C9.80693 17.0959 8.40799 16.5085 7.37654 15.4629C6.34509 14.4173 5.76562 12.9992 5.76562 11.5206C5.76562 10.0419 6.34509 8.62378 7.37654 7.5782C8.40799 6.53262 9.80693 5.94522 11.2656 5.94522ZM11.2656 8.17535C10.3904 8.17535 9.55104 8.52779 8.93217 9.15514C8.3133 9.78249 7.96562 10.6334 7.96562 11.5206C7.96562 12.4078 8.3133 13.2586 8.93217 13.886C9.55104 14.5133 10.3904 14.8658 11.2656 14.8658C12.1408 14.8658 12.9802 14.5133 13.5991 13.886C14.2179 13.2586 14.5656 12.4078 14.5656 11.5206C14.5656 10.6334 14.2179 9.78249 13.5991 9.15514C12.9802 8.52779 12.1408 8.17535 11.2656 8.17535Z" fill="#929292"/>
</svg>
