<svg width="28" height="23" viewBox="0 0 28 23" fill="none" xmlns="http://www.w3.org/2000/svg">
<path d="M24.75 0.164368H2.75C1.2375 0.164368 0.01375 1.41882 0.01375 2.95204L0 19.6781C0 21.2113 1.2375 22.4657 2.75 22.4657H24.75C26.2625 22.4657 27.5 21.2113 27.5 19.6781V2.95204C27.5 1.41882 26.2625 0.164368 24.75 0.164368ZM24.2 6.08817L14.4787 12.2489C14.0387 12.5277 13.4613 12.5277 13.0213 12.2489L3.3 6.08817C3.16213 6.00971 3.04139 5.90371 2.9451 5.77658C2.84881 5.64945 2.77896 5.50384 2.73979 5.34856C2.70062 5.19328 2.69294 5.03155 2.71722 4.87317C2.74149 4.71479 2.79721 4.56305 2.88101 4.42714C2.96481 4.29122 3.07495 4.17395 3.20475 4.08243C3.33455 3.99091 3.48132 3.92704 3.63618 3.89469C3.79104 3.86233 3.95076 3.86217 4.10569 3.8942C4.26061 3.92623 4.40751 3.9898 4.5375 4.08105L13.75 9.92122L22.9625 4.08105C23.0925 3.9898 23.2394 3.92623 23.3943 3.8942C23.5492 3.86217 23.709 3.86233 23.8638 3.89469C24.0187 3.92704 24.1654 3.99091 24.2952 4.08243C24.4251 4.17395 24.5352 4.29122 24.619 4.42714C24.7028 4.56305 24.7585 4.71479 24.7828 4.87317C24.8071 5.03155 24.7994 5.19328 24.7602 5.34856C24.721 5.50384 24.6512 5.64945 24.5549 5.77658C24.4586 5.90371 24.3379 6.00971 24.2 6.08817Z" fill="#929292"/>
</svg>
