<svg width="50" height="50" viewBox="0 0 50 50" fill="none" xmlns="http://www.w3.org/2000/svg">
<g clip-path="url(#clip0_1354_35439)">
<path d="M45.1264 32.7527C44.5309 33.9451 43.9757 35.0413 43.4377 36.1518C43.264 36.485 43.1469 36.8447 43.091 37.2162C43.0635 37.5163 43.0969 37.8188 43.1893 38.1056C43.2818 38.3923 43.4312 38.6575 43.6288 38.885C43.8263 39.1125 44.0678 39.2977 44.3388 39.4294C44.6098 39.5612 44.9046 39.6367 45.2056 39.6516C45.6155 39.6732 46.0284 39.6516 46.5175 39.6516V40.1924C46.5175 43.0694 46.5175 45.9415 46.5175 48.8089C46.5175 49.7252 46.2485 49.9971 45.335 49.9971H1.19537C0.271872 49.9971 0 49.7295 0 48.8233C0 34.0866 0 19.3494 0 4.61172C0 3.73569 0.279065 3.46094 1.16085 3.46094H28.9335C28.7681 3.81049 28.6286 4.09531 28.502 4.38445C27.9096 5.65722 27.5948 7.04147 27.5785 8.44526C27.5612 9.91682 27.5583 11.3884 27.5785 12.86C27.5944 13.0264 27.5622 13.1939 27.4857 13.3425C27.4092 13.4912 27.2916 13.6148 27.1469 13.6986C25.7847 14.5991 24.7778 15.7959 24.362 17.3969C23.7234 19.8524 24.362 21.9669 26.1961 23.7161C26.3126 23.8269 26.4349 23.9319 26.6017 24.083C24.3002 26.5284 23.8931 29.5146 24.1765 32.7527H45.1264ZM21.5584 45.6529H26.6622V35.3779H21.5584V45.6529ZM12.9592 37.0968V45.6471H18.0615V37.0968H12.9592ZM4.3442 38.823V45.6515H9.44647V38.823H4.3442ZM9.65217 15.711L6.8155 18.6325L4.11548 15.9124L2.80359 17.0891L5.68054 19.9387L2.94744 22.597L4.15432 23.9175L6.9838 21.0607L9.66512 23.7636L11.0043 22.561L8.08136 19.769C9.03795 18.821 9.96145 17.8989 10.872 16.9985L9.65217 15.711ZM10.5153 6.39831L5.91213 12.5233L4.16007 10.6893C3.69832 11.1036 3.29699 11.4689 2.95751 11.7681L6.19983 15.0134L11.8847 7.42539L10.5153 6.39831ZM2.95032 30.7287C4.03637 31.8162 5.10803 32.8864 6.19552 33.9739C8.06074 31.4806 9.95761 28.9503 11.8861 26.3831L10.5124 25.3517L5.90926 31.4868L4.09822 29.5463L2.95032 30.7287ZM22.3697 20.6694V19.0066H13.8238V20.6694H22.3697ZM13.8108 12.0386H17.1898V10.3815H13.8079L13.8108 12.0386ZM22.3611 12.0558V10.3786H18.9864V12.0558H22.3611ZM13.8079 29.2787H17.1869V27.6201H13.8079V29.2787ZM22.3741 27.6302H18.9936V29.2902H22.3726L22.3741 27.6302ZM34.4342 44.8589H32.7699V46.5131H34.4328L34.4342 44.8589ZM37.8866 44.8589H36.2108V46.5217H37.8823L37.8866 44.8589ZM41.3188 46.5462V44.8689H39.6703V46.5419L41.3188 46.5462Z" fill="#084C94"/>
<path d="M37.8927 4.01048C37.431 4.44203 36.985 4.87356 36.5103 5.28209C35.3181 6.29429 33.9424 7.06784 32.4582 7.56063C31.3764 7.92457 31.0053 8.44243 31.0197 9.6004C31.0326 11.0173 30.9693 12.4428 31.106 13.8482C31.2987 15.8261 32.3229 17.3811 33.9268 18.542C34.1829 18.7275 34.2045 18.8829 34.1814 19.1965C34.0865 20.4911 33.4737 21.0967 32.1518 21.1715C31.4023 21.2132 30.6471 21.5009 29.9351 21.78C29.223 22.0591 28.5987 22.4546 27.8982 22.8186C26.0023 21.8505 25.2701 19.0354 26.3964 16.9323C26.91 15.9743 27.7385 15.35 28.6045 14.7746C29.1425 14.4179 29.3324 14.0122 29.3122 13.3663C29.2604 11.8056 29.2892 10.2434 29.2964 8.68265C29.3151 4.14138 32.6595 0.483342 37.1836 0.0402913C41.499 -0.378305 45.5109 2.65256 46.3582 7.02552C46.5207 7.86272 46.502 8.73875 46.5178 9.59752C46.5423 10.9972 46.5336 12.3968 46.5178 13.7964C46.5059 13.9366 46.5333 14.0772 46.5971 14.2026C46.6609 14.3279 46.7585 14.4328 46.8789 14.5056C47.378 14.8537 47.8657 15.2249 48.3346 15.6132C50.5341 17.4415 50.4923 20.8708 48.2785 22.62C48.0196 22.8229 47.847 22.8718 47.542 22.6546C46.0618 21.5786 44.317 21.2247 42.5635 20.9284C42.1866 20.8651 42.0499 20.7026 41.9233 20.353C41.5666 19.3691 41.6054 18.6887 42.5764 17.9321C44.0983 16.7468 44.7586 14.9904 44.796 13.0412C44.8204 11.8027 44.8104 10.5642 44.796 9.32565C44.796 8.52585 44.4105 7.92457 43.6524 7.67428C41.5101 6.97637 39.5799 5.74649 38.0423 4.09967C37.996 4.06441 37.9458 4.0345 37.8927 4.01048Z" fill="#084C94"/>
<path d="M37.7846 6.47888C39.0606 7.23408 40.2674 7.95763 41.4844 8.66248C41.7575 8.83544 42.0582 8.96048 42.3734 9.03218C42.9646 9.1415 43.1199 9.4522 43.0926 10.0305C43.0207 11.2978 43.1358 12.5866 42.9632 13.8381C42.605 16.4389 40.1883 18.2758 37.5444 18.1003C34.9796 17.9291 32.8507 15.7801 32.7572 13.221C32.714 12.0213 32.7428 10.8188 32.7572 9.62483C32.7572 9.48098 32.8751 9.26089 32.9873 9.22349C34.7466 8.62236 36.3748 7.69081 37.7846 6.47888Z" fill="#084C94"/>
<path d="M36.346 31.0164H25.9099C25.4783 27.6964 27.8532 23.9434 31.4955 23.1048L36.346 31.0164Z" fill="#084C94"/>
<path d="M44.3203 23.1048C47.6935 23.7809 50.2281 27.3497 49.9304 31.0164H39.4727L44.3203 23.1048Z" fill="#084C94"/>
<path d="M33.2656 22.6834C33.8496 22.5654 34.3488 22.492 34.8292 22.3539C34.9195 22.32 35.0015 22.2673 35.0699 22.1994C35.1384 22.1314 35.1916 22.0498 35.2263 21.9598C35.4521 21.2046 35.6334 20.4379 35.8319 19.6755C35.8421 19.6494 35.8578 19.6259 35.8779 19.6064C36.5612 19.6841 37.2315 19.8165 37.9018 19.8193C38.5722 19.8222 39.2152 19.6884 39.9603 19.6064C40.1243 20.2408 40.3372 20.9371 40.4738 21.6477C40.5673 22.1353 40.7702 22.3928 41.2866 22.4331C41.7112 22.4918 42.132 22.5759 42.5467 22.6848C41.9109 23.7219 41.311 24.7174 40.6882 25.697C40.635 25.7509 40.5713 25.7933 40.501 25.8215C40.4307 25.8497 40.3553 25.8632 40.2796 25.8609C38.7011 25.8724 37.1222 25.8724 35.5427 25.8609C35.3989 25.8609 35.1946 25.8063 35.1299 25.7056C34.5056 24.726 33.9057 23.7306 33.2656 22.6834Z" fill="#084C94"/>
<path d="M47.369 37.9341C46.7418 37.9341 46.1161 37.9427 45.4889 37.9341C44.8617 37.9254 44.6517 37.5802 44.9279 37.0192C45.5522 35.7519 46.1808 34.486 46.8353 33.2345C46.936 33.0403 47.1978 32.7915 47.3632 32.803C47.5704 32.8217 47.8293 33.0476 47.9386 33.2518C48.5874 34.486 49.2045 35.7361 49.823 36.9919C50.1107 37.5874 49.9065 37.9269 49.2476 37.9369C48.6205 37.9413 47.9947 37.9341 47.369 37.9341Z" fill="#084C94"/>
<path d="M37.9072 30.2526C37.3461 29.3348 36.8441 28.5164 36.3047 27.6375H39.5053L37.9072 30.2526Z" fill="#084C94"/>
</g>
<defs>
<clipPath id="clip0_1354_35439">
<rect width="49.9568" height="50" fill="white"/>
</clipPath>
</defs>
</svg>
