<svg width="112" height="100" viewBox="0 0 112 100" fill="none" xmlns="http://www.w3.org/2000/svg">
<g clip-path="url(#clip0_1929_19612)">
<path d="M111.021 29.866V34.8533C110.943 35.0505 110.884 35.2548 110.845 35.4633C110.342 40.4622 108.636 45.0447 106.089 49.341C105.678 50.0348 105.221 50.2314 104.461 50.2285C96.0825 50.1996 87.7038 50.1996 79.3252 50.2285C78.4578 50.2285 78.0589 49.9394 77.6772 49.2109C74.2309 42.7635 70.7548 36.3307 67.2488 29.9123C66.8086 29.0997 66.1456 28.4297 65.3377 27.9809C63.681 27.1483 61.9579 28.0012 61.0472 29.918C56.9494 38.5376 52.8574 47.1572 48.7712 55.7767C48.5804 56.1757 48.378 56.5689 48.1207 57.0864C47.7854 56.5834 47.5598 56.2566 47.3488 55.9299C44.6947 51.7667 42.0396 47.6034 39.3836 43.4401C37.7414 40.8785 34.9774 40.8987 33.4018 43.4805C32.2019 45.4523 31.0079 47.4241 29.8514 49.419C29.7377 49.6756 29.5476 49.8908 29.3069 50.0352C29.0663 50.1796 28.7869 50.2461 28.507 50.2257C21.1037 50.1967 13.6994 50.1967 6.29409 50.2257C5.62334 50.2257 5.21279 50.0291 4.94102 49.4335C3.78455 46.9153 2.46328 44.4664 1.54678 41.8673C0.780617 39.6873 0.497282 37.3368 0 35.0614V29.8573C0.161906 28.8656 0.289118 27.8711 0.485718 26.8852C4.29629 6.18437 28.0271 -7.62678 49.0228 4.58266C51.2837 5.89814 53.3595 7.52009 55.6089 9.04663C56.3346 8.4684 57.1354 7.80632 57.971 7.18472C64.9156 2.03842 72.6148 -0.690846 81.3461 0.159159C94.9491 1.50067 106.56 11.4347 110.009 24.6763C110.452 26.385 110.689 28.14 111.021 29.866Z" fill="#FF6C37"/>
<path d="M10.5879 56.7048H11.9988C18.2119 56.7048 24.4308 56.6788 30.6411 56.7048C32.2977 56.7048 33.4687 56.0977 34.2724 54.655C34.9518 53.4378 35.718 52.2611 36.487 50.9745C39.5575 55.7883 42.5585 60.4633 45.5191 65.1413C46.08 66.0288 46.7536 66.7285 47.8118 66.9829C49.3846 67.3588 50.8157 66.5897 51.631 64.8782C53.944 60.0325 56.2473 55.185 58.5409 50.3355C60.4404 46.3342 62.34 42.3357 64.3233 38.1724C64.5835 38.6118 64.783 38.9299 64.9622 39.2594C67.6828 44.3017 70.4295 49.3294 73.1038 54.3948C73.9712 56.0196 75.171 56.7077 77.0127 56.7077C84.31 56.6557 91.6073 56.6875 98.9047 56.6875H100.301C99.9542 57.0835 99.7489 57.3495 99.5147 57.5837C85.7411 71.2686 71.9647 84.9535 58.1853 98.6384C56.3755 100.434 54.606 100.431 52.8164 98.6558L11.3974 57.5461C11.1921 57.3438 10.9984 57.1327 10.5879 56.7048Z" fill="#FF6C37"/>
</g>
<defs>
<clipPath id="clip0_1929_19612">
<rect width="111.021" height="100" fill="white"/>
</clipPath>
</defs>
</svg>
