<svg width="271" height="200" viewBox="0 0 271 200" fill="none" xmlns="http://www.w3.org/2000/svg">
<g clip-path="url(#clip0_2386_3750)">
<path d="M134.142 200C202.412 200 257.756 196.769 257.756 192.783C257.756 188.797 202.412 185.566 134.142 185.566C65.8715 185.566 10.5273 188.797 10.5273 192.783C10.5273 196.769 65.8715 200 134.142 200Z" fill="#F5F5F5"/>
<path d="M264.308 105.47H4.42969V108.741H264.308V105.47Z" fill="#455A64"/>
<path d="M19.9102 107.817V185.815H21.9376L24.4878 107.817H19.9102Z" fill="#455A64"/>
<path d="M43.8438 110.367V182.627H45.8712L48.4214 110.367H43.8438Z" fill="#455A64"/>
<path opacity="0.5" d="M43.8438 110.367V182.627H45.8712L48.4214 110.367H43.8438Z" fill="black"/>
<path d="M249.753 107.817V185.815H247.732L245.176 107.817H249.753Z" fill="#455A64"/>
<path d="M225.824 110.367V182.627H223.796L221.246 110.367H225.824Z" fill="#455A64"/>
<path opacity="0.5" d="M225.824 110.367V182.627H223.796L221.246 110.367H225.824Z" fill="black"/>
<path d="M254.375 112.241H15.1276L9.83594 108.741H259.666L254.375 112.241Z" fill="#455A64"/>
<path opacity="0.5" d="M254.375 112.241H15.1276L9.83594 108.741H259.666L254.375 112.241Z" fill="black"/>
<path d="M21.5195 95.4418V97.992C21.5195 98.4149 21.6868 98.8206 21.9849 99.1205L24.006 101.141C24.185 101.319 24.4034 101.453 24.6435 101.53C25.0602 102.427 25.7244 103.186 26.558 103.718C27.3916 104.25 28.3598 104.533 29.3486 104.533H30.1073C30.7934 104.537 31.4734 104.405 32.1081 104.145C32.7427 103.884 33.3193 103.5 33.8044 103.015C34.2896 102.53 34.6735 101.953 34.9341 101.319C35.1947 100.684 35.3267 100.004 35.3225 99.3181V93.3698H24.1781V93.8543H23.1134C22.6918 93.8543 22.2873 94.0213 21.9886 94.3189C21.6899 94.6164 21.5212 95.0202 21.5195 95.4418ZM22.7946 95.4418C22.7946 95.4002 22.8029 95.3591 22.819 95.3207C22.8351 95.2824 22.8587 95.2477 22.8884 95.2186C22.9181 95.1895 22.9533 95.1666 22.9919 95.1513C23.0305 95.136 23.0718 95.1285 23.1134 95.1294H24.1781V99.3181C24.1781 99.3755 24.1781 99.4328 24.1781 99.4902L22.903 98.2151C22.8724 98.1867 22.8481 98.1521 22.8316 98.1137C22.8151 98.0752 22.8069 98.0338 22.8074 97.992L22.7946 95.4418Z" fill="#C7C7C7"/>
<path opacity="0.5" d="M21.5195 95.4418V97.992C21.5195 98.4149 21.6868 98.8206 21.9849 99.1205L24.006 101.141C24.185 101.319 24.4034 101.453 24.6435 101.53C25.0602 102.427 25.7244 103.186 26.558 103.718C27.3916 104.25 28.3598 104.533 29.3486 104.533H30.1073C30.7934 104.537 31.4734 104.405 32.1081 104.145C32.7427 103.884 33.3193 103.5 33.8044 103.015C34.2896 102.53 34.6735 101.953 34.9341 101.319C35.1947 100.684 35.3267 100.004 35.3225 99.3181V93.3698H24.1781V93.8543H23.1134C22.6918 93.8543 22.2873 94.0213 21.9886 94.3189C21.6899 94.6164 21.5212 95.0202 21.5195 95.4418ZM22.7946 95.4418C22.7946 95.4002 22.8029 95.3591 22.819 95.3207C22.8351 95.2824 22.8587 95.2477 22.8884 95.2186C22.9181 95.1895 22.9533 95.1666 22.9919 95.1513C23.0305 95.136 23.0718 95.1285 23.1134 95.1294H24.1781V99.3181C24.1781 99.3755 24.1781 99.4328 24.1781 99.4902L22.903 98.2151C22.8724 98.1867 22.8481 98.1521 22.8316 98.1137C22.8151 98.0752 22.8069 98.0338 22.8074 97.992L22.7946 95.4418Z" fill="white"/>
<path d="M37.9602 105.394H21.9322C21.1993 105.329 20.5172 104.992 20.0195 104.45H39.8473C39.3571 104.988 38.6845 105.324 37.9602 105.394Z" fill="#C7C7C7"/>
<path opacity="0.5" d="M37.9602 105.394H21.9322C21.1993 105.329 20.5172 104.992 20.0195 104.45H39.8473C39.3571 104.988 38.6845 105.324 37.9602 105.394Z" fill="white"/>
<path d="M253.594 97.5903C253.511 95.0401 251.585 94.4408 249.073 94.1539V93.2295C249.07 93.1224 249.025 93.0209 248.947 92.9469C248.87 92.873 248.766 92.8325 248.659 92.8342H239.975C239.922 92.8325 239.868 92.8414 239.818 92.8603C239.768 92.8793 239.722 92.9079 239.683 92.9446C239.644 92.9813 239.613 93.0254 239.591 93.0743C239.569 93.1231 239.556 93.1759 239.555 93.2295V105.286H249.08V103.966C251.592 103.685 253.517 100.128 253.594 97.5903ZM249.073 102.41V95.7159C250.922 95.9837 252.197 96.2387 251.923 98.0876C251.706 99.5667 250.546 102.206 249.073 102.41Z" fill="#C7C7C7"/>
<g opacity="0.5">
<path d="M253.594 97.5903C253.511 95.0401 251.585 94.4408 249.073 94.1539V93.2295C249.07 93.1224 249.025 93.0209 248.947 92.9469C248.87 92.873 248.766 92.8325 248.659 92.8342H239.975C239.922 92.8325 239.868 92.8414 239.818 92.8603C239.768 92.8793 239.722 92.9079 239.683 92.9446C239.644 92.9813 239.613 93.0254 239.591 93.0743C239.569 93.1231 239.556 93.1759 239.555 93.2295V105.286H249.08V103.966C251.592 103.685 253.517 100.128 253.594 97.5903ZM249.073 102.41V95.7159C250.922 95.9837 252.197 96.2387 251.923 98.0876C251.706 99.5667 250.546 102.206 249.073 102.41Z" fill="white"/>
</g>
<path d="M142.929 76.5516H128.211V106.451H142.929V76.5516Z" fill="#BDC1C3"/>
<path d="M149.572 106.987H121.695L128.487 101.007H142.768L149.572 106.987Z" fill="#BDC1C3"/>
<path d="M210.882 97.3124H141.172L153.768 107.025H223.466L210.882 97.3124Z" fill="#455A64"/>
<path opacity="0.4" d="M210.882 97.3124H141.172L153.768 107.025H223.466L210.882 97.3124Z" fill="#FF6C37"/>
<path d="M142.782 107.025L141.172 97.3124L153.768 107.025H142.782Z" fill="#455A64"/>
<path opacity="0.5" d="M142.782 107.025L141.172 97.3124L153.768 107.025H142.782Z" fill="black"/>
<path d="M198.646 5.7804H71.7727C70.442 5.7804 69.3633 6.85913 69.3633 8.1898V85.9893C69.3633 87.32 70.442 88.3988 71.7727 88.3988H198.646C199.977 88.3988 201.056 87.32 201.056 85.9893V8.1898C201.056 6.85913 199.977 5.7804 198.646 5.7804Z" fill="#BDC1C3"/>
<path d="M196.137 10.9489H74.1445V82.9434H196.137V10.9489Z" fill="#FFF0EB"/>
<path d="M192.269 25.7546H130.711V68.1374H192.269V25.7546Z" fill="white"/>
<path d="M192.269 25.7546H130.711V29.6371H192.269V25.7546Z" fill="#FF6C37"/>
<path d="M141.993 49.1994L152.055 54.7672C152.439 54.9523 152.782 55.211 153.066 55.5288C153.237 55.778 153.325 56.0754 153.316 56.3777C153.316 56.5891 153.275 56.7985 153.193 56.9936C153.112 57.1887 152.992 57.3655 152.841 57.5137C152.702 57.6625 152.534 57.7813 152.347 57.8629C152.16 57.9444 151.959 57.987 151.755 57.9881C151.308 57.9373 150.879 57.7788 150.507 57.5262L137.524 50.3105C137.316 50.207 137.141 50.0476 137.019 49.8502C136.897 49.6528 136.832 49.4253 136.832 49.1932C136.832 48.9611 136.897 48.7336 137.019 48.5362C137.141 48.3388 137.316 48.1794 137.524 48.0759L150.507 40.8602C150.883 40.6181 151.31 40.4684 151.755 40.4233C151.96 40.4202 152.164 40.4597 152.353 40.5392C152.542 40.6187 152.712 40.7365 152.854 40.8852C153.005 41.0301 153.126 41.2046 153.207 41.3978C153.289 41.5911 153.33 41.799 153.328 42.0087C153.339 42.3113 153.251 42.6092 153.078 42.8576C152.795 43.1754 152.451 43.4341 152.067 43.6191L141.993 49.1994Z" fill="#FF6C37"/>
<path d="M167.887 38.8004L157.9 60.2602C157.74 60.6503 157.507 61.0062 157.213 61.3088C156.943 61.5202 156.607 61.6306 156.264 61.6209C156.06 61.6241 155.858 61.5859 155.669 61.5086C155.48 61.4314 155.309 61.3167 155.166 61.1715C155.019 61.0413 154.901 60.8819 154.819 60.7035C154.738 60.525 154.694 60.3315 154.691 60.1353C154.727 59.6976 154.855 59.2722 155.066 58.887L165.053 37.4396C165.209 37.0571 165.433 36.7061 165.715 36.4035C165.989 36.1895 166.328 36.075 166.676 36.0789C166.878 36.076 167.079 36.1143 167.265 36.1916C167.452 36.2689 167.621 36.3835 167.762 36.5283C167.903 36.6588 168.016 36.8171 168.094 36.9933C168.171 37.1694 168.211 37.3596 168.211 37.552C168.193 37.9865 168.083 38.4121 167.887 38.8004Z" fill="#FF6C37"/>
<path d="M180.406 49.1994L170.344 43.6191C169.964 43.4273 169.622 43.1694 169.333 42.8576C169.16 42.6091 169.072 42.3112 169.083 42.0087C169.081 41.7989 169.122 41.591 169.204 41.3978C169.285 41.2045 169.406 41.0301 169.557 40.8851C169.701 40.7367 169.874 40.6192 170.065 40.5398C170.256 40.4604 170.462 40.4207 170.668 40.4232C171.113 40.4706 171.54 40.6202 171.917 40.8602L184.9 48.0758C185.108 48.1794 185.283 48.3388 185.405 48.5362C185.527 48.7335 185.592 48.961 185.592 49.1931C185.592 49.4253 185.527 49.6528 185.405 49.8501C185.283 50.0475 185.108 50.2069 184.9 50.3105L171.917 57.5261C171.543 57.7762 171.115 57.9344 170.668 57.988C170.457 57.9906 170.248 57.9485 170.055 57.8646C169.861 57.7807 169.687 57.6569 169.545 57.5012C169.397 57.3539 169.28 57.1787 169.201 56.9858C169.122 56.7929 169.082 56.5862 169.083 56.3776C169.074 56.0753 169.161 55.778 169.333 55.5287C169.622 55.2169 169.964 54.959 170.344 54.7672L180.406 49.1994Z" fill="#FF6C37"/>
<path d="M83.322 17.5901H79.1523V21.7597H83.322V17.5901Z" fill="#FF6C37"/>
<path d="M83.322 28.3761H79.1523V32.5457H83.322V28.3761Z" fill="#FF6C37"/>
<path d="M83.322 39.1748H79.1523V43.3444H83.322V39.1748Z" fill="#FF6C37"/>
<path d="M83.322 49.9609H79.1523V54.1306H83.322V49.9609Z" fill="#FF6C37"/>
<path d="M83.322 60.7471H79.1523V64.9167H83.322V60.7471Z" fill="#FF6C37"/>
<path d="M83.322 71.5332H79.1523V75.7028H83.322V71.5332Z" fill="#FF6C37"/>
<path d="M103.893 18.5266H87.2773V19.775H103.893V18.5266Z" fill="#FF6C37"/>
<path d="M97.0658 29.35H91.1484V30.5984H97.0658V29.35Z" fill="#FF6C37"/>
<path d="M122.82 41.4841H116.902V42.7325H122.82V41.4841Z" fill="#FF6C37"/>
<path d="M97.0658 51.1094H91.1484V52.3578H97.0658V51.1094Z" fill="#FF6C37"/>
<path d="M105.605 51.1094H99.6875V52.3578H105.605V51.1094Z" fill="#FF6C37"/>
<path d="M114.805 41.4841H99.6875V42.7325H114.805V41.4841Z" fill="#FF6C37"/>
<path d="M118.438 51.1094H108.488V52.3578H118.438V51.1094Z" fill="#FF6C37"/>
<path d="M114.378 74.2419H108.461V75.4903H114.378V74.2419Z" fill="#FF6C37"/>
<path d="M122.906 74.2419H116.988V75.4903H122.906V74.2419Z" fill="#FF6C37"/>
<path d="M129.113 74.2419H125.805V75.4903H129.113V74.2419Z" fill="#FF6C37"/>
<path d="M118.449 29.35H100.035V30.5984H118.449V29.35Z" fill="#FF6C37"/>
<path d="M105.605 62.3822H99.6875V63.6306H105.605V62.3822Z" fill="#FF6C37"/>
<path d="M110.999 62.3822H107.578V63.6306H110.999V62.3822Z" fill="#FF6C37"/>
<path d="M123.28 62.3822H113.617V63.6306H123.28V62.3822Z" fill="#FF6C37"/>
<path d="M25.0516 32.7857C25.2109 40.5 33.2249 46.9711 42.9603 47.2262C45.9501 47.327 48.9261 46.7766 51.682 45.6132C52.6638 48.0359 54.7295 50.1143 60.6523 51.0451C54.4745 46.2698 57.8535 42.2278 59.2625 38.6766C59.9914 37.1262 60.3556 35.4295 60.3272 33.7165C60.1678 25.9958 52.1538 19.5374 42.4184 19.276C32.683 19.0146 24.8985 25.0713 25.0516 32.7857Z" fill="#407BFF"/>
<path d="M42.483 24.7079H50.9688V25.3454H42.483V24.7079Z" fill="white"/>
<path d="M45.9702 30.2355H48.9922V30.873H45.9702V30.2355Z" fill="white"/>
<path d="M32.8179 36.4325H35.8398V37.07H32.8179V36.4325Z" fill="white"/>
<path d="M45.9702 41.3479H48.9922V41.9855H45.9702V41.3479Z" fill="white"/>
<path d="M41.6147 41.3479H44.6367V41.9855H41.6147V41.3479Z" fill="white"/>
<path d="M36.916 36.4325H44.6367V37.07H36.916V36.4325Z" fill="white"/>
<path d="M35.0554 41.3479H40.1367V41.9855H35.0554V41.3479Z" fill="white"/>
<path d="M35.0532 30.2355H44.457V30.873H35.0532V30.2355Z" fill="white"/>
<path d="M165.48 182.378L160.832 180.988L161.916 169.595L166.564 170.985L165.48 182.378Z" fill="#7F3E3B"/>
<path opacity="0.2" d="M166.949 168.409L162.301 167.026L161.695 173.408L166.394 174.281L166.949 168.409Z" fill="black"/>
<path d="M192.998 112.012C192.998 112.012 161.037 114.709 161.822 128.588C162.459 139.949 164.149 136.876 160.84 170.666L168.879 171.113C168.879 171.113 177.059 143.481 175.956 132.503C184.965 132.503 205.589 133.293 208.586 125.164C210.073 121.037 210.796 116.673 210.722 112.286L192.998 112.012Z" fill="#407BFF"/>
<path d="M170.155 172.643L159.648 170.845L159.821 166.197L170.697 168.613L170.155 172.643Z" fill="#263238"/>
<path d="M160.363 179.076L165.732 180.14C165.829 180.163 165.914 180.222 165.971 180.304C166.028 180.387 166.051 180.487 166.038 180.587L165.591 185.687C165.583 185.807 165.551 185.924 165.497 186.032C165.443 186.14 165.369 186.236 165.277 186.314C165.186 186.392 165.08 186.452 164.965 186.488C164.85 186.525 164.729 186.539 164.609 186.528C162.748 186.12 161.868 185.821 159.509 185.349C158.055 185.062 154.734 184.367 152.713 184.138C150.692 183.908 150.934 181.549 151.807 181.428C155.735 180.912 157.966 180.274 159.49 179.292C159.742 179.109 160.055 179.031 160.363 179.076Z" fill="#263238"/>
<path d="M157.951 179.987C158.373 180.045 158.801 180.058 159.226 180.026C159.248 180.026 159.269 180.02 159.286 180.007C159.303 179.994 159.316 179.976 159.322 179.955C159.331 179.937 159.336 179.916 159.336 179.895C159.336 179.874 159.331 179.853 159.322 179.834C159.188 179.7 157.983 178.559 157.364 178.687C157.293 178.698 157.226 178.729 157.171 178.777C157.115 178.824 157.074 178.885 157.052 178.954C157.002 179.055 156.979 179.166 156.986 179.278C156.992 179.39 157.028 179.498 157.09 179.592C157.316 179.829 157.624 179.971 157.951 179.987ZM158.977 179.815C158.091 179.815 157.466 179.713 157.281 179.452C157.244 179.39 157.224 179.32 157.224 179.248C157.224 179.176 157.244 179.105 157.281 179.044C157.292 179.01 157.31 178.979 157.336 178.954C157.362 178.929 157.394 178.912 157.428 178.903C157.728 178.84 158.48 179.35 159.003 179.822L158.977 179.815Z" fill="#407BFF"/>
<path d="M159.232 180.032H159.283C159.301 180.025 159.318 180.014 159.331 179.999C159.344 179.985 159.354 179.968 159.36 179.949C159.36 179.892 159.71 178.534 159.302 177.992C159.253 177.919 159.186 177.86 159.108 177.819C159.031 177.777 158.944 177.756 158.856 177.756C158.761 177.742 158.663 177.761 158.58 177.81C158.496 177.858 158.432 177.934 158.397 178.023C158.199 178.527 158.748 179.643 159.175 180.006C159.182 180.015 159.191 180.021 159.201 180.026C159.21 180.03 159.221 180.032 159.232 180.032ZM158.901 177.985C158.99 178.004 159.069 178.053 159.124 178.125C159.307 178.629 159.327 179.178 159.181 179.694C158.792 179.259 158.587 178.69 158.607 178.106C158.607 178.043 158.678 177.972 158.843 177.979L158.901 177.985Z" fill="#407BFF"/>
<path d="M144.761 184.15L140.336 182.161L143.396 171.246L147.821 173.236L144.761 184.15Z" fill="#7F3E3B"/>
<path opacity="0.2" d="M148.566 170.424L144.141 168.435L142.566 174.064L146.991 176.054L148.566 170.424Z" fill="black"/>
<path d="M183.486 112.012C183.275 112.012 147.655 115.678 147.611 127.759C147.534 147.74 141.828 170.641 141.828 170.641L148.841 174.128C148.841 174.128 161.101 149.302 160.916 133.727C170.716 130.915 196.064 135.639 199.061 127.517C201.516 120.874 200.189 112.012 200.189 112.012H183.486Z" fill="#407BFF"/>
<path d="M149.99 175.142L140.555 170.896L141.313 167.032L151.266 170.469L149.99 175.142Z" fill="#263238"/>
<path d="M140.783 178.495L146.164 179.611C146.265 179.645 146.351 179.713 146.406 179.804C146.461 179.896 146.481 180.003 146.464 180.108L146.043 185.687C145.966 186.293 145.533 186.707 145.067 186.611C143.206 186.184 142.326 185.853 139.967 185.336C138.513 185.043 134.554 184.061 132.559 183.558C130.563 183.054 131.009 180.497 131.921 180.478C135.867 180.421 138.424 179.777 139.941 178.674C140.062 178.588 140.199 178.527 140.344 178.496C140.488 178.466 140.638 178.465 140.783 178.495Z" fill="#263238"/>
<path d="M138.602 179.7C138.977 179.494 139.329 179.251 139.654 178.974C139.671 178.959 139.683 178.939 139.69 178.918C139.696 178.897 139.697 178.874 139.693 178.852C139.686 178.832 139.674 178.813 139.657 178.799C139.64 178.786 139.619 178.778 139.597 178.776C139.412 178.776 137.767 178.534 137.34 179.012C137.293 179.066 137.26 179.131 137.245 179.201C137.229 179.272 137.231 179.344 137.251 179.414C137.27 179.524 137.317 179.628 137.389 179.714C137.461 179.8 137.554 179.866 137.659 179.904C137.988 179.957 138.324 179.884 138.602 179.7ZM139.323 178.954C138.628 179.496 138.048 179.758 137.748 179.669C137.681 179.638 137.623 179.591 137.579 179.532C137.536 179.473 137.508 179.404 137.499 179.331C137.489 179.298 137.487 179.263 137.495 179.229C137.503 179.195 137.52 179.164 137.544 179.139C137.735 178.91 138.602 178.891 139.291 178.954H139.323Z" fill="#407BFF"/>
<path d="M139.622 178.974L139.666 178.942C139.677 178.926 139.683 178.907 139.683 178.887C139.683 178.868 139.677 178.849 139.666 178.833C139.635 178.789 139.105 177.482 138.461 177.284C138.378 177.258 138.29 177.251 138.204 177.264C138.118 177.277 138.036 177.31 137.964 177.361C137.879 177.406 137.811 177.48 137.773 177.569C137.735 177.658 137.728 177.758 137.754 177.851C137.888 178.381 138.991 178.948 139.558 178.986L139.622 178.974ZM138.136 177.52C138.179 177.501 138.224 177.492 138.27 177.492C138.316 177.492 138.362 177.501 138.404 177.52C138.853 177.816 139.197 178.247 139.386 178.75C138.813 178.631 138.308 178.296 137.977 177.813C137.939 177.762 137.977 177.66 138.092 177.571L138.136 177.52Z" fill="#407BFF"/>
<path d="M195.588 73.4655C196.526 75.4801 197.297 77.4183 198.068 79.4329C198.84 81.4476 199.522 83.4622 200.153 85.5279C200.784 87.5936 201.333 89.7102 201.773 91.9034C202.253 94.1821 202.492 96.5049 202.487 98.8336C202.48 100.201 202.276 101.56 201.881 102.869C201.631 103.671 201.273 104.434 200.816 105.139C200.546 105.535 200.241 105.907 199.905 106.248L199.63 106.516C199.477 106.644 199.312 106.784 199.152 106.892C198.883 107.075 198.597 107.233 198.298 107.364C197.854 107.554 197.393 107.702 196.921 107.804C196.548 107.881 196.171 107.936 195.792 107.97C195.145 108.008 194.495 108.008 193.848 107.97C192.698 107.913 191.552 107.785 190.418 107.587C186.186 106.817 182.041 105.629 178.043 104.042L178.967 100.529C183.016 101.014 187.147 101.53 191.043 101.709C192.012 101.709 192.955 101.754 193.835 101.709C194.227 101.685 194.616 101.636 195.002 101.562C195.321 101.505 195.595 101.39 195.499 101.397C195.435 101.416 195.375 101.446 195.321 101.486C195.256 101.523 195.196 101.568 195.142 101.62C195.163 101.585 195.183 101.549 195.199 101.511C195.281 101.329 195.345 101.139 195.391 100.944C195.531 100.243 195.589 99.5285 195.563 98.8144C195.466 96.9885 195.195 95.176 194.753 93.4016C194.32 91.489 193.759 89.6273 193.147 87.7338C192.534 85.8403 191.871 83.9468 191.145 82.0596C190.418 80.1725 189.653 78.279 188.9 76.5002L195.588 73.4655Z" fill="#7F3E3B"/>
<path d="M180.725 101.486L176.498 99.1077L174.375 103.685C174.375 103.685 179.316 105.745 180.355 104.457L180.725 101.486Z" fill="#7F3E3B"/>
<path d="M173.068 99.9748L171.137 103.035L174.369 103.653L176.492 99.0758L173.068 99.9748Z" fill="#7F3E3B"/>
<path d="M185.729 77.0994C184.92 79.1332 184.072 81.0777 183.179 83.0477C182.287 85.0178 181.394 86.9559 180.45 88.8941C178.55 92.8402 176.422 96.672 174.075 100.37C173.437 101.314 172.8 102.251 172.086 103.188C171.729 103.66 171.333 104.125 170.913 104.603C170.683 104.846 170.498 105.069 170.231 105.317L169.848 105.687L169.631 105.891C169.024 106.41 168.31 106.789 167.54 107C167.134 107.116 166.721 107.203 166.303 107.262C165.622 107.344 164.936 107.371 164.25 107.345C163.066 107.308 161.886 107.191 160.718 106.994C156.396 106.23 152.162 105.03 148.082 103.411L149.013 99.8918C153.138 100.389 157.352 100.918 161.318 101.084C162.253 101.119 163.189 101.106 164.123 101.046C164.499 101.015 164.872 100.955 165.239 100.867C165.357 100.837 165.473 100.794 165.583 100.74C165.621 100.74 165.583 100.695 165.411 100.804C165.347 100.836 165.289 100.88 165.239 100.931L165.302 100.855L165.481 100.657C165.596 100.542 165.736 100.351 165.87 100.198C166.131 99.8663 166.399 99.5093 166.667 99.1204C167.196 98.3617 167.712 97.5201 168.222 96.6658C169.242 94.9572 170.192 93.1402 171.123 91.304C172.054 89.4679 172.946 87.5935 173.826 85.7063C175.58 81.9448 177.295 78.0557 178.927 74.2942L185.729 77.0994Z" fill="#7F3E3B"/>
<path d="M150.825 100.81L146.592 98.3809L144.469 102.958C144.469 102.958 149.41 105.024 150.455 103.736L150.825 100.81Z" fill="#7F3E3B"/>
<path d="M143.169 99.3053L141.23 102.359L144.463 102.978L146.586 98.4L143.169 99.3053Z" fill="#7F3E3B"/>
<path d="M196.677 54.4791L193.973 57.6095L189.848 61.8747L190.161 62.6461C190.479 63.4347 190.664 64.2706 190.709 65.1198C190.805 66.8285 190.639 68.2757 187.942 69.4361C187.942 69.4361 185.111 73.1338 191.844 72.1074C198.577 71.0809 199.59 67.5872 199.59 67.5872C196.619 65.4641 196.441 58.4064 196.677 54.4791Z" fill="#7F3E3B"/>
<path d="M182.95 50.9472C182.95 51.368 182.74 51.725 182.459 51.7377C182.179 51.7505 181.956 51.419 181.949 50.9982C181.943 50.5774 182.166 50.2204 182.44 50.2076C182.714 50.1949 182.944 50.5264 182.95 50.9472Z" fill="#263238"/>
<path d="M184.36 49.3788C184.319 49.3784 184.279 49.3677 184.243 49.3477C184.208 49.3276 184.178 49.2988 184.156 49.264C183.991 48.9935 183.766 48.7644 183.499 48.5943C183.231 48.4241 182.928 48.3173 182.613 48.2822C182.548 48.2789 182.486 48.2506 182.441 48.2031C182.396 48.1556 182.371 48.0926 182.371 48.0272C182.371 47.9942 182.378 47.9617 182.391 47.9314C182.404 47.9011 182.423 47.8738 182.447 47.8512C182.47 47.8285 182.499 47.8109 182.529 47.7995C182.56 47.7881 182.593 47.7831 182.626 47.7849C183.023 47.8202 183.407 47.9482 183.746 48.1585C184.084 48.3689 184.369 48.6558 184.577 48.9962C184.611 49.0524 184.622 49.1196 184.608 49.1837C184.594 49.2479 184.555 49.304 184.501 49.3405C184.458 49.3648 184.409 49.378 184.36 49.3788Z" fill="#263238"/>
<path d="M182.798 51.2021C182.455 52.3498 181.962 53.4473 181.332 54.4664C181.594 54.6141 181.885 54.7021 182.185 54.7242C182.485 54.7462 182.786 54.7017 183.066 54.5939L182.798 51.2021Z" fill="#630F0F"/>
<path d="M197.059 48.8241C196.81 54.0265 196.925 57.1123 194.343 59.8665C193.513 60.7813 192.449 61.4518 191.265 61.8056C190.082 62.1594 188.824 62.183 187.628 61.8738C186.432 61.5646 185.343 60.9345 184.48 60.0515C183.616 59.1684 183.01 58.0661 182.727 56.8636C181.554 52.2541 182.166 44.5206 187.19 42.2C188.271 41.6644 189.474 41.424 190.678 41.5031C191.882 41.5822 193.043 41.978 194.045 42.6503C195.047 43.3226 195.853 44.2477 196.382 45.3319C196.912 46.416 197.145 47.6207 197.059 48.8241Z" fill="#7F3E3B"/>
<path d="M199.417 50.5646C198.666 52.7713 197.521 54.8234 196.038 56.6213L189.267 57.8964C189.267 57.8964 183.918 55.6586 185.346 51.9736C184.441 51.2085 184.779 48.8432 185.416 47.5426C185.93 47.9642 186.578 48.1867 187.242 48.1691C187.906 48.1515 188.541 47.8952 189.031 47.447C189.236 47.7678 189.513 48.037 189.839 48.2335C190.165 48.4301 190.532 48.5487 190.911 48.5802C191.291 48.6116 191.672 48.5551 192.026 48.4149C192.38 48.2748 192.697 48.0548 192.952 47.7721C193.242 48.0529 193.594 48.2627 193.978 48.385C194.363 48.5073 194.771 48.5388 195.17 48.477C195.569 48.4152 195.948 48.2619 196.278 48.029C196.608 47.7961 196.879 47.4899 197.071 47.1346C197.487 47.3947 197.974 47.5175 198.464 47.4854C198.954 47.4534 199.421 47.2682 199.8 46.9561L199.895 46.8668C199.987 48.1191 199.824 49.3769 199.417 50.5646Z" fill="#263238"/>
<path opacity="0.1" d="M199.417 50.5646C198.666 52.7713 197.521 54.8234 196.038 56.6213L189.267 57.8964C189.267 57.8964 183.918 55.6586 185.346 51.9736C184.441 51.2085 184.779 48.8432 185.416 47.5426C185.93 47.9642 186.578 48.1867 187.242 48.1691C187.906 48.1515 188.541 47.8952 189.031 47.447C189.236 47.7678 189.513 48.037 189.839 48.2335C190.165 48.4301 190.532 48.5487 190.911 48.5802C191.291 48.6116 191.672 48.5551 192.026 48.4149C192.38 48.2748 192.697 48.0548 192.952 47.7721C193.242 48.0529 193.594 48.2627 193.978 48.385C194.363 48.5073 194.771 48.5388 195.17 48.477C195.569 48.4152 195.948 48.2619 196.278 48.029C196.608 47.7961 196.879 47.4899 197.071 47.1346C197.487 47.3947 197.974 47.5175 198.464 47.4854C198.954 47.4534 199.421 47.2682 199.8 46.9561L199.895 46.8668C199.987 48.1191 199.824 49.3769 199.417 50.5646Z" fill="white"/>
<path d="M200.395 44.2529C200.579 44.6839 200.63 45.1599 200.541 45.6199C200.452 46.0799 200.229 46.503 199.898 46.8349L199.802 46.9242C199.424 47.2363 198.956 47.4215 198.467 47.4536C197.977 47.4856 197.49 47.3629 197.074 47.1027C196.882 47.4581 196.611 47.7642 196.281 47.9971C195.951 48.23 195.572 48.3834 195.173 48.4451C194.774 48.5069 194.366 48.4754 193.981 48.3531C193.596 48.2308 193.245 48.0211 192.955 47.7403C192.7 48.0229 192.383 48.2429 192.029 48.3831C191.675 48.5232 191.294 48.5798 190.914 48.5483C190.535 48.5168 190.168 48.3982 189.841 48.2017C189.515 48.0051 189.239 47.7359 189.034 47.4151C188.544 47.8633 187.908 48.1197 187.244 48.1372C186.58 48.1548 185.932 47.9324 185.419 47.5108C185.148 47.3006 184.93 47.0298 184.782 46.7202C184.747 46.6525 184.717 46.5821 184.692 46.5098C184.638 46.572 184.578 46.6295 184.514 46.6819C184.196 46.9361 183.807 47.0854 183.4 47.1093C182.994 47.1333 182.59 47.0308 182.244 46.8158C181.971 46.6258 181.751 46.3676 181.608 46.0668C181.465 45.766 181.403 45.433 181.428 45.1008C181.435 44.9625 181.459 44.8256 181.498 44.6928C181.448 44.7888 181.383 44.8769 181.307 44.9542C181.155 45.1008 180.975 45.2158 180.778 45.2924C180.581 45.369 180.371 45.4057 180.16 45.4004C179.949 45.395 179.741 45.3478 179.548 45.2613C179.355 45.1749 179.182 45.051 179.037 44.8968C178.89 44.6743 178.79 44.4243 178.742 44.162C178.695 43.8996 178.701 43.6303 178.761 43.3704C178.82 43.1105 178.932 42.8654 179.089 42.65C179.246 42.4346 179.446 42.2533 179.675 42.1171C180.039 41.9052 180.453 41.7951 180.873 41.7983C181.536 41.8079 182.178 42.0316 182.703 42.4359C182.501 42.0339 182.446 41.5735 182.55 41.1355C182.653 40.6975 182.908 40.31 183.269 40.0412C183.63 39.7724 184.074 39.6395 184.523 39.6659C184.973 39.6922 185.398 39.8761 185.725 40.1853C185.654 39.8599 185.682 39.5207 185.806 39.2115C185.93 38.9023 186.144 38.6375 186.42 38.4512C187.3 37.9411 188.766 38.381 189.48 39.2353C189.48 39.2353 190.462 36.8637 192.158 37.1314C192.528 37.1824 194.268 37.9539 194.224 38.5787C194.233 38.6185 194.233 38.66 194.224 38.6998C194.248 38.6509 194.275 38.604 194.307 38.5595C194.494 38.3065 194.741 38.1037 195.026 37.9692C195.311 37.8346 195.624 37.7724 195.939 37.7881C196.62 37.8384 197.286 38.0157 197.902 38.3109C199.222 38.8528 200.625 39.4585 201.39 40.6635C202.155 41.8684 201.766 43.8703 200.395 44.2529Z" fill="#263238"/>
<path d="M188.332 52.4772C188.144 53.7612 187.555 54.9528 186.649 55.8818C185.495 56.9847 184.513 55.8818 184.5 54.205C184.5 52.6876 185.067 50.2841 186.413 49.8378C187.758 49.3915 188.587 50.8005 188.332 52.4772Z" fill="#7F3E3B"/>
<path d="M208.731 69.3979C208.253 68.1228 206.022 66.8477 204.651 66.8477H203.746C201.919 66.8637 200.095 66.9808 198.282 67.1983C194.637 67.6015 191.019 68.2103 187.443 69.0217C185.798 69.4552 184.211 70.0035 182.949 70.4753C181.342 71.1129 180.398 71.54 180.398 71.54C180.398 71.54 182.158 83.2582 183.07 94.8999C183.573 101.384 183.363 107.817 183.529 112.241H210.727C211.664 106.924 211.517 102.289 211.594 92.6876C211.632 86.905 210.695 74.6449 208.731 69.3979Z" fill="black"/>
<path opacity="0.2" d="M182.48 88.3969C182.684 90.8387 182.895 93.4016 183.118 95.9646C186.306 91.3105 188.065 78.5786 188.065 78.5786L182.48 88.3969Z" fill="black"/>
<path d="M178.859 72.3943C174.963 74.5875 171.145 85.7828 171.145 85.7828L180.07 92.509C183.475 89.2894 188.454 81.3009 188.996 78.1067C189.863 73.2359 185.101 68.9005 178.859 72.3943Z" fill="black"/>
<path d="M171.156 186.643C171.156 187.192 170.993 187.728 170.689 188.184C170.384 188.64 169.951 188.996 169.444 189.205C168.937 189.415 168.38 189.47 167.842 189.363C167.304 189.256 166.81 188.992 166.422 188.604C166.034 188.216 165.77 187.722 165.663 187.184C165.556 186.646 165.611 186.089 165.82 185.582C166.03 185.075 166.386 184.642 166.842 184.337C167.298 184.033 167.834 183.87 168.383 183.87C169.118 183.87 169.824 184.162 170.344 184.682C170.864 185.202 171.156 185.908 171.156 186.643Z" fill="#263238"/>
<path d="M212.559 186.643C212.559 187.192 212.721 187.728 213.026 188.184C213.331 188.64 213.764 188.996 214.271 189.205C214.777 189.415 215.335 189.47 215.873 189.363C216.411 189.256 216.905 188.992 217.293 188.604C217.681 188.216 217.945 187.722 218.052 187.184C218.159 186.646 218.104 186.089 217.894 185.582C217.684 185.075 217.329 184.642 216.873 184.337C216.417 184.033 215.88 183.87 215.332 183.87C214.596 183.87 213.891 184.162 213.371 184.682C212.851 185.202 212.559 185.908 212.559 186.643Z" fill="#263238"/>
<path d="M189.141 185.725C189.141 186.274 189.303 186.81 189.608 187.266C189.913 187.722 190.346 188.078 190.853 188.287C191.359 188.497 191.917 188.552 192.455 188.445C192.993 188.338 193.487 188.074 193.875 187.686C194.263 187.298 194.527 186.804 194.634 186.266C194.741 185.728 194.686 185.171 194.476 184.664C194.266 184.157 193.911 183.724 193.455 183.419C192.999 183.115 192.462 182.952 191.914 182.952C191.178 182.952 190.473 183.244 189.953 183.764C189.433 184.284 189.141 184.99 189.141 185.725Z" fill="#263238"/>
<path d="M191.053 182.333V176.972H183.109C181.549 176.969 179.993 177.115 178.461 177.405L163.67 180.274C163.338 180.339 163.043 180.526 162.843 180.798C162.643 181.071 162.553 181.409 162.59 181.745C162.628 182.081 162.791 182.39 163.047 182.611C163.302 182.833 163.632 182.95 163.97 182.939L191.053 182.333Z" fill="#263238"/>
<path d="M191.055 182.333V176.972H199.005C200.559 176.981 202.109 177.137 203.634 177.437L220.261 180.089C220.593 180.154 220.888 180.341 221.088 180.614C221.288 180.886 221.378 181.224 221.34 181.56C221.303 181.896 221.14 182.205 220.884 182.427C220.629 182.648 220.299 182.765 219.961 182.754L191.055 182.333Z" fill="#263238"/>
<path d="M195.97 152.42H186.133V176.972H195.97V152.42Z" fill="#263238"/>
<path d="M194.56 141.001H187.547V152.42H194.56V141.001Z" fill="#263238"/>
<path opacity="0.5" d="M187.547 144.355L194.56 146.114V141.001H187.547V144.355Z" fill="black"/>
<path d="M168.384 115.168H164.82V130.373H168.384V115.168Z" fill="#263238"/>
<path d="M186.254 141.001V74.8935C186.253 73.6567 186.517 72.434 187.029 71.3079C187.54 70.1818 188.287 69.1783 189.219 68.365L193.93 64.24C195.517 62.8484 197.557 62.0843 199.668 62.0915H216.684L224.985 70.9662V141.001H186.254Z" fill="#407BFF"/>
<path d="M160.916 128.212H199.743V141.001H154.585C153.776 141 152.981 140.785 152.281 140.377C151.581 139.97 151.001 139.385 150.6 138.682C150.199 137.978 149.991 137.182 149.996 136.372C150.002 135.562 150.221 134.769 150.632 134.071C151.688 132.284 153.192 130.803 154.996 129.775C156.8 128.747 158.84 128.209 160.916 128.212Z" fill="#407BFF"/>
<path opacity="0.7" d="M224.983 70.9662V141.001H154.585C153.776 141 152.981 140.785 152.281 140.377C151.581 139.97 151.001 139.385 150.6 138.682C150.199 137.978 149.991 137.182 149.996 136.372C150.002 135.562 150.221 134.768 150.632 134.071C151.689 132.284 153.193 130.804 154.996 129.776C156.8 128.748 158.84 128.209 160.916 128.212H180.47C182.01 128.212 183.487 127.6 184.577 126.511C185.666 125.421 186.278 123.944 186.278 122.404V74.8935C186.277 73.6567 186.541 72.434 187.053 71.3079C187.564 70.1818 188.311 69.1783 189.242 68.365L193.954 64.24C195.541 62.8484 197.581 62.0843 199.692 62.0915H216.708L224.983 70.9662Z" fill="white"/>
<path d="M191.914 141.001V74.8935C191.915 73.6569 192.18 72.4348 192.691 71.3089C193.202 70.1831 193.948 69.1793 194.879 68.365L199.59 64.24C201.177 62.8484 203.218 62.0843 205.328 62.0915H218.596C219.781 62.0906 220.954 62.3328 222.041 62.8033C223.129 63.2737 224.109 63.9623 224.92 64.8266L228.312 68.4287C229.823 70.0406 230.664 72.1674 230.664 74.3771V134.377C230.665 135.248 230.494 136.11 230.161 136.914C229.828 137.719 229.34 138.45 228.724 139.065C228.108 139.68 227.377 140.168 226.572 140.5C225.767 140.833 224.904 141.003 224.034 141.001H191.914Z" fill="#407BFF"/>
<path opacity="0.5" d="M191.914 141.001V74.8935C191.915 73.6569 192.18 72.4348 192.691 71.3089C193.202 70.1831 193.948 69.1793 194.879 68.365L199.59 64.24C201.177 62.8484 203.218 62.0843 205.328 62.0915H218.596C219.781 62.0906 220.954 62.3328 222.041 62.8033C223.129 63.2737 224.109 63.9623 224.92 64.8266L228.312 68.4287C229.823 70.0406 230.664 72.1674 230.664 74.3771V134.377C230.665 135.248 230.494 136.11 230.161 136.914C229.828 137.719 229.34 138.45 228.724 139.065C228.108 139.68 227.377 140.168 226.572 140.5C225.767 140.833 224.904 141.003 224.034 141.001H191.914Z" fill="white"/>
<path d="M178.705 119.809C170.862 117.067 162.321 117.067 154.478 119.809C153.691 120.103 152.824 120.1 152.039 119.8C151.254 119.501 150.605 118.926 150.213 118.183C149.486 116.647 150.461 114.657 152.438 113.963C161.598 110.762 171.572 110.762 180.732 113.963C182.709 114.651 183.684 116.647 182.957 118.183C182.566 118.923 181.919 119.496 181.137 119.795C180.354 120.094 179.49 120.099 178.705 119.809Z" fill="#407BFF"/>
<path opacity="0.7" d="M178.705 119.809C170.862 117.067 162.321 117.067 154.478 119.809C153.691 120.103 152.824 120.1 152.039 119.8C151.254 119.501 150.605 118.926 150.213 118.183C149.486 116.647 150.461 114.657 152.438 113.963C161.598 110.762 171.572 110.762 180.732 113.963C182.709 114.651 183.684 116.647 182.957 118.183C182.566 118.923 181.919 119.496 181.137 119.795C180.354 120.094 179.49 120.099 178.705 119.809Z" fill="white"/>
<path d="M79.6231 56.5512C79.4892 56.9273 79.5849 57.3035 79.8335 57.3864C80.0822 57.4692 80.3882 57.2397 80.5157 56.8636C80.6432 56.4874 80.554 56.1049 80.3117 56.022C80.0694 55.9391 79.757 56.1686 79.6231 56.5512Z" fill="#263238"/>
<path d="M79.5547 56.9402C79.6067 58.2529 79.8362 59.5526 80.2369 60.8037C79.9156 60.8945 79.5787 60.9153 79.2487 60.8647C78.9188 60.8141 78.6035 60.6933 78.3242 60.5105L79.5547 56.9402Z" fill="#A02724"/>
<path d="M79.014 53.9882C79.0373 53.9979 79.0622 54.0028 79.0874 54.0028C79.1125 54.0028 79.1374 53.9979 79.1607 53.9882C79.441 53.8989 79.7381 53.8755 80.0289 53.9197C80.3197 53.9639 80.5964 54.0747 80.8374 54.2432C80.8625 54.2618 80.891 54.2753 80.9213 54.2828C80.9515 54.2903 80.983 54.2917 81.0139 54.2869C81.0447 54.2822 81.0743 54.2714 81.1009 54.2551C81.1275 54.2389 81.1507 54.2175 81.169 54.1922C81.2042 54.149 81.2234 54.095 81.2234 54.0392C81.2234 53.9835 81.2042 53.9294 81.169 53.8862C80.8695 53.6637 80.5212 53.5157 80.1531 53.4548C79.7849 53.3938 79.4076 53.4215 79.0523 53.5356C78.9941 53.5572 78.9465 53.6004 78.9192 53.6561C78.8919 53.7119 78.8871 53.776 78.9057 53.8352C78.9164 53.8697 78.9354 53.9011 78.9609 53.9266C78.9865 53.9521 79.0178 53.9711 79.0523 53.9818L79.014 53.9882Z" fill="#263238"/>
<path d="M65.6431 57.941C66.3571 61.5687 67.0648 68.2183 64.5273 70.641C64.5273 70.641 65.5219 74.3197 72.2672 74.3197C79.6819 74.3197 75.812 70.641 75.812 70.641C71.7635 69.672 72.4138 66.6691 73.1215 63.8511L65.6431 57.941Z" fill="#B55B52"/>
<path d="M67.2962 51.3616C65.9701 56.1049 64.9501 58.8145 66.4674 62.0086C68.7435 66.8221 76.7001 67.4469 78.8678 61.9385C80.519 56.8381 82.1512 51.5018 78.2302 48.0782C77.3729 47.319 76.336 46.7913 75.2176 46.545C74.0993 46.2987 72.9366 46.342 71.8397 46.6708C70.7427 46.9996 69.748 47.6031 68.9495 48.4239C68.1511 49.2448 67.5754 50.256 67.2771 51.3616H67.2962Z" fill="#B55B52"/>
<path d="M62.1566 52.9427C61.8123 51.1958 61.7231 49.2832 62.5965 47.7275C63.4699 46.1719 65.5802 45.222 67.1167 46.1273C67.616 45.0757 68.3545 44.1555 69.2731 43.4404C70.1918 42.7253 71.265 42.2351 72.407 42.0091C73.549 41.7831 74.728 41.8275 75.8498 42.1388C76.9715 42.4501 78.0048 43.0196 78.8671 43.8018C79.7293 44.584 80.3965 45.5571 80.8152 46.6433C81.234 47.7295 81.3927 48.8987 81.2786 50.0572C81.1646 51.2158 80.781 52.3315 80.1585 53.3153C79.536 54.299 78.6919 55.1234 77.6937 55.7224C78.0443 54.4154 78.4014 53.1148 78.752 51.8079C78.4388 53.6276 77.4733 55.2708 76.0361 56.4301L76.6736 52.5219C76.5734 53.4445 76.2596 54.3309 75.7572 55.1111C75.2548 55.8913 74.5775 56.5437 73.7791 57.0166L74.5251 54.2816C74.1472 55.5393 73.6652 56.7633 73.0842 57.9411C72.4467 58.6743 72.0386 63.4686 69.8454 63.6217C62.3096 65.1199 62.9599 57.023 62.1566 52.9427Z" fill="#263238"/>
<path d="M72.3 55.2124C72.1728 56.4285 72.4459 57.653 73.0778 58.6998C73.9258 60.0641 75.169 59.5413 75.628 58.1451C76.0361 56.87 76.0807 54.6705 74.9012 53.7843C73.7218 52.8981 72.4785 53.7524 72.3 55.2124Z" fill="#B55B52"/>
<path d="M54.3268 101.167C53.5171 100.899 49.7237 98.9483 49.118 99.299C50.8713 94.8361 51.9615 94.1412 52.7584 91.2977C52.9803 90.5917 53.0189 89.8409 52.8706 89.116C52.7222 88.391 52.3918 87.7157 51.9105 87.1536C50.7884 85.649 50.3995 84.8903 48.5379 85.0752C45.9877 89.3595 42.7425 94.6385 41.4802 99.4775C41.053 101.103 40.747 102.34 41.7161 103.717C42.5704 104.929 44.1451 105.413 45.6243 105.547C49.1754 105.866 54.448 105.215 54.3778 103.105C54.3396 101.773 54.3268 101.167 54.3268 101.167Z" fill="#B55B52"/>
<path d="M53.7259 101.008L56.7351 100.032L56.4673 105.47C56.4673 105.47 54.0574 105.553 52.7695 103.94L53.7259 101.008Z" fill="#B55B52"/>
<path d="M60.4981 99.9429L60.0645 104.431L56.4688 105.47L56.7365 100.032L60.4981 99.9429Z" fill="#B55B52"/>
<path d="M95.004 104.871C95.004 104.871 90.7898 101.569 85.2941 90.7303C84.478 89.213 83.7002 87.6765 82.9479 86.1336C82.1956 84.5907 81.4815 83.0479 80.793 81.4094L87.3087 78.6041C88.6476 81.5241 90.7387 84.5397 92.2179 87.4406C93.697 90.3414 97.1844 97.2142 97.6243 97.8518C97.8411 98.1833 98.0769 98.4574 98.3001 98.7635L98.638 99.2097L94.4365 104.068L95.004 104.871Z" fill="#B55B52"/>
<path d="M100.519 83.7172L99.2438 82.1616L98.6445 79.8346L102.578 76.1814C103.18 76.9463 103.715 77.7611 104.178 78.6168C104.28 78.8136 104.328 79.0333 104.319 79.2544L104.159 83.3538L100.519 83.7172Z" fill="#B55B52"/>
<path d="M98.6628 77.3226L101.608 74.6512L102.539 76.2132L98.6055 79.8473L98.6628 77.3226Z" fill="#B55B52"/>
<path d="M100.576 82.5953C100.678 82.1554 100.767 83.016 101.06 82.6718C101.927 81.6262 103.19 81.5178 103.942 82.6718C104.694 83.8257 104.05 95.1805 102.852 98.7444C102.055 101.11 101.628 102.997 99.5875 104.438C98.7629 105.074 97.7594 105.435 96.7185 105.471C96.2002 105.477 95.6908 105.335 95.2504 105.062C94.8099 104.788 94.4566 104.395 94.2321 103.928C93.5945 102.442 95.877 97.0868 96.6803 95.359C99.1986 89.9207 99.3707 87.7339 100.576 82.5953Z" fill="#B55B52"/>
<path d="M92.1414 82.1043L97.3502 82.0533C98.0935 82.1009 98.8382 81.9834 99.5306 81.709C100.379 81.2137 101.013 80.4206 101.309 79.484C102.049 77.5713 102.113 75.5184 102.4 73.5165C102.686 71.5146 103.299 69.4107 104.816 68.0654C102.049 68.4352 97.1653 67.5681 95.0295 69.8314C93.9074 71.0364 91.9246 82.1043 92.1414 82.1043Z" fill="#407BFF"/>
<path opacity="0.5" d="M92.1414 82.1043L97.3502 82.0533C98.0935 82.1009 98.8382 81.9834 99.5306 81.709C100.379 81.2137 101.013 80.4206 101.309 79.484C102.049 77.5713 102.113 75.5184 102.4 73.5165C102.686 71.5146 103.299 69.4107 104.816 68.0654C102.049 68.4352 97.1653 67.5681 95.0295 69.8314C93.9074 71.0364 91.9246 82.1043 92.1414 82.1043Z" fill="white"/>
<path d="M101.051 74.3644C100.751 74.4473 100.554 75.512 100.617 75.818L100.911 76.3408L101.504 78.891L103.493 77.7944L101.701 74.6067C101.633 74.5024 101.533 74.4226 101.416 74.3791C101.299 74.3355 101.171 74.3304 101.051 74.3644Z" fill="#B55B52"/>
<path d="M56.1256 71.5528C51.4715 72.6175 44.5859 87.1218 44.5859 87.1218L53.926 93.4973C56.6159 89.6591 59.0441 85.6441 61.1941 81.4795C63.9547 75.7033 60.8817 70.4626 56.1256 71.5528Z" fill="#407BFF"/>
<path d="M62.9212 71.9035C62.3857 70.7368 61.8055 69.4043 63.0105 68.9899C64.343 68.5308 71.6366 68.059 74.1485 68.9197C74.4775 69.009 74.7857 69.1624 75.0553 69.3712C75.3249 69.5799 75.5506 69.8398 75.7194 70.136C75.8883 70.4323 75.9969 70.7589 76.0391 71.0972C76.0814 71.4355 76.0564 71.7789 75.9655 72.1075V72.1521L62.9212 71.9035Z" fill="#263238"/>
<path opacity="0.2" d="M59.0002 79.9302L52.3633 92.4262L53.9253 93.4972C53.9253 93.4972 56.9345 89.3085 59.0257 85.6873L59.0002 79.9302Z" fill="black"/>
<path d="M84.4112 77.9346C85.4186 83.035 83.066 95.1485 83.0915 114.913H56.5567C56.3845 110.921 59.2918 101.46 55.6769 82.6142C55.5621 81.9767 55.5111 71.6802 56.1232 71.5719C58.6927 71.1227 61.2851 70.8162 63.8885 70.6538C67.6469 70.437 71.4147 70.437 75.1731 70.6538C76.7096 70.8132 79.126 71.7631 80.6561 72.3114C83.0341 73.153 83.9267 75.429 84.4112 77.9346Z" fill="#407BFF"/>
<path opacity="0.2" d="M77.3984 83.0032C78.087 87.1919 80.8348 92.7258 83.5699 95.9773C83.6783 93.5993 83.9206 91.1128 83.9142 89.2065L77.3984 83.0032Z" fill="black"/>
<path d="M75.4886 76.7041C74.851 81.4029 84.0955 93.3952 84.0955 93.3952L93.3973 87.0197C93.3973 87.0197 90.8153 80.4083 86.4735 76.073C81.5453 71.1128 76.2345 71.6037 75.4886 76.7041Z" fill="#407BFF"/>
<path d="M105.91 180.701H110.87L111.999 169.206H107.039L105.91 180.701Z" fill="#B55B52"/>
<path opacity="0.2" d="M111.923 169.907L111.349 175.83H106.383L106.963 169.907H111.923Z" fill="black"/>
<path d="M86.3438 180.701H91.3039L93.7967 169.206H88.8366L86.3438 180.701Z" fill="#B55B52"/>
<g opacity="0.2">
<path d="M88.7293 169.825H93.6894L92.4015 175.748H87.4414L88.7293 169.825Z" fill="black"/>
</g>
<path d="M111.153 178.476H105.74C105.628 178.489 105.524 178.541 105.446 178.623C105.368 178.704 105.321 178.81 105.313 178.923L104.331 184.597C104.275 184.817 104.297 185.05 104.395 185.255C104.493 185.46 104.66 185.624 104.867 185.719C104.926 185.728 104.986 185.728 105.045 185.719C106.996 185.681 109.82 185.528 112.275 185.528C115.15 185.528 117.63 185.725 120.997 185.725C123.037 185.725 123.604 183.06 122.75 182.824C118.867 181.728 115.699 181.613 112.345 178.929C112.011 178.646 111.59 178.486 111.153 178.476Z" fill="#263238"/>
<path d="M115.091 180.319C115.729 180.319 116.366 180.23 116.551 179.943C116.604 179.867 116.632 179.777 116.632 179.684C116.632 179.592 116.604 179.502 116.551 179.426C116.466 179.292 116.335 179.194 116.181 179.152C115.353 178.929 113.631 179.917 113.548 179.962C113.527 179.973 113.509 179.991 113.499 180.012C113.488 180.034 113.486 180.059 113.491 180.083C113.494 180.106 113.505 180.128 113.521 180.145C113.537 180.162 113.557 180.174 113.58 180.179C114.078 180.273 114.584 180.32 115.091 180.319ZM115.882 179.356H116.105C116.153 179.366 116.198 179.386 116.238 179.414C116.277 179.443 116.31 179.48 116.334 179.522C116.417 179.669 116.392 179.739 116.334 179.777C116.105 180.102 114.849 180.108 113.925 179.975C114.533 179.647 115.196 179.435 115.882 179.35V179.356Z" fill="#407BFF"/>
<path d="M113.595 180.179H113.646C114.246 179.911 115.432 178.84 115.336 178.266C115.336 178.132 115.221 177.973 114.902 177.934C114.671 177.917 114.443 177.99 114.265 178.138C113.627 178.655 113.5 179.994 113.493 180.051C113.49 180.071 113.493 180.092 113.501 180.111C113.509 180.13 113.522 180.147 113.538 180.159C113.555 180.171 113.575 180.178 113.595 180.179ZM114.807 178.17H114.877C115.087 178.17 115.1 178.279 115.106 178.304C115.164 178.642 114.354 179.484 113.742 179.847C113.794 179.286 114.017 178.754 114.38 178.323C114.501 178.226 114.651 178.173 114.807 178.17Z" fill="#407BFF"/>
<path d="M91.6536 178.476H86.0814C85.9701 178.49 85.867 178.541 85.7901 178.623C85.7132 178.705 85.6674 178.811 85.6607 178.923L84.6788 184.597C84.6255 184.822 84.6532 185.058 84.757 185.264C84.8608 185.471 85.034 185.634 85.2463 185.725C85.2992 185.731 85.3527 185.731 85.4056 185.725C87.3502 185.687 88.3001 185.534 90.7483 185.534C92.2593 185.534 94.1911 185.732 96.2759 185.732C98.3607 185.732 98.6284 183.067 97.7741 182.831C93.9488 181.747 93.6874 180.281 92.4633 178.827C92.3618 178.713 92.2368 178.623 92.097 178.563C91.9572 178.502 91.8059 178.473 91.6536 178.476Z" fill="#263238"/>
<path d="M94.568 180.95C94.7783 180.979 94.9924 180.965 95.1973 180.909C95.4022 180.853 95.5936 180.757 95.7602 180.625C95.8188 180.544 95.8503 180.447 95.8503 180.347C95.8503 180.248 95.8188 180.151 95.7602 180.07C95.7224 180 95.6697 179.939 95.6058 179.892C95.5419 179.844 95.4684 179.812 95.3904 179.796C94.6636 179.624 93.2929 180.561 93.2355 180.599C93.2173 180.613 93.203 180.632 93.1941 180.653C93.1852 180.674 93.1818 180.698 93.1845 180.72C93.1882 180.743 93.1988 180.763 93.2148 180.779C93.2308 180.795 93.2514 180.806 93.2737 180.81C93.6987 180.904 94.1327 180.951 94.568 180.95ZM95.2055 180.006H95.3458C95.3908 180.015 95.4334 180.033 95.4708 180.059C95.5082 180.086 95.5395 180.12 95.5625 180.159C95.6709 180.357 95.6072 180.434 95.5625 180.465C95.3521 180.74 94.3384 180.746 93.5925 180.625C94.0718 180.296 94.6185 180.078 95.1928 179.987L95.2055 180.006Z" fill="#407BFF"/>
<path d="M93.3402 180.816C93.8566 180.536 94.8512 179.452 94.7428 178.903C94.7265 178.816 94.6799 178.736 94.6112 178.679C94.5425 178.622 94.456 178.591 94.3667 178.591C94.2778 178.582 94.1881 178.592 94.1027 178.618C94.0174 178.644 93.9381 178.687 93.8694 178.744C93.2956 179.216 93.1745 180.657 93.1681 180.708C93.1671 180.729 93.172 180.751 93.182 180.77C93.1921 180.789 93.2071 180.805 93.2255 180.816H93.3402ZM94.3412 178.808H94.3922C94.5452 178.808 94.5579 178.897 94.5643 178.929C94.6281 179.254 93.9905 180.077 93.4805 180.465C93.52 179.901 93.7239 179.36 94.067 178.91C94.1436 178.845 94.2406 178.808 94.3412 178.808Z" fill="#407BFF"/>
<path d="M75.1427 114.9C75.1427 114.9 98.6364 124.603 103.494 132.056C100.606 151.017 95.4231 172.617 95.4231 172.617H86.5867C86.6007 163.271 87.3661 153.941 88.8755 144.718C90.1506 121.543 48.4421 145.521 56.5453 114.9H75.1427Z" fill="black"/>
<path opacity="0.3" d="M91.3862 130.896C89.7405 130.993 88.1015 131.182 86.4771 131.463L81.332 132.254C83.9861 134.484 86.787 136.533 89.7158 138.387C91.4946 139.516 93.4327 140.6 95.5303 140.606C97.8892 140.606 104.29 137.584 103.232 134.441C102.174 131.298 94.0639 130.781 91.3862 130.896Z" fill="black"/>
<path d="M83.0977 114.9C83.0977 114.9 104.813 117.705 116.786 124.52C120.471 126.618 119.974 133.357 119.859 137.794C119.602 149.702 117.317 161.478 113.101 172.617H105.718C105.718 172.617 106.094 160.587 105.845 141.173C105.769 135.352 94.0189 133.433 82.5366 132.758C77.6742 132.452 72.9941 130.793 69.0242 127.969C65.0543 125.145 61.9527 121.267 60.0693 116.774L59.2852 114.9H83.0977Z" fill="black"/>
<path d="M114.893 170.641C114.931 170.641 114.415 174.128 114.415 174.128H104.214L103.934 171.017L114.893 170.641Z" fill="#407BFF"/>
<path d="M96.2786 170.641C96.3169 170.641 95.3414 174.128 95.3414 174.128H85.1406L85.3255 171.017L96.2786 170.641Z" fill="#407BFF"/>
<path d="M68.8629 132.496L61.5566 186.376L60.2305 186.191L65.8728 132.088L68.8629 132.496Z" fill="#407BFF"/>
<path opacity="0.4" d="M68.6015 134.422L61.5566 186.375L60.2305 186.191L65.6305 134.415L68.6015 134.422Z" fill="black"/>
<path d="M94.5736 134.422H53.1328C53.1328 133.8 53.2552 133.185 53.4929 132.611C53.7306 132.037 54.0791 131.516 54.5184 131.076C54.9577 130.637 55.4792 130.289 56.0531 130.051C56.627 129.813 57.2422 129.691 57.8634 129.691H89.8429C90.4642 129.691 91.0793 129.813 91.6533 130.051C92.2272 130.289 92.7487 130.637 93.188 131.076C93.6273 131.516 93.9757 132.037 94.2135 132.611C94.4512 133.185 94.5736 133.8 94.5736 134.422Z" fill="#407BFF"/>
<path opacity="0.7" d="M94.5736 134.422H53.1328C53.1328 133.8 53.2552 133.185 53.4929 132.611C53.7306 132.037 54.0791 131.516 54.5184 131.076C54.9577 130.637 55.4792 130.289 56.0531 130.051C56.627 129.813 57.2422 129.691 57.8634 129.691H89.8429C90.4642 129.691 91.0793 129.813 91.6533 130.051C92.2272 130.289 92.7487 130.637 93.188 131.076C93.6273 131.516 93.9757 132.037 94.2135 132.611C94.4512 133.185 94.5736 133.8 94.5736 134.422Z" fill="white"/>
<path d="M55.0527 134.415L48.8047 186.796H50.1435L58.0683 134.415H55.0527Z" fill="#407BFF"/>
<path d="M92.6577 134.415L98.9057 186.796H97.5668L89.6484 134.415H92.6577Z" fill="#407BFF"/>
<path opacity="0.4" d="M92.6577 134.415L98.9057 186.796H97.5668L89.6484 134.415H92.6577Z" fill="black"/>
<path d="M84.2969 134.415L84.418 186.796H83.0855L81.2812 134.415H84.2969Z" fill="#407BFF"/>
</g>
<defs>
<clipPath id="clip0_2386_3750">
<rect width="270.906" height="200" fill="white"/>
</clipPath>
</defs>
</svg>
