<svg width="629" height="600" viewBox="0 0 629 600" fill="none" xmlns="http://www.w3.org/2000/svg">
<g clip-path="url(#clip0_1098_22386)">
<path d="M314.128 592.029C487.615 592.029 628.255 583.818 628.255 573.689C628.255 563.56 487.615 555.349 314.128 555.349C140.64 555.349 0 563.56 0 573.689C0 583.818 140.64 592.029 314.128 592.029Z" fill="#F5F5F5"/>
<path d="M628.433 49.3818V375.434C628.345 379.294 626.788 382.976 624.078 385.728C621.369 388.48 617.711 390.094 613.852 390.242H144.645C136.853 390.242 131.053 383.243 131.053 375.434V49.3818C130.998 47.5653 131.31 45.7563 131.969 44.0628C132.629 42.3692 133.622 40.8257 134.89 39.5241C136.159 38.2225 137.676 37.1895 139.352 36.4866C141.028 35.7836 142.828 35.4251 144.645 35.4325H613.852C617.623 35.3922 621.26 36.8293 623.985 39.4362C626.71 42.0431 628.307 45.6128 628.433 49.3818Z" fill="#407BFF"/>
<path opacity="0.1" d="M628.433 90.0146V375.433C628.345 379.294 626.788 382.976 624.078 385.728C621.369 388.48 617.711 390.094 613.852 390.241H144.645C136.853 390.241 131.053 383.242 131.053 375.433V264.341C172.334 184.954 270.74 172.091 385.948 218.507C549.047 284.22 618.599 195.032 628.433 90.0146Z" fill="white"/>
<path opacity="0.2" d="M500.313 352.978H262.283C260.135 352.978 258.074 352.125 256.555 350.606C255.036 349.086 254.183 347.026 254.183 344.878C254.183 342.729 255.036 340.669 256.555 339.15C258.074 337.63 260.135 336.777 262.283 336.777H500.313C502.462 336.777 504.522 337.63 506.041 339.15C507.56 340.669 508.414 342.729 508.414 344.878C508.414 347.026 507.56 349.086 506.041 350.606C504.522 352.125 502.462 352.978 500.313 352.978Z" fill="black"/>
<path d="M262.283 351.358C260.565 351.358 258.916 350.675 257.701 349.46C256.485 348.245 255.803 346.596 255.803 344.878C255.803 343.159 256.485 341.51 257.701 340.295C258.916 339.08 260.565 338.397 262.283 338.397H402.976C404.694 338.397 406.343 339.08 407.558 340.295C408.773 341.51 409.456 343.159 409.456 344.878C409.456 346.596 408.773 348.245 407.558 349.46C406.343 350.675 404.694 351.358 402.976 351.358H262.283Z" fill="#407BFF"/>
<path opacity="0.7" d="M262.283 351.358C260.565 351.358 258.916 350.675 257.701 349.46C256.485 348.245 255.803 346.596 255.803 344.878C255.803 343.159 256.485 341.51 257.701 340.295C258.916 339.08 260.565 338.397 262.283 338.397H402.976C404.694 338.397 406.343 339.08 407.558 340.295C408.773 341.51 409.456 343.159 409.456 344.878C409.456 346.596 408.773 348.245 407.558 349.46C406.343 350.675 404.694 351.358 402.976 351.358H262.283Z" fill="white"/>
<path d="M168.202 364.741C183.302 376.876 178.036 434.795 180.872 443.706C183.707 452.617 195.858 459.907 195.858 459.907L178.911 479.754C178.911 479.754 164.735 477.291 153.961 454.204C143.187 431.118 168.202 364.741 168.202 364.741Z" fill="black"/>
<path d="M152.114 491.905C152.114 491.905 260.663 461.624 274.24 499.714C287.817 537.803 189.377 568.148 134.892 570.076C80.4072 572.004 58.1465 533.639 74.2182 497.3L152.114 491.905Z" fill="#FF6C37"/>
<path opacity="0.2" d="M152.114 491.905C152.114 491.905 260.663 461.624 274.24 499.714C287.817 537.803 189.377 568.148 134.892 570.076C80.4072 572.004 58.1465 533.639 74.2182 497.3L152.114 491.905Z" fill="black"/>
<path d="M258.508 553.551C258.448 553.59 258.378 553.611 258.306 553.611C258.234 553.611 258.164 553.59 258.103 553.551C258.05 553.515 258.011 553.461 257.993 553.399C257.975 553.336 257.98 553.27 258.006 553.211C258.184 552.611 259.999 547.362 261.813 546.811C262.01 546.769 262.213 546.776 262.406 546.833C262.598 546.889 262.773 546.993 262.915 547.135C263.167 547.348 263.359 547.623 263.47 547.933C263.58 548.243 263.607 548.577 263.547 548.901C263.253 549.881 262.658 550.742 261.846 551.364C260.805 552.197 259.688 552.93 258.508 553.551ZM258.978 552.53C260.677 551.789 262.051 550.46 262.85 548.788C262.898 548.566 262.881 548.334 262.8 548.122C262.72 547.909 262.58 547.724 262.397 547.589C262.349 547.526 262.282 547.481 262.205 547.46C262.129 547.44 262.048 547.445 261.975 547.476C261.817 547.52 261.672 547.604 261.554 547.719C260.429 549.155 259.578 550.786 259.043 552.53H258.978Z" fill="#FF6C37"/>
<path d="M258.411 553.616C258.351 553.634 258.287 553.635 258.227 553.618C258.166 553.601 258.112 553.566 258.071 553.519C257.893 553.373 255.382 550.181 255.803 548.043C255.851 547.778 255.952 547.525 256.1 547.3C256.247 547.075 256.438 546.881 256.661 546.73C256.853 546.546 257.102 546.432 257.368 546.408C257.633 546.385 257.898 546.453 258.12 546.601C259.432 547.524 259.27 551.769 258.622 553.389V553.551L258.411 553.616ZM256.969 547.378C256.747 547.578 256.599 547.846 256.548 548.14C256.273 549.501 257.536 551.542 258.168 552.514C258.573 550.7 258.444 547.654 257.666 547.184C257.585 547.184 257.423 547.006 257.034 547.281L256.904 547.378H256.969Z" fill="#FF6C37"/>
<path d="M147.902 572.815C147.921 572.746 147.958 572.685 148.009 572.636C148.061 572.588 148.124 572.554 148.193 572.539C148.257 572.531 148.322 572.544 148.378 572.576C148.433 572.608 148.477 572.658 148.501 572.717C148.825 573.268 151.304 578.226 150.413 579.911C150.314 580.083 150.169 580.226 149.995 580.323C149.821 580.42 149.624 580.468 149.425 580.462C149.099 580.5 148.769 580.45 148.469 580.316C148.169 580.182 147.912 579.969 147.724 579.7C147.228 578.802 147.03 577.77 147.157 576.751C147.276 575.418 147.526 574.099 147.902 572.815ZM148.291 573.851C147.651 575.593 147.651 577.505 148.291 579.246C148.418 579.437 148.597 579.587 148.806 579.679C149.016 579.77 149.247 579.8 149.473 579.765C149.553 579.77 149.633 579.751 149.702 579.711C149.771 579.67 149.827 579.61 149.862 579.538C149.923 579.388 149.962 579.23 149.976 579.068C149.732 577.242 149.161 575.475 148.291 573.851Z" fill="#FF6C37"/>
<path d="M174.197 536.167L154.998 550.23L145.763 557.002L151.79 567.5L161.155 562.381L184.015 549.89L174.197 536.167Z" fill="#EBB376"/>
<path d="M154.771 567.193L148.971 554.41C148.895 554.242 148.785 554.091 148.649 553.966C148.514 553.841 148.354 553.745 148.18 553.683C148.006 553.621 147.822 553.595 147.638 553.605C147.454 553.616 147.273 553.664 147.108 553.745L140.854 556.807C140.854 556.807 132.154 560.323 131.134 563.142C127.893 571.405 140.028 600 143.803 600.016C145.18 600.016 146.006 597.878 146.201 596.517C146.8 592.175 146.914 581.288 147.464 577.675C148.113 573.462 152.325 570.222 154.35 568.926C154.612 568.732 154.798 568.452 154.874 568.136C154.951 567.819 154.915 567.485 154.771 567.193Z" fill="#263238"/>
<path d="M147.918 572.701C147.948 572.646 147.993 572.6 148.047 572.568C148.101 572.537 148.163 572.521 148.226 572.523C148.453 572.523 152.487 572.928 153.734 574.726C154.04 575.177 154.157 575.729 154.058 576.265C154.057 576.531 153.964 576.789 153.796 576.995C153.629 577.201 153.395 577.344 153.135 577.399C151.515 577.691 148.631 574.613 147.934 573.025V572.879C147.913 572.822 147.908 572.761 147.918 572.701ZM153.378 576.038C153.397 575.738 153.311 575.44 153.135 575.196C152.357 574.062 150.008 573.576 148.842 573.333C149.846 574.953 152.082 576.897 152.989 576.719C153.086 576.719 153.281 576.719 153.362 576.2V576.038H153.378Z" fill="#FF6C37"/>
<path opacity="0.2" d="M174.197 536.167L154.998 550.23L161.155 562.381L184.015 549.89L174.197 536.167Z" fill="black"/>
<path d="M165.529 563.175L171.847 561.781L161.349 541.74L155.5 547.719L165.529 563.175Z" fill="#FF6C37"/>
<path opacity="0.6" d="M165.529 563.175L171.847 561.781L161.349 541.74L155.5 547.719L165.529 563.175Z" fill="white"/>
<path d="M213.922 560.404L237.414 564.276L248.69 566.123L251.995 554.475L241.789 551.364L216.855 543.782L213.922 560.404Z" fill="#EBB376"/>
<path d="M249.695 552.579L244.608 565.653C244.543 565.827 244.513 566.011 244.519 566.196C244.525 566.381 244.568 566.563 244.645 566.732C244.722 566.9 244.831 567.052 244.966 567.178C245.101 567.305 245.26 567.403 245.434 567.468L251.995 569.785C251.995 569.785 260.598 573.543 263.336 572.344C271.437 568.845 283.458 540.201 280.818 537.495C279.845 536.507 277.756 537.414 276.638 538.241C273.122 540.833 265.297 548.383 262.299 550.505C258.832 553 253.535 552.222 251.234 551.72C250.917 551.658 250.589 551.709 250.307 551.867C250.025 552.024 249.808 552.276 249.695 552.579Z" fill="#263238"/>
<path opacity="0.2" d="M213.922 560.404L237.414 564.276L241.789 551.364L216.855 543.782L213.922 560.404Z" fill="black"/>
<path d="M237.738 549.015C237.738 549.015 140.077 491.403 107.026 492.942C73.9752 494.481 71.1076 527.305 84.7329 545.531C98.3582 563.758 123.616 568.213 123.616 568.213C123.616 568.213 106.475 543.911 108.954 537.172C111.433 530.432 120.878 553.276 120.878 553.276C120.878 553.276 181.39 561.198 234.109 565.67L237.738 549.015Z" fill="#FF6C37"/>
<path d="M239.277 547.459L233.866 543.814L226.9 565.216H235.259L239.277 547.459Z" fill="#FF6C37"/>
<path opacity="0.6" d="M239.277 547.459L233.866 543.814L226.9 565.216H235.259L239.277 547.459Z" fill="white"/>
<path d="M164.897 502.031C147.221 468.008 152.843 416.245 168.137 364.741C157.445 355.814 114.786 349.787 82.2703 359.248C82.2703 359.248 61.6299 435.735 64.0601 519.285L164.897 502.031Z" fill="black"/>
<path d="M127.375 373.101C113.166 373.101 103.915 358.196 103.915 358.196C122.547 351.715 122.612 331.998 122.612 331.998L129.789 339.013L140.012 349.026C131.506 355.053 135.524 360.269 138.23 362.586C138.783 363.081 139.379 363.526 140.012 363.915C140.012 363.915 141.583 373.101 127.375 373.101Z" fill="#EBB376"/>
<path opacity="0.2" d="M138.23 362.586C120.797 364.546 122.028 338.446 122.028 338.446C124.643 338.405 127.256 338.594 129.837 339.013L140.06 349.025C131.506 355.052 135.524 360.269 138.23 362.586Z" fill="black"/>
<path d="M151.839 312.475C145.245 315.197 146.509 322.407 157.461 335.546C164.2 329.73 167.862 316.509 164.314 312.265C160.766 308.02 157.607 310.061 151.839 312.475Z" fill="#263238"/>
<path d="M161.592 341.637C160.994 343.396 160.291 345.116 159.486 346.789C153.005 360.058 134.244 362.634 125.949 349.511L125.852 349.382C120.376 340.552 122.433 332.306 124.718 318.016C125.227 314.704 126.569 311.575 128.62 308.925C130.67 306.274 133.36 304.188 136.438 302.863C139.516 301.538 142.88 301.017 146.215 301.349C149.549 301.682 152.745 302.857 155.5 304.763C166.42 312.362 165.772 329.438 161.592 341.637Z" fill="#EBB376"/>
<path d="M144.888 326.652C144.629 327.802 145.034 328.871 145.78 329.033C146.525 329.195 147.4 328.417 147.594 327.267C147.789 326.117 147.448 325.064 146.719 324.886C145.99 324.707 145.212 325.534 144.888 326.652Z" fill="#263238"/>
<path d="M157.914 329.6C157.655 330.734 158.06 331.803 158.822 331.965C159.583 332.127 160.442 331.366 160.652 330.199C160.863 329.033 160.49 327.98 159.745 327.818C159 327.656 158.174 328.45 157.914 329.6Z" fill="#263238"/>
<path d="M153.54 329.179C154.107 332.993 155.197 336.711 156.78 340.228C154.285 341.654 151.061 340.017 151.061 340.017L153.54 329.179Z" fill="#D58745"/>
<path d="M142.248 321.743C142.093 321.733 141.947 321.663 141.843 321.548C141.778 321.485 141.727 321.409 141.692 321.326C141.656 321.242 141.638 321.153 141.638 321.062C141.638 320.972 141.656 320.882 141.692 320.799C141.727 320.715 141.778 320.639 141.843 320.576C142.655 319.833 143.634 319.298 144.698 319.016C145.761 318.734 146.877 318.713 147.95 318.956C148.12 319.002 148.264 319.112 148.352 319.264C148.44 319.416 148.465 319.596 148.42 319.766C148.361 319.937 148.24 320.08 148.082 320.167C147.923 320.253 147.738 320.278 147.562 320.236C146.708 320.042 145.821 320.056 144.974 320.279C144.128 320.502 143.348 320.926 142.701 321.516C142.583 321.644 142.422 321.725 142.248 321.743Z" fill="#263238"/>
<path d="M164.832 326.538C164.706 326.504 164.591 326.436 164.5 326.342C164.408 326.248 164.344 326.131 164.314 326.004C164.138 325.156 163.765 324.362 163.224 323.687C162.684 323.011 161.991 322.473 161.203 322.115C161.032 322.05 160.892 321.92 160.814 321.754C160.735 321.588 160.724 321.398 160.782 321.224C160.844 321.054 160.971 320.915 161.134 320.836C161.297 320.757 161.485 320.746 161.657 320.803C162.661 321.236 163.546 321.904 164.24 322.749C164.933 323.595 165.414 324.594 165.642 325.663C165.664 325.751 165.668 325.841 165.655 325.93C165.641 326.019 165.61 326.104 165.564 326.181C165.517 326.258 165.455 326.325 165.383 326.378C165.31 326.431 165.228 326.469 165.14 326.49H164.832V326.538Z" fill="#263238"/>
<path d="M133.126 306.837C139.202 310.58 136.804 317.498 123.908 328.709C118.156 321.904 116.65 308.247 120.846 304.65C125.042 301.053 127.812 303.581 133.126 306.837Z" fill="#263238"/>
<path d="M115.467 327.834C115.571 329.636 116.029 331.399 116.816 333.022C117.603 334.646 118.702 336.098 120.052 337.296C123.681 340.536 127.553 337.717 128.282 333.213C128.946 329.147 127.828 322.601 123.422 321.175C119.015 319.75 115.224 323.379 115.467 327.834Z" fill="#EBB376"/>
<path d="M140.012 340.163C140.012 340.163 141.502 345.315 148.404 346.514" stroke="#263238" stroke-width="0.557248" stroke-linecap="round" stroke-linejoin="round"/>
<path d="M152.422 329.276C152.422 330.237 152.137 331.177 151.603 331.976C151.069 332.776 150.31 333.398 149.422 333.766C148.534 334.134 147.556 334.23 146.613 334.043C145.671 333.855 144.805 333.393 144.125 332.713C143.445 332.033 142.982 331.167 142.795 330.224C142.607 329.281 142.703 328.304 143.071 327.416C143.439 326.528 144.062 325.769 144.861 325.235C145.661 324.701 146.6 324.416 147.562 324.416C148.851 324.416 150.087 324.928 150.999 325.839C151.91 326.751 152.422 327.987 152.422 329.276Z" stroke="#263238" stroke-width="0.557248" stroke-linecap="round" stroke-linejoin="round"/>
<path d="M165.659 331.998C165.659 332.959 165.373 333.899 164.839 334.698C164.305 335.497 163.546 336.12 162.658 336.488C161.77 336.856 160.793 336.952 159.85 336.765C158.907 336.577 158.041 336.114 157.361 335.434C156.682 334.755 156.219 333.889 156.031 332.946C155.844 332.003 155.94 331.026 156.308 330.138C156.676 329.25 157.299 328.49 158.098 327.956C158.897 327.422 159.837 327.137 160.798 327.137C162.087 327.137 163.323 327.649 164.235 328.561C165.146 329.472 165.659 330.709 165.659 331.998Z" stroke="#263238" stroke-width="0.557248" stroke-linecap="round" stroke-linejoin="round"/>
<path d="M152.422 330.605C153.001 330.295 153.676 330.216 154.31 330.385C154.945 330.553 155.492 330.956 155.841 331.512" stroke="#263238" stroke-width="0.557248" stroke-linecap="round" stroke-linejoin="round"/>
<path d="M142.701 328.272C142.701 328.272 128.622 322.342 125.998 321.791" stroke="#263238" stroke-width="0.557248" stroke-linecap="round" stroke-linejoin="round"/>
<path d="M120.7 304.844C120.7 304.844 119.242 293.406 130.923 291.511C142.604 289.615 157.882 292.548 162.613 290.522C162.428 291.536 162.034 292.5 161.457 293.354C160.879 294.207 160.131 294.931 159.259 295.48C159.259 295.48 168.17 298.72 175.185 295.934C175.185 295.934 172.139 304.375 168.202 307.615H171.556C171.556 307.615 164.913 313.966 156.829 314.095C148.744 314.225 141.13 303.095 133.126 306.837C125.123 310.58 120.7 304.844 120.7 304.844Z" fill="#263238"/>
<path opacity="0.2" d="M88.7509 472.059L122.336 509.322C122.336 509.322 159.486 508.495 204.59 530.545C204.59 530.545 252.984 510.553 257.439 493.947C261.894 477.34 155.841 489.086 155.841 489.086L88.7509 472.059Z" fill="black"/>
<path d="M98.2448 461.123L152.114 478.733C152.114 478.733 171.361 474.489 174.796 474.489C178.231 474.489 191.532 485.295 184.015 489.07C176.497 492.845 155.97 493.315 153.734 492.116C151.499 490.917 91.7643 476.919 91.7643 476.919L98.2448 461.123Z" fill="#EBB376"/>
<path d="M82.2703 359.249C94.4537 356.883 73.311 431.15 78.4954 442.086C83.6798 453.022 103.915 459.908 103.915 459.908L94.5995 480.467C94.5995 480.467 67.0573 475.266 52.071 456.165C37.0848 437.064 62.3751 363.105 82.2703 359.249Z" fill="black"/>
<path d="M103.915 458.287L92.5743 480.483L102.295 482.589L111.206 462.127L103.915 458.287Z" fill="#263238"/>
<path opacity="0.2" d="M103.915 458.287L92.5743 480.483L102.295 482.589L111.206 462.127L103.915 458.287Z" fill="white"/>
<path d="M126.192 489.07V492.602C126.195 493.779 126.651 494.911 127.465 495.761C128.28 496.612 129.39 497.116 130.566 497.17H260.809C262.024 497.136 263.182 496.648 264.054 495.802C264.927 494.957 265.451 493.815 265.524 492.602V489.07H126.192Z" fill="#263238"/>
<path opacity="0.2" d="M126.192 489.07V492.602C126.195 493.779 126.651 494.911 127.465 495.761C128.28 496.612 129.39 497.116 130.566 497.17H260.809C262.024 497.136 263.182 496.648 264.054 495.802C264.927 494.957 265.451 493.815 265.524 492.602V489.07H126.192Z" fill="white"/>
<path opacity="0.2" d="M174.796 489.07V492.602C174.803 493.781 175.263 494.912 176.08 495.762C176.897 496.612 178.009 497.117 179.187 497.17H260.809C262.024 497.136 263.182 496.648 264.054 495.802C264.927 494.957 265.451 493.815 265.524 492.602V489.07H174.796Z" fill="white"/>
<path d="M179.187 493.93H265.232C266.613 493.863 267.944 493.389 269.057 492.567C270.17 491.745 271.015 490.613 271.486 489.313L291.219 427.408C291.445 426.88 291.534 426.304 291.479 425.733C291.424 425.162 291.226 424.613 290.903 424.139C290.58 423.664 290.143 423.279 289.632 423.017C289.121 422.756 288.552 422.628 287.979 422.644H201.869C200.476 422.746 199.144 423.25 198.033 424.096C196.923 424.942 196.083 426.093 195.615 427.408L175.882 489.232C175.653 489.761 175.564 490.34 175.624 490.913C175.683 491.486 175.888 492.035 176.219 492.506C176.551 492.977 176.998 493.356 177.517 493.605C178.037 493.854 178.612 493.966 179.187 493.93Z" fill="#263238"/>
<path opacity="0.2" d="M179.187 493.93H265.232C266.613 493.863 267.944 493.389 269.057 492.567C270.17 491.745 271.015 490.613 271.486 489.313L291.219 427.408C291.445 426.88 291.534 426.304 291.479 425.733C291.424 425.162 291.226 424.613 290.903 424.139C290.58 423.664 290.143 423.279 289.632 423.017C289.121 422.756 288.552 422.628 287.979 422.644H201.869C200.476 422.746 199.144 423.25 198.033 424.096C196.923 424.942 196.083 426.093 195.615 427.408L175.882 489.232C175.653 489.761 175.564 490.34 175.624 490.913C175.683 491.486 175.888 492.035 176.219 492.506C176.551 492.977 176.998 493.356 177.517 493.605C178.037 493.854 178.612 493.966 179.187 493.93Z" fill="white"/>
<path opacity="0.2" d="M182.427 493.93H265.232C266.613 493.863 267.944 493.389 269.057 492.567C270.169 491.745 271.015 490.613 271.486 489.313L291.219 427.408C291.445 426.88 291.534 426.304 291.479 425.733C291.424 425.162 291.226 424.613 290.903 424.139C290.58 423.664 290.143 423.279 289.632 423.017C289.121 422.756 288.552 422.628 287.979 422.644H205.109C203.717 422.746 202.384 423.25 201.274 424.096C200.163 424.942 199.323 426.093 198.855 427.408L179.122 489.232C178.894 489.761 178.805 490.34 178.864 490.913C178.923 491.486 179.128 492.035 179.46 492.506C179.791 492.977 180.238 493.356 180.758 493.605C181.277 493.854 181.852 493.966 182.427 493.93Z" fill="white"/>
<path opacity="0.2" d="M241.74 451.499L229.832 459.924L234.984 468.365L246.892 459.924L241.74 451.499Z" fill="white"/>
<path opacity="0.2" d="M301.345 51.1313H192.391C184.57 51.1313 178.231 57.471 178.231 65.2913V174.245C178.231 182.066 184.57 188.405 192.391 188.405H301.345C309.165 188.405 315.505 182.066 315.505 174.245V65.2913C315.505 57.471 309.165 51.1313 301.345 51.1313Z" fill="black"/>
<path d="M319.879 36.064H228.601C222.042 36.064 216.725 41.3808 216.725 47.9395V139.218C216.725 145.777 222.042 151.093 228.601 151.093H319.879C326.438 151.093 331.755 145.777 331.755 139.218V47.9395C331.755 41.3808 326.438 36.064 319.879 36.064Z" fill="#407BFF"/>
<path opacity="0.3" d="M319.879 36.064H228.601C222.042 36.064 216.725 41.3808 216.725 47.9395V139.218C216.725 145.777 222.042 151.093 228.601 151.093H319.879C326.438 151.093 331.755 145.777 331.755 139.218V47.9395C331.755 41.3808 326.438 36.064 319.879 36.064Z" fill="white"/>
<path d="M283.102 80.3096V73.3593L279.522 73.019C279.052 70.708 278.145 68.5082 276.848 66.5385L279.149 63.7519L274.289 58.8915L271.518 61.1921C269.546 59.9 267.347 58.993 265.038 58.5188L264.681 54.8735H257.731L257.423 58.5188C255.113 58.993 252.915 59.9 250.942 61.1921L248.172 58.8915L243.312 63.7519L245.612 66.5385C244.316 68.5082 243.408 70.708 242.939 73.019L239.358 73.3593V80.3096L242.939 80.6499C243.413 82.9594 244.32 85.1583 245.612 87.1304L243.312 89.917L248.172 94.7774L250.942 92.4768C252.915 93.7689 255.113 94.6759 257.423 95.15L257.763 98.7305H264.714L265.054 95.15C267.363 94.6759 269.562 93.7689 271.534 92.4768L274.305 94.7774L279.165 89.917L276.865 87.0818C278.157 85.1096 279.064 82.9108 279.538 80.6012L283.102 80.3096ZM261.214 86.2555C259.348 86.2587 257.522 85.708 255.969 84.6732C254.416 83.6383 253.205 82.1658 252.49 80.4422C251.774 78.7186 251.586 76.8214 251.949 74.9908C252.312 73.1602 253.211 71.4786 254.53 70.1589C255.85 68.8392 257.532 67.9409 259.362 67.5776C261.193 67.2143 263.09 67.4023 264.814 68.118C266.537 68.8337 268.01 70.0448 269.045 71.5979C270.08 73.151 270.63 74.9762 270.627 76.8425C270.623 79.3377 269.63 81.7294 267.865 83.4938C266.101 85.2581 263.709 86.2512 261.214 86.2555Z" fill="white"/>
<path d="M311.292 99.9621V94.5023L308.49 94.2431C308.119 92.4461 307.41 90.7361 306.4 89.2044L308.198 87.0335L304.407 83.1775L302.236 84.9759C300.704 83.9657 298.994 83.2564 297.197 82.8859L296.938 80.0669H291.446L291.186 82.8859C289.389 83.2564 287.68 83.9657 286.148 84.9759L283.977 83.1775L280.105 87.0335L281.903 89.2044C280.893 90.7361 280.184 92.4461 279.813 94.2431L277.01 94.5023V99.9621L279.813 100.221C280.184 102.018 280.893 103.728 281.903 105.26L280.105 107.431L283.961 111.287L286.132 109.489C287.663 110.499 289.373 111.208 291.17 111.578L291.43 114.381H296.889L297.149 111.578C298.946 111.208 300.656 110.499 302.187 109.489L304.358 111.287L308.214 107.431L306.416 105.26C307.426 103.728 308.135 102.018 308.506 100.221L311.292 99.9621ZM294.135 104.612C292.674 104.612 291.246 104.179 290.031 103.367C288.816 102.555 287.869 101.401 287.31 100.051C286.751 98.7013 286.604 97.2159 286.889 95.7828C287.174 94.3497 287.878 93.0333 288.911 92.0001C289.944 90.9669 291.261 90.2633 292.694 89.9782C294.127 89.6932 295.612 89.8395 296.962 90.3987C298.312 90.9578 299.466 91.9047 300.278 93.1196C301.09 94.3346 301.523 95.7629 301.523 97.2241C301.523 99.1835 300.745 101.063 299.359 102.448C297.974 103.834 296.094 104.612 294.135 104.612Z" fill="white"/>
<path d="M283.102 115.434V110.849L280.737 110.638C280.429 109.13 279.835 107.695 278.987 106.41L280.494 104.579L277.253 101.339L275.423 102.846C274.135 102.003 272.701 101.41 271.194 101.096L270.967 98.7305H266.382L266.155 101.096C264.649 101.41 263.215 102.003 261.927 102.846L260.096 101.339L256.856 104.579L258.363 106.41C257.515 107.695 256.921 109.13 256.613 110.638L254.247 110.849V115.434L256.613 115.661C256.927 117.167 257.52 118.602 258.363 119.889L256.856 121.72L260.096 124.96L261.927 123.454C263.217 124.294 264.65 124.893 266.155 125.22L266.382 127.569H270.967L271.194 125.22C272.699 124.893 274.132 124.294 275.423 123.454L277.253 124.96L280.494 121.72L278.987 119.889C279.829 118.602 280.423 117.167 280.737 115.661L283.102 115.434ZM268.764 119.339C267.535 119.342 266.333 118.98 265.31 118.3C264.287 117.619 263.49 116.65 263.018 115.516C262.546 114.381 262.422 113.132 262.661 111.927C262.9 110.722 263.491 109.615 264.36 108.746C265.229 107.877 266.336 107.286 267.541 107.047C268.746 106.808 269.995 106.932 271.13 107.404C272.264 107.875 273.233 108.673 273.914 109.696C274.594 110.719 274.956 111.921 274.953 113.15C274.953 114.791 274.301 116.365 273.14 117.526C271.979 118.687 270.405 119.339 268.764 119.339Z" fill="white"/>
<path opacity="0.2" d="M324.739 36.064H233.461C226.902 36.064 221.586 41.3808 221.586 47.9395V139.218C221.586 145.777 226.902 151.093 233.461 151.093H324.739C331.298 151.093 336.615 145.777 336.615 139.218V47.9395C336.615 41.3808 331.298 36.064 324.739 36.064Z" fill="white"/>
<path opacity="0.2" d="M499.228 184.388H398.504C391.274 184.388 385.413 190.249 385.413 197.478V298.202C385.413 305.432 391.274 311.293 398.504 311.293H499.228C506.458 311.293 512.318 305.432 512.318 298.202V197.478C512.318 190.249 506.458 184.388 499.228 184.388Z" fill="black"/>
<path d="M512.642 177.599H428.25C422.192 177.599 417.281 182.51 417.281 188.567V272.96C417.281 279.018 422.192 283.928 428.25 283.928H512.642C518.7 283.928 523.611 279.018 523.611 272.96V188.567C523.611 182.51 518.7 177.599 512.642 177.599Z" fill="#407BFF"/>
<path opacity="0.2" d="M512.642 177.599H428.25C422.192 177.599 417.281 182.51 417.281 188.567V272.96C417.281 279.018 422.192 283.928 428.25 283.928H512.642C518.7 283.928 523.611 279.018 523.611 272.96V188.567C523.611 182.51 518.7 177.599 512.642 177.599Z" fill="white"/>
<path d="M474.521 247.848C474.521 248.608 474.295 249.351 473.873 249.983C473.45 250.615 472.849 251.107 472.147 251.397C471.444 251.687 470.671 251.762 469.926 251.613C469.181 251.463 468.497 251.096 467.96 250.557C467.424 250.019 467.059 249.333 466.913 248.587C466.767 247.841 466.845 247.069 467.138 246.367C467.431 245.666 467.926 245.068 468.56 244.648C469.193 244.228 469.937 244.005 470.697 244.008C471.713 244.013 472.685 244.419 473.402 245.139C474.118 245.858 474.521 246.832 474.521 247.848Z" fill="white"/>
<path d="M470.357 209.548C465.35 209.546 460.392 210.53 455.766 212.445C451.14 214.36 446.936 217.168 443.396 220.709C439.856 224.249 437.048 228.452 435.133 233.079C433.218 237.705 432.233 242.663 432.235 247.67H462.678C462.627 246.655 462.792 245.641 463.162 244.695C463.532 243.749 464.099 242.893 464.825 242.182C465.551 241.472 466.419 240.923 467.373 240.573C468.327 240.223 469.344 240.08 470.357 240.152C471.135 240.19 471.904 240.337 472.641 240.59L486.915 224.016L476.837 243.619C477.626 244.822 478.038 246.232 478.02 247.67H508.544C508.544 242.658 507.555 237.695 505.635 233.066C503.716 228.437 500.902 224.231 497.355 220.691C493.808 217.15 489.598 214.343 484.965 212.431C480.333 210.519 475.369 209.539 470.357 209.548Z" fill="white"/>
<path opacity="0.2" d="M517.146 177.599H432.754C426.696 177.599 421.785 182.51 421.785 188.567V272.96C421.785 279.018 426.696 283.928 432.754 283.928H517.146C523.204 283.928 528.115 279.018 528.115 272.96V188.567C528.115 182.51 523.204 177.599 517.146 177.599Z" fill="white"/>
<path opacity="0.2" d="M530.156 82.9507H441.778C435.434 82.9507 430.291 88.0935 430.291 94.4374V182.816C430.291 189.16 435.434 194.302 441.778 194.302H530.156C536.5 194.302 541.643 189.16 541.643 182.816V94.4374C541.643 88.0935 536.5 82.9507 530.156 82.9507Z" fill="black"/>
<path d="M543.83 73.1328H469.774C464.459 73.1328 460.15 77.4414 460.15 82.7564V156.813C460.15 162.128 464.459 166.436 469.774 166.436H543.83C549.145 166.436 553.454 162.128 553.454 156.813V82.7564C553.454 77.4414 549.145 73.1328 543.83 73.1328Z" fill="#407BFF"/>
<path opacity="0.1" d="M543.83 73.1328H469.774C464.459 73.1328 460.15 77.4414 460.15 82.7564V156.813C460.15 162.128 464.459 166.436 469.774 166.436H543.83C549.145 166.436 553.454 162.128 553.454 156.813V82.7564C553.454 77.4414 549.145 73.1328 543.83 73.1328Z" fill="white"/>
<path d="M532.845 96.8194C532.845 96.0073 532.523 95.2284 531.949 94.6542C531.374 94.0799 530.596 93.7573 529.783 93.7573H484.063C483.251 93.7573 482.472 94.0799 481.898 94.6542C481.324 95.2284 481.001 96.0073 481.001 96.8194V106.897C481.001 107.709 481.324 108.488 481.898 109.062C482.472 109.636 483.251 109.959 484.063 109.959H529.783C530.596 109.959 531.374 109.636 531.949 109.062C532.523 108.488 532.845 107.709 532.845 106.897V96.8194ZM517.746 102.279H515.121V99.6546H517.746V102.279ZM524.761 103.592C524.237 103.595 523.725 103.442 523.288 103.153C522.851 102.864 522.51 102.452 522.308 101.969C522.106 101.486 522.053 100.953 522.154 100.44C522.255 99.9258 522.507 99.4537 522.878 99.0834C523.248 98.7131 523.72 98.4613 524.234 98.3599C524.747 98.2585 525.28 98.3122 525.763 98.5141C526.246 98.7159 526.658 99.0569 526.947 99.4937C527.236 99.9304 527.389 100.443 527.386 100.967C527.386 101.313 527.317 101.656 527.184 101.975C527.051 102.295 526.857 102.585 526.611 102.829C526.366 103.072 526.074 103.265 525.754 103.396C525.434 103.527 525.091 103.594 524.745 103.592H524.761Z" fill="white"/>
<path d="M532.845 114.641C532.845 113.829 532.523 113.05 531.949 112.475C531.374 111.901 530.596 111.579 529.783 111.579H484.063C483.251 111.579 482.472 111.901 481.898 112.475C481.324 113.05 481.001 113.829 481.001 114.641V124.718C481.001 125.53 481.324 126.309 481.898 126.883C482.472 127.457 483.251 127.78 484.063 127.78H529.783C530.596 127.78 531.374 127.457 531.949 126.883C532.523 126.309 532.845 125.53 532.845 124.718V114.641ZM517.746 121.121H515.121V118.497H517.746V121.121ZM524.761 122.433C524.242 122.433 523.734 122.28 523.303 121.991C522.871 121.703 522.535 121.293 522.336 120.813C522.138 120.334 522.086 119.806 522.187 119.297C522.288 118.788 522.538 118.32 522.905 117.953C523.272 117.586 523.74 117.336 524.249 117.235C524.758 117.133 525.286 117.185 525.765 117.384C526.245 117.583 526.655 117.919 526.943 118.351C527.232 118.782 527.386 119.29 527.386 119.809C527.386 120.154 527.317 120.496 527.184 120.815C527.051 121.133 526.856 121.422 526.61 121.665C526.365 121.908 526.073 122.099 525.753 122.228C525.433 122.357 525.09 122.422 524.745 122.417L524.761 122.433Z" fill="white"/>
<path d="M532.845 132.462C532.845 131.65 532.523 130.871 531.949 130.297C531.374 129.723 530.596 129.4 529.783 129.4H484.063C483.251 129.4 482.472 129.723 481.898 130.297C481.324 130.871 481.001 131.65 481.001 132.462V142.539C481.001 143.351 481.324 144.13 481.898 144.704C482.472 145.279 483.251 145.601 484.063 145.601H529.783C530.596 145.601 531.374 145.279 531.949 144.704C532.523 144.13 532.845 143.351 532.845 142.539V132.462ZM517.746 139.947H515.121V137.322H517.746V139.947ZM524.761 141.259C524.242 141.259 523.734 141.105 523.303 140.817C522.871 140.529 522.535 140.119 522.336 139.639C522.138 139.159 522.086 138.632 522.187 138.123C522.288 137.614 522.538 137.146 522.905 136.779C523.272 136.412 523.74 136.162 524.249 136.06C524.758 135.959 525.286 136.011 525.765 136.21C526.245 136.408 526.655 136.745 526.943 137.176C527.232 137.608 527.386 138.116 527.386 138.635C527.386 138.981 527.317 139.323 527.184 139.643C527.051 139.962 526.857 140.252 526.611 140.496C526.366 140.74 526.074 140.933 525.754 141.064C525.434 141.195 525.091 141.261 524.745 141.259H524.761Z" fill="white"/>
<path opacity="0.2" d="M547.783 73.1328H473.727C468.412 73.1328 464.103 77.4414 464.103 82.7564V156.813C464.103 162.128 468.412 166.436 473.727 166.436H547.783C553.098 166.436 557.407 162.128 557.407 156.813V82.7564C557.407 77.4414 553.098 73.1328 547.783 73.1328Z" fill="white"/>
<path opacity="0.2" d="M371.804 169.19H262.85C255.03 169.19 248.69 175.53 248.69 183.35V292.304C248.69 300.125 255.03 306.464 262.85 306.464H371.804C379.625 306.464 385.964 300.125 385.964 292.304V183.35C385.964 175.53 379.625 169.19 371.804 169.19Z" fill="black"/>
<path d="M384.052 159.47H292.774C286.215 159.47 280.899 164.787 280.899 171.345V262.624C280.899 269.182 286.215 274.499 292.774 274.499H384.052C390.611 274.499 395.928 269.182 395.928 262.624V171.345C395.928 164.787 390.611 159.47 384.052 159.47Z" fill="#407BFF"/>
<path opacity="0.5" d="M384.052 159.47H292.774C286.215 159.47 280.899 164.787 280.899 171.345V262.624C280.899 269.182 286.215 274.499 292.774 274.499H384.052C390.611 274.499 395.928 269.182 395.928 262.624V171.345C395.928 164.787 390.611 159.47 384.052 159.47Z" fill="white"/>
<path d="M306.594 248.577C305.759 247.742 305.096 246.751 304.644 245.66C304.192 244.568 303.959 243.399 303.959 242.218C303.959 241.037 304.192 239.867 304.644 238.776C305.096 237.685 305.759 236.694 306.594 235.859L327.656 214.894C328.124 214.421 328.682 214.046 329.296 213.789C329.911 213.533 330.57 213.401 331.236 213.401C331.902 213.401 332.561 213.533 333.176 213.789C333.79 214.046 334.348 214.421 334.817 214.894L340.357 220.419C340.831 220.889 341.207 221.448 341.464 222.064C341.72 222.68 341.852 223.34 341.852 224.008C341.852 224.675 341.72 225.335 341.464 225.951C341.207 226.567 340.831 227.126 340.357 227.596L319.377 248.577C318.543 249.426 317.548 250.1 316.451 250.56C315.353 251.021 314.175 251.258 312.985 251.258C311.795 251.258 310.617 251.021 309.52 250.56C308.423 250.1 307.428 249.426 306.594 248.577Z" fill="white"/>
<path d="M345.234 214.036L341.119 209.921L364.821 186.218L369.974 185.181L368.953 190.333L345.234 214.036Z" fill="white"/>
<path d="M342.917 219.544L335.627 212.238C335.467 212.086 335.341 211.904 335.254 211.702C335.167 211.5 335.122 211.283 335.122 211.063C335.122 210.843 335.167 210.626 335.254 210.424C335.341 210.222 335.467 210.04 335.627 209.888C335.778 209.726 335.961 209.597 336.165 209.509C336.368 209.421 336.588 209.375 336.809 209.375C337.031 209.375 337.251 209.421 337.454 209.509C337.657 209.597 337.841 209.726 337.992 209.888L345.283 217.179C345.445 217.33 345.574 217.514 345.662 217.717C345.75 217.921 345.796 218.14 345.796 218.362C345.796 218.583 345.75 218.803 345.662 219.006C345.574 219.21 345.445 219.393 345.283 219.544C345.131 219.706 344.948 219.835 344.745 219.923C344.541 220.012 344.322 220.057 344.1 220.057C343.878 220.057 343.659 220.012 343.455 219.923C343.252 219.835 343.069 219.706 342.917 219.544Z" fill="white"/>
<path d="M333.099 205.546L323.103 195.518C324.966 190.512 321.191 184.355 317.092 182.735L317.011 190.447C317.011 191.306 316.67 192.13 316.062 192.738C315.455 193.346 314.63 193.687 313.771 193.687C312.912 193.687 312.088 193.346 311.48 192.738C310.872 192.13 310.531 191.306 310.531 190.447V182.864C308.65 183.627 307.026 184.909 305.85 186.563C304.673 188.216 303.993 190.17 303.888 192.196C303.912 194.589 304.802 196.891 306.392 198.678C307.983 200.465 310.167 201.616 312.54 201.917C314.192 202.171 315.882 201.934 317.4 201.237L327.477 211.346L333.099 205.546Z" fill="white"/>
<path d="M366.377 243.587V251.25C368.257 250.488 369.881 249.205 371.058 247.552C372.235 245.899 372.915 243.945 373.019 241.918C373.035 239.536 372.192 237.228 370.645 235.416C369.098 233.604 366.95 232.41 364.595 232.052C363.045 231.731 361.435 231.889 359.977 232.505L349.511 222.007L343.776 227.742L354.177 238.16C351.164 244.316 355.797 249.5 359.961 251.121V243.506C359.961 242.647 360.302 241.822 360.91 241.215C361.518 240.607 362.342 240.266 363.201 240.266C363.628 240.274 364.049 240.367 364.44 240.539C364.831 240.71 365.185 240.957 365.48 241.266C365.775 241.575 366.006 241.939 366.16 242.337C366.314 242.735 366.388 243.16 366.377 243.587Z" fill="white"/>
<path opacity="0.2" d="M388.913 159.47H297.635C291.076 159.47 285.759 164.787 285.759 171.345V262.624C285.759 269.182 291.076 274.499 297.635 274.499H388.913C395.472 274.499 400.788 269.182 400.788 262.624V171.345C400.788 164.787 395.472 159.47 388.913 159.47Z" fill="white"/>
<path d="M359.88 138.667L469.92 138.667C477.82 138.667 484.225 132.262 484.225 124.361V14.3218C484.225 6.42094 477.82 0.0160217 469.92 0.0160217L359.88 0.0160217C351.979 0.0160217 345.574 6.42094 345.574 14.3218V124.361C345.574 132.262 351.979 138.667 359.88 138.667Z" fill="#407BFF"/>
<path opacity="0.2" d="M461.981 22.0337H330.653C321.222 22.0337 313.577 29.679 313.577 39.1099V170.438C313.577 179.869 321.222 187.514 330.653 187.514H461.981C471.412 187.514 479.057 179.869 479.057 170.438V39.1099C479.057 29.679 471.412 22.0337 461.981 22.0337Z" fill="black"/>
<path opacity="0.5" d="M359.88 138.667L469.92 138.667C477.82 138.667 484.225 132.262 484.225 124.361V14.3218C484.225 6.42094 477.82 0.0160217 469.92 0.0160217L359.88 0.0160217C351.979 0.0160217 345.574 6.42094 345.574 14.3218V124.361C345.574 132.262 351.979 138.667 359.88 138.667Z" fill="white"/>
<path d="M414.867 26.3755L372.452 43.0305C372.452 43.0305 377.815 101.355 414.916 112.291C452.033 101.355 457.396 43.0305 457.396 43.0305L414.867 26.3755ZM413.798 82.8533C413.522 83.2161 413.167 83.5112 412.76 83.7161C412.353 83.921 411.905 84.0305 411.449 84.036C410.988 84.0285 410.536 83.9132 410.128 83.6994C409.72 83.4856 409.368 83.1792 409.1 82.8047L394.211 62.2776C393.984 61.9659 393.821 61.6127 393.731 61.238C393.641 60.8633 393.626 60.4746 393.686 60.0939C393.746 59.7133 393.881 59.3483 394.082 59.0197C394.283 58.691 394.547 58.4053 394.859 58.1787C395.17 57.9521 395.524 57.7891 395.898 57.6991C396.273 57.609 396.662 57.5936 397.042 57.6538C397.423 57.714 397.788 57.8485 398.117 58.0498C398.445 58.251 398.731 58.5151 398.958 58.8267L411.53 76.1298L432.073 49.0087C432.543 48.3914 433.237 47.9852 434.006 47.8789C434.774 47.7727 435.553 47.975 436.172 48.4417C436.78 48.9613 437.174 49.6872 437.278 50.4797C437.383 51.2723 437.191 52.0755 436.739 52.735L413.798 82.8533Z" fill="white"/>
<path opacity="0.2" d="M365.745 138.667L475.784 138.667C483.685 138.667 490.09 132.262 490.09 124.361V14.3218C490.09 6.42094 483.685 0.0160217 475.784 0.0160217L365.745 0.0160217C357.844 0.0160217 351.439 6.42094 351.439 14.3218V124.361C351.439 132.262 357.844 138.667 365.745 138.667Z" fill="white"/>
<path d="M610.693 360.949H472.577V454.155H610.693V360.949Z" fill="#407BFF"/>
<path opacity="0.7" d="M610.693 360.949H472.577V454.155H610.693V360.949Z" fill="white"/>
<path d="M607.793 368.143H475.153V451.061H607.793V368.143Z" fill="#263238"/>
<path d="M590.279 380.99H481.228V383.42H590.279V380.99Z" fill="#E0E0E0"/>
<path d="M574.062 387.876H481.228V390.306H574.062V387.876Z" fill="#E0E0E0"/>
<path d="M590.279 394.761H481.228V397.191H590.279V394.761Z" fill="#E0E0E0"/>
<path d="M574.062 401.647H481.228V404.077H574.062V401.647Z" fill="#E0E0E0"/>
<path d="M493.006 408.533H481.228V410.963H493.006V408.533Z" fill="#E0E0E0"/>
<path d="M541.643 415.418H481.228V417.848H541.643V415.418Z" fill="#E0E0E0"/>
<path d="M574.062 422.304H481.228V424.734H574.062V422.304Z" fill="#E0E0E0"/>
<path d="M493.006 429.189H481.228V431.62H493.006V429.189Z" fill="#E0E0E0"/>
<path d="M493.006 436.075H481.228V438.505H493.006V436.075Z" fill="#E0E0E0"/>
<path d="M212.432 167.036H74.3155V260.242H212.432V167.036Z" fill="#407BFF"/>
<path opacity="0.7" d="M212.432 167.036H74.3155V260.242H212.432V167.036Z" fill="white"/>
<path d="M209.516 174.229H76.8753V257.147H209.516V174.229Z" fill="#263238"/>
<path d="M192.002 187.061H82.9508V189.491H192.002V187.061Z" fill="#E0E0E0"/>
<path d="M175.784 193.946H82.9508V196.376H175.784V193.946Z" fill="#E0E0E0"/>
<path d="M192.002 200.832H82.9508V203.262H192.002V200.832Z" fill="#E0E0E0"/>
<path d="M175.784 207.717H82.9508V210.147H175.784V207.717Z" fill="#E0E0E0"/>
<path d="M94.7292 214.603H82.9508V217.033H94.7292V214.603Z" fill="#E0E0E0"/>
<path d="M143.366 221.488H82.9508V223.918H143.366V221.488Z" fill="#E0E0E0"/>
<path d="M175.784 228.374H82.9508V230.804H175.784V228.374Z" fill="#E0E0E0"/>
<path d="M94.7292 235.259H82.9508V237.689H94.7292V235.259Z" fill="#E0E0E0"/>
<path d="M94.7292 242.145H82.9508V244.575H94.7292V242.145Z" fill="#E0E0E0"/>
</g>
<defs>
<clipPath id="clip0_1098_22386">
<rect width="628.433" height="600" fill="white"/>
</clipPath>
</defs>
</svg>
