<svg width="652" height="331" viewBox="0 0 652 331" fill="none" xmlns="http://www.w3.org/2000/svg">
<path d="M325.993 331C506.034 331 651.986 326.352 651.986 320.619C651.986 314.885 506.034 310.237 325.993 310.237C145.952 310.237 0 314.885 0 320.619C0 326.352 145.952 331 325.993 331Z" fill="#EEEFF3"/>
<path d="M75.99 113.027C76.1679 113.074 76.3273 113.174 76.4471 113.313C76.5668 113.453 76.6413 113.625 76.6607 113.808L77.0239 118.762C77.0391 118.937 76.9912 119.112 76.8888 119.255C76.7863 119.399 76.6361 119.501 76.4651 119.543L72.4833 120.673L75.6408 123.646C75.7757 123.765 75.8679 123.925 75.9033 124.101C75.9386 124.277 75.9151 124.46 75.8364 124.622L73.6149 128.906C73.5452 129.03 73.4436 129.132 73.3208 129.203C73.198 129.275 73.0583 129.312 72.9164 129.311H72.7208L68.5294 128.32L69.8427 132.325C69.8968 132.492 69.8931 132.672 69.8323 132.836C69.7715 133.001 69.657 133.14 69.5074 133.232L65.316 135.702C65.1882 135.774 65.0438 135.813 64.8968 135.813C64.6785 135.81 64.4694 135.725 64.31 135.576L61.0547 132.716L60.1745 136.748C60.133 136.919 60.034 137.07 59.8941 137.177C59.7543 137.284 59.582 137.339 59.4061 137.334H54.3345C54.1622 137.32 53.9974 137.257 53.8591 137.153C53.7207 137.05 53.6144 136.909 53.5521 136.748L52.155 132.785L49.3607 135.646C49.286 135.722 49.1967 135.782 49.0984 135.822C49 135.863 48.8944 135.884 48.7879 135.883C48.6413 135.879 48.4978 135.841 48.3687 135.771L43.6325 133.26C43.4695 133.177 43.3372 133.044 43.2544 132.881C43.1715 132.718 43.1425 132.533 43.1714 132.353L43.8979 128.348L39.8602 129.339H39.6646C39.5155 129.337 39.3689 129.3 39.2375 129.229C39.1061 129.159 38.9938 129.057 38.9101 128.934L36.1159 124.65C36.0071 124.511 35.9481 124.339 35.9481 124.162C35.9481 123.985 36.0071 123.813 36.1159 123.673L38.8263 120.701L34.6349 119.571C34.4587 119.523 34.3013 119.423 34.1839 119.283C34.0665 119.143 33.9947 118.971 33.9783 118.79L33.615 113.836C33.5991 113.662 33.6451 113.489 33.7448 113.346C33.8445 113.203 33.9915 113.1 34.1599 113.055L38.1417 111.91L34.9982 108.952C34.8632 108.833 34.771 108.673 34.7357 108.497C34.7004 108.32 34.7239 108.137 34.8026 107.975L37.024 103.691C37.0891 103.567 37.1876 103.463 37.3086 103.392C37.4295 103.32 37.5681 103.284 37.7086 103.287H37.9182L42.1096 104.291L40.7963 100.287C40.7368 100.12 40.7378 99.9382 40.7991 99.7724C40.8604 99.6066 40.9781 99.4676 41.1316 99.3797L45.323 96.9099C45.4464 96.8389 45.5858 96.8005 45.7282 96.7982C45.948 96.802 46.16 96.8808 46.3289 97.0215L49.5842 99.896L50.4644 95.9331C50.5007 95.7584 50.5978 95.6023 50.7385 95.4924C50.8792 95.3825 51.0544 95.3261 51.2329 95.3331H56.3464C56.5329 95.3336 56.7148 95.3914 56.8673 95.4988C57.0198 95.6061 57.1355 95.7578 57.1986 95.9331L58.5957 99.896L61.39 97.0215C61.5407 96.8782 61.7408 96.7982 61.9489 96.7982C62.0999 96.802 62.248 96.8402 62.382 96.9099L66.9506 99.3797C67.1107 99.4661 67.2407 99.5992 67.3231 99.7612C67.4054 99.9233 67.4364 100.107 67.4117 100.287L66.6851 104.291L70.7089 103.287H70.9185C71.0676 103.288 71.2142 103.326 71.3456 103.396C71.477 103.467 71.5893 103.568 71.6729 103.691L74.4672 107.975C74.5759 108.115 74.635 108.287 74.635 108.464C74.635 108.641 74.5759 108.812 74.4672 108.952L71.6729 111.91L75.99 113.027ZM55.9971 125.222C57.1584 125.242 58.3112 125.021 59.3824 124.573C60.4536 124.125 61.4198 123.459 62.2198 122.618C63.0198 121.777 63.6361 120.779 64.0295 119.688C64.423 118.596 64.5852 117.435 64.5056 116.278C64.2676 113.846 63.1367 111.588 61.331 109.939C59.5252 108.29 57.1723 107.367 54.7257 107.347C53.5621 107.314 52.4046 107.526 51.3284 107.97C50.2522 108.413 49.2813 109.077 48.4789 109.919C47.6765 110.761 47.0604 111.763 46.6707 112.858C46.2811 113.954 46.1265 115.119 46.2172 116.278C46.4489 118.714 47.5775 120.977 49.3842 122.629C51.1909 124.282 53.5473 125.206 55.9971 125.222Z" fill="#EEEFF3"/>
<path d="M93.6359 53.304C93.8958 53.3802 94.128 53.5302 94.3041 53.7359C94.4803 53.9415 94.5927 54.1938 94.6278 54.4622L95.1587 61.8159C95.1837 62.0736 95.1158 62.3319 94.9673 62.5441C94.8188 62.7564 94.5993 62.9088 94.3484 62.974L88.4804 64.6764L93.1608 69.0858C93.3509 69.2578 93.4816 69.4853 93.5343 69.736C93.587 69.9866 93.5589 70.2474 93.4542 70.4812L90.157 76.8442C90.0586 77.0322 89.9098 77.1892 89.7272 77.2976C89.5447 77.406 89.3355 77.4616 89.1231 77.4582C89.0211 77.4718 88.9178 77.4718 88.8157 77.4582L82.6125 75.979L84.5685 81.9234C84.6654 82.1762 84.6694 82.4551 84.5799 82.7106C84.4904 82.966 84.3131 83.1816 84.0795 83.3188L77.8203 86.9887C77.6339 87.0965 77.4209 87.1497 77.2056 87.1422C76.8822 87.1356 76.5711 87.0173 76.3254 86.8073L71.4913 82.6211L70.178 88.4957C70.1225 88.7515 69.9787 88.9796 69.7719 89.1403C69.565 89.301 69.3082 89.384 69.0463 89.3748H61.4599C61.1849 89.3695 60.9175 89.2833 60.6913 89.1269C60.4651 88.9705 60.2902 88.7509 60.1885 88.4957L58.0229 82.6211L53.8315 86.8073C53.6072 87.0248 53.3059 87.1451 52.9933 87.1422C52.7698 87.143 52.5494 87.0904 52.3506 86.9887L45.5605 83.3188C45.3109 83.1911 45.1094 82.9862 44.986 82.7347C44.8626 82.4832 44.824 82.1986 44.8759 81.9234L45.9657 75.979L39.972 77.4582C39.87 77.4727 39.7666 77.4727 39.6646 77.4582C39.4429 77.4518 39.2259 77.3928 39.0315 77.286C38.8372 77.1792 38.671 77.0278 38.5469 76.8442L34.3555 70.4812C34.2154 70.2713 34.1477 70.0213 34.1629 69.7695C34.178 69.5176 34.2751 69.2775 34.4393 69.0858L38.4771 64.6764L32.3157 62.974C32.0557 62.8978 31.8235 62.7478 31.6474 62.5422C31.4713 62.3365 31.3588 62.0842 31.3237 61.8159L30.7369 54.4203C30.7175 54.1635 30.7876 53.908 30.9353 53.6969C31.083 53.4858 31.2992 53.3322 31.5473 53.2621L37.4571 51.6295L32.7768 47.2201C32.5872 47.0477 32.4579 46.8193 32.4076 46.5682C32.3573 46.3172 32.3888 46.0566 32.4973 45.8247L35.7946 39.4617C35.8942 39.2748 36.0433 39.1187 36.2256 39.0104C36.4078 38.9022 36.6164 38.8459 36.8284 38.8478H37.1218L43.3391 40.3269L41.3831 34.3825C41.2862 34.1298 41.2821 33.8508 41.3717 33.5954C41.4612 33.3399 41.6385 33.1244 41.8721 32.9871L48.1312 29.3033C48.316 29.204 48.5222 29.1513 48.732 29.1498C49.0602 29.1531 49.3768 29.2717 49.6262 29.4847L54.4603 33.6709L55.7596 27.7824C55.8205 27.5267 55.9676 27.2998 56.1762 27.1397C56.3848 26.9796 56.6422 26.8961 56.9052 26.9033H64.4358C64.7084 26.9112 64.9727 26.9987 65.1962 27.1549C65.4196 27.3111 65.5924 27.5292 65.6932 27.7824L67.8588 33.6709L72.0502 29.4847C72.1604 29.3758 72.2913 29.29 72.4353 29.2324C72.5793 29.1749 72.7334 29.1468 72.8884 29.1498C73.1071 29.1511 73.3225 29.2037 73.5171 29.3033L80.3072 32.9732C80.5568 33.1009 80.7584 33.3057 80.8817 33.5572C81.0051 33.8087 81.0437 34.0934 80.9918 34.3686L79.916 40.3129L85.9097 38.8338H86.2031C86.4248 38.8402 86.6419 38.8992 86.8362 39.006C87.0306 39.1127 87.1967 39.2642 87.3208 39.4478L91.5122 45.8108C91.6619 46.0126 91.7428 46.2572 91.7428 46.5085C91.7428 46.7597 91.6619 47.0043 91.5122 47.2062L87.4745 51.6295L93.6359 53.304ZM63.9188 71.444C65.6483 71.4921 67.3685 71.1766 68.9681 70.5182C70.5677 69.8598 72.011 68.8731 73.2043 67.622C74.3977 66.3709 75.3146 64.8834 75.8956 63.2558C76.4766 61.6282 76.7087 59.8968 76.5769 58.1739C76.2265 54.5355 74.5334 51.1574 71.8271 48.6969C69.1207 46.2364 65.5947 44.8694 61.9349 44.8619C60.2112 44.8256 58.4989 45.1502 56.9083 45.8147C55.3178 46.4792 53.8841 47.469 52.6997 48.7203C51.5152 49.9716 50.6062 51.4568 50.0311 53.0801C49.4561 54.7035 49.2277 56.4291 49.3607 58.146C49.7171 61.7709 51.4075 65.1348 54.1047 67.5863C56.8019 70.0378 60.3139 71.4025 63.9608 71.4161" fill="#EEEFF3"/>
<path d="M175.452 108.338C175.843 108.439 176.194 108.658 176.456 108.965C176.719 109.272 176.88 109.652 176.919 110.054L177.715 120.938C177.748 121.323 177.644 121.707 177.422 122.024C177.2 122.34 176.874 122.568 176.5 122.668L167.74 125.166L174.725 131.697C175.02 131.96 175.221 132.313 175.296 132.701C175.372 133.089 175.319 133.491 175.145 133.845L170.269 143.264C170.121 143.543 169.9 143.775 169.629 143.935C169.357 144.095 169.047 144.177 168.732 144.171C168.583 144.185 168.433 144.185 168.285 144.171L159.092 141.981L161.984 150.785C162.111 151.149 162.109 151.545 161.976 151.906C161.843 152.268 161.589 152.572 161.257 152.767L151.994 158.209C151.72 158.374 151.406 158.461 151.086 158.46C150.603 158.452 150.138 158.274 149.773 157.958L142.619 151.651L140.677 160.372C140.59 160.748 140.376 161.083 140.071 161.319C139.765 161.556 139.387 161.679 139.001 161.669H127.824C127.417 161.668 127.02 161.543 126.686 161.311C126.352 161.079 126.096 160.752 125.952 160.372L122.738 151.651L116.423 157.902C116.259 158.063 116.065 158.191 115.852 158.277C115.638 158.363 115.41 158.407 115.18 158.404C114.851 158.4 114.53 158.314 114.244 158.153L104.184 152.711C103.829 152.528 103.541 152.238 103.361 151.883C103.18 151.527 103.116 151.124 103.178 150.73L104.771 141.925L95.8992 144.116C95.7552 144.129 95.6102 144.129 95.4661 144.116C95.1355 144.114 94.8105 144.03 94.5203 143.871C94.2302 143.713 93.9839 143.485 93.8035 143.209L87.5304 133.79C87.3081 133.47 87.1985 133.085 87.2187 132.696C87.2389 132.307 87.3879 131.936 87.6422 131.641L93.6219 125.11L84.4986 122.613C84.1192 122.497 83.7833 122.27 83.5343 121.962C83.2852 121.653 83.1345 121.277 83.1015 120.882L82.3051 109.998C82.2722 109.617 82.3744 109.236 82.5941 108.922C82.8137 108.609 83.1367 108.382 83.5067 108.282L92.2667 105.77L85.281 99.2398C84.984 98.9779 84.7809 98.6261 84.7027 98.2381C84.6245 97.8501 84.6755 97.4473 84.8479 97.091L89.7379 87.6721C89.8859 87.3985 90.106 87.1707 90.3745 87.0132C90.6429 86.8558 90.9495 86.7748 91.2607 86.779C91.4137 86.7585 91.5688 86.7585 91.7218 86.779L100.915 88.9558L98.0229 80.1649C97.8931 79.8012 97.8932 79.404 98.023 79.0403C98.1529 78.6767 98.4045 78.3691 98.7354 78.1695L108.04 72.8391C108.319 72.686 108.631 72.6045 108.948 72.6019C109.433 72.6009 109.901 72.78 110.262 73.1042L117.429 79.3974L119.357 70.6762C119.447 70.2989 119.664 69.964 119.972 69.7277C120.28 69.4913 120.659 69.3681 121.048 69.3785H132.225C132.631 69.3823 133.027 69.5081 133.361 69.7396C133.695 69.971 133.951 70.2973 134.097 70.6762L137.296 79.3974L143.541 73.1042C143.703 72.9402 143.897 72.811 144.111 72.7246C144.325 72.6382 144.554 72.5965 144.785 72.6019C145.111 72.6061 145.432 72.6873 145.721 72.8391L155.78 78.2811C156.138 78.4659 156.428 78.7576 156.611 79.1154C156.794 79.4732 156.86 79.8792 156.8 80.2765L155.194 89.0675L164.065 86.8907C164.214 86.8693 164.364 86.8693 164.512 86.8907C164.841 86.8947 165.164 86.9781 165.453 87.1335C165.743 87.289 165.99 87.5121 166.175 87.7837L172.434 97.2026C172.661 97.5208 172.774 97.9063 172.753 98.2965C172.733 98.6867 172.581 99.0585 172.322 99.3515L166.343 105.882L175.452 108.338ZM131.442 135.171C134.006 135.243 136.556 134.776 138.927 133.8C141.299 132.824 143.438 131.361 145.206 129.506C146.974 127.65 148.332 125.444 149.191 123.03C150.05 120.617 150.391 118.05 150.192 115.496C149.666 110.125 147.162 105.141 143.167 101.509C139.171 97.8761 133.967 95.8544 128.564 95.8351C126.002 95.7628 123.454 96.2295 121.084 97.2048C118.715 98.1802 116.577 99.6425 114.811 101.497C113.044 103.351 111.687 105.555 110.829 107.967C109.97 110.379 109.63 112.944 109.829 115.496C110.351 120.867 112.851 125.853 116.844 129.488C120.838 133.123 126.039 135.148 131.442 135.171Z" fill="#EEEFF3"/>
<path d="M153.559 27.9077C153.797 27.9757 154.009 28.1129 154.168 28.3018C154.327 28.4907 154.426 28.7227 154.453 28.9682L154.942 35.68C154.964 35.9174 154.902 36.1549 154.767 36.3512C154.631 36.5475 154.431 36.6902 154.201 36.7545L148.795 38.2894L153.07 42.3221C153.255 42.4823 153.382 42.6995 153.43 42.9395C153.478 43.1795 153.445 43.4287 153.335 43.6477L150.317 49.4525C150.229 49.6234 150.094 49.7662 149.929 49.8648C149.764 49.9635 149.574 50.014 149.381 50.0107H149.102L143.43 48.6153L145.218 54.0433C145.297 54.2681 145.295 54.5131 145.214 54.7369C145.132 54.9607 144.976 55.1495 144.771 55.2713L139.057 58.6063C138.886 58.7014 138.693 58.7495 138.498 58.7458C138.199 58.7477 137.91 58.6383 137.687 58.4388L133.272 54.5596L132.071 60.0017C132.019 60.234 131.887 60.4408 131.698 60.5861C131.509 60.7314 131.275 60.806 131.037 60.797H124.163C123.912 60.7969 123.667 60.7208 123.46 60.5789C123.253 60.4369 123.094 60.2357 123.004 60.0017L121.02 54.6294L117.177 58.5086C117.077 58.6098 116.958 58.6894 116.825 58.7422C116.693 58.795 116.551 58.82 116.409 58.8156C116.209 58.8173 116.013 58.7693 115.836 58.676L109.633 55.3131C109.413 55.1995 109.234 55.02 109.122 54.7998C109.009 54.5796 108.968 54.3298 109.004 54.0852L109.996 48.6571L104.519 50.0525H104.24C104.038 50.0484 103.839 49.9955 103.662 49.8983C103.484 49.8011 103.333 49.6626 103.22 49.4944L99.3501 43.6896C99.2039 43.4994 99.1247 43.2665 99.1247 43.0268C99.1247 42.7871 99.2039 42.5541 99.3501 42.3639L103.038 38.3313L97.45 36.7963C97.2057 36.7335 96.987 36.5963 96.8243 36.4038C96.6616 36.2113 96.5628 35.973 96.5418 35.7219L96.0528 29.0101C96.0236 28.7581 96.0909 28.5044 96.2412 28.2999C96.3915 28.0955 96.6137 27.9554 96.8632 27.9077L102.27 26.3588L97.9669 22.3262C97.7696 22.159 97.6356 21.9292 97.5873 21.6753C97.539 21.4214 97.5793 21.1586 97.7014 20.9308L100.719 15.126C100.806 14.954 100.941 14.8103 101.106 14.7115C101.272 14.6127 101.462 14.5629 101.655 14.5678C101.748 14.5541 101.842 14.5541 101.935 14.5678L107.607 15.9632L105.819 10.5351C105.74 10.3104 105.742 10.0653 105.823 9.84157C105.905 9.61779 106.061 9.42901 106.266 9.3072L111.98 5.94431C112.151 5.84921 112.344 5.80107 112.539 5.80479C112.838 5.80287 113.127 5.91232 113.349 6.11177L117.764 9.99095L118.966 4.6187C119.018 4.38504 119.149 4.17659 119.338 4.02897C119.526 3.88135 119.76 3.80372 120 3.80937H126.874C127.126 3.81251 127.371 3.89137 127.578 4.0357C127.785 4.18004 127.944 4.38317 128.033 4.6187L130.017 9.99095L133.859 6.11177C133.959 6.0105 134.079 5.93096 134.211 5.87814C134.344 5.82531 134.485 5.80034 134.628 5.80479C134.827 5.80306 135.024 5.851 135.2 5.94431L141.404 9.3072C141.625 9.41923 141.805 9.59842 141.918 9.81904C142.031 10.0397 142.071 10.2904 142.032 10.5351L141.041 15.9632L146.517 14.5678C146.61 14.5541 146.704 14.5541 146.797 14.5678C147 14.5683 147.2 14.6197 147.378 14.7172C147.556 14.8147 147.707 14.9552 147.817 15.126L151.687 20.9308C151.85 21.1265 151.94 21.3735 151.94 21.6285C151.94 21.8835 151.85 22.1304 151.687 22.3262L147.998 26.3449L153.559 27.9077ZM126.413 44.457C127.992 44.5009 129.564 44.2125 131.025 43.6107C132.486 43.0088 133.804 42.107 134.893 40.9636C135.983 39.8202 136.819 38.4608 137.349 36.9737C137.878 35.4865 138.089 33.9048 137.967 32.3311C137.645 29.0159 136.101 25.9382 133.636 23.6951C131.171 21.452 127.959 20.2033 124.624 20.1912C123.044 20.1494 121.472 20.4396 120.011 21.043C118.55 21.6464 117.232 22.5496 116.143 23.6941C115.054 24.8385 114.217 26.1987 113.688 27.6866C113.159 29.1744 112.948 30.7568 113.07 32.3311C113.395 35.6438 114.94 38.7181 117.405 40.9583C119.87 43.1985 123.08 44.4453 126.413 44.457Z" fill="#EEEFF3"/>
<path d="M550.219 136.134L546.81 139.246C546.658 139.381 546.466 139.461 546.263 139.473C546.06 139.486 545.859 139.431 545.692 139.316L540.774 136.051C540.631 135.956 540.513 135.827 540.43 135.677C540.347 135.526 540.302 135.357 540.299 135.185C540.292 135.111 540.292 135.036 540.299 134.962L541.445 130.343L536.848 131.167C536.643 131.202 536.433 131.17 536.247 131.077C536.061 130.985 535.909 130.835 535.814 130.65L533.02 125.418C532.939 125.262 532.896 125.09 532.894 124.915C532.892 124.796 532.914 124.677 532.96 124.567C533.006 124.456 533.074 124.356 533.16 124.273L536.443 121.022L531.888 119.362C531.691 119.286 531.521 119.152 531.402 118.977C531.282 118.803 531.218 118.596 531.218 118.385V112.58C531.212 112.379 531.276 112.182 531.398 112.022C531.52 111.862 531.693 111.749 531.888 111.701L536.443 110.696L533.16 106.971C532.986 106.786 532.891 106.541 532.894 106.287C532.895 106.121 532.938 105.957 533.02 105.812L535.814 100.998C535.914 100.824 536.073 100.69 536.262 100.621C536.452 100.552 536.659 100.552 536.848 100.622L541.445 102.129L540.299 97.3425C540.293 97.2635 540.293 97.1842 540.299 97.1053C540.298 96.942 540.342 96.7815 540.425 96.6413C540.509 96.501 540.63 96.3864 540.774 96.3099L545.692 93.7703C545.877 93.6794 546.087 93.6521 546.289 93.6924C546.491 93.7328 546.674 93.8386 546.81 93.9936L550.219 97.5937L551.518 93.0447C551.573 92.8508 551.693 92.682 551.859 92.5674C552.025 92.4528 552.225 92.3995 552.426 92.4168L558.099 92.8214C558.308 92.845 558.505 92.9308 558.664 93.0676C558.824 93.2045 558.938 93.3861 558.993 93.5889L560.306 98.3332L563.715 95.2215C563.876 95.0993 564.072 95.0331 564.274 95.0331C564.476 95.0331 564.672 95.0993 564.833 95.2215L569.751 98.4867C569.893 98.5824 570.009 98.7112 570.089 98.862C570.169 99.0128 570.212 99.181 570.212 99.3518C570.225 99.4256 570.225 99.5013 570.212 99.5751L569.08 104.194L573.663 103.357C573.871 103.326 574.083 103.361 574.271 103.456C574.458 103.551 574.612 103.701 574.711 103.887L577.505 109.12C577.587 109.269 577.63 109.437 577.631 109.608C577.63 109.853 577.535 110.088 577.365 110.264L574.082 113.501L578.623 115.176C578.822 115.251 578.993 115.385 579.115 115.559C579.237 115.733 579.304 115.94 579.307 116.152V121.957C579.312 122.158 579.246 122.355 579.121 122.513C578.996 122.671 578.82 122.78 578.623 122.822L574.082 123.827L577.365 127.567C577.533 127.755 577.628 127.998 577.631 128.25C577.63 128.412 577.587 128.571 577.505 128.711L574.711 133.539C574.603 133.709 574.441 133.838 574.251 133.906C574.062 133.975 573.855 133.978 573.663 133.916L569.094 132.353L570.226 137.139C570.24 137.217 570.24 137.298 570.226 137.376C570.23 137.538 570.189 137.698 570.108 137.839C570.026 137.979 569.908 138.094 569.765 138.172L564.903 140.711C564.717 140.8 564.508 140.826 564.307 140.786C564.105 140.745 563.922 140.641 563.785 140.488L560.376 136.874L559.063 141.437C559.011 141.629 558.893 141.798 558.73 141.913C558.566 142.027 558.368 142.081 558.169 142.065L552.496 141.646C552.287 141.626 552.088 141.544 551.926 141.409C551.764 141.275 551.646 141.095 551.588 140.893L550.219 136.134ZM565.517 117.994C565.507 115.182 564.452 112.474 562.558 110.394C560.664 108.314 558.064 107.01 555.263 106.733C553.929 106.631 552.59 106.81 551.33 107.258C550.071 107.706 548.92 108.414 547.951 109.335C546.983 110.256 546.22 111.369 545.71 112.604C545.2 113.839 544.956 115.166 544.994 116.501C545.002 119.315 546.058 122.024 547.956 124.103C549.854 126.182 552.458 127.481 555.263 127.748C556.595 127.853 557.936 127.675 559.195 127.228C560.455 126.781 561.606 126.073 562.574 125.151C563.542 124.23 564.304 123.115 564.811 121.879C565.318 120.644 565.559 119.315 565.517 117.98" fill="#EEEFF3"/>
<path d="M480.963 154.037L475.891 158.656C475.66 158.846 475.373 158.957 475.074 158.972C474.775 158.987 474.478 158.905 474.229 158.739L466.936 153.897C466.67 153.727 466.465 153.478 466.347 153.186C466.229 152.893 466.206 152.571 466.279 152.265L467.97 145.413L461.152 146.655C460.842 146.699 460.527 146.646 460.25 146.504C459.972 146.362 459.745 146.137 459.601 145.86L455.409 138.088C455.287 137.865 455.22 137.616 455.214 137.362C455.215 137.003 455.355 136.658 455.605 136.399L460.495 131.585L453.733 129.101C453.447 128.993 453.199 128.802 453.02 128.554C452.842 128.306 452.74 128.011 452.727 127.706V119.027C452.717 118.727 452.811 118.433 452.995 118.196C453.179 117.959 453.44 117.794 453.733 117.729L460.495 116.236L455.605 110.654C455.357 110.372 455.219 110.011 455.214 109.636C455.216 109.39 455.284 109.149 455.409 108.938L459.601 101.78C459.757 101.524 459.996 101.329 460.278 101.227C460.56 101.126 460.868 101.124 461.152 101.222L467.97 103.454L466.279 96.3516C466.266 96.2357 466.266 96.1187 466.279 96.0028C466.273 95.7596 466.334 95.5194 466.458 95.3097C466.582 95.0999 466.762 94.9291 466.978 94.8167L474.271 91.0352C474.546 90.9012 474.858 90.8613 475.159 90.9219C475.459 90.9824 475.731 91.1399 475.933 91.3701L481.005 96.7284L482.947 89.9608C483.023 89.6601 483.208 89.3983 483.466 89.2257C483.724 89.0531 484.037 88.9819 484.344 89.0259L492.727 89.6398C493.049 89.6579 493.357 89.7767 493.608 89.9796C493.859 90.1825 494.039 90.4591 494.124 90.7701L496.066 97.8308L501.124 93.1981C501.355 93.0078 501.642 92.897 501.941 92.8819C502.24 92.8668 502.537 92.9483 502.786 93.1143L510.093 97.9563C510.303 98.0989 510.475 98.2902 510.594 98.5138C510.713 98.7375 510.776 98.9867 510.778 99.2401C510.792 99.356 510.792 99.4731 510.778 99.5889L509.073 106.44L515.905 105.212C516.211 105.164 516.525 105.213 516.801 105.354C517.077 105.494 517.301 105.718 517.442 105.994L521.634 113.766C521.754 113.989 521.817 114.238 521.815 114.492C521.819 114.67 521.786 114.848 521.719 115.013C521.652 115.179 521.551 115.329 521.424 115.455L516.548 120.283L523.31 122.752C523.595 122.863 523.842 123.053 524.02 123.301C524.199 123.549 524.302 123.843 524.316 124.148V132.771C524.324 133.07 524.228 133.363 524.045 133.599C523.861 133.836 523.602 134.002 523.31 134.069L516.548 135.562L521.424 141.144C521.677 141.422 521.817 141.786 521.815 142.162C521.817 142.407 521.754 142.647 521.634 142.86L517.442 150.018C517.291 150.275 517.054 150.471 516.774 150.573C516.494 150.675 516.186 150.676 515.905 150.576L509.073 148.344L510.778 155.46C510.791 155.572 510.791 155.684 510.778 155.795C510.784 156.037 510.724 156.275 510.603 156.485C510.482 156.694 510.306 156.866 510.093 156.981L502.786 160.763C502.511 160.897 502.199 160.937 501.898 160.876C501.598 160.816 501.326 160.658 501.124 160.428L496.066 155.07L494.012 161.865C493.93 162.162 493.744 162.418 493.487 162.588C493.23 162.757 492.92 162.828 492.615 162.786L484.232 162.172C483.909 162.156 483.6 162.038 483.349 161.835C483.098 161.632 482.918 161.354 482.835 161.042L480.963 154.037ZM503.694 127.064C503.686 122.882 502.122 118.852 499.305 115.757C496.488 112.663 492.619 110.725 488.452 110.319C486.474 110.166 484.486 110.43 482.616 111.093C480.747 111.757 479.038 112.806 477.601 114.172C476.164 115.537 475.03 117.19 474.273 119.021C473.517 120.853 473.154 122.823 473.209 124.804C473.217 128.986 474.781 133.016 477.598 136.11C480.415 139.205 484.284 141.143 488.452 141.548C490.43 141.702 492.418 141.438 494.287 140.774C496.156 140.111 497.865 139.062 499.302 137.696C500.74 136.33 501.873 134.678 502.63 132.846C503.387 131.015 503.749 129.045 503.694 127.064Z" fill="#EEEFF3"/>
<path d="M543.191 244.319L535.703 251.17C535.365 251.466 534.937 251.639 534.488 251.662C534.039 251.684 533.596 251.555 533.23 251.296L522.43 244.193C522.114 243.986 521.855 243.705 521.675 243.374C521.494 243.043 521.398 242.672 521.396 242.295C521.375 242.129 521.375 241.96 521.396 241.793L523.911 231.621L513.796 233.463C513.342 233.533 512.878 233.46 512.469 233.252C512.06 233.044 511.727 232.712 511.518 232.304L505.273 220.778C505.093 220.449 504.997 220.08 504.994 219.704C505.001 219.181 505.211 218.68 505.58 218.309L512.804 211.164L502.8 207.494C502.361 207.332 501.982 207.039 501.715 206.654C501.448 206.27 501.305 205.813 501.305 205.345V192.578C501.294 192.134 501.436 191.7 501.709 191.349C501.981 190.998 502.367 190.752 502.8 190.652L512.804 188.447L505.58 180.242C505.209 179.827 505 179.292 504.994 178.735C504.995 178.373 505.091 178.017 505.273 177.703L511.518 167.098C511.745 166.719 512.095 166.431 512.51 166.281C512.925 166.131 513.379 166.129 513.796 166.275L523.911 169.582L521.396 159.046C521.375 158.88 521.375 158.711 521.396 158.544C521.388 158.184 521.48 157.829 521.663 157.518C521.846 157.208 522.111 156.954 522.43 156.786L533.23 151.204C533.64 151.011 534.102 150.955 534.547 151.042C534.992 151.13 535.397 151.358 535.703 151.693L543.191 159.633L546.069 149.614C546.183 149.185 546.444 148.81 546.807 148.555C547.17 148.3 547.611 148.181 548.053 148.218L560.544 149.125C561.006 149.171 561.443 149.357 561.795 149.659C562.147 149.961 562.398 150.364 562.514 150.814L565.392 161.251L572.894 154.414C573.231 154.122 573.655 153.95 574.1 153.924C574.545 153.899 574.986 154.022 575.353 154.274L586.167 161.46C586.48 161.652 586.742 161.915 586.931 162.228C587.121 162.541 587.233 162.895 587.257 163.261C587.277 163.427 587.277 163.596 587.257 163.763L584.742 173.921L594.843 172.093C595.299 172.021 595.765 172.095 596.176 172.303C596.588 172.51 596.923 172.842 597.135 173.252L603.38 184.763C603.554 185.095 603.645 185.464 603.645 185.838C603.646 186.36 603.44 186.862 603.072 187.233L595.849 194.378L605.853 198.062C606.287 198.227 606.662 198.518 606.929 198.899C607.196 199.28 607.341 199.732 607.348 200.196V212.964C607.359 213.408 607.216 213.842 606.944 214.193C606.671 214.544 606.286 214.79 605.853 214.89L595.849 217.109L603.072 225.299C603.441 225.721 603.644 226.261 603.645 226.82C603.649 227.182 603.557 227.538 603.38 227.853L597.037 238.472C596.808 238.851 596.455 239.141 596.038 239.291C595.62 239.441 595.164 239.442 594.745 239.295L584.644 235.988L587.159 246.509C587.179 246.681 587.179 246.854 587.159 247.026C587.167 247.386 587.075 247.741 586.892 248.051C586.709 248.362 586.444 248.616 586.125 248.784L575.311 254.365C574.903 254.56 574.441 254.617 573.998 254.526C573.554 254.435 573.152 254.203 572.852 253.863L565.35 245.937L562.472 255.956C562.364 256.385 562.106 256.761 561.745 257.017C561.383 257.273 560.943 257.392 560.502 257.352L548.011 256.445C547.549 256.401 547.111 256.217 546.757 255.918C546.402 255.618 546.148 255.218 546.027 254.77L543.191 244.319ZM576.876 204.383C576.876 191.629 566.761 180.549 554.298 179.628C541.836 178.707 531.721 188.322 531.721 201.089C531.721 213.857 541.822 224.937 554.298 225.844C566.775 226.751 576.876 217.15 576.876 204.383Z" fill="#EEEFF3"/>
<path d="M451.944 223.262L447.32 227.448C447.112 227.631 446.848 227.738 446.571 227.751C446.294 227.764 446.021 227.681 445.797 227.518L439.161 223.122C438.967 222.995 438.807 222.821 438.698 222.616C438.588 222.411 438.531 222.182 438.532 221.95C438.525 221.848 438.525 221.745 438.532 221.643L440.083 215.378L433.852 216.508C433.573 216.542 433.29 216.49 433.041 216.361C432.792 216.231 432.587 216.03 432.454 215.783L428.612 208.68C428.493 208.482 428.43 208.255 428.431 208.024C428.43 207.861 428.461 207.699 428.524 207.548C428.586 207.397 428.678 207.26 428.794 207.145L433.251 202.736L427.076 200.475C426.803 200.377 426.568 200.197 426.403 199.959C426.238 199.722 426.151 199.439 426.153 199.15V191.28C426.146 191.004 426.233 190.735 426.401 190.516C426.569 190.298 426.807 190.143 427.076 190.08L433.251 188.684L428.794 183.619C428.564 183.367 428.435 183.039 428.431 182.698C428.428 182.471 428.491 182.248 428.612 182.056L432.454 175.512C432.592 175.277 432.806 175.098 433.06 175.004C433.315 174.91 433.595 174.907 433.852 174.995L440.083 177.047L438.532 170.544C438.525 170.442 438.525 170.339 438.532 170.237C438.529 170.016 438.586 169.798 438.696 169.606C438.807 169.415 438.967 169.257 439.161 169.149L445.825 165.702C446.078 165.583 446.363 165.548 446.637 165.603C446.912 165.659 447.161 165.801 447.348 166.009L451.972 170.893L453.747 164.711C453.821 164.449 453.984 164.22 454.208 164.065C454.433 163.909 454.704 163.837 454.976 163.86L462.674 164.418C462.958 164.446 463.227 164.56 463.444 164.744C463.662 164.929 463.817 165.175 463.89 165.451L465.678 171.898L470.303 167.711C470.507 167.527 470.768 167.418 471.042 167.403C471.317 167.388 471.589 167.467 471.812 167.628L478.49 172.051C478.684 172.179 478.843 172.353 478.953 172.558C479.063 172.762 479.12 172.991 479.119 173.223C479.132 173.325 479.132 173.428 479.119 173.53L477.582 179.796L483.813 178.665C484.092 178.632 484.375 178.683 484.624 178.813C484.873 178.942 485.077 179.144 485.21 179.391L489.052 186.493C489.161 186.695 489.219 186.92 489.22 187.149C489.225 187.312 489.197 187.474 489.137 187.625C489.077 187.776 488.986 187.914 488.871 188.028L484.414 192.438L490.589 194.698C490.859 194.799 491.091 194.98 491.253 195.217C491.416 195.455 491.501 195.736 491.497 196.024V203.908C491.505 204.18 491.419 204.446 491.254 204.661C491.088 204.877 490.854 205.03 490.589 205.094L484.414 206.489L488.871 211.541C489.098 211.799 489.223 212.132 489.22 212.475C489.221 212.696 489.163 212.913 489.052 213.103L485.21 219.648C485.071 219.88 484.857 220.058 484.603 220.152C484.349 220.246 484.07 220.25 483.813 220.164L477.582 218.113L479.119 224.615C479.133 224.722 479.133 224.83 479.119 224.936C479.121 225.155 479.063 225.371 478.953 225.56C478.842 225.749 478.682 225.905 478.49 226.011L471.812 229.457C471.563 229.58 471.28 229.617 471.008 229.564C470.735 229.511 470.488 229.371 470.303 229.164L465.706 224.253L463.918 230.434C463.847 230.696 463.686 230.924 463.464 231.079C463.242 231.235 462.973 231.308 462.702 231.285L455.004 230.727C454.718 230.702 454.446 230.59 454.226 230.405C454.006 230.22 453.848 229.972 453.775 229.695L451.944 223.262ZM472.692 198.605C472.687 194.78 471.251 191.093 468.667 188.27C466.083 185.446 462.535 183.688 458.721 183.34C456.909 183.194 455.088 183.431 453.374 184.035C451.661 184.64 450.094 185.597 448.776 186.847C447.458 188.096 446.418 189.609 445.724 191.286C445.03 192.963 444.698 194.768 444.749 196.582C444.754 200.408 446.19 204.094 448.774 206.918C451.359 209.742 454.906 211.5 458.721 211.848C460.532 211.996 462.355 211.76 464.069 211.157C465.784 210.553 467.352 209.595 468.67 208.346C469.989 207.096 471.028 205.582 471.721 203.904C472.414 202.226 472.745 200.42 472.692 198.605Z" fill="#EEEFF3"/>
<path d="M274.858 227.016V287.841L280.684 306.818L289.989 309.916L387.998 311.604L375.577 300.176L372.28 280.989V225.397L274.858 227.016Z" fill="#263238"/>
<path d="M375.968 288.999V186.731H365.113V299.855C365.111 301.89 365.511 303.906 366.289 305.787C367.068 307.667 368.21 309.377 369.65 310.816C371.09 312.256 372.8 313.398 374.683 314.177C376.565 314.957 378.583 315.358 380.621 315.358H462.912V304.516H391.477C389.438 304.516 387.419 304.114 385.535 303.334C383.652 302.554 381.941 301.41 380.501 299.969C379.06 298.528 377.919 296.817 377.141 294.935C376.363 293.052 375.965 291.035 375.968 288.999Z" fill="#263238"/>
<path d="M375.968 242.519H282.612V256.975H375.968V242.519Z" fill="#263238"/>
<path d="M462.856 304.502H369.5V315.344H462.856V304.502Z" fill="#99A4AB"/>
<path d="M282.682 288.999V186.731H271.826V299.855C271.826 303.963 273.46 307.903 276.368 310.807C279.277 313.712 283.221 315.344 287.334 315.344H369.57V304.502H298.134C294.028 304.487 290.096 302.847 287.199 299.94C284.303 297.034 282.678 293.1 282.682 288.999Z" fill="#99A4AB"/>
<path d="M524.973 0.000225463C528.787 0.0938985 532.43 1.60146 535.194 4.22961C537.957 6.85777 539.642 10.4186 539.922 14.2192L553.237 223.179C553.392 224.991 553.167 226.816 552.577 228.538C551.986 230.259 551.043 231.838 549.807 233.175C548.572 234.511 547.07 235.576 545.4 236.301C543.729 237.025 541.925 237.394 540.104 237.384H165.225C161.407 237.312 157.755 235.813 154.99 233.183C152.225 230.553 150.548 226.983 150.29 223.179L136.975 14.2192C136.817 12.4054 137.041 10.5788 137.63 8.85601C138.22 7.13323 139.162 5.55223 140.398 4.21405C141.634 2.87586 143.136 1.80992 144.808 1.08435C146.48 0.358777 148.285 -0.0104599 150.108 0.000225463H524.973Z" fill="#263238"/>
<path d="M540.104 237.383H165.225C161.407 237.312 157.755 235.813 154.99 233.183C152.225 230.553 150.548 226.983 150.29 223.178L136.975 14.2188C136.834 12.3738 137.078 10.5197 137.691 8.77359C138.305 7.0275 139.274 5.4274 140.538 4.07437C140.881 3.70089 141.25 3.35123 141.641 3.02783L134.586 8.93032C132.987 10.2958 131.731 12.0174 130.921 13.9565C130.11 15.8955 129.767 17.9977 129.919 20.0934L143.234 229.053C143.495 232.859 145.176 236.429 147.943 239.059C150.711 241.688 154.364 243.186 158.183 243.258H533.034C536.124 243.28 539.122 242.213 541.501 240.244L548.556 234.425C546.178 236.378 543.183 237.426 540.104 237.383Z" fill="#455A64"/>
<path d="M527.04 24.7822L538.986 212.169H162.906L150.974 24.7822H527.04Z" fill="white"/>
<g style="mix-blend-mode:multiply">
<path d="M405.392 77.4442L404.819 69.1416C404.701 67.4365 403.949 65.8371 402.711 64.6573C401.473 63.4774 399.838 62.8024 398.127 62.7647H193.95C193.135 62.7612 192.328 62.928 191.582 63.2546C190.835 63.5811 190.165 64.0601 189.615 64.6608C189.065 65.2614 188.647 65.9704 188.388 66.7421C188.129 67.5138 188.034 68.3312 188.11 69.1416L188.669 77.4442L195.543 179.196C195.664 180.906 196.42 182.509 197.664 183.691C198.907 184.873 200.547 185.549 202.263 185.587H406.426C407.242 185.588 408.049 185.42 408.795 185.092C409.542 184.763 410.211 184.283 410.761 183.681C411.311 183.08 411.729 182.37 411.988 181.597C412.247 180.825 412.342 180.007 412.266 179.196L405.392 77.4442Z" fill="#B4BEC8"/>
</g>
<path d="M407.488 75.3511H190.765L197.638 177.103C197.76 178.813 198.516 180.416 199.759 181.598C201.002 182.78 202.643 183.456 204.359 183.494H408.522C409.337 183.495 410.144 183.327 410.891 182.998C411.637 182.67 412.307 182.19 412.857 181.588C413.407 180.987 413.825 180.277 414.084 179.504C414.343 178.732 414.438 177.914 414.362 177.103L407.488 75.3511Z" fill="#FFF3EE"/>
<path d="M400.223 60.6714H196.06C195.245 60.6679 194.438 60.8348 193.691 61.1613C192.945 61.4879 192.275 61.9668 191.725 62.5675C191.175 63.1681 190.757 63.8771 190.498 64.6488C190.238 65.4206 190.144 66.2379 190.22 67.0484L190.779 75.3509H407.488L406.915 67.0484C406.797 65.3433 406.045 63.7438 404.807 62.564C403.569 61.3842 401.934 60.7091 400.223 60.6714Z" fill="#2B79EE"/>
<path d="M202.137 65.2622C201.779 65.261 201.425 65.3341 201.097 65.4767C200.769 65.6193 200.474 65.8284 200.231 66.0908C199.988 66.3531 199.802 66.6629 199.686 67.0007C199.569 67.3385 199.523 67.6968 199.552 68.053C199.614 68.8012 199.951 69.5002 200.498 70.0154C201.045 70.5306 201.763 70.8257 202.514 70.8438C202.872 70.8451 203.225 70.7721 203.553 70.6293C203.88 70.4866 204.174 70.2772 204.416 70.0146C204.658 69.752 204.842 69.442 204.958 69.1042C205.073 68.7665 205.116 68.4085 205.085 68.053C205.03 67.3048 204.697 66.6042 204.152 66.0881C203.606 65.572 202.888 65.2775 202.137 65.2622Z" fill="white"/>
<path d="M212.099 65.2623C211.74 65.259 211.385 65.3306 211.056 65.4725C210.727 65.6144 210.431 65.8235 210.188 66.0863C209.944 66.3491 209.759 66.6598 209.643 66.9985C209.527 67.3372 209.483 67.6965 209.514 68.0531C209.576 68.8013 209.913 69.5003 210.459 70.0155C211.006 70.5307 211.724 70.8257 212.476 70.8439C212.834 70.845 213.188 70.772 213.516 70.6294C213.844 70.4868 214.139 70.2777 214.382 70.0153C214.625 69.753 214.811 69.4431 214.927 69.1054C215.044 68.7676 215.09 68.4093 215.061 68.0531C215.002 67.3037 214.666 66.603 214.119 66.0872C213.571 65.5714 212.851 65.2773 212.099 65.2623Z" fill="white"/>
<path d="M222.06 65.2622C221.703 65.2609 221.349 65.3339 221.022 65.4767C220.695 65.6194 220.401 65.8288 220.159 66.0914C219.917 66.3539 219.732 66.664 219.617 67.0018C219.502 67.3395 219.459 67.6975 219.49 68.053C219.545 68.8035 219.88 69.5061 220.428 70.0225C220.976 70.5389 221.698 70.8319 222.452 70.8438C222.809 70.8451 223.162 70.7721 223.49 70.6293C223.817 70.4866 224.111 70.2772 224.353 70.0146C224.595 69.752 224.779 69.442 224.895 69.1042C225.01 68.7665 225.053 68.4085 225.022 68.053C224.963 67.3036 224.628 66.6029 224.08 66.0871C223.533 65.5713 222.813 65.2772 222.06 65.2622Z" fill="white"/>
<path d="M276.185 86.4305H207.726C207.363 86.4216 207.002 86.4889 206.666 86.6279C206.331 86.7669 206.028 86.9746 205.778 87.2375C205.528 87.5005 205.336 87.8129 205.214 88.1545C205.092 88.4962 205.044 88.8596 205.071 89.2212C205.147 89.9837 205.503 90.691 206.071 91.2064C206.639 91.7219 207.378 92.0089 208.145 92.012H276.604C276.967 92.0187 277.327 91.95 277.661 91.8102C277.995 91.6705 278.297 91.4628 278.547 91.2003C278.796 90.9378 278.989 90.6263 279.111 90.2856C279.234 89.9449 279.284 89.5824 279.259 89.2212C279.186 88.4599 278.833 87.7528 278.267 87.2371C277.702 86.7214 276.965 86.4339 276.199 86.4305" fill="#2B79EE"/>
<path d="M354.494 86.4303H286.035C285.671 86.4195 285.308 86.4853 284.971 86.6234C284.634 86.7615 284.33 86.9689 284.078 87.2321C283.827 87.4953 283.633 87.8083 283.511 88.151C283.388 88.4937 283.339 88.8583 283.366 89.2211C283.446 89.9848 283.805 90.6922 284.375 91.2074C284.945 91.7226 285.685 92.0091 286.454 92.0119H354.914C355.277 92.0207 355.638 91.9535 355.973 91.8145C356.308 91.6755 356.611 91.4678 356.861 91.2049C357.111 90.9419 357.303 90.6295 357.425 90.2878C357.547 89.9462 357.596 89.5828 357.568 89.2211C357.495 88.4598 357.142 87.7527 356.577 87.237C356.011 86.7213 355.274 86.4338 354.508 86.4303" fill="#FF6C37"/>
<path d="M310.275 96.1839H208.48C208.117 96.175 207.756 96.2423 207.421 96.3813C207.086 96.5203 206.783 96.728 206.533 96.9909C206.283 97.2539 206.091 97.5663 205.969 97.9079C205.847 98.2496 205.798 98.613 205.826 98.9747C205.898 99.7359 206.252 100.443 206.817 100.959C207.383 101.474 208.12 101.762 208.885 101.765H310.625C310.988 101.774 311.348 101.707 311.684 101.568C312.019 101.429 312.322 101.221 312.572 100.958C312.822 100.695 313.014 100.383 313.136 100.041C313.258 99.6997 313.307 99.3363 313.279 98.9747C313.206 98.2134 312.853 97.5062 312.288 96.9905C311.722 96.4748 310.985 96.1873 310.219 96.1839" fill="#AFCDFB"/>
<path d="M352.944 105.952H209.193C208.83 105.943 208.469 106.01 208.133 106.149C207.798 106.288 207.496 106.496 207.245 106.759C206.995 107.022 206.803 107.334 206.681 107.676C206.56 108.018 206.511 108.381 206.538 108.743C206.611 109.504 206.964 110.211 207.53 110.727C208.095 111.243 208.832 111.53 209.598 111.533H353.349C353.712 111.542 354.073 111.475 354.408 111.336C354.744 111.197 355.046 110.989 355.296 110.726C355.546 110.463 355.739 110.151 355.86 109.809C355.982 109.468 356.031 109.104 356.003 108.743C355.931 107.981 355.577 107.274 355.012 106.759C354.447 106.243 353.709 105.955 352.944 105.952Z" fill="#FF6C37"/>
<path d="M314.565 115.705H209.905C209.542 115.697 209.181 115.764 208.846 115.903C208.511 116.042 208.208 116.249 207.958 116.512C207.708 116.775 207.516 117.088 207.394 117.429C207.272 117.771 207.223 118.134 207.251 118.496C207.326 119.256 207.681 119.962 208.246 120.477C208.81 120.992 209.546 121.28 210.31 121.287H314.97C315.333 121.296 315.694 121.229 316.029 121.089C316.364 120.95 316.667 120.743 316.917 120.48C317.167 120.217 317.359 119.905 317.481 119.563C317.603 119.221 317.652 118.858 317.624 118.496C317.548 117.736 317.194 117.031 316.629 116.516C316.065 116 315.329 115.712 314.565 115.705Z" fill="#2B79EE"/>
<path d="M375.843 125.473H210.618C210.254 125.462 209.892 125.528 209.556 125.666C209.219 125.805 208.916 126.012 208.665 126.276C208.415 126.539 208.223 126.852 208.102 127.195C207.981 127.538 207.934 127.902 207.963 128.264C208.039 129.024 208.393 129.73 208.958 130.245C209.523 130.76 210.258 131.048 211.023 131.055H376.29C376.652 131.062 377.012 130.993 377.346 130.853C377.681 130.713 377.983 130.506 378.232 130.243C378.482 129.981 378.674 129.669 378.797 129.328C378.919 128.988 378.97 128.625 378.944 128.264C378.872 127.503 378.518 126.796 377.953 126.28C377.387 125.764 376.65 125.477 375.885 125.473" fill="#FF6C37"/>
<path d="M356.52 135.227H211.33C210.967 135.218 210.606 135.285 210.271 135.424C209.936 135.563 209.633 135.771 209.383 136.034C209.133 136.297 208.941 136.609 208.819 136.951C208.697 137.293 208.648 137.656 208.676 138.018C208.752 138.778 209.106 139.483 209.671 139.998C210.235 140.513 210.971 140.802 211.735 140.808H356.926C357.289 140.817 357.649 140.75 357.985 140.611C358.32 140.472 358.623 140.264 358.873 140.001C359.123 139.738 359.315 139.426 359.437 139.084C359.559 138.743 359.608 138.379 359.58 138.018C359.504 137.258 359.15 136.552 358.585 136.037C358.021 135.522 357.285 135.233 356.52 135.227Z" fill="#FF6C37"/>
<path d="M326.72 144.995H212.043C211.68 144.986 211.319 145.053 210.984 145.192C210.648 145.331 210.346 145.539 210.096 145.802C209.845 146.065 209.653 146.377 209.531 146.719C209.41 147.061 209.361 147.424 209.388 147.786C209.464 148.546 209.818 149.251 210.383 149.766C210.948 150.281 211.683 150.57 212.448 150.576H327.125C327.488 150.585 327.849 150.518 328.184 150.379C328.519 150.24 328.822 150.032 329.072 149.769C329.322 149.506 329.514 149.194 329.636 148.852C329.758 148.511 329.807 148.147 329.779 147.786C329.706 147.024 329.353 146.317 328.788 145.802C328.222 145.286 327.485 144.998 326.72 144.995Z" fill="#AFCDFB"/>
<path d="M341.739 154.762H212.825C212.462 154.754 212.101 154.821 211.766 154.96C211.43 155.099 211.128 155.307 210.878 155.57C210.628 155.832 210.436 156.145 210.314 156.487C210.192 156.828 210.143 157.192 210.171 157.553C210.246 158.313 210.601 159.019 211.165 159.534C211.73 160.049 212.466 160.337 213.23 160.344H342.214C342.577 160.353 342.938 160.286 343.273 160.147C343.608 160.008 343.911 159.8 344.161 159.537C344.411 159.274 344.603 158.962 344.725 158.62C344.847 158.278 344.896 157.915 344.868 157.553C344.795 156.792 344.442 156.085 343.877 155.569C343.311 155.053 342.574 154.766 341.808 154.762" fill="#AFCDFB"/>
<path d="M378.693 164.516H213.468C213.105 164.508 212.744 164.575 212.409 164.714C212.073 164.853 211.771 165.06 211.521 165.323C211.27 165.586 211.078 165.899 210.956 166.24C210.835 166.582 210.786 166.946 210.813 167.307C210.892 168.068 211.25 168.774 211.817 169.289C212.384 169.804 213.121 170.092 213.887 170.098H379.084C379.447 170.107 379.808 170.04 380.143 169.901C380.479 169.762 380.781 169.554 381.031 169.291C381.281 169.028 381.474 168.716 381.595 168.374C381.717 168.032 381.766 167.669 381.739 167.307C381.666 166.546 381.312 165.839 380.747 165.323C380.182 164.807 379.445 164.52 378.679 164.516" fill="#2B79EE"/>
<g style="mix-blend-mode:multiply">
<path d="M502.702 26.8611L502.144 18.5586C502.022 16.8523 501.267 15.2527 500.027 14.0732C498.786 12.8936 497.15 12.2191 495.437 12.1816H291.274C290.463 12.1839 289.661 12.3551 288.919 12.6842C288.178 13.0133 287.513 13.4932 286.967 14.0932C286.422 14.6932 286.007 15.4001 285.751 16.169C285.494 16.9378 285.4 17.7516 285.476 18.5586L286.035 26.8611L292.909 128.627C293.03 130.337 293.787 131.94 295.03 133.122C296.273 134.304 297.913 134.98 299.629 135.018H503.736C504.552 135.019 505.359 134.851 506.105 134.522C506.852 134.194 507.522 133.714 508.072 133.112C508.621 132.511 509.039 131.801 509.298 131.028C509.558 130.256 509.652 129.438 509.576 128.627L502.702 26.8611Z" fill="#B4BEC8"/>
</g>
<path d="M504.826 24.7681H288.075L294.949 126.534C295.07 128.244 295.827 129.847 297.07 131.029C298.313 132.211 299.953 132.887 301.669 132.925H505.832C506.648 132.926 507.455 132.758 508.201 132.429C508.948 132.101 509.617 131.621 510.167 131.019C510.717 130.418 511.135 129.708 511.394 128.935C511.653 128.163 511.748 127.345 511.672 126.534L504.826 24.7681Z" fill="#FFF3EE"/>
<path d="M497.533 10.0885H293.37C292.554 10.083 291.745 10.2484 290.997 10.5741C290.249 10.8998 289.577 11.3785 289.026 11.9794C288.474 12.5802 288.055 13.2899 287.795 14.0626C287.535 14.8353 287.44 15.6538 287.516 16.4654L288.075 24.768H504.826L504.267 16.4654C504.146 14.7591 503.391 13.1596 502.15 11.98C500.91 10.8005 499.273 10.1259 497.561 10.0885" fill="#2B79EE"/>
<path d="M371.218 34.8846H302.759C302.396 34.8757 302.035 34.943 301.699 35.082C301.364 35.221 301.061 35.4287 300.811 35.6916C300.561 35.9546 300.369 36.267 300.247 36.6086C300.125 36.9503 300.077 37.3137 300.104 37.6753C300.183 38.4366 300.54 39.1421 301.107 39.657C301.674 40.1718 302.411 40.4599 303.178 40.4661H371.637C372 40.4749 372.361 40.4077 372.697 40.2687C373.032 40.1297 373.335 39.922 373.585 39.6591C373.835 39.3961 374.027 39.0837 374.149 38.742C374.271 38.4004 374.319 38.037 374.292 37.6753C374.216 36.9152 373.862 36.2099 373.297 35.6948C372.732 35.1797 371.997 34.8911 371.232 34.8846" fill="#AFCDFB"/>
<path d="M449.527 34.8845H381.068C380.704 34.8759 380.343 34.9431 380.007 35.082C379.671 35.2209 379.367 35.4283 379.116 35.691C378.865 35.9537 378.672 36.2659 378.548 36.6076C378.425 36.9493 378.374 37.3129 378.399 37.6753C378.479 38.439 378.838 39.1464 379.408 39.6616C379.978 40.1768 380.718 40.4633 381.487 40.4661H449.947C450.31 40.4749 450.671 40.4077 451.006 40.2687C451.341 40.1297 451.644 39.922 451.894 39.659C452.144 39.3961 452.336 39.0837 452.458 38.742C452.58 38.4003 452.629 38.037 452.601 37.6753C452.525 36.9152 452.171 36.2099 451.606 35.6948C451.042 35.1796 450.306 34.8911 449.541 34.8845" fill="#FF6C37"/>
<path d="M405.308 44.6521H303.513C303.15 44.6433 302.789 44.7105 302.454 44.8496C302.118 44.9886 301.816 45.1962 301.566 45.4592C301.316 45.7221 301.123 46.0345 301.002 46.3762C300.88 46.7179 300.831 47.0813 300.859 47.4429C300.931 48.2042 301.285 48.9113 301.85 49.427C302.415 49.9428 303.153 50.2302 303.918 50.2337H405.713C406.076 50.2425 406.437 50.1753 406.773 50.0363C407.108 49.8973 407.411 49.6896 407.661 49.4266C407.911 49.1637 408.103 48.8513 408.225 48.5096C408.347 48.1679 408.395 47.8046 408.368 47.4429C408.295 46.6816 407.942 45.9745 407.376 45.4588C406.811 44.9431 406.074 44.6556 405.308 44.6521Z" fill="#407BFF"/>
<path d="M447.977 54.4202H304.226C303.863 54.4114 303.502 54.4786 303.166 54.6176C302.831 54.7566 302.528 54.9643 302.278 55.2273C302.028 55.4902 301.836 55.8026 301.714 56.1443C301.592 56.486 301.544 56.8493 301.571 57.211C301.644 57.9723 301.997 58.6794 302.563 59.1951C303.128 59.7108 303.865 59.9983 304.631 60.0018H448.382C448.745 60.0106 449.106 59.9433 449.441 59.8043C449.777 59.6653 450.079 59.4577 450.329 59.1947C450.579 58.9318 450.771 58.6194 450.893 58.2777C451.015 57.936 451.064 57.5726 451.036 57.211C450.964 56.4497 450.61 55.7426 450.045 55.2268C449.479 54.7111 448.742 54.4237 447.977 54.4202Z" fill="#FF6C37"/>
<path d="M409.597 64.1038H304.938C304.575 64.095 304.214 64.1622 303.879 64.3012C303.544 64.4402 303.241 64.6479 302.991 64.9108C302.741 65.1738 302.549 65.4862 302.427 65.8279C302.305 66.1695 302.256 66.5329 302.284 66.8946C302.359 67.6547 302.714 68.36 303.278 68.8751C303.843 69.3902 304.579 69.6788 305.343 69.6853H410.003C410.366 69.6942 410.727 69.6269 411.062 69.4879C411.397 69.3489 411.7 69.1412 411.95 68.8783C412.2 68.6154 412.392 68.303 412.514 67.9613C412.636 67.6196 412.685 67.2562 412.657 66.8946C412.581 66.1345 412.227 65.4291 411.662 64.914C411.098 64.3989 410.362 64.1104 409.597 64.1038Z" fill="#AFCDFB"/>
<path d="M470.876 73.8719H305.651C305.288 73.863 304.927 73.9303 304.591 74.0693C304.256 74.2083 303.954 74.416 303.703 74.6789C303.453 74.9419 303.261 75.2543 303.139 75.5959C303.018 75.9376 302.969 76.301 302.996 76.6626C303.072 77.4227 303.426 78.1281 303.991 78.6432C304.556 79.1583 305.291 79.4469 306.056 79.4534H471.295C471.658 79.4623 472.019 79.395 472.354 79.256C472.69 79.117 472.992 78.9093 473.242 78.6464C473.492 78.3834 473.684 78.071 473.806 77.7293C473.928 77.3877 473.977 77.0243 473.949 76.6626C473.874 75.9025 473.519 75.1972 472.955 74.6821C472.39 74.167 471.654 73.8784 470.89 73.8719" fill="#FF6C37"/>
<path d="M451.553 83.6394H306.433C306.07 83.6306 305.709 83.6979 305.374 83.8369C305.038 83.9759 304.736 84.1835 304.486 84.4465C304.236 84.7094 304.043 85.0218 303.922 85.3635C303.8 85.7052 303.751 86.0686 303.779 86.4302C303.854 87.1903 304.209 87.8957 304.773 88.4108C305.338 88.9259 306.073 89.2144 306.838 89.221H451.958C452.321 89.2298 452.682 89.1626 453.018 89.0236C453.353 88.8846 453.656 88.6769 453.906 88.4139C454.156 88.151 454.348 87.8386 454.47 87.4969C454.592 87.1552 454.64 86.7919 454.613 86.4302C454.537 85.6701 454.183 84.9648 453.618 84.4497C453.053 83.9346 452.318 83.646 451.553 83.6394Z" fill="#FF6C37"/>
<path d="M421.752 93.407H307.076C306.713 93.3982 306.352 93.4654 306.016 93.6044C305.681 93.7434 305.379 93.9511 305.128 94.2141C304.878 94.477 304.686 94.7894 304.564 95.1311C304.443 95.4728 304.394 95.8361 304.421 96.1978C304.497 96.9579 304.851 97.6632 305.416 98.1784C305.981 98.6935 306.716 98.982 307.481 98.9886H422.158C422.521 98.9974 422.882 98.9302 423.217 98.7912C423.552 98.6521 423.855 98.4445 424.105 98.1815C424.355 97.9186 424.547 97.6062 424.669 97.2645C424.791 96.9228 424.84 96.5594 424.812 96.1978C424.743 95.4353 424.39 94.7264 423.824 94.21C423.258 93.6937 422.519 93.4073 421.752 93.407Z" fill="#407BFF"/>
<path d="M436.772 103.161H307.83C307.467 103.152 307.106 103.219 306.771 103.358C306.435 103.497 306.133 103.705 305.883 103.968C305.633 104.231 305.441 104.543 305.319 104.885C305.197 105.227 305.148 105.59 305.176 105.952C305.252 106.714 305.608 107.421 306.176 107.937C306.743 108.452 307.482 108.739 308.249 108.742H437.219C437.582 108.751 437.943 108.684 438.278 108.545C438.613 108.406 438.916 108.198 439.166 107.935C439.416 107.672 439.608 107.36 439.73 107.018C439.852 106.677 439.901 106.313 439.873 105.952C439.8 105.19 439.447 104.483 438.882 103.968C438.316 103.452 437.579 103.164 436.814 103.161" fill="#407BFF"/>
<path d="M473.726 112.915H308.501C308.138 112.908 307.779 112.977 307.444 113.116C307.11 113.256 306.808 113.464 306.558 113.726C306.309 113.989 306.117 114.3 305.994 114.641C305.871 114.982 305.821 115.344 305.846 115.705C305.925 116.467 306.282 117.172 306.85 117.687C307.417 118.202 308.154 118.49 308.92 118.496H474.089C474.452 118.505 474.813 118.438 475.148 118.299C475.484 118.16 475.786 117.952 476.036 117.689C476.287 117.426 476.479 117.114 476.6 116.772C476.722 116.43 476.771 116.067 476.744 115.705C476.668 114.945 476.314 114.24 475.749 113.725C475.184 113.21 474.449 112.921 473.684 112.915" fill="#AFCDFB"/>
<path d="M298.623 14.6099C298.267 14.6106 297.914 14.6851 297.587 14.8285C297.261 14.972 296.968 15.1814 296.726 15.4435C296.485 15.7057 296.3 16.0149 296.184 16.3517C296.068 16.6885 296.024 17.0456 296.052 17.4006C296.108 18.1488 296.441 18.8494 296.986 19.3655C297.531 19.8816 298.249 20.1761 299 20.1914C299.358 20.1926 299.712 20.1196 300.04 19.9769C300.369 19.8343 300.663 19.6252 300.906 19.3629C301.149 19.1005 301.335 18.7907 301.452 18.4529C301.569 18.1151 301.614 17.7568 301.585 17.4006C301.523 16.6524 301.187 15.9534 300.64 15.4382C300.093 14.923 299.375 14.628 298.623 14.6099Z" fill="white"/>
<path d="M308.585 14.6099C308.228 14.6106 307.875 14.6851 307.549 14.8285C307.223 14.972 306.929 15.1814 306.688 15.4435C306.447 15.7057 306.262 16.0149 306.146 16.3517C306.03 16.6885 305.985 17.0456 306.014 17.4006C306.073 18.15 306.409 18.8508 306.956 19.3666C307.503 19.8824 308.223 20.1764 308.976 20.1914C309.333 20.1928 309.687 20.1197 310.014 19.977C310.342 19.8342 310.636 19.6249 310.878 19.3623C311.119 19.0997 311.304 18.7896 311.419 18.4519C311.534 18.1141 311.578 17.7561 311.547 17.4006C311.488 16.6513 311.152 15.9505 310.605 15.4347C310.057 14.9189 309.337 14.6249 308.585 14.6099Z" fill="white"/>
<path d="M318.56 14.6099C318.202 14.6087 317.848 14.6817 317.52 14.8244C317.192 14.967 316.897 15.1761 316.654 15.4384C316.411 15.7007 316.226 16.0106 316.109 16.3484C315.992 16.6862 315.947 17.0445 315.976 17.4007C316.037 18.1489 316.374 18.8479 316.921 19.3631C317.468 19.8783 318.186 20.1733 318.937 20.1914C319.295 20.1926 319.649 20.1196 319.978 19.977C320.306 19.8343 320.6 19.6252 320.843 19.3629C321.086 19.1006 321.272 18.7907 321.389 18.4529C321.506 18.1152 321.551 17.7568 321.522 17.4007C321.457 16.6535 321.12 15.9563 320.574 15.4417C320.027 14.9271 319.311 14.631 318.56 14.6099Z" fill="white"/>
<g style="mix-blend-mode:multiply">
<path d="M564.735 24.517C564.635 23.0906 564.008 21.7522 562.975 20.7619C561.942 19.7717 560.578 19.2003 559.147 19.1587H470.331C469.646 19.1557 468.968 19.2959 468.341 19.5703C467.714 19.8448 467.151 20.2473 466.689 20.7521C466.227 21.2568 465.876 21.8526 465.659 22.501C465.442 23.1495 465.362 23.8362 465.427 24.517L467.103 48.8386C467.203 50.2651 467.831 51.6035 468.863 52.5937C469.896 53.584 471.261 54.1554 472.692 54.1969H561.466C562.149 54.198 562.825 54.0564 563.451 53.7811C564.076 53.5058 564.637 53.103 565.098 52.5984C565.558 52.0939 565.908 51.4988 566.125 50.8513C566.341 50.2039 566.42 49.5183 566.356 48.8386L564.735 24.517Z" fill="#B4BEC8"/>
<path d="M526.593 58.7461H437.764C437.08 58.7433 436.404 58.8831 435.778 59.1567C435.151 59.4303 434.59 59.8315 434.128 60.3347C433.666 60.838 433.315 61.432 433.096 62.0788C432.878 62.7255 432.797 63.4107 432.86 64.0905L434.508 88.3842C434.608 89.8092 435.236 91.146 436.269 92.134C437.303 93.122 438.667 93.6904 440.097 93.7285H528.871C529.553 93.7315 530.229 93.5917 530.855 93.318C531.48 93.0443 532.042 92.6428 532.502 92.1393C532.963 91.6358 533.313 91.0416 533.53 90.3948C533.746 89.7481 533.825 89.0631 533.761 88.3842L532.126 64.0905C532.027 62.6747 531.407 61.3456 530.386 60.3589C529.364 59.3722 528.013 58.7978 526.593 58.7461Z" fill="#B4BEC8"/>
</g>
<path d="M561.2 17.0655H472.426C471.742 17.0624 471.064 17.2027 470.437 17.4771C469.81 17.7515 469.247 18.154 468.785 18.6588C468.323 19.1636 467.972 19.7593 467.755 20.4078C467.537 21.0562 467.458 21.743 467.523 22.4238L469.171 46.7035C469.271 48.13 469.898 49.4683 470.931 50.4586C471.964 51.4489 473.329 52.0203 474.76 52.0618H563.533C564.217 52.0629 564.893 51.9213 565.519 51.646C566.144 51.3707 566.705 50.9679 567.166 50.4633C567.626 49.9588 567.976 49.3637 568.192 48.7162C568.409 48.0687 568.488 47.3832 568.423 46.7035L566.789 22.4238C566.689 20.9974 566.062 19.6589 565.029 18.6687C563.996 17.6784 562.631 17.107 561.2 17.0655Z" fill="#FF6C37"/>
<path d="M497.379 25.5913L484.805 31.2984L485.057 35.1079L498.399 40.815L498.092 36.3079L489.835 33.2101L497.673 30.0984L497.379 25.5913Z" fill="white"/>
<path d="M503.429 38.3032C503.074 38.3057 502.723 38.3816 502.399 38.5261C502.075 38.6706 501.785 38.8805 501.546 39.1426C501.307 39.4048 501.125 39.7135 501.011 40.0494C500.898 40.3852 500.855 40.7409 500.886 41.094C500.941 41.8375 501.27 42.5343 501.809 43.0497C502.349 43.5651 503.06 43.8626 503.806 43.8848C504.162 43.8844 504.513 43.8099 504.838 43.6661C505.163 43.5224 505.455 43.3125 505.694 43.0499C505.933 42.7872 506.115 42.4777 506.228 42.1409C506.341 41.8041 506.382 41.4476 506.349 41.094C506.294 40.3505 505.965 39.6537 505.426 39.1383C504.886 38.6229 504.175 38.3254 503.429 38.3032Z" fill="white"/>
<path d="M511.462 38.3032C511.107 38.3036 510.755 38.3781 510.43 38.5218C510.105 38.6656 509.814 38.8755 509.574 39.1381C509.335 39.4008 509.153 39.7103 509.04 40.0471C508.928 40.3839 508.887 40.7404 508.92 41.094C508.971 41.8386 509.299 42.5371 509.839 43.0532C510.379 43.5692 511.092 43.8657 511.84 43.8848C512.195 43.8844 512.547 43.8099 512.872 43.6661C513.197 43.5224 513.488 43.3125 513.728 43.0499C513.967 42.7872 514.149 42.4777 514.261 42.1409C514.374 41.8041 514.415 41.4476 514.382 41.094C514.327 40.3505 513.998 39.6537 513.459 39.1383C512.92 38.6229 512.208 38.3254 511.462 38.3032Z" fill="white"/>
<path d="M519.524 38.3032C519.168 38.3036 518.817 38.3781 518.492 38.5218C518.167 38.6656 517.875 38.8755 517.636 39.1381C517.396 39.4008 517.215 39.7103 517.102 40.0471C516.989 40.3839 516.948 40.7404 516.981 41.094C517.033 41.8386 517.361 42.5371 517.901 43.0532C518.441 43.5692 519.154 43.8657 519.901 43.8848C520.257 43.8844 520.608 43.8099 520.933 43.6661C521.258 43.5224 521.55 43.3125 521.789 43.0499C522.028 42.7872 522.21 42.4777 522.323 42.1409C522.436 41.8041 522.477 41.4476 522.444 41.094C522.389 40.3505 522.06 39.6537 521.521 39.1383C520.981 38.6229 520.27 38.3254 519.524 38.3032Z" fill="white"/>
<path d="M536.429 20.0376H534.697L524.973 46.3825H526.691L536.429 20.0376Z" fill="white"/>
<path d="M538.804 25.5913L539.112 30.0984L547.383 33.2101L539.531 36.3079L539.838 40.815L552.398 35.1079L552.147 31.2984L538.804 25.5913Z" fill="white"/>
<path d="M528.689 56.6529H439.915C439.232 56.65 438.555 56.7899 437.929 57.0634C437.303 57.337 436.741 57.7383 436.279 58.2415C435.818 58.7447 435.466 59.3387 435.248 59.9855C435.03 60.6323 434.949 61.3175 435.011 61.9972L436.66 86.2909C436.76 87.716 437.388 89.0527 438.421 90.0407C439.454 91.0287 440.819 91.5971 442.248 91.6352H531.022C531.705 91.6383 532.381 91.4984 533.007 91.2247C533.632 90.951 534.193 90.5495 534.654 90.046C535.114 89.5426 535.464 88.9483 535.681 88.3016C535.898 87.6548 535.977 86.9699 535.912 86.2909L534.278 61.9972C534.177 60.5721 533.55 59.2354 532.516 58.2474C531.483 57.2594 530.119 56.691 528.689 56.6529Z" fill="#2B79EE"/>
<path d="M471.449 64.9834H467.69L468.123 71.3882H462.968L462.535 64.9834H458.763L459.894 81.7141H463.666L463.205 75.0581H468.375L468.822 81.7141H472.58L471.449 64.9834Z" fill="white"/>
<path d="M485.308 64.9834H473.097L473.349 68.6533H477.568L478.448 81.7141H482.206L481.326 68.6533H485.56L485.308 64.9834Z" fill="white"/>
<path d="M503.401 64.9834H499.643L495.689 72.4208L490.715 64.9834H486.957L488.088 81.7141H491.847L491.19 71.9882L495.912 79.0768H496.331L500.104 71.9882L500.774 81.7141H504.533L503.401 64.9834Z" fill="white"/>
<path d="M509.967 64.9834H506.223L507.341 81.7141H516.981L516.73 78.0303H510.862L509.967 64.9834Z" fill="white"/>
<g style="mix-blend-mode:multiply">
<path d="M261.865 167.251C261.778 165.968 261.213 164.765 260.283 163.876C259.352 162.988 258.122 162.48 256.835 162.451H177.198C176.585 162.449 175.977 162.574 175.415 162.82C174.853 163.066 174.348 163.426 173.934 163.878C173.519 164.33 173.204 164.864 173.009 165.445C172.813 166.026 172.741 166.641 172.797 167.251L174.195 189.047C174.288 190.333 174.858 191.537 175.794 192.424C176.729 193.312 177.962 193.82 179.252 193.847H258.889C259.502 193.85 260.11 193.724 260.672 193.479C261.234 193.233 261.739 192.872 262.153 192.42C262.568 191.968 262.883 191.435 263.079 190.854C263.274 190.273 263.346 189.658 263.29 189.047L261.865 167.251Z" fill="#B4BEC8"/>
</g>
<path d="M258.931 160.358H179.294C178.68 160.355 178.073 160.481 177.511 160.727C176.949 160.972 176.444 161.333 176.03 161.785C175.615 162.237 175.3 162.771 175.104 163.351C174.908 163.932 174.837 164.548 174.893 165.158L176.29 186.954C176.384 188.239 176.954 189.443 177.889 190.331C178.825 191.219 180.058 191.726 181.348 191.754H260.984C261.598 191.757 262.206 191.631 262.768 191.385C263.33 191.14 263.834 190.779 264.249 190.327C264.663 189.875 264.979 189.342 265.174 188.761C265.37 188.18 265.442 187.564 265.385 186.954L263.904 165.158C263.818 163.875 263.253 162.671 262.322 161.783C261.392 160.895 260.162 160.386 258.875 160.358" fill="#FF6C37"/>
<path d="M202.78 167.265H199.203L199.958 177.633C200.028 178.568 199.622 179.447 198.044 179.447C197.575 179.479 197.106 179.372 196.699 179.138C196.291 178.905 195.961 178.556 195.752 178.135L192.762 179.879C193.328 180.842 194.15 181.628 195.137 182.15C196.123 182.673 197.236 182.911 198.351 182.838C201.578 182.838 203.856 180.982 203.604 177.633L202.85 167.265" fill="white"/>
<path d="M210.031 176.865L211.428 171.284L213.664 176.865H210.031ZM213.44 167.265H208.885L204.694 182.545H208.634L209.235 180.145H215.047L216.011 182.545H219.937L213.482 167.265" fill="white"/>
<path d="M232.665 167.265H228.753L226.112 178.498L221.809 167.265H217.897L224.114 182.531H228.683L232.665 167.265Z" fill="white"/>
<path d="M238.239 176.865L239.636 171.284L241.872 176.865H238.197M241.62 167.265H237.052L232.86 182.545H236.786L237.387 180.145H243.199L244.163 182.545H248.075L241.634 167.265" fill="white"/>
<path d="M169.584 110.766H80.8101C80.1261 110.761 79.4486 110.899 78.8215 111.172C78.1943 111.445 77.6315 111.846 77.1693 112.35C76.7071 112.853 76.3559 113.448 76.1383 114.096C75.9208 114.744 75.8417 115.43 75.9062 116.11L77.5408 140.404C77.641 141.829 78.2688 143.166 79.302 144.154C80.3351 145.142 81.6995 145.71 83.1294 145.748H171.903C172.587 145.751 173.263 145.611 173.889 145.338C174.515 145.064 175.077 144.663 175.539 144.16C176.001 143.656 176.352 143.062 176.57 142.415C176.789 141.769 176.869 141.083 176.807 140.404L175.158 116.11C175.058 114.685 174.431 113.348 173.397 112.36C172.364 111.372 171 110.804 169.57 110.766" fill="#2B79EE"/>
<path d="M111.338 116.473C109.947 116.397 108.557 116.623 107.263 117.135C105.969 117.648 104.801 118.435 103.841 119.442C102.881 120.448 102.151 121.651 101.701 122.967C101.251 124.283 101.093 125.681 101.236 127.064C101.447 129.986 102.774 132.717 104.942 134.69C107.111 136.664 109.955 137.73 112.888 137.669C114.618 137.733 116.332 137.329 117.85 136.498C119.368 135.668 120.632 134.443 121.509 132.952L117.205 130.622C116.744 131.434 116.063 132.099 115.24 132.541C114.417 132.983 113.485 133.184 112.553 133.12C111.723 133.161 110.893 133.036 110.113 132.752C109.332 132.469 108.616 132.032 108.007 131.467C107.397 130.903 106.907 130.223 106.565 129.467C106.223 128.71 106.036 127.893 106.014 127.064C105.892 126.282 105.949 125.482 106.179 124.725C106.41 123.967 106.809 123.271 107.346 122.689C107.883 122.107 108.545 121.654 109.282 121.363C110.019 121.071 110.812 120.95 111.603 121.008C112.584 120.978 113.557 121.191 114.435 121.63C115.313 122.068 116.068 122.718 116.633 123.52L120.587 121.189C119.523 119.72 118.124 118.526 116.506 117.705C114.888 116.885 113.097 116.463 111.282 116.473" fill="white"/>
<path d="M131.792 120.366H127.6L127.949 125.027H123.171L123.465 129.101H128.243L128.592 133.762H132.77L132.42 129.101H137.198L136.905 125.027H132.127L131.792 120.366Z" fill="white"/>
<path d="M148.515 120.366H144.338L144.673 125.027H139.895L140.188 129.101H144.966L145.316 133.762H149.493L149.144 129.101H153.922L153.629 125.027H148.851L148.515 120.366Z" fill="white"/>
<path d="M64.771 274.906H58.1906V305.535H64.771V274.906Z" fill="#B4BEC8"/>
<path d="M34.7886 312.037L60.6914 309.163V303.679L31.631 308.87C30.9775 308.985 30.3867 309.33 29.9643 309.841C29.5419 310.353 29.3155 310.997 29.3258 311.66V314.256H34.7886V312.037Z" fill="#B4BEC8"/>
<path d="M86.5943 312.037L60.6914 309.163V303.679L89.7657 308.87C90.4167 308.988 91.0043 309.334 91.4239 309.845C91.8435 310.356 92.0678 311 92.057 311.66V314.256H86.5943V312.037Z" fill="#B4BEC8"/>
<path d="M31.8965 320.925C34.2037 320.925 36.074 319.058 36.074 316.753C36.074 314.449 34.2037 312.581 31.8965 312.581C29.5894 312.581 27.7191 314.449 27.7191 316.753C27.7191 319.058 29.5894 320.925 31.8965 320.925Z" fill="#353638"/>
<path d="M89.5143 320.925C91.8215 320.925 93.6918 319.058 93.6918 316.753C93.6918 314.449 91.8215 312.581 89.5143 312.581C87.2072 312.581 85.3369 314.449 85.3369 316.753C85.3369 319.058 87.2072 320.925 89.5143 320.925Z" fill="#353638"/>
<path d="M114.09 320.353L140.803 229.569H136.137L111.114 320.353H114.09Z" fill="#B4BEC8"/>
<path d="M65.0644 256.654H57.8971C56.8014 256.654 55.9132 257.541 55.9132 258.635V273.998C55.9132 275.093 56.8014 275.98 57.8971 275.98H65.0644C66.1601 275.98 67.0484 275.093 67.0484 273.998V258.635C67.0484 257.541 66.1601 256.654 65.0644 256.654Z" fill="#353638"/>
<path d="M53.8874 194.154C47.9915 212.294 47.9915 231.369 53.8874 250.849H42.5426C36.9541 231.467 36.4232 212.49 42.5426 194.015H53.8874V194.154Z" fill="#CFD3E6"/>
<path d="M43.7722 250.849C37.8623 231.313 37.8763 212.211 43.7722 194.015H42.5147C36.6608 212.238 36.6468 231.341 42.5147 250.849H43.7722Z" fill="#B4BEC8"/>
<path d="M53.8874 194.154C47.9915 212.294 47.9915 231.369 53.8874 250.849H52.6439C46.8039 231.313 46.8179 212.238 52.6439 194.015H53.9014L53.8874 194.154Z" fill="#CFD3E6"/>
<g style="mix-blend-mode:multiply">
<path d="M40.419 201.578C40.1955 202.568 39.972 203.545 39.7764 204.536H51.177C51.3726 203.545 51.5961 202.554 51.8336 201.578H40.419Z" fill="#CFD3E6"/>
</g>
<path d="M67.7888 175.065H34.9702C32.1461 175.065 29.8567 177.352 29.8567 180.173V196.471C29.8567 199.291 32.1461 201.578 34.9702 201.578H67.7888C70.613 201.578 72.9024 199.291 72.9024 196.471V180.173C72.9024 177.352 70.613 175.065 67.7888 175.065Z" fill="#353638"/>
<path d="M39.5529 254.212H96.011V259.793H41.8162C41.2196 259.793 40.6475 259.557 40.2257 259.135C39.8038 258.714 39.5668 258.143 39.5668 257.547V254.226L39.5529 254.212Z" fill="#B4BEC8"/>
<path d="M37.5829 254.226H101.935C102.52 254.226 103.082 253.993 103.496 253.58C103.91 253.166 104.142 252.606 104.142 252.021C104.148 251.728 104.095 251.437 103.986 251.164C103.878 250.892 103.716 250.644 103.511 250.435C103.305 250.226 103.06 250.06 102.789 249.946C102.519 249.833 102.228 249.774 101.935 249.774H37.5829C37.2901 249.774 37.0002 249.833 36.7304 249.946C36.4605 250.06 36.2162 250.226 36.0117 250.436C35.8073 250.645 35.6469 250.893 35.54 251.165C35.4331 251.438 35.3819 251.729 35.3894 252.021C35.3894 252.603 35.62 253.162 36.031 253.575C36.442 253.988 36.9998 254.222 37.5829 254.226Z" fill="#353638"/>
<path d="M132.937 303.051L136.947 307.446C136.947 307.446 149.116 313.307 149.633 314.339C149.763 314.66 149.82 315.006 149.799 315.352C149.779 315.698 149.681 316.035 149.514 316.338C149.347 316.642 149.114 316.904 148.832 317.106C148.551 317.308 148.228 317.445 147.887 317.507C146.196 318.023 128.508 316.921 124.233 316.474C123.803 316.43 123.4 316.243 123.087 315.944C122.853 315.725 122.676 315.45 122.574 315.146C122.471 314.842 122.446 314.516 122.501 314.2L124.024 304.502L132.937 303.051Z" fill="#353638"/>
<path d="M80.4469 232.472C80.4469 232.472 103.961 241.514 115.473 249.342C122.612 254.212 132.63 299.381 132.63 299.381L122.431 301.474C122.431 301.474 106.643 271.626 105.008 260.31L64.7291 246.035L80.4469 232.472Z" fill="#3C66B7"/>
<path d="M47.8379 241.262C47.8379 241.262 48.7321 251.03 65.8469 256.612C81.4948 261.747 94.069 264.412 94.069 264.412C94.069 264.412 93.7337 264.845 93.4683 275.882C93.4606 283.577 94.1291 291.258 95.4662 298.836L105.064 298.711C105.064 298.711 110.415 278.854 110.946 267.803C111.477 256.751 111.324 257.323 107.062 254.128C102.801 250.933 77.8902 237.648 77.8902 237.648L47.8379 241.262Z" fill="#2B79EE"/>
<path d="M62.5915 252.844C71.0021 252.844 77.8203 246.035 77.8203 237.635C77.8203 229.234 71.0021 222.425 62.5915 222.425C54.1809 222.425 47.3628 229.234 47.3628 237.635C47.3628 246.035 54.1809 252.844 62.5915 252.844Z" fill="#2B79EE"/>
<path d="M90.7856 209.155L92.2806 216.62L82.8918 218.448L80.3351 211.373L90.7856 209.155Z" fill="#EF8C78"/>
<path d="M76.1018 187.456C76.4372 186.767 76.9251 186.164 77.5285 185.691C78.1319 185.218 78.8351 184.889 79.5848 184.728C80.3345 184.566 81.1111 184.577 81.8559 184.76C82.6007 184.943 83.2942 185.292 83.8838 185.782C89.5422 189.717 91.596 210.048 91.596 210.048L78.3093 212.448C78.3093 212.448 75.1378 201.005 74.5929 196.847C74.0153 193.637 74.5474 190.325 76.1018 187.456Z" fill="#FF5B20"/>
<path d="M91.4144 215.504L116.423 213.494L116.688 218.908C116.688 218.908 92.4343 224.155 88.6061 224.741C84.778 225.327 82.8918 218.448 82.8918 218.448L91.4144 215.504Z" fill="#EF8C78"/>
<path d="M116.423 213.494L126.343 214.89L126.133 220.192C122.924 220.673 119.644 220.217 116.689 218.88L116.423 213.494Z" fill="#EF8C78"/>
<path d="M125.784 220.15L128.578 220.527C129.288 221.192 130.152 221.672 131.093 221.922C132.183 222.02 132.281 221.057 131.764 220.722C131.247 220.387 129.416 219.076 129.416 219.076L125.546 218.085L125.784 220.15Z" fill="#EFA181"/>
<path d="M125.253 216.62L128.243 216.885L131.219 217.681C131.219 217.681 132.979 219.076 133.594 219.467C134.209 219.857 133.72 220.862 132.574 220.416C131.861 220.15 131.184 219.793 130.562 219.355L127.963 218.602L124.499 218.322L125.253 216.62Z" fill="#EFA181"/>
<path d="M125.826 214.89L128.83 215.043L131.82 215.741C131.82 215.741 133.859 217.373 134.488 217.764C135.117 218.155 134.614 219.048 133.454 218.657C132.715 218.403 132.028 218.015 131.428 217.513L128.634 216.787L125.085 216.62L125.826 214.89Z" fill="#EFA181"/>
<path d="M72.4273 183.8C68.6316 183.653 64.8678 184.546 61.5437 186.382C54.9632 189.717 48.5503 221.936 47.8657 229.011C47.8657 229.011 49.5283 235.988 64.3239 238.067C77.0518 239.811 84.1074 232.751 84.1074 232.751C84.1074 232.751 88.2987 216.006 89.0392 207.006C89.8496 196.331 87.1671 184.833 82.2771 184.568L72.4273 183.8Z" fill="#FF6C37"/>
<path d="M73.1119 183.703C72.0524 183.628 70.9877 183.679 69.9405 183.856C69.7376 184.517 69.634 185.203 69.6331 185.894C69.5922 186.778 69.7312 187.661 70.0417 188.489C70.3522 189.318 70.8277 190.075 71.4396 190.715C72.0514 191.355 72.7868 191.865 73.6014 192.213C74.4159 192.561 75.2927 192.74 76.1786 192.74C77.0646 192.74 77.9414 192.561 78.7559 192.213C79.5705 191.865 80.3059 191.355 80.9177 190.715C81.5296 190.075 82.0051 189.318 82.3156 188.489C82.6261 187.661 82.7651 186.778 82.7242 185.894C82.7191 185.425 82.6723 184.958 82.5845 184.498H82.1933L73.1119 183.703Z" fill="#EFA181"/>
<path d="M92.6718 165.716V176.307C92.6718 181.498 89.3886 183.605 83.9817 183.605H73.3215V165.716H92.6718Z" fill="#EFA181"/>
<path d="M70.4574 189.131H81.0337L83.9118 180.326H73.3215L70.4574 189.131Z" fill="#EFA181"/>
<path d="M92.5601 168.019C93.833 166.569 94.4984 164.685 94.4183 162.758C94.4183 159.256 88.69 157.177 83.7162 156.925C80.7631 156.791 77.8503 157.651 75.4452 159.367C74.5929 159.179 73.7036 159.25 72.8919 159.571C72.0802 159.891 71.3831 160.448 70.8906 161.167C69.0883 163.707 68.6552 173.656 73.3216 180.326L77.2196 176.6C77.2196 176.6 74.2018 175.958 74.2716 173.74C74.3415 171.521 75.6688 170.796 77.3034 171.437L78.4071 174.605C78.8859 172.984 78.9815 171.274 78.6866 169.609C78.3948 168.335 77.9686 167.096 77.4152 165.912C77.7463 166.494 78.2291 166.976 78.8123 167.307C83.2525 168.748 87.9946 168.993 92.5601 168.019Z" fill="#353638"/>
<path d="M81.8859 186.536L82.808 183.619C80.6214 183.196 78.6476 182.033 77.2195 180.326C77.2195 180.326 78.0438 185.015 81.8859 186.536Z" fill="#E66E62"/>
<path d="M74.9282 211.987L76.5768 219.411L67.23 221.434L64.5195 214.429L74.9282 211.987Z" fill="#EFA181"/>
<path d="M59.7833 190.596C60.1053 189.902 60.5809 189.29 61.1742 188.806C61.7676 188.322 62.4632 187.98 63.2086 187.804C63.954 187.627 64.7297 187.623 65.4772 187.79C66.2246 187.957 66.9243 188.291 67.5234 188.768C73.2656 192.578 75.7525 212.866 75.7525 212.866L62.5217 215.546C62.5217 215.546 59.0987 204.173 58.47 200.029C57.8228 196.827 58.286 193.5 59.7833 190.596Z" fill="#FF5B20"/>
<path d="M75.6826 218.322L100.677 215.811L101.069 221.211C101.069 221.211 76.9121 226.974 73.1259 227.643C69.3397 228.313 67.23 221.448 67.23 221.448L75.6826 218.322Z" fill="#EFA181"/>
<path d="M100.677 215.811L110.625 217.025L110.527 222.313C107.334 222.871 104.047 222.488 101.069 221.211L100.677 215.811Z" fill="#EFA181"/>
<path d="M110.15 222.23L112.944 222.55C113.661 223.222 114.535 223.702 115.487 223.946C116.591 224.016 116.661 223.053 116.144 222.732C115.627 222.411 113.782 221.155 113.782 221.155L109.898 220.248L110.15 222.23Z" fill="#EFA181"/>
<path d="M109.549 218.699L112.539 218.909L115.529 219.634C115.529 219.634 117.331 221.029 117.946 221.378C118.561 221.727 118.1 222.774 116.94 222.355C116.225 222.102 115.544 221.76 114.914 221.336L112.302 220.625L108.837 220.471L109.549 218.699Z" fill="#EFA181"/>
<path d="M110.08 217.025L113.084 217.123L116.102 217.75C116.102 217.75 118.169 219.341 118.798 219.704C119.427 220.067 118.952 220.988 117.792 220.639C117.045 220.395 116.349 220.016 115.738 219.523L112.944 218.867L109.437 218.769L110.08 217.025Z" fill="#EFA181"/>
<path d="M103.011 226.709H166.72C167.047 226.705 167.36 226.573 167.59 226.34C167.82 226.108 167.949 225.794 167.949 225.467C167.949 225.141 167.82 224.829 167.589 224.598C167.359 224.368 167.046 224.239 166.72 224.239H103.011C102.848 224.237 102.687 224.267 102.536 224.328C102.385 224.389 102.248 224.479 102.132 224.594C102.017 224.708 101.925 224.844 101.862 224.994C101.799 225.144 101.767 225.304 101.767 225.467C101.767 225.796 101.898 226.112 102.131 226.345C102.365 226.578 102.681 226.709 103.011 226.709Z" fill="#2B79EE"/>
<path d="M166.133 224.658L119.609 224.225C119.429 224.242 119.249 224.216 119.082 224.148C118.915 224.081 118.767 223.974 118.65 223.837C118.534 223.7 118.452 223.537 118.412 223.361C118.372 223.186 118.375 223.004 118.421 222.83L123.716 196.192C123.802 195.799 124.018 195.447 124.331 195.193C124.643 194.94 125.032 194.8 125.435 194.796L171.973 195.243C172.152 195.226 172.333 195.252 172.5 195.32C172.667 195.387 172.815 195.494 172.931 195.631C173.048 195.768 173.13 195.931 173.17 196.107C173.21 196.282 173.206 196.464 173.161 196.638L167.852 223.276C167.766 223.668 167.548 224.018 167.236 224.269C166.923 224.52 166.534 224.657 166.133 224.658Z" fill="#CFD3E6"/>
<path d="M167.069 224.658L120.531 224.225C120.352 224.239 120.173 224.211 120.008 224.142C119.843 224.073 119.696 223.967 119.58 223.83C119.464 223.694 119.382 223.532 119.341 223.358C119.3 223.185 119.301 223.003 119.343 222.83L124.652 196.192C124.735 195.798 124.951 195.444 125.264 195.19C125.577 194.936 125.968 194.797 126.371 194.796L172.895 195.243C173.075 195.222 173.258 195.246 173.426 195.313C173.595 195.379 173.744 195.486 173.862 195.624C173.979 195.762 174.061 195.927 174.099 196.104C174.138 196.28 174.132 196.464 174.083 196.638L168.788 223.276C168.699 223.666 168.481 224.015 168.169 224.266C167.857 224.517 167.47 224.655 167.069 224.658Z" fill="#2B79EE"/>
<path d="M152.511 210.592C152.275 211.711 151.67 212.718 150.794 213.454C149.918 214.19 148.821 214.612 147.677 214.653C147.169 214.672 146.664 214.573 146.2 214.363C145.737 214.154 145.329 213.84 145.008 213.446C144.687 213.053 144.462 212.59 144.351 212.095C144.239 211.599 144.244 211.085 144.366 210.592C144.602 209.472 145.205 208.463 146.081 207.724C146.957 206.986 148.055 206.561 149.2 206.517C149.708 206.501 150.214 206.602 150.677 206.813C151.14 207.024 151.548 207.339 151.869 207.733C152.189 208.128 152.414 208.591 152.526 209.087C152.637 209.583 152.632 210.098 152.511 210.592Z" fill="white"/>
<path d="M103.849 300.441L107.621 311.605L110.625 318.372V320.256C110.625 320.256 109.074 321.316 103.639 321.651C97.5478 322 95.2565 319.6 95.2565 319.6L95.3403 311.884L96.7374 300.581L103.849 300.441Z" fill="#353638"/>
<path d="M105.442 301.432H95.2984L94.6278 296.939H106.042L105.442 301.432Z" fill="#3C66B7"/>
<path d="M134.181 302.967L122.892 305.311L121.229 301.069L133.943 298.432L134.181 302.967Z" fill="#3C66B7"/>
<path d="M71.9802 320.353L98.6934 229.569H94.041L69.0183 320.353H71.9802Z" fill="#B4BEC8"/>
<path d="M229.088 320.353L202.375 229.569H207.027L232.05 320.353H229.088Z" fill="#B4BEC8"/>
<path d="M192.427 320.353L165.714 229.569H170.366L195.389 320.353H192.427Z" fill="#B4BEC8"/>
<path d="M215.997 228.453C216.002 228.688 215.961 228.921 215.874 229.14C215.787 229.358 215.656 229.557 215.491 229.723C215.325 229.89 215.127 230.022 214.909 230.11C214.691 230.199 214.458 230.243 214.222 230.239H91.4005C91.1688 230.241 90.939 230.196 90.7246 230.109C90.5102 230.021 90.3154 229.892 90.1515 229.728C89.9877 229.564 89.8581 229.37 89.7703 229.156C89.6825 228.942 89.6382 228.712 89.6401 228.481C89.6401 228.25 89.6857 228.022 89.7743 227.81C89.863 227.597 89.9929 227.404 90.1565 227.242C90.3202 227.08 90.5143 226.952 90.7278 226.865C90.9413 226.778 91.1699 226.735 91.4005 226.736H214.222C214.453 226.735 214.682 226.778 214.895 226.865C215.109 226.952 215.303 227.08 215.466 227.242C215.63 227.404 215.76 227.597 215.849 227.81C215.937 228.022 215.983 228.25 215.983 228.481L215.997 228.453Z" fill="#353638"/>
<path d="M544.435 101.068H428.934C425.161 101.068 422.102 104.123 422.102 107.891V319.488C422.102 323.256 425.161 326.311 428.934 326.311H544.435C548.208 326.311 551.267 323.256 551.267 319.488V107.891C551.267 104.123 548.208 101.068 544.435 101.068Z" fill="black"/>
<path d="M546.754 116.417H426.601V302.087H546.754V116.417Z" fill="white"/>
<path d="M531.581 133.957H441.773C440.873 133.957 440.009 133.6 439.373 132.964C438.736 132.328 438.378 131.466 438.378 130.566C438.376 130.12 438.463 129.677 438.633 129.264C438.803 128.851 439.052 128.476 439.368 128.16C439.683 127.843 440.058 127.592 440.471 127.421C440.884 127.25 441.326 127.162 441.773 127.162H531.581C532.028 127.162 532.471 127.25 532.884 127.421C533.296 127.592 533.671 127.843 533.987 128.16C534.302 128.476 534.552 128.851 534.722 129.264C534.891 129.677 534.978 130.12 534.976 130.566C534.976 131.466 534.618 132.328 533.982 132.964C533.345 133.6 532.481 133.957 531.581 133.957Z" fill="white"/>
<path d="M507.383 144.409H441.717C441.27 144.409 440.828 144.321 440.415 144.149C440.002 143.978 439.627 143.727 439.312 143.411C438.996 143.094 438.747 142.719 438.577 142.306C438.407 141.893 438.321 141.451 438.322 141.004C438.322 140.559 438.41 140.118 438.581 139.706C438.751 139.295 439.002 138.921 439.317 138.606C439.632 138.292 440.006 138.042 440.418 137.871C440.83 137.701 441.272 137.613 441.717 137.613H507.383C507.829 137.613 508.27 137.701 508.682 137.871C509.094 138.042 509.468 138.292 509.783 138.606C510.099 138.921 510.349 139.295 510.519 139.706C510.69 140.118 510.778 140.559 510.778 141.004C510.78 141.451 510.693 141.893 510.523 142.306C510.354 142.719 510.104 143.094 509.788 143.411C509.473 143.727 509.098 143.978 508.685 144.149C508.272 144.321 507.83 144.409 507.383 144.409Z" fill="#407BFF"/>
<path d="M483.282 154.888H441.773C441.328 154.888 440.886 154.8 440.474 154.63C440.062 154.46 439.688 154.21 439.373 153.895C439.057 153.58 438.807 153.206 438.637 152.795C438.466 152.383 438.378 151.943 438.378 151.497C438.378 150.598 438.736 149.735 439.373 149.1C440.009 148.464 440.873 148.106 441.773 148.106H483.282C484.183 148.106 485.046 148.464 485.683 149.1C486.32 149.735 486.677 150.598 486.677 151.497C486.677 151.943 486.589 152.383 486.419 152.795C486.248 153.206 485.998 153.58 485.683 153.895C485.368 154.21 484.993 154.46 484.581 154.63C484.17 154.8 483.728 154.888 483.282 154.888Z" fill="#FF6C37"/>
<path d="M531.581 165.297H441.773C440.873 165.297 440.009 164.94 439.373 164.304C438.736 163.668 438.378 162.806 438.378 161.907C438.376 161.46 438.463 161.018 438.633 160.605C438.803 160.192 439.052 159.816 439.368 159.5C439.683 159.184 440.058 158.933 440.471 158.761C440.884 158.59 441.326 158.502 441.773 158.502H531.581C532.028 158.502 532.471 158.59 532.884 158.761C533.296 158.933 533.671 159.184 533.987 159.5C534.302 159.816 534.552 160.192 534.722 160.605C534.891 161.018 534.978 161.46 534.976 161.907C534.976 162.806 534.618 163.668 533.982 164.304C533.345 164.94 532.481 165.297 531.581 165.297Z" fill="#407BFF" fill-opacity="0.3"/>
<path d="M497.575 175.735H441.773C440.873 175.735 440.009 175.378 439.373 174.742C438.736 174.106 438.378 173.244 438.378 172.344C438.378 171.445 438.736 170.583 439.373 169.947C440.009 169.311 440.873 168.954 441.773 168.954H497.575C498.475 168.954 499.339 169.311 499.976 169.947C500.612 170.583 500.97 171.445 500.97 172.344C500.97 173.244 500.612 174.106 499.976 174.742C499.339 175.378 498.475 175.735 497.575 175.735Z" fill="#407BFF" fill-opacity="0.3"/>
<path d="M514.089 186.187H441.773C440.873 186.187 440.009 185.83 439.373 185.194C438.736 184.558 438.378 183.695 438.378 182.796C438.378 181.897 438.736 181.034 439.373 180.398C440.009 179.763 440.873 179.405 441.773 179.405H514.089C514.535 179.405 514.976 179.493 515.388 179.663C515.8 179.834 516.174 180.084 516.49 180.398C516.805 180.713 517.055 181.087 517.226 181.498C517.396 181.91 517.484 182.351 517.484 182.796C517.484 183.241 517.396 183.682 517.226 184.094C517.055 184.505 516.805 184.879 516.49 185.194C516.174 185.509 515.8 185.758 515.388 185.929C514.976 186.099 514.535 186.187 514.089 186.187Z" fill="#FF6C37"/>
<path d="M514.089 196.638H441.773C440.873 196.638 440.009 196.281 439.373 195.645C438.736 195.009 438.378 194.147 438.378 193.248C438.376 192.801 438.463 192.359 438.633 191.946C438.803 191.533 439.052 191.157 439.368 190.841C439.683 190.525 440.058 190.274 440.471 190.102C440.884 189.931 441.326 189.843 441.773 189.843H514.089C514.536 189.843 514.979 189.931 515.391 190.102C515.804 190.274 516.179 190.525 516.495 190.841C516.81 191.157 517.06 191.533 517.23 191.946C517.399 192.359 517.486 192.801 517.484 193.248C517.484 193.693 517.396 194.134 517.226 194.545C517.055 194.957 516.805 195.33 516.49 195.645C516.174 195.96 515.8 196.21 515.388 196.38C514.976 196.551 514.535 196.638 514.089 196.638Z" fill="#407BFF" fill-opacity="0.3"/>
<path d="M514.089 207.076H441.773C441.328 207.076 440.886 206.988 440.474 206.817C440.062 206.647 439.688 206.397 439.373 206.082C439.057 205.768 438.807 205.394 438.637 204.982C438.466 204.571 438.378 204.13 438.378 203.685C438.378 202.785 438.736 201.923 439.373 201.287C440.009 200.651 440.873 200.294 441.773 200.294H514.089C514.535 200.294 514.976 200.382 515.388 200.552C515.8 200.722 516.174 200.972 516.49 201.287C516.805 201.602 517.055 201.976 517.226 202.387C517.396 202.799 517.484 203.239 517.484 203.685C517.484 204.13 517.396 204.571 517.226 204.982C517.055 205.394 516.805 205.768 516.49 206.082C516.174 206.397 515.8 206.647 515.388 206.817C514.976 206.988 514.535 207.076 514.089 207.076Z" fill="#407BFF"/>
<path d="M514.089 270.44H441.773C440.873 270.44 440.009 270.083 439.373 269.447C438.736 268.811 438.378 267.949 438.378 267.049C438.378 266.15 438.736 265.288 439.373 264.652C440.009 264.016 440.873 263.659 441.773 263.659H514.089C514.535 263.659 514.976 263.746 515.388 263.917C515.8 264.087 516.174 264.337 516.49 264.652C516.805 264.967 517.055 265.34 517.226 265.752C517.396 266.163 517.484 266.604 517.484 267.049C517.484 267.495 517.396 267.936 517.226 268.347C517.055 268.758 516.805 269.132 516.49 269.447C516.174 269.762 515.8 270.012 515.388 270.182C514.976 270.353 514.535 270.44 514.089 270.44Z" fill="#FF6C37"/>
<path d="M514.089 274.096H441.773C439.898 274.096 438.378 275.614 438.378 277.487C438.378 279.36 439.898 280.878 441.773 280.878H514.089C515.964 280.878 517.484 279.36 517.484 277.487C517.484 275.614 515.964 274.096 514.089 274.096Z" fill="#407BFF" fill-opacity="0.3"/>
<path d="M514.089 291.329H441.773C440.873 291.329 440.009 290.972 439.373 290.336C438.736 289.7 438.378 288.838 438.378 287.939C438.378 287.039 438.736 286.177 439.373 285.541C440.009 284.905 440.873 284.548 441.773 284.548H514.089C514.535 284.548 514.976 284.636 515.388 284.806C515.8 284.976 516.174 285.226 516.49 285.541C516.805 285.856 517.055 286.23 517.226 286.641C517.396 287.052 517.484 287.493 517.484 287.939C517.484 288.384 517.396 288.825 517.226 289.236C517.055 289.648 516.805 290.021 516.49 290.336C516.174 290.651 515.8 290.901 515.388 291.071C514.976 291.242 514.535 291.329 514.089 291.329Z" fill="#407BFF"/>
<path d="M522.849 217.527H441.815C440.915 217.527 440.051 217.17 439.415 216.534C438.778 215.898 438.42 215.036 438.42 214.136C438.42 213.237 438.778 212.375 439.415 211.739C440.051 211.103 440.915 210.746 441.815 210.746H522.849C523.296 210.744 523.739 210.83 524.153 211C524.566 211.169 524.942 211.419 525.259 211.734C525.575 212.049 525.827 212.423 525.998 212.836C526.17 213.248 526.258 213.69 526.258 214.136C526.258 214.583 526.17 215.025 525.998 215.437C525.827 215.85 525.575 216.224 525.259 216.539C524.942 216.854 524.566 217.104 524.153 217.273C523.739 217.443 523.296 217.529 522.849 217.527Z" fill="#407BFF" fill-opacity="0.3"/>
<path d="M531.581 227.979H441.773C440.873 227.979 440.009 227.621 439.373 226.985C438.736 226.35 438.378 225.487 438.378 224.588C438.376 224.141 438.463 223.699 438.633 223.286C438.803 222.873 439.052 222.497 439.368 222.181C439.683 221.865 440.058 221.614 440.471 221.443C440.884 221.271 441.326 221.183 441.773 221.183H531.581C532.028 221.183 532.471 221.271 532.884 221.443C533.296 221.614 533.671 221.865 533.987 222.181C534.302 222.497 534.552 222.873 534.722 223.286C534.891 223.699 534.978 224.141 534.976 224.588C534.976 225.487 534.618 226.35 533.982 226.985C533.345 227.621 532.481 227.979 531.581 227.979Z" fill="#FF6C37"/>
<path d="M507.383 238.416H441.717C440.817 238.416 439.954 238.059 439.317 237.423C438.68 236.787 438.322 235.924 438.322 235.025C438.322 234.126 438.68 233.263 439.317 232.627C439.954 231.992 440.817 231.634 441.717 231.634H507.383C508.283 231.634 509.147 231.992 509.783 232.627C510.42 233.263 510.778 234.126 510.778 235.025C510.778 235.924 510.42 236.787 509.783 237.423C509.147 238.059 508.283 238.416 507.383 238.416Z" fill="#407BFF" fill-opacity="0.3"/>
<path d="M521.158 248.868H441.773C440.873 248.868 440.009 248.51 439.373 247.874C438.736 247.239 438.378 246.376 438.378 245.477C438.378 244.577 438.736 243.715 439.373 243.079C440.009 242.443 440.873 242.086 441.773 242.086H521.158C522.059 242.086 522.922 242.443 523.559 243.079C524.196 243.715 524.553 244.577 524.553 245.477C524.553 246.376 524.196 247.239 523.559 247.874C522.922 248.51 522.059 248.868 521.158 248.868Z" fill="#407BFF"/>
<path d="M531.581 259.319H441.773C440.873 259.319 440.009 258.962 439.373 258.326C438.736 257.69 438.378 256.827 438.378 255.928C438.376 255.482 438.463 255.039 438.633 254.626C438.803 254.213 439.052 253.838 439.368 253.522C439.683 253.205 440.058 252.954 440.471 252.783C440.884 252.612 441.326 252.523 441.773 252.523H531.581C532.028 252.523 532.471 252.612 532.884 252.783C533.296 252.954 533.671 253.205 533.987 253.522C534.302 253.838 534.552 254.213 534.722 254.626C534.891 255.039 534.978 255.482 534.976 255.928C534.976 256.827 534.618 257.69 533.982 258.326C533.345 258.962 532.481 259.319 531.581 259.319Z" fill="#FF6C37"/>
<path d="M508.724 106.859H464.658C463.918 106.859 463.317 107.459 463.317 108.198V108.212C463.317 108.952 463.918 109.552 464.658 109.552H508.724C509.465 109.552 510.065 108.952 510.065 108.212V108.198C510.065 107.459 509.465 106.859 508.724 106.859Z" fill="#353638"/>
<path d="M495.214 313.586C495.214 311.9 494.713 310.251 493.775 308.849C492.837 307.447 491.504 306.354 489.944 305.709C488.384 305.064 486.668 304.895 485.012 305.224C483.356 305.553 481.835 306.365 480.641 307.557C479.447 308.75 478.634 310.269 478.305 311.923C477.975 313.576 478.144 315.291 478.791 316.849C479.437 318.406 480.531 319.738 481.935 320.675C483.338 321.612 484.989 322.112 486.677 322.112C488.94 322.108 491.109 321.209 492.709 319.611C494.309 318.012 495.21 315.846 495.214 313.586Z" fill="#353638"/>
<path d="M486.677 319.963C490.204 319.963 493.062 317.108 493.062 313.586C493.062 310.064 490.204 307.209 486.677 307.209C483.151 307.209 480.292 310.064 480.292 313.586C480.292 317.108 483.151 319.963 486.677 319.963Z" fill="white"/>
</svg>
