<svg width="653" height="543" viewBox="0 0 653 543" fill="none" xmlns="http://www.w3.org/2000/svg">
<g clip-path="url(#clip0_4301_26098)">
<path d="M646.689 529.292H18.0211C14.5357 529.292 11.7102 532.116 11.7102 535.6V536.692C11.7102 540.176 14.5357 543 18.0211 543H646.689C650.174 543 653 540.176 653 536.692V535.6C653 532.116 650.174 529.292 646.689 529.292Z" fill="#0775EF"/>
<path d="M156.519 153.035H22.6437C20.6793 153.035 19.038 151.221 18.9327 148.858C18.526 140.006 16.2275 127.932 28.8456 122.343C41.5363 116.717 54.3614 123.068 54.3614 123.068C54.3614 123.068 56.3113 93.0399 85.8758 93.0943C113.109 93.1415 125.288 120.782 125.288 120.782C125.288 120.782 149.046 111.807 159.998 146.996C160.905 149.914 159.126 153.035 156.519 153.035Z" fill="#E9EFFD"/>
<path d="M138.033 164.036H131.748C130.936 164.036 130.157 163.713 129.583 163.14C129.009 162.566 128.687 161.788 128.687 160.976V149.7H141.098V160.976C141.098 161.378 141.018 161.776 140.864 162.148C140.71 162.519 140.484 162.857 140.2 163.141C139.915 163.425 139.577 163.65 139.206 163.804C138.834 163.957 138.435 164.036 138.033 164.036Z" fill="#E9EFFD"/>
<path d="M35.2217 149.696H47.6328V160.972C47.6328 161.784 47.3103 162.562 46.7362 163.136C46.1622 163.71 45.3836 164.032 44.5718 164.032H38.2791C37.4685 164.031 36.6914 163.709 36.1182 163.136C35.5451 162.563 35.2226 161.786 35.2217 160.976V149.696Z" fill="#E9EFFD"/>
<path d="M91.4785 164.036H85.1895C84.3776 164.036 83.599 163.713 83.025 163.14C82.4509 162.566 82.1284 161.788 82.1284 160.976V149.7H94.5396V160.976C94.5396 161.378 94.4604 161.776 94.3065 162.147C94.1527 162.518 93.9272 162.855 93.643 163.14C93.3587 163.424 93.0213 163.649 92.6499 163.803C92.2786 163.956 91.8805 164.036 91.4785 164.036Z" fill="#E9EFFD"/>
<path d="M41.4199 156.868V235.43V325.378H84.7753" stroke="#E9EFFD" stroke-width="6.68209" stroke-miterlimit="10" stroke-linecap="round"/>
<path d="M88.334 156.868V258.433" stroke="#E9EFFD" stroke-width="6.68209" stroke-miterlimit="10" stroke-linecap="round"/>
<path d="M134.888 156.868V168.649H257.482V142.162H318.346" stroke="#E9EFFD" stroke-width="6.68209" stroke-miterlimit="10" stroke-linecap="round"/>
<path d="M327.508 367.391C325.075 368.142 320.304 365.598 316.28 363.482C312.257 361.366 315.118 360.415 314.915 355.962C314.712 351.509 312.257 351.306 309.937 349.193C307.616 347.081 306.004 344.65 304.526 342.421C303.277 340.538 305.892 338.128 310.049 335.631C315.436 340.266 321.066 344.612 326.916 348.649C327.205 349.55 327.403 350.478 327.508 351.418C327.94 355.214 330.576 358.314 331.139 362.212C331.702 366.109 329.94 366.665 327.508 367.391Z" fill="#93C3E6"/>
<path d="M326.916 348.649C321.066 344.612 315.436 340.266 310.049 335.631C310.823 335.174 311.618 334.72 312.482 334.266C317.983 331.312 310.55 323.814 314.915 324.104C317.983 324.308 318.303 325.897 319.893 328.216C321.484 330.535 323.161 331.846 324.439 334.386C325.718 336.927 324.962 338.092 325.075 341.565C325.166 344.149 326.211 346.218 326.916 348.649Z" fill="#BBDBF3"/>
<path d="M459.466 59.2732C455.802 59.8357 464.073 61.654 466.299 65.149C468.525 68.644 473.445 68.3246 471.383 72.7704C469.32 77.2163 468.206 76.5812 469.157 79.2777C470.108 81.9743 467.251 84.3587 469.633 84.3587C472.015 84.3587 475.036 83.5639 477.418 86.5834C479.8 89.603 479.8 86.7395 477.734 82.7727C475.668 78.8059 475.352 77.532 476.463 75.6267C477.143 74.4606 477.432 73.1082 477.29 71.7662C477.148 70.4241 476.581 69.1625 475.671 68.1649C473.445 65.6244 471.938 66.4192 469.357 63.719C466.775 61.0189 461.532 58.9574 459.466 59.2732Z" fill="#BBDBF3"/>
<path d="M495.526 130.879C492.494 131.031 492.825 133.103 494.731 135.324C496.637 137.546 496.957 140.09 499.498 142.47C502.04 144.851 505.058 145.806 505.693 147.867C506.329 149.929 508.791 147.711 508.671 145.486C508.551 143.262 511.728 144.216 513.318 145.806C514.909 147.395 516.655 147.283 517.447 148.687C518.239 150.092 521.26 147.867 518.082 145.806C514.905 143.744 514.43 142.786 511.093 141.516C507.756 140.246 508.151 140.405 506.525 141.516C504.898 142.627 503.787 143.004 501.721 139.701C499.655 136.399 500.392 133.401 498.674 131.815C496.957 130.229 498.703 130.715 495.526 130.879Z" fill="#BBDBF3"/>
<path d="M368.47 255.646H13.8672V514.924H368.47V255.646Z" fill="#407BFF"/>
<path d="M365.184 258.93H17.1606V511.632H365.184V258.93Z" fill="white"/>
<path d="M365.18 258.934H17.157V282.749H365.18V258.934Z" fill="#407BFF"/>
<path d="M343.179 277.693L356.887 263.989" stroke="white" stroke-width="6.05369" stroke-linecap="round" stroke-linejoin="round"/>
<path d="M356.887 277.693L343.179 263.989" stroke="white" stroke-width="6.05369" stroke-linecap="round" stroke-linejoin="round"/>
<path d="M191.167 347.992V350.333H188.825" stroke="#BBDBF3" stroke-width="2.15078" stroke-linecap="round" stroke-linejoin="round"/>
<path d="M184.086 350.333H34.8767" stroke="#BBDBF3" stroke-width="2.15078" stroke-linecap="round" stroke-linejoin="round" stroke-dasharray="13.05 13.05"/>
<path d="M32.5093 350.333H30.1672V347.992" stroke="#BBDBF3" stroke-width="2.15078" stroke-linecap="round" stroke-linejoin="round"/>
<path d="M30.1672 342.81V335.032" stroke="#BBDBF3" stroke-width="2.15078" stroke-linecap="round" stroke-linejoin="round" stroke-dasharray="14.29 14.29"/>
<path d="M30.1672 332.441V330.096H32.5093" stroke="#BBDBF3" stroke-width="2.15078" stroke-linecap="round" stroke-linejoin="round"/>
<path d="M37.2478 330.096H186.457" stroke="#BBDBF3" stroke-width="2.15078" stroke-linecap="round" stroke-linejoin="round" stroke-dasharray="13.05 13.05"/>
<path d="M188.825 330.096H191.167V332.441" stroke="#BBDBF3" stroke-width="2.15078" stroke-linecap="round" stroke-linejoin="round"/>
<path d="M191.167 337.624V345.401" stroke="#BBDBF3" stroke-width="2.15078" stroke-linecap="round" stroke-linejoin="round" stroke-dasharray="14.29 14.29"/>
<path d="M68.1994 294.675H30.1672V300.402H68.1994V294.675Z" fill="#E5F0F8"/>
<path d="M118.933 294.675H80.9011V300.402H118.933V294.675Z" fill="#E5F0F8"/>
<path d="M169.667 294.675H131.635V300.402H169.667V294.675Z" fill="#E5F0F8"/>
<path d="M220.401 294.675H182.369V300.402H220.401V294.675Z" fill="#E5F0F8"/>
<path d="M271.138 294.675H233.106V300.402H271.138V294.675Z" fill="#E5F0F8"/>
<path d="M352.148 290.2H316.858V304.869H352.148V290.2Z" fill="#BBDBF3"/>
<path d="M94.83 472.364H30.1709V511.632H94.83V472.364Z" fill="#E5F0F8"/>
<path d="M92.3717 474.955H32.6292V511.632H92.3717V474.955Z" fill="white"/>
<path d="M49.5138 500.766L58.3011 511.632H40.5559L49.5138 500.766Z" fill="#E5F0F8"/>
<path d="M88.3411 511.632H63.6387L78.1232 487.207L88.3411 511.632Z" fill="#E5F0F8"/>
<path d="M62.4949 489.12C64.1654 489.12 65.5196 487.767 65.5196 486.097C65.5196 484.427 64.1654 483.074 62.4949 483.074C60.8244 483.074 59.4702 484.427 59.4702 486.097C59.4702 487.767 60.8244 489.12 62.4949 489.12Z" fill="#E5F0F8"/>
<path d="M352.148 472.364H287.489V511.632H352.148V472.364Z" fill="#E5F0F8"/>
<path d="M349.69 474.955H289.948V511.632H349.69V474.955Z" fill="white"/>
<path d="M306.836 500.766L315.619 511.632H297.874L306.836 500.766Z" fill="#E5F0F8"/>
<path d="M345.663 511.632H320.961L335.442 487.207L345.663 511.632Z" fill="#E5F0F8"/>
<path d="M319.817 489.12C321.487 489.12 322.842 487.767 322.842 486.097C322.842 484.427 321.487 483.074 319.817 483.074C318.146 483.074 316.792 484.427 316.792 486.097C316.792 487.767 318.146 489.12 319.817 489.12Z" fill="#E5F0F8"/>
<path d="M266.371 472.364H201.719V511.632H266.371V472.364Z" fill="#E5F0F8"/>
<path d="M263.92 474.955H204.17V511.632H263.92V474.955Z" fill="white"/>
<path d="M221.065 500.766L229.849 511.632H212.104L221.065 500.766Z" fill="#E5F0F8"/>
<path d="M259.889 511.632H235.19L249.671 487.207L259.889 511.632Z" fill="#E5F0F8"/>
<path d="M234.043 489.12C235.714 489.12 237.068 487.767 237.068 486.097C237.068 484.427 235.714 483.074 234.043 483.074C232.373 483.074 231.018 484.427 231.018 486.097C231.018 487.767 232.373 489.12 234.043 489.12Z" fill="#E5F0F8"/>
<path d="M180.6 472.364H115.941V511.632H180.6V472.364Z" fill="#E5F0F8"/>
<path d="M178.142 474.955H118.399V511.632H178.142V474.955Z" fill="white"/>
<path d="M135.284 500.766L144.071 511.632H126.326L135.284 500.766Z" fill="#E5F0F8"/>
<path d="M174.112 511.632H149.413L163.894 487.207L174.112 511.632Z" fill="#E5F0F8"/>
<path d="M148.269 489.12C149.939 489.12 151.294 487.767 151.294 486.097C151.294 484.427 149.939 483.074 148.269 483.074C146.598 483.074 145.244 484.427 145.244 486.097C145.244 487.767 146.598 489.12 148.269 489.12Z" fill="#E5F0F8"/>
<path d="M106.25 368.77H30.1672V378.177H106.25V368.77Z" fill="#E5F0F8"/>
<path d="M147.779 368.77H112.757V378.177H147.779V368.77Z" fill="#E5F0F8"/>
<path d="M79.3833 385.283H30.1672V394.69H79.3833V385.283Z" fill="#E5F0F8"/>
<path d="M166.188 385.283H85.8938V394.69H166.188V385.283Z" fill="#E5F0F8"/>
<path d="M43.3554 404.253H30.1672V408.408H43.3554V404.253Z" fill="#E5F0F8"/>
<path d="M97.2955 404.253H45.2036V408.408H97.2955V404.253Z" fill="#E5F0F8"/>
<path d="M144.482 404.253H99.3652V408.408H144.482V404.253Z" fill="#E5F0F8"/>
<path d="M193.193 404.253H146.333V408.408H193.193V404.253Z" fill="#E5F0F8"/>
<path d="M57.5204 412.183H30.1672V416.339H57.5204V412.183Z" fill="#E5F0F8"/>
<path d="M108.523 412.183H59.6445V416.339H108.523V412.183Z" fill="#E5F0F8"/>
<path d="M193.193 412.183H110.644V416.339H193.193V412.183Z" fill="#E5F0F8"/>
<path d="M72.121 420.117H30.1672V424.272H72.121V420.117Z" fill="#E5F0F8"/>
<path d="M133.258 420.117H73.864V424.272H133.258V420.117Z" fill="#E5F0F8"/>
<path d="M193.193 420.117H135.546V424.272H193.193V420.117Z" fill="#E5F0F8"/>
<path d="M81.5692 428.046H30.1672V432.202H81.5692V428.046Z" fill="#E5F0F8"/>
<path d="M342.631 461.232H297.01V465.399H342.631V461.232Z" fill="#E5F0F8"/>
<path d="M256.854 461.232H211.232V465.399H256.854V461.232Z" fill="#E5F0F8"/>
<path d="M171.079 461.232H125.458V465.399H171.079V461.232Z" fill="#E5F0F8"/>
<path d="M85.3055 461.232H39.6843V465.399H85.3055V461.232Z" fill="#E5F0F8"/>
<path d="M199.431 318.051H38.4316V338.288H199.431V318.051Z" fill="white" stroke="#BBDBF3" stroke-width="3.40759" stroke-miterlimit="10"/>
<path d="M199.435 318.051H159.064V338.288H199.435V318.051Z" fill="#BBDBF3" stroke="#BBDBF3" stroke-width="2.98355" stroke-miterlimit="10"/>
<path d="M172.267 332.281C173.655 333.051 175.272 333.303 176.828 332.991C178.385 332.679 179.78 331.824 180.764 330.579L191.555 336.603L192.597 334.734L181.809 328.71C182.244 327.509 182.326 326.208 182.045 324.962C181.763 323.716 181.131 322.576 180.222 321.678C179.314 320.78 178.167 320.16 176.917 319.893C175.667 319.626 174.367 319.722 173.17 320.17C171.973 320.618 170.93 321.399 170.163 322.421C169.396 323.443 168.938 324.663 168.843 325.937C168.748 327.211 169.02 328.485 169.627 329.609C170.233 330.734 171.15 331.661 172.267 332.281ZM178.098 321.858C179.002 322.363 179.735 323.125 180.206 324.047C180.676 324.969 180.863 326.01 180.742 327.037C180.62 328.065 180.197 329.034 179.525 329.821C178.853 330.609 177.962 331.179 176.966 331.461C175.97 331.742 174.912 331.722 173.927 331.403C172.942 331.084 172.074 330.48 171.432 329.668C170.79 328.856 170.404 327.872 170.322 326.84C170.24 325.808 170.465 324.775 170.971 323.872C171.651 322.663 172.783 321.772 174.119 321.394C175.454 321.017 176.885 321.184 178.098 321.858Z" fill="white"/>
<path d="M352.148 330.096H203.781V448.254H352.148V330.096Z" stroke="#BBDBF3" stroke-width="2.15078" stroke-linecap="round" stroke-linejoin="round" stroke-dasharray="12.9 12.9"/>
<path d="M380.456 429.64V311.482H232.089V429.64H380.456Z" fill="#BBDBF3"/>
<path d="M374.817 317.438H237.729V423.681H374.817V317.438Z" fill="white"/>
<path d="M237.729 423.681L276.487 376.66L303.713 410.35L342.126 345.557L374.817 423.681H237.729Z" fill="#BBDBF3"/>
<path d="M306.273 349.937C310.105 349.937 313.212 346.832 313.212 343.002C313.212 339.172 310.105 336.066 306.273 336.066C302.441 336.066 299.334 339.172 299.334 343.002C299.334 346.832 302.441 349.937 306.273 349.937Z" fill="#BBDBF3"/>
<path d="M581.751 46.1714H590.403L582.549 57.952L579.292 53.6078L581.751 46.1714Z" fill="#586773"/>
<path d="M426.764 30.2754H435.417L430.838 44.5566L422.748 37.0149L426.764 30.2754Z" fill="#586773"/>
<path d="M544.165 11.4141H552.818L552.426 17.1919L545.664 15.8962L544.165 11.4141Z" fill="#586773"/>
<path d="M451.855 186.45H460.508L455.007 178.233L445.588 180.527L451.855 186.45Z" fill="#586773"/>
<path d="M410.656 75.0752H402.003L399.142 102.756H407.795L410.656 75.0752Z" fill="#586773"/>
<path d="M470.693 3.86133H479.35L462.614 15.9577L470.693 3.86133Z" fill="#586773"/>
<path d="M525.367 193.973H534.02L535.519 187.295L528.275 187.96L525.367 193.973Z" fill="#586773"/>
<path d="M577.912 167.56H569.256L568.359 161.433L574.957 160.715L577.912 167.56Z" fill="#586773"/>
<path d="M501.83 197.755H510.486L500.464 196.394L498.533 197.624L501.83 197.755Z" fill="#586773"/>
<path d="M594.027 122.8H602.68L596.075 116.725L589.793 119.762L594.027 122.8Z" fill="#586773"/>
<path d="M596.892 95.0758C588.515 96.2989 580.915 92.1942 579.92 85.7812C578.871 79.4083 584.771 73.1042 593.148 71.5944C590.605 62.6141 586.77 54.0504 581.765 46.1714C575.058 51.4375 566.46 51.6952 562.346 46.6178C558.261 41.6131 560.229 33.2077 566.703 27.7166C560.016 21.2235 552.423 15.7323 544.161 11.4139C540.969 19.3112 533.595 23.797 527.552 21.496C521.51 19.1951 518.987 10.8949 521.881 2.93597C512.823 0.725677 503.505 -0.236521 494.186 0.0761025C495.377 8.52141 491.263 16.0884 484.843 17.1337C478.424 18.1789 472.174 12.2015 470.682 3.86869C461.709 6.40648 453.154 10.2407 445.29 15.2501C450.515 21.9134 450.736 30.5438 445.653 34.6594C440.656 38.7314 432.218 36.7716 426.771 30.3043C420.285 36.9897 414.802 44.5786 410.493 52.8348C418.351 55.985 422.871 63.3923 420.54 69.435C418.209 75.4778 410.01 77.9965 402.021 75.1039C399.786 84.1483 398.816 93.4591 399.142 102.77C407.519 101.547 415.086 105.673 416.157 112.064C417.163 118.47 411.263 124.767 402.886 126.251C405.434 135.23 409.268 143.793 414.269 151.674C420.976 146.408 429.582 146.23 433.688 151.228C437.795 156.225 435.805 164.638 429.331 170.122C436.006 176.625 443.589 182.126 451.844 186.453C455.036 178.524 462.374 174.038 468.453 176.379C474.531 178.72 477.018 186.94 474.124 194.888C483.179 197.116 492.499 198.079 501.819 197.748C500.628 189.292 504.785 181.779 511.122 180.741C517.538 179.696 523.874 185.633 525.356 193.966C534.327 191.423 542.881 187.589 550.748 182.585C545.49 175.921 545.301 167.291 550.301 163.208C555.352 159.103 563.762 161.063 569.245 167.563C575.728 160.876 581.224 153.3 585.567 145.062C577.665 141.868 573.177 134.501 575.436 128.458C577.778 122.375 586.042 119.9 594.016 122.789C596.287 113.735 597.255 104.403 596.892 95.0758ZM566.315 98.9192C566.315 101.232 566.194 103.544 565.951 105.844C565.89 106.425 565.828 107.005 565.755 107.575C565.307 111.031 564.603 114.45 563.649 117.802C563.165 119.484 562.616 121.142 562.001 122.778C561.805 123.326 561.587 123.867 561.369 124.415C561.151 124.963 560.944 125.471 560.715 125.99C560.709 126.035 560.691 126.077 560.665 126.113C560.458 126.589 560.251 127.057 560.033 127.521C560.001 127.604 559.962 127.684 559.917 127.761C559.71 128.207 559.503 128.654 559.285 129.089L559.139 129.387C558.943 129.772 558.776 130.156 558.551 130.53C558.217 131.18 557.865 131.822 557.513 132.457L556.954 133.419C556.405 134.341 555.842 135.255 555.261 136.145C555.065 136.457 554.858 136.769 554.641 137.077C553.417 138.892 552.099 140.652 550.712 142.332C550.37 142.757 550.018 143.171 549.655 143.585C549.292 143.998 548.929 144.405 548.566 144.808C548.253 145.152 547.941 145.483 547.632 145.813C547.324 146.143 547.019 146.455 546.71 146.767C546.325 147.163 545.94 147.544 545.548 147.918C545.514 147.958 545.475 147.993 545.432 148.023C545.007 148.437 544.571 148.851 544.128 149.253C538.48 154.439 531.994 158.63 524.945 161.651C524.531 161.825 524.117 161.992 523.711 162.166C523.304 162.341 522.883 162.5 522.469 162.653L521.223 163.121C520.392 163.433 519.542 163.712 518.682 163.981C518.268 164.115 517.843 164.239 517.429 164.366C517.015 164.493 516.579 164.613 516.151 164.729C515.722 164.845 515.301 164.965 514.876 165.07C513.852 165.338 512.814 165.578 511.768 165.796C511.249 165.908 510.719 166.003 510.199 166.097C509.6 166.209 509.008 166.304 508.406 166.395C507.803 166.485 507.276 166.572 506.706 166.634C502.08 167.237 497.403 167.359 492.752 166.997C492.171 166.957 491.601 166.906 491.031 166.841C488.073 166.548 485.138 166.053 482.247 165.36C481.761 165.248 481.285 165.132 480.795 164.997C480.225 164.852 479.665 164.696 479.106 164.529C478.482 164.355 477.861 164.166 477.251 163.97C476.761 163.814 476.274 163.651 475.798 163.484C474.317 162.985 472.864 162.429 471.441 161.814C470.933 161.608 470.424 161.379 469.916 161.154C469.513 160.976 469.106 160.791 468.714 160.591C468.039 160.283 467.385 159.949 466.731 159.619C466.307 159.401 465.882 159.183 465.468 158.944C464.887 158.635 464.317 158.312 463.758 157.993C463.373 157.775 462.991 157.546 462.607 157.307L461.154 156.407C459.796 155.536 458.46 154.614 457.16 153.63C457.146 153.615 457.129 153.604 457.109 153.598C456.25 152.957 455.402 152.29 454.567 151.598C454.142 151.264 453.728 150.905 453.311 150.542C452.893 150.179 452.494 149.816 452.087 149.453C451.68 149.09 451.292 148.727 450.907 148.364C450.907 148.364 450.874 148.343 450.863 148.324C450.5 148.001 450.17 147.66 449.829 147.319C449.723 147.214 449.622 147.101 449.505 146.996C449.208 146.695 448.906 146.386 448.616 146.074L447.65 145.047C442.764 139.725 438.757 133.66 435.78 127.079C435.591 126.676 435.417 126.258 435.239 125.856C435.061 125.453 434.876 125.035 434.723 124.622C434.571 124.208 434.389 123.805 434.233 123.388C433.098 120.445 432.173 117.425 431.466 114.351C431.332 113.803 431.216 113.262 431.103 112.696C430.99 112.13 430.885 111.585 430.78 111.026C430.675 110.468 430.595 109.938 430.511 109.408C430.409 108.758 430.326 108.105 430.242 107.452C430.181 106.965 430.119 106.464 430.075 105.967C430.014 105.379 429.963 104.788 429.912 104.196C429.861 103.605 429.828 103.035 429.807 102.454C429.774 101.95 429.756 101.449 429.745 100.944C429.745 100.828 429.745 100.705 429.745 100.581C429.745 100.055 429.723 99.5253 429.723 98.999V98.9337C429.723 97.7844 429.755 96.6449 429.818 95.5149C430.53 81.3428 435.643 67.7449 444.447 56.6128C445.575 55.1998 446.762 53.8207 448.006 52.4755C454.234 45.7529 461.758 40.3585 470.125 36.6164C478.492 32.8743 487.53 30.8618 496.695 30.6999C497.683 30.6999 498.674 30.6999 499.662 30.7216C500.025 30.7216 500.355 30.7216 500.7 30.7507C501.615 30.7833 502.516 30.8414 503.442 30.914L504.23 30.9757C505.242 31.07 506.252 31.191 507.262 31.3386L507.737 31.4003C508.827 31.5564 509.949 31.7632 511.049 31.9556L511.245 31.9919C512.422 32.2338 513.592 32.4964 514.756 32.7794C518.313 33.6743 521.79 34.8553 525.156 36.3107C525.686 36.5394 526.223 36.7789 526.754 37.0366C527.284 37.2942 527.738 37.5047 528.235 37.7406C528.316 37.7838 528.4 37.8226 528.486 37.8568C528.961 38.1036 529.437 38.3431 529.905 38.5826V38.6044C530.425 38.873 530.944 39.1524 531.452 39.4428C531.899 39.6932 532.335 39.94 532.77 40.2013C533.351 40.5424 533.927 40.8945 534.499 41.2574C534.833 41.4643 535.163 41.682 535.497 41.9107C537.091 42.9559 538.649 44.0882 540.152 45.2569C540.577 45.5908 541.013 45.9319 541.427 46.2839C541.841 46.636 542.204 46.9263 542.578 47.2566L542.723 47.3836C543.086 47.7139 543.489 48.0441 543.863 48.3889L543.936 48.4615C544.256 48.7518 544.579 49.0422 544.891 49.3507C545.203 49.6592 545.545 49.964 545.864 50.2834C546.249 50.6463 546.63 51.0492 547.015 51.4448L547.139 51.5681C547.553 51.9916 547.96 52.4271 548.362 52.8747C554.461 59.5085 559.174 67.2914 562.226 75.7681C562.683 77.0202 563.097 78.2868 563.471 79.5498C563.595 79.9744 563.718 80.3882 563.834 80.8128C563.951 81.2374 564.06 81.6657 564.176 82.0903C564.827 84.635 565.326 87.2164 565.668 89.8206C565.708 90.1218 565.752 90.4303 565.781 90.7316C566.053 92.9091 566.206 95.1266 566.26 97.3659C566.26 97.8812 566.26 98.4111 566.26 98.9301L566.315 98.9192Z" fill="#586773"/>
<path d="M414.269 151.66H422.922L423.47 140.982L413.568 144.18L414.269 151.66Z" fill="#586773"/>
<path d="M605.534 95.0757C597.154 96.2988 589.557 92.1941 588.559 85.7812C587.56 79.3683 593.413 73.1041 601.79 71.5944C599.244 62.6144 595.409 54.0509 590.403 46.1713C583.697 51.4374 575.102 51.6951 570.984 46.6178C566.899 41.613 568.871 33.2076 575.341 27.7165C568.655 21.2224 561.062 15.7311 552.8 11.4139C549.608 19.3112 542.237 23.7969 536.191 21.496C530.145 19.195 527.625 10.8949 530.519 2.93589C521.469 0.722697 512.159 -0.244364 502.846 0.0615222C504.037 8.50683 499.942 16.0738 493.504 17.1191C487.066 18.1643 480.835 12.1869 479.342 3.85411C470.369 6.39121 461.814 10.2255 453.95 15.2355C459.175 21.8988 459.397 30.5292 454.313 34.6448C449.317 38.7168 440.9 36.757 435.431 30.2897C428.946 36.9751 423.463 44.564 419.153 52.8202C427.011 55.9704 431.532 63.3777 429.2 69.4204C426.869 75.4632 418.67 77.9819 410.682 75.0893C408.452 84.1396 407.489 93.4551 407.82 102.77C416.197 101.547 423.768 105.673 424.836 112.064C425.842 118.47 419.941 124.767 411.564 126.251C414.114 135.229 417.948 143.792 422.948 151.674C429.658 146.408 438.264 146.23 442.367 151.228C446.47 156.225 444.484 164.638 438.009 170.122C444.69 176.626 452.279 182.127 460.54 186.453C463.736 178.523 471.071 174.038 477.153 176.379C483.235 178.719 485.715 186.94 482.825 194.888C491.879 197.116 501.2 198.079 510.519 197.748C509.324 189.291 513.482 181.779 519.818 180.741C526.234 179.696 532.571 185.633 534.052 193.966C543.024 191.423 551.578 187.589 559.444 182.585C554.19 175.921 553.998 167.291 559.001 163.208C564.005 159.125 572.458 161.063 577.945 167.563C584.428 160.877 589.923 153.3 594.263 145.062C586.362 141.868 581.874 134.5 584.132 128.458C586.478 122.375 594.739 119.9 602.713 122.789C604.965 113.732 605.915 104.4 605.534 95.0757ZM574.957 98.9191C574.955 101.232 574.834 103.543 574.593 105.844C574.532 106.424 574.466 107.005 574.394 107.575C573.947 111.031 573.244 114.45 572.291 117.802C571.807 119.484 571.258 121.142 570.643 122.778C570.443 123.326 570.229 123.867 570.011 124.415C569.793 124.963 569.586 125.471 569.357 125.99C569.348 126.034 569.33 126.076 569.303 126.113C569.096 126.589 568.889 127.057 568.671 127.521C568.64 127.604 568.603 127.684 568.559 127.761C568.352 128.207 568.145 128.654 567.927 129.089C567.872 129.191 567.821 129.296 567.781 129.387C567.582 129.772 567.397 130.156 567.19 130.53C566.859 131.18 566.503 131.822 566.151 132.457C565.966 132.777 565.788 133.1 565.592 133.419C565.044 134.341 564.503 135.255 563.903 136.145C563.704 136.457 563.497 136.769 563.279 137.077C562.055 138.892 560.737 140.652 559.35 142.332C559.009 142.757 558.657 143.171 558.293 143.585C557.93 143.998 557.567 144.405 557.204 144.808C556.892 145.152 556.583 145.483 556.271 145.813C555.959 146.143 555.661 146.455 555.349 146.767C554.964 147.163 554.582 147.544 554.187 147.918C554.154 147.958 554.116 147.993 554.074 148.023C553.649 148.437 553.213 148.851 552.767 149.253C547.118 154.439 540.632 158.63 533.584 161.651C533.17 161.825 532.756 161.992 532.353 162.166C531.95 162.341 531.521 162.5 531.107 162.653L529.862 163.121C529.034 163.433 528.184 163.712 527.32 163.981C526.903 164.115 526.478 164.239 526.064 164.366C525.65 164.493 525.214 164.612 524.789 164.729C524.364 164.845 523.94 164.965 523.515 165.07C522.488 165.338 521.451 165.58 520.403 165.796C519.884 165.908 519.353 166.002 518.838 166.097C518.235 166.209 517.643 166.304 517.044 166.394C516.445 166.485 515.915 166.572 515.341 166.634C510.715 167.237 506.038 167.359 501.387 166.997C500.806 166.957 500.236 166.906 499.666 166.841C496.707 166.547 493.773 166.053 490.882 165.36C490.395 165.248 489.92 165.131 489.43 164.997C488.856 164.852 488.297 164.696 487.737 164.529C487.116 164.355 486.492 164.166 485.882 163.97C485.395 163.814 484.909 163.651 484.429 163.484C482.948 162.985 481.496 162.429 480.072 161.814C479.564 161.607 479.055 161.379 478.547 161.154C478.144 160.976 477.741 160.791 477.345 160.591C476.673 160.283 476.02 159.949 475.366 159.619C474.941 159.401 474.517 159.183 474.099 158.944C473.522 158.635 472.948 158.312 472.389 157.993C472.026 157.775 471.623 157.546 471.238 157.307L469.785 156.407C468.427 155.536 467.087 154.614 465.791 153.63C465.779 153.613 465.761 153.602 465.74 153.598C464.88 152.955 464.041 152.291 463.198 151.598C462.774 151.264 462.36 150.905 461.946 150.542C461.532 150.179 461.125 149.816 460.722 149.453C460.319 149.09 459.923 148.727 459.538 148.364C459.523 148.353 459.51 148.339 459.498 148.324C459.135 148.001 458.805 147.66 458.46 147.319C458.358 147.214 458.253 147.101 458.14 146.996C457.839 146.695 457.537 146.386 457.247 146.074C456.957 145.762 456.604 145.392 456.285 145.047C451.397 139.726 447.388 133.661 444.411 127.079C444.226 126.676 444.048 126.258 443.874 125.856C443.699 125.453 443.511 125.035 443.354 124.622C443.198 124.208 443.024 123.805 442.868 123.388C441.73 120.445 440.804 117.425 440.097 114.351C439.963 113.803 439.85 113.262 439.734 112.696C439.618 112.13 439.516 111.585 439.415 111.026C439.313 110.467 439.226 109.938 439.146 109.408C439.041 108.758 438.957 108.105 438.874 107.452C438.812 106.965 438.75 106.464 438.71 105.967C438.648 105.379 438.594 104.788 438.543 104.196C438.492 103.605 438.46 103.035 438.438 102.454C438.409 101.95 438.387 101.449 438.376 100.944C438.376 100.828 438.376 100.705 438.376 100.581C438.376 100.055 438.376 99.5252 438.376 98.999V98.9336C438.376 97.7844 438.406 96.6448 438.467 95.5149C439.179 81.3377 444.294 67.7347 453.1 56.5982C454.233 55.1865 455.413 53.811 456.659 52.4609C462.887 45.7384 470.411 40.3439 478.778 36.6018C487.145 32.8597 496.183 30.8472 505.348 30.6853C506.34 30.6853 507.327 30.6853 508.318 30.707C508.682 30.707 509.008 30.7071 509.353 30.7361C510.268 30.7688 511.169 30.8268 512.095 30.8994L512.886 30.9611C513.896 31.0555 514.909 31.1716 515.915 31.324L516.39 31.3857C517.48 31.5418 518.602 31.7487 519.702 31.941L519.898 31.9773C521.075 32.2096 522.247 32.4709 523.409 32.7648C526.966 33.6592 530.444 34.8401 533.809 36.2961C534.339 36.5248 534.876 36.7643 535.407 37.022C535.937 37.2797 536.391 37.4902 536.888 37.7261C536.969 37.7692 537.053 37.808 537.139 37.8422C537.614 38.089 538.094 38.3285 538.558 38.568L538.58 38.5898C539.098 38.8584 539.613 39.1378 540.123 39.4282C540.57 39.6786 541.006 39.9254 541.441 40.1867C542.022 40.5278 542.603 40.8799 543.174 41.2428C543.504 41.4497 543.838 41.6674 544.168 41.8961C545.766 42.9413 547.32 44.0736 548.823 45.2423C549.248 45.5762 549.684 45.9173 550.098 46.2693C550.512 46.6214 550.875 46.9117 551.249 47.242L551.394 47.369C551.779 47.6993 552.16 48.0295 552.534 48.3743L552.607 48.4469C552.93 48.7372 553.25 49.0276 553.562 49.3361C553.874 49.6446 554.216 49.9494 554.535 50.2688C554.92 50.6317 555.305 51.0346 555.686 51.4302L555.813 51.5536C556.227 51.9782 556.63 52.4137 557.037 52.8601C563.133 59.4949 567.845 67.2777 570.897 75.7535C571.355 77.0056 571.768 78.2722 572.142 79.5352C572.266 79.9598 572.389 80.3736 572.506 80.7982L572.847 82.0757C573.498 84.6204 573.997 87.2018 574.339 89.806C574.383 90.1073 574.423 90.4157 574.455 90.717C574.724 92.8945 574.88 95.112 574.931 97.3513C574.931 97.8666 574.953 98.3965 574.953 98.9155L574.957 98.9191Z" fill="#93ACBF"/>
<path d="M556.946 149.177C584.713 121.424 584.713 76.4284 556.946 48.676C529.179 20.9235 484.161 20.9235 456.394 48.6759C428.628 76.4284 428.628 121.424 456.394 149.177C484.161 176.929 529.179 176.929 556.946 149.177Z" fill="#FFBC96"/>
<path d="M508.998 164.105C544.967 163.477 573.718 133.72 573.094 97.7724C572.469 61.8245 542.698 33.088 506.728 33.7268C470.758 34.3655 442.011 64.1037 442.635 100.055C443.26 136.007 473.031 164.743 508.998 164.105Z" fill="#FE9F73"/>
<path d="M559.535 131.826C554.055 140.659 546.443 147.975 537.398 153.104C528.353 158.232 518.164 161.009 507.767 161.179C473.387 161.778 444.97 134.323 444.364 100.008C444.105 83.4973 450.405 67.5574 461.883 55.6806C473.361 43.8038 489.081 36.9585 505.599 36.6446C539.935 36.0711 568.384 63.5265 568.958 97.8413C569.191 109.844 565.916 121.655 559.535 131.826Z" fill="#E5F0F8"/>
<path d="M506.114 36.6518C505.936 36.6518 505.751 36.6518 505.588 36.6518C497.451 36.777 489.42 38.5047 481.952 41.7362C474.485 44.9677 467.728 49.6395 462.069 55.4841C455.7 65.6612 452.421 77.4662 452.628 89.4685C453.235 123.794 481.677 151.246 516.031 150.64C532.442 150.37 548.077 143.607 559.506 131.833C565.691 121.971 568.959 110.562 568.933 98.9228C568.933 98.5599 568.962 98.1969 568.954 97.834C568.388 63.7007 540.221 36.3542 506.114 36.6518Z" fill="white"/>
<path d="M502.792 44.3678C502.802 44.9469 502.984 45.51 503.314 45.9859C503.644 46.4619 504.109 46.8292 504.648 47.0415C505.187 47.2538 505.777 47.3016 506.343 47.1787C506.91 47.0558 507.427 46.7679 507.829 46.3513C508.232 45.9347 508.502 45.4081 508.605 44.8381C508.708 44.2681 508.64 43.6804 508.409 43.1491C508.178 42.6179 507.795 42.1671 507.308 41.8536C506.82 41.5402 506.251 41.3782 505.671 41.3881C505.287 41.3947 504.907 41.4771 504.554 41.6304C504.201 41.7837 503.882 42.0051 503.614 42.2818C503.347 42.5585 503.137 42.8851 502.995 43.243C502.854 43.6009 502.785 43.9831 502.792 44.3678Z" fill="#BBDBF3"/>
<path d="M542.524 57.6037C542.121 58.0204 541.851 58.5471 541.748 59.1171C541.645 59.6872 541.713 60.275 541.944 60.8062C542.175 61.3375 542.559 61.7883 543.046 62.1016C543.534 62.415 544.103 62.5768 544.683 62.5667C545.262 62.5565 545.826 62.3748 546.302 62.0446C546.778 61.7143 547.146 61.2504 547.358 60.7114C547.57 60.1724 547.618 59.5825 547.495 59.0165C547.372 58.4504 547.084 57.9335 546.667 57.5311C546.108 56.9917 545.357 56.6963 544.58 56.7099C543.803 56.7235 543.063 57.045 542.524 57.6037Z" fill="#BBDBF3"/>
<path d="M563.395 99.9667C564.518 98.8046 564.485 96.9527 563.322 95.8304C562.16 94.7082 560.307 94.7405 559.184 95.9026C558.061 97.0648 558.094 98.9166 559.256 100.039C560.419 101.161 562.272 101.129 563.395 99.9667Z" fill="#BBDBF3"/>
<path d="M547.001 138.132C548.617 138.099 549.901 136.764 549.869 135.148C549.837 133.532 548.5 132.249 546.884 132.281C545.267 132.314 543.983 133.649 544.016 135.265C544.048 136.881 545.384 138.164 547.001 138.132Z" fill="#BBDBF3"/>
<path d="M510.548 153.478C510.538 152.9 510.357 152.337 510.027 151.862C509.697 151.386 509.233 151.02 508.695 150.808C508.156 150.596 507.567 150.548 507.001 150.671C506.435 150.793 505.919 151.081 505.517 151.497C505.115 151.913 504.845 152.439 504.742 153.008C504.639 153.578 504.707 154.165 504.938 154.695C505.169 155.226 505.552 155.676 506.038 155.989C506.525 156.302 507.094 156.464 507.672 156.454C508.057 156.448 508.436 156.366 508.789 156.213C509.142 156.06 509.461 155.839 509.728 155.562C509.995 155.286 510.205 154.96 510.346 154.602C510.487 154.244 510.555 153.862 510.548 153.478Z" fill="#BBDBF3"/>
<path d="M470.816 140.239C471.218 139.822 471.488 139.296 471.59 138.727C471.693 138.158 471.625 137.571 471.394 137.04C471.163 136.51 470.78 136.06 470.293 135.747C469.806 135.434 469.238 135.273 468.659 135.283C468.08 135.293 467.518 135.474 467.042 135.804C466.567 136.134 466.2 136.597 465.987 137.135C465.775 137.673 465.728 138.262 465.85 138.828C465.973 139.393 466.261 139.909 466.677 140.311C466.952 140.581 467.278 140.793 467.636 140.936C467.994 141.078 468.377 141.148 468.762 141.141C469.147 141.135 469.527 141.051 469.88 140.896C470.233 140.741 470.551 140.518 470.816 140.239Z" fill="#BBDBF3"/>
<path d="M452.087 102.799C452.667 102.79 453.231 102.609 453.707 102.279C454.184 101.949 454.552 101.486 454.765 100.947C454.978 100.408 455.026 99.818 454.904 99.2517C454.781 98.6854 454.493 98.1681 454.077 97.7654C453.66 97.3626 453.133 97.0924 452.563 96.9889C451.992 96.8855 451.404 96.9535 450.872 97.1843C450.341 97.415 449.89 97.7982 449.576 98.2854C449.262 98.7726 449.1 99.3418 449.11 99.9211C449.123 100.697 449.444 101.436 450.003 101.976C450.561 102.516 451.311 102.812 452.087 102.799Z" fill="#BBDBF3"/>
<path d="M467.373 63.9407C468.989 63.9294 470.29 62.6106 470.279 60.9951C470.267 59.3796 468.948 58.0791 467.332 58.0904C465.715 58.1017 464.414 59.4205 464.425 61.036C464.437 62.6515 465.756 63.9519 467.373 63.9407Z" fill="#BBDBF3"/>
<path d="M511.564 102.619C513.606 100.578 513.606 97.2693 511.564 95.2284C509.522 93.1875 506.212 93.1875 504.17 95.2284C502.128 97.2693 502.128 100.578 504.17 102.619C506.212 104.66 509.522 104.66 511.564 102.619Z" fill="#FFBC96"/>
<path d="M509.194 61.0369L507.109 55.4805L505.221 61.1058L506.51 61.0841L507.167 98.9373L508.565 98.9119L507.905 61.0587L509.194 61.0369Z" fill="#FFBC96"/>
<path d="M507.865 98.226V99.6197L531.478 99.6233V100.872L537.07 98.8866L531.478 96.9014V98.226H507.865Z" fill="#FFBC96"/>
<path d="M363.474 32.2207H4.96362V82.1848H363.474V32.2207Z" fill="#407BFF" stroke="#407BFF" stroke-width="7.98991" stroke-miterlimit="10"/>
<path d="M376.328 32.2207H17.8179V82.1848H376.328V32.2207Z" fill="white" stroke="#407BFF" stroke-width="7.98991" stroke-miterlimit="10"/>
<path d="M53.3955 54.2539H48.4463V47.42C48.4059 45.6964 47.6924 44.057 46.4585 42.8523C45.2246 41.6476 43.5681 40.9731 41.8431 40.9731C40.1182 40.9731 38.4617 41.6476 37.2278 42.8523C35.9938 44.057 35.2804 45.6964 35.24 47.42V54.2539H30.2908C30.2127 54.2558 30.1358 54.2731 30.0645 54.3048C29.9932 54.3365 29.9288 54.382 29.8751 54.4387C29.8215 54.4954 29.7796 54.5621 29.7518 54.635C29.724 54.7079 29.711 54.7856 29.7134 54.8636V73.01C29.7134 73.1669 29.7758 73.3173 29.8868 73.4283C29.9978 73.5392 30.1483 73.6015 30.3053 73.6015H53.41C53.5673 73.6015 53.7183 73.5393 53.8298 73.4285C53.9414 73.3177 54.0046 73.1672 54.0055 73.01V54.8636C54.0075 54.783 53.9931 54.7028 53.9631 54.628C53.9332 54.5531 53.8883 54.4851 53.8313 54.4281C53.7742 54.3711 53.7062 54.3262 53.6313 54.2963C53.5564 54.2663 53.4761 54.2519 53.3955 54.2539ZM37.3387 47.42C37.3387 46.2245 37.8139 45.078 38.6596 44.2327C39.5054 43.3874 40.6525 42.9125 41.8486 42.9125C43.0447 42.9125 44.1918 43.3874 45.0375 44.2327C45.8833 45.078 46.3584 46.2245 46.3584 47.42V54.2539H37.3387V47.42Z" fill="#BBDBF3"/>
<path d="M64.8733 44.1899H67.6003V54.9398H67.6584C68.0322 54.1382 68.6619 53.4833 69.4485 53.078C70.3478 52.5846 71.3603 52.3344 72.3861 52.3522C73.0631 52.3549 73.7351 52.4677 74.3759 52.686C74.9972 52.8894 75.5671 53.225 76.0462 53.6696C76.5441 54.1514 76.9307 54.736 77.1791 55.3826C77.4786 56.1701 77.6229 57.0082 77.604 57.8505V67.087H74.877V58.6017C74.8907 58.0202 74.7984 57.441 74.6047 56.8924C74.4495 56.4605 74.2016 56.0678 73.8784 55.7419C73.5835 55.4524 73.2256 55.235 72.8327 55.1068C72.4375 54.9727 72.0227 54.9053 71.6054 54.9072C71.068 54.9023 70.5341 54.9945 70.0295 55.1794C69.5445 55.3648 69.1094 55.6605 68.7586 56.0431C68.3726 56.4772 68.0831 56.988 67.9089 57.542C67.6953 58.239 67.5935 58.9654 67.6075 59.6942V67.0833H64.8806L64.8733 44.1899Z" fill="#BBDBF3"/>
<path d="M89.4123 55.0922H85.5052V61.5995C85.5052 62.006 85.5052 62.4052 85.5343 62.7972C85.5492 63.1609 85.6266 63.5194 85.763 63.8569C85.8886 64.1624 86.099 64.4256 86.3694 64.6154C86.7292 64.8303 87.1459 64.9303 87.5641 64.9021C87.9001 64.9016 88.2355 64.8712 88.5662 64.8114C88.8955 64.7552 89.2125 64.6422 89.5031 64.4775V66.96C89.11 67.1568 88.6842 67.2798 88.2467 67.3229C87.8498 67.3826 87.4497 67.4177 87.0484 67.4281C86.2135 67.4687 85.3802 67.3185 84.612 66.989C84.0866 66.7409 83.644 66.3464 83.3374 65.853C83.0615 65.3756 82.8965 64.8422 82.8545 64.2924C82.8037 63.719 82.7783 63.1383 82.7783 62.5504V55.0741H79.6265V52.7114H82.7783V48.6938H85.5052V52.7223H89.4123V55.0922Z" fill="#BBDBF3"/>
<path d="M100.625 55.0922H96.7145V61.5995C96.7145 62.006 96.7254 62.4052 96.7472 62.7972C96.7591 63.1609 96.8353 63.5197 96.9723 63.8569C97.0991 64.1617 97.3093 64.4246 97.5787 64.6154C97.9397 64.8304 98.3577 64.9304 98.7769 64.9021C99.1118 64.9016 99.446 64.8712 99.7755 64.8114C100.106 64.7558 100.424 64.6428 100.716 64.4775V66.96C100.321 67.1564 99.8945 67.2793 99.456 67.3229C99.0603 67.3825 98.6613 67.4177 98.2613 67.4281C97.4252 67.4682 96.5909 67.318 95.8212 66.989C95.2968 66.7408 94.8554 66.3463 94.5503 65.853C94.2733 65.3758 94.107 64.8425 94.0638 64.2924C94.0129 63.719 93.9875 63.1383 93.9875 62.5504V55.0741H90.8394V52.7114H93.9839V48.6938H96.7108V52.7223H100.622L100.625 55.0922Z" fill="#BBDBF3"/>
<path d="M104.151 52.7296H106.878V54.7874H106.936C107.484 54.003 108.238 53.3851 109.115 53.0018C110.001 52.5851 110.968 52.3682 111.947 52.3667C112.98 52.3503 114.006 52.5455 114.961 52.9401C115.834 53.3043 116.619 53.8513 117.263 54.5442C117.909 55.2419 118.408 56.0611 118.734 56.9541C119.083 57.8984 119.257 58.8981 119.249 59.9047C119.259 60.9221 119.084 61.9328 118.734 62.8879C118.411 63.7766 117.911 64.5903 117.263 65.2796C116.617 65.967 115.833 66.509 114.961 66.8692C114.006 67.2651 112.981 67.4615 111.947 67.4463C110.942 67.4513 109.948 67.2279 109.042 66.793C108.193 66.4102 107.468 65.7965 106.951 65.0219H106.893V75.623H104.151V52.7296ZM111.602 54.9072C110.928 54.8913 110.258 55.0148 109.634 55.2701C109.07 55.5107 108.563 55.8667 108.145 56.3153C107.73 56.7719 107.411 57.3076 107.209 57.8904C106.763 59.1964 106.763 60.613 107.209 61.9189C107.411 62.5021 107.729 63.038 108.145 63.494C108.564 63.9368 109.069 64.2878 109.63 64.5247C110.895 65.0279 112.305 65.0279 113.57 64.5247C114.131 64.2878 114.637 63.9368 115.055 63.494C115.471 63.038 115.79 62.5021 115.992 61.9189C116.438 60.613 116.438 59.1964 115.992 57.8904C115.786 57.3067 115.464 56.7709 115.044 56.3153C114.626 55.8737 114.12 55.5239 113.559 55.2882C112.936 55.0273 112.267 54.8975 111.591 54.9072H111.602Z" fill="#BBDBF3"/>
<path d="M124.801 56.5441C124.272 56.5384 123.767 56.3259 123.393 55.9521C123.019 55.5783 122.806 55.0729 122.8 54.5443C122.831 54.0357 123.055 53.5581 123.426 53.2088C123.797 52.8595 124.288 52.665 124.798 52.665C125.307 52.665 125.798 52.8595 126.169 53.2088C126.54 53.5581 126.764 54.0357 126.795 54.5443C126.789 55.0729 126.576 55.5783 126.202 55.9521C125.828 56.3259 125.323 56.5384 124.794 56.5441H124.801ZM122.8 65.2543C122.796 64.7857 122.954 64.33 123.248 63.9651C123.542 63.6002 123.954 63.3488 124.413 63.2539C124.872 63.1589 125.35 63.2264 125.765 63.4446C126.18 63.6629 126.506 64.0185 126.687 64.4505C126.869 64.8825 126.895 65.3642 126.76 65.8131C126.626 66.262 126.34 66.6503 125.95 66.9116C125.561 67.1729 125.093 67.2909 124.627 67.2454C124.16 67.2 123.724 66.9939 123.392 66.6625C123.204 66.4817 123.055 66.2647 122.953 66.0245C122.851 65.7843 122.799 65.526 122.8 65.2652V65.2543Z" fill="#BBDBF3"/>
<path d="M131.134 68.4152L129.013 67.6276L138.708 44.3096L140.8 45.0971L131.134 68.4152Z" fill="#BBDBF3"/>
<path d="M142.92 68.4152L140.8 67.6276L150.495 44.3096L152.586 45.0971L142.92 68.4152Z" fill="#BBDBF3"/>
<path d="M471.256 460.746C472.895 462.394 474.901 463.631 477.11 464.355C479.318 465.08 481.667 465.272 483.965 464.916C491.256 463.828 496.481 457.251 496.481 449.88V440.655H528.674V470.161H537.847C545.664 470.161 552.491 476.026 553.068 483.818C553.214 485.845 552.941 487.88 552.267 489.797C551.593 491.715 550.532 493.473 549.15 494.963C547.767 496.454 546.093 497.644 544.231 498.461C542.369 499.277 540.359 499.703 538.326 499.71H528.674V529.216H438.899C437.793 529.215 436.733 528.775 435.951 527.993C435.17 527.212 434.73 526.151 434.73 525.046V440.655H466.927V450.305C466.926 452.244 467.308 454.165 468.051 455.957C468.794 457.748 469.883 459.376 471.256 460.746Z" fill="#C5D6FF"/>
<path d="M602.292 474.523C600.227 476.585 598.821 479.212 598.251 482.073C597.682 484.933 597.974 487.899 599.091 490.593C600.209 493.288 602.101 495.59 604.528 497.209C606.956 498.829 609.809 499.691 612.728 499.688H622.648V525.057C622.65 526.161 622.213 527.221 621.433 528.004C620.654 528.787 619.595 529.228 618.49 529.231H528.693V499.721H538.341C540.374 499.713 542.385 499.288 544.247 498.471C546.109 497.654 547.783 496.464 549.166 494.973C550.548 493.482 551.609 491.724 552.283 489.806C552.957 487.888 553.229 485.852 553.083 483.825C552.502 476.044 545.679 470.164 537.861 470.164H528.693V440.673H557.498V431.458C557.498 424.073 562.713 417.525 570.018 416.415C572.124 416.097 574.274 416.236 576.321 416.823C578.367 417.41 580.264 418.431 581.88 419.817C583.497 421.202 584.795 422.92 585.688 424.852C586.58 426.785 587.046 428.887 587.052 431.015V440.673H622.637V470.197H612.717C608.806 470.205 605.058 471.76 602.292 474.523Z" fill="#6ADB6A"/>
<path d="M438.899 352.122H528.685V381.613H537.858C545.675 381.613 552.502 387.478 553.079 395.27C553.225 397.297 552.952 399.333 552.278 401.25C551.604 403.167 550.543 404.926 549.161 406.416C547.778 407.906 546.104 409.097 544.242 409.913C542.38 410.73 540.37 411.155 538.337 411.163H528.685V440.654H496.492V449.869C496.492 457.24 491.267 463.798 483.976 464.905C481.868 465.228 479.715 465.092 477.664 464.507C475.613 463.922 473.713 462.902 472.093 461.516C470.473 460.13 469.171 458.411 468.277 456.476C467.382 454.541 466.916 452.436 466.909 450.305V440.654H434.712V356.289C434.712 355.74 434.821 355.197 435.031 354.69C435.242 354.183 435.551 353.723 435.94 353.336C436.329 352.949 436.79 352.642 437.298 352.434C437.806 352.226 438.35 352.12 438.899 352.122Z" fill="#FF5113"/>
<path d="M632.089 381.766H622.404V356.514C622.405 355.968 622.298 355.428 622.089 354.923C621.88 354.419 621.574 353.96 621.188 353.574C620.802 353.188 620.343 352.882 619.838 352.674C619.334 352.465 618.793 352.358 618.247 352.358H528.686V381.755H537.836C545.632 381.755 552.437 387.606 553.014 395.376C553.16 397.398 552.888 399.428 552.216 401.34C551.544 403.252 550.486 405.006 549.107 406.492C547.728 407.979 546.058 409.166 544.201 409.98C542.344 410.794 540.339 411.218 538.312 411.225H528.686V440.655H557.418V431.469C557.418 424.116 562.629 417.573 569.902 416.469C572.003 416.151 574.148 416.289 576.191 416.875C578.234 417.46 580.127 418.478 581.741 419.86C583.354 421.242 584.651 422.956 585.543 424.884C586.434 426.812 586.899 428.91 586.907 431.034V440.655H622.404V411.258H632.089C635.998 411.247 639.745 409.69 642.509 406.927C645.273 404.164 646.831 400.42 646.842 396.512C646.831 392.605 645.273 388.86 642.509 386.097C639.745 383.334 635.998 381.777 632.089 381.766Z" fill="#2EC6FC"/>
<path d="M561.442 521.304V511.298C561.391 509.765 561.644 508.237 562.186 506.802C562.6 505.742 563.245 504.787 564.074 504.007C564.81 503.341 565.69 502.854 566.645 502.584C568.442 502.047 570.357 502.047 572.153 502.584C573.11 502.855 573.99 503.342 574.728 504.007C575.556 504.788 576.201 505.742 576.616 506.802C577.15 508.239 577.397 509.766 577.342 511.298V517.446H589.884V521.304H561.442ZM573.983 517.446V512.387C573.983 511.639 573.922 510.893 573.802 510.155C573.698 509.465 573.473 508.799 573.137 508.188C572.813 507.606 572.333 507.126 571.75 506.802C571.012 506.455 570.206 506.275 569.39 506.275C568.574 506.275 567.768 506.455 567.03 506.802C566.448 507.127 565.968 507.607 565.643 508.188C565.31 508.801 565.085 509.466 564.978 510.155C564.859 510.893 564.8 511.64 564.8 512.387V517.446H573.983Z" fill="white"/>
<path d="M561.442 497.478V493.62H573.261V478.874H561.442V475.02H589.899V478.874H576.877V493.62H589.899V497.478H561.442Z" fill="white"/>
<path d="M561.442 467.711V457.712C561.391 456.179 561.644 454.651 562.186 453.216C562.599 452.155 563.244 451.2 564.074 450.421C564.81 449.754 565.69 449.266 566.645 448.995C568.443 448.463 570.356 448.463 572.153 448.995C573.11 449.267 573.991 449.755 574.728 450.421C575.557 451.201 576.203 452.155 576.616 453.216C577.15 454.653 577.397 456.18 577.342 457.712V463.86H589.884V467.718L561.442 467.711ZM573.984 463.853V458.772C573.983 458.026 573.922 457.281 573.802 456.544C573.698 455.854 573.473 455.188 573.137 454.577C572.813 453.995 572.333 453.515 571.75 453.19C571.013 452.841 570.207 452.66 569.39 452.66C568.574 452.66 567.768 452.841 567.03 453.19C566.448 453.516 565.968 453.995 565.643 454.577C565.31 455.189 565.085 455.855 564.978 456.544C564.859 457.281 564.8 458.026 564.8 458.772V463.853H573.984Z" fill="white"/>
<path d="M555.951 387.842H559.038V394.737H567.146V387.842H570.236V405.182H567.146V397.539H559.038V405.182H555.951V387.842Z" fill="white"/>
<path d="M577.647 390.633H572.328V387.842H586.05V390.633H580.734V405.182H577.647V390.633Z" fill="white"/>
<path d="M588.25 387.842H592.97L597.604 399.989L602.284 387.842H606.939V405.182H604.002V390.781H603.951L598.682 405.182H596.525L591.257 390.781H591.206V405.182H588.268L588.25 387.842Z" fill="white"/>
<path d="M610.865 387.842H613.958V402.392H621.333V405.182H610.868L610.865 387.842Z" fill="white"/>
<path d="M477.429 460.746C479.068 462.394 481.074 463.631 483.283 464.355C485.491 465.08 487.84 465.272 490.138 464.916C497.429 463.828 502.65 457.251 502.65 449.88V440.655H534.847V470.161H544.02C551.837 470.161 558.66 476.026 559.241 483.818C559.387 485.845 559.114 487.88 558.44 489.797C557.766 491.715 556.705 493.473 555.323 494.963C553.94 496.454 552.266 497.644 550.404 498.461C548.542 499.277 546.532 499.703 544.499 499.71H534.847V529.216H445.057C443.952 529.215 442.891 528.775 442.11 527.993C441.328 527.212 440.889 526.151 440.889 525.046V440.655H473.071V450.305C473.074 452.247 473.46 454.168 474.208 455.96C474.955 457.752 476.05 459.379 477.429 460.746Z" fill="#E9EFFD"/>
<path d="M608.45 474.523C606.384 476.584 604.976 479.211 604.405 482.072C603.834 484.933 604.126 487.899 605.243 490.594C606.361 493.289 608.253 495.592 610.681 497.211C613.109 498.83 615.963 499.692 618.882 499.688H628.806V525.057C628.808 526.161 628.371 527.221 627.591 528.004C626.812 528.787 625.753 529.228 624.648 529.231H534.851V499.721H544.499C546.533 499.713 548.543 499.288 550.405 498.471C552.267 497.654 553.942 496.464 555.324 494.973C556.707 493.482 557.768 491.723 558.441 489.806C559.115 487.888 559.388 485.852 559.241 483.825C558.66 476.044 551.834 470.164 544.02 470.164H534.851V440.673H563.653V431.458C563.653 424.073 568.871 417.525 576.173 416.415C578.279 416.097 580.428 416.236 582.476 416.823C584.523 417.41 586.419 418.431 588.036 419.817C589.653 421.202 590.952 422.92 591.845 424.852C592.738 426.785 593.203 428.887 593.21 431.015V440.673H628.795V470.197H618.871C614.962 470.205 611.215 471.761 608.45 474.523Z" fill="#407BFF"/>
<path d="M445.057 352.122H534.844V381.613H544.016C551.834 381.613 558.657 387.478 559.237 395.27C559.383 397.297 559.111 399.333 558.437 401.25C557.763 403.167 556.701 404.926 555.319 406.416C553.936 407.906 552.262 409.097 550.4 409.913C548.538 410.73 546.528 411.155 544.495 411.163H534.844V440.654H502.647V449.869C502.647 457.24 497.425 463.798 490.134 464.905C488.026 465.227 485.874 465.09 483.824 464.505C481.773 463.919 479.874 462.899 478.254 461.513C476.634 460.127 475.332 458.409 474.437 456.474C473.542 454.54 473.075 452.436 473.068 450.305V440.654H440.874V356.288C440.874 355.74 440.983 355.197 441.193 354.691C441.403 354.184 441.712 353.724 442.1 353.337C442.489 352.95 442.95 352.644 443.458 352.435C443.965 352.227 444.509 352.12 445.057 352.122Z" fill="#FF6C37"/>
<path d="M638.247 381.766H628.563V356.514C628.563 355.412 628.125 354.355 627.345 353.576C626.565 352.796 625.508 352.358 624.405 352.358H534.844V381.755H543.991C551.79 381.755 558.595 387.606 559.172 395.376C559.317 397.397 559.045 399.427 558.372 401.339C557.7 403.251 556.641 405.004 555.263 406.49C553.884 407.976 552.215 409.163 550.358 409.978C548.502 410.792 546.497 411.217 544.47 411.225H534.844V440.655H563.577V431.469C563.577 424.116 568.787 417.573 576.06 416.469C578.161 416.151 580.306 416.289 582.349 416.875C584.392 417.46 586.284 418.478 587.898 419.86C589.511 421.242 590.808 422.956 591.699 424.884C592.59 426.812 593.054 428.91 593.061 431.034V440.655H628.563V411.258H638.247C642.156 411.246 645.902 409.689 648.666 406.926C651.43 404.163 652.988 400.419 653 396.512C652.988 392.605 651.43 388.861 648.666 386.098C645.902 383.335 642.156 381.778 638.247 381.766Z" fill="#FFBC96"/>
<path d="M483.286 498.799C483.283 500.243 483.038 501.676 482.56 503.038C482.108 504.363 481.394 505.584 480.461 506.627C479.491 507.689 478.303 508.529 476.979 509.088C475.434 509.726 473.773 510.037 472.102 510.003C469.168 510.003 466.768 509.323 464.901 507.963C463.028 506.598 461.801 504.435 461.201 501.467L467.374 500.015C467.531 501.133 468.059 502.165 468.874 502.947C469.662 503.677 470.705 504.068 471.779 504.036C473.665 504.036 474.948 503.4 475.628 502.127C476.308 500.854 476.648 499.099 476.648 496.861V471.982H483.253L483.286 498.799Z" fill="#407BFF"/>
<path d="M509.488 479.941C508.8 478.933 507.822 478.156 506.684 477.713C505.51 477.241 504.254 477 502.988 477.005C502.238 477.004 501.491 477.091 500.762 477.267C500.072 477.432 499.416 477.715 498.823 478.105C498.248 478.487 497.772 479 497.432 479.6C497.07 480.268 496.891 481.019 496.913 481.778C496.882 482.328 496.985 482.877 497.212 483.379C497.44 483.881 497.786 484.32 498.22 484.66C499.22 485.39 500.321 485.971 501.488 486.383C502.781 486.873 504.194 487.349 505.733 487.799C507.226 488.235 508.653 488.868 509.978 489.682C511.287 490.497 512.403 491.589 513.246 492.88C514.117 494.203 514.553 495.967 514.553 498.171C514.598 499.969 514.225 501.753 513.464 503.383C512.759 504.823 511.736 506.084 510.472 507.07C509.184 508.072 507.716 508.819 506.147 509.27C504.463 509.763 502.716 510.007 500.962 509.995C498.693 510.003 496.44 509.614 494.306 508.845C492.158 508.069 490.257 506.732 488.801 504.973L493.769 500.175C494.561 501.386 495.655 502.37 496.942 503.031C498.227 503.704 499.656 504.054 501.107 504.051C501.886 504.051 502.662 503.945 503.413 503.739C504.158 503.538 504.865 503.218 505.508 502.791C506.129 502.381 506.649 501.837 507.029 501.198C507.419 500.521 507.618 499.751 507.603 498.97C507.603 497.61 507.167 496.562 506.296 495.827C505.314 495.035 504.21 494.408 503.028 493.969C501.735 493.461 500.319 492.985 498.783 492.517C497.293 492.086 495.866 491.461 494.538 490.659C493.228 489.867 492.111 488.792 491.27 487.512C490.399 486.206 489.963 484.453 489.963 482.253C489.918 480.52 490.323 478.804 491.14 477.274C491.903 475.902 492.958 474.714 494.23 473.794C495.551 472.845 497.033 472.144 498.605 471.725C500.244 471.269 501.937 471.04 503.638 471.043C505.568 471.039 507.487 471.339 509.324 471.932C511.172 472.533 512.863 473.536 514.277 474.868L509.488 479.941Z" fill="#407BFF"/>
<path d="M567.596 521.304V511.298C567.542 509.766 567.788 508.239 568.323 506.802C568.738 505.741 569.384 504.787 570.214 504.007C570.95 503.341 571.83 502.854 572.785 502.584C574.582 502.047 576.497 502.047 578.294 502.584C579.249 502.855 580.128 503.342 580.864 504.007C581.695 504.787 582.341 505.741 582.756 506.802C583.29 508.239 583.537 509.766 583.482 511.298V517.446H596.024V521.304H567.596ZM580.138 517.446V512.387C580.14 511.639 580.079 510.893 579.957 510.155C579.853 509.466 579.629 508.8 579.296 508.188C578.97 507.607 578.49 507.127 577.909 506.802C577.17 506.455 576.364 506.275 575.548 506.275C574.733 506.275 573.927 506.455 573.188 506.802C572.606 507.126 572.126 507.606 571.801 508.188C571.465 508.799 571.24 509.465 571.137 510.155C571.017 510.893 570.958 511.64 570.959 512.387V517.446H580.138Z" fill="white"/>
<path d="M567.596 497.478V493.62H579.416V478.874H567.596V475.02H596.057V478.874H583.032V493.62H596.057V497.478H567.596Z" fill="white"/>
<path d="M567.596 467.711V457.712C567.541 456.18 567.788 454.653 568.323 453.216C568.736 452.155 569.383 451.2 570.214 450.421C570.95 449.754 571.83 449.266 572.785 448.995C574.583 448.463 576.496 448.463 578.294 448.995C579.249 449.267 580.129 449.755 580.864 450.421C581.696 451.2 582.342 452.155 582.756 453.216C583.29 454.653 583.537 456.18 583.482 457.712V463.86H596.024V467.718L567.596 467.711ZM580.138 463.853V458.772C580.14 458.026 580.079 457.28 579.957 456.544C579.853 455.855 579.629 455.189 579.296 454.577C578.97 453.995 578.49 453.516 577.909 453.19C577.171 452.841 576.365 452.66 575.548 452.66C574.732 452.66 573.926 452.841 573.188 453.19C572.606 453.515 572.126 453.995 571.801 454.577C571.465 455.188 571.24 455.854 571.137 456.544C571.018 457.281 570.958 458.026 570.959 458.772V463.853H580.138Z" fill="white"/>
<path d="M450.617 385.377H456.79C457.735 385.347 458.678 385.502 459.564 385.835C460.216 386.09 460.803 386.488 461.281 387C461.693 387.452 461.994 387.993 462.16 388.582C462.494 389.687 462.494 390.866 462.16 391.972C461.994 392.56 461.693 393.102 461.281 393.554C460.804 394.067 460.217 394.465 459.564 394.719C458.678 395.052 457.735 395.207 456.79 395.176H452.991V402.91H450.617V385.377ZM452.991 393.097H456.111C456.57 393.098 457.03 393.06 457.483 392.984C457.908 392.921 458.319 392.783 458.696 392.578C459.054 392.377 459.351 392.082 459.553 391.725C459.764 391.27 459.874 390.775 459.874 390.273C459.874 389.772 459.764 389.276 459.553 388.822C459.351 388.464 459.054 388.169 458.696 387.969C458.319 387.763 457.908 387.626 457.483 387.562C457.03 387.486 456.57 387.449 456.111 387.45H452.991V393.097Z" fill="white"/>
<path d="M463.34 391.166H465.915L469.39 400.323H469.437L472.77 391.166H475.148L469.578 405.418C469.379 405.93 469.175 406.394 468.961 406.815C468.765 407.216 468.508 407.583 468.199 407.904C467.887 408.207 467.516 408.442 467.109 408.594C466.616 408.773 466.094 408.858 465.57 408.844C465.236 408.843 464.902 408.823 464.571 408.782C464.236 408.741 463.908 408.653 463.598 408.521L463.867 406.492C464.288 406.669 464.739 406.762 465.196 406.765C465.493 406.773 465.789 406.727 466.071 406.63C466.301 406.542 466.51 406.406 466.684 406.231C466.86 406.054 467.006 405.849 467.116 405.625C467.229 405.396 467.345 405.131 467.461 404.834L468.188 402.979L463.34 391.166Z" fill="white"/>
<path d="M483.391 393.111H480.196V398.432C480.196 398.762 480.196 399.085 480.221 399.408C480.234 399.706 480.296 399.999 480.406 400.276C480.509 400.525 480.682 400.739 480.904 400.893C481.198 401.068 481.538 401.151 481.88 401.129C482.154 401.127 482.428 401.102 482.697 401.052C482.967 401.008 483.227 400.916 483.464 400.78V402.812C483.142 402.976 482.794 403.081 482.436 403.121C482.112 403.169 481.786 403.198 481.459 403.208C480.776 403.241 480.094 403.117 479.466 402.845C479.037 402.643 478.676 402.32 478.427 401.916C478.2 401.527 478.065 401.091 478.031 400.642C477.988 400.17 477.97 399.699 477.97 399.22V393.111H475.395V391.181H477.97V387.893H480.196V391.181H483.391V393.111Z" fill="white"/>
<path d="M486.26 384.19H488.489V392.973H488.536C488.842 392.322 489.352 391.788 489.989 391.453C490.726 391.054 491.554 390.854 492.392 390.872C492.943 390.871 493.489 390.958 494.012 391.13C494.519 391.296 494.983 391.571 495.374 391.935C495.782 392.328 496.099 392.805 496.303 393.333C496.552 393.975 496.675 394.658 496.666 395.347V402.91H494.44V395.982C494.451 395.506 494.375 395.033 494.215 394.585C494.089 394.232 493.887 393.911 493.623 393.645C493.381 393.409 493.088 393.231 492.766 393.126C492.445 393.017 492.108 392.961 491.768 392.962C491.328 392.959 490.891 393.035 490.479 393.187C490.081 393.337 489.724 393.578 489.437 393.891C489.123 394.246 488.888 394.663 488.747 395.115C488.571 395.683 488.487 396.276 488.5 396.871V402.91H486.27L486.26 384.19Z" fill="white"/>
<path d="M499.452 397.031C499.445 396.206 499.611 395.389 499.938 394.632C500.421 393.507 501.223 392.548 502.246 391.874C503.269 391.2 504.467 390.841 505.692 390.841C506.917 390.841 508.115 391.2 509.137 391.874C510.16 392.548 510.962 393.507 511.445 394.632C511.771 395.39 511.935 396.207 511.928 397.031C511.931 397.841 511.771 398.644 511.46 399.392C511.148 400.139 510.69 400.818 510.112 401.386C508.929 402.545 507.339 403.194 505.683 403.194C504.026 403.194 502.436 402.545 501.253 401.386C500.677 400.816 500.22 400.138 499.908 399.39C499.597 398.643 499.437 397.841 499.437 397.031H499.452ZM501.83 397.031C501.824 397.591 501.916 398.147 502.102 398.675C502.267 399.152 502.528 399.591 502.868 399.963C503.209 400.326 503.622 400.613 504.081 400.805C505.114 401.216 506.265 401.216 507.298 400.805C507.757 400.613 508.171 400.326 508.511 399.963C508.853 399.591 509.115 399.152 509.281 398.675C509.644 397.609 509.644 396.453 509.281 395.387C509.115 394.91 508.853 394.471 508.511 394.099C508.17 393.737 507.757 393.451 507.298 393.26C506.266 392.844 505.113 392.844 504.081 393.26C503.623 393.451 503.209 393.737 502.868 394.099C502.528 394.471 502.267 394.91 502.102 395.387C501.916 395.915 501.824 396.471 501.83 397.031Z" fill="white"/>
<path d="M514.728 391.166H516.953V392.98H517.004C517.309 392.328 517.819 391.794 518.457 391.46C519.193 391.061 520.02 390.861 520.857 390.879C521.408 390.878 521.956 390.965 522.48 391.137C522.987 391.304 523.451 391.578 523.842 391.942C524.249 392.335 524.565 392.812 524.768 393.34C525.018 393.981 525.141 394.665 525.131 395.354V402.91H522.901V395.982C522.913 395.506 522.838 395.033 522.68 394.585C522.552 394.231 522.349 393.911 522.084 393.645C521.844 393.408 521.552 393.23 521.231 393.126C520.908 393.016 520.569 392.961 520.229 392.962C519.79 392.958 519.354 393.034 518.943 393.187C518.545 393.335 518.187 393.577 517.901 393.891C517.585 394.245 517.349 394.662 517.208 395.114C517.031 395.683 516.948 396.276 516.961 396.871V402.91H514.735L514.728 391.166Z" fill="white"/>
<path d="M562.106 387.842H565.193V394.737H573.29V387.842H576.38V405.182H573.29V397.539H565.193V405.182H562.106V387.842Z" fill="white"/>
<path d="M583.82 390.633H578.5V387.842H592.222V390.633H586.907V405.182H583.82V390.633Z" fill="white"/>
<path d="M594.405 387.842H599.125L603.755 399.989L608.435 387.842H613.094V405.182H610.153V390.781H610.102L604.833 405.182H602.68L597.411 390.781H597.361V405.182H594.419L594.405 387.842Z" fill="white"/>
<path d="M617.023 387.842H620.109V402.392H627.488V405.182H617.023V387.842Z" fill="white"/>
<path d="M149.3 170.02C149.3 170.02 143.363 162.461 152.205 158.77C156.664 156.915 157.924 154.509 156.675 151.148C155.426 147.788 156.802 144.144 160.35 142.177C163.897 140.21 165.408 134.425 172.786 137.822C172.786 137.822 182.089 141.451 181.715 147.152C181.341 152.854 181.414 152.35 183.4 156.226C185.386 160.102 181.247 164.715 181.094 167.034C180.942 169.353 181.936 170.024 181.936 170.024L149.3 170.02Z" fill="#322A28"/>
<path d="M206.988 221.247C205.012 222.452 202.639 222.825 200.388 222.287C198.138 221.748 196.192 220.341 194.976 218.373L176.094 187.615C174.887 185.643 174.509 183.273 175.045 181.023C175.58 178.773 176.985 176.827 178.952 175.609C180.928 174.405 183.301 174.03 185.552 174.568C187.803 175.106 189.75 176.512 190.967 178.48L209.849 209.242C211.055 211.215 211.431 213.585 210.895 215.834C210.359 218.084 208.954 220.03 206.988 221.247Z" fill="#FF6C37"/>
<path d="M149.195 232.102C149.195 232.102 146.653 235.006 145.636 237.35C144.62 239.695 156.711 238.407 156.711 238.407L155.393 227.08L149.195 232.102Z" fill="#088CFF"/>
<path d="M229.809 281.726C227.525 284.889 224.081 287.02 220.229 287.654C216.378 288.288 212.432 287.373 209.253 285.108L163.273 252.147C160.11 249.864 157.979 246.423 157.345 242.575C156.711 238.728 157.625 234.786 159.888 231.609C162.172 228.446 165.616 226.315 169.467 225.681C173.317 225.047 177.263 225.963 180.441 228.227L226.425 261.188C229.588 263.471 231.719 266.912 232.353 270.759C232.987 274.607 232.072 278.549 229.809 281.726Z" fill="black"/>
<path d="M216.563 285.848C214.278 289.011 210.834 291.143 206.983 291.776C203.131 292.41 199.185 291.495 196.007 289.231L150.026 256.288C146.862 254.005 144.729 250.563 144.095 246.715C143.461 242.866 144.377 238.922 146.642 235.746C148.926 232.582 152.37 230.45 156.221 229.816C160.073 229.181 164.019 230.096 167.198 232.36L213.179 265.325C216.338 267.607 218.467 271.045 219.101 274.89C219.735 278.734 218.822 282.673 216.563 285.848Z" fill="black"/>
<path d="M161.697 170.75L146.41 177.946C146.41 177.946 149.809 217.001 150.161 221.302C150.513 225.602 149.195 232.102 149.195 232.102H185.826C185.826 232.102 185.386 211.031 187.844 205.148C189.511 201.155 190.659 198.738 189.689 194.173C188.72 189.607 185.473 182.759 186.617 174.854L177.216 171.08L161.697 170.75Z" fill="#FF6C37"/>
<path d="M228.386 353.854L225.572 343.935L240.873 341.725L242.111 351.727L228.386 353.854Z" fill="#A06753"/>
<path d="M177.22 153.318V171.102C177.216 171.29 177.201 171.478 177.176 171.664C176.995 173.116 176.058 176.84 171.225 176.789C166.813 176.738 163.73 173.497 162.419 171.795C162.156 171.47 161.913 171.128 161.693 170.771L163.915 153.351L177.22 153.318Z" fill="#A06753"/>
<path d="M176.671 352.126L190.306 354.754L193.197 346.112L178.058 343.855L176.671 352.126Z" fill="#A06753"/>
<path d="M177.216 171.08L169.315 160.998L177.216 159.477V171.08Z" fill="#824C3A"/>
<path d="M177.583 164.105C174.435 165.132 170.074 163.883 166.987 160.642C163.901 157.401 156.965 145.272 166.221 139.622C175.477 133.971 180.96 143.327 181.199 144.772C181.199 144.772 181.29 149.874 181.348 153.482C181.37 154.396 181.381 155.209 181.392 155.823C181.392 155.921 181.392 156.011 181.392 156.098C181.443 158.889 180.727 163.078 177.583 164.105Z" fill="#A06753"/>
<path d="M131.156 226.096C129.067 225.096 127.46 223.31 126.687 221.129C125.913 218.947 126.035 216.549 127.027 214.457L142.608 181.888C143.612 179.802 145.401 178.199 147.585 177.428C149.769 176.658 152.169 176.783 154.26 177.776C156.346 178.78 157.949 180.568 158.72 182.749C159.492 184.93 159.369 187.328 158.378 189.419L142.811 221.984C141.808 224.071 140.018 225.675 137.833 226.446C135.649 227.217 133.248 227.091 131.156 226.096Z" fill="#FF6C37"/>
<path d="M213.894 261.623C212.149 262.249 210.543 263.213 209.171 264.459C207.798 265.705 206.684 267.209 205.892 268.885C205.101 270.561 204.648 272.377 204.558 274.228C204.469 276.08 204.745 277.93 205.372 279.675L223.843 346.091L246.603 342.556L232.761 274.071C232.638 271.88 232.005 269.747 230.911 267.844C229.817 265.94 228.293 264.318 226.461 263.108C224.629 261.897 222.54 261.131 220.359 260.871C218.178 260.611 215.967 260.863 213.901 261.609L213.894 261.623Z" fill="black"/>
<path d="M174.3 362.546L180.756 363.682L181.904 359.591L184.685 364.375L199.907 367.057L190.306 354.754L176.671 352.126L174.3 362.546Z" fill="#322A28"/>
<path d="M207.757 262.537C205.931 262.216 204.059 262.257 202.249 262.658C200.438 263.059 198.725 263.813 197.206 264.876C195.687 265.94 194.392 267.292 193.396 268.855C192.4 270.418 191.721 272.162 191.399 273.988L173.919 344.86L195.706 349.066L217.939 282.716C218.919 280.752 219.426 278.586 219.421 276.391C219.416 274.197 218.898 272.033 217.908 270.074C216.919 268.115 215.485 266.413 213.721 265.106C211.958 263.798 209.913 262.92 207.75 262.541L207.757 262.537Z" fill="black"/>
<path d="M186.003 356.706L192.093 357.762" stroke="#D1DDFF" stroke-width="2.39236" stroke-miterlimit="10"/>
<path d="M172.779 137.829C172.779 137.829 181.218 138.101 182.3 146.176L178.015 146.383C178.015 146.383 178.084 143.61 175.927 142.391C175.927 142.391 177.445 144.507 176.926 146.579L171.966 147.073C171.966 147.073 171.748 144.06 172.013 142.874C172.013 142.874 170.814 145.625 170.775 147.265L167.281 148.223C167.281 148.223 167.307 151.032 166.04 152.041C164.772 153.05 163.095 157.572 163.095 157.572C163.095 157.572 159.464 147.635 161.072 144.467C162.681 141.298 165.538 136.225 172.779 137.829Z" fill="#322A28"/>
<path d="M187.104 359.065L193.197 360.117" stroke="#D1DDFF" stroke-width="2.39236" stroke-miterlimit="10"/>
<path d="M229.548 364.327L236.018 363.289L235.761 359.047L239.954 362.658L255.22 360.205L242.111 351.727L228.386 353.853L229.548 364.327Z" fill="#322A28"/>
<path d="M238.687 354.982L244.788 353.98" stroke="#D1DDFF" stroke-width="2.39236" stroke-miterlimit="10"/>
<path d="M240.503 356.848L246.603 355.846" stroke="#D1DDFF" stroke-width="2.39236" stroke-miterlimit="10"/>
<path d="M178.694 240.588C178.694 240.588 202.899 257.645 207.572 260.912C212.246 264.178 219.159 267.84 219.428 275.654C219.697 283.468 211.803 300.841 211.803 300.841" stroke="#E5F0F8" stroke-width="1.19618" stroke-miterlimit="10"/>
<path d="M165.517 154.422C166.061 156.08 166.05 157.147 164.747 157.576C164.005 157.785 163.212 157.701 162.531 157.341C161.85 156.98 161.334 156.372 161.09 155.641C160.542 153.983 161.156 152.288 162.459 151.859C163.763 151.431 164.954 152.759 165.517 154.422Z" fill="#A06753"/>
<path d="M162.194 153.532C162.194 153.532 164.286 153.431 164.467 155.198C164.228 155.004 163.949 154.864 163.65 154.788C163.351 154.711 163.039 154.7 162.735 154.755" stroke="#724638" stroke-width="0.598089" stroke-linecap="round" stroke-linejoin="round"/>
<path d="M173.226 152.023C173.226 152.698 173.589 153.246 174.01 153.249C174.431 153.253 174.805 152.705 174.809 152.03C174.812 151.355 174.446 150.807 174.024 150.803C173.603 150.8 173.229 151.348 173.226 152.023Z" fill="#322A28"/>
<path d="M179.003 151.533C179.003 152.208 179.366 152.756 179.787 152.76C180.208 152.763 180.582 152.215 180.586 151.54C180.589 150.865 180.223 150.317 179.802 150.313C179.38 150.31 179.006 150.858 179.003 151.533Z" fill="#322A28"/>
<path d="M175.364 159.862C175.554 159.928 175.754 159.956 175.955 159.944C176.155 159.932 176.351 159.881 176.531 159.793C176.712 159.706 176.873 159.583 177.006 159.433C177.139 159.283 177.242 159.108 177.307 158.918L174.402 157.92C174.336 158.111 174.31 158.313 174.323 158.514C174.336 158.715 174.388 158.911 174.478 159.092C174.567 159.272 174.692 159.433 174.844 159.566C174.996 159.698 175.173 159.799 175.364 159.862Z" fill="white"/>
<path d="M171.69 150.655C171.69 150.655 173.055 148.982 174.631 149.599" stroke="#2C3447" stroke-width="0.887941" stroke-miterlimit="10"/>
<path d="M179.133 149.323C179.133 149.323 180.121 149.145 181.163 150.219" stroke="#2C3447" stroke-width="0.887941" stroke-miterlimit="10"/>
<path d="M176.962 151.616C176.962 151.616 177.016 154.962 178.981 155.383C178.567 155.739 178.087 156.009 177.568 156.178" stroke="#2C3447" stroke-width="0.887941" stroke-miterlimit="10"/>
<path d="M174.297 155.703C174.13 156.345 173.029 156.621 171.838 156.316C170.647 156.011 169.812 155.227 169.979 154.599C170.146 153.972 171.243 153.681 172.434 153.986C173.625 154.291 174.46 155.06 174.297 155.703Z" fill="#A14C53"/>
<path d="M181.392 155.797C180.666 155.822 180.099 155.597 179.94 155.162C179.751 154.592 180.354 153.881 181.33 153.456C181.37 154.371 181.381 155.184 181.392 155.797Z" fill="#A14C53"/>
<path d="M194.181 216.123C192.086 211.296 193.858 205.834 198.12 203.986L236.973 192.942C238.239 192.284 239.452 191.53 240.604 190.689C243.041 188.831 250.256 184.563 250.862 185.608C251.469 186.653 247.119 190.576 247.736 190.805C248.353 191.033 252.213 188.899 253.789 187.858C255.365 186.816 258.379 184.04 259.417 184.417C260.456 184.795 260.307 186.417 260.307 186.417C260.307 186.417 261.331 185.216 261.955 185.996C262.58 186.776 261.443 189.034 261.443 189.034C261.443 189.034 261.944 188.308 262.42 189.342C262.896 190.377 260.053 193.149 260.053 193.149C260.151 193.109 260.257 193.09 260.363 193.095C260.47 193.1 260.574 193.128 260.668 193.178C260.762 193.227 260.844 193.297 260.909 193.382C260.973 193.466 261.018 193.564 261.04 193.668C261.294 194.503 257.151 197.737 253.546 199.036C250.328 200.194 242.373 202.103 240.702 202.498L205.735 221.537C201.465 223.388 196.279 220.95 194.181 216.123Z" fill="#A06753"/>
<path d="M149.449 208.084L154.634 197.24" stroke="#2C3447" stroke-width="1.22968" stroke-miterlimit="10"/>
<path d="M172.245 252.699L158.549 240.588H199.064L214.137 252.699H172.245Z" fill="#89A5C7"/>
<path d="M165.106 158.131C165.104 158.385 165.027 158.632 164.884 158.842C164.741 159.052 164.539 159.215 164.304 159.31C164.068 159.406 163.81 159.429 163.561 159.378C163.312 159.327 163.084 159.203 162.906 159.022C162.727 158.841 162.607 158.611 162.559 158.362C162.511 158.113 162.538 157.855 162.637 157.621C162.735 157.387 162.901 157.187 163.113 157.047C163.325 156.907 163.574 156.834 163.828 156.835C163.997 156.836 164.165 156.87 164.32 156.936C164.476 157.002 164.618 157.097 164.736 157.218C164.855 157.338 164.949 157.481 165.012 157.637C165.076 157.794 165.108 157.962 165.106 158.131Z" stroke="white" stroke-width="1.01277" stroke-miterlimit="10"/>
<path d="M214.137 252.698H172.245L183.178 221.345H225.07L214.137 252.698Z" fill="#A5BBD6"/>
<path d="M172.703 251.178L159.006 239.067H199.522L214.595 251.178H172.703Z" fill="#89A5C7"/>
<path d="M213.346 252.006H171.457L182.387 220.652H224.279L213.346 252.006Z" fill="#A5BBD6"/>
<path d="M224.279 220.652L225.071 221.346H183.178L172.245 252.699L171.457 252.006L182.387 220.652H224.279Z" fill="#89A5C7"/>
<path d="M159.006 239.067L158.549 240.588L172.245 252.698L172.779 251.178L159.006 239.067Z" fill="#586773"/>
<path d="M205.067 237.376C205.067 238.512 202.99 239.434 200.422 239.434C197.855 239.434 195.778 238.512 195.778 237.376C195.778 236.24 197.859 235.322 200.422 235.322C202.986 235.322 205.067 236.244 205.067 237.376Z" fill="#89A5C7"/>
<path d="M127.005 213.553C129.478 208.904 134.856 206.886 138.959 209.067L171.82 232.567C173.123 233.144 174.466 233.623 175.84 234C178.814 234.748 186.65 237.728 186.21 238.853C185.771 239.978 179.99 239.023 180.194 239.644C180.397 240.265 184.475 241.959 186.272 242.547C188.07 243.135 192.118 243.76 192.47 244.805C192.823 245.85 191.465 246.746 191.465 246.746C191.465 246.746 193.041 246.797 192.819 247.774C192.598 248.75 190.121 249.269 190.121 249.269C190.121 249.269 191 249.207 190.484 250.223C189.969 251.24 186.029 250.742 186.029 250.742C186.121 250.794 186.201 250.865 186.263 250.951C186.325 251.036 186.367 251.134 186.387 251.238C186.407 251.341 186.404 251.448 186.379 251.551C186.353 251.653 186.306 251.749 186.239 251.831C185.746 252.557 180.637 251.327 177.372 249.316C174.467 247.523 168.008 242.497 166.657 241.437L129.983 225.962C125.872 223.784 124.536 218.199 127.005 213.553Z" fill="#A06753"/>
<path d="M187.721 205.478C187.721 205.478 190.473 199.671 190.027 196.681C189.58 193.69 187.122 185.554 186.806 183.057" stroke="#2C3447" stroke-width="1.22968" stroke-miterlimit="10"/>
<path d="M379.287 316.334L398.176 316.011L397.188 296.188L396.716 286.705L396.687 286.233L381.909 280.023L381.426 286.723L381.07 291.608L379.287 316.334Z" fill="#FDAE97"/>
<path d="M416.23 377.698L424.171 443.42C424.54 445.817 424.325 448.267 423.546 450.563C422.766 452.86 421.445 454.934 419.694 456.612C417.942 458.29 415.812 459.522 413.484 460.203C411.156 460.884 408.697 460.994 406.317 460.525C398.107 458.928 394.966 452.591 393.492 443.17C390.66 425.082 380.783 370.81 380.783 370.81L416.23 377.698Z" fill="#088CFC"/>
<path d="M364.723 374.392L393.902 376.348L393.757 408.659L390.293 413.78L387.083 444.93L357.544 442.567L364.723 374.392Z" fill="#088CFC"/>
<path d="M388.485 308.041C381.557 308.194 378.183 304.39 377.457 302.717L380.467 301.904L397.446 301.363L399.505 302.024C398.634 303.639 395.569 307.885 388.485 308.041Z" fill="#FDAE97"/>
<path d="M363.888 351.142L364.185 379.473H416.444L416.201 308.049L397.907 301.436C397.7 301.799 397.479 302.202 397.207 302.612L397.138 302.699C396.146 303.962 394.233 305.16 388.931 305.279C384.505 305.381 382.334 304.768 381.103 303.962C380.435 303.516 379.904 302.641 379.599 302.147L362.45 306.303L363.615 342.36L363.888 351.142Z" fill="white"/>
<path d="M377.457 302.717C377.457 302.717 378.939 329.149 378.724 344.425C378.51 359.7 377.457 398.316 377.457 398.316C377.457 398.316 367.777 398.519 358.869 396.715C358.869 396.715 358.735 379.226 361.19 367.162C363.644 355.098 362.417 306.303 362.417 306.303L377.457 302.717Z" fill="black"/>
<path d="M432.824 365.732L432.712 365.776C430.364 366.688 427.75 366.634 425.442 365.626C423.133 364.618 421.318 362.738 420.391 360.397L404.836 320.755C403.922 318.408 403.975 315.796 404.983 313.489C405.99 311.181 407.871 309.366 410.213 308.441L410.326 308.397C412.674 307.484 415.288 307.538 417.596 308.545C419.905 309.553 421.721 311.434 422.646 313.776L438.213 353.414C439.125 355.763 439.07 358.376 438.06 360.684C437.051 362.992 435.168 364.807 432.824 365.732Z" fill="black"/>
<path d="M429.705 510.133L402.258 510.111L393.982 446.273C393.774 444.295 393.958 442.295 394.523 440.388C395.088 438.481 396.023 436.704 397.275 435.159C398.527 433.613 400.072 432.329 401.82 431.38C403.569 430.431 405.488 429.835 407.466 429.627C409.445 429.419 411.446 429.603 413.354 430.167C415.262 430.732 417.04 431.667 418.586 432.918C420.133 434.17 421.417 435.713 422.367 437.461C423.316 439.209 423.912 441.126 424.12 443.104C424.194 443.816 424.214 444.531 424.182 445.246L428.961 501.281L429.716 510.133H429.705Z" fill="#088CFC"/>
<path d="M387.189 443.78L380.141 510.133H353.176L357.497 443.417C357.527 442.674 357.602 441.933 357.722 441.199C358.448 432.852 365.086 426.646 373.423 427.372C377.424 427.727 381.12 429.654 383.701 432.73C386.282 435.806 387.536 439.78 387.189 443.78Z" fill="#088CFC"/>
<path d="M381.016 274.747C381.016 274.747 379.563 268.156 382.49 269.219C385.417 270.283 381.016 274.747 381.016 274.747Z" fill="#322A28"/>
<path d="M399.505 302.017C399.505 302.017 392.359 339.035 392.12 357.446L391.876 375.85L392.697 398.308C392.697 398.308 412.606 400.773 419.567 397.945C419.567 397.945 420.054 371.292 418.202 361.852C416.35 352.413 416.201 308.052 416.201 308.052L399.505 302.017Z" fill="black"/>
<path d="M380.547 298.83L391.168 291.093L381.07 291.608L380.547 298.83Z" fill="#EA9D85"/>
<path d="M395.834 392.879C395.834 392.879 410.326 395.278 417.076 392.879" stroke="white" stroke-width="1.39295" stroke-linecap="round" stroke-linejoin="round"/>
<path d="M382.018 269.916C382.018 269.916 380.409 276.053 379.265 280.408L378.325 284.008C377.577 286.85 377.272 291.267 380.217 293.081C383.162 294.896 387.9 294.711 391.836 292.189C395.772 289.666 406.517 276.409 398.514 268.384C390.511 260.36 382.624 268.504 382.018 269.916Z" fill="#FDAE97"/>
<path d="M374.011 310.001C374.011 310.001 375.464 333.109 375.958 343.332C376.451 353.556 374.011 389.547 374.011 389.547" stroke="white" stroke-width="1.39295" stroke-linecap="round" stroke-linejoin="round"/>
<path d="M396.963 293.902C396.963 293.902 395.242 289.547 395.754 287.438C396.266 285.329 394.193 282.491 395.126 279.25C396.059 276.009 396.451 274.645 394.712 274.532C392.973 274.42 380.434 275.149 381.048 269.368C381.662 263.586 396.862 260.382 401.048 271.03C401.048 271.03 404.912 271.476 402.417 279.414C399.923 287.351 397.991 288.451 396.963 293.902Z" fill="#322A28"/>
<path d="M402.559 305.646C402.559 305.646 399.839 328.278 398.176 339.456C396.513 350.634 396.226 378.188 395.834 388.397" stroke="white" stroke-width="1.39295" stroke-linecap="round" stroke-linejoin="round"/>
<path d="M394.581 285.634C393.013 287.086 392.403 288.229 393.536 289.459C394.203 290.12 395.099 290.499 396.038 290.517C396.977 290.535 397.887 290.192 398.579 289.557C400.148 288.106 400.493 285.928 399.356 284.712C398.22 283.496 396.146 284.19 394.581 285.634Z" fill="#FDAE97"/>
<path d="M388.43 280.128C388.256 280.785 387.769 281.217 387.341 281.119C386.912 281.021 386.709 280.393 386.883 279.722C387.058 279.05 387.541 278.633 387.973 278.731C388.405 278.829 388.601 279.468 388.43 280.128Z" fill="#322A28"/>
<path d="M380.446 278.038C380.275 278.699 380.478 279.323 380.907 279.435C381.335 279.548 381.822 279.102 381.996 278.441C382.17 277.78 381.963 277.156 381.535 277.047C381.106 276.938 380.62 277.378 380.446 278.038Z" fill="#322A28"/>
<path d="M386.059 284.161C386.103 284.821 387.203 285.282 388.514 285.195C389.825 285.108 390.852 284.502 390.805 283.841C390.758 283.181 389.665 282.72 388.354 282.807C387.043 282.894 386.016 283.507 386.059 284.161Z" fill="#EA9D85"/>
<path d="M379.265 280.408L378.655 282.749C379.61 283.112 380.471 283.061 380.761 282.582C381.066 282.012 380.402 281.043 379.265 280.408Z" fill="#EA9D85"/>
<path d="M397.367 287.917C396.749 287.627 396.083 287.453 395.402 287.405C396.833 285.859 398.18 286.436 398.18 286.436" stroke="#EA9D85" stroke-width="1.35712" stroke-linecap="round" stroke-linejoin="round"/>
<path d="M385.028 279.726L382.464 283.554C382.339 283.743 382.28 283.969 382.297 284.195C382.314 284.421 382.406 284.635 382.559 284.803L383.045 285.336L383.543 285.884" stroke="#332B27" stroke-width="0.868098" stroke-miterlimit="10"/>
<path d="M389.752 279.04C389.752 279.04 388.703 277.273 386.934 277.291" stroke="#332B27" stroke-width="0.868098" stroke-miterlimit="10"/>
<path d="M380.268 275.803C380.714 275.586 381.215 275.505 381.707 275.569C382.2 275.634 382.662 275.841 383.038 276.166" stroke="#332B27" stroke-width="0.868098" stroke-miterlimit="10"/>
<path d="M376.248 520.502L376.97 510.133H356.767L355.979 520.502H376.248Z" fill="#FDAE97"/>
<path d="M366.856 306.382L366.74 306.35C361.677 304.963 356.447 307.94 355.059 313.001L343.796 354.068C342.407 359.129 345.387 364.356 350.45 365.744L350.566 365.775C355.629 367.163 360.859 364.185 362.247 359.124L373.511 318.057C374.899 312.996 371.919 307.769 366.856 306.382Z" fill="black"/>
<path d="M356.411 514.833L376.97 510.133H356.767L356.411 514.833Z" fill="#EA9D85"/>
<path d="M406.237 520.502L405.46 510.119L426.154 510.133L426.506 520.502H406.237Z" fill="#FDAE97"/>
<path d="M405.892 515.911L426.154 510.133L405.46 510.119L405.892 515.911Z" fill="#EA9D85"/>
<path d="M346.023 529.208H375.856L375.907 527.996L376.27 519.961H355.968C353.456 519.961 351.132 521.434 349.352 522.973C347.852 524.306 346.782 526.054 346.277 527.996C346.158 528.392 346.072 528.798 346.023 529.208Z" fill="black"/>
<path d="M346.023 529.209H375.856L375.907 527.997H346.28C346.16 528.393 346.074 528.799 346.023 529.209Z" fill="#FFF1F0"/>
<path d="M355.362 521.627C355.362 521.627 357.94 517.105 359.679 518.894C361.419 520.684 355.362 521.627 355.362 521.627Z" stroke="#FFF1F0" stroke-width="1.07487" stroke-linecap="round" stroke-linejoin="round"/>
<path d="M356.27 522.531L355.362 521.627M355.362 521.627C355.362 521.627 352.784 517.105 351.048 518.894C349.312 520.684 355.362 521.627 355.362 521.627Z" stroke="#FFF1F0" stroke-width="1.07487" stroke-linecap="round" stroke-linejoin="round"/>
<path d="M354.668 522.531L355.362 521.631" stroke="#FFF1F0" stroke-width="1.07487" stroke-linecap="round" stroke-linejoin="round"/>
<path d="M436.306 529.208H406.473L406.422 527.996L406.059 519.961H426.361C428.874 519.961 431.197 521.434 432.977 522.973C434.477 524.306 435.547 526.054 436.052 527.996C436.172 528.392 436.257 528.798 436.306 529.208Z" fill="black"/>
<path d="M436.306 529.209H406.473L406.422 527.997H436.034C436.16 528.393 436.251 528.798 436.306 529.209Z" fill="#FFF1F0"/>
<path d="M426.956 521.903C426.956 521.903 424.378 517.377 422.643 519.167C420.907 520.956 426.956 521.903 426.956 521.903Z" stroke="#FFF1F0" stroke-width="1.07487" stroke-linecap="round" stroke-linejoin="round"/>
<path d="M426.06 522.803L426.967 521.903M426.967 521.903C426.967 521.903 429.545 517.377 431.281 519.167C433.017 520.956 426.967 521.903 426.967 521.903Z" stroke="#FFF1F0" stroke-width="1.07487" stroke-linecap="round" stroke-linejoin="round"/>
<path d="M427.661 522.803L426.967 521.903" stroke="#FFF1F0" stroke-width="1.07487" stroke-linecap="round" stroke-linejoin="round"/>
<path d="M389.621 420.287L387.246 412.357H384.97L381.342 402.54" stroke="white" stroke-width="0.706228" stroke-linecap="round" stroke-linejoin="round"/>
<path d="M426.967 502.639H403.608" stroke="white" stroke-width="0.706228" stroke-linecap="round" stroke-linejoin="round"/>
<path d="M379.338 502.639H355.979" stroke="white" stroke-width="0.706228" stroke-linecap="round" stroke-linejoin="round"/>
<path d="M385.54 287.438L381.796 288.106C381.796 288.106 382.232 290.029 384.102 289.804C385.972 289.579 385.54 287.438 385.54 287.438Z" fill="white"/>
<path d="M360.097 391.536C360.097 391.536 367.054 393.855 374.011 392.012" stroke="white" stroke-width="1.39295" stroke-linecap="round" stroke-linejoin="round"/>
<path d="M374.011 351.796C374.012 352.052 373.937 352.303 373.795 352.517C373.653 352.73 373.45 352.897 373.214 352.996C372.977 353.094 372.716 353.12 372.464 353.071C372.213 353.021 371.981 352.898 371.8 352.717C371.618 352.536 371.494 352.305 371.444 352.054C371.394 351.802 371.419 351.542 371.517 351.305C371.615 351.068 371.781 350.865 371.994 350.723C372.208 350.58 372.458 350.504 372.715 350.504C373.058 350.504 373.387 350.64 373.63 350.882C373.873 351.124 374.01 351.453 374.011 351.796Z" fill="white"/>
<path d="M372.715 364.992C373.431 364.992 374.011 364.412 374.011 363.696C374.011 362.98 373.431 362.4 372.715 362.4C371.999 362.4 371.419 362.98 371.419 363.696C371.419 364.412 371.999 364.992 372.715 364.992Z" fill="white"/>
<path d="M372.374 384.085C372.374 384.341 372.298 384.592 372.155 384.805C372.013 385.018 371.81 385.184 371.573 385.282C371.337 385.38 371.076 385.406 370.824 385.356C370.573 385.306 370.342 385.183 370.161 385.001C369.979 384.82 369.856 384.589 369.806 384.338C369.756 384.087 369.782 383.826 369.88 383.589C369.978 383.353 370.144 383.15 370.357 383.008C370.57 382.866 370.821 382.79 371.077 382.79C371.421 382.79 371.751 382.926 371.994 383.169C372.237 383.412 372.374 383.742 372.374 384.085Z" fill="white"/>
<path d="M336.923 377.012H381.499L369.865 343.648H325.289L336.923 377.012Z" fill="#A5BBD6"/>
<path d="M381.012 375.39L395.591 362.506H352.475L336.437 375.39H381.012Z" fill="#89A5C7"/>
<path d="M337.765 376.272H382.341L370.707 342.908H326.131L337.765 376.272Z" fill="#A5BBD6"/>
<path d="M326.131 342.908L325.289 343.648H369.865L381.499 377.012L382.341 376.272L370.707 342.908H326.131Z" fill="#89A5C7"/>
<path d="M395.591 362.506L396.078 364.124L381.499 377.012L380.936 375.39L395.591 362.506Z" fill="#586773"/>
<path d="M351.513 362.894C354.242 362.894 356.455 361.916 356.455 360.709C356.455 359.503 354.242 358.524 351.513 358.524C348.784 358.524 346.571 359.503 346.571 360.709C346.571 361.916 348.784 362.894 351.513 362.894Z" fill="#89A5C7"/>
<path d="M372.61 381.657C372.904 382.445 377.991 382.383 381.506 381.215C384.491 380.209 391.117 377.157 393.064 376.242L389.385 364.295C388.14 364.509 385.554 364.698 384.382 364.977C381.262 365.703 375.304 368.244 375.46 369.427C375.616 370.61 381.07 369.488 380.743 370.033C380.416 370.577 376.408 372.729 374.596 372.885C372.784 373.041 368.819 372.758 368.259 373.666C367.7 374.573 368.79 375.716 368.79 375.716C368.79 375.716 367.29 375.43 367.283 376.399C367.275 377.368 369.498 378.395 369.498 378.395C369.498 378.395 368.692 378.141 368.946 379.208C369.2 380.275 373.038 380.659 373.038 380.659C372.936 380.684 372.84 380.732 372.76 380.801C372.679 380.869 372.616 380.954 372.574 381.051C372.533 381.148 372.514 381.253 372.52 381.358C372.526 381.464 372.557 381.566 372.61 381.657Z" fill="#FDAE97"/>
<path d="M388.656 361.932L426.252 346.835C430.773 345.173 436.012 347.992 437.911 353.11C439.811 358.227 437.639 363.783 433.118 365.449L393.95 379.121L388.656 361.932Z" fill="black"/>
<path d="M392.653 360.328L416.688 350.968L409.527 332.717" stroke="#332B27" stroke-width="1.21852" stroke-miterlimit="10"/>
<path d="M418.405 370.595L397.377 377.934" stroke="#332B27" stroke-width="1.21852" stroke-miterlimit="10"/>
<path d="M377.138 138.87H314.516C312.32 138.87 310.54 140.649 310.54 142.844V194.797C310.54 196.992 312.32 198.771 314.516 198.771H377.138C379.334 198.771 381.114 196.992 381.114 194.797V142.844C381.114 140.649 379.334 138.87 377.138 138.87Z" fill="#0775EF"/>
<path d="M380.914 138.87H318.292C316.096 138.87 314.316 140.649 314.316 142.844V194.797C314.316 196.992 316.096 198.771 318.292 198.771H380.914C383.11 198.771 384.89 196.992 384.89 194.797V142.844C384.89 140.649 383.11 138.87 380.914 138.87Z" fill="#088CFC"/>
<path d="M341.291 149.453H338.946C338.488 149.434 338.038 149.572 337.671 149.845C337.324 150.124 337.048 150.481 336.865 150.887C336.645 151.346 336.496 151.835 336.422 152.338C336.334 152.881 336.291 153.429 336.291 153.979V161.84C336.351 162.883 336.201 163.927 335.848 164.91C335.563 165.67 335.149 166.374 334.625 166.993C334.206 167.493 333.704 167.916 333.139 168.242C332.757 168.471 332.346 168.647 331.916 168.764V168.921C332.343 168.992 332.756 169.132 333.139 169.334C333.701 169.621 334.205 170.01 334.625 170.481C335.167 171.097 335.583 171.813 335.848 172.59C336.203 173.654 336.354 174.776 336.291 175.896V183.703C336.292 184.234 336.336 184.764 336.422 185.289C336.496 185.792 336.645 186.281 336.865 186.74C337.049 187.145 337.325 187.502 337.671 187.782C338.038 188.055 338.488 188.193 338.946 188.174H341.291V191.919H337.384C336.706 191.915 336.037 191.755 335.431 191.451C334.751 191.109 334.156 190.621 333.688 190.021C333.114 189.281 332.681 188.442 332.41 187.546C332.059 186.382 331.892 185.171 331.916 183.957V176.981C331.846 175.072 331.394 173.579 330.561 172.503C329.729 171.426 328.722 170.889 327.54 170.891V166.841C328.722 166.841 329.729 166.303 330.561 165.226C331.394 164.149 331.846 162.658 331.916 160.751V152.524C331.899 151.522 332.066 150.525 332.41 149.584C332.7 148.8 333.133 148.076 333.688 147.45C334.174 146.902 334.767 146.459 335.431 146.147C336.042 145.859 336.709 145.708 337.384 145.704H341.291V149.453Z" fill="white"/>
<path d="M358.79 188.185H361.132C361.59 188.205 362.042 188.066 362.41 187.793C362.756 187.513 363.032 187.156 363.216 186.751C363.434 186.291 363.583 185.802 363.659 185.299C363.747 184.758 363.79 184.211 363.79 183.663V175.802C363.728 174.759 363.878 173.714 364.233 172.731C364.518 171.972 364.932 171.267 365.456 170.648C365.875 170.148 366.377 169.726 366.942 169.4C367.324 169.172 367.736 168.996 368.165 168.877V168.721C367.737 168.65 367.324 168.509 366.942 168.304C366.38 168.018 365.876 167.63 365.456 167.16C364.915 166.544 364.499 165.828 364.233 165.052C363.876 163.988 363.726 162.866 363.79 161.745V153.943C363.789 153.41 363.745 152.878 363.659 152.353C363.583 151.85 363.434 151.361 363.216 150.901C363.033 150.496 362.757 150.139 362.41 149.86C362.042 149.586 361.59 149.448 361.132 149.468H358.79V145.704H362.686C363.365 145.709 364.033 145.87 364.639 146.176C365.319 146.518 365.914 147.007 366.382 147.606C366.954 148.346 367.387 149.183 367.66 150.077C368.011 151.242 368.177 152.454 368.154 153.67V160.646C368.154 162.555 368.589 164.048 369.458 165.124C370.327 166.201 371.351 166.738 372.53 166.736V170.797C371.346 170.797 370.322 171.335 369.458 172.412C368.594 173.489 368.159 174.98 368.154 176.887V185.111C368.172 186.114 368.004 187.111 367.66 188.054C367.369 188.837 366.935 189.561 366.382 190.188C365.896 190.735 365.303 191.177 364.639 191.487C364.028 191.774 363.361 191.925 362.686 191.93H358.779L358.79 188.185Z" fill="white"/>
<path d="M606.791 247.69H511.772C508.81 247.69 506.409 250.09 506.409 253.051V315.115C506.409 318.075 508.81 320.475 511.772 320.475H606.791C609.753 320.475 612.154 318.075 612.154 315.115V253.051C612.154 250.09 609.753 247.69 606.791 247.69Z" fill="#FF6C37"/>
<path d="M612.444 247.69H517.425C514.463 247.69 512.062 250.09 512.062 253.051V315.115C512.062 318.075 514.463 320.475 517.425 320.475H612.444C615.406 320.475 617.807 318.075 617.807 315.115V253.051C617.807 250.09 615.406 247.69 612.444 247.69Z" fill="#FFBC96"/>
<path d="M517.734 290.559V285.261L548.344 268.7V276.797L527.901 287.91L548.348 299.023V307.116L517.734 290.559Z" fill="white"/>
<path d="M557.643 313.739L552.625 311.532L571.507 254.422L576.525 256.778L557.643 313.739Z" fill="white"/>
<path d="M612.143 285.261V290.559L581.532 307.116V299.023L601.979 287.91L581.532 276.797V268.7L612.143 285.261Z" fill="white"/>
<path d="M584.739 26.2794V23.4667L600.97 14.6875V18.9809L590.127 24.8749L600.97 30.7651V35.0586L584.739 26.2794Z" fill="#FF6C37"/>
<path d="M605.908 38.572L603.247 37.3998L613.258 7.11719L615.919 8.36566L605.908 38.572Z" fill="#FF6C37"/>
<path d="M634.815 23.4667V26.2794L618.581 35.0586V30.7651L629.423 24.8749L618.581 18.9809V14.6875L634.815 23.4667Z" fill="#FF6C37"/>
<path d="M76.7181 193.992C75.7363 193.303 74.6448 192.785 73.49 192.46C73.3926 193.062 73.0767 193.606 72.6027 193.989C72.1287 194.372 71.53 194.567 70.9212 194.537C70.3124 194.506 69.7363 194.252 69.3031 193.824C68.8699 193.395 68.6101 192.822 68.5735 192.213C67.3922 192.417 66.2541 192.82 65.2075 193.404C65.5588 193.899 65.7161 194.506 65.6496 195.109C65.583 195.713 65.2971 196.271 64.8463 196.678C64.3954 197.084 63.8108 197.312 63.2034 197.316C62.596 197.321 62.008 197.103 61.5509 196.703C60.8634 197.683 60.3466 198.773 60.0222 199.926C60.6217 200.027 61.163 200.345 61.5433 200.819C61.9236 201.293 62.1164 201.891 62.085 202.497C62.0537 203.104 61.8003 203.679 61.3732 204.111C60.946 204.544 60.3748 204.804 59.7681 204.843C59.976 206.023 60.3797 207.16 60.9627 208.208C61.4581 207.85 62.0684 207.687 62.6763 207.751C63.2843 207.815 63.8471 208.102 64.2568 208.555C64.6664 209.009 64.8941 209.598 64.896 210.209C64.8978 210.82 64.6739 211.41 64.267 211.866C65.2482 212.552 66.3384 213.067 67.4914 213.39C67.5926 212.791 67.9105 212.25 68.3845 211.87C68.8586 211.489 69.4559 211.296 70.063 211.327C70.6701 211.358 71.2447 211.611 71.6776 212.037C72.1106 212.464 72.3718 213.034 72.4116 213.641C73.5919 213.435 74.7288 213.032 75.774 212.447C75.4226 211.951 75.2653 211.344 75.3319 210.741C75.3985 210.138 75.6843 209.579 76.1352 209.173C76.5861 208.766 77.1707 208.539 77.7781 208.534C78.3855 208.529 78.9735 208.748 79.4305 209.148C80.118 208.167 80.6349 207.077 80.9592 205.925C80.3597 205.823 79.8184 205.505 79.4381 205.031C79.0578 204.557 78.865 203.96 78.8964 203.353C78.9278 202.746 79.1811 202.172 79.6083 201.739C80.0354 201.307 80.6066 201.046 81.2134 201.007C81.0078 199.828 80.6052 198.692 80.0224 197.646C79.5271 198.001 78.9186 198.161 78.3128 198.096C77.7071 198.031 77.1465 197.745 76.738 197.293C76.3295 196.841 76.1018 196.255 76.0981 195.646C76.0944 195.037 76.3151 194.448 76.7181 193.992ZM74.4014 199.399C75.0976 200.173 75.5489 201.135 75.6982 202.165C75.8474 203.194 75.688 204.245 75.2401 205.184C74.7922 206.123 74.0758 206.908 73.1815 207.441C72.2872 207.973 71.2551 208.228 70.2156 208.175C69.1761 208.121 68.1759 207.76 67.3413 207.139C66.5067 206.517 65.8752 205.662 65.5265 204.682C65.1779 203.702 65.1278 202.64 65.3825 201.631C65.6372 200.623 66.1854 199.712 66.9577 199.015C67.4714 198.551 68.0716 198.193 68.7239 197.961C69.3763 197.729 70.068 197.628 70.7594 197.664C71.4508 197.7 72.1284 197.871 72.7533 198.169C73.3783 198.467 73.9383 198.885 74.4014 199.399Z" fill="#FF6C37"/>
<path d="M65.8066 226.909C65.2936 227.935 64.4882 228.786 63.4918 229.355C62.4955 229.924 61.3528 230.185 60.2081 230.106C59.0633 230.027 57.9677 229.61 57.0594 228.909C56.1511 228.208 55.4708 227.254 55.1043 226.168C54.7378 225.081 54.7015 223.91 55 222.802C55.2985 221.695 55.9184 220.701 56.7816 219.945C57.6448 219.189 58.7125 218.706 59.8501 218.556C60.9878 218.406 62.1444 218.596 63.1741 219.102C63.8614 219.44 64.4752 219.911 64.9799 220.487C65.4847 221.063 65.8705 221.733 66.1152 222.458C66.3599 223.184 66.4586 223.951 66.4056 224.714C66.3526 225.478 66.1491 226.224 65.8066 226.909ZM72.3136 227.094C72.6216 225.804 72.7112 224.472 72.5786 223.153C71.9217 223.29 71.2371 223.182 70.6543 222.849C70.0716 222.516 69.631 221.982 69.416 221.346C69.2009 220.711 69.2262 220.018 69.4871 219.4C69.7481 218.782 70.2265 218.281 70.8321 217.992C70.1397 216.863 69.2635 215.859 68.2395 215.019C67.8735 215.585 67.312 215.996 66.6621 216.175C66.0123 216.354 65.3193 216.287 64.7154 215.988C64.1115 215.689 63.6387 215.178 63.3873 214.553C63.1359 213.928 63.1233 213.232 63.352 212.599C62.0639 212.291 60.7331 212.204 59.4159 212.341C59.5582 212.999 59.4528 213.687 59.1199 214.273C58.7871 214.859 58.25 215.301 57.6113 215.516C56.9727 215.731 56.2771 215.704 55.6575 215.439C55.0379 215.174 54.5377 214.69 54.2524 214.079C53.1216 214.772 52.1151 215.649 51.2749 216.674C51.8451 217.038 52.2607 217.599 52.4419 218.25C52.6232 218.901 52.5572 219.596 52.2568 220.202C51.9564 220.807 51.4426 221.281 50.8143 221.53C50.186 221.78 49.4875 221.789 48.853 221.556C48.5457 222.844 48.4585 224.176 48.5952 225.493C49.2544 225.349 49.9437 225.453 50.531 225.786C51.1183 226.118 51.5624 226.655 51.7783 227.294C51.9941 227.933 51.9665 228.629 51.7008 229.249C51.4351 229.869 50.9499 230.37 50.3381 230.654C51.0306 231.784 51.9083 232.788 52.9343 233.627C53.2985 233.059 53.8595 232.645 54.5098 232.465C55.1602 232.284 55.8543 232.35 56.4591 232.649C57.064 232.949 57.5371 233.461 57.7879 234.087C58.0386 234.713 58.0494 235.41 57.8182 236.044C59.1073 236.352 60.4393 236.441 61.7579 236.305C61.6156 235.647 61.721 234.959 62.0539 234.373C62.3867 233.787 62.9238 233.345 63.5625 233.13C64.2012 232.915 64.8967 232.942 65.5163 233.207C66.1359 233.472 66.6361 233.956 66.9214 234.567C68.0503 233.875 69.0555 232.999 69.8952 231.975C69.327 231.611 68.913 231.051 68.7326 230.401C68.5522 229.751 68.618 229.057 68.9175 228.452C69.217 227.848 69.7291 227.375 70.3557 227.124C70.9824 226.874 71.6795 226.863 72.3136 227.094Z" fill="#407BFF"/>
</g>
<defs>
<clipPath id="clip0_4301_26098">
<rect width="653" height="543" fill="white"/>
</clipPath>
</defs>
</svg>
