<svg width="500" height="444" viewBox="0 0 500 444" fill="none" xmlns="http://www.w3.org/2000/svg">
<g clip-path="url(#clip0_4249_26258)">
<path d="M304 68.9001C301.765 72.3159 300.195 76.1224 299.37 80.1201L293.1 80.7101V92.8501L299.37 93.4401C300.195 97.4409 301.765 101.251 304 104.67L300 109.5L308.58 118.08L313.42 114.08C316.833 116.321 320.64 117.892 324.64 118.71L325.23 124.98H337.37L337.96 118.71C341.959 117.89 345.766 116.319 349.18 114.08L354.02 118.08L362.6 109.5L358.6 104.67C360.835 101.251 362.405 97.4409 363.23 93.4401L369.5 92.8501V80.7101L363.23 80.1201C362.405 76.1224 360.835 72.3159 358.6 68.9001L362.6 64.0601L354 55.4801L349.16 59.4801C345.762 57.2523 341.977 55.6818 338 54.8501L337.41 48.5801H325.22L324.63 54.8501C320.632 55.6731 316.825 57.2439 313.41 59.4801L308.57 55.4801L300 64.0601L304 68.9001ZM345.24 72.9001C347.996 75.6569 349.872 79.1689 350.632 82.992C351.392 86.8152 351.001 90.7778 349.509 94.3788C348.017 97.9799 345.491 101.058 342.249 103.223C339.008 105.388 335.198 106.544 331.3 106.544C327.402 106.544 323.592 105.388 320.351 103.223C317.109 101.058 314.583 97.9799 313.091 94.3788C311.599 90.7778 311.208 86.8152 311.968 82.992C312.728 79.1689 314.604 75.6569 317.36 72.9001C321.051 69.2008 326.059 67.1177 331.285 67.1084C336.51 67.099 341.526 69.1641 345.23 72.8501L345.24 72.9001Z" fill="#F0F0F0"/>
<path d="M269.88 0H184.18C181.452 0 179.24 2.21171 179.24 4.94V70.52C179.24 73.2483 181.452 75.46 184.18 75.46H269.88C272.608 75.46 274.82 73.2483 274.82 70.52V4.94C274.82 2.21171 272.608 0 269.88 0Z" fill="#FFF3EE"/>
<path d="M183.86 0H270.27C270.867 0 271.459 0.117689 272.011 0.346348C272.563 0.575007 273.065 0.910158 273.487 1.33266C273.91 1.75517 274.245 2.25676 274.474 2.80879C274.702 3.36082 274.82 3.95249 274.82 4.55V13.16H179.24V4.63C179.24 3.40378 179.726 2.22763 180.593 1.35963C181.459 0.49162 182.634 0.00264843 183.86 0Z" fill="#FF6C37"/>
<path opacity="0.5" d="M269.75 7.53994C269.752 8.1104 269.585 8.66859 269.269 9.14373C268.953 9.61887 268.503 9.98956 267.977 10.2088C267.45 10.428 266.87 10.4859 266.311 10.3751C265.751 10.2643 265.237 9.98977 264.834 9.58639C264.43 9.18301 264.156 8.66893 264.045 8.10933C263.934 7.54974 263.992 6.96984 264.211 6.44318C264.43 5.91652 264.801 5.46683 265.276 5.15114C265.751 4.83544 266.31 4.66796 266.88 4.66994C267.641 4.66994 268.371 4.97231 268.909 5.51054C269.448 6.04877 269.75 6.77877 269.75 7.53994Z" fill="#FAFAFA"/>
<path opacity="0.5" d="M261.59 7.53994C261.592 8.10997 261.425 8.66777 261.109 9.14269C260.794 9.61762 260.345 9.98832 259.819 10.2078C259.293 10.4273 258.714 10.4858 258.154 10.3758C257.595 10.2658 257.081 9.99232 256.677 9.58995C256.273 9.18757 255.998 8.67442 255.886 8.11548C255.774 7.55655 255.831 6.97697 256.048 6.45013C256.266 5.9233 256.635 5.47291 257.109 5.15601C257.583 4.83911 258.14 4.66994 258.71 4.66994C259.088 4.66862 259.462 4.74189 259.811 4.88553C260.161 5.02917 260.478 5.24036 260.746 5.507C261.013 5.77363 261.226 6.09046 261.371 6.43932C261.515 6.78818 261.59 7.1622 261.59 7.53994Z" fill="#FAFAFA"/>
<path opacity="0.5" d="M250.55 10.4099C252.135 10.4099 253.42 9.12498 253.42 7.53992C253.42 5.95486 252.135 4.66992 250.55 4.66992C248.965 4.66992 247.68 5.95486 247.68 7.53992C247.68 9.12498 248.965 10.4099 250.55 10.4099Z" fill="#FAFAFA"/>
<path opacity="0.6" d="M252.32 24.1602H201.18V26.8402H252.32V24.1602Z" fill="#FF6C37"/>
<path d="M238.56 29.9502H201.97V32.6302H238.56V29.9502Z" fill="#FFBC96"/>
<path d="M266.19 24.1602H256.84V26.8402H266.19V24.1602Z" fill="#FFBC96"/>
<path d="M197.63 24.1602H187.57V26.8402H197.63V24.1602Z" fill="#FFBC96"/>
<path d="M252.32 36.3901H201.18V39.0701H252.32V36.3901Z" fill="#FFBC96"/>
<path opacity="0.6" d="M266.19 36.3901H256.84V39.0701H266.19V36.3901Z" fill="#FF6C37"/>
<path d="M197.63 36.3901H187.57V39.0701H197.63V36.3901Z" fill="#FFBC96"/>
<path opacity="0.6" d="M252.32 61.8901H201.18V64.5701H252.32V61.8901Z" fill="#FF6C37"/>
<path opacity="0.6" d="M266.19 61.8901H256.84V64.5701H266.19V61.8901Z" fill="white"/>
<path d="M252.32 42.8398H201.18V45.5198H252.32V42.8398Z" fill="#FFBC96"/>
<path d="M266.19 42.8398H256.84V45.5198H266.19V42.8398Z" fill="#FFBC96"/>
<path d="M197.63 42.8398H187.57V45.5198H197.63V42.8398Z" fill="#FFBC96"/>
<path d="M266.88 30.0601H242.57V32.7401H266.88V30.0601Z" fill="#FFBC96"/>
<path opacity="0.6" d="M237.77 48.46H201.18V51.14H237.77V48.46Z" fill="#FF6C37"/>
<path d="M266.08 48.5698H241.77V51.2498H266.08V48.5698Z" fill="#FFBC96"/>
<path d="M219.48 54.29H201.18V56.97H219.48V54.29Z" fill="#FFBC96"/>
<path d="M400.3 53.0302L389.47 58.0902L400.3 63.1502V67.2302L385.83 60.2302V55.9702L400.3 48.9702V53.0302Z" fill="#FF6C37"/>
<path d="M433.27 55.97V60.21L418.79 67.21V63.15L429.62 58.09L418.79 53.03V48.96L433.27 55.97Z" fill="#FF6C37"/>
<path d="M412.08 46.1099L405.02 70.5099H408.55L415.61 46.1099H412.08Z" fill="#FF6C37"/>
<path d="M37.36 183.61C36.0498 185.606 35.1302 187.832 34.65 190.17L30.99 190.51V197.6L34.65 197.95C35.1303 200.285 36.0499 202.508 37.36 204.5L35 207.33L40 212.33L42.82 209.99C44.8177 211.296 47.0429 212.215 49.38 212.7L49.72 216.36H56.81L57.16 212.7C59.4945 212.217 61.7168 211.298 63.71 209.99L66.54 212.33L71.54 207.33L69.2 204.5C70.5418 202.515 71.4921 200.292 72 197.95L75.66 197.6V190.51L72 190.17C71.5197 187.832 70.6001 185.606 69.29 183.61L71.58 180.77L66.58 175.77L63.75 178.1C61.7563 176.795 59.5339 175.879 57.2 175.4L56.84 171.77H49.75L49.41 175.43C47.0732 175.91 44.8478 176.826 42.85 178.13L40 175.77L35 180.77L37.36 183.61ZM61.44 185.92C63.0494 187.53 64.1452 189.581 64.5891 191.813C65.0329 194.046 64.8048 196.36 63.9335 198.463C63.0623 200.566 61.587 202.363 59.6943 203.628C57.8015 204.893 55.5763 205.568 53.3 205.568C51.0237 205.568 48.7985 204.893 46.9057 203.628C45.013 202.363 43.5377 200.566 42.6665 198.463C41.7952 196.36 41.5671 194.046 42.0109 191.813C42.4547 189.581 43.5506 187.53 45.16 185.92C47.3199 183.763 50.2476 182.552 53.3 182.552C56.3524 182.552 59.28 183.763 61.44 185.92Z" fill="#FF6C37"/>
<path d="M439.11 101.09C438.023 102.745 437.26 104.591 436.86 106.53L433.86 106.82V112.7L436.86 112.99C437.26 114.929 438.023 116.775 439.11 118.43L437.17 120.77L441.33 124.93L443.68 122.99C445.335 124.074 447.181 124.834 449.12 125.23L449.4 128.23H455.29L455.58 125.23C457.518 124.83 459.363 124.07 461.02 122.99L463.36 124.93L467.53 120.77L465.59 118.42C466.67 116.762 467.43 114.917 467.83 112.98L470.83 112.69V106.81L467.83 106.52C467.43 104.581 466.667 102.735 465.58 101.08L467.53 98.7298L463.36 94.5698L461 96.5198C459.343 95.4391 457.498 94.6793 455.56 94.2798L455.27 91.2798H449.4L449.12 94.2798C447.181 94.6756 445.335 95.4357 443.68 96.5198L441.33 94.5798L437.17 98.7698L439.11 101.09ZM459.11 103C460.447 104.337 461.357 106.04 461.726 107.895C462.095 109.749 461.906 111.671 461.182 113.418C460.459 115.165 459.233 116.658 457.661 117.709C456.089 118.759 454.241 119.32 452.35 119.32C450.459 119.32 448.611 118.759 447.039 117.709C445.467 116.658 444.241 115.165 443.518 113.418C442.794 111.671 442.605 109.749 442.974 107.895C443.343 106.04 444.253 104.337 445.59 103C447.384 101.209 449.815 100.204 452.35 100.204C454.885 100.204 457.316 101.209 459.11 103Z" fill="#E0E0E0"/>
<path d="M470.61 392.24H435.76V392.5H470.61V392.24Z" fill="#EBEBEB"/>
<path d="M345.75 395.1H336.6V395.36H345.75V395.1Z" fill="#EBEBEB"/>
<path d="M434.7 382.47H414.51V382.73H434.7V382.47Z" fill="#EBEBEB"/>
<path d="M97.9 384.24H52.46V384.5H97.9V384.24Z" fill="#EBEBEB"/>
<path d="M113.93 384.24H107.27V384.5H113.93V384.24Z" fill="#EBEBEB"/>
<path d="M234.15 388.68H135.59V388.94H234.15V388.68Z" fill="#EBEBEB"/>
<path d="M443.92 314.91H263.17C261.617 314.908 260.128 314.289 259.029 313.191C257.931 312.092 257.313 310.604 257.31 309.05V45.7702C257.313 44.2168 257.931 42.7278 259.029 41.6294C260.128 40.531 261.617 39.9128 263.17 39.9102H443.92C445.473 39.9128 446.962 40.531 448.061 41.6294C449.159 42.7278 449.777 44.2168 449.78 45.7702V309.05C449.777 310.604 449.159 312.092 448.061 313.191C446.962 314.289 445.473 314.908 443.92 314.91ZM263.17 40.1702C261.684 40.1702 260.258 40.7598 259.207 41.8098C258.155 42.8597 257.563 44.284 257.56 45.7702V309.05C257.56 310.538 258.151 311.965 259.203 313.017C260.255 314.069 261.682 314.66 263.17 314.66H443.92C445.408 314.66 446.835 314.069 447.887 313.017C448.939 311.965 449.53 310.538 449.53 309.05V45.7702C449.53 44.2823 448.939 42.8554 447.887 41.8033C446.835 40.7512 445.408 40.1602 443.92 40.1602L263.17 40.1702Z" fill="#E0E0E0"/>
<path d="M235.49 314.91H54.75C53.1949 314.91 51.7034 314.293 50.6028 313.194C49.5023 312.096 48.8827 310.605 48.88 309.05V45.7702C48.8827 44.2151 49.5023 42.7246 50.6028 41.6259C51.7034 40.5272 53.1949 39.9102 54.75 39.9102H235.49C237.044 39.9102 238.535 40.5275 239.634 41.6265C240.733 42.7255 241.35 44.216 241.35 45.7702V309.05C241.35 310.604 240.733 312.095 239.634 313.194C238.535 314.293 237.044 314.91 235.49 314.91ZM54.75 40.1702C53.2629 40.1701 51.8365 40.7595 50.7831 41.8091C49.7297 42.8588 49.1353 44.2831 49.13 45.7702V309.05C49.1327 310.539 49.7259 311.966 50.7796 313.018C51.8333 314.069 53.2612 314.66 54.75 314.66H235.49C236.227 314.66 236.956 314.515 237.637 314.233C238.317 313.951 238.936 313.538 239.457 313.017C239.978 312.496 240.391 311.878 240.673 311.197C240.955 310.516 241.1 309.787 241.1 309.05V45.7702C241.1 45.0334 240.955 44.3039 240.673 43.6233C240.391 42.9427 239.978 42.3242 239.457 41.8033C238.936 41.2824 238.317 40.8691 237.637 40.5872C236.956 40.3053 236.227 40.1602 235.49 40.1602L54.75 40.1702Z" fill="#E0E0E0"/>
<path d="M500 375.98H0V376.23H500V375.98Z" fill="#E0E0E0"/>
<path d="M455.06 413.26C455.06 416.64 361.54 419.39 246.18 419.39C130.82 419.39 37.31 416.64 37.31 413.26C37.31 409.88 130.82 407.12 246.18 407.12C361.54 407.12 455.06 409.87 455.06 413.26Z" fill="#EBEBEB"/>
<path d="M94.51 86.7798H118.14V319.31H92.72C90.7821 319.307 88.9243 318.536 87.554 317.166C86.1837 315.795 85.4127 313.938 85.41 312V95.8898C85.41 93.4754 86.3685 91.1597 88.0748 89.4516C89.781 87.7434 92.0956 86.7824 94.51 86.7798Z" fill="#37444A"/>
<path d="M215.62 315.3L205.22 368.59H220.31L232.35 315.74L215.62 315.3Z" fill="#37444A"/>
<path d="M200.17 367.95H192.53V375.59H200.17V367.95Z" fill="#37444A"/>
<path d="M310.38 375.6H213.46L227.23 294.84H291.73L310.38 375.6Z" fill="#263238"/>
<path opacity="0.1" d="M297.35 319.31H223.02L220.31 335.22L299.51 328.68L297.35 319.31Z" fill="black"/>
<path d="M323.66 367.95H198.03V375.59H323.66V367.95Z" fill="#263238"/>
<path d="M101.23 86.77H415.47C417.612 86.799 419.656 87.6745 421.155 89.2052C422.654 90.736 423.486 92.7977 423.47 94.94V311.14C423.486 313.282 422.654 315.344 421.155 316.875C419.656 318.406 417.612 319.281 415.47 319.31H101.23C99.0878 319.281 97.0441 318.406 95.5452 316.875C94.0463 315.344 93.214 313.282 93.23 311.14V94.95C93.2113 92.8059 94.0425 90.7417 95.5417 89.2088C97.0408 87.6759 99.0861 86.799 101.23 86.77Z" fill="#263238"/>
<path d="M414.73 94.7798H100.55V303.24H414.73V94.7798Z" fill="#407BFF"/>
<path opacity="0.9" d="M414.73 94.7798H100.55V303.24H414.73V94.7798Z" fill="white"/>
<path d="M414.73 94.7798H100.55V111.51H414.73V94.7798Z" fill="#407BFF"/>
<path opacity="0.5" d="M410.55 103.15C410.552 103.855 410.345 104.544 409.955 105.131C409.565 105.717 409.01 106.175 408.359 106.446C407.709 106.717 406.993 106.789 406.302 106.653C405.61 106.517 404.975 106.178 404.476 105.681C403.977 105.183 403.637 104.549 403.499 103.858C403.361 103.167 403.431 102.451 403.7 101.8C403.969 101.149 404.426 100.592 405.011 100.201C405.597 99.8091 406.285 99.6001 406.99 99.6001C407.932 99.6001 408.836 99.9738 409.504 100.639C410.171 101.305 410.547 102.208 410.55 103.15Z" fill="white"/>
<path opacity="0.5" d="M400.44 103.15C400.442 103.855 400.235 104.545 399.844 105.132C399.454 105.719 398.898 106.177 398.247 106.447C397.596 106.718 396.879 106.789 396.188 106.652C395.496 106.515 394.861 106.176 394.363 105.677C393.864 105.179 393.525 104.544 393.388 103.852C393.251 103.161 393.322 102.444 393.593 101.793C393.864 101.142 394.321 100.586 394.908 100.196C395.495 99.8055 396.185 99.5981 396.89 99.6001C397.831 99.6028 398.732 99.9776 399.397 100.643C400.063 101.308 400.437 102.209 400.44 103.15Z" fill="white"/>
<path opacity="0.5" d="M390.34 103.15C390.342 103.855 390.135 104.544 389.745 105.131C389.355 105.717 388.8 106.175 388.149 106.446C387.499 106.717 386.783 106.789 386.092 106.653C385.4 106.517 384.765 106.178 384.266 105.681C383.767 105.183 383.427 104.549 383.289 103.858C383.151 103.167 383.221 102.451 383.49 101.8C383.759 101.149 384.216 100.592 384.801 100.201C385.387 99.8091 386.075 99.6001 386.78 99.6001C387.722 99.6001 388.626 99.9738 389.294 100.639C389.961 101.305 390.337 102.208 390.34 103.15Z" fill="white"/>
<path d="M158.8 233.59C157.798 235.129 157.093 236.842 156.72 238.64L153.9 238.9V244.36L156.72 244.63C157.099 246.411 157.804 248.106 158.8 249.63L157 251.81L160.86 255.67L163.04 253.87C164.563 254.867 166.259 255.573 168.04 255.95L168.31 258.77H173.77L174.03 255.95C175.828 255.577 177.541 254.872 179.08 253.87L181.25 255.67L185.11 251.81L183.31 249.63C184.315 248.109 185.024 246.413 185.4 244.63L188.21 244.36V238.9L185.4 238.64C185.028 236.84 184.319 235.126 183.31 233.59L185.11 231.42L181.25 227.56L179.08 229.36C177.544 228.351 175.83 227.642 174.03 227.27L173.77 224.46H168.31L168.04 227.27C166.257 227.646 164.561 228.355 163.04 229.36L160.86 227.56L157 231.42L158.8 233.59ZM176.1 236.59C177.099 237.581 177.781 238.846 178.059 240.224C178.338 241.603 178.201 243.034 177.665 244.335C177.129 245.635 176.219 246.747 175.051 247.53C173.882 248.313 172.507 248.731 171.1 248.731C169.693 248.731 168.318 248.313 167.149 247.53C165.981 246.747 165.071 245.635 164.535 244.335C163.999 243.034 163.862 241.603 164.141 240.224C164.419 238.846 165.101 237.581 166.1 236.59C167.432 235.274 169.231 234.537 171.104 234.541C172.977 234.545 174.773 235.288 176.1 236.61V236.59Z" fill="#407BFF"/>
<path opacity="0.4" d="M158.8 233.59C157.798 235.129 157.093 236.842 156.72 238.64L153.9 238.9V244.36L156.72 244.63C157.099 246.411 157.804 248.106 158.8 249.63L157 251.81L160.86 255.67L163.04 253.87C164.563 254.867 166.259 255.573 168.04 255.95L168.31 258.77H173.77L174.03 255.95C175.828 255.577 177.541 254.872 179.08 253.87L181.25 255.67L185.11 251.81L183.31 249.63C184.315 248.109 185.024 246.413 185.4 244.63L188.21 244.36V238.9L185.4 238.64C185.028 236.84 184.319 235.126 183.31 233.59L185.11 231.42L181.25 227.56L179.08 229.36C177.544 228.351 175.83 227.642 174.03 227.27L173.77 224.46H168.31L168.04 227.27C166.257 227.646 164.561 228.355 163.04 229.36L160.86 227.56L157 231.42L158.8 233.59ZM176.1 236.59C177.099 237.581 177.781 238.846 178.059 240.224C178.338 241.603 178.201 243.034 177.665 244.335C177.129 245.635 176.219 246.747 175.051 247.53C173.882 248.313 172.507 248.731 171.1 248.731C169.693 248.731 168.318 248.313 167.149 247.53C165.981 246.747 165.071 245.635 164.535 244.335C163.999 243.034 163.862 241.603 164.141 240.224C164.419 238.846 165.101 237.581 166.1 236.59C167.432 235.274 169.231 234.537 171.104 234.541C172.977 234.545 174.773 235.288 176.1 236.61V236.59Z" fill="white"/>
<path d="M319.92 166.77C318.988 168.195 318.333 169.782 317.99 171.45L315.38 171.69V176.77L317.99 177.01C318.333 178.677 318.988 180.265 319.92 181.69L318.25 183.69L321.83 187.27L323.83 185.6C325.255 186.532 326.843 187.186 328.51 187.53L328.75 190.14H333.81L334.05 187.53C335.717 187.186 337.305 186.532 338.73 185.6L340.73 187.27L344.31 183.69L342.64 181.69C343.572 180.265 344.227 178.677 344.57 177.01L347.18 176.77V171.77L344.57 171.53C344.227 169.862 343.572 168.275 342.64 166.85L344.31 164.85L340.73 161.27L338.73 162.94C337.305 162.008 335.717 161.353 334.05 161.01L333.81 158.4H328.75L328.51 161.01C326.843 161.353 325.255 162.008 323.83 162.94L321.83 161.27L318.25 164.77L319.92 166.77ZM335.92 169.57C336.841 170.49 337.468 171.662 337.723 172.939C337.978 174.215 337.848 175.539 337.35 176.742C336.852 177.944 336.009 178.973 334.926 179.696C333.844 180.419 332.572 180.805 331.27 180.805C329.968 180.805 328.696 180.419 327.614 179.696C326.531 178.973 325.688 177.944 325.19 176.742C324.692 175.539 324.563 174.215 324.817 172.939C325.072 171.662 325.699 170.49 326.62 169.57C327.233 168.957 327.96 168.472 328.761 168.142C329.562 167.812 330.42 167.643 331.286 167.646C332.152 167.649 333.01 167.823 333.808 168.158C334.607 168.494 335.331 168.984 335.94 169.6L335.92 169.57Z" fill="#407BFF"/>
<path opacity="0.4" d="M319.92 166.77C318.988 168.195 318.333 169.782 317.99 171.45L315.38 171.69V176.77L317.99 177.01C318.333 178.677 318.988 180.265 319.92 181.69L318.25 183.69L321.83 187.27L323.83 185.6C325.255 186.532 326.843 187.186 328.51 187.53L328.75 190.14H333.81L334.05 187.53C335.717 187.186 337.305 186.532 338.73 185.6L340.73 187.27L344.31 183.69L342.64 181.69C343.572 180.265 344.227 178.677 344.57 177.01L347.18 176.77V171.77L344.57 171.53C344.227 169.862 343.572 168.275 342.64 166.85L344.31 164.85L340.73 161.27L338.73 162.94C337.305 162.008 335.717 161.353 334.05 161.01L333.81 158.4H328.75L328.51 161.01C326.843 161.353 325.255 162.008 323.83 162.94L321.83 161.27L318.25 164.77L319.92 166.77ZM335.92 169.57C336.841 170.49 337.468 171.662 337.723 172.939C337.978 174.215 337.848 175.539 337.35 176.742C336.852 177.944 336.009 178.973 334.926 179.696C333.844 180.419 332.572 180.805 331.27 180.805C329.968 180.805 328.696 180.419 327.614 179.696C326.531 178.973 325.688 177.944 325.19 176.742C324.692 175.539 324.563 174.215 324.817 172.939C325.072 171.662 325.699 170.49 326.62 169.57C327.233 168.957 327.96 168.472 328.761 168.142C329.562 167.812 330.42 167.643 331.286 167.646C332.152 167.649 333.01 167.823 333.808 168.158C334.607 168.494 335.331 168.984 335.94 169.6L335.92 169.57Z" fill="white"/>
<path d="M313.66 138.82C313.066 139.735 312.645 140.752 312.42 141.82L310.73 141.97V145.24L312.42 145.4C312.642 146.469 313.063 147.486 313.66 148.4L312.58 149.7L314.89 152.01L316.2 150.93C317.111 151.534 318.129 151.959 319.2 152.18L319.36 153.87H322.62L322.78 152.18C323.851 151.959 324.869 151.534 325.78 150.93L327.08 152.01L329.39 149.7L328.32 148.4C328.917 147.486 329.338 146.469 329.56 145.4L331.25 145.24V141.97L329.56 141.81C329.334 140.743 328.914 139.726 328.32 138.81L329.39 137.51L327.08 135.2L325.78 136.28C324.867 135.68 323.849 135.256 322.78 135.03L322.62 133.35H319.36L319.2 135.03C318.131 135.256 317.113 135.68 316.2 136.28L314.89 135.2L312.58 137.51L313.66 138.82ZM324 140.63C324.596 141.224 325.002 141.981 325.167 142.806C325.332 143.631 325.249 144.486 324.928 145.264C324.607 146.041 324.062 146.706 323.363 147.173C322.664 147.641 321.841 147.89 321 147.89C320.159 147.89 319.337 147.641 318.637 147.173C317.938 146.706 317.393 146.041 317.072 145.264C316.751 144.486 316.668 143.631 316.833 142.806C316.998 141.981 317.404 141.224 318 140.63C318.797 139.836 319.875 139.39 321 139.39C322.125 139.39 323.203 139.836 324 140.63Z" fill="#407BFF"/>
<path opacity="0.7" d="M313.66 138.82C313.066 139.735 312.645 140.752 312.42 141.82L310.73 141.97V145.24L312.42 145.4C312.642 146.469 313.063 147.486 313.66 148.4L312.58 149.7L314.89 152.01L316.2 150.93C317.111 151.534 318.129 151.959 319.2 152.18L319.36 153.87H322.62L322.78 152.18C323.851 151.959 324.869 151.534 325.78 150.93L327.08 152.01L329.39 149.7L328.32 148.4C328.917 147.486 329.338 146.469 329.56 145.4L331.25 145.24V141.97L329.56 141.81C329.334 140.743 328.914 139.726 328.32 138.81L329.39 137.51L327.08 135.2L325.78 136.28C324.867 135.68 323.849 135.256 322.78 135.03L322.62 133.35H319.36L319.2 135.03C318.131 135.256 317.113 135.68 316.2 136.28L314.89 135.2L312.58 137.51L313.66 138.82ZM324 140.63C324.596 141.224 325.002 141.981 325.167 142.806C325.332 143.631 325.249 144.486 324.928 145.264C324.607 146.041 324.062 146.706 323.363 147.173C322.664 147.641 321.841 147.89 321 147.89C320.159 147.89 319.337 147.641 318.637 147.173C317.938 146.706 317.393 146.041 317.072 145.264C316.751 144.486 316.668 143.631 316.833 142.806C316.998 141.981 317.404 141.224 318 140.63C318.797 139.836 319.875 139.39 321 139.39C322.125 139.39 323.203 139.836 324 140.63Z" fill="white"/>
<path d="M177 266.34C176.406 267.255 175.986 268.272 175.76 269.34L174.07 269.5V272.77L175.76 272.93C175.984 273.998 176.405 275.015 177 275.93L175.93 277.23L178.24 279.54L179.54 278.46C180.451 279.064 181.469 279.488 182.54 279.71L182.7 281.4H186L186.16 279.71C187.231 279.488 188.249 279.064 189.16 278.46L190.47 279.54L192.78 277.23L191.7 275.93C192.299 275.017 192.72 273.999 192.94 272.93L194.63 272.77V269.5L192.94 269.34C192.719 268.271 192.298 267.253 191.7 266.34L192.78 265.04L190.47 262.77L189.16 263.77C188.247 263.17 187.229 262.746 186.16 262.52L186 260.84H182.74L182.58 262.52C181.511 262.746 180.493 263.17 179.58 263.77L178.28 262.69L175.97 265L177 266.34ZM187.36 268.15C187.956 268.744 188.362 269.501 188.527 270.326C188.692 271.151 188.609 272.006 188.288 272.783C187.967 273.561 187.422 274.225 186.723 274.693C186.024 275.161 185.201 275.41 184.36 275.41C183.519 275.41 182.697 275.161 181.997 274.693C181.298 274.225 180.753 273.561 180.432 272.783C180.111 272.006 180.028 271.151 180.193 270.326C180.358 269.501 180.764 268.744 181.36 268.15C182.157 267.356 183.235 266.91 184.36 266.91C185.485 266.91 186.563 267.356 187.36 268.15Z" fill="#407BFF"/>
<path opacity="0.7" d="M177 266.34C176.406 267.255 175.986 268.272 175.76 269.34L174.07 269.5V272.77L175.76 272.93C175.984 273.998 176.405 275.015 177 275.93L175.93 277.23L178.24 279.54L179.54 278.46C180.451 279.064 181.469 279.488 182.54 279.71L182.7 281.4H186L186.16 279.71C187.231 279.488 188.249 279.064 189.16 278.46L190.47 279.54L192.78 277.23L191.7 275.93C192.299 275.017 192.72 273.999 192.94 272.93L194.63 272.77V269.5L192.94 269.34C192.719 268.271 192.298 267.253 191.7 266.34L192.78 265.04L190.47 262.77L189.16 263.77C188.247 263.17 187.229 262.746 186.16 262.52L186 260.84H182.74L182.58 262.52C181.511 262.746 180.493 263.17 179.58 263.77L178.28 262.69L175.97 265L177 266.34ZM187.36 268.15C187.956 268.744 188.362 269.501 188.527 270.326C188.692 271.151 188.609 272.006 188.288 272.783C187.967 273.561 187.422 274.225 186.723 274.693C186.024 275.161 185.201 275.41 184.36 275.41C183.519 275.41 182.697 275.161 181.997 274.693C181.298 274.225 180.753 273.561 180.432 272.783C180.111 272.006 180.028 271.151 180.193 270.326C180.358 269.501 180.764 268.744 181.36 268.15C182.157 267.356 183.235 266.91 184.36 266.91C185.485 266.91 186.563 267.356 187.36 268.15Z" fill="white"/>
<path d="M199.5 172.06C195.154 178.695 192.101 186.092 190.5 193.86L178.32 195.01V218.59L190.5 219.77C192.103 227.541 195.156 234.94 199.5 241.58L191.72 250.97L208.4 267.65L217.79 259.87C224.43 264.214 231.829 267.267 239.6 268.87L240.75 281.05H264.33L265.48 268.87C273.248 267.269 280.645 264.216 287.28 259.87L296.68 267.65L313.36 250.97L305.58 241.58C309.925 234.941 312.979 227.542 314.58 219.77L326.75 218.62V195.01L314.58 193.86C312.977 186.092 309.924 178.696 305.58 172.06L313.36 162.66L296.68 145.99L287.28 153.76C280.644 149.416 273.248 146.363 265.48 144.76L264.33 132.58H240.75L239.6 144.77C231.829 146.373 224.43 149.426 217.79 153.77L208.4 145.99L191.72 162.67L199.5 172.06ZM279.62 179.77C284.977 185.126 288.625 191.951 290.104 199.38C291.582 206.81 290.824 214.511 287.925 221.51C285.027 228.509 280.118 234.491 273.819 238.699C267.52 242.908 260.115 245.154 252.54 245.154C244.965 245.154 237.56 242.908 231.261 238.699C224.963 234.491 220.054 228.509 217.155 221.51C214.256 214.511 213.498 206.81 214.976 199.38C216.455 191.951 220.103 185.126 225.46 179.77C232.644 172.591 242.384 168.559 252.54 168.559C262.696 168.559 272.436 172.591 279.62 179.77Z" fill="#FF6C37"/>
<path d="M241.26 210.17H232.76L231.13 214.1H226.79L235 195.77H239.18L247.37 214.09H242.92L241.26 210.17ZM239.93 206.95L237.02 199.95L234.12 206.95H239.93Z" fill="#FF6C37"/>
<path d="M261.4 196.59C262.229 196.987 262.966 197.553 263.562 198.253C264.158 198.952 264.601 199.769 264.861 200.651C265.121 201.533 265.193 202.459 265.073 203.37C264.952 204.281 264.641 205.157 264.16 205.94C263.487 206.965 262.527 207.768 261.4 208.25C260.061 208.806 258.62 209.075 257.17 209.04H253.48V214.1H249.24V195.77H257.17C258.622 195.74 260.064 196.02 261.4 196.59ZM259.84 204.77C260.157 204.465 260.409 204.099 260.581 203.695C260.753 203.29 260.841 202.855 260.841 202.415C260.841 201.976 260.753 201.54 260.581 201.136C260.409 200.731 260.157 200.365 259.84 200.06C259 199.454 257.974 199.16 256.94 199.23H253.48V205.59H256.94C257.973 205.663 258.999 205.373 259.84 204.77Z" fill="#FF6C37"/>
<path d="M268.14 195.77H272.38V214.09H268.14V195.77Z" fill="#FF6C37"/>
<path d="M217.79 211.65C217.666 211.651 217.546 211.605 217.453 211.522C217.361 211.438 217.302 211.324 217.29 211.2C216.723 206.168 217.19 201.074 218.664 196.229C220.138 191.385 222.587 186.893 225.86 183.03C225.903 182.98 225.955 182.939 226.013 182.909C226.072 182.88 226.136 182.862 226.201 182.856C226.267 182.851 226.332 182.859 226.395 182.88C226.457 182.9 226.515 182.932 226.565 182.975C226.615 183.018 226.656 183.07 226.686 183.128C226.715 183.187 226.733 183.251 226.739 183.316C226.744 183.382 226.736 183.447 226.715 183.51C226.695 183.572 226.663 183.63 226.62 183.68C223.434 187.44 221.051 191.813 219.618 196.528C218.186 201.244 217.734 206.203 218.29 211.1C218.301 211.232 218.261 211.364 218.177 211.466C218.093 211.569 217.972 211.635 217.84 211.65H217.79Z" fill="#FF6C37"/>
<path d="M219.48 219.55C219.371 219.552 219.265 219.517 219.178 219.452C219.092 219.387 219.029 219.295 219 219.19C218.588 217.797 218.254 216.381 218 214.95C217.988 214.884 217.989 214.817 218.004 214.752C218.018 214.687 218.045 214.625 218.083 214.57C218.121 214.515 218.169 214.469 218.226 214.433C218.282 214.397 218.344 214.372 218.41 214.36C218.476 214.348 218.543 214.349 218.608 214.364C218.673 214.378 218.735 214.405 218.79 214.443C218.845 214.481 218.891 214.529 218.928 214.586C218.964 214.642 218.988 214.704 219 214.77C219.259 216.167 219.592 217.549 220 218.91C220.037 219.037 220.022 219.174 219.958 219.291C219.895 219.407 219.787 219.493 219.66 219.53C219.603 219.552 219.541 219.559 219.48 219.55Z" fill="#FF6C37"/>
<path d="M128.33 154.57V204.63H171.08" stroke="#407BFF" stroke-linecap="round" stroke-linejoin="round"/>
<path d="M128.33 157.13C129.744 157.13 130.89 155.984 130.89 154.57C130.89 153.156 129.744 152.01 128.33 152.01C126.916 152.01 125.77 153.156 125.77 154.57C125.77 155.984 126.916 157.13 128.33 157.13Z" fill="#407BFF"/>
<path d="M389.2 246.75C390.614 246.75 391.76 245.604 391.76 244.19C391.76 242.776 390.614 241.63 389.2 241.63C387.786 241.63 386.64 242.776 386.64 244.19C386.64 245.604 387.786 246.75 389.2 246.75Z" fill="#407BFF"/>
<path d="M389.2 243.82V263.67H326.58V236.26H317.2" stroke="#407BFF" stroke-miterlimit="10"/>
<path d="M468.88 271.16H359.99V375.6H468.88V271.16Z" fill="#407BFF"/>
<path opacity="0.4" d="M468.88 271.16H359.99V375.6H468.88V271.16Z" fill="white"/>
<path opacity="0.4" d="M468.87 271.16H394.65V375.6H468.87V271.16Z" fill="white"/>
<path d="M465.16 276.5H398.36V289.43H465.16V276.5Z" fill="#407BFF"/>
<path d="M465.16 292.67H398.36V305.6H465.16V292.67Z" fill="#407BFF"/>
<path d="M465.16 308.83H398.36V321.76H465.16V308.83Z" fill="#407BFF"/>
<path d="M465.16 325H398.36V337.93H465.16V325Z" fill="#407BFF"/>
<path d="M465.16 341.17H398.36V354.1H465.16V341.17Z" fill="#407BFF"/>
<path d="M465.16 357.34H398.36V370.27H465.16V357.34Z" fill="#407BFF"/>
<path d="M390.77 276.5H363.88V289.43H390.77V276.5Z" fill="#407BFF"/>
<path d="M390.77 292.67H363.88V305.6H390.77V292.67Z" fill="#407BFF"/>
<path d="M390.77 308.83H363.88V321.76H390.77V308.83Z" fill="#407BFF"/>
<path d="M390.77 325H363.88V337.93H390.77V325Z" fill="#407BFF"/>
<path d="M390.77 341.17H363.88V354.1H390.77V341.17Z" fill="#407BFF"/>
<path d="M390.77 357.34H363.88V370.27H390.77V357.34Z" fill="#407BFF"/>
<path opacity="0.3" d="M461.89 278.18H460.33V287.75H461.89V278.18Z" fill="white"/>
<path opacity="0.3" d="M458.89 278.18H457.33V287.75H458.89V278.18Z" fill="white"/>
<path opacity="0.3" d="M455.89 278.18H454.33V287.75H455.89V278.18Z" fill="white"/>
<path opacity="0.3" d="M452.89 278.18H451.33V287.75H452.89V278.18Z" fill="white"/>
<path opacity="0.3" d="M449.89 278.18H448.33V287.75H449.89V278.18Z" fill="white"/>
<path opacity="0.3" d="M461.89 294.35H460.33V303.91H461.89V294.35Z" fill="white"/>
<path opacity="0.3" d="M458.89 294.35H457.33V303.91H458.89V294.35Z" fill="white"/>
<path opacity="0.3" d="M455.89 294.35H454.33V303.91H455.89V294.35Z" fill="white"/>
<path opacity="0.3" d="M452.89 294.35H451.33V303.91H452.89V294.35Z" fill="white"/>
<path opacity="0.3" d="M449.89 294.35H448.33V303.91H449.89V294.35Z" fill="white"/>
<path opacity="0.3" d="M461.89 310.52H460.33V320.08H461.89V310.52Z" fill="white"/>
<path opacity="0.3" d="M458.89 310.52H457.33V320.08H458.89V310.52Z" fill="white"/>
<path opacity="0.3" d="M455.89 310.52H454.33V320.08H455.89V310.52Z" fill="white"/>
<path opacity="0.3" d="M452.89 310.52H451.33V320.08H452.89V310.52Z" fill="white"/>
<path opacity="0.3" d="M449.89 310.52H448.33V320.08H449.89V310.52Z" fill="white"/>
<path opacity="0.3" d="M461.89 326.69H460.33V336.26H461.89V326.69Z" fill="white"/>
<path opacity="0.3" d="M458.89 326.69H457.33V336.26H458.89V326.69Z" fill="white"/>
<path opacity="0.3" d="M455.89 326.69H454.33V336.26H455.89V326.69Z" fill="white"/>
<path opacity="0.3" d="M452.89 326.69H451.33V336.26H452.89V326.69Z" fill="white"/>
<path opacity="0.3" d="M449.89 326.69H448.33V336.26H449.89V326.69Z" fill="white"/>
<path opacity="0.3" d="M461.89 342.86H460.33V352.42H461.89V342.86Z" fill="white"/>
<path opacity="0.3" d="M458.89 342.86H457.33V352.42H458.89V342.86Z" fill="white"/>
<path opacity="0.3" d="M455.89 342.86H454.33V352.42H455.89V342.86Z" fill="white"/>
<path opacity="0.3" d="M452.89 342.86H451.33V352.42H452.89V342.86Z" fill="white"/>
<path opacity="0.3" d="M449.89 342.86H448.33V352.42H449.89V342.86Z" fill="white"/>
<path opacity="0.3" d="M461.89 359.02H460.33V368.59H461.89V359.02Z" fill="white"/>
<path opacity="0.3" d="M458.89 359.02H457.33V368.59H458.89V359.02Z" fill="white"/>
<path opacity="0.3" d="M455.89 359.02H454.33V368.59H455.89V359.02Z" fill="white"/>
<path opacity="0.3" d="M452.89 359.02H451.33V368.59H452.89V359.02Z" fill="white"/>
<path opacity="0.3" d="M449.89 359.02H448.33V368.59H449.89V359.02Z" fill="white"/>
<path opacity="0.2" d="M406.13 282.96C406.13 283.275 406.037 283.582 405.862 283.843C405.687 284.105 405.439 284.309 405.148 284.429C404.858 284.549 404.538 284.581 404.23 284.52C403.921 284.458 403.638 284.307 403.416 284.084C403.193 283.862 403.042 283.579 402.981 283.27C402.919 282.962 402.951 282.642 403.071 282.352C403.191 282.061 403.395 281.813 403.657 281.638C403.918 281.463 404.226 281.37 404.54 281.37C404.962 281.37 405.366 281.538 405.664 281.836C405.962 282.134 406.13 282.538 406.13 282.96Z" fill="white"/>
<path opacity="0.2" d="M416.13 282.96C416.13 283.275 416.037 283.582 415.862 283.843C415.687 284.105 415.439 284.309 415.148 284.429C414.858 284.549 414.538 284.581 414.23 284.52C413.921 284.458 413.638 284.307 413.416 284.084C413.193 283.862 413.042 283.579 412.981 283.27C412.919 282.962 412.951 282.642 413.071 282.352C413.191 282.061 413.395 281.813 413.657 281.638C413.918 281.463 414.226 281.37 414.54 281.37C414.962 281.37 415.366 281.538 415.664 281.836C415.962 282.134 416.13 282.538 416.13 282.96Z" fill="white"/>
<path opacity="0.4" d="M426.13 282.96C426.13 283.275 426.037 283.582 425.862 283.843C425.687 284.105 425.439 284.309 425.148 284.429C424.858 284.549 424.538 284.581 424.23 284.52C423.921 284.458 423.638 284.307 423.416 284.084C423.193 283.862 423.042 283.579 422.981 283.27C422.919 282.962 422.951 282.642 423.071 282.352C423.191 282.061 423.395 281.813 423.657 281.638C423.918 281.463 424.226 281.37 424.54 281.37C424.962 281.37 425.366 281.538 425.664 281.836C425.962 282.134 426.13 282.538 426.13 282.96Z" fill="white"/>
<path opacity="0.4" d="M406.13 299.13C406.13 299.445 406.037 299.752 405.862 300.013C405.687 300.275 405.439 300.479 405.148 300.599C404.858 300.719 404.538 300.751 404.23 300.689C403.921 300.628 403.638 300.477 403.416 300.254C403.193 300.032 403.042 299.749 402.981 299.44C402.919 299.132 402.951 298.812 403.071 298.522C403.191 298.231 403.395 297.983 403.657 297.808C403.918 297.633 404.226 297.54 404.54 297.54C404.962 297.54 405.366 297.708 405.664 298.006C405.962 298.304 406.13 298.708 406.13 299.13Z" fill="white"/>
<path opacity="0.2" d="M416.13 299.13C416.13 299.445 416.037 299.752 415.862 300.013C415.687 300.275 415.439 300.479 415.148 300.599C414.858 300.719 414.538 300.751 414.23 300.689C413.921 300.628 413.638 300.477 413.416 300.254C413.193 300.032 413.042 299.749 412.981 299.44C412.919 299.132 412.951 298.812 413.071 298.522C413.191 298.231 413.395 297.983 413.657 297.808C413.918 297.633 414.226 297.54 414.54 297.54C414.962 297.54 415.366 297.708 415.664 298.006C415.962 298.304 416.13 298.708 416.13 299.13Z" fill="white"/>
<path opacity="0.4" d="M426.13 299.13C426.13 299.445 426.037 299.752 425.862 300.013C425.687 300.275 425.439 300.479 425.148 300.599C424.858 300.719 424.538 300.751 424.23 300.689C423.921 300.628 423.638 300.477 423.416 300.254C423.193 300.032 423.042 299.749 422.981 299.44C422.919 299.132 422.951 298.812 423.071 298.522C423.191 298.231 423.395 297.983 423.657 297.808C423.918 297.633 424.226 297.54 424.54 297.54C424.962 297.54 425.366 297.708 425.664 298.006C425.962 298.304 426.13 298.708 426.13 299.13Z" fill="white"/>
<path opacity="0.2" d="M406.13 315.3C406.13 315.614 406.037 315.922 405.862 316.183C405.687 316.445 405.439 316.649 405.148 316.769C404.858 316.889 404.538 316.921 404.23 316.859C403.921 316.798 403.638 316.647 403.416 316.424C403.193 316.202 403.042 315.919 402.981 315.61C402.919 315.302 402.951 314.982 403.071 314.691C403.191 314.401 403.395 314.153 403.657 313.978C403.918 313.803 404.226 313.71 404.54 313.71C404.962 313.71 405.366 313.877 405.664 314.176C405.962 314.474 406.13 314.878 406.13 315.3Z" fill="white"/>
<path opacity="0.4" d="M416.13 315.3C416.13 315.614 416.037 315.922 415.862 316.183C415.687 316.445 415.439 316.649 415.148 316.769C414.858 316.889 414.538 316.921 414.23 316.859C413.921 316.798 413.638 316.647 413.416 316.424C413.193 316.202 413.042 315.919 412.981 315.61C412.919 315.302 412.951 314.982 413.071 314.691C413.191 314.401 413.395 314.153 413.657 313.978C413.918 313.803 414.226 313.71 414.54 313.71C414.962 313.71 415.366 313.877 415.664 314.176C415.962 314.474 416.13 314.878 416.13 315.3Z" fill="white"/>
<path opacity="0.2" d="M426.13 315.3C426.13 315.614 426.037 315.922 425.862 316.183C425.687 316.445 425.439 316.649 425.148 316.769C424.858 316.889 424.538 316.921 424.23 316.859C423.921 316.798 423.638 316.647 423.416 316.424C423.193 316.202 423.042 315.919 422.981 315.61C422.919 315.302 422.951 314.982 423.071 314.691C423.191 314.401 423.395 314.153 423.657 313.978C423.918 313.803 424.226 313.71 424.54 313.71C424.962 313.71 425.366 313.877 425.664 314.176C425.962 314.474 426.13 314.878 426.13 315.3Z" fill="white"/>
<path opacity="0.4" d="M406.13 331.47C406.13 331.784 406.037 332.092 405.862 332.353C405.687 332.615 405.439 332.819 405.148 332.939C404.858 333.059 404.538 333.091 404.23 333.029C403.921 332.968 403.638 332.817 403.416 332.594C403.193 332.372 403.042 332.089 402.981 331.78C402.919 331.472 402.951 331.152 403.071 330.861C403.191 330.571 403.395 330.323 403.657 330.148C403.918 329.973 404.226 329.88 404.54 329.88C404.962 329.88 405.366 330.047 405.664 330.346C405.962 330.644 406.13 331.048 406.13 331.47Z" fill="white"/>
<path opacity="0.2" d="M416.13 331.47C416.13 331.784 416.037 332.092 415.862 332.353C415.687 332.615 415.439 332.819 415.148 332.939C414.858 333.059 414.538 333.091 414.23 333.029C413.921 332.968 413.638 332.817 413.416 332.594C413.193 332.372 413.042 332.089 412.981 331.78C412.919 331.472 412.951 331.152 413.071 330.861C413.191 330.571 413.395 330.323 413.657 330.148C413.918 329.973 414.226 329.88 414.54 329.88C414.962 329.88 415.366 330.047 415.664 330.346C415.962 330.644 416.13 331.048 416.13 331.47Z" fill="white"/>
<path opacity="0.2" d="M426.13 331.47C426.13 331.784 426.037 332.092 425.862 332.353C425.687 332.615 425.439 332.819 425.148 332.939C424.858 333.059 424.538 333.091 424.23 333.029C423.921 332.968 423.638 332.817 423.416 332.594C423.193 332.372 423.042 332.089 422.981 331.78C422.919 331.472 422.951 331.152 423.071 330.861C423.191 330.571 423.395 330.323 423.657 330.148C423.918 329.973 424.226 329.88 424.54 329.88C424.962 329.88 425.366 330.047 425.664 330.346C425.962 330.644 426.13 331.048 426.13 331.47Z" fill="white"/>
<path opacity="0.2" d="M406.13 347.64C406.13 347.955 406.037 348.262 405.862 348.524C405.687 348.785 405.439 348.989 405.148 349.109C404.858 349.23 404.538 349.261 404.23 349.2C403.921 349.138 403.638 348.987 403.416 348.765C403.193 348.542 403.042 348.259 402.981 347.951C402.919 347.642 402.951 347.322 403.071 347.032C403.191 346.741 403.395 346.493 403.657 346.318C403.918 346.144 404.226 346.05 404.54 346.05C404.962 346.05 405.366 346.218 405.664 346.516C405.962 346.814 406.13 347.219 406.13 347.64Z" fill="white"/>
<path opacity="0.4" d="M416.13 347.64C416.13 347.955 416.037 348.262 415.862 348.524C415.687 348.785 415.439 348.989 415.148 349.109C414.858 349.23 414.538 349.261 414.23 349.2C413.921 349.138 413.638 348.987 413.416 348.765C413.193 348.542 413.042 348.259 412.981 347.951C412.919 347.642 412.951 347.322 413.071 347.032C413.191 346.741 413.395 346.493 413.657 346.318C413.918 346.144 414.226 346.05 414.54 346.05C414.962 346.05 415.366 346.218 415.664 346.516C415.962 346.814 416.13 347.219 416.13 347.64Z" fill="white"/>
<path opacity="0.4" d="M426.13 347.64C426.13 347.955 426.037 348.262 425.862 348.524C425.687 348.785 425.439 348.989 425.148 349.109C424.858 349.23 424.538 349.261 424.23 349.2C423.921 349.138 423.638 348.987 423.416 348.765C423.193 348.542 423.042 348.259 422.981 347.951C422.919 347.642 422.951 347.322 423.071 347.032C423.191 346.741 423.395 346.493 423.657 346.318C423.918 346.144 424.226 346.05 424.54 346.05C424.962 346.05 425.366 346.218 425.664 346.516C425.962 346.814 426.13 347.219 426.13 347.64Z" fill="white"/>
<path opacity="0.4" d="M406.13 363.77C406.13 364.085 406.037 364.392 405.862 364.654C405.687 364.915 405.439 365.119 405.148 365.239C404.858 365.359 404.538 365.391 404.23 365.33C403.921 365.268 403.638 365.117 403.416 364.894C403.193 364.672 403.042 364.389 402.981 364.08C402.919 363.772 402.951 363.452 403.071 363.162C403.191 362.871 403.395 362.623 403.657 362.448C403.918 362.273 404.226 362.18 404.54 362.18C404.962 362.18 405.366 362.348 405.664 362.646C405.962 362.944 406.13 363.348 406.13 363.77Z" fill="white"/>
<path opacity="0.2" d="M416.13 363.77C416.13 364.085 416.037 364.392 415.862 364.654C415.687 364.915 415.439 365.119 415.148 365.239C414.858 365.359 414.538 365.391 414.23 365.33C413.921 365.268 413.638 365.117 413.416 364.894C413.193 364.672 413.042 364.389 412.981 364.08C412.919 363.772 412.951 363.452 413.071 363.162C413.191 362.871 413.395 362.623 413.657 362.448C413.918 362.273 414.226 362.18 414.54 362.18C414.962 362.18 415.366 362.348 415.664 362.646C415.962 362.944 416.13 363.348 416.13 363.77Z" fill="white"/>
<path opacity="0.4" d="M426.13 363.77C426.13 364.085 426.037 364.392 425.862 364.654C425.687 364.915 425.439 365.119 425.148 365.239C424.858 365.359 424.538 365.391 424.23 365.33C423.921 365.268 423.638 365.117 423.416 364.894C423.193 364.672 423.042 364.389 422.981 364.08C422.919 363.772 422.951 363.452 423.071 363.162C423.191 362.871 423.395 362.623 423.657 362.448C423.918 362.273 424.226 362.18 424.54 362.18C424.962 362.18 425.366 362.348 425.664 362.646C425.962 362.944 426.13 363.348 426.13 363.77Z" fill="white"/>
<path opacity="0.3" d="M394.65 271.16H359.99V375.6H394.65V271.16Z" fill="black"/>
<path d="M460.15 141.03H358.95C356.222 141.03 354.01 143.242 354.01 145.97V229.49C354.01 232.218 356.222 234.43 358.95 234.43H460.15C462.878 234.43 465.09 232.218 465.09 229.49V145.97C465.09 143.242 462.878 141.03 460.15 141.03Z" fill="#407BFF"/>
<path opacity="0.5" d="M460.15 141.03H358.95C356.222 141.03 354.01 143.242 354.01 145.97V229.49C354.01 232.218 356.222 234.43 358.95 234.43H460.15C462.878 234.43 465.09 232.218 465.09 229.49V145.97C465.09 143.242 462.878 141.03 460.15 141.03Z" fill="white"/>
<path d="M358.64 141H460.54C461.747 141 462.904 141.479 463.757 142.333C464.611 143.186 465.09 144.343 465.09 145.55V157.29H354V145.66C353.996 145.049 354.113 144.443 354.345 143.877C354.576 143.311 354.918 142.796 355.349 142.363C355.78 141.93 356.293 141.586 356.858 141.352C357.423 141.118 358.029 140.999 358.64 141Z" fill="#407BFF"/>
<path opacity="0.5" d="M458.81 150.36C458.812 151.065 458.605 151.755 458.214 152.342C457.824 152.929 457.268 153.386 456.617 153.657C455.966 153.928 455.249 153.999 454.558 153.862C453.866 153.725 453.231 153.386 452.733 152.887C452.234 152.389 451.895 151.754 451.758 151.062C451.621 150.371 451.692 149.654 451.963 149.003C452.234 148.352 452.691 147.796 453.278 147.406C453.865 147.015 454.555 146.808 455.26 146.81C455.726 146.81 456.188 146.902 456.619 147.08C457.049 147.259 457.441 147.52 457.77 147.85C458.1 148.18 458.361 148.571 458.54 149.002C458.718 149.432 458.81 149.894 458.81 150.36Z" fill="white"/>
<path opacity="0.5" d="M448.71 150.36C448.712 151.065 448.505 151.754 448.115 152.341C447.725 152.927 447.17 153.385 446.519 153.656C445.869 153.927 445.153 153.999 444.462 153.863C443.77 153.727 443.135 153.388 442.636 152.891C442.137 152.393 441.797 151.759 441.659 151.068C441.521 150.377 441.591 149.661 441.86 149.01C442.129 148.359 442.585 147.802 443.171 147.411C443.757 147.019 444.445 146.81 445.15 146.81C446.092 146.81 446.996 147.184 447.664 147.849C448.331 148.515 448.707 149.418 448.71 150.36Z" fill="white"/>
<path opacity="0.5" d="M438.6 150.36C438.602 151.065 438.395 151.755 438.004 152.342C437.614 152.929 437.058 153.386 436.407 153.657C435.756 153.928 435.039 153.999 434.348 153.862C433.656 153.725 433.021 153.386 432.523 152.887C432.024 152.389 431.685 151.754 431.548 151.062C431.411 150.371 431.482 149.654 431.753 149.003C432.024 148.352 432.481 147.796 433.068 147.406C433.655 147.015 434.345 146.808 435.05 146.81C435.516 146.81 435.978 146.902 436.409 147.08C436.839 147.259 437.231 147.52 437.56 147.85C437.89 148.18 438.151 148.571 438.33 149.002C438.508 149.432 438.6 149.894 438.6 150.36Z" fill="white"/>
<path opacity="0.6" d="M435.98 170.93H379.01V174.25H435.98V170.93Z" fill="white"/>
<path opacity="0.6" d="M420.66 178.11H379.89V181.43H420.66V178.11Z" fill="#263238"/>
<path d="M451.38 170.93H440.17V174.25H451.38V170.93Z" fill="#407BFF"/>
<path d="M375.05 170.93H363.84V174.25H375.05V170.93Z" fill="#407BFF"/>
<path d="M435.98 186.08H379.01V189.4H435.98V186.08Z" fill="#407BFF"/>
<path opacity="0.6" d="M451.38 186.08H440.17V189.4H451.38V186.08Z" fill="white"/>
<path d="M375.05 186.08H363.84V189.4H375.05V186.08Z" fill="#407BFF"/>
<path d="M435.98 217.64H379.01V220.96H435.98V217.64Z" fill="#407BFF"/>
<path opacity="0.6" d="M451.38 217.64H440.17V220.96H451.38V217.64Z" fill="white"/>
<path d="M435.98 194.06H379.01V197.38H435.98V194.06Z" fill="#407BFF"/>
<path opacity="0.6" d="M451.38 194.06H440.17V197.38H451.38V194.06Z" fill="#263238"/>
<path opacity="0.6" d="M375.05 194.06H363.84V197.38H375.05V194.06Z" fill="#263238"/>
<path d="M452.2 178.24H425.12V181.56H452.2V178.24Z" fill="#407BFF"/>
<path opacity="0.6" d="M419.78 201.02H379.01V204.34H419.78V201.02Z" fill="white"/>
<path d="M451.31 201.15H424.23V204.47H451.31V201.15Z" fill="#407BFF"/>
<path opacity="0.6" d="M399.39 208.23H379.01V211.55H399.39V208.23Z" fill="#263238"/>
<path d="M158.84 45.4199H57.64C54.9117 45.4199 52.7 47.6316 52.7 50.3599V133.88C52.7 136.608 54.9117 138.82 57.64 138.82H158.84C161.568 138.82 163.78 136.608 163.78 133.88V50.3599C163.78 47.6316 161.568 45.4199 158.84 45.4199Z" fill="#407BFF"/>
<path opacity="0.5" d="M158.84 45.4199H57.64C54.9117 45.4199 52.7 47.6316 52.7 50.3599V133.88C52.7 136.608 54.9117 138.82 57.64 138.82H158.84C161.568 138.82 163.78 136.608 163.78 133.88V50.3599C163.78 47.6316 161.568 45.4199 158.84 45.4199Z" fill="white"/>
<path d="M57.32 45.4199H159.23C159.829 45.4212 160.422 45.5409 160.975 45.772C161.528 46.0031 162.03 46.3412 162.452 46.7667C162.873 47.1923 163.207 47.697 163.433 48.2518C163.66 48.8067 163.774 49.4007 163.77 49.9999V61.7099H52.7V50.0499C52.7 48.8237 53.1864 47.6476 54.0526 46.7795C54.9187 45.9115 56.0938 45.4226 57.32 45.4199Z" fill="#407BFF"/>
<path opacity="0.5" d="M157.5 54.7697C157.498 55.4759 157.286 56.1656 156.891 56.7509C156.496 57.3362 155.935 57.7909 155.281 58.0569C154.627 58.323 153.908 58.3885 153.217 58.245C152.526 58.1016 151.892 57.7558 151.398 57.2515C150.904 56.7472 150.57 56.1073 150.441 55.4131C150.311 54.7189 150.391 54.0018 150.67 53.353C150.948 52.7042 151.414 52.1531 152.007 51.7696C152.6 51.3862 153.294 51.1878 154 51.1997C154.936 51.2129 155.829 51.5955 156.485 52.2641C157.141 52.9328 157.505 53.8333 157.5 54.7697Z" fill="white"/>
<path opacity="0.5" d="M147.4 54.77C147.4 55.4741 147.191 56.1624 146.8 56.7478C146.409 57.3332 145.853 57.7895 145.202 58.059C144.552 58.3284 143.836 58.3989 143.146 58.2616C142.455 58.1242 141.821 57.7852 141.323 57.2873C140.825 56.7894 140.486 56.1551 140.348 55.4645C140.211 54.7739 140.282 54.0581 140.551 53.4076C140.82 52.7571 141.277 52.2011 141.862 51.8099C142.448 51.4188 143.136 51.21 143.84 51.21C144.308 51.2087 144.771 51.2998 145.204 51.4783C145.636 51.6567 146.029 51.9189 146.36 52.2497C146.691 52.5806 146.953 52.9735 147.132 53.4061C147.31 53.8386 147.401 54.3021 147.4 54.77Z" fill="white"/>
<path opacity="0.5" d="M137.29 54.77C137.29 55.4745 137.081 56.1632 136.689 56.7488C136.298 57.3345 135.741 57.7908 135.09 58.0599C134.439 58.3291 133.723 58.399 133.032 58.2608C132.341 58.1226 131.707 57.7826 131.209 57.2837C130.712 56.7848 130.373 56.1496 130.237 55.4583C130.101 54.7671 130.173 54.051 130.444 53.4007C130.715 52.7504 131.173 52.195 131.759 51.8051C132.346 51.4151 133.036 51.208 133.74 51.21C134.207 51.21 134.67 51.3021 135.101 51.4812C135.532 51.6602 135.924 51.9226 136.254 52.2533C136.584 52.584 136.845 52.9765 137.023 53.4084C137.2 53.8402 137.291 54.3029 137.29 54.77Z" fill="white"/>
<path d="M143.24 97.4901C139.56 92.5501 132.01 90.1401 126.98 93.7101C126.21 88.187 123.277 83.1961 118.826 79.8355C114.376 76.4748 108.773 75.0197 103.25 75.7901C97.7269 76.5606 92.736 79.4935 89.3754 83.9438C86.0147 88.394 84.5596 93.997 85.33 99.5201C80.47 98.4101 75.13 99.5801 71.98 104.6C67.88 111.1 73.19 117.55 73.19 117.55L101.69 117.72V107.27H98.05C97.9057 107.272 97.7642 107.23 97.6434 107.152C97.5225 107.073 97.4277 106.96 97.371 106.827C97.3143 106.694 97.2982 106.548 97.3247 106.406C97.3512 106.264 97.4192 106.133 97.52 106.03L101.71 101.65L106.57 96.5801C106.639 96.5093 106.721 96.4531 106.812 96.4147C106.903 96.3763 107.001 96.3565 107.1 96.3565C107.199 96.3565 107.297 96.3763 107.388 96.4147C107.479 96.4531 107.561 96.5093 107.63 96.5801L112.48 101.65L116.68 106.03C116.776 106.135 116.84 106.265 116.864 106.406C116.888 106.546 116.871 106.69 116.815 106.821C116.759 106.952 116.667 107.064 116.549 107.144C116.431 107.223 116.292 107.267 116.15 107.27H112.5V117.77L142.84 117.94C147.16 112.98 146.93 102.43 143.24 97.4901Z" fill="white"/>
<path d="M100.52 378.38C100.52 378.38 187.64 357.97 191.78 376.11C197.7 402.02 134.84 419.44 101.36 418.38C67.88 417.32 100.52 378.38 100.52 378.38Z" fill="black"/>
<path opacity="0.2" d="M100.52 378.38C100.52 378.38 187.64 357.97 191.78 376.11C197.7 402.02 134.84 419.44 101.36 418.38C67.88 417.32 100.52 378.38 100.52 378.38Z" fill="black"/>
<path opacity="0.7" d="M163.2 381.71L122.28 407.71L127.74 415.47C127.74 415.47 124.87 419.74 119.39 406.64L144.7 389.91C144.7 389.91 136.78 389.12 136.98 387.91C137.32 385.91 154.72 382 162.66 380.26C162.852 380.206 163.057 380.227 163.234 380.317C163.411 380.408 163.548 380.563 163.616 380.75C163.684 380.937 163.679 381.143 163.602 381.326C163.525 381.51 163.381 381.658 163.2 381.74V381.71Z" fill="black"/>
<path opacity="0.7" d="M120.8 404.77L127.9 416.27C119.138 417.791 110.252 418.49 101.36 418.36C98.4421 418.339 95.5496 417.815 92.81 416.81L90.32 412.25L95.68 401.45L120.8 404.77Z" fill="black"/>
<path d="M134.34 400.21L116.15 411.75L119.41 420.58L140.77 410.98L134.34 400.21Z" fill="#B97964"/>
<path d="M106.13 414.71L107.92 421.06C108.325 421.163 108.697 421.365 109.004 421.648C109.312 421.931 109.544 422.285 109.68 422.68C109.735 423.632 109.627 424.585 109.36 425.5L114.14 443.01C114.721 442.857 115.282 442.636 115.81 442.35C116.322 441.987 116.789 441.564 117.2 441.09C118.5 439.6 118.64 437.43 118.69 435.83C118.77 433.15 120.31 425.3 120.31 425.3C120.856 423.792 121.808 422.463 123.06 421.46C123.548 421.107 123.949 420.649 124.235 420.119C124.521 419.589 124.683 419.001 124.71 418.4C124.678 418.068 124.574 417.747 124.405 417.459C124.236 417.172 124.007 416.924 123.733 416.734C123.459 416.544 123.147 416.415 122.818 416.358C122.49 416.3 122.152 416.314 121.83 416.4L120.09 416.61C119.472 416.171 119.043 415.515 118.889 414.773C118.735 414.031 118.868 413.258 119.26 412.61C119.26 412.61 120.26 408.8 118.69 409.44C117.77 409.8 113.76 411.6 110.54 412.92L108.46 413.77L106.13 414.71Z" fill="#263238"/>
<path d="M119.64 429.48C119.662 429.432 119.668 429.377 119.658 429.325C119.647 429.273 119.62 429.226 119.58 429.19C119.201 428.833 118.73 428.587 118.22 428.48C117.94 428.48 117.82 428.87 118.09 428.93C118.54 429.022 118.958 429.232 119.3 429.54C119.319 429.567 119.345 429.589 119.375 429.604C119.404 429.619 119.437 429.627 119.47 429.627C119.503 429.627 119.536 429.619 119.565 429.604C119.595 429.589 119.621 429.567 119.64 429.54V429.48Z" fill="#407BFF"/>
<path d="M120 427.93C120.022 427.882 120.028 427.827 120.018 427.775C120.007 427.723 119.98 427.676 119.94 427.64C119.561 427.284 119.09 427.042 118.58 426.94C118.3 426.88 118.17 427.32 118.45 427.38C118.9 427.472 119.318 427.683 119.66 427.99C119.683 428.015 119.712 428.033 119.744 428.044C119.776 428.055 119.81 428.058 119.843 428.053C119.876 428.049 119.908 428.036 119.935 428.016C119.963 427.996 119.985 427.97 120 427.94V427.93Z" fill="#407BFF"/>
<path d="M120.3 426.36C120.32 426.31 120.325 426.254 120.315 426.201C120.304 426.148 120.278 426.099 120.24 426.06C119.854 425.709 119.381 425.468 118.87 425.36C118.6 425.3 118.47 425.74 118.75 425.8C119.198 425.896 119.613 426.11 119.95 426.42C119.974 426.444 120.003 426.462 120.036 426.472C120.068 426.483 120.102 426.485 120.136 426.479C120.169 426.473 120.201 426.459 120.228 426.439C120.254 426.418 120.276 426.391 120.29 426.36H120.3Z" fill="#407BFF"/>
<path opacity="0.2" d="M108.46 413.77L106.13 414.77L107.92 421.12C108.325 421.223 108.697 421.425 109.004 421.708C109.312 421.991 109.544 422.345 109.68 422.74C109.735 423.691 109.627 424.645 109.36 425.56L114.14 443.07C114.721 442.917 115.282 442.696 115.81 442.41C116.07 442.22 116.3 442.03 116.52 441.84L108.81 413.67L108.46 413.77Z" fill="white"/>
<path d="M120.05 426.25C120.636 426.013 121.241 425.829 121.86 425.7C122.482 425.572 123.126 425.607 123.73 425.8C123.872 425.838 124.002 425.91 124.11 426.009C124.218 426.108 124.3 426.232 124.35 426.37C124.363 426.524 124.332 426.679 124.261 426.817C124.191 426.955 124.083 427.07 123.95 427.15C123.445 427.479 122.83 427.594 122.24 427.47C121.452 427.179 120.713 426.767 120.05 426.25Z" stroke="#407BFF" stroke-width="0.25" stroke-miterlimit="10"/>
<path d="M120 426.18C120.502 425.798 120.974 425.376 121.41 424.92C121.844 424.454 122.148 423.881 122.29 423.26C122.333 423.121 122.341 422.973 122.314 422.83C122.286 422.687 122.223 422.553 122.13 422.44C122.006 422.347 121.858 422.292 121.704 422.281C121.55 422.271 121.395 422.305 121.26 422.38C120.99 422.506 120.748 422.685 120.548 422.907C120.349 423.128 120.196 423.388 120.1 423.67C119.936 424.496 119.902 425.343 120 426.18Z" stroke="#407BFF" stroke-width="0.25" stroke-miterlimit="10"/>
<path d="M136.51 322.95C136.51 322.95 139.69 351.27 140.51 352.79C143.39 357.93 162.44 366.79 162.44 366.79L172.15 364.79L179.15 370.6L174.56 374.19L169.18 372.19C166.242 372.714 163.264 372.975 160.28 372.97C155.28 372.97 131.07 366.84 127.03 360.09C122.99 353.34 121.14 322.09 121.14 322.09L136.51 322.95Z" fill="#B97964"/>
<path d="M120.71 334.08C120.71 334.08 113.25 309.21 122.55 302.3C131.85 295.39 139.24 329.6 139.24 329.6L120.71 334.08Z" fill="#FF6C37"/>
<path opacity="0.3" d="M120.71 334.08C120.71 334.08 113.25 309.21 122.55 302.3C131.85 295.39 139.24 329.6 139.24 329.6L120.71 334.08Z" fill="white"/>
<path d="M126.6 379.58L126.53 346.58L125.61 301.18L106.34 297.18L89.34 296.43L70.1 305.32L69.65 316.4C69.65 316.4 71.85 367.26 71.73 368.8C71.58 370.68 66.1 382.47 66.1 382.47C90.48 388.03 127 381.26 126.6 379.58Z" fill="#FF6C37"/>
<path opacity="0.3" d="M126.6 379.58L126.53 346.58L125.61 301.18L106.34 297.18L89.34 296.43L70.1 305.32L69.65 316.4C69.65 316.4 71.85 367.26 71.73 368.8C71.58 370.68 66.1 382.47 66.1 382.47C90.48 388.03 127 381.26 126.6 379.58Z" fill="white"/>
<path d="M99 303.77C99 303.77 103.73 307.98 106.15 302.54L107.41 303.54C107.41 303.54 107.29 307.59 104.99 308.94C105.55 311.19 115.15 343.89 116.87 360.37L114.25 367.06L107.25 361.55C107.25 361.55 103.87 333.28 102.71 309.25C101.353 308.795 100.112 308.048 99.0757 307.062C98.039 306.075 97.2314 304.873 96.71 303.54L99 303.77Z" fill="#FF6C37"/>
<path opacity="0.2" d="M105.1 304.35L109.2 307.54L109.87 297.97L108.57 297.69L107.48 304.14L105.54 303.01L105.1 304.35Z" fill="black"/>
<path opacity="0.2" d="M85.35 298.34C85.28 298.34 95 310.23 95 310.23L98.3001 307.71L100.57 305.79L101.16 305.07L88.29 296.13C87.6991 296.761 87.0642 297.349 86.39 297.89C86.0298 298.006 85.6816 298.157 85.35 298.34Z" fill="black"/>
<path d="M86.04 298.14L90.74 293.94L103.61 305.99L100.25 304.8L95.34 308.56L86.04 298.14Z" fill="#FF6C37"/>
<path d="M103.61 305.99C103.33 305.44 104.61 294.5 104.61 294.5L109.17 297.62C108.93 297.57 108.77 306.62 108.62 306.62C108.47 306.62 105.62 303.52 105.62 303.52L103.61 305.99Z" fill="#FF6C37"/>
<path opacity="0.2" d="M126.26 332.74L125.26 311.48L130.02 331.83L126.26 332.74Z" fill="black"/>
<path opacity="0.2" d="M85 335.84C85.6 335.72 88.63 334.72 88.63 334.72L81.9 315.94L91.17 336.77L85.6 338.99L85 335.84Z" fill="black"/>
<path opacity="0.3" d="M86.04 298.14L90.74 293.94L103.61 305.99L100.25 304.8L95.34 308.56L86.04 298.14Z" fill="white"/>
<path opacity="0.3" d="M103.61 305.99C103.33 305.44 104.61 294.5 104.61 294.5L109.17 297.62C108.93 297.57 108.77 306.62 108.62 306.62C108.47 306.62 105.62 303.52 105.62 303.52L103.61 305.99Z" fill="white"/>
<path opacity="0.3" d="M110.91 323.57L113.07 334.18L119.36 336.46L123.61 332.75L122.83 322.73L110.91 323.57Z" fill="white"/>
<path d="M104.38 305.07L102.38 305.55C102.38 305.55 102.31 305.68 102.38 305.6C102.45 305.52 101.29 309.37 101.29 309.37C101.61 309.66 102.68 311.51 102.8 311.48C102.92 311.45 105.57 311.2 105.57 311.2L106.57 308.4L104.38 305.07Z" fill="#FF6C37"/>
<path opacity="0.2" d="M104.38 305.07L102.38 305.55C102.38 305.55 102.31 305.68 102.38 305.6C102.45 305.52 101.29 309.37 101.29 309.37C101.61 309.66 102.68 311.51 102.8 311.48C102.92 311.45 105.57 311.2 105.57 311.2L106.57 308.4L104.38 305.07Z" fill="black"/>
<path d="M82.41 320.26C82.41 320.26 87.13 351.7 89.86 354.64C94.47 359.64 117.32 372.79 117.32 372.79L128.73 368.79C129.12 368.66 129.536 368.627 129.942 368.693C130.348 368.759 130.731 368.923 131.06 369.17L138.86 375.17L138.12 375.8C137.96 375.934 137.764 376.019 137.556 376.044C137.348 376.069 137.138 376.033 136.95 375.94L135.74 375.34L137.09 376.66L136.67 377.03C136.455 377.209 136.2 377.333 135.927 377.392C135.653 377.451 135.37 377.444 135.1 377.37L131.61 376.43L134.83 378.58C134.467 378.878 134.037 379.084 133.578 379.18C133.118 379.275 132.642 379.258 132.19 379.13L127.09 377.68C123.607 378.473 120.065 378.978 116.5 379.19C110.5 379.56 82.13 369.65 76.84 362.4C71.55 355.15 66.1 324.96 66.1 324.96L82.41 320.26Z" fill="#B97964"/>
<path d="M67.31 341.18C67.31 341.18 60.24 312.68 69.54 305.77C78.84 298.86 88.05 334.92 88.05 334.92L67.31 341.18Z" fill="#FF6C37"/>
<path opacity="0.3" d="M67.31 341.18C67.31 341.18 60.24 312.68 69.54 305.77C78.84 298.86 88.05 334.92 88.05 334.92L67.31 341.18Z" fill="white"/>
<path d="M128.18 267.46C128.773 267.397 129.323 267.123 129.731 266.688C130.139 266.253 130.377 265.686 130.402 265.091C130.428 264.495 130.239 263.91 129.869 263.442C129.5 262.974 128.975 262.654 128.39 262.54L122.88 261.99C123.14 265.53 123.403 269.067 123.67 272.6C124.73 272.92 125.86 272.92 126.92 272.6C127.448 272.433 127.929 272.144 128.325 271.757C128.721 271.369 129.021 270.894 129.2 270.37C129.366 269.84 129.356 269.27 129.173 268.746C128.989 268.222 128.641 267.771 128.18 267.46Z" fill="#263238"/>
<path d="M107.11 287.87L95.26 272.96C95.26 272.96 95.26 272.96 95.26 273.01C95.26 274.42 95.26 276.01 95.1 277.75C95.1 277.75 93.82 277.14 93.82 277.16C93.31 284.9 90.25 298.16 90.39 299.26L102.84 305.45L105.11 303.18L105.55 298.18C104.28 294.98 105.46 291.3 107.11 287.87Z" fill="#B97964"/>
<path opacity="0.2" d="M105.33 292.9L97.84 286.98C97.65 289.98 99.23 294.73 105.24 297.19C104.914 295.775 104.945 294.3 105.33 292.9Z" fill="black"/>
<path d="M97.79 265.57C95.34 275.57 94.41 280.42 97.79 286.98C102.94 296.84 115.53 296.92 120.95 287.79C125.82 279.58 129.02 264.56 120.55 257.73C118.674 256.231 116.449 255.23 114.082 254.821C111.716 254.411 109.284 254.607 107.013 255.389C104.743 256.171 102.706 257.515 101.094 259.295C99.4814 261.075 98.3449 263.233 97.79 265.57Z" fill="#B97964"/>
<path d="M99.9 251.95C102.9 246.95 110.9 246.14 113.83 250.09C114.26 250.68 109.52 250.82 110.06 250.79L107.28 258.7C106.73 258.39 105.37 258.7 104.22 260.34C104.22 260.34 102.43 271.22 96.79 274.26C91.26 266.62 91.89 251.97 99.9 251.95Z" fill="#263238"/>
<path d="M91.35 272.57C91.3621 273.853 91.6281 275.12 92.1327 276.299C92.6373 277.478 93.3705 278.546 94.29 279.44C96.78 281.81 99.66 279.97 100.35 276.79C100.96 273.92 100.41 269.22 97.26 268.06C94.11 266.9 91.35 269.39 91.35 272.57Z" fill="#B97964"/>
<path d="M111.37 273.98C111.06 274.98 111.37 275.98 112 276.16C112.63 276.34 113.45 275.7 113.77 274.7C114.09 273.7 113.77 272.7 113.14 272.51C112.51 272.32 111.69 272.97 111.37 273.98Z" fill="#263238"/>
<path d="M121.25 277.19C120.94 278.19 121.25 279.19 121.88 279.37C122.51 279.55 123.34 278.91 123.65 277.91C123.96 276.91 123.65 275.91 123.02 275.72C122.39 275.53 121.57 276.18 121.25 277.19Z" fill="#263238"/>
<path d="M117.77 274.5C117.77 274.5 119.03 279.09 119.6 281.81C119.634 281.963 119.633 282.122 119.6 282.275C119.566 282.428 119.499 282.572 119.404 282.697C119.308 282.821 119.187 282.924 119.048 282.997C118.91 283.07 118.757 283.112 118.6 283.12C117.614 283.098 116.649 282.834 115.79 282.35L117.77 274.5Z" fill="#A24E3F"/>
<path d="M110.32 267.93C110.387 267.985 110.467 268.023 110.553 268.039C110.639 268.054 110.727 268.048 110.81 268.02C111.385 267.784 112.007 267.686 112.627 267.733C113.247 267.78 113.847 267.971 114.38 268.29C114.487 268.367 114.62 268.4 114.75 268.381C114.881 268.362 114.999 268.294 115.08 268.19C115.155 268.083 115.186 267.951 115.166 267.822C115.145 267.694 115.075 267.578 114.97 267.5C114.305 267.078 113.548 266.822 112.764 266.753C111.979 266.683 111.189 266.802 110.46 267.1C110.34 267.147 110.242 267.239 110.188 267.356C110.134 267.474 110.127 267.608 110.17 267.73C110.202 267.808 110.254 267.877 110.32 267.93Z" fill="#263238"/>
<path d="M126.5 272.61C126.596 272.589 126.686 272.545 126.76 272.48C126.851 272.388 126.902 272.264 126.902 272.135C126.902 272.006 126.851 271.882 126.76 271.79C126.255 271.195 125.614 270.731 124.892 270.435C124.17 270.139 123.387 270.021 122.61 270.09C122.48 270.112 122.363 270.184 122.285 270.29C122.207 270.396 122.173 270.529 122.19 270.66C122.2 270.724 122.222 270.785 122.255 270.84C122.289 270.895 122.333 270.943 122.385 270.981C122.437 271.019 122.496 271.047 122.559 271.062C122.621 271.077 122.686 271.08 122.75 271.07C123.366 271.015 123.987 271.112 124.557 271.352C125.127 271.593 125.63 271.97 126.02 272.45C126.08 272.515 126.155 272.564 126.239 272.592C126.323 272.62 126.413 272.626 126.5 272.61Z" fill="#263238"/>
<path d="M110.54 284.4C110.886 284.679 111.254 284.93 111.64 285.15C111.702 285.181 111.772 285.19 111.839 285.176C111.907 285.161 111.967 285.124 112.01 285.07C112.039 285.004 112.043 284.93 112.021 284.862C111.999 284.793 111.952 284.736 111.89 284.7C110.898 284.167 110.046 283.408 109.403 282.483C108.76 281.559 108.344 280.495 108.19 279.38C108.182 279.312 108.149 279.249 108.097 279.205C108.045 279.16 107.978 279.137 107.91 279.14C107.848 279.137 107.787 279.158 107.741 279.2C107.694 279.241 107.665 279.298 107.66 279.36C107.655 279.38 107.655 279.4 107.66 279.42C107.777 280.402 108.092 281.35 108.587 282.206C109.082 283.063 109.747 283.809 110.54 284.4Z" fill="#263238"/>
<path d="M133.15 259.97C132.47 257.97 130.09 257.13 127.98 256.97C128.638 256.894 129.243 256.576 129.681 256.08C130.119 255.583 130.357 254.942 130.35 254.28C130.309 253.617 130.121 252.971 129.799 252.39C129.478 251.809 129.03 251.307 128.49 250.92C127.552 250.191 126.441 249.717 125.266 249.541C124.091 249.366 122.89 249.497 121.78 249.92C121.978 249.802 122.129 249.619 122.207 249.402C122.286 249.185 122.287 248.948 122.21 248.73C122.047 248.296 121.753 247.922 121.37 247.66C120.225 246.837 118.835 246.428 117.427 246.498C116.019 246.569 114.676 247.116 113.62 248.05C113.219 246.841 112.383 245.826 111.273 245.201C110.164 244.576 108.861 244.387 107.62 244.67C105.23 245.29 100.73 245.77 100.04 251.88C99.5254 251.39 98.912 251.014 98.2408 250.78C97.5697 250.545 96.8562 250.456 96.148 250.519C95.4397 250.582 94.7531 250.795 94.1338 251.144C93.5145 251.494 92.9768 251.971 92.5567 252.545C92.1365 253.118 91.8435 253.775 91.6972 254.471C91.551 255.167 91.5548 255.886 91.7084 256.58C91.8621 257.274 92.162 257.927 92.5882 258.497C93.0144 259.066 93.5571 259.537 94.18 259.88C93.6156 259.695 93.0019 259.731 92.4634 259.982C91.9248 260.233 91.5018 260.679 91.28 261.23C91.0854 261.792 91.0439 262.396 91.1599 262.98C91.2759 263.563 91.5452 264.105 91.9401 264.55C92.7477 265.42 93.7894 266.038 94.9401 266.33C96.008 266.677 97.153 266.712 98.24 266.43C98.7782 266.277 99.2671 265.987 99.6582 265.587C100.049 265.187 100.329 264.692 100.47 264.15C100.59 264.72 100.915 265.226 101.383 265.572C101.851 265.919 102.43 266.082 103.01 266.03C103.588 265.943 104.123 265.676 104.54 265.266C104.957 264.857 105.233 264.326 105.33 263.75C105.406 263.172 105.327 262.585 105.102 262.048C104.878 261.51 104.515 261.042 104.05 260.69C104.393 260.979 104.797 261.188 105.232 261.3C105.666 261.413 106.12 261.427 106.561 261.34C107.001 261.254 107.417 261.07 107.777 260.801C108.136 260.533 108.432 260.188 108.64 259.79C109.526 261.724 111.042 263.3 112.94 264.26C113.898 264.713 114.979 264.84 116.016 264.619C117.053 264.399 117.989 263.844 118.68 263.04C119.274 263.803 119.975 264.476 120.76 265.04C121.159 265.317 121.613 265.505 122.091 265.591C122.569 265.677 123.059 265.66 123.53 265.54C123.994 265.4 124.394 265.101 124.66 264.694C124.925 264.288 125.038 263.802 124.98 263.32C125.721 263.983 126.617 264.449 127.585 264.674C128.553 264.9 129.563 264.878 130.52 264.61C131.452 264.296 132.236 263.648 132.721 262.792C133.206 261.936 133.359 260.932 133.15 259.97Z" fill="#263238"/>
<path d="M143.43 377.4H107.27C107.27 378.78 108.82 379.89 110.72 379.88H169.61C171.49 379.88 173 378.75 172.99 377.38L143.43 377.4Z" fill="#263238"/>
<path d="M170.15 379.77H137.15C136.909 379.787 136.67 379.711 136.483 379.556C136.297 379.401 136.178 379.181 136.15 378.94C136.152 378.851 136.169 378.764 136.2 378.68L150.9 345C151.145 344.491 151.534 344.064 152.02 343.774C152.505 343.485 153.065 343.344 153.63 343.37H186.63C186.871 343.351 187.109 343.425 187.296 343.578C187.482 343.731 187.602 343.951 187.63 344.19C187.629 344.284 187.609 344.376 187.57 344.46L172.88 378.15C172.632 378.656 172.241 379.079 171.756 379.367C171.272 379.655 170.713 379.795 170.15 379.77Z" fill="#263238"/>
<path opacity="0.7" d="M186.63 343.36H153.63C153.065 343.334 152.505 343.474 152.02 343.764C151.534 344.054 151.145 344.481 150.9 344.99L136.76 377.4H107.27C107.27 378.78 108.82 379.89 110.72 379.88H169.61C170.17 379.879 170.724 379.767 171.24 379.55C171.602 379.445 171.937 379.263 172.222 379.016C172.507 378.769 172.735 378.464 172.89 378.12L187.58 344.43C187.619 344.345 187.639 344.253 187.64 344.16C187.608 343.922 187.484 343.706 187.296 343.557C187.108 343.408 186.869 343.337 186.63 343.36Z" fill="white"/>
<path d="M166.78 361.3C166.06 362.91 164.62 364.02 163.54 363.8C162.46 363.58 162.17 362.1 162.87 360.48C163.57 358.86 165.02 357.77 166.1 358C167.18 358.23 167.5 359.64 166.78 361.3Z" fill="white"/>
<g opacity="0.3">
<path d="M150.85 344.99L136.71 377.4H138.24L153.58 343.4C153.02 343.37 152.463 343.505 151.978 343.787C151.493 344.07 151.101 344.488 150.85 344.99Z" fill="black"/>
</g>
<path d="M152.55 414.77L173.83 418.19L177.24 409.42L154.88 402.44L152.55 414.77Z" fill="#B97964"/>
<path d="M183.29 422.62L186.16 416.68C185.923 416.335 185.777 415.937 185.736 415.521C185.694 415.105 185.757 414.685 185.92 414.3C186.24 413.58 188.03 412.4 188.03 412.4L196.03 396.12C195.495 395.846 194.927 395.641 194.34 395.51C193.715 395.439 193.085 395.439 192.46 395.51C190.51 395.78 188.97 397.3 187.87 398.51C186.03 400.51 179.67 405.32 179.67 405.32C178.26 406.088 176.664 406.452 175.06 406.37C174.461 406.308 173.856 406.383 173.291 406.591C172.725 406.799 172.216 407.134 171.8 407.57C171.599 407.838 171.46 408.148 171.392 408.476C171.324 408.804 171.328 409.143 171.405 409.469C171.483 409.795 171.631 410.101 171.839 410.363C172.047 410.626 172.31 410.84 172.61 410.99L174.06 411.99C174.235 412.725 174.126 413.498 173.755 414.157C173.384 414.815 172.779 415.309 172.06 415.54C172.06 415.54 168.76 417.72 170.39 418.29C171.31 418.63 175.51 419.95 178.79 421.09L180.92 421.83L183.29 422.62Z" fill="#263238"/>
<path d="M183 402.6C182.948 402.62 182.905 402.656 182.876 402.703C182.847 402.75 182.834 402.805 182.84 402.86C182.899 403.377 183.092 403.87 183.4 404.29C183.57 404.52 183.96 404.29 183.79 404.04C183.511 403.674 183.338 403.238 183.29 402.78C183.29 402.746 183.282 402.712 183.265 402.682C183.249 402.652 183.225 402.627 183.196 402.609C183.166 402.591 183.133 402.58 183.099 402.579C183.065 402.577 183.031 402.585 183 402.6Z" fill="#407BFF"/>
<path d="M181.67 403.52C181.62 403.541 181.579 403.578 181.552 403.625C181.525 403.672 181.514 403.726 181.52 403.78C181.569 404.298 181.759 404.793 182.07 405.21C182.24 405.44 182.63 405.21 182.46 404.96C182.184 404.593 182.014 404.157 181.97 403.7C181.966 403.667 181.955 403.636 181.937 403.609C181.919 403.581 181.896 403.558 181.868 403.541C181.84 403.524 181.809 403.513 181.776 403.509C181.744 403.506 181.711 403.509 181.68 403.52H181.67Z" fill="#407BFF"/>
<path d="M180.4 404.51C180.35 404.531 180.309 404.568 180.282 404.615C180.255 404.662 180.244 404.716 180.25 404.77C180.302 405.289 180.496 405.784 180.81 406.2C180.97 406.42 181.36 406.2 181.19 405.95C180.919 405.58 180.75 405.146 180.7 404.69C180.698 404.657 180.688 404.625 180.671 404.596C180.653 404.567 180.63 404.543 180.601 404.526C180.573 404.508 180.541 404.498 180.508 404.495C180.474 404.492 180.441 404.497 180.41 404.51H180.4Z" fill="#407BFF"/>
<path opacity="0.2" d="M185.92 414.3C186.24 413.58 188.03 412.4 188.03 412.4L196.03 396.12C195.495 395.847 194.927 395.642 194.34 395.51C194.02 395.51 193.72 395.51 193.43 395.51L180.53 421.71L180.89 421.83L183.27 422.66L186.14 416.72C185.9 416.369 185.753 415.963 185.715 415.539C185.676 415.115 185.747 414.689 185.92 414.3Z" fill="white"/>
<path d="M180.52 404.77C179.925 404.558 179.349 404.293 178.8 403.98C178.247 403.666 177.788 403.21 177.47 402.66C177.386 402.541 177.333 402.402 177.318 402.257C177.302 402.111 177.323 401.964 177.38 401.83C177.471 401.706 177.596 401.61 177.739 401.553C177.882 401.497 178.039 401.482 178.19 401.51C178.485 401.551 178.77 401.65 179.026 401.803C179.282 401.956 179.504 402.159 179.68 402.4C180.074 403.145 180.357 403.943 180.52 404.77Z" stroke="#407BFF" stroke-width="0.25" stroke-miterlimit="10"/>
<path d="M180.48 404.82C179.851 404.76 179.219 404.76 178.59 404.82C177.956 404.877 177.349 405.101 176.83 405.47C176.705 405.547 176.6 405.654 176.527 405.782C176.454 405.909 176.413 406.053 176.41 406.2C176.444 406.35 176.52 406.487 176.627 406.596C176.735 406.706 176.871 406.783 177.02 406.82C177.305 406.905 177.605 406.931 177.901 406.896C178.196 406.862 178.482 406.768 178.74 406.62C179.408 406.108 179.995 405.498 180.48 404.81" stroke="#407BFF" stroke-width="0.25" stroke-miterlimit="10"/>
<path d="M72.61 405.07C68.02 397.76 57.61 377.95 78.69 374.07C99.77 370.19 170.05 403.62 170.05 403.62L165.6 417.07L100.15 406.77C100.15 406.77 109.15 418.72 98.24 418.18C82.44 416.6 78.65 412.82 72.61 405.07Z" fill="black"/>
<path opacity="0.7" d="M101.7 407.12L83.7 401.47C83.7 401.47 98.76 410.68 104.29 411.78L101.7 407.12Z" fill="black"/>
<path d="M35 236.61H71.6C73.1913 236.61 74.7174 237.242 75.8426 238.367C76.9679 239.492 77.6 241.019 77.6 242.61V262.37C77.6 263.961 76.9679 265.487 75.8426 266.613C74.7174 267.738 73.1913 268.37 71.6 268.37H62.84L62.78 274.37L56.19 268.37H35C33.4087 268.37 31.8826 267.738 30.7574 266.613C29.6321 265.487 29 263.961 29 262.37V242.6C29.0026 241.01 29.636 239.487 30.7609 238.364C31.8858 237.241 33.4104 236.61 35 236.61Z" fill="#407BFF"/>
<path d="M48.79 249.36L43 252.05L48.77 254.75V256.92L41.06 253.18V250.93L48.77 247.19L48.79 249.36Z" fill="white"/>
<path d="M66.35 250.93V253.18L58.64 256.92V254.77L64.41 252.07L58.64 249.38V247.21L66.35 250.93Z" fill="white"/>
<path d="M55.07 245.67L51.31 258.67H53.19L56.95 245.67H55.07Z" fill="white"/>
<path d="M63.15 235.26H44.36C44.2937 235.26 44.2301 235.233 44.1832 235.187C44.1363 235.14 44.11 235.076 44.11 235.01C44.11 234.943 44.1363 234.88 44.1832 234.833C44.2301 234.786 44.2937 234.76 44.36 234.76H63.15C63.2163 234.76 63.2799 234.786 63.3268 234.833C63.3736 234.88 63.4 234.943 63.4 235.01C63.4 235.076 63.3736 235.14 63.3268 235.187C63.2799 235.233 63.2163 235.26 63.15 235.26Z" fill="#407BFF"/>
<path d="M68.34 235.27H65.34C65.2737 235.27 65.2101 235.243 65.1632 235.196C65.1163 235.149 65.09 235.086 65.09 235.02C65.09 234.953 65.1163 234.89 65.1632 234.843C65.2101 234.796 65.2737 234.77 65.34 234.77H68.34C68.4063 234.77 68.4699 234.796 68.5167 234.843C68.5636 234.89 68.59 234.953 68.59 235.02C68.59 235.086 68.5636 235.149 68.5167 235.196C68.4699 235.243 68.4063 235.27 68.34 235.27Z" fill="#407BFF"/>
</g>
<defs>
<clipPath id="clip0_4249_26258">
<rect width="500" height="443.01" fill="white"/>
</clipPath>
</defs>
</svg>
