<svg width="358" height="417" viewBox="0 0 358 417" fill="none" xmlns="http://www.w3.org/2000/svg">
<g clip-path="url(#clip0_4285_27254)">
<path d="M29.4 66.6999V62.1999C29.4 61.9771 29.3115 61.7634 29.1539 61.6059C28.9964 61.4484 28.7827 61.3599 28.56 61.3599H4.17996C3.95624 61.3598 3.74155 61.448 3.58242 61.6053C3.4233 61.7625 3.33259 61.9762 3.32996 62.1999V253.8C3.32996 254.025 3.41951 254.242 3.57892 254.401C3.73832 254.56 3.95452 254.65 4.17996 254.65H116.92C117.145 254.65 117.362 254.56 117.521 254.401C117.68 254.242 117.77 254.025 117.77 253.8V68.3999C117.77 68.1744 117.68 67.9582 117.521 67.7988C117.362 67.6394 117.145 67.5499 116.92 67.5499H30.25C30.0245 67.5499 29.8083 67.4603 29.6489 67.3009C29.4895 67.1415 29.4 66.9253 29.4 66.6999Z" fill="#FFBC96"/>
<path d="M115.76 252.65L115.76 69.5601H5.34001L5.34001 252.65H115.76Z" fill="#FFF3EE"/>
<path d="M23.51 75.3301H15.23V76.5701H23.51V75.3301Z" fill="#407BFF"/>
<path d="M23.51 126.03H15.23V127.27H23.51V126.03Z" fill="#407BFF"/>
<path d="M29.4 82.6099H21.12V83.8499H29.4V82.6099Z" fill="#407BFF"/>
<path d="M38.49 82.6099H30.21V83.8499H38.49V82.6099Z" fill="#CECECE"/>
<path d="M59.68 82.6099H39.29V83.8499H59.68V82.6099Z" fill="#CECECE"/>
<path d="M23.51 78.23H15.23V79.47H23.51V78.23Z" fill="#FE9F73"/>
<path d="M43.05 85.3501H30.21V86.5901H43.05V85.3501Z" fill="#FE9F73"/>
<path d="M74.21 85.3501H43.75V86.5901H74.21V85.3501Z" fill="#FE9F73"/>
<path d="M84.62 85.3501H74.9V86.5901H84.62V85.3501Z" fill="#FE9F73"/>
<path d="M96.7799 85.3501H85.3199V86.5901H96.7799V85.3501Z" fill="#FE9F73"/>
<path d="M62.62 88.0898H37.27V89.3298H62.62V88.0898Z" fill="#FE9F73"/>
<path d="M96.7799 88.0898H63.45V89.3298H96.7799V88.0898Z" fill="#FE9F73"/>
<path d="M36.28 88.0898H30.21V89.3298H36.28V88.0898Z" fill="#FE9F73"/>
<path d="M105.87 88.0898H97.59V89.3298H105.87V88.0898Z" fill="#407BFF"/>
<path d="M29.4 91.9102H21.12V93.1502H29.4V91.9102Z" fill="#407BFF"/>
<path d="M29.4 102.02H21.12V103.26H29.4V102.02Z" fill="#407BFF"/>
<path d="M38.49 94.6499H30.21V95.8899H38.49V94.6499Z" fill="#407BFF"/>
<path d="M59.68 94.6499H39.29V95.8899H59.68V94.6499Z" fill="#CECECE"/>
<path d="M44.63 107.94H39.29V109.18H44.63V107.94Z" fill="#CECECE"/>
<path d="M43.05 97.3901H30.21V98.6301H43.05V97.3901Z" fill="#FE9F73"/>
<path d="M74.21 97.3901H43.75V98.6301H74.21V97.3901Z" fill="#FE9F73"/>
<path d="M84.62 97.3901H74.9V98.6301H84.62V97.3901Z" fill="#FE9F73"/>
<path d="M96.7799 97.3901H85.3199V98.6301H96.7799V97.3901Z" fill="#FE9F73"/>
<path d="M62.62 100.14H37.27V101.38H62.62V100.14Z" fill="#FE9F73"/>
<path d="M36.28 100.14H30.21V101.38H36.28V100.14Z" fill="#FE9F73"/>
<path d="M71.73 100.14H63.45V101.38H71.73V100.14Z" fill="#407BFF"/>
<path d="M29.4 105.2H21.12V106.44H29.4V105.2Z" fill="#407BFF"/>
<path d="M29.4 122.54H21.12V123.78H29.4V122.54Z" fill="#407BFF"/>
<path d="M38.49 107.94H30.21V109.18H38.49V107.94Z" fill="#407BFF"/>
<path d="M38.49 120.21H30.21V121.45H38.49V120.21Z" fill="#407BFF"/>
<path d="M42.28 110.25H38.91V111.49H42.28V110.25Z" fill="#407BFF"/>
<path d="M47.9999 110.25H42.9399V111.49H47.9999V110.25Z" fill="#FE9F73"/>
<path d="M54.07 110.25H48.46V111.49H54.07V110.25Z" fill="#FE9F73"/>
<path d="M58.7799 110.25H54.5699V111.49H58.7799V110.25Z" fill="#FE9F73"/>
<path d="M47.9999 117.82H42.9399V119.06H47.9999V117.82Z" fill="#FE9F73"/>
<path d="M54.07 117.82H48.46V119.06H54.07V117.82Z" fill="#FE9F73"/>
<path d="M58.7799 117.82H54.5699V119.06H58.7799V117.82Z" fill="#FE9F73"/>
<path d="M47.9999 112.77H42.9399V114.01H47.9999V112.77Z" fill="#FE9F73"/>
<path d="M58.77 112.77H51.61V114.01H58.77V112.77Z" fill="#FE9F73"/>
<path d="M51.21 112.77H48.46V114.01H51.21V112.77Z" fill="#FE9F73"/>
<path d="M44.9499 115.3H42.9399V116.54H44.9499V115.3Z" fill="#FE9F73"/>
<path d="M48 115.3H45.45V116.54H48V115.3Z" fill="#FE9F73"/>
<path d="M58.78 115.3H48.46V116.54H58.78V115.3Z" fill="#FE9F73"/>
<path d="M42.28 112.77H38.91V114.01H42.28V112.77Z" fill="#407BFF"/>
<path d="M42.28 115.3H38.91V116.54H42.28V115.3Z" fill="#407BFF"/>
<path d="M42.28 117.82H38.91V119.06H42.28V117.82Z" fill="#407BFF"/>
<path d="M62.8099 110.25H59.4399V111.49H62.8099V110.25Z" fill="#407BFF"/>
<path d="M62.8099 112.77H59.4399V114.01H62.8099V112.77Z" fill="#407BFF"/>
<path d="M62.8099 115.3H59.4399V116.54H62.8099V115.3Z" fill="#407BFF"/>
<path d="M62.8099 117.82H59.4399V119.06H62.8099V117.82Z" fill="#407BFF"/>
<path d="M23.51 129.95H15.23V131.19H23.51V129.95Z" fill="#407BFF"/>
<path d="M29.4 137.22H21.12V138.46H29.4V137.22Z" fill="#407BFF"/>
<path d="M38.49 137.22H30.21V138.46H38.49V137.22Z" fill="#CECECE"/>
<path d="M59.68 137.22H39.29V138.46H59.68V137.22Z" fill="#CECECE"/>
<path d="M23.51 132.85H15.23V134.09H23.51V132.85Z" fill="#FE9F73"/>
<path d="M43.05 139.97H30.21V141.21H43.05V139.97Z" fill="#FE9F73"/>
<path d="M74.21 139.97H43.75V141.21H74.21V139.97Z" fill="#FE9F73"/>
<path d="M84.62 139.97H74.9V141.21H84.62V139.97Z" fill="#FE9F73"/>
<path d="M96.7799 139.97H85.3199V141.21H96.7799V139.97Z" fill="#FE9F73"/>
<path d="M62.62 142.71H37.27V143.95H62.62V142.71Z" fill="#FE9F73"/>
<path d="M96.7799 142.71H63.45V143.95H96.7799V142.71Z" fill="#FE9F73"/>
<path d="M36.28 142.71H30.21V143.95H36.28V142.71Z" fill="#FE9F73"/>
<path d="M105.87 142.71H97.59V143.95H105.87V142.71Z" fill="#407BFF"/>
<path d="M29.4 146.52H21.12V147.76H29.4V146.52Z" fill="#407BFF"/>
<path d="M29.4 156.63H21.12V157.87H29.4V156.63Z" fill="#407BFF"/>
<path d="M38.49 149.26H30.21V150.5H38.49V149.26Z" fill="#407BFF"/>
<path d="M59.68 149.26H39.29V150.5H59.68V149.26Z" fill="#CECECE"/>
<path d="M43.05 152.01H30.21V153.25H43.05V152.01Z" fill="#FE9F73"/>
<path d="M74.21 152.01H43.75V153.25H74.21V152.01Z" fill="#FE9F73"/>
<path d="M84.62 152.01H74.9V153.25H84.62V152.01Z" fill="#FE9F73"/>
<path d="M96.7799 152.01H85.3199V153.25H96.7799V152.01Z" fill="#FE9F73"/>
<path d="M62.62 154.75H37.27V155.99H62.62V154.75Z" fill="#FE9F73"/>
<path d="M36.28 154.75H30.21V155.99H36.28V154.75Z" fill="#FE9F73"/>
<path d="M71.73 154.75H63.45V155.99H71.73V154.75Z" fill="#407BFF"/>
<path d="M29.4 159.81H21.12V161.05H29.4V159.81Z" fill="#407BFF"/>
<path d="M23.51 163.34H15.23V164.58H23.51V163.34Z" fill="#407BFF"/>
<path d="M23.51 214.03H15.23V215.27H23.51V214.03Z" fill="#407BFF"/>
<path d="M29.4 170.62H21.12V171.86H29.4V170.62Z" fill="#407BFF"/>
<path d="M38.49 170.62H30.21V171.86H38.49V170.62Z" fill="#CECECE"/>
<path d="M59.68 170.62H39.29V171.86H59.68V170.62Z" fill="#CECECE"/>
<path d="M23.51 166.24H15.23V167.48H23.51V166.24Z" fill="#FE9F73"/>
<path d="M43.05 173.36H30.21V174.6H43.05V173.36Z" fill="#FE9F73"/>
<path d="M74.21 173.36H43.75V174.6H74.21V173.36Z" fill="#FE9F73"/>
<path d="M84.62 173.36H74.9V174.6H84.62V173.36Z" fill="#FE9F73"/>
<path d="M96.7799 173.36H85.3199V174.6H96.7799V173.36Z" fill="#FE9F73"/>
<path d="M62.62 176.1H37.27V177.34H62.62V176.1Z" fill="#FE9F73"/>
<path d="M96.7799 176.1H63.45V177.34H96.7799V176.1Z" fill="#FE9F73"/>
<path d="M36.28 176.1H30.21V177.34H36.28V176.1Z" fill="#FE9F73"/>
<path d="M105.87 176.1H97.59V177.34H105.87V176.1Z" fill="#407BFF"/>
<path d="M29.4 179.91H21.12V181.15H29.4V179.91Z" fill="#407BFF"/>
<path d="M29.4 190.02H21.12V191.26H29.4V190.02Z" fill="#407BFF"/>
<path d="M38.49 182.66H30.21V183.9H38.49V182.66Z" fill="#407BFF"/>
<path d="M59.68 182.66H39.29V183.9H59.68V182.66Z" fill="#CECECE"/>
<path d="M44.63 195.94H39.29V197.18H44.63V195.94Z" fill="#CECECE"/>
<path d="M43.05 185.4H30.21V186.64H43.05V185.4Z" fill="#FE9F73"/>
<path d="M74.21 185.4H43.75V186.64H74.21V185.4Z" fill="#FE9F73"/>
<path d="M84.62 185.4H74.9V186.64H84.62V185.4Z" fill="#FE9F73"/>
<path d="M96.7799 185.4H85.3199V186.64H96.7799V185.4Z" fill="#FE9F73"/>
<path d="M62.62 188.14H37.27V189.38H62.62V188.14Z" fill="#FE9F73"/>
<path d="M36.28 188.14H30.21V189.38H36.28V188.14Z" fill="#FE9F73"/>
<path d="M71.73 188.14H63.45V189.38H71.73V188.14Z" fill="#407BFF"/>
<path d="M29.4 193.2H21.12V194.44H29.4V193.2Z" fill="#407BFF"/>
<path d="M29.4 210.54H21.12V211.78H29.4V210.54Z" fill="#407BFF"/>
<path d="M38.49 195.94H30.21V197.18H38.49V195.94Z" fill="#407BFF"/>
<path d="M38.49 208.21H30.21V209.45H38.49V208.21Z" fill="#407BFF"/>
<path d="M42.28 198.26H38.91V199.5H42.28V198.26Z" fill="#407BFF"/>
<path d="M47.9999 198.26H42.9399V199.5H47.9999V198.26Z" fill="#FE9F73"/>
<path d="M54.07 198.26H48.46V199.5H54.07V198.26Z" fill="#FE9F73"/>
<path d="M58.7799 198.26H54.5699V199.5H58.7799V198.26Z" fill="#FE9F73"/>
<path d="M47.9999 205.82H42.9399V207.06H47.9999V205.82Z" fill="#FE9F73"/>
<path d="M54.07 205.82H48.46V207.06H54.07V205.82Z" fill="#FE9F73"/>
<path d="M58.7799 205.82H54.5699V207.06H58.7799V205.82Z" fill="#FE9F73"/>
<path d="M47.9999 200.78H42.9399V202.02H47.9999V200.78Z" fill="#FE9F73"/>
<path d="M58.77 200.78H51.61V202.02H58.77V200.78Z" fill="#FE9F73"/>
<path d="M51.21 200.78H48.46V202.02H51.21V200.78Z" fill="#FE9F73"/>
<path d="M44.9499 203.3H42.9399V204.54H44.9499V203.3Z" fill="#FE9F73"/>
<path d="M48 203.3H45.45V204.54H48V203.3Z" fill="#FE9F73"/>
<path d="M58.78 203.3H48.46V204.54H58.78V203.3Z" fill="#FE9F73"/>
<path d="M42.28 200.78H38.91V202.02H42.28V200.78Z" fill="#407BFF"/>
<path d="M42.28 203.3H38.91V204.54H42.28V203.3Z" fill="#407BFF"/>
<path d="M42.28 205.82H38.91V207.06H42.28V205.82Z" fill="#407BFF"/>
<path d="M62.8099 198.26H59.4399V199.5H62.8099V198.26Z" fill="#407BFF"/>
<path d="M62.8099 200.78H59.4399V202.02H62.8099V200.78Z" fill="#407BFF"/>
<path d="M62.8099 203.3H59.4399V204.54H62.8099V203.3Z" fill="#407BFF"/>
<path d="M62.8099 205.82H59.4399V207.06H62.8099V205.82Z" fill="#407BFF"/>
<path d="M23.51 217.95H15.23V219.19H23.51V217.95Z" fill="#407BFF"/>
<path d="M29.4 225.23H21.12V226.47H29.4V225.23Z" fill="#407BFF"/>
<path d="M38.49 225.23H30.21V226.47H38.49V225.23Z" fill="#CECECE"/>
<path d="M59.68 225.23H39.29V226.47H59.68V225.23Z" fill="#CECECE"/>
<path d="M23.51 220.85H15.23V222.09H23.51V220.85Z" fill="#FE9F73"/>
<path d="M43.05 227.97H30.21V229.21H43.05V227.97Z" fill="#FE9F73"/>
<path d="M74.21 227.97H43.75V229.21H74.21V227.97Z" fill="#FE9F73"/>
<path d="M84.62 227.97H74.9V229.21H84.62V227.97Z" fill="#FE9F73"/>
<path d="M96.7799 227.97H85.3199V229.21H96.7799V227.97Z" fill="#FE9F73"/>
<path d="M62.62 230.71H37.27V231.95H62.62V230.71Z" fill="#FE9F73"/>
<path d="M96.7799 230.71H63.45V231.95H96.7799V230.71Z" fill="#FE9F73"/>
<path d="M36.28 230.71H30.21V231.95H36.28V230.71Z" fill="#FE9F73"/>
<path d="M105.87 230.71H97.59V231.95H105.87V230.71Z" fill="#407BFF"/>
<path d="M29.4 234.53H21.12V235.77H29.4V234.53Z" fill="#407BFF"/>
<path d="M29.4 244.64H21.12V245.88H29.4V244.64Z" fill="#407BFF"/>
<path d="M38.49 237.27H30.21V238.51H38.49V237.27Z" fill="#407BFF"/>
<path d="M59.68 237.27H39.29V238.51H59.68V237.27Z" fill="#CECECE"/>
<path d="M43.05 240.01H30.21V241.25H43.05V240.01Z" fill="#FE9F73"/>
<path d="M74.21 240.01H43.75V241.25H74.21V240.01Z" fill="#FE9F73"/>
<path d="M84.62 240.01H74.9V241.25H84.62V240.01Z" fill="#FE9F73"/>
<path d="M96.7799 240.01H85.3199V241.25H96.7799V240.01Z" fill="#FE9F73"/>
<path d="M62.62 242.75H37.27V243.99H62.62V242.75Z" fill="#FE9F73"/>
<path d="M36.28 242.75H30.21V243.99H36.28V242.75Z" fill="#FE9F73"/>
<path d="M71.73 242.75H63.45V243.99H71.73V242.75Z" fill="#407BFF"/>
<path d="M29.4 247.82H21.12V249.06H29.4V247.82Z" fill="#407BFF"/>
<path d="M7.43003 66.32C7.92709 66.32 8.33003 65.9171 8.33003 65.42C8.33003 64.923 7.92709 64.52 7.43003 64.52C6.93297 64.52 6.53003 64.923 6.53003 65.42C6.53003 65.9171 6.93297 66.32 7.43003 66.32Z" fill="#F3F3F3"/>
<path d="M10.88 66.32C11.377 66.32 11.78 65.9171 11.78 65.42C11.78 64.923 11.377 64.52 10.88 64.52C10.3829 64.52 9.97998 64.923 9.97998 65.42C9.97998 65.9171 10.3829 66.32 10.88 66.32Z" fill="white"/>
<path d="M13.42 65.4202C13.4436 65.1966 13.5491 64.9896 13.7162 64.8392C13.8833 64.6887 14.1002 64.6055 14.325 64.6055C14.5499 64.6055 14.7668 64.6887 14.9339 64.8392C15.101 64.9896 15.2065 65.1966 15.23 65.4202C15.2434 65.547 15.2299 65.6753 15.1905 65.7966C15.1511 65.9179 15.0867 66.0295 15.0013 66.1243C14.916 66.2191 14.8117 66.2949 14.6952 66.3468C14.5787 66.3987 14.4526 66.4255 14.325 66.4255C14.1975 66.4255 14.0714 66.3987 13.9549 66.3468C13.8384 66.2949 13.7341 66.2191 13.6487 66.1243C13.5634 66.0295 13.4989 65.9179 13.4595 65.7966C13.4201 65.6753 13.4067 65.547 13.42 65.4202Z" fill="white"/>
<path d="M115.88 16.3501V10.6501C115.88 10.3663 115.767 10.0941 115.567 9.89347C115.366 9.69281 115.094 9.58008 114.81 9.58008H83.8899C83.6062 9.58008 83.334 9.69281 83.1333 9.89347C82.9327 10.0941 82.8199 10.3663 82.8199 10.6501V253.58C82.8199 253.864 82.9327 254.136 83.1333 254.337C83.334 254.537 83.6062 254.65 83.8899 254.65H226.89C227.031 254.651 227.172 254.625 227.302 254.572C227.433 254.518 227.553 254.44 227.653 254.34C227.753 254.241 227.833 254.122 227.888 253.992C227.942 253.861 227.97 253.721 227.97 253.58V18.5001C227.97 18.3587 227.942 18.2188 227.888 18.0883C227.833 17.9578 227.753 17.8394 227.653 17.7399C227.553 17.6404 227.433 17.5618 227.302 17.5086C227.172 17.4555 227.031 17.4288 226.89 17.4301H117C116.855 17.4355 116.71 17.4115 116.574 17.3596C116.439 17.3078 116.315 17.2291 116.21 17.1283C116.106 17.0274 116.023 16.9065 115.966 16.7728C115.909 16.6391 115.88 16.4953 115.88 16.3501Z" fill="#FE9F73"/>
<path d="M225.37 252.1L225.37 19.9702L85.37 19.9702L85.37 252.1H225.37Z" fill="#E9EFFD"/>
<path d="M108.41 27.2998H97.91V28.8698H108.41V27.2998Z" fill="#407BFF"/>
<path d="M108.41 91.5698H97.91V93.1398H108.41V91.5698Z" fill="#407BFF"/>
<path d="M115.88 36.52H105.38V38.09H115.88V36.52Z" fill="#407BFF"/>
<path d="M127.4 36.52H116.9V38.09H127.4V36.52Z" fill="#CECECE"/>
<path d="M154.27 36.52H128.42V38.09H154.27V36.52Z" fill="#CECECE"/>
<path d="M108.41 30.9702H97.91V32.5402H108.41V30.9702Z" fill="#FE9F73"/>
<path d="M133.18 40H116.9V41.57H133.18V40Z" fill="#FE9F73"/>
<path d="M172.68 40H134.07V41.57H172.68V40Z" fill="#FE9F73"/>
<path d="M185.89 40H173.57V41.57H185.89V40Z" fill="#FE9F73"/>
<path d="M201.31 40H186.78V41.57H201.31V40Z" fill="#FE9F73"/>
<path d="M157.99 43.48H125.85V45.05H157.99V43.48Z" fill="#FE9F73"/>
<path d="M201.31 43.48H159.05V45.05H201.31V43.48Z" fill="#FE9F73"/>
<path d="M124.59 43.48H116.9V45.05H124.59V43.48Z" fill="#FE9F73"/>
<path d="M212.83 43.48H202.33V45.05H212.83V43.48Z" fill="#407BFF"/>
<path d="M115.88 48.3101H105.38V49.8801H115.88V48.3101Z" fill="#407BFF"/>
<path d="M115.88 61.1299H105.38V62.6999H115.88V61.1299Z" fill="#407BFF"/>
<path d="M127.4 51.79H116.9V53.36H127.4V51.79Z" fill="#407BFF"/>
<path d="M154.27 51.79H128.42V53.36H154.27V51.79Z" fill="#CECECE"/>
<path d="M135.19 68.6401H128.42V70.2101H135.19V68.6401Z" fill="#CECECE"/>
<path d="M133.18 55.27H116.9V56.84H133.18V55.27Z" fill="#FE9F73"/>
<path d="M172.68 55.27H134.07V56.84H172.68V55.27Z" fill="#FE9F73"/>
<path d="M185.89 55.27H173.57V56.84H185.89V55.27Z" fill="#FE9F73"/>
<path d="M201.31 55.27H186.78V56.84H201.31V55.27Z" fill="#FE9F73"/>
<path d="M157.99 58.7402H125.85V60.3102H157.99V58.7402Z" fill="#FE9F73"/>
<path d="M124.59 58.7402H116.9V60.3102H124.59V58.7402Z" fill="#FE9F73"/>
<path d="M169.55 58.7402H159.05V60.3102H169.55V58.7402Z" fill="#407BFF"/>
<path d="M115.88 65.1602H105.38V66.7302H115.88V65.1602Z" fill="#407BFF"/>
<path d="M115.88 87.1499H105.38V88.7199H115.88V87.1499Z" fill="#407BFF"/>
<path d="M127.4 68.6401H116.9V70.2101H127.4V68.6401Z" fill="#407BFF"/>
<path d="M127.4 84.1899H116.9V85.7599H127.4V84.1899Z" fill="#407BFF"/>
<path d="M132.21 71.5698H127.93V73.1398H132.21V71.5698Z" fill="#407BFF"/>
<path d="M139.47 71.5698H133.05V73.1398H139.47V71.5698Z" fill="#FE9F73"/>
<path d="M147.15 71.5698H140.04V73.1398H147.15V71.5698Z" fill="#FE9F73"/>
<path d="M153.11 71.5698H147.78V73.1398H153.11V71.5698Z" fill="#FE9F73"/>
<path d="M139.47 81.1602H133.05V82.7302H139.47V81.1602Z" fill="#FE9F73"/>
<path d="M147.15 81.1602H140.04V82.7302H147.15V81.1602Z" fill="#FE9F73"/>
<path d="M153.11 81.1602H147.78V82.7302H153.11V81.1602Z" fill="#FE9F73"/>
<path d="M139.47 74.77H133.05V76.34H139.47V74.77Z" fill="#FE9F73"/>
<path d="M153.12 74.77H144.04V76.34H153.12V74.77Z" fill="#FE9F73"/>
<path d="M143.53 74.77H140.04V76.34H143.53V74.77Z" fill="#FE9F73"/>
<path d="M135.59 77.9702H133.05V79.5402H135.59V77.9702Z" fill="#FE9F73"/>
<path d="M139.47 77.9702H136.23V79.5402H139.47V77.9702Z" fill="#FE9F73"/>
<path d="M153.12 77.9702H140.04V79.5402H153.12V77.9702Z" fill="#FE9F73"/>
<path d="M132.21 74.77H127.93V76.34H132.21V74.77Z" fill="#407BFF"/>
<path d="M132.21 77.9702H127.93V79.5402H132.21V77.9702Z" fill="#407BFF"/>
<path d="M132.21 81.1602H127.93V82.7302H132.21V81.1602Z" fill="#407BFF"/>
<path d="M158.25 71.5698H153.97V73.1398H158.25V71.5698Z" fill="#407BFF"/>
<path d="M158.25 74.77H153.97V76.34H158.25V74.77Z" fill="#407BFF"/>
<path d="M158.25 77.9702H153.97V79.5402H158.25V77.9702Z" fill="#407BFF"/>
<path d="M158.25 81.1602H153.97V82.7302H158.25V81.1602Z" fill="#407BFF"/>
<path d="M108.41 96.54H97.91V98.11H108.41V96.54Z" fill="#407BFF"/>
<path d="M115.88 105.77H105.38V107.34H115.88V105.77Z" fill="#407BFF"/>
<path d="M127.4 105.77H116.9V107.34H127.4V105.77Z" fill="#CECECE"/>
<path d="M154.27 105.77H128.42V107.34H154.27V105.77Z" fill="#CECECE"/>
<path d="M108.41 100.22H97.91V101.79H108.41V100.22Z" fill="#FE9F73"/>
<path d="M133.18 109.24H116.9V110.81H133.18V109.24Z" fill="#FE9F73"/>
<path d="M172.68 109.24H134.07V110.81H172.68V109.24Z" fill="#FE9F73"/>
<path d="M185.89 109.24H173.57V110.81H185.89V109.24Z" fill="#FE9F73"/>
<path d="M201.31 109.24H186.78V110.81H201.31V109.24Z" fill="#FE9F73"/>
<path d="M157.99 112.72H125.85V114.29H157.99V112.72Z" fill="#FE9F73"/>
<path d="M201.31 112.72H159.05V114.29H201.31V112.72Z" fill="#FE9F73"/>
<path d="M124.59 112.72H116.9V114.29H124.59V112.72Z" fill="#FE9F73"/>
<path d="M212.83 112.72H202.33V114.29H212.83V112.72Z" fill="#407BFF"/>
<path d="M115.88 117.56H105.38V119.13H115.88V117.56Z" fill="#407BFF"/>
<path d="M115.88 130.37H105.38V131.94H115.88V130.37Z" fill="#407BFF"/>
<path d="M127.4 121.03H116.9V122.6H127.4V121.03Z" fill="#407BFF"/>
<path d="M154.27 121.03H128.42V122.6H154.27V121.03Z" fill="#CECECE"/>
<path d="M133.18 124.51H116.9V126.08H133.18V124.51Z" fill="#FE9F73"/>
<path d="M172.68 124.51H134.07V126.08H172.68V124.51Z" fill="#FE9F73"/>
<path d="M185.89 124.51H173.57V126.08H185.89V124.51Z" fill="#FE9F73"/>
<path d="M201.31 124.51H186.78V126.08H201.31V124.51Z" fill="#FE9F73"/>
<path d="M157.99 127.99H125.85V129.56H157.99V127.99Z" fill="#FE9F73"/>
<path d="M124.59 127.99H116.9V129.56H124.59V127.99Z" fill="#FE9F73"/>
<path d="M169.55 127.99H159.05V129.56H169.55V127.99Z" fill="#407BFF"/>
<path d="M115.88 134.4H105.38V135.97H115.88V134.4Z" fill="#407BFF"/>
<path d="M108.41 138.88H97.91V140.45H108.41V138.88Z" fill="#407BFF"/>
<path d="M108.41 203.15H97.91V204.72H108.41V203.15Z" fill="#407BFF"/>
<path d="M115.88 148.1H105.38V149.67H115.88V148.1Z" fill="#407BFF"/>
<path d="M127.4 148.1H116.9V149.67H127.4V148.1Z" fill="#CECECE"/>
<path d="M154.27 148.1H128.42V149.67H154.27V148.1Z" fill="#CECECE"/>
<path d="M108.41 142.55H97.91V144.12H108.41V142.55Z" fill="#FE9F73"/>
<path d="M133.18 151.58H116.9V153.15H133.18V151.58Z" fill="#FE9F73"/>
<path d="M172.68 151.58H134.07V153.15H172.68V151.58Z" fill="#FE9F73"/>
<path d="M185.89 151.58H173.57V153.15H185.89V151.58Z" fill="#FE9F73"/>
<path d="M201.31 151.58H186.78V153.15H201.31V151.58Z" fill="#FE9F73"/>
<path d="M157.99 155.06H125.85V156.63H157.99V155.06Z" fill="#FE9F73"/>
<path d="M201.31 155.06H159.05V156.63H201.31V155.06Z" fill="#FE9F73"/>
<path d="M124.59 155.06H116.9V156.63H124.59V155.06Z" fill="#FE9F73"/>
<path d="M212.83 155.06H202.33V156.63H212.83V155.06Z" fill="#407BFF"/>
<path d="M115.88 159.89H105.38V161.46H115.88V159.89Z" fill="#407BFF"/>
<path d="M115.88 172.71H105.38V174.28H115.88V172.71Z" fill="#407BFF"/>
<path d="M127.4 163.37H116.9V164.94H127.4V163.37Z" fill="#407BFF"/>
<path d="M154.27 163.37H128.42V164.94H154.27V163.37Z" fill="#CECECE"/>
<path d="M135.19 180.22H128.42V181.79H135.19V180.22Z" fill="#CECECE"/>
<path d="M133.18 166.85H116.9V168.42H133.18V166.85Z" fill="#FE9F73"/>
<path d="M172.68 166.85H134.07V168.42H172.68V166.85Z" fill="#FE9F73"/>
<path d="M185.89 166.85H173.57V168.42H185.89V166.85Z" fill="#FE9F73"/>
<path d="M201.31 166.85H186.78V168.42H201.31V166.85Z" fill="#FE9F73"/>
<path d="M157.99 170.32H125.85V171.89H157.99V170.32Z" fill="#FE9F73"/>
<path d="M124.59 170.32H116.9V171.89H124.59V170.32Z" fill="#FE9F73"/>
<path d="M169.55 170.32H159.05V171.89H169.55V170.32Z" fill="#407BFF"/>
<path d="M115.88 176.74H105.38V178.31H115.88V176.74Z" fill="#407BFF"/>
<path d="M115.88 198.73H105.38V200.3H115.88V198.73Z" fill="#407BFF"/>
<path d="M127.4 180.22H116.9V181.79H127.4V180.22Z" fill="#407BFF"/>
<path d="M127.4 195.77H116.9V197.34H127.4V195.77Z" fill="#407BFF"/>
<path d="M132.21 183.15H127.93V184.72H132.21V183.15Z" fill="#407BFF"/>
<path d="M139.47 183.15H133.05V184.72H139.47V183.15Z" fill="#FE9F73"/>
<path d="M147.15 183.15H140.04V184.72H147.15V183.15Z" fill="#FE9F73"/>
<path d="M153.11 183.15H147.78V184.72H153.11V183.15Z" fill="#FE9F73"/>
<path d="M139.47 192.74H133.05V194.31H139.47V192.74Z" fill="#FE9F73"/>
<path d="M147.15 192.74H140.04V194.31H147.15V192.74Z" fill="#FE9F73"/>
<path d="M153.11 192.74H147.78V194.31H153.11V192.74Z" fill="#FE9F73"/>
<path d="M139.47 186.35H133.05V187.92H139.47V186.35Z" fill="#FE9F73"/>
<path d="M153.12 186.35H144.04V187.92H153.12V186.35Z" fill="#FE9F73"/>
<path d="M143.53 186.35H140.04V187.92H143.53V186.35Z" fill="#FE9F73"/>
<path d="M135.59 189.55H133.05V191.12H135.59V189.55Z" fill="#FE9F73"/>
<path d="M139.47 189.55H136.23V191.12H139.47V189.55Z" fill="#FE9F73"/>
<path d="M153.12 189.55H140.04V191.12H153.12V189.55Z" fill="#FE9F73"/>
<path d="M132.21 186.35H127.93V187.92H132.21V186.35Z" fill="#407BFF"/>
<path d="M132.21 189.55H127.93V191.12H132.21V189.55Z" fill="#407BFF"/>
<path d="M132.21 192.74H127.93V194.31H132.21V192.74Z" fill="#407BFF"/>
<path d="M158.25 183.15H153.97V184.72H158.25V183.15Z" fill="#407BFF"/>
<path d="M158.25 186.35H153.97V187.92H158.25V186.35Z" fill="#407BFF"/>
<path d="M158.25 189.55H153.97V191.12H158.25V189.55Z" fill="#407BFF"/>
<path d="M158.25 192.74H153.97V194.31H158.25V192.74Z" fill="#407BFF"/>
<path d="M108.41 208.12H97.91V209.69H108.41V208.12Z" fill="#407BFF"/>
<path d="M115.88 217.35H105.38V218.92H115.88V217.35Z" fill="#407BFF"/>
<path d="M127.4 217.35H116.9V218.92H127.4V217.35Z" fill="#CECECE"/>
<path d="M154.27 217.35H128.42V218.92H154.27V217.35Z" fill="#CECECE"/>
<path d="M108.41 211.8H97.91V213.37H108.41V211.8Z" fill="#FE9F73"/>
<path d="M133.18 220.82H116.9V222.39H133.18V220.82Z" fill="#FE9F73"/>
<path d="M172.68 220.82H134.07V222.39H172.68V220.82Z" fill="#FE9F73"/>
<path d="M185.89 220.82H173.57V222.39H185.89V220.82Z" fill="#FE9F73"/>
<path d="M201.31 220.82H186.78V222.39H201.31V220.82Z" fill="#FE9F73"/>
<path d="M157.99 224.3H125.85V225.87H157.99V224.3Z" fill="#FE9F73"/>
<path d="M201.31 224.3H159.05V225.87H201.31V224.3Z" fill="#FE9F73"/>
<path d="M124.59 224.3H116.9V225.87H124.59V224.3Z" fill="#FE9F73"/>
<path d="M212.83 224.3H202.33V225.87H212.83V224.3Z" fill="#407BFF"/>
<path d="M115.88 229.14H105.38V230.71H115.88V229.14Z" fill="#407BFF"/>
<path d="M115.88 241.95H105.38V243.52H115.88V241.95Z" fill="#407BFF"/>
<path d="M127.4 232.61H116.9V234.18H127.4V232.61Z" fill="#407BFF"/>
<path d="M154.27 232.61H128.42V234.18H154.27V232.61Z" fill="#CECECE"/>
<path d="M133.18 236.09H116.9V237.66H133.18V236.09Z" fill="#FE9F73"/>
<path d="M172.68 236.09H134.07V237.66H172.68V236.09Z" fill="#FE9F73"/>
<path d="M185.89 236.09H173.57V237.66H185.89V236.09Z" fill="#FE9F73"/>
<path d="M201.31 236.09H186.78V237.66H201.31V236.09Z" fill="#FE9F73"/>
<path d="M157.99 239.57H125.85V241.14H157.99V239.57Z" fill="#FE9F73"/>
<path d="M124.59 239.57H116.9V241.14H124.59V239.57Z" fill="#FE9F73"/>
<path d="M169.55 239.57H159.05V241.14H169.55V239.57Z" fill="#407BFF"/>
<path d="M115.88 245.99H105.38V247.56H115.88V245.99Z" fill="#407BFF"/>
<path d="M86.87 14.7299C86.87 14.5016 86.938 14.2785 87.0653 14.089C87.1925 13.8994 87.3733 13.7521 87.5846 13.6657C87.796 13.5792 88.0282 13.5577 88.2518 13.6037C88.4754 13.6497 88.6803 13.7612 88.8403 13.9241C89.0003 14.0869 89.1082 14.2937 89.1503 14.5181C89.1924 14.7424 89.1667 14.9743 89.0766 15.184C88.9865 15.3938 88.836 15.572 88.6443 15.6959C88.4525 15.8198 88.2283 15.8839 88 15.8799C87.6985 15.8747 87.4111 15.7512 87.1997 15.5361C86.9884 15.321 86.8699 15.0315 86.87 14.7299Z" fill="white"/>
<path d="M91.24 14.7301C91.24 14.5026 91.3074 14.2803 91.4338 14.0912C91.5602 13.9021 91.7398 13.7547 91.9499 13.6676C92.16 13.5806 92.3913 13.5578 92.6143 13.6022C92.8374 13.6465 93.0423 13.7561 93.2032 13.9169C93.364 14.0777 93.4735 14.2826 93.5179 14.5057C93.5623 14.7288 93.5395 14.96 93.4525 15.1702C93.3654 15.3803 93.218 15.5599 93.0289 15.6863C92.8398 15.8126 92.6174 15.8801 92.39 15.8801C92.085 15.8801 91.7925 15.7589 91.5768 15.5433C91.3612 15.3276 91.24 15.0351 91.24 14.7301Z" fill="white"/>
<path d="M95.62 14.7299C95.6467 14.4447 95.7788 14.1797 95.9906 13.9868C96.2024 13.7939 96.4785 13.687 96.765 13.687C97.0514 13.687 97.3276 13.7939 97.5394 13.9868C97.7511 14.1797 97.8833 14.4447 97.91 14.7299C97.9249 14.8892 97.9064 15.05 97.8556 15.2017C97.8049 15.3535 97.723 15.4931 97.6152 15.6114C97.5074 15.7297 97.3761 15.8242 97.2297 15.8889C97.0833 15.9536 96.925 15.987 96.765 15.987C96.6049 15.987 96.4466 15.9536 96.3002 15.8889C96.1538 15.8242 96.0226 15.7297 95.9148 15.6114C95.807 15.4931 95.7251 15.3535 95.6744 15.2017C95.6236 15.05 95.6051 14.8892 95.62 14.7299Z" fill="white"/>
<path d="M281.72 52.21H195.74C194.834 52.21 194.1 52.9442 194.1 53.85V89.57C194.1 90.4757 194.834 91.21 195.74 91.21H281.72C282.626 91.21 283.36 90.4757 283.36 89.57V53.85C283.36 52.9442 282.626 52.21 281.72 52.21Z" fill="#FAFAFB"/>
<path d="M277.37 85.23V63.29L200.08 63.29V85.23H277.37Z" fill="#CECECE"/>
<path d="M200.08 58.1701C200.078 57.8117 200.182 57.4608 200.38 57.1618C200.578 56.8628 200.86 56.6293 201.19 56.4908C201.521 56.3522 201.885 56.315 202.237 56.3837C202.589 56.4524 202.912 56.624 203.166 56.8767C203.42 57.1294 203.594 57.4519 203.664 57.8033C203.735 58.1547 203.7 58.5191 203.563 58.8504C203.426 59.1817 203.194 59.465 202.897 59.6644C202.599 59.8637 202.248 59.9701 201.89 59.9701C201.412 59.9701 200.953 59.7808 200.614 59.4435C200.274 59.1062 200.083 58.6484 200.08 58.1701Z" fill="#407BFF"/>
<path d="M207 58.1701C206.998 57.8112 207.103 57.4599 207.301 57.1607C207.499 56.8616 207.782 56.628 208.113 56.4898C208.444 56.3516 208.809 56.3149 209.161 56.3844C209.513 56.4539 209.836 56.6265 210.09 56.8802C210.344 57.134 210.516 57.4574 210.586 57.8094C210.655 58.1615 210.619 58.5262 210.48 58.8574C210.342 59.1885 210.109 59.4711 209.809 59.6692C209.51 59.8673 209.159 59.972 208.8 59.9701C208.323 59.9674 207.867 59.777 207.53 59.44C207.193 59.103 207.003 58.6466 207 58.1701Z" fill="#FFE100"/>
<path d="M213.85 58.1701C213.848 57.8117 213.952 57.4608 214.15 57.1618C214.348 56.8628 214.63 56.6293 214.96 56.4908C215.291 56.3522 215.655 56.315 216.007 56.3837C216.359 56.4524 216.682 56.624 216.936 56.8767C217.19 57.1294 217.364 57.4519 217.434 57.8033C217.505 58.1547 217.47 58.5191 217.333 58.8504C217.196 59.1817 216.964 59.465 216.667 59.6644C216.369 59.8637 216.018 59.9701 215.66 59.9701C215.182 59.9701 214.723 59.7808 214.384 59.4435C214.044 59.1062 213.853 58.6484 213.85 58.1701Z" fill="#96BD11"/>
<path d="M277.37 57.27H252.03V59.08H277.37V57.27Z" fill="#407BFF"/>
<path d="M209.002 75.4743L205.558 74.165V73.2247L209.002 71.9154V72.8196L205.898 73.948V73.4417L209.002 74.5701V75.4743ZM210.041 74.4688L209.816 71.1631H211.162L210.938 74.4688H210.041ZM210.489 76.2844C210.287 76.2844 210.12 76.2193 209.99 76.0891C209.86 75.9589 209.795 75.8046 209.795 75.6262C209.795 75.4429 209.86 75.291 209.99 75.1705C210.12 75.0451 210.287 74.9824 210.489 74.9824C210.696 74.9824 210.863 75.0451 210.988 75.1705C211.118 75.291 211.183 75.4429 211.183 75.6262C211.183 75.8046 211.118 75.9589 210.988 76.0891C210.863 76.2193 210.696 76.2844 210.489 76.2844ZM212.131 76.2266V71.1631H214.432C214.981 71.1631 215.466 71.2692 215.886 71.4814C216.305 71.6888 216.633 71.9805 216.869 72.3567C217.106 72.7328 217.224 73.1789 217.224 73.6948C217.224 74.206 217.106 74.6521 216.869 75.033C216.633 75.4092 216.305 75.7033 215.886 75.9155C215.466 76.1229 214.981 76.2266 214.432 76.2266H212.131ZM213.303 75.2645H214.374C214.711 75.2645 215.003 75.2018 215.249 75.0764C215.5 74.9462 215.693 74.763 215.828 74.5267C215.968 74.2904 216.038 74.0131 216.038 73.6948C216.038 73.3717 215.968 73.0945 215.828 72.863C215.693 72.6267 215.5 72.4459 215.249 72.3205C215.003 72.1903 214.711 72.1252 214.374 72.1252H213.303V75.2645ZM220.567 76.3134C220.167 76.3134 219.795 76.2483 219.453 76.1181C219.115 75.9879 218.821 75.8046 218.571 75.5683C218.325 75.332 218.132 75.0547 217.992 74.7365C217.857 74.4182 217.789 74.071 217.789 73.6948C217.789 73.3187 217.857 72.9715 217.992 72.6532C218.132 72.335 218.327 72.0577 218.578 71.8214C218.829 71.5851 219.123 71.4018 219.46 71.2716C219.798 71.1414 220.164 71.0763 220.56 71.0763C220.96 71.0763 221.326 71.1414 221.659 71.2716C221.997 71.4018 222.289 71.5851 222.534 71.8214C222.785 72.0577 222.981 72.335 223.12 72.6532C223.26 72.9667 223.33 73.3139 223.33 73.6948C223.33 74.071 223.26 74.4206 223.12 74.7437C222.981 75.062 222.785 75.3393 222.534 75.5755C222.289 75.807 221.997 75.9879 221.659 76.1181C221.326 76.2483 220.962 76.3134 220.567 76.3134ZM220.56 75.3151C220.786 75.3151 220.994 75.2766 221.182 75.1994C221.375 75.1223 221.543 75.0113 221.688 74.8667C221.833 74.722 221.944 74.5508 222.021 74.3531C222.103 74.1554 222.144 73.936 222.144 73.6948C222.144 73.4537 222.103 73.2343 222.021 73.0366C221.944 72.8389 221.833 72.6677 221.688 72.523C221.548 72.3784 221.382 72.2674 221.189 72.1903C220.996 72.1131 220.786 72.0745 220.56 72.0745C220.333 72.0745 220.123 72.1131 219.93 72.1903C219.742 72.2674 219.576 72.3784 219.431 72.523C219.287 72.6677 219.173 72.8389 219.091 73.0366C219.014 73.2343 218.976 73.4537 218.976 73.6948C218.976 73.9311 219.014 74.1506 219.091 74.3531C219.173 74.5508 219.284 74.722 219.424 74.8667C219.569 75.0113 219.738 75.1223 219.93 75.1994C220.123 75.2766 220.333 75.3151 220.56 75.3151ZM226.634 76.3134C226.243 76.3134 225.879 76.2507 225.542 76.1253C225.209 75.9951 224.92 75.8118 224.674 75.5755C224.428 75.3393 224.235 75.062 224.095 74.7437C223.96 74.4254 223.893 74.0758 223.893 73.6948C223.893 73.3139 223.96 72.9643 224.095 72.646C224.235 72.3277 224.428 72.0504 224.674 71.8141C224.925 71.5778 225.216 71.397 225.549 71.2716C225.882 71.1414 226.246 71.0763 226.641 71.0763C227.08 71.0763 227.476 71.1535 227.828 71.3078C228.184 71.4573 228.483 71.6791 228.725 71.9733L227.972 72.6677C227.799 72.47 227.606 72.3229 227.394 72.2264C227.181 72.1252 226.95 72.0745 226.699 72.0745C226.463 72.0745 226.246 72.1131 226.048 72.1903C225.85 72.2674 225.679 72.3784 225.535 72.523C225.39 72.6677 225.277 72.8389 225.195 73.0366C225.117 73.2343 225.079 73.4537 225.079 73.6948C225.079 73.936 225.117 74.1554 225.195 74.3531C225.277 74.5508 225.39 74.722 225.535 74.8667C225.679 75.0113 225.85 75.1223 226.048 75.1994C226.246 75.2766 226.463 75.3151 226.699 75.3151C226.95 75.3151 227.181 75.2669 227.394 75.1705C227.606 75.0692 227.799 74.9173 227.972 74.7148L228.725 75.4092C228.483 75.7033 228.184 75.9276 227.828 76.0819C227.476 76.2362 227.078 76.3134 226.634 76.3134ZM230.515 76.2266V72.1179H228.895V71.1631H233.307V72.1179H231.687V76.2266H230.515ZM235.105 76.2266V74.1578L235.372 74.8667L233.144 71.1631H234.389L236.096 74.0059H235.38L237.094 71.1631H238.244L236.016 74.8667L236.277 74.1578V76.2266H235.105ZM238.685 76.2266V71.1631H240.877C241.33 71.1631 241.721 71.2379 242.048 71.3874C242.376 71.532 242.63 71.7418 242.808 72.0167C242.986 72.2915 243.076 72.6195 243.076 73.0004C243.076 73.3766 242.986 73.7021 242.808 73.977C242.63 74.2518 242.376 74.464 242.048 74.6135C241.721 74.7582 241.33 74.8305 240.877 74.8305H239.336L239.857 74.3025V76.2266H238.685ZM239.857 74.4327L239.336 73.8757H240.812C241.173 73.8757 241.443 73.7985 241.622 73.6442C241.8 73.4899 241.889 73.2753 241.889 73.0004C241.889 72.7207 241.8 72.5037 241.622 72.3494C241.443 72.1951 241.173 72.1179 240.812 72.1179H239.336L239.857 71.561V74.4327ZM244.99 73.203H247.428V74.1144H244.99V73.203ZM245.077 75.2862H247.833V76.2266H243.912V71.1631H247.739V72.1035H245.077V75.2862ZM253.099 72.2771C253.408 72.2771 253.683 72.3398 253.924 72.4652C254.17 72.5857 254.363 72.7738 254.503 73.0294C254.643 73.2801 254.713 73.6032 254.713 73.9987V76.2266H253.584V74.1723C253.584 73.8588 253.514 73.6273 253.374 73.4778C253.239 73.3283 253.046 73.2536 252.796 73.2536C252.617 73.2536 252.456 73.2922 252.311 73.3693C252.171 73.4417 252.06 73.555 251.978 73.7093C251.901 73.8636 251.863 74.0613 251.863 74.3025V76.2266H250.734V70.8593H251.863V73.4127L251.609 73.0872C251.749 72.8268 251.949 72.6267 252.21 72.4869C252.47 72.347 252.767 72.2771 253.099 72.2771ZM257.327 76.2844C256.869 76.2844 256.512 76.1687 256.256 75.9372C256.001 75.7009 255.873 75.3513 255.873 74.8884V71.4742H257.001V74.8739C257.001 75.0379 257.045 75.1657 257.131 75.2573C257.218 75.3441 257.336 75.3875 257.486 75.3875C257.664 75.3875 257.816 75.3393 257.942 75.2428L258.245 76.0385C258.13 76.1205 257.99 76.1832 257.826 76.2266C257.667 76.2651 257.5 76.2844 257.327 76.2844ZM255.272 73.2898V72.4218H257.971V73.2898H255.272ZM263.863 72.2771C264.171 72.2771 264.444 72.3398 264.68 72.4652C264.921 72.5857 265.109 72.7738 265.244 73.0294C265.384 73.2801 265.454 73.6032 265.454 73.9987V76.2266H264.326V74.1723C264.326 73.8588 264.261 73.6273 264.13 73.4778C264 73.3283 263.817 73.2536 263.581 73.2536C263.417 73.2536 263.27 73.2922 263.139 73.3693C263.009 73.4417 262.908 73.5526 262.836 73.7021C262.763 73.8516 262.727 74.0421 262.727 74.2735V76.2266H261.599V74.1723C261.599 73.8588 261.534 73.6273 261.403 73.4778C261.278 73.3283 261.097 73.2536 260.861 73.2536C260.697 73.2536 260.55 73.2922 260.42 73.3693C260.289 73.4417 260.188 73.5526 260.116 73.7021C260.043 73.8516 260.007 74.0421 260.007 74.2735V76.2266H258.879V72.3349H259.957V73.3983L259.754 73.0872C259.889 72.822 260.08 72.6219 260.326 72.4869C260.576 72.347 260.861 72.2771 261.179 72.2771C261.536 72.2771 261.847 72.3687 262.112 72.552C262.382 72.7304 262.561 73.0053 262.647 73.3766L262.25 73.2681C262.38 72.9643 262.587 72.7231 262.872 72.5447C263.161 72.3663 263.491 72.2771 263.863 72.2771ZM266.465 76.2266V70.8593H267.594V76.2266H266.465ZM268.569 75.4743V74.5701L271.672 73.4417V73.948L268.569 72.8196V71.9154L272.012 73.2247V74.165L268.569 75.4743Z" fill="white"/>
<path d="M352.8 33.5698H293.07C292.164 33.5698 291.43 34.3041 291.43 35.2098V70.9298C291.43 71.8356 292.164 72.5698 293.07 72.5698H352.8C353.706 72.5698 354.44 71.8356 354.44 70.9298V35.2098C354.44 34.3041 353.706 33.5698 352.8 33.5698Z" fill="#FAFAFB"/>
<path d="M348.45 66.5899V44.6499H297.41V66.5899H348.45Z" fill="#FF6C37"/>
<path d="M299.22 41.33C300.22 41.33 301.03 40.5196 301.03 39.52C301.03 38.5203 300.22 37.71 299.22 37.71C298.22 37.71 297.41 38.5203 297.41 39.52C297.41 40.5196 298.22 41.33 299.22 41.33Z" fill="#407BFF"/>
<path d="M306.11 41.33C307.11 41.33 307.92 40.5196 307.92 39.52C307.92 38.5203 307.11 37.71 306.11 37.71C305.11 37.71 304.3 38.5203 304.3 39.52C304.3 40.5196 305.11 41.33 306.11 41.33Z" fill="#FFE100"/>
<path d="M312.99 41.33C313.99 41.33 314.8 40.5196 314.8 39.52C314.8 38.5203 313.99 37.71 312.99 37.71C311.99 37.71 311.18 38.5203 311.18 39.52C311.18 40.5196 311.99 41.33 312.99 41.33Z" fill="#96BD11"/>
<path d="M348.45 38.6201H323.11V40.4301H348.45V38.6201Z" fill="#CECECE"/>
<path d="M313.634 58.8081C312.887 58.8081 312.191 58.6882 311.545 58.4484C310.908 58.1993 310.355 57.8487 309.884 57.3967C309.414 56.9447 309.045 56.4142 308.777 55.8054C308.519 55.1965 308.39 54.5277 308.39 53.7989C308.39 53.0701 308.519 52.4013 308.777 51.7924C309.045 51.1836 309.414 50.6531 309.884 50.2011C310.364 49.7491 310.922 49.4031 311.559 49.1633C312.195 48.9142 312.892 48.7897 313.648 48.7897C314.488 48.7897 315.244 48.9373 315.917 49.2325C316.6 49.5184 317.172 49.9428 317.633 50.5055L316.194 51.834C315.862 51.4557 315.493 51.1744 315.087 50.9899C314.681 50.7961 314.238 50.6993 313.759 50.6993C313.307 50.6993 312.892 50.7731 312.513 50.9207C312.135 51.0683 311.808 51.2804 311.531 51.5572C311.254 51.834 311.037 52.1614 310.881 52.5397C310.733 52.9179 310.659 53.3376 310.659 53.7989C310.659 54.2602 310.733 54.6799 310.881 55.0581C311.037 55.4364 311.254 55.7639 311.531 56.0406C311.808 56.3174 312.135 56.5295 312.513 56.6771C312.892 56.8247 313.307 56.8985 313.759 56.8985C314.238 56.8985 314.681 56.8063 315.087 56.6218C315.493 56.4281 315.862 56.1375 316.194 55.75L317.633 57.0784C317.172 57.6412 316.6 58.0701 315.917 58.3653C315.244 58.6605 314.483 58.8081 313.634 58.8081ZM322.276 58.8081C321.501 58.8081 320.758 58.7067 320.048 58.5037C319.338 58.2915 318.766 58.0194 318.332 57.6873L319.093 55.9991C319.508 56.2943 319.997 56.5388 320.56 56.7325C321.132 56.917 321.708 57.0092 322.29 57.0092C322.732 57.0092 323.088 56.9677 323.355 56.8847C323.632 56.7925 323.835 56.6679 323.964 56.5111C324.093 56.3543 324.158 56.1744 324.158 55.9714C324.158 55.7131 324.056 55.5102 323.853 55.3626C323.65 55.2057 323.383 55.0812 323.051 54.9889C322.719 54.8875 322.35 54.7952 321.944 54.7122C321.547 54.6199 321.146 54.5092 320.74 54.3801C320.343 54.2509 319.979 54.0849 319.647 53.8819C319.315 53.679 319.042 53.4114 318.83 53.0793C318.627 52.7472 318.526 52.3229 318.526 51.8063C318.526 51.2528 318.673 50.75 318.969 50.298C319.273 49.8367 319.725 49.4723 320.325 49.2048C320.934 48.928 321.695 48.7897 322.608 48.7897C323.217 48.7897 323.816 48.8635 324.407 49.0111C324.997 49.1494 325.518 49.3616 325.97 49.6476L325.279 51.3496C324.827 51.0913 324.374 50.9022 323.922 50.7823C323.47 50.6531 323.028 50.5886 322.594 50.5886C322.16 50.5886 321.805 50.6393 321.529 50.7408C321.252 50.8423 321.053 50.976 320.934 51.1421C320.814 51.2989 320.754 51.4834 320.754 51.6956C320.754 51.9447 320.855 52.1476 321.058 52.3044C321.261 52.452 321.529 52.572 321.861 52.6642C322.193 52.7565 322.557 52.8487 322.954 52.941C323.36 53.0332 323.761 53.1393 324.158 53.2592C324.564 53.3792 324.933 53.5406 325.265 53.7436C325.597 53.9465 325.864 54.214 326.067 54.5461C326.279 54.8782 326.386 55.298 326.386 55.8054C326.386 56.3496 326.233 56.8478 325.929 57.2998C325.624 57.7519 325.168 58.1163 324.559 58.393C323.959 58.6698 323.198 58.8081 322.276 58.8081ZM331.1 58.8081C330.325 58.8081 329.582 58.7067 328.872 58.5037C328.162 58.2915 327.59 58.0194 327.156 57.6873L327.917 55.9991C328.332 56.2943 328.821 56.5388 329.384 56.7325C329.956 56.917 330.533 57.0092 331.114 57.0092C331.557 57.0092 331.912 56.9677 332.179 56.8847C332.456 56.7925 332.659 56.6679 332.788 56.5111C332.917 56.3543 332.982 56.1744 332.982 55.9714C332.982 55.7131 332.88 55.5102 332.677 55.3626C332.475 55.2057 332.207 55.0812 331.875 54.9889C331.543 54.8875 331.174 54.7952 330.768 54.7122C330.371 54.6199 329.97 54.5092 329.564 54.3801C329.167 54.2509 328.803 54.0849 328.471 53.8819C328.139 53.679 327.867 53.4114 327.654 53.0793C327.451 52.7472 327.35 52.3229 327.35 51.8063C327.35 51.2528 327.498 50.75 327.793 50.298C328.097 49.8367 328.549 49.4723 329.149 49.2048C329.758 48.928 330.519 48.7897 331.432 48.7897C332.041 48.7897 332.641 48.8635 333.231 49.0111C333.821 49.1494 334.343 49.3616 334.795 49.6476L334.103 51.3496C333.651 51.0913 333.199 50.9022 332.747 50.7823C332.295 50.6531 331.852 50.5886 331.418 50.5886C330.985 50.5886 330.63 50.6393 330.353 50.7408C330.076 50.8423 329.878 50.976 329.758 51.1421C329.638 51.2989 329.578 51.4834 329.578 51.6956C329.578 51.9447 329.679 52.1476 329.882 52.3044C330.085 52.452 330.353 52.572 330.685 52.6642C331.017 52.7565 331.381 52.8487 331.778 52.941C332.184 53.0332 332.585 53.1393 332.982 53.2592C333.388 53.3792 333.757 53.5406 334.089 53.7436C334.421 53.9465 334.689 54.214 334.892 54.5461C335.104 54.8782 335.21 55.298 335.21 55.8054C335.21 56.3496 335.058 56.8478 334.753 57.2998C334.449 57.7519 333.992 58.1163 333.383 58.393C332.784 58.6698 332.023 58.8081 331.1 58.8081Z" fill="white"/>
<path d="M352.91 81.6602H292.96C292.115 81.6602 291.43 82.3452 291.43 83.1902V100.11C291.43 100.955 292.115 101.64 292.96 101.64H352.91C353.755 101.64 354.44 100.955 354.44 100.11V83.1902C354.44 82.3452 353.755 81.6602 352.91 81.6602Z" fill="#CECECE"/>
<path d="M301.192 93.544L296.908 91.915V90.745L301.192 89.116V90.241L297.331 91.645V91.015L301.192 92.419V93.544ZM304.465 94.552C304.009 94.552 303.598 94.45 303.232 94.246C302.866 94.036 302.575 93.745 302.359 93.373C302.149 93.001 302.044 92.563 302.044 92.059C302.044 91.549 302.149 91.108 302.359 90.736C302.575 90.364 302.866 90.076 303.232 89.872C303.598 89.668 304.009 89.566 304.465 89.566C304.873 89.566 305.23 89.656 305.536 89.836C305.842 90.016 306.079 90.289 306.247 90.655C306.415 91.021 306.499 91.489 306.499 92.059C306.499 92.623 306.418 93.091 306.256 93.463C306.094 93.829 305.86 94.102 305.554 94.282C305.254 94.462 304.891 94.552 304.465 94.552ZM304.708 93.4C304.936 93.4 305.143 93.346 305.329 93.238C305.515 93.13 305.662 92.977 305.77 92.779C305.884 92.575 305.941 92.335 305.941 92.059C305.941 91.777 305.884 91.537 305.77 91.339C305.662 91.141 305.515 90.988 305.329 90.88C305.143 90.772 304.936 90.718 304.708 90.718C304.474 90.718 304.264 90.772 304.078 90.88C303.892 90.988 303.742 91.141 303.628 91.339C303.52 91.537 303.466 91.777 303.466 92.059C303.466 92.335 303.52 92.575 303.628 92.779C303.742 92.977 303.892 93.13 304.078 93.238C304.264 93.346 304.474 93.4 304.708 93.4ZM305.977 94.48V93.49L306.004 92.05L305.914 90.619V87.802H307.318V94.48H305.977ZM308.617 94.48V89.638H310.021V94.48H308.617ZM309.319 88.963C309.061 88.963 308.851 88.888 308.689 88.738C308.527 88.588 308.446 88.402 308.446 88.18C308.446 87.958 308.527 87.772 308.689 87.622C308.851 87.472 309.061 87.397 309.319 87.397C309.577 87.397 309.787 87.469 309.949 87.613C310.111 87.751 310.192 87.931 310.192 88.153C310.192 88.387 310.111 88.582 309.949 88.738C309.793 88.888 309.583 88.963 309.319 88.963ZM312.638 94.48L310.604 89.638H312.053L313.745 93.805H313.025L314.78 89.638H316.13L314.087 94.48H312.638ZM316.613 93.544V92.419L320.474 91.015V91.645L316.613 90.241V89.116L320.897 90.745V91.915L316.613 93.544ZM326.285 93.544L322.001 91.915V90.745L326.285 89.116V90.241L322.424 91.645V91.015L326.285 92.419V93.544ZM326.534 95.38L329.504 86.902H330.755L327.785 95.38H326.534ZM332.502 94.552C332.046 94.552 331.635 94.45 331.269 94.246C330.903 94.036 330.612 93.745 330.396 93.373C330.186 93.001 330.081 92.563 330.081 92.059C330.081 91.549 330.186 91.108 330.396 90.736C330.612 90.364 330.903 90.076 331.269 89.872C331.635 89.668 332.046 89.566 332.502 89.566C332.91 89.566 333.267 89.656 333.573 89.836C333.879 90.016 334.116 90.289 334.284 90.655C334.452 91.021 334.536 91.489 334.536 92.059C334.536 92.623 334.455 93.091 334.293 93.463C334.131 93.829 333.897 94.102 333.591 94.282C333.291 94.462 332.928 94.552 332.502 94.552ZM332.745 93.4C332.973 93.4 333.18 93.346 333.366 93.238C333.552 93.13 333.699 92.977 333.807 92.779C333.921 92.575 333.978 92.335 333.978 92.059C333.978 91.777 333.921 91.537 333.807 91.339C333.699 91.141 333.552 90.988 333.366 90.88C333.18 90.772 332.973 90.718 332.745 90.718C332.511 90.718 332.301 90.772 332.115 90.88C331.929 90.988 331.779 91.141 331.665 91.339C331.557 91.537 331.503 91.777 331.503 92.059C331.503 92.335 331.557 92.575 331.665 92.779C331.779 92.977 331.929 93.13 332.115 93.238C332.301 93.346 332.511 93.4 332.745 93.4ZM334.014 94.48V93.49L334.041 92.05L333.951 90.619V87.802H335.355V94.48H334.014ZM336.654 94.48V89.638H338.058V94.48H336.654ZM337.356 88.963C337.098 88.963 336.888 88.888 336.726 88.738C336.564 88.588 336.483 88.402 336.483 88.18C336.483 87.958 336.564 87.772 336.726 87.622C336.888 87.472 337.098 87.397 337.356 87.397C337.614 87.397 337.824 87.469 337.986 87.613C338.148 87.751 338.229 87.931 338.229 88.153C338.229 88.387 338.148 88.582 337.986 88.738C337.83 88.888 337.62 88.963 337.356 88.963ZM340.675 94.48L338.641 89.638H340.09L341.782 93.805H341.062L342.817 89.638H344.167L342.124 94.48H340.675ZM344.65 93.544V92.419L348.511 91.015V91.645L344.65 90.241V89.116L348.934 90.745V91.915L344.65 93.544Z" fill="white"/>
<path d="M60.27 30.2899H59.17C59.0815 29.7055 58.9306 29.1322 58.72 28.5799L59.66 28.0399C59.6903 28.0243 59.7171 28.0026 59.7386 27.9762C59.7602 27.9498 59.7762 27.9193 59.7856 27.8865C59.7949 27.8538 59.7975 27.8194 59.7931 27.7856C59.7887 27.7518 59.7774 27.7192 59.76 27.6899L58.76 25.9799C58.7264 25.9208 58.6709 25.8772 58.6054 25.8585C58.54 25.8398 58.4698 25.8475 58.41 25.8799L57.47 26.4299C57.0995 25.9695 56.6804 25.5504 56.22 25.1799L56.76 24.2399C56.7933 24.1813 56.8025 24.112 56.7857 24.0467C56.769 23.9814 56.7275 23.9252 56.67 23.8899L55 22.8999C54.9414 22.8666 54.8721 22.8574 54.8068 22.8742C54.7415 22.891 54.6853 22.9325 54.65 22.9899L54.1 23.9899C53.5516 23.7779 52.9815 23.627 52.4 23.5399V22.4399C52.4 22.3736 52.3737 22.31 52.3268 22.2632C52.2799 22.2163 52.2163 22.1899 52.15 22.1899H50.15C50.0827 22.1899 50.0181 22.2159 49.9696 22.2625C49.9211 22.3091 49.8926 22.3727 49.89 22.4399V23.5399C49.3085 23.627 48.7384 23.7779 48.19 23.9899L47.65 22.9899C47.6147 22.9325 47.5585 22.891 47.4932 22.8742C47.4279 22.8574 47.3586 22.8666 47.3 22.8999L45.58 23.8999C45.5225 23.9352 45.481 23.9914 45.4643 24.0567C45.4475 24.122 45.4567 24.1913 45.49 24.2499L46.04 25.1899C45.5796 25.5604 45.1605 25.9795 44.79 26.4399L43.79 25.8899C43.7611 25.8741 43.7294 25.8641 43.6967 25.8606C43.6639 25.857 43.6308 25.86 43.5992 25.8693C43.5676 25.8786 43.5382 25.894 43.5126 25.9147C43.487 25.9354 43.4657 25.961 43.45 25.9899L42.45 27.6999C42.4167 27.7586 42.4075 27.8278 42.4243 27.8931C42.441 27.9584 42.4825 28.0147 42.54 28.0499L43.49 28.5899C43.2761 29.1419 43.1219 29.7152 43.03 30.2999H42C41.9337 30.2999 41.8701 30.3263 41.8232 30.3732C41.7763 30.42 41.75 30.4836 41.75 30.5499V32.5499C41.75 32.6162 41.7763 32.6798 41.8232 32.7267C41.8701 32.7736 41.9337 32.7999 42 32.7999H43.09C43.1796 33.3852 43.3339 33.9587 43.55 34.5099L42.6 35.0499C42.5425 35.0852 42.501 35.1414 42.4842 35.2067C42.4675 35.272 42.4767 35.3413 42.51 35.3999L43.51 37.1099C43.5246 37.1399 43.5453 37.1665 43.5708 37.188C43.5963 37.2095 43.626 37.2255 43.658 37.2349C43.6899 37.2443 43.7235 37.2469 43.7566 37.2427C43.7897 37.2384 43.8215 37.2272 43.85 37.2099L44.85 36.6599C45.1907 37.1048 45.576 37.5136 46 37.8799L45.45 38.8199C45.4167 38.8786 45.4075 38.9478 45.4243 39.0131C45.441 39.0784 45.4825 39.1347 45.54 39.1699L47.26 40.1699C47.3186 40.2032 47.3879 40.2125 47.4532 40.1957C47.5185 40.1789 47.5747 40.1374 47.61 40.0799L48.15 39.0799C48.6996 39.2904 49.2692 39.4446 49.85 39.5399V40.6299C49.8526 40.6972 49.8811 40.7607 49.9296 40.8074C49.9781 40.854 50.0427 40.88 50.11 40.8799H52.11C52.1763 40.8799 52.2399 40.8536 52.2868 40.8067C52.3337 40.7598 52.36 40.6962 52.36 40.6299V39.5799C52.9408 39.4846 53.5104 39.3304 54.06 39.1199L54.61 40.1199C54.6453 40.1774 54.7015 40.2189 54.7668 40.2357C54.8321 40.2525 54.9014 40.2432 54.96 40.2099L56.67 39.2099C56.7275 39.1747 56.769 39.1184 56.7857 39.0531C56.8025 38.9878 56.7933 38.9186 56.76 38.8599L56.22 37.9199C56.6804 37.5495 57.0995 37.1304 57.47 36.6699L58.41 37.2199C58.4393 37.2374 58.4718 37.2487 58.5057 37.2531C58.5395 37.2575 58.5738 37.2549 58.6066 37.2455C58.6394 37.2362 58.6699 37.2202 58.6963 37.1986C58.7227 37.177 58.7443 37.1502 58.76 37.1199L59.76 35.4099C59.7774 35.3806 59.7887 35.3481 59.7931 35.3143C59.7975 35.2805 59.7949 35.2461 59.7856 35.2133C59.7762 35.1806 59.7602 35.15 59.7386 35.1237C59.7171 35.0973 59.6903 35.0756 59.66 35.0599L58.72 34.5199C58.9327 33.9683 59.0836 33.3948 59.17 32.8099H60.27C60.3363 32.8099 60.3999 32.7836 60.4468 32.7367C60.4937 32.6898 60.52 32.6262 60.52 32.5599V30.5599C60.5228 30.5255 60.5184 30.4908 60.507 30.4581C60.4957 30.4254 60.4777 30.3955 60.4542 30.3701C60.4307 30.3447 60.4022 30.3245 60.3705 30.3107C60.3388 30.2969 60.3046 30.2898 60.27 30.2899ZM51.13 36.4699C50.153 36.4699 49.1979 36.1802 48.3855 35.6374C47.5731 35.0946 46.9399 34.3231 46.566 33.4204C46.1921 32.5177 46.0943 31.5245 46.2849 30.5662C46.4755 29.6079 46.946 28.7277 47.6369 28.0368C48.3278 27.346 49.208 26.8755 50.1663 26.6849C51.1245 26.4943 52.1178 26.5921 53.0205 26.966C53.9231 27.3399 54.6946 27.973 55.2375 28.7854C55.7803 29.5978 56.07 30.5529 56.07 31.5299C56.0674 32.8393 55.546 34.0943 54.6202 35.0201C53.6943 35.946 52.4394 36.4673 51.13 36.4699Z" fill="#407BFF"/>
<path d="M46.72 13.35H44.92C44.7761 12.3957 44.528 11.4601 44.18 10.56L45.73 9.67C45.7779 9.64309 45.82 9.6068 45.8536 9.5633C45.8873 9.5198 45.9118 9.46998 45.9258 9.4168C45.9398 9.36362 45.943 9.30817 45.9351 9.25374C45.9272 9.19932 45.9085 9.14703 45.88 9.1L44.26 6.29C44.2331 6.24204 44.1968 6.19999 44.1533 6.16635C44.1098 6.1327 44.06 6.10815 44.0068 6.09416C43.9536 6.08016 43.8981 6.07701 43.8437 6.08488C43.7893 6.09276 43.737 6.1115 43.69 6.14L42.15 7C41.5545 6.26578 40.8842 5.5955 40.15 5L41 3.44C41.0285 3.39297 41.0472 3.34068 41.0551 3.28626C41.063 3.23183 41.0598 3.17638 41.0458 3.1232C41.0318 3.07002 41.0073 3.0202 40.9736 2.9767C40.94 2.9332 40.8979 2.89691 40.85 2.87L38 1.25C37.9043 1.19517 37.7909 1.18016 37.6842 1.20822C37.5776 1.23629 37.4863 1.30517 37.43 1.4L36.57 3C35.6688 2.65535 34.7335 2.40729 33.78 2.26V0.42C33.78 0.308609 33.7357 0.20178 33.657 0.123015C33.5782 0.0442499 33.4714 0 33.36 0L30.12 0C30.0086 0 29.9018 0.0442499 29.823 0.123015C29.7442 0.20178 29.7 0.308609 29.7 0.42V2.21C28.7445 2.37345 27.8093 2.63828 26.91 3L26 1.4C25.9437 1.30517 25.8524 1.23629 25.7457 1.20822C25.6391 1.18016 25.5257 1.19517 25.43 1.25L22.64 2.87C22.592 2.89691 22.55 2.9332 22.5163 2.9767C22.4827 3.0202 22.4581 3.07002 22.4441 3.1232C22.4301 3.17638 22.427 3.23183 22.4349 3.28626C22.4427 3.34068 22.4615 3.39297 22.49 3.44L23.38 5C22.6432 5.59265 21.9726 6.26321 21.38 7L19.83 6.11C19.7829 6.0815 19.7307 6.06276 19.6762 6.05488C19.6218 6.04701 19.5664 6.05016 19.5132 6.06416C19.46 6.07815 19.4102 6.1027 19.3667 6.13635C19.3232 6.16999 19.2869 6.21204 19.26 6.26L17.6 9.1C17.5715 9.14703 17.5527 9.19932 17.5449 9.25374C17.537 9.30817 17.5401 9.36362 17.5541 9.4168C17.5681 9.46998 17.5927 9.5198 17.6263 9.5633C17.66 9.6068 17.702 9.64309 17.75 9.67L19.3 10.56C18.9565 11.4616 18.7085 12.3967 18.56 13.35H16.76C16.7053 13.35 16.6511 13.3609 16.6007 13.3821C16.5503 13.4034 16.5047 13.4345 16.4665 13.4736C16.4283 13.5127 16.3983 13.5591 16.3783 13.61C16.3583 13.6609 16.3486 13.7153 16.35 13.77V17C16.3486 17.0547 16.3583 17.1091 16.3783 17.16C16.3983 17.2109 16.4283 17.2573 16.4665 17.2964C16.5047 17.3355 16.5503 17.3666 16.6007 17.3879C16.6511 17.4091 16.7053 17.42 16.76 17.42H18.56C18.7073 18.3736 18.9553 19.3088 19.3 20.21L17.75 21.11C17.7024 21.1359 17.6605 21.1713 17.627 21.2139C17.5934 21.2565 17.5689 21.3054 17.5548 21.3578C17.5408 21.4102 17.5376 21.4649 17.5453 21.5185C17.5531 21.5722 17.5717 21.6237 17.6 21.67L19.22 24.48C19.2764 24.5746 19.367 24.6439 19.4731 24.6737C19.5791 24.7035 19.6926 24.6914 19.79 24.64L21.34 23.74C21.9302 24.494 22.6008 25.1813 23.34 25.79L22.45 27.33C22.4215 27.377 22.4027 27.4293 22.3949 27.4837C22.387 27.5382 22.3901 27.5936 22.4041 27.6468C22.4181 27.7 22.4427 27.7498 22.4763 27.7933C22.51 27.8368 22.552 27.8731 22.6 27.9L25.41 29.52C25.457 29.5485 25.5093 29.5672 25.5637 29.5751C25.6181 29.583 25.6736 29.5798 25.7268 29.5658C25.78 29.5518 25.8298 29.5273 25.8733 29.4937C25.9168 29.46 25.9531 29.418 25.98 29.37L26.87 27.82C27.7692 28.1729 28.705 28.4244 29.66 28.57V30.36C29.66 30.4147 29.6709 30.4688 29.6921 30.5192C29.7133 30.5697 29.7444 30.6153 29.7836 30.6535C29.8227 30.6917 29.8691 30.7217 29.92 30.7417C29.9709 30.7617 30.0253 30.7713 30.08 30.77H33.32C33.3747 30.7713 33.429 30.7617 33.4799 30.7417C33.5309 30.7217 33.5772 30.6917 33.6164 30.6535C33.6555 30.6153 33.6866 30.5697 33.7078 30.5192C33.7291 30.4688 33.74 30.4147 33.74 30.36V28.58C34.695 28.4344 35.6307 28.1829 36.53 27.83L37.42 29.38C37.4469 29.428 37.4832 29.47 37.5267 29.5037C37.5702 29.5373 37.62 29.5618 37.6732 29.5758C37.7264 29.5898 37.7818 29.593 37.8362 29.5851C37.8907 29.5772 37.9429 29.5585 37.99 29.53L40.8 27.91C40.8479 27.8831 40.89 27.8468 40.9236 27.8033C40.9573 27.7598 40.9818 27.71 40.9958 27.6568C41.0098 27.6036 41.013 27.5482 41.0051 27.4937C40.9972 27.4393 40.9785 27.387 40.95 27.34L40.1 25.8C40.8364 25.1884 41.5068 24.5013 42.1 23.75L43.64 24.65C43.7374 24.7014 43.8508 24.7135 43.9569 24.6837C44.063 24.6539 44.1535 24.5846 44.21 24.49L45.83 21.68C45.8583 21.6337 45.8769 21.5822 45.8846 21.5285C45.8924 21.4749 45.8891 21.4202 45.8751 21.3678C45.8611 21.3154 45.8365 21.2665 45.803 21.2239C45.7695 21.1813 45.7276 21.1459 45.68 21.12L44.13 20.22C44.4794 19.3204 44.7276 18.3846 44.87 17.43H46.67C46.7247 17.43 46.7788 17.4191 46.8292 17.3979C46.8796 17.3766 46.9253 17.3455 46.9635 17.3064C47.0017 17.2673 47.0317 17.2209 47.0517 17.17C47.0717 17.1191 47.0813 17.0647 47.08 17.01V13.77C47.0832 13.6677 47.0481 13.5679 46.9815 13.4901C46.9149 13.4124 46.8216 13.3624 46.72 13.35ZM31.72 23.49C30.1179 23.49 28.5519 23.0149 27.2199 22.1249C25.8878 21.2349 24.8496 19.9698 24.2366 18.4897C23.6235 17.0097 23.4631 15.381 23.7756 13.8098C24.0882 12.2385 24.8596 10.7952 25.9924 9.66244C27.1252 8.52963 28.5685 7.75818 30.1397 7.44564C31.711 7.1331 33.3396 7.29351 34.8197 7.90658C36.2998 8.51965 37.5648 9.55784 38.4549 10.8899C39.3449 12.2219 39.82 13.788 39.82 15.39C39.82 17.5348 38.9693 19.592 37.4546 21.1105C35.9399 22.629 33.8848 23.4847 31.74 23.49H31.72Z" fill="#407BFF"/>
<path d="M30.39 15.39C30.39 15.123 30.4692 14.862 30.6175 14.64C30.7659 14.418 30.9767 14.245 31.2234 14.1428C31.4701 14.0406 31.7415 14.0139 32.0034 14.066C32.2653 14.1181 32.5058 14.2466 32.6946 14.4354C32.8834 14.6242 33.012 14.8648 33.0641 15.1267C33.1162 15.3885 33.0894 15.66 32.9873 15.9067C32.8851 16.1533 32.712 16.3642 32.49 16.5125C32.268 16.6609 32.007 16.74 31.74 16.74C31.382 16.74 31.0386 16.5978 30.7854 16.3446C30.5322 16.0915 30.39 15.7481 30.39 15.39Z" fill="#407BFF"/>
<path d="M50.38 31.5298C50.3826 31.3317 50.4624 31.1424 50.6025 31.0023C50.7426 30.8622 50.9319 30.7824 51.13 30.7798C51.3289 30.7798 51.5197 30.8588 51.6603 30.9995C51.801 31.1401 51.88 31.3309 51.88 31.5298C51.88 31.7287 51.801 31.9195 51.6603 32.0601C51.5197 32.2008 51.3289 32.2798 51.13 32.2798C50.9319 32.2772 50.7426 32.1973 50.6025 32.0572C50.4624 31.9172 50.3826 31.7279 50.38 31.5298Z" fill="#407BFF"/>
<path d="M272.32 28.93H272.12C271.722 27.1992 270.748 25.6546 269.359 24.5484C267.97 23.4423 266.246 22.84 264.47 22.84C263.794 22.8485 263.122 22.9425 262.47 23.12C261.47 20.9963 259.806 19.2555 257.729 18.1603C255.653 17.0652 253.277 16.6749 250.959 17.0486C248.642 17.4223 246.509 18.5395 244.882 20.2318C243.255 21.924 242.222 24.0995 241.94 26.43C239.986 26.7826 238.238 27.8625 237.049 29.4522C235.859 31.0419 235.316 33.0233 235.529 34.9973C235.742 36.9713 236.696 38.7913 238.197 40.0907C239.698 41.39 241.636 42.0723 243.62 42H272.32C273.982 41.9078 275.545 41.1828 276.688 39.9739C277.832 38.765 278.469 37.1641 278.469 35.5C278.469 33.8359 277.832 32.2349 276.688 31.0261C275.545 29.8172 273.982 29.0922 272.32 29V28.93Z" fill="#407BFF"/>
<path d="M247.66 115.81L252.24 120.89L256.93 126.09C256.942 126.107 256.958 126.12 256.976 126.129C256.994 126.139 257.015 126.143 257.035 126.143C257.055 126.143 257.076 126.139 257.094 126.129C257.112 126.12 257.128 126.107 257.14 126.09L261.83 120.89L266.41 115.81C266.431 115.79 266.445 115.764 266.45 115.735C266.456 115.707 266.452 115.677 266.44 115.651C266.428 115.625 266.408 115.603 266.383 115.588C266.358 115.574 266.329 115.567 266.3 115.57H261.87V108H252.2V115.62H247.77C247.75 115.625 247.731 115.633 247.714 115.646C247.698 115.658 247.684 115.673 247.674 115.691C247.663 115.709 247.657 115.729 247.654 115.749C247.652 115.77 247.654 115.79 247.66 115.81Z" fill="#407BFF"/>
<path d="M261.86 104.99H252.2V106.55H261.86V104.99Z" fill="#407BFF"/>
<path d="M261.86 102.05H252.2V103.61H261.86V102.05Z" fill="#407BFF"/>
<path d="M210.82 133.2H349.55C350.611 133.2 351.628 133.622 352.378 134.372C353.129 135.122 353.55 136.139 353.55 137.2V236.68C353.55 236.876 353.472 237.065 353.333 237.203C353.195 237.342 353.006 237.42 352.81 237.42H207.56C207.364 237.42 207.176 237.342 207.037 237.203C206.898 237.065 206.82 236.876 206.82 236.68V137.2C206.82 136.139 207.241 135.122 207.992 134.372C208.742 133.622 209.759 133.2 210.82 133.2Z" fill="#F7F7F8"/>
<path d="M348.38 232.25V138.37H211.98V232.25H348.38Z" fill="#F8F7F5"/>
<path d="M298.97 232.25V138.37H211.99V232.25H298.97Z" fill="white"/>
<path d="M298.97 145.69V138.37H211.99V145.69H298.97Z" fill="#407BFF"/>
<path d="M298.97 232.25V173.93H211.99V232.25H298.97Z" fill="#407BFF"/>
<path d="M298.97 232.25V199.59H211.99V232.25H298.97Z" fill="white"/>
<path d="M348.38 232.24V138.36H298.97V232.24H348.38Z" fill="#CECECE"/>
<path d="M280.18 137C279.967 136.977 279.769 136.876 279.626 136.716C279.482 136.557 279.403 136.35 279.403 136.135C279.403 135.921 279.482 135.713 279.626 135.554C279.769 135.394 279.967 135.293 280.18 135.27C280.301 135.257 280.424 135.27 280.54 135.307C280.657 135.345 280.764 135.406 280.854 135.488C280.945 135.569 281.018 135.669 281.068 135.781C281.117 135.892 281.143 136.013 281.143 136.135C281.143 136.257 281.117 136.378 281.068 136.489C281.018 136.601 280.945 136.701 280.854 136.782C280.764 136.864 280.657 136.926 280.54 136.963C280.424 137.001 280.301 137.013 280.18 137ZM280.18 135.79C280.087 135.79 279.998 135.827 279.932 135.893C279.867 135.958 279.83 136.047 279.83 136.14C279.83 136.233 279.867 136.322 279.932 136.388C279.998 136.453 280.087 136.49 280.18 136.49C280.273 136.49 280.362 136.453 280.427 136.388C280.493 136.322 280.53 136.233 280.53 136.14C280.534 136.092 280.528 136.044 280.512 135.998C280.497 135.953 280.471 135.911 280.438 135.876C280.405 135.841 280.365 135.814 280.321 135.795C280.276 135.777 280.228 135.769 280.18 135.77V135.79Z" fill="#D8D9DD"/>
<path d="M322.97 146.89H313.32V147.92H322.97V146.89Z" fill="white"/>
<path d="M327.3 149.11H313.32V150.14H327.3V149.11Z" fill="white"/>
<path d="M322.97 151.34H313.32V152.37H322.97V151.34Z" fill="white"/>
<path d="M327.3 153.57H313.32V154.6H327.3V153.57Z" fill="white"/>
<path d="M321.22 144.66H306.5V145.69H321.22V144.66Z" fill="#FF6C37"/>
<path d="M312.28 146.89H306.5V147.92H312.28V146.89Z" fill="#407BFF"/>
<path d="M312.28 149.11H306.5V150.14H312.28V149.11Z" fill="#407BFF"/>
<path d="M312.28 151.34H306.5V152.37H312.28V151.34Z" fill="#407BFF"/>
<path d="M312.28 153.57H306.5V154.6H312.28V153.57Z" fill="#407BFF"/>
<path d="M304.86 145.17C304.86 145.067 304.891 144.966 304.948 144.88C305.006 144.794 305.088 144.728 305.183 144.689C305.279 144.649 305.384 144.64 305.485 144.661C305.586 144.682 305.679 144.732 305.751 144.806C305.824 144.88 305.872 144.973 305.891 145.075C305.91 145.176 305.898 145.281 305.857 145.376C305.817 145.471 305.748 145.551 305.662 145.607C305.575 145.663 305.473 145.692 305.37 145.69C305.302 145.69 305.235 145.676 305.172 145.65C305.11 145.624 305.053 145.585 305.006 145.537C304.958 145.488 304.921 145.431 304.896 145.368C304.871 145.305 304.859 145.238 304.86 145.17Z" fill="#FF6C37"/>
<path d="M322.97 161.52H313.32V162.55H322.97V161.52Z" fill="white"/>
<path d="M327.3 163.75H313.32V164.78H327.3V163.75Z" fill="white"/>
<path d="M322.97 165.98H313.32V167.01H322.97V165.98Z" fill="white"/>
<path d="M327.3 168.21H313.32V169.24H327.3V168.21Z" fill="white"/>
<path d="M321.22 159.3H306.5V160.33H321.22V159.3Z" fill="#FF6C37"/>
<path d="M312.28 161.52H306.5V162.55H312.28V161.52Z" fill="#407BFF"/>
<path d="M312.28 163.75H306.5V164.78H312.28V163.75Z" fill="#407BFF"/>
<path d="M312.28 165.98H306.5V167.01H312.28V165.98Z" fill="#407BFF"/>
<path d="M312.28 168.21H306.5V169.24H312.28V168.21Z" fill="#407BFF"/>
<path d="M304.86 159.81C304.86 159.707 304.891 159.606 304.948 159.52C305.006 159.434 305.088 159.368 305.183 159.329C305.279 159.29 305.384 159.28 305.485 159.301C305.586 159.322 305.679 159.372 305.751 159.446C305.824 159.52 305.872 159.613 305.891 159.715C305.91 159.816 305.898 159.921 305.857 160.016C305.817 160.111 305.748 160.191 305.662 160.247C305.575 160.303 305.473 160.332 305.37 160.33C305.302 160.33 305.235 160.316 305.172 160.29C305.11 160.264 305.053 160.225 305.006 160.177C304.958 160.129 304.921 160.071 304.896 160.008C304.871 159.945 304.859 159.878 304.86 159.81Z" fill="#FF6C37"/>
<path d="M322.97 176.16H313.32V177.19H322.97V176.16Z" fill="white"/>
<path d="M327.3 178.39H313.32V179.42H327.3V178.39Z" fill="white"/>
<path d="M322.97 180.62H313.32V181.65H322.97V180.62Z" fill="white"/>
<path d="M327.3 182.85H313.32V183.88H327.3V182.85Z" fill="white"/>
<path d="M321.22 173.93H306.5V174.96H321.22V173.93Z" fill="#FF6C37"/>
<path d="M312.28 176.16H306.5V177.19H312.28V176.16Z" fill="#407BFF"/>
<path d="M312.28 178.39H306.5V179.42H312.28V178.39Z" fill="#407BFF"/>
<path d="M312.28 180.62H306.5V181.65H312.28V180.62Z" fill="#407BFF"/>
<path d="M312.28 182.85H306.5V183.88H312.28V182.85Z" fill="#407BFF"/>
<path d="M304.86 174.45C304.86 174.347 304.891 174.246 304.948 174.16C305.006 174.074 305.088 174.008 305.183 173.969C305.279 173.93 305.384 173.92 305.485 173.941C305.586 173.962 305.679 174.012 305.751 174.086C305.824 174.16 305.872 174.253 305.891 174.355C305.91 174.456 305.898 174.561 305.857 174.656C305.817 174.751 305.748 174.831 305.662 174.887C305.575 174.943 305.473 174.972 305.37 174.97C305.302 174.97 305.235 174.957 305.172 174.93C305.11 174.904 305.053 174.866 305.006 174.817C304.958 174.769 304.921 174.711 304.896 174.648C304.871 174.585 304.859 174.518 304.86 174.45Z" fill="#FF6C37"/>
<path d="M322.97 190.8H313.32V191.83H322.97V190.8Z" fill="white"/>
<path d="M327.3 193.03H313.32V194.06H327.3V193.03Z" fill="white"/>
<path d="M322.97 195.26H313.32V196.29H322.97V195.26Z" fill="white"/>
<path d="M327.3 197.49H313.32V198.52H327.3V197.49Z" fill="white"/>
<path d="M321.22 188.57H306.5V189.6H321.22V188.57Z" fill="#FF6C37"/>
<path d="M312.28 190.8H306.5V191.83H312.28V190.8Z" fill="#407BFF"/>
<path d="M312.28 193.03H306.5V194.06H312.28V193.03Z" fill="#407BFF"/>
<path d="M312.28 195.26H306.5V196.29H312.28V195.26Z" fill="#407BFF"/>
<path d="M312.28 197.49H306.5V198.52H312.28V197.49Z" fill="#407BFF"/>
<path d="M304.86 189.09C304.838 189.013 304.834 188.931 304.849 188.852C304.864 188.773 304.896 188.698 304.945 188.634C304.993 188.57 305.056 188.518 305.128 188.482C305.2 188.446 305.28 188.427 305.36 188.427C305.441 188.427 305.52 188.446 305.592 188.482C305.664 188.518 305.727 188.57 305.775 188.634C305.824 188.698 305.857 188.773 305.871 188.852C305.886 188.931 305.882 189.013 305.86 189.09C305.882 189.167 305.886 189.249 305.871 189.328C305.857 189.407 305.824 189.482 305.775 189.546C305.727 189.61 305.664 189.662 305.592 189.698C305.52 189.734 305.441 189.753 305.36 189.753C305.28 189.753 305.2 189.734 305.128 189.698C305.056 189.662 304.993 189.61 304.945 189.546C304.896 189.482 304.864 189.407 304.849 189.328C304.834 189.249 304.838 189.167 304.86 189.09Z" fill="#FF6C37"/>
<path d="M322.97 205.44H313.32V206.47H322.97V205.44Z" fill="white"/>
<path d="M327.3 207.67H313.32V208.7H327.3V207.67Z" fill="white"/>
<path d="M322.97 209.9H313.32V210.93H322.97V209.9Z" fill="white"/>
<path d="M327.3 212.12H313.32V213.15H327.3V212.12Z" fill="white"/>
<path d="M321.22 203.21H306.5V204.24H321.22V203.21Z" fill="#FF6C37"/>
<path d="M312.28 205.44H306.5V206.47H312.28V205.44Z" fill="#407BFF"/>
<path d="M312.28 207.67H306.5V208.7H312.28V207.67Z" fill="#407BFF"/>
<path d="M312.28 209.9H306.5V210.93H312.28V209.9Z" fill="#407BFF"/>
<path d="M312.28 212.12H306.5V213.15H312.28V212.12Z" fill="#407BFF"/>
<path d="M304.86 203.73C304.858 203.626 304.887 203.525 304.943 203.438C305 203.35 305.081 203.282 305.176 203.242C305.272 203.201 305.377 203.19 305.479 203.21C305.581 203.229 305.674 203.279 305.748 203.353C305.821 203.426 305.871 203.519 305.89 203.621C305.91 203.723 305.899 203.828 305.858 203.924C305.818 204.019 305.75 204.1 305.663 204.157C305.576 204.213 305.474 204.242 305.37 204.24C305.235 204.24 305.105 204.186 305.009 204.091C304.914 203.995 304.86 203.865 304.86 203.73Z" fill="#FF6C37"/>
<path d="M322.97 220.08H313.32V221.11H322.97V220.08Z" fill="white"/>
<path d="M327.3 222.31H313.32V223.34H327.3V222.31Z" fill="white"/>
<path d="M322.97 224.53H313.32V225.56H322.97V224.53Z" fill="white"/>
<path d="M327.3 226.76H313.32V227.79H327.3V226.76Z" fill="white"/>
<path d="M321.22 217.85H306.5V218.88H321.22V217.85Z" fill="#FF6C37"/>
<path d="M312.28 220.08H306.5V221.11H312.28V220.08Z" fill="#407BFF"/>
<path d="M312.28 222.31H306.5V223.34H312.28V222.31Z" fill="#407BFF"/>
<path d="M312.28 224.53H306.5V225.56H312.28V224.53Z" fill="#407BFF"/>
<path d="M312.28 226.76H306.5V227.79H312.28V226.76Z" fill="#407BFF"/>
<path d="M304.86 218.37C304.858 218.266 304.887 218.164 304.943 218.077C305 217.99 305.081 217.922 305.176 217.881C305.272 217.841 305.377 217.83 305.479 217.849C305.581 217.869 305.674 217.919 305.748 217.992C305.821 218.065 305.871 218.159 305.89 218.261C305.91 218.363 305.899 218.468 305.858 218.563C305.818 218.659 305.75 218.74 305.663 218.796C305.576 218.853 305.474 218.882 305.37 218.88C305.235 218.88 305.105 218.826 305.009 218.73C304.914 218.635 304.86 218.505 304.86 218.37Z" fill="#FF6C37"/>
<path d="M294.75 141H292.1V141.39H294.75V141Z" fill="white"/>
<path d="M294.75 141.83H292.1V142.22H294.75V141.83Z" fill="white"/>
<path d="M294.75 142.67H292.1V143.06H294.75V142.67Z" fill="white"/>
<path d="M231.97 141H220.09V143.07H231.97V141Z" fill="white"/>
<path d="M250.14 141H238.26V143.07H250.14V141Z" fill="white"/>
<path d="M268.31 141H256.43V143.07H268.31V141Z" fill="white"/>
<path d="M286.48 141H274.6V143.07H286.48V141Z" fill="white"/>
<path opacity="0.28" d="M252.43 133.2H210.82C209.759 133.2 208.742 133.622 207.992 134.372C207.241 135.122 206.82 136.139 206.82 137.2V215.11L252.43 133.2Z" fill="url(#paint0_linear_4285_27254)"/>
<path d="M238.52 217.85H222.59V218.37H238.52V217.85Z" fill="#DCDBDC"/>
<path d="M238.52 219.82H222.59V220.34H238.52V219.82Z" fill="#DCDBDC"/>
<path d="M238.52 221.79H222.59V222.31H238.52V221.79Z" fill="#DCDBDC"/>
<path d="M238.52 223.76H222.59V224.28H238.52V223.76Z" fill="#DCDBDC"/>
<path d="M238.52 225.73H222.59V226.25H238.52V225.73Z" fill="#DCDBDC"/>
<path d="M238.52 227.7H222.59V228.22H238.52V227.7Z" fill="#DCDBDC"/>
<path d="M263.44 217.85H247.51V218.37H263.44V217.85Z" fill="#DCDBDC"/>
<path d="M263.44 219.82H247.51V220.34H263.44V219.82Z" fill="#DCDBDC"/>
<path d="M263.44 221.79H247.51V222.31H263.44V221.79Z" fill="#DCDBDC"/>
<path d="M263.44 223.76H247.51V224.28H263.44V223.76Z" fill="#DCDBDC"/>
<path d="M263.44 225.73H247.51V226.25H263.44V225.73Z" fill="#DCDBDC"/>
<path d="M263.44 227.7H247.51V228.22H263.44V227.7Z" fill="#DCDBDC"/>
<path d="M288.36 217.85H272.43V218.37H288.36V217.85Z" fill="#DCDBDC"/>
<path d="M288.36 219.82H272.43V220.34H288.36V219.82Z" fill="#DCDBDC"/>
<path d="M288.36 221.79H272.43V222.31H288.36V221.79Z" fill="#DCDBDC"/>
<path d="M288.36 223.76H272.43V224.28H288.36V223.76Z" fill="#DCDBDC"/>
<path d="M288.36 225.73H272.43V226.25H288.36V225.73Z" fill="#DCDBDC"/>
<path d="M288.36 227.7H272.43V228.22H288.36V227.7Z" fill="#DCDBDC"/>
<path d="M281.45 168.21H229.51V171.65H281.45V168.21Z" fill="#EDEEF0"/>
<path d="M281.45 168.21H277.14V171.65H281.45V168.21Z" fill="#407BFF"/>
<path d="M280.31 170.72L279.95 170.36C280.053 170.21 280.109 170.032 280.11 169.85C280.112 169.642 280.044 169.439 279.916 169.275C279.788 169.111 279.609 168.995 279.406 168.946C279.204 168.897 278.991 168.918 278.802 169.006C278.614 169.093 278.46 169.242 278.367 169.428C278.274 169.615 278.247 169.827 278.29 170.03C278.333 170.234 278.444 170.417 278.604 170.549C278.765 170.682 278.966 170.756 279.174 170.76C279.382 170.763 279.585 170.697 279.75 170.57L280.1 170.93L280.31 170.72ZM279.19 170.47C279.068 170.468 278.949 170.43 278.848 170.361C278.748 170.291 278.67 170.194 278.624 170.08C278.579 169.967 278.568 169.843 278.593 169.723C278.618 169.603 278.678 169.494 278.765 169.408C278.852 169.322 278.963 169.264 279.083 169.241C279.203 169.218 279.327 169.231 279.439 169.278C279.552 169.325 279.648 169.405 279.716 169.506C279.784 169.608 279.82 169.728 279.82 169.85C279.82 169.932 279.804 170.014 279.772 170.089C279.74 170.165 279.693 170.234 279.635 170.292C279.576 170.35 279.507 170.395 279.43 170.426C279.354 170.456 279.272 170.471 279.19 170.47Z" fill="white"/>
<path d="M230.98 168.91H230.75V170.94H230.98V168.91Z" fill="#C0C0C1"/>
<path d="M252.04 179.25H222.59V180.28H252.04V179.25Z" fill="#DCDBDC"/>
<path d="M252.04 181.99H222.59V183.02H252.04V181.99Z" fill="#DCDBDC"/>
<path d="M252.04 184.74H222.59V185.77H252.04V184.74Z" fill="#DCDBDC"/>
<path d="M252.04 187.48H222.59V188.51H252.04V187.48Z" fill="#DCDBDC"/>
<path d="M252.04 190.23H222.59V191.26H252.04V190.23Z" fill="#DCDBDC"/>
<path d="M252.04 192.97H222.59V194H252.04V192.97Z" fill="#DCDBDC"/>
<path d="M288.36 179.25H258.07V194.07H288.36V179.25Z" fill="#CECECE"/>
<path d="M288.36 190.74H285.04V194.06H288.36V190.74Z" fill="#455A64"/>
<path d="M287.58 192.34H286.77V191.52H286.63V192.34H285.82V192.47H286.63V193.28H286.77V192.47H287.58V192.34Z" fill="#EDEEF0"/>
<path d="M287.58 193.62L288.42 196.1L289.09 195.44L289.94 196.29L290.25 195.98L289.4 195.13L290.06 194.46L287.58 193.62Z" fill="white"/>
<path d="M255.48 214.19C258.512 214.19 260.97 211.732 260.97 208.7C260.97 205.668 258.512 203.21 255.48 203.21C252.448 203.21 249.99 205.668 249.99 208.7C249.99 211.732 252.448 214.19 255.48 214.19Z" fill="#407BFF"/>
<path d="M257.73 210.85L257.54 210.55C257.69 210.388 257.818 210.206 257.92 210.01L258.27 210.09C258.342 210.105 258.416 210.092 258.478 210.052C258.539 210.013 258.583 209.951 258.6 209.88L258.8 208.95C258.809 208.915 258.81 208.879 258.804 208.844C258.798 208.808 258.785 208.774 258.765 208.744C258.745 208.714 258.72 208.688 258.69 208.669C258.659 208.649 258.625 208.636 258.59 208.63L258.25 208.55C258.24 208.329 258.2 208.11 258.13 207.9L258.43 207.71C258.492 207.671 258.535 207.609 258.552 207.538C258.569 207.468 258.557 207.393 258.52 207.33L258.01 206.53C257.971 206.469 257.909 206.425 257.838 206.408C257.767 206.391 257.693 206.403 257.63 206.44L257.33 206.63C257.163 206.489 256.982 206.365 256.79 206.26L256.86 205.91C256.869 205.875 256.871 205.839 256.866 205.804C256.86 205.768 256.848 205.734 256.829 205.703C256.811 205.672 256.786 205.646 256.757 205.625C256.728 205.604 256.695 205.588 256.66 205.58L255.73 205.37C255.658 205.355 255.584 205.369 255.522 205.408C255.461 205.447 255.417 205.509 255.4 205.58L255.33 205.93C255.106 205.941 254.884 205.981 254.67 206.05L254.48 205.75C254.441 205.689 254.379 205.645 254.308 205.628C254.237 205.611 254.163 205.623 254.1 205.66L253.3 206.17C253.24 206.211 253.198 206.273 253.183 206.344C253.169 206.415 253.182 206.489 253.22 206.55L253.41 206.85C253.266 207.017 253.138 207.198 253.03 207.39L252.68 207.31C252.645 207.303 252.609 207.303 252.574 207.309C252.539 207.316 252.506 207.329 252.476 207.349C252.447 207.368 252.421 207.393 252.401 207.423C252.381 207.452 252.367 207.485 252.36 207.52L252.15 208.45C252.135 208.522 252.149 208.596 252.188 208.658C252.227 208.72 252.289 208.763 252.36 208.78L252.71 208.85C252.721 209.07 252.758 209.289 252.82 209.5L252.52 209.69C252.46 209.731 252.418 209.793 252.403 209.864C252.389 209.935 252.402 210.009 252.44 210.07L252.95 210.87C252.989 210.932 253.051 210.976 253.122 210.992C253.193 211.009 253.267 210.998 253.33 210.96L253.63 210.77C253.793 210.919 253.975 211.047 254.17 211.15L254.09 211.49C254.075 211.562 254.089 211.636 254.128 211.698C254.167 211.76 254.229 211.804 254.3 211.82L255.22 212.03C255.292 212.045 255.366 212.032 255.428 211.992C255.489 211.953 255.533 211.891 255.55 211.82L255.63 211.47C255.85 211.459 256.068 211.422 256.28 211.36L256.47 211.66C256.511 211.72 256.573 211.762 256.644 211.777C256.715 211.792 256.789 211.779 256.85 211.74L257.65 211.23C257.681 211.211 257.707 211.186 257.728 211.156C257.749 211.126 257.763 211.093 257.771 211.057C257.778 211.022 257.778 210.985 257.771 210.95C257.764 210.914 257.75 210.88 257.73 210.85ZM254 209.66C253.808 209.362 253.71 209.014 253.716 208.66C253.722 208.306 253.834 207.962 254.036 207.671C254.238 207.38 254.522 207.155 254.852 207.026C255.181 206.897 255.542 206.868 255.888 206.943C256.234 207.019 256.55 207.196 256.795 207.451C257.041 207.706 257.205 208.029 257.268 208.377C257.33 208.726 257.288 209.085 257.146 209.41C257.004 209.734 256.768 210.009 256.47 210.2C256.273 210.328 256.052 210.415 255.821 210.457C255.589 210.499 255.352 210.495 255.122 210.445C254.893 210.395 254.675 210.3 254.483 210.165C254.29 210.03 254.126 209.859 254 209.66Z" fill="white"/>
<path d="M256.11 208.3C256.004 208.142 255.841 208.03 255.655 207.987C255.47 207.945 255.275 207.974 255.11 208.07C254.95 208.175 254.836 208.337 254.793 208.524C254.751 208.71 254.782 208.906 254.88 209.07C254.927 209.164 254.993 209.246 255.074 209.313C255.155 209.379 255.249 209.428 255.35 209.456C255.451 209.484 255.557 209.491 255.661 209.475C255.764 209.46 255.864 209.423 255.952 209.366C256.041 209.31 256.116 209.236 256.174 209.149C256.232 209.062 256.272 208.963 256.289 208.86C256.307 208.757 256.303 208.651 256.277 208.549C256.251 208.448 256.205 208.353 256.14 208.27L256.11 208.3Z" fill="white"/>
<path d="M225.07 208.63C225.07 207.544 225.392 206.483 225.995 205.58C226.599 204.677 227.456 203.974 228.459 203.558C229.462 203.143 230.566 203.034 231.631 203.246C232.696 203.457 233.674 203.98 234.442 204.748C235.21 205.516 235.733 206.494 235.945 207.559C236.156 208.624 236.048 209.728 235.632 210.731C235.217 211.734 234.513 212.592 233.61 213.195C232.707 213.798 231.646 214.12 230.56 214.12C229.104 214.12 227.708 213.542 226.678 212.512C225.648 211.483 225.07 210.086 225.07 208.63Z" fill="#1B1386"/>
<path d="M230.75 211.67C230.618 211.707 230.477 211.699 230.35 211.648C230.223 211.596 230.117 211.504 230.048 211.386C229.978 211.268 229.95 211.13 229.968 210.994C229.985 210.858 230.048 210.732 230.144 210.635C230.241 210.538 230.368 210.476 230.504 210.458C230.64 210.441 230.778 210.469 230.896 210.538C231.014 210.607 231.106 210.714 231.158 210.841C231.209 210.968 231.217 211.108 231.18 211.24C231.153 211.344 231.099 211.438 231.023 211.514C230.948 211.589 230.853 211.643 230.75 211.67Z" fill="white"/>
<path d="M229.37 209.89C229.311 209.832 229.266 209.76 229.241 209.681C229.216 209.602 229.211 209.517 229.225 209.435C229.24 209.354 229.275 209.277 229.326 209.211C229.377 209.146 229.444 209.094 229.52 209.06C229.859 208.918 230.222 208.843 230.59 208.84C230.932 208.835 231.272 208.896 231.59 209.02C231.67 209.05 231.741 209.1 231.797 209.165C231.853 209.229 231.892 209.307 231.91 209.391C231.928 209.475 231.924 209.561 231.9 209.643C231.876 209.725 231.831 209.8 231.77 209.86C231.701 209.931 231.613 209.979 231.517 209.998C231.421 210.018 231.321 210.008 231.23 209.97C231.038 209.9 230.835 209.863 230.63 209.86C230.407 209.862 230.186 209.906 229.98 209.99C229.885 210.031 229.78 210.042 229.678 210.022C229.577 210.003 229.483 209.953 229.41 209.88L229.37 209.89Z" fill="white"/>
<path d="M228.18 208.71C228.127 208.654 228.086 208.587 228.062 208.514C228.038 208.441 228.03 208.363 228.04 208.286C228.049 208.21 228.076 208.136 228.118 208.071C228.159 208.006 228.215 207.951 228.28 207.91C228.964 207.485 229.754 207.259 230.56 207.259C231.366 207.259 232.155 207.485 232.84 207.91C232.905 207.952 232.959 208.007 233 208.073C233.04 208.138 233.066 208.212 233.075 208.289C233.083 208.365 233.075 208.443 233.05 208.516C233.025 208.588 232.984 208.655 232.93 208.71C232.849 208.789 232.745 208.839 232.633 208.854C232.521 208.868 232.408 208.846 232.31 208.79C231.793 208.471 231.197 208.302 230.59 208.3C229.962 208.298 229.347 208.479 228.82 208.82C228.72 208.879 228.604 208.903 228.488 208.891C228.373 208.878 228.265 208.829 228.18 208.75V208.71Z" fill="white"/>
<path d="M227 207.51C226.948 207.458 226.909 207.396 226.883 207.327C226.858 207.258 226.848 207.185 226.854 207.111C226.859 207.038 226.881 206.967 226.916 206.903C226.952 206.839 227.001 206.784 227.06 206.74C228.075 206 229.296 205.598 230.552 205.589C231.808 205.58 233.035 205.965 234.06 206.69C234.121 206.733 234.173 206.788 234.21 206.853C234.248 206.917 234.271 206.989 234.278 207.064C234.284 207.138 234.274 207.213 234.249 207.283C234.224 207.354 234.183 207.417 234.13 207.47C234.045 207.558 233.931 207.611 233.81 207.62C233.688 207.629 233.567 207.594 233.47 207.52C232.627 206.909 231.612 206.579 230.57 206.579C229.528 206.579 228.513 206.909 227.67 207.52C227.57 207.592 227.449 207.627 227.326 207.618C227.203 207.609 227.088 207.556 227 207.47V207.51Z" fill="white"/>
<path d="M280.4 214.19C283.432 214.19 285.89 211.732 285.89 208.7C285.89 205.668 283.432 203.21 280.4 203.21C277.368 203.21 274.91 205.668 274.91 208.7C274.91 211.732 277.368 214.19 280.4 214.19Z" fill="#FF6C37"/>
<path d="M280.43 205.53C279.6 205.53 278.804 205.86 278.217 206.447C277.63 207.034 277.3 207.83 277.3 208.66C277.299 209.187 277.429 209.706 277.68 210.17C277.68 210.17 277.41 211.23 277.35 211.44C277.317 211.544 277.294 211.651 277.28 211.76C277.277 211.774 277.277 211.789 277.28 211.803C277.284 211.817 277.291 211.83 277.301 211.841C277.311 211.852 277.323 211.86 277.337 211.865C277.351 211.87 277.366 211.872 277.38 211.87C277.452 211.858 277.523 211.838 277.59 211.81L278.82 211.35C279.234 211.596 279.699 211.743 280.179 211.78C280.659 211.818 281.141 211.744 281.587 211.564C282.034 211.384 282.433 211.104 282.754 210.745C283.075 210.386 283.309 209.958 283.437 209.494C283.565 209.03 283.585 208.543 283.494 208.07C283.404 207.597 283.205 207.152 282.914 206.768C282.623 206.385 282.248 206.073 281.817 205.859C281.386 205.644 280.911 205.531 280.43 205.53ZM278.79 209.17C278.697 209.17 278.606 209.142 278.529 209.091C278.452 209.039 278.391 208.966 278.356 208.88C278.32 208.794 278.311 208.699 278.329 208.608C278.347 208.517 278.392 208.433 278.458 208.367C278.523 208.302 278.607 208.257 278.698 208.239C278.79 208.221 278.884 208.23 278.97 208.266C279.056 208.301 279.129 208.361 279.181 208.439C279.232 208.516 279.26 208.607 279.26 208.7C279.26 208.762 279.248 208.823 279.224 208.88C279.201 208.937 279.166 208.988 279.122 209.032C279.079 209.076 279.027 209.11 278.97 209.134C278.913 209.158 278.852 209.17 278.79 209.17ZM280.42 209.17C280.327 209.17 280.236 209.142 280.159 209.091C280.082 209.039 280.021 208.966 279.986 208.88C279.95 208.794 279.941 208.699 279.959 208.608C279.977 208.517 280.022 208.433 280.088 208.367C280.153 208.302 280.237 208.257 280.328 208.239C280.42 208.221 280.514 208.23 280.6 208.266C280.686 208.301 280.759 208.361 280.811 208.439C280.862 208.516 280.89 208.607 280.89 208.7C280.89 208.824 280.841 208.944 280.752 209.032C280.664 209.12 280.545 209.17 280.42 209.17ZM282.05 209.17C281.925 209.17 281.806 209.12 281.718 209.032C281.63 208.944 281.58 208.824 281.58 208.7C281.58 208.575 281.63 208.456 281.718 208.367C281.806 208.279 281.925 208.23 282.05 208.23C282.175 208.23 282.294 208.279 282.382 208.367C282.471 208.456 282.52 208.575 282.52 208.7C282.52 208.824 282.471 208.944 282.382 209.032C282.294 209.12 282.175 209.17 282.05 209.17Z" fill="white"/>
<path d="M173 406.11C170.684 408.026 167.767 409.067 164.76 409.05H162.33L162.04 399.8H172.85C173.638 399.799 174.405 400.059 175.029 400.541C175.654 401.022 176.101 401.697 176.3 402.46C176.358 402.701 176.346 402.953 176.264 403.188C176.183 403.422 176.035 403.627 175.84 403.78L173 406.11Z" fill="#0B0BC2"/>
<path d="M185.34 406.19C187.659 408.109 190.58 409.15 193.59 409.13H196L196.3 399.88H185.49C184.703 399.879 183.938 400.14 183.315 400.622C182.692 401.103 182.247 401.778 182.05 402.54C181.994 402.778 182.006 403.028 182.086 403.26C182.166 403.492 182.309 403.696 182.5 403.85L185.34 406.19Z" fill="#0B0BC2"/>
<path d="M357.79 250.32H0V257.68H357.79V250.32Z" fill="white"/>
<path d="M156.44 403.24H167.13V406.14C167.13 406.936 166.814 407.699 166.251 408.262C165.689 408.824 164.926 409.14 164.13 409.14H159.4C158.604 409.14 157.841 408.824 157.279 408.262C156.716 407.699 156.4 406.936 156.4 406.14V403.24H156.44Z" fill="#0B0BC2"/>
<path d="M168.74 403.47H155.56L145.13 292.01H168.74V403.47Z" fill="#4141EB"/>
<path d="M189.93 403.24H200.62V406.14C200.62 406.936 200.304 407.699 199.741 408.262C199.179 408.824 198.416 409.14 197.62 409.14H192.85C192.054 409.14 191.291 408.824 190.729 408.262C190.166 407.699 189.85 406.936 189.85 406.14V403.24H189.93Z" fill="#0B0BC2"/>
<path d="M202.23 403.47H189.05V292.01H212.66L202.23 403.47Z" fill="#4141EB"/>
<path d="M191 148.84H166.78V171.22H191V148.84Z" fill="#FFC19D"/>
<path d="M154.24 123.39C154.24 122.663 153.951 121.966 153.437 121.452C152.924 120.939 152.227 120.65 151.5 120.65C151.107 120.649 150.717 120.732 150.359 120.895C150.001 121.058 149.682 121.296 149.424 121.593C149.166 121.89 148.975 122.239 148.864 122.616C148.752 122.994 148.724 123.39 148.78 123.78C149.639 125.812 150.361 127.9 150.94 130.03C151.37 131.973 151.37 133.987 150.94 135.93C150.882 136.196 150.884 136.473 150.946 136.738C151.009 137.004 151.13 137.252 151.3 137.465C151.471 137.678 151.687 137.849 151.933 137.968C152.178 138.087 152.447 138.149 152.72 138.15C155.63 138.22 154.24 123.39 154.24 123.39Z" fill="#FFC19D"/>
<path d="M203.55 123.39C203.549 123.03 203.619 122.673 203.756 122.34C203.893 122.007 204.095 121.704 204.35 121.449C204.604 121.195 204.907 120.993 205.24 120.856C205.573 120.719 205.93 120.649 206.29 120.65C206.683 120.65 207.071 120.735 207.428 120.898C207.785 121.061 208.102 121.3 208.359 121.596C208.616 121.893 208.807 122.242 208.917 122.619C209.028 122.995 209.056 123.391 209 123.78C208.147 125.814 207.429 127.902 206.85 130.03C206.42 131.973 206.42 133.987 206.85 135.93C206.91 136.196 206.909 136.472 206.848 136.737C206.787 137.003 206.667 137.251 206.498 137.465C206.328 137.678 206.112 137.85 205.867 137.968C205.621 138.087 205.353 138.149 205.08 138.15C202.16 138.22 203.55 123.39 203.55 123.39Z" fill="#FFC19D"/>
<path d="M205.3 125.8C205.3 114.98 202.3 106.33 196.2 101.05C197.05 98.3699 195.65 94.8799 192 94.8799C191.83 94.8696 191.66 94.8696 191.49 94.8799C191.32 93.3495 190.587 91.9371 189.433 90.9175C188.279 89.898 186.787 89.3443 185.247 89.3643C183.708 89.3843 182.231 89.9764 181.104 91.0255C179.976 92.0747 179.28 93.5056 179.15 95.0399C179.08 95.1199 179.02 95.2099 178.95 95.2999H178.89C161.05 95.2999 152.49 107.41 152.49 125.76C152.49 142.76 159.85 156.76 175.15 158.76C175.137 158.941 175.163 159.122 175.224 159.292C175.286 159.463 175.382 159.618 175.508 159.749C175.633 159.88 175.784 159.983 175.951 160.052C176.119 160.121 176.299 160.155 176.48 160.15C176.71 160.153 176.937 160.098 177.14 159.99C177.3 160.249 177.524 160.463 177.79 160.612C178.056 160.761 178.355 160.839 178.66 160.84H178.78C179.065 160.833 179.346 160.762 179.6 160.632C179.855 160.502 180.077 160.317 180.25 160.09C180.369 160.131 180.494 160.151 180.62 160.15H180.73C181.084 160.145 181.424 160.007 181.68 159.762C181.936 159.517 182.09 159.184 182.11 158.83C197.77 157.17 205.3 143 205.3 125.8Z" fill="black"/>
<path d="M197.61 147.34C189.82 153.04 178.94 155.47 170.53 151.2C162.29 147.02 157.18 139.63 154.86 130.86C153.573 125.08 153.322 119.118 154.12 113.25C152.986 117.335 152.437 121.561 152.49 125.8C152.49 142.8 159.85 156.8 175.15 158.8C175.137 158.981 175.163 159.162 175.224 159.332C175.286 159.503 175.382 159.658 175.508 159.789C175.633 159.92 175.784 160.023 175.951 160.092C176.119 160.161 176.299 160.195 176.48 160.19C176.71 160.193 176.937 160.138 177.14 160.03C177.3 160.289 177.524 160.504 177.79 160.652C178.056 160.801 178.355 160.879 178.66 160.88H178.78C179.066 160.873 179.346 160.802 179.6 160.672C179.855 160.542 180.077 160.357 180.25 160.13C180.369 160.171 180.494 160.191 180.62 160.19H180.73C181.084 160.186 181.424 160.047 181.68 159.802C181.936 159.557 182.09 159.224 182.11 158.87C192.11 157.79 198.78 151.63 202.31 142.87C200.943 144.557 199.363 146.059 197.61 147.34Z" fill="black"/>
<path d="M115.7 240.92V254H107V249.63C107.008 247.324 107.927 245.115 109.556 243.483C111.186 241.852 113.394 240.93 115.7 240.92Z" fill="#FFB88E"/>
<path d="M122.14 212.09L107.28 252.55C107.007 253.292 106.889 254.082 106.934 254.872C106.979 255.661 107.185 256.433 107.54 257.14L108.74 259.56C109.322 260.723 110.279 261.657 111.456 262.21C112.633 262.764 113.963 262.904 115.23 262.61C117.352 262.12 119.319 261.109 120.953 259.669C122.588 258.228 123.837 256.404 124.59 254.36L137.87 218.21L122.14 212.09Z" fill="#FFC19D"/>
<path d="M242.09 254H250.82V249.63C250.82 247.314 249.901 245.092 248.264 243.454C246.627 241.815 244.406 240.893 242.09 240.89V254Z" fill="#FFB88E"/>
<path d="M235.64 212.09L250.51 252.55C250.781 253.292 250.897 254.082 250.852 254.872C250.808 255.661 250.603 256.433 250.25 257.14L249 259.56C248.419 260.721 247.463 261.654 246.288 262.207C245.113 262.76 243.786 262.902 242.52 262.61C240.396 262.123 238.428 261.114 236.793 259.673C235.158 258.232 233.91 256.406 233.16 254.36L219.88 218.21L235.64 212.09Z" fill="#FFC19D"/>
<path d="M143.06 272.16C143.21 284.9 142.13 297.91 147.23 302.59C158.9 313.29 198.89 313.29 210.56 302.59C215.66 297.91 214.56 284.9 214.72 272.16H143.06Z" fill="#4141EB"/>
<path d="M209.9 172.56C203.405 169.226 196.201 167.511 188.9 167.56H168.88C161.215 167.533 153.667 169.434 146.93 173.09C136.47 178.83 123.43 190.36 116.8 213.31L142 223.56C142 223.56 136.09 273.56 147.22 283.73C158.89 294.44 198.88 294.44 210.55 283.73C221.68 273.53 215.76 223.56 215.76 223.56L241 213.29C234.15 189.64 220.51 178.12 209.9 172.56Z" fill="#CECECE"/>
<path d="M234.36 309.69C234.365 309.63 234.365 309.57 234.36 309.51C234.232 307.921 233.783 306.373 233.042 304.962C232.3 303.55 231.281 302.303 230.045 301.295C228.809 300.287 227.383 299.539 225.851 299.097C224.319 298.654 222.713 298.526 221.13 298.72L208.86 300.08C188.951 302.29 168.859 302.29 148.95 300.08L136.67 298.72C135.087 298.526 133.481 298.654 131.949 299.097C130.417 299.539 128.991 300.287 127.755 301.295C126.519 302.303 125.5 303.55 124.758 304.962C124.017 306.373 123.568 307.921 123.44 309.51C123.44 309.57 123.44 309.63 123.44 309.69C123.413 310.472 123.544 311.251 123.826 311.981C124.108 312.71 124.535 313.375 125.08 313.936C125.626 314.496 126.279 314.941 127.001 315.242C127.723 315.544 128.498 315.696 129.28 315.69H228.55C229.33 315.692 230.102 315.537 230.82 315.233C231.538 314.93 232.188 314.485 232.73 313.925C233.272 313.365 233.696 312.701 233.976 311.973C234.256 311.246 234.387 310.469 234.36 309.69Z" fill="#3030EB"/>
<path d="M178.89 288.75C157.75 288.75 140.23 277.5 138.79 256.41L135.36 206.07C135.36 205.96 135.36 205.86 135.36 205.75C135.187 202.593 135.66 199.434 136.75 196.466C137.839 193.497 139.522 190.782 141.697 188.487C143.871 186.191 146.49 184.362 149.395 183.113C152.299 181.864 155.428 181.22 158.59 181.22H199.24C202.428 181.221 205.583 181.877 208.507 183.148C211.431 184.418 214.063 186.276 216.24 188.607C218.416 190.937 220.09 193.689 221.159 196.693C222.227 199.698 222.667 202.889 222.45 206.07L219 256.41C217.56 277.5 200 288.75 178.89 288.75Z" fill="#3030EB"/>
<path d="M178.89 283.63C146.46 283.63 138.79 256.41 138.79 256.41C140.23 277.5 157.79 288.75 178.89 288.75C200.03 288.75 217.56 277.5 219 256.41C219 256.41 210.47 283.63 178.89 283.63Z" fill="#0A0AB5"/>
<path d="M186.25 214.45H171.54C167.221 214.45 163.72 217.951 163.72 222.27C163.72 226.589 167.221 230.09 171.54 230.09H186.25C190.569 230.09 194.07 226.589 194.07 222.27C194.07 217.951 190.569 214.45 186.25 214.45Z" fill="#CECECE"/>
<path d="M178.89 335.85C177.07 335.848 175.325 335.126 174.035 333.843C172.745 332.56 172.013 330.82 172 329V220.64C172 219.972 172.266 219.331 172.738 218.858C173.211 218.386 173.852 218.12 174.52 218.12H183.29C183.957 218.123 184.595 218.389 185.065 218.862C185.536 219.334 185.8 219.974 185.8 220.64V329C185.787 330.823 185.053 332.567 183.758 333.85C182.463 335.134 180.713 335.853 178.89 335.85Z" fill="#0B0BC2"/>
<path d="M219.82 324.66H138C136.793 324.662 135.597 324.425 134.482 323.963C133.366 323.502 132.352 322.825 131.499 321.971C130.645 321.118 129.968 320.104 129.507 318.989C129.046 317.873 128.809 316.677 128.81 315.47H229C229 317.906 228.033 320.242 226.312 321.965C224.591 323.688 222.256 324.658 219.82 324.66Z" fill="#0B0BC2"/>
<path d="M197.75 330.18H160C159.275 330.18 158.557 330.037 157.888 329.76C157.218 329.483 156.609 329.076 156.097 328.563C155.584 328.051 155.178 327.442 154.9 326.773C154.623 326.103 154.48 325.385 154.48 324.66H203.23C203.23 326.117 202.654 327.515 201.627 328.549C200.601 329.583 199.207 330.17 197.75 330.18Z" fill="#0A0AB5"/>
<path d="M181.65 333.09H176.13V398.86H181.65V333.09Z" fill="#0B0BC2"/>
<path d="M148.08 404.39C148.08 405.482 147.756 406.549 147.15 407.457C146.543 408.365 145.681 409.072 144.672 409.49C143.664 409.908 142.554 410.017 141.483 409.804C140.412 409.591 139.429 409.065 138.657 408.293C137.885 407.521 137.359 406.538 137.146 405.467C136.933 404.396 137.042 403.286 137.46 402.278C137.878 401.269 138.586 400.407 139.493 399.8C140.401 399.194 141.468 398.87 142.56 398.87C144.024 398.87 145.428 399.452 146.463 400.487C147.498 401.522 148.08 402.926 148.08 404.39Z" fill="#0B0BC2"/>
<path d="M145.32 404.39C145.32 404.936 145.158 405.469 144.855 405.923C144.552 406.377 144.121 406.731 143.616 406.94C143.112 407.149 142.557 407.203 142.022 407.097C141.486 406.99 140.994 406.727 140.608 406.341C140.222 405.955 139.96 405.464 139.853 404.928C139.747 404.393 139.801 403.838 140.01 403.334C140.219 402.829 140.573 402.398 141.027 402.095C141.481 401.792 142.014 401.63 142.56 401.63C143.292 401.63 143.994 401.921 144.512 402.438C145.029 402.956 145.32 403.658 145.32 404.39Z" fill="#3030EB"/>
<path d="M176.59 398.87V390.87L139.09 396.22C138.777 396.266 138.491 396.422 138.284 396.66C138.076 396.899 137.961 397.204 137.96 397.52C137.96 397.87 138.099 398.206 138.347 398.453C138.594 398.701 138.93 398.84 139.28 398.84L176.59 398.87Z" fill="#0B0BC2"/>
<path d="M209.7 404.39C209.7 405.482 210.024 406.549 210.63 407.457C211.237 408.365 212.099 409.072 213.108 409.49C214.116 409.908 215.226 410.017 216.297 409.804C217.368 409.591 218.351 409.065 219.123 408.293C219.895 407.521 220.421 406.538 220.634 405.467C220.847 404.396 220.738 403.286 220.32 402.278C219.902 401.269 219.194 400.407 218.287 399.8C217.379 399.194 216.312 398.87 215.22 398.87C214.495 398.87 213.777 399.013 213.108 399.29C212.438 399.568 211.829 399.974 211.317 400.487C210.804 400.999 210.398 401.608 210.12 402.278C209.843 402.947 209.7 403.665 209.7 404.39Z" fill="#0B0BC2"/>
<path d="M215.22 407.15C216.744 407.15 217.98 405.914 217.98 404.39C217.98 402.866 216.744 401.63 215.22 401.63C213.696 401.63 212.46 402.866 212.46 404.39C212.46 405.914 213.696 407.15 215.22 407.15Z" fill="#3030EB"/>
<path d="M181.19 398.87V390.87L218.69 396.22C219.003 396.266 219.289 396.422 219.496 396.66C219.704 396.899 219.818 397.204 219.82 397.52C219.82 397.868 219.682 398.203 219.437 398.45C219.191 398.697 218.858 398.837 218.51 398.84L181.19 398.87Z" fill="#0B0BC2"/>
<path d="M180.27 406.23H176.59L175.67 392.43H181.19L180.27 406.23Z" fill="#0B0BC2"/>
<path d="M178.43 416.34C177.748 416.34 177.095 416.069 176.613 415.587C176.131 415.105 175.86 414.452 175.86 413.77V406C175.86 405.319 176.131 404.665 176.613 404.183C177.095 403.701 177.748 403.43 178.43 403.43C179.112 403.43 179.765 403.701 180.247 404.183C180.729 404.665 181 405.319 181 406V413.73C181.005 414.071 180.943 414.41 180.816 414.726C180.689 415.042 180.501 415.33 180.262 415.573C180.022 415.816 179.737 416.009 179.423 416.141C179.108 416.272 178.771 416.34 178.43 416.34Z" fill="#3030EB"/>
</g>
<defs>
<linearGradient id="paint0_linear_4285_27254" x1="206.82" y1="174.16" x2="252.43" y2="174.16" gradientUnits="userSpaceOnUse">
<stop stop-color="white" stop-opacity="0.2"/>
<stop offset="1" stop-color="white"/>
</linearGradient>
<clipPath id="clip0_4285_27254">
<rect width="357.79" height="416.34" fill="white"/>
</clipPath>
</defs>
</svg>
