<svg width="349" height="350" viewBox="0 0 349 350" fill="none" xmlns="http://www.w3.org/2000/svg">
<g clip-path="url(#clip0_1370_23117)">
<path d="M325.071 182.236C325.071 182.236 325.071 178.259 319.496 172.721C313.92 167.184 310.353 163.968 310.353 163.968C310.353 163.968 307.565 173.111 312.731 178.687C316.548 182.605 320.685 186.198 325.1 189.428L325.071 182.236Z" fill="#C7C7C7"/>
<path d="M316.984 207.087C316.984 207.087 316.984 203.11 311.418 197.573C305.852 192.035 302.265 188.819 302.265 188.819C302.265 188.819 299.478 197.906 304.653 203.509C308.469 207.429 312.606 211.022 317.022 214.251L316.984 207.087Z" fill="#C7C7C7"/>
<path d="M324.72 189.019C324.72 189.019 325.138 185.061 331.265 180.104C337.393 175.147 341.341 172.369 341.341 172.369C341.341 172.369 343.139 181.769 337.412 186.755C333.217 190.251 328.736 193.39 324.016 196.136L324.72 189.019Z" fill="#C7C7C7"/>
<path d="M314.957 218.361C314.957 218.361 315.785 214.47 322.397 210.188C329.01 205.907 333.187 203.528 333.187 203.528C333.187 203.528 333.986 213.043 327.764 217.429C323.234 220.459 318.461 223.107 313.492 225.345L314.957 218.361Z" fill="#C7C7C7"/>
<path d="M316.792 250.357C316.792 250.357 316.792 246.381 322.358 240.843C327.924 235.306 331.51 232.09 331.51 232.09C331.51 232.09 334.298 241.243 329.122 246.818C325.305 250.736 321.168 254.329 316.754 257.56L316.792 250.357Z" fill="#C7C7C7"/>
<path d="M316.698 258.169C316.698 258.169 317.259 254.23 312.54 247.922C307.821 241.614 304.729 237.96 304.729 237.96C304.729 237.96 300.667 246.618 304.996 252.869C308.205 257.283 311.779 261.42 315.68 265.238L316.698 258.169Z" fill="#C7C7C7"/>
<path d="M311.21 281.307C311.21 281.307 311.21 277.33 316.776 271.793C322.342 266.256 325.928 263.04 325.928 263.04C325.928 263.04 328.716 272.193 323.54 277.758C319.726 281.679 315.588 285.272 311.172 288.5L311.21 281.307Z" fill="#C7C7C7"/>
<path d="M314.92 302.296C314.92 302.296 313.921 298.442 317.898 291.649C321.875 284.856 324.558 280.86 324.558 280.86C324.558 280.86 329.572 289.004 325.976 295.712C323.291 300.466 320.21 304.986 316.766 309.222L314.92 302.296Z" fill="#C7C7C7"/>
<path d="M325.575 181.218C325.294 185.365 324.785 189.494 324.052 193.586C321.845 204.956 316.346 212.301 314.138 222.576C311.931 232.851 318.258 246.086 316.565 259.291C314.871 272.497 309.733 279.823 311.208 288.633C312.683 297.443 320.408 321.286 320.408 321.286" stroke="#263238" stroke-width="0.5" stroke-linecap="round" stroke-linejoin="round"/>
<path d="M324.672 191.655L330.675 187.05" stroke="#263238" stroke-width="0.5" stroke-linecap="round" stroke-linejoin="round"/>
<path d="M324.949 186.355L322.438 181.884" stroke="#263238" stroke-width="0.5" stroke-linecap="round" stroke-linejoin="round"/>
<path d="M314.473 222.091C314.473 222.091 319.496 218.285 324.662 214.555" stroke="#263238" stroke-width="0.5" stroke-linecap="round" stroke-linejoin="round"/>
<path d="M316.985 214.251C316.985 214.251 312.798 206.04 308.051 200.598" stroke="#263238" stroke-width="0.5" stroke-linecap="round" stroke-linejoin="round"/>
<path d="M316.984 256.018C319.856 250.742 323.477 245.909 327.735 241.671" stroke="#263238" stroke-width="0.5" stroke-linecap="round" stroke-linejoin="round"/>
<path d="M316.016 261.651C314.486 258.063 312.662 254.607 310.564 251.318C307.633 246.989 307.215 246.428 307.215 246.428" stroke="#263238" stroke-width="0.5" stroke-linecap="round" stroke-linejoin="round"/>
<path d="M311.211 288.624C312.479 285.461 313.99 282.401 315.73 279.471C317.469 276.752 319.433 274.184 321.6 271.793" stroke="#263238" stroke-width="0.5" stroke-linecap="round" stroke-linejoin="round"/>
<path d="M316.735 309.222C316.444 306.204 316.962 303.163 318.239 300.412C320.332 296.359 322.71 291.059 323.69 288.995" stroke="#263238" stroke-width="0.5" stroke-linecap="round" stroke-linejoin="round"/>
<path d="M288.593 235.392C288.593 235.392 288.165 232.899 291.047 228.798C293.93 224.698 295.805 222.319 295.805 222.319C295.805 222.319 298.545 227.752 295.909 231.833C293.953 234.706 291.757 237.408 289.344 239.911L288.593 235.392Z" fill="#C7C7C7"/>
<path d="M296.358 250.101C296.358 250.101 295.93 247.598 298.822 243.507C301.715 239.416 303.58 237.018 303.58 237.018C303.58 237.018 306.32 242.461 303.675 246.533C301.716 249.404 299.52 252.106 297.11 254.61L296.358 250.101Z" fill="#C7C7C7"/>
<path d="M289.545 239.606C289.545 239.606 288.86 237.171 284.474 234.726C280.088 232.28 277.348 230.967 277.348 230.967C277.348 230.967 277.243 237.057 281.372 239.53C284.386 241.269 287.54 242.752 290.801 243.964L289.545 239.606Z" fill="#C7C7C7"/>
<path d="M298.86 256.951C298.86 256.951 297.909 254.601 293.304 252.631C288.699 250.662 285.816 249.634 285.816 249.634C285.816 249.634 286.349 255.704 290.726 257.76C293.903 259.172 297.194 260.315 300.563 261.175L298.86 256.951Z" fill="#C7C7C7"/>
<path d="M301.182 277.207C301.182 277.207 300.754 274.714 296.653 271.822C292.552 268.929 289.993 267.331 289.993 267.331C289.993 267.331 289.241 273.372 293.085 276.303C295.898 278.346 298.877 280.15 301.99 281.697L301.182 277.207Z" fill="#C7C7C7"/>
<path d="M302.086 282.097C302.086 282.097 301.306 279.69 303.58 275.218C305.854 270.746 307.386 268.121 307.386 268.121C307.386 268.121 310.868 273.116 308.832 277.502C307.3 280.624 305.508 283.613 303.475 286.435L302.086 282.097Z" fill="#C7C7C7"/>
<path d="M309.078 302.22C309.078 302.22 309.364 299.708 313.293 296.587C317.223 293.466 319.715 291.716 319.715 291.716C319.715 291.716 320.81 297.71 317.137 300.85C314.453 303.053 311.589 305.026 308.574 306.748L309.078 302.22Z" fill="#C7C7C7"/>
<path d="M308.041 296.016C308.041 296.016 307.613 293.524 303.512 290.631C299.411 287.739 296.852 286.131 296.852 286.131C296.852 286.131 296.101 292.173 299.954 295.112C302.763 297.156 305.739 298.961 308.85 300.507L308.041 296.016Z" fill="#C7C7C7"/>
<path d="M308.043 309.574C308.043 309.574 308.252 307.053 305.017 303.219C301.782 299.384 299.689 297.177 299.689 297.177C299.689 297.177 297.434 302.828 300.412 306.691C302.614 309.38 305.036 311.882 307.652 314.169L308.043 309.574Z" fill="#C7C7C7"/>
<path d="M288.164 234.811C288.79 237.389 289.558 239.93 290.467 242.423C293.083 249.311 297.326 253.316 299.829 259.548C302.331 265.78 299.829 274.771 302.283 282.839C304.738 290.907 308.8 294.97 308.838 300.659C308.877 306.349 306.631 322.133 306.631 322.133" stroke="#263238" stroke-width="0.5" stroke-linecap="round" stroke-linejoin="round"/>
<path d="M289.877 241.252L285.605 239.017" stroke="#263238" stroke-width="0.5" stroke-linecap="round" stroke-linejoin="round"/>
<path d="M289.125 237.96L290.21 234.887" stroke="#263238" stroke-width="0.5" stroke-linecap="round" stroke-linejoin="round"/>
<path d="M299.563 259.234C299.563 259.234 296.005 257.417 292.352 255.609" stroke="#263238" stroke-width="0.5" stroke-linecap="round" stroke-linejoin="round"/>
<path d="M297.137 254.591C298.182 251.288 299.562 248.1 301.256 245.077" stroke="#263238" stroke-width="0.5" stroke-linecap="round" stroke-linejoin="round"/>
<path d="M301.677 280.784C299.302 277.78 296.505 275.136 293.371 272.935" stroke="#263238" stroke-width="0.5" stroke-linecap="round" stroke-linejoin="round"/>
<path d="M302.895 284.181C303.46 281.764 304.227 279.4 305.187 277.112C306.558 274.076 306.757 273.677 306.757 273.677" stroke="#263238" stroke-width="0.5" stroke-linecap="round" stroke-linejoin="round"/>
<path d="M308.641 304.912C310.03 303.198 311.564 301.606 313.226 300.155C314.288 299.375 315.284 298.509 316.204 297.567" stroke="#263238" stroke-width="0.5" stroke-linecap="round" stroke-linejoin="round"/>
<path d="M308.839 300.602C307.707 298.757 306.435 297.001 305.033 295.35C303.647 293.837 302.138 292.44 300.523 291.174" stroke="#263238" stroke-width="0.5" stroke-linecap="round" stroke-linejoin="round"/>
<path d="M307.602 314.122C307.46 312.195 306.803 310.342 305.699 308.756C303.949 306.444 301.894 303.371 301.047 302.172" stroke="#263238" stroke-width="0.5" stroke-linecap="round" stroke-linejoin="round"/>
<path d="M295.254 319.317H331.693V346.622C331.693 347.379 331.393 348.105 330.857 348.641C330.322 349.176 329.596 349.477 328.839 349.477H298.146C297.389 349.477 296.663 349.176 296.128 348.641C295.593 348.105 295.292 347.379 295.292 346.622V319.317H295.254Z" fill="#263238"/>
<path d="M331.372 324.074H295.218C294.461 324.074 293.735 323.773 293.199 323.238C292.664 322.702 292.363 321.976 292.363 321.219C292.363 320.462 292.664 319.736 293.199 319.201C293.735 318.666 294.461 318.365 295.218 318.365H331.372C332.129 318.365 332.855 318.666 333.39 319.201C333.925 319.736 334.226 320.462 334.226 321.219C334.226 321.976 333.925 322.702 333.39 323.238C332.855 323.773 332.129 324.074 331.372 324.074Z" fill="#263238"/>
<path d="M262.059 70.0913C279.925 70.0913 294.408 55.6085 294.408 37.743C294.408 19.8774 279.925 5.39457 262.059 5.39457C244.194 5.39457 229.711 19.8774 229.711 37.743C229.711 55.6085 244.194 70.0913 262.059 70.0913Z" fill="#263238"/>
<path d="M272.613 63.7397C286.972 57.9149 293.891 41.5524 288.066 27.1932C282.241 12.8339 265.879 5.91539 251.519 11.7402C237.16 17.5651 230.242 33.9276 236.066 48.2868C241.891 62.6461 258.254 69.5646 272.613 63.7397Z" fill="white"/>
<path d="M243.859 42.9092L262.06 37.743V12.2924" stroke="#263238" stroke-width="2" stroke-miterlimit="10"/>
<path d="M105.105 182.369H69.5976L23.1016 57.5801H58.6087L105.105 182.369Z" fill="#263238"/>
<path opacity="0.2" d="M105.105 182.369H69.5976L23.1016 57.5801H58.6087L105.105 182.369Z" fill="white"/>
<path d="M49.122 88.0637H39.9883C39.3655 88.0264 38.7662 87.8124 38.2607 87.4468C37.7552 87.0811 37.3644 86.5789 37.134 85.9991L33.6042 76.5325C33.4818 76.3157 33.4202 76.0699 33.4262 75.821C33.4321 75.5721 33.5053 75.3295 33.6379 75.1188C33.7706 74.9081 33.9577 74.7373 34.1796 74.6243C34.4015 74.5114 34.6498 74.4606 34.8982 74.4774H44.0318C44.6529 74.5161 45.2504 74.7296 45.7554 75.0932C46.2604 75.4568 46.6524 75.9557 46.8861 76.5325L50.4159 85.9991C50.8345 87.1408 50.2637 88.0637 49.122 88.0637Z" fill="#263238"/>
<path d="M60.9682 63.8881H25.4516L23.1016 57.5801H58.6087L60.9682 63.8881Z" fill="#263238"/>
<path d="M37.582 64.9156L38.6001 67.6557" stroke="#263238" stroke-linecap="round" stroke-linejoin="round"/>
<path d="M38.9531 64.9156L39.9711 67.6557" stroke="#263238" stroke-linecap="round" stroke-linejoin="round"/>
<path d="M40.3242 64.9156L41.3422 67.6557" stroke="#263238" stroke-linecap="round" stroke-linejoin="round"/>
<path d="M41.6914 64.9156L42.7094 67.6557" stroke="#263238" stroke-linecap="round" stroke-linejoin="round"/>
<path d="M43.0625 64.9156L44.0805 67.6557" stroke="#263238" stroke-linecap="round" stroke-linejoin="round"/>
<path d="M44.4219 64.9156L45.4494 67.6557" stroke="#263238" stroke-linecap="round" stroke-linejoin="round"/>
<path d="M45.793 64.9156L46.811 67.6557" stroke="#263238" stroke-linecap="round" stroke-linejoin="round"/>
<path d="M47.1641 64.9156L48.1821 67.6557" stroke="#263238" stroke-linecap="round" stroke-linejoin="round"/>
<path d="M48.5312 64.9156L49.5493 67.6557" stroke="#263238" stroke-linecap="round" stroke-linejoin="round"/>
<path d="M49.9023 64.9156L50.9204 67.6557" stroke="#263238" stroke-linecap="round" stroke-linejoin="round"/>
<path d="M46.1642 82.1268L37.6013 76.6752C37.5216 76.6122 37.4254 76.5734 37.3243 76.5632C37.2231 76.5531 37.1212 76.5722 37.0305 76.6181C36.9575 76.6732 36.9081 76.7538 36.8922 76.8439C36.8763 76.9339 36.8951 77.0266 36.9449 77.1033L40.8838 85.5995C40.9354 85.7069 41.0098 85.8016 41.1018 85.8772C41.1938 85.9528 41.3012 86.0074 41.4166 86.0372H41.5498C41.6205 86.0426 41.6909 86.0239 41.7497 85.9842C41.8084 85.9445 41.852 85.886 41.8732 85.8184L42.8247 83.0212H46.2498C46.2942 83.0252 46.3389 83.0198 46.381 83.0053C46.4231 82.9907 46.4617 82.9674 46.4941 82.9368C46.5265 82.9062 46.552 82.869 46.5689 82.8278C46.5859 82.7866 46.5938 82.7422 46.5923 82.6977C46.5738 82.5745 46.525 82.4579 46.4503 82.3582C46.3756 82.2586 46.2772 82.1791 46.1642 82.1268Z" fill="white"/>
<path d="M45.9937 82.5074L37.4023 77.0558L41.3412 85.552L42.3117 82.5455L45.9937 82.5074Z" fill="#263238"/>
<path d="M62.0735 82.5074L53.4727 77.0558L57.4115 85.552L58.3915 82.5455L62.0735 82.5074Z" fill="white"/>
<path d="M66.4762 87.3406L65.696 85.59L64.6875 87.0647L66.4762 87.3406Z" fill="white"/>
<path d="M87.2574 143.104L86.4773 141.353L85.4688 142.828L87.2574 143.104Z" fill="white"/>
<path d="M93.6324 160.22L92.8523 158.469L91.8438 159.944L93.6324 160.22Z" fill="white"/>
<path d="M100.166 177.773L99.3952 176.023L98.3867 177.497L100.166 177.773Z" fill="white"/>
<path d="M63.5448 123.342L62.7741 121.592L61.7656 123.067L63.5448 123.342Z" fill="white"/>
<path d="M70.9098 143.104L70.1391 141.353L69.1211 142.828L70.9098 143.104Z" fill="white"/>
<path d="M77.287 160.22L76.5163 158.469L75.5078 159.944L77.287 160.22Z" fill="white"/>
<path d="M83.8316 177.773L83.0515 176.023L82.043 177.497L83.8316 177.773Z" fill="white"/>
<path d="M46.1641 106.112L47.6578 107.083L51.7679 98.5008L50.2742 97.5399L46.1641 106.112Z" fill="white"/>
<path d="M48.0101 97.7206C45.8314 96.0271 45.6791 95.6846 46.2119 93.7627C45.0893 95.304 44.7563 95.3326 42.4062 94.0767C44.585 95.7797 44.7372 96.1223 44.2044 98.0441C45.2891 96.5028 45.6221 96.4743 48.0101 97.7206Z" fill="white"/>
<path d="M55.1853 98.6435C53.8438 97.597 53.7487 97.3877 54.0722 96.1984C53.3776 97.1498 53.1778 97.1498 51.7031 96.3982C53.0446 97.4448 53.1398 97.6541 52.8068 98.8433C53.5013 97.8919 53.7106 97.8729 55.1853 98.6435Z" fill="white"/>
<path d="M54.7762 102.678C53.8248 101.926 53.7486 101.783 53.9865 100.936C53.4918 101.612 53.3395 101.622 52.293 101.07C53.2444 101.821 53.311 101.974 53.0826 102.82C53.5774 102.135 53.7201 102.126 54.7762 102.678Z" fill="white"/>
<path d="M76.332 140.706L77.2644 141.353L81.3651 132.781L80.4422 132.124L76.332 140.706Z" fill="white"/>
<path d="M72.901 103.905L65.3086 99.0907L68.7908 106.597L69.6471 103.943L72.901 103.905Z" fill="white"/>
<path d="M67.1819 104.352C64.4037 104.352 61.5304 102.706 60.7788 100.689C60.0272 98.6721 61.6827 97.0547 64.4799 97.0547C67.277 97.0547 70.1313 98.7006 70.8829 100.708C71.6346 102.716 69.9696 104.352 67.1819 104.352ZM64.6226 97.4733C62.0823 97.4733 60.56 98.9195 61.2165 100.689C61.873 102.459 64.4799 103.905 67.0202 103.905C69.5605 103.905 71.0922 102.468 70.4262 100.689C69.7603 98.9099 67.1629 97.4733 64.6226 97.4733Z" fill="white"/>
<path d="M63.8419 103.619C63.4697 103.592 63.1126 103.461 62.8114 103.241C62.5102 103.02 62.2772 102.72 62.1389 102.373C62.0651 102.242 62.028 102.093 62.0315 101.943C62.035 101.793 62.079 101.646 62.1588 101.518C62.2387 101.391 62.3514 101.287 62.4852 101.218C62.619 101.149 62.7688 101.118 62.919 101.127C63.2913 101.154 63.6484 101.285 63.9496 101.505C64.2507 101.726 64.4838 102.026 64.6221 102.373C64.6959 102.504 64.733 102.653 64.7295 102.803C64.726 102.954 64.682 103.1 64.6021 103.228C64.5223 103.356 64.4096 103.459 64.2758 103.528C64.142 103.597 63.9921 103.629 63.8419 103.619ZM63.0808 101.574C62.9837 101.566 62.8862 101.585 62.7991 101.628C62.7119 101.672 62.6383 101.738 62.5863 101.821C62.5343 101.903 62.5059 101.998 62.5042 102.095C62.5025 102.193 62.5275 102.289 62.5765 102.373C62.6646 102.599 62.8152 102.795 63.0107 102.938C63.2061 103.081 63.4384 103.166 63.6802 103.182C64.1178 103.182 64.3462 102.82 64.1844 102.373C64.093 102.15 63.9413 101.958 63.7463 101.816C63.5514 101.675 63.3209 101.591 63.0808 101.574Z" fill="white"/>
<path d="M63.9646 104.923L63.6602 104.504C63.8835 104.448 64.0857 104.328 64.2426 104.159C64.3996 103.99 64.5045 103.78 64.545 103.553C64.5574 103.172 64.4437 102.797 64.2215 102.487L64.583 102.335C64.876 102.745 65.0264 103.24 65.0112 103.743C64.9674 104.019 64.8456 104.277 64.6602 104.486C64.4747 104.695 64.2334 104.847 63.9646 104.923Z" fill="white"/>
<path d="M59.2095 117.291L53.9196 113.429L52.7969 115.217L58.0868 119.08L59.2095 117.291Z" fill="white"/>
<path d="M50.7208 122.286L51.5866 122.914L53.4894 119.832C53.3869 119.744 53.315 119.625 53.2842 119.493C53.2534 119.362 53.2653 119.224 53.3182 119.099C53.4609 118.861 53.851 118.861 54.1745 119.099C54.3202 119.181 54.4325 119.312 54.4916 119.469C54.5507 119.625 54.553 119.797 54.498 119.955C54.4134 120.052 54.2971 120.116 54.1699 120.135C54.0427 120.155 53.9128 120.128 53.8034 120.06L51.9006 123.143L52.7093 123.733L57.4664 122.382L57.7613 119.527L52.538 115.722L50.207 117.035L50.7208 122.286Z" fill="white"/>
<path d="M45.7188 110.175H76.288" stroke="#263238" stroke-linecap="round" stroke-linejoin="round"/>
<path d="M72.308 113.429L71.1758 115.217L76.4752 119.08L77.5979 117.291L72.308 113.429Z" fill="white"/>
<path d="M68.5508 117.035L69.1121 122.277L69.9779 122.905L71.8808 119.822C71.7782 119.734 71.7063 119.616 71.6755 119.484C71.6447 119.352 71.6567 119.214 71.7095 119.09C71.8522 118.852 72.2423 118.852 72.5658 119.09C72.7115 119.172 72.8238 119.303 72.8829 119.459C72.9421 119.616 72.9443 119.788 72.8893 119.946C72.8047 120.043 72.6885 120.107 72.5612 120.126C72.434 120.145 72.3041 120.118 72.1947 120.051L70.2919 123.133L71.1006 123.723L75.8577 122.372L76.1527 119.518L70.9293 115.712L68.5508 117.035Z" fill="white"/>
<path d="M67.2367 118.585C67.2938 118.214 67.3414 117.815 67.3794 117.368C67.4224 116.939 67.3779 116.507 67.2487 116.096C67.1195 115.686 66.9083 115.306 66.6278 114.979C66.0081 114.287 65.2021 113.789 64.3063 113.543C64.1636 113.543 64.0495 113.543 64.0685 113.714C64.0823 113.787 64.1165 113.854 64.1671 113.908C64.2176 113.962 64.2824 114 64.3539 114.019C65.0817 114.231 65.739 114.635 66.2567 115.189C66.4832 115.46 66.653 115.775 66.7559 116.113C66.8589 116.451 66.893 116.807 66.8561 117.158C66.8561 117.596 66.761 117.995 66.7134 118.357C66.4566 120.26 66.3043 121.402 69.4631 123.295C69.5131 123.331 69.5728 123.351 69.6343 123.352C69.6676 123.354 69.7006 123.345 69.7294 123.329C69.7581 123.312 69.7813 123.287 69.796 123.257C69.8075 123.187 69.7962 123.114 69.7636 123.051C69.7311 122.988 69.6791 122.936 69.6153 122.905C66.8847 121.259 66.9893 120.479 67.2367 118.585Z" fill="white"/>
<path d="M53.707 131.306L53.8973 131.801C54.168 132.565 54.4858 133.312 54.8487 134.036L55.7336 133.818C55.4863 133.323 55.2671 132.815 55.0771 132.295H58.8828L62.0415 140.782H60.6239L60.9949 141.733H64.8006L64.4296 140.782H63.0215L59.8437 132.257H63.5257L64.1822 134.046H65.1812L64.3344 131.763L64.1441 131.268L53.707 131.306Z" fill="white"/>
<path opacity="0.44" d="M73.5734 154.825C74.3917 157.013 72.622 158.783 69.5775 158.783C66.5329 158.783 63.4503 157.013 62.6416 154.825C61.8329 152.637 63.593 150.877 66.6376 150.877C69.6821 150.877 72.7647 152.646 73.5734 154.825Z" fill="white"/>
<path d="M73.5734 154.825C74.3917 157.013 72.622 158.783 69.5775 158.783C66.5329 158.783 63.4503 157.013 62.6416 154.825C61.8329 152.637 63.593 150.877 66.6376 150.877C69.6821 150.877 72.7647 152.646 73.5734 154.825Z" stroke="white" stroke-miterlimit="10"/>
<path d="M84.8281 154.939L88.415 148.422C88.4676 148.349 88.5343 148.288 88.6112 148.242C88.688 148.195 88.7735 148.165 88.8623 148.153C88.9512 148.14 89.0416 148.146 89.1283 148.169C89.2149 148.193 89.2959 148.233 89.3664 148.289C89.575 148.376 89.7507 148.527 89.8686 148.72C89.9865 148.913 90.0405 149.138 90.0229 149.364L88.1201 156.566L84.8281 154.939Z" fill="white"/>
<path d="M84.2393 155.491C85.6474 155.301 88.4065 156.509 88.4826 158.345C88.4705 158.546 88.4051 158.74 88.293 158.908C88.181 159.075 88.0264 159.209 87.8451 159.297C86.5873 159.864 85.205 160.1 83.8301 159.982C84.0077 159.844 84.1398 159.656 84.2093 159.442C84.2789 159.229 84.2827 158.999 84.2202 158.783C84.0304 158.257 83.8112 157.743 83.5637 157.242C83.3069 156.509 83.4401 155.529 84.2393 155.472" fill="white"/>
<path d="M76.7731 169.791C76.4772 169.11 76.0355 168.503 75.4792 168.012L74.3945 169.734C75.0359 170.287 75.5462 170.976 75.8883 171.751C76.2006 172.439 76.5631 173.104 76.9729 173.739L78.029 172.046C77.5462 171.332 77.126 170.577 76.7731 169.791Z" fill="white"/>
<path d="M75.5248 171.779C75.2209 171.101 74.7766 170.495 74.2213 170L73.1367 171.732C73.7795 172.286 74.2926 172.975 74.64 173.749C74.9482 174.438 75.3075 175.102 75.7151 175.737L76.7807 174.044C76.291 173.331 75.8705 172.572 75.5248 171.779Z" fill="white"/>
<path d="M77.1439 169.762C77.4521 170.451 77.8115 171.116 78.219 171.751L79.7793 169.258L76.2876 166.708L75.6406 167.736C76.2809 168.296 76.7935 168.987 77.1439 169.762Z" fill="white"/>
<path d="M74.2688 173.777C73.9729 173.097 73.5312 172.489 72.9749 171.998L72.0234 173.444L72.1852 176.727C72.192 176.785 72.2108 176.841 72.2403 176.892C72.2698 176.943 72.3094 176.987 72.3567 177.022C72.404 177.057 72.4579 177.081 72.5152 177.095C72.5724 177.108 72.6317 177.109 72.6894 177.098L75.4676 176.004C75.0049 175.297 74.6038 174.553 74.2688 173.777ZM73.0415 176.023L72.9558 174.272L74.5447 175.433L73.0415 176.023Z" fill="white"/>
<path d="M87.9783 171.342L86.7891 173.245L92.9353 177.726L94.1245 175.823L94.4956 176.099L97.3499 171.618L90.452 166.594L87.6454 171.075L87.9783 171.342ZM92.5261 176.641L87.8737 173.245L88.7205 171.884L93.3824 175.281L92.5261 176.641Z" fill="white"/>
<path d="M29.9509 59.2451L30.1792 59.854L29.3229 60.9006L30.9594 61.9472L31.1877 62.5561L28.6094 60.9006L29.9509 59.2451Z" fill="white"/>
<path d="M27.812 59.2451L28.0308 59.854L27.184 60.9006L28.8205 61.9472L29.0393 62.5561L26.4609 60.9006L27.812 59.2451Z" fill="white"/>
<path d="M173.893 132.419H100.434L77.9805 69.7774H151.44L173.893 132.419Z" fill="#263238"/>
<path d="M168.69 129.003H103.204L83.1953 73.193H148.682L168.69 129.003Z" fill="#FF6C37"/>
<path d="M156.235 94.267L145.408 86.2941L136.855 108.5L114.677 102.23L103.203 129.003H168.69L156.235 94.267Z" fill="white"/>
<path d="M111.097 85.1524C109.575 80.909 104.904 77.4649 100.632 77.4649C96.3598 77.4649 94.1811 80.909 95.7034 85.1524C97.2256 89.3957 101.897 92.8399 106.169 92.8399C110.441 92.8399 112.629 89.4433 111.097 85.1524Z" fill="white"/>
<path d="M181.503 121.63H108.043L85.5898 58.9977H159.049L181.503 121.63Z" fill="#263238"/>
<path d="M176.3 118.214H110.813L90.8047 62.4133H156.291L176.3 118.214Z" fill="#FF6C37"/>
<path d="M163.845 83.4779L153.018 75.5049L144.464 97.7207L122.287 91.4508L110.812 118.214H176.299L163.845 83.4779Z" fill="white"/>
<path d="M118.711 74.3727C117.188 70.1294 112.517 66.6852 108.245 66.6852C103.973 66.6852 101.794 70.1294 103.317 74.3727C104.839 78.6161 109.51 82.0602 113.782 82.0602C118.054 82.0602 120.242 78.6161 118.711 74.3727Z" fill="white"/>
<path d="M181.836 49.1695L183.596 53.4509H183.092C182.823 52.8748 182.488 52.332 182.093 51.8335C181.668 51.3481 181.146 50.9561 180.561 50.6823C179.942 50.4215 179.274 50.295 178.601 50.3113H176.023L181.132 64.2686C181.344 65.0466 181.732 65.7659 182.264 66.3713C182.773 66.762 183.402 66.9638 184.044 66.9421H184.681L184.862 67.4369H177.117L176.936 66.9421H177.583C178.354 66.9421 178.811 66.7043 178.963 66.2381C178.988 65.5571 178.844 64.8805 178.544 64.2686L173.435 50.3113H171.247C170.657 50.2792 170.066 50.3435 169.496 50.5015C169.295 50.5879 169.115 50.7181 168.97 50.8827C168.825 51.0473 168.719 51.2421 168.659 51.453C168.508 52.1043 168.551 52.7858 168.783 53.4129H168.269L166.918 49.1315L181.836 49.1695Z" fill="black"/>
<path d="M192.961 57.7704H198.555" stroke="#263238" stroke-width="0.5" stroke-miterlimit="10"/>
<path d="M198.372 72.5841H170.238L159.82 44.0984H187.954L198.372 72.5841Z" stroke="#263238" stroke-width="0.5" stroke-miterlimit="10"/>
<path d="M166.233 58.8265H164.13L163.359 56.7143H165.462L166.233 58.8265Z" fill="white" stroke="#263238" stroke-width="0.5" stroke-miterlimit="10"/>
<path d="M194.397 58.8265H192.294L191.523 56.7143H193.626L194.397 58.8265Z" fill="white" stroke="#263238" stroke-width="0.5" stroke-miterlimit="10"/>
<path d="M161.297 45.3068H159.185L158.414 43.2041H160.526L161.297 45.3068Z" fill="white" stroke="#263238" stroke-width="0.5" stroke-miterlimit="10"/>
<path d="M189.457 45.3068H187.345L186.574 43.2041H188.686L189.457 45.3068Z" fill="white" stroke="#263238" stroke-width="0.5" stroke-miterlimit="10"/>
<path d="M175.387 45.3068H173.275L172.504 43.2041H174.616L175.387 45.3068Z" fill="white" stroke="#263238" stroke-width="0.5" stroke-miterlimit="10"/>
<path d="M171.592 73.4689H169.489L168.719 71.3567H170.821L171.592 73.4689Z" fill="white" stroke="#263238" stroke-width="0.5" stroke-miterlimit="10"/>
<path d="M199.752 73.4689H197.65L196.879 71.3567H198.982L199.752 73.4689Z" fill="white" stroke="#263238" stroke-width="0.5" stroke-miterlimit="10"/>
<path d="M184.465 73.0883L186.51 78.6827" stroke="#263238" stroke-width="0.5" stroke-miterlimit="10"/>
<path d="M185.682 73.4689H183.579L182.809 71.3567H184.911L185.682 73.4689Z" fill="white" stroke="#263238" stroke-width="0.5" stroke-miterlimit="10"/>
<path d="M187.973 79.7293H185.861L185.09 77.6266H187.202L187.973 79.7293Z" fill="#263238"/>
<path d="M168.555 67.2371H192.179" stroke="#263238" stroke-width="0.5" stroke-miterlimit="10"/>
<path d="M199.658 57.7799C199.537 57.4705 199.33 57.2017 199.062 57.0047C198.795 56.8077 198.477 56.6905 198.145 56.6668C198.011 56.6585 197.877 56.6865 197.757 56.7478C197.637 56.8091 197.536 56.9015 197.464 57.0152C197.392 57.1289 197.352 57.2599 197.348 57.3944C197.344 57.5289 197.376 57.6621 197.441 57.7799C197.563 58.0882 197.77 58.3556 198.037 58.551C198.305 58.7464 198.623 58.8617 198.954 58.8836C199.088 58.8939 199.222 58.8677 199.342 58.8077C199.463 58.7477 199.564 58.6561 199.637 58.5428C199.709 58.4295 199.749 58.2987 199.753 58.1643C199.757 58.0299 199.724 57.8971 199.658 57.7799Z" fill="#263238"/>
<path opacity="0.2" d="M69.2734 208.828L94.7621 230.673L70.4722 349.524H72.1087L99.1291 232.861L123.885 253.611L88.9298 349.372L91.1181 349.01L127.891 255.8L230.207 349.01H292.468L219.655 206.278L69.2734 208.828Z" fill="black"/>
<path d="M72.1084 349.524H70.472L68.0078 206.801H74.5821L72.1084 349.524Z" fill="#263238" stroke="#263238" stroke-linecap="round" stroke-linejoin="round"/>
<path d="M213.739 349.524H212.103L209.629 206.801H216.203L213.739 349.524Z" fill="#263238" stroke="#263238" stroke-linecap="round" stroke-linejoin="round"/>
<path d="M223.775 204.594H65.4961V208.295H223.775V204.594Z" fill="white" stroke="#263238" stroke-linecap="round" stroke-linejoin="round"/>
<path d="M127.783 161.104C127.851 161.535 127.786 161.976 127.595 162.368C127.405 162.76 127.099 163.085 126.719 163.297C126.338 163.51 125.902 163.601 125.468 163.558C125.034 163.515 124.624 163.34 124.293 163.057C123.962 162.774 123.725 162.396 123.616 161.974C123.506 161.552 123.528 161.107 123.679 160.698C123.83 160.289 124.103 159.937 124.461 159.688C124.819 159.439 125.245 159.306 125.68 159.306C126.197 159.269 126.707 159.437 127.101 159.774C127.494 160.11 127.739 160.588 127.783 161.104Z" fill="#808080" stroke="#263238" stroke-linecap="round" stroke-linejoin="round"/>
<path d="M129.81 166.585C129.879 167.015 129.813 167.456 129.623 167.848C129.432 168.24 129.126 168.565 128.746 168.778C128.366 168.99 127.929 169.081 127.495 169.038C127.062 168.996 126.652 168.821 126.32 168.537C125.989 168.254 125.753 167.876 125.643 167.454C125.533 167.032 125.555 166.587 125.707 166.178C125.858 165.769 126.131 165.417 126.489 165.168C126.846 164.919 127.272 164.786 127.708 164.786C128.224 164.75 128.735 164.918 129.128 165.254C129.522 165.591 129.767 166.069 129.81 166.585Z" fill="#808080" stroke="#263238" stroke-linecap="round" stroke-linejoin="round"/>
<path d="M131.83 172.065C131.898 172.495 131.833 172.936 131.642 173.329C131.452 173.721 131.146 174.045 130.766 174.258C130.385 174.471 129.949 174.562 129.515 174.519C129.081 174.476 128.671 174.301 128.34 174.018C128.009 173.734 127.772 173.356 127.662 172.934C127.553 172.513 127.575 172.067 127.726 171.658C127.877 171.25 128.15 170.897 128.508 170.648C128.866 170.399 129.291 170.266 129.727 170.267C130.244 170.23 130.754 170.398 131.148 170.734C131.541 171.071 131.786 171.549 131.83 172.065Z" fill="#808080" stroke="#263238" stroke-linecap="round" stroke-linejoin="round"/>
<path d="M133.853 177.545C133.921 177.975 133.856 178.416 133.666 178.808C133.476 179.199 133.171 179.524 132.791 179.737C132.411 179.95 131.975 180.041 131.542 179.999C131.108 179.957 130.698 179.783 130.367 179.501C130.035 179.218 129.798 178.841 129.687 178.42C129.577 177.999 129.597 177.554 129.747 177.145C129.897 176.736 130.168 176.383 130.525 176.133C130.881 175.883 131.306 175.748 131.741 175.747C132.259 175.71 132.77 175.878 133.165 176.214C133.56 176.55 133.807 177.028 133.853 177.545Z" fill="#808080" stroke="#263238" stroke-linecap="round" stroke-linejoin="round"/>
<path d="M105.359 204.242H90.9449L88.7852 180.352H107.519L105.359 204.242Z" fill="#263238" stroke="#263238" stroke-linecap="round" stroke-linejoin="round"/>
<path d="M106.807 188.201L90.2617 196.64L90.9467 204.242H98.6628L106.141 195.641L106.807 188.201Z" fill="#407BFF" stroke="#263238" stroke-linecap="round" stroke-linejoin="round"/>
<path d="M109.194 177.497H87.1211V182.692H109.194V177.497Z" fill="#407BFF" stroke="#263238" stroke-linecap="round" stroke-linejoin="round"/>
<path d="M147.993 204.565H122.066C121.62 204.589 121.173 204.522 120.753 204.368C120.334 204.214 119.95 203.975 119.625 203.668C119.301 203.36 119.042 202.99 118.865 202.579C118.689 202.168 118.598 201.725 118.598 201.278C118.598 200.831 118.689 200.389 118.865 199.978C119.042 199.567 119.301 199.196 119.625 198.889C119.95 198.581 120.334 198.343 120.753 198.189C121.173 198.034 121.62 197.967 122.066 197.991H147.993C148.439 197.967 148.886 198.034 149.306 198.189C149.726 198.343 150.109 198.581 150.434 198.889C150.759 199.196 151.017 199.567 151.194 199.978C151.37 200.389 151.462 200.831 151.462 201.278C151.462 201.725 151.37 202.168 151.194 202.579C151.017 202.99 150.759 203.36 150.434 203.668C150.109 203.975 149.726 204.214 149.306 204.368C148.886 204.522 148.439 204.589 147.993 204.565Z" fill="#263238" stroke="#263238" stroke-linecap="round" stroke-linejoin="round"/>
<path d="M216.953 204.594H137.147L118.109 152.78H197.924L216.953 204.594Z" fill="#263238" stroke="#263238" stroke-linecap="round" stroke-linejoin="round"/>
<path d="M211.889 199.209H143.739L127.488 154.958H195.639L211.889 199.209Z" fill="#808080" stroke="#263238" stroke-linecap="round" stroke-linejoin="round"/>
<path d="M225.269 223.099C223.418 225.822 221.323 228.369 219.008 230.711C211.703 237.311 205.422 244.961 200.37 253.412C193.215 265.542 188.23 277.939 183.492 288.671C178.754 299.403 170.172 319.212 165.881 325.244C161.59 331.276 158.688 334.501 158.688 334.501C158.688 334.501 151.6 334.663 143.209 333.921C134.817 333.179 131.344 331.666 131.24 333.854C131.135 336.043 136.948 342.046 141.077 343.093C145.207 344.139 150.592 345.738 151.848 346.984C153.103 348.23 154.702 349.657 156.814 348.744C158.926 347.831 165.215 339.03 172.246 332.97C179.277 326.909 187.669 320.905 195.261 306.777C202.853 292.648 203.253 284.571 208.581 279.262C213.909 273.953 219.522 265.628 226.315 261.242C233.109 256.856 253.383 248.731 259.863 240.31C266.342 231.89 262.964 221.586 256.732 217.904C250.501 214.222 230.159 212.89 225.269 223.099Z" fill="#263238" stroke="#263238" stroke-linecap="round" stroke-linejoin="round"/>
<path d="M170.903 316.339C169.438 319.422 167.763 322.401 165.889 325.254C161.55 331.276 158.696 334.511 158.696 334.511C158.696 334.511 151.608 334.673 143.216 333.93C134.825 333.188 131.352 331.676 131.247 333.864C131.143 336.052 136.956 342.056 141.085 343.102C145.214 344.149 150.599 345.747 151.855 346.994C153.111 348.24 154.71 349.667 156.822 348.754C158.934 347.84 165.223 339.04 172.254 332.979C175.527 330.125 179.095 327.337 182.719 323.722C178.108 322.552 173.976 319.971 170.903 316.339Z" fill="white" stroke="#263238" stroke-linecap="round" stroke-linejoin="round"/>
<path d="M156.822 348.754C157.958 347.994 158.969 347.063 159.819 345.995C154.111 344.862 151.199 341.999 148.592 341.237C146.213 340.535 143.938 339.518 141.828 338.212L144.682 334.016L143.236 333.892C134.844 333.15 131.372 331.638 131.267 333.826C131.162 336.014 136.976 342.018 141.105 343.064C145.234 344.111 150.619 345.709 151.875 346.955C153.131 348.202 154.758 349.667 156.822 348.754Z" fill="#407BFF" stroke="#263238" stroke-linecap="round" stroke-linejoin="round"/>
<path d="M166.688 249.891C167.796 254.66 169.433 259.291 171.568 263.696C174.936 270.433 182.348 277.502 187.742 281.545C193.137 285.589 210.472 301.078 219.063 313.37C220.138 314.912 216.028 320.106 210.976 324.654C205.924 329.202 203.736 330.886 206.428 331.723C209.121 332.56 215.524 332.227 221.927 326.842C228.33 321.457 232.526 317.918 234.553 313.522C235.561 311.334 230.005 308.632 226.637 305.778C223.269 302.924 210.805 284.057 206.933 275.332C203.06 266.608 193.299 254.116 186.058 249.739" fill="#263238"/>
<path d="M166.688 249.891C167.796 254.66 169.433 259.291 171.568 263.696C174.936 270.433 182.348 277.502 187.742 281.545C193.137 285.589 210.472 301.078 219.063 313.37C220.138 314.912 216.028 320.106 210.976 324.654C205.924 329.202 203.736 330.886 206.428 331.723C209.121 332.56 215.524 332.227 221.927 326.842C228.33 321.457 232.526 317.918 234.553 313.522C235.561 311.334 230.005 308.632 226.637 305.778C223.269 302.924 210.805 284.057 206.933 275.332C203.06 266.608 193.299 254.116 186.058 249.739" stroke="#263238" stroke-linecap="round" stroke-linejoin="round"/>
<path d="M234.543 313.541C235.551 311.353 229.995 308.651 226.627 305.797C223.773 303.39 214.534 289.67 209.358 280.166L197.941 290.289C205.068 296.882 213.773 305.74 219.101 313.37C220.176 314.912 216.066 320.106 211.014 324.654C205.962 329.202 203.774 330.886 206.466 331.723C209.159 332.56 215.562 332.227 221.965 326.842C228.368 321.457 232.516 317.918 234.543 313.541Z" fill="white" stroke="#263238" stroke-linecap="round" stroke-linejoin="round"/>
<path d="M231.079 309.07C230.175 310.421 228.996 312.257 227.635 314.55C224.438 319.935 215.685 326.842 214.505 325.663C213.795 324.861 213.2 323.964 212.736 322.999C212.165 323.55 211.575 324.112 210.966 324.654C205.914 329.202 203.726 330.886 206.418 331.723C209.111 332.56 215.514 332.227 221.917 326.842C228.32 321.457 232.516 317.918 234.542 313.522C235.151 312.209 233.344 310.697 231.079 309.07Z" fill="#407BFF" stroke="#263238" stroke-linecap="round" stroke-linejoin="round"/>
<path d="M276.806 324.483H219.559V327.175H276.806V324.483Z" fill="white" stroke="#263238" stroke-linecap="round" stroke-linejoin="round"/>
<path d="M224.772 252.251L214.801 348.021C214.79 348.128 214.802 348.237 214.836 348.339C214.87 348.442 214.925 348.536 214.998 348.616C215.07 348.696 215.159 348.759 215.258 348.803C215.357 348.846 215.463 348.868 215.571 348.868C215.756 348.868 215.934 348.801 216.074 348.681C216.213 348.56 216.305 348.394 216.332 348.211L231.222 252.251H224.772Z" fill="white" stroke="#263238" stroke-linecap="round" stroke-linejoin="round"/>
<path d="M270.573 252.251L280.592 348.021C280.604 348.128 280.593 348.236 280.56 348.339C280.528 348.441 280.473 348.535 280.401 348.616C280.33 348.696 280.242 348.759 280.143 348.803C280.045 348.846 279.938 348.869 279.831 348.868C279.646 348.87 279.466 348.804 279.326 348.683C279.186 348.562 279.095 348.395 279.069 348.211L264.18 252.251H270.573Z" fill="white" stroke="#263238" stroke-linecap="round" stroke-linejoin="round"/>
<path d="M252.391 252.251L252.857 348.097C252.855 348.301 252.773 348.495 252.629 348.639C252.485 348.783 252.29 348.865 252.086 348.868C251.889 348.868 251.7 348.792 251.558 348.655C251.416 348.518 251.333 348.332 251.325 348.135L245.969 252.251H252.391Z" fill="white" stroke="#263238" stroke-linecap="round" stroke-linejoin="round"/>
<path d="M273.773 237.761H220.76C218.148 237.761 216.031 239.878 216.031 242.489V248.521C216.031 251.133 218.148 253.25 220.76 253.25H273.773C276.385 253.25 278.502 251.133 278.502 248.521V242.489C278.502 239.878 276.385 237.761 273.773 237.761Z" fill="#407BFF"/>
<mask id="mask0_1370_23117" style="mask-type:luminance" maskUnits="userSpaceOnUse" x="216" y="237" width="63" height="17">
<path d="M273.761 237.77H220.748C218.137 237.77 216.02 239.887 216.02 242.499V248.531C216.02 251.142 218.137 253.259 220.748 253.259H273.761C276.373 253.259 278.49 251.142 278.49 248.531V242.499C278.49 239.887 276.373 237.77 273.761 237.77Z" fill="white"/>
</mask>
<g mask="url(#mask0_1370_23117)">
<path opacity="0.2" d="M273.789 237.77H221.955L220.414 241.005C220.414 241.005 268.251 241.842 268.251 244.601C268.251 247.36 269.079 250.966 259.688 250.966C252.077 250.966 226.531 251.328 217.074 251.461C217.452 251.935 217.917 252.332 218.444 252.631L221.222 253.259H273.789C275.05 253.259 276.26 252.758 277.152 251.866C278.044 250.974 278.546 249.764 278.546 248.502V242.47C278.531 241.218 278.023 240.023 277.132 239.143C276.242 238.263 275.04 237.77 273.789 237.77Z" fill="black"/>
</g>
<path d="M273.773 237.761H220.76C218.148 237.761 216.031 239.878 216.031 242.489V248.521C216.031 251.133 218.148 253.25 220.76 253.25H273.773C276.385 253.25 278.502 251.133 278.502 248.521V242.489C278.502 239.878 276.385 237.761 273.773 237.761Z" stroke="#263238" stroke-linecap="round" stroke-linejoin="round"/>
<path d="M168.03 255.942C166.851 252.07 161.97 244.325 185.375 228.161C197.743 219.598 224.612 213.005 224.612 213.005L227.133 210.15C227.133 210.15 234.373 217.762 248.521 217.229C262.669 216.696 271.422 210.493 273.106 210.997C274.79 211.501 274.951 215.878 274.285 224.127C273.619 232.376 272.763 236.59 266.198 238.607C259.633 240.624 245.153 241.3 234.716 241.138C229.538 241.123 224.365 240.841 219.217 240.291C219.217 240.291 196.83 254.439 182.854 255.448" fill="#263238"/>
<path d="M168.03 255.942C166.851 252.07 161.97 244.325 185.375 228.161C197.743 219.598 224.612 213.005 224.612 213.005L227.133 210.15C227.133 210.15 234.373 217.762 248.521 217.229C262.669 216.696 271.422 210.493 273.106 210.997C274.79 211.501 274.951 215.878 274.285 224.127C273.619 232.376 272.763 236.59 266.198 238.607C259.633 240.624 245.153 241.3 234.716 241.138C229.538 241.123 224.365 240.841 219.217 240.291C219.217 240.291 196.83 254.439 182.854 255.448" stroke="#263238" stroke-linecap="round" stroke-linejoin="round"/>
<path d="M219.893 163.179C218.875 163.493 188.068 169.572 185.375 169.068C182.682 168.564 175.613 162.503 173.083 162.665C170.552 162.827 165.471 163.683 165.005 165.024C164.539 166.366 166.185 170.923 166.185 170.923C166.185 170.923 164.501 173.444 165.338 174.624C166.175 175.804 171.047 172.94 171.047 172.94C171.047 172.94 176.603 176.984 179.124 176.137C181.645 175.29 184.347 174.291 184.347 174.291C184.347 174.291 223.917 176.641 224.421 176.812C224.926 176.984 229.806 177.992 230.311 170.923C230.815 163.854 225.791 161.323 219.893 163.179Z" fill="white" stroke="#263238" stroke-linecap="round" stroke-linejoin="round"/>
<path d="M166.184 170.914L173.091 165.196" stroke="#263238" stroke-linecap="round" stroke-linejoin="round"/>
<path d="M168.707 168.392L172.418 156.775L173.93 157.108L172.075 165.529L168.707 168.392Z" fill="#263238"/>
<path d="M195.775 175.471C195.775 175.471 154.863 186.745 148.299 185.937C141.734 185.128 139.736 182.226 138.194 182.226C136.653 182.226 132.486 184.253 130.583 184.081C128.68 183.91 126.549 183.406 126.549 184.586C126.549 185.765 128.233 187.621 129.242 187.621C130.25 187.621 134.294 187.449 134.294 187.449C134.294 187.449 126.378 189.809 126.035 191.322C125.963 191.676 125.962 192.042 126.034 192.397C126.106 192.752 126.249 193.089 126.454 193.387C126.659 193.686 126.923 193.94 127.228 194.134C127.534 194.329 127.876 194.459 128.233 194.518C129.038 194.664 129.792 195.015 130.421 195.536C130.763 196.859 131.333 198.111 132.105 199.237C133.114 200.417 136.139 200.922 139.507 200.246C142.875 199.57 148.774 196.545 150.116 195.698C151.457 194.851 192.378 191.15 195.413 190.484C198.448 189.818 202.149 189.809 203.329 187.782C204.509 185.756 195.775 175.471 195.775 175.471Z" fill="white"/>
<mask id="mask1_1370_23117" style="mask-type:luminance" maskUnits="userSpaceOnUse" x="125" y="175" width="79" height="26">
<path d="M195.775 175.471C195.775 175.471 154.863 186.745 148.299 185.937C141.734 185.128 139.736 182.226 138.194 182.226C136.653 182.226 132.486 184.253 130.583 184.081C128.68 183.91 126.549 183.406 126.549 184.586C126.549 185.765 128.233 187.621 129.242 187.621C130.25 187.621 134.294 187.449 134.294 187.449C134.294 187.449 126.378 189.809 126.035 191.322C125.963 191.676 125.962 192.042 126.034 192.397C126.106 192.752 126.249 193.089 126.454 193.387C126.659 193.686 126.923 193.94 127.228 194.134C127.534 194.329 127.876 194.459 128.233 194.518C129.038 194.664 129.792 195.015 130.421 195.536C130.763 196.859 131.333 198.111 132.105 199.237C133.114 200.417 136.139 200.922 139.507 200.246C142.875 199.57 148.774 196.545 150.116 195.698C151.457 194.851 192.378 191.15 195.413 190.484C198.448 189.818 202.149 189.809 203.329 187.782C204.509 185.756 195.775 175.471 195.775 175.471Z" fill="white"/>
</mask>
<g mask="url(#mask1_1370_23117)">
<path d="M146.299 194.1C139.268 194.1 140.828 187.069 138.488 188.249C136.442 189.267 128.46 190.285 126.195 192.863C126.378 193.289 126.661 193.664 127.021 193.955C127.38 194.247 127.806 194.447 128.26 194.537C129.065 194.683 129.818 195.034 130.448 195.556C130.79 196.878 131.36 198.13 132.132 199.257C133.141 200.436 136.166 200.941 139.534 200.265C142.902 199.59 148.801 196.564 150.143 195.717C151.484 194.87 192.405 191.169 195.44 190.503C197.885 189.952 200.777 189.847 202.414 188.762L203.365 187.811L199.017 183.568C199.017 183.568 153.358 194.1 146.299 194.1Z" fill="#407BFF"/>
<path opacity="0.5" d="M146.299 194.1C139.268 194.1 140.828 187.069 138.488 188.249C136.442 189.267 128.46 190.285 126.195 192.863C126.378 193.289 126.661 193.664 127.021 193.955C127.38 194.247 127.806 194.447 128.26 194.537C129.065 194.683 129.818 195.034 130.448 195.556C130.79 196.878 131.36 198.13 132.132 199.257C133.141 200.436 136.166 200.941 139.534 200.265C142.902 199.59 148.801 196.564 150.143 195.717C151.484 194.87 192.405 191.169 195.44 190.503C197.885 189.952 200.777 189.847 202.414 188.762L203.365 187.811L199.017 183.568C199.017 183.568 153.358 194.1 146.299 194.1Z" fill="white"/>
</g>
<path d="M195.775 175.471C195.775 175.471 154.863 186.745 148.299 185.937C141.734 185.128 139.736 182.226 138.194 182.226C136.653 182.226 132.486 184.253 130.583 184.081C128.68 183.91 126.549 183.406 126.549 184.586C126.549 185.765 128.233 187.621 129.242 187.621C130.25 187.621 134.294 187.449 134.294 187.449C134.294 187.449 126.378 189.809 126.035 191.322C125.963 191.676 125.962 192.042 126.034 192.397C126.106 192.752 126.249 193.089 126.454 193.387C126.659 193.686 126.923 193.94 127.228 194.134C127.534 194.329 127.876 194.459 128.233 194.518C129.038 194.664 129.792 195.015 130.421 195.536C130.763 196.859 131.333 198.111 132.105 199.237C133.114 200.417 136.139 200.922 139.507 200.246C142.875 199.57 148.774 196.545 150.116 195.698C151.457 194.851 192.378 191.15 195.413 190.484C198.448 189.818 202.149 189.809 203.329 187.782C204.509 185.756 195.775 175.471 195.775 175.471Z" stroke="#263238" stroke-linecap="round" stroke-linejoin="round"/>
<path d="M230.329 134.217C230.329 134.217 226.628 144.312 221.918 151.048C217.209 157.784 215.182 164.863 218.208 172.436C219.013 174.603 220.293 176.563 221.954 178.171C223.615 179.78 225.615 180.996 227.808 181.731C227.808 181.731 225.448 203.957 226.124 209.855C226.799 215.754 235.885 222.652 249.529 223.175C263.172 223.699 274.951 218.799 274.951 214.08C274.951 209.361 265.36 184.281 265.36 179.058C265.36 173.835 266.197 157.508 261.65 142.904C257.102 128.299 241.108 123.438 230.329 134.217Z" fill="#407BFF"/>
<mask id="mask2_1370_23117" style="mask-type:luminance" maskUnits="userSpaceOnUse" x="216" y="128" width="59" height="96">
<path d="M230.329 134.217C230.329 134.217 226.628 144.312 221.918 151.048C217.209 157.784 215.182 164.863 218.208 172.436C219.013 174.603 220.293 176.563 221.954 178.171C223.615 179.78 225.615 180.996 227.808 181.731C227.808 181.731 225.448 203.957 226.124 209.855C226.799 215.754 235.885 222.652 249.529 223.175C263.172 223.699 274.951 218.799 274.951 214.08C274.951 209.361 265.36 184.281 265.36 179.058C265.36 173.835 266.197 157.508 261.65 142.904C257.102 128.299 241.108 123.438 230.329 134.217Z" fill="white"/>
</mask>
<g mask="url(#mask2_1370_23117)">
<path opacity="0.2" d="M261.65 142.799C259.205 134.912 253.43 129.907 246.941 128.651C243.811 129.346 235.258 131.344 233.127 131.848C232.13 132.559 231.194 133.351 230.33 134.217C230.33 134.217 226.629 144.312 221.919 151.048C218.751 155.567 216.81 160.239 216.781 165.1C229.207 168.04 248.178 172.826 246.275 173.359C243.545 174.139 231.833 167.888 235.344 171.798C238.854 175.709 257.607 193.681 252.136 192.102C246.665 190.522 234.563 177.65 237.694 183.901C240.824 190.151 249.406 200.303 246.675 200.303C243.944 200.303 229.492 185.851 234.563 194.442C239.634 203.034 262.678 216.706 255.257 218.656C250.975 219.779 241.889 219.484 236.618 220.369C240.711 222.067 245.081 222.999 249.51 223.118C263.144 223.622 274.932 218.742 274.932 214.023C274.932 209.304 265.342 184.224 265.342 179.001C265.342 173.777 266.179 157.451 261.65 142.799Z" fill="black"/>
</g>
<path d="M230.329 134.217C230.329 134.217 226.628 144.312 221.918 151.048C217.209 157.784 215.182 164.863 218.208 172.436C219.013 174.603 220.293 176.563 221.954 178.171C223.615 179.78 225.615 180.996 227.808 181.731C227.808 181.731 225.448 203.957 226.124 209.855C226.799 215.754 235.885 222.652 249.529 223.175C263.172 223.699 274.951 218.799 274.951 214.08C274.951 209.361 265.36 184.281 265.36 179.058C265.36 173.835 266.197 157.508 261.65 142.904C257.102 128.299 241.108 123.438 230.329 134.217Z" stroke="#263238" stroke-linecap="round" stroke-linejoin="round"/>
<path d="M232.402 175.071C232.402 175.071 244.771 195.051 262.848 200.76" stroke="#263238" stroke-linecap="round" stroke-linejoin="round"/>
<path d="M230.977 178.401C230.977 178.401 235.734 194.1 248.102 201.711" stroke="#263238" stroke-linecap="round" stroke-linejoin="round"/>
<path d="M233.527 165.824C233.527 165.824 244.707 160.952 249.292 157.803" stroke="#263238" stroke-linecap="round" stroke-linejoin="round"/>
<path d="M228.941 166.975C228.941 166.975 232.956 167.831 243.27 166.975" stroke="#263238" stroke-linecap="round" stroke-linejoin="round"/>
<path d="M229.32 136.739C226.724 138.394 224.348 140.373 222.251 142.628C218.379 146.671 199.684 174.976 199.684 174.976C199.684 174.976 205.24 186.603 206.924 186.936C208.608 187.269 237.912 162.199 240.604 159.154C243.297 156.109 244.981 150.591 244.144 148.203" fill="#407BFF"/>
<mask id="mask3_1370_23117" style="mask-type:luminance" maskUnits="userSpaceOnUse" x="199" y="136" width="46" height="51">
<path d="M229.32 136.739C226.724 138.394 224.348 140.373 222.251 142.628C218.379 146.671 199.684 174.976 199.684 174.976C199.684 174.976 205.24 186.603 206.924 186.936C208.608 187.269 237.912 162.199 240.604 159.154C243.297 156.109 244.981 150.591 244.144 148.203" fill="white"/>
</mask>
<g mask="url(#mask3_1370_23117)">
<path opacity="0.2" d="M240.603 159.135C243.295 156.1 244.979 150.572 244.142 148.184L237.482 143.046L235.351 145.244C235.351 145.244 235.208 153.864 227.539 158.517C219.871 163.169 216.608 163.207 215.437 169.058C214.267 174.91 218.168 176.479 213.487 177.26C208.806 178.04 205.676 178.43 205.676 181.56C205.706 183.11 205.824 184.657 206.028 186.193C206.25 186.512 206.557 186.762 206.913 186.917C208.606 187.25 237.91 162.161 240.603 159.135Z" fill="black"/>
</g>
<path d="M229.32 136.739C226.724 138.394 224.348 140.373 222.251 142.628C218.379 146.671 199.684 174.976 199.684 174.976C199.684 174.976 205.24 186.603 206.924 186.936C208.608 187.269 237.912 162.199 240.604 159.154C243.297 156.109 244.981 150.591 244.144 148.203" stroke="#263238" stroke-linecap="round" stroke-linejoin="round"/>
<path d="M193.29 176.641C193.29 176.641 198.513 189.105 199.684 190.456C200.854 191.807 207.095 190.96 209.112 189.438C211.129 187.916 210.796 184.9 210.796 184.9C210.796 184.9 203.052 171.256 202.234 170.628C201.415 170 201.054 171.475 197.476 172.655C193.899 173.834 192.615 174.291 193.29 176.641Z" fill="white" stroke="#263238" stroke-linecap="round" stroke-linejoin="round"/>
<path d="M201.709 102.392C201.709 102.392 201.367 107.273 202.213 108.786C203.06 110.298 205.41 111.821 205.41 113.838C205.41 115.855 203.726 118.595 204.23 120.07C204.735 121.544 207.437 121.754 207.437 121.754C207.437 121.754 212.479 127.985 214.002 130.174C215.524 132.362 216.19 131.515 218.549 130.849C220.909 130.183 225.951 125.797 228.815 122.429C231.679 119.061 226.912 108.786 220.738 101.888C214.563 94.9901 205.239 95.1518 203.222 97.1308C201.205 99.1097 201.709 102.392 201.709 102.392Z" fill="white"/>
<mask id="mask4_1370_23117" style="mask-type:luminance" maskUnits="userSpaceOnUse" x="201" y="95" width="29" height="37">
<path d="M201.709 102.392C201.709 102.392 201.367 107.273 202.213 108.786C203.06 110.298 205.41 111.821 205.41 113.838C205.41 115.855 203.726 118.595 204.23 120.07C204.735 121.544 207.437 121.754 207.437 121.754C207.437 121.754 212.479 127.985 214.002 130.174C215.524 132.362 216.19 131.515 218.549 130.849C220.909 130.183 225.951 125.797 228.815 122.429C231.679 119.061 226.912 108.786 220.738 101.888C214.563 94.9901 205.239 95.1518 203.222 97.1308C201.205 99.1097 201.709 102.392 201.709 102.392Z" fill="white"/>
</mask>
<g mask="url(#mask4_1370_23117)">
<path d="M215.058 97.6731C214.277 101.479 213.497 108.015 215.838 112.439C219.358 119.099 222.089 122.591 220.138 128.062C219.786 129.013 219.425 129.888 219.073 130.649C221.584 129.574 226.151 125.559 228.815 122.429C231.669 119.061 226.912 108.786 220.738 101.888C219.144 100.118 217.213 98.6851 215.058 97.6731Z" fill="#407BFF"/>
<path opacity="0.5" d="M215.058 97.6731C214.277 101.479 213.497 108.015 215.838 112.439C219.358 119.099 222.089 122.591 220.138 128.062C219.786 129.013 219.425 129.888 219.073 130.649C221.584 129.574 226.151 125.559 228.815 122.429C231.669 119.061 226.912 108.786 220.738 101.888C219.144 100.118 217.213 98.6851 215.058 97.6731Z" fill="white"/>
<path d="M205.41 109.632C205.41 109.632 205.41 107.102 208.445 108.786" stroke="#263238" stroke-linecap="round" stroke-linejoin="round"/>
<path d="M207.57 111.973L207.97 114.304C207.97 114.304 209.816 114.941 211.176 112.534" stroke="#263238" stroke-linecap="round" stroke-linejoin="round"/>
</g>
<path d="M201.709 102.392C201.709 102.392 201.367 107.273 202.213 108.786C203.06 110.298 205.41 111.821 205.41 113.838C205.41 115.855 203.726 118.595 204.23 120.07C204.735 121.544 207.437 121.754 207.437 121.754C207.437 121.754 212.479 127.985 214.002 130.174C215.524 132.362 216.19 131.515 218.549 130.849C220.909 130.183 225.951 125.797 228.815 122.429C231.679 119.061 226.912 108.786 220.738 101.888C214.563 94.9901 205.239 95.1518 203.222 97.1308C201.205 99.1097 201.709 102.392 201.709 102.392Z" stroke="#263238" stroke-linecap="round" stroke-linejoin="round"/>
<path d="M196.488 94.9806V95.6561L196.184 103.905L205.27 105.085L207.296 101.545V105.418C210.1 105.183 212.92 105.586 215.545 106.597C219.922 108.281 225.478 120.241 225.145 125.122C224.812 130.002 220.597 131.011 221.101 138.442C221.606 145.872 232.88 153.236 241.443 148.527C250.006 143.817 251.385 137.747 254.915 138.927C258.445 140.107 263.839 147.347 267.207 137.072C270.575 126.796 269.063 120.241 261.147 111.821C253.231 103.401 247.009 104.076 245.991 97.3401C244.973 90.604 242.794 81.5084 235.525 76.4088C228.256 71.3092 217.848 71.0237 208.885 74.896C199.923 78.7683 196.488 90.604 196.488 94.9806Z" fill="#263238"/>
<mask id="mask5_1370_23117" style="mask-type:luminance" maskUnits="userSpaceOnUse" x="196" y="72" width="73" height="79">
<path d="M196.488 94.9806V95.6561L196.184 103.905L205.27 105.085L207.296 101.545V105.418C210.1 105.183 212.92 105.586 215.545 106.597C219.922 108.281 225.478 120.241 225.145 125.122C224.812 130.002 220.597 131.011 221.101 138.442C221.606 145.872 232.88 153.236 241.443 148.527C250.006 143.817 251.385 137.747 254.915 138.927C258.445 140.107 263.839 147.347 267.207 137.072C270.575 126.796 269.063 120.241 261.147 111.821C253.231 103.401 247.009 104.076 245.991 97.3401C244.973 90.604 242.794 81.5084 235.525 76.4088C228.256 71.3092 217.848 71.0237 208.885 74.896C199.923 78.7683 196.488 90.604 196.488 94.9806Z" fill="white"/>
</mask>
<g mask="url(#mask5_1370_23117)">
<path d="M201.549 98.8433C201.489 98.8522 201.428 98.8522 201.368 98.8433C200.417 98.6245 200.265 96.9405 200.17 92.8494C200.17 91.7838 200.122 90.6896 200.056 89.8143C200.056 89.7287 200.056 89.6526 200.056 89.5955C199.247 90.5469 197.534 94.5905 196.25 98.1583L195.355 97.8348C198.8 88.2445 199.922 88.3872 200.284 88.4443C200.94 88.5299 201.007 89.3957 201.035 89.7192C201.102 90.6135 201.131 91.7267 201.15 92.7923C201.15 94.4858 201.254 97.264 201.606 97.8443C202.066 97.3712 202.429 96.8118 202.672 96.1984C203.623 94.2194 204.575 93.3441 205.45 93.3441C206.573 93.3441 207.163 94.8854 207.581 95.9795C207.683 96.2496 207.8 96.5134 207.933 96.7692C208.352 96.8834 209.836 95.3706 210.626 94.5524L211.32 93.8484C211.48 93.6403 211.684 93.4707 211.918 93.3521C212.152 93.2336 212.409 93.1691 212.671 93.1633C213.204 93.249 213.461 93.7437 213.737 94.2575C213.989 94.8129 214.355 95.3089 214.812 95.7131C215.117 95.951 215.269 95.9129 215.335 95.9034C216.02 95.7322 216.848 93.8864 217.809 91.7552C218.028 91.251 218.266 90.7277 218.523 90.1759C218.78 89.624 219.265 88.7011 219.969 88.7677C220.854 88.8343 221.263 90.2234 221.872 92.3261C222.243 94.0046 222.886 95.6114 223.774 97.0832C223.993 97.3496 224.288 97.6541 224.564 97.6255C225.306 97.5018 226.125 95.304 226.619 93.9911C226.838 93.335 227.112 92.6985 227.437 92.0882C227.51 91.9347 227.624 91.8049 227.767 91.7139C227.91 91.6229 228.077 91.5746 228.246 91.5745C228.95 91.5745 229.435 92.5259 230.092 93.8198C230.587 94.7712 231.262 96.1127 231.824 96.3316C231.938 96.3791 231.976 96.3316 232.004 96.3316C232.375 96.1413 232.689 94.9139 232.956 93.934C233.18 92.8313 233.572 91.7694 234.116 90.7848C234.257 90.5539 234.445 90.3555 234.668 90.2029C234.891 90.0504 235.144 89.9471 235.41 89.8999C236.657 89.7001 238.046 90.7753 238.969 91.4983C238.921 91.0131 238.816 90.3471 238.731 89.7667C238.255 86.5985 238.122 85.0667 238.912 84.6291C239.283 84.4293 239.72 84.5434 240.215 84.9811C241.071 85.7909 241.884 86.6452 242.651 87.5404C244.392 89.5004 247.037 92.4498 248.102 92.1643C248.397 92.0882 248.559 91.6315 248.635 91.27L249.587 91.4603C249.387 92.4117 248.978 92.9255 248.369 93.0872C246.837 93.4868 244.753 91.3081 241.956 88.1779C241.198 87.2875 240.391 86.4395 239.54 85.6376C239.471 85.5713 239.394 85.5138 239.311 85.4663C239.245 86.8409 239.351 88.2184 239.625 89.567C239.968 91.8028 240.034 92.4212 239.625 92.6781C239.531 92.7403 239.42 92.7734 239.306 92.7734C239.193 92.7734 239.082 92.7403 238.988 92.6781C238.826 92.5639 238.617 92.4117 238.388 92.2214C237.637 91.6411 236.381 90.6801 235.534 90.8038C235.397 90.8288 235.268 90.8835 235.154 90.964C235.041 91.0446 234.946 91.149 234.878 91.27C234.398 92.1665 234.052 93.128 233.85 94.1243C233.479 95.5324 233.165 96.7502 232.413 97.1308C232.264 97.2004 232.102 97.2365 231.938 97.2365C231.773 97.2365 231.611 97.2004 231.462 97.1308C230.568 96.7787 229.892 95.4467 229.236 94.1718C228.976 93.5799 228.657 93.0157 228.284 92.4878C227.989 93.0597 227.741 93.6548 227.542 94.267C226.838 96.1698 226.039 98.301 224.735 98.5008C224.401 98.5228 224.066 98.4507 223.771 98.2926C223.475 98.1346 223.229 97.8969 223.061 97.6065C222.092 96.0516 221.393 94.3432 220.996 92.5544C220.787 91.552 220.421 90.5888 219.912 89.7002C219.722 89.9685 219.559 90.2554 219.426 90.5564C219.17 91.0987 218.932 91.6315 218.713 92.1263C217.524 94.7808 216.734 96.5314 215.592 96.8073C215.355 96.855 215.11 96.8463 214.877 96.7818C214.644 96.7173 214.43 96.599 214.251 96.4362C213.693 95.9531 213.245 95.3562 212.938 94.6856C212.84 94.4689 212.712 94.2671 212.557 94.0862C212.557 94.0862 212.405 94.0862 212.034 94.4953L211.349 95.1994C209.77 96.8168 208.761 97.7872 207.895 97.7206C207.751 97.7069 207.611 97.6604 207.488 97.5845C207.364 97.5087 207.259 97.4055 207.182 97.283C207.002 96.9809 206.853 96.6623 206.734 96.3316C206.468 95.6275 205.954 94.3241 205.441 94.305C205.288 94.305 204.651 94.4478 203.538 96.6265C202.719 98.1773 202.139 98.8433 201.549 98.8433Z" fill="#575757"/>
<path d="M220.512 137.072C220.512 137.072 222.871 128.29 225.269 131.078C227.666 133.865 229.331 134.722 229.55 132.362C229.769 130.002 229.55 126.577 231.91 129.793C234.269 133.009 240.044 136.215 240.473 131.287C240.901 126.358 241.548 119.718 244.335 123.152C247.123 126.587 249.473 129.146 249.692 127.215C249.911 125.283 251.833 123.79 252.689 125.93C253.545 128.071 254.192 130.221 254.83 125.293C255.467 120.365 252.47 115.008 255.686 116.292C258.902 117.577 260.443 121.858 260.443 119.508C260.443 117.158 256.58 114.361 260.015 115.217C263.449 116.074 263.868 118.224 264.296 116.939C264.724 115.655 262.393 112.648 265.371 112.648" stroke="#575757" stroke-miterlimit="10"/>
</g>
<path d="M196.488 94.9806V95.6561L196.184 103.905L205.27 105.085L207.296 101.545V105.418C210.1 105.183 212.92 105.586 215.545 106.597C219.922 108.281 225.478 120.241 225.145 125.122C224.812 130.002 220.597 131.011 221.101 138.442C221.606 145.872 232.88 153.236 241.443 148.527C250.006 143.817 251.385 137.747 254.915 138.927C258.445 140.107 263.839 147.347 267.207 137.072C270.575 126.796 269.063 120.241 261.147 111.821C253.231 103.401 247.009 104.076 245.991 97.3401C244.973 90.604 242.794 81.5084 235.525 76.4088C228.256 71.3092 217.848 71.0237 208.885 74.896C199.923 78.7683 196.488 90.604 196.488 94.9806Z" stroke="#263238" stroke-linecap="round" stroke-linejoin="round"/>
<path d="M0 349.524H348.164" stroke="#263238" stroke-miterlimit="10"/>
</g>
<defs>
<clipPath id="clip0_1370_23117">
<rect width="348.164" height="350" fill="white"/>
</clipPath>
</defs>
</svg>
