<svg width="500" height="373" viewBox="0 0 500 373" fill="none" xmlns="http://www.w3.org/2000/svg">
<g clip-path="url(#clip0_4253_26503)">
<path d="M500 327.45H0V327.7H500V327.45Z" fill="#EBEBEB"/>
<path d="M449.9 343.54H416.78V343.79H449.9V343.54Z" fill="#EBEBEB"/>
<path d="M331.22 346.26H322.53V346.51H331.22V346.26Z" fill="#EBEBEB"/>
<path d="M415.78 334.26H396.59V334.51H415.78V334.26Z" fill="#EBEBEB"/>
<path d="M95.65 335.94H52.46V336.19H95.65V335.94Z" fill="#EBEBEB"/>
<path d="M110.89 335.94H104.56V336.19H110.89V335.94Z" fill="#EBEBEB"/>
<path d="M225.15 340.16H131.47V340.41H225.15V340.16Z" fill="#EBEBEB"/>
<path d="M237 282.85H43.91C42.3973 282.847 40.9476 282.244 39.8789 281.174C38.8102 280.103 38.21 278.652 38.21 277.14V5.7098C38.2232 4.20583 38.8292 2.76778 39.8964 1.70802C40.9637 0.648263 42.406 0.0523811 43.91 0.0498047H237C238.514 0.0498047 239.967 0.651392 241.038 1.72223C242.108 2.79306 242.71 4.24542 242.71 5.7598V277.14C242.71 278.654 242.108 280.107 241.038 281.177C239.967 282.248 238.514 282.85 237 282.85ZM43.91 0.249805C42.4637 0.252454 41.0774 0.82887 40.0557 1.85253C39.0339 2.87619 38.46 4.26345 38.46 5.7098V277.14C38.46 278.586 39.0339 279.973 40.0557 280.997C41.0774 282.021 42.4637 282.597 43.91 282.6H237C238.447 282.597 239.835 282.021 240.858 280.998C241.881 279.974 242.457 278.587 242.46 277.14V5.7098C242.457 4.26253 241.881 2.8753 240.858 1.85192C239.835 0.828545 238.447 0.252449 237 0.249805H43.91Z" fill="#EBEBEB"/>
<path d="M453.31 282.85H260.21C258.696 282.847 257.246 282.245 256.175 281.174C255.105 280.104 254.503 278.653 254.5 277.14V5.7098C254.516 4.20492 255.124 2.76688 256.193 1.7074C257.262 0.647913 258.705 0.052353 260.21 0.0498047H453.31C454.812 0.0550092 456.252 0.652054 457.317 1.71153C458.382 2.77101 458.987 4.20756 459 5.7098V277.14C459 278.651 458.401 280.1 457.335 281.17C456.268 282.241 454.821 282.845 453.31 282.85ZM260.21 0.249805C258.763 0.252449 257.375 0.828545 256.352 1.85192C255.329 2.8753 254.753 4.26253 254.75 5.7098V277.14C254.753 278.587 255.329 279.974 256.352 280.998C257.375 282.021 258.763 282.597 260.21 282.6H453.31C454.757 282.597 456.145 282.021 457.168 280.998C458.191 279.974 458.767 278.587 458.77 277.14V5.7098C458.767 4.26253 458.191 2.8753 457.168 1.85192C456.145 0.828545 454.757 0.252449 453.31 0.249805H260.21Z" fill="#EBEBEB"/>
<path d="M415.37 209.24H387.65V236.96H415.37V209.24Z" fill="#E0E0E0"/>
<path d="M418.33 213.24H384.69V232.66H418.33V213.24Z" fill="#E0E0E0"/>
<path d="M408.78 197.09H394.24V206.03H408.78V197.09Z" fill="#E0E0E0"/>
<path d="M410.85 198.97H392.17V203.76H410.85V198.97Z" fill="#E0E0E0"/>
<path d="M422.01 209.24H418.26V212.99H422.01V209.24Z" fill="#E0E0E0"/>
<path d="M425.14 198.97H422.12V209.24H425.14V198.97Z" fill="#E0E0E0"/>
<path d="M422.01 220.67H418.18V224.5H422.01V220.67Z" fill="#E0E0E0"/>
<path d="M425.97 216.71H422.01V220.67H425.97V216.71Z" fill="#E0E0E0"/>
<path d="M429.84 211.12H425.97V216.71H429.84V211.12Z" fill="#E0E0E0"/>
<path d="M381.01 213H384.76V209.25H381.01V213Z" fill="#E0E0E0"/>
<path d="M377.88 209.24H380.9V198.97H377.88V209.24Z" fill="#E0E0E0"/>
<path d="M381.01 224.49H384.84V220.66H381.01V224.49Z" fill="#E0E0E0"/>
<path d="M377.05 220.67H381.01V216.71H377.05V220.67Z" fill="#E0E0E0"/>
<path d="M373.19 216.71H377.06V211.12H373.19V216.71Z" fill="#E0E0E0"/>
<path d="M384 240.56H387.75V236.81H384V240.56Z" fill="#E0E0E0"/>
<path d="M380.87 250.84H383.89V240.57H380.87V250.84Z" fill="#E0E0E0"/>
<path d="M380.97 230.54H384.8V226.71H380.97V230.54Z" fill="#E0E0E0"/>
<path d="M377.01 234.49H380.97V230.53H377.01V234.49Z" fill="#E0E0E0"/>
<path d="M373.15 240.09H377.02V234.5H373.15V240.09Z" fill="#E0E0E0"/>
<path d="M419.09 236.81H415.34V240.56H419.09V236.81Z" fill="#E0E0E0"/>
<path d="M422.22 240.56H419.2V250.83H422.22V240.56Z" fill="#E0E0E0"/>
<path d="M421.98 226.71H418.15V230.54H421.98V226.71Z" fill="#E0E0E0"/>
<path d="M425.93 230.53H421.97V234.49H425.93V230.53Z" fill="#E0E0E0"/>
<path d="M429.87 234.49H426V240.08H429.87V234.49Z" fill="#E0E0E0"/>
<path d="M249.7 103.3H221.98V131.02H249.7V103.3Z" fill="#E0E0E0"/>
<path d="M252.67 107.3H219.03V126.72H252.67V107.3Z" fill="#E0E0E0"/>
<path d="M243.11 91.1396H228.57V100.08H243.11V91.1396Z" fill="#E0E0E0"/>
<path d="M245.18 93.02H226.5V97.81H245.18V93.02Z" fill="#E0E0E0"/>
<path d="M256.34 103.3H252.59V107.05H256.34V103.3Z" fill="#E0E0E0"/>
<path d="M259.48 93.02H256.46V103.29H259.48V93.02Z" fill="#E0E0E0"/>
<path d="M256.35 114.72H252.52V118.55H256.35V114.72Z" fill="#E0E0E0"/>
<path d="M260.3 110.77H256.34V114.73H260.3V110.77Z" fill="#E0E0E0"/>
<path d="M264.17 105.17H260.3V110.76H264.17V105.17Z" fill="#E0E0E0"/>
<path d="M215.35 107.05H219.1V103.3H215.35V107.05Z" fill="#E0E0E0"/>
<path d="M212.21 103.29H215.23V93.02H212.21V103.29Z" fill="#E0E0E0"/>
<path d="M215.34 118.55H219.17V114.72H215.34V118.55Z" fill="#E0E0E0"/>
<path d="M211.38 114.72H215.34V110.76H211.38V114.72Z" fill="#E0E0E0"/>
<path d="M207.52 110.76H211.39V105.17H207.52V110.76Z" fill="#E0E0E0"/>
<path d="M218.34 134.61H222.09V130.86H218.34V134.61Z" fill="#E0E0E0"/>
<path d="M215.2 144.89H218.22V134.62H215.2V144.89Z" fill="#E0E0E0"/>
<path d="M215.3 124.59H219.13V120.76H215.3V124.59Z" fill="#E0E0E0"/>
<path d="M211.35 128.55H215.31V124.59H211.35V128.55Z" fill="#E0E0E0"/>
<path d="M207.48 134.14H211.35V128.55H207.48V134.14Z" fill="#E0E0E0"/>
<path d="M253.42 130.86H249.67V134.61H253.42V130.86Z" fill="#E0E0E0"/>
<path d="M256.56 134.62H253.54V144.89H256.56V134.62Z" fill="#E0E0E0"/>
<path d="M256.31 120.76H252.48V124.59H256.31V120.76Z" fill="#E0E0E0"/>
<path d="M260.27 124.59H256.31V128.55H260.27V124.59Z" fill="#E0E0E0"/>
<path d="M264.21 128.55H260.34V134.14H264.21V128.55Z" fill="#E0E0E0"/>
<path d="M240.62 21.3799H223.2V38.7999H240.62V21.3799Z" fill="#F0F0F0"/>
<path d="M242.48 23.8896H221.35V36.0896H242.48V23.8896Z" fill="#F0F0F0"/>
<path d="M236.47 13.7397H227.34V19.3597H236.47V13.7397Z" fill="#F0F0F0"/>
<path d="M237.77 14.9297H226.04V17.9397H237.77V14.9297Z" fill="#F0F0F0"/>
<path d="M244.79 21.3799H242.43V23.7399H244.79V21.3799Z" fill="#F0F0F0"/>
<path d="M246.76 14.9297H244.86V21.3797H246.76V14.9297Z" fill="#F0F0F0"/>
<path d="M244.78 28.5596H242.38V30.9596H244.78V28.5596Z" fill="#F0F0F0"/>
<path d="M247.27 26.0698H244.79V28.5498H247.27V26.0698Z" fill="#F0F0F0"/>
<path d="M249.7 22.5596H247.27V26.0696H249.7V22.5596Z" fill="#F0F0F0"/>
<path d="M219.03 23.7397H221.39V21.3797H219.03V23.7397Z" fill="#F0F0F0"/>
<path d="M217.06 21.3799H218.96V14.9299H217.06V21.3799Z" fill="#F0F0F0"/>
<path d="M219.04 30.96H221.44V28.56H219.04V30.96Z" fill="#F0F0F0"/>
<path d="M216.55 28.5498H219.03V26.0698H216.55V28.5498Z" fill="#F0F0F0"/>
<path d="M214.12 26.0698H216.55V22.5598H214.12V26.0698Z" fill="#F0F0F0"/>
<path d="M220.91 41.0498H223.27V38.6898H220.91V41.0498Z" fill="#F0F0F0"/>
<path d="M218.94 47.5H220.84V41.05H218.94V47.5Z" fill="#F0F0F0"/>
<path d="M219.02 34.7598H221.42V32.3598H219.02V34.7598Z" fill="#F0F0F0"/>
<path d="M216.52 37.2397H219.01V34.7597H216.52V37.2397Z" fill="#F0F0F0"/>
<path d="M214.1 40.7598H216.53V37.2498H214.1V40.7598Z" fill="#F0F0F0"/>
<path d="M242.96 38.6997H240.6V41.0597H242.96V38.6997Z" fill="#F0F0F0"/>
<path d="M244.92 41.0498H243.02V47.4998H244.92V41.0498Z" fill="#F0F0F0"/>
<path d="M244.76 32.3496H242.36V34.7496H244.76V32.3496Z" fill="#F0F0F0"/>
<path d="M247.25 34.7598H244.76V37.2398H247.25V34.7598Z" fill="#F0F0F0"/>
<path d="M249.72 37.2397H247.29V40.7497H249.72V37.2397Z" fill="#F0F0F0"/>
<path d="M78.84 29.02H68.03V39.83H78.84V29.02Z" fill="#F0F0F0"/>
<path d="M79.99 30.5796H66.88V38.1496H79.99V30.5796Z" fill="#F0F0F0"/>
<path d="M76.27 24.2798H70.6V27.7698H76.27V24.2798Z" fill="#F0F0F0"/>
<path d="M77.07 25.02H69.79V26.89H77.07V25.02Z" fill="#F0F0F0"/>
<path d="M81.42 29.02H79.96V30.48H81.42V29.02Z" fill="#F0F0F0"/>
<path d="M82.65 25.02H81.47V29.02H82.65V25.02Z" fill="#F0F0F0"/>
<path d="M81.42 33.4697H79.93V34.9597H81.42V33.4697Z" fill="#F0F0F0"/>
<path d="M82.96 31.9297H81.42V33.4697H82.96V31.9297Z" fill="#F0F0F0"/>
<path d="M84.47 29.75H82.96V31.93H84.47V29.75Z" fill="#F0F0F0"/>
<path d="M65.44 30.48H66.9V29.02H65.44V30.48Z" fill="#F0F0F0"/>
<path d="M64.21 29.02H65.39V25.02H64.21V29.02Z" fill="#F0F0F0"/>
<path d="M65.44 34.96H66.93V33.47H65.44V34.96Z" fill="#F0F0F0"/>
<path d="M63.9 33.48H65.44V31.94H63.9V33.48Z" fill="#F0F0F0"/>
<path d="M62.39 31.9297H63.9V29.7497H62.39V31.9297Z" fill="#F0F0F0"/>
<path d="M66.6 41.2197H68.06V39.7597H66.6V41.2197Z" fill="#F0F0F0"/>
<path d="M65.38 45.23H66.56V41.23H65.38V45.23Z" fill="#F0F0F0"/>
<path d="M65.42 37.3198H66.91V35.8298H65.42V37.3198Z" fill="#F0F0F0"/>
<path d="M63.89 38.8599H65.43V37.3199H63.89V38.8599Z" fill="#F0F0F0"/>
<path d="M62.37 41.04H63.88V38.86H62.37V41.04Z" fill="#F0F0F0"/>
<path d="M80.28 39.7598H78.82V41.2198H80.28V39.7598Z" fill="#F0F0F0"/>
<path d="M81.51 41.23H80.33V45.23H81.51V41.23Z" fill="#F0F0F0"/>
<path d="M81.41 35.8296H79.92V37.3196H81.41V35.8296Z" fill="#F0F0F0"/>
<path d="M82.95 37.3198H81.41V38.8598H82.95V37.3198Z" fill="#F0F0F0"/>
<path d="M84.49 38.8599H82.98V41.0399H84.49V38.8599Z" fill="#F0F0F0"/>
<path d="M85.8 131.26H48.56V157.74H85.8V131.26Z" fill="#E0E0E0"/>
<path d="M82.46 129.21H51.9V159.77H82.46V129.21Z" fill="#E0E0E0"/>
<path d="M56.44 120.36H52.37V127.63H56.44V120.36Z" fill="#E0E0E0"/>
<path d="M81.99 120.36H77.92V127.63H81.99V120.36Z" fill="#E0E0E0"/>
<path d="M77.91 116.34H56.44V120.54H77.91V116.34Z" fill="#E0E0E0"/>
<path d="M71.66 138.42H62.7V144.49H71.66V138.42Z" fill="#FAFAFA"/>
<path d="M68.78 142.29H65.57V151.61H68.78V142.29Z" fill="#FAFAFA"/>
<path d="M349.43 54.8096H312.19V81.2896H349.43V54.8096Z" fill="#E0E0E0"/>
<path d="M346.09 52.7598H315.53V83.3198H346.09V52.7598Z" fill="#E0E0E0"/>
<path d="M320.08 43.9097H316.01V51.1797H320.08V43.9097Z" fill="#E0E0E0"/>
<path d="M345.62 43.9097H341.55V51.1797H345.62V43.9097Z" fill="#E0E0E0"/>
<path d="M341.55 39.8896H320.08V44.0896H341.55V39.8896Z" fill="#E0E0E0"/>
<path d="M335.29 61.98H326.33V68.05H335.29V61.98Z" fill="#FAFAFA"/>
<path d="M332.41 65.8496H329.2V75.1696H332.41V65.8496Z" fill="#FAFAFA"/>
<path d="M350.71 269.82H313.47V296.3H350.71V269.82Z" fill="#E0E0E0"/>
<path d="M347.37 267.77H316.81V298.33H347.37V267.77Z" fill="#E0E0E0"/>
<path d="M321.36 258.92H317.29V266.19H321.36V258.92Z" fill="#E0E0E0"/>
<path d="M346.9 258.92H342.83V266.19H346.9V258.92Z" fill="#E0E0E0"/>
<path d="M342.83 254.9H321.36V259.1H342.83V254.9Z" fill="#E0E0E0"/>
<path d="M336.57 276.98H327.61V283.05H336.57V276.98Z" fill="#FAFAFA"/>
<path d="M333.7 280.85H330.49V290.17H333.7V280.85Z" fill="#FAFAFA"/>
<path d="M319.14 180.33H298.91V194.71H319.14V180.33Z" fill="#F0F0F0"/>
<path d="M317.32 179.22H300.72V195.82H317.32V179.22Z" fill="#F0F0F0"/>
<path d="M303.19 174.41H300.98V178.36H303.19V174.41Z" fill="#F0F0F0"/>
<path d="M317.06 174.41H314.85V178.36H317.06V174.41Z" fill="#F0F0F0"/>
<path d="M314.85 172.22H303.19V174.5H314.85V172.22Z" fill="#F0F0F0"/>
<path d="M311.46 184.22H306.59V187.52H311.46V184.22Z" fill="white"/>
<path d="M309.9 186.32H308.15V191.38H309.9V186.32Z" fill="white"/>
<path d="M165.38 27.48H134.06V66.79H165.38V27.48Z" fill="#E0E0E0"/>
<path d="M171.86 29.48H127.59V51.4H171.86V29.48Z" fill="#E0E0E0"/>
<path d="M169.27 46.7798H130.17V60.4898H169.27V46.7798Z" fill="#E0E0E0"/>
<path d="M160.34 63.1396H139.1V70.5396H160.34V63.1396Z" fill="#E0E0E0"/>
<path d="M152.53 68.0796H146.9V74.0896H152.53V68.0796Z" fill="#E0E0E0"/>
<path d="M140.03 42.0498H135.32V46.7598H140.03V42.0498Z" fill="#FAFAFA"/>
<path d="M144.85 46.9399H140.03V51.7599H144.85V46.9399Z" fill="#FAFAFA"/>
<path d="M150.68 51.7598H144.86V56.0698H150.68V51.7598Z" fill="#FAFAFA"/>
<path d="M155.03 45.6597H150.68V51.7897H155.03V45.6597Z" fill="#FAFAFA"/>
<path d="M159.38 40.1099H155.03V45.6599H159.38V40.1099Z" fill="#FAFAFA"/>
<path d="M164.12 35.5H159.38V40.24H164.12V35.5Z" fill="#FAFAFA"/>
<path d="M431.94 38.5996H412.52V62.9696H431.94V38.5996Z" fill="#F0F0F0"/>
<path d="M435.95 39.8398H408.5V53.4298H435.95V39.8398Z" fill="#F0F0F0"/>
<path d="M434.35 50.5596H410.11V59.0596H434.35V50.5596Z" fill="#F0F0F0"/>
<path d="M428.81 60.71H415.64V65.3H428.81V60.71Z" fill="#F0F0F0"/>
<path d="M423.97 63.77H420.48V67.5H423.97V63.77Z" fill="#F0F0F0"/>
<path d="M416.22 47.6299H413.3V50.5499H416.22V47.6299Z" fill="white"/>
<path d="M419.21 50.6699H416.22V53.6599H419.21V50.6699Z" fill="white"/>
<path d="M422.82 53.6597H419.21V56.3297H422.82V53.6597Z" fill="white"/>
<path d="M425.52 49.8696H422.82V53.6696H425.52V49.8696Z" fill="white"/>
<path d="M428.22 46.4297H425.52V49.8697H428.22V46.4297Z" fill="white"/>
<path d="M431.16 43.5698H428.22V46.5098H431.16V43.5698Z" fill="white"/>
<path d="M264.09 268.85H250.42V286H264.09V268.85Z" fill="#F0F0F0"/>
<path d="M266.91 269.72H247.59V279.29H266.91V269.72Z" fill="#F0F0F0"/>
<path d="M265.78 277.27H248.72V283.25H265.78V277.27Z" fill="#F0F0F0"/>
<path d="M261.89 284.41H252.62V287.64H261.89V284.41Z" fill="#F0F0F0"/>
<path d="M258.48 286.57H256.02V289.19H258.48V286.57Z" fill="#F0F0F0"/>
<path d="M253.03 275.21H250.97V277.27H253.03V275.21Z" fill="white"/>
<path d="M255.12 277.34H253.02V279.44H255.12V277.34Z" fill="white"/>
<path d="M257.67 279.45H255.13V281.33H257.67V279.45Z" fill="white"/>
<path d="M259.57 276.78H257.67V279.46H259.57V276.78Z" fill="white"/>
<path d="M261.47 274.36H259.57V276.78H261.47V274.36Z" fill="white"/>
<path d="M263.54 272.35H261.47V274.42H263.54V272.35Z" fill="white"/>
<path d="M250 372.61C357.082 372.61 443.89 367.542 443.89 361.29C443.89 355.038 357.082 349.97 250 349.97C142.918 349.97 56.11 355.038 56.11 361.29C56.11 367.542 142.918 372.61 250 372.61Z" fill="#F5F5F5"/>
<path d="M445.49 85.6997H338.54C337.275 85.6997 336.25 86.725 336.25 87.9897V175.15C336.25 176.414 337.275 177.44 338.54 177.44H445.49C446.755 177.44 447.78 176.414 447.78 175.15V87.9897C447.78 86.725 446.755 85.6997 445.49 85.6997Z" fill="#407BFF"/>
<path opacity="0.6" d="M447.78 87.9897V175.15C447.78 175.757 447.539 176.34 447.109 176.769C446.68 177.198 446.097 177.44 445.49 177.44H338.54C337.933 177.44 337.35 177.198 336.921 176.769C336.491 176.34 336.25 175.757 336.25 175.15V87.9897C336.253 87.3832 336.495 86.8022 336.924 86.3734C337.353 85.9445 337.933 85.7023 338.54 85.6997H445.54C446.138 85.7153 446.706 85.9631 447.124 86.3906C447.542 86.8181 447.778 87.3917 447.78 87.9897Z" fill="white"/>
<path d="M445.4 95.02H338.62V174.86H445.4V95.02Z" fill="#263238"/>
<path opacity="0.5" d="M347.31 104.98C347.441 105.074 347.599 105.123 347.76 105.12C347.877 105.121 347.992 105.095 348.096 105.043C348.201 104.991 348.291 104.914 348.36 104.82C348.42 104.741 348.463 104.651 348.488 104.555C348.512 104.459 348.517 104.359 348.502 104.261C348.487 104.163 348.453 104.069 348.401 103.985C348.349 103.9 348.281 103.827 348.2 103.77L346 102.14L348.21 100.51C348.289 100.451 348.357 100.378 348.408 100.293C348.459 100.209 348.493 100.115 348.507 100.018C348.522 99.9205 348.518 99.821 348.494 99.7252C348.471 99.6295 348.428 99.5393 348.37 99.4598C348.312 99.3804 348.238 99.3132 348.154 99.2622C348.069 99.2112 347.976 99.1772 347.878 99.1624C347.781 99.1475 347.681 99.152 347.585 99.1756C347.49 99.1992 347.399 99.2414 347.32 99.2998L344.32 101.54C344.227 101.611 344.151 101.702 344.099 101.807C344.047 101.912 344.02 102.028 344.02 102.145C344.02 102.262 344.047 102.378 344.099 102.482C344.151 102.587 344.227 102.679 344.32 102.75L347.31 104.98Z" fill="white"/>
<path opacity="0.5" d="M357.47 102.13L355.26 103.77C355.109 103.884 355.008 104.051 354.978 104.238C354.949 104.424 354.992 104.615 355.1 104.77C355.169 104.865 355.259 104.943 355.363 104.997C355.467 105.05 355.583 105.079 355.7 105.08C355.862 105.079 356.02 105.027 356.15 104.93L359.15 102.69C359.245 102.622 359.322 102.531 359.376 102.427C359.429 102.323 359.457 102.207 359.457 102.09C359.457 101.973 359.429 101.858 359.376 101.753C359.322 101.649 359.245 101.559 359.15 101.49L356.15 99.2602C356.072 99.1909 355.981 99.1386 355.882 99.1066C355.783 99.0746 355.678 99.0636 355.574 99.0743C355.471 99.0849 355.371 99.117 355.28 99.1686C355.19 99.2201 355.111 99.2899 355.049 99.3735C354.987 99.4572 354.943 99.5528 354.92 99.6544C354.897 99.7559 354.895 99.8611 354.915 99.9634C354.935 100.066 354.976 100.163 355.035 100.248C355.095 100.334 355.171 100.406 355.26 100.46L357.47 102.13Z" fill="white"/>
<path opacity="0.5" d="M350.69 105.05C350.773 105.065 350.857 105.065 350.94 105.05C351.095 105.051 351.246 105.004 351.371 104.914C351.497 104.824 351.591 104.697 351.64 104.55L353.23 100.08C353.296 99.8916 353.285 99.6846 353.199 99.5046C353.113 99.3246 352.958 99.1862 352.77 99.1199C352.582 99.0536 352.375 99.0648 352.195 99.1511C352.015 99.2373 351.876 99.3916 351.81 99.5799L350.23 104.05C350.19 104.145 350.171 104.248 350.173 104.351C350.175 104.455 350.198 104.556 350.242 104.65C350.285 104.744 350.347 104.828 350.424 104.897C350.501 104.966 350.592 105.018 350.69 105.05Z" fill="white"/>
<path opacity="0.5" d="M363.2 105.37H367.15C367.415 105.37 367.67 105.265 367.857 105.077C368.045 104.89 368.15 104.635 368.15 104.37C368.15 104.105 368.045 103.851 367.857 103.663C367.67 103.475 367.415 103.37 367.15 103.37H363.2C362.935 103.37 362.68 103.475 362.493 103.663C362.305 103.851 362.2 104.105 362.2 104.37C362.2 104.635 362.305 104.89 362.493 105.077C362.68 105.265 362.935 105.37 363.2 105.37Z" fill="white"/>
<path opacity="0.5" d="M427.25 161.94H365.38C365.115 161.94 364.86 162.045 364.673 162.233C364.485 162.42 364.38 162.675 364.38 162.94C364.38 163.205 364.485 163.46 364.673 163.647C364.86 163.835 365.115 163.94 365.38 163.94H427.25C427.515 163.94 427.77 163.835 427.957 163.647C428.145 163.46 428.25 163.205 428.25 162.94C428.25 162.675 428.145 162.42 427.957 162.233C427.77 162.045 427.515 161.94 427.25 161.94Z" fill="white"/>
<path d="M440.84 161.94H433.19C432.925 161.94 432.67 162.045 432.483 162.233C432.295 162.42 432.19 162.675 432.19 162.94C432.19 163.205 432.295 163.46 432.483 163.647C432.67 163.835 432.925 163.94 433.19 163.94H440.84C441.105 163.94 441.36 163.835 441.547 163.647C441.735 163.46 441.84 163.205 441.84 162.94C441.84 162.675 441.735 162.42 441.547 162.233C441.36 162.045 441.105 161.94 440.84 161.94Z" fill="white"/>
<path d="M384 157.61H408.91C409.175 157.61 409.43 157.505 409.617 157.317C409.805 157.129 409.91 156.875 409.91 156.61C409.91 156.345 409.805 156.09 409.617 155.903C409.43 155.715 409.175 155.61 408.91 155.61H384C383.735 155.61 383.48 155.715 383.293 155.903C383.105 156.09 383 156.345 383 156.61C383 156.875 383.105 157.129 383.293 157.317C383.48 157.505 383.735 157.61 384 157.61Z" fill="white"/>
<path opacity="0.5" d="M427.25 157.61C427.515 157.61 427.77 157.505 427.957 157.317C428.145 157.129 428.25 156.875 428.25 156.61C428.25 156.345 428.145 156.09 427.957 155.903C427.77 155.715 427.515 155.61 427.25 155.61H413.12C412.855 155.61 412.6 155.715 412.413 155.903C412.225 156.09 412.12 156.345 412.12 156.61C412.12 156.875 412.225 157.129 412.413 157.317C412.6 157.505 412.855 157.61 413.12 157.61H427.25Z" fill="white"/>
<path opacity="0.5" d="M440.84 155.61H433.33C433.065 155.61 432.81 155.715 432.623 155.903C432.435 156.09 432.33 156.345 432.33 156.61C432.33 156.875 432.435 157.129 432.623 157.317C432.81 157.505 433.065 157.61 433.33 157.61H440.84C441.105 157.61 441.36 157.505 441.547 157.317C441.735 157.129 441.84 156.875 441.84 156.61C441.84 156.345 441.735 156.09 441.547 155.903C441.36 155.715 441.105 155.61 440.84 155.61Z" fill="white"/>
<path d="M427.35 149.28H394C393.735 149.28 393.48 149.385 393.293 149.573C393.105 149.76 393 150.015 393 150.28C393 150.545 393.105 150.799 393.293 150.987C393.48 151.174 393.735 151.28 394 151.28H427.32C427.585 151.28 427.84 151.174 428.027 150.987C428.215 150.799 428.32 150.545 428.32 150.28C428.32 150.015 428.215 149.76 428.027 149.573C427.84 149.385 427.585 149.28 427.32 149.28H427.35Z" fill="white"/>
<path d="M440.84 149.28H433.24C432.975 149.28 432.72 149.385 432.533 149.573C432.345 149.76 432.24 150.015 432.24 150.28C432.24 150.545 432.345 150.799 432.533 150.987C432.72 151.174 432.975 151.28 433.24 151.28H440.84C441.105 151.28 441.36 151.174 441.547 150.987C441.735 150.799 441.84 150.545 441.84 150.28C441.84 150.015 441.735 149.76 441.547 149.573C441.36 149.385 441.105 149.28 440.84 149.28Z" fill="white"/>
<path opacity="0.5" d="M409 143.95C409 143.684 408.895 143.43 408.707 143.243C408.52 143.055 408.265 142.95 408 142.95H374C373.735 142.95 373.48 143.055 373.293 143.243C373.105 143.43 373 143.684 373 143.95C373 144.215 373.105 144.469 373.293 144.657C373.48 144.844 373.735 144.95 374 144.95H408C408.265 144.95 408.52 144.844 408.707 144.657C408.895 144.469 409 144.215 409 143.95Z" fill="white"/>
<path opacity="0.5" d="M414.16 142.95C413.895 142.95 413.64 143.055 413.453 143.243C413.265 143.43 413.16 143.684 413.16 143.95C413.16 144.215 413.265 144.469 413.453 144.657C413.64 144.844 413.895 144.95 414.16 144.95H427.34C427.605 144.95 427.86 144.844 428.047 144.657C428.235 144.469 428.34 144.215 428.34 143.95C428.34 143.684 428.235 143.43 428.047 143.243C427.86 143.055 427.605 142.95 427.34 142.95H414.16Z" fill="white"/>
<path d="M440.84 142.95H433.33C433.065 142.95 432.81 143.055 432.623 143.243C432.435 143.43 432.33 143.684 432.33 143.95C432.33 144.215 432.435 144.469 432.623 144.657C432.81 144.844 433.065 144.95 433.33 144.95H440.84C441.105 144.95 441.36 144.844 441.547 144.657C441.735 144.469 441.84 144.215 441.84 143.95C441.84 143.684 441.735 143.43 441.547 143.243C441.36 143.055 441.105 142.95 440.84 142.95Z" fill="white"/>
<path d="M416 138.62H422.54C422.805 138.62 423.06 138.515 423.247 138.327C423.435 138.14 423.54 137.885 423.54 137.62C423.54 137.355 423.435 137.101 423.247 136.913C423.06 136.725 422.805 136.62 422.54 136.62H416C415.735 136.62 415.48 136.725 415.293 136.913C415.105 137.101 415 137.355 415 137.62C415 137.885 415.105 138.14 415.293 138.327C415.48 138.515 415.735 138.62 416 138.62Z" fill="white"/>
<path opacity="0.5" d="M427.22 138.62H440.84C441.105 138.62 441.36 138.515 441.547 138.327C441.735 138.14 441.84 137.885 441.84 137.62C441.84 137.355 441.735 137.101 441.547 136.913C441.36 136.725 441.105 136.62 440.84 136.62H427.22C426.955 136.62 426.7 136.725 426.513 136.913C426.325 137.101 426.22 137.355 426.22 137.62C426.22 137.885 426.325 138.14 426.513 138.327C426.7 138.515 426.955 138.62 427.22 138.62Z" fill="white"/>
<path d="M379.35 131.29C379.35 131.025 379.245 130.77 379.057 130.583C378.87 130.395 378.615 130.29 378.35 130.29H344C343.735 130.29 343.48 130.395 343.293 130.583C343.105 130.77 343 131.025 343 131.29C343 131.555 343.105 131.81 343.293 131.997C343.48 132.185 343.735 132.29 344 132.29H378.32C378.454 132.294 378.587 132.271 378.712 132.223C378.837 132.174 378.951 132.101 379.047 132.008C379.143 131.915 379.219 131.803 379.271 131.68C379.323 131.556 379.35 131.424 379.35 131.29Z" fill="white"/>
<path opacity="0.5" d="M383.75 132.29H393.84C394.105 132.29 394.36 132.185 394.547 131.997C394.735 131.81 394.84 131.555 394.84 131.29C394.84 131.025 394.735 130.77 394.547 130.583C394.36 130.395 394.105 130.29 393.84 130.29H383.75C383.485 130.29 383.23 130.395 383.043 130.583C382.855 130.77 382.75 131.025 382.75 131.29C382.75 131.555 382.855 131.81 383.043 131.997C383.23 132.185 383.485 132.29 383.75 132.29Z" fill="white"/>
<path opacity="0.5" d="M344 125.96H357C357.265 125.96 357.52 125.855 357.707 125.667C357.895 125.48 358 125.225 358 124.96C358 124.695 357.895 124.44 357.707 124.253C357.52 124.065 357.265 123.96 357 123.96H344C343.735 123.96 343.48 124.065 343.293 124.253C343.105 124.44 343 124.695 343 124.96C343 125.225 343.105 125.48 343.293 125.667C343.48 125.855 343.735 125.96 344 125.96Z" fill="white"/>
<path d="M404.84 124.96C404.84 124.695 404.735 124.44 404.547 124.253C404.36 124.065 404.105 123.96 403.84 123.96H363.48C363.215 123.96 362.96 124.065 362.773 124.253C362.585 124.44 362.48 124.695 362.48 124.96C362.48 125.225 362.585 125.48 362.773 125.667C362.96 125.855 363.215 125.96 363.48 125.96H403.84C404.105 125.96 404.36 125.855 404.547 125.667C404.735 125.48 404.84 125.225 404.84 124.96Z" fill="white"/>
<path d="M344 119.63H367.55C367.815 119.63 368.07 119.525 368.257 119.337C368.445 119.149 368.55 118.895 368.55 118.63C368.55 118.365 368.445 118.11 368.257 117.923C368.07 117.735 367.815 117.63 367.55 117.63H344C343.735 117.63 343.48 117.735 343.293 117.923C343.105 118.11 343 118.365 343 118.63C343 118.895 343.105 119.149 343.293 119.337C343.48 119.525 343.735 119.63 344 119.63Z" fill="white"/>
<path opacity="0.5" d="M372 118.63C372 118.895 372.105 119.149 372.293 119.337C372.48 119.525 372.735 119.63 373 119.63H378.83C379.095 119.63 379.35 119.525 379.537 119.337C379.725 119.149 379.83 118.895 379.83 118.63C379.83 118.365 379.725 118.11 379.537 117.923C379.35 117.735 379.095 117.63 378.83 117.63H373C372.735 117.63 372.48 117.735 372.293 117.923C372.105 118.11 372 118.365 372 118.63Z" fill="white"/>
<path opacity="0.5" d="M344 113.3H371.81C372.075 113.3 372.33 113.194 372.517 113.007C372.705 112.819 372.81 112.565 372.81 112.3C372.81 112.035 372.705 111.78 372.517 111.593C372.33 111.405 372.075 111.3 371.81 111.3H344C343.735 111.3 343.48 111.405 343.293 111.593C343.105 111.78 343 112.035 343 112.3C343 112.565 343.105 112.819 343.293 113.007C343.48 113.194 343.735 113.3 344 113.3Z" fill="white"/>
<path d="M392.51 113.3H413.84C414.105 113.3 414.36 113.194 414.547 113.007C414.735 112.819 414.84 112.565 414.84 112.3C414.84 112.035 414.735 111.78 414.547 111.593C414.36 111.405 414.105 111.3 413.84 111.3H392.51C392.245 111.3 391.99 111.405 391.803 111.593C391.615 111.78 391.51 112.035 391.51 112.3C391.51 112.565 391.615 112.819 391.803 113.007C391.99 113.194 392.245 113.3 392.51 113.3Z" fill="white"/>
<path opacity="0.2" d="M400.14 85.6997V110.56C400.14 111.886 399.613 113.158 398.676 114.095C397.738 115.033 396.466 115.56 395.14 115.56H336.25V87.9897C336.253 87.3832 336.495 86.8022 336.924 86.3734C337.353 85.9445 337.933 85.7023 338.54 85.6997H400.14Z" fill="black"/>
<path d="M392.57 15.9199H271.62C270.355 15.9199 269.33 16.9452 269.33 18.2099V105.37C269.33 106.635 270.355 107.66 271.62 107.66H392.57C393.835 107.66 394.86 106.635 394.86 105.37V18.2099C394.86 16.9452 393.835 15.9199 392.57 15.9199Z" fill="#407BFF"/>
<path opacity="0.6" d="M394.86 18.2099V105.37C394.86 105.671 394.801 105.968 394.686 106.246C394.571 106.524 394.402 106.777 394.189 106.989C393.977 107.202 393.724 107.371 393.446 107.486C393.169 107.601 392.871 107.66 392.57 107.66H271.62C271.319 107.661 271.021 107.603 270.742 107.488C270.464 107.374 270.211 107.205 269.998 106.992C269.785 106.779 269.616 106.526 269.502 106.248C269.387 105.969 269.329 105.671 269.33 105.37V18.2099C269.33 17.6026 269.571 17.0201 270.001 16.5906C270.43 16.1612 271.013 15.9199 271.62 15.9199H392.62C393.218 15.9355 393.786 16.1833 394.204 16.6108C394.622 17.0383 394.858 17.6119 394.86 18.2099Z" fill="white"/>
<path d="M392.48 25.25H271.7V105.09H392.48V25.25Z" fill="#263238"/>
<path d="M280.39 35.2001C280.521 35.2939 280.679 35.343 280.84 35.3401C280.997 35.338 281.149 35.287 281.275 35.1942C281.401 35.1014 281.495 34.9714 281.543 34.8225C281.592 34.6737 281.592 34.5133 281.545 34.3641C281.498 34.2148 281.405 34.084 281.28 33.9901L279.07 32.3601L281.28 30.7301C281.44 30.612 281.547 30.4351 281.577 30.2382C281.607 30.0413 281.558 29.8405 281.44 29.6801C281.322 29.5196 281.145 29.4126 280.948 29.3826C280.751 29.3526 280.55 29.402 280.39 29.5201L277.39 31.7601C277.297 31.831 277.221 31.9225 277.169 32.0274C277.117 32.1324 277.09 32.2479 277.09 32.3651C277.09 32.4822 277.117 32.5978 277.169 32.7027C277.221 32.8077 277.297 32.8992 277.39 32.9701L280.39 35.2001Z" fill="white"/>
<path d="M290.54 32.3499L288.34 33.9899C288.189 34.1035 288.088 34.2712 288.058 34.4576C288.029 34.6441 288.072 34.8349 288.18 34.9899C288.249 35.0849 288.339 35.1624 288.443 35.2162C288.547 35.2701 288.663 35.2987 288.78 35.2999C288.942 35.2992 289.1 35.2466 289.23 35.1499L292.23 32.9099C292.327 32.8428 292.406 32.7531 292.46 32.6485C292.514 32.5439 292.541 32.4276 292.54 32.3099C292.539 32.1926 292.51 32.0772 292.456 31.973C292.403 31.8688 292.325 31.7787 292.23 31.7099L289.23 29.4799C289.152 29.4106 289.061 29.3584 288.962 29.3263C288.863 29.2943 288.758 29.2833 288.654 29.294C288.551 29.3046 288.451 29.3368 288.36 29.3883C288.27 29.4398 288.191 29.5096 288.129 29.5933C288.067 29.6769 288.023 29.7725 288 29.8741C287.977 29.9756 287.975 30.0809 287.995 30.1831C288.015 30.2853 288.056 30.3823 288.115 30.4678C288.175 30.5533 288.251 30.6256 288.34 30.6799L290.54 32.3499Z" fill="white"/>
<path d="M283.77 35.3001C283.853 35.3153 283.937 35.3153 284.02 35.3001C284.174 35.3001 284.325 35.2519 284.45 35.1623C284.576 35.0726 284.67 34.946 284.72 34.8001L286.3 30.3301C286.335 30.2383 286.351 30.1405 286.347 30.0424C286.343 29.9444 286.319 29.8482 286.277 29.7595C286.235 29.6708 286.175 29.5915 286.102 29.5263C286.029 29.4611 285.943 29.4114 285.85 29.3801C285.755 29.3403 285.653 29.3205 285.55 29.3218C285.447 29.3232 285.346 29.3456 285.252 29.3878C285.158 29.43 285.074 29.4911 285.005 29.5672C284.936 29.6432 284.883 29.7328 284.85 29.8301L283.27 34.3001C283.231 34.3982 283.213 34.5034 283.218 34.6088C283.222 34.7143 283.249 34.8175 283.296 34.9119C283.344 35.0063 283.41 35.0897 283.492 35.1565C283.573 35.2234 283.668 35.2724 283.77 35.3001Z" fill="white"/>
<path opacity="0.5" d="M296.27 35.5898H300.27C300.535 35.5898 300.79 35.4845 300.977 35.297C301.165 35.1094 301.27 34.8551 301.27 34.5898C301.27 34.3246 301.165 34.0703 300.977 33.8827C300.79 33.6952 300.535 33.5898 300.27 33.5898H296.27C296.005 33.5898 295.75 33.6952 295.563 33.8827C295.375 34.0703 295.27 34.3246 295.27 34.5898C295.27 34.8551 295.375 35.1094 295.563 35.297C295.75 35.4845 296.005 35.5898 296.27 35.5898Z" fill="white"/>
<path opacity="0.5" d="M347.58 43.52H352.92C353.185 43.52 353.44 43.4147 353.627 43.2271C353.815 43.0396 353.92 42.7852 353.92 42.52C353.92 42.2548 353.815 42.0004 353.627 41.8129C353.44 41.6254 353.185 41.52 352.92 41.52H347.58C347.315 41.52 347.06 41.6254 346.873 41.8129C346.685 42.0004 346.58 42.2548 346.58 42.52C346.58 42.7852 346.685 43.0396 346.873 43.2271C347.06 43.4147 347.315 43.52 347.58 43.52Z" fill="white"/>
<path d="M289.7 42.52C289.7 42.7852 289.805 43.0396 289.993 43.2271C290.18 43.4147 290.435 43.52 290.7 43.52H340.7C340.965 43.52 341.22 43.4147 341.407 43.2271C341.595 43.0396 341.7 42.7852 341.7 42.52C341.7 42.2548 341.595 42.0004 341.407 41.8129C341.22 41.6254 340.965 41.52 340.7 41.52H290.7C290.435 41.52 290.18 41.6254 289.993 41.8129C289.805 42.0004 289.7 42.2548 289.7 42.52Z" fill="white"/>
<path opacity="0.5" d="M277.11 43.52H284.76C285.025 43.52 285.28 43.4147 285.467 43.2271C285.655 43.0396 285.76 42.7852 285.76 42.52C285.76 42.2548 285.655 42.0004 285.467 41.8129C285.28 41.6254 285.025 41.52 284.76 41.52H277.11C276.845 41.52 276.59 41.6254 276.403 41.8129C276.215 42.0004 276.11 42.2548 276.11 42.52C276.11 42.7852 276.215 43.0396 276.403 43.2271C276.59 43.4147 276.845 43.52 277.11 43.52Z" fill="white"/>
<path d="M328.92 49.8501C329.185 49.8501 329.44 49.7447 329.627 49.5572C329.815 49.3697 329.92 49.1153 329.92 48.8501C329.92 48.5849 329.815 48.3305 329.627 48.143C329.44 47.9555 329.185 47.8501 328.92 47.8501H309C308.735 47.8501 308.48 47.9555 308.293 48.143C308.105 48.3305 308 48.5849 308 48.8501C308 49.1153 308.105 49.3697 308.293 49.5572C308.48 49.7447 308.735 49.8501 309 49.8501H328.92Z" fill="white"/>
<path d="M290.7 49.8501H304.83C305.095 49.8501 305.35 49.7447 305.537 49.5572C305.725 49.3697 305.83 49.1153 305.83 48.8501C305.83 48.5849 305.725 48.3305 305.537 48.143C305.35 47.9555 305.095 47.8501 304.83 47.8501H290.7C290.435 47.8501 290.18 47.9555 289.993 48.143C289.805 48.3305 289.7 48.5849 289.7 48.8501C289.7 49.1153 289.805 49.3697 289.993 49.5572C290.18 49.7447 290.435 49.8501 290.7 49.8501Z" fill="white"/>
<path opacity="0.5" d="M277.11 49.8501H284.63C284.895 49.8501 285.15 49.7447 285.337 49.5572C285.525 49.3697 285.63 49.1153 285.63 48.8501C285.63 48.5849 285.525 48.3305 285.337 48.143C285.15 47.9555 284.895 47.8501 284.63 47.8501H277.11C276.845 47.8501 276.59 47.9555 276.403 48.143C276.215 48.3305 276.11 48.5849 276.11 48.8501C276.11 49.1153 276.215 49.3697 276.403 49.5572C276.59 49.7447 276.845 49.8501 277.11 49.8501Z" fill="white"/>
<path d="M319.92 55.1797C319.92 54.9145 319.815 54.6601 319.627 54.4726C319.44 54.285 319.185 54.1797 318.92 54.1797H290.6C290.335 54.1797 290.08 54.285 289.893 54.4726C289.705 54.6601 289.6 54.9145 289.6 55.1797C289.6 55.4449 289.705 55.6993 289.893 55.8868C290.08 56.0743 290.335 56.1797 290.6 56.1797H318.92C319.185 56.1797 319.44 56.0743 319.627 55.8868C319.815 55.6993 319.92 55.4449 319.92 55.1797Z" fill="white"/>
<path opacity="0.5" d="M277.11 56.1797H284.71C284.975 56.1797 285.23 56.0743 285.417 55.8868C285.605 55.6993 285.71 55.4449 285.71 55.1797C285.71 54.9145 285.605 54.6601 285.417 54.4726C285.23 54.285 284.975 54.1797 284.71 54.1797H277.11C276.845 54.1797 276.59 54.285 276.403 54.4726C276.215 54.6601 276.11 54.9145 276.11 55.1797C276.11 55.4449 276.215 55.6993 276.403 55.8868C276.59 56.0743 276.845 56.1797 277.11 56.1797Z" fill="white"/>
<path d="M310 62.5098H339C339.265 62.5098 339.52 62.4044 339.707 62.2169C339.895 62.0293 340 61.775 340 61.5098C340 61.2445 339.895 60.9902 339.707 60.8027C339.52 60.6151 339.265 60.5098 339 60.5098H310C309.735 60.5098 309.48 60.6151 309.293 60.8027C309.105 60.9902 309 61.2445 309 61.5098C309 61.775 309.105 62.0293 309.293 62.2169C309.48 62.4044 309.735 62.5098 310 62.5098Z" fill="white"/>
<path d="M290.62 60.5098C290.355 60.5098 290.1 60.6151 289.913 60.8027C289.725 60.9902 289.62 61.2445 289.62 61.5098C289.62 61.775 289.725 62.0293 289.913 62.2169C290.1 62.4044 290.355 62.5098 290.62 62.5098H303.79C304.055 62.5098 304.31 62.4044 304.497 62.2169C304.685 62.0293 304.79 61.775 304.79 61.5098C304.79 61.2445 304.685 60.9902 304.497 60.8027C304.31 60.6151 304.055 60.5098 303.79 60.5098H290.62Z" fill="white"/>
<path opacity="0.5" d="M277.11 62.5098H284.62C284.885 62.5098 285.14 62.4044 285.327 62.2169C285.515 62.0293 285.62 61.775 285.62 61.5098C285.62 61.2445 285.515 60.9902 285.327 60.8027C285.14 60.6151 284.885 60.5098 284.62 60.5098H277.11C276.845 60.5098 276.59 60.6151 276.403 60.8027C276.215 60.9902 276.11 61.2445 276.11 61.5098C276.11 61.775 276.215 62.0293 276.403 62.2169C276.59 62.4044 276.845 62.5098 277.11 62.5098Z" fill="white"/>
<path d="M301.92 66.8398H295.39C295.125 66.8398 294.87 66.9452 294.683 67.1327C294.495 67.3203 294.39 67.5746 294.39 67.8398C294.39 68.1051 294.495 68.3594 294.683 68.547C294.87 68.7345 295.125 68.8398 295.39 68.8398H301.92C302.185 68.8398 302.44 68.7345 302.627 68.547C302.815 68.3594 302.92 68.1051 302.92 67.8398C302.92 67.5746 302.815 67.3203 302.627 67.1327C302.44 66.9452 302.185 66.8398 301.92 66.8398Z" fill="white"/>
<path d="M290.73 66.8398H277.11C276.845 66.8398 276.59 66.9452 276.403 67.1327C276.215 67.3203 276.11 67.5746 276.11 67.8398C276.11 68.1051 276.215 68.3594 276.403 68.547C276.59 68.7345 276.845 68.8398 277.11 68.8398H290.73C290.995 68.8398 291.25 68.7345 291.437 68.547C291.625 68.3594 291.73 68.1051 291.73 67.8398C291.73 67.5746 291.625 67.3203 291.437 67.1327C291.25 66.9452 290.995 66.8398 290.73 66.8398Z" fill="white"/>
<path d="M333.6 74.1699C333.6 74.4351 333.705 74.6895 333.893 74.877C334.08 75.0646 334.335 75.1699 334.6 75.1699H387.92C388.185 75.1699 388.44 75.0646 388.627 74.877C388.815 74.6895 388.92 74.4351 388.92 74.1699C388.92 73.9047 388.815 73.6504 388.627 73.4628C388.44 73.2753 388.185 73.1699 387.92 73.1699H334.6C334.335 73.1699 334.08 73.2753 333.893 73.4628C333.705 73.6504 333.6 73.9047 333.6 74.1699Z" fill="white"/>
<path opacity="0.5" d="M319.11 73.1699C318.845 73.1699 318.59 73.2753 318.403 73.4628C318.215 73.6504 318.11 73.9047 318.11 74.1699C318.11 74.4351 318.215 74.6895 318.403 74.877C318.59 75.0646 318.845 75.1699 319.11 75.1699H329.2C329.465 75.1699 329.72 75.0646 329.907 74.877C330.095 74.6895 330.2 74.4351 330.2 74.1699C330.2 73.9047 330.095 73.6504 329.907 73.4628C329.72 73.2753 329.465 73.1699 329.2 73.1699H319.11Z" fill="white"/>
<path opacity="0.5" d="M387.92 79.5H374.92C374.655 79.5 374.4 79.6054 374.213 79.7929C374.025 79.9804 373.92 80.2348 373.92 80.5C373.92 80.7652 374.025 81.0196 374.213 81.2071C374.4 81.3946 374.655 81.5 374.92 81.5H387.92C388.185 81.5 388.44 81.3946 388.627 81.2071C388.815 81.0196 388.92 80.7652 388.92 80.5C388.92 80.2348 388.815 79.9804 388.627 79.7929C388.44 79.6054 388.185 79.5 387.92 79.5Z" fill="white"/>
<path d="M369.48 80.5C369.48 80.2348 369.375 79.9804 369.187 79.7929C369 79.6054 368.745 79.5 368.48 79.5H314.11C313.845 79.5 313.59 79.6054 313.403 79.7929C313.215 79.9804 313.11 80.2348 313.11 80.5C313.11 80.7652 313.215 81.0196 313.403 81.2071C313.59 81.3946 313.845 81.5 314.11 81.5H368.48C368.745 81.5 369 81.3946 369.187 81.2071C369.375 81.0196 369.48 80.7652 369.48 80.5Z" fill="white"/>
<path d="M387.92 85.8301H364.37C364.105 85.8301 363.85 85.9354 363.663 86.123C363.475 86.3105 363.37 86.5649 363.37 86.8301C363.37 87.0953 363.475 87.3496 363.663 87.5372C363.85 87.7247 364.105 87.8301 364.37 87.8301H387.92C388.185 87.8301 388.44 87.7247 388.627 87.5372C388.815 87.3496 388.92 87.0953 388.92 86.8301C388.92 86.5649 388.815 86.3105 388.627 86.123C388.44 85.9354 388.185 85.8301 387.92 85.8301Z" fill="white"/>
<path opacity="0.5" d="M353.11 85.8301C352.845 85.8301 352.59 85.9354 352.403 86.123C352.215 86.3105 352.11 86.5649 352.11 86.8301C352.11 87.0953 352.215 87.3496 352.403 87.5372C352.59 87.7247 352.845 87.8301 353.11 87.8301H359C359.265 87.8301 359.52 87.7247 359.707 87.5372C359.895 87.3496 360 87.0953 360 86.8301C360 86.5649 359.895 86.3105 359.707 86.123C359.52 85.9354 359.265 85.8301 359 85.8301H353.11Z" fill="white"/>
<path d="M387.92 92.1602H341.11C340.845 92.1602 340.59 92.2655 340.403 92.453C340.215 92.6406 340.11 92.8949 340.11 93.1602C340.11 93.4254 340.215 93.6797 340.403 93.8673C340.59 94.0548 340.845 94.1602 341.11 94.1602H387.92C388.185 94.1602 388.44 94.0548 388.627 93.8673C388.815 93.6797 388.92 93.4254 388.92 93.1602C388.92 92.8949 388.815 92.6406 388.627 92.453C388.44 92.2655 388.185 92.1602 387.92 92.1602Z" fill="white"/>
<path d="M320.45 92.1602H304.11C303.845 92.1602 303.59 92.2655 303.403 92.453C303.215 92.6406 303.11 92.8949 303.11 93.1602C303.11 93.4254 303.215 93.6797 303.403 93.8673C303.59 94.0548 303.845 94.1602 304.11 94.1602H320.45C320.715 94.1602 320.97 94.0548 321.157 93.8673C321.345 93.6797 321.45 93.4254 321.45 93.1602C321.45 92.8949 321.345 92.6406 321.157 92.453C320.97 92.2655 320.715 92.1602 320.45 92.1602Z" fill="white"/>
<path opacity="0.2" d="M336.25 55.3997V107.66H271.62C271.319 107.661 271.021 107.603 270.742 107.488C270.464 107.373 270.211 107.205 269.998 106.992C269.785 106.779 269.616 106.526 269.502 106.248C269.387 105.969 269.329 105.671 269.33 105.37V50.9497H331.8C332.98 50.9497 334.112 51.4185 334.947 52.2531C335.781 53.0876 336.25 54.2195 336.25 55.3997Z" fill="black"/>
<path d="M325.71 54.8101H185.76C184.495 54.8101 183.47 55.8353 183.47 57.1001V144.26C183.47 145.525 184.495 146.55 185.76 146.55H325.71C326.975 146.55 328 145.525 328 144.26V57.1001C328 55.8353 326.975 54.8101 325.71 54.8101Z" fill="#407BFF"/>
<path opacity="0.6" d="M325.71 54.8101H185.76C184.495 54.8101 183.47 55.8353 183.47 57.1001V144.26C183.47 145.525 184.495 146.55 185.76 146.55H325.71C326.975 146.55 328 145.525 328 144.26V57.1001C328 55.8353 326.975 54.8101 325.71 54.8101Z" fill="white"/>
<path d="M325.63 64.1401H185.85V143.98H325.63V64.1401Z" fill="#263238"/>
<path d="M213.62 80.8999H191.25C190.985 80.8999 190.73 81.0053 190.543 81.1928C190.355 81.3803 190.25 81.6347 190.25 81.8999C190.25 82.1651 190.355 82.4195 190.543 82.607C190.73 82.7945 190.985 82.8999 191.25 82.8999H213.62C213.885 82.8999 214.14 82.7945 214.327 82.607C214.515 82.4195 214.62 82.1651 214.62 81.8999C214.62 81.6347 214.515 81.3803 214.327 81.1928C214.14 81.0053 213.885 80.8999 213.62 80.8999Z" fill="white"/>
<path d="M213.62 87.1401H194.25C193.985 87.1401 193.73 87.2455 193.543 87.433C193.355 87.6206 193.25 87.8749 193.25 88.1401C193.25 88.4054 193.355 88.6597 193.543 88.8472C193.73 89.0348 193.985 89.1401 194.25 89.1401H213.62C213.885 89.1401 214.14 89.0348 214.327 88.8472C214.515 88.6597 214.62 88.4054 214.62 88.1401C214.62 87.8749 214.515 87.6206 214.327 87.433C214.14 87.2455 213.885 87.1401 213.62 87.1401Z" fill="white"/>
<path opacity="0.5" d="M213.62 93.3799H191.25C190.985 93.3799 190.73 93.4852 190.543 93.6728C190.355 93.8603 190.25 94.1147 190.25 94.3799C190.25 94.6451 190.355 94.8995 190.543 95.087C190.73 95.2745 190.985 95.3799 191.25 95.3799H213.62C213.885 95.3799 214.14 95.2745 214.327 95.087C214.515 94.8995 214.62 94.6451 214.62 94.3799C214.62 94.1147 214.515 93.8603 214.327 93.6728C214.14 93.4852 213.885 93.3799 213.62 93.3799Z" fill="white"/>
<path d="M213.62 99.6201H200.25C199.985 99.6201 199.73 99.7255 199.543 99.913C199.355 100.101 199.25 100.355 199.25 100.62C199.25 100.885 199.355 101.14 199.543 101.327C199.73 101.515 199.985 101.62 200.25 101.62H213.62C213.885 101.62 214.14 101.515 214.327 101.327C214.515 101.14 214.62 100.885 214.62 100.62C214.62 100.355 214.515 100.101 214.327 99.913C214.14 99.7255 213.885 99.6201 213.62 99.6201Z" fill="white"/>
<path d="M213.62 105.86H191.25C190.985 105.86 190.73 105.965 190.543 106.153C190.355 106.34 190.25 106.595 190.25 106.86C190.25 107.125 190.355 107.379 190.543 107.567C190.73 107.755 190.985 107.86 191.25 107.86H213.62C213.885 107.86 214.14 107.755 214.327 107.567C214.515 107.379 214.62 107.125 214.62 106.86C214.62 106.595 214.515 106.34 214.327 106.153C214.14 105.965 213.885 105.86 213.62 105.86Z" fill="white"/>
<path d="M213.62 112.1H195.25C194.985 112.1 194.73 112.205 194.543 112.393C194.355 112.581 194.25 112.835 194.25 113.1C194.25 113.365 194.355 113.62 194.543 113.807C194.73 113.995 194.985 114.1 195.25 114.1H213.62C213.885 114.1 214.14 113.995 214.327 113.807C214.515 113.62 214.62 113.365 214.62 113.1C214.62 112.835 214.515 112.581 214.327 112.393C214.14 112.205 213.885 112.1 213.62 112.1Z" fill="white"/>
<path d="M213.62 118.34H195.25C194.985 118.34 194.73 118.445 194.543 118.633C194.355 118.82 194.25 119.075 194.25 119.34C194.25 119.605 194.355 119.859 194.543 120.047C194.73 120.234 194.985 120.34 195.25 120.34H213.62C213.885 120.34 214.14 120.234 214.327 120.047C214.515 119.859 214.62 119.605 214.62 119.34C214.62 119.075 214.515 118.82 214.327 118.633C214.14 118.445 213.885 118.34 213.62 118.34Z" fill="white"/>
<path d="M213.62 124.58H193.25C192.985 124.58 192.73 124.685 192.543 124.873C192.355 125.061 192.25 125.315 192.25 125.58C192.25 125.845 192.355 126.1 192.543 126.287C192.73 126.475 192.985 126.58 193.25 126.58H213.62C213.885 126.58 214.14 126.475 214.327 126.287C214.515 126.1 214.62 125.845 214.62 125.58C214.62 125.315 214.515 125.061 214.327 124.873C214.14 124.685 213.885 124.58 213.62 124.58Z" fill="white"/>
<path opacity="0.5" d="M213.62 130.82H200.25C199.985 130.82 199.73 130.925 199.543 131.113C199.355 131.3 199.25 131.555 199.25 131.82C199.25 132.085 199.355 132.339 199.543 132.527C199.73 132.714 199.985 132.82 200.25 132.82H213.62C213.885 132.82 214.14 132.714 214.327 132.527C214.515 132.339 214.62 132.085 214.62 131.82C214.62 131.555 214.515 131.3 214.327 131.113C214.14 130.925 213.885 130.82 213.62 130.82Z" fill="white"/>
<path opacity="0.5" d="M213.62 74.6602H197.25C196.985 74.6602 196.73 74.7655 196.543 74.953C196.355 75.1406 196.25 75.3949 196.25 75.6602C196.25 75.9254 196.355 76.1797 196.543 76.3673C196.73 76.5548 196.985 76.6602 197.25 76.6602H213.62C213.885 76.6602 214.14 76.5548 214.327 76.3673C214.515 76.1797 214.62 75.9254 214.62 75.6602C214.62 75.3949 214.515 75.1406 214.327 74.953C214.14 74.7655 213.885 74.6602 213.62 74.6602Z" fill="white"/>
<path d="M213.62 68.4199H191.25C190.985 68.4199 190.73 68.5253 190.543 68.7128C190.355 68.9004 190.25 69.1547 190.25 69.4199C190.25 69.6851 190.355 69.9395 190.543 70.127C190.73 70.3146 190.985 70.4199 191.25 70.4199H213.62C213.885 70.4199 214.14 70.3146 214.327 70.127C214.515 69.9395 214.62 69.6851 214.62 69.4199C214.62 69.1547 214.515 68.9004 214.327 68.7128C214.14 68.5253 213.885 68.4199 213.62 68.4199Z" fill="white"/>
<path d="M213.62 137.05H191.25C190.985 137.05 190.73 137.155 190.543 137.343C190.355 137.53 190.25 137.785 190.25 138.05C190.25 138.315 190.355 138.569 190.543 138.757C190.73 138.944 190.985 139.05 191.25 139.05H213.62C213.885 139.05 214.14 138.944 214.327 138.757C214.515 138.569 214.62 138.315 214.62 138.05C214.62 137.785 214.515 137.53 214.327 137.343C214.14 137.155 213.885 137.05 213.62 137.05Z" fill="white"/>
<path opacity="0.5" d="M225.62 80.6499H221.25V83.1499H225.62V80.6499Z" fill="white"/>
<path opacity="0.5" d="M225.62 86.8799H221.25V89.3799H225.62V86.8799Z" fill="white"/>
<path opacity="0.5" d="M225.62 93.1299H221.25V95.6299H225.62V93.1299Z" fill="white"/>
<path opacity="0.5" d="M225.62 99.3599H221.25V101.86H225.62V99.3599Z" fill="white"/>
<path opacity="0.5" d="M225.62 105.6H221.25V108.1H225.62V105.6Z" fill="white"/>
<path opacity="0.5" d="M225.62 111.84H221.25V114.34H225.62V111.84Z" fill="white"/>
<path opacity="0.5" d="M225.62 118.08H221.25V120.58H225.62V118.08Z" fill="white"/>
<path opacity="0.5" d="M225.62 124.32H221.25V126.82H225.62V124.32Z" fill="white"/>
<path opacity="0.5" d="M225.62 130.56H221.25V133.06H225.62V130.56Z" fill="white"/>
<path opacity="0.5" d="M225.62 74.4102H221.25V76.9102H225.62V74.4102Z" fill="white"/>
<path opacity="0.5" d="M225.62 68.1699H221.25V70.6699H225.62V68.1699Z" fill="white"/>
<path opacity="0.5" d="M225.62 136.8H221.25V139.3H225.62V136.8Z" fill="white"/>
<path d="M248.25 81.8999C248.25 82.1651 248.355 82.4195 248.543 82.607C248.73 82.7945 248.985 82.8999 249.25 82.8999H321.62C321.885 82.8999 322.14 82.7945 322.327 82.607C322.515 82.4195 322.62 82.1651 322.62 81.8999C322.62 81.6347 322.515 81.3803 322.327 81.1928C322.14 81.0053 321.885 80.8999 321.62 80.8999H249.25C248.985 80.8999 248.73 81.0053 248.543 81.1928C248.355 81.3803 248.25 81.6347 248.25 81.8999Z" fill="white"/>
<path d="M321.62 87.1401H282C281.735 87.1401 281.48 87.2455 281.293 87.433C281.105 87.6206 281 87.8749 281 88.1401C281 88.4054 281.105 88.6597 281.293 88.8472C281.48 89.0348 281.735 89.1401 282 89.1401H321.63C321.895 89.1401 322.15 89.0348 322.337 88.8472C322.525 88.6597 322.63 88.4054 322.63 88.1401C322.63 87.8749 322.525 87.6206 322.337 87.433C322.15 87.2455 321.895 87.1401 321.63 87.1401H321.62Z" fill="white"/>
<path opacity="0.5" d="M272.58 87.1401H260.25C259.985 87.1401 259.73 87.2455 259.543 87.433C259.355 87.6206 259.25 87.8749 259.25 88.1401C259.25 88.4054 259.355 88.6597 259.543 88.8472C259.73 89.0348 259.985 89.1401 260.25 89.1401H272.58C272.845 89.1401 273.1 89.0348 273.287 88.8472C273.475 88.6597 273.58 88.4054 273.58 88.1401C273.58 87.8749 273.475 87.6206 273.287 87.433C273.1 87.2455 272.845 87.1401 272.58 87.1401Z" fill="white"/>
<path d="M297.62 93.3799H242.62C242.355 93.3799 242.1 93.4852 241.913 93.6728C241.725 93.8603 241.62 94.1147 241.62 94.3799C241.62 94.6451 241.725 94.8995 241.913 95.087C242.1 95.2745 242.355 95.3799 242.62 95.3799H297.62C297.885 95.3799 298.14 95.2745 298.327 95.087C298.515 94.8995 298.62 94.6451 298.62 94.3799C298.62 94.1147 298.515 93.8603 298.327 93.6728C298.14 93.4852 297.885 93.3799 297.62 93.3799Z" fill="white"/>
<path opacity="0.5" d="M231.25 95.3799H235.15C235.415 95.3799 235.67 95.2745 235.857 95.087C236.045 94.8995 236.15 94.6451 236.15 94.3799C236.15 94.1147 236.045 93.8603 235.857 93.6728C235.67 93.4852 235.415 93.3799 235.15 93.3799H231.25C230.985 93.3799 230.73 93.4852 230.543 93.6728C230.355 93.8603 230.25 94.1147 230.25 94.3799C230.25 94.6451 230.355 94.8995 230.543 95.087C230.73 95.2745 230.985 95.3799 231.25 95.3799Z" fill="white"/>
<path d="M304.62 100.62C304.62 100.355 304.515 100.101 304.327 99.913C304.14 99.7255 303.885 99.6201 303.62 99.6201H252.62C252.355 99.6201 252.1 99.7255 251.913 99.913C251.725 100.101 251.62 100.355 251.62 100.62C251.62 100.885 251.725 101.14 251.913 101.327C252.1 101.515 252.355 101.62 252.62 101.62H303.62C303.885 101.62 304.14 101.515 304.327 101.327C304.515 101.14 304.62 100.885 304.62 100.62Z" fill="white"/>
<path d="M231.25 101.62H245.64C245.905 101.62 246.16 101.515 246.347 101.327C246.535 101.14 246.64 100.885 246.64 100.62C246.64 100.355 246.535 100.101 246.347 99.913C246.16 99.7255 245.905 99.6201 245.64 99.6201H231.25C230.985 99.6201 230.73 99.7255 230.543 99.913C230.355 100.101 230.25 100.355 230.25 100.62C230.25 100.885 230.355 101.14 230.543 101.327C230.73 101.515 230.985 101.62 231.25 101.62Z" fill="white"/>
<path d="M231.25 107.86H285.62C285.885 107.86 286.14 107.755 286.327 107.567C286.515 107.379 286.62 107.125 286.62 106.86C286.62 106.595 286.515 106.34 286.327 106.153C286.14 105.965 285.885 105.86 285.62 105.86H231.25C230.985 105.86 230.73 105.965 230.543 106.153C230.355 106.34 230.25 106.595 230.25 106.86C230.25 107.125 230.355 107.379 230.543 107.567C230.73 107.755 230.985 107.86 231.25 107.86Z" fill="white"/>
<path d="M266.42 112.1C266.155 112.1 265.9 112.205 265.713 112.393C265.525 112.581 265.42 112.835 265.42 113.1C265.42 113.365 265.525 113.62 265.713 113.807C265.9 113.995 266.155 114.1 266.42 114.1H294.62C294.885 114.1 295.14 113.995 295.327 113.807C295.515 113.62 295.62 113.365 295.62 113.1C295.62 112.835 295.515 112.581 295.327 112.393C295.14 112.205 294.885 112.1 294.62 112.1H266.42Z" fill="white"/>
<path d="M231.25 114.1H255.66C255.925 114.1 256.18 113.995 256.367 113.807C256.555 113.62 256.66 113.365 256.66 113.1C256.66 112.835 256.555 112.581 256.367 112.393C256.18 112.205 255.925 112.1 255.66 112.1H231.25C230.985 112.1 230.73 112.205 230.543 112.393C230.355 112.581 230.25 112.835 230.25 113.1C230.25 113.365 230.355 113.62 230.543 113.807C230.73 113.995 230.985 114.1 231.25 114.1Z" fill="white"/>
<path d="M321.62 118.34H255.25C254.985 118.34 254.73 118.445 254.543 118.633C254.355 118.82 254.25 119.075 254.25 119.34C254.25 119.605 254.355 119.859 254.543 120.047C254.73 120.234 254.985 120.34 255.25 120.34H321.62C321.885 120.34 322.14 120.234 322.327 120.047C322.515 119.859 322.62 119.605 322.62 119.34C322.62 119.075 322.515 118.82 322.327 118.633C322.14 118.445 321.885 118.34 321.62 118.34Z" fill="white"/>
<path d="M321.62 124.58H264.25C263.985 124.58 263.73 124.685 263.543 124.873C263.355 125.061 263.25 125.315 263.25 125.58C263.25 125.845 263.355 126.1 263.543 126.287C263.73 126.475 263.985 126.58 264.25 126.58H321.62C321.885 126.58 322.14 126.475 322.327 126.287C322.515 126.1 322.62 125.845 322.62 125.58C322.62 125.315 322.515 125.061 322.327 124.873C322.14 124.685 321.885 124.58 321.62 124.58Z" fill="white"/>
<path opacity="0.5" d="M321.62 130.82H309.82C309.555 130.82 309.3 130.925 309.113 131.113C308.925 131.3 308.82 131.555 308.82 131.82C308.82 132.085 308.925 132.339 309.113 132.527C309.3 132.714 309.555 132.82 309.82 132.82H321.62C321.885 132.82 322.14 132.714 322.327 132.527C322.515 132.339 322.62 132.085 322.62 131.82C322.62 131.555 322.515 131.3 322.327 131.113C322.14 130.925 321.885 130.82 321.62 130.82Z" fill="white"/>
<path d="M301.57 130.82H258.25C257.985 130.82 257.73 130.925 257.543 131.113C257.355 131.3 257.25 131.555 257.25 131.82C257.25 132.085 257.355 132.339 257.543 132.527C257.73 132.714 257.985 132.82 258.25 132.82H301.57C301.835 132.82 302.09 132.714 302.277 132.527C302.465 132.339 302.57 132.085 302.57 131.82C302.57 131.555 302.465 131.3 302.277 131.113C302.09 130.925 301.835 130.82 301.57 130.82Z" fill="white"/>
<path d="M231.25 76.6602H277.62C277.885 76.6602 278.14 76.5548 278.327 76.3673C278.515 76.1797 278.62 75.9254 278.62 75.6602C278.62 75.3949 278.515 75.1406 278.327 74.953C278.14 74.7655 277.885 74.6602 277.62 74.6602H231.25C230.985 74.6602 230.73 74.7655 230.543 74.953C230.355 75.1406 230.25 75.3949 230.25 75.6602C230.25 75.9254 230.355 76.1797 230.543 76.3673C230.73 76.5548 230.985 76.6602 231.25 76.6602Z" fill="white"/>
<path d="M231.25 70.4199H303.62C303.885 70.4199 304.14 70.3146 304.327 70.127C304.515 69.9395 304.62 69.6851 304.62 69.4199C304.62 69.1547 304.515 68.9004 304.327 68.7128C304.14 68.5253 303.885 68.4199 303.62 68.4199H231.25C230.985 68.4199 230.73 68.5253 230.543 68.7128C230.355 68.9004 230.25 69.1547 230.25 69.4199C230.25 69.6851 230.355 69.9395 230.543 70.127C230.73 70.3146 230.985 70.4199 231.25 70.4199Z" fill="white"/>
<path d="M298.62 137.05H267.9C267.635 137.05 267.38 137.155 267.193 137.343C267.005 137.53 266.9 137.785 266.9 138.05C266.9 138.315 267.005 138.569 267.193 138.757C267.38 138.944 267.635 139.05 267.9 139.05H298.62C298.885 139.05 299.14 138.944 299.327 138.757C299.515 138.569 299.62 138.315 299.62 138.05C299.62 137.785 299.515 137.53 299.327 137.343C299.14 137.155 298.885 137.05 298.62 137.05Z" fill="white"/>
<path opacity="0.5" d="M259.19 137.05H231.25C230.985 137.05 230.73 137.155 230.543 137.343C230.355 137.53 230.25 137.785 230.25 138.05C230.25 138.315 230.355 138.569 230.543 138.757C230.73 138.944 230.985 139.05 231.25 139.05H259.19C259.455 139.05 259.71 138.944 259.897 138.757C260.085 138.569 260.19 138.315 260.19 138.05C260.19 137.785 260.085 137.53 259.897 137.343C259.71 137.155 259.455 137.05 259.19 137.05Z" fill="white"/>
<path opacity="0.5" d="M287.91 76.6602C288.175 76.6602 288.43 76.5548 288.617 76.3673C288.805 76.1797 288.91 75.9254 288.91 75.6602C288.91 75.3949 288.805 75.1406 288.617 74.953C288.43 74.7655 288.175 74.6602 287.91 74.6602H284.31C284.045 74.6602 283.79 74.7655 283.603 74.953C283.415 75.1406 283.31 75.3949 283.31 75.6602C283.31 75.9254 283.415 76.1797 283.603 76.3673C283.79 76.5548 284.045 76.6602 284.31 76.6602H287.91Z" fill="white"/>
<path opacity="0.5" d="M244.08 81.8999C244.08 81.6347 243.975 81.3803 243.787 81.1928C243.6 81.0053 243.345 80.8999 243.08 80.8999H238.25C237.985 80.8999 237.73 81.0053 237.543 81.1928C237.355 81.3803 237.25 81.6347 237.25 81.8999C237.25 82.1651 237.355 82.4195 237.543 82.607C237.73 82.7945 237.985 82.8999 238.25 82.8999H243.08C243.345 82.8999 243.6 82.7945 243.787 82.607C243.975 82.4195 244.08 82.1651 244.08 81.8999Z" fill="white"/>
<path opacity="0.5" d="M299.22 106.86C299.22 106.595 299.115 106.34 298.927 106.153C298.74 105.965 298.485 105.86 298.22 105.86H292.94C292.675 105.86 292.42 105.965 292.233 106.153C292.045 106.34 291.94 106.595 291.94 106.86C291.94 107.125 292.045 107.379 292.233 107.567C292.42 107.755 292.675 107.86 292.94 107.86H298.22C298.485 107.86 298.74 107.755 298.927 107.567C299.115 107.379 299.22 107.125 299.22 106.86Z" fill="white"/>
<path opacity="0.5" d="M316.53 101.62C316.795 101.62 317.05 101.515 317.237 101.327C317.425 101.14 317.53 100.885 317.53 100.62C317.53 100.355 317.425 100.101 317.237 99.913C317.05 99.7255 316.795 99.6201 316.53 99.6201H312.24C311.975 99.6201 311.72 99.7255 311.533 99.913C311.345 100.101 311.24 100.355 311.24 100.62C311.24 100.885 311.345 101.14 311.533 101.327C311.72 101.515 311.975 101.62 312.24 101.62H316.53Z" fill="white"/>
<path opacity="0.5" d="M247.21 118.34C246.945 118.34 246.69 118.445 246.503 118.633C246.315 118.82 246.21 119.075 246.21 119.34C246.21 119.605 246.315 119.859 246.503 120.047C246.69 120.234 246.945 120.34 247.21 120.34H251.52C251.785 120.34 252.04 120.234 252.227 120.047C252.415 119.859 252.52 119.605 252.52 119.34C252.52 119.075 252.415 118.82 252.227 118.633C252.04 118.445 251.785 118.34 251.52 118.34H247.21Z" fill="white"/>
<path d="M139.6 104.06H106.53C104.652 104.06 103.13 105.582 103.13 107.46V125.35C103.13 127.228 104.652 128.75 106.53 128.75H139.6C141.478 128.75 143 127.228 143 125.35V107.46C143 105.582 141.478 104.06 139.6 104.06Z" fill="#407BFF"/>
<path d="M129.11 127.5C129.11 127.5 130.62 134.39 139.42 137.06C139.42 137.06 134.84 132.92 135.87 127.5H129.11Z" fill="#407BFF"/>
<path d="M108.34 107.95V112.1H107.91V108.33H106.91V107.95H108.34Z" fill="white"/>
<path d="M109.32 110.05C109.32 108.73 110.02 107.95 110.98 107.95C111.94 107.95 112.63 108.73 112.63 110.05C112.63 111.37 111.94 112.16 110.98 112.16C110.02 112.16 109.32 111.34 109.32 110.05ZM112.2 110.05C112.2 108.95 111.7 108.34 110.98 108.34C110.26 108.34 109.76 108.95 109.76 110.05C109.76 111.15 110.25 111.77 110.98 111.77C111.71 111.77 112.2 111.13 112.2 110.05Z" fill="white"/>
<path d="M113.24 110.05C113.24 108.73 113.93 107.95 114.89 107.95C115.85 107.95 116.55 108.73 116.55 110.05C116.55 111.37 115.85 112.16 114.89 112.16C113.93 112.16 113.24 111.34 113.24 110.05ZM116.11 110.05C116.11 108.95 115.62 108.34 114.89 108.34C114.16 108.34 113.67 108.95 113.67 110.05C113.67 111.15 114.17 111.77 114.89 111.77C115.61 111.77 116.11 111.13 116.11 110.05Z" fill="white"/>
<path d="M118.3 107.95V112.1H117.87V108.33H116.87V107.95H118.3Z" fill="white"/>
<path d="M120.43 107.95V112.1H120V108.33H119V107.95H120.43Z" fill="white"/>
<path d="M121.42 110.05C121.42 108.73 122.11 107.95 123.07 107.95C124.03 107.95 124.73 108.73 124.73 110.05C124.73 111.37 124.03 112.16 123.07 112.16C122.11 112.16 121.42 111.34 121.42 110.05ZM124.29 110.05C124.29 108.95 123.79 108.34 123.07 108.34C122.35 108.34 121.85 108.95 121.85 110.05C121.85 111.15 122.35 111.77 123.07 111.77C123.79 111.77 124.29 111.13 124.29 110.05Z" fill="white"/>
<path d="M126.48 107.95V112.1H126.05V108.33H125.05V107.95H126.48Z" fill="white"/>
<path d="M127.46 110.05C127.46 108.73 128.16 107.95 129.11 107.95C130.06 107.95 130.77 108.73 130.77 110.05C130.77 111.37 130.07 112.16 129.11 112.16C128.15 112.16 127.46 111.34 127.46 110.05ZM130.33 110.05C130.33 108.95 129.84 108.34 129.11 108.34C128.38 108.34 127.9 108.95 127.9 110.05C127.9 111.15 128.39 111.77 129.11 111.77C129.83 111.77 130.33 111.13 130.33 110.05Z" fill="white"/>
<path d="M131.38 110.05C131.38 108.73 132.07 107.95 133.03 107.95C133.99 107.95 134.69 108.73 134.69 110.05C134.69 111.37 133.99 112.16 133.03 112.16C132.07 112.16 131.38 111.34 131.38 110.05ZM134.25 110.05C134.25 108.95 133.75 108.34 133.03 108.34C132.31 108.34 131.81 108.95 131.81 110.05C131.81 111.15 132.31 111.77 133.03 111.77C133.75 111.77 134.25 111.13 134.25 110.05Z" fill="white"/>
<path d="M136.44 107.95V112.1H136V108.33H135V107.95H136.44Z" fill="white"/>
<path d="M138.57 107.95V112.1H138.15V108.33H137.15V107.95H138.57Z" fill="white"/>
<path d="M107.19 116.05C107.19 114.73 107.88 113.95 108.84 113.95C109.8 113.95 110.5 114.73 110.5 116.05C110.5 117.37 109.8 118.16 108.84 118.16C107.88 118.16 107.19 117.34 107.19 116.05ZM110.06 116.05C110.06 114.95 109.56 114.34 108.84 114.34C108.12 114.34 107.62 114.95 107.62 116.05C107.62 117.15 108.12 117.77 108.84 117.77C109.56 117.77 110.06 117.13 110.06 116.05Z" fill="white"/>
<path d="M111.11 116.05C111.11 114.73 111.8 113.95 112.76 113.95C113.72 113.95 114.41 114.73 114.41 116.05C114.41 117.37 113.72 118.16 112.76 118.16C111.8 118.16 111.11 117.34 111.11 116.05ZM113.98 116.05C113.98 114.95 113.48 114.34 112.76 114.34C112.04 114.34 111.54 114.95 111.54 116.05C111.54 117.15 112.04 117.77 112.76 117.77C113.48 117.77 114 117.13 114 116.05H113.98Z" fill="white"/>
<path d="M116.16 113.95V118.1H115.73V114.33H114.73V113.95H116.16Z" fill="white"/>
<path d="M118.3 113.95V118.1H117.87V114.33H116.87V113.95H118.3Z" fill="white"/>
<path d="M119.28 116.05C119.28 114.73 119.98 113.95 120.94 113.95C121.9 113.95 122.59 114.73 122.59 116.05C122.59 117.37 121.9 118.16 120.94 118.16C119.98 118.16 119.28 117.34 119.28 116.05ZM122.16 116.05C122.16 114.95 121.66 114.34 120.94 114.34C120.22 114.34 119.72 114.95 119.72 116.05C119.72 117.15 120.21 117.77 120.94 117.77C121.67 117.77 122.16 117.13 122.16 116.05Z" fill="white"/>
<path d="M124.34 113.95V118.1H123.91V114.33H122.91V113.95H124.34Z" fill="white"/>
<path d="M125.33 116.05C125.33 114.73 126.02 113.95 126.98 113.95C127.94 113.95 128.64 114.73 128.64 116.05C128.64 117.37 127.94 118.16 126.98 118.16C126.02 118.16 125.33 117.34 125.33 116.05ZM128.2 116.05C128.2 114.95 127.7 114.34 126.98 114.34C126.26 114.34 125.76 114.95 125.76 116.05C125.76 117.15 126.26 117.77 126.98 117.77C127.7 117.77 128.2 117.13 128.2 116.05Z" fill="white"/>
<path d="M129.24 116.05C129.24 114.73 129.94 113.95 130.9 113.95C131.86 113.95 132.55 114.73 132.55 116.05C132.55 117.37 131.85 118.16 130.9 118.16C129.95 118.16 129.24 117.34 129.24 116.05ZM132.12 116.05C132.12 114.95 131.62 114.34 130.9 114.34C130.18 114.34 129.68 114.95 129.68 116.05C129.68 117.15 130.17 117.77 130.9 117.77C131.63 117.77 132.12 117.13 132.12 116.05Z" fill="white"/>
<path d="M134.3 113.95V118.1H133.87V114.33H132.87V113.95H134.3Z" fill="white"/>
<path d="M136.44 113.95V118.1H136V114.33H135V113.95H136.44Z" fill="white"/>
<path d="M138.57 113.95V118.1H138.15V114.33H137.15V113.95H138.57Z" fill="white"/>
<path d="M108.34 119.95V124.1H107.91V120.33H106.91V119.95H108.34Z" fill="white"/>
<path d="M110.47 119.95V124.1H110.05V120.33H109.05V119.95H110.47Z" fill="white"/>
<path d="M111.46 122.05C111.46 120.73 112.15 119.95 113.11 119.95C114.07 119.95 114.77 120.73 114.77 122.05C114.77 123.37 114.07 124.16 113.11 124.16C112.15 124.16 111.46 123.34 111.46 122.05ZM114.33 122.05C114.33 120.95 113.84 120.34 113.11 120.34C112.38 120.34 111.89 120.95 111.89 122.05C111.89 123.15 112.39 123.77 113.11 123.77C113.83 123.77 114.33 123.13 114.33 122.05Z" fill="white"/>
<path d="M115.38 122.05C115.38 120.73 116.07 119.95 117.03 119.95C117.99 119.95 118.69 120.73 118.69 122.05C118.69 123.37 117.99 124.16 117.03 124.16C116.07 124.16 115.38 123.34 115.38 122.05ZM118.25 122.05C118.25 120.95 117.75 120.34 117.03 120.34C116.31 120.34 115.81 120.95 115.81 122.05C115.81 123.15 116.31 123.77 117.03 123.77C117.75 123.77 118.25 123.13 118.25 122.05Z" fill="white"/>
<path d="M120.43 119.95V124.1H120V120.33H119V119.95H120.43Z" fill="white"/>
<path d="M122.57 119.95V124.1H122.14V120.33H121.14V119.95H122.57Z" fill="white"/>
<path d="M123.56 122.05C123.56 120.73 124.25 119.95 125.21 119.95C126.17 119.95 126.87 120.73 126.87 122.05C126.87 123.37 126.17 124.16 125.21 124.16C124.25 124.16 123.56 123.34 123.56 122.05ZM126.43 122.05C126.43 120.95 125.93 120.34 125.21 120.34C124.49 120.34 124 120.92 124 122.05C124 123.18 124.5 123.77 125.22 123.77C125.94 123.77 126.43 123.13 126.43 122.05Z" fill="white"/>
<path d="M127.47 122.05C127.47 120.73 128.17 119.95 129.13 119.95C130.09 119.95 130.78 120.73 130.78 122.05C130.78 123.37 130.09 124.16 129.13 124.16C128.17 124.16 127.47 123.34 127.47 122.05ZM130.35 122.05C130.35 120.95 129.85 120.34 129.13 120.34C128.41 120.34 127.91 120.95 127.91 122.05C127.91 123.15 128.4 123.77 129.13 123.77C129.86 123.77 130.35 123.13 130.35 122.05Z" fill="white"/>
<path d="M132.53 119.95V124.1H132.1V120.33H131.1V119.95H132.53Z" fill="white"/>
<path d="M133.52 122.05C133.52 120.73 134.21 119.95 135.17 119.95C136.13 119.95 136.83 120.73 136.83 122.05C136.83 123.37 136.13 124.16 135.17 124.16C134.21 124.16 133.52 123.34 133.52 122.05ZM136.39 122.05C136.39 120.95 135.89 120.34 135.17 120.34C134.45 120.34 134 120.92 134 122.05C134 123.18 134.5 123.77 135.22 123.77C135.94 123.77 136.39 123.13 136.39 122.05Z" fill="white"/>
<path d="M138.57 119.95V124.1H138.15V120.33H137.15V119.95H138.57Z" fill="white"/>
<path d="M76.23 339.91L103.73 337.21V298.56H114.63V337.2L142.24 339.91C143.564 340.039 144.794 340.656 145.688 341.641C146.583 342.627 147.079 343.909 147.08 345.24V349.37H71.4V345.24C71.4009 343.911 71.8957 342.629 72.7882 341.645C73.6807 340.66 74.9074 340.041 76.23 339.91Z" fill="#263238"/>
<path opacity="0.2" d="M76.23 339.91L103.73 337.21V298.56H114.63V337.2L142.24 339.91C143.564 340.039 144.794 340.656 145.688 341.641C146.583 342.627 147.079 343.909 147.08 345.24V349.37H71.4V345.24C71.4009 343.911 71.8957 342.629 72.7882 341.645C73.6807 340.66 74.9074 340.041 76.23 339.91Z" fill="white"/>
<path d="M144.17 361.62C148.108 361.62 151.3 358.428 151.3 354.49C151.3 350.552 148.108 347.36 144.17 347.36C140.232 347.36 137.04 350.552 137.04 354.49C137.04 358.428 140.232 361.62 144.17 361.62Z" fill="#263238"/>
<path d="M74.31 361.62C78.2478 361.62 81.44 358.428 81.44 354.49C81.44 350.552 78.2478 347.36 74.31 347.36C70.3722 347.36 67.18 350.552 67.18 354.49C67.18 358.428 70.3722 361.62 74.31 361.62Z" fill="#263238"/>
<path d="M112.36 306.87H105.97C104.875 306.87 103.824 306.435 103.05 305.66C102.275 304.886 101.84 303.835 101.84 302.74V272.45H116.51V302.74C116.51 303.284 116.403 303.823 116.194 304.325C115.985 304.828 115.679 305.284 115.293 305.668C114.908 306.051 114.45 306.355 113.947 306.561C113.443 306.768 112.904 306.873 112.36 306.87Z" fill="#263238"/>
<path opacity="0.3" d="M112.36 306.87H105.97C104.875 306.87 103.824 306.435 103.05 305.66C102.275 304.886 101.84 303.835 101.84 302.74V272.45H116.51V302.74C116.51 303.284 116.403 303.823 116.194 304.325C115.985 304.828 115.679 305.284 115.293 305.668C114.908 306.051 114.45 306.355 113.947 306.561C113.443 306.768 112.904 306.873 112.36 306.87Z" fill="white"/>
<path d="M83.12 212.05C83.12 212.05 81 263.57 95.39 272.44H79C79 272.44 66.32 254.88 69.9 212.05H83.12Z" fill="#263238"/>
<path opacity="0.3" d="M83.12 212.05C83.12 212.05 81 263.57 95.39 272.44H79C79 272.44 66.32 254.88 69.9 212.05H83.12Z" fill="white"/>
<path d="M78.43 265.23H141.85C143.176 265.23 144.448 265.757 145.386 266.694C146.323 267.632 146.85 268.904 146.85 270.23V276.39H73.43V270.23C73.43 268.904 73.9568 267.632 74.8945 266.694C75.8321 265.757 77.1039 265.23 78.43 265.23Z" fill="#263238"/>
<path d="M147.91 270.81H72.38C71.2699 270.81 70.37 271.71 70.37 272.82V274.38C70.37 275.49 71.2699 276.39 72.38 276.39H147.91C149.02 276.39 149.92 275.49 149.92 274.38V272.82C149.92 271.71 149.02 270.81 147.91 270.81Z" fill="#263238"/>
<path opacity="0.6" d="M147.91 270.81H72.38C71.2699 270.81 70.37 271.71 70.37 272.82V274.38C70.37 275.49 71.2699 276.39 72.38 276.39H147.91C149.02 276.39 149.92 275.49 149.92 274.38V272.82C149.92 271.71 149.02 270.81 147.91 270.81Z" fill="white"/>
<path d="M66.54 222.5H91.47C99.5223 222.5 106.05 215.972 106.05 207.92V198.97C106.05 190.918 99.5223 184.39 91.47 184.39H66.54C58.4877 184.39 51.96 190.918 51.96 198.97V207.92C51.96 215.972 58.4877 222.5 66.54 222.5Z" fill="#263238"/>
<path d="M138.13 354.4L146.1 353.31L147.2 334.37L139.25 335.47L138.13 354.4Z" fill="#EBB376"/>
<path opacity="0.2" d="M139.25 335.47L147.2 334.38L146.57 345.2L138.63 345.9L139.25 335.47Z" fill="black"/>
<path d="M138.45 243.05L136.51 230.88L91.85 228.21C91.85 228.21 87.1 253.54 90.75 260.29C97.26 272.34 132.37 266.29 142.64 267.45C136.5 292.56 137.1 341.63 137.1 341.63L151.77 342.75C151.77 342.75 163.06 289.87 165.34 264.75C166.88 247.82 152.83 248.25 138.45 243.05Z" fill="black"/>
<path d="M135.38 342.35L153.01 343.5L154.52 335.95L135.15 335.06L135.38 342.35Z" fill="#263238"/>
<path d="M156.51 347.33L164.53 347.92L169.55 329.63L161.54 329.05L156.51 347.33Z" fill="#EBB376"/>
<path d="M165.64 348.28C165.64 348.28 165.64 348.28 165.64 348.34H165.7C166.334 348.691 167.005 348.972 167.7 349.18C168.203 349.37 168.757 349.37 169.26 349.18C169.425 349.085 169.56 348.946 169.648 348.777C169.737 348.609 169.776 348.419 169.76 348.23C169.77 348.111 169.751 347.991 169.704 347.881C169.656 347.771 169.583 347.675 169.49 347.6C168.771 347.311 167.973 347.29 167.24 347.54C167.816 347.155 168.235 346.577 168.42 345.91C168.434 345.753 168.394 345.596 168.307 345.465C168.22 345.334 168.09 345.237 167.94 345.19C167.814 345.128 167.675 345.096 167.535 345.096C167.395 345.096 167.256 345.128 167.13 345.19C166.13 345.73 165.78 347.97 165.75 348.09H165.61C165.602 348.122 165.6 348.155 165.605 348.188C165.61 348.22 165.622 348.252 165.64 348.28ZM166.24 347.83L166.06 347.89C166.25 347.15 166.65 345.94 167.24 345.63C167.304 345.59 167.375 345.565 167.449 345.555C167.523 345.544 167.598 345.549 167.67 345.57H167.75C168 345.67 168.04 345.82 168.02 345.93C168 346.5 167 347.4 166.24 347.83ZM166.24 348.25C167.3 347.93 168.77 347.64 169.24 347.98C169.285 348.015 169.321 348.061 169.343 348.113C169.366 348.165 169.375 348.223 169.37 348.28C169.378 348.4 169.353 348.52 169.299 348.627C169.244 348.735 169.162 348.825 169.06 348.89C168.61 349.14 167.58 348.9 166.27 348.25H166.24Z" fill="#FF6C37"/>
<path opacity="0.2" d="M161.54 329.05L169.55 329.64L166.68 340.09L158.76 339.12L161.54 329.05Z" fill="black"/>
<path d="M172.27 338.8L158.15 334.65C158.15 334.65 166.58 287.07 175.15 270.57C174.51 270.36 173.66 270.09 172.61 269.78C170.72 269.21 168.21 268.5 165.26 267.68C144.74 261.99 103.15 251.32 103.15 251.32L122.15 233.59C122.15 233.59 197.83 245.13 199.4 265.07C200.13 274.66 172.27 338.8 172.27 338.8Z" fill="black"/>
<path d="M156.33 334.96L173.33 339.77L176.38 332.7L157.62 327.79L156.33 334.96Z" fill="#263238"/>
<path opacity="0.2" d="M172.59 269.78C170.7 269.21 168.19 268.5 165.24 267.68C165.83 262.84 165.84 257.29 163.51 254.46C158.88 248.82 146.97 245.46 140.19 244.31C134.52 243.31 115.47 241.31 115.47 241.31C115.47 241.31 140.19 238.94 165.47 246.31C178 249.97 175.52 262.18 172.59 269.78Z" fill="black"/>
<path d="M165.32 347.11L156.63 344.68C156.485 344.635 156.329 344.649 156.195 344.718C156.06 344.788 155.958 344.906 155.91 345.05L153.57 351.81C153.52 351.99 153.507 352.178 153.53 352.363C153.553 352.548 153.613 352.727 153.706 352.889C153.799 353.051 153.924 353.192 154.072 353.306C154.22 353.419 154.389 353.502 154.57 353.55C157.57 354.35 159.1 354.55 162.93 355.61C166.293 356.695 169.728 357.544 173.21 358.15C176.56 358.53 176.84 355.21 175.46 354.75C172.18 353.65 168.26 350.24 166.55 347.91C166.24 347.514 165.807 347.233 165.32 347.11Z" fill="#263238"/>
<path d="M146.89 353.33H147.06C147.06 353.33 147.24 353.39 147.26 353.41C147.28 353.43 147.26 353.41 147.26 353.46H147.33C148.01 353.671 148.711 353.809 149.42 353.87C149.95 353.968 150.497 353.861 150.95 353.57C151.086 353.446 151.184 353.287 151.235 353.111C151.287 352.934 151.288 352.747 151.24 352.57C151.225 352.451 151.18 352.337 151.11 352.24C151.04 352.142 150.948 352.063 150.84 352.01C150.072 351.881 149.282 352.026 148.61 352.42C149.084 351.924 149.365 351.275 149.4 350.59C149.37 350.427 149.287 350.28 149.164 350.169C149.041 350.059 148.885 349.992 148.72 349.98C148.565 349.953 148.406 349.957 148.253 349.993C148.1 350.03 147.956 350.096 147.83 350.19C146.99 350.91 146.83 353.19 146.83 353.32L146.89 353.33ZM147.76 352.87L147.59 352.96C147.542 352.088 147.781 351.224 148.27 350.5C148.324 350.448 148.389 350.409 148.46 350.385C148.53 350.361 148.606 350.352 148.68 350.36H148.77C149.03 350.41 149.1 350.54 149.11 350.65C148.93 351.524 148.453 352.308 147.76 352.87ZM147.87 353.26C148.87 352.73 150.21 352.14 150.73 352.38C150.783 352.403 150.829 352.441 150.863 352.488C150.896 352.536 150.916 352.592 150.92 352.65C150.951 352.765 150.952 352.887 150.922 353.002C150.892 353.118 150.833 353.224 150.75 353.31C150.34 353.66 149.29 353.64 147.87 353.26Z" fill="#FF6C37"/>
<path d="M146.7 352.35L137.7 351.79C137.55 351.773 137.4 351.816 137.282 351.91C137.164 352.003 137.088 352.14 137.07 352.29L136.19 359.39C136.165 359.763 136.289 360.132 136.534 360.414C136.78 360.697 137.127 360.872 137.5 360.9C140.64 361.04 142.15 360.95 146.11 361.17C149.624 361.533 153.16 361.647 156.69 361.51C160.04 361.18 159.63 357.88 158.19 357.72C154.75 357.33 150.19 354.8 148.05 352.89C147.672 352.565 147.197 352.375 146.7 352.35Z" fill="#263238"/>
<path d="M156.66 197.62C156.66 197.62 159.18 211.28 163.72 213.91C168.26 216.54 199.66 197.78 199.66 197.78L197.03 192.48C197.03 192.48 170.74 199.58 170.49 199.62C170.24 199.66 169.49 193.62 169.49 193.62L156.66 197.62Z" fill="#263238"/>
<path d="M166.46 176.14C168.53 178.7 171.46 197.62 171.46 197.62L156.04 201.21L152.7 191.63L166.46 176.14Z" fill="#FF5B20"/>
<path d="M87.43 243.98L139.18 235.37C139.18 235.37 142.42 204.63 166.46 176.14C166.46 176.14 158.11 157.9 128.41 160.43C98.71 162.96 87.43 243.98 87.43 243.98Z" fill="#FF6C37"/>
<path d="M127.71 186.59C127.71 186.59 127.19 200.81 128.77 201.59C130.35 202.37 160.24 191.53 164.98 190.74C169.72 189.95 180.59 194.1 180.59 194.1L181.59 200.59C181.59 200.59 171.91 200.4 166.47 197.75C166.47 197.75 131.55 218.63 124.03 217.44C116.51 216.25 113.93 188.05 113.93 188.05L127.71 186.59Z" fill="#EBB376"/>
<path d="M127.71 191.63C127.71 191.63 127.82 199.99 129.56 200.63C131.3 201.27 157.16 192.16 157.16 192.16L161.25 201.63C161.25 201.63 128.57 222.72 122.25 217.53C115.93 212.34 114.34 193.75 114.34 193.75L127.71 191.63Z" fill="black"/>
<path d="M123 163.62C132.3 162.62 128.94 195.55 128.94 195.55L113.31 197.78C113.31 197.78 106.62 165.34 123 163.62Z" fill="#FF5B20"/>
<path d="M137.75 161.24C137.75 161.24 137.44 175.7 146.3 177.17C155.16 178.64 156.09 166.87 156.09 166.87C156.09 166.87 150.13 160.45 137.75 161.24Z" fill="#263238"/>
<path d="M160 169.24C158.463 168.698 156.787 168.698 155.25 169.24C154.897 170.745 154.051 172.088 152.845 173.056C151.64 174.024 150.146 174.56 148.6 174.58C147.839 174.619 147.075 174.585 146.32 174.48C138.58 173.42 139.43 161.91 139.43 161.91C142.252 162.104 145.065 161.427 147.49 159.97C149.547 158.765 151.343 157.16 152.77 155.25L160 169.24Z" fill="#EBB376"/>
<path opacity="0.2" d="M160 169.24C158.463 168.698 156.787 168.698 155.25 169.24C154.897 170.745 154.051 172.088 152.845 173.056C151.64 174.024 150.146 174.56 148.6 174.58C146.6 169.65 146.87 164 147.49 159.97C149.547 158.765 151.343 157.16 152.77 155.25L160 169.24Z" fill="black"/>
<path d="M166 146.89C162.55 149.23 164.12 153.19 171.92 159.4C175.09 155.29 175.61 147.31 173.1 145.31C170.59 143.31 169 144.86 166 146.89Z" fill="#263238"/>
<path d="M151.19 153.31C151.56 161.74 151.36 166.69 155.53 171.08C161.81 177.69 172.27 174.01 174.42 165.64C176.35 158.12 175.42 145.64 167.24 142.11C165.44 141.331 163.471 141.025 161.519 141.221C159.568 141.418 157.699 142.11 156.091 143.233C154.482 144.355 153.188 145.87 152.33 147.634C151.472 149.398 151.08 151.352 151.19 153.31Z" fill="#EBB376"/>
<path d="M163.72 155.84C163.72 156.52 164.07 157.08 164.51 157.09C164.95 157.1 165.33 156.55 165.34 155.87C165.35 155.19 165 154.62 164.56 154.61C164.12 154.6 163.78 155.16 163.72 155.84Z" fill="#263238"/>
<path d="M171.51 155.98C171.51 156.66 171.85 157.23 172.3 157.23C172.75 157.23 173.12 156.7 173.14 156C173.16 155.3 172.79 154.76 172.34 154.75C171.89 154.74 171.52 155.29 171.51 155.98Z" fill="#263238"/>
<path d="M169 156.26C169.779 158.369 170.849 160.358 172.18 162.17C171.704 162.494 171.164 162.713 170.596 162.809C170.028 162.906 169.446 162.879 168.89 162.73L169 156.26Z" fill="#D58745"/>
<path d="M175 151.46C174.963 151.525 174.909 151.578 174.844 151.615C174.778 151.652 174.705 151.671 174.63 151.67C174.126 151.624 173.618 151.699 173.148 151.889C172.679 152.078 172.261 152.377 171.93 152.76C171.898 152.802 171.859 152.837 171.814 152.864C171.769 152.891 171.719 152.908 171.667 152.916C171.615 152.923 171.562 152.92 171.511 152.907C171.46 152.894 171.412 152.871 171.37 152.84C171.328 152.81 171.291 152.772 171.264 152.728C171.236 152.684 171.218 152.635 171.209 152.584C171.201 152.533 171.203 152.48 171.215 152.43C171.227 152.379 171.249 152.332 171.28 152.29C171.69 151.799 172.212 151.415 172.802 151.168C173.392 150.92 174.033 150.818 174.67 150.87C174.722 150.871 174.773 150.883 174.821 150.904C174.868 150.926 174.911 150.956 174.947 150.995C174.982 151.033 175.009 151.078 175.027 151.127C175.045 151.176 175.053 151.228 175.05 151.28C175.049 151.343 175.032 151.405 175 151.46Z" fill="#263238"/>
<path d="M167 152.97C166.928 152.994 166.85 152.997 166.776 152.98C166.702 152.962 166.634 152.924 166.58 152.87C166.236 152.497 165.808 152.212 165.331 152.038C164.854 151.865 164.343 151.807 163.84 151.87C163.734 151.888 163.626 151.865 163.536 151.805C163.447 151.746 163.384 151.655 163.36 151.55C163.339 151.447 163.36 151.339 163.418 151.251C163.476 151.163 163.567 151.102 163.67 151.08C164.303 150.985 164.949 151.044 165.555 151.251C166.16 151.458 166.707 151.808 167.15 152.27C167.222 152.348 167.261 152.449 167.261 152.555C167.261 152.661 167.222 152.762 167.15 152.84L167 152.97Z" fill="#263238"/>
<path d="M154.67 145.91C158.58 147.33 158.03 151.56 151.98 159.48C147.91 156.27 145.44 148.66 147.4 146.11C149.36 143.56 151.25 144.68 154.67 145.91Z" fill="#263238"/>
<path d="M147.07 159.98C147.342 160.995 147.811 161.947 148.451 162.781C149.091 163.615 149.889 164.314 150.8 164.84C153.24 166.22 155.13 164.19 155.02 161.54C154.91 159.14 153.51 155.54 150.79 155.24C148.07 154.94 146.4 157.46 147.07 159.98Z" fill="#EBB376"/>
<path d="M162.53 164.13C162.53 164.13 163.99 166.89 168.07 166.76" stroke="#263238" stroke-width="0.526291" stroke-linecap="round" stroke-linejoin="round"/>
<path d="M155.57 148.84C155.57 148.84 158.89 149.01 160.42 151.11C160.831 150.566 161.118 149.938 161.261 149.271C161.404 148.605 161.401 147.915 161.25 147.25C161.25 147.25 165.25 147.74 167.04 150.52C167.539 149.506 167.747 148.374 167.64 147.25C168.399 148.173 168.825 149.325 168.85 150.52C168.85 150.52 171.91 148.58 171.51 146.76C172.269 147.687 172.824 148.764 173.14 149.92C173.14 149.92 175.14 149.23 174.71 145.67C175.381 146.407 175.871 147.29 176.14 148.25C176.14 148.25 178.76 140.82 168.85 136.67C158.94 132.52 147.56 137.44 147.76 145.67C147.96 153.9 155.57 148.84 155.57 148.84Z" fill="#263238"/>
<path d="M168.07 157.23C168.07 159.41 166.59 161.18 164.78 161.18C162.97 161.18 161.48 159.41 161.48 157.23C161.48 155.05 162.96 153.23 164.78 153.23C166.6 153.23 168.07 155.05 168.07 157.23Z" stroke="#263238" stroke-width="0.526291" stroke-linecap="round" stroke-linejoin="round"/>
<path d="M177.08 157.05C177.08 159.23 175.61 161.05 173.79 161.05C171.97 161.05 170.49 159.28 170.49 157.05C170.49 154.82 171.97 153.1 173.79 153.1C175.61 153.1 177.08 154.91 177.08 157.05Z" stroke="#263238" stroke-width="0.526291" stroke-linecap="round" stroke-linejoin="round"/>
<path d="M168.07 157.23C168.391 156.923 168.811 156.74 169.254 156.715C169.698 156.689 170.136 156.822 170.49 157.09" stroke="#263238" stroke-width="0.526291" stroke-linecap="round" stroke-linejoin="round"/>
<path d="M161.48 157.23L153.46 156.54" stroke="#263238" stroke-width="0.526291" stroke-linecap="round" stroke-linejoin="round"/>
<path d="M235.89 197.62V200.27C235.89 201.06 234.53 201.62 233.74 201.62H172C171.21 201.62 169.94 201.06 169.94 200.27V197.62H235.89Z" fill="#263238"/>
<path opacity="0.6" d="M235.89 197.62V200.27C235.89 201.06 234.53 201.62 233.74 201.62H172C171.21 201.62 169.94 201.06 169.94 200.27V197.62H235.89Z" fill="white"/>
<path opacity="0.2" d="M235.89 197.62V200.27C235.89 201.06 234.53 201.62 233.74 201.62H193C192.21 201.62 190.9 201.06 190.9 200.27V197.62H235.89Z" fill="black"/>
<path d="M245.8 165.14L238.45 198.61C238.32 199.156 238.017 199.646 237.586 200.006C237.156 200.366 236.62 200.578 236.06 200.61H195.87C195.613 200.585 195.365 200.504 195.143 200.372C194.921 200.24 194.731 200.06 194.587 199.846C194.442 199.632 194.347 199.389 194.308 199.133C194.269 198.878 194.287 198.618 194.36 198.37L201.71 165.25C201.86 164.744 202.179 164.305 202.614 164.006C203.049 163.707 203.574 163.568 204.1 163.61H244.28C245.36 163.62 246 164.05 245.8 165.14Z" fill="#263238"/>
<path opacity="0.6" d="M245.8 165.14L238.45 198.61C238.32 199.156 238.017 199.646 237.586 200.006C237.156 200.366 236.62 200.578 236.06 200.61H195.87C195.613 200.585 195.365 200.504 195.143 200.372C194.921 200.24 194.731 200.06 194.587 199.846C194.442 199.632 194.347 199.389 194.308 199.133C194.269 198.878 194.287 198.618 194.36 198.37L201.71 165.25C201.86 164.744 202.179 164.305 202.614 164.006C203.049 163.707 203.574 163.568 204.1 163.61H244.28C245.36 163.62 246 164.05 245.8 165.14Z" fill="white"/>
<path opacity="0.4" d="M245.8 165.14L238.45 198.61C238.32 199.156 238.017 199.646 237.586 200.006C237.156 200.366 236.62 200.578 236.06 200.61H197.24C196.982 200.587 196.733 200.506 196.509 200.375C196.286 200.243 196.095 200.064 195.95 199.85C195.804 199.635 195.708 199.392 195.669 199.136C195.629 198.88 195.646 198.618 195.72 198.37L203.08 165.25C203.23 164.744 203.549 164.305 203.984 164.006C204.419 163.707 204.944 163.568 205.47 163.61H244.28C245.36 163.62 246 164.05 245.8 165.14Z" fill="white"/>
<path opacity="0.2" d="M222.16 186.59C224.03 186.59 225.95 184.59 226.44 182.11C226.93 179.63 225.8 177.62 223.92 177.62C223.577 177.627 223.239 177.695 222.92 177.82C222.747 178.704 222.368 179.535 221.813 180.246C221.259 180.957 220.545 181.527 219.73 181.91C219.709 181.976 219.692 182.042 219.68 182.11C219.15 184.58 220.28 186.59 222.16 186.59Z" fill="black"/>
<path d="M271.34 174.11L280.7 183.48L283.87 201.62H264.62L265.41 199.62L275.96 197.62L276.88 186.59L269.89 184.93L271.34 174.11Z" fill="#263238"/>
<path opacity="0.6" d="M283.87 201.62H264.62L265.41 199.62L275.96 197.62L276.88 186.59L275.97 186.37L269.89 184.93L271.34 174.12L280.7 183.48L283.87 201.62Z" fill="white"/>
<path opacity="0.2" d="M279.4 182.18L275.97 186.37L269.89 184.93L271.34 174.12L279.4 182.18Z" fill="black"/>
<path d="M270.25 189.83H259.5C259.396 189.833 259.293 189.813 259.198 189.771C259.103 189.729 259.018 189.667 258.95 189.588C258.882 189.51 258.833 189.417 258.805 189.317C258.777 189.217 258.772 189.112 258.79 189.01L265 142.9C265.036 142.662 265.157 142.444 265.341 142.288C265.525 142.132 265.759 142.047 266 142.05H276.75C276.855 142.045 276.959 142.064 277.055 142.105C277.152 142.147 277.237 142.209 277.307 142.287C277.376 142.366 277.426 142.459 277.454 142.56C277.483 142.661 277.488 142.767 277.47 142.87L271.19 189.05C271.142 189.266 271.023 189.459 270.853 189.6C270.683 189.741 270.471 189.822 270.25 189.83Z" fill="#263238"/>
<path opacity="0.6" d="M270.25 189.83H259.5C259.396 189.833 259.293 189.813 259.198 189.771C259.103 189.729 259.018 189.667 258.95 189.588C258.882 189.51 258.833 189.417 258.805 189.317C258.777 189.217 258.772 189.112 258.79 189.01L265 142.9C265.036 142.662 265.157 142.444 265.341 142.288C265.525 142.132 265.759 142.047 266 142.05H276.75C276.855 142.045 276.959 142.064 277.055 142.105C277.152 142.147 277.237 142.209 277.307 142.287C277.376 142.366 277.426 142.459 277.454 142.56C277.483 142.661 277.488 142.767 277.47 142.87L271.19 189.05C271.142 189.266 271.023 189.459 270.853 189.6C270.683 189.741 270.471 189.822 270.25 189.83Z" fill="white"/>
<path opacity="0.4" d="M267.25 189.83H259.5C259.396 189.833 259.293 189.813 259.198 189.771C259.103 189.729 259.018 189.667 258.95 189.588C258.882 189.51 258.833 189.417 258.805 189.317C258.777 189.217 258.772 189.112 258.79 189.01L265 142.9C265.036 142.662 265.157 142.444 265.341 142.288C265.525 142.132 265.759 142.047 266 142.05H273.75C273.855 142.045 273.959 142.064 274.055 142.105C274.152 142.147 274.237 142.209 274.307 142.287C274.376 142.366 274.426 142.459 274.454 142.56C274.483 142.661 274.488 142.767 274.47 142.87L268.19 189.05C268.142 189.266 268.023 189.459 267.853 189.6C267.683 189.741 267.471 189.822 267.25 189.83Z" fill="white"/>
<path d="M267.71 188.38H259.46L265.53 143.52H273.78L267.71 188.38Z" fill="black"/>
<path d="M196.5 361.62H190.37L179.36 208.37H187.49L196.5 361.62Z" fill="#263238"/>
<path opacity="0.4" d="M196.5 361.62H190.37L179.9 215.99L179.36 208.62H187.49L187.93 215.99L196.5 361.62Z" fill="white"/>
<path opacity="0.2" d="M187.93 215.62H179.9L179.36 208.62H187.49L187.93 215.62Z" fill="black"/>
<path d="M241.46 361.62H235.33L234.33 208.37H242.46L241.46 361.62Z" fill="#263238"/>
<path opacity="0.5" d="M242.46 208.62L242.3 233.35L241.46 361.62H235.33L234.49 233.35L234.33 208.62H242.46Z" fill="white"/>
<path opacity="0.2" d="M242.46 208.62L242.3 233.62H234.49L234.33 208.62H242.46Z" fill="black"/>
<path d="M306.5 361.62H300.37L289.36 208.37H297.49L306.5 361.62Z" fill="#263238"/>
<path opacity="0.5" d="M306.5 361.62H300.37L289.9 215.99L289.36 208.62H297.49L297.93 215.99L306.5 361.62Z" fill="white"/>
<path opacity="0.2" d="M297.93 215.62H289.9L289.36 208.62H297.49L297.93 215.62Z" fill="black"/>
<path d="M126.42 361.62H120.29L129.29 208.37H137.42L126.42 361.62Z" fill="#263238"/>
<path opacity="0.5" d="M137.42 208.62L136.88 215.99L126.41 361.62H120.29L128.85 215.99L129.29 208.62H137.42Z" fill="white"/>
<path opacity="0.2" d="M129.29 208.62H137.42L136.88 215.62H128.85L129.29 208.62Z" fill="black"/>
<path d="M122.85 204.54H303.93V210C303.93 210.573 303.702 211.122 303.297 211.527C302.892 211.932 302.343 212.16 301.77 212.16H125C124.427 212.16 123.878 211.932 123.473 211.527C123.068 211.122 122.84 210.573 122.84 210V204.49L122.85 204.54Z" fill="#263238"/>
<path opacity="0.2" d="M303.93 204.54H122.85V208.38H303.93V204.54Z" fill="black"/>
<path d="M307.73 205.54H119.06C118.486 205.54 117.936 205.313 117.529 204.908C117.122 204.503 116.893 203.954 116.89 203.38C116.89 202.804 117.119 202.253 117.526 201.846C117.933 201.439 118.484 201.21 119.06 201.21H307.73C308.304 201.213 308.853 201.442 309.258 201.849C309.663 202.256 309.89 202.806 309.89 203.38C309.89 203.664 309.834 203.944 309.726 204.207C309.617 204.469 309.458 204.707 309.257 204.907C309.057 205.108 308.819 205.267 308.557 205.376C308.295 205.484 308.014 205.54 307.73 205.54Z" fill="#263238"/>
</g>
<defs>
<clipPath id="clip0_4253_26503">
<rect width="500" height="372.61" fill="white"/>
</clipPath>
</defs>
</svg>
