<svg width="470" height="350" viewBox="0 0 470 350" fill="none" xmlns="http://www.w3.org/2000/svg">
<g clip-path="url(#clip0_1370_22507)">
<path d="M469.66 307.58H0V307.815H469.66V307.58Z" fill="#EBEBEB"/>
<path d="M422.599 322.694H391.488V322.929H422.599V322.694Z" fill="#EBEBEB"/>
<path d="M311.12 325.249H302.957V325.484H311.12V325.249Z" fill="#EBEBEB"/>
<path d="M390.549 313.977H372.523V314.212H390.549V313.977Z" fill="#EBEBEB"/>
<path d="M89.8466 315.555H49.2773V315.79H89.8466V315.555Z" fill="#EBEBEB"/>
<path d="M104.161 315.555H98.2148V315.79H104.161V315.555Z" fill="#EBEBEB"/>
<path d="M211.488 319.519H123.492V319.754H211.488V319.519Z" fill="#EBEBEB"/>
<path d="M222.618 265.687H41.2447C39.8239 265.684 38.4621 265.118 37.4582 264.112C36.4544 263.107 35.8906 261.744 35.8906 260.323V5.36352C35.903 3.9508 36.4722 2.60002 37.4747 1.60456C38.4772 0.60911 39.832 0.0493866 41.2447 0.0469666H222.618C224.041 0.0469666 225.405 0.61205 226.411 1.6179C227.416 2.62376 227.982 3.98799 227.982 5.41048V260.323C227.982 261.746 227.416 263.11 226.411 264.116C225.405 265.122 224.041 265.687 222.618 265.687ZM41.2447 0.234831C39.8862 0.23732 38.5841 0.778758 37.6243 1.7403C36.6645 2.70185 36.1255 4.00493 36.1255 5.36352V260.323C36.1255 261.682 36.6645 262.985 37.6243 263.946C38.5841 264.908 39.8862 265.449 41.2447 265.452H222.618C223.977 265.449 225.281 264.908 226.242 263.947C227.203 262.986 227.744 261.683 227.747 260.323V5.36352C227.744 4.00407 227.203 2.70101 226.242 1.73973C225.281 0.778453 223.977 0.237314 222.618 0.234831H41.2447Z" fill="#EBEBEB"/>
<path d="M425.805 265.687H244.422C243 265.684 241.638 265.118 240.632 264.113C239.627 263.108 239.061 261.745 239.059 260.323V5.36352C239.073 3.94995 239.645 2.59917 240.649 1.60398C241.653 0.608782 243.008 0.0493602 244.422 0.0469666H425.805C427.216 0.0518552 428.568 0.612671 429.569 1.60786C430.569 2.60305 431.137 3.95243 431.15 5.36352V260.323C431.15 261.742 430.587 263.104 429.585 264.109C428.583 265.114 427.224 265.682 425.805 265.687ZM244.422 0.234831C243.063 0.237314 241.76 0.778453 240.798 1.73973C239.837 2.70101 239.296 4.00407 239.293 5.36352V260.323C239.296 261.683 239.837 262.986 240.798 263.947C241.76 264.908 243.063 265.449 244.422 265.452H425.805C427.164 265.449 428.467 264.908 429.429 263.947C430.39 262.986 430.931 261.683 430.933 260.323V5.36352C430.931 4.00407 430.39 2.70101 429.429 1.73973C428.467 0.778453 427.164 0.237314 425.805 0.234831H244.422Z" fill="#EBEBEB"/>
<path d="M147.024 223.154L134.014 234.032L152.547 260.971L167.351 252.705C175.286 260.326 184.588 266.381 194.769 270.552L193.266 287.394L225.438 293.321L230.05 277.052C241.033 276.802 251.869 274.475 261.987 270.195L272.864 283.205L299.804 264.672L291.557 249.906C299.18 241.976 305.235 232.676 309.404 222.497L326.237 224L332.183 191.847L315.913 187.225C315.656 176.243 313.33 165.408 309.056 155.288L322.066 144.411L303.533 117.481L288.72 125.737C280.788 118.117 271.489 112.062 261.311 107.89L262.814 91.0483L230.661 85.1118L226.049 101.371C215.067 101.633 204.233 103.959 194.112 108.228L183.169 95.1625L156.248 113.705L164.504 128.508C156.884 136.444 150.829 145.746 146.657 155.927L129.815 154.424L123.879 186.577L140.139 191.189C140.399 202.183 142.736 213.028 147.024 223.154ZM184.512 181.138C186.103 172.53 190.211 164.587 196.317 158.314C202.422 152.041 210.251 147.719 218.813 145.895C227.374 144.07 236.285 144.826 244.417 148.066C252.549 151.306 259.538 156.885 264.5 164.097C269.462 171.309 272.173 179.83 272.292 188.583C272.411 197.337 269.931 205.928 265.167 213.272C260.403 220.616 253.568 226.382 245.526 229.842C237.485 233.301 228.598 234.298 219.99 232.707C208.447 230.573 198.224 223.942 191.571 214.271C184.917 204.6 182.378 192.682 184.512 181.138Z" fill="#F0F0F0"/>
<path d="M363.873 206.538L374.036 208.416L375.492 203.278C378.968 203.194 382.396 202.458 385.599 201.108L389.037 205.223L397.557 199.361L394.946 194.665C397.355 192.16 399.267 189.221 400.582 186.004L405.908 186.474L407.786 176.32L402.639 174.854C402.562 171.378 401.826 167.949 400.469 164.747L404.583 161.309L398.722 152.799L394.025 155.41C391.516 153.007 388.579 151.095 385.365 149.775L385.834 144.458L375.671 142.579L374.215 147.717C370.74 147.802 367.311 148.538 364.108 149.887L360.698 145.773L352.178 151.634L354.79 156.331C352.38 158.836 350.468 161.774 349.154 164.992L343.828 164.522L341.949 174.676L347.087 176.141C347.168 179.617 347.905 183.046 349.257 186.248L345.143 189.686L351.004 198.197L355.701 195.585C358.209 197.995 361.151 199.907 364.371 201.221L363.873 206.538ZM361.102 172.957C361.603 170.234 362.901 167.721 364.831 165.736C366.761 163.751 369.237 162.383 371.945 161.805C374.652 161.227 377.471 161.465 380.043 162.489C382.615 163.513 384.826 165.277 386.396 167.558C387.965 169.839 388.823 172.534 388.861 175.302C388.898 178.071 388.114 180.788 386.607 183.111C385.1 185.433 382.938 187.257 380.394 188.35C377.851 189.444 375.04 189.758 372.317 189.254C368.671 188.576 365.443 186.48 363.34 183.425C361.237 180.369 360.433 176.605 361.102 172.957Z" fill="#F0F0F0"/>
<path d="M78.6221 235.478L86.3621 236.915L87.4799 232.998C90.1248 232.931 92.7339 232.37 95.173 231.345L97.7937 234.473L104.284 230.011L102.293 226.423C104.125 224.521 105.581 222.29 106.586 219.848L110.644 220.205L112.071 212.465L108.154 211.394C108.096 208.745 107.535 206.131 106.501 203.692L109.638 201.071L105.167 194.589L101.607 196.581C99.7032 194.749 97.473 193.29 95.0321 192.279L95.3984 188.23L87.649 186.793L86.5406 190.71C83.8927 190.778 81.2806 191.338 78.8382 192.363L76.2269 189.235L69.7362 193.697L71.7275 197.267C69.8948 199.168 68.4383 201.399 67.4349 203.842L63.377 203.485L61.9492 211.225L65.838 212.333C65.8963 214.982 66.4573 217.596 67.4912 220.036L64.3539 222.666L68.8157 229.147L72.3851 227.165C74.2904 228.993 76.5204 230.449 78.9603 231.458L78.6221 235.478ZM76.5181 209.9C76.9023 207.829 77.892 205.919 79.3619 204.41C80.8319 202.901 82.7161 201.862 84.7764 201.424C86.8368 200.986 88.9807 201.169 90.9372 201.95C92.8938 202.73 94.575 204.073 95.7684 205.808C96.9619 207.544 97.6139 209.595 97.6422 211.701C97.6704 213.807 97.0735 215.874 95.927 217.641C94.7806 219.408 93.1359 220.796 91.201 221.628C89.2661 222.461 87.1278 222.701 85.0565 222.318C82.2782 221.803 79.8182 220.205 78.2172 217.876C76.6162 215.548 76.005 212.679 76.5181 209.9Z" fill="#F0F0F0"/>
<path d="M216.842 62.9814L222.703 64.0616L223.558 61.1028C225.564 61.0626 227.544 60.6385 229.391 59.8535L231.373 62.2299L236.276 58.8484L234.773 56.1525C236.161 54.7056 237.263 53.0103 238.023 51.1554L241.085 51.4278L242.166 45.5758L239.207 44.7304C239.158 42.7282 238.734 40.7529 237.958 38.9066L240.325 36.9247L236.952 32.0214L234.257 33.5243C232.81 32.1369 231.114 31.0344 229.259 30.2743L229.532 27.2121L223.67 26.1225L222.834 29.0907C220.831 29.13 218.854 29.5542 217.011 30.34L215.029 27.9636L210.116 31.3451L211.628 34.041C210.238 35.4858 209.135 37.1816 208.378 39.0381L205.307 38.7657L204.227 44.6177L207.185 45.4631C207.233 47.4655 207.657 49.4411 208.435 51.2869L206.068 53.2688L209.449 58.1721L212.145 56.6692C213.587 58.0579 215.28 59.1607 217.133 59.9192L216.842 62.9814ZM215.254 43.622C215.544 42.0549 216.293 40.609 217.405 39.4672C218.516 38.3253 219.942 37.5387 221.501 37.2069C223.059 36.875 224.682 37.0128 226.162 37.6028C227.643 38.1928 228.915 39.2085 229.819 40.5215C230.722 41.8345 231.216 43.3859 231.237 44.9795C231.259 46.5731 230.808 48.1374 229.941 49.4746C229.074 50.8118 227.83 51.8619 226.366 52.4921C224.902 53.1223 223.284 53.3044 221.717 53.0152C219.618 52.6271 217.758 51.422 216.547 49.6645C215.335 47.907 214.87 45.7407 215.254 43.6408V43.622Z" fill="#F0F0F0"/>
<path d="M314.191 110.126L318.099 110.84L318.653 108.867C319.99 108.835 321.31 108.552 322.542 108.031L323.866 109.619L327.135 107.364L326.13 105.561C327.056 104.599 327.792 103.471 328.3 102.236L330.348 102.414L331.071 98.5065L329.089 97.9429C329.059 96.6093 328.779 95.2933 328.262 94.0635L329.84 92.7391L327.586 89.4702L325.792 90.4753C324.825 89.551 323.694 88.8151 322.457 88.3055L322.636 86.2577L318.728 85.5345L318.174 87.5164C316.837 87.545 315.518 87.8255 314.285 88.343L312.961 86.765L309.692 89.0194L310.697 90.8135C309.773 91.7804 309.037 92.9112 308.527 94.148L306.48 93.9696L305.766 97.8677L307.738 98.4313C307.765 99.7692 308.049 101.089 308.574 102.32L306.987 103.635L309.241 106.913L311.045 105.908C312.007 106.834 313.135 107.571 314.37 108.078L314.191 110.126ZM313.13 97.2102C313.322 96.1629 313.821 95.1962 314.564 94.4325C315.306 93.6688 316.258 93.1424 317.299 92.92C318.341 92.6975 319.425 92.789 320.414 93.1828C321.403 93.5766 322.254 94.2551 322.857 95.1323C323.461 96.0096 323.791 97.0462 323.805 98.111C323.82 99.1758 323.518 100.221 322.938 101.114C322.358 102.007 321.526 102.708 320.548 103.129C319.57 103.549 318.488 103.67 317.441 103.475C316.039 103.215 314.798 102.409 313.99 101.235C313.181 100.06 312.872 98.6126 313.13 97.2102Z" fill="#F0F0F0"/>
<path d="M134.087 63.0472L137.995 63.7704L138.549 61.7979C139.886 61.7614 141.204 61.478 142.438 60.9619L143.762 62.5399L147.031 60.2855L146.026 58.4915C146.952 57.5261 147.688 56.3948 148.196 55.1569L150.244 55.3447L150.967 51.4372L148.985 50.8736C148.955 49.537 148.675 48.2178 148.158 46.9848L149.736 45.6697L147.482 42.3915L145.679 43.3966C144.719 42.4702 143.59 41.7367 142.353 41.2361L142.532 39.1884L138.624 38.4651L138.079 40.4377C136.742 40.4695 135.423 40.7531 134.191 41.2737L132.866 39.6957L129.626 41.9406L130.631 43.7441C129.704 44.7095 128.968 45.8408 128.461 47.0787L126.413 46.8909L125.699 50.7984L127.672 51.362C127.699 52.6968 127.983 54.0139 128.508 55.2414L126.92 56.5658L129.175 59.8441L130.978 58.839C131.941 59.7622 133.069 60.4952 134.303 60.9994L134.087 63.0472ZM133.026 50.1409C133.218 49.0936 133.717 48.1269 134.46 47.3632C135.202 46.5995 136.154 46.0731 137.195 45.8507C138.237 45.6282 139.321 45.7197 140.31 46.1135C141.299 46.5073 142.15 47.1858 142.753 48.063C143.357 48.9403 143.687 49.9769 143.701 51.0417C143.716 52.1065 143.414 53.1516 142.834 54.0448C142.254 54.938 141.422 55.6391 140.444 56.0595C139.466 56.4798 138.384 56.6005 137.337 56.4062C135.935 56.146 134.694 55.3401 133.886 54.1654C133.077 52.9908 132.768 51.5433 133.026 50.1409Z" fill="#F0F0F0"/>
<path d="M307.74 271.285C307.79 273.618 308.284 275.919 309.196 278.067L306.435 280.378L310.37 286.079L313.508 284.332C315.193 285.938 317.165 287.213 319.322 288.089L319.003 291.659L325.822 292.918L326.761 289.47C329.09 289.41 331.387 288.916 333.534 288.014L335.845 290.766L341.556 286.84L339.846 283.722C341.454 282.037 342.728 280.065 343.603 277.907L347.173 278.227L348.488 271.417L345.041 270.477C344.991 268.145 344.497 265.843 343.585 263.695L346.346 261.394L342.42 255.683L339.236 257.421C337.556 255.811 335.586 254.536 333.431 253.663L333.741 250.085L326.93 248.826L325.991 252.273C323.66 252.333 321.36 252.827 319.209 253.729L316.899 250.977L311.187 254.903L312.944 258.041C311.337 259.725 310.062 261.698 309.187 263.855L305.617 263.536L304.34 270.308L307.74 271.285ZM317.133 269.162C317.468 267.333 318.338 265.645 319.633 264.311C320.928 262.976 322.59 262.057 324.408 261.668C326.226 261.279 328.119 261.438 329.846 262.125C331.574 262.813 333.058 263.998 334.112 265.53C335.166 267.061 335.741 268.872 335.766 270.731C335.79 272.59 335.262 274.414 334.248 275.973C333.235 277.532 331.782 278.755 330.073 279.487C328.363 280.219 326.476 280.428 324.648 280.086C322.207 279.628 320.047 278.221 318.64 276.174C317.234 274.126 316.695 271.605 317.143 269.162H317.133Z" fill="#F0F0F0"/>
<path d="M366.74 230.838L356.248 234.68L366.74 238.493V242.392L351.711 236.69V232.594L366.74 226.893V230.838Z" fill="#E0E0E0"/>
<path d="M378.031 219.172H382.418L372.019 248.863H367.633L378.031 219.172Z" fill="#E0E0E0"/>
<path d="M397.99 232.632V236.756L382.961 242.457V238.522L393.453 234.708L382.961 230.866V226.958L397.99 232.632Z" fill="#E0E0E0"/>
<path d="M105.993 280.979C107.495 281.43 108.191 282.378 108.191 284.642V289.874C108.147 290.199 108.178 290.53 108.282 290.842C108.385 291.153 108.559 291.437 108.789 291.671C109.02 291.905 109.3 292.083 109.61 292.191C109.92 292.3 110.25 292.336 110.576 292.298H111.168V296.29H109.29C105.194 296.29 103.099 294.195 103.099 290.428V284.511C103.099 283.459 102.545 282.97 101.662 282.97H100.582V279.025H101.662C102.545 279.025 103.099 278.537 103.099 277.485V271.51C103.099 267.753 105.194 265.658 109.29 265.658H111.168V269.632H110.576C110.25 269.593 109.92 269.629 109.61 269.738C109.3 269.847 109.02 270.025 108.789 270.259C108.559 270.493 108.385 270.776 108.282 271.088C108.178 271.399 108.147 271.73 108.191 272.055V277.287C108.191 279.57 107.495 280.519 105.993 280.979Z" fill="#E0E0E0"/>
<path d="M132.031 279.025V283.017H130.95C130.748 282.999 130.544 283.027 130.353 283.1C130.163 283.172 129.992 283.287 129.853 283.436C129.713 283.584 129.609 283.762 129.549 283.956C129.489 284.151 129.473 284.356 129.504 284.558V290.475C129.504 294.233 127.409 296.337 123.323 296.337H121.445V292.345H122.036C122.362 292.383 122.693 292.347 123.003 292.238C123.312 292.13 123.593 291.952 123.823 291.718C124.054 291.484 124.227 291.2 124.331 290.889C124.435 290.577 124.466 290.246 124.422 289.921V284.661C124.422 282.397 125.108 281.448 126.611 280.998C125.108 280.537 124.422 279.589 124.422 277.325V272.074C124.47 271.746 124.441 271.41 124.337 271.095C124.234 270.78 124.059 270.492 123.826 270.256C123.593 270.019 123.309 269.84 122.995 269.732C122.681 269.623 122.347 269.589 122.018 269.632H121.426V265.64H123.304C127.39 265.64 129.485 267.734 129.485 271.492V277.419C129.454 277.62 129.47 277.826 129.53 278.02C129.591 278.214 129.694 278.392 129.834 278.541C129.973 278.689 130.144 278.804 130.335 278.876C130.525 278.949 130.729 278.977 130.932 278.959L132.031 279.025Z" fill="#E0E0E0"/>
<path d="M92.5117 90.3438C92.5117 83.9001 97.4525 79.2974 104.103 79.2974C105.755 79.2238 107.403 79.5233 108.923 80.1738C110.443 80.8243 111.798 81.8089 112.886 83.0547L109.711 85.976C109.059 85.186 108.24 84.5516 107.312 84.1193C106.384 83.687 105.371 83.4677 104.347 83.4774C103.428 83.4433 102.512 83.5948 101.653 83.9229C100.795 84.251 100.011 84.7489 99.3488 85.3868C98.6868 86.0247 98.1602 86.7895 97.8006 87.6356C97.4409 88.4817 97.2555 89.3916 97.2555 90.3109C97.2555 91.2303 97.4409 92.1402 97.8006 92.9862C98.1602 93.8323 98.6868 94.5972 99.3488 95.2351C100.011 95.873 100.795 96.3709 101.653 96.6989C102.512 97.027 103.428 97.1785 104.347 97.1445C105.375 97.1558 106.392 96.9334 107.321 96.494C108.25 96.0547 109.067 95.4098 109.711 94.6083L112.886 97.539C111.803 98.8015 110.446 99.801 108.92 100.462C107.393 101.122 105.736 101.427 104.075 101.353C97.4525 101.381 92.5117 96.7969 92.5117 90.3438Z" fill="#E0E0E0"/>
<path d="M129.919 92.2036H124.612V97.3887H120.676V92.2036H115.406V88.4464H120.676V83.2519H124.612V88.4464H129.919V92.2036Z" fill="#E0E0E0"/>
<path d="M148.413 92.2036H143.105V97.3887H139.17V92.2036H133.891V88.4464H139.17V83.2519H143.105V88.4464H148.413V92.2036Z" fill="#E0E0E0"/>
<path d="M171.012 197.896L174.093 194.195C175.398 195.942 176.845 196.835 178.554 196.835C180.79 196.835 181.955 195.491 181.955 192.852V181.43H173.501V176.968H187.469V192.542C187.469 198.478 184.482 201.4 178.817 201.4C177.335 201.455 175.859 201.168 174.505 200.56C173.151 199.953 171.956 199.041 171.012 197.896Z" fill="#E0E0E0"/>
<path d="M190.812 199.267L192.56 195.426C194.501 196.582 196.716 197.198 198.975 197.21C201.446 197.21 202.376 196.562 202.376 195.529C202.376 192.514 191.226 195.595 191.226 188.221C191.226 184.717 194.382 182.247 199.764 182.247C202.231 182.199 204.671 182.754 206.875 183.862L205.09 187.676C203.467 186.756 201.63 186.279 199.764 186.295C197.369 186.295 196.336 187.056 196.336 188.014C196.336 191.17 207.485 188.118 207.485 195.388C207.485 198.826 204.301 201.259 198.769 201.259C195.988 201.306 193.243 200.619 190.812 199.267Z" fill="#E0E0E0"/>
<path d="M234.832 350C335.416 350 416.957 345.239 416.957 339.367C416.957 333.494 335.416 328.734 234.832 328.734C134.247 328.734 52.707 333.494 52.707 339.367C52.707 345.239 134.247 350 234.832 350Z" fill="#F5F5F5"/>
<path d="M306.152 35.7505H278.132C276.955 35.7505 276 36.7052 276 37.8828V65.9027C276 67.0803 276.955 68.0349 278.132 68.0349H306.152C307.33 68.0349 308.284 67.0803 308.284 65.9027V37.8828C308.284 36.7052 307.33 35.7505 306.152 35.7505Z" fill="#FF6C37"/>
<path d="M287.808 50.1879L282.172 52.245L287.808 54.2833V56.4062L279.805 53.3534V51.1742L287.808 48.1214V50.1879Z" fill="white"/>
<path d="M293.838 43.9696H296.177L290.616 59.8159H288.277L293.838 43.9696Z" fill="white"/>
<path d="M304.48 51.1554V53.3346L296.477 56.4062V54.3021L302.112 52.2638L296.477 50.2067V48.1214L304.48 51.1554Z" fill="white"/>
<path d="M375.203 52.9589H347.183C346.005 52.9589 345.051 53.9135 345.051 55.0911V83.111C345.051 84.2887 346.005 85.2433 347.183 85.2433H375.203C376.381 85.2433 377.335 84.2887 377.335 83.111V55.0911C377.335 53.9135 376.381 52.9589 375.203 52.9589Z" fill="#407BFF"/>
<path d="M254.611 49.8121H139.535V133.111H254.611V49.8121Z" fill="black"/>
<path opacity="0.9" d="M254.611 49.8121H139.535V133.111H254.611V49.8121Z" fill="white"/>
<path opacity="0.1" d="M155.56 49.8121H139.535V133.111H155.56V49.8121Z" fill="black"/>
<path d="M254.611 49.8121H139.535V57.5991H254.611V49.8121Z" fill="#FF6C37"/>
<g opacity="0.2">
<path d="M185.712 69.35H164.756C164.507 69.35 164.268 69.251 164.092 69.0749C163.915 68.8987 163.816 68.6598 163.816 68.4107C163.816 68.1615 163.915 67.9226 164.092 67.7465C164.268 67.5703 164.507 67.4713 164.756 67.4713H185.712C185.961 67.4713 186.2 67.5703 186.376 67.7465C186.552 67.9226 186.651 68.1615 186.651 68.4107C186.651 68.6598 186.552 68.8987 186.376 69.0749C186.2 69.251 185.961 69.35 185.712 69.35Z" fill="black"/>
<path d="M232.01 69.35H191.291C191.042 69.35 190.803 69.251 190.627 69.0749C190.451 68.8987 190.352 68.6598 190.352 68.4107C190.352 68.1615 190.451 67.9226 190.627 67.7465C190.803 67.5703 191.042 67.4713 191.291 67.4713H232.01C232.26 67.4713 232.498 67.5703 232.675 67.7465C232.851 67.9226 232.95 68.1615 232.95 68.4107C232.95 68.6598 232.851 68.8987 232.675 69.0749C232.498 69.251 232.26 69.35 232.01 69.35Z" fill="black"/>
<path d="M222.316 75.4837H167.572C167.323 75.4837 167.084 75.3848 166.908 75.2086C166.732 75.0325 166.633 74.7935 166.633 74.5444C166.633 74.2953 166.732 74.0564 166.908 73.8802C167.084 73.7041 167.323 73.6051 167.572 73.6051H222.316C222.565 73.6051 222.804 73.7041 222.98 73.8802C223.156 74.0564 223.255 74.2953 223.255 74.5444C223.255 74.7935 223.156 75.0325 222.98 75.2086C222.804 75.3848 222.565 75.4837 222.316 75.4837Z" fill="black"/>
<path d="M200.018 81.6081H164.756C164.507 81.6081 164.268 81.5092 164.092 81.333C163.915 81.1568 163.816 80.9179 163.816 80.6688C163.816 80.4197 163.915 80.1808 164.092 80.0046C164.268 79.8284 164.507 79.7295 164.756 79.7295H200.018C200.267 79.7295 200.506 79.8284 200.682 80.0046C200.858 80.1808 200.957 80.4197 200.957 80.6688C200.957 80.9179 200.858 81.1568 200.682 81.333C200.506 81.5092 200.267 81.6081 200.018 81.6081Z" fill="black"/>
<path d="M232.008 81.6081H206.74C206.491 81.6081 206.252 81.5092 206.076 81.333C205.9 81.1568 205.801 80.9179 205.801 80.6688C205.801 80.4197 205.9 80.1808 206.076 80.0046C206.252 79.8284 206.491 79.7295 206.74 79.7295H232.008C232.257 79.7295 232.496 79.8284 232.672 80.0046C232.848 80.1808 232.947 80.4197 232.947 80.6688C232.947 80.9179 232.848 81.1568 232.672 81.333C232.496 81.5092 232.257 81.6081 232.008 81.6081Z" fill="black"/>
<path d="M184.228 87.7419H164.756C164.507 87.7419 164.268 87.6429 164.092 87.4668C163.915 87.2906 163.816 87.0517 163.816 86.8026C163.816 86.5534 163.915 86.3145 164.092 86.1384C164.268 85.9622 164.507 85.8632 164.756 85.8632H184.228C184.477 85.8632 184.716 85.9622 184.892 86.1384C185.068 86.3145 185.167 86.5534 185.167 86.8026C185.167 87.0517 185.068 87.2906 184.892 87.4668C184.716 87.6429 184.477 87.7419 184.228 87.7419Z" fill="black"/>
<path d="M221.196 87.7419H190.537C190.288 87.7419 190.049 87.6429 189.873 87.4668C189.697 87.2906 189.598 87.0517 189.598 86.8026C189.598 86.5534 189.697 86.3145 189.873 86.1384C190.049 85.9622 190.288 85.8632 190.537 85.8632H221.196C221.446 85.8632 221.684 85.9622 221.861 86.1384C222.037 86.3145 222.136 86.5534 222.136 86.8026C222.136 87.0517 222.037 87.2906 221.861 87.4668C221.684 87.6429 221.446 87.7419 221.196 87.7419Z" fill="black"/>
<path d="M193.77 93.8756H167.572C167.323 93.8756 167.084 93.7767 166.908 93.6005C166.732 93.4244 166.633 93.1854 166.633 92.9363C166.633 92.6872 166.732 92.4483 166.908 92.2721C167.084 92.096 167.323 91.997 167.572 91.997H193.77C194.019 91.997 194.258 92.096 194.434 92.2721C194.61 92.4483 194.709 92.6872 194.709 92.9363C194.709 93.1854 194.61 93.4244 194.434 93.6005C194.258 93.7767 194.019 93.8756 193.77 93.8756Z" fill="black"/>
<path d="M197.048 100.009H167.572C167.323 100.009 167.084 99.9104 166.908 99.7343C166.732 99.5581 166.633 99.3192 166.633 99.0701C166.633 98.8209 166.732 98.582 166.908 98.4059C167.084 98.2297 167.323 98.1308 167.572 98.1308H197.048C197.297 98.1308 197.536 98.2297 197.712 98.4059C197.888 98.582 197.987 98.8209 197.987 99.0701C197.987 99.3192 197.888 99.5581 197.712 99.7343C197.536 99.9104 197.297 100.009 197.048 100.009Z" fill="black"/>
<path d="M232.009 100.009H201.951C201.702 100.009 201.463 99.9104 201.287 99.7343C201.111 99.5581 201.012 99.3192 201.012 99.0701C201.012 98.8209 201.111 98.582 201.287 98.4059C201.463 98.2297 201.702 98.1308 201.951 98.1308H232.009C232.258 98.1308 232.497 98.2297 232.673 98.4059C232.85 98.582 232.949 98.8209 232.949 99.0701C232.949 99.3192 232.85 99.5581 232.673 99.7343C232.497 99.9104 232.258 100.009 232.009 100.009Z" fill="black"/>
<path d="M181.624 106.134H164.717C164.468 106.134 164.229 106.035 164.052 105.859C163.876 105.682 163.777 105.444 163.777 105.194C163.777 104.945 163.876 104.706 164.052 104.53C164.229 104.354 164.468 104.255 164.717 104.255H181.624C181.874 104.255 182.112 104.354 182.289 104.53C182.465 104.706 182.564 104.945 182.564 105.194C182.564 105.444 182.465 105.682 182.289 105.859C182.112 106.035 181.874 106.134 181.624 106.134Z" fill="black"/>
<path d="M232.008 106.134H187.381C187.132 106.134 186.893 106.035 186.717 105.859C186.54 105.682 186.441 105.444 186.441 105.194C186.441 104.945 186.54 104.706 186.717 104.53C186.893 104.354 187.132 104.255 187.381 104.255H232.008C232.257 104.255 232.496 104.354 232.672 104.53C232.848 104.706 232.947 104.945 232.947 105.194C232.947 105.444 232.848 105.682 232.672 105.859C232.496 106.035 232.257 106.134 232.008 106.134Z" fill="black"/>
<path d="M196.86 112.268H167.572C167.323 112.268 167.084 112.169 166.908 111.992C166.732 111.816 166.633 111.577 166.633 111.328C166.633 111.079 166.732 110.84 166.908 110.664C167.084 110.488 167.323 110.389 167.572 110.389H196.86C197.109 110.389 197.348 110.488 197.524 110.664C197.7 110.84 197.799 111.079 197.799 111.328C197.799 111.577 197.7 111.816 197.524 111.992C197.348 112.169 197.109 112.268 196.86 112.268Z" fill="black"/>
<path d="M219.903 112.268H200.947C200.698 112.268 200.459 112.169 200.283 111.992C200.107 111.816 200.008 111.577 200.008 111.328C200.008 111.079 200.107 110.84 200.283 110.664C200.459 110.488 200.698 110.389 200.947 110.389H219.903C220.152 110.389 220.391 110.488 220.567 110.664C220.743 110.84 220.842 111.079 220.842 111.328C220.842 111.577 220.743 111.816 220.567 111.992C220.391 112.169 220.152 112.268 219.903 112.268Z" fill="black"/>
<path d="M201.284 118.401H167.572C167.323 118.401 167.084 118.302 166.908 118.126C166.732 117.95 166.633 117.711 166.633 117.462C166.633 117.213 166.732 116.974 166.908 116.798C167.084 116.622 167.323 116.523 167.572 116.523H201.284C201.533 116.523 201.772 116.622 201.949 116.798C202.125 116.974 202.224 117.213 202.224 117.462C202.224 117.711 202.125 117.95 201.949 118.126C201.772 118.302 201.533 118.401 201.284 118.401Z" fill="black"/>
</g>
<path opacity="0.4" d="M249.661 55.3635C250.548 55.3635 251.267 54.6444 251.267 53.7573C251.267 52.8702 250.548 52.151 249.661 52.151C248.774 52.151 248.055 52.8702 248.055 53.7573C248.055 54.6444 248.774 55.3635 249.661 55.3635Z" fill="white"/>
<path opacity="0.4" d="M244.016 55.3635C244.903 55.3635 245.623 54.6444 245.623 53.7573C245.623 52.8702 244.903 52.151 244.016 52.151C243.129 52.151 242.41 52.8702 242.41 53.7573C242.41 54.6444 243.129 55.3635 244.016 55.3635Z" fill="white"/>
<path opacity="0.4" d="M238.38 55.3635C239.267 55.3635 239.986 54.6444 239.986 53.7573C239.986 52.8702 239.267 52.151 238.38 52.151C237.493 52.151 236.773 52.8702 236.773 53.7573C236.773 54.6444 237.493 55.3635 238.38 55.3635Z" fill="white"/>
<g opacity="0.2">
<path d="M147.83 69.35C147.581 69.35 147.342 69.251 147.166 69.0749C146.99 68.8987 146.891 68.6598 146.891 68.4107C146.891 68.1615 146.99 67.9226 147.166 67.7465C147.342 67.5703 147.581 67.4713 147.83 67.4713C148.079 67.4713 148.318 67.5703 148.494 67.7465C148.67 67.9226 148.769 68.1615 148.769 68.4107C148.769 68.6598 148.67 68.8987 148.494 69.0749C148.318 69.251 148.079 69.35 147.83 69.35Z" fill="black"/>
<path d="M147.83 75.4837C147.581 75.4837 147.342 75.3848 147.166 75.2086C146.99 75.0325 146.891 74.7935 146.891 74.5444C146.891 74.2953 146.99 74.0564 147.166 73.8802C147.342 73.7041 147.581 73.6051 147.83 73.6051C148.079 73.6051 148.318 73.7041 148.494 73.8802C148.67 74.0564 148.769 74.2953 148.769 74.5444C148.769 74.7935 148.67 75.0325 148.494 75.2086C148.318 75.3848 148.079 75.4837 147.83 75.4837Z" fill="black"/>
<path d="M147.83 81.6081C147.581 81.6081 147.342 81.5092 147.166 81.333C146.99 81.1568 146.891 80.9179 146.891 80.6688C146.891 80.4197 146.99 80.1808 147.166 80.0046C147.342 79.8284 147.581 79.7295 147.83 79.7295C148.079 79.7295 148.318 79.8284 148.494 80.0046C148.67 80.1808 148.769 80.4197 148.769 80.6688C148.769 80.9179 148.67 81.1568 148.494 81.333C148.318 81.5092 148.079 81.6081 147.83 81.6081Z" fill="black"/>
<path d="M147.83 87.7419C147.581 87.7419 147.342 87.6429 147.166 87.4668C146.99 87.2906 146.891 87.0517 146.891 86.8026C146.891 86.5534 146.99 86.3145 147.166 86.1384C147.342 85.9622 147.581 85.8632 147.83 85.8632C148.079 85.8632 148.318 85.9622 148.494 86.1384C148.67 86.3145 148.769 86.5534 148.769 86.8026C148.769 87.0517 148.67 87.2906 148.494 87.4668C148.318 87.6429 148.079 87.7419 147.83 87.7419Z" fill="black"/>
<path d="M147.83 93.8756C147.581 93.8756 147.342 93.7767 147.166 93.6005C146.99 93.4244 146.891 93.1854 146.891 92.9363C146.891 92.6872 146.99 92.4483 147.166 92.2721C147.342 92.096 147.581 91.997 147.83 91.997C148.079 91.997 148.318 92.096 148.494 92.2721C148.67 92.4483 148.769 92.6872 148.769 92.9363C148.769 93.1854 148.67 93.4244 148.494 93.6005C148.318 93.7767 148.079 93.8756 147.83 93.8756Z" fill="black"/>
<path d="M147.83 100.009C147.581 100.009 147.342 99.9104 147.166 99.7343C146.99 99.5581 146.891 99.3192 146.891 99.0701C146.891 98.8209 146.99 98.582 147.166 98.4059C147.342 98.2297 147.581 98.1308 147.83 98.1308C148.079 98.1308 148.318 98.2297 148.494 98.4059C148.67 98.582 148.769 98.8209 148.769 99.0701C148.769 99.3192 148.67 99.5581 148.494 99.7343C148.318 99.9104 148.079 100.009 147.83 100.009Z" fill="black"/>
<path d="M147.83 106.134C147.581 106.134 147.342 106.035 147.166 105.859C146.99 105.682 146.891 105.444 146.891 105.194C146.891 104.945 146.99 104.706 147.166 104.53C147.342 104.354 147.581 104.255 147.83 104.255C148.079 104.255 148.318 104.354 148.494 104.53C148.67 104.706 148.769 104.945 148.769 105.194C148.769 105.444 148.67 105.682 148.494 105.859C148.318 106.035 148.079 106.134 147.83 106.134Z" fill="black"/>
<path d="M147.83 112.268C147.581 112.268 147.342 112.169 147.166 111.992C146.99 111.816 146.891 111.577 146.891 111.328C146.891 111.079 146.99 110.84 147.166 110.664C147.342 110.488 147.581 110.389 147.83 110.389C148.079 110.389 148.318 110.488 148.494 110.664C148.67 110.84 148.769 111.079 148.769 111.328C148.769 111.577 148.67 111.816 148.494 111.992C148.318 112.169 148.079 112.268 147.83 112.268Z" fill="black"/>
<path d="M147.83 118.401C147.581 118.401 147.342 118.302 147.166 118.126C146.99 117.95 146.891 117.711 146.891 117.462C146.891 117.213 146.99 116.974 147.166 116.798C147.342 116.622 147.581 116.523 147.83 116.523C148.079 116.523 148.318 116.622 148.494 116.798C148.67 116.974 148.769 117.213 148.769 117.462C148.769 117.711 148.67 117.95 148.494 118.126C148.318 118.302 148.079 118.401 147.83 118.401Z" fill="black"/>
</g>
<path d="M358.84 117.781H208.051V214.334H358.84V117.781Z" fill="#263238"/>
<path opacity="0.9" d="M358.84 117.781H208.051V214.334H358.84V117.781Z" fill="white"/>
<path opacity="0.1" d="M231.571 117.781H208.051V214.334H231.571V117.781Z" fill="black"/>
<path d="M358.84 117.781H208.051V125.568H358.84V117.781Z" fill="#FF6C37"/>
<path d="M218.702 134.107L216.204 135.046L218.702 135.985V136.925L215.133 135.563V134.623L218.702 133.271V134.107Z" fill="white"/>
<path d="M221.398 131.326H222.44L219.961 138.399H218.918L221.398 131.326Z" fill="white"/>
<path d="M226.151 134.529V135.469L222.582 136.831V135.891L225.081 134.952L222.582 134.013V133.073L226.151 134.529Z" fill="white"/>
<g opacity="0.2">
<path d="M225.624 144.843H215.404C215.155 144.843 214.916 144.744 214.74 144.568C214.564 144.392 214.465 144.153 214.465 143.904C214.465 143.655 214.564 143.416 214.74 143.24C214.916 143.063 215.155 142.964 215.404 142.964H225.624C225.873 142.964 226.112 143.063 226.288 143.24C226.464 143.416 226.563 143.655 226.563 143.904C226.563 144.153 226.464 144.392 226.288 144.568C226.112 144.744 225.873 144.843 225.624 144.843Z" fill="#FF6C37"/>
<path d="M225.624 150.968H215.404C215.155 150.968 214.916 150.869 214.74 150.692C214.564 150.516 214.465 150.277 214.465 150.028C214.465 149.779 214.564 149.54 214.74 149.364C214.916 149.188 215.155 149.089 215.404 149.089H225.624C225.873 149.089 226.112 149.188 226.288 149.364C226.464 149.54 226.563 149.779 226.563 150.028C226.563 150.277 226.464 150.516 226.288 150.692C226.112 150.869 225.873 150.968 225.624 150.968Z" fill="#FF6C37"/>
<path d="M225.624 157.101H215.404C215.155 157.101 214.916 157.002 214.74 156.826C214.564 156.65 214.465 156.411 214.465 156.162C214.465 155.913 214.564 155.674 214.74 155.498C214.916 155.322 215.155 155.223 215.404 155.223H225.624C225.873 155.223 226.112 155.322 226.288 155.498C226.464 155.674 226.563 155.913 226.563 156.162C226.563 156.411 226.464 156.65 226.288 156.826C226.112 157.002 225.873 157.101 225.624 157.101Z" fill="#FF6C37"/>
<path d="M225.624 163.235H215.404C215.155 163.235 214.916 163.136 214.74 162.96C214.564 162.784 214.465 162.545 214.465 162.296C214.465 162.047 214.564 161.808 214.74 161.632C214.916 161.455 215.155 161.356 215.404 161.356H225.624C225.873 161.356 226.112 161.455 226.288 161.632C226.464 161.808 226.563 162.047 226.563 162.296C226.563 162.545 226.464 162.784 226.288 162.96C226.112 163.136 225.873 163.235 225.624 163.235Z" fill="#FF6C37"/>
<path d="M225.624 169.369H215.404C215.155 169.369 214.916 169.27 214.74 169.094C214.564 168.918 214.465 168.679 214.465 168.429C214.465 168.18 214.564 167.941 214.74 167.765C214.916 167.589 215.155 167.49 215.404 167.49H225.624C225.873 167.49 226.112 167.589 226.288 167.765C226.464 167.941 226.563 168.18 226.563 168.429C226.563 168.679 226.464 168.918 226.288 169.094C226.112 169.27 225.873 169.369 225.624 169.369Z" fill="#FF6C37"/>
<path d="M225.624 175.493H215.404C215.155 175.493 214.916 175.394 214.74 175.218C214.564 175.042 214.465 174.803 214.465 174.554C214.465 174.305 214.564 174.066 214.74 173.89C214.916 173.713 215.155 173.615 215.404 173.615H225.624C225.873 173.615 226.112 173.713 226.288 173.89C226.464 174.066 226.563 174.305 226.563 174.554C226.563 174.803 226.464 175.042 226.288 175.218C226.112 175.394 225.873 175.493 225.624 175.493Z" fill="#FF6C37"/>
<path d="M225.624 181.627H215.404C215.155 181.627 214.916 181.528 214.74 181.352C214.564 181.176 214.465 180.937 214.465 180.688C214.465 180.438 214.564 180.2 214.74 180.023C214.916 179.847 215.155 179.748 215.404 179.748H225.624C225.873 179.748 226.112 179.847 226.288 180.023C226.464 180.2 226.563 180.438 226.563 180.688C226.563 180.937 226.464 181.176 226.288 181.352C226.112 181.528 225.873 181.627 225.624 181.627Z" fill="#FF6C37"/>
<path d="M225.624 187.761H215.404C215.155 187.761 214.916 187.662 214.74 187.486C214.564 187.309 214.465 187.07 214.465 186.821C214.465 186.572 214.564 186.333 214.74 186.157C214.916 185.981 215.155 185.882 215.404 185.882H225.624C225.873 185.882 226.112 185.981 226.288 186.157C226.464 186.333 226.563 186.572 226.563 186.821C226.563 187.07 226.464 187.309 226.288 187.486C226.112 187.662 225.873 187.761 225.624 187.761Z" fill="#FF6C37"/>
<path d="M225.624 193.894H215.404C215.155 193.894 214.916 193.795 214.74 193.619C214.564 193.443 214.465 193.204 214.465 192.955C214.465 192.706 214.564 192.467 214.74 192.291C214.916 192.115 215.155 192.016 215.404 192.016H225.624C225.873 192.016 226.112 192.115 226.288 192.291C226.464 192.467 226.563 192.706 226.563 192.955C226.563 193.204 226.464 193.443 226.288 193.619C226.112 193.795 225.873 193.894 225.624 193.894Z" fill="#FF6C37"/>
</g>
<path d="M255.165 144.843H234.209C233.96 144.843 233.721 144.744 233.545 144.568C233.368 144.392 233.27 144.153 233.27 143.904C233.27 143.655 233.368 143.416 233.545 143.24C233.721 143.063 233.96 142.964 234.209 142.964H255.165C255.414 142.964 255.653 143.063 255.829 143.24C256.005 143.416 256.104 143.655 256.104 143.904C256.104 144.153 256.005 144.392 255.829 144.568C255.653 144.744 255.414 144.843 255.165 144.843Z" fill="#407BFF"/>
<path d="M315.365 144.843H260.744C260.495 144.843 260.256 144.744 260.08 144.568C259.904 144.392 259.805 144.153 259.805 143.904C259.805 143.655 259.904 143.416 260.08 143.24C260.256 143.063 260.495 142.964 260.744 142.964H315.365C315.615 142.964 315.854 143.063 316.03 143.24C316.206 143.416 316.305 143.655 316.305 143.904C316.305 144.153 316.206 144.392 316.03 144.568C315.854 144.744 315.615 144.843 315.365 144.843Z" fill="#263238"/>
<g opacity="0.2">
<path d="M340.294 144.843H324.467C324.218 144.843 323.979 144.744 323.802 144.568C323.626 144.392 323.527 144.153 323.527 143.904C323.527 143.655 323.626 143.416 323.802 143.24C323.979 143.063 324.218 142.964 324.467 142.964H340.294C340.543 142.964 340.782 143.063 340.958 143.24C341.135 143.416 341.234 143.655 341.234 143.904C341.234 144.153 341.135 144.392 340.958 144.568C340.782 144.744 340.543 144.843 340.294 144.843Z" fill="#FF6C37"/>
</g>
<g opacity="0.2">
<path d="M291.769 150.968H237.025C236.776 150.968 236.537 150.869 236.361 150.692C236.185 150.516 236.086 150.277 236.086 150.028C236.086 149.779 236.185 149.54 236.361 149.364C236.537 149.188 236.776 149.089 237.025 149.089H291.769C292.018 149.089 292.257 149.188 292.433 149.364C292.609 149.54 292.708 149.779 292.708 150.028C292.708 150.277 292.609 150.516 292.433 150.692C292.257 150.869 292.018 150.968 291.769 150.968Z" fill="#FF6C37"/>
</g>
<path d="M347.812 150.968H296.826C296.577 150.968 296.338 150.869 296.162 150.692C295.986 150.516 295.887 150.277 295.887 150.028C295.887 149.779 295.986 149.54 296.162 149.364C296.338 149.188 296.577 149.089 296.826 149.089H347.85C348.099 149.089 348.338 149.188 348.514 149.364C348.69 149.54 348.789 149.779 348.789 150.028C348.789 150.277 348.69 150.516 348.514 150.692C348.338 150.869 348.099 150.968 347.85 150.968H347.812Z" fill="#407BFF"/>
<path d="M269.469 157.101H237.025C236.776 157.101 236.537 157.002 236.361 156.826C236.185 156.65 236.086 156.411 236.086 156.162C236.086 155.913 236.185 155.674 236.361 155.498C236.537 155.322 236.776 155.223 237.025 155.223H269.469C269.718 155.223 269.957 155.322 270.134 155.498C270.31 155.674 270.409 155.913 270.409 156.162C270.409 156.411 270.31 156.65 270.134 156.826C269.957 157.002 269.718 157.101 269.469 157.101Z" fill="#263238"/>
<path d="M308.095 157.101H276.158C275.909 157.101 275.67 157.002 275.494 156.826C275.318 156.65 275.219 156.411 275.219 156.162C275.219 155.913 275.318 155.674 275.494 155.498C275.67 155.322 275.909 155.223 276.158 155.223H308.095C308.344 155.223 308.583 155.322 308.759 155.498C308.935 155.674 309.034 155.913 309.034 156.162C309.034 156.411 308.935 156.65 308.759 156.826C308.583 157.002 308.344 157.101 308.095 157.101Z" fill="#407BFF"/>
<path d="M347.81 157.101H313.318C313.069 157.101 312.83 157.002 312.654 156.826C312.478 156.65 312.379 156.411 312.379 156.162C312.379 155.913 312.478 155.674 312.654 155.498C312.83 155.322 313.069 155.223 313.318 155.223H347.81C348.059 155.223 348.298 155.322 348.474 155.498C348.65 155.674 348.749 155.913 348.749 156.162C348.749 156.411 348.65 156.65 348.474 156.826C348.298 157.002 348.059 157.101 347.81 157.101Z" fill="#263238"/>
<path d="M272.478 163.235H253.006C252.757 163.235 252.518 163.136 252.342 162.96C252.165 162.784 252.066 162.545 252.066 162.296C252.066 162.047 252.165 161.808 252.342 161.632C252.518 161.455 252.757 161.356 253.006 161.356H272.478C272.727 161.356 272.966 161.455 273.142 161.632C273.318 161.808 273.417 162.047 273.417 162.296C273.417 162.545 273.318 162.784 273.142 162.96C272.966 163.136 272.727 163.235 272.478 163.235Z" fill="#263238"/>
<path d="M300.056 163.235H278.799C278.55 163.235 278.311 163.136 278.135 162.96C277.958 162.784 277.859 162.545 277.859 162.296C277.859 162.047 277.958 161.808 278.135 161.632C278.311 161.455 278.55 161.356 278.799 161.356H300.056C300.305 161.356 300.544 161.455 300.72 161.632C300.896 161.808 300.995 162.047 300.995 162.296C300.995 162.545 300.896 162.784 300.72 162.96C300.544 163.136 300.305 163.235 300.056 163.235Z" fill="#263238"/>
<g opacity="0.2">
<path d="M339.358 163.235H304.885C304.636 163.235 304.397 163.136 304.22 162.96C304.044 162.784 303.945 162.545 303.945 162.296C303.945 162.047 304.044 161.808 304.22 161.632C304.397 161.455 304.636 161.356 304.885 161.356H339.358C339.607 161.356 339.846 161.455 340.022 161.632C340.198 161.808 340.297 162.047 340.297 162.296C340.297 162.545 340.198 162.784 340.022 162.96C339.846 163.136 339.607 163.235 339.358 163.235Z" fill="#FF6C37"/>
</g>
<g opacity="0.2">
<path d="M263.223 169.369H237.025C236.776 169.369 236.537 169.27 236.361 169.094C236.185 168.918 236.086 168.679 236.086 168.429C236.086 168.18 236.185 167.941 236.361 167.765C236.537 167.589 236.776 167.49 237.025 167.49H263.223C263.472 167.49 263.711 167.589 263.887 167.765C264.063 167.941 264.162 168.18 264.162 168.429C264.162 168.679 264.063 168.918 263.887 169.094C263.711 169.27 263.472 169.369 263.223 169.369Z" fill="#FF6C37"/>
</g>
<path d="M266.501 175.493H237.025C236.776 175.493 236.537 175.394 236.361 175.218C236.185 175.042 236.086 174.803 236.086 174.554C236.086 174.305 236.185 174.066 236.361 173.89C236.537 173.713 236.776 173.615 237.025 173.615H266.501C266.75 173.615 266.989 173.713 267.165 173.89C267.341 174.066 267.44 174.305 267.44 174.554C267.44 174.803 267.341 175.042 267.165 175.218C266.989 175.394 266.75 175.493 266.501 175.493Z" fill="#407BFF"/>
<path d="M315.741 175.493H271.33C271.081 175.493 270.842 175.394 270.666 175.218C270.49 175.042 270.391 174.803 270.391 174.554C270.391 174.305 270.49 174.066 270.666 173.89C270.842 173.713 271.081 173.615 271.33 173.615H315.741C315.99 173.615 316.229 173.713 316.405 173.89C316.581 174.066 316.68 174.305 316.68 174.554C316.68 174.803 316.581 175.042 316.405 175.218C316.229 175.394 315.99 175.493 315.741 175.493Z" fill="#263238"/>
<path d="M347.809 175.493H321.123C320.874 175.493 320.635 175.394 320.459 175.218C320.283 175.042 320.184 174.803 320.184 174.554C320.184 174.305 320.283 174.066 320.459 173.89C320.635 173.713 320.874 173.615 321.123 173.615H347.809C348.058 173.615 348.297 173.713 348.473 173.89C348.649 174.066 348.748 174.305 348.748 174.554C348.748 174.803 348.649 175.042 348.473 175.218C348.297 175.394 348.058 175.493 347.809 175.493Z" fill="#263238"/>
<g opacity="0.2">
<path d="M263.3 181.627H246.392C246.143 181.627 245.904 181.528 245.728 181.352C245.552 181.176 245.453 180.937 245.453 180.688C245.453 180.438 245.552 180.2 245.728 180.023C245.904 179.847 246.143 179.748 246.392 179.748H263.3C263.549 179.748 263.788 179.847 263.964 180.023C264.141 180.2 264.24 180.438 264.24 180.688C264.24 180.937 264.141 181.176 263.964 181.352C263.788 181.528 263.549 181.627 263.3 181.627Z" fill="#FF6C37"/>
</g>
<g opacity="0.2">
<path d="M301.425 181.627H269.057C268.807 181.627 268.568 181.528 268.392 181.352C268.216 181.176 268.117 180.937 268.117 180.688C268.117 180.438 268.216 180.2 268.392 180.023C268.568 179.847 268.807 179.748 269.057 179.748H301.425C301.675 179.748 301.914 179.847 302.09 180.023C302.266 180.2 302.365 180.438 302.365 180.688C302.365 180.937 302.266 181.176 302.09 181.352C301.914 181.528 301.675 181.627 301.425 181.627Z" fill="#FF6C37"/>
</g>
<path d="M339.356 181.627H307.748C307.499 181.627 307.26 181.528 307.084 181.352C306.908 181.176 306.809 180.937 306.809 180.688C306.809 180.438 306.908 180.2 307.084 180.023C307.26 179.847 307.499 179.748 307.748 179.748H339.356C339.605 179.748 339.844 179.847 340.02 180.023C340.196 180.2 340.295 180.438 340.295 180.688C340.295 180.937 340.196 181.176 340.02 181.352C339.844 181.528 339.605 181.627 339.356 181.627Z" fill="#263238"/>
<path d="M275.717 187.761H255.822C255.573 187.761 255.334 187.662 255.158 187.486C254.982 187.309 254.883 187.07 254.883 186.821C254.883 186.572 254.982 186.333 255.158 186.157C255.334 185.981 255.573 185.882 255.822 185.882H275.717C275.966 185.882 276.205 185.981 276.381 186.157C276.557 186.333 276.656 186.572 276.656 186.821C276.656 187.07 276.557 187.309 276.381 187.486C276.205 187.662 275.966 187.761 275.717 187.761Z" fill="#263238"/>
<g opacity="0.2">
<path d="M298.749 187.761H279.803C279.553 187.761 279.315 187.662 279.138 187.486C278.962 187.309 278.863 187.07 278.863 186.821C278.863 186.572 278.962 186.333 279.138 186.157C279.315 185.981 279.553 185.882 279.803 185.882H298.749C298.998 185.882 299.237 185.981 299.413 186.157C299.589 186.333 299.688 186.572 299.688 186.821C299.688 187.07 299.589 187.309 299.413 187.486C299.237 187.662 298.998 187.761 298.749 187.761Z" fill="#FF6C37"/>
</g>
<path d="M339.358 187.761H304.697C304.448 187.761 304.209 187.662 304.033 187.486C303.857 187.309 303.758 187.07 303.758 186.821C303.758 186.572 303.857 186.333 304.033 186.157C304.209 185.981 304.448 185.882 304.697 185.882H339.358C339.607 185.882 339.846 185.981 340.022 186.157C340.198 186.333 340.297 186.572 340.297 186.821C340.297 187.07 340.198 187.309 340.022 187.486C339.846 187.662 339.607 187.761 339.358 187.761Z" fill="#407BFF"/>
<g opacity="0.2">
<path d="M280.141 193.894H255.822C255.573 193.894 255.334 193.795 255.158 193.619C254.982 193.443 254.883 193.204 254.883 192.955C254.883 192.706 254.982 192.467 255.158 192.291C255.334 192.115 255.573 192.016 255.822 192.016H280.141C280.39 192.016 280.629 192.115 280.805 192.291C280.981 192.467 281.08 192.706 281.08 192.955C281.08 193.204 280.981 193.443 280.805 193.619C280.629 193.795 280.39 193.894 280.141 193.894Z" fill="#FF6C37"/>
</g>
<path opacity="0.4" d="M352.242 121.736C352.242 122.056 352.337 122.369 352.515 122.634C352.693 122.9 352.946 123.107 353.242 123.229C353.538 123.351 353.863 123.383 354.177 123.32C354.49 123.257 354.778 123.102 355.004 122.875C355.229 122.648 355.382 122.359 355.444 122.045C355.505 121.731 355.472 121.406 355.348 121.111C355.224 120.816 355.016 120.564 354.749 120.388C354.482 120.212 354.168 120.118 353.848 120.12C353.637 120.12 353.427 120.162 353.232 120.243C353.036 120.325 352.859 120.444 352.709 120.594C352.56 120.744 352.442 120.922 352.362 121.118C352.282 121.314 352.241 121.524 352.242 121.736Z" fill="white"/>
<path opacity="0.4" d="M348.251 123.333C349.138 123.333 349.857 122.614 349.857 121.726C349.857 120.839 349.138 120.12 348.251 120.12C347.364 120.12 346.645 120.839 346.645 121.726C346.645 122.614 347.364 123.333 348.251 123.333Z" fill="white"/>
<path opacity="0.4" d="M342.606 123.333C343.493 123.333 344.212 122.614 344.212 121.726C344.212 120.839 343.493 120.12 342.606 120.12C341.719 120.12 341 120.839 341 121.726C341 122.614 341.719 123.333 342.606 123.333Z" fill="white"/>
<path d="M106.388 123.492H79.4106C78.3194 123.491 77.2386 123.705 76.2301 124.122C75.2216 124.539 74.3051 125.15 73.533 125.921C72.761 126.692 72.1485 127.608 71.7306 128.616C71.3127 129.624 71.0977 130.705 71.0977 131.796V155.279C71.0964 156.37 71.3103 157.451 71.727 158.46C72.1438 159.468 72.7552 160.385 73.5264 161.157C74.2976 161.929 75.2134 162.541 76.2214 162.959C77.2295 163.377 78.31 163.592 79.4012 163.592H98.5352L104.171 171.003V163.592H106.379C108.583 163.592 110.698 162.716 112.257 161.157C113.816 159.598 114.691 157.484 114.691 155.279V131.796C114.691 129.594 113.817 127.482 112.259 125.924C110.702 124.367 108.59 123.492 106.388 123.492Z" fill="#407BFF"/>
<path opacity="0.7" d="M106.388 123.492H79.4106C78.3194 123.491 77.2386 123.705 76.2301 124.122C75.2216 124.539 74.3051 125.15 73.533 125.921C72.761 126.692 72.1485 127.608 71.7306 128.616C71.3127 129.624 71.0977 130.705 71.0977 131.796V155.279C71.0964 156.37 71.3103 157.451 71.727 158.46C72.1438 159.468 72.7552 160.385 73.5264 161.157C74.2976 161.929 75.2134 162.541 76.2214 162.959C77.2295 163.377 78.31 163.592 79.4012 163.592H98.5352L104.171 171.003V163.592H106.379C108.583 163.592 110.698 162.716 112.257 161.157C113.816 159.598 114.691 157.484 114.691 155.279V131.796C114.691 129.594 113.817 127.482 112.259 125.924C110.702 124.367 108.59 123.492 106.388 123.492Z" fill="white"/>
<path d="M102.364 152.904C107.595 147.673 107.595 139.192 102.364 133.961C97.1327 128.73 88.6517 128.73 83.4207 133.961C78.1897 139.192 78.1897 147.673 83.4207 152.904C88.6517 158.135 97.1327 158.135 102.364 152.904Z" fill="#407BFF"/>
<path d="M91.4914 149.399C91.3131 149.398 91.137 149.359 90.975 149.285C90.8129 149.21 90.6687 149.102 90.5521 148.967L85.3013 142.824C85.1964 142.7 85.1169 142.557 85.0672 142.403C85.0176 142.249 84.9988 142.087 85.0118 141.926C85.0249 141.764 85.0697 141.607 85.1435 141.463C85.2173 141.319 85.3188 141.191 85.4422 141.086C85.5655 140.981 85.7083 140.901 85.8624 140.852C86.0165 140.802 86.1789 140.783 86.3402 140.796C86.5016 140.81 86.6588 140.854 86.8029 140.928C86.947 141.002 87.0751 141.103 87.1799 141.227L91.4914 146.318L98.6208 137.92C98.835 137.684 99.1326 137.54 99.4509 137.519C99.7691 137.498 100.083 137.601 100.327 137.807C100.57 138.013 100.725 138.305 100.757 138.622C100.789 138.94 100.697 139.257 100.499 139.508L92.4307 148.986C92.3131 149.118 92.1683 149.223 92.0062 149.295C91.8441 149.366 91.6685 149.402 91.4914 149.399Z" fill="white"/>
<path d="M192.3 289.808L212.467 288.822L210.504 306.359C210.504 306.359 196.508 309.027 190.262 299.07L192.3 289.808Z" fill="#EBB376"/>
<path d="M225.467 294.928L220.874 307.655L210.504 306.35L212.467 288.813L225.467 294.928Z" fill="#EBB376"/>
<path d="M172.937 318.27C180.617 314.26 187.616 309.064 193.678 302.874L192.297 289.808C173.238 292.626 162.239 296.656 162.239 296.656C162.239 296.656 169.302 271.341 162.84 262.117L145.096 265.33C145.096 265.33 126.244 304.518 138.925 318.27H172.937Z" fill="#FF6C37"/>
<path opacity="0.2" d="M158.324 318.27C164.589 278.574 159.038 268.486 159.038 268.486L136.494 289.78C133.958 300.479 133.216 312.005 138.983 318.251L158.324 318.27Z" fill="black"/>
<path d="M154.406 318.27C158.633 298.206 163.377 266.795 162.86 262.117C162.108 255.317 125.118 226.179 93.0121 247.389C86.4368 251.719 83.0835 298.431 81.9375 318.27H154.406Z" fill="#FF6C37"/>
<path d="M138.56 161.187C127.429 156.688 101.184 172.835 98.8828 201.625C96.5815 230.415 111.179 222.44 111.179 222.44C111.179 222.44 113.78 233.421 124.414 230.03C124.414 230.03 133.196 239.977 141.368 235.929C141.368 235.929 151.541 246.525 156.999 240.936C156.999 240.936 162.935 247.708 168.355 242.579C173.775 237.451 189.264 185.093 164.964 172.985C140.664 160.877 138.56 161.187 138.56 161.187Z" fill="#263238"/>
<path d="M138.578 279.025L137.508 278.931C138.747 265.067 135.695 258.933 135.629 258.877L136.568 258.379C136.747 258.595 139.846 264.766 138.578 279.025Z" fill="#263238"/>
<path d="M143.615 279.147C136.241 261.779 144.554 257.731 144.892 257.543L145.334 258.482C145.259 258.482 137.669 262.324 144.601 278.668L143.615 279.147Z" fill="#263238"/>
<path d="M136.41 261.685C136.41 261.685 122.18 250.413 100.087 244.064L92.9951 247.389C92.9951 247.389 81.1033 232.67 100.923 227.851C120.743 223.032 147.701 236.305 154.464 247.67C161.227 259.036 142.704 262.7 142.704 262.7C142.704 262.7 141.004 260.389 136.41 261.685Z" fill="#FF6C37"/>
<path opacity="0.6" d="M136.41 261.685C136.41 261.685 122.18 250.413 100.087 244.064L92.9951 247.389C92.9951 247.389 81.1033 232.67 100.923 227.851C120.743 223.032 147.701 236.305 154.464 247.67C161.227 259.036 142.704 262.7 142.704 262.7C142.704 262.7 141.004 260.389 136.41 261.685Z" fill="white"/>
<path d="M144.996 278.94C144.996 279.126 144.941 279.308 144.838 279.462C144.734 279.617 144.588 279.737 144.416 279.808C144.244 279.879 144.055 279.898 143.873 279.862C143.691 279.825 143.524 279.736 143.392 279.605C143.261 279.473 143.171 279.306 143.135 279.124C143.099 278.941 143.118 278.753 143.189 278.581C143.26 278.409 143.38 278.263 143.535 278.159C143.689 278.056 143.871 278.001 144.057 278.001C144.306 278.001 144.545 278.1 144.721 278.276C144.897 278.452 144.996 278.691 144.996 278.94Z" fill="white"/>
<path d="M138.898 278.94C138.898 279.126 138.843 279.308 138.74 279.462C138.637 279.617 138.49 279.737 138.318 279.808C138.147 279.879 137.958 279.898 137.776 279.862C137.593 279.825 137.426 279.736 137.295 279.605C137.163 279.473 137.074 279.306 137.038 279.124C137.001 278.941 137.02 278.753 137.091 278.581C137.162 278.409 137.283 278.263 137.437 278.159C137.591 278.056 137.773 278.001 137.959 278.001C138.208 278.001 138.447 278.1 138.623 278.276C138.799 278.452 138.898 278.691 138.898 278.94Z" fill="white"/>
<path d="M128.846 208.576C127.982 218.655 124.892 236.596 116.691 240.513C116.691 240.513 125.859 242.392 140.174 260.53C148.318 254.819 145.237 250.921 145.237 250.921C135.713 244.674 138.183 236.972 142.034 230.255L128.846 208.576Z" fill="#EBB376"/>
<path opacity="0.2" d="M134.212 217.415L142.018 230.284C141.086 231.837 140.297 233.472 139.661 235.168C135.903 233.158 131.789 226.789 132.569 222.431C132.812 220.674 133.368 218.975 134.212 217.415Z" fill="black"/>
<path d="M127.749 187.263C125.128 203.1 123.682 209.731 129.552 219.923C138.373 235.262 157.92 235.985 165.106 221.482C171.568 208.426 174.771 184.717 161.283 174.253C147.972 163.94 130.351 171.416 127.749 187.263Z" fill="#EBB376"/>
<path d="M160.184 165.433C170.451 171.125 180.23 188.916 165.623 184.473C163.416 188.747 155.554 184.83 150.979 179.701C150.209 183.261 141.793 186.831 135.593 181.317C138.589 185.638 133.489 196.543 128.182 194.665C122.875 192.786 110.964 190.316 121.513 173.502C132.061 156.688 149.223 159.337 160.184 165.433Z" fill="#263238"/>
<path d="M156.445 202.207C156.445 202.207 157.385 208.491 159.169 211.901C157.169 213.057 154.473 211.516 154.473 211.516L156.445 202.207Z" fill="#D58745"/>
<path d="M146.207 214.334C146.873 214.66 147.568 214.924 148.283 215.123C148.331 215.137 148.381 215.141 148.431 215.134C148.481 215.127 148.528 215.109 148.571 215.083C148.614 215.056 148.65 215.021 148.678 214.979C148.706 214.938 148.725 214.891 148.734 214.841C148.759 214.738 148.743 214.629 148.688 214.537C148.634 214.446 148.545 214.379 148.442 214.353C146.826 213.9 145.332 213.09 144.071 211.983C142.809 210.876 141.812 209.5 141.153 207.956C141.139 207.906 141.115 207.86 141.083 207.819C141.051 207.779 141.01 207.745 140.965 207.721C140.919 207.696 140.869 207.681 140.818 207.676C140.766 207.672 140.714 207.677 140.665 207.693C140.57 207.733 140.494 207.808 140.453 207.903C140.413 207.997 140.411 208.104 140.449 208.2C141.548 210.883 143.598 213.067 146.207 214.334Z" fill="#263238"/>
<path d="M119.754 198.647C120.639 201.94 122.795 204.747 125.747 206.453C129.57 208.548 132.322 204.96 132.04 200.498C131.749 196.468 129.401 190.532 125.211 190.297C121.022 190.062 118.617 194.486 119.754 198.647Z" fill="#EBB376"/>
<path d="M145.127 187.695C145.221 187.739 145.324 187.761 145.428 187.761C145.531 187.761 145.634 187.739 145.728 187.695C146.562 187.232 147.497 186.982 148.45 186.965C149.403 186.949 150.346 187.167 151.195 187.601C151.279 187.655 151.374 187.691 151.473 187.706C151.572 187.721 151.673 187.715 151.77 187.688C151.866 187.662 151.956 187.615 152.034 187.552C152.111 187.488 152.174 187.409 152.219 187.319C152.312 187.13 152.332 186.913 152.274 186.71C152.217 186.507 152.087 186.333 151.909 186.22C150.849 185.64 149.66 185.335 148.452 185.335C147.244 185.335 146.055 185.64 144.996 186.22C144.818 186.326 144.688 186.496 144.632 186.696C144.576 186.895 144.598 187.108 144.695 187.291C144.786 187.473 144.94 187.616 145.127 187.695Z" fill="#263238"/>
<path d="M170.365 193.876C170.449 193.924 170.543 193.954 170.64 193.964C170.737 193.974 170.836 193.963 170.928 193.932C171.026 193.899 171.116 193.847 171.193 193.779C171.271 193.711 171.333 193.628 171.378 193.535C171.423 193.443 171.448 193.342 171.453 193.239C171.458 193.136 171.443 193.033 171.407 192.936C171.064 191.716 170.444 190.591 169.595 189.649C168.747 188.708 167.692 187.974 166.513 187.507C166.417 187.473 166.314 187.46 166.212 187.469C166.109 187.478 166.01 187.509 165.921 187.56C165.832 187.61 165.755 187.68 165.695 187.763C165.635 187.847 165.594 187.942 165.574 188.042C165.525 188.246 165.554 188.461 165.655 188.645C165.755 188.829 165.921 188.969 166.119 189.038C167.048 189.422 167.876 190.014 168.54 190.768C169.205 191.521 169.687 192.418 169.951 193.387C169.984 193.492 170.038 193.589 170.109 193.673C170.18 193.757 170.267 193.826 170.365 193.876Z" fill="#263238"/>
<path d="M150.178 198.056C149.717 199.314 148.665 200.075 147.829 199.765C146.993 199.455 146.693 198.197 147.153 196.947C147.613 195.698 148.665 194.928 149.492 195.238C150.319 195.548 150.629 196.806 150.178 198.056Z" fill="#263238"/>
<path d="M149.129 195.172L152.247 195.106C152.247 195.106 150.049 196.891 149.129 195.172Z" fill="#263238"/>
<path d="M165.951 203.062C165.491 204.312 164.439 205.072 163.612 204.772C162.785 204.471 162.466 203.194 162.926 201.954C163.387 200.714 164.439 199.944 165.275 200.244C166.111 200.545 166.411 201.804 165.951 203.062Z" fill="#263238"/>
<path d="M164.906 200.169L168.015 200.103C168.015 200.103 165.817 201.897 164.906 200.169Z" fill="#263238"/>
<path d="M148.694 206.932C147.724 206.935 146.763 206.734 145.876 206.34C144.937 205.91 144.103 205.28 143.432 204.495C142.76 203.71 142.267 202.788 141.987 201.794C141.382 199.651 141.547 197.362 142.455 195.329C143.363 193.295 144.956 191.644 146.956 190.663C147.883 190.2 148.901 189.948 149.936 189.925C150.972 189.903 152 190.11 152.946 190.532C153.891 190.954 154.732 191.581 155.407 192.367C156.081 193.153 156.573 194.079 156.847 195.078C157.472 197.219 157.302 199.515 156.368 201.541C155.487 203.599 153.888 205.268 151.869 206.237C150.874 206.698 149.79 206.935 148.694 206.932ZM150.169 191.011C149.234 191.036 148.315 191.26 147.473 191.668C145.709 192.541 144.305 194.002 143.502 195.799C142.7 197.596 142.549 199.616 143.077 201.512C143.303 202.366 143.717 203.158 144.289 203.831C144.861 204.503 145.577 205.039 146.383 205.4C147.189 205.76 148.065 205.935 148.948 205.913C149.831 205.89 150.697 205.67 151.484 205.27C153.262 204.419 154.673 202.954 155.457 201.146C156.283 199.352 156.433 197.321 155.88 195.426C155.644 194.577 155.226 193.791 154.655 193.121C154.084 192.451 153.374 191.913 152.573 191.546C151.821 191.193 151 191.01 150.169 191.011Z" fill="#263238"/>
<path d="M164.324 211.723C163.353 211.731 162.391 211.529 161.506 211.131C160.567 210.699 159.732 210.069 159.059 209.284C158.386 208.5 157.891 207.579 157.608 206.585C157.007 204.44 157.175 202.152 158.085 200.119C158.994 198.086 160.587 196.435 162.586 195.454C163.512 194.989 164.529 194.735 165.565 194.712C166.6 194.688 167.628 194.895 168.574 195.318C169.519 195.74 170.359 196.368 171.033 197.155C171.706 197.942 172.196 198.869 172.468 199.869C173.1 202.008 172.933 204.305 171.998 206.331C171.364 207.866 170.305 209.189 168.946 210.144C167.587 211.099 165.983 211.647 164.324 211.723ZM165.817 195.754C164.869 195.761 163.933 195.972 163.074 196.374C161.298 197.232 159.888 198.698 159.101 200.507C158.27 202.296 158.12 204.327 158.678 206.218C158.914 207.068 159.332 207.856 159.903 208.527C160.474 209.199 161.184 209.738 161.985 210.107C165.272 211.582 169.349 209.666 171.059 205.852C171.88 204.057 172.03 202.027 171.481 200.132C171.244 199.284 170.825 198.498 170.255 197.828C169.684 197.159 168.974 196.621 168.175 196.252C167.428 195.941 166.626 195.788 165.817 195.801V195.754Z" fill="#263238"/>
<path d="M157.618 201.926C157.597 201.859 157.562 201.797 157.515 201.745C157.468 201.693 157.41 201.652 157.345 201.625C156.933 201.553 156.508 201.616 156.134 201.804L155.664 200.864C156.302 200.538 157.039 200.461 157.731 200.648C157.947 200.725 158.144 200.849 158.307 201.011C158.469 201.174 158.593 201.371 158.67 201.587L157.618 201.926Z" fill="#263238"/>
<path d="M130.243 191.635L129.926 192.658L142.576 196.581L142.893 195.558L130.243 191.635Z" fill="#263238"/>
<path opacity="0.2" d="M128.949 290.729C128.949 290.729 104.236 309.666 82.5469 308.576C83.4298 295.67 84.914 278.518 87.0556 265.668C89.2724 263.226 90.7284 261.742 90.7284 261.742L103.879 271.576L100.676 275.596C100.676 275.596 120.58 274.582 127.512 275.596L128.949 290.729Z" fill="black"/>
<path d="M131.507 275.55L151.289 271.51L151.993 289.151C151.993 289.151 138.57 293.904 130.887 285.008L131.507 275.55Z" fill="#EBB376"/>
<path d="M165.059 275.596L162.448 288.869L151.994 289.151L151.289 271.52L165.059 275.596Z" fill="#EBB376"/>
<path d="M131.504 275.55L132.471 289.151L127.549 291.358L125.445 275.55H131.504Z" fill="#FF6C37"/>
<path opacity="0.6" d="M131.504 275.55L132.471 289.151L127.549 291.358L125.445 275.55H131.504Z" fill="white"/>
<path d="M100.086 244.063C94.7775 245.001 89.9706 247.782 86.5124 251.916C80.5477 258.924 59.5257 279.739 64.1941 296.731C68.8626 313.723 113.818 301.08 127.551 291.368L125.447 275.549L94.3087 277.832L103.909 271.51C110.493 253.194 100.086 244.063 100.086 244.063Z" fill="#FF6C37"/>
<path d="M190.27 290.109L195.934 289.151V304.34L191.444 305.072L190.27 290.109Z" fill="#FF6C37"/>
<path opacity="0.6" d="M190.27 290.109L195.934 289.151V304.34L191.444 305.072L190.27 290.109Z" fill="white"/>
<path d="M178.82 304.189C178.804 303.358 178.845 302.526 178.943 301.7L179.112 300.451L177.9 301.165L177.177 301.597C176.939 301.704 176.694 301.795 176.444 301.869C176.016 302.005 175.557 302.005 175.129 301.869C174.715 301.716 174.351 301.453 174.077 301.108C173.759 300.727 173.508 300.295 173.335 299.831L172.273 296.872L171.522 300.009C171.447 300.319 171.4 300.639 171.343 300.949C171.287 301.259 171.156 301.531 171.071 301.822C170.891 302.291 170.59 302.702 170.197 303.015C169.759 303.24 169.25 303.284 168.779 303.137C168.187 302.982 167.623 302.735 167.107 302.405L165.473 301.381L166.13 303.043C166.415 303.75 166.641 304.479 166.806 305.223C166.889 305.593 166.939 305.97 166.957 306.35C166.998 306.736 166.912 307.125 166.713 307.458C167.042 307.193 167.268 306.821 167.351 306.406C167.459 306.001 167.516 305.585 167.52 305.166C167.539 304.838 167.539 304.508 167.52 304.18C167.794 304.335 168.076 304.473 168.366 304.593C168.792 304.768 169.25 304.852 169.711 304.841C170.172 304.83 170.625 304.723 171.043 304.528C171.837 304.082 172.456 303.38 172.799 302.536V302.414C173.307 302.993 173.988 303.392 174.741 303.553C175.495 303.714 176.279 303.627 176.979 303.306C177.255 303.181 177.522 303.037 177.778 302.874C177.778 302.874 177.778 302.94 177.778 302.978C177.845 303.421 177.936 303.86 178.05 304.293C178.165 304.73 178.322 305.155 178.52 305.561C178.708 305.97 178.987 306.33 179.337 306.613C179.126 306.245 178.989 305.84 178.933 305.42C178.868 305.013 178.83 304.602 178.82 304.189Z" fill="#FF6C37"/>
<path d="M212.42 282.998C211.688 283.069 210.95 282.989 210.25 282.763C209.529 282.549 208.843 282.233 208.212 281.824C207.613 281.379 207.1 280.829 206.699 280.199C206.276 279.574 205.938 278.895 205.694 278.18L205.074 276.301L204.022 277.964C203.573 278.661 203.029 279.293 202.407 279.842C201.901 280.342 201.236 280.648 200.528 280.706H200.303L200.021 280.65C199.824 280.65 199.636 280.556 199.438 280.509C199.046 280.38 198.666 280.217 198.302 280.021C197.567 279.609 196.888 279.104 196.282 278.518L194.648 276.949L194.986 279.1C195.175 280.248 195.248 281.413 195.202 282.576C195.184 283.123 195.073 283.663 194.873 284.172C194.785 284.395 194.623 284.582 194.415 284.701C194.207 284.821 193.965 284.866 193.727 284.83H193.305L193.436 285.178C193.712 285.885 193.994 286.59 194.282 287.291C194.197 286.662 194.094 286.032 193.981 285.412H194.159C194.347 285.399 194.532 285.367 194.714 285.318C194.886 285.229 195.052 285.129 195.212 285.018C195.334 284.886 195.465 284.745 195.578 284.605C195.938 284.033 196.178 283.394 196.282 282.726C196.401 282.106 196.47 281.478 196.489 280.847C196.789 281.096 197.103 281.328 197.428 281.542C197.869 281.814 198.335 282.043 198.819 282.228C199.335 282.443 199.885 282.567 200.444 282.594C201.606 282.578 202.721 282.137 203.581 281.355C203.95 281.045 204.292 280.706 204.605 280.34C204.789 280.663 204.989 280.977 205.206 281.279C205.768 282.055 206.468 282.721 207.272 283.243C208.074 283.73 208.955 284.073 209.874 284.257C210.465 284.372 211.067 284.416 211.668 284.388C211.593 284.576 211.509 284.764 211.443 284.961C211.278 285.503 211.149 286.056 211.058 286.615C210.958 287.176 210.933 287.747 210.983 288.315C211.012 288.881 211.183 289.43 211.481 289.912C211.319 289.399 211.277 288.856 211.358 288.324C211.429 287.797 211.552 287.278 211.725 286.774C212.085 285.793 212.542 284.849 213.087 283.956L213.679 282.951L212.42 282.998Z" fill="#FF6C37"/>
<path d="M400.337 338.503L70.9177 338.503C69.8116 338.503 68.7508 338.063 67.9687 337.281C67.1865 336.499 66.7471 335.438 66.7471 334.332V324.187L404.508 324.187V334.332C404.508 335.438 404.068 336.499 403.286 337.281C402.504 338.063 401.443 338.503 400.337 338.503Z" fill="#407BFF"/>
<path opacity="0.2" d="M66.7378 331.345L404.508 331.345V324.187L66.7378 324.187V331.345Z" fill="black"/>
<path d="M59.6641 326.057H411.59C412.659 326.057 413.685 325.632 414.442 324.877C415.2 324.122 415.626 323.097 415.629 322.027C415.629 320.956 415.203 319.928 414.446 319.171C413.688 318.414 412.661 317.988 411.59 317.988H59.6641C58.5928 317.988 57.5655 318.414 56.808 319.171C56.0505 319.928 55.625 320.956 55.625 322.027C55.6275 323.097 56.0541 324.122 56.8113 324.877C57.5685 325.632 58.5945 326.057 59.6641 326.057Z" fill="#407BFF"/>
<path d="M387.742 268.692L377.466 315.302C377.278 316.048 376.85 316.712 376.247 317.191C375.645 317.67 374.901 317.936 374.131 317.95H317.998C317.648 317.941 317.306 317.851 316.997 317.688C316.688 317.524 316.422 317.292 316.218 317.008C316.014 316.724 315.879 316.397 315.822 316.052C315.766 315.707 315.791 315.354 315.894 315.02L326.151 268.768C326.362 268.063 326.808 267.452 327.414 267.036C328.021 266.621 328.752 266.426 329.486 266.485H385.619C387.122 266.523 388.071 267.208 387.742 268.692Z" fill="#263238"/>
<path opacity="0.4" d="M387.743 268.692L377.467 315.302C377.279 316.048 376.851 316.712 376.248 317.191C375.646 317.669 374.902 317.936 374.132 317.95H319.906C319.555 317.943 319.212 317.854 318.902 317.691C318.592 317.528 318.324 317.295 318.119 317.011C317.914 316.727 317.778 316.4 317.721 316.054C317.665 315.708 317.689 315.354 317.792 315.02L328.068 268.768C328.274 268.06 328.719 267.446 329.327 267.03C329.935 266.613 330.669 266.421 331.403 266.485H385.62C387.123 266.523 388.072 267.208 387.743 268.692Z" fill="white"/>
<path d="M378.792 316.513L389.012 270.148C389.35 268.627 388.401 267.941 386.889 267.941H332.671C331.938 267.88 331.206 268.074 330.598 268.49C329.991 268.906 329.546 269.518 329.337 270.224L318.957 317.124L378.792 316.513Z" fill="#407BFF"/>
<path opacity="0.4" d="M389.01 270.139L383.618 294.636L378.781 316.513L346.75 316.842L318.965 317.114L329.297 270.224C329.503 269.518 329.946 268.905 330.552 268.489C331.159 268.073 331.89 267.879 332.623 267.941H386.906C388.409 267.941 389.348 268.636 389.01 270.139Z" fill="white"/>
<path opacity="0.2" d="M383.618 294.636L378.781 316.513L346.75 316.842H320.148L324.497 296.834C324.637 296.215 324.982 295.66 325.477 295.261C325.971 294.862 326.586 294.642 327.222 294.636H383.618Z" fill="black"/>
<path d="M384.54 297.68C384.333 296.974 383.887 296.362 383.279 295.948C382.671 295.533 381.939 295.342 381.206 295.407H326.988C325.485 295.407 324.537 296.083 324.865 297.605L328.98 316.26H319.821C319.592 316.26 319.372 316.351 319.21 316.513C319.048 316.675 318.957 316.895 318.957 317.124C318.957 317.353 319.048 317.573 319.21 317.735C319.372 317.897 319.592 317.988 319.821 317.988H386.607C386.898 317.983 387.185 317.912 387.446 317.782C387.707 317.652 387.935 317.466 388.115 317.237C388.295 317.007 388.422 316.741 388.486 316.456C388.55 316.172 388.55 315.877 388.485 315.593L384.54 297.68Z" fill="#407BFF"/>
<path opacity="0.4" d="M384.54 297.68C384.333 296.974 383.887 296.362 383.279 295.948C382.671 295.533 381.939 295.342 381.206 295.407H326.988C325.485 295.407 324.537 296.083 324.865 297.605L328.98 316.26H319.821C319.592 316.26 319.372 316.351 319.21 316.513C319.048 316.675 318.957 316.895 318.957 317.124C318.957 317.353 319.048 317.573 319.21 317.735C319.372 317.897 319.592 317.988 319.821 317.988H386.607C386.898 317.983 387.185 317.912 387.446 317.782C387.707 317.652 387.935 317.466 388.115 317.237C388.295 317.007 388.422 316.741 388.486 316.456C388.55 316.172 388.55 315.877 388.485 315.593L384.54 297.68Z" fill="white"/>
<path d="M318.197 308.999H315.051L314.656 310.689H317.718L318.197 308.999Z" fill="black"/>
<path d="M298.311 318.204H289.246C289.176 318.205 289.106 318.192 289.04 318.166C288.975 318.139 288.915 318.1 288.865 318.05C288.815 318 288.776 317.941 288.749 317.875C288.723 317.809 288.71 317.739 288.711 317.669C288.711 317.527 288.767 317.39 288.868 317.29C288.968 317.19 289.104 317.133 289.246 317.133H298.311C299.798 317.136 301.267 316.804 302.609 316.162C303.95 315.519 305.13 314.583 306.06 313.423C307.091 312.135 308.4 311.096 309.888 310.384C311.376 309.672 313.005 309.304 314.655 309.309H316.252C316.393 309.311 316.528 309.368 316.628 309.468C316.728 309.568 316.785 309.703 316.787 309.844C316.787 309.986 316.731 310.122 316.63 310.223C316.53 310.323 316.394 310.38 316.252 310.38H314.674C313.187 310.377 311.718 310.709 310.376 311.351C309.035 311.993 307.855 312.929 306.924 314.09C305.891 315.38 304.58 316.419 303.088 317.132C301.597 317.844 299.964 318.211 298.311 318.204Z" fill="black"/>
<path d="M147.266 311.572V315.489C147.266 317.255 149.398 317.988 151.164 317.988H288.849C290.596 317.988 292.672 317.255 292.672 315.489V311.572H147.266Z" fill="#263238"/>
<path opacity="0.4" d="M147.266 311.572V315.489C147.266 317.255 149.398 317.988 151.164 317.988H288.849C290.596 317.988 292.672 317.255 292.672 315.489V311.572H147.266Z" fill="white"/>
<path opacity="0.2" d="M194.176 311.572V315.489C194.176 317.255 196.27 317.988 198.036 317.988H288.85C290.597 317.988 292.673 317.255 292.673 315.489V311.572H194.176Z" fill="black"/>
<path d="M315.713 237.066L299.322 311.413C299.028 312.608 298.347 313.672 297.386 314.44C296.424 315.208 295.236 315.636 294.006 315.658H204.46C202.084 315.658 200.543 313.432 201.097 310.962L217.47 237.178C218.024 234.755 220.391 233.543 222.796 233.543H312.332C314.736 233.553 316.249 234.642 315.713 237.066Z" fill="#263238"/>
<path opacity="0.4" d="M315.715 237.066L299.323 311.413C299.029 312.608 298.349 313.672 297.387 314.44C296.426 315.208 295.237 315.636 294.007 315.658H207.505C205.1 315.658 203.588 313.432 204.123 310.962L220.514 237.178C221.05 234.755 223.436 233.543 225.84 233.543H312.333C314.738 233.553 316.25 234.642 315.715 237.066Z" fill="white"/>
<g clip-path="url(#clip1_1370_22507)">
<path d="M260.419 259.745C262.236 257.386 264.762 257.375 264.762 257.375C264.762 257.375 265.138 259.592 263.333 261.729C261.405 264.01 259.215 263.637 259.215 263.637C259.215 263.637 258.803 261.843 260.419 259.745ZM259.446 265.19C260.38 265.19 262.115 263.925 264.373 263.925C268.26 263.925 269.789 266.649 269.789 266.649C269.789 266.649 266.799 268.155 266.799 271.81C266.799 275.933 270.524 277.353 270.524 277.353C270.524 277.353 267.92 284.574 264.402 284.574C262.787 284.574 261.531 283.501 259.828 283.501C258.093 283.501 256.372 284.614 255.251 284.614C252.039 284.614 247.98 277.765 247.98 272.259C247.98 266.842 251.415 264 254.637 264C256.732 264 258.357 265.19 259.446 265.19Z" fill="white"/>
</g>
<g clip-path="url(#clip2_1370_22507)">
<mask id="mask0_1370_22507" style="mask-type:luminance" maskUnits="userSpaceOnUse" x="348" y="56" width="27" height="27">
<path d="M348.488 56.3592H374.789V82.6602H348.488V56.3592Z" fill="white"/>
</mask>
<g mask="url(#mask0_1370_22507)">
<path d="M350.359 69.5094C350.359 73.975 352.954 77.8337 356.717 79.6626L351.336 64.9182C350.691 66.3628 350.358 67.9273 350.359 69.5094ZM369.256 68.9401C369.256 67.5458 368.756 66.5803 368.326 65.8288C367.754 64.8995 367.218 64.1126 367.218 63.1833C367.218 62.1463 368.005 61.1809 369.113 61.1809C369.163 61.1809 369.21 61.1871 369.259 61.1899C367.252 59.3511 364.578 58.2285 361.641 58.2285C357.7 58.2285 354.232 60.2506 352.215 63.3134C352.48 63.3213 352.729 63.3267 352.941 63.3267C354.121 63.3267 355.947 63.1835 355.947 63.1835C356.556 63.1477 356.627 64.0409 356.02 64.1128C356.02 64.1128 355.409 64.1847 354.729 64.2203L358.837 76.4399L361.306 69.0356L359.548 64.2201C358.94 64.1845 358.365 64.1126 358.365 64.1126C357.757 64.0769 357.828 63.1474 358.436 63.1833C358.436 63.1833 360.299 63.3265 361.408 63.3265C362.588 63.3265 364.414 63.1833 364.414 63.1833C365.023 63.1474 365.094 64.0406 364.487 64.1126C364.487 64.1126 363.874 64.1845 363.195 64.2201L367.272 76.3472L368.397 72.587C368.885 71.0266 369.256 69.9058 369.256 68.9401Z" fill="white"/>
<path d="M361.838 70.4961L358.453 80.3315C359.488 80.6365 360.561 80.7913 361.64 80.7913C362.954 80.7913 364.214 80.564 365.386 80.1518C365.355 80.1026 365.328 80.0506 365.306 79.9964L361.838 70.4961ZM371.539 64.0969C371.587 64.4562 371.615 64.8422 371.615 65.2569C371.615 66.4017 371.401 67.6886 370.757 69.2977L367.311 79.2608C370.665 77.305 372.921 73.6714 372.921 69.5093C372.924 67.6175 372.448 65.7557 371.539 64.0969Z" fill="white"/>
<path d="M361.639 56.3592C354.388 56.3592 348.488 62.2583 348.488 69.5093C348.488 76.7613 354.388 82.6604 361.639 82.6604C368.89 82.6604 374.79 76.7615 374.79 69.5093C374.79 62.2583 368.89 56.3592 361.639 56.3592ZM361.639 82.0574C354.72 82.0574 349.091 76.4283 349.091 69.5093C349.091 62.591 354.72 56.9624 361.639 56.9624C368.557 56.9624 374.186 62.591 374.186 69.5093C374.186 76.4283 368.557 82.0574 361.639 82.0574Z" fill="white"/>
</g>
</g>
</g>
<defs>
<clipPath id="clip0_1370_22507">
<rect width="469.66" height="350" fill="white"/>
</clipPath>
<clipPath id="clip1_1370_22507">
<rect width="22.5437" height="27.2403" fill="white" transform="translate(247.98 257.374)"/>
</clipPath>
<clipPath id="clip2_1370_22507">
<rect width="26.301" height="26.301" fill="white" transform="translate(348.488 56.3592)"/>
</clipPath>
</defs>
</svg>
