<svg width="698" height="435" viewBox="0 0 698 435" fill="none" xmlns="http://www.w3.org/2000/svg">
<g clip-path="url(#clip0_1108_15328)">
<path d="M324.97 326.99C327.358 325.296 329.961 323.927 332.71 322.92L333.77 314.92L347.12 313.7L349.62 321.4C352.506 321.889 355.314 322.76 357.97 323.99L364.4 319.06L374.7 327.64L371.03 334.85C372.721 337.238 374.087 339.841 375.09 342.59L383.09 343.65L384.32 357L376.68 359.48C376.195 362.364 375.323 365.169 374.09 367.82L379.02 374.25L370.44 384.55L363.23 380.88C360.842 382.572 358.239 383.937 355.49 384.94L354.43 392.94L341.08 394.17L338.58 386.46C335.693 385.975 332.885 385.103 330.23 383.87L323.8 388.8L313.5 380.22L317.18 373.01C315.482 370.625 314.113 368.021 313.11 365.27L305.11 364.21L303.89 350.86L311.59 348.36C312.08 345.475 312.951 342.667 314.18 340.01L309.25 333.58L317.83 323.28L325.04 326.96L324.97 326.99ZM333.42 344.27C331.606 346.46 330.482 349.138 330.19 351.966C329.898 354.795 330.451 357.646 331.779 360.16C333.107 362.675 335.151 364.739 337.652 366.092C340.153 367.444 342.999 368.026 345.83 367.762C348.661 367.497 351.35 366.4 353.558 364.608C355.765 362.816 357.392 360.409 358.232 357.693C359.072 354.976 359.088 352.072 358.278 349.346C357.468 346.621 355.868 344.197 353.68 342.38C352.226 341.173 350.549 340.264 348.743 339.706C346.938 339.147 345.04 338.95 343.158 339.126C341.277 339.301 339.448 339.846 337.777 340.729C336.106 341.611 334.626 342.815 333.42 344.27Z" fill="#EBEBEB"/>
<path d="M404.19 370.82C405.69 369.764 407.32 368.907 409.04 368.27L409.71 363.27L418.08 362.5L419.65 367.33C421.46 367.632 423.22 368.18 424.88 368.96L428.88 365.87L435.34 371.24L433.04 375.77C434.101 377.265 434.955 378.897 435.58 380.62L440.58 381.28L441.35 389.65L436.52 391.22C436.209 393.027 435.661 394.786 434.89 396.45L437.98 400.45L432.68 406.91L428.15 404.61C426.653 405.67 425.022 406.527 423.3 407.16L422.64 412.16L414.27 412.93L412.68 408.13C410.871 407.828 409.111 407.28 407.45 406.5L403.45 409.59L396.99 404.22L399.29 399.69C398.227 398.195 397.369 396.564 396.74 394.84L391.74 394.18L390.97 385.81L395.8 384.24C396.103 382.432 396.648 380.673 397.42 379.01L394.33 375.01L399.71 368.55L404.23 370.85L404.19 370.82ZM409.49 381.66C408.355 383.03 407.651 384.705 407.467 386.475C407.283 388.244 407.628 390.028 408.458 391.602C409.288 393.176 410.565 394.468 412.129 395.316C413.693 396.164 415.473 396.529 417.245 396.366C419.017 396.203 420.7 395.518 422.083 394.398C423.465 393.279 424.485 391.775 425.013 390.076C425.541 388.377 425.554 386.56 425.05 384.853C424.546 383.147 423.547 381.629 422.18 380.49C421.271 379.732 420.221 379.161 419.09 378.81C417.96 378.458 416.771 378.333 415.592 378.442C414.414 378.551 413.268 378.891 412.221 379.443C411.174 379.995 410.246 380.749 409.49 381.66Z" fill="#EBEBEB"/>
<path d="M174.86 69.22C176.595 67.9729 178.488 66.9639 180.49 66.22L181.27 60.37L190.98 59.48L192.8 65.09C194.901 65.4459 196.945 66.0781 198.88 66.97L203.56 63.39L211.06 69.63L208.38 74.88C209.63 76.6129 210.639 78.5067 211.38 80.51L217.22 81.28L218.12 91L212.51 92.82C212.156 94.9222 211.52 96.9671 210.62 98.9L214.21 103.57L207.97 111.07L202.68 108.44C200.944 109.683 199.051 110.692 197.05 111.44L196.27 117.28L186.56 118.17L184.74 112.56C182.639 112.209 180.594 111.576 178.66 110.68L173.98 114.27L166.48 108.02L169.16 102.77C167.909 101.038 166.9 99.1442 166.16 97.14L160.31 96.37L159.42 86.66L165.03 84.83C165.385 82.731 166.021 80.6894 166.92 78.76L163.33 74.08L169.57 66.58L174.82 69.26L174.86 69.22ZM181.01 81.79C179.685 83.3815 178.861 85.3303 178.644 87.3899C178.426 89.4495 178.824 91.5274 179.788 93.3607C180.751 95.194 182.237 96.7005 184.056 97.6894C185.876 98.6783 187.948 99.1053 190.011 98.9164C192.073 98.7275 194.033 97.9312 195.643 96.6282C197.253 95.3252 198.44 93.574 199.055 91.5961C199.669 89.6183 199.683 87.5026 199.095 85.5168C198.507 83.531 197.343 81.7642 195.75 80.44C193.616 78.6653 190.865 77.8106 188.101 78.0637C185.337 78.3169 182.787 79.6572 181.01 81.79Z" fill="#E0E0E0"/>
<path d="M358.78 9.6502C360.505 8.40484 362.388 7.39589 364.38 6.6502L365.15 0.830196L374.82 -0.0498047L376.68 5.5802C378.755 5.93597 380.773 6.56827 382.68 7.4602L387.33 3.89019L394.8 10.1002L392.13 15.3202C393.362 17.0487 394.354 18.9358 395.08 20.9302L400.9 21.7002L401.78 31.3802L396.2 33.1902C395.844 35.2652 395.212 37.2832 394.32 39.1902L397.89 43.8402L391.68 51.3802L386.46 48.7102C384.732 49.9556 382.846 50.9646 380.85 51.7102L380.08 57.5202L370.42 58.4102L368.6 52.8302C366.525 52.4752 364.507 51.8429 362.6 50.9502L357.94 54.5202L350.48 48.3102L353.14 43.0902C351.89 41.3305 350.885 39.4098 350.15 37.3802L344.34 36.6102L343.45 26.9402L349.03 25.1302C349.387 23.0393 350.019 21.0049 350.91 19.0802L347.34 14.4302L353.55 6.9602L358.78 9.6302V9.6502ZM364.89 22.1602C363.571 23.7438 362.751 25.6831 362.534 27.7328C362.317 29.7825 362.712 31.8506 363.671 33.6754C364.629 35.5002 366.107 36.9997 367.918 37.9844C369.729 38.969 371.791 39.3945 373.844 39.207C375.896 39.0195 377.847 38.2275 379.449 36.931C381.052 35.6346 382.234 33.8921 382.846 31.9238C383.458 29.9556 383.472 27.8501 382.887 25.8736C382.303 23.8971 381.145 22.1385 379.56 20.8202C378.509 19.9441 377.296 19.2838 375.99 18.877C374.684 18.4702 373.31 18.3248 371.947 18.4493C370.585 18.5737 369.26 18.9655 368.049 19.6023C366.839 20.239 365.765 21.1082 364.89 22.1602Z" fill="#F5F5F5"/>
<path d="M448.1 23.2C449.084 22.5003 450.156 21.9353 451.29 21.52L451.73 18.21L457.23 17.71L458.23 20.88C459.422 21.0844 460.582 21.4441 461.68 21.95L464.33 19.95L468.57 23.48L467.06 26.48C467.753 27.4663 468.314 28.5386 468.73 29.67L472.04 30.11L472.55 35.61L469.37 36.61C469.171 37.7998 468.811 38.957 468.3 40.05L470.3 42.7L466.77 46.94L463.77 45.43C462.815 46.1083 461.777 46.6596 460.68 47.07L460.22 50.38L454.72 50.89L453.72 47.71C452.532 47.5081 451.375 47.1517 450.28 46.65L447.63 48.65L443.39 45.11L444.9 42.11C444.205 41.1249 443.644 40.0522 443.23 38.92L439.92 38.49L439.42 32.99L442.59 31.99C442.799 30.8064 443.165 29.6561 443.68 28.57L441.68 25.93L445.21 21.68L448.21 23.2H448.1ZM451.58 30.31C450.829 31.211 450.362 32.3145 450.238 33.4809C450.114 34.6472 450.339 35.8242 450.884 36.8627C451.43 37.9013 452.27 38.7549 453.301 39.3155C454.331 39.8761 455.504 40.1186 456.673 40.0123C457.841 39.906 458.951 39.4556 459.863 38.7182C460.775 37.9808 461.448 36.9894 461.797 35.8695C462.146 34.7496 462.154 33.5514 461.822 32.4265C461.49 31.3016 460.831 30.3006 459.93 29.55C458.722 28.5438 457.163 28.0586 455.598 28.2011C454.032 28.3437 452.587 29.1022 451.58 30.31Z" fill="#F5F5F5"/>
<path d="M122.68 181.53C124.284 180.393 126.033 179.475 127.88 178.8L128.59 173.41L137.59 172.59L139.27 177.76C141.207 178.085 143.091 178.67 144.87 179.5L149.19 176.19L156.1 181.94L153.63 186.79C154.773 188.388 155.691 190.134 156.36 191.98L161.75 192.69L162.58 201.69L157.31 203.38C156.984 205.319 156.403 207.205 155.58 208.99L158.88 213.3L153.13 220.22L148.28 217.75C146.678 218.886 144.933 219.804 143.09 220.48L142.38 225.87L133.38 226.69L131.7 221.52C129.764 221.193 127.881 220.608 126.1 219.78L121.78 223.09L114.87 217.33L117.33 212.49C116.195 210.888 115.277 209.143 114.6 207.3L109.21 206.58L108.39 197.58L113.56 195.9C113.894 193.966 114.479 192.083 115.3 190.3L112 185.99L117.75 179.07L122.59 181.54L122.68 181.53ZM128.35 193.12C127.129 194.587 126.37 196.383 126.169 198.281C125.968 200.179 126.335 202.094 127.222 203.784C128.11 205.473 129.478 206.862 131.155 207.774C132.832 208.685 134.741 209.08 136.642 208.906C138.543 208.733 140.349 208 141.833 206.799C143.317 205.599 144.412 203.986 144.979 202.163C145.546 200.341 145.56 198.391 145.019 196.561C144.478 194.73 143.407 193.102 141.94 191.88C140.964 191.063 139.837 190.447 138.622 190.066C137.408 189.686 136.13 189.55 134.862 189.665C133.595 189.78 132.363 190.145 131.236 190.738C130.11 191.331 129.112 192.141 128.3 193.12H128.35Z" fill="#E0E0E0"/>
<path d="M47.4402 109.52H12.1202C11.5385 109.524 10.9618 109.413 10.4233 109.193C9.88481 108.973 9.39511 108.649 8.98242 108.239C8.56973 107.829 8.24221 107.342 8.01871 106.805C7.79522 106.268 7.68016 105.692 7.68018 105.11V56.2301C7.68018 55.0578 8.14585 53.9336 8.97476 53.1046C9.80367 52.2757 10.9279 51.8101 12.1002 51.8101H34.5002L51.8502 69.6801V105.11C51.8515 105.69 51.7383 106.264 51.5172 106.799C51.296 107.335 50.9712 107.822 50.5615 108.231C50.1517 108.641 49.665 108.966 49.1294 109.187C48.5937 109.408 48.0197 109.521 47.4402 109.52Z" fill="#EBEBEB"/>
<path d="M7.70996 92H51.86V103.8C51.86 105.317 51.2573 106.772 50.1846 107.845C49.1119 108.917 47.657 109.52 46.14 109.52H13.43C11.9129 109.52 10.458 108.917 9.38531 107.845C8.3126 106.772 7.70996 105.317 7.70996 103.8V92Z" fill="#E0E0E0"/>
<path d="M23.3501 103.31L24.4601 101.98C24.6248 102.267 24.8581 102.509 25.1391 102.683C25.4201 102.858 25.74 102.96 26.0701 102.98C26.8701 102.98 27.2901 102.49 27.2901 101.54V97.3803H24.2901V95.7803H29.2901V101.38C29.2901 103.52 28.2101 104.57 26.1801 104.57C25.6433 104.592 25.1089 104.489 24.6181 104.27C24.1274 104.052 23.6935 103.723 23.3501 103.31Z" fill="#FAFAFA"/>
<path d="M30.4702 103.8L31.1102 102.42C31.8103 102.833 32.6073 103.054 33.4202 103.06C34.3102 103.06 34.6402 102.83 34.6402 102.46C34.6402 101.37 30.6402 102.46 30.6402 99.8301C30.6402 98.5701 31.7802 97.6801 33.7202 97.6801C34.6047 97.6637 35.4799 97.8627 36.2702 98.2601L35.6302 99.6301C35.0472 99.3029 34.3887 99.134 33.7202 99.1401C32.8502 99.1401 32.4802 99.4101 32.4802 99.7501C32.4802 100.89 36.4802 99.7501 36.4802 102.41C36.4802 103.64 35.3302 104.52 33.3502 104.52C32.3434 104.54 31.3494 104.291 30.4702 103.8Z" fill="#FAFAFA"/>
<path d="M17.0601 82.8204L18.4401 81.2004C18.8059 81.801 19.3178 82.2993 19.928 82.649C20.5382 82.9987 21.2269 83.1884 21.9301 83.2004C23.8101 83.2004 24.7901 82.0504 24.7901 79.8104V70.3804H18.7901V68.3804H27.1901V79.7204C27.1901 83.4404 25.3801 85.2804 21.9701 85.2804C21.0124 85.3061 20.0632 85.0951 19.2067 84.6659C18.3501 84.2368 17.6128 83.6029 17.0601 82.8204Z" fill="#FAFAFA"/>
<path d="M30.0903 83.7003L31.0903 81.8903C32.4124 82.7474 33.9547 83.2025 35.5303 83.2003C37.6503 83.2003 38.5303 82.5602 38.5303 81.4802C38.5303 78.6402 30.5303 81.1003 30.5303 76.0703C30.5303 73.8003 32.5303 72.2702 35.8003 72.2702C37.3976 72.2354 38.9763 72.618 40.3803 73.3803L39.3803 75.1902C38.2876 74.5072 37.0186 74.1595 35.7303 74.1902C33.7303 74.1902 32.7303 74.9303 32.7303 75.9303C32.7303 78.9303 40.7303 76.4802 40.7303 81.4002C40.7303 83.6902 38.6303 85.1403 35.2603 85.1403C33.4315 85.1903 31.63 84.6885 30.0903 83.7003Z" fill="#FAFAFA"/>
<g opacity="0.3">
<path d="M34.52 51.8101V65.5701C34.5213 66.1132 34.6302 66.6507 34.8405 67.1514C35.0507 67.6522 35.3582 68.1064 35.745 68.4876C36.1318 68.8689 36.5904 69.1697 37.0941 69.3726C37.5979 69.5756 38.1369 69.6767 38.68 69.6701H51.85L34.52 51.8101Z" fill="white"/>
</g>
<path d="M34.6802 66.77C34.6871 67.8119 35.0497 68.8201 35.7081 69.6276C36.3665 70.4352 37.281 70.9935 38.3002 71.21C38.4447 71.2496 38.5917 71.2797 38.7402 71.3C40.4702 71.61 51.8302 73.63 51.8302 73.37V69.68H38.6802C38.6802 69.68 35.3202 69.56 34.6802 66.77Z" fill="#E0E0E0"/>
<path d="M108.57 81.04H64.94C63.4919 81.04 62.1031 80.4647 61.0792 79.4408C60.0552 78.4168 59.48 77.0281 59.48 75.58V15.19C59.48 13.7419 60.0552 12.3531 61.0792 11.3292C62.1031 10.3052 63.4919 9.72998 64.94 9.72998H92.61L114.02 31.81V75.58C114.02 77.0263 113.446 78.4136 112.424 79.4373C111.403 80.4609 110.016 81.0373 108.57 81.04Z" fill="#EBEBEB"/>
<path d="M60.72 59.4004H112.79C113.114 59.4082 113.421 59.5423 113.648 59.774C113.874 60.0057 114 60.3167 114 60.6404V74.5604C113.99 76.2669 113.306 77.9003 112.099 79.1061C110.891 80.3118 109.257 80.9925 107.55 81.0004H66C65.1491 81.0004 64.3064 80.8328 63.5202 80.5071C62.734 80.1815 62.0197 79.7042 61.418 79.1024C60.8162 78.5007 60.3389 77.7864 60.0133 77.0002C59.6876 76.214 59.52 75.3714 59.52 74.5204V60.6404C59.52 60.3115 59.6507 59.9961 59.8832 59.7636C60.1158 59.531 60.4311 59.4004 60.76 59.4004H60.72Z" fill="#E0E0E0"/>
<g opacity="0.2">
<path d="M92.6104 9.72998V26.73C92.6103 28.0756 93.1442 29.3662 94.0947 30.3186C95.0452 31.271 96.3348 31.8073 97.6804 31.81H114.02L92.6104 9.72998Z" fill="white"/>
</g>
<path d="M92.8301 28.2202C92.8391 29.5078 93.2884 30.7536 94.1034 31.7505C94.9184 32.7474 96.05 33.4354 97.3101 33.7002C97.4842 33.7508 97.6612 33.7908 97.8401 33.8202C99.9801 34.2002 114.02 36.7002 114.02 36.3802V31.8102H97.6801C97.6801 31.8102 93.6001 31.6702 92.8301 28.2202Z" fill="#E0E0E0"/>
<path d="M75.0903 68.8303C75.1453 67.9154 75.4683 67.037 76.019 66.3043C76.5697 65.5717 77.3239 65.0173 78.1874 64.7103C79.051 64.4032 79.9858 64.3571 80.8755 64.5776C81.7651 64.7981 82.5701 65.2755 83.1903 65.9503L81.9303 67.1103C81.6728 66.7948 81.3477 66.5412 80.9791 66.3681C80.6104 66.195 80.2076 66.1069 79.8003 66.1103C79.4299 66.0878 79.0589 66.1414 78.7099 66.2676C78.361 66.3939 78.0416 66.5903 77.7713 66.8446C77.5011 67.0989 77.2858 67.4058 77.1386 67.7465C76.9914 68.0871 76.9155 68.4542 76.9155 68.8253C76.9155 69.1964 76.9914 69.5636 77.1386 69.9042C77.2858 70.2448 77.5011 70.5518 77.7713 70.8061C78.0416 71.0604 78.361 71.2567 78.7099 71.383C79.0589 71.5093 79.4299 71.5628 79.8003 71.5403C80.2076 71.5437 80.6104 71.4557 80.9791 71.2826C81.3477 71.1095 81.6728 70.8558 81.9303 70.5403L83.1903 71.7003C82.5728 72.3794 81.7684 72.8609 80.8782 73.0846C79.988 73.3082 79.0516 73.264 78.1864 72.9575C77.3213 72.6509 76.5659 72.0957 76.0151 71.3615C75.4643 70.6273 75.1426 69.7467 75.0903 68.8303Z" fill="#FAFAFA"/>
<path d="M83.77 72.23L84.43 70.76C85.2543 71.3268 86.2297 71.6334 87.23 71.64C88.4 71.64 88.87 71.25 88.87 70.73C88.87 69.14 83.94 70.24 83.94 67.08C83.94 65.64 85.1 64.44 87.51 64.44C88.5596 64.4124 89.5969 64.6717 90.51 65.19L89.9 66.68C89.1852 66.2645 88.3766 66.0374 87.55 66.02C86.39 66.02 85.94 66.45 85.94 67.02C85.94 68.58 90.87 67.5 90.87 70.62C90.87 72.03 89.69 73.25 87.27 73.25C86.0258 73.2812 84.8027 72.9248 83.77 72.23Z" fill="#FAFAFA"/>
<path d="M91.4902 72.23L92.1602 70.76C92.9845 71.3268 93.9599 71.6334 94.9602 71.64C96.1202 71.64 96.6002 71.25 96.6002 70.73C96.6002 69.14 91.6602 70.24 91.6602 67.08C91.6602 65.64 92.8302 64.44 95.2402 64.44C96.2699 64.4203 97.2858 64.6794 98.1802 65.19L97.5802 66.68C96.8655 66.2645 96.0568 66.0374 95.2302 66.02C94.0602 66.02 93.6102 66.45 93.6102 67.02C93.6102 68.58 98.5502 67.5 98.5502 70.62C98.5502 72.03 97.3702 73.25 94.9502 73.25C93.7196 73.273 92.5116 72.9169 91.4902 72.23Z" fill="#FAFAFA"/>
<path d="M77.8602 41.38C78.7602 41.66 79.1702 42.22 79.1702 43.57V46.68C79.1444 46.8734 79.1632 47.0702 79.2252 47.2553C79.2871 47.4403 79.3906 47.6088 79.5276 47.7477C79.6646 47.8867 79.8316 47.9924 80.0157 48.057C80.1999 48.1215 80.3964 48.1431 80.5902 48.12H80.9402V50.49H79.8102C77.3802 50.49 76.1302 49.25 76.1302 47.01V43.48C76.1488 43.3601 76.14 43.2375 76.1043 43.1216C76.0686 43.0056 76.007 42.8993 75.9241 42.8107C75.8413 42.722 75.7393 42.6534 75.626 42.61C75.5127 42.5665 75.391 42.5495 75.2702 42.56H74.6802V40.19H75.3202C75.441 40.2005 75.5627 40.1835 75.676 40.14C75.7893 40.0966 75.8913 40.028 75.9741 39.9393C76.057 39.8507 76.1186 39.7444 76.1543 39.6284C76.19 39.5125 76.1988 39.3899 76.1802 39.27V35.74C76.1802 33.5 77.4302 32.25 79.8602 32.25H80.9902V34.63H80.6402C80.4464 34.6069 80.2499 34.6285 80.0657 34.693C79.8816 34.7576 79.7146 34.8633 79.5776 35.0023C79.4405 35.1412 79.3371 35.3097 79.2752 35.4947C79.2132 35.6798 79.1944 35.8766 79.2202 36.07V39.19C79.1702 40.54 78.7602 41.1 77.8602 41.38Z" fill="#FAFAFA"/>
<path d="M98.8701 40.19V42.56H98.2301C98.1092 42.5495 97.9875 42.5665 97.8742 42.61C97.7609 42.6534 97.659 42.722 97.5761 42.8107C97.4933 42.8993 97.4317 43.0056 97.396 43.1216C97.3603 43.2375 97.3514 43.3601 97.3701 43.48V47.01C97.3701 49.25 96.1301 50.49 93.6901 50.49H92.5601V48.12H92.9101C93.1038 48.1431 93.3003 48.1215 93.4845 48.057C93.6687 47.9924 93.8356 47.8867 93.9727 47.7477C94.1097 47.6088 94.2131 47.4403 94.2751 47.2553C94.337 47.0702 94.3558 46.8734 94.3301 46.68V43.56C94.3301 42.21 94.7401 41.65 95.6401 41.37C94.7401 41.1 94.3301 40.54 94.3301 39.19V36.07C94.3558 35.8766 94.337 35.6798 94.2751 35.4947C94.2131 35.3097 94.1097 35.1412 93.9727 35.0023C93.8356 34.8633 93.6687 34.7576 93.4845 34.693C93.3003 34.6285 93.1038 34.6069 92.9101 34.63H92.5601V32.25H93.6801C96.1201 32.25 97.3601 33.5 97.3601 35.74V39.27C97.3414 39.3899 97.3503 39.5125 97.386 39.6284C97.4217 39.7444 97.4833 39.8507 97.5661 39.9393C97.649 40.028 97.7509 40.0966 97.8642 40.14C97.9775 40.1835 98.0992 40.2005 98.2201 40.19H98.8701Z" fill="#FAFAFA"/>
<path d="M697.36 433.83C697.36 433.98 541.24 434.09 348.7 434.09C156.16 434.09 0 433.98 0 433.83C0 433.68 156.09 433.57 348.7 433.57C541.31 433.57 697.36 433.69 697.36 433.83Z" fill="#263238"/>
<path d="M145.45 97.21H488.29C490.862 97.21 493.33 98.2319 495.149 100.051C496.968 101.87 497.99 104.337 497.99 106.91V333.18C497.99 336.461 496.687 339.607 494.367 341.927C492.047 344.247 488.901 345.55 485.62 345.55H144.91C142.483 345.55 140.156 344.586 138.44 342.87C136.724 341.154 135.76 338.827 135.76 336.4V106.91C135.76 104.339 136.78 101.873 138.597 100.055C140.414 98.2357 142.879 97.2126 145.45 97.21Z" fill="#263238"/>
<path d="M207.55 132.83H182V138.4H207.55V132.83Z" fill="#455A64"/>
<path d="M194.77 157.78H182V163.35H194.77V157.78Z" fill="#407BFF"/>
<path d="M209.6 170.33H191.61V175.9H209.6V170.33Z" fill="#455A64"/>
<path d="M222.94 170.33H212.46V175.9H222.94V170.33Z" fill="#455A64"/>
<path d="M316.9 170.33H295.35V175.9H316.9V170.33Z" fill="#455A64"/>
<path d="M379.9 182.56H343.49V188.13H379.9V182.56Z" fill="#455A64"/>
<path d="M436.08 170.33H418.59V175.9H436.08V170.33Z" fill="#455A64"/>
<path d="M476.6 170.33H441.44V175.9H476.6V170.33Z" fill="#455A64"/>
<path d="M209.6 182.56H191.61V188.13H209.6V182.56Z" fill="#455A64"/>
<path d="M198.55 194.77H180.56V200.34H198.55V194.77Z" fill="#407BFF"/>
<path d="M198.54 206.97H190.14V212.54H198.54V206.97Z" fill="#455A64"/>
<path d="M229.39 232.67H220.99V238.24H229.39V232.67Z" fill="#455A64"/>
<path d="M353.01 279.12H336.59V284.69H353.01V279.12Z" fill="#455A64"/>
<path d="M444.75 279.12H404.52V284.69H444.75V279.12Z" fill="#455A64"/>
<path d="M291.19 266.93H274.77V272.5H291.19V266.93Z" fill="#E0E0E0"/>
<path d="M231.7 256.46H215.28V262.03H231.7V256.46Z" fill="#455A64"/>
<path d="M333.19 279.12H307.3V284.69H333.19V279.12Z" fill="#455A64"/>
<path d="M203.78 219.4H190.14V224.97H203.78V219.4Z" fill="#455A64"/>
<path d="M215.44 232.88H190.14V238.45H215.44V232.88Z" fill="#455A64"/>
<path d="M227.15 243.21H190.14V248.78H227.15V243.21Z" fill="#455A64"/>
<path d="M294.21 243.21H257.2V248.78H294.21V243.21Z" fill="#455A64"/>
<path d="M266.92 266.93H214.95V272.5H266.92V266.93Z" fill="#455A64"/>
<path d="M302.85 279.12H214.95V284.69H302.85V279.12Z" fill="#455A64"/>
<path d="M276.26 291.31H188.36V296.88H276.26V291.31Z" fill="#455A64"/>
<path d="M253.26 243.21H231.06V248.78H253.26V243.21Z" fill="#455A64"/>
<path d="M224.77 206.97H201.86V212.54H224.77V206.97Z" fill="#455A64"/>
<path d="M229.82 219.4H206.91V224.97H229.82V219.4Z" fill="#455A64"/>
<path d="M318.59 219.4H257.92V224.97H318.59V219.4Z" fill="#455A64"/>
<path d="M390.31 219.4H320.24V224.97H390.31V219.4Z" fill="#455A64"/>
<path d="M252.55 219.4H233.59V224.97H252.55V219.4Z" fill="#455A64"/>
<path d="M257.94 206.97H227.91V212.54H257.94V206.97Z" fill="#455A64"/>
<path d="M277.98 206.97H261.26V212.54H277.98V206.97Z" fill="#E0E0E0"/>
<path d="M231.21 182.56H212.46V188.13H231.21V182.56Z" fill="#455A64"/>
<path d="M336.54 182.56H243.95V188.13H336.54V182.56Z" fill="#455A64"/>
<path d="M440.48 219.4H396.7V224.97H440.48V219.4Z" fill="#455A64"/>
<path d="M401.06 279.12H357.28V284.69H401.06V279.12Z" fill="#455A64"/>
<path d="M411.78 170.33H320.57V175.9H411.78V170.33Z" fill="#455A64"/>
<path d="M289.68 170.33H226.21V175.9H289.68V170.33Z" fill="#455A64"/>
<path d="M224.73 144.64H182V150.21H224.73V144.64Z" fill="#455A64"/>
<path d="M287.5 144.64H228.99V150.21H287.5V144.64Z" fill="#455A64"/>
<path d="M230.35 132.83H211.54V138.4H230.35V132.83Z" fill="#E0E0E0"/>
<path d="M162.5 132.83H157.1V138.4H162.5V132.83Z" fill="#455A64"/>
<path d="M162.5 145.02H157.1V150.59H162.5V145.02Z" fill="#455A64"/>
<path d="M162.5 157.21H157.1V162.78H162.5V157.21Z" fill="#455A64"/>
<path d="M162.5 169.4H157.1V174.97H162.5V169.4Z" fill="#455A64"/>
<path d="M162.5 181.59H157.1V187.16H162.5V181.59Z" fill="#455A64"/>
<path d="M162.5 193.78H157.1V199.35H162.5V193.78Z" fill="#455A64"/>
<path d="M162.5 205.97H157.1V211.54H162.5V205.97Z" fill="#455A64"/>
<path d="M162.5 218.16H157.1V223.73H162.5V218.16Z" fill="#455A64"/>
<path d="M162.5 230.35H157.1V235.92H162.5V230.35Z" fill="#455A64"/>
<path d="M227.33 317.64H218.93V323.21H227.33V317.64Z" fill="#E0E0E0"/>
<path d="M213.82 317.64H188.52V323.21H213.82V317.64Z" fill="#407BFF"/>
<path d="M162.5 317.02H157.1V322.59H162.5V317.02Z" fill="#455A64"/>
<path d="M162.5 242.54H157.1V248.11H162.5V242.54Z" fill="#455A64"/>
<path d="M162.5 254.74H157.1V260.31H162.5V254.74Z" fill="#455A64"/>
<path d="M162.5 266.93H157.1V272.5H162.5V266.93Z" fill="#455A64"/>
<path d="M162.5 279.12H157.1V284.69H162.5V279.12Z" fill="#455A64"/>
<path d="M162.5 291.31H157.1V296.88H162.5V291.31Z" fill="#455A64"/>
<path d="M213.99 304.14H188.36V309.71H213.99V304.14Z" fill="#455A64"/>
<path d="M276.9 304.14H218.93V309.71H276.9V304.14Z" fill="#455A64"/>
<path d="M162.5 304.14H157.1V309.71H162.5V304.14Z" fill="#455A64"/>
<path d="M313.46 144.6H294.65V150.17H313.46V144.6Z" fill="#E0E0E0"/>
<path d="M155.97 117.1C158.085 117.1 159.8 115.385 159.8 113.27C159.8 111.155 158.085 109.44 155.97 109.44C153.854 109.44 152.14 111.155 152.14 113.27C152.14 115.385 153.854 117.1 155.97 117.1Z" fill="#455A64"/>
<path d="M166.59 117.1C168.705 117.1 170.42 115.385 170.42 113.27C170.42 111.155 168.705 109.44 166.59 109.44C164.475 109.44 162.76 111.155 162.76 113.27C162.76 115.385 164.475 117.1 166.59 117.1Z" fill="#455A64"/>
<path d="M177.21 117.1C179.325 117.1 181.04 115.385 181.04 113.27C181.04 111.155 179.325 109.44 177.21 109.44C175.095 109.44 173.38 111.155 173.38 113.27C173.38 115.385 175.095 117.1 177.21 117.1Z" fill="#455A64"/>
<g opacity="0.3">
<path d="M466.16 245.99H329.78C325.781 245.99 322.54 249.231 322.54 253.23V325.21C322.54 329.208 325.781 332.45 329.78 332.45H466.16C470.158 332.45 473.4 329.208 473.4 325.21V253.23C473.4 249.231 470.158 245.99 466.16 245.99Z" fill="black"/>
</g>
<path d="M479.61 236.75H337.63C335.178 236.75 333.19 238.738 333.19 241.19V318.77C333.19 321.222 335.178 323.21 337.63 323.21H479.61C482.062 323.21 484.05 321.222 484.05 318.77V241.19C484.05 238.738 482.062 236.75 479.61 236.75Z" fill="#407BFF"/>
<path d="M392.3 290.55H378.52L375.96 296.88H366.56L380.94 264.3H390.02L404.44 296.88H394.86L392.3 290.55ZM389.6 283.76L385.41 273.38L381.22 283.81L389.6 283.76Z" fill="white"/>
<path d="M429.62 265.77C431.659 266.65 433.397 268.106 434.62 269.96C435.82 271.875 436.432 274.1 436.38 276.36C436.456 278.599 435.847 280.808 434.633 282.692C433.42 284.575 431.66 286.043 429.59 286.9C427.161 287.922 424.544 288.42 421.91 288.36H416.23V296.88H407.02V264.3H421.91C424.555 264.234 427.184 264.735 429.62 265.77ZM425.62 279.87C426.11 279.431 426.495 278.888 426.746 278.28C426.997 277.673 427.108 277.016 427.07 276.36C427.106 275.699 426.994 275.039 426.743 274.426C426.493 273.814 426.109 273.265 425.62 272.82C424.393 271.895 422.872 271.447 421.34 271.56H416.22V281.1H421.34C422.887 281.225 424.428 280.789 425.68 279.87H425.62Z" fill="white"/>
<path d="M440.88 264.3H450.1V296.88H440.88V264.3Z" fill="white"/>
<path d="M172.03 131.24C172.17 131.24 172.29 179.19 172.29 238.34C172.29 297.49 172.17 345.45 172.03 345.45C171.89 345.45 171.77 297.5 171.77 238.34C171.77 179.18 171.88 131.24 172.03 131.24Z" fill="#455A64"/>
<path d="M287.08 362.38C287.095 362.519 287.095 362.66 287.08 362.8C287.08 363.11 287.08 363.52 287.08 364.05C287.08 365.17 287.08 366.78 287.13 368.84C287.13 373.04 287.18 379.05 287.21 386.48C287.21 390.21 287.21 394.29 287.21 398.66C287.21 399.76 287.21 400.87 287.21 402C287.21 403.13 287.27 404.27 287.14 405.47C286.902 407.339 286.087 409.088 284.809 410.474C283.532 411.859 281.854 412.812 280.01 413.2C278.732 413.383 277.44 413.446 276.15 413.39H251.77L193.57 413.31L175.93 413.23L171.14 413.18H175.93L193.57 413.09L251.77 413.02H276.24C277.496 413.08 278.754 413.024 280 412.85C281.192 412.611 282.318 412.116 283.3 411.4C284.248 410.713 285.045 409.84 285.644 408.834C286.242 407.828 286.629 406.711 286.78 405.55C286.9 404.43 286.78 403.26 286.85 402.13C286.92 401 286.85 399.89 286.85 398.79C286.85 394.42 286.85 390.34 286.85 386.61C286.85 379.18 286.92 373.17 286.94 368.97C286.94 366.91 286.94 365.3 286.94 364.18C286.94 363.65 286.94 363.24 286.94 362.93C286.963 362.741 287.01 362.557 287.08 362.38Z" fill="#407BFF"/>
<path d="M290.56 358.9C290.554 359.589 290.344 360.261 289.957 360.832C289.569 361.402 289.021 361.844 288.383 362.104C287.744 362.363 287.042 362.427 286.367 362.288C285.692 362.15 285.073 361.814 284.588 361.324C284.104 360.833 283.775 360.21 283.644 359.534C283.513 358.857 283.585 358.156 283.851 357.521C284.118 356.885 284.567 356.342 285.141 355.961C285.716 355.58 286.391 355.378 287.08 355.38C287.54 355.381 287.995 355.473 288.419 355.651C288.844 355.829 289.229 356.089 289.552 356.416C289.875 356.743 290.131 357.131 290.304 357.557C290.477 357.984 290.564 358.44 290.56 358.9Z" fill="#407BFF"/>
<path d="M173.06 412.6C173.06 413.291 172.855 413.966 172.471 414.54C172.087 415.114 171.541 415.561 170.903 415.825C170.265 416.089 169.562 416.158 168.885 416.022C168.208 415.887 167.586 415.553 167.098 415.064C166.611 414.575 166.279 413.952 166.145 413.275C166.012 412.597 166.082 411.895 166.348 411.257C166.614 410.62 167.063 410.075 167.638 409.693C168.213 409.311 168.889 409.108 169.58 409.11C170.037 409.11 170.491 409.2 170.914 409.376C171.337 409.551 171.721 409.808 172.044 410.133C172.367 410.457 172.623 410.842 172.798 411.265C172.972 411.688 173.061 412.142 173.06 412.6Z" fill="#407BFF"/>
<path d="M567.9 331.49C567.902 332.453 567.618 333.396 567.084 334.198C566.55 335 565.79 335.626 564.9 335.996C564.011 336.366 563.031 336.464 562.086 336.278C561.14 336.091 560.272 335.628 559.59 334.947C558.907 334.266 558.443 333.399 558.254 332.454C558.065 331.509 558.161 330.529 558.529 329.639C558.898 328.748 559.522 327.987 560.323 327.451C561.124 326.916 562.066 326.63 563.03 326.63C564.32 326.63 565.557 327.142 566.47 328.053C567.383 328.964 567.897 330.2 567.9 331.49Z" fill="#407BFF"/>
<path d="M591.49 309.93C591.49 310.893 591.204 311.835 590.669 312.636C590.134 313.437 589.374 314.061 588.484 314.429C587.594 314.798 586.615 314.894 585.67 314.706C584.725 314.519 583.857 314.055 583.176 313.374C582.495 312.693 582.031 311.825 581.844 310.88C581.656 309.935 581.752 308.956 582.121 308.066C582.489 307.177 583.114 306.416 583.914 305.881C584.715 305.346 585.657 305.06 586.62 305.06C587.912 305.06 589.15 305.573 590.064 306.486C590.977 307.4 591.49 308.638 591.49 309.93Z" fill="#407BFF"/>
<path d="M568.37 288.38C568.372 289.344 568.088 290.286 567.554 291.088C567.02 291.891 566.26 292.516 565.37 292.886C564.481 293.257 563.501 293.354 562.556 293.168C561.611 292.981 560.742 292.518 560.06 291.837C559.378 291.156 558.913 290.289 558.724 289.344C558.535 288.399 558.631 287.419 559 286.529C559.368 285.638 559.992 284.877 560.793 284.341C561.594 283.806 562.536 283.52 563.5 283.52C564.139 283.519 564.772 283.643 565.363 283.887C565.954 284.131 566.491 284.488 566.943 284.94C567.395 285.391 567.754 285.928 567.999 286.518C568.244 287.108 568.37 287.741 568.37 288.38Z" fill="#407BFF"/>
<path d="M585.95 309.93C585.95 310.07 567 310.19 543.63 310.19C520.26 310.19 501.31 310.07 501.31 309.93C501.31 309.79 520.25 309.67 543.63 309.67C567.01 309.67 585.95 309.78 585.95 309.93Z" fill="#407BFF"/>
<path d="M563.029 333.71C562.889 333.71 562.77 323.76 562.77 311.49C562.77 299.22 562.889 289.27 563.029 289.27C563.169 289.27 563.289 299.22 563.289 311.49C563.289 323.76 563.179 333.71 563.029 333.71Z" fill="#407BFF"/>
<path d="M316.57 50.8901H243.27C238.642 50.8901 234.89 54.642 234.89 59.2701V102.06C234.89 106.688 238.642 110.44 243.27 110.44H316.57C321.198 110.44 324.95 106.688 324.95 102.06V59.2701C324.95 54.642 321.198 50.8901 316.57 50.8901Z" fill="#407BFF"/>
<g opacity="0.3">
<path d="M316.57 50.8901H243.27C238.642 50.8901 234.89 54.642 234.89 59.2701V102.06C234.89 106.688 238.642 110.44 243.27 110.44H316.57C321.198 110.44 324.95 106.688 324.95 102.06V59.2701C324.95 54.642 321.198 50.8901 316.57 50.8901Z" fill="black"/>
</g>
<path d="M310.52 50.8901H237.22C232.592 50.8901 228.84 54.642 228.84 59.2701V102.06C228.84 106.688 232.592 110.44 237.22 110.44H310.52C315.148 110.44 318.9 106.688 318.9 102.06V59.2701C318.9 54.642 315.148 50.8901 310.52 50.8901Z" fill="#407BFF"/>
<path d="M264.14 77.3202L251.87 81.6702L264.14 86.0202V91.6402L245.14 84.6402V78.7202L264.14 71.7202V77.3202Z" fill="white"/>
<path d="M277.68 62.7402H284.18L271.48 98.9802H264.98L277.68 62.7402Z" fill="white"/>
<path d="M303.54 78.7099V84.6299L284.54 91.6299V86.0099L296.82 81.6599L284.54 77.3099V71.6899L303.54 78.7099Z" fill="white"/>
<path d="M405.77 72.15C408.758 70.3472 411.973 68.9516 415.33 68L417.33 58.53L433.33 58.25L435.63 67.64C439.02 68.4719 442.283 69.7568 445.33 71.46L449.77 66.16H453.41L464.92 77.27L459.92 85.53C461.727 88.5159 463.122 91.7314 464.07 95.09L473.53 97.09L473.82 113.09L464.38 115.38C463.544 118.766 462.259 122.024 460.56 125.07L465.86 133.16L454.75 144.66H451.11L446.49 139.66C443.504 141.466 440.289 142.862 436.93 143.81L434.93 153.28L418.93 153.56L416.63 144.17C413.241 143.336 409.978 142.052 406.93 140.35L398.85 145.65H395.21L387.35 134.54L392.35 126.28C390.541 123.294 389.142 120.079 388.19 116.72L378.73 114.72L378.45 98.72L387.84 96.41C388.671 93.0208 389.952 89.7583 391.65 86.71L386.36 78.63L393.82 67.13H397.46L405.72 72.13L405.77 72.15ZM414.3 93.45C411.945 95.8906 410.366 98.9749 409.763 102.313C409.16 105.651 409.561 109.093 410.915 112.203C412.268 115.313 414.513 117.952 417.366 119.786C420.22 121.621 423.553 122.567 426.944 122.507C430.336 122.447 433.633 121.383 436.42 119.448C439.206 117.514 441.356 114.797 442.599 111.641C443.841 108.485 444.119 105.031 443.399 101.716C442.678 98.402 440.991 95.3756 438.55 93.02C436.93 91.4559 435.017 90.2264 432.921 89.4016C430.826 88.5767 428.588 88.1727 426.336 88.2126C424.084 88.2526 421.862 88.7356 419.797 89.6343C417.732 90.5329 415.864 91.8295 414.3 93.45Z" fill="#E0E0E0"/>
<g opacity="0.3">
<path d="M405.77 72.15C408.758 70.3472 411.973 68.9516 415.33 68L417.33 58.53L433.33 58.25L435.63 67.64C439.02 68.4719 442.283 69.7568 445.33 71.46L449.77 66.16H453.41L464.92 77.27L459.92 85.53C461.727 88.5159 463.122 91.7314 464.07 95.09L473.53 97.09L473.82 113.09L464.38 115.38C463.544 118.766 462.259 122.024 460.56 125.07L465.86 133.16L454.75 144.66H451.11L446.49 139.66C443.504 141.466 440.289 142.862 436.93 143.81L434.93 153.28L418.93 153.56L416.63 144.17C413.241 143.336 409.978 142.052 406.93 140.35L398.85 145.65H395.21L387.35 134.54L392.35 126.28C390.541 123.294 389.142 120.079 388.19 116.72L378.73 114.72L378.45 98.72L387.84 96.41C388.671 93.0208 389.952 89.7583 391.65 86.71L386.36 78.63L393.82 67.13H397.46L405.72 72.13L405.77 72.15ZM414.3 93.45C411.945 95.8906 410.366 98.9749 409.763 102.313C409.16 105.651 409.561 109.093 410.915 112.203C412.268 115.313 414.513 117.952 417.366 119.786C420.22 121.621 423.553 122.567 426.944 122.507C430.336 122.447 433.633 121.383 436.42 119.448C439.206 117.514 441.356 114.797 442.599 111.641C443.841 108.485 444.119 105.031 443.399 101.716C442.678 98.402 440.991 95.3756 438.55 93.02C436.93 91.4559 435.017 90.2264 432.921 89.4016C430.826 88.5767 428.588 88.1727 426.336 88.2126C424.084 88.2526 421.862 88.7356 419.797 89.6343C417.732 90.5329 415.864 91.8295 414.3 93.45Z" fill="black"/>
</g>
<path d="M402.13 72.15C405.113 70.3445 408.325 68.9486 411.68 68L413.68 58.53L429.68 58.25L431.98 67.64C435.37 68.4735 438.632 69.7583 441.68 71.46L449.76 66.16L461.26 77.27L456.26 85.53C458.07 88.5155 459.469 91.7311 460.42 95.09L469.88 97.09L470.16 113.09L460.73 115.38C459.902 118.767 458.62 122.026 456.92 125.07L462.21 133.16L451.11 144.66L442.85 139.66C439.863 141.465 436.648 142.861 433.29 143.81L431.29 153.28L415.29 153.56L412.99 144.17C409.6 143.338 406.337 142.053 403.29 140.35L395.21 145.65L383.7 134.54L388.7 126.28C386.898 123.292 385.502 120.077 384.55 116.72L375.09 114.72L374.81 98.72L384.19 96.41C385.028 93.0218 386.313 89.7599 388.01 86.71L382.71 78.63L393.82 67.13L402.08 72.13L402.13 72.15ZM410.65 93.45C408.296 95.8911 406.718 98.9754 406.117 102.313C405.515 105.651 405.917 109.092 407.271 112.201C408.624 115.31 410.87 117.949 413.723 119.782C416.575 121.616 419.908 122.562 423.299 122.502C426.69 122.442 429.986 121.378 432.773 119.445C435.559 117.511 437.709 114.795 438.952 111.639C440.195 108.484 440.474 105.031 439.755 101.717C439.035 98.4026 437.349 95.3762 434.91 93.02C431.639 89.8649 427.25 88.1379 422.706 88.2185C418.162 88.2991 413.837 90.1809 410.68 93.45H410.65Z" fill="#E0E0E0"/>
<path d="M684.69 26.8901H532.99C527.418 26.8901 522.9 31.4076 522.9 36.9801V253.12C522.9 258.693 527.418 263.21 532.99 263.21H684.69C690.263 263.21 694.78 258.693 694.78 253.12V36.9801C694.78 31.4076 690.263 26.8901 684.69 26.8901Z" fill="white"/>
<path d="M629.73 157.23H587.95V192.1H629.73V157.23Z" fill="#E0E0E0"/>
<path d="M682.59 157.68H640.81V192.55H682.59V157.68Z" fill="#E0E0E0"/>
<path d="M576.87 157.68H535.09V192.55H576.87V157.68Z" fill="#E0E0E0"/>
<path d="M694.78 77.0801H522.9V140.81H694.78V77.0801Z" fill="#E0E0E0"/>
<path d="M532.17 26.8901H684.37C687.129 26.8901 689.774 27.9858 691.724 29.9362C693.675 31.8866 694.77 34.5319 694.77 37.2901V50.4901H522.9V36.1601C522.903 33.7024 523.881 31.3461 525.618 29.6082C527.356 27.8703 529.713 26.8928 532.17 26.8901Z" fill="#E0E0E0"/>
<path d="M546.78 63.7798C546.782 65.262 546.344 66.7115 545.522 67.9448C544.7 69.178 543.53 70.1396 542.161 70.7077C540.792 71.2759 539.285 71.4251 537.832 71.1364C536.378 70.8477 535.042 70.1341 533.994 69.086C532.946 68.0379 532.232 66.7024 531.944 65.2486C531.655 63.7947 531.804 62.2879 532.372 60.9189C532.941 59.5499 533.902 58.3802 535.135 57.5579C536.369 56.7357 537.818 56.2978 539.3 56.2998C541.284 56.2998 543.187 57.0879 544.589 58.4907C545.992 59.8934 546.78 61.796 546.78 63.7798Z" fill="#407BFF"/>
<path d="M614.02 60.46H586.53V66.87H614.02V60.46Z" fill="#E0E0E0"/>
<path d="M648.29 60.46H620.8V66.87H648.29V60.46Z" fill="#E0E0E0"/>
<path d="M682.55 60.46H655.06V66.87H682.55V60.46Z" fill="#E0E0E0"/>
<path d="M576.87 204.33H535.09V209.91H576.87V204.33Z" fill="#E0E0E0"/>
<path d="M576.87 216.52H535.09V222.1H576.87V216.52Z" fill="#E0E0E0"/>
<path d="M557.71 228.71H535.09V234.29H557.71V228.71Z" fill="#E0E0E0"/>
<path d="M630.57 204.33H588.79V209.91H630.57V204.33Z" fill="#E0E0E0"/>
<path d="M630.57 216.52H588.79V222.1H630.57V216.52Z" fill="#E0E0E0"/>
<path d="M611.41 228.71H588.79V234.29H611.41V228.71Z" fill="#E0E0E0"/>
<path d="M684.28 204.33H642.5V209.91H684.28V204.33Z" fill="#E0E0E0"/>
<path d="M684.28 216.52H642.5V222.1H684.28V216.52Z" fill="#E0E0E0"/>
<path d="M665.12 228.71H642.5V234.29H665.12V228.71Z" fill="#E0E0E0"/>
<path d="M684.68 263.2H685.2C685.714 263.172 686.225 263.109 686.73 263.01C688.703 262.57 690.504 261.562 691.91 260.11C692.935 259.036 693.711 257.749 694.18 256.34C694.669 254.615 694.845 252.817 694.7 251.03C694.7 247.14 694.7 242.65 694.7 237.6C694.7 217.37 694.7 188.12 694.62 151.98C694.62 133.9 694.62 114.1 694.62 92.85C694.62 82.2166 694.62 71.2366 694.62 59.91C694.62 54.25 694.62 48.5066 694.62 42.68V38.26C694.712 36.8136 694.552 35.3622 694.15 33.97C693.699 32.5881 692.951 31.3219 691.957 30.261C690.964 29.2001 689.749 28.3702 688.4 27.83C687.026 27.3062 685.559 27.068 684.09 27.13H533.09C531.407 27.1271 529.751 27.557 528.282 28.3783C526.813 29.1996 525.579 30.3847 524.7 31.82C523.823 33.2465 523.33 34.8762 523.27 36.55C523.27 38.24 523.27 39.96 523.27 41.65V101.65C523.27 127.65 523.27 152.75 523.27 176.65C523.27 200.55 523.27 223.26 523.27 244.52V252.38C523.119 254.942 523.948 257.466 525.59 259.44C527.213 261.365 529.509 262.599 532.01 262.89C533.23 263 534.5 262.94 535.74 262.96H539.46H567.83L653.45 263.04H676.73L653.45 263.09L567.68 263.38H535.58C534.33 263.38 533.1 263.43 531.81 263.31C529.203 263.02 526.807 261.738 525.12 259.73C523.407 257.676 522.535 255.05 522.68 252.38V244.48C522.68 223.22 522.68 200.48 522.68 176.61C522.68 152.74 522.68 127.61 522.68 101.61V61.97C522.68 55.25 522.68 48.4833 522.68 41.67C522.68 39.97 522.68 38.28 522.68 36.55C522.737 34.7798 523.258 33.0556 524.19 31.55C525.115 30.0384 526.412 28.79 527.959 27.9249C529.505 27.0597 531.248 26.6069 533.02 26.61H684.02C685.551 26.5424 687.079 26.7909 688.51 27.34C689.921 27.9105 691.19 28.7838 692.227 29.8983C693.263 31.0128 694.043 32.3413 694.51 33.79C694.935 35.2259 695.1 36.7259 695 38.22V42.6C695 48.42 695 54.1633 695 59.83C695 71.1633 695 82.1433 695 92.77C695 114.02 695 133.77 695 151.9C695 188.04 694.94 217.29 694.92 237.52C694.92 242.57 694.92 247.06 694.92 250.95C694.92 251.95 694.92 252.86 694.92 253.76C694.868 254.625 694.699 255.479 694.42 256.3C693.852 257.978 692.854 259.477 691.526 260.649C690.197 261.821 688.585 262.625 686.85 262.98C686.342 263.074 685.827 263.131 685.31 263.15L684.68 263.2Z" fill="#263238"/>
<path d="M539.68 39.9201C539.68 40.4857 539.512 41.0387 539.198 41.509C538.884 41.9793 538.437 42.3459 537.914 42.5624C537.392 42.7788 536.817 42.8355 536.262 42.7251C535.707 42.6148 535.198 42.3424 534.798 41.9424C534.398 41.5424 534.125 41.0328 534.015 40.478C533.905 39.9232 533.961 39.3482 534.178 38.8256C534.394 38.303 534.761 37.8563 535.231 37.5421C535.701 37.2278 536.254 37.0601 536.82 37.0601C537.578 37.0601 538.306 37.3614 538.842 37.8977C539.379 38.4341 539.68 39.1615 539.68 39.9201Z" fill="white"/>
<path d="M548.74 39.9201C548.742 40.4881 548.575 41.044 548.261 41.5173C547.947 41.9905 547.499 42.36 546.975 42.5787C546.451 42.7975 545.874 42.8557 545.316 42.7461C544.759 42.6365 544.247 42.364 543.844 41.963C543.442 41.562 543.167 41.0506 543.056 40.4937C542.944 39.9367 543.001 39.3591 543.218 38.8341C543.434 38.3091 543.802 37.8602 544.274 37.5444C544.747 37.2286 545.302 37.0601 545.87 37.0601C546.629 37.0601 547.358 37.3611 547.896 37.8971C548.434 38.4332 548.737 39.1606 548.74 39.9201Z" fill="white"/>
<path d="M557.79 39.9201C557.792 40.4881 557.626 41.044 557.311 41.5173C556.997 41.9906 556.55 42.36 556.026 42.5787C555.501 42.7975 554.924 42.8557 554.366 42.7461C553.809 42.6365 553.297 42.364 552.894 41.963C552.492 41.562 552.218 41.0507 552.106 40.4937C551.995 39.9367 552.051 39.3591 552.268 38.8341C552.485 38.3091 552.853 37.8603 553.325 37.5445C553.797 37.2287 554.352 37.0601 554.92 37.0601C555.297 37.0588 555.67 37.1318 556.018 37.2749C556.366 37.418 556.682 37.6285 556.949 37.8942C557.216 38.1599 557.427 38.4756 557.572 38.8233C557.716 39.1709 557.79 39.5437 557.79 39.9201Z" fill="white"/>
<path d="M596.93 110.25V96.2497C596.938 95.6377 597.105 95.0383 597.416 94.5109C597.726 93.9835 598.169 93.5465 598.701 93.2433C599.233 92.94 599.834 92.7811 600.446 92.7822C601.058 92.7834 601.66 92.9445 602.19 93.2497L614.65 100.25L627.11 107.25C627.64 107.539 628.083 107.965 628.391 108.484C628.699 109.003 628.862 109.596 628.862 110.2C628.862 110.803 628.699 111.396 628.391 111.915C628.083 112.434 627.64 112.861 627.11 113.15L614.65 120.15L602.19 127.15C601.663 127.453 601.067 127.614 600.459 127.618C599.851 127.621 599.252 127.467 598.722 127.169C598.192 126.872 597.748 126.442 597.434 125.921C597.12 125.401 596.946 124.808 596.93 124.2V110.25Z" fill="white"/>
<path d="M679.19 433.83L613.19 433.55C605.25 433.55 598.85 427.42 598.88 419.94L599.58 263.94C599.58 256.45 606.08 250.41 614.02 250.45L680.02 250.73C687.95 250.73 694.36 256.86 694.33 264.34L693.68 420.38C693.6 427.82 687.14 433.87 679.19 433.83Z" fill="#263238"/>
<path d="M679.93 256.14L667.14 256.08L629.77 255.92H625.27H614.07C608.51 255.92 603.98 260.13 603.96 265.37L603.27 417.61C603.27 422.85 607.74 427.12 613.27 427.15L679.14 427.43C684.7 427.43 689.23 423.22 689.25 417.98L689.93 265.74C689.98 260.43 685.49 256.16 679.93 256.14Z" fill="white"/>
<path d="M680.5 270.3C680.499 270.406 680.476 270.511 680.434 270.608C680.392 270.705 680.332 270.793 680.255 270.866C680.179 270.94 680.089 270.998 679.99 271.036C679.891 271.074 679.786 271.093 679.68 271.09C679.576 271.09 679.474 271.07 679.378 271.03C679.282 270.99 679.195 270.932 679.122 270.859C679.048 270.785 678.99 270.698 678.95 270.602C678.911 270.506 678.89 270.404 678.89 270.3C678.89 270.196 678.911 270.094 678.95 269.998C678.99 269.902 679.048 269.815 679.122 269.741C679.195 269.668 679.282 269.61 679.378 269.57C679.474 269.53 679.576 269.51 679.68 269.51C679.786 269.507 679.891 269.526 679.99 269.564C680.089 269.603 680.179 269.66 680.255 269.734C680.332 269.807 680.392 269.895 680.434 269.992C680.476 270.089 680.499 270.194 680.5 270.3Z" fill="#263238"/>
<path d="M680.49 273.15C680.49 273.368 680.404 273.576 680.25 273.73C680.096 273.884 679.888 273.97 679.67 273.97C679.453 273.97 679.244 273.884 679.09 273.73C678.936 273.576 678.85 273.368 678.85 273.15C678.85 272.933 678.936 272.724 679.09 272.57C679.244 272.416 679.453 272.33 679.67 272.33C679.888 272.33 680.096 272.416 680.25 272.57C680.404 272.724 680.49 272.933 680.49 273.15Z" fill="#263238"/>
<path d="M680.48 276C680.486 276.163 680.443 276.324 680.356 276.463C680.27 276.602 680.144 276.712 679.995 276.778C679.846 276.845 679.68 276.866 679.519 276.837C679.358 276.809 679.209 276.734 679.091 276.62C678.974 276.507 678.893 276.361 678.858 276.201C678.824 276.041 678.839 275.875 678.9 275.723C678.961 275.572 679.066 275.442 679.201 275.35C679.337 275.259 679.496 275.21 679.66 275.21C679.766 275.207 679.871 275.225 679.97 275.264C680.068 275.302 680.159 275.36 680.235 275.433C680.311 275.507 680.372 275.595 680.414 275.692C680.456 275.789 680.478 275.894 680.48 276Z" fill="#263238"/>
<path d="M624.53 273.94C624.562 275.012 624.273 276.07 623.701 276.977C623.128 277.884 622.298 278.6 621.316 279.032C620.334 279.465 619.246 279.595 618.19 279.405C617.134 279.216 616.159 278.715 615.389 277.968C614.619 277.221 614.09 276.261 613.868 275.212C613.647 274.162 613.744 273.07 614.147 272.076C614.55 271.082 615.24 270.23 616.13 269.631C617.019 269.031 618.067 268.71 619.14 268.71C620.548 268.691 621.905 269.231 622.916 270.211C623.926 271.192 624.506 272.532 624.53 273.94Z" fill="#407BFF"/>
<path d="M664.57 274.95H636.94C636.463 274.95 636.005 274.76 635.667 274.423C635.33 274.085 635.14 273.627 635.14 273.15C635.14 272.914 635.187 272.68 635.277 272.461C635.368 272.243 635.5 272.044 635.667 271.877C635.834 271.71 636.033 271.578 636.251 271.487C636.47 271.397 636.704 271.35 636.94 271.35H664.57C665.047 271.353 665.503 271.543 665.84 271.88C666.177 272.217 666.367 272.674 666.37 273.15C666.367 273.627 666.177 274.083 665.84 274.42C665.503 274.757 665.047 274.947 664.57 274.95Z" fill="#E0E0E0"/>
<path d="M630.39 341.61V326.15C630.408 325.476 630.6 324.819 630.948 324.242C631.296 323.664 631.788 323.188 632.376 322.858C632.964 322.528 633.627 322.357 634.301 322.361C634.975 322.365 635.636 322.544 636.22 322.88L650.01 330.61L663.81 338.34C664.396 338.66 664.886 339.132 665.227 339.707C665.568 340.281 665.747 340.937 665.747 341.605C665.747 342.273 665.568 342.929 665.227 343.503C664.886 344.078 664.396 344.55 663.81 344.87L650.01 352.6L636.22 360.38C635.636 360.716 634.975 360.895 634.301 360.899C633.627 360.903 632.964 360.731 632.376 360.402C631.788 360.072 631.296 359.595 630.948 359.018C630.6 358.441 630.408 357.784 630.39 357.11V341.61Z" fill="#407BFF"/>
<path d="M484.68 408.86C490.53 399.55 500.44 397.38 509.44 399.43C508.212 389.283 511.016 379.059 517.25 370.958C523.484 362.858 532.648 357.529 542.771 356.117C552.895 354.705 563.168 357.325 571.38 363.411C579.591 369.497 585.086 378.564 586.68 388.66C596.01 382.04 610.01 386.52 616.85 395.66C623.69 404.8 624.11 424.4 616.1 433.61L486.89 432.87C486.89 432.87 477.03 420.93 484.68 408.86Z" fill="#407BFF"/>
<g opacity="0.3">
<path d="M484.68 408.86C490.53 399.55 500.44 397.38 509.44 399.43C508.212 389.283 511.016 379.059 517.25 370.958C523.484 362.858 532.648 357.529 542.771 356.117C552.895 354.705 563.168 357.325 571.38 363.411C579.591 369.497 585.086 378.564 586.68 388.66C596.01 382.04 610.01 386.52 616.85 395.66C623.69 404.8 624.11 424.4 616.1 433.61L486.89 432.87C486.89 432.87 477.03 420.93 484.68 408.86Z" fill="black"/>
</g>
<path d="M473.53 408.86C479.38 399.55 489.29 397.38 498.29 399.43C496.862 389.183 499.563 378.789 505.798 370.533C512.034 362.278 521.293 356.838 531.54 355.41C541.787 353.982 552.181 356.682 560.436 362.918C568.692 369.154 574.132 378.413 575.56 388.66C584.89 382.04 598.89 386.52 605.73 395.66C612.57 404.8 612.99 424.4 604.98 433.61L475.77 432.87C475.77 432.87 465.93 420.93 473.53 408.86Z" fill="#407BFF"/>
<path d="M150.66 304.61H23.2201C21.0828 304.61 19.3501 306.343 19.3501 308.48V429.97C19.3501 432.107 21.0828 433.84 23.2201 433.84H150.66C152.797 433.84 154.53 432.107 154.53 429.97V308.48C154.53 306.343 152.797 304.61 150.66 304.61Z" fill="#E0E0E0"/>
<path d="M154.77 345.86C154.77 346 124.57 346.12 87.3399 346.12C50.1099 346.12 19.8999 346 19.8999 345.86C19.8999 345.72 50.0899 345.6 87.3399 345.6C124.59 345.6 154.77 345.71 154.77 345.86Z" fill="black"/>
<path d="M154.77 387.38C154.77 387.52 124.57 387.64 87.3399 387.64C50.1099 387.64 19.8999 387.52 19.8999 387.38C19.8999 387.24 50.0899 387.12 87.3399 387.12C124.59 387.12 154.77 387.2 154.77 387.38Z" fill="black"/>
<path d="M43.9302 329.36C45.554 329.36 46.8702 328.044 46.8702 326.42C46.8702 324.796 45.554 323.48 43.9302 323.48C42.3065 323.48 40.9902 324.796 40.9902 326.42C40.9902 328.044 42.3065 329.36 43.9302 329.36Z" fill="white"/>
<path d="M54.4703 329.36C56.094 329.36 57.4103 328.044 57.4103 326.42C57.4103 324.796 56.094 323.48 54.4703 323.48C52.8466 323.48 51.5303 324.796 51.5303 326.42C51.5303 328.044 52.8466 329.36 54.4703 329.36Z" fill="white"/>
<path d="M121.04 321.89H120.53C119.928 321.89 119.44 322.378 119.44 322.98V330.81C119.44 331.412 119.928 331.9 120.53 331.9H121.04C121.642 331.9 122.13 331.412 122.13 330.81V322.98C122.13 322.378 121.642 321.89 121.04 321.89Z" fill="black"/>
<path d="M127.82 321.89H127.31C126.708 321.89 126.22 322.378 126.22 322.98V330.81C126.22 331.412 126.708 331.9 127.31 331.9H127.82C128.422 331.9 128.91 331.412 128.91 330.81V322.98C128.91 322.378 128.422 321.89 127.82 321.89Z" fill="black"/>
<path d="M134.07 321.89H133.56C132.958 321.89 132.47 322.378 132.47 322.98V330.81C132.47 331.412 132.958 331.9 133.56 331.9H134.07C134.672 331.9 135.16 331.412 135.16 330.81V322.98C135.16 322.378 134.672 321.89 134.07 321.89Z" fill="white"/>
<path d="M114.18 321.89H113.67C113.068 321.89 112.58 322.378 112.58 322.98V330.81C112.58 331.412 113.068 331.9 113.67 331.9H114.18C114.782 331.9 115.27 331.412 115.27 330.81V322.98C115.27 322.378 114.782 321.89 114.18 321.89Z" fill="#407BFF"/>
<path d="M43.9302 369.66C45.554 369.66 46.8702 368.344 46.8702 366.72C46.8702 365.096 45.554 363.78 43.9302 363.78C42.3065 363.78 40.9902 365.096 40.9902 366.72C40.9902 368.344 42.3065 369.66 43.9302 369.66Z" fill="white"/>
<path d="M53.9 369.66C55.5237 369.66 56.84 368.344 56.84 366.72C56.84 365.096 55.5237 363.78 53.9 363.78C52.2762 363.78 50.96 365.096 50.96 366.72C50.96 368.344 52.2762 369.66 53.9 369.66Z" fill="white"/>
<path d="M121.04 362.2H120.53C119.928 362.2 119.44 362.688 119.44 363.29V371.12C119.44 371.722 119.928 372.21 120.53 372.21H121.04C121.642 372.21 122.13 371.722 122.13 371.12V363.29C122.13 362.688 121.642 362.2 121.04 362.2Z" fill="black"/>
<path d="M127.82 362.2H127.31C126.708 362.2 126.22 362.688 126.22 363.29V371.12C126.22 371.722 126.708 372.21 127.31 372.21H127.82C128.422 372.21 128.91 371.722 128.91 371.12V363.29C128.91 362.688 128.422 362.2 127.82 362.2Z" fill="black"/>
<path d="M134.07 362.2H133.56C132.958 362.2 132.47 362.688 132.47 363.29V371.12C132.47 371.722 132.958 372.21 133.56 372.21H134.07C134.672 372.21 135.16 371.722 135.16 371.12V363.29C135.16 362.688 134.672 362.2 134.07 362.2Z" fill="white"/>
<path d="M114.18 362.2H113.67C113.068 362.2 112.58 362.688 112.58 363.29V371.12C112.58 371.722 113.068 372.21 113.67 372.21H114.18C114.782 372.21 115.27 371.722 115.27 371.12V363.29C115.27 362.688 114.782 362.2 114.18 362.2Z" fill="#407BFF"/>
<path d="M43.9302 413.05C45.554 413.05 46.8702 411.734 46.8702 410.11C46.8702 408.486 45.554 407.17 43.9302 407.17C42.3065 407.17 40.9902 408.486 40.9902 410.11C40.9902 411.734 42.3065 413.05 43.9302 413.05Z" fill="white"/>
<path d="M54.7501 413.05C56.3738 413.05 57.6901 411.734 57.6901 410.11C57.6901 408.486 56.3738 407.17 54.7501 407.17C53.1263 407.17 51.8101 408.486 51.8101 410.11C51.8101 411.734 53.1263 413.05 54.7501 413.05Z" fill="white"/>
<path d="M121.04 405.59H120.53C119.928 405.59 119.44 406.078 119.44 406.68V414.51C119.44 415.112 119.928 415.6 120.53 415.6H121.04C121.642 415.6 122.13 415.112 122.13 414.51V406.68C122.13 406.078 121.642 405.59 121.04 405.59Z" fill="black"/>
<path d="M127.82 405.59H127.31C126.708 405.59 126.22 406.078 126.22 406.68V414.51C126.22 415.112 126.708 415.6 127.31 415.6H127.82C128.422 415.6 128.91 415.112 128.91 414.51V406.68C128.91 406.078 128.422 405.59 127.82 405.59Z" fill="black"/>
<path d="M134.07 405.59H133.56C132.958 405.59 132.47 406.078 132.47 406.68V414.51C132.47 415.112 132.958 415.6 133.56 415.6H134.07C134.672 415.6 135.16 415.112 135.16 414.51V406.68C135.16 406.078 134.672 405.59 134.07 405.59Z" fill="white"/>
<path d="M114.18 405.59H113.67C113.068 405.59 112.58 406.078 112.58 406.68V414.51C112.58 415.112 113.068 415.6 113.67 415.6H114.18C114.782 415.6 115.27 415.112 115.27 414.51V406.68C115.27 406.078 114.782 405.59 114.18 405.59Z" fill="#407BFF"/>
<path d="M86.74 119.92C86.6655 119.341 86.476 118.784 86.1827 118.28C85.8894 117.776 85.4983 117.336 85.0324 116.986C84.5665 116.636 84.0352 116.382 83.4697 116.24C82.9043 116.098 82.3162 116.071 81.74 116.16C81.0341 114.901 79.8701 113.962 78.49 113.54C77.1099 113.117 75.62 113.242 74.33 113.89C73.13 114.56 72.23 115.66 71.06 116.37C69.8773 116.951 68.6657 117.472 67.43 117.93C66.8145 118.166 66.2669 118.551 65.836 119.05C65.4051 119.549 65.1042 120.146 64.96 120.79C64.9467 121.524 65.1673 122.243 65.5897 122.843C66.0122 123.444 66.6147 123.894 67.31 124.13C68.7084 124.57 70.1855 124.703 71.64 124.52C71.3325 124.74 71.1174 125.066 71.0361 125.435C70.9549 125.805 71.0133 126.191 71.2 126.52C71.5735 127.162 72.1722 127.643 72.88 127.87C74.0256 128.31 75.2706 128.426 76.4776 128.203C77.6846 127.981 78.8067 127.43 79.72 126.61L82.46 124.51C83.0453 124.498 83.6223 124.37 84.1568 124.131C84.6914 123.892 85.1725 123.549 85.5717 123.121C85.9709 122.693 86.2801 122.189 86.4807 121.639C86.6814 121.089 86.7696 120.504 86.74 119.92Z" fill="black"/>
<path d="M79.9001 129.06C79.6344 129.297 79.2909 129.428 78.9351 129.428C78.5792 129.428 78.2357 129.297 77.9701 129.06C77.7199 128.799 77.545 128.476 77.464 128.123C77.383 127.771 77.3989 127.404 77.5101 127.06C77.7371 126.377 78.202 125.799 78.8201 125.43C79.443 125.058 80.1167 124.778 80.8201 124.6C81.8694 124.272 82.9534 124.067 84.0501 123.99C84.439 123.951 84.8319 123.998 85.2001 124.13C85.3813 124.2 85.5412 124.316 85.664 124.467C85.7867 124.618 85.8681 124.798 85.9001 124.99C85.9001 125.54 85.4601 125.99 85.0201 126.3C83.3779 127.51 81.631 128.571 79.8001 129.47" fill="#FF6C37"/>
<path d="M78.3003 128.78C75.7103 125.89 69.2503 126.28 67.7103 128.16C66.5708 127.614 65.2653 127.527 64.0632 127.915C62.8611 128.304 61.8542 129.14 61.2503 130.25L54.3803 131.71C53.1848 131.856 52.0459 132.303 51.0703 133.01C50.5993 133.38 50.2788 133.908 50.1685 134.497C50.0581 135.086 50.1654 135.694 50.4703 136.21C49.8876 136.406 49.3623 136.743 48.9414 137.191C48.5204 137.639 48.2167 138.184 48.0573 138.778C47.898 139.372 47.8879 139.996 48.028 140.595C48.1681 141.194 48.454 141.748 48.8603 142.21C48.6248 142.476 48.4466 142.787 48.3366 143.125C48.2266 143.463 48.1873 143.819 48.2211 144.173C48.2548 144.527 48.361 144.869 48.5329 145.18C48.7048 145.491 48.9388 145.763 49.2203 145.98C47.3014 148.241 45.7859 150.815 44.7403 153.59C44.1952 154.712 44.0641 155.99 44.3703 157.2C44.7903 158.37 46.3703 159.2 47.3703 158.46C47.0256 158.933 46.8268 159.496 46.7984 160.081C46.77 160.665 46.9131 161.246 47.2103 161.75C46.0503 161.75 45.6903 163.56 46.4803 164.41C46.929 164.78 47.4492 165.054 48.0084 165.214C48.5676 165.374 49.1538 165.417 49.7303 165.34C50.8887 165.182 52.0673 165.392 53.1003 165.94C53.0876 166.081 53.0465 166.219 52.9795 166.344C52.9125 166.47 52.821 166.58 52.7103 166.67C51.726 167.403 51.0617 168.488 50.855 169.698C50.6484 170.908 50.9152 172.151 51.6003 173.17C51.7403 173.36 51.8703 173.54 51.9803 173.71C52.9301 174.722 54.0724 175.535 55.3403 176.1C57.9503 177.49 59.5203 177.24 62.4503 177.68C61.6303 179.57 66.3603 183.79 71.8403 179.68C81.562 182.54 91.6465 183.979 101.78 183.95C103.38 183.95 105.31 183.77 106.04 182.33C106.702 182.458 107.385 182.417 108.027 182.211C108.668 182.005 109.248 181.64 109.71 181.15C110.629 180.16 111.367 179.015 111.89 177.77C113.279 177.377 114.513 176.565 115.422 175.444C116.331 174.324 116.872 172.95 116.97 171.51C117.916 170.773 118.699 169.847 119.269 168.792C119.839 167.737 120.183 166.575 120.28 165.38C120.943 165.151 121.55 164.788 122.066 164.313C122.581 163.838 122.992 163.262 123.274 162.621C123.556 161.979 123.702 161.287 123.703 160.586C123.704 159.885 123.56 159.192 123.28 158.55C122.719 155.224 121.611 152.014 120 149.05C121.85 148.66 122.56 146.18 121.81 144.45C121.06 142.72 119.4 141.6 117.81 140.58C119.18 140.96 120.39 139.24 120.08 137.85C119.843 137.176 119.476 136.555 118.999 136.023C118.522 135.491 117.945 135.059 117.3 134.75C115.517 133.659 113.606 132.792 111.61 132.17C110.98 129.74 107.9 126.96 105.61 125.87C96.4803 121.47 90.0803 120.33 78.3503 128.79" fill="black"/>
<path d="M71.2502 143.47C71.1302 141.54 70.8102 139.64 72.7102 139.35L92.1702 133.48C98.4402 132.53 102.98 140.1 103.67 146.41C104.43 153.41 105.08 162 104.49 167.28C104.179 170.292 103.023 173.155 101.154 175.539C99.2856 177.922 96.7813 179.729 93.9302 180.75L94.1802 187.19C93.3702 192.19 92.1102 197.72 90.1002 199.71C83.2202 198.42 71.9602 183.29 71.9602 183.29L71.2502 143.47Z" fill="#AE7461"/>
<path d="M93.4803 162.43C94.2388 162.157 95.0281 161.979 95.8303 161.9C96.2003 161.85 96.5503 161.76 96.6003 161.5C96.6108 161.115 96.5063 160.735 96.3003 160.41L95.0703 157.63C93.3703 153.63 92.0703 150.41 92.2703 150.34C92.4703 150.27 93.9503 153.43 95.6503 157.34C96.0703 158.34 96.4603 159.24 96.8303 160.14C97.0884 160.576 97.1807 161.091 97.0903 161.59C97.0425 161.722 96.9656 161.842 96.8652 161.941C96.7648 162.04 96.6435 162.114 96.5103 162.16C96.3053 162.221 96.0939 162.258 95.8803 162.27C95.0914 162.432 94.2839 162.486 93.4803 162.43Z" fill="black"/>
<path d="M93.9302 180.75C89.3574 180.199 84.9391 178.748 80.9302 176.48C80.9302 176.48 83.3702 183.13 93.9302 183.94V180.75Z" fill="#6F4439"/>
<path d="M87.2701 146.22C87.1501 146.62 85.6901 146.5 83.9901 146.78C82.2901 147.06 80.9301 147.59 80.6901 147.25C80.5801 147.08 80.8001 146.7 81.3401 146.25C82.0576 145.732 82.8864 145.389 83.7601 145.25C84.6294 145.102 85.5215 145.167 86.3601 145.44C87.0001 145.73 87.3301 146.03 87.2701 146.22Z" fill="black"/>
<path d="M101.27 145.98C101.03 146.32 100.01 145.98 98.7999 146.06C97.5899 146.14 96.5899 146.39 96.3399 146.06C96.2199 145.9 96.3399 145.56 96.7999 145.23C97.3834 144.819 98.0771 144.594 98.7907 144.583C99.5042 144.572 100.204 144.777 100.8 145.17C101.22 145.48 101.37 145.81 101.27 145.98Z" fill="black"/>
<path d="M108.41 151.47C108.366 149.8 107.748 148.197 106.66 146.93C105.959 146.337 105.291 145.706 104.66 145.04C103.47 143.49 103.66 141.32 103.14 139.43C102.8 138.209 102.175 137.086 101.316 136.154C100.457 135.223 99.3891 134.508 98.2 134.07C96.2 133.37 93.98 133.46 92.12 132.48C90.75 131.75 89.7 130.48 88.29 129.84C85.54 128.59 82.35 130 79.75 131.55C79.24 133.62 80.54 135.4 81.75 137.12C82.3895 137.973 83.2057 138.679 84.1428 139.188C85.08 139.697 86.1159 139.998 87.18 140.07C88.83 140.17 90.75 139.79 91.91 140.97C93.07 142.15 92.66 144.38 93.66 145.8C95.09 147.8 98.35 147.05 100.49 148.3C102.14 149.3 102.84 151.3 103.67 152.97C104.5 154.64 105.95 156.5 107.86 156.4C108.232 154.783 108.417 153.129 108.41 151.47Z" fill="black"/>
<path d="M83.9001 135.31C79.0731 135.242 74.2784 136.108 69.7801 137.86C68.3938 138.274 67.1751 139.118 66.3001 140.27C65.7108 141.395 65.4574 142.665 65.5701 143.93C65.5701 147.88 67.2101 152.71 68.7201 156.36L73.6501 159.36C77.4501 158.46 75.6501 151.9 75.5201 148.61C76.841 148.007 77.9661 147.045 78.767 145.834C79.5679 144.623 80.0125 143.211 80.0501 141.76C81.1395 141.048 82.0523 140.097 82.7194 138.979C83.3865 137.862 83.7903 136.607 83.9001 135.31Z" fill="black"/>
<path d="M73.59 157.89C73.43 155.63 70.68 155.2 68.68 156.38C67.61 157.02 66.81 158.29 66.95 160.68C67.32 167.08 73.67 165.39 73.67 165.2C73.67 165.01 73.76 160.54 73.59 157.89Z" fill="#AE7461"/>
<path d="M71.6099 162.87C71.6099 162.87 71.5099 162.96 71.3199 163.06C71.0612 163.186 70.764 163.207 70.4899 163.12C70.0621 162.881 69.7053 162.533 69.4558 162.112C69.2064 161.69 69.0732 161.21 69.0699 160.72C69.022 160.174 69.0972 159.623 69.2899 159.11C69.3383 158.906 69.4355 158.716 69.5731 158.558C69.7106 158.399 69.8845 158.277 70.0799 158.2C70.2071 158.164 70.3428 158.17 70.4658 158.219C70.5888 158.268 70.6922 158.356 70.7599 158.47C70.8499 158.65 70.8199 158.78 70.8499 158.78C70.8799 158.78 70.9799 158.67 70.9199 158.41C70.8711 158.253 70.7729 158.116 70.6399 158.02C70.4559 157.903 70.2343 157.86 70.0199 157.9C69.7663 157.961 69.5321 158.085 69.3383 158.259C69.1445 158.434 68.9973 158.654 68.9099 158.9C68.6719 159.472 68.5758 160.093 68.6299 160.71C68.6295 161.281 68.7984 161.839 69.1152 162.315C69.432 162.79 69.8826 163.161 70.4099 163.38C70.5832 163.418 70.7628 163.417 70.9357 163.377C71.1086 163.337 71.2706 163.26 71.4099 163.15C71.6099 163.03 71.6799 162.88 71.6099 162.87Z" fill="#6F4439"/>
<path d="M70.9001 165.56C70.9001 165.56 70.9001 165.56 70.9001 165.65C70.8768 165.732 70.8467 165.812 70.8101 165.89C70.6478 166.191 70.3864 166.428 70.0701 166.56C69.5713 166.776 69.0337 166.888 68.4901 166.89C68.1553 166.898 67.8205 166.874 67.4901 166.82C67.1014 166.765 66.7235 166.65 66.3701 166.48H66.4501C66.3596 167.021 66.1307 167.529 65.7855 167.956C65.4404 168.382 64.9909 168.712 64.4806 168.913C63.9703 169.114 63.4166 169.18 62.8733 169.104C62.33 169.028 61.8156 168.813 61.3801 168.48H61.4901C61.3953 168.625 61.272 168.75 61.1276 168.846C60.9832 168.942 60.8207 169.008 60.6501 169.04C60.3159 169.108 59.9692 169.08 59.6501 168.96C59.3036 168.83 59.0087 168.592 58.8101 168.28C58.6187 167.961 58.5088 167.601 58.4901 167.23C58.4581 166.457 58.7028 165.698 59.1801 165.09C59.6488 164.456 60.1928 163.882 60.8001 163.38V163.53C60.5388 163.358 60.3153 163.134 60.1434 162.873C59.9714 162.611 59.8546 162.318 59.8001 162.01C59.6797 161.379 59.7421 160.726 59.9801 160.13C60.2446 159.528 60.6252 158.984 61.1001 158.53C61.5752 158.071 62.0796 157.643 62.6101 157.25V157.39C62.3827 157.142 62.2093 156.849 62.1009 156.531C61.9925 156.212 61.9513 155.875 61.9801 155.54C62.0251 154.849 62.2759 154.187 62.7001 153.64C63.5628 152.687 64.6293 151.942 65.8201 151.46L65.7701 151.57C65.6163 150.909 65.6227 150.221 65.789 149.564C65.9552 148.906 66.2764 148.298 66.7257 147.79C67.175 147.282 67.7394 146.889 68.3716 146.644C69.0039 146.398 69.6857 146.308 70.3601 146.38L70.2601 146.49C70.1689 145.959 70.1913 145.415 70.3257 144.893C70.4602 144.372 70.7036 143.885 71.04 143.465C71.3764 143.044 71.7981 142.7 72.2773 142.454C72.7565 142.208 73.2823 142.067 73.8201 142.04L73.7401 142.13C73.755 141.585 73.8932 141.051 74.1444 140.568C74.3955 140.085 74.7531 139.665 75.1901 139.34C75.5627 139.04 75.9924 138.818 76.4531 138.689C76.9138 138.56 77.3959 138.526 77.8701 138.59L77.7901 138.66C77.8226 138.078 78.0014 137.514 78.3101 137.02C78.5771 136.575 78.9149 136.176 79.3101 135.84C79.9148 135.291 80.6857 134.96 81.5001 134.9H81.7401H81.9601C82.0965 134.888 82.2337 134.888 82.3701 134.9C82.5762 134.946 82.7798 135.003 82.9801 135.07L83.3401 135.23H83.4501C83.4501 135.23 83.4501 135.23 83.3301 135.23L82.9701 135.1C82.8101 135.03 82.6001 135.01 82.3601 134.94C82.227 134.929 82.0932 134.929 81.9601 134.94H81.7401H81.5001C80.7021 135.029 79.9563 135.38 79.3801 135.94C79.0001 136.263 78.6817 136.653 78.4401 137.09C78.1468 137.57 77.9784 138.117 77.9501 138.68V138.75H77.8801C77.4246 138.691 76.9619 138.725 76.5201 138.851C76.0784 138.976 75.6667 139.19 75.3101 139.48C74.8951 139.793 74.5558 140.196 74.317 140.658C74.0782 141.12 73.946 141.63 73.9301 142.15V142.23H73.8501C73.3388 142.26 72.8398 142.398 72.3854 142.635C71.931 142.871 71.5314 143.2 71.2126 143.601C70.8938 144.002 70.6629 144.465 70.535 144.961C70.4071 145.457 70.385 145.975 70.4701 146.48V146.6H70.3401C69.6902 146.526 69.0323 146.611 68.4221 146.846C67.812 147.081 67.2677 147.461 66.8357 147.952C66.4036 148.443 66.0966 149.031 65.9406 149.666C65.7847 150.301 65.7845 150.964 65.9401 151.6V151.67H65.8701C64.7264 152.147 63.7021 152.871 62.8701 153.79C62.4669 154.307 62.2299 154.935 62.1901 155.59C62.1583 155.899 62.1927 156.211 62.291 156.506C62.3893 156.801 62.5492 157.071 62.7601 157.3L62.8401 157.37L62.7501 157.44C61.666 158.135 60.7806 159.1 60.1801 160.24C59.9518 160.8 59.8893 161.415 60.0001 162.01C60.0486 162.295 60.1564 162.567 60.3166 162.808C60.4768 163.049 60.6858 163.254 60.9301 163.41L61.0401 163.48L60.9401 163.56C60.3226 164.026 59.765 164.567 59.2801 165.17C58.8327 165.738 58.5991 166.446 58.6201 167.17C58.6134 167.503 58.7045 167.832 58.8822 168.114C59.0599 168.397 59.3164 168.621 59.6201 168.76C59.9086 168.891 60.2326 168.922 60.5407 168.847C60.8487 168.773 61.1231 168.598 61.3201 168.35V168.28L61.3801 168.33C61.7988 168.648 62.2927 168.854 62.814 168.926C63.3353 168.998 63.8664 168.935 64.356 168.742C64.8456 168.549 65.2772 168.233 65.6089 167.824C65.9407 167.416 66.1616 166.928 66.2501 166.41V166.34H66.3101C66.6543 166.507 67.0217 166.622 67.4001 166.68C67.7306 166.734 68.0651 166.761 68.4001 166.76C68.9349 166.765 69.4654 166.663 69.9601 166.46C70.2679 166.334 70.5273 166.113 70.7001 165.83C70.7737 165.745 70.8406 165.655 70.9001 165.56Z" fill="#455A64"/>
<path d="M46.5299 158.73C46.4375 158.608 46.3572 158.477 46.2899 158.34C46.0951 157.943 45.9796 157.511 45.9499 157.07C45.8979 156.363 46.0846 155.658 46.4799 155.07C46.7406 154.676 47.0807 154.341 47.4785 154.086C47.8763 153.831 48.323 153.662 48.7899 153.59V153.67C48.5719 152.581 48.7795 151.45 49.3699 150.51C49.683 149.979 50.11 149.525 50.6199 149.18C51.1752 148.848 51.7613 148.57 52.3699 148.35C52.6679 148.226 52.9473 148.061 53.1999 147.86C53.4533 147.644 53.655 147.374 53.7899 147.07C54.0699 146.46 54.1599 145.73 54.5199 145.07C54.9047 144.397 55.4811 143.854 56.1758 143.51C56.8704 143.167 57.6517 143.038 58.4199 143.14L58.3099 143.25C58.1991 142.473 58.2681 141.681 58.5115 140.935C58.755 140.188 59.1664 139.508 59.7141 138.946C60.2618 138.384 60.9312 137.955 61.6707 137.692C62.4103 137.429 63.2003 137.339 63.9799 137.43L63.8699 137.54C63.7772 136.686 63.9307 135.823 64.3125 135.054C64.6942 134.284 65.2882 133.64 66.0243 133.198C66.7604 132.755 67.6078 132.532 68.4665 132.555C69.3251 132.579 70.1591 132.848 70.8699 133.33H70.6799C71.3144 132.718 72.0758 132.254 72.9099 131.97C73.6488 131.689 74.4227 131.511 75.2099 131.44C76.4781 131.297 77.7615 131.382 78.9999 131.69C79.7944 131.884 80.5536 132.201 81.2499 132.63C81.431 132.742 81.6047 132.866 81.7699 133L81.9399 133.15C81.9399 133.15 81.7 132.96 81.2299 132.67C80.5294 132.261 79.7707 131.961 78.9799 131.78C77.7483 131.492 76.476 131.421 75.2199 131.57C74.4473 131.651 73.688 131.829 72.9599 132.1C72.1494 132.392 71.4098 132.852 70.7899 133.45H70.7299C70.0505 132.99 69.2543 132.734 68.4343 132.71C67.6143 132.686 66.8046 132.896 66.0997 133.316C65.3948 133.735 64.8239 134.347 64.4539 135.079C64.0838 135.811 63.9298 136.633 64.0099 137.45V137.57H63.8899C63.1396 137.483 62.3793 137.569 61.6675 137.822C60.9557 138.075 60.3114 138.488 59.7841 139.028C59.2568 139.569 58.8605 140.224 58.6257 140.942C58.391 141.66 58.324 142.422 58.4299 143.17V143.38H58.3099C57.5974 143.292 56.8749 143.414 56.2303 143.73C55.5858 144.046 55.0471 144.543 54.6799 145.16C54.3399 145.78 54.2499 146.5 53.9499 147.16C53.8079 147.488 53.5923 147.779 53.3199 148.01C53.0469 148.221 52.7478 148.396 52.4299 148.53C51.8336 148.744 51.2579 149.012 50.7099 149.33C50.2156 149.663 49.7994 150.1 49.4899 150.61C48.9359 151.505 48.7295 152.573 48.9099 153.61V153.68H48.8399C48.3882 153.744 47.9547 153.901 47.5673 154.143C47.1798 154.384 46.847 154.703 46.5899 155.08C46.2044 155.655 46.015 156.339 46.0499 157.03C46.0693 157.462 46.1711 157.886 46.3499 158.28C46.4499 158.59 46.5399 158.72 46.5299 158.73Z" fill="#455A64"/>
<path d="M107.68 160.45C107.643 160.368 107.623 160.279 107.623 160.19C107.623 160.1 107.643 160.011 107.68 159.93C107.754 159.723 107.882 159.54 108.05 159.4C108.283 159.214 108.552 159.078 108.84 159C109.193 158.91 109.529 158.768 109.84 158.58C110.18 158.33 110.432 157.98 110.56 157.58C110.707 157.104 110.761 156.605 110.72 156.11C110.72 155.58 110.62 155.03 110.62 154.43C110.743 153.142 111.015 151.874 111.43 150.65C111.597 149.959 111.625 149.241 111.51 148.54C111.461 148.173 111.331 147.821 111.131 147.51C110.931 147.199 110.664 146.936 110.35 146.74C109.638 146.394 108.886 146.139 108.11 145.98C107.703 145.869 107.317 145.69 106.97 145.45C106.617 145.193 106.338 144.848 106.16 144.45C105.844 143.636 105.616 142.792 105.48 141.93C105.4 141.505 105.251 141.097 105.04 140.72C104.824 140.349 104.495 140.058 104.1 139.89C103.523 139.733 102.928 139.652 102.33 139.65C102.02 139.628 101.716 139.553 101.43 139.43C101.15 139.288 100.907 139.083 100.72 138.83C100.424 138.316 100.199 137.764 100.05 137.19C99.8864 136.659 99.614 136.169 99.2503 135.75C98.9028 135.347 98.4753 135.02 97.995 134.792C97.5147 134.563 96.9921 134.436 96.4603 134.42C95.4628 134.397 94.4939 134.754 93.7503 135.42L93.6603 135.5V135.39C93.2952 134.606 92.7676 133.909 92.1124 133.345C91.4572 132.782 90.6895 132.364 89.8603 132.12C89.1663 131.917 88.4392 131.852 87.7203 131.93C87.1092 131.987 86.5132 132.153 85.9603 132.42C85.1875 132.806 84.5394 133.402 84.0903 134.14C83.9697 134.33 83.8659 134.531 83.7803 134.74L83.7003 134.9V134.95C83.6963 134.93 83.6963 134.909 83.7003 134.89L83.7603 134.73C83.8406 134.514 83.9411 134.306 84.0603 134.11C84.495 133.345 85.1455 132.726 85.9303 132.33C86.4927 132.055 87.0982 131.879 87.7203 131.81C88.4512 131.73 89.1906 131.788 89.9003 131.98C90.7547 132.226 91.5464 132.653 92.2225 133.231C92.8986 133.809 93.4434 134.524 93.8203 135.33H93.6903C94.4748 134.653 95.4849 134.296 96.5203 134.33C97.3692 134.362 98.187 134.658 98.8605 135.176C99.5341 135.694 100.03 136.408 100.28 137.22C100.422 137.777 100.641 138.312 100.93 138.81C101.103 139.036 101.325 139.221 101.58 139.349C101.835 139.477 102.115 139.546 102.4 139.55C103.015 139.551 103.628 139.635 104.22 139.8C104.641 139.99 104.991 140.309 105.22 140.71C105.435 141.108 105.59 141.536 105.68 141.98C105.812 142.827 106.034 143.658 106.34 144.46C106.506 144.832 106.764 145.155 107.09 145.4C107.424 145.627 107.792 145.799 108.18 145.91C108.971 146.07 109.737 146.332 110.46 146.69C110.804 146.898 111.092 147.186 111.3 147.53C111.492 147.864 111.624 148.23 111.69 148.61C111.802 149.332 111.771 150.069 111.6 150.78C111.183 151.995 110.901 153.252 110.76 154.53C110.76 155.11 110.84 155.67 110.85 156.21C110.889 156.717 110.828 157.226 110.67 157.71C110.542 158.143 110.271 158.52 109.9 158.78C109.589 158.965 109.252 159.104 108.9 159.19C108.623 159.264 108.362 159.389 108.13 159.56C107.964 159.692 107.833 159.864 107.75 160.06C107.695 160.182 107.671 160.316 107.68 160.45Z" fill="#455A64"/>
<path d="M120.13 150.54C120.13 150.54 120.13 150.54 120.06 150.42L119.89 150.07L119.23 148.68C118.94 148.08 118.61 147.33 118.15 146.51C117.663 145.557 116.918 144.76 116 144.21C115.49 143.93 114.89 143.74 114.29 143.48C113.98 143.341 113.685 143.17 113.41 142.97C113.132 142.743 112.91 142.455 112.76 142.13C112.46 141.47 112.45 140.72 112.21 140.03C112.095 139.684 111.879 139.381 111.59 139.16C111.287 138.943 110.948 138.781 110.59 138.68C110.201 138.571 109.822 138.428 109.46 138.25C109.082 138.044 108.778 137.726 108.59 137.34C108.293 136.542 108.107 135.708 108.04 134.86C107.979 134.446 107.836 134.048 107.62 133.69C107.384 133.347 107.027 133.107 106.62 133.02C105.78 132.84 104.88 133.14 103.94 133.02C103.463 132.946 103.021 132.722 102.68 132.38C102.37 132.047 102.101 131.677 101.88 131.28C101.667 130.897 101.433 130.527 101.18 130.17C100.936 129.83 100.614 129.556 100.24 129.37C99.4551 129.104 98.6048 129.104 97.8199 129.37C97.0344 129.613 96.2056 129.685 95.3899 129.58C94.6316 129.377 93.9166 129.038 93.2799 128.58C92.6865 128.173 92.0572 127.822 91.3999 127.53C90.1715 127.123 88.8515 127.081 87.5999 127.41C86.5664 127.676 85.6061 128.172 84.7899 128.86C84.1798 129.388 83.6567 130.009 83.2399 130.7C82.9766 131.136 82.7524 131.594 82.5699 132.07C82.5099 132.23 82.4599 132.35 82.4199 132.44C82.4225 132.483 82.4225 132.526 82.4199 132.57C82.4199 132.57 82.4199 132.52 82.4199 132.44C82.4199 132.36 82.4899 132.22 82.5499 132.06C82.9701 130.791 83.7229 129.658 84.7299 128.78C85.5498 128.069 86.5212 127.556 87.5699 127.28C88.8481 126.929 90.2014 126.964 91.4599 127.38C92.1287 127.654 92.7714 127.989 93.3799 128.38C94.0045 128.814 94.7023 129.133 95.4399 129.32C96.2299 129.418 97.032 129.343 97.7899 129.1C98.2002 128.994 98.6182 128.92 99.0399 128.88C99.4807 128.84 99.9243 128.913 100.33 129.09C100.733 129.284 101.078 129.58 101.33 129.95C101.591 130.309 101.831 130.683 102.05 131.07C102.262 131.453 102.52 131.809 102.82 132.13C103.122 132.441 103.513 132.651 103.94 132.73C104.81 132.87 105.72 132.58 106.63 132.73C106.858 132.774 107.076 132.863 107.27 132.992C107.464 133.121 107.63 133.286 107.76 133.48C107.997 133.857 108.154 134.279 108.22 134.72C108.288 135.552 108.463 136.372 108.74 137.16C108.914 137.513 109.193 137.803 109.54 137.99C109.893 138.162 110.261 138.303 110.64 138.41C111.027 138.515 111.392 138.688 111.72 138.92C112.044 139.173 112.279 139.523 112.39 139.92C112.64 140.65 112.64 141.39 112.93 142.02C113.234 142.609 113.748 143.062 114.37 143.29C114.96 143.56 115.56 143.75 116.09 144.04C117.022 144.605 117.775 145.423 118.26 146.4C118.72 147.24 119.04 147.99 119.31 148.6L119.94 150C120.01 150.15 120.06 150.27 120.1 150.37L120.13 150.54Z" fill="#455A64"/>
<path d="M113.32 143.85H113.44C113.559 143.845 113.676 143.873 113.78 143.93C113.971 144.051 114.128 144.218 114.238 144.415C114.348 144.613 114.407 144.834 114.41 145.06C114.417 145.398 114.374 145.735 114.28 146.06C114.171 146.417 114.114 146.787 114.11 147.16C114.153 147.586 114.309 147.993 114.56 148.34C114.81 148.73 115.13 149.11 115.38 149.57C115.528 149.808 115.619 150.077 115.647 150.356C115.674 150.636 115.638 150.917 115.54 151.18C115.34 151.72 114.94 152.18 114.75 152.73C114.582 153.317 114.642 153.946 114.92 154.49C115.17 155.08 115.53 155.64 115.77 156.29C115.9 156.608 115.971 156.947 115.98 157.29C115.977 157.656 115.895 158.018 115.74 158.35C115.388 158.995 114.98 159.607 114.52 160.18C114.053 160.738 113.813 161.453 113.85 162.18C114.017 162.929 114.276 163.654 114.62 164.34C114.771 164.716 114.852 165.115 114.86 165.52C114.847 165.921 114.745 166.314 114.56 166.67C114.17 167.324 113.707 167.931 113.18 168.48C112.684 168.998 112.303 169.615 112.06 170.29C111.881 170.97 111.661 171.637 111.4 172.29C111.244 172.603 111.022 172.88 110.75 173.1C110.473 173.294 110.165 173.439 109.84 173.53C109.54 173.64 109.23 173.72 108.96 173.85C108.691 173.981 108.442 174.15 108.22 174.35C107.828 174.76 107.491 175.221 107.22 175.72C106.93 176.2 106.65 176.67 106.35 177.09C105.801 177.861 105.02 178.436 104.12 178.73C103.447 178.95 102.733 179.018 102.03 178.93C101.587 178.872 101.156 178.747 100.75 178.56C100.613 178.491 100.479 178.414 100.35 178.33C100.879 178.599 101.451 178.775 102.04 178.85C102.715 178.92 103.397 178.845 104.04 178.63C104.912 178.33 105.668 177.763 106.2 177.01C106.49 176.59 106.76 176.13 107.05 175.64C107.34 175.126 107.7 174.655 108.12 174.24C108.348 174.018 108.612 173.835 108.9 173.7C109.193 173.571 109.493 173.461 109.8 173.37C110.104 173.281 110.391 173.142 110.65 172.96C110.903 172.757 111.108 172.501 111.25 172.21C111.508 171.558 111.722 170.89 111.89 170.21C112.144 169.513 112.535 168.874 113.04 168.33C113.557 167.794 114.01 167.2 114.39 166.56C114.568 166.231 114.664 165.864 114.67 165.49C114.667 165.113 114.592 164.74 114.45 164.39C114.095 163.689 113.83 162.947 113.66 162.18C113.617 161.786 113.672 161.388 113.82 161.02C113.963 160.666 114.147 160.33 114.37 160.02C114.824 159.456 115.229 158.854 115.58 158.22C115.723 157.906 115.802 157.565 115.81 157.22C115.807 156.877 115.739 156.538 115.61 156.22C115.38 155.59 115.03 155.02 114.78 154.42C114.477 153.841 114.416 153.164 114.61 152.54C114.82 151.95 115.22 151.54 115.41 150.98C115.504 150.738 115.541 150.477 115.516 150.218C115.492 149.96 115.408 149.71 115.27 149.49C115.03 149.05 114.72 148.67 114.47 148.27C114.213 147.903 114.055 147.476 114.01 147.03C114.018 146.643 114.082 146.259 114.2 145.89C114.29 145.588 114.34 145.275 114.35 144.96C114.345 144.744 114.291 144.532 114.19 144.342C114.089 144.151 113.946 143.986 113.77 143.86C113.624 143.815 113.468 143.812 113.32 143.85Z" fill="#455A64"/>
<path d="M88.89 164.58C88.9767 164.374 89.1392 164.209 89.344 164.12C89.5488 164.031 89.7801 164.023 89.99 164.1L93.99 165.57L94.4401 165.74C94.2408 166.554 93.9419 167.34 93.5501 168.08C93.368 168.398 93.119 168.673 92.8203 168.885C92.5216 169.098 92.1803 169.243 91.82 169.31C91.2263 169.354 90.6341 169.207 90.13 168.89C89.7101 168.7 89.3347 168.423 89.0281 168.079C88.7215 167.734 88.4905 167.329 88.35 166.89C88.3393 166.088 88.5247 165.295 88.89 164.58Z" fill="#6F4439"/>
<path d="M67.12 164.52C66.7567 164.642 66.4181 164.829 66.12 165.07C65.3124 165.711 64.7594 166.618 64.56 167.63C64.4012 168.321 64.4012 169.039 64.56 169.73C64.801 170.552 65.2355 171.304 65.8271 171.923C66.4187 172.543 67.15 173.011 67.96 173.29C68.8816 173.6 69.8761 173.621 70.81 173.35C71.7467 173.097 72.5926 172.584 73.25 171.87C73.8626 171.2 74.2658 170.366 74.41 169.47C74.5388 168.721 74.493 167.952 74.2762 167.224C74.0593 166.495 73.6774 165.826 73.16 165.27C72.7423 164.86 72.2455 164.541 71.7 164.33C71.2981 164.16 70.8737 164.048 70.44 164C70.165 163.956 69.8849 163.956 69.61 164C69.5178 164.018 69.4274 164.045 69.34 164.08C69.7013 164.026 70.0686 164.026 70.43 164.08C70.8506 164.146 71.2607 164.267 71.65 164.44C72.1637 164.666 72.6315 164.985 73.03 165.38C73.5186 165.922 73.877 166.569 74.078 167.271C74.279 167.972 74.3173 168.711 74.19 169.43C74.043 170.276 73.6539 171.061 73.07 171.69C72.4427 172.368 71.6397 172.86 70.75 173.11C69.8619 173.364 68.9181 173.346 68.04 173.06C67.2217 172.782 66.486 172.305 65.9 171.67C65.3696 171.101 64.9792 170.416 64.76 169.67C64.5821 169.018 64.5548 168.334 64.68 167.67C64.8574 166.69 65.37 165.803 66.13 165.16C66.4447 164.924 66.7755 164.71 67.12 164.52Z" fill="#E0E0E0"/>
<path d="M88.3299 156.27C88.352 156.631 88.2312 156.986 87.9936 157.259C87.7561 157.533 87.4207 157.701 87.0599 157.73C86.8835 157.752 86.7045 157.738 86.5333 157.69C86.3622 157.642 86.2025 157.56 86.0636 157.449C85.9246 157.338 85.8094 157.201 85.7246 157.044C85.6398 156.888 85.5872 156.716 85.5699 156.54C85.5531 156.178 85.677 155.824 85.9157 155.552C86.1543 155.279 86.4891 155.11 86.8499 155.08C87.0255 155.059 87.2035 155.073 87.3734 155.122C87.5434 155.171 87.7019 155.253 87.8397 155.364C87.9775 155.475 88.0919 155.612 88.176 155.767C88.2602 155.923 88.3125 156.094 88.3299 156.27Z" fill="black"/>
<path d="M101.68 155.93C101.699 156.291 101.578 156.645 101.341 156.917C101.104 157.19 100.77 157.359 100.41 157.39C100.234 157.411 100.055 157.396 99.8847 157.348C99.7141 157.299 99.5549 157.217 99.4163 157.106C99.2777 156.996 99.1625 156.858 99.0773 156.703C98.9921 156.547 98.9386 156.376 98.92 156.2C98.9006 155.838 99.0236 155.482 99.2628 155.209C99.5019 154.937 99.8383 154.768 100.2 154.74C100.376 154.718 100.554 154.731 100.725 154.779C100.895 154.828 101.054 154.91 101.193 155.021C101.331 155.132 101.445 155.27 101.529 155.426C101.612 155.582 101.664 155.753 101.68 155.93Z" fill="black"/>
<path d="M101.12 150.82C100.99 151.03 99.9202 150.31 98.5602 150.46C97.2002 150.61 96.3002 151.46 96.1302 151.33C95.9602 151.2 96.1302 150.89 96.5502 150.48C97.053 149.942 97.7365 149.607 98.4702 149.54C99.1997 149.467 99.9317 149.651 100.54 150.06C101 150.38 101.19 150.72 101.12 150.82Z" fill="black"/>
<path d="M88.0903 151.94C87.9003 152.15 86.7403 151.25 85.0903 151.26C83.4403 151.27 82.2503 152.16 82.0903 151.95C81.9303 151.74 82.1903 151.47 82.7103 151.06C83.3987 150.531 84.2424 150.245 85.1103 150.245C85.9783 150.245 86.822 150.531 87.5103 151.06C88.0103 151.46 88.1803 151.84 88.0903 151.94Z" fill="black"/>
<path d="M92.7399 168.81C92.627 168.959 92.4746 169.073 92.2999 169.14C91.8266 169.329 91.3074 169.37 90.8099 169.26C90.0618 169.124 89.368 168.777 88.8099 168.26C88.4788 167.935 88.2465 167.522 88.1399 167.07C88.0302 166.596 88.0302 166.104 88.1399 165.63C88.2567 165.174 88.4279 164.735 88.6499 164.32C88.7036 164.193 88.7828 164.079 88.8826 163.985C88.9824 163.89 89.1006 163.817 89.2299 163.77C89.4766 163.729 89.7298 163.771 89.9499 163.89L91.9499 164.69C92.5791 164.899 93.1802 165.185 93.7399 165.54C93.0887 165.42 92.4519 165.233 91.8399 164.98L89.8399 164.26C89.4299 164.09 89.2399 164.12 89.0499 164.51C88.858 164.901 88.704 165.31 88.5899 165.73C88.4659 166.116 88.4468 166.527 88.5347 166.923C88.6226 167.318 88.8142 167.683 89.0899 167.98C89.5689 168.464 90.1702 168.81 90.8299 168.98C91.2752 169.101 91.7446 169.101 92.1899 168.98C92.5499 168.89 92.6799 168.78 92.7399 168.81Z" fill="black"/>
<path d="M119.46 124.14C118.921 123.734 118.333 123.398 117.71 123.14C116.978 122.854 116.196 122.714 115.41 122.73C114.375 122.739 113.363 123.029 112.48 123.57L112.35 123.66L112.26 123.52C111.542 122.345 110.394 121.498 109.06 121.16C108.303 120.942 107.507 120.893 106.73 121.018C105.952 121.142 105.211 121.436 104.56 121.88L104.39 122L104.27 121.83C102.941 120.064 100.981 118.878 98.8 118.52C97.096 118.235 95.3457 118.498 93.8 119.27C92.3843 119.956 91.1841 121.018 90.33 122.34V122.43H90.22C88.4307 122.499 86.6746 122.935 85.06 123.71C83.7991 124.311 82.6387 125.104 81.62 126.06C80.7476 126.929 79.9607 127.88 79.27 128.9C79.27 128.9 79.27 128.82 79.37 128.67C79.47 128.52 79.56 128.3 79.73 128.04C80.2246 127.261 80.8049 126.539 81.46 125.89C82.4733 124.886 83.6416 124.052 84.92 123.42C86.5666 122.592 88.3692 122.122 90.21 122.04L90.05 122.13C90.9317 120.728 92.1895 119.602 93.68 118.88C95.2978 118.065 97.1327 117.784 98.92 118.08C101.21 118.463 103.263 119.717 104.65 121.58H104.36C105.063 121.104 105.863 120.79 106.701 120.662C107.54 120.534 108.397 120.595 109.21 120.84C110.63 121.215 111.844 122.135 112.59 123.4L112.37 123.34C113.304 122.784 114.374 122.5 115.46 122.52C116.275 122.52 117.082 122.687 117.83 123.01C118.301 123.216 118.741 123.485 119.14 123.81C119.26 123.905 119.368 124.016 119.46 124.14Z" fill="black"/>
<path d="M76.1102 121.91C75.6104 122.15 75.0647 122.28 74.5102 122.29C73.7441 122.331 72.9774 122.22 72.2546 121.962C71.5319 121.705 70.8675 121.306 70.3002 120.79C69.516 120.042 68.9728 119.078 68.7402 118.02C68.4763 116.795 68.6021 115.519 69.1002 114.37C69.6759 113.089 70.7264 112.081 72.0302 111.56C73.4439 110.984 75.0265 110.984 76.4402 111.56L76.1902 111.62C76.8075 110.899 77.6558 110.415 78.5902 110.25C79.3737 110.1 80.1835 110.169 80.9302 110.45C81.6518 110.74 82.2688 111.242 82.7002 111.89C83.1122 112.492 83.3619 113.19 83.425 113.918C83.488 114.645 83.3624 115.376 83.0602 116.04L82.7802 115.78C83.2814 115.501 83.8431 115.349 84.4165 115.337C84.9899 115.324 85.5576 115.453 86.0702 115.71C86.5482 115.926 86.9742 116.242 87.3192 116.637C87.6643 117.032 87.9204 117.497 88.0702 118C88.2926 118.811 88.2911 119.667 88.0657 120.477C87.8403 121.287 87.3995 122.02 86.7902 122.6C86.0055 123.343 85.0288 123.852 83.9702 124.07C83.693 124.125 83.4123 124.162 83.1302 124.18H82.8302C82.8302 124.18 83.2302 124.18 83.9402 123.95C84.9508 123.691 85.8752 123.17 86.6202 122.44C87.176 121.883 87.5729 121.189 87.7698 120.427C87.9667 119.666 87.9565 118.866 87.7402 118.11C87.6008 117.67 87.3703 117.265 87.0635 116.92C86.7568 116.575 86.3808 116.299 85.9602 116.11C85.5047 115.882 85.0005 115.77 84.4915 115.782C83.9825 115.794 83.4842 115.931 83.0402 116.18L82.4502 116.53L82.7502 115.92C83.0141 115.316 83.1205 114.655 83.0593 114C82.9981 113.344 82.7713 112.714 82.4002 112.17C82.0117 111.599 81.4615 111.156 80.8202 110.9C80.1531 110.649 79.429 110.59 78.7302 110.73C77.8895 110.871 77.1251 111.303 76.5702 111.95L76.4702 112.07L76.3202 112.01C75.0129 111.474 73.5474 111.474 72.2402 112.01C71.0239 112.482 70.0405 113.412 69.5002 114.6C69.0218 115.673 68.8923 116.869 69.1302 118.02C69.3285 119.019 69.8233 119.936 70.5502 120.65C71.632 121.666 73.0663 122.222 74.5502 122.2C75.0782 122.153 75.6006 122.056 76.1102 121.91Z" fill="black"/>
<path d="M45.6799 138.54C45.6285 138.462 45.5881 138.378 45.5599 138.29C45.4594 138.049 45.3759 137.802 45.3099 137.55C45.0753 136.586 45.0514 135.583 45.2399 134.61C45.5244 133.102 46.3146 131.737 47.4799 130.74C48.221 130.113 49.0822 129.645 50.0107 129.363C50.9393 129.081 51.9156 128.991 52.8799 129.1L52.6599 129.21C53.565 127.385 55.0941 125.944 56.9699 125.15C58.3886 124.56 59.944 124.38 61.4599 124.63C62.8407 124.856 64.1433 125.423 65.2499 126.28H65.0399C66.44 125.538 68.0055 125.163 69.5899 125.19C70.8154 125.205 72.0269 125.452 73.1599 125.92C73.877 126.221 74.5498 126.618 75.1599 127.1C75.3859 127.264 75.5907 127.455 75.7699 127.67C74.9229 127.049 74.0026 126.535 73.0299 126.14C71.9178 125.721 70.7381 125.511 69.5499 125.52C68.0272 125.514 66.5277 125.893 65.1899 126.62L65.0799 126.68L64.9699 126.6C63.9059 125.802 62.6632 125.277 61.3499 125.07C59.9143 124.838 58.4425 125.011 57.0999 125.57C55.3194 126.32 53.8655 127.682 52.9999 129.41L52.9299 129.55H52.7799C51.871 129.443 50.9498 129.52 50.0717 129.778C49.1936 130.036 48.3766 130.468 47.6699 131.05C46.5447 131.984 45.7663 133.27 45.4599 134.7C45.2656 135.643 45.2656 136.616 45.4599 137.56C45.5899 138.18 45.7299 138.53 45.6799 138.54Z" fill="black"/>
<path d="M159.59 257.12L155.98 251.67L150.2 248.77L149.98 248.61C149.047 247.933 147.976 247.472 146.843 247.261C145.71 247.05 144.544 247.094 143.43 247.39C141.07 248.02 137.93 248.8 135.2 249.27L128.98 247.56V259.71L160.37 257.71L159.59 257.12Z" fill="#AE7461"/>
<path d="M159.37 256.79C158.972 256.339 158.526 255.933 158.04 255.58C157.19 254.87 156.04 253.91 154.67 252.87L153.43 251.87C152.14 251.63 151.02 251.44 150.22 251.31C149.8 251.216 149.37 251.172 148.94 251.18C149.334 251.36 149.751 251.485 150.18 251.55C150.96 251.74 152.07 251.98 153.35 252.24H153.27L154.51 253.24C155.84 254.24 157.06 255.24 157.95 255.86C158.39 256.218 158.865 256.53 159.37 256.79Z" fill="#6F4439"/>
<path d="M156.92 257.85C155.487 256.828 153.98 255.915 152.41 255.12L151.31 254.52C149.981 254.387 148.643 254.364 147.31 254.45C148.63 254.703 149.967 254.85 151.31 254.89H151.23L152.33 255.5C153.804 256.389 155.337 257.174 156.92 257.85Z" fill="#6F4439"/>
<path d="M196.12 222.76C195.614 222.473 195.019 222.382 194.45 222.503C193.881 222.625 193.375 222.951 193.03 223.42L167.75 257.66L127.75 258.2C126.16 258.3 124.22 261.53 125.65 263.09L170.82 262.47L196.9 226.24C197.096 225.966 197.232 225.654 197.3 225.324C197.367 224.994 197.363 224.654 197.29 224.325C197.216 223.997 197.074 223.687 196.872 223.418C196.671 223.148 196.414 222.924 196.12 222.76Z" fill="#E0E0E0"/>
<path d="M74.9403 183.1C72.4489 183.491 70.1191 184.58 68.2203 186.24C65.7723 188.727 63.9312 191.745 62.8403 195.06C61.5003 199.06 62.1003 214.87 62.1003 219.45C62.1003 224.03 63.2703 241.23 63.8403 244.09C64.4103 246.95 63.4703 251.21 62.1503 253.97C59.7703 258.97 63.4803 261.48 63.4803 261.48L112.56 261.12L112.37 259.28C112.03 256.09 113.22 252.85 112 249.88C110.198 245.528 109.425 240.819 109.74 236.12C110.37 227.94 112.81 222.36 111.31 217.62C109.02 210.38 101.46 193.92 92.3103 186.89C92.3103 186.89 85.1103 185.35 83.4803 184.78C79.7903 183.48 77.8303 182.78 74.9403 183.1Z" fill="#FF6C37"/>
<path d="M132.68 246.15L90.6799 237.38L89.6799 200.99C89.6799 200.99 88.2099 186.16 80.7799 184.78L62.8799 207.06C63.8799 218.29 62.9699 239.54 68.1299 247.73C73.2899 255.92 78.3099 262.49 91.0199 261.91C103.73 261.33 131.73 261.06 131.73 261.06L132.68 246.15Z" fill="#FF6C37"/>
<path d="M90.8 237.54C90.9 237.62 89.9 238.93 89.05 240.76C88.2 242.59 87.83 244.2 87.71 244.17C87.756 242.911 88.0987 241.681 88.71 240.58C89.167 239.421 89.8817 238.381 90.8 237.54Z" fill="black"/>
<g opacity="0.3">
<path d="M89.3501 199.43C93.5401 212.31 92.6301 232.15 100.62 239.43L90.6801 237.38C90.8689 235.051 90.8957 232.712 90.7601 230.38C89.9601 220.2 89.8601 209.85 89.3101 199.38" fill="black"/>
</g>
<path d="M88.4203 194.84C88.7268 195.796 88.9706 196.772 89.1503 197.76C89.389 198.957 89.5659 200.165 89.6803 201.38C89.8203 202.81 89.8403 204.46 89.9103 206.31C90.1503 213.74 90.4903 224.41 90.9103 237.4L90.7703 237.24L132.77 245.96H132.95V246.14C132.65 250.91 132.32 255.93 131.95 261.04V261.24H131.68L126.58 261.3C119.29 261.39 112.18 261.5 105.31 261.65C101.87 261.716 98.5003 261.807 95.2003 261.92C91.9103 262 88.6403 262.31 85.4803 261.82C83.9212 261.597 82.3918 261.201 80.9203 260.64C79.5049 260.067 78.1623 259.328 76.9203 258.44C74.5993 256.679 72.5739 254.559 70.9203 252.16C70.1103 251.01 69.3303 249.86 68.6103 248.72L68.0603 247.86C67.8903 247.57 67.7403 247.27 67.5803 246.97L67.1103 246.08L66.7503 245.16C65.8662 242.808 65.2393 240.367 64.8803 237.88C64.2217 233.627 63.811 229.34 63.6503 225.04C63.4603 221.25 63.3703 217.99 63.2803 215.32C63.1903 212.65 63.1003 210.58 63.0303 209.17C63.0303 208.48 62.9503 207.95 62.9303 207.58C62.9103 207.21 62.9303 207.03 62.9303 207.03C62.9303 207.03 62.9303 207.21 62.9903 207.57C63.0503 207.93 63.0703 208.48 63.1303 209.17C63.2303 210.57 63.3603 212.64 63.4703 215.31C63.5803 217.98 63.6903 221.24 63.9103 225.03C64.0942 229.317 64.5216 233.591 65.1903 237.83C65.5602 240.293 66.1904 242.71 67.0703 245.04L67.4303 245.95L67.8903 246.81C68.0503 247.1 68.2003 247.4 68.3703 247.68L68.9103 248.53C69.6403 249.67 70.4103 250.81 71.2303 251.95C72.885 254.322 74.911 256.412 77.2303 258.14C78.4731 259.013 79.816 259.735 81.2303 260.29C82.6737 260.833 84.1728 261.216 85.7003 261.43C88.8103 261.91 92.0403 261.6 95.3503 261.51C98.6603 261.42 102.03 261.31 105.47 261.23C112.34 261.08 119.47 260.96 126.75 260.87H131.85L131.64 261.06C131.97 255.95 132.3 250.93 132.64 246.16L132.8 246.38L90.6803 237.57H90.5403V237.38C90.1803 224.38 89.8903 213.72 89.6903 206.29C89.6303 204.44 89.6303 202.78 89.5103 201.36C89.3903 199.94 89.2203 198.73 89.0503 197.76C88.8803 196.79 88.7003 196.06 88.5803 195.57C88.5803 195.33 88.4803 195.15 88.4503 195.01C88.4203 194.87 88.4203 194.84 88.4203 194.84Z" fill="black"/>
<path d="M155.74 335.52L149.51 381.39L165.8 384.06L177.38 343.36L155.74 335.52Z" fill="#AE7461"/>
<path d="M106.35 265.03C106.35 265.03 165.88 261.12 178.24 263.09C185.71 264.28 192.15 275.95 188.08 282.97C186.15 286.29 183.08 296.63 183.08 296.63L151.08 289.33L106.35 265.03Z" fill="black"/>
<path d="M151.12 296.63L138.23 316.3L153.4 326.13L169.86 300.9L151.12 296.63Z" fill="#AE7461"/>
<path d="M64.6801 261.43C64.6801 261.43 58.3901 289.16 68.5401 300.06C75.7801 307.83 93.5401 307.01 108.54 307.01C123.71 307.01 158.75 306.18 158.75 306.18C158.75 306.18 157.16 315.93 156 327.03C154.84 338.13 154.59 345.15 154.59 345.15L176.92 347.01C176.92 347.01 189.36 309.15 191.27 301.65C193.18 294.15 192.54 284.08 185.92 280.34C180.32 277.18 136.09 264.91 114.92 263.09L112.62 261.09L64.6801 261.43Z" fill="black"/>
<path d="M169.61 297.07C169.61 297.14 168.75 297.27 167.42 297.74C166.649 298.007 165.903 298.342 165.19 298.74C164.325 299.246 163.511 299.836 162.76 300.5C162.026 301.183 161.356 301.933 160.76 302.74C160.278 303.408 159.857 304.117 159.5 304.86C158.89 306.13 158.68 306.99 158.6 306.97C158.596 306.77 158.623 306.571 158.68 306.38C158.81 305.826 158.987 305.284 159.21 304.76C159.543 303.985 159.952 303.245 160.43 302.55C161.606 300.835 163.173 299.423 165 298.43C165.738 298.013 166.52 297.678 167.33 297.43C167.871 297.256 168.427 297.132 168.99 297.06C169.196 297.026 169.406 297.029 169.61 297.07Z" fill="black"/>
<path d="M166.96 274.2C167.193 273.358 167.594 272.572 168.14 271.89C168.57 271.129 169.156 270.468 169.86 269.95C169.488 270.726 169.029 271.458 168.49 272.13C168.064 272.878 167.55 273.573 166.96 274.2Z" fill="black"/>
<path d="M192.15 291.11C192.118 291.044 192.098 290.973 192.09 290.9C192.09 290.73 192 290.52 191.93 290.26C191.8 289.7 191.6 288.88 191.26 287.85C190.865 286.593 190.336 285.383 189.68 284.24C188.852 282.71 187.598 281.452 186.07 280.62C181.895 278.795 177.598 277.265 173.21 276.04C168.27 274.57 162.82 273.04 157.08 271.48C145.58 268.43 135.03 266.24 127.34 264.97C123.5 264.32 120.34 263.88 118.21 263.57L115.73 263.24L115.08 263.14C115.005 263.13 114.931 263.114 114.86 263.09H115.09H115.74L118.23 263.35C120.4 263.6 123.53 264 127.39 264.61C137.422 266.238 147.365 268.374 157.18 271.01C162.94 272.53 168.39 274.11 173.32 275.61C177.727 276.883 182.036 278.477 186.21 280.38C187.773 281.254 189.048 282.564 189.88 284.15C190.533 285.313 191.05 286.548 191.42 287.83C191.73 288.88 191.91 289.71 192.02 290.27C192.02 290.54 192.1 290.75 192.13 290.92C192.145 290.982 192.152 291.046 192.15 291.11Z" fill="black"/>
<path d="M167.06 382.87L167.6 380.87C160.919 380.305 154.602 377.585 149.6 373.12L144.08 385.05L180.88 401.42C182.3 397.91 167.06 382.87 167.06 382.87Z" fill="black"/>
<path d="M144.11 385.06L145.46 382.15L180.31 398.96C180.31 398.96 181.63 400.39 180.91 401.43L144.11 385.06Z" fill="#E0E0E0"/>
<path d="M166.57 382.64C166.48 382.81 165.57 382.49 164.4 382.64C163.23 382.79 162.4 383.34 162.3 383.19C162.2 383.04 162.91 382.19 164.3 381.98C165.69 381.77 166.68 382.49 166.57 382.64Z" fill="#E0E0E0"/>
<path d="M152.25 381.38C152.121 381.628 151.902 381.817 151.638 381.908C151.374 381.999 151.084 381.986 150.83 381.87C150.703 381.816 150.589 381.737 150.494 381.637C150.399 381.537 150.326 381.418 150.279 381.289C150.232 381.159 150.212 381.021 150.221 380.884C150.23 380.746 150.267 380.612 150.33 380.49C150.455 380.238 150.674 380.045 150.94 379.954C151.205 379.862 151.497 379.878 151.75 380C151.877 380.053 151.992 380.132 152.087 380.232C152.181 380.332 152.255 380.451 152.302 380.58C152.349 380.71 152.368 380.848 152.359 380.985C152.351 381.123 152.313 381.257 152.25 381.38Z" fill="#E0E0E0"/>
<path d="M166.35 382.38C166.063 382.385 165.778 382.334 165.51 382.23C164.738 382.053 164.026 381.673 163.45 381.13C163.264 380.937 163.102 380.722 162.97 380.49C162.802 380.238 162.696 379.95 162.66 379.65C162.646 379.456 162.694 379.262 162.799 379.098C162.903 378.934 163.058 378.808 163.24 378.74C163.419 378.67 163.609 378.639 163.801 378.648C163.992 378.656 164.179 378.705 164.35 378.79C165.031 379.116 165.608 379.624 166.019 380.257C166.43 380.891 166.659 381.625 166.68 382.38L166.13 382.3C166.224 382.014 166.348 381.739 166.5 381.48C166.905 380.78 167.489 380.202 168.193 379.805C168.896 379.407 169.693 379.205 170.5 379.22C170.714 379.21 170.926 379.251 171.12 379.34C171.227 379.393 171.32 379.47 171.391 379.566C171.462 379.661 171.51 379.772 171.53 379.89C171.56 380.075 171.552 380.264 171.508 380.446C171.463 380.628 171.382 380.799 171.27 380.95C170.917 381.452 170.428 381.844 169.86 382.08C169.057 382.396 168.191 382.526 167.33 382.46C167.021 382.479 166.711 382.452 166.41 382.38C166.705 382.29 167.012 382.246 167.32 382.25C168.136 382.233 168.94 382.06 169.69 381.74C170.166 381.514 170.576 381.169 170.88 380.74C171.03 380.532 171.095 380.274 171.06 380.02C171.06 379.82 170.83 379.75 170.49 379.75C169.783 379.749 169.088 379.934 168.475 380.284C167.861 380.635 167.349 381.14 166.99 381.75C166.863 381.98 166.756 382.221 166.67 382.47C166.648 382.528 166.606 382.578 166.552 382.61C166.498 382.642 166.435 382.655 166.373 382.647C166.31 382.639 166.252 382.61 166.209 382.565C166.165 382.521 166.137 382.462 166.13 382.4C166.117 381.749 165.931 381.114 165.592 380.559C165.253 380.004 164.773 379.549 164.2 379.24C163.7 378.98 163.12 379.24 163.2 379.64C163.278 380.109 163.494 380.544 163.82 380.89C164.34 381.413 164.973 381.81 165.67 382.05C165.908 382.136 166.136 382.246 166.35 382.38Z" fill="#E0E0E0"/>
<path d="M169.39 385.19C168.577 385.181 167.764 385.238 166.96 385.36C166.188 385.625 165.442 385.96 164.73 386.36C165.259 385.665 166.009 385.172 166.856 384.961C167.703 384.751 168.597 384.835 169.39 385.2V385.19Z" fill="#E0E0E0"/>
<path d="M171.45 387.53C171.45 387.65 170.45 387.62 169.29 387.97C168.13 388.32 167.29 388.87 167.24 388.77C167.717 388.148 168.402 387.718 169.17 387.56C169.901 387.271 170.712 387.261 171.45 387.53Z" fill="#E0E0E0"/>
<path d="M156.29 323.91L157.16 322.04C150.679 320.353 144.918 316.614 140.74 311.38L133.29 322.21L166.82 344.54C168.78 341.3 156.29 323.91 156.29 323.91Z" fill="black"/>
<path d="M133.29 322.21L135.11 319.56L166.68 342.01C166.68 342.01 167.68 343.63 166.86 344.54L133.29 322.21Z" fill="#E0E0E0"/>
<path d="M155.84 323.6C155.72 323.75 154.84 323.28 153.7 323.26C152.56 323.24 151.64 323.61 151.54 323.45C151.44 323.29 152.31 322.53 153.71 322.59C155.11 322.65 155.98 323.48 155.84 323.6Z" fill="white"/>
<path d="M141.94 319.93C141.772 320.154 141.525 320.304 141.249 320.348C140.973 320.393 140.69 320.329 140.46 320.17C140.345 320.096 140.246 319.998 140.169 319.884C140.093 319.77 140.041 319.641 140.017 319.506C139.993 319.371 139.996 319.233 140.028 319.099C140.059 318.965 140.118 318.84 140.2 318.73C140.366 318.504 140.613 318.352 140.89 318.306C141.166 318.259 141.449 318.321 141.68 318.48C141.797 318.554 141.897 318.652 141.975 318.767C142.052 318.882 142.104 319.011 142.129 319.148C142.153 319.284 142.149 319.424 142.117 319.558C142.084 319.693 142.024 319.82 141.94 319.93Z" fill="#E0E0E0"/>
<path d="M155.68 323.32C155.401 323.272 155.134 323.174 154.89 323.03C154.159 322.724 153.521 322.231 153.04 321.6C152.884 321.382 152.759 321.143 152.67 320.89C152.546 320.611 152.491 320.305 152.51 320C152.53 319.807 152.61 319.626 152.739 319.482C152.869 319.338 153.041 319.239 153.23 319.2C153.419 319.165 153.612 319.169 153.799 319.21C153.987 319.251 154.164 319.329 154.32 319.44C154.926 319.883 155.4 320.483 155.689 321.176C155.978 321.869 156.072 322.627 155.96 323.37L155.44 323.2C155.577 322.931 155.742 322.676 155.93 322.44C156.448 321.822 157.121 321.353 157.88 321.08C158.64 320.808 159.457 320.742 160.25 320.89C160.459 320.919 160.658 320.998 160.83 321.12C160.926 321.189 161.005 321.279 161.06 321.383C161.115 321.487 161.146 321.602 161.15 321.72C161.149 321.908 161.109 322.093 161.033 322.265C160.958 322.437 160.848 322.592 160.71 322.72C160.276 323.154 159.729 323.455 159.13 323.59C158.287 323.768 157.415 323.751 156.58 323.54C156.271 323.505 155.968 323.427 155.68 323.31C155.988 323.26 156.302 323.26 156.61 323.31C157.412 323.436 158.231 323.402 159.02 323.21C159.537 323.065 160.003 322.781 160.37 322.39C160.552 322.213 160.659 321.973 160.67 321.72C160.67 321.5 160.49 321.41 160.16 321.35C159.46 321.234 158.742 321.304 158.078 321.551C157.413 321.798 156.824 322.215 156.37 322.76C156.204 322.963 156.057 323.18 155.93 323.41C155.914 323.442 155.892 323.472 155.865 323.495C155.837 323.519 155.805 323.537 155.771 323.549C155.736 323.56 155.7 323.564 155.664 323.561C155.627 323.557 155.592 323.547 155.56 323.53C155.508 323.506 155.465 323.466 155.437 323.415C155.41 323.365 155.401 323.307 155.41 323.25C155.504 322.607 155.427 321.95 155.186 321.346C154.946 320.742 154.551 320.212 154.04 319.81C153.59 319.47 152.98 319.6 152.95 320.03C152.951 320.506 153.089 320.972 153.35 321.37C153.775 321.976 154.337 322.473 154.99 322.82C155.242 322.954 155.474 323.122 155.68 323.32Z" fill="white"/>
<path d="M158.19 326.59C157.392 326.441 156.582 326.36 155.77 326.35C154.964 326.48 154.171 326.681 153.4 326.95C154.038 326.354 154.861 325.994 155.732 325.928C156.602 325.863 157.47 326.096 158.19 326.59Z" fill="white"/>
<path d="M159.82 329.24C159.82 329.36 158.82 329.16 157.62 329.31C156.42 329.46 155.53 329.87 155.47 329.76C156.078 329.282 156.805 328.981 157.572 328.89C158.34 328.798 159.117 328.919 159.82 329.24Z" fill="white"/>
</g>
<defs>
<clipPath id="clip0_1108_15328">
<rect width="697.36" height="434.09" fill="white"/>
</clipPath>
</defs>
</svg>
