<svg width="409" height="400" viewBox="0 0 409 400" fill="none" xmlns="http://www.w3.org/2000/svg">
<path d="M44.4238 160.82H39.3792C33.9659 160.82 28.7743 162.971 24.9465 166.798C21.1187 170.626 18.9683 175.818 18.9683 181.231V293.236C18.9683 298.649 21.1187 303.841 24.9465 307.668C28.7743 311.496 33.9659 313.647 39.3792 313.647H108.589C114.002 313.647 119.194 311.496 123.021 307.668C126.849 303.841 129 298.649 129 293.236" stroke="#263238" stroke-width="1.10311" stroke-linecap="round" stroke-linejoin="round" stroke-dasharray="4.41 4.41"/>
<path d="M123.36 55.1353V33.0117C123.36 29.7014 124.673 26.5263 127.011 24.1829C129.349 21.8396 132.521 20.5194 135.831 20.512H225.833C229.149 20.512 232.328 21.8289 234.672 24.1731C237.016 26.5172 238.333 29.6966 238.333 33.0117" stroke="#263238" stroke-width="1.10311" stroke-linecap="round" stroke-linejoin="round" stroke-dasharray="4.41 4.41"/>
<path d="M204.333 400C302.78 400 382.587 388.849 382.587 375.094C382.587 361.338 302.78 350.187 204.333 350.187C105.886 350.187 26.0791 361.338 26.0791 375.094C26.0791 388.849 105.886 400 204.333 400Z" fill="#F5F5F5"/>
<path d="M372.368 84.8163V252.404C372.368 257.883 370.192 263.137 366.319 267.011C362.447 270.886 357.193 273.064 351.715 273.067H56.9516C51.4732 273.064 46.2201 270.886 42.3471 267.011C38.4742 263.137 36.2986 257.883 36.2986 252.404V84.8163C36.2986 84.3231 36.2986 83.8856 36.3637 83.3644C36.7266 78.1511 39.0531 73.2695 42.874 69.7042C46.6948 66.139 51.7257 64.1556 56.9516 64.1541H351.715C356.947 64.1562 361.983 66.1448 365.805 69.7179C369.626 73.2909 371.949 78.1817 372.303 83.4016C372.349 83.8484 372.368 84.3324 372.368 84.8163Z" fill="white" stroke="#263238" stroke-width="1.10311" stroke-linecap="round" stroke-linejoin="round"/>
<path d="M46.3508 91.1082H363.368V245.917C363.368 251.051 361.328 255.976 357.698 259.606C354.067 263.237 349.143 265.276 344.009 265.276H65.7194C60.585 265.276 55.6609 263.237 52.0303 259.606C48.3998 255.976 46.3601 251.051 46.3601 245.917V91.1082H46.3508Z" fill="white"/>
<path opacity="0.2" d="M363.377 91.1082V245.917C363.404 251.023 361.403 255.93 357.813 259.561C354.223 263.191 349.338 265.247 344.232 265.276H65.4958C60.3902 265.247 55.5052 263.191 51.9151 259.561C48.3249 255.93 46.3234 251.023 46.3506 245.917V91.1082H363.377Z" fill="white"/>
<path d="M372.303 83.4018H36.364C36.7269 78.1885 39.0534 73.3068 42.8743 69.7416C46.6951 66.1764 51.726 64.1929 56.9518 64.1914H351.715C356.941 64.1929 361.972 66.1764 365.793 69.7416C369.614 73.3068 371.94 78.1885 372.303 83.4018Z" fill="#FF6C37" stroke="#263238" stroke-width="1.10311" stroke-miterlimit="10"/>
<path d="M77.642 73.7591C77.642 74.4825 77.4275 75.1897 77.0255 75.7913C76.6236 76.3928 76.0524 76.8616 75.384 77.1385C74.7156 77.4153 73.9801 77.4877 73.2706 77.3466C72.5611 77.2055 71.9093 76.8571 71.3978 76.3455C70.8862 75.834 70.5378 75.1822 70.3967 74.4727C70.2556 73.7632 70.328 73.0277 70.6049 72.3593C70.8817 71.691 71.3505 71.1197 71.952 70.7178C72.5536 70.3158 73.2608 70.1013 73.9842 70.1013C74.9543 70.1013 75.8847 70.4867 76.5706 71.1727C77.2566 71.8586 77.642 72.789 77.642 73.7591Z" fill="#263238"/>
<path d="M93.1107 73.7591C93.1107 74.4825 92.8962 75.1897 92.4943 75.7913C92.0924 76.3928 91.5211 76.8616 90.8527 77.1385C90.1843 77.4153 89.4489 77.4877 88.7393 77.3466C88.0298 77.2055 87.3781 76.8571 86.8665 76.3455C86.355 75.834 86.0066 75.1822 85.8655 74.4727C85.7243 73.7632 85.7968 73.0277 86.0736 72.3593C86.3504 71.691 86.8193 71.1197 87.4208 70.7178C88.0223 70.3158 88.7295 70.1013 89.4529 70.1013C90.4231 70.1013 91.3534 70.4867 92.0394 71.1727C92.7254 71.8586 93.1107 72.789 93.1107 73.7591Z" fill="#263238"/>
<path d="M104.922 77.4169C106.942 77.4169 108.579 75.7792 108.579 73.7591C108.579 71.739 106.942 70.1013 104.922 70.1013C102.902 70.1013 101.264 71.739 101.264 73.7591C101.264 75.7792 102.902 77.4169 104.922 77.4169Z" fill="#263238"/>
<path d="M363.368 91.1082V245.917C363.368 251.051 361.328 255.976 357.698 259.606C354.067 263.237 349.143 265.276 344.009 265.276H65.7193C61.2382 265.276 56.8961 263.72 53.4336 260.875C49.9711 258.031 47.6027 254.073 46.7324 249.677V249.621C46.4957 248.395 46.3773 247.148 46.3787 245.898V91.1082H363.368Z" stroke="#263238" stroke-width="1.10311" stroke-miterlimit="10"/>
<path d="M363.07 115.047C361.713 114.284 360.269 113.688 358.77 113.269L357.03 105.497H349.64L347.918 113.269C346.41 113.68 344.96 114.277 343.599 115.047L336.926 110.775L331.705 115.977L335.902 122.651C335.134 124.011 334.537 125.462 334.124 126.969L326.353 128.691V136.081L334.124 137.822C334.532 139.337 335.129 140.794 335.902 142.159L331.63 148.879L336.861 154.1L343.571 149.828C344.929 150.599 346.376 151.199 347.881 151.615L349.612 159.377H356.974L358.705 151.615C360.205 151.195 361.649 150.595 363.005 149.828L363.349 150.052V114.86L363.07 115.047ZM353.353 142.038C351.464 142.038 349.618 141.478 348.047 140.428C346.476 139.378 345.253 137.886 344.53 136.141C343.808 134.395 343.619 132.475 343.988 130.622C344.357 128.77 345.268 127.068 346.604 125.733C347.941 124.398 349.643 123.489 351.496 123.122C353.349 122.754 355.269 122.945 357.014 123.669C358.759 124.393 360.25 125.618 361.298 127.19C362.346 128.762 362.905 130.609 362.903 132.498C362.903 133.751 362.656 134.993 362.176 136.151C361.696 137.309 360.992 138.361 360.105 139.247C359.218 140.133 358.166 140.836 357.007 141.314C355.849 141.793 354.607 142.039 353.353 142.038Z" fill="#DEE9FF"/>
<path d="M229.882 122.539V106.959L213.501 103.319C212.617 100.154 211.368 97.1025 209.778 94.2261L211.761 91.1082H134.417L136.325 94.1423C134.716 97.0061 133.465 100.057 132.602 103.226L116.212 106.875V122.492L132.602 126.15C133.465 129.343 134.716 132.419 136.325 135.309L127.325 149.465L138.354 160.485L152.501 151.476C155.371 153.09 158.424 154.355 161.594 155.245L165.243 171.579H180.786L184.453 155.208C187.613 154.314 190.656 153.049 193.518 151.438L207.675 160.448L218.695 149.428L209.75 135.271C211.336 132.4 212.585 129.355 213.473 126.197L229.882 122.539ZM173.107 134.881C169.126 134.881 165.233 133.7 161.923 131.488C158.612 129.276 156.032 126.131 154.508 122.453C152.984 118.774 152.586 114.726 153.362 110.821C154.139 106.916 156.057 103.329 158.872 100.513C161.688 97.698 165.275 95.7806 169.18 95.0039C173.085 94.2271 177.133 94.6257 180.812 96.1495C184.49 97.6732 187.634 100.254 189.846 103.564C192.058 106.875 193.239 110.767 193.239 114.749C193.24 117.393 192.721 120.011 191.709 122.454C190.698 124.897 189.215 127.117 187.345 128.987C185.476 130.856 183.256 132.339 180.813 133.351C178.37 134.362 175.751 134.882 173.107 134.881Z" fill="#DEE9FF"/>
<path d="M126.506 229.527L127.166 217.158L114.35 213.546C113.755 211.004 112.875 208.538 111.726 206.193L119.469 195.323L111.167 186.118L99.5702 192.633C97.3535 191.238 94.983 190.104 92.5059 189.254L90.2908 176.112L77.9306 175.544L74.3566 188.398C71.8101 188.969 69.3415 189.844 67.0038 191.004L56.1421 183.27L46.9186 191.562L53.4896 203.169C52.0809 205.376 50.9434 207.744 50.1017 210.224L46.3788 210.838V227.591L49.0965 228.354C49.6603 230.905 50.5323 233.377 51.6932 235.716L46.3508 243.209L46.7045 249.622V249.677L52.2238 255.792L63.8393 249.231C66.0522 250.654 68.4308 251.801 70.9222 252.646L73.1001 265.267L73.2025 265.798L85.5626 266.449L85.8884 265.267L89.1367 253.605C91.6946 253.032 94.1753 252.158 96.5267 250.999L107.37 258.724L116.584 250.441L110.069 238.825C111.464 236.621 112.587 234.255 113.41 231.779L126.506 229.527ZM93.6786 210.214C91.5614 207.859 88.7933 206.185 85.7244 205.404C82.6555 204.622 79.4238 204.768 76.4381 205.824C73.4524 206.879 70.8468 208.797 68.9509 211.333C67.0551 213.87 65.9542 216.912 65.7874 220.074C65.6207 223.237 66.3957 226.378 68.0143 229.1C69.633 231.821 72.0225 234.002 74.8807 235.366C77.7389 236.729 80.9373 237.215 84.0713 236.76C87.2054 236.306 90.1342 234.932 92.4873 232.812C95.6291 229.974 97.5185 226.006 97.7418 221.778C97.965 217.55 96.5041 213.405 93.6786 210.252V210.214Z" fill="#DEE9FF"/>
<path d="M225.368 211.089C225.846 209.174 226.099 207.209 226.122 205.235L235.01 200.581L232.553 191.562L222.52 192.028C221.504 190.342 220.295 188.78 218.918 187.374L221.887 177.778L213.79 173.124L207.014 180.514C205.102 180.053 203.145 179.803 201.178 179.77L196.524 170.881L187.515 173.329L187.99 183.372C186.304 184.388 184.742 185.597 183.336 186.974L173.731 184.005L169.077 192.093L176.523 198.859C176.042 200.767 175.795 202.727 175.788 204.695L166.881 209.349L169.338 218.358L179.39 217.883C180.386 219.578 181.59 221.141 182.973 222.537L179.985 232.086L188.092 236.74L194.831 229.406C196.745 229.888 198.711 230.135 200.685 230.141L205.339 239.039L214.348 236.591L213.948 228.01L213.883 226.539C215.592 225.533 217.173 224.324 218.592 222.937L228.188 225.916L232.153 218.991L232.823 217.818L225.368 211.089ZM204.082 216.562C201.772 217.199 199.324 217.136 197.05 216.38C194.775 215.624 192.776 214.21 191.307 212.316C189.837 210.423 188.963 208.136 188.795 205.745C188.628 203.354 189.173 200.968 190.364 198.888C191.554 196.807 193.336 195.128 195.482 194.061C197.629 192.995 200.044 192.59 202.42 192.898C204.797 193.207 207.029 194.213 208.833 195.792C210.636 197.37 211.931 199.448 212.552 201.763C213.379 204.848 212.953 208.136 211.367 210.908C209.78 213.68 207.161 215.713 204.082 216.562Z" fill="#DEE9FF"/>
<path d="M328.419 226.949L330.466 214.57L317.939 209.535C317.654 206.897 317.051 204.303 316.142 201.81L325.161 191.767L317.864 181.529L305.43 186.806C303.365 185.151 301.109 183.751 298.71 182.636L297.984 169.15L285.605 167.103L280.533 179.574C277.906 179.883 275.323 180.492 272.835 181.389L262.765 172.37L252.573 179.667L257.86 192.093C256.405 193.909 255.142 195.871 254.09 197.947C253.951 198.236 253.802 198.524 253.672 198.813L240.195 199.557L238.138 211.917L240.167 212.736L250.665 216.971C250.952 219.597 251.555 222.178 252.462 224.659L243.424 234.767L250.731 245.005L263.156 239.7C265.214 241.369 267.467 242.782 269.866 243.907L270.564 257.328L282.934 259.375L287.997 246.997C290.63 246.709 293.217 246.103 295.704 245.191L305.755 254.21L315.994 246.904L310.707 234.469C312.391 232.403 313.813 230.136 314.942 227.721L328.419 226.949ZM293.702 226.39C291.098 228.259 287.999 229.313 284.795 229.42C281.592 229.526 278.429 228.68 275.706 226.989C272.984 225.298 270.824 222.837 269.5 219.919C268.175 217 267.747 213.754 268.267 210.591C268.788 207.429 270.235 204.492 272.425 202.152C274.616 199.812 277.45 198.174 280.572 197.445C283.693 196.716 286.96 196.929 289.96 198.057C292.96 199.185 295.558 201.178 297.425 203.783C299.927 207.277 300.938 211.622 300.237 215.861C299.535 220.101 297.178 223.888 293.684 226.39H293.702Z" fill="#DEE9FF"/>
<path d="M160.663 135.309H63.3272C56.5882 135.309 51.1252 140.772 51.1252 147.511V282.271C51.1252 289.01 56.5882 294.473 63.3272 294.473H160.663C167.402 294.473 172.865 289.01 172.865 282.271V147.511C172.865 140.772 167.402 135.309 160.663 135.309Z" fill="#FF6C37" stroke="#263238" stroke-width="1.10311" stroke-miterlimit="10"/>
<path opacity="0.2" d="M160.663 135.309H63.3272C56.5882 135.309 51.1252 140.772 51.1252 147.511V282.271C51.1252 289.01 56.5882 294.473 63.3272 294.473H160.663C167.402 294.473 172.865 289.01 172.865 282.271V147.511C172.865 140.772 167.402 135.309 160.663 135.309Z" fill="black"/>
<path d="M184.192 159.536V294.297C184.194 295.9 183.879 297.487 183.266 298.969C182.654 300.45 181.755 301.797 180.622 302.931C179.489 304.065 178.143 304.964 176.662 305.578C175.181 306.192 173.594 306.508 171.99 306.508H74.6543C73.0519 306.507 71.4655 306.19 69.9855 305.575C68.5056 304.961 67.1611 304.061 66.0289 302.927C64.8968 301.793 63.999 300.448 63.3869 298.967C62.7749 297.486 62.4605 295.899 62.4617 294.297V159.536C62.4617 156.301 63.746 153.199 66.0322 150.911C68.3185 148.623 71.4197 147.336 74.6543 147.334H171.99C175.227 147.334 178.33 148.619 180.618 150.908C182.907 153.196 184.192 156.3 184.192 159.536Z" fill="white" stroke="#263238" stroke-width="1.10311" stroke-linecap="round" stroke-linejoin="round"/>
<path d="M184.192 159.536V166.749H62.4617V159.536C62.4617 156.301 63.7459 153.199 66.0322 150.911C68.3185 148.623 71.4197 147.336 74.6543 147.334H171.99C175.227 147.334 178.33 148.619 180.618 150.908C182.907 153.196 184.192 156.3 184.192 159.536Z" fill="#FF6C37" stroke="#263238" stroke-width="1.10311" stroke-miterlimit="10"/>
<path d="M103.861 175.107H73.9097V180.133H103.861V175.107Z" fill="#FF6C37"/>
<path d="M103.861 220.145H73.9097V225.171H103.861V220.145Z" fill="#FF6C37"/>
<path d="M103.861 260.985H73.9097V266.011H103.861V260.985Z" fill="#FF6C37"/>
<path d="M158.969 187.551H73.9097V191.236H158.969V187.551Z" fill="#263238"/>
<path d="M143.631 194.596H73.9097V198.189H143.631V194.596Z" fill="#263238"/>
<path d="M152.761 201.53H73.9097V205.123H152.761V201.53Z" fill="#263238"/>
<path d="M152.761 208.455H73.9097V212.047H152.761V208.455Z" fill="#263238"/>
<path d="M158.969 228.391H73.9097V232.077H158.969V228.391Z" fill="#263238"/>
<path d="M143.631 235.437H73.9097V239.03H143.631V235.437Z" fill="#263238"/>
<path d="M152.761 242.371H73.9097V245.963H152.761V242.371Z" fill="#263238"/>
<path d="M158.969 273.234H73.9097V276.92H158.969V273.234Z" fill="#263238"/>
<path d="M143.631 280.289H73.9097V283.882H143.631V280.289Z" fill="#263238"/>
<path d="M152.761 287.223H73.9097V290.816H152.761V287.223Z" fill="#263238"/>
<path d="M321.392 53.888V108.355C321.392 110.266 321.015 112.158 320.283 113.924C319.552 115.689 318.479 117.293 317.127 118.644C315.776 119.995 314.171 121.067 312.405 121.797C310.639 122.528 308.746 122.903 306.835 122.902H181.391C179.479 122.903 177.587 122.528 175.821 121.797C174.055 121.067 172.45 119.995 171.098 118.644C169.746 117.293 168.674 115.689 167.942 113.924C167.211 112.158 166.834 110.266 166.834 108.355V53.888C166.836 50.0281 168.371 46.3269 171.1 43.5976C173.83 40.8682 177.531 39.3338 181.391 39.3313H306.835C310.696 39.3313 314.398 40.8649 317.128 43.5948C319.858 46.3248 321.392 50.0273 321.392 53.888Z" fill="white" stroke="#222221" stroke-width="1.10311" stroke-miterlimit="10"/>
<path d="M321.392 53.888V55.1352H166.834V53.888C166.836 50.0281 168.371 46.3269 171.1 43.5976C173.83 40.8682 177.531 39.3338 181.391 39.3313H306.835C310.696 39.3313 314.398 40.8649 317.128 43.5948C319.858 46.3248 321.392 50.0273 321.392 53.888Z" fill="#FF6C37" stroke="#263238" stroke-width="1.10311" stroke-miterlimit="10"/>
<path d="M189.544 49.8392C189.232 50.1521 188.834 50.3654 188.4 50.452C187.967 50.5387 187.517 50.4947 187.109 50.3258C186.7 50.1569 186.351 49.8706 186.106 49.5032C185.86 49.1357 185.729 48.7036 185.729 48.2616C185.729 47.8196 185.86 47.3875 186.106 47.02C186.351 46.6526 186.7 46.3663 187.109 46.1973C187.517 46.0284 187.967 45.9845 188.4 46.0712C188.834 46.1578 189.232 46.3711 189.544 46.684C189.959 47.104 190.192 47.6709 190.192 48.2616C190.192 48.8523 189.959 49.4192 189.544 49.8392Z" fill="#263238"/>
<path d="M199.894 49.8392C199.582 50.1521 199.184 50.3654 198.75 50.452C198.317 50.5387 197.867 50.4947 197.459 50.3258C197.05 50.1569 196.701 49.8706 196.455 49.5032C196.21 49.1357 196.079 48.7036 196.079 48.2616C196.079 47.8196 196.21 47.3875 196.455 47.02C196.701 46.6526 197.05 46.3663 197.459 46.1973C197.867 46.0284 198.317 45.9845 198.75 46.0712C199.184 46.1578 199.582 46.3711 199.894 46.684C200.309 47.104 200.542 47.6709 200.542 48.2616C200.542 48.8523 200.309 49.4192 199.894 49.8392Z" fill="#263238"/>
<path d="M210.243 49.8392C209.931 50.1521 209.533 50.3654 209.1 50.452C208.666 50.5387 208.217 50.4947 207.808 50.3258C207.4 50.1569 207.051 49.8706 206.805 49.5032C206.559 49.1357 206.428 48.7036 206.428 48.2616C206.428 47.8196 206.559 47.3875 206.805 47.02C207.051 46.6526 207.4 46.3663 207.808 46.1973C208.217 46.0284 208.666 45.9845 209.1 46.0712C209.533 46.1578 209.931 46.3711 210.243 46.684C210.659 47.104 210.892 47.6709 210.892 48.2616C210.892 48.8523 210.659 49.4192 210.243 49.8392Z" fill="#263238"/>
<path d="M227.211 65.1499H176.69V108.82H227.211V65.1499Z" stroke="#263238" stroke-width="1.10311" stroke-linecap="round" stroke-linejoin="round" stroke-dasharray="4.41 4.41"/>
<path d="M293.153 65.1499H235.01V68.2213H293.153V65.1499Z" fill="#263238"/>
<path d="M279.611 71.5068H235.01V74.569H279.611V71.5068Z" fill="#263238"/>
<path d="M301.418 77.8357H235.01V80.935H301.418V77.8357Z" fill="#263238"/>
<path d="M291.562 84.0066H235.01V87.1059H291.562V84.0066Z" fill="#263238"/>
<path d="M325.617 189.068H297.183C293.827 189.068 291.106 191.789 291.106 195.146V211.834C291.106 215.19 293.827 217.911 297.183 217.911H325.617C328.974 217.911 331.695 215.19 331.695 211.834V195.146C331.695 191.789 328.974 189.068 325.617 189.068Z" fill="white" stroke="#263238" stroke-width="1.10311" stroke-linecap="round" stroke-linejoin="round"/>
<path d="M304.201 197.742L296.392 202.638L303.643 209.06" stroke="#263238" stroke-width="1.10311" stroke-linecap="round" stroke-linejoin="round"/>
<path d="M318.423 209.525L325.44 203.55L317.343 198.245" stroke="#263238" stroke-width="1.10311" stroke-linecap="round" stroke-linejoin="round"/>
<path d="M307.999 213.211L313.76 195.136" stroke="#263238" stroke-width="1.10311" stroke-linecap="round" stroke-linejoin="round"/>
<path d="M247.948 370.505C247.948 370.505 220.956 378.24 217.187 379.58C213.762 380.79 204.473 384.047 197.502 383.033C196.829 382.936 196.163 382.793 195.51 382.605C188.446 380.501 185.272 378.537 184.341 374.098C183.41 369.658 186.929 366.382 190.317 364.288C193.704 362.194 212.077 360.007 212.077 360.007L216.517 361.31L247.948 370.505Z" fill="#407BFF"/>
<path d="M197.502 383.033C196.829 382.936 196.163 382.793 195.51 382.605C188.446 380.501 185.272 378.537 184.341 374.098C183.41 369.658 186.929 366.382 190.317 364.288C193.704 362.194 212.077 360.007 212.077 360.007L216.517 361.31C212.496 363.171 197.53 364.186 194.263 366.066C190.996 367.946 189.423 371.483 191.35 376.304C192.383 378.817 195.138 381.283 197.502 383.033Z" fill="white"/>
<path d="M243.89 371.603C243.89 371.603 223.618 376.853 215.577 380.213C207.535 383.573 192.206 385.043 186.724 378.118C181.242 371.194 186.091 365.218 191.555 363.887C197.018 362.557 208.066 360.462 214.097 361.309" stroke="#263238" stroke-width="1.10311" stroke-linecap="round" stroke-linejoin="round"/>
<path d="M197.902 382.67C197.902 382.67 187.589 377.011 191.015 369.081C193.546 363.236 207.302 364.502 214.115 361.31" stroke="#263238" stroke-width="1.10311" stroke-linecap="round" stroke-linejoin="round"/>
<path d="M330.159 384.289C329.88 387.081 328.903 389.697 326.111 391.344C324.249 392.442 321.606 393.094 317.818 393.057C308.352 392.936 290.557 386.169 290.557 386.169L273.896 376.955L282.562 363.245L284.935 359.522L291.059 360.9C291.059 360.9 296.132 363.776 301.232 366.066C306.333 368.355 318.721 368.858 323.086 372.367C327.451 375.875 330.634 379.691 330.159 384.289Z" fill="#407BFF"/>
<path d="M330.159 384.289C329.88 387.081 328.903 389.697 326.111 391.344C326.915 388.599 326.751 385.661 325.645 383.023C323.784 378.844 317.725 375.159 309.758 374.544C301.79 373.93 295.694 370.207 292.502 368.541C290.007 367.248 284.749 364.418 282.562 363.245L284.935 359.522L291.059 360.9C291.059 360.9 296.132 363.776 301.232 366.066C306.332 368.355 318.721 368.858 323.086 372.367C327.451 375.875 330.634 379.691 330.159 384.289Z" fill="white"/>
<path d="M277.592 379.543C289.584 386.514 302.838 391.04 316.589 392.861C319.623 393.224 323.151 393.28 325.18 391C325.72 390.341 326.122 389.581 326.361 388.764C326.601 387.947 326.674 387.09 326.576 386.244C326.213 381.963 322.611 378.575 318.665 376.871C314.718 375.168 310.372 374.777 306.174 373.837C302 372.896 297.964 371.42 294.168 369.444C291.152 367.871 288.239 365.963 284.916 365.256C281.594 364.549 277.638 365.405 275.86 368.309" stroke="#263238" stroke-width="1.10311" stroke-linecap="round" stroke-linejoin="round"/>
<path d="M324.063 392.163C325.622 391.417 326.986 390.316 328.044 388.949C329.103 387.582 329.827 385.986 330.159 384.289C330.764 380.259 328.465 376.201 325.236 373.725C322.006 371.25 317.957 370.077 313.964 369.249C309.972 368.42 305.886 367.862 302.06 366.345C296.225 364.055 290.463 359.55 284.376 361.16" stroke="#263238" stroke-width="1.10311" stroke-linecap="round" stroke-linejoin="round"/>
<path d="M296.392 235.353L268.2 224.631L267.847 224.492C267.847 224.492 267.949 223.747 268.033 222.63C268.21 220.378 268.303 216.711 267.242 215.473C265.669 213.611 261.22 215.175 256.873 213.183C252.527 211.192 244.495 214.756 244.495 214.756C244.495 214.756 238.687 213.686 236.118 217.874C234.815 221.253 235.262 226.251 235.262 226.251L234.731 226.437C231.371 227.693 213.092 234.572 209.229 237.336C204.957 240.361 200.229 271.419 198.712 280.54C197.195 289.662 194.496 297.88 195.864 301.017C197.232 304.153 216.87 319.278 228.169 323.177C239.469 327.077 279.537 325.97 279.537 325.97C279.537 325.97 280.188 325.793 281.352 325.42C288.127 323.243 312.168 314.252 324.929 293.143C324.947 293.18 312.587 252.665 296.392 235.353ZM220.221 287.595C218.145 289.066 219.29 294.762 219.29 294.762L215.763 291.653L224.623 269.865L228.402 286.618C228.402 286.618 222.297 286.134 220.221 287.595ZM291.106 301.435C290.128 301.938 293.898 291.467 292.111 289.094C290.324 286.721 284.935 286.944 284.935 286.944L285.391 284.087L288.583 267.706L289.644 266.449C289.644 266.449 300.608 285.241 302.572 291.868C302.572 291.886 290.622 301.435 291.106 301.435Z" fill="#407BFF"/>
<path d="M243.164 167.4L228.607 182.851C228.607 182.851 226.606 184.628 227.397 189.105C228.188 193.582 230.05 197.482 231.455 197.742C232.568 197.937 233.695 198.037 234.824 198.04C234.824 198.04 237.942 204.797 240.157 207.45C240.157 207.45 240.921 217.883 240.511 220.778C240.511 220.778 245.742 225.348 250.665 225.925C255.589 226.502 263.193 218.963 263.193 218.963L265.054 209.73C265.054 209.73 269.522 202.954 269.82 201.149C270.118 199.343 272.165 199.809 273.17 198.915C274.176 198.022 276.493 194.047 276.893 190.287C277.294 186.527 277.303 182.208 272.938 183.474C269.15 182.46 271.523 174.455 271.523 174.455L264.868 168.592L243.164 167.4Z" fill="white"/>
<path opacity="0.5" d="M268.2 224.631C267.981 225.207 267.729 225.769 267.446 226.316C265.045 230.839 254.584 239.467 254.584 239.467L251.419 229.741L249.688 239.467C246.198 237.941 235.55 228.717 235.55 228.717C235.55 228.717 235.187 227.852 234.75 226.502L235.28 226.316C235.28 226.316 234.834 221.281 236.137 217.939C238.687 213.751 244.513 214.821 244.513 214.821C244.513 214.821 252.545 211.257 256.892 213.248C261.238 215.24 265.687 213.695 267.26 215.538C268.833 217.381 267.865 224.529 267.865 224.529L268.2 224.631Z" fill="white"/>
<path opacity="0.2" d="M296.392 235.353L268.2 224.631L267.847 224.492C267.847 224.492 267.949 223.747 268.033 222.63L267.446 226.288L263.277 231.947C267.734 233.588 272.086 235.503 276.307 237.68C278.328 238.763 279.976 240.428 281.039 242.459C282.101 244.491 282.528 246.795 282.264 249.072L277.07 293.515L274.939 318.747L281.37 325.42C288.146 323.242 312.187 314.252 324.947 293.143C324.947 293.18 312.587 252.665 296.392 235.353ZM291.106 301.435C290.128 301.938 293.898 291.467 292.111 289.094C290.324 286.72 284.935 286.944 284.935 286.944L285.391 284.086L288.583 267.706L289.644 266.449C289.644 266.449 300.608 285.241 302.572 291.867C302.572 291.886 290.622 301.435 291.106 301.435Z" fill="black"/>
<path opacity="0.2" d="M230.273 289.094L225.889 274.444C225.889 274.444 218.024 247.63 212.636 241.021L214.05 259.878C214.05 259.878 209.397 282.402 205.143 289.094C200.89 295.786 199.94 297.47 205.143 297.47C210.346 297.47 223.013 307.56 223.013 307.56L222.036 299.183L230.273 289.094ZM219.225 294.762L215.698 291.653L224.558 269.865L228.337 286.618C228.337 286.618 222.269 286.162 220.193 287.623C218.118 289.085 219.225 294.762 219.225 294.762Z" fill="black"/>
<path d="M240.157 207.45C240.157 207.45 240.958 215.352 240.157 218.963" stroke="#263238" stroke-width="1.10311" stroke-linecap="round" stroke-linejoin="round"/>
<path d="M264.003 217.902C264.011 215.361 264.305 212.829 264.878 210.354" stroke="#263238" stroke-width="1.10311" stroke-linecap="round" stroke-linejoin="round"/>
<path d="M266.115 173.292C266.115 173.292 270.899 179.295 270.648 183.837C270.397 188.379 270.043 193.759 270.164 199.027C270.285 204.295 261.704 215.333 257.292 216.31C252.88 217.288 249.083 217.539 246.263 214.719C243.443 211.899 240.623 207.98 236.956 202.954C233.288 197.929 234.163 186.899 234.163 186.899" stroke="#263238" stroke-width="1.10311" stroke-linecap="round" stroke-linejoin="round"/>
<path d="M254.593 191.097C254.302 192.746 254.177 194.421 254.221 196.095C254.125 197.506 254.563 198.902 255.449 200.004C255.98 200.544 256.743 200.981 256.845 201.726C256.843 202.061 256.75 202.389 256.576 202.676C256.402 202.963 256.155 203.197 255.859 203.355C255.262 203.656 254.687 203.998 254.137 204.378" stroke="#263238" stroke-width="1.10311" stroke-linecap="round" stroke-linejoin="round"/>
<path d="M247.026 204.956C247.026 204.956 247.575 208.52 252.35 209.265" stroke="#263238" stroke-width="1.10311" stroke-linecap="round" stroke-linejoin="round"/>
<path d="M247.519 193.815C247.519 194.848 247.073 195.676 246.523 195.676C245.974 195.676 245.528 194.848 245.528 193.815C245.528 192.781 245.974 191.953 246.523 191.953C247.073 191.953 247.519 192.791 247.519 193.815Z" fill="#263238"/>
<path d="M261.769 194.261C261.769 195.294 261.322 196.123 260.773 196.123C260.224 196.123 259.777 195.285 259.777 194.261C259.777 193.238 260.224 192.4 260.773 192.4C261.322 192.4 261.769 193.228 261.769 194.261Z" fill="#263238"/>
<path d="M258.893 189.747C258.893 189.747 263.547 185.094 267.447 190.287" stroke="#263238" stroke-width="2.20621" stroke-linecap="round" stroke-linejoin="round"/>
<path d="M249.092 189.84C249.092 189.84 246.151 186.546 241.516 189.84" stroke="#263238" stroke-width="2.20621" stroke-linecap="round" stroke-linejoin="round"/>
<path d="M240.511 211.843C240.511 211.843 243.35 219.661 249.688 221.886C256.026 224.11 264.44 212.578 264.44 212.578L264.003 211.08C264.003 211.08 258.483 218.246 252.35 217.027C246.216 215.808 240.157 207.487 240.157 207.487L240.511 211.843Z" fill="#263238"/>
<path d="M234.824 197.742C234.824 197.742 231.045 199.073 230.04 196.132C229.035 193.191 225.591 185.438 228.607 182.851C231.623 180.263 234.042 186.266 234.042 186.266" stroke="#263238" stroke-width="1.10311" stroke-linecap="round" stroke-linejoin="round"/>
<path d="M270.155 199.343C270.155 199.343 273.664 200.051 274.669 197.109C275.674 194.168 279.118 186.415 276.102 183.828C273.087 181.24 270.667 187.244 270.667 187.244" stroke="#263238" stroke-width="1.10311" stroke-linecap="round" stroke-linejoin="round"/>
<path d="M234.042 193.815C235.355 193.608 236.54 192.909 237.356 191.86C237.854 190.94 238.17 189.931 238.287 188.891C238.632 186.912 238.806 184.906 238.808 182.897C238.767 182.112 238.839 181.325 239.022 180.561C239.301 179.792 239.732 179.086 240.288 178.485C241.6 176.94 243.191 175.637 244.448 174.037C245.122 173.281 245.634 172.396 245.954 171.436C246.274 170.476 246.395 169.461 246.309 168.452C249.189 170.826 252.553 172.541 256.167 173.475C259.78 174.409 263.554 174.541 267.223 173.86C273.878 172.557 280.253 166.721 279.481 159.387C279.335 158.157 278.808 157.004 277.973 156.089C277.138 155.175 276.038 154.544 274.827 154.286C271.542 153.467 268.591 155.217 265.613 156.343C260.187 158.391 254.872 154.873 249.39 154.286C244.737 153.775 238.938 154.361 236.5 159.024C236.5 159.024 228.123 160.01 224.4 166.935C220.677 173.86 227.723 183.437 227.723 183.437C227.723 183.437 230.515 180.012 234.173 186.937L234.042 193.815Z" fill="#263238"/>
<path d="M266.693 171.524C266.693 171.524 264.515 182.879 270.202 188.379C270.202 188.379 271.449 184.963 272.705 184.126C273.611 182.111 273.995 179.9 273.821 177.697C273.647 175.495 272.921 173.371 271.709 171.524C267.502 164.915 266.693 171.524 266.693 171.524Z" fill="#263238"/>
<path opacity="0.2" d="M277.061 158.605C276.562 160.154 275.715 161.569 274.586 162.742C273.457 163.914 272.075 164.814 270.546 165.371C262.653 168.592 254.993 165.027 247.082 164.329C240.632 163.752 233.512 169.578 233.056 176.205" stroke="white" stroke-width="1.10311" stroke-linecap="round" stroke-linejoin="round"/>
<path opacity="0.2" d="M228.188 174.455C228.285 171.84 229.124 169.307 230.607 167.151C232.09 164.995 234.157 163.306 236.565 162.281" stroke="white" stroke-width="1.10311" stroke-linecap="round" stroke-linejoin="round"/>
<path d="M238.333 217.902C241.804 221.519 245.992 224.372 250.628 226.279C250.628 226.279 260.075 223.533 264.878 216.971" stroke="#263238" stroke-width="1.10311" stroke-linecap="round" stroke-linejoin="round"/>
<path d="M247.987 201.393C252.183 199.469 254.024 194.507 252.1 190.312C250.175 186.116 245.214 184.275 241.018 186.199C236.823 188.124 234.981 193.085 236.906 197.281C238.83 201.476 243.792 203.318 247.987 201.393Z" stroke="#263238" stroke-width="1.10311" stroke-linecap="round" stroke-linejoin="round"/>
<path d="M264.183 202.129C268.765 201.566 272.023 197.396 271.46 192.815C270.898 188.233 266.728 184.975 262.146 185.538C257.564 186.1 254.306 190.27 254.869 194.852C255.431 199.433 259.602 202.691 264.183 202.129Z" stroke="#263238" stroke-width="1.10311" stroke-linecap="round" stroke-linejoin="round"/>
<path d="M240.157 214.784C239.31 215.006 238.517 215.397 237.825 215.933C237.132 216.468 236.555 217.138 236.127 217.902C234.647 220.508 235.541 228.708 235.541 228.708C235.541 228.708 243.182 236.265 249.688 239.458L251.605 228.67L254.584 239.458C254.584 239.458 264.654 232.338 267.446 226.316C267.446 226.316 268.377 219.289 267.446 217.008C267.235 216.375 266.832 215.823 266.294 215.428C265.755 215.033 265.108 214.814 264.44 214.803" stroke="#263238" stroke-width="1.10311" stroke-linecap="round" stroke-linejoin="round"/>
<path d="M228.188 286.953C228.188 286.953 225.201 266.942 221.226 258.78" stroke="#263238" stroke-width="1.10311" stroke-linecap="round" stroke-linejoin="round"/>
<path d="M212.635 241.021C214.949 244.31 217.015 247.766 218.816 251.362" stroke="#263238" stroke-width="1.10311" stroke-linecap="round" stroke-linejoin="round"/>
<path d="M291.106 255.96C291.908 252.614 293.008 249.346 294.391 246.196" stroke="#263238" stroke-width="1.10311" stroke-linecap="round" stroke-linejoin="round"/>
<path d="M284.935 286.953C284.935 286.953 287.085 273.234 289.654 261.935" stroke="#263238" stroke-width="1.10311" stroke-linecap="round" stroke-linejoin="round"/>
<path d="M288.583 267.687C290.662 264.931 293.584 262.931 296.904 261.991" stroke="#263238" stroke-width="1.10311" stroke-linecap="round" stroke-linejoin="round"/>
<path d="M267.856 224.492C267.856 224.492 285.196 231.426 296.392 235.363C296.392 235.363 310.167 248.309 324.938 293.18C324.938 293.18 311.405 315.946 285.661 323.243" stroke="#263238" stroke-width="1.10311" stroke-linecap="round" stroke-linejoin="round"/>
<path d="M290.128 302.245L302.572 291.886C302.572 291.886 309.153 286.888 315.994 290.304" stroke="#263238" stroke-width="1.10311" stroke-linecap="round" stroke-linejoin="round"/>
<path d="M289.654 266.449C289.654 266.449 299.938 281.648 302.572 291.886" stroke="#263238" stroke-width="1.10311" stroke-linecap="round" stroke-linejoin="round"/>
<path d="M219.365 295.339L215.726 291.886C215.726 291.886 210.327 290.955 204.203 295.041" stroke="#263238" stroke-width="1.10311" stroke-linecap="round" stroke-linejoin="round"/>
<path d="M215.726 291.886C215.726 291.886 220.249 276.994 224.707 269.372" stroke="#263238" stroke-width="1.10311" stroke-linecap="round" stroke-linejoin="round"/>
<path d="M235.28 226.316C235.28 226.316 210.327 235.679 207.88 238.415C205.432 241.152 196.134 293.506 195.882 299.5C195.668 304.861 215.102 316.895 224.735 321.967" stroke="#263238" stroke-width="1.10311" stroke-linecap="round" stroke-linejoin="round"/>
<path d="M253.942 244.009C253.942 244.335 253.845 244.654 253.664 244.924C253.483 245.195 253.226 245.407 252.925 245.531C252.624 245.656 252.292 245.689 251.973 245.625C251.653 245.561 251.36 245.405 251.129 245.174C250.899 244.944 250.742 244.65 250.678 244.331C250.615 244.011 250.647 243.68 250.772 243.379C250.897 243.078 251.108 242.82 251.379 242.639C251.65 242.458 251.968 242.362 252.294 242.362C252.511 242.361 252.726 242.402 252.926 242.485C253.126 242.567 253.309 242.688 253.462 242.842C253.615 242.995 253.736 243.177 253.819 243.377C253.901 243.578 253.943 243.793 253.942 244.009Z" fill="#263238"/>
<path d="M282.813 331.703H226.038C225.685 331.703 225.347 331.563 225.097 331.313C224.847 331.063 224.707 330.725 224.707 330.372C224.707 330.019 224.847 329.68 225.097 329.431C225.347 329.181 225.685 329.041 226.038 329.041H282.813C283.166 329.041 283.505 329.181 283.754 329.431C284.004 329.68 284.144 330.019 284.144 330.372C284.144 330.725 284.004 331.063 283.754 331.313C283.505 331.563 283.166 331.703 282.813 331.703Z" fill="#263238"/>
<path d="M284.805 327.254L292.409 291.514C292.527 290.96 292.519 290.386 292.387 289.835C292.254 289.284 292 288.77 291.644 288.33C291.287 287.89 290.836 287.536 290.324 287.293C289.812 287.049 289.252 286.924 288.686 286.925H222.324C221.763 286.925 221.208 287.05 220.7 287.291C220.193 287.531 219.744 287.881 219.388 288.315C219.032 288.75 218.777 289.258 218.641 289.803C218.505 290.348 218.491 290.916 218.602 291.467L225.424 326.016C225.591 326.865 226.043 327.631 226.705 328.187C227.366 328.744 228.198 329.059 229.063 329.078L280.989 330.27C281.876 330.289 282.743 329.999 283.439 329.448C284.136 328.898 284.619 328.122 284.805 327.254Z" fill="white" stroke="#263238" stroke-width="1.10311" stroke-linecap="round" stroke-linejoin="round"/>
<path d="M260.587 307.55C260.585 308.597 260.273 309.62 259.69 310.49C259.107 311.36 258.279 312.037 257.311 312.436C256.343 312.836 255.279 312.939 254.252 312.734C253.225 312.529 252.283 312.023 251.543 311.282C250.803 310.541 250.3 309.598 250.096 308.571C249.893 307.544 249.998 306.479 250.399 305.512C250.8 304.545 251.479 303.719 252.35 303.137C253.22 302.555 254.244 302.245 255.291 302.245C255.987 302.245 256.677 302.382 257.32 302.649C257.963 302.916 258.547 303.307 259.039 303.8C259.531 304.292 259.921 304.877 260.186 305.521C260.452 306.164 260.588 306.854 260.587 307.55Z" fill="#263238"/>
<path d="M271.002 290.341H278.885" stroke="#263238" stroke-width="1.10311" stroke-linecap="round" stroke-linejoin="round"/>
<path d="M233.354 290.341H263.277" stroke="#263238" stroke-width="1.10311" stroke-linecap="round" stroke-linejoin="round"/>
<path d="M284.935 365.2L278.885 381.078C278.885 381.078 263.454 377.188 243.694 373.139C223.023 368.904 201.439 363.422 190.242 343.774C188.883 341.382 187.971 338.553 188.613 335.872C190.224 329.087 199.056 327.245 204.873 326.565C208.53 326.17 212.205 325.964 215.884 325.951C217.745 325.951 223.935 324.936 225.433 326.044C227.685 327.686 230.088 329.111 232.609 330.297C235.913 331.703 284.144 329.041 284.144 329.041C284.983 327.211 285.496 325.249 285.661 323.242C293.246 319.389 310.791 316.132 318.237 317.574C329.899 319.836 336.702 326.64 335.409 333.769C334.115 340.898 308.352 360.016 284.935 365.2Z" fill="#263238"/>
<path d="M284.935 365.2C284.935 365.2 270.257 361.31 258.269 353.212C246.282 345.115 236.918 335.714 220.212 337.66" stroke="white" stroke-width="1.10311" stroke-linecap="round" stroke-linejoin="round"/>
<path d="M255.524 351.304C263.1 349.126 268.656 344.221 274.734 339.521C281.145 334.376 288.029 329.851 295.294 326.007" stroke="white" stroke-width="1.10311" stroke-linecap="round" stroke-linejoin="round"/>
<path d="M252.853 195.136H255.077" stroke="#263238" stroke-width="1.10311" stroke-linecap="round" stroke-linejoin="round"/>
</svg>
