<svg width="471" height="402" viewBox="0 0 471 402" fill="none" xmlns="http://www.w3.org/2000/svg">
<g clip-path="url(#clip0_4256_26945)">
<path d="M7.40518 126.388C6.84913 126.386 6.2982 126.494 5.78398 126.706C5.26976 126.918 4.80233 127.229 4.40853 127.622C4.01473 128.015 3.70228 128.482 3.48909 128.996C3.2759 129.51 3.16615 130.061 3.16616 130.617V133.694C3.16768 134.25 3.05856 134.8 2.84514 135.312C2.63173 135.825 2.31833 136.29 1.92326 136.68L0.614929 137.989L1.49149 138.867C1.89723 139.252 2.22196 139.715 2.44663 140.227C2.6713 140.74 2.79138 141.293 2.79982 141.852V144.471C2.79982 145.027 2.90914 145.577 3.12152 146.09C3.33389 146.603 3.64515 147.069 4.03757 147.462C4.42998 147.855 4.89587 148.166 5.40858 148.379C5.9213 148.591 6.4708 148.701 7.02575 148.701H7.71917" stroke="#FF6C37" stroke-linecap="round" stroke-linejoin="round"/>
<path d="M37.2352 126.388C37.7906 126.386 38.3409 126.494 38.8544 126.706C39.3679 126.918 39.8345 127.23 40.2272 127.623C40.62 128.016 40.9312 128.483 41.1429 128.997C41.3547 129.511 41.4629 130.061 41.4611 130.617V133.694C41.4639 134.815 41.9109 135.889 42.704 136.68L44.0124 137.989L43.1358 138.867C42.3487 139.661 41.9066 140.734 41.906 141.852V144.471C41.9025 145.594 41.4543 146.67 40.6597 147.463C39.8652 148.255 38.789 148.701 37.667 148.701H36.9735" stroke="#FF6C37" stroke-linecap="round" stroke-linejoin="round"/>
<path d="M13.7637 149.002L11.9713 153.637" stroke="#FF6C37" stroke-linecap="round" stroke-linejoin="round"/>
<path d="M100.074 149.002L98.282 153.637" stroke="#FF6C37" stroke-linecap="round" stroke-linejoin="round"/>
<path d="M118.993 149.002C118.404 150.547 117.802 152.092 117.201 153.637" stroke="#FF6C37" stroke-linecap="round" stroke-linejoin="round"/>
<path d="M122.224 149.002C121.636 150.547 121.034 152.092 120.432 153.637" stroke="#FF6C37" stroke-linecap="round" stroke-linejoin="round"/>
<path d="M31.8056 130.997H19.3502V143.463H31.8056V130.997Z" fill="black"/>
<path d="M57.8938 124.424C55.7447 128.683 54.612 133.383 54.5847 138.155C54.5575 142.926 55.6365 147.639 57.7368 151.922" stroke="#FF6C37" stroke-linecap="round" stroke-linejoin="round"/>
<path d="M125.665 124.424C127.812 128.684 128.943 133.385 128.968 138.156C128.993 142.928 127.912 147.64 125.809 151.922" stroke="#FF6C37" stroke-linecap="round" stroke-linejoin="round"/>
<path d="M97.2354 134.231H80.4233V142.206H97.2354V134.231Z" fill="black"/>
<path d="M115.866 142.206H104.274V134.231L115.866 142.206Z" fill="black"/>
<path d="M114.885 134.703H125.037" stroke="black" stroke-linecap="round" stroke-linejoin="round"/>
<path d="M119.346 138.356H125.037" stroke="black" stroke-linecap="round" stroke-linejoin="round"/>
<path d="M72.8611 128.09V151.372" stroke="#FF6C37" stroke-linecap="round" stroke-linejoin="round"/>
<path d="M426.517 288.157H356.521V293.735H426.517V288.157Z" fill="#1C1C1B"/>
<path d="M259.05 281.374C264.87 277.098 269.027 270.932 270.809 263.93C272.592 256.927 271.89 249.523 268.823 242.981C266.141 237.272 261.798 232.401 259.586 226.482C256.146 217.316 258.357 206.997 260.607 197.425" stroke="black" stroke-width="6" stroke-linecap="round" stroke-linejoin="round"/>
<path d="M301.322 278.375H224.968C223.335 278.375 222.011 279.7 222.011 281.334V281.924C222.011 283.558 223.335 284.883 224.968 284.883H301.322C302.955 284.883 304.279 283.558 304.279 281.924V281.334C304.279 279.7 302.955 278.375 301.322 278.375Z" fill="black"/>
<path d="M391.532 91.1636H139.612C136.715 91.1636 134.366 93.5145 134.366 96.4144V243.596C134.366 246.496 136.715 248.847 139.612 248.847H391.532C394.429 248.847 396.778 246.496 396.778 243.596V96.4144C396.778 93.5145 394.429 91.1636 391.532 91.1636Z" fill="#ABC8F4"/>
<path d="M395.418 103.564H135.661V236.879H395.418V103.564Z" fill="#407BFF"/>
<path d="M188.217 116.567H159.486V120.783H188.217V116.567Z" fill="#ABC8F4"/>
<path d="M241.78 116.567H193.542V120.783H241.78V116.567Z" fill="#ABC8F4"/>
<path d="M303.86 116.567H247.458V120.783H303.86V116.567Z" fill="#ABC8F4"/>
<path d="M331.532 116.567H309.892V120.783H331.532V116.567Z" fill="#ABC8F4"/>
<path d="M244.619 126.951H237.881V131.167H244.619V126.951Z" fill="#ABC8F4"/>
<path d="M260.581 126.951H257.388V131.167H260.581V126.951Z" fill="#ABC8F4"/>
<path d="M315.204 126.951H263.42V131.167H315.204V126.951Z" fill="#ABC8F4"/>
<path d="M336.791 126.951H321.588V131.167H336.791V126.951Z" fill="#ABC8F4"/>
<path d="M253.49 126.951H247.458V131.167H253.49V126.951Z" fill="#ABC8F4"/>
<path d="M235.762 126.951H208.09V131.167H235.762V126.951Z" fill="#ABC8F4"/>
<path d="M204.885 126.951H168.71V131.167H204.885V126.951Z" fill="#ABC8F4"/>
<path d="M165.517 126.951H159.486V131.167H165.517V126.951Z" fill="#ABC8F4"/>
<path d="M164.811 137.348H159.486V141.564H164.811V137.348Z" fill="#ABC8F4"/>
<path d="M221.566 137.348H169.429V141.564H221.566V137.348Z" fill="#ABC8F4"/>
<path d="M309.539 137.348H227.244V141.564H309.539V137.348Z" fill="#ABC8F4"/>
<path d="M336.791 137.348H312.365V141.564H336.791V137.348Z" fill="#ABC8F4"/>
<path d="M330.812 147.732H267.672V151.948H330.812V147.732Z" fill="#ABC8F4"/>
<path d="M169.416 147.732H159.486V151.948H169.416V147.732Z" fill="#ABC8F4"/>
<path d="M223.346 147.732H173.681V151.948H223.346V147.732Z" fill="#ABC8F4"/>
<path d="M258.801 147.732H226.525V151.948H258.801V147.732Z" fill="#ABC8F4"/>
<path d="M203.119 158.129H193.542V162.345H203.119V158.129Z" fill="#ABC8F4"/>
<path d="M189.277 158.129H159.486V162.345H189.277V158.129Z" fill="#ABC8F4"/>
<path d="M215.535 158.129H206.664V162.345H215.535V158.129Z" fill="#ABC8F4"/>
<path d="M259.168 158.129H219.08V162.345H259.168V158.129Z" fill="#ABC8F4"/>
<path d="M282.927 158.129H264.833V162.345H282.927V158.129Z" fill="#ABC8F4"/>
<path d="M309.185 158.129H290.738V162.345H309.185V158.129Z" fill="#ABC8F4"/>
<path d="M330.812 158.129H318.396V162.345H330.812V158.129Z" fill="#ABC8F4"/>
<path d="M297.227 168.513H277.013V172.729H297.227V168.513Z" fill="#ABC8F4"/>
<path d="M170.123 168.513H159.486V172.729H170.123V168.513Z" fill="#ABC8F4"/>
<path d="M228.304 168.513H177.58V172.729H228.304V168.513Z" fill="#ABC8F4"/>
<path d="M246.385 168.513H236.102V172.729H246.385V168.513Z" fill="#ABC8F4"/>
<path d="M267.672 168.513H251.357V172.729H267.672V168.513Z" fill="#ABC8F4"/>
<path d="M331.885 168.513H307.053V172.729H331.885V168.513Z" fill="#ABC8F4"/>
<path d="M188.217 177.862H159.486V182.079H188.217V177.862Z" fill="#ABC8F4"/>
<path d="M241.78 177.862H193.542V182.079H241.78V177.862Z" fill="#ABC8F4"/>
<path d="M303.86 177.862H247.458V182.079H303.86V177.862Z" fill="#ABC8F4"/>
<path d="M331.532 177.862H309.892V182.079H331.532V177.862Z" fill="#ABC8F4"/>
<path d="M244.619 188.259H237.881V192.476H244.619V188.259Z" fill="#ABC8F4"/>
<path d="M260.581 188.259H257.388V192.476H260.581V188.259Z" fill="#ABC8F4"/>
<path d="M315.204 188.259H263.42V192.476H315.204V188.259Z" fill="#ABC8F4"/>
<path d="M336.791 188.259H321.588V192.476H336.791V188.259Z" fill="#ABC8F4"/>
<path d="M253.49 188.259H247.458V192.476H253.49V188.259Z" fill="#ABC8F4"/>
<path d="M235.762 188.259H208.09V192.476H235.762V188.259Z" fill="#ABC8F4"/>
<path d="M204.885 188.259H168.71V192.476H204.885V188.259Z" fill="#ABC8F4"/>
<path d="M165.517 188.259H159.486V192.476H165.517V188.259Z" fill="#ABC8F4"/>
<path d="M164.811 198.643H159.486V202.859H164.811V198.643Z" fill="#ABC8F4"/>
<path d="M221.566 198.643H169.429V202.859H221.566V198.643Z" fill="#ABC8F4"/>
<path d="M309.539 198.643H227.244V202.859H309.539V198.643Z" fill="#ABC8F4"/>
<path d="M336.791 198.643H312.365V202.859H336.791V198.643Z" fill="#ABC8F4"/>
<path d="M330.812 209.04H267.672V213.256H330.812V209.04Z" fill="#ABC8F4"/>
<path d="M169.416 209.04H159.486V213.256H169.416V209.04Z" fill="#ABC8F4"/>
<path d="M223.346 209.04H173.681V213.256H223.346V209.04Z" fill="#ABC8F4"/>
<path d="M258.801 209.04H226.525V213.256H258.801V209.04Z" fill="#ABC8F4"/>
<path d="M203.119 219.424H193.542V223.64H203.119V219.424Z" fill="#ABC8F4"/>
<path d="M189.277 219.424H159.486V223.64H189.277V219.424Z" fill="#ABC8F4"/>
<path d="M215.535 219.424H206.664V223.64H215.535V219.424Z" fill="#ABC8F4"/>
<path d="M259.168 219.424H219.08V223.64H259.168V219.424Z" fill="#ABC8F4"/>
<path d="M282.927 219.424H264.833V223.64H282.927V219.424Z" fill="#ABC8F4"/>
<path d="M309.185 219.424H290.738V223.64H309.185V219.424Z" fill="#ABC8F4"/>
<path d="M330.812 219.424H318.396V223.64H330.812V219.424Z" fill="#ABC8F4"/>
<path d="M297.227 229.808H277.013V234.024H297.227V229.808Z" fill="#ABC8F4"/>
<path d="M170.123 229.808H159.486V234.024H170.123V229.808Z" fill="#ABC8F4"/>
<path d="M228.304 229.808H177.58V234.024H228.304V229.808Z" fill="#ABC8F4"/>
<path d="M246.385 229.808H236.102V234.024H246.385V229.808Z" fill="#ABC8F4"/>
<path d="M267.672 229.808H251.357V234.024H267.672V229.808Z" fill="#ABC8F4"/>
<path d="M331.885 229.808H307.053V234.024H331.885V229.808Z" fill="#ABC8F4"/>
<path d="M70.5846 236.839C64.6551 231.812 59.7469 225.691 56.1275 218.808C53.5764 213.676 52.0099 208.111 51.5091 202.401C51.4306 201.445 51.9147 197.726 51.3914 197.163C55.1724 201.746 60.759 203.972 64.7887 208.123C68.9727 212.523 72.4505 217.546 75.0984 223.012C76.5995 226.104 77.6397 229.399 78.186 232.793C78.4215 234.378 79.4944 240.178 77.9767 241.357C77.5057 241.71 76.145 240.912 75.7394 240.702C73.8617 239.643 72.129 238.344 70.5846 236.839Z" fill="#407BFF"/>
<path d="M85.2903 276.974C84.3602 252.85 75.6377 229.679 60.4319 210.938" stroke="black" stroke-width="0.5" stroke-linecap="round" stroke-linejoin="round"/>
<path d="M76.2889 244.107C73.3461 241.504 69.7089 239.816 65.8223 239.249C61.9753 238.674 58.0643 238.674 54.2174 239.249C49.6253 239.829 45.0966 240.833 40.6892 242.248C43.1482 246.155 46.8766 249.096 51.2474 250.576C54.7953 251.886 58.5474 252.555 62.329 252.553C67.8763 252.553 73.3844 251.244 78.9318 251.388C79.8275 251.255 80.7395 251.481 81.4699 252.016C80.4638 248.972 78.6774 246.245 76.2889 244.107Z" fill="#407BFF"/>
<path d="M81.2606 251.702C77.9694 248.314 73.6025 246.18 68.9099 245.665C64.1202 245.197 59.2934 245.262 54.5182 245.861" stroke="black" stroke-width="0.5" stroke-linecap="round" stroke-linejoin="round"/>
<path d="M104.143 240.244C102.325 243.112 99.6819 245.482 97.7587 248.245C96.6515 250.123 95.6639 252.069 94.8018 254.072C93.5576 256.602 91.9437 258.932 90.0133 260.986C89.8928 261.151 89.7354 261.286 89.5537 261.379C89.3719 261.472 89.1709 261.521 88.9667 261.523C88.8059 261.484 88.6552 261.411 88.5245 261.309C88.3937 261.208 88.2858 261.08 88.2078 260.934C86.6247 258.616 86.8079 255.866 86.9911 253.195C87.2049 250.045 87.6024 246.91 88.1817 243.806C88.6097 240.967 89.5166 238.222 90.8637 235.688C92.1909 233.525 93.777 231.533 95.5868 229.756C98.2509 226.944 100.395 223.68 101.919 220.118C103.384 222.759 104.581 225.54 105.491 228.42C106.394 231.328 106.394 234.442 105.491 237.35C105.155 238.364 104.703 239.335 104.143 240.244Z" fill="#407BFF"/>
<path d="M87.449 273.36C86.6771 267.311 88.6919 261.392 89.3592 255.447C90.0583 249.117 92.111 243.012 95.3775 237.547" stroke="black" stroke-width="0.5" stroke-linecap="round" stroke-linejoin="round"/>
<path d="M58.7441 268.816C60.2618 278.271 66.1755 288.026 74.1825 292.923C74.7504 293.267 75.4031 293.444 76.0665 293.434H93.9645C94.628 293.445 95.2811 293.268 95.8485 292.923C103.869 288.026 109.782 278.271 111.3 268.816H58.7441Z" fill="#1C1C1B"/>
<path d="M433.66 293.761H42.8741V303.399H433.66V293.761Z" fill="#ABC8F4"/>
<path d="M433.66 321.901H42.8741V331.539H433.66V321.901Z" fill="#ABC8F4"/>
<path d="M70.9771 296.996H65.2466V401.385H70.9771V296.996Z" fill="#ABC8F4"/>
<path d="M410.725 296.996H404.995V401.385H410.725V296.996Z" fill="#ABC8F4"/>
<path d="M276.869 156.453C279.643 154.384 282.757 153.101 285.413 150.861C287.877 148.618 290.201 146.226 292.373 143.699C295.474 140.36 303.913 131.783 307.851 137.78C311.619 143.248 313.785 149.661 314.105 156.296C314.344 160.228 314.213 164.173 313.712 168.081C313.272 171.38 312.244 174.573 310.677 177.509C309.22 180.055 307.385 182.364 305.234 184.357C303.416 186.099 301.021 188.718 298.588 189.516C292.863 191.207 286.755 191.074 281.108 189.137C279.086 188.508 277.185 187.543 275.483 186.282C270.76 182.589 269.046 176.081 269.307 170.084C269.337 167.673 269.858 165.294 270.838 163.092C272.288 160.427 274.357 158.151 276.869 156.453Z" fill="#1C1C1B"/>
<path d="M105.844 172.179C105.609 171.485 105.373 170.791 105.085 170.097C103.643 166.754 101.395 163.82 98.5437 161.559C96.6204 160.014 94.4616 158.809 92.4991 157.317C90.118 155.497 87.5275 154.004 85.1333 152.17L76.8646 145.78C76.5974 145.5 76.2659 145.289 75.8988 145.166C75.5318 145.043 75.1402 145.011 74.7581 145.073C74.4722 145.229 74.2286 145.453 74.0485 145.724C73.8684 145.996 73.7572 146.307 73.7246 146.632C73.2405 149.133 74.8236 151.293 76.5898 152.904C78.8794 154.986 81.6008 156.898 83.2885 159.53C86.6902 164.767 79.5728 163.458 77.087 160.669C75.9269 159.241 75.0036 157.636 74.3526 155.916C73.3487 153.106 72.5528 150.226 71.9714 147.299C71.6705 146.199 70.6631 140.595 68.3997 143.031C68.0321 143.501 67.8134 144.071 67.7717 144.667C67.5167 146.36 67.5167 148.081 67.7717 149.774C67.2091 149.368 66.4633 149.997 66.1624 150.612C65.4167 152.092 65.783 153.532 64.9456 154.868C64.0114 156.277 63.5867 157.964 63.742 159.647C63.9666 161.103 64.4449 162.508 65.155 163.798C67.1829 167.858 70.2052 173.593 74.1694 175.976C78.1337 178.359 83.3277 180.258 86.6247 183.833C87.5562 185.021 88.2413 186.383 88.6396 187.84C95.1813 207.128 98.3997 227.582 103.463 247.289C106.145 257.764 109.036 268.24 113.354 278.1C115.055 282.028 119.647 290.252 123.258 292.648C127.105 295.267 127.955 292.046 132.678 291.05C136.682 290.212 139.9 287.266 142.726 284.294C147.07 279.737 152.408 273.438 152.617 266.773C152.787 261.457 150.759 254.752 148.417 250.052C147.829 248.86 147.187 247.682 146.533 246.516C139.992 234.954 130.585 224.923 124.802 213.047C123.494 210.297 122.185 207.534 120.877 204.758C117.174 196.823 113.576 188.848 109.835 180.926C108.893 178.949 107.951 176.998 106.996 175.007C106.549 174.091 106.164 173.147 105.844 172.179Z" fill="white" stroke="#1C1C1B" stroke-width="0.5" stroke-linecap="round" stroke-linejoin="round"/>
<path d="M67.824 149.408L69.2762 154.645C70.2967 158.286 71.4612 162.175 74.418 164.532" stroke="#1C1C1B" stroke-width="0.5" stroke-linecap="round" stroke-linejoin="round"/>
<path d="M65.2858 154.737C66.2659 159.458 68.2272 163.919 71.0425 167.832C71.2765 168.184 71.5634 168.497 71.8929 168.761" stroke="#1C1C1B" stroke-width="0.5" stroke-linecap="round" stroke-linejoin="round"/>
<path d="M105.7 171.315C105.625 172.701 105.423 174.077 105.098 175.427Z" fill="white"/>
<path d="M105.7 171.315C105.625 172.701 105.423 174.077 105.098 175.427" stroke="#1C1C1B" stroke-width="0.5" stroke-linecap="round" stroke-linejoin="round"/>
<path d="M279.054 145.061C279.054 143.123 279.054 141.132 278.95 139.286L242.944 139.116C243.128 150.259 242.565 160.604 241.885 170.254C241.558 174.929 241.27 178.216 239.517 182.144C246.935 185.234 252.194 189.137 260.241 190.001C267.515 190.747 276.883 190.904 283.333 187.474C278.034 173.462 279.368 159.124 279.054 145.061Z" fill="#FF6C37"/>
<path d="M326.678 360.137C328.54 359.822 330.361 359.3 332.107 358.579C335.068 357.27 337.652 355.237 339.623 352.668C341.593 350.098 342.887 347.074 343.385 343.874C344.694 334.707 339.264 325.973 337.55 316.833C336.726 312.486 336.713 307.864 334.672 303.935C333.743 302.141 332.421 300.57 331.479 298.789C328.104 292.438 330.786 286.323 330.55 279.724C330.341 273.517 329.726 267.31 329.765 261.012C329.675 256.799 329.933 252.585 330.537 248.415C331.283 244.094 332.762 239.917 333.573 235.609C337.589 214.291 325.723 187.84 306.098 177.993C289.168 169.547 269.791 167.242 250.886 167.648C234.584 168.002 198.631 176.631 188.74 189.608C175.775 206.63 182.683 231.274 196.001 245.914C193.607 259.506 191.357 273.124 189.892 286.86C188.583 298.802 190.166 311.596 185.81 322.909C184.868 324.989 184.145 327.162 183.651 329.391C183.383 331.495 183.436 333.628 183.808 335.716C185.417 346.885 190.52 358.369 200.397 363.816C207.567 367.745 216.097 367.994 224.34 367.915C256.682 367.601 288.906 364.235 321.078 360.857C322.91 360.674 324.807 360.477 326.678 360.137Z" fill="#FF6C37"/>
<path d="M233.642 169.325C216.95 171.955 201.196 178.776 187.85 189.15C179.132 196.161 171.165 204.06 164.078 212.72C157.17 220.891 150.995 232.06 142.752 238.804C138.573 232.588 134.861 226.071 131.645 219.306C130.907 217.535 129.944 215.867 128.779 214.343C127.818 213.38 126.914 212.361 126.071 211.292C124.893 209.551 124.619 207.364 123.912 205.387C123.206 203.41 121.753 201.38 119.66 201.21C112.883 207.639 102.272 208.215 94.8018 213.885C94.3907 214.156 94.0642 214.537 93.8598 214.985C93.7449 215.414 93.7449 215.866 93.8598 216.295C95.1682 223.68 96.3195 231.131 97.6932 238.477C99.067 245.823 99.4988 253.771 101.801 260.737C103.96 270.715 107.571 280.785 114.78 288.013C117.828 291.064 123.271 293.591 127.314 295.202C132.547 297.31 138.539 297.65 144.139 297.52C155.791 297.299 167.04 293.219 176.128 285.918C179.743 282.808 183.14 279.452 186.294 275.874C192.168 269.51 198.069 263.827 201.994 256.141C204.61 250.903 207.502 245.862 210.328 240.781C212.068 237.665 221.946 215.993 226.603 216.962C229.002 217.451 231.457 217.857 233.969 218.18C233.969 211.934 234.375 205.701 234.663 199.468C234.82 196.129 234.977 192.777 235.003 189.438C235.003 187.172 233.838 183.912 234.388 181.83C235.713 176.848 238.187 172.247 241.61 168.395C238.967 168.578 236.285 168.906 233.642 169.325Z" fill="#FF6C37"/>
<path d="M274.41 170.071C281.998 171.105 282.417 171.38 289.979 172.192C315.871 175.217 340.127 202.637 355.396 221.48C367.393 236.276 390.158 262.95 384.179 283.77C380.411 296.773 364.044 300.06 352.347 297.977C335.548 294.992 323.773 281.596 314 268.633C310.546 264.05 283.254 216.635 281.828 216.936C279.447 217.42 276.974 217.826 274.462 218.154L274.41 170.071Z" fill="#FF6C37"/>
<path d="M267.58 106.681C264.493 100.133 259.521 95.9564 252.94 92.997C248.881 91.0062 244.259 90.4789 239.857 91.5043C237.83 92.1594 235.881 93.0377 234.048 94.1231C232.507 94.8821 231.055 95.8086 229.717 96.8861C226.486 99.7538 224.314 104.861 223.385 108.985C222.617 112.477 222.015 115.969 221.579 119.461C220.603 122.236 219.136 124.813 217.249 127.069C217.075 127.254 216.948 127.478 216.88 127.723C216.811 127.967 216.803 128.225 216.856 128.473C216.908 128.721 217.02 128.953 217.182 129.149C217.344 129.345 217.551 129.498 217.785 129.596C218.751 129.99 219.762 130.263 220.794 130.408C220.794 132.608 220.794 134.821 220.794 137.034C221.004 142.494 221.998 148.622 226.446 151.791C234.179 157.33 251.305 152.511 258.003 147.103C264.027 141.996 268.107 134.967 269.556 127.2C271.116 120.325 270.423 113.131 267.58 106.681Z" fill="white" stroke="#1C1C1B" stroke-width="0.5" stroke-linecap="round" stroke-linejoin="round"/>
<path d="M220.755 134.441C221.229 134.756 221.764 134.969 222.325 135.066C222.886 135.163 223.461 135.142 224.013 135.004" fill="white"/>
<path d="M220.755 134.441C221.229 134.756 221.764 134.969 222.325 135.066C222.886 135.163 223.461 135.142 224.013 135.004" stroke="#1C1C1B" stroke-width="0.5" stroke-linecap="round" stroke-linejoin="round"/>
<path d="M227.82 116.554C227.506 115.948 227.243 115.317 227.035 114.668C226.433 112.678 227.506 111.512 225.609 109.784C224.469 109.105 223.206 108.66 221.893 108.474C221.737 108.455 221.586 108.402 221.451 108.32C221.316 108.239 221.2 108.129 221.11 108C221.02 107.87 220.958 107.723 220.928 107.568C220.899 107.413 220.902 107.253 220.938 107.099C222.783 99.3736 229.233 93.1276 236.638 89.9456C244.619 86.4887 253.568 86.0828 262.255 86.2923C268.797 86.4494 275.757 87.1565 280.454 91.6217C285.805 96.6893 286.525 104.572 289.207 111.067C292.033 117.928 297.79 123.192 302.369 128.875C306.948 134.558 310.716 141.093 311.815 148.281C312.613 153.519 311.972 159.962 308.78 164.401C305.587 168.84 299.621 171.118 294.846 173.462C287.179 177.194 280.219 182.628 271.924 184.619C263.407 186.635 254.235 184.619 246.686 180.232C242.539 177.796 238.47 173.986 238.47 169.167C238.47 167.282 239.111 165.422 239.085 163.537C238.822 160.463 237.455 157.588 235.238 155.444C233.033 153.335 230.941 151.11 228.971 148.779C227.514 146.703 226.677 144.256 226.556 141.722C226.436 139.188 227.037 136.672 228.291 134.467C230.057 131.206 232.007 128.601 231.64 124.711C231.3 121.385 229.312 119.369 227.82 116.554Z" fill="#1C1C1B"/>
<path d="M262.452 73.0669C264.637 71.6135 267.463 71.6265 270.04 71.9801C272.617 72.3336 275.273 73.08 276.752 75.1359C281.867 82.1414 271.152 91.4647 264.231 90.1814C256.054 88.6755 256.303 77.1262 262.452 73.0669Z" fill="#1C1C1B"/>
<path d="M192.194 270.296C194.039 261.601 195.386 260.672 197.231 251.964C198.212 247.355 200.28 243.636 202.216 239.341" stroke="black" stroke-width="0.5" stroke-linecap="round" stroke-linejoin="round"/>
<path d="M330.001 286.743C329.216 274.067 324.99 260.619 322.046 248.271" stroke="black" stroke-width="0.5" stroke-linecap="round" stroke-linejoin="round"/>
<path d="M283.267 198.656C281.959 198.538 280.651 198.303 279.342 198.303C276.993 198.495 274.664 198.89 272.382 199.481C270.053 199.874 267.436 199.769 265.657 198.172C264.725 197.215 264.193 195.937 264.171 194.601C264.149 193.264 264.639 191.97 265.539 190.983C267.698 188.718 272.081 188.246 274.881 187.578C277.407 187.13 279.812 186.162 281.946 184.737C285.504 182.118 287.179 176.212 291.366 174.458C295.108 172.886 301.361 175.414 302.12 179.695C302.67 182.812 300.511 185.758 298.091 187.775C295.67 189.791 292.857 191.389 291.013 193.982C290.311 195.359 289.392 196.615 288.291 197.7C286.805 198.662 285.002 199.005 283.267 198.656Z" fill="#1C1C1B"/>
<path d="M299.831 163.079C299.913 161.002 299.17 158.977 297.764 157.448C296.779 156.699 295.646 156.167 294.44 155.89C276.179 150.477 256.89 149.517 238.182 153.087C235.519 153.459 232.954 154.348 230.633 155.706C228.788 157.075 227.315 158.883 226.346 160.966C225.377 163.049 224.944 165.342 225.086 167.635C225.44 172.235 227.081 176.641 229.822 180.35C240.053 195.225 259.011 200.738 276.15 196.129C289.39 192.62 300.537 176.553 299.831 163.079Z" fill="#FF6C37"/>
<path d="M257.715 198.316C245.391 197.595 231.941 191.192 228.631 178.268" stroke="black" stroke-width="0.5" stroke-linecap="round" stroke-linejoin="round"/>
<path d="M142.634 238.738C142.191 240.328 141.967 241.972 141.967 243.623C142.038 244.872 142.003 246.124 141.863 247.368C141.444 249.698 139.861 251.623 138.631 253.64C136.434 257.282 135.28 261.459 135.295 265.713" stroke="black" stroke-width="0.5" stroke-linecap="round" stroke-linejoin="round"/>
<path d="M126.15 210.533C124.436 213.413 121.086 214.788 117.959 215.993C110.829 218.704 103.371 222.54 96.241 225.329" stroke="black" stroke-width="0.5" stroke-linecap="round" stroke-linejoin="round"/>
<path d="M136.498 257.293C137.693 260.665 138.569 264.141 139.115 267.677" stroke="black" stroke-width="0.5" stroke-linecap="round" stroke-linejoin="round"/>
<path d="M128.465 290.396L133.319 292.138" stroke="black" stroke-width="0.5" stroke-linecap="round" stroke-linejoin="round"/>
<path d="M98.6614 224.138C98.1266 220.288 97.3532 216.474 96.3456 212.72" stroke="black" stroke-width="0.5" stroke-linecap="round" stroke-linejoin="round"/>
<path d="M102.102 222.946C101.493 218.879 100.557 214.868 99.3025 210.952" stroke="black" stroke-width="0.5" stroke-linecap="round" stroke-linejoin="round"/>
<path d="M102.155 209.643C102.575 210.747 102.928 211.875 103.214 213.021C103.568 214.396 103.816 215.784 104.17 217.159C104.523 218.534 105.007 220.026 105.478 221.441" stroke="black" stroke-width="0.5" stroke-linecap="round" stroke-linejoin="round"/>
<path d="M104.536 208.503C104.499 208.734 104.511 208.97 104.572 209.196C104.633 209.421 104.741 209.632 104.889 209.812C106.747 213.007 106.982 216.883 108.461 220.288" stroke="black" stroke-width="0.5" stroke-linecap="round" stroke-linejoin="round"/>
<path d="M109.298 206.709L113.132 218.01" stroke="black" stroke-width="0.5" stroke-linecap="round" stroke-linejoin="round"/>
<path d="M111.287 205.845C112.607 207.547 113.641 209.453 114.348 211.488C114.845 213.37 115.479 215.213 116.245 217.001" stroke="black" stroke-width="0.5" stroke-linecap="round" stroke-linejoin="round"/>
<path d="M115.094 203.881C115.945 205.439 117.436 206.578 118.313 208.123C118.731 208.857 119.006 209.669 119.399 210.415C120.1 211.42 120.651 212.523 121.034 213.689C121.099 213.977 121.165 214.317 121.44 214.409" stroke="black" stroke-width="0.5" stroke-linecap="round" stroke-linejoin="round"/>
<path d="M117.881 202.244C117.881 202.166 117.737 202.152 117.711 202.244C117.704 202.287 117.708 202.33 117.722 202.371C117.736 202.412 117.759 202.449 117.789 202.48C118.496 203.383 119.189 204.313 119.856 205.243C121.666 207.53 123.001 210.157 123.781 212.968" stroke="black" stroke-width="0.5" stroke-linecap="round" stroke-linejoin="round"/>
<path d="M364.292 288.484C365.785 288.686 367.303 288.453 368.667 287.815C370.031 287.176 371.183 286.159 371.985 284.883" stroke="black" stroke-width="0.5" stroke-linecap="round" stroke-linejoin="round"/>
<path d="M258.056 85.4805C263.289 86.9732 268.928 88.466 274.227 87.0125" stroke="#FF6C37" stroke-linecap="round" stroke-linejoin="round"/>
<path d="M328.261 402.131C327.201 402.498 326.128 402.851 325.068 403.192C306.045 409.399 286.774 415.658 266.808 416.941C250.376 417.989 233.943 415.632 217.641 413.261C198.984 410.643 180.825 410.21 176.376 389.469C173.922 377.983 173.081 366.211 173.877 354.493C174.335 348.051 175.369 341.399 179.019 336.043C181.191 332.874 184.161 330.36 186.804 327.584C208.745 304.617 199.102 271.056 217.563 248.612C235.186 227.176 265.618 222.03 290.201 234.024C305.81 241.645 319.914 255.224 322.478 272.889C325.409 292.989 324.519 312.67 337.694 329.954C340.925 334.197 344.837 337.994 347.31 342.735C354.898 357.309 354.676 385.318 340.768 396.081C336.959 398.771 332.733 400.815 328.261 402.131Z" fill="#1C1C1B"/>
<path d="M420.629 288.379H401.017L394.593 251.754H427.864L420.629 288.379Z" fill="#1C1C1B"/>
<path d="M416.953 263.173C420.243 261.577 423.784 260.562 427.419 260.174C428.277 260.082 429.142 260.275 429.879 260.724C431.802 261.955 431.266 264.05 430.703 265.778L427.145 276.594C426.944 277.203 426.548 277.728 426.018 278.088C425.487 278.448 424.853 278.623 424.214 278.585C418.479 278.191 412.719 278.428 407.036 279.292" stroke="#1C1C1B" stroke-linecap="round" stroke-linejoin="round"/>
<path d="M330.734 68.8899H320.411V58.5322H330.773L330.734 68.8899Z" fill="#1C1C1B"/>
<path d="M355.069 68.8901H335.81L345.832 57.6289L355.069 68.8901ZM339.264 67.345H351.811L345.806 60.0121L339.264 67.345Z" fill="#407BFF"/>
<path d="M368.978 57.5695L358.457 68.334L359.57 69.4236L370.091 58.6592L368.978 57.5695Z" fill="#FF6C37"/>
<path d="M375.069 57.4871L364.55 68.2534L365.663 69.3429L376.183 58.5766L375.069 57.4871Z" fill="#FF6C37"/>
<path d="M383.63 62.3429V63.3119H383.211C382.884 63.3119 382.674 63.4953 382.674 63.9274V66.7165C382.703 66.9641 382.674 67.2148 382.591 67.4496C382.507 67.6844 382.371 67.8971 382.193 68.0713C382.015 68.2456 381.8 68.377 381.564 68.4553C381.328 68.5337 381.076 68.557 380.83 68.5235H380.293V67.5545H380.594C380.721 67.5724 380.851 67.5602 380.973 67.5189C381.095 67.4776 381.205 67.4084 381.295 67.3168C381.386 67.2252 381.453 67.1137 381.493 66.9913C381.532 66.8689 381.543 66.7389 381.523 66.6117V63.9929C381.523 63.2988 381.732 63.0108 382.177 62.8667C381.732 62.7227 381.523 62.4477 381.523 61.7537V59.1348C381.543 59.0076 381.532 58.8777 381.493 58.7552C381.453 58.6328 381.386 58.5214 381.295 58.4297C381.205 58.3381 381.095 58.2689 380.973 58.2276C380.851 58.1864 380.721 58.1741 380.594 58.192H380.306V57.2361H380.843C381.089 57.2003 381.34 57.2216 381.576 57.2983C381.813 57.375 382.028 57.5051 382.207 57.6784C382.385 57.8518 382.521 58.0638 382.604 58.2982C382.688 58.5325 382.716 58.7829 382.687 59.03V61.8323C382.687 62.2513 382.897 62.4346 383.224 62.4346L383.63 62.3429Z" fill="#407BFF"/>
<path d="M391.44 69.6361C389.151 69.6361 387.358 66.8732 387.358 63.3508C387.358 59.8284 389.151 57.0654 391.44 57.0654C393.73 57.0654 395.522 59.8284 395.522 63.3508C395.522 66.8732 393.678 69.6361 391.44 69.6361ZM391.44 58.6237C390.25 58.6237 388.915 60.5617 388.915 63.3508C388.915 66.1399 390.224 68.0779 391.44 68.0779C392.657 68.0779 393.965 66.1399 393.965 63.3508C393.965 60.5617 392.631 58.6237 391.44 58.6237Z" fill="#FF6C37"/>
<path d="M401.213 69.6361C398.937 69.6361 397.145 66.8732 397.145 63.3508C397.145 59.8284 398.937 57.0654 401.213 57.0654C403.49 57.0654 405.295 59.8284 405.295 63.3508C405.295 66.8732 403.503 69.6361 401.213 69.6361ZM401.213 58.6237C400.023 58.6237 398.688 60.5617 398.688 63.3508C398.688 66.1399 399.997 68.0779 401.213 68.0779C402.43 68.0779 403.739 66.1399 403.739 63.3508C403.739 60.5617 402.417 58.6237 401.213 58.6237Z" fill="#407BFF"/>
<path d="M288.697 28.6245L295.435 35.7741L288.697 40.5274" stroke="#407BFF" stroke-linecap="round" stroke-linejoin="round"/>
<path d="M294.244 28.6245L300.982 35.7741L294.244 40.5274" stroke="#407BFF" stroke-linecap="round" stroke-linejoin="round"/>
<path d="M308.911 39.7418C310.883 39.7418 312.482 37.2561 312.482 34.1897C312.482 31.1234 310.883 28.6377 308.911 28.6377C306.938 28.6377 305.339 31.1234 305.339 34.1897C305.339 37.2561 306.938 39.7418 308.911 39.7418Z" stroke="#407BFF" stroke-linecap="round" stroke-linejoin="round"/>
<path d="M320.79 29.4233V40.5274" stroke="#407BFF" stroke-linecap="round" stroke-linejoin="round"/>
<path d="M332.29 30.2222H325.945V40.5406H332.29V30.2222Z" fill="#1C1C1B"/>
<path d="M346.564 30.2222H337.053V40.5406H346.564V30.2222Z" stroke="#407BFF" stroke-linecap="round" stroke-linejoin="round"/>
<path d="M361.623 30.2222H350.921V40.5406H361.623V30.2222Z" fill="#1C1C1B"/>
<path d="M368.819 26.1629C370.127 25.77 371.436 27.2366 371.567 28.6377C371.522 30.0455 371.361 31.4472 371.083 32.8279C370.991 34.2421 371.606 35.9182 372.98 36.2063C372.587 36.1304 372.18 36.2073 371.842 36.4215C371.504 36.6356 371.26 36.9708 371.161 37.3586C370.991 38.1439 370.991 38.9566 371.161 39.7418C371.457 41.28 371.193 42.8736 370.415 44.2332C370.003 44.8916 369.359 45.3712 368.61 45.5773C367.862 45.7834 367.063 45.7009 366.373 45.3462" stroke="#407BFF" stroke-linecap="round" stroke-linejoin="round"/>
<path d="M377.847 26.6602C380.284 32.4915 380.33 39.0481 377.977 44.9138" stroke="#407BFF" stroke-linecap="round" stroke-linejoin="round"/>
<path d="M382.714 26.2153C384.248 29.5944 384.997 33.2778 384.904 36.9883C384.811 40.6988 383.879 44.3399 382.177 47.6379" stroke="#FF6C37" stroke-linecap="round" stroke-linejoin="round"/>
<path d="M281.776 26.1629C280.467 25.77 279.159 27.2366 279.028 28.6377C279.072 30.0455 279.234 31.4472 279.512 32.8279C279.604 34.2421 279.002 35.9182 277.615 36.2063C278.01 36.1299 278.418 36.2065 278.758 36.4205C279.099 36.6344 279.345 36.9698 279.447 37.3586C279.61 38.1446 279.61 38.9558 279.447 39.7418C279.159 41.2801 279.423 42.8709 280.193 44.2332C280.607 44.8926 281.254 45.3725 282.004 45.5786C282.755 45.7846 283.556 45.7017 284.248 45.3462" stroke="#407BFF" stroke-linecap="round" stroke-linejoin="round"/>
<path d="M272.722 26.6602C270.313 32.5015 270.29 39.0554 272.657 44.9138" stroke="#407BFF" stroke-linecap="round" stroke-linejoin="round"/>
<path d="M267.868 26.2153C266.332 29.5935 265.581 33.2762 265.671 36.9868C265.762 40.6973 266.692 44.3389 268.391 47.6379" stroke="#FF6C37" stroke-linecap="round" stroke-linejoin="round"/>
<path d="M460.01 180.573L453.377 187.618L460.01 192.305" stroke="#407BFF" stroke-linecap="round" stroke-linejoin="round"/>
<path d="M454.541 180.573L447.908 187.618L454.541 192.305" stroke="#407BFF" stroke-linecap="round" stroke-linejoin="round"/>
<path d="M436.578 186.439C436.578 189.464 438.148 191.912 440.097 191.912C442.047 191.912 443.617 189.464 443.617 186.439C443.617 183.414 442.034 180.965 440.097 180.965C438.161 180.965 436.578 183.453 436.578 186.439Z" stroke="#FF6C37" stroke-linecap="round" stroke-linejoin="round"/>
<path d="M428.375 180.965V191.912" stroke="#407BFF" stroke-linecap="round" stroke-linejoin="round"/>
<path d="M423.298 181.358H417.044V191.52H423.298V181.358Z" fill="#1C1C1B"/>
<path d="M412.36 181.358H402.993V191.52H412.36V181.358Z" stroke="#FF6C37" stroke-linecap="round" stroke-linejoin="round"/>
<path d="M398.688 181.358H388.143V191.52H398.688V181.358Z" fill="#1C1C1B"/>
<path d="M381.078 176.828C379.77 176.448 378.462 177.888 378.37 179.277C378.422 180.662 378.584 182.041 378.854 183.401C378.946 184.789 378.344 186.452 376.983 186.727C377.371 186.648 377.775 186.723 378.109 186.935C378.443 187.148 378.682 187.481 378.776 187.866C378.946 188.639 378.946 189.438 378.776 190.21C378.491 191.726 378.751 193.293 379.508 194.636C379.915 195.286 380.552 195.759 381.291 195.961C382.031 196.162 382.819 196.077 383.499 195.723" stroke="black" stroke-linecap="round" stroke-linejoin="round"/>
<path d="M372.168 177.443C369.807 183.207 369.807 189.67 372.168 195.435" stroke="black" stroke-linecap="round" stroke-linejoin="round"/>
<path d="M466.826 176.828C468.135 176.448 469.443 177.888 469.535 179.277C469.489 180.663 469.327 182.042 469.051 183.401C468.972 184.789 469.561 186.452 470.922 186.727C470.534 186.652 470.132 186.728 469.799 186.939C469.465 187.151 469.226 187.483 469.129 187.866C468.959 188.639 468.959 189.438 469.129 190.21C469.417 191.727 469.153 193.298 468.383 194.636C467.976 195.286 467.34 195.759 466.6 195.961C465.861 196.162 465.073 196.077 464.393 195.723" stroke="black" stroke-linecap="round" stroke-linejoin="round"/>
<path d="M111.692 39.4145C110.933 40.3837 110.267 41.4228 109.704 42.5178C109.812 42.5042 109.922 42.5042 110.031 42.5178C110.83 42.7793 111.494 43.3444 111.881 44.0915C112.267 44.8385 112.345 45.7076 112.098 46.5117C111.976 46.9046 111.777 47.2694 111.513 47.5848C111.249 47.9002 110.925 48.1598 110.56 48.3487C110.195 48.5376 109.796 48.6519 109.386 48.6849C108.976 48.718 108.564 48.6692 108.173 48.5413L107.846 48.3973C107.671 49.6243 107.614 50.8652 107.676 52.103L108.003 51.9982C108.825 51.8268 109.681 51.9862 110.386 52.4421C111.092 52.898 111.589 53.6135 111.771 54.4338C111.863 54.8372 111.875 55.2549 111.805 55.6628C111.735 56.0708 111.585 56.4607 111.364 56.8103C111.143 57.1598 110.854 57.4619 110.515 57.699C110.176 57.9362 109.794 58.1037 109.39 58.1919H108.997C109.455 59.3638 110.029 60.4868 110.711 61.5441C110.79 61.4524 110.868 61.3477 110.96 61.256C111.581 60.6977 112.399 60.409 113.233 60.4532C114.067 60.4973 114.849 60.8709 115.408 61.4917C115.972 62.1113 116.271 62.928 116.239 63.7657C116.207 64.6035 115.848 65.3952 115.238 65.97C115.125 66.0689 115.002 66.1566 114.872 66.2319C115.86 67.0273 116.92 67.7287 118.038 68.327C118.057 68.1765 118.088 68.0277 118.129 67.8818C118.251 67.489 118.45 67.1245 118.714 66.8096C118.978 66.4947 119.303 66.2357 119.668 66.0479C120.034 65.8601 120.433 65.7472 120.843 65.7159C121.253 65.6845 121.665 65.7353 122.054 65.8653C122.461 65.9903 122.839 66.1952 123.165 66.4678C123.492 66.7404 123.761 67.0754 123.957 67.4532C124.153 67.831 124.272 68.2441 124.307 68.6684C124.342 69.0927 124.292 69.5197 124.161 69.9246C124.108 70.0761 124.047 70.2247 123.978 70.3698C125.228 70.5686 126.494 70.6431 127.759 70.5924C127.691 70.4454 127.638 70.2918 127.602 70.1341C127.509 69.7315 127.498 69.3146 127.568 68.9076C127.638 68.5005 127.788 68.1114 128.009 67.7629C128.231 67.4145 128.52 67.1136 128.858 66.8777C129.197 66.6418 129.579 66.4758 129.983 66.3891C130.805 66.2182 131.661 66.3798 132.365 66.8386C133.068 67.2974 133.562 68.016 133.738 68.8377C133.751 69.0077 133.751 69.1784 133.738 69.3484C134.917 68.8902 136.048 68.3156 137.113 67.633C136.978 67.5303 136.851 67.4164 136.734 67.2926C136.428 66.9935 136.187 66.6352 136.024 66.2394C135.862 65.8437 135.782 65.4189 135.789 64.9911C135.796 64.5633 135.891 64.1416 136.067 63.7516C136.243 63.3617 136.496 63.0118 136.812 62.7234C137.128 62.435 137.499 62.2142 137.903 62.0745C138.307 61.9348 138.736 61.8791 139.162 61.9109C139.588 61.9427 140.004 62.0613 140.382 62.2594C140.761 62.4576 141.096 62.731 141.365 63.0631C141.477 63.1971 141.582 63.337 141.679 63.4821C142.461 62.4855 143.145 61.4154 143.72 60.287C143.552 60.2647 143.386 60.2297 143.223 60.1823C142.426 59.918 141.764 59.3524 141.378 58.6063C140.992 57.8601 140.912 56.9925 141.156 56.1885C141.278 55.7955 141.477 55.4307 141.741 55.1153C142.005 54.7999 142.329 54.5403 142.694 54.3514C143.059 54.1625 143.458 54.0482 143.868 54.0152C144.278 53.9821 144.69 54.0309 145.081 54.1588C145.238 54.2139 145.391 54.2796 145.539 54.3552C145.722 53.0983 145.775 51.8257 145.696 50.5578L145.251 50.7019C144.429 50.8692 143.575 50.7061 142.872 50.2479C142.17 49.7897 141.675 49.0732 141.496 48.2532C141.402 47.8515 141.388 47.4349 141.457 47.028C141.525 46.621 141.674 46.2317 141.894 45.883C142.115 45.5343 142.403 45.2331 142.741 44.997C143.079 44.7609 143.461 44.5948 143.864 44.5082C144.021 44.4889 144.179 44.4889 144.335 44.5082C143.856 43.3306 143.269 42.1997 142.582 41.1298C142.493 41.245 142.397 41.3543 142.294 41.4572C141.664 41.9872 140.854 42.2521 140.033 42.1962C139.212 42.1403 138.444 41.7679 137.892 41.1574C137.34 40.5469 137.045 39.7458 137.071 38.9226C137.096 38.0994 137.44 37.3181 138.029 36.7432C138.129 36.649 138.239 36.5657 138.356 36.4944C137.377 35.7083 136.321 35.0238 135.203 34.4517C135.19 34.5762 135.163 34.6991 135.125 34.8183C135.003 35.2113 134.804 35.576 134.54 35.8914C134.276 36.2068 133.952 36.4665 133.587 36.6554C133.221 36.8442 132.822 36.9585 132.412 36.9916C132.003 37.0246 131.59 36.9758 131.2 36.8479C130.405 36.5808 129.745 36.0148 129.359 35.2696C128.973 34.5243 128.892 33.6582 129.132 32.8541C129.132 32.7363 129.237 32.6184 129.276 32.5137C128.057 32.3195 126.821 32.2494 125.587 32.3042C125.587 32.422 125.665 32.5268 125.692 32.6315C125.786 33.0341 125.8 33.4515 125.731 33.8593C125.663 34.2672 125.515 34.6573 125.294 35.0071C125.074 35.3569 124.786 35.6593 124.448 35.8966C124.109 36.134 123.727 36.3016 123.323 36.3896C122.5 36.5572 121.644 36.3945 120.939 35.9365C120.234 35.4786 119.738 34.762 119.556 33.941C119.549 33.8232 119.549 33.7052 119.556 33.5874C118.417 34.0381 117.326 34.5995 116.298 35.2635C116.376 35.3421 116.455 35.3945 116.533 35.4861C116.811 35.7896 117.026 36.1449 117.166 36.5315C117.306 36.9182 117.369 37.3288 117.351 37.7398C117.333 38.1508 117.234 38.5541 117.06 38.9268C116.886 39.2996 116.64 39.6343 116.337 39.9121C116.034 40.1898 115.679 40.405 115.292 40.5454C114.906 40.6858 114.496 40.7487 114.085 40.7305C113.675 40.7122 113.272 40.6132 112.899 40.4391C112.527 40.265 112.192 40.0191 111.915 39.7156C111.833 39.6214 111.758 39.5207 111.692 39.4145ZM120.785 44.9534C121.635 44.1848 122.627 43.592 123.707 43.2093C124.786 42.8266 125.93 42.6615 127.073 42.7236C128.217 42.7857 129.336 43.0737 130.368 43.571C131.4 44.0683 132.323 44.7652 133.084 45.6212C134.218 46.9007 134.948 48.4874 135.183 50.1815C135.418 51.8756 135.148 53.6015 134.405 55.1418C133.662 56.6822 132.48 57.9682 131.009 58.838C129.537 59.7077 127.842 60.1224 126.135 60.0297C124.429 59.937 122.788 59.3412 121.419 58.3172C120.05 57.2932 119.015 55.8869 118.443 54.2751C117.871 52.6634 117.788 50.9183 118.205 49.2595C118.622 47.6008 119.52 46.1026 120.785 44.9534Z" fill="#ABC8F4"/>
<path d="M119.071 43.0284C120.168 42.0382 121.449 41.2745 122.841 40.7812C124.233 40.2879 125.709 40.0747 127.183 40.1538C128.658 40.2329 130.102 40.6027 131.434 41.2421C132.765 41.8815 133.957 42.7778 134.941 43.8795C136.965 46.0833 138.035 48.9993 137.918 51.9903C137.8 54.9813 136.504 57.804 134.314 59.8417C132.077 61.8045 129.159 62.8092 126.189 62.6393C123.219 62.4695 120.434 61.1386 118.435 58.9335C116.436 56.7285 115.383 53.8257 115.502 50.8506C115.621 47.8756 116.903 45.0664 119.071 43.0284Z" stroke="#292929" stroke-width="0.5" stroke-linecap="round" stroke-linejoin="round"/>
<path d="M64.2522 57.118C63.0271 58.5609 61.949 60.1225 61.0337 61.7797C61.2038 61.7797 61.3739 61.7797 61.5309 61.8975C62.7486 62.342 63.7439 63.2459 64.3039 64.4158C64.8639 65.5856 64.944 66.9284 64.527 68.1567C64.3177 68.7575 63.991 69.3106 63.5659 69.7837C63.1407 70.2568 62.6257 70.6405 62.0509 70.9123C61.4761 71.1841 60.8529 71.3387 60.2178 71.3669C59.5827 71.3951 58.9483 71.2965 58.3517 71.0767C58.1785 71.0097 58.012 70.9264 57.8545 70.828C57.5191 72.7119 57.3658 74.6238 57.3966 76.5371C57.5669 76.4754 57.7419 76.4272 57.9199 76.3931C59.1917 76.1744 60.4985 76.4631 61.56 77.1975C62.6215 77.9319 63.3531 79.0534 63.598 80.3214C63.7191 80.9468 63.7152 81.59 63.5863 82.2138C63.4575 82.8376 63.2063 83.4297 62.8474 83.9557C62.4885 84.4818 62.0289 84.9314 61.4953 85.2785C60.9616 85.6257 60.3645 85.8635 59.7385 85.9782C59.5383 85.9978 59.3368 85.9978 59.1366 85.9782C59.7825 87.8008 60.6064 89.5552 61.5963 91.216C61.7257 91.0624 61.8656 90.9181 62.015 90.7839C62.5243 90.3359 63.1211 89.9987 63.7675 89.7937C64.4139 89.5888 65.0957 89.5205 65.7699 89.5933C66.444 89.666 67.0957 89.8782 67.6836 90.2164C68.2715 90.5546 68.7827 91.0114 69.1849 91.5578C69.5871 92.1041 69.8713 92.7282 70.0198 93.3904C70.1682 94.0526 70.1775 94.7384 70.0471 95.4043C69.9167 96.0703 69.6494 96.7019 69.2622 97.259C68.875 97.8161 68.3763 98.2866 67.7978 98.6406C69.2672 99.9247 70.8628 101.057 72.5601 102.019C72.5938 101.792 72.6463 101.569 72.7171 101.351C72.9264 100.75 73.2531 100.197 73.6783 99.7241C74.1034 99.251 74.6184 98.8673 75.1932 98.5955C75.768 98.3237 76.3912 98.1692 77.0263 98.1409C77.6614 98.1127 78.2958 98.2113 78.8925 98.4311C80.1101 98.8755 81.1055 99.7794 81.6655 100.949C82.2255 102.119 82.3056 103.462 81.8886 104.69C81.7955 104.92 81.6862 105.143 81.5615 105.358C83.4788 105.737 85.4293 105.921 87.3836 105.908C87.2941 105.679 87.2241 105.442 87.1742 105.201C87.0494 104.576 87.0502 103.933 87.1767 103.308C87.3032 102.684 87.5528 102.091 87.911 101.564C88.2691 101.038 88.7286 100.588 89.2626 100.241C89.7965 99.8939 90.3942 99.6571 91.0207 99.5441C92.2925 99.3254 93.5993 99.6142 94.6608 100.349C95.7223 101.083 96.454 102.204 96.6989 103.472C96.7472 103.736 96.7691 104.003 96.7643 104.271C98.5859 103.621 100.339 102.792 101.998 101.796C101.801 101.628 101.613 101.448 101.435 101.259C100.599 100.278 100.183 99.0065 100.276 97.7202C100.369 96.4339 100.964 95.2358 101.932 94.3849C102.419 93.972 102.983 93.6595 103.591 93.4656C104.2 93.2716 104.84 93.2 105.476 93.2547C106.112 93.3095 106.731 93.4896 107.297 93.7847C107.863 94.0798 108.365 94.484 108.775 94.9741C108.948 95.1819 109.101 95.4055 109.233 95.642C110.499 94.1494 111.608 92.5303 112.543 90.8101C112.289 90.7735 112.039 90.7121 111.797 90.6268C110.58 90.1851 109.585 89.2836 109.025 88.1159C108.465 86.9481 108.384 85.6071 108.801 84.3807C109.009 83.7788 109.335 83.2245 109.759 82.7505C110.184 82.2764 110.699 81.892 111.275 81.62C111.85 81.348 112.474 81.1937 113.109 81.1664C113.745 81.139 114.38 81.2391 114.976 81.4606C115.22 81.5509 115.456 81.6604 115.683 81.788C116.012 79.8595 116.152 77.9036 116.101 75.9479C115.879 76.0133 115.657 76.0919 115.408 76.1443C114.137 76.3596 112.832 76.0694 111.771 75.3356C110.71 74.6018 109.978 73.4824 109.73 72.216C109.609 71.5906 109.613 70.9474 109.742 70.3236C109.87 69.6998 110.122 69.1077 110.481 68.5817C110.839 68.0556 111.299 67.606 111.833 67.2589C112.366 66.9117 112.963 66.6739 113.589 66.5591C113.824 66.5332 114.061 66.5332 114.296 66.5591C113.628 64.7343 112.783 62.9799 111.771 61.3214C111.628 61.4879 111.475 61.6454 111.313 61.7928C110.824 62.2033 110.26 62.5134 109.651 62.7053C109.043 62.8972 108.402 62.9672 107.767 62.9113C107.131 62.8553 106.513 62.6745 105.948 62.3793C105.382 62.084 104.88 61.68 104.47 61.1904C103.988 60.6792 103.628 60.0658 103.415 59.3958C103.203 58.7257 103.144 58.0163 103.243 57.3204C103.342 56.6245 103.597 55.96 103.989 55.3763C104.38 54.7926 104.898 54.3048 105.504 53.9492C104.027 52.697 102.432 51.5918 100.742 50.6494C100.71 50.8398 100.667 51.0278 100.611 51.2124C100.405 51.8154 100.08 52.3709 99.6551 52.8459C99.2306 53.321 98.7153 53.706 98.1396 53.9783C97.5638 54.2505 96.9393 54.4045 96.3031 54.4309C95.6669 54.4574 95.0318 54.356 94.4355 54.1325C93.2191 53.6911 92.2247 52.7889 91.6667 51.6205C91.1087 50.4521 91.0318 49.1111 91.4525 47.8864C91.4525 47.7031 91.6095 47.5329 91.688 47.3627C89.8166 47.0076 87.9144 46.8409 86.0098 46.8651C86.0715 47.0311 86.1197 47.2019 86.1537 47.3758C86.2786 48.0005 86.2778 48.6439 86.1513 49.2683C86.0248 49.8927 85.7751 50.4856 85.417 51.0123C85.0588 51.539 84.5993 51.989 84.0654 52.3359C83.5314 52.6828 82.9337 52.9196 82.3072 53.0326C81.0359 53.2478 79.7308 52.9577 78.6701 52.2239C77.6094 51.49 76.8771 50.3706 76.6291 49.1042C76.6291 48.9209 76.6291 48.7376 76.6291 48.5543C74.8515 49.1935 73.1386 50.0002 71.5135 50.9637C71.6312 51.0815 71.7621 51.1862 71.8798 51.3172C72.3138 51.7962 72.6472 52.3576 72.8605 52.968C73.0737 53.5784 73.1623 54.2254 73.1211 54.8707C73.0799 55.516 72.9097 56.1465 72.6206 56.7248C72.3315 57.3031 71.9294 57.8174 71.438 58.2373C70.9467 58.6571 70.3762 58.974 69.7602 59.1692C69.1443 59.3643 68.4954 59.4338 67.8522 59.3734C67.2089 59.3129 66.5843 59.1239 66.0154 58.8175C65.4465 58.5111 64.9448 58.0935 64.54 57.5895C64.4307 57.4409 64.3344 57.2832 64.2522 57.118ZM73.8423 61.2035C76.818 58.5858 80.5045 56.9134 84.4327 56.3989C88.361 55.8845 92.3533 56.5514 95.9017 58.3147C99.4501 60.078 102.394 62.8581 104.359 66.3011C106.324 69.744 107.221 73.6943 106.936 77.6491C106.652 81.6039 105.198 85.3845 102.759 88.5098C100.321 91.635 97.0092 93.9637 93.2447 95.1993C89.4803 96.4349 85.4336 96.5218 81.6197 95.4487C77.8058 94.3756 74.3972 92.1911 71.8275 89.1733C70.1162 87.2084 68.8103 84.9241 67.9849 82.4519C67.1595 79.9797 66.831 77.3685 67.0182 74.7687C67.2055 72.1689 67.9049 69.6318 69.0761 67.3037C70.2473 64.9756 71.8671 62.9024 73.8423 61.2035Z" fill="#ABC8F4"/>
<path d="M97.1175 96.6241C101.15 94.6299 104.499 91.481 106.739 87.5776C108.98 83.6741 110.01 79.1922 109.7 74.7013C109.39 70.2104 107.753 65.9131 104.997 62.3555C102.241 58.7978 98.4903 56.1404 94.222 54.7207C89.9538 53.301 85.3602 53.1832 81.0248 54.3823C76.6895 55.5813 72.8081 58.0431 69.8738 61.4548C66.9395 64.8665 65.0846 69.0742 64.5449 73.5433C64.0052 78.0124 64.805 82.5413 66.8427 86.5544C68.1577 89.2164 69.987 91.5909 72.2249 93.5405C74.4629 95.4901 77.0649 96.9762 79.8805 97.9127C82.6961 98.8492 85.6692 99.2175 88.628 98.9963C91.5867 98.7751 94.4722 97.9688 97.1175 96.6241ZM73.3844 83.2154C72.0863 80.5548 71.6021 77.5697 71.9927 74.6348C72.3832 71.6998 73.631 68.9457 75.5796 66.7178C77.5282 64.49 80.0907 62.8877 82.9457 62.1119C85.8007 61.3362 88.8211 61.4216 91.6278 62.3573C94.4345 63.2931 96.9026 65.0376 98.7224 67.3719C100.542 69.7063 101.633 72.5265 101.857 75.4789C102.082 78.4312 101.43 81.3841 99.984 83.9671C98.5379 86.5502 96.3619 88.6483 93.7289 89.9983C91.9501 90.9004 90.0103 91.4406 88.0216 91.5876C86.0328 91.7347 84.0347 91.4856 82.1428 90.8548C80.2509 90.224 78.5027 89.2241 76.9993 87.9128C75.496 86.6015 74.2673 85.0049 73.3844 83.2154Z" fill="#ABC8F4"/>
<path d="M71.0163 84.4201C69.4874 81.2895 68.9163 77.7768 69.3747 74.3225C69.8331 70.8683 71.3004 67.6265 73.5928 65.0038C75.8851 62.3811 78.9003 60.4944 82.2599 59.5804C85.6196 58.6664 89.1742 58.7657 92.4777 59.866C95.7811 60.9663 98.6864 63.0185 100.829 65.7652C102.971 68.5118 104.256 71.8305 104.521 75.305C104.786 78.7794 104.02 82.2548 102.319 85.2951C100.617 88.3354 98.0571 90.8053 94.9588 92.3947C92.8665 93.46 90.5837 94.0989 88.2428 94.2742C85.9019 94.4496 83.5495 94.1578 81.3222 93.416C79.0948 92.6741 77.0368 91.4969 75.2677 89.9526C73.4986 88.4084 72.0535 86.5278 71.0163 84.4201Z" stroke="#292929" stroke-width="0.5" stroke-linecap="round" stroke-linejoin="round"/>
<path d="M419.347 114.799C419.346 113.383 419.631 111.981 420.186 110.678C420.741 109.376 421.555 108.199 422.577 107.22C423.6 106.241 424.81 105.479 426.134 104.982C427.459 104.484 428.871 104.26 430.285 104.324C432.212 104.414 434.075 105.045 435.662 106.144C436.886 104.735 438.413 103.623 440.129 102.891C441.844 102.158 443.703 101.824 445.566 101.914C450.943 102.176 456.164 105.843 456.595 110.819C458.736 111.367 460.683 112.499 462.22 114.088C463.757 115.678 464.824 117.662 465.303 119.822C465.781 121.981 465.652 124.231 464.931 126.322C464.209 128.412 462.922 130.262 461.214 131.665C461.554 132.659 461.677 133.714 461.575 134.76C461.474 135.806 461.15 136.818 460.625 137.728C459.998 138.87 459.028 139.787 457.851 140.347C456.946 140.807 455.954 141.071 454.939 141.123C453.925 141.175 452.911 141.013 451.964 140.648L451.82 150.508C451.82 150.637 451.779 150.762 451.703 150.866C451.626 150.97 451.519 151.046 451.396 151.084C451.273 151.122 451.141 151.12 451.02 151.078C450.898 151.035 450.793 150.955 450.721 150.848L445.487 143.398C440.686 145.375 436.329 142.415 436.054 138.042C434.74 138.708 433.274 139.019 431.802 138.945C429.698 138.844 427.703 137.978 426.191 136.51C424.678 135.042 423.752 133.073 423.586 130.971C422.277 131.743 420.79 132.164 419.271 132.194C417.752 132.224 416.25 131.861 414.912 131.141C413.175 130.273 411.829 128.782 411.144 126.964C410.567 125.622 410.336 124.156 410.473 122.702C410.609 121.247 411.109 119.85 411.926 118.639C412.742 117.428 413.85 116.442 415.146 115.771C416.443 115.1 417.888 114.766 419.347 114.799Z" fill="#ABC8F4"/>
<path d="M454.855 126.872C456.203 126.939 457.505 127.388 458.607 128.167C459.71 128.946 460.568 130.023 461.083 131.272" stroke="black" stroke-width="0.5" stroke-linecap="round" stroke-linejoin="round"/>
<path d="M423.769 130.198C423.821 129.06 424.097 127.943 424.581 126.912C425.066 125.881 425.749 124.955 426.591 124.189C427.433 123.422 428.419 122.83 429.49 122.446C430.562 122.061 431.699 121.892 432.836 121.949" stroke="black" stroke-width="0.5" stroke-linecap="round" stroke-linejoin="round"/>
<path d="M418.614 114.812C420.35 114.685 422.083 115.086 423.586 115.965" stroke="black" stroke-width="0.5" stroke-linecap="round" stroke-linejoin="round"/>
<path d="M428.453 108.16C429.366 108.204 430.262 108.427 431.089 108.817C431.916 109.208 432.658 109.757 433.273 110.434C433.888 111.112 434.363 111.904 434.672 112.765C434.981 113.626 435.117 114.54 435.073 115.454" stroke="black" stroke-width="0.5" stroke-linecap="round" stroke-linejoin="round"/>
<path d="M434.55 134.651C432.923 134.8 431.304 134.298 430.046 133.255C428.788 132.212 427.994 130.713 427.838 129.085" stroke="black" stroke-width="0.5" stroke-linecap="round" stroke-linejoin="round"/>
<path d="M415.16 125.615C414.921 124.926 414.82 124.197 414.863 123.469C414.906 122.742 415.092 122.029 415.41 121.374C415.728 120.718 416.173 120.132 416.718 119.648C417.264 119.165 417.899 118.794 418.588 118.557" stroke="black" stroke-width="0.5" stroke-linecap="round" stroke-linejoin="round"/>
<path d="M457.511 133.694C457.169 134.743 456.428 135.615 455.449 136.122C454.47 136.629 453.331 136.731 452.278 136.405" stroke="black" stroke-width="0.5" stroke-linecap="round" stroke-linejoin="round"/>
<path d="M447.385 112.481C448.696 111.591 450.176 110.977 451.732 110.678C453.289 110.378 454.89 110.399 456.438 110.74" stroke="black" stroke-width="0.5" stroke-linecap="round" stroke-linejoin="round"/>
<path d="M458.401 116.096C459.278 116.743 459.995 117.584 460.494 118.554C460.993 119.524 461.262 120.596 461.279 121.687" stroke="black" stroke-width="0.5" stroke-linecap="round" stroke-linejoin="round"/>
<path d="M439.809 118.754C440.887 118.537 442.004 118.655 443.013 119.092C444.021 119.529 444.872 120.264 445.451 121.199C446.03 122.133 446.31 123.222 446.254 124.321C446.197 125.419 445.806 126.474 445.134 127.343" stroke="black" stroke-width="0.5" stroke-linecap="round" stroke-linejoin="round"/>
<path d="M439.09 129.295C438.716 129.636 438.432 130.064 438.262 130.541C438.091 131.017 438.04 131.528 438.112 132.029C438.184 132.53 438.378 133.006 438.676 133.415C438.974 133.824 439.368 134.154 439.822 134.376" stroke="black" stroke-width="0.5" stroke-linecap="round" stroke-linejoin="round"/>
<path d="M264.414 232.243L270.773 446.39" stroke="#407BFF" stroke-width="0.5" stroke-linecap="round" stroke-linejoin="round"/>
<path d="M322.74 397.849C321.758 398.202 320.777 398.53 319.796 398.857C302.369 404.723 284.719 410.642 266.429 411.847C251.37 412.842 236.337 410.616 221.37 408.377C204.27 405.836 187.641 405.483 183.559 385.867C181.294 374.989 180.524 363.852 181.27 352.765C181.675 346.663 182.578 340.351 185.98 335.31C188.134 332.453 190.519 329.777 193.11 327.309C213.206 305.585 204.375 273.844 221.291 252.671C237.436 232.387 265.33 227.529 287.846 238.869C302.16 246.071 315.073 258.917 317.428 275.625C320.044 294.638 319.299 313.259 331.375 329.601C334.345 333.621 337.916 337.208 340.18 341.687C347.127 355.462 346.944 381.965 334.135 392.14C330.68 394.663 326.829 396.593 322.74 397.849Z" stroke="#407BFF" stroke-width="0.5" stroke-linecap="round" stroke-linejoin="round"/>
<path d="M313.869 277.904C315.168 281.691 315.754 285.687 315.596 289.689" stroke="#407BFF" stroke-width="0.5" stroke-linecap="round" stroke-linejoin="round"/>
<path d="M316.486 296.066C315.948 306.678 319.319 317.119 325.958 325.411" stroke="#407BFF" stroke-width="0.5" stroke-linecap="round" stroke-linejoin="round"/>
<path d="M217.955 305.049C217.746 309.104 216.834 313.091 215.26 316.834" stroke="#407BFF" stroke-width="0.5" stroke-linecap="round" stroke-linejoin="round"/>
<path d="M220.598 317.252L219.735 323.577" stroke="#407BFF" stroke-width="0.5" stroke-linecap="round" stroke-linejoin="round"/>
<path d="M140.711 293.8C148.362 293.984 155.894 291.887 162.351 287.777" stroke="black" stroke-width="0.5" stroke-linecap="round" stroke-linejoin="round"/>
<path d="M345.871 261.614L348.161 264.757" stroke="black" stroke-width="0.5" stroke-linecap="round" stroke-linejoin="round"/>
<path d="M348.043 258.511L351.654 263.487" stroke="black" stroke-width="0.5" stroke-linecap="round" stroke-linejoin="round"/>
<path d="M355.736 229.559C358.549 231.378 360.882 233.848 362.539 236.761" stroke="black" stroke-width="0.5" stroke-linecap="round" stroke-linejoin="round"/>
<path d="M236.036 165.331C236.208 166.703 236.06 168.097 235.605 169.403" stroke="black" stroke-width="0.5" stroke-linecap="round" stroke-linejoin="round"/>
<path d="M242.382 165.789C241.388 167.275 240.76 168.976 240.55 170.752" stroke="black" stroke-width="0.5" stroke-linecap="round" stroke-linejoin="round"/>
<path d="M285.295 167.138C285.128 168.81 285.279 170.498 285.74 172.114" stroke="black" stroke-width="0.5" stroke-linecap="round" stroke-linejoin="round"/>
<path d="M185.443 201.498C181.642 205.114 178.166 209.057 175.055 213.283" stroke="black" stroke-width="0.5" stroke-linecap="round" stroke-linejoin="round"/>
<path d="M182.696 209.158L177.279 215.495" stroke="black" stroke-width="0.5" stroke-linecap="round" stroke-linejoin="round"/>
<path d="M220.153 28.0351C220.129 24.942 219.326 21.905 217.819 19.2047C216.311 16.5045 214.148 14.2283 211.528 12.5865C208.909 10.9448 205.918 9.9905 202.833 9.81193C199.747 9.63337 196.667 10.2363 193.876 11.5649C191.085 12.8936 188.674 14.9051 186.865 17.4134C185.057 19.9217 183.91 22.8459 183.529 25.9156C183.149 28.9853 183.548 32.1014 184.69 34.9758C185.832 37.8501 187.679 40.39 190.062 42.3605C192.859 44.5822 194.665 47.8206 195.086 51.3695L195.884 58.5191C195.968 59.2783 196.33 59.9795 196.9 60.4873C197.47 60.9951 198.208 61.2735 198.971 61.2689H204.833C205.597 61.2631 206.332 60.9753 206.897 60.4606C207.462 59.9459 207.817 59.2405 207.894 58.4798L208.601 51.3171C208.977 47.7804 210.73 44.5344 213.481 42.2819C215.58 40.5518 217.268 38.3757 218.422 35.9114C219.576 33.4472 220.167 30.7567 220.153 28.0351Z" fill="#FFBC96"/>
<path d="M201.967 63.7046C200.054 63.7151 198.215 62.9653 196.854 61.62C195.492 60.2746 194.72 58.4436 194.706 56.5289V53.3862L209.098 53.3076V56.4372C209.108 58.3452 208.365 60.18 207.029 61.5414C205.693 62.9029 203.874 63.6805 201.967 63.7046Z" fill="black"/>
<path d="M199.128 54.9049C197.82 48.8683 196.59 42.8318 195.086 36.8476C194.274 33.6657 189.852 24.2769 196.93 25.3638C197.746 25.5068 198.499 25.8956 199.088 26.4783C199.677 27.0609 200.075 27.8096 200.227 28.6243C200.315 29.0402 200.308 29.4708 200.206 29.8835C200.104 30.2963 199.91 30.6805 199.639 31.0075C199.359 31.3289 198.976 31.5426 198.555 31.6119C198.135 31.6812 197.704 31.6018 197.336 31.3872C197.114 31.2181 196.929 31.0055 196.791 30.7624C196.654 30.5192 196.568 30.2506 196.538 29.973C196.483 29.2338 196.626 28.4934 196.953 27.8281C197.279 27.1629 197.777 26.5969 198.396 26.1887C199.926 25.0888 202.007 23.8317 203.956 24.6043C204.49 24.8655 204.966 25.2322 205.355 25.6823C205.744 26.1323 206.038 26.6565 206.22 27.2232C206.569 27.9523 206.665 28.7769 206.494 29.5671C206.4 29.9556 206.174 30.2991 205.854 30.5382C205.533 30.7773 205.14 30.8969 204.741 30.8765C204.419 30.8111 204.123 30.652 203.89 30.4191C203.657 30.1862 203.498 29.8899 203.433 29.5671C203.293 28.9479 203.339 28.3012 203.564 27.7077C203.771 27.0014 204.139 26.3528 204.638 25.8122C205.137 25.2716 205.755 24.8537 206.442 24.5912C207.135 24.3521 207.889 24.361 208.577 24.6166C209.264 24.8721 209.841 25.3583 210.21 25.9923C210.607 26.9209 210.712 27.9487 210.511 28.9386C209.922 33.4823 208.457 37.6857 207.632 42.164L205.278 54.5121" stroke="#1C1C1B" stroke-width="0.5" stroke-linecap="round" stroke-linejoin="round"/>
<path d="M173.485 23.3999L179.098 24.1856" stroke="#1C1C1B" stroke-width="0.5" stroke-linecap="round" stroke-linejoin="round"/>
<path d="M178.417 9.70312L182.722 13.6184" stroke="#1C1C1B" stroke-width="0.5" stroke-linecap="round" stroke-linejoin="round"/>
<path d="M196.211 0.837891C196.486 2.27828 196.773 4.66147 197.048 6.07568" stroke="#1C1C1B" stroke-width="0.5" stroke-linecap="round" stroke-linejoin="round"/>
<path d="M208.274 0.327148C207.868 3.43054 207.58 5.56495 207.423 6.80892" stroke="#1C1C1B" stroke-width="0.5" stroke-linecap="round" stroke-linejoin="round"/>
<path d="M225.648 12.7671L220.049 16.6954" stroke="#1C1C1B" stroke-width="0.5" stroke-linecap="round" stroke-linejoin="round"/>
<path d="M224.418 25.4424L230.463 25.8352" stroke="#1C1C1B" stroke-width="0.5" stroke-linecap="round" stroke-linejoin="round"/>
<path d="M197.898 13.9849C196.049 14.4465 194.311 15.277 192.789 16.4267C191.267 17.5764 189.993 19.0216 189.043 20.6758C188.093 22.33 187.485 24.1591 187.258 26.0537C187.031 27.9483 187.188 29.8693 187.72 31.7017" stroke="#292929" stroke-width="0.5" stroke-linecap="round" stroke-linejoin="round"/>
</g>
<defs>
<clipPath id="clip0_4256_26945">
<rect width="471" height="402" fill="white"/>
</clipPath>
</defs>
</svg>
