<svg width="831" height="438" viewBox="0 0 831 438" fill="none" xmlns="http://www.w3.org/2000/svg">
<g style="mix-blend-mode:multiply" opacity="0.32">
<path d="M209.616 438C325.384 438 419.232 431.073 419.232 422.529C419.232 413.984 325.384 407.058 209.616 407.058C93.8482 407.058 0 413.984 0 422.529C0 431.073 93.8482 438 209.616 438Z" fill="#3797DB"/>
</g>
<g style="mix-blend-mode:multiply" opacity="0.32">
<path d="M531.016 403.9C646.783 403.9 740.631 396.973 740.631 388.429C740.631 379.885 646.783 372.958 531.016 372.958C415.248 372.958 321.4 379.885 321.4 388.429C321.4 396.973 415.248 403.9 531.016 403.9Z" fill="#3797DB"/>
</g>
<g style="mix-blend-mode:multiply" opacity="0.32">
<path d="M670.173 425.369C706.615 425.369 736.158 422.086 736.158 418.036C736.158 413.986 706.615 410.703 670.173 410.703C633.731 410.703 604.188 413.986 604.188 418.036C604.188 422.086 633.731 425.369 670.173 425.369Z" fill="#3797DB"/>
</g>
<path d="M155.208 173.721V405.871C155.208 409.328 153.834 412.643 151.389 415.087C148.943 417.532 145.627 418.905 142.168 418.905H113.862C110.403 418.905 107.087 417.532 104.641 415.087C102.196 412.643 100.822 409.328 100.822 405.871V173.721C100.822 172.01 101.159 170.316 101.815 168.736C102.47 167.156 103.431 165.72 104.642 164.512C105.854 163.303 107.291 162.345 108.873 161.692C110.455 161.04 112.15 160.705 113.862 160.708H142.168C143.88 160.705 145.575 161.04 147.157 161.692C148.739 162.345 150.176 163.303 151.388 164.512C152.599 165.72 153.56 167.156 154.215 168.736C154.871 170.316 155.208 172.01 155.208 173.721Z" fill="#407BFF"/>
<path d="M219.263 237.893V405.871C219.263 407.584 218.925 409.281 218.269 410.864C217.612 412.446 216.65 413.884 215.436 415.095C214.223 416.305 212.783 417.265 211.199 417.919C209.614 418.572 207.916 418.907 206.202 418.905H177.853C176.139 418.907 174.441 418.572 172.857 417.919C171.272 417.265 169.832 416.305 168.619 415.095C167.406 413.884 166.443 412.446 165.787 410.864C165.13 409.281 164.792 407.584 164.792 405.871V237.893C164.792 236.18 165.13 234.483 165.787 232.901C166.443 231.318 167.406 229.88 168.619 228.67C169.832 227.459 171.272 226.499 172.857 225.846C174.441 225.192 176.139 224.857 177.853 224.86H206.138C207.858 224.848 209.563 225.177 211.155 225.827C212.747 226.477 214.194 227.436 215.414 228.647C216.634 229.858 217.602 231.299 218.263 232.886C218.923 234.473 219.263 236.175 219.263 237.893Z" fill="#FF6C37"/>
<path d="M284.23 194.299V405.871C284.23 407.582 283.893 409.277 283.238 410.859C282.582 412.44 281.622 413.877 280.411 415.087C279.2 416.297 277.762 417.257 276.18 417.912C274.598 418.568 272.903 418.905 271.19 418.905H242.884C239.425 418.905 236.109 417.531 233.663 415.087C231.218 412.643 229.844 409.328 229.844 405.871V194.299C229.844 190.842 231.218 187.527 233.663 185.083C236.109 182.638 239.425 181.265 242.884 181.265H271.148C272.864 181.26 274.564 181.593 276.151 182.245C277.738 182.898 279.181 183.857 280.396 185.068C281.611 186.279 282.576 187.717 283.234 189.301C283.892 190.885 284.23 192.584 284.23 194.299Z" fill="#407BFF"/>
<path d="M350.618 347.378V405.871C350.618 407.584 350.28 409.281 349.623 410.864C348.967 412.446 348.004 413.884 346.791 415.095C345.578 416.305 344.138 417.265 342.553 417.919C340.969 418.572 339.271 418.907 337.557 418.905H309.314C305.856 418.905 302.539 417.531 300.093 415.087C297.648 412.643 296.274 409.328 296.274 405.871V347.378C296.274 343.921 297.648 340.606 300.093 338.161C302.539 335.717 305.856 334.344 309.314 334.344H337.62C341.071 334.355 344.377 335.733 346.814 338.176C349.25 340.619 350.618 343.928 350.618 347.378Z" fill="#FF6C37"/>
<path style="mix-blend-mode:color-burn" d="M148.169 173.721V405.871C148.169 409.328 146.795 412.643 144.349 415.087C141.904 417.532 138.587 418.905 135.129 418.905H113.925C110.467 418.905 107.15 417.532 104.705 415.087C102.259 412.643 100.885 409.328 100.885 405.871V173.721C100.885 172.01 101.223 170.316 101.878 168.736C102.534 167.156 103.495 165.72 104.706 164.512C105.917 163.303 107.355 162.345 108.937 161.692C110.519 161.04 112.214 160.705 113.925 160.708H135.129C138.583 160.708 141.897 162.078 144.342 164.518C146.787 166.958 148.163 170.268 148.169 173.721Z" fill="url(#paint0_linear_4306_26378)"/>
<path style="mix-blend-mode:color-burn" d="M212.139 237.894V405.871C212.139 407.584 211.801 409.281 211.144 410.864C210.488 412.446 209.525 413.884 208.312 415.095C207.099 416.305 205.659 417.265 204.074 417.919C202.49 418.573 200.792 418.908 199.078 418.905H177.853C176.139 418.908 174.441 418.573 172.857 417.919C171.272 417.265 169.832 416.305 168.619 415.095C167.406 413.884 166.443 412.446 165.787 410.864C165.13 409.281 164.792 407.584 164.792 405.871V237.894C164.792 236.18 165.13 234.484 165.787 232.901C166.443 231.318 167.406 229.88 168.619 228.67C169.832 227.459 171.272 226.5 172.857 225.846C174.441 225.192 176.139 224.857 177.853 224.86H199.057C200.772 224.857 202.471 225.192 204.056 225.846C205.642 226.499 207.084 227.458 208.298 228.669C209.513 229.879 210.478 231.317 211.137 232.899C211.796 234.482 212.136 236.179 212.139 237.894Z" fill="url(#paint1_linear_4306_26378)"/>
<path style="mix-blend-mode:color-burn" d="M277.106 194.299V405.871C277.106 409.328 275.732 412.643 273.287 415.087C270.841 417.531 267.524 418.905 264.066 418.905H242.863C239.404 418.905 236.087 417.531 233.642 415.087C231.196 412.643 229.823 409.328 229.823 405.871V194.299C229.823 190.842 231.196 187.527 233.642 185.083C236.087 182.638 239.404 181.265 242.863 181.265H264.066C267.524 181.265 270.841 182.638 273.287 185.083C275.732 187.527 277.106 190.842 277.106 194.299Z" fill="url(#paint2_linear_4306_26378)"/>
<path style="mix-blend-mode:color-burn" d="M330.454 334.344H309.271C302.07 334.344 296.231 340.179 296.231 347.378V405.871C296.231 413.069 302.07 418.905 309.271 418.905H330.454C337.655 418.905 343.494 413.069 343.494 405.871V347.378C343.494 340.179 337.655 334.344 330.454 334.344Z" fill="url(#paint3_linear_4306_26378)"/>
<path d="M194.371 23.037C189.544 23.0294 184.822 24.4415 180.792 27.0974C176.762 29.7533 173.604 33.5356 171.709 37.973C169.815 42.4105 169.269 47.307 170.139 52.0525C171.009 56.798 173.257 61.1827 176.602 64.6604L171.323 76.9525L187.204 71.2091C189.527 71.918 191.942 72.2752 194.371 72.2688C197.666 72.3654 200.947 71.8002 204.019 70.6066C207.091 69.413 209.893 67.6153 212.258 65.32C214.623 63.0246 216.503 60.2783 217.786 57.2436C219.07 54.209 219.732 50.9477 219.732 47.6529C219.732 44.3581 219.07 41.0968 217.786 38.0621C216.503 35.0274 214.623 32.2811 212.258 29.9857C209.893 27.6904 207.091 25.8927 204.019 24.6991C200.947 23.5055 197.666 22.9403 194.371 23.037Z" fill="#407BFF"/>
<path d="M190.3 59.0226C195.41 59.0226 200.583 59.1921 205.291 58.8531C206.775 58.8531 208.068 56.2675 206.245 55.5045C207.057 55.1926 207.723 54.5877 208.111 53.8091C208.256 53.4086 208.244 52.9682 208.079 52.5755C207.914 52.1829 207.608 51.8667 207.22 51.6898C208.98 52.1348 209.68 49.2101 208.301 48.2564C209.067 47.6169 209.591 46.7343 209.786 45.7557C209.884 45.2682 209.835 44.7627 209.647 44.3027C209.458 43.8427 209.137 43.4486 208.725 43.1701C208.15 42.901 207.515 42.7843 206.881 42.831H200.52C201.355 39.38 201.019 35.7496 199.566 32.5099C199.057 31.5986 197.7 30.3906 196.618 31.1959C195.537 32.0013 195.876 33.506 195.919 34.5444C196.012 36.6848 195.523 38.8105 194.504 40.6952C193.485 42.5798 191.973 44.1529 190.13 45.247C190.13 45.247 190.342 54.3389 190.3 59.0226Z" fill="#FEFEFE"/>
<path d="M188.455 45.1201H180.737V59.0017H188.455V45.1201Z" fill="#FEFEFE"/>
<path d="M216.995 222.423C216.995 222.423 219.772 229.48 219.412 231.091C219.231 232.502 219.281 233.934 219.56 235.329L229.823 233.825C228.84 229.659 227.615 225.555 226.154 221.533C224.607 218.078 216.995 222.423 216.995 222.423Z" fill="#EFAC7F"/>
<path d="M228.317 227.848C225.9 230.521 222.575 232.198 218.988 232.553C216.168 239.271 220.621 243.15 221.469 243.319C225.434 244.485 244.792 238.169 243.923 232.956C243.032 228.081 231.18 234.503 228.317 227.848Z" fill="black"/>
<path d="M227.766 222.613C224.053 225.294 219.821 227.171 215.341 228.124C212.754 221.321 209.828 213.415 207.156 205.977C203.509 195.783 200.35 186.415 199.248 181.88C196.321 169.757 194.222 159.691 181.267 156.448C168.312 153.206 140.281 151.425 140.281 151.425L136.995 133.051C136.995 133.051 202.598 134.28 208.874 146.424C210.74 150.005 213.22 158.695 215.807 169.249C220.26 186.754 224.904 209.664 227.766 222.613Z" fill="black"/>
<g style="mix-blend-mode:multiply">
<path d="M215.807 169.101C214.259 183.745 208.323 202.331 207.156 205.913C203.509 195.719 200.35 186.352 199.248 181.816C196.321 169.694 194.222 159.627 181.267 156.385C168.312 153.142 140.281 151.362 140.281 151.362L136.995 132.987C136.995 132.987 202.598 134.217 208.874 146.36C210.74 149.857 213.22 158.546 215.807 169.101Z" fill="#A5A5A5"/>
</g>
<path d="M184.448 228.611C184.448 228.611 183.515 236.134 182.327 237.406C181.497 238.544 180.859 239.812 180.44 241.157L190.172 244.76C191.307 240.635 192.192 236.445 192.823 232.214C193.226 228.462 184.448 228.611 184.448 228.611Z" fill="#EFAC7F"/>
<path d="M191.805 238.805C188.4 239.997 184.672 239.876 181.352 238.466C175.648 243.001 177.705 248.49 178.341 249.062C181.267 251.987 201.347 255.759 203.022 250.737C204.697 245.714 191.105 246.032 191.805 238.805Z" fill="black"/>
<path d="M149.844 39.6524C151.773 40.161 154.403 44.3361 155.42 45.8408C161.315 54.5512 154.339 72.6078 142.698 73.286C139.827 73.6807 136.903 73.3153 134.217 72.2263C134.217 72.2263 130.316 75.7656 131.376 79.6652L119.354 79.3049C119.354 79.3049 121.834 60.231 127.835 49.9099C133.835 39.5888 141.808 37.5331 149.844 39.6524Z" fill="#EFAC7F"/>
<path d="M211.376 160.898C206.372 142.503 143.038 135.721 143.038 135.721L142.529 134.174C129.807 142.227 115.134 137.395 102.052 136.293C108.858 160.623 114.392 165.455 126.478 167.023C139.433 168.698 180.016 164.099 189.218 168.698C195.579 171.834 186.716 206.951 181.479 229.692C186.229 231.133 190.448 232.934 194.816 233.93C199.247 218.12 215.595 176.306 211.376 160.898Z" fill="black"/>
<path d="M180.758 118.279L161.675 146.085C161.439 146.435 161.295 146.838 161.254 147.259C161.213 147.679 161.278 148.103 161.442 148.492C161.606 148.881 161.865 149.223 162.194 149.487C162.523 149.751 162.913 149.929 163.329 150.005L200.944 156.49C201.487 156.586 202.046 156.501 202.536 156.248C203.027 155.995 203.42 155.589 203.658 155.092L218.606 123.832C218.784 123.459 218.867 123.049 218.849 122.637C218.832 122.224 218.713 121.823 218.503 121.467C218.294 121.112 218.001 120.813 217.649 120.597C217.297 120.381 216.898 120.255 216.486 120.229L182.942 117.198C182.516 117.179 182.093 117.269 181.711 117.458C181.329 117.647 181.001 117.929 180.758 118.279Z" fill="#5FBEF2"/>
<path d="M119.671 74.7905C119.671 74.7905 132.139 76.9098 136.634 87.5065C141.129 98.1031 142.529 117.601 152.24 120.653C161.951 123.704 186.886 128.515 190.702 127.201C194.519 125.887 203.17 129.321 201.792 130.677C200.414 132.033 199.014 131.991 192.78 132.796C186.547 133.602 155.357 138.476 145.645 132.372C135.934 126.269 129.022 100.964 125.905 96.5984C122.788 92.2326 117.233 79.5802 119.671 74.7905Z" fill="#EFAC7F"/>
<path d="M142.529 134.259C141.213 135.068 139.838 135.777 138.415 136.378C126.669 141.295 113.777 137.332 102.052 136.378C101.543 134.598 101.055 132.733 100.546 130.74C99.6269 127.151 99.1288 123.467 99.0619 119.762C98.553 95.1783 116.47 75.0871 119.65 74.7269C120.677 74.5793 121.719 74.5793 122.746 74.7269C127.114 75.4993 131.168 77.5072 134.429 80.5126C140.281 85.5354 139.857 96.0048 139.857 96.0048C139.857 96.0048 128.789 99.099 127.538 99.5017L142.529 134.259Z" fill="#FF6C37"/>
<path d="M200.88 157.699V119.826C200.886 118.599 201.246 117.399 201.919 116.372L218.458 90.7916C218.636 90.5303 218.896 90.335 219.196 90.2358C219.497 90.1366 219.822 90.139 220.121 90.2426C220.42 90.3463 220.677 90.5454 220.851 90.8094C221.026 91.0733 221.109 91.3873 221.087 91.7029L218.224 121.373L200.88 157.699Z" fill="#3E95DD"/>
<path d="M200.901 157.698L201.071 118.724H198.823L199.417 157.826L200.901 157.698Z" fill="#1574B5"/>
<path d="M161.484 148.437V151.637L203.085 158.292L203.34 155.918L161.484 148.437Z" fill="#1574B5"/>
<path d="M203.34 155.918L219.03 122.899L219.072 124.51L203.085 158.292" fill="#1574B5"/>
<path d="M198.823 118.724L218.055 89.8379L219.815 90.0922L201.071 118.724H198.823Z" fill="#1574B5"/>
<g style="mix-blend-mode:multiply" opacity="0.25">
<path d="M138.415 136.399L123.021 89.3081L142.529 134.238" fill="#CE306F"/>
</g>
<g style="mix-blend-mode:multiply" opacity="0.25">
<path d="M122.725 74.8331C120.835 81.6654 119.663 88.6758 119.226 95.7508C118.866 106.008 111.932 114.973 99.0407 119.826C98.5318 95.2421 116.449 75.151 119.629 74.7907C120.658 74.6572 121.7 74.6715 122.725 74.8331Z" fill="#CE306F"/>
</g>
<path d="M134.598 36.1131H134.132H133.814C123.615 37.7238 113.777 44.7175 106.843 51.5205C100.716 57.5606 96.7506 65.1689 91.0469 71.5057C85.3432 77.8425 73.6814 87.2311 64.8396 81.3182C64.2883 80.9579 63.5462 81.6784 63.9279 82.2295C69.8012 90.7068 81.8022 82.9924 89.3718 75.8715C87.3787 78.1392 85.4068 80.4281 83.4985 82.7381C77.9433 87.2735 72.2608 89.0961 65.3061 90.5796C63.8218 90.8975 64.3731 92.8261 65.6241 92.9956C67.5018 93.2262 69.4038 93.169 71.2642 92.8261C70.8826 93.1864 70.4797 93.5255 70.1192 93.907C63.9491 100.646 66.6419 107.683 74.5931 111.243C89.4354 117.876 116.851 110.925 117.169 91.4273C117.53 70.552 130.273 69.8527 134.895 67.373C139.518 64.8934 137.715 62.7529 137.715 62.7529C137.715 62.7529 136.295 56.7552 144.437 57.0943C149.444 57.2417 154.341 55.6125 158.261 52.4954C156.82 39.7159 146.048 34.4176 134.598 36.1131Z" fill="#5E2E0D"/>
<path d="M714.891 58.1538H331.238C320.629 58.1538 312.028 66.7504 312.028 77.3549V293.822C312.028 304.427 320.629 313.023 331.238 313.023H714.891C725.5 313.023 734.101 304.427 734.101 293.822V77.3549C734.101 66.7504 725.5 58.1538 714.891 58.1538Z" fill="#D1EAF2"/>
<path d="M717.435 48.4897H328.694C321.707 48.4897 315.007 51.2623 310.065 56.198C305.123 61.1337 302.344 67.8287 302.338 74.8117V296.387C302.344 303.37 305.123 310.065 310.065 315C315.007 319.936 321.707 322.709 328.694 322.709H717.435C724.418 322.703 731.113 319.928 736.05 314.993C740.988 310.058 743.764 303.366 743.769 296.387V74.8117C743.764 67.8324 740.988 61.1406 736.05 56.2055C731.113 51.2704 724.418 48.4954 717.435 48.4897ZM724.411 269.365H321.696V74.8117C321.696 73.8943 321.878 72.9859 322.23 72.1385C322.581 71.2912 323.097 70.5216 323.747 69.8738C324.397 69.2261 325.169 68.713 326.018 68.3638C326.866 68.0147 327.776 67.8364 328.694 67.8392H717.435C719.285 67.8392 721.059 68.5738 722.368 69.8814C723.676 71.189 724.411 72.9625 724.411 74.8117V269.365Z" fill="#3797DB"/>
<path d="M626.028 322.73H430.512V360.963H626.028V322.73Z" fill="#2685BF"/>
<path d="M396.671 359.034H678.845C686.718 359.034 694.268 362.16 699.835 367.724C705.402 373.288 708.53 380.835 708.53 388.704H367.156C367.156 380.864 370.261 373.343 375.791 367.784C381.321 362.224 388.828 359.078 396.671 359.034Z" fill="#3797DB"/>
<g opacity="0.72">
<path d="M700.324 87.1675V193.769C700.324 198.926 698.276 203.871 694.63 207.519C690.985 211.167 686.039 213.219 680.881 213.225H508.264C503.106 213.219 498.16 211.167 494.515 207.519C490.869 203.871 488.821 198.926 488.821 193.769V87.1675H700.324Z" fill="white"/>
<path d="M700.409 91.9571H488.588C488.588 87.6403 490.304 83.5003 493.357 80.4479C496.411 77.3955 500.553 75.6807 504.872 75.6807H684.125C688.444 75.6807 692.586 77.3955 695.639 80.4479C698.693 83.5003 700.409 87.6403 700.409 91.9571Z" fill="#FF6C37"/>
<path d="M655.649 88.3543C657.429 88.3543 658.872 86.9121 658.872 85.133C658.872 83.3539 657.429 81.9116 655.649 81.9116C653.869 81.9116 652.426 83.3539 652.426 85.133C652.426 86.9121 653.869 88.3543 655.649 88.3543Z" fill="white"/>
<path d="M671.467 85.1331C671.467 85.7711 671.277 86.3947 670.922 86.9249C670.567 87.4551 670.062 87.868 669.472 88.1112C668.882 88.3544 668.233 88.4169 667.607 88.2909C666.981 88.1649 666.407 87.8559 665.957 87.4033C665.507 86.9507 665.202 86.3747 665.08 85.7484C664.958 85.1222 665.025 84.4738 665.272 83.8855C665.519 83.2973 665.936 82.7957 666.469 82.4443C667.001 82.0929 667.627 81.9075 668.265 81.9117C669.116 81.9173 669.93 82.2591 670.53 82.8627C671.13 83.4662 671.467 84.2824 671.467 85.1331Z" fill="white"/>
<path d="M683.849 85.133C683.849 85.7701 683.66 86.3929 683.306 86.9227C682.952 87.4524 682.449 87.8653 681.86 88.1092C681.271 88.353 680.623 88.4167 679.997 88.2924C679.372 88.1681 678.798 87.8614 678.347 87.4108C677.897 86.9603 677.59 86.3863 677.465 85.7615C677.341 85.1366 677.405 84.4889 677.649 83.9002C677.893 83.3116 678.306 82.8085 678.836 82.4545C679.366 82.1005 679.989 81.9116 680.626 81.9116C681.481 81.9116 682.301 82.251 682.905 82.8551C683.51 83.4592 683.849 84.2786 683.849 85.133Z" fill="white"/>
<path d="M624.31 133.919L611.779 138.434L615.214 140.892L588.053 178.637C587.681 179.166 587.187 179.598 586.613 179.896C586.039 180.194 585.402 180.35 584.755 180.35C584.109 180.35 583.471 180.194 582.897 179.896C582.324 179.598 581.83 179.166 581.458 178.637L567.485 158.482C566.867 157.582 566.052 156.833 565.101 156.294C564.151 155.754 563.09 155.438 561.999 155.369C560.909 155.299 559.816 155.479 558.805 155.893C557.794 156.308 556.891 156.947 556.163 157.762L538.988 176.963C538.287 177.746 537.309 178.226 536.26 178.301C535.212 178.376 534.175 178.04 533.369 177.366L527.008 172.088C526.204 171.416 525.263 170.926 524.25 170.652C523.238 170.378 522.178 170.327 521.144 170.503C520.11 170.678 519.126 171.075 518.261 171.667C517.395 172.26 516.669 173.032 516.131 173.932L500.462 200.339L503.197 201.95L518.887 175.564C519.181 175.061 519.582 174.629 520.062 174.299C520.542 173.969 521.09 173.75 521.665 173.657C522.245 173.555 522.84 173.582 523.408 173.736C523.976 173.889 524.503 174.166 524.952 174.547L531.313 179.803C532.75 181.018 534.606 181.624 536.485 181.489C538.363 181.354 540.114 180.49 541.363 179.082L558.538 159.902C558.939 159.439 559.443 159.077 560.011 158.845C560.578 158.613 561.192 158.518 561.803 158.567C562.412 158.602 563.005 158.775 563.538 159.072C564.07 159.369 564.528 159.784 564.877 160.284L578.829 180.439C579.489 181.388 580.366 182.167 581.387 182.709C582.409 183.251 583.546 183.541 584.702 183.554C585.862 183.573 587.01 183.309 588.044 182.785C589.079 182.26 589.97 181.491 590.639 180.544L617.822 142.778L622.317 145.978L624.31 133.919Z" fill="#FF6C37"/>
<path d="M677.594 154.795H638.856C631.947 154.795 626.346 160.393 626.346 167.299V186.733C626.346 193.639 631.947 199.237 638.856 199.237H677.594C684.503 199.237 690.104 193.639 690.104 186.733V167.299C690.104 160.393 684.503 154.795 677.594 154.795Z" fill="#407BFF"/>
<path d="M597.128 115.884H505.402C504.437 115.879 503.512 115.493 502.829 114.81C502.147 114.128 501.761 113.204 501.755 112.239C501.755 111.76 501.849 111.286 502.033 110.844C502.216 110.402 502.485 110 502.823 109.661C503.162 109.323 503.564 109.054 504.006 108.871C504.449 108.688 504.923 108.594 505.402 108.594H597.128C598.093 108.599 599.018 108.985 599.7 109.668C600.383 110.35 600.769 111.274 600.775 112.239C600.769 113.204 600.383 114.128 599.7 114.81C599.018 115.493 598.093 115.879 597.128 115.884Z" fill="#3797DB"/>
<path d="M597.128 128.897H505.402C504.923 128.897 504.449 128.803 504.006 128.619C503.564 128.436 503.162 128.168 502.823 127.829C502.485 127.491 502.216 127.089 502.033 126.647C501.849 126.204 501.755 125.73 501.755 125.252C501.761 124.287 502.147 123.363 502.829 122.68C503.512 121.998 504.437 121.612 505.402 121.606H597.128C598.093 121.612 599.018 121.998 599.7 122.68C600.383 123.363 600.769 124.287 600.775 125.252C600.769 126.217 600.383 127.141 599.7 127.823C599.018 128.506 598.093 128.891 597.128 128.897Z" fill="#3797DB"/>
<path d="M597.128 140.892H505.402C504.437 140.886 503.512 140.501 502.829 139.818C502.147 139.136 501.761 138.212 501.755 137.247C501.755 136.28 502.139 135.353 502.823 134.669C503.507 133.986 504.435 133.602 505.402 133.602H597.128C598.093 133.607 599.018 133.993 599.7 134.675C600.383 135.358 600.769 136.282 600.775 137.247C600.769 138.212 600.383 139.136 599.7 139.818C599.018 140.501 598.093 140.886 597.128 140.892Z" fill="#3797DB"/>
<path d="M640.382 147.144C639.552 147.139 638.757 146.806 638.17 146.219C637.582 145.632 637.25 144.838 637.244 144.008V111.709C637.25 110.881 637.583 110.089 638.171 109.505C638.759 108.921 639.554 108.594 640.382 108.594C640.792 108.594 641.197 108.674 641.575 108.831C641.953 108.987 642.297 109.217 642.586 109.506C642.876 109.795 643.105 110.139 643.262 110.517C643.419 110.895 643.499 111.3 643.499 111.709V144.008C643.499 144.836 643.172 145.63 642.588 146.218C642.004 146.806 641.211 147.139 640.382 147.144Z" fill="#3797DB"/>
<path d="M652.362 147.144C651.532 147.139 650.737 146.806 650.149 146.219C649.562 145.632 649.23 144.838 649.224 144.008V122.094C649.23 121.266 649.563 120.473 650.151 119.89C650.739 119.306 651.534 118.978 652.362 118.979C653.189 118.979 653.982 119.307 654.566 119.891C655.151 120.475 655.479 121.268 655.479 122.094V144.008C655.479 144.836 655.151 145.631 654.567 146.218C653.984 146.806 653.191 147.139 652.362 147.144Z" fill="#3797DB"/>
<path d="M664.872 147.144C664.042 147.139 663.247 146.806 662.659 146.219C662.072 145.632 661.74 144.838 661.734 144.008V111.709C661.74 110.881 662.073 110.089 662.661 109.505C663.249 108.921 664.044 108.594 664.872 108.594C665.282 108.594 665.687 108.674 666.065 108.831C666.443 108.987 666.787 109.217 667.076 109.506C667.366 109.795 667.595 110.139 667.752 110.517C667.908 110.895 667.989 111.3 667.989 111.709V144.008C667.989 144.836 667.661 145.63 667.078 146.218C666.494 146.806 665.701 147.139 664.872 147.144Z" fill="#3797DB"/>
<path d="M677.891 147.144C677.062 147.139 676.27 146.806 675.686 146.218C675.102 145.63 674.774 144.836 674.774 144.007V132.266C674.771 131.856 674.85 131.448 675.005 131.068C675.161 130.687 675.39 130.341 675.679 130.05C675.969 129.758 676.314 129.527 676.693 129.369C677.073 129.211 677.48 129.13 677.891 129.13C678.723 129.13 679.521 129.46 680.11 130.049C680.698 130.637 681.029 131.435 681.029 132.266V144.007C681.023 144.838 680.691 145.632 680.104 146.219C679.516 146.806 678.721 147.139 677.891 147.144Z" fill="#3797DB"/>
</g>
<g style="mix-blend-mode:multiply" opacity="0.42">
<path d="M596.428 109.399V112.557V213.225H508.264C503.106 213.219 498.16 211.167 494.515 207.519C490.869 203.871 488.821 198.926 488.821 193.769V94.9878H582.01C585.485 94.985 588.843 96.2387 591.466 98.5173C594.089 100.796 595.798 103.946 596.279 107.386V107.873V108.594L596.428 109.399Z" fill="#B7B7B7"/>
</g>
<path d="M344.427 112.642H587.904V233.824C587.907 236.964 587.291 240.073 586.092 242.974C584.892 245.876 583.133 248.513 580.914 250.735C578.695 252.956 576.06 254.72 573.159 255.924C570.258 257.128 567.149 257.749 564.008 257.751H368.344C362.001 257.751 355.917 255.233 351.432 250.75C346.946 246.266 344.427 240.186 344.427 233.846V112.642Z" fill="white"/>
<path d="M361.898 99.4385H570.242C574.949 99.4385 579.463 101.307 582.791 104.634C586.119 107.961 587.989 112.473 587.989 117.177V118.173H344.151V117.177C344.151 112.473 346.021 107.961 349.349 104.634C352.677 101.307 357.191 99.4385 361.898 99.4385Z" fill="#FF6C37"/>
<path d="M536.465 114.019C538.514 114.019 540.176 112.359 540.176 110.31C540.176 108.262 538.514 106.602 536.465 106.602C534.416 106.602 532.754 108.262 532.754 110.31C532.754 112.359 534.416 114.019 536.465 114.019Z" fill="white"/>
<path d="M550.989 114.019C553.038 114.019 554.7 112.359 554.7 110.31C554.7 108.262 553.038 106.602 550.989 106.602C548.94 106.602 547.279 108.262 547.279 110.31C547.279 112.359 548.94 114.019 550.989 114.019Z" fill="white"/>
<path d="M565.238 114.019C567.287 114.019 568.948 112.359 568.948 110.31C568.948 108.262 567.287 106.602 565.238 106.602C563.188 106.602 561.527 108.262 561.527 110.31C561.527 112.359 563.188 114.019 565.238 114.019Z" fill="white"/>
<path d="M500.398 166.473L485.959 171.75L489.924 174.568L458.649 218.057C458.214 218.661 457.64 219.151 456.976 219.487C456.311 219.822 455.576 219.993 454.832 219.986C454.077 219.971 453.337 219.769 452.679 219.4C452.02 219.03 451.463 218.503 451.058 217.866L434.986 194.681C434.27 193.645 433.328 192.784 432.232 192.165C431.136 191.545 429.913 191.181 428.656 191.102C427.399 191.022 426.14 191.228 424.974 191.705C423.808 192.182 422.765 192.917 421.925 193.854L402.163 215.959C401.363 216.834 400.258 217.37 399.075 217.456C397.893 217.543 396.721 217.174 395.802 216.425L388.572 210.343C387.639 209.575 386.553 209.015 385.387 208.701C384.22 208.386 383 208.325 381.808 208.52C380.618 208.72 379.487 209.179 378.495 209.864C377.502 210.549 376.671 211.443 376.062 212.483L357.997 242.853L361.177 244.739L379.221 214.348C379.565 213.77 380.03 213.273 380.585 212.892C381.14 212.511 381.771 212.255 382.434 212.142C383.098 212.03 383.778 212.062 384.428 212.238C385.078 212.414 385.681 212.729 386.197 213.161L393.448 219.223C395.101 220.62 397.235 221.316 399.395 221.162C401.554 221.007 403.567 220.015 405.004 218.396L424.766 196.313C425.233 195.787 425.814 195.373 426.465 195.105C427.115 194.836 427.818 194.719 428.521 194.762C429.224 194.804 429.907 195.006 430.52 195.352C431.133 195.698 431.66 196.179 432.06 196.758L448.132 219.964C448.891 221.06 449.903 221.958 451.081 222.583C452.26 223.207 453.571 223.539 454.905 223.552C456.239 223.564 457.556 223.257 458.746 222.654C459.937 222.052 460.965 221.173 461.744 220.091L493.019 176.603L498.023 180.227L500.398 166.473Z" fill="#FF6C37"/>
<path d="M558.622 190.527H515.24C508.331 190.527 502.73 196.125 502.73 203.031V229.204C502.73 236.11 508.331 241.708 515.24 241.708H558.622C565.531 241.708 571.132 236.11 571.132 229.204V203.031C571.132 196.125 565.531 190.527 558.622 190.527Z" fill="#407BFF"/>
<path d="M469.102 137.311H363.488C361.17 137.311 359.29 139.189 359.29 141.507C359.29 143.824 361.17 145.703 363.488 145.703H469.102C471.421 145.703 473.3 143.824 473.3 141.507C473.3 139.189 471.421 137.311 469.102 137.311Z" fill="#3797DB"/>
<path d="M469.081 160.708H363.488C362.364 160.708 361.285 160.261 360.49 159.466C359.694 158.671 359.248 157.593 359.248 156.469C359.248 155.345 359.694 154.267 360.49 153.472C361.285 152.677 362.364 152.23 363.488 152.23H469.081C470.205 152.23 471.284 152.677 472.079 153.472C472.875 154.267 473.321 155.345 473.321 156.469C473.321 157.593 472.875 158.671 472.079 159.466C471.284 160.261 470.205 160.708 469.081 160.708Z" fill="#3797DB"/>
<path d="M469.081 174.484H363.488C362.364 174.484 361.285 174.037 360.49 173.242C359.694 172.447 359.248 171.369 359.248 170.245C359.248 169.121 359.694 168.043 360.49 167.248C361.285 166.453 362.364 166.006 363.488 166.006H469.081C470.205 166.006 471.284 166.453 472.079 167.248C472.875 168.043 473.321 169.121 473.321 170.245C473.321 171.369 472.875 172.447 472.079 173.242C471.284 174.037 470.205 174.484 469.081 174.484Z" fill="#3797DB"/>
<path d="M518.887 181.689C517.931 181.689 517.014 181.31 516.338 180.634C515.662 179.958 515.283 179.042 515.283 178.086V140.913C515.283 139.958 515.662 139.041 516.338 138.366C517.014 137.69 517.931 137.311 518.887 137.311C519.843 137.311 520.76 137.69 521.436 138.366C522.112 139.041 522.492 139.958 522.492 140.913V178.107C522.486 179.059 522.104 179.97 521.429 180.641C520.753 181.312 519.84 181.689 518.887 181.689Z" fill="#3797DB"/>
<path d="M532.691 181.689C531.735 181.689 530.818 181.31 530.142 180.634C529.466 179.958 529.086 179.042 529.086 178.086V152.866C529.086 151.911 529.466 150.995 530.142 150.319C530.818 149.643 531.735 149.264 532.691 149.264C533.645 149.269 534.559 149.651 535.233 150.325C535.908 150.999 536.29 151.913 536.295 152.866V178.108C536.29 179.059 535.907 179.97 535.232 180.641C534.557 181.313 533.643 181.689 532.691 181.689Z" fill="#3797DB"/>
<path d="M547.088 181.689C546.132 181.689 545.215 181.31 544.539 180.634C543.863 179.958 543.483 179.042 543.483 178.086V140.913C543.483 139.958 543.863 139.041 544.539 138.366C545.215 137.69 546.132 137.311 547.088 137.311C548.044 137.311 548.961 137.69 549.637 138.366C550.312 139.041 550.692 139.958 550.692 140.913V178.107C550.687 179.059 550.304 179.97 549.629 180.641C548.954 181.312 548.04 181.689 547.088 181.689Z" fill="#3797DB"/>
<path d="M562.078 181.689C561.126 181.684 560.215 181.302 559.543 180.627C558.872 179.952 558.495 179.038 558.495 178.086V164.565C558.495 163.613 558.872 162.7 559.543 162.025C560.215 161.35 561.126 160.968 562.078 160.962C563.034 160.962 563.951 161.342 564.627 162.018C565.303 162.693 565.683 163.61 565.683 164.565V178.108C565.677 179.06 565.295 179.971 564.62 180.642C563.944 181.313 563.031 181.689 562.078 181.689Z" fill="#3797DB"/>
<path opacity="0.21" d="M493.91 48.4688H456.783L449.743 67.8393L376.571 269.366L357.191 322.709H394.339L413.698 269.366L486.892 67.8393L493.91 48.4688Z" fill="white"/>
<path opacity="0.21" d="M546.218 48.4688L539.2 67.8393L466.006 269.366L446.626 322.709H470.077L489.457 269.366L562.651 67.8393L569.69 48.4688H546.218Z" fill="white"/>
<path opacity="0.21" d="M663.981 48.4688L656.963 67.8393L583.769 269.366L564.368 322.709H587.84L607.22 269.366L680.414 67.8393L687.454 48.4688H663.981Z" fill="white"/>
<path d="M54.1745 343.881V241.009C85.9795 231.239 85.5766 198.622 85.5766 198.622C65.6243 203.772 57.4398 215.365 54.1745 225.22V195.549C54.1258 195.097 53.9116 194.679 53.573 194.375C53.2345 194.071 52.7955 193.903 52.3405 193.903C51.8854 193.903 51.4464 194.071 51.1079 194.375C50.7693 194.679 50.5551 195.097 50.5064 195.549V256.247C41.601 232.743 16.4539 228.695 16.4539 228.695C19.2103 260.761 42.3431 267.119 50.5064 268.327V343.881H20.5037V388.026C20.5037 396.856 24.0132 405.325 30.2601 411.569C36.507 417.813 44.9796 421.321 53.8141 421.321C62.6485 421.321 71.1212 417.813 77.3681 411.569C83.615 405.325 87.1245 396.856 87.1245 388.026V343.881H54.1745Z" fill="#3797DB"/>
<path d="M826.635 139.428C829.968 131.917 826.578 123.127 819.064 119.796C811.549 116.464 802.755 119.852 799.422 127.363C796.089 134.874 799.479 143.664 806.993 146.995C814.508 150.327 823.302 146.939 826.635 139.428Z" fill="#FF6C37"/>
<path d="M746.25 162.891C746.7 164.155 746.892 165.497 746.814 166.836C746.736 168.176 746.389 169.486 745.795 170.69C745.2 171.893 744.37 172.965 743.354 173.841C742.338 174.718 741.155 175.382 739.878 175.793C738.6 176.205 737.252 176.356 735.915 176.237C734.578 176.119 733.278 175.733 732.092 175.103C730.907 174.473 729.86 173.611 729.014 172.569C728.168 171.527 727.54 170.326 727.167 169.037C727.039 168.649 726.939 168.253 726.87 167.85C726.423 165.358 726.935 162.789 728.305 160.659C729.675 158.529 731.8 156.996 734.254 156.368C736.709 155.74 739.309 156.063 741.535 157.273C743.76 158.483 745.445 160.49 746.25 162.891Z" fill="#FF6C37"/>
<path d="M827.735 180.121L821.268 179.612L760.372 174.632L753.756 174.102L753.29 174.06L753.078 173.509L750.703 167.977L744.236 152.76L750.555 145.576L790.374 100.222L794.424 95.6235L804.517 121.183L815.119 148.119L820.314 161.301L827.735 180.121Z" fill="#FF6C37"/>
<path d="M830.661 177.112C830.892 177.703 831.004 178.334 830.991 178.969C830.978 179.604 830.84 180.23 830.585 180.811C830.33 181.393 829.963 181.918 829.505 182.358C829.047 182.798 828.506 183.143 827.915 183.374C827.323 183.605 826.692 183.717 826.057 183.704C825.421 183.692 824.795 183.554 824.213 183.299C823.631 183.044 823.106 182.677 822.666 182.219C822.226 181.761 821.88 181.221 821.649 180.63L821.246 179.612L814.355 161.895L808.821 147.653L800.34 125.718L790.438 100.286L790.311 100.011C790.068 99.4116 789.948 98.7703 789.957 98.1241C789.965 97.478 790.103 96.8401 790.362 96.2478C790.621 95.6556 790.995 95.121 791.463 94.6754C791.931 94.2298 792.484 93.882 793.088 93.6527H793.364C794.535 93.2791 795.804 93.3673 796.912 93.8993C798.02 94.4313 798.882 95.3667 799.322 96.5138L808.227 119.381L819.02 147.102L824.427 160.984L830.661 177.112Z" fill="#3E95DD"/>
<path d="M755.728 151.743L760.711 167.214C761.502 169.653 761.382 172.296 760.372 174.653C759.873 175.856 759.154 176.956 758.252 177.895C757.537 178.639 756.723 179.28 755.834 179.803C755.158 180.174 754.448 180.479 753.714 180.714L749.261 182.134C748.179 182.485 747.049 182.664 745.911 182.664C743.788 182.653 741.716 182.013 739.957 180.825C738.198 179.636 736.832 177.953 736.031 175.988L735.755 175.225L730.793 159.775C730.343 158.436 730.165 157.02 730.269 155.611C730.374 154.202 730.76 152.828 731.404 151.57C732.048 150.312 732.938 149.196 734.02 148.286C735.102 147.377 736.355 146.693 737.706 146.275L742.158 144.834C743.524 144.4 744.964 144.243 746.391 144.375C747.819 144.506 749.206 144.921 750.47 145.597C752.967 146.87 754.857 149.08 755.728 151.743Z" fill="#3E95DD"/>
<path d="M774.621 230.879L764.761 234.037C764.186 234.222 763.58 234.291 762.978 234.238C762.377 234.186 761.792 234.013 761.258 233.73C760.724 233.448 760.252 233.061 759.871 232.593C759.489 232.125 759.205 231.585 759.036 231.006C755.919 219.985 747.968 191.735 745.975 182.664C745.669 181.757 745.525 180.803 745.551 179.845L750.343 178.108L754.244 176.667L755.771 179.867L777.292 224.733C777.557 225.307 777.697 225.931 777.704 226.564C777.711 227.196 777.585 227.823 777.332 228.403C777.08 228.983 776.708 229.504 776.241 229.93C775.774 230.357 775.221 230.68 774.621 230.879Z" fill="#3E95DD"/>
<g style="mix-blend-mode:color-burn">
<path d="M751.085 179.994C751.212 180.354 751.36 180.82 751.53 181.435C754.18 189.912 763.51 221.002 767.178 233.273L764.761 234.036C764.186 234.222 763.58 234.291 762.978 234.238C762.377 234.186 761.791 234.013 761.258 233.73C760.724 233.448 760.252 233.061 759.871 232.593C759.489 232.125 759.205 231.585 759.036 231.006C755.919 219.985 747.968 191.735 745.975 182.664C743.852 182.653 741.78 182.013 740.021 180.825C738.262 179.636 736.895 177.953 736.094 175.988C734.081 175.867 732.151 175.14 730.558 173.903C728.965 172.666 727.783 170.978 727.167 169.058C727.039 168.67 726.939 168.274 726.871 167.871C728.932 170.114 731.731 171.543 734.758 171.898C735.9 171.945 737.038 171.734 738.087 171.283C739.189 170.706 740.415 170.404 741.66 170.404C742.904 170.404 744.13 170.706 745.233 171.283C747.655 172.919 749.456 175.323 750.343 178.107C750.661 178.658 750.873 179.315 751.085 179.994Z" fill="#E5D8A1"/>
</g>
<g style="mix-blend-mode:multiply" opacity="0.25">
<path d="M830.661 177.111C830.892 177.703 831.004 178.334 830.991 178.969C830.978 179.604 830.84 180.23 830.586 180.811C830.331 181.393 829.963 181.918 829.505 182.358C829.047 182.798 828.507 183.143 827.915 183.374C827.323 183.605 826.692 183.717 826.057 183.704C825.422 183.692 824.795 183.554 824.213 183.299C823.632 183.044 823.106 182.677 822.666 182.219C822.226 181.761 821.88 181.221 821.649 180.63L821.246 179.612L760.372 174.653C761.382 172.296 761.502 169.653 760.711 167.214V167.024L814.419 161.895L820.377 161.323L824.427 160.92L830.661 177.111Z" fill="#CE306F"/>
</g>
<path d="M691.274 394.131L681.521 394.046L681.368 411.593L691.121 411.678L691.274 394.131Z" fill="#EFAC7F"/>
<path d="M661.824 397.439L652.696 394.002L648.354 405.525L657.481 408.962L661.824 397.439Z" fill="#EFAC7F"/>
<path d="M657.451 278.203C657.451 278.203 655.458 313.829 658.659 334.725C661.861 355.622 648.333 397.86 648.333 397.86L660.419 402.671L689.235 338.688L657.451 278.203Z" fill="black"/>
<g style="mix-blend-mode:multiply">
<path d="M657.048 280.937C669.092 300.202 673.82 338.604 678.909 360.284L668.604 383.194C664.639 358.101 661.988 333.009 656.963 307.916C656.857 297.468 657.048 286.892 657.048 280.937Z" fill="#A5A5A5"/>
</g>
<path d="M657.875 407.778C657.875 407.778 669.855 417.294 667.162 420.494C665.72 423.122 650.963 416.955 646.34 413.055C645.832 412.733 645.438 412.258 645.217 411.698C644.996 411.138 644.959 410.523 645.111 409.94C646.001 407.397 647.634 403.476 649.224 403.37C650.21 404.741 651.51 405.856 653.015 406.622C654.52 407.389 656.186 407.785 657.875 407.778Z" fill="black"/>
<path d="M691.122 410.555C691.122 410.555 705.731 415.111 704.395 419.159C703.992 422.126 688.005 421.66 682.28 419.689C681.071 419.265 680.16 418.481 680.032 417.209C680.032 414.518 680.032 410.258 681.496 409.601C682.909 410.512 684.52 411.073 686.194 411.239C687.867 411.405 689.557 411.17 691.122 410.555Z" fill="black"/>
<path d="M697.589 252.284L692.182 403.349H681.029C675.431 393.558 669.219 325.655 663.727 292.318C651.281 279.602 652.956 253.81 652.977 253.619C655.186 254.624 657.452 255.502 659.762 256.247C669.621 259.871 669.494 261.46 679.82 260.337L689.065 256.946C692.903 256.522 693.836 252.729 697.589 252.284Z" fill="black"/>
<path d="M692.521 165.646C691.8 169.546 690.019 173.89 686.16 175.098L685.418 175.289C684.862 175.399 684.316 175.555 683.785 175.755C683.586 175.837 683.395 175.936 683.213 176.052C681.964 177.295 681.065 178.845 680.605 180.545C679.46 183.724 678.76 187.539 679.523 188.874C674.626 192.053 671.572 198.517 667.671 194.236C663.769 189.955 666.695 179.973 665.996 174.272C665.466 170.033 660.334 155.198 662.391 151.574C664.639 147.526 669.134 145.216 673.544 143.52C677.691 141.673 682.321 141.205 686.754 142.185L690.994 145.788L691.652 146.318C693.411 152.61 693.709 159.221 692.521 165.646Z" fill="#EFAC7F"/>
<path d="M652.807 257.349C654.779 260.931 661.755 260.57 665.381 260.846C675.665 261.545 690.825 261.418 697.631 252.262C697.631 252.262 697.631 251.033 697.801 249.126C698.076 243.192 698.734 230.688 699.158 227.7C696.55 221.829 694.345 215.768 691.928 209.791C688.98 202.437 679.333 194.341 679.524 186.267L676.937 184.868L665.89 178.892C665.169 179.57 664.469 180.29 663.77 181.011C661.238 183.883 659.19 187.147 657.705 190.675C654.249 198.728 653.168 208.032 652.468 216.594C651.591 225.85 651.181 235.145 651.238 244.442C651.344 248.49 650.687 253.682 652.807 257.349Z" fill="#3797DB"/>
<path d="M758.209 207.354L758.061 207.46C756.725 209.177 755.389 210.915 754.435 211.148C754.329 210.533 754.965 209.219 754.074 208.901C753.184 208.584 752.187 209.707 751.785 210.321C751.256 211.281 750.802 212.28 750.428 213.31C749.851 214.387 749.048 215.327 748.074 216.065C746.327 217.519 744.135 218.334 741.861 218.375L737.281 219.286L726.023 221.405L705.498 225.411C704.416 225.623 703.377 225.814 702.296 226.047C702.103 226.082 701.903 226.051 701.73 225.959C701.557 225.866 701.42 225.718 701.342 225.538C698.738 219.418 695.742 213.471 692.373 207.736C692.328 207.638 692.26 207.553 692.175 207.486C692.09 207.42 691.991 207.375 691.885 207.354C691.803 207.313 691.712 207.292 691.62 207.292C691.528 207.292 691.437 207.313 691.355 207.354L690.973 207.778C684.231 210.343 680.372 216.489 675.071 220.325C674.959 220.412 674.87 220.525 674.811 220.654C674.752 220.783 674.725 220.925 674.732 221.066C674.725 221.234 674.778 221.399 674.88 221.533C677.106 224.351 679.46 227.234 681.792 230.179C689.744 240.225 694.239 243.701 698.034 244.739C700.626 245.227 703.287 245.227 705.879 244.739C711.816 244.188 739.953 229.713 748.583 225.22C750.131 224.902 757.87 221.257 762.026 220.176C764.547 219.623 766.866 218.383 768.726 216.595C770.783 210.724 763.51 201.929 758.209 207.354Z" fill="#EFAC7F"/>
<path d="M674.308 221.236L674.668 220.981C680.16 217.145 684.146 210.681 691.101 208.096C691.419 207.969 691.758 207.884 692.076 207.778C692.044 207.684 691.994 207.598 691.928 207.524L691.609 206.93C688.069 200.911 684.464 194.49 680.287 190.739C676.11 186.987 671.594 185.907 665.89 190.018C656.476 196.821 663.939 208.096 674.308 221.236Z" fill="#3797DB"/>
<g style="mix-blend-mode:multiply" opacity="0.25">
<path d="M662.2 201.717C663.812 207.375 668.561 214.03 674.307 221.236L674.668 220.981C674.661 221.149 674.714 221.314 674.816 221.448C677.043 224.266 679.396 227.149 681.729 230.094C689.68 240.14 694.175 243.616 697.97 244.654C697.97 246.35 697.822 247.876 697.758 249.126C694.154 246.774 674.435 233.591 665.317 215.217C663.099 211.073 662.024 206.413 662.2 201.717Z" fill="#CE306F"/>
</g>
<path d="M658.469 149.306C658.657 147.874 658.948 146.457 659.338 145.067C659.883 143.18 660.819 141.428 662.087 139.927C663.355 138.426 664.925 137.21 666.696 136.357C672.42 133.656 678.977 133.313 684.952 135.403C686.747 136.44 688.827 136.878 690.889 136.653C695.129 135.594 696.147 138.773 695.468 142.566C695.256 143.668 693.793 146.466 692.288 146.169C691.567 146.021 690.825 145.936 690.168 145.83C687.205 145.901 684.263 146.342 681.411 147.144C679.184 148.861 678.612 152.803 677.997 155.113C677.7 156.193 677.403 156.914 676.916 156.893C676.555 153.714 675.325 153.629 673.226 154.774C672.624 155.297 672.148 155.951 671.836 156.685C671.524 157.419 671.383 158.215 671.424 159.012C671.372 160.089 671.7 161.151 672.351 162.011C673.002 162.871 673.935 163.475 674.986 163.717C675.813 163.887 673.29 168.231 672.102 169.312C671.737 169.689 671.323 170.017 670.873 170.287C670.413 170.507 669.929 170.67 669.431 170.774L667.735 171.198C666.983 171.444 666.182 171.502 665.402 171.368C664.151 171.05 663.494 169.842 662.921 168.782C661.988 167.044 660.928 165.349 660.165 163.548C658.387 159.024 657.803 154.12 658.469 149.306Z" fill="#282828"/>
<path d="M784.268 0.0845367C778.79 0.0825199 773.433 1.68955 768.861 4.70587C764.29 7.72219 760.706 12.0148 758.556 17.0501C756.405 22.0855 755.782 27.6416 756.765 33.0278C757.747 38.414 760.292 43.3928 764.082 47.3454L758.082 61.2905L776.126 54.763C779.974 55.9431 784.033 56.2787 788.023 55.747C792.014 55.2153 795.842 53.8288 799.247 51.6822C802.652 49.5356 805.554 46.6795 807.753 43.3091C809.952 39.9388 811.397 36.1336 811.99 32.1536C812.583 28.1735 812.309 24.1126 811.187 20.2481C810.065 16.3837 808.122 12.8069 805.49 9.76215C802.858 6.71743 799.599 4.27656 795.936 2.60634C792.274 0.936117 788.294 0.0759233 784.268 0.0845367Z" fill="#407BFF"/>
<path d="M799.555 41.0301L796.566 19.9428C796.508 19.422 796.259 18.9411 795.868 18.5928C795.476 18.2444 794.97 18.0534 794.445 18.0566H793.512C793.512 15.4823 792.489 13.0134 790.668 11.1931C788.847 9.37276 786.377 8.3501 783.801 8.3501C781.226 8.3501 778.756 9.37276 776.935 11.1931C775.113 13.0134 774.09 15.4823 774.09 18.0566H773.094C772.566 18.0539 772.057 18.2479 771.665 18.6006C771.273 18.9533 771.026 19.4394 770.973 19.964L768.281 41.1572C768.231 41.4625 768.249 41.775 768.333 42.0727C768.417 42.3703 768.566 42.646 768.768 42.8803C768.97 43.1145 769.221 43.3018 769.503 43.4288C769.785 43.5558 770.091 43.6196 770.401 43.6156H797.435C797.757 43.6235 798.077 43.5578 798.371 43.4235C798.664 43.2892 798.923 43.0897 799.127 42.8404C799.331 42.5911 799.476 42.2984 799.551 41.9847C799.625 41.671 799.626 41.3445 799.555 41.0301ZM783.759 10.4482C785.799 10.4577 787.756 11.2546 789.222 12.6724C790.688 14.0901 791.549 16.0192 791.625 18.0566H775.892C775.974 16.0209 776.837 14.0949 778.302 12.6782C779.766 11.2615 781.721 10.4629 783.759 10.4482Z" fill="white"/>
<defs>
<linearGradient id="paint0_linear_4306_26378" x1="124.442" y1="238.148" x2="124.442" y2="650.271" gradientUnits="userSpaceOnUse">
<stop stop-color="white"/>
<stop offset="1" stop-color="#969696"/>
</linearGradient>
<linearGradient id="paint1_linear_4306_26378" x1="188.497" y1="238.148" x2="188.497" y2="650.271" gradientUnits="userSpaceOnUse">
<stop stop-color="white"/>
<stop offset="1" stop-color="#969696"/>
</linearGradient>
<linearGradient id="paint2_linear_4306_26378" x1="253.485" y1="238.148" x2="253.485" y2="650.271" gradientUnits="userSpaceOnUse">
<stop stop-color="white"/>
<stop offset="1" stop-color="#969696"/>
</linearGradient>
<linearGradient id="paint3_linear_4306_26378" x1="319.852" y1="238.148" x2="319.852" y2="650.271" gradientUnits="userSpaceOnUse">
<stop stop-color="white"/>
<stop offset="1" stop-color="#969696"/>
</linearGradient>
</defs>
</svg>
