<svg width="271" height="200" viewBox="0 0 271 200" fill="none" xmlns="http://www.w3.org/2000/svg">
<g clip-path="url(#clip0_1066_14272)">
<path d="M256.406 104.378V91.1833H251.386C250.794 88.9079 249.889 86.7254 248.698 84.6979L252.234 81.1555L242.909 71.824L239.366 75.3604C237.339 74.1687 235.157 73.2638 232.881 72.6717V67.6699H219.704V72.6717C217.435 73.2662 215.259 74.171 213.237 75.3604L209.695 71.824L200.363 81.1555L203.899 84.6979C202.711 86.7266 201.806 88.9088 201.211 91.1833H196.209V104.378H201.211C201.806 106.653 202.711 108.835 203.899 110.864L200.363 114.406L209.695 123.731L213.237 120.195C215.267 121.383 217.448 122.289 219.722 122.89V127.892H232.911V122.89C235.185 122.291 237.367 121.384 239.397 120.195L242.939 123.731L252.271 114.406L248.734 110.864C249.912 108.834 250.805 106.652 251.386 104.378H256.406ZM226.305 109.223C224.043 109.224 221.832 108.554 219.951 107.299C218.07 106.043 216.604 104.258 215.738 102.169C214.872 100.08 214.644 97.7812 215.085 95.5631C215.525 93.345 216.614 91.3073 218.212 89.7078C219.811 88.1083 221.848 87.0188 224.066 86.5772C226.284 86.1356 228.583 86.3616 230.672 87.2268C232.762 88.0919 234.548 89.5573 235.804 91.4375C237.061 93.3177 237.731 95.5284 237.731 97.7898C237.727 100.818 236.521 103.721 234.379 105.862C232.237 108.003 229.333 109.207 226.305 109.21V109.223Z" fill="#407BFF"/>
<path d="M216.538 137.435L214.031 130.883L211.549 131.834C210.822 130.819 209.958 129.91 208.981 129.133L210.065 126.711L203.658 123.865L202.574 126.287C201.344 126.08 200.09 126.045 198.85 126.184L197.894 123.701L191.354 126.214L192.304 128.691C191.29 129.421 190.382 130.287 189.604 131.264L187.181 130.181L184.329 136.581L186.752 137.665C186.549 138.898 186.517 140.153 186.655 141.395L184.172 142.346L186.685 148.892L189.162 147.941C189.891 148.954 190.755 149.862 191.729 150.642L190.651 153.064L197.052 155.91L198.136 153.488C199.368 153.695 200.624 153.73 201.866 153.591L202.817 156.074L209.363 153.561L208.394 151.09C209.408 150.358 210.319 149.493 211.101 148.516L213.523 149.6L216.375 143.2L213.953 142.116C214.157 140.883 214.191 139.628 214.056 138.386L216.538 137.435ZM202.532 145.561C201.415 145.986 200.197 146.07 199.033 145.803C197.868 145.537 196.808 144.932 195.986 144.065C195.165 143.197 194.618 142.106 194.415 140.928C194.212 139.751 194.362 138.54 194.846 137.447C195.33 136.355 196.127 135.43 197.135 134.789C198.144 134.148 199.319 133.82 200.514 133.846C201.708 133.872 202.869 134.251 203.848 134.935C204.828 135.619 205.584 136.577 206.02 137.689C206.312 138.435 206.454 139.231 206.437 140.031C206.419 140.832 206.243 141.621 205.919 142.353C205.595 143.085 205.128 143.746 204.547 144.297C203.965 144.847 203.281 145.277 202.532 145.561Z" stroke="#407BFF" stroke-miterlimit="10"/>
<path d="M195.101 114.485L193.405 110.064L191.728 110.706C191.236 110.024 190.654 109.413 189.996 108.889L190.723 107.248L186.399 105.323L185.666 106.964C184.834 106.824 183.986 106.8 183.147 106.891L182.505 105.22L178.085 106.915L178.727 108.587C178.046 109.082 177.435 109.667 176.91 110.324L175.269 109.592L173.331 113.927L174.972 114.66C174.832 115.493 174.81 116.341 174.906 117.179L173.229 117.821L174.924 122.242L176.601 121.6C177.093 122.282 177.676 122.893 178.333 123.416L177.607 125.057L181.93 126.983L182.663 125.342C183.496 125.48 184.343 125.502 185.182 125.409L185.824 127.086L190.244 125.39L189.621 123.707C190.302 123.215 190.914 122.633 191.437 121.975L193.078 122.702L195.004 118.378L193.363 117.646C193.503 116.813 193.526 115.965 193.43 115.126L195.101 114.485ZM185.636 119.983C184.879 120.273 184.053 120.332 183.263 120.152C182.472 119.972 181.753 119.563 181.195 118.974C180.638 118.386 180.267 117.645 180.13 116.846C179.993 116.047 180.096 115.226 180.426 114.485C180.756 113.745 181.298 113.119 181.984 112.687C182.67 112.254 183.468 112.035 184.279 112.056C185.089 112.077 185.875 112.338 186.537 112.806C187.199 113.274 187.707 113.928 187.998 114.684C188.386 115.7 188.356 116.829 187.913 117.822C187.47 118.816 186.651 119.593 185.636 119.983V119.983Z" stroke="#407BFF" stroke-miterlimit="10"/>
<path d="M193.563 37.0776C193.563 41.2014 192.34 45.2326 190.049 48.6613C187.758 52.09 184.501 54.7623 180.691 56.3401C176.881 57.918 172.689 58.3305 168.645 57.5255C164.6 56.7206 160.885 54.7343 157.97 51.8179C155.054 48.9015 153.069 45.186 152.265 41.1413C151.461 37.0966 151.875 32.9044 153.454 29.0949C155.033 25.2853 157.706 22.0296 161.136 19.7394C164.565 17.4492 168.596 16.2274 172.72 16.2286C175.459 16.2263 178.17 16.7639 180.701 17.8109C183.231 18.8579 185.53 20.3936 187.466 22.3302C189.402 24.2668 190.937 26.5661 191.983 29.0967C193.029 31.6272 193.566 34.3393 193.563 37.0776Z" fill="#FF6C37" stroke="#FF6C37" stroke-miterlimit="10"/>
<path d="M173.559 36.9799C177.3 36.518 179.958 33.1111 179.496 29.3704C179.034 25.6298 175.627 22.9718 171.886 23.4338C168.146 23.8957 165.488 27.3026 165.95 31.0433C166.412 34.7839 169.819 37.4418 173.559 36.9799Z" fill="white"/>
<path d="M185.642 50.8054C181.96 53.7115 177.407 55.2921 172.716 55.2921C168.026 55.2921 163.473 53.7115 159.791 50.8054C161.123 44.9376 162.352 39.9055 163.624 38.5915C165.441 36.7749 170.219 35.7394 172.707 35.7394C175.196 35.7394 180.216 37.011 181.143 37.9375C183.032 39.8268 184.661 45.0285 185.642 50.8054Z" fill="white"/>
<path d="M142.758 88.4946V78.2003C142.758 76.8512 143.294 75.5574 144.248 74.6035C145.202 73.6496 146.495 73.1137 147.844 73.1137H180.278C180.947 73.1113 181.61 73.2411 182.23 73.4956C182.849 73.7502 183.412 74.1245 183.886 74.5971C184.36 75.0696 184.737 75.6312 184.993 76.2495C185.25 76.8678 185.382 77.5308 185.382 78.2003V88.4946C185.382 89.8436 184.846 91.1374 183.892 92.0913C182.939 93.0452 181.645 93.5812 180.296 93.5812H147.838C146.49 93.5795 145.198 93.0429 144.246 92.0892C143.293 91.1354 142.758 89.8426 142.758 88.4946Z" fill="#FF6C37"/>
<path d="M156.456 87.9314L140.76 103.221L166.199 90.3596" fill="#FF6C37"/>
<path d="M146.693 77.9157V77.8612C146.693 77.6604 146.773 77.4679 146.915 77.326C147.057 77.184 147.25 77.1042 147.45 77.1042H163.485C163.686 77.1042 163.878 77.184 164.02 77.326C164.162 77.4679 164.242 77.6604 164.242 77.8612V77.9157C164.242 78.1164 164.162 78.309 164.02 78.4509C163.878 78.5929 163.686 78.6726 163.485 78.6726H147.45C147.25 78.6726 147.057 78.5929 146.915 78.4509C146.773 78.309 146.693 78.1164 146.693 77.9157Z" fill="white"/>
<path d="M164.963 77.9157V77.8612C164.963 77.6604 165.043 77.4679 165.185 77.326C165.327 77.184 165.519 77.1042 165.72 77.1042H179.714C179.915 77.1042 180.107 77.184 180.249 77.326C180.391 77.4679 180.471 77.6604 180.471 77.8612V77.9157C180.471 78.1164 180.391 78.309 180.249 78.4509C180.107 78.5929 179.915 78.6726 179.714 78.6726H165.72C165.519 78.6726 165.327 78.5929 165.185 78.4509C165.043 78.309 164.963 78.1164 164.963 77.9157Z" fill="white"/>
<path d="M158.854 81.3612V81.3067C158.854 81.106 158.933 80.9135 159.075 80.7715C159.217 80.6295 159.41 80.5498 159.61 80.5498H179.715C179.915 80.5498 180.108 80.6295 180.25 80.7715C180.392 80.9135 180.472 81.106 180.472 81.3067V81.3612C180.472 81.562 180.392 81.7545 180.25 81.8965C180.108 82.0384 179.915 82.1182 179.715 82.1182H159.61C159.41 82.1182 159.217 82.0384 159.075 81.8965C158.933 81.7545 158.854 81.562 158.854 81.3612Z" fill="white"/>
<path d="M146.693 81.3612V81.3067C146.693 81.106 146.773 80.9135 146.915 80.7715C147.057 80.6295 147.25 80.5498 147.45 80.5498H156.431C156.631 80.5498 156.824 80.6295 156.966 80.7715C157.108 80.9135 157.187 81.106 157.187 81.3067V81.3612C157.187 81.562 157.108 81.7545 156.966 81.8965C156.824 82.0384 156.631 82.1182 156.431 82.1182H147.45C147.25 82.1182 147.057 82.0384 146.915 81.8965C146.773 81.7545 146.693 81.562 146.693 81.3612Z" fill="white"/>
<path d="M161.645 84.8068V84.7523C161.645 84.5515 161.724 84.359 161.866 84.2171C162.008 84.0751 162.201 83.9954 162.401 83.9954H179.714C179.915 83.9954 180.107 84.0751 180.249 84.2171C180.391 84.359 180.471 84.5515 180.471 84.7523V84.8068C180.471 85.0075 180.391 85.2001 180.249 85.342C180.107 85.484 179.915 85.5637 179.714 85.5637H162.401C162.201 85.5637 162.008 85.484 161.866 85.342C161.724 85.2001 161.645 85.0075 161.645 84.8068Z" fill="white"/>
<path d="M146.693 84.8068V84.7523C146.693 84.5515 146.773 84.359 146.915 84.2171C147.057 84.0751 147.25 83.9954 147.45 83.9954H159.41C159.611 83.9954 159.803 84.0751 159.945 84.2171C160.087 84.359 160.167 84.5515 160.167 84.7523V84.8068C160.167 85.0075 160.087 85.2001 159.945 85.342C159.803 85.484 159.611 85.5637 159.41 85.5637H147.45C147.25 85.5637 147.057 85.484 146.915 85.342C146.773 85.2001 146.693 85.0075 146.693 84.8068Z" fill="white"/>
<path d="M146.693 88.2524V88.1979C146.693 87.9971 146.773 87.8046 146.915 87.6626C147.057 87.5207 147.25 87.4409 147.45 87.4409H151.889C152.09 87.4409 152.282 87.5207 152.424 87.6626C152.566 87.8046 152.646 87.9971 152.646 88.1979V88.2524C152.646 88.4531 152.566 88.6456 152.424 88.7876C152.282 88.9295 152.09 89.0093 151.889 89.0093H147.45C147.25 89.0093 147.057 88.9295 146.915 88.7876C146.773 88.6456 146.693 88.4531 146.693 88.2524Z" fill="white"/>
<path d="M154.215 88.2524V88.1979C154.215 87.9971 154.295 87.8046 154.437 87.6626C154.578 87.5207 154.771 87.4409 154.972 87.4409H179.714C179.915 87.4409 180.108 87.5207 180.25 87.6626C180.392 87.8046 180.471 87.9971 180.471 88.1979V88.2524C180.471 88.4531 180.392 88.6456 180.25 88.7876C180.108 88.9295 179.915 89.0093 179.714 89.0093H154.972C154.771 89.0093 154.578 88.9295 154.437 88.7876C154.295 88.6456 154.215 88.4531 154.215 88.2524Z" fill="white"/>
<path d="M62.6953 73.8842C67.3677 63.8415 63.0141 51.9125 52.9713 47.2402C42.9286 42.5678 30.9996 46.9214 26.3272 56.9642C21.6549 67.0069 26.0085 78.9359 36.0512 83.6082C46.094 88.2806 58.0229 83.927 62.6953 73.8842Z" fill="#FF6C37"/>
<path d="M41.3883 79.8729C43.9221 78.9831 45.2548 76.2077 44.365 73.6739C43.4752 71.1401 40.6998 69.8074 38.166 70.6972C35.6322 71.587 34.2995 74.3624 35.1893 76.8962C36.0791 79.43 38.8545 80.7627 41.3883 79.8729Z" fill="white"/>
<path d="M37.2342 77.0196L36.998 73.9373L39.5535 72.1934L42.339 73.5316L42.5751 76.6138L40.0197 78.3578L37.2342 77.0196Z" fill="#FF6C37"/>
<path d="M50.8757 60.1747C53.4045 59.2707 54.7217 56.4879 53.8178 53.9591C52.9138 51.4303 50.131 50.1131 47.6022 51.0171C45.0734 51.921 43.7562 54.7038 44.6602 57.2326C45.5641 59.7614 48.3469 61.0786 50.8757 60.1747Z" fill="white"/>
<path d="M46.8262 57.0425L46.9957 53.1186L49.9508 50.5389L52.7363 51.8772L52.5668 55.7951L49.6117 58.3808L46.8262 57.0425Z" fill="#FF6C37"/>
<path d="M43.1517 73.0289L39.4336 71.2123L42.1828 64.8783C42.3584 64.4725 42.5461 64.0789 42.752 63.6672L45.9796 57.6117L49.6976 59.3981L47.0453 65.6412C46.8394 66.1257 46.6154 66.598 46.3671 67.0582L43.1517 73.0289Z" fill="white"/>
<path d="M58.4414 76.2202C59.162 75.8932 70.6674 76.414 70.6674 76.414L62.3714 68.8022L58.4414 76.2202Z" fill="#FF6C37"/>
<path d="M109.225 31.5182C113.547 21.5269 108.951 9.92411 98.9593 5.60257C88.968 1.28102 77.3651 5.87726 73.0436 15.8685C68.7221 25.8598 73.3183 37.4627 83.3096 41.7842C93.3008 46.1057 104.904 41.5095 109.225 31.5182Z" fill="#FF6C37"/>
<path d="M91.7945 6.89716H90.4805V23.4528H91.7945V6.89716Z" fill="white"/>
<path d="M76.592 33.0058L77.3398 34.0862L91.1368 24.5363L90.389 23.4559L76.592 33.0058Z" fill="white"/>
<path d="M92.9516 23.7011C92.9516 24.0604 92.8451 24.4116 92.6455 24.7104C92.4459 25.0091 92.1621 25.242 91.8302 25.3795C91.4983 25.517 91.133 25.5529 90.7806 25.4828C90.4282 25.4127 90.1045 25.2397 89.8504 24.9857C89.5964 24.7316 89.4234 24.4079 89.3533 24.0555C89.2832 23.7031 89.3191 23.3379 89.4566 23.0059C89.5941 22.674 89.827 22.3902 90.1257 22.1906C90.4245 21.991 90.7757 21.8845 91.135 21.8845C91.6168 21.8845 92.0789 22.0759 92.4196 22.4165C92.7602 22.7572 92.9516 23.2193 92.9516 23.7011Z" fill="white"/>
<path d="M144.653 157.17C143.485 139.149 151.369 120.498 164.636 109.828C165.06 127.94 157.255 146.27 144.653 157.17Z" fill="#E0E0E0"/>
<path d="M162.481 114.678C156.858 125.169 152.026 136.065 148.026 147.275C143.14 160.942 139.294 175.463 130.926 186.92" stroke="#C7C7C7" stroke-miterlimit="10" stroke-linecap="round"/>
<path d="M140.463 168.506C147.184 153.47 160.525 142.11 175.233 138.894C168.972 155.008 154.887 167.3 140.463 168.506Z" fill="#E0E0E0"/>
<path d="M171.623 142.207C161.579 151.048 151.364 159.638 140.977 167.979" stroke="#C7C7C7" stroke-miterlimit="10" stroke-linecap="round"/>
<path d="M136.496 181.604C145.476 168.191 162.044 161.191 175.754 165.018C165.671 178.261 149.049 185.279 136.496 181.604Z" fill="#E0E0E0"/>
<path d="M172.466 166.005C160.87 173.296 148.201 178.719 134.922 182.076" stroke="#C7C7C7" stroke-miterlimit="10" stroke-linecap="round"/>
<path d="M141.346 163.946C144.216 148.843 139.911 132.009 130.325 120.873C126.395 135.727 130.143 153.106 141.346 163.946Z" fill="#E0E0E0"/>
<path d="M131.312 124.724C133.09 138.471 136.608 151.935 141.782 164.794" stroke="#C7C7C7" stroke-miterlimit="10" stroke-linecap="round"/>
<path d="M136.418 176.808C135.207 161.281 127.238 146.7 115.6 138.658C116.259 146.765 118.404 154.682 121.928 162.014C125.918 170.286 131.78 175.536 136.418 176.808Z" fill="#E0E0E0"/>
<path d="M117.324 141.783C121.802 154.545 128.349 166.485 136.702 177.122" stroke="#C7C7C7" stroke-miterlimit="10" stroke-linecap="round"/>
<path d="M226.299 173.083C232.651 156.558 247.263 143.151 263.376 139.07C256.316 155.371 241.904 168.512 226.299 173.083Z" fill="#E0E0E0"/>
<path d="M259.471 142.503C250.198 149.557 241.462 157.291 233.336 165.641C223.417 175.827 214.062 187.187 201.969 193.981" stroke="#C7C7C7" stroke-miterlimit="10" stroke-linecap="round"/>
<path d="M217.949 181.47C230.06 170.819 246.501 166.144 260.816 169.281C248.681 181.083 231.193 186.284 217.949 181.47Z" fill="#E0E0E0"/>
<path d="M256.268 170.764C243.753 174.543 231.203 178.027 218.615 181.216" stroke="#C7C7C7" stroke-miterlimit="10" stroke-linecap="round"/>
<path d="M209.07 191.522C222.507 183.238 240.02 183.765 250.568 192.77C236.247 200.448 218.686 199.915 209.07 191.522Z" fill="#E0E0E0"/>
<path d="M247.269 192.285C234.037 194.048 220.61 193.707 207.484 191.274" stroke="#C7C7C7" stroke-miterlimit="10" stroke-linecap="round"/>
<path d="M220.6 177.77C229.326 165.49 232.421 148.734 228.515 134.904C218.953 146.518 215.138 163.54 220.6 177.77Z" fill="#E0E0E0"/>
<path d="M227.807 138.755C223.738 151.721 221.327 165.15 220.631 178.721" stroke="#C7C7C7" stroke-miterlimit="10" stroke-linecap="round"/>
<path d="M210.972 187.199C216.253 172.872 215.211 156.631 208.211 144.714C205.473 152.202 204.124 160.127 204.233 168.1C204.36 177.116 207.387 184.171 210.972 187.199Z" fill="#E0E0E0"/>
<path d="M208.44 148.232C207.168 161.419 208.062 174.725 211.087 187.623" stroke="#C7C7C7" stroke-miterlimit="10" stroke-linecap="round"/>
<path d="M46.269 144.205C39.7896 124.385 21.7201 108.381 0.689453 103.839C9.53649 120.976 25.5653 134.613 46.269 144.205Z" fill="#E0E0E0"/>
<path d="M47.3659 147.263C40.2121 143.282 32.3182 140.809 24.1716 139.998C16.0249 139.187 7.79845 140.054 0 142.546C14.6758 149.874 31.533 151.553 47.3659 147.263Z" fill="#E0E0E0"/>
<path d="M51.2906 151.562C35.9582 149.437 19.9051 153.215 7.45508 161.857C21.5704 167.01 38.5075 163.679 51.2906 151.562Z" fill="#E0E0E0"/>
<path d="M56.0667 160.942C40.8857 160.882 25.959 168.094 17.0332 179.811C23.8173 181.159 30.8526 180.368 37.1676 177.546C43.3624 174.743 48.558 169.947 56.0667 160.942Z" fill="#E0E0E0"/>
<path d="M66.7728 176.644C51.7976 174.077 35.8535 178.715 25.0566 188.755C31.5309 191.204 38.6044 191.589 45.3061 189.857C51.8945 188.137 57.8349 184.274 66.7728 176.644Z" fill="#E0E0E0"/>
<path d="M50.6121 145.131C40.7235 131.809 38.041 113.849 43.6604 98.5769C47.9477 105.843 51.6476 113.516 53.3492 121.679C55.0508 129.841 54.7662 138.543 50.6121 145.131Z" fill="#E0E0E0"/>
<path d="M56.6493 157.987C55.5337 150.88 56.1033 143.611 58.3122 136.765C60.521 129.919 64.3072 123.687 69.3657 118.572C70.5466 133.22 66.0897 148.141 56.6493 157.987Z" fill="#E0E0E0"/>
<path d="M5.29883 107.388C35.3884 126.638 58.9139 155.329 71.3337 187.925" stroke="#C7C7C7" stroke-miterlimit="10" stroke-linecap="round"/>
<path d="M44.5918 105.601C48.2555 120.435 50.4861 135.587 51.2528 150.848" stroke="#C7C7C7" stroke-miterlimit="10" stroke-linecap="round"/>
<path d="M67.1258 124.319C65.9077 136.361 62.2243 148.023 56.3047 158.581" stroke="#C7C7C7" stroke-miterlimit="10" stroke-linecap="round"/>
<path d="M6.33398 142.891C20.1293 145.508 34.1253 146.926 48.1652 147.13" stroke="#C7C7C7" stroke-miterlimit="10" stroke-linecap="round"/>
<path d="M14.6172 160.7C27.309 159.775 39.7519 156.704 51.4163 151.617" stroke="#C7C7C7" stroke-miterlimit="10" stroke-linecap="round"/>
<path d="M22.2656 177.674L57.4721 160.113" stroke="#C7C7C7" stroke-miterlimit="10" stroke-linecap="round"/>
<path d="M29.8965 188.01C45.2229 185.049 49.7705 181.525 66.7803 176.644" stroke="#C7C7C7" stroke-miterlimit="10" stroke-linecap="round"/>
<path d="M126.898 159.949C126.898 159.949 128.224 172.102 129.707 173.077C132.36 174.827 163.061 178.872 163.061 178.872L162.056 186.86C162.056 186.86 120.007 190.638 118.22 188.537C115.12 184.904 109.67 167.306 109.67 167.306L126.898 159.949Z" fill="#E06A58"/>
<path d="M106.625 128.655L110.022 120.498C110.022 120.498 119.239 124.827 122.278 130.187C125.53 135.903 129.509 166.295 129.509 166.295C129.509 166.295 113.238 170.044 110.246 168.451C107.255 166.858 106.625 128.655 106.625 128.655Z" fill="#3171FF"/>
<path d="M80.7488 90.7957C78.369 89.9237 75.8499 89.1607 73.3006 89.3545C70.7512 89.5483 68.1474 90.9168 67.2996 93.1391C66.6941 94.7257 66.9666 96.5968 65.9916 98.0259C65.0167 99.455 63.2061 99.9637 61.4743 100.079C59.7424 100.194 57.9863 99.9697 56.2605 100.194C50.9317 100.902 47.1289 106.691 48.8789 111.433C49.5753 113.322 51.0044 115.127 50.6955 117.095C50.3504 119.202 48.1401 120.589 47.2318 122.545C46.0207 125.148 47.468 128.303 49.8478 130.078C52.2276 131.852 55.2977 132.5 58.3254 132.966C62.4613 133.572 66.7304 133.874 70.8179 133.002C74.9053 132.13 78.8111 129.975 80.9244 126.608C81.863 125.118 82.4322 123.435 83.5222 122.036C85.7749 119.147 89.7654 118.027 92.9082 115.98C96.3416 113.734 98.8607 109.362 96.8382 105.94C94.8883 102.652 89.8139 101.92 87.755 98.6738C86.9133 97.3356 86.7135 95.743 86.1685 94.2836C85.6235 92.8243 84.2549 92.0855 80.7488 90.7957Z" fill="#0A2240"/>
<path d="M94.617 131.131C95.2226 131.822 95.925 132.578 96.906 132.645C97.887 132.712 98.8074 131.985 99.4735 131.277C102.842 127.746 105.15 123.339 106.135 118.56C105.281 118.076 104.457 117.609 103.712 117.173C103.049 116.791 102.522 116.211 102.205 115.514C102 115.02 101.923 114.483 101.98 113.952C102.288 109.953 103.134 106.014 104.493 102.241C96.8999 100.527 89.7363 98.4922 85.6186 95.0527C85.116 97.1721 84.5226 101.32 83.257 105.432C81.9066 109.786 79.7993 114.091 76.2266 115.944C83.1242 119.998 89.3321 125.125 94.617 131.131Z" fill="#F9A07B"/>
<path d="M101.95 113.958C101.892 114.489 101.969 115.026 102.174 115.52C97.681 120.97 87.641 113.849 83.2266 105.438C84.4922 101.326 85.0856 97.1781 85.5882 95.0587C89.6999 98.4982 96.8695 100.509 104.463 102.247C103.103 106.02 102.257 109.959 101.95 113.958Z" fill="#E06A58"/>
<path d="M114.46 179.841C113.466 186.418 120.563 193.496 120.739 197.009C105.667 197.009 74.112 197.929 58.0165 195.743C57.2838 191.686 65.2225 182.56 65.2225 173.55C65.2225 172.339 65.1741 171.049 65.0772 169.644C64.8229 165.623 64.2294 160.839 63.5694 155.934C61.7527 142.776 59.3911 128.685 61.1472 125.784C64.5988 120.098 72.6526 116.235 76.6734 114.576C78.048 114.006 78.9442 113.697 79.0108 113.661C84.0308 122.224 94.2464 129.526 98.1037 129.199C99.1755 129.115 102.343 127.988 104.456 117.428C105.273 117.894 106.091 118.324 106.878 118.742C110.869 120.819 114.611 122.532 115.689 125.203C118.535 132.233 121.326 149.958 120.709 156.261C120.091 162.565 117.56 167.476 115.743 173.877C115.325 175.372 114.944 176.959 114.635 178.667C114.581 179.03 114.532 179.43 114.46 179.841Z" fill="#407BFF"/>
<path d="M120.739 197.009C105.667 197.009 74.112 197.929 58.0165 195.743C57.2838 191.686 65.2225 182.56 65.2225 173.55C65.2225 172.339 65.1741 171.049 65.0772 169.644C64.8229 165.623 64.2294 160.839 63.5694 155.934C66.4215 158.962 70.5816 146.246 72.4225 149.952C82.3837 170.056 90.2377 175.342 103.911 175.342C107.898 175.305 111.868 174.814 115.743 173.877C115.325 175.372 114.944 176.959 114.635 178.667C114.562 179.07 114.496 179.474 114.435 179.878C113.466 186.412 120.588 193.49 120.739 197.009Z" fill="#3171FF"/>
<path d="M106.909 118.772C106.261 123.477 104.341 129.817 98.7579 131.488C91.2128 133.747 80.2948 119.65 76.6797 114.606C78.0543 114.037 78.9505 113.728 79.0171 113.691C84.0371 122.254 94.2527 129.557 98.11 129.23C99.1818 129.145 102.349 128.019 104.462 117.458C105.28 117.888 106.097 118.318 106.909 118.772Z" fill="#3171FF"/>
<path d="M110.01 189.93L109.955 195.18L203.815 195.743L204.009 189.791L110.01 189.93Z" fill="#7D8488"/>
<path d="M244.496 143.097L242.407 140.977L174.04 140.523L139.742 190.13L141.535 191.571L244.496 143.097Z" fill="#263238"/>
<path d="M175.361 142.358L141.535 191.571L206.147 191.886L244.496 143.097L175.361 142.358Z" fill="#7D8488"/>
<path d="M191.685 173.768C195.839 173.768 199.206 172.084 199.206 170.007C199.206 167.93 195.839 166.247 191.685 166.247C187.531 166.247 184.164 167.93 184.164 170.007C184.164 172.084 187.531 173.768 191.685 173.768Z" fill="#3C738C"/>
<path d="M125.066 96.3392C126.132 90.6219 123.939 85.4172 120.168 84.7142C116.397 84.0112 112.476 88.0761 111.41 93.7934C110.344 99.5107 112.537 104.715 116.308 105.418C120.079 106.121 124 102.056 125.066 96.3392Z" fill="#56C4F9"/>
<path d="M125.063 78.382C124.361 83.3596 122.138 88.8458 118.899 94.9074C117.76 89.9419 117.034 83.8925 116.028 77.8431C115.023 71.7936 113.703 65.7321 111.444 60.7666C110.953 59.6972 110.399 58.6578 109.785 57.6541C111.124 57.5298 112.474 57.6509 113.77 58.0114C115.795 58.5595 117.662 59.5782 119.22 60.9846C121.741 63.3442 123.577 66.3429 124.53 69.6621C125.366 72.4909 125.548 75.4725 125.063 78.382Z" fill="#0B2D50"/>
<path d="M121.26 83.5291C121.224 84.5101 121.157 85.5093 121.066 86.5024C119.686 102.61 112.922 113.661 102.573 113.661C87.961 113.661 78.4902 97.275 78.4902 81.222C78.4902 65.3869 88.179 53.9239 99.5451 55.2501C106.091 56.001 110.875 58.1749 114.272 61.3601C116.489 63.4779 118.192 66.0755 119.25 68.9536C120.528 72.4604 121.205 76.1576 121.254 79.8898C121.254 79.8898 121.254 79.8898 121.254 79.9261C121.315 81.1009 121.302 82.2999 121.26 83.5291Z" fill="#F9A07B"/>
<path d="M121.26 83.5292C120.831 81.9591 120.168 80.4627 119.292 79.0905C110.496 83.6692 100.455 85.2814 90.6679 83.6866L85.1816 88.2706C85.218 80.9435 85.3209 75.9841 88.1791 72.4356C90.8617 69.105 95.3367 67.8516 99.5755 67.3066C104.351 66.6797 109.19 66.7102 113.957 67.3974C115.807 67.5765 117.606 68.1089 119.256 68.9658C120.534 72.4726 121.211 76.1698 121.26 79.9019C121.26 79.9019 121.26 79.9019 121.26 79.9383C121.315 81.1009 121.303 82.2999 121.26 83.5292Z" fill="#E06A58"/>
<path d="M123.369 73.6103C121.161 75.4009 118.684 76.8314 116.029 77.8491C108 81.0888 97.5664 82.1606 89.4339 81.767C85.4373 90.5474 83.8205 93.6963 82.7729 101.356C78.8671 97.6929 75.688 90.9834 74.7433 85.7091C73.7437 80.4186 73.9507 74.9706 75.3489 69.7711C76.2633 66.6295 77.8148 63.7097 79.9067 61.1938C81.9986 58.6778 84.5862 56.6196 87.5082 55.1472C88.3539 54.6888 89.2276 54.2843 90.1242 53.9361C95.2774 51.9438 101.085 52.1194 106.371 53.7423C109.108 54.6054 111.619 56.0657 113.722 58.0175C117.846 61.7416 120.383 66.7858 122.043 70.5644C122.606 71.721 123.011 72.7504 123.369 73.6103Z" fill="#0B2D50"/>
<path d="M125.064 78.382C124.74 76.6259 124.226 74.9102 123.532 73.2651C123.131 72.3227 122.649 71.417 122.091 70.5583C120.315 67.6346 117.583 65.4141 114.358 64.2727C113.483 63.0366 112.511 61.8723 111.451 60.7908C108.102 57.2964 103.71 54.9807 98.9347 54.1904C95.1215 53.5854 91.2184 53.9179 87.5625 55.1593C88.4081 54.7009 89.2819 54.2964 90.1785 53.9482C95.3317 51.9559 101.139 52.1315 106.425 53.7544C109.162 54.6175 111.673 56.0777 113.777 58.0296C115.802 58.5776 117.669 59.5964 119.227 61.0028C121.748 63.3623 123.584 66.3611 124.537 69.6803C125.365 72.5043 125.545 75.4787 125.064 78.382Z" fill="#225570"/>
<path d="M94.0898 88.2584C96.7906 86.7143 99.5943 86.0179 103.524 87.4531" stroke="#0B2D50" stroke-width="2" stroke-miterlimit="10" stroke-linecap="round"/>
<path d="M112.584 88.1495C114.897 86.4236 118.325 86.248 120.111 88.1495" stroke="#0B2D50" stroke-width="2" stroke-miterlimit="10" stroke-linecap="round"/>
<path d="M109.793 96.9723C110.029 98.1834 109.902 100.902 109.32 102.119" stroke="#CC454E" stroke-width="2" stroke-miterlimit="10" stroke-linecap="round"/>
<path d="M100.667 97.7777C101.282 97.7777 101.781 96.9915 101.781 96.0216C101.781 95.0517 101.282 94.2655 100.667 94.2655C100.052 94.2655 99.5527 95.0517 99.5527 96.0216C99.5527 96.9915 100.052 97.7777 100.667 97.7777Z" fill="#262D40"/>
<path d="M115.229 96.9602C115.845 96.9602 116.344 96.1739 116.344 95.2041C116.344 94.2342 115.845 93.448 115.229 93.448C114.614 93.448 114.115 94.2342 114.115 95.2041C114.115 96.1739 114.614 96.9602 115.229 96.9602Z" fill="#262D40"/>
<path d="M108.412 104.493C108.233 104.84 108.03 105.173 107.806 105.492C106.999 106.664 105.851 107.558 104.518 108.054C103.836 108.276 103.11 108.324 102.405 108.193C100.128 107.787 99.5282 105.686 99.4192 104.069C99.4045 103.779 99.4045 103.488 99.4192 103.197C99.4233 102.832 99.4517 102.468 99.504 102.107C103.077 104.106 108.412 104.493 108.412 104.493Z" fill="#CC454E"/>
<path d="M108.411 104.493C108.232 104.84 108.03 105.173 107.806 105.492C105.953 105.492 102.162 104.517 99.3945 103.197C99.3987 102.832 99.427 102.468 99.4793 102.107C103.076 104.106 108.411 104.493 108.411 104.493Z" fill="white"/>
<path d="M104.482 108.048C103.8 108.27 103.073 108.318 102.368 108.187C100.091 107.781 99.4918 105.68 99.3828 104.063C100.517 104.194 101.593 104.635 102.493 105.338C103.393 106.041 104.081 106.979 104.482 108.048Z" fill="#E8729B"/>
<path d="M82.8327 85.4669C82.9051 80.3052 83.9316 75.2014 85.8605 70.413C89.8026 60.9968 97.8382 56.9699 105.632 56.6974C108.446 56.6307 111.245 57.1243 113.867 58.1493C116.489 59.1743 118.881 60.7103 120.903 62.6681C120.903 62.6681 117.845 57.2726 111.82 55.7224C107.86 54.7051 101.883 54.5113 97.0873 56.4915C92.146 58.4958 85.9876 64.0608 83.7653 69.9407C81.5429 75.8205 80.459 84.9764 80.459 84.9764L82.8327 85.4669Z" fill="#3D86E0"/>
<path d="M81.6912 104.75C85.6941 104.346 88.4424 99.1008 87.8297 93.0352C87.217 86.9696 83.4753 82.3803 79.4725 82.7846C75.4696 83.1889 72.7213 88.4338 73.334 94.4994C73.9467 100.565 77.6883 105.154 81.6912 104.75Z" fill="#56C4F9"/>
<path d="M80.8357 103.179C83.4319 102.789 84.9798 98.7698 84.2932 94.2025C83.6065 89.6353 80.9453 86.2493 78.3492 86.6396C75.753 87.0299 74.2051 91.0488 74.8917 95.616C75.5784 100.183 78.2396 103.569 80.8357 103.179Z" fill="#3D86E0"/>
<path d="M105.681 113.885C107.835 113.885 109.581 112.798 109.581 111.457C109.581 110.116 107.835 109.029 105.681 109.029C103.527 109.029 101.781 110.116 101.781 111.457C101.781 112.798 103.527 113.885 105.681 113.885Z" fill="#3A92C9"/>
<path d="M86.0723 103.337C86.0723 103.337 91.8007 110.7 101.762 111.457" stroke="#3A92C9" stroke-width="2" stroke-miterlimit="10" stroke-linecap="round"/>
<path d="M109.955 175.911L109.579 185.6C109.579 185.6 74.5666 196.088 68.7776 192.77C65.9557 191.147 63.3276 182.221 61.3536 173.507C59.2947 164.351 57.9746 155.438 57.9746 155.438L78.5026 151.417C78.5026 151.417 78.5026 163.934 79.2111 171.17C79.4594 173.865 79.8167 175.827 80.2951 176.148C82.1057 177.34 109.955 175.911 109.955 175.911Z" fill="#F9A07B"/>
<path d="M79.2111 171.158C75.481 172.369 68.3113 174.24 61.3536 173.501C59.2947 164.345 57.9746 155.432 57.9746 155.432L78.5026 151.411C78.5026 151.411 78.5148 163.921 79.2111 171.158Z" fill="#E06A58"/>
<path d="M108.956 176.008C114.164 174.894 122.981 172.218 126.638 171.297C129.236 170.643 136 174.143 137.787 177.443C138.568 178.885 139.306 187.047 136.575 186.206C135.219 185.782 135.443 182.282 135.019 180.853C134.674 179.69 133.572 178.564 131.895 177.595C133.015 180.386 132.972 182.821 132.851 185.836C132.875 186.504 132.743 187.167 132.464 187.774C132.321 188.069 132.079 188.304 131.78 188.438C131.481 188.572 131.144 188.597 130.829 188.507C130.223 188.252 129.999 187.483 129.86 186.811C129.313 184.418 128.927 181.99 128.703 179.545C128.752 182.13 128.703 184.722 128.534 187.302C128.413 189.276 127.432 190.36 126.227 190.015C125.688 189.863 125.47 189.367 125.24 188.713C124.876 189.978 123.968 191.377 122.817 190.844C122.103 190.523 121.661 187.944 121.788 185.291C119.443 186.663 116.778 187.396 114.061 187.417C111.433 187.538 108.745 187.047 107.164 185.261C107.446 182.124 108.047 179.024 108.956 176.008Z" fill="#F9A07B"/>
<path d="M125.318 188.301C125.495 186.204 125.312 184.093 124.779 182.058" stroke="#CC454E" stroke-miterlimit="10" stroke-linecap="round"/>
<path d="M76.1953 131.107C74.7057 126.91 69.2497 118.324 69.2497 118.324C69.2497 118.324 60.9234 121.788 57.9684 127.667C52.9665 137.623 55.5098 166.204 55.5098 166.204C62.2496 169.026 75.7775 169.069 81.5484 168.257C81.5362 168.257 79.1807 139.494 76.1953 131.107Z" fill="#3171FF"/>
<path d="M77.2559 132.863C79.4153 143.048 80.7117 153.397 81.1314 163.8" stroke="#2062F5" stroke-miterlimit="10" stroke-linecap="round"/>
<path d="M255.468 194.011H16.7129V200H255.468V194.011Z" fill="#0B2D50"/>
</g>
<defs>
<clipPath id="clip0_1066_14272">
<rect width="270.243" height="200" fill="white"/>
</clipPath>
</defs>
</svg>
