<svg width="80" height="80" viewBox="0 0 80 80" fill="none" xmlns="http://www.w3.org/2000/svg">
<g clip-path="url(#clip0_1325_24973)">
<path d="M40.0542 21.8802C29.9884 21.8802 21.8242 30.0443 21.8242 40.1102C21.8242 50.176 29.9884 58.3402 40.0542 58.3402C50.1201 58.3402 58.2842 50.176 58.2842 40.1102C58.2285 30.0443 50.0713 21.8802 40.0542 21.8802Z" fill="#3880FF"/>
<path d="M66.1759 23.5102C70.7733 23.5102 74.5003 19.7833 74.5003 15.1859C74.5003 10.5885 70.7733 6.86151 66.1759 6.86151C61.5785 6.86151 57.8516 10.5885 57.8516 15.1859C57.8516 19.7833 61.5785 23.5102 66.1759 23.5102Z" fill="#3880FF"/>
<path d="M76.4099 23.5102L76.0825 22.7509L75.5392 23.4057C74.1808 24.9313 72.4393 26.1294 70.5306 26.833L69.9873 27.0489L70.2032 27.5923C71.889 31.5629 72.704 35.8121 72.704 40.1101C72.704 58.1242 58.0615 72.8155 39.9987 72.8155C21.9359 72.8155 7.34215 58.1242 7.34215 40.1101C7.34215 22.0961 21.9846 7.40484 40.0475 7.40484C44.9445 7.40484 49.6257 8.49154 54.0352 10.5604L54.5228 10.7764L54.7387 10.233C55.5537 8.33132 56.8076 6.69431 58.4377 5.39167L59.0925 4.84833L58.3332 4.4652C52.6211 1.52555 46.4701 0 39.9917 0C17.9583 0 0 17.9583 0 39.9987C0 62.0391 17.9583 79.9974 39.9987 79.9974C62.0391 79.9974 79.9974 62.0391 79.9974 39.9987C79.9974 34.3423 78.8062 28.7904 76.4099 23.5102Z" fill="#3880FF"/>
</g>
<defs>
<clipPath id="clip0_1325_24973">
<rect width="80" height="80" fill="white"/>
</clipPath>
</defs>
</svg>
