<svg width="233" height="200" viewBox="0 0 233 200" fill="none" xmlns="http://www.w3.org/2000/svg">
<g clip-path="url(#clip0_1013_9755)">
<path d="M176.291 155.972L55.1548 155.972L55.1548 62.8729C55.1548 62.2662 55.2646 61.6655 55.4777 61.105C55.6909 60.5445 56.0034 60.0352 56.3973 59.6062C56.7912 59.1772 57.2588 58.8369 57.7735 58.6047C58.2882 58.3726 58.8398 58.2531 59.3968 58.2531L172.045 58.2531C172.602 58.2531 173.153 58.3726 173.668 58.6047C174.183 58.8369 174.65 59.1772 175.044 59.6062C175.438 60.0352 175.75 60.5445 175.964 61.105C176.177 61.6655 176.287 62.2662 176.287 62.8729V155.972H176.291Z" fill="#455A64"/>
<path d="M59.4374 138.215L171.794 138.215V63.0436L59.4374 63.0436L59.4374 138.215Z" fill="white"/>
<path d="M47.6342 63.4144H19.0557L19.1049 63.1363C19.3305 61.8924 19.9446 60.772 20.8429 59.9654C21.7411 59.1588 22.8681 58.7157 24.0323 58.7116C24.3785 58.7114 24.7238 58.7507 25.0625 58.8287C25.7404 57.4254 26.7353 56.2333 27.9533 55.3647C29.1714 54.4961 30.5725 53.9796 32.0245 53.8639C33.4766 53.7483 34.9317 54.0372 36.2529 54.7035C37.574 55.3699 38.7176 56.3916 39.5758 57.6725C40.4326 57.3876 41.3356 57.3061 42.2238 57.4332C43.1121 57.5604 43.965 57.8933 44.7252 58.4097C45.4853 58.926 46.1351 59.6137 46.6307 60.4265C47.1263 61.2393 47.4563 62.1583 47.5983 63.1217L47.6342 63.4144ZM19.5842 62.9265H47.1325C46.8604 61.4908 46.1437 60.2005 45.1024 59.2716C44.0611 58.3426 42.7584 57.8315 41.4123 57.8237C40.7882 57.8227 40.168 57.9314 39.5758 58.1457L39.4235 58.1994L39.3339 58.0579C38.523 56.8023 37.4272 55.7971 36.1532 55.1405C34.8793 54.4838 33.4708 54.198 32.0652 54.311C30.6595 54.424 29.3048 54.932 28.1333 55.7854C26.9617 56.6387 26.0133 57.8083 25.3806 59.1799L25.3044 59.3458L25.1387 59.3019C24.7813 59.2043 24.4142 59.1552 24.0457 59.1555C23.0235 59.1571 22.0308 59.5282 21.2233 60.2108C20.4158 60.8933 19.8393 61.8485 19.5842 62.9265Z" fill="#6AAFE8"/>
<path d="M152.594 25.075L152.5 25.0214C142.355 19.3819 143.716 8.45916 143.734 8.35184L143.761 8.15182H143.945C150.391 8.15182 152.42 5.88824 152.456 5.86873L152.612 5.68335L152.769 5.86873C152.792 5.86873 154.816 8.15182 161.28 8.15182H161.468L161.495 8.35184C161.495 8.45916 162.87 19.3819 152.729 25.0214L152.594 25.075ZM144.137 8.61527C144.007 10.0788 143.582 19.4697 152.594 24.553C161.612 19.4697 161.181 10.0983 161.056 8.61527C155.457 8.58112 153.177 6.87856 152.594 6.33706C152.012 6.87856 149.732 8.58112 144.137 8.61527Z" fill="#6AAFE8"/>
<path d="M67.0206 124.931H55.7012V126.326H67.0206V124.931Z" fill="#1487E3"/>
<path d="M53.3404 86.4161H35.2705V61.2532H35.6961V85.9526H53.3404V86.4161Z" fill="#78C2FF"/>
<path d="M129.818 69.8392H129.388V43.891H152.38V22.065H152.81V44.3544H129.818V69.8392Z" fill="#78C2FF"/>
<path d="M204.094 98.7389H180.17V98.2755H203.664V83.1475H204.094V98.7389Z" fill="#78C2FF"/>
<path d="M25.2418 119.765C25.2418 119.765 24.7267 127.595 26.1377 128.546C27.0336 129.131 30.5231 131.112 30.42 131.473C30.317 131.834 28.4401 134.776 28.4401 134.776C28.4401 134.776 21.721 129.946 21.4836 128.434C21.2462 126.921 21.8151 116.97 22.7423 116.511C23.4367 116.165 23.7995 116.452 24.6774 117.16C25.9003 118.135 25.2418 119.765 25.2418 119.765Z" fill="#FF7E55"/>
<path d="M24.458 176.735C24.458 176.735 24.2474 178.32 24.2205 178.555C24.1937 178.789 21.8913 178.418 21.8913 178.418L21.7031 176.53C21.7031 176.53 24.1713 176.51 24.458 176.735Z" fill="#424773"/>
<path d="M24.2474 178.355C24.6563 178.89 25.14 179.353 25.6808 179.725C26.3885 180.14 27.4994 180.306 27.9205 180.735C28.2206 181.047 29.0179 182.384 26.0839 182.36C23.1499 182.335 21.7389 182.55 21.4253 182.033C21.1118 181.516 21.8733 178.247 21.8733 178.247C21.8733 178.247 22.5676 178.545 24.2474 178.355Z" fill="#292C47"/>
<path d="M35.9921 176.735C35.9921 176.735 35.7816 178.32 35.7547 178.555C35.7278 178.789 33.4254 178.418 33.4254 178.418L33.2373 176.53C33.2373 176.53 35.701 176.51 35.9921 176.735Z" fill="#424773"/>
<path d="M35.7813 178.355C36.1903 178.89 36.674 179.353 37.2147 179.725C37.9225 180.14 40.5205 180.482 40.9371 180.916C41.2417 181.223 41.7389 182.477 37.6134 182.379C34.6794 182.296 33.2684 182.569 32.9504 182.052C32.6323 181.535 33.3983 178.267 33.3983 178.267C33.3983 178.267 34.0612 178.545 35.7813 178.355Z" fill="#292C47"/>
<path d="M25.2821 136.034C25.2821 136.034 23.1186 139.781 23.2799 143.171C23.4411 146.562 23.0872 150.177 22.7602 153.714C22.3974 157.655 21.4164 165.866 21.3582 167.973C21.3 170.081 21.4254 178.028 21.4254 178.028L25.1836 177.993C25.1836 177.993 26.5274 161.958 27.1635 160.29C27.7996 158.621 30.4603 146.572 30.5678 145.24C30.6753 143.908 25.2821 136.034 25.2821 136.034Z" fill="#292C47"/>
<path d="M36.6819 136.542C36.6819 136.542 37.5375 145.752 37.7525 147.825C37.9675 149.899 37.8197 158.88 37.9272 160.178C38.0347 161.475 37.2105 175.174 37.0044 177.784L32.8789 177.754C32.8789 177.754 32.5922 166.671 32.5922 161.285C32.5922 155.899 31.3245 149.63 29.8687 146.074C28.4129 142.518 25.0848 142.435 24.1934 135.829C24.1934 135.844 35.4725 134.454 36.6819 136.542Z" fill="#292C47"/>
<path d="M27.5706 104.442C27.5706 104.442 30.1508 102.564 31.9604 104.578C33.7701 106.593 34.6481 111.315 33.3625 112.257C32.0769 113.199 29.8551 113.447 28.807 112.169C27.7588 110.891 26.6434 108.935 26.3657 107.51C26.088 106.086 26.9167 105.042 27.5706 104.442Z" fill="#EEA886"/>
<path d="M32.4848 112.579C32.4848 112.579 32.4534 114.53 32.655 114.974C32.8566 115.418 28.8878 115.404 28.8878 115.404C28.6759 113.972 28.3645 112.559 27.9561 111.179C27.3425 109.271 32.4848 112.579 32.4848 112.579Z" fill="#EEA886"/>
<path d="M28.0542 111.15C28.0542 111.15 28.426 111.559 29.4697 111.096C30.5134 110.632 31.5033 108.71 31.9199 108.423C32.3365 108.135 32.2783 107.842 32.2783 107.842L32.659 108.223L33.1517 108.13C33.1517 108.13 32.4037 106.832 32.9457 106.091C33.4877 105.349 31.2704 101.7 28.0676 103.925C28.0676 103.925 25.5636 105.417 26.0205 107.052C26.4774 108.686 27.2748 110.476 28.0542 111.15Z" fill="#754836"/>
<path d="M32.8881 114.921C32.8881 114.921 32.8881 114.116 32.5432 114.043C32.1982 113.969 28.8477 113.613 28.4355 113.789V114.725C28.4355 114.725 29.2284 115.257 32.8881 114.921Z" fill="#E2D2CA"/>
<path d="M32.0765 107.257C31.9556 106.993 31.1314 106.364 31.0687 107.281C31.0059 108.198 31.8749 109.184 32.2019 108.993C32.5289 108.803 32.3811 107.925 32.0765 107.257Z" fill="#EEA886"/>
<path d="M26.8229 104.925C26.8229 104.925 23.1363 106.003 27.9069 110.993L26.8229 104.925Z" fill="#754836"/>
<path d="M59.7953 126.292L56.0326 126.253C56.3596 126.048 56.8837 125.677 56.7673 125.512C56.6015 125.273 55.5354 125.799 55.1009 125.848C54.5748 125.839 54.0496 125.901 53.5376 126.034L52.3506 126.585L53.4391 127.682C53.4391 127.682 55.4055 127.99 55.9789 128.034C56.9151 128.107 59.7819 126.892 59.8267 126.707C59.9118 126.375 59.7953 126.292 59.7953 126.292Z" fill="#EEA886"/>
<path d="M37.7975 116.038C35.4055 115.579 32.8701 114.921 32.8701 114.921L28.4176 114.725C28.4176 114.725 24.3279 115.701 22.7198 116.496C22.5675 116.57 22.5675 120.467 22.1465 121.487L23.4903 124.555C23.4903 124.555 24.2608 130.629 24.422 133.337C24.4937 134.576 22.8318 144.967 22.8318 144.967C24.4131 145.417 26.0248 145.731 27.6517 145.903C30.6932 146.269 38.2902 145.772 38.335 145.381C38.3798 144.991 36.8658 130.819 36.7986 130.088C36.6955 128.961 37.0942 123.746 37.0942 123.746C37.6676 124.585 40.9823 127.726 42.5994 128.726C43.7461 129.439 46.5681 129.005 47.3968 128.912C49.1886 128.712 54.1652 128.322 54.2637 128.131C54.3623 127.941 53.977 126.043 53.7665 125.97C53.556 125.897 47.1728 125.556 45.5647 125.648C44.9107 125.687 42.783 123.097 42.783 123.097C42.783 123.097 39.1189 116.682 37.7975 116.038Z" fill="#FF7E55"/>
<path d="M10.4053 96.4266H22.1771V105.72V107.676L20.3809 105.72H10.4053V96.4266Z" fill="#407BFF"/>
<path d="M199.987 66.8537H188.564V54.3991H199.987V66.8537ZM188.932 66.439H199.606V54.8138H188.932V66.439Z" fill="#6AAFE8"/>
<path d="M228.457 58.9653H202.275V55.9211H228.457V58.9653ZM202.656 58.5506H228.077V56.3358H202.656V58.5506Z" fill="#6AAFE8"/>
<path d="M228.458 73.1273H188.564V70.0832H228.471L228.458 73.1273ZM188.932 72.7127H228.077V70.4979H188.932V72.7127Z" fill="#6AAFE8"/>
<path d="M213.967 78.9716H188.564V75.9275H213.981L213.967 78.9716ZM188.932 78.5374H213.568V76.3422H188.932V78.5374Z" fill="#6AAFE8"/>
<path d="M220.005 64.7754H202.275V61.7264H220.005V64.7754ZM202.656 64.3608H219.624V62.146H202.656V64.3608Z" fill="#6AAFE8"/>
<path d="M233 85.5965H184.009V47.7742H233V85.5965ZM184.39 85.1818H232.619V48.1889H184.39V85.1818Z" fill="#6AAFE8"/>
<path d="M166.732 30.8364H163.067V30.3681H166.306V26.8459H166.732V30.8364Z" fill="#6AAFE8"/>
<path d="M142.082 30.8364H138.418V26.8459H138.844V30.3681H142.082V30.8364Z" fill="#6AAFE8"/>
<path d="M138.844 3.99054H138.418V0H142.082V0.463449H138.844V3.99054Z" fill="#6AAFE8"/>
<path d="M166.732 3.99054H166.306V0.468327H163.067V0H166.732V3.99054Z" fill="#6AAFE8"/>
<path d="M166.732 9.95197H166.307V20.8845H166.732V9.95197Z" fill="#6AAFE8"/>
<path d="M138.848 9.95197H138.418V20.8845H138.848V9.95197Z" fill="#6AAFE8"/>
<path d="M35.4859 61.4874C35.1746 61.4884 34.87 61.3887 34.6107 61.2009C34.3515 61.0131 34.1493 60.7457 34.0297 60.4327C33.9102 60.1196 33.8787 59.7749 33.9392 59.4423C33.9997 59.1097 34.1495 58.8041 34.3697 58.5643C34.5898 58.3246 34.8704 58.1614 35.1758 58.0955C35.4812 58.0296 35.7977 58.0639 36.0852 58.1941C36.3727 58.3243 36.6182 58.5445 36.7906 58.8269C36.963 59.1092 37.0546 59.4409 37.0537 59.78C37.0537 60.2328 36.8885 60.6671 36.5945 60.9873C36.3005 61.3075 35.9017 61.4874 35.4859 61.4874ZM35.4859 58.536C35.26 58.536 35.0392 58.609 34.8513 58.7457C34.6635 58.8823 34.5171 59.0766 34.4306 59.3039C34.3442 59.5313 34.3216 59.7814 34.3656 60.0227C34.4097 60.264 34.5185 60.4857 34.6782 60.6596C34.838 60.8336 35.0415 60.9521 35.2631 61.0001C35.4846 61.0481 35.7143 61.0235 35.923 60.9293C36.1318 60.8351 36.3101 60.6757 36.4357 60.4711C36.5612 60.2666 36.6282 60.026 36.6282 59.78C36.6282 59.6166 36.5986 59.4549 36.5412 59.3039C36.4838 59.153 36.3997 59.0159 36.2936 58.9004C36.1875 58.7848 36.0616 58.6932 35.923 58.6307C35.7845 58.5682 35.6359 58.536 35.4859 58.536Z" fill="#78C2FF"/>
<path d="M152.595 22.2992C152.285 22.2992 151.982 22.1991 151.724 22.0115C151.466 21.8238 151.265 21.5572 151.147 21.2452C151.028 20.9332 150.997 20.5899 151.057 20.2587C151.118 19.9275 151.267 19.6232 151.487 19.3844C151.706 19.1456 151.985 18.983 152.289 18.9171C152.593 18.8513 152.909 18.8851 153.195 19.0143C153.482 19.1435 153.726 19.3624 153.899 19.6432C154.071 19.924 154.163 20.2541 154.163 20.5918C154.163 21.0446 153.998 21.4789 153.704 21.7991C153.41 22.1193 153.011 22.2992 152.595 22.2992ZM152.595 19.3722C152.369 19.3722 152.148 19.4451 151.961 19.5818C151.773 19.7185 151.626 19.9128 151.54 20.1401C151.453 20.3674 151.431 20.6176 151.475 20.8589C151.519 21.1002 151.628 21.3218 151.787 21.4958C151.947 21.6698 152.151 21.7883 152.372 21.8363C152.594 21.8843 152.824 21.8596 153.032 21.7655C153.241 21.6713 153.419 21.5119 153.545 21.3073C153.67 21.1027 153.737 20.8622 153.737 20.6162C153.74 20.4508 153.713 20.2864 153.657 20.1326C153.601 19.9789 153.517 19.8388 153.411 19.7207C153.304 19.6026 153.178 19.5088 153.037 19.4448C152.897 19.3807 152.747 19.3478 152.595 19.3478V19.3722Z" fill="#78C2FF"/>
<path d="M203.88 83.4597C203.57 83.4588 203.267 83.3578 203.01 83.1696C202.753 82.9814 202.552 82.7144 202.434 82.4023C202.316 82.0903 202.286 81.7471 202.347 81.4162C202.408 81.0853 202.558 80.7815 202.777 80.5432C202.997 80.3049 203.276 80.1428 203.58 80.0773C203.884 80.0118 204.199 80.0459 204.485 80.1753C204.771 80.3047 205.016 80.5235 205.188 80.8042C205.36 81.0849 205.452 81.4148 205.452 81.7523C205.452 81.9769 205.411 82.1994 205.332 82.4068C205.253 82.6143 205.137 82.8028 204.991 82.9614C204.845 83.12 204.672 83.2456 204.481 83.3312C204.29 83.4167 204.086 83.4604 203.88 83.4597ZM203.88 80.5083C203.654 80.5083 203.433 80.5813 203.245 80.718C203.057 80.8546 202.911 81.0489 202.824 81.2762C202.738 81.5035 202.715 81.7537 202.759 81.995C202.803 82.2363 202.912 82.458 203.072 82.6319C203.232 82.8059 203.435 82.9244 203.657 82.9724C203.878 83.0204 204.108 82.9958 204.317 82.9016C204.526 82.8074 204.704 82.648 204.829 82.4434C204.955 82.2388 205.022 81.9983 205.022 81.7523C205.024 81.5875 204.996 81.4239 204.939 81.271C204.882 81.1181 204.799 80.9789 204.692 80.8615C204.586 80.744 204.46 80.6506 204.32 80.5866C204.181 80.5227 204.031 80.4894 203.88 80.4888V80.5083Z" fill="#78C2FF"/>
<path d="M45.8912 14.04H35.1406V2.33185H45.8912V14.04ZM35.5482 13.5522H45.4656V2.77578H35.5482V13.5522Z" fill="#A1D4FF"/>
<path d="M40.7175 5.50769H40.292V10.9764H40.7175V5.50769Z" fill="#A1D4FF"/>
<path d="M43.0204 8.00549H37.999V8.46894H43.0204V8.00549Z" fill="#A1D4FF"/>
<path d="M210.012 28.1874H194.616V16.2207H210.012V28.1874ZM195.042 27.6996H209.582V16.6842H195.042V27.6996Z" fill="#A1D4FF"/>
<path d="M202.312 23.4651L194.692 16.6305L194.966 16.2695L202.312 22.8651L209.663 16.2695L209.931 16.6305L202.312 23.4651Z" fill="#A1D4FF"/>
<path d="M204.418 21.4393L204.109 21.7582L209.634 28.1006L209.943 27.7816L204.418 21.4393Z" fill="#A1D4FF"/>
<path d="M200.185 21.4362L194.666 27.7838L194.975 28.1024L200.494 21.7548L200.185 21.4362Z" fill="#A1D4FF"/>
<path d="M72.7679 40.2127L72.6067 39.7541C72.4636 39.735 72.3226 39.7007 72.1856 39.6517L71.8586 39.9834L70.909 39.2468L71.0926 38.8028C71.003 38.6792 70.9264 38.545 70.8642 38.4028H70.4163L70.2236 37.1539L70.6402 36.9783C70.6576 36.822 70.6906 36.6682 70.7388 36.5197L70.4297 36.1636L71.1061 35.1294L71.5137 35.3294C71.6279 35.2329 71.751 35.1495 71.881 35.0806V34.5928L73.0277 34.383L73.189 34.8367C73.3322 34.8574 73.4733 34.8934 73.6101 34.944L73.9371 34.6074L74.8867 35.344L74.703 35.788C74.7917 35.9124 74.8682 36.0464 74.9315 36.188H75.3794L75.5765 37.4418L75.1554 37.6125C75.1385 37.7689 75.1055 37.9227 75.0569 38.0711L75.366 38.4272L74.6896 39.4614L74.282 39.2614C74.1677 39.3579 74.0447 39.4413 73.9147 39.5102V39.998L72.7679 40.2127ZM72.1095 39.237L72.2035 39.276C72.374 39.3494 72.5537 39.3938 72.7366 39.4078H72.8351L72.974 39.798L73.6011 39.6858V39.2663L73.6952 39.2224C73.8559 39.1372 74.0064 39.0307 74.1431 38.9053L74.2192 38.837L74.5686 39.0077L74.9404 38.4418L74.6761 38.1345L74.712 38.032C74.7789 37.848 74.8197 37.6538 74.8329 37.4564V37.3442L75.1913 37.1978L75.0883 36.51H74.703L74.6627 36.4124C74.5865 36.2361 74.4886 36.072 74.3716 35.9246L74.3088 35.8416L74.4656 35.4562L73.946 35.0513L73.6638 35.3392L73.5697 35.3001C73.4 35.2299 73.2221 35.1855 73.0412 35.1684H72.9381L72.8038 34.7781L72.1722 34.8952V35.3099L72.0826 35.3587C71.9207 35.4396 71.7699 35.5447 71.6346 35.6709L71.5585 35.7392L71.2091 35.5684L70.8373 36.1392L71.1016 36.4417L71.0658 36.5441C70.9984 36.7298 70.9576 36.9256 70.9448 37.1247V37.232L70.5865 37.3832L70.694 38.0662H71.0747L71.115 38.1686C71.1922 38.3444 71.2901 38.5083 71.4062 38.6565L71.4689 38.7394L71.3121 39.1199L71.8362 39.5248L72.1095 39.237ZM72.9023 38.6565C72.7024 38.6572 72.5052 38.6064 72.3268 38.5082C72.1484 38.4101 71.9938 38.2674 71.8757 38.0918C71.7576 37.9162 71.6793 37.7126 71.6471 37.4978C71.615 37.2829 71.63 37.0628 71.6909 36.8555C71.7517 36.6482 71.8568 36.4594 71.9974 36.3047C72.138 36.15 72.3102 36.0337 72.4999 35.9653C72.6897 35.8968 72.8916 35.8783 73.0892 35.911C73.2868 35.9438 73.4745 36.027 73.6369 36.1539C73.8423 36.3112 73.9999 36.5315 74.0897 36.7868C74.1796 37.0421 74.1975 37.3208 74.1413 37.5873C74.085 37.8537 73.9572 38.0959 73.774 38.2829C73.5908 38.4698 73.3606 38.5931 73.1128 38.637C73.0437 38.6542 72.9732 38.664 72.9023 38.6662V38.6565ZM72.9023 36.2514C72.7648 36.2516 72.629 36.2843 72.5042 36.3473C72.3795 36.4102 72.2688 36.5019 72.1798 36.616C72.0907 36.7301 72.0255 36.8639 71.9886 37.0082C71.9517 37.1525 71.9441 37.3037 71.9661 37.4515C72.0097 37.7204 72.1479 37.9602 72.3513 38.1199C72.5572 38.2767 72.8112 38.3397 73.0591 38.2955C73.2433 38.2615 73.4142 38.1687 73.5501 38.029C73.686 37.8892 73.7807 37.7087 73.8224 37.5103C73.8642 37.3119 73.8509 37.1045 73.7844 36.9143C73.7179 36.7241 73.6011 36.5596 73.4488 36.4417C73.29 36.3211 73.1004 36.2579 72.9068 36.2612L72.9023 36.2514Z" fill="#A1D4FF"/>
<path d="M63.8715 41.6713L63.5132 40.6518C63.1318 40.6032 62.7563 40.51 62.3933 40.3737L61.6632 41.1152L59.6833 39.5834L60.0909 38.6077C59.8516 38.2794 59.6473 37.9226 59.4817 37.5442L58.4783 37.5101L58.0752 34.9001L59.0114 34.5098C59.0538 34.0941 59.1395 33.6849 59.2667 33.2902L58.5858 32.4951L59.9924 30.3388L60.8883 30.7827C61.1886 30.5205 61.5164 30.2978 61.8648 30.1193L61.8961 29.0265L64.2926 28.5875L64.6509 29.607C65.0327 29.6533 65.4084 29.7466 65.7708 29.8851L66.5009 29.1387L68.4808 30.6754L68.0732 31.6511C68.3139 31.9793 68.5197 32.3361 68.6869 32.7146L69.6858 32.7487L70.0889 35.3587L69.1527 35.749C69.1103 36.1647 69.0246 36.5739 68.8974 36.9686L69.5828 37.7637L68.1717 39.92L67.2759 39.4761C66.9744 39.7367 66.6468 39.9592 66.2994 40.1395L66.268 41.2323L63.8715 41.6713ZM62.2948 39.8322L62.4202 39.8858C62.825 40.0573 63.2505 40.1641 63.6834 40.2029H63.8178L64.1448 41.1347L65.8514 40.8176L65.8828 39.8419L66.0037 39.7834C66.4009 39.5892 66.7717 39.3364 67.1056 39.0321L67.2087 38.9394L68.0463 39.3443L69.0497 37.8077L68.4226 37.0808L68.4674 36.9442C68.6253 36.5018 68.7234 36.0367 68.7585 35.5636V35.4221L69.6141 35.066L69.3274 33.2073L68.4091 33.1732L68.3554 33.0414C68.1771 32.6089 67.945 32.2051 67.6656 31.8414L67.5805 31.7292L67.9523 30.8169L66.5412 29.7241L65.8738 30.4071L65.7529 30.3583C65.3463 30.1874 64.9195 30.0806 64.4852 30.0412H64.3508L64.0238 29.1095L62.3172 29.4217L62.2858 30.3974L62.1649 30.4559C61.7668 30.6483 61.3958 30.9013 61.0629 31.2072L60.9599 31.2999L60.1268 30.8949L59.1234 32.4316L59.7505 33.1585L59.7012 33.2951C59.5438 33.736 59.4457 34.1994 59.4101 34.6708V34.8172L58.5545 35.1733L58.8457 37.032L59.7415 37.0661L59.7953 37.1978C59.9736 37.6304 60.2057 38.0342 60.4851 38.3979L60.5702 38.5101L60.1984 39.4175L61.6094 40.5103L62.2948 39.8322ZM64.0865 38.1296C63.4664 38.1324 62.8634 37.9079 62.3745 37.4923C61.8857 37.0766 61.5394 36.494 61.3913 35.8381C61.2433 35.1822 61.3021 34.4912 61.5584 33.8761C61.8146 33.261 62.2533 32.7577 62.804 32.447C63.3547 32.1363 63.9853 32.0364 64.5945 32.1633C65.2036 32.2902 65.7558 32.6365 66.1624 33.1466C66.5689 33.6566 66.8061 34.3008 66.8359 34.9754C66.8656 35.6501 66.6861 36.316 66.3262 36.8661C66.0723 37.2557 65.7365 37.5737 65.347 37.7934C64.9574 38.0132 64.5253 38.1285 64.0865 38.1296ZM64.0865 32.5731C63.7461 32.5721 63.4096 32.6521 63.1007 32.8077C62.7917 32.9632 62.5177 33.1905 62.2979 33.4736C62.0781 33.7566 61.9178 34.0887 61.8283 34.4463C61.7387 34.804 61.7222 35.1787 61.7797 35.5441C61.8976 36.1948 62.2441 36.7697 62.7453 37.1465C63.2465 37.5233 63.863 37.6723 64.4635 37.5617C65.064 37.4511 65.6012 37.0897 65.9608 36.5544C66.3204 36.019 66.474 35.352 66.3889 34.6952C66.2961 34.1028 66.0142 33.5652 65.593 33.177C65.1718 32.7887 64.6383 32.5749 64.0865 32.5731Z" fill="#A1D4FF"/>
<path d="M7.97365 44.1154C5.8574 44.118 3.82681 43.2052 2.32829 41.5778C0.829774 39.9504 -0.0140167 37.7415 -0.0175781 35.4367H0.430361C0.430361 37.0615 0.872767 38.6499 1.70164 40.0009C2.5305 41.3518 3.70861 42.4048 5.08696 43.0266C6.46532 43.6484 7.98202 43.8111 9.44528 43.4941C10.9085 43.1771 12.2526 42.3947 13.3076 41.2458C14.3625 40.0968 15.0809 38.633 15.372 37.0394C15.6631 35.4458 15.5137 33.794 14.9428 32.2929C14.3718 30.7917 13.405 29.5087 12.1645 28.606C10.924 27.7033 9.46558 27.2215 7.97365 27.2215V26.7336C10.0871 26.7336 12.114 27.648 13.6085 29.2756C15.1029 30.9031 15.9425 33.1106 15.9425 35.4123C15.9425 37.7141 15.1029 39.9215 13.6085 41.5491C12.114 43.1767 10.0871 44.091 7.97365 44.091V44.1154ZM7.97365 42.9104C6.61639 42.9104 5.28962 42.4721 4.1611 41.6509C3.03258 40.8297 2.153 39.6624 1.6336 38.2968C1.1142 36.9311 0.9783 35.4284 1.24309 33.9787C1.50788 32.5289 2.16146 31.1972 3.12119 30.152C4.08092 29.1068 5.30368 28.395 6.63486 28.1066C7.96604 27.8182 9.34585 27.9662 10.5998 28.5319C11.8537 29.0976 12.9255 30.0555 13.6796 31.2845C14.4336 32.5136 14.8361 33.9586 14.8361 35.4367H14.3881C14.3899 34.0488 14.0133 32.6915 13.3061 31.5368C12.5989 30.3822 11.5929 29.4822 10.4156 28.9508C9.23823 28.4195 7.94255 28.2807 6.69272 28.552C5.44289 28.8234 4.29515 29.4927 3.39494 30.4752C2.49473 31.4576 1.88256 32.709 1.636 34.0707C1.38943 35.4325 1.51958 36.8433 2.00995 38.1244C2.50031 39.4055 3.32882 40.4992 4.3905 41.267C5.45218 42.0348 6.69923 42.4421 7.97365 42.4372V42.9104Z" fill="#78C2FF"/>
<path d="M6.99238 38.3101L4.12109 35.1782L4.42121 34.8514L6.99238 37.6516L11.521 32.7244L11.8212 33.0512L6.99238 38.3101Z" fill="#78C2FF"/>
<path d="M176.287 141.864H115.739H55.1954L41.9453 195.805H116.137H189.537L176.287 141.864Z" fill="#3E515A"/>
<path d="M59.7771 151.328H67.2174C67.2843 151.321 67.3519 151.33 67.415 151.355C67.4782 151.381 67.5353 151.421 67.5822 151.473C67.6291 151.526 67.6646 151.589 67.686 151.659C67.7073 151.728 67.7141 151.802 67.7057 151.875L66.9845 155.402C66.9534 155.514 66.8882 155.612 66.7996 155.68C66.711 155.747 66.6041 155.78 66.4962 155.772H58.9305C58.8627 155.779 58.7943 155.769 58.7306 155.743C58.6668 155.716 58.6095 155.675 58.5628 155.621C58.5162 155.566 58.4815 155.501 58.4614 155.431C58.4412 155.36 58.4363 155.285 58.4468 155.211L59.2934 151.689C59.3272 151.58 59.3927 151.486 59.4799 151.421C59.5672 151.356 59.6715 151.323 59.7771 151.328Z" fill="white"/>
<path d="M70.6309 151.328H76.2526L75.5045 155.772H69.7754L70.6309 151.328Z" fill="white"/>
<path d="M79.0654 151.328H84.687L84.1002 155.772L78.3711 155.777L79.0654 151.328Z" fill="white"/>
<path d="M87.5008 151.328H93.1269L92.6969 155.772H86.9678L87.5008 151.328Z" fill="white"/>
<path d="M95.9397 151.328H101.561L101.293 155.772H95.5635L95.9397 151.328Z" fill="white"/>
<path d="M104.374 151.328H110L109.893 155.772L104.159 155.777L104.374 151.328Z" fill="white"/>
<path d="M171.883 151.328H163.448L164.358 155.772H172.953L171.883 151.328Z" fill="white"/>
<path d="M160.635 151.328H155.014L155.762 155.772H161.491L160.635 151.328Z" fill="white"/>
<path d="M152.2 151.328H146.574L147.161 155.772L152.895 155.777L152.2 151.328Z" fill="white"/>
<path d="M143.761 151.328H138.14L138.565 155.772H144.299L143.761 151.328Z" fill="white"/>
<path d="M135.327 151.328H129.701L129.97 155.772H135.699L135.327 151.328Z" fill="white"/>
<path d="M126.887 151.328H121.266L121.373 155.772L127.102 155.777L126.887 151.328Z" fill="white"/>
<path d="M112.809 151.328H118.435L118.529 155.772H112.809V151.328Z" fill="white"/>
<path d="M57.3045 159.085H69.0539L68.3865 163.671H56.4131L57.3045 159.085Z" fill="white"/>
<path d="M173.72 159.085H159.193L160.018 163.671H174.822L173.72 159.085Z" fill="white"/>
<path d="M156.286 159.085H150.477L151.14 163.671H157.061L156.286 159.085Z" fill="white"/>
<path d="M147.57 159.085H141.76L142.257 163.671H148.179L147.57 159.085Z" fill="white"/>
<path d="M138.852 159.085H133.042L133.373 163.671H139.295L138.852 159.085Z" fill="white"/>
<path d="M130.135 159.085H124.325L124.491 163.671H130.413L130.135 159.085Z" fill="white"/>
<path d="M55.5486 167.261H67.5624L66.6844 171.817H54.4512L55.5486 167.261Z" fill="white"/>
<path d="M70.5683 167.261H76.5752L75.863 171.817H69.7441L70.5683 167.261Z" fill="white"/>
<path d="M79.5768 167.261H85.5837H124.631L124.801 171.817H78.9229L79.5768 167.261Z" fill="white"/>
<path d="M127.636 167.261H133.647L133.974 171.817H127.855L127.636 167.261Z" fill="white"/>
<path d="M136.648 167.261H142.655L143.148 171.817H137.034L136.648 167.261Z" fill="white"/>
<path d="M145.661 167.261H151.668L152.326 171.817H146.208L145.661 167.261Z" fill="white"/>
<path d="M154.674 167.261H160.681L161.5 171.817H155.386L154.674 167.261Z" fill="white"/>
<path d="M163.682 167.261H175.7L176.793 171.817H164.56L163.682 167.261Z" fill="white"/>
<path d="M121.431 159.085H115.671V163.671H121.543L121.431 159.085Z" fill="white"/>
<path d="M112.719 159.085H106.905L106.739 163.671H112.661L112.719 159.085Z" fill="white"/>
<path d="M104.003 159.085H98.1928L97.8613 163.671H103.783L104.003 159.085Z" fill="white"/>
<path d="M95.2855 159.085H89.4757L88.9785 163.671H94.9003L95.2855 159.085Z" fill="white"/>
<path d="M86.5684 159.085H80.7587L80.0957 163.671H86.0175L86.5684 159.085Z" fill="white"/>
<path d="M77.8514 159.085H72.0416L71.2129 163.671H77.1346L77.8514 159.085Z" fill="white"/>
<path d="M60.0508 148.533L61.0049 144.562H63.7373L62.8459 148.533H60.0508Z" fill="white"/>
<path d="M66.4694 144.562H71.9298L71.1683 148.533H65.6094L66.4694 144.562Z" fill="white"/>
<path d="M74.662 144.562H80.1224L79.4998 148.533H73.9453L74.662 144.562Z" fill="white"/>
<path d="M82.8556 144.562H88.316L87.8367 148.533H82.2822L82.8556 144.562Z" fill="white"/>
<path d="M91.0437 144.562H96.5086L96.1726 148.533H90.6182L91.0437 144.562Z" fill="white"/>
<path d="M99.2369 144.562H104.702L104.509 148.533H98.9502L99.2369 144.562Z" fill="white"/>
<path d="M107.429 144.562H112.894L112.845 148.533H107.286L107.429 144.562Z" fill="white"/>
<path d="M115.622 144.562H121.082L121.181 148.533H115.622V144.562Z" fill="white"/>
<path d="M123.814 144.562H129.275L129.517 148.533H123.958L123.814 144.562Z" fill="white"/>
<path d="M132.008 144.562H137.468L137.853 148.533H132.294L132.008 144.562Z" fill="white"/>
<path d="M140.2 144.562H145.661L146.185 148.533H140.63L140.2 144.562Z" fill="white"/>
<path d="M148.394 144.562H153.854L154.521 148.533H148.967L148.394 144.562Z" fill="white"/>
<path d="M156.586 144.562H162.046L162.857 148.533H157.303L156.586 144.562Z" fill="white"/>
<path d="M164.779 144.562H170.24L171.194 148.533H165.635L164.779 144.562Z" fill="white"/>
<path d="M185.679 200.01H45.8015C44.7794 200.008 43.7996 199.565 43.0772 198.778C42.3549 197.99 41.9492 196.923 41.9492 195.809H189.536C189.536 196.923 189.13 197.992 188.407 198.78C187.683 199.567 186.702 200.01 185.679 200.01Z" fill="#263238"/>
<path d="M132.899 178.374C132.831 177.911 132.613 177.491 132.284 177.189C131.955 176.887 131.538 176.724 131.107 176.73H100.365C99.9352 176.724 99.5175 176.887 99.1885 177.189C98.8595 177.491 98.6413 177.911 98.5736 178.374L96.6519 191.058C96.6064 191.341 96.6188 191.631 96.6882 191.908C96.7576 192.185 96.8823 192.442 97.0535 192.661C97.2246 192.88 97.438 193.054 97.6783 193.173C97.9186 193.291 98.1799 193.35 98.4437 193.346H133.02C133.284 193.35 133.545 193.291 133.785 193.173C134.026 193.054 134.239 192.88 134.41 192.661C134.581 192.442 134.706 192.185 134.776 191.908C134.845 191.631 134.857 191.341 134.812 191.058L132.899 178.374Z" fill="#4D78EB"/>
<path d="M79.5359 69.4197H67.0205V70.815H79.5359V69.4197Z" fill="#E0E0E0"/>
<path d="M92.0779 79.9278H83.043V81.323H92.0779V79.9278Z" fill="#E0E0E0"/>
<path d="M99.4872 79.9278H93.4893V81.323H99.4872V79.9278Z" fill="#1487E3"/>
<path d="M73.162 106.359H67.1641V107.754H73.162V106.359Z" fill="#1487E3"/>
<path d="M115.147 79.9278H100.67V81.323H115.147V79.9278Z" fill="#E0E0E0"/>
<path d="M76.4678 101.066H67.1641V102.461H76.4678V101.066Z" fill="#E0E0E0"/>
<path d="M85.8166 111.613H80.1367V113.008H85.8166V111.613Z" fill="#E0E0E0"/>
<path d="M78.4163 111.613H67.1641V113.008H78.4163V111.613Z" fill="#1487E3"/>
<path d="M73.3725 116.867H67.1641V118.262H73.3725V116.867Z" fill="#E0E0E0"/>
<path d="M90.8598 69.4197H81.9727V70.815H90.8598V69.4197Z" fill="#78C2FF"/>
<path d="M90.8598 85.1818H81.9727V86.577H90.8598V85.1818Z" fill="#1487E3"/>
<path d="M81.3327 90.4359H77.5342V91.8311H81.3327V90.4359Z" fill="#E0E0E0"/>
<path d="M82.2641 95.768H73.7354V97.1632H82.2641V95.768Z" fill="#78C2FF"/>
<path d="M95.3256 95.768H83.5537V97.1632H95.3256V95.768Z" fill="#1487E3"/>
<path d="M76.0512 90.4749H67.1641V91.8701H76.0512V90.4749Z" fill="#1487E3"/>
<path d="M72.4363 95.768H67.1641V97.1632H72.4363V95.768Z" fill="#1487E3"/>
<path d="M88.0913 90.4749H83.1191V91.8701H88.0913V90.4749Z" fill="#FF6C37"/>
<path d="M72.2885 122.121H67.3164V123.516H72.2885V122.121Z" fill="#FF6C37"/>
<path d="M76.015 79.9278H67.1279V81.323H76.015V79.9278Z" fill="#78C2FF"/>
<path d="M83.8764 106.359H74.9893V107.754H83.8764V106.359Z" fill="#78C2FF"/>
<path d="M83.9838 116.867H75.0967V118.262H83.9838V116.867Z" fill="#78C2FF"/>
<path d="M99.7699 116.867H90.8828V118.262H99.7699V116.867Z" fill="#78C2FF"/>
<path d="M79.7956 85.1818H67.1279V86.577H79.7956V85.1818Z" fill="#78C2FF"/>
<path d="M135.371 69.4197H126.484V70.815H135.371V69.4197Z" fill="#78C2FF"/>
<path d="M103.72 122.121H94.833V123.516H103.72V122.121Z" fill="#78C2FF"/>
<path d="M144.084 69.4197H138.136V70.815H144.084V69.4197Z" fill="#78C2FF"/>
<path d="M164.205 74.6738H158.257V76.069H164.205V74.6738Z" fill="#78C2FF"/>
<path d="M104.571 69.4197H93.252V70.815H104.571V69.4197Z" fill="#1487E3"/>
<path d="M148.68 74.6738H137.36V76.069H148.68V74.6738Z" fill="#1487E3"/>
<path d="M134.798 79.9278H123.479V81.323H134.798V79.9278Z" fill="#1487E3"/>
<path d="M120.057 85.1818H108.737V86.577H120.057V85.1818Z" fill="#1487E3"/>
<path d="M144.272 79.9278H136.223V81.323H144.272V79.9278Z" fill="#78C2FF"/>
<path d="M124.268 69.4197H112.948V70.815H124.268V69.4197Z" fill="#FF6C37"/>
<path d="M106.668 85.1818H100.029V86.577H106.668V85.1818Z" fill="#FF6C37"/>
<path d="M101.471 106.437H94.833V107.832H101.471V106.437Z" fill="#FF6C37"/>
<path d="M110.811 69.4197H106.668V70.815H110.811V69.4197Z" fill="#E0E0E0"/>
<path d="M97.3954 85.1818H93.252V86.577H97.3954V85.1818Z" fill="#E0E0E0"/>
<path d="M155.556 74.6738H151.412V76.069H155.556V74.6738Z" fill="#E0E0E0"/>
<path d="M73.5022 74.6738H67.0205V76.069H73.5022V74.6738Z" fill="#1487E3"/>
<path d="M89.4403 101.105H84.3203V102.5H89.4403V101.105Z" fill="#1487E3"/>
<path d="M77.1886 74.6738H75.0967V76.069H77.1886V74.6738Z" fill="#1487E3"/>
<path d="M135.367 74.6738H118.067V76.069H135.367V74.6738Z" fill="#E0E0E0"/>
<path d="M118.771 116.867H101.467V118.262H118.771V116.867Z" fill="#E0E0E0"/>
<path d="M80.8662 74.6738H78.7295V76.069H80.8662V74.6738Z" fill="#FF6C37"/>
<path d="M116.473 74.6738H110.812V76.069H116.473V74.6738Z" fill="#1487E3"/>
<path d="M122.131 79.9278H116.469V81.323H122.131V79.9278Z" fill="#FF6C37"/>
<path d="M93.0282 122.121H87.3662V123.516H93.0282V122.121Z" fill="#FF6C37"/>
<path d="M109.315 74.6738H97.2695V76.069H109.315V74.6738Z" fill="#1487E3"/>
<path d="M93.0947 106.437H86.0576V107.832H93.0947V106.437Z" fill="#1487E3"/>
<path d="M89.1263 116.867H85.6055V118.262H89.1263V116.867Z" fill="#1487E3"/>
<path d="M95.5585 74.6738H91.415V76.069H95.5585V74.6738Z" fill="#78C2FF"/>
<path d="M81.6102 79.9278H77.4668V81.323H81.6102V79.9278Z" fill="#FF6C37"/>
<path d="M82.4384 101.105H78.2949V102.5H82.4384V101.105Z" fill="#FF6C37"/>
<path d="M89.8341 74.6738H82.6133V76.069H89.8341V74.6738Z" fill="#1487E3"/>
<g opacity="0.76">
<path d="M188.332 86.9283H135.972C134.98 86.9283 134.176 87.8041 134.176 88.8845V128.419C134.176 129.5 134.98 130.375 135.972 130.375H188.332C189.324 130.375 190.128 129.5 190.128 128.419V88.8845C190.128 87.8041 189.324 86.9283 188.332 86.9283Z" fill="white"/>
</g>
<path d="M184.085 109.286H175.068C174.687 109.286 174.378 109.622 174.378 110.037V111.555C174.378 111.969 174.687 112.306 175.068 112.306H184.085C184.466 112.306 184.775 111.969 184.775 111.555V110.037C184.775 109.622 184.466 109.286 184.085 109.286Z" fill="#4AAFFF"/>
<path d="M184.085 114.94H175.068C174.687 114.94 174.378 115.276 174.378 115.691V117.209C174.378 117.623 174.687 117.96 175.068 117.96H184.085C184.466 117.96 184.775 117.623 184.775 117.209V115.691C184.775 115.276 184.466 114.94 184.085 114.94Z" fill="#4AAFFF"/>
<path d="M184.085 120.594H175.068C174.687 120.594 174.378 120.931 174.378 121.345V122.863C174.378 123.278 174.687 123.614 175.068 123.614H184.085C184.466 123.614 184.775 123.278 184.775 122.863V121.345C184.775 120.931 184.466 120.594 184.085 120.594Z" fill="#4AAFFF"/>
<path d="M169.357 102.554C168.673 100.474 167.621 98.5611 166.259 96.9243C164.896 95.2876 163.252 93.959 161.418 93.0145C159.585 92.07 157.598 91.528 155.573 91.4196C153.547 91.3111 151.521 91.6383 149.611 92.3824C147.702 93.1265 145.945 94.273 144.442 95.7563C142.939 97.2397 141.719 99.031 140.852 101.028C139.985 103.025 139.487 105.188 139.388 107.394C139.288 109.601 139.589 111.807 140.272 113.886C140.388 114.243 140.514 114.589 140.653 114.93C142.254 118.928 145.218 122.092 148.919 123.755C152.621 125.418 156.772 125.451 160.495 123.845C164.218 122.24 167.223 119.122 168.877 115.15C170.53 111.178 170.702 106.662 169.357 102.554ZM158.713 120.116C156.499 120.973 154.098 121.075 151.829 120.411C149.56 119.746 147.531 118.345 146.01 116.394C145.276 115.447 144.672 114.389 144.218 113.252C144.115 112.994 144.021 112.735 143.931 112.467C143.16 110.118 143.045 107.574 143.602 105.154C144.158 102.735 145.361 100.55 147.058 98.8748C148.755 97.1999 150.869 96.1105 153.135 95.7445C155.4 95.3785 157.714 95.7522 159.784 96.8185C161.855 97.8848 163.588 99.5957 164.765 101.735C165.943 103.874 166.511 106.345 166.399 108.837C166.287 111.328 165.499 113.727 164.135 115.73C162.771 117.733 160.892 119.251 158.736 120.092L158.713 120.116Z" fill="#4AAFFF"/>
<path d="M143.77 104.461L140.079 103.208C141.039 99.8682 142.929 96.9371 145.488 94.8215C148.048 92.7058 151.148 91.5106 154.359 91.4018L154.476 95.6119C152.068 95.6914 149.743 96.5866 147.824 98.1727C145.905 99.7588 144.488 101.957 143.77 104.461Z" fill="#1A598C"/>
<path d="M144.218 113.252L140.635 114.93C140.496 114.589 140.371 114.243 140.254 113.886C139.12 110.446 139.049 106.696 140.053 103.208L143.744 104.461C142.991 107.076 143.043 109.887 143.891 112.467C143.999 112.735 144.093 112.994 144.218 113.252Z" fill="#2273B5"/>
<path d="M143.045 119.121C142.056 117.861 141.244 116.449 140.635 114.93L144.178 113.252C144.632 114.389 145.236 115.447 145.97 116.394L143.045 119.121Z" fill="#3788CC"/>
<path d="M159.968 118.194C159.968 118.194 159.22 116.769 160.416 112.95C160.608 112.239 160.984 111.604 161.499 111.12C162.014 110.636 162.646 110.324 163.319 110.221C163.993 110.119 164.679 110.229 165.296 110.54C165.913 110.851 166.435 111.349 166.799 111.974C168.063 114.345 167.637 115.813 165.778 118.487C163.919 121.16 160.743 119.418 159.968 118.194Z" fill="#EEA886"/>
<path d="M169.195 183.94C169.195 183.94 169.392 185.506 169.415 185.745C169.437 185.984 171.601 185.604 171.601 185.604L171.78 183.735C171.78 183.735 169.464 183.716 169.195 183.94Z" fill="#EEA886"/>
<path d="M169.393 185.545C169.012 186.071 168.559 186.528 168.049 186.902C167.386 187.316 166.347 187.477 165.957 187.906C165.671 188.214 164.927 189.541 167.677 189.511C170.428 189.482 171.754 189.697 172.049 189.189C172.345 188.682 171.624 185.438 171.624 185.438C170.889 185.592 170.137 185.628 169.393 185.545Z" fill="black"/>
<path d="M154.226 183.94C154.226 183.94 154.423 185.506 154.45 185.745C154.476 185.984 156.636 185.604 156.636 185.604L156.81 183.735C156.81 183.735 154.521 183.716 154.226 183.94Z" fill="#EEA886"/>
<path d="M154.427 185.545C154.047 186.071 153.593 186.528 153.083 186.902C152.42 187.316 149.979 187.653 149.589 188.077C149.307 188.389 148.837 189.629 152.725 189.511C155.475 189.429 156.806 189.697 157.097 189.189C157.388 188.682 156.671 185.438 156.671 185.438C155.928 185.554 155.177 185.59 154.427 185.545Z" fill="black"/>
<path d="M168.466 144.884C168.466 144.884 169.576 148.635 169.429 151.87C169.281 155.104 170.002 158.636 170.298 162.017C170.625 165.778 171.968 174.701 172.013 176.706C172.058 178.711 171.807 185.15 171.807 185.15L169.12 185.223C169.12 185.223 166.88 169.642 166.284 168.051C165.688 166.461 162.804 155.124 162.701 153.855C162.598 152.587 168.466 144.884 168.466 144.884Z" fill="#407BFF"/>
<path d="M157.339 144.474C157.339 144.474 155.708 154.392 155.511 156.372C155.314 158.353 155.189 165.944 155.09 167.183C154.991 168.422 154.441 183.365 153.921 185.204H156.918C156.918 185.204 159.99 174.34 159.99 169.198C159.99 164.056 162.024 158.021 163.337 154.631C164.649 151.24 167.659 151.157 168.465 144.874C168.465 144.884 158.432 142.479 157.339 144.474Z" fill="#407BFF"/>
<path d="M161.057 119.204C161.243 119.799 161.243 120.443 161.057 121.038C160.716 121.804 165.371 121.345 165.371 121.345C165.261 120.364 165.399 119.369 165.769 118.467C166.374 117.17 161.057 119.204 161.057 119.204Z" fill="#EEA886"/>
<path d="M168.685 145.679C168.685 145.679 167.01 147.552 157.187 145.391L157.339 144.474L168.506 144.933L168.685 145.679Z" fill="#2B3B57"/>
<path d="M160.344 121.287C160.344 121.287 158.624 121.477 158.132 121.58C157.639 121.682 154.338 120.936 153.652 120.858C152.967 120.78 150.069 118.628 149.988 118.37C149.907 118.111 148.232 113.525 148.138 112.516C148.044 111.506 146.517 112.028 146.647 112.716C146.893 113.999 147.206 117.106 147.377 118.004C147.547 118.901 148.062 121.18 148.344 121.448C149.985 122.864 151.818 123.993 153.778 124.795C155.345 125.361 156.848 126.121 158.257 127.058H170.799C170.799 127.058 175.686 119.458 175.789 118.311C175.892 117.165 172.381 109.53 171.677 108.593C170.974 107.657 169.962 108.906 169.962 108.906C169.962 108.906 172.063 115.623 172.345 116.574C172.627 117.526 169.899 121.726 169.151 121.741C168.403 121.755 166.463 121.482 165.63 121.448C165.027 121.396 164.435 121.245 163.874 120.999L160.344 121.287Z" fill="#EEA886"/>
<path d="M154.938 126.346C155.395 126.696 155.781 127.145 156.07 127.666C156.359 128.187 156.546 128.767 156.618 129.37C156.806 131.38 157.134 133.371 157.599 135.327C157.881 136.356 157.353 143.845 157.285 144.376C157.218 144.908 167.001 146.181 168.506 144.913C168.506 144.913 168.927 137.922 169.102 135.937C169.277 133.951 170.119 129.141 170.397 128.492C170.674 127.844 174.079 122.638 174.222 121.96C174.222 121.96 172.462 118.906 171.198 118.867C171.198 118.867 169.192 121.428 168.538 121.541C167.884 121.653 163.879 120.858 163.879 120.848C163.879 120.838 163.431 121.497 161.115 120.736C161.115 120.736 158.347 121.072 157.899 121.136C157.353 121.214 153.563 120.619 153.563 120.619C153.563 120.619 152.04 123.414 152.304 124.829L154.938 126.346Z" fill="black"/>
<path d="M148.25 113.13C148.25 113.13 147.91 111.359 148.322 110.852C148.625 110.479 148.909 110.088 149.173 109.681C149.227 109.569 149.831 109.193 149.831 109.008C149.831 108.823 149.24 108.598 148.72 109.12C148.201 109.642 147.883 109.754 147.677 109.696C147.471 109.637 147.171 107.769 147.148 107.305C147.126 106.842 146.956 105.618 146.7 105.7C146.445 105.783 146.445 106.32 146.445 106.32C146.445 106.32 146.136 105.393 145.93 105.574C145.724 105.754 145.746 106.208 145.746 106.208C145.746 106.208 145.361 105.691 145.258 106.066C145.197 106.301 145.197 106.549 145.258 106.783C145.258 106.783 144.855 106.544 144.832 107.135C144.816 108.128 144.951 109.117 145.231 110.062C145.513 110.681 146.575 112.301 146.705 112.935C146.835 113.569 148.25 113.13 148.25 113.13Z" fill="#EEA886"/>
<path d="M170.32 110.023C170.32 110.023 169.155 107.881 168.757 107.691C168.249 107.528 167.762 107.299 167.306 107.008C166.817 106.627 166.168 106.31 166.204 106.183C166.239 106.057 166.817 106.105 167.435 106.398C168.054 106.691 168.331 106.549 168.385 106.398C168.306 105.869 168.13 105.363 167.865 104.91C167.682 104.656 166.347 103.198 166.571 102.983C166.795 102.768 167.659 103.569 167.798 103.73C167.798 103.73 167.108 102.154 167.377 102.076C167.646 101.998 168.148 102.564 168.148 102.564C168.148 102.564 168.089 101.217 169.424 103.408C169.424 103.408 169.142 102.681 169.55 102.92C169.957 103.159 170.356 104.52 170.486 105.208C170.616 105.896 171.198 108.086 171.695 108.623C172.193 109.159 170.32 110.023 170.32 110.023Z" fill="#EEA886"/>
<path d="M165.769 118.467C165.108 118.454 164.455 118.307 163.843 118.033C162.535 117.545 162.436 115.047 162.154 115.345C162.065 115.451 161.954 115.533 161.83 115.584C161.707 115.634 161.573 115.651 161.442 115.635C161.311 115.618 161.185 115.568 161.075 115.488C160.965 115.407 160.875 115.3 160.81 115.174C160.81 115.174 161.451 114.257 161.155 113.818C160.937 113.516 160.674 113.257 160.376 113.052C160.376 113.052 161.299 108.218 165.487 110.423C170.396 113.003 165.769 118.467 165.769 118.467Z" fill="#353A3D"/>
<path d="M161.057 121.038L161.204 120.341C162.583 120.307 163.962 120.364 165.334 120.511L165.491 121.345C165.491 121.345 163.623 122.267 161.057 121.038Z" fill="#D4D8E8"/>
<path d="M161.715 114.735C161.957 114.291 162.857 113.999 162.96 115.223C163.045 116.199 161.357 117.243 161.339 116.345C161.307 115.779 161.438 115.216 161.715 114.735Z" fill="#EEA886"/>
<path d="M148.178 112.725C147.667 112.736 147.17 112.906 146.745 113.213C146.729 113.392 146.756 113.572 146.825 113.735C147.296 113.502 147.793 113.338 148.303 113.247C148.305 113.064 148.261 112.884 148.178 112.725Z" fill="#E55353"/>
<path d="M147.041 112.989C147.02 113.043 147.008 113.102 147.008 113.161C147.007 113.22 147.018 113.279 147.038 113.334C147.058 113.389 147.089 113.438 147.127 113.481C147.165 113.523 147.21 113.556 147.26 113.579C147.336 113.615 147.42 113.625 147.502 113.609C147.583 113.592 147.658 113.55 147.717 113.487C147.776 113.424 147.817 113.344 147.834 113.255C147.85 113.167 147.843 113.076 147.812 112.992C147.781 112.909 147.728 112.837 147.659 112.787C147.591 112.736 147.51 112.709 147.428 112.709C147.345 112.709 147.264 112.735 147.195 112.785C147.126 112.835 147.073 112.906 147.041 112.989Z" fill="#353A3D"/>
<path d="M123.34 75.6397C123.34 75.6397 124.72 78.1862 125.302 78.6058C126.091 79.1668 125.598 79.7376 125.222 79.7376C124.845 79.7376 122.928 79.8888 122.507 79.3668C122.086 78.8448 121.876 77.2788 121.481 76.869C121.087 76.4593 120.684 74.8348 121.674 74.4298C122.547 74.0884 123.34 75.6397 123.34 75.6397Z" fill="#6069A8"/>
<path d="M122.744 74.5225C122.744 74.5225 124.321 77.5032 124.594 77.9374C124.868 78.3716 124.079 78.3813 123.596 78.1716C123.112 77.9618 121.884 75.8202 121.71 75.4299C121.592 75.1195 121.58 74.7738 121.674 74.4542L122.744 74.5225Z" fill="#202338"/>
<path d="M121.141 76.1226L121.503 79.1814L121.701 79.1911L121.638 76.991L121.141 76.1226Z" fill="#6069A8"/>
<path d="M109.66 75.6397C109.66 75.6397 111.039 78.1862 111.622 78.6058C112.414 79.1668 111.917 79.7376 111.541 79.7376C111.165 79.7376 109.252 79.8888 108.826 79.3668C108.401 78.8448 108.195 77.2788 107.805 76.869C107.415 76.4593 106.99 74.7908 107.993 74.4298C108.876 74.1469 109.66 75.6397 109.66 75.6397Z" fill="#6069A8"/>
<path d="M109.149 74.5274C109.149 74.5274 110.645 77.5032 110.941 77.9423C111.237 78.3813 110.426 78.3862 109.937 78.1764C109.449 77.9667 108.231 75.8251 108.056 75.4348C107.938 75.1247 107.924 74.7795 108.016 74.4591L109.149 74.5274Z" fill="#202338"/>
<path d="M107.461 76.1226L107.828 79.1814L108.021 79.1911L107.963 76.991L107.461 76.1226Z" fill="#6069A8"/>
<path d="M103.541 52.4673L116.025 58.6628C116.444 58.8326 116.811 59.1261 117.084 59.5105C117.358 59.8949 117.528 60.3548 117.575 60.8386C118.059 66.0975 121.674 74.4396 121.674 74.4396C122.829 75.0592 122.744 74.5225 122.744 74.5225C122.014 71.9662 121.123 61.4435 120.805 57.2139C120.737 56.3212 120.697 55.7065 120.688 55.5114C120.679 55.3162 120.549 55.1992 120.316 54.9991C118.605 53.4868 111.555 50.3549 111.555 50.3549C106.264 50.2085 103.541 52.4673 103.541 52.4673Z" fill="#202338"/>
<path d="M101.19 55.1211C101.575 58.7945 106.39 58.375 106.39 58.375H112.214C111.317 60.5768 110.607 62.8628 110.09 65.2047C109.463 68.5318 107.981 74.4152 107.981 74.4152C107.981 74.4152 108.079 74.6152 109.136 74.503C109.136 74.503 113.714 64.5559 115.47 62.0582C116.276 60.4346 116.832 58.6777 117.114 56.8578C117.177 56.2724 117.141 55.8187 116.939 55.6333C116.738 55.4479 116.272 55.1016 115.649 54.6576C113.822 53.399 110.646 51.4672 108.876 51.033C106.507 50.4524 102.762 49.3694 102.762 49.3694C102.126 50.142 101.655 51.0585 101.383 52.0531C101.111 53.0476 101.045 54.0954 101.19 55.1211Z" fill="#202338"/>
<path d="M105.162 26.8263C104.645 25.6684 104.488 24.3583 104.714 23.0943C105.14 21.1723 106.779 19.255 109.194 20.1332C111.608 21.0113 113.53 23.0602 112.092 25.3921C110.654 27.724 113.396 28.807 112.697 29.9192C111.998 31.0315 112.249 32.2023 112.558 32.4609C112.867 32.7194 113.808 33.6463 113.705 34.744C113.602 35.8416 109.046 31.5486 109.046 31.5486C109.046 31.5486 106.555 26.1238 105.162 26.8263Z" fill="#464240"/>
<path d="M112.477 49.911C112.477 49.911 112.115 51.8233 102.793 49.4232C102.793 49.4085 105.92 48.2914 112.477 49.911Z" fill="#EB4747"/>
<path d="M102.685 49.9451L102.237 50.8476L112.459 51.1745C111.917 49.2231 112.092 46.5449 112.19 44.5252C112.302 42.0567 113.534 40.3395 113.422 37.8467C114.094 37.9637 114.211 37.9881 114.887 38.1003C113.857 34.8952 113.503 33.3049 110.296 32.0755C109.385 31.6953 108.402 31.5647 107.433 31.695C103.72 32.0267 102.596 32.0755 100.772 35.7392C103.63 36.227 103.16 37.3539 104.024 40.4469C104.45 41.9592 104.889 43.6422 104.661 45.2326C104.432 46.8229 102.685 48.5157 102.685 49.9451Z" fill="#325BB3"/>
<path d="M108.616 32.8512C107.093 32.539 107.42 31.6169 107.42 31.6169C107.42 31.6169 107.487 31.095 107.514 30.4412C107.514 30.2721 107.514 30.0965 107.514 29.9144C107.515 29.6421 107.5 29.3699 107.469 29.0997C107.348 27.9874 110.229 28.6509 110.229 28.6509C110.229 28.6509 110.063 30.8998 110.462 31.5779C110.86 32.256 110.135 33.1683 108.616 32.8512Z" fill="#EEA886"/>
<path d="M105.695 31.612C105.695 31.612 108.764 35.466 109.897 36.3587C109.897 36.3587 111.2 35.0806 110.399 31.695C110.417 31.7047 108.934 30.8852 105.695 31.612Z" fill="#EEA886"/>
<path d="M105.799 22.3285C105.799 22.3285 104.204 25.6702 105.799 28.8363C107.393 32.0024 110.48 27.4557 110.681 26.9239C110.883 26.3922 111.949 23.3773 109.83 22.4602C107.711 21.5431 106.251 21.4211 105.799 22.3285Z" fill="#EEA886"/>
<path d="M106.327 23.5139C106.327 23.5139 105.229 25.0848 105.1 26.2409C104.879 24.752 105.162 23.2263 105.897 21.948C107.133 19.8405 110.269 21.8455 110.69 22.6895C111.111 23.5334 112.343 24.2701 110.273 27.885C110.273 27.885 106.551 25.0653 106.327 23.5139Z" fill="#464240"/>
<path d="M108.871 29.168C108.554 29.7325 108.085 30.1771 107.527 30.4412C107.527 30.2721 107.527 30.0965 107.527 29.9144C108.034 29.8169 108.501 29.557 108.871 29.168Z" fill="#A77860"/>
<path d="M92.7773 46.94C92.7773 46.94 92.0203 47.3059 91.6619 47.14C91.3118 47.0083 90.9439 46.9407 90.5734 46.94C90.336 46.94 89.6059 46.6571 89.6193 46.9693C89.6328 47.2815 90.8064 47.4962 91.0483 47.5937C91.2901 47.6913 90.3271 48.2669 90.2375 48.5255C90.1479 48.7841 91.2364 50.4769 91.8456 49.989C92.4548 49.5012 92.7907 48.5548 92.9162 48.4914C93.0718 48.393 93.2214 48.2838 93.3641 48.1645L92.7773 46.94Z" fill="#EEA886"/>
<path d="M90.3543 48.3743C90.3543 48.3743 88.5625 49.9793 88.5625 50.1939C88.5625 50.4086 88.6252 50.511 88.7999 50.3695L90.5603 48.8767C90.5603 48.8767 88.7686 51.1647 88.7193 51.3159C88.6834 51.4135 88.8537 51.6233 88.9567 51.555C89.0597 51.4867 90.9455 49.3353 90.9455 49.3353C90.9455 49.3353 89.2882 51.4721 89.2792 51.633C89.2807 51.6736 89.293 51.7127 89.3145 51.7458C89.3361 51.7788 89.3659 51.8044 89.4005 51.8194C89.4351 51.8343 89.473 51.8381 89.5095 51.8301C89.546 51.8221 89.5796 51.8028 89.6062 51.7745C89.7406 51.6282 91.3979 49.7402 91.3979 49.7402C91.3979 49.7402 90.2871 51.3794 90.3587 51.5257C90.4304 51.6721 90.5379 51.7989 90.8067 51.3647C91.0754 50.9306 91.8325 49.9841 91.8325 49.9841L90.3543 48.3743Z" fill="#EEA886"/>
<path d="M111.617 58.3799H106.39C106.39 58.3799 101.574 58.7994 101.189 55.126C101.052 54.1054 101.123 53.0644 101.397 52.077C101.671 51.0897 102.141 50.1802 102.775 49.4134C102.775 49.4134 105.319 50.15 107.541 50.7354C108.866 50.435 110.219 50.3073 111.572 50.3549C111.572 50.3549 120.979 53.7405 120.706 55.526C120.688 55.526 116.751 53.2332 111.617 58.3799Z" fill="#FF7E55"/>
<path d="M108.218 52.0185L118.184 51.8575L113.15 54.6382L108.218 52.0185Z" fill="#5E5853"/>
<path d="M111.313 50.633C109.695 51.2023 107.958 51.2329 106.323 50.7208L106.193 49.6036L111.855 49.9451L111.313 50.633Z" fill="#325BB3"/>
<path d="M113.15 54.6381L108.218 52.5551V52.0184L113.539 54.1064L113.15 54.6381Z" fill="#91887F"/>
<path d="M111.277 51.1501C111.266 51.2444 111.278 51.3402 111.313 51.4276C111.347 51.515 111.402 51.5909 111.473 51.6475C111.543 51.7041 111.625 51.7393 111.712 51.7496C111.799 51.76 111.887 51.745 111.967 51.7062L112.549 51.4379C112.633 51.3971 112.702 51.3272 112.746 51.2389C112.79 51.1506 112.806 51.049 112.791 50.9501C112.549 49.3109 112.034 42.9202 112.791 41.8226C113.024 41.4978 113.21 41.1358 113.342 40.7493C113.839 42.1494 114.462 43.9544 114.708 44.9252L119.416 51.755L120.997 52.1892C119.998 49.4584 118.809 46.8147 117.44 44.2813C117.136 43.3788 116.249 40.6517 115.469 38.2223C114.972 36.6856 114.52 35.2952 114.278 34.5098C114.154 34.1257 113.909 33.8011 113.588 33.5927C112.858 33.1048 111.644 32.3682 110.542 31.7877L110.435 31.734C112.526 35.1879 111.711 44.9399 111.299 51.1745L111.277 51.1501Z" fill="#EDDAD3"/>
<path d="M103.501 31.9877C102.829 32.0999 101.163 33.861 100.28 35.6367C99.2723 37.6661 98.2465 39.9736 97.4761 40.7298C96.0606 42.1299 92.1008 47.0717 91.9082 46.9449C92.2836 47.4938 92.6969 48.0108 93.1445 48.4913C93.2162 48.5255 99.6531 42.4519 100.271 41.525C100.889 40.5981 102.426 36.9636 102.896 37.0466C103.349 38.1551 103.733 39.296 104.043 40.4615L104.07 40.559C104.407 42.0441 104.454 43.5897 104.209 45.096C104.056 46.3643 103.187 48.4279 102.668 49.4329C102.636 49.5164 102.62 49.6059 102.62 49.6963C102.62 49.7867 102.636 49.8762 102.668 49.9597C102.682 50.0071 102.705 50.0509 102.735 50.0886C102.765 50.1263 102.801 50.1571 102.842 50.1792L104.728 50.9403L105.176 51.1208C105.313 51.1756 105.459 51.1962 105.603 51.1811C105.748 51.166 105.888 51.1156 106.012 51.0336C106.137 50.9515 106.242 50.84 106.322 50.7073C106.401 50.5746 106.452 50.4241 106.471 50.2671C106.892 46.7497 107.42 43.1543 107.846 41.7982C108.402 40.1036 108.624 38.3007 108.499 36.5065C108.374 34.7123 107.904 32.9666 107.12 31.3828C105.905 31.516 104.697 31.7179 103.501 31.9877Z" fill="#EDDAD3"/>
<path d="M113.149 54.6382L116.115 45.8229L125.674 45.9936L122.847 54.1162L113.149 54.6382Z" fill="#6E6760"/>
<path d="M119.174 49.7256C118.883 50.3598 118.973 51.0525 119.371 51.272C119.77 51.4916 120.334 51.1501 120.625 50.5159C120.917 49.8817 120.827 49.189 120.428 48.9694C120.03 48.7499 119.465 49.0914 119.174 49.7256Z" fill="#807066"/>
<path d="M109.1 25.6555C109.1 25.6555 109.71 26.6946 109.145 27.6069C108.581 28.5191 109.289 29.3826 109.409 30.329C109.53 31.2754 107.049 33.7976 109.813 35.0611C112.576 36.3246 113.454 34.2366 112.751 33.0805C112.048 31.9243 111.546 30.9925 111.483 29.3534C111.421 27.7142 110.928 25.1287 109.1 25.6555Z" fill="#464240"/>
<path d="M89.0908 13.2059H100.863V22.4992V24.4555L99.0664 22.4992H89.0908V13.2059Z" fill="#78C2FF"/>
</g>
<defs>
<clipPath id="clip0_1013_9755">
<rect width="233" height="200" fill="white"/>
</clipPath>
</defs>
</svg>
