<svg width="227" height="200" viewBox="0 0 227 200" fill="none" xmlns="http://www.w3.org/2000/svg">
<g clip-path="url(#clip0_1015_10367)">
<path d="M28.4947 174.376H47.1562L47.1562 106.057H28.4947L28.4947 174.376Z" fill="#E6E6E6"/>
<path d="M32.8971 174.377H28.4941V161.854H37.51L32.8971 174.377Z" fill="#F0F0F0"/>
<path d="M144.997 174.376H163.658V106.057H144.997V174.376Z" fill="#E6E6E6"/>
<path d="M28.4999 168.215L148.844 168.215V106.062L28.4999 106.062L28.4999 168.215Z" fill="#F0F0F0"/>
<path d="M86.7486 110.136V159.698H32.3357V110.136H86.7486ZM87.1741 109.711H31.9102V160.124H87.1912V109.711H87.1741Z" fill="#FAFAFA"/>
<path d="M145.003 110.136V159.698H90.5732V110.136H145.003ZM145.429 109.711H90.1533V160.124H145.434V109.711H145.429Z" fill="#FAFAFA"/>
<path d="M98.5957 121.405C100.758 121.405 102.511 120.356 102.511 119.061C102.511 117.767 100.758 116.718 98.5957 116.718C96.4335 116.718 94.6807 117.767 94.6807 119.061C94.6807 120.356 96.4335 121.405 98.5957 121.405Z" fill="#FAFAFA"/>
<path d="M78.7373 121.405C80.8995 121.405 82.6523 120.356 82.6523 119.061C82.6523 117.767 80.8995 116.718 78.7373 116.718C76.5751 116.718 74.8223 117.767 74.8223 119.061C74.8223 120.356 76.5751 121.405 78.7373 121.405Z" fill="#FAFAFA"/>
<path d="M144.441 174.377H148.844V161.854H139.822L144.441 174.377Z" fill="#F0F0F0"/>
<path d="M89.6768 98.119C89.6768 98.119 90.0172 106.063 102.965 106.063C115.913 106.063 116.253 98.119 116.253 98.119H89.6768Z" fill="#F5F5F5"/>
<path d="M123.119 61.3521L223.649 61.3521V-0.00572205L123.119 -0.00572205L123.119 61.3521Z" fill="#E6E6E6"/>
<path d="M120.605 61.3521L223.297 61.3521V-0.00572205L120.605 -0.00572205L120.605 61.3521Z" fill="#F0F0F0"/>
<path d="M123.119 63.701L223.649 63.701V61.3577L123.119 61.3577V63.701Z" fill="#E6E6E6"/>
<path d="M116.401 63.701L219.093 63.701V61.3577L116.401 61.3577V63.701Z" fill="#F0F0F0"/>
<path d="M219.763 57.8286V3.52917L124.129 3.52917V57.8286L219.763 57.8286Z" fill="#FAFAFA"/>
<path d="M190.315 57.8286L184.664 3.52917H174.888L180.539 57.8286H190.315Z" fill="white"/>
<path d="M218.128 42.3217C218.164 42.3225 218.2 42.316 218.233 42.3026C218.267 42.2892 218.297 42.2691 218.322 42.2437C218.348 42.2182 218.368 42.1879 218.381 42.1545C218.395 42.1211 218.401 42.0854 218.4 42.0494V5.8214C218.391 5.75664 218.359 5.69744 218.309 5.65463C218.26 5.61182 218.196 5.58826 218.131 5.58826C218.065 5.58826 218.002 5.61182 217.953 5.65463C217.903 5.69744 217.871 5.75664 217.861 5.8214V42.0494C217.861 42.0849 217.867 42.1202 217.88 42.1532C217.893 42.1862 217.913 42.2163 217.937 42.2416C217.962 42.267 217.992 42.2871 218.025 42.3009C218.057 42.3147 218.093 42.3217 218.128 42.3217Z" fill="#F0F0F0"/>
<path d="M178.434 57.8286L172.783 3.52917H168.97L174.621 57.8286H178.434Z" fill="white"/>
<path d="M124.577 57.8286V3.52917H124.129V57.8286H124.577Z" fill="#E6E6E6"/>
<path opacity="0.5" d="M119.766 8.13636H221.119L221.442 4.90222H120.095L119.766 8.13636Z" fill="#E0E0E0"/>
<path opacity="0.5" d="M119.766 13.4528H221.119L221.442 10.2186H120.095L119.766 13.4528Z" fill="#E0E0E0"/>
<path opacity="0.5" d="M119.766 18.7693H221.119L221.442 15.5352H120.095L119.766 18.7693Z" fill="#E0E0E0"/>
<path opacity="0.5" d="M119.766 24.0857H221.119L221.442 20.8516H120.095L119.766 24.0857Z" fill="#E0E0E0"/>
<path opacity="0.5" d="M119.766 29.4022H221.119L221.442 26.1681H120.095L119.766 29.4022Z" fill="#E0E0E0"/>
<path opacity="0.5" d="M119.766 34.7243H221.119L221.442 31.4845H120.095L119.766 34.7243Z" fill="#E0E0E0"/>
<path d="M37.7772 42.1515L99.0215 42.1515V1.60566L37.7772 1.60566L37.7772 42.1515Z" fill="#E0E0E0"/>
<path d="M34.0892 42.1515L97.4102 42.1515V1.60566L34.0892 1.60566L34.0892 42.1515Z" fill="#F5F5F5"/>
<path d="M39.3945 8.70939V35.0477H92.1053V8.70939L39.3945 8.70939Z" fill="white"/>
<path d="M5.31137 91.9288L66.5557 91.9288V51.383L5.31137 51.383L5.31137 91.9288Z" fill="#E0E0E0"/>
<path d="M1.61753 91.9288L64.9385 91.9288V51.383L1.61753 51.383L1.61753 91.9288Z" fill="#F5F5F5"/>
<path d="M6.92188 58.481L6.92188 84.8193H59.6326V58.481H6.92188Z" fill="white"/>
<path d="M110.012 200C170.769 200 220.023 197.124 220.023 193.577C220.023 190.03 170.769 187.154 110.012 187.154C49.2539 187.154 0 190.03 0 193.577C0 197.124 49.2539 200 110.012 200Z" fill="#F5F5F5"/>
<path d="M210.239 53.1526L210.014 57.8452L210.592 57.873L210.817 53.1804L210.239 53.1526Z" fill="#FF6C37"/>
<path d="M211.058 36.4034L210.426 49.5631L211.004 49.5909L211.636 36.4312L211.058 36.4034Z" fill="#FF6C37"/>
<path d="M132.372 29.0845H202.729C203.667 29.0784 204.596 29.2645 205.46 29.6312C206.323 29.998 207.102 30.5377 207.749 31.2171C208.396 31.8964 208.897 32.701 209.221 33.5814C209.546 34.4617 209.686 35.3991 209.634 36.3358L202.496 186.326C202.38 188.27 201.533 190.098 200.125 191.443C198.717 192.788 196.852 193.55 194.905 193.577H124.559C123.621 193.583 122.692 193.397 121.828 193.03C120.965 192.664 120.186 192.124 119.539 191.445C118.892 190.765 118.391 189.961 118.067 189.08C117.743 188.2 117.602 187.262 117.654 186.326L124.764 36.3358C124.877 34.388 125.726 32.5559 127.138 31.2099C128.551 29.8638 130.421 29.1042 132.372 29.0845Z" fill="#FF6C37"/>
<path d="M226.724 93.3983L226.889 89.9543L224.784 89.3415C224.705 88.1946 224.532 87.056 224.268 85.9371L226.072 84.5527L224.903 81.3696L222.685 81.6193C222.169 80.6019 221.565 79.6318 220.88 78.7199L222.049 76.7738L219.728 74.3397L217.737 75.412C216.851 74.6805 215.901 74.0292 214.9 73.4659L215.257 71.2644L212.137 69.948L210.673 71.6843C209.56 71.3573 208.421 71.1276 207.269 70.9977L206.764 68.87H203.314L202.605 71.0034C201.432 71.1339 200.273 71.3616 199.138 71.6843L197.844 69.948L194.599 71.2644L194.741 73.4659C193.703 74.0415 192.711 74.6959 191.773 75.4234L189.884 74.3453L187.33 76.7794L188.318 78.7256C187.545 79.6335 186.849 80.6032 186.235 81.625L184.04 81.3753L182.57 84.5584L184.244 85.9428C183.868 87.052 183.585 88.1908 183.398 89.3472L181.231 89.96L181.066 93.404L183.177 94.0168C183.251 95.1643 183.424 96.3034 183.693 97.4212L181.889 98.7999L183.058 101.983L185.276 101.733C185.792 102.752 186.396 103.725 187.081 104.638L185.906 106.579L188.227 109.019L190.224 107.941C191.102 108.67 192.042 109.321 193.033 109.887L192.681 112.088L195.802 113.41L197.265 111.668C198.378 111.993 199.517 112.221 200.67 112.349L201.18 114.488H204.625L205.339 112.349C206.51 112.221 207.668 111.993 208.801 111.668L210.1 113.41L213.345 112.088L213.198 109.887C214.248 109.321 215.25 108.67 216.194 107.941L218.089 109.019L220.642 106.579L219.655 104.638C220.423 103.726 221.12 102.754 221.737 101.733L223.933 101.983L225.402 98.7999L223.7 97.4212C224.072 96.3111 224.353 95.1725 224.54 94.0168L226.724 93.3983ZM218.719 91.6962C218.498 95.6555 216.781 99.3828 213.914 102.122C211.047 104.862 207.245 106.408 203.28 106.448C201.37 106.467 199.477 106.093 197.717 105.349C195.958 104.605 194.371 103.507 193.055 102.123C191.738 100.74 190.72 99.1 190.064 97.3062C189.409 95.5123 189.129 93.6027 189.243 91.6962C189.464 87.7364 191.183 84.009 194.051 81.2696C196.919 78.5302 200.721 76.9839 204.687 76.944C206.594 76.926 208.485 77.3001 210.242 78.0431C211.999 78.7862 213.584 79.8822 214.9 81.2633C216.215 82.6444 217.233 84.2811 217.89 86.0718C218.547 87.8626 218.829 89.7692 218.719 91.6735V91.6962Z" fill="#FF6C37"/>
<path d="M202.616 30.9001H132.288C130.829 30.9194 129.433 31.4912 128.38 32.5C127.327 33.5089 126.696 34.8797 126.614 36.3358L119.816 178.938C119.802 179.182 119.839 179.425 119.923 179.653C120.007 179.882 120.137 180.091 120.305 180.267C120.473 180.443 120.676 180.583 120.9 180.677C121.124 180.772 121.366 180.819 121.609 180.816H199.047C199.553 180.813 200.038 180.617 200.404 180.268C200.769 179.919 200.988 179.443 201.016 178.938L207.791 36.3358C207.836 35.6322 207.735 34.9269 207.495 34.2642C207.254 33.6015 206.879 32.9957 206.393 32.4851C205.907 31.9745 205.321 31.57 204.67 31.2973C204.02 31.0245 203.321 30.8893 202.616 30.9001Z" fill="white"/>
<path opacity="0.2" d="M189.968 174.291H131.345C130.498 174.293 129.66 174.121 128.881 173.788C128.102 173.455 127.399 172.966 126.816 172.353C126.232 171.739 125.779 171.013 125.484 170.219C125.19 169.424 125.061 168.578 125.104 167.732L126.908 129.825C127.009 128.071 127.771 126.421 129.041 125.208C130.311 123.995 131.994 123.309 133.751 123.289H192.368C193.216 123.283 194.057 123.452 194.837 123.784C195.618 124.116 196.322 124.604 196.907 125.219C197.492 125.833 197.944 126.561 198.237 127.357C198.53 128.153 198.657 129.001 198.609 129.848L196.822 167.755C196.72 169.51 195.956 171.161 194.684 172.374C193.411 173.588 191.726 174.273 189.968 174.291ZM133.74 123.794C132.118 123.811 130.563 124.443 129.39 125.563C128.217 126.683 127.512 128.206 127.419 129.825L125.614 167.732C125.568 168.51 125.682 169.29 125.949 170.022C126.217 170.754 126.633 171.423 127.17 171.987C127.708 172.552 128.356 172.999 129.075 173.302C129.793 173.604 130.566 173.756 131.345 173.747H189.968C191.591 173.729 193.147 173.096 194.322 171.976C195.496 170.855 196.201 169.33 196.294 167.71L198.093 129.802C198.139 129.025 198.025 128.247 197.757 127.516C197.489 126.785 197.074 126.117 196.537 125.553C196 124.99 195.353 124.543 194.636 124.24C193.918 123.937 193.147 123.785 192.368 123.794H133.74Z" fill="#FF6C37"/>
<path opacity="0.1" d="M143.737 126.489H121.41L119.561 165.378H141.893C143.135 165.361 144.324 164.875 145.222 164.017C146.12 163.159 146.66 161.993 146.733 160.753L148.14 131.107C148.173 130.51 148.083 129.913 147.876 129.352C147.669 128.792 147.349 128.279 146.937 127.846C146.524 127.414 146.028 127.07 145.477 126.837C144.927 126.603 144.335 126.485 143.737 126.489Z" fill="#FF6C37"/>
<path opacity="0.1" d="M173.656 145.343H158.473C158.166 145.343 157.863 145.282 157.581 145.162C157.3 145.042 157.045 144.866 156.833 144.645C156.621 144.424 156.456 144.162 156.347 143.875C156.239 143.589 156.19 143.283 156.203 142.977L156.924 127.788C156.962 127.154 157.239 126.557 157.699 126.118C158.159 125.68 158.768 125.431 159.403 125.422H174.592C174.899 125.422 175.202 125.483 175.484 125.603C175.766 125.724 176.02 125.899 176.232 126.12C176.444 126.342 176.609 126.603 176.718 126.89C176.826 127.176 176.875 127.482 176.862 127.788L176.141 142.977C176.103 143.613 175.825 144.21 175.364 144.649C174.903 145.088 174.293 145.336 173.656 145.343Z" fill="#FF6C37"/>
<path opacity="0.1" d="M197.895 133.382C196.981 133.394 196.106 133.752 195.446 134.384C194.785 135.015 194.389 135.874 194.338 136.787L193.299 158.592C193.274 159.031 193.339 159.471 193.49 159.884C193.641 160.298 193.875 160.676 194.179 160.995C194.482 161.314 194.847 161.567 195.252 161.74C195.657 161.912 196.093 161.999 196.534 161.996H202.985L204.341 133.394L197.895 133.382Z" fill="#FF6C37"/>
<path opacity="0.1" d="M179.8 169.304H164.606C164.299 169.304 163.996 169.243 163.714 169.123C163.432 169.003 163.178 168.827 162.966 168.606C162.754 168.385 162.589 168.123 162.48 167.836C162.372 167.55 162.323 167.244 162.336 166.938L163.057 151.749C163.095 151.115 163.372 150.518 163.832 150.079C164.292 149.641 164.901 149.392 165.536 149.383H180.72C181.026 149.383 181.329 149.444 181.611 149.564C181.893 149.684 182.147 149.86 182.359 150.081C182.572 150.302 182.737 150.564 182.845 150.851C182.953 151.137 183.002 151.443 182.989 151.749L182.269 166.938C182.23 167.571 181.955 168.165 181.497 168.604C181.04 169.042 180.434 169.292 179.8 169.304Z" fill="#FF6C37"/>
<path opacity="0.2" d="M163.636 186.734C163.583 187.699 163.164 188.607 162.466 189.274C161.767 189.941 160.84 190.317 159.874 190.326C159.411 190.327 158.953 190.233 158.527 190.05C158.101 189.867 157.717 189.6 157.398 189.264C157.08 188.927 156.833 188.53 156.673 188.095C156.514 187.66 156.445 187.197 156.47 186.734C156.525 185.771 156.944 184.864 157.642 184.198C158.341 183.532 159.267 183.157 160.232 183.148C160.695 183.148 161.153 183.241 161.578 183.424C162.003 183.606 162.387 183.873 162.706 184.209C163.024 184.544 163.271 184.942 163.431 185.376C163.591 185.81 163.661 186.272 163.636 186.734Z" fill="white"/>
<path opacity="0.2" d="M196.823 114.505H130.165C129.871 114.508 129.579 114.45 129.308 114.336C129.037 114.222 128.792 114.053 128.588 113.84C128.384 113.628 128.227 113.376 128.124 113.1C128.022 112.824 127.977 112.53 127.992 112.236L129.984 70.3963C130.02 69.7865 130.286 69.213 130.728 68.7918C131.17 68.3705 131.756 68.1328 132.367 68.1267H199.013C199.307 68.1239 199.598 68.1815 199.869 68.2959C200.14 68.4103 200.385 68.5791 200.588 68.7918C200.791 69.0045 200.949 69.2567 201.051 69.5327C201.152 69.8086 201.196 70.1026 201.18 70.3963L199.194 112.236C199.157 112.843 198.892 113.414 198.453 113.835C198.013 114.256 197.431 114.495 196.823 114.505Z" fill="#FF9A6C"/>
<path opacity="0.6" d="M200.392 58.0952H131.942C131.763 58.0963 131.587 58.0608 131.423 57.991C131.259 57.9212 131.111 57.8185 130.988 57.6894C130.865 57.5602 130.77 57.4072 130.709 57.2399C130.647 57.0725 130.621 56.8944 130.631 56.7164L131.301 42.5884C131.322 42.219 131.483 41.8714 131.75 41.6156C132.017 41.3598 132.372 41.2147 132.742 41.2096H201.192C201.37 41.2086 201.547 41.244 201.711 41.3138C201.875 41.3836 202.023 41.4863 202.145 41.6155C202.268 41.7447 202.363 41.8976 202.425 42.065C202.486 42.2323 202.513 42.4104 202.503 42.5884L201.827 56.6994C201.813 57.0718 201.656 57.4244 201.389 57.6842C201.121 57.944 200.764 58.0911 200.392 58.0952Z" fill="#FF6C37"/>
<path d="M137.723 82.1641H134.103L132.889 107.833H136.503L137.723 82.1641Z" fill="#FF6C37"/>
<path d="M144.549 91.6111H140.935L140.163 107.833H143.777L144.549 91.6111Z" fill="#FF6C37"/>
<path d="M151.567 97.0581H147.953L147.442 107.833H151.057L151.567 97.0581Z" fill="#FF6C37"/>
<path d="M158.586 102.443H154.972L154.717 107.833H158.331L158.586 102.443Z" fill="#FF6C37"/>
<path d="M166.535 88.3373H162.921L161.99 107.833H165.61L166.535 88.3373Z" fill="#FF6C37"/>
<path d="M174.308 77.9255H170.688L169.27 107.833H172.884L174.308 77.9255Z" fill="#FF6C37"/>
<path d="M181.736 74.7822H178.116L176.544 107.833H180.164L181.736 74.7822Z" fill="#FF6C37"/>
<path d="M188.402 87.611H184.782L183.823 107.833H187.438L188.402 87.611Z" fill="#FF6C37"/>
<path d="M195.364 94.153H191.75L191.098 107.833H194.718L195.364 94.153Z" fill="#FF6C37"/>
<path d="M138.455 157.434H108.803C108.205 157.438 107.613 157.32 107.063 157.086C106.512 156.853 106.016 156.509 105.603 156.076C105.191 155.644 104.871 155.131 104.664 154.57C104.457 154.01 104.368 153.412 104.4 152.816L105.813 123.169C105.886 121.93 106.426 120.764 107.324 119.906C108.221 119.048 109.411 118.562 110.653 118.545H140.299C140.897 118.541 141.49 118.66 142.041 118.894C142.591 119.127 143.088 119.472 143.501 119.905C143.913 120.338 144.233 120.851 144.439 121.413C144.646 121.974 144.735 122.572 144.702 123.169L143.295 152.816C143.22 154.054 142.68 155.219 141.782 156.076C140.884 156.932 139.696 157.418 138.455 157.434Z" fill="#FF6C37"/>
<path opacity="0.8" d="M138.455 157.434H108.803C108.205 157.438 107.613 157.32 107.063 157.086C106.512 156.853 106.016 156.509 105.603 156.076C105.191 155.644 104.871 155.131 104.664 154.57C104.457 154.01 104.368 153.412 104.4 152.816L105.813 123.169C105.886 121.93 106.426 120.764 107.324 119.906C108.221 119.048 109.411 118.562 110.653 118.545H140.299C140.897 118.541 141.49 118.66 142.041 118.894C142.591 119.127 143.088 119.472 143.501 119.905C143.913 120.338 144.233 120.851 144.439 121.413C144.646 121.974 144.735 122.572 144.702 123.169L143.295 152.816C143.22 154.054 142.68 155.219 141.782 156.076C140.884 156.932 139.696 157.418 138.455 157.434Z" fill="white"/>
<path d="M138.308 140.254L138.523 135.714L136.413 134.319C136.213 133.557 135.933 132.82 135.578 132.117L136.146 129.961L133.099 126.761L130.926 127.232C130.239 126.846 129.515 126.533 128.764 126.296L127.47 124.117H122.931L121.433 126.296C120.648 126.533 119.888 126.847 119.164 127.232L117.036 126.761L113.677 129.961L114.046 132.111C113.628 132.814 113.278 133.555 113.002 134.324L110.766 135.714L110.551 140.254L112.656 141.649C112.856 142.412 113.136 143.152 113.49 143.856L112.922 146.007L115.975 149.213L118.148 148.742C118.834 149.125 119.556 149.438 120.304 149.678L121.598 151.851H126.137L127.641 149.678C128.425 149.437 129.184 149.124 129.91 148.742L132.038 149.213L135.397 146.007L135.028 143.856C135.445 143.155 135.795 142.416 136.072 141.649L138.308 140.254ZM124.293 143.425C123.589 143.436 122.89 143.301 122.24 143.029C121.59 142.756 121.004 142.352 120.518 141.842C120.032 141.332 119.657 140.727 119.416 140.065C119.175 139.403 119.074 138.698 119.118 137.995C119.2 136.539 119.831 135.168 120.884 134.16C121.937 133.151 123.334 132.579 124.792 132.56C125.497 132.549 126.197 132.684 126.847 132.957C127.497 133.23 128.084 133.634 128.57 134.145C129.056 134.655 129.431 135.261 129.671 135.924C129.912 136.586 130.012 137.292 129.967 137.995C129.884 139.45 129.252 140.82 128.199 141.827C127.146 142.835 125.75 143.406 124.293 143.425Z" fill="white"/>
<path d="M169.94 138.466H154.756C154.449 138.467 154.146 138.405 153.863 138.284C153.581 138.164 153.326 137.988 153.114 137.766C152.902 137.544 152.737 137.282 152.629 136.995C152.521 136.707 152.473 136.401 152.487 136.095L153.207 120.911C153.246 120.277 153.523 119.68 153.983 119.242C154.443 118.803 155.051 118.554 155.687 118.545H170.876C171.182 118.545 171.485 118.607 171.767 118.727C172.049 118.847 172.304 119.023 172.516 119.244C172.728 119.465 172.893 119.726 173.001 120.013C173.109 120.3 173.158 120.605 173.145 120.911L172.425 136.095C172.388 136.731 172.11 137.33 171.649 137.77C171.188 138.21 170.577 138.459 169.94 138.466Z" fill="#FF6C37"/>
<path opacity="0.6" d="M169.94 138.466H154.756C154.449 138.467 154.146 138.405 153.863 138.284C153.581 138.164 153.326 137.988 153.114 137.766C152.902 137.544 152.737 137.282 152.629 136.995C152.521 136.707 152.473 136.401 152.487 136.095L153.207 120.911C153.246 120.277 153.523 119.68 153.983 119.242C154.443 118.803 155.051 118.554 155.687 118.545H170.876C171.182 118.545 171.485 118.607 171.767 118.727C172.049 118.847 172.304 119.023 172.516 119.244C172.728 119.465 172.893 119.726 173.001 120.013C173.109 120.3 173.158 120.605 173.145 120.911L172.425 136.095C172.388 136.731 172.11 137.33 171.649 137.77C171.188 138.21 170.577 138.459 169.94 138.466Z" fill="white"/>
<path d="M214.627 155.108H192.817C192.377 155.111 191.941 155.024 191.535 154.851C191.13 154.679 190.765 154.426 190.462 154.107C190.159 153.788 189.924 153.41 189.773 152.996C189.622 152.583 189.557 152.143 189.583 151.704L190.621 129.893C190.673 128.981 191.069 128.122 191.729 127.49C192.389 126.858 193.265 126.5 194.178 126.489H215.983C216.424 126.485 216.861 126.571 217.266 126.743C217.672 126.915 218.038 127.169 218.342 127.488C218.646 127.807 218.881 128.185 219.032 128.599C219.184 129.013 219.249 129.453 219.223 129.893L218.185 151.698C218.135 152.611 217.739 153.472 217.079 154.105C216.418 154.738 215.542 155.096 214.627 155.108Z" fill="#FF6C37"/>
<path opacity="0.4" d="M214.627 155.108H192.817C192.377 155.111 191.941 155.024 191.535 154.851C191.13 154.679 190.765 154.426 190.462 154.107C190.159 153.788 189.924 153.41 189.773 152.996C189.622 152.583 189.557 152.143 189.583 151.704L190.621 129.893C190.673 128.981 191.069 128.122 191.729 127.49C192.389 126.858 193.265 126.5 194.178 126.489H215.983C216.424 126.485 216.861 126.571 217.266 126.743C217.672 126.915 218.038 127.169 218.342 127.488C218.646 127.807 218.881 128.185 219.032 128.599C219.184 129.013 219.249 129.453 219.223 129.893L218.185 151.698C218.135 152.611 217.739 153.472 217.079 154.105C216.418 154.738 215.542 155.096 214.627 155.108Z" fill="white"/>
<path d="M211.552 140.81L200.505 134.251L199.881 147.363L211.552 140.81Z" fill="white"/>
<path d="M176.079 162.422H160.89C160.583 162.422 160.28 162.36 159.998 162.24C159.717 162.12 159.462 161.944 159.25 161.723C159.038 161.502 158.873 161.24 158.764 160.954C158.656 160.667 158.607 160.362 158.62 160.056L159.375 144.872C159.413 144.238 159.69 143.641 160.15 143.202C160.61 142.764 161.219 142.515 161.854 142.506H177.021C177.327 142.506 177.63 142.568 177.912 142.688C178.194 142.808 178.449 142.984 178.661 143.205C178.873 143.426 179.038 143.687 179.146 143.974C179.254 144.261 179.303 144.566 179.29 144.872L178.57 160.056C178.532 160.692 178.254 161.291 177.792 161.731C177.329 162.17 176.717 162.417 176.079 162.422Z" fill="#FF6C37"/>
<path opacity="0.4" d="M176.079 162.422H160.89C160.583 162.422 160.28 162.36 159.998 162.24C159.717 162.12 159.462 161.944 159.25 161.723C159.038 161.502 158.873 161.24 158.764 160.954C158.656 160.667 158.607 160.362 158.62 160.056L159.375 144.872C159.413 144.238 159.69 143.641 160.15 143.202C160.61 142.764 161.219 142.515 161.854 142.506H177.021C177.327 142.506 177.63 142.568 177.912 142.688C178.194 142.808 178.449 142.984 178.661 143.205C178.873 143.426 179.038 143.687 179.146 143.974C179.254 144.261 179.303 144.566 179.29 144.872L178.57 160.056C178.532 160.692 178.254 161.291 177.792 161.731C177.329 162.17 176.717 162.417 176.079 162.422Z" fill="white"/>
<path d="M167.102 158.268L161.712 152.606L162.966 151.409L167.165 155.817L175.17 148.169L176.368 149.423L167.102 158.268Z" fill="white"/>
<path d="M64.5292 50.3617C64.5008 53.6015 63.9334 59.44 61.3291 61.0741C62.5539 64.0401 64.8893 66.4102 67.8371 67.6785C73.216 66.0331 71.0145 63.0599 71.0145 63.0599C67.7123 61.5166 68.3307 58.9577 69.4315 56.6597L64.5292 50.3617Z" fill="#FFB573"/>
<path d="M61.2501 67.4232C61.9877 70.107 62.799 72.8532 63.6388 75.5256C64.0643 76.8646 64.5182 78.1866 64.9948 79.4973C65.4461 80.7651 65.9612 82.0093 66.5382 83.2251C66.7934 83.766 67.0814 84.2909 67.4006 84.7968C67.4743 84.8989 67.5481 85.018 67.6105 85.0918L67.7126 85.2223C67.741 85.2677 67.8205 85.3585 67.8715 85.4209L68.5808 86.2606C69.4999 87.3954 70.4191 88.5302 71.3042 89.665C73.0859 91.9346 74.8107 94.2665 76.4505 96.6666L74.4192 98.4652C72.2404 96.5531 70.1354 94.5729 68.0758 92.5587L65.0062 89.5402L64.2516 88.7855C64.1835 88.7174 64.1381 88.6777 64.053 88.5813L63.8033 88.3032C63.6218 88.1103 63.4969 87.9288 63.3494 87.7359C62.8461 87.0595 62.3911 86.3485 61.9877 85.6081C60.5878 82.9306 59.4094 80.1429 58.4642 77.2731C57.4882 74.4759 56.6599 71.6957 55.9336 68.8077L61.2501 67.4232Z" fill="#FFB573"/>
<path d="M54.1346 63.2585C51.865 66.5721 54.7587 74.7482 54.7587 74.7482H64.932C64.932 74.7482 65.0285 67.9849 63.61 65.3749C61.783 62.0046 55.5984 61.1024 54.1346 63.2585Z" fill="#263238"/>
<path d="M79.5307 97.3532L75.5987 96.2184L73.5391 97.0354C73.5391 99.2653 76.6143 100.865 76.6143 100.865L78.9917 103.05C79.2374 103.276 79.5491 103.417 79.881 103.453C80.2129 103.489 80.5475 103.417 80.8357 103.248L82.3166 102.38C82.5057 102.27 82.6696 102.122 82.7977 101.945C82.9258 101.768 83.0152 101.566 83.0602 101.352C83.1051 101.138 83.1045 100.917 83.0586 100.703C83.0126 100.489 82.9222 100.287 82.7932 100.111L82.1521 99.2142C81.5101 98.3191 80.5875 97.664 79.5307 97.3532Z" fill="#FFB573"/>
<path d="M116.615 74.4986L111.378 69.2616C110.83 68.7117 110.522 67.967 110.522 67.1906C110.522 66.4142 110.83 65.6694 111.378 65.1196C111.93 64.5742 112.674 64.2683 113.449 64.2683C114.225 64.2683 114.969 64.5742 115.52 65.1196L120.757 70.3566C121.303 70.9079 121.609 71.6521 121.609 72.4276C121.609 73.2031 121.303 73.9473 120.757 74.4986C120.208 75.0467 119.463 75.3545 118.686 75.3545C117.91 75.3545 117.165 75.0467 116.615 74.4986Z" fill="#263238"/>
<path d="M116.534 69.7788L116.097 69.3414C115.167 68.4108 113.658 68.4108 112.727 69.3414L109.353 72.7156C108.422 73.6462 108.422 75.1551 109.353 76.0857L109.79 76.523C110.721 77.4537 112.23 77.4537 113.16 76.523L116.534 73.1489C117.465 72.2183 117.465 70.7094 116.534 69.7788Z" fill="#263238"/>
<path d="M64.1378 126.631L59.2526 121.745C59.113 121.608 59.002 121.445 58.9263 121.265C58.8505 121.085 58.8115 120.891 58.8115 120.696C58.8115 120.5 58.8505 120.307 58.9263 120.126C59.002 119.946 59.113 119.783 59.2526 119.646L108.985 71.6616C109.26 71.393 109.63 71.2427 110.014 71.2427C110.399 71.2427 110.769 71.393 111.044 71.6616L114.182 74.7993C114.452 75.0741 114.603 75.4439 114.603 75.8291C114.603 76.2143 114.452 76.5841 114.182 76.8589L66.1975 126.591C65.9279 126.866 65.561 127.025 65.1758 127.032C64.7906 127.039 64.4178 126.895 64.1378 126.631Z" fill="#263238"/>
<path d="M115.209 62.7422C114.025 61.0605 113.011 59.2664 112.179 57.386L113.523 29.0164C113.523 28.8235 113.523 28.6363 113.563 28.449C113.892 25.1914 115.354 22.1527 117.695 19.8631C120.035 17.5735 123.105 16.1783 126.369 15.921C126.67 15.921 126.971 15.8813 127.271 15.8813H156.725C158.477 16.8237 160.141 17.9232 161.695 19.1665C165.224 21.9952 168.117 25.5362 170.185 29.5583C172.254 33.5805 173.451 37.9935 173.699 42.5095C173.946 47.0254 173.24 51.543 171.624 55.7673C170.008 59.9917 167.52 63.828 164.322 67.026C163.828 67.5196 163.335 67.9849 162.818 68.4331C159.42 71.4206 155.429 73.6577 151.107 74.9985C146.786 76.3393 142.23 76.7536 137.737 76.2145C133.244 75.6753 128.915 74.1947 125.034 71.8694C121.152 69.5441 117.804 66.4263 115.209 62.7195V62.7422Z" fill="#FF6C37"/>
<path d="M118.823 67.0487C117.495 65.7212 116.286 64.2802 115.209 62.7422L116.809 29.0391C116.956 26.3953 118.103 23.9062 120.017 22.077C121.932 20.2478 124.471 19.2154 127.119 19.1892H161.695C165.224 22.018 168.117 25.5589 170.186 29.5811C172.254 33.6032 173.451 38.0162 173.699 42.5322C173.947 47.0482 173.24 51.5657 171.624 55.79C170.009 60.0144 167.521 63.8507 164.322 67.0487C163.829 67.5424 163.335 68.0076 162.819 68.4559C156.68 73.8572 148.715 76.7179 140.543 76.4566C132.37 76.1952 124.604 72.8313 118.823 67.0487Z" fill="white"/>
<path opacity="0.6" d="M164.322 67.0488C163.828 67.5424 163.334 68.0077 162.818 68.4559H126.505C126.182 68.4587 125.862 68.3953 125.565 68.2697C125.268 68.144 125 67.9588 124.777 67.7253C124.554 67.4919 124.382 67.2152 124.27 66.9125C124.158 66.6097 124.11 66.2873 124.128 65.9651L125.331 40.3643C125.368 39.6968 125.658 39.0686 126.142 38.6071C126.625 38.1455 127.266 37.8853 127.935 37.8792H173.094C174.16 43.0874 173.917 48.479 172.386 53.5701C170.855 58.6612 168.084 63.2926 164.322 67.0488Z" fill="#FF6C37"/>
<path opacity="0.5" d="M118.823 67.0544C114.322 62.5547 111.257 56.8214 110.014 50.5795C108.772 44.3376 109.409 37.8675 111.844 31.9874C114.279 26.1074 118.403 21.0816 123.695 17.5456C128.987 14.0097 135.208 12.1223 141.572 12.1223C147.937 12.1223 154.158 14.0097 159.45 17.5456C164.741 21.0816 168.865 26.1074 171.301 31.9874C173.736 37.8675 174.372 44.3376 173.13 50.5795C171.888 56.8214 168.823 62.5547 164.322 67.0544C158.287 73.0856 150.104 76.4736 141.572 76.4736C133.04 76.4736 124.858 73.0856 118.823 67.0544Z" fill="white"/>
<path d="M154.047 48.8297C149.383 53.4937 144.072 53.1192 140.566 49.607C137.059 46.0949 136.679 40.8125 141.343 36.1258C146.007 31.4392 152.634 30.5257 156.141 34.0321C159.647 37.5386 158.711 44.1658 154.047 48.8297Z" fill="#263238"/>
<path d="M152.753 37.4082C150.903 35.5528 150.529 32.9258 151.919 31.5357C153.309 30.1456 155.936 30.52 157.792 32.3697C159.647 34.2194 160.01 36.8465 158.62 38.2366C157.23 39.6267 154.603 39.2749 152.753 37.4082Z" fill="#263238"/>
<path d="M151.273 39.6153C151.162 39.6127 151.053 39.5847 150.955 39.5336C150.856 39.4824 150.771 39.4095 150.705 39.3202L144.833 31.1271C144.73 30.9822 144.685 30.804 144.708 30.6278L145.304 25.578C145.311 25.4811 145.338 25.3868 145.383 25.3006C145.428 25.2144 145.49 25.1382 145.565 25.0765C145.64 25.0148 145.726 24.969 145.82 24.9417C145.913 24.9144 146.011 24.9063 146.107 24.9178C146.204 24.9293 146.297 24.9601 146.381 25.0085C146.465 25.057 146.539 25.1219 146.597 25.1995C146.656 25.2771 146.698 25.3657 146.721 25.46C146.745 25.5543 146.749 25.6523 146.733 25.7482L146.166 30.52L151.874 38.4635C151.985 38.6186 152.03 38.8114 151.999 38.9996C151.968 39.1879 151.864 39.3562 151.709 39.4678C151.584 39.5642 151.431 39.6162 151.273 39.6153Z" fill="#263238"/>
<path d="M159.465 45.4878C159.315 45.4891 159.168 45.4435 159.045 45.3573L150.863 39.4848C150.778 39.434 150.703 39.3659 150.645 39.2848C150.587 39.2037 150.546 39.1114 150.525 39.0137C150.505 38.916 150.505 38.8152 150.525 38.7174C150.545 38.6197 150.586 38.5273 150.644 38.4461C150.702 38.3648 150.776 38.2965 150.862 38.2454C150.948 38.1944 151.043 38.1617 151.142 38.1495C151.241 38.1372 151.342 38.1457 151.437 38.1744C151.533 38.2031 151.622 38.2513 151.698 38.316L159.641 44.0239L164.413 43.4566C164.598 43.4423 164.782 43.5002 164.925 43.6182C165.069 43.7362 165.162 43.9052 165.184 44.0898C165.206 44.2744 165.155 44.4604 165.043 44.6088C164.931 44.7573 164.767 44.8567 164.583 44.8864L159.533 45.4538L159.465 45.4878Z" fill="#263238"/>
<path d="M146.585 44.302C146.437 44.3033 146.292 44.2576 146.171 44.1715L138.227 38.4579L133.456 39.0252C133.267 39.0478 133.077 38.9944 132.927 38.8769C132.778 38.7593 132.681 38.5871 132.658 38.3983C132.636 38.2094 132.689 38.0193 132.807 37.8698C132.924 37.7203 133.096 37.6237 133.285 37.6011L138.335 36.9997C138.514 36.9797 138.694 37.0261 138.84 37.1302L147.028 43.0027C147.152 43.0905 147.246 43.216 147.294 43.3607C147.342 43.5054 147.343 43.6618 147.296 43.8069C147.249 43.9521 147.157 44.0785 147.033 44.1676C146.909 44.2566 146.76 44.3037 146.608 44.302H146.585Z" fill="#263238"/>
<path d="M151.862 57.5392H151.777C151.683 57.5287 151.593 57.4997 151.51 57.454C151.428 57.4083 151.355 57.3468 151.297 57.273C151.238 57.1992 151.195 57.1145 151.169 57.0239C151.144 56.9333 151.136 56.8384 151.147 56.7449L151.714 51.9731L146.001 44.0296C145.892 43.8734 145.848 43.6805 145.88 43.4926C145.912 43.3048 146.017 43.1369 146.171 43.0253C146.247 42.9705 146.334 42.9312 146.425 42.9098C146.517 42.8884 146.612 42.8852 146.704 42.9005C146.797 42.9158 146.886 42.9492 146.966 42.9989C147.046 43.0485 147.115 43.1134 147.17 43.1899L153.042 51.3774C153.149 51.5227 153.195 51.7035 153.173 51.8823L152.571 56.9321C152.545 57.1015 152.46 57.256 152.329 57.3674C152.199 57.4789 152.033 57.5398 151.862 57.5392Z" fill="#263238"/>
<path d="M159.885 52.915C159.79 52.9152 159.696 52.8969 159.609 52.8608C159.521 52.8248 159.441 52.7719 159.374 52.705L137.467 30.798C137.333 30.663 137.258 30.4805 137.258 30.2902C137.258 30.0999 137.333 29.9174 137.467 29.7824C137.534 29.7153 137.613 29.6621 137.7 29.6257C137.787 29.5894 137.881 29.5707 137.975 29.5707C138.069 29.5707 138.163 29.5894 138.25 29.6257C138.337 29.6621 138.416 29.7153 138.483 29.7824L160.39 51.6894C160.457 51.7558 160.51 51.8349 160.546 51.9221C160.583 52.0093 160.602 52.1028 160.602 52.1972C160.602 52.2916 160.583 52.3851 160.546 52.4723C160.51 52.5595 160.457 52.6385 160.39 52.705C160.324 52.7722 160.246 52.8254 160.159 52.8615C160.072 52.8976 159.979 52.9158 159.885 52.915Z" fill="#263238"/>
<path d="M156.94 33.9528C156.841 33.9532 156.743 33.9339 156.651 33.896C156.477 33.82 156.34 33.6784 156.27 33.5021C156.2 33.3257 156.202 33.1288 156.277 32.9542C156.69 31.8976 156.74 30.7335 156.418 29.6454C156.097 28.5574 155.422 27.6074 154.501 26.9455C154.377 26.822 154.302 26.6578 154.291 26.4835C154.279 26.3091 154.331 26.1364 154.437 25.9976C154.544 25.8588 154.697 25.7633 154.868 25.7289C155.039 25.6945 155.217 25.7236 155.369 25.8107C156.548 26.6649 157.408 27.8889 157.812 29.2881C158.216 30.6873 158.141 32.1814 157.599 33.5329C157.541 33.6587 157.448 33.7652 157.331 33.8397C157.215 33.9142 157.079 33.9534 156.94 33.9528Z" fill="#263238"/>
<path d="M163.8 35.9556C163.69 35.9552 163.582 35.9293 163.483 35.8801C163.385 35.8309 163.299 35.7597 163.233 35.6719C162.571 34.7504 161.621 34.0757 160.533 33.7541C159.445 33.4325 158.281 33.4824 157.224 33.896C157.049 33.9712 156.852 33.974 156.676 33.9038C156.499 33.8336 156.357 33.6961 156.282 33.5215C156.207 33.3469 156.204 33.1496 156.274 32.973C156.345 32.7964 156.482 32.6549 156.657 32.5796C158.008 32.0365 159.501 31.9604 160.9 32.3633C162.299 32.7663 163.524 33.6253 164.379 34.8038C164.436 34.8789 164.477 34.9646 164.501 35.0558C164.525 35.1471 164.53 35.2421 164.517 35.3355C164.504 35.4288 164.472 35.5186 164.424 35.5997C164.376 35.6808 164.313 35.7516 164.237 35.8081C164.113 35.907 163.959 35.9592 163.8 35.9556Z" fill="#263238"/>
<path d="M167.085 18.792C162.04 13.7472 155.612 10.3118 148.614 8.9201C141.617 7.52843 134.363 8.24303 127.772 10.9735C121.18 13.7041 115.546 18.3279 111.582 24.2603C107.619 30.1926 105.503 37.1672 105.503 44.302C105.503 51.4367 107.619 58.4113 111.582 64.3437C115.546 70.2761 121.18 74.8999 127.772 77.6304C134.363 80.3609 141.617 81.0755 148.614 79.6838C155.612 78.2922 162.04 74.8567 167.085 69.8119C170.435 66.462 173.093 62.485 174.906 58.108C176.719 53.731 177.652 49.0397 177.652 44.302C177.652 39.5643 176.719 34.873 174.906 30.496C173.093 26.1189 170.435 22.1419 167.085 18.792ZM120.065 65.8118C115.81 61.5573 112.911 56.1364 111.737 50.2346C110.562 44.3327 111.164 38.2152 113.467 32.6555C115.769 27.0959 119.669 22.3439 124.672 19.0005C129.675 15.6572 135.558 13.8727 141.575 13.8727C147.593 13.8727 153.475 15.6572 158.479 19.0005C163.482 22.3439 167.381 27.0959 169.684 32.6555C171.986 38.2152 172.588 44.3327 171.414 50.2346C170.239 56.1364 167.341 61.5573 163.085 65.8118C160.261 68.6367 156.907 70.8776 153.216 72.4064C149.526 73.9352 145.57 74.7221 141.575 74.7221C137.58 74.7221 133.625 73.9352 129.934 72.4064C126.243 70.8776 122.89 68.6367 120.065 65.8118Z" fill="#FF6C37"/>
<path d="M79.6895 68.8077C79.2243 72.1666 77.2838 79.8661 70.6113 97.4269L49.2773 93.041C51.1724 85.4096 52.2618 80.3371 52.1143 66.2771C52.1038 65.4983 52.2573 64.7261 52.5646 64.0104C52.872 63.2948 53.3264 62.6518 53.8983 62.1232C54.4703 61.5945 55.1471 61.1921 55.8846 60.9419C56.6222 60.6918 57.4042 60.5996 58.1797 60.6713C59.1897 60.7621 60.262 60.8869 61.3287 61.0571C64.6006 61.4863 67.8374 62.15 71.0141 63.043C73.4482 63.7806 76.0355 64.7451 77.7264 65.4374C78.3847 65.6969 78.9364 66.1705 79.2926 66.782C79.6487 67.3934 79.7886 68.107 79.6895 68.8077Z" fill="#263238"/>
<path d="M80.507 70.1694C80.6828 71.429 80.8985 72.8248 81.1538 74.1412C81.4091 75.4575 81.6928 76.7966 82.0276 78.1129C82.357 79.3923 82.7528 80.6536 83.2134 81.8917C83.6277 83.0622 84.1561 84.1892 84.7908 85.2564C85.0782 85.7277 85.4026 86.1755 85.761 86.5954L86.022 86.8621C86.1128 86.9586 86.1525 86.9813 86.2149 87.0493C86.3782 87.1791 86.5508 87.2967 86.7312 87.4011C87.7722 87.9219 88.8884 88.2761 90.0391 88.4508C92.7042 88.8668 95.3989 89.0641 98.0961 89.0409L98.4933 91.7246C95.5871 92.4834 92.5875 92.8234 89.5852 92.7346C87.8979 92.6962 86.2307 92.36 84.6603 91.7417C84.1985 91.5424 83.756 91.3012 83.3382 91.0211C83.1204 90.871 82.9102 90.71 82.7084 90.5388L82.1921 90.0735C81.5765 89.4552 81.0129 88.7872 80.507 88.0763C78.8124 85.4472 77.5483 82.5646 76.7622 79.5371C76.3536 78.0959 75.9848 76.649 75.7182 75.1908C75.4515 73.7327 75.1962 72.3085 75.043 70.7482L80.507 70.1694Z" fill="#FFB573"/>
<path d="M78.1576 65.7211C82.657 68.7283 82.6627 76.1554 82.6627 76.1554L73.4539 81.8861C73.4539 81.8861 70.9006 74.9639 71.6156 69.7212C72.0298 66.663 75.4001 63.8657 78.1576 65.7211Z" fill="#263238"/>
<path d="M96.8818 89.0408L102.681 88.8025L99.7982 93.2225C99.7982 93.2225 96.7797 92.8196 96.1045 90.7486L96.8818 89.0408Z" fill="#FFB573"/>
<path d="M104.718 92.1275L104.15 92.9275C103.963 93.1957 103.704 93.4056 103.403 93.5331C103.102 93.6606 102.771 93.7004 102.448 93.6481L99.7588 93.2225L102.67 88.7855L104.139 89.6253C104.349 89.7441 104.533 89.9054 104.677 90.0989C104.822 90.2923 104.924 90.5138 104.979 90.7491C105.033 90.9844 105.038 91.2284 104.993 91.4657C104.948 91.703 104.854 91.9284 104.718 92.1275Z" fill="#FFB573"/>
<path d="M76.8192 46.7928C76.8192 47.2241 77.0916 47.5645 77.3866 47.5475C77.6817 47.5305 77.8746 47.1673 77.8519 46.7361C77.8292 46.3049 77.5852 45.9701 77.2845 45.9815C76.9838 45.9928 76.7965 46.3616 76.8192 46.7928Z" fill="#263238"/>
<path d="M77.165 46.0155L78.1863 45.658C78.1863 45.658 77.6984 46.4864 77.165 46.0155Z" fill="#263238"/>
<path d="M77.2393 47.7347C77.6793 48.7005 78.2523 49.6 78.9414 50.4072C78.7299 50.5775 78.4836 50.6993 78.2199 50.764C77.9562 50.8287 77.6815 50.8347 77.4151 50.7816L77.2393 47.7347Z" fill="#ED893E"/>
<path d="M77.1533 50.1235C75.8313 50.1235 74.793 48.2738 74.793 45.9077C74.793 43.5417 75.8313 41.692 77.1533 41.692C78.4753 41.692 79.508 43.5474 79.508 45.9077C79.508 48.2681 78.4753 50.1235 77.1533 50.1235ZM77.1533 41.9984C76.0185 41.9984 75.0994 43.7516 75.0994 45.9077C75.0994 48.0638 76.0185 49.8227 77.1533 49.8227C78.2881 49.8227 79.2073 48.0638 79.2073 45.9077C79.2073 43.7516 78.2881 41.9984 77.1533 41.9984Z" fill="#407BFF"/>
<path d="M75.1734 45.7431C75.2277 45.7497 75.2826 45.7383 75.3298 45.7106C75.3769 45.6829 75.4137 45.6405 75.4344 45.5899C75.9054 44.5176 77.3919 44.2055 77.4033 44.2055C77.4694 44.1918 77.5275 44.1525 77.5647 44.0962C77.6019 44.0398 77.6153 43.971 77.6019 43.9048C77.5882 43.8386 77.5489 43.7806 77.4925 43.7434C77.4362 43.7062 77.3674 43.6928 77.3012 43.7062C77.2331 43.7062 75.5479 44.075 74.9692 45.4084C74.9552 45.4388 74.9474 45.4718 74.9464 45.5053C74.9454 45.5388 74.9512 45.5722 74.9633 45.6035C74.9755 45.6347 74.9939 45.6632 75.0173 45.6872C75.0407 45.7112 75.0687 45.7302 75.0997 45.7431C75.124 45.748 75.1491 45.748 75.1734 45.7431Z" fill="#263238"/>
<path d="M62.1182 45.9757C62.7253 51.2638 62.8672 53.5164 65.6871 56.098C69.9312 59.9847 76.2973 58.0839 77.2846 52.722C78.1754 47.8992 77.0406 40.0578 71.7355 38.2195C70.5679 37.8085 69.3146 37.7028 68.0946 37.9123C66.8746 38.1219 65.7284 38.6398 64.7649 39.4169C63.8013 40.194 63.0524 41.2045 62.5892 42.3524C62.126 43.5003 61.9639 44.7476 62.1182 45.9757Z" fill="#FFB573"/>
<path d="M74.9461 47.9787C77.4029 44.2055 78.6455 39.5302 76.2795 36.7727C73.9135 34.0152 70.3389 36.7727 70.3389 36.7727C70.3389 36.7727 60.784 33.3059 57.686 37.3401C53.198 43.1445 59.0705 46.8212 57.6293 48.4383C56.1881 50.0553 54.2249 52.3136 56.0009 55.6782C57.9527 59.3492 72.8297 56.5179 74.9461 60.745C81.1817 60.3762 77.9363 50.2312 74.9461 47.9787Z" fill="#263238"/>
<path d="M56.9491 49.9702C56.9123 49.9702 56.8764 49.9583 56.847 49.9362C56.8186 49.9075 56.8026 49.8687 56.8026 49.8284C56.8026 49.788 56.8186 49.7492 56.847 49.7205C57.2952 49.2212 56.9151 48.4496 56.3817 47.3772C55.4171 45.414 53.9533 42.4466 56.898 38.6337C56.9267 38.6053 56.9655 38.5894 57.0058 38.5894C57.0462 38.5894 57.085 38.6053 57.1136 38.6337C57.1295 38.6454 57.1429 38.6602 57.153 38.6772C57.1631 38.6942 57.1696 38.7131 57.1723 38.7327C57.1749 38.7522 57.1736 38.7722 57.1684 38.7912C57.1632 38.8103 57.1542 38.8281 57.142 38.8436C54.3051 42.509 55.6668 45.2608 56.6541 47.2751C57.2214 48.4099 57.6583 49.3007 57.0739 49.9475C57.0563 49.9607 57.0359 49.9696 57.0142 49.9736C56.9925 49.9775 56.9702 49.9764 56.9491 49.9702Z" fill="#263238"/>
<path d="M77.1365 60.1039C76.8369 60.0998 76.5385 60.0655 76.2457 60.0017C76.2259 59.9976 76.2072 59.9897 76.1905 59.9783C76.1738 59.967 76.1596 59.9525 76.1485 59.9356C76.1374 59.9188 76.1298 59.8999 76.126 59.8801C76.1223 59.8603 76.1224 59.8399 76.1265 59.8202C76.1306 59.8004 76.1386 59.7817 76.1499 59.765C76.1613 59.7483 76.1758 59.734 76.1926 59.723C76.2095 59.7119 76.2284 59.7043 76.2482 59.7005C76.268 59.6967 76.2884 59.6969 76.3081 59.701C77.6358 59.9904 78.4982 59.6386 78.8727 58.6627C79.894 55.9959 76.9946 49.5333 74.674 48.217C74.6429 48.1953 74.621 48.1629 74.6124 48.126C74.6038 48.0891 74.6092 48.0503 74.6275 48.0172C74.6459 47.984 74.6759 47.9588 74.7117 47.9465C74.7475 47.9341 74.7867 47.9355 74.8215 47.9503C77.284 49.3461 80.2401 55.9392 79.1564 58.7705C79.0129 59.1837 78.7373 59.5382 78.3722 59.7792C78.0072 60.0202 77.5729 60.1343 77.1365 60.1039Z" fill="#263238"/>
<path d="M73.698 47.6212C73.6636 47.6208 73.6303 47.6088 73.6035 47.5872C73.5768 47.5656 73.5581 47.5356 73.5504 47.5021C73.5091 47.351 73.5035 47.1924 73.534 47.0388C73.5645 46.8852 73.6304 46.7407 73.7263 46.6169C74.3448 45.7999 76.3307 45.3346 79.6385 45.2325C79.6581 45.2309 79.6778 45.2334 79.6963 45.2399C79.7149 45.2463 79.7319 45.2565 79.7463 45.2698C79.7607 45.2832 79.7721 45.2993 79.78 45.3173C79.7878 45.3353 79.7918 45.3547 79.7917 45.3744C79.7933 45.3947 79.7907 45.4151 79.7839 45.4343C79.7772 45.4535 79.7666 45.4712 79.7528 45.4861C79.7389 45.501 79.7221 45.5129 79.7034 45.521C79.6847 45.5291 79.6646 45.5333 79.6442 45.5332C75.6725 45.6581 74.3504 46.2935 73.9703 46.7985C73.9006 46.8858 73.8529 46.9886 73.8312 47.0982C73.8094 47.2078 73.8143 47.321 73.8455 47.4283C73.8505 47.4481 73.8516 47.4686 73.8486 47.4888C73.8456 47.509 73.8387 47.5284 73.8281 47.5458C73.8175 47.5632 73.8036 47.5784 73.7871 47.5904C73.7706 47.6023 73.7518 47.6109 73.732 47.6156L73.698 47.6212Z" fill="#407BFF"/>
<path d="M74.2998 48.7843C74.5627 49.2031 74.9108 49.5619 75.3213 49.8376C75.7318 50.1132 76.1957 50.2995 76.6828 50.3844C77.6304 50.5319 77.3694 49.0907 76.9155 47.746C76.5069 46.5375 75.514 44.9998 74.6459 45.4764C73.7778 45.953 73.6983 47.6212 74.2998 48.7843Z" fill="#FFB573"/>
<path d="M23.5809 187.767C24.0331 187.858 24.5029 187.788 24.9086 187.568C24.9995 187.505 25.0733 187.42 25.1238 187.321C25.1742 187.222 25.1997 187.112 25.198 187.001C25.2034 186.931 25.1899 186.861 25.1589 186.798C25.128 186.735 25.0807 186.682 25.0221 186.644C24.4037 186.218 22.1852 187.092 21.9128 187.211C21.8874 187.219 21.8652 187.235 21.8495 187.256C21.8337 187.278 21.8252 187.303 21.8252 187.33C21.8252 187.357 21.8337 187.383 21.8495 187.404C21.8652 187.425 21.8874 187.441 21.9128 187.449C22.4575 187.608 23.016 187.715 23.5809 187.767ZM24.6476 186.763C24.7283 186.763 24.8072 186.786 24.8746 186.831C24.8992 186.846 24.9191 186.868 24.9321 186.894C24.9451 186.92 24.9507 186.949 24.9484 186.978C24.9509 187.053 24.9351 187.127 24.9025 187.194C24.8699 187.262 24.8213 187.32 24.7611 187.364C24.4093 187.625 23.5242 187.585 22.3611 187.273C23.0867 186.964 23.8602 186.781 24.6476 186.734V186.763Z" fill="#407BFF"/>
<path d="M21.9468 187.387H21.9978C22.6673 187.16 24.0404 186.139 24.0007 185.526C24.0007 185.378 23.9099 185.191 23.5638 185.117C23.44 185.092 23.3122 185.091 23.1883 185.117C23.0644 185.142 22.947 185.193 22.8432 185.265C22.1113 185.758 21.8446 187.183 21.8333 187.245C21.8309 187.262 21.8319 187.28 21.8364 187.296C21.8408 187.313 21.8485 187.329 21.8591 187.343C21.8697 187.356 21.8828 187.368 21.8979 187.376C21.913 187.385 21.9296 187.39 21.9468 187.393V187.387ZM23.4333 185.35H23.5128C23.7397 185.395 23.7454 185.492 23.7454 185.52C23.7454 185.889 22.8262 186.712 22.1397 187.041C22.2576 186.452 22.5526 185.914 22.9851 185.497C23.1109 185.394 23.2707 185.341 23.4333 185.35Z" fill="#407BFF"/>
<path d="M15.7451 188.408L21.0048 189.429L26.8206 176.465L21.5609 175.443L15.7451 188.408Z" fill="#FFB573"/>
<path d="M22.355 187.132L16.681 185.123C16.6367 185.103 16.5886 185.094 16.5401 185.095C16.4916 185.096 16.444 185.108 16.4006 185.13C16.3572 185.151 16.3192 185.182 16.2892 185.22C16.2592 185.258 16.238 185.303 16.2271 185.35L14.5249 189.787C14.4721 190.041 14.511 190.306 14.6345 190.534C14.7581 190.763 14.9584 190.94 15.2001 191.035C17.186 191.699 19.2513 192.023 21.8273 192.652C23.8908 193.197 26.0092 193.507 28.1423 193.577C30.3438 193.577 30.0715 191.347 29.0899 191.149C24.704 190.247 24.3125 189.447 23.1493 187.744C22.9545 187.463 22.6769 187.249 22.355 187.132Z" fill="#263238"/>
<g opacity="0.2">
<path d="M26.8151 176.47L23.8193 183.154L18.5596 182.127L21.5554 175.449L26.8151 176.47Z" fill="black"/>
</g>
<path d="M49.0285 92.8367C41.5787 99.7702 41.0567 122.687 35.6664 138.228C26.9853 153.854 19.0078 179.109 19.0078 179.109L26.2477 181.1C26.2477 181.1 37.3516 159.097 44.4497 143.652C52.2797 126.631 62.6743 95.6793 62.6743 95.6793L49.0285 92.8367Z" fill="#407BFF"/>
<path opacity="0.2" d="M54.2591 104.65C54.1186 108.857 54.3846 113.067 55.0534 117.223C56.4208 113.518 57.6861 109.983 58.7812 106.902L54.2591 104.65Z" fill="black"/>
<path d="M72.5639 187.852C73.0236 187.892 73.4833 187.776 73.8689 187.523C73.9544 187.446 74.0197 187.35 74.0593 187.242C74.0988 187.134 74.1114 187.018 74.0959 186.905C74.0936 186.834 74.0724 186.765 74.0345 186.705C73.9966 186.645 73.9433 186.596 73.8803 186.564C73.2221 186.207 71.0831 187.296 70.8447 187.421C70.8225 187.434 70.8045 187.454 70.7925 187.477C70.7804 187.5 70.775 187.525 70.7767 187.551C70.7799 187.578 70.7916 187.603 70.81 187.622C70.8283 187.642 70.8525 187.655 70.8788 187.659C71.4333 187.776 71.9974 187.841 72.5639 187.852ZM73.5228 186.717C73.6046 186.715 73.6859 186.731 73.7611 186.763C73.7859 186.777 73.8064 186.798 73.8204 186.823C73.8344 186.848 73.8413 186.876 73.8406 186.905C73.8528 186.978 73.8463 187.054 73.8215 187.124C73.7967 187.195 73.7544 187.258 73.6987 187.307C73.3696 187.602 72.4902 187.654 71.2987 187.455C71.9874 187.095 72.7315 186.854 73.5001 186.74L73.5228 186.717Z" fill="#407BFF"/>
<path d="M70.8611 187.659C70.8776 187.665 70.8957 187.665 70.9122 187.659C71.5533 187.376 72.8186 186.218 72.7222 185.611C72.6938 185.463 72.5917 185.288 72.2399 185.248C72.1147 185.236 71.9883 185.249 71.8684 185.287C71.7485 185.325 71.6375 185.387 71.542 185.469C70.8668 186.037 70.742 187.472 70.7363 187.534C70.7335 187.556 70.7368 187.578 70.7458 187.598C70.7549 187.618 70.7692 187.636 70.7874 187.648C70.8102 187.659 70.836 187.663 70.8611 187.659ZM72.1378 185.486H72.2172C72.4498 185.486 72.4612 185.6 72.4669 185.634C72.5293 185.997 71.6725 186.905 71.02 187.302C71.0694 186.692 71.3074 186.113 71.7009 185.645C71.8297 185.543 71.9907 185.491 72.1548 185.497L72.1378 185.486Z" fill="#407BFF"/>
<path d="M65.2275 188.839L70.5327 189.639L73.0916 177.463L67.7922 176.663L65.2275 188.839Z" fill="#FFB573"/>
<path d="M71.4282 187.478H65.3968C65.2928 187.475 65.1917 187.512 65.1131 187.58C65.0344 187.648 64.9839 187.743 64.9713 187.846L64.2847 192.613C64.2711 192.733 64.2831 192.855 64.32 192.97C64.357 193.085 64.4179 193.192 64.4989 193.282C64.5798 193.372 64.6789 193.444 64.7897 193.493C64.9005 193.542 65.0204 193.567 65.1415 193.566C67.2409 193.532 68.2565 193.407 70.9062 193.407C72.5346 193.407 76.2624 193.577 78.5149 193.577C80.7675 193.577 80.8866 191.347 79.9504 191.149C75.7461 190.247 73.7091 188.998 72.319 187.807C72.0699 187.596 71.7546 187.479 71.4282 187.478Z" fill="#263238"/>
<g opacity="0.2">
<path d="M73.091 177.469L71.7747 183.744L66.4639 182.944L67.7859 176.669L73.091 177.469Z" fill="black"/>
</g>
<path d="M70.5948 97.4269C70.5948 97.4269 84.4789 124.287 82.9412 140.549C81.3412 157.491 72.7282 182.195 72.7282 182.195L66.2656 181.026C66.2656 181.026 71.1905 149.769 74.2091 138.194C66.7479 121.002 45.0054 114.488 54.9177 94.1927C57.8739 94.7147 70.5948 97.4269 70.5948 97.4269Z" fill="#407BFF"/>
<path d="M65.2559 181.77L73.6703 183.041L74.5838 179.795L65.3126 179.063L65.2559 181.77Z" fill="#263238"/>
<path d="M18.0488 180.607L26.2136 182.99L28.0349 179.818L18.69 178.002L18.0488 180.607Z" fill="#263238"/>
<path d="M49.198 91.7245L48.2561 93.5232C48.154 93.6537 48.2958 93.8409 48.5455 93.892L70.5035 98.4028C70.6964 98.4425 70.878 98.4028 70.9121 98.2609L71.4794 96.3942C71.5192 96.2637 71.3773 96.1162 71.1674 96.0764L49.5611 91.6338C49.4977 91.6189 49.4317 91.6193 49.3685 91.6351C49.3053 91.6509 49.2469 91.6816 49.198 91.7245Z" fill="white"/>
<path d="M51.604 94.7147L51.0366 94.5956C50.9175 94.5956 50.8437 94.4934 50.8664 94.4254L51.6494 91.9969C51.6494 91.9288 51.7856 91.8891 51.8991 91.9118L52.4664 92.031C52.5799 92.031 52.6594 92.1331 52.6367 92.2012L51.8537 94.6296C51.831 94.7147 51.7175 94.7601 51.604 94.7147Z" fill="#407BFF"/>
<path d="M68.8352 98.278L68.2678 98.1589C68.1544 98.1589 68.0749 98.0567 68.0976 97.9886L68.8806 95.5602C68.8806 95.4864 69.0168 95.4524 69.1303 95.4751L69.6977 95.5942C69.8168 95.5942 69.8906 95.6964 69.8679 95.7645L69.0849 98.1929C69.0622 98.261 68.9487 98.3007 68.8352 98.278Z" fill="#407BFF"/>
<path d="M60.2175 96.5077L59.6501 96.3885C59.5366 96.3885 59.4629 96.2864 59.4855 96.2183L60.2629 93.7899C60.2629 93.7218 60.3991 93.6821 60.5182 93.7048L61.0856 93.8239C61.1991 93.8239 61.2728 93.9261 61.2501 93.9941L60.4728 96.4169C60.4501 96.4907 60.3366 96.5304 60.2175 96.5077Z" fill="#407BFF"/>
</g>
<defs>
<clipPath id="clip0_1015_10367">
<rect width="226.889" height="200" fill="white"/>
</clipPath>
</defs>
</svg>
