<svg width="313" height="250" viewBox="0 0 313 250" fill="none" xmlns="http://www.w3.org/2000/svg">
<path d="M156.469 250C242.884 250 312.938 245.91 312.938 240.865C312.938 235.82 242.884 231.73 156.469 231.73C70.0535 231.73 0 235.82 0 240.865C0 245.91 70.0535 250 156.469 250Z" fill="#F5F5F5"/>
<path d="M194.778 4.61606H175.41C174.779 4.62948 174.171 4.85372 173.683 5.25301C173.194 5.6523 172.853 6.20366 172.715 6.81917L172.586 7.42442C172.251 8.92598 171.421 10.2715 170.23 11.2448C169.039 12.2181 167.555 12.7626 166.017 12.791H147.617C146.158 12.8235 144.745 12.2776 143.686 11.2722C142.628 10.2667 142.01 8.88356 141.968 7.42442V6.81917C141.953 6.22126 141.702 5.6536 141.269 5.24063C140.837 4.82766 140.258 4.60306 139.66 4.61606H120.292C117.111 4.67263 114.061 5.89295 111.719 8.0462C109.377 10.1995 107.905 13.1363 107.582 16.3014L92.0391 194.277C91.875 195.765 92.0297 197.271 92.4931 198.694C92.9565 200.118 93.7178 201.427 94.7264 202.533C95.7351 203.639 96.9678 204.518 98.3426 205.111C99.7174 205.703 101.203 205.996 102.7 205.97H177.161C180.343 205.912 183.393 204.69 185.735 202.535C188.077 200.38 189.549 197.443 189.872 194.277L205.447 16.3014C205.61 14.8133 205.454 13.3075 204.989 11.8843C204.525 10.4611 203.763 9.15316 202.753 8.04758C201.744 6.942 200.511 6.06414 199.135 5.47245C197.76 4.88076 196.275 4.58882 194.778 4.61606Z" fill="#407BFF"/>
<path opacity="0.7" d="M194.778 4.61606H175.41C174.779 4.62948 174.171 4.85372 173.683 5.25301C173.194 5.6523 172.853 6.20366 172.715 6.81917L172.586 7.42442C172.251 8.92598 171.421 10.2715 170.23 11.2448C169.039 12.2181 167.555 12.7626 166.017 12.791H147.617C146.158 12.8235 144.745 12.2776 143.686 11.2722C142.628 10.2667 142.01 8.88356 141.968 7.42442V6.81917C141.953 6.22126 141.702 5.6536 141.269 5.24063C140.837 4.82766 140.258 4.60306 139.66 4.61606H120.292C117.111 4.67263 114.061 5.89295 111.719 8.0462C109.377 10.1995 107.905 13.1363 107.582 16.3014L92.0391 194.277C91.875 195.765 92.0297 197.271 92.4931 198.694C92.9565 200.118 93.7178 201.427 94.7264 202.533C95.7351 203.639 96.9678 204.518 98.3426 205.111C99.7174 205.703 101.203 205.996 102.7 205.97H177.161C180.343 205.912 183.393 204.69 185.735 202.535C188.077 200.38 189.549 197.443 189.872 194.277L205.447 16.3014C205.61 14.8133 205.454 13.3075 204.989 11.8843C204.525 10.4611 203.763 9.15316 202.753 8.04758C201.744 6.942 200.511 6.06414 199.135 5.47245C197.76 4.88076 196.275 4.58882 194.778 4.61606Z" fill="white"/>
<path d="M187.234 86.4779H147.691C147.358 86.4833 147.028 86.4179 146.723 86.286C146.417 86.1542 146.143 85.959 145.919 85.7133C145.694 85.4676 145.525 85.1771 145.421 84.8609C145.318 84.5448 145.283 84.2102 145.318 83.8794L148.296 49.8322C148.367 49.1283 148.694 48.475 149.214 47.9961C149.735 47.5172 150.413 47.2459 151.12 47.2336H190.663C190.996 47.227 191.327 47.2915 191.633 47.4229C191.939 47.5543 192.214 47.7495 192.438 47.9955C192.663 48.2414 192.832 48.5325 192.935 48.8493C193.038 49.166 193.073 49.5011 193.036 49.8322L190.058 83.8794C189.985 84.5826 189.658 85.2349 189.138 85.7135C188.618 86.1921 187.94 86.464 187.234 86.4779Z" fill="white"/>
<path d="M174.079 192.937H107.905C107.078 192.952 106.257 192.791 105.497 192.464C104.738 192.138 104.056 191.653 103.499 191.042C102.941 190.431 102.521 189.708 102.265 188.922C102.008 188.135 101.923 187.303 102.014 186.481C102.193 184.733 103.006 183.111 104.3 181.922C105.593 180.732 107.278 180.057 109.035 180.025H175.208C176.035 180.01 176.856 180.171 177.616 180.498C178.375 180.825 179.057 181.31 179.614 181.921C180.172 182.532 180.592 183.254 180.849 184.041C181.105 184.827 181.19 185.659 181.1 186.481C180.922 188.23 180.109 189.853 178.815 191.043C177.521 192.233 175.836 192.907 174.079 192.937Z" fill="white"/>
<path d="M179.348 37.8725H118.638C118.172 37.8865 117.709 37.7996 117.281 37.6179C116.852 37.4362 116.468 37.1639 116.154 36.8197C115.841 36.4755 115.605 36.0675 115.464 35.6238C115.323 35.1801 115.28 34.7111 115.337 34.249L115.829 28.6001C115.931 27.6207 116.388 26.7125 117.114 26.0466C117.839 25.3807 118.783 25.003 119.767 24.9847H180.478C180.941 24.9764 181.401 25.0667 181.827 25.2496C182.253 25.4326 182.635 25.704 182.948 26.046C183.261 26.3879 183.497 26.7924 183.642 27.2328C183.787 27.6731 183.836 28.1392 183.787 28.6001L183.286 34.249C183.186 35.2299 182.73 36.14 182.004 36.8075C181.279 37.4751 180.334 37.8539 179.348 37.8725Z" fill="white"/>
<path d="M191.695 28.4064C191.667 28.6797 191.54 28.9335 191.338 29.1194C191.135 29.3054 190.872 29.4106 190.597 29.4151C190.468 29.417 190.34 29.3914 190.222 29.3402C190.103 29.2889 189.997 29.2131 189.91 29.1178C189.823 29.0224 189.757 28.9097 189.717 28.7871C189.677 28.6644 189.663 28.5347 189.677 28.4064C189.705 28.1338 189.832 27.881 190.035 27.6963C190.237 27.5117 190.501 27.4083 190.775 27.4057C190.903 27.4027 191.031 27.4271 191.149 27.4774C191.268 27.5278 191.374 27.6028 191.461 27.6976C191.548 27.7923 191.614 27.9045 191.654 28.0268C191.695 28.149 191.708 28.2784 191.695 28.4064Z" fill="white"/>
<path d="M191.429 31.4245C191.403 31.6972 191.278 31.9509 191.077 32.137C190.876 32.323 190.613 32.4285 190.339 32.4333C190.21 32.4352 190.082 32.4096 189.964 32.3584C189.845 32.3071 189.739 32.2313 189.652 32.136C189.565 32.0406 189.499 31.9279 189.459 31.8053C189.419 31.6826 189.406 31.5529 189.419 31.4245C189.445 31.1518 189.57 30.8982 189.771 30.7121C189.972 30.526 190.235 30.4205 190.509 30.4158C190.638 30.4139 190.766 30.4395 190.884 30.4907C191.003 30.542 191.109 30.6178 191.196 30.7131C191.283 30.8085 191.348 30.9212 191.389 31.0438C191.429 31.1665 191.442 31.2962 191.429 31.4245Z" fill="white"/>
<path d="M191.171 34.4346C191.143 34.708 191.016 34.9618 190.814 35.1477C190.612 35.3336 190.348 35.4389 190.074 35.4434C189.945 35.4453 189.817 35.4197 189.698 35.3685C189.58 35.3172 189.474 35.2414 189.387 35.1461C189.3 35.0507 189.234 34.938 189.194 34.8154C189.154 34.6927 189.14 34.563 189.154 34.4346C189.181 34.1613 189.308 33.9075 189.511 33.7216C189.713 33.5357 189.976 33.4304 190.251 33.4259C190.38 33.424 190.508 33.4496 190.627 33.5008C190.745 33.5521 190.851 33.6279 190.938 33.7232C191.025 33.8186 191.091 33.9313 191.131 34.0539C191.171 34.1766 191.185 34.3063 191.171 34.4346Z" fill="white"/>
<path d="M182.318 142.645H108.453C108.12 142.652 107.79 142.587 107.484 142.456C107.178 142.324 106.903 142.129 106.678 141.883C106.454 141.637 106.284 141.346 106.181 141.029C106.078 140.713 106.044 140.378 106.081 140.046L109.519 101.19C109.59 100.486 109.916 99.8324 110.437 99.3535C110.958 98.8745 111.636 98.6032 112.343 98.591H186.183C186.516 98.5855 186.845 98.6509 187.151 98.7828C187.456 98.9147 187.729 99.1101 187.953 99.3559C188.177 99.6018 188.345 99.8924 188.448 100.209C188.551 100.525 188.585 100.859 188.548 101.19L185.15 140.046C185.079 140.752 184.751 141.406 184.229 141.885C183.707 142.364 183.027 142.635 182.318 142.645Z" fill="white"/>
<path d="M128.774 150.763H105.775C105.694 150.765 105.614 150.749 105.54 150.718C105.466 150.686 105.4 150.639 105.345 150.579C105.291 150.519 105.25 150.449 105.225 150.372C105.201 150.295 105.193 150.214 105.202 150.134C105.218 149.962 105.297 149.802 105.423 149.684C105.55 149.566 105.715 149.5 105.888 149.496H128.887C128.969 149.495 129.05 149.51 129.124 149.543C129.199 149.575 129.266 149.623 129.32 149.684C129.375 149.744 129.415 149.816 129.44 149.893C129.464 149.971 129.471 150.053 129.46 150.134C129.443 150.305 129.363 150.463 129.237 150.579C129.11 150.695 128.946 150.76 128.774 150.763Z" fill="white"/>
<path d="M157.519 150.763H132.833C132.752 150.766 132.671 150.752 132.596 150.72C132.52 150.689 132.453 150.642 132.398 150.582C132.343 150.522 132.301 150.451 132.276 150.374C132.251 150.297 132.242 150.215 132.252 150.134C132.268 149.962 132.346 149.802 132.473 149.684C132.6 149.566 132.765 149.5 132.938 149.496H157.632C157.713 149.495 157.794 149.51 157.869 149.543C157.944 149.575 158.01 149.623 158.065 149.684C158.119 149.744 158.16 149.816 158.184 149.893C158.208 149.971 158.215 150.053 158.205 150.134C158.187 150.305 158.108 150.463 157.981 150.579C157.855 150.695 157.69 150.76 157.519 150.763Z" fill="white"/>
<path d="M120.816 156.372H105.29C105.208 156.374 105.127 156.358 105.052 156.326C104.977 156.293 104.91 156.246 104.855 156.185C104.8 156.125 104.758 156.053 104.733 155.976C104.708 155.898 104.7 155.816 104.709 155.735C104.726 155.563 104.806 155.404 104.932 155.287C105.058 155.169 105.222 155.102 105.395 155.097H120.954C121.035 155.097 121.115 155.113 121.19 155.146C121.264 155.179 121.331 155.227 121.386 155.287C121.441 155.347 121.482 155.418 121.508 155.495C121.533 155.572 121.543 155.654 121.535 155.735C121.516 155.911 121.433 156.075 121.3 156.193C121.167 156.311 120.994 156.375 120.816 156.372Z" fill="white"/>
<path d="M150.385 156.372H124.9C124.818 156.374 124.737 156.358 124.662 156.326C124.587 156.293 124.52 156.246 124.465 156.185C124.41 156.125 124.368 156.053 124.343 155.976C124.318 155.898 124.31 155.816 124.319 155.735C124.337 155.562 124.417 155.402 124.545 155.284C124.673 155.167 124.839 155.1 125.013 155.097H150.49C150.572 155.095 150.653 155.111 150.728 155.143C150.803 155.176 150.87 155.224 150.925 155.284C150.98 155.344 151.022 155.416 151.047 155.493C151.072 155.571 151.08 155.653 151.071 155.735C151.055 155.907 150.976 156.067 150.85 156.184C150.723 156.302 150.558 156.369 150.385 156.372Z" fill="white"/>
<path d="M146.269 161.973H104.798C104.716 161.975 104.635 161.961 104.56 161.929C104.485 161.898 104.418 161.851 104.363 161.791C104.308 161.731 104.266 161.66 104.241 161.583C104.216 161.506 104.207 161.424 104.217 161.343C104.234 161.17 104.315 161.01 104.443 160.893C104.571 160.775 104.737 160.709 104.911 160.706H146.382C146.464 160.705 146.544 160.722 146.619 160.755C146.693 160.787 146.76 160.835 146.814 160.895C146.869 160.955 146.911 161.026 146.936 161.103C146.962 161.181 146.971 161.262 146.963 161.343C146.944 161.514 146.863 161.673 146.735 161.789C146.607 161.904 146.442 161.97 146.269 161.973Z" fill="white"/>
<path d="M153.096 161.973H150.36C150.279 161.976 150.198 161.961 150.123 161.929C150.048 161.898 149.98 161.851 149.925 161.791C149.87 161.731 149.828 161.661 149.803 161.583C149.778 161.506 149.77 161.424 149.779 161.343C149.795 161.171 149.874 161.011 150 160.893C150.127 160.776 150.292 160.709 150.465 160.706H153.209C153.29 160.704 153.371 160.72 153.446 160.752C153.521 160.784 153.587 160.832 153.642 160.893C153.696 160.953 153.737 161.025 153.761 161.103C153.785 161.18 153.792 161.262 153.782 161.343C153.764 161.514 153.685 161.672 153.558 161.788C153.432 161.904 153.267 161.97 153.096 161.973Z" fill="white"/>
<path d="M123.666 167.581H104.298C104.216 167.582 104.136 167.565 104.061 167.532C103.987 167.5 103.92 167.452 103.865 167.392C103.811 167.332 103.769 167.261 103.744 167.184C103.718 167.106 103.709 167.025 103.717 166.944C103.734 166.771 103.815 166.611 103.943 166.493C104.071 166.376 104.237 166.309 104.411 166.306H123.779C123.86 166.305 123.941 166.32 124.016 166.353C124.091 166.385 124.159 166.433 124.214 166.493C124.269 166.554 124.31 166.625 124.335 166.703C124.361 166.78 124.369 166.863 124.36 166.944C124.342 167.117 124.261 167.277 124.134 167.394C124.006 167.512 123.839 167.578 123.666 167.581Z" fill="white"/>
<path d="M151.838 167.581H127.724C127.643 167.582 127.563 167.565 127.488 167.532C127.414 167.5 127.347 167.452 127.292 167.392C127.237 167.332 127.196 167.261 127.17 167.184C127.145 167.106 127.135 167.025 127.143 166.944C127.161 166.771 127.242 166.611 127.369 166.493C127.497 166.376 127.664 166.309 127.837 166.306H151.942C152.024 166.305 152.105 166.32 152.18 166.353C152.255 166.385 152.323 166.433 152.378 166.493C152.433 166.554 152.474 166.625 152.499 166.703C152.524 166.78 152.533 166.863 152.523 166.944C152.506 167.115 152.427 167.274 152.3 167.392C152.174 167.509 152.01 167.576 151.838 167.581Z" fill="white"/>
<path d="M127.66 173.182H103.813C103.732 173.184 103.651 173.168 103.576 173.136C103.501 173.103 103.435 173.055 103.38 172.995C103.326 172.934 103.285 172.863 103.261 172.785C103.237 172.707 103.23 172.625 103.24 172.544C103.258 172.374 103.337 172.216 103.464 172.1C103.59 171.984 103.755 171.918 103.926 171.915H127.765C127.846 171.912 127.927 171.927 128.002 171.958C128.077 171.989 128.145 172.036 128.2 172.096C128.255 172.156 128.296 172.227 128.322 172.304C128.347 172.382 128.355 172.464 128.346 172.544C128.33 172.716 128.251 172.877 128.125 172.994C127.998 173.112 127.833 173.179 127.66 173.182Z" fill="white"/>
<path d="M150.917 173.182H131.71C131.629 173.184 131.548 173.168 131.474 173.136C131.399 173.103 131.332 173.055 131.278 172.995C131.223 172.934 131.182 172.863 131.158 172.785C131.134 172.707 131.127 172.625 131.138 172.544C131.155 172.374 131.235 172.216 131.361 172.1C131.488 171.984 131.652 171.918 131.823 171.915H151.03C151.111 171.912 151.192 171.927 151.267 171.958C151.342 171.989 151.41 172.036 151.465 172.096C151.52 172.156 151.562 172.227 151.587 172.304C151.612 172.382 151.62 172.464 151.611 172.544C151.593 172.717 151.513 172.877 151.385 172.995C151.257 173.112 151.091 173.179 150.917 173.182Z" fill="white"/>
<path d="M186.296 83.25C186.226 83.3306 186.14 83.3964 186.045 83.4437C185.949 83.4911 185.845 83.5189 185.738 83.5257C185.631 83.5324 185.525 83.518 185.424 83.4831C185.323 83.4482 185.23 83.3937 185.15 83.3226L152.119 51.8012C151.969 51.65 151.885 51.4455 151.885 51.2323C151.885 51.0191 151.969 50.8146 152.119 50.6634C152.19 50.5828 152.275 50.5169 152.371 50.4696C152.466 50.4223 152.571 50.3944 152.677 50.3877C152.784 50.3809 152.891 50.3954 152.992 50.4302C153.093 50.4651 153.186 50.5197 153.265 50.5907L186.296 82.1121C186.446 82.2633 186.53 82.4678 186.53 82.681C186.53 82.8942 186.446 83.0988 186.296 83.25Z" fill="#407BFF"/>
<path d="M149.199 83.2419C149.133 83.1561 149.085 83.058 149.058 82.9535C149.031 82.8489 149.025 82.7399 149.041 82.6331C149.057 82.5262 149.094 82.4236 149.15 82.3313C149.206 82.2391 149.28 82.159 149.368 82.0959L166.218 68.3205C166.378 68.1819 166.587 68.1119 166.798 68.1254C167.009 68.139 167.207 68.2352 167.348 68.3931C167.412 68.4786 167.459 68.5761 167.486 68.6799C167.512 68.7837 167.517 68.8916 167.502 68.9975C167.486 69.1034 167.449 69.2052 167.394 69.2967C167.338 69.3883 167.265 69.4679 167.179 69.531L150.328 83.3145C150.168 83.4531 149.96 83.5231 149.749 83.5095C149.537 83.496 149.34 83.3998 149.199 83.2419Z" fill="#407BFF"/>
<path d="M170.971 65.4314C170.907 65.3459 170.86 65.2484 170.833 65.1447C170.807 65.0409 170.802 64.9329 170.817 64.827C170.833 64.7211 170.87 64.6194 170.925 64.5278C170.981 64.4362 171.054 64.3566 171.14 64.2936L188.023 50.4939C188.183 50.3553 188.391 50.2853 188.603 50.2989C188.814 50.3125 189.012 50.4086 189.153 50.5665C189.217 50.6521 189.264 50.7495 189.29 50.8533C189.317 50.9571 189.322 51.0651 189.306 51.171C189.291 51.2769 189.254 51.3786 189.198 51.4702C189.143 51.5617 189.07 51.6414 188.983 51.7044L172.101 65.5041C171.941 65.6426 171.732 65.7127 171.521 65.6991C171.31 65.6855 171.112 65.5894 170.971 65.4314Z" fill="#407BFF"/>
<g opacity="0.7">
<path d="M186.296 83.25C186.226 83.3306 186.14 83.3964 186.045 83.4437C185.949 83.4911 185.845 83.5189 185.738 83.5257C185.631 83.5324 185.525 83.518 185.424 83.4831C185.323 83.4482 185.23 83.3937 185.15 83.3226L152.119 51.8012C151.969 51.65 151.885 51.4455 151.885 51.2323C151.885 51.0191 151.969 50.8146 152.119 50.6634C152.19 50.5828 152.275 50.5169 152.371 50.4696C152.466 50.4223 152.571 50.3944 152.677 50.3877C152.784 50.3809 152.891 50.3954 152.992 50.4302C153.093 50.4651 153.186 50.5197 153.265 50.5907L186.296 82.1121C186.446 82.2633 186.53 82.4678 186.53 82.681C186.53 82.8942 186.446 83.0988 186.296 83.25Z" fill="white"/>
</g>
<g opacity="0.7">
<path d="M149.199 83.2419C149.133 83.1561 149.085 83.058 149.058 82.9535C149.031 82.8489 149.025 82.7399 149.041 82.6331C149.057 82.5262 149.094 82.4236 149.15 82.3313C149.206 82.2391 149.28 82.159 149.368 82.0959L166.218 68.3205C166.378 68.1819 166.587 68.1119 166.798 68.1254C167.009 68.139 167.207 68.2352 167.348 68.3931C167.412 68.4786 167.459 68.5761 167.486 68.6799C167.512 68.7837 167.517 68.8916 167.502 68.9975C167.486 69.1034 167.449 69.2052 167.394 69.2967C167.338 69.3883 167.265 69.4679 167.179 69.531L150.328 83.3145C150.168 83.4531 149.96 83.5231 149.749 83.5095C149.537 83.496 149.34 83.3998 149.199 83.2419Z" fill="white"/>
</g>
<g opacity="0.7">
<path d="M170.971 65.4314C170.907 65.3459 170.86 65.2484 170.833 65.1447C170.807 65.0409 170.802 64.9329 170.817 64.827C170.833 64.7211 170.87 64.6194 170.925 64.5278C170.981 64.4362 171.054 64.3566 171.14 64.2936L188.023 50.4939C188.183 50.3553 188.391 50.2853 188.603 50.2989C188.814 50.3124 189.012 50.4086 189.153 50.5665C189.217 50.652 189.264 50.7495 189.29 50.8533C189.317 50.9571 189.322 51.0651 189.306 51.171C189.291 51.2769 189.254 51.3786 189.198 51.4701C189.143 51.5617 189.07 51.6414 188.983 51.7044L172.101 65.5041C171.941 65.6426 171.732 65.7127 171.521 65.6991C171.31 65.6855 171.112 65.5894 170.971 65.4314Z" fill="white"/>
</g>
<path d="M92.3611 0.742405H81.8701C80.8541 0.746673 79.8812 1.15327 79.1643 1.87319C78.4474 2.59312 78.0449 3.56773 78.0449 4.58372V15.0747C78.0449 16.0935 78.4496 17.0705 79.17 17.7909C79.8904 18.5113 80.8674 18.916 81.8862 18.916H92.3772C93.396 18.916 94.373 18.5113 95.0934 17.7909C95.8138 17.0705 96.2185 16.0935 96.2185 15.0747V4.58372C96.2185 4.07791 96.1186 3.57708 95.9246 3.10998C95.7305 2.64287 95.4461 2.21869 95.0877 1.86178C94.7293 1.50487 94.3039 1.22226 93.836 1.03017C93.3681 0.838074 92.8669 0.740279 92.3611 0.742405ZM87.1398 4.4546C88.7134 4.4546 89.5608 5.73773 89.5608 7.31138C89.5608 8.88502 88.7134 10.1681 87.1398 10.1681C85.5661 10.1681 84.7188 8.89309 84.7188 7.31138C84.7188 5.72966 85.5581 4.4546 87.1398 4.4546ZM93.4424 15.1635H80.8291C80.7781 15.1636 80.7277 15.1537 80.6806 15.1343C80.6336 15.1149 80.5908 15.0864 80.5547 15.0505L81.3617 12.8474C81.6135 12.1526 82.0732 11.5522 82.6781 11.1277C83.2831 10.7033 84.004 10.4753 84.743 10.4748H89.5124C90.2525 10.4748 90.9747 10.7025 91.581 11.1269C92.1873 11.5513 92.6484 12.152 92.9018 12.8474L93.7088 15.0505C93.6742 15.0862 93.6328 15.1146 93.5871 15.134C93.5413 15.1534 93.4921 15.1634 93.4424 15.1635Z" fill="#407BFF"/>
<path opacity="0.7" d="M92.3611 0.742405H81.8701C80.8541 0.746673 79.8812 1.15327 79.1643 1.87319C78.4474 2.59312 78.0449 3.56773 78.0449 4.58372V15.0747C78.0449 16.0935 78.4496 17.0705 79.17 17.7909C79.8904 18.5113 80.8674 18.916 81.8862 18.916H92.3772C93.396 18.916 94.373 18.5113 95.0934 17.7909C95.8138 17.0705 96.2185 16.0935 96.2185 15.0747V4.58372C96.2185 4.07791 96.1186 3.57708 95.9246 3.10998C95.7305 2.64287 95.4461 2.21869 95.0877 1.86178C94.7293 1.50487 94.3039 1.22226 93.836 1.03017C93.3681 0.838074 92.8669 0.740279 92.3611 0.742405ZM87.1398 4.4546C88.7134 4.4546 89.5608 5.73773 89.5608 7.31138C89.5608 8.88502 88.7134 10.1681 87.1398 10.1681C85.5661 10.1681 84.7188 8.89309 84.7188 7.31138C84.7188 5.72966 85.5581 4.4546 87.1398 4.4546ZM93.4424 15.1635H80.8291C80.7781 15.1636 80.7277 15.1537 80.6806 15.1343C80.6336 15.1149 80.5908 15.0864 80.5547 15.0505L81.3617 12.8474C81.6135 12.1526 82.0732 11.5522 82.6781 11.1277C83.2831 10.7033 84.004 10.4753 84.743 10.4748H89.5124C90.2525 10.4748 90.9747 10.7025 91.581 11.1269C92.1873 11.5513 92.6484 12.152 92.9018 12.8474L93.7088 15.0505C93.6742 15.0862 93.6328 15.1146 93.5871 15.134C93.5413 15.1534 93.4921 15.1634 93.4424 15.1635Z" fill="white"/>
<path d="M55.1743 43.7393H47.2334C46.5545 43.7382 45.882 43.871 45.2544 44.1301C44.6269 44.3892 44.0566 44.7695 43.5761 45.2492C43.0957 45.7289 42.7145 46.2986 42.4545 46.9257C42.1944 47.5529 42.0605 48.2252 42.0605 48.9041V56.8449C42.0605 58.2169 42.6055 59.5326 43.5756 60.5027C44.5457 61.4728 45.8615 62.0178 47.2334 62.0178H55.1743C55.8532 62.0178 56.5255 61.884 57.1526 61.6239C57.7798 61.3638 58.3495 60.9827 58.8292 60.5022C59.3089 60.0218 59.6891 59.4515 59.9482 58.8239C60.2073 58.1964 60.3401 57.5239 60.3391 56.8449V48.9041C60.3401 48.2255 60.2073 47.5535 59.9481 46.9264C59.6889 46.2993 59.3085 45.7295 58.8287 45.2497C58.3489 44.7699 57.7791 44.3895 57.152 44.1303C56.5249 43.8711 55.8528 43.7382 55.1743 43.7393ZM51.2038 57.2081C51.2038 57.2081 47.9758 53.6654 47.9758 51.8577C47.9758 50.9919 48.3198 50.1617 48.9319 49.5495C49.5441 48.9373 50.3744 48.5934 51.2402 48.5934C52.1059 48.5934 52.9362 48.9373 53.5484 49.5495C54.1605 50.1617 54.5045 50.9919 54.5045 51.8577C54.4641 53.6654 51.2038 57.2081 51.2038 57.2081Z" fill="#FF6C37"/>
<path d="M51.2041 50.3728C50.9082 50.3712 50.6184 50.4576 50.3717 50.621C50.1249 50.7845 49.9323 51.0176 49.8183 51.2907C49.7043 51.5638 49.6741 51.8647 49.7314 52.155C49.7888 52.4454 49.9311 52.7121 50.1404 52.9214C50.3497 53.1307 50.6164 53.273 50.9068 53.3304C51.1971 53.3877 51.498 53.3575 51.7711 53.2435C52.0442 53.1295 52.2773 52.9369 52.4408 52.6901C52.6042 52.4434 52.6906 52.1536 52.689 51.8577C52.689 51.4639 52.5326 51.0862 52.2541 50.8077C51.9756 50.5292 51.5979 50.3728 51.2041 50.3728Z" fill="#FF6C37"/>
<g opacity="0.7">
<path d="M55.1743 43.7393H47.2334C46.5545 43.7382 45.882 43.871 45.2544 44.1301C44.6269 44.3892 44.0566 44.7695 43.5761 45.2492C43.0957 45.7289 42.7145 46.2986 42.4545 46.9257C42.1944 47.5529 42.0605 48.2252 42.0605 48.9041V56.8449C42.0605 58.2169 42.6055 59.5326 43.5756 60.5027C44.5457 61.4728 45.8615 62.0178 47.2334 62.0178H55.1743C55.8532 62.0178 56.5255 61.884 57.1526 61.6239C57.7798 61.3638 58.3495 60.9827 58.8292 60.5022C59.3089 60.0218 59.6891 59.4515 59.9482 58.8239C60.2073 58.1964 60.3401 57.5239 60.3391 56.8449V48.9041C60.3401 48.2255 60.2073 47.5535 59.9481 46.9264C59.6889 46.2993 59.3085 45.7295 58.8287 45.2497C58.3489 44.7699 57.7791 44.3895 57.152 44.1303C56.5249 43.8711 55.8528 43.7382 55.1743 43.7393ZM51.2038 57.2081C51.2038 57.2081 47.9758 53.6654 47.9758 51.8577C47.9758 50.9919 48.3198 50.1617 48.9319 49.5495C49.5441 48.9373 50.3744 48.5934 51.2402 48.5934C52.1059 48.5934 52.9362 48.9373 53.5484 49.5495C54.1605 50.1617 54.5045 50.9919 54.5045 51.8577C54.4641 53.6654 51.2038 57.2081 51.2038 57.2081Z" fill="white"/>
<path d="M51.2041 50.3728C50.9082 50.3712 50.6184 50.4576 50.3717 50.621C50.1249 50.7845 49.9323 51.0175 49.8183 51.2907C49.7043 51.5638 49.6741 51.8646 49.7314 52.155C49.7888 52.4453 49.9311 52.7121 50.1404 52.9214C50.3497 53.1307 50.6164 53.273 50.9068 53.3304C51.1971 53.3877 51.498 53.3575 51.7711 53.2435C52.0442 53.1295 52.2773 52.9369 52.4408 52.6901C52.6042 52.4434 52.6906 52.1536 52.689 51.8577C52.689 51.4638 52.5326 51.0862 52.2541 50.8077C51.9756 50.5292 51.5979 50.3728 51.2041 50.3728Z" fill="white"/>
</g>
<path d="M229.52 21.2321L234.838 17.7943L229.52 14.3484V21.2321Z" fill="#407BFF"/>
<path d="M236.369 8.40891H226.233C225.088 8.40891 223.99 8.86379 223.181 9.67347C222.371 10.4831 221.916 11.5813 221.916 12.7264V22.8623C221.918 24.0067 222.374 25.1036 223.183 25.9128C223.992 26.722 225.089 27.1776 226.233 27.1797H236.369C237.514 27.1797 238.613 26.7248 239.422 25.9151C240.232 25.1055 240.687 24.0073 240.687 22.8623V12.7264C240.688 12.1591 240.577 11.5972 240.36 11.0729C240.144 10.5486 239.826 10.0722 239.425 9.67109C239.023 9.26997 238.547 8.95199 238.023 8.73539C237.499 8.5188 236.937 8.40785 236.369 8.40891ZM231.301 24.5489C229.965 24.5489 228.659 24.1525 227.548 23.41C226.437 22.6674 225.571 21.612 225.06 20.3773C224.549 19.1426 224.416 17.7841 224.677 16.4736C224.938 15.1631 225.583 13.9596 226.528 13.0152C227.474 12.0709 228.678 11.4283 229.989 11.1685C231.299 10.9088 232.658 11.0437 233.892 11.5562C235.126 12.0687 236.18 12.9357 236.922 14.0475C237.663 15.1594 238.058 16.4661 238.056 17.8024C238.055 18.6883 237.879 19.5654 237.539 20.3835C237.199 21.2016 236.701 21.9448 236.074 22.5705C235.447 23.1962 234.703 23.6923 233.884 24.0304C233.065 24.3684 232.187 24.5419 231.301 24.5408V24.5489Z" fill="#407BFF"/>
<g opacity="0.7">
<path d="M229.519 21.2321L234.837 17.7943L229.519 14.3484V21.2321Z" fill="white"/>
<path d="M236.37 8.40891H226.234C225.089 8.40891 223.991 8.86379 223.182 9.67347C222.372 10.4831 221.917 11.5813 221.917 12.7264V22.8623C221.919 24.0067 222.375 25.1036 223.184 25.9128C223.993 26.722 225.09 27.1776 226.234 27.1797H236.37C237.515 27.1797 238.614 26.7248 239.423 25.9151C240.233 25.1055 240.688 24.0073 240.688 22.8623V12.7264C240.689 12.1591 240.578 11.5972 240.361 11.0729C240.145 10.5486 239.827 10.0722 239.426 9.67109C239.024 9.26997 238.548 8.95199 238.024 8.73539C237.5 8.5188 236.938 8.40785 236.37 8.40891ZM231.302 24.5489C229.966 24.5489 228.66 24.1525 227.549 23.41C226.438 22.6674 225.572 21.612 225.061 20.3773C224.55 19.1426 224.417 17.7841 224.678 16.4736C224.939 15.1631 225.584 13.9596 226.529 13.0152C227.474 12.0709 228.679 11.4283 229.99 11.1685C231.3 10.9088 232.659 11.0437 233.893 11.5562C235.127 12.0687 236.181 12.9357 236.923 14.0475C237.664 15.1594 238.059 16.4661 238.057 17.8024C238.056 18.6883 237.88 19.5654 237.54 20.3835C237.2 21.2016 236.702 21.9448 236.075 22.5705C235.448 23.1962 234.704 23.6923 233.885 24.0304C233.066 24.3684 232.188 24.5419 231.302 24.5408V24.5489Z" fill="white"/>
</g>
<path d="M246.32 47.2821C246.32 47.0722 246.32 46.8624 246.32 46.6607L247.539 45.9828C247.45 45.4058 247.298 44.8402 247.087 44.2962H245.699C245.522 43.9173 245.312 43.5554 245.069 43.2148L245.788 42.0285C245.42 41.5731 245.006 41.1567 244.553 40.7857L243.358 41.504C243.019 41.2661 242.66 41.0582 242.285 40.8826V39.4865C241.739 39.2802 241.174 39.1288 240.599 39.0345L239.921 40.2531C239.719 40.2531 239.509 40.2531 239.299 40.2531C239.089 40.2531 238.888 40.2531 238.678 40.2531L238 39.0345C237.425 39.1308 236.86 39.2822 236.313 39.4865V40.8826C235.937 41.0564 235.578 41.2644 235.24 41.504L234.046 40.7857C233.588 41.1544 233.172 41.571 232.803 42.0285L233.521 43.2148C233.284 43.5574 233.077 43.9191 232.9 44.2962H231.512C231.301 44.8412 231.147 45.4063 231.052 45.9828L232.27 46.6607C232.27 46.8624 232.27 47.0722 232.27 47.2821C232.27 47.4919 232.27 47.7017 232.27 47.9035L231.052 48.5813C231.146 49.158 231.3 49.7233 231.512 50.268H232.9C233.077 50.645 233.284 51.0067 233.521 51.3493L232.803 52.5437C233.174 52.9967 233.59 53.4104 234.046 53.7784L235.24 53.0602C235.576 53.3027 235.936 53.5109 236.313 53.6816V55.0777C236.859 55.2857 237.424 55.4371 238 55.5296L238.678 54.311C238.888 54.311 239.089 54.311 239.299 54.311C239.509 54.311 239.719 54.311 239.921 54.311L240.599 55.5296C241.175 55.4392 241.741 55.2877 242.285 55.0777V53.6816C242.662 53.5091 243.021 53.301 243.358 53.0602L244.553 53.7784C245.004 53.4082 245.417 52.9946 245.788 52.5437L245.069 51.3493C245.312 51.0088 245.522 50.6468 245.699 50.268H247.087C247.299 49.7243 247.451 49.1586 247.539 48.5813L246.32 47.9035C246.304 47.6775 246.32 47.4919 246.32 47.2821ZM239.283 52.0595C238.338 52.0595 237.415 51.7793 236.629 51.2544C235.843 50.7294 235.231 49.9833 234.869 49.1103C234.508 48.2374 234.413 47.2768 234.597 46.35C234.782 45.4233 235.237 44.5721 235.905 43.9039C236.573 43.2358 237.424 42.7808 238.351 42.5964C239.278 42.4121 240.238 42.5067 241.111 42.8683C241.984 43.2299 242.73 43.8422 243.255 44.6279C243.78 45.4135 244.061 46.3372 244.061 47.2821C244.061 48.5491 243.557 49.7643 242.661 50.6602C241.765 51.5562 240.55 52.0595 239.283 52.0595Z" fill="#FF6C37"/>
<path opacity="0.7" d="M246.32 47.2821C246.32 47.0722 246.32 46.8624 246.32 46.6607L247.539 45.9828C247.45 45.4058 247.298 44.8402 247.087 44.2962H245.699C245.522 43.9173 245.312 43.5554 245.069 43.2148L245.788 42.0285C245.42 41.5731 245.006 41.1567 244.553 40.7857L243.358 41.504C243.019 41.2661 242.66 41.0582 242.285 40.8826V39.4865C241.739 39.2802 241.174 39.1288 240.599 39.0345L239.921 40.2531C239.719 40.2531 239.509 40.2531 239.299 40.2531C239.089 40.2531 238.888 40.2531 238.678 40.2531L238 39.0345C237.425 39.1308 236.86 39.2822 236.313 39.4865V40.8826C235.937 41.0564 235.578 41.2644 235.24 41.504L234.046 40.7857C233.588 41.1544 233.172 41.571 232.803 42.0285L233.521 43.2148C233.284 43.5574 233.077 43.9191 232.9 44.2962H231.512C231.301 44.8412 231.147 45.4063 231.052 45.9828L232.27 46.6607C232.27 46.8624 232.27 47.0722 232.27 47.2821C232.27 47.4919 232.27 47.7017 232.27 47.9035L231.052 48.5813C231.146 49.158 231.3 49.7233 231.512 50.268H232.9C233.077 50.645 233.284 51.0067 233.521 51.3493L232.803 52.5437C233.174 52.9967 233.59 53.4104 234.046 53.7784L235.24 53.0602C235.576 53.3027 235.936 53.5109 236.313 53.6816V55.0777C236.859 55.2857 237.424 55.4371 238 55.5296L238.678 54.311C238.888 54.311 239.089 54.311 239.299 54.311C239.509 54.311 239.719 54.311 239.921 54.311L240.599 55.5296C241.175 55.4392 241.741 55.2877 242.285 55.0777V53.6816C242.662 53.5091 243.021 53.301 243.358 53.0602L244.553 53.7784C245.004 53.4082 245.417 52.9946 245.788 52.5437L245.069 51.3493C245.312 51.0088 245.522 50.6468 245.699 50.268H247.087C247.299 49.7243 247.451 49.1586 247.539 48.5813L246.32 47.9035C246.304 47.6775 246.32 47.4919 246.32 47.2821ZM239.283 52.0595C238.338 52.0595 237.415 51.7793 236.629 51.2544C235.843 50.7294 235.231 49.9833 234.869 49.1103C234.508 48.2374 234.413 47.2768 234.597 46.35C234.782 45.4233 235.237 44.5721 235.905 43.9039C236.573 43.2358 237.424 42.7808 238.351 42.5964C239.278 42.4121 240.238 42.5067 241.111 42.8683C241.984 43.2299 242.73 43.8422 243.255 44.6279C243.78 45.4135 244.061 46.3372 244.061 47.2821C244.061 48.5491 243.557 49.7643 242.661 50.6602C241.765 51.5562 240.55 52.0595 239.283 52.0595Z" fill="white"/>
<path d="M227.928 71.2742C227.928 70.9594 227.928 70.6528 227.888 70.3461L229.712 69.3373C229.574 68.4714 229.347 67.6222 229.034 66.8034L226.952 66.8437C226.689 66.2787 226.375 65.7385 226.016 65.2297L227.089 63.4463C226.539 62.7674 225.92 62.148 225.241 61.5982L223.457 62.6635C222.946 62.3091 222.407 61.9987 221.843 61.7354V59.6534C221.028 59.3389 220.181 59.1117 219.317 58.9755L218.309 60.7993C218.002 60.7993 217.695 60.7993 217.381 60.7993C217.066 60.7993 216.759 60.7993 216.453 60.7993L215.468 58.9755C214.605 59.1137 213.758 59.3409 212.942 59.6534V61.7354C212.379 61.9983 211.839 62.3088 211.328 62.6635L209.585 61.5982C208.904 62.1479 208.282 62.7672 207.729 63.4463L208.802 65.2297C208.445 65.7387 208.134 66.2789 207.874 66.8437L205.792 66.8034C205.475 67.621 205.248 68.4706 205.114 69.3373L206.938 70.3461C206.874 70.9631 206.874 71.5852 206.938 72.2022L205.114 73.219C205.249 74.0829 205.476 74.9298 205.792 75.7449L207.874 75.7046C208.133 76.2703 208.443 76.8107 208.802 77.3186L207.729 79.102C208.282 79.7811 208.904 80.4004 209.585 80.9501L211.368 79.8848C211.877 80.2425 212.417 80.5531 212.982 80.8129V82.8949C213.798 83.2111 214.644 83.4384 215.508 83.5728L216.525 81.749C217.142 81.8136 217.764 81.8136 218.381 81.749L219.39 83.5728C220.254 83.4404 221.101 83.2131 221.916 82.8949V80.8129C222.481 80.5527 223.021 80.2421 223.53 79.8848L225.313 80.9501C225.992 80.4003 226.612 79.7809 227.161 79.102L226.088 77.3186C226.45 76.8109 226.763 76.2705 227.024 75.7046L229.106 75.7449C229.419 74.9286 229.646 74.0821 229.784 73.219L227.96 72.2022C227.912 71.8875 227.928 71.5889 227.928 71.2742ZM217.437 75.4221C216.617 75.4221 215.815 75.1788 215.133 74.7231C214.451 74.2673 213.919 73.6194 213.605 72.8615C213.291 72.1036 213.209 71.2695 213.369 70.4649C213.529 69.6603 213.924 68.9212 214.504 68.3411C215.084 67.761 215.823 67.3659 216.628 67.2059C217.433 67.0458 218.267 67.128 219.024 67.4419C219.782 67.7559 220.43 68.2875 220.886 68.9697C221.342 69.6518 221.585 70.4538 221.585 71.2742C221.585 71.8209 221.477 72.3623 221.267 72.8671C221.057 73.372 220.749 73.8303 220.362 74.2158C219.974 74.6013 219.514 74.9063 219.008 75.1134C218.502 75.3204 217.96 75.4253 217.413 75.4221H217.437Z" fill="#407BFF"/>
<path opacity="0.7" d="M227.928 71.2742C227.928 70.9594 227.928 70.6528 227.888 70.3461L229.712 69.3373C229.574 68.4714 229.347 67.6222 229.034 66.8034L226.952 66.8437C226.689 66.2787 226.375 65.7385 226.016 65.2297L227.089 63.4463C226.539 62.7674 225.92 62.148 225.241 61.5982L223.457 62.6635C222.946 62.3091 222.407 61.9987 221.843 61.7354V59.6534C221.028 59.3389 220.181 59.1117 219.317 58.9755L218.309 60.7993C218.002 60.7993 217.695 60.7993 217.381 60.7993C217.066 60.7993 216.759 60.7993 216.453 60.7993L215.468 58.9755C214.605 59.1137 213.758 59.3409 212.942 59.6534V61.7354C212.379 61.9983 211.839 62.3088 211.328 62.6635L209.585 61.5982C208.904 62.1479 208.282 62.7672 207.729 63.4463L208.802 65.2297C208.445 65.7387 208.134 66.2789 207.874 66.8437L205.792 66.8034C205.475 67.621 205.248 68.4706 205.114 69.3373L206.938 70.3461C206.874 70.9631 206.874 71.5852 206.938 72.2022L205.114 73.219C205.249 74.0829 205.476 74.9298 205.792 75.7449L207.874 75.7046C208.133 76.2703 208.443 76.8107 208.802 77.3186L207.729 79.102C208.282 79.7811 208.904 80.4004 209.585 80.9501L211.368 79.8848C211.877 80.2425 212.417 80.5531 212.982 80.8129V82.8949C213.798 83.2111 214.644 83.4384 215.508 83.5728L216.525 81.749C217.142 81.8136 217.764 81.8136 218.381 81.749L219.39 83.5728C220.254 83.4404 221.101 83.2131 221.916 82.8949V80.8129C222.481 80.5527 223.021 80.2421 223.53 79.8848L225.313 80.9501C225.992 80.4003 226.612 79.7809 227.161 79.102L226.088 77.3186C226.45 76.8109 226.763 76.2705 227.024 75.7046L229.106 75.7449C229.419 74.9286 229.646 74.0821 229.784 73.219L227.96 72.2022C227.912 71.8875 227.928 71.5889 227.928 71.2742ZM217.437 75.4221C216.617 75.4221 215.815 75.1788 215.133 74.7231C214.451 74.2673 213.919 73.6194 213.605 72.8615C213.291 72.1036 213.209 71.2695 213.369 70.4649C213.529 69.6603 213.924 68.9212 214.504 68.3411C215.084 67.761 215.823 67.3659 216.628 67.2059C217.433 67.0458 218.267 67.128 219.024 67.4419C219.782 67.7559 220.43 68.2875 220.886 68.9697C221.342 69.6518 221.585 70.4538 221.585 71.2742C221.585 71.8209 221.477 72.3623 221.267 72.8671C221.057 73.372 220.749 73.8303 220.362 74.2158C219.974 74.6013 219.514 74.9063 219.008 75.1134C218.502 75.3204 217.96 75.4253 217.413 75.4221H217.437Z" fill="white"/>
<path d="M198.288 24.4843V28.713L194.253 30.8354C194.097 30.9196 193.965 31.0447 193.874 31.1975C193.783 31.3503 193.734 31.5249 193.734 31.703C193.734 31.881 193.783 32.0556 193.874 32.2084C193.965 32.3612 194.097 32.4863 194.253 32.5705L198.288 34.6929V38.9215C198.288 39.3731 198.468 39.8063 198.787 40.1256C199.106 40.4449 199.54 40.6243 199.991 40.6243H214.428C214.881 40.6243 215.315 40.4452 215.635 40.1261C215.956 39.807 216.137 39.3739 216.139 38.9215V24.4843C216.139 24.0306 215.959 23.5955 215.638 23.2746C215.317 22.9538 214.882 22.7735 214.428 22.7735H199.967C199.518 22.7799 199.09 22.9632 198.776 23.2836C198.461 23.604 198.286 24.0355 198.288 24.4843Z" fill="#FF6C37"/>
<g opacity="0.9">
<path d="M203.227 28.8906H211.434C211.701 28.8906 211.958 28.7843 212.147 28.5951C212.336 28.4059 212.442 28.1493 212.442 27.8818C212.442 27.6143 212.336 27.3577 212.147 27.1685C211.958 26.9793 211.701 26.8731 211.434 26.8731H203.227C202.959 26.8731 202.702 26.9793 202.513 27.1685C202.324 27.3577 202.218 27.6143 202.218 27.8818C202.218 28.1493 202.324 28.4059 202.513 28.5951C202.702 28.7843 202.959 28.8906 203.227 28.8906Z" fill="white"/>
<path d="M211.434 30.7305H203.227C202.959 30.7305 202.702 30.8368 202.513 31.026C202.324 31.2151 202.218 31.4717 202.218 31.7392C202.218 32.0068 202.324 32.2634 202.513 32.4525C202.702 32.6417 202.959 32.748 203.227 32.748H211.434C211.701 32.748 211.958 32.6417 212.147 32.4525C212.336 32.2634 212.442 32.0068 212.442 31.7392C212.442 31.4717 212.336 31.2151 212.147 31.026C211.958 30.8368 211.701 30.7305 211.434 30.7305Z" fill="white"/>
<path d="M211.434 34.5153H203.227C202.959 34.5153 202.702 34.6216 202.513 34.8108C202.324 35 202.218 35.2565 202.218 35.5241C202.218 35.7916 202.324 36.0482 202.513 36.2374C202.702 36.4265 202.959 36.5328 203.227 36.5328H211.434C211.701 36.5328 211.958 36.4265 212.147 36.2374C212.336 36.0482 212.442 35.7916 212.442 35.5241C212.442 35.2565 212.336 35 212.147 34.8108C211.958 34.6216 211.701 34.5153 211.434 34.5153Z" fill="white"/>
</g>
<path d="M116.7 17.8185H120.146L121.922 21.1837C122.039 21.4031 122.213 21.5866 122.426 21.7145C122.64 21.8424 122.884 21.91 123.132 21.91C123.381 21.91 123.625 21.8424 123.838 21.7145C124.051 21.5866 124.226 21.4031 124.343 21.1837L126.118 17.8185H129.564C129.891 17.8185 130.215 17.754 130.517 17.6286C130.819 17.5032 131.093 17.3193 131.324 17.0877C131.555 16.856 131.738 16.5811 131.863 16.2786C131.987 15.9761 132.051 15.652 132.05 15.3249V2.48557C132.05 1.82636 131.788 1.19415 131.322 0.728018C130.855 0.261886 130.223 1.31867e-05 129.564 1.31867e-05H116.7C116.374 -0.00105275 116.05 0.0625145 115.748 0.187048C115.446 0.311581 115.171 0.494624 114.94 0.725642C114.709 0.956659 114.526 1.23108 114.402 1.53313C114.277 1.83517 114.214 2.15886 114.215 2.48557V15.3975C114.232 16.0455 114.501 16.6612 114.965 17.1135C115.43 17.5658 116.052 17.8188 116.7 17.8185Z" fill="#407BFF"/>
<path opacity="0.9" d="M123.14 3.84941L119.17 6.17356V12.9685H122.124V8.40895H124.165V12.9685H127.119V6.17356L123.14 3.84941Z" fill="white"/>
<path d="M155.355 202.452H152.289L150.311 198.691C150.213 198.509 150.068 198.357 149.89 198.251C149.712 198.145 149.51 198.089 149.303 198.089C149.096 198.089 148.893 198.145 148.715 198.251C148.538 198.357 148.392 198.509 148.294 198.691L146.317 202.452H143.169C142.418 202.452 141.698 202.75 141.167 203.281C140.635 203.813 140.337 204.533 140.337 205.284V217.47C140.337 218.221 140.635 218.942 141.167 219.473C141.698 220.004 142.418 220.302 143.169 220.302H155.355C156.106 220.302 156.827 220.004 157.358 219.473C157.889 218.942 158.188 218.221 158.188 217.47V205.284C158.188 204.533 157.889 203.813 157.358 203.281C156.827 202.75 156.106 202.452 155.355 202.452Z" fill="#FF6C37"/>
<path opacity="0.9" d="M150.99 207.108C150.399 206.516 149.651 206.105 148.833 205.922C148.016 205.74 147.164 205.794 146.377 206.079C145.59 206.363 144.9 206.866 144.388 207.528C143.876 208.191 143.563 208.985 143.486 209.819C143.41 210.652 143.572 211.491 143.954 212.235C144.337 212.98 144.923 213.6 145.645 214.024C146.367 214.447 147.195 214.656 148.032 214.626C148.868 214.596 149.679 214.329 150.369 213.855C150.403 214.055 150.495 214.24 150.635 214.387L153.379 217.123C153.564 217.308 153.815 217.412 154.077 217.412C154.339 217.412 154.59 217.308 154.775 217.123C154.96 216.938 155.064 216.687 155.064 216.425C155.064 216.163 154.96 215.912 154.775 215.727L152.04 212.991C151.892 212.845 151.703 212.75 151.499 212.717C152.079 211.868 152.346 210.844 152.253 209.821C152.16 208.797 151.714 207.838 150.99 207.108ZM150.054 212.41C149.622 212.842 149.071 213.136 148.472 213.255C147.872 213.374 147.251 213.312 146.687 213.078C146.122 212.844 145.64 212.448 145.3 211.94C144.961 211.432 144.779 210.834 144.779 210.223C144.779 209.612 144.961 209.015 145.3 208.506C145.64 207.998 146.122 207.602 146.687 207.368C147.251 207.134 147.872 207.072 148.472 207.191C149.071 207.31 149.622 207.604 150.054 208.036C150.342 208.323 150.57 208.664 150.725 209.039C150.881 209.415 150.961 209.817 150.961 210.223C150.961 210.629 150.881 211.032 150.725 211.407C150.57 211.782 150.342 212.123 150.054 212.41Z" fill="white"/>
<path d="M285.677 121.3C285.677 121.3 279.1 137.601 272.66 139.361C266.22 141.12 256.52 139.691 256.52 139.691L253.518 140.498L250.572 140.063H250.467L247.15 139.982C247.031 139.992 246.911 139.967 246.805 139.912C246.698 139.856 246.611 139.77 246.551 139.666C246.492 139.562 246.463 139.443 246.47 139.323C246.476 139.203 246.516 139.087 246.586 138.989L247.772 137.375C247.872 137.243 248.01 137.144 248.167 137.093L251.331 136.076C251.456 136.048 251.585 136.048 251.71 136.076L256.552 136.843C256.552 136.843 269.989 134.64 271.36 133.397C272.732 132.154 276.775 119.121 276.775 119.121L285.677 121.3Z" fill="#EEC1BB"/>
<path opacity="0.1" d="M256.851 136.738L256.536 136.786L251.694 136.02C251.57 135.992 251.44 135.992 251.315 136.02L248.152 137.036C247.994 137.088 247.856 137.186 247.756 137.319L246.57 138.933C246.5 139.031 246.46 139.146 246.454 139.266C246.448 139.386 246.476 139.505 246.536 139.609C246.595 139.714 246.683 139.799 246.789 139.855C246.895 139.911 247.015 139.935 247.135 139.925L250.452 140.006H250.557L252.534 140.297C254.22 139.447 255.695 138.231 256.851 136.738Z" fill="black"/>
<path d="M289.646 105.152C284.869 103.586 278.147 107.177 275.572 122.22L285.49 125.149C285.49 125.149 296.474 107.395 289.646 105.152Z" fill="#407BFF"/>
<path d="M261.854 85.4934C261.854 85.9938 262.121 86.3892 262.444 86.3892C262.766 86.3892 263.049 85.9615 263.025 85.4773C263 84.9931 262.758 84.5896 262.436 84.5977C262.113 84.6057 261.854 85.0012 261.854 85.4934Z" fill="#263238"/>
<path d="M263.807 85.9857L261.459 89.8673C261.459 89.8673 262.266 90.7873 264.033 90.1094L263.807 85.9857Z" fill="#D4827D"/>
<path d="M264.251 82.3784C264.223 82.411 264.186 82.4356 264.145 82.4497C264.104 82.4639 264.06 82.4671 264.017 82.4591C263.7 82.4046 263.374 82.4267 263.066 82.5236C262.759 82.6204 262.479 82.7892 262.25 83.0159C262.201 83.0619 262.136 83.0874 262.068 83.0874C262.001 83.0874 261.936 83.0619 261.887 83.0159C261.84 82.9653 261.814 82.8991 261.814 82.8303C261.814 82.7616 261.84 82.6953 261.887 82.6447C262.172 82.3531 262.524 82.1352 262.912 82.0101C263.3 81.8849 263.712 81.8563 264.114 81.9265C264.148 81.9305 264.181 81.9412 264.211 81.958C264.241 81.9748 264.267 81.9974 264.288 82.0244C264.309 82.0515 264.324 82.0824 264.333 82.1155C264.342 82.1485 264.345 82.183 264.34 82.217C264.328 82.2786 264.297 82.335 264.251 82.3784Z" fill="#263238"/>
<path d="M280.843 81.9749C281.206 88.5358 281.505 91.3119 278.608 95.0402C273.983 99.0348 266.107 99.6724 263.783 93.3536C261.693 87.7046 261.451 77.9157 267.519 74.5344C268.549 73.9608 269.681 73.5957 270.852 73.4601C272.022 73.3245 273.208 73.421 274.341 73.744C275.475 74.0671 276.533 74.6103 277.456 75.3428C278.379 76.0752 279.149 76.9824 279.721 78.0125C280.393 79.2304 280.776 80.5858 280.843 81.9749Z" fill="#EEC1BB"/>
<path d="M271.699 96.3314L273.362 106.056L281.464 104.183L278.631 94.2574L271.699 96.3314Z" fill="#EEC1BB"/>
<path d="M265.865 82.4591C266.277 78.1982 264.808 83.1209 262.839 77.4961C260.87 71.8713 270.174 67.3037 271.659 68.3528C273.144 69.4019 272.297 71.0078 277.219 71.9197C278.562 72.133 279.782 72.8282 280.649 73.8754C281.516 74.9226 281.973 76.2499 281.932 77.6091C281.932 77.6091 284.765 78.9164 283.756 85.0012C283.016 88.8999 281.356 92.5657 278.914 95.6939C278.914 95.6939 277.05 93.7732 274.072 95.5406C272.91 94.782 271.927 93.7797 271.191 92.6031C269.868 90.6179 269.456 88.7295 267.64 88.5681C263.847 88.2211 265.728 83.8633 265.865 82.4591Z" fill="#263238"/>
<path d="M281.407 78.3434C281.407 78.3434 285.442 75.874 283.651 73.2835C281.859 70.6931 282.723 76.1403 281.407 78.3434Z" fill="#263238"/>
<path d="M267.018 84.9366C266.123 85.9371 265.662 87.2519 265.735 88.5923C265.848 90.3677 267.591 90.6824 268.963 89.714C270.335 88.7456 271.634 86.8572 270.843 85.2997C270.668 84.9599 270.41 84.6696 270.093 84.4554C269.776 84.2412 269.411 84.11 269.03 84.0739C268.649 84.0377 268.266 84.0978 267.914 84.2485C267.563 84.3992 267.255 84.6358 267.018 84.9366Z" fill="#FFC3BD"/>
<path opacity="0.1" d="M271.852 97.2514L272.513 101.109C272.455 100.154 272.586 99.1963 272.899 98.292C273.212 97.3876 273.701 96.554 274.337 95.8391C273.843 95.8708 273.362 96.0144 272.932 96.2591C272.501 96.5037 272.132 96.843 271.852 97.2514Z" fill="black"/>
<path d="M214.886 122.333H212.57V135.995H214.886V122.333Z" fill="#407BFF"/>
<path opacity="0.7" d="M214.886 122.333H212.57V135.995H214.886V122.333Z" fill="white"/>
<path d="M198.972 95.2016H193.202C192.164 95.2016 191.168 95.614 190.434 96.348C189.7 97.082 189.288 98.0775 189.288 99.1155V125.851C189.288 126.365 189.389 126.874 189.586 127.349C189.783 127.824 190.071 128.256 190.434 128.619C190.798 128.982 191.229 129.271 191.704 129.467C192.179 129.664 192.688 129.765 193.202 129.765H198.972V95.2016Z" fill="#FF6C37"/>
<path d="M234.263 95.2016H195.221C193.059 95.2016 191.307 96.9539 191.307 99.1155V125.843C191.307 128.005 193.059 129.757 195.221 129.757H234.263C236.425 129.757 238.177 128.005 238.177 125.843V99.1155C238.177 96.9539 236.425 95.2016 234.263 95.2016Z" fill="#FF6C37"/>
<path opacity="0.5" d="M234.263 95.2016H195.221C193.059 95.2016 191.307 96.9539 191.307 99.1155V125.843C191.307 128.005 193.059 129.757 195.221 129.757H234.263C236.425 129.757 238.177 128.005 238.177 125.843V99.1155C238.177 96.9539 236.425 95.2016 234.263 95.2016Z" fill="white"/>
<path d="M234.262 96.8156H195.22C193.95 96.8156 192.92 97.8453 192.92 99.1156V125.843C192.92 127.114 193.95 128.143 195.22 128.143H234.262C235.533 128.143 236.562 127.114 236.562 125.843V99.1156C236.562 97.8453 235.533 96.8156 234.262 96.8156Z" fill="#263238"/>
<path d="M205.299 141.725C205.367 139.535 206.284 137.457 207.858 135.931C209.431 134.406 211.536 133.553 213.728 133.553C215.919 133.553 218.025 134.406 219.598 135.931C221.171 137.457 222.089 139.535 222.157 141.725H205.299Z" fill="#FF6C37"/>
<path d="M225.192 138.852H208.334V141.588H242.05V140.466L225.192 138.852Z" fill="#FF6C37"/>
<path opacity="0.8" d="M225.192 138.852H208.334V141.588H242.05V140.466L225.192 138.852Z" fill="white"/>
<path d="M225.192 141.588H208.334V138.852L225.192 140.466V141.588Z" fill="#FF6C37"/>
<path opacity="0.6" d="M225.192 141.588H208.334V138.852L225.192 140.466V141.588Z" fill="white"/>
<path d="M262.363 235.773H227.59C226.896 235.774 226.209 235.638 225.567 235.373C224.926 235.108 224.343 234.72 223.852 234.23C223.361 233.739 222.972 233.157 222.706 232.516C222.44 231.876 222.304 231.189 222.304 230.495V150.537C222.304 149.844 222.44 149.157 222.706 148.516C222.972 147.875 223.361 147.293 223.852 146.803C224.343 146.312 224.926 145.924 225.567 145.659C226.209 145.394 226.896 145.259 227.59 145.26H262.363C262.738 145.26 263.097 145.408 263.362 145.673C263.627 145.938 263.775 146.297 263.775 146.672C263.775 147.047 263.627 147.406 263.362 147.671C263.097 147.935 262.738 148.084 262.363 148.084H227.59C227.268 148.079 226.949 148.138 226.651 148.257C226.352 148.376 226.081 148.554 225.851 148.779C225.622 149.004 225.44 149.273 225.316 149.569C225.192 149.866 225.128 150.184 225.128 150.505V230.463C225.128 230.784 225.192 231.102 225.316 231.398C225.44 231.695 225.622 231.964 225.851 232.189C226.081 232.414 226.352 232.592 226.651 232.711C226.949 232.83 227.268 232.889 227.59 232.884H262.363C262.738 232.884 263.097 233.032 263.362 233.297C263.627 233.562 263.775 233.921 263.775 234.296C263.784 234.487 263.754 234.677 263.687 234.856C263.62 235.035 263.517 235.198 263.385 235.336C263.253 235.474 263.095 235.584 262.919 235.659C262.743 235.734 262.554 235.773 262.363 235.773Z" fill="#263238"/>
<g opacity="0.5">
<path d="M262.362 235.773H227.589C226.895 235.774 226.208 235.638 225.566 235.373C224.925 235.108 224.342 234.72 223.851 234.23C223.36 233.739 222.971 233.157 222.705 232.516C222.44 231.876 222.303 231.189 222.303 230.495V150.537C222.303 149.844 222.44 149.157 222.705 148.516C222.971 147.875 223.36 147.293 223.851 146.803C224.342 146.312 224.925 145.924 225.566 145.659C226.208 145.394 226.895 145.259 227.589 145.26H262.362C262.737 145.26 263.096 145.408 263.361 145.673C263.626 145.938 263.774 146.297 263.774 146.672C263.774 147.047 263.626 147.406 263.361 147.671C263.096 147.935 262.737 148.084 262.362 148.084H227.589C227.267 148.079 226.948 148.138 226.65 148.257C226.351 148.376 226.08 148.554 225.851 148.779C225.621 149.004 225.439 149.273 225.315 149.569C225.191 149.866 225.127 150.184 225.127 150.505V230.463C225.127 230.784 225.191 231.102 225.315 231.398C225.439 231.695 225.621 231.964 225.851 232.189C226.08 232.414 226.351 232.592 226.65 232.711C226.948 232.83 227.267 232.889 227.589 232.884H262.362C262.737 232.884 263.096 233.032 263.361 233.297C263.626 233.562 263.774 233.921 263.774 234.296C263.783 234.487 263.753 234.677 263.686 234.856C263.619 235.035 263.516 235.198 263.384 235.336C263.252 235.474 263.094 235.584 262.918 235.659C262.742 235.734 262.553 235.773 262.362 235.773Z" fill="white"/>
</g>
<path d="M227.452 141.588H178.071V145.728H227.452V141.588Z" fill="#407BFF"/>
<path opacity="0.2" d="M227.452 141.588H178.071V145.728H227.452V141.588Z" fill="white"/>
<path d="M267.309 141.588H225.191V145.728H267.309V141.588Z" fill="#407BFF"/>
<path opacity="0.5" d="M267.309 141.588H225.191V145.728H267.309V141.588Z" fill="white"/>
<path d="M252.541 206.438L254.873 230.019H249.289L243.696 207.052L252.541 206.438Z" fill="#EEC1BB"/>
<path d="M248.764 228.445L255.89 228.566C256.02 228.569 256.145 228.616 256.245 228.7C256.345 228.783 256.413 228.899 256.439 229.026L257.633 234.845C257.684 235.092 257.635 235.349 257.497 235.56C257.36 235.771 257.145 235.92 256.899 235.974H256.697C254.123 235.886 251.855 235.708 248.627 235.652C244.858 235.587 245.803 236.055 241.364 236.047C238.693 236.047 238.257 232.988 239.387 232.859C244.592 232.294 245.157 230.737 247.191 228.913C247.64 228.57 248.2 228.403 248.764 228.445Z" fill="#263238"/>
<path opacity="0.1" d="M254.268 223.861L252.541 206.438L243.696 207.052L247.788 223.861H254.268Z" fill="black"/>
<path d="M290.777 152.071L267.875 152.878C267.875 152.878 237.023 163.667 236.216 171.955C235.328 180.493 245.69 219.721 245.69 219.721H254.898C254.898 219.721 252.356 190.936 251.388 182.123C250.419 173.311 283.498 176.224 289.244 168.711C294.497 161.819 290.777 152.071 290.777 152.071Z" fill="#263238"/>
<path opacity="0.2" d="M290.777 152.071L267.875 152.878C267.875 152.878 237.023 163.667 236.216 171.955C235.328 180.493 245.69 219.721 245.69 219.721H254.898C254.898 219.721 252.356 190.936 251.388 182.123C250.419 173.311 283.498 176.224 289.244 168.711C294.497 161.819 290.777 152.071 290.777 152.071Z" fill="black"/>
<path d="M256.431 218.43L256.633 221.682H245.254L244.141 218.43H256.431Z" fill="#407BFF"/>
<path d="M231.228 207.56L231.841 230.019H226.354L223.102 207.56H231.228Z" fill="#EEC1BB"/>
<path d="M225.595 228.445L232.721 228.566C232.851 228.569 232.976 228.616 233.076 228.7C233.176 228.783 233.244 228.899 233.27 229.026L234.464 234.845C234.515 235.092 234.466 235.349 234.328 235.56C234.191 235.771 233.976 235.92 233.73 235.974H233.528C230.954 235.886 228.686 235.708 225.458 235.652C221.681 235.587 222.634 236.055 218.195 236.047C215.524 236.047 215.088 232.989 216.218 232.859C221.423 232.294 221.988 230.737 224.022 228.913C224.47 228.568 225.031 228.401 225.595 228.445Z" fill="#263238"/>
<path opacity="0.1" d="M231.672 223.845L231.228 207.56H223.102L225.466 223.861C227.233 223.869 229.662 223.853 231.672 223.845Z" fill="black"/>
<path d="M280.819 153.967C280.819 153.967 282.724 171.382 265.01 172.197C247.297 173.012 233.465 175.038 233.061 181.341C232.658 187.643 233.061 219.754 233.061 219.754H223.434C223.434 219.754 219.689 199.45 218.229 186.86C216.808 174.634 214.194 165.766 226.758 161.626C240.098 157.219 263.808 153.152 263.808 153.152L280.884 152.071L280.819 153.967Z" fill="#263238"/>
<path d="M234.48 218.43L233.875 221.682H223.303L222.189 218.43H234.48Z" fill="#407BFF"/>
<path d="M284.635 104.006C284.635 104.006 284.635 100.084 276.703 100.536C268.278 101.02 269.867 104.781 269.867 104.781L284.635 104.006Z" fill="#FF6C37"/>
<path opacity="0.3" d="M284.635 104.006C284.635 104.006 284.635 100.084 276.703 100.536C268.278 101.02 269.867 104.781 269.867 104.781L284.635 104.006Z" fill="black"/>
<path d="M292.027 121.599C291.495 129.354 291.68 152.684 291.68 152.684C291.68 152.684 274.733 153.798 261.434 153.362L259.893 108.485C259.898 107.691 260.143 106.918 260.595 106.266C261.047 105.614 261.686 105.113 262.427 104.829C266.187 103.368 275.016 101.714 288.823 103.53C293.585 104.167 292.657 112.431 292.027 121.599Z" fill="#FF6C37"/>
<path d="M262.612 121.3C262.612 121.3 256.027 137.601 249.595 139.361C243.163 141.12 233.455 139.691 233.455 139.691L230.453 140.498L227.516 140.063H227.411L224.086 139.982C223.966 139.992 223.846 139.967 223.74 139.912C223.634 139.856 223.546 139.77 223.487 139.666C223.427 139.562 223.399 139.443 223.405 139.323C223.411 139.203 223.451 139.087 223.521 138.989L224.716 137.375C224.815 137.243 224.953 137.144 225.111 137.093L228.266 136.076C228.394 136.048 228.526 136.048 228.654 136.076L233.496 136.843C233.496 136.843 246.932 134.64 248.296 133.397C249.66 132.154 253.719 119.121 253.719 119.121L262.612 121.3Z" fill="#EEC1BB"/>
<path opacity="0.1" d="M262.443 113.714C262.443 113.714 261.419 114.933 260.176 116.692L260.62 129.685C265.567 127.498 267.528 114.763 267.528 114.763L264.3 112.488L262.443 113.714Z" fill="black"/>
<path d="M266.583 105.152C261.806 103.586 255.075 107.177 252.501 122.22L262.427 125.117C262.427 125.117 273.41 107.395 266.583 105.152Z" fill="#FF6C37"/>
<path d="M272.902 180.647H265.438V202.524H272.902V180.647Z" fill="#263238"/>
<path opacity="0.6" d="M272.902 180.647H265.438V202.524H272.902V180.647Z" fill="white"/>
<path d="M274.056 222.344V194.551H264.275V222.344L242.01 225.435V228.526L269.165 226.21L296.321 228.526V225.435L274.056 222.344Z" fill="#263238"/>
<path d="M241.687 236.103C243.314 236.103 244.632 234.785 244.632 233.158C244.632 231.531 243.314 230.212 241.687 230.212C240.06 230.212 238.741 231.531 238.741 233.158C238.741 234.785 240.06 236.103 241.687 236.103Z" fill="#407BFF"/>
<path d="M296.321 236.103C297.947 236.103 299.266 234.785 299.266 233.158C299.266 231.531 297.947 230.212 296.321 230.212C294.694 230.212 293.375 231.531 293.375 233.158C293.375 234.785 294.694 236.103 296.321 236.103Z" fill="#407BFF"/>
<path d="M269.165 236.103C270.792 236.103 272.111 234.785 272.111 233.158C272.111 231.531 270.792 230.212 269.165 230.212C267.538 230.212 266.22 231.531 266.22 233.158C266.22 234.785 267.538 236.103 269.165 236.103Z" fill="#407BFF"/>
<path opacity="0.3" d="M272.902 180.647H265.438V186.053H272.902V180.647Z" fill="black"/>
<path d="M298.678 131.057H274.355C272.443 131.058 270.6 131.773 269.187 133.061C267.774 134.349 266.891 136.117 266.713 138.021L264.663 159.995C264.435 162.417 263.344 164.676 261.588 166.36C259.832 168.043 257.529 169.038 255.1 169.163L231.624 170.341C230.251 170.412 228.956 171.007 228.009 172.004C227.061 173.001 226.532 174.324 226.532 175.7V176.192C226.532 177.371 227.001 178.502 227.835 179.336C228.668 180.17 229.799 180.639 230.979 180.639H302.471L306.32 139.482C306.424 138.415 306.303 137.339 305.966 136.323C305.629 135.306 305.083 134.371 304.364 133.577C303.644 132.784 302.767 132.15 301.787 131.716C300.808 131.282 299.749 131.057 298.678 131.057Z" fill="#407BFF"/>
<path opacity="0.3" d="M298.678 131.057H274.355C272.443 131.058 270.6 131.773 269.187 133.061C267.774 134.349 266.891 136.117 266.713 138.021L264.663 159.995C264.435 162.417 263.344 164.676 261.588 166.36C259.832 168.043 257.529 169.038 255.1 169.163L231.624 170.341C230.251 170.412 228.956 171.007 228.009 172.004C227.061 173.001 226.532 174.324 226.532 175.7V176.192C226.532 177.371 227.001 178.502 227.835 179.336C228.668 180.17 229.799 180.639 230.979 180.639H302.471L306.32 139.482C306.424 138.415 306.303 137.339 305.966 136.323C305.629 135.306 305.083 134.371 304.364 133.577C303.644 132.784 302.767 132.15 301.787 131.716C300.808 131.282 299.749 131.057 298.678 131.057Z" fill="white"/>
<path d="M242.85 155.815H246.199V173.335C246.199 173.763 246.029 174.174 245.726 174.476C245.423 174.779 245.013 174.949 244.585 174.949H244.464C244.036 174.949 243.625 174.779 243.322 174.476C243.02 174.174 242.85 173.763 242.85 173.335V155.815Z" fill="#263238"/>
<path opacity="0.2" d="M242.85 155.815H246.199V173.335C246.199 173.763 246.029 174.174 245.726 174.476C245.423 174.779 245.013 174.949 244.585 174.949H244.464C244.036 174.949 243.625 174.779 243.322 174.476C243.02 174.174 242.85 173.763 242.85 173.335V155.815Z" fill="white"/>
<path d="M258.997 150.788H251.549V156.961H259.014C259.432 156.983 259.851 156.919 260.244 156.773C260.637 156.628 260.997 156.404 261.3 156.115C261.604 155.826 261.846 155.479 262.012 155.094C262.177 154.708 262.262 154.294 262.262 153.874C262.262 153.455 262.177 153.04 262.012 152.655C261.846 152.27 261.604 151.923 261.3 151.634C260.997 151.345 260.637 151.121 260.244 150.976C259.851 150.83 259.432 150.766 259.014 150.788H258.997Z" fill="#407BFF"/>
<path opacity="0.5" d="M258.997 150.788H251.549V156.961H259.014C259.432 156.983 259.851 156.919 260.244 156.773C260.637 156.628 260.997 156.404 261.3 156.115C261.604 155.826 261.846 155.479 262.012 155.094C262.177 154.708 262.262 154.294 262.262 153.874C262.262 153.455 262.177 153.04 262.012 152.655C261.846 152.27 261.604 151.923 261.3 151.634C260.997 151.345 260.637 151.121 260.244 150.976C259.851 150.83 259.432 150.766 259.014 150.788H258.997Z" fill="white"/>
<path d="M256.02 150.788H229.93C228.285 150.788 226.952 152.121 226.952 153.765V153.991C226.952 155.636 228.285 156.969 229.93 156.969H256.02C257.665 156.969 258.998 155.636 258.998 153.991V153.765C258.998 152.121 257.665 150.788 256.02 150.788Z" fill="#407BFF"/>
<path opacity="0.3" d="M256.02 150.788H229.93C228.285 150.788 226.952 152.121 226.952 153.765V153.991C226.952 155.636 228.285 156.969 229.93 156.969H256.02C257.665 156.969 258.998 155.636 258.998 153.991V153.765C258.998 152.121 257.665 150.788 256.02 150.788Z" fill="white"/>
<path d="M304.149 180.647H268.391L272.377 138.061C272.556 136.158 273.438 134.389 274.851 133.101C276.265 131.813 278.107 131.099 280.019 131.097H304.342C305.411 131.098 306.467 131.322 307.444 131.754C308.42 132.186 309.296 132.817 310.015 133.607C310.735 134.397 311.281 135.328 311.62 136.341C311.959 137.354 312.083 138.426 311.985 139.49L308.507 176.725C308.393 177.801 307.885 178.798 307.08 179.522C306.275 180.246 305.231 180.647 304.149 180.647Z" fill="#407BFF"/>
<path opacity="0.5" d="M304.149 180.647H268.391L272.377 138.061C272.556 136.158 273.438 134.389 274.851 133.101C276.265 131.813 278.107 131.099 280.019 131.097H304.342C305.411 131.098 306.467 131.322 307.444 131.754C308.42 132.186 309.296 132.817 310.015 133.607C310.735 134.397 311.281 135.328 311.62 136.341C311.959 137.354 312.083 138.426 311.985 139.49L308.507 176.725C308.393 177.801 307.885 178.798 307.08 179.522C306.275 180.246 305.231 180.647 304.149 180.647Z" fill="white"/>
<path d="M220.616 235.773H185.842C185.149 235.774 184.462 235.638 183.82 235.373C183.179 235.108 182.596 234.72 182.105 234.23C181.614 233.739 181.225 233.157 180.959 232.516C180.693 231.876 180.557 231.189 180.557 230.495V150.537C180.557 149.844 180.693 149.157 180.959 148.516C181.225 147.875 181.614 147.293 182.105 146.803C182.596 146.312 183.179 145.924 183.82 145.659C184.462 145.394 185.149 145.259 185.842 145.26H220.616C220.991 145.26 221.35 145.408 221.615 145.673C221.879 145.938 222.028 146.297 222.028 146.672C222.028 147.047 221.879 147.406 221.615 147.671C221.35 147.935 220.991 148.084 220.616 148.084H185.842C185.521 148.079 185.202 148.138 184.904 148.257C184.605 148.376 184.334 148.554 184.104 148.779C183.875 149.004 183.693 149.273 183.569 149.569C183.445 149.866 183.381 150.184 183.381 150.505V230.463C183.381 230.784 183.445 231.102 183.569 231.398C183.693 231.695 183.875 231.964 184.104 232.189C184.334 232.414 184.605 232.592 184.904 232.711C185.202 232.83 185.521 232.889 185.842 232.884H220.616C220.991 232.884 221.35 233.032 221.615 233.297C221.879 233.562 222.028 233.921 222.028 234.296C222.037 234.487 222.007 234.677 221.94 234.856C221.873 235.035 221.77 235.198 221.638 235.336C221.506 235.474 221.348 235.584 221.172 235.659C220.996 235.734 220.807 235.773 220.616 235.773Z" fill="#263238"/>
<g opacity="0.5">
<path d="M220.616 235.773H185.842C185.149 235.774 184.462 235.638 183.82 235.373C183.179 235.108 182.596 234.72 182.105 234.23C181.614 233.739 181.225 233.157 180.959 232.516C180.693 231.876 180.557 231.189 180.557 230.495V150.537C180.557 149.844 180.693 149.157 180.959 148.516C181.225 147.875 181.614 147.293 182.105 146.803C182.596 146.312 183.179 145.924 183.82 145.659C184.462 145.394 185.149 145.259 185.842 145.26H220.616C220.991 145.26 221.35 145.408 221.615 145.673C221.879 145.938 222.028 146.297 222.028 146.672C222.028 147.047 221.879 147.406 221.615 147.671C221.35 147.935 220.991 148.084 220.616 148.084H185.842C185.521 148.079 185.202 148.138 184.904 148.257C184.605 148.376 184.334 148.554 184.104 148.779C183.875 149.004 183.693 149.273 183.569 149.569C183.445 149.866 183.381 150.184 183.381 150.505V230.463C183.381 230.784 183.445 231.102 183.569 231.398C183.693 231.695 183.875 231.964 184.104 232.189C184.334 232.414 184.605 232.592 184.904 232.711C185.202 232.83 185.521 232.889 185.842 232.884H220.616C220.991 232.884 221.35 233.032 221.615 233.297C221.879 233.562 222.028 233.921 222.028 234.296C222.037 234.487 222.007 234.677 221.94 234.856C221.873 235.035 221.77 235.198 221.638 235.336C221.506 235.474 221.348 235.584 221.172 235.659C220.996 235.734 220.807 235.773 220.616 235.773Z" fill="white"/>
</g>
<path d="M197.633 103.191L195.212 101.577C195.15 101.537 195.099 101.483 195.064 101.419C195.029 101.355 195.011 101.283 195.011 101.21C195.011 101.137 195.029 101.065 195.064 101C195.099 100.936 195.15 100.882 195.212 100.843L197.633 99.2285C197.722 99.1701 197.83 99.1492 197.934 99.1704C198.039 99.1915 198.13 99.253 198.19 99.3415C198.246 99.4298 198.265 99.5363 198.244 99.6387C198.223 99.741 198.163 99.8312 198.077 99.8902L196.067 101.222L198.077 102.553C198.163 102.612 198.223 102.703 198.244 102.805C198.265 102.907 198.246 103.014 198.19 103.102C198.126 103.185 198.032 103.24 197.929 103.257C197.825 103.273 197.719 103.25 197.633 103.191Z" fill="white"/>
<path d="M202.992 103.078C202.943 102.989 202.931 102.886 202.956 102.788C202.982 102.691 203.043 102.607 203.129 102.553L205.138 101.222L203.129 99.866C203.042 99.8071 202.983 99.7162 202.963 99.6134C202.943 99.5105 202.965 99.404 203.024 99.3173C203.053 99.2738 203.089 99.2363 203.132 99.207C203.175 99.1778 203.224 99.1573 203.275 99.1468C203.326 99.1363 203.378 99.136 203.43 99.1459C203.481 99.1557 203.529 99.1756 203.573 99.2043L205.994 100.818C206.055 100.858 206.106 100.912 206.141 100.976C206.176 101.04 206.195 101.112 206.195 101.185C206.195 101.259 206.176 101.331 206.141 101.395C206.106 101.459 206.055 101.513 205.994 101.553L203.573 103.167C203.529 103.201 203.48 103.225 203.426 103.239C203.373 103.253 203.317 103.256 203.263 103.248C203.209 103.24 203.156 103.22 203.11 103.191C203.063 103.162 203.023 103.123 202.992 103.078Z" fill="white"/>
<path d="M199.674 104.167C199.624 104.152 199.578 104.126 199.538 104.093C199.498 104.059 199.465 104.018 199.441 103.971C199.417 103.925 199.402 103.874 199.398 103.822C199.394 103.769 199.4 103.717 199.416 103.667L201.087 98.3893C201.101 98.3395 201.126 98.2933 201.159 98.2532C201.192 98.2132 201.232 98.1801 201.278 98.156C201.324 98.1319 201.374 98.1173 201.426 98.113C201.478 98.1087 201.53 98.1149 201.579 98.131C201.628 98.1457 201.675 98.1702 201.715 98.2031C201.755 98.236 201.788 98.2766 201.812 98.3225C201.836 98.3684 201.851 98.4187 201.855 98.4704C201.859 98.522 201.853 98.574 201.837 98.6233L200.175 103.909C200.159 103.959 200.134 104.006 200.1 104.046C200.066 104.086 200.025 104.119 199.978 104.143C199.932 104.167 199.881 104.181 199.829 104.186C199.777 104.19 199.724 104.184 199.674 104.167Z" fill="white"/>
<path d="M213.378 108.202H195.406C195.351 108.202 195.297 108.191 195.246 108.17C195.196 108.149 195.15 108.118 195.112 108.079C195.074 108.04 195.043 107.994 195.023 107.943C195.003 107.892 194.993 107.837 194.994 107.783C194.993 107.728 195.003 107.674 195.023 107.623C195.043 107.572 195.074 107.526 195.112 107.486C195.15 107.447 195.196 107.416 195.246 107.395C195.297 107.374 195.351 107.363 195.406 107.363H213.378C213.489 107.363 213.596 107.407 213.674 107.486C213.753 107.565 213.797 107.671 213.797 107.783C213.797 107.838 213.786 107.892 213.765 107.943C213.744 107.994 213.713 108.04 213.674 108.079C213.635 108.118 213.589 108.149 213.538 108.17C213.487 108.191 213.433 108.202 213.378 108.202Z" fill="white"/>
<path d="M234.021 108.202H216.041C215.986 108.202 215.931 108.191 215.88 108.17C215.829 108.149 215.783 108.118 215.744 108.079C215.705 108.04 215.674 107.994 215.653 107.943C215.632 107.892 215.621 107.838 215.621 107.783C215.629 107.677 215.677 107.578 215.755 107.507C215.833 107.435 215.935 107.395 216.041 107.395H234.005C234.116 107.395 234.223 107.44 234.301 107.518C234.38 107.597 234.424 107.704 234.424 107.815C234.416 107.918 234.371 108.014 234.296 108.086C234.222 108.157 234.124 108.199 234.021 108.202Z" fill="white"/>
<path d="M205.679 111.898H195.406C195.351 111.898 195.297 111.888 195.246 111.866C195.196 111.845 195.15 111.814 195.112 111.775C195.074 111.736 195.043 111.69 195.023 111.639C195.003 111.588 194.993 111.533 194.994 111.479C194.994 111.37 195.038 111.265 195.115 111.188C195.192 111.111 195.297 111.067 195.406 111.067H205.679C205.789 111.067 205.894 111.11 205.973 111.187C206.051 111.264 206.096 111.369 206.099 111.479C206.099 111.59 206.054 111.697 205.976 111.775C205.897 111.854 205.79 111.898 205.679 111.898Z" fill="white"/>
<path d="M225.176 111.898H208.35C208.295 111.898 208.241 111.888 208.191 111.866C208.14 111.845 208.095 111.814 208.056 111.775C208.018 111.736 207.988 111.69 207.968 111.639C207.947 111.588 207.937 111.533 207.939 111.479C207.939 111.37 207.982 111.265 208.059 111.188C208.136 111.111 208.241 111.067 208.35 111.067H225.176C225.285 111.067 225.39 111.111 225.467 111.188C225.544 111.265 225.588 111.37 225.588 111.479C225.589 111.533 225.579 111.588 225.559 111.639C225.538 111.69 225.508 111.736 225.47 111.775C225.432 111.814 225.386 111.845 225.335 111.866C225.285 111.888 225.231 111.898 225.176 111.898Z" fill="white"/>
<path d="M222.779 115.603H195.406C195.296 115.6 195.191 115.555 195.114 115.477C195.037 115.398 194.994 115.293 194.994 115.183C194.993 115.128 195.003 115.074 195.023 115.023C195.043 114.972 195.074 114.926 195.112 114.887C195.15 114.848 195.196 114.817 195.246 114.795C195.297 114.774 195.351 114.763 195.406 114.763H222.779C222.89 114.763 222.997 114.807 223.076 114.886C223.155 114.965 223.199 115.072 223.199 115.183C223.199 115.294 223.155 115.401 223.076 115.48C222.997 115.558 222.89 115.603 222.779 115.603Z" fill="white"/>
<path d="M231.172 115.603H225.459C225.347 115.603 225.241 115.558 225.162 115.48C225.083 115.401 225.039 115.294 225.039 115.183C225.039 115.072 225.083 114.965 225.162 114.886C225.241 114.807 225.347 114.763 225.459 114.763H231.172C231.284 114.763 231.39 114.807 231.469 114.886C231.548 114.965 231.592 115.072 231.592 115.183C231.592 115.294 231.548 115.401 231.469 115.48C231.39 115.558 231.284 115.603 231.172 115.603Z" fill="white"/>
<path d="M208.189 119.299H195.406C195.351 119.299 195.297 119.288 195.246 119.266C195.196 119.245 195.15 119.214 195.112 119.175C195.074 119.136 195.043 119.09 195.023 119.039C195.003 118.988 194.993 118.934 194.994 118.879C194.993 118.824 195.003 118.77 195.023 118.719C195.043 118.668 195.074 118.622 195.112 118.583C195.15 118.544 195.196 118.513 195.246 118.491C195.297 118.47 195.351 118.459 195.406 118.459H208.189C208.3 118.459 208.407 118.504 208.485 118.582C208.564 118.661 208.608 118.768 208.608 118.879C208.608 118.99 208.564 119.097 208.485 119.176C208.407 119.254 208.3 119.299 208.189 119.299Z" fill="white"/>
<path d="M226.774 119.299H210.868C210.757 119.299 210.65 119.254 210.571 119.176C210.492 119.097 210.448 118.99 210.448 118.879C210.448 118.768 210.492 118.661 210.571 118.582C210.65 118.504 210.757 118.459 210.868 118.459H226.774C226.885 118.459 226.992 118.504 227.071 118.582C227.149 118.661 227.193 118.768 227.193 118.879C227.193 118.99 227.149 119.097 227.071 119.176C226.992 119.254 226.885 119.299 226.774 119.299Z" fill="white"/>
<path d="M213.378 122.995H195.406C195.351 122.995 195.297 122.984 195.246 122.963C195.196 122.941 195.15 122.91 195.112 122.871C195.074 122.832 195.043 122.786 195.023 122.735C195.003 122.684 194.993 122.63 194.994 122.575C194.994 122.466 195.038 122.361 195.115 122.284C195.192 122.207 195.297 122.163 195.406 122.163H213.378C213.432 122.162 213.487 122.172 213.538 122.192C213.588 122.213 213.635 122.243 213.674 122.281C213.713 122.319 213.744 122.365 213.765 122.416C213.786 122.466 213.797 122.52 213.797 122.575C213.797 122.686 213.753 122.793 213.674 122.872C213.596 122.95 213.489 122.995 213.378 122.995Z" fill="white"/>
<path d="M228.735 122.995H216.041C215.929 122.995 215.823 122.95 215.744 122.872C215.665 122.793 215.621 122.686 215.621 122.575C215.621 122.52 215.632 122.466 215.653 122.416C215.674 122.365 215.705 122.319 215.744 122.281C215.784 122.243 215.83 122.213 215.881 122.192C215.932 122.172 215.986 122.162 216.041 122.163H228.719C228.828 122.163 228.933 122.207 229.01 122.284C229.087 122.361 229.13 122.466 229.13 122.575C229.132 122.683 229.092 122.787 229.018 122.866C228.944 122.944 228.843 122.99 228.735 122.995Z" fill="white"/>
<path d="M72.777 50.7602C73.1079 54.5612 72.2848 61.4448 69.4199 63.6722C74.0924 65.3588 79.0474 68.264 82.2108 72.0972C85.3501 67.5296 81.7831 64.923 81.7831 64.923C77.7481 63.4865 78.1759 60.428 79.2169 57.6116L72.777 50.7602Z" fill="#B97964"/>
<path d="M88.0534 47.4838C88.005 47.9599 88.231 48.3715 88.5457 48.4038C88.8604 48.436 89.1429 48.0648 89.1913 47.5968C89.2397 47.1287 89.0137 46.7091 88.699 46.6768C88.3843 46.6445 88.1099 47.0077 88.0534 47.4838Z" fill="#263238"/>
<path d="M88.5771 46.6849L89.7473 46.4589C89.7473 46.4589 89.0775 47.3224 88.5771 46.6849Z" fill="#263238"/>
<path d="M88.2151 47.9922C88.5446 49.1273 89.025 50.213 89.6435 51.2202C89.3819 51.3715 89.0906 51.4643 88.7897 51.4922C88.4887 51.52 88.1853 51.4823 87.9004 51.3816L88.2151 47.9922Z" fill="#A24E3F"/>
<path d="M89.4084 44.974C89.4831 44.9622 89.5514 44.9252 89.6021 44.8691C89.652 44.8154 89.6798 44.7447 89.6798 44.6714C89.6798 44.5981 89.652 44.5274 89.6021 44.4737C89.2704 44.1707 88.8707 43.9518 88.4368 43.8352C88.0029 43.7187 87.5474 43.7079 87.1085 43.8039C87.0467 43.8465 87.0032 43.9109 86.9867 43.9842C86.9703 44.0575 86.9821 44.1343 87.0197 44.1993C87.0446 44.2408 87.0802 44.2747 87.1229 44.2975C87.1655 44.3202 87.2135 44.3309 87.2618 44.3284C87.6107 44.2617 87.9704 44.2773 88.3122 44.374C88.654 44.4706 88.9686 44.6457 89.2309 44.8853C89.2778 44.9348 89.3407 44.9662 89.4084 44.974Z" fill="#263238"/>
<path d="M72.3968 44.4495C72.2112 50.3486 72.0095 52.8584 74.6403 56.151C78.6026 61.0979 85.7768 60.0165 87.6975 54.2706C89.4245 49.0978 89.4406 40.2854 84.0095 37.4286C78.5784 34.5718 72.5663 38.5342 72.3968 44.4495Z" fill="#B97964"/>
<path d="M72.6562 55.5941C66.8539 54.6015 68.5163 50.9458 68.5163 50.9458C62.8028 49.7918 67.217 46.9996 67.217 46.9996C62.4638 44.9498 67.217 43.1099 67.217 43.1099C62.6333 39.3089 69.17 37.9935 69.17 37.9935C67.556 32.0621 73.205 34.4992 73.205 34.4992C76.2716 29.399 78.9185 34.2652 78.9185 34.2652C84.2931 27.0022 85.6005 33.1273 85.6005 33.1273C91.0961 31.6828 88.9898 37.4609 88.9898 37.4609C93.509 38.6714 89.9582 40.9632 89.9582 40.9632C91.7014 43.1664 85.3987 43.5456 85.3987 43.5456C85.3987 43.5456 88.4007 48.3876 85.3987 49.7192L77.7645 55.5699C77.7645 55.5699 74.2379 54.1335 72.6562 55.5941Z" fill="#263238"/>
<path d="M78.3613 50.8328C78.3613 50.8328 82.3963 41.1488 79.241 32.8852L81.904 31.9733C81.904 31.9733 85.3822 43.9895 78.3613 50.8328Z" fill="#407BFF"/>
<path d="M82.3881 49.7676C83.0498 51.1556 83.3081 51.7609 84.2603 52.1886C84.5544 52.3573 84.8916 52.4358 85.23 52.4142C85.5684 52.3926 85.8929 52.2718 86.1631 52.067C86.4333 51.8622 86.6372 51.5824 86.7495 51.2625C86.8617 50.9426 86.8773 50.5967 86.7943 50.2679C86.5441 48.8799 85.4789 46.8382 84.0021 46.7979C83.6567 46.7996 83.3182 46.894 83.0218 47.0713C82.7254 47.2485 82.482 47.5021 82.3171 47.8056C82.1522 48.109 82.0718 48.4512 82.0843 48.7963C82.0968 49.1414 82.2017 49.4769 82.3881 49.7676Z" fill="#B97964"/>
<path d="M78.2166 69.9264C78.2166 69.9264 83.68 73.9614 85.8992 75.5754L101.708 68.1187C101.686 67.2422 101.928 66.3793 102.403 65.6424C102.878 64.9054 103.564 64.3286 104.371 63.9869L105.501 63.5188L107.882 62.4536C108.326 62.2555 108.814 62.178 109.297 62.2291C109.78 62.2801 110.241 62.4577 110.634 62.7441C111.095 63.0802 111.441 63.5506 111.624 64.0909C111.808 64.6311 111.82 65.2149 111.659 65.7623C111.327 66.8971 110.706 67.9264 109.857 68.7496C109.009 69.5728 107.961 70.1618 106.817 70.459L104.509 71.0643C104.509 71.0643 90.9591 81.3293 86.1171 81.5714C81.2751 81.8135 74.1816 77.0603 74.1816 77.0603L78.2166 69.9264Z" fill="#B97964"/>
<path d="M65.0786 63.1234C69.2507 63.1234 73.9152 65.7219 81.2185 70.4832C80.1696 73.9155 78.2187 77.0035 75.5695 79.4248C75.5695 79.4248 71.5345 78.3434 66.1761 73.2997C59.7201 67.1907 62.5204 63.1315 65.0786 63.1234Z" fill="#263238"/>
<path d="M144.324 75.2122H104.781C104.449 75.2176 104.119 75.1522 103.813 75.0203C103.508 74.8885 103.234 74.6933 103.01 74.4476C102.785 74.2019 102.616 73.9114 102.512 73.5952C102.409 73.2791 102.373 72.9445 102.409 72.6137L105.387 38.5745C105.458 37.8707 105.785 37.2174 106.305 36.7385C106.826 36.2595 107.504 35.9882 108.211 35.976H147.754C148.086 35.9705 148.416 36.0359 148.721 36.1678C149.026 36.2997 149.3 36.4951 149.524 36.7409C149.747 36.9868 149.916 37.2774 150.019 37.5936C150.121 37.9098 150.155 38.2442 150.119 38.5745L147.141 72.6137C147.07 73.3162 146.744 73.9684 146.225 74.4471C145.707 74.9259 145.03 75.1981 144.324 75.2122Z" fill="#FF6C37"/>
<path opacity="0.4" d="M144.324 75.2122H104.781C104.449 75.2176 104.119 75.1522 103.813 75.0203C103.508 74.8885 103.234 74.6933 103.01 74.4476C102.785 74.2019 102.616 73.9114 102.512 73.5952C102.409 73.2791 102.373 72.9445 102.409 72.6137L105.387 38.5745C105.458 37.8707 105.785 37.2174 106.305 36.7385C106.826 36.2595 107.504 35.9882 108.211 35.976H147.754C148.086 35.9705 148.416 36.0359 148.721 36.1678C149.026 36.2997 149.3 36.4951 149.524 36.7409C149.747 36.9868 149.916 37.2774 150.019 37.5936C150.121 37.9098 150.155 38.2442 150.119 38.5745L147.141 72.6137C147.07 73.3162 146.744 73.9684 146.225 74.4471C145.707 74.9259 145.03 75.1981 144.324 75.2122Z" fill="white"/>
<path opacity="0.7" d="M144.47 73.5983C144.738 73.5936 144.994 73.4906 145.191 73.309C145.387 73.1275 145.51 72.88 145.536 72.6137L148.513 38.5745C148.527 38.4494 148.514 38.3228 148.475 38.2031C148.436 38.0834 148.372 37.9733 148.288 37.8802C148.203 37.7871 148.099 37.7131 147.984 37.663C147.868 37.613 147.744 37.5881 147.618 37.59H108.075C107.806 37.5945 107.549 37.6972 107.351 37.8786C107.153 38.06 107.029 38.3076 107.001 38.5745L104.032 72.6137C104.018 72.7388 104.031 72.8655 104.07 72.9852C104.109 73.1049 104.173 73.215 104.257 73.3081C104.342 73.4012 104.446 73.4752 104.561 73.5252C104.677 73.5753 104.802 73.6002 104.927 73.5983H144.47Z" fill="white"/>
<path d="M116.991 53.5847L104.08 72.2748V72.6137C104.066 72.7389 104.079 72.8655 104.118 72.9852C104.157 73.1049 104.221 73.215 104.305 73.3081C104.39 73.4012 104.494 73.4752 104.609 73.5252C104.725 73.5753 104.849 73.6002 104.975 73.5983H127.378L116.991 53.5847Z" fill="#FF6C37"/>
<path opacity="0.3" d="M116.991 53.5847L104.08 72.2748V72.6137C104.066 72.7389 104.079 72.8655 104.118 72.9852C104.157 73.1049 104.221 73.215 104.305 73.3081C104.39 73.4012 104.494 73.4752 104.609 73.5252C104.725 73.5753 104.849 73.6002 104.975 73.5983H127.378L116.991 53.5847Z" fill="white"/>
<path d="M145.649 71.3144L134.827 50.7602L118.8 73.5982H144.47C144.738 73.5935 144.994 73.4906 145.191 73.309C145.387 73.1275 145.51 72.88 145.536 72.6137L145.649 71.3144Z" fill="#FF6C37"/>
<path d="M130.646 47.1287C130.547 48.1123 130.091 49.0255 129.363 49.6949C128.636 50.3643 127.688 50.7434 126.699 50.7602C126.234 50.7687 125.772 50.678 125.345 50.4941C124.918 50.3103 124.534 50.0375 124.22 49.6939C123.907 49.3503 123.67 48.9439 123.525 48.5016C123.381 48.0593 123.332 47.5913 123.383 47.1287C123.479 46.1436 123.935 45.2285 124.663 44.5575C125.39 43.8864 126.339 43.5062 127.329 43.4891C127.795 43.4805 128.257 43.5714 128.685 43.7558C129.113 43.9401 129.497 44.2136 129.811 44.5581C130.125 44.9026 130.362 45.3101 130.506 45.7534C130.65 46.1966 130.697 46.6655 130.646 47.1287Z" fill="#FF6C37"/>
<path opacity="0.4" d="M130.646 47.1287C130.547 48.1123 130.091 49.0255 129.363 49.6949C128.636 50.3643 127.688 50.7434 126.699 50.7602C126.234 50.7687 125.772 50.678 125.345 50.4941C124.918 50.3103 124.534 50.0375 124.22 49.6939C123.907 49.3503 123.67 48.9439 123.525 48.5016C123.381 48.0593 123.332 47.5913 123.383 47.1287C123.479 46.1436 123.935 45.2285 124.663 44.5575C125.39 43.8864 126.339 43.5062 127.329 43.4891C127.795 43.4805 128.257 43.5714 128.685 43.7558C129.113 43.9401 129.497 44.2136 129.811 44.5581C130.125 44.9026 130.362 45.3101 130.506 45.7534C130.65 46.1966 130.697 46.6655 130.646 47.1287Z" fill="white"/>
<path d="M31.9681 212.604L27.9492 224.515L34.1066 227.033L38.9244 216.042L31.9681 212.604Z" fill="#B97964"/>
<path d="M36.316 226.734C36.2844 226.715 36.2587 226.688 36.2416 226.655C36.2246 226.622 36.2168 226.585 36.2192 226.549C36.2237 226.513 36.2394 226.48 36.2641 226.454C36.2887 226.428 36.3211 226.41 36.3564 226.403C36.4855 226.403 39.3907 225.725 40.4721 226.403C40.6765 226.528 40.8242 226.728 40.8836 226.96C40.9288 227.089 40.9329 227.229 40.8953 227.361C40.8578 227.492 40.7804 227.609 40.6738 227.695C40.2622 227.985 39.3019 227.864 38.4223 227.59C37.697 227.365 36.9924 227.079 36.316 226.734ZM36.9293 226.678C38.1963 227.243 39.9879 227.783 40.4559 227.428C40.5205 227.38 40.6012 227.299 40.5366 227.049C40.5241 226.976 40.4941 226.907 40.4491 226.848C40.4041 226.789 40.3456 226.741 40.2784 226.71C40.1832 226.65 40.08 226.604 39.9717 226.573C38.9601 226.414 37.9276 226.45 36.9293 226.678Z" fill="#407BFF"/>
<path d="M36.2279 226.694C36.2123 226.667 36.2041 226.636 36.2041 226.605C36.2041 226.574 36.2123 226.543 36.2279 226.516C36.2279 226.436 37.0349 224.58 38.1727 224.095C38.3351 224.028 38.5093 223.993 38.6852 223.993C38.8611 223.993 39.0353 224.028 39.1976 224.095C39.6415 224.281 39.7141 224.563 39.6738 224.757C39.5769 225.604 37.398 226.613 36.4458 226.726C36.4345 226.732 36.4221 226.735 36.4095 226.735C36.3968 226.735 36.3844 226.732 36.3731 226.726C36.3482 226.734 36.3218 226.734 36.2963 226.729C36.2709 226.723 36.2474 226.711 36.2279 226.694ZM38.9636 224.41C38.7552 224.334 38.5264 224.334 38.318 224.41C37.5996 224.856 37.0361 225.513 36.704 226.29C37.745 226.04 39.2299 225.185 39.3348 224.676C39.3348 224.628 39.3348 224.499 39.0605 224.386H38.9636V224.41Z" fill="#407BFF"/>
<path d="M35.8969 225.516L28.1658 223.095C28.0243 223.051 27.8721 223.057 27.7343 223.111C27.5965 223.165 27.4812 223.265 27.4073 223.393L24.0663 229.252C23.9941 229.375 23.947 229.512 23.9278 229.653C23.9086 229.795 23.9176 229.939 23.9544 230.077C23.9912 230.215 24.0549 230.344 24.142 230.458C24.2291 230.571 24.3377 230.666 24.4617 230.737C24.5276 230.777 24.5981 230.81 24.6715 230.834C27.4718 231.641 29.9977 232.254 33.4678 233.335C37.5674 234.594 36.373 234.764 41.1666 236.321C44.0556 237.257 45.6051 234.118 44.3946 233.578C38.9796 231.157 38.9231 229.252 37.3737 226.565C37.0232 226.049 36.4991 225.677 35.8969 225.516Z" fill="#263238"/>
<path opacity="0.2" d="M30.0391 218.317L36.495 221.578L38.9241 216.042L31.9678 212.604L30.0391 218.317Z" fill="#263238"/>
<path d="M59.2597 102.432C59.2597 102.432 50.5845 109.058 52.4406 129.814C52.6181 131.734 53.2476 133.744 53.2476 135.939C53.2476 137.4 52.8441 138.424 52.3679 141.709C51.6739 146.486 50.3989 164.305 49.0512 166.621C47.7035 168.937 47.1547 168.525 43.4022 174.917C39.3672 181.793 34.1217 193.849 30.0625 214.282C32.7729 216.195 35.8687 217.493 39.1332 218.083C39.1332 218.083 61.3014 183.124 66.0143 170.107C70.2349 158.462 75.2625 121.3 75.2625 121.3L75.666 105.16L59.2597 102.432Z" fill="#407BFF"/>
<path opacity="0.1" d="M68.7498 129.814H62.4714C62.4714 129.814 60.4055 149.569 67.2327 166.048C67.9429 163.401 68.6611 160.23 69.3632 156.8L72.0827 139.401C71.6954 136.463 71.3968 134.22 71.3484 134.075C71.2112 133.615 68.7498 129.814 68.7498 129.814Z" fill="black"/>
<path d="M67.7168 217.397L67.7571 230.059L74.8991 229.583L75.9966 217.397H67.7168Z" fill="#B97964"/>
<path d="M75.723 229.365C75.6873 229.361 75.6541 229.345 75.628 229.32C75.6019 229.296 75.5843 229.263 75.5777 229.228C75.5694 229.192 75.5728 229.155 75.5873 229.122C75.6018 229.088 75.6268 229.06 75.6584 229.042C75.7714 228.978 78.2973 227.428 79.5481 227.703C79.7812 227.755 79.986 227.893 80.1211 228.09C80.2045 228.199 80.2531 228.33 80.2603 228.467C80.2675 228.604 80.233 228.74 80.1614 228.857C79.5406 229.322 78.7728 229.549 77.9987 229.494C77.2378 229.52 76.4761 229.477 75.723 229.365ZM76.2879 229.115C77.6678 229.236 79.5158 229.155 79.8629 228.663C79.9113 228.598 79.9516 228.494 79.8144 228.276C79.777 228.212 79.7255 228.158 79.664 228.118C79.6024 228.077 79.5325 228.051 79.4594 228.042C79.3497 228.025 79.2382 228.025 79.1285 228.042C78.1206 228.211 77.1556 228.575 76.2879 229.115Z" fill="#407BFF"/>
<path d="M75.6259 229.365C75.5988 229.348 75.5766 229.324 75.5611 229.296C75.5456 229.267 75.5373 229.236 75.5371 229.204C75.5371 229.115 75.6743 227.105 76.5862 226.298C76.7162 226.179 76.869 226.088 77.0355 226.029C77.202 225.971 77.3786 225.947 77.5546 225.96C78.0388 225.96 78.2002 226.234 78.2244 226.436C78.41 227.243 76.6911 228.929 75.8034 229.357C75.7799 229.365 75.7543 229.365 75.7308 229.357C75.6979 229.372 75.6607 229.375 75.6259 229.365ZM77.4497 226.298C77.2276 226.303 77.0151 226.389 76.8525 226.541C76.3203 227.198 76.0046 228.004 75.9487 228.849C76.8444 228.276 77.9662 226.976 77.9016 226.476C77.9016 226.428 77.8613 226.298 77.5465 226.282H77.4497V226.298Z" fill="#407BFF"/>
<path d="M74.9316 228.356L66.8616 228.647C66.7143 228.653 66.5735 228.71 66.4622 228.806C66.3508 228.903 66.2755 229.034 66.2483 229.179L65.0217 235.813C64.9672 236.094 65.0267 236.386 65.1871 236.624C65.3475 236.861 65.5957 237.025 65.8771 237.08C65.9549 237.088 66.0333 237.088 66.1111 237.08C69.0244 236.919 71.6068 236.668 75.2383 236.547C79.5234 236.394 78.4662 236.943 83.4938 236.838C86.5362 236.765 86.9639 233.295 85.6727 233.174C79.7574 232.641 79.0796 230.882 76.7312 228.857C76.2141 228.473 75.5727 228.294 74.9316 228.356Z" fill="#263238"/>
<path opacity="0.2" d="M67.741 223.95L75.4236 223.789L75.9966 217.397H67.7168L67.741 223.95Z" fill="#263238"/>
<path d="M64.0938 100.132C64.0938 100.132 55.4347 111.6 61.8504 134.026L69.1134 166.782C69.1134 166.782 62.2216 181.68 65.8854 220.98C69.4365 221.479 73.0451 221.397 76.57 220.738C76.57 220.738 84.64 179.234 85.8586 165.217C87.2063 149.771 86.3993 103.215 86.3993 103.215L64.0938 100.132Z" fill="#407BFF"/>
<path d="M69.3236 62.962C69.3236 62.962 67.984 57.2323 76.5866 59.734C85.1892 62.2357 84.4629 67.1342 84.4629 67.1342L69.3236 62.962Z" fill="#263238"/>
<path opacity="0.4" d="M69.3236 62.962C69.3236 62.962 67.984 57.2323 76.5866 59.734C85.1892 62.2357 84.4629 67.1342 84.4629 67.1342L69.3236 62.962Z" fill="black"/>
<path d="M90.6596 77.2943C90.6596 79.3037 89.8526 82.2089 89.0456 85.4611C88.6744 87.0025 88.3355 88.6084 88.1095 90.2386C86.891 99.1156 86.4955 108.469 86.4955 108.469C81.7465 109.505 76.8351 109.551 72.0673 108.606C67.2995 107.66 62.7775 105.743 58.7832 102.973C58.7832 102.973 62.1645 100.108 61.4705 80.2641C61.1558 71.3225 57.9278 60.6944 72.7039 62.3648C85.1801 63.7771 89.3765 67.6507 90.3853 73.7112C90.3853 73.7839 90.3853 73.8646 90.3853 73.9453L90.4579 74.5102C90.5799 75.4334 90.6473 76.3631 90.6596 77.2943Z" fill="#263238"/>
<path opacity="0.4" d="M90.6596 77.2943C90.6596 79.3037 89.8526 82.2089 89.0456 85.4611C85.6723 81.4261 82.291 73.8 82.291 73.8L85.0752 69.7004L89.9817 71.9842C90.1513 72.5511 90.286 73.1279 90.3852 73.7112C90.3852 73.7839 90.3852 73.8646 90.3852 73.9453L90.4578 74.5102C90.5799 75.4334 90.6472 76.3631 90.6596 77.2943Z" fill="black"/>
<path d="M95.8006 73.7919C95.8006 73.7919 100.643 78.5694 102.555 80.49L119.292 75.4705C119.402 74.6052 119.768 73.7924 120.343 73.1367C120.919 72.4809 121.677 72.0122 122.52 71.7906L123.699 71.4839L126.216 70.7899C126.685 70.663 127.179 70.661 127.65 70.7841C128.12 70.9073 128.549 71.1513 128.896 71.492C129.301 71.8918 129.574 72.4074 129.675 72.968C129.776 73.5286 129.701 74.1067 129.461 74.6231C128.962 75.6957 128.195 76.6212 127.234 77.3099C126.272 77.9985 125.149 78.4268 123.973 78.5532L121.6 78.8034C121.6 78.8034 106.663 86.9621 101.853 86.5102C97.0434 86.0583 90.7246 80.2721 90.7246 80.2721L95.8006 73.7919Z" fill="#B97964"/>
<path d="M83.7766 65.1006C87.9084 65.7058 92.129 68.9903 98.6818 74.7845C97.1295 78.0255 94.7354 80.7902 91.7497 82.79C91.7497 82.79 87.9326 81.1195 83.3812 75.3333C77.8774 68.3286 81.2749 64.7293 83.7766 65.1006Z" fill="#263238"/>
</svg>
