<svg width="254" height="200" viewBox="0 0 254 200" fill="none" xmlns="http://www.w3.org/2000/svg">
<g clip-path="url(#clip0_1009_9654)">
<path d="M110.466 11.3615H53.1592V64.8495H110.466V11.3615Z" fill="white" stroke="black" stroke-width="0.25"/>
<path d="M110.466 11.3614H53.1592V17.0186H110.466V11.3614Z" fill="#C7C7C7"/>
<path d="M98.0815 14.2341C98.0827 14.44 98.0227 14.6416 97.9092 14.8134C97.7956 14.9852 97.6336 15.1193 97.4437 15.199C97.2538 15.2786 97.0446 15.3 96.8425 15.2605C96.6404 15.2211 96.4546 15.1225 96.3086 14.9773C96.1626 14.8321 96.063 14.6469 96.0224 14.445C95.9818 14.2432 96.002 14.0338 96.0805 13.8435C96.1591 13.6531 96.2923 13.4904 96.4634 13.3759C96.6346 13.2613 96.8358 13.2002 97.0417 13.2002C97.3165 13.2002 97.5801 13.3089 97.7749 13.5027C97.9697 13.6964 98.08 13.9594 98.0815 14.2341Z" fill="#FF6C37"/>
<path d="M102.412 14.2341C102.413 14.44 102.353 14.6416 102.239 14.8134C102.126 14.9852 101.964 15.1193 101.774 15.199C101.584 15.2786 101.375 15.3 101.173 15.2605C100.97 15.2211 100.785 15.1225 100.639 14.9773C100.493 14.8321 100.393 14.6469 100.352 14.445C100.312 14.2432 100.332 14.0338 100.411 13.8435C100.489 13.6531 100.622 13.4904 100.794 13.3759C100.965 13.2613 101.166 13.2002 101.372 13.2002C101.647 13.2002 101.91 13.3089 102.105 13.5027C102.3 13.6964 102.41 13.9594 102.412 14.2341Z" fill="#407BFF"/>
<path d="M106.43 14.3692C106.43 14.5751 106.369 14.7764 106.255 14.9475C106.14 15.1186 105.977 15.2519 105.787 15.3304C105.597 15.4089 105.387 15.4292 105.185 15.3886C104.984 15.348 104.798 15.2484 104.653 15.1024C104.508 14.9564 104.409 14.7705 104.37 14.5685C104.33 14.3664 104.352 14.1571 104.431 13.9672C104.511 13.7773 104.645 13.6153 104.817 13.5018C104.989 13.3883 105.19 13.3283 105.396 13.3294C105.533 13.3294 105.667 13.3564 105.793 13.4087C105.919 13.461 106.033 13.5377 106.129 13.6343C106.226 13.731 106.302 13.8456 106.353 13.9718C106.405 14.0979 106.431 14.233 106.43 14.3692Z" fill="#FF8578"/>
<path d="M71.4644 22.2764H63.3457V22.9578H71.4644V22.2764Z" fill="#FF8578"/>
<path d="M80.9927 22.2764H72.874V22.9578H80.9927V22.2764Z" fill="#407BFF"/>
<path d="M78.4496 25.9539H65.8604V26.6353H78.4496V25.9539Z" fill="#FF6C37"/>
<path d="M86.9257 25.9539H80.5283V26.6353H86.9257V25.9539Z" fill="#FF8578"/>
<path d="M75.7526 29.6313H70.2246V30.3128H75.7526V29.6313Z" fill="#407BFF"/>
<path d="M97.2887 29.6313H78.9482V30.3128H97.2887V29.6313Z" fill="#407BFF"/>
<path d="M95.479 33.303H74.5186V33.9844H95.479V33.303Z" fill="#FF6C37"/>
<path d="M75.7296 36.9805H69.2793V37.6619H75.7296V36.9805Z" fill="#FF8578"/>
<path d="M84.9405 36.9805H78.4902V37.6619H84.9405V36.9805Z" fill="#FF6C37"/>
<path d="M72.7274 56.0435H63.3457V56.7249H72.7274V56.0435Z" fill="#FF8578"/>
<path d="M85.3983 56.0435H76.0166V56.7249H85.3983V56.0435Z" fill="#407BFF"/>
<path d="M97.7294 56.0435H88.3477V56.7249H97.7294V56.0435Z" fill="#FF8578"/>
<path d="M84.2008 52.3719H65.8604V53.0533H84.2008V52.3719Z" fill="#FF6C37"/>
<path d="M105.396 52.3719H87.0557V53.0533H105.396V52.3719Z" fill="#FF8578"/>
<path d="M88.4241 48.6944H70.2246V49.3759H88.4241V48.6944Z" fill="#FF8578"/>
<path d="M95.0746 48.6944H90.0107V49.3759H95.0746V48.6944Z" fill="#407BFF"/>
<path d="M75.8878 45.0228H69.0381V45.7042H75.8878V45.0228Z" fill="#407BFF"/>
<path d="M86.3742 45.0228H79.5244V45.7042H86.3742V45.0228Z" fill="#FF6C37"/>
<path d="M97.63 45.0228H90.7803V45.7042H97.63V45.0228Z" fill="#FF8578"/>
<path d="M86.5795 41.3453H76.9746V42.0267H86.5795V41.3453Z" fill="#407BFF"/>
<path d="M73.35 41.3453H63.7451V42.0267H73.35V41.3453Z" fill="#FF6C37"/>
<path d="M58.9105 21.6243H58.0352V22.4996H58.9105V21.6243Z" fill="#F9FBFC"/>
<path d="M58.8987 53.6701H58.0293V51.9078H58.8987V53.6701ZM58.8987 49.2172H58.0293V47.4548H58.8987V49.2172ZM58.8987 44.7643H58.0293V43.0019H58.8987V44.7643ZM58.8987 40.3113H58.0293V38.549H58.8987V40.3113ZM58.8987 35.8584H58.0293V34.096H58.8987V35.8584ZM58.8987 31.4055H58.0293V29.6431H58.8987V31.4055ZM58.8987 26.9526H58.0293V25.1902H58.8987V26.9526Z" fill="#F9FBFC"/>
<path d="M58.9105 56.3372H58.0352V57.2125H58.9105V56.3372Z" fill="#F9FBFC"/>
<path d="M169.986 0H122.796V29.0909H169.986V0Z" fill="#FF6C37"/>
<path d="M141.142 11.7021L135.532 14.099L141.142 16.4488L140.408 18.1465L133.676 15.1388V13.0592L140.408 10.0338L141.142 11.7021Z" fill="#F9FBFC"/>
<path d="M149.402 6.15658L145.325 21.8123L143.387 21.3541L147.499 5.72186L149.402 6.15658Z" fill="#F9FBFC"/>
<path d="M159.148 13.0592V15.1447L152.41 18.1524L151.676 16.4547L157.274 14.1049L151.676 11.708L152.41 10.0455L159.148 13.0592Z" fill="#F9FBFC"/>
<path d="M195.241 56.3548H168.365V75.5059H195.241V56.3548Z" fill="#FF6C37"/>
<path d="M179.615 60.4905C178.746 60.4905 178.44 60.7196 178.44 61.3658V64.2502C178.44 65.3723 177.976 65.7189 177.195 65.9362C177.976 66.1419 178.44 66.4885 178.44 67.5988V70.4773C178.44 71.1235 178.746 71.3585 179.615 71.3585V72.6215C177.43 72.6215 176.813 71.9224 176.813 70.4655V67.7339C176.813 66.9526 176.607 66.6529 175.896 66.6529V65.2078C176.607 65.2078 176.813 64.8964 176.813 64.1093V61.3834C176.813 59.9148 177.4 59.2275 179.615 59.2275V60.4905Z" fill="#F1F2F2"/>
<path d="M186.806 61.3834V64.1093C186.806 64.8964 187.012 65.2078 187.74 65.2078V66.6529C187.012 66.6529 186.806 66.9526 186.806 67.7339V70.4655C186.806 71.9224 186.189 72.6215 184.004 72.6215V71.3585C184.856 71.3585 185.179 71.1235 185.179 70.4773V67.5988C185.148 67.407 185.156 67.211 185.203 67.0225C185.25 66.8339 185.334 66.6568 185.451 66.5016C185.568 66.3464 185.715 66.2164 185.883 66.1193C186.051 66.0221 186.237 65.9599 186.43 65.9362C185.649 65.7189 185.179 65.3488 185.179 64.2502V61.3658C185.179 60.7196 184.891 60.4905 184.004 60.4905V59.2275C186.189 59.2275 186.806 59.9148 186.806 61.3834Z" fill="#F1F2F2"/>
<path d="M65.0732 4.17096H34.9189V24.3384H65.0732V4.17096Z" fill="#407BFF"/>
<path d="M44.8993 9.9633C44.1514 10.8851 43.7599 12.045 43.7963 13.2314C43.8327 14.4179 44.2945 15.5517 45.0974 16.4259C45.9004 17.3001 46.9909 17.8564 48.17 17.9932C49.3491 18.1301 50.538 17.8384 51.5199 17.1714L54.6863 20.3378C54.7509 20.4003 54.8373 20.4352 54.9272 20.4352C55.017 20.4352 55.1034 20.4003 55.168 20.3378L56.061 19.4449C56.0933 19.4136 56.119 19.3762 56.1366 19.3348C56.1541 19.2935 56.1632 19.249 56.1632 19.204C56.1632 19.1591 56.1541 19.1146 56.1366 19.0732C56.119 19.0318 56.0933 18.9944 56.061 18.9632L52.8946 15.7968C53.6315 14.735 53.9236 13.4269 53.7083 12.1525C53.493 10.8781 52.7874 9.73855 51.7426 8.97777C50.6977 8.21698 49.3966 7.89537 48.1177 8.08175C46.8387 8.26813 45.6835 8.94771 44.8993 9.97505V9.9633ZM51.2614 15.5148C50.7707 16.0131 50.1427 16.3542 49.4575 16.4946C48.7723 16.635 48.0609 16.5683 47.4137 16.3032C46.7664 16.038 46.2128 15.5862 45.8231 15.0054C45.4334 14.4246 45.2253 13.741 45.2253 13.0416C45.2253 12.3421 45.4334 11.6585 45.8231 11.0777C46.2128 10.4969 46.7664 10.0452 47.4137 9.77999C48.0609 9.5148 48.7723 9.44817 49.4575 9.58857C50.1427 9.72896 50.7707 10.07 51.2614 10.5684C51.9108 11.2278 52.2748 12.1161 52.2748 13.0416C52.2748 13.967 51.9108 14.8554 51.2614 15.5148Z" fill="#F9FBFC"/>
<path d="M152.792 66.4708C152.722 67.1405 151.811 74.1078 144.662 74.1078C137.154 74.1078 138.411 66.6706 138.411 66.6706V66.6236C139.184 66.4646 139.977 66.4269 140.761 66.512V62.9872L149.285 58.217H149.596V66.4415C150.66 66.3417 151.731 66.3516 152.792 66.4708Z" fill="url(#paint0_radial_1009_9654)"/>
<path d="M148.65 42.5025C149.935 43.811 150.823 45.4567 151.211 47.2492C152.028 50.8621 151.258 54.6805 150.213 58.1583C150.061 58.763 149.807 59.3373 149.461 59.856C149.186 60.2054 148.872 60.5226 148.527 60.8019C147.011 62.1178 145.497 63.4395 143.986 64.7672C142.957 65.6601 136.648 66.4121 135.444 65.5485C130.803 62.2294 129.904 52.6244 130.838 47.6957C132.377 39.5418 142.858 36.628 148.65 42.5025Z" fill="url(#paint1_radial_1009_9654)"/>
<path d="M146.042 52.9358C146.106 52.1545 146.911 51.291 147.722 51.8021C148.532 52.3131 148.362 53.723 148.015 54.4926C147.745 55.0801 146.841 55.7498 146.212 55.1917C145.695 54.7217 146.5 54.1695 146.529 53.7407C146.559 53.3118 145.777 53.0827 146.094 52.6656" fill="#F7B094"/>
<path d="M146.189 56.5663C146.744 56.655 147.312 56.5466 147.795 56.2601C148.278 55.9736 148.645 55.527 148.833 54.9978C149.06 54.1755 149.169 53.3249 149.156 52.4717C149.443 53.3707 149.515 54.3243 149.367 55.2563C149.144 56.9717 148.545 58.6107 147.2 58.6283C145.854 58.6459 146.189 56.5663 146.189 56.5663Z" fill="#F7B094"/>
<path d="M145.155 55.3561C145.126 55.372 145.094 55.382 145.061 55.3855C144.532 55.456 144.326 54.8274 144.25 54.4279C144.114 53.5003 144.051 52.5633 144.062 51.6258C144.079 51.3742 144.051 51.1215 143.98 50.8797C143.686 50.2041 142.899 49.7694 142.658 49.0703C142.382 48.2596 143.169 47.4548 142.858 46.5677C142.376 45.2107 140.637 44.8994 139.374 44.9111C137.493 45.0004 135.62 45.2222 133.77 45.575C131.802 45.8804 129.282 46.1624 127.543 44.9229C125.451 43.4249 124.605 39.5065 126.139 37.3623C126.614 36.794 127.208 36.3366 127.879 36.022C128.549 35.7074 129.281 35.5433 130.022 35.5412C131.52 35.5059 132.789 36.3989 134.163 36.8512C135.256 37.2096 136.319 36.158 137.342 35.9583C138.628 35.6998 139.174 37.1038 140.314 37.1332C141.454 37.1626 142.505 36.3049 143.58 36.1051C145.725 35.7174 145.601 37.8675 147.04 38.6077C147.933 39.0659 149.091 38.7839 149.978 39.2539C150.665 39.6064 150.759 40.2232 150.912 40.9282C150.987 41.5627 151.098 42.1924 151.247 42.8139C151.484 43.2876 151.809 43.7121 152.204 44.0652C152.559 44.5176 152.828 45.0314 152.997 45.5808C153.394 46.8244 153.53 48.1362 153.397 49.4345C153.127 51.607 152.584 53.7366 151.781 55.7732C151.311 57.095 151.141 58.4755 150.418 59.7268C150.224 60.0617 149.361 61.0427 149.044 60.3143C148.987 60.1522 148.971 59.9788 148.997 59.8091C149.091 58.4403 150.36 49.6519 147.035 50.7093C146.701 50.8292 146.398 51.023 146.15 51.2763C145.902 51.5297 145.714 51.8359 145.601 52.1721C145.331 52.9526 145.231 53.7818 145.307 54.6042C145.307 54.7275 145.307 54.845 145.307 54.9684C145.319 55.0408 145.311 55.1149 145.284 55.183C145.257 55.2512 145.212 55.311 145.155 55.3561Z" fill="#3D3D7A"/>
<path d="M140.754 65.6954C144.544 65.108 147.04 62.0943 147.04 62.0943C146.685 63.5674 145.856 64.883 144.68 65.8384C143.504 66.7938 142.046 67.336 140.531 67.3814L140.754 65.6954Z" fill="#F7B094"/>
<path d="M151.435 187.37H147.91C147.656 187.37 147.413 187.269 147.233 187.089C147.054 186.91 146.953 186.666 146.953 186.412V134.404H152.375V186.412C152.375 186.663 152.277 186.904 152.101 187.083C151.925 187.262 151.686 187.365 151.435 187.37Z" fill="#0A2033"/>
<path d="M160.875 139.674H138.487C137.504 139.674 136.561 139.283 135.866 138.588C135.171 137.893 134.78 136.95 134.78 135.967V135.151H164.582V135.967C164.582 136.95 164.191 137.893 163.496 138.588C162.801 139.283 161.858 139.674 160.875 139.674Z" fill="#30475E"/>
<path d="M151.435 194.208H147.91C147.656 194.208 147.413 194.107 147.233 193.927C147.054 193.748 146.953 193.504 146.953 193.25V181.201H152.375V193.256C152.374 193.506 152.274 193.745 152.099 193.923C151.923 194.101 151.685 194.203 151.435 194.208Z" fill="#0A2033"/>
<path d="M121.557 191.059C121.557 191.686 121.743 192.3 122.091 192.821C122.44 193.343 122.935 193.75 123.515 193.99C124.095 194.23 124.732 194.293 125.348 194.17C125.963 194.048 126.528 193.746 126.972 193.302C127.416 192.858 127.718 192.293 127.84 191.678C127.963 191.062 127.9 190.425 127.66 189.845C127.42 189.265 127.013 188.77 126.491 188.421C125.97 188.073 125.356 187.887 124.729 187.887C123.888 187.887 123.081 188.221 122.486 188.816C121.891 189.411 121.557 190.218 121.557 191.059Z" fill="#0A2033"/>
<path d="M171.467 191.059C171.467 191.686 171.653 192.3 172.001 192.821C172.35 193.343 172.845 193.75 173.425 193.99C174.005 194.23 174.643 194.293 175.258 194.17C175.873 194.048 176.439 193.746 176.882 193.302C177.326 192.858 177.628 192.293 177.75 191.678C177.873 191.062 177.81 190.425 177.57 189.845C177.33 189.265 176.923 188.77 176.401 188.421C175.88 188.073 175.266 187.887 174.639 187.887C173.798 187.887 172.991 188.221 172.396 188.816C171.801 189.411 171.467 190.218 171.467 191.059Z" fill="#0A2033"/>
<path d="M144.227 186.694H155.13V177.166H144.227V186.694Z" fill="#30475E"/>
<path d="M177.806 188.938H121.551V187.834C121.551 186.938 121.907 186.079 122.54 185.445C123.174 184.812 124.033 184.456 124.929 184.456H174.428C175.324 184.456 176.183 184.812 176.816 185.445C177.45 186.079 177.806 186.938 177.806 187.834V188.938Z" fill="#407BFF"/>
<path d="M149.679 140.743H147.799V176.314H149.679V140.743Z" fill="#30475E"/>
<path d="M170.979 96.7132C170.671 96.7028 170.363 96.7569 170.077 96.8722C169.791 96.9875 169.532 97.1613 169.317 97.3826C169.102 97.6038 168.935 97.8676 168.828 98.157C168.721 98.4464 168.675 98.755 168.694 99.063C169.064 105.525 167.695 121.269 161.686 126.638C154.331 133.212 133.488 132.319 133.488 132.319C133.488 132.319 130.045 136.543 136.93 137.477C143.815 138.411 163.207 137.794 167.901 133.412C172.442 129.17 175.138 118.061 173.112 98.7517C173.057 98.216 172.81 97.7182 172.417 97.3501C172.024 96.982 171.511 96.7683 170.973 96.7484L170.979 96.7132Z" fill="#407BFF"/>
<path d="M131.931 176.314L134.41 181.965L126.814 185.296L124.329 179.627L131.931 176.314Z" fill="url(#paint2_radial_1009_9654)"/>
<path d="M167.743 113.514C167.273 114.454 133.535 113.514 130.345 113.826C130.345 113.826 109.696 123.677 106.735 132.906C106.415 134.086 106.316 135.315 106.441 136.531C107.27 149.52 122.062 180.626 122.062 180.626L124.329 179.627L131.931 176.314L133.012 175.844C133.012 175.844 121.263 140.884 123.613 139.004C125.963 137.124 152.551 132.436 161.797 129.94C171.044 127.443 167.743 113.514 167.743 113.514Z" fill="black"/>
<path d="M102.981 177.765L103.575 186.253H95.2916L94.6924 177.747L102.981 177.765Z" fill="url(#paint3_radial_1009_9654)"/>
<path d="M130.181 113.514L129.881 113.65C129.881 113.65 95.3212 118.52 89.6816 128.201C86.0159 134.51 93.1006 180.596 93.1006 180.596L105.331 180.626C105.331 180.626 103.505 142.235 104.115 140.091C104.797 137.653 105.972 136.772 106.465 136.519C106.34 135.303 106.439 134.075 106.759 132.895C109.696 123.666 130.369 113.814 130.369 113.814C130.277 113.736 130.211 113.631 130.181 113.514Z" fill="#131313"/>
<path d="M163.566 81.592L161.252 81.9092C160.837 86.1111 160.188 90.2867 159.307 94.4162L130.428 105.378L130.034 107.469H129.676C129.676 107.904 129.676 108.327 129.705 108.721C129.77 111.129 129.928 112.868 130.181 113.561C130.208 113.674 130.267 113.776 130.351 113.855C131.139 114.495 141.349 113.268 152.393 117.309C161.968 120.834 167.338 124.664 167.584 124.147C170.598 117.862 165.117 93.3059 163.566 81.592Z" fill="#FF6C37"/>
<path d="M160.529 95.8907C159.76 99.5917 157.774 106.947 153.867 107.934C148.768 109.232 138.917 109.161 129.682 108.668C129.682 108.274 129.682 107.851 129.652 107.417H130.011L130.404 105.325L159.284 94.3634C160.164 90.2338 160.813 86.0583 161.228 81.8564C161.228 81.8564 161.228 81.8975 161.228 81.9621C161.316 82.9667 161.704 90.4509 160.529 95.8907Z" fill="#F4675D"/>
<path d="M131.608 72.3924C131.091 73.3265 130.345 83.372 129.946 93.3411L124.042 87.8308C126.545 82.9666 131.608 72.3924 131.608 72.3924Z" fill="#FF6C37"/>
<path d="M128.066 100.59C123.084 101.454 118.502 102.2 118.502 102.2V102.441C112.951 98.0115 104.515 85.4634 104.515 85.4634C104.515 85.4634 107.041 82.4321 107.669 81.6332C107.763 81.5098 121.522 90.9796 122.227 90.8974C122.403 90.8974 123.108 89.6402 124.048 87.8015L129.952 93.3118C129.858 95.6616 129.781 98.0526 129.734 100.291C129.176 100.402 128.618 100.496 128.066 100.59Z" fill="#F7B094"/>
<path d="M118.502 102.206L118.379 106.318H103.363C103.363 106.318 104.855 100.444 108.921 100.444C112.986 100.444 114.548 102.594 114.548 102.594L118.502 102.206Z" fill="url(#paint4_radial_1009_9654)"/>
<path d="M107.552 81.545L107.663 81.639C107.035 82.4379 104.509 85.4692 104.509 85.4692L102.958 84.3589C102.381 84.6649 101.737 84.8209 101.084 84.8127C100.431 84.8045 99.7906 84.6323 99.2217 84.3119C97.1304 83.1781 98.4228 80.4641 98.5344 80.1468C98.129 80.2584 95.5971 82.2852 95.227 82.0737C94.8569 81.8622 94.5397 81.1396 97.3477 78.3727C100.156 75.6058 103.951 79.1599 104.068 79.1599L107.552 81.545Z" fill="#F7B094"/>
<path d="M99.5328 83.842C99.5328 83.842 98.9454 84.9758 100.003 85.4692C101.296 85.9841 102.676 86.2435 104.068 86.2329C104.967 86.1448 105.684 84.8877 105.684 84.8877L102.958 82.3322H100.784L99.5328 83.842Z" fill="#F7B094"/>
<path d="M99.3687 84.4C99.5332 83.8419 101.078 84.1415 102.036 84.165C102.741 84.165 103.128 83.9947 103.346 83.4542C103.563 82.9138 102.541 82.0619 102.341 82.3322C102.142 82.6024 102.711 82.9784 102.723 83.3367C102.735 83.6951 101.719 83.8126 100.925 83.8126C100.205 83.8408 99.4877 83.9094 98.7754 84.0182L99.3687 84.4Z" fill="#E8987C"/>
<path d="M157.838 99.7444L143.152 94.5337C142.077 96.5369 140.931 98.0584 139.798 98.3345C138.082 98.7869 133.923 99.5682 129.746 100.297C129.194 100.402 128.636 100.496 128.084 100.596C123.102 101.46 118.52 102.206 118.52 102.206V102.447V102.605L118.408 106.318V107.258C122.172 107.113 125.942 107.174 129.699 107.44C138.511 108.069 149.878 108.445 153.644 106.671C155.406 105.836 156.816 103.093 157.926 99.7151L157.838 99.7444Z" fill="url(#paint5_radial_1009_9654)"/>
<path d="M143.128 94.5337L157.838 99.7444L157.169 101.707L142.611 95.4619L143.128 94.5337Z" fill="#F7B094"/>
<path d="M143.134 94.5337C142.059 96.5369 140.914 98.0585 139.78 98.3346C138.065 98.7869 133.905 99.5682 129.729 100.297C129.776 98.0585 129.852 95.691 129.946 93.3177C130.345 83.3309 131.091 73.303 131.608 72.3689C132.448 70.8004 134.757 67.3932 138.399 66.6119V66.6588C138.399 66.6588 137.154 74.0961 144.668 74.0961C151.817 74.0961 152.727 67.1406 152.798 66.4591C156.475 66.8703 162.115 68.7149 162.896 76.111C163.055 77.5738 163.278 79.4478 163.572 81.5803L161.251 81.8975C161.251 81.8975 160.312 92.319 157.903 99.7034L157.844 99.7327L143.134 94.5337Z" fill="#FF6C37"/>
<g style="mix-blend-mode:screen">
<path d="M142.976 93.1767L148.85 78.9602L144.521 93.7524L142.976 93.1767Z" fill="#6D4B35"/>
</g>
<path d="M152.792 66.4708H149.591C149.591 66.4708 145.032 71.4701 142.106 71.4701C139.181 71.4701 140.755 66.5002 140.755 66.5002H139.328C137.345 66.5018 135.433 67.2324 133.954 68.5529C132.475 69.8735 131.534 71.6916 131.309 73.6613C131.256 74.1254 131.203 74.566 131.162 74.9713C130.851 77.9967 143.105 80.1938 143.105 80.1938L149.42 79.8414L153.25 72.3924L154.014 69.3259L152.792 66.4708Z" fill="#FF6C37"/>
<path d="M114.167 191.799C114.455 193.332 115.512 194.419 117.046 194.149L137.43 190.348C137.678 190.301 137.897 190.158 138.039 189.95C138.181 189.741 138.235 189.485 138.188 189.238L137.853 187.428C137.853 187.428 116.411 191.182 114.161 191.805L114.167 191.799Z" fill="#F1F2F2"/>
<path d="M120.235 186.671L120.863 186.118L122.038 185.049C122.244 184.867 122.449 184.685 122.626 184.509L123.66 183.586L124.288 182.999L125.122 182.253C125.205 182.184 125.309 182.146 125.416 182.146C125.523 182.146 125.627 182.184 125.71 182.253C126.55 182.958 129.235 184.568 134.163 181.53C134.219 181.497 134.28 181.475 134.344 181.466C134.408 181.456 134.473 181.46 134.536 181.476C134.598 181.493 134.657 181.522 134.708 181.561C134.759 181.601 134.801 181.65 134.833 181.707L137.77 187.405C137.77 187.405 116.328 191.159 114.078 191.781C114.901 191.329 117.644 188.962 120.235 186.671Z" fill="#FF6C37"/>
<path d="M82.0615 191.599C82.1027 193.156 82.9721 194.396 84.5289 194.36L105.26 193.855C105.385 193.852 105.508 193.824 105.623 193.774C105.737 193.723 105.84 193.65 105.926 193.56C106.013 193.469 106.08 193.363 106.125 193.246C106.17 193.129 106.192 193.005 106.188 192.88L106.141 191.041C106.141 191.041 84.4055 191.329 82.0557 191.588L82.0615 191.599Z" fill="#F1F2F2"/>
<path d="M88.8584 187.499L89.5634 187.058L90.9204 186.195L91.596 185.76L92.7709 185.008L93.4817 184.544L94.4217 183.957C94.5134 183.898 94.6229 183.875 94.7305 183.89C94.8381 183.905 94.9368 183.958 95.0091 184.039C95.7199 184.867 98.1403 186.888 103.468 184.673C103.528 184.647 103.592 184.634 103.657 184.634C103.722 184.634 103.786 184.648 103.845 184.675C103.905 184.701 103.958 184.74 104.001 184.788C104.044 184.837 104.077 184.893 104.097 184.955L106.141 191.059C106.141 191.059 84.4055 191.347 82.0557 191.605C82.8605 191.253 85.9211 189.349 88.8584 187.499Z" fill="#FF6C37"/>
<path d="M67.3109 107.252L56.2432 77.7266H87.7603L98.8339 107.252H67.3109Z" fill="#ABB5BA"/>
<path d="M100.785 107.252H98.8343L87.7607 77.7266L89.529 77.8029L99.7743 104.532L100.785 107.252Z" fill="#8495A0"/>
<path d="M100.173 107.258H120.998L120.945 105.396H99.7441" fill="#8495A0"/>
<path d="M188.903 112.886H183.886V195.265H188.903V112.886Z" fill="#8495A0"/>
<path d="M161.686 112.886H156.669V195.265H161.686V112.886Z" fill="#ABB5BA"/>
<path d="M74.4837 112.886H69.4668V195.265H74.4837V112.886Z" fill="#8495A0"/>
<path d="M47.2669 112.886H42.25V195.265H47.2669V112.886Z" fill="#ABB5BA"/>
<path d="M193.92 107.252H37.4448C36.0983 107.252 35.0068 108.344 35.0068 109.69V110.759C35.0068 112.106 36.0983 113.197 37.4448 113.197H193.92C195.266 113.197 196.358 112.106 196.358 110.759V109.69C196.358 108.344 195.266 107.252 193.92 107.252Z" fill="#37474F"/>
<path d="M61.5068 80.8283L62.0414 82.2676H68.3213L67.7868 80.8283H61.5068Z" fill="#8495A0"/>
<path d="M124.036 87.8015L123.59 88.6768L129.94 95.2387V93.3118L124.036 87.8015Z" fill="#E8987C"/>
<path d="M253.735 194.208H0V200H253.735V194.208Z" fill="#A5B7C6"/>
</g>
<defs>
<radialGradient id="paint0_radial_1009_9654" cx="0" cy="0" r="1" gradientUnits="userSpaceOnUse" gradientTransform="translate(145.561 66.1536) scale(7.59582 7.59583)">
<stop stop-color="#FFC8AF"/>
<stop offset="1" stop-color="#FFBB9C"/>
</radialGradient>
<radialGradient id="paint1_radial_1009_9654" cx="0" cy="0" r="1" gradientUnits="userSpaceOnUse" gradientTransform="translate(141.164 52.4143) rotate(-12.15) scale(11.9724)">
<stop stop-color="#FFC8AF"/>
<stop offset="1" stop-color="#FFBB9C"/>
</radialGradient>
<radialGradient id="paint2_radial_1009_9654" cx="0" cy="0" r="1" gradientUnits="userSpaceOnUse" gradientTransform="translate(129.369 180.802) scale(4.77603 4.77603)">
<stop stop-color="#FFC8AF"/>
<stop offset="1" stop-color="#FFBB9C"/>
</radialGradient>
<radialGradient id="paint3_radial_1009_9654" cx="0" cy="0" r="1" gradientUnits="userSpaceOnUse" gradientTransform="translate(99.1336 182) scale(4.34719 4.34718)">
<stop stop-color="#FFC8AF"/>
<stop offset="1" stop-color="#FFBB9C"/>
</radialGradient>
<radialGradient id="paint4_radial_1009_9654" cx="0" cy="0" r="1" gradientUnits="userSpaceOnUse" gradientTransform="translate(125.61 100.414) scale(24.3443)">
<stop stop-color="#FFC8AF"/>
<stop offset="1" stop-color="#FFBB9C"/>
</radialGradient>
<radialGradient id="paint5_radial_1009_9654" cx="0" cy="0" r="1" gradientUnits="userSpaceOnUse" gradientTransform="translate(125.61 100.414) scale(24.3442 24.3443)">
<stop stop-color="#FFC8AF"/>
<stop offset="1" stop-color="#FFBB9C"/>
</radialGradient>
<clipPath id="clip0_1009_9654">
<rect width="253.735" height="200" fill="white"/>
</clipPath>
</defs>
</svg>
