<svg width="60" height="80" viewBox="0 0 60 80" fill="none" xmlns="http://www.w3.org/2000/svg">
<g clip-path="url(#clip0_1325_24979)">
<path d="M19.0872 61.8435C19.0872 61.8435 16.0356 63.618 21.259 64.2185C27.587 64.9403 30.821 64.837 37.7947 63.517C37.7947 63.517 39.6282 64.6666 42.1884 65.6624C26.5558 72.3623 6.80832 65.2742 19.0872 61.8435ZM17.1769 53.1003C17.1769 53.1003 13.7542 55.634 18.9815 56.1746C25.7413 56.8719 31.0795 56.929 40.317 55.1503C40.317 55.1503 41.5947 56.4455 43.6037 57.154C24.7027 62.6809 3.6504 57.5898 17.1769 53.1003Z" fill="#5382A1"/>
<path d="M33.2831 38.2694C37.1351 42.704 32.271 46.6948 32.271 46.6948C32.271 46.6948 42.0516 41.6458 37.5598 35.323C33.3647 29.4271 30.1473 26.4971 47.564 16.3963C47.564 16.3963 20.2257 23.2243 33.2831 38.2694Z" fill="#E76F00"/>
<path d="M53.9586 68.3102C53.9586 68.3102 56.2169 70.1708 51.4714 71.6104C42.4481 74.344 13.9149 75.1694 5.98842 71.7193C3.13918 70.48 8.48253 68.7597 10.1632 68.3986C11.9161 68.0185 12.9179 68.0894 12.9179 68.0894C9.74912 65.8571 -7.56371 72.4725 4.12392 74.3669C35.9974 79.5359 62.2261 72.0395 53.9586 68.3102ZM20.5565 44.0416C20.5565 44.0416 6.04299 47.489 15.4171 48.7405C19.375 49.2705 27.2652 49.1507 34.6148 48.5348C40.6213 48.0284 46.6525 46.9509 46.6525 46.9509C46.6525 46.9509 44.5345 47.858 43.0023 48.9042C28.2638 52.7805 -0.208339 50.9773 7.98842 47.0122C14.9204 43.6615 20.5565 44.0416 20.5565 44.0416ZM46.5926 58.5946C61.5752 50.8092 54.6478 43.3276 49.8127 44.3357C48.6275 44.5822 48.0992 44.7958 48.0992 44.7958C48.0992 44.7958 48.5392 44.1068 49.3794 43.8085C58.9447 40.4455 66.3013 53.7269 46.2915 58.987C46.2915 58.9872 46.5234 58.7801 46.5926 58.5946Z" fill="#5382A1"/>
<path d="M37.5573 0.0857415C37.5573 0.0857415 45.8549 8.38632 29.6875 21.1496C16.7231 31.3882 26.7312 37.2259 29.6821 43.8957C22.1145 37.0679 16.5608 31.0573 20.2868 25.4633C25.7552 17.2513 40.905 13.2702 37.5573 0.0857415Z" fill="#E76F00"/>
<path d="M22.0282 79.6913C36.4095 80.612 58.4934 79.1805 59.0164 72.3757C59.0164 72.3757 58.0111 74.9556 47.1311 77.0041C34.8564 79.3139 19.7175 79.0443 10.7383 77.5639C10.7385 77.5639 12.5762 79.0853 22.0282 79.6913Z" fill="#5382A1"/>
</g>
<defs>
<clipPath id="clip0_1325_24979">
<rect width="59.2" height="80" fill="white"/>
</clipPath>
</defs>
</svg>
