<svg width="80" height="80" viewBox="0 0 80 80" fill="none" xmlns="http://www.w3.org/2000/svg">
<g clip-path="url(#clip0_1323_24966)">
<path d="M79.9989 0H40.1656L2.12891 40H39.9289L40.1056 39.82L79.9989 0Z" fill="url(#paint0_linear_1323_24966)"/>
<path d="M40.1067 39.82L39.93 40H40.2867L40.1067 39.82Z" fill="url(#paint1_linear_1323_24966)"/>
<path d="M40.1667 0H0V42.24V40H2.13L40.1667 0Z" fill="url(#paint2_linear_1323_24966)"/>
<path d="M39.93 40H2.13L0 42.24V80L39.93 40Z" fill="url(#paint3_linear_1323_24966)"/>
<path d="M40.2867 40H39.93L0 80H80L40.2867 40Z" fill="url(#paint4_linear_1323_24966)"/>
<path d="M2.13 40H0V42.24L2.13 40Z" fill="url(#paint5_linear_1323_24966)"/>
</g>
<defs>
<linearGradient id="paint0_linear_1323_24966" x1="-14.2795" y1="73.109" x2="60.1647" y2="-1.33521" gradientUnits="userSpaceOnUse">
<stop stop-color="#C757BC"/>
<stop offset="0.108" stop-color="#C757BC"/>
<stop offset="0.173" stop-color="#CD5CA9"/>
<stop offset="0.492" stop-color="#E8744F"/>
<stop offset="0.716" stop-color="#F88316"/>
<stop offset="0.823" stop-color="#FF8900"/>
<stop offset="1" stop-color="#FF8900"/>
</linearGradient>
<linearGradient id="paint1_linear_1323_24966" x1="25.8431" y1="94.4104" x2="62.1285" y2="58.125" gradientUnits="userSpaceOnUse">
<stop stop-color="#00AFFF"/>
<stop offset="0.296" stop-color="#00AFFF"/>
<stop offset="0.694" stop-color="#5282FF"/>
<stop offset="1" stop-color="#945DFF"/>
</linearGradient>
<linearGradient id="paint2_linear_1323_24966" x1="-0.843726" y1="22.109" x2="24.6109" y2="-3.34637" gradientUnits="userSpaceOnUse">
<stop stop-color="#00AFFF"/>
<stop offset="0.296" stop-color="#00AFFF"/>
<stop offset="0.694" stop-color="#5282FF"/>
<stop offset="1" stop-color="#945DFF"/>
</linearGradient>
<linearGradient id="paint3_linear_1323_24966" x1="-13.8317" y1="73.5557" x2="60.6125" y2="-0.888544" gradientUnits="userSpaceOnUse">
<stop stop-color="#AD4CA4"/>
<stop offset="0.108" stop-color="#AD4CA4"/>
<stop offset="0.173" stop-color="#B25093"/>
<stop offset="0.492" stop-color="#CA6545"/>
<stop offset="0.716" stop-color="#D87213"/>
<stop offset="0.823" stop-color="#DE7700"/>
<stop offset="1" stop-color="#DE7700"/>
</linearGradient>
<linearGradient id="paint4_linear_1323_24966" x1="25.8431" y1="94.4104" x2="62.1285" y2="58.125" gradientUnits="userSpaceOnUse">
<stop stop-color="#0098DE"/>
<stop offset="0.296" stop-color="#0098DE"/>
<stop offset="0.694" stop-color="#4771DE"/>
<stop offset="1" stop-color="#8151DE"/>
</linearGradient>
<linearGradient id="paint5_linear_1323_24966" x1="9.16022" y1="32.1127" x2="34.6149" y2="6.65732" gradientUnits="userSpaceOnUse">
<stop stop-color="#0098DE"/>
<stop offset="0.296" stop-color="#0098DE"/>
<stop offset="0.694" stop-color="#4771DE"/>
<stop offset="1" stop-color="#8151DE"/>
</linearGradient>
<clipPath id="clip0_1323_24966">
<rect width="80" height="80" fill="white"/>
</clipPath>
</defs>
</svg>
