<svg width="62" height="42" viewBox="0 0 62 42" fill="none" xmlns="http://www.w3.org/2000/svg">
<g clip-path="url(#clip0_2340_25003)">
<path d="M61.0774 19.6152C60.6401 19.1779 55.0279 12.1081 54.0804 10.942C53.0601 9.7758 52.6228 9.99445 51.9668 10.0673C51.3108 10.1402 44.241 11.3793 43.4393 11.4521C42.6376 11.5979 42.1274 11.8895 42.6376 12.6183C43.0749 13.2743 47.7395 19.8339 48.7599 21.3645L30.1743 25.8104L15.4516 1.10253C14.8685 0.227912 14.7227 -0.0636262 13.4108 0.00925849C12.0989 0.0821431 1.82217 0.956759 1.09332 0.956759C0.364478 1.02964 -0.437253 1.32118 0.291593 3.07041C1.02044 4.81964 12.682 29.892 12.9735 30.6208C13.2651 31.3497 14.1397 32.5158 16.1076 32.0785C18.1483 31.5683 25.1452 29.7462 29.0081 28.7258C31.0489 32.37 35.1304 39.8043 35.9322 40.8975C36.9526 42.3552 37.6814 42.0637 39.212 41.6264C40.451 41.262 58.3078 34.8481 59.1095 34.4837C59.9112 34.1193 60.4214 33.9006 59.8383 33.0989C59.401 32.5158 54.7364 26.1748 52.2583 22.895C53.9347 22.4577 59.9841 20.8543 60.6401 20.6356C61.3689 20.417 61.5147 20.0525 61.0774 19.6152V19.6152ZM27.3318 26.5393C27.1131 26.6122 16.6906 29.0902 16.1804 29.236C15.5974 29.3818 15.5974 29.3089 15.5974 29.0902C15.4516 28.8716 3.20698 3.50772 2.98832 3.21618C2.84255 2.92464 2.84255 2.63311 2.98832 2.63311C3.13409 2.63311 12.8277 1.75849 13.1193 1.75849C13.4837 1.75849 13.4108 1.83137 13.5566 2.05003C13.5566 2.05003 27.186 25.5918 27.4047 25.9562C27.6962 26.3206 27.5504 26.4664 27.3318 26.5393V26.5393ZM56.6314 32.0056C56.7772 32.2972 56.9958 32.4429 56.4128 32.5887C55.9026 32.8073 38.8476 38.5652 38.4831 38.711C38.1187 38.8568 37.9001 38.9297 37.4628 38.2737C37.0254 37.6177 31.4862 28.0698 31.4862 28.0698L49.6345 23.3323C50.0718 23.1866 50.2176 23.1137 50.5091 23.551C50.8006 24.0612 56.4856 31.787 56.6314 32.0056ZM57.7976 19.1779C57.3603 19.2508 50.7278 20.9272 50.7278 20.9272L45.2614 13.4929C45.1156 13.2743 44.9699 13.0556 45.3343 12.9827C45.6987 12.9098 51.8939 11.8166 52.1854 11.7437C52.477 11.6708 52.6956 11.5979 53.0601 12.1081C53.4245 12.5454 58.0891 18.522 58.3078 18.7406C58.5264 18.9593 58.2349 19.105 57.7976 19.1779Z" fill="#FB503B"/>
</g>
<defs>
<clipPath id="clip0_2340_25003">
<rect width="61.296" height="42" fill="white"/>
</clipPath>
</defs>
</svg>
