<svg width="117" height="80" viewBox="0 0 117 80" fill="none" xmlns="http://www.w3.org/2000/svg">
<g clip-path="url(#clip0_1180_17873)">
<path d="M116.338 37.3623C115.505 36.5293 104.815 23.063 103.01 20.8417C101.067 18.6205 100.234 19.037 98.9843 19.1758C97.7348 19.3146 84.2685 21.6747 82.7414 21.8135C81.2143 22.0912 80.2425 22.6465 81.2143 24.0348C82.0473 25.2842 90.9323 37.7787 92.8758 40.6941L57.4747 49.1626L29.4315 2.09997C28.3209 0.43404 28.0432 -0.121271 25.5443 0.0175567C23.0454 0.156385 3.47071 1.82232 2.08243 1.82232C0.694151 1.96115 -0.832956 2.51646 0.555323 5.84833C1.9436 9.1802 24.1561 56.937 24.7114 58.3253C25.2667 59.7135 26.9326 61.9348 30.681 61.1018C34.5681 60.13 47.8956 56.6593 55.2535 54.7157C59.1407 61.6571 66.915 75.8176 68.4421 77.9C70.3857 80.6765 71.774 80.1212 74.6894 79.2883C77.0495 78.5941 111.062 66.3773 112.589 65.6831C114.117 64.989 115.088 64.5725 113.978 63.0454C113.145 61.9348 104.26 49.8568 99.5396 43.6095C102.733 42.7765 114.255 39.7223 115.505 39.3058C116.893 38.8894 117.171 38.1952 116.338 37.3623ZM52.0605 50.5509C51.644 50.6897 31.7916 55.4099 30.8198 55.6875C29.7092 55.9652 29.7092 55.8264 29.7092 55.4099C29.4315 54.9934 6.10844 6.68129 5.69195 6.12598C5.4143 5.57067 5.4143 5.01536 5.69195 5.01536C5.96961 5.01536 24.4337 3.34943 24.989 3.34943C25.6832 3.34943 25.5443 3.48825 25.822 3.90474C25.822 3.90474 51.7828 48.7461 52.1993 49.4403C52.7546 50.1344 52.4769 50.4121 52.0605 50.5509ZM107.869 60.963C108.147 61.5183 108.563 61.796 107.453 62.0736C106.481 62.4901 73.9953 73.4575 73.3011 73.7351C72.607 74.0128 72.1905 74.1516 71.3575 72.9022C70.5246 71.6527 59.9736 53.4663 59.9736 53.4663L94.5418 44.4425C95.3747 44.1648 95.6524 44.026 96.2077 44.859C96.763 45.8307 107.592 60.5465 107.869 60.963ZM110.091 36.5293C109.258 36.6681 96.6242 39.8612 96.6242 39.8612L86.2121 25.7007C85.9345 25.2842 85.6568 24.8677 86.3509 24.7289C87.0451 24.5901 98.8454 22.5077 99.4007 22.3688C99.9561 22.23 100.373 22.0912 101.067 23.063C101.761 23.896 110.646 35.2798 111.062 35.6963C111.479 36.1128 110.923 36.3905 110.091 36.5293Z" fill="#FB503B"/>
</g>
<defs>
<clipPath id="clip0_1180_17873">
<rect width="116.754" height="80" fill="white"/>
</clipPath>
</defs>
</svg>
