<?xml version="1.0" encoding="utf-8"?>
<!-- Generator: Adobe Illustrator 26.0.1, SVG Export Plug-In . SVG Version: 6.00 Build 0)  -->
<svg version="1.1" id="Layer_1" xmlns="http://www.w3.org/2000/svg" xmlns:xlink="http://www.w3.org/1999/xlink" x="0px" y="0px"
	 viewBox="0 0 258.4 40.9" style="enable-background:new 0 0 258.4 40.9;" xml:space="preserve">
<style type="text/css">
	.st0{fill:#6DC7F1;}
	.st1{fill:#2A2E30;}
	.st2{fill:#383636;}
	.st3{font-family:'ArialMT';}
	.st4{font-size:10.4125px;}
</style>
<g>
	<g id="Group_48" transform="translate(0 0)">
		<g id="Group_44" transform="translate(161.93 0.037)">
			<path id="Path_57" class="st0" d="M66.3,18.6v-6.5h6.1V9.3h-6.1V3.1H73V0.2h-9.4v21.3h9.7v-2.9L66.3,18.6z M51,18.6V3.1h2.1
				c2,0,3.1,1.3,3.1,3.8v7.9c0,2.5-1.1,3.9-3.1,3.9H51z M48.3,21.5H53c3.7,0,5.9-2.5,5.9-6.7v-8c0-4.2-2.2-6.6-5.9-6.6h-4.8V21.5z
				 M42.4,21.8c1,0,1.7-0.7,1.7-1.9c0.1-0.9-0.6-1.7-1.5-1.8c-0.9-0.1-1.7,0.6-1.8,1.5c0,0.1,0,0.2,0,0.3
				C40.7,21.1,41.5,21.8,42.4,21.8 M25.2,21.5h2.7v-8.2c0-2-0.2-5.2-0.3-7.3l0.1-0.1c0.5,1.4,1.3,3.6,1.9,5.2l4.3,10.4h2.8V0.2h-2.7
				v8.3c0,1.9,0.2,5.1,0.4,7.2l-0.1,0.1c-0.5-1.3-1.2-3.2-1.7-4.7L28,0.2h-2.8V21.5z M17.3,21.5h2.8V0.2h-2.8V21.5z M6.2,18.6v-6.5
				h6.1V9.3H6.2V3.1h6.6V0.2H3.4v21.3h9.7v-2.9L6.2,18.6z M-4.4,0.2v9.1h-5.5V0.2h-2.8v21.3h2.8v-9.4h5.5v9.4h2.8V0.2H-4.4z
				 M-22.5,21.9c3.6,0,5.6-2.3,5.8-6.5h-2.7c-0.2,2.4-1.2,3.6-3,3.6c-1.7,0-2.7-1.2-2.7-3.7V6.5c0-2.6,1.1-3.8,2.7-3.8
				c1.9,0,2.8,1.1,3,3.6h2.7c-0.2-4.3-2.2-6.6-5.7-6.6c-3.4,0-5.6,2.4-5.6,6.6v8.7C-28,19.5-25.8,21.9-22.5,21.9 M-37.1,21.9
				c3.6,0,5.6-2.7,5.6-5.9c0-6.6-8.1-6.6-8.1-10.8c0-1.5,0.9-2.5,2.5-2.5c1.5,0,2.5,1,2.5,3h2.8c-0.1-3.7-2.1-6-5.4-6
				c-3.2,0-5.3,2.3-5.3,5.4c0,6.3,8.1,6.6,8.1,10.8c0,1.7-0.9,2.9-2.7,2.9c-1.7,0-2.8-1.1-2.8-3.2h-2.8
				C-42.7,19.6-40.5,21.9-37.1,21.9 M-45.1,0.2h-10.8v2.9h4v18.4h2.8V3.1h4L-45.1,0.2z M-64.9,21.8c3.4,0,5.7-2.4,5.7-6.8V0.2H-62
				V15c0,2.6-1.1,3.8-2.8,3.8s-2.8-1.2-2.8-3.8V0.2h-2.8V15C-70.6,19.4-68.3,21.8-64.9,21.8 M-80.3,21.8c3.4,0,5.6-2.3,5.7-6.5V9.9
				h-5.8v2.7h3v2.7c0,2.4-1.1,3.6-2.9,3.6c-1.8,0-2.9-1.1-2.9-3.7V6.5c0-2.6,1-3.7,2.8-3.7s2.7,1.1,2.9,3.6h2.7
				c-0.2-4.3-2.2-6.5-5.6-6.5c-3.5,0-5.7,2.3-5.7,6.6v8.7C-86,19.5-83.7,21.8-80.3,21.8"/>
		</g>
		<g id="Group_45" transform="translate(0 58.166)">
			<path id="Path_58" class="st1" d="M70.9-28.3c0-1.1-0.9-1.9-2-1.9c-0.2,0-0.3,0-0.5,0.1c-3,0.8-4.8,3.2-6.2,5.2
				c-1.9,2.5-3.1,4-5.6,4c-2.5,0-3.8-1.5-5.7-4.1c-1.9-2.5-4.2-5.6-8.7-5.6c-4.5,0-6.8,3.1-8.6,5.5c-1.9,2.5-3.1,4-5.6,4
				c-2.5,0-3.8-1.5-5.7-4.1c-1.9-2.5-4.2-5.6-8.7-5.6S6.8-27.8,5-25.3c-1.5,2-2.6,3.3-4.2,3.8c-0.8,0.2-1.4,1-1.4,1.9
				c0,1.1,0.9,1.9,2,1.9c0.2,0,0.3,0,0.5-0.1C4.8-18.6,6.6-21,8-23c1.9-2.5,3.1-4,5.6-4c2.5,0,3.8,1.5,5.7,4.1
				c1.9,2.5,4.2,5.6,8.7,5.6c4.6,0.1,6.8-3,8.6-5.5c1.9-2.5,3.1-4,5.6-4c2.5,0.1,3.8,1.5,5.7,4.1c1.9,2.5,4.2,5.6,8.7,5.6
				c4.5,0.1,6.8-3,8.6-5.5c1.5-2,2.6-3.3,4.2-3.8C70.4-26.7,70.9-27.4,70.9-28.3"/>
		</g>
		<g id="Group_46" transform="translate(30.062 0.002)">
			<path id="Path_59" class="st1" d="M29.2,22h2.9v-8.5c0-2.1-0.2-5.4-0.4-7.6l0.1-0.1c0.5,1.4,1.3,3.8,1.9,5.4L38.2,22h2.9V-0.2
				h-2.9v8.6c0,2,0.2,5.3,0.4,7.5L38.5,16c-0.5-1.3-1.2-3.4-1.9-4.9L32.1-0.2h-2.9V22z M20.5,22h2.9V-0.2h-2.9V22z M7.8,14.5l1.2-6
				C9.3,7.1,9.6,5,9.7,3.8h0.1C10,5,10.3,7.1,10.5,8.6l1.2,6H7.8z M13.4,22h3l-5-22.2H8.2L3.2,22h3l0.9-4.5h5.3L13.4,22z M-3.8-0.2
				l-3.4,9c-0.5,1.3-1.1,3.4-1.4,4.4h-0.1c-0.3-1-1-3.1-1.4-4.4l-3.4-9h-2.9V22h2.8v-8.6c-0.1-2.5-0.2-4.8-0.3-7.2l0.1-0.1
				c0.6,1.7,1.2,3.8,2,5.8l1.7,5h2.9l1.7-5c0.7-2,1.4-4.1,2-5.8l0.1,0.1c-0.1,2.3-0.2,4.6-0.2,7.2V22h2.8V-0.2H-3.8z"/>
		</g>
		<text transform="matrix(1 0 0 1 75.4302 35.7847)" class="st2 st3 st4">Dein Gutscheinportal für Main-Spessart</text>
	</g>
</g>
</svg>
