<svg width="40" height="50" viewBox="0 0 40 50" fill="none" xmlns="http://www.w3.org/2000/svg">
<path d="M19.5455 10.9091C17.8373 10.9091 16.1676 11.4156 14.7473 12.3646C13.3271 13.3136 12.2202 14.6624 11.5665 16.2405C10.9128 17.8186 10.7418 19.555 11.075 21.2303C11.4083 22.9056 12.2308 24.4445 13.4386 25.6523C14.6464 26.8601 16.1853 27.6826 17.8606 28.0159C19.5359 28.3491 21.2724 28.1781 22.8504 27.5244C24.4285 26.8707 25.7774 25.7638 26.7263 24.3436C27.6753 22.9233 28.1818 21.2536 28.1818 19.5455C28.1818 17.2549 27.2719 15.0583 25.6523 13.4386C24.0327 11.819 21.836 10.9091 19.5455 10.9091ZM19.5455 25.4545C18.3767 25.4545 17.2343 25.108 16.2625 24.4587C15.2908 23.8094 14.5334 22.8865 14.0862 21.8068C13.6389 20.727 13.5219 19.5389 13.7499 18.3926C13.9779 17.2464 14.5407 16.1935 15.3671 15.3671C16.1935 14.5407 17.2464 13.9779 18.3926 13.7499C19.5389 13.5219 20.727 13.6389 21.8068 14.0862C22.8865 14.5334 23.8094 15.2908 24.4587 16.2625C25.108 17.2343 25.4545 18.3767 25.4545 19.5455C25.4486 21.1108 24.8241 22.6103 23.7172 23.7172C22.6103 24.8241 21.1108 25.4486 19.5455 25.4545ZM19.5455 0C14.3635 0.00601502 9.39555 2.06719 5.73137 5.73137C2.06719 9.39556 0.00601502 14.3635 0 19.5455C0 26.5682 3.27273 34.0227 9.43182 41.1136C12.2093 44.336 15.3429 47.2332 18.7727 49.75C18.9989 49.9099 19.2685 49.9971 19.5455 50C19.8289 49.9935 20.1047 49.9068 20.3409 49.75C23.755 47.2225 26.88 44.3262 29.6591 41.1136C35.8409 34.0227 39.0909 26.5682 39.0909 19.5455C39.0849 14.3635 37.0237 9.39556 33.3595 5.73137C29.6954 2.06719 24.7274 0.00601502 19.5455 0ZM19.5455 46.9318C16.1364 44.2955 2.72727 33.0909 2.72727 19.5455C2.72727 15.085 4.49918 10.8072 7.6532 7.6532C10.8072 4.49918 15.085 2.72727 19.5455 2.72727C24.0059 2.72727 28.2837 4.49918 31.4377 7.6532C34.5917 10.8072 36.3636 15.085 36.3636 19.5455C36.3636 33.0909 22.9545 44.2955 19.5455 46.9318Z" fill="#FF6C37"/>
</svg>
