<?xml version="1.0" encoding="utf-8"?>
<!-- Generator: Adobe Illustrator 26.0.1, SVG Export Plug-In . SVG Version: 6.00 Build 0)  -->
<svg version="1.1" id="Layer_1" xmlns="http://www.w3.org/2000/svg" xmlns:xlink="http://www.w3.org/1999/xlink" x="0px" y="0px"
	 viewBox="0 0 1103 1130.6" style="enable-background:new 0 0 1103 1130.6;" xml:space="preserve">
<style type="text/css">
	.st0{fill:url(#SVGID_1_);}
	.st1{fill:url(#SVGID_00000141449670627093648550000004115633330889765267_);}
	.st2{fill:url(#SVGID_00000006689522205012786410000011580866940152663691_);}
</style>
<linearGradient id="SVGID_1_" gradientUnits="userSpaceOnUse" x1="304.8792" y1="829.582" x2="305.0251" y2="829.582" gradientTransform="matrix(539.015 -318.4933 318.4933 539.015 -428315.9375 -349075.3438)">
	<stop  offset="0" style="stop-color:#909CA9"/>
	<stop  offset="1" style="stop-color:#EDEDEE"/>
</linearGradient>
<path class="st0" d="M697.9,507.6l-217.6,71.3l-189.5,83.7l-52.9,14c-13.5,13-27.5,25.9-43.2,38.9c-16.7,14.6-32.4,27.5-44.3,37.3
	c-13.5,10.8-32.9,30.2-43.2,42.7c-15.1,18.9-27,38.9-31.9,54c-9.2,27.5-4.9,55.6,13,81.5c22.1,32.9,67,66.4,118.8,89.1
	c26.5,11.9,71.3,26.5,104.8,35.1c55.6,14,163.6,29.7,223,31.9c11.9,0.5,28.1,0.5,28.6,0c1.1-1.1,10.8-18.4,21.1-40.5
	c36.7-74.5,62.6-144.7,77.2-204.1c8.6-36.2,15.1-84.2,20-141.5c1.1-16.2,1.6-69.7,0.5-87.5c-1.6-29.7-4.3-53.5-8.1-77.2
	c-0.5-3.2-1.1-6.5-0.5-6.5c0.5-0.5,2.7-1.1,29.7-8.6L697.9,507.6z M648.2,536.7c2.2,0,7,50.8,8.6,82.6c0.5,6.5,0,11.3,0,11.3
	c-1.1,0-27.5-15.7-47-27.5c-16.2-10.3-47.5-31.3-52.4-35.1c-1.6-1.1-1.6-1.1,11.9-5.9C592.1,554,646.1,536.7,648.2,536.7z
	 M537,573.5c1.6,0,5.4,2.2,14.6,7.6c34,21.1,79.9,47,99.9,55.6c5.9,2.7,6.5,1.6-7,11.3c-29.7,20.5-67.5,40.5-112.9,60.5
	c-8.1,3.8-14.6,6.5-15.1,6.5c-0.5,0,0.5-4.3,2.2-9.2c10.8-41,17.3-82.6,17.8-115.6C535.4,573.5,535.4,573.5,537,573.5L537,573.5z
	 M514.3,582.1c1.1,1.1,0.5,37.8-1.1,48.1c-2.7,23.8-7.6,46.4-15.1,71.8c-1.6,5.9-3.2,11.3-3.8,11.3c-0.5,1.1-23.2-21.1-30.8-29.7
	c-13-14.6-22.7-29.7-30.2-44.3c-3.8-7.6-9.7-22.1-9.2-22.1C426.8,615,513.8,581.6,514.3,582.1L514.3,582.1z M406.8,624.2
	c1.1,0.5,2.2,3.2,2.7,5.9c5.4,14.6,17.3,35.6,27.5,48.6c11.3,14.6,25.9,30.8,37.8,41c3.8,3.2,7.6,6.5,8.1,7
	c1.1,1.1,1.1,1.1-25.4,10.8c-31.3,11.9-64.8,23.8-103.7,36.2c-9.2,3.2-18.4,5.9-27.5,9.2c-1.6,0.5-1.1-0.5,3.2-7
	c19.4-30.2,48.6-89.1,64.8-131.2c2.7-7,5.4-14.6,5.9-16.2c0.5-2.2,1.6-3.2,3.8-4.3C405.2,624.7,406.3,624.2,406.8,624.2L406.8,624.2
	z M373.9,637.7c0.5,0.5-8.1,17.8-16.2,34c-16.2,31.3-33.5,61.6-56.7,98.8c-3.8,6.5-7.6,12.4-8.1,13c-1.1,1.1-1.1,1.1-3.8-4.3
	c-5.4-10.8-10.3-25.4-12.4-38.3c-2.7-13-2.2-35.1,1.1-49.1c2.2-10.3,2.2-10.3,7-12.4C304.8,669,372.8,637.2,373.9,637.7L373.9,637.7
	z M657.4,649.6v7c0,36.7-3.8,86.9-9.7,123.7c-1.1,6.5-1.6,11.9-2.2,11.9c0,0-4.9-1.1-10.3-2.7c-24.8-7.6-51.3-18.9-75.6-32.4
	c-16.2-8.6-39.4-23.2-38.3-23.8c0,0,7-3.8,15.1-8.1c32.4-16.7,63.2-35.1,90.2-52.9c10.3-6.5,25.4-17.8,28.6-20.5L657.4,649.6z
	 M249.7,698.2c0.5,0,0.5,1.1-0.5,7c-0.5,4.3-1.6,12.4-1.6,17.8c-1.1,23.8,2.7,41.6,14.6,65.9c3.2,6.5,5.9,12.4,5.9,12.4
	c-1.1,1.1-110.2,32.9-144.2,42.1c-10.3,2.7-18.9,5.4-20,5.4c-1.1,0.5-1.1,0-1.1-2.7c3.8-24.3,22.1-55.6,48.1-82.6
	c17.3-17.8,30.8-28.1,54-41.6C221.6,713.3,247,698.7,249.7,698.2C249.2,698.2,249.2,698.2,249.7,698.2L249.7,698.2z M506.2,744.1
	c0,0,4.3,2.2,8.6,4.9c35.1,20.5,84.2,39.4,125.8,49.1l3.8,1.1l-5.4,2.7c-22.1,12.4-94,42.1-167.4,69.7c-10.8,3.8-21.1,8.1-23.2,8.6
	c-2.2,1.1-3.8,1.1-3.8,1.1s2.7-5.9,6.5-13c20.5-38.3,41-85.3,51.8-117.7C505.1,746.8,506.2,744.1,506.2,744.1L506.2,744.1z
	 M480.3,752.7c0,0-1.1,3.8-2.7,7.6c-14.6,34.6-32.9,72.4-57.2,115c-5.9,10.8-11.3,19.4-11.3,19.4s-4.9-2.7-10.8-6.5
	c-35.1-21.6-65.9-47.5-85.9-73.4l-2.7-3.8l15.1-4.3c53.5-14.6,99.4-30.2,144.7-49.7C474.3,754.9,479.7,752.7,480.3,752.7
	L480.3,752.7z M642.8,809.4c0,3.8-8.1,37.8-15.1,62.1c-5.9,20.5-10.8,36.7-20,65.3c-3.8,12.4-7.6,22.7-7.6,22.7s-1.1,0-2.2-0.5
	c-48.6-8.6-92.9-21.1-133.9-37.8c-11.3-4.9-28.1-11.9-29.2-13c-0.5-0.5,9.7-4.9,22.1-10.3c75.1-32.9,152.3-69.7,179.3-85.9
	C639.6,810.5,642.3,809.4,642.8,809.4L642.8,809.4z M267.5,822.4c0.5,0.5-20.5,30.2-49.7,71.3c-10.3,14.6-22.1,31.3-26.5,37.3
	c-4.3,6.5-11.3,16.2-15.1,22.1l-7,10.8l-7.6-6.5c-8.6-7-23.8-22.7-30.8-31.3c-14-17.8-23.8-36.2-27.5-52.9c-1.6-8.1-1.6-11.9,0-12.4
	c2.7-0.5,46.4-10.8,87.5-20.5c22.7-5.4,49.1-11.3,58.9-14C259.4,824,267,822.4,267.5,822.4L267.5,822.4z M288.6,830.5l5.4,5.9
	c23.8,26.5,48.1,45.9,77.2,63.2c5.4,2.7,9.2,5.4,8.6,5.9c-1.1,1.1-101.5,36.7-148.5,52.4c-25.9,9.2-47.5,16.7-48.1,16.7l-3.2-2.2
	l-2.7-2.2l4.9-7c15.7-22.1,35.1-47,77.2-97.7L288.6,830.5z M419.8,924.4c0,0,7.6,2.7,16.2,5.9c21.6,8.1,38.3,13,61,18.9
	c28.1,7,68.6,14,92.3,16.2c3.8,0.5,5.4,0.5,4.9,1.1c-1.1,0.5-25.4,8.6-43.2,14.6c-28.1,8.6-114.5,34.6-185.2,54.5
	c-13,3.8-24.3,7-24.8,7c-1.6,0.5-7-1.1-7-1.6c0-0.5,3.8-5.4,8.6-10.8c23.8-28.1,47-59.9,67-89.6
	C414.9,930.9,419.8,924.4,419.8,924.4L419.8,924.4z M390.6,925c0,0-11.3,18.9-31.9,51.3c-8.6,13.5-18.4,29.2-22.1,34.6
	c-3.2,5.4-8.1,13.5-10.8,18.4l-4.9,8.6l-2.7-0.5c-5.9-1.6-47.5-16.2-58.3-20.5c-13.5-5.4-27.5-11.9-38.3-17.8
	c-13-7-29.7-17.8-28.1-17.8c0.5,0,22.7-6.5,50.2-13.5c71.8-19.4,111.8-30.8,138.2-39.4C386.3,926.1,390.6,925,390.6,925L390.6,925z
	 M595.3,973c1.1,1.6-25.9,75.6-35.6,98.8c-2.2,5.4-2.7,6.5-4.3,6.5c-2.7,0-41.6-5.4-64.8-9.2c-41-6.5-109.6-18.4-126.9-22.1
	l-3.8-1.1l24.3-5.4c52.9-11.9,77.8-18.4,103.7-25.9c32.4-9.7,64.3-22.1,96.7-37.3C589.9,975.2,594.2,973,595.3,973z"/>
<linearGradient id="SVGID_00000028306772145023177140000011887271028876052640_" gradientUnits="userSpaceOnUse" x1="302.4573" y1="840.2328" x2="302.6033" y2="840.2328" gradientTransform="matrix(433.7041 0 0 433.7041 -130940.6484 -364309.25)">
	<stop  offset="0" style="stop-color:#939FAB"/>
	<stop  offset="1" style="stop-color:#DCDEE1"/>
</linearGradient>
<path style="fill:url(#SVGID_00000028306772145023177140000011887271028876052640_);" d="M473.3,0.5c-3.8-0.5-62.1,20.5-99.9,35.6
	C322.6,56.7,283.2,76.7,258.9,94c-9.2,6.5-20.5,17.8-22.1,22.1c-0.5,1.6-1.1,3.8-1.1,5.4l22.1,21.1l52.4,16.7l124.7,22.1l142.6,24.3
	l1.6-12.4H578l-18.9-2.7l-3.8-6.5c-19.4-34-41-76.7-53.5-105.3c-9.7-22.1-18.9-48.1-23.8-66.4C475.4,1.1,474.9,0.5,473.3,0.5
	L473.3,0.5z M470.6,8.6c0.5,0,1.1,4.9,1.6,10.3c2.7,23.2,8.1,45.4,16.2,69.1c5.9,18.4,5.9,17.3-1.1,15.1
	c-16.7-4.9-91.8-17.8-146.3-25.4c-8.6-1.1-16.2-2.2-16.2-2.7c-0.5-0.5,39.4-21.6,56.7-29.7C404.1,35.1,466.2,9.7,470.6,8.6
	L470.6,8.6z M311.8,82.6l6.5,2.2c35.1,11.9,122.6,28.6,171.2,32.4c5.4,0.5,10.3,1.1,10.3,1.1s-4.3,2.7-10.3,5.4
	c-23.2,11.9-49.1,25.9-67,37.3c-5.4,3.2-10.3,5.9-10.8,5.9s-4.3-0.5-7.6-1.1l-6.5-1.1l-16.2-16.2c-29.2-28.1-51.8-49.7-60.5-58.3
	L311.8,82.6z M305.3,87.5l23.2,29.2c12.4,16.2,25.4,31.3,28.1,35.1c2.7,3.2,4.9,6.5,4.9,6.5c-0.5,0.5-33.5-5.9-50.8-9.7
	c-17.8-4.3-25.4-5.9-36.2-9.7l-9.2-2.7v-2.2c0-10.8,14-27.5,37.8-44.3L305.3,87.5z M502.4,126.9c0.5,0,1.6,1.6,3.2,5.9
	c5.4,12.4,23.2,45.4,27.5,51.8c1.1,2.2,3.8,2.2-19.4-1.6c-55.6-9.2-73.4-11.9-73.4-12.4c0,0,1.6-1.1,3.8-2.7
	c17.3-9.7,34.6-21.6,50.2-34.6C498.1,130.1,501.3,127.4,502.4,126.9C501.9,126.9,502.4,126.9,502.4,126.9z"/>
<radialGradient id="SVGID_00000181784048634437229400000010695307807724864392_" cx="308.854" cy="831.3634" r="0.146" gradientTransform="matrix(-552.9619 -83.0608 167.9883 -1105.9233 31680.7422 945471.1875)" gradientUnits="userSpaceOnUse">
	<stop  offset="0" style="stop-color:#EE352C"/>
	<stop  offset="1" style="stop-color:#A91D22"/>
</radialGradient>
<path style="fill:url(#SVGID_00000181784048634437229400000010695307807724864392_);" d="M237.8,113.4c0,0-3.8,5.9,0,14.6
	c2.2,5.4,8.6,11.9,15.7,18.4c0,0,73.4,71.3,82.1,81.5c40.5,47,58.3,92.9,59.9,156.1c1.1,41-6.5,76.7-25.9,118.3
	c-34,74.5-106.4,157.1-217.6,248.4l16.2-5.4c10.3-8.1,24.8-16.2,58.3-34.6c77.8-42.7,164.7-81.5,271.6-121.5
	c153.9-57.8,407.1-125.8,551.3-148l15.1-2.2l-2.2-3.8c-13-20.5-22.1-32.9-32.9-46.4c-31.3-39.4-69.7-70.7-116.6-97.2
	c-64.3-36.2-148-64.3-253.8-85.3c-20-3.8-63.7-11.3-99.4-16.7c-75.6-11.9-124.2-20-177.7-29.2c-19.4-3.2-48.1-8.1-67-12.4
	c-9.7-2.2-28.6-6.5-43.7-11.9C258.3,132.3,241.6,127.4,237.8,113.4L237.8,113.4z M280.5,155c0,0,2.7,1.1,6.5,2.2
	c6.5,2.2,14.6,4.9,23.8,7c7,2.2,14.6,3.8,21.6,5.9c9.7,2.7,18.4,4.9,18.4,4.9c1.1,1.1,17.8,54.5,23.2,74.5
	c2.2,7.6,3.8,14.6,3.8,14.6s-2.2-2.7-4.3-6.5c-19.4-34-49.7-68-84.8-96.1C283.7,157.7,280.5,155,280.5,155L280.5,155z M361.5,177.1
	c1.1,0,4.3,0.5,8.6,1.6c28.1,6.5,78.3,15.7,110.2,21.1c5.4,1.1,9.7,1.6,9.7,2.2c0,0.5-2.2,1.6-4.3,2.7c-5.4,2.7-27.5,15.7-34.6,20.5
	c-18.4,12.4-34.6,25.4-46.4,37.3l-8.6,8.6c0,0-1.1-2.7-1.6-6.5c-5.9-22.7-18.4-56.7-29.7-80.5C362.6,180.9,360.9,177.1,361.5,177.1
	C360.9,177.1,360.9,177.1,361.5,177.1L361.5,177.1z M503.5,204.1c1.1,0.5,2.7,5.9,5.9,18.4c5.9,23.8,8.6,50.8,8.1,75.6
	c-0.5,7-0.5,13.5-1.1,14l-0.5,1.6l-8.6-2.7c-17.8-5.4-46.4-14-70.7-21.1c-14-3.8-25.4-7-25.4-7.6c0-1.1,20.5-21.6,29.2-29.2
	C457.1,238.7,502.4,203.6,503.5,204.1L503.5,204.1z M514.8,205.7c0.5-0.5,68,11.3,98.8,17.3c22.7,4.3,56.2,11.3,58.3,12.4
	c1.1,0.5-2.7,2.2-13.5,7c-43.2,19.4-75.6,37.3-108,58.3c-8.6,5.4-15.7,10.3-15.7,10.3s-0.5-4.9-0.5-10.3c0-31.3-6.5-62.6-17.8-89.6
	C515.9,208.4,514.8,206.3,514.8,205.7z M689.8,240.3c0.5,0.5-1.6,14-3.8,21.6c-5.9,24.3-22.1,61-41.6,95c-3.2,5.9-6.5,10.8-7,11.3
	c-0.5,0-4.9-2.2-9.7-5.4c-18.9-11.3-41-21.6-64.3-31.3c-6.5-2.7-12.4-4.9-12.4-5.4c-1.1-1.1,51.8-36.2,79.9-52.9
	C653.1,259.7,689.2,239.7,689.8,240.3z M702.2,242.4c1.6,0,31.3,8.1,47,13c38.9,11.3,83.2,27.5,111.8,41l11.9,5.4l-8.6,2.2
	c-70.7,16.2-131.2,35.1-189.5,58.9c-4.9,2.2-9.2,3.8-9.2,3.8c-0.5,0,1.1-3.8,3.2-8.6c17.8-37.3,29.2-76.1,31.9-109.6
	C701.7,245.1,702.2,242.4,702.2,242.4L702.2,242.4z M404.1,311c0.5-0.5,23.2,4.9,35.6,8.6c18.9,5.4,58.3,18.4,58.3,19.4
	c0,0-4.3,3.8-9.7,8.6c-21.6,17.8-42.1,36.7-67,61c-7.6,7-13.5,13-14,13s-0.5-1.1-0.5-2.2c3.8-27.5,2.7-63.2-2.2-99.4
	C404.7,314.8,404.1,311,404.1,311L404.1,311z M884.7,311.6c0.5,0.5-10.8,17.3-17.3,27c-9.7,14-24.3,32.9-57.2,74
	c-17.3,21.6-36.7,46.4-43.2,54.5c-6.5,8.1-11.9,15.1-12.4,15.1c0,0-2.2-2.7-4.9-6.5c-18.4-27.5-40.5-51.8-66.4-73.4
	c-4.9-4.3-10.3-8.6-12.4-9.7c-1.6-1.1-3.2-2.7-3.2-2.7c0-0.5,28.1-12.4,49.1-21.1c37.3-15.1,88-33.5,125.8-44.8
	C863.1,317,884.7,311,884.7,311.6z M897.7,314.8c0.5,0,4.9,1.6,9.2,4.9c40,22.7,79.4,52.4,110.2,82.6c8.6,8.6,30.2,30.8,29.7,31.3
	c0,0-7.6,0.5-16.2,1.1c-69.1,5.4-157.7,20-243,40.5c-5.9,1.1-10.8,2.7-11.3,2.7c-0.5,0,5.9-6.5,14-14
	c50.2-48.1,72.9-78.8,99.9-132.8C893.9,321.8,897.1,315.3,897.7,314.8C897.1,314.8,897.1,314.8,897.7,314.8L897.7,314.8z M531,352.1
	c2.2,0.5,23.8,10.8,40,18.4c14.6,7.6,37.3,19.4,38.3,20c0,0-7.6,4.3-17.3,9.2c-30.8,15.7-57.2,30.2-85.3,47
	c-8.1,4.9-14.6,8.6-14.6,8.6c-0.5,0-0.5-0.5,3.8-8.6c14.6-27,26.5-59.4,33.5-90.7C530,353.7,530.5,352.1,531,352.1L531,352.1z
	 M510,356.4c0.5,0.5-4.9,20.5-8.6,31.9c-6.5,21.1-18.4,47-29.2,67c-2.7,4.9-6.5,11.3-8.6,15.1l-4.3,6.5l-9.2-8.6
	c-10.8-10.3-19.4-16.7-30.8-22.7c-4.3-2.2-8.1-4.3-8.1-4.9c0-1.1,28.1-27,49.7-45.4C476.5,381.8,509.4,355.8,510,356.4z
	 M640.7,409.8l8.1,5.4c18.4,11.9,40,28.1,56.7,42.1c9.2,7.6,27.5,23.8,31.3,28.1l2.2,2.2l-13.5,3.8
	c-75.6,21.1-133.4,39.4-201.4,64.3c-7.6,2.7-14,4.9-14.6,4.9c-1.1,0-1.6,1.1,15.1-14.6c43.2-40,82.1-84.2,110.7-126.9L640.7,409.8z
	 M606.1,418.5c0.5,0.5-22.1,31.9-35.6,50.2c-16.2,21.6-44.8,57.2-64.3,80.5c-8.1,9.7-15.1,17.8-15.7,17.8c-0.5,0-0.5-2.2-0.5-5.9
	c0-20-4.9-41-14-59.4c-3.8-7.6-4.3-9.2-3.8-10.3c3.2-2.7,50.8-30.2,81.5-46.4C573.7,434.1,605.6,417.9,606.1,418.5z M398.2,469.2
	c0.5,0,4.3,2.2,8.6,4.3c10.3,5.9,20,12.4,28.1,18.9c0.5,0.5-3.8,3.8-9.7,8.1c-15.7,11.3-39.4,29.2-52.9,40
	c-14.6,11.3-15.1,11.9-13.5,9.2c10.8-16.7,16.2-25.9,22.1-37.8c4.9-10.8,10.3-23.2,14-34.6C396,473,397.7,469.2,398.2,469.2
	L398.2,469.2z M453.8,513c1.1,0,1.6,1.1,6.5,8.1c9.2,14,16.7,32.9,18.4,48.1l0.5,3.2l-22.7,8.6c-40.5,15.7-77.8,31.3-102.6,42.7
	c-7,3.2-19.4,9.2-27.5,13c-8.1,4.3-14.6,7-14.6,7s4.9-3.8,11.3-8.6c49.1-35.6,91.8-75.1,123.7-113.9C450,516.8,453.3,513,453.8,513
	L453.8,513z M428.4,518.9c0.5,0.5-18.4,22.1-30.8,35.1c-31.9,32.4-63.2,57.8-102.1,82.6c-4.9,3.2-9.2,5.9-9.7,6.5
	c-1.1,0.5,0.5-1.1,17.3-19.4c10.8-11.9,18.9-21.6,28.6-33.5c6.5-8.1,7.6-9.2,16.2-15.7C371.7,556.2,427.4,518.4,428.4,518.9z"/>
</svg>
