<svg width="198" height="200" viewBox="0 0 198 200" fill="none" xmlns="http://www.w3.org/2000/svg">
<path d="M144.717 140.858L147.252 136.765L146.003 135.99C145.823 135.877 145.678 135.717 145.584 135.526C145.489 135.336 145.449 135.123 145.468 134.912C145.492 134.673 145.5 134.432 145.491 134.192C145.485 133.981 145.538 133.772 145.644 133.589C145.749 133.405 145.904 133.255 146.091 133.155L147.391 132.459L145.113 128.213L143.813 128.909C143.627 129.009 143.417 129.055 143.206 129.042C142.995 129.029 142.792 128.957 142.619 128.836C142.422 128.697 142.218 128.569 142.006 128.453C141.82 128.353 141.665 128.203 141.558 128.02C141.451 127.836 141.397 127.627 141.402 127.416L141.448 125.945L136.64 125.793L136.594 127.273C136.585 127.485 136.517 127.69 136.398 127.866C136.28 128.042 136.114 128.181 135.921 128.269C135.815 128.319 135.709 128.37 135.608 128.43C135.506 128.49 135.4 128.541 135.299 128.605C135.119 128.716 134.913 128.774 134.702 128.774C134.491 128.774 134.284 128.716 134.105 128.605L132.842 127.831L130.301 131.92L131.56 132.699C131.739 132.812 131.884 132.973 131.978 133.163C132.071 133.354 132.11 133.566 132.09 133.777C132.069 134.017 132.061 134.257 132.067 134.497C132.072 134.708 132.019 134.917 131.913 135.1C131.808 135.283 131.654 135.433 131.468 135.534L130.168 136.23L132.445 140.471L133.745 139.775C133.932 139.676 134.142 139.631 134.353 139.645C134.564 139.659 134.767 139.731 134.939 139.853C135.135 139.99 135.338 140.116 135.548 140.231C135.735 140.331 135.891 140.481 135.997 140.664C136.104 140.847 136.157 141.057 136.152 141.269L136.105 142.744L140.918 142.891L140.964 141.416C140.974 141.206 141.041 141.002 141.159 140.827C141.277 140.652 141.441 140.513 141.633 140.425L141.956 140.264L142.26 140.089C142.441 139.977 142.649 139.917 142.861 139.917C143.074 139.917 143.282 139.977 143.463 140.089L144.717 140.858ZM140.642 137.82C139.955 138.188 139.174 138.344 138.398 138.268C137.622 138.192 136.887 137.888 136.284 137.394C135.681 136.9 135.238 136.238 135.011 135.493C134.784 134.747 134.783 133.951 135.009 133.205C135.234 132.459 135.676 131.796 136.278 131.301C136.88 130.806 137.615 130.501 138.391 130.423C139.166 130.346 139.947 130.5 140.635 130.867C141.323 131.233 141.887 131.795 142.255 132.482C142.501 132.938 142.654 133.439 142.705 133.954C142.757 134.47 142.707 134.99 142.557 135.486C142.407 135.982 142.16 136.444 141.832 136.844C141.503 137.245 141.099 137.577 140.642 137.82Z" fill="#DBDBDB"/>
<path d="M18.8963 24.3362C16.2987 24.3362 13.7594 25.1065 11.5995 26.5496C9.43969 27.9928 7.75628 30.044 6.76221 32.4439C5.76814 34.8438 5.50805 37.4846 6.01482 40.0323C6.52159 42.5801 7.77247 44.9203 9.60928 46.7571C11.4461 48.5939 13.7863 49.8448 16.334 50.3516C18.8818 50.8583 21.5225 50.5982 23.9224 49.6042C26.3223 48.6101 28.3736 46.9267 29.8167 44.7668C31.2599 42.607 32.0302 40.0677 32.0302 37.4701C32.0308 35.7451 31.6915 34.037 31.0317 32.4432C30.3719 30.8495 29.4044 29.4014 28.1847 28.1817C26.965 26.9619 25.5169 25.9945 23.9232 25.3347C22.3294 24.6749 20.6213 24.3356 18.8963 24.3362ZM18.8963 43.6013C17.6826 43.6013 16.4961 43.2414 15.4869 42.5669C14.4778 41.8925 13.6913 40.9339 13.2271 39.8125C12.7628 38.691 12.6415 37.4571 12.8787 36.2667C13.1158 35.0763 13.7006 33.983 14.5592 33.1251C15.4178 32.2671 16.5116 31.6831 17.7021 31.4469C18.8927 31.2106 20.1265 31.3328 21.2476 31.7979C22.3687 32.2631 23.3267 33.0502 24.0004 34.0599C24.6741 35.0695 25.0331 36.2563 25.0322 37.4701C25.0322 38.2756 24.8735 39.0733 24.5651 39.8175C24.2567 40.5616 23.8046 41.2378 23.2348 41.8072C22.665 42.3766 21.9885 42.8281 21.2441 43.136C20.4997 43.4438 19.7019 43.602 18.8963 43.6013Z" fill="#407BFF"/>
<path d="M21.4226 24.8801H16.3701L16.6513 21.3027H21.1414L21.4226 24.8801Z" fill="#407BFF"/>
<path d="M11.8062 26.5812L8.23805 30.154L5.9054 27.4295L9.08168 24.2532L11.8062 26.5812Z" fill="#407BFF"/>
<path d="M6.21432 34.5842V39.6368L2.63696 39.3556V34.8654L6.21432 34.5842Z" fill="#407BFF"/>
<path d="M7.9153 44.196L11.488 47.7688L8.75893 50.1014L5.58264 46.9252L7.9153 44.196Z" fill="#407BFF"/>
<path d="M15.9183 49.7927H20.9662L20.6896 53.3701H16.1949L15.9183 49.7927Z" fill="#407BFF"/>
<path d="M25.5301 48.0915L29.1028 44.5188L31.4355 47.2479L28.2546 50.4242L25.5301 48.0915Z" fill="#407BFF"/>
<path d="M31.1267 40.0885V35.0405L34.6995 35.3171V39.8119L31.1267 40.0885Z" fill="#407BFF"/>
<path d="M29.4256 30.4767L25.8528 26.9039L28.5774 24.5713L31.7536 27.7522L29.4256 30.4767Z" fill="#407BFF"/>
<path d="M181.707 95.1641C179.11 95.1641 176.57 95.9344 174.411 97.3775C172.251 98.8207 170.567 100.872 169.573 103.272C168.579 105.672 168.319 108.313 168.826 110.86C169.333 113.408 170.584 115.748 172.42 117.585C174.257 119.422 176.597 120.673 179.145 121.179C181.693 121.686 184.334 121.426 186.734 120.432C189.133 119.438 191.185 117.755 192.628 115.595C194.071 113.435 194.841 110.896 194.841 108.298C194.842 106.573 194.503 104.865 193.843 103.271C193.183 101.677 192.216 100.229 190.996 99.0095C189.776 97.7898 188.328 96.8224 186.734 96.1626C185.141 95.5028 183.432 95.1635 181.707 95.1641ZM181.707 114.429C180.494 114.429 179.307 114.069 178.298 113.395C177.289 112.72 176.502 111.762 176.038 110.64C175.574 109.519 175.453 108.285 175.69 107.095C175.927 105.904 176.512 104.811 177.37 103.953C178.229 103.095 179.323 102.511 180.513 102.275C181.704 102.039 182.938 102.161 184.059 102.626C185.18 103.091 186.138 103.878 186.811 104.888C187.485 105.897 187.844 107.084 187.843 108.298C187.843 109.103 187.685 109.901 187.376 110.645C187.068 111.39 186.616 112.066 186.046 112.635C185.476 113.204 184.8 113.656 184.055 113.964C183.311 114.272 182.513 114.43 181.707 114.429Z" fill="#407BFF"/>
<path d="M184.211 95.708H179.158L179.439 92.1306H183.929L184.211 95.708Z" fill="#407BFF"/>
<path d="M174.594 97.4091L171.022 100.982L168.693 98.2527L171.87 95.0764L174.594 97.4091Z" fill="#407BFF"/>
<path d="M169.002 105.412V110.46L165.425 110.183V105.689L169.002 105.412Z" fill="#407BFF"/>
<path d="M170.704 115.024L174.276 118.597L171.547 120.925L168.371 117.748L170.704 115.024Z" fill="#407BFF"/>
<path d="M178.706 120.62H183.754L183.478 124.193H178.983L178.706 120.62Z" fill="#407BFF"/>
<path d="M188.318 118.919L191.891 115.347L194.219 118.071L191.043 121.247L188.318 118.919Z" fill="#407BFF"/>
<path d="M193.915 110.917V105.864L197.488 106.145V110.635L193.915 110.917Z" fill="#407BFF"/>
<path d="M192.214 101.3L188.641 97.7318L191.365 95.3992L194.542 98.5755L192.214 101.3Z" fill="#407BFF"/>
<path d="M139.005 35.7091H138.314V35.2481H138.544V35.0176H139.005V35.7091Z" fill="#EBEBEB"/>
<path d="M137.392 35.709H136.47V35.248H137.392V35.709ZM135.548 35.709H134.626V35.248H135.548V35.709ZM133.704 35.709H132.782V35.248H133.704V35.709ZM131.86 35.709H130.938V35.248H131.86V35.709ZM130.016 35.709H129.094V35.248H130.016V35.709ZM128.172 35.709H127.25V35.248H128.172V35.709ZM126.328 35.709H125.406V35.248H126.328V35.709ZM124.484 35.709H123.562V35.248H124.484V35.709ZM122.64 35.709H121.718V35.248H122.64V35.709ZM120.796 35.709H119.874V35.248H120.796V35.709ZM118.952 35.709H118.03V35.248H118.952V35.709ZM117.108 35.709H116.186V35.248H117.108V35.709ZM115.264 35.709H114.342V35.248H115.264V35.709ZM113.42 35.709H112.498V35.248H113.42V35.709ZM111.576 35.709H110.654V35.248H111.576V35.709ZM109.732 35.709H108.81V35.248H109.732V35.709ZM107.888 35.709H106.966V35.248H107.888V35.709Z" fill="#EBEBEB"/>
<path d="M106.067 35.7091H105.375V35.0176H105.836V35.2481H106.067V35.7091Z" fill="#EBEBEB"/>
<path d="M105.836 34.0956H105.375V33.1736H105.836V34.0956ZM105.836 32.2516H105.375V31.3296H105.836V32.2516ZM105.836 30.4076H105.375V29.4856H105.836V30.4076ZM105.836 28.5636H105.375V27.6416H105.836V28.5636ZM105.836 26.7196H105.375V25.7976H105.836V26.7196ZM105.836 24.8757H105.375V23.9537H105.836V24.8757ZM105.836 23.0317H105.375V22.1097H105.836V23.0317ZM105.836 21.1877H105.375V20.2657H105.836V21.1877ZM105.836 19.3437H105.375V18.4217H105.836V19.3437ZM105.836 17.4997H105.375V16.5777H105.836V17.4997ZM105.836 15.6557H105.375V14.7337H105.836V15.6557ZM105.836 13.8117H105.375V12.8897H105.836V13.8117ZM105.836 11.9677H105.375V11.0457H105.836V11.9677ZM105.836 10.1237H105.375V9.20167H105.836V10.1237ZM105.836 8.27967H105.375V7.35767H105.836V8.27967ZM105.836 6.43567H105.375V5.51368H105.836V6.43567ZM105.836 4.59168H105.375V3.66968H105.836V4.59168Z" fill="#407BFF"/>
<path d="M105.836 2.77524H105.375V2.08374H106.067V2.54474H105.836V2.77524Z" fill="#EBEBEB"/>
<path d="M137.392 2.54474H136.47V2.08374H137.392V2.54474ZM135.548 2.54474H134.626V2.08374H135.548V2.54474ZM133.704 2.54474H132.782V2.08374H133.704V2.54474ZM131.86 2.54474H130.938V2.08374H131.86V2.54474ZM130.016 2.54474H129.094V2.08374H130.016V2.54474ZM128.172 2.54474H127.25V2.08374H128.172V2.54474ZM126.328 2.54474H125.406V2.08374H126.328V2.54474ZM124.484 2.54474H123.562V2.08374H124.484V2.54474ZM122.64 2.54474H121.718V2.08374H122.64V2.54474ZM120.796 2.54474H119.874V2.08374H120.796V2.54474ZM118.952 2.54474H118.03V2.08374H118.952V2.54474ZM117.108 2.54474H116.186V2.08374H117.108V2.54474ZM115.264 2.54474H114.342V2.08374H115.264V2.54474ZM113.42 2.54474H112.498V2.08374H113.42V2.54474ZM111.576 2.54474H110.654V2.08374H111.576V2.54474ZM109.732 2.54474H108.81V2.08374H109.732V2.54474ZM107.888 2.54474H106.966V2.08374H107.888V2.54474Z" fill="#407BFF"/>
<path d="M139.005 2.77524H138.544V2.54474H138.314V2.08374H139.005V2.77524Z" fill="#EBEBEB"/>
<path d="M139 34.0956H138.539V33.1736H139V34.0956ZM139 32.2516H138.539V31.3296H139V32.2516ZM139 30.4076H138.539V29.4856H139V30.4076ZM139 28.5636H138.539V27.6416H139V28.5636ZM139 26.7196H138.539V25.7976H139V26.7196ZM139 24.8757H138.539V23.9537H139V24.8757ZM139 23.0317H138.539V22.1097H139V23.0317ZM139 21.1877H138.539V20.2657H139V21.1877ZM139 19.3437H138.539V18.4217H139V19.3437ZM139 17.4997H138.539V16.5777H139V17.4997ZM139 15.6557H138.539V14.7337H139V15.6557ZM139 13.8117H138.539V12.8897H139V13.8117ZM139 11.9677H138.539V11.0457H139V11.9677ZM139 10.1237H138.539V9.20167H139V10.1237ZM139 8.27967H138.539V7.35767H139V8.27967ZM139 6.43567H138.539V5.51368H139V6.43567ZM139 4.59168H138.539V3.66968H139V4.59168Z" fill="#407BFF"/>
<path d="M107.676 33.4133H103.54V37.5485H107.676V33.4133Z" fill="white"/>
<path d="M107.901 37.7743H103.292V33.1643H107.901V37.7743ZM103.753 37.3133H107.44V33.6253H103.753V37.3133Z" fill="white"/>
<path d="M107.694 16.8311H103.559V20.9662H107.694V16.8311Z" fill="white"/>
<path d="M107.901 21.1923H103.292V16.5823H107.901V21.1923ZM103.753 20.7313H107.44V17.0433H103.753V20.7313Z" fill="white"/>
<path d="M107.694 0.244385H103.559V4.37955H107.694V0.244385Z" fill="#407BFF"/>
<path d="M107.901 4.61H103.292V0H107.901V4.61ZM103.753 4.149H107.44V0.460999H103.753V4.149Z" fill="white"/>
<path d="M140.858 33.4133H136.723V37.5485H140.858V33.4133Z" fill="#407BFF"/>
<path d="M141.07 37.7743H136.46V33.1643H141.07V37.7743ZM136.921 37.3133H140.609V33.6253H136.921V37.3133Z" fill="white"/>
<path d="M140.858 16.8311H136.723V20.9662H140.858V16.8311Z" fill="#407BFF"/>
<path d="M141.07 21.1923H136.46V16.5823H141.07V21.1923ZM136.921 20.7313H140.609V17.0433H136.921V20.7313Z" fill="white"/>
<path d="M140.858 0.244385H136.723V4.37955H140.858V0.244385Z" fill="#407BFF"/>
<path d="M141.07 4.61H136.46V0H141.07V4.61ZM136.921 4.149H140.609V0.460999H136.921V4.149Z" fill="white"/>
<path d="M124.276 0.244385H120.141V4.37955H124.276V0.244385Z" fill="#407BFF"/>
<path d="M124.488 4.61H119.878V0H124.488V4.61ZM120.339 4.149H124.027V0.460999H120.339V4.149Z" fill="white"/>
<path d="M124.258 33.4133H120.123V37.5485H124.258V33.4133Z" fill="white"/>
<path d="M124.488 37.7743H119.878V33.1643H124.488V37.7743ZM120.339 37.3133H124.027V33.6253H120.339V37.3133Z" fill="#EBEBEB"/>
<path d="M35.709 158.607H35.0175V158.146H35.248V157.915H35.709V158.607Z" fill="#EBEBEB"/>
<path d="M34.1001 158.607H33.1781V158.146H34.1001V158.607ZM32.2561 158.607H31.3341V158.146H32.2561V158.607ZM30.4121 158.607H29.4901V158.146H30.4121V158.607ZM28.5681 158.607H27.6461V158.146H28.5681V158.607ZM26.7241 158.607H25.8021V158.146H26.7241V158.607ZM24.8801 158.607H23.9581V158.146H24.8801V158.607ZM23.0361 158.607H22.1141V158.146H23.0361V158.607ZM21.1921 158.607H20.2701V158.146H21.1921V158.607ZM19.3481 158.607H18.4261V158.146H19.3481V158.607ZM17.5041 158.607H16.5821V158.146H17.5041V158.607ZM15.6601 158.607H14.7381V158.146H15.6601V158.607ZM13.8161 158.607H12.8941V158.146H13.8161V158.607ZM11.9721 158.607H11.0501V158.146H11.9721V158.607ZM10.1281 158.607H9.20613V158.146H10.1281V158.607ZM8.28413 158.607H7.36213V158.146H8.28413V158.607ZM6.44013 158.607H5.51813V158.146H6.44013V158.607ZM4.59613 158.607H3.67413V158.146H4.59613V158.607Z" fill="#407BFF"/>
<path d="M2.77524 158.607H2.08374V157.915H2.54474V158.146H2.77524V158.607Z" fill="#EBEBEB"/>
<path d="M2.54474 156.993H2.08374V156.071H2.54474V156.993ZM2.54474 155.149H2.08374V154.227H2.54474V155.149ZM2.54474 153.305H2.08374V152.383H2.54474V153.305ZM2.54474 151.461H2.08374V150.539H2.54474V151.461ZM2.54474 149.617H2.08374V148.695H2.54474V149.617ZM2.54474 147.773H2.08374V146.851H2.54474V147.773ZM2.54474 145.929H2.08374V145.007H2.54474V145.929ZM2.54474 144.085H2.08374V143.163H2.54474V144.085ZM2.54474 142.241H2.08374V141.319H2.54474V142.241ZM2.54474 140.397H2.08374V139.475H2.54474V140.397ZM2.54474 138.553H2.08374V137.631H2.54474V138.553ZM2.54474 136.709H2.08374V135.787H2.54474V136.709ZM2.54474 134.865H2.08374V133.943H2.54474V134.865ZM2.54474 133.021H2.08374V132.099H2.54474V133.021ZM2.54474 131.177H2.08374V130.255H2.54474V131.177ZM2.54474 129.333H2.08374V128.411H2.54474V129.333ZM2.54474 127.489H2.08374V126.567H2.54474V127.489Z" fill="#407BFF"/>
<path d="M2.54474 125.668H2.08374V124.977H2.77524V125.438H2.54474V125.668Z" fill="#EBEBEB"/>
<path d="M34.1001 125.438H33.1781V124.977H34.1001V125.438ZM32.2561 125.438H31.3341V124.977H32.2561V125.438ZM30.4121 125.438H29.4901V124.977H30.4121V125.438ZM28.5681 125.438H27.6461V124.977H28.5681V125.438ZM26.7241 125.438H25.8021V124.977H26.7241V125.438ZM24.8801 125.438H23.9581V124.977H24.8801V125.438ZM23.0361 125.438H22.1141V124.977H23.0361V125.438ZM21.1921 125.438H20.2701V124.977H21.1921V125.438ZM19.3481 125.438H18.4261V124.977H19.3481V125.438ZM17.5041 125.438H16.5821V124.977H17.5041V125.438ZM15.6601 125.438H14.7381V124.977H15.6601V125.438ZM13.8161 125.438H12.8941V124.977H13.8161V125.438ZM11.9721 125.438H11.0501V124.977H11.9721V125.438ZM10.1281 125.438H9.20613V124.977H10.1281V125.438ZM8.28413 125.438H7.36213V124.977H8.28413V125.438ZM6.44013 125.438H5.51813V124.977H6.44013V125.438ZM4.59613 125.438H3.67413V124.977H4.59613V125.438Z" fill="#407BFF"/>
<path d="M35.709 125.668H35.248V125.438H35.0175V124.977H35.709V125.668Z" fill="#EBEBEB"/>
<path d="M35.709 156.993H35.248V156.071H35.709V156.993ZM35.709 155.149H35.248V154.227H35.709V155.149ZM35.709 153.305H35.248V152.383H35.709V153.305ZM35.709 151.461H35.248V150.539H35.709V151.461ZM35.709 149.617H35.248V148.695H35.709V149.617ZM35.709 147.773H35.248V146.851H35.709V147.773ZM35.709 145.929H35.248V145.007H35.709V145.929ZM35.709 144.085H35.248V143.163H35.709V144.085ZM35.709 142.241H35.248V141.319H35.709V142.241ZM35.709 140.397H35.248V139.475H35.709V140.397ZM35.709 138.553H35.248V137.631H35.709V138.553ZM35.709 136.709H35.248V135.787H35.709V136.709ZM35.709 134.865H35.248V133.943H35.709V134.865ZM35.709 133.021H35.248V132.099H35.709V133.021ZM35.709 131.177H35.248V130.255H35.709V131.177ZM35.709 129.333H35.248V128.411H35.709V129.333ZM35.709 127.489H35.248V126.567H35.709V127.489Z" fill="#407BFF"/>
<path d="M4.38413 156.306H0.248962V160.442H4.38413V156.306Z" fill="#407BFF"/>
<path d="M4.60993 160.672H-6.10352e-05V156.062H4.60993V160.672ZM0.460938 160.211H4.14893V156.523H0.460938V160.211Z" fill="white"/>
<path d="M4.39786 139.724H0.262695V143.86H4.39786V139.724Z" fill="#407BFF"/>
<path d="M4.60993 144.09H-6.10352e-05V139.48H4.60993V144.09ZM0.460938 143.629H4.14893V139.941H0.460938V143.629Z" fill="white"/>
<path d="M4.39786 123.142H0.262695V127.277H4.39786V123.142Z" fill="#407BFF"/>
<path d="M4.60993 127.503H-6.10352e-05V122.893H4.60993V127.503ZM0.460938 127.042H4.14893V123.354H0.460938V127.042Z" fill="white"/>
<path d="M37.5668 156.306H33.4316V160.442H37.5668V156.306Z" fill="#407BFF"/>
<path d="M37.7789 160.672H33.1689V156.062H37.7789V160.672ZM33.6299 160.211H37.3179V156.523H33.6299V160.211Z" fill="white"/>
<path d="M37.5668 139.724H33.4316V143.86H37.5668V139.724Z" fill="#407BFF"/>
<path d="M37.7789 144.09H33.1689V139.48H37.7789V144.09ZM33.6299 143.629H37.3179V139.941H33.6299V143.629Z" fill="white"/>
<path d="M37.5668 123.142H33.4316V127.277H37.5668V123.142Z" fill="#407BFF"/>
<path d="M37.7789 127.503H33.1689V122.893H37.7789V127.503ZM33.6299 127.042H37.3179V123.354H33.6299V127.042Z" fill="white"/>
<path d="M20.9847 123.142H16.8495V127.277H20.9847V123.142Z" fill="#407BFF"/>
<path d="M21.1921 127.503H16.5822V122.893H21.1921V127.503ZM17.0432 127.042H20.7311V123.354H17.0432V127.042Z" fill="white"/>
<path d="M20.9662 156.306H16.8311V160.442H20.9662V156.306Z" fill="#407BFF"/>
<path d="M21.1921 160.672H16.5822V156.062H21.1921V160.672ZM17.0432 160.211H20.7311V156.523H17.0432V160.211Z" fill="white"/>
<path d="M98.5829 200C150.267 200 192.166 196.033 192.166 191.139C192.166 186.246 150.267 182.279 98.5829 182.279C46.8985 182.279 5 186.246 5 191.139C5 196.033 46.8985 200 98.5829 200Z" fill="white" fill-opacity="0.71"/>
<path d="M97.727 116.029C98.1117 118.692 97.974 121.404 97.3214 124.013C97.0148 125.223 96.6061 126.404 96.0997 127.545C95.4635 129.006 94.7997 130.435 94.961 132.035C95.1132 132.136 94.583 132.118 94.5646 131.966C90.2957 129.532 84.8144 129.084 81.5275 125.106C79.9693 123.225 79.181 120.837 78.8122 118.449C78.4066 115.849 78.2959 112.973 78.9644 110.409C79.5314 108.243 80.8084 106.15 82.8321 105.089C84.8559 104.029 87.6865 104.084 89.9039 104.771C94.6752 106.256 97.0494 111.41 97.727 116.029Z" fill="#FFC727"/>
<path d="M99.9214 147.658C99.336 145.713 98.7551 143.772 98.1558 141.831C96.9849 138.032 95.7632 134.252 94.4171 130.513C93.6057 128.288 92.7529 126.069 91.8586 123.857C91.9565 122.466 92.1257 121.081 92.3657 119.708C92.7252 118.053 93.2462 116.453 93.7487 114.83C93.7809 114.733 93.6196 114.678 93.5781 114.775C92.6192 117.006 91.3653 119.846 91.333 122.51C90.2912 120.024 89.1725 117.573 87.9769 115.158C87.8397 113.116 87.903 111.065 88.166 109.035C88.166 108.943 88.0369 108.916 88.023 109.008C87.6569 110.784 87.516 112.599 87.6035 114.411C86.6815 112.599 85.718 110.81 84.6854 109.045C84.5932 108.883 84.3765 109.045 84.4549 109.206C86.0638 112.295 87.5528 115.453 88.9497 118.652C86.981 116.948 84.7084 115.631 82.2513 114.77C82.1453 114.733 82.0623 114.89 82.173 114.932C84.8544 116.086 87.3072 117.711 89.4153 119.731C90.4202 122.073 91.3776 124.433 92.2873 126.812C89.6135 124.193 85.9578 122.469 82.4173 121.542C82.2974 121.51 82.2652 121.694 82.3804 121.731C86.4787 122.967 89.6596 125.286 92.7713 128.075C93.1371 129.037 93.492 130.002 93.8362 130.97C95.1609 134.63 96.4178 138.318 97.6072 142.034C98.1696 143.807 98.7275 145.587 99.2807 147.372C99.88 149.285 100.346 151.309 101.125 153.162C101.198 153.337 101.516 153.296 101.475 153.084C101.049 151.25 100.53 149.439 99.9214 147.658Z" fill="#263238"/>
<path d="M92.8312 112.286C92.079 113.45 91.5607 114.75 91.3053 116.112C91.3053 116.149 91.356 116.172 91.3698 116.135C91.8453 114.847 92.4027 113.59 93.0387 112.373C93.0894 112.254 92.905 112.175 92.8312 112.286Z" fill="#263238"/>
<path d="M85.2109 121.183C84.022 120.522 82.722 120.085 81.3754 119.892C81.3694 119.894 81.3643 119.899 81.3607 119.904C81.357 119.909 81.3551 119.916 81.3551 119.922C81.3551 119.929 81.357 119.935 81.3607 119.94C81.3643 119.945 81.3694 119.95 81.3754 119.952C81.9885 120.206 82.6385 120.385 83.2609 120.625C83.8832 120.865 84.501 121.16 85.1325 121.381C85.1566 121.384 85.1808 121.378 85.2014 121.366C85.2221 121.353 85.2381 121.334 85.247 121.312C85.2559 121.289 85.2572 121.265 85.2506 121.241C85.2441 121.218 85.2302 121.197 85.2109 121.183Z" fill="#263238"/>
<path d="M83.0626 110.483C82.6768 110.188 82.263 109.932 81.8272 109.718C81.8199 109.713 81.8118 109.71 81.8034 109.709C81.7949 109.707 81.7863 109.708 81.7779 109.71C81.7611 109.714 81.7464 109.724 81.7373 109.739C81.7281 109.753 81.7251 109.771 81.729 109.788C81.7329 109.805 81.7433 109.819 81.758 109.829C82.1378 110.129 82.5453 110.393 82.9751 110.617C83.0534 110.663 83.141 110.534 83.0626 110.483Z" fill="#263238"/>
<path d="M112.133 130.541C109.054 131.463 105.961 132.298 102.886 133.201C102.618 133.28 97.4136 123.313 99.2945 118.177C101.032 113.424 105.011 109.879 109.755 108.252C111.954 107.505 114.655 106.869 116.974 107.39C119.039 107.851 120.496 109.538 121.169 111.479C122.091 114.116 121.777 117.264 121.28 119.957C120.883 122.484 119.84 124.867 118.251 126.872C116.614 128.817 114.531 129.827 112.133 130.541Z" fill="#FFC727"/>
<path d="M116.591 121.068C114.645 122.016 112.627 122.81 110.557 123.442C109.176 123.812 107.83 124.3 106.532 124.899C107.832 122.003 109.257 119.164 110.769 116.356C112.76 115.78 114.849 114.881 116.347 113.475C116.364 113.46 116.375 113.439 116.376 113.417C116.378 113.394 116.371 113.372 116.356 113.355C116.341 113.338 116.321 113.327 116.298 113.326C116.276 113.324 116.253 113.331 116.236 113.346C114.595 114.503 112.788 115.19 110.976 115.983C111.382 115.227 111.795 114.472 112.216 113.719C112.336 113.507 112.046 113.3 111.903 113.503C110.288 115.853 108.828 118.306 107.533 120.846C107.203 118.621 107.096 116.367 107.214 114.12C107.211 114.111 107.206 114.103 107.198 114.097C107.19 114.092 107.18 114.089 107.171 114.089C107.161 114.089 107.151 114.092 107.144 114.097C107.136 114.103 107.13 114.111 107.127 114.12C106.743 116.566 106.768 119.059 107.201 121.496C106.122 123.649 105.14 125.857 104.255 128.093C103.904 126.747 103.448 125.429 103.144 124.073C102.673 122.136 102.517 120.136 102.683 118.15C102.683 118.09 102.604 118.09 102.595 118.15C102.051 121.825 102.496 125.579 103.886 129.025C103.37 130.366 102.881 131.717 102.434 133.072C100.113 139.971 98.7394 147.153 98.3494 154.421C98.3494 154.455 98.363 154.488 98.3872 154.512C98.4114 154.536 98.4443 154.55 98.4785 154.55C98.5127 154.55 98.5456 154.536 98.5698 154.512C98.594 154.488 98.6076 154.455 98.6076 154.421C99.4208 147.249 100.966 140.179 103.218 133.321C104.107 130.638 105.135 128.033 106.265 125.484C108.081 124.945 109.893 124.216 111.677 123.599C113.461 122.981 115.204 122.299 116.665 121.151C116.72 121.128 116.66 121.035 116.591 121.068Z" fill="#263238"/>
<path d="M119.463 118.168C117.582 118.841 115.775 119.777 113.931 120.473C113.844 120.505 113.894 120.644 113.982 120.625C115.973 120.215 117.946 119.602 119.546 118.297C119.597 118.228 119.528 118.145 119.463 118.168Z" fill="#263238"/>
<path d="M104.093 114.111C104.117 114.01 103.969 113.955 103.941 114.056C103.425 115.789 103.07 117.629 103.573 119.404C103.573 119.473 103.702 119.477 103.702 119.404C103.794 117.61 103.692 115.872 104.093 114.111Z" fill="#263238"/>
<path d="M111.871 110.119C111.27 110.981 110.983 112.022 111.055 113.069C111.055 113.139 111.161 113.175 111.179 113.097C111.41 112.106 111.792 111.198 112.101 110.234C112.114 110.204 112.115 110.17 112.104 110.139C112.092 110.108 112.07 110.083 112.04 110.068C112.011 110.053 111.977 110.05 111.945 110.06C111.914 110.069 111.887 110.091 111.871 110.119Z" fill="#263238"/>
<path d="M75.5253 134.939C76.4473 137.802 78.5725 141.757 81.9793 141.79C84.1829 141.813 86.4003 141.55 88.6039 141.518C90.9688 141.481 93.3337 141.49 95.694 141.628C95.883 141.628 95.4082 134.552 89.7287 131.104C88.1383 130.135 86.1928 129.831 84.3903 129.439C82.3236 128.95 80.2023 128.73 78.0792 128.785C76.7746 128.835 75.6913 129.112 75.2257 130.449C74.76 131.786 75.092 133.574 75.5253 134.939Z" fill="#FFC727"/>
<path d="M77.9687 131.353C79.3517 131.708 80.7347 132.118 82.1177 132.556C81.7574 132.163 81.3757 131.791 80.9744 131.44C80.3797 130.947 79.7251 130.55 79.0843 130.117C79.0336 130.08 79.0843 129.979 79.1304 130.006C80.4761 130.561 81.6379 131.485 82.4819 132.671C84.206 133.229 85.9163 133.842 87.5529 134.515C88.6813 134.981 89.762 135.556 90.7799 136.23C90.4516 135.513 90.058 134.828 89.6043 134.183C88.8529 133.206 87.8341 132.662 86.8383 131.966C86.826 131.961 86.8148 131.954 86.8055 131.945C86.7963 131.936 86.7891 131.925 86.7846 131.913C86.7802 131.901 86.7785 131.888 86.7797 131.875C86.7809 131.862 86.7849 131.849 86.7916 131.838C86.7982 131.827 86.8073 131.817 86.8181 131.81C86.8288 131.803 86.8411 131.798 86.854 131.796C86.8668 131.794 86.88 131.795 86.8924 131.799C86.9049 131.803 86.9163 131.809 86.9259 131.818C87.9575 132.265 88.8842 132.923 89.6464 133.749C90.4086 134.576 90.9894 135.553 91.3515 136.617C92.5356 137.466 93.6184 138.448 94.5785 139.544C98.3356 143.809 101.295 149.488 101.304 155.278C101.304 155.417 101.083 155.458 101.056 155.315C100.094 149.635 97.6188 144.32 93.8916 139.927C93.6242 139.614 93.3476 139.314 93.0664 139.005C92.0376 138.868 91.0017 138.791 89.9639 138.775C88.7515 138.775 87.5529 138.954 86.3497 139.051C84.3674 139.213 82.1776 139.236 80.3889 138.24C80.3106 138.194 80.3613 138.055 80.4535 138.088C84.4365 139.54 88.6178 137.701 92.6146 138.549C90.9078 136.922 88.9088 135.634 86.7231 134.75L86.3543 134.603C83.7957 134.911 81.0943 135.575 78.6049 134.746C78.5903 134.741 78.5783 134.73 78.5711 134.717C78.564 134.703 78.5623 134.687 78.5664 134.673C78.5706 134.658 78.5802 134.645 78.5933 134.637C78.6065 134.629 78.6222 134.627 78.6371 134.63C81.0436 135.23 83.3532 134.474 85.7273 134.354C83.1411 133.344 80.5042 132.547 77.8903 131.546C77.7382 131.491 77.7336 131.293 77.9687 131.353Z" fill="#263238"/>
<path d="M76.8391 133.874C78.0748 134.034 79.3183 134.128 80.564 134.155C80.5917 134.155 80.6009 134.201 80.564 134.206C79.3111 134.438 78.0201 134.356 76.8069 133.966C76.8008 133.964 76.7952 133.961 76.7905 133.957C76.7857 133.952 76.7818 133.947 76.779 133.941C76.7762 133.936 76.7746 133.929 76.7742 133.923C76.7739 133.917 76.7748 133.91 76.7769 133.904C76.779 133.898 76.7823 133.892 76.7866 133.888C76.7909 133.883 76.796 133.879 76.8018 133.876C76.8076 133.873 76.8139 133.872 76.8203 133.871C76.8267 133.871 76.8331 133.872 76.8391 133.874Z" fill="#263238"/>
<path d="M85.2478 131.417C85.937 131.726 86.5624 132.16 87.0918 132.699C87.1564 132.754 87.0918 132.874 86.9996 132.818C86.6861 132.593 86.3634 132.357 86.0407 132.168C85.7318 131.995 85.4317 131.805 85.1418 131.601C85.1251 131.584 85.1144 131.562 85.1114 131.538C85.1085 131.514 85.1133 131.49 85.1253 131.469C85.1373 131.448 85.1557 131.432 85.1778 131.423C85.1999 131.413 85.2245 131.411 85.2478 131.417Z" fill="#263238"/>
<path d="M105.297 140.637C105.255 140.729 105.393 140.817 105.444 140.72C105.465 140.749 105.497 140.768 105.532 140.775C107.81 141.32 110.119 141.725 112.447 141.988C114.323 142.154 116.49 142.255 118.131 141.167C120.358 139.692 121.819 135.741 120.62 133.233C119.196 130.255 114.904 131.873 112.751 132.934C109.443 134.553 106.806 137.278 105.297 140.637Z" fill="#FFC727"/>
<path d="M103.632 142.011C104.887 140.8 106.279 139.742 107.781 138.858C108.861 137.149 110.292 135.69 111.981 134.58C112.06 134.524 112.129 134.653 112.055 134.709C110.712 135.784 109.523 137.037 108.519 138.433C110.19 137.518 111.927 136.727 113.715 136.069C114.352 134.884 115.322 133.912 116.504 133.27C116.504 133.27 116.559 133.27 116.536 133.312C115.558 134.052 114.706 134.945 114.014 135.958C115.07 135.561 116.135 135.193 117.2 134.842C117.296 134.81 117.333 134.958 117.241 134.99C115.346 135.732 113.406 136.516 111.525 137.415C113.815 137.778 116.149 137.778 118.44 137.415C118.504 137.415 118.532 137.493 118.467 137.511C116.074 138.218 113.533 138.257 111.119 137.622C109.922 138.204 108.76 138.855 107.639 139.572C108.582 139.496 109.532 139.573 110.451 139.803C112.074 140.18 113.735 140.369 115.402 140.365C115.462 140.365 115.48 140.466 115.402 140.476C112.53 140.969 109.819 139.664 106.97 140.015C105.923 140.72 104.939 141.514 104.029 142.389C102.254 144.162 100.792 146.222 99.7047 148.483C98.5061 150.922 97.8607 153.508 96.888 156.025C96.8788 156.045 96.8627 156.061 96.8426 156.071C96.8225 156.08 96.7998 156.081 96.7786 156.075C96.7574 156.069 96.7391 156.056 96.727 156.037C96.7149 156.019 96.7099 155.996 96.7129 155.974C97.5427 151.028 100.014 145.551 103.632 142.011Z" fill="#263238"/>
<path d="M112.29 135.202C112.481 134.864 112.731 134.563 113.028 134.312C113.275 134.048 113.569 133.833 113.894 133.676C113.922 133.676 113.936 133.704 113.922 133.722C113.687 133.99 113.36 134.183 113.101 134.441C112.843 134.699 112.64 134.999 112.378 135.253C112.371 135.264 112.36 135.273 112.347 135.276C112.334 135.28 112.32 135.278 112.308 135.271C112.297 135.264 112.288 135.253 112.285 135.24C112.281 135.227 112.283 135.214 112.29 135.202Z" fill="#263238"/>
<path d="M117.025 136.742C117.453 136.636 117.9 136.645 118.334 136.557C118.767 136.47 119.182 136.308 119.606 136.175C119.661 136.175 119.694 136.239 119.643 136.271C118.859 136.752 117.94 136.964 117.025 136.875C117.01 136.871 116.997 136.863 116.987 136.851C116.978 136.839 116.973 136.824 116.973 136.808C116.973 136.793 116.978 136.778 116.987 136.766C116.997 136.754 117.01 136.746 117.025 136.742Z" fill="#263238"/>
<path d="M91.8032 149.875L92.1812 154.154L93.4582 168.601H104.776L106.371 154.154L106.846 149.875H91.8032Z" fill="#455A64"/>
<path d="M91.8032 149.875L92.1812 154.154H106.371L106.846 149.875H91.8032Z" fill="#263238"/>
<path d="M90.683 152.18H107.966V148.709H90.683V152.18Z" fill="#455A64"/>
<path d="M0 168.601L24.6082 168.491L49.2163 168.449L98.4372 168.375L147.658 168.449L172.266 168.491L196.874 168.601L172.266 168.717L147.658 168.758L98.4372 168.832L49.2163 168.754L24.6082 168.717L0 168.601Z" fill="#263238"/>
<path d="M137.82 14.1296H59.8834C58.8385 14.1393 57.8057 14.3547 56.844 14.7635C55.8824 15.1723 55.0106 15.7665 54.2786 16.5122C53.5466 17.2579 52.9686 18.1405 52.5777 19.1096C52.1868 20.0787 51.9906 21.1153 52.0003 22.1602V182.588C51.9819 184.698 52.8018 186.729 54.28 188.235C55.7581 189.741 57.7735 190.598 59.8834 190.619H137.82C139.929 190.597 141.944 189.74 143.422 188.235C144.901 186.731 145.722 184.702 145.708 182.593V22.1602C145.725 20.0499 144.904 18.0189 143.425 16.5133C141.946 15.0076 139.93 14.1503 137.82 14.1296ZM140.78 177.632C140.78 181.855 137.617 185.271 133.717 185.271H63.9955C60.0863 185.271 56.9238 181.855 56.9238 177.632V28.2408C56.9238 19.6386 60.0863 19.2191 63.9955 19.2191H77.9638C78.7752 19.2191 79.439 20.1411 79.439 21.2844V21.7776C79.439 24.456 80.905 24.4652 82.7029 24.4652H115.001C116.817 24.4652 118.274 24.4652 118.274 21.7776V21.2844C118.274 20.1411 118.928 19.2191 119.753 19.2191H133.722C137.622 19.2191 140.784 20.3624 140.784 28.2408L140.78 177.632Z" fill="#263238"/>
<path d="M140.78 28.2408V177.632C140.78 181.855 137.617 185.271 133.717 185.271H63.9956C60.0863 185.271 56.9239 181.855 56.9239 177.632V28.2408C56.9239 19.6385 60.0863 19.219 63.9956 19.219H77.9639C78.7753 19.219 79.4391 20.141 79.4391 21.2843V21.7775C79.4391 24.4559 80.9051 24.4652 82.703 24.4652H115.001C116.817 24.4652 118.274 24.4652 118.274 21.7775V21.2843C118.274 20.141 118.928 19.219 119.754 19.219H133.722C137.617 19.219 140.78 20.3623 140.78 28.2408Z" fill="white"/>
<path d="M140.78 28.2408V39.9962H56.9239V28.2408C56.9239 19.6385 60.0863 19.219 63.9956 19.219H77.9639C78.7753 19.219 79.4391 20.141 79.4391 21.2843V21.7775C79.4391 24.4559 80.9051 24.4652 82.703 24.4652H115.001C116.817 24.4652 118.274 24.4652 118.274 21.7775V21.2843C118.274 20.141 118.928 19.219 119.754 19.219H133.722C137.617 19.219 140.78 20.3623 140.78 28.2408Z" fill="#FF6C37"/>
<path d="M75.5482 22.5751C75.5067 22.6212 75.4606 22.6627 75.4145 22.7088L75.3407 22.7871C74.9951 22.4423 74.5267 22.2486 74.0384 22.2486C73.5501 22.2486 73.0818 22.4423 72.7361 22.7871C72.7131 22.7871 72.69 22.7364 72.6623 22.7134L72.5333 22.5797C72.5886 22.529 72.6439 22.4737 72.7038 22.4276C72.8239 22.3278 72.9555 22.2426 73.0957 22.174C73.2622 22.0924 73.439 22.0335 73.6212 21.9988L73.884 21.9666H74.1099H74.2897C74.4475 21.9857 74.6024 22.0244 74.7507 22.0818C74.8623 22.1215 74.9703 22.1709 75.0734 22.2293C75.1835 22.2924 75.287 22.3666 75.3822 22.4506L75.5251 22.5751H75.5482Z" fill="white"/>
<path d="M73.1649 23.2113C73.0958 23.1375 73.022 23.0684 72.9529 22.9992C73.1816 22.7523 73.487 22.5898 73.8196 22.5382C74.0557 22.5044 74.2965 22.526 74.5229 22.6012C74.7493 22.6764 74.9552 22.8032 75.1242 22.9716L74.9121 23.1836C74.6792 22.9526 74.3643 22.8233 74.0362 22.824C73.8725 22.8271 73.7111 22.863 73.5614 22.9295C73.4118 22.996 73.277 23.0918 73.1649 23.2113Z" fill="white"/>
<path d="M74.7139 23.4232L74.5018 23.6353C74.4419 23.5743 74.37 23.5264 74.2907 23.4947C74.2113 23.463 74.1262 23.448 74.0408 23.4509C73.9555 23.4489 73.8707 23.4642 73.7914 23.4959C73.7122 23.5275 73.6402 23.575 73.5798 23.6353L73.3724 23.4232C73.4586 23.3318 73.5625 23.259 73.6779 23.2092C73.7932 23.1595 73.9175 23.1338 74.0431 23.1338C74.1688 23.1338 74.293 23.1595 74.4084 23.2092C74.5237 23.259 74.6277 23.3318 74.7139 23.4232Z" fill="white"/>
<path d="M74.2529 23.8289C74.2529 23.8541 74.2478 23.879 74.2381 23.9023C74.2283 23.9255 74.2139 23.9466 74.1959 23.9642C74.1778 23.9818 74.1565 23.9956 74.133 24.0048C74.1095 24.0141 74.0845 24.0185 74.0592 24.0179C74.0091 24.0179 73.961 23.998 73.9256 23.9625C73.8901 23.9271 73.8702 23.879 73.8702 23.8289C73.8696 23.8037 73.8741 23.7786 73.8833 23.7551C73.8925 23.7317 73.9063 23.7103 73.9239 23.6922C73.9416 23.6742 73.9626 23.6599 73.9858 23.6501C74.0091 23.6403 74.034 23.6352 74.0592 23.6353C74.1106 23.6353 74.1598 23.6557 74.1962 23.692C74.2325 23.7283 74.2529 23.7775 74.2529 23.8289Z" fill="white"/>
<path d="M62.3913 22.9899C62.3904 22.8794 62.4223 22.7711 62.4831 22.6788C62.5438 22.5864 62.6306 22.5142 62.7324 22.4713C62.8343 22.4284 62.9466 22.4167 63.0551 22.4377C63.1636 22.4587 63.2634 22.5114 63.3419 22.5892C63.4204 22.6671 63.474 22.7664 63.4959 22.8748C63.5178 22.9831 63.507 23.0955 63.4649 23.1977C63.4228 23.2999 63.3513 23.3873 63.2595 23.4488C63.1677 23.5103 63.0596 23.5431 62.9491 23.5431C62.802 23.5431 62.6608 23.485 62.5563 23.3814C62.4518 23.2778 62.3925 23.1371 62.3913 22.9899Z" fill="white"/>
<path d="M64.1431 22.9899C64.1422 22.8792 64.1742 22.7707 64.2352 22.6783C64.2961 22.5858 64.3832 22.5136 64.4853 22.4708C64.5874 22.428 64.6999 22.4166 64.8086 22.438C64.9172 22.4594 65.017 22.5126 65.0953 22.5909C65.1736 22.6692 65.2268 22.769 65.2482 22.8776C65.2696 22.9862 65.2581 23.0988 65.2153 23.2009C65.1725 23.303 65.1003 23.3901 65.0079 23.451C64.9155 23.5119 64.807 23.544 64.6963 23.5431C64.5499 23.5419 64.4099 23.4832 64.3064 23.3797C64.203 23.2762 64.1443 23.1362 64.1431 22.9899Z" fill="white"/>
<path d="M65.8903 22.9899C65.8894 22.8794 65.9214 22.7711 65.9821 22.6788C66.0428 22.5864 66.1296 22.5142 66.2315 22.4713C66.3333 22.4284 66.4456 22.4167 66.5541 22.4377C66.6626 22.4587 66.7624 22.5114 66.8409 22.5892C66.9194 22.6671 66.973 22.7664 66.9949 22.8748C67.0168 22.9831 67.006 23.0955 66.9639 23.1977C66.9218 23.2999 66.8504 23.3873 66.7585 23.4488C66.6667 23.5103 66.5587 23.5431 66.4482 23.5431C66.301 23.5431 66.1598 23.485 66.0553 23.3814C65.9509 23.2778 65.8916 23.1371 65.8903 22.9899Z" fill="white"/>
<path d="M67.6421 22.9899C67.6412 22.8794 67.6731 22.7711 67.7339 22.6788C67.7946 22.5864 67.8814 22.5142 67.9832 22.4713C68.0851 22.4284 68.1974 22.4167 68.3059 22.4377C68.4144 22.4587 68.5142 22.5114 68.5927 22.5892C68.6712 22.6671 68.7247 22.7664 68.7466 22.8748C68.7685 22.9831 68.7578 23.0955 68.7157 23.1977C68.6736 23.2999 68.6021 23.3873 68.5103 23.4488C68.4185 23.5103 68.3104 23.5431 68.1999 23.5431C68.0528 23.5431 67.9116 23.485 67.8071 23.3814C67.7026 23.2778 67.6433 23.1371 67.6421 22.9899Z" fill="white"/>
<path d="M69.3939 22.9899C69.393 22.8792 69.4251 22.7707 69.486 22.6783C69.547 22.5858 69.634 22.5136 69.7361 22.4708C69.8383 22.428 69.9508 22.4166 70.0594 22.438C70.1681 22.4594 70.2679 22.5126 70.3462 22.5909C70.4244 22.6692 70.4777 22.769 70.499 22.8776C70.5204 22.9862 70.509 23.0988 70.4662 23.2009C70.4234 23.303 70.3512 23.3901 70.2588 23.451C70.1663 23.5119 70.0578 23.544 69.9471 23.5431C69.8008 23.5419 69.6608 23.4832 69.5573 23.3797C69.4538 23.2762 69.3951 23.1362 69.3939 22.9899Z" fill="white"/>
<path d="M134.487 24.1979H129.965V22.1003H134.487V24.1979ZM130.195 23.9674H134.257V22.3308H130.195V23.9674Z" fill="white"/>
<path d="M133.256 22.4553H130.338V23.8383H133.256V22.4553Z" fill="white"/>
<path d="M134.893 22.5889H134.492V23.7091H134.893V22.5889Z" fill="white"/>
<path d="M103.259 21.146H94.4491C94.3773 21.146 94.3062 21.1318 94.2399 21.1042C94.1736 21.0766 94.1134 21.0361 94.0629 20.9851C94.0123 20.9341 93.9723 20.8736 93.9452 20.807C93.9182 20.7405 93.9046 20.6693 93.9052 20.5974C93.9052 20.4532 93.9625 20.3148 94.0645 20.2128C94.1665 20.1108 94.3049 20.0535 94.4491 20.0535H103.259C103.403 20.0535 103.541 20.1108 103.643 20.2128C103.746 20.3148 103.803 20.4532 103.803 20.5974C103.803 20.6693 103.79 20.7405 103.763 20.807C103.736 20.8736 103.696 20.9341 103.645 20.9851C103.595 21.0361 103.534 21.0766 103.468 21.1042C103.402 21.1318 103.331 21.146 103.259 21.146Z" fill="white"/>
<path d="M145.205 80.4951H110.289V115.411H145.205V80.4951Z" fill="white"/>
<path d="M145.376 115.582H144.283V115.236H145.03V114.489H145.376V115.582Z" fill="#FF6C37"/>
<path d="M142.923 115.582H141.111V115.236H142.923V115.582ZM139.752 115.582H137.94V115.236H139.752V115.582ZM136.58 115.582H134.768V115.236H136.58V115.582ZM133.408 115.582H131.596V115.236H133.417L133.408 115.582ZM130.237 115.582H128.425V115.236H130.237V115.582ZM127.065 115.582H125.253V115.236H127.065V115.582ZM123.893 115.582H122.081V115.236H123.893V115.582ZM120.721 115.582H118.91V115.236H120.721V115.582ZM117.55 115.582H115.738V115.236H117.55V115.582ZM114.383 115.582H112.566V115.236H114.383V115.582Z" fill="#FF6C37"/>
<path d="M111.211 115.582H110.114V114.489H110.46V115.236H111.211V115.582Z" fill="#FFC727"/>
<path d="M110.46 113.129H110.114V111.318H110.46V113.129ZM110.46 109.958H110.114V108.146H110.46V109.958ZM110.46 106.786H110.114V104.974H110.46V106.786ZM110.46 103.614H110.114V101.821H110.46V103.614ZM110.46 100.443H110.114V98.6308H110.46V100.443ZM110.46 97.2709H110.114V95.4592H110.46V97.2709ZM110.46 94.0992H110.114V92.2875H110.46V94.0992ZM110.46 90.9275H110.114V89.1158H110.46V90.9275ZM110.46 87.7559H110.114V85.9441H110.46V87.7559ZM110.46 84.5888H110.114V82.7725H110.46V84.5888Z" fill="#FFC727"/>
<path d="M110.46 81.4172H110.114V80.3201H111.211V80.6658H110.46V81.4172Z" fill="#FFC727"/>
<path d="M142.923 80.6658H141.111V80.3201H142.923V80.6658ZM139.752 80.6658H137.94V80.3201H139.752V80.6658ZM136.58 80.6658H134.768V80.3201H136.58V80.6658ZM133.408 80.6658H131.596V80.3201H133.417L133.408 80.6658ZM130.237 80.6658H128.425V80.3201H130.237V80.6658ZM127.065 80.6658H125.253V80.3201H127.065V80.6658ZM123.893 80.6658H122.081V80.3201H123.893V80.6658ZM120.721 80.6658H118.91V80.3201H120.721V80.6658ZM117.55 80.6658H115.738V80.3201H117.55V80.6658ZM114.383 80.6658H112.566V80.3201H114.383V80.6658Z" fill="#FF6C37"/>
<path d="M145.376 81.4172H145.03V80.6658H144.283V80.3201H145.376V81.4172Z" fill="#FF6C37"/>
<path d="M145.376 113.129H145.03V111.318H145.376V113.129ZM145.376 109.958H145.03V108.146H145.376V109.958ZM145.376 106.786H145.03V104.974H145.376V106.786ZM145.376 103.614H145.03V101.821H145.376V103.614ZM145.376 100.443H145.03V98.6308H145.376V100.443ZM145.376 97.2709H145.03V95.4592H145.376V97.2709ZM145.376 94.0992H145.03V92.2875H145.376V94.0992ZM145.376 90.9275H145.03V89.1158H145.376V90.9275ZM145.376 87.7559H145.03V85.9441H145.376V87.7559ZM145.376 84.5888H145.03V82.7725H145.376V84.5888Z" fill="#FF6C37"/>
<path d="M113.622 112.074H141.868V83.8283H113.622V112.074Z" fill="#FF6C37"/>
<path opacity="0.1" d="M117.66 90.3791C117.552 90.9195 117.621 91.4803 117.856 91.9787C118.092 92.477 118.481 92.8864 118.967 93.1464C119.453 93.4065 120.009 93.5033 120.555 93.4225C121.1 93.3418 121.604 93.0878 121.994 92.6982C122.384 92.3085 122.638 91.8038 122.718 91.2586C122.799 90.7135 122.702 90.1568 122.442 89.6709C122.182 89.185 121.773 88.7957 121.275 88.5604C120.776 88.3252 120.215 88.2565 119.675 88.3645C119.178 88.4645 118.722 88.709 118.363 89.0674C118.005 89.4259 117.76 89.8822 117.66 90.3791Z" fill="black"/>
<g opacity="0.2">
<path d="M122.944 104.241H141.868L132.403 92.5779L122.944 104.241Z" fill="black"/>
</g>
<path d="M113.622 104.255H130.407L122.017 96.658L113.622 104.255Z" fill="#FF6C37"/>
<g opacity="0.1">
<path d="M113.622 104.255H130.407L122.017 96.658L113.622 104.255Z" fill="black"/>
</g>
<path d="M141.868 104.255H113.622V112.074H141.868V104.255Z" fill="#FF6C37"/>
<g opacity="0.1">
<path d="M141.868 104.255H113.622V112.074H141.868V104.255Z" fill="black"/>
</g>
<path d="M144.813 45.6711H69.4769V76.8255H144.813V45.6711Z" fill="white"/>
<path d="M144.984 77.0007H143.887V76.655H144.638V75.9036H144.984V77.0007Z" fill="#FF6C37"/>
<path d="M142.485 77.0008H140.609V76.655H142.485V77.0008ZM139.208 77.0008H137.336V76.655H139.208V77.0008ZM135.93 77.0008H134.058V76.655H135.93V77.0008ZM132.652 77.0008H130.781V76.655H132.652V77.0008ZM129.379 77.0008H127.503V76.655H129.379V77.0008ZM126.101 77.0008H124.23V76.655H126.101V77.0008ZM122.824 77.0008H120.97V76.655H122.814L122.824 77.0008ZM119.546 77.0008H117.674V76.655H119.546V77.0008ZM116.268 77.0008H114.397V76.655H116.268V77.0008ZM112.995 77.0008H111.119V76.655H112.995V77.0008ZM109.717 77.0008H107.846V76.655H109.717V77.0008ZM106.44 77.0008H104.568V76.655H106.44V77.0008ZM103.162 77.0008H101.29V76.655H103.162V77.0008ZM99.889 77.0008H98.0127V76.655H99.889V77.0008ZM96.6113 77.0008H94.7396V76.655H96.6113V77.0008ZM93.3336 77.0008H91.4665V76.655H93.3382L93.3336 77.0008ZM90.0559 77.0008H88.1842V76.655H90.0559V77.0008ZM86.7782 77.0008H84.9065V76.655H86.7782V77.0008ZM83.5051 77.0008H81.6334V76.655H83.5051V77.0008ZM80.2274 77.0008H78.3557V76.655H80.2274V77.0008ZM76.9497 77.0008H75.078V76.655H76.9497V77.0008ZM73.6719 77.0008H71.8003V76.655H73.6719V77.0008Z" fill="#FF6C37"/>
<path d="M70.3989 77.0007H69.3017V75.9036H69.6474V76.655H70.3989V77.0007Z" fill="#FFC727"/>
<path d="M69.6474 74.5713H69.3017V72.778H69.6474V74.5713ZM69.6474 71.4642H69.3017V69.6893H69.6474V71.4642ZM69.6474 68.357H69.3017V66.5776H69.6474V68.357ZM69.6474 65.2453H69.3017V63.4704H69.6474V65.2453ZM69.6474 62.1382H69.3017V60.3587H69.6474V62.1382ZM69.6474 59.0264H69.3017V57.2516H69.6474V59.0264ZM69.6474 55.9193H69.3017V54.1444H69.6474V55.9193ZM69.6474 52.8121H69.3017V51.0327H69.6474V52.8121ZM69.6474 49.7004H69.3017V47.9255H69.6474V49.7004Z" fill="#FF6C37"/>
<path d="M69.6474 46.5933H69.3017V45.4961H70.3989V45.8418H69.6474V46.5933Z" fill="#FF6C37"/>
<path d="M142.485 45.8418H140.609V45.4961H142.485V45.8418ZM139.208 45.8418H137.336V45.4961H139.208V45.8418ZM135.93 45.8418H134.058V45.4961H135.93V45.8418ZM132.652 45.8418H130.781V45.4961H132.652V45.8418ZM129.375 45.8418H127.503V45.4961H129.375V45.8418ZM126.101 45.8418H124.23V45.4961H126.101V45.8418ZM122.824 45.8418H120.97V45.4961H122.814L122.824 45.8418ZM119.546 45.8418H117.674V45.4961H119.546V45.8418ZM116.268 45.8418H114.397V45.4961H116.268V45.8418ZM112.995 45.8418H111.119V45.4961H112.995V45.8418ZM109.717 45.8418H107.846V45.4961H109.717V45.8418ZM106.44 45.8418H104.568V45.4961H106.44V45.8418ZM103.162 45.8418H101.29V45.4961H103.162V45.8418ZM99.8844 45.8418H98.0127V45.4961H99.8844V45.8418ZM96.6113 45.8418H94.7396V45.4961H96.6113V45.8418ZM93.3336 45.8418H91.4665V45.4961H93.3382L93.3336 45.8418ZM90.0559 45.8418H88.1842V45.4961H90.0559V45.8418ZM86.7782 45.8418H84.9065V45.4961H86.7782V45.8418ZM83.5051 45.8418H81.6288V45.4961H83.5051V45.8418ZM80.2274 45.8418H78.3557V45.4961H80.2274V45.8418ZM76.9497 45.8418H75.078V45.4961H76.9497V45.8418ZM73.6719 45.8418H71.8003V45.4961H73.6719V45.8418Z" fill="#FF6C37"/>
<path d="M144.984 46.5933H144.638V45.8418H143.887V45.4961H144.984V46.5933Z" fill="#FF6C37"/>
<path d="M144.984 74.5713H144.638V72.778H144.984V74.5713ZM144.984 71.4642H144.638V69.6893H144.984V71.4642ZM144.984 68.357H144.638V66.5776H144.984V68.357ZM144.984 65.2453H144.638V63.4704H144.984V65.2453ZM144.984 62.1382H144.638V60.3587H144.984V62.1382ZM144.984 59.0264H144.638V57.2516H144.984V59.0264ZM144.984 55.9193H144.638V54.1444H144.984V55.9193ZM144.984 52.8121H144.638V51.0327H144.984V52.8121ZM144.984 49.7004H144.638V47.9255H144.984V49.7004Z" fill="#FF6C37"/>
<path d="M73.5937 72.188H95.4773V50.3043H73.5937V72.188Z" fill="#FF6C37"/>
<path opacity="0.1" d="M76.7146 55.3846C76.6318 55.8026 76.6855 56.2362 76.8679 56.6213C77.0503 57.0065 77.3517 57.3227 77.7276 57.5235C78.1035 57.7242 78.534 57.7988 78.9555 57.7362C79.377 57.6736 79.7672 57.4771 80.0686 57.1758C80.3699 56.8745 80.5664 56.4843 80.629 56.0627C80.6916 55.6412 80.617 55.2107 80.4162 54.8349C80.2155 54.459 79.8992 54.1576 79.5141 53.9752C79.129 53.7928 78.6954 53.739 78.2774 53.8218C77.8917 53.8989 77.5374 54.0884 77.2593 54.3666C76.9812 54.6447 76.7916 54.9989 76.7146 55.3846Z" fill="black"/>
<g opacity="0.2">
<path d="M80.8128 66.1259H95.4772L88.1427 57.0857L80.8128 66.1259Z" fill="black"/>
</g>
<path d="M73.5936 66.1304H86.5984L80.0937 60.248L73.5936 66.1304Z" fill="#FF6C37"/>
<g opacity="0.1">
<path d="M73.5936 66.1304H86.5984L80.0937 60.248L73.5936 66.1304Z" fill="black"/>
</g>
<path d="M95.4772 66.1306H73.5936V72.1881H95.4772V66.1306Z" fill="#FF6C37"/>
<g opacity="0.1">
<path d="M95.4772 66.1306H73.5936V72.1881H95.4772V66.1306Z" fill="black"/>
</g>
<path d="M140.277 50.3826H98.4046V51.1478H140.277V50.3826Z" fill="#EBEBEB"/>
<path d="M140.277 54.5593H98.4046V55.3246H140.277V54.5593Z" fill="#EBEBEB"/>
<path d="M140.277 56.7815H98.4046V57.5468H140.277V56.7815Z" fill="#EBEBEB"/>
<path d="M140.277 59.0034H98.4046V59.7687H140.277V59.0034Z" fill="#EBEBEB"/>
<path d="M140.277 63.4475H98.4046V64.2128H140.277V63.4475Z" fill="#EBEBEB"/>
<path d="M140.277 65.6694H98.4046V66.4347H140.277V65.6694Z" fill="#EBEBEB"/>
<path d="M140.277 67.8914H98.4046V68.6566H140.277V67.8914Z" fill="#EBEBEB"/>
<path d="M121.754 70.1182H98.4046V70.8834H121.754V70.1182Z" fill="#EBEBEB"/>
<path d="M87.2714 80.4951H52.3553V115.411H87.2714V80.4951Z" fill="white"/>
<path d="M87.4466 115.582H86.3494V115.236H87.1009V114.489H87.4466V115.582Z" fill="#FFC727"/>
<path d="M85.0125 115.582H83.1685V115.236H85.0125V115.582ZM81.8408 115.582H80.0291V115.236H81.8408V115.582ZM78.6691 115.582H76.8574V115.236H78.6691V115.582ZM75.4974 115.582H73.6857V115.236H75.4974V115.582ZM72.3258 115.582H70.514V115.236H72.3258V115.582ZM69.1541 115.582H67.3423V115.236H69.1541V115.582ZM65.9824 115.582H64.1707V115.236H65.9824V115.582ZM62.8107 115.582H60.999V115.236H62.8107V115.582ZM59.6391 115.582H57.8135V115.236H59.6252L59.6391 115.582ZM56.4674 115.582H54.6372V115.236H56.4305L56.4674 115.582Z" fill="#FF6C37"/>
<path d="M53.2774 115.582H52.1848V114.489H52.5306V115.236H53.2774V115.582Z" fill="#FFC727"/>
<path d="M52.5306 113.129H52.1848V111.318H52.5306V113.129ZM52.5306 109.958H52.1848V108.146H52.5306V109.958ZM52.5306 106.786H52.1848V104.974H52.5306V106.786ZM52.5306 103.614H52.1848V101.821H52.5306V103.614ZM52.5306 100.443H52.1848V98.6308H52.5306V100.443ZM52.5306 97.2709H52.1848V95.4592H52.5306V97.2709ZM52.5306 94.0992H52.1848V92.2875H52.5306V94.0992ZM52.5306 90.9275H52.1848V89.1158H52.5306V90.9275ZM52.5306 87.7559H52.1848V85.9441H52.5306V87.7559ZM52.5306 84.5888H52.1848V82.7725H52.5306V84.5888Z" fill="#FF6C37"/>
<path d="M52.5306 81.4172H52.1848V80.3201H53.2774V80.6658H52.5306V81.4172Z" fill="#FFC727"/>
<path d="M85.0125 80.6658H83.1685V80.3201H85.0125V80.6658ZM81.8408 80.6658H80.0291V80.3201H81.8408V80.6658ZM78.6691 80.6658H76.8574V80.3201H78.6691V80.6658ZM75.4974 80.6658H73.6857V80.3201H75.4974V80.6658ZM72.3258 80.6658H70.514V80.3201H72.3258V80.6658ZM69.1541 80.6658H67.3423V80.3201H69.1541V80.6658ZM65.9824 80.6658H64.1707V80.3201H65.9824V80.6658ZM62.8107 80.6658H60.999V80.3201H62.8107V80.6658ZM59.6391 80.6658H57.8135V80.3201H59.6252L59.6391 80.6658ZM56.4674 80.6658H54.6372V80.3201H56.4305L56.4674 80.6658Z" fill="#FF6C37"/>
<path d="M87.4466 81.4172H87.1009V80.6658H86.3494V80.3201H87.4466V81.4172Z" fill="#FFC727"/>
<path d="M87.4466 113.129H87.1009V111.318H87.4466V113.129ZM87.4466 109.958H87.1009V108.146H87.4466V109.958ZM87.4466 106.786H87.1009V104.974H87.4466V106.786ZM87.4466 103.614H87.1009V101.821H87.4466V103.614ZM87.4466 100.443H87.1009V98.6308H87.4466V100.443ZM87.4466 97.2709H87.1009V95.4592H87.4466V97.2709ZM87.4466 94.0992H87.1009V92.2875H87.4466V94.0992ZM87.4466 90.9275H87.1009V89.1158H87.4466V90.9275ZM87.4466 87.7559H87.1009V85.9441H87.4466V87.7559ZM87.4466 84.5888H87.1009V82.7725H87.4466V84.5888Z" fill="#FF6C37"/>
<path d="M53.7199 79.1353H51V81.8552H53.7199V79.1353Z" fill="#FF6C37"/>
<path d="M71.1779 79.1353H68.458V81.8552H71.1779V79.1353Z" fill="#FFC727"/>
<path d="M88.636 79.1353H85.9161V81.8552H88.636V79.1353Z" fill="#FFC727"/>
<path d="M53.7199 114.052H51V116.771H53.7199V114.052Z" fill="#FF6C37"/>
<path d="M71.1779 114.052H68.458V116.771H71.1779V114.052Z" fill="#FF6C37"/>
<path d="M88.636 114.052H85.9161V116.771H88.636V114.052Z" fill="#FF6C37"/>
<path d="M53.7199 96.5933H51V99.3132H53.7199V96.5933Z" fill="#FF6C37"/>
<path d="M88.636 96.5933H85.9161V99.3132H88.636V96.5933Z" fill="#FF6C37"/>
<path d="M83.1501 84.6165H56.4813V111.285H83.1501V84.6165Z" fill="#455A64"/>
<path d="M66.0378 101.222V94.6802L73.5936 98.7692L66.0378 101.222Z" fill="white"/>
<path d="M114 120.197H69.4077V125.784H114V120.197Z" fill="#FF6C37"/>
<path d="M113.885 125.765H69.5276V175.12H113.885V125.765Z" fill="white"/>
<path d="M114.056 175.29H112.036V174.945H113.71V174.866H114.056V175.29ZM110.653 175.29H108.809V174.945H110.653V175.29ZM107.426 175.29H105.582V174.945H107.426V175.29ZM104.199 175.29H102.355V174.945H104.199V175.29ZM100.972 175.29H99.1284V174.945H100.972V175.29ZM97.7454 175.29H95.9014V174.945H97.7454V175.29ZM94.5184 175.29H92.6744V174.945H94.5184V175.29ZM91.2914 175.29H89.4474V174.945H91.2914V175.29ZM88.0644 175.29H86.2204V174.945H88.0644V175.29ZM84.8374 175.29H82.9934V174.945H84.8374V175.29ZM81.6104 175.29H79.7664V174.945H81.6104V175.29ZM78.3834 175.29H76.5394V174.945H78.3834V175.29ZM75.1564 175.29H73.3124V174.945H75.1564V175.29ZM71.9294 175.29H70.0854V174.945H71.9294V175.29ZM69.6982 174.295H69.3386V172.451H69.6844L69.6982 174.295ZM114.056 173.483H113.71V171.639H114.056V173.483ZM69.6982 171.068H69.3386V169.224H69.6844L69.6982 171.068ZM114.056 170.256H113.71V168.412H114.056V170.256ZM69.6982 167.841H69.3386V165.997H69.6844L69.6982 167.841ZM114.056 167.029H113.71V165.185H114.056V167.029ZM69.6982 164.614H69.3386V162.77H69.6844L69.6982 164.614ZM114.056 163.802H113.71V161.958H114.056V163.802ZM69.6982 161.387H69.3386V159.543H69.6844L69.6982 161.387ZM114.056 160.575H113.71V158.731H114.056V160.575ZM69.6982 158.16H69.3386V156.316H69.6844L69.6982 158.16ZM114.056 157.348H113.71V155.504H114.056V157.348ZM69.6982 154.933H69.3386V153.089H69.6844L69.6982 154.933ZM114.056 154.121H113.71V152.277H114.056V154.121ZM69.6982 151.706H69.3386V149.862H69.6844L69.6982 151.706ZM114.056 150.894H113.71V149.05H114.056V150.894ZM69.6982 148.479H69.3386V146.635H69.6844L69.6982 148.479ZM114.056 147.667H113.71V145.823H114.056V147.667ZM69.6982 145.252H69.3386V143.408H69.6844L69.6982 145.252ZM114.056 144.44H113.71V142.596H114.056V144.44ZM69.6982 142.025H69.3386V140.181H69.6844L69.6982 142.025ZM114.056 141.213H113.71V139.369H114.056V141.213ZM69.6982 138.798H69.3386V136.954H69.6844L69.6982 138.798ZM114.056 137.986H113.71V136.142H114.056V137.986ZM69.6982 135.571H69.3386V133.727H69.6844L69.6982 135.571ZM114.056 134.759H113.71V132.915H114.056V134.759ZM69.6982 132.344H69.3386V130.5H69.6844L69.6982 132.344ZM114.056 131.532H113.71V129.688H114.056V131.532ZM69.6982 129.117H69.3386V127.273H69.6844L69.6982 129.117ZM114.056 128.305H113.71V126.461H114.056V128.305ZM113.194 125.94H111.35V125.595H113.194V125.94ZM109.967 125.94H108.123V125.595H109.967V125.94ZM106.74 125.94H104.896V125.595H106.74V125.94ZM103.513 125.94H101.669V125.595H103.513V125.94ZM100.286 125.94H98.4415V125.595H100.286V125.94ZM97.0585 125.94H95.2145V125.595H97.0585V125.94ZM93.8315 125.94H91.9875V125.595H93.8315V125.94ZM90.6045 125.94H88.7605V125.595H90.6045V125.94ZM87.3775 125.94H85.5335V125.595H87.3775V125.94ZM84.1505 125.94H82.3065V125.595H84.1505V125.94ZM80.9235 125.94H79.0795V125.595H80.9235V125.94ZM77.6965 125.94H75.8525V125.595H77.6965V125.94ZM74.4695 125.94H72.6256V125.595H74.4695V125.94ZM71.2425 125.94H69.523V125.89H69.3386V125.595H71.2287L71.2425 125.94Z" fill="#FF6C37"/>
<path d="M114.009 175.198H69.4077V125.682H114.009V175.198ZM69.652 175.037H113.76V125.848H69.652V175.037Z" fill="#DBDBDB"/>
<path d="M69.6429 175.147L69.4124 175.088L113.77 125.738L114 125.797L69.6429 175.147Z" fill="#DBDBDB"/>
<path d="M113.77 175.147L69.4124 125.797L69.6429 125.738L114 175.088L113.77 175.147Z" fill="#DBDBDB"/>
<path d="M119.439 181.989C121.149 181.067 123.468 180.629 125.27 181.482C125.344 181.514 125.293 181.611 125.229 181.611C123.31 181.609 121.397 181.811 119.522 182.215C119.492 182.226 119.459 182.224 119.43 182.211C119.401 182.197 119.378 182.173 119.367 182.143C119.356 182.113 119.358 182.08 119.371 182.051C119.384 182.022 119.409 182 119.439 181.989Z" fill="#263238"/>
<path d="M118.378 183.201C120.089 182.279 122.408 181.841 124.215 182.694C124.284 182.727 124.215 182.823 124.169 182.823C122.25 182.818 120.337 183.018 118.461 183.418C118.435 183.421 118.408 183.415 118.386 183.401C118.363 183.388 118.346 183.367 118.336 183.342C118.327 183.317 118.326 183.29 118.333 183.264C118.341 183.239 118.357 183.217 118.378 183.201Z" fill="#263238"/>
<path d="M117.318 184.414C119.033 183.492 121.347 183.031 123.154 183.907C123.224 183.939 123.177 184.04 123.108 184.04C121.19 184.037 119.277 184.238 117.401 184.64C117.371 184.651 117.338 184.649 117.309 184.636C117.28 184.622 117.258 184.598 117.247 184.568C117.236 184.538 117.237 184.505 117.25 184.476C117.264 184.447 117.288 184.425 117.318 184.414Z" fill="#263238"/>
<path d="M116.262 185.626C117.973 184.704 120.287 184.271 122.094 185.119C122.163 185.152 122.117 185.253 122.053 185.253C120.133 185.25 118.218 185.45 116.341 185.852C116.312 185.86 116.28 185.857 116.254 185.842C116.227 185.828 116.206 185.804 116.197 185.776C116.187 185.747 116.188 185.716 116.2 185.688C116.212 185.66 116.235 185.638 116.262 185.626Z" fill="#263238"/>
<path d="M116.373 181.187C117.982 181.777 119.789 181.648 121.472 181.721C121.647 181.721 121.721 181.542 121.684 181.403C121.691 181.401 121.698 181.396 121.703 181.39C121.709 181.385 121.713 181.378 121.715 181.37C121.717 181.362 121.718 181.354 121.716 181.347C121.715 181.339 121.712 181.331 121.707 181.325C120.635 179.889 119.204 178.76 117.558 178.052C116.59 177.66 115.119 177.642 114.718 178.859C114.317 180.076 115.437 180.846 116.373 181.187ZM115.451 179.873C114.492 177.978 116.972 178.338 117.668 178.656C118.118 178.871 118.552 179.116 118.968 179.389C119.84 179.942 120.619 180.61 121.43 181.233C120.605 181.145 119.78 181.131 118.955 181.071C117.973 181.021 115.972 180.915 115.442 179.873H115.451Z" fill="#263238"/>
<path d="M126.893 176.6C126.086 175.609 124.717 176.139 123.952 176.858C122.669 178.103 121.734 179.662 121.241 181.381C121.239 181.388 121.239 181.397 121.24 181.405C121.242 181.413 121.245 181.421 121.25 181.427C121.255 181.434 121.261 181.439 121.268 181.443C121.276 181.447 121.284 181.449 121.292 181.45C121.293 181.487 121.303 181.523 121.32 181.556C121.338 181.589 121.363 181.617 121.393 181.639C121.424 181.66 121.459 181.674 121.496 181.68C121.532 181.685 121.57 181.682 121.605 181.671C123.15 181.007 124.883 180.486 126.179 179.366C126.935 178.711 127.654 177.54 126.893 176.6ZM123.74 180.191C122.988 180.537 122.223 180.846 121.486 181.219C121.988 180.322 122.536 179.451 123.127 178.61C123.417 178.206 123.736 177.824 124.081 177.467C124.62 176.918 126.81 175.701 126.584 177.812C126.46 178.97 124.639 179.772 123.74 180.191Z" fill="#263238"/>
<path d="M138.616 179.384C138.732 180.048 138.833 180.693 138.934 181.316C139.589 185.336 139.976 188.438 139.677 188.724C138.755 189.604 110.998 195.178 109.961 195.049C108.923 194.92 109.228 191.956 110.131 190.9C110.68 190.25 114.474 187.447 117.36 185.368C119.204 184.026 120.697 182.971 120.697 182.971L115.128 164.992L133.78 161.304C133.78 161.304 138.436 178.319 138.616 179.384Z" fill="#AD6359"/>
<path d="M109.961 195.049C110.998 195.173 138.75 189.604 139.677 188.724C139.976 188.438 139.594 185.336 138.934 181.316C138.833 180.693 138.732 180.048 138.616 179.384C138.552 179.015 137.939 176.683 137.178 173.815L119.024 177.462L120.739 182.925C120.739 182.925 119.254 183.976 117.396 185.322C114.511 187.419 110.717 190.218 110.168 190.854C109.214 191.956 108.928 194.915 109.961 195.049Z" fill="#EBEBEB"/>
<path d="M109.73 195.224C110.417 195.307 122.454 192.919 131.176 190.96C133.19 190.499 135.034 190.075 136.514 189.706C138.556 189.194 139.916 188.784 140.114 188.613C140.451 188.286 138.326 176.909 137.952 175.59L119.512 179.407L120.596 182.819C120.596 182.819 110.809 189.872 109.882 190.964C108.956 192.057 108.674 195.095 109.73 195.224Z" fill="#407BFF"/>
<path d="M110.168 193.956C114.898 192.859 134.094 188.885 138.856 188.166C138.898 188.166 138.902 188.189 138.856 188.199C134.191 189.383 114.963 193.2 110.177 194.035C110.081 194.049 110.067 193.979 110.168 193.956Z" fill="#263238"/>
<path d="M117.198 180.265C117 180.168 109.55 151.738 107.084 142.269C103.525 128.61 100.077 106.348 99.0441 101.701C96.9109 96.3592 95.4611 90.7691 94.7292 85.0637C94.7292 85.0637 117.166 85.0637 117.166 85.0637C117.166 85.0637 123.048 96.3213 120.015 104.274C119.738 105.007 123.934 133.123 126.105 137.673C127.981 141.61 138.552 175.659 138.552 175.659L117.198 180.265Z" fill="#37474F"/>
<path d="M117.318 175.507C117.867 175.309 118.452 175.208 119.019 175.046C119.586 174.885 120.213 174.742 120.817 174.585C122.02 174.313 123.224 174.055 124.427 173.797C126.838 173.276 129.253 172.783 131.669 172.294L133.651 171.902C134.311 171.741 134.984 171.64 135.661 171.598C135.668 171.601 135.674 171.605 135.679 171.611C135.683 171.618 135.685 171.625 135.685 171.632C135.685 171.64 135.683 171.647 135.679 171.654C135.674 171.66 135.668 171.664 135.661 171.667C135.115 171.869 134.552 172.023 133.979 172.128C133.379 172.276 132.78 172.414 132.176 172.548C130.991 172.815 129.811 173.087 128.626 173.345C126.234 173.866 123.85 174.401 121.453 174.88C120.771 175.019 120.093 175.157 119.411 175.272C118.729 175.387 118.028 175.563 117.36 175.613C117.286 175.673 117.217 175.539 117.318 175.507Z" fill="#263238"/>
<path d="M104.913 100.678C105.346 103.015 105.706 105.366 106.093 107.713C106.291 108.907 106.554 110.087 106.747 111.281C106.941 112.475 107.135 113.627 107.319 114.803C108.081 119.523 108.836 124.244 109.583 128.965C109.954 131.306 110.331 133.65 110.712 135.995C111.061 138.303 111.534 140.592 112.127 142.85C112.745 145.109 118.12 167.444 119.374 172.045L119.835 173.755C119.837 173.762 119.838 173.769 119.837 173.776C119.836 173.783 119.834 173.789 119.83 173.795C119.827 173.801 119.822 173.806 119.817 173.811C119.811 173.815 119.805 173.818 119.798 173.82C119.792 173.822 119.785 173.822 119.778 173.821C119.771 173.82 119.764 173.818 119.758 173.815C119.752 173.811 119.747 173.807 119.743 173.801C119.739 173.796 119.736 173.79 119.734 173.783C118.185 169.27 113.432 149.212 112.077 144.657C111.416 142.441 110.888 140.187 110.495 137.908C110.094 135.562 109.744 133.21 109.371 130.859C108.621 126.139 107.868 121.418 107.112 116.697C106.743 114.392 106.333 112.055 106.042 109.722C105.747 107.307 105.328 104.91 104.968 102.503C104.88 101.913 104.797 101.323 104.714 100.733C104.71 100.604 104.89 100.553 104.913 100.678Z" fill="#263238"/>
<path d="M85.6199 183.538C87.5285 183.169 89.8703 183.446 91.3363 184.801C91.3962 184.852 91.3363 184.93 91.2579 184.912C89.4275 184.334 87.5405 183.954 85.6291 183.778C85.5973 183.779 85.5664 183.767 85.543 183.746C85.5197 183.724 85.5059 183.694 85.5047 183.662C85.5034 183.631 85.5149 183.6 85.5365 183.576C85.5581 183.553 85.5881 183.539 85.6199 183.538Z" fill="#263238"/>
<path d="M84.2461 184.377C86.1546 184.008 88.4919 184.285 89.9625 185.64C90.0178 185.691 89.9625 185.774 89.8841 185.75C88.0531 185.175 86.1663 184.795 84.2553 184.616C84.2235 184.618 84.1925 184.606 84.1692 184.585C84.1458 184.563 84.132 184.533 84.1308 184.501C84.1296 184.469 84.1411 184.438 84.1627 184.415C84.1843 184.392 84.2143 184.378 84.2461 184.377Z" fill="#263238"/>
<path d="M82.8722 185.216C84.7808 184.847 87.1181 185.128 88.5886 186.479C88.644 186.53 88.5886 186.613 88.5056 186.594C86.677 186.015 84.7915 185.633 82.8815 185.456C82.8497 185.457 82.8187 185.445 82.7954 185.424C82.772 185.402 82.7582 185.372 82.757 185.34C82.7558 185.309 82.7672 185.278 82.7888 185.254C82.8105 185.231 82.8404 185.217 82.8722 185.216Z" fill="#263238"/>
<path d="M81.4985 186.055C83.4071 185.686 85.7443 185.967 87.2149 187.318C87.2702 187.373 87.2149 187.452 87.1319 187.433C85.3036 186.853 83.4179 186.473 81.5077 186.299C81.4791 186.295 81.4529 186.281 81.4336 186.259C81.4144 186.238 81.4032 186.21 81.4021 186.181C81.401 186.152 81.4101 186.124 81.4277 186.101C81.4453 186.078 81.4703 186.061 81.4985 186.055Z" fill="#263238"/>
<path d="M82.9368 181.855C84.2921 182.897 86.0578 183.317 87.639 183.893C87.8004 183.948 87.9294 183.796 87.9387 183.648C87.9464 183.648 87.9538 183.645 87.9604 183.641C87.967 183.637 87.9725 183.631 87.9765 183.624C87.9805 183.617 87.9829 183.61 87.9836 183.602C87.9842 183.594 87.983 183.587 87.9801 183.579C87.3907 181.891 86.3666 180.389 85.0113 179.223C84.2092 178.554 82.8077 178.098 82.0609 179.14C81.3141 180.182 82.1439 181.247 82.9368 181.855ZM82.4389 180.32C82.0886 178.227 84.3475 179.31 84.9191 179.827C85.2833 180.166 85.6237 180.529 85.9379 180.915C86.5783 181.718 87.1769 182.553 87.7312 183.418C86.9705 183.086 86.1915 182.828 85.4262 182.524C84.4996 182.169 82.6326 181.477 82.4389 180.32Z" fill="#263238"/>
<path d="M94.3419 180.652C93.8809 179.462 92.4057 179.564 91.4653 180.016C89.8649 180.817 88.5051 182.027 87.5238 183.524C87.5189 183.53 87.5155 183.537 87.514 183.544C87.5126 183.552 87.513 183.56 87.5153 183.567C87.5176 183.574 87.5217 183.581 87.5272 183.586C87.5327 183.592 87.5394 183.596 87.5468 183.598C87.5192 183.741 87.6067 183.925 87.7773 183.906C89.4554 183.731 91.2625 183.754 92.8483 183.077C93.7519 182.653 94.7891 181.754 94.3419 180.652ZM90.2621 183.123C89.4415 183.229 88.6209 183.293 87.805 183.427C88.5748 182.749 89.3124 182.044 90.1515 181.431C90.551 181.134 90.9699 180.865 91.4054 180.624C92.083 180.265 94.5402 179.757 93.7104 181.708C93.2217 182.759 91.2348 182.957 90.2621 183.1V183.123Z" fill="#263238"/>
<path d="M104.765 181.334C104.765 182.464 104.276 193.781 103.921 194.026C102.843 194.708 74.5374 194.791 73.5462 194.487C72.5551 194.182 73.4264 191.31 74.5189 190.43C75.1874 189.9 79.447 187.885 82.6878 186.391C84.7716 185.433 86.4312 184.686 86.4312 184.686L86.339 181.362L86.0808 166.237H104.784C104.784 166.237 104.89 173.995 104.765 181.334Z" fill="#AD6359"/>
<path d="M73.5462 194.482C74.5374 194.809 102.843 194.726 103.921 194.044C104.272 193.818 104.747 182.482 104.765 181.357C104.765 180.606 104.765 179.854 104.793 179.103H86.3113L86.3482 181.357L86.445 184.672C86.445 184.672 84.7808 185.423 82.7017 186.382C79.4747 187.876 75.2012 189.895 74.5328 190.43C73.4264 191.292 72.5597 194.136 73.5462 194.482Z" fill="#EBEBEB"/>
<path d="M72.8731 194.699C73.5324 194.911 85.8041 194.915 94.7429 194.699C96.8082 194.648 98.6983 194.583 100.224 194.514C102.326 194.408 103.737 194.288 103.968 194.145C104.359 193.887 104.922 182.312 104.816 180.947L86.113 181.048L86.0439 184.612C86.0439 184.612 74.9799 189.641 73.8597 190.545C72.7394 191.449 71.8728 194.362 72.8731 194.699Z" fill="#407BFF"/>
<path d="M73.5509 193.56C78.4099 193.408 98.0069 193.265 102.82 193.486C102.861 193.486 102.861 193.514 102.82 193.514C98.0115 193.767 78.4099 193.753 73.5509 193.638C73.4495 193.611 73.4495 193.56 73.5509 193.56Z" fill="#263238"/>
<path d="M108.103 105.145C108.103 105.145 104.908 136.493 104.876 137.254C104.876 137.544 106.259 180.818 106.259 180.818H85.085C85.085 180.818 85.8364 139.955 86.1591 135.525C86.196 135.008 87.5421 103.126 93.7149 85.073H117.198C117.198 85.073 116.995 95.676 112.169 103.352C110.781 103.873 109.424 104.472 108.103 105.145Z" fill="#37474F"/>
<path d="M86.4174 176.853C86.9983 176.77 87.5929 176.789 88.1738 176.761C88.7547 176.734 89.4047 176.701 90.0178 176.687C91.2533 176.687 92.4842 176.651 93.7058 176.637C96.1721 176.609 98.6385 176.614 101.082 176.637C101.755 176.637 102.428 176.637 103.106 176.637C103.783 176.608 104.462 176.642 105.134 176.738C105.141 176.742 105.146 176.747 105.15 176.753C105.154 176.76 105.156 176.767 105.156 176.775C105.156 176.783 105.154 176.79 105.15 176.797C105.146 176.803 105.141 176.808 105.134 176.812C104.556 176.903 103.972 176.947 103.387 176.941C102.774 176.964 102.156 176.978 101.543 176.992C100.33 177.015 99.1179 177.047 97.9055 177.061C95.4622 177.093 93.0143 177.135 90.571 177.125C89.8749 177.125 89.188 177.125 88.4919 177.098C87.7958 177.07 87.1089 177.098 86.4128 177.024C86.3529 177.01 86.316 176.872 86.4174 176.853Z" fill="#263238"/>
<path d="M91.2349 139.005C91.7881 127.706 92.9774 116.458 94.4618 105.251C95.2824 99.1149 96.2413 92.9836 97.9009 87.009C97.9009 86.986 97.9424 87.009 97.9378 87.009C96.647 92.4804 95.6727 98.0215 95.0197 103.605C94.3189 109.137 93.6367 114.669 93.0927 120.201C91.954 131.436 91.4469 142.716 91.3778 154.001C91.3363 160.354 91.5068 168.292 91.682 174.636C91.682 174.7 91.5944 174.696 91.5898 174.636C90.6448 163.323 90.654 150.318 91.2349 139.005Z" fill="#263238"/>
<path d="M92.3411 89.4432C92.3438 89.4362 92.3485 89.4301 92.3547 89.4258C92.3608 89.4215 92.3682 89.4192 92.3757 89.4192C92.3832 89.4192 92.3906 89.4215 92.3968 89.4258C92.403 89.4301 92.4077 89.4362 92.4103 89.4432C92.3227 90.7801 92.0968 92.2415 92.6915 93.5C93.217 94.611 94.2128 95.238 95.1302 95.9894C95.1579 95.9894 95.1302 96.0586 95.0933 96.0494C93.8717 95.6759 92.6546 95.0029 92.1752 93.7444C91.6358 92.3614 91.9262 90.8355 92.3411 89.4432Z" fill="#263238"/>
<path d="M102.525 104.458C103.505 104.428 104.485 104.46 105.461 104.555C106.417 104.607 107.375 104.59 108.329 104.504C108.808 104.456 109.284 104.377 109.753 104.269C110.237 104.154 110.698 103.974 111.178 103.84C111.616 103.744 112.071 103.761 112.501 103.891C113.008 104.006 113.52 104.085 114.036 104.154C115.213 104.327 116.406 104.358 117.59 104.246C117.636 104.246 117.655 104.306 117.59 104.315C116.596 104.527 115.582 104.633 114.566 104.633C114.044 104.62 113.523 104.573 113.008 104.49C112.534 104.355 112.043 104.291 111.551 104.301C111.069 104.428 110.595 104.582 110.131 104.762C109.657 104.891 109.175 104.989 108.688 105.057C107.713 105.186 106.728 105.215 105.747 105.145C104.639 105.119 103.539 104.95 102.474 104.642C102.457 104.63 102.444 104.613 102.437 104.594C102.429 104.574 102.429 104.553 102.434 104.532C102.44 104.512 102.451 104.494 102.468 104.481C102.484 104.468 102.504 104.46 102.525 104.458Z" fill="#263238"/>
<path d="M104.802 135.525C104.806 135.522 104.811 135.52 104.816 135.52C104.821 135.52 104.826 135.522 104.83 135.525C104.83 135.525 104.83 135.525 104.853 135.525C104.876 135.525 104.853 135.525 104.853 135.553V135.626C104.846 135.626 104.84 135.623 104.835 135.619C104.83 135.615 104.827 135.609 104.825 135.603V135.534C104.817 135.533 104.809 135.53 104.802 135.525Z" fill="#263238"/>
<path d="M105.36 130.122C105.544 128.09 105.744 126.059 105.959 124.027C106.383 119.961 106.789 115.895 107.208 111.829C107.444 109.524 107.614 107.219 107.992 104.914C107.992 104.854 108.094 104.85 108.094 104.914C108.061 106.952 107.845 108.99 107.669 111.023C107.494 113.056 107.314 115.089 107.125 117.122C106.747 121.192 106.379 125.263 105.904 129.32C105.769 130.472 105.626 131.625 105.475 132.777C105.323 133.93 105.12 135.082 104.973 136.23C104.973 136.276 104.894 136.276 104.899 136.23C105.065 134.192 105.175 132.155 105.36 130.122Z" fill="#263238"/>
<path d="M105.115 58.6993C105.083 59.1603 103.419 62.4195 101.358 62.6546C100.69 62.7284 100.109 59.0865 100.109 59.0865L100.008 58.8237L98.5508 55.1911L102.515 51.6321L103.092 51.1711C103.092 51.1711 103.428 52.19 103.829 53.4761L103.885 53.6605C103.908 53.7297 103.935 53.7988 103.954 53.8634C104.018 54.057 104.078 54.2506 104.138 54.4442C104.198 54.6379 104.226 54.7347 104.272 54.9052L104.406 55.3662C104.716 56.4602 104.953 57.5737 105.115 58.6993Z" fill="#AD6359"/>
<path d="M103.829 53.4439C103.62 54.5658 103.169 55.6285 102.506 56.5578C101.844 57.487 100.986 58.2603 99.9937 58.8237L98.537 55.1911L102.502 51.6321L103.078 51.1711C103.078 51.1711 103.428 52.1715 103.829 53.4439Z" fill="#263238"/>
<path d="M103.769 52.3005C104.913 52.0285 107.872 52.7891 108.886 54.3012C109.901 55.8133 109.864 58.2889 109.347 58.5378C108.831 58.7867 106.66 58.6438 105.148 57.8463C103.636 57.0488 103.221 52.4388 103.769 52.3005Z" fill="#263238"/>
<path d="M103.765 52.3098C103.728 52.3098 103.723 52.2361 103.765 52.2361C104.801 52.2607 105.828 52.4394 106.812 52.7662C107.607 52.9312 108.358 53.2627 109.016 53.7389C109.32 53.9803 109.569 54.2851 109.744 54.6322C109.919 54.9793 110.017 55.3603 110.03 55.7489C110.118 56.6952 109.959 57.6482 109.569 58.5149C109.569 58.5149 109.509 58.5149 109.518 58.5149C109.951 56.8369 110.316 54.79 108.633 53.679C107.195 52.7063 105.387 52.6279 103.765 52.3098Z" fill="#263238"/>
<path d="M104.627 51.2357C104.94 50.8254 105.549 51.3141 105.258 51.729C104.968 52.1439 104.318 51.646 104.627 51.2357Z" fill="#407BFF"/>
<path d="M104.332 51.9179C104.641 51.5076 105.254 51.9963 104.963 52.4066C104.895 52.4794 104.802 52.5241 104.703 52.5321C104.603 52.54 104.504 52.5105 104.425 52.4495C104.346 52.3884 104.293 52.3001 104.276 52.2018C104.258 52.1035 104.278 52.0023 104.332 51.9179Z" fill="#407BFF"/>
<path d="M103.917 52.5449C104.226 52.1346 104.839 52.6233 104.548 53.0335C104.48 53.1063 104.387 53.1511 104.288 53.159C104.188 53.1669 104.089 53.1375 104.01 53.0764C103.932 53.0153 103.878 52.927 103.861 52.8287C103.844 52.7304 103.864 52.6292 103.917 52.5449Z" fill="#407BFF"/>
<path d="M103.437 53.0934C103.746 52.6831 104.359 53.1764 104.069 53.5867C104.002 53.6652 103.907 53.7149 103.804 53.7252C103.701 53.7356 103.599 53.7059 103.517 53.6423C103.436 53.5787 103.382 53.4861 103.367 53.3838C103.352 53.2816 103.377 53.1775 103.437 53.0934Z" fill="#407BFF"/>
<path d="M102.857 53.5636C103.17 53.1533 103.779 53.6466 103.488 54.0569C103.198 54.4672 102.548 53.9739 102.857 53.5636Z" fill="#407BFF"/>
<path d="M102.225 53.9094C102.292 53.8308 102.387 53.7812 102.49 53.7708C102.593 53.7605 102.695 53.7902 102.777 53.8538C102.858 53.9174 102.912 54.01 102.927 54.1122C102.942 54.2145 102.917 54.3185 102.857 54.4027C102.548 54.7991 101.916 54.3381 102.225 53.9094Z" fill="#407BFF"/>
<path d="M92.2398 49.2993C91.161 56.0806 95.0703 57.5604 96.5639 57.7264C97.9008 57.8739 102.437 58.4824 104.212 51.8486C105.987 45.2149 103.179 42.5687 100.164 41.9279C97.1494 41.2871 93.3185 42.518 92.2398 49.2993Z" fill="#AD6359"/>
<path d="M92.8068 48.3818C92.9681 48.3818 93.1203 48.3449 93.2678 48.3265C93.4335 48.3249 93.5947 48.2718 93.7288 48.1744C93.7665 48.1358 93.7899 48.0855 93.7949 48.0318C93.8 47.978 93.7864 47.9242 93.7564 47.8793C93.6856 47.797 93.5936 47.7356 93.4905 47.7014C93.3874 47.6673 93.2769 47.6619 93.171 47.6857C92.9511 47.6968 92.7436 47.7907 92.5901 47.9485C92.5564 47.9877 92.5351 48.0361 92.5287 48.0874C92.5224 48.1388 92.5313 48.1909 92.5545 48.2371C92.5776 48.2834 92.6139 48.3218 92.6588 48.3476C92.7037 48.3733 92.7552 48.3852 92.8068 48.3818Z" fill="#263238"/>
<path d="M97.0803 48.9582C96.9235 48.9259 96.7806 48.866 96.6193 48.8199C96.4521 48.7927 96.2984 48.7118 96.1813 48.5894C96.1514 48.5445 96.1378 48.4907 96.1428 48.4369C96.1478 48.3832 96.1712 48.3329 96.209 48.2943C96.2933 48.2267 96.394 48.1825 96.5008 48.1663C96.6077 48.1502 96.7169 48.1625 96.8175 48.2021C97.0305 48.2569 97.2169 48.3861 97.343 48.5663C97.3696 48.6086 97.3834 48.6576 97.3827 48.7076C97.382 48.7575 97.3668 48.8061 97.339 48.8476C97.3112 48.8891 97.2719 48.9216 97.226 48.9412C97.1801 48.9608 97.1295 48.9667 97.0803 48.9582Z" fill="#263238"/>
<path d="M95.9231 50.5535C95.9231 50.5535 95.96 50.5811 95.9554 50.5996C95.8862 51.0606 95.8909 51.6045 96.2919 51.8028C96.2919 51.8028 96.2919 51.835 96.2919 51.8304C95.7802 51.7014 95.7848 50.9822 95.9231 50.5535Z" fill="#263238"/>
<path d="M96.3934 50.1153C97.1494 50.1153 97.0388 51.6458 96.338 51.6227C95.6373 51.5997 95.7618 50.0922 96.3934 50.1153Z" fill="#263238"/>
<path d="M96.6838 50.2168C96.8083 50.309 96.9282 50.4704 97.0849 50.498C97.2416 50.5257 97.4168 50.3782 97.5459 50.2353C97.5459 50.2353 97.5736 50.2353 97.5736 50.2583C97.5736 50.5441 97.4214 50.8346 97.1126 50.853C96.8037 50.8714 96.6516 50.6041 96.5962 50.309C96.5824 50.2537 96.6331 50.1892 96.6838 50.2168Z" fill="#263238"/>
<path d="M93.5398 50.1892C93.5398 50.1892 93.503 50.1892 93.503 50.2307C93.503 50.6917 93.3923 51.2311 92.959 51.3555V51.3832C93.4984 51.3187 93.6182 50.6133 93.5398 50.1892Z" fill="#263238"/>
<path d="M93.1756 49.6543C92.4288 49.5483 92.2536 51.0373 92.9635 51.148C93.6735 51.2586 93.8026 49.7281 93.1756 49.6543Z" fill="#263238"/>
<path d="M92.8529 49.7281C92.7238 49.7926 92.5901 49.9263 92.4472 49.9217C92.3043 49.9171 92.1798 49.7419 92.0922 49.5759C92.0922 49.5759 92.0692 49.5759 92.0646 49.5759C92.0277 49.8617 92.0922 50.1706 92.3596 50.2536C92.627 50.3366 92.8206 50.1015 92.9174 49.8249C92.9359 49.7742 92.9036 49.6912 92.8529 49.7281Z" fill="#263238"/>
<path d="M93.8624 52.3051C93.8624 52.3051 93.7103 52.992 93.6826 53.3239C93.6826 53.3516 93.7564 53.3746 93.867 53.3884C94.1455 53.4621 94.4388 53.4581 94.7151 53.3768C94.9914 53.2955 95.2402 53.1401 95.4344 52.9274C95.4377 52.9208 95.4388 52.9134 95.4378 52.906C95.4368 52.8987 95.4336 52.8919 95.4286 52.8865C95.4236 52.881 95.4171 52.8771 95.4099 52.8754C95.4028 52.8737 95.3952 52.8741 95.3883 52.8767C94.9448 53.1272 94.4326 53.229 93.927 53.1672C93.927 53.0704 94.2312 51.9962 94.1805 51.987C93.9236 51.9907 93.6681 52.0264 93.4199 52.093C93.7011 50.6501 94.2128 49.2671 94.4709 47.8242C94.4709 47.8145 94.4679 47.8051 94.4622 47.7972C94.4566 47.7894 94.4486 47.7835 94.4394 47.7804C94.4302 47.7774 94.4203 47.7773 94.4111 47.7802C94.4019 47.7831 94.3938 47.7888 94.388 47.7965C93.7985 49.2681 93.3599 50.7957 93.0787 52.3558C93.0326 52.5402 93.7287 52.3512 93.8624 52.3051Z" fill="#263238"/>
<path d="M94.1068 53.2732C94.245 53.5161 94.4435 53.7193 94.6831 53.8633C94.8157 53.9345 94.9665 53.9649 95.1164 53.9509C95.4483 53.9094 95.4944 53.619 95.4714 53.3608C95.4576 53.2238 95.4266 53.089 95.3792 52.9597C95.0003 53.1996 94.5537 53.3096 94.1068 53.2732Z" fill="#263238"/>
<path d="M94.6831 53.877C94.8158 53.9482 94.9665 53.9787 95.1164 53.9646C95.4484 53.9231 95.4945 53.6327 95.4714 53.3746C95.3027 53.3578 95.1332 53.3982 94.9903 53.4894C94.8473 53.5805 94.7391 53.717 94.6831 53.877Z" fill="#FF99BA"/>
<path d="M103.456 53.9554C102.732 53.7433 101.243 49.9908 101.999 46.4365C101.999 46.4365 101.538 49.6635 101.672 50.1936C101.806 50.7238 100.87 48.8106 101.441 45.9432C100.394 46.3786 99.2907 46.6627 98.1636 46.7868C96.7253 46.8514 95.9047 46.6485 95.831 46.5287C95.7572 46.4088 97.887 46.2428 98.5647 45.7496C98.5647 45.7496 94.5955 46.5886 92.9128 46.3304C92.7192 46.3028 93.4983 42.5548 96.4349 41.4761C99.3714 40.3974 102.889 42.896 103.751 44.196C103.751 44.196 104.595 44.657 105.549 46.8514C106.503 49.0457 104.235 54.1859 103.456 53.9554Z" fill="#263238"/>
<path d="M101.049 52.033C101.049 52.033 102.621 49.9447 103.576 50.5163C104.53 51.088 103.29 54.149 102.133 54.5316C101.988 54.5914 101.833 54.6211 101.677 54.6192C101.52 54.6172 101.366 54.5835 101.223 54.5202C101.08 54.4569 100.951 54.3652 100.844 54.2506C100.738 54.1361 100.655 54.0012 100.602 53.854L101.049 52.033Z" fill="#AD6359"/>
<path d="M92.7653 45.0029C92.7653 45.0029 96.2136 37.9543 102.52 40.9784C108.827 44.0026 105.498 51.1204 105.498 51.1204L92.7653 45.0029Z" fill="#407BFF"/>
<path d="M106.198 50.8376L92.5197 44.2842L92.0397 45.2861L105.718 51.8395L106.198 50.8376Z" fill="#407BFF"/>
<path d="M96.504 46.1876L94.3742 45.1734L97.5782 39.9963L100.104 40.0839L96.504 46.1876Z" fill="#407BFF"/>
<path opacity="0.1" d="M96.504 46.1876L94.3742 45.1734L97.5782 39.9963L100.104 40.0839L96.504 46.1876Z" fill="black"/>
<path opacity="0.1" d="M93.0466 44.5049C95.1764 45.473 97.2832 46.501 99.3991 47.4922C101.515 48.4833 103.617 49.5252 105.706 50.5855C103.576 49.6174 101.469 48.594 99.353 47.5982C97.2371 46.6024 95.1349 45.579 93.0466 44.5049Z" fill="black"/>
<path d="M93.1711 78.8262L91.6959 89.0973H119.448C119.448 89.0973 114.442 66.0243 108.121 60.2987C104.738 57.233 102.451 56.5784 100.132 58.9157C99.5467 59.5104 92.5579 68.7442 91.8342 72.2847C91.1565 75.3964 93.1711 78.8262 93.1711 78.8262Z" fill="#407BFF"/>
<path d="M118.337 84.6119H92.3273L92.521 83.2981H117.973C118.111 83.7591 118.232 84.197 118.337 84.6119Z" fill="#EBEBEB"/>
<path d="M118.932 86.9953H91.9816L92.1568 85.686H118.591C118.729 86.147 118.839 86.608 118.932 86.9953Z" fill="#EBEBEB"/>
<path d="M102.608 64.328C101.174 68.5922 93.9823 82.9478 89.7688 83.7499C83.1627 85.0038 73.1728 83.6208 68.9408 83.2889C66.6358 83.1137 70.015 68.7997 72.4075 69.8C75.5239 71.0955 85.4677 71.6671 86.6755 71.7962C87.8833 71.9253 93.7242 65.3745 98.2005 60.8797C101.93 57.141 104.424 58.9205 102.608 64.328Z" fill="#AD6359"/>
<path d="M57.1209 68.3387C56.9338 68.6896 56.8587 69.0893 56.9056 69.4841C56.9526 69.8789 57.1194 70.2498 57.3836 70.5469C56.7875 70.8637 56.3211 71.379 56.0652 72.0037C55.6641 73.1239 57.2453 74.2441 57.2453 74.2441C56.6962 74.7021 56.2964 75.3137 56.0974 76.0006C55.8255 77.1116 57.2592 78.4669 57.2592 78.4669C56.9865 79.1662 56.9751 79.9404 57.2269 80.6474C57.9691 82.4914 60.984 83.0538 62.8972 83.4134C64.8103 83.773 70.582 83.0216 71.6977 82.9893L74.8048 71.3491C74.8048 71.3491 70.3054 66.8728 63.7408 66.5362C61.7631 66.4486 57.8769 67.0249 57.1209 68.3387Z" fill="#AD6359"/>
<path d="M57.4989 70.3671C59.5918 69.9706 61.6894 70.2103 63.7962 70.3348C63.8423 70.3348 63.8377 70.4131 63.7962 70.4085C61.7032 70.261 59.6057 70.533 57.5081 70.4685C57.4482 70.4731 57.4436 70.3763 57.4989 70.3671Z" fill="#263238"/>
<path d="M57.3099 74.0918C57.7942 74.0457 58.2826 74.0643 58.762 74.1471C59.2737 74.2024 59.7808 74.267 60.2925 74.3407C61.3113 74.4836 62.3301 74.6542 63.3397 74.8524C63.3858 74.8524 63.3858 74.9308 63.3397 74.9262C62.3255 74.7833 61.3067 74.6542 60.2833 74.5528L58.7482 74.4145C58.2617 74.4091 57.7775 74.3472 57.3052 74.2301C57.2913 74.2244 57.2794 74.2146 57.2712 74.2019C57.263 74.1893 57.2589 74.1744 57.2594 74.1593C57.2599 74.1443 57.265 74.1297 57.274 74.1176C57.283 74.1056 57.2955 74.0965 57.3099 74.0918Z" fill="#263238"/>
<path d="M57.296 78.4713C57.7346 78.4379 58.1756 78.4784 58.6007 78.5912C59.0617 78.6696 59.5227 78.7433 59.9837 78.8125C60.9056 78.9554 61.8276 79.0937 62.7496 79.2043C62.7957 79.2043 62.7911 79.2827 62.7496 79.2781C61.8 79.172 60.8503 79.0798 59.9007 78.9646L58.5177 78.7894C58.0883 78.7742 57.6652 78.6821 57.2684 78.5174C57.264 78.5131 57.2611 78.5074 57.2604 78.5012C57.2596 78.4951 57.2609 78.4888 57.2641 78.4835C57.2673 78.4782 57.2721 78.4741 57.2779 78.4719C57.2837 78.4697 57.2901 78.4695 57.296 78.4713Z" fill="#263238"/>
<path d="M91.6451 66.845L99.1778 73.3589C99.1778 73.3589 102.81 66.1581 103.235 61.7279C103.659 57.2977 101.529 57.7218 98.9842 59.7733C96.4395 61.8247 91.6451 66.845 91.6451 66.845Z" fill="#EBEBEB"/>
<path d="M93.3047 66.0843C93.2586 66.0428 93.2125 66.0843 93.2586 66.1074C95.2601 68.0502 97.3801 69.8669 99.6066 71.5472C99.6066 71.5472 99.6388 71.5472 99.6066 71.5195C98.6984 70.5007 93.8394 66.5638 93.3047 66.0843Z" fill="#263238"/>
<path d="M102.622 65.0425C101.649 68.0851 100.801 70.6851 99.3346 73.5295C99.0616 73.3846 98.814 73.1962 98.6016 72.9717C98.5509 72.9164 98.6016 72.8749 98.6661 72.9071C98.8501 73.0245 99.0428 73.1278 99.2424 73.216C100.418 70.6068 101.469 67.85 102.566 64.918C102.575 64.9088 102.631 65.0194 102.622 65.0425Z" fill="#263238"/>
<path d="M102.054 66.6375C102.256 66.2502 102.479 65.8746 102.723 65.5127C102.675 65.7305 102.59 65.9381 102.469 66.1258C102.356 66.3154 102.217 66.4877 102.054 66.6375Z" fill="#263238"/>
<path d="M109.186 58.1043C110.191 58.215 112.833 60.0728 113.303 61.9721C113.773 63.8715 112.284 66.7158 111.795 66.9279C111.307 67.1399 109.057 65.3559 108.292 64.019C107.794 63.1339 108.158 62.0782 108.356 61.0363C108.67 59.5058 109.029 58.0905 109.186 58.1043Z" fill="#263238"/>
<path d="M107.706 63.7977C107.374 61.8615 108.439 59.9207 109.066 58.155C109.066 58.155 109.103 58.155 109.098 58.155C108.767 59.8423 107.78 61.382 107.785 63.1338C107.764 63.6498 107.868 64.1632 108.087 64.6309C108.306 65.0986 108.634 65.5069 109.043 65.8215C109.842 66.3025 110.707 66.6629 111.611 66.891C111.671 66.891 111.634 66.9924 111.574 66.974C109.841 66.453 108.052 65.7984 107.706 63.7977Z" fill="#263238"/>
<path d="M109.407 58.2842C109.357 58.2565 109.407 58.1782 109.44 58.2012C110.878 58.8466 112.611 59.8009 113.4 61.23C114.257 62.7789 113.46 64.4293 112.75 65.84C112.75 65.84 112.713 65.84 112.722 65.84C113.418 64.3924 114.151 62.613 113.183 61.0963C112.353 59.8055 110.763 58.9158 109.407 58.2842Z" fill="#263238"/>
<path d="M111.851 66.8405C113.091 67.91 114.617 69.505 114.229 70.9572C113.842 72.4093 111.98 74.47 111.814 74.4608C111.648 74.4516 109.126 72.6629 108.697 70.8788C108.269 69.0947 111.689 66.7022 111.851 66.8405Z" fill="#263238"/>
<path d="M111.685 74.5668C112.846 73.6863 114.225 72.4646 114.391 70.9157C114.557 69.3667 113.068 67.9145 112.04 67.0202C112.04 67.0202 112.04 66.9879 112.04 67.0202C113.174 67.85 114.603 69.3252 114.506 70.8557C114.409 72.3862 112.962 73.9352 111.699 74.6359C111.685 74.6221 111.657 74.5852 111.685 74.5668Z" fill="#263238"/>
<path d="M111.897 74.0781C111.562 74.5572 111.329 75.0995 111.212 75.6719C111.095 76.2442 111.095 76.8345 111.215 77.4065C111.717 79.6839 110.754 79.5825 108.638 81.0945C106.858 82.3623 107.324 84.7364 108.808 85.4049C108.496 85.1082 108.311 84.7015 108.294 84.2711C108.277 83.8407 108.428 83.4205 108.716 83.0999C109.988 81.6708 114.285 81.8828 115.198 78.9186C116.378 75.0831 111.897 74.0781 111.897 74.0781Z" fill="#263238"/>
<path d="M111.454 75.4013C111.454 75.3644 111.404 75.3367 111.385 75.3736C111.226 75.7512 111.134 76.1537 111.113 76.563C111.113 77.0931 111.284 77.5864 111.302 78.112C111.344 79.4535 109.919 79.979 108.919 80.463C107.582 81.1084 106.812 82.39 107.31 83.8698C107.31 83.8929 107.347 83.8698 107.342 83.8698C107.194 83.4115 107.174 82.9212 107.284 82.4523C107.395 81.9834 107.632 81.5537 107.969 81.2099C108.638 80.5506 109.615 80.3662 110.366 79.8269C110.641 79.672 110.876 79.4566 111.054 79.1969C111.232 78.9372 111.349 78.6402 111.394 78.3286C111.386 77.9654 111.342 77.604 111.261 77.2499C111.166 76.6273 111.233 75.9908 111.454 75.4013Z" fill="#263238"/>
<path d="M112.362 74.1934C112.362 74.1934 112.335 74.2164 112.362 74.221C113.446 74.682 114.58 75.143 115.253 76.1572C115.582 76.719 115.749 77.3608 115.736 78.0116C115.723 78.6624 115.53 79.297 115.179 79.8452C114.446 81.0853 113.146 81.1544 111.865 81.3988C110.928 81.5142 110.04 81.8788 109.292 82.4545C109.292 82.4545 109.292 82.5098 109.329 82.496C110.56 81.6339 111.966 81.5417 113.39 81.2236C113.923 81.1167 114.414 80.8618 114.808 80.4884C115.202 80.1149 115.482 79.6379 115.617 79.1122C116.41 76.6182 114.607 74.8664 112.362 74.1934Z" fill="#263238"/>
<path d="M131.111 175.198C133.242 175.203 135.329 175.802 137.138 176.929C138.947 178.055 140.405 179.664 141.35 181.574H131.973L130.157 186.645L131.955 191.753H141.341C140.425 193.575 139.04 195.121 137.328 196.229C135.616 197.338 133.639 197.969 131.601 198.058C129.564 198.146 127.539 197.689 125.737 196.734C123.935 195.779 122.421 194.36 121.351 192.624C120.28 190.887 119.693 188.897 119.649 186.858C119.606 184.819 120.107 182.805 121.102 181.024C122.097 179.244 123.549 177.761 125.309 176.73C127.068 175.698 129.071 175.155 131.111 175.157V175.198Z" fill="#455A64"/>
<path d="M65.2434 197.99C63.1123 197.987 61.0244 197.388 59.2148 196.263C57.4051 195.137 55.9454 193.529 55 191.619H64.3767L66.2207 186.521L64.3952 181.436H55.0138C55.9261 179.611 57.3091 178.064 59.0199 176.953C60.7306 175.842 62.707 175.209 64.7447 175.118C66.7824 175.027 68.8074 175.481 70.6104 176.435C72.4134 177.389 73.9289 178.807 75.0003 180.543C76.0716 182.278 76.6599 184.269 76.7043 186.308C76.7488 188.347 76.2477 190.361 75.253 192.142C74.2582 193.923 72.8059 195.405 71.0462 196.437C69.2864 197.468 67.2831 198.011 65.2434 198.009V197.99Z" fill="#455A64"/>
<path d="M71.6339 181.43L71.6161 191.632L127.323 191.73L127.341 181.528L71.6339 181.43Z" fill="#455A64"/>
<path d="M88.008 184.46L88.0007 188.66L110.94 188.7L110.947 184.5L88.008 184.46Z" fill="#37474F"/>
</svg>
