<svg width="101" height="100" viewBox="0 0 101 100" fill="none" xmlns="http://www.w3.org/2000/svg">
<g clip-path="url(#clip0_1929_19618)">
<path d="M45.3185 100.003C43.4737 99.4966 41.6654 98.9591 40.0711 97.8084C35.1134 94.2075 33.6966 87.5511 36.786 82.3481C38.2699 79.8068 40.6619 77.9225 43.4799 77.0746C46.2979 76.2268 49.3325 76.4786 51.9723 77.7792C52.1732 77.8757 52.3715 77.9801 52.7395 78.1653V39.2863C52.7395 36.8675 53.3109 36.1003 55.6097 35.4506L95.4385 24.1861C97.8913 23.492 98.7445 23.8286 100.007 25.9787V78.1262C99.937 78.3349 99.8535 78.5411 99.804 78.7524C98.7759 83.2353 96.1509 86.343 91.7385 87.7207C87.4044 89.0776 83.4982 88.0756 80.187 84.9887C78.387 83.2693 77.1841 81.0192 76.7543 78.5673C76.3244 76.1154 76.6901 73.5903 77.7979 71.3611C78.9056 69.1319 80.6974 67.3155 82.9112 66.1773C85.1251 65.0391 87.6449 64.6389 90.1025 65.0352C91.4724 65.2752 92.7901 65.818 94.1234 66.2355V42.3784L58.6105 52.4138V53.6194C58.6105 65.1369 58.6105 76.6554 58.6105 88.1747C58.6318 90.6329 57.8792 93.0354 56.4593 95.0421C55.0394 97.0488 53.0241 98.5579 50.6989 99.3557C49.9161 99.6166 49.076 99.7889 48.2618 100.003H45.3185Z" fill="#084C94"/>
<path d="M23.4367 12.5507V13.9128C23.4367 28.8852 23.4367 43.8584 23.4367 58.8324C23.4367 65.6428 18.0171 70.8902 11.2459 70.6971C5.42445 70.5301 0.411929 65.6741 0.0257479 59.8318C-0.37087 53.8538 3.85883 48.4369 9.65676 47.4479C12.0774 47.0223 14.5706 47.3787 16.775 48.4656L17.5813 48.8413V3.86166C17.5813 3.50419 17.5813 3.14671 17.5813 2.78923C17.6074 2.18396 17.8229 1.60217 18.1975 1.12601C18.572 0.649852 19.0867 0.303387 19.6688 0.13554C20.2314 -0.0495411 20.8383 -0.0504055 21.4014 0.133072C21.9645 0.316549 22.4544 0.674808 22.8 1.15579C23.5828 2.19952 24.3004 3.28239 24.984 4.38875C28.7884 10.5442 33.8218 15.5462 39.5963 19.8099C42.5813 22.0096 44.995 24.5615 46.1535 28.1728C49.1281 37.4568 42.1743 47.2 32.5067 47.2601C30.6802 47.2601 29.3442 46.112 29.279 44.4446C29.2137 42.7381 30.4975 41.4804 32.3841 41.4021C36.238 41.2403 39.471 38.8215 40.5826 35.265C41.15 33.5166 41.148 31.6333 40.5768 29.8862C40.0057 28.1391 38.8949 26.6182 37.4044 25.5426C32.3788 21.7773 27.6116 17.7094 23.4367 12.5507Z" fill="#084C94"/>
</g>
<defs>
<clipPath id="clip0_1929_19618">
<rect width="100.008" height="100" fill="white"/>
</clipPath>
</defs>
</svg>
