<svg width="256" height="250" viewBox="0 0 256 250" fill="none" xmlns="http://www.w3.org/2000/svg">
<path d="M27.7652 100.513H24.6123C21.229 100.513 17.9842 101.857 15.5919 104.249C13.1995 106.641 11.8555 109.886 11.8555 113.269V183.272C11.8555 186.656 13.1995 189.9 15.5919 192.293C17.9842 194.685 21.229 196.029 24.6123 196.029H67.8682C71.2515 196.029 74.4963 194.685 76.8887 192.293C79.281 189.9 80.6251 186.656 80.6251 183.272" stroke="#263238" stroke-width="1.10311" stroke-linecap="round" stroke-linejoin="round" stroke-dasharray="4.41 4.41"/>
<path d="M77.0996 34.4595V20.6323C77.0996 18.5634 77.9203 16.5789 79.3816 15.1143C80.8429 13.6497 82.8256 12.8246 84.8945 12.82H141.146C143.218 12.82 145.205 13.6431 146.67 15.1082C148.135 16.5733 148.958 18.5604 148.958 20.6323" stroke="#263238" stroke-width="1.10311" stroke-linecap="round" stroke-linejoin="round" stroke-dasharray="4.41 4.41"/>
<path d="M127.708 250C189.237 250 239.116 243.031 239.116 234.434C239.116 225.836 189.237 218.867 127.708 218.867C66.1783 218.867 16.2988 225.836 16.2988 234.434C16.2988 243.031 66.1783 250 127.708 250Z" fill="#F5F5F5"/>
<path d="M232.729 53.0102V157.753C232.729 161.177 231.369 164.46 228.949 166.882C226.528 169.304 223.245 170.665 219.821 170.667H35.5937C32.1697 170.665 28.8865 169.304 26.4659 166.882C24.0453 164.46 22.6855 161.177 22.6855 157.753V53.0102C22.6855 52.7019 22.6855 52.4285 22.7263 52.1028C22.953 48.8445 24.4071 45.7934 26.7952 43.5652C29.1832 41.3369 32.3275 40.0972 35.5937 40.0963H219.821C223.091 40.0976 226.238 41.3405 228.627 43.5737C231.015 45.8068 232.467 48.8636 232.688 52.126C232.717 52.4052 232.729 52.7077 232.729 53.0102Z" fill="white" stroke="#263238" stroke-width="1.10311" stroke-linecap="round" stroke-linejoin="round"/>
<path d="M28.9688 56.9426H227.104V153.698C227.104 156.907 225.83 159.985 223.561 162.254C221.292 164.523 218.214 165.798 215.005 165.798H41.0741C37.8651 165.798 34.7875 164.523 32.5184 162.254C30.2493 159.985 28.9746 156.907 28.9746 153.698V56.9426H28.9688Z" fill="white"/>
<path opacity="0.2" d="M227.11 56.9426V153.698C227.128 156.889 225.877 159.956 223.633 162.225C221.389 164.494 218.336 165.779 215.145 165.798H40.9347C37.7436 165.779 34.6906 164.494 32.4467 162.225C30.2028 159.956 28.9519 156.889 28.9689 153.698V56.9426H227.11Z" fill="white"/>
<path d="M232.688 52.1261H22.7266C22.9533 48.8678 24.4074 45.8167 26.7955 43.5885C29.1835 41.3602 32.3278 40.1206 35.594 40.1196H219.821C223.087 40.1206 226.232 41.3602 228.62 43.5885C231.008 45.8167 232.462 48.8678 232.688 52.1261Z" fill="#FF6C37" stroke="#263238" stroke-width="1.10311" stroke-miterlimit="10"/>
<path d="M48.5254 46.0995C48.5254 46.5517 48.3913 46.9937 48.1401 47.3696C47.8889 47.7456 47.5318 48.0386 47.1141 48.2116C46.6964 48.3846 46.2367 48.4299 45.7932 48.3417C45.3498 48.2535 44.9424 48.0358 44.6227 47.716C44.303 47.3963 44.0853 46.989 43.9971 46.5455C43.9088 46.1021 43.9541 45.6424 44.1271 45.2247C44.3002 44.8069 44.5932 44.4499 44.9691 44.1987C45.3451 43.9475 45.7871 43.8134 46.2392 43.8134C46.8456 43.8134 47.427 44.0543 47.8558 44.483C48.2845 44.9117 48.5254 45.4932 48.5254 46.0995Z" fill="#263238"/>
<path d="M58.1933 46.0995C58.1933 46.5517 58.0592 46.9937 57.808 47.3696C57.5568 47.7456 57.1998 48.0386 56.7821 48.2116C56.3643 48.3846 55.9047 48.4299 55.4612 48.3417C55.0177 48.2535 54.6104 48.0358 54.2907 47.716C53.971 47.3963 53.7532 46.989 53.665 46.5455C53.5768 46.1021 53.6221 45.6424 53.7951 45.2247C53.9681 44.8069 54.2612 44.4499 54.6371 44.1987C55.0131 43.9475 55.4551 43.8134 55.9072 43.8134C56.5135 43.8134 57.095 44.0543 57.5237 44.483C57.9525 44.9117 58.1933 45.4932 58.1933 46.0995Z" fill="#263238"/>
<path d="M65.5752 48.3856C66.8378 48.3856 67.8613 47.3621 67.8613 46.0995C67.8613 44.8369 66.8378 43.8134 65.5752 43.8134C64.3126 43.8134 63.2891 44.8369 63.2891 46.0995C63.2891 47.3621 64.3126 48.3856 65.5752 48.3856Z" fill="#263238"/>
<path d="M227.105 56.9426V153.698C227.105 156.907 225.83 159.985 223.561 162.254C221.292 164.523 218.214 165.798 215.005 165.798H41.0742C38.2735 165.797 35.5597 164.825 33.3957 163.047C31.2316 161.269 29.7514 158.796 29.2074 156.048V156.013C29.0595 155.247 28.9855 154.467 28.9863 153.687V56.9426H227.105Z" stroke="#263238" stroke-width="1.10311" stroke-miterlimit="10"/>
<path d="M226.917 71.9041C226.069 71.4278 225.167 71.0548 224.23 70.7931L223.142 65.9358H218.523L217.447 70.7931C216.505 71.0501 215.598 71.4233 214.748 71.9041L210.577 69.2341L207.314 72.4859L209.937 76.6567C209.457 77.5071 209.084 78.4137 208.826 79.3558L203.969 80.432V85.0508L208.826 86.1386C209.081 87.0854 209.454 87.9962 209.937 88.8493L207.267 93.0493L210.536 96.3126L214.73 93.6426C215.579 94.1242 216.483 94.4994 217.424 94.7595L218.506 99.6109H223.107L224.189 94.7595C225.126 94.4968 226.029 94.1218 226.876 93.6426L227.092 93.7822V71.7878L226.917 71.9041ZM220.844 88.7737C219.663 88.7737 218.509 88.4235 217.528 87.7675C216.546 87.1114 215.781 86.1789 215.33 85.088C214.878 83.9971 214.76 82.7968 214.991 81.6389C215.222 80.481 215.791 79.4175 216.626 78.5831C217.461 77.7486 218.525 77.1806 219.683 76.951C220.841 76.7214 222.042 76.8404 223.132 77.293C224.223 77.7456 225.154 78.5115 225.809 79.4938C226.465 80.476 226.814 81.6305 226.812 82.8112C226.812 83.5947 226.658 84.3705 226.358 85.0943C226.058 85.8181 225.618 86.4756 225.064 87.0294C224.51 87.5831 223.852 88.0222 223.128 88.3215C222.404 88.6208 221.628 88.7745 220.844 88.7737Z" fill="#DEE9FF"/>
<path d="M143.675 76.5869V66.8491L133.437 64.5746C132.884 62.5963 132.103 60.6891 131.11 58.8913L132.349 56.9426H84.0091L85.2016 58.839C84.1959 60.6288 83.4144 62.5357 82.8747 64.5165L72.6309 66.7968V76.5578L82.8747 78.8439C83.4144 80.8395 84.1958 82.7618 85.2016 84.568L79.5765 93.4157L86.4697 100.303L95.3117 94.6722C97.1054 95.6813 99.0134 96.4722 100.995 97.0282L103.275 107.237H112.99L115.282 97.0049C117.257 96.4463 119.159 95.6554 120.948 94.649L129.795 100.28L136.683 93.3925L131.093 84.5447C132.084 82.7498 132.864 80.8467 133.419 78.873L143.675 76.5869ZM108.191 84.3004C105.702 84.3004 103.269 83.5624 101.2 82.1799C99.1312 80.7973 97.5185 78.8322 96.5661 76.5331C95.6138 74.2339 95.3646 71.704 95.8501 69.2633C96.3356 66.8226 97.534 64.5806 99.2936 62.8209C101.053 61.0613 103.295 59.8629 105.736 59.3774C108.177 58.8919 110.707 59.1411 113.006 60.0934C115.305 61.0458 117.27 62.6585 118.653 64.7276C120.035 66.7968 120.773 69.2295 120.773 71.718C120.774 73.3706 120.449 75.0071 119.817 76.534C119.185 78.0609 118.258 79.4483 117.089 80.6168C115.921 81.7853 114.534 82.7121 113.007 83.3442C111.48 83.9762 109.843 84.3011 108.191 84.3004Z" fill="#DEE9FF"/>
<path d="M79.0655 143.454L79.4785 135.723L71.4684 133.466C71.0965 131.878 70.5462 130.336 69.828 128.871L74.6678 122.077L69.4789 116.323L62.2309 120.395C60.8454 119.524 59.3639 118.815 57.8157 118.284L56.4312 110.07L48.7061 109.715L46.4724 117.749C44.8808 118.106 43.3379 118.652 41.8769 119.377L35.0883 114.543L29.3236 119.726L33.4305 126.98C32.55 128.36 31.8391 129.84 31.313 131.39L28.9862 131.774V142.244L30.6848 142.721C31.0372 144.315 31.5822 145.86 32.3078 147.323L28.9688 152.005L29.1898 156.013V156.048L32.6393 159.87L39.8991 155.769C41.2821 156.659 42.7687 157.376 44.3259 157.904L45.6871 165.792L45.751 166.124L53.4761 166.531L53.6797 165.792L55.7099 158.503C57.3086 158.145 58.8591 157.598 60.3287 156.874L67.1056 161.703L72.8645 156.525L68.7925 149.266C69.6648 147.888 70.3661 146.409 70.8809 144.862L79.0655 143.454ZM58.5486 131.384C57.2254 129.912 55.4953 128.866 53.5772 128.377C51.6592 127.889 49.6394 127.98 47.7733 128.64C45.9072 129.3 44.2787 130.498 43.0938 132.083C41.9089 133.669 41.2208 135.57 41.1166 137.546C41.0124 139.523 41.4968 141.486 42.5084 143.187C43.5201 144.888 45.0135 146.251 46.7999 147.104C48.5863 147.956 50.5853 148.259 52.5441 147.975C54.5028 147.691 56.3333 146.832 57.804 145.508C59.7677 143.734 60.9485 141.254 61.0881 138.611C61.2276 135.969 60.3145 133.378 58.5486 131.407V131.384Z" fill="#DEE9FF"/>
<path d="M140.853 131.931C141.152 130.734 141.31 129.506 141.325 128.272L146.88 125.363L145.344 119.726L139.073 120.017C138.438 118.964 137.683 117.988 136.822 117.109L138.678 111.111L133.617 108.203L129.382 112.822C128.187 112.533 126.964 112.377 125.735 112.356L122.826 106.801L117.195 108.331L117.492 114.607C116.438 115.242 115.462 115.998 114.583 116.859L108.58 115.003L105.672 120.058L110.325 124.287C110.024 125.48 109.87 126.704 109.866 127.934L104.299 130.843L105.835 136.474L112.117 136.177C112.74 137.236 113.492 138.213 114.357 139.086L112.489 145.054L117.556 147.963L121.768 143.379C122.964 143.68 124.193 143.834 125.426 143.838L128.335 149.399L133.966 147.869L133.716 142.506L133.675 141.587C134.744 140.958 135.732 140.202 136.619 139.336L142.616 141.197L145.094 136.869L145.513 136.136L140.853 131.931ZM127.55 135.351C126.106 135.749 124.576 135.71 123.154 135.237C121.733 134.765 120.484 133.881 119.565 132.698C118.647 131.514 118.101 130.085 117.996 128.591C117.891 127.097 118.232 125.605 118.976 124.305C119.72 123.005 120.833 121.955 122.175 121.288C123.516 120.622 125.026 120.369 126.511 120.562C127.997 120.754 129.392 121.383 130.519 122.37C131.646 123.356 132.455 124.655 132.843 126.102C133.36 128.03 133.094 130.085 132.103 131.817C131.111 133.55 129.474 134.82 127.55 135.351Z" fill="#DEE9FF"/>
<path d="M205.262 141.843L206.541 134.106L198.712 130.959C198.534 129.31 198.157 127.689 197.589 126.131L203.226 119.854L198.665 113.456L190.893 116.754C189.603 115.72 188.193 114.845 186.694 114.148L186.24 105.719L178.503 104.439L175.333 112.234C173.691 112.427 172.077 112.807 170.522 113.368L164.228 107.732L157.858 112.292L161.162 120.058C160.253 121.193 159.463 122.419 158.806 123.717C158.719 123.897 158.626 124.078 158.545 124.258L150.122 124.723L148.836 132.448L150.104 132.96L156.666 135.607C156.845 137.248 157.222 138.861 157.788 140.412L152.14 146.729L156.706 153.128L164.472 149.812C165.758 150.856 167.167 151.739 168.666 152.442L169.103 160.83L176.834 162.11L179.998 154.373C181.643 154.193 183.261 153.814 184.815 153.244L191.097 158.881L197.496 154.315L194.192 146.543C195.244 145.252 196.133 143.835 196.839 142.326L205.262 141.843ZM183.564 141.494C181.936 142.662 179.999 143.321 177.997 143.387C175.995 143.454 174.018 142.925 172.316 141.868C170.615 140.811 169.265 139.273 168.437 137.449C167.61 135.625 167.342 133.596 167.667 131.62C167.993 129.643 168.897 127.807 170.266 126.345C171.635 124.882 173.406 123.859 175.357 123.403C177.308 122.948 179.35 123.081 181.225 123.786C183.1 124.491 184.724 125.736 185.891 127.364C187.454 129.548 188.086 132.264 187.648 134.913C187.209 137.563 185.736 139.93 183.552 141.494H183.564Z" fill="#DEE9FF"/>
<path d="M100.414 84.5679H39.5793C35.3675 84.5679 31.9531 87.9823 31.9531 92.1941V176.42C31.9531 180.632 35.3675 184.046 39.5793 184.046H100.414C104.626 184.046 108.041 180.632 108.041 176.42V92.1941C108.041 87.9823 104.626 84.5679 100.414 84.5679Z" fill="#FF6C37" stroke="#263238" stroke-width="1.10311" stroke-miterlimit="10"/>
<path opacity="0.2" d="M100.414 84.5679H39.5793C35.3675 84.5679 31.9531 87.9823 31.9531 92.1941V176.42C31.9531 180.632 35.3675 184.046 39.5793 184.046H100.414C104.626 184.046 108.041 180.632 108.041 176.42V92.1941C108.041 87.9823 104.626 84.5679 100.414 84.5679Z" fill="black"/>
<path d="M115.121 99.7098V183.935C115.121 184.937 114.925 185.93 114.542 186.856C114.159 187.782 113.597 188.623 112.889 189.332C112.181 190.04 111.34 190.603 110.414 190.986C109.489 191.37 108.497 191.567 107.495 191.567H46.6594C45.658 191.567 44.6664 191.369 43.7415 190.985C42.8165 190.601 41.9762 190.038 41.2686 189.33C40.561 188.621 39.9999 187.78 39.6173 186.854C39.2348 185.929 39.0383 184.937 39.0391 183.935V99.7098C39.0391 97.6882 39.8417 95.7493 41.2707 94.3193C42.6996 92.8893 44.6379 92.0851 46.6594 92.0836H107.495C109.517 92.0836 111.457 92.8871 112.887 94.3172C114.317 95.7474 115.121 97.6872 115.121 99.7098Z" fill="white" stroke="#263238" stroke-width="1.10311" stroke-linecap="round" stroke-linejoin="round"/>
<path d="M115.121 99.7098V104.218H39.0391V99.7098C39.0391 97.6882 39.8417 95.7493 41.2707 94.3193C42.6996 92.8893 44.6379 92.0851 46.6594 92.0836H107.495C109.517 92.0836 111.457 92.8871 112.887 94.3172C114.317 95.7474 115.121 97.6872 115.121 99.7098Z" fill="#FF6C37" stroke="#263238" stroke-width="1.10311" stroke-miterlimit="10"/>
<path d="M64.9127 109.442H46.1934V112.583H64.9127V109.442Z" fill="#FF6C37"/>
<path d="M64.9127 137.591H46.1934V140.732H64.9127V137.591Z" fill="#FF6C37"/>
<path d="M64.9127 163.116H46.1934V166.257H64.9127V163.116Z" fill="#FF6C37"/>
<path d="M99.3557 117.219H46.1934V119.523H99.3557V117.219Z" fill="#263238"/>
<path d="M89.7691 121.623H46.1934V123.868H89.7691V121.623Z" fill="#263238"/>
<path d="M95.4757 125.956H46.1934V128.202H95.4757V125.956Z" fill="#263238"/>
<path d="M95.4757 130.284H46.1934V132.53H95.4757V130.284Z" fill="#263238"/>
<path d="M99.3557 142.745H46.1934V145.048H99.3557V142.745Z" fill="#263238"/>
<path d="M89.7691 147.148H46.1934V149.394H89.7691V147.148Z" fill="#263238"/>
<path d="M95.4757 151.482H46.1934V153.727H95.4757V151.482Z" fill="#263238"/>
<path d="M99.3557 170.771H46.1934V173.075H99.3557V170.771Z" fill="#263238"/>
<path d="M89.7691 175.181H46.1934V177.426H89.7691V175.181Z" fill="#263238"/>
<path d="M95.4757 179.514H46.1934V181.76H95.4757V179.514Z" fill="#263238"/>
<path d="M200.87 33.68V67.7216C200.87 68.9161 200.635 70.0989 200.177 71.2024C199.72 72.3059 199.05 73.3084 198.205 74.1528C197.36 74.9971 196.357 75.6667 195.253 76.1233C194.149 76.5799 192.967 76.8145 191.772 76.8137H113.369C112.175 76.8145 110.992 76.5799 109.888 76.1233C108.784 75.6667 107.781 74.9971 106.937 74.1528C106.092 73.3084 105.421 72.3059 104.964 71.2024C104.507 70.0989 104.271 68.9161 104.271 67.7216V33.68C104.273 31.2676 105.232 28.9544 106.938 27.2485C108.644 25.5427 110.957 24.5837 113.369 24.5821H191.772C194.185 24.5821 196.499 25.5407 198.205 27.2468C199.911 28.953 200.87 31.2671 200.87 33.68Z" fill="white" stroke="#222221" stroke-width="1.10311" stroke-miterlimit="10"/>
<path d="M200.87 33.68V34.4595H104.271V33.68C104.273 31.2676 105.232 28.9544 106.938 27.2485C108.644 25.5427 110.957 24.5837 113.369 24.5821H191.772C194.185 24.5821 196.499 25.5407 198.205 27.2468C199.911 28.953 200.87 31.2671 200.87 33.68Z" fill="#FF6C37" stroke="#263238" stroke-width="1.10311" stroke-miterlimit="10"/>
<path d="M118.465 31.1496C118.269 31.3452 118.021 31.4785 117.75 31.5326C117.479 31.5868 117.198 31.5593 116.943 31.4538C116.687 31.3482 116.469 31.1693 116.316 30.9396C116.162 30.7099 116.08 30.4399 116.08 30.1636C116.08 29.8874 116.162 29.6173 116.316 29.3876C116.469 29.158 116.687 28.979 116.943 28.8735C117.198 28.7679 117.479 28.7404 117.75 28.7946C118.021 28.8487 118.269 28.982 118.465 29.1776C118.724 29.4401 118.87 29.7944 118.87 30.1636C118.87 30.5328 118.724 30.8871 118.465 31.1496Z" fill="#263238"/>
<path d="M124.933 31.1496C124.738 31.3452 124.489 31.4785 124.219 31.5326C123.948 31.5868 123.667 31.5593 123.411 31.4538C123.156 31.3482 122.938 31.1693 122.784 30.9396C122.631 30.7099 122.549 30.4399 122.549 30.1636C122.549 29.8874 122.631 29.6173 122.784 29.3876C122.938 29.158 123.156 28.979 123.411 28.8735C123.667 28.7679 123.948 28.7404 124.219 28.7946C124.489 28.8487 124.738 28.982 124.933 29.1776C125.193 29.4401 125.339 29.7944 125.339 30.1636C125.339 30.5328 125.193 30.8871 124.933 31.1496Z" fill="#263238"/>
<path d="M131.402 31.1496C131.207 31.3452 130.958 31.4785 130.687 31.5326C130.416 31.5868 130.136 31.5593 129.88 31.4538C129.625 31.3482 129.407 31.1693 129.253 30.9396C129.1 30.7099 129.018 30.4399 129.018 30.1636C129.018 29.8874 129.1 29.6173 129.253 29.3876C129.407 29.158 129.625 28.979 129.88 28.8735C130.136 28.7679 130.416 28.7404 130.687 28.7946C130.958 28.8487 131.207 28.982 131.402 29.1776C131.662 29.4401 131.807 29.7944 131.807 30.1636C131.807 30.5328 131.662 30.8871 131.402 31.1496Z" fill="#263238"/>
<path d="M142.007 40.7187H110.432V68.0125H142.007V40.7187Z" stroke="#263238" stroke-width="1.10311" stroke-linecap="round" stroke-linejoin="round" stroke-dasharray="4.41 4.41"/>
<path d="M183.22 40.7187H146.881V42.6384H183.22V40.7187Z" fill="#263238"/>
<path d="M174.756 44.6918H146.881V46.6056H174.756V44.6918Z" fill="#263238"/>
<path d="M188.386 48.6474H146.881V50.5845H188.386V48.6474Z" fill="#263238"/>
<path d="M182.225 52.5041H146.881V54.4412H182.225V52.5041Z" fill="#263238"/>
<path d="M203.511 118.167H185.74C183.642 118.167 181.941 119.868 181.941 121.966V132.396C181.941 134.494 183.642 136.195 185.74 136.195H203.511C205.609 136.195 207.31 134.494 207.31 132.396V121.966C207.31 119.868 205.609 118.167 203.511 118.167Z" fill="white" stroke="#263238" stroke-width="1.10311" stroke-linecap="round" stroke-linejoin="round"/>
<path d="M190.127 123.589L185.246 126.649L189.778 130.663" stroke="#263238" stroke-width="1.10311" stroke-linecap="round" stroke-linejoin="round"/>
<path d="M199.015 130.953L203.401 127.219L198.34 123.903" stroke="#263238" stroke-width="1.10311" stroke-linecap="round" stroke-linejoin="round"/>
<path d="M192.498 133.257L196.099 121.96" stroke="#263238" stroke-width="1.10311" stroke-linecap="round" stroke-linejoin="round"/>
<path d="M154.966 231.566C154.966 231.566 138.096 236.4 135.741 237.237C133.6 237.994 127.794 240.03 123.437 239.396C123.017 239.335 122.601 239.246 122.193 239.128C117.777 237.813 115.794 236.586 115.212 233.811C114.63 231.036 116.829 228.989 118.947 227.68C121.064 226.371 132.547 225.004 132.547 225.004L135.322 225.818L154.966 231.566Z" fill="#407BFF"/>
<path d="M123.437 239.396C123.017 239.335 122.601 239.246 122.193 239.128C117.777 237.813 115.794 236.586 115.212 233.811C114.63 231.036 116.829 228.989 118.947 227.68C121.064 226.371 132.547 225.004 132.547 225.004L135.322 225.818C132.809 226.982 123.455 227.616 121.413 228.791C119.371 229.966 118.388 232.177 119.592 235.19C120.238 236.76 121.96 238.302 123.437 239.396Z" fill="white"/>
<path d="M152.43 232.252C152.43 232.252 139.76 235.533 134.734 237.633C129.708 239.733 120.127 240.652 116.701 236.324C113.275 231.996 116.306 228.262 119.72 227.43C123.135 226.598 130.04 225.289 133.809 225.818" stroke="#263238" stroke-width="1.10311" stroke-linecap="round" stroke-linejoin="round"/>
<path d="M123.687 239.169C123.687 239.169 117.242 235.632 119.383 230.676C120.965 227.023 129.563 227.814 133.821 225.818" stroke="#263238" stroke-width="1.10311" stroke-linecap="round" stroke-linejoin="round"/>
<path d="M206.348 240.181C206.173 241.926 205.563 243.56 203.817 244.59C202.654 245.277 201.002 245.684 198.634 245.66C192.718 245.585 181.596 241.356 181.596 241.356L171.184 235.597L176.599 227.028L178.083 224.702L181.91 225.562C181.91 225.562 185.081 227.36 188.268 228.791C191.456 230.222 199.199 230.536 201.927 232.729C204.655 234.922 206.645 237.307 206.348 240.181Z" fill="#407BFF"/>
<path d="M206.348 240.181C206.174 241.926 205.563 243.56 203.818 244.59C204.32 242.875 204.218 241.038 203.527 239.39C202.363 236.778 198.577 234.474 193.597 234.09C188.618 233.706 184.808 231.38 182.812 230.338C181.253 229.53 177.967 227.761 176.6 227.028L178.083 224.702L181.911 225.562C181.911 225.562 185.081 227.36 188.269 228.791C191.456 230.222 199.199 230.536 201.927 232.729C204.655 234.922 206.645 237.307 206.348 240.181Z" fill="white"/>
<path d="M173.492 237.214C180.987 241.571 189.271 244.4 197.866 245.538C199.762 245.765 201.967 245.8 203.235 244.375C203.572 243.963 203.823 243.488 203.973 242.977C204.123 242.467 204.169 241.931 204.107 241.402C203.881 238.727 201.629 236.609 199.163 235.545C196.696 234.48 193.98 234.236 191.356 233.648C188.747 233.06 186.225 232.137 183.852 230.903C181.968 229.919 180.147 228.727 178.07 228.285C175.993 227.843 173.521 228.378 172.41 230.193" stroke="#263238" stroke-width="1.10311" stroke-linecap="round" stroke-linejoin="round"/>
<path d="M202.538 245.102C203.513 244.635 204.365 243.947 205.027 243.093C205.688 242.239 206.141 241.241 206.349 240.181C206.727 237.662 205.29 235.126 203.271 233.578C201.253 232.031 198.722 231.298 196.227 230.78C193.731 230.263 191.178 229.914 188.787 228.965C185.14 227.534 181.539 224.719 177.734 225.725" stroke="#263238" stroke-width="1.10311" stroke-linecap="round" stroke-linejoin="round"/>
<path d="M185.245 147.096L167.625 140.395L167.404 140.307C167.404 140.307 167.468 139.842 167.52 139.144C167.631 137.736 167.689 135.444 167.026 134.67C166.042 133.507 163.262 134.484 160.545 133.239C157.829 131.995 152.809 134.223 152.809 134.223C152.809 134.223 149.179 133.554 147.573 136.171C146.759 138.283 147.038 141.407 147.038 141.407L146.706 141.523C144.607 142.308 133.182 146.607 130.768 148.335C128.098 150.225 125.143 169.637 124.194 175.338C123.246 181.038 121.559 186.175 122.414 188.135C123.269 190.096 135.543 199.548 142.605 201.986C149.667 204.423 174.71 203.731 174.71 203.731C174.71 203.731 175.117 203.62 175.844 203.388C180.079 202.027 195.105 196.407 203.08 183.214C203.091 183.237 195.366 157.916 185.245 147.096ZM137.638 179.747C136.34 180.666 137.056 184.226 137.056 184.226L134.851 182.283L140.389 168.666L142.751 179.136C142.751 179.136 138.935 178.834 137.638 179.747ZM181.941 188.397C181.33 188.711 183.686 182.167 182.569 180.684C181.452 179.2 178.084 179.34 178.084 179.34L178.369 177.554L180.364 167.316L181.027 166.531C181.027 166.531 187.88 178.275 189.107 182.417C189.107 182.429 181.638 188.397 181.941 188.397Z" fill="#407BFF"/>
<path d="M151.976 104.625L142.878 114.282C142.878 114.282 141.627 115.393 142.122 118.191C142.616 120.989 143.779 123.426 144.658 123.589C145.353 123.711 146.058 123.773 146.764 123.775C146.764 123.775 148.712 127.998 150.097 129.656C150.097 129.656 150.574 136.177 150.318 137.986C150.318 137.986 153.587 140.842 156.664 141.203C159.741 141.564 164.494 136.852 164.494 136.852L165.657 131.081C165.657 131.081 168.45 126.847 168.636 125.718C168.822 124.59 170.102 124.88 170.73 124.322C171.358 123.763 172.807 121.28 173.057 118.929C173.307 116.579 173.313 113.88 170.585 114.671C168.217 114.037 169.7 109.035 169.7 109.035L165.541 105.37L151.976 104.625Z" fill="white"/>
<path opacity="0.5" d="M167.623 140.395C167.486 140.754 167.329 141.106 167.152 141.447C165.651 144.275 159.113 149.667 159.113 149.667L157.135 143.588L156.053 149.667C153.872 148.713 147.217 142.948 147.217 142.948C147.217 142.948 146.99 142.407 146.717 141.564L147.048 141.447C147.048 141.447 146.769 138.3 147.584 136.212C149.177 133.594 152.819 134.263 152.819 134.263C152.819 134.263 157.839 132.035 160.556 133.28C163.272 134.525 166.053 133.559 167.036 134.711C168.019 135.863 167.414 140.331 167.414 140.331L167.623 140.395Z" fill="white"/>
<path opacity="0.2" d="M185.244 147.096L167.624 140.395L167.403 140.307C167.403 140.307 167.467 139.842 167.519 139.144L167.153 141.43L164.547 144.967C167.333 145.992 170.052 147.189 172.691 148.55C173.954 149.227 174.984 150.267 175.648 151.537C176.312 152.807 176.579 154.247 176.414 155.67L173.168 183.447L171.836 199.217L175.855 203.388C180.09 202.027 195.116 196.407 203.091 183.214C203.091 183.237 195.366 157.916 185.244 147.096ZM181.94 188.397C181.329 188.711 183.685 182.167 182.568 180.684C181.451 179.2 178.083 179.34 178.083 179.34L178.368 177.554L180.364 167.316L181.027 166.531C181.027 166.531 187.879 178.275 189.107 182.417C189.107 182.429 181.637 188.397 181.94 188.397Z" fill="black"/>
<path opacity="0.2" d="M143.92 180.684L141.18 171.528C141.18 171.528 136.265 154.769 132.897 150.638L133.781 162.424C133.781 162.424 130.872 176.501 128.214 180.684C125.556 184.866 124.962 185.919 128.214 185.919C131.466 185.919 139.383 192.225 139.383 192.225L138.772 186.989L143.92 180.684ZM137.015 184.226L134.811 182.283L140.349 168.666L142.71 179.136C142.71 179.136 138.917 178.851 137.62 179.765C136.323 180.678 137.015 184.226 137.015 184.226Z" fill="black"/>
<path d="M150.098 129.656C150.098 129.656 150.598 134.595 150.098 136.852" stroke="#263238" stroke-width="1.10311" stroke-linecap="round" stroke-linejoin="round"/>
<path d="M165 136.189C165.005 134.601 165.189 133.018 165.547 131.471" stroke="#263238" stroke-width="1.10311" stroke-linecap="round" stroke-linejoin="round"/>
<path d="M166.32 108.307C166.32 108.307 169.31 112.06 169.153 114.898C168.996 117.737 168.775 121.099 168.851 124.392C168.926 127.684 163.563 134.583 160.805 135.194C158.048 135.805 155.675 135.962 153.912 134.199C152.15 132.437 150.387 129.988 148.095 126.847C145.803 123.705 146.35 116.812 146.35 116.812" stroke="#263238" stroke-width="1.10311" stroke-linecap="round" stroke-linejoin="round"/>
<path d="M159.119 119.436C158.937 120.466 158.859 121.513 158.886 122.559C158.826 123.441 159.1 124.313 159.654 125.002C159.986 125.34 160.463 125.613 160.527 126.079C160.525 126.288 160.467 126.493 160.358 126.672C160.25 126.852 160.095 126.998 159.91 127.097C159.537 127.285 159.177 127.499 158.834 127.737" stroke="#263238" stroke-width="1.10311" stroke-linecap="round" stroke-linejoin="round"/>
<path d="M154.391 128.097C154.391 128.097 154.734 130.325 157.718 130.791" stroke="#263238" stroke-width="1.10311" stroke-linecap="round" stroke-linejoin="round"/>
<path d="M154.698 121.134C154.698 121.78 154.419 122.298 154.076 122.298C153.732 122.298 153.453 121.78 153.453 121.134C153.453 120.488 153.732 119.971 154.076 119.971C154.419 119.971 154.698 120.494 154.698 121.134Z" fill="#263238"/>
<path d="M163.604 121.413C163.604 122.059 163.325 122.577 162.982 122.577C162.639 122.577 162.359 122.053 162.359 121.413C162.359 120.773 162.639 120.25 162.982 120.25C163.325 120.25 163.604 120.768 163.604 121.413Z" fill="#263238"/>
<path d="M161.807 118.592C161.807 118.592 164.715 115.684 167.153 118.929" stroke="#263238" stroke-width="2.20621" stroke-linecap="round" stroke-linejoin="round"/>
<path d="M155.68 118.65C155.68 118.65 153.842 116.591 150.945 118.65" stroke="#263238" stroke-width="2.20621" stroke-linecap="round" stroke-linejoin="round"/>
<path d="M150.319 132.402C150.319 132.402 152.093 137.288 156.054 138.678C160.016 140.069 165.274 132.861 165.274 132.861L165.001 131.925C165.001 131.925 161.552 136.404 157.718 135.642C153.885 134.88 150.098 129.679 150.098 129.679L150.319 132.402Z" fill="#263238"/>
<path d="M146.764 123.589C146.764 123.589 144.402 124.421 143.774 122.583C143.146 120.744 140.993 115.899 142.878 114.282C144.763 112.664 146.275 116.417 146.275 116.417" stroke="#263238" stroke-width="1.10311" stroke-linecap="round" stroke-linejoin="round"/>
<path d="M168.846 124.589C168.846 124.589 171.039 125.032 171.667 123.193C172.295 121.355 174.448 116.51 172.563 114.892C170.678 113.275 169.166 117.027 169.166 117.027" stroke="#263238" stroke-width="1.10311" stroke-linecap="round" stroke-linejoin="round"/>
<path d="M146.275 121.134C147.096 121.005 147.836 120.568 148.346 119.913C148.658 119.337 148.855 118.707 148.928 118.057C149.144 116.82 149.253 115.566 149.254 114.311C149.228 113.82 149.273 113.328 149.388 112.851C149.562 112.37 149.831 111.929 150.179 111.553C150.999 110.588 151.994 109.773 152.779 108.773C153.2 108.301 153.52 107.748 153.72 107.148C153.92 106.547 153.996 105.913 153.942 105.283C155.742 106.766 157.845 107.838 160.103 108.422C162.361 109.006 164.72 109.088 167.013 108.662C171.173 107.848 175.157 104.201 174.674 99.6167C174.583 98.8482 174.254 98.1275 173.732 97.5558C173.21 96.9841 172.523 96.59 171.766 96.429C169.712 95.9171 167.868 97.0107 166.007 97.7145C162.616 98.9943 159.294 96.7955 155.868 96.429C152.959 96.109 149.335 96.4755 147.811 99.3899C147.811 99.3899 142.576 100.006 140.249 104.334C137.922 108.662 142.326 114.648 142.326 114.648C142.326 114.648 144.071 112.507 146.357 116.835L146.275 121.134Z" fill="#263238"/>
<path d="M166.682 107.202C166.682 107.202 165.321 114.299 168.875 117.737C168.875 117.737 169.654 115.602 170.44 115.079C171.006 113.819 171.246 112.437 171.137 111.061C171.028 109.684 170.574 108.357 169.817 107.202C167.188 103.072 166.682 107.202 166.682 107.202Z" fill="#263238"/>
<path opacity="0.2" d="M173.163 99.1281C172.851 100.096 172.322 100.981 171.617 101.714C170.911 102.446 170.047 103.009 169.091 103.357C164.159 105.37 159.371 103.142 154.427 102.706C150.395 102.345 145.945 105.986 145.66 110.128" stroke="white" stroke-width="1.10311" stroke-linecap="round" stroke-linejoin="round"/>
<path opacity="0.2" d="M142.615 109.035C142.676 107.4 143.2 105.817 144.127 104.469C145.054 103.122 146.346 102.066 147.851 101.426" stroke="white" stroke-width="1.10311" stroke-linecap="round" stroke-linejoin="round"/>
<path d="M148.957 136.189C151.126 138.45 153.744 140.233 156.641 141.424C156.641 141.424 162.546 139.708 165.547 135.607" stroke="#263238" stroke-width="1.10311" stroke-linecap="round" stroke-linejoin="round"/>
<path d="M154.991 125.871C157.613 124.668 158.764 121.567 157.561 118.945C156.358 116.322 153.257 115.172 150.635 116.374C148.013 117.577 146.862 120.678 148.065 123.3C149.267 125.923 152.368 127.073 154.991 125.871Z" stroke="#263238" stroke-width="1.10311" stroke-linecap="round" stroke-linejoin="round"/>
<path d="M165.112 126.331C167.976 125.979 170.012 123.373 169.661 120.509C169.309 117.646 166.703 115.609 163.839 115.961C160.976 116.313 158.939 118.919 159.291 121.782C159.643 124.646 162.249 126.682 165.112 126.331Z" stroke="#263238" stroke-width="1.10311" stroke-linecap="round" stroke-linejoin="round"/>
<path d="M150.097 134.24C149.568 134.379 149.072 134.623 148.639 134.958C148.207 135.293 147.846 135.711 147.578 136.189C146.654 137.818 147.212 142.942 147.212 142.942C147.212 142.942 151.988 147.666 156.054 149.661L157.252 142.919L159.114 149.661C159.114 149.661 165.408 145.211 167.153 141.447C167.153 141.447 167.735 137.055 167.153 135.63C167.021 135.234 166.769 134.889 166.433 134.642C166.096 134.396 165.691 134.259 165.274 134.252" stroke="#263238" stroke-width="1.10311" stroke-linecap="round" stroke-linejoin="round"/>
<path d="M142.617 179.346C142.617 179.346 140.75 166.839 138.266 161.737" stroke="#263238" stroke-width="1.10311" stroke-linecap="round" stroke-linejoin="round"/>
<path d="M132.895 150.638C134.341 152.694 135.632 154.854 136.757 157.101" stroke="#263238" stroke-width="1.10311" stroke-linecap="round" stroke-linejoin="round"/>
<path d="M181.939 159.975C182.441 157.884 183.128 155.842 183.993 153.873" stroke="#263238" stroke-width="1.10311" stroke-linecap="round" stroke-linejoin="round"/>
<path d="M178.084 179.346C178.084 179.346 179.428 170.771 181.033 163.709" stroke="#263238" stroke-width="1.10311" stroke-linecap="round" stroke-linejoin="round"/>
<path d="M180.363 167.304C181.662 165.582 183.488 164.332 185.564 163.744" stroke="#263238" stroke-width="1.10311" stroke-linecap="round" stroke-linejoin="round"/>
<path d="M167.408 140.307C167.408 140.307 178.245 144.641 185.243 147.102C185.243 147.102 193.853 155.193 203.084 183.237C203.084 183.237 194.626 197.466 178.536 202.027" stroke="#263238" stroke-width="1.10311" stroke-linecap="round" stroke-linejoin="round"/>
<path d="M181.33 188.903L189.108 182.429C189.108 182.429 193.22 179.305 197.496 181.44" stroke="#263238" stroke-width="1.10311" stroke-linecap="round" stroke-linejoin="round"/>
<path d="M181.033 166.531C181.033 166.531 187.461 176.03 189.107 182.429" stroke="#263238" stroke-width="1.10311" stroke-linecap="round" stroke-linejoin="round"/>
<path d="M137.101 184.587L134.827 182.429C134.827 182.429 131.453 181.847 127.625 184.401" stroke="#263238" stroke-width="1.10311" stroke-linecap="round" stroke-linejoin="round"/>
<path d="M134.826 182.429C134.826 182.429 137.653 173.121 140.44 168.357" stroke="#263238" stroke-width="1.10311" stroke-linecap="round" stroke-linejoin="round"/>
<path d="M147.049 141.447C147.049 141.447 131.453 147.299 129.923 149.01C128.393 150.72 122.582 183.441 122.425 187.187C122.291 190.538 134.437 198.059 140.458 201.23" stroke="#263238" stroke-width="1.10311" stroke-linecap="round" stroke-linejoin="round"/>
<path d="M158.712 152.506C158.712 152.709 158.651 152.908 158.538 153.078C158.425 153.247 158.264 153.379 158.076 153.457C157.888 153.535 157.681 153.555 157.481 153.516C157.281 153.476 157.098 153.378 156.954 153.234C156.81 153.09 156.712 152.906 156.672 152.707C156.632 152.507 156.653 152.3 156.731 152.112C156.809 151.924 156.941 151.763 157.11 151.65C157.279 151.536 157.478 151.476 157.682 151.476C157.817 151.475 157.952 151.501 158.077 151.553C158.202 151.604 158.316 151.68 158.412 151.776C158.508 151.872 158.583 151.985 158.635 152.111C158.686 152.236 158.712 152.37 158.712 152.506Z" fill="#263238"/>
<path d="M176.757 207.314H141.273C141.053 207.314 140.841 207.227 140.685 207.071C140.529 206.915 140.441 206.703 140.441 206.482C140.441 206.262 140.529 206.05 140.685 205.894C140.841 205.738 141.053 205.651 141.273 205.651H176.757C176.978 205.651 177.19 205.738 177.346 205.894C177.502 206.05 177.589 206.262 177.589 206.482C177.589 206.703 177.502 206.915 177.346 207.071C177.19 207.227 176.978 207.314 176.757 207.314Z" fill="#263238"/>
<path d="M178.001 204.534L182.754 182.196C182.827 181.85 182.823 181.491 182.74 181.147C182.657 180.803 182.499 180.481 182.275 180.206C182.052 179.931 181.771 179.71 181.451 179.558C181.131 179.406 180.781 179.327 180.427 179.328H138.951C138.6 179.328 138.253 179.406 137.936 179.557C137.619 179.707 137.339 179.926 137.116 180.197C136.893 180.469 136.734 180.786 136.649 181.127C136.564 181.467 136.555 181.823 136.624 182.167L140.888 203.76C140.993 204.29 141.275 204.769 141.689 205.117C142.102 205.465 142.622 205.662 143.163 205.674L175.616 206.418C176.171 206.431 176.712 206.249 177.148 205.905C177.583 205.561 177.885 205.076 178.001 204.534Z" fill="white" stroke="#263238" stroke-width="1.10311" stroke-linecap="round" stroke-linejoin="round"/>
<path d="M162.866 192.219C162.865 192.873 162.67 193.513 162.305 194.056C161.941 194.6 161.424 195.023 160.819 195.273C160.214 195.522 159.548 195.587 158.907 195.459C158.265 195.33 157.676 195.015 157.214 194.552C156.751 194.088 156.437 193.499 156.309 192.857C156.182 192.215 156.248 191.55 156.499 190.945C156.749 190.341 157.174 189.824 157.718 189.461C158.262 189.097 158.902 188.903 159.556 188.903C159.991 188.903 160.422 188.989 160.824 189.156C161.226 189.322 161.591 189.567 161.899 189.875C162.206 190.183 162.45 190.548 162.616 190.951C162.782 191.353 162.867 191.784 162.866 192.219Z" fill="#263238"/>
<path d="M169.375 181.463H174.302" stroke="#263238" stroke-width="1.10311" stroke-linecap="round" stroke-linejoin="round"/>
<path d="M145.844 181.463H164.546" stroke="#263238" stroke-width="1.10311" stroke-linecap="round" stroke-linejoin="round"/>
<path d="M178.082 228.25L174.301 238.174C174.301 238.174 164.656 235.742 152.307 233.212C139.387 230.565 125.897 227.139 118.899 214.859C118.05 213.364 117.48 211.596 117.881 209.92C118.888 205.68 124.408 204.528 128.044 204.103C130.329 203.856 132.626 203.728 134.925 203.719C136.089 203.719 139.957 203.085 140.894 203.777C142.301 204.804 143.803 205.694 145.379 206.436C147.444 207.314 177.588 205.651 177.588 205.651C178.112 204.507 178.433 203.28 178.536 202.027C183.277 199.618 194.242 197.582 198.896 198.484C206.185 199.897 210.437 204.15 209.628 208.606C208.82 213.062 192.718 225.01 178.082 228.25Z" fill="#263238"/>
<path d="M178.083 228.25C178.083 228.25 168.909 225.818 161.417 220.758C153.925 215.697 148.073 209.821 137.631 211.037" stroke="white" stroke-width="1.10311" stroke-linecap="round" stroke-linejoin="round"/>
<path d="M159.701 219.565C164.436 218.204 167.909 215.138 171.708 212.201C175.714 208.985 180.017 206.157 184.558 203.754" stroke="white" stroke-width="1.10311" stroke-linecap="round" stroke-linejoin="round"/>
<path d="M158.031 121.96H159.422" stroke="#263238" stroke-width="1.10311" stroke-linecap="round" stroke-linejoin="round"/>
</svg>
