<svg width="210" height="200" viewBox="0 0 210 200" fill="none" xmlns="http://www.w3.org/2000/svg">
<g clip-path="url(#clip0_1099_22514)">
<path d="M104.709 197.343C162.538 197.343 209.418 194.606 209.418 191.23C209.418 187.853 162.538 185.116 104.709 185.116C46.8799 185.116 0 187.853 0 191.23C0 194.606 46.8799 197.343 104.709 197.343Z" fill="#F5F5F5"/>
<path d="M209.477 16.4605V125.144C209.448 126.431 208.929 127.659 208.026 128.576C207.122 129.493 205.903 130.031 204.617 130.08H48.2146C45.617 130.08 43.6837 127.747 43.6837 125.144V16.4605C43.6655 15.855 43.7695 15.2521 43.9892 14.6875C44.209 14.123 44.5402 13.6085 44.9629 13.1746C45.3857 12.7408 45.8915 12.3964 46.4501 12.1621C47.0088 11.9278 47.6088 11.8083 48.2146 11.8108H204.617C205.874 11.7974 207.086 12.2764 207.994 13.1453C208.903 14.0143 209.435 15.2042 209.477 16.4605Z" fill="#407BFF"/>
<path opacity="0.1" d="M209.477 30.0049V125.144C209.448 126.431 208.929 127.659 208.025 128.576C207.122 129.493 205.903 130.031 204.617 130.08H48.2146C45.617 130.08 43.6836 127.747 43.6836 125.144V88.1136C57.4439 61.6515 90.2462 57.3635 128.649 72.8358C183.015 94.74 206.199 65.0106 209.477 30.0049Z" fill="white"/>
<path opacity="0.2" d="M166.772 117.659H87.4287C86.7126 117.659 86.0258 117.375 85.5194 116.869C85.013 116.362 84.7285 115.675 84.7285 114.959C84.7285 114.243 85.013 113.556 85.5194 113.05C86.0258 112.544 86.7126 112.259 87.4287 112.259H166.772C167.488 112.259 168.175 112.544 168.681 113.05C169.188 113.556 169.472 114.243 169.472 114.959C169.472 115.675 169.188 116.362 168.681 116.869C168.175 117.375 167.488 117.659 166.772 117.659Z" fill="black"/>
<path d="M87.4297 117.119C86.8568 117.119 86.3073 116.892 85.9022 116.487C85.4971 116.082 85.2695 115.532 85.2695 114.959C85.2695 114.386 85.4971 113.837 85.9022 113.432C86.3073 113.027 86.8568 112.799 87.4297 112.799H134.327C134.9 112.799 135.45 113.027 135.855 113.432C136.26 113.837 136.487 114.386 136.487 114.959C136.487 115.532 136.26 116.082 135.855 116.487C135.45 116.892 134.9 117.119 134.327 117.119H87.4297Z" fill="#407BFF"/>
<path opacity="0.7" d="M87.4297 117.119C86.8568 117.119 86.3073 116.892 85.9022 116.487C85.4971 116.082 85.2695 115.532 85.2695 114.959C85.2695 114.386 85.4971 113.837 85.9022 113.432C86.3073 113.027 86.8568 112.799 87.4297 112.799H134.327C134.9 112.799 135.45 113.027 135.855 113.432C136.26 113.837 136.487 114.386 136.487 114.959C136.487 115.532 136.26 116.082 135.855 116.487C135.45 116.892 134.9 117.119 134.327 117.119H87.4297Z" fill="white"/>
<path d="M56.069 121.58C61.1022 125.625 59.347 144.932 60.2921 147.902C61.2372 150.872 65.2875 153.302 65.2875 153.302L59.6386 159.918C59.6386 159.918 54.9133 159.097 51.322 151.401C47.7307 143.706 56.069 121.58 56.069 121.58Z" fill="black"/>
<path d="M50.7063 163.968C50.7063 163.968 86.8893 153.875 91.4148 166.571C95.9404 179.268 63.1273 189.383 44.9656 190.025C26.8039 190.668 19.3837 177.88 24.741 165.767L50.7063 163.968Z" fill="#FF6C37"/>
<path opacity="0.2" d="M50.7063 163.968C50.7063 163.968 86.8893 153.875 91.4148 166.571C95.9404 179.268 63.1273 189.383 44.9656 190.025C26.8039 190.668 19.3837 177.88 24.741 165.767L50.7063 163.968Z" fill="black"/>
<path d="M86.1695 184.517C86.1494 184.53 86.126 184.537 86.102 184.537C86.078 184.537 86.0546 184.53 86.0345 184.517C86.0166 184.505 86.0036 184.487 85.9977 184.466C85.9917 184.445 85.9933 184.423 86.0021 184.404C86.0615 184.204 86.6663 182.454 87.2712 182.27C87.3366 182.256 87.4044 182.259 87.4686 182.278C87.5327 182.296 87.5911 182.331 87.6384 182.378C87.7224 182.449 87.7862 182.541 87.8232 182.644C87.8602 182.748 87.8691 182.859 87.849 182.967C87.7511 183.293 87.5526 183.581 87.282 183.788C86.9352 184.066 86.5627 184.31 86.1695 184.517ZM86.3261 184.177C86.8923 183.929 87.3505 183.487 87.6168 182.929C87.6327 182.855 87.6269 182.778 87.6001 182.707C87.5732 182.636 87.5266 182.575 87.4656 182.53C87.4497 182.509 87.4273 182.494 87.4019 182.487C87.3765 182.48 87.3495 182.482 87.3252 182.492C87.2724 182.507 87.2241 182.535 87.1848 182.573C86.8096 183.051 86.5259 183.595 86.3477 184.177H86.3261Z" fill="#FF6C37"/>
<path d="M86.1373 184.539C86.1173 184.545 86.0959 184.545 86.0758 184.539C86.0556 184.533 86.0376 184.522 86.0239 184.506C85.9645 184.458 85.1274 183.394 85.2678 182.681C85.284 182.593 85.3177 182.508 85.3669 182.433C85.416 182.358 85.4796 182.294 85.554 182.243C85.6179 182.182 85.701 182.144 85.7894 182.136C85.8778 182.128 85.9663 182.151 86.0401 182.2C86.4775 182.508 86.4235 183.923 86.2075 184.463V184.517L86.1373 184.539ZM85.6566 182.459C85.5827 182.526 85.5332 182.615 85.5162 182.713C85.4244 183.167 85.8457 183.847 86.0563 184.171C86.1913 183.567 86.1481 182.551 85.8889 182.395C85.8618 182.395 85.8078 182.335 85.6782 182.427L85.635 182.459H85.6566Z" fill="#FF6C37"/>
<path d="M49.3019 190.938C49.3082 190.915 49.3206 190.895 49.3377 190.879C49.3549 190.862 49.3761 190.851 49.3991 190.846C49.4204 190.843 49.4419 190.848 49.4605 190.858C49.4791 190.869 49.4935 190.886 49.5017 190.906C49.6097 191.089 50.436 192.742 50.139 193.303C50.1058 193.361 50.0576 193.408 49.9996 193.441C49.9416 193.473 49.8759 193.489 49.8095 193.487C49.7009 193.5 49.5908 193.483 49.4909 193.439C49.3911 193.394 49.3052 193.323 49.2425 193.233C49.0773 192.934 49.0112 192.59 49.0535 192.25C49.0934 191.806 49.1766 191.366 49.3019 190.938ZM49.4315 191.284C49.2183 191.864 49.2183 192.502 49.4315 193.082C49.4739 193.145 49.5335 193.195 49.6034 193.226C49.6732 193.257 49.7504 193.267 49.8257 193.255C49.8524 193.256 49.8789 193.25 49.902 193.237C49.9251 193.223 49.9436 193.203 49.9553 193.179C49.9757 193.129 49.9884 193.076 49.9931 193.023C49.9118 192.414 49.7216 191.825 49.4315 191.284Z" fill="#FF6C37"/>
<path d="M58.0657 178.722L51.6661 183.41L48.5879 185.667L50.5969 189.167L53.7183 187.46L61.3383 183.296L58.0657 178.722Z" fill="#EBB376"/>
<path d="M51.5918 189.064L49.6585 184.803C49.633 184.747 49.5965 184.697 49.5512 184.655C49.5059 184.614 49.4528 184.582 49.3948 184.561C49.3369 184.54 49.2754 184.532 49.214 184.535C49.1526 184.539 49.0926 184.555 49.0374 184.582L46.9529 185.602C46.9529 185.602 44.0528 186.774 43.7126 187.714C42.6325 190.468 46.6774 200 47.9357 200.005C48.3948 200.005 48.6702 199.293 48.735 198.839C48.9348 197.392 48.9726 193.763 49.1562 192.558C49.3722 191.154 50.7764 190.074 51.4514 189.642C51.5387 189.577 51.6006 189.484 51.6262 189.378C51.6519 189.273 51.6397 189.162 51.5918 189.064Z" fill="#263238"/>
<path d="M49.3064 190.9C49.3164 190.882 49.3312 190.867 49.3494 190.856C49.3675 190.846 49.3881 190.84 49.409 190.841C49.4846 190.841 50.8294 190.976 51.2452 191.575C51.3472 191.726 51.386 191.91 51.3532 192.088C51.3527 192.177 51.3219 192.263 51.2659 192.332C51.2099 192.4 51.1321 192.448 51.0454 192.466C50.5053 192.564 49.544 191.538 49.3118 191.008V190.96C49.3048 190.941 49.3029 190.92 49.3064 190.9ZM51.1264 192.013C51.1328 191.913 51.1042 191.813 51.0454 191.732C50.7862 191.354 50.0031 191.192 49.6143 191.111C49.9491 191.651 50.6943 192.299 50.9968 192.24C51.0292 192.24 51.094 192.24 51.121 192.067V192.013H51.1264Z" fill="#FF6C37"/>
<path opacity="0.2" d="M58.0655 178.722L51.666 183.41L53.7182 187.46L61.3382 183.296L58.0655 178.722Z" fill="black"/>
<path d="M55.1769 187.725L57.283 187.26L53.7835 180.58L51.834 182.573L55.1769 187.725Z" fill="#FF6C37"/>
<path opacity="0.6" d="M55.1769 187.725L57.283 187.26L53.7835 180.58L51.834 182.573L55.1769 187.725Z" fill="white"/>
<path d="M71.3086 186.801L79.1392 188.092L82.8979 188.708L83.9996 184.825L80.5974 183.788L72.2861 181.26L71.3086 186.801Z" fill="#EBB376"/>
<path d="M83.2314 184.193L81.5357 188.551C81.5141 188.609 81.504 188.67 81.5061 188.732C81.5083 188.794 81.5225 188.854 81.5481 188.911C81.5737 188.967 81.6101 189.017 81.6552 189.059C81.7003 189.102 81.7533 189.134 81.8111 189.156L83.9983 189.928C83.9983 189.928 86.8659 191.181 87.7786 190.781C90.4788 189.615 94.486 180.067 93.6057 179.165C93.2817 178.836 92.585 179.138 92.2124 179.414C91.0405 180.278 88.4321 182.794 87.433 183.502C86.2773 184.333 84.5113 184.074 83.7445 183.907C83.6389 183.886 83.5294 183.903 83.4354 183.956C83.3414 184.008 83.2691 184.092 83.2314 184.193Z" fill="#263238"/>
<path opacity="0.2" d="M71.3086 186.801L79.1392 188.092L80.5974 183.788L72.2861 181.26L71.3086 186.801Z" fill="black"/>
<path d="M79.246 183.005C79.246 183.005 46.6921 163.801 35.6752 164.314C24.6583 164.827 23.7024 175.768 28.2442 181.844C32.786 187.919 41.2052 189.404 41.2052 189.404C41.2052 189.404 35.4916 181.304 36.3178 179.057C37.1441 176.811 40.2926 184.425 40.2926 184.425C40.2926 184.425 60.4632 187.066 78.0363 188.557L79.246 183.005Z" fill="#FF6C37"/>
<path d="M79.7607 182.486L77.957 181.271L75.6348 188.405H78.4214L79.7607 182.486Z" fill="#FF6C37"/>
<path opacity="0.6" d="M79.7607 182.486L77.957 181.271L75.6348 188.405H78.4214L79.7607 182.486Z" fill="white"/>
<path d="M54.9658 167.344C49.0739 156.003 50.9478 138.748 56.0459 121.58C52.4816 118.605 38.2622 116.596 27.4235 119.749C27.4235 119.749 20.5433 145.245 21.3534 173.095L54.9658 167.344Z" fill="black"/>
<path d="M42.4585 124.367C37.7223 124.367 34.6387 119.398 34.6387 119.398C40.8492 117.238 40.8708 110.666 40.8708 110.666L43.2632 113.004L46.6709 116.342C43.8356 118.351 45.1749 120.09 46.0768 120.862C46.2612 121.027 46.46 121.175 46.6709 121.305C46.6709 121.305 47.1947 124.367 42.4585 124.367Z" fill="#EBB376"/>
<path opacity="0.2" d="M46.0767 120.862C40.2658 121.515 40.6762 112.815 40.6762 112.815C41.5478 112.801 42.4188 112.865 43.2792 113.004L46.6869 116.342C43.8355 118.351 45.1748 120.09 46.0767 120.862Z" fill="black"/>
<path d="M50.6128 104.158C48.4148 105.066 48.836 107.469 52.4867 111.849C54.7333 109.91 55.9538 105.503 54.7711 104.088C53.5884 102.673 52.5353 103.354 50.6128 104.158Z" fill="#263238"/>
<path d="M53.8649 113.879C53.6657 114.465 53.4313 115.039 53.1628 115.596C51.0027 120.019 44.7489 120.878 41.9839 116.504L41.9515 116.461C40.1262 113.517 40.812 110.768 41.5735 106.005C41.7431 104.901 42.1907 103.858 42.8741 102.975C43.5575 102.091 44.4543 101.396 45.4803 100.954C46.5062 100.513 47.6277 100.339 48.7392 100.45C49.8507 100.561 50.9157 100.952 51.8343 101.588C55.4742 104.121 55.2582 109.813 53.8649 113.879Z" fill="#EBB376"/>
<path d="M48.2976 108.884C48.2112 109.267 48.3462 109.624 48.5947 109.678C48.8431 109.732 49.1347 109.472 49.1995 109.089C49.2643 108.706 49.1509 108.355 48.9079 108.295C48.6649 108.236 48.4056 108.511 48.2976 108.884Z" fill="#263238"/>
<path d="M52.6394 109.867C52.553 110.245 52.688 110.601 52.9418 110.655C53.1956 110.709 53.4819 110.455 53.5521 110.066C53.6223 109.678 53.4981 109.327 53.2496 109.273C53.0012 109.219 52.7258 109.483 52.6394 109.867Z" fill="#263238"/>
<path d="M51.1798 109.726C51.3687 110.998 51.7322 112.237 52.2599 113.409C51.4282 113.885 50.3535 113.339 50.3535 113.339L51.1798 109.726Z" fill="#D58745"/>
<path d="M47.416 107.247C47.3643 107.244 47.3159 107.221 47.281 107.183C47.2594 107.162 47.2423 107.136 47.2306 107.108C47.2189 107.081 47.2129 107.051 47.2129 107.021C47.2129 106.99 47.2189 106.961 47.2306 106.933C47.2423 106.905 47.2594 106.88 47.281 106.859C47.5516 106.611 47.8781 106.433 48.2326 106.339C48.5872 106.245 48.9592 106.238 49.3169 106.319C49.3734 106.334 49.4216 106.371 49.4509 106.421C49.4803 106.472 49.4884 106.532 49.4736 106.589C49.4538 106.646 49.4135 106.693 49.3606 106.722C49.3077 106.751 49.246 106.759 49.1873 106.745C48.9029 106.68 48.607 106.685 48.3249 106.76C48.0428 106.834 47.7828 106.975 47.5672 107.172C47.5278 107.215 47.474 107.242 47.416 107.247Z" fill="#263238"/>
<path d="M54.9443 108.846C54.9022 108.835 54.8639 108.812 54.8335 108.781C54.803 108.749 54.7816 108.71 54.7715 108.668C54.713 108.385 54.5886 108.121 54.4084 107.895C54.2282 107.67 53.9974 107.491 53.7346 107.372C53.6775 107.35 53.631 107.307 53.6048 107.251C53.5787 107.196 53.5749 107.133 53.5942 107.075C53.615 107.018 53.6571 106.971 53.7115 106.945C53.766 106.919 53.8285 106.915 53.8858 106.934C54.2205 107.079 54.5157 107.301 54.7468 107.583C54.9779 107.865 55.1382 108.198 55.2144 108.554C55.2216 108.583 55.223 108.614 55.2185 108.643C55.214 108.673 55.2036 108.701 55.1881 108.727C55.1725 108.753 55.152 108.775 55.1278 108.792C55.1036 108.81 55.0761 108.823 55.0469 108.83H54.9443V108.846Z" fill="#263238"/>
<path d="M44.3759 102.279C46.401 103.527 45.6018 105.833 41.303 109.57C39.3859 107.301 38.8836 102.749 40.2823 101.55C41.6811 100.351 42.6045 101.194 44.3759 102.279Z" fill="#263238"/>
<path d="M38.49 109.278C38.5246 109.878 38.6775 110.466 38.9398 111.007C39.202 111.548 39.5686 112.033 40.0184 112.432C41.228 113.512 42.5187 112.572 42.7618 111.071C42.9832 109.715 42.6106 107.534 41.1416 107.058C39.6727 106.583 38.409 107.793 38.49 109.278Z" fill="#EBB376"/>
<path d="M46.6719 113.388C46.6719 113.388 47.1687 115.105 49.4693 115.505" stroke="#263238" stroke-width="0.557248" stroke-linecap="round" stroke-linejoin="round"/>
<path d="M50.8086 109.759C50.8086 110.079 50.7136 110.392 50.5356 110.659C50.3576 110.925 50.1045 111.133 49.8085 111.255C49.5124 111.378 49.1867 111.41 48.8724 111.348C48.5581 111.285 48.2695 111.131 48.0429 110.904C47.8163 110.678 47.662 110.389 47.5995 110.075C47.537 109.76 47.5691 109.435 47.6917 109.139C47.8143 108.843 48.022 108.59 48.2884 108.412C48.5548 108.234 48.8681 108.138 49.1885 108.138C49.6182 108.138 50.0303 108.309 50.3341 108.613C50.6379 108.917 50.8086 109.329 50.8086 109.759Z" stroke="#263238" stroke-width="0.557248" stroke-linecap="round" stroke-linejoin="round"/>
<path d="M55.2207 110.666C55.2207 110.986 55.1257 111.3 54.9477 111.566C54.7697 111.832 54.5166 112.04 54.2206 112.163C53.9246 112.285 53.5988 112.317 53.2845 112.255C52.9703 112.192 52.6816 112.038 52.455 111.812C52.2284 111.585 52.0741 111.296 52.0116 110.982C51.9491 110.668 51.9812 110.342 52.1038 110.046C52.2264 109.75 52.4341 109.497 52.7005 109.319C52.9669 109.141 53.2802 109.046 53.6006 109.046C54.0303 109.046 54.4424 109.216 54.7462 109.52C55.05 109.824 55.2207 110.236 55.2207 110.666Z" stroke="#263238" stroke-width="0.557248" stroke-linecap="round" stroke-linejoin="round"/>
<path d="M50.8086 110.201C51.0015 110.098 51.2264 110.072 51.4379 110.128C51.6494 110.184 51.8317 110.319 51.9481 110.504" stroke="#263238" stroke-width="0.557248" stroke-linecap="round" stroke-linejoin="round"/>
<path d="M47.5679 109.424C47.5679 109.424 42.8749 107.447 42 107.264" stroke="#263238" stroke-width="0.557248" stroke-linecap="round" stroke-linejoin="round"/>
<path d="M40.2342 101.615C40.2342 101.615 39.7482 97.802 43.6419 97.1702C47.5356 96.5383 52.6283 97.5158 54.2052 96.8408C54.1435 97.1786 54.0123 97.5 53.8198 97.7845C53.6274 98.0689 53.3779 98.3103 53.0873 98.4933C53.0873 98.4933 56.0575 99.5734 58.3959 98.6445C58.3959 98.6445 57.3806 101.458 56.0683 102.538H57.1862C57.1862 102.538 54.9721 104.655 52.2772 104.698C49.5824 104.742 47.0442 101.032 44.3764 102.279C41.7086 103.527 40.2342 101.615 40.2342 101.615Z" fill="#263238"/>
<path opacity="0.2" d="M29.584 157.353L40.7791 169.774C40.7791 169.774 53.1623 169.498 68.1971 176.848C68.1971 176.848 84.3283 170.184 85.8134 164.649C87.2985 159.113 51.9472 163.029 51.9472 163.029L29.584 157.353Z" fill="black"/>
<path d="M32.7481 153.707L50.7045 159.578C50.7045 159.578 57.1203 158.163 58.2652 158.163C59.4101 158.163 63.8438 161.765 61.338 163.023C58.8322 164.281 51.9898 164.438 51.2446 164.038C50.4993 163.639 30.5879 158.973 30.5879 158.973L32.7481 153.707Z" fill="#EBB376"/>
<path d="M27.4241 119.749C31.4852 118.961 24.4376 143.717 26.1658 147.362C27.8939 151.007 34.6391 153.302 34.6391 153.302L31.5338 160.156C31.5338 160.156 22.3531 158.422 17.3577 152.055C12.3623 145.688 20.7923 121.035 27.4241 119.749Z" fill="black"/>
<path d="M34.6397 152.762L30.8594 160.161L34.0996 160.863L37.0699 154.042L34.6397 152.762Z" fill="#263238"/>
<path opacity="0.2" d="M34.6397 152.762L30.8594 160.161L34.0996 160.863L37.0699 154.042L34.6397 152.762Z" fill="white"/>
<path d="M42.0645 163.023V164.2C42.0654 164.593 42.2174 164.97 42.4889 165.254C42.7603 165.537 43.1305 165.705 43.5226 165.723H86.9367C87.3416 165.712 87.7276 165.549 88.0185 165.267C88.3094 164.985 88.4841 164.605 88.5083 164.2V163.023H42.0645Z" fill="#263238"/>
<path opacity="0.2" d="M42.0645 163.023V164.2C42.0654 164.593 42.2174 164.97 42.4889 165.254C42.7603 165.537 43.1305 165.705 43.5226 165.723H86.9367C87.3416 165.712 87.7276 165.549 88.0185 165.267C88.3094 164.985 88.4841 164.605 88.5083 164.2V163.023H42.0645Z" fill="white"/>
<path opacity="0.2" d="M58.2656 163.023V164.2C58.268 164.594 58.4211 164.971 58.6935 165.254C58.9658 165.537 59.3365 165.705 59.7291 165.723H86.9366C87.3415 165.712 87.7274 165.549 88.0183 165.267C88.3092 164.985 88.484 164.605 88.5081 164.2V163.023H58.2656Z" fill="white"/>
<path d="M59.7288 164.643H88.4105C88.871 164.621 89.3146 164.463 89.6855 164.189C90.0564 163.915 90.3381 163.538 90.4951 163.104L97.0728 142.469C97.1482 142.293 97.178 142.101 97.1596 141.911C97.1412 141.72 97.0752 141.538 96.9676 141.379C96.86 141.221 96.7143 141.093 96.5439 141.006C96.3735 140.919 96.184 140.876 95.9927 140.881H67.2894C66.8254 140.915 66.3812 141.083 66.011 141.365C65.6409 141.647 65.3608 142.031 65.2048 142.469L58.6271 163.077C58.551 163.254 58.5214 163.446 58.5411 163.638C58.5608 163.829 58.6292 164.011 58.7397 164.169C58.8502 164.326 58.9992 164.452 59.1723 164.535C59.3455 164.618 59.5371 164.655 59.7288 164.643Z" fill="#263238"/>
<path opacity="0.2" d="M59.7288 164.643H88.4105C88.871 164.621 89.3146 164.463 89.6855 164.189C90.0564 163.915 90.3381 163.538 90.4951 163.104L97.0728 142.469C97.1482 142.293 97.178 142.101 97.1596 141.911C97.1412 141.72 97.0752 141.538 96.9676 141.379C96.86 141.221 96.7143 141.093 96.5439 141.006C96.3735 140.919 96.184 140.876 95.9927 140.881H67.2894C66.8254 140.915 66.3812 141.083 66.011 141.365C65.6409 141.647 65.3608 142.031 65.2048 142.469L58.6271 163.077C58.551 163.254 58.5214 163.446 58.5411 163.638C58.5608 163.829 58.6292 164.011 58.7397 164.169C58.8502 164.326 58.9992 164.452 59.1723 164.535C59.3455 164.618 59.5371 164.655 59.7288 164.643Z" fill="white"/>
<path opacity="0.2" d="M60.8089 164.643H88.4105C88.871 164.621 89.3146 164.463 89.6855 164.189C90.0564 163.915 90.338 163.538 90.4951 163.104L97.0728 142.469C97.1482 142.293 97.178 142.101 97.1596 141.911C97.1412 141.72 97.0752 141.538 96.9675 141.379C96.8599 141.221 96.7142 141.093 96.5439 141.006C96.3735 140.919 96.184 140.876 95.9927 140.881H68.3695C67.9054 140.915 67.4613 141.083 67.0911 141.365C66.721 141.647 66.4409 142.031 66.2849 142.469L59.7072 163.077C59.6311 163.254 59.6015 163.446 59.6212 163.638C59.6409 163.829 59.7093 164.011 59.8198 164.169C59.9303 164.326 60.0793 164.452 60.2524 164.535C60.4256 164.618 60.6172 164.655 60.8089 164.643Z" fill="white"/>
<path opacity="0.2" d="M80.5807 150.5L76.6113 153.308L78.3287 156.121L82.298 153.308L80.5807 150.5Z" fill="white"/>
<path opacity="0.2" d="M100.448 17.0438H64.1301C61.5234 17.0438 59.4102 19.157 59.4102 21.7637V58.0817C59.4102 60.6885 61.5234 62.8017 64.1301 62.8017H100.448C103.055 62.8017 105.168 60.6885 105.168 58.0817V21.7637C105.168 19.157 103.055 17.0438 100.448 17.0438Z" fill="black"/>
<path d="M106.627 12.0214H76.2007C74.0145 12.0214 72.2422 13.7937 72.2422 15.9799V46.406C72.2422 48.5922 74.0145 50.3645 76.2007 50.3645H106.627C108.813 50.3645 110.585 48.5922 110.585 46.406V15.9799C110.585 13.7937 108.813 12.0214 106.627 12.0214Z" fill="#407BFF"/>
<path opacity="0.3" d="M106.627 12.0214H76.2007C74.0145 12.0214 72.2422 13.7937 72.2422 15.9799V46.406C72.2422 48.5922 74.0145 50.3645 76.2007 50.3645H106.627C108.813 50.3645 110.585 48.5922 110.585 46.406V15.9799C110.585 13.7937 108.813 12.0214 106.627 12.0214Z" fill="white"/>
<path d="M94.3664 26.77V24.4532L93.1729 24.3398C93.0165 23.5694 92.714 22.8361 92.2818 22.1796L93.0486 21.2507L91.4285 19.6306L90.505 20.3974C89.8477 19.9667 89.1147 19.6644 88.3449 19.5064L88.226 18.2913H85.9093L85.8066 19.5064C85.0368 19.6644 84.3038 19.9667 83.6465 20.3974L82.723 19.6306L81.1029 21.2507L81.8697 22.1796C81.4375 22.8361 81.135 23.5694 80.9786 24.3398L79.7852 24.4532V26.77L80.9786 26.8834C81.1367 27.6532 81.439 28.3862 81.8697 29.0435L81.1029 29.9724L82.723 31.5925L83.6465 30.8257C84.3038 31.2564 85.0368 31.5587 85.8066 31.7168L85.9201 32.9103H88.2368L88.3503 31.7168C89.1201 31.5587 89.8531 31.2564 90.5104 30.8257L91.4339 31.5925L93.054 29.9724L92.2872 29.0273C92.7179 28.37 93.0202 27.637 93.1782 26.8672L94.3664 26.77ZM87.0703 28.7519C86.4483 28.753 85.8398 28.5694 85.3221 28.2245C84.8044 27.8795 84.4007 27.3887 84.1622 26.8142C83.9236 26.2396 83.8609 25.6072 83.982 24.997C84.1031 24.3868 84.4026 23.8263 84.8425 23.3864C85.2824 22.9465 85.8429 22.647 86.4531 22.5259C87.0633 22.4048 87.6957 22.4675 88.2702 22.7061C88.8448 22.9447 89.3356 23.3483 89.6806 23.866C90.0255 24.3837 90.2091 24.9922 90.208 25.6143C90.2066 26.446 89.8756 27.2432 89.2874 27.8313C88.6993 28.4195 87.9021 28.7505 87.0703 28.7519Z" fill="white"/>
<path d="M103.763 33.3207V31.5008L102.829 31.4144C102.706 30.8154 102.469 30.2454 102.132 29.7348L102.732 29.0112L101.468 27.7258L100.744 28.3253C100.234 27.9886 99.6639 27.7521 99.0649 27.6286L98.9785 26.689H97.1477L97.0613 27.6286C96.4623 27.7521 95.8923 27.9886 95.3818 28.3253L94.6581 27.7258L93.3674 29.0112L93.9669 29.7348C93.6301 30.2454 93.3937 30.8154 93.2702 31.4144L92.3359 31.5008V33.3207L93.2702 33.4071C93.3937 34.0061 93.6301 34.5761 93.9669 35.0867L93.3674 35.8103L94.6527 37.0956L95.3764 36.4962C95.8869 36.8329 96.4569 37.0693 97.0559 37.1928L97.1423 38.1271H98.9623L99.0487 37.1928C99.6477 37.0693 100.218 36.8329 100.728 36.4962L101.452 37.0956L102.737 35.8103L102.138 35.0867C102.474 34.5761 102.711 34.0061 102.834 33.4071L103.763 33.3207ZM98.0442 34.8706C97.5572 34.8706 97.081 34.7262 96.6761 34.4556C96.2711 34.185 95.9555 33.8004 95.7691 33.3504C95.5827 32.9004 95.5339 32.4053 95.6289 31.9276C95.7239 31.4499 95.9585 31.0111 96.3029 30.6667C96.6473 30.3223 97.0861 30.0878 97.5638 29.9927C98.0415 29.8977 98.5366 29.9465 98.9866 30.1329C99.4366 30.3193 99.8212 30.6349 100.092 31.0399C100.362 31.4449 100.507 31.921 100.507 32.408C100.507 33.0612 100.247 33.6875 99.7855 34.1494C99.3237 34.6112 98.6973 34.8706 98.0442 34.8706Z" fill="white"/>
<path d="M94.3682 38.4781V36.9498L93.5797 36.8796C93.4771 36.3768 93.2791 35.8984 92.9965 35.4701L93.4987 34.8598L92.4186 33.7797L91.8084 34.282C91.3791 34.0012 90.901 33.8034 90.3989 33.6987L90.3233 32.9103H88.7949L88.7193 33.6987C88.2172 33.8034 87.7391 34.0012 87.3098 34.282L86.6996 33.7797L85.6195 34.8598L86.1217 35.4701C85.8391 35.8984 85.6411 36.3768 85.5385 36.8796L84.75 36.9498V38.4781L85.5385 38.5537C85.6431 39.0559 85.8409 39.534 86.1217 39.9633L85.6195 40.5735L86.6996 41.6536L87.3098 41.1514C87.74 41.4316 88.2176 41.6311 88.7193 41.74L88.7949 42.5231H90.3233L90.3989 41.74C90.9006 41.6311 91.3782 41.4316 91.8084 41.1514L92.4186 41.6536L93.4987 40.5735L92.9965 39.9633C93.2773 39.534 93.4751 39.0559 93.5797 38.5537L94.3682 38.4781ZM89.5888 39.7796C89.1793 39.7807 88.7786 39.6602 88.4376 39.4333C88.0967 39.2064 87.8307 38.8835 87.6735 38.5053C87.5163 38.1271 87.4749 37.7108 87.5545 37.3091C87.6342 36.9074 87.8313 36.5383 88.1209 36.2487C88.4104 35.9591 88.7795 35.762 89.1812 35.6824C89.5829 35.6028 89.9993 35.6442 90.3774 35.8014C90.7556 35.9586 91.0786 36.2246 91.3054 36.5655C91.5323 36.9065 91.6528 37.3071 91.6518 37.7167C91.6518 38.2638 91.4344 38.7885 91.0475 39.1754C90.6607 39.5623 90.1359 39.7796 89.5888 39.7796Z" fill="white"/>
<path opacity="0.2" d="M108.246 12.0214H77.8199C75.6336 12.0214 73.8613 13.7937 73.8613 15.9799V46.406C73.8613 48.5922 75.6336 50.3645 77.8199 50.3645H108.246C110.432 50.3645 112.204 48.5922 112.204 46.406V15.9799C112.204 13.7937 110.432 12.0214 108.246 12.0214Z" fill="white"/>
<path opacity="0.2" d="M166.409 61.4624H132.834C130.424 61.4624 128.471 63.416 128.471 65.826V99.4005C128.471 101.81 130.424 103.764 132.834 103.764H166.409C168.819 103.764 170.772 101.81 170.772 99.4005V65.826C170.772 63.416 168.819 61.4624 166.409 61.4624Z" fill="black"/>
<path d="M170.881 59.1996H142.75C140.731 59.1996 139.094 60.8365 139.094 62.8557V90.9866C139.094 93.0059 140.731 94.6427 142.75 94.6427H170.881C172.9 94.6427 174.537 93.0059 174.537 90.9866V62.8557C174.537 60.8365 172.9 59.1996 170.881 59.1996Z" fill="#407BFF"/>
<path opacity="0.2" d="M170.881 59.1996H142.75C140.731 59.1996 139.094 60.8365 139.094 62.8557V90.9866C139.094 93.0059 140.731 94.6427 142.75 94.6427H170.881C172.9 94.6427 174.537 93.0059 174.537 90.9866V62.8557C174.537 60.8365 172.9 59.1996 170.881 59.1996Z" fill="white"/>
<path d="M158.173 82.616C158.173 82.8693 158.098 83.117 157.957 83.3276C157.816 83.5382 157.616 83.7022 157.382 83.799C157.148 83.8957 156.89 83.9207 156.641 83.8709C156.393 83.821 156.165 83.6986 155.986 83.5191C155.807 83.3395 155.686 83.111 155.637 82.8623C155.588 82.6137 155.615 82.3562 155.712 82.1224C155.81 81.8886 155.975 81.6891 156.186 81.5491C156.397 81.4092 156.645 81.335 156.899 81.3361C157.237 81.3375 157.561 81.473 157.8 81.7128C158.039 81.9527 158.173 82.2775 158.173 82.616Z" fill="white"/>
<path d="M156.785 69.8493C155.116 69.8486 153.464 70.1768 151.922 70.8152C150.38 71.4535 148.979 72.3895 147.798 73.5696C146.618 74.7497 145.682 76.1508 145.044 77.6929C144.406 79.2349 144.077 80.8876 144.078 82.5566H154.226C154.209 82.2184 154.264 81.8805 154.387 81.5652C154.511 81.2498 154.699 80.9643 154.941 80.7275C155.183 80.4906 155.473 80.3078 155.791 80.1911C156.109 80.0745 156.448 80.0266 156.785 80.0508C157.045 80.0633 157.301 80.1124 157.547 80.1966L162.305 74.6719L158.946 81.2065C159.208 81.6072 159.346 82.0773 159.34 82.5566H169.514C169.514 80.886 169.185 79.2318 168.545 77.6887C167.905 76.1456 166.967 74.7438 165.785 73.5635C164.602 72.3833 163.199 71.4477 161.655 70.8104C160.111 70.1731 158.456 69.8465 156.785 69.8493Z" fill="white"/>
<path opacity="0.2" d="M172.381 59.1996H144.25C142.231 59.1996 140.594 60.8365 140.594 62.8557V90.9866C140.594 93.0059 142.231 94.6427 144.25 94.6427H172.381C174.4 94.6427 176.037 93.0059 176.037 90.9866V62.8557C176.037 60.8365 174.4 59.1996 172.381 59.1996Z" fill="white"/>
<path opacity="0.2" d="M176.718 27.6503H147.259C145.144 27.6503 143.43 29.3645 143.43 31.4792V60.9386C143.43 63.0532 145.144 64.7675 147.259 64.7675H176.718C178.833 64.7675 180.547 63.0532 180.547 60.9386V31.4792C180.547 29.3645 178.833 27.6503 176.718 27.6503Z" fill="black"/>
<path d="M181.276 24.3776H156.591C154.819 24.3776 153.383 25.8138 153.383 27.5855V52.2709C153.383 54.0426 154.819 55.4788 156.591 55.4788H181.276C183.048 55.4788 184.484 54.0426 184.484 52.2709V27.5855C184.484 25.8138 183.048 24.3776 181.276 24.3776Z" fill="#407BFF"/>
<path opacity="0.1" d="M181.276 24.3776H156.591C154.819 24.3776 153.383 25.8138 153.383 27.5855V52.2709C153.383 54.0426 154.819 55.4788 156.591 55.4788H181.276C183.048 55.4788 184.484 54.0426 184.484 52.2709V27.5855C184.484 25.8138 183.048 24.3776 181.276 24.3776Z" fill="white"/>
<path d="M177.615 32.2731C177.615 32.0024 177.508 31.7427 177.316 31.5513C177.125 31.3599 176.865 31.2524 176.595 31.2524H161.355C161.084 31.2524 160.824 31.3599 160.633 31.5513C160.442 31.7427 160.334 32.0024 160.334 32.2731V35.6321C160.334 35.9028 160.442 36.1625 160.633 36.3539C160.824 36.5453 161.084 36.6528 161.355 36.6528H176.595C176.865 36.6528 177.125 36.5453 177.316 36.3539C177.508 36.1625 177.615 35.9028 177.615 35.6321V32.2731ZM172.582 34.093H171.707V33.2181H172.582V34.093ZM174.921 34.5304C174.746 34.5315 174.575 34.4807 174.43 34.3844C174.284 34.288 174.17 34.1506 174.103 33.9895C174.036 33.8285 174.018 33.651 174.052 33.4798C174.085 33.3085 174.169 33.1512 174.293 33.0277C174.416 32.9043 174.574 32.8204 174.745 32.7866C174.916 32.7528 175.093 32.7707 175.255 32.838C175.416 32.9053 175.553 33.0189 175.649 33.1645C175.746 33.3101 175.797 33.481 175.795 33.6556C175.795 33.7709 175.773 33.8851 175.728 33.9916C175.684 34.0981 175.619 34.1948 175.537 34.2761C175.455 34.3574 175.358 34.4218 175.252 34.4654C175.145 34.5091 175.031 34.5312 174.915 34.5304H174.921Z" fill="white"/>
<path d="M177.615 38.2136C177.615 37.9429 177.508 37.6832 177.316 37.4918C177.125 37.3004 176.865 37.1929 176.595 37.1929H161.355C161.084 37.1929 160.824 37.3004 160.633 37.4918C160.442 37.6832 160.334 37.9429 160.334 38.2136V41.5726C160.334 41.8433 160.442 42.1029 160.633 42.2944C160.824 42.4858 161.084 42.5933 161.355 42.5933H176.595C176.865 42.5933 177.125 42.4858 177.316 42.2944C177.508 42.1029 177.615 41.8433 177.615 41.5726V38.2136ZM172.582 40.3737H171.707V39.4989H172.582V40.3737ZM174.921 40.8112C174.748 40.8112 174.578 40.7599 174.435 40.6637C174.291 40.5676 174.179 40.431 174.112 40.2711C174.046 40.1112 174.029 39.9353 174.063 39.7656C174.096 39.5959 174.18 39.44 174.302 39.3177C174.424 39.1953 174.58 39.112 174.75 39.0782C174.92 39.0445 175.096 39.0618 175.255 39.128C175.415 39.1942 175.552 39.3064 175.648 39.4502C175.744 39.5941 175.795 39.7633 175.795 39.9363C175.795 40.0514 175.773 40.1653 175.728 40.2715C175.684 40.3777 175.619 40.4741 175.537 40.555C175.455 40.6358 175.358 40.6997 175.251 40.7427C175.144 40.7858 175.03 40.8072 174.915 40.8058L174.921 40.8112Z" fill="white"/>
<path d="M177.615 44.154C177.615 43.8833 177.508 43.6237 177.316 43.4323C177.125 43.2409 176.865 43.1334 176.595 43.1334H161.355C161.084 43.1334 160.824 43.2409 160.633 43.4323C160.442 43.6237 160.334 43.8833 160.334 44.154V47.5131C160.334 47.7838 160.442 48.0434 160.633 48.2348C160.824 48.4263 161.084 48.5338 161.355 48.5338H176.595C176.865 48.5338 177.125 48.4263 177.316 48.2348C177.508 48.0434 177.615 47.7838 177.615 47.5131V44.154ZM172.582 46.649H171.707V45.7742H172.582V46.649ZM174.921 47.0865C174.748 47.0865 174.578 47.0352 174.435 46.939C174.291 46.8429 174.179 46.7063 174.112 46.5464C174.046 46.3866 174.029 46.2106 174.063 46.0409C174.096 45.8712 174.18 45.7153 174.302 45.593C174.424 45.4706 174.58 45.3873 174.75 45.3536C174.92 45.3198 175.096 45.3371 175.255 45.4033C175.415 45.4696 175.552 45.5817 175.648 45.7256C175.744 45.8694 175.795 46.0386 175.795 46.2116C175.795 46.327 175.773 46.4412 175.728 46.5477C175.684 46.6542 175.619 46.7508 175.537 46.8322C175.455 46.9135 175.358 46.9778 175.252 47.0214C175.145 47.0651 175.031 47.0872 174.915 47.0865H174.921Z" fill="white"/>
<path opacity="0.2" d="M182.594 24.3776H157.909C156.137 24.3776 154.701 25.8138 154.701 27.5855V52.2709C154.701 54.0426 156.137 55.4788 157.909 55.4788H182.594C184.366 55.4788 185.802 54.0426 185.802 52.2709V27.5855C185.802 25.8138 184.366 24.3776 182.594 24.3776Z" fill="white"/>
<path opacity="0.2" d="M123.934 56.3969H87.6165C85.0097 56.3969 82.8965 58.5101 82.8965 61.1168V97.4348C82.8965 100.042 85.0097 102.155 87.6165 102.155H123.934C126.541 102.155 128.654 100.042 128.654 97.4348V61.1168C128.654 58.5101 126.541 56.3969 123.934 56.3969Z" fill="black"/>
<path d="M128.017 53.1566H97.5913C95.4051 53.1566 93.6328 54.9288 93.6328 57.1151V87.5412C93.6328 89.7274 95.4051 91.4997 97.5913 91.4997H128.017C130.204 91.4997 131.976 89.7274 131.976 87.5412V57.1151C131.976 54.9288 130.204 53.1566 128.017 53.1566Z" fill="#407BFF"/>
<path opacity="0.5" d="M128.017 53.1566H97.5913C95.4051 53.1566 93.6328 54.9288 93.6328 57.1151V87.5412C93.6328 89.7274 95.4051 91.4997 97.5913 91.4997H128.017C130.204 91.4997 131.976 89.7274 131.976 87.5412V57.1151C131.976 54.9288 130.204 53.1566 128.017 53.1566Z" fill="white"/>
<path d="M102.198 82.859C101.92 82.5806 101.699 82.2502 101.549 81.8865C101.398 81.5228 101.32 81.133 101.32 80.7393C101.32 80.3456 101.398 79.9558 101.549 79.5921C101.699 79.2284 101.92 78.898 102.198 78.6196L109.219 71.6315C109.375 71.4737 109.561 71.3485 109.766 71.2631C109.971 71.1776 110.191 71.1336 110.413 71.1336C110.635 71.1336 110.854 71.1776 111.059 71.2631C111.264 71.3485 111.45 71.4737 111.606 71.6315L113.453 73.473C113.611 73.6296 113.736 73.816 113.822 74.0213C113.907 74.2266 113.951 74.4468 113.951 74.6692C113.951 74.8916 113.907 75.1118 113.822 75.3171C113.736 75.5224 113.611 75.7088 113.453 75.8654L106.459 82.859C106.181 83.1419 105.85 83.3667 105.484 83.5201C105.118 83.6736 104.726 83.7526 104.329 83.7526C103.932 83.7526 103.54 83.6736 103.174 83.5201C102.808 83.3667 102.476 83.1419 102.198 82.859Z" fill="white"/>
<path d="M115.077 71.3452L113.705 69.9735L121.606 62.0727L123.323 61.7271L122.983 63.4444L115.077 71.3452Z" fill="white"/>
<path d="M114.305 73.1814L111.875 70.7458C111.822 70.6954 111.78 70.6346 111.751 70.5673C111.722 70.5 111.707 70.4275 111.707 70.3543C111.707 70.281 111.722 70.2086 111.751 70.1413C111.78 70.0739 111.822 70.0132 111.875 69.9628C111.926 69.9088 111.987 69.8658 112.055 69.8364C112.122 69.807 112.195 69.7918 112.269 69.7918C112.343 69.7918 112.416 69.807 112.484 69.8364C112.552 69.8658 112.613 69.9088 112.664 69.9628L115.094 72.393C115.148 72.4435 115.191 72.5045 115.22 72.5723C115.25 72.6402 115.265 72.7133 115.265 72.7872C115.265 72.8611 115.25 72.9342 115.22 73.002C115.191 73.0699 115.148 73.1309 115.094 73.1814C115.043 73.2354 114.982 73.2784 114.914 73.3078C114.847 73.3372 114.773 73.3524 114.7 73.3524C114.626 73.3524 114.553 73.3372 114.485 73.3078C114.417 73.2784 114.356 73.2354 114.305 73.1814Z" fill="white"/>
<path d="M111.032 68.5154L107.7 65.1726C108.321 63.5038 107.063 61.4517 105.696 60.9116L105.669 63.4822C105.669 63.7687 105.555 64.0434 105.353 64.246C105.15 64.4485 104.876 64.5623 104.589 64.5623C104.303 64.5623 104.028 64.4485 103.825 64.246C103.623 64.0434 103.509 63.7687 103.509 63.4822V60.9548C102.882 61.2088 102.341 61.6365 101.949 62.1875C101.557 62.7385 101.33 63.39 101.295 64.0655C101.303 64.8629 101.599 65.6304 102.13 66.2261C102.66 66.8218 103.388 67.2053 104.179 67.3057C104.729 67.3903 105.293 67.3115 105.799 67.0789L109.158 70.4488L111.032 68.5154Z" fill="white"/>
<path d="M122.125 81.1956V83.7501C122.752 83.496 123.294 83.0684 123.686 82.5174C124.078 81.9664 124.305 81.3149 124.34 80.6394C124.345 79.8453 124.064 79.0758 123.548 78.4719C123.032 77.868 122.316 77.4699 121.531 77.3505C121.015 77.2435 120.478 77.2962 119.992 77.5017L116.504 74.0023L114.592 75.914L118.059 79.3865C117.054 81.4387 118.599 83.1668 119.987 83.7069V81.1686C119.987 80.8822 120.101 80.6075 120.303 80.4049C120.506 80.2024 120.78 80.0886 121.067 80.0886C121.209 80.0914 121.35 80.1223 121.48 80.1795C121.61 80.2367 121.728 80.3191 121.826 80.422C121.925 80.5249 122.002 80.6462 122.053 80.779C122.104 80.9117 122.129 81.0533 122.125 81.1956Z" fill="white"/>
<path opacity="0.2" d="M129.637 53.1566H99.2105C97.0242 53.1566 95.252 54.9288 95.252 57.1151V87.5412C95.252 89.7274 97.0242 91.4997 99.2105 91.4997H129.637C131.823 91.4997 133.595 89.7274 133.595 87.5412V57.1151C133.595 54.9288 131.823 53.1566 129.637 53.1566Z" fill="white"/>
<path d="M119.96 46.2224L156.64 46.2224C159.273 46.2224 161.408 44.0874 161.408 41.4538V4.77395C161.408 2.14033 159.273 0.00535965 156.64 0.00535965L119.96 0.00535965C117.326 0.00535965 115.191 2.14033 115.191 4.77395V41.4538C115.191 44.0874 117.326 46.2224 119.96 46.2224Z" fill="#407BFF"/>
<path opacity="0.2" d="M153.993 7.3446H110.217C107.074 7.3446 104.525 9.89303 104.525 13.0367V56.8127C104.525 59.9563 107.074 62.5047 110.217 62.5047H153.993C157.137 62.5047 159.686 59.9563 159.686 56.8127V13.0367C159.686 9.89303 157.137 7.3446 153.993 7.3446Z" fill="black"/>
<path opacity="0.5" d="M119.96 46.2224L156.64 46.2224C159.273 46.2224 161.408 44.0874 161.408 41.4538V4.77395C161.408 2.14033 159.273 0.00535965 156.64 0.00535965L119.96 0.00535965C117.326 0.00535965 115.191 2.14033 115.191 4.77395V41.4538C115.191 44.0874 117.326 46.2224 119.96 46.2224Z" fill="white"/>
<path d="M138.289 8.79187L124.15 14.3435C124.15 14.3435 125.938 33.7851 138.305 37.4304C150.677 33.7851 152.465 14.3435 152.465 14.3435L138.289 8.79187ZM137.932 27.6178C137.84 27.7387 137.722 27.8371 137.586 27.9054C137.451 27.9737 137.301 28.0102 137.149 28.012C136.996 28.0095 136.845 27.9711 136.709 27.8998C136.573 27.8286 136.456 27.7264 136.366 27.6016L131.403 20.7592C131.328 20.6554 131.273 20.5376 131.243 20.4127C131.213 20.2878 131.208 20.1582 131.228 20.0314C131.248 19.9045 131.293 19.7828 131.36 19.6733C131.427 19.5637 131.515 19.4685 131.619 19.3929C131.723 19.3174 131.841 19.2631 131.966 19.2331C132.091 19.203 132.22 19.1979 132.347 19.218C132.474 19.238 132.596 19.2829 132.705 19.35C132.815 19.4171 132.91 19.5051 132.986 19.609L137.176 25.3766L144.024 16.3363C144.18 16.1305 144.412 15.9951 144.668 15.9597C144.924 15.9243 145.184 15.9917 145.39 16.1473C145.593 16.3205 145.724 16.5624 145.759 16.8266C145.794 17.0908 145.73 17.3585 145.579 17.5784L137.932 27.6178Z" fill="white"/>
<path opacity="0.2" d="M121.915 46.2224L158.595 46.2224C161.228 46.2224 163.363 44.0874 163.363 41.4538V4.77395C163.363 2.14033 161.228 0.00535965 158.595 0.00535965L121.915 0.00535965C119.281 0.00535965 117.146 2.14033 117.146 4.77395V41.4538C117.146 44.0874 119.281 46.2224 121.915 46.2224Z" fill="white"/>
<path d="M203.564 120.316H157.525V151.385H203.564V120.316Z" fill="#407BFF"/>
<path opacity="0.7" d="M203.564 120.316H157.525V151.385H203.564V120.316Z" fill="white"/>
<path d="M202.598 122.714H158.385V150.354H202.598V122.714Z" fill="#263238"/>
<path d="M196.761 126.997H160.41V127.807H196.761V126.997Z" fill="#E0E0E0"/>
<path d="M191.355 129.292H160.41V130.102H191.355V129.292Z" fill="#E0E0E0"/>
<path d="M196.761 131.587H160.41V132.397H196.761V131.587Z" fill="#E0E0E0"/>
<path d="M191.355 133.882H160.41V134.692H191.355V133.882Z" fill="#E0E0E0"/>
<path d="M164.336 136.178H160.41V136.988H164.336V136.178Z" fill="#E0E0E0"/>
<path d="M180.548 138.473H160.41V139.283H180.548V138.473Z" fill="#E0E0E0"/>
<path d="M191.355 140.768H160.41V141.578H191.355V140.768Z" fill="#E0E0E0"/>
<path d="M164.336 143.063H160.41V143.873H164.336V143.063Z" fill="#E0E0E0"/>
<path d="M164.336 145.358H160.41V146.168H164.336V145.358Z" fill="#E0E0E0"/>
<path d="M70.8103 55.6786H24.7715V86.7473H70.8103V55.6786Z" fill="#407BFF"/>
<path opacity="0.7" d="M70.8103 55.6786H24.7715V86.7473H70.8103V55.6786Z" fill="white"/>
<path d="M69.8384 58.0764H25.625V85.7159H69.8384V58.0764Z" fill="#263238"/>
<path d="M64.0008 62.3535H27.6504V63.1636H64.0008V62.3535Z" fill="#E0E0E0"/>
<path d="M58.5949 64.6487H27.6504V65.4588H58.5949V64.6487Z" fill="#E0E0E0"/>
<path d="M64.0008 66.9439H27.6504V67.754H64.0008V66.9439Z" fill="#E0E0E0"/>
<path d="M58.5949 69.2391H27.6504V70.0492H58.5949V69.2391Z" fill="#E0E0E0"/>
<path d="M31.5765 71.5343H27.6504V72.3444H31.5765V71.5343Z" fill="#E0E0E0"/>
<path d="M47.7886 73.8295H27.6504V74.6395H47.7886V73.8295Z" fill="#E0E0E0"/>
<path d="M58.5949 76.1247H27.6504V76.9348H58.5949V76.1247Z" fill="#E0E0E0"/>
<path d="M31.5765 78.4199H27.6504V79.2299H31.5765V78.4199Z" fill="#E0E0E0"/>
<path d="M31.5765 80.715H27.6504V81.5251H31.5765V80.715Z" fill="#E0E0E0"/>
</g>
<defs>
<clipPath id="clip0_1099_22514">
<rect width="209.478" height="200" fill="white"/>
</clipPath>
</defs>
</svg>
