<?xml version="1.0" encoding="utf-8"?>
<!-- Generator: Adobe Illustrator 26.0.1, SVG Export Plug-In . SVG Version: 6.00 Build 0)  -->
<svg version="1.1" id="Layer_1" xmlns="http://www.w3.org/2000/svg" xmlns:xlink="http://www.w3.org/1999/xlink" x="0px" y="0px"
	 viewBox="0 0 258.4 60" style="enable-background:new 0 0 258.4 60;" xml:space="preserve">
<style type="text/css">
	.st0{clip-path:url(#SVGID_00000026865612496788095550000010000785145975717283_);}
	.st1{fill:#6FD7EF;}
</style>
<g>
	<defs>
		<rect id="SVGID_1_" x="-9.8" y="-10" width="277.1" height="80"/>
	</defs>
	<clipPath id="SVGID_00000021807212826783443550000001604000658060101796_">
		<use xlink:href="#SVGID_1_"  style="overflow:visible;"/>
	</clipPath>
	<g style="clip-path:url(#SVGID_00000021807212826783443550000001604000658060101796_);">
		<path class="st1" d="M73.6,26.1c0-3,0.1-5.6,0.2-7.7c0.2-2.1,0.5-3.8,0.9-5.1c0.5-1.4,1.1-2.3,1.9-2.8c0.8-0.6,1.9-0.9,3.3-0.9
			s2.4,0.3,3.2,0.9c0.8,0.5,1.5,1.6,1.9,2.9c0.5,1.4,0.7,3,0.8,5.1c0.2,2.1,0.3,4.7,0.3,7.7s-0.1,5.6-0.3,7.7
			c-0.1,2.1-0.5,3.8-0.9,5.1c-0.5,1.3-1,2.3-1.9,2.8c-0.8,0.5-1.8,0.9-3.2,0.9c-1.4,0-2.4-0.3-3.3-0.9c-0.8-0.6-1.5-1.6-1.9-2.9
			s-0.7-3-0.8-5.1C73.7,31.7,73.6,29.1,73.6,26.1z M64.5,26.1c0,3.4,0.1,6.6,0.5,9.4c0.4,2.8,1,5.3,2,7.3c1.1,2,2.7,3.7,4.7,4.8
			c2,1.1,4.7,1.6,8,1.6c3.4,0,6.1-0.5,8-1.6c2-1.1,3.6-2.7,4.6-4.7c1.1-2,1.8-4.5,2.1-7.3c0.4-2.8,0.5-5.9,0.5-9.4
			c0-3.4-0.2-6.5-0.5-9.3c-0.3-2.9-1-5.4-2-7.4c-1-2-2.6-3.7-4.6-4.8c-2-1.2-4.7-1.7-8-1.7c-3.4,0-6.1,0.5-8,1.7
			c-2,1.1-3.6,2.7-4.7,4.8c-1,2-1.7,4.5-2.1,7.4C64.7,19.6,64.5,22.7,64.5,26.1z M101.9,20.7l-0.1,27.8h8.7l0.1-27.8h5v-5.9h-5v-2.9
			c0-1,0.3-1.6,0.7-2.1c0.5-0.5,1.4-0.6,2.6-0.6h0.8c0.4,0,0.6,0,0.9,0.1V3.1c-1.6-0.1-3.1-0.2-4.7-0.2c-1.4,0-2.7,0.2-3.7,0.5
			s-2.1,0.6-2.9,1.3c-0.7,0.6-1.4,1.5-1.7,2.5c-0.5,1-0.6,2.3-0.6,3.8v3.8h-4.4v5.9H101.9z M120.5,20.8l-0.1,27.8h8.7l0.1-27.8h5
			v-5.9h-5V12c0-1,0.3-1.6,0.7-2.1c0.5-0.5,1.4-0.6,2.6-0.6h0.8c0.4,0,0.6,0,0.9,0.1V3.2c-1.6-0.1-3.1-0.2-4.7-0.2
			c-1.4,0-2.7,0.2-3.7,0.5c-1.1,0.3-2.1,0.6-2.9,1.3c-0.7,0.6-1.4,1.5-1.7,2.5c-0.5,1-0.6,2.3-0.6,3.8v3.8h-4.4v5.9H120.5z
			 M143.5,37.6h-7.8v1.2c0,1.6,0.2,3.1,0.5,4.5c0.4,1.3,1,2.4,1.9,3.3c0.9,0.9,2.2,1.6,3.8,2.1c1.6,0.5,3.7,0.7,6,0.7
			c1.8,0,3.5-0.2,5-0.5c1.6-0.4,2.8-1,3.9-1.8c1.1-0.9,2-1.9,2.7-3.3c0.6-1.4,0.9-2.9,0.9-4.7c0-2.6-0.5-4.6-1.6-6
			c-1.1-1.5-3-2.7-5.8-3.7l-5.2-1.7c-1.5-0.5-2.5-1-3-1.7c-0.5-0.6-0.7-1.5-0.7-2.3c0-1.2,0.4-2.1,1.2-2.7c0.8-0.6,1.8-0.9,2.9-0.9
			c1.5,0,2.4,0.5,2.9,1.3c0.5,0.8,0.9,2.1,0.9,3.8h7.8v-1.4c0-3-0.9-5.4-2.8-7.1c-1.9-1.6-4.8-2.6-8.7-2.6c-2.2,0-4.1,0.3-5.7,0.8
			c-1.6,0.5-2.8,1.3-3.8,2.2c-1,0.9-1.7,2-2.2,3.3c-0.5,1.2-0.7,2.5-0.7,3.8c0,2.4,0.6,4.4,1.8,5.9c1.2,1.5,3,2.7,5.4,3.5l6,2.2
			c0.8,0.4,1.6,0.8,2.2,1.4c0.6,0.5,0.9,1.4,0.9,2.5c0,1.4-0.4,2.4-1.2,3c-0.8,0.6-1.8,1-3.2,1c-1.5,0-2.6-0.5-3.4-1.3
			c-0.7-0.9-1.1-2.1-1.1-3.6V37.6z M165.4,3.4v7.4h8.7V3.4H165.4z M165.4,14.9l-0.1,33.7h8.7l0.1-33.7H165.4z M188.1,32.9
			c0-2.3,0.1-4.1,0.1-5.7c0.1-1.6,0.4-2.8,0.7-3.7c0.4-1,0.8-1.6,1.4-2.1c0.5-0.5,1.4-0.6,2.3-0.6c1.7,0,2.9,0.8,3.5,2.6
			c0.6,1.7,1,4.7,1,8.7c0,1.5-0.1,2.7-0.3,3.9c-0.1,1.2-0.4,2.2-0.7,3c-0.4,0.8-0.8,1.5-1.5,2c-0.5,0.5-1.4,0.7-2.3,0.6
			c-0.9,0-1.6-0.3-2.3-0.7c-0.5-0.5-1-1.2-1.3-1.9c-0.3-0.8-0.5-1.7-0.6-2.8C188.1,35.2,188,34.1,188.1,32.9z M205.3,15h-8.2v3.7
			H197c-0.8-1.7-1.9-2.9-3.2-3.7c-1.3-0.6-2.6-1-3.7-1c-2.4,0-4.2,0.5-5.7,1.6c-1.4,1-2.5,2.4-3.2,4c-0.7,1.6-1.2,3.5-1.5,5.5
			c-0.2,2-0.4,4-0.4,6c0,6.1,0.8,10.5,2.6,13.2c1.7,2.6,4.3,3.9,7.8,3.9c1.4,0,2.7-0.4,3.9-1.1s2.4-1.7,3.3-3h0.1v4.5
			c0,1.6-0.4,3.1-1.1,4.2c-0.7,1.1-1.9,1.6-3.7,1.6c-0.5,0-1.1-0.1-1.6-0.3c-0.5-0.2-0.9-0.4-1.3-0.7c-0.9-0.6-1.3-1.5-1.3-2.6h-8.2
			c0,2.9,1,5.1,2.9,6.7c2,1.6,4.8,2.4,8.5,2.4c5,0,8.7-1.1,10.8-3.2c2.2-2.2,3.3-5.4,3.3-9.8L205.3,15z M211.5,4l-0.1,44.7h8.7V26.4
			c0-3.7,1.6-5.6,4.6-5.6c1.3,0,2.2,0.4,2.8,1.1c0.5,0.6,0.9,1.9,0.9,3.7v23.2h8.7l0.1-25.1c0-3.4-0.7-5.9-2.3-7.3
			c-1.5-1.5-3.6-2.3-6.3-2.3c-3.8,0-6.6,1.5-8.2,4.3h-0.1V4L211.5,4z M244.7,5.4v9.7h-4.4V21h4.4v19.3c0,1.7,0.1,3.1,0.3,4.3
			c0.2,1.1,0.5,2,1.1,2.7c0.5,0.6,1.4,1.1,2.5,1.4c1.1,0.2,2.5,0.3,4.1,0.4c1,0,1.9,0,2.8-0.1c0.9,0,1.8-0.1,2.8-0.1v-6
			c-0.3,0-0.6,0.1-0.9,0.1c-0.4,0-0.6,0-1,0c-1.3,0-2.1-0.3-2.5-0.8c-0.4-0.5-0.5-1.6-0.5-2.9V21h5v-5.9h-5V5.4H244.7z"/>
		<path class="st1" d="M18,7.3c1.7,0,3.5,0,5.1,0c0.2,0,0.3,0,0.5,0.1c0.2,0,0.3-0.1,0.5-0.1c1.7,0,3.5,0,5.1,0
			c0.5,0,1.1-0.1,1.6-0.3c0.5-0.2,1-0.5,1.4-0.9C32.6,5.6,33,5,33.1,4.3c0.1-0.7,0-1.5-0.3-2.1c-0.3-0.6-0.6-1.2-1.3-1.6
			c-0.6-0.5-1.3-0.6-1.9-0.5c-2,0-4,0-6,0s-4,0-6,0c-0.7,0-1.4,0.2-1.9,0.5c-0.5,0.4-1,0.9-1.3,1.6c-0.3,0.6-0.4,1.4-0.3,2.1
			c0.1,0.7,0.5,1.4,0.9,1.8c0.4,0.5,0.8,0.7,1.4,1C16.9,7.2,17.5,7.3,18,7.3z"/>
		<path class="st1" d="M29.3,40.7h-5.1c-0.2,0-0.3,0-0.5-0.1c-0.2,0-0.3,0.1-0.5,0.1H18c-0.5,0-1.1,0.1-1.6,0.3
			c-0.5,0.2-1,0.5-1.4,0.9c-0.5,0.5-0.8,1.2-0.9,1.8c-0.1,0.7,0,1.5,0.3,2.1c0.3,0.6,0.6,1.2,1.3,1.6c0.5,0.4,1.3,0.6,1.9,0.5
			c2,0,4,0,6,0s4,0,6,0c0.7,0,1.4-0.2,1.9-0.5c0.5-0.4,1-0.9,1.3-1.6c0.3-0.6,0.4-1.4,0.3-2.1c-0.1-0.7-0.5-1.4-0.9-1.8
			c-0.4-0.4-0.8-0.7-1.4-0.9C30.4,40.8,29.8,40.7,29.3,40.7z"/>
		<path class="st1" d="M46.2,31.7c-0.4-0.4-0.7-0.6-1.3-0.9c-0.5-0.2-1-0.3-1.5-0.3H32.3c-1.2,0-1.7-0.3-1.8-1.3c0-0.2,0-0.4,0-0.5
			c0.1-0.2,0.2-0.4,0.3-0.5c0.1-0.2,0.3-0.3,0.5-0.4c0.2-0.1,0.4-0.1,0.5-0.1c1.2,0,2.5,0.1,3.7-0.2c0.7-0.2,1.3-0.5,1.8-1.1
			c0.5-0.5,0.8-1.2,0.9-1.9c0-0.2,0-0.4,0-0.6c0-0.2,0-0.5,0-0.6c-0.1-0.7-0.5-1.4-0.9-1.9c-0.5-0.5-1.1-0.9-1.8-1.1
			c-1.2-0.3-2.5-0.1-3.7-0.1c-0.2,0-0.4-0.1-0.5-0.1c-0.2-0.1-0.4-0.2-0.5-0.4c-0.1-0.2-0.2-0.4-0.3-0.5c-0.1-0.2-0.1-0.4,0-0.5
			c0.2-0.9,0.6-1.3,1.8-1.3h11.2c0.5,0,1-0.1,1.5-0.3c0.5-0.2,0.9-0.5,1.3-0.9c0.3-0.3,0.5-0.5,0.7-0.8c0.3-0.5,0.5-1.2,0.5-1.8
			c0-0.6-0.2-1.3-0.5-1.8c-0.4-0.5-0.8-1-1.4-1.3c-0.5-0.3-1.2-0.5-1.8-0.5c-6.4,0-12.9,0-19.3,0c-0.2,0-0.5,0-0.6-0.1
			c-0.2,0-0.5,0.1-0.6,0.1c-6.4,0-12.9,0-19.3,0c-0.6,0-1.3,0.2-1.8,0.5c-0.5,0.3-1,0.7-1.4,1.3S0,12.7,0,13.4
			c0,0.6,0.1,1.3,0.5,1.8c0.2,0.3,0.5,0.6,0.7,0.8c0.4,0.4,0.7,0.6,1.3,0.9c0.5,0.2,1,0.3,1.5,0.3h11.2c1.2,0,1.7,0.3,1.8,1.3
			c0,0.2,0,0.4,0,0.5c-0.1,0.2-0.1,0.4-0.3,0.5c-0.1,0.2-0.3,0.3-0.5,0.4C16,20,15.8,20,15.6,20c-1.2,0-2.5-0.1-3.7,0.1
			c-0.7,0.2-1.3,0.5-1.8,1.1c-0.5,0.5-0.8,1.2-0.9,1.9c-0.1,0.5-0.1,0.8,0,1.3c0.1,0.7,0.5,1.4,0.9,1.9c0.5,0.5,1.1,0.9,1.8,1.1
			c1.2,0.3,2.5,0.1,3.7,0.1c0.2,0,0.4,0.1,0.5,0.1c0.2,0.1,0.4,0.2,0.5,0.4c0.1,0.2,0.2,0.4,0.3,0.5c0.1,0.2,0.1,0.4,0,0.5
			c-0.2,0.9-0.6,1.3-1.8,1.3c-3.7,0-7.4,0-11.2,0c-0.5,0-1,0.1-1.5,0.3c-0.5,0.2-0.9,0.5-1.3,0.9c-0.3,0.3-0.5,0.5-0.7,0.8
			C0.2,32.9,0,33.6,0,34.2c0,0.6,0.2,1.3,0.5,1.8c0.4,0.5,0.8,1,1.4,1.3c0.5,0.3,1.2,0.5,1.8,0.5c6.4,0,12.9,0,19.3,0
			c0.2,0,0.5,0,0.6,0.1c0.2,0,0.5-0.1,0.6-0.1c6.4,0,12.9,0,19.3,0c0.6,0,1.3-0.2,1.8-0.5c0.5-0.3,1-0.7,1.4-1.3
			c0.4-0.5,0.5-1.2,0.5-1.8c0-0.6-0.1-1.3-0.5-1.8C46.6,32.2,46.4,31.8,46.2,31.7z M26,30.5h-4.6c-0.2,0-0.4,0-0.5-0.1
			c-0.2-0.1-0.4-0.2-0.5-0.3c-0.1-0.1-0.3-0.3-0.4-0.5c-0.1-0.2-0.1-0.4-0.1-0.5c0-0.2,0-0.4,0.1-0.5c0.1-0.2,0.2-0.4,0.4-0.5
			c0.2-0.1,0.3-0.2,0.5-0.3c0.2-0.1,0.4-0.1,0.5-0.1H26c0.2,0,0.4,0,0.5,0.1c0.2,0.1,0.4,0.2,0.5,0.3c0.1,0.1,0.3,0.3,0.4,0.5
			c0.1,0.2,0.1,0.4,0.1,0.5c0,0.2,0,0.4-0.1,0.5c-0.1,0.2-0.2,0.4-0.3,0.5c-0.2,0.2-0.3,0.3-0.5,0.3C26.4,30.4,26.1,30.5,26,30.5z
			 M26,20.3h-4.6c-0.2,0-0.4,0-0.5-0.1c-0.2-0.1-0.4-0.2-0.5-0.3c-0.2-0.1-0.3-0.3-0.4-0.5c-0.1-0.2-0.1-0.4-0.1-0.5
			c0-0.2,0-0.4,0.1-0.5c0.1-0.2,0.2-0.4,0.4-0.5c0.2-0.2,0.3-0.3,0.5-0.3c0.2-0.1,0.4-0.1,0.5-0.1H26c0.2,0,0.4,0,0.5,0.1
			c0.2,0.1,0.4,0.2,0.5,0.3c0.2,0.2,0.3,0.3,0.3,0.5c0.1,0.2,0.1,0.4,0.1,0.5c0,0.2,0,0.4-0.1,0.5c-0.1,0.2-0.2,0.4-0.4,0.5
			c-0.2,0.1-0.4,0.2-0.5,0.3C26.3,20.3,26.1,20.3,26,20.3z"/>
	</g>
</g>
</svg>
