<svg width="25" height="25" viewBox="0 0 25 25" fill="none" xmlns="http://www.w3.org/2000/svg">
<path fill-rule="evenodd" clip-rule="evenodd" d="M12.5 25C15.8152 25 18.9946 23.683 21.3388 21.3388C23.683 18.9946 25 15.8152 25 12.5C25 9.18479 23.683 6.00537 21.3388 3.66117C18.9946 1.31696 15.8152 0 12.5 0C9.18479 0 6.00537 1.31696 3.66117 3.66117C1.31696 6.00537 0 9.18479 0 12.5C0 15.8152 1.31696 18.9946 3.66117 21.3388C6.00537 23.683 9.18479 25 12.5 25ZM18.4062 9.8125C18.6132 9.59035 18.7259 9.29653 18.7206 8.99293C18.7152 8.68934 18.5922 8.39967 18.3775 8.18497C18.1628 7.97026 17.8732 7.84727 17.5696 7.84191C17.266 7.83656 16.9721 7.94925 16.75 8.15625L10.5469 14.3594L8.64062 12.4531C8.41848 12.2461 8.12465 12.1334 7.82106 12.1388C7.51746 12.1441 7.2278 12.2671 7.01309 12.4818C6.79838 12.6965 6.6754 12.9862 6.67004 13.2898C6.66468 13.5934 6.77737 13.8872 6.98437 14.1094L9.71875 16.8438C9.93848 17.0632 10.2363 17.1865 10.5469 17.1865C10.8574 17.1865 11.1553 17.0632 11.375 16.8438L18.4062 9.8125Z" fill="#FF6C37"/>
</svg>
