<svg width="254" height="200" viewBox="0 0 254 200" fill="none" xmlns="http://www.w3.org/2000/svg">
<g clip-path="url(#clip0_1077_16895)">
<path d="M191.994 155.972L60.0674 155.972V62.8729C60.0674 62.2662 60.1869 61.6655 60.4191 61.105C60.6512 60.5445 60.9915 60.0352 61.4205 59.6062C61.8495 59.1772 62.3588 58.8369 62.9193 58.6047C63.4798 58.3726 64.0806 58.2531 64.6872 58.2531L187.369 58.2531C187.976 58.2531 188.577 58.3726 189.137 58.6047C189.698 58.8369 190.207 59.1772 190.636 59.6062C191.065 60.0352 191.405 60.5445 191.638 61.105C191.87 61.6655 191.989 62.2662 191.989 62.8729V155.972H191.994Z" fill="#455A64"/>
<path d="M64.7307 138.215L187.096 138.215V63.0436L64.7307 63.0436L64.7307 138.215Z" fill="white"/>
<path d="M51.8762 63.4144H20.752L20.8056 63.1364C21.0513 61.8925 21.7201 60.772 22.6983 59.9654C23.6766 59.1588 24.904 58.7158 26.1719 58.7117C26.5489 58.7115 26.925 58.7507 27.2939 58.8287C28.0322 57.4255 29.1157 56.2334 30.4422 55.3648C31.7688 54.4962 33.2946 53.9797 34.876 53.864C36.4574 53.7483 38.0422 54.0373 39.481 54.7036C40.9199 55.3699 42.1653 56.3917 43.0999 57.6726C44.0331 57.3877 45.0165 57.3061 45.9839 57.4333C46.9513 57.5604 47.8802 57.8934 48.708 58.4097C49.5359 58.926 50.2436 59.6138 50.7833 60.4266C51.3231 61.2394 51.6824 62.1584 51.8372 63.1217L51.8762 63.4144ZM21.3276 62.9266H51.3298C51.0335 61.4909 50.253 60.2006 49.1189 59.2716C47.9848 58.3427 46.566 57.8315 45.1001 57.8238C44.4204 57.8227 43.745 57.9315 43.0999 58.1458L42.9341 58.1994L42.8365 58.058C41.9535 56.8024 40.76 55.7972 39.3725 55.1405C37.9851 54.4838 36.4511 54.198 34.9203 54.3111C33.3895 54.4241 31.9141 54.9321 30.6382 55.7854C29.3622 56.6388 28.3293 57.8083 27.6403 59.18L27.5573 59.3459L27.3768 59.3019C26.9876 59.2044 26.5878 59.1552 26.1865 59.1556C25.0733 59.1571 23.9921 59.5283 23.1127 60.2108C22.2332 60.8934 21.6054 61.8486 21.3276 62.9266Z" fill="#6AAFE8"/>
<path d="M166.187 25.075L166.084 25.0214C155.035 19.3819 156.518 8.45916 156.537 8.35184L156.567 8.15182H156.767C163.787 8.15182 165.997 5.88824 166.036 5.86873L166.206 5.68335L166.377 5.86873C166.402 5.86873 168.607 8.15182 175.646 8.15182H175.851L175.88 8.35184C175.88 8.45916 177.378 19.3819 166.333 25.0214L166.187 25.075ZM156.976 8.61527C156.835 10.0788 156.372 19.4697 166.187 24.553C176.007 19.4697 175.539 10.0983 175.402 8.61527C169.304 8.58112 166.821 6.87856 166.187 6.33706C165.553 6.87856 163.07 8.58112 156.976 8.61527Z" fill="#6AAFE8"/>
<path d="M72.9898 124.931H60.6621V126.326H72.9898V124.931Z" fill="#1487E3"/>
<path d="M58.0916 86.416H38.4121V61.2532H38.8756V85.9525H58.0916V86.416Z" fill="#78C2FF"/>
<path d="M141.38 69.8392H140.912V43.891H165.953V22.065H166.421V44.3544H141.38V69.8392Z" fill="#78C2FF"/>
<path d="M222.274 98.7388H196.219V98.2754H221.806V83.1475H222.274V98.7388Z" fill="#78C2FF"/>
<path d="M27.4896 119.765C27.4896 119.765 26.9286 127.595 28.4653 128.546C29.441 129.131 33.2413 131.112 33.1291 131.473C33.0169 131.834 30.9728 134.776 30.9728 134.776C30.9728 134.776 23.6552 129.946 23.3966 128.434C23.1381 126.921 23.7577 116.97 24.7675 116.511C25.5236 116.165 25.9188 116.452 26.875 117.16C28.2068 118.135 27.4896 119.765 27.4896 119.765Z" fill="#FF7E55"/>
<path d="M26.6369 176.735C26.6369 176.735 26.4077 178.32 26.3784 178.555C26.3491 178.789 23.8416 178.418 23.8416 178.418L23.6367 176.53C23.6367 176.53 26.3247 176.51 26.6369 176.735Z" fill="#424773"/>
<path d="M26.4059 178.355C26.8513 178.89 27.378 179.353 27.967 179.725C28.7378 180.14 29.9476 180.306 30.4062 180.735C30.733 181.047 31.6014 182.384 28.406 182.36C25.2107 182.335 23.674 182.55 23.3325 182.033C22.991 181.516 23.8203 178.247 23.8203 178.247C23.8203 178.247 24.5765 178.545 26.4059 178.355Z" fill="#292C47"/>
<path d="M39.1975 176.735C39.1975 176.735 38.9682 178.32 38.9389 178.555C38.9097 178.789 36.4022 178.418 36.4022 178.418L36.1973 176.53C36.1973 176.53 38.8804 176.51 39.1975 176.735Z" fill="#424773"/>
<path d="M38.9681 178.355C39.4135 178.89 39.9403 179.353 40.5292 179.725C41.3 180.14 44.1295 180.482 44.5832 180.916C44.9149 181.223 45.4564 182.477 40.9634 182.379C37.768 182.296 36.2313 182.569 35.885 182.052C35.5386 181.535 36.3728 178.267 36.3728 178.267C36.3728 178.267 37.0948 178.545 38.9681 178.355Z" fill="#292C47"/>
<path d="M27.5344 136.034C27.5344 136.034 25.1782 139.781 25.3538 143.171C25.5294 146.562 25.144 150.177 24.7879 153.714C24.3927 157.655 23.3244 165.866 23.2609 167.973C23.1975 170.081 23.3341 178.028 23.3341 178.028L27.4271 177.993C27.4271 177.993 28.8906 161.958 29.5834 160.29C30.2761 158.621 33.1739 146.572 33.2909 145.24C33.408 143.908 27.5344 136.034 27.5344 136.034Z" fill="#292C47"/>
<path d="M39.9486 136.542C39.9486 136.542 40.8804 145.752 41.1146 147.825C41.3488 149.899 41.1878 158.88 41.3049 160.178C41.4219 161.475 40.5243 175.174 40.2999 177.784L35.8069 177.754C35.8069 177.754 35.4947 166.671 35.4947 161.285C35.4947 155.899 34.1141 149.63 32.5286 146.074C30.9431 142.518 27.3185 142.435 26.3477 135.829C26.3477 135.844 38.6315 134.454 39.9486 136.542Z" fill="#292C47"/>
<path d="M30.0266 104.442C30.0266 104.442 32.8366 102.564 34.8075 104.578C36.7784 106.593 37.7345 111.315 36.3344 112.257C34.9343 113.199 32.5146 113.447 31.3731 112.169C30.2315 110.891 29.0168 108.935 28.7143 107.51C28.4119 106.086 29.3144 105.042 30.0266 104.442Z" fill="#EEA886"/>
<path d="M35.3781 112.579C35.3781 112.579 35.3439 114.53 35.5635 114.974C35.783 115.418 31.4607 115.404 31.4607 115.404C31.2299 113.972 30.8907 112.559 30.446 111.179C29.7777 109.271 35.3781 112.579 35.3781 112.579Z" fill="#EEA886"/>
<path d="M30.5528 111.15C30.5528 111.15 30.9577 111.559 32.0944 111.096C33.2311 110.633 34.3092 108.71 34.7629 108.423C35.2166 108.135 35.1531 107.842 35.1531 107.842L35.5678 108.223L36.1044 108.13C36.1044 108.13 35.2897 106.832 35.88 106.091C36.4703 105.349 34.0555 101.7 30.5674 103.925C30.5674 103.925 27.8404 105.418 28.338 107.052C28.8356 108.686 29.704 110.476 30.5528 111.15Z" fill="#754836"/>
<path d="M35.8179 114.921C35.8179 114.921 35.8179 114.116 35.4423 114.043C35.0666 113.969 31.4176 113.613 30.9688 113.789V114.725C30.9688 114.725 31.8322 115.257 35.8179 114.921Z" fill="#E2D2CA"/>
<path d="M34.9351 107.257C34.8034 106.993 33.9058 106.364 33.8375 107.281C33.7692 108.198 34.7156 109.184 35.0717 108.993C35.4279 108.803 35.2669 107.925 34.9351 107.257Z" fill="#EEA886"/>
<path d="M29.2125 104.925C29.2125 104.925 25.1976 106.003 30.3931 110.994L29.2125 104.925Z" fill="#754836"/>
<path d="M65.1216 126.292L61.0237 126.253C61.3798 126.048 61.9506 125.677 61.8238 125.512C61.6433 125.273 60.4822 125.799 60.009 125.848C59.436 125.839 58.864 125.901 58.3064 126.034L57.0137 126.585L58.1991 127.682C58.1991 127.682 60.3407 127.99 60.9652 128.034C61.9848 128.107 65.1069 126.892 65.1557 126.707C65.2484 126.375 65.1216 126.292 65.1216 126.292Z" fill="#EEA886"/>
<path d="M41.1643 116.038C38.5592 115.579 35.798 114.921 35.798 114.921L30.9489 114.725C30.9489 114.725 26.4949 115.701 24.7436 116.496C24.5777 116.57 24.5777 120.467 24.1191 121.487L25.5827 124.555C25.5827 124.555 26.4217 130.629 26.5974 133.337C26.6754 134.576 24.8655 144.967 24.8655 144.967C26.5877 145.417 28.3429 145.731 30.1147 145.903C33.4271 146.269 41.7009 145.772 41.7497 145.381C41.7985 144.991 40.1496 130.819 40.0764 130.088C39.9642 128.961 40.3984 123.746 40.3984 123.746C41.0228 124.585 44.6328 127.726 46.3939 128.726C47.6428 129.439 50.7162 129.005 51.6187 128.912C53.5701 128.712 58.99 128.322 59.0973 128.131C59.2046 127.941 58.7851 126.043 58.5558 125.97C58.3265 125.897 51.3748 125.556 49.6234 125.648C48.9112 125.687 46.594 123.097 46.594 123.097C46.594 123.097 42.6034 116.682 41.1643 116.038Z" fill="#FF7E55"/>
<path d="M11.332 96.4265H24.1525V105.72V107.676L22.1962 105.72H11.332V96.4265Z" fill="#407BFF"/>
<path d="M217.801 66.8536H205.361V54.399H217.801V66.8536ZM205.761 66.4389H217.387V54.8137H205.761V66.4389Z" fill="#6AAFE8"/>
<path d="M248.809 58.9653H220.295V55.9211H248.809V58.9653ZM220.71 58.5506H248.395V56.3358H220.71V58.5506Z" fill="#6AAFE8"/>
<path d="M248.808 73.1273H205.361V70.0831H248.823L248.808 73.1273ZM205.761 72.7126H248.394V70.4978H205.761V72.7126Z" fill="#6AAFE8"/>
<path d="M233.027 78.9716H205.361V75.9275H233.041L233.027 78.9716ZM205.761 78.5374H232.593V76.3422H205.761V78.5374Z" fill="#6AAFE8"/>
<path d="M239.604 64.7754H220.295V61.7264H239.604V64.7754ZM220.71 64.3608H239.189V62.146H220.71V64.3608Z" fill="#6AAFE8"/>
<path d="M253.756 85.5964H200.4V47.7742H253.756V85.5964ZM200.815 85.1818H253.341V48.1888H200.815V85.1818Z" fill="#6AAFE8"/>
<path d="M181.584 30.8364H177.594V30.3681H181.121V26.8459H181.584V30.8364Z" fill="#6AAFE8"/>
<path d="M154.739 30.8364H150.748V26.8459H151.211V30.3681H154.739V30.8364Z" fill="#6AAFE8"/>
<path d="M151.211 3.99054H150.748V0H154.739V0.463449H151.211V3.99054Z" fill="#6AAFE8"/>
<path d="M181.584 3.99054H181.121V0.468327H177.594V0H181.584V3.99054Z" fill="#6AAFE8"/>
<path d="M181.585 9.95197H181.121V20.8845H181.585V9.95197Z" fill="#6AAFE8"/>
<path d="M151.216 9.95197H150.748V20.8845H151.216V9.95197Z" fill="#6AAFE8"/>
<path d="M38.6469 61.4874C38.3078 61.4883 37.9761 61.3886 37.6937 61.2008C37.4114 61.0131 37.1912 60.7457 37.061 60.4326C36.9308 60.1195 36.8964 59.7748 36.9624 59.4422C37.0283 59.1096 37.1914 58.804 37.4312 58.5643C37.671 58.3245 37.9765 58.1613 38.3091 58.0954C38.6418 58.0295 38.9864 58.0638 39.2995 58.194C39.6126 58.3242 39.88 58.5445 40.0678 58.8268C40.2556 59.1091 40.3553 59.4409 40.3543 59.7799C40.3543 60.2328 40.1744 60.6671 39.8542 60.9873C39.534 61.3075 39.0997 61.4874 38.6469 61.4874ZM38.6469 58.5359C38.4008 58.5359 38.1603 58.6089 37.9558 58.7456C37.7512 58.8823 37.5917 59.0766 37.4976 59.3039C37.4034 59.5312 37.3788 59.7813 37.4268 60.0226C37.4748 60.2639 37.5933 60.4856 37.7672 60.6596C37.9412 60.8335 38.1629 60.952 38.4042 61C38.6455 61.048 38.8956 61.0234 39.1229 60.9292C39.3502 60.8351 39.5445 60.6756 39.6812 60.4711C39.8179 60.2665 39.8909 60.026 39.8909 59.7799C39.8909 59.6166 39.8587 59.4548 39.7962 59.3039C39.7337 59.153 39.642 59.0158 39.5265 58.9003C39.411 58.7848 39.2739 58.6932 39.1229 58.6306C38.972 58.5681 38.8102 58.5359 38.6469 58.5359Z" fill="#78C2FF"/>
<path d="M166.188 22.2992C165.85 22.2992 165.52 22.1991 165.239 22.0115C164.959 21.8238 164.74 21.5572 164.61 21.2452C164.481 20.9332 164.447 20.5899 164.513 20.2587C164.579 19.9275 164.742 19.6232 164.981 19.3844C165.219 19.1456 165.524 18.983 165.855 18.9171C166.186 18.8513 166.529 18.8851 166.841 19.0143C167.153 19.1435 167.42 19.3624 167.608 19.6432C167.795 19.924 167.895 20.2541 167.895 20.5918C167.895 21.0446 167.715 21.4789 167.395 21.7991C167.075 22.1193 166.641 22.2992 166.188 22.2992ZM166.188 19.3722C165.942 19.3722 165.701 19.4451 165.497 19.5818C165.292 19.7185 165.133 19.9128 165.039 20.1401C164.944 20.3674 164.92 20.6176 164.968 20.8589C165.016 21.1002 165.134 21.3218 165.308 21.4958C165.482 21.6698 165.704 21.7883 165.945 21.8363C166.187 21.8843 166.437 21.8596 166.664 21.7655C166.891 21.6713 167.086 21.5119 167.222 21.3073C167.359 21.1027 167.432 20.8622 167.432 20.6162C167.435 20.4508 167.405 20.2864 167.344 20.1326C167.283 19.9789 167.192 19.8388 167.076 19.7207C166.96 19.6026 166.822 19.5088 166.67 19.4448C166.517 19.3807 166.353 19.3478 166.188 19.3478V19.3722Z" fill="#78C2FF"/>
<path d="M222.04 83.4598C221.703 83.4588 221.373 83.3579 221.093 83.1697C220.813 82.9815 220.595 82.7145 220.466 82.4024C220.338 82.0903 220.305 81.7472 220.371 81.4163C220.438 81.0854 220.601 80.7816 220.84 80.5433C221.079 80.305 221.383 80.1429 221.714 80.0774C222.045 80.0119 222.388 80.046 222.7 80.1754C223.012 80.3047 223.278 80.5236 223.465 80.8043C223.653 81.0849 223.753 81.4149 223.753 81.7524C223.753 81.977 223.708 82.1994 223.622 82.4069C223.536 82.6144 223.41 82.8028 223.251 82.9614C223.092 83.12 222.903 83.2457 222.695 83.3312C222.488 83.4167 222.265 83.4604 222.04 83.4598ZM222.04 80.5084C221.794 80.5084 221.554 80.5813 221.349 80.718C221.145 80.8547 220.985 81.049 220.891 81.2763C220.797 81.5036 220.772 81.7537 220.82 81.995C220.868 82.2364 220.987 82.458 221.161 82.632C221.335 82.806 221.556 82.9244 221.798 82.9724C222.039 83.0204 222.289 82.9958 222.516 82.9017C222.744 82.8075 222.938 82.6481 223.075 82.4435C223.211 82.2389 223.284 81.9984 223.284 81.7524C223.286 81.5875 223.256 81.424 223.194 81.2711C223.132 81.1182 223.041 80.979 222.926 80.8615C222.81 80.7441 222.672 80.6507 222.52 80.5867C222.368 80.5227 222.205 80.4895 222.04 80.4888V80.5084Z" fill="#78C2FF"/>
<path d="M49.9797 14.04H38.2715V2.33185H49.9797V14.04ZM38.7154 13.5522H49.5162V2.77578H38.7154V13.5522Z" fill="#A1D4FF"/>
<path d="M44.3443 5.50769H43.8809V10.9764H44.3443V5.50769Z" fill="#A1D4FF"/>
<path d="M46.8515 8.00549H41.3828V8.46894H46.8515V8.00549Z" fill="#A1D4FF"/>
<path d="M228.718 28.1874H211.951V16.2207H228.718V28.1874ZM212.415 27.6996H228.25V16.6842H212.415V27.6996Z" fill="#A1D4FF"/>
<path d="M220.333 23.4651L212.035 16.6305L212.333 16.2695L220.333 22.8651L228.339 16.2695L228.631 16.6305L220.333 23.4651Z" fill="#A1D4FF"/>
<path d="M222.627 21.4393L222.291 21.7582L228.308 28.1006L228.644 27.7816L222.627 21.4393Z" fill="#A1D4FF"/>
<path d="M218.017 21.4362L212.006 27.7838L212.342 28.1024L218.353 21.7548L218.017 21.4362Z" fill="#A1D4FF"/>
<path d="M79.2495 40.2127L79.0738 39.7541C78.918 39.735 78.7644 39.7007 78.6153 39.6517L78.2591 39.9834L77.2249 39.2468L77.4249 38.8028C77.3273 38.6792 77.2439 38.545 77.1761 38.4028H76.6883L76.4785 37.1539L76.9322 36.9783C76.9511 36.822 76.9871 36.6682 77.0395 36.5197L76.7029 36.1636L77.4396 35.1294L77.8835 35.3294C78.0079 35.2329 78.1419 35.1495 78.2835 35.0806V34.5928L79.5324 34.383L79.708 34.8367C79.864 34.8574 80.0176 34.8934 80.1666 34.944L80.5227 34.6074L81.5569 35.344L81.3569 35.788C81.4535 35.9124 81.5368 36.0464 81.6057 36.188H82.0936L82.3082 37.4418L81.8496 37.6125C81.8312 37.7689 81.7952 37.9227 81.7423 38.0711L82.0789 38.4272L81.3423 39.4614L80.8983 39.2614C80.774 39.3579 80.6399 39.4413 80.4983 39.5102V39.998L79.2495 40.2127ZM78.5323 39.237L78.6348 39.276C78.8204 39.3494 79.0162 39.3938 79.2153 39.4078H79.3226L79.4739 39.798L80.1568 39.6858V39.2663L80.2593 39.2224C80.4344 39.1372 80.5982 39.0307 80.7471 38.9053L80.8301 38.837L81.2106 39.0077L81.6155 38.4418L81.3277 38.1345L81.3667 38.032C81.4395 37.848 81.484 37.6538 81.4984 37.4564V37.3442L81.8887 37.1978L81.7765 36.51H81.3569L81.313 36.4124C81.2301 36.2361 81.1234 36.072 80.9959 35.9246L80.9276 35.8416L81.0984 35.4562L80.5325 35.0513L80.2251 35.3392L80.1227 35.3001C79.9378 35.2299 79.7441 35.1855 79.547 35.1684H79.4348L79.2885 34.7781L78.6006 34.8952V35.3099L78.5031 35.3587C78.3267 35.4396 78.1625 35.5447 78.0152 35.6709L77.9323 35.7392L77.5518 35.5684L77.1469 36.1392L77.4347 36.4417L77.3957 36.5441C77.3223 36.7298 77.2779 36.9256 77.2639 37.1247V37.232L76.8737 37.3832L76.9907 38.0662H77.4054L77.4493 38.1686C77.5334 38.3444 77.6399 38.5083 77.7664 38.6565L77.8347 38.7394L77.664 39.1199L78.2347 39.5248L78.5323 39.237ZM79.3958 38.6565C79.1781 38.6572 78.9634 38.6064 78.769 38.5082C78.5747 38.4101 78.4064 38.2674 78.2778 38.0918C78.1491 37.9162 78.0638 37.7126 78.0288 37.4978C77.9938 37.2829 78.0102 37.0628 78.0764 36.8555C78.1427 36.6482 78.2571 36.4594 78.4102 36.3047C78.5634 36.15 78.7509 36.0337 78.9576 35.9653C79.1642 35.8968 79.3841 35.8783 79.5993 35.911C79.8145 35.9438 80.0189 36.027 80.1959 36.1539C80.4195 36.3112 80.5912 36.5315 80.689 36.7868C80.7868 37.0421 80.8064 37.3208 80.7451 37.5873C80.6839 37.8537 80.5446 38.0959 80.3451 38.2829C80.1456 38.4698 79.895 38.5931 79.6251 38.637C79.5498 38.6542 79.473 38.664 79.3958 38.6662V38.6565ZM79.3958 36.2514C79.2461 36.2516 79.0981 36.2843 78.9623 36.3473C78.8264 36.4102 78.7058 36.5019 78.6089 36.616C78.5119 36.7301 78.4409 36.8639 78.4007 37.0082C78.3606 37.1525 78.3522 37.3037 78.3762 37.4515C78.4237 37.7204 78.5742 37.9602 78.7958 38.1199C79.0199 38.2767 79.2965 38.3397 79.5665 38.2955C79.7672 38.2615 79.9533 38.1687 80.1013 38.029C80.2493 37.8892 80.3525 37.7087 80.3979 37.5103C80.4433 37.3119 80.4289 37.1045 80.3565 36.9143C80.2841 36.7241 80.1569 36.5596 79.991 36.4417C79.818 36.3211 79.6115 36.2579 79.4007 36.2612L79.3958 36.2514Z" fill="#A1D4FF"/>
<path d="M69.5607 41.6713L69.1704 40.6518C68.7551 40.6032 68.3462 40.51 67.9508 40.3737L67.1556 41.1152L64.9994 39.5834L65.4433 38.6077C65.1827 38.2794 64.9602 37.9226 64.7799 37.5442L63.6871 37.5101L63.248 34.9001L64.2676 34.5098C64.3139 34.0941 64.4072 33.6849 64.5457 33.2902L63.8042 32.4951L65.336 30.3388L66.3117 30.7827C66.6388 30.5205 66.9958 30.2978 67.3752 30.1193L67.4093 29.0265L70.0193 28.5875L70.4095 29.607C70.8253 29.6533 71.2344 29.7466 71.6291 29.8851L72.4243 29.1387L74.5806 30.6754L74.1366 31.6511C74.3988 31.9793 74.623 32.3361 74.805 32.7146L75.8929 32.7487L76.3319 35.3587L75.3123 35.749C75.2661 36.1647 75.1728 36.5739 75.0343 36.9686L75.7807 37.7637L74.244 39.92L73.2683 39.4761C72.94 39.7367 72.5832 39.9592 72.2048 40.1395L72.1706 41.2323L69.5607 41.6713ZM67.8435 39.8322L67.9801 39.8858C68.421 40.0573 68.8844 40.1641 69.3558 40.2029H69.5022L69.8583 41.1347L71.717 40.8176L71.7511 39.8419L71.8828 39.7834C72.3154 39.5892 72.7192 39.3364 73.0829 39.0321L73.1951 38.9394L74.1074 39.3443L75.2001 37.8077L74.5172 37.0808L74.5659 36.9442C74.7379 36.5018 74.8447 36.0367 74.883 35.5636V35.4221L75.8148 35.066L75.5026 33.2073L74.5025 33.1732L74.444 33.0414C74.2498 32.6089 73.997 32.2051 73.6927 31.8414L73.6 31.7292L74.0049 30.8169L72.4682 29.7241L71.7414 30.4071L71.6096 30.3583C71.1669 30.1874 70.702 30.0806 70.229 30.0412H70.0827L69.7266 29.1095L67.8679 29.4217L67.8337 30.3974L67.702 30.4559C67.2685 30.6483 66.8644 30.9013 66.5019 31.2072L66.3897 31.2999L65.4824 30.8949L64.3896 32.4316L65.0726 33.1585L65.0189 33.2951C64.8475 33.736 64.7407 34.1994 64.7018 34.6708V34.8172L63.77 35.1733L64.0871 37.032L65.0628 37.0661L65.1214 37.1979C65.3156 37.6304 65.5684 38.0342 65.8726 38.3979L65.9653 38.5101L65.5604 39.4175L67.0971 40.5103L67.8435 39.8322ZM69.7949 38.1296C69.1194 38.1324 68.4627 37.9079 67.9303 37.4923C67.3979 37.0766 67.0208 36.494 66.8596 35.8381C66.6984 35.1822 66.7624 34.4912 67.0415 33.8761C67.3206 33.261 67.7984 32.7577 68.3981 32.447C68.9978 32.1363 69.6846 32.0364 70.348 32.1633C71.0114 32.2902 71.6129 32.6365 72.0556 33.1466C72.4984 33.6566 72.7567 34.3008 72.7891 34.9754C72.8214 35.6501 72.626 36.316 72.2341 36.8661C71.9575 37.2557 71.5918 37.5737 71.1676 37.7934C70.7433 38.0132 70.2727 38.1285 69.7949 38.1296ZM69.7949 32.5731C69.4241 32.5721 69.0577 32.6521 68.7212 32.8077C68.3847 32.9632 68.0863 33.1905 67.8469 33.4736C67.6075 33.7566 67.4329 34.0887 67.3354 34.4463C67.2379 34.804 67.2199 35.1787 67.2825 35.5441C67.411 36.1948 67.7883 36.7697 68.3341 37.1465C68.88 37.5233 69.5514 37.6723 70.2054 37.5617C70.8594 37.4511 71.4444 37.0897 71.8361 36.5544C72.2277 36.019 72.395 35.352 72.3024 34.6952C72.2013 34.1028 71.8943 33.5652 71.4356 33.177C70.9768 32.7887 70.3958 32.5749 69.7949 32.5731Z" fill="#A1D4FF"/>
<path d="M8.68354 44.1154C6.37877 44.118 4.16731 43.2052 2.5353 41.5778C0.903301 39.9504 -0.0156526 37.7415 -0.0195312 35.4367H0.468309C0.468309 37.0615 0.950124 38.6499 1.85283 40.0009C2.75553 41.3518 4.03857 42.4048 5.53971 43.0266C7.04085 43.6484 8.69266 43.8111 10.2863 43.4941C11.8799 43.1771 13.3437 42.3947 14.4926 41.2458C15.6415 40.0968 16.4239 38.633 16.7409 37.0394C17.0579 35.4458 16.8952 33.794 16.2734 32.2929C15.6516 30.7917 14.5987 29.5087 13.2477 28.606C11.8967 27.7033 10.3084 27.2215 8.68354 27.2215V26.7336C10.9853 26.7336 13.1927 27.648 14.8203 29.2756C16.4479 30.9031 17.3622 33.1106 17.3622 35.4123C17.3622 37.7141 16.4479 39.9215 14.8203 41.5491C13.1927 43.1767 10.9853 44.091 8.68354 44.091V44.1154ZM8.68354 42.9104C7.20538 42.9104 5.76042 42.4721 4.53137 41.6509C3.30232 40.8297 2.3444 39.6624 1.77873 38.2968C1.21306 36.9311 1.06506 35.4284 1.35343 33.9787C1.64181 32.5289 2.35361 31.1972 3.39883 30.152C4.44405 29.1068 5.77574 28.395 7.2255 28.1066C8.67525 27.8182 10.178 27.9662 11.5436 28.5319C12.9093 29.0976 14.0765 30.0555 14.8977 31.2845C15.7189 32.5136 16.1573 33.9586 16.1573 35.4367H15.6694C15.6713 34.0488 15.2612 32.6915 14.491 31.5368C13.7208 30.3822 12.6252 29.4822 11.343 28.9508C10.0608 28.4195 8.64967 28.2807 7.28851 28.552C5.92734 28.8234 4.67737 29.4927 3.69697 30.4752C2.71656 31.4576 2.04986 32.709 1.78134 34.0707C1.51281 35.4325 1.65455 36.8433 2.1886 38.1244C2.72265 39.4055 3.62496 40.4992 4.78121 41.267C5.93746 42.0348 7.2956 42.4421 8.68354 42.4372V42.9104Z" fill="#78C2FF"/>
<path d="M7.61534 38.3101L4.48828 35.1782L4.81513 34.8514L7.61534 37.6516L12.5474 32.7244L12.8743 33.0512L7.61534 38.3101Z" fill="#78C2FF"/>
<path d="M191.99 141.864H126.049H60.112L45.6816 195.805H126.483H206.42L191.99 141.864Z" fill="#3E515A"/>
<path d="M65.1032 151.328H73.2062C73.2791 151.321 73.3526 151.33 73.4214 151.355C73.4902 151.381 73.5524 151.421 73.6035 151.473C73.6546 151.526 73.6932 151.589 73.7165 151.659C73.7397 151.728 73.7471 151.802 73.7379 151.875L72.9525 155.402C72.9186 155.514 72.8477 155.612 72.7512 155.68C72.6546 155.747 72.5382 155.78 72.4208 155.772H64.1811C64.1072 155.779 64.0328 155.769 63.9634 155.743C63.894 155.716 63.8315 155.675 63.7807 155.621C63.7299 155.566 63.6921 155.501 63.6702 155.431C63.6483 155.36 63.6428 155.285 63.6543 155.211L64.5763 151.689C64.6132 151.58 64.6845 151.486 64.7795 151.421C64.8745 151.356 64.9881 151.323 65.1032 151.328Z" fill="white"/>
<path d="M76.922 151.328H83.0444L82.2297 155.772H75.9902L76.922 151.328Z" fill="white"/>
<path d="M86.1097 151.328H92.2321L91.593 155.772L85.3535 155.777L86.1097 151.328Z" fill="white"/>
<path d="M95.2954 151.328H101.423L100.954 155.772H94.7148L95.2954 151.328Z" fill="white"/>
<path d="M104.486 151.328H110.608L110.316 155.772H104.076L104.486 151.328Z" fill="white"/>
<path d="M113.672 151.328H119.799L119.682 155.772L113.438 155.777L113.672 151.328Z" fill="white"/>
<path d="M187.194 151.328H178.008L178.998 155.772H188.36L187.194 151.328Z" fill="white"/>
<path d="M174.945 151.328H168.822L169.637 155.772H175.876L174.945 151.328Z" fill="white"/>
<path d="M165.758 151.328H159.631L160.27 155.772L166.514 155.777L165.758 151.328Z" fill="white"/>
<path d="M156.568 151.328H150.445L150.909 155.772H157.153L156.568 151.328Z" fill="white"/>
<path d="M147.381 151.328H141.254L141.547 155.772H147.786L147.381 151.328Z" fill="white"/>
<path d="M138.191 151.328H132.068L132.185 155.772L138.425 155.777L138.191 151.328Z" fill="white"/>
<path d="M122.857 151.328H128.985L129.087 155.772H122.857V151.328Z" fill="white"/>
<path d="M62.4103 159.085H75.2063L74.4794 163.671H61.4395L62.4103 159.085Z" fill="white"/>
<path d="M189.194 159.085H173.373L174.271 163.671H190.394L189.194 159.085Z" fill="white"/>
<path d="M170.208 159.085H163.881L164.603 163.671H171.052L170.208 159.085Z" fill="white"/>
<path d="M160.714 159.085H154.387L154.928 163.671H161.377L160.714 159.085Z" fill="white"/>
<path d="M151.22 159.085H144.893L145.254 163.671H151.703L151.22 159.085Z" fill="white"/>
<path d="M141.728 159.085H135.4L135.581 163.671H142.03L141.728 159.085Z" fill="white"/>
<path d="M60.4979 167.261H73.5818L72.6257 171.817H59.3027L60.4979 167.261Z" fill="white"/>
<path d="M76.8547 167.261H83.3966L82.6209 171.817H75.957L76.8547 167.261Z" fill="white"/>
<path d="M86.6654 167.261H93.2073H135.732L135.918 171.817H85.9531L86.6654 167.261Z" fill="white"/>
<path d="M139.006 167.261H145.553L145.909 171.817H139.245L139.006 167.261Z" fill="white"/>
<path d="M148.82 167.261H155.362L155.899 171.817H149.24L148.82 167.261Z" fill="white"/>
<path d="M158.637 167.261H165.179L165.896 171.817H159.232L158.637 167.261Z" fill="white"/>
<path d="M168.451 167.261H174.993L175.886 171.817H169.227L168.451 167.261Z" fill="white"/>
<path d="M178.262 167.261H191.35L192.541 171.817H179.218L178.262 167.261Z" fill="white"/>
<path d="M132.248 159.085H125.975V163.671H132.37L132.248 159.085Z" fill="white"/>
<path d="M122.761 159.085H116.429L116.248 163.671H122.697L122.761 159.085Z" fill="white"/>
<path d="M113.266 159.085H106.939L106.578 163.671H113.027L113.266 159.085Z" fill="white"/>
<path d="M103.773 159.085H97.4458L96.9043 163.671H103.354L103.773 159.085Z" fill="white"/>
<path d="M94.2798 159.085H87.9525L87.2305 163.671H93.6797L94.2798 159.085Z" fill="white"/>
<path d="M84.7864 159.085H78.4591L77.5566 163.671H84.0059L84.7864 159.085Z" fill="white"/>
<path d="M65.4004 148.533L66.4395 144.562H69.4153L68.4445 148.533H65.4004Z" fill="white"/>
<path d="M72.3898 144.562H78.3366L77.5072 148.533H71.4531L72.3898 144.562Z" fill="white"/>
<path d="M81.3137 144.562H87.2605L86.5824 148.533H80.5332L81.3137 144.562Z" fill="white"/>
<path d="M90.2358 144.562H96.1825L95.6605 148.533H89.6113L90.2358 144.562Z" fill="white"/>
<path d="M99.1529 144.562H105.105L104.739 148.533H98.6895L99.1529 144.562Z" fill="white"/>
<path d="M108.076 144.562H114.028L113.818 148.533H107.764L108.076 144.562Z" fill="white"/>
<path d="M116.998 144.562H122.95L122.896 148.533H116.842L116.998 144.562Z" fill="white"/>
<path d="M125.922 144.562H131.869L131.976 148.533H125.922V144.562Z" fill="white"/>
<path d="M134.844 144.562H140.791L141.054 148.533H135L134.844 144.562Z" fill="white"/>
<path d="M143.768 144.562H149.714L150.134 148.533H144.08L143.768 144.562Z" fill="white"/>
<path d="M152.689 144.562H158.636L159.207 148.533H153.158L152.689 144.562Z" fill="white"/>
<path d="M161.611 144.562H167.558L168.285 148.533H162.236L161.611 144.562Z" fill="white"/>
<path d="M170.535 144.562H176.482L177.365 148.533H171.316L170.535 144.562Z" fill="white"/>
<path d="M179.457 144.562H185.404L186.443 148.533H180.389L179.457 144.562Z" fill="white"/>
<path d="M202.219 200.01H49.881C48.7678 200.008 47.7007 199.565 46.9141 198.778C46.1274 197.99 45.6855 196.923 45.6855 195.809H206.419C206.419 196.923 205.977 197.992 205.189 198.78C204.401 199.567 203.333 200.01 202.219 200.01Z" fill="#263238"/>
<path d="M144.738 178.374C144.664 177.911 144.426 177.491 144.068 177.189C143.71 176.887 143.255 176.724 142.786 176.73H109.306C108.837 176.724 108.383 176.887 108.024 177.189C107.666 177.491 107.428 177.911 107.355 178.374L105.262 191.058C105.212 191.341 105.226 191.631 105.301 191.908C105.377 192.185 105.513 192.442 105.699 192.661C105.885 192.88 106.118 193.054 106.38 193.173C106.641 193.291 106.926 193.35 107.213 193.346H144.869C145.157 193.35 145.441 193.291 145.703 193.173C145.965 193.054 146.197 192.88 146.383 192.661C146.57 192.442 146.706 192.185 146.781 191.908C146.857 191.631 146.87 191.341 146.821 191.058L144.738 178.374Z" fill="#4D78EB"/>
<path d="M86.6205 69.4197H72.9902V70.8149H86.6205V69.4197Z" fill="#E0E0E0"/>
<path d="M100.281 79.9277H90.4414V81.323H100.281V79.9277Z" fill="#E0E0E0"/>
<path d="M108.349 79.9277H101.816V81.323H108.349V79.9277Z" fill="#1487E3"/>
<path d="M79.6787 106.359H73.1465V107.754H79.6787V106.359Z" fill="#1487E3"/>
<path d="M125.404 79.9277H109.637V81.323H125.404V79.9277Z" fill="#E0E0E0"/>
<path d="M83.2789 101.066H73.1465V102.461H83.2789V101.066Z" fill="#E0E0E0"/>
<path d="M93.4612 111.613H87.2754V113.008H93.4612V111.613Z" fill="#E0E0E0"/>
<path d="M85.401 111.613H73.1465V113.008H85.401V111.613Z" fill="#1487E3"/>
<path d="M79.908 116.867H73.1465V118.262H79.908V116.867Z" fill="#E0E0E0"/>
<path d="M98.9541 69.4197H89.2754V70.8149H98.9541V69.4197Z" fill="#78C2FF"/>
<path d="M98.9541 85.1819H89.2754V86.5771H98.9541V85.1819Z" fill="#1487E3"/>
<path d="M88.5763 90.4359H84.4395V91.8311H88.5763V90.4359Z" fill="#E0E0E0"/>
<path d="M89.5912 95.7681H80.3027V97.1633H89.5912V95.7681Z" fill="#78C2FF"/>
<path d="M103.817 95.7681H90.9961V97.1633H103.817V95.7681Z" fill="#1487E3"/>
<path d="M82.8252 90.4749H73.1465V91.8701H82.8252V90.4749Z" fill="#1487E3"/>
<path d="M78.8884 95.7681H73.1465V97.1633H78.8884V95.7681Z" fill="#1487E3"/>
<path d="M95.9385 90.4749H90.5234V91.8701H95.9385V90.4749Z" fill="#FF6C37"/>
<path d="M78.7275 122.121H73.3125V123.516H78.7275V122.121Z" fill="#FF6C37"/>
<path d="M82.7862 79.9277H73.1074V81.323H82.7862V79.9277Z" fill="#78C2FF"/>
<path d="M91.3487 106.359H81.6699V107.754H91.3487V106.359Z" fill="#78C2FF"/>
<path d="M91.4659 116.867H81.7871V118.262H91.4659V116.867Z" fill="#78C2FF"/>
<path d="M108.657 116.867H98.9785V118.262H108.657V116.867Z" fill="#78C2FF"/>
<path d="M86.9036 85.1819H73.1074V86.5771H86.9036V85.1819Z" fill="#78C2FF"/>
<path d="M147.431 69.4197H137.752V70.8149H147.431V69.4197Z" fill="#78C2FF"/>
<path d="M112.96 122.121H103.281V123.516H112.96V122.121Z" fill="#78C2FF"/>
<path d="M156.918 69.4197H150.439V70.8149H156.918V69.4197Z" fill="#78C2FF"/>
<path d="M178.832 74.6738H172.354V76.069H178.832V74.6738Z" fill="#78C2FF"/>
<path d="M113.886 69.4197H101.559V70.8149H113.886V69.4197Z" fill="#1487E3"/>
<path d="M161.923 74.6738H149.596V76.069H161.923V74.6738Z" fill="#1487E3"/>
<path d="M146.806 79.9277H134.479V81.323H146.806V79.9277Z" fill="#1487E3"/>
<path d="M130.752 85.1819H118.424V86.5771H130.752V85.1819Z" fill="#1487E3"/>
<path d="M157.124 79.9277H148.357V81.323H157.124V79.9277Z" fill="#78C2FF"/>
<path d="M135.338 69.4197H123.01V70.8149H135.338V69.4197Z" fill="#FF6C37"/>
<path d="M116.169 85.1819H108.939V86.5771H116.169V85.1819Z" fill="#FF6C37"/>
<path d="M110.511 106.437H103.281V107.832H110.511V106.437Z" fill="#FF6C37"/>
<path d="M120.682 69.4197H116.17V70.8149H120.682V69.4197Z" fill="#E0E0E0"/>
<path d="M106.071 85.1819H101.559V86.5771H106.071V85.1819Z" fill="#E0E0E0"/>
<path d="M169.413 74.6738H164.9V76.069H169.413V74.6738Z" fill="#E0E0E0"/>
<path d="M80.0493 74.6738H72.9902V76.069H80.0493V74.6738Z" fill="#1487E3"/>
<path d="M97.408 101.105H91.832V102.5H97.408V101.105Z" fill="#1487E3"/>
<path d="M84.0653 74.6738H81.7871V76.069H84.0653V74.6738Z" fill="#1487E3"/>
<path d="M147.426 74.6738H128.586V76.069H147.426V74.6738Z" fill="#E0E0E0"/>
<path d="M129.351 116.867H110.506V118.262H129.351V116.867Z" fill="#E0E0E0"/>
<path d="M88.0692 74.6738H85.7422V76.069H88.0692V74.6738Z" fill="#FF6C37"/>
<path d="M126.848 74.6738H120.682V76.069H126.848V74.6738Z" fill="#1487E3"/>
<path d="M133.01 79.9277H126.844V81.323H133.01V79.9277Z" fill="#FF6C37"/>
<path d="M101.315 122.121H95.1484V123.516H101.315V122.121Z" fill="#FF6C37"/>
<path d="M119.054 74.6738H105.936V76.069H119.054V74.6738Z" fill="#1487E3"/>
<path d="M101.389 106.437H93.7246V107.832H101.389V106.437Z" fill="#1487E3"/>
<path d="M97.0649 116.867H93.2305V118.262H97.0649V116.867Z" fill="#1487E3"/>
<path d="M104.071 74.6737H99.5586V76.0689H104.071V74.6737Z" fill="#78C2FF"/>
<path d="M88.8797 79.9277H84.3672V81.323H88.8797V79.9277Z" fill="#FF6C37"/>
<path d="M89.7821 101.105H85.2695V102.5H89.7821V101.105Z" fill="#FF6C37"/>
<path d="M97.8367 74.6737H89.9727V76.0689H97.8367V74.6737Z" fill="#1487E3"/>
<g opacity="0.76">
<path d="M205.107 86.9283H148.083C147.003 86.9283 146.127 87.8042 146.127 88.8846V128.419C146.127 129.5 147.003 130.375 148.083 130.375H205.107C206.187 130.375 207.063 129.5 207.063 128.419V88.8846C207.063 87.8042 206.187 86.9283 205.107 86.9283Z" fill="white"/>
</g>
<path d="M200.484 109.286H190.663C190.248 109.286 189.912 109.622 189.912 110.037V111.555C189.912 111.97 190.248 112.306 190.663 112.306H200.484C200.899 112.306 201.235 111.97 201.235 111.555V110.037C201.235 109.622 200.899 109.286 200.484 109.286Z" fill="#4AAFFF"/>
<path d="M200.484 114.94H190.663C190.248 114.94 189.912 115.277 189.912 115.691V117.209C189.912 117.624 190.248 117.96 190.663 117.96H200.484C200.899 117.96 201.235 117.624 201.235 117.209V115.691C201.235 115.277 200.899 114.94 200.484 114.94Z" fill="#4AAFFF"/>
<path d="M200.484 120.594H190.663C190.248 120.594 189.912 120.931 189.912 121.346V122.863C189.912 123.278 190.248 123.614 190.663 123.614H200.484C200.899 123.614 201.235 123.278 201.235 122.863V121.346C201.235 120.931 200.899 120.594 200.484 120.594Z" fill="#4AAFFF"/>
<path d="M184.442 102.554C183.698 100.474 182.551 98.5611 181.068 96.9243C179.584 95.2876 177.793 93.959 175.796 93.0145C173.8 92.07 171.636 91.528 169.43 91.4196C167.224 91.3111 165.018 91.6383 162.938 92.3824C160.858 93.1265 158.945 94.273 157.308 95.7563C155.672 97.2397 154.343 99.031 153.398 101.028C152.454 103.025 151.912 105.188 151.803 107.394C151.695 109.601 152.022 111.807 152.766 113.886C152.893 114.243 153.03 114.589 153.181 114.93C154.925 118.928 158.153 122.092 162.184 123.755C166.216 125.418 170.736 125.451 174.791 123.845C178.846 122.24 182.119 119.122 183.919 115.15C185.72 111.178 185.907 106.662 184.442 102.554ZM172.851 120.116C170.439 120.973 167.824 121.075 165.353 120.411C162.882 119.746 160.672 118.345 159.016 116.394C158.216 115.447 157.559 114.389 157.064 113.252C156.952 112.994 156.85 112.735 156.752 112.467C155.912 110.118 155.787 107.574 156.393 105.154C156.999 102.735 158.309 100.55 160.157 98.8748C162.005 97.1999 164.308 96.1105 166.775 95.7445C169.242 95.3785 171.762 95.7522 174.017 96.8185C176.272 97.8848 178.159 99.5957 179.442 101.735C180.724 103.874 181.343 106.345 181.221 108.837C181.099 111.328 180.241 113.727 178.755 115.73C177.27 117.733 175.223 119.251 172.875 120.092L172.851 120.116Z" fill="#4AAFFF"/>
<path d="M156.576 104.461L152.557 103.208C153.602 99.8682 155.661 96.9372 158.448 94.8215C161.235 92.7059 164.612 91.5107 168.109 91.4019L168.236 95.6119C165.614 95.6915 163.081 96.5867 160.991 98.1728C158.902 99.7589 157.358 101.957 156.576 104.461Z" fill="#1A598C"/>
<path d="M157.065 113.252L153.162 114.93C153.011 114.589 152.875 114.242 152.748 113.886C151.513 110.446 151.436 106.696 152.528 103.208L156.548 104.461C155.729 107.076 155.785 109.887 156.709 112.467C156.826 112.735 156.929 112.994 157.065 113.252Z" fill="#2273B5"/>
<path d="M155.787 119.121C154.71 117.861 153.825 116.449 153.162 114.93L157.021 113.252C157.515 114.389 158.173 115.447 158.972 116.394L155.787 119.121Z" fill="#3788CC"/>
<path d="M174.218 118.194C174.218 118.194 173.404 116.769 174.706 112.95C174.915 112.239 175.325 111.604 175.885 111.12C176.446 110.636 177.134 110.324 177.868 110.221C178.601 110.119 179.349 110.229 180.021 110.54C180.693 110.851 181.261 111.349 181.658 111.974C183.034 114.345 182.57 115.813 180.546 118.487C178.521 121.16 175.062 119.418 174.218 118.194Z" fill="#EEA886"/>
<path d="M184.268 183.94C184.268 183.94 184.482 185.506 184.507 185.745C184.531 185.984 186.887 185.604 186.887 185.604L187.082 183.735C187.082 183.735 184.56 183.716 184.268 183.94Z" fill="#EEA886"/>
<path d="M184.483 185.545C184.068 186.071 183.574 186.528 183.019 186.902C182.297 187.316 181.165 187.477 180.741 187.906C180.429 188.214 179.619 189.541 182.614 189.511C185.609 189.482 187.053 189.697 187.375 189.189C187.697 188.682 186.912 185.438 186.912 185.438C186.112 185.592 185.293 185.628 184.483 185.545Z" fill="black"/>
<path d="M167.963 183.94C167.963 183.94 168.178 185.506 168.207 185.745C168.236 185.984 170.587 185.604 170.587 185.604L170.778 183.735C170.778 183.735 168.285 183.716 167.963 183.94Z" fill="#EEA886"/>
<path d="M168.184 185.545C167.769 186.071 167.276 186.528 166.72 186.902C165.998 187.316 163.34 187.653 162.915 188.077C162.608 188.389 162.096 189.629 166.33 189.511C169.325 189.429 170.774 189.697 171.091 189.189C171.408 188.682 170.628 185.438 170.628 185.438C169.819 185.554 169 185.59 168.184 185.545Z" fill="black"/>
<path d="M183.471 144.884C183.471 144.884 184.681 148.635 184.52 151.87C184.359 155.104 185.145 158.636 185.467 162.017C185.823 165.778 187.286 174.701 187.335 176.706C187.384 178.711 187.111 185.15 187.111 185.15L184.184 185.223C184.184 185.223 181.744 169.642 181.096 168.051C180.447 166.461 177.305 155.124 177.193 153.855C177.081 152.587 183.471 144.884 183.471 144.884Z" fill="#407BFF"/>
<path d="M171.353 144.474C171.353 144.474 169.577 154.392 169.363 156.372C169.148 158.353 169.011 165.944 168.904 167.183C168.797 168.422 168.197 183.365 167.631 185.204H170.895C170.895 185.204 174.241 174.34 174.241 169.198C174.241 164.056 176.456 158.021 177.885 154.631C179.315 151.24 182.593 151.157 183.471 144.874C183.471 144.884 172.543 142.479 171.353 144.474Z" fill="#407BFF"/>
<path d="M175.402 119.204C175.604 119.799 175.604 120.443 175.402 121.038C175.031 121.804 180.1 121.345 180.1 121.345C179.981 120.364 180.131 119.369 180.534 118.467C181.193 117.17 175.402 119.204 175.402 119.204Z" fill="#EEA886"/>
<path d="M183.71 145.679C183.71 145.679 181.886 147.552 171.188 145.391L171.353 144.474L183.515 144.933L183.71 145.679Z" fill="#2B3B57"/>
<path d="M174.628 121.287C174.628 121.287 172.755 121.477 172.218 121.58C171.681 121.682 168.086 120.936 167.34 120.858C166.593 120.78 163.437 118.628 163.349 118.37C163.261 118.111 161.437 113.525 161.334 112.516C161.232 111.506 159.568 112.028 159.71 112.716C159.978 113.999 160.319 117.106 160.505 118.004C160.69 118.901 161.251 121.18 161.559 121.448C163.345 122.864 165.342 123.993 167.476 124.795C169.183 125.361 170.82 126.121 172.355 127.058H186.014C186.014 127.058 191.336 119.458 191.449 118.311C191.561 117.165 187.736 109.53 186.97 108.593C186.204 107.657 185.102 108.906 185.102 108.906C185.102 108.906 187.39 115.623 187.697 116.574C188.004 117.526 185.034 121.726 184.219 121.741C183.404 121.755 181.292 121.482 180.384 121.448C179.728 121.396 179.083 121.245 178.472 120.999L174.628 121.287Z" fill="#EEA886"/>
<path d="M168.74 126.346C169.238 126.696 169.658 127.145 169.972 127.666C170.287 128.187 170.491 128.767 170.569 129.37C170.774 131.38 171.131 133.371 171.638 135.327C171.945 136.356 171.369 143.845 171.296 144.376C171.223 144.908 181.877 146.181 183.517 144.913C183.517 144.913 183.975 137.922 184.165 135.937C184.356 133.951 185.273 129.141 185.575 128.492C185.878 127.843 189.585 122.638 189.741 121.96C189.741 121.96 187.824 118.906 186.449 118.867C186.449 118.867 184.263 121.428 183.551 121.541C182.839 121.653 178.477 120.858 178.477 120.848C178.477 120.838 177.989 121.497 175.467 120.736C175.467 120.736 172.452 121.072 171.965 121.136C171.369 121.214 167.242 120.619 167.242 120.619C167.242 120.619 165.584 123.414 165.871 124.829L168.74 126.346Z" fill="black"/>
<path d="M161.456 113.13C161.456 113.13 161.085 111.359 161.534 110.852C161.865 110.479 162.174 110.088 162.461 109.681C162.52 109.569 163.178 109.193 163.178 109.008C163.178 108.823 162.534 108.598 161.968 109.12C161.402 109.642 161.056 109.754 160.832 109.696C160.607 109.637 160.28 107.769 160.256 107.305C160.232 106.842 160.046 105.618 159.768 105.7C159.49 105.783 159.49 106.32 159.49 106.32C159.49 106.32 159.153 105.393 158.929 105.574C158.705 105.754 158.729 106.208 158.729 106.208C158.729 106.208 158.31 105.691 158.197 106.066C158.131 106.301 158.131 106.549 158.197 106.783C158.197 106.783 157.758 106.544 157.734 107.135C157.716 108.128 157.863 109.117 158.168 110.062C158.475 110.681 159.632 112.301 159.773 112.935C159.914 113.569 161.456 113.13 161.456 113.13Z" fill="#EEA886"/>
<path d="M185.491 110.023C185.491 110.023 184.222 107.881 183.788 107.691C183.236 107.528 182.705 107.299 182.208 107.008C181.676 106.627 180.968 106.31 181.007 106.183C181.046 106.057 181.676 106.105 182.349 106.398C183.022 106.691 183.325 106.549 183.383 106.398C183.297 105.869 183.105 105.363 182.817 104.91C182.617 104.656 181.164 103.198 181.407 102.983C181.651 102.768 182.593 103.569 182.744 103.73C182.744 103.73 181.993 102.154 182.286 102.076C182.578 101.998 183.125 102.564 183.125 102.564C183.125 102.564 183.061 101.217 184.515 103.408C184.515 103.408 184.208 102.681 184.652 102.92C185.096 103.159 185.53 104.52 185.671 105.208C185.813 105.896 186.447 108.086 186.988 108.623C187.53 109.159 185.491 110.023 185.491 110.023Z" fill="#EEA886"/>
<path d="M180.536 118.467C179.816 118.454 179.104 118.307 178.438 118.033C177.013 117.545 176.906 115.047 176.599 115.345C176.502 115.451 176.381 115.533 176.246 115.583C176.111 115.634 175.966 115.651 175.823 115.635C175.68 115.618 175.543 115.568 175.424 115.488C175.304 115.407 175.205 115.3 175.135 115.174C175.135 115.174 175.833 114.257 175.511 113.818C175.274 113.516 174.986 113.257 174.662 113.052C174.662 113.052 175.667 108.218 180.228 110.423C185.575 113.003 180.536 118.467 180.536 118.467Z" fill="#353A3D"/>
<path d="M175.402 121.038L175.563 120.341C177.065 120.307 178.567 120.364 180.061 120.511L180.232 121.346C180.232 121.346 178.198 122.268 175.402 121.038Z" fill="#D4D8E8"/>
<path d="M176.12 114.735C176.384 114.291 177.364 113.999 177.476 115.223C177.569 116.199 175.73 117.243 175.71 116.345C175.675 115.779 175.818 115.216 176.12 114.735Z" fill="#EEA886"/>
<path d="M161.378 112.725C160.822 112.736 160.281 112.906 159.817 113.213C159.8 113.392 159.83 113.572 159.905 113.735C160.418 113.502 160.959 113.338 161.515 113.247C161.516 113.064 161.469 112.884 161.378 112.725Z" fill="#E55353"/>
<path d="M160.138 112.989C160.114 113.043 160.102 113.102 160.102 113.161C160.101 113.22 160.112 113.279 160.134 113.334C160.157 113.389 160.189 113.439 160.231 113.481C160.273 113.523 160.322 113.556 160.377 113.579C160.459 113.615 160.551 113.625 160.639 113.609C160.728 113.592 160.809 113.55 160.874 113.487C160.938 113.424 160.982 113.344 161.001 113.256C161.019 113.167 161.011 113.076 160.977 112.992C160.943 112.909 160.886 112.837 160.811 112.787C160.737 112.737 160.649 112.709 160.559 112.709C160.469 112.709 160.381 112.735 160.306 112.785C160.231 112.835 160.172 112.906 160.138 112.989Z" fill="#353A3D"/>
<path d="M134.326 75.6397C134.326 75.6397 135.829 78.1862 136.463 78.6058C137.321 79.1668 136.785 79.7376 136.375 79.7376C135.965 79.7376 133.877 79.8888 133.419 79.3668C132.96 78.8448 132.731 77.2788 132.301 76.869C131.872 76.4593 131.433 74.8348 132.511 74.4298C133.463 74.0884 134.326 75.6397 134.326 75.6397Z" fill="#6069A8"/>
<path d="M133.677 74.5225C133.677 74.5225 135.395 77.5032 135.692 77.9374C135.99 78.3716 135.131 78.3813 134.604 78.1716C134.077 77.9618 132.741 75.8202 132.551 75.4299C132.423 75.1195 132.409 74.7738 132.512 74.4542L133.677 74.5225Z" fill="#202338"/>
<path d="M131.932 76.1227L132.327 79.1814L132.541 79.1912L132.473 76.991L131.932 76.1227Z" fill="#6069A8"/>
<path d="M119.428 75.6397C119.428 75.6397 120.93 78.1862 121.564 78.6058C122.428 79.1668 121.886 79.7376 121.477 79.7376C121.067 79.7376 118.984 79.8888 118.52 79.3668C118.057 78.8448 117.832 77.2788 117.408 76.869C116.984 76.4593 116.52 74.7908 117.613 74.4298C118.574 74.1469 119.428 75.6397 119.428 75.6397Z" fill="#6069A8"/>
<path d="M118.872 74.5274C118.872 74.5274 120.501 77.5032 120.823 77.9423C121.145 78.3813 120.262 78.3862 119.73 78.1764C119.198 77.9667 117.872 75.8251 117.681 75.4348C117.553 75.1247 117.537 74.7795 117.637 74.4591L118.872 74.5274Z" fill="#202338"/>
<path d="M117.033 76.1226L117.433 79.1813L117.643 79.1911L117.58 76.9909L117.033 76.1226Z" fill="#6069A8"/>
<path d="M112.764 52.4673L126.36 58.6629C126.816 58.8326 127.215 59.1262 127.513 59.5106C127.812 59.8949 127.997 60.3549 128.048 60.8387C128.575 66.0976 132.511 74.4397 132.511 74.4397C133.77 75.0592 133.677 74.5226 133.677 74.5226C132.882 71.9663 131.911 61.4436 131.565 57.214C131.492 56.3212 131.448 55.7066 131.438 55.5114C131.428 55.3163 131.287 55.1992 131.033 54.9992C129.17 53.4869 121.491 50.355 121.491 50.355C115.73 50.2086 112.764 52.4673 112.764 52.4673Z" fill="#202338"/>
<path d="M110.202 55.121C110.622 58.7945 115.866 58.3749 115.866 58.3749H122.208C121.232 60.5767 120.458 62.8627 119.896 65.2047C119.213 68.5318 117.598 74.4151 117.598 74.4151C117.598 74.4151 117.705 74.6151 118.857 74.5029C118.857 74.5029 123.842 64.5559 125.755 62.0581C126.633 60.4346 127.238 58.6777 127.545 56.8577C127.613 56.2723 127.574 55.8186 127.355 55.6333C127.135 55.4479 126.628 55.1015 125.95 54.6576C123.959 53.3989 120.501 51.4671 118.574 51.0329C115.993 50.4524 111.915 49.3694 111.915 49.3694C111.222 50.1419 110.709 51.0585 110.413 52.053C110.117 53.0475 110.045 54.0954 110.202 55.121Z" fill="#202338"/>
<path d="M114.53 26.8263C113.966 25.6684 113.795 24.3583 114.042 23.0943C114.505 21.1723 116.291 19.255 118.92 20.1332C121.55 21.0113 123.643 23.0602 122.077 25.3921C120.511 27.724 123.496 28.807 122.735 29.9192C121.974 31.0315 122.247 32.2023 122.584 32.4609C122.921 32.7194 123.945 33.6463 123.833 34.744C123.721 35.8416 118.759 31.5486 118.759 31.5486C118.759 31.5486 116.047 26.1238 114.53 26.8263Z" fill="#464240"/>
<path d="M122.496 49.9111C122.496 49.9111 122.101 51.8234 111.949 49.4232C111.949 49.4086 115.354 48.2914 122.496 49.9111Z" fill="#EB4747"/>
<path d="M111.833 49.9451L111.345 50.8476L122.478 51.1745C121.887 49.2231 122.078 46.5449 122.185 44.5252C122.307 42.0567 123.649 40.3395 123.527 37.8467C124.258 37.9637 124.385 37.9881 125.122 38.1003C124 34.8952 123.614 33.3049 120.121 32.0755C119.129 31.6953 118.059 31.5647 117.004 31.695C112.96 32.0267 111.736 32.0755 109.75 35.7392C112.862 36.227 112.35 37.3539 113.292 40.4469C113.755 41.9592 114.233 43.6422 113.984 45.2326C113.736 46.8229 111.833 48.5157 111.833 49.9451Z" fill="#325BB3"/>
<path d="M118.292 32.8512C116.633 32.539 116.989 31.6169 116.989 31.6169C116.989 31.6169 117.062 31.095 117.092 30.4412C117.092 30.2721 117.092 30.0965 117.092 29.9144C117.093 29.6421 117.076 29.3699 117.043 29.0997C116.911 27.9874 120.048 28.6509 120.048 28.6509C120.048 28.6509 119.867 30.8998 120.302 31.5779C120.736 32.256 119.945 33.1683 118.292 32.8512Z" fill="#EEA886"/>
<path d="M115.111 31.612C115.111 31.612 118.453 35.466 119.687 36.3587C119.687 36.3587 121.107 35.0806 120.234 31.695C120.253 31.7047 118.638 30.8852 115.111 31.612Z" fill="#EEA886"/>
<path d="M115.223 22.3285C115.223 22.3285 113.486 25.6702 115.223 28.8363C116.96 32.0024 120.321 27.4557 120.541 26.9239C120.76 26.3922 121.921 23.3773 119.614 22.4602C117.306 21.5431 115.716 21.4211 115.223 22.3285Z" fill="#EEA886"/>
<path d="M115.799 23.5139C115.799 23.5139 114.604 25.0848 114.462 26.241C114.222 24.752 114.53 23.2263 115.331 21.948C116.677 19.8405 120.092 21.8455 120.551 22.6895C121.009 23.5334 122.351 24.2701 120.097 27.885C120.097 27.885 116.043 25.0653 115.799 23.5139Z" fill="#464240"/>
<path d="M118.569 29.168C118.223 29.7325 117.712 30.1771 117.105 30.4412C117.105 30.2721 117.105 30.0965 117.105 29.9144C117.657 29.8169 118.166 29.557 118.569 29.168Z" fill="#A77860"/>
<path d="M101.041 46.94C101.041 46.94 100.217 47.3059 99.8263 47.14C99.445 47.0083 99.0444 46.9407 98.6409 46.94C98.3823 46.94 97.5871 46.6571 97.6018 46.9693C97.6164 47.2815 98.8945 47.4962 99.158 47.5937C99.4214 47.6913 98.3726 48.2669 98.275 48.5255C98.1774 48.7841 99.3629 50.4769 100.026 49.989C100.69 49.5012 101.056 48.5548 101.192 48.4914C101.362 48.393 101.525 48.2838 101.68 48.1645L101.041 46.94Z" fill="#EEA886"/>
<path d="M98.4025 48.3743C98.4025 48.3743 96.4512 49.9793 96.4512 50.1939C96.4512 50.4086 96.5195 50.511 96.7097 50.3695L98.6269 48.8767C98.6269 48.8767 96.6756 51.1647 96.6219 51.3159C96.5829 51.4135 96.7683 51.6233 96.8805 51.555C96.9927 51.4867 99.0465 49.3353 99.0465 49.3353C99.0465 49.3353 97.2415 51.4721 97.2317 51.633C97.2334 51.6736 97.2468 51.7127 97.2702 51.7458C97.2937 51.7788 97.3262 51.8044 97.3639 51.8194C97.4015 51.8343 97.4427 51.8381 97.4825 51.8301C97.5222 51.8221 97.5588 51.8028 97.5878 51.7745C97.7342 51.6282 99.5392 49.7402 99.5392 49.7402C99.5392 49.7402 98.3294 51.3794 98.4074 51.5257C98.4855 51.6721 98.6026 51.7989 98.8953 51.3647C99.188 50.9306 100.012 49.9841 100.012 49.9841L98.4025 48.3743Z" fill="#EEA886"/>
<path d="M121.56 58.3798H115.867C115.867 58.3798 110.623 58.7994 110.203 55.1259C110.054 54.1053 110.131 53.0643 110.429 52.077C110.728 51.0896 111.24 50.1802 111.93 49.4133C111.93 49.4133 114.701 50.15 117.121 50.7354C118.564 50.435 120.038 50.3072 121.511 50.3549C121.511 50.3549 131.756 53.7405 131.458 55.526C131.439 55.526 127.151 53.2331 121.56 58.3798Z" fill="#FF7E55"/>
<path d="M117.857 52.0184L128.712 51.8574L123.229 54.6381L117.857 52.0184Z" fill="#5E5853"/>
<path d="M121.228 50.633C119.466 51.2023 117.574 51.2329 115.794 50.7208L115.652 49.6036L121.819 49.9451L121.228 50.633Z" fill="#325BB3"/>
<path d="M123.229 54.6381L117.857 52.5551V52.0184L123.653 54.1064L123.229 54.6381Z" fill="#91887F"/>
<path d="M121.189 51.1501C121.177 51.2444 121.19 51.3402 121.228 51.4276C121.265 51.515 121.325 51.5909 121.402 51.6475C121.478 51.7041 121.568 51.7393 121.663 51.7496C121.757 51.76 121.853 51.745 121.94 51.7062L122.574 51.4379C122.666 51.3971 122.741 51.3272 122.789 51.2389C122.837 51.1506 122.854 51.049 122.838 50.95C122.574 49.3109 122.013 42.9202 122.838 41.8226C123.092 41.4978 123.294 41.1358 123.438 40.7493C123.979 42.1494 124.657 43.9544 124.925 44.9252L130.053 51.755L131.775 52.1892C130.687 49.4584 129.392 46.8147 127.901 44.2813C127.57 43.3788 126.604 40.6517 125.755 38.2223C125.213 36.6856 124.721 35.2952 124.457 34.5098C124.322 34.1257 124.056 33.8011 123.706 33.5927C122.911 33.1048 121.589 32.3682 120.389 31.7877L120.271 31.734C122.55 35.1879 121.662 44.9399 121.213 51.1745L121.189 51.1501Z" fill="#EDDAD3"/>
<path d="M112.721 31.9877C111.989 32.0999 110.174 33.861 109.213 35.6368C108.116 37.6662 106.999 39.9737 106.16 40.7298C104.618 42.1299 100.305 47.0718 100.096 46.9449C100.505 47.4939 100.955 48.0109 101.442 48.4914C101.52 48.5255 108.53 42.4519 109.204 41.525C109.877 40.5981 111.55 36.9637 112.062 37.0466C112.556 38.1551 112.973 39.2961 113.311 40.4615L113.341 40.5591C113.708 42.0442 113.759 43.5898 113.492 45.096C113.326 46.3644 112.38 48.428 111.814 49.4329C111.779 49.5164 111.761 49.6059 111.761 49.6964C111.761 49.7868 111.779 49.8763 111.814 49.9598C111.829 50.0072 111.854 50.051 111.887 50.0887C111.919 50.1264 111.959 50.1572 112.004 50.1793L114.058 50.9403L114.546 51.1208C114.694 51.1757 114.853 51.1963 115.011 51.1812C115.168 51.1661 115.321 51.1157 115.456 51.0336C115.592 50.9516 115.707 50.8401 115.793 50.7074C115.88 50.5747 115.935 50.4242 115.955 50.2671C116.414 46.7498 116.99 43.1544 117.453 41.7982C118.058 40.1036 118.301 38.3008 118.164 36.5066C118.028 34.7123 117.517 32.9667 116.663 31.3828C115.339 31.5161 114.024 31.718 112.721 31.9877Z" fill="#EDDAD3"/>
<path d="M123.229 54.6382L126.458 45.8229L136.869 45.9936L133.79 54.1162L123.229 54.6382Z" fill="#6E6760"/>
<path d="M129.79 49.7256C129.473 50.3598 129.57 51.0525 130.005 51.272C130.439 51.4916 131.053 51.1501 131.371 50.5159C131.688 49.8817 131.59 49.189 131.156 48.9694C130.722 48.7499 130.107 49.0914 129.79 49.7256Z" fill="#807066"/>
<path d="M118.819 25.6555C118.819 25.6555 119.482 26.6946 118.868 27.6069C118.253 28.5191 119.024 29.3826 119.155 30.329C119.287 31.2754 116.585 33.7976 119.594 35.0611C122.604 36.3246 123.561 34.2366 122.795 33.0805C122.029 31.9243 121.482 30.9925 121.414 29.3534C121.346 27.7142 120.809 25.1287 118.819 25.6555Z" fill="#464240"/>
<path d="M97.0273 13.2059H109.848V22.4992V24.4555L107.892 22.4992H97.0273V13.2059Z" fill="#78C2FF"/>
</g>
<defs>
<clipPath id="clip0_1077_16895">
<rect width="253.755" height="200" fill="white"/>
</clipPath>
</defs>
</svg>
