<svg width="277" height="200" viewBox="0 0 277 200" fill="none" xmlns="http://www.w3.org/2000/svg">
<path d="M39.6113 20.6584V104.263C39.6113 106.262 40.4056 108.18 41.8194 109.594C43.2332 111.008 45.1507 111.802 47.1502 111.802H150.646C152.646 111.802 154.563 111.008 155.977 109.594C157.391 108.18 158.185 106.262 158.185 104.263V20.6584C158.185 18.659 157.391 16.7415 155.977 15.3276C154.563 13.9138 152.646 13.1196 150.646 13.1196H47.1502C45.1507 13.1196 43.2332 13.9138 41.8194 15.3276C40.4056 16.7415 39.6113 18.659 39.6113 20.6584ZM150.72 107.959H47.0278C46.2877 107.959 45.578 107.665 45.0547 107.142C44.5314 106.618 44.2374 105.909 44.2374 105.169V19.7773C44.2374 19.0372 44.5314 18.3275 45.0547 17.8042C45.578 17.2809 46.2877 16.9869 47.0278 16.9869H150.72C151.46 16.9869 152.169 17.2809 152.693 17.8042C153.216 18.3275 153.51 19.0372 153.51 19.7773V105.144C153.51 105.884 153.216 106.594 152.693 107.117C152.169 107.641 151.46 107.935 150.72 107.935V107.959Z" fill="#FF6C37"/>
<path d="M228.474 156.97C225.1 156.97 221.801 157.971 218.995 159.845C216.19 161.72 214.003 164.385 212.712 167.503C211.421 170.621 211.084 174.052 211.742 177.361C212.401 180.671 214.027 183.711 216.414 186.096C218.801 188.482 221.841 190.106 225.151 190.764C228.461 191.421 231.892 191.082 235.009 189.789C238.126 188.497 240.79 186.309 242.664 183.502C244.537 180.696 245.536 177.396 245.535 174.022C245.536 171.782 245.095 169.563 244.238 167.493C243.381 165.423 242.124 163.543 240.54 161.959C238.955 160.375 237.074 159.119 235.004 158.263C232.933 157.407 230.715 156.968 228.474 156.97ZM228.474 186.84C225.939 186.84 223.461 186.088 221.353 184.679C219.245 183.271 217.603 181.269 216.632 178.927C215.662 176.585 215.408 174.008 215.903 171.521C216.398 169.035 217.618 166.751 219.411 164.958C221.204 163.166 223.487 161.945 225.974 161.451C228.46 160.956 231.037 161.21 233.38 162.18C235.722 163.15 237.724 164.793 239.132 166.901C240.54 169.009 241.292 171.487 241.292 174.022C241.292 177.421 239.942 180.682 237.538 183.085C235.134 185.489 231.874 186.84 228.474 186.84Z" fill="#FF6C37"/>
<path d="M229.789 60.213V168.727C229.789 169.39 229.658 170.047 229.405 170.659C229.151 171.272 228.779 171.829 228.31 172.298C227.841 172.767 227.284 173.139 226.671 173.393C226.059 173.647 225.402 173.777 224.739 173.777H59.2672C57.9277 173.777 56.6432 173.245 55.696 172.298C54.7489 171.351 54.2168 170.066 54.2168 168.727V60.213C54.2168 58.6812 54.5186 57.1644 55.1051 55.7493C55.6915 54.3342 56.5511 53.0486 57.6346 51.9658C58.7181 50.8831 60.0043 50.0244 61.4198 49.439C62.8353 48.8536 64.3523 48.5528 65.8841 48.5538H218.146C221.235 48.5603 224.195 49.7913 226.377 51.9769C228.56 54.1624 229.787 57.1243 229.789 60.213Z" fill="#FBF8FF" stroke="#A6A4F7" stroke-miterlimit="10"/>
<path d="M229.79 60.213V60.7107H54.25V60.213C54.25 58.6812 54.5518 57.1644 55.1383 55.7493C55.7247 54.3342 56.5842 53.0486 57.6677 51.9658C58.7513 50.8831 60.0375 50.0244 61.453 49.439C62.8685 48.8536 64.3855 48.5528 65.9173 48.5538H218.147C221.235 48.5603 224.196 49.7913 226.378 51.9769C228.561 54.1624 229.787 57.1243 229.79 60.213Z" fill="#FF6C37"/>
<path d="M84.9837 69.9221H63.9092C63.2333 69.9221 62.585 69.6542 62.1063 69.177C61.6276 68.6999 61.3576 68.0524 61.3555 67.3765C61.3555 66.6992 61.6245 66.0497 62.1034 65.5707C62.5824 65.0918 63.2319 64.8228 63.9092 64.8228H84.9837C85.6596 64.8249 86.3071 65.0949 86.7842 65.5736C87.2614 66.0523 87.5294 66.7006 87.5294 67.3765C87.5294 68.0516 87.2611 68.6991 86.7837 69.1765C86.3064 69.6539 85.6589 69.9221 84.9837 69.9221Z" fill="#FFB450"/>
<path d="M162.811 69.3836H153.527C153.33 69.3847 153.135 69.3469 152.953 69.2723C152.771 69.1978 152.605 69.0879 152.466 68.9492C152.326 68.8104 152.215 68.6455 152.14 68.4638C152.064 68.2821 152.025 68.0873 152.025 67.8905C152.025 67.4924 152.184 67.1105 152.465 66.829C152.747 66.5474 153.128 66.3893 153.527 66.3893H162.811C163.208 66.3914 163.588 66.5506 163.868 66.8319C164.148 67.1132 164.305 67.4938 164.305 67.8905C164.305 68.2865 164.147 68.6663 163.867 68.9463C163.587 69.2263 163.207 69.3836 162.811 69.3836Z" fill="#FFE2D7"/>
<path d="M180.361 69.3836H171.044C170.648 69.3836 170.268 69.2263 169.988 68.9463C169.708 68.6663 169.551 68.2865 169.551 67.8905C169.551 67.4938 169.708 67.1132 169.988 66.8319C170.267 66.5506 170.647 66.3914 171.044 66.3893H180.329C180.727 66.3893 181.109 66.5474 181.39 66.829C181.672 67.1105 181.83 67.4924 181.83 67.8905C181.83 68.2823 181.676 68.6584 181.401 68.9377C181.127 69.2171 180.753 69.3772 180.361 69.3836Z" fill="#FFE2D7"/>
<path d="M198.18 69.3836H188.904C188.707 69.3847 188.512 69.3469 188.33 69.2723C188.148 69.1978 187.982 69.0879 187.843 68.9492C187.703 68.8104 187.592 68.6455 187.517 68.4638C187.441 68.2821 187.402 68.0873 187.402 67.8905C187.402 67.4924 187.561 67.1105 187.842 66.829C188.124 66.5474 188.505 66.3893 188.904 66.3893H198.18C198.578 66.3893 198.96 66.5474 199.242 66.829C199.523 67.1105 199.682 67.4924 199.682 67.8905C199.682 68.0873 199.643 68.2821 199.567 68.4638C199.492 68.6455 199.381 68.8104 199.241 68.9492C199.102 69.0879 198.936 69.1978 198.754 69.2723C198.572 69.3469 198.377 69.3847 198.18 69.3836Z" fill="#FFE2D7"/>
<path d="M215.739 69.3836H206.454C206.258 69.3836 206.064 69.345 205.883 69.27C205.702 69.1949 205.537 69.0849 205.398 68.9463C205.26 68.8076 205.15 68.6431 205.075 68.4619C205 68.2808 204.961 68.0866 204.961 67.8905C204.961 67.4938 205.118 67.1132 205.398 66.8319C205.678 66.5506 206.057 66.3914 206.454 66.3893H215.739C216.137 66.3893 216.519 66.5474 216.8 66.829C217.082 67.1105 217.24 67.4924 217.24 67.8905C217.24 68.0873 217.201 68.2821 217.126 68.4638C217.05 68.6455 216.939 68.8104 216.8 68.9492C216.66 69.0879 216.495 69.1978 216.313 69.2723C216.131 69.3469 215.936 69.3847 215.739 69.3836Z" fill="#FFE2D7"/>
<path d="M140.27 85.2201H71.5553C70.582 85.2201 69.793 86.0091 69.793 86.9824V130.706C69.793 131.679 70.582 132.468 71.5553 132.468H140.27C141.243 132.468 142.032 131.679 142.032 130.706V86.9824C142.032 86.0091 141.243 85.2201 140.27 85.2201Z" fill="#FFE2D7"/>
<path d="M197.219 85.2201H158.203C157.446 85.2201 156.832 85.8338 156.832 86.5908V91.2985C156.832 92.0555 157.446 92.6692 158.203 92.6692H197.219C197.976 92.6692 198.589 92.0555 198.589 91.2985V86.5908C198.589 85.8338 197.976 85.2201 197.219 85.2201Z" fill="#FFE2D7"/>
<path d="M186.082 101.693H158.154C157.803 101.693 157.467 101.554 157.219 101.306C156.971 101.058 156.832 100.722 156.832 100.371C156.834 100.021 156.974 99.6865 157.222 99.4391C157.469 99.1916 157.804 99.0517 158.154 99.0496H186.082C186.432 99.0496 186.769 99.1888 187.016 99.4367C187.264 99.6846 187.404 100.021 187.404 100.371C187.405 100.545 187.371 100.718 187.305 100.878C187.239 101.039 187.142 101.185 187.019 101.308C186.896 101.431 186.75 101.529 186.589 101.595C186.428 101.661 186.256 101.694 186.082 101.693Z" fill="#FFE2D7"/>
<path d="M214.026 108.049H158.154C157.803 108.049 157.467 107.91 157.219 107.662C156.971 107.414 156.832 107.078 156.832 106.727C156.834 106.377 156.974 106.042 157.222 105.795C157.469 105.547 157.804 105.407 158.154 105.405H214.026C214.2 105.405 214.372 105.439 214.532 105.506C214.692 105.572 214.838 105.67 214.961 105.792C215.084 105.915 215.181 106.061 215.247 106.221C215.314 106.382 215.348 106.553 215.348 106.727C215.349 106.901 215.316 107.073 215.25 107.234C215.183 107.395 215.086 107.541 214.963 107.664C214.84 107.787 214.694 107.884 214.533 107.95C214.372 108.016 214.2 108.05 214.026 108.049Z" fill="#FFE2D7"/>
<path d="M214.026 114.445H158.154C157.98 114.445 157.808 114.411 157.648 114.345C157.488 114.278 157.342 114.181 157.219 114.058C157.096 113.936 156.999 113.79 156.933 113.629C156.866 113.469 156.832 113.297 156.832 113.124C156.834 112.774 156.974 112.439 157.222 112.191C157.469 111.944 157.804 111.804 158.154 111.802H214.026C214.375 111.802 214.71 111.94 214.958 112.186C215.206 112.432 215.346 112.766 215.348 113.115C215.35 113.29 215.317 113.463 215.252 113.625C215.186 113.787 215.089 113.934 214.966 114.058C214.843 114.182 214.697 114.28 214.535 114.346C214.374 114.413 214.201 114.446 214.026 114.445Z" fill="#FFE2D7"/>
<path d="M214.026 120.842H158.154C157.803 120.842 157.467 120.703 157.219 120.455C156.971 120.207 156.832 119.871 156.832 119.52C156.832 119.17 156.971 118.834 157.219 118.586C157.467 118.338 157.803 118.199 158.154 118.199H214.026C214.2 118.197 214.372 118.231 214.533 118.297C214.694 118.363 214.84 118.46 214.963 118.583C215.086 118.706 215.183 118.852 215.25 119.013C215.316 119.174 215.349 119.346 215.348 119.52C215.349 119.694 215.316 119.866 215.25 120.027C215.183 120.188 215.086 120.334 214.963 120.457C214.84 120.58 214.694 120.678 214.533 120.744C214.372 120.81 214.2 120.843 214.026 120.842Z" fill="#FFE2D7"/>
<path d="M175.761 134.541H159.712C158.948 134.541 158.216 134.237 157.676 133.697C157.135 133.157 156.832 132.425 156.832 131.661C156.832 130.897 157.135 130.164 157.676 129.624C158.216 129.084 158.948 128.781 159.712 128.781H175.761C176.525 128.781 177.257 129.084 177.797 129.624C178.337 130.164 178.641 130.897 178.641 131.661C178.641 132.425 178.337 133.157 177.797 133.697C177.257 134.237 176.525 134.541 175.761 134.541Z" fill="#FFE2D7"/>
<path d="M229.789 150.402V168.727C229.789 169.39 229.658 170.047 229.405 170.66C229.151 171.272 228.779 171.829 228.31 172.298C227.841 172.767 227.284 173.139 226.671 173.393C226.059 173.647 225.402 173.777 224.739 173.777H59.2672C57.9277 173.777 56.6432 173.245 55.696 172.298C54.7489 171.351 54.2168 170.066 54.2168 168.727V150.402H229.789Z" fill="#FFF3EE"/>
<path d="M183.152 161.008V173.777H100.877V161.008C100.877 160.3 101.158 159.621 101.658 159.119C102.158 158.617 102.837 158.335 103.545 158.332H180.443C180.797 158.328 181.149 158.394 181.477 158.527C181.805 158.659 182.104 158.856 182.356 159.105C182.608 159.353 182.808 159.65 182.945 159.977C183.081 160.304 183.152 160.654 183.152 161.008Z" fill="#FF6C37"/>
<path d="M203.149 55.187C203.151 55.4891 203.063 55.7849 202.896 56.0369C202.729 56.2888 202.492 56.4857 202.213 56.6024C201.934 56.7191 201.627 56.7505 201.331 56.6925C201.034 56.6346 200.762 56.4899 200.547 56.2769C200.333 56.0638 200.187 55.792 200.128 55.4958C200.068 55.1996 200.098 54.8924 200.213 54.6132C200.328 54.3339 200.524 54.0952 200.775 53.9271C201.026 53.7591 201.321 53.6694 201.623 53.6694C202.027 53.6694 202.413 53.8291 202.699 54.1134C202.985 54.3978 203.147 54.7838 203.149 55.187Z" fill="white"/>
<path d="M211.456 55.187C211.457 55.4895 211.369 55.7856 211.202 56.0377C211.035 56.2899 210.797 56.4867 210.518 56.6032C210.239 56.7197 209.931 56.7506 209.634 56.692C209.338 56.6333 209.065 56.4879 208.851 56.274C208.637 56.0601 208.492 55.7875 208.433 55.4908C208.375 55.1941 208.405 54.8866 208.522 54.6075C208.638 54.3284 208.835 54.0902 209.087 53.9232C209.34 53.7562 209.636 53.6678 209.938 53.6695C210.341 53.6695 210.727 53.8293 211.011 54.1139C211.296 54.3985 211.456 54.7845 211.456 55.187Z" fill="white"/>
<path d="M219.395 55.187C219.397 55.4895 219.308 55.7856 219.141 56.0377C218.974 56.2899 218.736 56.4867 218.457 56.6032C218.178 56.7197 217.871 56.7506 217.574 56.692C217.277 56.6333 217.004 56.4879 216.791 56.274C216.577 56.0601 216.431 55.7875 216.373 55.4908C216.314 55.1941 216.345 54.8866 216.461 54.6075C216.578 54.3284 216.775 54.0902 217.027 53.9232C217.279 53.7562 217.575 53.6678 217.878 53.6695C218.28 53.6695 218.666 53.8293 218.951 54.1139C219.235 54.3985 219.395 54.7845 219.395 55.187Z" fill="white"/>
<path d="M229.789 60.213V168.727C229.789 169.39 229.658 170.047 229.405 170.659C229.151 171.272 228.779 171.829 228.31 172.298C227.841 172.767 227.284 173.139 226.671 173.393C226.059 173.647 225.402 173.777 224.739 173.777H59.2672C57.9277 173.777 56.6432 173.245 55.696 172.298C54.7489 171.351 54.2168 170.066 54.2168 168.727V60.213C54.2168 58.6812 54.5186 57.1644 55.1051 55.7493C55.6915 54.3342 56.5511 53.0486 57.6346 51.9658C58.7181 50.8831 60.0043 50.0244 61.4198 49.439C62.8353 48.8536 64.3523 48.5528 65.8841 48.5538H218.146C221.235 48.5603 224.195 49.7913 226.377 51.9769C228.56 54.1624 229.787 57.1243 229.789 60.213Z" stroke="#A6A4F7" stroke-miterlimit="10"/>
<g style="mix-blend-mode:multiply">
<path d="M89.7234 43.7319H22.4448C21.2823 43.7319 20.3398 44.6744 20.3398 45.8369V96.3C20.3398 97.4625 21.2823 98.405 22.4448 98.405H89.7234C90.886 98.405 91.8284 97.4625 91.8284 96.3V45.8369C91.8284 44.6744 90.886 43.7319 89.7234 43.7319Z" fill="#E9E1F4"/>
</g>
<path d="M81.5164 36.1277H14.2378C13.0753 36.1277 12.1328 37.0702 12.1328 38.2328V88.6876C12.1328 89.8502 13.0753 90.7926 14.2378 90.7926H81.5164C82.679 90.7926 83.6214 89.8502 83.6214 88.6876V38.2328C83.6214 37.0702 82.679 36.1277 81.5164 36.1277Z" fill="#407BFF"/>
<path d="M83.6214 70.379V88.6876C83.6214 89.2438 83.4005 89.7771 83.0072 90.1703C82.614 90.5636 82.0807 90.7845 81.5246 90.7845H14.2296C13.6742 90.7823 13.1421 90.5607 12.7493 90.168C12.3566 89.7752 12.135 89.2431 12.1328 88.6876V71.0643C12.1328 71.0643 23.6124 51.2708 31.7143 51.2708C41.864 51.2708 47.6405 74.3687 52.6746 74.3687C57.7086 74.3687 64.3337 58.4506 71.0077 58.4506C75.0056 58.4506 80.1457 65.0838 83.6214 70.379Z" fill="#E1EDFF"/>
<path d="M74.4425 47.4361C74.4425 48.3579 74.1691 49.2589 73.6568 50.0252C73.1445 50.7915 72.4164 51.3886 71.5647 51.741C70.7129 52.0934 69.7758 52.1852 68.8719 52.0047C67.9679 51.8243 67.1378 51.3798 66.4866 50.7274C65.8354 50.0751 65.3924 49.2442 65.2135 48.34C65.0347 47.4357 65.1281 46.4988 65.482 45.6476C65.8358 44.7965 66.4342 44.0695 67.2014 43.5585C67.9686 43.0476 68.8701 42.7757 69.7919 42.7774C71.0261 42.7795 72.209 43.2713 73.0809 44.1448C73.9528 45.0182 74.4425 46.2019 74.4425 47.4361Z" fill="#E1EDFF"/>
<g style="mix-blend-mode:multiply">
<path d="M248.709 87.4883H209.766C209.018 87.4883 208.412 88.0947 208.412 88.8427V141.778C208.412 142.526 209.018 143.132 209.766 143.132H248.709C249.457 143.132 250.063 142.526 250.063 141.778V88.8427C250.063 88.0947 249.457 87.4883 248.709 87.4883Z" fill="#FFE2D7"/>
</g>
<path d="M255.588 81.2793H216.645C215.897 81.2793 215.291 81.8857 215.291 82.6337V135.569C215.291 136.317 215.897 136.923 216.645 136.923H255.588C256.336 136.923 256.942 136.317 256.942 135.569V82.6337C256.942 81.8857 256.336 81.2793 255.588 81.2793Z" fill="#407BFF"/>
<path d="M249.704 87.3251H222.535V90.9966H249.704V87.3251Z" fill="white"/>
<path d="M241.806 131.016H230.384C230.114 131.016 229.847 130.963 229.598 130.859C229.349 130.756 229.123 130.604 228.933 130.413C228.743 130.222 228.592 129.996 228.49 129.746C228.387 129.497 228.335 129.23 228.336 128.96C228.335 128.691 228.387 128.423 228.49 128.174C228.592 127.925 228.743 127.698 228.933 127.507C229.123 127.316 229.349 127.164 229.598 127.061C229.847 126.957 230.114 126.904 230.384 126.904H241.806C242.352 126.904 242.875 127.121 243.26 127.506C243.646 127.892 243.862 128.415 243.862 128.96C243.862 129.505 243.646 130.028 243.26 130.414C242.875 130.8 242.352 131.016 241.806 131.016Z" fill="white"/>
<path d="M236.847 96.3407H225.8C225.358 96.3407 225 96.6987 225 97.1403V97.279C225 97.7206 225.358 98.0785 225.8 98.0785H236.847C237.288 98.0785 237.646 97.7206 237.646 97.279V97.1403C237.646 96.6987 237.288 96.3407 236.847 96.3407Z" fill="white"/>
<path d="M251.133 100.608H225.8C225.358 100.608 225 100.966 225 101.407V101.546C225 101.988 225.358 102.346 225.8 102.346H251.133C251.575 102.346 251.933 101.988 251.933 101.546V101.407C251.933 100.966 251.575 100.608 251.133 100.608Z" fill="white"/>
<path d="M251.133 104.875H225.8C225.358 104.875 225 105.233 225 105.675V105.813C225 106.255 225.358 106.613 225.8 106.613H251.133C251.575 106.613 251.933 106.255 251.933 105.813V105.675C251.933 105.233 251.575 104.875 251.133 104.875Z" fill="white"/>
<path d="M220.611 97.2055C220.609 97.3762 220.557 97.5426 220.461 97.6838C220.365 97.8249 220.229 97.9345 220.071 97.9987C219.913 98.0629 219.739 98.0789 219.572 98.0446C219.405 98.0103 219.251 97.9273 219.131 97.806C219.011 97.6848 218.93 97.5307 218.897 97.3631C218.864 97.1956 218.882 97.0221 218.947 96.8646C219.013 96.707 219.124 96.5724 219.266 96.4777C219.408 96.3831 219.575 96.3325 219.746 96.3325C219.86 96.3325 219.973 96.3552 220.079 96.3991C220.184 96.4431 220.28 96.5075 220.36 96.5887C220.441 96.6699 220.504 96.7662 220.547 96.8721C220.59 96.9779 220.612 97.0913 220.611 97.2055Z" fill="white"/>
<path d="M236.847 110.521H225.8C225.358 110.521 225 110.879 225 111.321V111.459C225 111.901 225.358 112.259 225.8 112.259H236.847C237.288 112.259 237.646 111.901 237.646 111.459V111.321C237.646 110.879 237.288 110.521 236.847 110.521Z" fill="white"/>
<path d="M251.133 114.788H225.8C225.358 114.788 225 115.146 225 115.588V115.726C225 116.168 225.358 116.526 225.8 116.526H251.133C251.575 116.526 251.933 116.168 251.933 115.726V115.588C251.933 115.146 251.575 114.788 251.133 114.788Z" fill="white"/>
<path d="M251.133 119.055H225.8C225.358 119.055 225 119.413 225 119.855V119.993C225 120.435 225.358 120.793 225.8 120.793H251.133C251.575 120.793 251.933 120.435 251.933 119.993V119.855C251.933 119.413 251.575 119.055 251.133 119.055Z" fill="white"/>
<path d="M220.611 111.386C220.609 111.556 220.557 111.723 220.461 111.864C220.365 112.005 220.229 112.115 220.071 112.179C219.913 112.243 219.739 112.259 219.572 112.225C219.405 112.19 219.251 112.107 219.131 111.986C219.011 111.865 218.93 111.711 218.897 111.543C218.864 111.376 218.882 111.202 218.947 111.045C219.013 110.887 219.124 110.753 219.266 110.658C219.408 110.563 219.575 110.513 219.746 110.513C219.86 110.513 219.973 110.535 220.079 110.579C220.184 110.623 220.28 110.688 220.36 110.769C220.441 110.85 220.504 110.946 220.547 111.052C220.59 111.158 220.612 111.271 220.611 111.386Z" fill="white"/>
<path d="M275.234 80.0882L255.31 96.5203C255.155 96.6517 254.992 96.7716 254.82 96.8793C254.397 97.1532 253.935 97.3622 253.449 97.4994L250.186 98.4132C250.099 98.4375 250.006 98.4359 249.92 98.4085C249.834 98.3811 249.757 98.3292 249.7 98.259C249.643 98.1889 249.608 98.1035 249.598 98.0135C249.589 97.9235 249.606 97.8327 249.647 97.7523L251.149 94.7661C251.363 94.3275 251.637 93.9211 251.964 93.5586C252.107 93.402 252.263 93.2574 252.429 93.1262L272.256 76.7675C272.696 76.392 273.262 76.1968 273.84 76.221C274.418 76.2452 274.965 76.4871 275.372 76.8981C275.58 77.1131 275.741 77.368 275.847 77.6473C275.953 77.9266 276 78.2245 275.988 78.5229C275.975 78.8213 275.901 79.1139 275.771 79.383C275.642 79.6521 275.459 79.892 275.234 80.0882Z" fill="#FFCC4D"/>
<path d="M254.82 96.8792C254.397 97.153 253.935 97.362 253.45 97.4992L251.565 98.0377L250.227 98.413C250.14 98.4374 250.047 98.4358 249.961 98.4084C249.875 98.381 249.798 98.329 249.741 98.2589C249.684 98.1887 249.649 98.1034 249.639 98.0134C249.63 97.9234 249.647 97.8326 249.688 97.7522L250.308 96.5202L251.19 94.766C251.404 94.3274 251.678 93.9209 252.005 93.5585C252.752 93.7694 253.418 94.198 253.919 94.7895C254.421 95.381 254.734 96.1085 254.82 96.8792Z" fill="#FFE7B0"/>
<path d="M251.565 98.0378L250.227 98.4131C250.14 98.4374 250.047 98.4358 249.961 98.4084C249.875 98.381 249.798 98.3291 249.741 98.2589C249.684 98.1888 249.649 98.1035 249.639 98.0135C249.63 97.9234 249.647 97.8327 249.688 97.7522L250.308 96.5202C250.499 96.5128 250.688 96.5495 250.862 96.6272C251.036 96.705 251.19 96.8218 251.312 96.9685C251.433 97.1153 251.519 97.2881 251.563 97.4736C251.607 97.659 251.608 97.8521 251.565 98.0378Z" fill="#FFCC4D"/>
<g style="mix-blend-mode:multiply">
<path d="M188.424 4.34058H137.83C136.023 4.34058 134.559 5.80538 134.559 7.61231V42.1899C134.559 43.9968 136.023 45.4616 137.83 45.4616H188.424C190.231 45.4616 191.696 43.9968 191.696 42.1899V7.61231C191.696 5.80538 190.231 4.34058 188.424 4.34058Z" fill="#E9E1F4"/>
</g>
<path d="M184.287 0H133.694C131.887 0 130.422 1.46481 130.422 3.27173V37.8493C130.422 39.6562 131.887 41.121 133.694 41.121H184.287C186.094 41.121 187.559 39.6562 187.559 37.8493V3.27173C187.559 1.46481 186.094 0 184.287 0Z" fill="#407BFF"/>
<path d="M187.558 33.215V37.8411C187.558 38.7067 187.214 39.5368 186.602 40.1488C185.99 40.7609 185.16 41.1047 184.294 41.1047H133.709C132.843 41.1047 132.013 40.7609 131.401 40.1488C130.789 39.5368 130.445 38.7067 130.445 37.8411V33.215H187.558Z" fill="white"/>
<path d="M160.756 37.5556C160.755 37.9252 160.866 38.2865 161.074 38.5918H135.521C135.246 38.5918 134.982 38.4826 134.788 38.2883C134.594 38.094 134.484 37.8304 134.484 37.5556C134.484 37.2808 134.594 37.0172 134.788 36.8229C134.982 36.6286 135.246 36.5194 135.521 36.5194H161.074C160.866 36.8247 160.755 37.186 160.756 37.5556Z" fill="#1A61FF"/>
<path d="M169.584 37.5556C169.584 37.8304 169.475 38.094 169.281 38.2883C169.086 38.4826 168.823 38.5918 168.548 38.5918H161.075C160.867 38.2861 160.756 37.9251 160.756 37.5556C160.756 37.1861 160.867 36.8251 161.075 36.5194H168.548C168.823 36.5194 169.086 36.6286 169.281 36.8229C169.475 37.0172 169.584 37.2808 169.584 37.5556Z" fill="#407BFF"/>
<path d="M164.427 37.5556C164.43 37.9992 164.274 38.4293 163.987 38.7676C163.7 39.1058 163.301 39.3299 162.863 39.3989C162.425 39.468 161.976 39.3775 161.599 39.1438C161.222 38.9102 160.941 38.5489 160.808 38.1258C160.675 37.7027 160.698 37.2458 160.873 36.8382C161.048 36.4306 161.364 36.0995 161.763 35.9049C162.161 35.7104 162.617 35.6654 163.046 35.7782C163.475 35.891 163.849 36.154 164.1 36.5194C164.311 36.824 164.425 37.1852 164.427 37.5556Z" fill="#EBEBEB"/>
<path d="M163.489 37.5556C163.491 37.7354 163.439 37.9116 163.34 38.0618C163.241 38.212 163.1 38.3293 162.934 38.3989C162.768 38.4684 162.585 38.487 162.409 38.4524C162.232 38.4177 162.07 38.3313 161.943 38.2041C161.816 38.077 161.729 37.9148 161.695 37.7384C161.66 37.562 161.679 37.3792 161.748 37.2134C161.818 37.0476 161.935 36.9062 162.085 36.8074C162.235 36.7085 162.412 36.6565 162.592 36.6581C162.829 36.6602 163.056 36.7555 163.224 36.9233C163.392 37.0912 163.487 37.3182 163.489 37.5556Z" fill="#407BFF"/>
<path d="M177.295 38.4694V36.7397C177.297 36.6886 177.311 36.6389 177.337 36.5948C177.363 36.5507 177.399 36.5137 177.443 36.487C177.487 36.4604 177.536 36.4449 177.587 36.442C177.638 36.4391 177.689 36.4489 177.736 36.4705L179.457 37.3353C179.507 37.3605 179.549 37.399 179.578 37.4466C179.607 37.4941 179.622 37.5488 179.622 37.6046C179.622 37.6603 179.607 37.715 179.578 37.7625C179.549 37.8101 179.507 37.8486 179.457 37.8738L177.736 38.7386C177.689 38.7602 177.638 38.77 177.587 38.7671C177.536 38.7642 177.487 38.7487 177.443 38.7221C177.399 38.6954 177.363 38.6584 177.337 38.6143C177.311 38.5703 177.297 38.5205 177.295 38.4694Z" fill="#407BFF"/>
<path d="M181.938 38.1349V37.0742C181.938 36.9355 182.052 36.8457 182.15 36.911L182.966 37.4413C182.991 37.4603 183.011 37.485 183.026 37.5133C183.04 37.5416 183.047 37.5728 183.047 37.6045C183.047 37.6362 183.04 37.6674 183.026 37.6957C183.011 37.7241 182.991 37.7487 182.966 37.7677L182.15 38.298C182.052 38.3633 181.938 38.2736 181.938 38.1349Z" fill="#407BFF"/>
<path d="M183.062 38.1349V37.0742C183.062 36.9355 183.177 36.8457 183.275 36.911L184.091 37.4413C184.116 37.4603 184.136 37.485 184.151 37.5133C184.165 37.5416 184.172 37.5728 184.172 37.6045C184.172 37.6362 184.165 37.6674 184.151 37.6957C184.136 37.7241 184.116 37.7487 184.091 37.7677L183.275 38.298C183.177 38.3633 183.062 38.2736 183.062 38.1349Z" fill="#407BFF"/>
<path d="M175.172 38.1349V37.0742C175.172 36.9355 175.058 36.8457 174.96 36.911L174.144 37.4413C174.119 37.4603 174.098 37.485 174.084 37.5133C174.07 37.5416 174.062 37.5728 174.062 37.6045C174.062 37.6362 174.07 37.6674 174.084 37.6957C174.098 37.7241 174.119 37.7487 174.144 37.7677L174.96 38.298C175.058 38.3633 175.172 38.2736 175.172 38.1349Z" fill="#407BFF"/>
<path d="M174.047 38.1349V37.0742C174.047 36.9355 173.933 36.8457 173.835 36.911L173.019 37.4413C172.994 37.4603 172.973 37.485 172.959 37.5133C172.945 37.5416 172.938 37.5728 172.938 37.6045C172.938 37.6362 172.945 37.6674 172.959 37.6957C172.973 37.7241 172.994 37.7487 173.019 37.7677L173.835 38.298C173.933 38.3633 174.047 38.2736 174.047 38.1349Z" fill="#407BFF"/>
<path d="M168.92 19.5016C170.22 14.0302 166.838 8.54141 161.366 7.24198C155.895 5.94256 150.406 9.32459 149.107 14.796C147.807 20.2673 151.189 25.7562 156.661 27.0556C162.132 28.355 167.621 24.973 168.92 19.5016Z" fill="#FBF8FF"/>
<path d="M156.301 20.2587V14.0008C156.301 13.8438 156.343 13.6897 156.423 13.5547C156.503 13.4197 156.618 13.3088 156.756 13.2337C156.894 13.1585 157.049 13.1219 157.206 13.1277C157.363 13.1334 157.515 13.1814 157.647 13.2665L162.461 16.3995C162.582 16.4789 162.682 16.5872 162.75 16.7147C162.819 16.8422 162.855 16.9848 162.855 17.1297C162.855 17.2746 162.819 17.4172 162.75 17.5447C162.682 17.6722 162.582 17.7805 162.461 17.8599L157.647 20.993C157.515 21.078 157.363 21.126 157.206 21.1318C157.049 21.1375 156.894 21.1009 156.756 21.0258C156.618 20.9506 156.503 20.8397 156.423 20.7047C156.343 20.5697 156.301 20.4156 156.301 20.2587Z" fill="#407BFF"/>
<g style="mix-blend-mode:multiply">
<path d="M64.3167 149.186H25.4556C23.1621 149.186 21.3027 151.045 21.3027 153.339V184.335C21.3027 186.628 23.1621 188.488 25.4556 188.488H64.3167C66.6102 188.488 68.4695 186.628 68.4695 184.335V153.339C68.4695 151.045 66.6102 149.186 64.3167 149.186Z" fill="#E9E1F4"/>
</g>
<path d="M59.0471 143.63H20.1861C17.8925 143.63 16.0332 145.489 16.0332 147.783V178.779C16.0332 181.072 17.8925 182.931 20.1861 182.931H59.0471C61.3407 182.931 63.2 181.072 63.2 178.779V147.783C63.2 145.489 61.3407 143.63 59.0471 143.63Z" fill="#FCFAFF"/>
<path d="M36.1193 176.698H34.308C34.2274 176.699 34.1477 176.682 34.0749 176.647C34.002 176.613 33.938 176.562 33.8877 176.499C33.8374 176.436 33.802 176.363 33.7844 176.284C33.7667 176.205 33.7672 176.124 33.7858 176.045L35.744 167.381C35.7699 167.261 35.8357 167.154 35.9306 167.077C36.0255 167 36.1438 166.957 36.2661 166.956H39.3094C39.391 166.955 39.4718 166.973 39.5456 167.008C39.6193 167.043 39.6843 167.094 39.7353 167.158C39.7864 167.221 39.8224 167.296 39.8404 167.375C39.8585 167.455 39.8583 167.538 39.8397 167.617L38.1508 175.123C38.0375 175.576 37.7757 175.976 37.4073 176.262C37.0389 176.548 36.5853 176.701 36.1193 176.698Z" fill="#407BFF"/>
<path d="M51.8583 164.517H50.1367V158.618H51.8583C52.2457 158.618 52.6294 158.694 52.9873 158.843C53.3452 158.991 53.6702 159.209 53.9438 159.483C54.2175 159.758 54.4342 160.084 54.5818 160.442C54.7293 160.8 54.8047 161.184 54.8036 161.571C54.8036 162.353 54.4933 163.102 53.941 163.654C53.3886 164.207 52.6394 164.517 51.8583 164.517Z" fill="#407BFF"/>
<path d="M31.0527 155.265H35.6869V168.033H31.0527C30.1503 168.033 29.2849 167.675 28.6469 167.037C28.0088 166.399 27.6504 165.533 27.6504 164.631V158.667C27.6504 157.764 28.0088 156.899 28.6469 156.261C29.2849 155.623 30.1503 155.265 31.0527 155.265Z" fill="#407BFF"/>
<path d="M35.6875 155.256L51.1895 152.711C51.3713 152.683 51.557 152.694 51.7341 152.744C51.9111 152.794 52.0753 152.882 52.2154 153.001C52.3555 153.12 52.4683 153.268 52.5461 153.435C52.6239 153.602 52.6649 153.783 52.6662 153.967V169.135C52.6675 169.319 52.6285 169.501 52.5521 169.668C52.4757 169.836 52.3636 169.985 52.2238 170.104C52.0839 170.224 51.9196 170.311 51.7424 170.361C51.5652 170.411 51.3793 170.421 51.1976 170.391L35.6956 168.025L35.6875 155.256Z" fill="#E1EDFF"/>
<path d="M33.59 158.308H30.4815C30.4358 158.308 30.3905 158.299 30.3484 158.281C30.3063 158.263 30.2682 158.237 30.2362 158.205C30.2043 158.172 30.1792 158.133 30.1625 158.091C30.1457 158.048 30.1377 158.003 30.1388 157.957C30.1388 157.866 30.1749 157.779 30.2391 157.715C30.3034 157.65 30.3906 157.614 30.4815 157.614H33.59C33.6357 157.613 33.6811 157.621 33.7236 157.638C33.7662 157.655 33.8049 157.68 33.8376 157.712C33.8703 157.744 33.8963 157.782 33.914 157.824C33.9317 157.866 33.9408 157.911 33.9408 157.957C33.9408 158.003 33.9318 158.049 33.9141 158.091C33.8965 158.134 33.8707 158.173 33.8381 158.205C33.8055 158.238 33.7668 158.264 33.7243 158.281C33.6817 158.299 33.6361 158.308 33.59 158.308Z" fill="white"/>
<path d="M33.5899 159.621H30.4814C30.3905 159.621 30.3033 159.585 30.239 159.521C30.1748 159.457 30.1387 159.37 30.1387 159.279C30.1387 159.188 30.1748 159.101 30.239 159.037C30.3033 158.972 30.3905 158.936 30.4814 158.936H33.5899C33.6356 158.935 33.681 158.943 33.7235 158.96C33.7661 158.977 33.8048 159.002 33.8375 159.034C33.8702 159.065 33.8962 159.104 33.9139 159.146C33.9316 159.188 33.9408 159.233 33.9407 159.279C33.9408 159.324 33.9316 159.37 33.9139 159.412C33.8962 159.454 33.8702 159.492 33.8375 159.524C33.8048 159.556 33.7661 159.581 33.7235 159.598C33.681 159.615 33.6356 159.623 33.5899 159.621Z" fill="white"/>
<g style="mix-blend-mode:multiply">
<path d="M159.221 151.332H188.087L195.626 158.944V198.825C195.626 199.135 195.503 199.431 195.285 199.65C195.066 199.869 194.769 199.992 194.46 199.992H158.952C158.642 199.992 158.346 199.869 158.127 199.65C157.908 199.431 157.785 199.135 157.785 198.825V152.768C157.785 152.387 157.936 152.022 158.206 151.753C158.475 151.483 158.84 151.332 159.221 151.332Z" fill="#E9E1F4"/>
</g>
<path d="M154.948 147.065H183.814L191.361 154.669V194.558C191.361 194.867 191.238 195.164 191.019 195.383C190.8 195.602 190.504 195.725 190.194 195.725H154.678C154.369 195.725 154.072 195.602 153.853 195.383C153.635 195.164 153.512 194.867 153.512 194.558V148.493C153.512 148.304 153.549 148.118 153.621 147.944C153.693 147.771 153.799 147.613 153.933 147.48C154.066 147.347 154.225 147.242 154.399 147.171C154.573 147.1 154.759 147.064 154.948 147.065Z" fill="#407BFF"/>
<path d="M183.812 147.065V153.372C183.815 153.716 183.953 154.046 184.198 154.289C184.442 154.533 184.773 154.669 185.118 154.669H191.36L183.812 147.065Z" fill="#E1EDFF"/>
<path d="M109.356 187.811H85.5232C85.0732 187.811 84.6415 187.632 84.3233 187.314C84.005 186.995 83.8262 186.564 83.8262 186.114C83.8251 185.89 83.8682 185.668 83.953 185.462C84.0378 185.255 84.1626 185.067 84.3203 184.908C84.478 184.75 84.6655 184.624 84.8719 184.538C85.0784 184.452 85.2997 184.408 85.5232 184.408H109.356C109.808 184.408 110.241 184.588 110.561 184.908C110.881 185.228 111.061 185.661 111.061 186.114C111.059 186.564 110.878 186.996 110.558 187.314C110.239 187.632 109.806 187.811 109.356 187.811Z" fill="#E1EDFF"/>
<path d="M109.355 196.337H85.5232C85.0731 196.337 84.6415 196.158 84.3232 195.84C84.005 195.521 83.8262 195.09 83.8262 194.64C83.8262 194.189 84.0047 193.756 84.3227 193.437C84.6408 193.117 85.0724 192.936 85.5232 192.934H109.355C109.807 192.936 110.24 193.117 110.559 193.436C110.878 193.755 111.059 194.188 111.061 194.64C111.059 195.09 110.878 195.522 110.558 195.84C110.239 196.158 109.806 196.337 109.355 196.337Z" fill="#E1EDFF"/>
<path d="M244.035 26.0189L249.24 25.0398V20.3729L244.035 19.4754C243.639 17.5851 242.892 15.786 241.832 14.1721L244.818 9.79889L241.554 6.49453L237.238 9.54596C235.619 8.49124 233.818 7.74699 231.927 7.35121L230.948 2.14581H226.281L225.383 7.35121C223.492 7.7434 221.692 8.49094 220.08 9.55413L215.699 6.56795L212.435 9.83153L215.486 14.1558C214.428 15.7709 213.681 17.5695 213.284 19.4591L208.078 20.4381V25.1051L213.284 26.0025C213.684 27.8936 214.431 29.6943 215.486 31.314L212.5 35.6872L215.764 38.9916L220.08 35.9401C221.696 36.9954 223.494 37.7398 225.383 38.1349L226.37 43.3403H231.037L231.935 38.1349C233.824 37.7373 235.623 36.9901 237.238 35.932L241.611 38.9181L244.875 35.6546L241.823 31.3303C242.883 29.7167 243.627 27.9173 244.018 26.027L244.035 26.0189ZM228.63 32.4155C226.72 32.4171 224.852 31.8521 223.262 30.792C221.673 29.7318 220.433 28.2242 219.701 26.4596C218.968 24.6951 218.775 22.7529 219.146 20.8787C219.517 19.0045 220.436 17.2824 221.786 15.9303C223.136 14.5781 224.856 13.6566 226.73 13.2823C228.603 12.908 230.546 13.0977 232.312 13.8273C234.077 14.557 235.587 15.7939 236.65 17.3816C237.713 18.9693 238.281 20.8365 238.282 22.7471C238.282 25.3085 237.266 27.7652 235.456 29.5779C233.647 31.3906 231.192 32.4111 228.63 32.4155Z" stroke="#407BFF" stroke-miterlimit="10"/>
<path d="M262.001 56.3946L265.003 57.4471L266.407 54.9994L263.959 52.9678C264.321 51.8663 264.473 50.7068 264.408 49.5492L267.271 48.1704L266.545 45.4616L263.388 45.7553C262.863 44.7205 262.152 43.7912 261.291 43.0139L262.335 40.0114L259.888 38.6162L257.856 41.0639C256.754 40.704 255.594 40.5546 254.437 40.6233L253.059 37.7514L250.35 38.4775L250.643 41.6432C249.608 42.1632 248.681 42.8747 247.91 43.7401L244.908 42.6876L243.504 45.1352L245.952 47.1587C245.59 48.2629 245.438 49.4252 245.503 50.5854L242.664 51.9235L243.39 54.6241L246.548 54.3385C247.073 55.3704 247.784 56.2969 248.645 57.0718L247.6 60.0824L250.048 61.4857L252.079 59.0381C253.181 59.398 254.341 59.5474 255.498 59.4786L256.877 62.3506L259.586 61.6244L259.292 58.4588C260.327 57.9388 261.255 57.2273 262.025 56.3619L262.001 56.3946ZM252.071 55.0973C251.077 54.5244 250.275 53.6697 249.767 52.6411C249.259 51.6124 249.067 50.4562 249.216 49.3186C249.365 48.1809 249.847 47.1129 250.603 46.2497C251.359 45.3865 252.354 44.7668 253.462 44.4689C254.57 44.1711 255.741 44.2085 256.828 44.5765C257.915 44.9444 258.868 45.6264 259.567 46.5361C260.266 47.4458 260.68 48.5424 260.756 49.6873C260.832 50.8321 260.567 51.9738 259.994 52.9678C259.225 54.3007 257.959 55.2739 256.473 55.6732C254.988 56.0726 253.404 55.8654 252.071 55.0973Z" stroke="#FF6C37" stroke-miterlimit="10"/>
</svg>
