<svg width="205" height="200" viewBox="0 0 205 200" fill="none" xmlns="http://www.w3.org/2000/svg">
<path d="M22.2122 80.41H19.6899C16.9832 80.41 14.3874 81.4853 12.4735 83.3992C10.5596 85.3131 9.48438 87.9089 9.48438 90.6155V146.618C9.48438 149.324 10.5596 151.92 12.4735 153.834C14.3874 155.748 16.9832 156.823 19.6899 156.823H54.2946C57.0012 156.823 59.597 155.748 61.5109 153.834C63.4248 151.92 64.5 149.324 64.5 146.618" stroke="#263238" stroke-width="1.10311" stroke-linecap="round" stroke-linejoin="round" stroke-dasharray="4.41 4.41"/>
<path d="M61.6797 27.5676V16.5059C61.6797 14.8507 62.3362 13.2631 63.5053 12.0915C64.6744 10.9198 66.2605 10.2597 67.9156 10.256H112.917C114.574 10.256 116.164 10.9144 117.336 12.0865C118.508 13.2586 119.166 14.8483 119.166 16.5059" stroke="#263238" stroke-width="1.10311" stroke-linecap="round" stroke-linejoin="round" stroke-dasharray="4.41 4.41"/>
<path d="M102.166 200C151.39 200 191.293 194.424 191.293 187.547C191.293 180.669 151.39 175.094 102.166 175.094C52.9426 175.094 13.0391 180.669 13.0391 187.547C13.0391 194.424 52.9426 200 102.166 200Z" fill="#F5F5F5"/>
<path d="M186.183 42.4082V126.202C186.183 128.941 185.095 131.568 183.159 133.506C181.222 135.443 178.596 136.532 175.857 136.533H28.4749C25.7357 136.532 23.1092 135.443 21.1727 133.506C19.2363 131.568 18.1484 128.941 18.1484 126.202V42.4082C18.1484 42.1615 18.1484 41.9428 18.181 41.6822C18.3624 39.0756 19.5257 36.6347 21.4361 34.8521C23.3466 33.0695 25.862 32.0778 28.4749 32.077H175.857C178.473 32.0781 180.991 33.0724 182.901 34.8589C184.812 36.6454 185.974 39.0909 186.151 41.7008C186.174 41.9242 186.183 42.1662 186.183 42.4082Z" fill="white" stroke="#263238" stroke-width="1.10311" stroke-linecap="round" stroke-linejoin="round"/>
<path d="M23.1758 45.5541H181.684V122.959C181.684 125.526 180.665 127.988 178.849 129.803C177.034 131.618 174.572 132.638 172.005 132.638H32.8601C30.2929 132.638 27.8308 131.618 26.0155 129.803C24.2003 127.988 23.1804 125.526 23.1804 122.959V45.5541H23.1758Z" fill="white"/>
<path opacity="0.2" d="M181.687 45.5541V122.959C181.701 125.511 180.7 127.965 178.905 129.78C177.11 131.595 174.667 132.623 172.115 132.638H32.7466C30.1937 132.623 27.7513 131.595 25.9562 129.78C24.1611 127.965 23.1604 125.511 23.174 122.959V45.5541H181.687Z" fill="white"/>
<path d="M186.151 41.7008H18.1816C18.3631 39.0942 19.5263 36.6533 21.4368 34.8707C23.3472 33.0881 25.8626 32.0964 28.4756 32.0956H175.857C178.47 32.0964 180.986 33.0881 182.896 34.8707C184.806 36.6533 185.97 39.0942 186.151 41.7008Z" fill="#FF6C37" stroke="#263238" stroke-width="1.10311" stroke-miterlimit="10"/>
<path d="M38.8199 36.8796C38.8199 37.2413 38.7126 37.5949 38.5117 37.8957C38.3107 38.1965 38.0251 38.4309 37.6909 38.5693C37.3567 38.7077 36.989 38.7439 36.6342 38.6734C36.2794 38.6028 35.9536 38.4286 35.6978 38.1728C35.442 37.9171 35.2678 37.5912 35.1973 37.2364C35.1267 36.8816 35.1629 36.5139 35.3013 36.1797C35.4398 35.8455 35.6742 35.5599 35.9749 35.3589C36.2757 35.158 36.6293 35.0507 36.991 35.0507C37.4761 35.0507 37.9412 35.2434 38.2842 35.5864C38.6272 35.9294 38.8199 36.3946 38.8199 36.8796Z" fill="#263238"/>
<path d="M46.5543 36.8796C46.5543 37.2413 46.447 37.5949 46.246 37.8957C46.0451 38.1965 45.7594 38.4309 45.4253 38.5693C45.0911 38.7077 44.7233 38.7439 44.3686 38.6734C44.0138 38.6028 43.6879 38.4286 43.4322 38.1728C43.1764 37.9171 43.0022 37.5912 42.9316 37.2364C42.8611 36.8816 42.8973 36.5139 43.0357 36.1797C43.1741 35.8455 43.4085 35.5599 43.7093 35.3589C44.0101 35.158 44.3637 35.0507 44.7254 35.0507C45.2104 35.0507 45.6756 35.2434 46.0186 35.5864C46.3616 35.9294 46.5543 36.3946 46.5543 36.8796Z" fill="#263238"/>
<path d="M52.4598 38.7085C53.4698 38.7085 54.2886 37.8897 54.2886 36.8796C54.2886 35.8695 53.4698 35.0507 52.4598 35.0507C51.4497 35.0507 50.6309 35.8695 50.6309 36.8796C50.6309 37.8897 51.4497 38.7085 52.4598 38.7085Z" fill="#263238"/>
<path d="M181.682 45.5541V122.959C181.682 125.526 180.662 127.988 178.847 129.803C177.032 131.618 174.57 132.638 172.003 132.638H32.8578C30.6172 132.638 28.4462 131.86 26.715 130.438C24.9837 129.015 23.7995 127.037 23.3643 124.839V124.811C23.246 124.197 23.1868 123.574 23.1875 122.949V45.5541H181.682Z" stroke="#263238" stroke-width="1.10311" stroke-miterlimit="10"/>
<path d="M181.534 57.5233C180.856 57.1422 180.134 56.8438 179.385 56.6345L178.514 52.7487H174.819L173.958 56.6345C173.204 56.8401 172.479 57.1387 171.799 57.5233L168.462 55.3873L165.852 57.9887L167.95 61.3254C167.566 62.0057 167.268 62.731 167.062 63.4847L163.176 64.3456V68.0406L167.062 68.9108C167.265 69.6683 167.564 70.3969 167.95 71.0795L165.814 74.4394L168.43 77.0501L171.785 74.9141C172.464 75.2994 173.187 75.5995 173.94 75.8076L174.805 79.6887H178.486L179.352 75.8076C180.102 75.5974 180.824 75.2974 181.502 74.9141L181.674 75.0258V57.4302L181.534 57.5233ZM176.676 71.019C175.732 71.019 174.808 70.7388 174.023 70.214C173.238 69.6891 172.626 68.9431 172.264 68.0704C171.903 67.1977 171.809 66.2374 171.993 65.3111C172.178 64.3848 172.633 63.534 173.302 62.8665C173.97 62.1989 174.821 61.7445 175.747 61.5608C176.674 61.3771 177.634 61.4723 178.506 61.8344C179.379 62.1965 180.124 62.8092 180.648 63.595C181.172 64.3808 181.452 65.3044 181.451 66.2489C181.451 66.8757 181.327 67.4964 181.087 68.0754C180.847 68.6545 180.495 69.1805 180.052 69.6235C179.609 70.0665 179.082 70.4178 178.503 70.6572C177.924 70.8966 177.303 71.0196 176.676 71.019Z" fill="#DEE9FF"/>
<path d="M114.941 61.2695V53.4793L106.75 51.6597C106.308 50.0771 105.684 48.5513 104.889 47.1131L105.88 45.5541H67.208L68.162 47.0712C67.3575 48.503 66.7323 50.0285 66.3006 51.6132L58.1055 53.4374V61.2462L66.3006 63.0751C66.7323 64.6716 67.3575 66.2094 68.162 67.6544L63.6619 74.7326L69.1765 80.2425L76.2501 75.7378C77.6851 76.545 79.2115 77.1777 80.7968 77.6225L82.621 85.7897H90.3926L92.2262 77.6039C93.8062 77.157 95.3277 76.5243 96.7588 75.7192L103.837 80.2239L109.347 74.714L104.875 67.6357C105.668 66.1998 106.292 64.6773 106.736 63.0984L114.941 61.2695ZM86.5533 67.4403C84.5625 67.4403 82.6164 66.8499 80.961 65.7439C79.3057 64.6378 78.0155 63.0657 77.2537 61.2264C76.4918 59.3871 76.2925 57.3632 76.6809 55.4106C77.0693 53.458 78.0279 51.6645 79.4357 50.2567C80.8434 48.849 82.637 47.8903 84.5896 47.5019C86.5422 47.1135 88.5661 47.3129 90.4054 48.0747C92.2447 48.8366 93.8168 50.1268 94.9228 51.7821C96.0289 53.4374 96.6192 55.3835 96.6192 57.3744C96.6198 58.6964 96.3599 60.0056 95.8543 61.2272C95.3486 62.4487 94.6072 63.5586 93.6724 64.4934C92.7375 65.4282 91.6276 66.1697 90.4061 66.6753C89.1846 67.181 87.8754 67.4409 86.5533 67.4403Z" fill="#DEE9FF"/>
<path d="M63.2532 114.763L63.5836 108.579L57.1755 106.773C56.878 105.502 56.4378 104.269 55.8631 103.097L59.735 97.6612L55.5839 93.0587L49.7855 96.3163C48.6771 95.619 47.4919 95.0521 46.2533 94.627L45.1458 88.056L38.9657 87.7722L37.1787 94.1989C35.9054 94.4844 34.6711 94.9219 33.5023 95.5019L28.0714 91.6347L23.4597 95.7811L26.7451 101.584C26.0408 102.688 25.472 103.872 25.0512 105.112L23.1897 105.419V113.795L24.5486 114.177C24.8305 115.452 25.2665 116.688 25.847 117.858L23.1758 121.604L23.3526 124.811V124.839L26.1122 127.896L31.92 124.615C33.0264 125.327 34.2158 125.9 35.4615 126.323L36.5504 132.634L36.6016 132.899L42.7817 133.225L42.9446 132.634L44.5687 126.802C45.8477 126.516 47.088 126.079 48.2637 125.499L53.6852 129.362L58.2924 125.22L55.0348 119.412C55.7326 118.31 56.2936 117.127 56.7055 115.89L63.2532 114.763ZM46.8397 105.107C45.7811 103.93 44.397 103.093 42.8626 102.702C41.3281 102.311 39.7123 102.384 38.2194 102.912C36.7265 103.44 35.4238 104.398 34.4758 105.667C33.5279 106.935 32.9774 108.456 32.8941 110.037C32.8107 111.618 33.1982 113.189 34.0075 114.55C34.8168 115.911 36.0116 117.001 37.4407 117.683C38.8698 118.365 40.469 118.607 42.036 118.38C43.603 118.153 45.0675 117.466 46.244 116.406C47.8149 114.987 48.7596 113.003 48.8712 110.889C48.9829 108.775 48.2524 106.703 46.8397 105.126V105.107Z" fill="#DEE9FF"/>
<path d="M112.683 105.544C112.922 104.587 113.049 103.604 113.06 102.617L117.504 100.29L116.276 95.7811L111.259 96.0137C110.751 95.1709 110.147 94.3901 109.458 93.6869L110.943 88.889L106.894 86.5621L103.506 90.2572C102.55 90.0264 101.572 89.9015 100.588 89.8849L98.2614 85.4406L93.7566 86.6645L93.994 91.6858C93.1511 92.1938 92.3702 92.7982 91.6671 93.4868L86.8646 92.0023L84.5377 96.0463L88.2607 99.4295C88.0199 100.384 87.8965 101.363 87.893 102.347L83.4395 104.674L84.668 109.179L89.694 108.942C90.1921 109.789 90.794 110.57 91.4857 111.268L89.9918 116.043L94.0452 118.37L97.4144 114.703C98.3716 114.944 99.3546 115.067 100.342 115.071L102.668 119.519L107.173 118.296L106.973 114.005L106.94 113.27C107.795 112.766 108.586 112.162 109.295 111.469L114.093 112.958L116.076 109.495L116.411 108.909L112.683 105.544ZM102.04 108.281C100.885 108.599 99.6611 108.568 98.5239 108.19C97.3867 107.812 96.3874 107.105 95.6526 106.158C94.9179 105.211 94.4808 104.068 94.3969 102.873C94.3129 101.677 94.5859 100.484 95.1811 99.4437C95.7764 98.4036 96.6671 97.5638 97.7403 97.0307C98.8136 96.4975 100.021 96.2952 101.209 96.4492C102.398 96.6032 103.514 97.1067 104.416 97.8958C105.317 98.6849 105.965 99.7241 106.275 100.881C106.689 102.424 106.476 104.068 105.682 105.454C104.889 106.84 103.58 107.856 102.04 108.281Z" fill="#DEE9FF"/>
<path d="M164.209 113.474L165.233 107.285L158.969 104.767C158.827 103.448 158.525 102.151 158.071 100.905L162.58 95.8835L158.932 90.7645L152.714 93.4031C151.682 92.5757 150.554 91.8757 149.354 91.3182L148.991 84.5751L142.802 83.5513L140.266 89.7872C138.952 89.9415 137.661 90.246 136.417 90.6947L131.382 86.1852L126.286 89.8337L128.929 96.0464C128.202 96.9545 127.57 97.9354 127.045 98.9735C126.975 99.1178 126.9 99.2621 126.835 99.4063L120.097 99.7786L119.068 105.959L120.083 106.368L125.332 108.486C125.475 109.798 125.777 111.089 126.23 112.33L121.712 117.383L125.365 122.502L131.577 119.85C132.606 120.685 133.733 121.391 134.933 121.953L135.282 128.664L141.466 129.688L143.998 123.498C145.314 123.355 146.608 123.051 147.851 122.596L152.877 127.105L157.996 123.452L155.353 117.235C156.195 116.201 156.906 115.068 157.47 113.861L164.209 113.474ZM146.851 113.195C145.549 114.129 143.999 114.656 142.397 114.71C140.795 114.763 139.214 114.34 137.853 113.495C136.491 112.649 135.411 111.419 134.749 109.959C134.087 108.5 133.873 106.877 134.133 105.296C134.394 103.714 135.117 102.246 136.212 101.076C137.307 99.9058 138.725 99.0868 140.285 98.7224C141.846 98.358 143.479 98.4646 144.979 99.0287C146.479 99.5927 147.778 100.589 148.712 101.891C149.963 103.638 150.469 105.811 150.118 107.931C149.767 110.051 148.588 111.944 146.841 113.195H146.851Z" fill="#DEE9FF"/>
<path d="M80.3315 67.6544H31.6635C28.294 67.6544 25.5625 70.3859 25.5625 73.7553V141.136C25.5625 144.505 28.294 147.237 31.6635 147.237H80.3315C83.701 147.237 86.4325 144.505 86.4325 141.136V73.7553C86.4325 70.3859 83.701 67.6544 80.3315 67.6544Z" fill="#FF6C37" stroke="#263238" stroke-width="1.10311" stroke-miterlimit="10"/>
<path opacity="0.2" d="M80.3315 67.6544H31.6635C28.294 67.6544 25.5625 70.3859 25.5625 73.7553V141.136C25.5625 144.505 28.294 147.237 31.6635 147.237H80.3315C83.701 147.237 86.4325 144.505 86.4325 141.136V73.7553C86.4325 70.3859 83.701 67.6544 80.3315 67.6544Z" fill="black"/>
<path d="M92.0958 79.7678V147.148C92.0964 147.95 91.9391 148.744 91.6327 149.484C91.3264 150.225 90.8771 150.898 90.3105 151.465C89.7439 152.032 89.0712 152.482 88.3307 152.789C87.5901 153.096 86.7964 153.254 85.9948 153.254H37.3268C36.5256 153.253 35.7324 153.095 34.9924 152.788C34.2524 152.481 33.5802 152.031 33.0141 151.464C32.448 150.897 31.9991 150.224 31.6931 149.483C31.3871 148.743 31.2299 147.949 31.2305 147.148V79.7678C31.2305 78.1506 31.8726 76.5995 33.0158 75.4554C34.1589 74.3114 35.7095 73.6681 37.3268 73.6669H85.9948C87.6129 73.6669 89.1647 74.3096 90.3089 75.4538C91.453 76.598 92.0958 78.1498 92.0958 79.7678Z" fill="white" stroke="#263238" stroke-width="1.10311" stroke-linecap="round" stroke-linejoin="round"/>
<path d="M92.0958 79.7678V83.3744H31.2305V79.7678C31.2305 78.1506 31.8726 76.5995 33.0158 75.4554C34.1589 74.3114 35.7095 73.6681 37.3268 73.6669H85.9948C87.6129 73.6669 89.1647 74.3096 90.3089 75.4538C91.453 76.598 92.0958 78.1498 92.0958 79.7678Z" fill="#FF6C37" stroke="#263238" stroke-width="1.10311" stroke-miterlimit="10"/>
<path d="M51.9306 87.5534H36.9551V90.0664H51.9306V87.5534Z" fill="#FF6C37"/>
<path d="M51.9306 110.073H36.9551V112.586H51.9306V110.073Z" fill="#FF6C37"/>
<path d="M51.9306 130.493H36.9551V133.006H51.9306V130.493Z" fill="#FF6C37"/>
<path d="M79.485 93.7754H36.9551V95.6182H79.485V93.7754Z" fill="#263238"/>
<path d="M71.8157 97.2982H36.9551V99.0945H71.8157V97.2982Z" fill="#263238"/>
<path d="M76.381 100.765H36.9551V102.562H76.381V100.765Z" fill="#263238"/>
<path d="M76.381 104.228H36.9551V106.024H76.381V104.228Z" fill="#263238"/>
<path d="M79.485 114.196H36.9551V116.039H79.485V114.196Z" fill="#263238"/>
<path d="M71.8157 117.719H36.9551V119.515H71.8157V117.719Z" fill="#263238"/>
<path d="M76.381 121.185H36.9551V122.982H76.381V121.185Z" fill="#263238"/>
<path d="M79.485 136.617H36.9551V138.46H79.485V136.617Z" fill="#263238"/>
<path d="M71.8157 140.145H36.9551V141.941H71.8157V140.145Z" fill="#263238"/>
<path d="M76.381 143.612H36.9551V145.408H76.381V143.612Z" fill="#263238"/>
<path d="M160.695 26.944V54.1773C160.695 55.1329 160.507 56.0791 160.141 56.9619C159.775 57.8447 159.239 58.6468 158.563 59.3222C157.887 59.9977 157.084 60.5334 156.201 60.8987C155.318 61.2639 154.372 61.4516 153.416 61.451H90.6944C89.7388 61.4516 88.7924 61.2639 87.9094 60.8987C87.0264 60.5334 86.224 59.9977 85.5481 59.3222C84.8722 58.6468 84.336 57.8447 83.9701 56.9619C83.6043 56.0791 83.416 55.1329 83.416 54.1773V26.944C83.4172 25.0141 84.1845 23.1635 85.5492 21.7988C86.9138 20.4342 88.7644 19.6669 90.6944 19.6657H153.416C155.347 19.6657 157.198 20.4325 158.563 21.7975C159.928 23.1624 160.695 25.0137 160.695 26.944Z" fill="white" stroke="#222221" stroke-width="1.10311" stroke-miterlimit="10"/>
<path d="M160.695 26.944V27.5676H83.416V26.944C83.4172 25.0141 84.1845 23.1635 85.5492 21.7988C86.9138 20.4342 88.7644 19.6669 90.6944 19.6657H153.416C155.347 19.6657 157.198 20.4325 158.563 21.7975C159.928 23.1624 160.695 25.0137 160.695 26.944Z" fill="#FF6C37" stroke="#263238" stroke-width="1.10311" stroke-miterlimit="10"/>
<path d="M94.7709 24.9197C94.6148 25.0762 94.4158 25.1828 94.199 25.2261C93.9823 25.2695 93.7576 25.2475 93.5534 25.163C93.3491 25.0786 93.1745 24.9354 93.0517 24.7517C92.9289 24.568 92.8633 24.3519 92.8633 24.1309C92.8633 23.9099 92.9289 23.6939 93.0517 23.5101C93.1745 23.3264 93.3491 23.1833 93.5534 23.0988C93.7576 23.0143 93.9823 22.9924 94.199 23.0357C94.4158 23.079 94.6148 23.1857 94.7709 23.3421C94.9786 23.5521 95.0951 23.8355 95.0951 24.1309C95.0951 24.4263 94.9786 24.7097 94.7709 24.9197Z" fill="#263238"/>
<path d="M99.9467 24.9197C99.7906 25.0762 99.5916 25.1828 99.3748 25.2261C99.1581 25.2695 98.9334 25.2475 98.7292 25.163C98.5249 25.0786 98.3503 24.9354 98.2275 24.7517C98.1046 24.568 98.0391 24.3519 98.0391 24.1309C98.0391 23.9099 98.1046 23.6939 98.2275 23.5101C98.3503 23.3264 98.5249 23.1833 98.7292 23.0988C98.9334 23.0143 99.1581 22.9924 99.3748 23.0357C99.5916 23.079 99.7906 23.1857 99.9467 23.3421C100.154 23.5521 100.271 23.8355 100.271 24.1309C100.271 24.4263 100.154 24.7097 99.9467 24.9197Z" fill="#263238"/>
<path d="M105.122 24.9197C104.966 25.0762 104.767 25.1828 104.551 25.2261C104.334 25.2695 104.109 25.2475 103.905 25.163C103.701 25.0786 103.526 24.9354 103.403 24.7517C103.28 24.568 103.215 24.3519 103.215 24.1309C103.215 23.9099 103.28 23.6939 103.403 23.5101C103.526 23.3264 103.701 23.1833 103.905 23.0988C104.109 23.0143 104.334 22.9924 104.551 23.0357C104.767 23.079 104.966 23.1857 105.122 23.3421C105.33 23.5521 105.447 23.8355 105.447 24.1309C105.447 24.4263 105.33 24.7097 105.122 24.9197Z" fill="#263238"/>
<path d="M113.606 32.575H88.3457V54.41H113.606V32.575Z" stroke="#263238" stroke-width="1.10311" stroke-linecap="round" stroke-linejoin="round" stroke-dasharray="4.41 4.41"/>
<path d="M146.577 32.575H117.506V34.1107H146.577V32.575Z" fill="#263238"/>
<path d="M139.806 35.7534H117.506V37.2845H139.806V35.7534Z" fill="#263238"/>
<path d="M150.71 38.9179H117.506V40.4676H150.71V38.9179Z" fill="#263238"/>
<path d="M145.782 42.0033H117.506V43.553H145.782V42.0033Z" fill="#263238"/>
<path d="M162.809 94.5339H148.592C146.913 94.5339 145.553 95.8945 145.553 97.5728V105.917C145.553 107.595 146.913 108.956 148.592 108.956H162.809C164.487 108.956 165.847 107.595 165.847 105.917V97.5728C165.847 95.8945 164.487 94.5339 162.809 94.5339Z" fill="white" stroke="#263238" stroke-width="1.10311" stroke-linecap="round" stroke-linejoin="round"/>
<path d="M152.1 98.8712L148.195 101.319L151.821 104.53" stroke="#263238" stroke-width="1.10311" stroke-linecap="round" stroke-linejoin="round"/>
<path d="M159.212 104.763L162.721 101.775L158.672 99.1224" stroke="#263238" stroke-width="1.10311" stroke-linecap="round" stroke-linejoin="round"/>
<path d="M153.998 106.606L156.879 97.5681" stroke="#263238" stroke-width="1.10311" stroke-linecap="round" stroke-linejoin="round"/>
<path d="M123.973 185.253C123.973 185.253 110.477 189.12 108.592 189.79C106.88 190.395 102.236 192.024 98.7499 191.516C98.4134 191.468 98.0807 191.397 97.754 191.302C94.2219 190.251 92.635 189.269 92.1696 187.049C91.7043 184.829 93.4633 183.191 95.1573 182.144C96.8512 181.097 106.038 180.003 106.038 180.003L108.257 180.655L123.973 185.253Z" fill="#407BFF"/>
<path d="M98.7499 191.516C98.4134 191.468 98.0807 191.397 97.754 191.302C94.2219 190.251 92.635 189.269 92.1696 187.049C91.7043 184.829 93.4633 183.191 95.1573 182.144C96.8512 181.097 106.038 180.003 106.038 180.003L108.257 180.655C106.247 181.585 98.7639 182.093 97.1304 183.033C95.497 183.973 94.7105 185.741 95.6738 188.152C96.1904 189.408 97.5679 190.642 98.7499 191.516Z" fill="white"/>
<path d="M121.944 185.802C121.944 185.802 111.808 188.426 107.787 190.106C103.766 191.786 96.1019 192.522 93.3609 189.059C90.6199 185.597 93.0445 182.609 95.7762 181.944C98.5079 181.278 104.032 180.231 107.047 180.655" stroke="#263238" stroke-width="1.10311" stroke-linecap="round" stroke-linejoin="round"/>
<path d="M98.9504 191.335C98.9504 191.335 93.7941 188.506 95.5067 184.541C96.7725 181.618 103.651 182.251 107.057 180.655" stroke="#263238" stroke-width="1.10311" stroke-linecap="round" stroke-linejoin="round"/>
<path d="M165.079 192.145C164.939 193.541 164.45 194.848 163.054 195.672C162.124 196.221 160.802 196.547 158.908 196.528C154.175 196.468 145.277 193.085 145.277 193.085L136.947 188.478L141.28 181.623L142.467 179.761L145.529 180.45C145.529 180.45 148.065 181.888 150.615 183.033C153.165 184.178 159.359 184.429 161.542 186.183C163.724 187.938 165.316 189.846 165.079 192.145Z" fill="#407BFF"/>
<path d="M165.078 192.145C164.939 193.541 164.45 194.848 163.054 195.672C163.456 194.3 163.374 192.831 162.821 191.512C161.89 189.422 158.861 187.579 154.877 187.272C150.894 186.965 147.846 185.104 146.249 184.271C145.002 183.624 142.373 182.209 141.279 181.623L142.466 179.761L145.528 180.45C145.528 180.45 148.064 181.888 150.615 183.033C153.165 184.178 159.359 184.429 161.541 186.183C163.724 187.938 165.316 189.846 165.078 192.145Z" fill="white"/>
<path d="M138.795 189.771C144.791 193.257 151.419 195.52 158.294 196.431C159.811 196.612 161.575 196.64 162.589 195.5C162.859 195.171 163.06 194.79 163.18 194.382C163.3 193.973 163.337 193.545 163.288 193.122C163.106 190.981 161.305 189.287 159.332 188.436C157.359 187.584 155.185 187.389 153.087 186.919C150.999 186.448 148.982 185.71 147.083 184.722C145.576 183.936 144.119 182.982 142.458 182.628C140.796 182.274 138.819 182.702 137.93 184.154" stroke="#263238" stroke-width="1.10311" stroke-linecap="round" stroke-linejoin="round"/>
<path d="M162.031 196.082C162.81 195.708 163.492 195.158 164.021 194.474C164.551 193.791 164.913 192.993 165.079 192.145C165.381 190.13 164.232 188.101 162.617 186.863C161.002 185.625 158.978 185.039 156.982 184.624C154.985 184.21 152.942 183.931 151.029 183.172C148.112 182.028 145.231 179.775 142.188 180.58" stroke="#263238" stroke-width="1.10311" stroke-linecap="round" stroke-linejoin="round"/>
<path d="M148.196 117.677L134.1 112.316L133.923 112.246C133.923 112.246 133.975 111.874 134.016 111.315C134.105 110.189 134.151 108.355 133.621 107.736C132.834 106.806 130.61 107.588 128.437 106.592C126.263 105.596 122.247 107.378 122.247 107.378C122.247 107.378 119.343 106.843 118.059 108.937C117.407 110.626 117.631 113.125 117.631 113.125L117.366 113.218C115.686 113.847 106.546 117.286 104.615 118.668C102.478 120.18 100.114 135.71 99.3559 140.27C98.5973 144.831 97.2478 148.94 97.9318 150.508C98.6159 152.077 108.435 159.639 114.085 161.589C119.734 163.539 139.768 162.985 139.768 162.985C139.768 162.985 140.094 162.896 140.676 162.71C144.064 161.621 156.084 157.126 162.464 146.571C162.474 146.59 156.294 126.333 148.196 117.677ZM110.111 143.798C109.073 144.533 109.645 147.381 109.645 147.381L107.881 145.827L112.312 134.932L114.201 143.309C114.201 143.309 111.148 143.067 110.111 143.798ZM145.553 150.718C145.064 150.969 146.949 145.734 146.055 144.547C145.162 143.36 142.467 143.472 142.467 143.472L142.695 142.043L144.292 133.853L144.822 133.225C144.822 133.225 150.304 142.62 151.286 145.934C151.286 145.943 145.311 150.718 145.553 150.718Z" fill="#407BFF"/>
<path d="M121.581 83.7002L114.303 91.4253C114.303 91.4253 113.302 92.3141 113.698 94.5526C114.094 96.791 115.024 98.7409 115.727 98.8712C116.283 98.9685 116.847 99.0184 117.412 99.0201C117.412 99.0201 118.971 102.399 120.078 103.725C120.078 103.725 120.46 108.942 120.255 110.389C120.255 110.389 122.87 112.674 125.332 112.962C127.794 113.251 131.596 109.482 131.596 109.482L132.527 104.865C132.527 104.865 134.761 101.477 134.909 100.574C135.058 99.6716 136.082 99.9043 136.585 99.4575C137.087 99.0108 138.246 97.0236 138.446 95.1436C138.646 93.2635 138.651 91.1042 136.468 91.7371C134.574 91.2298 135.761 87.2277 135.761 87.2277L132.434 84.2959L121.581 83.7002Z" fill="white"/>
<path opacity="0.5" d="M134.098 112.316C133.989 112.603 133.863 112.884 133.721 113.158C132.521 115.42 127.29 119.734 127.29 119.734L125.708 114.871L124.842 119.734C123.097 118.97 117.773 114.359 117.773 114.359C117.773 114.359 117.592 113.926 117.373 113.251L117.638 113.158C117.638 113.158 117.415 110.64 118.066 108.97C119.342 106.876 122.255 107.411 122.255 107.411C122.255 107.411 126.271 105.628 128.444 106.624C130.617 107.62 132.842 106.848 133.628 107.769C134.415 108.69 133.931 112.264 133.931 112.264L134.098 112.316Z" fill="white"/>
<path opacity="0.2" d="M148.194 117.677L134.099 112.316L133.922 112.246C133.922 112.246 133.973 111.874 134.015 111.315L133.722 113.144L131.637 115.973C133.865 116.794 136.041 117.751 138.152 118.84C139.162 119.381 139.987 120.214 140.518 121.23C141.049 122.245 141.262 123.398 141.13 124.536L138.533 146.757L137.468 159.373L140.683 162.71C144.071 161.621 156.092 157.126 162.472 146.571C162.472 146.59 156.292 126.332 148.194 117.677ZM145.551 150.718C145.063 150.969 146.947 145.734 146.054 144.547C145.16 143.36 142.466 143.472 142.466 143.472L142.694 142.043L144.29 133.853L144.821 133.225C144.821 133.225 150.303 142.62 151.285 145.934C151.285 145.943 145.309 150.718 145.551 150.718Z" fill="black"/>
<path opacity="0.2" d="M115.135 144.547L112.943 137.222C112.943 137.222 109.011 123.815 106.317 120.511L107.024 129.939C107.024 129.939 104.697 141.201 102.57 144.547C100.444 147.893 99.9691 148.735 102.57 148.735C105.172 148.735 111.506 153.78 111.506 153.78L111.017 149.592L115.135 144.547ZM109.611 147.381L107.848 145.827L112.278 134.932L114.167 143.309C114.167 143.309 111.133 143.081 110.095 143.812C109.058 144.542 109.611 147.381 109.611 147.381Z" fill="black"/>
<path d="M120.078 103.725C120.078 103.725 120.478 107.676 120.078 109.482" stroke="#263238" stroke-width="1.10311" stroke-linecap="round" stroke-linejoin="round"/>
<path d="M132 108.951C132.004 107.681 132.151 106.415 132.437 105.177" stroke="#263238" stroke-width="1.10311" stroke-linecap="round" stroke-linejoin="round"/>
<path d="M133.057 86.646C133.057 86.646 135.449 89.6476 135.323 91.9186C135.198 94.1896 135.021 96.8794 135.081 99.5134C135.142 102.147 130.851 107.667 128.645 108.155C126.439 108.644 124.541 108.77 123.131 107.359C121.721 105.949 120.31 103.99 118.477 101.477C116.643 98.9643 117.081 93.4497 117.081 93.4497" stroke="#263238" stroke-width="1.10311" stroke-linecap="round" stroke-linejoin="round"/>
<path d="M127.294 95.5485C127.149 96.3731 127.086 97.2103 127.108 98.0475C127.06 98.753 127.28 99.4508 127.723 100.002C127.988 100.272 128.369 100.491 128.421 100.863C128.419 101.031 128.373 101.195 128.286 101.338C128.199 101.481 128.075 101.599 127.927 101.677C127.629 101.828 127.341 101.999 127.066 102.189" stroke="#263238" stroke-width="1.10311" stroke-linecap="round" stroke-linejoin="round"/>
<path d="M123.512 102.478C123.512 102.478 123.786 104.26 126.174 104.632" stroke="#263238" stroke-width="1.10311" stroke-linecap="round" stroke-linejoin="round"/>
<path d="M123.76 96.9074C123.76 97.4239 123.536 97.8381 123.262 97.8381C122.987 97.8381 122.764 97.4239 122.764 96.9074C122.764 96.3908 122.987 95.9766 123.262 95.9766C123.536 95.9766 123.76 96.3955 123.76 96.9074Z" fill="#263238"/>
<path d="M130.883 97.1307C130.883 97.6472 130.659 98.0614 130.385 98.0614C130.11 98.0614 129.887 97.6426 129.887 97.1307C129.887 96.6188 130.11 96.2 130.385 96.2C130.659 96.2 130.883 96.6141 130.883 97.1307Z" fill="#263238"/>
<path d="M129.445 94.8737C129.445 94.8737 131.772 92.5469 133.722 95.1436" stroke="#263238" stroke-width="2.20621" stroke-linecap="round" stroke-linejoin="round"/>
<path d="M124.546 94.9202C124.546 94.9202 123.075 93.2728 120.758 94.9202" stroke="#263238" stroke-width="2.20621" stroke-linecap="round" stroke-linejoin="round"/>
<path d="M120.255 105.921C120.255 105.921 121.674 109.831 124.843 110.943C128.013 112.055 132.22 106.289 132.22 106.289L132.001 105.54C132.001 105.54 129.241 109.123 126.174 108.514C123.108 107.904 120.078 103.744 120.078 103.744L120.255 105.921Z" fill="#263238"/>
<path d="M117.411 98.8712C117.411 98.8712 115.522 99.5366 115.019 98.0661C114.517 96.5955 112.795 92.719 114.303 91.4253C115.811 90.1316 117.02 93.1332 117.02 93.1332" stroke="#263238" stroke-width="1.10311" stroke-linecap="round" stroke-linejoin="round"/>
<path d="M135.076 99.6716C135.076 99.6716 136.831 100.025 137.333 98.5547C137.836 97.0842 139.558 93.2077 138.05 91.9139C136.542 90.6202 135.332 93.6218 135.332 93.6218" stroke="#263238" stroke-width="1.10311" stroke-linecap="round" stroke-linejoin="round"/>
<path d="M117.02 96.9073C117.677 96.8039 118.269 96.4544 118.677 95.9301C118.926 95.4698 119.084 94.9657 119.142 94.4455C119.315 93.4559 119.402 92.4532 119.403 91.4486C119.383 91.0561 119.419 90.6627 119.51 90.2805C119.65 89.8959 119.865 89.5431 120.143 89.2427C120.799 88.4702 121.595 87.8187 122.223 87.0183C122.56 86.6406 122.816 86.1981 122.976 85.7181C123.136 85.238 123.197 84.7303 123.154 84.2261C124.594 85.4131 126.276 86.2704 128.082 86.7375C129.889 87.2046 131.776 87.2703 133.611 86.9299C136.938 86.2784 140.126 83.3605 139.74 79.6934C139.667 79.0786 139.403 78.502 138.986 78.0447C138.568 77.5873 138.018 77.2721 137.413 77.1432C135.77 76.7337 134.295 77.6086 132.806 78.1717C130.092 79.1955 127.435 77.4364 124.694 77.1432C122.367 76.8873 119.468 77.1804 118.249 79.5119C118.249 79.5119 114.061 80.0052 112.199 83.4675C110.338 86.9299 113.86 91.7185 113.86 91.7185C113.86 91.7185 115.257 90.0059 117.085 93.4683L117.02 96.9073Z" fill="#263238"/>
<path d="M133.345 85.7618C133.345 85.7618 132.257 91.4393 135.1 94.1896C135.1 94.1896 135.724 92.4817 136.352 92.0629C136.805 91.0553 136.997 89.9499 136.91 88.8486C136.823 87.7473 136.459 86.6857 135.854 85.7618C133.75 82.4577 133.345 85.7618 133.345 85.7618Z" fill="#263238"/>
<path opacity="0.2" d="M138.53 79.3025C138.28 80.0772 137.857 80.7846 137.292 81.3709C136.728 81.9572 136.037 82.4069 135.272 82.6857C131.326 84.2959 127.496 82.5135 123.54 82.1645C120.315 81.876 116.755 84.7892 116.527 88.1026" stroke="white" stroke-width="1.10311" stroke-linecap="round" stroke-linejoin="round"/>
<path opacity="0.2" d="M114.094 87.2277C114.142 85.9202 114.562 84.6534 115.303 83.5755C116.045 82.4976 117.078 81.6531 118.282 81.1407" stroke="white" stroke-width="1.10311" stroke-linecap="round" stroke-linejoin="round"/>
<path d="M119.166 108.951C120.901 110.76 122.995 112.186 125.314 113.139C125.314 113.139 130.037 111.766 132.438 108.486" stroke="#263238" stroke-width="1.10311" stroke-linecap="round" stroke-linejoin="round"/>
<path d="M123.992 100.697C126.09 99.7343 127.01 97.2537 126.048 95.1558C125.086 93.058 122.605 92.1374 120.507 93.0996C118.41 94.0619 117.489 96.5426 118.451 98.6404C119.414 100.738 121.894 101.659 123.992 100.697Z" stroke="#263238" stroke-width="1.10311" stroke-linecap="round" stroke-linejoin="round"/>
<path d="M132.09 101.064C134.381 100.783 136.01 98.6981 135.729 96.4073C135.448 94.1165 133.362 92.4874 131.072 92.7687C128.781 93.05 127.152 95.1351 127.433 97.4259C127.714 99.7167 129.799 101.346 132.09 101.064Z" stroke="#263238" stroke-width="1.10311" stroke-linecap="round" stroke-linejoin="round"/>
<path d="M120.079 107.392C119.655 107.503 119.259 107.699 118.912 107.966C118.566 108.234 118.277 108.569 118.064 108.951C117.324 110.254 117.77 114.354 117.77 114.354C117.77 114.354 121.591 118.133 124.844 119.729L125.803 114.335L127.292 119.729C127.292 119.729 132.327 116.169 133.723 113.158C133.723 113.158 134.189 109.644 133.723 108.504C133.617 108.188 133.416 107.912 133.147 107.714C132.878 107.517 132.554 107.407 132.22 107.401" stroke="#263238" stroke-width="1.10311" stroke-linecap="round" stroke-linejoin="round"/>
<path d="M114.092 143.477C114.092 143.477 112.598 133.471 110.611 129.39" stroke="#263238" stroke-width="1.10311" stroke-linecap="round" stroke-linejoin="round"/>
<path d="M106.316 120.511C107.473 122.155 108.506 123.883 109.406 125.681" stroke="#263238" stroke-width="1.10311" stroke-linecap="round" stroke-linejoin="round"/>
<path d="M145.553 127.98C145.954 126.307 146.504 124.673 147.195 123.098" stroke="#263238" stroke-width="1.10311" stroke-linecap="round" stroke-linejoin="round"/>
<path d="M142.467 143.477C142.467 143.477 143.542 136.617 144.826 130.968" stroke="#263238" stroke-width="1.10311" stroke-linecap="round" stroke-linejoin="round"/>
<path d="M144.291 133.844C145.33 132.466 146.791 131.466 148.451 130.995" stroke="#263238" stroke-width="1.10311" stroke-linecap="round" stroke-linejoin="round"/>
<path d="M133.928 112.246C133.928 112.246 142.598 115.713 148.196 117.681C148.196 117.681 155.083 124.155 162.469 146.59C162.469 146.59 155.702 157.973 142.83 161.621" stroke="#263238" stroke-width="1.10311" stroke-linecap="round" stroke-linejoin="round"/>
<path d="M145.064 151.123L151.286 145.943C151.286 145.943 154.577 143.444 157.997 145.152" stroke="#263238" stroke-width="1.10311" stroke-linecap="round" stroke-linejoin="round"/>
<path d="M144.826 133.225C144.826 133.225 149.968 140.824 151.285 145.943" stroke="#263238" stroke-width="1.10311" stroke-linecap="round" stroke-linejoin="round"/>
<path d="M109.682 147.67L107.863 145.943C107.863 145.943 105.164 145.478 102.102 147.521" stroke="#263238" stroke-width="1.10311" stroke-linecap="round" stroke-linejoin="round"/>
<path d="M107.861 145.943C107.861 145.943 110.123 138.497 112.352 134.686" stroke="#263238" stroke-width="1.10311" stroke-linecap="round" stroke-linejoin="round"/>
<path d="M117.639 113.158C117.639 113.158 105.163 117.84 103.939 119.208C102.715 120.576 98.066 146.753 97.9403 149.75C97.8333 152.43 107.55 158.447 112.367 160.984" stroke="#263238" stroke-width="1.10311" stroke-linecap="round" stroke-linejoin="round"/>
<path d="M126.97 122.005C126.97 122.167 126.921 122.327 126.831 122.462C126.74 122.598 126.612 122.703 126.461 122.766C126.311 122.828 126.145 122.844 125.985 122.812C125.825 122.781 125.679 122.702 125.564 122.587C125.448 122.472 125.37 122.325 125.338 122.165C125.306 122.005 125.323 121.84 125.385 121.689C125.447 121.539 125.553 121.41 125.688 121.32C125.824 121.229 125.983 121.181 126.146 121.181C126.254 121.18 126.362 121.201 126.462 121.242C126.562 121.283 126.653 121.344 126.73 121.421C126.806 121.497 126.867 121.588 126.908 121.689C126.949 121.789 126.97 121.896 126.97 122.005Z" fill="#263238"/>
<path d="M141.406 165.851H113.019C112.842 165.851 112.673 165.781 112.548 165.657C112.424 165.532 112.354 165.362 112.354 165.186C112.354 165.009 112.424 164.84 112.548 164.715C112.673 164.591 112.842 164.521 113.019 164.521H141.406C141.583 164.521 141.752 164.591 141.877 164.715C142.002 164.84 142.072 165.009 142.072 165.186C142.072 165.362 142.002 165.532 141.877 165.657C141.752 165.781 141.583 165.851 141.406 165.851Z" fill="#263238"/>
<path d="M142.402 163.627L146.204 145.757C146.263 145.48 146.259 145.193 146.193 144.918C146.127 144.642 146 144.385 145.822 144.165C145.643 143.945 145.418 143.768 145.162 143.646C144.906 143.525 144.626 143.462 144.343 143.463H111.162C110.881 143.463 110.604 143.525 110.35 143.645C110.096 143.765 109.872 143.94 109.694 144.158C109.516 144.375 109.388 144.629 109.32 144.901C109.252 145.174 109.245 145.458 109.301 145.734L112.712 163.008C112.795 163.432 113.021 163.815 113.352 164.094C113.683 164.372 114.099 164.529 114.531 164.539L140.494 165.135C140.938 165.145 141.371 164.999 141.719 164.724C142.068 164.449 142.309 164.061 142.402 163.627Z" fill="white" stroke="#263238" stroke-width="1.10311" stroke-linecap="round" stroke-linejoin="round"/>
<path d="M130.292 153.775C130.291 154.299 130.135 154.81 129.843 155.245C129.552 155.68 129.138 156.019 128.654 156.218C128.17 156.418 127.638 156.47 127.125 156.367C126.611 156.264 126.14 156.012 125.77 155.641C125.4 155.271 125.148 154.799 125.047 154.285C124.945 153.772 124.998 153.24 125.198 152.756C125.399 152.273 125.738 151.859 126.173 151.568C126.609 151.278 127.121 151.123 127.644 151.123C127.992 151.123 128.337 151.191 128.658 151.325C128.98 151.458 129.272 151.653 129.518 151.9C129.764 152.146 129.959 152.439 130.092 152.76C130.225 153.082 130.293 153.427 130.292 153.775Z" fill="#263238"/>
<path d="M135.5 145.171H139.442" stroke="#263238" stroke-width="1.10311" stroke-linecap="round" stroke-linejoin="round"/>
<path d="M116.676 145.171H131.637" stroke="#263238" stroke-width="1.10311" stroke-linecap="round" stroke-linejoin="round"/>
<path d="M142.467 182.6L139.442 190.539C139.442 190.539 131.726 188.594 121.847 186.57C111.511 184.452 100.719 181.711 95.1206 171.887C94.4411 170.691 93.9851 169.277 94.3062 167.936C95.1113 164.544 99.5276 163.622 102.436 163.283C104.265 163.085 106.102 162.982 107.941 162.975C108.872 162.975 111.967 162.468 112.716 163.022C113.842 163.843 115.043 164.555 116.304 165.149C117.956 165.851 142.071 164.521 142.071 164.521C142.491 163.606 142.748 162.624 142.83 161.621C146.623 159.695 155.395 158.066 159.118 158.787C164.949 159.918 168.351 163.32 167.704 166.885C167.057 170.449 154.176 180.008 142.467 182.6Z" fill="#263238"/>
<path d="M142.467 182.6C142.467 182.6 135.128 180.655 129.134 176.606C123.14 172.557 118.459 167.857 110.105 168.83" stroke="white" stroke-width="1.10311" stroke-linecap="round" stroke-linejoin="round"/>
<path d="M127.76 175.652C131.548 174.563 134.326 172.111 137.365 169.761C140.57 167.188 144.012 164.926 147.645 163.003" stroke="white" stroke-width="1.10311" stroke-linecap="round" stroke-linejoin="round"/>
<path d="M126.426 97.5682H127.538" stroke="#263238" stroke-width="1.10311" stroke-linecap="round" stroke-linejoin="round"/>
</svg>
