<svg width="50" height="50" viewBox="0 0 50 50" fill="none" xmlns="http://www.w3.org/2000/svg">
<g clip-path="url(#clip0_1352_35415)">
<path d="M1.96094 20.6055H18.577V49.9856C18.4291 49.9856 18.272 50.0052 18.115 50.0052C13.7722 50.0052 9.42933 50.0052 5.08651 50.0052C3.20567 50.0052 1.96356 48.7579 1.96225 46.8639C1.96225 38.2725 1.96225 29.6816 1.96225 21.0911L1.96094 20.6055Z" fill="#FF6C37"/>
<path d="M34.8008 49.9856H25.5078V20.6251H42.1095V30.3277C36.3701 30.3435 32.293 32.8617 30.7354 38.4937C29.4632 43.0866 31.1032 46.9202 34.8008 49.9856Z" fill="#FF6C37"/>
<path d="M27.4609 18.6108V9.81128H42.7982C43.7812 9.81128 44.0914 10.1175 44.0927 11.0926C44.0927 13.2313 44.0927 15.3692 44.0927 17.5061C44.0927 18.26 43.7288 18.6252 42.9841 18.6252C37.9074 18.6252 32.8303 18.6252 27.7528 18.6252C27.6691 18.6317 27.5892 18.6199 27.4609 18.6108Z" fill="#FF6C37"/>
<path d="M16.6396 9.81128V18.633H1.31668C0.323249 18.633 0.0078125 18.311 0.0078125 17.3071C0.0078125 15.2339 0.0078125 13.1607 0.0078125 11.0874C0.0078125 10.1503 0.345504 9.81128 1.27218 9.81128H16.6396Z" fill="#FF6C37"/>
<path d="M23.4758 49.9856H20.6133V20.6238H23.4745L23.4758 49.9856Z" fill="#FF6C37"/>
<path d="M21.0344 7.8401C17.6392 7.8401 14.3448 7.88068 11.0517 7.82571C8.89467 7.79037 7.16042 5.74984 7.36853 3.63733C7.59889 1.30363 9.60145 -0.289272 11.909 0.0300918C13.2502 0.188037 14.4923 0.815343 15.4154 1.80099C17.2243 3.73288 19.0318 5.66389 20.8381 7.59403C20.8904 7.65032 20.9323 7.70922 21.0344 7.8401Z" fill="#FF6C37"/>
<path d="M23.1289 7.77854C23.2231 7.66859 23.3108 7.55864 23.4064 7.45785C25.1694 5.5744 26.9194 3.67654 28.7047 1.81402C30.0423 0.418772 31.6863 -0.234352 33.6221 0.112497C35.5579 0.459347 36.8668 2.24203 36.7293 4.30873C36.6063 6.14114 35.0121 7.79163 33.13 7.82958C29.8329 7.89503 26.5333 7.8492 23.2349 7.8492C23.2101 7.84004 23.1852 7.81388 23.1289 7.77854Z" fill="#FF6C37"/>
<path d="M25.4401 18.2848H18.6523V9.8374H25.4441L25.4401 18.2848Z" fill="#FF6C37"/>
<path d="M45.0666 41.1861C45.0646 41.9604 44.833 42.7166 44.4013 43.3594C43.9695 44.0021 43.357 44.5024 42.641 44.7971C41.925 45.0917 41.1377 45.1676 40.3787 45.015C39.6196 44.8624 38.9228 44.4882 38.3763 43.9397C37.8298 43.3912 37.4582 42.693 37.3084 41.9334C37.1586 41.1738 37.2373 40.3868 37.5346 39.6719C37.8319 38.957 38.3345 38.3463 38.9788 37.9169C39.623 37.4875 40.3802 37.2588 41.1544 37.2595C41.6696 37.2588 42.1798 37.36 42.6557 37.5573C43.1316 37.7545 43.5638 38.044 43.9274 38.4089C44.291 38.7739 44.5789 39.2071 44.7744 39.6838C44.9699 40.1604 45.0692 40.671 45.0666 41.1861Z" fill="#FF6C37"/>
<path d="M22.0561 6.02732L18.0195 1.72246C19.6687 -0.270942 23.6909 -0.789252 26.1175 1.69105L22.0561 6.02732Z" fill="#FF6C37"/>
<path d="M42.1523 35.2727V32.4351C43.8421 32.5908 45.2936 33.2387 46.5567 34.1955L44.5057 36.2543L42.1523 35.2727Z" fill="#FF6C37"/>
<path d="M42.1641 49.9267V47.0733L44.5449 46.0864L46.5762 48.1335C45.3058 49.1384 43.7753 49.7604 42.1641 49.9267Z" fill="#FF6C37"/>
<path d="M36.2477 37.8197C35.9441 38.5461 35.6129 39.3366 35.2635 40.1756H32.4141C32.5831 38.5648 33.2053 37.035 34.2085 35.7634L36.2477 37.8197Z" fill="#FF6C37"/>
<path d="M36.2661 44.5931L34.2426 46.6297C33.2234 45.3494 32.588 43.8063 32.4102 42.1796H35.2753L36.2661 44.5931Z" fill="#FF6C37"/>
<path d="M48.1017 35.7451C49.1118 37.0216 49.7406 38.5574 49.9158 40.1756H47.0546C46.7117 39.3524 46.3832 38.5618 46.0586 37.7804C46.7065 37.1364 47.3976 36.448 48.1017 35.7451Z" fill="#FF6C37"/>
<path d="M49.9106 42.1899C49.7335 43.8041 49.1058 45.3358 48.0991 46.61L46.0586 44.5747C46.378 43.8077 46.7026 43.0302 47.052 42.1899H49.9106Z" fill="#FF6C37"/>
<path d="M40.1557 32.4246V35.2805L37.7697 36.2766L35.7344 34.2374C37.0067 33.2265 38.54 32.5978 40.1557 32.4246Z" fill="#FF6C37"/>
<path d="M40.1452 49.9254C38.5388 49.7516 37.0134 49.1308 35.7422 48.1335C36.445 47.4333 37.1335 46.7461 37.7958 46.0878L40.1518 47.072L40.1452 49.9254Z" fill="#FF6C37"/>
</g>
<defs>
<clipPath id="clip0_1352_35415">
<rect width="49.9136" height="50" fill="white"/>
</clipPath>
</defs>
</svg>
