<svg width="357" height="201" viewBox="0 0 357 201" fill="none" xmlns="http://www.w3.org/2000/svg">
<path d="M66.8085 166.95C66.6218 158.899 65.2434 150.793 61.9428 143.445C58.6422 136.097 53.3096 129.534 46.335 125.503C41.3923 122.631 34.5715 121.302 30.2164 125.047C28.7996 126.348 27.7069 127.961 27.0257 129.759C25.1214 134.457 25.0743 139.703 26.8939 144.434C28.4261 148.366 31.172 151.699 34.1321 154.703C42.0513 162.732 52.5078 169.086 63.788 169.037" fill="#D6E3FF"/>
<path d="M65.3665 183.107C60.4192 177.625 53.6846 174.078 46.3647 173.101C43.8 172.761 38.127 171.865 36.6002 174.65C35.1339 177.341 38.6322 181.438 40.4445 182.937C42.4994 184.762 44.8338 186.245 47.3587 187.331C50.3859 188.479 53.6747 188.756 56.8513 188.129C60.0278 187.502 62.9647 185.996 65.328 183.783" fill="#D6E3FF"/>
<path d="M253.328 168.384C249.297 156.889 247.742 144.148 251.329 132.5C254.915 120.852 264.306 110.598 276.245 108.155C277.863 107.743 279.555 107.711 281.188 108.061C282.805 108.572 284.265 109.489 285.427 110.725C291.15 116.343 292.726 125.251 291.007 133.087C289.288 140.924 284.714 147.844 279.557 153.984C273.878 160.744 266.717 167.164 257.941 168.103" fill="#D6E3FF"/>
<path d="M258.941 181.471C260.589 178.867 263.335 177.176 266.031 175.699C271.49 172.711 277.306 170.207 283.468 169.317C286.818 168.85 290.882 169.229 292.573 172.151C293.974 174.584 293.046 177.731 291.475 180.059C290.182 181.97 288.512 183.597 286.567 184.84C284.623 186.083 282.445 186.915 280.167 187.286C277.284 187.737 274.335 187.429 271.446 187.034C267.432 186.485 263.34 185.732 259.842 183.689" fill="#D6E3FF"/>
<path d="M273.526 122.197C264.119 133.775 255.401 145.896 247.418 158.498C245.177 162.042 242.997 165.621 240.877 169.235C240.838 169.322 240.833 169.421 240.863 169.513C240.892 169.604 240.955 169.682 241.038 169.73C241.121 169.778 241.219 169.794 241.313 169.775C241.407 169.755 241.49 169.702 241.547 169.625C249.043 156.864 257.28 144.554 266.217 132.758C268.78 129.375 271.401 126.038 274.081 122.746C274.394 122.362 273.845 121.807 273.532 122.197H273.526Z" fill="white"/>
<path d="M283.051 178.631C272.198 180.865 261.126 181.845 250.05 181.553C249.947 181.553 249.847 181.594 249.774 181.667C249.701 181.74 249.66 181.839 249.66 181.943C249.66 182.046 249.701 182.145 249.774 182.219C249.847 182.292 249.947 182.333 250.05 182.333C261.194 182.622 272.335 181.632 283.254 179.384C283.742 179.279 283.539 178.532 283.051 178.631Z" fill="white"/>
<path d="M36.7209 137.948C50.209 146.09 62.6223 155.893 73.67 167.126C76.7454 170.249 79.7055 173.476 82.5503 176.808C82.8743 177.192 83.4235 176.638 83.0994 176.259C72.8673 164.295 61.1819 153.656 48.3141 144.587C44.6529 142.025 40.9185 139.586 37.1108 137.272C36.6824 137.014 36.2925 137.69 36.7209 137.948Z" fill="white"/>
<path d="M44.6982 179.713C53.2338 182.592 62.084 184.436 71.0591 185.205C73.6219 185.418 76.1738 185.546 78.7147 185.59C78.8094 185.578 78.8967 185.533 78.9601 185.461C79.0234 185.39 79.0584 185.298 79.0584 185.202C79.0584 185.107 79.0234 185.015 78.9601 184.944C78.8967 184.872 78.8094 184.827 78.7147 184.815C69.7773 184.663 60.8904 183.441 52.244 181.174C49.7727 180.526 47.3252 179.794 44.9014 178.977C44.4291 178.813 44.2259 179.565 44.6982 179.724V179.713Z" fill="white"/>
<path d="M67.2929 200L262.555 199.61L240.681 69.6293C240.267 67.2025 239.007 65.0006 237.126 63.4127C235.245 61.8248 232.862 60.9533 230.4 60.9521L56.2378 61.3036C54.7272 61.3059 53.2352 61.6371 51.8656 62.2743C50.496 62.9114 49.2816 63.8393 48.3068 64.9933C47.3321 66.1473 46.6204 67.4998 46.2213 68.9567C45.8221 70.4136 45.7451 71.9399 45.9955 73.4296L67.2929 200Z" fill="white"/>
<path d="M81.5127 105.441C79.0469 103.497 75.8836 103.497 74.4612 105.441C73.0388 107.386 73.8791 110.554 76.3504 112.498C78.8217 114.443 81.9795 114.448 83.4074 112.498C84.8353 110.549 83.984 107.391 81.5127 105.441Z" fill="#FF6C37"/>
<path d="M90.0234 109.187H196.247" stroke="#206BC7" stroke-width="1.13304" stroke-miterlimit="10"/>
<path d="M92.526 154.999C94.1136 153.184 93.4797 150.032 91.1102 147.959C88.7406 145.886 85.5327 145.677 83.945 147.492C82.3574 149.307 82.9912 152.459 85.3608 154.531C87.7303 156.604 90.9383 156.814 92.526 154.999Z" fill="#FF6C37"/>
<path d="M99.3281 151.48H205.551" stroke="#206BC7" stroke-width="1.13304" stroke-miterlimit="10"/>
<path d="M46.1603 74.7037L45.9955 73.4296C45.7451 71.9399 45.8221 70.4136 46.2213 68.9567C46.6204 67.4998 47.3321 66.1473 48.3068 64.9933C49.2816 63.8393 50.496 62.9114 51.8656 62.2743C53.2352 61.6371 54.7272 61.3059 56.2378 61.3036L230.4 60.9521C232.862 60.9533 235.245 61.8248 237.126 63.4127C239.007 65.0006 240.267 67.2025 240.681 69.6293L241.582 74.9618C242.043 74.149 46.1603 74.7037 46.1603 74.7037Z" fill="#206BC7"/>
<path d="M62.2604 67.0811C60.9808 66.0651 59.3388 66.0651 58.5974 67.0811C57.856 68.0971 58.3008 69.7282 59.5804 70.7387C60.86 71.7491 62.5021 71.7491 63.2435 70.7387C63.9849 69.7282 63.54 68.0916 62.2604 67.0811Z" fill="white"/>
<path d="M70.7214 67.0811C69.4418 66.0651 67.7997 66.0651 67.0583 67.0811C66.3169 68.0971 66.7617 69.7282 68.0413 70.7387C69.3209 71.7491 70.963 71.7491 71.7044 70.7387C72.4458 69.7282 72.001 68.0916 70.7214 67.0811Z" fill="#FFB701"/>
<path d="M79.2253 67.0811C77.9457 66.0651 76.3036 66.0651 75.5622 67.0811C74.8208 68.0971 75.2656 69.7282 76.5452 70.7387C77.8248 71.7491 79.4669 71.7491 80.2083 70.7387C80.9497 69.7282 80.5049 68.0916 79.2253 67.0811Z" fill="#8FC6C6"/>
<path d="M191.851 54.3512C195.528 54.3512 198.508 51.3711 198.508 47.695C198.508 44.019 195.528 41.0389 191.851 41.0389C188.175 41.0389 185.195 44.019 185.195 47.695C185.195 51.3711 188.175 54.3512 191.851 54.3512Z" fill="#206BC7" stroke="#206BC7" stroke-width="2.43053" stroke-miterlimit="10"/>
<path d="M179.233 70.0083L196.016 42.0714C196.993 39.7538 194.264 32.7792 192.495 30.9833C187.663 26.0407 180.671 23.5803 173.785 23.1025C169.968 22.8389 162.653 26.9908 160.483 31.7961C158.078 37.1122 156.639 42.3459 150.049 44.9326C135.891 50.4574 138.758 65.9499 138.758 65.9499" fill="#000400"/>
<path d="M176.863 26.5239C178.118 25.6034 179.504 24.8776 180.976 24.3711C179.591 23.9718 178.183 23.6618 176.758 23.443C176.511 23.5254 176.259 23.6078 176.011 23.7066C169.196 26.4141 164.479 35.8271 166.176 42.928C166.983 42.928 168.845 43.285 169.624 43.1367C169.745 37.1451 171.92 30.1156 176.863 26.5239Z" fill="#206BC7"/>
<path d="M170.719 43.5652C170.7 43.6409 170.666 43.7121 170.619 43.7746C170.572 43.837 170.513 43.8895 170.445 43.9289C170.378 43.9682 170.303 43.9937 170.226 44.0039C170.148 44.0141 170.07 44.0087 169.994 43.988C168.654 43.6036 165.65 42.4503 164.228 45.8278C162.805 49.2053 165.606 52.1819 167.6 52.8628C168.176 53.0551 169.494 53.5548 169.796 54.0985C170.648 55.7461 168.259 69.0088 165.952 73.4902C165.782 82.0574 178.583 93.766 178.583 93.766C178.583 93.766 181.95 89.0211 184.652 78.6635C184.652 78.6635 185.492 59.9913 185.618 59.9034C187.711 58.7281 195.987 59.3542 195.8 44.7404C195.63 31.1811 186.195 29.4896 183.718 29.2479C181.703 29.0447 174.723 27.551 170.719 43.5652Z" fill="#FFB4A5"/>
<path d="M190.555 29.8354C190.555 29.8354 182.724 47.8267 170.324 43.9824C170.324 43.9824 167.424 20.8068 190.555 29.8354Z" fill="#000400"/>
<path d="M165.477 47.2774C165.477 47.2774 168.827 43.4332 169.821 50.1222L165.477 47.2774Z" fill="#FF8164"/>
<path d="M182.351 46.8437C182.976 47.0049 183.538 47.3476 183.968 47.8284C184.398 48.3092 184.675 48.9066 184.766 49.5451C184.856 50.1836 184.755 50.8346 184.476 51.4158C184.196 51.9969 183.751 52.4823 183.196 52.8104C182.641 53.1386 182.001 53.2949 181.357 53.2595C180.713 53.2241 180.094 52.9987 179.578 52.6118C179.062 52.2248 178.673 51.6936 178.458 51.0854C178.244 50.4771 178.215 49.819 178.375 49.1942C178.481 48.7785 178.669 48.3879 178.926 48.0447C179.184 47.7015 179.506 47.4124 179.876 47.1941C180.245 46.9758 180.654 46.8324 181.078 46.7723C181.503 46.7122 181.936 46.7364 182.351 46.8437Z" fill="#FF9E87"/>
<path d="M195.111 51.6986C194.515 51.4085 194.021 50.9441 193.696 50.3668C193.37 49.7896 193.227 49.1269 193.287 48.4667C193.346 47.8065 193.605 47.18 194.029 46.6704C194.453 46.1609 195.022 45.7923 195.66 45.6136C195.66 45.6136 196.05 49.4744 195.111 51.6986Z" fill="#FF9E87"/>
<path d="M192.925 49.3369L187.461 50.3749C187.461 50.3749 189.328 52.7364 190.855 52.1597C192.382 51.5831 192.925 49.3369 192.925 49.3369Z" fill="white"/>
<path d="M190.231 44.8282L190.027 48.4584L191.895 48.1947C191.974 48.1837 192.049 48.1523 192.112 48.1035C192.175 48.0548 192.225 47.9905 192.256 47.9169C192.287 47.8433 192.298 47.7629 192.289 47.6835C192.279 47.6042 192.249 47.5287 192.202 47.4643L190.231 44.8282Z" fill="#FF8164"/>
<path d="M184.451 41.8188C183.869 42.2801 184.682 40.325 185.495 40.0504C185.85 39.9023 186.249 39.9006 186.605 40.0457C186.961 40.1908 187.245 40.4709 187.395 40.8247C186.328 40.8011 185.286 41.1529 184.451 41.8188Z" fill="black"/>
<path d="M194.442 40.9399C195.074 41.3244 194.025 39.4846 193.179 39.2924C192.809 39.1911 192.413 39.2405 192.079 39.4298C191.744 39.6191 191.498 39.933 191.395 40.3029C192.454 40.1514 193.533 40.3768 194.442 40.9399Z" fill="black"/>
<path d="M186.503 45.1083C186.574 45.7453 186.882 46.2067 187.189 46.2067C187.497 46.2067 187.689 45.6575 187.623 44.993C187.557 44.3285 187.244 43.8671 186.937 43.8946C186.629 43.9221 186.431 44.4712 186.503 45.1083Z" fill="black"/>
<path d="M191.535 44.246C191.601 44.8556 191.892 45.3444 192.188 45.2895C192.485 45.2346 192.672 44.7403 192.6 44.1252C192.529 43.5101 192.243 43.0269 191.947 43.0818C191.65 43.1367 191.463 43.6364 191.535 44.246Z" fill="black"/>
<path d="M186.175 59.6233C184.194 59.975 182.157 59.8336 180.244 59.2114C177.311 58.1679 183.089 65.6808 186.175 59.6233Z" fill="#FF8164"/>
<path d="M167.975 199.978C168.931 195.953 169.677 192.806 170.172 190.757C170.842 187.94 175.191 188.561 174.856 191.438C174.609 193.509 174.411 196.419 174.247 199.978H207.296C205.171 171.053 200.459 145.197 191.332 130.111C179.14 128.43 164.262 130.627 151.9 130.995C145.755 141.863 142.504 149.827 138.967 163.65C137.83 168.109 134.963 181.85 131.383 199.978H167.975Z" fill="black"/>
<g style="mix-blend-mode:multiply" opacity="0.21">
<path d="M191.154 135.592L135.906 175.896C135.906 175.896 140.184 152.133 149.087 135.394L191.154 135.592Z" fill="black"/>
</g>
<path d="M248.941 107.215C248.941 107.215 238.182 117.15 220.795 129.82L220.768 129.88L220.68 129.836C219.62 130.007 215.473 132.126 214.595 132.033C214.595 132.033 203.82 136.251 196.384 111.548C195.285 109.352 179.667 82.6779 179.414 82.3703C179.414 82.3703 181.259 76.8181 181.402 76.6973C191.249 68.2508 201.898 102.196 211.574 113.729C211.769 113.964 212.035 114.129 212.332 114.202C212.628 114.274 212.941 114.249 213.222 114.13C214.414 113.635 216.056 112.828 216.056 112.828L226.188 107.836L243.982 96.2537C243.982 96.2537 245.36 90.1138 245.843 89.4219C246.739 89.1473 250.396 89.01 250.396 89.01C250.396 89.01 261.638 79.5201 261.638 81.8376C261.638 83.2161 255.597 90.0424 255.597 90.0424C255.597 90.0424 258.7 93.8373 258.892 96.3196C259.084 98.8019 248.941 107.215 248.941 107.215Z" fill="#FF9E87"/>
<g style="mix-blend-mode:multiply">
<path d="M245.762 89.68C246.981 89.6031 248.195 89.5592 249.403 89.5592C250.012 89.5592 250.616 89.5592 251.221 89.5592H252.132C252.471 89.5416 252.81 89.5787 253.137 89.669C253.347 89.7561 253.519 89.916 253.621 90.1193C253.713 90.3026 253.755 90.5075 253.741 90.7125C253.707 91.0917 253.535 91.4452 253.258 91.7065C252.757 92.1239 252.161 92.4107 251.523 92.5412C250.347 92.8598 249.163 93.1399 247.969 93.3815C249.093 92.9092 250.225 92.4772 251.363 92.0854C251.908 91.932 252.413 91.6601 252.841 91.2891C253.007 91.127 253.11 90.9108 253.132 90.6795C253.145 90.592 253.13 90.5026 253.088 90.4244C253.047 90.3463 252.981 90.2836 252.901 90.2457C252.643 90.1805 252.376 90.1528 252.11 90.1633L251.204 90.1248C250.6 90.0864 249.996 90.0644 249.386 90.015C248.178 89.9528 246.97 89.8411 245.762 89.68Z" fill="#D18478"/>
<path d="M255.06 90.0314C254.714 90.4158 254.362 90.7947 254.044 91.2011C253.725 91.6075 253.412 92.0084 253.116 92.4203C252.533 93.2525 252.019 94.1304 251.578 95.0454L251.457 94.6445C251.653 94.7359 251.869 94.7781 252.085 94.7676C252.301 94.7571 252.512 94.6941 252.698 94.5841C253.157 94.3593 253.595 94.0927 254.005 93.7878C254.439 93.4912 254.884 93.2002 255.334 92.9146C255.785 92.629 256.235 92.3654 256.702 92.0908C256.317 92.4643 255.911 92.8048 255.516 93.1892C255.12 93.5736 254.708 93.8757 254.296 94.2107C253.882 94.5726 253.429 94.8875 252.945 95.1498C252.677 95.2855 252.387 95.3729 252.089 95.4079C251.761 95.4409 251.431 95.3718 251.144 95.2102L250.902 95.0564L251.023 94.7983C251.486 93.8491 252.063 92.9602 252.742 92.1512C253.083 91.7483 253.449 91.3685 253.84 91.0144C254.223 90.6579 254.63 90.3294 255.06 90.0314Z" fill="#D18478"/>
<path d="M252.968 94.9741C252.9 95.2692 252.874 95.5724 252.891 95.8748C252.905 95.9894 252.946 96.0991 253.011 96.1946C253.076 96.2902 253.163 96.3688 253.264 96.424C253.429 96.4899 253.632 96.424 253.902 96.2592C254.171 96.0944 254.451 95.9626 254.698 95.8089C255.247 95.5123 255.758 95.1938 256.285 94.8753C256.812 94.5567 257.328 94.2217 257.883 93.9087C257.096 94.9049 256.117 95.7339 255.005 96.3471C254.731 96.5008 254.456 96.6491 254.165 96.7809C254.004 96.8593 253.835 96.9183 253.66 96.9567C253.443 97.0026 253.217 96.9632 253.028 96.8468C252.869 96.737 252.743 96.5847 252.665 96.4071C252.587 96.2295 252.561 96.0336 252.589 95.8418C252.648 95.5277 252.778 95.2311 252.968 94.9741Z" fill="#D18478"/>
<path d="M258.281 96.281C258.129 96.651 257.861 96.9615 257.517 97.1652C257.173 97.378 256.784 97.5077 256.381 97.5441C255.978 97.576 255.573 97.512 255.2 97.3574C254.829 97.2142 254.515 96.9539 254.305 96.616C254.638 96.7449 254.984 96.837 255.337 96.8906C255.666 96.9426 256 96.9536 256.331 96.9235C256.663 96.8972 256.991 96.8327 257.309 96.7313C257.648 96.6158 257.973 96.4648 258.281 96.281Z" fill="#D18478"/>
</g>
<path d="M180.211 76.5491C181.815 75.2026 183.806 74.4005 185.895 74.2584C187.985 74.1163 190.065 74.6415 191.837 75.7582C198.378 79.6025 210.57 106.123 214.387 111.356L229.907 101.839C229.907 101.839 238.326 115.058 241.494 117.562C241.494 117.562 217.654 139.019 208.801 134.944C199.949 130.869 180.211 76.5491 180.211 76.5491Z" fill="#FF6C37"/>
<path opacity="0.93" d="M199.493 102.091C196.373 92.3874 190.783 83.8421 183.841 76.4501C183.426 76.0226 183.142 75.4852 183.023 74.9014C182 75.2904 181.05 75.8472 180.211 76.5489C180.211 76.5489 193.106 112.048 202.727 127.804C202.98 119.105 202.167 110.434 199.493 102.091Z" fill="#FF6C37"/>
<path d="M184.931 73.1441C184.58 74.0063 198.26 100.054 197.837 108.517C197.414 116.98 195.931 132.423 196.382 133.703C196.382 133.703 185.458 137.811 149.059 132.083C149.344 124.74 151.459 78.4822 151.459 78.4822C151.459 78.4822 163.365 71.1671 166.446 70.9364C166.446 70.9364 168.642 73.8581 171.795 74.6763C174.035 75.2667 176.334 75.6056 178.649 75.6868C182.52 75.7637 183.278 75.2145 184.931 73.1441Z" fill="#FF6C37"/>
<g opacity="0.93">
<path d="M175.692 129.43C150.43 117.287 156.619 90.7674 152.693 77.7407L151.462 78.4821C151.462 78.4821 149.348 124.74 149.062 132.082C174.594 136.102 187.588 135.279 193.074 134.433C190.422 133.098 178.411 130.753 175.692 129.43Z" fill="#FF6C37"/>
</g>
<path d="M173.181 51.8459C174.599 48.4541 172.998 44.5555 169.606 43.138C166.215 41.7206 162.316 43.3212 160.899 46.713C159.481 50.1048 161.082 54.0034 164.473 55.4209C167.865 56.8383 171.764 55.2377 173.181 51.8459Z" fill="#206BC7" stroke="#206BC7" stroke-width="2.43053" stroke-miterlimit="10"/>
<path d="M170.59 50.0619L174.39 54.1643C175.108 54.9372 176.009 55.5165 177.011 55.8486C178.012 56.1808 179.081 56.255 180.118 56.0645L190.492 54.1588" stroke="#206BC7" stroke-width="1.13304" stroke-miterlimit="10"/>
<path d="M190.541 52.788L188.718 53.161C188.177 53.2717 187.828 53.7998 187.939 54.3406L187.985 54.5665C188.095 55.1074 188.624 55.4561 189.164 55.3455L190.988 54.9724C191.529 54.8618 191.878 54.3337 191.767 53.7929L191.721 53.5669C191.61 53.0261 191.082 52.6773 190.541 52.788Z" fill="#206BC7"/>
<path d="M167.029 53.6425C169.447 53.6425 171.406 51.6829 171.406 49.2655C171.406 46.8482 169.447 44.8885 167.029 44.8885C164.612 44.8885 162.652 46.8482 162.652 49.2655C162.652 51.6829 164.612 53.6425 167.029 53.6425Z" stroke="#000400" stroke-width="1.13304" stroke-miterlimit="10"/>
<path d="M158.665 77.5267C151.619 71.7877 135.023 93.1729 135.023 93.1729L121.073 109.605L98.0077 89.4495C97.6781 87.4395 97.0521 84.018 96.4095 82.4309C95.723 80.7394 95.9647 78.0374 96.1459 76.659C96.1629 76.5615 96.1532 76.4613 96.1178 76.3689C96.0825 76.2765 96.0229 76.1953 95.9452 76.134C95.8676 76.0727 95.7748 76.0335 95.6768 76.0205C95.5787 76.0076 95.4789 76.0213 95.388 76.0604C94.9293 76.2407 94.5324 76.5495 94.245 76.95C93.9576 77.3504 93.792 77.8252 93.768 78.3175C93.6361 79.7838 92.9057 81.9366 92.8508 83.1009C92.8513 83.1618 92.8359 83.2217 92.8062 83.2748C92.7766 83.328 92.7336 83.3725 92.6816 83.404C92.6296 83.4356 92.5702 83.4531 92.5094 83.4548C92.4486 83.4566 92.3883 83.4425 92.3346 83.4139C91.1319 82.9362 90.5992 82.2332 89.0065 80.9261C87.6901 79.7218 86.5197 78.367 85.5192 76.8896C84.0035 74.6215 81.944 71.4802 81.2411 72.606C80.7413 73.4133 83.4378 78.0979 83.9156 78.7569C84.7916 80.0986 85.5277 81.5266 86.1123 83.0185C86.2332 83.4744 82.7788 80.1957 81.285 78.1583C79.7912 76.1208 78.4073 73.957 77.6055 74.0394C76.8037 74.1218 77.9515 76.2032 77.9515 76.2032C77.9515 76.2032 76.4357 74.9785 76.0238 75.4837C75.7492 75.8242 77.3199 79.1743 78.4897 81.382C76.3478 79.8497 76.3369 81.014 76.3369 81.014C76.3369 81.014 79.632 86.2203 81.1862 87.1923C82.4218 87.9777 84.0749 90.1195 84.3494 90.5533C84.624 90.9872 88.9022 95.2873 92.9881 97.2863C96.4809 101.976 124.187 138.936 127.625 135.806C153.316 112.422 168.688 85.6876 158.665 77.5267Z" fill="#FF9E87"/>
<g style="mix-blend-mode:multiply">
<path d="M78.3945 81.1787L79.6137 82.3485C80.0078 82.7127 80.4301 83.0451 80.8768 83.3425C81.3162 83.6391 81.805 83.8917 82.2882 84.2377C82.7716 84.5634 83.2255 84.931 83.6447 85.336H83.0022C83.4964 84.9406 83.9962 84.5507 84.5179 84.1882C85.0457 83.821 85.5959 83.4871 86.1655 83.1887C85.8014 83.7172 85.4014 84.22 84.9683 84.6935C84.5454 85.1658 84.1005 85.6161 83.6447 86.0555L83.3427 86.352L83.0022 86.05C82.5958 85.693 82.1619 85.38 81.7281 85.0559C81.2942 84.7319 80.8109 84.4299 80.3551 84.0455C79.9041 83.6623 79.5102 83.2166 79.1854 82.7219C78.8664 82.2378 78.6012 81.7204 78.3945 81.1787Z" fill="#D18478"/>
<path d="M93.0917 84.0179C93.1796 84.5397 93.24 85.012 93.2949 85.4952C93.3498 85.9785 93.3882 86.4398 93.4212 86.9067L93.5914 89.7844C93.1939 89.4289 92.8982 88.9739 92.7347 88.4663C92.558 87.9842 92.4507 87.4794 92.4162 86.9671C92.3812 86.4581 92.4126 85.9467 92.5096 85.4458C92.5994 84.9338 92.7979 84.4469 93.0917 84.0179Z" fill="#D18478"/>
<path d="M78.0352 76.4777C78.4922 77.1448 78.9853 77.7865 79.5125 78.3998C80.0616 78.9984 80.5614 79.586 81.1161 80.1627C81.6708 80.7393 82.2144 81.3379 82.7636 81.9695C83.3171 82.5913 83.7912 83.2793 84.175 84.018C83.4886 83.5347 82.846 83.0514 82.2144 82.5297C81.5751 82.0088 80.9698 81.4474 80.4021 80.8492C79.8304 80.2373 79.3242 79.5673 78.8919 78.8501C78.4404 78.1294 78.1483 77.3205 78.0352 76.4777Z" fill="#D18478"/>
</g>
<path d="M158.667 77.5266C151.621 71.7876 135.025 93.1729 135.025 93.1729L121.075 109.604L108.549 98.6592C106.319 102.158 100.915 108.72 98.8555 112.323C108.389 124.515 125.249 137.937 127.589 135.806C153.318 112.422 168.69 85.6875 158.667 77.5266Z" fill="#FF6C37"/>
<path d="M34.8477 199.682H303.431" stroke="#206BC7" stroke-width="1.13304" stroke-miterlimit="10"/>
<path d="M217.949 46.2945L223.002 41.2365H242.113C243.038 41.2365 243.954 41.0542 244.809 40.7001C245.663 40.3459 246.44 39.8268 247.094 39.1725C247.747 38.5181 248.266 37.7413 248.619 36.8865C248.973 36.0316 249.155 35.1155 249.154 34.1905V32.6638C249.156 31.7378 248.975 30.8205 248.623 29.9644C248.27 29.1083 247.752 28.3302 247.098 27.6747C246.444 27.0192 245.667 26.4991 244.811 26.1443C243.956 25.7894 243.039 25.6067 242.113 25.6068H224.968C223.104 25.6126 221.319 26.3569 220.004 27.6766C218.688 28.9964 217.949 30.7838 217.949 32.6473V46.2945Z" fill="#FF6C37"/>
<path d="M239.008 33.2184C239.008 33.5662 239.111 33.9062 239.304 34.1953C239.498 34.4844 239.773 34.7097 240.094 34.8425C240.415 34.9754 240.769 35.0099 241.11 34.9416C241.451 34.8734 241.764 34.7054 242.01 34.4591C242.255 34.2128 242.422 33.8991 242.489 33.5579C242.557 33.2166 242.521 32.8631 242.387 32.5421C242.253 32.221 242.027 31.947 241.738 31.7545C241.448 31.5621 241.108 31.4599 240.76 31.461C240.295 31.4625 239.849 31.6483 239.521 31.9777C239.192 32.3071 239.008 32.7533 239.008 33.2184Z" fill="white"/>
<path d="M232.562 33.2186C232.563 33.5661 232.666 33.9059 232.859 34.1949C233.052 34.4839 233.326 34.7092 233.647 34.8422C233.968 34.9752 234.322 35.01 234.663 34.9422C235.004 34.8744 235.317 34.707 235.563 34.4612C235.808 34.2155 235.976 33.9023 236.044 33.5614C236.111 33.2205 236.077 32.8672 235.944 32.546C235.811 32.2249 235.585 31.9505 235.296 31.7574C235.007 31.5643 234.667 31.4612 234.32 31.4612C233.854 31.4612 233.407 31.6463 233.077 31.9759C232.748 32.3055 232.563 32.7525 232.562 33.2186Z" fill="white"/>
<path d="M226.121 33.2186C226.121 33.5661 226.224 33.9059 226.417 34.1949C226.61 34.4839 226.885 34.7092 227.206 34.8422C227.527 34.9752 227.88 35.01 228.221 34.9422C228.562 34.8744 228.875 34.707 229.121 34.4612C229.367 34.2155 229.534 33.9023 229.602 33.5614C229.67 33.2205 229.635 32.8672 229.502 32.546C229.369 32.2249 229.144 31.9505 228.855 31.7574C228.566 31.5643 228.226 31.4612 227.878 31.4612C227.412 31.4612 226.965 31.6463 226.636 31.9759C226.306 32.3055 226.121 32.7525 226.121 33.2186Z" fill="white"/>
<g style="mix-blend-mode:multiply">
<path d="M246.858 29.0776C248.866 29.0776 250.494 27.4499 250.494 25.442C250.494 23.4341 248.866 21.8064 246.858 21.8064C244.85 21.8064 243.223 23.4341 243.223 25.442C243.223 27.4499 244.85 29.0776 246.858 29.0776Z" fill="#206BC7"/>
</g>
<path d="M213.727 24.6237L208.652 19.5493H189.546C188.621 19.55 187.704 19.3682 186.849 19.0144C185.994 18.6606 185.217 18.1416 184.562 17.4871C183.908 16.8327 183.389 16.0557 183.035 15.2005C182.681 14.3453 182.499 13.4287 182.5 12.5032V10.9765C182.5 10.0515 182.682 9.1355 183.036 8.28094C183.391 7.42639 183.91 6.65 184.564 5.99616C185.218 5.34231 185.995 4.82382 186.85 4.47033C187.705 4.11683 188.621 3.93525 189.546 3.93598H206.686C208.553 3.93598 210.344 4.67774 211.664 5.9981C212.985 7.31846 213.727 9.10925 213.727 10.9765V24.6237Z" fill="#FF6C37"/>
<path d="M192.648 11.5478C192.648 11.8954 192.545 12.2351 192.351 12.5241C192.158 12.8131 191.884 13.0384 191.563 13.1714C191.242 13.3044 190.888 13.3392 190.547 13.2714C190.206 13.2036 189.893 13.0362 189.648 12.7905C189.402 12.5447 189.234 12.2315 189.167 11.8906C189.099 11.5497 189.134 11.1964 189.267 10.8753C189.4 10.5542 189.625 10.2797 189.914 10.0866C190.203 9.89348 190.543 9.79041 190.89 9.79041C191.356 9.79041 191.803 9.97556 192.133 10.3051C192.462 10.6347 192.648 11.0817 192.648 11.5478Z" fill="white"/>
<path d="M199.089 11.5478C199.089 11.8954 198.986 12.2351 198.793 12.5241C198.6 12.8131 198.325 13.0384 198.004 13.1714C197.683 13.3044 197.33 13.3392 196.989 13.2714C196.648 13.2036 196.335 13.0362 196.089 12.7905C195.843 12.5447 195.676 12.2315 195.608 11.8906C195.54 11.5497 195.575 11.1964 195.708 10.8753C195.841 10.5542 196.066 10.2797 196.355 10.0866C196.644 9.89348 196.984 9.79041 197.332 9.79041C197.798 9.79041 198.245 9.97556 198.574 10.3051C198.904 10.6347 199.089 11.0817 199.089 11.5478Z" fill="white"/>
<path d="M205.534 11.5478C205.534 11.8954 205.431 12.2351 205.238 12.5241C205.045 12.8131 204.771 13.0384 204.449 13.1714C204.128 13.3044 203.775 13.3392 203.434 13.2714C203.093 13.2036 202.78 13.0362 202.534 12.7905C202.288 12.5447 202.121 12.2315 202.053 11.8906C201.985 11.5497 202.02 11.1964 202.153 10.8753C202.286 10.5542 202.512 10.2797 202.801 10.0866C203.09 9.89348 203.429 9.79041 203.777 9.79041C204.243 9.79185 204.689 9.97747 205.018 10.3067C205.347 10.636 205.533 11.0822 205.534 11.5478Z" fill="white"/>
<path opacity="0.51" d="M254.465 90.4434L271.1 75.8351H333.734C346.481 75.8351 356.8 66.7516 356.8 55.5428V51.1493C356.8 39.9405 346.464 30.857 333.734 30.857H277.553C264.801 30.857 254.487 39.9405 254.487 51.1493L254.465 90.4434Z" fill="#D6E3FF"/>
<path d="M296.608 43.6584H270.852V62.6602H296.608V43.6584Z" fill="#407BFF"/>
<path d="M270.844 43.3399L281.937 54.417C282.412 54.8902 283.055 55.1559 283.725 55.1559C284.395 55.1559 285.038 54.8902 285.512 54.417L296.677 43.2521L270.844 43.3399Z" fill="#7AA3FF"/>
<path opacity="0.73" d="M294.477 58.6786H287.926C287.883 58.6786 287.841 58.6702 287.802 58.6539C287.762 58.6377 287.727 58.6138 287.696 58.5837C287.666 58.5536 287.643 58.5179 287.626 58.4786C287.61 58.4393 287.602 58.3971 287.602 58.3546C287.602 58.3123 287.61 58.2704 287.626 58.2314C287.643 58.1924 287.667 58.157 287.697 58.1274C287.727 58.0977 287.763 58.0744 287.802 58.0587C287.841 58.043 287.883 58.0353 287.926 58.0361H294.477C294.52 58.0353 294.562 58.043 294.601 58.0587C294.64 58.0744 294.676 58.0977 294.706 58.1274C294.736 58.157 294.76 58.1924 294.777 58.2314C294.793 58.2704 294.801 58.3123 294.801 58.3546C294.801 58.3971 294.793 58.4393 294.777 58.4786C294.76 58.5179 294.737 58.5536 294.706 58.5837C294.676 58.6138 294.641 58.6377 294.601 58.6539C294.562 58.6702 294.52 58.6786 294.477 58.6786Z" fill="white"/>
<path d="M279.63 56.8553H273.072C272.988 56.8553 272.907 56.8218 272.847 56.762C272.788 56.7023 272.754 56.6213 272.754 56.5368C272.753 56.4945 272.761 56.4525 272.777 56.4132C272.792 56.3739 272.816 56.3382 272.845 56.308C272.875 56.2778 272.91 56.2539 272.949 56.2375C272.988 56.2212 273.03 56.2128 273.072 56.2128H279.63C279.672 56.2128 279.714 56.2212 279.753 56.2375C279.792 56.2539 279.827 56.2778 279.857 56.308C279.887 56.3382 279.91 56.3739 279.926 56.4132C279.941 56.4525 279.949 56.4945 279.948 56.5368C279.948 56.5786 279.94 56.62 279.924 56.6587C279.908 56.6973 279.885 56.7324 279.855 56.762C279.825 56.7916 279.79 56.8151 279.752 56.8311C279.713 56.8471 279.672 56.8553 279.63 56.8553Z" fill="white"/>
<path d="M279.63 58.5632H273.072C272.987 58.5618 272.906 58.527 272.847 58.4664C272.787 58.4058 272.754 58.3242 272.754 58.2392C272.754 58.1974 272.762 58.1559 272.778 58.1173C272.794 58.0786 272.818 58.0435 272.847 58.0139C272.877 57.9844 272.912 57.9609 272.951 57.9449C272.989 57.9289 273.031 57.9207 273.072 57.9207H279.63C279.672 57.9207 279.713 57.9289 279.752 57.9449C279.79 57.9609 279.825 57.9844 279.855 58.0139C279.884 58.0435 279.908 58.0786 279.924 58.1173C279.94 58.1559 279.948 58.1974 279.948 58.2392C279.948 58.3242 279.915 58.4058 279.855 58.4664C279.796 58.527 279.715 58.5618 279.63 58.5632Z" fill="white"/>
<path d="M342.199 49.0458H303.295C302.783 49.0444 302.293 48.8401 301.931 48.4777C301.57 48.1153 301.367 47.6244 301.367 47.1127C301.367 46.6009 301.57 46.1101 301.931 45.7477C302.293 45.3853 302.783 45.181 303.295 45.1796H342.199C342.711 45.181 343.201 45.3853 343.562 45.7477C343.924 46.1101 344.127 46.6009 344.127 47.1127C344.127 47.6244 343.924 48.1153 343.562 48.4777C343.201 48.8401 342.711 49.0444 342.199 49.0458Z" fill="white"/>
<path d="M323.895 55.3121H302.433C302.293 55.3128 302.154 55.2858 302.024 55.2325C301.894 55.1792 301.777 55.1008 301.678 55.0017C301.579 54.9026 301.5 54.7849 301.447 54.6553C301.394 54.5257 301.366 54.3868 301.367 54.2467C301.367 53.9641 301.479 53.6931 301.679 53.4933C301.879 53.2935 302.15 53.1813 302.433 53.1813H323.895C324.035 53.1813 324.173 53.2088 324.302 53.2624C324.432 53.3159 324.549 53.3944 324.648 53.4933C324.747 53.5923 324.825 53.7097 324.879 53.839C324.933 53.9682 324.96 54.1068 324.96 54.2467C324.96 54.3866 324.933 54.5251 324.879 54.6544C324.825 54.7837 324.747 54.9011 324.648 55.0001C324.549 55.099 324.432 55.1775 324.302 55.231C324.173 55.2846 324.035 55.3121 323.895 55.3121Z" fill="white"/>
<path d="M323.895 60.0022H302.433C302.293 60.0029 302.154 59.9758 302.024 59.9226C301.894 59.8693 301.777 59.7908 301.678 59.6917C301.579 59.5927 301.5 59.4749 301.447 59.3453C301.394 59.2157 301.366 59.0769 301.367 58.9368C301.367 58.6542 301.479 58.3832 301.679 58.1834C301.879 57.9836 302.15 57.8713 302.433 57.8713H323.895C324.035 57.8713 324.173 57.8989 324.302 57.9524C324.432 58.006 324.549 58.0845 324.648 58.1834C324.747 58.2823 324.825 58.3998 324.879 58.529C324.933 58.6583 324.96 58.7968 324.96 58.9368C324.96 59.0767 324.933 59.2152 324.879 59.3445C324.825 59.4737 324.747 59.5912 324.648 59.6901C324.549 59.7891 324.432 59.8675 324.302 59.9211C324.173 59.9746 324.035 60.0022 323.895 60.0022Z" fill="white"/>
<path d="M287.847 159.679H230.281L225.492 140.09H283.058L287.847 159.679Z" fill="#407BFF"/>
<path d="M249.261 157.387C248.53 157.387 247.818 157.271 247.126 157.038C246.44 156.797 245.809 156.461 245.23 156.032C244.659 155.594 244.167 155.088 243.754 154.516C243.348 153.934 243.053 153.299 242.868 152.61C242.684 151.921 242.64 151.291 242.736 150.718C242.84 150.136 243.061 149.631 243.4 149.202C243.745 148.763 244.197 148.428 244.755 148.195C245.311 147.954 245.959 147.833 246.7 147.833C247.432 147.833 248.141 147.954 248.826 148.195C249.509 148.428 250.135 148.759 250.704 149.188C251.282 149.618 251.774 150.123 252.18 150.705C252.595 151.286 252.895 151.921 253.079 152.61C253.264 153.299 253.305 153.934 253.201 154.516C253.107 155.097 252.886 155.603 252.538 156.032C252.199 156.461 251.752 156.797 251.196 157.038C250.638 157.271 249.993 157.387 249.261 157.387ZM249.024 156.502C249.607 156.502 250.119 156.408 250.56 156.22C251.007 156.023 251.365 155.75 251.633 155.401C251.907 155.043 252.084 154.632 252.163 154.167C252.24 153.693 252.202 153.174 252.051 152.61C251.9 152.046 251.661 151.532 251.332 151.067C251.001 150.593 250.604 150.181 250.14 149.832C249.683 149.474 249.179 149.202 248.628 149.014C248.085 148.817 247.521 148.719 246.938 148.719C246.354 148.719 245.839 148.817 245.391 149.014C244.942 149.202 244.579 149.474 244.305 149.832C244.037 150.181 243.86 150.593 243.774 151.067C243.695 151.532 243.731 152.046 243.882 152.61C244.031 153.165 244.271 153.679 244.602 154.153C244.942 154.627 245.34 155.043 245.798 155.401C246.262 155.75 246.77 156.023 247.323 156.22C247.873 156.408 248.44 156.502 249.024 156.502ZM256.643 157.307L254.125 147.913H254.972L263.869 156.072H263.425L261.238 147.913H262.252L264.77 157.307H263.923L255.039 149.148H255.484L257.671 157.307H256.643ZM249.39 173.727L246.872 164.334H247.9L250.188 172.868H255.634L255.864 173.727H249.39ZM257.571 173.727L255.053 164.334H256.081L258.599 173.727H257.571ZM261.763 173.727L259.245 164.334H260.093L268.99 172.493H268.545L266.358 164.334H267.373L269.89 173.727H269.043L260.16 165.568H260.604L262.791 173.727H261.763ZM253.316 184.954H258.456L258.683 185.8H253.543L253.316 184.954ZM254.589 189.289H260.438L260.668 190.147H253.791L251.273 180.754H257.942L258.172 181.613H252.532L254.589 189.289Z" fill="white"/>
<path d="M224.06 169.129C224.999 168.056 224.624 166.192 223.222 164.966C221.82 163.739 219.923 163.615 218.985 164.688C218.046 165.761 218.421 167.625 219.823 168.851C221.225 170.077 223.122 170.201 224.06 169.129Z" fill="#206BC7"/>
<g style="mix-blend-mode:multiply">
<path d="M224.897 157.054C225.754 160.256 229.049 162.853 232.25 162.853C235.452 162.853 237.352 160.256 236.496 157.054C235.639 153.852 232.344 151.249 229.142 151.249C225.94 151.249 224.04 153.847 224.897 157.054Z" fill="#206BC7"/>
</g>
<path d="M226.863 160.547L223.436 159.448C223.107 159.344 222.997 158.899 223.277 158.822L229.62 156.675C229.683 156.662 229.748 156.663 229.811 156.678C229.873 156.693 229.931 156.722 229.981 156.763C230.031 156.803 230.071 156.854 230.099 156.912C230.127 156.97 230.142 157.033 230.142 157.098L229.67 164.023C229.67 164.325 229.219 164.32 229.044 164.023L227.127 160.728C227.062 160.64 226.969 160.576 226.863 160.547Z" fill="#8FC6C6"/>
<path d="M101.292 54.0546C101.206 51.4178 100.097 48.918 98.2015 47.0835C96.3056 45.2489 93.7707 44.2233 91.1326 44.2233C88.4944 44.2233 85.9595 45.2489 84.0637 47.0835C82.1678 48.918 81.0594 51.4178 80.9727 54.0546C80.9727 59.6672 90.6438 68.4761 90.6438 68.4761C90.6438 68.4761 101.292 59.6672 101.292 54.0546Z" fill="#FFB701"/>
<path opacity="0.55" d="M84.3006 46.5417C83.8493 47.6372 83.6197 48.8113 83.6251 49.9961C83.6251 54.3237 86.7499 59.0247 91.1489 59.9199C95.3666 60.7821 100.002 57.8824 101.254 53.8239C101.251 53.7965 101.251 53.7689 101.254 53.7415C101.198 51.8008 100.586 49.917 99.4903 48.3138C98.3951 46.7106 96.8628 45.4554 95.0754 44.6973C93.2879 43.9392 91.3205 43.71 89.4066 44.0369C87.4928 44.3639 85.713 45.2332 84.2786 46.5417H84.3006Z" fill="#FFE25E"/>
<path d="M89.4441 65.9113C88.7809 65.7533 88.1309 65.5439 87.5 65.2853C89.2464 67.1855 90.6578 68.476 90.6578 68.476C90.6578 68.476 91.7122 67.6083 93.1511 66.2463C91.906 66.3028 90.6589 66.1901 89.4441 65.9113Z" fill="#FFE25E"/>
<path d="M88.1766 63.8904C88.1766 63.8904 89.4836 53.2362 88.0118 53.8897C86.54 54.5433 85.7162 56.1853 87.3528 56.5148C88.9893 56.8443 95.5521 56.5148 95.5521 56.5148C95.5521 56.5148 96.1342 54.6476 95.0578 54.2192C93.4103 53.5602 93.4103 59.7934 93.0917 64.2144" stroke="white" stroke-width="0.492768" stroke-miterlimit="10"/>
<path d="M94.7338 66.186H86.5345C86.2306 66.1845 85.9394 66.0631 85.7245 65.8482C85.5096 65.6332 85.3882 65.3421 85.3867 65.0382C85.3867 64.8874 85.4164 64.7382 85.4741 64.5989C85.5318 64.4597 85.6163 64.3331 85.7229 64.2266C85.8295 64.12 85.956 64.0354 86.0953 63.9777C86.2345 63.9201 86.3838 63.8904 86.5345 63.8904H94.7338C94.8846 63.8904 95.0338 63.9201 95.1731 63.9777C95.3123 64.0354 95.4389 64.12 95.5454 64.2266C95.652 64.3331 95.7366 64.4597 95.7943 64.5989C95.8519 64.7382 95.8816 64.8874 95.8816 65.0382C95.8802 65.3421 95.7588 65.6332 95.5438 65.8482C95.3289 66.0631 95.0378 66.1845 94.7338 66.186Z" fill="#E1E8F0"/>
<path d="M90.7973 71.4416C89.5369 71.4402 88.3286 70.9385 87.4379 70.0467C86.5472 69.155 86.0469 67.9461 86.0469 66.6857V65.8674H95.5532V66.6857C95.5532 67.9471 95.0522 69.1568 94.1603 70.0487C93.2684 70.9406 92.0587 71.4416 90.7973 71.4416Z" fill="#E1E8F0"/>
<g style="mix-blend-mode:multiply">
<path d="M92.7803 70.9913C93.6025 70.6093 94.2982 69.9998 94.7848 69.2348C95.2714 68.4698 95.5287 67.5814 95.5262 66.6747V65.8564H86.6953C88.709 67.5845 90.7373 69.2962 92.7803 70.9913Z" fill="#E1E8F0"/>
</g>
<path d="M72.8008 54.115H77.4194" stroke="#FFB701" stroke-width="1.26476" stroke-miterlimit="10" stroke-linecap="round"/>
<path d="M105.145 54.1149H109.763" stroke="#FFB701" stroke-width="1.26476" stroke-miterlimit="10" stroke-linecap="round"/>
<path d="M78.2148 41.0498L81.4825 44.3174" stroke="#FFB701" stroke-width="1.26476" stroke-miterlimit="10" stroke-linecap="round"/>
<path d="M91.2812 35.6403V40.259" stroke="#FFB701" stroke-width="1.26476" stroke-miterlimit="10" stroke-linecap="round"/>
<path d="M104.346 41.0498L101.078 44.3174" stroke="#FFB701" stroke-width="1.26476" stroke-miterlimit="10" stroke-linecap="round"/>
<g style="mix-blend-mode:multiply">
<g style="mix-blend-mode:multiply">
<path d="M81.2032 9.93303L78.3859 5.90752C78.0055 5.36721 77.4367 4.98873 76.7914 4.84646C76.1461 4.70419 75.471 4.80841 74.8986 5.13866C71.2101 7.2377 67.8926 9.92996 65.0792 13.1073C64.6392 13.5955 64.3958 14.2295 64.3958 14.8867C64.3958 15.5439 64.6392 16.1778 65.0792 16.666L68.4622 20.3126C68.8491 20.7247 69.0907 21.252 69.1502 21.8142C69.2097 22.3763 69.0838 22.9425 68.7917 23.4265C67.7618 25.1106 66.9026 26.8933 66.227 28.7481C66.0414 29.2228 65.72 29.6324 65.3029 29.9254C64.8858 30.2184 64.3915 30.382 63.882 30.3956L58.2034 30.6153C57.5916 30.6399 57.0074 30.8763 56.5506 31.284C56.0938 31.6917 55.7928 32.2454 55.6991 32.8505C55.0078 37.1568 55.0394 41.5482 55.7925 45.8442C55.8985 46.4733 56.2291 47.0427 56.7229 47.4466C57.2167 47.8506 57.8403 48.0617 58.478 48.0409L63.7282 47.8597C64.2687 47.8356 64.8031 47.9816 65.2563 48.2772C65.7095 48.5727 66.0586 49.0029 66.2544 49.5072C66.605 50.4421 67.0027 51.3586 67.4462 52.2531C67.8635 53.1025 68.3175 53.9263 68.8081 54.7245C69.0802 55.1746 69.2086 55.6969 69.1762 56.2218C69.1439 56.7468 68.9522 57.2494 68.6269 57.6626L65.2769 62.0011C64.8977 62.4957 64.7047 63.108 64.7318 63.7306C64.7589 64.3532 65.0044 64.9464 65.4252 65.4061C68.3653 68.6195 71.8191 71.3217 75.6455 73.4022C76.1988 73.7036 76.8416 73.7973 77.4579 73.6664C78.0742 73.5354 78.6235 73.1885 79.0065 72.6883L82.2631 68.4266C82.588 67.9984 83.0373 67.681 83.5494 67.5178C84.0616 67.3546 84.6117 67.3536 85.1244 67.515C87.1219 68.1608 89.1816 68.5952 91.2698 68.811C91.8432 68.8701 92.3808 69.1179 92.7983 69.5154C93.2157 69.913 93.4894 70.4379 93.5763 71.0078L94.3177 75.8131C94.422 76.4685 94.7692 77.0607 95.2902 77.4718C95.8112 77.8829 96.4679 78.0828 97.1296 78.0318C101.442 77.7251 105.673 76.6967 109.645 74.9893C110.201 74.7592 110.661 74.3478 110.953 73.8222C111.244 73.2966 111.348 72.6878 111.249 72.0951L110.217 66.2738C110.126 65.7875 110.176 65.2853 110.362 64.8268C110.548 64.3684 110.862 63.9728 111.266 63.6871C112.843 62.611 114.315 61.3863 115.659 60.0296C116.057 59.6256 116.577 59.3633 117.138 59.2829C117.7 59.2026 118.272 59.3086 118.767 59.5847L123.106 61.9792C123.68 62.2954 124.352 62.3862 124.99 62.2338C125.627 62.0815 126.185 61.697 126.555 61.1554C128.989 57.5932 130.824 53.6566 131.986 49.5017C132.155 48.9078 132.11 48.2736 131.86 47.709C131.611 47.1444 131.172 46.6848 130.619 46.4098L125.599 43.9824C125.133 43.7572 124.744 43.397 124.485 42.9485C124.226 42.5 124.107 41.984 124.144 41.4672C124.3 39.5299 124.267 37.5821 124.045 35.6513C123.986 35.1039 124.103 34.5519 124.379 34.0751C124.654 33.5984 125.074 33.2214 125.577 32.9988L130.284 30.8954C130.87 30.6319 131.34 30.1633 131.605 29.5777C131.87 28.9921 131.912 28.3299 131.723 27.7156C131.107 25.6874 130.326 23.7129 129.389 21.8119C128.433 19.8742 127.322 18.0174 126.066 16.2596C125.689 15.7342 125.133 15.3652 124.502 15.2225C123.872 15.0798 123.211 15.1733 122.645 15.4853L118.174 17.9511C117.688 18.2203 117.128 18.3271 116.577 18.2559C116.026 18.1848 115.512 17.9395 115.11 17.5557C113.589 16.0893 111.915 14.7896 110.118 13.6785C109.643 13.3804 109.276 12.9379 109.072 12.4159C108.867 11.894 108.835 11.3201 108.981 10.7788L110.31 5.84711C110.479 5.22137 110.411 4.55528 110.119 3.97658C109.827 3.39787 109.332 2.9473 108.728 2.71127C104.746 1.13742 100.533 0.222951 96.2564 0.00379107C95.6088 -0.030927 94.9711 0.173759 94.4648 0.578856C93.9584 0.983953 93.6187 1.56116 93.5104 2.20053L92.6372 7.24753C92.5462 7.79217 92.2843 8.29375 91.8894 8.67976C91.4945 9.06576 90.9871 9.31618 90.4405 9.39483C88.3271 9.66758 86.2499 10.1703 84.2457 10.8941C83.7036 11.0923 83.1112 11.1054 82.5608 10.9316C82.0105 10.7577 81.5331 10.4066 81.2032 9.93303ZM101.161 20.2357C123.974 31.8674 113.429 62.8579 88.2547 58.1679C87.9812 58.1173 87.7165 58.0266 87.4694 57.8987C64.6673 46.2615 75.2061 15.2876 100.37 19.9666C100.644 20.0111 100.91 20.0943 101.161 20.2138V20.2357Z" fill="#E1E8F0"/>
</g>
<g style="mix-blend-mode:multiply">
<path d="M20.936 46.3659L18.6623 43.1202C18.3562 42.6837 17.8972 42.3781 17.3764 42.2642C16.8556 42.1503 16.3109 42.2363 15.8505 42.5051C12.8779 44.1936 10.2056 46.3629 7.94227 48.9251C7.58569 49.3173 7.38811 49.8283 7.38811 50.3584C7.38811 50.8885 7.58569 51.3996 7.94227 51.7918L10.6882 54.7299C10.9993 55.0624 11.1939 55.4871 11.2424 55.9398C11.291 56.3926 11.1909 56.8488 10.9573 57.2397C10.1226 58.6054 9.42709 60.0516 8.88137 61.5563C8.73401 61.9413 8.47596 62.274 8.13974 62.5124C7.80352 62.7509 7.40421 62.8845 6.99218 62.8963L2.41748 63.072C1.92758 63.0917 1.45934 63.2792 1.09135 63.6032C0.723363 63.9272 0.478016 64.3679 0.396483 64.8514C-0.156823 68.3208 -0.130842 71.8579 0.473369 75.3188C0.560577 75.8243 0.827662 76.2812 1.22534 76.6052C1.62303 76.9292 2.12447 77.0985 2.63715 77.0817L6.87136 76.9334C7.30767 76.9161 7.73842 77.0361 8.10294 77.2765C8.46747 77.5169 8.74741 77.8656 8.90334 78.2734C9.18477 79.0311 9.50556 79.7735 9.86441 80.4976C10.1955 81.1809 10.5621 81.8463 10.9628 82.4912C11.1824 82.8547 11.2859 83.2767 11.2594 83.7006C11.233 84.1245 11.0777 84.5303 10.8145 84.8636L8.11252 88.3455C7.80529 88.7438 7.64889 89.238 7.67101 89.7405C7.69312 90.2431 7.89231 90.7216 8.23333 91.0914C10.6038 93.6783 13.3877 95.8534 16.4711 97.5278C16.9143 97.7754 17.4316 97.8562 17.9292 97.7554C18.4269 97.6547 18.872 97.3791 19.1841 96.9786L21.8037 93.5462C22.065 93.2003 22.427 92.9438 22.8401 92.812C23.2531 92.6802 23.6969 92.6796 24.1102 92.8103C25.7168 93.3299 27.3734 93.6796 29.0529 93.8538C29.5154 93.9028 29.9487 94.1033 30.2854 94.4241C30.6221 94.7449 30.8433 95.1681 30.9146 95.6276L31.5077 99.4994C31.5917 100.029 31.8715 100.507 32.2916 100.84C32.7117 101.172 33.2415 101.335 33.7759 101.295C37.2518 101.04 40.6601 100.202 43.8589 98.8184C44.3052 98.6328 44.6756 98.3018 44.9099 97.879C45.1442 97.4563 45.2286 96.9667 45.1495 96.4899L44.3202 91.7943C44.2474 91.4034 44.2878 90.9998 44.4367 90.6311C44.5855 90.2623 44.8366 89.9438 45.1604 89.7129C46.4275 88.8474 47.6066 87.8596 48.6807 86.7638C49.0028 86.4387 49.4225 86.2278 49.8756 86.1634C50.3287 86.0989 50.7905 86.1844 51.1905 86.4069L54.6833 88.3345C55.1468 88.5904 55.6891 88.6642 56.2041 88.5413C56.7191 88.4184 57.1697 88.1077 57.4677 87.67C59.4372 84.8017 60.9215 81.629 61.8611 78.2789C61.9977 77.8013 61.9626 77.2908 61.7619 76.8364C61.5613 76.3819 61.2077 76.0121 60.7628 75.7911L56.7208 73.7976C56.3456 73.6169 56.0334 73.3276 55.8248 72.9672C55.6162 72.6067 55.5208 72.1919 55.551 71.7766C55.6744 70.2142 55.6469 68.6436 55.4686 67.0866C55.4215 66.6455 55.5159 66.2008 55.738 65.8168C55.9601 65.4328 56.2985 65.1294 56.7043 64.9502L60.4937 63.2533C60.9669 63.0426 61.3466 62.666 61.5611 62.1945C61.7756 61.723 61.8101 61.1892 61.6579 60.6941C61.1611 59.0581 60.5311 57.4657 59.7742 55.9326C59.0058 54.3722 58.1114 52.8772 57.0997 51.4623C56.7973 51.0408 56.3511 50.7445 55.8453 50.6291C55.3395 50.5138 54.809 50.5875 54.3538 50.8362L50.7511 52.8243C50.3589 53.0424 49.907 53.1287 49.462 53.0704C49.017 53.012 48.6025 52.8122 48.2798 52.5002C47.0512 51.3228 45.704 50.2756 44.2598 49.3754C43.8759 49.137 43.5793 48.781 43.4141 48.3605C43.2488 47.94 43.2238 47.4773 43.3427 47.0414L44.4081 43.0927C44.5431 42.5879 44.4879 42.0511 44.253 41.5843C44.0181 41.1175 43.6198 40.7533 43.134 40.561C39.9247 39.2903 36.5307 38.5484 33.0839 38.3643C32.5665 38.3391 32.0577 38.5039 31.6532 38.8275C31.2486 39.1511 30.9762 39.6113 30.8872 40.1216L30.1293 44.2076C30.0547 44.6493 29.8406 45.0555 29.5185 45.3668C29.1963 45.6781 28.783 45.8781 28.339 45.9375C26.6367 46.159 24.9632 46.5622 23.3469 47.1402C22.9156 47.2923 22.4464 47.299 22.011 47.1591C21.5756 47.0193 21.198 46.7407 20.936 46.3659ZM37.0161 54.6695C55.3972 64.0441 46.9014 89.0155 26.6145 85.2371C26.395 85.1956 26.1824 85.1235 25.983 85.0229C7.60726 75.6428 16.0976 50.6825 36.379 54.4553C36.6005 54.4959 36.815 54.5681 37.0161 54.6695Z" fill="#E1E8F0"/>
</g>
</g>
<path d="M23.4314 169.221C26.9462 168.208 28.9741 164.537 27.961 161.023C26.9478 157.508 23.2772 155.48 19.7625 156.493C16.2477 157.506 14.2198 161.177 15.2329 164.692C16.2461 168.206 19.9167 170.234 23.4314 169.221Z" fill="#407BFF"/>
<path d="M15.7555 147.07C15.7555 146.426 15.5645 145.796 15.2067 145.26C14.8488 144.725 14.3402 144.307 13.7451 144.061C13.15 143.815 12.4952 143.75 11.8635 143.876C11.2318 144.001 10.6515 144.312 10.196 144.767C9.74059 145.222 9.43042 145.803 9.30477 146.434C9.17911 147.066 9.2436 147.721 9.49009 148.316C9.73658 148.911 10.154 149.42 10.6895 149.778C11.2251 150.135 11.8547 150.326 12.4988 150.326C13.3621 150.325 14.1896 149.981 14.8001 149.371C15.4105 148.761 15.7541 147.933 15.7555 147.07Z" fill="#407BFF"/>
<path d="M47.2633 27.1115C47.2633 26.4674 47.0723 25.8378 46.7145 25.3022C46.3566 24.7667 45.848 24.3492 45.2529 24.1028C44.6579 23.8563 44.003 23.7918 43.3713 23.9174C42.7396 24.0431 42.1593 24.3533 41.7039 24.8087C41.2484 25.2642 40.9382 25.8444 40.8126 26.4762C40.6869 27.1079 40.7514 27.7627 40.9979 28.3578C41.2444 28.9529 41.6618 29.4615 42.1974 29.8193C42.7329 30.1772 43.3626 30.3682 44.0067 30.3682C44.8704 30.3682 45.6987 30.0251 46.3095 29.4143C46.9202 28.8036 47.2633 27.9752 47.2633 27.1115Z" fill="#407BFF"/>
<path d="M305.447 190.219C305.447 189.575 305.256 188.945 304.898 188.41C304.54 187.874 304.032 187.457 303.437 187.21C302.841 186.964 302.187 186.899 301.555 187.025C300.923 187.151 300.343 187.461 299.887 187.916C299.432 188.372 299.122 188.952 298.996 189.584C298.871 190.216 298.935 190.87 299.181 191.465C299.428 192.061 299.845 192.569 300.381 192.927C300.917 193.285 301.546 193.476 302.19 193.476C303.054 193.476 303.882 193.133 304.493 192.522C305.104 191.911 305.447 191.083 305.447 190.219Z" fill="#407BFF"/>
<path d="M279.787 88.362C279.788 87.7177 279.598 87.0875 279.241 86.5512C278.883 86.0149 278.375 85.5967 277.78 85.3493C277.185 85.102 276.53 85.0367 275.898 85.1618C275.266 85.2868 274.685 85.5965 274.229 86.0518C273.773 86.507 273.463 87.0873 273.336 87.7192C273.21 88.351 273.274 89.0061 273.521 89.6015C273.767 90.1969 274.185 90.7059 274.72 91.0639C275.256 91.422 275.886 91.6132 276.53 91.6132C276.958 91.6139 277.381 91.5303 277.776 91.3673C278.171 91.2042 278.53 90.9648 278.833 90.6629C279.135 90.3609 279.375 90.0023 279.539 89.6074C279.702 89.2126 279.787 88.7894 279.787 88.362Z" fill="#407BFF"/>
<path d="M143.272 41.8351C146.378 41.8351 148.896 39.3173 148.896 36.2114C148.896 33.1056 146.378 30.5878 143.272 30.5878C140.166 30.5878 137.648 33.1056 137.648 36.2114C137.648 39.3173 140.166 41.8351 143.272 41.8351Z" fill="#407BFF"/>
</svg>
