<svg width="300" height="200" viewBox="0 0 300 200" fill="none" xmlns="http://www.w3.org/2000/svg">
<g clip-path="url(#clip0_1195_16274)">
<path d="M295.231 171.894C273.636 173.728 259.076 214.226 205.09 189.877C205.09 189.877 211.022 172.207 237.576 161.191C264.13 150.174 295.231 171.894 295.231 171.894Z" fill="#CDDCF4"/>
<path d="M212.465 186.846C218.114 183.928 223.943 181.371 229.915 179.189C231.404 178.62 232.91 178.108 234.42 177.622C235.93 177.136 237.446 176.639 238.967 176.169C240.488 175.698 242.029 175.285 243.566 174.867C244.334 174.664 245.102 174.444 245.876 174.251L248.201 173.692L250.532 173.169L252.879 172.709L255.225 172.244C256.009 172.098 256.793 171.977 257.588 171.857C259.155 171.627 260.723 171.361 262.328 171.209C263.932 171.058 265.495 170.817 267.094 170.754C273.453 170.228 279.851 170.465 286.154 171.46C279.84 171.329 273.526 171.661 267.261 172.453L266.09 172.584L264.92 172.766L262.589 173.106C261.021 173.305 259.485 173.629 257.938 173.895C257.164 174.047 256.37 174.157 255.612 174.319L253.302 174.799L250.992 175.28L248.698 175.829L246.393 176.352C245.63 176.535 244.872 176.738 244.109 176.932L241.82 177.528C241.057 177.721 240.305 177.956 239.542 178.155C238.021 178.573 236.5 178.98 234.995 179.451C233.49 179.921 231.964 180.339 230.464 180.82C224.433 182.675 218.459 184.745 212.465 186.846Z" fill="#B0BDD1"/>
<path d="M297.877 103.008C271.527 121.822 283.715 184.964 195.779 194.905C195.779 194.905 189.91 167.676 215.639 133.236C241.367 98.7954 297.877 103.008 297.877 103.008Z" fill="#DBE9FF"/>
<path d="M201.629 187.3C205.514 178.99 210.164 171.059 215.52 163.61C220.852 156.105 226.795 149.054 233.289 142.528C239.76 135.964 246.838 130.029 254.429 124.801C262.017 119.611 270.207 115.148 278.94 112.368C270.931 116.63 263.318 121.597 256.19 127.21C249.094 132.793 242.35 138.81 235.996 145.225C229.632 151.644 223.593 158.379 217.903 165.403C212.191 172.448 206.839 179.775 201.629 187.3Z" fill="#CDDCF4"/>
<path d="M13.625 166.296C35.0523 169.646 46.7066 211.048 102.276 190.582C102.276 190.582 97.6042 172.536 71.8915 159.675C46.1788 146.813 13.625 166.296 13.625 166.296Z" fill="#CDDCF4"/>
<path d="M95.1312 187.013C89.2988 184.494 83.4873 182.012 77.6026 179.696C76.1393 179.111 74.6551 178.573 73.1813 178.008C71.7075 177.444 70.2233 176.921 68.7338 176.399C67.9917 176.148 67.2548 175.876 66.5075 175.61L64.2707 174.857C63.5234 174.611 62.776 174.334 62.0287 174.115L59.7657 173.43L57.5185 172.719L55.2451 172.077L52.9717 171.434C52.2192 171.22 51.4457 171.058 50.6879 170.854C49.1619 170.462 47.6463 170.044 46.1046 169.735L43.7998 169.213L42.6501 168.951L41.4899 168.737C35.2943 167.504 29.0164 166.728 22.707 166.417C29.0649 165.868 35.4656 166.083 41.7721 167.06C43.3399 167.227 44.9078 167.582 46.4756 167.843C48.0435 168.105 49.6113 168.486 51.1792 168.826C51.9579 169.004 52.747 169.176 53.5048 169.38L55.8148 170.002L58.1247 170.629L60.4138 171.329L62.6924 172.051C63.4502 172.296 64.1975 172.573 64.9501 172.824C66.4552 173.347 67.9708 173.869 69.4446 174.449C70.9184 175.029 72.4183 175.594 73.8816 176.221C75.3449 176.848 76.8187 177.444 78.2611 178.118C84.0687 180.72 89.7036 183.691 95.1312 187.013Z" fill="#B0BDD1"/>
<path d="M27.8594 100.107C51.5862 119.737 35.7979 178.782 118.528 194.094C118.528 194.094 125.918 168.664 103.832 134.302C81.7463 99.9399 27.8594 100.107 27.8594 100.107Z" fill="#DBE9FF"/>
<path d="M113.484 186.49C109.016 179.022 104.412 171.726 99.4729 164.676C94.5342 157.626 89.2662 150.838 83.6585 144.347C78.0625 137.843 72.0762 131.686 65.7328 125.909C59.3602 120.092 52.4893 114.846 45.1992 110.23C53.3154 113.418 60.7993 118.19 67.6717 123.609C74.537 129.076 80.8666 135.183 86.5747 141.849C92.2914 148.475 97.4448 155.567 101.981 163.051C106.548 170.483 110.4 178.331 113.484 186.49Z" fill="#CDDCF4"/>
<path d="M167.401 155.076C164.433 158.604 161.741 164.452 160.084 165.382C158.428 166.312 155.564 166.631 152.919 175.181C150.275 183.731 163.696 182.576 163.696 182.576C163.696 182.576 169.444 179.273 171.765 171.298L177.514 166.197L167.401 155.076Z" fill="#F6A397"/>
<path d="M156.998 181.656C160.046 180.515 162.796 178.698 165.041 176.341C168.746 172.432 169.222 165.471 169.222 165.471L170.999 168.784L174.547 164.995L176.256 164.828L177.516 166.218L171.767 171.319C169.447 179.294 163.698 182.597 163.698 182.597C161.397 182.762 159.085 182.552 156.852 181.975C156.935 181.782 156.998 181.656 156.998 181.656Z" fill="#D65863"/>
<path d="M187.553 124.383C183.435 127.393 180.979 129.577 178.93 133.67C176.881 137.762 164.056 152.484 163.251 153.785C162.447 155.086 170.464 169.019 176.886 172.432C176.886 172.432 186.591 161.238 192.183 157.01C197.775 152.782 195.842 137.767 193.276 132.718C191.734 129.705 189.811 126.904 187.553 124.383Z" fill="#407BFF"/>
<path d="M187.4 151.47V143.108C187.4 143.108 188.492 142.674 189.339 145.496C189.635 146.583 189.69 147.721 189.501 148.831L195.746 144.127C196.007 149.385 195.161 154.736 192.166 156.999C186.574 161.227 176.869 172.422 176.869 172.422C174.937 171.266 173.21 169.799 171.758 168.079C175.709 164.154 183.203 156.56 187.4 151.47Z" fill="#314EC6"/>
<path d="M147.488 179.294C146.443 179.628 145.633 180.141 145.633 181.484C145.633 182.827 145.863 184.97 146.375 185.801C146.887 186.631 149.511 187.138 149.511 187.138C149.511 187.138 149.333 181.578 148.779 180.559C148.513 179.997 148.055 179.549 147.488 179.294Z" fill="#F6A397"/>
<path d="M146.374 185.801C146.207 185.495 146.084 185.168 146.008 184.828C146.186 185.042 146.412 185.211 146.667 185.322C146.921 185.434 147.199 185.485 147.476 185.471L149.478 186.093C149.509 186.72 149.52 187.138 149.52 187.138C149.52 187.138 146.886 186.637 146.374 185.801Z" fill="#D65863"/>
<path d="M150.042 177.271C148.741 177.413 147.429 178.385 147.429 179.733C147.429 181.081 146.964 184.839 147.429 185.44C147.895 186.041 150.168 187.76 150.957 187.901C151.746 188.043 153.089 187.807 152.906 187.379C152.723 186.95 150.042 177.271 150.042 177.271Z" fill="#F6A397"/>
<path d="M147.242 184.421C148.23 185.534 150.749 185.435 150.749 185.435C151.215 185.914 151.632 186.439 151.993 187.003C152.076 187.232 152.515 187.525 152.594 187.766C152.069 187.934 151.513 187.978 150.968 187.896C150.195 187.76 148 186.109 147.477 185.476L147.242 184.431V184.421Z" fill="#D65863"/>
<path d="M154.907 175.04C150.919 175.265 150.177 175.636 150.041 177.261C149.906 178.886 149.994 183.621 150.501 184.828C151.008 186.036 151.291 187.102 151.944 187.75C152.389 188.154 152.963 188.386 153.564 188.403C153.564 188.403 155.748 185.2 155.843 182.508C155.937 179.817 154.907 175.04 154.907 175.04Z" fill="#F6A397"/>
<path d="M152.616 185.738C153.101 183.786 153.34 181.781 153.326 179.77C153.326 178.385 154.633 185.623 154.058 187.609C153.771 188.1 153.567 188.403 153.567 188.403C152.966 188.386 152.391 188.154 151.947 187.75C151.293 187.102 151.016 186.036 150.504 184.828C150.468 184.736 150.437 184.642 150.41 184.546C150.671 185.226 151.497 185.67 152.616 185.738Z" fill="#D65863"/>
<path d="M163.643 183.203C163.393 185.419 160.508 186.219 160.163 187.332C159.818 188.445 160.069 189.469 159.51 189.746C158.95 190.023 156.635 188.727 156.724 187.243C156.528 187.618 156.251 187.945 155.914 188.202C155.578 188.458 155.188 188.638 154.775 188.727C153.431 188.957 153.107 187.975 153.337 186.496C153.528 185.16 153.575 183.807 153.479 182.461C153.432 180.695 153.013 179.074 153.803 177.125C154.592 175.176 155.658 173.467 157.795 173.78C159.933 174.094 161.229 176.796 162.389 177.726C163.549 178.656 163.926 180.742 163.643 183.203Z" fill="#F6A397"/>
<path d="M156.723 187.243C156.853 184.421 157 182.111 157 181.656C157 181.202 156.853 178.207 157.919 178.029C158.081 177.998 160.423 179.482 160.465 180.486C160.506 181.489 160.465 183.282 159.738 183.794C159.012 184.306 156.723 187.243 156.723 187.243Z" fill="#D65863"/>
<path d="M253.449 130.398C249.216 125.01 247.763 124.487 243.394 121.937C239.025 119.386 222.489 112.927 219.056 112.106C215.622 111.286 201.882 117.693 197.372 119.752C192.862 121.811 187.113 123.813 186.131 125.809C182.854 132.488 189.345 141.953 189.381 161.786C189.381 172.176 191.765 195.537 191.765 195.537C191.765 195.537 243.765 195.631 244.491 194.539C245.218 193.446 247.021 156.147 247.941 148.528C248.86 140.908 253.449 130.398 253.449 130.398Z" fill="#407BFF"/>
<path d="M186.318 136.267C185.949 135.016 185.676 133.739 185.502 132.447C185.304 131.158 185.203 129.857 185.199 128.553C185.57 129.804 185.845 131.081 186.02 132.373C186.214 133.662 186.313 134.964 186.318 136.267Z" fill="#314EC6"/>
<path d="M205.758 128.454C203.751 127.701 198.99 129.008 198.122 129.311C197.255 129.614 198.645 125.893 199.167 125.433C199.69 124.973 200.495 123.897 202.068 124.388C203.641 124.879 204.953 126.672 205.204 127.262C205.357 127.673 205.542 128.072 205.758 128.454Z" fill="#314EC6"/>
<path d="M222.5 131.558C221.784 131.522 217.608 129.598 216.605 129.123C215.601 128.647 211.07 128.423 208.023 129.274C208.023 129.274 213.887 125.313 217.3 125.344C220.713 125.376 222.003 126.609 222.28 127.701C222.463 128.978 222.536 130.269 222.5 131.558Z" fill="#314EC6"/>
<path d="M200.148 187.17C200.707 186.647 234.667 187.719 235.346 184.17C236.026 180.621 236.501 174.167 236.501 174.167C232.414 176.352 226.477 175.442 226.477 175.442C230.434 174.146 236.167 167.655 236.438 165.743C237.28 159.858 234.134 143.631 234.134 143.631L236.438 138.995L239.135 137.495C242.661 139.382 245.862 141.822 248.615 144.723C248.328 145.97 248.103 147.231 247.941 148.501C247.084 155.708 245.417 189.265 244.623 194.006C234.102 194.392 215.037 195.093 202.291 195.526C196.108 195.526 191.77 195.526 191.77 195.526C191.77 195.526 191.692 192.453 191.504 188.048C195.052 187.849 199.803 187.509 200.148 187.17Z" fill="#314EC6"/>
<path d="M207.044 129.442C210.702 128.997 216.597 125.825 218.918 126.917C221.238 128.01 221.782 130.806 222.262 131.281C222.743 131.757 224.787 129.374 224.787 123.505C224.787 117.636 224.964 111.626 220.642 110.81C216.32 109.995 205.131 114.223 202.873 115.932C201.11 117.199 199.777 118.975 199.053 121.022C198.442 122.684 196.801 129.384 197.553 129.442C198.306 129.499 200.417 125.14 201.99 125.005C203.563 124.869 206.051 129.562 207.044 129.442Z" fill="#407BFF"/>
<path d="M204.959 124.184C204.024 121.968 203 120.003 203.036 118.488C203.073 116.972 203.412 115.874 205.127 115.42C206.841 114.965 207.552 115.864 207.651 118.179C207.75 120.494 204.959 124.184 204.959 124.184Z" fill="#314EC6"/>
<path d="M218.34 120.05C221.904 116.815 222.307 113.199 221.998 112.451C221.69 111.704 220.19 111.155 220.19 111.155C220.19 111.155 219.61 113.507 219.95 114.087C220.289 114.667 218.34 120.05 218.34 120.05Z" fill="#314EC6"/>
<path d="M212.656 127.874C213.53 127.487 214.434 127.171 215.358 126.928C216.293 126.667 217.263 126.552 218.233 126.588C218.755 126.601 219.261 126.771 219.685 127.074C220.072 127.44 220.365 127.769 220.694 128.119C221.303 128.876 221.811 129.709 222.204 130.597C222.268 130.766 222.37 130.918 222.502 131.041C222.502 131.041 222.502 131.041 222.581 131.009C222.655 130.951 222.721 130.885 222.779 130.811C223.044 130.438 223.277 130.042 223.474 129.63C223.881 128.793 224.164 127.903 224.316 126.985C224.489 126.058 224.604 125.121 224.661 124.179C224.744 123.233 224.771 122.287 224.786 121.336C224.984 123.238 224.959 125.157 224.713 127.053C224.597 128.021 224.329 128.965 223.919 129.849C223.712 130.299 223.464 130.727 223.177 131.13C223.088 131.242 222.986 131.344 222.873 131.433C222.796 131.487 222.709 131.526 222.617 131.548C222.505 131.573 222.387 131.56 222.283 131.511C222.136 131.432 222.013 131.315 221.927 131.171C221.856 131.062 221.792 130.949 221.734 130.832C221.366 129.976 220.888 129.171 220.313 128.438C220.024 128.074 219.717 127.726 219.393 127.393C219.042 127.135 218.625 126.981 218.191 126.949C217.26 126.873 216.322 126.938 215.41 127.142C214.478 127.329 213.558 127.573 212.656 127.874Z" fill="#314EC6"/>
<path d="M204.256 126.651C203.873 126.293 203.466 125.961 203.038 125.658C202.835 125.511 202.618 125.385 202.39 125.282C202.286 125.238 202.177 125.206 202.066 125.187C202.023 125.182 201.979 125.182 201.935 125.187C201.904 125.187 201.883 125.188 201.82 125.245C200.96 125.798 200.227 126.529 199.672 127.388C199.374 127.801 199.118 128.271 198.768 128.699C198.592 128.92 198.393 129.12 198.172 129.295C198.041 129.41 197.88 129.485 197.707 129.51C197.583 129.519 197.459 129.479 197.362 129.4C197.288 129.332 197.234 129.245 197.206 129.149C197.131 128.866 197.117 128.57 197.164 128.281C197.2 128.01 197.247 127.759 197.305 127.487C197.431 126.973 197.586 126.467 197.77 125.971C197.697 126.494 197.603 127.017 197.561 127.539C197.528 127.794 197.511 128.051 197.509 128.308C197.489 128.544 197.516 128.782 197.587 129.008C197.597 129.035 197.614 129.06 197.634 129.081H197.66C197.746 129.054 197.825 129.008 197.89 128.945C198.074 128.791 198.239 128.615 198.381 128.422C198.685 128.025 198.935 127.571 199.244 127.121C199.55 126.674 199.9 126.259 200.289 125.883C200.681 125.503 201.126 125.182 201.611 124.931C201.686 124.888 201.767 124.856 201.852 124.837C201.938 124.824 202.026 124.824 202.113 124.837C202.261 124.867 202.404 124.92 202.536 124.994C202.774 125.133 202.996 125.295 203.2 125.48C203.588 125.837 203.941 126.229 204.256 126.651Z" fill="#314EC6"/>
<path d="M204.458 110.857C204.458 112.3 204.526 113.737 204.673 115.169C205.044 118.691 204.673 123.332 204.96 124.184C205.268 125.14 207.113 128.553 207.113 128.553C207.113 128.553 210.39 127.053 211.754 125.417C213.118 123.782 214.89 123.698 217.278 121.284C219.666 118.869 221.292 115.012 220.759 111.84C220.691 111.432 220.273 107.345 220.179 103.112C220.084 98.879 215.642 95.6701 211.409 95.6701C207.176 95.6701 204.646 101.941 204.516 106.175C204.463 107.91 204.453 109.54 204.458 110.857Z" fill="#F6A397"/>
<path d="M220.177 103.107C220.271 107.34 220.7 111.427 220.757 111.835C220.917 112.859 220.889 113.904 220.674 114.918C219.738 115.091 207.687 115.383 204.567 113.93C204.494 112.885 204.462 111.882 204.457 110.857C204.457 109.54 204.457 107.91 204.515 106.154C204.609 104.133 205.088 102.148 205.926 100.306L215.855 96.7938C218.275 98.1055 220.12 100.395 220.177 103.107Z" fill="#D65863"/>
<path d="M197.035 85.4896C190.633 85.4896 188.234 90.4074 188.234 94.0971C188.234 97.4 189.28 102.699 197.035 102.699C200.903 102.699 203.521 98.8476 203.521 94.0971C203.521 89.3465 200.903 85.4896 197.035 85.4896Z" fill="#504984"/>
<path d="M196.756 87.5957C191.922 87.5957 190.113 91.3115 190.113 94.0971C190.113 96.5899 190.913 100.593 196.756 100.593C199.677 100.593 201.653 97.6822 201.653 94.0971C201.653 90.5119 199.677 87.5957 196.756 87.5957Z" fill="#372D5B"/>
<path d="M188.955 88.3953C189.337 90.6373 190.445 91.4944 190.941 94.5204C191.438 97.5463 190.115 101.936 192.086 105.767C194.056 109.598 197.249 114.625 199.094 114.84C200.939 115.054 215.692 112.556 220.673 102.652C222.105 99.8093 225.157 88.6671 222.544 81.8574C219.931 75.0477 215.677 68.792 205.851 68.6248C196.026 68.4575 186.954 76.5058 188.955 88.3953Z" fill="#F6A397"/>
<path d="M197.177 100.656C197.428 100.672 197.68 100.634 197.916 100.544C198.151 100.454 198.364 100.314 198.541 100.133C198.65 99.9847 198.729 99.8156 198.772 99.6361C198.815 99.4565 198.822 99.2702 198.791 99.088C198.42 99.3768 197.989 99.5784 197.529 99.6779C197.07 99.7774 196.594 99.7723 196.137 99.6629C196.022 100.337 196.565 100.64 197.177 100.656Z" fill="#D65863"/>
<path d="M214.567 88.3953C214.331 87.0004 213.653 85.7181 212.633 84.737C212.633 84.737 208.876 83.1692 205.97 82.8922C203.983 82.6693 202.018 82.2901 200.091 81.7581C200.091 81.7581 201.01 84.0942 202.568 85.0872C202.568 85.0872 195.622 84.737 193.427 82.6831C193.427 82.6831 193.851 84.3764 194.279 85.5105C194.279 85.5105 190.877 85.1603 189.811 83.8172C189.811 83.8172 188.959 86.7804 188.959 88.4162C188.959 88.4162 184.872 82.8242 185.912 78.382C186.952 73.9397 188.368 72.236 188.368 72.236C186.86 72.3907 185.34 72.3907 183.832 72.236C183.832 72.236 187.616 68.9331 190.448 66.759C193.281 64.5849 201.789 64.4908 201.789 64.4908C201.789 64.4908 201.125 62.2227 201.883 58.6323C201.883 58.6323 205.542 63.9682 209.372 65.5988C213.203 67.2294 212.707 67.0935 216.788 68.123C220.87 69.1526 224.753 71.7813 226.383 73.9607C228.014 76.14 229.786 78.429 230.847 78.7844C230.847 78.7844 228.296 78.429 227.021 77.3629C227.021 77.3629 229.148 82.1971 226.336 88.4162C223.525 94.6353 216.48 92.7957 215.116 91.4213C214.723 91.0354 214.459 90.5373 214.361 89.9954C214.263 89.4536 214.335 88.8946 214.567 88.3953Z" fill="#BA6454"/>
<path d="M215.14 91.4004C214.751 91.0161 214.49 90.5217 214.392 89.9842C214.294 89.4467 214.363 88.8921 214.591 88.3953C214.406 87.2719 213.934 86.2153 213.222 85.3276C214.237 79.1001 213.821 72.7231 212.004 66.6806C213.049 67.116 214.127 67.4656 215.228 67.7258C217.096 70.5879 218.535 73.7079 219.498 76.9866C220.732 81.1048 221.333 85.5523 220.178 89.6914C219.88 90.7598 219.453 91.7881 218.908 92.7539C217.136 92.6076 215.662 91.9543 215.14 91.4004Z" fill="#874438"/>
<path d="M217.038 86.0853C217.038 86.0853 217.524 70.5375 209.371 65.5779C211.391 65.4695 213.399 65.9389 215.162 66.9311C216.924 67.9234 218.367 69.3973 219.322 71.1803C222.933 77.4883 222.693 82.8974 222.599 85.9285C222.504 88.9597 217.038 86.0853 217.038 86.0853Z" fill="#504984"/>
<path d="M219.521 85.4896C225.923 85.4896 228.322 90.4074 228.322 94.0971C228.322 97.4 227.276 102.699 219.521 102.699C215.653 102.699 213.035 98.8476 213.035 94.0971C213.035 89.3465 215.664 85.4896 219.521 85.4896Z" fill="#504984"/>
<path d="M216.07 94.0971C216.07 89.8743 218.856 86.4564 222.289 86.4564C225.723 86.4564 228.32 89.8743 228.32 94.0971C228.32 98.3198 225.707 101.732 222.289 101.732C218.872 101.732 216.07 98.3146 216.07 94.0971Z" fill="#372D5B"/>
<path d="M223.108 99.2971C225.446 99.2971 227.341 96.969 227.341 94.0971C227.341 91.2252 225.446 88.897 223.108 88.897C220.77 88.897 218.875 91.2252 218.875 94.0971C218.875 96.969 220.77 99.2971 223.108 99.2971Z" fill="#504984"/>
<path d="M203.293 102.699C201.564 103.651 195.914 103.969 195.527 103.917C195.141 103.865 195.935 108.15 197.32 108.312C198.705 108.474 201.47 108.098 202.625 106.99C203.78 105.882 203.293 102.699 203.293 102.699Z" fill="#D65863"/>
<path d="M202.933 103.948L202.661 102.966C200.759 103.614 197.012 103.891 195.867 103.917C195.966 104.509 196.133 105.088 196.364 105.642C196.4 105.642 196.364 105.699 196.39 105.673C197.54 105.854 198.716 105.795 199.843 105.498C200.969 105.201 202.021 104.673 202.933 103.948Z" fill="white"/>
<path d="M202.531 92.4403C202.531 91.6564 202.918 91.024 203.394 91.024C203.869 91.024 204.256 91.6564 204.256 92.4403C204.256 93.2243 203.874 93.8566 203.394 93.8566C202.913 93.8566 202.531 93.2243 202.531 92.4403Z" fill="#3F1751"/>
<path d="M192.668 93.1302C192.668 92.3463 193.002 91.7087 193.41 91.7087C193.818 91.7087 194.152 92.3463 194.152 93.1302C194.152 93.9141 193.823 94.5465 193.41 94.5465C192.997 94.5465 192.668 93.8828 192.668 93.1302Z" fill="#3F1751"/>
<path d="M207.358 86.9163C206.157 86.2771 204.825 85.9197 203.465 85.8711C202.761 85.789 202.049 85.8585 201.374 86.0749C200.703 86.3074 200.11 86.7217 199.66 87.2717L199.712 87.3553C200.423 87.2769 201.014 87.1044 201.636 87.0208C202.258 86.9372 202.827 86.7073 203.465 86.655C204.754 86.5441 206.052 86.6608 207.301 86.9999L207.358 86.9163Z" fill="#3F1751"/>
<path d="M190.168 88.7455C190.476 88.6278 190.797 88.5505 191.125 88.5155C191.442 88.4764 191.761 88.4555 192.081 88.4528C192.396 88.4994 192.715 88.51 193.032 88.4842C193.198 88.4571 193.361 88.4133 193.518 88.3535C193.704 88.2936 193.88 88.2073 194.041 88.0974V87.9981C193.767 87.723 193.415 87.5403 193.032 87.4755C192.675 87.4533 192.318 87.5123 191.987 87.648C191.64 87.734 191.303 87.8585 190.983 88.019C190.664 88.1784 190.373 88.3884 190.121 88.641L190.168 88.7455Z" fill="#3F1751"/>
<path d="M200.146 190.535C200.146 190.755 199.843 191.058 199.101 191.058H175.421C172.693 191.058 172.056 189.981 172.876 188.617C173.697 187.253 177.151 184.248 185.701 182.158C194.251 180.067 198.767 184.954 200.141 187.159C201.166 188.769 200.146 190.535 200.146 190.535Z" fill="#504984"/>
<path d="M172.678 189.036C173.148 190.603 191.21 189.783 191.21 189.783C191.21 189.783 189.376 187.311 187.353 187.243C185.331 187.175 184.343 187.875 181.63 188.34C178.918 188.806 180.925 187.238 180.925 187.238C180.925 187.238 179.007 186.809 178.228 186.192C178.228 186.192 182.702 184.87 184.578 184.562C186.454 184.254 191.231 184.457 191.842 184.562C192.281 184.635 194.482 183.355 197.147 183.997C198.332 184.849 199.349 185.912 200.147 187.133C201.166 188.748 200.147 190.499 200.147 190.499C200.147 190.718 199.844 191.021 199.102 191.021H175.422C172.976 191.068 172.218 190.201 172.678 189.036Z" fill="#372D5B"/>
<path d="M249.922 175.735C249.922 175.735 233.094 178.348 223.969 179.973C215.325 181.541 207.862 182.189 205.751 181.782C203.639 181.374 196.401 178.709 194.081 177.752C191.76 176.796 187.119 176.252 184.731 177.005C182.343 177.757 180.388 178.573 179.432 178.573C178.475 178.573 178.658 180.141 179.954 180.438C180.742 180.632 181.552 180.723 182.363 180.71C182.363 180.71 178.041 183.078 177.268 183.323C176.494 183.569 177.414 184.964 178.46 184.891C178.46 184.891 177.54 185.44 177.858 185.983C178.177 186.527 180.472 186.532 180.472 186.532C180.472 186.532 177.696 187.896 180.012 188.44C182.327 188.983 185.107 186.391 186.246 186.166C187.386 185.942 190.025 186.078 191.295 187.029C192.565 187.98 198.031 192.396 205.489 189.762C205.489 189.762 256.131 191.811 261.179 191.811C266.228 191.811 269.28 187.347 267.66 178.745C266.677 173.549 265.066 168.491 262.862 163.683L245.396 164.912L249.922 175.735Z" fill="#F6A397"/>
<path d="M186.328 179.362C186.671 179.273 187.021 179.211 187.373 179.179L186.328 179.362Z" fill="#D65863"/>
<path d="M182.34 180.71C181.529 180.723 180.719 180.632 179.931 180.438C179.61 180.36 179.325 180.176 179.121 179.916C180.537 180.543 182.257 180.146 183.234 179.916C183.835 179.775 185.325 179.503 186.328 179.325C184.96 179.665 183.625 180.129 182.34 180.71Z" fill="#D65863"/>
<path d="M182.566 182.759C182.651 182.717 182.739 182.681 182.828 182.649L182.566 182.759Z" fill="#D65863"/>
<path d="M177.254 184.316C177.254 184.316 177.777 184.771 178.822 184.316C179.695 183.935 181.822 183.062 182.564 182.748C181.633 183.172 179.104 184.593 178.435 184.839C178.211 184.849 177.988 184.807 177.783 184.716C177.578 184.625 177.397 184.489 177.254 184.316Z" fill="#D65863"/>
<path d="M179.868 185.989C180.641 185.759 182.256 184.781 183.244 184.316C183.959 184.014 184.721 183.837 185.496 183.794C185.017 183.895 184.556 184.071 184.132 184.316C183.144 184.802 180.432 186.49 180.432 186.49C179.688 186.493 178.946 186.398 178.227 186.208C178.781 186.204 179.332 186.131 179.868 185.989Z" fill="#D65863"/>
<path d="M194.267 187.102C195.699 187.99 199.932 189.15 202.457 188.67C203.16 188.562 203.819 188.26 204.361 187.798C204.903 187.337 205.306 186.734 205.524 186.057L206.256 188.351C206.256 188.351 241.376 189.354 248.52 189.036C255.581 188.717 266.592 188.555 268.029 184.332C267.637 189.255 264.972 191.784 261.167 191.784C256.119 191.784 205.477 189.736 205.477 189.736C198.02 192.349 192.558 187.959 191.283 187.003C190.238 186.208 188.226 185.983 186.93 186.057C188.837 185.367 192.835 186.213 194.267 187.102Z" fill="#D65863"/>
<path d="M249.919 175.735C249.919 175.735 256.499 174.841 257.821 174.69L256.817 170.598L248.492 172.28L249.919 175.735Z" fill="#D65863"/>
<path d="M267.508 164.274C267.629 164.587 267.655 164.929 267.584 165.257C267.512 165.585 267.346 165.884 267.106 166.119C264.048 169.103 260.035 173.169 255.906 173.796C251.401 174.481 243.886 174.752 243.483 173.796C243.081 172.84 241.576 160.694 238.843 154.553C236.109 148.413 234.343 145.272 233.658 141.723C232.974 138.175 239.12 129.849 241.848 129.18C244.576 128.511 250.852 128.088 253.45 130.408C256.047 132.729 257.949 141.598 260.955 148.287C263.374 153.67 266.421 161.468 267.508 164.274Z" fill="#407BFF"/>
<path d="M250.611 129.05C249.78 128.956 248.943 128.882 248.107 128.867C247.273 128.825 246.438 128.825 245.604 128.867C244.775 128.913 243.95 129.007 243.132 129.149C242.719 129.212 242.317 129.306 241.914 129.4C241.532 129.511 241.162 129.662 240.811 129.849C240.446 130.036 240.096 130.253 239.766 130.497C239.458 130.769 239.134 131.02 238.852 131.318C238.267 131.901 237.727 132.529 237.237 133.194C236.739 133.866 236.277 134.564 235.852 135.284C235.408 135.995 235.01 136.732 234.629 137.485C235.203 135.893 235.968 134.377 236.908 132.969C237.368 132.257 237.893 131.589 238.475 130.973C238.776 130.665 239.094 130.373 239.427 130.1C239.769 129.834 240.135 129.598 240.519 129.395C240.909 129.187 241.321 129.024 241.747 128.909C242.165 128.82 242.578 128.72 243.001 128.668C243.841 128.536 244.691 128.472 245.541 128.475C247.248 128.455 248.951 128.648 250.611 129.05Z" fill="#314EC6"/>
<path d="M264.099 166.788C264.099 164.608 259.468 144.618 255.402 133.476C257.132 137.281 258.747 143.364 260.953 148.277C263.372 153.67 266.419 161.468 267.506 164.274C267.627 164.587 267.653 164.929 267.582 165.257C267.51 165.585 267.344 165.884 267.104 166.119C265.933 167.263 264.621 168.565 263.215 169.777C263.32 169.667 264.12 168.826 264.099 166.788Z" fill="#314EC6"/>
<path d="M44.5683 144.268C44.4906 144.941 44.6258 145.621 44.955 146.212C46.1509 148.393 46.7426 150.854 46.6692 153.341C46.6221 154.966 46.2877 156.633 46.7267 158.201C47.4949 160.903 50.3484 162.575 51.2682 165.236C52.0783 167.587 51.3257 170.551 53.0137 172.38C53.201 172.627 53.4574 172.813 53.7505 172.914C54.0435 173.016 54.36 173.028 54.66 172.949C54.9393 172.81 55.1826 172.608 55.3707 172.359C57.3096 170.159 59.3844 167.478 58.7886 164.603C58.2242 161.901 55.4439 160.077 54.9161 157.37C54.4823 155.16 55.6164 152.604 54.3464 150.743C53.9963 150.221 53.4998 149.834 53.113 149.343C51.6079 147.409 52.1671 144.326 50.4268 142.591C49.8623 142.05 49.1519 141.687 48.3834 141.545C47.9518 141.454 47.5062 141.454 47.0746 141.545C46.643 141.635 46.2349 141.814 45.8762 142.071C45.5175 142.327 45.216 142.656 44.9908 143.035C44.7657 143.414 44.6218 143.836 44.5683 144.273V144.268Z" fill="#CECECE"/>
<path d="M55.608 178.583C55.723 177.141 55.7753 175.698 55.8275 174.256C55.7648 172.814 55.6864 171.376 55.561 169.934C55.4355 168.491 55.2788 167.054 55.0384 165.622C54.8052 164.186 54.4035 162.783 53.8416 161.441C52.7963 158.797 51.9497 156.032 51.0978 153.294L49.8592 149.17C49.3366 147.822 48.8558 146.468 48.375 145.11C48.584 146.542 48.8976 147.947 49.2007 149.364L50.4393 153.498C51.2964 156.252 52.1326 158.996 53.204 161.703C53.7512 163.007 54.139 164.372 54.359 165.769C54.6098 167.169 54.7718 168.596 54.8816 170.018C54.9913 171.439 55.0854 172.876 55.1429 174.308L55.608 178.583Z" fill="#E0E0E0"/>
<path d="M48.0039 149.385C48.2389 149.725 48.5348 150.019 48.8767 150.252C49.0451 150.357 49.2196 150.451 49.3993 150.534C49.5898 150.622 49.766 150.739 49.9219 150.879L49.9898 150.937L50.0473 150.848C50.1832 150.639 50.3504 150.446 50.4811 150.231C50.6118 150.017 50.7424 149.803 50.8574 149.583C51.083 149.128 51.2398 148.642 51.3225 148.141H51.2807C50.9315 148.507 50.6407 148.925 50.4184 149.379C50.3086 149.604 50.2198 149.839 50.1257 150.069C50.0317 150.299 49.9794 150.555 49.8958 150.79L50.0212 150.759C49.8434 150.658 49.6814 150.531 49.5404 150.383C49.4056 150.227 49.2626 150.079 49.1119 149.939C48.7877 149.682 48.4192 149.487 48.0248 149.364L48.0039 149.385Z" fill="#E0E0E0"/>
<path d="M48.3516 154.308C48.5972 154.511 48.8742 154.731 49.1198 154.919C49.3832 155.114 49.661 155.289 49.9508 155.442C50.2487 155.583 50.5622 155.698 50.8497 155.855C51.1313 156.022 51.3987 156.213 51.6493 156.424L51.7433 156.497L51.8322 156.377C52.2167 155.858 52.5659 155.313 52.8774 154.747C53.1894 154.176 53.4433 153.575 53.6352 152.954H53.5986C53.1677 153.439 52.7844 153.964 52.4541 154.522C52.1317 155.082 51.8471 155.664 51.6022 156.262L51.7851 156.215C51.483 156.082 51.1927 155.923 50.9176 155.74C50.6511 155.557 50.395 155.327 50.1441 155.128C49.8776 154.93 49.5943 154.755 49.2975 154.606C49.0008 154.449 48.6844 154.333 48.3568 154.261L48.3516 154.308Z" fill="#E0E0E0"/>
<path d="M50.1016 160.809C50.3649 161.067 50.662 161.289 50.9848 161.467C51.2975 161.653 51.6381 161.787 51.9934 161.865C52.3467 161.952 52.6778 162.112 52.9655 162.335C53.2529 162.555 53.5404 162.795 53.8278 162.983L54.0473 163.129L54.2093 162.884C54.4528 162.528 54.6627 162.15 54.8365 161.755C55.0149 161.354 55.1499 160.935 55.2389 160.506L55.1866 160.48C54.8724 160.785 54.592 161.123 54.3504 161.488C54.1093 161.846 53.9028 162.226 53.7337 162.622L54.1153 162.523C53.7791 162.358 53.4294 162.221 53.07 162.116C52.7234 162.002 52.4008 161.824 52.1189 161.593C51.8421 161.355 51.5254 161.167 51.1834 161.039C50.8396 160.897 50.4769 160.805 50.1068 160.767L50.1016 160.809Z" fill="#E0E0E0"/>
<path d="M57.8943 178.865C59.0232 178.677 63.2459 177.329 62.948 176.226C61.6833 171.496 60.4186 166.129 64.7981 163.814C66.8885 162.701 69.5539 162.136 70.7559 160.077C71.9579 158.018 71.0799 155.254 69.972 153.064C68.864 150.874 67.5261 148.528 68.0017 146.118C68.4982 143.594 70.8866 141.734 71.2681 139.194C71.7907 135.718 68.4146 132.922 65.1744 131.563C64.0769 131.103 62.8644 130.712 61.7042 130.989C60.8852 131.224 60.1564 131.701 59.6137 132.358C57.3351 134.903 57.4292 138.739 57.9466 142.115C58.464 145.491 59.2636 149.05 57.9936 152.217C57.0895 154.47 55.1558 156.586 55.6732 158.954C55.8822 159.905 56.4728 160.731 56.7184 161.677C57.3299 164.222 55.2133 166.516 54.2412 168.946C53.6502 170.533 53.5226 172.255 53.8733 173.911C54.224 175.568 55.0386 177.09 56.2219 178.301C56.4426 178.526 56.7139 178.694 57.013 178.792C57.3122 178.89 57.6305 178.916 57.9414 178.865H57.8943Z" fill="#E0E0E0"/>
<path d="M57.4998 178.918C57.7611 177.041 58.0224 175.176 58.3569 173.326C58.4353 172.861 58.5346 172.401 58.6077 171.936C58.6809 171.47 58.7175 171.005 58.7959 170.545C58.937 169.615 59.0938 168.695 59.2662 167.775C59.6008 165.943 60.0742 164.138 60.6825 162.377C60.9739 161.516 61.3706 160.695 61.8636 159.931C62.0891 159.579 62.378 159.273 62.7155 159.027C63.1533 158.748 63.5389 158.394 63.8548 157.982C64.4491 157.122 64.738 156.088 64.6753 155.045C64.6342 154.071 64.4923 153.104 64.252 152.16C63.8182 150.304 63.2747 148.501 62.9716 146.683C62.6119 144.888 62.6494 143.037 63.0813 141.258C63.2277 140.829 63.3479 140.396 63.4837 139.962C63.6285 139.53 63.8031 139.11 64.0064 138.702C64.4447 137.877 64.9703 137.101 65.5742 136.387C64.8145 136.974 64.1376 137.662 63.5621 138.431C63.2781 138.815 63.023 139.221 62.7991 139.643C62.5594 140.072 62.3834 140.533 62.2765 141.012C61.808 142.911 61.7634 144.89 62.1458 146.808C62.4594 148.705 63.0134 150.524 63.4367 152.337C63.6616 153.224 63.7964 154.131 63.8391 155.045C63.8945 155.898 63.6647 156.745 63.1859 157.454C62.9299 157.791 62.6168 158.081 62.2608 158.311C61.8306 158.615 61.4617 158.998 61.1738 159.44C60.6437 160.256 60.2138 161.134 59.8934 162.053C59.2706 163.858 58.7867 165.708 58.4457 167.587C58.268 168.518 58.1078 169.451 57.9649 170.389C57.9022 170.859 57.8134 171.324 57.7559 171.794C57.6984 172.265 57.6879 172.74 57.6618 173.216C57.5364 175.134 57.4684 177.026 57.4998 178.918Z" fill="#CECECE"/>
<path d="M64.9782 141.99C64.3755 142.247 63.8536 142.662 63.4678 143.192C63.3068 143.471 63.1177 143.734 62.9034 143.976C62.6724 144.201 62.4262 144.411 62.1665 144.603H62.501C62.386 144.357 62.2501 144.132 62.1195 143.897C61.9943 143.666 61.8546 143.442 61.7014 143.228C61.555 143.009 61.3878 142.8 61.231 142.591C61.0742 142.382 60.8913 142.183 60.745 141.964H60.6875C60.6915 142.248 60.7482 142.53 60.8547 142.794C60.9505 143.049 61.0658 143.295 61.1997 143.531C61.3281 143.769 61.4749 143.996 61.6387 144.211C61.8059 144.425 61.9627 144.639 62.1613 144.838L62.3703 145.057L62.4957 144.859C62.6455 144.58 62.8205 144.316 63.0184 144.07C63.2392 143.837 63.4885 143.633 63.7605 143.463C64.0141 143.272 64.2409 143.047 64.4347 142.794C64.644 142.549 64.8327 142.287 64.9991 142.011L64.9782 141.99Z" fill="#CECECE"/>
<path d="M60.8867 149.155C61.0262 149.47 61.2015 149.768 61.4093 150.043C61.605 150.319 61.8216 150.579 62.0574 150.822C62.2978 151.052 62.58 151.25 62.8413 151.465C63.097 151.681 63.3268 151.927 63.5259 152.196L63.5939 152.28L63.6827 152.207C63.9974 151.96 64.2926 151.689 64.5659 151.397C64.8168 151.109 65.0886 150.832 65.3237 150.529C65.5589 150.226 65.7889 149.918 65.9979 149.599C66.207 149.28 66.4056 148.946 66.6251 148.632L66.5937 148.585C66.2433 148.774 65.9228 149.013 65.6425 149.296C65.3604 149.563 65.0951 149.848 64.8482 150.148C64.6025 150.446 64.3935 150.77 64.1635 151.078C63.9336 151.386 63.7507 151.752 63.5416 152.019H63.6984C63.4383 151.807 63.2049 151.565 63.0033 151.297C62.8099 151.026 62.6323 150.733 62.4284 150.472C62.2246 150.21 61.9738 149.986 61.7334 149.75C61.4885 149.517 61.2265 149.302 60.9494 149.108L60.8867 149.155Z" fill="#CECECE"/>
<path d="M68.4093 154.684C68.0539 155.102 67.6881 155.484 67.3066 155.855C66.9251 156.226 66.5226 156.544 66.1307 156.9C65.7342 157.261 65.2658 157.533 64.7562 157.699C64.246 157.84 63.717 157.9 63.1884 157.877L63.4235 158.044C63.3258 157.61 63.2001 157.182 63.0472 156.764C62.9117 156.341 62.7368 155.931 62.5246 155.541C62.3079 155.145 62.0466 154.775 61.7459 154.438C61.445 154.095 61.0696 153.825 60.6484 153.649V153.701C60.9605 153.99 61.2266 154.325 61.4376 154.694C61.654 155.057 61.8511 155.43 62.0281 155.813L62.5508 156.973C62.7232 157.365 62.8748 157.773 63.0263 158.165L63.0995 158.353H63.2615C63.811 158.249 64.3497 158.095 64.8712 157.893C65.3938 157.694 65.9164 157.517 66.4129 157.26C66.9115 157.004 67.3525 156.648 67.709 156.215C68.0735 155.788 68.3489 155.292 68.519 154.757L68.4093 154.684Z" fill="#CECECE"/>
<path d="M58.2304 158.917C58.0661 159.334 57.9913 159.781 58.0109 160.229C58.0242 160.678 58.1071 161.122 58.2565 161.546C58.4271 161.96 58.6559 162.347 58.9359 162.696L59.7198 163.741L59.7773 163.814L59.8714 163.746C60.3118 163.461 60.769 163.203 61.2406 162.973C61.7058 162.727 62.1813 162.513 62.6621 162.309C63.143 162.105 63.6133 161.896 64.1046 161.713C64.5958 161.53 65.0975 161.353 65.6045 161.159V161.107C64.5111 161.087 63.4265 161.306 62.427 161.75C61.931 161.976 61.4539 162.242 61.0002 162.544C60.5514 162.856 60.1301 163.206 59.7407 163.589H59.887C59.5878 163.284 59.3423 162.931 59.1606 162.544C58.9959 162.16 58.858 161.766 58.7477 161.363C58.4905 160.568 58.3393 159.742 58.2983 158.907L58.2304 158.917Z" fill="#CECECE"/>
<path d="M50.2449 191.068H62.2965C63.4149 191.068 64.3869 190.102 64.5333 188.795L66.4408 173.974C66.6498 172.354 65.5889 170.89 64.204 170.89H48.3374C46.9524 170.89 45.8915 172.354 46.1006 173.974L48.0081 188.795C48.1754 190.102 49.1265 191.068 50.2449 191.068Z" fill="#504984"/>
<path d="M48.3374 170.89H56.4484C55.0634 170.89 54.0025 172.354 54.2116 173.974L56.1191 188.795C56.2864 190.102 57.2375 191.068 58.3559 191.068H50.2449C49.1265 191.068 48.1545 190.102 48.0081 188.795L46.1006 173.974C45.8915 172.354 46.9524 170.89 48.3374 170.89Z" fill="#372D5B"/>
<path d="M158.174 187.003H107.783C107.663 187.002 107.543 187.025 107.431 187.071C107.32 187.116 107.218 187.184 107.133 187.269C107.048 187.354 106.98 187.455 106.933 187.566C106.887 187.677 106.863 187.797 106.863 187.917V190.154C106.863 190.274 106.887 190.394 106.933 190.505C106.98 190.616 107.048 190.717 107.133 190.802C107.218 190.887 107.32 190.955 107.431 191C107.543 191.046 107.663 191.069 107.783 191.068H158.174V187.003Z" fill="#282142"/>
<path d="M171.152 189.814V190.724C171.151 190.817 171.113 190.906 171.047 190.971C170.98 191.037 170.89 191.074 170.797 191.074H158.103C158.009 191.074 157.916 191.057 157.829 191.021C157.742 190.986 157.663 190.933 157.597 190.867C157.53 190.801 157.477 190.723 157.441 190.636C157.405 190.55 157.387 190.457 157.387 190.363V187.724C157.386 187.623 157.407 187.523 157.448 187.431C157.488 187.339 157.548 187.256 157.624 187.189C157.699 187.122 157.787 187.071 157.883 187.041C157.98 187.011 158.081 187.001 158.181 187.013L170.834 189.464C170.921 189.473 171.001 189.514 171.06 189.578C171.119 189.643 171.152 189.727 171.152 189.814Z" fill="#504984"/>
<path d="M70.109 101.346H164.3C165.23 101.346 166.137 101.633 166.898 102.168C167.658 102.703 168.235 103.46 168.549 104.335L189.151 161.541C190.013 164.488 187.854 166.699 184.384 167.075C183.862 167.127 181.322 165.993 177.35 164.122H93.1459C92.2158 164.124 91.308 163.838 90.5466 163.304C89.7852 162.769 89.2072 162.013 88.8918 161.138L70.2815 109.462L65.3427 106.88C65.3427 106.88 64.1773 101.346 70.109 101.346Z" fill="#504984"/>
<path d="M161.349 104.293H67.1629C66.8528 104.293 66.5474 104.368 66.2723 104.511C65.9972 104.654 65.7606 104.861 65.5823 105.115C65.404 105.368 65.2893 105.661 65.2478 105.968C65.2064 106.276 65.2394 106.588 65.3442 106.88L85.9457 164.086C86.2599 164.961 86.8367 165.718 87.5972 166.253C88.3576 166.788 89.2647 167.075 90.1946 167.075H184.386C184.696 167.075 185.001 167 185.276 166.857C185.551 166.714 185.788 166.507 185.966 166.254C186.145 166 186.259 165.707 186.301 165.4C186.342 165.093 186.309 164.78 186.204 164.488L165.603 107.283C165.288 106.407 164.71 105.65 163.949 105.115C163.187 104.58 162.279 104.293 161.349 104.293Z" fill="#372D5B"/>
<path d="M140.089 167.075L135.908 151.564L120.062 167.075H140.089Z" fill="#282142"/>
<path d="M117.155 124.383C117.568 126.943 119.245 127.973 121.205 127.973C121.662 127.992 122.117 127.908 122.538 127.727C122.958 127.547 123.332 127.274 123.633 126.929C123.934 126.585 124.154 126.177 124.276 125.736C124.399 125.296 124.421 124.833 124.341 124.383C124.175 123.413 123.683 122.529 122.947 121.877C122.21 121.225 121.273 120.844 120.29 120.798C119.834 120.78 119.38 120.864 118.96 121.045C118.541 121.226 118.167 121.498 117.867 121.842C117.566 122.185 117.346 122.592 117.223 123.031C117.1 123.471 117.076 123.933 117.155 124.383Z" fill="#504984"/>
<path d="M161.42 157.553L160.207 154.193H161.728L162.94 157.553H161.42Z" fill="#282142"/>
<path d="M158.216 157.553L157.004 154.193H158.525L159.737 157.553H158.216Z" fill="#282142"/>
<path d="M155.009 157.553L153.797 154.193H155.323L156.53 157.553H155.009Z" fill="#282142"/>
<path d="M151.806 157.553L150.594 154.193H152.115L153.327 157.553H151.806Z" fill="#282142"/>
<path d="M106.263 157.553L105.051 154.193H106.577L107.784 157.553H106.263Z" fill="#282142"/>
<path d="M103.06 157.553L101.848 154.193H103.368L104.581 157.553H103.06Z" fill="#282142"/>
<path d="M99.8518 157.553L98.6445 154.193H100.165L101.373 157.553H99.8518Z" fill="#282142"/>
<path d="M96.6461 157.553L95.4336 154.193H96.9544L98.1669 157.553H96.6461Z" fill="#282142"/>
<path d="M108.282 185.544C109.212 182.869 120.48 146.5 120.48 146.5H134.951L135.908 151.564C135.908 151.564 126.208 182.869 125.278 185.534C125.204 185.74 125.137 185.943 125.074 186.145C124.227 188.759 126.469 188.759 128.993 188.759H154.518V191.068H111.998C106.887 191.068 107.352 188.215 108.282 185.544Z" fill="#372D5B"/>
<path d="M134.95 146.5C134.95 146.5 123.682 182.869 122.747 185.544C121.811 188.22 121.351 191.068 126.468 191.068H109.472C104.361 191.068 104.826 188.215 105.751 185.544C106.676 182.874 117.933 146.5 117.933 146.5H134.95Z" fill="#504984"/>
<path d="M131.408 146.5C130.285 146.448 129.166 146.421 128.043 146.385C126.919 146.348 125.801 146.338 124.682 146.317C123.564 146.296 122.44 146.265 121.317 146.265H117.956H117.768L117.711 146.448C117.24 147.911 116.78 149.374 116.341 150.848L114.998 155.264C114.136 158.217 113.274 161.17 112.484 164.149C113.53 161.253 114.481 158.327 115.442 155.405L116.838 151.01C117.308 149.547 117.758 148.073 118.202 146.604L117.956 146.782H121.317C122.44 146.782 123.559 146.751 124.682 146.735C125.806 146.719 126.924 146.698 128.043 146.662C129.161 146.625 130.285 146.552 131.408 146.5Z" fill="#7F74D1"/>
<path d="M32.8395 200H282.305C283.489 200 284.624 199.53 285.461 198.693C286.298 197.856 286.768 196.721 286.768 195.537C286.769 194.95 286.654 194.369 286.43 193.827C286.206 193.285 285.877 192.793 285.463 192.378C285.048 191.963 284.556 191.633 284.014 191.409C283.472 191.184 282.892 191.068 282.305 191.068H32.8395C31.6544 191.068 30.5178 191.539 29.6798 192.377C28.8419 193.215 28.3711 194.352 28.3711 195.537C28.3725 196.721 28.8439 197.856 29.6817 198.693C30.5195 199.53 31.6553 200 32.8395 200Z" fill="#8E5058"/>
<path d="M32.8395 200H282.305C283.489 200 284.624 199.53 285.461 198.693C286.298 197.856 286.768 196.721 286.768 195.537H28.3711C28.3725 196.721 28.8439 197.856 29.6817 198.693C30.5195 199.53 31.6553 200 32.8395 200Z" fill="#64364A"/>
<path d="M143.912 57.2292C146.927 45.5319 139.888 33.6054 128.191 30.5906C116.494 27.5758 104.567 34.6144 101.552 46.3117C98.5377 58.009 105.576 69.9355 117.274 72.9503C128.971 75.9651 140.897 68.9265 143.912 57.2292Z" fill="#FF6C37"/>
<path d="M112.044 60.8116H133.586C134.576 60.8116 135.379 60.0091 135.379 59.0191V45.5094C135.379 44.5194 134.576 43.7169 133.586 43.7169H112.044C111.054 43.7169 110.252 44.5194 110.252 45.5094V59.0191C110.252 60.0091 111.054 60.8116 112.044 60.8116Z" fill="#DBE9FF"/>
<path d="M112.04 60.8116H133.613C133.849 60.8116 134.082 60.7653 134.299 60.6752C134.517 60.5851 134.714 60.453 134.881 60.2866C135.047 60.1201 135.179 59.9225 135.269 59.705C135.36 59.4875 135.406 59.2544 135.406 59.019L122.863 51.1223L110.32 59.019C110.319 59.4824 110.497 59.9284 110.818 60.2628C111.139 60.5972 111.577 60.794 112.04 60.8116Z" fill="#CDDCF4"/>
<path d="M112.04 43.7169H133.613C134.088 43.7169 134.543 43.905 134.879 44.24C135.215 44.5751 135.405 45.0297 135.406 45.5042L122.863 53.4062L110.32 45.5042C110.32 45.0417 110.499 44.5971 110.82 44.2638C111.14 43.9305 111.578 43.7344 112.04 43.7169Z" fill="#407BFF"/>
<path d="M282.551 104.986C294.299 102.265 301.617 90.5355 298.896 78.7873C296.175 67.0392 284.446 59.7212 272.698 62.4421C260.949 65.163 253.632 76.8925 256.352 88.6406C259.073 100.389 270.803 107.707 282.551 104.986Z" fill="#FF6C37"/>
<path d="M283.747 79.4168H281.552C281.357 78.5632 281.02 77.7487 280.554 77.0075L282.122 75.4397C282.175 75.3907 282.217 75.3313 282.246 75.2652C282.275 75.1991 282.29 75.1277 282.29 75.0555C282.29 74.9834 282.275 74.912 282.246 74.8459C282.217 74.7797 282.175 74.7203 282.122 74.6714L280.397 72.9468C280.348 72.8937 280.289 72.8514 280.223 72.8224C280.157 72.7935 280.085 72.7785 280.013 72.7785C279.941 72.7785 279.87 72.7935 279.804 72.8224C279.737 72.8514 279.678 72.8937 279.629 72.9468L278.061 74.5146C277.32 74.0487 276.505 73.7113 275.652 73.5164V71.3214C275.652 71.1828 275.597 71.0499 275.499 70.9519C275.401 70.8539 275.268 70.7988 275.129 70.7988H272.689C272.55 70.7988 272.417 70.8539 272.319 70.9519C272.221 71.0499 272.166 71.1828 272.166 71.3214V73.5164C271.315 73.7122 270.502 74.0496 269.762 74.5146L268.194 72.9468C268.145 72.8937 268.086 72.8514 268.02 72.8224C267.954 72.7935 267.882 72.7785 267.81 72.7785C267.738 72.7785 267.667 72.7935 267.6 72.8224C267.534 72.8514 267.475 72.8937 267.426 72.9468L265.696 74.6714C265.596 74.774 265.539 74.9119 265.539 75.0555C265.539 75.1992 265.596 75.3371 265.696 75.4397L267.264 77.0075C266.798 77.7487 266.461 78.5632 266.266 79.4168H264.066C263.927 79.4168 263.794 79.4718 263.696 79.5698C263.598 79.6678 263.543 79.8008 263.543 79.9394V82.38C263.543 82.5186 263.598 82.6515 263.696 82.7495C263.794 82.8476 263.927 82.9026 264.066 82.9026H266.266C266.462 83.7542 266.799 84.5669 267.264 85.3067L265.696 86.8745C265.596 86.9771 265.539 87.115 265.539 87.2586C265.539 87.4023 265.596 87.5402 265.696 87.6427L267.426 89.3726C267.529 89.4732 267.666 89.5295 267.81 89.5295C267.954 89.5295 268.092 89.4732 268.194 89.3726L269.762 87.8048C270.502 88.2698 271.315 88.6072 272.166 88.803V91.0398C272.166 91.1784 272.221 91.3113 272.319 91.4093C272.417 91.5073 272.55 91.5624 272.689 91.5624H275.129C275.268 91.5624 275.401 91.5073 275.499 91.4093C275.597 91.3113 275.652 91.1784 275.652 91.0398V88.8448C276.505 88.6499 277.32 88.3125 278.061 87.8466L279.629 89.4144C279.732 89.515 279.87 89.5713 280.013 89.5713C280.157 89.5713 280.295 89.515 280.397 89.4144L282.122 87.6846C282.175 87.6356 282.217 87.5762 282.246 87.5101C282.275 87.444 282.29 87.3726 282.29 87.3004C282.29 87.2283 282.275 87.1569 282.246 87.0908C282.217 87.0246 282.175 86.9652 282.122 86.9163L280.554 85.3485C281.019 84.6087 281.357 83.796 281.552 82.9444H283.747C283.886 82.9444 284.019 82.8894 284.117 82.7914C284.215 82.6933 284.27 82.5604 284.27 82.4218V79.9603C284.273 79.8899 284.261 79.8197 284.236 79.7539C284.211 79.688 284.173 79.6279 284.124 79.5772C284.076 79.5264 284.017 79.486 283.952 79.4584C283.887 79.4309 283.818 79.4167 283.747 79.4168ZM273.891 84.5489C273.224 84.5499 272.572 84.3531 272.017 83.9833C271.462 83.6135 271.029 83.0874 270.773 82.4716C270.517 81.8557 270.449 81.1778 270.579 80.5236C270.708 79.8693 271.029 79.2682 271.5 78.7963C271.971 78.3243 272.572 78.0028 273.226 77.8723C273.88 77.7418 274.558 77.8082 275.174 78.0632C275.791 78.3182 276.317 78.7502 276.688 79.3047C277.059 79.8591 277.256 80.5111 277.256 81.178C277.256 82.0711 276.902 82.9277 276.271 83.5597C275.64 84.1917 274.784 84.5475 273.891 84.5489Z" fill="#DBE9FF"/>
<path d="M273.891 76.4901C272.961 76.4901 272.051 76.766 271.278 77.2828C270.504 77.7996 269.902 78.5342 269.546 79.3937C269.19 80.2531 269.096 81.1989 269.278 82.1113C269.459 83.0237 269.907 83.8618 270.565 84.5196C271.223 85.1774 272.061 85.6253 272.973 85.8068C273.886 85.9883 274.832 85.8952 275.691 85.5392C276.55 85.1832 277.285 84.5803 277.802 83.8068C278.319 83.0333 278.595 82.1239 278.595 81.1937C278.595 79.9462 278.099 78.7498 277.217 77.8677C276.335 76.9857 275.138 76.4901 273.891 76.4901ZM273.891 84.0419C273.325 84.0419 272.771 83.8739 272.3 83.5593C271.829 83.2446 271.462 82.7973 271.245 82.274C271.028 81.7506 270.972 81.1748 271.082 80.6192C271.193 80.0637 271.465 79.5534 271.866 79.1529C272.266 78.7523 272.777 78.4796 273.332 78.3691C273.888 78.2586 274.464 78.3153 274.987 78.532C275.51 78.7488 275.958 79.1159 276.272 79.5869C276.587 80.0578 276.755 80.6115 276.755 81.178C276.755 81.9375 276.453 82.666 275.916 83.2031C275.379 83.7402 274.651 84.0419 273.891 84.0419Z" fill="#407BFF"/>
<path d="M293.126 89.0329H292.008C291.904 88.5971 291.727 88.1819 291.485 87.8048L292.28 87.0104C292.305 86.9847 292.326 86.9541 292.34 86.9205C292.354 86.8869 292.361 86.8508 292.361 86.8144C292.361 86.778 292.354 86.7419 292.34 86.7083C292.326 86.6747 292.305 86.6441 292.28 86.6184L291.396 85.7352C291.371 85.7094 291.34 85.689 291.307 85.6751C291.273 85.6611 291.237 85.6539 291.201 85.6539C291.164 85.6539 291.128 85.6611 291.094 85.6751C291.061 85.689 291.03 85.7094 291.005 85.7352L290.21 86.5296C289.833 86.2877 289.418 86.111 288.982 86.007V84.8886C288.982 84.8151 288.953 84.7446 288.901 84.6927C288.849 84.6408 288.779 84.6116 288.705 84.6116H287.456C287.383 84.6116 287.312 84.6408 287.26 84.6927C287.208 84.7446 287.179 84.8151 287.179 84.8886V86.007C286.744 86.112 286.329 86.2886 285.951 86.5296L285.172 85.7352C285.146 85.7094 285.116 85.689 285.082 85.6751C285.049 85.6611 285.013 85.6539 284.976 85.6539C284.94 85.6539 284.904 85.6611 284.87 85.6751C284.836 85.689 284.806 85.7094 284.78 85.7352L283.897 86.6184C283.846 86.671 283.818 86.7413 283.818 86.8144C283.818 86.8875 283.846 86.9578 283.897 87.0104L284.691 87.8048C284.447 88.1807 284.27 88.5963 284.169 89.0329H283.082C283.008 89.0329 282.938 89.0621 282.886 89.114C282.834 89.166 282.805 89.2364 282.805 89.3099V90.5589C282.805 90.6324 282.834 90.7029 282.886 90.7548C282.938 90.8068 283.008 90.8359 283.082 90.8359H284.205C284.308 91.2722 284.485 91.6876 284.728 92.0641L283.934 92.8585C283.883 92.9111 283.854 92.9813 283.854 93.0544C283.854 93.1275 283.883 93.1978 283.934 93.2504L284.817 94.1336C284.869 94.1844 284.94 94.2128 285.013 94.2128C285.086 94.2128 285.156 94.1844 285.209 94.1336L286.003 93.3393C286.38 93.5825 286.795 93.7593 287.231 93.8619V94.9855C287.231 95.059 287.26 95.1294 287.312 95.1814C287.364 95.2333 287.435 95.2625 287.508 95.2625H288.757C288.831 95.2625 288.901 95.2333 288.953 95.1814C289.005 95.1294 289.034 95.059 289.034 94.9855V93.8619C289.471 93.7603 289.886 93.5834 290.262 93.3393L291.057 94.1336C291.109 94.1844 291.18 94.2128 291.253 94.2128C291.326 94.2128 291.396 94.1844 291.449 94.1336L292.332 93.2504C292.358 93.2247 292.378 93.1941 292.392 93.1605C292.406 93.1269 292.413 93.0908 292.413 93.0544C292.413 93.018 292.406 92.982 292.392 92.9484C292.378 92.9147 292.358 92.8842 292.332 92.8585L291.496 92.085C291.737 91.7073 291.913 91.2923 292.018 90.8568H293.137C293.21 90.8568 293.281 90.8277 293.333 90.7757C293.385 90.7238 293.414 90.6533 293.414 90.5798V89.3308C293.417 89.2918 293.412 89.2526 293.398 89.2158C293.385 89.179 293.364 89.1455 293.337 89.1173C293.31 89.0892 293.277 89.0671 293.241 89.0526C293.204 89.038 293.165 89.0313 293.126 89.0329ZM288.094 91.646C287.752 91.647 287.418 91.5468 287.134 91.3579C286.85 91.169 286.628 90.9 286.496 90.585C286.365 90.2699 286.33 89.923 286.396 89.5881C286.462 89.2532 286.626 88.9454 286.867 88.7037C287.108 88.462 287.415 88.2972 287.75 88.2303C288.085 88.1633 288.432 88.1971 288.747 88.3275C289.063 88.4579 289.332 88.6789 289.522 88.9627C289.712 89.2464 289.813 89.58 289.813 89.9214C289.814 90.1483 289.771 90.3732 289.685 90.5833C289.599 90.7935 289.473 90.9846 289.313 91.1458C289.154 91.307 288.964 91.435 288.754 91.5227C288.545 91.6103 288.321 91.6558 288.094 91.6564V91.646Z" fill="#DBE9FF"/>
<path d="M288.092 87.5382C287.617 87.5372 287.152 87.6771 286.757 87.9403C286.362 88.2035 286.053 88.5781 285.871 89.0166C285.689 89.4552 285.641 89.9379 285.733 90.4037C285.826 90.8695 286.054 91.2974 286.39 91.6332C286.726 91.969 287.154 92.1976 287.62 92.29C288.085 92.3824 288.568 92.3344 289.007 92.1522C289.445 91.97 289.82 91.6617 290.083 91.2665C290.346 90.8712 290.486 90.4067 290.485 89.9318C290.485 89.6175 290.423 89.3062 290.303 89.0158C290.183 88.7254 290.006 88.4615 289.784 88.2393C289.562 88.017 289.298 87.8407 289.008 87.7204C288.717 87.6001 288.406 87.5382 288.092 87.5382ZM288.092 91.3951C287.802 91.3951 287.519 91.3093 287.279 91.1485C287.038 90.9877 286.85 90.7592 286.74 90.4918C286.629 90.2244 286.6 89.9302 286.656 89.6463C286.713 89.3625 286.852 89.1017 287.057 88.8971C287.261 88.6924 287.522 88.5531 287.806 88.4966C288.09 88.4401 288.384 88.4691 288.652 88.5799C288.919 88.6906 289.147 88.8782 289.308 89.1188C289.469 89.3595 289.555 89.6424 289.555 89.9318C289.555 90.3199 289.401 90.6921 289.126 90.9665C288.852 91.2409 288.48 91.3951 288.092 91.3951Z" fill="#407BFF"/>
<path d="M187.26 42.0845C198.448 37.5847 203.87 24.8671 199.37 13.679C194.87 2.49096 182.153 -2.93092 170.965 1.56893C159.777 6.06877 154.355 18.7863 158.855 29.9744C163.355 41.1625 176.072 46.5844 187.26 42.0845Z" fill="#FF6C37"/>
<path d="M168.277 33.0607H189.955C190.908 33.0607 191.68 32.2885 191.68 31.336V13.3006C191.68 12.3481 190.908 11.5759 189.955 11.5759L168.277 11.5759C167.324 11.5759 166.552 12.3481 166.552 13.3006V31.336C166.552 32.2885 167.324 33.0607 168.277 33.0607Z" fill="white"/>
<path d="M166.535 16.0704H191.673V13.3006C191.673 12.8427 191.491 12.4035 191.168 12.0792C190.845 11.755 190.406 11.5721 189.948 11.5707H168.275C168.047 11.5693 167.821 11.6131 167.61 11.6994C167.399 11.7857 167.207 11.9129 167.046 12.0737C166.884 12.2344 166.755 12.4256 166.668 12.6362C166.58 12.8467 166.535 13.0725 166.535 13.3006V16.0704Z" fill="#407BFF"/>
<path d="M185.675 12.5323C185.814 12.5323 185.947 12.4773 186.045 12.3792C186.143 12.2812 186.198 12.1483 186.198 12.0097V11.1212C186.198 10.9826 186.143 10.8497 186.045 10.7517C185.947 10.6537 185.814 10.5986 185.675 10.5986C185.536 10.5986 185.403 10.6537 185.305 10.7517C185.207 10.8497 185.152 10.9826 185.152 11.1212V12.0201C185.155 12.1569 185.211 12.2872 185.309 12.383C185.407 12.4787 185.538 12.5323 185.675 12.5323Z" fill="white"/>
<path d="M187.132 12.5323C187.271 12.5323 187.404 12.4773 187.502 12.3792C187.6 12.2812 187.655 12.1483 187.655 12.0097V11.1212C187.655 10.9826 187.6 10.8497 187.502 10.7517C187.404 10.6537 187.271 10.5986 187.132 10.5986C186.993 10.5986 186.86 10.6537 186.762 10.7517C186.664 10.8497 186.609 10.9826 186.609 11.1212V12.0201C186.612 12.1569 186.668 12.2872 186.766 12.383C186.864 12.4787 186.995 12.5323 187.132 12.5323Z" fill="white"/>
<path d="M171.093 12.5323C171.232 12.5323 171.364 12.4773 171.462 12.3792C171.56 12.2812 171.616 12.1483 171.616 12.0097V11.1212C171.616 10.9826 171.56 10.8497 171.462 10.7517C171.364 10.6537 171.232 10.5986 171.093 10.5986C170.954 10.5986 170.821 10.6537 170.723 10.7517C170.625 10.8497 170.57 10.9826 170.57 11.1212V12.0201C170.573 12.1569 170.629 12.2872 170.727 12.383C170.825 12.4787 170.956 12.5323 171.093 12.5323Z" fill="white"/>
<path d="M172.554 12.5323C172.692 12.5323 172.825 12.4773 172.923 12.3792C173.021 12.2812 173.076 12.1483 173.076 12.0097V11.1212C173.076 10.9826 173.021 10.8497 172.923 10.7517C172.825 10.6537 172.692 10.5986 172.554 10.5986C172.415 10.5986 172.282 10.6537 172.184 10.7517C172.086 10.8497 172.031 10.9826 172.031 11.1212V12.0201C172.034 12.1569 172.09 12.2872 172.188 12.383C172.286 12.4787 172.417 12.5323 172.554 12.5323Z" fill="white"/>
<path d="M182.052 18.741H180.698C180.47 18.741 180.285 18.9259 180.285 19.1539V20.5075C180.285 20.7355 180.47 20.9203 180.698 20.9203H182.052C182.28 20.9203 182.464 20.7355 182.464 20.5075V19.1539C182.464 18.9259 182.28 18.741 182.052 18.741Z" fill="#DBE9FF"/>
<path d="M176.876 18.741H175.522C175.294 18.741 175.109 18.9259 175.109 19.1539V20.5075C175.109 20.7355 175.294 20.9203 175.522 20.9203H176.876C177.104 20.9203 177.289 20.7355 177.289 20.5075V19.1539C177.289 18.9259 177.104 18.741 176.876 18.741Z" fill="#DBE9FF"/>
<path d="M171.696 18.741H170.343C170.115 18.741 169.93 18.9259 169.93 19.1539V20.5075C169.93 20.7355 170.115 20.9203 170.343 20.9203H171.696C171.924 20.9203 172.109 20.7355 172.109 20.5075V19.1539C172.109 18.9259 171.924 18.741 171.696 18.741Z" fill="#DBE9FF"/>
<path d="M187.226 23.2042H185.878C185.65 23.2042 185.465 23.389 185.465 23.617V24.9706C185.465 25.1986 185.65 25.3835 185.878 25.3835H187.226C187.454 25.3835 187.639 25.1986 187.639 24.9706V23.617C187.639 23.389 187.454 23.2042 187.226 23.2042Z" fill="#DBE9FF"/>
<path d="M182.052 23.2042H180.698C180.47 23.2042 180.285 23.389 180.285 23.617V24.9706C180.285 25.1986 180.47 25.3835 180.698 25.3835H182.052C182.28 25.3835 182.464 25.1986 182.464 24.9706V23.617C182.464 23.389 182.28 23.2042 182.052 23.2042Z" fill="#DBE9FF"/>
<path d="M176.876 23.2042H175.522C175.294 23.2042 175.109 23.389 175.109 23.617V24.9706C175.109 25.1986 175.294 25.3835 175.522 25.3835H176.876C177.104 25.3835 177.289 25.1986 177.289 24.9706V23.617C177.289 23.389 177.104 23.2042 176.876 23.2042Z" fill="#DBE9FF"/>
<path d="M171.696 23.2042H170.343C170.115 23.2042 169.93 23.389 169.93 23.617V24.9706C169.93 25.1986 170.115 25.3835 170.343 25.3835H171.696C171.924 25.3835 172.109 25.1986 172.109 24.9706V23.617C172.109 23.389 171.924 23.2042 171.696 23.2042Z" fill="#DBE9FF"/>
<path d="M187.226 27.662H185.878C185.65 27.662 185.465 27.8469 185.465 28.0749V29.4285C185.465 29.6565 185.65 29.8414 185.878 29.8414H187.226C187.454 29.8414 187.639 29.6565 187.639 29.4285V28.0749C187.639 27.8469 187.454 27.662 187.226 27.662Z" fill="#DBE9FF"/>
<path d="M182.052 27.662H180.698C180.47 27.662 180.285 27.8469 180.285 28.0749V29.4285C180.285 29.6565 180.47 29.8414 180.698 29.8414H182.052C182.28 29.8414 182.464 29.6565 182.464 29.4285V28.0749C182.464 27.8469 182.28 27.662 182.052 27.662Z" fill="#DBE9FF"/>
<path d="M176.876 27.662H175.522C175.294 27.662 175.109 27.8469 175.109 28.0749V29.4285C175.109 29.6565 175.294 29.8414 175.522 29.8414H176.876C177.104 29.8414 177.289 29.6565 177.289 29.4285V28.0749C177.289 27.8469 177.104 27.662 176.876 27.662Z" fill="#DBE9FF"/>
<path d="M257.065 48.498C265.592 39.971 265.592 26.1459 257.065 17.6188C248.538 9.09175 234.713 9.09175 226.186 17.6188C217.659 26.1459 217.659 39.971 226.186 48.498C234.713 57.0251 248.538 57.0251 257.065 48.498Z" fill="#FF6C37"/>
<path d="M252.202 43.6349C258.043 37.7937 258.043 28.3233 252.202 22.4821C246.361 16.6409 236.89 16.6409 231.049 22.4821C225.208 28.3233 225.208 37.7937 231.049 43.6349C236.89 49.476 246.361 49.476 252.202 43.6349Z" fill="white"/>
<path d="M241.621 18.1035C238.663 18.1035 235.771 18.9808 233.311 20.6246C230.851 22.2683 228.934 24.6046 227.802 27.338C226.67 30.0714 226.374 33.0791 226.952 35.9807C227.529 38.8822 228.954 41.5474 231.047 43.639C233.139 45.7306 235.805 47.1547 238.707 47.7312C241.608 48.3078 244.616 48.0108 247.349 46.878C250.082 45.7451 252.418 43.8271 254.06 41.3667C255.703 38.9063 256.58 36.014 256.579 33.0555C256.579 31.0915 256.192 29.1468 255.44 27.3324C254.688 25.518 253.586 23.8695 252.197 22.481C250.808 21.0925 249.16 19.9912 247.345 19.2401C245.53 18.489 243.585 18.1028 241.621 18.1035ZM242.876 45.8021V43.7587C242.876 43.6683 242.859 43.5788 242.825 43.4951C242.791 43.4114 242.741 43.3353 242.677 43.2712C242.613 43.2071 242.538 43.1562 242.454 43.1214C242.371 43.0867 242.281 43.0688 242.191 43.0688H241.057C240.967 43.0688 240.877 43.0867 240.794 43.1214C240.71 43.1562 240.635 43.2071 240.571 43.2712C240.507 43.3353 240.457 43.4114 240.423 43.4951C240.389 43.5788 240.372 43.6683 240.372 43.7587V45.8021C237.421 45.5126 234.662 44.2083 232.565 42.1115C230.469 40.0148 229.164 37.2556 228.875 34.3046H230.918C231.1 34.3046 231.275 34.2326 231.404 34.1044C231.533 33.9761 231.607 33.802 231.608 33.6199V32.5068C231.608 32.4162 231.59 32.3265 231.556 32.2428C231.521 32.1591 231.47 32.083 231.406 32.019C231.342 31.9549 231.266 31.9041 231.182 31.8694C231.098 31.8347 231.009 31.8169 230.918 31.8169H228.875C229.164 28.8659 230.469 26.1066 232.565 24.0099C234.662 21.9132 237.421 20.6088 240.372 20.3193V22.3628C240.372 22.4529 240.389 22.5422 240.423 22.6256C240.457 22.709 240.508 22.7847 240.571 22.8484C240.635 22.9121 240.711 22.9625 240.794 22.9967C240.877 23.0309 240.967 23.0481 241.057 23.0474H242.191C242.281 23.0481 242.37 23.0309 242.454 22.9967C242.537 22.9625 242.613 22.9121 242.677 22.8484C242.74 22.7847 242.791 22.709 242.825 22.6256C242.859 22.5422 242.876 22.4529 242.876 22.3628V20.3141C245.827 20.6036 248.586 21.908 250.683 24.0047C252.779 26.1014 254.084 28.8606 254.373 31.8117H252.33C252.239 31.8117 252.149 31.8295 252.066 31.8642C251.982 31.8989 251.906 31.9497 251.842 32.0137C251.778 32.0778 251.727 32.1538 251.692 32.2375C251.658 32.3212 251.64 32.4109 251.64 32.5015V33.6356C251.641 33.8177 251.715 33.9918 251.844 34.12C251.973 34.2483 252.148 34.3202 252.33 34.3202H254.373C254.08 37.2685 252.774 40.024 250.678 42.1176C248.582 44.2111 245.824 45.5132 242.876 45.8021Z" fill="#407BFF"/>
<path d="M233.329 35.9324V35.4211L235.249 33.3188C235.475 33.0726 235.66 32.8586 235.806 32.6768C235.952 32.493 236.06 32.3207 236.13 32.1597C236.202 31.9968 236.238 31.8264 236.238 31.6483C236.238 31.4438 236.189 31.2667 236.09 31.1171C235.994 30.9675 235.861 30.8519 235.692 30.7705C235.524 30.6891 235.335 30.6483 235.124 30.6483C234.901 30.6483 234.706 30.6947 234.539 30.7875C234.374 30.8785 234.246 31.0063 234.156 31.1711C234.067 31.3358 234.022 31.529 234.022 31.7506H233.352C233.352 31.4097 233.43 31.1105 233.587 30.8529C233.745 30.5953 233.959 30.3946 234.229 30.2506C234.502 30.1067 234.808 30.0347 235.147 30.0347C235.488 30.0347 235.79 30.1067 236.053 30.2506C236.317 30.3946 236.523 30.5887 236.673 30.833C236.822 31.0773 236.897 31.3491 236.897 31.6483C236.897 31.8624 236.858 32.0716 236.781 32.2762C236.705 32.4788 236.572 32.7052 236.383 32.9552C236.195 33.2033 235.935 33.5063 235.602 33.8643L234.295 35.262V35.3074H236.999V35.9324H233.329ZM237.911 34.7393V34.1597L240.468 30.1143H240.888V31.012H240.604L238.673 34.0688V34.1143H242.116V34.7393H237.911ZM240.65 35.9324V34.5631V34.2932V30.1143H241.32V35.9324H240.65ZM245.249 29.8415L243.374 36.8074H242.76L244.635 29.8415H245.249ZM246.214 35.9324L248.816 30.7847V30.7393H245.816V30.1143H249.543V30.7733L246.952 35.9324H246.214Z" fill="black"/>
</g>
<defs>
<clipPath id="clip0_1195_16274">
<rect width="299.464" height="200" fill="white"/>
</clipPath>
</defs>
</svg>
