<svg width="276" height="200" viewBox="0 0 276 200" fill="none" xmlns="http://www.w3.org/2000/svg">
<g clip-path="url(#clip0_1076_11252)">
<path d="M53.0954 172.081C53.0954 172.081 12.509 155.057 13.4477 120.704C14.3864 86.3516 52.4731 80.9829 78.5779 102.183C104.683 123.384 129.859 117.118 143.392 99.1983C156.924 81.2783 165.932 36.5783 203.797 51.735C232.032 63.0207 250.975 93.2918 257.103 120.578C261.322 139.331 255.215 159.15 240.502 171.522C240.027 171.923 239.531 172.324 239.036 172.714L53.0954 172.081Z" fill="#EAEBFB"/>
<path d="M94.388 98.3335C94.388 98.3335 85.4966 172.292 141.05 131.853C186.636 98.6605 251.27 102.415 252.599 182.312C252.599 182.312 275.972 183.314 273.894 142.896C271.817 102.479 253.148 10.1361 199.187 20.5464C145.227 30.9567 94.388 98.3335 94.388 98.3335Z" fill="#E1E2F5"/>
<path d="M103.681 36.6205L152.905 36.8209C154.457 36.8316 155.99 37.1601 157.41 37.7862C158.83 38.4123 160.107 39.3226 161.161 40.4612C162.216 41.5997 163.026 42.9422 163.542 44.4059C164.057 45.8696 164.268 47.4235 164.159 48.9716L156.164 162.356C155.964 165.177 154.703 167.817 152.634 169.744C150.566 171.672 147.843 172.745 145.016 172.745H95C93.4617 172.745 91.9399 172.428 90.5298 171.813C89.1198 171.197 87.8519 170.298 86.8055 169.17C85.759 168.043 84.9565 166.711 84.4482 165.259C83.9399 163.807 83.7368 162.266 83.8514 160.732L92.2893 47.1258C92.5056 44.258 93.8015 41.579 95.9157 39.6293C98.0298 37.6796 100.805 36.6044 103.681 36.6205Z" fill="#F2F3FF"/>
<path d="M103.681 36.6205L152.905 36.8209C154.457 36.8316 155.99 37.1601 157.41 37.7862C158.83 38.4123 160.107 39.3226 161.161 40.4612C162.216 41.5997 163.026 42.9422 163.542 44.4059C164.057 45.8696 164.268 47.4235 164.159 48.9716L156.164 162.356C155.964 165.177 154.703 167.817 152.634 169.744C150.566 171.672 147.843 172.745 145.016 172.745H95C93.4617 172.745 91.9399 172.428 90.5298 171.813C89.1198 171.197 87.8519 170.298 86.8055 169.17C85.759 168.043 84.9565 166.711 84.4482 165.259C83.9399 163.807 83.7368 162.266 83.8514 160.732L92.2893 47.1258C92.5056 44.258 93.8015 41.579 95.9157 39.6293C98.0298 37.6796 100.805 36.6044 103.681 36.6205Z" fill="#D9DDFB"/>
<path d="M98.1435 36.6206L147.368 36.821C148.922 36.8272 150.459 37.1526 151.882 37.7769C153.305 38.4011 154.585 39.3111 155.642 40.4502C156.699 41.5894 157.511 42.9336 158.027 44.3994C158.543 45.8652 158.753 47.4214 158.643 48.9716L150.659 162.356C150.457 165.176 149.194 167.814 147.126 169.742C145.058 171.669 142.337 172.742 139.51 172.745H89.4629C87.925 172.746 86.4036 172.428 84.9941 171.813C83.5846 171.197 82.3173 170.298 81.2717 169.17C80.2261 168.042 79.4246 166.71 78.9176 165.259C78.4105 163.807 78.2087 162.266 78.3249 160.732L86.7628 47.1258C86.9741 44.2581 88.267 41.5777 90.38 39.6273C92.4929 37.6769 95.268 36.6021 98.1435 36.6206Z" fill="#455A64"/>
<path d="M94.4199 46.9993H150.711L143.94 155.152L87.4375 155.574L94.4199 46.9993Z" fill="white"/>
<path d="M113.196 169.138C112.09 169.138 111.009 168.81 110.09 168.196C109.171 167.582 108.454 166.709 108.031 165.687C107.608 164.666 107.497 163.542 107.713 162.458C107.929 161.373 108.461 160.377 109.243 159.595C110.025 158.814 111.021 158.281 112.105 158.065C113.189 157.85 114.313 157.96 115.335 158.384C116.356 158.807 117.229 159.523 117.844 160.442C118.458 161.362 118.786 162.443 118.786 163.548C118.786 165.031 118.197 166.453 117.148 167.501C116.1 168.549 114.678 169.138 113.196 169.138ZM113.196 158.749C112.243 158.747 111.312 159.028 110.52 159.555C109.727 160.083 109.109 160.834 108.744 161.713C108.378 162.593 108.282 163.56 108.467 164.494C108.653 165.428 109.111 166.286 109.784 166.96C110.457 167.633 111.315 168.091 112.249 168.276C113.183 168.462 114.151 168.365 115.03 168C115.91 167.635 116.661 167.017 117.188 166.224C117.716 165.432 117.997 164.5 117.995 163.548C117.984 162.282 117.473 161.071 116.575 160.178C115.676 159.286 114.462 158.783 113.196 158.781V158.749Z" fill="#263238"/>
<path d="M127.729 43.0018H118.289C118.164 43.0018 118.039 42.9769 117.923 42.9285C117.808 42.8802 117.702 42.8093 117.614 42.72C117.526 42.6308 117.456 42.5249 117.409 42.4085C117.362 42.2921 117.339 42.1675 117.34 42.042C117.339 41.9164 117.362 41.7919 117.409 41.6755C117.456 41.5591 117.526 41.4532 117.614 41.3639C117.702 41.2746 117.808 41.2038 117.923 41.1554C118.039 41.107 118.164 41.0821 118.289 41.0822H127.729C127.984 41.0822 128.228 41.1833 128.408 41.3633C128.588 41.5433 128.689 41.7874 128.689 42.042C128.689 42.2965 128.588 42.5407 128.408 42.7207C128.228 42.9007 127.984 43.0018 127.729 43.0018Z" fill="#37474F"/>
<path d="M143.814 74.876H98.1225C97.8391 74.8762 97.5587 74.8193 97.2978 74.7087C97.0369 74.5981 96.801 74.4361 96.6041 74.2323C96.4072 74.0286 96.2534 73.7872 96.1519 73.5227C96.0503 73.2582 96.0031 72.9759 96.013 72.6927L96.6247 60.2995C96.6596 59.7642 96.8972 59.2622 97.289 58.8958C97.6809 58.5294 98.1977 58.326 98.7342 58.3272H144.426C144.709 58.327 144.989 58.3839 145.25 58.4945C145.511 58.6051 145.747 58.7671 145.944 58.9709C146.141 59.1747 146.295 59.416 146.396 59.6805C146.498 59.945 146.545 60.2273 146.535 60.5105L145.923 72.9037C145.888 73.4391 145.651 73.941 145.259 74.3074C144.867 74.6739 144.35 74.8772 143.814 74.876Z" fill="#D9DDFB"/>
<path d="M131.21 74.9182H143.814C144.349 74.9196 144.864 74.7177 145.256 74.3535C145.648 73.9893 145.886 73.4899 145.924 72.9564L146.546 60.4999C146.554 60.2176 146.506 59.9365 146.404 59.6732C146.302 59.4099 146.148 59.1699 145.951 58.9672C145.754 58.7646 145.519 58.6035 145.259 58.4936C144.999 58.3836 144.719 58.327 144.436 58.3272H131.832C131.298 58.3258 130.782 58.5277 130.391 58.8919C129.999 59.2561 129.76 59.7555 129.723 60.289L129.101 72.7455C129.092 73.0278 129.14 73.3089 129.243 73.5722C129.345 73.8355 129.499 74.0755 129.696 74.2782C129.892 74.4808 130.128 74.6419 130.388 74.7518C130.648 74.8618 130.928 74.9184 131.21 74.9182Z" fill="#C7CBE8"/>
<path d="M126.949 62.5356H100.96C100.914 62.544 100.867 62.5423 100.822 62.5306C100.777 62.5188 100.736 62.4974 100.7 62.4677C100.664 62.438 100.636 62.4008 100.616 62.3588C100.596 62.3167 100.586 62.2709 100.586 62.2244C100.586 62.178 100.596 62.1322 100.616 62.0901C100.636 62.0481 100.664 62.0109 100.7 61.9812C100.736 61.9515 100.777 61.93 100.822 61.9183C100.867 61.9066 100.914 61.9049 100.96 61.9133H126.949C126.994 61.9049 127.041 61.9066 127.086 61.9183C127.131 61.93 127.173 61.9515 127.209 61.9812C127.244 62.0109 127.273 62.0481 127.293 62.0901C127.312 62.1322 127.323 62.178 127.323 62.2244C127.323 62.2709 127.312 62.3167 127.293 62.3588C127.273 62.4008 127.244 62.438 127.209 62.4677C127.173 62.4974 127.131 62.5188 127.086 62.5306C127.041 62.5423 126.994 62.544 126.949 62.5356Z" fill="#8992C6"/>
<path d="M126.749 66.6806H100.749C100.668 66.6806 100.59 66.6484 100.533 66.5911C100.476 66.5337 100.443 66.4559 100.443 66.3748C100.443 66.2927 100.475 66.2137 100.532 66.1547C100.589 66.0956 100.667 66.0611 100.749 66.0583H126.749C126.831 66.0611 126.908 66.0956 126.966 66.1547C127.023 66.2137 127.055 66.2927 127.054 66.3748C127.054 66.4559 127.022 66.5337 126.965 66.5911C126.908 66.6484 126.83 66.6806 126.749 66.6806Z" fill="#8992C6"/>
<path d="M113.384 70.8259H100.548C100.467 70.8259 100.389 70.7936 100.332 70.7363C100.274 70.6789 100.242 70.6011 100.242 70.52C100.242 70.4389 100.274 70.3611 100.332 70.3037C100.389 70.2463 100.467 70.2141 100.548 70.2141H113.384C113.465 70.2141 113.543 70.2463 113.601 70.3037C113.658 70.3611 113.69 70.4389 113.69 70.52C113.69 70.6011 113.658 70.6789 113.601 70.7363C113.543 70.7936 113.465 70.8259 113.384 70.8259Z" fill="#8992C6"/>
<path d="M142.201 98.3124H96.5092C96.2259 98.3125 95.9454 98.2556 95.6846 98.145C95.4237 98.0344 95.1877 97.8724 94.9909 97.6686C94.794 97.4649 94.6402 97.2235 94.5386 96.959C94.4371 96.6945 94.3898 96.4122 94.3997 96.1291L95.0115 83.7359C95.0438 83.1986 95.2802 82.694 95.6724 82.3254C96.0645 81.9568 96.5828 81.752 97.121 81.7529H142.812C143.096 81.7528 143.376 81.8097 143.637 81.9203C143.898 82.0309 144.134 82.1929 144.331 82.3967C144.528 82.6004 144.681 82.8418 144.783 83.1063C144.885 83.3708 144.932 83.6531 144.922 83.9362L144.31 96.3294C144.278 96.8667 144.041 97.3713 143.649 97.7399C143.257 98.1085 142.739 98.3133 142.201 98.3124Z" fill="#D9DDFB"/>
<path d="M129.586 98.344H142.243C142.778 98.3453 143.293 98.1435 143.685 97.7792C144.076 97.415 144.315 96.9157 144.352 96.3822L144.975 83.9257C144.983 83.6434 144.935 83.3623 144.833 83.099C144.73 82.8357 144.576 82.5956 144.38 82.393C144.183 82.1904 143.947 82.0293 143.687 81.9193C143.427 81.8094 143.148 81.7528 142.865 81.7529H130.208C129.672 81.7518 129.155 81.9551 128.763 82.3215C128.371 82.688 128.134 83.1899 128.099 83.7253L127.487 96.1818C127.48 96.4623 127.529 96.7415 127.631 97.0028C127.733 97.2642 127.887 97.5025 128.082 97.7039C128.278 97.9052 128.511 98.0656 128.77 98.1755C129.028 98.2854 129.305 98.3427 129.586 98.344Z" fill="#C7CBE8"/>
<path d="M125.336 86.0036H99.3469C99.2657 86.0036 99.188 85.9714 99.1306 85.914C99.0732 85.8566 99.041 85.7789 99.041 85.6977C99.041 85.6166 99.0732 85.5388 99.1306 85.4814C99.188 85.4241 99.2657 85.3918 99.3469 85.3918H125.336C125.417 85.3918 125.495 85.4241 125.552 85.4814C125.609 85.5388 125.642 85.6166 125.642 85.6977C125.642 85.7789 125.609 85.8566 125.552 85.914C125.495 85.9714 125.417 86.0036 125.336 86.0036Z" fill="#8992C6"/>
<path d="M125.135 90.117H99.136C99.0539 90.1143 98.9761 90.0798 98.919 90.0207C98.8619 89.9617 98.83 89.8828 98.8301 89.8006C98.8301 89.7605 98.838 89.7207 98.8534 89.6836C98.8687 89.6465 98.8913 89.6127 98.9197 89.5843C98.9481 89.5559 98.9818 89.5334 99.0189 89.518C99.056 89.5027 99.0958 89.4948 99.136 89.4948H125.135C125.175 89.4948 125.215 89.5027 125.252 89.518C125.29 89.5334 125.323 89.5559 125.352 89.5843C125.38 89.6127 125.403 89.6465 125.418 89.6836C125.433 89.7207 125.441 89.7605 125.441 89.8006C125.441 89.8828 125.409 89.9617 125.352 90.0207C125.295 90.0798 125.217 90.1143 125.135 90.117Z" fill="#8992C6"/>
<path d="M111.771 94.2622H98.9345C98.8889 94.2707 98.8419 94.2689 98.797 94.2572C98.7521 94.2455 98.7103 94.224 98.6746 94.1943C98.6389 94.1646 98.6102 94.1274 98.5905 94.0854C98.5708 94.0433 98.5605 93.9975 98.5605 93.9511C98.5605 93.9046 98.5708 93.8588 98.5905 93.8167C98.6102 93.7747 98.6389 93.7375 98.6746 93.7078C98.7103 93.6781 98.7521 93.6567 98.797 93.6449C98.8419 93.6332 98.8889 93.6315 98.9345 93.6399H111.771C111.816 93.6315 111.863 93.6332 111.908 93.6449C111.953 93.6567 111.995 93.6781 112.031 93.7078C112.066 93.7375 112.095 93.7747 112.115 93.8167C112.134 93.8588 112.145 93.9046 112.145 93.9511C112.145 93.9975 112.134 94.0433 112.115 94.0854C112.095 94.1274 112.066 94.1646 112.031 94.1943C111.995 94.224 111.953 94.2455 111.908 94.2572C111.863 94.2689 111.816 94.2707 111.771 94.2622Z" fill="#8992C6"/>
<path d="M94.4203 46.9992L87.438 155.574H86.2988L93.3023 46.9992H94.4203Z" fill="#ABB0D3"/>
<path d="M142.295 67.0182C142.225 68.0409 141.854 69.0199 141.228 69.8314C140.602 70.6429 139.749 71.2503 138.777 71.5767C137.806 71.9032 136.759 71.9339 135.77 71.6651C134.781 71.3963 133.894 70.8401 133.221 70.0667C132.548 69.2934 132.12 68.3379 131.991 67.321C131.861 66.3042 132.037 65.2719 132.494 64.3548C132.952 63.4377 133.672 62.6771 134.562 62.1692C135.452 61.6613 136.473 61.4291 137.496 61.5019C138.863 61.5993 140.136 62.2345 141.035 63.2685C141.935 64.3025 142.388 65.6508 142.295 67.0182Z" fill="white"/>
<path d="M136.208 68.6741C136.099 68.6637 135.996 68.6194 135.913 68.5476L134.173 66.8389C134.086 66.7502 134.037 66.6309 134.037 66.5066C134.037 66.3824 134.086 66.2631 134.173 66.1744C134.26 66.0881 134.377 66.0396 134.5 66.0396C134.622 66.0396 134.74 66.0881 134.827 66.1744L136.272 67.5877L139.584 64.9087C139.68 64.8318 139.803 64.7963 139.926 64.8102C140.049 64.824 140.161 64.886 140.238 64.9825C140.314 65.0791 140.35 65.2022 140.336 65.3248C140.322 65.4474 140.26 65.5595 140.164 65.6365L136.535 68.5581C136.492 68.5995 136.441 68.6313 136.384 68.6513C136.328 68.6713 136.268 68.6791 136.208 68.6741Z" fill="#C7CBE8"/>
<path d="M141.082 90.4651C141.013 91.4873 140.642 92.4661 140.016 93.2775C139.391 94.0889 138.538 94.6965 137.567 95.0234C136.596 95.3503 135.55 95.3818 134.561 95.1139C133.572 94.8461 132.685 94.2909 132.012 93.5186C131.338 92.7464 130.909 91.7917 130.779 90.7755C130.648 89.7593 130.822 88.7271 131.278 87.8097C131.734 86.8922 132.452 86.1307 133.341 85.6215C134.23 85.1122 135.25 84.8781 136.272 84.9488C136.951 84.9943 137.613 85.1732 138.222 85.4753C138.832 85.7773 139.375 86.1966 139.822 86.709C140.269 87.2214 140.61 87.817 140.826 88.4615C141.042 89.106 141.129 89.7869 141.082 90.4651Z" fill="white"/>
<path d="M134.997 92.1C134.941 92.0998 134.887 92.0885 134.836 92.0667C134.785 92.045 134.739 92.0133 134.701 91.9734L132.961 90.2225C132.875 90.1356 132.826 90.0181 132.826 89.8956C132.826 89.7731 132.875 89.6555 132.961 89.5686C133.003 89.5246 133.054 89.4896 133.11 89.4656C133.166 89.4417 133.227 89.4294 133.288 89.4294C133.349 89.4294 133.409 89.4417 133.466 89.4656C133.522 89.4896 133.573 89.5246 133.615 89.5686L135.06 90.9925L138.372 88.324C138.418 88.2838 138.472 88.2534 138.531 88.2348C138.589 88.2161 138.651 88.2096 138.712 88.2155C138.773 88.2214 138.833 88.2397 138.887 88.2692C138.94 88.2987 138.988 88.3389 139.026 88.3873C139.064 88.435 139.092 88.4898 139.109 88.5486C139.126 88.6073 139.132 88.6688 139.125 88.7296C139.118 88.7904 139.099 88.8492 139.069 88.9027C139.04 88.9562 139 89.0033 138.952 89.0412L135.313 91.9734C135.228 92.0551 135.115 92.1005 134.997 92.1Z" fill="#C7CBE8"/>
<path d="M34.4262 132.412C34.4262 132.412 33.7617 131.357 32.053 124.481C30.3443 117.604 25.8828 110.99 18.9004 113.427C11.918 115.863 13.922 123.974 17.3605 137.148C19.818 146.535 9.78744 153.802 23.0033 161.101C31.0088 165.51 44.9209 159.572 42.1891 146.229C41.6449 143.513 40.4828 140.957 38.7928 138.762C37.1763 136.761 35.7164 134.638 34.4262 132.412Z" fill="#95B9FC"/>
<path d="M28.9202 173.547C28.8466 173.529 28.7822 173.485 28.7393 173.423C28.6965 173.361 28.6782 173.285 28.6881 173.21C31.8523 152.895 23.1929 125.599 23.1086 125.324C23.0954 125.287 23.0899 125.247 23.0924 125.208C23.0949 125.168 23.1053 125.13 23.123 125.094C23.1407 125.059 23.1654 125.027 23.1955 125.002C23.2256 124.976 23.2606 124.957 23.2984 124.945C23.3753 124.921 23.4583 124.929 23.5293 124.967C23.6004 125.004 23.6538 125.068 23.6781 125.145C23.7625 125.419 32.4852 152.843 29.2893 173.304C29.2764 173.384 29.2325 173.455 29.1673 173.503C29.1022 173.55 29.0209 173.57 28.9413 173.558L28.9202 173.547Z" fill="#648DD6"/>
<path d="M26.1264 136.083C26.0525 136.05 25.9944 135.99 25.9647 135.915C25.9351 135.84 25.9363 135.756 25.9682 135.682C26.8415 133.506 27.5227 131.258 28.0038 128.963C28.0223 128.888 28.0687 128.822 28.1337 128.78C28.1987 128.737 28.2773 128.721 28.3537 128.735C28.4302 128.748 28.4986 128.79 28.5453 128.852C28.592 128.914 28.6133 128.991 28.605 129.069C28.0977 131.406 27.392 133.696 26.4955 135.914C26.4636 135.981 26.4091 136.034 26.3416 136.065C26.2741 136.096 26.1979 136.102 26.1264 136.083Z" fill="#648DD6"/>
<path d="M27.3494 142.158C27.3066 142.152 27.2664 142.133 27.2334 142.105C25.683 140.903 21.8015 138.677 21.7699 138.646C21.7349 138.628 21.704 138.603 21.6789 138.573C21.6539 138.543 21.6354 138.508 21.6245 138.471C21.6136 138.433 21.6106 138.394 21.6157 138.355C21.6207 138.316 21.6337 138.278 21.6538 138.245C21.6725 138.21 21.6982 138.178 21.7293 138.153C21.7604 138.128 21.7962 138.11 21.8347 138.099C21.8731 138.088 21.9134 138.085 21.953 138.09C21.9926 138.095 22.0308 138.109 22.0652 138.129C22.2234 138.224 26.0205 140.407 27.6026 141.631C27.6644 141.68 27.7044 141.752 27.7142 141.831C27.7241 141.91 27.703 141.989 27.6553 142.053C27.6186 142.096 27.5707 142.129 27.5169 142.147C27.4631 142.166 27.4052 142.17 27.3494 142.158Z" fill="#648DD6"/>
<path d="M28.3927 148.086H28.3294C28.2591 148.049 28.205 147.988 28.1777 147.914C28.1504 147.84 28.1518 147.758 28.1817 147.685L30.1646 143.466C30.1805 143.429 30.2037 143.396 30.2327 143.369C30.2617 143.341 30.296 143.32 30.3334 143.306C30.3709 143.293 30.4108 143.286 30.4507 143.288C30.4905 143.291 30.5296 143.301 30.5654 143.318C30.6375 143.353 30.6932 143.414 30.7208 143.489C30.7484 143.563 30.7456 143.646 30.7131 143.719L28.7302 147.938C28.6964 147.995 28.6457 148.039 28.5851 148.066C28.5246 148.092 28.4573 148.099 28.3927 148.086Z" fill="#648DD6"/>
<path d="M65.0137 65.2251C64.312 64.4175 63.5692 63.6465 62.7882 62.9153C61.2588 61.5968 59.5185 59.2869 53.9284 60.9956C53.4933 61.1306 53.067 61.2927 52.6521 61.4808C52.0135 61.6016 51.3554 61.5689 50.732 61.3855C50.1085 61.2022 49.5375 60.8733 49.066 60.4261C46.5874 58.4537 45.617 56.9665 42.2102 56.9243C38.2549 56.9243 37.622 61.8078 34.5527 63.0735C32.5909 63.8751 27.4227 64.6767 26.3574 65.0247L65.0137 65.2251Z" fill="#EAEBFB"/>
<path d="M140.492 7.73122C141.103 7.01946 141.755 6.34332 142.443 5.70612C143.772 4.55645 145.312 2.5419 150.206 4.01854C150.587 4.14246 150.96 4.2868 151.324 4.45097C151.886 4.56253 152.466 4.53844 153.016 4.38067C153.567 4.2229 154.071 3.93603 154.489 3.54391C156.661 1.82468 157.516 0.516799 160.501 0.474609C163.971 0.474609 164.509 4.75686 167.209 5.86434C168.928 6.57101 173.453 7.26713 174.392 7.58355L140.492 7.73122Z" stroke="#EAEBFB" stroke-width="0.900069" stroke-linecap="round" stroke-linejoin="round"/>
<path d="M200.791 30.9566C201.871 29.7095 203.015 28.5195 204.219 27.3916C206.571 25.377 209.261 21.812 217.867 24.4383C218.534 24.6538 219.189 24.9037 219.829 25.1872C220.578 25.5036 222.93 25.5141 225.335 23.6051C229.164 20.5674 230.661 18.2786 235.882 18.2048C241.979 18.1204 242.938 25.7251 247.674 27.6975C250.691 28.9421 258.644 30.1656 260.331 30.714L200.791 30.9566Z" fill="#EAEBFB"/>
<path d="M76.2676 35.7978C77.4139 34.4289 78.0413 32.6999 78.0395 30.9144C78.0312 28.8861 77.2218 26.9432 75.7875 25.509C74.3533 24.0747 72.4104 23.2653 70.3821 23.257H53.7805C51.7496 23.257 49.8019 24.0637 48.3659 25.4998C46.9298 26.9358 46.123 28.8835 46.123 30.9144C46.123 32.9453 46.9298 34.893 48.3659 36.329C49.8019 37.765 51.7496 38.5718 53.7805 38.5718H70.3821C71.5657 38.5722 72.7328 38.294 73.7889 37.7596L77.6282 39.8691L76.2676 35.7978Z" fill="#407BFF"/>
<path d="M66.1426 30.9144C66.1426 31.244 66.2403 31.5662 66.4234 31.8403C66.6065 32.1143 66.8668 32.3279 67.1713 32.4541C67.4758 32.5802 67.8109 32.6132 68.1342 32.5489C68.4575 32.4846 68.7544 32.3259 68.9875 32.0928C69.2205 31.8597 69.3792 31.5628 69.4435 31.2395C69.5078 30.9163 69.4748 30.5812 69.3487 30.2767C69.2226 29.9722 69.009 29.7119 68.7349 29.5288C68.4609 29.3457 68.1387 29.2479 67.8091 29.2479C67.3671 29.2479 66.9432 29.4235 66.6307 29.736C66.3182 30.0486 66.1426 30.4724 66.1426 30.9144Z" fill="white"/>
<path d="M60.416 30.9144C60.416 31.244 60.5138 31.5662 60.6969 31.8403C60.88 32.1143 61.1403 32.3279 61.4448 32.4541C61.7493 32.5802 62.0843 32.6132 62.4076 32.5489C62.7309 32.4846 63.0278 32.3259 63.2609 32.0928C63.4939 31.8597 63.6527 31.5628 63.717 31.2395C63.7813 30.9163 63.7483 30.5812 63.6221 30.2767C63.496 29.9722 63.2824 29.7119 63.0084 29.5288C62.7343 29.3457 62.4121 29.2479 62.0825 29.2479C61.6405 29.2479 61.2167 29.4235 60.9041 29.736C60.5916 30.0486 60.416 30.4724 60.416 30.9144Z" fill="white"/>
<path d="M54.6875 30.9144C54.6875 31.244 54.7852 31.5662 54.9683 31.8403C55.1515 32.1143 55.4117 32.3279 55.7162 32.4541C56.0208 32.5802 56.3558 32.6132 56.6791 32.5489C57.0024 32.4846 57.2993 32.3259 57.5324 32.0928C57.7654 31.8597 57.9242 31.5628 57.9885 31.2395C58.0528 30.9163 58.0197 30.5812 57.8936 30.2767C57.7675 29.9722 57.5539 29.7119 57.2798 29.5288C57.0058 29.3457 56.6836 29.2479 56.354 29.2479C55.912 29.2479 55.4881 29.4235 55.1756 29.736C54.8631 30.0486 54.6875 30.4724 54.6875 30.9144Z" fill="white"/>
<path d="M216.022 154.055C215.495 154.055 202.194 152.494 201.593 140.122C200.992 127.75 209.462 124.681 207.236 110.916C205.011 97.1521 199.146 93.1863 212.267 83.1346C212.267 83.1346 218.11 79.0844 218.385 73.3994C218.712 66.6068 230.451 58.7174 238.319 63.2527C246.188 67.7881 244.331 74.7916 237.602 86.1301C230.873 97.4686 237.349 99.4409 238.657 103.101C239.965 106.761 242.96 110.611 236.083 119.376C229.206 128.14 237.391 138.825 231.537 147.21C231.527 147.179 226.39 153.423 216.022 154.055Z" fill="#93B7FA"/>
<path d="M218.1 173.02C218.238 172.985 218.358 172.899 218.436 172.78C218.514 172.661 218.545 172.517 218.522 172.376C211.371 134.606 225.905 83.1135 226.084 82.5967C226.106 82.5261 226.112 82.452 226.105 82.3787C226.097 82.3054 226.075 82.2344 226.039 82.1697C226.004 82.105 225.956 82.0479 225.899 82.0017C225.842 81.9555 225.776 81.9211 225.705 81.9006C225.633 81.8797 225.559 81.8734 225.485 81.8818C225.411 81.8902 225.34 81.9132 225.275 81.9496C225.21 81.9859 225.153 82.0348 225.107 82.0934C225.062 82.152 225.028 82.2191 225.009 82.2908C224.861 82.8076 210.242 134.564 217.415 172.577C217.427 172.65 217.454 172.719 217.494 172.782C217.534 172.844 217.586 172.898 217.647 172.94C217.708 172.982 217.776 173.012 217.849 173.027C217.921 173.043 217.996 173.044 218.068 173.03L218.1 173.02Z" fill="#648BD4"/>
<path d="M221.117 102.806H221.212C221.279 102.776 221.34 102.733 221.39 102.68C221.441 102.627 221.481 102.564 221.507 102.495C221.534 102.427 221.546 102.354 221.544 102.28C221.543 102.207 221.526 102.134 221.496 102.067C219.727 98.0544 218.315 93.8931 217.277 89.6318C217.221 89.5226 217.13 89.4351 217.018 89.3829C216.907 89.3307 216.781 89.3167 216.661 89.3431C216.541 89.3696 216.433 89.4349 216.353 89.5291C216.274 89.6233 216.228 89.7409 216.223 89.8639C217.284 94.1992 218.721 98.4341 220.515 102.521C220.569 102.629 220.658 102.716 220.767 102.767C220.876 102.819 220.999 102.832 221.117 102.806Z" fill="#648BD4"/>
<path d="M219.165 114.239C219.246 114.215 219.321 114.176 219.386 114.123C222.213 111.792 229.311 107.394 229.385 107.341C229.511 107.263 229.601 107.138 229.634 106.993C229.668 106.849 229.643 106.697 229.565 106.571C229.486 106.445 229.361 106.356 229.217 106.322C229.072 106.288 228.921 106.313 228.795 106.392C228.499 106.571 221.549 110.874 218.669 113.258C218.612 113.305 218.565 113.363 218.53 113.428C218.496 113.493 218.474 113.565 218.467 113.638C218.46 113.712 218.468 113.786 218.49 113.857C218.512 113.927 218.548 113.993 218.595 114.049C218.663 114.131 218.752 114.192 218.853 114.225C218.954 114.259 219.062 114.264 219.165 114.239Z" fill="#648BD4"/>
<path d="M217.572 125.356H217.688C217.755 125.323 217.813 125.276 217.862 125.22C217.91 125.163 217.946 125.098 217.969 125.027C217.991 124.956 218 124.882 217.993 124.808C217.987 124.734 217.965 124.662 217.931 124.597L213.976 116.781C213.909 116.641 213.789 116.534 213.642 116.482C213.496 116.431 213.335 116.44 213.195 116.507C213.055 116.574 212.948 116.694 212.896 116.84C212.845 116.987 212.854 117.147 212.921 117.287L216.897 125.029C216.951 125.156 217.049 125.259 217.173 125.319C217.298 125.379 217.439 125.392 217.572 125.356Z" fill="#648BD4"/>
<path d="M247.959 158.949C247.463 159.329 243.012 151.271 241.968 141.019C241.968 141.019 241.472 135.977 246.261 138.551C246.261 138.551 241.303 116.496 254.498 118.142C255.418 118.168 256.323 118.378 257.16 118.76C257.997 119.143 258.749 119.689 259.371 120.367C261.143 122.308 262.124 125.451 260.025 129.955C255.806 138.983 252.167 142.485 253.971 147.263C255.774 152.041 255.163 153.391 247.959 158.949Z" fill="#407BFF"/>
<path d="M249.245 173.304C249.371 173.279 249.481 173.205 249.552 173.098C249.624 172.991 249.65 172.861 249.625 172.735C246.587 157.905 250.954 132.94 251.513 131.843C251.549 131.791 251.575 131.734 251.589 131.672C251.603 131.611 251.604 131.548 251.593 131.486C251.582 131.424 251.56 131.365 251.526 131.312C251.492 131.26 251.448 131.214 251.397 131.178C251.289 131.105 251.156 131.077 251.028 131.101C250.9 131.124 250.786 131.198 250.711 131.305C249.804 132.56 245.722 158.549 248.675 172.925C248.701 173.051 248.775 173.161 248.882 173.232C248.989 173.303 249.119 173.329 249.245 173.304Z" fill="#93B7FA"/>
<path d="M0.263672 172.988H275.382" stroke="#1D2738" stroke-width="0.492152" stroke-linecap="round" stroke-linejoin="round"/>
<path d="M169.792 125.968L168.062 132.876L188.936 133.994L188.229 125.335L169.792 125.968Z" fill="black"/>
<path d="M178.378 130.461L172.303 150.986L172.419 181.974L165.015 182.133L163.58 150.512L168.537 131.02L178.378 130.461Z" fill="black"/>
<g style="mix-blend-mode:multiply" opacity="0.44">
<path d="M177.514 133.382L172.693 132.929L176.237 137.707L177.514 133.382Z" fill="#C8C8C8"/>
</g>
<path d="M188.893 132.591L190.296 151.84L196.16 183.609L188.83 185.118L181.742 152.705L179.295 130.503L188.893 132.591Z" fill="black"/>
<path d="M167.123 182.038H171.163L171.269 187.818L159.793 187.902C159.824 187.467 159.993 187.053 160.276 186.721C160.559 186.389 160.94 186.156 161.365 186.056L167.05 184.664L167.123 182.038Z" fill="#29323D"/>
<path d="M171.28 187.776L159.805 187.852L159.811 188.748L171.286 188.672L171.28 187.776Z" fill="#C7CBE8"/>
<path d="M169.94 184.421C169.94 184.654 169.848 184.876 169.684 185.04C169.52 185.205 169.297 185.297 169.065 185.297C168.833 185.297 168.61 185.205 168.446 185.04C168.282 184.876 168.189 184.654 168.189 184.421C168.189 184.189 168.282 183.967 168.446 183.802C168.61 183.638 168.833 183.546 169.065 183.546C169.297 183.546 169.52 183.638 169.684 183.802C169.848 183.967 169.94 184.189 169.94 184.421Z" fill="white"/>
<path d="M190.951 184.316L194.949 183.778L195.782 189.505L184.401 191.014C184.389 190.579 184.511 190.151 184.75 189.789C184.99 189.427 185.336 189.147 185.741 188.989L191.204 186.879L190.951 184.316Z" fill="#29323D"/>
<path d="M195.788 189.487L184.412 190.995L184.53 191.884L195.906 190.376L195.788 189.487Z" fill="#C7CBE8"/>
<path d="M194.041 186.331C194.062 186.502 194.033 186.676 193.955 186.831C193.878 186.986 193.756 187.114 193.606 187.2C193.456 187.285 193.283 187.325 193.111 187.313C192.938 187.3 192.773 187.237 192.636 187.132C192.5 187.026 192.397 186.882 192.342 186.718C192.287 186.554 192.282 186.377 192.327 186.21C192.373 186.043 192.467 185.893 192.597 185.78C192.727 185.666 192.888 185.593 193.06 185.571C193.29 185.544 193.522 185.608 193.706 185.75C193.889 185.892 194.009 186.101 194.041 186.331Z" fill="white"/>
<path d="M161.365 115.325H161.122L142.264 112.52L143.181 106.36L160.057 108.87C162.695 105.036 165.533 101.343 168.558 97.8061C168.558 97.8799 168.748 98.0803 168.558 97.8061L174.497 98.4178C174.76 99.9261 173.442 99.9367 164.16 113.965C163.851 114.413 163.431 114.774 162.941 115.012C162.452 115.25 161.909 115.358 161.365 115.325Z" fill="#407BFF"/>
<path d="M179.106 96.1713L179.717 96.2662C181.035 96.4817 182.261 97.0808 183.24 97.9888C184.219 98.8968 184.909 100.073 185.223 101.371L189.537 125.936C180.361 130.936 168.759 125.999 168.759 125.999L166.533 103.08C166.378 101.847 166.61 100.597 167.198 99.5026C167.786 98.4082 168.7 97.524 169.813 96.9729L179.106 96.1713Z" fill="#407BFF"/>
<path d="M177.027 98.3545L171.869 97.9221L172.702 86.1934L177.871 86.6258L177.027 98.3545Z" fill="#DDB28D"/>
<path d="M170.604 96.9096L178.493 96.2135C178.493 96.8362 178.365 97.4522 178.118 98.0237C177.871 98.5952 177.509 99.1102 177.056 99.5369C176.603 99.9637 176.067 100.293 175.481 100.505C174.896 100.717 174.273 100.807 173.652 100.77C169.327 100.696 170.604 96.9096 170.604 96.9096Z" fill="#DDB28D"/>
<path d="M142.569 109.398C142.458 110.049 142.156 110.653 141.702 111.133C141.247 111.613 140.661 111.948 140.017 112.095C139.372 112.242 138.699 112.194 138.081 111.959C137.464 111.723 136.93 111.31 136.547 110.771C136.165 110.232 135.95 109.592 135.931 108.932C135.912 108.271 136.089 107.62 136.44 107.06C136.791 106.499 137.3 106.056 137.903 105.785C138.505 105.514 139.175 105.428 139.827 105.537C140.261 105.61 140.676 105.768 141.048 106.001C141.421 106.235 141.744 106.54 141.999 106.898C142.254 107.257 142.435 107.662 142.533 108.091C142.631 108.52 142.643 108.964 142.569 109.398Z" fill="white"/>
<path d="M144.405 111.402L140.977 110.822C140.763 110.786 140.557 110.708 140.372 110.593C140.188 110.477 140.028 110.327 139.901 110.149C139.775 109.972 139.685 109.771 139.636 109.559C139.587 109.347 139.581 109.127 139.617 108.913C139.694 108.482 139.938 108.099 140.295 107.847C140.652 107.594 141.094 107.492 141.526 107.562L144.964 108.143C145.396 108.217 145.781 108.46 146.034 108.818C146.287 109.176 146.388 109.62 146.314 110.052C146.279 110.266 146.201 110.471 146.085 110.656C145.97 110.84 145.819 110.999 145.641 111.125C145.464 111.25 145.263 111.339 145.051 111.387C144.839 111.435 144.619 111.44 144.405 111.402Z" fill="white"/>
<path d="M151.237 115.841C153.568 111.061 151.583 105.296 146.803 102.965C142.023 100.633 136.258 102.618 133.927 107.398C131.595 112.179 133.58 117.944 138.36 120.275C143.14 122.606 148.905 120.621 151.237 115.841Z" fill="#FF6C37"/>
<path d="M140.851 115.325C140.645 115.313 140.451 115.226 140.303 115.083L137.075 111.919C136.994 111.839 136.93 111.744 136.885 111.64C136.841 111.535 136.817 111.423 136.816 111.309C136.815 111.195 136.837 111.083 136.879 110.977C136.922 110.872 136.985 110.776 137.065 110.695C137.144 110.614 137.239 110.549 137.344 110.505C137.448 110.461 137.561 110.437 137.674 110.436C137.788 110.435 137.9 110.457 138.006 110.499C138.111 110.542 138.207 110.605 138.288 110.685L140.967 113.321L147.137 108.354C147.315 108.21 147.543 108.143 147.77 108.167C147.997 108.19 148.206 108.303 148.35 108.48C148.494 108.66 148.562 108.889 148.538 109.118C148.514 109.347 148.401 109.557 148.224 109.704L141.452 115.146C141.37 115.215 141.274 115.267 141.17 115.298C141.067 115.329 140.958 115.338 140.851 115.325Z" fill="#F4F8FF"/>
<path d="M170.931 94.0934C170.095 94.0413 169.277 93.8236 168.525 93.4529C167.774 93.0822 167.103 92.5659 166.553 91.934C166.002 91.3021 165.583 90.5671 165.319 89.7718C165.055 88.9765 164.951 88.1366 165.014 87.3009L165.562 79.4009L178.272 80.2763L177.724 88.1763C177.672 89.0128 177.454 89.8305 177.083 90.5821C176.712 91.3338 176.196 92.0042 175.564 92.5547C174.932 93.1052 174.197 93.5247 173.402 93.7888C172.607 94.053 171.767 94.1565 170.931 94.0934Z" fill="#E3BC9A"/>
<path d="M177.808 86.0774L175.994 85.9825C175.877 85.9781 175.764 85.9479 175.661 85.894C175.558 85.8401 175.468 85.7638 175.398 85.6708C175.329 85.5778 175.28 85.4704 175.258 85.3565C175.235 85.2425 175.237 85.1249 175.266 85.0121C175.582 83.7148 175.994 81.4893 175.16 81.1623C173.979 80.7088 167.397 82.0167 165.288 80.2025C162.314 77.65 164.782 73.9901 167.598 74.0006C170.414 74.0112 169.802 77.2281 173.082 77.3653C176.363 77.5024 181.394 76.532 178.736 85.0754L177.808 86.0774Z" fill="#282C3C"/>
<path d="M179.982 86.5731C179.96 86.9703 179.82 87.3519 179.58 87.6695C179.341 87.987 179.012 88.2261 178.636 88.3562C178.26 88.4863 177.854 88.5016 177.469 88.4001C177.085 88.2986 176.739 88.0849 176.476 87.7863C176.213 87.4877 176.045 87.1176 175.994 86.7231C175.942 86.3287 176.009 85.9278 176.185 85.5715C176.362 85.2152 176.641 84.9195 176.987 84.7222C177.332 84.5249 177.728 84.4349 178.125 84.4636C178.649 84.5015 179.138 84.7439 179.485 85.1385C179.832 85.5331 180.011 86.0483 179.982 86.5731Z" fill="#E3BC9A"/>
<path d="M155.194 117.646C155.149 118.308 154.908 118.942 154.502 119.467C154.097 119.992 153.544 120.385 152.915 120.596C152.286 120.807 151.609 120.827 150.968 120.653C150.328 120.479 149.754 120.118 149.318 119.618C148.882 119.117 148.605 118.499 148.521 117.84C148.437 117.182 148.55 116.514 148.846 115.92C149.142 115.326 149.608 114.833 150.184 114.504C150.76 114.175 151.421 114.024 152.083 114.07C152.969 114.132 153.795 114.544 154.378 115.214C154.962 115.885 155.255 116.759 155.194 117.646Z" fill="#E0AE76"/>
<path d="M157.221 119.449L153.751 119.207C153.313 119.177 152.905 118.975 152.616 118.645C152.328 118.314 152.182 117.883 152.211 117.445C152.243 117.009 152.446 116.602 152.776 116.314C153.105 116.026 153.535 115.879 153.972 115.905L157.453 116.148C157.891 116.18 158.299 116.385 158.588 116.717C158.876 117.049 159.022 117.481 158.993 117.92C158.958 118.357 158.752 118.762 158.42 119.048C158.089 119.334 157.658 119.478 157.221 119.449Z" fill="#E0AE76"/>
<path d="M155.32 120.705V114.482H172.491L178.387 100.485C178.556 100.112 178.797 99.7763 179.095 99.4967C179.394 99.2172 179.746 98.9996 180.129 98.8564C180.512 98.7133 180.92 98.6474 181.329 98.6627C181.738 98.6779 182.14 98.7739 182.512 98.9452C183.255 99.2963 183.833 99.9232 184.122 100.693C184.412 101.463 184.39 102.315 184.062 103.069L177.322 118.89C177.07 119.431 176.669 119.889 176.167 120.212C175.665 120.535 175.082 120.71 174.485 120.715L155.32 120.705Z" fill="#407BFF"/>
<path d="M173.347 178.884H164.055V182.122H173.347V178.884Z" fill="#535975"/>
<path d="M196.513 180.545L187.395 182.332L188.017 185.51L197.136 183.723L196.513 180.545Z" fill="#535975"/>
<path d="M166.269 88.4611L171.754 88.7142C171.754 88.7142 171.427 90.8237 168.473 90.4967C166.132 90.2225 166.269 88.4611 166.269 88.4611Z" fill="white"/>
<path d="M168.242 120.726H173.79C174.555 120.68 175.292 120.427 175.924 119.994C176.556 119.561 177.058 118.965 177.376 118.268L183.536 104.324C181.152 112.457 178.009 120.736 178.009 120.736C177.825 121.254 177.48 121.699 177.024 122.007C176.569 122.314 176.027 122.468 175.478 122.445L168.39 122.16L168.242 120.726Z" fill="#407BFF"/>
<g style="mix-blend-mode:multiply" opacity="0.12">
<path d="M132.118 116.251L91.1411 121.682C90.0266 121.83 89.2428 122.853 89.3905 123.968L90.8359 134.873C90.9837 135.988 92.0069 136.771 93.1214 136.624L134.098 131.193C135.213 131.045 135.997 130.022 135.849 128.907L134.403 118.002C134.256 116.887 133.233 116.103 132.118 116.251Z" fill="#B8B8B8"/>
</g>
<path d="M129.184 111.3L88.2075 116.731C87.093 116.879 86.3092 117.902 86.4569 119.017L87.9024 129.922C88.0501 131.037 89.0733 131.82 90.1878 131.673L131.165 126.242C132.279 126.094 133.063 125.071 132.915 123.956L131.47 113.051C131.322 111.936 130.299 111.152 129.184 111.3Z" fill="#D9DDFB"/>
<path d="M90.6346 120.272C90.5664 120.271 90.5008 120.246 90.4489 120.202C90.3969 120.157 90.3619 120.097 90.3498 120.029C90.3407 119.955 90.3611 119.881 90.4064 119.822C90.4518 119.763 90.5185 119.724 90.5924 119.713L114.06 116.591C114.097 116.585 114.135 116.587 114.171 116.596C114.207 116.605 114.241 116.621 114.271 116.644C114.3 116.667 114.325 116.695 114.343 116.728C114.362 116.761 114.373 116.796 114.377 116.834C114.383 116.87 114.381 116.908 114.372 116.944C114.363 116.981 114.346 117.014 114.324 117.044C114.301 117.074 114.272 117.098 114.24 117.117C114.207 117.135 114.171 117.146 114.134 117.15L90.6662 120.262L90.6346 120.272Z" fill="#8992C6"/>
<path d="M91.1287 123.974C91.0605 123.973 90.9949 123.948 90.943 123.904C90.8911 123.86 90.8561 123.799 90.8439 123.732C90.8349 123.658 90.8552 123.583 90.9006 123.524C90.9459 123.465 91.0127 123.426 91.0865 123.415L114.586 120.346C114.623 120.338 114.661 120.339 114.698 120.347C114.735 120.356 114.77 120.372 114.8 120.395C114.83 120.418 114.854 120.447 114.872 120.481C114.89 120.514 114.9 120.551 114.903 120.589C114.908 120.625 114.907 120.663 114.898 120.699C114.889 120.736 114.872 120.769 114.849 120.799C114.827 120.829 114.798 120.853 114.766 120.872C114.733 120.89 114.697 120.901 114.66 120.905L91.192 124.069L91.1287 123.974Z" fill="#8992C6"/>
<path d="M91.6248 127.761C91.5566 127.759 91.491 127.734 91.4391 127.69C91.3872 127.646 91.3522 127.585 91.34 127.518C91.331 127.444 91.3513 127.37 91.3967 127.31C91.442 127.251 91.5088 127.212 91.5826 127.202L103.185 125.641C103.222 125.635 103.259 125.636 103.295 125.646C103.332 125.655 103.366 125.671 103.395 125.694C103.425 125.717 103.45 125.745 103.468 125.778C103.486 125.81 103.497 125.846 103.501 125.883C103.507 125.92 103.505 125.958 103.496 125.994C103.487 126.03 103.471 126.064 103.448 126.094C103.425 126.123 103.397 126.148 103.364 126.166C103.332 126.185 103.296 126.196 103.259 126.2L91.6564 127.761H91.6248Z" fill="#8992C6"/>
<path d="M74.7279 178.314L71.0575 178.04L70.5195 184.073L80.9826 184.907L81.0459 184.094C81.0438 183.696 80.9149 183.308 80.6779 182.988C80.4408 182.667 80.108 182.431 79.7274 182.312L74.633 180.688L74.7279 178.314Z" fill="#29323D"/>
<path d="M27.1171 176.11L26.748 172.44L20.7148 172.956L21.7168 183.409L22.529 183.335C22.9199 183.26 23.2773 183.064 23.5501 182.774C23.8229 182.485 23.9971 182.116 24.0478 181.721L24.765 176.448L27.1171 176.11Z" fill="#29323D"/>
<path d="M42.2852 148.761L48.9406 170.246L25.7363 171.627L26.4219 177.165L54.7733 176.205C55.3818 176.218 55.9849 176.089 56.5355 175.83C57.0861 175.571 57.5693 175.188 57.9472 174.711C58.3251 174.234 58.5875 173.676 58.714 173.081C58.8404 172.485 58.8274 171.869 58.6759 171.279L57.0938 155.311L72.0711 155.079L69.4553 178.821L75.9104 179.053L82.2388 152.421C82.4197 151.656 82.4275 150.861 82.2617 150.093C82.096 149.325 81.7607 148.604 81.2806 147.983C80.8004 147.361 80.1874 146.854 79.4864 146.5C78.7854 146.145 78.0141 145.952 77.2288 145.934L61.9878 145.544L42.2852 148.761Z" fill="black"/>
<path d="M51.8516 123.7L57.5788 124.913L60.0047 112.762L54.3302 111.57L51.8516 123.7Z" fill="#DDB28D"/>
<path d="M56.3441 119.101C57.1066 119.262 57.8934 119.271 58.6593 119.127C59.4252 118.983 60.1553 118.69 60.8077 118.264C61.4602 117.838 62.0222 117.287 62.4616 116.644C62.9011 116 63.2093 115.276 63.3686 114.513L64.8769 107.299L53.2748 104.862L51.7665 112.077C51.6057 112.839 51.5965 113.625 51.7395 114.39C51.8826 115.155 52.175 115.885 52.6001 116.537C53.0252 117.19 53.5746 117.752 54.217 118.192C54.8594 118.632 55.5822 118.941 56.3441 119.101Z" fill="#E3BC9A"/>
<path d="M60.6371 110.421L59.5191 115.695C59.3393 116.687 58.773 117.568 57.9444 118.143C57.1158 118.719 56.0927 118.942 55.0997 118.764L54.045 118.542C53.1943 118.339 52.392 117.97 51.6839 117.457C50.9758 116.943 50.3759 116.295 49.9185 115.55C49.461 114.805 49.155 113.976 49.0179 113.112C48.8807 112.249 48.9152 111.366 49.1193 110.516L50.1213 105.717L61.0274 108.005L60.6371 110.421Z" fill="#282C3C"/>
<path d="M60.2578 109.63C61.7118 110.015 63.1983 110.266 64.6983 110.379C65.2021 110.394 65.6999 110.266 66.1345 110.011C66.5692 109.756 66.923 109.383 67.1555 108.936C67.3879 108.489 67.4894 107.985 67.4484 107.483C67.4075 106.981 67.2256 106.5 66.9238 106.096L66.7234 105.854C66.1075 105.278 65.3332 104.9 64.5003 104.768C63.6675 104.637 62.8143 104.758 62.0509 105.115C62.072 105.295 60.2578 109.63 60.2578 109.63Z" fill="#282C3C"/>
<path d="M63.7694 106.56C63.7694 106.56 60.4365 101.666 54.667 103.101C54.667 103.101 52.4521 102.985 50.1211 105.748L59.8247 110.368L63.7694 106.56Z" fill="#282C3C"/>
<path d="M58.2529 112.762C58.1835 113.097 58.2146 113.444 58.3424 113.761C58.4702 114.078 58.689 114.35 58.9711 114.543C59.2532 114.735 59.5861 114.84 59.9277 114.844C60.2693 114.847 60.6043 114.75 60.8906 114.564C61.1769 114.377 61.4015 114.11 61.5362 113.796C61.6709 113.482 61.7096 113.135 61.6475 112.799C61.5854 112.464 61.4252 112.154 61.1871 111.909C60.949 111.664 60.6437 111.495 60.3097 111.423C60.0866 111.375 59.8563 111.372 59.632 111.413C59.4076 111.455 59.1937 111.54 59.0026 111.665C58.8114 111.789 58.6468 111.95 58.5181 112.139C58.3894 112.327 58.2993 112.539 58.2529 112.762Z" fill="#E3BC9A"/>
<path d="M55.7222 102.384C55.4963 103.471 54.9531 104.466 54.1614 105.244C53.3696 106.022 52.3649 106.548 51.2743 106.755C50.1836 106.962 49.0561 106.84 48.0344 106.406C47.0127 105.972 46.1427 105.245 45.5345 104.316C44.9262 103.388 44.6071 102.3 44.6174 101.19C44.6278 100.08 44.9671 98.9976 45.5925 98.0804C46.2179 97.1633 47.1014 96.4523 48.131 96.0374C49.1606 95.6224 50.2901 95.5222 51.3767 95.7494C52.8323 96.0537 54.1075 96.9233 54.9223 98.1673C55.7371 99.4112 56.0248 100.928 55.7222 102.384Z" fill="#282C3C"/>
<path d="M62.1445 145.312C60.035 141.842 61.0264 133.804 61.9019 128.984C62.1153 127.82 61.9729 126.619 61.4931 125.537C61.0133 124.455 60.2184 123.543 59.2123 122.92L52.578 120.958C50.9326 120.388 48.7809 122.308 47.6102 123.595C37.1366 135.091 41.1762 149.742 41.1762 149.742C44.5737 150.477 48.0678 150.659 51.5232 150.28H51.7447C55.6603 149.802 59.3123 148.057 62.1445 145.312Z" fill="#FF6C37"/>
<path d="M87.0793 126.506C87.4944 127.08 88.0706 127.519 88.735 127.767C89.3995 128.014 90.1224 128.059 90.8124 127.896C91.5023 127.733 92.1284 127.368 92.6115 126.849C93.0946 126.33 93.413 125.68 93.5264 124.98C93.6399 124.28 93.5433 123.562 93.2489 122.917C92.9545 122.272 92.4756 121.729 91.8725 121.356C91.2694 120.983 90.5694 120.797 89.8608 120.822C89.1522 120.847 88.4669 121.081 87.8914 121.496C87.5088 121.771 87.1843 122.119 86.9364 122.52C86.6885 122.921 86.522 123.367 86.4466 123.832C86.3712 124.298 86.3882 124.773 86.4968 125.232C86.6053 125.691 86.8033 126.123 87.0793 126.506Z" fill="#E3BC9A"/>
<path d="M86.2674 129.301L89.2734 127.138C89.462 127.002 89.6218 126.829 89.7435 126.63C89.8653 126.431 89.9466 126.21 89.9828 125.98C90.0191 125.75 90.0095 125.515 89.9548 125.288C89.9 125.062 89.8011 124.848 89.6637 124.66C89.3856 124.284 88.9711 124.033 88.5095 123.96C88.0478 123.887 87.576 123.998 87.1956 124.27L84.1685 126.453C83.9799 126.59 83.8201 126.763 83.6984 126.961C83.5766 127.16 83.4953 127.381 83.4591 127.611C83.4228 127.841 83.4324 128.077 83.4871 128.303C83.5419 128.53 83.6408 128.743 83.7782 128.932C84.0599 129.31 84.48 129.561 84.9466 129.63C85.4131 129.7 85.8881 129.581 86.2674 129.301Z" fill="#E3BC9A"/>
<path d="M88.7047 129.364L85.1713 123.711L69.5822 133.467L59.7942 123.51C59.0584 123.021 58.1585 122.844 57.2922 123.018C56.4259 123.192 55.6642 123.703 55.1745 124.438C54.931 124.804 54.7622 125.213 54.6777 125.644C54.5931 126.075 54.5945 126.518 54.6817 126.949C54.7689 127.379 54.9403 127.788 55.1859 128.151C55.4316 128.515 55.7467 128.827 56.1132 129.069L67.7153 140.217C68.2532 140.563 68.8793 140.747 69.5189 140.747C70.1585 140.747 70.7847 140.563 71.3225 140.217L88.7047 129.364Z" fill="#FF6C37"/>
<g style="mix-blend-mode:multiply" opacity="0.44">
<path d="M57.0508 155.311L63.337 151.788L62.9995 153.423L72.0387 155.079L57.0508 155.311Z" fill="#C8C8C8"/>
</g>
<path d="M195.55 66.206L195.033 64.7189L194.516 66.206C194.253 66.8678 193.858 67.4686 193.353 67.9712C192.849 68.4738 192.247 68.8674 191.584 69.1277C192.241 69.3951 192.836 69.7942 193.333 70.3002C193.83 70.8063 194.218 71.4087 194.474 72.0704L194.991 73.5576L195.508 72.0704C195.772 71.4069 196.168 70.804 196.672 70.2982C197.176 69.7923 197.777 69.3941 198.44 69.1277C197.787 68.8589 197.195 68.4618 196.699 67.9599C196.202 67.4581 195.811 66.8617 195.55 66.206Z" fill="white"/>
<path d="M39.6271 109.429L39.2896 108.448L38.9415 109.429C38.7755 109.866 38.5213 110.264 38.1946 110.598C37.8679 110.932 37.4759 111.195 37.043 111.37C37.4752 111.547 37.8667 111.81 38.1932 112.144C38.5198 112.478 38.7744 112.875 38.9415 113.311L39.2896 114.292L39.6271 113.311C39.798 112.875 40.0553 112.479 40.3834 112.145C40.7114 111.812 41.1036 111.548 41.5362 111.37C41.1026 111.194 40.7096 110.93 40.3814 110.597C40.0531 110.263 39.7964 109.866 39.6271 109.429Z" fill="white"/>
<path d="M90.7598 196.087L92.0255 198.544L106.602 198.914L109.566 190.792L108.342 188.429L90.7598 196.087Z" fill="#B4BAD8"/>
<path d="M93.9987 199.515L106.719 200C107.837 200 108.765 199.546 108.828 198.882L109.672 191.309C109.757 190.592 108.818 189.948 107.626 189.906L94.9058 189.421C93.7878 189.421 92.8596 189.864 92.7963 190.539L91.9525 198.112C91.8682 198.861 92.8069 199.473 93.9987 199.515Z" fill="#B4BAD8"/>
<path d="M92.7644 197.142L105.495 197.627C106.603 197.627 107.541 197.173 107.605 196.509L108.448 188.936C108.522 188.219 107.594 187.575 106.392 187.533L93.6715 187.048C92.5534 187.048 91.6253 187.501 91.562 188.166L90.7182 195.739C90.6338 196.456 91.5725 197.099 92.7644 197.142Z" fill="#C7CBE8"/>
</g>
<defs>
<clipPath id="clip0_1076_11252">
<rect width="275.646" height="200" fill="white"/>
</clipPath>
</defs>
</svg>
