<svg width="271" height="200" viewBox="0 0 271 200" fill="none" xmlns="http://www.w3.org/2000/svg">
<g clip-path="url(#clip0_1998_23553)">
<path d="M134.14 200C202.41 200 257.755 196.769 257.755 192.783C257.755 188.797 202.41 185.566 134.14 185.566C65.8695 185.566 10.5254 188.797 10.5254 192.783C10.5254 196.769 65.8695 200 134.14 200Z" fill="#F5F5F5"/>
<path d="M264.31 105.47H4.43164V108.741H264.31V105.47Z" fill="#455A64"/>
<path d="M19.9121 107.817V185.815H21.9395L24.4897 107.817H19.9121Z" fill="#455A64"/>
<path d="M43.8457 110.367V182.627H45.8731L48.4233 110.367H43.8457Z" fill="#455A64"/>
<path opacity="0.5" d="M43.8457 110.367V182.627H45.8731L48.4233 110.367H43.8457Z" fill="black"/>
<path d="M249.755 107.817V185.815H247.734L245.178 107.817H249.755Z" fill="#455A64"/>
<path d="M225.828 110.367V182.627H223.8L221.25 110.367H225.828Z" fill="#455A64"/>
<path opacity="0.5" d="M225.828 110.367V182.627H223.8L221.25 110.367H225.828Z" fill="black"/>
<path d="M254.377 112.241H15.1296L9.83789 108.741H259.668L254.377 112.241Z" fill="#455A64"/>
<path opacity="0.5" d="M254.377 112.241H15.1296L9.83789 108.741H259.668L254.377 112.241Z" fill="black"/>
<path d="M21.5176 95.4419V97.9921C21.5175 98.4149 21.6848 98.8206 21.983 99.1205L24.004 101.142C24.183 101.319 24.4015 101.453 24.6416 101.53C25.0583 102.427 25.7225 103.186 26.5561 103.718C27.3896 104.25 28.3578 104.533 29.3467 104.533H30.1054C30.7914 104.538 31.4715 104.406 32.1061 104.145C32.7408 103.884 33.3174 103.5 33.8025 103.015C34.2876 102.53 34.6716 101.954 34.9322 101.319C35.1928 100.684 35.3248 100.004 35.3205 99.3182V93.3698H24.1762V93.8543H23.1115C22.6898 93.8543 22.2854 94.0214 21.9867 94.3189C21.6879 94.6165 21.5193 95.0202 21.5176 95.4419ZM22.7927 95.4419C22.7927 95.4003 22.801 95.3591 22.8171 95.3208C22.8331 95.2825 22.8567 95.2478 22.8864 95.2187C22.9161 95.1896 22.9513 95.1667 22.9899 95.1514C23.0286 95.1361 23.0699 95.1286 23.1115 95.1294H24.1762V99.3182C24.1762 99.3755 24.1762 99.4329 24.1762 99.4903L22.9011 98.2152C22.8704 98.1867 22.8461 98.1522 22.8296 98.1137C22.8132 98.0753 22.8049 98.0339 22.8054 97.9921L22.7927 95.4419Z" fill="#C7C7C7"/>
<path opacity="0.5" d="M21.5176 95.4419V97.9921C21.5175 98.4149 21.6848 98.8206 21.983 99.1205L24.004 101.142C24.183 101.319 24.4015 101.453 24.6416 101.53C25.0583 102.427 25.7225 103.186 26.5561 103.718C27.3896 104.25 28.3578 104.533 29.3467 104.533H30.1054C30.7914 104.538 31.4715 104.406 32.1061 104.145C32.7408 103.884 33.3174 103.5 33.8025 103.015C34.2876 102.53 34.6716 101.954 34.9322 101.319C35.1928 100.684 35.3248 100.004 35.3205 99.3182V93.3698H24.1762V93.8543H23.1115C22.6898 93.8543 22.2854 94.0214 21.9867 94.3189C21.6879 94.6165 21.5193 95.0202 21.5176 95.4419ZM22.7927 95.4419C22.7927 95.4003 22.801 95.3591 22.8171 95.3208C22.8331 95.2825 22.8567 95.2478 22.8864 95.2187C22.9161 95.1896 22.9513 95.1667 22.9899 95.1514C23.0286 95.1361 23.0699 95.1286 23.1115 95.1294H24.1762V99.3182C24.1762 99.3755 24.1762 99.4329 24.1762 99.4903L22.9011 98.2152C22.8704 98.1867 22.8461 98.1522 22.8296 98.1137C22.8132 98.0753 22.8049 98.0339 22.8054 97.9921L22.7927 95.4419Z" fill="white"/>
<path d="M37.9602 105.394H21.9322C21.1993 105.329 20.5172 104.992 20.0195 104.45H39.8473C39.3571 104.988 38.6845 105.324 37.9602 105.394Z" fill="#C7C7C7"/>
<path opacity="0.5" d="M37.9602 105.394H21.9322C21.1993 105.329 20.5172 104.992 20.0195 104.45H39.8473C39.3571 104.988 38.6845 105.324 37.9602 105.394Z" fill="white"/>
<path d="M253.592 97.5904C253.509 95.0402 251.583 94.4409 249.071 94.154V93.2295C249.068 93.1224 249.023 93.0209 248.945 92.947C248.868 92.873 248.764 92.8325 248.657 92.8343H239.974C239.92 92.8325 239.867 92.8414 239.816 92.8604C239.766 92.8793 239.72 92.908 239.681 92.9447C239.642 92.9814 239.611 93.0254 239.589 93.0743C239.567 93.1232 239.554 93.1759 239.553 93.2295V105.286H249.078V103.966C251.59 103.685 253.515 100.128 253.592 97.5904ZM249.071 102.41V95.716C250.92 95.9838 252.195 96.2388 251.921 98.0877C251.704 99.5668 250.544 102.206 249.071 102.41Z" fill="#C7C7C7"/>
<g opacity="0.5">
<path d="M253.592 97.5904C253.509 95.0402 251.583 94.4409 249.071 94.154V93.2295C249.068 93.1224 249.023 93.0209 248.945 92.947C248.868 92.873 248.764 92.8325 248.657 92.8343H239.974C239.92 92.8325 239.867 92.8414 239.816 92.8604C239.766 92.8793 239.72 92.908 239.681 92.9447C239.642 92.9814 239.611 93.0254 239.589 93.0743C239.567 93.1232 239.554 93.1759 239.553 93.2295V105.286H249.078V103.966C251.59 103.685 253.515 100.128 253.592 97.5904ZM249.071 102.41V95.716C250.92 95.9838 252.195 96.2388 251.921 98.0877C251.704 99.5668 250.544 102.206 249.071 102.41Z" fill="white"/>
</g>
<path d="M142.931 76.5516H128.213V106.451H142.931V76.5516Z" fill="#BDC1C3"/>
<path d="M149.572 106.987H121.695L128.487 101.007H142.768L149.572 106.987Z" fill="#BDC1C3"/>
<path d="M210.88 97.3123H141.17L153.766 107.025H223.464L210.88 97.3123Z" fill="#455A64"/>
<path opacity="0.4" d="M210.88 97.3123H141.17L153.766 107.025H223.464L210.88 97.3123Z" fill="#FF6C37"/>
<path d="M142.78 107.025L141.17 97.3123L153.766 107.025H142.78Z" fill="#455A64"/>
<path opacity="0.5" d="M142.78 107.025L141.17 97.3123L153.766 107.025H142.78Z" fill="black"/>
<path d="M198.646 5.78033H71.7727C70.442 5.78033 69.3633 6.85906 69.3633 8.18973V85.9893C69.3633 87.32 70.442 88.3987 71.7727 88.3987H198.646C199.977 88.3987 201.056 87.32 201.056 85.9893V8.18973C201.056 6.85906 199.977 5.78033 198.646 5.78033Z" fill="#BDC1C3"/>
<path d="M196.137 10.9489H74.1445V82.9434H196.137V10.9489Z" fill="#FFF0EB"/>
<path d="M192.267 25.7546H130.709V68.1374H192.267V25.7546Z" fill="white"/>
<path d="M192.267 25.7546H130.709V29.6371H192.267V25.7546Z" fill="#FF6C37"/>
<path d="M141.995 49.1994L152.057 54.7672C152.441 54.9522 152.784 55.211 153.068 55.5287C153.239 55.778 153.327 56.0753 153.318 56.3776C153.318 56.589 153.277 56.7984 153.195 56.9935C153.114 57.1886 152.994 57.3655 152.843 57.5136C152.704 57.6624 152.536 57.7812 152.349 57.8628C152.162 57.9444 151.961 57.987 151.757 57.988C151.31 57.9373 150.881 57.7788 150.509 57.5261L137.525 50.3104C137.318 50.2069 137.143 50.0475 137.021 49.8501C136.899 49.6528 136.834 49.4252 136.834 49.1931C136.834 48.961 136.899 48.7335 137.021 48.5361C137.143 48.3388 137.318 48.1794 137.525 48.0758L150.509 40.8601C150.885 40.6181 151.312 40.4683 151.757 40.4232C151.962 40.4202 152.166 40.4597 152.355 40.5392C152.544 40.6187 152.714 40.7365 152.856 40.8851C153.007 41.0301 153.128 41.2045 153.209 41.3978C153.291 41.591 153.332 41.7989 153.33 42.0087C153.341 42.3112 153.253 42.6091 153.08 42.8576C152.797 43.1753 152.453 43.4341 152.069 43.6191L141.995 49.1994Z" fill="#FF6C37"/>
<path d="M167.887 38.8004L157.9 60.2602C157.74 60.6503 157.507 61.0062 157.213 61.3088C156.943 61.5202 156.607 61.6306 156.264 61.6209C156.06 61.6241 155.858 61.5859 155.669 61.5086C155.48 61.4314 155.309 61.3167 155.166 61.1715C155.019 61.0413 154.901 60.8819 154.819 60.7035C154.738 60.525 154.694 60.3315 154.691 60.1353C154.727 59.6976 154.855 59.2722 155.066 58.887L165.053 37.4396C165.209 37.0571 165.433 36.7061 165.715 36.4035C165.989 36.1895 166.328 36.075 166.676 36.0789C166.878 36.076 167.079 36.1143 167.265 36.1916C167.452 36.2689 167.621 36.3835 167.762 36.5283C167.903 36.6588 168.016 36.8171 168.094 36.9933C168.171 37.1694 168.211 37.3596 168.211 37.552C168.193 37.9865 168.083 38.4121 167.887 38.8004Z" fill="#FF6C37"/>
<path d="M180.408 49.1993L170.346 43.619C169.966 43.4272 169.624 43.1694 169.335 42.8575C169.162 42.609 169.074 42.3111 169.085 42.0086C169.083 41.7989 169.124 41.5909 169.206 41.3977C169.287 41.2045 169.408 41.03 169.559 40.8851C169.703 40.7366 169.876 40.6191 170.067 40.5397C170.258 40.4603 170.463 40.4206 170.67 40.4231C171.115 40.4706 171.542 40.6201 171.919 40.8601L184.902 48.0758C185.11 48.1793 185.284 48.3387 185.407 48.5361C185.529 48.7335 185.593 48.961 185.593 49.1931C185.593 49.4252 185.529 49.6527 185.407 49.8501C185.284 50.0475 185.11 50.2069 184.902 50.3104L171.919 57.5261C171.545 57.7761 171.117 57.9344 170.67 57.988C170.459 57.9905 170.25 57.9485 170.057 57.8646C169.863 57.7807 169.689 57.6568 169.547 57.5011C169.399 57.3538 169.282 57.1786 169.203 56.9857C169.124 56.7928 169.084 56.5861 169.085 56.3776C169.076 56.0753 169.163 55.7779 169.335 55.5287C169.624 55.2168 169.966 54.9589 170.346 54.7671L180.408 49.1993Z" fill="#FF6C37"/>
<path d="M83.32 17.59H79.1504V21.7596H83.32V17.59Z" fill="#FF6C37"/>
<path d="M83.32 28.3761H79.1504V32.5457H83.32V28.3761Z" fill="#FF6C37"/>
<path d="M83.32 39.1747H79.1504V43.3444H83.32V39.1747Z" fill="#FF6C37"/>
<path d="M83.32 49.9609H79.1504V54.1305H83.32V49.9609Z" fill="#FF6C37"/>
<path d="M83.32 60.7471H79.1504V64.9167H83.32V60.7471Z" fill="#FF6C37"/>
<path d="M83.32 71.5331H79.1504V75.7027H83.32V71.5331Z" fill="#FF6C37"/>
<path d="M103.893 18.5266H87.2773V19.7749H103.893V18.5266Z" fill="#FF6C37"/>
<path d="M97.0658 29.3499H91.1484V30.5983H97.0658V29.3499Z" fill="#FF6C37"/>
<path d="M122.82 41.4841H116.902V42.7325H122.82V41.4841Z" fill="#FF6C37"/>
<path d="M97.0658 51.1093H91.1484V52.3577H97.0658V51.1093Z" fill="#FF6C37"/>
<path d="M105.605 51.1093H99.6875V52.3577H105.605V51.1093Z" fill="#FF6C37"/>
<path d="M114.805 41.4841H99.6875V42.7325H114.805V41.4841Z" fill="#FF6C37"/>
<path d="M118.438 51.1093H108.488V52.3577H118.438V51.1093Z" fill="#FF6C37"/>
<path d="M114.38 74.2419H108.463V75.4903H114.38V74.2419Z" fill="#FF6C37"/>
<path d="M122.908 74.2419H116.99V75.4903H122.908V74.2419Z" fill="#FF6C37"/>
<path d="M129.111 74.2419H125.803V75.4903H129.111V74.2419Z" fill="#FF6C37"/>
<path d="M118.451 29.3499H100.037V30.5983H118.451V29.3499Z" fill="#FF6C37"/>
<path d="M105.605 62.3821H99.6875V63.6305H105.605V62.3821Z" fill="#FF6C37"/>
<path d="M110.997 62.3821H107.576V63.6305H110.997V62.3821Z" fill="#FF6C37"/>
<path d="M123.282 62.3821H113.619V63.6305H123.282V62.3821Z" fill="#FF6C37"/>
<path d="M25.0496 32.7857C25.209 40.5 33.223 46.9711 42.9584 47.2262C45.9482 47.327 48.9241 46.7766 51.6801 45.6132C52.6619 48.0359 54.7276 50.1143 60.6504 51.0451C54.4725 46.2698 57.8516 42.2278 59.2605 38.6766C59.9894 37.1262 60.3537 35.4295 60.3252 33.7165C60.1659 25.9958 52.1519 19.5374 42.4165 19.276C32.6811 19.0146 24.8966 25.0713 25.0496 32.7857Z" fill="#407BFF"/>
<path d="M42.481 24.7079H50.9668V25.3454H42.481V24.7079Z" fill="white"/>
<path d="M45.9682 30.2355H48.9902V30.873H45.9682V30.2355Z" fill="white"/>
<path d="M32.8159 36.4324H35.8379V37.07H32.8159V36.4324Z" fill="white"/>
<path d="M45.9682 41.348H48.9902V41.9855H45.9682V41.348Z" fill="white"/>
<path d="M41.6128 41.348H44.6348V41.9855H41.6128V41.348Z" fill="white"/>
<path d="M36.914 36.4324H44.6348V37.07H36.914V36.4324Z" fill="white"/>
<path d="M35.0535 41.348H40.1348V41.9855H35.0535V41.348Z" fill="white"/>
<path d="M35.0532 30.2355H44.457V30.873H35.0532V30.2355Z" fill="white"/>
<path d="M165.482 182.378L160.834 180.988L161.918 169.595L166.566 170.985L165.482 182.378Z" fill="#7F3E3B"/>
<path opacity="0.2" d="M166.949 168.409L162.301 167.026L161.695 173.408L166.394 174.281L166.949 168.409Z" fill="black"/>
<path d="M192.998 112.012C192.998 112.012 161.037 114.708 161.822 128.588C162.459 139.949 164.149 136.876 160.84 170.666L168.879 171.112C168.879 171.112 177.059 143.481 175.956 132.502C184.965 132.502 205.589 133.293 208.586 125.164C210.073 121.036 210.796 116.673 210.722 112.286L192.998 112.012Z" fill="#407BFF"/>
<path d="M170.155 172.643L159.648 170.845L159.821 166.197L170.697 168.613L170.155 172.643Z" fill="#263238"/>
<path d="M160.361 179.076L165.73 180.14C165.827 180.163 165.912 180.222 165.969 180.304C166.026 180.387 166.049 180.487 166.036 180.587L165.589 185.687C165.581 185.807 165.549 185.924 165.495 186.032C165.442 186.14 165.367 186.236 165.275 186.314C165.184 186.392 165.078 186.452 164.963 186.488C164.848 186.525 164.728 186.539 164.608 186.528C162.746 186.12 161.866 185.821 159.507 185.349C158.054 185.062 154.732 184.367 152.711 184.138C150.69 183.908 150.932 181.549 151.806 181.428C155.733 180.912 157.964 180.274 159.488 179.292C159.74 179.109 160.053 179.031 160.361 179.076Z" fill="#263238"/>
<path d="M157.953 179.987C158.375 180.045 158.803 180.057 159.228 180.025C159.249 180.026 159.271 180.02 159.288 180.007C159.305 179.994 159.318 179.976 159.324 179.955C159.333 179.937 159.338 179.916 159.338 179.895C159.338 179.874 159.333 179.853 159.324 179.834C159.19 179.7 157.985 178.559 157.366 178.687C157.295 178.698 157.228 178.729 157.173 178.777C157.117 178.824 157.076 178.885 157.054 178.954C157.004 179.055 156.981 179.166 156.987 179.278C156.994 179.39 157.03 179.498 157.092 179.592C157.318 179.829 157.626 179.971 157.953 179.987ZM158.979 179.815C158.093 179.815 157.468 179.713 157.283 179.452C157.246 179.39 157.226 179.32 157.226 179.248C157.226 179.176 157.246 179.105 157.283 179.044C157.294 179.009 157.312 178.979 157.338 178.954C157.364 178.929 157.396 178.912 157.43 178.903C157.73 178.84 158.482 179.35 159.005 179.821L158.979 179.815Z" fill="#407BFF"/>
<path d="M159.234 180.032H159.285C159.303 180.025 159.32 180.014 159.333 179.999C159.346 179.985 159.356 179.968 159.362 179.949C159.362 179.891 159.712 178.533 159.304 177.992C159.255 177.919 159.188 177.86 159.11 177.818C159.033 177.777 158.946 177.756 158.858 177.756C158.763 177.742 158.665 177.761 158.582 177.809C158.498 177.858 158.434 177.934 158.399 178.023C158.201 178.527 158.75 179.643 159.177 180.006C159.184 180.015 159.193 180.021 159.202 180.026C159.212 180.03 159.223 180.032 159.234 180.032ZM158.903 177.985C158.992 178.003 159.071 178.053 159.126 178.125C159.309 178.629 159.329 179.178 159.183 179.694C158.794 179.258 158.589 178.69 158.609 178.106C158.609 178.043 158.68 177.972 158.845 177.979L158.903 177.985Z" fill="#407BFF"/>
<path d="M144.761 184.15L140.336 182.161L143.396 171.246L147.821 173.236L144.761 184.15Z" fill="#7F3E3B"/>
<path opacity="0.2" d="M148.568 170.424L144.143 168.435L142.568 174.064L146.993 176.054L148.568 170.424Z" fill="black"/>
<path d="M183.486 112.012C183.275 112.012 147.655 115.677 147.611 127.759C147.534 147.74 141.828 170.641 141.828 170.641L148.841 174.128C148.841 174.128 161.101 149.302 160.916 133.727C170.716 130.915 196.064 135.639 199.061 127.517C201.516 120.874 200.189 112.012 200.189 112.012H183.486Z" fill="#407BFF"/>
<path d="M149.988 175.142L140.553 170.896L141.311 167.032L151.264 170.469L149.988 175.142Z" fill="#263238"/>
<path d="M140.783 178.495L146.164 179.611C146.265 179.645 146.351 179.713 146.406 179.804C146.461 179.896 146.481 180.003 146.464 180.108L146.043 185.687C145.966 186.293 145.533 186.707 145.067 186.611C143.206 186.184 142.326 185.853 139.967 185.336C138.513 185.043 134.554 184.061 132.559 183.557C130.563 183.054 131.009 180.497 131.921 180.478C135.867 180.421 138.424 179.777 139.941 178.674C140.062 178.588 140.199 178.527 140.344 178.496C140.488 178.466 140.638 178.465 140.783 178.495Z" fill="#263238"/>
<path d="M138.602 179.7C138.977 179.494 139.329 179.251 139.654 178.973C139.671 178.958 139.683 178.939 139.69 178.918C139.696 178.897 139.697 178.874 139.693 178.852C139.686 178.831 139.674 178.813 139.657 178.799C139.64 178.786 139.619 178.777 139.597 178.776C139.412 178.776 137.767 178.534 137.34 179.012C137.293 179.066 137.26 179.131 137.245 179.201C137.229 179.271 137.231 179.344 137.251 179.413C137.27 179.524 137.317 179.627 137.389 179.714C137.461 179.8 137.554 179.866 137.659 179.904C137.988 179.957 138.324 179.884 138.602 179.7ZM139.323 178.954C138.628 179.496 138.048 179.758 137.748 179.668C137.681 179.638 137.623 179.591 137.579 179.532C137.536 179.473 137.508 179.403 137.499 179.331C137.489 179.298 137.487 179.262 137.495 179.229C137.503 179.195 137.52 179.164 137.544 179.139C137.735 178.91 138.602 178.891 139.291 178.954H139.323Z" fill="#407BFF"/>
<path d="M139.622 178.973L139.666 178.942C139.677 178.926 139.683 178.907 139.683 178.887C139.683 178.868 139.677 178.849 139.666 178.833C139.635 178.789 139.105 177.482 138.461 177.284C138.378 177.258 138.29 177.251 138.204 177.264C138.118 177.277 138.036 177.31 137.964 177.36C137.879 177.406 137.811 177.48 137.773 177.569C137.735 177.658 137.728 177.758 137.754 177.851C137.888 178.381 138.991 178.948 139.558 178.986L139.622 178.973ZM138.136 177.52C138.179 177.501 138.224 177.492 138.27 177.492C138.316 177.492 138.362 177.501 138.404 177.52C138.853 177.816 139.197 178.247 139.386 178.75C138.813 178.631 138.308 178.295 137.977 177.813C137.939 177.762 137.977 177.66 138.092 177.571L138.136 177.52Z" fill="#407BFF"/>
<path d="M195.586 73.4653C196.524 75.48 197.295 77.4181 198.066 79.4328C198.838 81.4475 199.52 83.4621 200.151 85.5278C200.782 87.5934 201.331 89.7101 201.771 91.9033C202.251 94.182 202.49 96.5048 202.485 98.8334C202.478 100.201 202.274 101.56 201.879 102.869C201.629 103.671 201.271 104.434 200.814 105.139C200.544 105.535 200.239 105.907 199.903 106.248L199.628 106.516C199.475 106.643 199.31 106.784 199.15 106.892C198.881 107.075 198.595 107.233 198.296 107.364C197.852 107.554 197.391 107.702 196.919 107.804C196.546 107.881 196.169 107.936 195.79 107.97C195.143 108.008 194.493 108.008 193.846 107.97C192.696 107.913 191.55 107.785 190.416 107.587C186.184 106.817 182.039 105.629 178.041 104.042L178.965 100.529C183.014 101.014 187.145 101.53 191.041 101.709C192.01 101.709 192.953 101.753 193.833 101.709C194.225 101.685 194.615 101.636 195 101.562C195.319 101.505 195.593 101.39 195.497 101.396C195.433 101.416 195.373 101.446 195.319 101.486C195.254 101.523 195.194 101.568 195.14 101.62C195.161 101.585 195.181 101.548 195.197 101.511C195.279 101.329 195.343 101.139 195.389 100.944C195.529 100.243 195.587 99.5284 195.561 98.8143C195.464 96.9884 195.193 95.1759 194.751 93.4015C194.318 91.4889 193.757 89.6272 193.145 87.7337C192.533 85.8402 191.869 83.9467 191.143 82.0595C190.416 80.1724 189.651 78.2788 188.899 76.5001L195.586 73.4653Z" fill="#7F3E3B"/>
<path d="M180.725 101.486L176.498 99.1076L174.375 103.685C174.375 103.685 179.316 105.744 180.355 104.457L180.725 101.486Z" fill="#7F3E3B"/>
<path d="M173.068 99.9747L171.137 103.035L174.369 103.653L176.492 99.0757L173.068 99.9747Z" fill="#7F3E3B"/>
<path d="M185.729 77.0994C184.92 79.1332 184.072 81.0777 183.179 83.0477C182.287 85.0178 181.394 86.9559 180.45 88.8941C178.55 92.8402 176.422 96.672 174.075 100.37C173.437 101.314 172.8 102.251 172.086 103.188C171.729 103.66 171.333 104.125 170.913 104.603C170.683 104.846 170.498 105.069 170.231 105.317L169.848 105.687L169.631 105.891C169.024 106.41 168.31 106.789 167.54 107C167.134 107.116 166.721 107.203 166.303 107.262C165.622 107.344 164.936 107.371 164.25 107.345C163.066 107.308 161.886 107.191 160.718 106.994C156.396 106.23 152.162 105.03 148.082 103.411L149.013 99.8918C153.138 100.389 157.352 100.918 161.318 101.084C162.253 101.119 163.189 101.106 164.123 101.046C164.499 101.015 164.872 100.955 165.239 100.867C165.357 100.837 165.473 100.794 165.583 100.74C165.621 100.74 165.583 100.695 165.411 100.804C165.347 100.836 165.289 100.88 165.239 100.931L165.302 100.855L165.481 100.657C165.596 100.542 165.736 100.351 165.87 100.198C166.131 99.8663 166.399 99.5093 166.667 99.1204C167.196 98.3617 167.712 97.5201 168.222 96.6658C169.242 94.9572 170.192 93.1402 171.123 91.304C172.054 89.4679 172.946 87.5935 173.826 85.7063C175.58 81.9448 177.295 78.0557 178.927 74.2942L185.729 77.0994Z" fill="#7F3E3B"/>
<path d="M150.825 100.81L146.592 98.3808L144.469 102.958C144.469 102.958 149.41 105.024 150.455 103.736L150.825 100.81Z" fill="#7F3E3B"/>
<path d="M143.167 99.3052L141.229 102.359L144.461 102.978L146.584 98.3999L143.167 99.3052Z" fill="#7F3E3B"/>
<path d="M196.677 54.4791L193.973 57.6095L189.848 61.8747L190.161 62.6461C190.479 63.4347 190.664 64.2706 190.709 65.1198C190.805 66.8285 190.639 68.2757 187.942 69.4361C187.942 69.4361 185.111 73.1338 191.844 72.1074C198.577 71.0809 199.59 67.5872 199.59 67.5872C196.619 65.4641 196.441 58.4064 196.677 54.4791Z" fill="#7F3E3B"/>
<path d="M182.95 50.9471C182.95 51.3679 182.74 51.7249 182.459 51.7376C182.179 51.7504 181.956 51.4188 181.949 50.9981C181.943 50.5773 182.166 50.2203 182.44 50.2075C182.714 50.1948 182.944 50.5263 182.95 50.9471Z" fill="#263238"/>
<path d="M184.36 49.3787C184.319 49.3784 184.279 49.3677 184.243 49.3476C184.208 49.3275 184.178 49.2987 184.156 49.2639C183.991 48.9935 183.766 48.7644 183.499 48.5942C183.231 48.424 182.928 48.3173 182.613 48.2821C182.548 48.2788 182.486 48.2505 182.441 48.2031C182.396 48.1556 182.371 48.0926 182.371 48.0271C182.371 47.9942 182.378 47.9616 182.391 47.9313C182.404 47.9011 182.423 47.8738 182.447 47.8511C182.47 47.8284 182.499 47.8109 182.529 47.7995C182.56 47.7881 182.593 47.7831 182.626 47.7848C183.023 47.8201 183.407 47.9481 183.746 48.1585C184.084 48.3689 184.369 48.6558 184.577 48.9962C184.611 49.0524 184.622 49.1195 184.608 49.1837C184.594 49.2478 184.555 49.304 184.501 49.3404C184.458 49.3648 184.409 49.3779 184.36 49.3787Z" fill="#263238"/>
<path d="M182.798 51.2021C182.455 52.3498 181.962 53.4473 181.332 54.4663C181.594 54.614 181.885 54.7021 182.185 54.7241C182.485 54.7461 182.786 54.7017 183.066 54.5939L182.798 51.2021Z" fill="#630F0F"/>
<path d="M197.059 48.824C196.81 54.0265 196.925 57.1122 194.343 59.8664C193.513 60.7812 192.449 61.4517 191.265 61.8055C190.082 62.1593 188.824 62.1829 187.628 61.8737C186.432 61.5646 185.343 60.9344 184.48 60.0514C183.616 59.1684 183.01 58.066 182.727 56.8636C181.554 52.2541 182.166 44.5206 187.19 42.1999C188.271 41.6644 189.474 41.424 190.678 41.5031C191.882 41.5822 193.043 41.9779 194.045 42.6502C195.047 43.3226 195.853 44.2477 196.382 45.3318C196.912 46.416 197.145 47.6207 197.059 48.824Z" fill="#7F3E3B"/>
<path d="M199.419 50.5646C198.668 52.7712 197.523 54.8234 196.04 56.6213L189.269 57.8964C189.269 57.8964 183.92 55.6586 185.348 51.9735C184.443 51.2085 184.781 48.8432 185.418 47.5426C185.932 47.9642 186.58 48.1866 187.244 48.169C187.908 48.1515 188.543 47.8951 189.033 47.4469C189.238 47.7678 189.515 48.0369 189.841 48.2335C190.167 48.43 190.534 48.5486 190.913 48.5801C191.293 48.6116 191.674 48.555 192.028 48.4149C192.382 48.2747 192.699 48.0547 192.954 47.7721C193.244 48.0529 193.596 48.2626 193.98 48.3849C194.365 48.5072 194.773 48.5387 195.172 48.4769C195.571 48.4152 195.95 48.2618 196.28 48.0289C196.61 47.796 196.881 47.4899 197.073 47.1345C197.489 47.3947 197.976 47.5174 198.466 47.4854C198.956 47.4534 199.423 47.2682 199.802 46.956L199.897 46.8668C199.989 48.119 199.826 49.3768 199.419 50.5646Z" fill="#263238"/>
<path opacity="0.1" d="M199.419 50.5646C198.668 52.7712 197.523 54.8234 196.04 56.6213L189.269 57.8964C189.269 57.8964 183.92 55.6586 185.348 51.9735C184.443 51.2085 184.781 48.8432 185.418 47.5426C185.932 47.9642 186.58 48.1866 187.244 48.169C187.908 48.1515 188.543 47.8951 189.033 47.4469C189.238 47.7678 189.515 48.0369 189.841 48.2335C190.167 48.43 190.534 48.5486 190.913 48.5801C191.293 48.6116 191.674 48.555 192.028 48.4149C192.382 48.2747 192.699 48.0547 192.954 47.7721C193.244 48.0529 193.596 48.2626 193.98 48.3849C194.365 48.5072 194.773 48.5387 195.172 48.4769C195.571 48.4152 195.95 48.2618 196.28 48.0289C196.61 47.796 196.881 47.4899 197.073 47.1345C197.489 47.3947 197.976 47.5174 198.466 47.4854C198.956 47.4534 199.423 47.2682 199.802 46.956L199.897 46.8668C199.989 48.119 199.826 49.3768 199.419 50.5646Z" fill="white"/>
<path d="M200.393 44.2528C200.577 44.6838 200.628 45.1598 200.539 45.6198C200.45 46.0798 200.227 46.5029 199.896 46.8349L199.8 46.9241C199.422 47.2363 198.954 47.4215 198.465 47.4535C197.975 47.4855 197.488 47.3628 197.072 47.1027C196.88 47.458 196.609 47.7642 196.279 47.9971C195.949 48.23 195.57 48.3833 195.171 48.4451C194.772 48.5068 194.364 48.4753 193.979 48.353C193.594 48.2308 193.243 48.021 192.953 47.7402C192.698 48.0229 192.381 48.2428 192.027 48.383C191.673 48.5231 191.292 48.5797 190.912 48.5482C190.533 48.5168 190.166 48.3981 189.84 48.2016C189.513 48.005 189.237 47.7359 189.032 47.4151C188.542 47.8632 187.906 48.1196 187.243 48.1372C186.579 48.1547 185.93 47.9323 185.417 47.5107C185.146 47.3005 184.928 47.0298 184.78 46.7201C184.745 46.6524 184.715 46.5821 184.69 46.5097C184.636 46.5719 184.576 46.6295 184.512 46.6819C184.194 46.936 183.805 47.0853 183.398 47.1093C182.992 47.1333 182.588 47.0307 182.242 46.8158C181.969 46.6257 181.749 46.3675 181.606 46.0667C181.463 45.7659 181.401 45.4329 181.426 45.1007C181.433 44.9625 181.457 44.8255 181.496 44.6927C181.446 44.7888 181.381 44.8769 181.305 44.9541C181.153 45.1008 180.973 45.2158 180.776 45.2924C180.58 45.369 180.369 45.4057 180.158 45.4003C179.947 45.395 179.739 45.3477 179.546 45.2613C179.353 45.1748 179.18 45.0509 179.035 44.8967C178.888 44.6743 178.788 44.4243 178.741 44.1619C178.693 43.8995 178.699 43.6302 178.759 43.3703C178.818 43.1105 178.93 42.8654 179.087 42.6499C179.244 42.4345 179.444 42.2532 179.673 42.117C180.037 41.9052 180.451 41.7951 180.871 41.7982C181.534 41.8079 182.176 42.0315 182.701 42.4358C182.499 42.0339 182.444 41.5734 182.548 41.1354C182.651 40.6975 182.906 40.31 183.267 40.0412C183.628 39.7724 184.072 39.6394 184.521 39.6658C184.971 39.6921 185.396 39.8761 185.723 40.1852C185.652 39.8598 185.68 39.5206 185.804 39.2114C185.928 38.9023 186.142 38.6374 186.418 38.4511C187.298 37.9411 188.764 38.381 189.478 39.2353C189.478 39.2353 190.46 36.8636 192.156 37.1314C192.526 37.1824 194.266 37.9538 194.222 38.5786C194.231 38.6184 194.231 38.6599 194.222 38.6997C194.246 38.6508 194.273 38.6039 194.305 38.5595C194.492 38.3065 194.739 38.1037 195.024 37.9691C195.309 37.8345 195.622 37.7723 195.937 37.7881C196.618 37.8383 197.284 38.0156 197.9 38.3108C199.22 38.8528 200.623 39.4584 201.388 40.6634C202.153 41.8684 201.764 43.8703 200.393 44.2528Z" fill="#263238"/>
<path d="M188.332 52.4772C188.144 53.7611 187.555 54.9528 186.649 55.8817C185.495 56.9847 184.513 55.8817 184.5 54.2049C184.5 52.6876 185.067 50.284 186.413 49.8377C187.758 49.3914 188.587 50.8004 188.332 52.4772Z" fill="#7F3E3B"/>
<path d="M208.733 69.3978C208.255 68.1227 206.024 66.8476 204.653 66.8476H203.747C201.921 66.8636 200.097 66.9807 198.284 67.1982C194.639 67.6014 191.021 68.2102 187.445 69.0216C185.8 69.4552 184.213 70.0035 182.951 70.4753C181.344 71.1128 180.4 71.54 180.4 71.54C180.4 71.54 182.16 83.2581 183.072 94.8998C183.575 101.384 183.365 107.817 183.531 112.241H210.729C211.666 106.924 211.519 102.289 211.596 92.6875C211.634 86.9049 210.697 74.6448 208.733 69.3978Z" fill="black"/>
<path opacity="0.2" d="M182.479 88.3968C182.683 90.8386 182.893 93.4015 183.116 95.9645C186.304 91.3104 188.063 78.5785 188.063 78.5785L182.479 88.3968Z" fill="black"/>
<path d="M178.857 72.3943C174.962 74.5875 171.143 85.7828 171.143 85.7828L180.068 92.509C183.473 89.2894 188.452 81.3009 188.994 78.1067C189.861 73.2359 185.099 68.9005 178.857 72.3943Z" fill="black"/>
<path d="M171.156 186.643C171.156 187.192 170.993 187.728 170.689 188.184C170.384 188.64 169.951 188.996 169.444 189.205C168.937 189.415 168.38 189.47 167.842 189.363C167.304 189.256 166.81 188.992 166.422 188.604C166.034 188.216 165.77 187.722 165.663 187.184C165.556 186.646 165.611 186.089 165.82 185.582C166.03 185.075 166.386 184.642 166.842 184.337C167.298 184.033 167.834 183.87 168.383 183.87C169.118 183.87 169.824 184.162 170.344 184.682C170.864 185.202 171.156 185.908 171.156 186.643Z" fill="#263238"/>
<path d="M212.559 186.643C212.559 187.192 212.721 187.728 213.026 188.184C213.331 188.64 213.764 188.996 214.271 189.205C214.777 189.415 215.335 189.47 215.873 189.363C216.411 189.256 216.905 188.992 217.293 188.604C217.681 188.216 217.945 187.722 218.052 187.184C218.159 186.646 218.104 186.089 217.894 185.582C217.684 185.075 217.329 184.642 216.873 184.337C216.417 184.033 215.88 183.87 215.332 183.87C214.596 183.87 213.891 184.162 213.371 184.682C212.851 185.202 212.559 185.908 212.559 186.643Z" fill="#263238"/>
<path d="M189.141 185.725C189.141 186.274 189.303 186.81 189.608 187.266C189.913 187.722 190.346 188.077 190.853 188.287C191.359 188.497 191.917 188.552 192.455 188.445C192.993 188.338 193.487 188.074 193.875 187.686C194.263 187.298 194.527 186.804 194.634 186.266C194.741 185.728 194.686 185.171 194.476 184.664C194.266 184.157 193.911 183.724 193.455 183.419C192.999 183.114 192.462 182.952 191.914 182.952C191.178 182.952 190.473 183.244 189.953 183.764C189.433 184.284 189.141 184.99 189.141 185.725Z" fill="#263238"/>
<path d="M191.055 182.333V176.972H183.111C181.551 176.969 179.995 177.115 178.463 177.405L163.672 180.274C163.34 180.339 163.045 180.526 162.845 180.798C162.645 181.071 162.555 181.409 162.592 181.745C162.63 182.081 162.793 182.39 163.049 182.611C163.304 182.833 163.634 182.95 163.972 182.939L191.055 182.333Z" fill="#263238"/>
<path d="M191.055 182.333V176.972H199.005C200.559 176.981 202.109 177.136 203.634 177.437L220.261 180.089C220.593 180.154 220.888 180.341 221.088 180.614C221.288 180.886 221.378 181.224 221.34 181.56C221.303 181.896 221.14 182.205 220.884 182.427C220.629 182.648 220.299 182.765 219.961 182.754L191.055 182.333Z" fill="#263238"/>
<path d="M195.97 152.42H186.133V176.972H195.97V152.42Z" fill="#263238"/>
<path d="M194.56 141.001H187.547V152.419H194.56V141.001Z" fill="#263238"/>
<path opacity="0.5" d="M187.547 144.354L194.56 146.114V141.001H187.547V144.354Z" fill="black"/>
<path d="M168.382 115.167H164.818V130.373H168.382V115.167Z" fill="#263238"/>
<path d="M186.254 141.001V74.8935C186.253 73.6567 186.517 72.434 187.029 71.3079C187.54 70.1818 188.287 69.1783 189.219 68.365L193.93 64.24C195.517 62.8484 197.557 62.0843 199.668 62.0915H216.684L224.985 70.9662V141.001H186.254Z" fill="#407BFF"/>
<path d="M160.916 128.212H199.743V141.001H154.585C153.776 141 152.981 140.784 152.281 140.377C151.581 139.97 151.001 139.385 150.6 138.682C150.199 137.978 149.991 137.182 149.996 136.372C150.002 135.562 150.221 134.768 150.632 134.071C151.688 132.283 153.192 130.803 154.996 129.775C156.8 128.747 158.84 128.209 160.916 128.212Z" fill="#407BFF"/>
<path opacity="0.7" d="M224.983 70.9662V141.001H154.585C153.776 141 152.981 140.785 152.281 140.377C151.581 139.97 151.001 139.385 150.6 138.682C150.199 137.978 149.991 137.182 149.996 136.372C150.002 135.562 150.221 134.768 150.632 134.071C151.689 132.284 153.193 130.804 154.996 129.776C156.8 128.748 158.84 128.209 160.916 128.212H180.47C182.01 128.212 183.487 127.6 184.577 126.511C185.666 125.421 186.278 123.944 186.278 122.404V74.8935C186.277 73.6567 186.541 72.434 187.053 71.3079C187.564 70.1818 188.311 69.1783 189.242 68.365L193.954 64.24C195.541 62.8484 197.581 62.0843 199.692 62.0915H216.708L224.983 70.9662Z" fill="white"/>
<path d="M191.914 141.001V74.8935C191.915 73.6569 192.18 72.4348 192.691 71.3089C193.202 70.1831 193.948 69.1793 194.879 68.365L199.59 64.24C201.177 62.8484 203.218 62.0843 205.328 62.0915H218.596C219.781 62.0906 220.954 62.3328 222.041 62.8033C223.129 63.2737 224.109 63.9623 224.92 64.8266L228.312 68.4287C229.823 70.0406 230.664 72.1674 230.664 74.3771V134.377C230.665 135.248 230.494 136.11 230.161 136.914C229.828 137.719 229.34 138.45 228.724 139.065C228.108 139.68 227.377 140.168 226.572 140.5C225.767 140.833 224.904 141.003 224.034 141.001H191.914Z" fill="#407BFF"/>
<path opacity="0.5" d="M191.914 141.001V74.8935C191.915 73.6569 192.18 72.4348 192.691 71.3089C193.202 70.1831 193.948 69.1793 194.879 68.365L199.59 64.24C201.177 62.8484 203.218 62.0843 205.328 62.0915H218.596C219.781 62.0906 220.954 62.3328 222.041 62.8033C223.129 63.2737 224.109 63.9623 224.92 64.8266L228.312 68.4287C229.823 70.0406 230.664 72.1674 230.664 74.3771V134.377C230.665 135.248 230.494 136.11 230.161 136.914C229.828 137.719 229.34 138.45 228.724 139.065C228.108 139.68 227.377 140.168 226.572 140.5C225.767 140.833 224.904 141.003 224.034 141.001H191.914Z" fill="white"/>
<path d="M178.705 119.809C170.862 117.067 162.321 117.067 154.478 119.809C153.691 120.103 152.824 120.1 152.039 119.8C151.254 119.501 150.605 118.926 150.213 118.183C149.486 116.647 150.461 114.657 152.438 113.963C161.598 110.762 171.572 110.762 180.732 113.963C182.709 114.651 183.684 116.647 182.957 118.183C182.566 118.923 181.919 119.496 181.137 119.795C180.354 120.094 179.49 120.099 178.705 119.809Z" fill="#407BFF"/>
<path opacity="0.7" d="M178.705 119.809C170.862 117.067 162.321 117.067 154.478 119.809C153.691 120.103 152.824 120.1 152.039 119.8C151.254 119.501 150.605 118.926 150.213 118.183C149.486 116.647 150.461 114.657 152.438 113.963C161.598 110.762 171.572 110.762 180.732 113.963C182.709 114.651 183.684 116.647 182.957 118.183C182.566 118.923 181.919 119.496 181.137 119.795C180.354 120.094 179.49 120.099 178.705 119.809Z" fill="white"/>
<path d="M79.6231 56.5513C79.4892 56.9275 79.5849 57.3036 79.8335 57.3865C80.0822 57.4694 80.3882 57.2399 80.5157 56.8637C80.6432 56.4875 80.554 56.105 80.3117 56.0221C80.0694 55.9393 79.757 56.1688 79.6231 56.5513Z" fill="#263238"/>
<path d="M79.5527 56.9402C79.6047 58.2529 79.8342 59.5526 80.2349 60.8037C79.9137 60.8945 79.5767 60.9153 79.2468 60.8647C78.9168 60.8141 78.6015 60.6933 78.3223 60.5105L79.5527 56.9402Z" fill="#A02724"/>
<path d="M79.0101 53.9883C79.0334 53.998 79.0583 54.003 79.0835 54.003C79.1086 54.003 79.1335 53.998 79.1568 53.9883C79.4371 53.899 79.7342 53.8756 80.025 53.9198C80.3158 53.9641 80.5925 54.0748 80.8335 54.2434C80.8586 54.262 80.8871 54.2754 80.9174 54.2829C80.9476 54.2904 80.9791 54.2918 81.0099 54.2871C81.0408 54.2823 81.0704 54.2715 81.097 54.2552C81.1236 54.239 81.1468 54.2176 81.1651 54.1924C81.2003 54.1491 81.2195 54.0951 81.2195 54.0393C81.2195 53.9836 81.2003 53.9296 81.1651 53.8863C80.8656 53.6638 80.5173 53.5159 80.1492 53.4549C79.781 53.3939 79.4037 53.4216 79.0484 53.5357C78.9902 53.5573 78.9426 53.6005 78.9153 53.6563C78.888 53.712 78.8832 53.7761 78.9018 53.8353C78.9125 53.8698 78.9315 53.9012 78.957 53.9267C78.9825 53.9523 79.0139 53.9712 79.0484 53.982L79.0101 53.9883Z" fill="#263238"/>
<path d="M65.6411 57.9412C66.3552 61.5688 67.0628 68.2185 64.5254 70.6412C64.5254 70.6412 65.52 74.3198 72.2652 74.3198C79.68 74.3198 75.81 70.6412 75.81 70.6412C71.7616 69.6721 72.4119 66.6692 73.1196 63.8512L65.6411 57.9412Z" fill="#B55B52"/>
<path d="M67.2923 51.3616C65.9662 56.105 64.9462 58.8146 66.4635 62.0087C68.7396 66.8222 76.6962 67.447 78.8639 61.9386C80.5151 56.8382 82.1472 51.5019 78.2263 48.0782C77.369 47.3191 76.3321 46.7913 75.2137 46.545C74.0954 46.2988 72.9327 46.3421 71.8358 46.6709C70.7388 46.9997 69.744 47.6031 68.9456 48.424C68.1472 49.2449 67.5715 50.256 67.2732 51.3616H67.2923Z" fill="#B55B52"/>
<path d="M62.1546 52.9428C61.8104 51.1959 61.7211 49.2832 62.5946 47.7276C63.468 46.172 65.5783 45.222 67.1148 46.1273C67.6141 45.0757 68.3526 44.1555 69.2712 43.4404C70.1898 42.7254 71.2631 42.2352 72.405 42.0092C73.547 41.7832 74.7261 41.8276 75.8478 42.1389C76.9696 42.4502 78.0029 43.0197 78.8651 43.8018C79.7273 44.584 80.3945 45.5572 80.8133 46.6434C81.232 47.7296 81.3907 48.8988 81.2767 50.0573C81.1626 51.2158 80.779 52.3316 80.1565 53.3153C79.534 54.2991 78.6899 55.1234 77.6917 55.7225C78.0424 54.4155 78.3994 53.1149 78.7501 51.8079C78.4369 53.6276 77.4713 55.2709 76.0341 56.4302L76.6717 52.522C76.5714 53.4445 76.2577 54.331 75.7553 55.1112C75.2529 55.8914 74.5756 56.5438 73.7772 57.0167L74.5231 54.2816C74.1452 55.5393 73.6632 56.7634 73.0822 57.9412C72.4447 58.6743 72.0367 63.4687 69.8435 63.6217C62.3077 65.12 62.958 57.0231 62.1546 52.9428Z" fill="#263238"/>
<path d="M72.2981 55.2124C72.1708 56.4286 72.4439 57.653 73.0759 58.6998C73.9238 60.0642 75.1671 59.5414 75.6261 58.1452C76.0341 56.8701 76.0788 54.6705 74.8993 53.7843C73.7198 52.8981 72.4766 53.7524 72.2981 55.2124Z" fill="#B55B52"/>
<path d="M54.3249 101.167C53.5152 100.899 49.7218 98.9484 49.1161 99.299C50.8693 94.8362 51.9596 94.1412 52.7565 91.2978C52.9784 90.5918 53.017 89.841 52.8686 89.116C52.7203 88.391 52.3899 87.7157 51.9085 87.1537C50.7865 85.6491 50.3976 84.8904 48.5359 85.0753C45.9857 89.3596 42.7406 94.6385 41.4782 99.4775C41.0511 101.103 40.7451 102.34 41.7141 103.717C42.5684 104.929 44.1432 105.413 45.6223 105.547C49.1735 105.866 54.446 105.215 54.3759 103.105C54.3376 101.773 54.3249 101.167 54.3249 101.167Z" fill="#B55B52"/>
<path d="M53.7259 101.008L56.7351 100.032L56.4673 105.471C56.4673 105.471 54.0574 105.553 52.7695 103.94L53.7259 101.008Z" fill="#B55B52"/>
<path d="M60.4961 99.9429L60.0626 104.431L56.4668 105.47L56.7346 100.032L60.4961 99.9429Z" fill="#B55B52"/>
<path d="M95 104.871C95 104.871 90.7858 101.569 85.2902 90.7303C84.4741 89.213 83.6963 87.6765 82.944 86.1336C82.1917 84.5907 81.4776 83.0479 80.7891 81.4094L87.3048 78.6041C88.6437 81.5241 90.7348 84.5397 92.214 87.4406C93.6931 90.3414 97.1805 97.2142 97.6204 97.8518C97.8371 98.1833 98.073 98.4574 98.2962 98.7635L98.6341 99.2097L94.4326 104.068L95 104.871Z" fill="#B55B52"/>
<path d="M100.515 83.7173L99.2399 82.1617L98.6406 79.8346L102.574 76.1815C103.176 76.9464 103.711 77.7611 104.175 78.6169C104.276 78.8136 104.324 79.0334 104.315 79.2545L104.155 83.3539L100.515 83.7173Z" fill="#B55B52"/>
<path d="M98.6609 77.3227L101.606 74.6514L102.537 76.2134L98.6035 79.8474L98.6609 77.3227Z" fill="#B55B52"/>
<path d="M100.572 82.5953C100.674 82.1554 100.763 83.0161 101.056 82.6718C101.923 81.6262 103.186 81.5179 103.938 82.6718C104.69 83.8258 104.046 95.1806 102.848 98.7445C102.051 101.11 101.624 102.997 99.5836 104.438C98.759 105.074 97.7555 105.435 96.7146 105.471C96.1963 105.477 95.6869 105.335 95.2465 105.062C94.806 104.788 94.4527 104.395 94.2282 103.928C93.5906 102.442 95.873 97.0868 96.6764 95.3591C99.1947 89.9208 99.3668 87.734 100.572 82.5953Z" fill="#B55B52"/>
<path d="M92.1375 82.1043L97.3463 82.0533C98.0896 82.1009 98.8342 81.9834 99.5267 81.709C100.375 81.2137 101.009 80.4206 101.305 79.484C102.045 77.5713 102.109 75.5184 102.396 73.5165C102.683 71.5146 103.295 69.4107 104.812 68.0654C102.045 68.4352 97.1614 67.5681 95.0256 69.8314C93.9035 71.0364 91.9207 82.1043 92.1375 82.1043Z" fill="#407BFF"/>
<path opacity="0.5" d="M92.1375 82.1043L97.3463 82.0533C98.0896 82.1009 98.8342 81.9834 99.5267 81.709C100.375 81.2137 101.009 80.4206 101.305 79.484C102.045 77.5713 102.109 75.5184 102.396 73.5165C102.683 71.5146 103.295 69.4107 104.812 68.0654C102.045 68.4352 97.1614 67.5681 95.0256 69.8314C93.9035 71.0364 91.9207 82.1043 92.1375 82.1043Z" fill="white"/>
<path d="M101.051 74.3644C100.751 74.4473 100.554 75.512 100.617 75.818L100.911 76.3408L101.504 78.891L103.493 77.7944L101.701 74.6067C101.633 74.5024 101.533 74.4226 101.416 74.3791C101.299 74.3355 101.171 74.3304 101.051 74.3644Z" fill="#B55B52"/>
<path d="M56.1236 71.5528C51.4695 72.6175 44.584 87.1218 44.584 87.1218L53.9241 93.4973C56.6139 89.6591 59.0421 85.6441 61.1922 81.4795C63.9528 75.7033 60.8798 70.4626 56.1236 71.5528Z" fill="#407BFF"/>
<path d="M62.9193 71.9035C62.3838 70.7368 61.8036 69.4043 63.0085 68.9899C64.341 68.5308 71.6346 68.059 74.1465 68.9197C74.4756 69.009 74.7838 69.1624 75.0533 69.3712C75.3229 69.5799 75.5486 69.8398 75.7175 70.136C75.8863 70.4323 75.995 70.7589 76.0372 71.0972C76.0794 71.4355 76.0544 71.7789 75.9636 72.1075V72.1521L62.9193 71.9035Z" fill="#263238"/>
<path opacity="0.2" d="M58.9982 79.9302L52.3613 92.4262L53.9233 93.4973C53.9233 93.4973 56.9326 89.3086 59.0237 85.6873L58.9982 79.9302Z" fill="black"/>
<path d="M84.4112 77.9347C85.4186 83.0351 83.066 95.1486 83.0915 114.913H56.5567C56.3845 110.922 59.2918 101.46 55.6769 82.6144C55.5621 81.9768 55.5111 71.6804 56.1232 71.572C58.6927 71.1229 61.2851 70.8164 63.8885 70.6539C67.6469 70.4371 71.4147 70.4371 75.1731 70.6539C76.7096 70.8133 79.126 71.7633 80.6561 72.3115C83.0341 73.1531 83.9267 75.4292 84.4112 77.9347Z" fill="#407BFF"/>
<path opacity="0.2" d="M77.3984 83.0032C78.087 87.1919 80.8348 92.7259 83.5699 95.9774C83.6783 93.5993 83.9206 91.1129 83.9142 89.2066L77.3984 83.0032Z" fill="black"/>
<path d="M75.4846 76.7043C74.8471 81.403 84.0916 93.3953 84.0916 93.3953L93.3934 87.0198C93.3934 87.0198 90.8113 80.4084 86.4696 76.0731C81.5414 71.1129 76.2306 71.6039 75.4846 76.7043Z" fill="#407BFF"/>
<path d="M105.908 180.701H110.868L111.997 169.206H107.037L105.908 180.701Z" fill="#B55B52"/>
<path opacity="0.2" d="M111.921 169.908L111.347 175.83H106.381L106.961 169.908H111.921Z" fill="black"/>
<path d="M86.3418 180.701H91.3019L93.7948 169.206H88.8346L86.3418 180.701Z" fill="#B55B52"/>
<g opacity="0.2">
<path d="M88.7273 169.825H93.6874L92.3996 175.748H87.4395L88.7273 169.825Z" fill="black"/>
</g>
<path d="M111.149 178.476H105.736C105.624 178.489 105.52 178.541 105.442 178.623C105.364 178.704 105.317 178.81 105.309 178.923L104.327 184.597C104.271 184.817 104.293 185.05 104.391 185.255C104.489 185.46 104.656 185.624 104.863 185.719C104.922 185.728 104.982 185.728 105.041 185.719C106.992 185.681 109.817 185.528 112.271 185.528C115.146 185.528 117.627 185.725 120.993 185.725C123.033 185.725 123.6 183.06 122.746 182.824C118.863 181.728 115.695 181.613 112.341 178.929C112.007 178.646 111.587 178.486 111.149 178.476Z" fill="#263238"/>
<path d="M115.089 180.319C115.727 180.319 116.364 180.23 116.549 179.943C116.602 179.867 116.63 179.777 116.63 179.684C116.63 179.592 116.602 179.502 116.549 179.426C116.464 179.292 116.333 179.194 116.18 179.152C115.351 178.929 113.629 179.917 113.546 179.962C113.525 179.973 113.507 179.991 113.497 180.012C113.486 180.034 113.484 180.059 113.489 180.083C113.492 180.106 113.503 180.128 113.519 180.145C113.535 180.162 113.555 180.174 113.578 180.179C114.076 180.273 114.582 180.32 115.089 180.319ZM115.88 179.356H116.103C116.151 179.366 116.196 179.386 116.236 179.414C116.275 179.443 116.308 179.48 116.333 179.522C116.415 179.669 116.39 179.739 116.333 179.777C116.103 180.102 114.847 180.108 113.923 179.975C114.531 179.647 115.194 179.435 115.88 179.35V179.356Z" fill="#407BFF"/>
<path d="M113.592 180.179H113.643C114.242 179.911 115.428 178.84 115.332 178.266C115.332 178.132 115.217 177.973 114.898 177.934C114.668 177.917 114.439 177.99 114.261 178.138C113.623 178.655 113.496 179.994 113.489 180.051C113.487 180.071 113.489 180.092 113.497 180.111C113.505 180.13 113.518 180.147 113.534 180.159C113.551 180.171 113.571 180.178 113.592 180.179ZM114.803 178.17H114.873C115.083 178.17 115.096 178.279 115.102 178.304C115.16 178.642 114.35 179.484 113.738 179.847C113.79 179.286 114.013 178.754 114.376 178.323C114.497 178.226 114.647 178.173 114.803 178.17Z" fill="#407BFF"/>
<path d="M91.6536 178.476H86.0814C85.9701 178.49 85.867 178.542 85.7901 178.623C85.7132 178.705 85.6674 178.811 85.6607 178.923L84.6788 184.597C84.6255 184.822 84.6532 185.058 84.757 185.264C84.8608 185.471 85.034 185.634 85.2463 185.725C85.2992 185.731 85.3527 185.731 85.4056 185.725C87.3502 185.687 88.3001 185.534 90.7483 185.534C92.2593 185.534 94.1911 185.732 96.2759 185.732C98.3607 185.732 98.6284 183.067 97.7741 182.831C93.9488 181.747 93.6874 180.281 92.4633 178.827C92.3618 178.713 92.2368 178.623 92.097 178.563C91.9572 178.502 91.8059 178.473 91.6536 178.476Z" fill="#263238"/>
<path d="M94.568 180.95C94.7783 180.979 94.9924 180.965 95.1973 180.909C95.4022 180.853 95.5936 180.757 95.7602 180.625C95.8188 180.544 95.8503 180.447 95.8503 180.348C95.8503 180.248 95.8188 180.151 95.7602 180.07C95.7224 180 95.6697 179.939 95.6058 179.892C95.5419 179.845 95.4684 179.812 95.3904 179.796C94.6636 179.624 93.2929 180.561 93.2355 180.599C93.2173 180.613 93.203 180.632 93.1941 180.653C93.1852 180.674 93.1818 180.698 93.1845 180.72C93.1882 180.743 93.1988 180.763 93.2148 180.779C93.2308 180.795 93.2514 180.806 93.2737 180.81C93.6987 180.904 94.1327 180.951 94.568 180.95ZM95.2055 180.006H95.3458C95.3908 180.015 95.4334 180.033 95.4708 180.059C95.5082 180.086 95.5395 180.12 95.5625 180.159C95.6709 180.357 95.6072 180.434 95.5625 180.465C95.3521 180.74 94.3384 180.746 93.5925 180.625C94.0718 180.296 94.6185 180.078 95.1928 179.987L95.2055 180.006Z" fill="#407BFF"/>
<path d="M93.3363 180.816C93.8527 180.536 94.8473 179.452 94.7389 178.903C94.7226 178.816 94.676 178.736 94.6073 178.679C94.5386 178.622 94.4521 178.591 94.3628 178.591C94.2739 178.582 94.1842 178.592 94.0988 178.618C94.0135 178.644 93.9342 178.687 93.8655 178.744C93.2917 179.216 93.1706 180.657 93.1642 180.708C93.1632 180.729 93.1681 180.751 93.1781 180.77C93.1882 180.789 93.2032 180.805 93.2216 180.816H93.3363ZM94.3373 178.808H94.3883C94.5413 178.808 94.554 178.897 94.5604 178.929C94.6242 179.254 93.9866 180.077 93.4766 180.466C93.5161 179.901 93.72 179.36 94.0631 178.91C94.1397 178.845 94.2367 178.809 94.3373 178.808Z" fill="#407BFF"/>
<path d="M75.1407 114.9C75.1407 114.9 98.6344 124.603 103.493 132.056C100.604 151.017 95.4212 172.617 95.4212 172.617H86.5847C86.5988 163.271 87.3642 153.941 88.8735 144.718C90.1486 121.543 48.4401 145.521 56.5434 114.9H75.1407Z" fill="black"/>
<path opacity="0.3" d="M91.3862 130.896C89.7405 130.993 88.1015 131.182 86.4771 131.463L81.332 132.254C83.9861 134.484 86.787 136.533 89.7158 138.387C91.4946 139.516 93.4327 140.6 95.5303 140.606C97.8892 140.606 104.29 137.584 103.232 134.441C102.174 131.298 94.0639 130.781 91.3862 130.896Z" fill="black"/>
<path d="M83.0977 114.9C83.0977 114.9 104.813 117.705 116.786 124.521C120.471 126.618 119.974 133.357 119.859 137.794C119.602 149.702 117.317 161.478 113.101 172.617H105.718C105.718 172.617 106.094 160.587 105.845 141.173C105.769 135.352 94.0189 133.433 82.5366 132.758C77.6742 132.452 72.9941 130.793 69.0242 127.969C65.0543 125.145 61.9527 121.268 60.0693 116.774L59.2852 114.9H83.0977Z" fill="black"/>
<path d="M114.891 170.641C114.929 170.641 114.413 174.128 114.413 174.128H104.212L103.932 171.017L114.891 170.641Z" fill="#407BFF"/>
<path d="M96.2747 170.641C96.313 170.641 95.3375 174.128 95.3375 174.128H85.1367L85.3216 171.017L96.2747 170.641Z" fill="#407BFF"/>
<path d="M68.8609 132.496L61.5546 186.376L60.2285 186.191L65.8708 132.088L68.8609 132.496Z" fill="#407BFF"/>
<path opacity="0.4" d="M68.5995 134.422L61.5546 186.376L60.2285 186.191L65.6286 134.415L68.5995 134.422Z" fill="black"/>
<path d="M94.5736 134.422H53.1328C53.1328 133.8 53.2552 133.185 53.4929 132.611C53.7306 132.037 54.0791 131.516 54.5184 131.077C54.9577 130.637 55.4792 130.289 56.0531 130.051C56.627 129.813 57.2422 129.691 57.8634 129.691H89.8429C90.4642 129.691 91.0793 129.813 91.6533 130.051C92.2272 130.289 92.7487 130.637 93.188 131.077C93.6273 131.516 93.9757 132.037 94.2135 132.611C94.4512 133.185 94.5736 133.8 94.5736 134.422Z" fill="#407BFF"/>
<path opacity="0.7" d="M94.5736 134.422H53.1328C53.1328 133.8 53.2552 133.185 53.4929 132.611C53.7306 132.037 54.0791 131.516 54.5184 131.077C54.9577 130.637 55.4792 130.289 56.0531 130.051C56.627 129.813 57.2422 129.691 57.8634 129.691H89.8429C90.4642 129.691 91.0793 129.813 91.6533 130.051C92.2272 130.289 92.7487 130.637 93.188 131.077C93.6273 131.516 93.9757 132.037 94.2135 132.611C94.4512 133.185 94.5736 133.8 94.5736 134.422Z" fill="white"/>
<path d="M55.0507 134.415L48.8027 186.796H50.1416L58.0663 134.415H55.0507Z" fill="#407BFF"/>
<path d="M92.6538 134.415L98.9018 186.796H97.5629L89.6445 134.415H92.6538Z" fill="#407BFF"/>
<path opacity="0.4" d="M92.6538 134.415L98.9018 186.796H97.5629L89.6445 134.415H92.6538Z" fill="black"/>
<path d="M84.2969 134.415L84.418 186.796H83.0855L81.2812 134.415H84.2969Z" fill="#407BFF"/>
</g>
<defs>
<clipPath id="clip0_1998_23553">
<rect width="270.906" height="200" fill="white"/>
</clipPath>
</defs>
</svg>
