<svg width="349" height="200" viewBox="0 0 349 200" fill="none" xmlns="http://www.w3.org/2000/svg">
<path d="M66.9063 163.894C66.7269 156.158 65.4023 148.369 62.2308 141.309C59.0593 134.248 53.9353 127.942 47.2335 124.069C42.4841 121.309 35.93 120.032 31.7453 123.631C30.384 124.88 29.334 126.43 28.6794 128.158C26.8496 132.672 26.8043 137.713 28.5527 142.259C30.025 146.037 32.6635 149.24 35.5079 152.127C43.1174 159.842 53.1649 165.947 64.0039 165.9" fill="#D6E3FF"/>
<path d="M65.5187 179.42C60.7649 174.151 54.2938 170.744 47.2601 169.805C44.7958 169.478 39.3446 168.617 37.8776 171.293C36.4686 173.879 39.8301 177.815 41.5715 179.256C43.546 181.01 45.7891 182.435 48.2153 183.478C51.124 184.582 54.2842 184.847 57.3365 184.245C60.3888 183.642 63.2109 182.195 65.4818 180.069" fill="#D6E3FF"/>
<path d="M246.132 165.272C242.259 154.227 240.765 141.984 244.211 130.792C247.657 119.599 256.681 109.747 268.153 107.398C269.708 107.003 271.333 106.972 272.902 107.309C274.457 107.8 275.859 108.681 276.976 109.868C282.475 115.267 283.989 123.826 282.338 131.356C280.686 138.887 276.29 145.536 271.335 151.435C265.879 157.931 258.997 164.1 250.565 165.003" fill="#D6E3FF"/>
<path d="M251.525 177.847C253.109 175.346 255.747 173.72 258.338 172.301C263.583 169.43 269.172 167.024 275.093 166.169C278.312 165.72 282.217 166.084 283.842 168.892C285.188 171.23 284.296 174.253 282.787 176.491C281.544 178.327 279.939 179.891 278.071 181.085C276.202 182.279 274.11 183.079 271.921 183.435C269.151 183.868 266.317 183.573 263.541 183.193C259.684 182.665 255.752 181.942 252.391 179.979" fill="#D6E3FF"/>
<path d="M265.541 120.892C256.502 132.017 248.125 143.664 240.454 155.773C238.301 159.178 236.206 162.617 234.169 166.09C234.132 166.174 234.126 166.269 234.155 166.357C234.183 166.445 234.243 166.519 234.323 166.565C234.403 166.612 234.497 166.627 234.587 166.609C234.678 166.59 234.758 166.538 234.813 166.464C242.015 154.203 249.93 142.374 258.517 131.039C260.98 127.789 263.499 124.582 266.074 121.419C266.375 121.05 265.847 120.517 265.546 120.892H265.541Z" fill="white"/>
<path d="M274.69 175.119C264.262 177.265 253.623 178.207 242.98 177.926C242.881 177.926 242.785 177.965 242.715 178.036C242.645 178.106 242.605 178.201 242.605 178.301C242.605 178.4 242.645 178.495 242.715 178.566C242.785 178.636 242.881 178.675 242.98 178.675C253.688 178.953 264.393 178.002 274.885 175.842C275.355 175.741 275.16 175.024 274.69 175.119Z" fill="white"/>
<path d="M37.9949 136.026C50.9555 143.85 62.8832 153.27 73.4988 164.063C76.454 167.064 79.2983 170.165 82.0318 173.367C82.3431 173.736 82.8708 173.203 82.5595 172.839C72.7276 161.343 61.4992 151.12 49.1347 142.406C45.6167 139.944 42.0283 137.601 38.3695 135.377C37.9579 135.129 37.5833 135.778 37.9949 136.026Z" fill="white"/>
<path d="M45.6623 176.158C53.8641 178.924 62.3682 180.696 70.9922 181.435C73.4548 181.639 75.9068 181.763 78.3484 181.805C78.4394 181.794 78.5233 181.75 78.5842 181.682C78.645 181.613 78.6786 181.524 78.6786 181.433C78.6786 181.341 78.645 181.253 78.5842 181.184C78.5233 181.115 78.4394 181.072 78.3484 181.061C69.7606 180.915 61.2212 179.74 52.913 177.562C50.5383 176.939 48.1865 176.236 45.8576 175.451C45.4038 175.293 45.2085 176.016 45.6623 176.169V176.158Z" fill="white"/>
<path d="M67.3722 195.652L254.998 195.277L233.979 70.3798C233.581 68.048 232.371 65.9322 230.563 64.4064C228.755 62.8806 226.466 62.0432 224.1 62.0421L56.7495 62.3798C55.298 62.382 53.8644 62.7003 52.5484 63.3125C51.2323 63.9248 50.0654 64.8163 49.1288 65.9252C48.1922 67.0341 47.5083 68.3337 47.1248 69.7336C46.7412 71.1335 46.6672 72.6001 46.9078 74.0316L67.3722 195.652Z" fill="white"/>
<path d="M81.0341 104.791C78.6647 102.923 75.6251 102.923 74.2584 104.791C72.8916 106.66 73.699 109.704 76.0737 111.572C78.4483 113.441 81.4826 113.446 82.8547 111.572C84.2267 109.699 83.4087 106.665 81.0341 104.791Z" fill="#FF6C37"/>
<path d="M89.2129 108.39H191.281" stroke="#206BC7" stroke-width="1.13304" stroke-miterlimit="10"/>
<path d="M91.6189 152.41C93.1445 150.667 92.5354 147.638 90.2585 145.646C87.9816 143.654 84.8991 143.453 83.3736 145.197C81.848 146.941 82.4571 149.969 84.734 151.961C87.0109 153.953 90.0934 154.154 91.6189 152.41Z" fill="#FF6C37"/>
<path d="M98.1523 149.029H200.221" stroke="#206BC7" stroke-width="1.13304" stroke-miterlimit="10"/>
<path d="M47.0662 75.2558L46.9078 74.0316C46.6672 72.6001 46.7412 71.1335 47.1248 69.7336C47.5083 68.3337 48.1922 67.0341 49.1288 65.9252C50.0654 64.8163 51.2323 63.9248 52.5484 63.3125C53.8644 62.7003 55.298 62.382 56.7495 62.3798L224.1 62.0421C226.466 62.0432 228.755 62.8806 230.563 64.4064C232.371 65.9322 233.581 68.048 233.979 70.3798L234.845 75.5039C235.288 74.7229 47.0662 75.2558 47.0662 75.2558Z" fill="#206BC7"/>
<path d="M62.5386 67.9313C61.3091 66.955 59.7313 66.955 59.0189 67.9313C58.3065 68.9075 58.7339 70.4748 59.9635 71.4458C61.193 72.4168 62.7708 72.4168 63.4832 71.4458C64.1956 70.4748 63.7682 68.9023 62.5386 67.9313Z" fill="white"/>
<path d="M70.6637 67.9314C69.4341 66.9552 67.8563 66.9552 67.1439 67.9314C66.4315 68.9077 66.8589 70.4749 68.0885 71.4459C69.318 72.4169 70.8958 72.4169 71.6082 71.4459C72.3206 70.4749 71.8932 68.9024 70.6637 67.9314Z" fill="#FFB701"/>
<path d="M78.8394 67.9313C77.6099 66.955 76.032 66.955 75.3196 67.9313C74.6072 68.9075 75.0347 70.4748 76.2642 71.4458C77.4938 72.4168 79.0716 72.4168 79.784 71.4458C80.4964 70.4748 80.069 68.9023 78.8394 67.9313Z" fill="#8FC6C6"/>
<path d="M187.06 55.6993C190.592 55.6993 193.456 52.8358 193.456 49.3035C193.456 45.7712 190.592 42.9077 187.06 42.9077C183.528 42.9077 180.664 45.7712 180.664 49.3035C180.664 52.8358 183.528 55.6993 187.06 55.6993Z" fill="#206BC7" stroke="#206BC7" stroke-width="2.43053" stroke-miterlimit="10"/>
<path d="M174.933 70.7441L191.06 43.8998C191.999 41.6729 189.376 34.971 187.677 33.2454C183.033 28.4961 176.316 26.132 169.698 25.6729C166.031 25.4196 159.002 29.409 156.917 34.0264C154.606 39.1346 153.223 44.1636 146.891 46.6491C133.287 51.9578 136.041 66.8444 136.041 66.8444" fill="#000400"/>
<path d="M172.66 28.9604C173.866 28.0759 175.198 27.3785 176.612 26.8918C175.282 26.5081 173.928 26.2103 172.559 26C172.322 26.0792 172.079 26.1583 171.842 26.2533C165.293 28.8549 160.76 37.8997 162.39 44.723C163.166 44.723 164.955 45.066 165.704 44.9235C165.821 39.1662 167.91 32.4116 172.66 28.9604Z" fill="#206BC7"/>
<path d="M166.755 45.3351C166.736 45.408 166.704 45.4764 166.658 45.5364C166.613 45.5964 166.557 45.6468 166.492 45.6846C166.427 45.7224 166.355 45.747 166.281 45.7567C166.206 45.7665 166.131 45.7613 166.058 45.7415C164.771 45.3721 161.884 44.2639 160.517 47.5093C159.15 50.7547 161.842 53.6148 163.757 54.2692C164.311 54.4539 165.578 54.9341 165.868 55.4565C166.686 57.0396 164.391 69.7837 162.174 74.0898C162.011 82.3219 174.311 93.5726 174.311 93.5726C174.311 93.5726 177.546 89.0132 180.143 79.0607C180.143 79.0607 180.95 61.1188 181.071 61.0344C183.082 59.9051 191.034 60.5066 190.855 46.4644C190.691 33.4354 181.625 31.8101 179.245 31.5779C177.309 31.3826 170.602 29.9473 166.755 45.3351Z" fill="#FFB4A5"/>
<path d="M185.814 32.1424C185.814 32.1424 178.289 49.43 166.374 45.7361C166.374 45.7361 163.587 23.467 185.814 32.1424Z" fill="#000400"/>
<path d="M161.715 48.9023C161.715 48.9023 164.934 45.2084 165.889 51.6358L161.715 48.9023Z" fill="#FF8164"/>
<path d="M177.932 48.4855C178.532 48.6405 179.072 48.9697 179.485 49.4317C179.898 49.8937 180.165 50.4678 180.252 51.0813C180.339 51.6948 180.242 52.3203 179.973 52.8788C179.705 53.4372 179.277 53.9036 178.743 54.2189C178.21 54.5342 177.595 54.6844 176.976 54.6504C176.358 54.6164 175.763 54.3998 175.267 54.028C174.772 53.6562 174.397 53.1458 174.191 52.5613C173.986 51.9768 173.958 51.3444 174.111 50.7441C174.213 50.3447 174.393 49.9693 174.641 49.6395C174.888 49.3098 175.198 49.032 175.553 48.8222C175.908 48.6124 176.301 48.4747 176.709 48.4169C177.117 48.3591 177.533 48.3825 177.932 48.4855Z" fill="#FF9E87"/>
<path d="M190.19 53.1504C189.617 52.8717 189.143 52.4254 188.829 51.8707C188.516 51.3161 188.379 50.6793 188.437 50.0449C188.494 49.4105 188.743 48.8086 189.15 48.3189C189.557 47.8293 190.104 47.4751 190.717 47.3035C190.717 47.3035 191.092 51.0132 190.19 53.1504Z" fill="#FF9E87"/>
<path d="M188.089 50.8812L182.838 51.8786C182.838 51.8786 184.632 54.1477 186.099 53.5936C187.566 53.0395 188.089 50.8812 188.089 50.8812Z" fill="white"/>
<path d="M185.504 46.5488L185.309 50.037L187.103 49.7837C187.179 49.773 187.251 49.7428 187.312 49.696C187.372 49.6492 187.42 49.5874 187.45 49.5167C187.48 49.4459 187.491 49.3687 187.482 49.2924C187.473 49.2162 187.444 49.1436 187.398 49.0818L185.504 46.5488Z" fill="#FF8164"/>
<path d="M179.948 43.6571C179.388 44.1004 180.169 42.2217 180.95 41.9579C181.291 41.8156 181.674 41.814 182.017 41.9534C182.359 42.0928 182.632 42.3619 182.776 42.7019C181.75 42.6793 180.749 43.0173 179.948 43.6571Z" fill="black"/>
<path d="M189.546 42.8126C190.153 43.182 189.145 41.4142 188.332 41.2295C187.976 41.1322 187.596 41.1797 187.275 41.3616C186.953 41.5435 186.717 41.845 186.617 42.2005C187.635 42.0549 188.672 42.2716 189.546 42.8126Z" fill="black"/>
<path d="M181.92 46.8179C181.989 47.43 182.284 47.8733 182.58 47.8733C182.875 47.8733 183.06 47.3456 182.997 46.707C182.933 46.0685 182.633 45.6252 182.337 45.6516C182.042 45.678 181.852 46.2057 181.92 46.8179Z" fill="black"/>
<path d="M186.755 45.9894C186.818 46.5752 187.098 47.0448 187.383 46.992C187.668 46.9393 187.847 46.4643 187.779 45.8733C187.71 45.2823 187.436 44.8179 187.151 44.8707C186.866 44.9234 186.686 45.4036 186.755 45.9894Z" fill="black"/>
<path d="M181.603 60.7652C179.7 61.1032 177.742 60.9673 175.904 60.3694C173.086 59.3668 178.638 66.5858 181.603 60.7652Z" fill="#FF8164"/>
<path d="M164.116 195.631C165.034 191.762 165.752 188.739 166.227 186.77C166.871 184.063 171.05 184.66 170.728 187.425C170.491 189.414 170.301 192.211 170.142 195.631H201.9C199.857 167.836 195.33 142.992 186.559 128.496C174.844 126.881 160.549 128.992 148.67 129.346C142.765 139.789 139.641 147.441 136.243 160.723C135.15 165.008 132.396 178.211 128.955 195.631H164.116Z" fill="black"/>
<g style="mix-blend-mode:multiply" opacity="0.21">
<path d="M186.39 133.763L133.303 172.491C133.303 172.491 137.414 149.657 145.968 133.573L186.39 133.763Z" fill="black"/>
</g>
<path d="M241.915 106.496C241.915 106.496 231.577 116.042 214.87 128.216L214.844 128.274L214.759 128.232C213.741 128.396 209.757 130.433 208.912 130.343C208.912 130.343 198.559 134.396 191.414 110.66C190.358 108.549 175.35 82.9181 175.107 82.6226C175.107 82.6226 176.881 77.2875 177.018 77.1714C186.479 69.0553 196.712 101.673 206.01 112.755C206.197 112.98 206.453 113.139 206.738 113.209C207.023 113.278 207.323 113.254 207.593 113.14C208.738 112.665 210.316 111.889 210.316 111.889L220.052 107.092L237.15 95.963C237.15 95.963 238.474 90.0632 238.939 89.3983C239.799 89.1345 243.313 89.0026 243.313 89.0026C243.313 89.0026 254.115 79.8838 254.115 82.1107C254.115 83.4353 248.311 89.9946 248.311 89.9946C248.311 89.9946 251.292 93.6411 251.477 96.0263C251.662 98.4115 241.915 106.496 241.915 106.496Z" fill="#FF9E87"/>
<g style="mix-blend-mode:multiply">
<path d="M238.859 89.6463C240.031 89.5724 241.197 89.5302 242.358 89.5302C242.944 89.5302 243.524 89.5302 244.105 89.5302H244.981C245.306 89.5133 245.632 89.5489 245.946 89.6358C246.148 89.7194 246.313 89.873 246.411 90.0685C246.5 90.2445 246.54 90.4414 246.527 90.6384C246.494 91.0028 246.329 91.3425 246.063 91.5935C245.582 91.9946 245.009 92.2702 244.395 92.3956C243.266 92.7017 242.128 92.9708 240.981 93.203C242.061 92.7492 243.148 92.3341 244.242 91.9576C244.766 91.8102 245.25 91.549 245.661 91.1925C245.821 91.0367 245.921 90.829 245.941 90.6067C245.954 90.5226 245.939 90.4367 245.899 90.3616C245.859 90.2865 245.796 90.2263 245.72 90.1898C245.471 90.1272 245.215 90.1006 244.96 90.1107L244.089 90.0737C243.508 90.0368 242.928 90.0157 242.342 89.9682C241.181 89.9084 240.02 89.8011 238.859 89.6463Z" fill="#D18478"/>
<path d="M247.794 89.984C247.461 90.3534 247.123 90.7175 246.817 91.108C246.511 91.4985 246.21 91.8837 245.925 92.2795C245.366 93.0791 244.872 93.9227 244.448 94.8019L244.332 94.4167C244.52 94.5045 244.728 94.5451 244.935 94.535C245.143 94.5249 245.345 94.4644 245.524 94.3587C245.966 94.1427 246.386 93.8865 246.78 93.5935C247.197 93.3085 247.625 93.0289 248.057 92.7545C248.49 92.4801 248.923 92.2268 249.371 91.9629C249.002 92.3217 248.612 92.6489 248.232 93.0183C247.852 93.3877 247.456 93.6779 247.06 93.9998C246.662 94.3476 246.227 94.6502 245.762 94.9022C245.504 95.0327 245.226 95.1167 244.939 95.1502C244.624 95.182 244.307 95.1156 244.031 94.9603L243.799 94.8125L243.915 94.5645C244.36 93.6525 244.914 92.7983 245.567 92.0209C245.894 91.6337 246.246 91.2688 246.622 90.9286C246.989 90.586 247.381 90.2704 247.794 89.984Z" fill="#D18478"/>
<path d="M245.783 94.7333C245.718 95.0169 245.693 95.3083 245.709 95.5988C245.722 95.709 245.762 95.8143 245.824 95.9061C245.887 95.9979 245.97 96.0735 246.068 96.1265C246.226 96.1898 246.421 96.1265 246.68 95.9682C246.938 95.8099 247.208 95.6832 247.445 95.5354C247.973 95.2505 248.463 94.9444 248.97 94.6384C249.477 94.3323 249.973 94.0104 250.506 93.7096C249.749 94.6669 248.809 95.4634 247.74 96.0526C247.477 96.2004 247.213 96.3428 246.933 96.4695C246.779 96.5448 246.616 96.6015 246.448 96.6384C246.239 96.6825 246.022 96.6447 245.841 96.5328C245.687 96.4273 245.566 96.281 245.492 96.1103C245.417 95.9396 245.392 95.7514 245.419 95.5671C245.476 95.2653 245.6 94.9803 245.783 94.7333Z" fill="#D18478"/>
<path d="M250.891 95.9893C250.746 96.3448 250.488 96.6432 250.157 96.8389C249.826 97.0434 249.452 97.168 249.065 97.203C248.678 97.2336 248.289 97.1721 247.93 97.0236C247.574 96.886 247.272 96.6358 247.07 96.3112C247.39 96.4351 247.723 96.5235 248.062 96.575C248.378 96.625 248.699 96.6356 249.018 96.6067C249.337 96.5814 249.652 96.5194 249.957 96.422C250.283 96.3109 250.596 96.1659 250.891 95.9893Z" fill="#D18478"/>
</g>
<path d="M175.873 77.0289C177.415 75.7351 179.327 74.9644 181.335 74.8278C183.343 74.6912 185.342 75.1959 187.045 76.269C193.33 79.9629 205.045 105.446 208.712 110.475L223.625 101.33C223.625 101.33 231.715 114.032 234.76 116.438C234.76 116.438 211.852 137.055 203.345 133.14C194.839 129.224 175.873 77.0289 175.873 77.0289Z" fill="#FF6C37"/>
<path opacity="0.93" d="M194.401 101.572C191.403 92.2479 186.031 84.0368 179.361 76.9339C178.962 76.5232 178.689 76.0068 178.575 75.4458C177.593 75.8196 176.679 76.3546 175.873 77.0289C175.873 77.0289 188.264 111.14 197.509 126.28C197.752 117.921 196.971 109.588 194.401 101.572Z" fill="#FF6C37"/>
<path d="M180.411 73.7572C180.073 74.5857 193.218 99.6148 192.812 107.747C192.406 115.879 190.981 130.718 191.414 131.947C191.414 131.947 180.918 135.894 145.941 130.39C146.216 123.335 148.247 78.8865 148.247 78.8865C148.247 78.8865 159.688 71.8575 162.649 71.6359C162.649 71.6359 164.759 74.4433 167.788 75.2295C169.941 75.7968 172.15 76.1225 174.374 76.2005C178.094 76.2744 178.823 75.7467 180.411 73.7572Z" fill="#FF6C37"/>
<g opacity="0.93">
<path d="M171.53 127.842C147.255 116.174 153.203 90.6912 149.43 78.1741L148.247 78.8865C148.247 78.8865 146.216 123.335 145.941 130.39C170.474 134.253 182.96 133.462 188.232 132.649C185.683 131.367 174.142 129.113 171.53 127.842Z" fill="#FF6C37"/>
</g>
<path d="M169.118 53.292C170.48 50.0329 168.942 46.2867 165.683 44.9247C162.424 43.5627 158.678 45.1006 157.316 48.3598C155.954 51.6189 157.492 55.3651 160.751 56.7271C164.01 58.0891 167.756 56.5511 169.118 53.292Z" fill="#206BC7" stroke="#206BC7" stroke-width="2.43053" stroke-miterlimit="10"/>
<path d="M166.627 51.5778L170.279 55.5197C170.969 56.2624 171.835 56.819 172.797 57.1382C173.759 57.4573 174.786 57.5287 175.783 57.3456L185.751 55.5144" stroke="#206BC7" stroke-width="1.13304" stroke-miterlimit="10"/>
<path d="M185.799 54.1972L184.046 54.5557C183.527 54.662 183.192 55.1694 183.298 55.6891L183.342 55.9063C183.449 56.4259 183.956 56.761 184.476 56.6547L186.228 56.2962C186.748 56.1899 187.083 55.6825 186.977 55.1628L186.932 54.9457C186.826 54.426 186.319 54.0909 185.799 54.1972Z" fill="#206BC7"/>
<path d="M163.208 55.0184C165.531 55.0184 167.414 53.1354 167.414 50.8126C167.414 48.4898 165.531 46.6068 163.208 46.6068C160.885 46.6068 159.002 48.4898 159.002 50.8126C159.002 53.1354 160.885 55.0184 163.208 55.0184Z" stroke="#000400" stroke-width="1.13304" stroke-miterlimit="10"/>
<path d="M155.172 77.9684C148.401 72.4539 132.454 93.0027 132.454 93.0027L119.05 108.792L96.8868 89.4249C96.5702 87.4935 95.9686 84.2059 95.3512 82.6808C94.6916 81.0555 94.9238 78.4592 95.0979 77.1347C95.1142 77.041 95.1049 76.9447 95.0709 76.8559C95.037 76.7671 94.9797 76.6891 94.9051 76.6302C94.8305 76.5713 94.7414 76.5336 94.6471 76.5212C94.5529 76.5087 94.457 76.5219 94.3697 76.5595C93.9289 76.7327 93.5475 77.0295 93.2714 77.4142C92.9952 77.799 92.836 78.2553 92.813 78.7283C92.6863 80.1373 91.9845 82.2059 91.9317 83.3246C91.9321 83.3831 91.9174 83.4407 91.8889 83.4917C91.8603 83.5428 91.8191 83.5856 91.7691 83.6159C91.7191 83.6462 91.6621 83.663 91.6036 83.6647C91.5452 83.6664 91.4873 83.6528 91.4356 83.6254C90.28 83.1663 89.7681 82.4909 88.2378 81.2349C86.9728 80.0776 85.8482 78.7759 84.8868 77.3563C83.4304 75.1769 81.4515 72.1584 80.776 73.2402C80.2958 74.0159 82.8868 78.5173 83.3459 79.1505C84.1877 80.4397 84.895 81.8119 85.4568 83.2455C85.5728 83.6835 82.2536 80.5331 80.8182 78.5753C79.3829 76.6175 78.0531 74.5384 77.2826 74.6175C76.5122 74.6967 77.6151 76.6967 77.6151 76.6967C77.6151 76.6967 76.1586 75.5199 75.7628 76.0054C75.499 76.3326 77.0082 79.5516 78.1322 81.6729C76.0742 80.2006 76.0636 81.3194 76.0636 81.3194C76.0636 81.3194 79.2298 86.322 80.7232 87.256C81.9106 88.0106 83.499 90.0687 83.7628 90.4856C84.0267 90.9025 88.1375 95.0344 92.0636 96.9552C95.4198 101.462 122.042 136.976 125.346 133.968C150.032 111.499 164.802 85.8101 155.172 77.9684Z" fill="#FF9E87"/>
<g style="mix-blend-mode:multiply">
<path d="M78.0371 81.4775L79.2086 82.6016C79.5873 82.9516 79.9931 83.271 80.4223 83.5567C80.8445 83.8417 81.3142 84.0844 81.7785 84.4169C82.243 84.7299 82.6792 85.083 83.082 85.4723H82.4645C82.9395 85.0923 83.4197 84.7177 83.921 84.3694C84.4281 84.0164 84.9569 83.6957 85.5041 83.4089C85.1543 83.9167 84.7699 84.3999 84.3537 84.8549C83.9474 85.3087 83.52 85.7414 83.082 86.1636L82.7917 86.4485L82.4645 86.1583C82.074 85.8153 81.6572 85.5145 81.2403 85.2031C80.8234 84.8918 80.359 84.6016 79.921 84.2322C79.4877 83.8639 79.1092 83.4357 78.797 82.9604C78.4905 82.4952 78.2357 81.998 78.0371 81.4775Z" fill="#D18478"/>
<path d="M92.1624 84.2057C92.2468 84.707 92.3049 85.1608 92.3576 85.6252C92.4104 86.0896 92.4473 86.5329 92.479 86.9814L92.6426 89.7466C92.2606 89.405 91.9765 88.9678 91.8194 88.4801C91.6496 88.0168 91.5465 87.5318 91.5133 87.0395C91.4797 86.5504 91.5098 86.059 91.603 85.5777C91.6894 85.0857 91.8801 84.6179 92.1624 84.2057Z" fill="#D18478"/>
<path d="M77.6934 76.9603C78.1325 77.6014 78.6064 78.218 79.1129 78.8073C79.6406 79.3825 80.1208 79.9471 80.6538 80.5012C81.1868 81.0553 81.7092 81.6305 82.2369 82.2374C82.7687 82.8348 83.2242 83.496 83.5931 84.2057C82.9335 83.7413 82.3161 83.277 81.7092 82.7756C81.0948 82.2751 80.5132 81.7357 79.9678 81.1609C79.4184 80.5729 78.932 79.9291 78.5166 79.24C78.0828 78.5475 77.8021 77.7702 77.6934 76.9603Z" fill="#D18478"/>
</g>
<path d="M155.172 77.9683C148.401 72.4538 132.454 93.0026 132.454 93.0026L119.05 108.792L107.013 98.2744C104.871 101.636 99.6781 107.942 97.6992 111.404C106.86 123.119 123.061 136.016 125.309 133.968C150.032 111.499 164.802 85.81 155.172 77.9683Z" fill="#FF6C37"/>
<path d="M36.1953 195.346H294.274" stroke="#206BC7" stroke-width="1.13304" stroke-miterlimit="10"/>
<path d="M212.137 47.9577L216.992 43.0976H235.356C236.245 43.0976 237.125 42.9224 237.946 42.5821C238.767 42.2418 239.513 41.743 240.141 41.1142C240.77 40.4855 241.268 39.7391 241.607 38.9177C241.947 38.0963 242.122 37.216 242.121 36.3271V34.8601C242.123 33.9704 241.95 33.0889 241.61 32.2663C241.271 31.4437 240.773 30.696 240.145 30.0662C239.517 29.4363 238.77 28.9366 237.948 28.5956C237.126 28.2546 236.245 28.0791 235.356 28.0791H218.881C217.09 28.0847 215.375 28.7999 214.111 30.068C212.847 31.3361 212.137 33.0537 212.137 34.8443V47.9577Z" fill="#FF6C37"/>
<path d="M232.369 35.3931C232.369 35.7273 232.468 36.054 232.654 36.3318C232.84 36.6096 233.104 36.826 233.413 36.9537C233.722 37.0813 234.061 37.1145 234.389 37.0489C234.717 36.9833 235.018 36.8219 235.254 36.5853C235.49 36.3486 235.65 36.0472 235.715 35.7193C235.779 35.3914 235.745 35.0517 235.616 34.7432C235.488 34.4347 235.271 34.1714 234.992 33.9864C234.714 33.8015 234.387 33.7034 234.053 33.7044C233.606 33.7058 233.177 33.8843 232.862 34.2009C232.546 34.5174 232.369 34.9461 232.369 35.3931Z" fill="white"/>
<path d="M226.18 35.3932C226.18 35.7272 226.279 36.0537 226.464 36.3314C226.65 36.609 226.914 36.8255 227.222 36.9533C227.531 37.0811 227.87 37.1145 228.198 37.0494C228.525 36.9842 228.826 36.8234 229.062 36.5872C229.299 36.3511 229.459 36.0502 229.525 35.7226C229.59 35.3951 229.556 35.0555 229.428 34.747C229.301 34.4384 229.084 34.1747 228.807 33.9891C228.529 33.8036 228.202 33.7045 227.868 33.7045C227.42 33.7045 226.991 33.8824 226.674 34.1991C226.358 34.5158 226.18 34.9453 226.18 35.3932Z" fill="white"/>
<path d="M219.988 35.3932C219.988 35.7272 220.087 36.0537 220.273 36.3314C220.458 36.609 220.722 36.8255 221.031 36.9533C221.339 37.0811 221.679 37.1145 222.006 37.0494C222.334 36.9842 222.635 36.8234 222.871 36.5872C223.107 36.3511 223.268 36.0502 223.333 35.7226C223.398 35.3951 223.365 35.0555 223.237 34.747C223.109 34.4384 222.893 34.1747 222.615 33.9891C222.337 33.8036 222.011 33.7045 221.677 33.7045C221.229 33.7045 220.8 33.8824 220.483 34.1991C220.166 34.5158 219.988 34.9453 219.988 35.3932Z" fill="white"/>
<g style="mix-blend-mode:multiply">
<path d="M239.915 31.4142C241.845 31.4142 243.409 29.8501 243.409 27.9208C243.409 25.9914 241.845 24.4274 239.915 24.4274C237.986 24.4274 236.422 25.9914 236.422 27.9208C236.422 29.8501 237.986 31.4142 239.915 31.4142Z" fill="#206BC7"/>
</g>
<path d="M208.078 27.1345L203.202 22.2586H184.843C183.953 22.2593 183.073 22.0846 182.251 21.7446C181.429 21.4046 180.683 20.9059 180.054 20.2771C179.425 19.6483 178.926 18.9016 178.586 18.0799C178.246 17.2581 178.072 16.3774 178.072 15.4881V14.0211C178.072 13.1322 178.247 12.2521 178.588 11.431C178.928 10.6098 179.427 9.8638 180.056 9.23553C180.684 8.60725 181.431 8.10905 182.252 7.76937C183.074 7.4297 183.954 7.25523 184.843 7.25592H201.312C203.107 7.25592 204.827 7.96868 206.096 9.23739C207.365 10.5061 208.078 12.2269 208.078 14.0211V27.1345Z" fill="#FF6C37"/>
<path d="M187.825 14.57C187.825 14.904 187.726 15.2305 187.54 15.5082C187.354 15.7859 187.091 16.0023 186.782 16.1301C186.474 16.2579 186.134 16.2914 185.806 16.2262C185.479 16.1611 185.178 16.0002 184.942 15.7641C184.706 15.5279 184.545 15.227 184.48 14.8994C184.415 14.5719 184.448 14.2323 184.576 13.9238C184.704 13.6152 184.92 13.3515 185.198 13.1659C185.475 12.9804 185.802 12.8813 186.136 12.8813C186.584 12.8813 187.013 13.0593 187.33 13.3759C187.647 13.6926 187.825 14.1221 187.825 14.57Z" fill="white"/>
<path d="M194.016 14.57C194.016 14.904 193.917 15.2305 193.731 15.5082C193.546 15.7859 193.282 16.0023 192.974 16.1301C192.665 16.2579 192.325 16.2914 191.998 16.2262C191.67 16.1611 191.369 16.0002 191.133 15.7641C190.897 15.5279 190.736 15.227 190.671 14.8994C190.606 14.5719 190.639 14.2323 190.767 13.9238C190.895 13.6152 191.111 13.3515 191.389 13.1659C191.667 12.9804 191.993 12.8813 192.327 12.8813C192.775 12.8813 193.205 13.0593 193.521 13.3759C193.838 13.6926 194.016 14.1221 194.016 14.57Z" fill="white"/>
<path d="M200.205 14.57C200.205 14.904 200.106 15.2305 199.921 15.5082C199.735 15.7859 199.472 16.0023 199.163 16.1301C198.854 16.2579 198.515 16.2914 198.187 16.2262C197.86 16.1611 197.559 16.0002 197.323 15.7641C197.087 15.5279 196.926 15.227 196.861 14.8994C196.795 14.5719 196.829 14.2323 196.957 13.9238C197.084 13.6152 197.301 13.3515 197.579 13.1659C197.856 12.9804 198.183 12.8813 198.517 12.8813C198.964 12.8827 199.393 13.0611 199.709 13.3775C200.026 13.6939 200.204 14.1226 200.205 14.57Z" fill="white"/>
<path opacity="0.51" d="M247.223 90.38L263.207 76.343H323.392C335.64 76.343 345.555 67.6148 345.555 56.8443V52.6227C345.555 41.8523 335.624 33.124 323.392 33.124H269.407C257.154 33.124 247.244 41.8523 247.244 52.6227L247.223 90.38Z" fill="#D6E3FF"/>
<path d="M287.72 45.4248H262.971V63.6834H287.72V45.4248Z" fill="#407BFF"/>
<path d="M262.961 45.1186L273.621 55.7624C274.077 56.2171 274.694 56.4724 275.338 56.4724C275.982 56.4724 276.6 56.2171 277.056 55.7624L287.784 45.0342L262.961 45.1186Z" fill="#7AA3FF"/>
<path opacity="0.73" d="M285.673 59.8574H279.378C279.337 59.8574 279.296 59.8494 279.259 59.8338C279.221 59.8181 279.186 59.7952 279.158 59.7663C279.129 59.7373 279.106 59.703 279.09 59.6653C279.074 59.6275 279.066 59.587 279.066 59.5461C279.066 59.5055 279.074 59.4652 279.09 59.4277C279.106 59.3903 279.129 59.3563 279.158 59.3278C279.187 59.2993 279.221 59.2769 279.259 59.2618C279.297 59.2467 279.337 59.2393 279.378 59.24H285.673C285.714 59.2393 285.754 59.2467 285.792 59.2618C285.83 59.2769 285.864 59.2993 285.893 59.3278C285.922 59.3563 285.945 59.3903 285.961 59.4277C285.977 59.4652 285.985 59.5055 285.985 59.5461C285.985 59.587 285.977 59.6275 285.961 59.6653C285.945 59.703 285.922 59.7373 285.893 59.7663C285.865 59.7952 285.83 59.8181 285.792 59.8338C285.755 59.8494 285.714 59.8574 285.673 59.8574Z" fill="white"/>
<path d="M271.404 58.1055H265.103C265.022 58.1055 264.944 58.0732 264.887 58.0158C264.829 57.9584 264.797 57.8806 264.797 57.7994C264.796 57.7587 264.804 57.7184 264.819 57.6806C264.834 57.6429 264.856 57.6085 264.885 57.5795C264.913 57.5506 264.947 57.5275 264.985 57.5118C265.022 57.4961 265.062 57.488 265.103 57.488H271.404C271.444 57.488 271.485 57.4961 271.522 57.5118C271.56 57.5275 271.594 57.5506 271.622 57.5795C271.651 57.6085 271.673 57.6429 271.688 57.6806C271.703 57.7184 271.711 57.7587 271.71 57.7994C271.71 57.8396 271.702 57.8794 271.687 57.9165C271.671 57.9536 271.649 57.9874 271.62 58.0158C271.592 58.0442 271.558 58.0668 271.521 58.0821C271.484 58.0975 271.444 58.1055 271.404 58.1055Z" fill="white"/>
<path d="M271.404 59.7466H265.103C265.021 59.7452 264.943 59.7118 264.886 59.6535C264.829 59.5953 264.797 59.5169 264.797 59.4352C264.797 59.395 264.805 59.3552 264.82 59.3181C264.836 59.281 264.858 59.2472 264.887 59.2188C264.915 59.1904 264.949 59.1678 264.986 59.1524C265.023 59.1371 265.063 59.1292 265.103 59.1292H271.404C271.444 59.1292 271.484 59.1371 271.521 59.1524C271.558 59.1678 271.592 59.1904 271.62 59.2188C271.649 59.2472 271.671 59.281 271.687 59.3181C271.702 59.3552 271.71 59.395 271.71 59.4352C271.71 59.5169 271.678 59.5953 271.621 59.6535C271.563 59.7118 271.485 59.7452 271.404 59.7466Z" fill="white"/>
<path d="M331.524 50.6015H294.141C293.65 50.6001 293.178 50.4038 292.831 50.0556C292.484 49.7074 292.289 49.2357 292.289 48.744C292.289 48.2523 292.484 47.7806 292.831 47.4324C293.178 47.0842 293.65 46.8879 294.141 46.8865H331.524C332.016 46.8879 332.487 47.0842 332.834 47.4324C333.181 47.7806 333.376 48.2523 333.376 48.744C333.376 49.2357 333.181 49.7074 332.834 50.0556C332.487 50.4038 332.016 50.6001 331.524 50.6015Z" fill="white"/>
<path d="M313.935 56.6227H293.313C293.178 56.6234 293.045 56.5974 292.92 56.5462C292.796 56.495 292.683 56.4196 292.587 56.3244C292.492 56.2292 292.417 56.1161 292.366 55.9915C292.314 55.867 292.288 55.7336 292.289 55.5989C292.289 55.3274 292.397 55.067 292.589 54.875C292.781 54.6831 293.041 54.5752 293.313 54.5752H313.935C314.07 54.5752 314.203 54.6017 314.327 54.6531C314.451 54.7046 314.564 54.78 314.659 54.875C314.754 54.9701 314.83 55.083 314.881 55.2072C314.933 55.3314 314.959 55.4645 314.959 55.5989C314.959 55.7334 314.933 55.8665 314.881 55.9907C314.83 56.1149 314.754 56.2278 314.659 56.3228C314.564 56.4179 314.451 56.4933 314.327 56.5448C314.203 56.5962 314.07 56.6227 313.935 56.6227Z" fill="white"/>
<path d="M313.935 61.1293H293.313C293.178 61.13 293.045 61.104 292.92 61.0528C292.796 61.0016 292.683 60.9262 292.587 60.831C292.492 60.7358 292.417 60.6227 292.366 60.4981C292.314 60.3736 292.288 60.2402 292.289 60.1055C292.289 59.834 292.397 59.5736 292.589 59.3816C292.781 59.1897 293.041 59.0818 293.313 59.0818H313.935C314.07 59.0818 314.203 59.1083 314.327 59.1597C314.451 59.2112 314.564 59.2866 314.659 59.3816C314.754 59.4767 314.83 59.5896 314.881 59.7138C314.933 59.838 314.959 59.9711 314.959 60.1055C314.959 60.24 314.933 60.3731 314.881 60.4973C314.83 60.6215 314.754 60.7344 314.659 60.8294C314.564 60.9245 314.451 60.9999 314.327 61.0514C314.203 61.1028 314.07 61.1293 313.935 61.1293Z" fill="white"/>
<path d="M279.298 156.908H223.984L219.383 138.084H274.697L279.298 156.908Z" fill="#407BFF"/>
<path d="M242.584 155.2C241.852 155.2 241.14 155.083 240.448 154.851C239.763 154.609 239.131 154.274 238.553 153.844C237.981 153.406 237.489 152.901 237.076 152.328C236.671 151.747 236.375 151.111 236.191 150.423C236.006 149.734 235.962 149.103 236.059 148.53C236.162 147.949 236.383 147.444 236.722 147.014C237.067 146.576 237.519 146.24 238.078 146.008C238.633 145.766 239.282 145.645 240.023 145.645C240.754 145.645 241.463 145.766 242.148 146.008C242.831 146.24 243.457 146.571 244.026 147.001C244.604 147.43 245.096 147.936 245.502 148.517C245.917 149.099 246.217 149.734 246.402 150.423C246.586 151.111 246.627 151.747 246.524 152.328C246.429 152.91 246.208 153.415 245.86 153.844C245.521 154.274 245.074 154.609 244.518 154.851C243.96 155.083 243.315 155.2 242.584 155.2ZM242.346 154.314C242.93 154.314 243.442 154.22 243.882 154.032C244.33 153.835 244.687 153.563 244.955 153.214C245.229 152.856 245.406 152.444 245.485 151.979C245.562 151.505 245.525 150.986 245.374 150.423C245.223 149.859 244.983 149.345 244.654 148.879C244.324 148.405 243.926 147.994 243.462 147.645C243.005 147.287 242.501 147.014 241.951 146.826C241.407 146.629 240.844 146.531 240.26 146.531C239.677 146.531 239.161 146.629 238.714 146.826C238.264 147.014 237.902 147.287 237.627 147.645C237.359 147.994 237.183 148.405 237.097 148.879C237.018 149.345 237.054 149.859 237.205 150.423C237.353 150.977 237.593 151.492 237.924 151.966C238.264 152.44 238.663 152.856 239.12 153.214C239.584 153.563 240.092 153.835 240.645 154.032C241.196 154.22 241.763 154.314 242.346 154.314ZM249.965 155.119L247.447 145.726H248.295L257.192 153.885H256.747L254.56 145.726H255.574L258.092 155.119H257.245L248.362 146.96H248.806L250.993 155.119H249.965ZM242.712 171.54L240.194 162.146H241.222L243.51 170.681H248.956L249.186 171.54H242.712ZM250.893 171.54L248.375 162.146H249.403L251.921 171.54H250.893ZM255.085 171.54L252.568 162.146H253.415L262.312 170.305H261.868L259.681 162.146H260.695L263.213 171.54H262.365L253.482 163.381H253.927L256.113 171.54H255.085ZM246.638 182.767H251.779L252.005 183.612H246.865L246.638 182.767ZM247.911 187.101H253.76L253.99 187.96H247.113L244.596 178.567H251.264L251.494 179.425H245.854L247.911 187.101Z" fill="white"/>
<path d="M218.008 165.988C218.91 164.957 218.55 163.166 217.203 161.988C215.856 160.809 214.033 160.69 213.131 161.721C212.229 162.752 212.59 164.543 213.937 165.721C215.284 166.899 217.106 167.019 218.008 165.988Z" fill="#206BC7"/>
<g style="mix-blend-mode:multiply">
<path d="M218.813 154.385C219.636 157.462 222.802 159.958 225.879 159.958C228.955 159.958 230.781 157.462 229.958 154.385C229.135 151.309 225.968 148.807 222.892 148.807C219.815 148.807 217.989 151.303 218.813 154.385Z" fill="#206BC7"/>
</g>
<path d="M220.701 157.741L217.408 156.686C217.092 156.586 216.986 156.158 217.255 156.084L223.35 154.021C223.411 154.009 223.473 154.01 223.533 154.024C223.593 154.039 223.649 154.067 223.697 154.105C223.745 154.144 223.784 154.193 223.811 154.249C223.837 154.305 223.851 154.366 223.852 154.427L223.398 161.082C223.398 161.372 222.965 161.367 222.796 161.082L220.954 157.916C220.892 157.831 220.803 157.769 220.701 157.741Z" fill="#8FC6C6"/>
<path d="M100.043 55.4143C99.9593 52.8807 98.8943 50.4787 97.0725 48.7159C95.2508 46.9531 92.8151 45.9675 90.2801 45.9675C87.7451 45.9675 85.3094 46.9531 83.4877 48.7159C81.6659 50.4787 80.6009 52.8807 80.5176 55.4143C80.5176 60.8074 89.8105 69.2718 89.8105 69.2718C89.8105 69.2718 100.043 60.8074 100.043 55.4143Z" fill="#FFB701"/>
<path opacity="0.55" d="M83.7136 48.1953C83.28 49.248 83.0594 50.3761 83.0645 51.5146C83.0645 55.6729 86.0672 60.19 90.2941 61.0502C94.3469 61.8787 98.8007 59.0924 100.004 55.1927C100.001 55.1663 100.001 55.1399 100.004 55.1135C99.9498 53.2487 99.3616 51.4385 98.3093 49.8981C97.2569 48.3576 95.7845 47.1515 94.067 46.423C92.3495 45.6946 90.459 45.4743 88.62 45.7885C86.781 46.1026 85.0708 46.938 83.6925 48.1953H83.7136Z" fill="#FFE25E"/>
<path d="M88.6532 66.8074C88.0159 66.6555 87.3913 66.4544 86.7852 66.2058C88.4633 68.0317 89.8195 69.2718 89.8195 69.2718C89.8195 69.2718 90.8326 68.438 92.2152 67.1293C91.0188 67.1835 89.8205 67.0752 88.6532 66.8074Z" fill="#FFE25E"/>
<path d="M87.4392 64.8654C87.4392 64.8654 88.6952 54.6279 87.2809 55.2559C85.8667 55.8839 85.0751 57.4617 86.6477 57.7783C88.2202 58.095 94.5263 57.7783 94.5263 57.7783C94.5263 57.7783 95.0857 55.9841 94.0514 55.5725C92.4683 54.9393 92.4682 60.9287 92.1622 65.1767" stroke="white" stroke-width="0.492768" stroke-miterlimit="10"/>
<path d="M93.7413 67.0712H85.8627C85.5706 67.0698 85.2909 66.9531 85.0843 66.7466C84.8778 66.5401 84.7612 66.2603 84.7598 65.9683C84.7598 65.8234 84.7883 65.68 84.8437 65.5462C84.8992 65.4124 84.9804 65.2908 85.0828 65.1884C85.1852 65.086 85.3068 65.0047 85.4406 64.9493C85.5744 64.8939 85.7178 64.8654 85.8627 64.8654H93.7413C93.8861 64.8654 94.0295 64.8939 94.1634 64.9493C94.2972 65.0047 94.4188 65.086 94.5212 65.1884C94.6236 65.2908 94.7048 65.4124 94.7602 65.5462C94.8157 65.68 94.8442 65.8234 94.8442 65.9683C94.8428 66.2603 94.7262 66.5401 94.5196 66.7466C94.3131 66.9531 94.0334 67.0698 93.7413 67.0712Z" fill="#E1E8F0"/>
<path d="M89.9572 72.1213C88.7461 72.1199 87.5851 71.6378 86.7292 70.781C85.8733 69.9241 85.3926 68.7625 85.3926 67.5514V66.7651H94.5271V67.5514C94.5271 68.7634 94.0457 69.9258 93.1886 70.7828C92.3316 71.6399 91.1692 72.1213 89.9572 72.1213Z" fill="#E1E8F0"/>
<g style="mix-blend-mode:multiply">
<path d="M91.8626 71.6887C92.6527 71.3216 93.3211 70.7359 93.7887 70.0008C94.2563 69.2658 94.5036 68.4121 94.5011 67.5409V66.7546H86.0156C87.9505 68.4151 89.8995 70.0598 91.8626 71.6887Z" fill="#E1E8F0"/>
</g>
<path d="M72.6641 55.4724H77.1021" stroke="#FFB701" stroke-width="1.26476" stroke-miterlimit="10" stroke-linecap="round"/>
<path d="M103.74 55.4722H108.178" stroke="#FFB701" stroke-width="1.26476" stroke-miterlimit="10" stroke-linecap="round"/>
<path d="M77.8672 42.9182L81.007 46.0581" stroke="#FFB701" stroke-width="1.26476" stroke-miterlimit="10" stroke-linecap="round"/>
<path d="M90.4219 37.7203V42.1583" stroke="#FFB701" stroke-width="1.26476" stroke-miterlimit="10" stroke-linecap="round"/>
<path d="M102.976 42.9182L99.8359 46.0581" stroke="#FFB701" stroke-width="1.26476" stroke-miterlimit="10" stroke-linecap="round"/>
<g style="mix-blend-mode:multiply">
<g style="mix-blend-mode:multiply">
<path d="M80.7391 13.0184L78.0319 9.15034C77.6664 8.63117 77.1199 8.26749 76.4998 8.13078C75.8798 7.99407 75.231 8.09423 74.681 8.41156C71.1368 10.4285 67.949 13.0155 65.2457 16.0685C64.8229 16.5377 64.589 17.1468 64.589 17.7783C64.589 18.4098 64.8229 19.0189 65.2457 19.4881L68.4963 22.992C68.8681 23.388 69.1003 23.8947 69.1575 24.4349C69.2146 24.975 69.0936 25.5191 68.8129 25.9841C67.8233 27.6023 66.9978 29.3153 66.3486 31.0976C66.1702 31.5538 65.8614 31.9473 65.4606 32.2289C65.0598 32.5104 64.5849 32.6676 64.0953 32.6807L58.6388 32.8918C58.0509 32.9154 57.4896 33.1425 57.0506 33.5343C56.6117 33.9261 56.3225 34.4581 56.2325 35.0395C55.5682 39.1774 55.5985 43.3971 56.3222 47.525C56.424 48.1296 56.7417 48.6766 57.2162 49.0648C57.6907 49.453 58.2899 49.6558 58.9026 49.6358L63.9475 49.4617C64.4669 49.4386 64.9804 49.5789 65.4158 49.8628C65.8513 50.1468 66.1867 50.5602 66.3749 51.0448C66.7118 51.9431 67.094 52.8238 67.5201 53.6833C67.9211 54.4995 68.3573 55.2911 68.8288 56.058C69.0902 56.4905 69.2136 56.9924 69.1825 57.4968C69.1514 58.0012 68.9672 58.4841 68.6546 58.8812L65.4356 63.0501C65.0713 63.5253 64.8858 64.1136 64.9119 64.7119C64.9379 65.3101 65.1738 65.8801 65.5781 66.3218C68.4032 69.4095 71.722 72.0061 75.3987 74.0052C75.9304 74.2948 76.548 74.3848 77.1402 74.259C77.7325 74.1332 78.2602 73.7999 78.6282 73.3192L81.7575 69.2242C82.0697 68.8127 82.5014 68.5077 82.9935 68.3509C83.4856 68.1941 84.0142 68.1932 84.5069 68.3482C86.4262 68.9688 88.4054 69.3863 90.4119 69.5936C90.9629 69.6504 91.4795 69.8884 91.8806 70.2705C92.2817 70.6525 92.5447 71.1568 92.6282 71.7044L93.3406 76.3218C93.4408 76.9516 93.7744 77.5206 94.2751 77.9157C94.7757 78.3107 95.4067 78.5028 96.0425 78.4538C100.187 78.1591 104.252 77.1709 108.069 75.5303C108.602 75.3092 109.045 74.9138 109.325 74.4088C109.605 73.9037 109.705 73.3188 109.61 72.7493L108.618 67.1556C108.53 66.6883 108.579 66.2058 108.758 65.7653C108.936 65.3247 109.237 64.9447 109.626 64.6701C111.142 63.6361 112.555 62.4592 113.847 61.1556C114.23 60.7674 114.729 60.5154 115.269 60.4382C115.808 60.361 116.358 60.4628 116.834 60.7282L121.003 63.029C121.555 63.3328 122.2 63.42 122.813 63.2737C123.426 63.1273 123.962 62.7579 124.317 62.2374C126.656 58.8145 128.419 55.0319 129.536 51.0395C129.698 50.4688 129.655 49.8595 129.415 49.3169C129.175 48.7744 128.753 48.3328 128.222 48.0686L123.399 45.7361C122.95 45.5196 122.577 45.1735 122.328 44.7426C122.079 44.3117 121.964 43.8158 122 43.3192C122.151 41.4578 122.119 39.5861 121.905 37.7308C121.849 37.2048 121.961 36.6744 122.226 36.2163C122.49 35.7582 122.894 35.396 123.378 35.182L127.9 33.1609C128.463 32.9077 128.915 32.4575 129.169 31.8948C129.424 31.3321 129.464 30.6958 129.283 30.1055C128.691 28.1566 127.941 26.2594 127.04 24.4327C126.122 22.5708 125.054 20.7866 123.847 19.0976C123.485 18.5927 122.951 18.2382 122.345 18.101C121.739 17.9639 121.104 18.0537 120.56 18.3535L116.264 20.7229C115.797 20.9815 115.259 21.0841 114.73 21.0158C114.2 20.9475 113.706 20.7117 113.32 20.343C111.858 18.9339 110.25 17.685 108.523 16.6174C108.066 16.331 107.714 15.9057 107.517 15.4042C107.321 14.9027 107.29 14.3513 107.43 13.8311L108.707 9.09229C108.87 8.49104 108.804 7.851 108.524 7.29493C108.244 6.73886 107.768 6.3059 107.188 6.0791C103.361 4.56681 99.3129 3.68811 95.2034 3.47752C94.5812 3.44416 93.9685 3.64084 93.4819 4.03009C92.9953 4.41935 92.669 4.97397 92.5649 5.58834L91.7259 10.4379C91.6384 10.9613 91.3867 11.4433 91.0073 11.8142C90.6278 12.1851 90.1403 12.4257 89.6151 12.5013C87.5844 12.7633 85.5883 13.2464 83.6625 13.9419C83.1417 14.1323 82.5724 14.145 82.0436 13.9779C81.5147 13.8109 81.056 13.4735 80.7391 13.0184ZM99.9158 22.9182C121.837 34.0949 111.705 63.8733 87.5148 59.3667C87.2519 59.3181 86.9976 59.231 86.7602 59.1081C64.8499 47.9261 74.9765 18.1635 99.1559 22.6596C99.4192 22.7023 99.6751 22.7823 99.9158 22.897V22.9182Z" fill="#E1E8F0"/>
</g>
<g style="mix-blend-mode:multiply">
<path d="M22.8281 48.0263L20.6434 44.9076C20.3492 44.4881 19.9082 44.1946 19.4077 44.0851C18.9073 43.9756 18.3839 44.0582 17.9415 44.3166C15.0852 45.939 12.5174 48.0235 10.3426 50.4854C9.99994 50.8623 9.81009 51.3534 9.81009 51.8627C9.81009 52.3721 9.99994 52.8632 10.3426 53.24L12.9811 56.0633C13.2801 56.3827 13.467 56.7908 13.5137 57.2258C13.5603 57.6609 13.4641 58.0993 13.2397 58.4749C12.4376 59.7872 11.7693 61.1768 11.2449 62.6226C11.1034 62.9925 10.8554 63.3122 10.5323 63.5414C10.2093 63.7705 9.82556 63.8989 9.42964 63.9102L5.03387 64.0791C4.56313 64.098 4.1132 64.2782 3.75961 64.5895C3.40601 64.9008 3.17026 65.3243 3.09191 65.7889C2.56025 69.1226 2.58521 72.5214 3.16579 75.8469C3.24959 76.3326 3.50623 76.7716 3.88836 77.083C4.27048 77.3943 4.75231 77.5569 5.24495 77.5408L9.31355 77.3984C9.7328 77.3817 10.1467 77.497 10.497 77.728C10.8472 77.959 11.1162 78.294 11.2661 78.686C11.5365 79.4139 11.8447 80.1273 12.1895 80.8232C12.5077 81.4797 12.86 82.119 13.2449 82.7387C13.456 83.0881 13.5555 83.4935 13.53 83.9008C13.5046 84.3082 13.3554 84.6981 13.1025 85.0184L10.5062 88.3641C10.211 88.7468 10.0607 89.2216 10.0819 89.7045C10.1032 90.1874 10.2946 90.6472 10.6223 91.0026C12.9 93.4883 15.575 95.5783 18.5378 97.1873C18.9637 97.4252 19.4608 97.5028 19.9389 97.406C20.4171 97.3092 20.8448 97.0444 21.1447 96.6596L23.6618 93.3614C23.9129 93.029 24.2608 92.7825 24.6577 92.6559C25.0546 92.5292 25.481 92.5287 25.8782 92.6543C27.4219 93.1535 29.0137 93.4896 30.6275 93.6569C31.0719 93.704 31.4883 93.8967 31.8118 94.205C32.1354 94.5132 32.3479 94.9198 32.4165 95.3614L32.9864 99.0817C33.067 99.5903 33.3359 100.05 33.7395 100.37C34.1432 100.689 34.6523 100.845 35.1658 100.807C38.5057 100.562 41.7808 99.7571 44.8544 98.4274C45.2833 98.2491 45.6392 97.9309 45.8644 97.5247C46.0895 97.1185 46.1706 96.6481 46.0946 96.1899L45.2977 91.678C45.2278 91.3024 45.2666 90.9146 45.4096 90.5602C45.5527 90.2059 45.794 89.8998 46.1051 89.678C47.3226 88.8463 48.4555 87.8972 49.4877 86.8443C49.7972 86.5318 50.2004 86.3292 50.6358 86.2673C51.0712 86.2054 51.5149 86.2875 51.8993 86.5013L55.2555 88.3535C55.7009 88.5994 56.222 88.6703 56.7169 88.5522C57.2117 88.4341 57.6447 88.1355 57.931 87.715C59.8235 84.9589 61.2497 81.9103 62.1526 78.6912C62.2838 78.2322 62.2501 77.7418 62.0573 77.3051C61.8645 76.8684 61.5248 76.513 61.0972 76.3007L57.2133 74.3852C56.8528 74.2115 56.5528 73.9335 56.3523 73.5872C56.1519 73.2409 56.0602 72.8423 56.0893 72.4432C56.2079 70.942 56.1814 69.4328 56.0101 67.9366C55.9649 67.5128 56.0555 67.0855 56.2689 66.7165C56.4823 66.3476 56.8075 66.056 57.1975 65.8838L60.8386 64.2532C61.2933 64.0508 61.6582 63.6889 61.8643 63.2358C62.0704 62.7828 62.1035 62.2699 61.9573 61.7941C61.48 60.2222 60.8746 58.692 60.1473 57.2189C59.409 55.7196 58.5495 54.2829 57.5774 52.9234C57.2868 52.5184 56.8581 52.2337 56.3721 52.1228C55.8861 52.012 55.3763 52.0828 54.9389 52.3218L51.4771 54.2321C51.1003 54.4418 50.666 54.5247 50.2384 54.4686C49.8108 54.4126 49.4126 54.2205 49.1025 53.9208C47.9219 52.7894 46.6274 51.7831 45.2397 50.9181C44.8708 50.6891 44.5858 50.347 44.427 49.9429C44.2683 49.5388 44.2442 49.0943 44.3584 48.6754L45.3821 44.8812C45.5119 44.3961 45.4588 43.8803 45.2331 43.4318C45.0074 42.9833 44.6247 42.6333 44.1579 42.4485C41.0742 41.2274 37.8128 40.5146 34.5009 40.3377C34.0037 40.3135 33.5148 40.4718 33.1261 40.7828C32.7374 41.0937 32.4757 41.536 32.3901 42.0263L31.6618 45.9524C31.5901 46.3769 31.3845 46.7672 31.0749 47.0663C30.7653 47.3655 30.3682 47.5576 29.9415 47.6147C28.3059 47.8275 26.6978 48.215 25.1447 48.7704C24.7303 48.9166 24.2794 48.9229 23.861 48.7886C23.4427 48.6542 23.0798 48.3865 22.8281 48.0263ZM38.2792 56.0052C55.9415 65.0131 47.7779 89.0079 28.2845 85.3772C28.0736 85.3374 27.8693 85.2681 27.6777 85.1714C10.0207 76.1582 18.179 52.1741 37.6671 55.7994C37.8799 55.8384 38.0861 55.9077 38.2792 56.0052Z" fill="#E1E8F0"/>
</g>
</g>
<path d="M25.2265 166.077C28.6038 165.103 30.5524 161.576 29.5789 158.199C28.6054 154.822 25.0784 152.873 21.7011 153.846C18.3238 154.82 16.3751 158.347 17.3487 161.724C18.3222 165.102 21.8492 167.05 25.2265 166.077Z" fill="#407BFF"/>
<path d="M17.8523 144.792C17.8523 144.173 17.6688 143.568 17.3249 143.053C16.9811 142.538 16.4924 142.137 15.9206 141.9C15.3488 141.664 14.7196 141.602 14.1125 141.722C13.5055 141.843 12.9479 142.141 12.5103 142.579C12.0727 143.016 11.7746 143.574 11.6539 144.181C11.5331 144.788 11.5951 145.417 11.832 145.989C12.0688 146.561 12.4699 147.05 12.9845 147.393C13.4991 147.737 14.1041 147.921 14.723 147.921C15.5525 147.919 16.3477 147.589 16.9342 147.003C17.5208 146.416 17.8509 145.621 17.8523 144.792Z" fill="#407BFF"/>
<path d="M48.1258 29.525C48.1258 28.9061 47.9422 28.3011 47.5984 27.7865C47.2545 27.2719 46.7658 26.8708 46.194 26.634C45.6222 26.3971 44.993 26.3351 44.386 26.4559C43.779 26.5766 43.2214 26.8747 42.7837 27.3123C42.3461 27.7499 42.0481 28.3075 41.9273 28.9145C41.8066 29.5216 41.8685 30.1508 42.1054 30.7226C42.3422 31.2944 42.7433 31.7831 43.2579 32.1269C43.7725 32.4708 44.3776 32.6543 44.9965 32.6543C45.8264 32.6543 46.6224 32.3246 47.2092 31.7378C47.7961 31.1509 48.1258 30.355 48.1258 29.525Z" fill="#407BFF"/>
<path d="M296.212 186.253C296.212 185.634 296.028 185.029 295.684 184.515C295.34 184 294.852 183.599 294.28 183.362C293.708 183.125 293.079 183.063 292.472 183.184C291.865 183.305 291.307 183.603 290.87 184.041C290.432 184.478 290.134 185.036 290.013 185.643C289.893 186.25 289.954 186.879 290.191 187.451C290.428 188.023 290.829 188.511 291.344 188.855C291.858 189.199 292.464 189.383 293.082 189.383C293.912 189.383 294.708 189.053 295.295 188.466C295.882 187.879 296.212 187.083 296.212 186.253Z" fill="#407BFF"/>
<path d="M271.555 88.3799C271.556 87.7608 271.374 87.1553 271.031 86.6399C270.687 86.1246 270.199 85.7227 269.627 85.4851C269.056 85.2474 268.426 85.1847 267.819 85.3048C267.212 85.425 266.653 85.7226 266.215 86.16C265.777 86.5975 265.479 87.155 265.357 87.7622C265.236 88.3694 265.298 88.9988 265.535 89.571C265.771 90.1431 266.172 90.6321 266.687 90.9762C267.202 91.3203 267.807 91.5039 268.426 91.5039C268.837 91.5046 269.244 91.4243 269.623 91.2677C270.003 91.111 270.348 90.881 270.639 90.5908C270.929 90.3006 271.16 89.956 271.317 89.5767C271.474 89.1973 271.555 88.7906 271.555 88.3799Z" fill="#407BFF"/>
<path d="M140.38 43.6727C143.365 43.6727 145.784 41.2534 145.784 38.269C145.784 35.2846 143.365 32.8653 140.38 32.8653C137.396 32.8653 134.977 35.2846 134.977 38.269C134.977 41.2534 137.396 43.6727 140.38 43.6727Z" fill="#407BFF"/>
</svg>
