<svg width="336" height="250" viewBox="0 0 336 250" fill="none" xmlns="http://www.w3.org/2000/svg">
<g clip-path="url(#clip0_1281_20724)">
<path d="M335.471 219.7H0V219.868H335.471V219.7Z" fill="#EBEBEB"/>
<path d="M301.856 230.496H279.635V230.663H301.856V230.496Z" fill="#EBEBEB"/>
<path d="M222.229 232.321H216.398V232.488H222.229V232.321Z" fill="#EBEBEB"/>
<path d="M278.965 224.269H266.09V224.437H278.965V224.269Z" fill="#EBEBEB"/>
<path d="M64.1753 225.397H35.1973V225.564H64.1753V225.397Z" fill="#EBEBEB"/>
<path d="M74.4014 225.397H70.1543V225.564H74.4014V225.397Z" fill="#EBEBEB"/>
<path d="M151.063 228.228H88.209V228.396H151.063V228.228Z" fill="#EBEBEB"/>
<path d="M159.013 189.776H29.4611C28.4462 189.774 27.4735 189.37 26.7564 188.652C26.0394 187.933 25.6367 186.96 25.6367 185.945V3.83109C25.6456 2.82201 26.0522 1.85716 26.7682 1.14612C27.4843 0.435085 28.452 0.0352827 29.4611 0.0335541H159.013C160.03 0.0335541 161.004 0.437185 161.722 1.15565C162.441 1.87412 162.845 2.84857 162.845 3.86464V185.945C162.845 186.961 162.441 187.936 161.722 188.654C161.004 189.373 160.03 189.776 159.013 189.776ZM29.4611 0.167743C28.4907 0.16952 27.5606 0.556262 26.8751 1.24308C26.1895 1.9299 25.8045 2.86067 25.8045 3.83109V185.945C25.8045 186.916 26.1895 187.846 26.8751 188.533C27.5606 189.22 28.4907 189.607 29.4611 189.608H159.013C159.984 189.607 160.915 189.22 161.602 188.534C162.288 187.847 162.675 186.916 162.677 185.945V3.83109C162.675 2.86005 162.288 1.9293 161.602 1.24267C160.915 0.556044 159.984 0.169517 159.013 0.167743H29.4611Z" fill="#EBEBEB"/>
<path d="M304.146 189.776H174.587C173.571 189.774 172.598 189.37 171.88 188.652C171.162 187.934 170.758 186.961 170.756 185.945V3.83109C170.766 2.8214 171.175 1.85656 171.892 1.1457C172.609 0.434851 173.577 0.0352638 174.587 0.0335541H304.146C305.154 0.037046 306.12 0.437629 306.835 1.14848C307.549 1.85933 307.955 2.82317 307.964 3.83109V185.945C307.964 186.959 307.562 187.931 306.846 188.649C306.131 189.367 305.16 189.773 304.146 189.776ZM174.587 0.167743C173.616 0.169517 172.685 0.556044 171.999 1.24267C171.312 1.9293 170.925 2.86005 170.924 3.83109V185.945C170.925 186.916 171.312 187.847 171.999 188.534C172.685 189.22 173.616 189.607 174.587 189.608H304.146C305.117 189.607 306.048 189.22 306.734 188.534C307.421 187.847 307.808 186.916 307.809 185.945V3.83109C307.808 2.86005 307.421 1.9293 306.734 1.24267C306.048 0.556044 305.117 0.169517 304.146 0.167743H174.587Z" fill="#EBEBEB"/>
<path d="M105.016 159.396L95.7238 167.165L108.962 186.408L119.536 180.504C125.204 185.947 131.848 190.272 139.12 193.252L138.047 205.282L161.027 209.515L164.321 197.895C172.166 197.715 179.906 196.054 187.133 192.997L194.903 202.289L214.145 189.052L208.254 178.504C213.699 172.84 218.025 166.197 221.002 158.926L233.026 160L237.273 137.033L225.652 133.732C225.468 125.888 223.806 118.149 220.754 110.92L230.047 103.151L216.809 83.9148L206.228 89.8124C200.562 84.3693 193.92 80.0443 186.65 77.0645L187.724 65.0345L164.757 60.7941L161.463 72.4081C153.619 72.5947 145.88 74.2562 138.651 77.306L130.834 67.9732L111.605 81.2176L117.503 91.7917C112.059 97.4601 107.734 104.105 104.755 111.377L92.7247 110.303L88.4844 133.269L100.098 136.564C100.285 144.416 101.953 152.163 105.016 159.396ZM131.794 129.385C132.93 123.236 135.865 117.562 140.226 113.081C144.587 108.6 150.179 105.513 156.294 104.21C162.41 102.907 168.774 103.447 174.583 105.762C180.392 108.076 185.384 112.061 188.928 117.212C192.472 122.363 194.409 128.45 194.494 134.702C194.579 140.955 192.807 147.092 189.404 152.337C186.001 157.583 181.119 161.702 175.375 164.173C169.632 166.644 163.284 167.356 157.135 166.219C148.89 164.695 141.588 159.958 136.836 153.05C132.083 146.143 130.27 137.63 131.794 129.385Z" fill="#F0F0F0"/>
<path d="M259.91 147.527L267.169 148.869L268.209 145.199C270.692 145.139 273.141 144.613 275.429 143.649L277.884 146.588L283.97 142.401L282.105 139.046C283.825 137.257 285.192 135.158 286.13 132.86L289.934 133.196L291.276 125.943L287.6 124.896C287.545 122.413 287.019 119.963 286.05 117.677L288.988 115.221L284.802 109.142L281.447 111.007C279.655 109.29 277.557 107.925 275.261 106.982L275.596 103.184L268.337 101.842L267.297 105.512C264.815 105.573 262.366 106.099 260.078 107.062L257.642 104.124L251.557 108.31L253.422 111.665C251.701 113.454 250.335 115.553 249.396 117.851L245.592 117.516L244.25 124.769L247.92 125.815C247.978 128.298 248.504 130.747 249.47 133.035L246.531 135.49L250.718 141.569L254.073 139.704C255.864 141.425 257.965 142.791 260.265 143.729L259.91 147.527ZM257.931 123.541C258.289 121.596 259.216 119.801 260.594 118.383C261.973 116.965 263.741 115.988 265.675 115.575C267.609 115.162 269.622 115.332 271.46 116.064C273.297 116.795 274.876 118.055 275.998 119.684C277.119 121.313 277.731 123.238 277.758 125.216C277.785 127.193 277.225 129.134 276.148 130.793C275.072 132.452 273.528 133.755 271.711 134.536C269.894 135.317 267.886 135.542 265.942 135.182C263.337 134.697 261.031 133.2 259.529 131.018C258.027 128.835 257.452 126.146 257.931 123.541Z" fill="#F0F0F0"/>
<path d="M56.1573 168.199L61.6859 169.225L62.4843 166.427C64.3735 166.379 66.2371 165.979 67.9793 165.247L69.8512 167.481L74.4874 164.294L73.065 161.731C74.3735 160.372 75.4138 158.779 76.1313 157.034L79.0297 157.289L80.0496 151.761L77.2517 150.996C77.2101 149.104 76.8094 147.237 76.0709 145.494L78.3118 143.622L75.1181 138.993L72.5753 140.415C71.2152 139.107 69.6222 138.064 67.8787 137.342L68.1403 134.45L62.605 133.424L61.8133 136.222C59.922 136.27 58.0562 136.67 56.3116 137.402L54.4464 135.168L49.8102 138.355L51.2326 140.905C49.9234 142.263 48.8831 143.856 48.1664 145.601L45.2679 145.346L44.248 150.875L47.0257 151.667C47.0674 153.559 47.4681 155.426 48.2066 157.168L45.9657 159.047L49.1526 163.677L51.7022 162.261C53.0632 163.566 54.656 164.606 56.3988 165.327L56.1573 168.199ZM54.6544 149.929C54.9288 148.45 55.6357 147.085 56.6857 146.007C57.7356 144.93 59.0815 144.187 60.5532 143.875C62.0249 143.562 63.5563 143.692 64.9538 144.25C66.3513 144.807 67.5522 145.766 68.4046 147.006C69.2571 148.246 69.7228 149.71 69.743 151.215C69.7632 152.719 69.3368 154.196 68.5179 155.458C67.699 156.72 66.5243 157.711 65.1422 158.306C63.7601 158.901 62.2328 159.072 60.7532 158.799C58.7687 158.43 57.0116 157.289 55.868 155.626C54.7245 153.963 54.2879 151.914 54.6544 149.929Z" fill="#F0F0F0"/>
<path d="M154.888 44.9867L159.074 45.7583L159.685 43.6448C161.118 43.6161 162.532 43.3132 163.852 42.7525L165.267 44.45L168.77 42.0346L167.696 40.109C168.687 39.0754 169.475 37.8645 170.017 36.5396L172.205 36.7341L172.976 32.5542L170.863 31.9503C170.828 30.5202 170.525 29.1092 169.971 27.7905L171.661 26.3748L169.253 22.8725L167.327 23.946C166.293 22.955 165.083 22.1674 163.758 21.6245L163.952 19.4372L159.765 18.6589L159.168 20.7791C157.737 20.8072 156.325 21.1101 155.008 21.6715L153.593 19.974L150.084 22.3894L151.164 24.315C150.171 25.347 149.383 26.5583 148.843 27.8844L146.649 27.6898L145.877 31.8698L147.99 32.4736C148.024 33.904 148.327 35.3151 148.883 36.6335L147.192 38.0492L149.607 41.5515L151.533 40.478C152.563 41.4699 153.772 42.2577 155.096 42.7995L154.888 44.9867ZM153.754 31.1586C153.961 30.0392 154.496 29.0065 155.29 28.1908C156.084 27.3752 157.102 26.8134 158.216 26.5763C159.329 26.3393 160.488 26.4377 161.545 26.8591C162.603 27.2806 163.512 28.0061 164.157 28.9439C164.802 29.8818 165.155 30.9899 165.17 32.1282C165.186 33.2665 164.864 34.3838 164.244 35.339C163.625 36.2941 162.736 37.0442 161.691 37.4944C160.645 37.9445 159.489 38.0746 158.37 37.868C156.871 37.5908 155.542 36.73 154.677 35.4747C153.812 34.2193 153.48 32.6719 153.754 31.172V31.1586Z" fill="#F0F0F0"/>
<path d="M224.425 78.6613L227.216 79.1713L227.612 77.7623C228.567 77.7396 229.509 77.537 230.389 77.1651L231.335 78.299L233.67 76.6888L232.952 75.4006C233.614 74.7135 234.14 73.9076 234.502 73.0254L235.965 73.1529L236.481 70.3618L235.066 69.9592C235.045 69.0067 234.844 68.0666 234.475 67.1882L235.603 66.2422L233.992 63.9073L232.711 64.6252C232.02 63.965 231.212 63.4394 230.329 63.0753L230.456 61.6127L227.665 61.0961L227.269 62.5117C226.315 62.5322 225.372 62.7325 224.492 63.1022L223.546 61.975L221.211 63.5853L221.929 64.8668C221.268 65.5574 220.743 66.3652 220.379 67.2486L218.916 67.1211L218.406 69.9055L219.815 70.3081C219.835 71.2637 220.037 72.2067 220.412 73.0858L219.278 74.0251L220.889 76.3667L222.177 75.6488C222.864 76.3104 223.67 76.8362 224.552 77.1987L224.425 78.6613ZM223.666 69.4359C223.804 68.6878 224.16 67.9973 224.69 67.4518C225.221 66.9063 225.901 66.5303 226.644 66.3714C227.388 66.2125 228.163 66.2779 228.869 66.5592C229.576 66.8405 230.183 67.3251 230.615 67.9517C231.046 68.5783 231.281 69.3187 231.292 70.0793C231.302 70.8399 231.086 71.5864 230.672 72.2244C230.258 72.8624 229.664 73.3632 228.965 73.6634C228.266 73.9637 227.494 74.0499 226.746 73.9111C225.745 73.7252 224.858 73.1496 224.281 72.3105C223.703 71.4715 223.482 70.4376 223.666 69.4359Z" fill="#F0F0F0"/>
<path d="M95.7767 45.0337L98.5678 45.5503L98.9636 44.1413C99.9185 44.1153 100.86 43.9129 101.741 43.5442L102.687 44.6714L105.022 43.0611L104.304 41.7796C104.966 41.09 105.492 40.282 105.854 39.3978L107.317 39.532L107.834 36.7408L106.418 36.3383C106.397 35.3836 106.196 34.4413 105.827 33.5606L106.955 32.6212L105.344 30.2797L104.056 30.9976C103.371 30.3358 102.564 29.812 101.681 29.4544L101.808 27.9917L99.0173 27.4751L98.6282 28.8841C97.673 28.9068 96.7306 29.1094 95.8505 29.4812L94.9044 28.354L92.5897 29.9576L93.3076 31.2458C92.646 31.9354 92.1202 32.7434 91.7577 33.6277L90.2951 33.4935L89.7852 36.2846L91.1941 36.6872C91.2136 37.6406 91.4163 38.5813 91.7913 39.4582L90.6574 40.4042L92.2676 42.7458L93.5559 42.0279C94.2433 42.6873 95.0491 43.2108 95.931 43.571L95.7767 45.0337ZM95.0185 35.8149C95.1561 35.0668 95.5124 34.3763 96.0425 33.8309C96.5727 33.2854 97.2527 32.9094 97.9965 32.7505C98.7404 32.5916 99.5147 32.6569 100.221 32.9382C100.928 33.2195 101.535 33.7041 101.967 34.3307C102.398 34.9573 102.634 35.6978 102.644 36.4583C102.654 37.2189 102.438 37.9654 102.024 38.6034C101.61 39.2414 101.016 39.7423 100.317 40.0425C99.6182 40.3427 98.846 40.4289 98.0981 40.2901C97.0967 40.1043 96.21 39.5286 95.6326 38.6896C95.0552 37.8505 94.8343 36.8167 95.0185 35.8149Z" fill="#F0F0F0"/>
<path d="M219.814 193.775C219.849 195.441 220.202 197.085 220.854 198.619L218.881 200.27L221.692 204.342L223.933 203.094C225.137 204.242 226.546 205.152 228.086 205.778L227.858 208.328L232.729 209.227L233.4 206.764C235.063 206.722 236.704 206.369 238.238 205.725L239.888 207.69L243.968 204.886L242.746 202.658C243.895 201.455 244.805 200.046 245.43 198.505L247.98 198.733L248.919 193.869L246.457 193.198C246.421 191.532 246.068 189.888 245.417 188.354L247.389 186.71L244.585 182.631L242.31 183.872C241.111 182.722 239.704 181.812 238.164 181.188L238.385 178.632L233.521 177.733L232.85 180.195C231.185 180.238 229.542 180.591 228.006 181.235L226.355 179.269L222.276 182.074L223.531 184.315C222.383 185.518 221.472 186.927 220.847 188.468L218.297 188.24L217.385 193.077L219.814 193.775ZM226.523 192.259C226.762 190.952 227.383 189.746 228.308 188.793C229.233 187.84 230.42 187.183 231.719 186.906C233.018 186.628 234.37 186.741 235.604 187.233C236.838 187.724 237.898 188.57 238.651 189.664C239.403 190.758 239.814 192.051 239.832 193.379C239.849 194.707 239.472 196.01 238.748 197.124C238.024 198.237 236.986 199.111 235.765 199.634C234.545 200.157 233.196 200.306 231.891 200.062C230.147 199.734 228.604 198.729 227.599 197.267C226.595 195.805 226.21 194.004 226.53 192.259H226.523Z" fill="#F0F0F0"/>
<path d="M261.956 164.884L254.461 167.628L261.956 170.352V173.137L251.221 169.064V166.139L261.956 162.066V164.884Z" fill="#E0E0E0"/>
<path d="M270.021 156.551H273.154L265.727 177.76H262.594L270.021 156.551Z" fill="#E0E0E0"/>
<path d="M284.278 166.166V169.111L273.543 173.184V170.373L281.037 167.648L273.543 164.904V162.113L284.278 166.166Z" fill="#E0E0E0"/>
<path d="M75.7084 200.699C76.7819 201.021 77.2784 201.699 77.2784 203.316V207.053C77.2471 207.285 77.2693 207.522 77.3435 207.744C77.4176 207.967 77.5417 208.169 77.7062 208.336C77.8707 208.503 78.0712 208.631 78.2924 208.708C78.5137 208.786 78.7498 208.812 78.9826 208.784H79.4053V211.636H78.0634C75.1381 211.636 73.6419 210.139 73.6419 207.449V203.222C73.6419 202.47 73.246 202.122 72.6153 202.122H71.8438V199.304H72.6153C73.246 199.304 73.6419 198.955 73.6419 198.203V193.936C73.6419 191.252 75.1381 189.756 78.0634 189.756H79.4053V192.594H78.9826C78.7498 192.566 78.5137 192.592 78.2924 192.67C78.0712 192.748 77.8707 192.875 77.7062 193.042C77.5417 193.209 77.4176 193.412 77.3435 193.634C77.2693 193.856 77.2471 194.093 77.2784 194.325V198.062C77.2784 199.693 76.7819 200.37 75.7084 200.699Z" fill="#E0E0E0"/>
<path d="M94.3074 199.304V202.155H93.5358C93.391 202.142 93.2451 202.162 93.1093 202.214C92.9734 202.266 92.8511 202.348 92.7516 202.454C92.6521 202.56 92.5779 202.687 92.5348 202.826C92.4916 202.965 92.4806 203.112 92.5025 203.255V207.482C92.5025 210.166 91.0063 211.669 88.0877 211.669H86.7458V208.818H87.1685C87.4014 208.845 87.6374 208.819 87.8587 208.742C88.0799 208.664 88.2805 208.537 88.4449 208.37C88.6094 208.203 88.7335 208 88.8076 207.778C88.8818 207.555 88.9041 207.319 88.8727 207.087V203.329C88.8727 201.712 89.3625 201.035 90.436 200.713C89.3625 200.384 88.8727 199.706 88.8727 198.089V194.339C88.9068 194.104 88.8861 193.865 88.8122 193.639C88.7384 193.414 88.6134 193.209 88.447 193.04C88.2807 192.871 88.0775 192.743 87.8534 192.665C87.6292 192.588 87.3902 192.564 87.1551 192.594H86.7324V189.743H88.0743C90.9929 189.743 92.4891 191.239 92.4891 193.923V198.156C92.4672 198.3 92.4782 198.447 92.5214 198.586C92.5645 198.724 92.6386 198.852 92.7382 198.958C92.8377 199.064 92.96 199.146 93.0958 199.197C93.2317 199.249 93.3775 199.269 93.5224 199.257L94.3074 199.304Z" fill="#E0E0E0"/>
<path d="M66.082 64.5313C66.082 59.9286 69.6112 56.641 74.3615 56.641C75.5416 56.5884 76.7183 56.8024 77.8044 57.267C78.8904 57.7316 79.8579 58.435 80.6348 59.3248L78.367 61.4114C77.9019 60.8471 77.3164 60.394 76.6536 60.0852C75.9907 59.7764 75.2671 59.6198 74.5359 59.6267C73.8797 59.6024 73.2253 59.7106 72.6119 59.9449C71.9984 60.1793 71.4385 60.5349 70.9657 60.9906C70.4928 61.4462 70.1167 61.9925 69.8598 62.5969C69.6029 63.2012 69.4704 63.8511 69.4704 64.5078C69.4704 65.1645 69.6029 65.8144 69.8598 66.4187C70.1167 67.0231 70.4928 67.5694 70.9657 68.0251C71.4385 68.4807 71.9984 68.8363 72.6119 69.0707C73.2253 69.305 73.8797 69.4133 74.5359 69.3889C75.27 69.397 75.9964 69.2381 76.6601 68.9243C77.3238 68.6105 77.9074 68.1499 78.367 67.5774L80.6348 69.6707C79.8612 70.5725 78.8925 71.2864 77.8021 71.7584C76.7118 72.2303 75.5283 72.4479 74.3413 72.3947C69.6112 72.4149 66.082 69.1407 66.082 64.5313Z" fill="#E0E0E0"/>
<path d="M92.7977 65.8598H89.0069V69.5634H86.1956V65.8598H82.4316V63.176H86.1956V59.4657H89.0069V63.176H92.7977V65.8598Z" fill="#E0E0E0"/>
<path d="M106.009 65.8598H102.219V69.5634H99.4074V65.8598H95.6367V63.176H99.4074V59.4657H102.219V63.176H106.009V65.8598Z" fill="#E0E0E0"/>
<path d="M122.152 141.354L124.353 138.711C125.286 139.959 126.319 140.596 127.54 140.596C129.137 140.596 129.969 139.637 129.969 137.751V129.593H123.93V126.406H133.907V137.53C133.907 141.77 131.774 143.857 127.728 143.857C126.669 143.897 125.615 143.692 124.647 143.257C123.68 142.823 122.827 142.172 122.152 141.354Z" fill="#E0E0E0"/>
<path d="M136.295 142.334L137.543 139.59C138.929 140.416 140.512 140.856 142.125 140.864C143.89 140.864 144.554 140.401 144.554 139.663C144.554 137.51 136.59 139.71 136.59 134.444C136.59 131.941 138.845 130.176 142.689 130.176C144.451 130.142 146.194 130.538 147.768 131.33L146.493 134.054C145.334 133.397 144.022 133.057 142.689 133.068C140.978 133.068 140.24 133.612 140.24 134.296C140.24 136.55 148.204 134.37 148.204 139.563C148.204 142.018 145.93 143.756 141.978 143.756C139.991 143.79 138.031 143.299 136.295 142.334Z" fill="#E0E0E0"/>
<path d="M167.736 250C239.582 250 297.825 246.6 297.825 242.405C297.825 238.21 239.582 234.81 167.736 234.81C95.8894 234.81 37.6465 238.21 37.6465 242.405C37.6465 246.6 95.8894 250 167.736 250Z" fill="#F5F5F5"/>
<path d="M218.68 25.5361H198.666C197.824 25.5361 197.143 26.218 197.143 27.0591V47.0734C197.143 47.9145 197.824 48.5964 198.666 48.5964H218.68C219.521 48.5964 220.203 47.9145 220.203 47.0734V27.0591C220.203 26.218 219.521 25.5361 218.68 25.5361Z" fill="#FF6C37"/>
<g opacity="0.4">
<path d="M218.68 25.5361H198.666C197.824 25.5361 197.143 26.218 197.143 27.0591V47.0734C197.143 47.9145 197.824 48.5964 198.666 48.5964H218.68C219.521 48.5964 220.203 47.9145 220.203 47.0734V27.0591C220.203 26.218 219.521 25.5361 218.68 25.5361Z" fill="white"/>
</g>
<path d="M205.576 35.8485L201.55 37.3178L205.576 38.7738V40.2901L199.859 38.1096V36.553L205.576 34.3724V35.8485Z" fill="white"/>
<path d="M209.884 31.4068H211.555L207.583 42.7256H205.912L209.884 31.4068Z" fill="white"/>
<path d="M217.486 36.5396V38.0961L211.77 40.2901V38.7872L215.795 37.3313L211.77 35.8619V34.3724L217.486 36.5396Z" fill="white"/>
<path d="M202.221 52.8099V58.4056H200.927V56.1043H198.377V58.4056H197.082V52.8032H198.377V55.0509H200.927V52.8435L202.221 52.8099Z" fill="#263238"/>
<path d="M204.718 53.8633H202.92V52.8099H207.804V53.8633H206.013V58.4056H204.718V53.8633Z" fill="#263238"/>
<path d="M213.608 58.4056V55.0509L211.957 57.8219H211.347L209.703 55.1381V58.4056H208.488V52.8032H209.562L211.655 56.2854L213.722 52.8032H214.788V58.4056H213.608Z" fill="#263238"/>
<path d="M216.156 52.8099H217.451V57.3522H220.262V58.4056H216.156V52.8099Z" fill="#263238"/>
<g opacity="0.6">
<path d="M202.221 52.8099V58.4056H200.927V56.1043H198.377V58.4056H197.082V52.8032H198.377V55.0509H200.927V52.8435L202.221 52.8099Z" fill="white"/>
<path d="M204.718 53.8633H202.92V52.8099H207.804V53.8633H206.013V58.4056H204.718V53.8633Z" fill="white"/>
<path d="M213.608 58.4056V55.0509L211.957 57.8219H211.347L209.703 55.1381V58.4056H208.488V52.8032H209.562L211.655 56.2854L213.722 52.8032H214.788V58.4056H213.608Z" fill="white"/>
<path d="M216.156 52.8099H217.451V57.3522H220.262V58.4056H216.156V52.8099Z" fill="white"/>
</g>
<path d="M268 37.8278H247.986C247.145 37.8278 246.463 38.5096 246.463 39.3508V59.365C246.463 60.2062 247.145 60.8881 247.986 60.8881H268C268.841 60.8881 269.523 60.2062 269.523 59.365V39.3508C269.523 38.5096 268.841 37.8278 268 37.8278Z" fill="#FF6C37"/>
<g opacity="0.4">
<path d="M268 37.8278H247.986C247.145 37.8278 246.463 38.5096 246.463 39.3508V59.365C246.463 60.2062 247.145 60.8881 247.986 60.8881H268C268.841 60.8881 269.523 60.2062 269.523 59.365V39.3508C269.523 38.5096 268.841 37.8278 268 37.8278Z" fill="white"/>
</g>
<path d="M254.212 49.3545C254.762 49.5223 255.017 49.8712 255.017 50.6964V52.622C255.002 52.7414 255.014 52.8626 255.053 52.9764C255.092 53.0903 255.156 53.1938 255.241 53.2792C255.325 53.3646 255.428 53.4295 255.542 53.4691C255.656 53.5087 255.777 53.5219 255.896 53.5077H256.111V54.9771H255.44C253.937 54.9771 253.172 54.2055 253.172 52.8233V50.6495C253.182 50.576 253.176 50.5011 253.153 50.4303C253.131 50.3596 253.093 50.2948 253.042 50.2407C252.991 50.1867 252.929 50.1447 252.86 50.1179C252.79 50.0911 252.716 50.0802 252.642 50.0859H252.246V48.6165H252.642C252.716 48.6222 252.79 48.6113 252.86 48.5845C252.929 48.5577 252.991 48.5157 253.042 48.4616C253.093 48.4076 253.131 48.3428 253.153 48.2721C253.176 48.2013 253.182 48.1264 253.172 48.0529V45.8791C253.172 44.4969 253.937 43.7253 255.44 43.7253H256.111V45.1947H255.896C255.777 45.1805 255.656 45.1937 255.542 45.2333C255.428 45.2729 255.325 45.3378 255.241 45.4232C255.156 45.5086 255.092 45.6121 255.053 45.726C255.014 45.8398 255.002 45.961 255.017 46.0803V48.006C255.017 48.8379 254.762 49.1868 254.212 49.3545Z" fill="white"/>
<path d="M263.767 48.6232V50.0926H263.371C263.297 50.0869 263.223 50.0978 263.154 50.1246C263.084 50.1514 263.022 50.1934 262.971 50.2475C262.92 50.3015 262.882 50.3663 262.86 50.4371C262.837 50.5078 262.831 50.5827 262.841 50.6562V52.83C262.841 54.2122 262.069 54.9838 260.573 54.9838H259.902V53.5144H260.117C260.236 53.5286 260.358 53.5154 260.471 53.4758C260.585 53.4362 260.688 53.3713 260.772 53.2859C260.857 53.2006 260.921 53.097 260.96 52.9831C260.999 52.8693 261.011 52.7481 260.996 52.6288V50.7032C260.996 49.8712 261.244 49.5223 261.801 49.3613C261.244 49.1935 260.996 48.8446 260.996 48.0194V46.0938C261.011 45.9745 260.999 45.8533 260.96 45.7394C260.921 45.6255 260.857 45.522 260.772 45.4366C260.688 45.3512 260.585 45.2863 260.471 45.2467C260.358 45.2071 260.236 45.1939 260.117 45.2081H259.902V43.7388H260.573C262.069 43.7388 262.841 44.5104 262.841 45.8925V48.0663C262.831 48.1399 262.837 48.2147 262.86 48.2855C262.882 48.3562 262.92 48.421 262.971 48.4751C263.022 48.5291 263.084 48.5711 263.154 48.5979C263.223 48.6247 263.297 48.6357 263.371 48.6299L263.767 48.6232Z" fill="white"/>
<path d="M250.262 67.9866C250.295 67.3787 250.507 66.7941 250.872 66.3066C251.236 65.819 251.737 65.4501 252.311 65.2464C252.885 65.0428 253.506 65.0133 254.096 65.1618C254.687 65.3104 255.22 65.6302 255.629 66.0812L254.797 66.8527C254.628 66.6422 254.413 66.4726 254.169 66.3565C253.925 66.2403 253.658 66.1806 253.388 66.1818C253.143 66.1668 252.898 66.2021 252.667 66.2855C252.436 66.369 252.225 66.4987 252.046 66.6669C251.868 66.835 251.725 67.0379 251.628 67.2632C251.531 67.4884 251.48 67.7312 251.48 67.9766C251.48 68.2219 251.531 68.4647 251.628 68.69C251.725 68.9152 251.868 69.1181 252.046 69.2863C252.225 69.4544 252.436 69.5842 252.667 69.6676C252.898 69.751 253.143 69.7863 253.388 69.7713C253.658 69.7721 253.925 69.7122 254.169 69.596C254.413 69.4799 254.628 69.3105 254.797 69.1004L255.629 69.8653C255.222 70.3191 254.689 70.6418 254.098 70.7925C253.507 70.9431 252.885 70.915 252.31 70.7117C251.735 70.5083 251.234 70.1389 250.869 69.6502C250.504 69.1615 250.293 68.5755 250.262 67.9665V67.9866Z" fill="#263238"/>
<path d="M255.977 70.241L256.413 69.2614C256.959 69.6343 257.603 69.8374 258.264 69.8452C259.029 69.8452 259.345 69.5902 259.345 69.248C259.345 68.1946 256.084 68.9193 256.084 66.8393C256.084 65.8866 256.856 65.0882 258.446 65.0882C259.127 65.0768 259.799 65.2482 260.391 65.5847L259.996 66.571C259.523 66.2942 258.987 66.144 258.439 66.1349C257.674 66.1349 257.372 66.4166 257.372 66.7722C257.372 67.8055 260.633 67.0943 260.633 69.1474C260.633 70.0867 259.855 70.8851 258.258 70.8851C257.45 70.9042 256.655 70.6798 255.977 70.241Z" fill="#263238"/>
<path d="M261.084 70.241L261.527 69.2614C262.072 69.6372 262.717 69.8406 263.379 69.8452C264.143 69.8452 264.459 69.5902 264.459 69.248C264.459 68.1946 261.198 68.9193 261.198 66.8393C261.198 65.8866 261.97 65.0882 263.56 65.0882C264.241 65.0777 264.913 65.2491 265.505 65.5847L265.103 66.571C264.633 66.2936 264.099 66.1433 263.553 66.1348C262.781 66.1348 262.486 66.4166 262.486 66.7722C262.486 67.8055 265.747 67.0943 265.747 69.1474C265.747 70.0867 264.969 70.8851 263.365 70.8851C262.557 70.9042 261.763 70.6798 261.084 70.241Z" fill="#263238"/>
<g opacity="0.6">
<path d="M250.262 67.9866C250.295 67.3787 250.507 66.7941 250.872 66.3066C251.236 65.819 251.737 65.4501 252.311 65.2464C252.885 65.0428 253.506 65.0133 254.096 65.1618C254.687 65.3104 255.22 65.6302 255.629 66.0812L254.797 66.8527C254.628 66.6422 254.413 66.4726 254.169 66.3565C253.925 66.2403 253.658 66.1806 253.388 66.1818C253.143 66.1668 252.898 66.2021 252.667 66.2855C252.436 66.369 252.225 66.4987 252.046 66.6669C251.868 66.835 251.725 67.0379 251.628 67.2632C251.531 67.4884 251.48 67.7312 251.48 67.9766C251.48 68.2219 251.531 68.4647 251.628 68.69C251.725 68.9152 251.868 69.1181 252.046 69.2863C252.225 69.4544 252.436 69.5842 252.667 69.6676C252.898 69.751 253.143 69.7863 253.388 69.7713C253.658 69.7721 253.925 69.7122 254.169 69.596C254.413 69.4799 254.628 69.3105 254.797 69.1004L255.629 69.8653C255.222 70.3191 254.689 70.6418 254.098 70.7925C253.507 70.9431 252.885 70.915 252.31 70.7117C251.735 70.5083 251.234 70.1389 250.869 69.6502C250.504 69.1615 250.293 68.5755 250.262 67.9665V67.9866Z" fill="white"/>
<path d="M255.979 70.241L256.415 69.2614C256.961 69.6343 257.605 69.8374 258.266 69.8451C259.031 69.8451 259.347 69.5902 259.347 69.248C259.347 68.1946 256.086 68.9193 256.086 66.8393C256.086 65.8866 256.857 65.0882 258.448 65.0882C259.129 65.0767 259.801 65.2482 260.393 65.5847L259.997 66.5709C259.525 66.2942 258.989 66.144 258.441 66.1348C257.676 66.1348 257.374 66.4166 257.374 66.7722C257.374 67.8055 260.635 67.0943 260.635 69.1474C260.635 70.0867 259.857 70.8851 258.26 70.8851C257.452 70.9042 256.657 70.6798 255.979 70.241Z" fill="white"/>
<path d="M261.084 70.241L261.527 69.2614C262.072 69.6372 262.717 69.8406 263.379 69.8452C264.143 69.8452 264.459 69.5902 264.459 69.248C264.459 68.1946 261.198 68.9193 261.198 66.8393C261.198 65.8866 261.97 65.0882 263.56 65.0882C264.241 65.0777 264.913 65.2491 265.505 65.5847L265.103 66.571C264.633 66.2936 264.099 66.1433 263.553 66.1348C262.781 66.1348 262.486 66.4166 262.486 66.7722C262.486 67.8055 265.747 67.0943 265.747 69.1474C265.747 70.0867 264.969 70.8851 263.365 70.8851C262.557 70.9042 261.763 70.6798 261.084 70.241Z" fill="white"/>
</g>
<path d="M181.865 35.5801H99.668V95.0793H181.865V35.5801Z" fill="#FF6C37"/>
<path opacity="0.9" d="M181.865 35.5801H99.668V95.0793H181.865V35.5801Z" fill="white"/>
<path opacity="0.1" d="M111.114 35.5801H99.668V95.0793H111.114V35.5801Z" fill="black"/>
<path d="M181.865 35.5801H99.668V41.1422H181.865V35.5801Z" fill="#FF6C37"/>
<g opacity="0.2">
<path d="M132.651 49.5357H117.683C117.505 49.5357 117.334 49.465 117.208 49.3392C117.082 49.2134 117.012 49.0427 117.012 48.8648C117.012 48.6868 117.082 48.5162 117.208 48.3903C117.334 48.2645 117.505 48.1938 117.683 48.1938H132.651C132.829 48.1938 133 48.2645 133.126 48.3903C133.252 48.5162 133.322 48.6868 133.322 48.8648C133.322 49.0427 133.252 49.2134 133.126 49.3392C133 49.465 132.829 49.5357 132.651 49.5357Z" fill="#FF6C37"/>
<path d="M165.721 49.5357H136.636C136.458 49.5357 136.287 49.465 136.161 49.3392C136.036 49.2134 135.965 49.0427 135.965 48.8648C135.965 48.6868 136.036 48.5162 136.161 48.3903C136.287 48.2645 136.458 48.1938 136.636 48.1938H165.721C165.899 48.1938 166.07 48.2645 166.196 48.3903C166.321 48.5162 166.392 48.6868 166.392 48.8648C166.392 49.0427 166.321 49.2134 166.196 49.3392C166.07 49.465 165.899 49.5357 165.721 49.5357Z" fill="#FF6C37"/>
<path d="M158.797 53.917H119.694C119.516 53.917 119.346 53.8463 119.22 53.7204C119.094 53.5946 119.023 53.424 119.023 53.246C119.023 53.0681 119.094 52.8974 119.22 52.7716C119.346 52.6458 119.516 52.5751 119.694 52.5751H158.797C158.975 52.5751 159.146 52.6458 159.271 52.7716C159.397 52.8974 159.468 53.0681 159.468 53.246C159.468 53.424 159.397 53.5946 159.271 53.7204C159.146 53.8463 158.975 53.917 158.797 53.917Z" fill="#FF6C37"/>
<path d="M142.87 58.2915H117.683C117.505 58.2915 117.334 58.2208 117.208 58.095C117.082 57.9692 117.012 57.7985 117.012 57.6206C117.012 57.4426 117.082 57.272 117.208 57.1461C117.334 57.0203 117.505 56.9496 117.683 56.9496H142.87C143.048 56.9496 143.218 57.0203 143.344 57.1461C143.47 57.272 143.541 57.4426 143.541 57.6206C143.541 57.7985 143.47 57.9692 143.344 58.095C143.218 58.2208 143.048 58.2915 142.87 58.2915Z" fill="#FF6C37"/>
<path d="M165.721 58.2915H147.673C147.495 58.2915 147.324 58.2208 147.198 58.095C147.073 57.9692 147.002 57.7985 147.002 57.6206C147.002 57.4426 147.073 57.272 147.198 57.1461C147.324 57.0203 147.495 56.9496 147.673 56.9496H165.721C165.899 56.9496 166.07 57.0203 166.196 57.1461C166.322 57.272 166.392 57.4426 166.392 57.6206C166.392 57.7985 166.322 57.9692 166.196 58.095C166.07 58.2208 165.899 58.2915 165.721 58.2915Z" fill="#FF6C37"/>
<path d="M131.591 62.6728H117.683C117.505 62.6728 117.334 62.6021 117.208 62.4762C117.082 62.3504 117.012 62.1798 117.012 62.0018C117.012 61.8239 117.082 61.6532 117.208 61.5274C117.334 61.4016 117.505 61.3309 117.683 61.3309H131.591C131.769 61.3309 131.94 61.4016 132.066 61.5274C132.192 61.6532 132.262 61.8239 132.262 62.0018C132.262 62.1798 132.192 62.3504 132.066 62.4762C131.94 62.6021 131.769 62.6728 131.591 62.6728Z" fill="#FF6C37"/>
<path d="M157.998 62.6728H136.099C135.921 62.6728 135.75 62.6021 135.624 62.4762C135.498 62.3504 135.428 62.1798 135.428 62.0018C135.428 61.8239 135.498 61.6532 135.624 61.5274C135.75 61.4016 135.921 61.3309 136.099 61.3309H157.998C158.176 61.3309 158.347 61.4016 158.473 61.5274C158.599 61.6532 158.669 61.8239 158.669 62.0018C158.669 62.1798 158.599 62.3504 158.473 62.4762C158.347 62.6021 158.176 62.6728 157.998 62.6728Z" fill="#FF6C37"/>
<path d="M138.407 67.054H119.694C119.516 67.054 119.346 66.9833 119.22 66.8575C119.094 66.7317 119.023 66.561 119.023 66.3831C119.023 66.2051 119.094 66.0345 119.22 65.9086C119.346 65.7828 119.516 65.7121 119.694 65.7121H138.407C138.585 65.7121 138.756 65.7828 138.881 65.9086C139.007 66.0345 139.078 66.2051 139.078 66.3831C139.078 66.561 139.007 66.7317 138.881 66.8575C138.756 66.9833 138.585 67.054 138.407 67.054Z" fill="#FF6C37"/>
<path d="M140.749 71.4353H119.694C119.516 71.4353 119.346 71.3646 119.22 71.2388C119.094 71.1129 119.023 70.9423 119.023 70.7643C119.023 70.5864 119.094 70.4157 119.22 70.2899C119.346 70.1641 119.516 70.0934 119.694 70.0934H140.749C140.927 70.0934 141.097 70.1641 141.223 70.2899C141.349 70.4157 141.42 70.5864 141.42 70.7643C141.42 70.9423 141.349 71.1129 141.223 71.2388C141.097 71.3646 140.927 71.4353 140.749 71.4353Z" fill="#FF6C37"/>
<path d="M165.721 71.4353H144.251C144.073 71.4353 143.902 71.3646 143.777 71.2388C143.651 71.1129 143.58 70.9423 143.58 70.7643C143.58 70.5864 143.651 70.4157 143.777 70.2899C143.902 70.1641 144.073 70.0934 144.251 70.0934H165.721C165.899 70.0934 166.07 70.1641 166.196 70.2899C166.321 70.4157 166.392 70.5864 166.392 70.7643C166.392 70.9423 166.321 71.1129 166.196 71.2388C166.07 71.3646 165.899 71.4353 165.721 71.4353Z" fill="#FF6C37"/>
<path d="M129.732 75.8098H117.655C117.477 75.8098 117.307 75.7391 117.181 75.6133C117.055 75.4875 116.984 75.3168 116.984 75.1389C116.984 74.9609 117.055 74.7903 117.181 74.6645C117.307 74.5386 117.477 74.4679 117.655 74.4679H129.732C129.91 74.4679 130.081 74.5386 130.207 74.6645C130.333 74.7903 130.403 74.9609 130.403 75.1389C130.403 75.3168 130.333 75.4875 130.207 75.6133C130.081 75.7391 129.91 75.8098 129.732 75.8098Z" fill="#FF6C37"/>
<path d="M165.721 75.8098H133.845C133.667 75.8098 133.496 75.7391 133.37 75.6133C133.245 75.4875 133.174 75.3168 133.174 75.1389C133.174 74.9609 133.245 74.7903 133.37 74.6645C133.496 74.5386 133.667 74.4679 133.845 74.4679H165.721C165.899 74.4679 166.07 74.5386 166.196 74.6645C166.322 74.7903 166.392 74.9609 166.392 75.1389C166.392 75.3168 166.322 75.4875 166.196 75.6133C166.07 75.7391 165.899 75.8098 165.721 75.8098Z" fill="#FF6C37"/>
<path d="M140.614 80.1911H119.694C119.516 80.1911 119.346 80.1204 119.22 79.9946C119.094 79.8687 119.023 79.6981 119.023 79.5201C119.023 79.3422 119.094 79.1715 119.22 79.0457C119.346 78.9199 119.516 78.8492 119.694 78.8492H140.614C140.792 78.8492 140.963 78.9199 141.089 79.0457C141.215 79.1715 141.285 79.3422 141.285 79.5201C141.285 79.6981 141.215 79.8687 141.089 79.9946C140.963 80.1204 140.792 80.1911 140.614 80.1911Z" fill="#FF6C37"/>
<path d="M157.074 80.1911H143.534C143.356 80.1911 143.186 80.1204 143.06 79.9946C142.934 79.8687 142.863 79.6981 142.863 79.5201C142.863 79.3422 142.934 79.1715 143.06 79.0457C143.186 78.9199 143.356 78.8492 143.534 78.8492H157.074C157.252 78.8492 157.422 78.9199 157.548 79.0457C157.674 79.1715 157.745 79.3422 157.745 79.5201C157.745 79.6981 157.674 79.8687 157.548 79.9946C157.422 80.1204 157.252 80.1911 157.074 80.1911Z" fill="#FF6C37"/>
<path d="M143.775 84.5723H119.694C119.516 84.5723 119.346 84.5017 119.22 84.3758C119.094 84.25 119.023 84.0793 119.023 83.9014C119.023 83.7235 119.094 83.5528 119.22 83.427C119.346 83.3011 119.516 83.2305 119.694 83.2305H143.775C143.952 83.2305 144.123 83.3011 144.249 83.427C144.375 83.5528 144.445 83.7235 144.445 83.9014C144.445 84.0793 144.375 84.25 144.249 84.3758C144.123 84.5017 143.952 84.5723 143.775 84.5723Z" fill="#FF6C37"/>
</g>
<path opacity="0.4" d="M178.329 39.5454C178.963 39.5454 179.476 39.0317 179.476 38.3981C179.476 37.7644 178.963 37.2507 178.329 37.2507C177.695 37.2507 177.182 37.7644 177.182 38.3981C177.182 39.0317 177.695 39.5454 178.329 39.5454Z" fill="white"/>
<path opacity="0.4" d="M174.298 39.5454C174.931 39.5454 175.445 39.0317 175.445 38.3981C175.445 37.7644 174.931 37.2507 174.298 37.2507C173.664 37.2507 173.15 37.7644 173.15 38.3981C173.15 39.0317 173.664 39.5454 174.298 39.5454Z" fill="white"/>
<path opacity="0.4" d="M170.27 39.5454C170.904 39.5454 171.418 39.0317 171.418 38.3981C171.418 37.7644 170.904 37.2507 170.27 37.2507C169.637 37.2507 169.123 37.7644 169.123 38.3981C169.123 39.0317 169.637 39.5454 170.27 39.5454Z" fill="white"/>
<g opacity="0.2">
<path d="M105.593 49.5357C105.415 49.5357 105.244 49.465 105.118 49.3392C104.993 49.2134 104.922 49.0427 104.922 48.8648C104.922 48.6868 104.993 48.5162 105.118 48.3903C105.244 48.2645 105.415 48.1938 105.593 48.1938C105.771 48.1938 105.941 48.2645 106.067 48.3903C106.193 48.5162 106.264 48.6868 106.264 48.8648C106.264 49.0427 106.193 49.2134 106.067 49.3392C105.941 49.465 105.771 49.5357 105.593 49.5357Z" fill="black"/>
<path d="M105.593 53.917C105.415 53.917 105.244 53.8463 105.118 53.7204C104.993 53.5946 104.922 53.424 104.922 53.246C104.922 53.0681 104.993 52.8974 105.118 52.7716C105.244 52.6458 105.415 52.5751 105.593 52.5751C105.771 52.5751 105.941 52.6458 106.067 52.7716C106.193 52.8974 106.264 53.0681 106.264 53.246C106.264 53.424 106.193 53.5946 106.067 53.7204C105.941 53.8463 105.771 53.917 105.593 53.917Z" fill="black"/>
<path d="M105.593 58.2915C105.415 58.2915 105.244 58.2208 105.118 58.095C104.993 57.9692 104.922 57.7985 104.922 57.6206C104.922 57.4426 104.993 57.272 105.118 57.1461C105.244 57.0203 105.415 56.9496 105.593 56.9496C105.771 56.9496 105.941 57.0203 106.067 57.1461C106.193 57.272 106.264 57.4426 106.264 57.6206C106.264 57.7985 106.193 57.9692 106.067 58.095C105.941 58.2208 105.771 58.2915 105.593 58.2915Z" fill="black"/>
<path d="M105.593 62.6728C105.415 62.6728 105.244 62.6021 105.118 62.4762C104.993 62.3504 104.922 62.1798 104.922 62.0018C104.922 61.8239 104.993 61.6532 105.118 61.5274C105.244 61.4016 105.415 61.3309 105.593 61.3309C105.771 61.3309 105.941 61.4016 106.067 61.5274C106.193 61.6532 106.264 61.8239 106.264 62.0018C106.264 62.1798 106.193 62.3504 106.067 62.4762C105.941 62.6021 105.771 62.6728 105.593 62.6728Z" fill="black"/>
<path d="M105.593 67.054C105.415 67.054 105.244 66.9833 105.118 66.8575C104.993 66.7317 104.922 66.561 104.922 66.3831C104.922 66.2051 104.993 66.0345 105.118 65.9086C105.244 65.7828 105.415 65.7121 105.593 65.7121C105.771 65.7121 105.941 65.7828 106.067 65.9086C106.193 66.0345 106.264 66.2051 106.264 66.3831C106.264 66.561 106.193 66.7317 106.067 66.8575C105.941 66.9833 105.771 67.054 105.593 67.054Z" fill="black"/>
<path d="M105.593 71.4353C105.415 71.4353 105.244 71.3646 105.118 71.2388C104.993 71.1129 104.922 70.9423 104.922 70.7643C104.922 70.5864 104.993 70.4157 105.118 70.2899C105.244 70.1641 105.415 70.0934 105.593 70.0934C105.771 70.0934 105.941 70.1641 106.067 70.2899C106.193 70.4157 106.264 70.5864 106.264 70.7643C106.264 70.9423 106.193 71.1129 106.067 71.2388C105.941 71.3646 105.771 71.4353 105.593 71.4353Z" fill="black"/>
<path d="M105.593 75.8098C105.415 75.8098 105.244 75.7391 105.118 75.6133C104.993 75.4875 104.922 75.3168 104.922 75.1389C104.922 74.9609 104.993 74.7903 105.118 74.6645C105.244 74.5386 105.415 74.4679 105.593 74.4679C105.771 74.4679 105.941 74.5386 106.067 74.6645C106.193 74.7903 106.264 74.9609 106.264 75.1389C106.264 75.3168 106.193 75.4875 106.067 75.6133C105.941 75.7391 105.771 75.8098 105.593 75.8098Z" fill="black"/>
<path d="M105.593 80.1911C105.415 80.1911 105.244 80.1204 105.118 79.9946C104.993 79.8687 104.922 79.6981 104.922 79.5201C104.922 79.3422 104.993 79.1715 105.118 79.0457C105.244 78.9199 105.415 78.8492 105.593 78.8492C105.771 78.8492 105.941 78.9199 106.067 79.0457C106.193 79.1715 106.264 79.3422 106.264 79.5201C106.264 79.6981 106.193 79.8687 106.067 79.9946C105.941 80.1204 105.771 80.1911 105.593 80.1911Z" fill="black"/>
<path d="M105.593 84.5723C105.415 84.5723 105.244 84.5017 105.118 84.3758C104.993 84.25 104.922 84.0793 104.922 83.9014C104.922 83.7235 104.993 83.5528 105.118 83.427C105.244 83.3011 105.415 83.2305 105.593 83.2305C105.771 83.2305 105.941 83.3011 106.067 83.427C106.193 83.5528 106.264 83.7235 106.264 83.9014C106.264 84.0793 106.193 84.25 106.067 84.3758C105.941 84.5017 105.771 84.5723 105.593 84.5723Z" fill="black"/>
</g>
<path d="M256.314 84.1295H148.607V153.096H256.314V84.1295Z" fill="#407BFF"/>
<path opacity="0.9" d="M256.314 84.1295H148.607V153.096H256.314V84.1295Z" fill="white"/>
<path opacity="0.1" d="M165.408 84.1295H148.607V153.096H165.408V84.1295Z" fill="#407BFF"/>
<path d="M256.314 84.1295H148.607V89.6916H256.314V84.1295Z" fill="#FF6C37"/>
<path d="M156.216 95.7905L154.431 96.4615L156.216 97.1324V97.8033L153.666 96.8305V96.1595L156.216 95.1934V95.7905Z" fill="white"/>
<path d="M158.14 93.8045H158.885L157.114 98.8567H156.369L158.14 93.8045Z" fill="white"/>
<path d="M161.536 96.0924V96.7634L158.986 97.7362V97.0653L160.771 96.3943L158.986 95.7234V95.0525L161.536 96.0924Z" fill="white"/>
<g opacity="0.2">
<path d="M161.16 103.459H153.86C153.682 103.459 153.512 103.389 153.386 103.263C153.26 103.137 153.189 102.966 153.189 102.788C153.189 102.61 153.26 102.44 153.386 102.314C153.512 102.188 153.682 102.117 153.86 102.117H161.16C161.338 102.117 161.509 102.188 161.635 102.314C161.761 102.44 161.831 102.61 161.831 102.788C161.831 102.966 161.761 103.137 161.635 103.263C161.509 103.389 161.338 103.459 161.16 103.459Z" fill="black"/>
<path d="M161.16 107.834H153.86C153.682 107.834 153.512 107.763 153.386 107.637C153.26 107.512 153.189 107.341 153.189 107.163C153.189 106.985 153.26 106.814 153.386 106.689C153.512 106.563 153.682 106.492 153.86 106.492H161.16C161.338 106.492 161.509 106.563 161.635 106.689C161.761 106.814 161.831 106.985 161.831 107.163C161.831 107.341 161.761 107.512 161.635 107.637C161.509 107.763 161.338 107.834 161.16 107.834Z" fill="black"/>
<path d="M161.16 112.215H153.86C153.682 112.215 153.512 112.145 153.386 112.019C153.26 111.893 153.189 111.722 153.189 111.544C153.189 111.366 153.26 111.196 153.386 111.07C153.512 110.944 153.682 110.873 153.86 110.873H161.16C161.338 110.873 161.509 110.944 161.635 111.07C161.761 111.196 161.831 111.366 161.831 111.544C161.831 111.722 161.761 111.893 161.635 112.019C161.509 112.145 161.338 112.215 161.16 112.215Z" fill="black"/>
<path d="M161.16 116.596H153.86C153.682 116.596 153.512 116.526 153.386 116.4C153.26 116.274 153.189 116.103 153.189 115.926C153.189 115.748 153.26 115.577 153.386 115.451C153.512 115.325 153.682 115.255 153.86 115.255H161.16C161.338 115.255 161.509 115.325 161.635 115.451C161.761 115.577 161.831 115.748 161.831 115.926C161.831 116.103 161.761 116.274 161.635 116.4C161.509 116.526 161.338 116.596 161.16 116.596Z" fill="black"/>
<path d="M161.16 120.978H153.86C153.682 120.978 153.512 120.907 153.386 120.781C153.26 120.655 153.189 120.485 153.189 120.307C153.189 120.129 153.26 119.958 153.386 119.832C153.512 119.706 153.682 119.636 153.86 119.636H161.16C161.338 119.636 161.509 119.706 161.635 119.832C161.761 119.958 161.831 120.129 161.831 120.307C161.831 120.485 161.761 120.655 161.635 120.781C161.509 120.907 161.338 120.978 161.16 120.978Z" fill="black"/>
<path d="M161.16 125.352H153.86C153.682 125.352 153.512 125.282 153.386 125.156C153.26 125.03 153.189 124.859 153.189 124.681C153.189 124.503 153.26 124.333 153.386 124.207C153.512 124.081 153.682 124.01 153.86 124.01H161.16C161.338 124.01 161.509 124.081 161.635 124.207C161.761 124.333 161.831 124.503 161.831 124.681C161.831 124.859 161.761 125.03 161.635 125.156C161.509 125.282 161.338 125.352 161.16 125.352Z" fill="black"/>
<path d="M161.16 129.734H153.86C153.682 129.734 153.512 129.663 153.386 129.537C153.26 129.411 153.189 129.241 153.189 129.063C153.189 128.885 153.26 128.714 153.386 128.588C153.512 128.462 153.682 128.392 153.86 128.392H161.16C161.338 128.392 161.509 128.462 161.635 128.588C161.761 128.714 161.831 128.885 161.831 129.063C161.831 129.241 161.761 129.411 161.635 129.537C161.509 129.663 161.338 129.734 161.16 129.734Z" fill="black"/>
<path d="M161.16 134.115H153.86C153.682 134.115 153.512 134.044 153.386 133.918C153.26 133.792 153.189 133.622 153.189 133.444C153.189 133.266 153.26 133.095 153.386 132.969C153.512 132.844 153.682 132.773 153.86 132.773H161.16C161.338 132.773 161.509 132.844 161.635 132.969C161.761 133.095 161.831 133.266 161.831 133.444C161.831 133.622 161.761 133.792 161.635 133.918C161.509 134.044 161.338 134.115 161.16 134.115Z" fill="black"/>
<path d="M161.16 138.496H153.86C153.682 138.496 153.512 138.425 153.386 138.3C153.26 138.174 153.189 138.003 153.189 137.825C153.189 137.647 153.26 137.476 153.386 137.351C153.512 137.225 153.682 137.154 153.86 137.154H161.16C161.338 137.154 161.509 137.225 161.635 137.351C161.761 137.476 161.831 137.647 161.831 137.825C161.831 138.003 161.761 138.174 161.635 138.3C161.509 138.425 161.338 138.496 161.16 138.496Z" fill="black"/>
</g>
<path d="M182.261 103.459H167.292C167.114 103.459 166.943 103.389 166.818 103.263C166.692 103.137 166.621 102.966 166.621 102.788C166.621 102.61 166.692 102.44 166.818 102.314C166.943 102.188 167.114 102.117 167.292 102.117H182.261C182.439 102.117 182.609 102.188 182.735 102.314C182.861 102.44 182.932 102.61 182.932 102.788C182.932 102.966 182.861 103.137 182.735 103.263C182.609 103.389 182.439 103.459 182.261 103.459Z" fill="#FF6C37"/>
<path d="M225.262 103.459H186.247C186.069 103.459 185.899 103.389 185.773 103.263C185.647 103.137 185.576 102.966 185.576 102.788C185.576 102.61 185.647 102.44 185.773 102.314C185.899 102.188 186.069 102.117 186.247 102.117H225.262C225.44 102.117 225.611 102.188 225.737 102.314C225.863 102.44 225.933 102.61 225.933 102.788C225.933 102.966 225.863 103.137 225.737 103.263C225.611 103.389 225.44 103.459 225.262 103.459Z" fill="#407BFF"/>
<g opacity="0.2">
<path d="M243.068 103.459H231.763C231.585 103.459 231.414 103.389 231.288 103.263C231.162 103.137 231.092 102.966 231.092 102.788C231.092 102.61 231.162 102.44 231.288 102.314C231.414 102.188 231.585 102.117 231.763 102.117H243.068C243.246 102.117 243.417 102.188 243.543 102.314C243.668 102.44 243.739 102.61 243.739 102.788C243.739 102.966 243.668 103.137 243.543 103.263C243.417 103.389 243.246 103.459 243.068 103.459Z" fill="#407BFF"/>
</g>
<g opacity="0.2">
<path d="M208.408 107.834H169.306C169.128 107.834 168.957 107.763 168.831 107.637C168.705 107.512 168.635 107.341 168.635 107.163C168.635 106.985 168.705 106.814 168.831 106.689C168.957 106.563 169.128 106.492 169.306 106.492H208.408C208.586 106.492 208.757 106.563 208.883 106.689C209.009 106.814 209.079 106.985 209.079 107.163C209.079 107.341 209.009 107.512 208.883 107.637C208.757 107.763 208.586 107.834 208.408 107.834Z" fill="#407BFF"/>
</g>
<path d="M248.435 107.834H212.017C211.839 107.834 211.668 107.763 211.542 107.637C211.416 107.512 211.346 107.341 211.346 107.163C211.346 106.985 211.416 106.814 211.542 106.689C211.668 106.563 211.839 106.492 212.017 106.492H248.462C248.64 106.492 248.811 106.563 248.937 106.689C249.063 106.814 249.133 106.985 249.133 107.163C249.133 107.341 249.063 107.512 248.937 107.637C248.811 107.763 248.64 107.834 248.462 107.834H248.435Z" fill="#FF6C37"/>
<path d="M192.48 112.215H169.306C169.128 112.215 168.957 112.144 168.831 112.019C168.705 111.893 168.635 111.722 168.635 111.544C168.635 111.366 168.705 111.196 168.831 111.07C168.957 110.944 169.128 110.873 169.306 110.873H192.48C192.658 110.873 192.829 110.944 192.954 111.07C193.08 111.196 193.151 111.366 193.151 111.544C193.151 111.722 193.08 111.893 192.954 112.019C192.829 112.144 192.658 112.215 192.48 112.215Z" fill="#407BFF"/>
<path d="M220.069 112.215H197.257C197.079 112.215 196.908 112.144 196.782 112.019C196.657 111.893 196.586 111.722 196.586 111.544C196.586 111.366 196.657 111.196 196.782 111.07C196.908 110.944 197.079 110.873 197.257 110.873H220.069C220.247 110.873 220.418 110.944 220.543 111.07C220.669 111.196 220.74 111.366 220.74 111.544C220.74 111.722 220.669 111.893 220.543 112.019C220.418 112.144 220.247 112.215 220.069 112.215Z" fill="#FF6C37"/>
<path d="M248.437 112.215H223.8C223.622 112.215 223.451 112.144 223.325 112.019C223.2 111.893 223.129 111.722 223.129 111.544C223.129 111.366 223.2 111.196 223.325 111.07C223.451 110.944 223.622 110.873 223.8 110.873H248.437C248.615 110.873 248.785 110.944 248.911 111.07C249.037 111.196 249.108 111.366 249.108 111.544C249.108 111.722 249.037 111.893 248.911 112.019C248.785 112.144 248.615 112.215 248.437 112.215Z" fill="#407BFF"/>
<path d="M194.626 116.596H180.718C180.54 116.596 180.369 116.526 180.243 116.4C180.118 116.274 180.047 116.103 180.047 115.925C180.047 115.748 180.118 115.577 180.243 115.451C180.369 115.325 180.54 115.255 180.718 115.255H194.626C194.804 115.255 194.975 115.325 195.101 115.451C195.227 115.577 195.297 115.748 195.297 115.925C195.297 116.103 195.227 116.274 195.101 116.4C194.975 116.526 194.804 116.596 194.626 116.596Z" fill="#407BFF"/>
<path d="M214.325 116.596H199.142C198.964 116.596 198.793 116.526 198.667 116.4C198.541 116.274 198.471 116.103 198.471 115.925C198.471 115.748 198.541 115.577 198.667 115.451C198.793 115.325 198.964 115.255 199.142 115.255H214.325C214.503 115.255 214.674 115.325 214.8 115.451C214.925 115.577 214.996 115.748 214.996 115.925C214.996 116.103 214.925 116.274 214.8 116.4C214.674 116.526 214.503 116.596 214.325 116.596Z" fill="#407BFF"/>
<g opacity="0.2">
<path d="M242.398 116.596H217.774C217.597 116.596 217.426 116.526 217.3 116.4C217.174 116.274 217.104 116.103 217.104 115.925C217.104 115.748 217.174 115.577 217.3 115.451C217.426 115.325 217.597 115.255 217.774 115.255H242.398C242.576 115.255 242.747 115.325 242.873 115.451C242.998 115.577 243.069 115.748 243.069 115.925C243.069 116.103 242.998 116.274 242.873 116.4C242.747 116.526 242.576 116.596 242.398 116.596Z" fill="#407BFF"/>
</g>
<g opacity="0.2">
<path d="M188.018 120.978H169.306C169.128 120.978 168.957 120.907 168.831 120.781C168.705 120.655 168.635 120.485 168.635 120.307C168.635 120.129 168.705 119.958 168.831 119.832C168.957 119.706 169.128 119.636 169.306 119.636H188.018C188.196 119.636 188.367 119.706 188.493 119.832C188.619 119.958 188.689 120.129 188.689 120.307C188.689 120.485 188.619 120.655 188.493 120.781C188.367 120.907 188.196 120.978 188.018 120.978Z" fill="#407BFF"/>
</g>
<path d="M190.36 125.352H169.306C169.128 125.352 168.957 125.282 168.831 125.156C168.705 125.03 168.635 124.859 168.635 124.681C168.635 124.503 168.705 124.333 168.831 124.207C168.957 124.081 169.128 124.01 169.306 124.01H190.36C190.538 124.01 190.708 124.081 190.834 124.207C190.96 124.333 191.031 124.503 191.031 124.681C191.031 124.859 190.96 125.03 190.834 125.156C190.708 125.282 190.538 125.352 190.36 125.352Z" fill="#FF6C37"/>
<path d="M225.53 125.352H193.808C193.63 125.352 193.459 125.282 193.333 125.156C193.207 125.03 193.137 124.859 193.137 124.681C193.137 124.503 193.207 124.333 193.333 124.207C193.459 124.081 193.63 124.01 193.808 124.01H225.53C225.708 124.01 225.878 124.081 226.004 124.207C226.13 124.333 226.201 124.503 226.201 124.681C226.201 124.859 226.13 125.03 226.004 125.156C225.878 125.282 225.708 125.352 225.53 125.352Z" fill="#407BFF"/>
<path d="M248.436 125.352H229.374C229.196 125.352 229.025 125.282 228.9 125.156C228.774 125.03 228.703 124.859 228.703 124.681C228.703 124.503 228.774 124.333 228.9 124.207C229.025 124.081 229.196 124.01 229.374 124.01H248.436C248.614 124.01 248.784 124.081 248.91 124.207C249.036 124.333 249.106 124.503 249.106 124.681C249.106 124.859 249.036 125.03 248.91 125.156C248.784 125.282 248.614 125.352 248.436 125.352Z" fill="#407BFF"/>
<g opacity="0.2">
<path d="M188.072 129.734H175.995C175.817 129.734 175.647 129.663 175.521 129.537C175.395 129.411 175.324 129.241 175.324 129.063C175.324 128.885 175.395 128.714 175.521 128.588C175.647 128.462 175.817 128.392 175.995 128.392H188.072C188.25 128.392 188.421 128.462 188.547 128.588C188.672 128.714 188.743 128.885 188.743 129.063C188.743 129.241 188.672 129.411 188.547 129.537C188.421 129.663 188.25 129.734 188.072 129.734Z" fill="#407BFF"/>
</g>
<g opacity="0.2">
<path d="M215.305 129.734H192.185C192.007 129.734 191.836 129.663 191.71 129.537C191.584 129.411 191.514 129.241 191.514 129.063C191.514 128.885 191.584 128.714 191.71 128.588C191.836 128.462 192.007 128.392 192.185 128.392H215.305C215.483 128.392 215.654 128.462 215.78 128.588C215.906 128.714 215.976 128.885 215.976 129.063C215.976 129.241 215.906 129.411 215.78 129.537C215.654 129.663 215.483 129.734 215.305 129.734Z" fill="#407BFF"/>
</g>
<path d="M242.399 129.734H219.821C219.643 129.734 219.473 129.663 219.347 129.537C219.221 129.411 219.15 129.241 219.15 129.063C219.15 128.885 219.221 128.714 219.347 128.588C219.473 128.462 219.643 128.392 219.821 128.392H242.399C242.577 128.392 242.747 128.462 242.873 128.588C242.999 128.714 243.069 128.885 243.069 129.063C243.069 129.241 242.999 129.411 242.873 129.537C242.747 129.663 242.577 129.734 242.399 129.734Z" fill="#407BFF"/>
<path d="M196.942 134.115H182.731C182.554 134.115 182.383 134.044 182.257 133.918C182.131 133.792 182.061 133.622 182.061 133.444C182.061 133.266 182.131 133.095 182.257 132.969C182.383 132.844 182.554 132.773 182.731 132.773H196.942C197.12 132.773 197.291 132.844 197.416 132.969C197.542 133.095 197.613 133.266 197.613 133.444C197.613 133.622 197.542 133.792 197.416 133.918C197.291 134.044 197.12 134.115 196.942 134.115Z" fill="#407BFF"/>
<g opacity="0.2">
<path d="M213.393 134.115H199.86C199.682 134.115 199.512 134.044 199.386 133.918C199.26 133.792 199.189 133.622 199.189 133.444C199.189 133.266 199.26 133.095 199.386 132.969C199.512 132.844 199.682 132.773 199.86 132.773H213.393C213.571 132.773 213.742 132.844 213.868 132.969C213.994 133.095 214.064 133.266 214.064 133.444C214.064 133.622 213.994 133.792 213.868 133.918C213.742 134.044 213.571 134.115 213.393 134.115Z" fill="#407BFF"/>
</g>
<path d="M242.397 134.115H217.64C217.462 134.115 217.291 134.044 217.165 133.918C217.039 133.792 216.969 133.622 216.969 133.444C216.969 133.266 217.039 133.095 217.165 132.969C217.291 132.844 217.462 132.773 217.64 132.773H242.397C242.575 132.773 242.746 132.844 242.872 132.969C242.998 133.095 243.068 133.266 243.068 133.444C243.068 133.622 242.998 133.792 242.872 133.918C242.746 134.044 242.575 134.115 242.397 134.115Z" fill="#FF6C37"/>
<g opacity="0.2">
<path d="M200.102 138.496H182.731C182.554 138.496 182.383 138.425 182.257 138.3C182.131 138.174 182.061 138.003 182.061 137.825C182.061 137.647 182.131 137.476 182.257 137.351C182.383 137.225 182.554 137.154 182.731 137.154H200.102C200.28 137.154 200.451 137.225 200.577 137.351C200.702 137.476 200.773 137.647 200.773 137.825C200.773 138.003 200.702 138.174 200.577 138.3C200.451 138.425 200.28 138.496 200.102 138.496Z" fill="#407BFF"/>
</g>
<path opacity="0.4" d="M251.604 86.9542C251.604 87.1827 251.671 87.4061 251.799 87.596C251.926 87.7859 252.106 87.9338 252.317 88.021C252.529 88.1081 252.761 88.1306 252.985 88.0855C253.209 88.0404 253.415 87.9299 253.576 87.7678C253.737 87.6057 253.846 87.3995 253.89 87.1752C253.934 86.9509 253.91 86.7186 253.822 86.5079C253.733 86.2971 253.584 86.1174 253.394 85.9914C253.203 85.8654 252.979 85.7988 252.751 85.8002C252.6 85.8002 252.45 85.8301 252.31 85.8881C252.171 85.9462 252.044 86.0313 251.937 86.1386C251.831 86.2458 251.746 86.3731 251.689 86.5131C251.632 86.653 251.603 86.803 251.604 86.9542Z" fill="white"/>
<path opacity="0.4" d="M248.751 88.0948C249.384 88.0948 249.898 87.5811 249.898 86.9475C249.898 86.3138 249.384 85.8002 248.751 85.8002C248.117 85.8002 247.604 86.3138 247.604 86.9475C247.604 87.5811 248.117 88.0948 248.751 88.0948Z" fill="white"/>
<path opacity="0.4" d="M244.72 88.0948C245.353 88.0948 245.867 87.5811 245.867 86.9475C245.867 86.3138 245.353 85.8002 244.72 85.8002C244.086 85.8002 243.572 86.3138 243.572 86.9475C243.572 87.5811 244.086 88.0948 244.72 88.0948Z" fill="white"/>
<path d="M75.9905 88.2089H56.7211C55.9416 88.208 55.1696 88.3607 54.4492 88.6584C53.7289 88.9561 53.0742 89.3928 52.5228 89.9437C51.9713 90.4945 51.5338 91.1487 51.2353 91.8687C50.9368 92.5887 50.7832 93.3605 50.7832 94.14V110.914C50.7823 111.693 50.9351 112.465 51.2328 113.185C51.5304 113.906 51.9672 114.56 52.518 115.112C53.0689 115.663 53.723 116.101 54.443 116.399C55.1631 116.698 55.9349 116.851 56.7143 116.851H70.3814L74.4071 122.145V116.851H75.9838C77.5586 116.851 79.0689 116.226 80.1825 115.112C81.2961 113.999 81.9217 112.488 81.9217 110.914V94.14C81.9217 92.567 81.2968 91.0584 80.1845 89.9461C79.0722 88.8337 77.5636 88.2089 75.9905 88.2089Z" fill="#FF6C37"/>
<path opacity="0.7" d="M75.9905 88.2089H56.7211C55.9416 88.208 55.1696 88.3607 54.4492 88.6584C53.7289 88.9561 53.0742 89.3928 52.5228 89.9437C51.9713 90.4945 51.5338 91.1487 51.2353 91.8687C50.9368 92.5887 50.7832 93.3605 50.7832 94.14V110.914C50.7823 111.693 50.9351 112.465 51.2328 113.185C51.5304 113.906 51.9672 114.56 52.518 115.112C53.0689 115.663 53.723 116.101 54.443 116.399C55.1631 116.698 55.9349 116.851 56.7143 116.851H70.3814L74.4071 122.145V116.851H75.9838C77.5586 116.851 79.0689 116.226 80.1825 115.112C81.2961 113.999 81.9217 112.488 81.9217 110.914V94.14C81.9217 92.567 81.2968 91.0584 80.1845 89.9461C79.0722 88.8337 77.5636 88.2089 75.9905 88.2089Z" fill="white"/>
<path d="M73.1164 109.217C76.8528 105.481 76.8527 99.4226 73.1164 95.6862C69.38 91.9498 63.3221 91.9498 59.5857 95.6862C55.8493 99.4226 55.8493 105.48 59.5857 109.217C63.3221 112.953 69.38 112.953 73.1164 109.217Z" fill="#FF6C37"/>
<path d="M65.3499 106.713C65.2225 106.713 65.0967 106.685 64.981 106.632C64.8653 106.579 64.7623 106.501 64.679 106.405L60.9284 102.017C60.8535 101.929 60.7967 101.827 60.7612 101.717C60.7257 101.607 60.7123 101.491 60.7216 101.375C60.731 101.26 60.7629 101.148 60.8157 101.045C60.8684 100.942 60.9409 100.851 61.029 100.776C61.1171 100.701 61.2191 100.644 61.3292 100.608C61.4393 100.573 61.5552 100.56 61.6705 100.569C61.7857 100.578 61.898 100.61 62.0009 100.663C62.1039 100.716 62.1954 100.788 62.2703 100.876L65.3499 104.513L70.4423 98.5146C70.5953 98.3458 70.8079 98.243 71.0352 98.2278C71.2625 98.2127 71.4868 98.2865 71.6609 98.4335C71.8349 98.5805 71.945 98.7894 71.968 99.016C71.991 99.2427 71.9251 99.4694 71.7842 99.6484L66.0208 106.418C65.9368 106.513 65.8334 106.588 65.7176 106.639C65.6018 106.69 65.4764 106.715 65.3499 106.713Z" fill="white"/>
<path d="M137.354 207.006L151.76 206.301L150.357 218.828C150.357 218.828 140.36 220.733 135.898 213.621L137.354 207.006Z" fill="#EBB376"/>
<path d="M161.046 210.663L157.765 219.754L150.357 218.821L151.76 206.295L161.046 210.663Z" fill="#EBB376"/>
<path d="M123.527 227.336C129.012 224.471 134.012 220.76 138.341 216.339L137.355 207.006C123.742 209.019 115.885 211.897 115.885 211.897C115.885 211.897 120.93 193.815 116.314 187.227L103.64 189.521C103.64 189.521 90.1745 217.513 99.2322 227.336H123.527Z" fill="#407BFF"/>
<path opacity="0.2" d="M113.088 227.336C117.563 198.982 113.598 191.776 113.598 191.776L97.4951 206.986C95.6835 214.628 95.1535 222.86 99.2731 227.322L113.088 227.336Z" fill="black"/>
<path d="M110.289 227.336C113.308 213.004 116.696 190.568 116.327 187.227C115.79 182.369 89.3686 161.556 66.4358 176.706C61.7392 179.799 59.3439 213.165 58.5254 227.336H110.289Z" fill="#407BFF"/>
<path d="M98.9715 115.134C91.0208 111.92 72.2747 123.453 70.6309 144.018C68.987 164.582 79.4135 158.886 79.4135 158.886C79.4135 158.886 81.272 166.729 88.8671 164.307C88.8671 164.307 95.1404 171.412 100.978 168.521C100.978 168.521 108.244 176.089 112.142 172.097C112.142 172.097 116.382 176.934 120.254 173.271C124.125 169.608 135.189 132.209 117.832 123.561C100.474 114.912 98.9715 115.134 98.9715 115.134Z" fill="#263238"/>
<path d="M98.9837 199.304L98.2188 199.236C99.1045 189.333 96.9239 184.952 96.877 184.912L97.5479 184.556C97.6754 184.711 99.8895 189.119 98.9837 199.304Z" fill="#263238"/>
<path d="M102.58 199.391C97.3131 186.985 103.251 184.093 103.492 183.959L103.808 184.63C103.754 184.63 98.3329 187.374 103.284 199.049L102.58 199.391Z" fill="#263238"/>
<path d="M97.4346 186.918C97.4346 186.918 87.2699 178.867 71.4893 174.331L66.4237 176.706C66.4237 176.706 57.9295 166.193 72.0864 162.751C86.2433 159.309 105.499 168.789 110.33 176.907C115.161 185.026 101.93 187.643 101.93 187.643C101.93 187.643 100.716 185.992 97.4346 186.918Z" fill="#407BFF"/>
<path d="M92.0336 148.983C91.4163 156.182 89.2089 168.997 83.3516 171.795C83.3516 171.795 89.9 173.137 100.125 186.093C105.942 182.013 103.742 179.229 103.742 179.229C96.9381 174.767 98.7027 169.265 101.454 164.468L92.0336 148.983Z" fill="#EBB376"/>
<path opacity="0.2" d="M95.8638 155.296L101.439 164.488C100.774 165.598 100.21 166.766 99.7553 167.977C97.0715 166.541 94.1328 161.992 94.6897 158.879C94.8632 157.624 95.2609 156.411 95.8638 155.296Z" fill="black"/>
<path d="M91.2486 133.759C89.3767 145.071 88.3434 149.808 92.5368 157.088C98.837 168.044 112.799 168.561 117.932 158.202C122.548 148.876 124.836 131.941 115.201 124.467C105.694 117.1 93.1071 122.44 91.2486 133.759Z" fill="#EBB376"/>
<path d="M114.416 118.166C121.749 122.232 128.734 134.94 118.301 131.766C116.724 134.819 111.108 132.021 107.841 128.358C107.291 130.901 101.279 133.451 96.8508 129.512C98.9911 132.598 95.3479 140.388 91.557 139.046C87.7662 137.704 79.2587 135.94 86.7933 123.93C94.328 111.92 106.586 113.812 114.416 118.166Z" fill="#263238"/>
<path d="M111.745 144.434C111.745 144.434 112.416 148.922 113.691 151.358C112.262 152.183 110.336 151.083 110.336 151.083L111.745 144.434Z" fill="#D58745"/>
<path d="M104.433 153.096C104.909 153.328 105.405 153.517 105.916 153.659C105.95 153.669 105.986 153.672 106.022 153.667C106.057 153.662 106.091 153.65 106.122 153.631C106.152 153.612 106.178 153.586 106.198 153.557C106.218 153.527 106.232 153.493 106.238 153.458C106.256 153.384 106.244 153.306 106.205 153.241C106.167 153.175 106.103 153.128 106.03 153.109C104.875 152.786 103.808 152.207 102.907 151.416C102.006 150.626 101.294 149.643 100.823 148.54C100.813 148.504 100.796 148.471 100.773 148.442C100.75 148.413 100.721 148.389 100.689 148.372C100.656 148.354 100.62 148.344 100.583 148.34C100.547 148.337 100.509 148.341 100.474 148.352C100.406 148.38 100.352 148.434 100.323 148.502C100.294 148.57 100.293 148.646 100.32 148.714C101.105 150.631 102.57 152.191 104.433 153.096Z" fill="#263238"/>
<path d="M85.5388 141.891C86.1713 144.243 87.7107 146.248 89.8194 147.467C92.5502 148.963 94.5161 146.4 94.3148 143.213C94.1068 140.334 92.4294 136.094 89.437 135.926C86.4446 135.759 84.727 138.919 85.5388 141.891Z" fill="#EBB376"/>
<path d="M103.661 134.068C103.728 134.099 103.801 134.115 103.875 134.115C103.949 134.115 104.023 134.099 104.09 134.068C104.685 133.737 105.353 133.558 106.034 133.547C106.715 133.535 107.388 133.691 107.995 134.001C108.055 134.039 108.123 134.065 108.193 134.076C108.264 134.086 108.336 134.082 108.405 134.063C108.474 134.044 108.539 134.011 108.594 133.965C108.649 133.92 108.694 133.863 108.726 133.799C108.792 133.664 108.807 133.509 108.766 133.365C108.725 133.22 108.632 133.095 108.505 133.014C107.748 132.6 106.899 132.382 106.036 132.382C105.173 132.382 104.323 132.6 103.567 133.014C103.44 133.09 103.347 133.212 103.307 133.354C103.267 133.496 103.283 133.649 103.352 133.779C103.417 133.909 103.527 134.011 103.661 134.068Z" fill="#263238"/>
<path d="M121.688 138.483C121.749 138.517 121.816 138.539 121.885 138.546C121.955 138.553 122.025 138.545 122.091 138.523C122.161 138.5 122.225 138.462 122.28 138.414C122.336 138.365 122.381 138.306 122.412 138.24C122.444 138.173 122.463 138.101 122.466 138.028C122.47 137.954 122.459 137.881 122.433 137.812C122.188 136.94 121.745 136.136 121.139 135.464C120.533 134.791 119.779 134.267 118.938 133.934C118.869 133.909 118.795 133.9 118.722 133.906C118.649 133.913 118.578 133.935 118.515 133.971C118.451 134.007 118.396 134.057 118.353 134.117C118.31 134.176 118.281 134.244 118.267 134.316C118.232 134.462 118.252 134.615 118.324 134.747C118.396 134.878 118.514 134.978 118.656 135.027C119.319 135.301 119.911 135.724 120.385 136.263C120.86 136.801 121.205 137.441 121.393 138.134C121.417 138.209 121.455 138.278 121.506 138.338C121.556 138.398 121.619 138.447 121.688 138.483Z" fill="#263238"/>
<path d="M107.269 141.468C106.941 142.367 106.189 142.911 105.592 142.689C104.995 142.468 104.78 141.569 105.109 140.677C105.438 139.784 106.189 139.234 106.78 139.455C107.37 139.677 107.592 140.576 107.269 141.468Z" fill="#263238"/>
<path d="M106.52 139.409L108.747 139.362C108.747 139.362 107.177 140.636 106.52 139.409Z" fill="#263238"/>
<path d="M118.536 145.044C118.207 145.937 117.456 146.48 116.865 146.266C116.275 146.051 116.047 145.138 116.376 144.253C116.704 143.367 117.456 142.817 118.053 143.032C118.65 143.246 118.865 144.145 118.536 145.044Z" fill="#263238"/>
<path d="M117.791 142.978L120.012 142.931C120.012 142.931 118.442 144.212 117.791 142.978Z" fill="#263238"/>
<path d="M106.211 147.809C105.517 147.811 104.832 147.667 104.198 147.386C103.527 147.078 102.931 146.629 102.452 146.068C101.972 145.507 101.62 144.849 101.42 144.139C100.988 142.608 101.106 140.973 101.754 139.52C102.403 138.068 103.541 136.888 104.969 136.188C105.631 135.857 106.358 135.677 107.098 135.661C107.838 135.645 108.572 135.793 109.247 136.094C109.923 136.396 110.523 136.844 111.005 137.405C111.487 137.967 111.839 138.628 112.034 139.341C112.48 140.871 112.359 142.51 111.692 143.958C111.063 145.428 109.921 146.62 108.478 147.312C107.768 147.641 106.994 147.811 106.211 147.809ZM107.264 136.436C106.596 136.454 105.939 136.614 105.338 136.906C104.078 137.529 103.075 138.573 102.502 139.856C101.929 141.14 101.821 142.583 102.198 143.937C102.36 144.547 102.656 145.113 103.064 145.593C103.473 146.074 103.984 146.457 104.56 146.714C105.135 146.971 105.761 147.097 106.392 147.08C107.022 147.064 107.641 146.907 108.203 146.621C109.473 146.013 110.481 144.967 111.041 143.676C111.631 142.395 111.738 140.944 111.343 139.59C111.175 138.984 110.876 138.422 110.469 137.943C110.061 137.465 109.553 137.081 108.982 136.819C108.444 136.566 107.858 136.435 107.264 136.436Z" fill="#263238"/>
<path d="M117.374 151.231C116.681 151.237 115.994 151.092 115.361 150.808C114.69 150.499 114.094 150.049 113.614 149.489C113.133 148.928 112.779 148.271 112.577 147.56C112.148 146.029 112.268 144.395 112.918 142.942C113.567 141.49 114.705 140.311 116.133 139.61C116.794 139.278 117.521 139.097 118.26 139.08C119 139.063 119.734 139.211 120.41 139.513C121.085 139.815 121.685 140.263 122.166 140.825C122.647 141.387 122.997 142.049 123.191 142.763C123.643 144.292 123.524 145.932 122.856 147.379C122.403 148.476 121.646 149.421 120.676 150.103C119.705 150.785 118.559 151.176 117.374 151.231ZM118.441 139.824C117.764 139.829 117.095 139.98 116.482 140.267C115.213 140.88 114.206 141.927 113.644 143.219C113.05 144.497 112.943 145.948 113.342 147.299C113.51 147.906 113.808 148.468 114.216 148.948C114.624 149.428 115.132 149.813 115.703 150.076C118.052 151.13 120.964 149.761 122.185 147.037C122.772 145.755 122.879 144.305 122.487 142.951C122.317 142.346 122.018 141.784 121.61 141.306C121.203 140.828 120.696 140.443 120.125 140.18C119.592 139.958 119.018 139.848 118.441 139.858V139.824Z" fill="#263238"/>
<path d="M112.585 144.233C112.57 144.185 112.545 144.141 112.512 144.104C112.478 144.067 112.437 144.037 112.39 144.018C112.096 143.967 111.792 144.011 111.525 144.145L111.189 143.474C111.645 143.241 112.171 143.186 112.666 143.32C112.82 143.375 112.961 143.463 113.077 143.58C113.193 143.696 113.282 143.836 113.336 143.991L112.585 144.233Z" fill="#263238"/>
<path d="M93.0312 136.882L92.8047 137.613L101.84 140.415L102.067 139.685L93.0312 136.882Z" fill="#263238"/>
<path opacity="0.2" d="M92.1075 207.663C92.1075 207.663 74.455 221.19 58.9629 220.411C59.5936 211.193 60.6537 198.941 62.1834 189.763C63.7668 188.018 64.8068 186.958 64.8068 186.958L74.2 193.983L71.9121 196.855C71.9121 196.855 86.1294 196.13 91.0809 196.855L92.1075 207.663Z" fill="black"/>
<path d="M93.9311 196.821L108.061 193.936L108.564 206.536C108.564 206.536 98.9766 209.931 93.4883 203.577L93.9311 196.821Z" fill="#EBB376"/>
<path d="M117.899 196.855L116.033 206.335L108.566 206.536L108.062 193.943L117.899 196.855Z" fill="#EBB376"/>
<path d="M93.9311 196.821L94.6222 206.536L91.1064 208.113L89.6035 196.821H93.9311Z" fill="#407BFF"/>
<path d="M71.4888 174.331C67.6974 175 64.2639 176.987 61.7937 179.94C57.5332 184.945 42.5175 199.813 45.8521 211.951C49.1867 224.088 81.298 215.057 91.1072 208.12L89.6043 196.821L67.3625 198.451L74.2196 193.936C78.9229 180.853 71.4888 174.331 71.4888 174.331Z" fill="#407BFF"/>
<path d="M135.906 207.221L139.952 206.536V217.385L136.745 217.909L135.906 207.221Z" fill="#407BFF"/>
<path d="M127.727 217.278C127.716 216.684 127.745 216.09 127.815 215.5L127.935 214.608L127.07 215.118L126.553 215.426C126.383 215.503 126.209 215.568 126.03 215.621C125.724 215.718 125.396 215.718 125.091 215.621C124.795 215.512 124.535 215.324 124.339 215.077C124.112 214.805 123.933 214.497 123.809 214.165L123.051 212.051L122.514 214.292C122.461 214.514 122.427 214.742 122.387 214.963C122.346 215.185 122.253 215.379 122.192 215.587C122.064 215.922 121.848 216.216 121.568 216.439C121.255 216.6 120.891 216.632 120.555 216.527C120.132 216.416 119.729 216.239 119.361 216.003L118.193 215.272L118.663 216.46C118.866 216.964 119.028 217.485 119.146 218.016C119.205 218.281 119.241 218.55 119.253 218.821C119.283 219.097 119.222 219.375 119.079 219.613C119.314 219.424 119.476 219.158 119.535 218.862C119.612 218.572 119.653 218.275 119.656 217.976C119.67 217.741 119.67 217.506 119.656 217.271C119.851 217.382 120.053 217.48 120.26 217.567C120.565 217.691 120.892 217.752 121.221 217.744C121.55 217.735 121.874 217.659 122.172 217.52C122.739 217.201 123.182 216.7 123.427 216.097V216.01C123.79 216.423 124.276 216.709 124.814 216.823C125.352 216.938 125.912 216.877 126.412 216.647C126.61 216.558 126.8 216.455 126.983 216.339C126.983 216.339 126.983 216.386 126.983 216.413C127.031 216.729 127.096 217.043 127.177 217.352C127.259 217.664 127.371 217.968 127.513 218.258C127.647 218.55 127.847 218.807 128.096 219.009C127.946 218.747 127.848 218.457 127.808 218.157C127.762 217.866 127.735 217.573 127.727 217.278Z" fill="#407BFF"/>
<path d="M151.726 202.142C151.203 202.192 150.676 202.135 150.176 201.974C149.661 201.821 149.171 201.595 148.72 201.303C148.292 200.985 147.926 200.592 147.64 200.142C147.337 199.696 147.096 199.21 146.922 198.7L146.479 197.358L145.728 198.545C145.406 199.044 145.018 199.495 144.574 199.887C144.213 200.244 143.738 200.463 143.232 200.505H143.071L142.87 200.464C142.729 200.464 142.594 200.397 142.454 200.364C142.173 200.271 141.902 200.155 141.642 200.015C141.116 199.721 140.632 199.36 140.199 198.941L139.032 197.821L139.273 199.357C139.408 200.177 139.46 201.009 139.428 201.84C139.415 202.23 139.335 202.616 139.193 202.98C139.129 203.14 139.014 203.273 138.865 203.358C138.717 203.443 138.544 203.476 138.374 203.45H138.072L138.166 203.698C138.363 204.204 138.564 204.707 138.77 205.208C138.71 204.758 138.636 204.309 138.555 203.866H138.683C138.817 203.856 138.949 203.834 139.079 203.799C139.202 203.735 139.321 203.664 139.434 203.584C139.522 203.49 139.615 203.39 139.696 203.289C139.954 202.881 140.125 202.424 140.199 201.947C140.284 201.504 140.333 201.056 140.347 200.605C140.561 200.783 140.785 200.949 141.018 201.102C141.333 201.295 141.665 201.459 142.011 201.591C142.38 201.745 142.772 201.833 143.171 201.853C144.001 201.841 144.798 201.526 145.412 200.968C145.676 200.747 145.92 200.504 146.144 200.243C146.275 200.474 146.418 200.698 146.573 200.914C146.975 201.468 147.475 201.944 148.049 202.316C148.622 202.664 149.251 202.909 149.908 203.041C150.33 203.123 150.76 203.154 151.189 203.135C151.136 203.269 151.075 203.403 151.028 203.544C150.91 203.931 150.818 204.325 150.753 204.725C150.682 205.125 150.664 205.534 150.699 205.939C150.72 206.343 150.842 206.736 151.055 207.08C150.94 206.713 150.91 206.326 150.968 205.946C151.018 205.569 151.106 205.198 151.229 204.839C151.487 204.138 151.813 203.463 152.202 202.826L152.625 202.108L151.726 202.142Z" fill="#407BFF"/>
<path d="M285.955 241.788L50.6549 241.788C49.8649 241.788 49.1071 241.474 48.5485 240.915C47.9898 240.356 47.6759 239.599 47.6759 238.809V231.563L288.934 231.563V238.809C288.934 239.599 288.62 240.356 288.061 240.915C287.502 241.474 286.745 241.788 285.955 241.788Z" fill="#263238"/>
<path opacity="0.2" d="M47.6693 236.675L288.934 236.675V231.562L47.6693 231.562V236.675Z" fill="black"/>
<path d="M42.6175 232.898H293.993C294.757 232.898 295.49 232.595 296.031 232.055C296.571 231.515 296.876 230.783 296.878 230.019C296.878 229.254 296.574 228.52 296.033 227.979C295.492 227.438 294.758 227.134 293.993 227.134H42.6175C41.8523 227.134 41.1185 227.438 40.5774 227.979C40.0364 228.52 39.7324 229.254 39.7324 230.019C39.7342 230.783 40.0389 231.515 40.5798 232.055C41.1207 232.595 41.8535 232.898 42.6175 232.898Z" fill="#263238"/>
<path d="M276.959 191.923L269.619 225.215C269.485 225.749 269.179 226.223 268.748 226.565C268.318 226.907 267.787 227.097 267.237 227.107H227.141C226.892 227.101 226.647 227.037 226.427 226.92C226.206 226.803 226.015 226.637 225.87 226.434C225.724 226.231 225.628 225.998 225.587 225.751C225.547 225.505 225.565 225.253 225.638 225.014L232.965 191.977C233.115 191.474 233.434 191.037 233.867 190.74C234.301 190.444 234.823 190.305 235.347 190.346H275.442C276.516 190.373 277.194 190.863 276.959 191.923Z" fill="#263238"/>
<path opacity="0.4" d="M276.959 191.923L269.619 225.215C269.485 225.749 269.179 226.223 268.748 226.565C268.318 226.907 267.787 227.097 267.237 227.107H228.503C228.253 227.102 228.008 227.038 227.786 226.922C227.565 226.806 227.374 226.64 227.227 226.437C227.081 226.234 226.984 226 226.943 225.753C226.903 225.506 226.92 225.253 226.994 225.014L234.334 191.977C234.481 191.471 234.799 191.033 235.233 190.735C235.667 190.438 236.191 190.301 236.716 190.346H275.443C276.516 190.373 277.194 190.863 276.959 191.923Z" fill="white"/>
<path d="M270.563 226.081L277.863 192.963C278.105 191.876 277.427 191.386 276.347 191.386H237.62C237.096 191.343 236.573 191.482 236.14 191.779C235.706 192.076 235.387 192.513 235.238 193.017L227.824 226.517L270.563 226.081Z" fill="#407BFF"/>
<path opacity="0.4" d="M277.864 192.956L274.013 210.455L270.558 226.081L247.679 226.316L227.832 226.51L235.212 193.017C235.359 192.513 235.676 192.075 236.109 191.778C236.542 191.48 237.064 191.342 237.588 191.386H276.361C277.435 191.386 278.106 191.883 277.864 192.956Z" fill="white"/>
<path opacity="0.2" d="M274.013 210.455L270.558 226.081L247.679 226.316H228.678L231.784 212.025C231.884 211.582 232.131 211.186 232.484 210.901C232.837 210.616 233.276 210.459 233.73 210.455H274.013Z" fill="black"/>
<path d="M274.669 212.628C274.521 212.124 274.203 211.687 273.769 211.391C273.334 211.095 272.811 210.959 272.288 211.005H233.561C232.487 211.005 231.81 211.488 232.044 212.575L234.983 225.9H228.441C228.278 225.9 228.121 225.965 228.005 226.081C227.889 226.196 227.824 226.353 227.824 226.517C227.824 226.681 227.889 226.838 228.005 226.953C228.121 227.069 228.278 227.134 228.441 227.134H276.146C276.354 227.13 276.558 227.08 276.745 226.987C276.931 226.895 277.094 226.761 277.223 226.598C277.351 226.434 277.442 226.243 277.488 226.04C277.533 225.837 277.533 225.626 277.487 225.423L274.669 212.628Z" fill="#407BFF"/>
<path opacity="0.4" d="M274.669 212.628C274.521 212.124 274.203 211.687 273.769 211.391C273.334 211.095 272.811 210.959 272.288 211.005H233.561C232.487 211.005 231.81 211.488 232.044 212.575L234.983 225.9H228.441C228.278 225.9 228.121 225.965 228.005 226.081C227.889 226.196 227.824 226.353 227.824 226.517C227.824 226.681 227.889 226.838 228.005 226.953C228.121 227.069 228.278 227.134 228.441 227.134H276.146C276.354 227.13 276.558 227.08 276.745 226.987C276.931 226.895 277.094 226.761 277.223 226.598C277.351 226.434 277.442 226.243 277.488 226.04C277.533 225.837 277.533 225.626 277.487 225.423L274.669 212.628Z" fill="white"/>
<path d="M227.281 220.713H225.034L224.752 221.921H226.939L227.281 220.713Z" fill="black"/>
<path d="M213.078 227.289H206.603C206.553 227.289 206.503 227.28 206.456 227.261C206.409 227.242 206.366 227.214 206.331 227.179C206.295 227.143 206.267 227.1 206.248 227.054C206.229 227.007 206.22 226.957 206.221 226.906C206.221 226.805 206.261 226.707 206.333 226.636C206.405 226.564 206.502 226.524 206.603 226.524H213.078C214.14 226.526 215.189 226.288 216.148 225.83C217.106 225.371 217.948 224.702 218.613 223.873C219.35 222.954 220.284 222.212 221.347 221.703C222.41 221.194 223.574 220.932 224.752 220.935H225.893C225.994 220.936 226.09 220.977 226.161 221.049C226.233 221.12 226.274 221.216 226.275 221.317C226.275 221.419 226.235 221.516 226.163 221.588C226.092 221.659 225.994 221.7 225.893 221.7H224.766C223.703 221.698 222.654 221.935 221.696 222.394C220.738 222.852 219.895 223.521 219.23 224.35C218.492 225.271 217.555 226.014 216.49 226.523C215.425 227.032 214.258 227.293 213.078 227.289Z" fill="black"/>
<path d="M105.189 222.552V225.35C105.189 226.611 106.712 227.134 107.974 227.134H206.321C207.569 227.134 209.051 226.611 209.051 225.35V222.552H105.189Z" fill="#263238"/>
<path opacity="0.4" d="M105.189 222.552V225.35C105.189 226.611 106.712 227.134 107.974 227.134H206.321C207.569 227.134 209.051 226.611 209.051 225.35V222.552H105.189Z" fill="white"/>
<path opacity="0.2" d="M138.697 222.552V225.35C138.697 226.611 140.193 227.134 141.455 227.134H206.322C207.57 227.134 209.052 226.611 209.052 225.35V222.552H138.697Z" fill="black"/>
<path d="M225.51 169.333L213.802 222.438C213.592 223.291 213.106 224.051 212.419 224.6C211.732 225.148 210.883 225.454 210.004 225.47H146.043C144.346 225.47 143.245 223.88 143.641 222.116L155.336 169.413C155.732 167.682 157.422 166.817 159.14 166.817H223.094C224.812 166.823 225.892 167.602 225.51 169.333Z" fill="#263238"/>
<path opacity="0.4" d="M225.51 169.333L213.802 222.438C213.592 223.291 213.105 224.051 212.419 224.6C211.732 225.148 210.883 225.454 210.004 225.47H148.217C146.499 225.47 145.419 223.88 145.802 222.116L157.51 169.413C157.892 167.682 159.596 166.817 161.314 166.817H223.094C224.812 166.823 225.892 167.602 225.51 169.333Z" fill="white"/>
<path opacity="0.2" d="M193.975 196.325C193.975 200.874 189.104 204.57 185.528 204.57C181.952 204.57 179.838 200.874 180.831 196.325C181.824 191.776 185.4 188.24 188.882 188.099C187.863 192.648 190.043 196.325 193.579 196.325C193.711 196.337 193.843 196.337 193.975 196.325Z" fill="black"/>
</g>
<defs>
<clipPath id="clip0_1281_20724">
<rect width="335.471" height="250" fill="white"/>
</clipPath>
</defs>
</svg>
