<svg width="314" height="200" viewBox="0 0 314 200" fill="none" xmlns="http://www.w3.org/2000/svg">
<g clip-path="url(#clip0_1108_15943)">
<path d="M27.5528 96.9461C34.2147 96.9461 39.6153 91.5455 39.6153 84.8836C39.6153 78.2216 34.2147 72.821 27.5528 72.821C20.8908 72.821 15.4902 78.2216 15.4902 84.8836C15.4902 91.5455 20.8908 96.9461 27.5528 96.9461Z" fill="white"/>
<path d="M24.4417 88.452C23.9017 88.452 23.3984 88.3654 22.9317 88.192C22.4717 88.012 22.0717 87.7587 21.7317 87.432C21.3917 87.1054 21.1251 86.722 20.9317 86.282C20.7451 85.842 20.6517 85.3587 20.6517 84.832C20.6517 84.3054 20.7451 83.822 20.9317 83.382C21.1251 82.942 21.3917 82.5587 21.7317 82.232C22.0784 81.9054 22.4817 81.6554 22.9417 81.482C23.4017 81.302 23.9051 81.212 24.4517 81.212C25.0584 81.212 25.6051 81.3187 26.0917 81.532C26.5851 81.7387 26.9984 82.0454 27.3317 82.452L26.2917 83.412C26.0517 83.1387 25.7851 82.9354 25.4917 82.802C25.1984 82.662 24.8784 82.592 24.5317 82.592C24.2051 82.592 23.9051 82.6454 23.6317 82.752C23.3584 82.8587 23.1217 83.012 22.9217 83.212C22.7217 83.412 22.5651 83.6487 22.4517 83.922C22.3451 84.1954 22.2917 84.4987 22.2917 84.832C22.2917 85.1654 22.3451 85.4687 22.4517 85.742C22.5651 86.0154 22.7217 86.252 22.9217 86.452C23.1217 86.652 23.3584 86.8054 23.6317 86.912C23.9051 87.0187 24.2051 87.072 24.5317 87.072C24.8784 87.072 25.1984 87.0054 25.4917 86.872C25.7851 86.732 26.0517 86.522 26.2917 86.242L27.3317 87.202C26.9984 87.6087 26.5851 87.9187 26.0917 88.132C25.6051 88.3454 25.0551 88.452 24.4417 88.452ZM28.8276 84.822C28.5609 84.822 28.3309 84.732 28.1376 84.552C27.9509 84.3654 27.8576 84.1287 27.8576 83.842C27.8576 83.5554 27.9509 83.3254 28.1376 83.152C28.3309 82.972 28.5609 82.882 28.8276 82.882C29.1009 82.882 29.3309 82.972 29.5176 83.152C29.7042 83.3254 29.7976 83.5554 29.7976 83.842C29.7976 84.1287 29.7042 84.3654 29.5176 84.552C29.3309 84.732 29.1009 84.822 28.8276 84.822ZM28.8276 88.412C28.5609 88.412 28.3309 88.322 28.1376 88.142C27.9509 87.9554 27.8576 87.7187 27.8576 87.432C27.8576 87.1454 27.9509 86.9154 28.1376 86.742C28.3309 86.562 28.5609 86.472 28.8276 86.472C29.1009 86.472 29.3309 86.562 29.5176 86.742C29.7042 86.9154 29.7976 87.1454 29.7976 87.432C29.7976 87.7187 29.7042 87.9554 29.5176 88.142C29.3309 88.322 29.1009 88.412 28.8276 88.412ZM30.3321 89.332L33.6321 79.912H35.0221L31.7221 89.332H30.3321Z" fill="#B4CFFE"/>
<path d="M81.5723 30.0611C88.2342 30.0611 93.6348 24.6605 93.6348 17.9986C93.6348 11.3366 88.2342 5.93604 81.5723 5.93604C74.9103 5.93604 69.5098 11.3366 69.5098 17.9986C69.5098 24.6605 74.9103 30.0611 81.5723 30.0611Z" fill="white"/>
<path d="M80.3271 21.8924L74.6151 19.7204V18.1604L80.3271 15.9884V17.4884L75.1791 19.3604V18.5204L80.3271 20.3924V21.8924ZM86.1667 24.3404H84.4987L80.5387 13.0364H82.2067L86.1667 24.3404ZM86.4979 21.8924V20.3924L91.6459 18.5204V19.3604L86.4979 17.4884V15.9884L92.2099 18.1604V19.7204L86.4979 21.8924Z" fill="#B4CFFE"/>
<path d="M297.918 115.929C304.58 115.929 309.981 110.529 309.981 103.867C309.981 97.2048 304.58 91.8042 297.918 91.8042C291.256 91.8042 285.855 97.2048 285.855 103.867C285.855 110.529 291.256 115.929 297.918 115.929Z" fill="white"/>
<path d="M292.868 106.561C292.372 106.561 291.996 106.435 291.74 106.185C291.484 105.939 291.356 105.587 291.356 105.129V103.681C291.356 103.553 291.324 103.459 291.26 103.401C291.196 103.337 291.111 103.305 291.004 103.305H290.74V102.329H291.004C291.111 102.329 291.196 102.297 291.26 102.233C291.324 102.169 291.356 102.075 291.356 101.953V100.505C291.356 100.041 291.484 99.686 291.74 99.4407C291.996 99.1953 292.372 99.0727 292.868 99.0727H293.332V100.049H293.188C292.996 100.049 292.85 100.099 292.748 100.201C292.652 100.302 292.604 100.449 292.604 100.641V101.921C292.604 102.155 292.572 102.339 292.508 102.473C292.444 102.606 292.343 102.702 292.204 102.761C292.071 102.819 291.898 102.862 291.684 102.889V102.745C291.898 102.766 292.071 102.809 292.204 102.873C292.343 102.931 292.444 103.027 292.508 103.161C292.572 103.294 292.604 103.478 292.604 103.713V104.993C292.604 105.185 292.652 105.331 292.748 105.433C292.85 105.534 292.996 105.585 293.188 105.585H293.332V106.561H292.868ZM294.497 105.073C294.284 105.073 294.1 105.001 293.945 104.857C293.796 104.707 293.721 104.518 293.721 104.289C293.721 104.059 293.796 103.875 293.945 103.737C294.1 103.593 294.284 103.521 294.497 103.521C294.716 103.521 294.9 103.593 295.049 103.737C295.199 103.875 295.273 104.059 295.273 104.289C295.273 104.518 295.199 104.707 295.049 104.857C294.9 105.001 294.716 105.073 294.497 105.073ZM296.591 105.073C296.378 105.073 296.194 105.001 296.039 104.857C295.89 104.707 295.815 104.518 295.815 104.289C295.815 104.059 295.89 103.875 296.039 103.737C296.194 103.593 296.378 103.521 296.591 103.521C296.81 103.521 296.994 103.593 297.143 103.737C297.292 103.875 297.367 104.059 297.367 104.289C297.367 104.518 297.292 104.707 297.143 104.857C296.994 105.001 296.81 105.073 296.591 105.073ZM298.685 105.073C298.471 105.073 298.287 105.001 298.133 104.857C297.983 104.707 297.909 104.518 297.909 104.289C297.909 104.059 297.983 103.875 298.133 103.737C298.287 103.593 298.471 103.521 298.685 103.521C298.903 103.521 299.087 103.593 299.237 103.737C299.386 103.875 299.461 104.059 299.461 104.289C299.461 104.518 299.386 104.707 299.237 104.857C299.087 105.001 298.903 105.073 298.685 105.073ZM300.314 106.561H299.85V105.585H299.994C300.186 105.585 300.33 105.534 300.426 105.433C300.528 105.331 300.578 105.185 300.578 104.993V103.713C300.578 103.478 300.61 103.294 300.674 103.161C300.744 103.027 300.845 102.931 300.978 102.873C301.112 102.809 301.285 102.766 301.498 102.745V102.889C301.285 102.862 301.112 102.819 300.978 102.761C300.845 102.702 300.744 102.606 300.674 102.473C300.61 102.339 300.578 102.155 300.578 101.921V100.641C300.578 100.449 300.528 100.302 300.426 100.201C300.33 100.099 300.186 100.049 299.994 100.049H299.85V99.0727H300.314C300.816 99.0727 301.192 99.1953 301.442 99.4407C301.698 99.686 301.826 100.041 301.826 100.505V101.953C301.826 102.075 301.858 102.169 301.922 102.233C301.986 102.297 302.072 102.329 302.178 102.329H302.442V103.305H302.178C302.072 103.305 301.986 103.337 301.922 103.401C301.858 103.459 301.826 103.553 301.826 103.681V105.129C301.826 105.587 301.698 105.939 301.442 106.185C301.192 106.435 300.816 106.561 300.314 106.561Z" fill="#B4CFFE"/>
<path d="M222.102 27.4033C223.617 25.8887 223.617 23.433 222.102 21.9184C220.588 20.4038 218.132 20.4038 216.617 21.9184C215.103 23.433 215.103 25.8887 216.617 27.4033C218.132 28.9179 220.588 28.9179 222.102 27.4033Z" fill="white"/>
<path d="M34.9337 181.657C36.3841 180.081 36.2821 177.628 34.7059 176.177C33.1297 174.727 30.6762 174.829 29.2258 176.405C27.7754 177.981 27.8774 180.435 29.4536 181.885C31.0298 183.336 33.4833 183.234 34.9337 181.657Z" fill="white"/>
<path d="M65.4645 57.8229C68.0888 57.8229 70.2161 55.6956 70.2161 53.0713C70.2161 50.4471 68.0888 48.3197 65.4645 48.3197C62.8403 48.3197 60.7129 50.4471 60.7129 53.0713C60.7129 55.6956 62.8403 57.8229 65.4645 57.8229Z" fill="#B4CFFE"/>
<path d="M193.772 15.2906C197.995 15.2906 201.418 11.8677 201.418 7.64532C201.418 3.42293 197.995 0 193.772 0C189.55 0 186.127 3.42293 186.127 7.64532C186.127 11.8677 189.55 15.2906 193.772 15.2906Z" fill="#B4CFFE"/>
<path d="M264.829 102.497C266.968 102.497 268.703 100.783 268.703 98.6693C268.703 96.5556 266.968 94.842 264.829 94.842C262.689 94.842 260.955 96.5556 260.955 98.6693C260.955 100.783 262.689 102.497 264.829 102.497Z" fill="#B4CFFE"/>
<path d="M291.081 182.419C291.094 183.456 290.799 184.472 290.232 185.34C289.666 186.208 288.855 186.888 287.901 187.293C286.947 187.699 285.895 187.812 284.877 187.617C283.859 187.423 282.922 186.931 282.185 186.202C281.447 185.474 280.943 184.543 280.736 183.528C280.529 182.513 280.629 181.459 281.022 180.5C281.416 179.542 282.085 178.722 282.946 178.144C283.807 177.567 284.82 177.259 285.856 177.259C286.538 177.255 287.214 177.385 287.846 177.642C288.477 177.899 289.052 178.278 289.537 178.757C290.023 179.236 290.409 179.806 290.674 180.435C290.938 181.063 291.077 181.738 291.081 182.419Z" fill="#B4CFFE"/>
<path d="M6.52614 98.6693C6.52614 99.3124 6.33546 99.941 5.97819 100.476C5.62093 101.01 5.11314 101.427 4.51903 101.673C3.92492 101.919 3.27118 101.984 2.64048 101.858C2.00978 101.733 1.43045 101.423 0.975738 100.968C0.521028 100.514 0.211367 99.9343 0.085913 99.3036C-0.0395411 98.6729 0.0248456 98.0192 0.270933 97.4251C0.51702 96.831 0.933755 96.3232 1.46844 95.9659C2.00312 95.6087 2.63174 95.418 3.27479 95.418C4.1371 95.418 4.9641 95.7605 5.57384 96.3703C6.18359 96.98 6.52614 97.807 6.52614 98.6693Z" fill="#B4CFFE"/>
<path d="M63.4635 64.7344H248.289C250.232 64.7344 252.095 65.5061 253.468 66.8798C254.842 68.2534 255.614 70.1165 255.614 72.0592V188.917H56.1387V72.0592C56.1387 70.1165 56.9104 68.2534 58.2841 66.8798C59.6577 65.5061 61.5208 64.7344 63.4635 64.7344Z" fill="#3C4D77"/>
<g style="mix-blend-mode:soft-light">
<path d="M187.515 185.09H124.23C124.054 185.091 123.881 185.057 123.719 184.99C123.557 184.923 123.409 184.825 123.286 184.701C123.162 184.577 123.063 184.43 122.997 184.268C122.93 184.106 122.896 183.932 122.896 183.757C122.896 183.582 122.93 183.408 122.997 183.246C123.063 183.083 123.161 182.936 123.285 182.812C123.409 182.687 123.556 182.589 123.718 182.521C123.88 182.454 124.054 182.419 124.23 182.419H187.515C187.87 182.419 188.21 182.56 188.461 182.811C188.712 183.062 188.853 183.402 188.853 183.757C188.853 183.933 188.818 184.106 188.751 184.268C188.683 184.43 188.585 184.578 188.46 184.701C188.336 184.825 188.189 184.923 188.026 184.99C187.864 185.057 187.69 185.091 187.515 185.09Z" fill="white"/>
</g>
<path d="M61.7774 67.3076H249.97C250.568 67.3076 251.141 67.545 251.563 67.9674C251.986 68.3899 252.223 68.9629 252.223 69.5603V176.781C252.223 177.076 252.165 177.369 252.052 177.643C251.938 177.916 251.772 178.164 251.563 178.374C251.354 178.583 251.106 178.749 250.832 178.862C250.559 178.975 250.266 179.033 249.97 179.033H61.7774C61.1812 179.033 60.6093 178.797 60.1877 178.375C59.7662 177.953 59.5293 177.382 59.5293 176.785V69.5603C59.5287 69.2647 59.5864 68.9719 59.6991 68.6986C59.8118 68.4253 59.9773 68.1769 60.1861 67.9677C60.3949 67.7585 60.6429 67.5924 60.916 67.4792C61.1891 67.3659 61.4818 67.3076 61.7774 67.3076Z" fill="#383C56"/>
<path d="M248.348 69.1377H63.3971C62.3095 69.1377 61.4277 70.0194 61.4277 71.1071V175.476C61.4277 176.563 62.3095 177.445 63.3971 177.445H248.348C249.436 177.445 250.317 176.563 250.317 175.476V71.1071C250.317 70.0194 249.436 69.1377 248.348 69.1377Z" fill="white"/>
<path d="M125.79 138.517H91.4002C89.8405 138.517 88.5762 139.781 88.5762 141.341V162.289C88.5762 163.849 89.8405 165.113 91.4002 165.113H125.79C127.35 165.113 128.614 163.849 128.614 162.289V141.341C128.614 139.781 127.35 138.517 125.79 138.517Z" fill="#DEE9FE"/>
<path d="M250.319 69.1377H134.496V177.445H250.319V69.1377Z" fill="#FF6C37"/>
<g style="mix-blend-mode:soft-light">
<path d="M195.43 166.506H142.414C142.091 166.506 141.782 166.378 141.554 166.15C141.325 165.922 141.197 165.612 141.197 165.289C141.197 164.967 141.325 164.657 141.554 164.429C141.782 164.201 142.091 164.073 142.414 164.073H195.43C195.752 164.074 196.061 164.202 196.289 164.43C196.517 164.658 196.646 164.967 196.647 165.289C196.647 165.612 196.519 165.922 196.29 166.15C196.062 166.378 195.753 166.506 195.43 166.506Z" fill="white"/>
</g>
<g style="mix-blend-mode:soft-light">
<path d="M195.43 172.888H142.414C142.091 172.888 141.782 172.76 141.554 172.532C141.325 172.304 141.197 171.994 141.197 171.671C141.197 171.349 141.325 171.039 141.554 170.811C141.782 170.583 142.091 170.454 142.414 170.454H195.43C195.753 170.454 196.062 170.583 196.29 170.811C196.519 171.039 196.647 171.349 196.647 171.671C196.647 171.994 196.519 172.304 196.29 172.532C196.062 172.76 195.753 172.888 195.43 172.888Z" fill="white"/>
</g>
<g style="mix-blend-mode:soft-light">
<path d="M229.188 79.5837H188.551C187.153 79.5837 186.02 80.7171 186.02 82.1151V95.7755C186.02 97.1735 187.153 98.3069 188.551 98.3069H229.188C230.586 98.3069 231.72 97.1735 231.72 95.7755V82.1151C231.72 80.7171 230.586 79.5837 229.188 79.5837Z" fill="white"/>
</g>
<path d="M85.094 75.3199H69.2135C67.8411 75.3199 66.7285 76.4325 66.7285 77.8049V91.9622C66.7285 93.3346 67.8411 94.4472 69.2135 94.4472H85.094C86.4664 94.4472 87.579 93.3346 87.579 91.9622V77.8049C87.579 76.4325 86.4664 75.3199 85.094 75.3199Z" fill="#FF6C37"/>
<path d="M85.7722 101.224H67.3927C67.0259 101.224 66.7285 101.521 66.7285 101.888V101.893C66.7285 102.26 67.0259 102.557 67.3927 102.557H85.7722C86.139 102.557 86.4364 102.26 86.4364 101.893V101.888C86.4364 101.521 86.139 101.224 85.7722 101.224Z" fill="#DEE9FE"/>
<path d="M95.2893 97.7682H67.3927C67.0259 97.7682 66.7285 98.0656 66.7285 98.4324V98.437C66.7285 98.8039 67.0259 99.1012 67.3927 99.1012H95.2893C95.6562 99.1012 95.9535 98.8039 95.9535 98.437V98.4324C95.9535 98.0656 95.6562 97.7682 95.2893 97.7682Z" fill="#DEE9FE"/>
<path d="M44.2373 188.917H268.813V190.729C268.813 193.193 267.834 195.556 266.092 197.298C264.35 199.04 261.987 200.019 259.523 200.019H53.5083C51.0446 200.019 48.6817 199.04 46.9396 197.298C45.1975 195.556 44.2188 193.193 44.2188 190.729V188.917H44.2373Z" fill="#383C56"/>
<path d="M197.553 22.2857H110.352C106.999 22.2857 104.281 25.0037 104.281 28.3564V152.972C104.281 156.324 106.999 159.042 110.352 159.042H197.553C200.906 159.042 203.624 156.324 203.624 152.972V28.3564C203.624 25.0037 200.906 22.2857 197.553 22.2857Z" fill="#407BFF"/>
<path d="M104.281 152.971C104.281 154.581 104.921 156.126 106.059 157.264C107.198 158.403 108.742 159.042 110.352 159.042H197.553C199.163 159.042 200.707 158.403 201.846 157.264C202.984 156.126 203.624 154.581 203.624 152.971H104.281Z" fill="#7BA9FA"/>
<path d="M150.316 156.005C150.317 156.22 150.254 156.431 150.135 156.61C150.016 156.79 149.846 156.93 149.648 157.013C149.449 157.095 149.23 157.117 149.019 157.075C148.807 157.034 148.613 156.93 148.461 156.778C148.309 156.625 148.205 156.431 148.163 156.22C148.121 156.009 148.143 155.79 148.226 155.591C148.309 155.392 148.449 155.223 148.629 155.104C148.808 154.985 149.019 154.921 149.234 154.922C149.521 154.922 149.796 155.036 149.999 155.239C150.202 155.442 150.316 155.718 150.316 156.005Z" fill="white"/>
<path d="M155.039 156.005C155.04 156.22 154.977 156.43 154.858 156.61C154.739 156.789 154.57 156.929 154.371 157.012C154.173 157.095 153.954 157.117 153.743 157.076C153.532 157.034 153.338 156.931 153.185 156.779C153.033 156.628 152.929 156.434 152.886 156.223C152.844 156.012 152.865 155.793 152.948 155.594C153.03 155.396 153.169 155.225 153.348 155.106C153.527 154.986 153.737 154.922 153.952 154.922C154.24 154.922 154.515 155.036 154.719 155.239C154.923 155.442 155.038 155.717 155.039 156.005Z" fill="white"/>
<path d="M159.778 156.005C159.778 156.219 159.714 156.428 159.595 156.606C159.476 156.784 159.307 156.923 159.11 157.004C158.912 157.086 158.694 157.108 158.484 157.066C158.274 157.024 158.082 156.921 157.93 156.77C157.779 156.618 157.676 156.426 157.634 156.216C157.592 156.006 157.614 155.788 157.696 155.59C157.778 155.393 157.916 155.224 158.094 155.105C158.272 154.986 158.481 154.922 158.696 154.922C158.983 154.922 159.258 155.036 159.461 155.239C159.664 155.442 159.778 155.718 159.778 156.005Z" fill="white"/>
<path d="M126.456 58.288C124.072 58.288 122.208 57.624 120.864 56.296C119.52 54.968 118.848 53.072 118.848 50.608V41.2H122.736V50.464C122.736 52.064 123.064 53.216 123.72 53.92C124.376 54.624 125.296 54.976 126.48 54.976C127.664 54.976 128.584 54.624 129.24 53.92C129.896 53.216 130.224 52.064 130.224 50.464V41.2H134.064V50.608C134.064 53.072 133.392 54.968 132.048 56.296C130.704 57.624 128.84 58.288 126.456 58.288ZM137.906 58V41.2H141.794V58H137.906ZM142.997 60.4L150.917 37.792H154.253L146.333 60.4H142.997ZM162.644 58.288C160.26 58.288 158.396 57.624 157.052 56.296C155.708 54.968 155.036 53.072 155.036 50.608V41.2H158.924V50.464C158.924 52.064 159.252 53.216 159.908 53.92C160.564 54.624 161.484 54.976 162.668 54.976C163.852 54.976 164.772 54.624 165.428 53.92C166.084 53.216 166.411 52.064 166.411 50.464V41.2H170.252V50.608C170.252 53.072 169.58 54.968 168.236 56.296C166.892 57.624 165.028 58.288 162.644 58.288ZM171.939 58L179.163 48.04V50.872L172.251 41.2H176.667L181.443 47.944L179.595 47.968L184.299 41.2H188.523L181.659 50.704V47.92L188.931 58H184.443L179.499 50.872H181.275L176.403 58H171.939Z" fill="white"/>
<path d="M201.422 28.0267C201.429 28.6967 201.236 29.3536 200.869 29.9142C200.502 30.4747 199.977 30.9138 199.36 31.1757C198.743 31.4377 198.063 31.5107 197.404 31.3856C196.746 31.2605 196.14 30.9429 195.662 30.473C195.184 30.0031 194.857 29.4021 194.721 28.7459C194.585 28.0898 194.647 27.408 194.898 26.787C195.15 26.166 195.58 25.6337 196.135 25.2574C196.689 24.8811 197.343 24.6777 198.013 24.6731C198.91 24.6669 199.772 25.0165 200.411 25.6451C201.05 26.2738 201.414 27.1302 201.422 28.0267Z" fill="#FF6C37"/>
<path d="M200.117 26.8097L199.281 25.9736L198.041 27.2138L196.801 25.9736L195.965 26.8097L197.205 28.0499L195.965 29.29L196.801 30.1261L198.041 28.8859L199.281 30.1261L200.117 29.29L198.877 28.0499L200.117 26.8097Z" fill="#FEFEFE"/>
<path d="M190.154 100.95H119.07C117.159 100.95 115.609 102.499 115.609 104.41V129.385C115.609 131.296 117.159 132.846 119.07 132.846H190.154C192.065 132.846 193.614 131.296 193.614 129.385V104.41C193.614 102.499 192.065 100.95 190.154 100.95Z" fill="#7BA9FA"/>
<path d="M123.57 111.285C125.666 111.285 127.365 109.586 127.365 107.49C127.365 105.394 125.666 103.695 123.57 103.695C121.474 103.695 119.775 105.394 119.775 107.49C119.775 109.586 121.474 111.285 123.57 111.285Z" fill="#FF6C37"/>
<path d="M188.463 108.474H131.216C131.086 108.475 130.958 108.45 130.838 108.401C130.718 108.352 130.609 108.279 130.517 108.188C130.425 108.096 130.352 107.987 130.302 107.868C130.252 107.748 130.227 107.619 130.227 107.49C130.227 107.227 130.331 106.976 130.516 106.79C130.702 106.605 130.954 106.5 131.216 106.5H188.463C188.593 106.5 188.721 106.526 188.841 106.576C188.961 106.626 189.069 106.698 189.161 106.79C189.252 106.882 189.325 106.991 189.374 107.111C189.423 107.231 189.448 107.36 189.448 107.49C189.448 107.751 189.344 108.001 189.159 108.186C188.975 108.371 188.724 108.474 188.463 108.474Z" fill="white"/>
<path d="M125.031 120.397C126.966 119.591 127.881 117.369 127.075 115.434C126.269 113.5 124.047 112.585 122.112 113.391C120.178 114.197 119.263 116.419 120.069 118.353C120.875 120.288 123.097 121.203 125.031 120.397Z" fill="#FF6C37"/>
<path d="M188.463 117.885H131.216C131.086 117.885 130.958 117.86 130.838 117.811C130.718 117.762 130.609 117.69 130.517 117.598C130.425 117.507 130.352 117.398 130.302 117.278C130.252 117.158 130.227 117.03 130.227 116.9C130.227 116.638 130.331 116.386 130.516 116.201C130.702 116.015 130.954 115.911 131.216 115.911H188.463C188.593 115.911 188.721 115.936 188.841 115.986C188.961 116.036 189.069 116.109 189.161 116.201C189.252 116.293 189.325 116.402 189.374 116.522C189.423 116.642 189.448 116.77 189.448 116.9C189.448 117.029 189.422 117.157 189.373 117.277C189.323 117.396 189.251 117.505 189.159 117.596C189.068 117.688 188.959 117.76 188.84 117.81C188.72 117.859 188.592 117.885 188.463 117.885Z" fill="white"/>
<path d="M127.315 126.917C127.652 124.849 126.248 122.899 124.179 122.562C122.11 122.226 120.161 123.63 119.824 125.699C119.488 127.767 120.892 129.717 122.96 130.053C125.029 130.39 126.979 128.986 127.315 126.917Z" fill="#FF6C37"/>
<path d="M188.463 127.295H131.216C131.086 127.296 130.958 127.271 130.838 127.221C130.718 127.172 130.609 127.1 130.517 127.008C130.425 126.917 130.352 126.808 130.302 126.688C130.252 126.569 130.227 126.44 130.227 126.31C130.227 126.048 130.331 125.796 130.516 125.611C130.702 125.425 130.954 125.321 131.216 125.321H188.463C188.593 125.321 188.721 125.347 188.841 125.396C188.961 125.446 189.069 125.519 189.161 125.611C189.252 125.703 189.325 125.812 189.374 125.932C189.423 126.052 189.448 126.181 189.448 126.31C189.448 126.572 189.344 126.822 189.159 127.007C188.975 127.191 188.724 127.295 188.463 127.295Z" fill="white"/>
<path d="M191.482 80.6289H117.741C116.564 80.6289 115.609 81.5834 115.609 82.7609V90.6013C115.609 91.7787 116.564 92.7332 117.741 92.7332H191.482C192.659 92.7332 193.614 91.7787 193.614 90.6013V82.7609C193.614 81.5834 192.659 80.6289 191.482 80.6289Z" fill="#7BA9FA"/>
<path d="M154.844 85.4363H118.935C118.656 85.4363 118.387 85.3252 118.19 85.1274C117.992 84.9297 117.881 84.6615 117.881 84.3819C117.881 84.2434 117.908 84.1063 117.961 83.9784C118.014 83.8505 118.092 83.7342 118.19 83.6363C118.288 83.5384 118.404 83.4608 118.532 83.4078C118.66 83.3548 118.797 83.3275 118.935 83.3275H154.844C154.983 83.3275 155.12 83.3548 155.248 83.4078C155.376 83.4608 155.492 83.5384 155.59 83.6363C155.688 83.7342 155.765 83.8505 155.818 83.9784C155.871 84.1063 155.898 84.2434 155.898 84.3819C155.898 84.6615 155.787 84.9297 155.59 85.1274C155.392 85.3252 155.124 85.4363 154.844 85.4363Z" fill="white"/>
<path d="M190.432 88.0559H118.796C118.291 88.0559 117.881 88.4656 117.881 88.9709V89.1196C117.881 89.6249 118.291 90.0346 118.796 90.0346H190.432C190.938 90.0346 191.347 89.6249 191.347 89.1196V88.9709C191.347 88.4656 190.938 88.0559 190.432 88.0559Z" fill="white"/>
<path d="M161.217 146.998H146.688C145.563 146.998 144.485 146.552 143.689 145.756C142.894 144.961 142.447 143.882 142.447 142.758C142.447 141.633 142.894 140.554 143.689 139.759C144.485 138.964 145.563 138.517 146.688 138.517H161.217C162.342 138.517 163.42 138.964 164.215 139.759C165.011 140.554 165.458 141.633 165.458 142.758C165.458 143.882 165.011 144.961 164.215 145.756C163.42 146.552 162.342 146.998 161.217 146.998Z" fill="white"/>
<path d="M193.057 70.3129H116.483C116.088 70.3129 115.768 70.6331 115.768 71.0282C115.768 71.4232 116.088 71.7435 116.483 71.7435H193.057C193.452 71.7435 193.772 71.4232 193.772 71.0282C193.772 70.6331 193.452 70.3129 193.057 70.3129Z" fill="#B4CFFE"/>
<path d="M38.1244 19.7682H5.1232C2.29374 19.7682 0 22.062 0 24.8915V57.8927C0 60.7222 2.29374 63.0159 5.1232 63.0159H38.1244C40.9539 63.0159 43.2476 60.7222 43.2476 57.8927V24.8915C43.2476 22.062 40.9539 19.7682 38.1244 19.7682Z" fill="#7BA9FA"/>
<path d="M41.3948 24.2783C41.3948 24.7377 41.2586 25.1867 41.0034 25.5686C40.7482 25.9505 40.3855 26.2482 39.9611 26.4239C39.5368 26.5997 39.0698 26.6457 38.6193 26.5561C38.1688 26.4665 37.755 26.2453 37.4302 25.9205C37.1054 25.5957 36.8842 25.1819 36.7946 24.7314C36.705 24.2809 36.751 23.8139 36.9268 23.3896C37.1026 22.9652 37.4002 22.6025 37.7821 22.3473C38.1641 22.0921 38.6131 21.9559 39.0724 21.9559C39.6883 21.9559 40.279 22.2006 40.7146 22.6361C41.1501 23.0717 41.3948 23.6624 41.3948 24.2783Z" fill="#FF6C37"/>
<path d="M40.4933 23.4422L39.9173 22.8663L39.0673 23.7163L38.2127 22.8663L37.6367 23.4422L38.4914 24.2922L37.6367 25.1469L38.2127 25.7228L39.0673 24.8682L39.9173 25.7228L40.4933 25.1469L39.6386 24.2922L40.4933 23.4422Z" fill="#FEFEFE"/>
<path d="M33.841 53.6103C40.5887 46.8626 40.5887 35.9223 33.841 29.1746C27.0933 22.4269 16.153 22.4269 9.40533 29.1746C2.65761 35.9223 2.65761 46.8626 9.40533 53.6103C16.153 60.358 27.0933 60.358 33.841 53.6103Z" fill="#407BFF"/>
<path d="M26.0062 35.5234C26.0062 36.3933 25.7482 37.2438 25.2649 37.9671C24.7816 38.6905 24.0946 39.2542 23.2909 39.5872C22.4871 39.9201 21.6027 40.0072 20.7495 39.8375C19.8962 39.6677 19.1125 39.2488 18.4973 38.6337C17.8822 38.0185 17.4632 37.2347 17.2935 36.3815C17.1238 35.5283 17.2109 34.6438 17.5438 33.8401C17.8767 33.0364 18.4405 32.3494 19.1639 31.8661C19.8872 31.3827 20.7376 31.1248 21.6076 31.1248C22.7742 31.1248 23.893 31.5882 24.7179 32.4131C25.5428 33.238 26.0062 34.3568 26.0062 35.5234Z" fill="white"/>
<path d="M29.9416 48.0039H13.3086C13.3079 46.9022 13.5269 45.8114 13.9528 44.7954C14.3786 43.7793 15.0029 42.8584 15.7889 42.0865C16.263 41.632 16.8973 41.3833 17.5539 41.3944H25.6962C26.3551 41.3833 26.9915 41.6338 27.4659 42.0911C28.2506 42.8629 28.8736 43.7832 29.2987 44.7984C29.7237 45.8136 29.9423 46.9033 29.9416 48.0039Z" fill="white"/>
<path d="M48.2363 39.3971H88.5856C91.1542 39.3971 95.4274 39.3971 95.4274 45.8069V77.1964" stroke="#7BA9FA" stroke-width="2" stroke-miterlimit="10"/>
<path d="M97.2205 77.1965C97.2215 76.8417 97.1171 76.4946 96.9206 76.1991C96.7242 75.9037 96.4445 75.6731 96.117 75.5367C95.7895 75.4003 95.4288 75.3642 95.0807 75.4328C94.7326 75.5015 94.4127 75.6719 94.1615 75.9224C93.9103 76.173 93.7391 76.4924 93.6696 76.8403C93.6 77.1882 93.6352 77.549 93.7708 77.8768C93.9064 78.2047 94.1362 78.485 94.4311 78.6822C94.726 78.8794 95.0729 78.9847 95.4277 78.9847C95.9024 78.9847 96.3577 78.7964 96.6938 78.4612C97.0299 78.126 97.2193 77.6712 97.2205 77.1965Z" fill="#7BA9FA"/>
<path d="M50.3358 39.3971C50.3367 39.0423 50.2323 38.6952 50.0359 38.3997C49.8394 38.1043 49.5597 37.8738 49.2322 37.7374C48.9047 37.6009 48.5441 37.5648 48.196 37.6334C47.8479 37.7021 47.528 37.8725 47.2768 38.123C47.0256 38.3736 46.8543 38.693 46.7848 39.041C46.7152 39.3889 46.7505 39.7496 46.886 40.0775C47.0216 40.4053 47.2514 40.6856 47.5463 40.8828C47.8413 41.0801 48.1881 41.1853 48.5429 41.1853C49.0176 41.1853 49.4729 40.9971 49.809 40.6618C50.1451 40.3266 50.3345 39.8718 50.3358 39.3971Z" fill="#7BA9FA"/>
<path d="M291.322 10.9849H238.33C234.687 10.9849 231.734 13.9379 231.734 17.5805V78.483C231.734 82.1257 234.687 85.0786 238.33 85.0786H291.322C294.965 85.0786 297.918 82.1257 297.918 78.483V17.5805C297.918 13.9379 294.965 10.9849 291.322 10.9849Z" fill="#7BA9FA"/>
<path d="M291.047 24.3062H238.608C236.863 24.3062 235.449 25.7203 235.449 27.4647V60.8607C235.449 62.6051 236.863 64.0192 238.608 64.0192H291.047C292.792 64.0192 294.206 62.6051 294.206 60.8607V27.4647C294.206 25.7203 292.792 24.3062 291.047 24.3062Z" fill="#407BFF"/>
<path d="M247.582 59.221L248.232 58.9656" stroke="#EBAC3B" stroke-width="0.75" stroke-linecap="round" stroke-linejoin="round"/>
<path d="M249.561 58.4454L256.24 55.8164L264.828 59.221L273.867 55.8164L280.769 58.6822" stroke="#FF6C37" stroke-width="0.75" stroke-linecap="round" stroke-linejoin="round" stroke-dasharray="3.07 3.07"/>
<path d="M281.428 58.9563L282.069 59.2211" stroke="#EBAC3B" stroke-width="0.75" stroke-linecap="round" stroke-linejoin="round"/>
<path d="M273.867 38.993C273.867 43.9862 264.829 57.0752 264.829 57.0752C264.829 57.0752 255.785 43.9862 255.785 38.993C255.839 36.6306 256.815 34.3831 258.504 32.7312C260.194 31.0794 262.463 30.1545 264.826 30.1545C267.189 30.1545 269.458 31.0794 271.148 32.7312C272.838 34.3831 273.814 36.6306 273.867 38.993Z" fill="white"/>
<path d="M269.213 42.2309C271.028 39.802 270.53 36.3617 268.102 34.5466C265.673 32.7316 262.232 33.2292 260.417 35.6581C258.602 38.0869 259.1 41.5273 261.529 43.3423C263.958 45.1574 267.398 44.6598 269.213 42.2309Z" fill="#407BFF"/>
<path d="M252.064 48.1108C252.064 50.5864 247.582 57.0752 247.582 57.0752C247.582 57.0752 243.1 50.5725 243.1 48.1108C243.1 46.922 243.572 45.7819 244.412 44.9414C245.253 44.1008 246.393 43.6285 247.582 43.6285C248.771 43.6285 249.911 44.1008 250.751 44.9414C251.592 45.7819 252.064 46.922 252.064 48.1108Z" fill="#7BA9FA"/>
<path d="M247.581 50.8187C249.084 50.8187 250.303 49.6001 250.303 48.0968C250.303 46.5936 249.084 45.375 247.581 45.375C246.078 45.375 244.859 46.5936 244.859 48.0968C244.859 49.6001 246.078 50.8187 247.581 50.8187Z" fill="#407BFF"/>
<path d="M286.552 48.1108C286.552 50.5864 282.07 57.0752 282.07 57.0752C282.07 57.0752 277.588 50.5725 277.588 48.1108C277.588 46.922 278.06 45.7819 278.901 44.9414C279.741 44.1008 280.881 43.6285 282.07 43.6285C283.259 43.6285 284.399 44.1008 285.24 44.9414C286.08 45.7819 286.552 46.922 286.552 48.1108Z" fill="#7BA9FA"/>
<path d="M282.07 50.8187C283.573 50.8187 284.791 49.6001 284.791 48.0968C284.791 46.5936 283.573 45.375 282.07 45.375C280.566 45.375 279.348 46.5936 279.348 48.0968C279.348 49.6001 280.566 50.8187 282.07 50.8187Z" fill="#407BFF"/>
<path d="M293.971 17.9445C295.141 17.4132 295.659 16.0338 295.127 14.8636C294.596 13.6934 293.217 13.1754 292.047 13.7068C290.876 14.2381 290.358 15.6175 290.89 16.7877C291.421 17.9579 292.8 18.4758 293.971 17.9445Z" fill="#FF6C37"/>
<path d="M294.439 14.9702L293.863 14.3942L293.009 15.2489L292.154 14.3942L291.578 14.9702L292.433 15.8248L291.578 16.6795L292.154 17.2508L293.009 16.3961L293.863 17.2508L294.439 16.6795L293.585 15.8248L294.439 14.9702Z" fill="#FEFEFE"/>
<path d="M274.777 20.4928L236.648 20.4278C236.329 20.4266 236.025 20.2993 235.8 20.0738C235.575 19.8483 235.449 19.5431 235.449 19.2248C235.449 19.0666 235.479 18.9099 235.54 18.7637C235.6 18.6175 235.688 18.4846 235.8 18.3728C235.912 18.2609 236.045 18.1724 236.191 18.1121C236.337 18.0519 236.494 18.0212 236.652 18.0218L274.781 18.0868C275.1 18.0868 275.406 18.2136 275.632 18.4392C275.858 18.6648 275.984 18.9708 275.984 19.2898C275.983 19.6093 275.855 19.9153 275.629 20.1408C275.403 20.3662 275.096 20.4928 274.777 20.4928Z" fill="white"/>
<path d="M293.045 70.0202L236.606 69.9506C236.454 69.9506 236.303 69.9206 236.163 69.8625C236.023 69.8044 235.895 69.7192 235.788 69.6118C235.681 69.5044 235.595 69.3769 235.537 69.2366C235.479 69.0963 235.449 68.9459 235.449 68.794V68.7058C235.449 68.3978 235.572 68.1024 235.789 67.8847C236.007 67.6669 236.302 67.5446 236.61 67.5446L293.045 67.6096C293.352 67.6108 293.647 67.7335 293.864 67.951C294.082 68.1685 294.205 68.4632 294.206 68.7708V68.859C294.206 69.0115 294.176 69.1625 294.117 69.3034C294.059 69.4443 293.974 69.5723 293.866 69.6801C293.758 69.7879 293.63 69.8735 293.489 69.9318C293.348 69.9902 293.197 70.0202 293.045 70.0202Z" fill="white"/>
<path d="M255.073 75.7008L236.606 75.6404C236.299 75.6392 236.004 75.5163 235.788 75.2986C235.571 75.081 235.449 74.7864 235.449 74.4792C235.449 74.1712 235.572 73.8759 235.789 73.6581C236.007 73.4403 236.302 73.318 236.61 73.318L255.083 73.3784C255.39 73.3808 255.683 73.5041 255.9 73.7215C256.116 73.9388 256.238 74.2328 256.239 74.5396C256.238 74.848 256.115 75.1433 255.896 75.3609C255.678 75.5786 255.382 75.7008 255.073 75.7008Z" fill="white"/>
<path d="M216.588 60.9443V85.2923" stroke="white" stroke-width="2" stroke-miterlimit="10"/>
<path d="M226.198 37.0051H219.788C216.602 37.0051 216.602 38.928 216.602 40.0938V69.1377" stroke="#7BA9FA" stroke-width="2" stroke-miterlimit="10"/>
<path d="M216.587 87.0805C216.232 87.0814 215.884 86.977 215.589 86.7803C215.293 86.5837 215.063 86.3037 214.926 85.9759C214.79 85.6481 214.754 85.2872 214.823 84.939C214.892 84.5908 215.063 84.2709 215.314 84.0199C215.565 83.7689 215.885 83.598 216.233 83.529C216.582 83.4599 216.942 83.4958 217.27 83.6321C217.598 83.7684 217.878 83.9989 218.075 84.2945C218.271 84.59 218.376 84.9373 218.375 85.2923C218.375 85.7665 218.186 86.2214 217.851 86.5568C217.516 86.8921 217.061 87.0805 216.587 87.0805Z" fill="white"/>
<path d="M226.197 39.1323C225.843 39.1323 225.496 39.0272 225.201 38.8302C224.906 38.6332 224.676 38.3532 224.541 38.0256C224.405 37.698 224.37 37.3375 224.439 36.9897C224.508 36.6419 224.679 36.3224 224.929 36.0717C225.18 35.821 225.5 35.6502 225.847 35.581C226.195 35.5118 226.556 35.5473 226.883 35.683C227.211 35.8187 227.491 36.0485 227.688 36.3434C227.885 36.6382 227.99 36.9849 227.99 37.3395C227.991 37.5751 227.945 37.8085 227.855 38.0263C227.765 38.2441 227.633 38.442 227.466 38.6086C227.3 38.7752 227.102 38.9072 226.884 38.9971C226.666 39.087 226.433 39.133 226.197 39.1323Z" fill="#7BA9FA"/>
<path d="M78.2136 107.183H10.5622C8.52798 107.183 6.87891 108.832 6.87891 110.866V154.36C6.87891 156.394 8.52798 158.044 10.5622 158.044H78.2136C80.2478 158.044 81.8969 156.394 81.8969 154.36V110.866C81.8969 108.832 80.2478 107.183 78.2136 107.183Z" fill="#7BA9FA"/>
<path d="M76.0595 117.546H12.7231C11.5072 117.546 10.5215 118.531 10.5215 119.747V152.869C10.5215 154.085 11.5072 155.071 12.7231 155.071H76.0595C77.2754 155.071 78.2611 154.085 78.2611 152.869V119.747C78.2611 118.531 77.2754 117.546 76.0595 117.546Z" fill="#407BFF"/>
<path d="M66.9082 122.906H70.3872V137.305C70.3872 137.767 70.2036 138.21 69.877 138.536C69.5503 138.863 69.1073 139.046 68.6454 139.046C68.4168 139.046 68.1906 139.001 67.9795 138.914C67.7684 138.826 67.5767 138.698 67.4154 138.536C67.254 138.374 67.1261 138.182 67.0391 137.971C66.9521 137.76 66.9076 137.533 66.9082 137.305V122.906Z" fill="#7BA9FA"/>
<path d="M57.2285 122.906H60.7121V135.999C60.7121 136.461 60.5286 136.904 60.2019 137.231C59.8753 137.558 59.4323 137.741 58.9703 137.741C58.5084 137.741 58.0653 137.558 57.7387 137.231C57.412 136.904 57.2285 136.461 57.2285 135.999V122.906Z" fill="#7BA9FA"/>
<path d="M47.5547 127.551H51.0336V144.272C51.0343 144.5 50.9897 144.726 50.9026 144.937C50.8156 145.148 50.6876 145.34 50.5262 145.501C50.3648 145.663 50.173 145.791 49.962 145.878C49.751 145.965 49.5248 146.01 49.2965 146.009C49.068 146.01 48.8416 145.965 48.6303 145.878C48.419 145.791 48.2269 145.663 48.0651 145.502C47.9033 145.34 47.775 145.149 47.6874 144.938C47.5998 144.727 47.5547 144.5 47.5547 144.272V127.551Z" fill="#7BA9FA"/>
<path d="M37.875 122.906H41.3586V150.082C41.3586 150.544 41.1751 150.987 40.8484 151.314C40.5218 151.641 40.0787 151.824 39.6168 151.824C39.1548 151.824 38.7118 151.641 38.3852 151.314C38.0585 150.987 37.875 150.544 37.875 150.082V122.906Z" fill="#7BA9FA"/>
<path d="M28.1992 122.906H31.6828V146.594C31.6828 147.056 31.4993 147.499 31.1727 147.826C30.846 148.152 30.403 148.336 29.941 148.336C29.4791 148.336 29.036 148.152 28.7094 147.826C28.3827 147.499 28.1992 147.056 28.1992 146.594V122.906Z" fill="#7BA9FA"/>
<path d="M18.5234 122.906H22.0024V136.673C22.0024 137.135 21.8189 137.578 21.4922 137.905C21.1656 138.231 20.7225 138.415 20.2606 138.415C20.0321 138.415 19.8058 138.37 19.5947 138.282C19.3837 138.194 19.192 138.066 19.0306 137.904C18.8692 137.742 18.7414 137.55 18.6543 137.339C18.5673 137.128 18.5228 136.901 18.5234 136.673V122.906Z" fill="#7BA9FA"/>
<path d="M22.0024 151.815H18.5234V137.416C18.5247 136.956 18.7082 136.516 19.0339 136.191C19.3595 135.866 19.8007 135.684 20.2606 135.684C20.7225 135.684 21.1656 135.867 21.4922 136.194C21.8189 136.52 22.0024 136.963 22.0024 137.425V151.815Z" fill="white"/>
<path d="M31.6828 151.815H28.1992V143.366C28.1992 142.904 28.3827 142.461 28.7094 142.134C29.036 141.808 29.4791 141.624 29.941 141.624C30.403 141.624 30.846 141.808 31.1727 142.134C31.4993 142.461 31.6828 142.904 31.6828 143.366V151.815Z" fill="white"/>
<path d="M41.3586 151.815H37.875V130.449C37.8775 129.989 38.062 129.548 38.3884 129.223C38.7148 128.899 39.1564 128.716 39.6168 128.716C40.0787 128.716 40.5218 128.9 40.8484 129.227C41.1751 129.553 41.3586 129.996 41.3586 130.458V151.815Z" fill="white"/>
<path d="M51.0336 151.815H47.5547V124.643C47.5547 124.414 47.5998 124.188 47.6874 123.977C47.775 123.766 47.9033 123.574 48.0651 123.413C48.2269 123.252 48.419 123.124 48.6303 123.037C48.8416 122.95 49.068 122.905 49.2965 122.906C49.5248 122.905 49.751 122.95 49.962 123.037C50.173 123.124 50.3648 123.252 50.5262 123.413C50.6876 123.575 50.8156 123.766 50.9026 123.977C50.9897 124.188 51.0343 124.415 51.0336 124.643V151.815Z" fill="white"/>
<path d="M60.7121 151.815H57.2285V132.771C57.2297 132.542 57.2761 132.315 57.3651 132.104C57.454 131.893 57.5838 131.702 57.7469 131.541C57.91 131.38 58.1032 131.253 58.3156 131.166C58.5279 131.08 58.7551 131.037 58.9842 131.039C59.4462 131.039 59.8892 131.222 60.2159 131.549C60.5425 131.876 60.726 132.319 60.726 132.781L60.7121 151.815Z" fill="white"/>
<path d="M70.3872 151.815H66.9082V138.048C66.9076 137.819 66.9521 137.593 67.0391 137.382C67.1261 137.17 67.254 136.978 67.4154 136.816C67.5767 136.655 67.7684 136.526 67.9795 136.439C68.1906 136.351 68.4168 136.306 68.6454 136.306C69.1073 136.306 69.5503 136.49 69.877 136.816C70.2036 137.143 70.3872 137.586 70.3872 138.048V151.815Z" fill="white"/>
<path d="M80.5881 110.927C80.5881 111.386 80.4519 111.835 80.1968 112.217C79.9416 112.599 79.5789 112.897 79.1545 113.072C78.7301 113.248 78.2632 113.294 77.8127 113.205C77.3622 113.115 76.9484 112.894 76.6236 112.569C76.2988 112.244 76.0776 111.83 75.988 111.38C75.8984 110.929 75.9444 110.463 76.1201 110.038C76.2959 109.614 76.5936 109.251 76.9755 108.996C77.3574 108.741 77.8064 108.604 78.2657 108.604C78.8817 108.604 79.4724 108.849 79.9079 109.285C80.3435 109.72 80.5881 110.311 80.5881 110.927Z" fill="#FF6C37"/>
<path d="M79.6905 110.091L79.1146 109.515L78.2599 110.37L77.4053 109.515L76.834 110.091L77.684 110.945L76.834 111.795L77.4053 112.371L78.2599 111.517L79.1146 112.371L79.6905 111.795L78.8359 110.945L79.6905 110.091Z" fill="#FEFEFE"/>
<path d="M61.9532 111.517H11.7895C11.0892 111.517 10.5215 112.084 10.5215 112.785C10.5215 113.485 11.0892 114.053 11.7895 114.053H61.9532C62.6536 114.053 63.2213 113.485 63.2213 112.785C63.2213 112.084 62.6536 111.517 61.9532 111.517Z" fill="#DEE9FE"/>
<path d="M40.3262 161.253V167.579C40.3262 170.366 42.2445 170.854 43.4103 170.854H104.09" stroke="#7BA9FA" stroke-width="2" stroke-miterlimit="10"/>
<path d="M105.898 170.854C105.898 171.209 105.793 171.555 105.596 171.85C105.399 172.145 105.119 172.375 104.792 172.51C104.464 172.646 104.103 172.682 103.756 172.612C103.408 172.543 103.088 172.372 102.838 172.122C102.587 171.871 102.416 171.552 102.347 171.204C102.278 170.856 102.313 170.495 102.449 170.168C102.585 169.84 102.814 169.56 103.109 169.363C103.404 169.166 103.751 169.061 104.105 169.061C104.341 169.06 104.574 169.106 104.792 169.196C105.01 169.286 105.208 169.418 105.375 169.585C105.541 169.751 105.673 169.949 105.763 170.167C105.853 170.385 105.899 170.618 105.898 170.854Z" fill="#7BA9FA"/>
<path d="M42.1151 161.253C42.116 161.608 42.0115 161.955 41.8149 162.251C41.6182 162.547 41.3382 162.777 41.0104 162.913C40.6826 163.05 40.3218 163.086 39.9735 163.017C39.6253 162.947 39.3054 162.777 39.0544 162.526C38.8034 162.275 38.6326 161.955 38.5635 161.606C38.4945 161.258 38.5304 160.897 38.6667 160.57C38.8029 160.242 39.0335 159.962 39.329 159.765C39.6246 159.569 39.9718 159.464 40.3268 159.465C40.8011 159.465 41.2559 159.653 41.5913 159.989C41.9267 160.324 42.1151 160.779 42.1151 161.253Z" fill="#7BA9FA"/>
<path d="M309.659 124.736H225.277C223.405 124.736 221.887 126.254 221.887 128.127V168.1C221.887 169.972 223.405 171.49 225.277 171.49H309.659C311.532 171.49 313.05 169.972 313.05 168.1V128.127C313.05 126.254 311.532 124.736 309.659 124.736Z" fill="#7BA9FA"/>
<path d="M309.321 130.96C310.606 130.96 311.648 129.918 311.648 128.633C311.648 127.348 310.606 126.306 309.321 126.306C308.036 126.306 306.994 127.348 306.994 128.633C306.994 129.918 308.036 130.96 309.321 130.96Z" fill="#FF6C37"/>
<path d="M310.751 127.778L310.175 127.202L309.32 128.057L308.466 127.202L307.895 127.778L308.745 128.633L307.895 129.483L308.466 130.059L309.32 129.204L310.175 130.059L310.751 129.483L309.896 128.633L310.751 127.778Z" fill="#FEFEFE"/>
<path d="M239.686 130.328H227.67C226.78 130.328 226.059 131.05 226.059 131.94V143.956C226.059 144.846 226.78 145.568 227.67 145.568H239.686C240.577 145.568 241.298 144.846 241.298 143.956V131.94C241.298 131.05 240.577 130.328 239.686 130.328Z" fill="white"/>
<path d="M299.122 133.988H248.326C247.841 133.988 247.375 133.795 247.032 133.452C246.689 133.109 246.496 132.644 246.496 132.158C246.496 131.673 246.689 131.207 247.032 130.864C247.375 130.521 247.841 130.328 248.326 130.328H299.122C299.364 130.324 299.605 130.369 299.83 130.459C300.056 130.55 300.261 130.684 300.434 130.854C300.607 131.024 300.744 131.227 300.838 131.451C300.931 131.675 300.98 131.915 300.979 132.158C300.98 132.401 300.931 132.641 300.838 132.865C300.744 133.089 300.607 133.292 300.434 133.462C300.261 133.632 300.056 133.767 299.83 133.857C299.605 133.947 299.364 133.992 299.122 133.988Z" fill="white"/>
<path d="M276.153 139.604H247.708C247.387 139.604 247.079 139.476 246.851 139.249C246.624 139.021 246.496 138.713 246.496 138.391C246.495 138.232 246.526 138.074 246.587 137.926C246.648 137.779 246.737 137.644 246.85 137.531C246.962 137.418 247.096 137.329 247.243 137.267C247.391 137.206 247.549 137.175 247.708 137.175H276.153C276.313 137.175 276.471 137.206 276.618 137.267C276.765 137.329 276.899 137.418 277.012 137.531C277.125 137.644 277.214 137.779 277.274 137.926C277.335 138.074 277.366 138.232 277.365 138.391C277.365 138.551 277.334 138.708 277.273 138.855C277.212 139.003 277.123 139.136 277.01 139.249C276.898 139.361 276.764 139.451 276.617 139.512C276.47 139.572 276.312 139.604 276.153 139.604Z" fill="white"/>
<path d="M305.59 149.019H229.35C227.442 149.019 225.895 150.566 225.895 152.475V163.278C225.895 165.187 227.442 166.734 229.35 166.734H305.59C307.498 166.734 309.046 165.187 309.046 163.278V152.475C309.046 150.566 307.498 149.019 305.59 149.019Z" fill="#407BFF"/>
<path d="M264.828 157.235V152.79C264.828 152.719 264.846 152.649 264.88 152.587C264.915 152.524 264.965 152.472 265.025 152.434C265.086 152.396 265.155 152.375 265.226 152.371C265.297 152.368 265.368 152.382 265.432 152.414L269.877 154.611C269.946 154.647 270.004 154.701 270.045 154.767C270.086 154.833 270.107 154.91 270.107 154.987C270.107 155.065 270.086 155.141 270.045 155.208C270.004 155.274 269.946 155.328 269.877 155.364L265.432 157.612C265.368 157.643 265.297 157.658 265.226 157.655C265.155 157.651 265.086 157.63 265.025 157.592C264.965 157.554 264.915 157.502 264.88 157.439C264.846 157.377 264.828 157.307 264.828 157.235Z" fill="#FF6C37"/>
<path d="M277.754 156.585V153.403C277.754 153.352 277.767 153.302 277.792 153.257C277.818 153.212 277.854 153.174 277.897 153.147C277.941 153.12 277.991 153.105 278.042 153.103C278.094 153.1 278.145 153.111 278.191 153.134L281.368 154.704C281.417 154.729 281.459 154.768 281.489 154.815C281.518 154.863 281.533 154.918 281.533 154.973C281.533 155.029 281.518 155.084 281.489 155.131C281.459 155.179 281.417 155.218 281.368 155.243L278.218 156.873C278.17 156.904 278.114 156.921 278.057 156.922C278 156.922 277.944 156.907 277.895 156.877C277.846 156.846 277.807 156.803 277.782 156.751C277.757 156.7 277.747 156.642 277.754 156.585Z" fill="white"/>
<path d="M282.543 153.12H282.329C282.203 153.12 282.102 153.222 282.102 153.348V156.673C282.102 156.799 282.203 156.901 282.329 156.901H282.543C282.669 156.901 282.77 156.799 282.77 156.673V153.348C282.77 153.222 282.669 153.12 282.543 153.12Z" fill="white"/>
<path d="M257.168 156.585V153.403C257.168 153.352 257.155 153.302 257.129 153.257C257.104 153.212 257.068 153.174 257.025 153.147C256.981 153.12 256.931 153.105 256.88 153.103C256.828 153.1 256.777 153.111 256.731 153.134L253.554 154.727C253.504 154.752 253.463 154.791 253.433 154.838C253.404 154.886 253.389 154.941 253.389 154.997C253.389 155.052 253.404 155.107 253.433 155.155C253.463 155.202 253.504 155.241 253.554 155.266L256.731 156.878C256.779 156.902 256.832 156.913 256.886 156.909C256.939 156.906 256.991 156.889 257.035 156.859C257.079 156.829 257.115 156.788 257.138 156.74C257.162 156.692 257.172 156.638 257.168 156.585Z" fill="white"/>
<path d="M252.395 156.901H252.608C252.734 156.901 252.836 156.799 252.836 156.673V153.348C252.836 153.222 252.734 153.12 252.608 153.12H252.395C252.269 153.12 252.167 153.222 252.167 153.348V156.673C252.167 156.799 252.269 156.901 252.395 156.901Z" fill="white"/>
<path d="M232.329 161.341C232.329 161.408 232.309 161.472 232.273 161.527C232.236 161.582 232.184 161.625 232.123 161.65C232.061 161.676 231.994 161.682 231.929 161.669C231.864 161.656 231.805 161.625 231.758 161.578C231.711 161.531 231.679 161.472 231.667 161.407C231.654 161.342 231.66 161.275 231.686 161.213C231.711 161.152 231.754 161.1 231.809 161.063C231.864 161.027 231.928 161.007 231.995 161.007C232.083 161.007 232.168 161.042 232.231 161.105C232.294 161.168 232.329 161.253 232.329 161.341Z" fill="white"/>
<path d="M232.329 162.489C232.33 162.555 232.311 162.62 232.275 162.676C232.239 162.731 232.187 162.775 232.126 162.801C232.065 162.827 231.997 162.834 231.932 162.822C231.867 162.81 231.807 162.778 231.76 162.731C231.713 162.685 231.68 162.625 231.667 162.56C231.654 162.495 231.66 162.428 231.685 162.366C231.71 162.305 231.753 162.253 231.808 162.216C231.863 162.179 231.928 162.159 231.995 162.159C232.082 162.159 232.167 162.194 232.229 162.255C232.292 162.317 232.328 162.401 232.329 162.489Z" fill="white"/>
<path d="M230.54 161.007H229.448C229.248 161.007 229.086 161.169 229.086 161.369V162.461C229.086 162.661 229.248 162.823 229.448 162.823H230.54C230.74 162.823 230.902 162.661 230.902 162.461V161.369C230.902 161.169 230.74 161.007 230.54 161.007Z" fill="white"/>
<path d="M234.539 161.007H233.438C233.24 161.007 233.08 161.167 233.08 161.365V162.465C233.08 162.663 233.24 162.823 233.438 162.823H234.539C234.736 162.823 234.896 162.663 234.896 162.465V161.365C234.896 161.167 234.736 161.007 234.539 161.007Z" fill="white"/>
<path d="M303.302 161.341C303.302 161.408 303.282 161.472 303.245 161.527C303.209 161.582 303.156 161.625 303.095 161.65C303.034 161.676 302.967 161.682 302.902 161.669C302.837 161.656 302.778 161.625 302.731 161.578C302.684 161.531 302.652 161.472 302.639 161.407C302.626 161.342 302.633 161.275 302.658 161.213C302.684 161.152 302.726 161.1 302.781 161.063C302.836 161.027 302.901 161.007 302.967 161.007C303.056 161.007 303.141 161.042 303.204 161.105C303.266 161.168 303.302 161.253 303.302 161.341Z" fill="white"/>
<path d="M303.302 162.489C303.303 162.555 303.284 162.62 303.248 162.676C303.211 162.731 303.159 162.775 303.098 162.801C303.037 162.827 302.97 162.834 302.905 162.822C302.84 162.81 302.78 162.778 302.732 162.731C302.685 162.685 302.653 162.625 302.64 162.56C302.626 162.495 302.633 162.428 302.658 162.366C302.683 162.305 302.726 162.253 302.781 162.216C302.836 162.179 302.901 162.159 302.967 162.159C303.055 162.159 303.139 162.194 303.202 162.255C303.265 162.317 303.3 162.401 303.302 162.489Z" fill="white"/>
<path d="M301.495 161.007H300.403C300.203 161.007 300.041 161.169 300.041 161.369V162.461C300.041 162.661 300.203 162.823 300.403 162.823H301.495C301.695 162.823 301.857 162.661 301.857 162.461V161.369C301.857 161.169 301.695 161.007 301.495 161.007Z" fill="white"/>
<path d="M305.483 161.007H304.392C304.192 161.007 304.029 161.169 304.029 161.369V162.461C304.029 162.661 304.192 162.823 304.392 162.823H305.483C305.683 162.823 305.845 162.661 305.845 162.461V161.369C305.845 161.169 305.683 161.007 305.483 161.007Z" fill="white"/>
<path d="M297.429 161.806H237.512V162.164H297.429V161.806Z" fill="white"/>
<path d="M268.238 163.055C268.845 163.055 269.338 162.563 269.338 161.955C269.338 161.347 268.845 160.854 268.238 160.854C267.63 160.854 267.137 161.347 267.137 161.955C267.137 162.563 267.63 163.055 268.238 163.055Z" fill="white"/>
<path d="M250.736 109.575H210.545" stroke="white" stroke-width="2" stroke-miterlimit="10"/>
<path d="M274.312 119.176V112.924C274.312 109.575 272.389 109.575 271.228 109.575H250.326" stroke="#7BA9FA" stroke-width="2" stroke-miterlimit="10"/>
<path d="M208.752 109.575C208.752 109.221 208.857 108.874 209.054 108.579C209.251 108.284 209.531 108.055 209.859 107.919C210.186 107.783 210.547 107.748 210.895 107.817C211.242 107.886 211.562 108.057 211.813 108.307C212.063 108.558 212.234 108.878 212.303 109.225C212.372 109.573 212.337 109.934 212.201 110.261C212.066 110.589 211.836 110.869 211.541 111.066C211.246 111.263 210.899 111.368 210.545 111.368C210.309 111.368 210.076 111.322 209.859 111.232C209.641 111.142 209.444 111.009 209.277 110.843C209.111 110.677 208.979 110.479 208.888 110.261C208.798 110.044 208.752 109.811 208.752 109.575Z" fill="white"/>
<path d="M272.52 119.176C272.519 118.821 272.623 118.474 272.819 118.179C273.016 117.883 273.296 117.653 273.623 117.516C273.951 117.38 274.311 117.344 274.659 117.412C275.007 117.481 275.327 117.651 275.579 117.902C275.83 118.152 276.001 118.472 276.071 118.82C276.14 119.168 276.105 119.528 275.969 119.856C275.834 120.184 275.604 120.465 275.309 120.662C275.014 120.859 274.667 120.964 274.312 120.964C273.838 120.964 273.382 120.776 273.046 120.441C272.71 120.105 272.521 119.651 272.52 119.176Z" fill="#7BA9FA"/>
</g>
<defs>
<clipPath id="clip0_1108_15943">
<rect width="313.05" height="200" fill="white"/>
</clipPath>
</defs>
</svg>
