<svg width="300" height="250" viewBox="0 0 300 250" fill="none" xmlns="http://www.w3.org/2000/svg">
<g clip-path="url(#clip0_1281_19254)">
<path d="M276.348 2.37999H253.738V24.9899H276.348V2.37999Z" fill="#F6F9FF"/>
<path d="M287.049 29.1968H278.971V37.2754H287.049V29.1968Z" fill="#FF6C37" stroke="#407BFF" stroke-width="0.498186" stroke-miterlimit="10"/>
<path d="M260.953 17.6405H238.82V40.5772H260.953V17.6405Z" fill="white" stroke="#407BFF" stroke-width="0.469173" stroke-miterlimit="10"/>
<path d="M239.424 17.8583L260.358 40.3426" stroke="#407BFF" stroke-width="0.469173" stroke-miterlimit="10"/>
<path d="M260.358 17.8583L239.424 40.3426" stroke="#407BFF" stroke-width="0.469173" stroke-miterlimit="10"/>
<path d="M182.656 17.6405H160.523V40.5772H182.656V17.6405Z" fill="white" stroke="#407BFF" stroke-width="0.469173" stroke-miterlimit="10"/>
<path d="M161.127 17.8583L182.061 40.3426" stroke="#407BFF" stroke-width="0.469173" stroke-miterlimit="10"/>
<path d="M182.061 17.8583L161.127 40.3426" stroke="#407BFF" stroke-width="0.469173" stroke-miterlimit="10"/>
<path d="M50.3914 64.7543H7.62695V96.5741H50.3914V64.7543Z" stroke="#407BFF" stroke-width="0.469173" stroke-linecap="round" stroke-linejoin="round"/>
<path d="M47.331 69.3299H10.6758V73.4027H47.331V69.3299Z" fill="white" stroke="#407BFF" stroke-width="0.469173" stroke-miterlimit="10"/>
<path d="M10.2988 78.4979H31.04" stroke="#407BFF" stroke-width="0.469173" stroke-miterlimit="10"/>
<path d="M10.2988 83.3333H31.04" stroke="#407BFF" stroke-width="0.469173" stroke-miterlimit="10"/>
<path d="M10.2988 88.1687H31.04" stroke="#407BFF" stroke-width="0.469173" stroke-miterlimit="10"/>
<path d="M10.2988 93.2556H31.04" stroke="#407BFF" stroke-width="0.469173" stroke-miterlimit="10"/>
<path d="M47.3315 78.4979H33.5879V93.2639H47.3315V78.4979Z" fill="white" stroke="#407BFF" stroke-width="0.469173" stroke-miterlimit="10"/>
<path d="M33.5879 78.4979L47.3315 93.2556" stroke="#407BFF" stroke-width="0.469173" stroke-miterlimit="10"/>
<path d="M47.3315 78.4979L33.5879 93.2556" stroke="#407BFF" stroke-width="0.469173" stroke-miterlimit="10"/>
<path d="M137.16 14.5H50.5V41.1828H137.16V14.5Z" fill="#F6F9FF"/>
<path d="M55.6445 20.5065H130.598" stroke="#407BFF" stroke-width="0.469173" stroke-miterlimit="10"/>
<path d="M55.6445 25.3503H130.598" stroke="#407BFF" stroke-width="0.469173" stroke-miterlimit="10"/>
<path d="M55.6445 30.1941H130.598" stroke="#407BFF" stroke-width="0.469173" stroke-miterlimit="10"/>
<path d="M55.6445 35.0379H130.598" stroke="#407BFF" stroke-width="0.469173" stroke-miterlimit="10"/>
<path d="M43.4514 139.288V140.956H41.7754" stroke="#2D1D6A" stroke-width="0.703759" stroke-linecap="round" stroke-linejoin="round"/>
<path d="M38.381 140.956H26.4727" stroke="#2D1D6A" stroke-width="0.703759" stroke-linecap="round" stroke-linejoin="round" stroke-dasharray="4.06 4.06"/>
<path d="M24.7796 140.956H23.1035V139.288" stroke="#2D1D6A" stroke-width="0.703759" stroke-linecap="round" stroke-linejoin="round"/>
<path d="M23.1035 135.886V123.986" stroke="#2D1D6A" stroke-width="0.703759" stroke-linecap="round" stroke-linejoin="round" stroke-dasharray="4.06 4.06"/>
<path d="M23.1035 122.285V120.609H24.7796" stroke="#2D1D6A" stroke-width="0.703759" stroke-linecap="round" stroke-linejoin="round"/>
<path d="M28.1738 120.609H40.0738" stroke="#2D1D6A" stroke-width="0.703759" stroke-linecap="round" stroke-linejoin="round" stroke-dasharray="4.06 4.06"/>
<path d="M41.7754 120.609H43.4514V122.285" stroke="#2D1D6A" stroke-width="0.703759" stroke-linecap="round" stroke-linejoin="round"/>
<path d="M43.4512 125.687V137.587" stroke="#2D1D6A" stroke-width="0.703759" stroke-linecap="round" stroke-linejoin="round" stroke-dasharray="4.06 4.06"/>
<path d="M231.438 157.071V55.6701C231.437 55.0428 231.312 54.4219 231.071 53.8427C230.83 53.2636 230.477 52.7376 230.033 52.2949C229.589 51.8521 229.062 51.5012 228.482 51.2621C227.902 51.0231 227.28 50.9006 226.653 50.9017H61.6875C61.0602 50.9006 60.4388 51.0231 59.8589 51.2621C59.2789 51.5012 58.7517 51.8521 58.3074 52.2949C57.863 52.7376 57.5102 53.2636 57.2692 53.8427C57.0281 54.4219 56.9034 55.0428 56.9023 55.6701V157.071H231.438Z" fill="#455A64"/>
<path d="M61.6785 176.949C60.345 176.949 59.0661 176.419 58.1231 175.477C57.1801 174.534 56.6504 173.255 56.6504 171.921V157.356H231.412V171.929C231.412 173.263 230.883 174.542 229.94 175.485C228.997 176.428 227.718 176.958 226.384 176.958L61.6785 176.949Z" fill="white"/>
<path d="M231.329 157.44V171.929C231.327 173.239 230.805 174.495 229.878 175.42C228.951 176.346 227.694 176.865 226.385 176.865H61.6789C60.3698 176.865 59.1144 176.345 58.1887 175.42C57.263 174.494 56.743 173.239 56.743 171.929V157.44H231.329ZM231.505 157.264H56.5586V171.929C56.5608 173.286 57.1013 174.586 58.0613 175.545C59.0213 176.503 60.3224 177.041 61.6789 177.041H226.385C227.741 177.041 229.042 176.503 230.002 175.545C230.962 174.586 231.503 173.286 231.505 171.929V157.264Z" fill="black"/>
<path d="M148.615 165.887C148.613 166.787 148.345 167.666 147.844 168.413C147.343 169.16 146.631 169.742 145.8 170.085C144.968 170.429 144.053 170.517 143.171 170.341C142.289 170.164 141.479 169.73 140.844 169.094C140.208 168.457 139.775 167.646 139.601 166.764C139.426 165.881 139.516 164.967 139.861 164.136C140.206 163.305 140.789 162.594 141.537 162.095C142.285 161.595 143.165 161.328 144.064 161.328C144.662 161.328 145.255 161.446 145.807 161.676C146.36 161.905 146.862 162.241 147.285 162.664C147.707 163.088 148.042 163.59 148.271 164.143C148.499 164.696 148.616 165.289 148.615 165.887Z" fill="white"/>
<path d="M114.701 199.098C113.813 199.048 113.729 198.88 113.721 198.847C113.713 198.813 113.889 198.604 114.039 198.52C114.039 198.52 115.246 198.093 116.713 197.54C118.179 196.986 120.065 196.257 121.196 195.704C123.191 194.749 123.333 194.095 124.054 190.961C124.842 187.525 125.579 180.209 125.872 177.134H162.201C162.486 180.192 163.223 187.492 164.019 190.961C164.732 194.095 164.857 194.749 166.877 195.704C168.033 196.266 169.978 197.02 171.411 197.556C172.844 198.093 174.109 198.721 174.126 198.73C174.143 198.738 174.352 198.914 174.344 198.956C174.335 198.998 174.294 199.098 173.506 199.098H114.701Z" fill="white"/>
<path d="M162.116 177.217C162.41 180.335 163.147 187.542 163.926 190.978C164.639 194.079 164.806 194.816 166.843 195.788C167.999 196.341 169.943 197.104 171.377 197.64C172.81 198.176 174.075 198.805 174.075 198.805C174.135 198.838 174.188 198.88 174.234 198.931C173.997 198.996 173.751 199.022 173.505 199.006H114.718C113.93 199.006 113.821 198.838 113.813 198.838C113.813 198.788 113.955 198.671 114.056 198.612C114.156 198.554 115.262 198.176 116.746 197.615C118.229 197.053 120.098 196.341 121.229 195.788C123.265 194.816 123.433 194.112 124.145 190.978C124.916 187.567 125.654 180.343 125.956 177.217H162.116ZM162.284 177.041H125.788C125.495 180.218 124.757 187.492 123.969 190.936C123.249 194.095 123.081 194.707 121.154 195.629C120.064 196.148 118.221 196.869 116.679 197.456C115.137 198.042 113.997 198.445 113.997 198.445C113.997 198.445 112.824 199.09 114.701 199.182H173.505C175.089 199.182 174.167 198.637 174.167 198.637C174.167 198.637 172.893 198.009 171.435 197.464C169.977 196.919 168.016 196.148 166.918 195.62C164.991 194.699 164.823 194.087 164.102 190.928C163.315 187.483 162.577 180.209 162.284 177.033V177.041Z" fill="black"/>
<path d="M163.408 185.69C163.248 184.181 162.369 178.014 162.276 177.041H125.789C125.697 178.014 125.789 178.491 125.621 180L163.408 185.69Z" fill="#455A64"/>
<path d="M223.058 59.0473H64.998V148.054H223.058V59.0473Z" fill="#EBF5FF"/>
<path d="M223.058 59.0473H64.998V67.8801H223.058V59.0473Z" fill="white" stroke="#407BFF" stroke-width="0.469173" stroke-miterlimit="10"/>
<path d="M220.083 69.7657H186.855V112.999H220.083V69.7657Z" fill="white" stroke="#407BFF" stroke-width="0.469173" stroke-miterlimit="10"/>
<path d="M185.355 69.816H66.6738V146.202H185.355V69.816Z" fill="white" stroke="#407BFF" stroke-width="0.469173" stroke-miterlimit="10"/>
<path d="M185.748 61.3435H78.9414V65.5839H185.748V61.3435Z" fill="#E2E0F6"/>
<path d="M76.0181 61.3435H71.4844V65.5839H76.0181V61.3435Z" fill="#E2E0F6"/>
<path d="M202.969 65.2655V65.0141C202.969 64.6185 202.812 64.239 202.532 63.9593C202.253 63.6796 201.873 63.5224 201.478 63.5224H199.986C199.59 63.5224 199.211 63.6796 198.931 63.9593C198.651 64.239 198.494 64.6185 198.494 65.0141V65.2655H202.969Z" fill="#E2E0F6"/>
<path d="M201.729 61.7793C201.731 61.9769 201.673 62.1705 201.565 62.3356C201.456 62.5007 201.301 62.6298 201.119 62.7066C200.937 62.7833 200.736 62.8043 200.542 62.7668C200.348 62.7292 200.17 62.6349 200.029 62.4958C199.889 62.3567 199.793 62.179 199.754 61.9853C199.715 61.7917 199.734 61.5907 199.809 61.408C199.885 61.2253 200.013 61.069 200.177 60.9591C200.341 60.8491 200.534 60.7904 200.732 60.7904C200.995 60.7904 201.247 60.8943 201.434 61.0795C201.621 61.2648 201.727 61.5163 201.729 61.7793Z" fill="#E2E0F6"/>
<path d="M204.126 65.1565C204.126 65.4204 204.047 65.6784 203.901 65.8977C203.754 66.117 203.545 66.2878 203.301 66.3884C203.057 66.489 202.789 66.5149 202.53 66.4628C202.272 66.4107 202.034 66.2829 201.848 66.0957C201.662 65.9085 201.536 65.6703 201.486 65.4113C201.435 65.1523 201.463 64.8841 201.565 64.6408C201.667 64.3975 201.839 64.19 202.059 64.0446C202.279 63.8992 202.538 63.8224 202.802 63.8241C202.976 63.8241 203.149 63.8586 203.31 63.9257C203.472 63.9927 203.618 64.091 203.741 64.2149C203.864 64.3387 203.961 64.4857 204.027 64.6473C204.094 64.8089 204.127 64.982 204.126 65.1565Z" fill="#FF6C37"/>
<path d="M211.677 61.0502H207.629C207.529 61.0502 207.433 61.09 207.362 61.1607C207.292 61.2314 207.252 61.3273 207.252 61.4273V64.5951C207.252 64.6951 207.292 64.791 207.362 64.8617C207.433 64.9325 207.529 64.9722 207.629 64.9722H207.88V65.8605L208.769 64.9722H211.677C211.778 64.9722 211.874 64.9327 211.946 64.8623C212.018 64.7918 212.06 64.6959 212.062 64.5951V61.4273C212.06 61.3265 212.018 61.2306 211.946 61.1601C211.874 61.0897 211.778 61.0502 211.677 61.0502Z" fill="#E2E0F6"/>
<path d="M213.311 65.1565C213.311 65.4204 213.233 65.6784 213.086 65.8977C212.939 66.117 212.731 66.2878 212.487 66.3884C212.243 66.489 211.975 66.5149 211.716 66.4628C211.457 66.4107 211.22 66.2829 211.034 66.0957C210.848 65.9085 210.722 65.6703 210.671 65.4113C210.621 65.1523 210.648 64.8841 210.75 64.6408C210.852 64.3975 211.025 64.19 211.245 64.0446C211.465 63.8992 211.723 63.8224 211.987 63.8241C212.162 63.8241 212.335 63.8586 212.496 63.9257C212.657 63.9927 212.804 64.091 212.927 64.2149C213.05 64.3387 213.147 64.4857 213.213 64.6473C213.279 64.8089 213.313 64.982 213.311 65.1565Z" fill="#FF6C37"/>
<path d="M220.083 114.751H186.855V145.808H220.083V114.751Z" fill="white" stroke="#407BFF" stroke-width="0.469173" stroke-miterlimit="10"/>
<path d="M205.76 77.8945H197.824V79.7298H205.76V77.8945Z" fill="#E2E0F6"/>
<path d="M197.028 71.9445H189.092V73.7798H197.028V71.9445Z" fill="#E2E0F6"/>
<path d="M197.028 108.591H189.092V110.427H197.028V108.591Z" fill="#E2E0F6"/>
<path d="M208.074 71.9445H205.367V73.7798H208.074V71.9445Z" fill="#E2E0F6"/>
<path d="M212.248 71.9445H209.541V73.7798H212.248V71.9445Z" fill="#E2E0F6"/>
<path d="M197.028 116.93H189.092V118.765H197.028V116.93Z" fill="#E2E0F6"/>
<path d="M208.074 116.93H205.367V118.765H208.074V116.93Z" fill="#E2E0F6"/>
<path d="M212.248 116.93H209.541V118.765H212.248V116.93Z" fill="#E2E0F6"/>
<path d="M211.853 81.3388H197.824V83.1741H211.853V81.3388Z" fill="#E2E0F6"/>
<path d="M195.646 80.4086C195.646 81.0501 195.456 81.6771 195.1 82.2104C194.744 82.7438 194.237 83.1594 193.644 83.4049C193.052 83.6504 192.4 83.7146 191.771 83.5895C191.142 83.4643 190.564 83.1554 190.11 82.7019C189.657 82.2483 189.348 81.6704 189.222 81.0413C189.097 80.4122 189.162 79.7601 189.407 79.1675C189.652 78.5749 190.068 78.0684 190.602 77.712C191.135 77.3557 191.762 77.1655 192.403 77.1655C192.83 77.1644 193.252 77.2475 193.646 77.4101C194.04 77.5727 194.398 77.8115 194.699 78.1129C195 78.4143 195.239 78.7722 195.402 79.1662C195.564 79.5602 195.648 79.9824 195.646 80.4086Z" fill="#E2E0F6"/>
<path d="M205.76 88.4788H197.824V90.3141H205.76V88.4788Z" fill="#E2E0F6"/>
<path d="M211.853 91.9231H197.824V93.7584H211.853V91.9231Z" fill="#E2E0F6"/>
<path d="M195.646 90.9929C195.646 91.6343 195.456 92.2614 195.1 92.7947C194.744 93.328 194.237 93.7437 193.644 93.9892C193.052 94.2347 192.4 94.2989 191.771 94.1738C191.142 94.0486 190.564 93.7397 190.11 93.2862C189.657 92.8326 189.348 92.2547 189.222 91.6256C189.097 90.9965 189.162 90.3444 189.407 89.7518C189.652 89.1592 190.068 88.6527 190.602 88.2963C191.135 87.94 191.762 87.7497 192.403 87.7497C192.83 87.7486 193.252 87.8318 193.646 87.9944C194.04 88.1569 194.398 88.3958 194.699 88.6972C195 88.9985 195.239 89.3565 195.402 89.7505C195.564 90.1445 195.648 90.5667 195.646 90.9929Z" fill="#E2E0F6"/>
<path d="M205.76 99.0631H197.824V100.898H205.76V99.0631Z" fill="#E2E0F6"/>
<path d="M211.853 102.507H197.824V104.343H211.853V102.507Z" fill="#E2E0F6"/>
<path d="M195.646 101.577C195.646 102.219 195.456 102.846 195.1 103.379C194.744 103.912 194.237 104.328 193.644 104.573C193.052 104.819 192.4 104.883 191.771 104.758C191.142 104.633 190.564 104.324 190.11 103.87C189.657 103.417 189.348 102.839 189.222 102.21C189.097 101.581 189.162 100.929 189.407 100.336C189.652 99.7434 190.068 99.2369 190.602 98.8806C191.135 98.5242 191.762 98.334 192.403 98.334C192.83 98.3329 193.252 98.416 193.646 98.5786C194.04 98.7412 194.398 98.9801 194.699 99.2814C195 99.5828 195.239 99.9408 195.402 100.335C195.564 100.729 195.648 101.151 195.646 101.577Z" fill="#E2E0F6"/>
<path d="M205.76 123.676H197.824V125.511H205.76V123.676Z" fill="#E2E0F6"/>
<path d="M211.853 127.112H197.824V128.947H211.853V127.112Z" fill="#E2E0F6"/>
<path d="M195.579 122.603H189.227V128.955H195.579V122.603Z" fill="#E2E0F6"/>
<path d="M205.76 135.517H197.824V137.352H205.76V135.517Z" fill="#E2E0F6"/>
<path d="M211.853 138.962H197.824V140.797H211.853V138.962Z" fill="#E2E0F6"/>
<path d="M195.579 134.445H189.227V140.797H195.579V134.445Z" fill="#E2E0F6"/>
<path d="M181.792 70.9557H70.8711V105.432H181.792V70.9557Z" fill="#FFE2D7"/>
<path d="M156.844 76.9392H118.463V79.5371H156.844V76.9392Z" fill="#FF6C37"/>
<path d="M162.241 82.5037H118.463V84.4479H162.241V82.5037Z" fill="#FF6C37"/>
<path d="M156.509 87.0458H118.287V89.0068H156.509V87.0458Z" fill="#FF6C37"/>
<path d="M160.842 91.437H118.287V93.3813H160.842V91.437Z" fill="#FF6C37"/>
<path d="M127.799 96.1803H118.287V98.1245H127.799V96.1803Z" fill="#FF6C37"/>
<path d="M114.869 77.0733H76.2441V99.9095H114.869V77.0733Z" fill="#FF6C37"/>
<path d="M76.2441 77.0733L114.869 99.9095" stroke="white" stroke-width="0.331027" stroke-miterlimit="10"/>
<path d="M114.869 77.0733L76.2441 99.9095" stroke="white" stroke-width="0.331027" stroke-miterlimit="10"/>
<path d="M7.4082 46.5105C9.61396 47.4765 12.0835 47.6602 14.408 47.0313C16.7324 46.4023 18.7723 44.9983 20.1899 43.0517C21.6075 41.1052 22.3178 38.7329 22.2032 36.3276C22.0886 33.9223 21.1559 31.6283 19.5596 29.8253C17.959 28.0236 14.8499 26.909 13.266 28.7359C12.9352 29.1929 12.7002 29.7121 12.5749 30.2622C12.4496 30.8123 12.4367 31.382 12.5369 31.9372C12.742 33.3555 13.2297 34.7183 13.971 35.9447C14.7123 37.1711 15.6923 38.2363 16.8527 39.0772C19.1883 40.7486 21.905 41.8088 24.7554 42.1611C27.4552 42.6675 30.242 42.4299 32.8172 41.4739C34.0965 40.9861 35.2404 40.1989 36.1531 39.1783C37.0658 38.1577 37.7207 36.9334 38.0632 35.6077" stroke="#407BFF" stroke-width="0.498186" stroke-linecap="round" stroke-linejoin="round"/>
<path d="M241.268 63.1788L244.125 66.2627" stroke="#407BFF" stroke-width="0.498186" stroke-linecap="round" stroke-linejoin="round"/>
<path d="M223.074 92.0907L226.284 94.7975" stroke="#2D1D6A" stroke-width="0.498186" stroke-linecap="round" stroke-linejoin="round"/>
<path d="M21.6544 226.971L19.4336 243.354L24.4282 242.801L28.5932 228.915L21.6544 226.971Z" fill="#EEBCC4"/>
<path d="M47.4733 237.522L48.1353 242.374C48.2156 242.643 48.2012 242.931 48.0944 243.19C47.9876 243.45 47.7949 243.664 47.5487 243.799C46.9808 244.109 46.3322 244.24 45.6883 244.176C45.2106 244.134 44.5821 244.36 44.4229 243.916L43.3083 239.189C43.0233 238.41 43.7021 238.469 44.5318 238.427L45.9732 238.351C46.5514 238.318 47.314 236.977 47.4733 237.522Z" fill="#EEBCC4"/>
<path d="M43.3086 242.525V249.371L47.7585 249.464C47.7585 249.464 48.0183 248.785 48.3954 248.793C48.7725 248.802 49.1077 249.489 49.5351 249.497L51.9235 249.539L60.8485 249.723C60.8485 249.723 61.0664 248.718 60.8485 248.357C60.4404 248.059 59.984 247.832 59.4993 247.687C57.2115 246.933 50.7922 244.335 49.443 242.248C48.8899 241.41 48.7055 240.748 48.3368 241.134C46.6104 242.894 43.3086 242.525 43.3086 242.525Z" fill="black"/>
<path d="M18.881 241.41L18.043 249.648L22.4929 249.74C22.4929 249.74 22.7527 249.061 23.1298 249.07C23.5069 249.078 23.8421 249.765 24.2695 249.774L26.6579 249.824L35.5829 250C35.5829 250 35.8091 248.994 35.5829 248.634C35.1758 248.333 34.7191 248.106 34.2336 247.964C31.9458 247.209 25.8534 245.022 25.0154 242.525C24.7639 241.787 22.8784 242.173 22.2331 242.248C19.7106 242.525 18.881 241.41 18.881 241.41Z" fill="black"/>
<path d="M48.0524 239.189L43.3343 240.581L38.6162 223.368C38.457 221.691 37.9961 217.501 38.3397 215.867L40.0157 207.537L31.7695 173.941L47.7842 166.7C47.7842 166.7 51.8067 207.78 48.0524 239.189Z" fill="#FF6C37"/>
<path d="M47.6761 106.966C50.4416 110.318 46.352 116.31 47.2068 119.008C49.8801 127.497 41.2736 129.358 36.7399 126.215C34.8124 124.883 38.5165 116.997 37.8209 114.734C37.4286 113.628 37.3336 112.438 37.5454 111.284C37.7572 110.129 38.2683 109.051 39.0277 108.156C39.6857 107.496 40.4899 107 41.3751 106.709C42.2603 106.418 43.2017 106.339 44.1229 106.48C45.9687 106.799 47.6296 107.794 48.7823 109.27" fill="#151852"/>
<path d="M38.8343 118.941C40.3846 128.402 38.0717 138.844 31.2082 145.548C24.3448 152.253 12.6376 154.088 4.92773 148.389C2.774 146.797 0.880057 144.35 1.25717 141.685C1.59312 139.979 2.58644 138.474 4.02265 137.495C6.2106 135.864 8.93711 135.127 11.6487 135.433C7.97813 132.132 8.372 125.377 12.4029 122.536C14.917 120.76 18.1266 120.517 21.1352 119.963C24.4737 119.493 27.6421 118.196 30.3534 116.192C32.5994 114.374 33.7474 112.002 34.6106 109.312C37.3174 110.628 38.3231 116.1 38.8343 118.941Z" fill="#151852"/>
<path d="M43.5267 151.892C43.5267 152.035 42.8562 152.202 42.0182 152.269L32.4731 153.015C31.6351 153.091 30.9311 153.015 30.9228 152.881L30.8809 152.336C30.8809 152.194 31.5429 152.018 32.3809 151.959L41.926 151.205C42.7641 151.138 43.468 151.205 43.4764 151.348L43.5267 151.892Z" fill="#1A1714"/>
<path d="M63.1367 129.651L71.5589 125.05L75.1624 121.866C75.7338 121.496 76.4008 121.301 77.0815 121.304L79.7715 121.053C79.6877 120.961 80.2157 121.145 80.2576 121.17L82.0761 121.966C82.1306 121.988 82.1772 122.026 82.2101 122.074C82.243 122.123 82.2606 122.18 82.2606 122.239C82.2606 122.297 82.243 122.355 82.2101 122.403C82.1772 122.452 82.1306 122.489 82.0761 122.511L79.1262 123.399C78.7501 123.513 78.4013 123.702 78.1015 123.956C77.8016 124.209 77.5571 124.522 77.3832 124.874L77.3245 124.983C77.3001 125.034 77.2881 125.089 77.2896 125.146C77.291 125.202 77.3059 125.257 77.333 125.306C77.3601 125.355 77.3985 125.397 77.4452 125.429C77.4918 125.46 77.5453 125.48 77.6011 125.486L79.2771 125.67C79.4059 125.686 79.5252 125.746 79.6149 125.84C79.7045 125.934 79.7588 126.056 79.7687 126.185C79.7786 126.314 79.7434 126.443 79.669 126.549C79.5947 126.656 79.4858 126.733 79.3609 126.768L77.3999 127.305C77.1978 127.358 76.9883 127.377 76.7798 127.363L72.7154 127.162L65.5921 132.542C65.2569 132.777 63.1367 129.768 63.1367 129.651Z" fill="white" stroke="#2D1D6A" stroke-width="0.242115" stroke-miterlimit="10"/>
<path d="M77.8945 122.762L81.9254 121.966" stroke="#2D1D6A" stroke-width="0.242115" stroke-miterlimit="10"/>
<path d="M77.6016 122.126L81.2135 121.589" stroke="#2D1D6A" stroke-width="0.242115" stroke-miterlimit="10"/>
<path d="M76.8809 121.732L80.4844 121.195" stroke="#2D1D6A" stroke-width="0.242115" stroke-miterlimit="10"/>
<path d="M29.8594 129.433C29.8594 128.26 31.1416 125.159 35.7256 125.603C45.9662 126.601 55.7544 132.517 55.7544 132.517C55.7544 132.517 58.1009 135.576 57.179 137.872C55.8633 141.132 51.6983 138.71 35.4658 135.174C30.7728 134.16 29.9264 131.394 29.8594 129.433Z" fill="black"/>
<path d="M71.2735 131.403C70.9326 129.859 70.1796 128.437 69.0947 127.288C64.9464 128.696 59.2981 130.699 55.3762 132.995C53.918 133.833 53.9599 138.702 54.9069 139.313C55.8538 139.925 63.5302 136.179 66.6392 134.227C68.2985 133.179 70.3685 132.366 71.2735 131.403Z" fill="black"/>
<path d="M50.34 113.98C49.9881 118.841 45.3119 121.891 40.7782 121.522C36.2444 121.153 32.8253 116.98 33.1773 112.128C33.5292 107.276 37.5099 103.605 42.0603 103.932C46.6108 104.259 50.7004 109.153 50.34 113.98Z" fill="#151852"/>
<path d="M29.834 126.969C29.834 126.969 33.1274 134.109 37.6276 135.484C42.1278 136.858 44.3821 136.045 45.1699 134.26C45.9576 132.475 46.2342 128.847 45.2537 127.858C44.1608 126.806 43.2889 125.547 42.6893 124.154C42.044 122.712 42.4546 120.198 43.1167 118.287C43.7787 116.377 45.3626 116.352 43.8625 115.321C42.3625 114.29 43.0832 113.427 41.4909 113.569C39.8987 113.712 39.0355 113.067 38.9182 114.567C38.7254 117.315 38.6668 121.179 37.0075 122.838C35.1638 124.656 32.9095 125.151 29.834 126.969Z" fill="#EEBCC4"/>
<path d="M44.885 107.795C44.7542 107.743 44.6197 107.701 44.4827 107.67C43.7889 109.678 42.3971 111.37 40.5608 112.438C40.0684 112.755 39.553 113.036 39.0188 113.276L38.9015 114.793C38.8478 115.905 39.2309 116.994 39.969 117.827C40.7071 118.66 41.7417 119.172 42.8519 119.253C43.9621 119.334 45.06 118.978 45.9112 118.26C46.7623 117.543 47.2993 116.521 47.4074 115.413L47.6505 111.994C46.3574 110.878 45.4 109.424 44.885 107.795Z" fill="#EEBCC4"/>
<path d="M45.8402 110.997C45.7383 110.989 45.6361 111.004 45.5406 111.04C45.4451 111.077 45.3586 111.133 45.2871 111.206C45.3187 111.253 45.361 111.292 45.4105 111.32C45.46 111.347 45.5154 111.363 45.572 111.365C45.6836 111.374 45.7957 111.374 45.9072 111.365C46.0184 111.349 46.1313 111.349 46.2424 111.365C46.2924 111.374 46.3433 111.374 46.3933 111.365C46.6447 111.365 46.3933 111.164 46.343 111.122C46.1886 111.039 46.0157 110.996 45.8402 110.997Z" fill="#282E53"/>
<path d="M45.43 112.706C45.4402 112.712 45.4517 112.715 45.4635 112.715C45.4753 112.715 45.4868 112.712 45.497 112.706C45.5463 112.652 45.6074 112.609 45.6756 112.581C45.7439 112.554 45.8175 112.542 45.8909 112.547C45.9629 112.552 46.0327 112.574 46.0951 112.61C46.1575 112.647 46.2109 112.697 46.2512 112.756C46.2575 112.764 46.2653 112.769 46.2739 112.773C46.2826 112.777 46.292 112.779 46.3015 112.779C46.311 112.779 46.3204 112.777 46.3291 112.773C46.3378 112.769 46.3455 112.764 46.3518 112.756C46.362 112.743 46.3675 112.727 46.3675 112.71C46.3675 112.694 46.362 112.677 46.3518 112.664C46.298 112.588 46.2281 112.524 46.147 112.478C46.0659 112.432 45.9756 112.404 45.8825 112.396C45.7888 112.387 45.6943 112.401 45.6069 112.436C45.5195 112.471 45.4416 112.526 45.3797 112.597C45.3679 112.61 45.3613 112.626 45.3613 112.643C45.3613 112.66 45.3679 112.677 45.3797 112.689L45.43 112.706Z" fill="#282E53"/>
<path d="M42.9649 111.114C42.7571 111.035 42.5274 111.035 42.3197 111.114C42.1856 111.189 42.0766 111.332 41.9258 111.357C41.948 111.27 41.9908 111.189 42.0506 111.122C42.1104 111.055 42.1854 111.004 42.2694 110.971C42.4366 110.912 42.6117 110.878 42.7889 110.871C43.0152 110.871 43.5432 110.678 43.627 110.988C43.7108 111.298 43.1577 111.173 42.9649 111.114Z" fill="#282E53"/>
<path d="M42.4123 112.74H42.4709C42.583 112.64 42.7185 112.571 42.8648 112.539C42.9414 112.519 43.0217 112.52 43.098 112.54C43.1744 112.561 43.2441 112.601 43.3006 112.656C43.3144 112.668 43.3323 112.675 43.3509 112.675C43.3694 112.675 43.3873 112.668 43.4011 112.656C43.4129 112.643 43.4195 112.627 43.4195 112.61C43.4195 112.593 43.4129 112.576 43.4011 112.564C43.3297 112.488 43.2392 112.432 43.139 112.402C43.0388 112.373 42.9326 112.371 42.8313 112.396C42.663 112.437 42.5057 112.514 42.3704 112.622C42.3632 112.629 42.3575 112.636 42.3536 112.645C42.3497 112.654 42.3477 112.663 42.3477 112.673C42.3477 112.682 42.3497 112.692 42.3536 112.7C42.3575 112.709 42.3632 112.717 42.3704 112.723L42.4123 112.74Z" fill="#282E53"/>
<path d="M44.4649 115.053C44.6048 115.075 44.748 115.055 44.8764 114.995C45.0048 114.935 45.1124 114.839 45.1856 114.717C45.1926 114.712 45.1983 114.705 45.2021 114.697C45.206 114.689 45.208 114.68 45.208 114.671C45.208 114.662 45.206 114.654 45.2021 114.646C45.1983 114.638 45.1926 114.631 45.1856 114.625C45.1732 114.613 45.1567 114.607 45.1395 114.607C45.1224 114.607 45.1059 114.613 45.0935 114.625C45.0284 114.722 44.9372 114.799 44.8304 114.846C44.7237 114.894 44.6057 114.91 44.4901 114.893C44.4807 114.891 44.4708 114.891 44.4612 114.892C44.4517 114.894 44.4426 114.898 44.4346 114.903C44.4266 114.909 44.42 114.916 44.4151 114.925C44.4102 114.933 44.4072 114.942 44.4063 114.952C44.4058 114.969 44.4115 114.986 44.4222 115C44.4328 115.014 44.448 115.024 44.4649 115.027V115.053Z" fill="#282E53"/>
<path d="M44.1799 117.399C44.3332 117.427 44.4913 117.406 44.6325 117.34C44.6442 117.328 44.6508 117.311 44.6508 117.294C44.6508 117.277 44.6442 117.261 44.6325 117.248C44.6192 117.238 44.603 117.233 44.5863 117.233C44.5697 117.233 44.5535 117.238 44.5403 117.248C44.4303 117.292 44.3118 117.309 44.1939 117.299C44.0761 117.289 43.9623 117.251 43.8615 117.19C43.6517 117.056 43.4789 116.871 43.3586 116.653C43.3497 116.638 43.3351 116.626 43.3178 116.622C43.3005 116.617 43.282 116.619 43.2665 116.628C43.2509 116.637 43.2395 116.652 43.2348 116.669C43.2301 116.686 43.2324 116.705 43.2413 116.72C43.3714 116.961 43.5621 117.163 43.7944 117.307C43.9143 117.366 44.0461 117.398 44.1799 117.399Z" fill="#F89A7A"/>
<path d="M44.155 153.25C44.155 153.409 43.4176 153.593 42.479 153.669L31.8444 154.507C30.9058 154.574 30.1684 154.507 30.1181 154.348L30.0762 153.744C30.0762 153.585 30.8136 153.392 31.7522 153.317L42.3784 152.479C43.317 152.412 44.0545 152.479 44.1047 152.638L44.155 153.25Z" fill="#1A1714"/>
<path d="M49.4187 136.531C48.9662 131.503 47.2566 130.162 45.4213 127.908C44.9604 127.338 43.2341 125.335 42.9072 124.807C46.6616 134.143 36.8483 129.794 33.5046 125.302C28.6943 126.14 26.3227 129.76 26.3479 130.078C26.6998 133.548 31.2 147.476 31.2 147.476C31.3509 148.867 30.2363 153.124 29.4066 156.694L44.1391 152.655C45.0945 152.588 46.2677 141.216 46.2677 141.216C46.2563 141.097 46.2367 140.98 46.2091 140.864C47.089 139.565 49.5696 138.182 49.4187 136.531Z" fill="black"/>
<path d="M44.9774 151.733C44.9774 151.733 44.1394 153.493 38.5917 153.954C35.2396 154.23 30.2617 153.116 30.2617 153.116C30.2617 153.116 28.6611 157.306 28.0074 159.049C26.5445 162.993 25.5898 167.107 25.1665 171.293C25.1133 172.093 25.147 172.896 25.2671 173.689L28.3175 198.093L23.8759 208.367C23.1971 209.884 22.1244 211.987 21.9317 213.638L19.7109 239.181L25.8202 240.296C29.1723 230.466 35.8262 216.362 39.1448 201.143C41.1826 191.637 42.4798 181.988 43.0248 172.281L48.053 170.061L47.7932 169.223C47.9578 168.886 48.0465 168.517 48.053 168.142C48.3128 158.395 45.7819 153.208 44.9774 151.733Z" fill="#FF6C37"/>
<path d="M35.1393 160.733C34.9334 162.533 34.1635 164.221 32.9397 165.556C31.7159 166.892 30.1009 167.805 28.3262 168.167" stroke="#2D1D6A" stroke-width="0.498186" stroke-linecap="round" stroke-linejoin="round"/>
<path d="M170.652 103.074L60.7129 117.802L65.2905 151.973L175.23 137.245L170.652 103.074Z" fill="#FFE2D7"/>
<path d="M146.727 112.317L108.686 117.413L109.03 119.988L147.072 114.891L146.727 112.317Z" fill="#FF6C37"/>
<path d="M152.815 117.122L109.424 122.935L109.682 124.862L153.073 119.049L152.815 117.122Z" fill="#FF6C37"/>
<path d="M147.728 122.39L109.844 127.465L110.104 129.409L147.988 124.334L147.728 122.39Z" fill="#FF6C37"/>
<path d="M152.608 126.171L110.43 131.822L110.688 133.749L152.866 128.098L152.608 126.171Z" fill="#FF6C37"/>
<path d="M120.488 135.246L111.061 136.509L111.319 138.436L120.746 137.173L120.488 135.246Z" fill="#FF6C37"/>
<path d="M105.144 118.037L66.8613 123.166L69.8934 145.8L108.176 140.671L105.144 118.037Z" fill="#FF6C37"/>
<path d="M66.8418 123.181L108.156 140.688" stroke="white" stroke-width="0.331027" stroke-miterlimit="10"/>
<path d="M105.122 118.061L69.875 145.817" stroke="white" stroke-width="0.331027" stroke-miterlimit="10"/>
<path d="M60.4467 144.065L68.9443 139.607L73.5869 138.367C74.2131 138.099 74.7465 137.653 75.1205 137.084L76.7966 134.981C76.7966 135.098 76.9725 134.562 76.9809 134.512L77.3162 132.551C77.3278 132.492 77.3208 132.431 77.296 132.377C77.2712 132.322 77.23 132.277 77.1781 132.248C77.1262 132.218 77.0663 132.205 77.0068 132.212C76.9474 132.218 76.8914 132.243 76.8468 132.282L74.4668 134.243C74.1644 134.495 73.8133 134.681 73.4355 134.791C73.0577 134.901 72.6613 134.931 72.2712 134.88H72.1455C72.0891 134.874 72.0351 134.854 71.9884 134.821C71.9418 134.789 71.9039 134.745 71.8781 134.695C71.8524 134.644 71.8396 134.588 71.8409 134.531C71.8423 134.474 71.8577 134.419 71.8857 134.369L72.6567 132.886C72.7215 132.757 72.735 132.608 72.6946 132.47C72.6542 132.332 72.5628 132.214 72.4388 132.14C72.3364 132.083 72.2195 132.059 72.103 132.069C71.9866 132.08 71.8759 132.125 71.7852 132.199L70.2516 133.539C70.0958 133.678 69.9654 133.842 69.8661 134.026L67.771 137.52L59.3489 140.462C59.0137 140.571 60.3461 144.006 60.4467 144.065Z" fill="#EEBCC4"/>
<path d="M74.3496 135.601L77.2492 132.685" stroke="#2D1D6A" stroke-width="0.242115" stroke-miterlimit="10"/>
<path d="M74.7188 136.196L77.1658 133.489" stroke="#2D1D6A" stroke-width="0.242115" stroke-miterlimit="10"/>
<path d="M74.6426 137.017L77.0812 134.31" stroke="#2D1D6A" stroke-width="0.242115" stroke-miterlimit="10"/>
<path d="M26.021 130.808C26.3897 129.693 29.5239 125.385 32.5492 127.623C38.5172 132.164 44.1032 137.187 49.251 142.64C49.251 142.64 50.3991 146.319 48.7315 148.155C46.3766 150.761 42.5385 147.861 29.2474 138.936C25.2667 136.271 25.426 132.676 26.021 130.808Z" fill="black"/>
<path d="M63.6896 143.311C63.5685 141.736 63.0146 140.225 62.089 138.945C57.7983 139.783 51.9321 140.981 47.7336 142.733C46.1665 143.378 45.5463 148.188 46.4011 148.926C47.2559 149.663 55.3764 146.99 58.7033 145.481C60.5051 144.635 62.6672 144.149 63.6896 143.311Z" fill="black"/>
<path d="M28.6435 172.147C29.5989 180.382 30.5514 188.617 31.5012 196.852C31.7495 198.388 31.7889 199.949 31.6185 201.495C31.2498 203.917 29.8922 206.046 28.7022 208.199C23.9841 216.663 22.2326 227.222 21.7969 237.044" stroke="#2D1D6A" stroke-width="0.498186" stroke-linecap="round" stroke-linejoin="round"/>
<path d="M216.495 200.297H60.5472C60.2938 200.297 60.0508 200.196 59.8717 200.017C59.6925 199.838 59.5918 199.595 59.5918 199.341C59.5907 199.215 59.6146 199.09 59.6621 198.973C59.7097 198.856 59.7799 198.75 59.8687 198.66C59.9575 198.571 60.0632 198.5 60.1796 198.451C60.2961 198.403 60.421 198.378 60.5472 198.378H216.495C216.622 198.378 216.747 198.403 216.863 198.451C216.98 198.5 217.085 198.571 217.174 198.66C217.263 198.75 217.333 198.856 217.381 198.973C217.428 199.09 217.452 199.215 217.451 199.341C217.451 199.595 217.35 199.838 217.171 200.017C216.992 200.196 216.749 200.297 216.495 200.297Z" fill="#455A64"/>
<path d="M205.257 205.677H90.9339C90.6805 205.677 90.4375 205.576 90.2583 205.397C90.0792 205.218 89.9785 204.975 89.9785 204.721C89.9785 204.468 90.0792 204.225 90.2583 204.046C90.4375 203.867 90.6805 203.766 90.9339 203.766H205.257C205.511 203.766 205.754 203.867 205.933 204.046C206.112 204.225 206.213 204.468 206.213 204.721C206.213 204.975 206.112 205.218 205.933 205.397C205.754 205.576 205.511 205.677 205.257 205.677Z" fill="#455A64"/>
<path d="M214.459 172.651L192.094 181.08L203.921 212.463L226.286 204.034L214.459 172.651Z" fill="white"/>
<path d="M214.401 172.809L226.133 204.017L203.942 212.398L192.21 181.19L214.401 172.809ZM214.51 172.566L191.967 181.022L203.858 212.591L226.401 204.093L214.51 172.533V172.566Z" fill="black"/>
<path d="M195.629 183.276L213.219 176.648" stroke="black" stroke-width="0.22619" stroke-miterlimit="10"/>
<path d="M196.693 186.109L214.292 179.48" stroke="black" stroke-width="0.22619" stroke-miterlimit="10"/>
<path d="M197.758 188.941L215.356 182.313" stroke="black" stroke-width="0.22619" stroke-miterlimit="10"/>
<path d="M198.822 191.774L216.421 185.137" stroke="black" stroke-width="0.22619" stroke-miterlimit="10"/>
<path d="M199.895 194.598L217.485 187.969" stroke="black" stroke-width="0.22619" stroke-miterlimit="10"/>
<path d="M200.959 197.431L218.558 190.802" stroke="black" stroke-width="0.22619" stroke-miterlimit="10"/>
<path d="M202.023 200.263L219.622 193.634" stroke="black" stroke-width="0.22619" stroke-miterlimit="10"/>
<path d="M203.088 203.096L220.686 196.467" stroke="black" stroke-width="0.22619" stroke-miterlimit="10"/>
<path d="M204.16 205.92L221.75 199.291" stroke="black" stroke-width="0.22619" stroke-miterlimit="10"/>
<path d="M205.225 208.752L222.823 202.124" stroke="black" stroke-width="0.22619" stroke-miterlimit="10"/>
<path d="M240.06 101.502C228.412 104.41 224.976 119.26 219.328 136.313C216.327 145.423 214.911 152.965 213.587 163.968L209.104 170.832C208.849 171.133 208.662 171.486 208.557 171.867C208.451 172.247 208.429 172.646 208.492 173.036L208.592 177.142C208.442 177.041 208.81 177.796 208.852 177.863L210.386 180.461C210.428 180.546 210.497 180.615 210.582 180.658C210.667 180.701 210.764 180.716 210.858 180.7C210.952 180.684 211.038 180.638 211.104 180.57C211.17 180.501 211.212 180.413 211.224 180.318L212.062 175.701C212.166 175.109 212.391 174.546 212.723 174.046C213.054 173.545 213.485 173.119 213.989 172.793L214.14 172.692C214.213 172.642 214.298 172.611 214.386 172.601C214.474 172.591 214.563 172.602 214.645 172.634C214.728 172.666 214.802 172.718 214.86 172.785C214.918 172.852 214.958 172.933 214.978 173.019L215.548 175.533C215.594 175.748 215.723 175.935 215.907 176.056C216.09 176.177 216.313 176.221 216.529 176.178C216.705 176.149 216.868 176.065 216.994 175.937C217.119 175.808 217.2 175.643 217.224 175.466L217.685 172.399C217.735 172.088 217.735 171.771 217.685 171.46L216.696 165.594C225.68 150.141 230.398 143.805 234.496 130.489C237.186 121.438 243.312 104.669 240.06 101.502Z" fill="#EEBCC4"/>
<path d="M237.774 240.053L237.372 245.282L233.106 245.148C233.106 245.148 232.897 244.486 232.536 244.477C232.176 244.469 231.816 245.106 231.405 245.089L229.117 245.022L220.561 244.712C220.561 244.712 220.402 243.74 220.645 243.413C221.05 243.14 221.501 242.944 221.977 242.835C224.198 242.223 230.567 240.321 231.74 237.999C233.157 235.251 237.774 240.053 237.774 240.053Z" fill="#2D1D6A"/>
<path d="M220.56 243.648C220.501 244.011 220.501 244.382 220.56 244.746L229.116 245.022L231.404 245.089C231.815 245.089 232.242 244.469 232.535 244.477C232.829 244.486 233.105 245.148 233.105 245.148L237.371 245.282L237.597 244.192L220.56 243.648Z" fill="#2D1D6A"/>
<path d="M230.668 239.508L237.682 240.053L239.634 208.208C239.654 206.207 239.371 204.216 238.796 202.3L236.232 193.802L238 180.502L236.081 157.976L222.086 145.49C221.064 145.029 222.798 202.224 230.668 239.508Z" fill="black"/>
<path d="M271.26 246.388C271.412 246.988 271.412 247.616 271.26 248.215C271.26 248.215 264.673 248.81 262.578 248.215C261.76 247.878 260.986 247.442 260.274 246.916C260.123 246.824 259.888 246.254 259.746 246.162C259.603 246.07 259.335 246.262 259.117 246.103C258.772 245.861 258.445 245.595 258.137 245.307C257.676 241.955 258.48 240.648 258.48 240.648C258.48 240.648 262.746 238.737 263.751 240.195C266.148 243.597 270.38 244.754 271.26 246.388Z" fill="#2D1D6A"/>
<path d="M271.545 247.268C269.174 247.538 266.79 247.67 264.405 247.662C262.013 247.109 259.811 245.929 258.027 244.243C258.047 244.703 258.094 245.162 258.17 245.617C258.485 245.875 258.818 246.11 259.167 246.321C259.385 246.464 259.536 246.212 259.796 246.38C260.055 246.547 260.181 246.958 260.332 247.05C261.065 247.518 261.85 247.901 262.67 248.19C264.782 248.743 271.419 248.249 271.419 248.249C271.499 247.928 271.542 247.599 271.545 247.268Z" fill="#2D1D6A"/>
<path d="M249.672 152.387L240.144 149.596V149.529L238.702 148.431L222.361 143.613C222.361 143.613 221.682 145.104 222.076 154.507L231.705 161.982C234.403 170.982 237.345 181.701 241.761 190.073C243.961 194.295 245.271 198.925 245.608 203.674C246.722 218.666 258.555 240.547 258.555 240.547L264.983 240.757L249.672 152.387Z" fill="black"/>
<path d="M235.275 164.681C237.481 172.307 240.478 179.683 244.217 186.687C245.183 188.357 246.023 190.097 246.731 191.891C247.437 194.129 247.923 196.431 248.181 198.763C250.189 212.038 253.539 225.074 258.179 237.673" stroke="white" stroke-width="0.498186" stroke-miterlimit="10"/>
<path d="M223.795 122.913C225.028 123.684 226.34 124.322 227.708 124.816C230.114 125.696 231.899 126.198 231.899 126.198L240.564 101.41C240.564 101.41 240.564 100.53 236.935 102.298C233.307 104.066 232.527 103.974 228.597 110.762C226.337 114.52 224.714 118.626 223.795 122.913Z" fill="#407BFF"/>
<path d="M250.854 102.516C250.854 102.516 238.761 96.0881 231.152 108.667C223.543 121.246 221.641 147.442 221.641 147.442L250.083 152.931L254.047 120.575C254.047 120.575 254.944 104.393 250.854 102.516Z" fill="#407BFF"/>
<path d="M237.998 96.9261C237.28 96.9359 236.575 96.7349 235.97 96.3479C233.674 92.6606 236.917 83.149 236.917 83.149L240.923 81.674L245.775 85.0261V91.4957C245.764 92.3667 245.536 93.2212 245.112 93.982C244.687 94.7428 244.08 95.386 243.345 95.8534C241.693 96.6889 239.845 97.0596 237.998 96.9261Z" fill="#F8B791"/>
<path d="M238.854 129.534H232.46L231.035 116.595H240.044L238.854 129.534Z" fill="#ECBB95"/>
<path d="M239.549 125.126L231.68 125.084L231.094 119.31H240.094L239.549 125.126Z" fill="#5425CD"/>
<path d="M240.345 116.109H230.75V116.812H240.345V116.109Z" fill="#5425CD"/>
<path d="M262.688 125.394C260.35 125.923 257.974 126.273 255.582 126.441C253.142 126.605 250.691 126.43 248.3 125.922L250.42 134.646L240.456 129.534L240.724 122.26L234.095 120.005C233.998 119.973 233.895 119.96 233.792 119.968C233.69 119.976 233.59 120.004 233.499 120.051C233.408 120.097 233.327 120.162 233.261 120.241C233.195 120.319 233.145 120.41 233.115 120.508L232.276 123.24C232.214 123.444 232.21 123.661 232.265 123.867C232.32 124.073 232.431 124.259 232.587 124.405L238.009 129.525L237.523 136.431C237.523 136.431 257.191 153.577 259.998 153.962C262.806 154.348 265.027 154.582 264.8 143.168C264.559 137.198 263.853 131.255 262.688 125.394Z" fill="#EEBCC4"/>
<path d="M255.732 126.55C258.146 126.385 260.544 126.035 262.905 125.503C261.229 116.921 258.849 108.834 256.394 106.295C248.433 98.0658 238.854 101.577 239.298 101.711H239.357L247.804 123.626L248.382 125.997C250.794 126.525 253.268 126.711 255.732 126.55Z" fill="#407BFF"/>
<path d="M244.721 111.659L250.419 134.646" stroke="#2D1D6A" stroke-width="0.498186" stroke-miterlimit="10"/>
<path d="M240.303 129.383C240.169 129.609 239.951 133.389 239.951 133.389L242.298 130.472L240.303 129.383Z" fill="#2D1D6A"/>
<path d="M241.041 154.356C241.703 155.808 242.713 157.073 243.982 158.04C245.251 159.006 246.74 159.644 248.315 159.895" stroke="white" stroke-width="0.498186" stroke-miterlimit="10"/>
<path d="M233.918 121.296L238.988 123.198" stroke="#2D1D6A" stroke-width="0.498186" stroke-linecap="round" stroke-linejoin="round"/>
<path d="M233.818 122.209L238.671 124.615" stroke="#2D1D6A" stroke-width="0.498186" stroke-linecap="round" stroke-linejoin="round"/>
<path d="M233.5 123.424L238.352 125.83" stroke="#2D1D6A" stroke-width="0.498186" stroke-linecap="round" stroke-linejoin="round"/>
<path d="M246.422 94.3031L246.246 91.4622L241 95.4847L240.824 97.6301L240.564 101.435C240.615 102.96 241.453 104.401 242.97 104.535L243.69 104.628C245.811 104.586 247.327 102.952 246.917 101.016L246.422 94.3031Z" fill="#EEBCC4"/>
<path d="M237.998 96.9261C237.28 96.9359 236.575 96.7349 235.97 96.3479C233.674 92.6606 236.917 83.149 236.917 83.149L240.923 81.674L245.775 85.0261V91.4957C245.764 92.3667 245.536 93.2212 245.112 93.982C244.687 94.7428 244.08 95.386 243.345 95.8534C241.693 96.6889 239.845 97.0596 237.998 96.9261Z" fill="#EEBCC4"/>
<path d="M236.793 85.6044C236.927 85.6139 237.058 85.6535 237.176 85.7202C237.293 85.7869 237.394 85.879 237.471 85.9899C237.42 86.0432 237.357 86.0838 237.287 86.1085C237.217 86.1332 237.143 86.1414 237.069 86.1323C236.922 86.1137 236.776 86.0829 236.633 86.0402C236.489 86.0195 236.342 86.0195 236.198 86.0402C236.134 86.0487 236.069 86.0487 236.005 86.0402C235.678 85.9396 236.005 85.772 236.114 85.7217C236.326 85.6234 236.56 85.5829 236.793 85.6044Z" fill="#282E53"/>
<path d="M236.977 87.909C236.965 87.9143 236.953 87.917 236.94 87.917C236.927 87.917 236.914 87.9143 236.902 87.909C236.849 87.8293 236.778 87.7625 236.696 87.7134C236.613 87.6644 236.521 87.6344 236.425 87.6256C236.33 87.6167 236.233 87.6293 236.143 87.6624C236.053 87.6955 235.972 87.7482 235.905 87.8168C235.889 87.8334 235.868 87.8432 235.845 87.844C235.822 87.8448 235.8 87.8365 235.783 87.821C235.767 87.8054 235.757 87.7839 235.756 87.7611C235.755 87.7383 235.763 87.7161 235.779 87.6994C235.862 87.6082 235.965 87.5379 236.08 87.4942C236.195 87.4505 236.319 87.4347 236.441 87.448C236.563 87.4597 236.681 87.498 236.787 87.5602C236.893 87.6225 236.983 87.7072 237.053 87.8084C237.068 87.8241 237.077 87.8451 237.077 87.867C237.077 87.889 237.068 87.91 237.053 87.9257C237.04 87.9325 237.026 87.9346 237.012 87.9315C236.998 87.9284 236.986 87.9204 236.977 87.909Z" fill="#282E53"/>
<path d="M240.506 86.3251C240.791 86.2586 241.091 86.3036 241.344 86.4508C241.512 86.5765 241.612 86.786 241.813 86.8447C241.799 86.7289 241.759 86.618 241.695 86.5206C241.631 86.4232 241.545 86.3419 241.445 86.2832C241.24 86.1691 241.02 86.0872 240.791 86.0402C240.489 85.9647 239.844 85.6379 239.693 86.0402C239.542 86.4424 240.238 86.367 240.506 86.3251Z" fill="#282E53"/>
<path d="M240.9 88.5542C240.878 88.5619 240.854 88.5619 240.833 88.5542C240.705 88.4027 240.541 88.2871 240.355 88.219C240.259 88.1763 240.154 88.1592 240.05 88.1695C239.945 88.1798 239.846 88.2171 239.76 88.2777C239.742 88.2867 239.721 88.2894 239.701 88.2854C239.681 88.2815 239.663 88.271 239.65 88.2558C239.636 88.2405 239.628 88.2212 239.627 88.2009C239.626 88.1806 239.631 88.1605 239.643 88.1436C239.751 88.0598 239.88 88.0069 240.015 87.9907C240.151 87.9744 240.289 87.9954 240.414 88.0514C240.629 88.129 240.82 88.262 240.967 88.4369C240.976 88.4448 240.983 88.4545 240.988 88.4653C240.993 88.4761 240.995 88.4879 240.995 88.4998C240.995 88.5117 240.993 88.5234 240.988 88.5342C240.983 88.5451 240.976 88.5548 240.967 88.5626C240.956 88.5665 240.944 88.5678 240.932 88.5664C240.921 88.5649 240.909 88.5608 240.9 88.5542Z" fill="#282E53"/>
<path d="M237.764 91.1521C237.585 91.1436 237.411 91.0849 237.263 90.9827C237.115 90.8805 236.998 90.7389 236.926 90.5739C236.911 90.5582 236.902 90.5372 236.902 90.5152C236.902 90.4933 236.911 90.4722 236.926 90.4566C236.937 90.4512 236.949 90.4482 236.961 90.4478C236.973 90.4475 236.985 90.4498 236.997 90.4546C237.008 90.4594 237.018 90.4665 237.026 90.4755C237.034 90.4846 237.04 90.4953 237.044 90.5068C237.111 90.6441 237.214 90.7604 237.343 90.8431C237.471 90.9258 237.62 90.9718 237.773 90.9761C237.794 90.978 237.815 90.9875 237.83 91.0028C237.845 91.0181 237.855 91.0383 237.856 91.0599C237.858 91.0716 237.856 91.0834 237.853 91.0946C237.849 91.1057 237.843 91.116 237.835 91.1247C237.827 91.1334 237.818 91.1403 237.807 91.145C237.796 91.1498 237.784 91.1522 237.773 91.1521H237.764Z" fill="#282E53"/>
<path d="M237.673 94.2612C237.465 94.2638 237.262 94.2055 237.087 94.0936C237.071 94.0786 237.061 94.0586 237.059 94.0372C237.057 94.0158 237.062 93.9943 237.074 93.9763C237.086 93.9584 237.104 93.9452 237.125 93.9391C237.145 93.933 237.167 93.9343 237.187 93.9427C237.322 94.0214 237.473 94.0676 237.629 94.0778C237.784 94.088 237.94 94.0618 238.084 94.0014C238.383 93.8651 238.645 93.658 238.846 93.398C238.863 93.3821 238.886 93.3733 238.909 93.3733C238.933 93.3733 238.955 93.3821 238.972 93.398C238.981 93.4059 238.988 93.4156 238.993 93.4264C238.998 93.4372 239.001 93.449 239.001 93.4609C239.001 93.4728 238.998 93.4845 238.993 93.4954C238.988 93.5062 238.981 93.5159 238.972 93.5237C238.752 93.8079 238.463 94.0326 238.134 94.1774C237.986 94.2313 237.83 94.2597 237.673 94.2612Z" fill="#F89A7A"/>
<path d="M248.609 78.8667C248.356 78.7752 248.088 78.7348 247.82 78.7477C247.552 78.7607 247.289 78.8268 247.046 78.9421C246.804 79.0575 246.587 79.2199 246.408 79.4198C246.228 79.6198 246.091 79.8533 246.003 80.1069C246.039 79.2555 245.776 78.4182 245.258 77.7412C244.74 77.0643 244.001 76.5906 243.17 76.4029C242.591 76.3221 242 76.4013 241.463 76.6317C240.925 76.8621 240.461 77.235 240.12 77.7102C239.843 77.5761 239.566 77.4588 239.282 77.3498C238.729 77.1314 238.141 77.015 237.547 77.0062C236.654 76.9021 235.755 77.1418 235.033 77.6767C234.79 77.8634 234.578 78.0867 234.404 78.3387C233.723 78.9452 233.295 79.7859 233.206 80.6936C233.047 84.0457 237.002 84.7747 239.173 85.2189C240.648 85.5122 242.29 85.7804 243.53 85.9312C243.999 86.8087 244.411 87.7157 244.762 88.6464L245.6 92.5432C246.539 91.7555 248.424 90.9845 249.095 89.9621C250.302 88.2467 250.936 86.1934 250.905 84.0959C250.997 81.9925 250.151 79.4198 248.609 78.8667Z" fill="#2D1D6A"/>
<path d="M245.466 91.8728C246.057 91.6272 246.568 91.2208 246.941 90.6996C247.17 90.4051 247.295 90.0423 247.295 89.6688C247.295 89.2953 247.17 88.9325 246.941 88.638C246.463 88.1771 245.466 88.3447 244.586 89.2247" fill="white"/>
<path d="M245.466 91.8728C246.057 91.6272 246.568 91.2208 246.941 90.6996C247.17 90.4051 247.295 90.0423 247.295 89.6688C247.295 89.2953 247.17 88.9325 246.941 88.638C246.463 88.1771 245.466 88.3447 244.586 89.2247" stroke="#2D1D6A" stroke-width="0.498186" stroke-miterlimit="10"/>
<path d="M246.982 101.041C250.544 102.306 254.282 103.689 256.729 106.572C258.472 108.633 259.377 111.265 260.081 113.871C261.095 117.617 262.335 121.581 262.67 125.461" stroke="#2D1D6A" stroke-width="0.498186" stroke-miterlimit="10"/>
<path d="M235.711 178.508C235.195 183.986 234.191 189.407 232.711 194.707C236.901 206.716 236.474 219.58 235.703 232.259" stroke="white" stroke-width="0.498186" stroke-miterlimit="10"/>
<path d="M270.398 170.027L276.265 172.483" stroke="#407BFF" stroke-width="0.498186" stroke-miterlimit="10"/>
<path d="M275.385 109.027C277.228 108.063 277.849 107.812 279.692 106.848" stroke="#407BFF" stroke-width="0.498186" stroke-miterlimit="10"/>
<path d="M294.717 137.78C296.795 137.78 297.465 137.864 299.544 137.889" stroke="#407BFF" stroke-width="0.498186" stroke-miterlimit="10"/>
<path d="M210.84 173.957L210.354 180.201" stroke="#2D1D6A" stroke-width="0.368224" stroke-miterlimit="10"/>
<path d="M209.825 173.639L209.666 179.187" stroke="#2D1D6A" stroke-width="0.368224" stroke-miterlimit="10"/>
<path d="M209.105 172.617L208.945 178.156" stroke="#2D1D6A" stroke-width="0.368224" stroke-miterlimit="10"/>
<path d="M260.551 67.679C262.764 70.4111 265.787 72.3701 269.184 73.2737C272.582 74.1773 276.179 73.979 279.457 72.7072C281.183 71.9948 283.001 70.0171 281.853 68.517C279.724 67.9183 277.465 67.9539 275.355 68.6194C273.246 69.2848 271.376 70.5513 269.975 72.2636C268.574 73.9758 267.703 76.0596 267.468 78.2595C267.234 80.4594 267.646 82.6799 268.654 84.649C269.853 87.0374 272.576 89.1073 275.065 88.1268" stroke="#407BFF" stroke-width="0.498186" stroke-linecap="round" stroke-linejoin="round"/>
<path d="M152.957 20.121C152.73 21.6586 152.833 23.227 153.259 24.7218" stroke="#407BFF" stroke-width="0.498186" stroke-miterlimit="10"/>
<path d="M32.5566 7.18188C33.6518 8.82607 34.9127 10.3537 36.3194 11.7407" stroke="#407BFF" stroke-width="0.498186" stroke-miterlimit="10"/>
<path d="M87.541 0.0921783C87.9935 1.03915 89.1668 5.12034 89.2171 3.83816" stroke="#2D1D6A" stroke-width="0.498186" stroke-miterlimit="10"/>
<path d="M0.0917969 173.756C1.50736 173.051 3.09371 172.76 4.66744 172.918" stroke="#407BFF" stroke-width="0.498186" stroke-miterlimit="10"/>
<path d="M4.67578 110.837C5.93787 111.054 7.23458 110.938 8.43854 110.502" stroke="#407BFF" stroke-width="0.498186" stroke-miterlimit="10"/>
<path d="M94.4539 182.991L91.8477 184.936" stroke="#407BFF" stroke-width="0.498186" stroke-miterlimit="10"/>
<path d="M58.6445 228.79C60.6725 227.639 62.5287 226.208 64.1587 224.541" stroke="#407BFF" stroke-width="0.498186" stroke-miterlimit="10"/>
<path d="M225.178 33.9065L228.748 28.1996" stroke="#407BFF" stroke-width="0.498186" stroke-miterlimit="10"/>
<path d="M208.542 24.7888C207.526 24.751 206.522 25.0159 205.657 25.55C204.792 26.0841 204.105 26.8632 203.684 27.7884C203.263 28.7136 203.126 29.7432 203.291 30.7463C203.456 31.7495 203.915 32.681 204.611 33.4225C205.306 34.164 206.206 34.6821 207.197 34.911C208.187 35.1399 209.223 35.0693 210.174 34.708C211.124 34.3468 211.946 33.7113 212.534 32.8822C213.122 32.0531 213.451 31.0679 213.478 30.0516C213.502 29.3815 213.393 28.7133 213.157 28.0855C212.921 27.4577 212.564 26.8827 212.105 26.3936C211.646 25.9045 211.095 25.5109 210.484 25.2355C209.872 24.9601 209.213 24.8083 208.542 24.7888ZM210.47 30.0097L207.042 31.8534C207.042 31.8534 207.042 31.8534 206.992 31.8534C206.99 31.8366 206.99 31.8198 206.992 31.8031L207.101 27.856C207.098 27.8365 207.098 27.8168 207.101 27.7973H207.151L210.503 29.8589C210.503 29.8589 210.545 29.8589 210.545 29.9091L210.47 30.0097Z" fill="#407BFF"/>
</g>
<defs>
<clipPath id="clip0_1281_19254">
<rect width="299.544" height="250" fill="white"/>
</clipPath>
</defs>
</svg>
