<svg width="263" height="200" viewBox="0 0 263 200" fill="none" xmlns="http://www.w3.org/2000/svg">
<g clip-path="url(#clip0_1120_16504)">
<path d="M217.429 29.5813V13.2452H43.9849V20.5099V63.5105H14.9805V118.222H51.0483" stroke="#407BFF" stroke-width="1.06583" stroke-miterlimit="10" stroke-dasharray="3.2 3.2"/>
<path d="M30.043 151.411V150.54" stroke="#0024A8" stroke-width="1.06583" stroke-miterlimit="10"/>
<path d="M30.043 148.897V129.97" stroke="#407BFF" stroke-width="1.06583" stroke-miterlimit="10" stroke-dasharray="3.02 3.02"/>
<path d="M30.0445 129.143V128.278H29.1738" stroke="#407BFF" stroke-width="1.06583" stroke-miterlimit="10"/>
<path d="M27.5244 128.278H1.98633" stroke="#407BFF" stroke-width="1.06583" stroke-miterlimit="10" stroke-dasharray="3.03 3.03"/>
<path d="M1.15974 128.278H0.289062V127.407" stroke="#407BFF" stroke-width="1.06583" stroke-miterlimit="10"/>
<path d="M0.289062 125.639V98.2722" stroke="#407BFF" stroke-width="1.06583" stroke-miterlimit="10" stroke-dasharray="3.24 3.24"/>
<path d="M0.289062 97.3853V96.5146H1.15974" stroke="#407BFF" stroke-width="1.06583" stroke-miterlimit="10"/>
<path d="M2.83984 96.5146H35.5882" stroke="#407BFF" stroke-width="1.06583" stroke-miterlimit="10" stroke-dasharray="3.09 3.09"/>
<path d="M36.4277 96.5146H37.2984V95.6439" stroke="#0024A8" stroke-width="1.06583" stroke-miterlimit="10"/>
<path d="M37.2969 93.9297V22.6321" stroke="#407BFF" stroke-width="1.06583" stroke-miterlimit="10" stroke-dasharray="3.16 3.16"/>
<path d="M37.2969 21.7778V20.9071H38.1676" stroke="#0024A8" stroke-width="1.06583" stroke-miterlimit="10"/>
<path d="M39.9199 20.9071H98.6906" stroke="#407BFF" stroke-width="1.06583" stroke-miterlimit="10" stroke-dasharray="3.22 3.22"/>
<path d="M99.5664 20.9071H100.437V20.0364" stroke="#407BFF" stroke-width="1.06583" stroke-miterlimit="10"/>
<path d="M100.438 18.3168V2.01886" stroke="#407BFF" stroke-width="1.06583" stroke-miterlimit="10" stroke-dasharray="3.15 3.15"/>
<path d="M100.438 1.15907V0.288391H101.303" stroke="#407BFF" stroke-width="1.06583" stroke-miterlimit="10"/>
<path d="M103.051 0.288391H130.091" stroke="#407BFF" stroke-width="1.06583" stroke-miterlimit="10" stroke-dasharray="3.21 3.21"/>
<path d="M130.961 0.288391H131.832V1.15907" stroke="#407BFF" stroke-width="1.06583" stroke-miterlimit="10"/>
<path d="M131.832 2.96576V20.1018" stroke="#407BFF" stroke-width="1.06583" stroke-miterlimit="10" stroke-dasharray="3.31 3.31"/>
<path d="M131.832 20.9996V21.8703H132.703" stroke="#0024A8" stroke-width="1.06583" stroke-miterlimit="10"/>
<path d="M134.459 21.8703H161.755" stroke="#407BFF" stroke-width="1.06583" stroke-miterlimit="10" stroke-dasharray="3.24 3.24"/>
<path d="M162.637 21.8703H163.507V22.741" stroke="#407BFF" stroke-width="1.06583" stroke-miterlimit="10"/>
<path d="M163.508 24.7327V27.7147" stroke="#407BFF" stroke-width="1.06583" stroke-miterlimit="10" stroke-dasharray="3.66 3.66"/>
<path d="M163.508 28.7106V29.5812H164.378" stroke="#407BFF" stroke-width="1.06583" stroke-miterlimit="10"/>
<path d="M166.061 29.5812H215.716" stroke="#407BFF" stroke-width="1.06583" stroke-miterlimit="10" stroke-dasharray="3.09 3.09"/>
<path d="M216.559 29.5812H217.429V30.4519" stroke="#0024A8" stroke-width="1.06583" stroke-miterlimit="10"/>
<path d="M217.43 32.03V40.7314" stroke="#0024A8" stroke-width="1.06583" stroke-miterlimit="10" stroke-dasharray="2.91 2.91"/>
<path d="M217.43 41.5204V42.3911H218.295" stroke="#0024A8" stroke-width="1.06583" stroke-miterlimit="10"/>
<path d="M220.129 42.3911H244.862" stroke="#407BFF" stroke-width="1.06583" stroke-miterlimit="10" stroke-dasharray="3.37 3.37"/>
<path d="M245.775 42.3911H246.646V43.2618" stroke="#407BFF" stroke-width="1.06583" stroke-miterlimit="10"/>
<path d="M246.646 45.0194V68.8052" stroke="#407BFF" stroke-width="1.06583" stroke-miterlimit="10" stroke-dasharray="3.24 3.24"/>
<path d="M246.646 69.6868V70.552H245.775" stroke="#407BFF" stroke-width="1.06583" stroke-miterlimit="10"/>
<path d="M243.887 70.552H225.951" stroke="#407BFF" stroke-width="1.06583" stroke-miterlimit="10" stroke-dasharray="3.47 3.47"/>
<path d="M225.009 70.552H224.139V71.4227" stroke="#407BFF" stroke-width="1.06583" stroke-miterlimit="10"/>
<path d="M224.139 73.126V136.898" stroke="#407BFF" stroke-width="1.06583" stroke-miterlimit="10" stroke-dasharray="3.13 3.13"/>
<path d="M224.139 137.747V138.617" stroke="#0024A8" stroke-width="1.06583" stroke-miterlimit="10"/>
<path d="M242.918 191.544H17.1133V200H242.918V191.544Z" fill="#455A64"/>
<path d="M214.235 161.609H45.7967L17.1133 191.544H242.918L214.235 161.609Z" fill="#263238"/>
<path d="M128.974 184.937C174.995 184.937 212.303 181.446 212.303 177.139C212.303 172.833 174.995 169.341 128.974 169.341C82.9523 169.341 45.6445 172.833 45.6445 177.139C45.6445 181.446 82.9523 184.937 128.974 184.937Z" fill="#686B6C"/>
<path d="M112.279 149.773L108.688 174.691H151.34L147.302 149.773H112.279Z" fill="#455A64"/>
<path d="M166.163 178.282H93.875V180.078H166.163V178.282Z" fill="#263238"/>
<path d="M108.687 174.69L93.8691 178.282H166.157L151.339 174.69H108.687Z" fill="#455A64"/>
<path d="M53.5896 43.6101H206.442C208.272 43.6101 210.027 44.3371 211.322 45.6311C212.616 46.9251 213.343 48.6802 213.343 50.5102V136.941H46.6895V50.5102C46.6895 48.6802 47.4164 46.9251 48.7104 45.6311C50.0045 44.3371 51.7595 43.6101 53.5896 43.6101Z" fill="#455A64"/>
<path d="M46.6895 136.941H213.343V146.04C213.343 147.863 212.618 149.611 211.329 150.9C210.041 152.189 208.292 152.913 206.47 152.913H53.5569C51.7351 152.911 49.9883 152.186 48.7006 150.898C47.4128 149.609 46.6895 147.862 46.6895 146.04V136.941Z" fill="#263238"/>
<path d="M207.2 48.9973H52.8398V131.162H207.2V48.9973Z" fill="#FFE2D7"/>
<path d="M133.274 144.288C133.274 144.933 133.083 145.565 132.724 146.101C132.365 146.638 131.855 147.057 131.259 147.304C130.662 147.551 130.006 147.616 129.372 147.49C128.739 147.364 128.157 147.053 127.7 146.596C127.244 146.14 126.933 145.558 126.807 144.924C126.681 144.291 126.746 143.635 126.993 143.038C127.24 142.441 127.658 141.931 128.195 141.573C128.732 141.214 129.363 141.022 130.009 141.022C130.875 141.022 131.706 141.366 132.318 141.979C132.93 142.591 133.274 143.422 133.274 144.288Z" fill="white"/>
<path d="M131.831 58.3735H77.1738V122.172H131.831V58.3735Z" fill="#FF6C37"/>
<path d="M123.93 67.0748H85.0703V70.5575H123.93V67.0748Z" fill="#E4EAFE"/>
<path d="M123.93 73.4525H85.0703V76.9298H123.93V73.4525Z" fill="#E4EAFE"/>
<path d="M123.93 79.8357H85.0703V83.3184H123.93V79.8357Z" fill="#E4EAFE"/>
<path d="M123.93 86.2134H85.0703V89.6961H123.93V86.2134Z" fill="#E4EAFE"/>
<path d="M123.93 92.5911H85.0703V96.0683H123.93V92.5911Z" fill="#E4EAFE"/>
<path d="M123.93 98.9742H85.0703V102.457H123.93V98.9742Z" fill="#E4EAFE"/>
<path d="M123.93 105.352H85.0703V108.835H123.93V105.352Z" fill="#E4EAFE"/>
<path d="M123.93 111.735H85.0703V115.218H123.93V111.735Z" fill="#E4EAFE"/>
<path d="M168.633 81.5117V75.9557H165.172C164.885 74.7093 164.4 73.517 163.736 72.4241L166.201 69.959L162.272 66.03L159.823 68.4734C158.739 67.7983 157.554 67.3005 156.313 66.9987V63.5105H150.752V66.9714C149.506 67.2561 148.315 67.7413 147.225 68.4081L144.76 65.943L140.826 69.8719L143.275 72.3207C142.597 73.4041 142.097 74.5891 141.795 75.8306H138.328V81.3703H141.789C142.079 82.6142 142.564 83.8044 143.226 84.8965L140.761 87.3616L144.695 91.2905L147.138 88.8472C148.222 89.5236 149.407 90.0215 150.648 90.3219V93.8155H156.21V90.3546C157.454 90.0661 158.644 89.5811 159.736 88.9179L162.206 91.3831L166.135 87.4487L163.687 85.0053C164.366 83.9207 164.865 82.7337 165.167 81.49L168.633 81.5117ZM153.472 84.0149C152.416 84.0149 151.382 83.7015 150.504 83.1144C149.625 82.5272 148.94 81.6926 148.535 80.7161C148.131 79.7397 148.025 78.6652 148.231 77.6286C148.438 76.5921 148.946 75.6399 149.694 74.8925C150.441 74.1452 151.393 73.6363 152.43 73.4301C153.467 73.2239 154.541 73.3297 155.517 73.7342C156.494 74.1386 157.328 74.8235 157.916 75.7023C158.503 76.5811 158.816 77.6143 158.816 78.6712C158.816 79.3729 158.678 80.0678 158.409 80.7161C158.141 81.3645 157.747 81.9536 157.251 82.4498C156.755 82.946 156.166 83.3396 155.517 83.6082C154.869 83.8767 154.174 84.0149 153.472 84.0149Z" fill="#407BFF"/>
<path d="M189.371 98.5661V94.2127H186.651C186.424 93.2331 186.042 92.2961 185.519 91.4374L187.461 89.4947L184.365 86.3984L182.439 88.3248C181.59 87.7858 180.66 87.3854 179.685 87.1385V84.4176H175.332V87.1385C174.351 87.3664 173.412 87.7484 172.551 88.2703L170.608 86.3331L167.517 89.424L169.444 91.3504C168.909 92.2031 168.516 93.1366 168.279 94.1148H165.531V98.4682H168.252C168.478 99.4481 168.86 100.385 169.384 101.243L167.441 103.186L170.538 106.282L172.464 104.356C173.317 104.888 174.251 105.28 175.228 105.515V108.263H179.582V105.542C180.563 105.315 181.501 104.932 182.363 104.411L184.3 106.348L187.396 103.257L185.47 101.33C186.004 100.478 186.397 99.5442 186.634 98.5661H189.371ZM177.432 100.536C176.599 100.537 175.784 100.291 175.09 99.8284C174.397 99.366 173.856 98.7083 173.537 97.9385C173.217 97.1686 173.133 96.3213 173.296 95.5037C173.458 94.6862 173.859 93.9352 174.449 93.3459C175.038 92.7565 175.789 92.3552 176.607 92.1929C177.424 92.0305 178.271 92.1144 179.041 92.4339C179.811 92.7533 180.469 93.294 180.931 93.9875C181.394 94.681 181.64 95.4961 181.639 96.3296C181.637 97.4447 181.194 98.5138 180.405 99.3024C179.617 100.091 178.547 100.535 177.432 100.536Z" fill="#407BFF"/>
<path d="M165.407 108.693V105.586H163.475C163.315 104.891 163.045 104.226 162.675 103.616L164.052 102.239L161.875 100.063L160.509 101.428C159.904 101.052 159.243 100.775 158.55 100.607V98.6586H155.443V100.59C154.748 100.75 154.083 101.02 153.473 101.39L152.096 100.014L149.92 102.19L151.285 103.556C150.909 104.161 150.632 104.823 150.464 105.515H148.516V108.622H150.447C150.607 109.318 150.877 109.983 151.247 110.592L149.871 111.969L152.047 114.146L153.413 112.78C154.018 113.156 154.68 113.433 155.372 113.602V115.55H158.463V113.64C159.158 113.48 159.823 113.21 160.433 112.84L161.81 114.216L163.986 112.04L162.621 110.674C162.997 110.069 163.274 109.407 163.442 108.715L165.407 108.693ZM156.939 110.086C156.35 110.086 155.773 109.911 155.283 109.584C154.792 109.256 154.41 108.79 154.184 108.245C153.959 107.7 153.9 107.101 154.015 106.522C154.13 105.944 154.414 105.413 154.831 104.995C155.248 104.578 155.779 104.294 156.358 104.179C156.936 104.064 157.536 104.123 158.081 104.349C158.626 104.575 159.091 104.957 159.419 105.447C159.747 105.938 159.921 106.514 159.921 107.104C159.921 107.895 159.607 108.654 159.048 109.213C158.489 109.772 157.73 110.086 156.939 110.086Z" fill="#407BFF"/>
<path opacity="0.24" d="M126.09 48.9973L92.9004 131.157H111.272L144.162 48.9973H126.09Z" fill="white"/>
<path opacity="0.24" d="M155.591 48.9973L124.605 131.157H131.984L163.508 48.9973H155.591Z" fill="white"/>
<path d="M183.295 31.6546C183.106 31.6518 182.92 31.6072 182.75 31.524C182.381 31.3594 181.982 31.2743 181.578 31.2743C181.174 31.2743 180.774 31.3594 180.405 31.524C180.102 31.6699 179.754 31.6913 179.436 31.5834C179.117 31.4756 178.854 31.2471 178.702 30.9472C178.551 30.6495 178.523 30.3043 178.625 29.9864C178.727 29.6686 178.95 29.4037 179.246 29.2493C179.967 28.9121 180.754 28.7372 181.55 28.7372C182.347 28.7372 183.134 28.9121 183.855 29.2493C184.115 29.3739 184.325 29.5829 184.45 29.8421C184.576 30.1014 184.61 30.3956 184.547 30.6767C184.484 30.9578 184.327 31.2092 184.103 31.3898C183.878 31.5704 183.599 31.6695 183.311 31.6709L183.295 31.6546Z" fill="#407BFF"/>
<path d="M186.391 28.1936C186.127 28.1938 185.871 28.112 185.656 27.9596C181.558 25.0864 177.63 27.9161 177.591 27.9596C177.457 28.059 177.304 28.1308 177.141 28.171C176.979 28.2112 176.81 28.2191 176.645 28.1941C176.479 28.169 176.32 28.1117 176.177 28.0252C176.033 27.9388 175.909 27.825 175.809 27.6903C175.71 27.5556 175.638 27.4026 175.598 27.2402C175.558 27.0777 175.55 26.9089 175.575 26.7434C175.6 26.5779 175.657 26.419 175.744 26.2757C175.83 26.1323 175.944 26.0074 176.079 25.9081C177.697 24.7754 179.624 24.1678 181.599 24.1678C183.574 24.1678 185.502 24.7754 187.12 25.9081C187.341 26.0643 187.507 26.2867 187.594 26.5433C187.681 26.7999 187.684 27.0774 187.603 27.3358C187.522 27.5943 187.361 27.8203 187.143 27.9813C186.925 28.1423 186.662 28.23 186.391 28.2317V28.1936Z" fill="#407BFF"/>
<path d="M189.482 24.9558C189.2 24.9555 188.926 24.8617 188.703 24.6892C181.112 18.823 174.919 24.379 174.664 24.6184C174.412 24.8252 174.092 24.9284 173.767 24.9071C173.442 24.8857 173.138 24.7413 172.916 24.5034C172.694 24.2654 172.571 23.9518 172.572 23.6264C172.573 23.301 172.699 22.9882 172.922 22.7519C173.004 22.6757 180.933 15.4545 190.265 22.6757C190.475 22.8385 190.629 23.0631 190.705 23.3179C190.782 23.5726 190.776 23.8448 190.69 24.0963C190.603 24.3478 190.44 24.5659 190.224 24.72C190.007 24.8742 189.747 24.9566 189.482 24.9558Z" fill="#407BFF"/>
<path d="M231.431 56.3884C239.165 48.6551 239.165 36.1169 231.431 28.3835C223.698 20.6502 211.16 20.6502 203.426 28.3835C195.693 36.1169 195.693 48.6551 203.426 56.3884C211.16 64.1218 223.698 64.1218 231.431 56.3884Z" fill="#FF6C37"/>
<path d="M231.835 164.972H233.293C237.146 164.709 240.755 162.993 243.39 160.171C246.026 157.349 247.492 153.632 247.492 149.77C247.492 145.909 246.026 142.191 243.39 139.369C240.755 136.547 237.146 134.832 233.293 134.569H231.846C228.001 134.841 224.402 136.561 221.774 139.381C219.147 142.201 217.686 145.913 217.686 149.767C217.686 153.622 219.147 157.333 221.774 160.154C224.402 162.974 228.001 164.694 231.846 164.966L231.835 164.972ZM222.644 159.611C223.615 158.906 224.658 158.306 225.756 157.821C226.809 160.01 228.289 161.966 230.11 163.573C227.274 163.048 224.668 161.666 222.644 159.611ZM232.058 163.671C229.848 162.017 228.063 159.86 226.85 157.38C228.524 156.775 230.28 156.426 232.058 156.346V163.671ZM232.058 155.171C230.117 155.25 228.2 155.632 226.377 156.303C225.68 154.567 225.268 152.729 225.158 150.861H232.058V155.171ZM232.058 149.68H225.125C225.129 147.764 225.449 145.861 226.072 144.048C227.983 144.801 230.006 145.229 232.058 145.316V149.68ZM235.007 163.611C236.898 161.947 238.422 159.908 239.486 157.625C240.664 158.107 241.787 158.717 242.833 159.443C240.743 161.642 237.998 163.104 235.007 163.611ZM243.611 158.534C242.468 157.726 241.235 157.052 239.937 156.526C240.646 154.711 241.065 152.796 241.178 150.85H246.674C246.456 153.663 245.387 156.343 243.611 158.534ZM244.051 141.588C245.754 143.94 246.677 146.766 246.691 149.669H241.178C241.171 147.679 240.846 145.702 240.215 143.814C241.577 143.226 242.865 142.479 244.051 141.588ZM243.322 140.663C242.238 141.481 241.061 142.169 239.818 142.715C238.752 140.115 237.105 137.793 235.002 135.929C238.249 136.484 241.196 138.168 243.322 140.685V140.663ZM233.239 135.994C235.667 137.854 237.559 140.323 238.724 143.15C236.962 143.781 235.11 144.121 233.239 144.157V135.994ZM233.239 145.338C235.248 145.299 237.237 144.931 239.127 144.249C239.707 146.005 240.006 147.842 240.014 149.691H233.239V145.338ZM233.239 150.856H239.976C239.869 152.66 239.484 154.437 238.833 156.123C237.028 155.52 235.142 155.195 233.239 155.16V150.856ZM233.239 156.33C234.985 156.365 236.716 156.659 238.376 157.201C237.192 159.692 235.431 161.866 233.239 163.54V156.33ZM232.058 135.875V144.146C230.148 144.057 228.265 143.655 226.486 142.954C227.686 140.144 229.608 137.701 232.058 135.875ZM230.088 135.967C228.068 137.773 226.472 140.003 225.414 142.497C224.253 141.946 223.158 141.267 222.149 140.473C224.218 138.127 227.013 136.541 230.088 135.967ZM221.381 141.371C222.487 142.242 223.688 142.985 224.962 143.586C224.28 145.547 223.929 147.609 223.922 149.686H218.584C218.601 146.682 219.59 143.765 221.403 141.371H221.381ZM218.649 150.861H223.982C224.092 152.88 224.531 154.867 225.283 156.744C224.069 157.28 222.917 157.948 221.849 158.735C219.987 156.509 218.868 153.756 218.649 150.861Z" fill="#407BFF"/>
<path d="M63.4134 90.2729H20.2441V99.377H63.4134V90.2729Z" fill="#407BFF"/>
<mask id="mask0_1120_16504" style="mask-type:luminance" maskUnits="userSpaceOnUse" x="22" y="91" width="6" height="7">
<path d="M27.7752 94.3324C27.7752 94.8889 27.6102 95.4328 27.3011 95.8955C26.9919 96.3581 26.5525 96.7187 26.0384 96.9316C25.5244 97.1446 24.9587 97.2003 24.413 97.0917C23.8672 96.9832 23.3659 96.7152 22.9725 96.3218C22.579 95.9283 22.3111 95.427 22.2025 94.8813C22.0939 94.3355 22.1497 93.7699 22.3626 93.2558C22.5755 92.7417 22.9361 92.3023 23.3988 91.9932C23.8614 91.6841 24.4054 91.519 24.9618 91.519C25.3315 91.5183 25.6976 91.5906 26.0393 91.7317C26.381 91.8729 26.6914 92.0801 26.9528 92.3415C27.2142 92.6029 27.4214 92.9133 27.5625 93.2549C27.7036 93.5966 27.7759 93.9628 27.7752 94.3324Z" fill="white"/>
</mask>
<g mask="url(#mask0_1120_16504)">
<path d="M27.7752 94.3324C27.7752 94.8889 27.6102 95.4328 27.3011 95.8955C26.9919 96.3581 26.5525 96.7187 26.0384 96.9316C25.5244 97.1446 24.9587 97.2003 24.413 97.0917C23.8672 96.9832 23.3659 96.7152 22.9725 96.3218C22.579 95.9283 22.3111 95.427 22.2025 94.8813C22.0939 94.3355 22.1497 93.7699 22.3626 93.2558C22.5755 92.7417 22.9361 92.3023 23.3988 91.9932C23.8614 91.6841 24.4054 91.519 24.9618 91.519C25.3315 91.5183 25.6976 91.5906 26.0393 91.7317C26.381 91.8729 26.6914 92.0801 26.9528 92.3415C27.2142 92.6029 27.4214 92.9133 27.5625 93.2549C27.7036 93.5966 27.7759 93.9628 27.7752 94.3324Z" fill="white"/>
<path d="M25.9406 93.304C25.9417 93.4992 25.8847 93.6904 25.7769 93.8532C25.6691 94.016 25.5153 94.1431 25.3351 94.2183C25.1549 94.2936 24.9564 94.3135 24.7648 94.2757C24.5733 94.2379 24.3973 94.144 24.2592 94.0059C24.1211 93.8678 24.0272 93.6918 23.9894 93.5002C23.9515 93.3087 23.9715 93.1102 24.0467 92.93C24.1219 92.7498 24.249 92.596 24.4118 92.4882C24.5746 92.3804 24.7658 92.3234 24.9611 92.3245C25.0897 92.3245 25.2171 92.3498 25.3359 92.399C25.4548 92.4483 25.5627 92.5204 25.6537 92.6114C25.7447 92.7023 25.8168 92.8103 25.866 92.9291C25.9153 93.048 25.9406 93.1754 25.9406 93.304Z" fill="#4779F6"/>
<path d="M24.6462 94.3542H25.2774C25.7104 94.3542 26.1256 94.5262 26.4318 94.8324C26.738 95.1386 26.91 95.5538 26.91 95.9868V97.1894H23.0137V95.9868C23.0137 95.5538 23.1857 95.1386 23.4918 94.8324C23.798 94.5262 24.2132 94.3542 24.6462 94.3542Z" fill="#4779F6"/>
</g>
<path d="M57.8827 92.5911H29.1504V93.0264H57.8827V92.5911Z" fill="white"/>
<path d="M57.8827 93.9026H29.1504V94.3379H57.8827V93.9026Z" fill="white"/>
<path d="M57.8827 95.2085H29.1504V95.6438H57.8827V95.2085Z" fill="white"/>
<path d="M57.8827 96.5146H29.1504V96.95H57.8827V96.5146Z" fill="white"/>
<path d="M63.4134 102.539H20.2441V111.643H63.4134V102.539Z" fill="#407BFF"/>
<mask id="mask1_1120_16504" style="mask-type:luminance" maskUnits="userSpaceOnUse" x="22" y="103" width="6" height="7">
<path d="M27.7752 106.598C27.7752 107.154 27.6102 107.698 27.3011 108.161C26.9919 108.624 26.5525 108.984 26.0384 109.197C25.5244 109.41 24.9587 109.466 24.413 109.357C23.8672 109.249 23.3659 108.981 22.9725 108.587C22.579 108.194 22.3111 107.693 22.2025 107.147C22.0939 106.601 22.1497 106.035 22.3626 105.521C22.5755 105.007 22.9361 104.568 23.3988 104.259C23.8614 103.95 24.4054 103.785 24.9618 103.785C25.3315 103.784 25.6976 103.856 26.0393 103.997C26.381 104.138 26.6914 104.346 26.9528 104.607C27.2142 104.868 27.4214 105.179 27.5625 105.521C27.7036 105.862 27.7759 106.228 27.7752 106.598Z" fill="white"/>
</mask>
<g mask="url(#mask1_1120_16504)">
<path d="M27.7752 106.598C27.7752 107.154 27.6102 107.698 27.3011 108.161C26.9919 108.624 26.5525 108.984 26.0384 109.197C25.5244 109.41 24.9587 109.466 24.413 109.357C23.8672 109.249 23.3659 108.981 22.9725 108.587C22.579 108.194 22.3111 107.693 22.2025 107.147C22.0939 106.601 22.1497 106.035 22.3626 105.521C22.5755 105.007 22.9361 104.568 23.3988 104.259C23.8614 103.95 24.4054 103.785 24.9618 103.785C25.3315 103.784 25.6976 103.856 26.0393 103.997C26.381 104.138 26.6914 104.346 26.9528 104.607C27.2142 104.868 27.4214 105.179 27.5625 105.521C27.7036 105.862 27.7759 106.228 27.7752 106.598Z" fill="white"/>
<path d="M25.9406 105.57C25.9417 105.765 25.8847 105.956 25.7769 106.119C25.6691 106.282 25.5153 106.409 25.3351 106.484C25.1549 106.559 24.9564 106.579 24.7648 106.541C24.5733 106.504 24.3973 106.41 24.2592 106.272C24.1211 106.133 24.0272 105.957 23.9894 105.766C23.9515 105.574 23.9715 105.376 24.0467 105.196C24.1219 105.015 24.249 104.862 24.4118 104.754C24.5746 104.646 24.7658 104.589 24.9611 104.59C25.2204 104.592 25.4687 104.695 25.6521 104.879C25.8355 105.062 25.9392 105.31 25.9406 105.57Z" fill="#4779F6"/>
<path d="M24.6462 106.62H25.2774C25.7104 106.62 26.1256 106.792 26.4318 107.098C26.738 107.404 26.91 107.819 26.91 108.252V109.455H23.0137V108.252C23.0137 107.819 23.1857 107.404 23.4918 107.098C23.798 106.792 24.2132 106.62 24.6462 106.62Z" fill="#4779F6"/>
</g>
<path d="M57.8827 104.862H29.1504V105.298H57.8827V104.862Z" fill="white"/>
<path d="M57.8827 106.168H29.1504V106.604H57.8827V106.168Z" fill="white"/>
<path d="M57.8827 107.474H29.1504V107.91H57.8827V107.474Z" fill="white"/>
<path d="M57.8827 108.78H29.1504V109.216H57.8827V108.78Z" fill="white"/>
<path d="M81.0549 28.0739H80.6576C80.9205 26.9833 81.0538 25.8655 81.0549 24.7436C81.0556 22.1027 80.3137 19.5148 78.914 17.2753C77.5143 15.0358 75.513 13.2351 73.1388 12.0786C70.7646 10.9221 68.113 10.4565 65.4868 10.735C62.8606 11.0134 60.3656 12.0247 58.2867 13.6533C57.0371 10.9879 54.9839 8.78081 52.4156 7.34211C49.8473 5.90341 46.8928 5.30537 43.9672 5.63197C41.0415 5.95858 38.2917 7.19343 36.1038 9.16308C33.916 11.1327 32.4001 13.7382 31.7691 16.6136C29.7943 15.92 27.6897 15.6752 25.6084 15.8972C23.5271 16.1192 21.5215 16.8023 19.7374 17.8968C17.9533 18.9914 16.4356 20.4698 15.2947 22.2246C14.1538 23.9795 13.4185 25.9665 13.1421 28.0413H13.0169C11.1143 28.0402 9.2454 28.5432 7.60036 29.4991C5.95532 30.4549 4.59287 31.8295 3.65167 33.483C3.54049 33.68 3.48283 33.9026 3.48441 34.1287C3.48599 34.3549 3.54676 34.5767 3.66068 34.7721C3.7746 34.9674 3.93771 35.1296 4.13375 35.2423C4.3298 35.3551 4.55195 35.4146 4.77811 35.4148H89.2991C89.5254 35.4153 89.7479 35.3561 89.9442 35.2434C90.1404 35.1306 90.3035 34.9682 90.4171 34.7724C90.5307 34.5767 90.5908 34.3545 90.5913 34.1281C90.5918 33.9018 90.5328 33.6793 90.4201 33.483C89.476 31.8345 88.1121 30.4655 86.467 29.5154C84.822 28.5652 82.9546 28.0679 81.0549 28.0739Z" fill="white"/>
<path d="M46.816 38.3642L37.2984 21.8703L27.7754 38.3642H34.1205V58.9557H40.471V38.3642H46.816Z" fill="#4779F6"/>
<path d="M47.2559 42.4618L56.7789 58.9557L66.2965 42.4618H59.9514V21.8703H53.6009V42.4618H47.2559Z" fill="#FF6C37"/>
<g opacity="0.51">
<path d="M262.053 77.9583H196.779V113.362H262.053V77.9583Z" fill="#407BFF"/>
<path d="M254.103 81.5607H199.74V84.1074H254.103V81.5607Z" fill="#E4EAFE"/>
<path d="M237.745 85.6964H199.74V88.2431H237.745V85.6964Z" fill="#E4EAFE"/>
<path d="M246.251 89.832H199.74V92.3788H246.251V89.832Z" fill="#E4EAFE"/>
<path d="M254.103 93.9678H199.74V96.5145H254.103V93.9678Z" fill="#E4EAFE"/>
<path d="M249.908 98.109H199.74V100.656H249.908V98.109Z" fill="#E4EAFE"/>
<path d="M244.324 102.245H199.74V104.791H244.324V102.245Z" fill="#E4EAFE"/>
<path d="M250.98 106.38H199.74V108.927H250.98V106.38Z" fill="#E4EAFE"/>
</g>
<path d="M51.0438 140.685H9.03906V165.14H51.0438V140.685Z" fill="#5187FF"/>
<path d="M9.03906 165.14L30.0441 151.411L51.0492 165.14H9.03906Z" fill="#7AA3FF"/>
<path d="M9.03906 140.685L30.0441 157.549L51.0492 140.685H9.03906Z" fill="#407BFF"/>
<path d="M133.099 8.26599H121.672C120.292 8.26599 119.174 9.38428 119.174 10.7637V32.9769C119.174 34.3564 120.292 35.4747 121.672 35.4747H133.099C134.479 35.4747 135.597 34.3564 135.597 32.9769V10.7637C135.597 9.38428 134.479 8.26599 133.099 8.26599Z" fill="#263238"/>
<mask id="mask2_1120_16504" style="mask-type:luminance" maskUnits="userSpaceOnUse" x="120" y="9" width="15" height="24">
<path d="M132.153 9.55566H122.619C121.468 9.55566 120.535 10.4888 120.535 11.6398V30.1689C120.535 31.32 121.468 32.2531 122.619 32.2531H132.153C133.304 32.2531 134.237 31.32 134.237 30.1689V11.6398C134.237 10.4888 133.304 9.55566 132.153 9.55566Z" fill="white"/>
</mask>
<g mask="url(#mask2_1120_16504)">
<path d="M132.153 9.55566H122.619C121.468 9.55566 120.535 10.4888 120.535 11.6398V30.1689C120.535 31.32 121.468 32.2531 122.619 32.2531H132.153C133.304 32.2531 134.237 31.32 134.237 30.1689V11.6398C134.237 10.4888 133.304 9.55566 132.153 9.55566Z" fill="#B6CEFF"/>
<path d="M117.727 26.942L133.181 6.17633H136.887L117.727 32.2531V26.942Z" fill="white"/>
<path d="M119.174 35.1536L137.529 9.55566V11.9718L119.174 38.0486V35.1536Z" fill="white"/>
</g>
<path d="M128.191 33.7006C128.191 33.8599 128.144 34.0156 128.055 34.1481C127.967 34.2805 127.841 34.3838 127.694 34.4447C127.546 34.5057 127.385 34.5216 127.228 34.4905C127.072 34.4595 126.929 34.3828 126.816 34.2701C126.703 34.1575 126.627 34.014 126.596 33.8578C126.564 33.7015 126.58 33.5396 126.641 33.3924C126.702 33.2453 126.806 33.1195 126.938 33.031C127.07 32.9425 127.226 32.8953 127.385 32.8953C127.599 32.8953 127.804 32.9801 127.955 33.1312C128.106 33.2822 128.191 33.487 128.191 33.7006Z" fill="white"/>
<path d="M154.061 14.4641H132.006V31.2246H154.061V14.4641Z" fill="white"/>
<path d="M138.835 27.7147L134.09 22.9641L138.9 18.1536L139.711 18.959L135.701 22.9641L139.646 26.9039L138.835 27.7147Z" fill="#FF6C37"/>
<path d="M146.987 27.7147L146.182 26.9039L150.187 22.8988L146.247 18.959L147.052 18.1536L151.803 22.8988L146.987 27.7147Z" fill="#FF6C37"/>
<path d="M144.168 18.7094L140.691 27.0997L141.747 27.5372L145.224 19.1469L144.168 18.7094Z" fill="#FF6C37"/>
<path d="M154.061 12.516H132.006V14.4696H154.061V12.516Z" fill="#FF6C37"/>
</g>
<defs>
<clipPath id="clip0_1120_16504">
<rect width="262.052" height="200" fill="white"/>
</clipPath>
</defs>
</svg>
