<svg width="197" height="200" viewBox="0 0 197 200" fill="none" xmlns="http://www.w3.org/2000/svg">
<g clip-path="url(#clip0_1071_10770)">
<path d="M81.2953 200C138.765 200 185.354 197.28 185.354 193.924C185.354 190.568 138.765 187.848 81.2953 187.848C23.8251 187.848 -22.7637 190.568 -22.7637 193.924C-22.7637 197.28 23.8251 200 81.2953 200Z" fill="#F5F5F5"/>
<path d="M188.664 98.7896C188.664 129.304 165.587 154.129 137.266 154.129C108.944 154.129 85.8667 129.304 85.8667 98.7896C85.8667 68.2751 108.944 43.4502 137.266 43.4502C154.746 43.4502 170.798 52.8434 180.34 68.6025L176.584 71.1307L186.443 74.1687L188.128 63.4336L184.602 65.79C174.142 48.426 156.479 38.0827 137.266 38.0827C106.175 38.0827 80.8809 65.3176 80.8809 98.7896C80.8809 132.262 106.175 159.497 137.266 159.497C168.356 159.497 193.65 132.267 193.65 98.7896H188.664Z" fill="#407BFF"/>
<path opacity="0.7" d="M188.664 98.7896C188.664 129.304 165.587 154.129 137.266 154.129C108.944 154.129 85.8667 129.304 85.8667 98.7896C85.8667 68.2751 108.944 43.4502 137.266 43.4502C154.746 43.4502 170.798 52.8434 180.34 68.6025L176.584 71.1307L186.443 74.1687L188.128 63.4336L184.602 65.79C174.142 48.426 156.479 38.0827 137.266 38.0827C106.175 38.0827 80.8809 65.3176 80.8809 98.7896C80.8809 132.262 106.175 159.497 137.266 159.497C168.356 159.497 193.65 132.267 193.65 98.7896H188.664Z" fill="white"/>
<path d="M144.859 87.3246V80.0301L141.365 79.6758C140.911 77.2918 140.029 75.0096 138.763 72.9395L141.006 70.0196L136.213 64.8614L133.53 67.2768C131.65 65.937 129.523 64.9845 127.272 64.4749L126.939 60.7177H120.145L119.812 64.4749C117.561 64.9845 115.434 65.937 113.554 67.2768L110.871 64.8614L106.078 70.0196L108.316 72.9395C107.054 75.0118 106.172 77.2932 105.713 79.6758L102.225 80.0301V87.3246L105.713 87.6788C106.173 90.0631 107.054 92.3461 108.316 94.4204L106.078 97.335L110.871 102.493L113.554 100.083C115.435 101.421 117.562 102.373 119.812 102.885L120.145 106.642H126.912L127.245 102.885C129.495 102.373 131.622 101.421 133.503 100.083L136.186 102.493L140.979 97.335L138.736 94.4204C140.002 92.3484 140.884 90.0645 141.339 87.6788L144.859 87.3246ZM123.531 93.5563C118.465 93.5563 114.359 89.1334 114.359 83.68C114.359 78.2266 118.465 73.8037 123.531 73.8037C128.598 73.8037 132.703 78.2212 132.703 83.68C132.703 89.1388 128.598 93.5563 123.531 93.5563Z" fill="#407BFF"/>
<path d="M172.322 107.914V102.203L169.59 101.93C169.232 100.061 168.541 98.2722 167.55 96.648L169.305 94.3614L165.549 90.3196L163.407 92.209C161.933 91.1603 160.266 90.4142 158.502 90.0137L158.244 87.0723H152.936L152.679 90.0137C150.915 90.4142 149.247 91.1603 147.773 92.209L145.627 90.3196L141.87 94.3614L143.625 96.648C142.634 98.2722 141.944 100.061 141.585 101.93L138.854 102.203V107.914L141.585 108.194C141.944 110.062 142.635 111.851 143.625 113.475L141.939 115.762L145.696 119.809L147.843 117.914C149.316 118.965 150.984 119.711 152.748 120.109L153.006 123.056H158.314L158.572 120.109C160.336 119.711 162.004 118.965 163.477 117.914L165.597 119.809L169.354 115.762L167.599 113.481C168.588 111.856 169.279 110.067 169.638 108.199L172.322 107.914ZM155.609 112.799C151.643 112.799 148.423 109.331 148.423 105.059C148.423 100.786 151.643 97.3189 155.609 97.3189C159.575 97.3189 162.801 100.781 162.801 105.059C162.801 109.337 159.581 112.804 155.609 112.804V112.799Z" fill="#407BFF"/>
<path d="M144.859 124.157V119.353L142.562 119.117C142.258 117.548 141.676 116.047 140.845 114.683L142.321 112.767L139.171 109.369L137.389 110.979C136.152 110.095 134.75 109.467 133.267 109.133L133.052 106.664H128.592L128.372 109.133C126.891 109.468 125.492 110.096 124.256 110.979L122.474 109.369L119.318 112.745L120.794 114.661C119.965 116.026 119.385 117.527 119.082 119.095L116.785 119.331V124.135L119.082 124.366C119.375 125.952 119.955 127.471 120.794 128.848L119.318 130.769L122.474 134.162L124.256 132.551C125.492 133.435 126.891 134.062 128.372 134.398L128.592 136.872H133.052L133.267 134.398C134.75 134.063 136.152 133.436 137.389 132.551L139.171 134.162L142.321 130.769L140.866 128.848C141.699 127.485 142.281 125.983 142.584 124.414L144.859 124.157ZM130.82 128.252C127.487 128.252 124.782 125.343 124.782 121.752C124.782 118.161 127.465 115.252 130.82 115.252C134.174 115.252 136.857 118.161 136.857 121.752C136.857 125.343 134.158 128.252 130.82 128.252Z" fill="#407BFF"/>
<path opacity="0.7" d="M144.859 87.3246V80.0301L141.365 79.6758C140.911 77.2918 140.029 75.0096 138.763 72.9395L141.006 70.0196L136.213 64.8614L133.53 67.2768C131.65 65.937 129.523 64.9845 127.272 64.4749L126.939 60.7177H120.145L119.812 64.4749C117.561 64.9845 115.434 65.937 113.554 67.2768L110.871 64.8614L106.078 70.0196L108.316 72.9395C107.054 75.0118 106.172 77.2932 105.713 79.6758L102.225 80.0301V87.3246L105.713 87.6788C106.173 90.0631 107.054 92.3461 108.316 94.4204L106.078 97.335L110.871 102.493L113.554 100.083C115.435 101.421 117.562 102.373 119.812 102.885L120.145 106.642H126.912L127.245 102.885C129.495 102.373 131.622 101.421 133.503 100.083L136.186 102.493L140.979 97.335L138.736 94.4204C140.002 92.3484 140.884 90.0645 141.339 87.6788L144.859 87.3246ZM123.531 93.5563C118.465 93.5563 114.359 89.1334 114.359 83.68C114.359 78.2266 118.465 73.8037 123.531 73.8037C128.598 73.8037 132.703 78.2212 132.703 83.68C132.703 89.1388 128.598 93.5563 123.531 93.5563Z" fill="white"/>
<path opacity="0.5" d="M172.322 107.914V102.203L169.59 101.93C169.232 100.061 168.541 98.2722 167.55 96.648L169.305 94.3614L165.549 90.3196L163.407 92.209C161.933 91.1603 160.266 90.4142 158.502 90.0137L158.244 87.0723H152.936L152.679 90.0137C150.915 90.4142 149.247 91.1603 147.773 92.209L145.627 90.3196L141.87 94.3614L143.625 96.648C142.634 98.2722 141.944 100.061 141.585 101.93L138.854 102.203V107.914L141.585 108.194C141.944 110.062 142.635 111.851 143.625 113.475L141.939 115.762L145.696 119.809L147.843 117.914C149.316 118.965 150.984 119.711 152.748 120.109L153.006 123.056H158.314L158.572 120.109C160.336 119.711 162.004 118.965 163.477 117.914L165.597 119.809L169.354 115.762L167.599 113.481C168.588 111.856 169.279 110.067 169.638 108.199L172.322 107.914ZM155.609 112.799C151.643 112.799 148.423 109.331 148.423 105.059C148.423 100.786 151.643 97.3189 155.609 97.3189C159.575 97.3189 162.801 100.781 162.801 105.059C162.801 109.337 159.581 112.804 155.609 112.804V112.799Z" fill="white"/>
<path opacity="0.3" d="M144.859 124.157V119.353L142.562 119.117C142.258 117.548 141.676 116.047 140.845 114.683L142.321 112.767L139.171 109.369L137.389 110.979C136.152 110.095 134.75 109.467 133.267 109.133L133.052 106.664H128.592L128.372 109.133C126.891 109.468 125.492 110.096 124.256 110.979L122.474 109.369L119.318 112.745L120.794 114.661C119.965 116.026 119.385 117.527 119.082 119.095L116.785 119.331V124.135L119.082 124.366C119.375 125.952 119.955 127.471 120.794 128.848L119.318 130.769L122.474 134.162L124.256 132.551C125.492 133.435 126.891 134.062 128.372 134.398L128.592 136.872H133.052L133.267 134.398C134.75 134.063 136.152 133.436 137.389 132.551L139.171 134.162L142.321 130.769L140.866 128.848C141.699 127.485 142.281 125.983 142.584 124.414L144.859 124.157ZM130.82 128.252C127.487 128.252 124.782 125.343 124.782 121.752C124.782 118.161 127.465 115.252 130.82 115.252C134.174 115.252 136.857 118.161 136.857 121.752C136.857 125.343 134.158 128.252 130.82 128.252Z" fill="white"/>
<path opacity="0.1" d="M135.936 17.3479V180.049C135.936 180.364 135.873 180.677 135.751 180.968C135.63 181.259 135.451 181.522 135.226 181.744C135.002 181.965 134.735 182.139 134.442 182.257C134.149 182.374 133.836 182.432 133.521 182.427H57.8153C57.2499 182.43 56.706 182.21 56.3018 181.815C56.0931 181.61 55.9283 181.365 55.8176 181.095C55.7068 180.824 55.6525 180.534 55.6578 180.242V17.1547C55.6477 16.9023 55.6875 16.6504 55.7749 16.4134C55.8622 16.1764 55.9955 15.959 56.167 15.7735C56.3384 15.588 56.5448 15.4382 56.7742 15.3326C57.0036 15.227 57.2516 15.1676 57.504 15.158H79.0038C79.3043 15.1639 79.5963 15.2589 79.8428 15.4309C80.0892 15.6029 80.2792 15.8441 80.3885 16.1241L81.2955 18.3194C81.4059 18.5978 81.5964 18.8372 81.8429 19.0073C82.0893 19.1773 82.3807 19.2705 82.6802 19.2749H108.978C109.276 19.2732 109.567 19.183 109.813 19.0158C110.06 18.8485 110.251 18.6117 110.363 18.3355L111.248 16.1295C111.358 15.8493 111.548 15.6077 111.794 15.4349C112.04 15.2621 112.332 15.1658 112.633 15.158H133.827C134.109 15.1628 134.388 15.2234 134.647 15.3362C134.906 15.449 135.14 15.6117 135.336 15.8152C135.532 16.0186 135.686 16.2587 135.789 16.5217C135.892 16.7847 135.942 17.0655 135.936 17.3479Z" fill="black"/>
<path d="M123.109 21.4219V176.007C123.11 176.307 123.051 176.604 122.936 176.88C122.82 177.157 122.651 177.408 122.438 177.618C122.224 177.829 121.971 177.994 121.693 178.106C121.415 178.217 121.117 178.272 120.818 178.267H48.901C48.3715 178.27 47.8622 178.063 47.4841 177.693C47.287 177.497 47.1312 177.263 47.0261 177.006C46.9209 176.749 46.8687 176.473 46.8723 176.195V21.2394C46.8548 20.7607 47.0261 20.2942 47.3495 19.9407C47.6728 19.5872 48.1221 19.3751 48.6005 19.35H69.0269C69.3131 19.3556 69.591 19.4465 69.8253 19.6109C70.0595 19.7754 70.2393 20.006 70.3418 20.2733L71.1844 22.3559C71.2894 22.6201 71.4703 22.8473 71.7044 23.0088C71.9384 23.1702 72.215 23.2587 72.4993 23.263H97.4984C97.7817 23.261 98.0581 23.1746 98.2923 23.015C98.5264 22.8554 98.7078 22.6297 98.8133 22.3666L99.6558 20.2733C99.7589 20.0064 99.9389 19.7762 100.173 19.6118C100.407 19.4475 100.685 19.3563 100.971 19.35H121.102C121.641 19.3654 122.152 19.5907 122.527 19.9777C122.902 20.3648 123.111 20.883 123.109 21.4219Z" fill="#FF6C37"/>
<path opacity="0.6" d="M56.3241 25.5656H57.3867V24.1486H56.3241V25.5656Z" fill="white"/>
<path opacity="0.6" d="M54.5956 25.5656H55.6582V23.6762H54.5956V25.5656Z" fill="white"/>
<path opacity="0.6" d="M52.8612 25.5656H53.9238V23.2039H52.8612V25.5656Z" fill="white"/>
<path opacity="0.6" d="M51.1288 25.5656H52.1914V22.7316H51.1288V25.5656Z" fill="white"/>
<path opacity="0.6" d="M113.368 23.6333H112.74V25.0503H113.368V23.6333Z" fill="white"/>
<path opacity="0.6" d="M113.802 25.5656H118.82V23.1126H113.802V25.5656Z" fill="white"/>
<path opacity="0.3" d="M60.7943 110.443H109.161C110.67 110.443 111.893 109.221 111.893 107.713C111.893 106.206 110.67 104.984 109.161 104.984H60.7943C59.2856 104.984 58.0625 106.206 58.0625 107.713C58.0625 109.221 59.2856 110.443 60.7943 110.443Z" fill="black"/>
<path d="M87.1621 105.472C87.4656 105.457 87.7689 105.504 88.0537 105.61C88.3385 105.716 88.5988 105.879 88.8188 106.088C89.0389 106.298 89.214 106.55 89.3337 106.829C89.4534 107.109 89.5151 107.409 89.5151 107.713C89.5151 108.017 89.4534 108.318 89.3337 108.597C89.214 108.876 89.0389 109.128 88.8188 109.338C88.5988 109.547 88.3385 109.71 88.0537 109.816C87.7689 109.922 87.4656 109.969 87.1621 109.954H60.7945C60.491 109.969 60.1877 109.922 59.9029 109.816C59.6181 109.71 59.3578 109.547 59.1377 109.338C58.9177 109.128 58.7425 108.876 58.6228 108.597C58.5031 108.318 58.4414 108.017 58.4414 107.713C58.4414 107.409 58.5031 107.109 58.6228 106.829C58.7425 106.55 58.9177 106.298 59.1377 106.088C59.3578 105.879 59.6181 105.716 59.9029 105.61C60.1877 105.504 60.491 105.457 60.7945 105.472H87.1621Z" fill="#FF6C37"/>
<path opacity="0.3" d="M87.1621 105.472C87.4656 105.457 87.7689 105.504 88.0537 105.61C88.3385 105.716 88.5988 105.879 88.8188 106.088C89.0389 106.298 89.214 106.55 89.3337 106.829C89.4534 107.109 89.5151 107.409 89.5151 107.713C89.5151 108.017 89.4534 108.318 89.3337 108.597C89.214 108.876 89.0389 109.128 88.8188 109.338C88.5988 109.547 88.3385 109.71 88.0537 109.816C87.7689 109.922 87.4656 109.969 87.1621 109.954H60.7945C60.491 109.969 60.1877 109.922 59.9029 109.816C59.6181 109.71 59.3578 109.547 59.1377 109.338C58.9177 109.128 58.7425 108.876 58.6228 108.597C58.5031 108.318 58.4414 108.017 58.4414 107.713C58.4414 107.409 58.5031 107.109 58.6228 106.829C58.7425 106.55 58.9177 106.298 59.1377 106.088C59.3578 105.879 59.6181 105.716 59.9029 105.61C60.1877 105.504 60.491 105.457 60.7945 105.472H87.1621Z" fill="white"/>
<path d="M78.4351 103.207L77.8125 99.729H78.3492L78.7839 102.44L79.224 99.729H79.7607L79.1489 103.207H78.4351Z" fill="white"/>
<path d="M80.2227 103.207V99.7236H81.7147V100.26H80.7593V101.21H81.4624V101.747H80.7593V102.697H81.7254V103.234L80.2227 103.207Z" fill="white"/>
<path d="M82.9061 99.7289C83.0246 99.7191 83.1438 99.7357 83.2552 99.7775C83.3666 99.8192 83.4673 99.8851 83.5501 99.9705C83.6767 100.138 83.7395 100.346 83.7272 100.556V101.092C83.7291 101.21 83.7051 101.327 83.6569 101.435C83.6087 101.542 83.5374 101.638 83.4481 101.715L83.8399 103.234H83.2818L82.9598 101.924H82.6109V103.234H82.0742V99.7558L82.9061 99.7289ZM83.2174 100.566C83.2238 100.525 83.2204 100.483 83.2076 100.444C83.1948 100.405 83.1728 100.369 83.1435 100.34C83.1142 100.31 83.0784 100.288 83.039 100.275C82.9996 100.263 82.9578 100.259 82.9168 100.266H82.6002V101.377H82.9061C82.9459 101.378 82.9854 101.371 83.0224 101.356C83.0593 101.341 83.0928 101.319 83.1208 101.291C83.1488 101.263 83.1708 101.229 83.1856 101.192C83.2004 101.155 83.2075 101.116 83.2066 101.076L83.2174 100.566Z" fill="white"/>
<path d="M84.2109 102.687H84.7476V103.223H84.2109V102.687Z" fill="white"/>
<path d="M85.4663 100.706C85.4566 100.569 85.4749 100.432 85.5201 100.303C85.5653 100.174 85.6365 100.055 85.7293 99.9544C85.8094 99.8768 85.9045 99.8163 86.0087 99.7766C86.113 99.7369 86.2243 99.7189 86.3357 99.7236C86.4468 99.7223 86.5568 99.7446 86.6586 99.789C86.7604 99.8334 86.8516 99.899 86.9261 99.9813C87.083 100.142 87.1698 100.358 87.1676 100.582C87.1671 100.82 87.1139 101.055 87.012 101.269C86.893 101.488 86.7585 101.698 86.6094 101.897L86.3518 102.279L86.2552 102.424L86.1157 102.644C86.1157 102.644 86.1157 102.687 86.1157 102.692H87.1461V103.229H85.477V102.746C85.5074 102.676 85.5452 102.609 85.5897 102.547C85.6219 102.493 85.6649 102.434 85.7078 102.37L85.842 102.171C85.9225 102.064 86.0513 101.892 86.2177 101.634C86.3607 101.442 86.483 101.235 86.5826 101.017C86.6427 100.886 86.6756 100.743 86.6792 100.599C86.6801 100.501 86.6479 100.407 86.588 100.33C86.5585 100.293 86.521 100.263 86.4782 100.243C86.4354 100.222 86.3885 100.212 86.3411 100.212C86.2684 100.213 86.198 100.238 86.1415 100.284C86.0849 100.33 86.0456 100.393 86.0298 100.464C86.007 100.53 85.9961 100.599 85.9976 100.668V100.803H85.4609L85.4663 100.706Z" fill="white"/>
<path d="M87.5273 102.687H88.064V103.223H87.5273V102.687Z" fill="white"/>
<path d="M90.0758 102.413C90.0758 102.633 89.9882 102.845 89.8322 103.001C89.6762 103.157 89.4646 103.245 89.244 103.245C89.0233 103.245 88.8118 103.157 88.6558 103.001C88.4997 102.845 88.4121 102.633 88.4121 102.413V100.513C88.4121 100.403 88.4338 100.294 88.4759 100.193C88.5181 100.092 88.5798 99.9997 88.6577 99.9224C88.7355 99.845 88.8278 99.7839 88.9293 99.7424C89.0309 99.7009 89.1397 99.6799 89.2493 99.6806C89.3587 99.6783 89.4674 99.6991 89.5682 99.7417C89.669 99.7842 89.7597 99.8475 89.8343 99.9275C89.9125 100.003 89.9743 100.094 90.0159 100.195C90.0574 100.296 90.0778 100.404 90.0758 100.513V102.413ZM89.5391 100.502C89.539 100.462 89.5309 100.422 89.5152 100.385C89.4995 100.348 89.4767 100.315 89.4479 100.287C89.4208 100.259 89.3882 100.237 89.3522 100.222C89.3162 100.208 89.2775 100.2 89.2386 100.201C89.1988 100.2 89.1593 100.207 89.1223 100.222C89.0854 100.237 89.0519 100.259 89.0239 100.287C88.9959 100.315 88.9739 100.349 88.9591 100.386C88.9443 100.423 88.9372 100.462 88.9381 100.502V102.407C88.9373 102.446 88.9445 102.485 88.9593 102.521C88.9741 102.557 88.9961 102.589 89.0239 102.617C89.0508 102.647 89.084 102.671 89.1211 102.686C89.1582 102.702 89.1983 102.709 89.2386 102.708C89.2781 102.709 89.3173 102.701 89.3534 102.686C89.3896 102.67 89.4219 102.646 89.4479 102.617C89.4765 102.59 89.4993 102.557 89.515 102.521C89.5307 102.485 89.5389 102.447 89.5391 102.407V100.502Z" fill="white"/>
<path d="M91.0903 100.25V100.996C91.1472 100.92 91.2231 100.861 91.3103 100.824C91.3688 100.813 91.4289 100.813 91.4874 100.824C91.5864 100.813 91.6866 100.83 91.7766 100.872C91.8667 100.915 91.9431 100.982 91.9973 101.066C92.1025 101.242 92.1512 101.446 92.1368 101.651V102.402C92.141 102.518 92.1218 102.634 92.0803 102.743C92.0388 102.852 91.9759 102.951 91.8953 103.035C91.8189 103.114 91.7268 103.175 91.6252 103.216C91.5235 103.257 91.4144 103.276 91.3049 103.272C91.1978 103.275 91.0913 103.254 90.993 103.212C90.8947 103.169 90.8069 103.105 90.7361 103.025C90.5885 102.866 90.5094 102.656 90.516 102.44V102.359L91.0151 102.316V102.44C91.0147 102.497 91.0307 102.553 91.0611 102.602C91.0915 102.65 91.1352 102.689 91.1869 102.713C91.216 102.731 91.2494 102.74 91.2835 102.74C91.4982 102.74 91.6055 102.627 91.6055 102.402V101.549C91.607 101.501 91.5976 101.453 91.5781 101.41C91.5586 101.366 91.5294 101.327 91.4928 101.296C91.4504 101.262 91.3969 101.245 91.3425 101.248C91.302 101.246 91.2617 101.255 91.2258 101.274C91.1899 101.293 91.1598 101.321 91.1386 101.355C91.1012 101.417 91.0809 101.487 91.0795 101.559V101.651H90.5429V99.7505H92.0832V100.287L91.0903 100.25Z" fill="white"/>
<path d="M74.8927 67.717C74.6722 67.7184 74.4536 67.6761 74.2495 67.5925C74.0454 67.5089 73.8598 67.3857 73.7036 67.23C73.5474 67.0742 73.4237 66.8891 73.3394 66.6852C73.2552 66.4814 73.2122 66.2629 73.2129 66.0423V60.5889H74.2541V66.0477C74.2527 66.1275 74.2677 66.2068 74.2982 66.2807C74.3287 66.3545 74.3739 66.4214 74.4312 66.4771C74.4881 66.5342 74.5559 66.5794 74.6305 66.6098C74.7052 66.6402 74.7853 66.6553 74.8659 66.6542C75.0268 66.6542 75.181 66.5903 75.2947 66.4765C75.4085 66.3628 75.4724 66.2085 75.4724 66.0477V60.5889H76.5833V66.0477C76.5869 66.27 76.5444 66.4906 76.4585 66.6957C76.3726 66.9008 76.2451 67.0859 76.0842 67.2393C75.929 67.3963 75.7431 67.5198 75.5381 67.602C75.3332 67.6842 75.1135 67.7233 74.8927 67.717Z" fill="white"/>
<path d="M79.2028 60.5888C79.4323 60.577 79.6617 60.6145 79.8756 60.6987C80.0894 60.783 80.2827 60.912 80.4426 61.0772C80.7337 61.4044 80.8875 61.8312 80.8719 62.2688V63.294C80.8769 63.5156 80.836 63.7358 80.752 63.9408C80.668 64.1458 80.5425 64.3313 80.3835 64.4856C80.2314 64.6453 80.0481 64.7719 79.845 64.8578C79.6419 64.9437 79.4233 64.9869 79.2028 64.9848H78.6124V67.6578H77.5391V60.5888H79.2028ZM79.8415 62.2849C79.8461 62.2038 79.8336 62.1227 79.8048 62.0467C79.776 61.9707 79.7316 61.9017 79.6744 61.844C79.6173 61.7863 79.5486 61.7412 79.4729 61.7118C79.3972 61.6823 79.3161 61.6691 79.235 61.673H78.6124V63.9328H79.2565C79.3368 63.9321 79.4162 63.9155 79.4902 63.8841C79.5642 63.8527 79.6312 63.8071 79.6875 63.7498C79.7439 63.6924 79.7883 63.6246 79.8184 63.5501C79.8485 63.4756 79.8636 63.3959 79.8629 63.3155L79.8415 62.2849Z" fill="white"/>
<path d="M85.0526 65.951C85.0575 66.1726 85.0167 66.3928 84.9327 66.5978C84.8486 66.8028 84.7232 66.9883 84.5642 67.1426C84.412 67.3023 84.2287 67.4289 84.0256 67.5148C83.8225 67.6007 83.604 67.6439 83.3835 67.6418H81.709V60.5835H83.3835C83.6036 60.5807 83.8219 60.6231 84.025 60.708C84.2281 60.793 84.4116 60.9187 84.5642 61.0773C84.7259 61.2341 84.8529 61.4231 84.937 61.632C85.0212 61.841 85.0605 62.0653 85.0526 62.2904V65.951ZM82.7824 66.5844H83.4425C83.5227 66.5848 83.6021 66.5688 83.676 66.5374C83.7498 66.506 83.8164 66.4599 83.8718 66.4019C83.9829 66.2845 84.0444 66.1288 84.0436 65.9671V62.2904C84.0449 62.2105 84.0299 62.1312 83.9995 62.0573C83.969 61.9835 83.9237 61.9167 83.8665 61.861C83.8138 61.8009 83.7485 61.7534 83.6751 61.7218C83.6018 61.6902 83.5223 61.6754 83.4425 61.6785H82.7985L82.7824 66.5844Z" fill="white"/>
<path d="M87.1615 66.0477L86.9039 67.6579H85.793L86.9952 60.605H88.4549L89.641 67.6579H88.5194L88.2725 66.0477H87.1615ZM87.6982 62.2313L87.3064 65.0117H88.0954L87.6982 62.2313Z" fill="white"/>
<path d="M90.6715 61.657H89.5391V60.5835H92.8612V61.657H91.7341V67.6579H90.6608L90.6715 61.657Z" fill="white"/>
<path d="M93.7148 67.6579V60.5835H96.7418V61.657H94.7775V63.584H96.2158V64.6575H94.7775V66.5844H96.7418V67.6579H93.7148Z" fill="white"/>
<path opacity="0.2" d="M93.366 115.198H76.5837C75.3596 115.198 74.3672 116.191 74.3672 117.415V121.027C74.3672 122.252 75.3596 123.244 76.5837 123.244H93.366C94.5902 123.244 95.5826 122.252 95.5826 121.027V117.415C95.5826 116.191 94.5902 115.198 93.366 115.198Z" fill="black"/>
<path d="M79.83 120.759C79.7204 120.76 79.6116 120.74 79.5102 120.698C79.4088 120.657 79.3168 120.595 79.2396 120.517C79.1619 120.441 79.1005 120.35 79.059 120.25C79.0175 120.149 78.9968 120.041 78.9981 119.932V118.032C78.9995 117.812 79.0874 117.6 79.243 117.444C79.3985 117.287 79.6093 117.198 79.83 117.195C79.9397 117.195 80.0483 117.217 80.1496 117.259C80.2508 117.301 80.3428 117.363 80.4201 117.441C80.4974 117.518 80.5586 117.611 80.6001 117.712C80.6416 117.814 80.6626 117.923 80.6619 118.032V118.429H80.1252V118.022C80.1238 117.941 80.0911 117.864 80.034 117.807C79.977 117.75 79.8999 117.717 79.8192 117.716C79.78 117.716 79.7412 117.724 79.7052 117.74C79.6692 117.755 79.6368 117.778 79.6099 117.807C79.5807 117.834 79.5575 117.868 79.5418 117.905C79.5261 117.942 79.5182 117.981 79.5187 118.022V119.927C79.5189 119.966 79.5272 120.005 79.5428 120.041C79.5585 120.077 79.5813 120.109 79.6099 120.136C79.6371 120.164 79.6697 120.186 79.7057 120.201C79.7417 120.216 79.7803 120.223 79.8192 120.222C79.8587 120.223 79.8979 120.216 79.9347 120.201C79.9714 120.187 80.0049 120.165 80.0334 120.138C80.0618 120.111 80.0845 120.078 80.1002 120.042C80.116 120.005 80.1245 119.966 80.1252 119.927V119.444H80.6619V119.932C80.6638 120.041 80.6434 120.149 80.6019 120.25C80.5603 120.351 80.4985 120.442 80.4203 120.517C80.3432 120.595 80.2512 120.657 80.1497 120.698C80.0483 120.74 79.9396 120.76 79.83 120.759Z" fill="white"/>
<path d="M81.6401 119.916L81.5113 120.716H80.9746L81.565 117.238H82.2895L82.8745 120.716H82.3378L82.2144 119.916H81.6401ZM81.9138 118.032L81.7206 119.406H82.107L81.9138 118.032Z" fill="white"/>
<path d="M83.8931 117.232L84.5854 119.573V117.232H85.1221V120.716H84.5586L83.8394 118.483V120.716H83.3027V117.232H83.8931Z" fill="white"/>
<path d="M86.4042 120.759C86.2946 120.76 86.1859 120.74 86.0844 120.698C85.983 120.657 85.891 120.595 85.8138 120.517C85.7362 120.441 85.6747 120.35 85.6332 120.25C85.5917 120.149 85.571 120.041 85.5723 119.932V118.032C85.5737 117.812 85.6616 117.6 85.8172 117.444C85.9727 117.287 86.1835 117.198 86.4042 117.195C86.5139 117.195 86.6225 117.217 86.7238 117.259C86.8251 117.301 86.917 117.363 86.9943 117.441C87.0716 117.518 87.1328 117.611 87.1743 117.712C87.2158 117.814 87.2368 117.923 87.2361 118.032V118.429H86.6994V118.022C86.698 117.941 86.6653 117.864 86.6083 117.807C86.5512 117.75 86.4742 117.717 86.3935 117.716C86.3542 117.716 86.3154 117.724 86.2795 117.74C86.2435 117.755 86.211 117.778 86.1841 117.807C86.1549 117.834 86.1317 117.868 86.116 117.905C86.1003 117.942 86.0924 117.981 86.0929 118.022V119.927C86.0932 119.966 86.1014 120.005 86.1171 120.041C86.1327 120.077 86.1556 120.109 86.1841 120.136C86.2113 120.164 86.2439 120.186 86.2799 120.201C86.3159 120.216 86.3546 120.223 86.3935 120.222C86.4329 120.223 86.4722 120.216 86.5089 120.201C86.5456 120.187 86.5792 120.165 86.6076 120.138C86.636 120.111 86.6587 120.078 86.6745 120.042C86.6902 120.005 86.6987 119.966 86.6994 119.927V119.444H87.2361V119.932C87.2381 120.041 87.2176 120.149 87.1761 120.25C87.1345 120.351 87.0728 120.442 86.9946 120.517C86.9174 120.595 86.8254 120.657 86.724 120.698C86.6225 120.74 86.5138 120.76 86.4042 120.759Z" fill="white"/>
<path d="M87.666 120.716V117.232H89.1634V117.769H88.192V118.719H88.9004V119.256H88.192V120.206H89.1634V120.743L87.666 120.716Z" fill="white"/>
<path d="M90.9564 120.716H89.5234V117.238H90.0601V120.195H90.9564V120.716Z" fill="white"/>
<g opacity="0.3">
<path d="M104.164 153.474H65.791C65.7015 153.474 65.6128 153.457 65.5301 153.422C65.4474 153.388 65.3723 153.338 65.309 153.275C65.2457 153.211 65.1955 153.136 65.1613 153.053C65.127 152.971 65.1094 152.882 65.1094 152.793C65.1108 152.613 65.1832 152.441 65.3109 152.314C65.4386 152.187 65.6111 152.116 65.791 152.116H104.164C104.344 152.116 104.517 152.187 104.644 152.314C104.772 152.441 104.845 152.613 104.846 152.793C104.846 152.973 104.774 153.147 104.646 153.275C104.518 153.402 104.345 153.474 104.164 153.474Z" fill="white"/>
<path d="M109.054 157.553H60.9023C60.7215 157.553 60.5482 157.482 60.4203 157.354C60.2925 157.226 60.2207 157.053 60.2207 156.872C60.2277 156.696 60.3027 156.53 60.4299 156.409C60.5572 156.288 60.7266 156.221 60.9023 156.222H109.054C109.143 156.222 109.231 156.239 109.314 156.272C109.396 156.306 109.471 156.356 109.534 156.419C109.597 156.482 109.647 156.557 109.68 156.639C109.714 156.721 109.731 156.81 109.73 156.899C109.725 157.074 109.651 157.241 109.525 157.363C109.399 157.485 109.23 157.554 109.054 157.553Z" fill="white"/>
<path d="M99.2765 161.628H70.6816C70.5923 161.628 70.5038 161.611 70.4212 161.578C70.3385 161.544 70.2633 161.494 70.2 161.431C70.1366 161.368 70.0863 161.294 70.052 161.211C70.0177 161.129 70 161.04 70 160.951C70 160.77 70.0718 160.597 70.1996 160.469C70.3275 160.341 70.5008 160.27 70.6816 160.27H99.2765C99.4572 160.27 99.6306 160.341 99.7584 160.469C99.8863 160.597 99.9581 160.77 99.9581 160.951C99.9581 161.04 99.9404 161.129 99.9061 161.211C99.8718 161.294 99.8215 161.368 99.7581 161.431C99.6948 161.494 99.6196 161.544 99.5369 161.578C99.4542 161.611 99.3657 161.628 99.2765 161.628Z" fill="white"/>
<path d="M109.054 169.781H60.9023C60.813 169.782 60.7245 169.765 60.6419 169.731C60.5592 169.697 60.484 169.647 60.4207 169.585C60.3573 169.522 60.307 169.447 60.2727 169.365C60.2384 169.282 60.2207 169.194 60.2207 169.104C60.2207 168.924 60.2925 168.75 60.4203 168.622C60.5482 168.495 60.7215 168.423 60.9023 168.423H109.054C109.144 168.421 109.234 168.438 109.318 168.472C109.401 168.505 109.477 168.555 109.541 168.619C109.605 168.682 109.656 168.758 109.69 168.842C109.725 168.925 109.742 169.014 109.741 169.104C109.742 169.194 109.725 169.284 109.69 169.367C109.656 169.45 109.605 169.525 109.541 169.588C109.477 169.651 109.401 169.701 109.317 169.734C109.233 169.767 109.144 169.783 109.054 169.781Z" fill="white"/>
</g>
<g opacity="0.1">
<path d="M81.1563 23.2522L59.2003 105.499L58.9534 106.422L58.5617 107.904L58.3094 108.827L46.8457 151.767V99.8149L68.3241 19.35H69.0271C69.3133 19.3556 69.5912 19.4465 69.8255 19.6109C70.0597 19.7754 70.2396 20.006 70.342 20.2733L71.1846 22.3559C71.2896 22.6201 71.4706 22.8473 71.7046 23.0088C71.9386 23.1702 72.2152 23.2587 72.4995 23.263L81.1563 23.2522Z" fill="white"/>
<path d="M123.11 65.2532V117.232L109.413 168.53L109.086 169.775L106.827 178.24H92.9531L95.2126 169.781L95.5722 168.423L97.3862 161.627L97.7458 160.269L98.4757 157.548L98.8352 156.19L99.5598 153.474L99.9247 152.111L111.34 109.358V109.348L111.866 107.378V107.372L123.11 65.2532Z" fill="white"/>
<path d="M88.6761 23.2523L66.8542 104.984L66.7254 105.472L65.5286 109.954L65.3998 110.443L47.4851 177.693C47.2879 177.497 47.1321 177.263 47.027 177.006C46.9218 176.749 46.8696 176.473 46.8732 176.195V168.262L62.3084 110.443L62.4373 109.954L63.6341 105.472L63.7629 104.984L85.5525 23.2523H88.6761Z" fill="white"/>
</g>
<path d="M163.407 162.025C162.549 160.613 161.132 161.842 161.132 161.842C161.336 159.131 158.84 157.274 158.84 157.274C158.84 157.274 161.738 157.274 162.146 154.51C162.554 151.746 161.132 153.029 159.806 153.012C158.481 152.996 157.09 156.872 158.84 159.051C160.59 161.23 160.123 164.955 156.082 168.535C155.113 169.439 154.387 170.573 153.972 171.831C154.278 168.541 154.45 163.909 153.479 160.812C151.836 155.557 154.971 154.145 155.878 151.515C156.785 148.885 153.479 146.684 153.479 146.684C153.479 146.684 156.586 145.272 155.089 143.651C153.591 142.03 150.436 142.256 150.436 144.371C150.436 146.486 152.582 147.291 152.582 147.291C152.582 147.291 155.008 149.819 155.008 151.134C155.008 152.449 152.582 155.278 152.582 155.278C152.582 155.278 153.693 152.857 151.471 152.749C149.249 152.642 148.541 155.578 149.448 156.893C150.355 158.208 151.874 157.097 151.874 157.097C151.969 158.63 152.201 160.152 152.566 161.643C152.797 162.4 152.69 165.363 152.496 168.45C152.081 167.328 151.406 166.32 150.527 165.508C146.48 161.923 146.013 158.203 147.763 156.018C149.512 153.834 148.128 149.964 146.797 149.98C145.466 149.996 144.054 148.713 144.462 151.477C144.87 154.242 147.763 154.242 147.763 154.242C147.763 154.242 145.267 156.099 145.471 158.809C145.471 158.809 144.054 157.58 143.196 158.992C141.666 161.52 145.219 163.087 145.815 161.842C145.815 161.842 153.355 167.183 151.536 174.864L151.96 175.486C151.901 176.104 151.868 176.479 151.868 176.479L152.459 176.227L153.13 177.215C153.103 178.33 153.161 179.446 153.301 180.553L155.105 177.87C153.285 170.189 160.82 164.853 160.82 164.853C161.389 166.12 164.948 164.553 163.407 162.025Z" fill="#C7C7C7"/>
<path opacity="0.2" d="M163.407 162.025C162.549 160.613 161.132 161.842 161.132 161.842C161.336 159.131 158.84 157.274 158.84 157.274C158.84 157.274 161.738 157.274 162.146 154.51C162.554 151.746 161.132 153.029 159.806 153.012C158.481 152.996 157.09 156.872 158.84 159.051C160.59 161.23 160.123 164.955 156.082 168.535C155.113 169.439 154.387 170.573 153.972 171.831C154.278 168.541 154.45 163.909 153.479 160.812C151.836 155.557 154.971 154.145 155.878 151.515C156.785 148.885 153.479 146.684 153.479 146.684C153.479 146.684 156.586 145.272 155.089 143.651C153.591 142.03 150.436 142.256 150.436 144.371C150.436 146.486 152.582 147.291 152.582 147.291C152.582 147.291 155.008 149.819 155.008 151.134C155.008 152.449 152.582 155.278 152.582 155.278C152.582 155.278 153.693 152.857 151.471 152.749C149.249 152.642 148.541 155.578 149.448 156.893C150.355 158.208 151.874 157.097 151.874 157.097C151.969 158.63 152.201 160.152 152.566 161.643C152.797 162.4 152.69 165.363 152.496 168.45C152.081 167.328 151.406 166.32 150.527 165.508C146.48 161.923 146.013 158.203 147.763 156.018C149.512 153.834 148.128 149.964 146.797 149.98C145.466 149.996 144.054 148.713 144.462 151.477C144.87 154.242 147.763 154.242 147.763 154.242C147.763 154.242 145.267 156.099 145.471 158.809C145.471 158.809 144.054 157.58 143.196 158.992C141.666 161.52 145.219 163.087 145.815 161.842C145.815 161.842 153.355 167.183 151.536 174.864L151.96 175.486C151.901 176.104 151.868 176.479 151.868 176.479L152.459 176.227L153.13 177.215C153.103 178.33 153.161 179.446 153.301 180.553L155.105 177.87C153.285 170.189 160.82 164.853 160.82 164.853C161.389 166.12 164.948 164.553 163.407 162.025Z" fill="#C7C7C7"/>
<g opacity="0.3">
<path d="M163.407 162.025C162.549 160.613 161.132 161.842 161.132 161.842C161.336 159.131 158.84 157.274 158.84 157.274C158.84 157.274 161.738 157.274 162.146 154.51C162.554 151.746 161.132 153.029 159.806 153.012C158.481 152.996 157.09 156.872 158.84 159.051C160.59 161.23 160.123 164.955 156.082 168.535C155.113 169.439 154.387 170.573 153.972 171.831C154.278 168.541 154.45 163.909 153.479 160.812C151.836 155.557 154.971 154.145 155.878 151.515C156.785 148.885 153.479 146.684 153.479 146.684C153.479 146.684 156.586 145.272 155.089 143.651C153.591 142.03 150.436 142.256 150.436 144.371C150.436 146.486 152.582 147.291 152.582 147.291C152.582 147.291 155.008 149.819 155.008 151.134C155.008 152.449 152.582 155.278 152.582 155.278C152.582 155.278 153.693 152.857 151.471 152.749C149.249 152.642 148.541 155.578 149.448 156.893C150.355 158.208 151.874 157.097 151.874 157.097C151.969 158.63 152.201 160.152 152.566 161.643C152.797 162.4 152.69 165.363 152.496 168.45C152.081 167.328 151.406 166.32 150.527 165.508C146.48 161.923 146.013 158.203 147.763 156.018C149.512 153.834 148.128 149.964 146.797 149.98C145.466 149.996 144.054 148.713 144.462 151.477C144.87 154.242 147.763 154.242 147.763 154.242C147.763 154.242 145.267 156.099 145.471 158.809C145.471 158.809 144.054 157.58 143.196 158.992C141.666 161.52 145.219 163.087 145.815 161.842C145.815 161.842 153.355 167.183 151.536 174.864L151.96 175.486C151.901 176.104 151.868 176.479 151.868 176.479L152.459 176.227L153.13 177.215C153.103 178.33 153.161 179.446 153.301 180.553L155.105 177.87C153.285 170.189 160.82 164.853 160.82 164.853C161.389 166.12 164.948 164.553 163.407 162.025Z" fill="black"/>
<path opacity="0.2" d="M163.407 162.025C162.549 160.613 161.132 161.842 161.132 161.842C161.336 159.131 158.84 157.274 158.84 157.274C158.84 157.274 161.738 157.274 162.146 154.51C162.554 151.746 161.132 153.029 159.806 153.012C158.481 152.996 157.09 156.872 158.84 159.051C160.59 161.23 160.123 164.955 156.082 168.535C155.113 169.439 154.387 170.573 153.972 171.831C154.278 168.541 154.45 163.909 153.479 160.812C151.836 155.557 154.971 154.145 155.878 151.515C156.785 148.885 153.479 146.684 153.479 146.684C153.479 146.684 156.586 145.272 155.089 143.651C153.591 142.03 150.436 142.256 150.436 144.371C150.436 146.486 152.582 147.291 152.582 147.291C152.582 147.291 155.008 149.819 155.008 151.134C155.008 152.449 152.582 155.278 152.582 155.278C152.582 155.278 153.693 152.857 151.471 152.749C149.249 152.642 148.541 155.578 149.448 156.893C150.355 158.208 151.874 157.097 151.874 157.097C151.969 158.63 152.201 160.152 152.566 161.643C152.797 162.4 152.69 165.363 152.496 168.45C152.081 167.328 151.406 166.32 150.527 165.508C146.48 161.923 146.013 158.203 147.763 156.018C149.512 153.834 148.128 149.964 146.797 149.98C145.466 149.996 144.054 148.713 144.462 151.477C144.87 154.242 147.763 154.242 147.763 154.242C147.763 154.242 145.267 156.099 145.471 158.809C145.471 158.809 144.054 157.58 143.196 158.992C141.666 161.52 145.219 163.087 145.815 161.842C145.815 161.842 153.355 167.183 151.536 174.864L151.96 175.486C151.901 176.104 151.868 176.479 151.868 176.479L152.459 176.227L153.13 177.215C153.103 178.33 153.161 179.446 153.301 180.553L155.105 177.87C153.285 170.189 160.82 164.853 160.82 164.853C161.389 166.12 164.948 164.553 163.407 162.025Z" fill="black"/>
</g>
<path d="M161.938 194.788H144.673L142.811 175.884H163.801L161.938 194.788Z" fill="#C7C7C7"/>
<path opacity="0.3" d="M161.938 194.788H144.673L142.811 175.884H163.801L161.938 194.788Z" fill="white"/>
<path d="M164.723 173.796H141.887V177.966H164.723V173.796Z" fill="#C7C7C7"/>
<path opacity="0.5" d="M164.723 173.796H141.887V177.966H164.723V173.796Z" fill="white"/>
<path d="M31.8613 67.0353C33.8954 67.1319 42.4234 78.5862 42.4234 78.5862L45.5899 74.464C45.5899 74.464 50.4738 83.9538 48.0587 88.4679C45.6435 92.982 32.9132 80.642 32.9132 80.642L31.8613 67.0353Z" fill="black"/>
<path opacity="0.2" d="M32.6992 76.1762L32.9139 80.642C32.9139 80.642 35.007 82.6709 37.6529 84.7803C37.9051 79.4128 32.9139 71.6084 32.9139 71.6084L32.6992 76.1762Z" fill="black"/>
<path opacity="0.2" d="M42.4234 78.5862L41.9672 79.4557L43.2982 84.6247C43.2982 84.6247 39.6326 81.2914 41.9672 78.0226L42.4234 78.5862Z" fill="black"/>
<path d="M32.227 95.6765L15.0529 97.0023C15.0529 97.0023 14.8222 86.7449 13.4429 81.4042C12.9974 79.6759 12.4392 77.7328 11.7308 75.4999C11.4303 74.5445 11.1029 73.5354 10.7433 72.4565C10.3837 71.3776 10.0563 70.3847 9.66992 69.236C12.0189 68.4867 14.4188 67.9074 16.8508 67.5023C19.4187 67.0462 22.0156 66.7717 24.6221 66.681C27.9872 66.6542 31.8567 67.0353 31.8567 67.0353C31.8567 67.0353 32.3934 67.1695 32.753 70.7335C33.075 74.099 32.9247 83.4868 32.227 95.6765Z" fill="black"/>
<path d="M10.668 182.577L13.2602 184.101C14.4761 182.465 15.7917 180.906 17.1995 179.432C17.9509 178.637 18.7398 177.757 19.5609 176.812C21.2032 174.928 22.9797 172.776 24.842 170.462L26.5111 168.374C32.9943 160.205 40.0142 150.608 42.6547 144.119C43.4705 142.1 43.8676 140.388 43.6905 139.105C43.1539 135.23 41.6511 129.395 39.9337 123.759C37.3147 115.171 34.3682 106.98 34.3682 106.98L27.0907 119.245C27.0907 119.245 29.3126 124.543 31.3359 130.184C33.327 135.724 35.125 141.601 34.4595 143.131C34.3951 143.281 34.3146 143.458 34.2233 143.668C33.0211 146.158 29.6936 151.799 25.9153 158.031L24.7615 159.926C22.7328 163.254 20.6236 166.673 18.67 169.813C17.9079 171.047 17.1673 172.239 16.4642 173.366C13.1367 178.696 10.668 182.577 10.668 182.577Z" fill="#EEC1BB"/>
<path opacity="0.2" d="M26.661 168.369C23.2369 172.663 19.947 176.581 17.4997 179.426C17.1509 177.676 16.7967 175.605 16.5176 173.345C19.3459 168.804 22.8076 163.2 25.9526 158.01C25.8859 161.477 26.1229 164.943 26.661 168.369Z" fill="black"/>
<path d="M13.7375 132.879C14.6338 138.993 15.8843 144.532 16.743 147.833C17.2421 149.814 17.5802 150.984 17.5802 150.984C17.5923 157.262 17.9615 163.534 18.6858 169.77C18.9595 172.228 19.2547 174.601 19.5606 176.785C20.6877 184.912 21.8738 190.741 21.8738 190.741L24.9597 190.338L24.8417 170.43L24.7773 159.878L24.6914 145.52L24.6592 143.018L24.5089 132.101L24.2889 115.998L13.5551 111.167C12.1167 117.313 12.6534 125.515 13.7375 132.879Z" fill="#EEC1BB"/>
<path opacity="0.2" d="M39.9714 123.979L30.633 128.225C28.8351 123.394 27.1016 119.245 27.1016 119.245L34.3415 106.98C34.3415 106.98 37.288 115.144 39.907 123.759L39.9714 123.979Z" fill="black"/>
<path opacity="0.2" d="M24.4757 129.728L13.4091 130.458C12.5611 123.765 12.2713 116.664 13.554 111.21L24.2878 116.041L24.4757 129.728Z" fill="black"/>
<path d="M10.9035 180.881C11.2201 180.65 13.8928 184.638 13.8928 184.638C13.8928 184.638 13.2971 188.814 14.5047 191.503C15.7122 194.192 13.3669 193.967 11.4187 191.417L6.58848 185.11C5.21992 183.312 7.62966 183.264 10.9035 180.881Z" fill="#407BFF"/>
<path d="M14.8 187.676C14.1936 187.537 13.8018 185.803 13.7266 185.459C13.7213 185.444 13.7213 185.427 13.7266 185.411C13.7232 185.399 13.7232 185.386 13.7266 185.374V185.341C13.7405 185.336 13.7557 185.336 13.7696 185.341C13.8232 185.341 14.9557 184.966 15.5621 185.341C15.6558 185.393 15.737 185.464 15.8001 185.55C15.8631 185.637 15.9065 185.736 15.9271 185.84C15.9608 185.927 15.9665 186.021 15.9434 186.111C15.9203 186.201 15.8695 186.281 15.7983 186.34C15.589 186.479 15.1811 186.34 14.7786 186.179C15.0394 186.433 15.2251 186.754 15.3152 187.107C15.327 187.177 15.324 187.248 15.3064 187.317C15.2889 187.385 15.2571 187.449 15.2133 187.504C15.1712 187.571 15.1137 187.627 15.0455 187.668C14.9773 187.708 14.9005 187.731 14.8215 187.735L14.8 187.676ZM14.8591 187.429C14.8591 187.429 14.9557 187.456 15.0791 187.3C15.1011 187.271 15.1168 187.237 15.1251 187.201C15.1334 187.165 15.1342 187.127 15.1274 187.091C15.0791 186.694 14.478 186.114 14.054 185.76C14.2472 186.506 14.5746 187.354 14.8591 187.429ZM14.1614 185.481C14.8054 185.883 15.5192 186.205 15.7017 186.082C15.7553 186.044 15.7392 185.921 15.7017 185.846C15.6884 185.775 15.6599 185.709 15.6182 185.65C15.5765 185.592 15.5226 185.543 15.4602 185.508C15.2803 185.419 15.0807 185.379 14.8805 185.39C14.6383 185.396 14.3974 185.426 14.1614 185.481Z" fill="black"/>
<path d="M20.7834 188.798C20.7834 188.406 25.6136 188.712 25.6136 188.712C25.6136 188.712 28.5708 191.718 31.4421 192.394C34.3134 193.071 32.7087 194.794 29.4993 194.794H21.5401C19.2592 194.794 20.6868 192.85 20.7834 188.798Z" fill="#407BFF"/>
<path d="M26.1296 189.329C26.1151 189.323 26.1022 189.314 26.092 189.302C26.0892 189.29 26.0892 189.277 26.092 189.265C26.0897 189.252 26.0897 189.24 26.092 189.227C26.0891 189.21 26.0891 189.191 26.092 189.174C26.092 189.115 26.516 188.003 27.1654 187.735C27.263 187.69 27.3692 187.667 27.4767 187.667C27.5842 187.667 27.6904 187.69 27.788 187.735C28.008 187.842 28.11 187.977 28.1046 188.138C28.1046 188.39 27.745 188.648 27.3532 188.857C27.7145 188.793 28.0865 188.832 28.4266 188.97C28.4892 189.004 28.5443 189.051 28.5885 189.107C28.6327 189.164 28.6653 189.228 28.6842 189.297C28.7256 189.387 28.7364 189.488 28.7151 189.585C28.6938 189.682 28.6415 189.769 28.5662 189.834C28.4435 189.923 28.2931 189.965 28.1422 189.952C27.4396 189.866 26.7581 189.655 26.1296 189.329ZM26.5697 189.249C27.2781 189.549 28.1798 189.818 28.3837 189.63C28.3837 189.63 28.4642 189.565 28.4159 189.378C28.4062 189.341 28.3893 189.308 28.3663 189.278C28.3432 189.249 28.3145 189.224 28.2817 189.206C28.1029 189.127 27.9079 189.092 27.7128 189.104C27.3226 189.114 26.9344 189.163 26.5536 189.249H26.5697ZM27.2352 187.971C26.8566 188.216 26.5683 188.578 26.414 189.002C27.1225 188.733 27.8094 188.358 27.8202 188.143C27.8202 188.073 27.7182 188.014 27.6538 187.982C27.584 187.947 27.5067 187.928 27.4284 187.928C27.3618 187.93 27.2961 187.944 27.2352 187.971Z" fill="black"/>
<path d="M23.1998 70.5134C18.9331 69.9766 17.6504 68.1409 17.6504 68.1409C19.3946 66.4984 19.078 64.0723 18.6325 62.5587C18.4941 62.0789 18.3146 61.612 18.0958 61.1631L23.232 62.1239C23.1136 62.8338 23.0472 63.5513 23.0334 64.2709C23.0143 64.8116 23.063 65.3526 23.1783 65.8812C23.5272 67.4163 24.402 67.4377 24.402 67.4377C25.3143 69.1178 23.1998 70.5134 23.1998 70.5134Z" fill="#EEC1BB"/>
<path opacity="0.2" d="M23.044 64.287C23.0249 64.8277 23.0735 65.3687 23.1889 65.8973C21.1495 65.6289 19.6038 63.9972 18.6324 62.5801C18.494 62.1004 18.3144 61.6334 18.0957 61.1846L23.2318 62.1454C23.1173 62.8537 23.0545 63.5695 23.044 64.287Z" fill="black"/>
<path d="M18.6214 44.8994C11.3546 45.4845 7.07718 64.3836 17.3548 62.5801C20.3764 62.0433 32.9188 52.4301 28.1208 48.7748C25.3763 46.6247 22.0866 45.2827 18.6214 44.8994Z" fill="black"/>
<path d="M23.94 48.4742C28.3624 49.1129 29.4411 51.6947 29.1083 56.2947C28.6897 62.0487 26.8435 65.9134 21.4873 63.9005C14.2098 61.1631 16.5927 47.4114 23.94 48.4742Z" fill="#EEC1BB"/>
<path d="M26.285 55.6345C26.5424 56.3458 26.8848 57.0235 27.3047 57.6527C27.15 57.8171 26.9526 57.9353 26.7347 57.9941C26.5167 58.0528 26.2867 58.0499 26.0703 57.9855L26.285 55.6345Z" fill="#D4827D"/>
<path d="M23.6286 54.8831C23.5856 55.2481 23.3548 55.5165 23.0919 55.4896C22.8289 55.4628 22.6893 55.1407 22.7323 54.7757C22.7752 54.4107 23.0114 54.137 23.269 54.1692C23.5266 54.2014 23.6715 54.5181 23.6286 54.8831Z" fill="#455A64"/>
<path d="M23.166 54.1747L23.9925 53.96C23.9925 53.96 23.5202 54.5772 23.166 54.1747Z" fill="#455A64"/>
<path d="M28.1637 55.3501C28.1208 55.7151 27.89 55.9888 27.627 55.9566C27.364 55.9244 27.2245 55.6131 27.2674 55.2481C27.3104 54.8831 27.5465 54.6094 27.8041 54.6362C28.0617 54.6631 28.2174 54.9851 28.1637 55.3501Z" fill="#455A64"/>
<path d="M27.707 54.6416L28.5389 54.4269C28.5389 54.4269 28.0612 55.0495 27.707 54.6416Z" fill="#455A64"/>
<path d="M24.0263 51.8182C23.6831 51.726 23.3234 51.7134 22.9747 51.7813C22.6259 51.8492 22.2972 51.9958 22.0137 52.21" fill="#455A64"/>
<path d="M24.0263 51.8182C23.6831 51.726 23.3234 51.7134 22.9747 51.7813C22.6259 51.8492 22.2972 51.9958 22.0137 52.21" stroke="#455A64" stroke-width="0.707962" stroke-linecap="round" stroke-linejoin="round"/>
<path d="M27.2676 52.0921C27.581 52.059 27.8979 52.0974 28.1944 52.2043C28.4909 52.3112 28.7594 52.4839 28.9796 52.7093" fill="#455A64"/>
<path d="M27.2676 52.0921C27.581 52.059 27.8979 52.0974 28.1944 52.2043C28.4909 52.3112 28.7594 52.4839 28.9796 52.7093" stroke="#455A64" stroke-width="0.707962" stroke-linecap="round" stroke-linejoin="round"/>
<path d="M18.025 55.232C18.025 55.232 20.6172 51.8988 20.7085 49.0433C20.7085 49.0433 29.9932 46.7298 29.1399 55.6936C29.1399 55.6936 31.1364 47.9161 23.5583 46.6386C15.9802 45.3611 14.4346 56.4934 17.8533 60.3795C17.8533 60.3795 16.4203 57.32 18.025 55.232Z" fill="black"/>
<path d="M18.6153 56.2733C18.6462 55.7547 18.4704 55.245 18.1264 54.8557C17.7824 54.4664 17.2982 54.2292 16.7798 54.1961C15.3898 54.1478 14.3271 56.8798 17.6385 58.0392C18.1162 58.2056 18.4597 57.7655 18.6153 56.2733Z" fill="#EEC1BB"/>
<path d="M25.1309 60.299C25.1309 60.299 23.2149 60.4546 22.6836 58.6887" stroke="#455A64" stroke-width="0.707962" stroke-linecap="round" stroke-linejoin="round"/>
<path d="M18.6211 44.8995C18.6211 44.8995 25.1043 44.0514 29.1617 47.9805C33.2191 51.9095 21.2938 51.2708 21.2938 51.2708L24.3154 49.8913C24.3154 49.8913 20.5317 50.9648 18.8948 50.4281L18.6211 44.8995Z" fill="black"/>
<path d="M13.7968 56.429C13.7968 56.429 11.8326 59.8695 13.7968 62.8432C13.3771 63.8104 13.3122 64.8948 13.6136 65.9053C13.915 66.9157 14.5634 67.7873 15.4445 68.3664C15.4445 68.3664 14.8649 70.1699 17.6503 72.3491C17.6503 72.3491 18.5197 75.1885 17.8328 77.2174L19.8507 76.2245C19.8507 76.2245 19.8507 73.6749 18.6217 72.1881C18.6217 72.1881 19.2711 68.1463 17.6503 66.8205C17.6503 66.8205 18.3748 64.2709 18.1065 63.1598C18.1065 63.1598 17.2961 58.3559 17.1673 57.8406C17.1673 57.846 14.4355 57.4971 13.7968 56.429Z" fill="black"/>
<path d="M28.5388 47.7175C28.5388 47.7175 30.5675 48.8286 30.2509 50.3154C29.9342 51.8022 25.1309 52.0813 25.1309 52.0813" stroke="black" stroke-width="0.488465" stroke-linecap="round" stroke-linejoin="round"/>
<path d="M34.9689 74.6035C34.9603 74.6658 34.9654 74.7292 34.9837 74.7894C35.002 74.8495 35.0332 74.905 35.075 74.9519C35.1169 74.9989 35.1684 75.0362 35.2261 75.0613C35.2837 75.0864 35.3461 75.0987 35.409 75.0973H40.3143C40.4468 75.0889 40.5724 75.0353 40.6701 74.9454C40.7677 74.8555 40.8316 74.7348 40.851 74.6035L41.9244 64.9419C41.9363 64.8117 41.8961 64.682 41.8126 64.5814C41.7291 64.4808 41.6091 64.4174 41.4789 64.4052H36.5736C36.4378 64.4238 36.3119 64.4863 36.215 64.5833C36.1181 64.6802 36.0555 64.8061 36.0369 64.9419L34.9689 74.6035Z" fill="#407BFF"/>
<path opacity="0.5" d="M36.6048 64.856L35.4938 74.6357C35.4794 74.6929 35.4786 74.7528 35.4916 74.8103C35.5047 74.8679 35.531 74.9216 35.5687 74.9671C35.6063 75.0126 35.6541 75.0486 35.7083 75.0721C35.7624 75.0957 35.8213 75.1061 35.8803 75.1026H40.0396C40.3187 75.1026 40.8285 74.947 40.8607 74.6732L41.9717 64.8614C42.0039 64.5876 41.5262 64.3676 41.2472 64.3676H37.0878C36.9605 64.3729 36.8399 64.4263 36.7503 64.5169C36.6607 64.6075 36.6087 64.7286 36.6048 64.856Z" fill="white"/>
<path opacity="0.6" d="M25.4805 97.8718C25.4805 98.0437 25.5315 98.2118 25.627 98.3548C25.7226 98.4978 25.8583 98.6093 26.0172 98.6751C26.1761 98.7409 26.3509 98.7581 26.5195 98.7246C26.6882 98.691 26.8431 98.6082 26.9647 98.4866C27.0863 98.365 27.1691 98.2101 27.2027 98.0414C27.2362 97.8727 27.219 97.6979 27.1532 97.539C27.0874 97.3801 26.9759 97.2443 26.833 97.1488C26.69 97.0532 26.5219 97.0022 26.3499 97.0022C26.2355 97.0015 26.1222 97.0235 26.0164 97.0669C25.9106 97.1104 25.8144 97.1744 25.7335 97.2553C25.6527 97.3362 25.5887 97.4323 25.5452 97.5382C25.5018 97.644 25.4798 97.7574 25.4805 97.8718Z" fill="white"/>
<path d="M45.24 75.4086L42.6854 71.0717C42.6854 71.0717 42.6854 68.7904 42.4653 68.2537C42.2453 67.7169 39.7389 66.5039 39.2452 66.6864C38.7514 66.8689 38.5743 71.34 39.0251 71.9412C39.476 72.5424 41.0377 73.2187 41.0377 73.2187L40.9304 74.0667L42.4224 78.5862L45.24 75.4086Z" fill="#EEC1BB"/>
<path d="M46.2711 74.9147L45.4178 74.0667L41.3926 78.5807L41.9668 80.3735L46.2711 74.9147Z" fill="black"/>
<path d="M41.2756 122.466L28.0892 127.152L27.6491 125.944L27.1124 124.457L26.887 126.604L26.7152 128.252H10.7004C10.7004 128.252 10.6521 127.791 10.6038 126.964C10.3099 121.699 10.5255 116.418 11.2478 111.194C11.8452 106.673 12.984 102.239 14.6397 97.9899C14.7739 97.6571 14.9134 97.3297 15.0529 97.0023L32.2271 95.6765L32.372 96.5031L33.4453 102.67L35.4955 107.855L40.5565 120.657L41.2756 122.466Z" fill="#407BFF"/>
<path opacity="0.2" d="M25.8776 82.1502C25.8776 82.1502 21.144 92.9336 15.0364 96.4279C14.9613 94.1789 14.6232 85.9934 13.4264 81.3988C13.1097 80.1642 12.734 78.817 12.2832 77.3302L14.1455 75.0919C14.1455 75.0919 15.4336 79.0854 14.8647 82.5528L21.9866 78.189L25.8776 82.1502Z" fill="black"/>
<path d="M21.293 79.6543L27.0892 75.0973C27.4263 74.1098 27.839 73.1497 28.3236 72.2257C28.6778 71.7963 33.771 69.9176 34.195 69.8693C34.619 69.821 34.195 74.0453 33.5617 74.7591C32.9284 75.473 28.8174 76.9062 28.8174 76.9062L22.7313 82.6387L21.293 79.6543Z" fill="#EEC1BB"/>
<path d="M9.67425 69.2682C6.26089 70.9751 4.74206 90.2553 10.6671 93.5832C16.5922 96.911 25.4798 81.8443 25.4798 81.8443L22.0396 78.1944C22.0396 78.1944 14.8211 84.2329 13.9517 83.68C13.0822 83.1272 14.0697 77.239 14.0697 77.239C14.0697 77.239 15.0841 75.457 12.9481 72.6444C10.812 69.8318 9.67425 69.2682 9.67425 69.2682Z" fill="black"/>
<path d="M25.5177 83.1808L26.5481 82.5635L22.6839 76.8954L21.2617 77.6844L25.5177 83.1808Z" fill="black"/>
<path opacity="0.2" d="M18.8188 98.5642C18.8188 98.5642 16.8706 109.299 11.2461 111.194C11.8435 106.673 12.9823 102.239 14.638 97.9899L18.8188 98.5642Z" fill="black"/>
<path opacity="0.2" d="M35.5 107.855C30.9972 105.66 31.0723 97.0022 31.0723 97.0022L32.3711 96.5031L33.4445 102.67L35.5 107.855Z" fill="black"/>
<path opacity="0.2" d="M26.8813 126.604L26.7096 128.252H10.7001C10.7001 128.252 10.6518 127.79 10.6035 126.964L26.8813 126.604Z" fill="black"/>
<path opacity="0.2" d="M41.275 122.466L28.0885 127.152L27.6484 125.944L40.5612 120.657L41.275 122.466Z" fill="black"/>
<path opacity="0.2" d="M27.0898 124.457L27.4333 120.072L31.056 112.96C31.056 112.96 32.1991 117.061 30.3959 120.716C28.5926 124.371 27.0898 124.457 27.0898 124.457Z" fill="black"/>
<path opacity="0.5" d="M15.0527 97.0023L14.3281 98.7897L32.6132 97.8718L32.2268 95.6765L15.0527 97.0023Z" fill="black"/>
<path d="M24.7009 96.3366L24.9156 98.3495C24.9278 98.4549 24.9806 98.5514 25.0627 98.6186C25.1449 98.6857 25.25 98.7182 25.3557 98.7091L28.0392 98.4998C28.0928 98.495 28.145 98.4798 28.1927 98.4548C28.2404 98.4298 28.2827 98.3956 28.3171 98.3542C28.3516 98.3128 28.3774 98.2649 28.3933 98.2134C28.4091 98.162 28.4146 98.1079 28.4095 98.0543L28.2216 96.0736C28.2121 95.9673 28.1612 95.8689 28.0799 95.7997C27.9986 95.7304 27.8934 95.6958 27.7869 95.7033L25.1035 95.8858C25.0468 95.887 24.991 95.8999 24.9395 95.9236C24.888 95.9473 24.842 95.9814 24.8042 96.0237C24.7665 96.066 24.7378 96.1156 24.72 96.1694C24.7023 96.2233 24.6958 96.2802 24.7009 96.3366Z" fill="black"/>
<path d="M20.2205 96.5781L20.0058 98.9398H19.3457L19.4477 96.5781H20.2205Z" fill="#407BFF"/>
<path d="M29.8535 95.8589L30.1165 98.3334H30.7283L30.5137 95.757L29.8535 95.8589Z" fill="#407BFF"/>
</g>
<defs>
<clipPath id="clip0_1071_10770">
<rect width="196.763" height="200" fill="white"/>
</clipPath>
</defs>
</svg>
