<svg width="359" height="200" viewBox="0 0 359 200" fill="none" xmlns="http://www.w3.org/2000/svg">
<g clip-path="url(#clip0_1067_17489)">
<path d="M121.405 47.5656V41.9068C121.405 41.6425 121.3 41.3891 121.113 41.2023C120.926 41.0154 120.673 40.9104 120.409 40.9104H118.956C118.748 40.9112 118.547 40.842 118.384 40.7142C118.222 40.5863 118.107 40.4072 118.058 40.2059C117.566 38.0468 116.715 35.9853 115.543 34.1067C115.432 33.928 115.383 33.7173 115.405 33.508C115.427 33.2986 115.518 33.1025 115.664 32.9507L116.688 31.9269C116.781 31.8347 116.855 31.725 116.905 31.6041C116.956 31.4831 116.982 31.3533 116.982 31.2223C116.982 31.0912 116.956 30.9615 116.905 30.8405C116.855 30.7196 116.781 30.6098 116.688 30.5177L112.697 26.5268C112.605 26.4336 112.495 26.3596 112.374 26.3091C112.253 26.2586 112.123 26.2326 111.992 26.2326C111.861 26.2326 111.731 26.2586 111.61 26.3091C111.489 26.3596 111.38 26.4336 111.288 26.5268L110.264 27.5452C110.113 27.6936 109.917 27.7865 109.707 27.8085C109.497 27.8305 109.286 27.7803 109.108 27.6663C107.228 26.4958 105.167 25.6457 103.009 25.1507C102.807 25.1023 102.628 24.9874 102.5 24.8246C102.372 24.6617 102.303 24.4605 102.304 24.2534V22.7947C102.304 22.5304 102.199 22.277 102.012 22.0902C101.825 21.9033 101.572 21.7983 101.308 21.7983H95.6654C95.4007 21.7983 95.1467 21.9031 94.959 22.0898C94.7712 22.2765 94.665 22.5299 94.6636 22.7947V24.2424C94.6656 24.449 94.5976 24.6501 94.4707 24.8131C94.3437 24.976 94.1653 25.0911 93.9645 25.1397C91.8037 25.6322 89.7404 26.4825 87.8599 27.6553C87.6821 27.7693 87.4707 27.8195 87.2606 27.7975C87.0505 27.7755 86.8542 27.6826 86.7039 27.5342L85.691 26.5268C85.5032 26.3396 85.2489 26.2345 84.9837 26.2345C84.7185 26.2345 84.4641 26.3396 84.2763 26.5268L80.2855 30.5012C80.1923 30.5933 80.1183 30.703 80.0678 30.824C80.0173 30.9449 79.9913 31.0747 79.9913 31.2058C79.9913 31.3368 80.0173 31.4666 80.0678 31.5875C80.1183 31.7085 80.1923 31.8182 80.2855 31.9104L81.3038 32.9342C81.4518 33.0836 81.5445 33.279 81.5665 33.4882C81.5885 33.6973 81.5386 33.9077 81.4249 34.0847C80.2553 35.9668 79.4053 38.0296 78.9093 40.1893C78.8619 40.3911 78.7472 40.5708 78.5842 40.6989C78.4211 40.8269 78.2194 40.8957 78.0121 40.8939H76.5643C76.2996 40.8939 76.0456 40.9987 75.8579 41.1854C75.6701 41.3721 75.564 41.6255 75.5625 41.8903V47.5656C75.5639 47.8308 75.67 48.0848 75.8575 48.2724C76.0451 48.4599 76.2991 48.566 76.5643 48.5674H78.0176C78.2234 48.5656 78.4238 48.6338 78.5858 48.7608C78.7478 48.8878 78.8619 49.0661 78.9093 49.2665C79.4068 51.424 80.2568 53.4847 81.4249 55.3656C81.539 55.5434 81.5891 55.7548 81.5671 55.9649C81.5451 56.1749 81.4523 56.3713 81.3038 56.5216L80.2855 57.5455C80.0982 57.7333 79.9931 57.9876 79.9931 58.2528C79.9931 58.518 80.0982 58.7724 80.2855 58.9602L84.2708 62.9455C84.4586 63.1327 84.713 63.2379 84.9782 63.2379C85.2434 63.2379 85.4977 63.1327 85.6855 62.9455L86.7094 61.9272C86.86 61.7796 87.0559 61.6869 87.2655 61.664C87.4751 61.641 87.6863 61.6891 87.8654 61.8005C89.7411 62.9636 91.7964 63.8081 93.948 64.2996C94.1495 64.3434 94.3302 64.4544 94.4603 64.6145C94.5903 64.7746 94.662 64.9742 94.6636 65.1804V66.6336C94.665 66.8984 94.7712 67.1518 94.959 67.3385C95.1467 67.5252 95.4007 67.63 95.6654 67.63H101.308C101.572 67.63 101.825 67.525 102.012 67.3381C102.199 67.1513 102.304 66.8979 102.304 66.6336V65.1804C102.302 64.9731 102.371 64.7714 102.499 64.6083C102.627 64.4453 102.807 64.3306 103.009 64.2831C105.167 63.7881 107.228 62.938 109.108 61.7675C109.286 61.6554 109.497 61.6064 109.707 61.6283C109.916 61.6503 110.112 61.742 110.264 61.8886L111.288 62.9125C111.38 63.0057 111.489 63.0797 111.61 63.1302C111.731 63.1807 111.861 63.2067 111.992 63.2067C112.123 63.2067 112.253 63.1807 112.374 63.1302C112.495 63.0797 112.605 63.0057 112.697 62.9125L116.688 58.9271C116.875 58.7393 116.98 58.485 116.98 58.2198C116.98 57.9546 116.875 57.7002 116.688 57.5124L115.664 56.4886C115.515 56.3383 115.422 56.1419 115.4 55.9318C115.378 55.7217 115.429 55.5104 115.543 55.3326C116.713 53.4529 117.563 51.3918 118.058 49.2335C118.106 49.0322 118.221 48.8532 118.384 48.7261C118.547 48.5989 118.749 48.5313 118.956 48.5344H120.409C120.668 48.5331 120.916 48.4315 121.102 48.2508C121.288 48.0702 121.397 47.8245 121.405 47.5656ZM98.4838 60.6556C95.3372 60.6578 92.2606 59.7267 89.6431 57.9803C87.0257 56.2338 84.985 53.7503 83.779 50.844C82.5731 47.9376 82.2562 44.7389 82.8683 41.6524C83.4805 38.5659 84.9942 35.7302 87.218 33.5041C89.4419 31.2779 92.2759 29.7613 95.3618 29.1459C98.4477 28.5306 101.647 28.8442 104.554 30.0471C107.462 31.25 109.948 33.2882 111.697 35.9038C113.446 38.5194 114.38 41.595 114.381 44.7417C114.38 48.9575 112.704 53.0002 109.723 55.9812C106.742 58.9622 102.7 60.6376 98.4838 60.6391V60.6556Z" stroke="#E0E0E0" stroke-width="0.789569" stroke-miterlimit="10"/>
<path d="M147.343 66.6501V62.7969C147.343 62.6173 147.272 62.4451 147.145 62.3181C147.018 62.1912 146.846 62.1198 146.666 62.1198H145.692C145.55 62.1208 145.412 62.0733 145.301 61.9852C145.19 61.8971 145.112 61.7737 145.081 61.6354C144.744 60.1648 144.166 58.7603 143.369 57.4794C143.291 57.3583 143.257 57.2144 143.272 57.0713C143.287 56.9282 143.35 56.7945 143.451 56.6923L144.145 55.9987C144.209 55.9357 144.259 55.8607 144.294 55.778C144.328 55.6953 144.346 55.6066 144.346 55.517C144.346 55.4274 144.328 55.3387 144.294 55.256C144.259 55.1733 144.209 55.0983 144.145 55.0354L141.426 52.3161C141.298 52.1887 141.124 52.1171 140.944 52.1171C140.763 52.1171 140.59 52.1887 140.462 52.3161L139.769 53.0096C139.666 53.1108 139.533 53.1741 139.39 53.1891C139.246 53.2041 139.103 53.17 138.982 53.0922C137.701 52.2942 136.296 51.7156 134.826 51.3803C134.688 51.3478 134.566 51.2697 134.479 51.1587C134.392 51.0476 134.345 50.9103 134.347 50.7693V49.7674C134.347 49.5864 134.275 49.4128 134.147 49.2848C134.019 49.1568 133.845 49.0848 133.664 49.0848H129.811C129.721 49.0848 129.633 49.1025 129.55 49.1369C129.468 49.1713 129.393 49.2216 129.33 49.2851C129.267 49.3486 129.217 49.4238 129.184 49.5066C129.15 49.5894 129.133 49.678 129.134 49.7674V50.7527C129.134 50.8936 129.087 51.0304 129 51.1412C128.913 51.252 128.792 51.3304 128.655 51.3638C127.182 51.6991 125.776 52.2777 124.493 53.0757C124.372 53.1534 124.228 53.1876 124.085 53.1726C123.942 53.1576 123.808 53.0943 123.706 52.9931L123.013 52.2996C122.885 52.1722 122.711 52.1006 122.531 52.1006C122.35 52.1006 122.177 52.1722 122.049 52.2996L119.33 55.0188C119.203 55.1468 119.131 55.32 119.131 55.5005C119.131 55.681 119.203 55.8542 119.33 55.9821L120.029 56.6757C120.129 56.7785 120.192 56.9122 120.207 57.055C120.222 57.1978 120.188 57.3415 120.112 57.4629C119.315 58.7447 118.735 60.1488 118.394 61.6189C118.363 61.7572 118.285 61.8806 118.174 61.9687C118.063 62.0568 117.925 62.1043 117.783 62.1033H116.798C116.708 62.1026 116.62 62.1196 116.537 62.1533C116.454 62.187 116.379 62.2367 116.315 62.2997C116.252 62.3626 116.202 62.4375 116.167 62.52C116.133 62.6025 116.115 62.691 116.115 62.7804V66.6336C116.115 66.723 116.133 66.8115 116.167 66.894C116.202 66.9765 116.252 67.0514 116.315 67.1143C116.379 67.1773 116.454 67.227 116.537 67.2607C116.62 67.2944 116.708 67.3114 116.798 67.3107H117.783C117.925 67.3097 118.063 67.3572 118.174 67.4453C118.285 67.5334 118.363 67.6568 118.394 67.7951C118.735 69.2652 119.315 70.6693 120.112 71.9511C120.188 72.0725 120.222 72.2162 120.207 72.359C120.192 72.5019 120.129 72.6355 120.029 72.7383L119.33 73.4374C119.203 73.5653 119.131 73.7385 119.131 73.919C119.131 74.0996 119.203 74.2727 119.33 74.4007L122.049 77.12C122.177 77.2474 122.35 77.3189 122.531 77.3189C122.711 77.3189 122.885 77.2474 123.013 77.12L123.712 76.4209C123.814 76.3206 123.948 76.2579 124.091 76.2429C124.234 76.2279 124.377 76.2615 124.499 76.3383C125.779 77.1372 127.184 77.7159 128.655 78.0502C128.792 78.0836 128.913 78.162 129 78.2728C129.087 78.3836 129.134 78.5205 129.134 78.6613V79.6521C129.133 79.7415 129.15 79.8301 129.184 79.9129C129.217 79.9957 129.267 80.071 129.33 80.1344C129.393 80.1979 129.468 80.2482 129.55 80.2826C129.633 80.317 129.721 80.3347 129.811 80.3347H133.664C133.845 80.3347 134.019 80.2628 134.147 80.1347C134.275 80.0067 134.347 79.8331 134.347 79.6521V78.6613C134.345 78.5202 134.392 78.3829 134.479 78.2719C134.566 78.1609 134.688 78.0827 134.826 78.0502C136.296 77.7149 137.701 77.1363 138.982 76.3383C139.103 76.2615 139.247 76.2279 139.389 76.2429C139.532 76.2579 139.666 76.3206 139.769 76.4209L140.462 77.12C140.59 77.2474 140.763 77.3189 140.944 77.3189C141.124 77.3189 141.298 77.2474 141.426 77.12L144.145 74.4007C144.209 74.3377 144.259 74.2627 144.294 74.18C144.328 74.0973 144.346 74.0086 144.346 73.919C144.346 73.8294 144.328 73.7407 144.294 73.658C144.259 73.5753 144.209 73.5003 144.145 73.4374L143.451 72.7438C143.349 72.642 143.285 72.5082 143.27 72.3649C143.255 72.2215 143.29 72.0773 143.369 71.9566C144.166 70.6758 144.744 69.2713 145.081 67.8006C145.112 67.6623 145.19 67.5389 145.301 67.4508C145.412 67.3627 145.55 67.3152 145.692 67.3162H146.682C146.857 67.312 147.024 67.2403 147.147 67.1161C147.27 66.9919 147.34 66.825 147.343 66.6501ZM131.726 74.9566C129.704 74.9577 127.726 74.359 126.043 73.236C124.361 72.1131 123.049 70.5165 122.274 68.6481C121.499 66.7796 121.295 64.7233 121.689 62.7391C122.082 60.7549 123.055 58.932 124.485 57.5009C125.915 56.0698 127.736 55.0947 129.72 54.699C131.704 54.3033 133.76 54.5047 135.63 55.2778C137.499 56.0509 139.097 57.361 140.222 59.0423C141.347 60.7236 141.947 62.7007 141.949 64.7235C141.95 67.4341 140.875 70.0345 138.961 71.9533C137.046 73.872 134.448 74.9523 131.737 74.9566H131.726Z" fill="#E0E0E0"/>
<path d="M76.3053 152.39H73.1621C72.9615 152.39 72.7988 152.553 72.7988 152.754V155.897C72.7988 156.097 72.9615 156.26 73.1621 156.26H76.3053C76.5059 156.26 76.6686 156.097 76.6686 155.897V152.754C76.6686 152.553 76.5059 152.39 76.3053 152.39Z" fill="#E0E0E0"/>
<path d="M81.4791 152.39H78.336C78.1353 152.39 77.9727 152.553 77.9727 152.754V155.897C77.9727 156.097 78.1353 156.26 78.336 156.26H81.4791C81.6798 156.26 81.8424 156.097 81.8424 155.897V152.754C81.8424 152.553 81.6798 152.39 81.4791 152.39Z" fill="#E0E0E0"/>
<path d="M86.6549 152.39H83.5117C83.3111 152.39 83.1484 152.553 83.1484 152.754V155.897C83.1484 156.097 83.3111 156.26 83.5117 156.26H86.6549C86.8555 156.26 87.0182 156.097 87.0182 155.897V152.754C87.0182 152.553 86.8555 152.39 86.6549 152.39Z" fill="#E0E0E0"/>
<path d="M216.508 0.214722H142.03C135.539 0.214722 130.277 5.47645 130.277 11.9671V177.745C130.277 184.235 135.539 189.497 142.03 189.497H216.508C222.998 189.497 228.26 184.235 228.26 177.745V11.9671C228.26 5.47645 222.998 0.214722 216.508 0.214722Z" fill="#FF6C37"/>
<path d="M216.129 1.87708H142.405C136.72 1.87708 132.111 6.48571 132.111 12.1707V176.517C132.111 182.202 136.72 186.811 142.405 186.811H216.129C221.814 186.811 226.422 182.202 226.422 176.517V12.1707C226.422 6.48571 221.814 1.87708 216.129 1.87708Z" fill="white"/>
<path d="M222.3 11.846V176.005C222.3 176.921 222.121 177.829 221.77 178.675C221.42 179.522 220.906 180.291 220.259 180.939C219.611 181.586 218.842 182.1 217.995 182.45C217.149 182.8 216.241 182.98 215.325 182.98H143.215C142.299 182.98 141.392 182.801 140.546 182.451C139.7 182.101 138.931 181.588 138.283 180.94C137.636 180.293 137.122 179.525 136.771 178.679C136.421 177.833 136.24 176.926 136.24 176.011V11.846C136.24 10.9303 136.421 10.0237 136.771 9.17781C137.122 8.33195 137.636 7.56346 138.283 6.91627C138.931 6.26908 139.7 5.75587 140.546 5.40597C141.392 5.05608 142.299 4.87636 143.215 4.87708H155.237C155.565 4.87633 155.886 4.96714 156.165 5.13928C156.445 5.31141 156.67 5.55804 156.817 5.8514L158.094 8.40005C158.379 8.97514 158.819 9.45891 159.365 9.79652C159.91 10.1341 160.54 10.3121 161.182 10.3102H197.358C198 10.3121 198.63 10.1341 199.175 9.79652C199.721 9.45891 200.161 8.97514 200.446 8.40005L201.723 5.8514C201.87 5.55804 202.095 5.31141 202.375 5.13928C202.654 4.96714 202.975 4.87633 203.303 4.87708H215.325C216.241 4.87636 217.148 5.05608 217.994 5.40597C218.84 5.75587 219.609 6.26908 220.257 6.91627C220.904 7.56346 221.418 8.33195 221.769 9.17781C222.119 10.0237 222.3 10.9303 222.3 11.846Z" fill="#FFF3EE"/>
<path d="M194.451 7.33221H165.315C164.99 7.33221 164.678 7.20288 164.447 6.97267C164.217 6.74246 164.088 6.43023 164.088 6.10467C164.088 5.77911 164.217 5.46688 164.447 5.23667C164.678 5.00647 164.99 4.87714 165.315 4.87714H194.451C194.613 4.87714 194.772 4.90889 194.921 4.97058C195.07 5.03227 195.205 5.12269 195.319 5.23667C195.433 5.35066 195.524 5.48598 195.586 5.63491C195.647 5.78385 195.679 5.94347 195.679 6.10467C195.679 6.26587 195.647 6.4255 195.586 6.57443C195.524 6.72336 195.433 6.85868 195.319 6.97267C195.205 7.08666 195.07 7.17708 194.921 7.23877C194.772 7.30045 194.613 7.33221 194.451 7.33221Z" fill="#E0E0E0"/>
<path d="M210.85 145.157H146.011C143.464 145.157 141.398 147.223 141.398 149.77V172.664C141.398 175.212 143.464 177.277 146.011 177.277H210.85C213.398 177.277 215.463 175.212 215.463 172.664V149.77C215.463 147.223 213.398 145.157 210.85 145.157Z" stroke="#698BD1" stroke-linecap="round" stroke-linejoin="round" stroke-dasharray="2.84 2.84"/>
<path d="M207.564 75.9034H175.395C173.559 75.9034 172.07 77.392 172.07 79.2282V95.1311C172.07 96.9674 173.559 98.4559 175.395 98.4559H207.564C209.4 98.4559 210.889 96.9674 210.889 95.1311V79.2282C210.889 77.392 209.4 75.9034 207.564 75.9034Z" stroke="#407BFF" stroke-linecap="round" stroke-linejoin="round" stroke-dasharray="2.84 2.84"/>
<path d="M214.483 103.867H148.053C145.864 103.867 144.09 105.641 144.09 107.83V135.849C144.09 138.038 145.864 139.812 148.053 139.812H214.483C216.672 139.812 218.446 138.038 218.446 135.849V107.83C218.446 105.641 216.672 103.867 214.483 103.867Z" fill="#FFBCA4"/>
<path d="M215.463 104.918V132.954C215.463 133.473 215.361 133.987 215.162 134.467C214.963 134.947 214.671 135.383 214.304 135.75C213.936 136.117 213.5 136.408 213.02 136.607C212.54 136.805 212.025 136.907 211.506 136.906H145.356C144.837 136.907 144.322 136.805 143.842 136.607C143.362 136.408 142.926 136.117 142.558 135.75C142.19 135.383 141.899 134.947 141.7 134.467C141.501 133.987 141.398 133.473 141.398 132.954V104.918C141.398 103.869 141.815 102.862 142.558 102.12C143.3 101.378 144.307 100.961 145.356 100.961H211.506C212.555 100.961 213.562 101.378 214.304 102.12C215.046 102.862 215.463 103.869 215.463 104.918Z" fill="white"/>
<path d="M166.978 109.14H147.492C146.014 109.14 144.816 110.338 144.816 111.816V131.302C144.816 132.78 146.014 133.977 147.492 133.977H166.978C168.456 133.977 169.653 132.78 169.653 131.302V111.816C169.653 110.338 168.456 109.14 166.978 109.14Z" fill="#FF8F60"/>
<path d="M190.081 112.289H172.918C172.693 112.289 172.478 112.2 172.319 112.041C172.16 111.882 172.07 111.666 172.07 111.441C172.072 111.218 172.162 111.003 172.321 110.846C172.479 110.688 172.694 110.599 172.918 110.599H190.081C190.305 110.599 190.519 110.688 190.677 110.846C190.835 111.004 190.924 111.218 190.924 111.441C190.924 111.552 190.903 111.663 190.861 111.765C190.819 111.868 190.757 111.962 190.679 112.04C190.601 112.119 190.508 112.182 190.405 112.224C190.303 112.267 190.193 112.289 190.081 112.289Z" fill="#FF6C37"/>
<path d="M182.258 115.663H172.9C172.676 115.663 172.46 115.574 172.301 115.415C172.142 115.256 172.053 115.041 172.053 114.816C172.053 114.705 172.075 114.595 172.117 114.492C172.16 114.39 172.223 114.297 172.301 114.218C172.38 114.14 172.474 114.078 172.576 114.036C172.679 113.994 172.789 113.973 172.9 113.974H182.258C182.369 113.973 182.48 113.994 182.582 114.036C182.685 114.078 182.779 114.14 182.857 114.218C182.936 114.297 182.999 114.39 183.041 114.492C183.084 114.595 183.106 114.705 183.106 114.816C183.106 115.041 183.017 115.256 182.858 115.415C182.699 115.574 182.483 115.663 182.258 115.663Z" fill="#FF6C37"/>
<path d="M210.977 115.663H185.699C185.474 115.663 185.259 115.574 185.1 115.415C184.941 115.256 184.852 115.041 184.852 114.816C184.852 114.705 184.874 114.595 184.916 114.492C184.959 114.39 185.021 114.297 185.1 114.218C185.179 114.14 185.272 114.078 185.375 114.036C185.478 113.994 185.588 113.973 185.699 113.974H210.977C211.087 113.973 211.197 113.994 211.3 114.036C211.402 114.078 211.495 114.14 211.574 114.219C211.652 114.297 211.714 114.39 211.756 114.493C211.798 114.595 211.82 114.705 211.819 114.816C211.82 114.927 211.798 115.037 211.756 115.14C211.714 115.243 211.652 115.336 211.574 115.415C211.496 115.494 211.403 115.556 211.3 115.599C211.198 115.641 211.088 115.663 210.977 115.663Z" fill="#FF6C37"/>
<path d="M187.373 119.038H172.918C172.693 119.038 172.478 118.948 172.319 118.789C172.16 118.631 172.07 118.415 172.07 118.19C172.07 118.079 172.092 117.969 172.135 117.867C172.178 117.764 172.24 117.671 172.319 117.593C172.398 117.514 172.491 117.452 172.594 117.41C172.697 117.368 172.807 117.347 172.918 117.348H187.373C187.597 117.348 187.811 117.437 187.969 117.595C188.127 117.752 188.215 117.967 188.215 118.19C188.215 118.414 188.127 118.629 187.969 118.788C187.811 118.946 187.597 119.036 187.373 119.038Z" fill="#FF6C37"/>
<path d="M199.637 119.038H190.554C190.333 119.032 190.123 118.94 189.969 118.782C189.815 118.623 189.728 118.411 189.729 118.19C189.729 118.079 189.75 117.969 189.793 117.867C189.836 117.764 189.898 117.671 189.977 117.593C190.056 117.514 190.149 117.452 190.252 117.41C190.355 117.368 190.465 117.347 190.576 117.348H199.637C199.748 117.347 199.858 117.368 199.961 117.41C200.064 117.452 200.157 117.514 200.236 117.593C200.315 117.671 200.377 117.764 200.42 117.867C200.463 117.969 200.485 118.079 200.485 118.19C200.485 118.415 200.395 118.631 200.236 118.789C200.077 118.948 199.862 119.038 199.637 119.038Z" fill="#FF6C37"/>
<path d="M210.976 119.038H202.609C202.385 119.038 202.169 118.948 202.01 118.789C201.851 118.631 201.762 118.415 201.762 118.19C201.762 118.079 201.784 117.969 201.826 117.867C201.869 117.764 201.932 117.671 202.01 117.593C202.089 117.514 202.183 117.452 202.285 117.41C202.388 117.368 202.498 117.347 202.609 117.348H210.976C211.087 117.347 211.197 117.368 211.3 117.41C211.402 117.453 211.495 117.515 211.574 117.593C211.652 117.671 211.714 117.764 211.756 117.867C211.798 117.969 211.819 118.079 211.819 118.19C211.819 118.301 211.798 118.411 211.756 118.514C211.714 118.617 211.652 118.71 211.574 118.789C211.496 118.868 211.403 118.93 211.3 118.973C211.198 119.016 211.088 119.038 210.976 119.038Z" fill="#FF6C37"/>
<path d="M210.977 122.429H172.918C172.693 122.429 172.478 122.339 172.319 122.18C172.16 122.021 172.07 121.806 172.07 121.581C172.07 121.47 172.092 121.36 172.135 121.257C172.178 121.155 172.24 121.062 172.319 120.983C172.398 120.905 172.491 120.843 172.594 120.801C172.697 120.759 172.807 120.738 172.918 120.739H210.977C211.088 120.738 211.198 120.759 211.3 120.801C211.403 120.843 211.496 120.905 211.574 120.984C211.653 121.062 211.715 121.155 211.757 121.258C211.799 121.36 211.82 121.47 211.819 121.581C211.82 121.692 211.799 121.802 211.757 121.905C211.715 122.008 211.653 122.101 211.575 122.18C211.496 122.259 211.403 122.321 211.301 122.364C211.198 122.407 211.088 122.429 210.977 122.429Z" fill="#FF6C37"/>
<path d="M193.863 125.787H172.918C172.693 125.787 172.478 125.697 172.319 125.538C172.16 125.379 172.07 125.164 172.07 124.939C172.07 124.714 172.16 124.498 172.319 124.339C172.478 124.18 172.693 124.091 172.918 124.091H193.863C194.088 124.091 194.304 124.18 194.463 124.339C194.622 124.498 194.711 124.714 194.711 124.939C194.711 125.164 194.622 125.379 194.463 125.538C194.304 125.697 194.088 125.787 193.863 125.787Z" fill="#FF6C37"/>
<path d="M210.977 125.787H197.215C196.99 125.787 196.774 125.697 196.615 125.538C196.456 125.379 196.367 125.164 196.367 124.939C196.367 124.714 196.456 124.498 196.615 124.339C196.774 124.18 196.99 124.091 197.215 124.091H210.977C211.088 124.091 211.198 124.113 211.3 124.156C211.403 124.198 211.496 124.261 211.574 124.34C211.652 124.418 211.714 124.512 211.756 124.615C211.798 124.718 211.819 124.828 211.819 124.939C211.819 125.05 211.798 125.16 211.756 125.263C211.714 125.366 211.652 125.459 211.574 125.538C211.496 125.617 211.403 125.679 211.3 125.722C211.198 125.765 211.088 125.787 210.977 125.787Z" fill="#FF6C37"/>
<path d="M185.226 129.155H172.918C172.807 129.156 172.697 129.135 172.594 129.093C172.491 129.051 172.398 128.989 172.319 128.911C172.24 128.832 172.178 128.739 172.135 128.637C172.092 128.534 172.07 128.424 172.07 128.313C172.07 128.202 172.092 128.092 172.135 127.989C172.177 127.886 172.24 127.792 172.319 127.714C172.397 127.635 172.491 127.573 172.594 127.53C172.696 127.487 172.807 127.465 172.918 127.465H185.226C185.45 127.467 185.664 127.557 185.822 127.716C185.98 127.874 186.069 128.089 186.069 128.313C186.069 128.536 185.98 128.751 185.822 128.909C185.664 129.067 185.45 129.155 185.226 129.155Z" fill="#FF6C37"/>
<path d="M200.86 129.155H188.557C188.446 129.156 188.336 129.135 188.233 129.093C188.13 129.051 188.036 128.989 187.958 128.911C187.879 128.832 187.816 128.739 187.774 128.637C187.731 128.534 187.709 128.424 187.709 128.313C187.709 128.202 187.731 128.092 187.774 127.989C187.816 127.886 187.879 127.792 187.957 127.714C188.036 127.635 188.129 127.573 188.232 127.53C188.335 127.487 188.445 127.465 188.557 127.465H200.86C200.971 127.465 201.081 127.487 201.184 127.53C201.287 127.573 201.38 127.635 201.459 127.714C201.538 127.792 201.6 127.886 201.643 127.989C201.685 128.092 201.707 128.202 201.707 128.313C201.707 128.424 201.685 128.534 201.643 128.637C201.6 128.739 201.537 128.832 201.459 128.911C201.38 128.989 201.286 129.051 201.184 129.093C201.081 129.135 200.971 129.156 200.86 129.155Z" fill="#FF6C37"/>
<path d="M210.976 129.155H203.82C203.709 129.156 203.599 129.135 203.496 129.093C203.394 129.051 203.3 128.989 203.221 128.911C203.142 128.832 203.08 128.739 203.037 128.637C202.995 128.534 202.973 128.424 202.973 128.313C202.973 128.202 202.995 128.092 203.037 127.989C203.08 127.886 203.142 127.792 203.221 127.714C203.3 127.635 203.393 127.573 203.496 127.53C203.599 127.487 203.709 127.465 203.82 127.465H210.976C211.087 127.465 211.197 127.487 211.3 127.53C211.403 127.573 211.496 127.635 211.574 127.714C211.652 127.793 211.714 127.886 211.756 127.989C211.798 128.092 211.819 128.202 211.819 128.313C211.819 128.424 211.798 128.534 211.756 128.636C211.714 128.739 211.652 128.832 211.574 128.91C211.495 128.989 211.402 129.051 211.3 129.093C211.197 129.135 211.087 129.156 210.976 129.155Z" fill="#FF6C37"/>
<path d="M190.081 132.53H172.918C172.807 132.53 172.697 132.509 172.594 132.467C172.491 132.425 172.398 132.363 172.319 132.285C172.24 132.207 172.178 132.114 172.135 132.011C172.092 131.908 172.07 131.799 172.07 131.687C172.07 131.463 172.16 131.247 172.319 131.088C172.478 130.929 172.693 130.84 172.918 130.84H190.081C190.193 130.84 190.303 130.862 190.405 130.904C190.508 130.947 190.601 131.01 190.679 131.088C190.757 131.167 190.819 131.261 190.861 131.363C190.903 131.466 190.924 131.576 190.924 131.687C190.924 131.798 190.903 131.908 190.861 132.011C190.819 132.113 190.757 132.206 190.679 132.285C190.6 132.363 190.507 132.425 190.405 132.467C190.302 132.509 190.192 132.53 190.081 132.53Z" fill="#FF6C37"/>
<path d="M210.976 112.289H193.813C193.588 112.289 193.372 112.2 193.213 112.041C193.054 111.882 192.965 111.666 192.965 111.441C192.966 111.218 193.056 111.003 193.215 110.846C193.374 110.688 193.589 110.599 193.813 110.599H210.976C211.199 110.599 211.414 110.688 211.572 110.846C211.73 111.004 211.818 111.218 211.818 111.441C211.819 111.552 211.798 111.663 211.756 111.765C211.714 111.868 211.652 111.962 211.574 112.04C211.495 112.119 211.402 112.182 211.3 112.224C211.197 112.267 211.087 112.289 210.976 112.289Z" fill="#FF6C37"/>
<path d="M215.463 104.918V106.096H141.398V104.918C141.398 103.869 141.815 102.862 142.558 102.12C143.3 101.378 144.307 100.961 145.356 100.961H211.506C212.555 100.961 213.562 101.378 214.304 102.12C215.046 102.862 215.463 103.869 215.463 104.918Z" fill="#FF6C37"/>
<path d="M201.504 103.619C201.514 103.746 201.497 103.873 201.456 103.992C201.414 104.112 201.348 104.222 201.262 104.315C201.176 104.408 201.072 104.482 200.955 104.533C200.839 104.583 200.714 104.61 200.587 104.61C200.461 104.61 200.335 104.583 200.219 104.533C200.103 104.482 199.999 104.408 199.913 104.315C199.826 104.222 199.761 104.112 199.719 103.992C199.677 103.873 199.661 103.746 199.671 103.619C199.689 103.388 199.793 103.173 199.963 103.016C200.133 102.858 200.356 102.771 200.587 102.771C200.819 102.771 201.042 102.858 201.212 103.016C201.382 103.173 201.486 103.388 201.504 103.619Z" fill="#E0E0E0"/>
<path d="M206.198 103.619C206.199 103.801 206.146 103.98 206.046 104.132C205.945 104.283 205.802 104.402 205.634 104.473C205.466 104.543 205.281 104.562 205.103 104.527C204.924 104.492 204.76 104.405 204.631 104.277C204.501 104.148 204.413 103.985 204.377 103.806C204.342 103.628 204.359 103.443 204.429 103.274C204.498 103.106 204.616 102.962 204.767 102.861C204.919 102.76 205.097 102.706 205.279 102.706C205.521 102.706 205.754 102.802 205.927 102.973C206.099 103.144 206.196 103.376 206.198 103.619Z" fill="#E0E0E0"/>
<path d="M210.887 103.619C210.888 103.802 210.835 103.98 210.735 104.132C210.634 104.284 210.491 104.403 210.322 104.473C210.154 104.543 209.969 104.562 209.79 104.527C209.611 104.491 209.447 104.404 209.318 104.275C209.189 104.146 209.102 103.982 209.066 103.803C209.031 103.624 209.05 103.439 209.12 103.27C209.19 103.102 209.309 102.959 209.461 102.858C209.613 102.758 209.791 102.704 209.974 102.706C210.216 102.706 210.448 102.802 210.62 102.973C210.791 103.145 210.887 103.377 210.887 103.619Z" fill="#E0E0E0"/>
<path d="M164.325 75.9255H149.666C147.493 75.9255 145.73 77.6876 145.73 79.8613V94.5202C145.73 96.6938 147.493 98.456 149.666 98.456H164.325C166.499 98.456 168.261 96.6938 168.261 94.5202V79.8613C168.261 77.6876 166.499 75.9255 164.325 75.9255Z" stroke="#407BFF" stroke-width="0.895593" stroke-miterlimit="10"/>
<path d="M153.481 83.9347L150.238 87.1769L153.508 90.4522" stroke="#407BFF" stroke-width="1.6716" stroke-linecap="round" stroke-linejoin="round"/>
<path d="M160.51 83.9347L163.758 87.1769L160.488 90.4522" stroke="#407BFF" stroke-width="1.6716" stroke-linecap="round" stroke-linejoin="round"/>
<path d="M158.517 83.9347L155.479 90.4522" stroke="#407BFF" stroke-width="1.6716" stroke-linecap="round" stroke-linejoin="round"/>
<path d="M210.961 16.4313H145.901C143.414 16.4313 141.398 18.4473 141.398 20.9341V66.7712C141.398 69.2581 143.414 71.274 145.901 71.274H210.961C213.447 71.274 215.463 69.2581 215.463 66.7712V20.9341C215.463 18.4473 213.447 16.4313 210.961 16.4313Z" fill="#FF6C37"/>
<path d="M200.463 41.6481C206.391 41.6481 211.197 36.8423 211.197 30.914C211.197 24.9858 206.391 20.18 200.463 20.18C194.534 20.18 189.729 24.9858 189.729 30.914C189.729 36.8423 194.534 41.6481 200.463 41.6481Z" fill="#F0F4FF"/>
<path d="M184.935 71.2741H145.901C144.707 71.2741 143.562 70.7997 142.717 69.9552C141.873 69.1108 141.398 67.9655 141.398 66.7713V59.5547L158.463 29.9673C158.666 29.6139 158.959 29.3204 159.311 29.1163C159.664 28.9122 160.064 28.8047 160.472 28.8047C160.88 28.8047 161.28 28.9122 161.633 29.1163C161.985 29.3204 162.278 29.6139 162.481 29.9673L175.417 52.3051L184.995 68.8961C185.205 69.2596 185.31 69.674 185.3 70.0936C185.289 70.5132 185.163 70.9217 184.935 71.2741Z" fill="white"/>
<path d="M201.766 71.2741H164.439L175.416 52.3051L181.295 42.061C181.478 41.7431 181.741 41.4791 182.058 41.2955C182.376 41.1119 182.736 41.0152 183.103 41.0152C183.47 41.0152 183.83 41.1119 184.147 41.2955C184.465 41.4791 184.728 41.7431 184.911 42.061L201.766 71.2741Z" fill="#F0F4FF"/>
<path d="M275.804 156.447H247.025V199.692H275.804V156.447Z" fill="#455A64"/>
<path d="M275.798 199.692H286.818V156.447H275.798V199.692Z" fill="#5E7783"/>
<path d="M285.471 158.104H277.379V159.486H285.471V158.104Z" fill="white"/>
<path d="M285.471 161.071H277.379V162.453H285.471V161.071Z" fill="white"/>
<path d="M285.471 164.038H277.379V165.42H285.471V164.038Z" fill="white"/>
<path d="M285.471 167H277.379V168.381H285.471V167Z" fill="white"/>
<path d="M285.471 169.967H277.379V171.348H285.471V169.967Z" fill="white"/>
<path d="M285.471 172.928H277.379V174.31H285.471V172.928Z" fill="white"/>
<path d="M285.471 175.895H277.379V177.277H285.471V175.895Z" fill="white"/>
<path d="M285.471 178.862H277.379V180.244H285.471V178.862Z" fill="white"/>
<path d="M285.471 181.824H277.379V183.205H285.471V181.824Z" fill="white"/>
<path d="M285.471 184.791H277.379V186.172H285.471V184.791Z" fill="white"/>
<path d="M285.471 187.758H277.379V189.139H285.471V187.758Z" fill="white"/>
<path d="M285.471 190.719H277.379V192.101H285.471V190.719Z" fill="white"/>
<path d="M285.471 193.686H277.379V195.068H285.471V193.686Z" fill="white"/>
<path d="M285.471 196.648H277.379V198.029H285.471V196.648Z" fill="white"/>
<path d="M242.353 199.692H256.979C256.979 199.692 257.794 197.088 256.027 193.862C256.027 193.862 254.849 194.809 251.32 194.171C250.55 194.829 249.717 195.41 248.832 195.905C247.814 196.4 241.957 197.55 242.353 199.692Z" fill="#281616"/>
<path d="M243.372 158.457C244.319 164.093 248.678 183.161 250.528 194.424C253.952 194.716 255.598 194.325 256.467 194.121C256.297 190.196 255.961 180.8 255.999 176.677C256.066 169.713 256.39 160.532 253.324 155.49L243.02 156.304C243.08 156.855 243.141 157.29 243.19 157.609C243.24 157.928 243.317 158.209 243.372 158.457Z" fill="#407BFF"/>
<path d="M215.898 199.692H230.523C230.523 199.692 231.344 197.088 229.571 193.862C229.571 193.862 228.393 194.809 224.87 194.171C224.099 194.828 223.266 195.409 222.382 195.905C221.358 196.4 215.507 197.55 215.898 199.692Z" fill="#281616"/>
<path d="M224.445 194.094C226.325 194.602 228.279 194.777 230.22 194.611C230.996 190.086 232.223 180.123 233.33 175.449C235.047 168.194 236.726 158.209 235.559 154.647L225.42 152.104C225.387 152.423 224.561 182.98 224.445 194.094Z" fill="#3871F0"/>
<path d="M264.8 141.695C264.596 139.686 264.359 138.227 264.359 138.227L253.031 140.979L243.409 143.181C239.842 143.974 235.532 144.932 231.733 145.79C227.467 146.759 224.638 149.996 225.574 154.267L226.642 159.442C232.603 159.365 260.638 156.69 263.038 155.462C265.747 154.124 266.561 149.286 264.8 141.695Z" fill="#3871F0"/>
<path d="M281.71 141.695C281.511 140.262 281.115 138.863 280.532 137.539L269.941 140.996L260.319 143.198C256.752 143.99 252.442 144.948 248.644 145.807C244.377 146.776 241.548 150.012 242.484 154.284L243.552 159.458C249.513 159.381 274.438 158.512 279.948 155.478C282.607 154.031 283.477 149.286 281.71 141.695Z" fill="#407BFF"/>
<path d="M250.005 125.473C250.005 125.473 255.036 123.199 256.418 125.473C257.177 126.722 256.654 129.04 254.937 130.014C253.219 130.988 243.526 135.089 234.372 137.379C234.086 136.489 233.744 135.617 233.348 134.77C236.219 133.515 238.962 131.985 241.539 130.201C244.207 128.365 247.042 126.782 250.005 125.473Z" fill="#E5918F"/>
<path d="M251.259 109.768L246.977 126.987C246.977 126.987 247.422 131.341 251.821 129.188C256.219 127.036 259.087 113.341 259.087 113.341L251.259 109.768Z" fill="#E5918F"/>
<path d="M258.537 119.396C257.986 119.263 257.491 119.126 257.001 118.977C256.511 118.829 256.021 118.675 255.564 118.515C253.323 117.797 251.197 116.757 249.256 115.427C250.544 109.823 252.091 106.069 253.472 103.586C253.514 103.528 253.549 103.465 253.577 103.399L253.687 103.217C254.466 101.985 255.487 100.923 256.687 100.096L257.05 99.8431L257.557 108.838L257.645 109.762L258.537 119.396Z" fill="black"/>
<path d="M258.537 119.396C257.987 119.263 257.491 119.126 257.001 118.977C256.511 118.829 256.021 118.674 255.564 118.515C256.429 112.46 257.216 108.651 257.216 108.651L257.656 109.751L258.537 119.396Z" fill="#C7E5F2"/>
<path d="M284.012 103.845C283.908 106.504 283.462 110.781 283.038 115.074C282.911 116.434 282.785 117.827 282.686 119.126C282.609 119.946 281.37 124.333 281.321 125.115C281.1 128.869 279.262 131.682 281.001 137.396C281.316 138.244 281.502 139.135 281.552 140.038C281.552 140.429 281.04 140.836 280.842 140.952C280.11 141.37 278.673 141.667 276.933 141.882C273.328 142.242 269.707 142.407 266.084 142.377C262.341 142.377 256.726 141.783 255.999 140.836C255.35 139.972 255.95 138.717 256.258 136.983C257.64 129.144 257.15 125.06 257.062 119.407C257.062 119.263 257.062 119.126 257.062 118.977C256.919 110.252 256.346 102.788 256.748 100.096L257.111 99.8431C257.706 99.4358 258.289 99.078 258.851 98.7422L259.027 98.6431C259.197 98.544 259.374 98.4505 259.539 98.3624C259.602 98.3239 259.668 98.2908 259.737 98.2633C261.101 97.6392 262.498 97.088 263.92 96.6119C264.053 96.5679 264.179 96.5238 264.284 96.4963C265.28 96.4358 266.37 96.4192 267.537 96.4523C268.555 96.4853 270.113 96.6174 271.809 96.8376C273.719 97.07 275.613 97.4248 277.478 97.9C279.192 98.5754 280.722 99.6468 281.943 101.027C282.741 101.881 283.436 102.827 284.012 103.845Z" fill="black"/>
<path d="M281 137.396C281.315 138.244 281.501 139.135 281.551 140.038C281.551 140.429 281.039 140.836 280.841 140.952C280.108 141.37 278.672 141.667 276.932 141.882C277.648 141.794 278.886 140.654 278.886 139.631C278.886 138.91 277.956 134.054 278.215 130.922C278.474 127.79 278.98 122.808 278.011 118.812C277.042 114.816 276.123 109.581 276.123 109.581L281.589 112.884C281.589 112.884 282.294 113.874 283.064 115.085C282.938 116.445 282.811 117.838 282.712 119.137C282.607 119.946 279.261 131.682 281 137.396Z" fill="black"/>
<path d="M256.957 80.7861C256.957 80.7861 257.43 86.5054 259.324 86.8907C261.218 87.276 260.755 84.843 260.755 84.843L260.491 82.1292L256.957 80.7861Z" fill="#002C54"/>
<path d="M265.693 101.511C261.983 101.071 263.365 97.4596 263.877 96.6339C264.009 96.5899 264.647 96.3972 264.697 96.3642C264.829 96.248 264.929 96.1003 264.988 95.9348C265.352 94.9825 265.187 93.0889 265.17 92.9623V92.621C265.231 92.3954 265.297 92.1807 265.341 91.977L267.295 90.4412L271.423 87.199C271.423 87.199 270.323 92.6265 271.209 96.0504C271.242 96.2166 271.308 96.3746 271.402 96.5154C271.497 96.6561 271.618 96.7769 271.759 96.8706C271.883 96.9528 272.024 97.0038 272.172 97.0192C273.201 97.4816 271.787 102.227 265.693 101.511Z" fill="#E5918F"/>
<path d="M268.994 90.6339C268.904 91.8011 268.483 92.9185 267.78 93.8546C267.077 94.7908 266.121 95.5067 265.025 95.9183C265.394 94.977 265.224 93.0779 265.213 92.9568L266.864 91.6632L268.994 90.6339Z" fill="#CC6362"/>
<path d="M257.865 81.6008C257.865 81.6008 258.718 93.4633 261.922 94.4706C263.294 94.5013 264.651 94.1927 265.875 93.5723C267.098 92.952 268.149 92.039 268.935 90.9146C269.777 89.7807 270.845 89.522 271.192 88.1623C271.742 85.9605 272.557 81.8265 271.539 79.3549C270.097 75.8154 257.986 73.0191 257.865 81.6008Z" fill="#E5918F"/>
<path d="M271.588 77.3842C271.533 75.2319 269.353 74.4227 269.353 74.4227C267.185 73.4098 262.671 73.8722 258.019 74.8851C256.918 75.1273 255.559 74.4612 254.799 74.9897C253.88 75.6282 254.799 78.5457 254.799 78.5457C256.594 83.9788 263.199 82.2118 265.181 81.5402C265.654 82.9384 265.594 84.8815 266.766 85.8889C267.438 86.4393 268.605 86.4724 269.788 86.2797C269.937 86.5549 270.482 86.7971 270.592 87.177C270.966 88.4485 270.911 90.4357 270.9 91.966L271.451 91.6963C271.528 91.2779 277.319 77.5603 271.588 77.3842Z" fill="#002C54"/>
<path d="M261.145 85.5971C261.316 86.5824 260.832 87.4852 260.044 87.6173C259.257 87.7494 258.52 87.0668 258.355 86.0705C258.189 85.0741 258.674 84.1769 259.455 84.0503C260.237 83.9237 260.98 84.6118 261.145 85.5971Z" stroke="white" stroke-width="0.500973" stroke-miterlimit="10"/>
<path d="M265.016 84.876C265.187 85.8559 264.702 86.7641 263.915 86.8907C263.128 87.0173 262.396 86.3403 262.225 85.3439C262.055 84.3476 262.545 83.4558 263.326 83.3237C264.108 83.1916 264.851 83.8962 265.016 84.876Z" stroke="white" stroke-width="0.500973" stroke-miterlimit="10"/>
<path d="M261.146 85.5971C261.146 85.5971 261.317 85.3219 262.209 85.3989" stroke="white" stroke-width="0.500973" stroke-miterlimit="10"/>
<path d="M265.049 85.1072L268.357 84.5787" stroke="white" stroke-width="0.500973" stroke-miterlimit="10"/>
<path d="M268.604 88.7788C270.878 89.654 271.593 84.0448 269.43 83.7971C267.779 83.6099 267.718 85.8944 267.718 85.8944C267.718 85.8944 267.3 88.2999 268.604 88.7788Z" fill="#E5918F"/>
<g opacity="0.5">
<path d="M269.353 84.6448C269.242 84.7638 269.147 84.8971 269.072 85.0412C268.911 85.3368 268.815 85.6634 268.791 85.999C268.774 86.1821 268.774 86.3663 268.791 86.5494C268.791 86.7256 268.791 86.8962 268.83 87.0394C268.868 87.1825 268.83 87.3146 268.868 87.4027C268.907 87.4907 268.868 87.5458 268.868 87.5458L268.791 87.4302C268.719 87.3281 268.656 87.2194 268.604 87.1054C268.526 86.943 268.471 86.7708 268.439 86.5935C268.391 86.3899 268.376 86.1798 268.395 85.9715C268.413 85.7571 268.471 85.5481 268.565 85.3549C268.643 85.1834 268.756 85.0297 268.896 84.9036C269.024 84.7799 269.181 84.6908 269.353 84.6448Z" fill="#CC6362"/>
<path d="M269.71 85.7072C269.635 85.7183 269.561 85.7367 269.489 85.7623C269.337 85.8195 269.199 85.9075 269.082 86.021C268.937 86.1746 268.836 86.3649 268.79 86.5714L268.416 86.4393C268.455 86.3612 268.499 86.2858 268.548 86.2136C268.656 86.058 268.8 85.9298 268.966 85.8393C269.122 85.7512 269.295 85.6968 269.473 85.6797C269.553 85.6798 269.632 85.689 269.71 85.7072Z" fill="#CC6362"/>
</g>
<path d="M290.507 127.741C289.511 128.902 285.707 129.75 283.901 128.142C283.351 127.631 282.679 126.282 282.041 124.609C280.81 121.104 279.757 117.54 278.887 113.93L287.391 109.586C287.391 109.586 288.492 114.491 289.428 119.153C289.428 119.153 289.428 119.197 289.428 119.28C289.736 120.772 290.023 122.242 290.248 123.502V123.601C290.492 124.967 290.579 126.355 290.507 127.741Z" fill="#E5918F"/>
<path d="M275.65 107.979C276.471 111.397 279.052 117.887 279.052 117.887C281.163 118.13 283.302 117.871 285.294 117.133C286.784 116.559 288.138 115.679 289.269 114.552C289.269 114.552 287.557 109.74 286.021 106.295C284.639 103.19 283.819 102.034 283.214 101.417C282.228 100.409 281.089 99.5618 279.839 98.9073L275.65 107.979Z" fill="black"/>
<path d="M286.4 110.208L281.413 108.056L277.482 97.9275C277.482 97.9275 278.198 98.1477 279.134 98.5275L279.26 98.5825L279.332 98.6101C280.18 99.0064 283.471 100.95 285.745 107.968C285.745 108.029 285.783 108.084 285.8 108.144C286.042 108.959 286.218 109.608 286.317 109.944C286.316 109.979 286.316 110.014 286.317 110.049L286.4 110.208Z" fill="black"/>
<path d="M290.508 127.741C290.437 128.368 290.266 128.814 289.958 128.974L289.165 129.447C287.473 130.486 285.711 131.405 283.892 132.199C277.874 134.714 271.732 136.919 265.49 138.805C265.179 137.925 264.811 137.066 264.389 136.234C267.206 134.862 269.882 133.22 272.381 131.33C276.345 128.302 282.048 124.625 282.048 124.625L283.49 122.93C283.49 122.93 288.609 118.218 289.435 119.17C289.435 119.17 289.435 119.214 289.435 119.297C289.561 119.786 289.985 121.597 290.255 123.519V123.618C290.496 124.978 290.581 126.361 290.508 127.741Z" fill="#E5918F"/>
<path d="M264.944 135.937C264.333 136.289 263.622 136.427 262.924 136.328C262.373 136.207 262.131 135.976 261.713 135.904C261.005 135.82 260.309 135.658 259.637 135.42C259.087 135.15 258.872 135.122 258.889 135.673C258.905 136.223 259.99 136.702 260.287 136.856C260.563 137.046 260.801 137.285 260.992 137.561C261.03 137.621 259.186 138.59 258.685 138.398C258.607 138.62 258.586 138.859 258.625 139.091C258.707 139.339 259.087 139.427 259.114 139.548C259.142 139.669 259.032 139.928 259.114 140.099C259.197 140.269 259.538 140.302 259.665 140.649C259.791 140.996 259.665 140.979 259.753 141.315C259.841 141.651 260.303 141.711 260.364 141.865C260.425 142.02 260.403 142.24 260.579 142.361C260.755 142.482 262.423 141.948 263.028 141.684C263.634 141.42 265.258 139.091 267.058 138.293L264.944 135.937Z" fill="#E5918F"/>
<path d="M273.442 146.363H260.512V145.097H273.442C273.525 145.096 273.608 145.112 273.685 145.143C273.762 145.175 273.832 145.222 273.891 145.281C273.95 145.339 273.997 145.41 274.028 145.487C274.06 145.564 274.076 145.646 274.075 145.73C274.075 145.898 274.008 146.059 273.89 146.177C273.771 146.296 273.61 146.363 273.442 146.363Z" fill="#375F84"/>
<path d="M266.447 146.363H234.063C233.874 146.363 233.69 146.301 233.539 146.187C233.387 146.072 233.278 145.912 233.226 145.73L226.61 121.878C226.576 121.755 226.571 121.626 226.595 121.5C226.619 121.375 226.672 121.257 226.749 121.155C226.826 121.054 226.926 120.971 227.04 120.914C227.154 120.857 227.28 120.827 227.408 120.827H258.729C259.083 120.832 259.426 120.95 259.707 121.164C259.988 121.378 260.194 121.676 260.293 122.016L266.898 145.79C266.916 145.859 266.918 145.93 266.903 145.999C266.889 146.069 266.859 146.133 266.815 146.189C266.771 146.244 266.715 146.289 266.651 146.319C266.588 146.349 266.517 146.364 266.447 146.363Z" fill="#375F84"/>
<path d="M265.274 146.363H232.89C232.701 146.364 232.517 146.303 232.366 146.188C232.216 146.074 232.108 145.912 232.059 145.73L225.454 121.867C225.42 121.744 225.415 121.615 225.439 121.489C225.463 121.364 225.516 121.246 225.593 121.144C225.67 121.043 225.77 120.96 225.884 120.903C225.998 120.846 226.124 120.816 226.252 120.816H257.573C257.927 120.821 258.269 120.939 258.551 121.153C258.832 121.367 259.037 121.665 259.136 122.005L265.742 145.779C265.762 145.85 265.766 145.924 265.751 145.996C265.737 146.068 265.706 146.135 265.66 146.193C265.614 146.25 265.555 146.295 265.488 146.325C265.421 146.354 265.347 146.368 265.274 146.363Z" fill="#455A64"/>
<path d="M136.916 130.944L140.67 127.091C140.707 126.389 140.82 125.693 141.006 125.016C141.21 124.653 141.738 123.315 141.997 123.166C142.256 123.09 142.531 123.09 142.789 123.166C143.034 123.08 143.287 123.021 143.544 122.99C143.777 123.026 144.004 123.098 144.215 123.205C144.215 123.205 144.766 123.166 145.008 123.166C145.115 123.155 145.223 123.178 145.316 123.232C145.735 122.743 146.184 122.28 146.659 121.845C147.1 121.493 147.76 120.849 147.964 120.849C148.167 120.849 148.234 121.179 148.101 121.531C147.905 121.871 147.658 122.18 147.369 122.445L145.657 125.038C145.813 124.978 145.964 124.906 146.109 124.823C146.263 124.724 147.309 123.75 147.369 123.722C147.43 123.695 147.92 123.375 148.173 123.684C148.426 123.992 146.384 126.469 146.054 126.799C145.342 127.28 144.597 127.711 143.824 128.087C143.824 128.087 141.826 131.687 141.622 131.941C141.419 132.194 136.916 130.944 136.916 130.944Z" fill="#E49191"/>
<path d="M140.45 113.192C140.45 113.192 138.353 125.302 136.382 125.61C136.382 125.61 128.505 125.93 126.754 116.374C125.23 108.117 131.334 106.328 134.186 106.961C137.037 107.594 141.061 108.007 140.45 113.192Z" fill="#E49191"/>
<path d="M133.494 123.667C133.494 123.667 132.393 125.159 132.002 128.759C129.84 128.985 127.657 128.604 125.699 127.658C126.733 124.216 127.346 120.662 127.527 117.073" fill="#E49191"/>
<path d="M131.268 104.924C126.964 105.876 127.31 108.557 127.31 108.557C125.296 109.058 124.861 109.889 124.877 113.605C124.894 117.32 126.243 121.79 126.986 122.153C127.729 122.517 131.94 122.533 132.281 122.407C132.622 122.28 134.109 118.867 133.762 118.267C133.415 117.667 133.762 115.306 134.758 115.218C135.755 115.129 135.551 116.649 135.551 116.649L136.355 116.473L136.977 114.948C142.663 115.284 144.133 108.805 144.133 108.805C142.767 107.913 135.573 103.977 131.268 104.924Z" fill="#002C54"/>
<path d="M83.4887 187.103L87.8374 187.73L86.3952 192.811L81.6832 191.622C81.4203 191.271 81.2359 190.868 81.1425 190.439C81.0491 190.011 81.0488 189.567 81.1418 189.139C81.2347 188.71 81.4186 188.307 81.681 187.955C81.9435 187.604 82.2784 187.313 82.663 187.103C82.9332 187.028 83.2186 187.028 83.4887 187.103Z" fill="#E5918F"/>
<path d="M115.966 174.051L109.553 154.636C109.553 154.636 107.61 153.943 106.613 154.636C106.613 154.636 99.9361 158.231 100.646 168.469C101.197 176.176 102.815 184.57 103.476 187.928L86.3672 187.295C85.7472 188.108 85.3517 189.069 85.2203 190.082C85.0889 191.096 85.2262 192.126 85.6185 193.07C85.6185 193.07 107.12 198.85 110.147 199.383C112.608 199.818 115.305 200.154 116.604 199.042C118.905 197.077 115.966 174.051 115.966 174.051Z" fill="black"/>
<path d="M103.762 187.103L108.111 187.73L106.669 192.811L101.957 191.622C101.694 191.271 101.509 190.868 101.416 190.439C101.323 190.011 101.322 189.567 101.415 189.139C101.508 188.71 101.692 188.307 101.954 187.955C102.217 187.604 102.552 187.313 102.936 187.103C103.207 187.028 103.492 187.028 103.762 187.103Z" fill="#E5918F"/>
<path d="M102.204 189.767C102.105 190.763 102.98 191.666 102.821 191.914C102.661 192.161 99.7381 197.072 99.7381 197.072C99.7381 197.072 101.94 198.035 101.588 199.422H95.9729C95.0975 198.582 94.5874 197.431 94.5527 196.218C94.8267 194.798 95.2896 193.421 95.9289 192.123C96.9252 190.196 99.1931 185.859 99.1931 185.859C99.8024 185.681 100.451 185.693 101.054 185.892C102.006 186.175 102.916 186.582 103.762 187.103C103.762 187.103 102.424 187.295 102.204 189.767Z" fill="#467CDB"/>
<path d="M146.973 194.963C145.591 189.811 132.606 167.82 128.208 161.88C119.186 157.961 109.564 154.636 109.564 154.636C105.584 155.583 103.624 163.603 105.881 168.948C107.433 172.614 117.254 181.84 123.265 187.273H106.575C106.575 187.273 104.609 190.213 106.393 193.004C106.393 193.004 134.147 199.317 136.58 199.67C139.013 200.022 144.479 199.67 144.479 199.67C144.479 199.67 148.135 199.295 146.973 194.963Z" fill="black"/>
<path d="M81.9263 189.767C81.8272 190.763 82.7025 191.666 82.5428 191.914C82.3832 192.161 79.4602 197.072 79.4602 197.072C79.4602 197.072 81.6621 198.035 81.3098 199.422H75.7171C74.8417 198.582 74.3316 197.431 74.2969 196.218C74.5709 194.798 75.0337 193.421 75.673 192.123C76.6694 190.196 78.9373 185.859 78.9373 185.859C79.5465 185.681 80.1953 185.693 80.7979 185.892C81.7494 186.176 82.6598 186.583 83.5061 187.103C83.5061 187.103 82.1685 187.295 81.9263 189.767Z" fill="#467CDB"/>
<path d="M167.869 127.207L158.902 142.95L152.49 136.559L147.205 144.447L148.741 145.19L148.19 145.647C148.19 145.647 160.559 151.675 162.04 150.343C163.521 149.011 170.429 128.985 170.429 128.985L167.869 127.207Z" fill="#E49191"/>
<path d="M153.65 137.561C153.65 137.561 151.96 144.689 148.58 148.069L139.933 144.766C139.933 144.766 135.92 151.515 131.995 156.69C130.487 158.688 129.986 161.501 128.213 161.869C128.103 161.831 127.999 161.798 127.889 161.77C123.083 160.328 115.993 161.858 110.142 159.684C103.679 157.279 104.934 155.924 104.934 155.924C107.437 151.282 109.494 146.412 111.077 141.381C111.936 138.5 112.649 135.577 113.213 132.623C113.603 130.55 114.632 128.651 116.156 127.193C117.681 125.734 119.624 124.79 121.712 124.493H121.855C126.755 123.871 139.58 125.385 142.074 126.453C144.568 127.52 153.65 137.561 153.65 137.561Z" fill="#407BFF"/>
<path d="M139.934 144.777C139.934 144.777 135.921 151.526 131.997 156.701C130.488 158.699 129.987 161.512 128.215 161.88C128.991 161.605 130.279 157.521 130.736 156.601C131.193 155.682 131.93 154.768 133.516 151.559C135.101 148.35 137.242 143.633 137.242 143.633L139.934 144.777Z" fill="#5996EF"/>
<path d="M123.266 187.273C123.389 187.246 123.514 187.226 123.64 187.213C123.882 187.185 124.223 187.136 124.642 187.119C125.653 187.074 126.667 187.122 127.669 187.262C128.206 187.336 128.739 187.437 129.266 187.565C129.727 187.671 130.181 187.805 130.625 187.967C130.94 188.077 131.249 188.204 131.55 188.347C131.77 188.446 131.891 188.512 131.891 188.512L131.517 188.457C131.28 188.407 130.939 188.358 130.537 188.292C129.734 188.154 128.66 187.983 127.587 187.84C127.036 187.758 126.513 187.697 126.012 187.631L124.625 187.455L123.266 187.273Z" fill="black"/>
<path d="M174.558 121.41C174.018 121.721 173.514 122.09 173.056 122.511L173.568 121.537C173.895 121.221 174.201 120.882 174.481 120.524C174.729 120.166 174.597 119.808 174.41 119.792C173.901 120.064 173.426 120.394 172.995 120.777L173.1 120.579C173.43 120.266 173.737 119.929 174.019 119.572C174.261 119.214 174.135 118.856 173.942 118.834C173.323 119.211 172.739 119.642 172.197 120.122L171.443 121.135L171.993 120.034C172.186 119.797 172.354 119.541 172.494 119.269C172.692 118.867 172.549 118.746 172.439 118.614C172.329 118.482 171.283 119.258 171.013 119.572C170.582 120.128 170.189 120.713 169.835 121.322L168.966 123.128C168.905 122.605 168.823 121.708 168.756 121.135C168.668 120.315 167.925 120.122 167.898 120.519C167.87 120.915 167.457 122.891 167.551 123.959C167.645 125.027 167.826 125.726 167.892 126.326C167.958 126.926 167.342 128.126 167.342 128.126C167.342 128.126 169.83 129.673 170.243 129.227C170.866 128.535 171.438 127.8 171.955 127.025C172.355 126.327 172.682 125.589 172.929 124.823L173.711 123.172C174.039 122.858 174.344 122.521 174.624 122.164C174.867 121.79 174.751 121.432 174.558 121.41Z" fill="#E49191"/>
<path d="M317.54 71.274H288.332C287.433 71.274 286.57 71.6313 285.935 72.2672C285.299 72.9031 284.941 73.7656 284.941 74.6649V81.5677C284.943 82.3923 285.244 83.1883 285.789 83.8071C286.334 84.426 287.085 84.8255 287.903 84.9311C288.022 84.9446 288.131 85.0016 288.21 85.091C288.29 85.1804 288.333 85.296 288.332 85.4155V89.1916C288.333 89.239 288.348 89.2851 288.376 89.3233C288.404 89.3615 288.443 89.3899 288.488 89.4045C288.533 89.4191 288.582 89.4192 288.627 89.4047C288.672 89.3902 288.712 89.3619 288.74 89.3238L291.712 85.1622C291.758 85.0983 291.818 85.0463 291.888 85.0109C291.958 84.9754 292.035 84.9574 292.114 84.9586H317.54C318.439 84.9586 319.302 84.6013 319.938 83.9654C320.573 83.3295 320.931 82.467 320.931 81.5677V74.6649C320.931 73.7656 320.573 72.9031 319.938 72.2672C319.302 71.6313 318.439 71.274 317.54 71.274Z" stroke="#407BFF" stroke-width="0.895593" stroke-miterlimit="10"/>
<path d="M292.813 78.1053C292.813 78.3231 292.749 78.5359 292.628 78.717C292.507 78.898 292.335 79.0391 292.134 79.1224C291.932 79.2058 291.711 79.2276 291.497 79.1851C291.284 79.1426 291.088 79.0378 290.934 78.8838C290.78 78.7298 290.675 78.5337 290.632 78.3201C290.59 78.1065 290.612 77.8852 290.695 77.684C290.778 77.4828 290.92 77.3109 291.101 77.1899C291.282 77.069 291.495 77.0044 291.712 77.0044C292.004 77.0044 292.284 77.1204 292.491 77.3268C292.697 77.5333 292.813 77.8133 292.813 78.1053Z" stroke="#407BFF" stroke-width="0.895593" stroke-miterlimit="10"/>
<path d="M298.434 78.1053C298.434 78.3231 298.37 78.5359 298.249 78.717C298.128 78.898 297.956 79.0391 297.755 79.1224C297.553 79.2058 297.332 79.2276 297.119 79.1851C296.905 79.1426 296.709 79.0378 296.555 78.8838C296.401 78.7298 296.296 78.5337 296.254 78.3201C296.211 78.1065 296.233 77.8852 296.316 77.684C296.4 77.4828 296.541 77.3109 296.722 77.1899C296.903 77.069 297.116 77.0044 297.333 77.0044C297.625 77.0044 297.905 77.1204 298.112 77.3268C298.318 77.5333 298.434 77.8133 298.434 78.1053Z" stroke="#407BFF" stroke-width="0.895593" stroke-miterlimit="10"/>
<path d="M304.053 78.1053C304.053 78.3231 303.989 78.5359 303.868 78.717C303.747 78.898 303.575 79.0391 303.374 79.1224C303.173 79.2058 302.951 79.2276 302.738 79.1851C302.524 79.1426 302.328 79.0378 302.174 78.8838C302.02 78.7298 301.915 78.5337 301.873 78.3201C301.83 78.1065 301.852 77.8852 301.935 77.684C302.019 77.4828 302.16 77.3109 302.341 77.1899C302.522 77.069 302.735 77.0044 302.952 77.0044C303.244 77.0044 303.524 77.1204 303.731 77.3268C303.937 77.5333 304.053 77.8133 304.053 78.1053Z" stroke="#407BFF" stroke-width="0.895593" stroke-miterlimit="10"/>
<path d="M309.675 78.1053C309.675 78.3231 309.61 78.5359 309.489 78.717C309.368 78.898 309.196 79.0391 308.995 79.1224C308.794 79.2058 308.572 79.2276 308.359 79.1851C308.145 79.1426 307.949 79.0378 307.795 78.8838C307.641 78.7298 307.536 78.5337 307.494 78.3201C307.451 78.1065 307.473 77.8852 307.556 77.684C307.64 77.4828 307.781 77.3109 307.962 77.1899C308.143 77.069 308.356 77.0044 308.574 77.0044C308.866 77.0044 309.146 77.1204 309.352 77.3268C309.559 77.5333 309.675 77.8133 309.675 78.1053Z" stroke="#407BFF" stroke-width="0.895593" stroke-miterlimit="10"/>
<path d="M315.296 78.1053C315.296 78.3231 315.231 78.5359 315.11 78.717C314.989 78.898 314.817 79.0391 314.616 79.1224C314.415 79.2058 314.193 79.2276 313.98 79.1851C313.766 79.1426 313.57 79.0378 313.416 78.8838C313.262 78.7298 313.157 78.5337 313.115 78.3201C313.072 78.1065 313.094 77.8852 313.178 77.684C313.261 77.4828 313.402 77.3109 313.583 77.1899C313.764 77.069 313.977 77.0044 314.195 77.0044C314.487 77.0044 314.767 77.1204 314.973 77.3268C315.18 77.5333 315.296 77.8133 315.296 78.1053Z" stroke="#407BFF" stroke-width="0.895593" stroke-miterlimit="10"/>
<path d="M86.7307 101.511H115.966C116.865 101.511 117.728 101.868 118.364 102.504C118.999 103.14 119.357 104.003 119.357 104.902V111.799C119.358 112.624 119.058 113.422 118.512 114.041C117.967 114.66 117.214 115.059 116.395 115.163C116.277 115.178 116.169 115.236 116.091 115.325C116.012 115.414 115.967 115.528 115.966 115.647V119.429C115.966 119.476 115.952 119.522 115.924 119.56C115.896 119.598 115.857 119.627 115.812 119.641C115.767 119.655 115.718 119.654 115.674 119.639C115.629 119.624 115.591 119.594 115.564 119.555L112.586 115.399C112.541 115.335 112.481 115.282 112.411 115.245C112.341 115.209 112.263 115.19 112.184 115.19H86.7307C85.8314 115.19 84.969 114.833 84.333 114.197C83.6971 113.561 83.3399 112.699 83.3399 111.799V104.918C83.3377 104.472 83.4238 104.029 83.5932 103.616C83.7627 103.202 84.0121 102.827 84.3272 102.51C84.6423 102.193 85.0168 101.942 85.4293 101.771C85.8418 101.599 86.2841 101.511 86.7307 101.511V101.511Z" stroke="#FF6C37" stroke-width="0.895593" stroke-miterlimit="10"/>
<path d="M111.457 108.359C111.457 108.577 111.522 108.789 111.643 108.97C111.764 109.151 111.935 109.293 112.137 109.376C112.338 109.459 112.559 109.481 112.773 109.439C112.986 109.396 113.182 109.291 113.336 109.137C113.49 108.983 113.595 108.787 113.638 108.574C113.68 108.36 113.658 108.139 113.575 107.937C113.492 107.736 113.351 107.564 113.17 107.443C112.989 107.322 112.776 107.258 112.558 107.258C112.266 107.258 111.986 107.374 111.779 107.58C111.573 107.787 111.457 108.067 111.457 108.359Z" stroke="#FF6C37" stroke-width="0.895593" stroke-miterlimit="10"/>
<path d="M105.838 108.359C105.838 108.577 105.902 108.789 106.023 108.97C106.144 109.151 106.316 109.293 106.518 109.376C106.719 109.459 106.94 109.481 107.154 109.439C107.367 109.396 107.563 109.291 107.717 109.137C107.871 108.983 107.976 108.787 108.019 108.574C108.061 108.36 108.039 108.139 107.956 107.937C107.873 107.736 107.732 107.564 107.55 107.443C107.369 107.322 107.157 107.258 106.939 107.258C106.647 107.258 106.367 107.374 106.16 107.58C105.954 107.787 105.838 108.067 105.838 108.359Z" stroke="#FF6C37" stroke-width="0.895593" stroke-miterlimit="10"/>
<path d="M100.223 108.359C100.223 108.577 100.287 108.789 100.408 108.97C100.529 109.151 100.701 109.293 100.902 109.376C101.103 109.459 101.325 109.481 101.538 109.439C101.752 109.396 101.948 109.291 102.102 109.137C102.256 108.983 102.361 108.787 102.403 108.574C102.446 108.36 102.424 108.139 102.341 107.937C102.257 107.736 102.116 107.564 101.935 107.443C101.754 107.322 101.541 107.258 101.324 107.258C101.032 107.258 100.752 107.374 100.545 107.58C100.339 107.787 100.223 108.067 100.223 108.359Z" stroke="#FF6C37" stroke-width="0.895593" stroke-miterlimit="10"/>
<path d="M94.6035 108.359C94.6035 108.577 94.6681 108.789 94.7891 108.97C94.91 109.151 95.082 109.293 95.2831 109.376C95.4843 109.459 95.7057 109.481 95.9192 109.439C96.1328 109.396 96.3289 109.291 96.4829 109.137C96.6369 108.983 96.7417 108.787 96.7842 108.574C96.8267 108.36 96.8049 108.139 96.7216 107.937C96.6382 107.736 96.4971 107.564 96.3161 107.443C96.135 107.322 95.9222 107.258 95.7044 107.258C95.4125 107.258 95.1324 107.374 94.926 107.58C94.7195 107.787 94.6035 108.067 94.6035 108.359Z" stroke="#FF6C37" stroke-width="0.895593" stroke-miterlimit="10"/>
<path d="M88.9941 108.359C88.9941 108.577 89.0587 108.789 89.1797 108.97C89.3007 109.151 89.4726 109.293 89.6738 109.376C89.8749 109.459 90.0963 109.481 90.3098 109.439C90.5234 109.396 90.7196 109.291 90.8735 109.137C91.0275 108.983 91.1324 108.787 91.1748 108.574C91.2173 108.36 91.1955 108.139 91.1122 107.937C91.0289 107.736 90.8878 107.564 90.7067 107.443C90.5257 107.322 90.3128 107.258 90.0951 107.258C89.8031 107.258 89.5231 107.374 89.3166 107.58C89.1101 107.787 88.9941 108.067 88.9941 108.359Z" stroke="#FF6C37" stroke-width="0.895593" stroke-miterlimit="10"/>
<path d="M263.139 55.3546H209.898C208.491 55.3517 207.142 54.7909 206.147 53.7952C205.153 52.7995 204.593 51.4501 204.592 50.0426C204.592 48.6324 205.152 47.2798 206.149 46.2826C207.146 45.2854 208.499 44.7252 209.909 44.7252H263.15C264.557 44.731 265.903 45.2938 266.896 46.2904C267.888 47.287 268.446 48.6362 268.446 50.0426C268.444 51.4501 267.885 52.7995 266.89 53.7952C265.895 54.7909 264.547 55.3517 263.139 55.3546Z" fill="white" stroke="#407BFF" stroke-width="0.895593" stroke-miterlimit="10"/>
<path d="M262.356 49.6739C262.356 50.2335 262.19 50.7805 261.879 51.2458C261.568 51.7111 261.126 52.0737 260.609 52.2879C260.092 52.502 259.524 52.5581 258.975 52.4489C258.426 52.3397 257.922 52.0702 257.526 51.6745C257.13 51.2788 256.861 50.7747 256.752 50.2259C256.642 49.677 256.698 49.1081 256.913 48.5911C257.127 48.0741 257.489 47.6322 257.955 47.3213C258.42 47.0104 258.967 46.8445 259.527 46.8445C260.277 46.8445 260.997 47.1426 261.527 47.6732C262.058 48.2038 262.356 48.9235 262.356 49.6739Z" stroke="#407BFF" stroke-width="1.6716" stroke-miterlimit="10"/>
<path d="M261.525 51.6721L263.089 53.2299" stroke="#495AD6" stroke-width="1.6716" stroke-miterlimit="10" stroke-linecap="round"/>
<path d="M182.49 178.07H169.098C166.754 178.07 164.854 179.97 164.854 182.314V195.706C164.854 198.05 166.754 199.95 169.098 199.95H182.49C184.834 199.95 186.734 198.05 186.734 195.706V182.314C186.734 179.97 184.834 178.07 182.49 178.07Z" fill="#2B6CFE"/>
<path d="M178.504 178.07H165.111C162.767 178.07 160.867 179.97 160.867 182.314V195.706C160.867 198.05 162.767 199.95 165.111 199.95H178.504C180.848 199.95 182.748 198.05 182.748 195.706V182.314C182.748 179.97 180.848 178.07 178.504 178.07Z" fill="#407BFF"/>
<path d="M169.223 184.879L175.504 188.484C175.592 188.536 175.665 188.609 175.715 188.698C175.766 188.786 175.793 188.886 175.793 188.988C175.793 189.09 175.766 189.19 175.715 189.278C175.665 189.367 175.592 189.44 175.504 189.492L169.223 193.119C169.134 193.17 169.033 193.197 168.931 193.197C168.828 193.197 168.728 193.17 168.639 193.119C168.55 193.068 168.477 192.994 168.425 192.905C168.374 192.816 168.347 192.715 168.348 192.613V185.385C168.347 185.283 168.374 185.182 168.425 185.093C168.477 185.004 168.55 184.93 168.639 184.879C168.728 184.828 168.828 184.801 168.931 184.801C169.033 184.801 169.134 184.828 169.223 184.879Z" fill="white"/>
<path d="M321.03 171.348H303.525C300.461 171.348 297.977 173.833 297.977 176.897V194.402C297.977 197.466 300.461 199.95 303.525 199.95H321.03C324.094 199.95 326.579 197.466 326.579 194.402V176.897C326.579 173.833 324.094 171.348 321.03 171.348Z" fill="#2B6CFE"/>
<path d="M315.817 171.348H298.312C295.248 171.348 292.764 173.833 292.764 176.897V194.402C292.764 197.466 295.248 199.95 298.312 199.95H315.817C318.882 199.95 321.366 197.466 321.366 194.402V176.897C321.366 173.833 318.882 171.348 315.817 171.348Z" fill="#407BFF"/>
<path d="M310.506 178.367C310.507 179.047 310.306 179.713 309.929 180.28C309.551 180.846 309.014 181.288 308.386 181.549C307.757 181.81 307.065 181.879 306.398 181.747C305.73 181.615 305.116 181.288 304.635 180.807C304.153 180.326 303.825 179.713 303.692 179.046C303.558 178.378 303.626 177.686 303.886 177.057C304.147 176.428 304.588 175.89 305.153 175.512C305.719 175.134 306.385 174.932 307.065 174.932C307.517 174.931 307.964 175.019 308.382 175.192C308.799 175.364 309.178 175.617 309.498 175.936C309.817 176.255 310.071 176.634 310.244 177.051C310.417 177.468 310.506 177.915 310.506 178.367Z" fill="white"/>
<path d="M314.233 189.998V195.09C314.232 195.31 314.144 195.52 313.988 195.676C313.833 195.832 313.622 195.92 313.402 195.921H300.741C300.521 195.921 300.31 195.834 300.154 195.678C299.998 195.522 299.91 195.31 299.91 195.09V190.015C299.91 188.117 300.664 186.297 302.006 184.955C303.348 183.613 305.168 182.859 307.066 182.859C308.963 182.856 310.784 183.606 312.128 184.945C313.471 186.284 314.229 188.101 314.233 189.998Z" fill="white"/>
<path d="M243.124 61.4813H231.861C231.638 61.4813 231.423 61.3928 231.264 61.235C231.105 61.0772 231.015 60.863 231.014 60.6391C231.014 60.4143 231.103 60.1986 231.262 60.0397C231.421 59.8807 231.637 59.7914 231.861 59.7914H243.124C243.349 59.7914 243.564 59.8807 243.723 60.0397C243.882 60.1986 243.972 60.4143 243.972 60.6391C243.97 60.863 243.88 61.0772 243.721 61.235C243.563 61.3928 243.348 61.4813 243.124 61.4813Z" fill="#F0F4FF"/>
<path d="M254.353 61.4813H246.217C245.993 61.4813 245.778 61.3928 245.619 61.235C245.461 61.0772 245.371 60.863 245.369 60.6391C245.369 60.4143 245.458 60.1986 245.617 60.0397C245.776 59.8807 245.992 59.7914 246.217 59.7914H254.353C254.578 59.7914 254.793 59.8807 254.952 60.0397C255.111 60.1986 255.2 60.4143 255.2 60.6391C255.199 60.863 255.109 61.0772 254.95 61.235C254.791 61.3928 254.577 61.4813 254.353 61.4813Z" fill="#F0F4FF"/>
<path d="M236.639 65.1804H231.861C231.64 65.1805 231.428 65.0942 231.27 64.94C231.111 64.7857 231.019 64.5757 231.014 64.3547C231.014 64.1299 231.103 63.9143 231.262 63.7553C231.421 63.5963 231.637 63.507 231.861 63.507H236.639C236.863 63.5085 237.077 63.5984 237.235 63.7572C237.393 63.9161 237.482 64.1309 237.482 64.3547C237.476 64.5748 237.385 64.784 237.228 64.9381C237.07 65.0922 236.86 65.1791 236.639 65.1804Z" fill="#F0F4FF"/>
<path d="M254.353 65.1804H239.49C239.266 65.1804 239.052 65.0919 238.893 64.9341C238.734 64.7763 238.644 64.5621 238.643 64.3382C238.643 64.1134 238.732 63.8978 238.891 63.7388C239.05 63.5798 239.265 63.4905 239.49 63.4905H254.353C254.578 63.4905 254.793 63.5798 254.952 63.7388C255.111 63.8978 255.201 64.1134 255.201 64.3382C255.199 64.5621 255.109 64.7763 254.95 64.9341C254.791 65.0919 254.577 65.1804 254.353 65.1804Z" fill="#F0F4FF"/>
<path d="M246.68 68.9126H231.861C231.638 68.9126 231.423 68.824 231.264 68.6662C231.105 68.5084 231.015 68.2942 231.014 68.0704C231.014 67.8455 231.103 67.6299 231.262 67.4709C231.421 67.312 231.637 67.2227 231.861 67.2227H246.68C246.905 67.2227 247.12 67.312 247.279 67.4709C247.438 67.6299 247.528 67.8455 247.528 68.0704C247.526 68.2942 247.436 68.5084 247.277 68.6662C247.119 68.824 246.904 68.9126 246.68 68.9126Z" fill="#F0F4FF"/>
<path d="M254.353 68.9126H249.575C249.351 68.9126 249.137 68.8238 248.979 68.6659C248.821 68.508 248.732 68.2937 248.732 68.0704C248.732 67.9593 248.753 67.8492 248.795 67.7464C248.837 67.6436 248.899 67.5501 248.977 67.4713C249.055 67.3925 249.149 67.33 249.251 67.2873C249.354 67.2446 249.464 67.2227 249.575 67.2227H254.353C254.577 67.2227 254.793 67.312 254.952 67.4709C255.111 67.6299 255.2 67.8455 255.2 68.0704C255.199 68.2942 255.109 68.5084 254.95 68.6662C254.791 68.824 254.577 68.9126 254.353 68.9126Z" fill="#F0F4FF"/>
<path d="M100.708 123.761H61.4485C60.2871 123.761 59.3457 124.702 59.3457 125.864V145.686C59.3457 146.847 60.2871 147.788 61.4485 147.788H100.708C101.869 147.788 102.81 146.847 102.81 145.686V125.864C102.81 124.702 101.869 123.761 100.708 123.761Z" fill="#193091"/>
<path d="M61.1895 127.008H100.96" stroke="white" stroke-width="0.895593" stroke-miterlimit="10" stroke-linecap="round"/>
<path d="M99.9144 125.836C100.179 125.836 100.393 125.622 100.393 125.357C100.393 125.093 100.179 124.878 99.9144 124.878C99.65 124.878 99.4355 125.093 99.4355 125.357C99.4355 125.622 99.65 125.836 99.9144 125.836Z" fill="white"/>
<path d="M97.3988 125.836C97.6633 125.836 97.8777 125.622 97.8777 125.357C97.8777 125.093 97.6633 124.878 97.3988 124.878C97.1343 124.878 96.9199 125.093 96.9199 125.357C96.9199 125.622 97.1343 125.836 97.3988 125.836Z" fill="white"/>
<path d="M94.8891 125.836C95.1536 125.836 95.368 125.622 95.368 125.357C95.368 125.093 95.1536 124.878 94.8891 124.878C94.6246 124.878 94.4102 125.093 94.4102 125.357C94.4102 125.622 94.6246 125.836 94.8891 125.836Z" fill="white"/>
<path d="M68.6266 130.245H61.8614C61.6857 130.245 61.5171 130.176 61.3923 130.052C61.2676 129.928 61.1968 129.76 61.1953 129.585C61.1953 129.408 61.2655 129.239 61.3904 129.114C61.5153 128.989 61.6847 128.919 61.8614 128.919H68.6266C68.714 128.919 68.8007 128.936 68.8815 128.969C68.9623 129.003 69.0357 129.052 69.0976 129.114C69.1594 129.176 69.2085 129.249 69.2419 129.33C69.2754 129.411 69.2926 129.497 69.2926 129.585C69.2912 129.76 69.2204 129.928 69.0956 130.052C68.9709 130.176 68.8023 130.245 68.6266 130.245Z" fill="#6589D1"/>
<path d="M68.6266 133.317H61.8614C61.6847 133.317 61.5153 133.247 61.3904 133.122C61.2655 132.997 61.1953 132.827 61.1953 132.651C61.1953 132.474 61.2655 132.305 61.3904 132.18C61.5153 132.055 61.6847 131.985 61.8614 131.985H68.6266C68.714 131.985 68.8007 132.002 68.8815 132.035C68.9623 132.069 69.0357 132.118 69.0976 132.18C69.1594 132.242 69.2085 132.315 69.2419 132.396C69.2754 132.477 69.2926 132.563 69.2926 132.651C69.2926 132.738 69.2754 132.825 69.2419 132.906C69.2085 132.986 69.1594 133.06 69.0976 133.122C69.0357 133.184 68.9623 133.233 68.8815 133.266C68.8007 133.3 68.714 133.317 68.6266 133.317Z" fill="#6589D1"/>
<path d="M68.6266 136.388H61.8614C61.6857 136.388 61.5171 136.319 61.3923 136.195C61.2676 136.072 61.1968 135.904 61.1953 135.728C61.1953 135.551 61.2655 135.382 61.3904 135.257C61.5153 135.132 61.6847 135.062 61.8614 135.062H68.6266C68.714 135.062 68.8007 135.079 68.8815 135.112C68.9623 135.146 69.0357 135.195 69.0976 135.257C69.1594 135.319 69.2085 135.392 69.2419 135.473C69.2754 135.554 69.2926 135.64 69.2926 135.728C69.2912 135.904 69.2204 136.072 69.0956 136.195C68.9709 136.319 68.8023 136.388 68.6266 136.388Z" fill="#6589D1"/>
<path d="M68.6266 139.493H61.8614C61.6847 139.493 61.5153 139.423 61.3904 139.298C61.2655 139.173 61.1953 139.004 61.1953 138.827C61.1953 138.65 61.2655 138.481 61.3904 138.356C61.5153 138.231 61.6847 138.161 61.8614 138.161H68.6266C68.714 138.161 68.8007 138.178 68.8815 138.212C68.9623 138.245 69.0357 138.294 69.0976 138.356C69.1594 138.418 69.2085 138.491 69.2419 138.572C69.2754 138.653 69.2926 138.739 69.2926 138.827C69.2926 138.914 69.2754 139.001 69.2419 139.082C69.2085 139.163 69.1594 139.236 69.0976 139.298C69.0357 139.36 68.9623 139.409 68.8815 139.442C68.8007 139.476 68.714 139.493 68.6266 139.493Z" fill="#6589D1"/>
<path d="M68.6266 142.537H61.8614C61.6847 142.537 61.5153 142.467 61.3904 142.342C61.2655 142.217 61.1953 142.048 61.1953 141.871C61.1953 141.694 61.2655 141.525 61.3904 141.4C61.5153 141.275 61.6847 141.205 61.8614 141.205H68.6266C68.714 141.205 68.8007 141.222 68.8815 141.256C68.9623 141.289 69.0357 141.338 69.0976 141.4C69.1594 141.462 69.2085 141.535 69.2419 141.616C69.2754 141.697 69.2926 141.784 69.2926 141.871C69.2926 141.958 69.2754 142.045 69.2419 142.126C69.2085 142.207 69.1594 142.28 69.0976 142.342C69.0357 142.404 68.9623 142.453 68.8815 142.486C68.8007 142.52 68.714 142.537 68.6266 142.537Z" fill="#6589D1"/>
<path d="M68.6266 145.609H61.8614C61.6857 145.609 61.5171 145.539 61.3923 145.416C61.2676 145.292 61.1968 145.124 61.1953 144.948C61.1953 144.772 61.2655 144.602 61.3904 144.477C61.5153 144.352 61.6847 144.282 61.8614 144.282H68.6266C68.714 144.282 68.8007 144.299 68.8815 144.333C68.9623 144.366 69.0357 144.415 69.0976 144.477C69.1594 144.539 69.2085 144.612 69.2419 144.693C69.2754 144.774 69.2926 144.861 69.2926 144.948C69.2912 145.124 69.2204 145.292 69.0956 145.416C68.9709 145.539 68.8023 145.609 68.6266 145.609Z" fill="#6589D1"/>
<path d="M100.3 130.245H71.2188C71.0431 130.245 70.8745 130.176 70.7498 130.052C70.625 129.928 70.5542 129.76 70.5527 129.585C70.5527 129.408 70.6229 129.239 70.7478 129.114C70.8727 128.989 71.0421 128.919 71.2188 128.919H100.3C100.476 128.919 100.646 128.989 100.771 129.114C100.896 129.239 100.966 129.408 100.966 129.585C100.964 129.76 100.894 129.928 100.769 130.052C100.644 130.176 100.475 130.245 100.3 130.245Z" fill="#3B5FB7"/>
<path d="M100.3 133.317H71.2188C71.0421 133.317 70.8727 133.247 70.7478 133.122C70.6229 132.997 70.5527 132.827 70.5527 132.651C70.5527 132.474 70.6229 132.305 70.7478 132.18C70.8727 132.055 71.0421 131.985 71.2188 131.985H100.3C100.476 131.985 100.646 132.055 100.771 132.18C100.896 132.305 100.966 132.474 100.966 132.651C100.966 132.738 100.949 132.825 100.915 132.906C100.882 132.986 100.833 133.06 100.771 133.122C100.709 133.184 100.636 133.233 100.555 133.266C100.474 133.3 100.387 133.317 100.3 133.317Z" fill="#3B5FB7"/>
<path d="M100.3 136.388H71.2188C71.0431 136.388 70.8745 136.319 70.7498 136.195C70.625 136.072 70.5542 135.904 70.5527 135.728C70.5527 135.551 70.6229 135.382 70.7478 135.257C70.8727 135.132 71.0421 135.062 71.2188 135.062H100.3C100.476 135.062 100.646 135.132 100.771 135.257C100.896 135.382 100.966 135.551 100.966 135.728C100.964 135.904 100.894 136.072 100.769 136.195C100.644 136.319 100.475 136.388 100.3 136.388Z" fill="#3B5FB7"/>
<path d="M100.3 139.493H71.2188C71.0421 139.493 70.8727 139.423 70.7478 139.298C70.6229 139.173 70.5527 139.004 70.5527 138.827C70.5527 138.65 70.6229 138.481 70.7478 138.356C70.8727 138.231 71.0421 138.161 71.2188 138.161H100.3C100.476 138.161 100.646 138.231 100.771 138.356C100.896 138.481 100.966 138.65 100.966 138.827C100.966 138.914 100.949 139.001 100.915 139.082C100.882 139.163 100.833 139.236 100.771 139.298C100.709 139.36 100.636 139.409 100.555 139.442C100.474 139.476 100.387 139.493 100.3 139.493Z" fill="#3B5FB7"/>
<path d="M100.3 142.537H71.2188C71.0421 142.537 70.8727 142.467 70.7478 142.342C70.6229 142.217 70.5527 142.048 70.5527 141.871C70.5527 141.694 70.6229 141.525 70.7478 141.4C70.8727 141.275 71.0421 141.205 71.2188 141.205H100.3C100.476 141.205 100.646 141.275 100.771 141.4C100.896 141.525 100.966 141.694 100.966 141.871C100.966 141.958 100.949 142.045 100.915 142.126C100.882 142.207 100.833 142.28 100.771 142.342C100.709 142.404 100.636 142.453 100.555 142.486C100.474 142.52 100.387 142.537 100.3 142.537Z" fill="#3B5FB7"/>
<path d="M100.3 145.609H71.2188C71.0431 145.609 70.8745 145.539 70.7498 145.416C70.625 145.292 70.5542 145.124 70.5527 144.948C70.5527 144.772 70.6229 144.602 70.7478 144.477C70.8727 144.352 71.0421 144.282 71.2188 144.282H100.3C100.476 144.282 100.646 144.352 100.771 144.477C100.896 144.602 100.966 144.772 100.966 144.948C100.964 145.124 100.894 145.292 100.769 145.416C100.644 145.539 100.475 145.609 100.3 145.609Z" fill="#3B5FB7"/>
<path d="M304.469 22.2681C306.771 12.6565 300.846 2.99847 291.235 0.696255C281.623 -1.60596 271.965 4.31946 269.663 13.931C267.36 23.5426 273.286 33.2007 282.897 35.5029C292.509 37.8051 302.167 31.8797 304.469 22.2681Z" stroke="#E0E0E0" stroke-width="0.789569" stroke-miterlimit="10"/>
<path d="M293.38 32.319C301.236 28.8424 304.787 19.655 301.311 11.7985C297.834 3.94193 288.647 0.391302 280.79 3.86792C272.933 7.34454 269.383 16.5319 272.859 24.3884C276.336 32.245 285.523 35.7956 293.38 32.319Z" fill="#407BFF"/>
<path d="M288.504 18.1103C288.506 18.3916 288.423 18.667 288.267 18.9013C288.112 19.1357 287.89 19.3186 287.63 19.4268C287.371 19.535 287.085 19.5636 286.809 19.5089C286.533 19.4543 286.279 19.3189 286.08 19.12C285.881 18.921 285.746 18.6675 285.691 18.3915C285.636 18.1155 285.665 17.8295 285.773 17.5697C285.881 17.31 286.064 17.0883 286.299 16.9326C286.533 16.777 286.808 16.6945 287.09 16.6956C287.465 16.6956 287.825 16.8446 288.09 17.1099C288.355 17.3752 288.504 17.7351 288.504 18.1103Z" fill="white"/>
<path d="M286.93 17.8405C286.827 17.8962 286.707 17.9095 286.595 17.8776C286.483 17.8457 286.387 17.7711 286.33 17.6698L281.755 9.41289C281.727 9.36231 281.709 9.30665 281.702 9.24909C281.695 9.19153 281.7 9.13321 281.716 9.07747C281.732 9.02172 281.759 8.96966 281.795 8.92426C281.831 8.87885 281.875 8.84101 281.926 8.81288C282.029 8.75695 282.15 8.74348 282.263 8.77535C282.376 8.80721 282.473 8.88189 282.531 8.98353L287.106 17.2405C287.161 17.3436 287.173 17.4643 287.141 17.5765C287.108 17.6888 287.032 17.7836 286.93 17.8405Z" fill="white"/>
<path d="M287.31 18.3359C287.393 18.2532 287.506 18.2068 287.624 18.2068C287.741 18.2068 287.854 18.2532 287.937 18.3359L291.895 22.2938C291.937 22.3347 291.97 22.3836 291.993 22.4375C292.015 22.4913 292.027 22.5491 292.027 22.6075C292.027 22.6659 292.015 22.7237 291.993 22.7776C291.97 22.8315 291.937 22.8803 291.895 22.9213C291.854 22.9629 291.806 22.9959 291.752 23.0185C291.698 23.0411 291.64 23.0527 291.582 23.0527C291.523 23.0527 291.465 23.0411 291.411 23.0185C291.358 22.9959 291.309 22.9629 291.268 22.9213L287.31 18.9414C287.234 18.859 287.191 18.7509 287.191 18.6387C287.191 18.5264 287.234 18.4183 287.31 18.3359Z" fill="white"/>
<path d="M287.182 5.65876V3.86975" stroke="white" stroke-width="2" stroke-miterlimit="10" stroke-linecap="round"/>
<path d="M299.535 18.2039H301.324" stroke="white" stroke-width="2" stroke-miterlimit="10" stroke-linecap="round"/>
<path d="M286.99 30.5618V32.3508" stroke="white" stroke-width="2" stroke-miterlimit="10" stroke-linecap="round"/>
<path d="M274.633 18.0167H272.844" stroke="white" stroke-width="2" stroke-miterlimit="10" stroke-linecap="round"/>
<g opacity="0.5">
<path d="M280.941 7.27715L280.049 5.73035" stroke="#E0E0E0" stroke-miterlimit="10" stroke-linecap="round"/>
<path d="M297.916 11.9671L299.463 11.0754" stroke="#E0E0E0" stroke-miterlimit="10" stroke-linecap="round"/>
<path d="M293.227 28.9434L294.124 30.4902" stroke="#E0E0E0" stroke-miterlimit="10" stroke-linecap="round"/>
<path d="M276.255 24.2535L274.703 25.1507" stroke="#E0E0E0" stroke-miterlimit="10" stroke-linecap="round"/>
</g>
<g opacity="0.5">
<path d="M276.349 11.802L274.797 10.9102" stroke="#E0E0E0" stroke-miterlimit="10" stroke-linecap="round"/>
<path d="M293.391 7.37622L294.288 5.82391" stroke="#E0E0E0" stroke-miterlimit="10" stroke-linecap="round"/>
<path d="M297.816 24.4186L299.369 25.3103" stroke="#E0E0E0" stroke-miterlimit="10" stroke-linecap="round"/>
<path d="M280.775 28.8443L279.883 30.3966" stroke="#E0E0E0" stroke-miterlimit="10" stroke-linecap="round"/>
</g>
<path d="M74.4882 77.9732H54.8422C51.9328 77.9732 49.5742 80.3317 49.5742 83.2411V102.887C49.5742 105.797 51.9328 108.155 54.8422 108.155H74.4882C77.3976 108.155 79.7561 105.797 79.7561 102.887V83.2411C79.7561 80.3317 77.3976 77.9732 74.4882 77.9732Z" fill="#2B6CFE"/>
<path d="M73.1943 75.3585H51.4564C49.1247 75.3585 47.2344 77.2488 47.2344 79.5806V101.318C47.2344 103.65 49.1247 105.54 51.4564 105.54H73.1943C75.526 105.54 77.4163 103.65 77.4163 101.318V79.5806C77.4163 77.2488 75.526 75.3585 73.1943 75.3585Z" fill="#407BFF" stroke="#E0E0E0" stroke-miterlimit="10"/>
<path d="M67.5587 86.9953H67.3991V85.2668C67.3991 83.9018 66.8568 82.5927 65.8916 81.6275C64.9264 80.6623 63.6173 80.12 62.2522 80.12C60.8872 80.12 59.5781 80.6623 58.6129 81.6275C57.6476 82.5927 57.1054 83.9018 57.1054 85.2668V86.9953H57.0669C56.6829 86.9953 56.3147 87.1478 56.0432 87.4193C55.7717 87.6908 55.6191 88.059 55.6191 88.443V94.955C55.6191 95.339 55.7717 95.7072 56.0432 95.9787C56.3147 96.2502 56.6829 96.4027 57.0669 96.4027H67.5532C67.9362 96.4013 68.303 96.2481 68.5733 95.9767C68.8436 95.7054 68.9954 95.338 68.9954 94.955V88.443C68.9954 88.0609 68.8444 87.6944 68.5753 87.4232C68.3062 87.152 67.9408 86.9982 67.5587 86.9953ZM58.41 85.2668C58.41 84.2449 58.816 83.2648 59.5386 82.5422C60.2612 81.8196 61.2413 81.4136 62.2632 81.4136C63.2852 81.4136 64.2653 81.8196 64.9879 82.5422C65.7105 83.2648 66.1165 84.2449 66.1165 85.2668V86.9953H58.41V85.2668Z" fill="#E0E0E0"/>
<path d="M64.0082 90.3476C64.0085 90.0532 63.9313 89.764 63.7845 89.5088C63.6377 89.2537 63.4264 89.0416 63.1718 88.8939C62.9172 88.7462 62.6282 88.668 62.3338 88.6672C62.0394 88.6665 61.75 88.7431 61.4946 88.8894C61.2392 89.0358 61.0268 89.2467 60.8786 89.5011C60.7304 89.7554 60.6517 90.0443 60.6504 90.3386C60.6491 90.633 60.7252 90.9225 60.8711 91.1782C61.017 91.4339 61.2275 91.6467 61.4816 91.7953C61.5407 91.8264 61.5879 91.8762 61.6158 91.937C61.6437 91.9977 61.6507 92.066 61.6357 92.1311L61.344 93.232C61.3048 93.3811 61.3004 93.5371 61.3311 93.6881C61.3617 93.8391 61.4265 93.9811 61.5207 94.1031C61.6148 94.2251 61.7356 94.3239 61.8739 94.3919C62.0122 94.4599 62.1642 94.4952 62.3183 94.4952C62.4724 94.4952 62.6244 94.4599 62.7627 94.3919C62.901 94.3239 63.0218 94.2251 63.1159 94.1031C63.21 93.9811 63.2749 93.8391 63.3055 93.6881C63.3362 93.5371 63.3318 93.3811 63.2926 93.232L63.0009 92.1641C62.9846 92.0982 62.9909 92.0287 63.0188 91.9668C63.0468 91.9049 63.0948 91.8542 63.155 91.8229C63.4179 91.6778 63.6363 91.4637 63.7866 91.2038C63.937 90.9439 64.0136 90.6478 64.0082 90.3476Z" fill="#7E89FD"/>
<path d="M68.3787 98.6872H56.2685C56.104 98.6857 55.9466 98.6197 55.8303 98.5034C55.7139 98.3871 55.6479 98.2297 55.6465 98.0652C55.6479 97.9011 55.7141 97.7443 55.8306 97.6289C55.9471 97.5134 56.1045 97.4486 56.2685 97.4486H68.3787C68.4601 97.4479 68.5409 97.4633 68.6163 97.494C68.6918 97.5246 68.7604 97.5699 68.8182 97.6273C68.8761 97.6846 68.922 97.7528 68.9533 97.8279C68.9846 97.9031 69.0007 97.9837 69.0007 98.0652C69.0007 98.2301 68.9352 98.3883 68.8186 98.505C68.7019 98.6216 68.5437 98.6872 68.3787 98.6872Z" fill="#E0E0E0"/>
<path d="M68.3787 100.784H56.2685C56.1045 100.784 55.9471 100.72 55.8306 100.604C55.7141 100.489 55.6479 100.332 55.6465 100.168C55.6465 100.003 55.712 99.8447 55.8287 99.728C55.9453 99.6114 56.1035 99.5459 56.2685 99.5459H68.3787C68.4606 99.5451 68.5418 99.5607 68.6176 99.5917C68.6934 99.6227 68.7623 99.6685 68.8202 99.7264C68.8781 99.7843 68.9239 99.8532 68.9549 99.929C68.9859 100.005 69.0015 100.086 69.0007 100.168C69.0007 100.249 68.9846 100.33 68.9533 100.405C68.922 100.48 68.8761 100.548 68.8182 100.606C68.7604 100.663 68.6918 100.708 68.6163 100.739C68.5409 100.77 68.4601 100.785 68.3787 100.784Z" fill="#E0E0E0"/>
<path d="M312.246 125.869H300.675C298.964 125.869 297.576 127.257 297.576 128.968V140.539C297.576 142.25 298.964 143.638 300.675 143.638H312.246C313.958 143.638 315.345 142.25 315.345 140.539V128.968C315.345 127.257 313.958 125.869 312.246 125.869Z" fill="#2B6CFE"/>
<path d="M311.486 124.328H298.682C297.311 124.328 296.199 125.439 296.199 126.81V139.614C296.199 140.985 297.311 142.097 298.682 142.097H311.486C312.857 142.097 313.968 140.985 313.968 139.614V126.81C313.968 125.439 312.857 124.328 311.486 124.328Z" fill="#407BFF" stroke="#E0E0E0" stroke-miterlimit="10"/>
<path d="M301.472 138.524C301.423 138.529 301.373 138.529 301.323 138.524C301.253 138.505 301.188 138.471 301.131 138.426C301.074 138.381 301.027 138.325 300.991 138.262C300.956 138.199 300.934 138.129 300.925 138.057C300.917 137.984 300.923 137.911 300.943 137.842L303.674 128.308C303.714 128.168 303.807 128.049 303.934 127.978C304.061 127.907 304.211 127.889 304.351 127.928C304.421 127.947 304.486 127.981 304.543 128.026C304.6 128.071 304.648 128.127 304.683 128.19C304.718 128.253 304.741 128.323 304.749 128.395C304.757 128.468 304.751 128.541 304.731 128.61L302.022 138.122C301.989 138.241 301.917 138.346 301.817 138.419C301.717 138.492 301.595 138.529 301.472 138.524Z" fill="white"/>
<path d="M305.991 138.524C305.94 138.53 305.888 138.53 305.837 138.524C305.767 138.505 305.702 138.471 305.645 138.426C305.588 138.381 305.54 138.325 305.505 138.262C305.47 138.199 305.447 138.129 305.439 138.057C305.431 137.984 305.437 137.911 305.457 137.842L308.143 128.33C308.184 128.189 308.278 128.07 308.406 127.998C308.534 127.927 308.685 127.91 308.826 127.95C308.967 127.99 309.086 128.084 309.157 128.212C309.228 128.34 309.246 128.491 309.206 128.632L306.52 138.144C306.483 138.256 306.412 138.352 306.317 138.421C306.222 138.489 306.108 138.525 305.991 138.524Z" fill="white"/>
<path d="M309.84 131.61H300.328C300.182 131.61 300.042 131.552 299.939 131.449C299.835 131.346 299.777 131.206 299.777 131.06C299.777 130.914 299.835 130.774 299.939 130.671C300.042 130.567 300.182 130.509 300.328 130.509H309.84C309.986 130.509 310.126 130.567 310.229 130.671C310.332 130.774 310.39 130.914 310.39 131.06C310.39 131.206 310.332 131.346 310.229 131.449C310.126 131.552 309.986 131.61 309.84 131.61Z" fill="white"/>
<path d="M309.84 135.954H300.328C300.182 135.954 300.042 135.896 299.939 135.792C299.835 135.689 299.777 135.549 299.777 135.403C299.777 135.257 299.835 135.117 299.939 135.014C300.042 134.911 300.182 134.853 300.328 134.853H309.84C309.986 134.853 310.126 134.911 310.229 135.014C310.332 135.117 310.39 135.257 310.39 135.403C310.39 135.549 310.332 135.689 310.229 135.792C310.126 135.896 309.986 135.954 309.84 135.954Z" fill="white"/>
<path d="M97.7287 87.1989H90.8479C90.6479 87.1989 90.4561 87.1195 90.3146 86.9781C90.1732 86.8366 90.0938 86.6448 90.0938 86.4448C90.0938 86.2448 90.1732 86.053 90.3146 85.9116C90.4561 85.7701 90.6479 85.6907 90.8479 85.6907H97.7287C97.9287 85.6907 98.1205 85.7701 98.2619 85.9116C98.4034 86.053 98.4828 86.2448 98.4828 86.4448C98.4828 86.6448 98.4034 86.8366 98.2619 86.9781C98.1205 87.1195 97.9287 87.1989 97.7287 87.1989Z" fill="#F0F4FF"/>
<path d="M104.659 90.5403H90.8479C90.6479 90.5403 90.4561 90.4608 90.3146 90.3194C90.1732 90.1779 90.0938 89.9861 90.0938 89.7861C90.0952 89.5866 90.1751 89.3956 90.3162 89.2545C90.4573 89.1133 90.6483 89.0334 90.8479 89.032H104.659C104.859 89.032 105.051 89.1114 105.192 89.2529C105.334 89.3943 105.413 89.5861 105.413 89.7861C105.413 89.9861 105.334 90.1779 105.192 90.3194C105.051 90.4608 104.859 90.5403 104.659 90.5403Z" fill="#F0F4FF"/>
<path d="M92.4836 93.8926H90.8323C90.6327 93.8912 90.4417 93.8113 90.3006 93.6701C90.1595 93.529 90.0796 93.338 90.0781 93.1385C90.0781 92.9385 90.1576 92.7466 90.299 92.6052C90.4404 92.4638 90.6322 92.3843 90.8323 92.3843H92.4836C92.6837 92.3843 92.8755 92.4638 93.0169 92.6052C93.1583 92.7466 93.2378 92.9385 93.2378 93.1385C93.2363 93.338 93.1564 93.529 93.0153 93.6701C92.8742 93.8113 92.6832 93.8912 92.4836 93.8926Z" fill="#F0F4FF"/>
<path d="M104.66 93.8926H95.0491C94.8495 93.8912 94.6585 93.8113 94.5174 93.6701C94.3763 93.529 94.2964 93.338 94.2949 93.1385C94.2949 92.9385 94.3744 92.7466 94.5158 92.6052C94.6572 92.4638 94.849 92.3843 95.0491 92.3843H104.666C104.866 92.3843 105.057 92.4638 105.199 92.6052C105.34 92.7466 105.42 92.9385 105.42 93.1385C105.42 93.238 105.4 93.3365 105.362 93.4283C105.324 93.5202 105.268 93.6036 105.197 93.6737C105.126 93.7438 105.043 93.7992 104.95 93.8368C104.858 93.8744 104.76 93.8933 104.66 93.8926Z" fill="#F0F4FF"/>
<path d="M104.659 87.1989H100.492C100.292 87.1989 100.101 87.1195 99.9592 86.9781C99.8177 86.8366 99.7383 86.6448 99.7383 86.4448C99.7383 86.2448 99.8177 86.053 99.9592 85.9116C100.101 85.7701 100.292 85.6907 100.492 85.6907H104.659C104.859 85.6907 105.051 85.7701 105.193 85.9116C105.334 86.053 105.414 86.2448 105.414 86.4448C105.414 86.6448 105.334 86.8366 105.193 86.9781C105.051 87.1195 104.859 87.1989 104.659 87.1989Z" fill="#F0F4FF"/>
<path d="M65.8734 190.092C65.0109 190.088 64.164 190.321 63.4238 190.763C63.2751 189.457 62.6326 188.258 61.628 187.411C60.6233 186.564 59.3326 186.133 58.0205 186.207C56.7084 186.281 55.4742 186.854 54.5711 187.808C53.6679 188.763 53.1642 190.027 53.1631 191.341C53.1637 191.525 53.1747 191.709 53.1962 191.892C52.6576 191.787 52.1031 191.797 51.5685 191.92C51.0339 192.043 50.531 192.277 50.0921 192.606C49.6532 192.935 49.288 193.352 49.0201 193.831C48.7522 194.31 48.5875 194.839 48.5365 195.385C48.4856 195.932 48.5495 196.482 48.7243 197.002C48.899 197.522 49.1807 198 49.5511 198.405C49.9216 198.809 50.3727 199.132 50.8753 199.352C51.3779 199.571 51.921 199.683 52.4696 199.681H65.8734C66.5177 199.703 67.1599 199.594 67.7617 199.363C68.3634 199.131 68.9124 198.781 69.376 198.333C69.8396 197.885 70.2082 197.348 70.46 196.754C70.7118 196.161 70.8415 195.523 70.8415 194.878C70.8415 194.233 70.7118 193.595 70.46 193.001C70.2082 192.408 69.8396 191.871 69.376 191.423C68.9124 190.975 68.3634 190.624 67.7617 190.393C67.1599 190.161 66.5177 190.053 65.8734 190.075V190.092Z" fill="white"/>
<path d="M0.308594 199.692H358.231" stroke="white" stroke-width="1.1144" stroke-miterlimit="10" stroke-linecap="round"/>
</g>
<defs>
<clipPath id="clip0_1067_17489">
<rect width="358.534" height="200" fill="white"/>
</clipPath>
</defs>
</svg>
