<svg width="300" height="200" viewBox="0 0 300 200" fill="none" xmlns="http://www.w3.org/2000/svg">
<g clip-path="url(#clip0_1071_10488)">
<path d="M295.231 171.894C273.636 173.728 259.076 214.226 205.09 189.877C205.09 189.877 211.022 172.207 237.576 161.191C264.13 150.174 295.231 171.894 295.231 171.894Z" fill="#CDDCF4"/>
<path d="M212.465 186.846C218.114 183.928 223.943 181.371 229.915 179.189C231.404 178.62 232.91 178.108 234.42 177.622C235.93 177.136 237.446 176.639 238.967 176.169C240.488 175.698 242.029 175.285 243.566 174.867C244.334 174.664 245.102 174.444 245.876 174.251L248.201 173.692L250.532 173.169L252.879 172.709L255.225 172.244C256.009 172.098 256.793 171.977 257.588 171.857C259.155 171.627 260.723 171.361 262.328 171.209C263.932 171.058 265.495 170.817 267.094 170.754C273.453 170.228 279.851 170.465 286.154 171.46C279.84 171.329 273.526 171.661 267.261 172.453L266.09 172.584L264.92 172.766L262.589 173.106C261.021 173.305 259.485 173.629 257.938 173.895C257.164 174.047 256.37 174.157 255.612 174.319L253.302 174.799L250.992 175.28L248.698 175.829L246.393 176.352C245.63 176.535 244.872 176.738 244.109 176.932L241.82 177.528C241.057 177.721 240.305 177.956 239.542 178.155C238.021 178.573 236.5 178.98 234.995 179.451C233.49 179.921 231.964 180.339 230.464 180.82C224.433 182.675 218.459 184.745 212.465 186.846Z" fill="#B0BDD1"/>
<path d="M297.876 103.008C271.525 121.822 283.713 184.964 195.777 194.905C195.777 194.905 189.908 167.676 215.637 133.236C241.365 98.7954 297.876 103.008 297.876 103.008Z" fill="#DBE9FF"/>
<path d="M201.631 187.3C205.516 178.99 210.166 171.059 215.522 163.61C220.854 156.105 226.797 149.054 233.291 142.528C239.762 135.964 246.84 130.029 254.431 124.801C262.019 119.611 270.209 115.148 278.941 112.368C270.933 116.63 263.32 121.597 256.192 127.21C249.096 132.793 242.352 138.81 235.998 145.225C229.634 151.644 223.595 158.379 217.905 165.403C212.193 172.448 206.841 179.775 201.631 187.3Z" fill="#CDDCF4"/>
<path d="M13.625 166.296C35.0523 169.646 46.7066 211.048 102.276 190.582C102.276 190.582 97.6042 172.536 71.8915 159.675C46.1788 146.813 13.625 166.296 13.625 166.296Z" fill="#CDDCF4"/>
<path d="M95.1312 187.013C89.2988 184.494 83.4873 182.012 77.6026 179.696C76.1393 179.111 74.6551 178.573 73.1813 178.008C71.7075 177.444 70.2233 176.921 68.7338 176.399C67.9917 176.148 67.2548 175.876 66.5075 175.61L64.2707 174.857C63.5234 174.611 62.776 174.334 62.0287 174.115L59.7657 173.43L57.5185 172.719L55.2451 172.077L52.9717 171.434C52.2192 171.22 51.4457 171.058 50.6879 170.854C49.1619 170.462 47.6463 170.044 46.1046 169.735L43.7998 169.213L42.6501 168.951L41.4899 168.737C35.2943 167.504 29.0164 166.728 22.707 166.417C29.0649 165.868 35.4656 166.083 41.7721 167.06C43.3399 167.227 44.9078 167.582 46.4756 167.843C48.0435 168.105 49.6113 168.486 51.1792 168.826C51.9579 169.004 52.747 169.176 53.5048 169.38L55.8148 170.002L58.1247 170.629L60.4138 171.329L62.6924 172.051C63.4502 172.296 64.1975 172.573 64.9501 172.824C66.4552 173.347 67.9708 173.869 69.4446 174.449C70.9184 175.029 72.4183 175.594 73.8816 176.221C75.3449 176.848 76.8187 177.444 78.2611 178.118C84.0687 180.72 89.7036 183.691 95.1312 187.013Z" fill="#B0BDD1"/>
<path d="M27.8613 100.107C51.5881 119.737 35.7999 178.782 118.53 194.094C118.53 194.094 125.92 168.664 103.834 134.302C81.7483 99.9399 27.8613 100.107 27.8613 100.107Z" fill="#DBE9FF"/>
<path d="M113.486 186.49C109.018 179.022 104.414 171.726 99.4749 164.676C94.5361 157.626 89.2682 150.838 83.6605 144.347C78.0644 137.843 72.0781 131.686 65.7348 125.909C59.3621 120.092 52.4912 114.846 45.2012 110.23C53.3174 113.418 60.8013 118.19 67.6737 123.609C74.539 129.076 80.8685 135.183 86.5767 141.849C92.2933 148.475 97.4468 155.567 101.983 163.051C106.55 170.483 110.402 178.331 113.486 186.49Z" fill="#CDDCF4"/>
<path d="M167.399 155.076C164.431 158.604 161.739 164.452 160.082 165.382C158.426 166.312 155.562 166.631 152.917 175.181C150.273 183.731 163.694 182.576 163.694 182.576C163.694 182.576 169.443 179.273 171.763 171.298L177.512 166.197L167.399 155.076Z" fill="#F6A397"/>
<path d="M157 181.656C160.048 180.515 162.798 178.698 165.043 176.341C168.748 172.432 169.224 165.471 169.224 165.471L171.001 168.784L174.549 164.995L176.258 164.828L177.518 166.218L171.769 171.319C169.449 179.294 163.7 182.597 163.7 182.597C161.399 182.762 159.087 182.552 156.854 181.975C156.937 181.782 157 181.656 157 181.656Z" fill="#D65863"/>
<path d="M187.551 124.383C183.433 127.393 180.977 129.577 178.928 133.67C176.879 137.762 164.054 152.484 163.249 153.785C162.445 155.086 170.462 169.019 176.885 172.432C176.885 172.432 186.59 161.238 192.182 157.01C197.773 152.782 195.84 137.767 193.274 132.718C191.732 129.705 189.809 126.904 187.551 124.383Z" fill="#407BFF"/>
<path d="M187.4 151.47V143.108C187.4 143.108 188.492 142.674 189.339 145.496C189.635 146.583 189.69 147.721 189.501 148.831L195.746 144.127C196.007 149.385 195.161 154.736 192.166 156.999C186.574 161.227 176.869 172.422 176.869 172.422C174.937 171.266 173.21 169.799 171.758 168.079C175.709 164.154 183.203 156.56 187.4 151.47Z" fill="#314EC6"/>
<path d="M147.488 179.294C146.443 179.628 145.633 180.141 145.633 181.484C145.633 182.827 145.863 184.97 146.375 185.801C146.887 186.631 149.511 187.138 149.511 187.138C149.511 187.138 149.333 181.578 148.779 180.559C148.513 179.997 148.055 179.549 147.488 179.294Z" fill="#F6A397"/>
<path d="M146.374 185.801C146.207 185.495 146.084 185.168 146.008 184.828C146.186 185.042 146.412 185.211 146.667 185.322C146.921 185.434 147.199 185.485 147.476 185.471L149.478 186.093C149.509 186.72 149.52 187.138 149.52 187.138C149.52 187.138 146.886 186.637 146.374 185.801Z" fill="#D65863"/>
<path d="M150.042 177.271C148.741 177.413 147.429 178.385 147.429 179.733C147.429 181.081 146.964 184.839 147.429 185.44C147.895 186.041 150.168 187.76 150.957 187.901C151.746 188.043 153.089 187.807 152.906 187.379C152.723 186.95 150.042 177.271 150.042 177.271Z" fill="#F6A397"/>
<path d="M147.242 184.421C148.23 185.534 150.749 185.435 150.749 185.435C151.215 185.914 151.632 186.439 151.993 187.003C152.076 187.232 152.515 187.525 152.594 187.766C152.069 187.934 151.513 187.978 150.968 187.896C150.195 187.76 148 186.109 147.477 185.476L147.242 184.431V184.421Z" fill="#D65863"/>
<path d="M154.909 175.04C150.921 175.265 150.179 175.636 150.043 177.261C149.908 178.886 149.996 183.621 150.503 184.828C151.01 186.036 151.292 187.102 151.946 187.75C152.391 188.154 152.965 188.386 153.566 188.403C153.566 188.403 155.75 185.2 155.844 182.508C155.939 179.817 154.909 175.04 154.909 175.04Z" fill="#F6A397"/>
<path d="M152.614 185.738C153.099 183.786 153.338 181.781 153.324 179.77C153.324 178.385 154.631 185.623 154.056 187.609C153.769 188.1 153.565 188.403 153.565 188.403C152.964 188.386 152.39 188.154 151.945 187.75C151.291 187.102 151.014 186.036 150.502 184.828C150.466 184.736 150.435 184.642 150.408 184.546C150.67 185.226 151.495 185.67 152.614 185.738Z" fill="#D65863"/>
<path d="M163.641 183.203C163.391 185.419 160.506 186.219 160.161 187.332C159.816 188.445 160.067 189.469 159.508 189.746C158.948 190.023 156.633 188.727 156.722 187.243C156.526 187.618 156.249 187.945 155.912 188.202C155.576 188.458 155.186 188.638 154.773 188.727C153.43 188.957 153.106 187.975 153.335 186.496C153.526 185.16 153.573 183.807 153.477 182.461C153.43 180.695 153.011 179.074 153.801 177.125C154.59 175.176 155.656 173.467 157.793 173.78C159.931 174.094 161.227 176.796 162.387 177.726C163.547 178.656 163.924 180.742 163.641 183.203Z" fill="#F6A397"/>
<path d="M156.723 187.243C156.853 184.421 157 182.111 157 181.656C157 181.202 156.853 178.207 157.919 178.029C158.081 177.998 160.423 179.482 160.465 180.486C160.506 181.489 160.465 183.282 159.738 183.794C159.012 184.306 156.723 187.243 156.723 187.243Z" fill="#D65863"/>
<path d="M253.447 130.398C249.214 125.01 247.761 124.487 243.392 121.937C239.023 119.386 222.487 112.927 219.054 112.106C215.62 111.286 201.881 117.693 197.37 119.752C192.86 121.811 187.111 123.813 186.129 125.809C182.852 132.488 189.343 141.953 189.38 161.786C189.38 172.176 191.763 195.537 191.763 195.537C191.763 195.537 243.763 195.631 244.489 194.539C245.216 193.446 247.019 156.147 247.939 148.528C248.858 140.908 253.447 130.398 253.447 130.398Z" fill="#407BFF"/>
<path d="M186.318 136.267C185.949 135.016 185.676 133.739 185.502 132.447C185.304 131.158 185.203 129.857 185.199 128.553C185.57 129.804 185.845 131.081 186.02 132.373C186.214 133.662 186.313 134.964 186.318 136.267Z" fill="#314EC6"/>
<path d="M205.759 128.454C203.753 127.701 198.992 129.008 198.124 129.311C197.257 129.614 198.647 125.893 199.169 125.433C199.692 124.973 200.497 123.897 202.07 124.388C203.643 124.879 204.955 126.672 205.205 127.262C205.359 127.673 205.544 128.072 205.759 128.454Z" fill="#314EC6"/>
<path d="M222.498 131.558C221.782 131.522 217.606 129.598 216.603 129.123C215.599 128.647 211.068 128.423 208.021 129.274C208.021 129.274 213.885 125.313 217.298 125.344C220.711 125.376 222.001 126.609 222.278 127.701C222.461 128.978 222.534 130.269 222.498 131.558Z" fill="#314EC6"/>
<path d="M200.146 187.17C200.705 186.647 234.665 187.719 235.344 184.17C236.024 180.621 236.499 174.167 236.499 174.167C232.412 176.352 226.475 175.442 226.475 175.442C230.432 174.146 236.165 167.655 236.437 165.743C237.278 159.858 234.132 143.631 234.132 143.631L236.437 138.995L239.133 137.495C242.659 139.382 245.86 141.822 248.613 144.723C248.326 145.97 248.101 147.231 247.939 148.501C247.082 155.708 245.415 189.265 244.621 194.006C234.1 194.392 215.035 195.093 202.289 195.526C196.106 195.526 191.768 195.526 191.768 195.526C191.768 195.526 191.69 192.453 191.502 188.048C195.051 187.849 199.801 187.509 200.146 187.17Z" fill="#314EC6"/>
<path d="M207.046 129.442C210.704 128.997 216.599 125.825 218.92 126.917C221.24 128.01 221.784 130.806 222.264 131.281C222.745 131.757 224.789 129.374 224.789 123.505C224.789 117.636 224.966 111.626 220.644 110.81C216.322 109.995 205.133 114.223 202.875 115.932C201.112 117.199 199.779 118.975 199.055 121.022C198.443 122.684 196.802 129.384 197.555 129.442C198.308 129.499 200.419 125.14 201.992 125.005C203.565 124.869 206.053 129.562 207.046 129.442Z" fill="#407BFF"/>
<path d="M204.959 124.184C204.024 121.968 203 120.003 203.036 118.488C203.073 116.972 203.412 115.874 205.127 115.42C206.841 114.965 207.552 115.864 207.651 118.179C207.75 120.494 204.959 124.184 204.959 124.184Z" fill="#314EC6"/>
<path d="M218.338 120.05C221.902 116.815 222.305 113.199 221.996 112.451C221.688 111.704 220.188 111.155 220.188 111.155C220.188 111.155 219.608 113.507 219.948 114.087C220.287 114.667 218.338 120.05 218.338 120.05Z" fill="#314EC6"/>
<path d="M212.658 127.874C213.532 127.487 214.436 127.171 215.36 126.928C216.295 126.667 217.265 126.552 218.235 126.588C218.756 126.601 219.263 126.771 219.687 127.074C220.074 127.44 220.367 127.769 220.696 128.119C221.305 128.876 221.813 129.709 222.206 130.597C222.27 130.766 222.372 130.918 222.504 131.041C222.504 131.041 222.504 131.041 222.583 131.009C222.657 130.951 222.723 130.885 222.781 130.811C223.046 130.438 223.279 130.042 223.476 129.63C223.883 128.793 224.166 127.903 224.318 126.985C224.491 126.058 224.606 125.121 224.663 124.179C224.746 123.233 224.772 122.287 224.788 121.336C224.986 123.238 224.961 125.157 224.715 127.053C224.599 128.021 224.33 128.965 223.921 129.849C223.714 130.299 223.466 130.727 223.178 131.13C223.09 131.242 222.988 131.344 222.875 131.433C222.798 131.487 222.711 131.526 222.619 131.548C222.507 131.573 222.389 131.56 222.285 131.511C222.138 131.432 222.015 131.315 221.929 131.171C221.858 131.062 221.794 130.949 221.736 130.832C221.368 129.976 220.89 129.171 220.315 128.438C220.026 128.074 219.719 127.726 219.395 127.393C219.044 127.135 218.627 126.981 218.193 126.949C217.261 126.873 216.324 126.938 215.412 127.142C214.48 127.329 213.56 127.573 212.658 127.874Z" fill="#314EC6"/>
<path d="M204.254 126.651C203.871 126.293 203.464 125.961 203.036 125.658C202.833 125.511 202.616 125.385 202.388 125.282C202.284 125.238 202.175 125.206 202.064 125.187C202.021 125.182 201.977 125.182 201.933 125.187C201.902 125.187 201.881 125.188 201.818 125.245C200.958 125.798 200.225 126.529 199.67 127.388C199.372 127.801 199.116 128.271 198.766 128.699C198.591 128.92 198.391 129.12 198.17 129.295C198.039 129.41 197.878 129.485 197.705 129.51C197.581 129.519 197.457 129.479 197.36 129.4C197.286 129.332 197.232 129.245 197.204 129.149C197.129 128.866 197.115 128.57 197.162 128.281C197.198 128.01 197.245 127.759 197.303 127.487C197.429 126.973 197.584 126.467 197.768 125.971C197.695 126.494 197.601 127.017 197.559 127.539C197.526 127.794 197.509 128.051 197.507 128.308C197.487 128.544 197.514 128.782 197.585 129.008C197.596 129.035 197.612 129.06 197.632 129.081H197.658C197.744 129.054 197.823 129.008 197.888 128.945C198.072 128.791 198.237 128.615 198.38 128.422C198.683 128.025 198.933 127.571 199.242 127.121C199.548 126.674 199.898 126.259 200.287 125.883C200.679 125.503 201.124 125.182 201.609 124.931C201.684 124.888 201.765 124.856 201.85 124.837C201.936 124.824 202.024 124.824 202.111 124.837C202.259 124.867 202.402 124.92 202.534 124.994C202.772 125.133 202.994 125.295 203.198 125.48C203.586 125.837 203.939 126.229 204.254 126.651Z" fill="#314EC6"/>
<path d="M204.458 110.857C204.458 112.3 204.526 113.737 204.673 115.169C205.044 118.691 204.673 123.332 204.96 124.184C205.268 125.14 207.113 128.553 207.113 128.553C207.113 128.553 210.39 127.053 211.754 125.417C213.118 123.782 214.89 123.698 217.278 121.284C219.666 118.869 221.292 115.012 220.759 111.84C220.691 111.432 220.273 107.345 220.179 103.112C220.084 98.879 215.642 95.6701 211.409 95.6701C207.176 95.6701 204.646 101.941 204.516 106.175C204.463 107.91 204.453 109.54 204.458 110.857Z" fill="#F6A397"/>
<path d="M220.177 103.107C220.271 107.34 220.7 111.427 220.757 111.835C220.917 112.859 220.889 113.904 220.674 114.918C219.738 115.091 207.687 115.383 204.567 113.93C204.494 112.885 204.462 111.882 204.457 110.857C204.457 109.54 204.457 107.91 204.515 106.154C204.609 104.133 205.088 102.148 205.926 100.306L215.855 96.7938C218.275 98.1055 220.12 100.395 220.177 103.107Z" fill="#D65863"/>
<path d="M197.037 85.4896C190.635 85.4896 188.236 90.4074 188.236 94.0971C188.236 97.4 189.282 102.699 197.037 102.699C200.905 102.699 203.523 98.8476 203.523 94.0971C203.523 89.3465 200.905 85.4896 197.037 85.4896Z" fill="#504984"/>
<path d="M196.754 87.5957C191.92 87.5957 190.111 91.3115 190.111 94.0971C190.111 96.5899 190.911 100.593 196.754 100.593C199.675 100.593 201.651 97.6822 201.651 94.0971C201.651 90.5119 199.675 87.5957 196.754 87.5957Z" fill="#372D5B"/>
<path d="M188.957 88.3953C189.339 90.6373 190.447 91.4944 190.943 94.5204C191.44 97.5463 190.117 101.936 192.088 105.767C194.058 109.598 197.251 114.625 199.096 114.84C200.941 115.054 215.694 112.556 220.675 102.652C222.107 99.8093 225.159 88.6671 222.546 81.8574C219.933 75.0477 215.679 68.792 205.853 68.6248C196.028 68.4575 186.956 76.5058 188.957 88.3953Z" fill="#F6A397"/>
<path d="M197.179 100.656C197.43 100.672 197.682 100.634 197.918 100.544C198.153 100.454 198.366 100.314 198.543 100.133C198.652 99.9847 198.731 99.8156 198.774 99.6361C198.817 99.4565 198.824 99.2702 198.793 99.088C198.422 99.3768 197.991 99.5784 197.531 99.6779C197.072 99.7774 196.596 99.7723 196.139 99.6629C196.024 100.337 196.567 100.64 197.179 100.656Z" fill="#D65863"/>
<path d="M214.565 88.3953C214.329 87.0004 213.651 85.7181 212.631 84.737C212.631 84.737 208.874 83.1692 205.968 82.8922C203.982 82.6693 202.016 82.2901 200.089 81.7581C200.089 81.7581 201.008 84.0942 202.566 85.0872C202.566 85.0872 195.62 84.737 193.425 82.6831C193.425 82.6831 193.849 84.3764 194.277 85.5105C194.277 85.5105 190.875 85.1603 189.809 83.8172C189.809 83.8172 188.957 86.7804 188.957 88.4162C188.957 88.4162 184.87 82.8242 185.91 78.382C186.95 73.9397 188.366 72.236 188.366 72.236C186.858 72.3907 185.338 72.3907 183.83 72.236C183.83 72.236 187.614 68.9331 190.446 66.759C193.279 64.5849 201.787 64.4908 201.787 64.4908C201.787 64.4908 201.123 62.2227 201.881 58.6323C201.881 58.6323 205.54 63.9682 209.37 65.5988C213.201 67.2294 212.705 67.0935 216.786 68.123C220.868 69.1526 224.751 71.7813 226.381 73.9607C228.012 76.14 229.784 78.429 230.845 78.7844C230.845 78.7844 228.294 78.429 227.019 77.3629C227.019 77.3629 229.146 82.1971 226.334 88.4162C223.523 94.6353 216.478 92.7957 215.114 91.4213C214.721 91.0354 214.457 90.5373 214.359 89.9954C214.261 89.4536 214.333 88.8946 214.565 88.3953Z" fill="#BA6454"/>
<path d="M215.14 91.4004C214.751 91.0161 214.49 90.5217 214.392 89.9842C214.294 89.4467 214.363 88.8921 214.591 88.3953C214.406 87.2719 213.934 86.2153 213.222 85.3276C214.237 79.1001 213.821 72.7231 212.004 66.6806C213.049 67.116 214.127 67.4656 215.228 67.7258C217.096 70.5879 218.535 73.7079 219.498 76.9866C220.732 81.1048 221.333 85.5523 220.178 89.6914C219.88 90.7598 219.453 91.7881 218.908 92.7539C217.136 92.6076 215.662 91.9543 215.14 91.4004Z" fill="#874438"/>
<path d="M217.038 86.0853C217.038 86.0853 217.524 70.5375 209.371 65.5779C211.391 65.4695 213.399 65.9389 215.162 66.9311C216.924 67.9234 218.367 69.3973 219.322 71.1803C222.933 77.4883 222.693 82.8974 222.599 85.9285C222.504 88.9597 217.038 86.0853 217.038 86.0853Z" fill="#504984"/>
<path d="M219.519 85.4896C225.921 85.4896 228.32 90.4074 228.32 94.0971C228.32 97.4 227.274 102.699 219.519 102.699C215.652 102.699 213.033 98.8476 213.033 94.0971C213.033 89.3465 215.662 85.4896 219.519 85.4896Z" fill="#504984"/>
<path d="M216.07 94.0971C216.07 89.8743 218.856 86.4564 222.289 86.4564C225.723 86.4564 228.32 89.8743 228.32 94.0971C228.32 98.3198 225.707 101.732 222.289 101.732C218.872 101.732 216.07 98.3146 216.07 94.0971Z" fill="#372D5B"/>
<path d="M223.11 99.2971C225.448 99.2971 227.343 96.969 227.343 94.0971C227.343 91.2252 225.448 88.897 223.11 88.897C220.772 88.897 218.877 91.2252 218.877 94.0971C218.877 96.969 220.772 99.2971 223.11 99.2971Z" fill="#504984"/>
<path d="M203.292 102.699C201.562 103.651 195.912 103.969 195.525 103.917C195.139 103.865 195.933 108.15 197.318 108.312C198.703 108.474 201.468 108.098 202.623 106.99C203.778 105.882 203.292 102.699 203.292 102.699Z" fill="#D65863"/>
<path d="M202.931 103.948L202.659 102.966C200.757 103.614 197.01 103.891 195.865 103.917C195.964 104.509 196.131 105.088 196.362 105.642C196.398 105.642 196.362 105.699 196.388 105.673C197.538 105.854 198.714 105.795 199.841 105.498C200.967 105.201 202.019 104.673 202.931 103.948Z" fill="white"/>
<path d="M202.529 92.4403C202.529 91.6564 202.916 91.024 203.392 91.024C203.867 91.024 204.254 91.6564 204.254 92.4403C204.254 93.2243 203.872 93.8566 203.392 93.8566C202.911 93.8566 202.529 93.2243 202.529 92.4403Z" fill="#3F1751"/>
<path d="M192.668 93.1302C192.668 92.3463 193.002 91.7087 193.41 91.7087C193.818 91.7087 194.152 92.3463 194.152 93.1302C194.152 93.9141 193.823 94.5465 193.41 94.5465C192.997 94.5465 192.668 93.8828 192.668 93.1302Z" fill="#3F1751"/>
<path d="M207.358 86.9163C206.157 86.2771 204.825 85.9197 203.465 85.8711C202.761 85.789 202.049 85.8585 201.374 86.0749C200.703 86.3074 200.11 86.7217 199.66 87.2717L199.712 87.3553C200.423 87.2769 201.014 87.1044 201.636 87.0208C202.258 86.9372 202.827 86.7073 203.465 86.655C204.754 86.5441 206.052 86.6608 207.301 86.9999L207.358 86.9163Z" fill="#3F1751"/>
<path d="M190.17 88.7455C190.478 88.6278 190.799 88.5505 191.126 88.5155C191.444 88.4764 191.763 88.4555 192.083 88.4528C192.398 88.4994 192.717 88.51 193.034 88.4842C193.2 88.4571 193.363 88.4133 193.52 88.3535C193.706 88.2936 193.882 88.2073 194.043 88.0974V87.9981C193.769 87.723 193.417 87.5403 193.034 87.4755C192.677 87.4533 192.32 87.5123 191.989 87.648C191.642 87.734 191.305 87.8585 190.985 88.019C190.666 88.1784 190.375 88.3884 190.123 88.641L190.17 88.7455Z" fill="#3F1751"/>
<path d="M200.146 190.535C200.146 190.755 199.843 191.058 199.101 191.058H175.421C172.693 191.058 172.056 189.981 172.876 188.617C173.697 187.253 177.151 184.248 185.701 182.158C194.251 180.067 198.767 184.954 200.141 187.159C201.166 188.769 200.146 190.535 200.146 190.535Z" fill="#504984"/>
<path d="M172.678 189.036C173.148 190.603 191.21 189.783 191.21 189.783C191.21 189.783 189.376 187.311 187.353 187.243C185.331 187.175 184.343 187.875 181.63 188.34C178.918 188.806 180.925 187.238 180.925 187.238C180.925 187.238 179.007 186.809 178.228 186.192C178.228 186.192 182.702 184.87 184.578 184.562C186.454 184.254 191.231 184.457 191.842 184.562C192.281 184.635 194.482 183.355 197.147 183.997C198.332 184.849 199.349 185.912 200.147 187.133C201.166 188.748 200.147 190.499 200.147 190.499C200.147 190.718 199.844 191.021 199.102 191.021H175.422C172.976 191.068 172.218 190.201 172.678 189.036Z" fill="#372D5B"/>
<path d="M249.92 175.735C249.92 175.735 233.092 178.348 223.967 179.973C215.323 181.541 207.86 182.189 205.749 181.782C203.637 181.374 196.399 178.709 194.079 177.752C191.758 176.796 187.117 176.252 184.729 177.005C182.341 177.757 180.386 178.573 179.43 178.573C178.473 178.573 178.656 180.141 179.952 180.438C180.74 180.632 181.55 180.723 182.361 180.71C182.361 180.71 178.039 183.078 177.266 183.323C176.493 183.569 177.412 184.964 178.458 184.891C178.458 184.891 177.538 185.44 177.857 185.983C178.175 186.527 180.47 186.532 180.47 186.532C180.47 186.532 177.695 187.896 180.01 188.44C182.325 188.983 185.105 186.391 186.245 186.166C187.384 185.942 190.023 186.078 191.293 187.029C192.563 187.98 198.03 192.396 205.487 189.762C205.487 189.762 256.129 191.811 261.177 191.811C266.226 191.811 269.278 187.347 267.658 178.745C266.675 173.549 265.064 168.491 262.86 163.683L245.394 164.912L249.92 175.735Z" fill="#F6A397"/>
<path d="M186.328 179.362C186.671 179.273 187.021 179.211 187.373 179.179L186.328 179.362Z" fill="#D65863"/>
<path d="M182.34 180.71C181.529 180.723 180.719 180.632 179.931 180.438C179.61 180.36 179.325 180.176 179.121 179.916C180.537 180.543 182.257 180.146 183.234 179.916C183.835 179.775 185.325 179.503 186.328 179.325C184.96 179.665 183.625 180.129 182.34 180.71Z" fill="#D65863"/>
<path d="M182.566 182.759C182.651 182.717 182.739 182.681 182.828 182.649L182.566 182.759Z" fill="#D65863"/>
<path d="M177.256 184.316C177.256 184.316 177.778 184.771 178.824 184.316C179.696 183.935 181.824 183.062 182.566 182.748C181.635 183.172 179.106 184.593 178.437 184.839C178.213 184.849 177.99 184.807 177.785 184.716C177.58 184.625 177.399 184.489 177.256 184.316Z" fill="#D65863"/>
<path d="M179.87 185.989C180.643 185.759 182.258 184.781 183.246 184.316C183.961 184.014 184.723 183.837 185.498 183.794C185.019 183.895 184.558 184.071 184.134 184.316C183.146 184.802 180.434 186.49 180.434 186.49C179.69 186.493 178.948 186.398 178.229 186.208C178.783 186.204 179.334 186.131 179.87 185.989Z" fill="#D65863"/>
<path d="M194.267 187.102C195.699 187.99 199.932 189.15 202.457 188.67C203.16 188.562 203.819 188.26 204.361 187.798C204.903 187.337 205.306 186.734 205.524 186.057L206.256 188.351C206.256 188.351 241.376 189.354 248.52 189.036C255.581 188.717 266.592 188.555 268.029 184.332C267.637 189.255 264.972 191.784 261.167 191.784C256.119 191.784 205.477 189.736 205.477 189.736C198.02 192.349 192.558 187.959 191.283 187.003C190.238 186.208 188.226 185.983 186.93 186.057C188.837 185.367 192.835 186.213 194.267 187.102Z" fill="#D65863"/>
<path d="M249.921 175.735C249.921 175.735 256.501 174.841 257.823 174.69L256.819 170.598L248.494 172.28L249.921 175.735Z" fill="#D65863"/>
<path d="M267.506 164.274C267.627 164.587 267.653 164.929 267.582 165.257C267.51 165.585 267.344 165.884 267.104 166.119C264.046 169.103 260.033 173.169 255.904 173.796C251.399 174.481 243.884 174.752 243.482 173.796C243.079 172.84 241.574 160.694 238.841 154.553C236.107 148.413 234.341 145.272 233.656 141.723C232.972 138.175 239.118 129.849 241.846 129.18C244.574 128.511 250.85 128.088 253.448 130.408C256.045 132.729 257.948 141.598 260.953 148.287C263.372 153.67 266.419 161.468 267.506 164.274Z" fill="#407BFF"/>
<path d="M250.611 129.05C249.78 128.956 248.943 128.882 248.107 128.867C247.273 128.825 246.438 128.825 245.604 128.867C244.775 128.913 243.95 129.007 243.132 129.149C242.719 129.212 242.317 129.306 241.914 129.4C241.532 129.511 241.162 129.662 240.811 129.849C240.446 130.036 240.096 130.253 239.766 130.497C239.458 130.769 239.134 131.02 238.852 131.318C238.267 131.901 237.727 132.529 237.237 133.194C236.739 133.866 236.277 134.564 235.852 135.284C235.408 135.995 235.01 136.732 234.629 137.485C235.203 135.893 235.968 134.377 236.908 132.969C237.368 132.257 237.893 131.589 238.475 130.973C238.776 130.665 239.094 130.373 239.427 130.1C239.769 129.834 240.135 129.598 240.519 129.395C240.909 129.187 241.321 129.024 241.747 128.909C242.165 128.82 242.578 128.72 243.001 128.668C243.841 128.536 244.691 128.472 245.541 128.475C247.248 128.455 248.951 128.648 250.611 129.05Z" fill="#314EC6"/>
<path d="M264.099 166.788C264.099 164.608 259.468 144.618 255.402 133.476C257.132 137.281 258.747 143.364 260.953 148.277C263.372 153.67 266.419 161.468 267.506 164.274C267.627 164.587 267.653 164.929 267.582 165.257C267.51 165.585 267.344 165.884 267.104 166.119C265.933 167.263 264.621 168.565 263.215 169.777C263.32 169.667 264.12 168.826 264.099 166.788Z" fill="#314EC6"/>
<path d="M44.5683 144.268C44.4906 144.941 44.6258 145.621 44.955 146.212C46.1509 148.393 46.7426 150.854 46.6692 153.341C46.6221 154.966 46.2877 156.633 46.7267 158.201C47.4949 160.903 50.3484 162.575 51.2682 165.236C52.0783 167.587 51.3257 170.551 53.0137 172.38C53.201 172.627 53.4574 172.813 53.7505 172.914C54.0435 173.016 54.36 173.028 54.66 172.949C54.9393 172.81 55.1826 172.608 55.3707 172.359C57.3096 170.159 59.3844 167.478 58.7886 164.603C58.2242 161.901 55.4439 160.077 54.9161 157.37C54.4823 155.16 55.6164 152.604 54.3464 150.743C53.9963 150.221 53.4998 149.834 53.113 149.343C51.6079 147.409 52.1671 144.326 50.4268 142.591C49.8623 142.05 49.1519 141.687 48.3834 141.545C47.9518 141.454 47.5062 141.454 47.0746 141.545C46.643 141.635 46.2349 141.814 45.8762 142.071C45.5175 142.327 45.216 142.656 44.9908 143.035C44.7657 143.414 44.6218 143.836 44.5683 144.273V144.268Z" fill="#CECECE"/>
<path d="M55.6061 178.583C55.721 177.141 55.7733 175.698 55.8256 174.256C55.7628 172.814 55.6844 171.376 55.559 169.934C55.4336 168.491 55.2768 167.054 55.0364 165.622C54.8033 164.186 54.4016 162.783 53.8396 161.441C52.7944 158.797 51.9477 156.032 51.0959 153.294L49.8573 149.17C49.3347 147.822 48.8539 146.468 48.373 145.11C48.5821 146.542 48.8957 147.947 49.1988 149.364L50.4374 153.498C51.2945 156.252 52.1307 158.996 53.202 161.703C53.7493 163.007 54.1371 164.372 54.357 165.769C54.6079 167.169 54.7699 168.596 54.8796 170.018C54.9894 171.439 55.0834 172.876 55.1409 174.308L55.6061 178.583Z" fill="#E0E0E0"/>
<path d="M48.002 149.385C48.237 149.725 48.5329 150.019 48.8747 150.252C49.0431 150.357 49.2176 150.451 49.3973 150.534C49.5879 150.622 49.7641 150.739 49.92 150.879L49.9879 150.937L50.0454 150.848C50.1813 150.639 50.3485 150.446 50.4791 150.231C50.6098 150.017 50.7405 149.803 50.8554 149.583C51.0811 149.128 51.2378 148.642 51.3206 148.141H51.2788C50.9296 148.507 50.6387 148.925 50.4164 149.379C50.3067 149.604 50.2178 149.839 50.1238 150.069C50.0297 150.299 49.9774 150.555 49.8938 150.79L50.0193 150.759C49.8414 150.658 49.6794 150.531 49.5384 150.383C49.4037 150.227 49.2606 150.079 49.1099 149.939C48.7857 149.682 48.4173 149.487 48.0229 149.364L48.002 149.385Z" fill="#E0E0E0"/>
<path d="M48.3516 154.308C48.5972 154.511 48.8742 154.731 49.1198 154.919C49.3832 155.114 49.661 155.289 49.9508 155.442C50.2487 155.583 50.5622 155.698 50.8497 155.855C51.1313 156.022 51.3987 156.213 51.6493 156.424L51.7433 156.497L51.8322 156.377C52.2167 155.858 52.5659 155.313 52.8774 154.747C53.1894 154.176 53.4433 153.575 53.6352 152.954H53.5986C53.1677 153.439 52.7844 153.964 52.4541 154.522C52.1317 155.082 51.8471 155.664 51.6022 156.262L51.7851 156.215C51.483 156.082 51.1927 155.923 50.9176 155.74C50.6511 155.557 50.395 155.327 50.1441 155.128C49.8776 154.93 49.5943 154.755 49.2975 154.606C49.0008 154.449 48.6844 154.333 48.3568 154.261L48.3516 154.308Z" fill="#E0E0E0"/>
<path d="M50.1035 160.809C50.3669 161.067 50.664 161.289 50.9867 161.467C51.2994 161.653 51.64 161.787 51.9954 161.865C52.3486 161.952 52.6797 162.112 52.9675 162.335C53.2549 162.555 53.5423 162.795 53.8298 162.983L54.0493 163.129L54.2113 162.884C54.4547 162.528 54.6647 162.15 54.8384 161.755C55.0169 161.354 55.1518 160.935 55.2408 160.506L55.1886 160.48C54.8743 160.785 54.594 161.123 54.3524 161.488C54.1113 161.846 53.9048 162.226 53.7357 162.622L54.1172 162.523C53.781 162.358 53.4313 162.221 53.072 162.116C52.7253 162.002 52.4028 161.824 52.1208 161.593C51.8441 161.355 51.5274 161.167 51.1853 161.039C50.8416 160.897 50.4789 160.805 50.1087 160.767L50.1035 160.809Z" fill="#E0E0E0"/>
<path d="M57.8963 178.865C59.0251 178.677 63.2479 177.329 62.95 176.226C61.6852 171.496 60.4205 166.129 64.8 163.814C66.8905 162.701 69.5558 162.136 70.7579 160.077C71.9599 158.018 71.0819 155.254 69.9739 153.064C68.866 150.874 67.5281 148.528 68.0037 146.118C68.5002 143.594 70.8885 141.734 71.27 139.194C71.7926 135.718 68.4165 132.922 65.1763 131.563C64.0788 131.103 62.8664 130.712 61.7061 130.989C60.8871 131.224 60.1584 131.701 59.6157 132.358C57.3371 134.903 57.4311 138.739 57.9485 142.115C58.4659 145.491 59.2655 149.05 57.9956 152.217C57.0914 154.47 55.1578 156.586 55.6751 158.954C55.8842 159.905 56.4747 160.731 56.7204 161.677C57.3318 164.222 55.2153 166.516 54.2432 168.946C53.6521 170.533 53.5245 172.255 53.8752 173.911C54.226 175.568 55.0405 177.09 56.2239 178.301C56.4445 178.526 56.7158 178.694 57.015 178.792C57.3141 178.89 57.6325 178.916 57.9433 178.865H57.8963Z" fill="#E0E0E0"/>
<path d="M57.4978 178.918C57.7591 177.041 58.0205 175.176 58.3549 173.326C58.4333 172.861 58.5326 172.401 58.6058 171.936C58.6789 171.47 58.7155 171.005 58.7939 170.545C58.935 169.615 59.0918 168.695 59.2643 167.775C59.5988 165.943 60.0723 164.138 60.6806 162.377C60.972 161.516 61.3687 160.695 61.8617 159.931C62.0872 159.579 62.376 159.273 62.7135 159.027C63.1514 158.748 63.5369 158.394 63.8528 157.982C64.4472 157.122 64.7361 156.088 64.6734 155.045C64.6322 154.071 64.4904 153.104 64.25 152.16C63.8163 150.304 63.2727 148.501 62.9696 146.683C62.61 144.888 62.6474 143.037 63.0794 141.258C63.2257 140.829 63.3459 140.396 63.4818 139.962C63.6266 139.53 63.8012 139.11 64.0044 138.702C64.4427 137.877 64.9683 137.101 65.5723 136.387C64.8125 136.974 64.1357 137.662 63.5602 138.431C63.2761 138.815 63.0211 139.221 62.7972 139.643C62.5575 140.072 62.3814 140.533 62.2745 141.012C61.8061 142.911 61.7614 144.89 62.1439 146.808C62.4575 148.705 63.0114 150.524 63.4348 152.337C63.6597 153.224 63.7945 154.131 63.8372 155.045C63.8925 155.898 63.6627 156.745 63.1839 157.454C62.928 157.791 62.6149 158.081 62.2589 158.311C61.8286 158.615 61.4598 158.998 61.1718 159.44C60.6417 160.256 60.2118 161.134 59.8914 162.053C59.2687 163.858 58.7847 165.708 58.4438 167.587C58.2661 168.518 58.1058 169.451 57.963 170.389C57.9002 170.859 57.8114 171.324 57.7539 171.794C57.6964 172.265 57.686 172.74 57.6598 173.216C57.5344 175.134 57.4665 177.026 57.4978 178.918Z" fill="#CECECE"/>
<path d="M64.9762 141.99C64.3736 142.247 63.8517 142.662 63.4659 143.192C63.3048 143.471 63.1157 143.734 62.9014 143.976C62.6704 144.201 62.4242 144.411 62.1645 144.603H62.499C62.384 144.357 62.2482 144.132 62.1175 143.897C61.9923 143.666 61.8527 143.442 61.6994 143.228C61.5531 143.009 61.3858 142.8 61.2291 142.591C61.0723 142.382 60.8894 142.183 60.743 141.964H60.6855C60.6896 142.248 60.7463 142.53 60.8528 142.794C60.9486 143.049 61.0639 143.295 61.1977 143.531C61.3261 143.769 61.4729 143.996 61.6367 144.211C61.8039 144.425 61.9607 144.639 62.1593 144.838L62.3684 145.057L62.4938 144.859C62.6436 144.58 62.8185 144.316 63.0164 144.07C63.2372 143.837 63.4866 143.633 63.7585 143.463C64.0122 143.272 64.2389 143.047 64.4327 142.794C64.642 142.549 64.8308 142.287 64.9971 142.011L64.9762 141.99Z" fill="#CECECE"/>
<path d="M60.8848 149.155C61.0242 149.47 61.1996 149.768 61.4074 150.043C61.603 150.319 61.8197 150.579 62.0554 150.822C62.2958 151.052 62.578 151.25 62.8394 151.465C63.0951 151.681 63.3248 151.927 63.524 152.196L63.5919 152.28L63.6808 152.207C63.9954 151.96 64.2907 151.689 64.564 151.397C64.8148 151.109 65.0866 150.832 65.3218 150.529C65.557 150.226 65.7869 149.918 65.996 149.599C66.205 149.28 66.4036 148.946 66.6231 148.632L66.5917 148.585C66.2414 148.774 65.9208 149.013 65.6406 149.296C65.3584 149.563 65.0931 149.848 64.8462 150.148C64.6006 150.446 64.3915 150.77 64.1616 151.078C63.9316 151.386 63.7487 151.752 63.5397 152.019H63.6964C63.4363 151.807 63.2029 151.565 63.0014 151.297C62.808 151.026 62.6303 150.733 62.4265 150.472C62.2227 150.21 61.9718 149.986 61.7314 149.75C61.4866 149.517 61.2245 149.302 60.9475 149.108L60.8848 149.155Z" fill="#CECECE"/>
<path d="M68.4112 154.684C68.0559 155.102 67.69 155.484 67.3085 155.855C66.927 156.226 66.5246 156.544 66.1326 156.9C65.7362 157.261 65.2677 157.533 64.7582 157.699C64.248 157.84 63.719 157.9 63.1903 157.877L63.4255 158.044C63.3278 157.61 63.2021 157.182 63.0492 156.764C62.9137 156.341 62.7387 155.931 62.5266 155.541C62.3098 155.145 62.0486 154.775 61.7479 154.438C61.447 154.095 61.0716 153.825 60.6504 153.649V153.701C60.9624 153.99 61.2285 154.325 61.4395 154.694C61.6559 155.057 61.8531 155.43 62.0301 155.813L62.5527 156.973C62.7252 157.365 62.8767 157.773 63.0283 158.165L63.1015 158.353H63.2635C63.8129 158.249 64.3517 158.095 64.8731 157.893C65.3957 157.694 65.9184 157.517 66.4148 157.26C66.9135 157.004 67.3545 156.648 67.7109 156.215C68.0754 155.788 68.3509 155.292 68.521 154.757L68.4112 154.684Z" fill="#CECECE"/>
<path d="M58.2304 158.917C58.0661 159.334 57.9913 159.781 58.0109 160.229C58.0242 160.678 58.1071 161.122 58.2565 161.546C58.4271 161.96 58.6559 162.347 58.9359 162.696L59.7198 163.741L59.7773 163.814L59.8714 163.746C60.3118 163.461 60.769 163.203 61.2406 162.973C61.7058 162.727 62.1813 162.513 62.6621 162.309C63.143 162.105 63.6133 161.896 64.1046 161.713C64.5958 161.53 65.0975 161.353 65.6045 161.159V161.107C64.5111 161.087 63.4265 161.306 62.427 161.75C61.931 161.976 61.4539 162.242 61.0002 162.544C60.5514 162.856 60.1301 163.206 59.7407 163.589H59.887C59.5878 163.284 59.3423 162.931 59.1606 162.544C58.9959 162.16 58.858 161.766 58.7477 161.363C58.4905 160.568 58.3393 159.742 58.2983 158.907L58.2304 158.917Z" fill="#CECECE"/>
<path d="M50.2449 191.068H62.2965C63.4149 191.068 64.3869 190.102 64.5333 188.795L66.4408 173.974C66.6498 172.354 65.5889 170.89 64.204 170.89H48.3374C46.9524 170.89 45.8915 172.354 46.1006 173.974L48.0081 188.795C48.1754 190.102 49.1265 191.068 50.2449 191.068Z" fill="#504984"/>
<path d="M48.3374 170.89H56.4484C55.0634 170.89 54.0025 172.354 54.2116 173.974L56.1191 188.795C56.2864 190.102 57.2375 191.068 58.3559 191.068H50.2449C49.1265 191.068 48.1545 190.102 48.0081 188.795L46.1006 173.974C45.8915 172.354 46.9524 170.89 48.3374 170.89Z" fill="#372D5B"/>
<path d="M158.176 187.003H107.785C107.664 187.002 107.545 187.025 107.433 187.071C107.322 187.116 107.22 187.184 107.135 187.269C107.049 187.354 106.982 187.455 106.935 187.566C106.889 187.677 106.865 187.797 106.865 187.917V190.154C106.865 190.274 106.889 190.394 106.935 190.505C106.982 190.616 107.049 190.717 107.135 190.802C107.22 190.887 107.322 190.955 107.433 191C107.545 191.046 107.664 191.069 107.785 191.068H158.176V187.003Z" fill="#282142"/>
<path d="M171.152 189.814V190.724C171.151 190.817 171.113 190.906 171.047 190.971C170.98 191.037 170.89 191.074 170.797 191.074H158.103C158.009 191.074 157.916 191.057 157.829 191.021C157.742 190.986 157.663 190.933 157.597 190.867C157.53 190.801 157.477 190.723 157.441 190.636C157.405 190.55 157.387 190.457 157.387 190.363V187.724C157.386 187.623 157.407 187.523 157.448 187.431C157.488 187.339 157.548 187.256 157.624 187.189C157.699 187.122 157.787 187.071 157.883 187.041C157.98 187.011 158.081 187.001 158.181 187.013L170.834 189.464C170.921 189.473 171.001 189.514 171.06 189.578C171.119 189.643 171.152 189.727 171.152 189.814Z" fill="#504984"/>
<path d="M70.109 101.346H164.3C165.23 101.346 166.137 101.633 166.898 102.168C167.658 102.703 168.235 103.46 168.549 104.335L189.151 161.541C190.013 164.488 187.854 166.699 184.384 167.075C183.862 167.127 181.322 165.993 177.35 164.122H93.1459C92.2158 164.124 91.308 163.838 90.5466 163.304C89.7852 162.769 89.2072 162.013 88.8918 161.138L70.2815 109.462L65.3427 106.88C65.3427 106.88 64.1773 101.346 70.109 101.346Z" fill="#504984"/>
<path d="M161.347 104.293H67.1609C66.8509 104.293 66.5455 104.368 66.2704 104.511C65.9953 104.654 65.7586 104.861 65.5803 105.115C65.402 105.368 65.2873 105.661 65.2459 105.968C65.2044 106.276 65.2375 106.588 65.3422 106.88L85.9437 164.086C86.258 164.961 86.8347 165.718 87.5952 166.253C88.3557 166.788 89.2628 167.075 90.1926 167.075H184.384C184.694 167.075 184.999 167 185.274 166.857C185.549 166.714 185.786 166.507 185.964 166.254C186.143 166 186.257 165.707 186.299 165.4C186.34 165.093 186.307 164.78 186.202 164.488L165.601 107.283C165.286 106.407 164.708 105.65 163.947 105.115C163.185 104.58 162.277 104.293 161.347 104.293Z" fill="#372D5B"/>
<path d="M140.087 167.075L135.906 151.564L120.061 167.075H140.087Z" fill="#282142"/>
<path d="M117.155 124.383C117.568 126.943 119.245 127.973 121.205 127.973C121.662 127.992 122.117 127.908 122.538 127.727C122.958 127.547 123.332 127.274 123.633 126.929C123.934 126.585 124.154 126.177 124.276 125.736C124.399 125.296 124.421 124.833 124.341 124.383C124.175 123.413 123.683 122.529 122.947 121.877C122.21 121.225 121.273 120.844 120.29 120.798C119.834 120.78 119.38 120.864 118.96 121.045C118.541 121.226 118.167 121.498 117.867 121.842C117.566 122.185 117.346 122.592 117.223 123.031C117.1 123.471 117.076 123.933 117.155 124.383Z" fill="#504984"/>
<path d="M161.42 157.553L160.207 154.193H161.728L162.94 157.553H161.42Z" fill="#282142"/>
<path d="M158.216 157.553L157.004 154.193H158.525L159.737 157.553H158.216Z" fill="#282142"/>
<path d="M155.007 157.553L153.795 154.193H155.321L156.528 157.553H155.007Z" fill="#282142"/>
<path d="M151.804 157.553L150.592 154.193H152.113L153.325 157.553H151.804Z" fill="#282142"/>
<path d="M106.263 157.553L105.051 154.193H106.577L107.784 157.553H106.263Z" fill="#282142"/>
<path d="M103.06 157.553L101.848 154.193H103.368L104.581 157.553H103.06Z" fill="#282142"/>
<path d="M99.8518 157.553L98.6445 154.193H100.165L101.373 157.553H99.8518Z" fill="#282142"/>
<path d="M96.648 157.553L95.4355 154.193H96.9564L98.1688 157.553H96.648Z" fill="#282142"/>
<path d="M108.28 185.544C109.21 182.869 120.478 146.5 120.478 146.5H134.949L135.906 151.564C135.906 151.564 126.206 182.869 125.276 185.534C125.203 185.74 125.135 185.943 125.072 186.145C124.225 188.759 126.467 188.759 128.991 188.759H154.516V191.068H111.996C106.885 191.068 107.35 188.215 108.28 185.544Z" fill="#372D5B"/>
<path d="M134.95 146.5C134.95 146.5 123.682 182.869 122.747 185.544C121.811 188.22 121.351 191.068 126.468 191.068H109.472C104.361 191.068 104.826 188.215 105.751 185.544C106.676 182.874 117.933 146.5 117.933 146.5H134.95Z" fill="#504984"/>
<path d="M131.406 146.5C130.283 146.448 129.164 146.421 128.041 146.385C126.917 146.348 125.799 146.338 124.68 146.317C123.562 146.296 122.438 146.265 121.315 146.265H117.954H117.766L117.709 146.448C117.238 147.911 116.778 149.374 116.339 150.848L114.996 155.264C114.134 158.217 113.272 161.17 112.482 164.149C113.528 161.253 114.479 158.327 115.44 155.405L116.836 151.01C117.306 149.547 117.756 148.073 118.2 146.604L117.954 146.782H121.315C122.438 146.782 123.557 146.751 124.68 146.735C125.804 146.719 126.922 146.698 128.041 146.662C129.159 146.625 130.283 146.552 131.406 146.5Z" fill="#7F74D1"/>
<path d="M32.8414 200H282.307C283.491 200 284.626 199.53 285.463 198.693C286.3 197.856 286.77 196.721 286.77 195.537C286.771 194.95 286.656 194.369 286.432 193.827C286.208 193.285 285.879 192.793 285.465 192.378C285.05 191.963 284.558 191.633 284.016 191.409C283.474 191.184 282.894 191.068 282.307 191.068H32.8414C31.6563 191.068 30.5198 191.539 29.6818 192.377C28.8438 193.215 28.373 194.352 28.373 195.537C28.3744 196.721 28.8458 197.856 29.6836 198.693C30.5215 199.53 31.6572 200 32.8414 200Z" fill="#8E5058"/>
<path d="M32.8414 200H282.307C283.491 200 284.626 199.53 285.463 198.693C286.3 197.856 286.77 196.721 286.77 195.537H28.373C28.3744 196.721 28.8458 197.856 29.6836 198.693C30.5215 199.53 31.6572 200 32.8414 200Z" fill="#64364A"/>
<path d="M143.912 57.2292C146.927 45.5319 139.888 33.6054 128.191 30.5906C116.494 27.5758 104.567 34.6144 101.552 46.3117C98.5377 58.009 105.576 69.9355 117.274 72.9503C128.971 75.9651 140.897 68.9265 143.912 57.2292Z" fill="#FF6C37"/>
<path d="M112.044 60.8116H133.586C134.576 60.8116 135.379 60.0091 135.379 59.0191V45.5094C135.379 44.5194 134.576 43.7169 133.586 43.7169H112.044C111.054 43.7169 110.252 44.5194 110.252 45.5094V59.0191C110.252 60.0091 111.054 60.8116 112.044 60.8116Z" fill="#DBE9FF"/>
<path d="M112.038 60.8116H133.611C133.847 60.8116 134.08 60.7653 134.297 60.6752C134.515 60.5851 134.712 60.453 134.879 60.2866C135.045 60.1201 135.177 59.9225 135.268 59.705C135.358 59.4875 135.404 59.2544 135.404 59.019L122.861 51.1223L110.318 59.019C110.317 59.4824 110.495 59.9284 110.816 60.2628C111.137 60.5972 111.575 60.794 112.038 60.8116Z" fill="#CDDCF4"/>
<path d="M112.038 43.7169H133.611C134.086 43.7169 134.541 43.905 134.877 44.24C135.213 44.5751 135.403 45.0297 135.404 45.5042L122.861 53.4062L110.318 45.5042C110.318 45.0417 110.497 44.5971 110.818 44.2638C111.138 43.9305 111.576 43.7344 112.038 43.7169Z" fill="#407BFF"/>
<path d="M282.551 104.986C294.299 102.265 301.617 90.5355 298.896 78.7873C296.175 67.0392 284.446 59.7212 272.698 62.4421C260.949 65.163 253.632 76.8925 256.352 88.6406C259.073 100.389 270.803 107.707 282.551 104.986Z" fill="#FF6C37"/>
<path d="M283.749 79.4168H281.554C281.359 78.5632 281.022 77.7487 280.556 77.0075L282.124 75.4397C282.177 75.3907 282.219 75.3313 282.248 75.2652C282.277 75.1991 282.292 75.1277 282.292 75.0555C282.292 74.9834 282.277 74.912 282.248 74.8459C282.219 74.7797 282.177 74.7203 282.124 74.6714L280.399 72.9468C280.35 72.8937 280.291 72.8514 280.225 72.8224C280.159 72.7935 280.087 72.7785 280.015 72.7785C279.943 72.7785 279.872 72.7935 279.805 72.8224C279.739 72.8514 279.68 72.8937 279.631 72.9468L278.063 74.5146C277.322 74.0487 276.507 73.7113 275.654 73.5164V71.3214C275.654 71.1828 275.599 71.0499 275.501 70.9519C275.403 70.8539 275.27 70.7988 275.131 70.7988H272.691C272.552 70.7988 272.419 70.8539 272.321 70.9519C272.223 71.0499 272.168 71.1828 272.168 71.3214V73.5164C271.317 73.7122 270.504 74.0496 269.764 74.5146L268.196 72.9468C268.147 72.8937 268.088 72.8514 268.022 72.8224C267.956 72.7935 267.884 72.7785 267.812 72.7785C267.74 72.7785 267.669 72.7935 267.602 72.8224C267.536 72.8514 267.477 72.8937 267.428 72.9468L265.698 74.6714C265.598 74.774 265.541 74.9119 265.541 75.0555C265.541 75.1992 265.598 75.3371 265.698 75.4397L267.266 77.0075C266.8 77.7487 266.463 78.5632 266.268 79.4168H264.068C263.929 79.4168 263.796 79.4718 263.698 79.5698C263.6 79.6678 263.545 79.8008 263.545 79.9394V82.38C263.545 82.5186 263.6 82.6515 263.698 82.7495C263.796 82.8476 263.929 82.9026 264.068 82.9026H266.268C266.464 83.7542 266.801 84.5669 267.266 85.3067L265.698 86.8745C265.598 86.9771 265.541 87.115 265.541 87.2586C265.541 87.4023 265.598 87.5402 265.698 87.6427L267.428 89.3726C267.531 89.4732 267.668 89.5295 267.812 89.5295C267.956 89.5295 268.094 89.4732 268.196 89.3726L269.764 87.8048C270.504 88.2698 271.317 88.6072 272.168 88.803V91.0398C272.168 91.1784 272.223 91.3113 272.321 91.4093C272.419 91.5073 272.552 91.5624 272.691 91.5624H275.131C275.27 91.5624 275.403 91.5073 275.501 91.4093C275.599 91.3113 275.654 91.1784 275.654 91.0398V88.8448C276.507 88.6499 277.322 88.3125 278.063 87.8466L279.631 89.4144C279.734 89.515 279.872 89.5713 280.015 89.5713C280.159 89.5713 280.297 89.515 280.399 89.4144L282.124 87.6846C282.177 87.6356 282.219 87.5762 282.248 87.5101C282.277 87.444 282.292 87.3726 282.292 87.3004C282.292 87.2283 282.277 87.1569 282.248 87.0908C282.219 87.0246 282.177 86.9652 282.124 86.9163L280.556 85.3485C281.021 84.6087 281.359 83.796 281.554 82.9444H283.749C283.888 82.9444 284.021 82.8894 284.119 82.7914C284.217 82.6933 284.272 82.5604 284.272 82.4218V79.9603C284.275 79.8899 284.263 79.8197 284.238 79.7539C284.213 79.688 284.175 79.6279 284.126 79.5772C284.078 79.5264 284.019 79.486 283.954 79.4584C283.889 79.4309 283.82 79.4167 283.749 79.4168ZM273.893 84.5489C273.226 84.5499 272.574 84.3531 272.019 83.9833C271.464 83.6135 271.031 83.0874 270.775 82.4716C270.519 81.8557 270.451 81.1778 270.581 80.5236C270.71 79.8693 271.031 79.2682 271.502 78.7963C271.973 78.3243 272.574 78.0028 273.228 77.8723C273.882 77.7418 274.56 77.8082 275.176 78.0632C275.793 78.3182 276.319 78.7502 276.69 79.3047C277.061 79.8591 277.258 80.5111 277.258 81.178C277.258 82.0711 276.904 82.9277 276.273 83.5597C275.642 84.1917 274.786 84.5475 273.893 84.5489Z" fill="#DBE9FF"/>
<path d="M273.893 76.4901C272.963 76.4901 272.053 76.766 271.28 77.2828C270.506 77.7996 269.903 78.5342 269.547 79.3937C269.191 80.2531 269.098 81.1989 269.28 82.1113C269.461 83.0237 269.909 83.8618 270.567 84.5196C271.225 85.1774 272.063 85.6253 272.975 85.8068C273.888 85.9883 274.833 85.8952 275.693 85.5392C276.552 85.1832 277.287 84.5803 277.804 83.8068C278.321 83.0333 278.597 82.1239 278.597 81.1937C278.597 79.9462 278.101 78.7498 277.219 77.8677C276.337 76.9857 275.14 76.4901 273.893 76.4901ZM273.893 84.0419C273.327 84.0419 272.773 83.8739 272.302 83.5593C271.831 83.2446 271.464 82.7973 271.247 82.274C271.03 81.7506 270.974 81.1748 271.084 80.6192C271.195 80.0637 271.467 79.5534 271.868 79.1529C272.268 78.7523 272.779 78.4796 273.334 78.3691C273.89 78.2586 274.466 78.3153 274.989 78.532C275.512 78.7488 275.96 79.1159 276.274 79.5869C276.589 80.0578 276.757 80.6115 276.757 81.178C276.757 81.9375 276.455 82.666 275.918 83.2031C275.381 83.7402 274.653 84.0419 273.893 84.0419Z" fill="#407BFF"/>
<path d="M293.124 89.0329H292.006C291.902 88.5971 291.725 88.1819 291.483 87.8048L292.278 87.0104C292.304 86.9847 292.324 86.9541 292.338 86.9205C292.352 86.8869 292.359 86.8508 292.359 86.8144C292.359 86.778 292.352 86.7419 292.338 86.7083C292.324 86.6747 292.304 86.6441 292.278 86.6184L291.395 85.7352C291.369 85.7094 291.338 85.689 291.305 85.6751C291.271 85.6611 291.235 85.6539 291.199 85.6539C291.162 85.6539 291.126 85.6611 291.093 85.6751C291.059 85.689 291.028 85.7094 291.003 85.7352L290.208 86.5296C289.831 86.2877 289.416 86.111 288.98 86.007V84.8886C288.98 84.8151 288.951 84.7446 288.899 84.6927C288.847 84.6408 288.777 84.6116 288.703 84.6116H287.454C287.381 84.6116 287.31 84.6408 287.258 84.6927C287.206 84.7446 287.177 84.8151 287.177 84.8886V86.007C286.742 86.112 286.327 86.2886 285.949 86.5296L285.17 85.7352C285.144 85.7094 285.114 85.689 285.08 85.6751C285.047 85.6611 285.011 85.6539 284.974 85.6539C284.938 85.6539 284.902 85.6611 284.868 85.6751C284.834 85.689 284.804 85.7094 284.778 85.7352L283.895 86.6184C283.844 86.671 283.816 86.7413 283.816 86.8144C283.816 86.8875 283.844 86.9578 283.895 87.0104L284.689 87.8048C284.445 88.1807 284.268 88.5963 284.167 89.0329H283.08C283.006 89.0329 282.936 89.0621 282.884 89.114C282.832 89.166 282.803 89.2364 282.803 89.3099V90.5589C282.803 90.6324 282.832 90.7029 282.884 90.7548C282.936 90.8068 283.006 90.8359 283.08 90.8359H284.203C284.306 91.2722 284.483 91.6876 284.726 92.0641L283.932 92.8585C283.881 92.9111 283.852 92.9813 283.852 93.0544C283.852 93.1275 283.881 93.1978 283.932 93.2504L284.815 94.1336C284.867 94.1844 284.938 94.2128 285.011 94.2128C285.084 94.2128 285.154 94.1844 285.207 94.1336L286.001 93.3393C286.378 93.5825 286.793 93.7593 287.229 93.8619V94.9855C287.229 95.059 287.258 95.1294 287.31 95.1814C287.362 95.2333 287.433 95.2625 287.506 95.2625H288.755C288.829 95.2625 288.899 95.2333 288.951 95.1814C289.003 95.1294 289.032 95.059 289.032 94.9855V93.8619C289.469 93.7603 289.885 93.5834 290.26 93.3393L291.055 94.1336C291.107 94.1844 291.178 94.2128 291.251 94.2128C291.324 94.2128 291.394 94.1844 291.447 94.1336L292.33 93.2504C292.356 93.2247 292.376 93.1941 292.39 93.1605C292.404 93.1269 292.411 93.0908 292.411 93.0544C292.411 93.018 292.404 92.982 292.39 92.9484C292.376 92.9147 292.356 92.8842 292.33 92.8585L291.494 92.085C291.735 91.7073 291.911 91.2923 292.016 90.8568H293.135C293.208 90.8568 293.279 90.8277 293.331 90.7757C293.383 90.7238 293.412 90.6533 293.412 90.5798V89.3308C293.415 89.2918 293.41 89.2526 293.396 89.2158C293.383 89.179 293.362 89.1455 293.335 89.1173C293.308 89.0892 293.275 89.0671 293.239 89.0526C293.202 89.038 293.163 89.0313 293.124 89.0329ZM288.092 91.646C287.75 91.647 287.416 91.5468 287.132 91.3579C286.848 91.169 286.626 90.9 286.495 90.585C286.363 90.2699 286.328 89.923 286.394 89.5881C286.46 89.2532 286.624 88.9454 286.865 88.7037C287.106 88.462 287.413 88.2972 287.748 88.2303C288.083 88.1633 288.43 88.1971 288.745 88.3275C289.061 88.4579 289.33 88.6789 289.52 88.9627C289.71 89.2464 289.811 89.58 289.811 89.9214C289.812 90.1483 289.769 90.3732 289.683 90.5833C289.598 90.7935 289.471 90.9846 289.311 91.1458C289.152 91.307 288.962 91.435 288.752 91.5227C288.543 91.6103 288.319 91.6558 288.092 91.6564V91.646Z" fill="#DBE9FF"/>
<path d="M288.092 87.5382C287.617 87.5372 287.152 87.6771 286.757 87.9403C286.362 88.2035 286.053 88.5781 285.871 89.0166C285.689 89.4552 285.641 89.9379 285.733 90.4037C285.826 90.8695 286.054 91.2974 286.39 91.6332C286.726 91.969 287.154 92.1976 287.62 92.29C288.085 92.3824 288.568 92.3344 289.007 92.1522C289.445 91.97 289.82 91.6617 290.083 91.2665C290.346 90.8712 290.486 90.4067 290.485 89.9318C290.485 89.6175 290.423 89.3062 290.303 89.0158C290.183 88.7254 290.006 88.4615 289.784 88.2393C289.562 88.017 289.298 87.8407 289.008 87.7204C288.717 87.6001 288.406 87.5382 288.092 87.5382ZM288.092 91.3951C287.802 91.3951 287.519 91.3093 287.279 91.1485C287.038 90.9877 286.85 90.7592 286.74 90.4918C286.629 90.2244 286.6 89.9302 286.656 89.6463C286.713 89.3625 286.852 89.1017 287.057 88.8971C287.261 88.6924 287.522 88.5531 287.806 88.4966C288.09 88.4401 288.384 88.4691 288.652 88.5799C288.919 88.6906 289.147 88.8782 289.308 89.1188C289.469 89.3595 289.555 89.6424 289.555 89.9318C289.555 90.3199 289.401 90.6921 289.126 90.9665C288.852 91.2409 288.48 91.3951 288.092 91.3951Z" fill="#407BFF"/>
<path d="M187.26 42.0846C198.448 37.5847 203.87 24.8672 199.37 13.6791C194.87 2.49102 182.153 -2.93086 170.965 1.56899C159.777 6.06883 154.355 18.7864 158.855 29.9745C163.355 41.1625 176.072 46.5844 187.26 42.0846Z" fill="#FF6C37"/>
<path d="M168.277 33.0607H189.955C190.908 33.0607 191.68 32.2885 191.68 31.336V13.3006C191.68 12.3481 190.908 11.5759 189.955 11.5759L168.277 11.5759C167.324 11.5759 166.552 12.3481 166.552 13.3006V31.336C166.552 32.2885 167.324 33.0607 168.277 33.0607Z" fill="white"/>
<path d="M166.537 16.0704H191.675V13.3006C191.675 12.8427 191.493 12.4035 191.17 12.0792C190.847 11.755 190.408 11.5721 189.95 11.5707H168.277C168.049 11.5693 167.823 11.6131 167.612 11.6994C167.401 11.7857 167.209 11.9129 167.047 12.0737C166.886 12.2344 166.757 12.4256 166.67 12.6362C166.582 12.8467 166.537 13.0725 166.537 13.3006V16.0704Z" fill="#407BFF"/>
<path d="M185.675 12.5323C185.814 12.5323 185.947 12.4773 186.045 12.3792C186.143 12.2812 186.198 12.1483 186.198 12.0097V11.1212C186.198 10.9826 186.143 10.8497 186.045 10.7517C185.947 10.6537 185.814 10.5986 185.675 10.5986C185.536 10.5986 185.403 10.6537 185.305 10.7517C185.207 10.8497 185.152 10.9826 185.152 11.1212V12.0201C185.155 12.1569 185.211 12.2872 185.309 12.383C185.407 12.4787 185.538 12.5323 185.675 12.5323Z" fill="white"/>
<path d="M187.134 12.5323C187.273 12.5323 187.405 12.4773 187.503 12.3792C187.601 12.2812 187.657 12.1483 187.657 12.0097V11.1212C187.657 10.9826 187.601 10.8497 187.503 10.7517C187.405 10.6537 187.273 10.5986 187.134 10.5986C186.995 10.5986 186.862 10.6537 186.764 10.7517C186.666 10.8497 186.611 10.9826 186.611 11.1212V12.0201C186.614 12.1569 186.67 12.2872 186.768 12.383C186.866 12.4787 186.997 12.5323 187.134 12.5323Z" fill="white"/>
<path d="M171.095 12.5323C171.233 12.5323 171.366 12.4773 171.464 12.3792C171.562 12.2812 171.617 12.1483 171.617 12.0097V11.1212C171.617 10.9826 171.562 10.8497 171.464 10.7517C171.366 10.6537 171.233 10.5986 171.095 10.5986C170.956 10.5986 170.823 10.6537 170.725 10.7517C170.627 10.8497 170.572 10.9826 170.572 11.1212V12.0201C170.575 12.1569 170.631 12.2872 170.729 12.383C170.827 12.4787 170.958 12.5323 171.095 12.5323Z" fill="white"/>
<path d="M172.552 12.5323C172.691 12.5323 172.823 12.4773 172.921 12.3792C173.019 12.2812 173.075 12.1483 173.075 12.0097V11.1212C173.075 10.9826 173.019 10.8497 172.921 10.7517C172.823 10.6537 172.691 10.5986 172.552 10.5986C172.413 10.5986 172.28 10.6537 172.182 10.7517C172.084 10.8497 172.029 10.9826 172.029 11.1212V12.0201C172.032 12.1569 172.088 12.2872 172.186 12.383C172.284 12.4787 172.415 12.5323 172.552 12.5323Z" fill="white"/>
<path d="M182.054 18.741H180.7C180.472 18.741 180.287 18.9259 180.287 19.1539V20.5075C180.287 20.7355 180.472 20.9203 180.7 20.9203H182.054C182.282 20.9203 182.466 20.7355 182.466 20.5075V19.1539C182.466 18.9259 182.282 18.741 182.054 18.741Z" fill="#DBE9FF"/>
<path d="M176.874 18.741H175.52C175.292 18.741 175.107 18.9259 175.107 19.1539V20.5075C175.107 20.7355 175.292 20.9203 175.52 20.9203H176.874C177.102 20.9203 177.287 20.7355 177.287 20.5075V19.1539C177.287 18.9259 177.102 18.741 176.874 18.741Z" fill="#DBE9FF"/>
<path d="M171.694 18.741H170.341C170.113 18.741 169.928 18.9259 169.928 19.1539V20.5075C169.928 20.7355 170.113 20.9203 170.341 20.9203H171.694C171.922 20.9203 172.107 20.7355 172.107 20.5075V19.1539C172.107 18.9259 171.922 18.741 171.694 18.741Z" fill="#DBE9FF"/>
<path d="M187.228 23.2042H185.88C185.652 23.2042 185.467 23.389 185.467 23.617V24.9706C185.467 25.1986 185.652 25.3835 185.88 25.3835H187.228C187.456 25.3835 187.641 25.1986 187.641 24.9706V23.617C187.641 23.389 187.456 23.2042 187.228 23.2042Z" fill="#DBE9FF"/>
<path d="M182.054 23.2042H180.7C180.472 23.2042 180.287 23.389 180.287 23.617V24.9706C180.287 25.1986 180.472 25.3835 180.7 25.3835H182.054C182.282 25.3835 182.466 25.1986 182.466 24.9706V23.617C182.466 23.389 182.282 23.2042 182.054 23.2042Z" fill="#DBE9FF"/>
<path d="M176.874 23.2042H175.52C175.292 23.2042 175.107 23.389 175.107 23.617V24.9706C175.107 25.1986 175.292 25.3835 175.52 25.3835H176.874C177.102 25.3835 177.287 25.1986 177.287 24.9706V23.617C177.287 23.389 177.102 23.2042 176.874 23.2042Z" fill="#DBE9FF"/>
<path d="M171.694 23.2042H170.341C170.113 23.2042 169.928 23.389 169.928 23.617V24.9706C169.928 25.1986 170.113 25.3835 170.341 25.3835H171.694C171.922 25.3835 172.107 25.1986 172.107 24.9706V23.617C172.107 23.389 171.922 23.2042 171.694 23.2042Z" fill="#DBE9FF"/>
<path d="M187.228 27.662H185.88C185.652 27.662 185.467 27.8469 185.467 28.0749V29.4285C185.467 29.6565 185.652 29.8414 185.88 29.8414H187.228C187.456 29.8414 187.641 29.6565 187.641 29.4285V28.0749C187.641 27.8469 187.456 27.662 187.228 27.662Z" fill="#DBE9FF"/>
<path d="M182.054 27.662H180.7C180.472 27.662 180.287 27.8469 180.287 28.0749V29.4285C180.287 29.6565 180.472 29.8414 180.7 29.8414H182.054C182.282 29.8414 182.466 29.6565 182.466 29.4285V28.0749C182.466 27.8469 182.282 27.662 182.054 27.662Z" fill="#DBE9FF"/>
<path d="M176.874 27.662H175.52C175.292 27.662 175.107 27.8469 175.107 28.0749V29.4285C175.107 29.6565 175.292 29.8414 175.52 29.8414H176.874C177.102 29.8414 177.287 29.6565 177.287 29.4285V28.0749C177.287 27.8469 177.102 27.662 176.874 27.662Z" fill="#DBE9FF"/>
<path d="M257.063 48.498C265.59 39.971 265.59 26.1459 257.063 17.6188C248.536 9.09175 234.711 9.09175 226.184 17.6188C217.657 26.1459 217.657 39.971 226.184 48.498C234.711 57.0251 248.536 57.0251 257.063 48.498Z" fill="#FF6C37"/>
<path d="M252.2 43.6349C258.041 37.7937 258.041 28.3233 252.2 22.4821C246.359 16.6409 236.888 16.6409 231.047 22.4821C225.206 28.3233 225.206 37.7937 231.047 43.6349C236.888 49.476 246.359 49.476 252.2 43.6349Z" fill="white"/>
<path d="M241.621 18.1035C238.663 18.1035 235.771 18.9808 233.311 20.6246C230.851 22.2683 228.934 24.6046 227.802 27.338C226.67 30.0714 226.374 33.0791 226.952 35.9807C227.529 38.8822 228.954 41.5474 231.047 43.639C233.139 45.7306 235.805 47.1547 238.707 47.7312C241.608 48.3078 244.616 48.0108 247.349 46.878C250.082 45.7451 252.418 43.8271 254.06 41.3667C255.703 38.9063 256.58 36.014 256.579 33.0555C256.579 31.0915 256.192 29.1468 255.44 27.3324C254.688 25.518 253.586 23.8695 252.197 22.481C250.808 21.0925 249.16 19.9912 247.345 19.2401C245.53 18.489 243.585 18.1028 241.621 18.1035ZM242.876 45.8021V43.7587C242.876 43.6683 242.859 43.5788 242.825 43.4951C242.791 43.4114 242.741 43.3353 242.677 43.2712C242.613 43.2071 242.538 43.1562 242.454 43.1214C242.371 43.0867 242.281 43.0688 242.191 43.0688H241.057C240.967 43.0688 240.877 43.0867 240.794 43.1214C240.71 43.1562 240.635 43.2071 240.571 43.2712C240.507 43.3353 240.457 43.4114 240.423 43.4951C240.389 43.5788 240.372 43.6683 240.372 43.7587V45.8021C237.421 45.5126 234.662 44.2083 232.565 42.1115C230.469 40.0148 229.164 37.2556 228.875 34.3046H230.918C231.1 34.3046 231.275 34.2326 231.404 34.1044C231.533 33.9761 231.607 33.802 231.608 33.6199V32.5068C231.608 32.4162 231.59 32.3265 231.556 32.2428C231.521 32.1591 231.47 32.083 231.406 32.019C231.342 31.9549 231.266 31.9041 231.182 31.8694C231.098 31.8347 231.009 31.8169 230.918 31.8169H228.875C229.164 28.8659 230.469 26.1066 232.565 24.0099C234.662 21.9132 237.421 20.6088 240.372 20.3193V22.3628C240.372 22.4529 240.389 22.5422 240.423 22.6256C240.457 22.709 240.508 22.7847 240.571 22.8484C240.635 22.9121 240.711 22.9625 240.794 22.9967C240.877 23.0309 240.967 23.0481 241.057 23.0474H242.191C242.281 23.0481 242.37 23.0309 242.454 22.9967C242.537 22.9625 242.613 22.9121 242.677 22.8484C242.74 22.7847 242.791 22.709 242.825 22.6256C242.859 22.5422 242.876 22.4529 242.876 22.3628V20.3141C245.827 20.6036 248.586 21.908 250.683 24.0047C252.779 26.1014 254.084 28.8606 254.373 31.8117H252.33C252.239 31.8117 252.149 31.8295 252.066 31.8642C251.982 31.8989 251.906 31.9497 251.842 32.0137C251.778 32.0778 251.727 32.1538 251.692 32.2375C251.658 32.3212 251.64 32.4109 251.64 32.5015V33.6356C251.641 33.8177 251.715 33.9918 251.844 34.12C251.973 34.2483 252.148 34.3202 252.33 34.3202H254.373C254.08 37.2685 252.774 40.024 250.678 42.1176C248.582 44.2111 245.824 45.5132 242.876 45.8021Z" fill="#407BFF"/>
<path d="M234.286 35.9324V35.2961L236.255 33.2563C236.465 33.0347 236.638 32.8406 236.775 32.6739C236.913 32.5054 237.016 32.3453 237.085 32.1938C237.153 32.0423 237.187 31.8813 237.187 31.7108C237.187 31.5177 237.141 31.351 237.05 31.2108C236.96 31.0688 236.835 30.9599 236.678 30.8841C236.521 30.8065 236.344 30.7677 236.147 30.7677C235.939 30.7677 235.757 30.8103 235.602 30.8955C235.446 30.9807 235.327 31.101 235.244 31.2563C235.16 31.4116 235.119 31.5934 235.119 31.8018H234.281C234.281 31.4476 234.362 31.1379 234.525 30.8728C234.688 30.6076 234.911 30.4021 235.195 30.2563C235.479 30.1086 235.802 30.0347 236.164 30.0347C236.53 30.0347 236.852 30.1076 237.13 30.2535C237.41 30.3974 237.629 30.5944 237.786 30.8444C237.943 31.0925 238.022 31.3728 238.022 31.6853C238.022 31.9012 237.981 32.1124 237.9 32.3188C237.82 32.5252 237.681 32.7554 237.482 33.0091C237.283 33.261 237.007 33.5669 236.653 33.9268L235.496 35.137V35.1796H238.116V35.9324H234.286ZM238.945 34.7961V34.0858L241.46 30.1143H242.019V31.1597H241.664L239.866 34.0063V34.0518H243.312V34.7961H238.945ZM241.704 35.9324V34.5802L241.71 34.2563V30.1143H242.542V35.9324H241.704ZM246.529 29.8415L244.654 36.8074H243.896L245.771 29.8415H246.529ZM247.435 35.9324L249.975 30.9097V30.8671H247.038V30.1143H250.884V30.8927L248.353 35.9324H247.435Z" fill="#D1C8D9"/>
</g>
<defs>
<clipPath id="clip0_1071_10488">
<rect width="299.464" height="200" fill="white"/>
</clipPath>
</defs>
</svg>
