<svg id="katman_1" data-name="katman 1" xmlns="http://www.w3.org/2000/svg" viewBox="0 0 509.62 107.92"><path d="M1.44,3.18A98.3,98.3,0,0,1,20.82,1.42c18.55,0,29.68,6.12,29.68,21.7C50.5,32.67,46.42,39,40,42.41l15.47,25c-1.21.84-3.8,1.3-7.42,1.3-4.08,0-6.77-.46-8.72-1.3L26.48,45.75H25a70.61,70.61,0,0,1-9.55-.65V67.54c-1.3.74-3.61,1.21-7,1.21s-5.66-.46-7-1.21ZM15.35,13.94V33.32a48.54,48.54,0,0,0,8,.65c8.07,0,13-2.87,13-10.09,0-7.43-5.19-10.48-14.46-10.48a35.72,35.72,0,0,0-6.52.54Z" transform="translate(-1.44 -0.3)" style="fill:#f15e62"/><path d="M73.42,49.65c.55,6.49,5.19,9.64,14.37,9.64a36.83,36.83,0,0,0,14.46-2.78A15.78,15.78,0,0,1,98.91,67c-3.06,1.76-8.25,3.25-14.65,3.25-16.23,0-24.85-9.37-24.85-24.4,0-15.48,9.27-25.5,23.83-25.5,13.54,0,19.76,8.35,19.76,20.59a28.71,28.71,0,0,1-1.39,8.72Zm17-9.75c.74-4.82-1-9.55-7.7-9.55-5.75,0-9.27,3.71-9.64,9.55Z" transform="translate(-1.44 -0.3)" style="fill:#f15e62"/><path d="M131.75,58.36a98.1,98.1,0,0,1,2.69-12l7.05-23.92a15.18,15.18,0,0,1,5.56-.84c3.81,0,6.4.74,8.07,1.86l-14.65,44c-4.92,1.39-11.78,1.85-18.37,1.85L106.9,23.49c1.66-1.11,4.26-1.86,8.17-1.86a15.27,15.27,0,0,1,5.56.84l7.52,23.93a94.59,94.59,0,0,1,2.87,12Z" transform="translate(-1.44 -0.3)" style="fill:#f15e62"/><path d="M172.37,49.65c.56,6.49,5.2,9.64,14.38,9.64a36.83,36.83,0,0,0,14.46-2.78A15.84,15.84,0,0,1,197.87,67c-3.06,1.76-8.25,3.25-14.65,3.25-16.23,0-24.86-9.37-24.86-24.4,0-15.48,9.28-25.5,23.84-25.5,13.54,0,19.75,8.35,19.75,20.59a28.39,28.39,0,0,1-1.38,8.72Zm17-9.75c.74-4.82-1-9.55-7.7-9.55-5.75,0-9.28,3.71-9.65,9.55Z" transform="translate(-1.44 -0.3)" style="fill:#f15e62"/><path d="M225.8,67.64c-1.21.65-3.44,1.11-6.68,1.11a15.91,15.91,0,0,1-6.77-1.11V23.4c2.51-1.4,6.49-2.14,10.94-2.14l.74,7.61h.74c2.23-4.82,7-8.53,15.4-8.53,7.05,0,15.41,2.51,15.41,17.8v29.5c-1.21.65-3.44,1.11-6.68,1.11a15.91,15.91,0,0,1-6.77-1.11V40.55c0-4.82-1.67-7.88-7.14-7.88A9.87,9.87,0,0,0,225.81,38Z" transform="translate(-1.44 -0.3)" style="fill:#f15e62"/><path d="M297.58,62.81c-2,4.18-6.4,7.42-14.56,7.42-7.23,0-15.4-2.51-15.4-17.91V24c3.14-1.76,7.61-2.78,13.45-2.78V50c0,5,1.57,7.79,6.95,7.79a10.88,10.88,0,0,0,8.91-4V22.93a15.94,15.94,0,0,1,6.77-1.11c3.24,0,5.47.46,6.68,1.11V67.17c-2.41,1.4-6.22,2.14-10.48,2.14l-1.57-6.5Z" transform="translate(-1.44 -0.3)" style="fill:#f15e62"/><path d="M334.49,49.65c.56,6.49,5.2,9.64,14.38,9.64a36.83,36.83,0,0,0,14.46-2.78A15.84,15.84,0,0,1,360,67c-3.06,1.76-8.25,3.25-14.65,3.25-16.23,0-24.86-9.37-24.86-24.4,0-15.48,9.28-25.5,23.84-25.5,13.54,0,19.75,8.35,19.75,20.59a28.71,28.71,0,0,1-1.39,8.72Zm17-9.75c.74-4.82-1-9.55-7.7-9.55-5.75,0-9.28,3.71-9.65,9.55Z" transform="translate(-1.44 -0.3)" style="fill:#f15e62"/><path d="M409,12.64c-13.08,0-22.07,6.68-22.07,22.81S395.8,58,408.32,58a42.26,42.26,0,0,0,15.58-3.14,23.13,23.13,0,0,1-3.71,12.34A38.21,38.21,0,0,1,404,70.52c-19.85,0-31.53-12.79-31.53-34.13,0-23,13.63-36.09,33.66-36.09,5.29,0,10.67,1,14.1,3,2.13,3.06,3.06,8.53,2.6,12.61A30.06,30.06,0,0,0,409,12.64Z" transform="translate(-1.44 -0.3)" style="fill:#f15e62"/><path d="M456.83,63.56c-2,4.08-6.4,6.67-12.8,6.67-8.17,0-15.21-4.08-15.21-14.83,0-11.32,8.17-15.68,18.92-15.68a27.71,27.71,0,0,1,8.44,1.21v-1.3c0-5.66-2.78-7.7-8.9-7.7a30.22,30.22,0,0,0-14.84,3.89c-1.12-3.62-.66-9.37,1.48-12.43,3.34-1.85,9.09-3.06,15.95-3.06,13.36,0,19.76,4.71,19.76,18.46v16c0,2.88,1.29,3.52,3.14,3.52a7.23,7.23,0,0,0,4-1.11,18.83,18.83,0,0,1-2.41,10.85,13.75,13.75,0,0,1-7.7,2.13c-5.38,0-8.17-2.31-9.09-6.67Zm-.37-13.73a16.24,16.24,0,0,0-6.13-1.11c-5.37,0-8.06,2.22-8.06,5.75s2.69,4.91,6.4,4.91a9.8,9.8,0,0,0,7.79-3.24Z" transform="translate(-1.44 -0.3)" style="fill:#f15e62"/><path d="M497.84,33.62h12.38a15.5,15.5,0,0,0,.84-5.79,15.44,15.44,0,0,0-.84-5.78H497.84V8.23c-5.21.09-10.14,1.31-13.5,3.73V22H479a33.78,33.78,0,0,0-1.86,11.57h7.17l-.19,32.78c0,3.61-.63,8.23-2.69,9.67-9.83,7-29.82,3.59-48.16,1.69C407,75,384.2,71.4,380.42,86c-2,7.71.6,12.63,3.12,15.4,5.08,5.58,14,6.85,21.14,6.85a65.4,65.4,0,0,0,10-.79,6.43,6.43,0,0,0-2.05-12.69c-7.3,1.37-17.62,4.4-21.58.06-1.34-1.47-1.1-5.08,0-6.19,2.94-4.4,21.88-2.72,41-.15,21,2.2,42.86,5.29,55.24-.91,4.84-2.42,10.62-8.06,10.62-21.17Z" transform="translate(-1.44 -0.3)" style="fill:#f15e62"/></svg>