<svg width="51" height="50" viewBox="0 0 51 50" fill="none" xmlns="http://www.w3.org/2000/svg">
<g clip-path="url(#clip0_1348_35387)">
<path d="M50.0326 35.0717C49.8747 35.9643 49.7599 36.8687 49.5511 37.7496C47.985 44.3622 42.1502 49.3723 35.3783 49.94C27.1331 50.6317 19.8405 45.2275 18.114 37.1506C16.2464 28.4068 22.1752 19.6252 31.0065 18.0592C39.6941 16.5192 47.8871 22.0395 49.7051 30.6685C49.8486 31.3497 49.9256 32.044 50.0326 32.7317V35.0717ZM35.4162 30.9399H38.3212C38.1907 28.9393 37.2028 27.6042 35.3679 26.816V23.6761H32.4485V26.8225C32.2645 26.9099 32.1014 26.9817 31.9422 27.0626C29.905 28.0897 28.9654 30.4701 29.8345 32.5738C30.5784 34.3735 31.9865 35.2792 33.9297 35.3666C34.3003 35.3715 34.6553 35.5162 34.9237 35.7718C35.1921 36.0273 35.354 36.3749 35.377 36.7447C35.3917 37.1058 35.2749 37.4599 35.0484 37.7414C34.8218 38.0229 34.5009 38.2127 34.1451 38.2755C33.4325 38.406 32.7369 37.948 32.5046 37.2015C32.4681 37.0827 32.4381 36.9627 32.4002 36.827H29.5291C29.5145 37.6168 29.723 38.3947 30.1307 39.0713C30.5384 39.748 31.1287 40.2959 31.8338 40.652C32.3559 40.913 32.4864 41.1936 32.4537 41.7182C32.412 42.5221 32.442 43.33 32.442 44.1286H35.3744C35.3744 43.2282 35.3914 42.3525 35.3653 41.4794C35.3548 41.1101 35.4514 40.9196 35.809 40.7499C36.408 40.4696 36.9349 40.0561 37.3495 39.5409C37.7641 39.0257 38.0554 38.4226 38.2011 37.7775C38.3468 37.1325 38.3431 36.4626 38.1902 35.8193C38.0373 35.1759 37.7393 34.576 37.3189 34.0655C36.4354 32.9784 35.2661 32.4642 33.8671 32.4237C33.4974 32.4144 33.145 32.2648 32.8816 32.0052C32.6181 31.7457 32.4633 31.3956 32.4485 31.026C32.4391 30.673 32.5555 30.3282 32.7769 30.053C32.9982 29.7779 33.3102 29.5904 33.657 29.5239C34.3656 29.3843 35.0782 29.8345 35.3118 30.568C35.3483 30.692 35.3783 30.8172 35.411 30.9399H35.4162Z" fill="#90B2FF"/>
<path d="M17.9834 2.45763e-05C19.0157 0.130529 20.0519 0.223186 21.0764 0.391537C23.9266 0.875706 26.645 1.73703 29.0189 3.44533C29.7196 3.94797 30.3591 4.53094 30.9242 5.18233C33.0201 7.62015 32.9431 10.5787 30.7663 12.946C29.2499 14.5943 27.3432 15.6475 25.2486 16.3287C18.7965 18.4389 12.3809 18.3345 6.04886 15.8289C4.4006 15.1763 2.91024 14.2406 1.70047 12.9212C-0.567691 10.4495 -0.559864 7.46485 1.71352 4.9931C3.2626 3.30699 5.22146 2.26688 7.33432 1.49168C9.52599 0.701842 11.8188 0.227711 14.144 0.0835411C14.2859 0.0648277 14.4263 0.0364912 14.5642 -0.00128174L17.9834 2.45763e-05Z" fill="#90B2FF"/>
<path d="M0.00390625 15.4375C3.48184 18.5135 7.58358 19.8394 11.979 20.4149C13.3668 20.5922 14.7639 20.6867 16.1629 20.6981C17.541 20.7151 18.9218 20.5885 20.3195 20.5232C20.2636 20.6058 20.203 20.6851 20.1381 20.7608C18.6247 22.3336 17.4017 24.1619 16.5257 26.161C16.3861 26.4821 16.2203 26.5851 15.8732 26.576C12.0755 26.4781 8.39532 25.8596 4.97089 24.1199C3.46227 23.3526 2.10894 22.3764 1.10275 20.9878C0.374753 20.0162 -0.0111628 18.8309 0.00521256 17.6169C0.0130428 16.9135 0.00390625 16.2205 0.00390625 15.4375Z" fill="#90B2FF"/>
<path d="M17.8784 44.1482C17.0954 44.1482 16.4428 44.1612 15.8007 44.1482C12.191 44.062 8.68306 43.4813 5.39436 41.9113C3.71738 41.1113 2.20484 40.0843 1.09686 38.5534C0.370193 37.5814 -0.0139274 36.396 0.00454249 35.1825C0.0162879 34.4882 0.00454249 33.794 0.00454249 33.0853C0.834548 33.6843 1.6006 34.3055 2.43061 34.8249C4.9911 36.4249 7.82042 37.3163 10.7829 37.7913C12.1597 38.0132 13.5613 38.0823 14.9499 38.2428C15.1221 38.2624 15.3962 38.3799 15.4288 38.5039C15.954 40.4988 16.78 42.402 17.8784 44.1482Z" fill="#90B2FF"/>
<path d="M15.2396 29.4822C15.0777 31.4215 14.9198 33.3073 14.7554 35.2727C14.3848 35.2466 13.8732 35.2218 13.3629 35.1722C10.3953 34.8773 7.53069 34.2052 4.8658 32.8231C3.48115 32.1054 2.23092 31.2088 1.25997 29.969C0.419523 28.8963 -0.0333235 27.6904 0.0019126 26.3149C0.0188781 25.6493 0.0019126 24.9838 0.0019126 24.2412C4.43383 28.0715 9.74012 29.1769 15.2396 29.4822Z" fill="#90B2FF"/>
</g>
<defs>
<clipPath id="clip0_1348_35387">
<rect width="50.0326" height="50" fill="white"/>
</clipPath>
</defs>
</svg>
