<svg width="211" height="157" viewBox="0 0 211 157" fill="none" xmlns="http://www.w3.org/2000/svg">
<path d="M105.172 157C163.257 157 210.344 154.251 210.344 150.86C210.344 147.468 163.257 144.719 105.172 144.719C47.0871 144.719 0 147.468 0 150.86C0 154.251 47.0871 157 105.172 157Z" fill="#F5F5F5"/>
<path d="M69.6318 145.457L69.5233 146.705C69.5118 146.858 69.5284 147.013 69.5721 147.16C69.5921 147.229 69.6213 147.295 69.6589 147.356C69.6988 147.416 69.7423 147.474 69.7891 147.529C69.8369 147.585 69.8916 147.634 69.9518 147.676C70.1356 147.806 70.3556 147.877 70.5811 147.876H115.277C115.384 147.877 115.49 147.86 115.592 147.828C115.663 147.806 115.732 147.779 115.798 147.746C116.034 147.631 116.225 147.44 116.341 147.204C116.41 147.072 116.452 146.929 116.465 146.781L116.568 145.582C116.585 145.439 116.569 145.294 116.52 145.159C116.499 145.096 116.472 145.036 116.438 144.98C116.354 144.838 116.234 144.72 116.091 144.638C116.03 144.605 115.966 144.576 115.901 144.551C115.801 144.519 115.697 144.502 115.592 144.502H104.461C104.321 144.504 104.181 144.491 104.044 144.465L103.886 144.421C103.827 144.404 103.769 144.382 103.713 144.356C103.658 144.339 103.607 144.313 103.561 144.28C103.483 144.239 103.409 144.192 103.339 144.139C103.254 144.072 103.176 143.998 103.105 143.917C103.067 143.868 103.029 143.824 102.991 143.77L102.915 143.662L102.888 143.618C102.856 143.569 102.829 143.516 102.807 143.461L102.742 143.315C102.744 143.304 102.744 143.293 102.742 143.282C102.745 143.27 102.745 143.256 102.742 143.244C102.726 143.202 102.715 143.158 102.709 143.114C102.704 143.052 102.704 142.991 102.709 142.929C102.709 142.875 102.709 142.816 102.709 142.756C102.709 142.696 102.709 142.642 102.709 142.582V142.512C102.706 142.454 102.706 142.396 102.709 142.338C102.709 142.273 102.736 142.219 102.747 142.159L107.119 125.387L107.96 122.165L108.616 119.643H83.2306L81.8691 122.165L80.1333 125.387L70.261 143.689C70.2285 143.754 70.1959 143.819 70.158 143.884L70.0603 144.106C70.0332 144.182 70.0007 144.253 69.9735 144.334L69.9247 144.486C69.7915 144.798 69.6933 145.124 69.6318 145.457Z" fill="#263238"/>
<path opacity="0.2" d="M116.552 145.593L116.449 146.802C116.421 147.095 116.286 147.368 116.07 147.568C115.854 147.768 115.572 147.882 115.278 147.887H70.592C70.4419 147.888 70.2934 147.857 70.1558 147.797C70.0182 147.737 69.8945 147.649 69.7925 147.539C69.6905 147.429 69.6125 147.299 69.5634 147.157C69.5143 147.015 69.4951 146.865 69.5071 146.715L69.6156 145.468C69.644 145.134 69.7095 144.805 69.8109 144.486C69.9028 144.207 70.019 143.937 70.1581 143.678L83.133 119.632H108.519L102.65 142.148C102.611 142.277 102.587 142.41 102.579 142.544C102.542 142.989 102.669 143.432 102.935 143.789C103.202 144.147 103.591 144.395 104.028 144.486C104.164 144.518 104.305 144.532 104.445 144.529H115.56C115.697 144.526 115.834 144.551 115.961 144.604C116.087 144.657 116.202 144.737 116.295 144.837C116.389 144.938 116.461 145.057 116.505 145.187C116.549 145.318 116.565 145.456 116.552 145.593Z" fill="white"/>
<path d="M68.7315 143.667L81.701 119.616H83.1384L70.1635 143.667C69.8627 144.221 69.6781 144.83 69.621 145.457L69.5126 146.705C69.4961 146.855 69.5122 147.007 69.5597 147.15C69.6073 147.294 69.6852 147.425 69.7881 147.536C69.8911 147.647 70.0166 147.734 70.1563 147.792C70.2959 147.85 70.4464 147.877 70.5974 147.871H69.16C69.0089 147.877 68.8585 147.85 68.7188 147.792C68.5792 147.734 68.4536 147.647 68.3507 147.536C68.2477 147.425 68.1698 147.294 68.1223 147.15C68.0747 147.007 68.0586 146.855 68.0751 146.705L68.1836 145.457C68.24 144.829 68.4266 144.219 68.7315 143.667Z" fill="#263238"/>
<path opacity="0.3" d="M83.1492 119.616H108.53L107.032 125.366H80.0465L83.1492 119.616Z" fill="black"/>
<path d="M40.0802 39.927V118.184C40.0795 118.703 40.1812 119.218 40.3797 119.699C40.5781 120.179 40.8692 120.616 41.2365 120.983C41.6037 121.351 42.0399 121.643 42.52 121.842C43.0001 122.041 43.5148 122.143 44.0345 122.143H152.342C152.862 122.143 153.376 122.041 153.856 121.842C154.336 121.643 154.773 121.351 155.14 120.983C155.507 120.616 155.798 120.179 155.997 119.699C156.195 119.218 156.297 118.703 156.296 118.184V39.927C156.297 39.4068 156.195 38.8916 155.996 38.4109C155.798 37.9301 155.506 37.4933 155.138 37.1255C154.77 36.7576 154.333 36.466 153.853 36.2673C153.372 36.0685 152.857 35.9666 152.336 35.9673H44.0454C43.1743 35.968 42.3278 36.2559 41.637 36.7864C41.5399 36.8582 41.4475 36.9361 41.3603 37.0196C41.0935 37.2617 40.8633 37.5412 40.6769 37.8495C40.5459 38.0526 40.4369 38.269 40.3514 38.495C40.1751 38.952 40.0832 39.4372 40.0802 39.927Z" fill="#263238"/>
<path d="M156.296 109.722V118.184C156.296 119.234 155.879 120.241 155.136 120.984C154.394 121.726 153.387 122.143 152.336 122.143H44.0453C42.9951 122.143 41.988 121.726 41.2454 120.984C40.5028 120.241 40.0856 119.234 40.0856 118.184V109.722H156.296Z" fill="#407BFF"/>
<path d="M156.296 109.722V118.184C156.296 119.234 155.879 120.241 155.136 120.984C154.394 121.726 153.387 122.143 152.336 122.143H44.0453C42.9951 122.143 41.988 121.726 41.2454 120.984C40.5028 120.241 40.0856 119.234 40.0856 118.184V109.722H156.296Z" fill="#515B60"/>
<path d="M44.1159 107.33H152.266C152.841 107.33 153.393 107.101 153.8 106.694C154.207 106.287 154.436 105.735 154.436 105.16V40.5345C154.436 39.959 154.207 39.4071 153.8 39.0002C153.393 38.5933 152.841 38.3647 152.266 38.3647H44.1159C43.5404 38.3647 42.9886 38.5933 42.5817 39.0002C42.1748 39.4071 41.9462 39.959 41.9462 40.5345V105.181C41.9519 105.753 42.183 106.299 42.5893 106.702C42.9956 107.104 43.5442 107.33 44.1159 107.33Z" fill="#FF6C37"/>
<path d="M41.6479 35.9673H44.0454C42.9952 35.9673 41.988 36.3845 41.2454 37.1271C40.5028 37.8697 40.0857 38.8768 40.0857 39.927V118.184C40.0857 119.234 40.5028 120.241 41.2454 120.984C41.988 121.726 42.9952 122.143 44.0454 122.143H41.6479C40.5977 122.143 39.5905 121.726 38.8479 120.984C38.1053 120.241 37.6881 119.234 37.6881 118.184V39.927C37.6881 38.8768 38.1053 37.8697 38.8479 37.1271C39.5905 36.3845 40.5977 35.9673 41.6479 35.9673Z" fill="#263238"/>
<g opacity="0.2">
<path d="M41.6479 35.9673H44.0454C42.9952 35.9673 41.988 36.3845 41.2454 37.1271C40.5028 37.8697 40.0857 38.8768 40.0857 39.927V118.184C40.0857 119.234 40.5028 120.241 41.2454 120.984C41.988 121.726 42.9952 122.143 44.0454 122.143H41.6479C40.5977 122.143 39.5905 121.726 38.8479 120.984C38.1053 120.241 37.6881 119.234 37.6881 118.184V39.927C37.6881 38.8768 38.1053 37.8697 38.8479 37.1271C39.5905 36.3845 40.5977 35.9673 41.6479 35.9673Z" fill="white"/>
</g>
<path opacity="0.5" d="M155.076 79.5461C152.288 79.0037 147.872 80.81 147.048 83.5221C147.14 82.694 146.993 81.8568 146.623 81.1104C146.252 80.3639 145.675 79.7399 144.959 79.3128C143.522 78.4829 141.64 77.8971 140.316 78.8952C140.944 76.2295 140.816 73.4417 139.948 70.8443C139.08 68.247 137.506 65.9427 135.402 64.1898C131.16 60.7563 124.971 60.3928 120.073 62.7849C120.78 61.4248 121.182 59.9262 121.249 58.3944C121.316 56.8626 121.047 55.3346 120.461 53.9178C119.875 52.5009 118.986 51.2295 117.856 50.1929C116.726 49.1562 115.383 48.3794 113.921 47.9169C107.108 45.5441 99.8226 44.8537 92.6852 45.9045C88.5573 46.512 84.348 47.803 81.3483 50.6996C78.3487 53.5962 77.5513 58.836 79.5692 62.4866C77.2408 61.7345 74.7508 61.6347 72.3697 62.1979C69.9886 62.7612 67.8073 63.966 66.0626 65.6815C64.3805 67.4385 63.2156 69.6254 62.6959 72.0016C62.1763 74.3779 62.322 76.8514 63.1172 79.1501C62.4773 78.7702 61.7525 78.5563 61.0088 78.5279C60.2652 78.4995 59.5262 78.6574 58.8591 78.9874C58.2021 79.3207 57.6407 79.8157 57.2279 80.4259C56.8151 81.0361 56.5644 81.7414 56.4995 82.4752C55.6322 81.3305 54.5026 80.4108 53.2057 79.7936C51.9089 79.1764 50.4828 78.8798 49.0474 78.9287C47.612 78.9776 46.2093 79.3706 44.9575 80.0746C43.7057 80.7787 42.6413 81.7731 41.8539 82.9743V107.329H154.436L155.076 79.5461Z" fill="white"/>
<path d="M129.988 68.8547H71.9914C69.0406 68.8547 66.6484 71.2469 66.6484 74.1977C66.6484 77.1485 69.0406 79.5406 71.9914 79.5406H129.988C132.939 79.5406 135.331 77.1485 135.331 74.1977C135.331 71.2469 132.939 68.8547 129.988 68.8547Z" fill="white"/>
<path d="M71.6606 76.2429C71.0362 76.2429 70.4259 76.0577 69.9067 75.7108C69.3875 75.3639 68.9829 74.8709 68.744 74.294C68.505 73.7172 68.4425 73.0824 68.5643 72.47C68.6861 71.8576 68.9868 71.2951 69.4283 70.8536C69.8698 70.4121 70.4323 70.1114 71.0447 69.9896C71.6571 69.8678 72.2919 69.9303 72.8687 70.1693C73.4456 70.4082 73.9386 70.8128 74.2855 71.332C74.6324 71.8512 74.8176 72.4615 74.8176 73.0859C74.8161 73.9228 74.4831 74.7249 73.8913 75.3166C73.2996 75.9084 72.4974 76.2414 71.6606 76.2429ZM71.6606 71.5563C71.3581 71.5563 71.0623 71.646 70.8108 71.814C70.5592 71.9821 70.3632 72.221 70.2474 72.5005C70.1316 72.7801 70.1013 73.0876 70.1603 73.3843C70.2194 73.6811 70.3651 73.9536 70.579 74.1675C70.7929 74.3815 71.0655 74.5272 71.3622 74.5862C71.6589 74.6452 71.9665 74.6149 72.246 74.4991C72.5255 74.3833 72.7644 74.1873 72.9325 73.9358C73.1006 73.6842 73.1903 73.3885 73.1903 73.0859C73.1888 72.6807 73.0272 72.2924 72.7407 72.0059C72.4541 71.7193 72.0659 71.5577 71.6606 71.5563Z" fill="#263238"/>
<path d="M73.8456 74.2076L72.6941 75.3574L76.4312 79.0997L77.5826 77.9498L73.8456 74.2076Z" fill="#263238"/>
<g opacity="0.1">
<path d="M117.805 38.3594H121.96L130.59 107.33H126.43L117.805 38.3594Z" fill="white"/>
<path d="M134.794 107.33L126.169 38.3594H141.797L150.422 107.33H134.794Z" fill="white"/>
</g>
<path opacity="0.2" d="M77.3398 145.604L77.2422 146.748C77.2259 146.891 77.2405 147.037 77.2848 147.174C77.3292 147.311 77.4023 147.437 77.4993 147.544C77.5964 147.651 77.7151 147.736 77.8475 147.793C77.9799 147.85 78.1231 147.879 78.2673 147.876H115.277C115.572 147.871 115.854 147.757 116.07 147.557C116.286 147.357 116.421 147.085 116.449 146.791L116.552 145.593C116.569 145.455 116.557 145.315 116.515 145.182C116.473 145.05 116.403 144.928 116.31 144.825C116.217 144.722 116.102 144.641 115.975 144.586C115.847 144.531 115.709 144.504 115.57 144.508H104.456C104.317 144.508 104.179 144.492 104.044 144.459H78.5494C78.243 144.47 77.951 144.592 77.7282 144.803C77.5055 145.013 77.3674 145.298 77.3398 145.604Z" fill="white"/>
<path opacity="0.2" d="M69.8163 144.475H104.044C103.606 144.386 103.217 144.139 102.951 143.781C102.684 143.422 102.56 142.978 102.601 142.533H70.9011L69.8163 144.475Z" fill="black"/>
<path d="M87.3206 62.4433L88.0691 60.7781C88.9959 61.4189 90.0939 61.7666 91.2206 61.7762C92.5279 61.7762 93.0595 61.3368 93.0595 60.751C93.0595 58.9664 87.5104 60.2085 87.5104 56.6502C87.5104 55.0229 88.8177 53.6776 91.5298 53.6776C92.6909 53.6536 93.8367 53.9461 94.8441 54.5238L94.1606 56.2C93.3582 55.7248 92.4459 55.4669 91.5136 55.4514C90.2063 55.4514 89.7018 55.9396 89.7018 56.5363C89.7018 58.2937 95.2509 57.0787 95.2509 60.5828C95.2509 62.1776 93.9274 63.5445 91.1989 63.5445C89.8244 63.5788 88.4719 63.1948 87.3206 62.4433Z" fill="#263238"/>
<path d="M104.158 61.6134V63.3817H96.7698V53.8403H103.99V55.6141H98.972V57.6862H103.404V59.4057H98.972V61.6134H104.158Z" fill="#263238"/>
<path d="M105.291 58.6139C105.291 55.7769 107.499 53.6777 110.51 53.6777C113.52 53.6777 115.733 55.7661 115.733 58.6139C115.733 61.4616 113.509 63.55 110.51 63.55C107.51 63.55 105.291 61.4508 105.291 58.6139ZM113.498 58.6139C113.481 58.0272 113.292 57.4585 112.954 56.9788C112.616 56.4991 112.144 56.1295 111.597 55.9162C111.05 55.7029 110.453 55.6554 109.879 55.7794C109.305 55.9035 108.781 56.1937 108.371 56.6139C107.961 57.034 107.684 57.5656 107.575 58.1421C107.465 58.7187 107.528 59.3148 107.754 59.8561C107.981 60.3974 108.363 60.8599 108.851 61.1859C109.339 61.5119 109.912 61.6871 110.499 61.6895C110.903 61.7021 111.305 61.6307 111.679 61.4796C112.054 61.3285 112.393 61.1011 112.675 60.8118C112.958 60.5226 113.176 60.1778 113.318 59.7994C113.46 59.421 113.521 59.0173 113.498 58.6139Z" fill="#263238"/>
<path opacity="0.8" d="M98.1421 86.5544H75.2515C74.0981 86.5544 73.1631 87.4894 73.1631 88.6428V93.4813C73.1631 94.6347 74.0981 95.5697 75.2515 95.5697H98.1421C99.2954 95.5697 100.23 94.6347 100.23 93.4813V88.6428C100.23 87.4894 99.2954 86.5544 98.1421 86.5544Z" fill="white"/>
<path opacity="0.8" d="M131.339 86.5544H108.448C107.295 86.5544 106.36 87.4894 106.36 88.6428V93.4813C106.36 94.6347 107.295 95.5697 108.448 95.5697H131.339C132.492 95.5697 133.427 94.6347 133.427 93.4813V88.6428C133.427 87.4894 132.492 86.5544 131.339 86.5544Z" fill="white"/>
<path d="M86.0458 41.435L99.4927 17.568C99.54 17.4845 99.6086 17.415 99.6915 17.3667C99.7744 17.3184 99.8687 17.293 99.9646 17.293C100.061 17.293 100.155 17.3184 100.238 17.3667C100.321 17.415 100.389 17.4845 100.437 17.568L113.883 41.435C113.928 41.5173 113.951 41.6099 113.95 41.7037C113.949 41.7975 113.923 41.8893 113.875 41.9702C113.828 42.0511 113.76 42.1183 113.679 42.1652C113.597 42.2121 113.505 42.2371 113.412 42.2378H86.5232C86.4289 42.238 86.3361 42.2137 86.2541 42.1672C86.1721 42.1207 86.1036 42.0536 86.0554 41.9725C86.0073 41.8915 85.981 41.7993 85.9793 41.705C85.9776 41.6108 86.0006 41.5177 86.0458 41.435Z" fill="#FF6C37"/>
<path opacity="0.3" d="M86.0458 41.435L99.4927 17.568C99.54 17.4845 99.6086 17.415 99.6915 17.3667C99.7744 17.3184 99.8687 17.293 99.9646 17.293C100.061 17.293 100.155 17.3184 100.238 17.3667C100.321 17.415 100.389 17.4845 100.437 17.568L113.883 41.435C113.928 41.5173 113.951 41.6099 113.95 41.7037C113.949 41.7975 113.923 41.8893 113.875 41.9702C113.828 42.0511 113.76 42.1183 113.679 42.1652C113.597 42.2121 113.505 42.2371 113.412 42.2378H86.5232C86.4289 42.238 86.3361 42.2137 86.2541 42.1672C86.1721 42.1207 86.1036 42.0536 86.0554 41.9725C86.0073 41.8915 85.981 41.7993 85.9793 41.705C85.9776 41.6108 86.0006 41.5177 86.0458 41.435Z" fill="black"/>
<path d="M93.5749 45.8124L92.9185 43.1328H90.5644L89.9135 45.8124C91.0856 46.2979 92.4027 46.2979 93.5749 45.8124Z" fill="#263238"/>
<path opacity="0.2" d="M90.5644 43.1328L90.4125 43.7566C91.2801 44.0116 92.2028 44.0116 93.0704 43.7566L92.9185 43.1328H90.5644Z" fill="white"/>
<path opacity="0.4" d="M90.2498 44.4292C90.2064 44.6028 90.163 44.7709 90.125 44.9337C91.1843 45.2668 92.3203 45.2668 93.3796 44.9337L93.2603 44.4292C92.2668 44.6301 91.2432 44.6301 90.2498 44.4292Z" fill="white"/>
<path d="M94.2258 42.9429C92.6347 43.5999 90.8482 43.5999 89.2571 42.9429V23.0357C89.2555 21.9213 89.4741 20.8176 89.9005 19.7881C90.3268 18.7585 90.9525 17.8234 91.7414 17.0364C92.5304 17.8234 93.156 18.7585 93.5824 19.7881C94.0087 20.8176 94.2274 21.9213 94.2258 23.0357V42.9429Z" fill="#FF6C37"/>
<path d="M89.2571 23.0357V41.7984C90.8657 42.3598 92.6171 42.3598 94.2258 41.7984V23.0357C94.2274 21.9213 94.0087 20.8176 93.5824 19.7881C93.156 18.7585 92.5304 17.8234 91.7414 17.0364C90.9525 17.8234 90.3268 18.7585 89.9005 19.7881C89.4741 20.8176 89.2555 21.9213 89.2571 23.0357Z" fill="#FF6C37"/>
<path opacity="0.4" d="M89.2571 23.0357V41.7984C90.8657 42.3598 92.6171 42.3598 94.2258 41.7984V23.0357C94.2274 21.9213 94.0087 20.8176 93.5824 19.7881C93.156 18.7585 92.5304 17.8234 91.7414 17.0364C90.9525 17.8234 90.3268 18.7585 89.9005 19.7881C89.4741 20.8176 89.2555 21.9213 89.2571 23.0357Z" fill="white"/>
<path d="M89.2571 23.0357V37.1389C90.8808 37.6029 92.602 37.6029 94.2258 37.1389V23.0357C94.2274 21.9213 94.0087 20.8176 93.5824 19.7881C93.156 18.7585 92.5304 17.8234 91.7414 17.0364C90.9525 17.8234 90.3268 18.7585 89.9005 19.7881C89.4741 20.8176 89.2555 21.9213 89.2571 23.0357Z" fill="#FF6C37"/>
<path opacity="0.6" d="M89.2571 23.0357V37.1389C90.8808 37.6029 92.602 37.6029 94.2258 37.1389V23.0357C94.2274 21.9213 94.0087 20.8176 93.5824 19.7881C93.156 18.7585 92.5304 17.8234 91.7414 17.0364C90.9525 17.8234 90.3268 18.7585 89.9005 19.7881C89.4741 20.8176 89.2555 21.9213 89.2571 23.0357Z" fill="white"/>
<path d="M89.2571 23.0357V30.4127C90.8805 30.8793 92.6024 30.8793 94.2258 30.4127V23.0357C94.2274 21.9213 94.0087 20.8176 93.5824 19.7881C93.156 18.7585 92.5304 17.8234 91.7414 17.0364C90.9525 17.8234 90.3268 18.7585 89.9005 19.7881C89.4741 20.8176 89.2555 21.9213 89.2571 23.0357Z" fill="#FF6C37"/>
<path opacity="0.8" d="M89.2571 23.0357V30.4127C90.8805 30.8793 92.6024 30.8793 94.2258 30.4127V23.0357C94.2274 21.9213 94.0087 20.8176 93.5824 19.7881C93.156 18.7585 92.5304 17.8234 91.7414 17.0364C90.9525 17.8234 90.3268 18.7585 89.9005 19.7881C89.4741 20.8176 89.2555 21.9213 89.2571 23.0357Z" fill="white"/>
<path d="M89.2571 23.0357V23.8981C90.8808 24.3621 92.602 24.3621 94.2258 23.8981V23.0357C94.2274 21.9213 94.0087 20.8176 93.5824 19.7881C93.156 18.7585 92.5304 17.8234 91.7414 17.0364C90.9525 17.8234 90.3268 18.7585 89.9005 19.7881C89.4741 20.8176 89.2555 21.9213 89.2571 23.0357Z" fill="#FF6C37"/>
<path opacity="0.4" d="M89.2571 23.0357V23.8981C90.8808 24.3621 92.602 24.3621 94.2258 23.8981V23.0357C94.2274 21.9213 94.0087 20.8176 93.5824 19.7881C93.156 18.7585 92.5304 17.8234 91.7414 17.0364C90.9525 17.8234 90.3268 18.7585 89.9005 19.7881C89.4741 20.8176 89.2555 21.9213 89.2571 23.0357Z" fill="white"/>
<path d="M109.56 45.8124L108.909 43.1328H106.555L105.899 45.8124C107.071 46.2979 108.388 46.2979 109.56 45.8124Z" fill="#263238"/>
<path opacity="0.2" d="M106.555 43.1328L106.403 43.7566C107.271 44.0116 108.194 44.0116 109.061 43.7566L108.909 43.1328H106.555Z" fill="white"/>
<path opacity="0.4" d="M106.235 44.4292C106.197 44.6028 106.154 44.7709 106.116 44.9337C107.175 45.2668 108.311 45.2668 109.37 44.9337L109.246 44.4292C108.252 44.6301 107.229 44.6301 106.235 44.4292Z" fill="white"/>
<path d="M110.217 42.9429C108.626 43.5999 106.839 43.5999 105.248 42.9429V23.0357C105.246 21.9213 105.465 20.8176 105.891 19.7881C106.318 18.7585 106.943 17.8234 107.732 17.0364C108.521 17.8234 109.147 18.7585 109.573 19.7881C110 20.8176 110.218 21.9213 110.217 23.0357V42.9429Z" fill="#FF5D22"/>
<path d="M105.248 23.0357V41.7984C106.857 42.3598 108.608 42.3598 110.217 41.7984V23.0357C110.218 21.9213 110 20.8176 109.573 19.7881C109.147 18.7585 108.521 17.8234 107.732 17.0364C106.943 17.8234 106.318 18.7585 105.891 19.7881C105.465 20.8176 105.246 21.9213 105.248 23.0357Z" fill="#FF6C37"/>
<path opacity="0.4" d="M105.248 23.0357V41.7984C106.857 42.3598 108.608 42.3598 110.217 41.7984V23.0357C110.218 21.9213 110 20.8176 109.573 19.7881C109.147 18.7585 108.521 17.8234 107.732 17.0364C106.943 17.8234 106.318 18.7585 105.891 19.7881C105.465 20.8176 105.246 21.9213 105.248 23.0357Z" fill="white"/>
<path d="M105.248 23.0357V37.1389C106.872 37.6029 108.593 37.6029 110.217 37.1389V23.0357C110.218 21.9213 110 20.8176 109.573 19.7881C109.147 18.7585 108.521 17.8234 107.732 17.0364C106.943 17.8234 106.318 18.7585 105.891 19.7881C105.465 20.8176 105.246 21.9213 105.248 23.0357Z" fill="#FF6C37"/>
<path opacity="0.6" d="M105.248 23.0357V37.1389C106.872 37.6029 108.593 37.6029 110.217 37.1389V23.0357C110.218 21.9213 110 20.8176 109.573 19.7881C109.147 18.7585 108.521 17.8234 107.732 17.0364C106.943 17.8234 106.318 18.7585 105.891 19.7881C105.465 20.8176 105.246 21.9213 105.248 23.0357Z" fill="white"/>
<path d="M105.248 23.0357V30.4127C106.871 30.8793 108.593 30.8793 110.217 30.4127V23.0357C110.218 21.9213 110 20.8176 109.573 19.7881C109.147 18.7585 108.521 17.8234 107.732 17.0364C106.943 17.8234 106.318 18.7585 105.891 19.7881C105.465 20.8176 105.246 21.9213 105.248 23.0357Z" fill="#FF6C37"/>
<path opacity="0.8" d="M105.248 23.0357V30.4127C106.871 30.8793 108.593 30.8793 110.217 30.4127V23.0357C110.218 21.9213 110 20.8176 109.573 19.7881C109.147 18.7585 108.521 17.8234 107.732 17.0364C106.943 17.8234 106.318 18.7585 105.891 19.7881C105.465 20.8176 105.246 21.9213 105.248 23.0357Z" fill="white"/>
<path d="M105.248 23.0357V23.8981C106.872 24.3621 108.593 24.3621 110.217 23.8981V23.0357C110.218 21.9213 110 20.8176 109.573 19.7881C109.147 18.7585 108.521 17.8234 107.732 17.0364C106.943 17.8234 106.318 18.7585 105.891 19.7881C105.465 20.8176 105.246 21.9213 105.248 23.0357Z" fill="#FF6C37"/>
<path opacity="0.4" d="M105.248 23.0357V23.8981C106.872 24.3621 108.593 24.3621 110.217 23.8981V23.0357C110.218 21.9213 110 20.8176 109.573 19.7881C109.147 18.7585 108.521 17.8234 107.732 17.0364C106.943 17.8234 106.318 18.7585 105.891 19.7881C105.465 20.8176 105.246 21.9213 105.248 23.0357Z" fill="white"/>
<path d="M102.693 47.3475L101.608 43.0081H97.8112L96.7534 47.3475C97.6938 47.7421 98.7034 47.9453 99.7232 47.9453C100.743 47.9453 101.753 47.7421 102.693 47.3475Z" fill="#263238"/>
<path opacity="0.2" d="M97.8384 43.0242C97.8384 43.0242 97.6811 43.6751 97.5889 44.0331C98.9916 44.4427 100.482 44.4427 101.885 44.0331L101.635 43.0188L97.8384 43.0242Z" fill="white"/>
<path opacity="0.4" d="M97.323 45.1235L97.1277 45.9372C98.8273 46.4635 100.646 46.4635 102.346 45.9372L102.151 45.1235C100.557 45.4379 98.9168 45.4379 97.323 45.1235Z" fill="white"/>
<path d="M103.751 42.7041C102.479 43.2347 101.115 43.5079 99.7368 43.5079C98.3588 43.5079 96.9945 43.2347 95.7228 42.7041V10.5813C95.721 8.78258 96.0748 7.00122 96.7636 5.3396C97.4525 3.67797 98.4629 2.16884 99.7368 0.898926C101.011 2.16884 102.021 3.67797 102.71 5.3396C103.399 7.00122 103.753 8.78258 103.751 10.5813V42.7041Z" fill="#FF6C37"/>
<path d="M95.7228 10.5813V40.8762C98.323 41.7768 101.151 41.7768 103.751 40.8762V10.5813C103.753 8.78258 103.399 7.00122 102.71 5.3396C102.021 3.67797 101.011 2.16884 99.7368 0.898926C98.4629 2.16884 97.4525 3.67797 96.7636 5.3396C96.0748 7.00122 95.721 8.78258 95.7228 10.5813Z" fill="#FF6C37"/>
<path opacity="0.4" d="M95.7228 10.5813V40.8762C98.323 41.7768 101.151 41.7768 103.751 40.8762V10.5813C103.753 8.78258 103.399 7.00122 102.71 5.3396C102.021 3.67797 101.011 2.16884 99.7368 0.898926C98.4629 2.16884 97.4525 3.67797 96.7636 5.3396C96.0748 7.00122 95.721 8.78258 95.7228 10.5813Z" fill="white"/>
<path d="M95.7228 10.5813V33.3309C98.3465 34.0787 101.127 34.0787 103.751 33.3309V10.5813C103.753 8.78258 103.399 7.00122 102.71 5.3396C102.021 3.67797 101.011 2.16884 99.7368 0.898926C98.4629 2.16884 97.4525 3.67797 96.7636 5.3396C96.0748 7.00122 95.721 8.78258 95.7228 10.5813Z" fill="#FF6C37"/>
<path opacity="0.6" d="M95.7228 10.5813V33.3309C98.3465 34.0787 101.127 34.0787 103.751 33.3309V10.5813C103.753 8.78258 103.399 7.00122 102.71 5.3396C102.021 3.67797 101.011 2.16884 99.7368 0.898926C98.4629 2.16884 97.4525 3.67797 96.7636 5.3396C96.0748 7.00122 95.721 8.78258 95.7228 10.5813Z" fill="white"/>
<path d="M95.7228 10.5813V22.5148C98.3465 23.2626 101.127 23.2626 103.751 22.5148V10.5813C103.753 8.78258 103.399 7.00122 102.71 5.3396C102.021 3.67797 101.011 2.16884 99.7368 0.898926C98.4629 2.16884 97.4525 3.67797 96.7636 5.3396C96.0748 7.00122 95.721 8.78258 95.7228 10.5813Z" fill="#FF6C37"/>
<path opacity="0.8" d="M95.7228 10.5813V22.5148C98.3465 23.2626 101.127 23.2626 103.751 22.5148V10.5813C103.753 8.78258 103.399 7.00122 102.71 5.3396C102.021 3.67797 101.011 2.16884 99.7368 0.898926C98.4629 2.16884 97.4525 3.67797 96.7636 5.3396C96.0748 7.00122 95.721 8.78258 95.7228 10.5813Z" fill="white"/>
<path d="M95.7228 10.5813V11.9754C98.3465 12.7231 101.127 12.7231 103.751 11.9754V10.5813C103.753 8.78258 103.399 7.00122 102.71 5.3396C102.021 3.67797 101.011 2.16884 99.7368 0.898926C98.4629 2.16884 97.4525 3.67797 96.7636 5.3396C96.0748 7.00122 95.721 8.78258 95.7228 10.5813Z" fill="#FF6C37"/>
<path opacity="0.1" d="M95.7228 10.5813V11.9754C98.3465 12.7231 101.127 12.7231 103.751 11.9754V10.5813C103.753 8.78258 103.399 7.00122 102.71 5.3396C102.021 3.67797 101.011 2.16884 99.7368 0.898926C98.4629 2.16884 97.4525 3.67797 96.7636 5.3396C96.0748 7.00122 95.721 8.78258 95.7228 10.5813Z" fill="white"/>
<path d="M102.075 17.0092C102.076 17.4718 101.94 17.9244 101.683 18.3095C101.427 18.6947 101.062 18.9952 100.635 19.173C100.208 19.3508 99.7379 19.3978 99.284 19.3083C98.8302 19.2187 98.4131 18.9964 98.0856 18.6697C97.7581 18.3429 97.5349 17.9264 97.4442 17.4727C97.3536 17.0191 97.3996 16.5487 97.5764 16.1212C97.7532 15.6937 98.0528 15.3283 98.4374 15.0711C98.822 14.814 99.2742 14.6768 99.7368 14.6768C100.356 14.6768 100.95 14.9223 101.388 15.3596C101.826 15.7969 102.073 16.3901 102.075 17.0092Z" fill="#FF6C37"/>
<path d="M99.7368 19.3472C99.146 19.3486 98.5767 19.1251 98.1446 18.7222C97.7124 18.3192 97.4497 17.767 97.4098 17.1775C97.4098 17.2372 97.4098 17.2968 97.4098 17.3511C97.4098 17.9711 97.6561 18.5658 98.0945 19.0042C98.533 19.4426 99.1276 19.689 99.7477 19.689C100.368 19.689 100.962 19.4426 101.401 19.0042C101.839 18.5658 102.086 17.9711 102.086 17.3511C102.086 17.2968 102.086 17.2372 102.086 17.1775C102.044 17.7703 101.778 18.3249 101.341 18.7282C100.905 19.1314 100.331 19.3528 99.7368 19.3472Z" fill="#FF6C37"/>
<path opacity="0.3" d="M99.7368 19.3472C99.146 19.3486 98.5767 19.1251 98.1446 18.7222C97.7124 18.3192 97.4497 17.767 97.4098 17.1775C97.4098 17.2372 97.4098 17.2968 97.4098 17.3511C97.4098 17.9711 97.6561 18.5658 98.0945 19.0042C98.533 19.4426 99.1276 19.689 99.7477 19.689C100.368 19.689 100.962 19.4426 101.401 19.0042C101.839 18.5658 102.086 17.9711 102.086 17.3511C102.086 17.2968 102.086 17.2372 102.086 17.1775C102.044 17.7703 101.778 18.3249 101.341 18.7282C100.905 19.1314 100.331 19.3528 99.7368 19.3472Z" fill="black"/>
<path d="M99.7368 18.6636C100.651 18.6636 101.391 17.9229 101.391 17.0092C101.391 16.0954 100.651 15.3547 99.7368 15.3547C98.8231 15.3547 98.0824 16.0954 98.0824 17.0092C98.0824 17.9229 98.8231 18.6636 99.7368 18.6636Z" fill="white"/>
<path d="M99.6501 18.6529L100.328 15.4742C100.155 15.4061 99.9715 15.3693 99.7857 15.3657L99.1077 18.5389C99.2801 18.6093 99.4639 18.6479 99.6501 18.6529Z" fill="#407BFF"/>
<path d="M100.268 18.5715L100.854 15.7997C100.779 15.7307 100.697 15.6689 100.61 15.6152L99.9646 18.642C100.068 18.6269 100.169 18.6033 100.268 18.5715Z" fill="#407BFF"/>
<g opacity="0.7">
<path d="M99.6501 18.6529L100.328 15.4742C100.155 15.4061 99.9715 15.3693 99.7857 15.3657L99.1077 18.5389C99.2801 18.6093 99.4639 18.6479 99.6501 18.6529Z" fill="white"/>
<path d="M100.268 18.5715L100.854 15.7997C100.779 15.7307 100.697 15.6689 100.61 15.6152L99.9647 18.642C100.068 18.6269 100.169 18.6033 100.268 18.5715Z" fill="white"/>
</g>
<path d="M159.627 79.7307L159.003 79.8663C158.724 79.9226 158.469 80.0648 158.275 80.2729C158.08 80.481 157.956 80.7447 157.918 81.0271L157.864 81.4665C157.836 81.6857 157.861 81.9086 157.939 82.1156C158.016 82.3227 158.143 82.5076 158.309 82.6544C159.334 83.5494 161.753 85.2092 164.682 84.1407L167.02 82.3778L166.635 79.2208L161.753 78.5156C161.458 78.5265 161.174 78.6331 160.945 78.8194L159.627 79.7307Z" fill="#FAB27B"/>
<path d="M167.037 82.3777L173.529 82.0522L172.526 78.521L166.651 79.2207L167.037 82.3777Z" fill="#FAB27B"/>
<path d="M170.904 78.5482C170.638 79.0463 170.546 79.6192 170.644 80.1755C170.762 81.0764 171.124 81.928 171.691 82.6381C170.597 82.6544 169.521 82.9196 168.544 83.4138L168.49 83.4409C165.105 81.1301 167.058 78.3909 167.058 78.3909L167.281 78.4234C168.481 78.5896 169.695 78.6314 170.904 78.5482Z" fill="#407BFF"/>
<path d="M184.199 81.461C178.167 82.8496 170.665 82.714 170.665 82.714C170.418 82.2972 170.306 81.8139 170.345 81.3308C170.4 80.3219 170.535 79.058 170.888 78.5482C171.24 78.0383 173.849 77.7671 173.849 77.7671C173.849 77.7671 178.889 75.4292 179.843 74.6644C180.798 73.8995 180.76 70.3249 180.581 67.9762C179.621 55.3538 181.839 54.4154 183.836 53.835C188.067 52.6579 189.537 80.2297 184.199 81.461Z" fill="#407BFF"/>
<path d="M142.871 84.1677H159.73C160.272 84.1677 160.527 83.7229 160.272 83.1751L156.063 73.6662C155.932 73.3891 155.73 73.1515 155.477 72.9773C155.225 72.803 154.931 72.6983 154.626 72.6736H137.761C137.219 72.6736 136.964 73.1184 137.219 73.6662L141.45 83.1751C141.58 83.4502 141.779 83.6867 142.028 83.8608C142.278 84.035 142.568 84.1408 142.871 84.1677Z" fill="#407BFF"/>
<path opacity="0.2" d="M142.871 84.1677H159.73C160.272 84.1677 160.527 83.7229 160.272 83.1751L156.063 73.6662C155.932 73.3891 155.73 73.1515 155.477 72.9773C155.225 72.803 154.931 72.6983 154.626 72.6736H137.761C137.219 72.6736 136.964 73.1184 137.219 73.6662L141.45 83.1751C141.58 83.4502 141.779 83.6867 142.028 83.8608C142.278 84.035 142.568 84.1408 142.871 84.1677Z" fill="black"/>
<path d="M137.029 72.6736H137.761C137.219 72.6736 136.964 73.1184 137.219 73.6662L141.45 83.1751C141.58 83.4517 141.781 83.6891 142.033 83.8634C142.284 84.0377 142.577 84.1426 142.882 84.1677H142.155C141.849 84.143 141.556 84.0383 141.303 83.864C141.051 83.6898 140.849 83.4521 140.718 83.1751L136.492 73.6662C136.237 73.1184 136.481 72.6736 137.029 72.6736Z" fill="#407BFF"/>
<path opacity="0.4" d="M137.029 72.6736H137.761C137.219 72.6736 136.964 73.1184 137.219 73.6662L141.45 83.1751C141.58 83.4517 141.781 83.6891 142.033 83.8634C142.284 84.0377 142.577 84.1426 142.882 84.1677H142.155C141.849 84.143 141.556 84.0383 141.303 83.864C141.051 83.6898 140.849 83.4521 140.718 83.1751L136.492 73.6662C136.237 73.1184 136.481 72.6736 137.029 72.6736Z" fill="black"/>
<path d="M143.186 83.0775H158.444L154.306 73.7639H139.047L143.186 83.0775Z" fill="#263238"/>
<path opacity="0.8" d="M143.186 83.0775H158.444L154.306 73.7639H139.047L143.186 83.0775Z" fill="white"/>
<path d="M193.393 83.4246C193.393 83.4246 193.811 88.9899 193.871 90.9427C194.277 103.988 183.629 104.981 175.797 103.543L147.428 95.613C146.305 99.3829 133.189 120.142 133.189 120.142L126.294 116.182C126.294 116.182 133.444 99.0466 138.06 87.1186C140.691 80.311 162.133 85.0193 170.031 86.4242C172.428 87.0697 171.967 83.3215 171.967 83.3215L193.393 83.4246Z" fill="#263238"/>
<path d="M131.431 119.751L128.795 124.139L123.886 121.698L126.441 116.703L131.431 119.751Z" fill="#FAB27B"/>
<path d="M121.271 120.814C120.626 120.516 120.008 120.093 119.921 119.73C119.905 119.624 119.921 119.516 119.967 119.42C120.012 119.324 120.085 119.243 120.176 119.187C120.254 119.134 120.343 119.097 120.436 119.078C120.529 119.059 120.625 119.06 120.718 119.079C121.7 119.236 123.045 121.107 123.099 121.189C123.117 121.211 123.126 121.239 123.126 121.267C123.126 121.296 123.117 121.323 123.099 121.346C123.082 121.368 123.06 121.384 123.034 121.393C123.008 121.403 122.98 121.405 122.953 121.4C122.376 121.255 121.814 121.059 121.271 120.814ZM120.908 119.42C120.829 119.382 120.745 119.357 120.659 119.345C120.604 119.33 120.547 119.327 120.492 119.338C120.436 119.348 120.384 119.371 120.338 119.404C120.176 119.518 120.17 119.605 120.187 119.665C120.273 120.115 121.586 120.722 122.611 121.048C122.154 120.396 121.575 119.838 120.908 119.404V119.42Z" fill="#407BFF"/>
<path d="M122.915 121.357C122.899 121.363 122.882 121.363 122.866 121.357C122.373 120.814 121.635 119.095 122.015 118.558C122.091 118.422 122.275 118.297 122.633 118.422C122.763 118.468 122.883 118.54 122.984 118.633C123.086 118.726 123.168 118.839 123.224 118.965C123.637 119.816 123.132 121.286 123.11 121.351C123.102 121.375 123.088 121.395 123.069 121.41C123.049 121.426 123.026 121.435 123.002 121.438C122.982 121.432 122.964 121.422 122.949 121.408C122.934 121.393 122.922 121.376 122.915 121.357ZM122.606 118.645L122.541 118.607C122.308 118.52 122.253 118.607 122.232 118.634C122.036 118.97 122.454 120.229 122.926 120.907C123.134 120.287 123.147 119.619 122.964 118.992C122.891 118.836 122.764 118.712 122.606 118.645Z" fill="#407BFF"/>
<path d="M123.799 120.896L129.484 123.494C129.585 123.54 129.668 123.618 129.72 123.716C129.772 123.815 129.79 123.927 129.771 124.036L128.687 129.135C128.665 129.243 128.621 129.346 128.56 129.438C128.498 129.529 128.418 129.607 128.326 129.668C128.234 129.728 128.13 129.77 128.022 129.79C127.913 129.811 127.802 129.809 127.694 129.786C127.636 129.776 127.579 129.757 127.526 129.732C125.492 128.761 123.729 127.812 121.163 126.651C118.153 125.273 118.749 125.984 115.196 124.411C113.027 123.461 113.77 120.858 114.724 121.156C119.107 122.534 120.111 121.476 122.389 120.728C122.864 120.605 123.367 120.665 123.799 120.896Z" fill="#263238"/>
<path opacity="0.2" d="M130.091 121.98L131.431 119.751L126.441 116.703L125.204 119.116L130.091 121.98Z" fill="black"/>
<path d="M134.284 119.73L125.736 114.397C125.347 114.614 125.034 114.946 124.84 115.347C124.646 115.747 124.58 116.198 124.651 116.638L132.874 121.899C132.874 121.899 133.975 121.829 134.284 119.73Z" fill="#407BFF"/>
<path d="M145.979 141.584L144.943 146.45L139.66 145.755L140.43 140.353L145.979 141.584Z" fill="#FAB27B"/>
<path d="M136.975 145.766C136.286 145.696 135.586 145.5 135.386 145.18C135.342 145.094 135.325 144.996 135.336 144.899C135.348 144.803 135.388 144.712 135.451 144.638C135.559 144.495 135.719 144.4 135.896 144.372C136.845 144.209 138.673 145.5 138.754 145.56C138.776 145.576 138.792 145.598 138.801 145.623C138.809 145.648 138.81 145.675 138.803 145.701C138.795 145.727 138.779 145.75 138.758 145.768C138.737 145.785 138.711 145.796 138.684 145.799C138.114 145.837 137.543 145.826 136.975 145.766ZM136.199 144.6C136.115 144.586 136.029 144.586 135.944 144.6C135.889 144.604 135.836 144.621 135.788 144.648C135.741 144.675 135.699 144.712 135.668 144.757C135.554 144.915 135.581 144.996 135.613 145.045C135.836 145.43 137.241 145.587 138.277 145.549C137.651 145.101 136.946 144.775 136.199 144.589V144.6Z" fill="#407BFF"/>
<path d="M138.667 145.766C138.65 145.772 138.631 145.772 138.613 145.766C137.978 145.403 136.763 144.074 136.942 143.461C136.969 143.309 137.1 143.141 137.485 143.141C137.616 143.139 137.746 143.164 137.868 143.214C137.989 143.265 138.099 143.339 138.19 143.434C138.841 144.085 138.841 145.604 138.841 145.663C138.841 145.687 138.835 145.71 138.822 145.731C138.81 145.751 138.792 145.767 138.77 145.777C138.754 145.785 138.735 145.788 138.717 145.787C138.699 145.785 138.682 145.778 138.667 145.766ZM137.528 143.39H137.458C137.219 143.39 137.192 143.483 137.181 143.515C137.111 143.89 137.892 144.915 138.537 145.387C138.534 144.753 138.335 144.135 137.968 143.618C137.851 143.498 137.695 143.423 137.528 143.407V143.39Z" fill="#407BFF"/>
<path d="M139.329 145.039L145.377 145.636C145.488 145.646 145.593 145.695 145.673 145.773C145.753 145.851 145.803 145.954 145.817 146.065L146.43 151.093C146.456 151.307 146.396 151.523 146.264 151.693C146.132 151.864 145.938 151.976 145.724 152.004C145.667 152.01 145.609 152.01 145.551 152.004C143.381 151.749 141.445 151.462 138.732 151.18C135.527 150.865 136.302 151.326 132.527 151.011C130.254 150.816 130.091 148.196 131.068 148.164C135.527 148.044 136.118 146.759 137.968 145.349C138.369 145.084 138.853 144.974 139.329 145.039Z" fill="#263238"/>
<path opacity="0.2" d="M140.023 143.195L145.545 143.624L145.979 141.584L140.43 140.353L140.023 143.195Z" fill="black"/>
<path d="M147.547 139.658L147.39 140.271L139.291 139.631L139.378 139.018L147.547 139.658Z" fill="#263238"/>
<path d="M147.878 142.197L145.882 142.018L140.262 141.514L138.45 141.351C138.193 141.005 138.047 140.588 138.032 140.157C138.018 139.725 138.135 139.3 138.369 138.937L139.378 139.018L147.547 139.658L148.133 139.707C148.811 141.655 147.878 142.197 147.878 142.197Z" fill="#407BFF"/>
<path d="M180.76 108.382C173.432 109.027 156.53 109.299 154.24 108.962L147.547 139.659L139.378 139.018C139.378 139.018 140.24 112.477 143.842 101.504C146.739 92.684 193.073 94.512 193.073 94.512L193.236 96.9963C193.556 105.556 189.151 107.639 180.76 108.382Z" fill="#263238"/>
<path opacity="0.1" d="M180.76 108.382C173.432 109.027 156.53 109.299 154.24 108.962L147.547 139.659L139.378 139.018C139.378 139.018 140.24 112.477 143.842 101.504C146.739 92.684 193.073 94.512 193.073 94.512L193.236 96.9963C193.556 105.556 189.151 107.639 180.76 108.382Z" fill="black"/>
<path d="M143.712 104.71C143.709 104.661 143.709 104.612 143.712 104.563V104.71Z" fill="#263238"/>
<path d="M144.26 100.744L144.178 101.346C144.194 101.144 144.221 100.943 144.26 100.744Z" fill="#263238"/>
<path d="M170.199 52.7881L172.45 56.0752L177.511 51.7466L174.348 47.8628L170.199 52.7881Z" fill="#FAB27B"/>
<path opacity="0.2" d="M171.327 54.3448C172.304 52.9074 171.87 50.678 171.87 50.678L170.98 51.8117L170.21 52.788L171.327 54.3448Z" fill="black"/>
<path d="M161.542 45.5464C161.65 45.8665 161.911 46.0889 162.122 45.9912C162.334 45.8936 162.426 45.5736 162.312 45.2644C162.198 44.9552 161.948 44.722 161.732 44.825C161.515 44.9281 161.439 45.2264 161.542 45.5464Z" fill="#263238"/>
<path d="M162.713 45.6443L161.997 48.7145C162.359 48.79 162.734 48.7802 163.092 48.6861C163.45 48.592 163.781 48.416 164.059 48.172L162.713 45.6443Z" fill="#ED893E"/>
<path d="M161.222 43.3064C161.248 43.2931 161.276 43.2861 161.306 43.2861C161.335 43.2861 161.364 43.2931 161.39 43.3064C161.595 43.3926 161.817 43.4286 162.039 43.4117C162.261 43.3947 162.475 43.3251 162.665 43.2088C162.683 43.1944 162.704 43.1839 162.726 43.1779C162.749 43.172 162.772 43.1708 162.795 43.1744C162.818 43.1779 162.84 43.1862 162.859 43.1987C162.879 43.2111 162.896 43.2275 162.909 43.2468C162.935 43.286 162.945 43.3337 162.937 43.3801C162.928 43.4265 162.903 43.4681 162.865 43.4963C162.628 43.6546 162.354 43.751 162.07 43.7766C161.786 43.8022 161.5 43.7562 161.238 43.6427C161.216 43.6343 161.195 43.6216 161.178 43.6053C161.161 43.589 161.147 43.5694 161.138 43.5477C161.128 43.526 161.123 43.5026 161.122 43.4789C161.122 43.4551 161.126 43.4315 161.135 43.4095C161.153 43.3675 161.183 43.3317 161.222 43.3064Z" fill="#263238"/>
<path d="M173.567 39.9922C175.195 44.1852 176.003 45.9264 174.885 49.0237C172.689 52.6851 167.628 54.9091 164.742 51.3182C162.149 48.0636 159.898 41.7876 163.185 38.1913C164.283 36.9592 165.823 36.2109 167.47 36.1093C169.117 36.0077 170.737 36.5611 171.978 37.6489C172.688 38.2911 173.233 39.0949 173.567 39.9922Z" fill="#FAB27B"/>
<path d="M177.538 41.2396C177.309 42.647 177.17 44.0673 177.12 45.4923C177.081 46.8074 176.651 48.0811 175.885 49.1506C175.119 50.2202 174.051 51.0371 172.819 51.497C172.819 51.497 166.906 51.4265 164.395 43.9897C163.7 44.0554 163 43.949 162.356 43.68C161.712 43.4111 161.144 42.9878 160.702 42.4475C160.261 41.9072 159.959 41.2664 159.823 40.5819C159.688 39.8973 159.723 39.1899 159.925 38.522C160.408 36.9381 162.409 35.9509 164.064 35.8912C164.606 35.1868 165.313 34.6265 166.123 34.2595C166.932 33.8925 167.82 33.7301 168.707 33.7866C170.496 33.9316 172.225 34.5046 173.746 35.4573C175.12 36.1445 176.282 37.1904 177.109 38.4841C177.551 39.3304 177.702 40.299 177.538 41.2396Z" fill="#263238"/>
<path d="M165.626 44.874C165.439 45.2933 165.336 45.7455 165.325 46.2046C165.314 46.6637 165.394 47.1204 165.561 47.5482C166.017 48.6819 167.232 48.4921 167.931 47.5482C168.566 46.6858 169.081 45.0693 168.224 44.234C167.367 43.3986 166.098 43.8434 165.626 44.874Z" fill="#FAB27B"/>
<path d="M177.554 49.3003C175.927 49.3708 173.524 50.4719 170.313 52.6851C170.145 52.8307 170.017 53.0167 169.941 53.2255C169.865 53.4343 169.844 53.659 169.879 53.8784C169.917 54.3124 170.351 54.7192 170.763 54.5836C170.975 55.126 171.116 55.7227 171.305 56.2434C172.309 55.7319 173.35 55.2968 174.419 54.9416C176.038 54.2961 177.695 53.7526 179.382 53.3143C178.932 52.6254 178.33 51.9528 178.151 51.1446C178.341 51.0603 178.495 50.9121 178.587 50.7259C178.68 50.5396 178.704 50.3269 178.655 50.1248C178.563 49.901 178.412 49.7063 178.218 49.5611C178.024 49.416 177.795 49.3259 177.554 49.3003Z" fill="#407BFF"/>
<path d="M177.554 49.3003C175.927 49.3708 173.524 50.4719 170.313 52.6851C170.145 52.8307 170.017 53.0167 169.941 53.2255C169.865 53.4343 169.844 53.659 169.879 53.8784C169.917 54.3124 170.351 54.7192 170.763 54.5836C170.975 55.126 171.116 55.7227 171.305 56.2434C172.309 55.7319 173.35 55.2968 174.419 54.9416C176.038 54.2961 177.695 53.7526 179.382 53.3143C178.932 52.6254 178.33 51.9528 178.151 51.1446C178.341 51.0603 178.495 50.9121 178.587 50.7259C178.68 50.5396 178.704 50.3269 178.655 50.1248C178.563 49.901 178.412 49.7063 178.218 49.5611C178.024 49.416 177.795 49.3259 177.554 49.3003Z" fill="#407BFF"/>
<path d="M172.792 90.8506C169.349 82.612 166.42 74.1683 164.021 65.5678C161.504 56.1729 168.691 56.0102 177.364 53.6777C184.242 51.828 187.182 53.4824 189.146 56.9703C191.11 60.4581 194.277 89.9772 194.277 89.9772L172.792 90.8506Z" fill="#407BFF"/>
<path d="M172.792 90.8506C169.349 82.612 166.42 74.1683 164.021 65.5678C161.504 56.1729 168.691 56.0102 177.364 53.6777C184.242 51.828 187.182 53.4824 189.146 56.9703C191.11 60.4581 194.277 89.9772 194.277 89.9772L172.792 90.8506Z" fill="#407BFF"/>
<path opacity="0.3" d="M172.792 90.8506C169.349 82.612 166.42 74.1683 164.021 65.5678C161.504 56.1729 168.691 56.0102 177.364 53.6777C184.242 51.828 187.182 53.4824 189.146 56.9703C191.11 60.4581 194.277 89.9772 194.277 89.9772L172.792 90.8506Z" fill="black"/>
<path d="M141.417 77.3113H140.81C140.539 77.3219 140.278 77.4162 140.064 77.5814C139.849 77.7466 139.691 77.9745 139.611 78.2335L139.486 78.6349C139.422 78.8363 139.408 79.0505 139.446 79.2586C139.484 79.4667 139.572 79.6623 139.703 79.8282C140.522 80.8426 142.519 82.8062 145.453 82.2854L147.954 81.0162L148.116 77.9785L143.658 76.5085C143.377 76.4705 143.092 76.5238 142.844 76.6604L141.417 77.3113Z" fill="#FAB27B"/>
<path d="M147.965 81.0379L154.127 81.8135L153.769 78.3203L148.127 78.0002L147.965 81.0379Z" fill="#FAB27B"/>
<path d="M152.266 78.0763C151.921 78.504 151.73 79.035 151.724 79.5842C151.686 80.4527 151.885 81.315 152.299 82.0794C151.266 81.9115 150.208 81.982 149.207 82.2855H149.152C146.353 79.5463 148.648 77.2952 148.648 77.2952L148.854 77.3603C149.963 77.7165 151.107 77.9565 152.266 78.0763Z" fill="#407BFF"/>
<path d="M164.265 83.0285C158.358 83.3323 151.322 81.9436 151.322 81.9436C151.158 81.5102 151.131 81.0366 151.246 80.5876C151.469 79.6437 151.789 78.4775 152.239 78.0598C152.689 77.6422 155.157 77.8212 155.157 77.8212C155.157 77.8212 160.289 76.4542 161.314 75.8955C162.339 75.3368 162.898 71.9955 163.115 69.7389C164.313 57.697 166.559 57.1762 168.539 56.9755C172.689 56.5633 169.494 82.7627 164.265 83.0285Z" fill="#407BFF"/>
<path d="M183.727 151.624L179.632 117.397C179.431 115.724 178.625 114.182 177.364 113.063C176.104 111.945 174.477 111.327 172.792 111.327H159.28C157.642 111.321 156.056 111.901 154.808 112.963C153.561 114.024 152.734 115.497 152.478 117.115L146.966 151.191L145.882 151.017L151.398 116.952C151.695 115.08 152.651 113.376 154.094 112.147C155.538 110.918 157.373 110.247 159.269 110.253H172.802C174.753 110.255 176.635 110.97 178.094 112.264C179.553 113.558 180.487 115.342 180.722 117.278L184.817 151.505L183.727 151.624Z" fill="#263238"/>
<path d="M202.68 151.625L198.584 117.397C198.384 115.724 197.577 114.182 196.317 113.063C195.056 111.945 193.43 111.327 191.744 111.327H178.211C176.572 111.32 174.986 111.9 173.738 112.962C172.49 114.023 171.664 115.497 171.409 117.115L165.892 151.191L164.807 151.017L170.324 116.952C170.619 115.08 171.575 113.375 173.019 112.146C174.463 110.917 176.299 110.246 178.194 110.253H191.728C193.678 110.255 195.56 110.97 197.019 112.264C198.478 113.558 199.413 115.342 199.648 117.278L203.743 151.505L202.68 151.625Z" fill="#263238"/>
<path d="M166.51 141.655H147.878V142.739H166.51V141.655Z" fill="#263238"/>
<path d="M199.458 116.79H180.196V117.874H199.458V116.79Z" fill="#263238"/>
<path d="M183.727 111.561H197.901C200.536 111.561 203.074 110.567 205.01 108.779C206.945 106.99 208.135 104.538 208.343 101.911L210.36 76.4489C210.437 75.4747 210.312 74.4951 209.993 73.5714C209.674 72.6477 209.168 71.7998 208.506 71.0809C207.844 70.3619 207.041 69.7873 206.146 69.3931C205.252 68.9989 204.286 68.7935 203.309 68.7898H195.444C190.993 68.7899 186.662 70.2264 183.094 72.8856C179.526 75.5449 176.911 79.2849 175.639 83.5494L170.215 101.726C169.773 103.211 168.863 104.514 167.621 105.439C166.378 106.365 164.87 106.864 163.321 106.863H153.405C152.16 106.865 150.967 107.36 150.087 108.241C149.207 109.122 148.713 110.316 148.713 111.561H183.727Z" fill="#407BFF"/>
<path opacity="0.7" d="M183.727 111.561H197.901C200.536 111.561 203.074 110.567 205.01 108.779C206.945 106.99 208.135 104.538 208.343 101.911L210.36 76.4489C210.437 75.4747 210.312 74.4951 209.993 73.5714C209.674 72.6477 209.168 71.7998 208.506 71.0809C207.844 70.3619 207.041 69.7873 206.146 69.3931C205.252 68.9989 204.286 68.7935 203.309 68.7898H195.444C190.993 68.7899 186.662 70.2264 183.094 72.8856C179.526 75.5449 176.911 79.2849 175.639 83.5494L170.215 101.726C169.773 103.211 168.863 104.514 167.621 105.439C166.378 106.365 164.87 106.864 163.321 106.863H153.405C152.16 106.865 150.967 107.36 150.087 108.241C149.207 109.122 148.713 110.316 148.713 111.561H183.727Z" fill="white"/>
<path d="M169.673 23.6864V23.6267C169.675 23.6465 169.675 23.6666 169.673 23.6864Z" fill="#407BFF"/>
<path d="M144.13 16.819C142.273 18.53 140.914 20.7118 140.197 23.1329H139.204C139.548 20.4078 140.568 17.812 142.171 15.5823L144.13 16.819Z" fill="#FF6C37"/>
<path opacity="0.6" d="M144.13 16.819C142.273 18.53 140.914 20.7118 140.197 23.1329H139.204C139.548 20.4078 140.568 17.812 142.171 15.5823L144.13 16.819Z" fill="white"/>
<path d="M149.879 13.5699C147.731 14.1811 145.759 15.297 144.13 16.8245L142.171 15.5823C143.77 13.3462 145.874 11.5192 148.312 10.2502L149.879 13.5699Z" fill="#FF6C37"/>
<path opacity="0.5" d="M149.879 13.5699C147.731 14.1811 145.759 15.297 144.13 16.8245L142.171 15.5823C143.77 13.3462 145.874 11.5192 148.312 10.2502L149.879 13.5699Z" fill="white"/>
<path d="M155.971 8.42236L155.488 13.2663C154.795 13.1454 154.093 13.0855 153.389 13.0873C152.203 13.0883 151.022 13.2507 149.879 13.57L148.312 10.2612C150.605 9.05966 153.154 8.42888 155.743 8.42236H155.971Z" fill="#FF6C37"/>
<path opacity="0.4" d="M155.971 8.42236L155.488 13.2663C154.795 13.1454 154.093 13.0855 153.389 13.0873C152.203 13.0883 151.022 13.2507 149.879 13.57L148.312 10.2612C150.605 9.05966 153.154 8.42888 155.743 8.42236H155.971Z" fill="white"/>
<path d="M163.229 10.4782L160.066 15.116C158.694 14.1721 157.131 13.5407 155.488 13.2663L155.971 8.42236C158.531 8.44055 161.039 9.1509 163.229 10.4782Z" fill="#FF6C37"/>
<path opacity="0.3" d="M163.229 10.4782L160.066 15.116C158.694 14.1721 157.131 13.5407 155.488 13.2663L155.971 8.42236C158.531 8.44055 161.039 9.1509 163.229 10.4782Z" fill="white"/>
<path d="M168.246 15.9457L163.31 18.5874C162.489 17.2082 161.379 16.0237 160.055 15.1158L163.218 10.478C165.37 11.7971 167.111 13.6907 168.246 15.9457Z" fill="#FF6C37"/>
<path opacity="0.2" d="M168.246 15.9457L163.31 18.5874C162.489 17.2082 161.379 16.0237 160.055 15.1158L163.218 10.478C165.37 11.7971 167.111 13.6907 168.246 15.9457Z" fill="white"/>
<path d="M169.689 23.4856L164.861 23.4314C164.71 21.7216 164.18 20.0669 163.31 18.5874L168.246 15.9458C169.403 18.2812 169.902 20.8879 169.689 23.4856Z" fill="#FF6C37"/>
<path opacity="0.1" d="M169.689 23.4856L164.861 23.4314C164.71 21.7216 164.18 20.0669 163.31 18.5874L168.246 15.9458C169.403 18.2812 169.902 20.8879 169.689 23.4856Z" fill="white"/>
<path d="M169.678 23.6267C169.681 23.6465 169.681 23.6665 169.678 23.6863C169.483 25.3838 169.05 27.0455 168.393 28.6225L164.482 27.7383L164.796 26.2466C164.823 26.0513 164.85 25.8561 164.867 25.6608V25.5415C164.929 24.8395 164.929 24.1334 164.867 23.4314L169.694 23.4856C169.694 23.5182 169.694 23.5399 169.694 23.567C169.692 23.5876 169.687 23.6077 169.678 23.6267Z" fill="#FF6C37"/>
<path d="M139.79 28.3131L139.503 28.3782C139.41 28.004 139.334 27.6243 139.269 27.2391C139.086 26.0641 139.043 24.8715 139.139 23.6862V23.6265C139.137 23.6067 139.137 23.5867 139.139 23.5669C139.139 23.4204 139.166 23.2685 139.188 23.1221H140.181C139.95 23.9086 139.794 24.7149 139.714 25.5305C139.714 25.5305 139.714 25.5684 139.714 25.5901C139.714 25.6118 139.714 25.6281 139.714 25.6498C139.678 26.1317 139.669 26.6152 139.687 27.0981C139.709 27.5158 139.741 27.9172 139.79 28.3131Z" fill="#FF6C37"/>
<path opacity="0.7" d="M139.79 28.3131L139.503 28.3782C139.41 28.004 139.334 27.6243 139.269 27.2391C139.086 26.0641 139.043 24.8715 139.139 23.6862V23.6265C139.137 23.6067 139.137 23.5867 139.139 23.5669C139.139 23.4204 139.166 23.2685 139.188 23.1221H140.181C139.95 23.9086 139.794 24.7149 139.714 25.5305C139.714 25.5305 139.714 25.5684 139.714 25.5901C139.714 25.6118 139.714 25.6281 139.714 25.6498C139.678 26.1317 139.669 26.6152 139.687 27.0981C139.709 27.5158 139.741 27.9172 139.79 28.3131Z" fill="white"/>
<path d="M169.363 27.5158L168.951 28.5356L168.116 28.3512L160.332 26.5883L156.98 25.8289C157.212 25.5274 157.406 25.1975 157.555 24.8471C157.725 24.4379 157.828 24.0037 157.858 23.5615L165.29 26.1164L169.363 27.5158Z" fill="#263238"/>
<path d="M157.858 23.5724C157.796 24.3985 157.49 25.1875 156.98 25.8398L153.969 25.1563L154.918 22.5635L157.858 23.5724Z" fill="#263238"/>
<path d="M157.858 23.5723C157.796 24.3984 157.49 25.1875 156.98 25.8397C156.606 26.3168 156.137 26.7104 155.602 26.9951C153.665 28.0311 151.382 27.3802 150.509 25.5305C150.108 24.5785 150.083 23.5099 150.439 22.5404C150.796 21.5709 151.507 20.7727 152.429 20.3069C154.365 19.2709 156.649 19.9272 157.528 21.7715C157.791 22.3332 157.905 22.9536 157.858 23.5723Z" fill="#FF6C37"/>
<path d="M34.2761 21.278H37.3843V23.8817H33.967L33.4896 27.6787H30.7775L31.2548 23.8817H27.7453L27.2679 27.6787H24.61L25.0874 23.8817H21.9575V21.278H25.3965L25.8956 17.4105H22.7712V14.8068H26.2102L26.6875 11.0098H29.3617L28.8844 14.8068H32.3885L32.8658 11.0098H35.54L35.0627 14.8068H38.1654V17.4105H34.7264L34.2761 21.278ZM31.564 21.278L32.063 17.4105H28.5915L28.049 21.278H31.564Z" fill="#FF6C37"/>
<path d="M46.0469 10.9827V27.7004H42.1794V14.0908H38.838V10.9827H46.0469Z" fill="#FF6C37"/>
<path d="M31.5532 80.5061H4.80591V98.9217H31.5532V80.5061Z" fill="#263238"/>
<path d="M31.5532 80.5061H4.80591V82.1931H31.5532V80.5061Z" fill="#FF6C37"/>
<path d="M9.70417 90.6929L14.0816 93.1176C14.2455 93.1977 14.3928 93.3081 14.5155 93.4431C14.5922 93.5503 14.6304 93.6803 14.624 93.8119C14.6253 93.9034 14.6082 93.9943 14.5738 94.0791C14.5393 94.1639 14.4881 94.2409 14.4233 94.3055C14.3622 94.3708 14.2883 94.4229 14.2061 94.4583C14.124 94.4938 14.0354 94.5119 13.946 94.5117C13.7527 94.4887 13.5672 94.4219 13.4036 94.3164L7.76227 91.1757C7.67341 91.1302 7.59885 91.061 7.54678 90.9758C7.49471 90.8907 7.46716 90.7928 7.46716 90.6929C7.46716 90.5931 7.49471 90.4952 7.54678 90.41C7.59885 90.3249 7.67341 90.2557 7.76227 90.2102L13.4036 87.0695C13.5685 86.9677 13.7536 86.9029 13.946 86.8796C14.1273 86.8825 14.3003 86.9561 14.428 87.0849C14.5558 87.2136 14.6281 87.3872 14.6295 87.5685C14.6395 87.7006 14.6009 87.8318 14.521 87.9374C14.4002 88.0759 14.2526 88.1885 14.087 88.2683L9.70417 90.6929Z" fill="white"/>
<path d="M20.9596 86.1744L16.6202 95.4988C16.5547 95.6704 16.453 95.8258 16.3219 95.9544C16.2054 96.0486 16.0594 96.0986 15.9096 96.0955C15.8207 96.0955 15.7326 96.0778 15.6507 96.0433C15.5687 96.0089 15.4944 95.9583 15.4323 95.8948C15.3696 95.8387 15.3194 95.7702 15.2848 95.6936C15.2503 95.617 15.2321 95.534 15.2316 95.45C15.2475 95.2605 15.3009 95.0761 15.3889 94.9075L19.7283 85.5886C19.7943 85.4185 19.8939 85.2636 20.0212 85.1329C20.1502 85.0334 20.3109 84.984 20.4735 84.9939C20.6361 85.0039 20.7896 85.0726 20.9054 85.1872C20.9683 85.243 21.0187 85.3115 21.0533 85.3881C21.0879 85.4648 21.1059 85.5479 21.1061 85.632C21.0936 85.8207 21.0438 86.005 20.9596 86.1744Z" fill="white"/>
<path d="M26.4219 90.6929L22.0282 88.2683C21.8603 88.1898 21.7106 88.0771 21.5889 87.9374C21.513 87.8298 21.4749 87.7001 21.4804 87.5685C21.479 87.4781 21.4966 87.3884 21.5322 87.3053C21.5677 87.2221 21.6203 87.1473 21.6865 87.0858C21.7476 87.0205 21.8216 86.9684 21.9037 86.933C21.9858 86.8975 22.0744 86.8794 22.1638 86.8796C22.3565 86.9021 22.5417 86.9669 22.7063 87.0695L28.3476 90.2102C28.4364 90.2557 28.511 90.3249 28.5631 90.41C28.6151 90.4952 28.6427 90.5931 28.6427 90.6929C28.6427 90.7928 28.6151 90.8907 28.5631 90.9758C28.511 91.061 28.4364 91.1302 28.3476 91.1757L22.7063 94.3164C22.5429 94.4224 22.3573 94.4892 22.1638 94.5117C22.0736 94.5117 21.9843 94.4935 21.9013 94.4581C21.8184 94.4226 21.7434 94.3707 21.6811 94.3055C21.5522 94.1736 21.4802 93.9964 21.4804 93.8119C21.4764 93.6806 21.5144 93.5514 21.5889 93.4431C21.7128 93.3071 21.862 93.1965 22.0282 93.1176L26.4219 90.6929Z" fill="white"/>
</svg>
