<svg width="196" height="150" viewBox="0 0 196 150" fill="none" xmlns="http://www.w3.org/2000/svg">
<g clip-path="url(#clip0_957_10006)">
<path d="M177.122 33.493C175.763 33.5051 174.428 33.8592 173.241 34.5227C173.289 33.6109 173.148 32.699 172.826 31.8445C172.504 30.9901 172.008 30.2117 171.37 29.5583C170.732 28.905 169.966 28.391 169.12 28.0487C168.273 27.7064 167.365 27.5432 166.452 27.5695C164.285 27.6324 162.207 28.4486 160.577 29.8777C158.947 31.3068 157.865 33.2594 157.519 35.3996C157.48 35.6847 157.457 35.9719 157.451 36.2596C157.089 36.1908 156.722 36.1566 156.353 36.1577C154.699 36.2052 153.112 36.8285 151.868 37.9202C150.623 39.0118 149.799 40.5034 149.536 42.1378C149.404 42.8806 149.439 43.6435 149.638 44.3712C149.837 45.0989 150.195 45.7732 150.687 46.3455C151.179 46.9178 151.791 47.3737 152.481 47.6802C153.17 47.9867 153.919 48.1362 154.673 48.1179H175.08C177.103 48.0607 179.044 47.2993 180.566 45.9649C182.088 44.6305 183.097 42.8069 183.419 40.8083C183.974 36.7688 181.156 33.493 177.122 33.493Z" fill="#E9F8FF"/>
<path d="M147.777 7.08897C146.758 7.09718 145.758 7.3618 144.869 7.85841C144.904 7.17463 144.798 6.49091 144.556 5.8503C144.314 5.20969 143.942 4.62605 143.464 4.13608C142.986 3.64612 142.411 3.26044 141.777 3.00333C141.142 2.74622 140.461 2.62323 139.777 2.6421C138.15 2.68856 136.59 3.30107 135.366 4.3741C134.142 5.44713 133.331 6.91344 133.073 8.52035C133.073 8.74099 133.027 8.95032 133.016 9.16531C132.746 9.11239 132.471 9.08586 132.196 9.08611C130.958 9.12583 129.773 9.5954 128.843 10.4141C127.914 11.2329 127.299 12.3496 127.104 13.5726C127.003 14.1301 127.027 14.7032 127.175 15.25C127.324 15.7969 127.592 16.3037 127.961 16.7336C128.331 17.1635 128.791 17.5056 129.309 17.7349C129.827 17.9642 130.39 18.0749 130.957 18.0591H146.249C147.761 18.0088 149.209 17.4344 150.344 16.4343C151.48 15.4342 152.232 14.0706 152.472 12.5768C152.597 11.8962 152.569 11.1962 152.389 10.528C152.209 9.8598 151.882 9.24021 151.432 8.71439C150.982 8.18858 150.42 7.76981 149.788 7.48861C149.156 7.20742 148.468 7.07089 147.777 7.08897Z" fill="#E9F8FF"/>
<path opacity="0.5" d="M61.9903 28.8594C61.0831 28.8685 60.1925 29.1038 59.3991 29.544C59.4315 28.9361 59.3374 28.3281 59.1228 27.7585C58.9082 27.1888 58.5778 26.6699 58.1525 26.2344C57.7271 25.799 57.2161 25.4565 56.6516 25.2286C56.0871 25.0007 55.4815 24.8923 54.8731 24.9104C53.4281 24.9535 52.0432 25.4982 50.9561 26.451C49.869 27.4039 49.1476 28.7055 48.9156 30.1324C48.8881 30.3199 48.8711 30.5088 48.8647 30.6981C48.6238 30.6549 48.3796 30.6322 48.1349 30.6303C47.035 30.6674 45.9823 31.0855 45.1567 31.8131C44.3311 32.5406 43.7839 33.5324 43.6088 34.6189C43.5196 35.115 43.5419 35.6247 43.6743 36.111C43.8066 36.5974 44.0457 37.0482 44.3739 37.4306C44.7022 37.8131 45.1116 38.1177 45.5723 38.3222C46.033 38.5267 46.5334 38.6261 47.0373 38.6131H60.6495C62.0004 38.5738 63.2954 38.0647 64.3115 37.1736C65.3276 36.2824 66.0013 35.0649 66.2166 33.7306C66.326 33.1218 66.2976 32.4962 66.1336 31.8998C65.9695 31.3034 65.674 30.7513 65.2686 30.2841C64.8633 29.8169 64.3584 29.4464 63.7911 29.1999C63.2238 28.9533 62.6085 28.837 61.9903 28.8594Z" fill="#E9F8FF"/>
<path d="M116.343 15.6885L116.66 13.4255C116.667 13.391 116.665 13.3554 116.657 13.3213C116.648 13.2873 116.631 13.2558 116.608 13.229C116.585 13.2023 116.557 13.1812 116.524 13.1672C116.492 13.1532 116.457 13.1467 116.422 13.1483H115.732C115.674 13.1485 115.618 13.1272 115.575 13.0885C115.532 13.0498 115.505 12.9964 115.5 12.9389C115.438 12.1192 115.221 11.3187 114.861 10.5797C114.835 10.5231 114.829 10.4597 114.844 10.3994C114.858 10.3391 114.892 10.2852 114.94 10.2459L115.505 9.75936C115.564 9.71447 115.602 9.64855 115.613 9.57565C115.624 9.50275 115.605 9.42861 115.562 9.36898L114.17 7.76788C114.117 7.71605 114.046 7.68702 113.972 7.68702C113.898 7.68702 113.827 7.71605 113.774 7.76788L113.208 8.25444C113.164 8.29713 113.106 8.32366 113.045 8.32981C112.983 8.33596 112.921 8.32137 112.869 8.28838C112.198 7.82327 111.443 7.4928 110.646 7.31527C110.589 7.30304 110.539 7.26883 110.507 7.22009C110.475 7.17134 110.464 7.11202 110.476 7.05503L110.572 6.3648C110.578 6.32997 110.576 6.29425 110.566 6.26026C110.557 6.22626 110.54 6.19485 110.516 6.16829C110.493 6.14173 110.464 6.12071 110.432 6.10675C110.399 6.09278 110.364 6.08623 110.329 6.08757H108.066C107.989 6.09037 107.916 6.11945 107.858 6.16994C107.8 6.22042 107.762 6.28923 107.749 6.3648L107.653 7.05503C107.643 7.11855 107.613 7.17747 107.569 7.22395C107.524 7.27044 107.467 7.30229 107.404 7.31527C106.526 7.5049 105.683 7.8334 104.909 8.28838C104.859 8.32259 104.799 8.33796 104.738 8.33174C104.678 8.32552 104.622 8.29812 104.581 8.25444L104.168 7.76788C104.115 7.71605 104.044 7.68702 103.97 7.68702C103.896 7.68702 103.824 7.71605 103.772 7.76788L101.939 9.37464C101.881 9.42035 101.844 9.48666 101.834 9.55952C101.825 9.63238 101.844 9.70607 101.888 9.76501L102.301 10.2516C102.34 10.2984 102.361 10.3575 102.361 10.4185C102.361 10.4795 102.34 10.5386 102.301 10.5854C101.747 11.2997 101.309 12.0956 100.999 12.9446C100.977 13.0048 100.937 13.057 100.884 13.0943C100.832 13.1316 100.77 13.1524 100.705 13.1539H100.021C99.9434 13.1545 99.8689 13.1828 99.8107 13.2337C99.7526 13.2846 99.7146 13.3546 99.7038 13.4311L99.3813 15.6942C99.3746 15.7289 99.3757 15.7648 99.3845 15.7991C99.3934 15.8333 99.4098 15.8652 99.4326 15.8923C99.4554 15.9194 99.484 15.9411 99.5162 15.9558C99.5484 15.9704 99.5835 15.9777 99.6189 15.9771H100.309C100.367 15.9754 100.424 15.9963 100.467 16.0353C100.51 16.0742 100.537 16.1284 100.541 16.1864C100.603 17.0061 100.82 17.8066 101.18 18.5456C101.206 18.6012 101.212 18.6639 101.198 18.7235C101.184 18.7831 101.15 18.836 101.101 18.8738L100.535 19.3603C100.477 19.4062 100.438 19.4731 100.427 19.5469C100.417 19.6208 100.435 19.6958 100.479 19.7563L101.859 21.3631C101.912 21.4149 101.983 21.444 102.057 21.444C102.131 21.444 102.202 21.4149 102.255 21.3631L102.821 20.8765C102.864 20.8334 102.921 20.8065 102.982 20.8003C103.043 20.7941 103.104 20.809 103.155 20.8426C103.828 21.3037 104.582 21.6321 105.378 21.8101C105.436 21.8223 105.486 21.8563 105.519 21.9048C105.551 21.9534 105.564 22.0127 105.554 22.0703L105.458 22.7605C105.451 22.7953 105.452 22.8311 105.461 22.8654C105.47 22.8997 105.486 22.9315 105.509 22.9587C105.532 22.9858 105.56 23.0075 105.592 23.0221C105.625 23.0368 105.66 23.0441 105.695 23.0434H107.958C108.036 23.0404 108.11 23.0105 108.167 22.9589C108.225 22.9072 108.263 22.8371 108.275 22.7605L108.371 22.0703C108.384 22.0077 108.413 21.9498 108.458 21.9037C108.502 21.8576 108.558 21.8251 108.62 21.8101C109.497 21.6198 110.339 21.2934 111.115 20.8426C111.165 20.8084 111.225 20.793 111.285 20.7992C111.346 20.8055 111.402 20.8329 111.443 20.8765L111.862 21.3631C111.914 21.4146 111.984 21.4435 112.057 21.4435C112.13 21.4435 112.2 21.4146 112.252 21.3631L114.085 19.7563C114.144 19.7104 114.183 19.6436 114.193 19.5697C114.204 19.4959 114.186 19.4208 114.142 19.3603L113.723 18.8738C113.684 18.8284 113.662 18.77 113.662 18.7097C113.662 18.6493 113.684 18.591 113.723 18.5456C114.278 17.8315 114.719 17.0356 115.03 16.1864C115.05 16.1257 115.089 16.0728 115.141 16.0353C115.193 15.9977 115.255 15.9774 115.319 15.9771H116.009C116.09 15.9778 116.169 15.9489 116.23 15.8958C116.292 15.8427 116.332 15.769 116.343 15.6885ZM106.94 18.8511C106.012 18.7621 105.153 18.3194 104.542 17.6148C103.931 16.9102 103.615 15.9977 103.658 15.0662C103.724 13.7826 104.272 12.5712 105.193 11.6751C106.115 10.7789 107.341 10.2644 108.626 10.2346C109.172 10.2192 109.714 10.3257 110.214 10.5465C110.713 10.7673 111.157 11.0968 111.513 11.5109C111.87 11.9249 112.129 12.4133 112.272 12.9402C112.416 13.4672 112.44 14.0195 112.343 14.557C112.145 15.8194 111.479 16.9611 110.478 17.7555C109.477 18.55 108.214 18.939 106.94 18.8455V18.8511Z" fill="#FF6C37"/>
<path d="M126.9 23.1283L127.166 21.2613C127.17 21.233 127.168 21.2042 127.16 21.1768C127.152 21.1494 127.138 21.1241 127.119 21.1026C127.1 21.0811 127.077 21.0639 127.051 21.0522C127.025 21.0406 126.996 21.0347 126.968 21.035H126.402C126.378 21.0357 126.355 21.0318 126.332 21.0234C126.31 21.015 126.29 21.0023 126.272 20.986C126.255 20.9697 126.241 20.9501 126.231 20.9284C126.222 20.9068 126.216 20.8834 126.215 20.8596C126.164 20.1864 125.983 19.5295 125.684 18.9247C125.664 18.8782 125.66 18.8265 125.672 18.7775C125.684 18.7285 125.712 18.6848 125.751 18.6531L126.21 18.2514C126.257 18.2135 126.288 18.1591 126.296 18.0992C126.305 18.0392 126.29 17.9784 126.255 17.9289L125.123 16.6107C125.08 16.5702 125.022 16.5476 124.962 16.5476C124.902 16.5476 124.845 16.5702 124.801 16.6107L124.348 17.0124C124.309 17.0431 124.26 17.0598 124.21 17.0598C124.16 17.0598 124.111 17.0431 124.071 17.0124C123.521 16.6309 122.902 16.3582 122.249 16.209C122.203 16.1994 122.162 16.1724 122.134 16.1335C122.107 16.0946 122.096 16.0468 122.102 15.9997L122.181 15.4339C122.187 15.4056 122.187 15.3763 122.18 15.3481C122.173 15.32 122.16 15.2938 122.141 15.2715C122.123 15.2492 122.1 15.2314 122.073 15.2193C122.047 15.2073 122.018 15.2014 121.989 15.202H120.122C120.059 15.205 119.998 15.2297 119.951 15.2719C119.904 15.3141 119.872 15.3713 119.862 15.4339L119.783 15.9997C119.774 16.0513 119.75 16.099 119.714 16.1365C119.677 16.1739 119.63 16.1993 119.579 16.209C118.859 16.3685 118.168 16.6396 117.531 17.0124C117.494 17.0443 117.447 17.0618 117.398 17.0618C117.349 17.0618 117.302 17.0443 117.265 17.0124L116.92 16.6107C116.876 16.5702 116.818 16.5476 116.759 16.5476C116.699 16.5476 116.641 16.5702 116.597 16.6107L115.087 17.9516C115.041 17.9902 115.011 18.0446 115.002 18.1041C114.994 18.1637 115.008 18.2242 115.042 18.2741L115.387 18.6757C115.418 18.7141 115.435 18.7621 115.435 18.8115C115.435 18.861 115.418 18.909 115.387 18.9473C114.934 19.534 114.573 20.1865 114.317 20.8822C114.3 20.9317 114.267 20.9747 114.225 21.0059C114.183 21.0371 114.132 21.0551 114.08 21.0576H113.514C113.451 21.0593 113.391 21.0829 113.343 21.1241C113.296 21.1654 113.264 21.2219 113.254 21.2839L112.988 23.1509C112.984 23.1792 112.986 23.208 112.994 23.2354C113.002 23.2628 113.016 23.2881 113.035 23.3096C113.054 23.3311 113.077 23.3483 113.103 23.3599C113.129 23.3716 113.157 23.3775 113.186 23.3772H113.752C113.8 23.377 113.846 23.3949 113.882 23.4274C113.918 23.4599 113.94 23.5046 113.944 23.5526C113.996 24.2249 114.175 24.8813 114.47 25.4875C114.49 25.534 114.494 25.5857 114.482 25.6347C114.47 25.6837 114.442 25.7274 114.402 25.7591L113.95 26.1608C113.901 26.1978 113.869 26.2524 113.861 26.3127C113.852 26.3731 113.868 26.4343 113.904 26.4832L115.036 27.8015C115.08 27.842 115.137 27.8645 115.197 27.8645C115.257 27.8645 115.315 27.842 115.358 27.8015L115.811 27.3998C115.851 27.369 115.899 27.3524 115.95 27.3524C116 27.3524 116.049 27.369 116.088 27.3998C116.641 27.7594 117.257 28.0092 117.904 28.1353C117.95 28.1473 117.99 28.1759 118.016 28.2156C118.042 28.2553 118.053 28.3033 118.046 28.3502L117.967 28.916C117.962 28.9442 117.963 28.9732 117.97 29.0009C117.978 29.0286 117.991 29.0543 118.009 29.0764C118.028 29.0984 118.05 29.1162 118.076 29.1286C118.102 29.141 118.13 29.1476 118.159 29.148H120.026C120.089 29.1449 120.15 29.1202 120.197 29.078C120.244 29.0358 120.276 28.9786 120.286 28.916L120.365 28.3502C120.375 28.2985 120.399 28.2507 120.435 28.2125C120.472 28.1744 120.518 28.1475 120.569 28.1353C121.29 27.9803 121.981 27.711 122.617 27.3375C122.654 27.3057 122.701 27.2882 122.75 27.2882C122.799 27.2882 122.846 27.3057 122.883 27.3375L123.228 27.7392C123.272 27.7798 123.33 27.8023 123.389 27.8023C123.449 27.8023 123.507 27.7798 123.551 27.7392L125.056 26.421C125.103 26.3831 125.134 26.3287 125.142 26.2687C125.151 26.2088 125.136 26.1479 125.101 26.0985L124.756 25.6968C124.724 25.6585 124.707 25.6105 124.707 25.561C124.707 25.5116 124.724 25.4636 124.756 25.4253C125.211 24.8399 125.572 24.1871 125.825 23.4904C125.843 23.4409 125.875 23.3979 125.917 23.3667C125.959 23.3354 126.01 23.3175 126.063 23.315H126.628C126.688 23.3189 126.747 23.3027 126.797 23.2688C126.846 23.2349 126.882 23.1854 126.9 23.1283ZM119.183 25.7251C118.421 25.6505 117.716 25.286 117.215 24.707C116.714 24.1279 116.454 23.3784 116.49 22.6134C116.549 21.562 117.001 20.5712 117.757 19.8376C118.513 19.104 119.516 18.6813 120.569 18.6531C121.017 18.6401 121.461 18.7272 121.871 18.9079C122.281 19.0887 122.645 19.3585 122.937 19.6978C123.229 20.0371 123.442 20.4373 123.56 20.8693C123.678 21.3013 123.698 21.7541 123.619 22.1948C123.454 23.2311 122.908 24.1683 122.087 24.8217C121.266 25.4752 120.23 25.7975 119.183 25.7251Z" fill="#FF6C37"/>
<path d="M83.7947 37.6683C83.6127 37.6728 83.432 37.6368 83.2657 37.5629C83.0993 37.4889 82.9515 37.379 82.8329 37.2409C82.7144 37.1028 82.628 36.9401 82.58 36.7645C82.532 36.5889 82.5237 36.4048 82.5557 36.2256C82.6157 35.8295 82.8139 35.4674 83.1152 35.2034C83.4165 34.9394 83.8015 34.7904 84.202 34.7829C84.3843 34.7774 84.5655 34.8127 84.7323 34.8863C84.8992 34.9599 85.0474 35.0699 85.1662 35.2082C85.285 35.3466 85.3714 35.5097 85.4189 35.6858C85.4665 35.8618 85.474 36.0463 85.441 36.2256C85.381 36.6217 85.1828 36.9838 84.8815 37.2479C84.5802 37.5119 84.1952 37.6608 83.7947 37.6683ZM84.1454 35.2073C83.8638 35.2156 83.5939 35.3218 83.3822 35.5077C83.1705 35.6936 83.0303 35.9475 82.9856 36.2256C82.963 36.3519 82.9686 36.4816 83.0022 36.6053C83.0358 36.7291 83.0965 36.8439 83.1799 36.9413C83.2633 37.0388 83.3673 37.1165 83.4843 37.1688C83.6014 37.2212 83.7287 37.2469 83.8569 37.244C84.1332 37.2283 84.3959 37.1189 84.6017 36.9337C84.8074 36.7486 84.9438 36.4988 84.9884 36.2256C85.0106 36.1018 85.0056 35.9745 84.9736 35.8528C84.9416 35.7311 84.8834 35.6178 84.8032 35.5209C84.7229 35.4239 84.6225 35.3456 84.5089 35.2915C84.3953 35.2373 84.2713 35.2086 84.1454 35.2073Z" fill="#E9F8FF"/>
<path d="M88.83 37.6683C88.6477 37.6739 88.4665 37.6385 88.2997 37.565C88.1328 37.4914 87.9846 37.3814 87.8658 37.243C87.747 37.1047 87.6606 36.9415 87.6131 36.7655C87.5655 36.5894 87.558 36.405 87.591 36.2256C87.651 35.8295 87.8492 35.4674 88.1505 35.2034C88.4518 34.9394 88.8368 34.7904 89.2374 34.7829C89.4193 34.7784 89.6 34.8145 89.7663 34.8884C89.9327 34.9623 90.0805 35.0723 90.1991 35.2104C90.3177 35.3485 90.4041 35.5112 90.452 35.6868C90.5 35.8624 90.5083 36.0464 90.4764 36.2256C90.4163 36.6217 90.2181 36.9838 89.9168 37.2478C89.6155 37.5119 89.2306 37.6608 88.83 37.6683ZM89.1751 35.2073C88.8938 35.2166 88.6245 35.3232 88.413 35.5089C88.2015 35.6946 88.061 35.9479 88.0153 36.2256C87.9925 36.3523 87.9983 36.4825 88.0322 36.6067C88.0661 36.7309 88.1273 36.846 88.2113 36.9436C88.2953 37.0411 88.4001 37.1187 88.5178 37.1707C88.6356 37.2227 88.7635 37.2477 88.8922 37.244C89.1692 37.2304 89.433 37.1216 89.6392 36.9361C89.8453 36.7506 89.9811 36.4997 90.0238 36.2256C90.046 36.1013 90.0409 35.9736 90.0085 35.8514C89.9762 35.7293 89.9176 35.6158 89.8367 35.5187C89.7558 35.4217 89.6547 35.3435 89.5404 35.2897C89.4261 35.2359 89.3014 35.2078 89.1751 35.2073Z" fill="#E9F8FF"/>
<path d="M175.742 65.6904H173.773C173.744 65.691 173.715 65.6851 173.689 65.6731C173.663 65.661 173.639 65.6432 173.621 65.6209C173.602 65.5986 173.589 65.5724 173.582 65.5443C173.575 65.5161 173.575 65.4868 173.581 65.4585L173.852 63.4896C173.864 63.4265 173.896 63.3692 173.945 63.3271C173.993 63.2849 174.054 63.2605 174.118 63.2577H176.087C176.116 63.2572 176.145 63.2632 176.172 63.2752C176.198 63.2872 176.222 63.3049 176.241 63.3271C176.26 63.3492 176.273 63.3753 176.281 63.4034C176.289 63.4315 176.29 63.4609 176.285 63.4896L176.008 65.4754C175.994 65.5358 175.96 65.5898 175.912 65.6288C175.864 65.6678 175.804 65.6895 175.742 65.6904Z" fill="#3335CF"/>
<path d="M178.848 65.6904H176.879C176.85 65.6909 176.821 65.6849 176.795 65.6729C176.768 65.6609 176.745 65.6431 176.726 65.621C176.707 65.5988 176.693 65.5728 176.685 65.5447C176.678 65.5166 176.676 65.4872 176.681 65.4585L176.958 63.4896C176.969 63.427 177 63.3698 177.047 63.3276C177.095 63.2854 177.155 63.2607 177.219 63.2577H179.187C179.217 63.2572 179.245 63.2632 179.272 63.2752C179.299 63.2872 179.322 63.3049 179.341 63.3271C179.36 63.3492 179.374 63.3753 179.381 63.4034C179.389 63.4315 179.39 63.4609 179.386 63.4896L179.108 65.4585C179.098 65.5211 179.067 65.5783 179.019 65.6205C178.972 65.6627 178.911 65.6874 178.848 65.6904Z" fill="#3335CF"/>
<path d="M182.096 65.6904H180.127C180.098 65.6909 180.069 65.6849 180.042 65.6729C180.016 65.6609 179.992 65.6431 179.973 65.621C179.954 65.5988 179.94 65.5728 179.933 65.5447C179.925 65.5166 179.924 65.4872 179.929 65.4585L180.206 63.4896C180.216 63.427 180.248 63.3698 180.295 63.3276C180.342 63.2854 180.403 63.2607 180.466 63.2577H182.458C182.487 63.2572 182.516 63.2632 182.542 63.2752C182.569 63.2872 182.592 63.3049 182.611 63.3271C182.63 63.3492 182.644 63.3753 182.652 63.4034C182.659 63.4315 182.661 63.4609 182.656 63.4896L182.378 65.4585C182.367 65.5249 182.333 65.585 182.281 65.6277C182.229 65.6704 182.163 65.6927 182.096 65.6904Z" fill="#3335CF"/>
<path d="M47.4957 93.0619H45.5438C45.5152 93.0622 45.4869 93.0563 45.4609 93.0446C45.4348 93.033 45.4116 93.0158 45.3927 92.9943C45.3739 92.9728 45.36 92.9475 45.3519 92.9201C45.3438 92.8927 45.3417 92.8638 45.3458 92.8356L45.623 90.8667C45.6323 90.8037 45.6634 90.7459 45.711 90.7035C45.7586 90.6611 45.8196 90.6368 45.8833 90.6348H47.8521C47.8815 90.6333 47.9109 90.6385 47.938 90.6502C47.9651 90.6618 47.9891 90.6796 48.0082 90.702C48.0274 90.7244 48.0411 90.7509 48.0484 90.7795C48.0556 90.808 48.0562 90.8379 48.0501 90.8667L47.7729 92.8356C47.7631 92.901 47.7293 92.9605 47.6781 93.0023C47.6268 93.0442 47.5618 93.0654 47.4957 93.0619Z" fill="#9192FF"/>
<path d="M50.7431 93.0619H48.7743C48.7457 93.0622 48.7174 93.0563 48.6913 93.0446C48.6653 93.033 48.642 93.0158 48.6232 92.9943C48.6044 92.9728 48.5905 92.9475 48.5824 92.9201C48.5743 92.8927 48.5722 92.8638 48.5762 92.8356L48.8535 90.8667C48.8627 90.8037 48.8939 90.7459 48.9415 90.7035C48.989 90.6611 49.05 90.6368 49.1137 90.6348H51.0826C51.112 90.6333 51.1414 90.6385 51.1685 90.6502C51.1955 90.6618 51.2196 90.6796 51.2387 90.702C51.2578 90.7244 51.2716 90.7509 51.2788 90.7795C51.2861 90.808 51.2867 90.8379 51.2806 90.8667L51.0034 92.8356C50.9929 92.8976 50.9612 92.9541 50.9138 92.9953C50.8663 93.0366 50.806 93.0601 50.7431 93.0619Z" fill="#9192FF"/>
<path d="M53.9907 93.0619H52.0218C51.9933 93.0622 51.965 93.0563 51.9389 93.0446C51.9128 93.033 51.8896 93.0158 51.8708 92.9943C51.852 92.9728 51.838 92.9475 51.8299 92.9201C51.8218 92.8927 51.8197 92.8638 51.8238 92.8356L52.101 90.8667C52.1103 90.8037 52.1414 90.7459 52.189 90.7035C52.2366 90.6611 52.2976 90.6368 52.3613 90.6348H54.3301C54.3596 90.6333 54.3889 90.6385 54.416 90.6502C54.4431 90.6618 54.4671 90.6796 54.4863 90.702C54.5054 90.7244 54.5191 90.7509 54.5264 90.7795C54.5336 90.808 54.5342 90.8379 54.5281 90.8667L54.2509 92.8356C54.2405 92.8976 54.2088 92.9541 54.1613 92.9953C54.1139 93.0366 54.0535 93.0601 53.9907 93.0619Z" fill="#9192FF"/>
<path d="M75.3027 23.694H73.3338C73.3053 23.6943 73.277 23.6884 73.2509 23.6768C73.2248 23.6651 73.2016 23.6479 73.1828 23.6264C73.164 23.6049 73.15 23.5796 73.1419 23.5522C73.1338 23.5248 73.1317 23.496 73.1358 23.4677L73.4131 21.4989C73.4235 21.4354 73.4558 21.3775 73.5043 21.3351C73.5529 21.2928 73.6146 21.2687 73.679 21.2669H75.6478C75.6768 21.2663 75.7055 21.2722 75.7319 21.2843C75.7582 21.2963 75.7815 21.3141 75.8 21.3364C75.8185 21.3588 75.8317 21.3849 75.8387 21.4131C75.8456 21.4412 75.8461 21.4705 75.8402 21.4989L75.5686 23.4677C75.5569 23.5302 75.5242 23.5868 75.4757 23.628C75.4273 23.6692 75.3662 23.6925 75.3027 23.694Z" fill="#9192FF"/>
<path d="M78.5502 23.694H76.5814C76.5528 23.6943 76.5245 23.6884 76.4985 23.6768C76.4724 23.6651 76.4492 23.6479 76.4303 23.6264C76.4115 23.6049 76.3976 23.5796 76.3895 23.5522C76.3814 23.5248 76.3793 23.496 76.3834 23.4677L76.6606 21.4989C76.67 21.4349 76.702 21.3763 76.7507 21.3338C76.7995 21.2913 76.8618 21.2676 76.9265 21.2669H78.9236C78.9526 21.2663 78.9813 21.2722 79.0077 21.2843C79.034 21.2963 79.0573 21.3141 79.0758 21.3364C79.0943 21.3588 79.1076 21.3849 79.1145 21.4131C79.1215 21.4412 79.122 21.4705 79.116 21.4989L78.8444 23.4677C78.832 23.5351 78.7951 23.5956 78.7408 23.6374C78.6865 23.6792 78.6186 23.6994 78.5502 23.694Z" fill="#9192FF"/>
<path d="M81.7978 23.694H79.829C79.8004 23.6943 79.7721 23.6884 79.746 23.6768C79.72 23.6651 79.6967 23.6479 79.6779 23.6264C79.6591 23.6049 79.6452 23.5796 79.637 23.5522C79.6289 23.5248 79.6269 23.496 79.6309 23.4677L79.9082 21.4989C79.9176 21.4349 79.9496 21.3763 79.9983 21.3338C80.047 21.2913 80.1094 21.2676 80.1741 21.2669H82.1429C82.1719 21.2663 82.2006 21.2722 82.227 21.2843C82.2533 21.2963 82.2766 21.3141 82.2951 21.3364C82.3136 21.3588 82.3268 21.3849 82.3338 21.4131C82.3407 21.4412 82.3412 21.4705 82.3353 21.4989L82.0581 23.4677C82.0486 23.5302 82.0173 23.5873 81.9696 23.6288C81.9219 23.6703 81.861 23.6934 81.7978 23.694Z" fill="#9192FF"/>
<path d="M168.042 4.29978H166.05C166.022 4.30041 165.993 4.29448 165.966 4.28244C165.94 4.2704 165.917 4.25257 165.898 4.23026C165.88 4.20796 165.867 4.18177 165.86 4.15364C165.853 4.12551 165.852 4.09618 165.858 4.06783L166.13 2.09898C166.141 2.03649 166.174 1.9799 166.223 1.9387C166.271 1.8975 166.332 1.87419 166.396 1.87268H168.364C168.393 1.87238 168.421 1.87827 168.447 1.88994C168.473 1.90161 168.497 1.91879 168.516 1.94029C168.534 1.96179 168.548 1.98709 168.556 2.01449C168.564 2.04188 168.567 2.0707 168.562 2.09898L168.285 4.06783C168.276 4.1278 168.247 4.18298 168.203 4.22488C168.159 4.26679 168.102 4.2931 168.042 4.29978Z" fill="#3335CF"/>
<path d="M171.289 4.29978H169.321C169.292 4.30041 169.263 4.29448 169.236 4.28244C169.21 4.2704 169.187 4.25257 169.168 4.23026C169.15 4.20796 169.137 4.18177 169.13 4.15364C169.123 4.12551 169.122 4.09618 169.128 4.06783L169.4 2.09898C169.411 2.03649 169.444 1.9799 169.493 1.9387C169.541 1.8975 169.602 1.87419 169.666 1.87268H171.634C171.663 1.87238 171.691 1.87827 171.717 1.88994C171.743 1.90161 171.767 1.91879 171.786 1.94029C171.804 1.96179 171.818 1.98709 171.826 2.01449C171.835 2.04188 171.837 2.0707 171.832 2.09898L171.555 4.06783C171.545 4.13136 171.513 4.18925 171.464 4.23158C171.415 4.2739 171.354 4.29802 171.289 4.29978Z" fill="#3335CF"/>
<path d="M174.537 4.29978H172.568C172.539 4.30021 172.51 4.29421 172.484 4.28221C172.457 4.27021 172.434 4.25251 172.415 4.23035C172.396 4.2082 172.382 4.18215 172.374 4.15406C172.367 4.12596 172.365 4.09652 172.37 4.06782L172.647 2.09897C172.659 2.03648 172.692 1.9799 172.74 1.9387C172.789 1.8975 172.85 1.87419 172.913 1.87267H174.882C174.911 1.87114 174.939 1.87625 174.966 1.88762C174.992 1.89898 175.016 1.91628 175.034 1.93819C175.053 1.96009 175.066 1.986 175.073 2.01389C175.08 2.04178 175.081 2.07089 175.074 2.09897L174.803 4.06782C174.792 4.13135 174.76 4.18925 174.712 4.23157C174.663 4.2739 174.601 4.29801 174.537 4.29978Z" fill="#3335CF"/>
<path d="M43.6313 11.5641H41.6625C41.6339 11.5644 41.6056 11.5585 41.5795 11.5469C41.5534 11.5352 41.5302 11.518 41.5114 11.4965C41.4926 11.475 41.4786 11.4497 41.4705 11.4223C41.4624 11.3949 41.4604 11.3661 41.4644 11.3378L41.7417 9.36899C41.7509 9.30594 41.7821 9.24815 41.8296 9.20574C41.8772 9.16333 41.9382 9.13901 42.0019 9.13703H43.9708C44.0002 9.13552 44.0296 9.1408 44.0566 9.15246C44.0837 9.16411 44.1077 9.18183 44.1269 9.20425C44.146 9.22666 44.1597 9.25318 44.167 9.28174C44.1743 9.31031 44.1749 9.34016 44.1688 9.36899L43.8915 11.3378C43.8811 11.3999 43.8494 11.4563 43.802 11.4976C43.7545 11.5389 43.6942 11.5624 43.6313 11.5641Z" fill="#3335CF"/>
<path d="M46.8788 11.5641H44.91C44.8814 11.5644 44.8532 11.5585 44.8271 11.5469C44.801 11.5352 44.7778 11.518 44.759 11.4965C44.7401 11.475 44.7262 11.4497 44.7181 11.4223C44.71 11.3949 44.7079 11.3661 44.712 11.3378L44.9892 9.36899C44.9985 9.30594 45.0296 9.24815 45.0772 9.20574C45.1248 9.16333 45.1858 9.13901 45.2495 9.13703H47.2409C47.2704 9.13552 47.2998 9.1408 47.3268 9.15246C47.3539 9.16411 47.3779 9.18183 47.3971 9.20425C47.4162 9.22666 47.4299 9.25318 47.4372 9.28174C47.4445 9.31031 47.4451 9.34016 47.439 9.36899L47.1617 11.3378C47.1507 11.4038 47.1157 11.4633 47.0635 11.5051C47.0113 11.5468 46.9456 11.5678 46.8788 11.5641Z" fill="#3335CF"/>
<path d="M50.1264 11.5641H48.1576C48.129 11.5644 48.1007 11.5585 48.0746 11.5469C48.0486 11.5352 48.0253 11.518 48.0065 11.4965C47.9877 11.475 47.9738 11.4497 47.9657 11.4223C47.9576 11.3949 47.9555 11.3661 47.9596 11.3378L48.2368 9.36899C48.246 9.30594 48.2772 9.24815 48.3248 9.20574C48.3723 9.16333 48.4333 9.13901 48.497 9.13703H50.4659C50.4953 9.13552 50.5247 9.1408 50.5518 9.15246C50.5788 9.16411 50.6029 9.18183 50.622 9.20425C50.6412 9.22666 50.6549 9.25318 50.6621 9.28174C50.6694 9.31031 50.67 9.34016 50.6639 9.36899L50.3867 11.3378C50.3762 11.3999 50.3445 11.4563 50.2971 11.4976C50.2496 11.5389 50.1893 11.5624 50.1264 11.5641Z" fill="#3335CF"/>
<path d="M191.295 58.4826C191.113 58.487 190.932 58.4509 190.765 58.377C190.599 58.3031 190.451 58.1932 190.332 58.0553C190.213 57.9174 190.126 57.7548 190.077 57.5792C190.028 57.4036 190.019 57.2195 190.05 57.0399C190.114 56.6442 190.314 56.2832 190.616 56.0189C190.917 55.7546 191.301 55.6035 191.702 55.5916C191.885 55.5869 192.066 55.623 192.233 55.6973C192.4 55.7715 192.548 55.8821 192.667 56.0208C192.785 56.1596 192.871 56.3231 192.919 56.4994C192.966 56.6757 192.974 56.8603 192.941 57.0399C192.881 57.436 192.683 57.7981 192.382 58.0622C192.08 58.3262 191.695 58.4751 191.295 58.4826ZM191.64 56.0216C191.359 56.0309 191.089 56.1376 190.878 56.3233C190.666 56.5089 190.526 56.7622 190.48 57.0399C190.457 57.1659 190.463 57.2954 190.497 57.4189C190.53 57.5424 190.591 57.6569 190.674 57.7539C190.758 57.851 190.862 57.9281 190.979 57.9798C191.096 58.0315 191.223 58.0564 191.351 58.0527C191.627 58.0383 191.89 57.93 192.096 57.7457C192.302 57.5615 192.438 57.3125 192.483 57.0399C192.505 56.9161 192.5 56.7888 192.468 56.6671C192.436 56.5454 192.378 56.4321 192.298 56.3352C192.218 56.2382 192.117 56.16 192.003 56.1058C191.89 56.0516 191.766 56.0229 191.64 56.0216Z" fill="#E9F8FF"/>
<path d="M192.726 85.9729C192.671 86.3086 192.501 86.6147 192.245 86.8387C191.989 87.0627 191.663 87.1906 191.323 87.2006C191.168 87.2057 191.013 87.1759 190.871 87.1135C190.728 87.051 190.602 86.9575 190.5 86.8397C190.399 86.722 190.325 86.583 190.284 86.433C190.244 86.283 190.237 86.1258 190.265 85.9729C190.319 85.6362 190.488 85.3288 190.745 85.1037C191.001 84.8785 191.327 84.7498 191.668 84.7396C191.824 84.7354 191.978 84.7659 192.121 84.8291C192.263 84.8922 192.389 84.9862 192.491 85.1044C192.592 85.2225 192.666 85.3618 192.706 85.5121C192.747 85.6623 192.754 85.8198 192.726 85.9729Z" fill="#9192FF"/>
<path d="M21.9629 122.125C21.9223 122.37 21.798 122.593 21.6112 122.756C21.4244 122.919 21.1868 123.012 20.9389 123.019C20.826 123.023 20.7138 123.001 20.6104 122.955C20.5071 122.91 20.4154 122.841 20.342 122.756C20.2686 122.67 20.2156 122.569 20.1867 122.459C20.1578 122.35 20.1538 122.236 20.1751 122.125C20.2145 121.881 20.3377 121.658 20.5235 121.495C20.7094 121.332 20.9463 121.238 21.1935 121.231C21.3062 121.229 21.4181 121.251 21.5211 121.297C21.6241 121.343 21.7156 121.411 21.7892 121.496C21.8628 121.582 21.9165 121.683 21.9465 121.791C21.9765 121.9 21.9822 122.014 21.9629 122.125Z" fill="#9192FF"/>
<path d="M61.8038 62.4995C61.7655 62.7441 61.6426 62.9676 61.4565 63.1309C61.2704 63.2942 61.0329 63.3871 60.7854 63.3934C60.6721 63.398 60.5592 63.3769 60.4551 63.3317C60.3511 63.2866 60.2586 63.2184 60.1846 63.1325C60.1106 63.0465 60.057 62.9449 60.0278 62.8353C59.9986 62.7257 59.9946 62.6109 60.016 62.4995C60.0553 62.2554 60.1785 62.0326 60.3644 61.8694C60.5502 61.7063 60.7872 61.613 61.0343 61.6056C61.1471 61.6031 61.2589 61.6256 61.3619 61.6715C61.4649 61.7174 61.5565 61.7855 61.6301 61.8709C61.7036 61.9564 61.7574 62.0571 61.7874 62.1658C61.8174 62.2744 61.823 62.3884 61.8038 62.4995Z" fill="#9192FF"/>
<path d="M111.806 0.656285C111.777 0.835407 111.687 0.998895 111.55 1.11866C111.414 1.23842 111.24 1.30698 111.059 1.31256C110.976 1.31363 110.895 1.29661 110.819 1.2627C110.744 1.22878 110.677 1.1788 110.623 1.11626C110.569 1.05372 110.53 0.980135 110.507 0.900672C110.485 0.821209 110.48 0.737794 110.493 0.656285C110.522 0.477163 110.612 0.313675 110.749 0.193912C110.885 0.0741478 111.059 0.005583 111.24 1.27315e-06C111.323 -0.00106363 111.404 0.0159603 111.48 0.0498731C111.555 0.0837858 111.622 0.133765 111.676 0.196307C111.73 0.258849 111.769 0.332436 111.792 0.411899C111.814 0.491362 111.819 0.574777 111.806 0.656285Z" fill="#9192FF"/>
<path d="M167.544 22.4776H165.281C165.227 22.4795 165.173 22.469 165.123 22.4471C165.073 22.4252 165.029 22.3924 164.994 22.3511C164.958 22.3098 164.933 22.2611 164.919 22.2086C164.905 22.156 164.903 22.101 164.913 22.0477C164.932 21.9311 164.991 21.8248 165.08 21.7473C165.168 21.6697 165.282 21.6259 165.4 21.6234H167.663C167.717 21.6217 167.77 21.632 167.819 21.6536C167.868 21.6752 167.912 21.7075 167.947 21.7481C167.983 21.7888 168.008 21.8367 168.023 21.8885C168.037 21.9403 168.04 21.9947 168.031 22.0477C168.011 22.1643 167.952 22.2707 167.864 22.349C167.775 22.4273 167.662 22.4728 167.544 22.4776Z" fill="#9192FF"/>
<path d="M166.249 23.6092C166.194 23.611 166.14 23.6006 166.091 23.5787C166.041 23.5567 165.997 23.5239 165.961 23.4826C165.926 23.4413 165.901 23.3926 165.887 23.3401C165.873 23.2876 165.871 23.2326 165.881 23.1792L166.198 20.9162C166.217 20.7986 166.277 20.6915 166.367 20.613C166.457 20.5346 166.571 20.4898 166.69 20.4862C166.744 20.4852 166.797 20.4963 166.846 20.5186C166.895 20.5408 166.939 20.5738 166.973 20.615C167.008 20.6562 167.033 20.7046 167.047 20.7567C167.06 20.8088 167.062 20.8633 167.052 20.9162L166.735 23.1792C166.716 23.2958 166.657 23.4023 166.568 23.4806C166.48 23.5589 166.367 23.6043 166.249 23.6092Z" fill="#9192FF"/>
<path d="M172.41 110.815H170.147C170.092 110.817 170.038 110.807 169.989 110.785C169.939 110.763 169.895 110.73 169.859 110.689C169.824 110.648 169.798 110.599 169.785 110.546C169.771 110.494 169.769 110.439 169.779 110.385C169.797 110.269 169.856 110.163 169.945 110.085C170.034 110.008 170.148 109.964 170.265 109.961H172.529C172.582 109.96 172.636 109.97 172.685 109.991C172.734 110.013 172.778 110.045 172.813 110.086C172.848 110.127 172.874 110.175 172.888 110.226C172.903 110.278 172.905 110.333 172.896 110.385C172.878 110.503 172.819 110.61 172.73 110.688C172.642 110.767 172.528 110.812 172.41 110.815Z" fill="#9192FF"/>
<path d="M171.142 111.953C171.088 111.954 171.035 111.944 170.986 111.922C170.937 111.901 170.893 111.868 170.857 111.828C170.822 111.787 170.797 111.739 170.782 111.687C170.768 111.636 170.765 111.581 170.774 111.528L171.091 109.265C171.111 109.149 171.17 109.042 171.258 108.964C171.347 108.886 171.46 108.84 171.578 108.835C171.632 108.833 171.686 108.844 171.736 108.866C171.786 108.888 171.83 108.921 171.865 108.962C171.9 109.003 171.926 109.052 171.94 109.104C171.954 109.157 171.956 109.212 171.946 109.265L171.629 111.528C171.608 111.644 171.549 111.749 171.46 111.826C171.372 111.903 171.26 111.948 171.142 111.953Z" fill="#9192FF"/>
<path d="M94.6744 6.47796H92.4113C92.357 6.47978 92.303 6.46935 92.2532 6.44744C92.2035 6.42554 92.1594 6.39272 92.124 6.35142C92.0887 6.31012 92.0631 6.2614 92.0492 6.20888C92.0353 6.15635 92.0334 6.10136 92.0436 6.04799C92.0631 5.93192 92.1223 5.82622 92.211 5.74886C92.2997 5.6715 92.4125 5.62726 92.5301 5.62367H94.7932C94.8472 5.62094 94.9012 5.63056 94.9509 5.65179C95.0007 5.67302 95.045 5.70531 95.0804 5.7462C95.1159 5.78709 95.1416 5.83553 95.1555 5.88781C95.1694 5.9401 95.1713 5.99488 95.1609 6.04799C95.1415 6.16463 95.0826 6.27105 94.994 6.34935C94.9054 6.42765 94.7925 6.47306 94.6744 6.47796Z" fill="#9192FF"/>
<path d="M93.3732 7.61512C93.3189 7.61694 93.2649 7.60651 93.2151 7.5846C93.1654 7.5627 93.1212 7.52988 93.0859 7.48858C93.0506 7.44728 93.025 7.39856 93.0111 7.34604C92.9972 7.29351 92.9953 7.23852 93.0055 7.18515L93.328 4.92211C93.3463 4.80501 93.405 4.69799 93.4938 4.6195C93.5826 4.54101 93.696 4.49597 93.8145 4.49213C93.8688 4.49031 93.9229 4.50073 93.9726 4.52264C94.0223 4.54454 94.0665 4.57736 94.1018 4.61866C94.1371 4.65996 94.1627 4.70869 94.1766 4.76122C94.1906 4.81374 94.1925 4.86873 94.1823 4.92211L93.8598 7.18515C93.8414 7.30224 93.7828 7.40926 93.6939 7.48775C93.6051 7.56624 93.4917 7.61129 93.3732 7.61512Z" fill="#9192FF"/>
<path d="M52.3613 54.9183H50.0983C50.0445 54.92 49.9911 54.9096 49.9418 54.8881C49.8926 54.8665 49.8488 54.8342 49.8136 54.7936C49.7783 54.7529 49.7526 54.705 49.7383 54.6532C49.7239 54.6013 49.7212 54.547 49.7305 54.494C49.7489 54.3769 49.8075 54.2699 49.8964 54.1914C49.9852 54.1129 50.0986 54.0679 50.2171 54.064H52.4801C52.5341 54.0633 52.5876 54.0744 52.6369 54.0966C52.6861 54.1189 52.7298 54.1517 52.7649 54.1927C52.8 54.2338 52.8256 54.2821 52.84 54.3341C52.8543 54.3862 52.857 54.4408 52.8479 54.494C52.8273 54.6096 52.7678 54.7147 52.6793 54.7919C52.5908 54.8691 52.4786 54.9137 52.3613 54.9183Z" fill="#9192FF"/>
<path d="M51.0656 56.0612C51.0113 56.063 50.9573 56.0526 50.9075 56.0307C50.8578 56.0088 50.8136 55.9759 50.7783 55.9346C50.743 55.8933 50.7174 55.8446 50.7035 55.7921C50.6896 55.7396 50.6876 55.6846 50.6979 55.6312L51.0147 53.3682C51.0355 53.2516 51.0957 53.1458 51.1854 53.0685C51.275 52.9912 51.3886 52.9472 51.5069 52.9438C51.5602 52.943 51.613 52.954 51.6615 52.976C51.7101 52.9979 51.7532 53.0303 51.7877 53.0708C51.8223 53.1114 51.8475 53.159 51.8616 53.2104C51.8756 53.2618 51.8782 53.3157 51.869 53.3682L51.5522 55.6312C51.5328 55.7478 51.4738 55.8543 51.3852 55.9326C51.2966 56.0109 51.1838 56.0563 51.0656 56.0612Z" fill="#9192FF"/>
<path d="M43.0659 139.59H42.4492C42.4492 139.454 42.5001 126.136 46.7433 117.763L47.3091 118.046C43.1168 126.306 43.0659 139.477 43.0659 139.59Z" fill="#E0E0E0"/>
<path d="M37.6232 132.999C36.9952 124.314 31.2075 118.17 31.1509 118.091L31.5978 117.661C31.6601 117.723 37.6006 124.015 38.2455 132.937L37.6232 132.999Z" fill="#E0E0E0"/>
<path d="M40.8028 137.989H40.1861C40.1861 137.847 40.6613 124.043 35.0942 111.568L35.66 111.313C41.2893 123.907 40.8084 137.847 40.8028 137.989Z" fill="#EBEBEB"/>
<path d="M41.4247 139.058L42.0414 138.99C42.0414 138.849 40.5082 125.124 45.1418 112.258L44.576 112.049C39.8859 125.05 41.4077 138.922 41.4247 139.058Z" fill="#EBEBEB"/>
<path d="M35.2299 149.7H46.4037L49.2891 132.077C49.3211 131.881 49.3101 131.68 49.2568 131.489C49.2036 131.298 49.1094 131.12 48.9808 130.969C48.8521 130.818 48.6921 130.696 48.5119 130.613C48.3316 130.53 48.1355 130.487 47.9369 130.487H33.6911C33.493 130.488 33.2974 130.531 33.1179 130.615C32.9383 130.698 32.7791 130.82 32.651 130.971C32.523 131.122 32.4293 131.299 32.3764 131.49C32.3235 131.681 32.3126 131.881 32.3446 132.077L35.2299 149.7Z" fill="#EBEBEB"/>
<path d="M35.7616 124.733C35.7616 124.733 36.4971 122.64 35.8069 119.234C35.0941 115.709 30.4152 108.094 23.6431 107.653C25.0018 109.856 26.186 112.162 27.1847 114.549C28.8763 118.979 31.3996 123.647 35.7616 124.733Z" fill="#E0E0E0"/>
<path d="M29.25 101.826C29.25 101.826 31.4847 111.189 33.3235 115.172C35.2584 119.364 39.2696 124.394 39.2696 124.394C40.4873 120.976 40.5746 117.257 39.5185 113.786C37.4875 107.444 29.25 101.826 29.25 101.826Z" fill="#EBEBEB"/>
<path d="M54.2733 104.558C54.2733 104.558 52.0725 113.373 50.2338 117.361C48.9047 120.064 47.0259 122.459 44.7176 124.394C44.7176 124.394 42.6017 120.614 44.4008 115.008C46.4319 108.66 54.2733 104.558 54.2733 104.558Z" fill="#E0E0E0"/>
<path d="M43.3714 117.101C41.8689 114.444 41.4629 111.306 42.2399 108.354C44.0786 101 51.0714 96.4055 51.0714 96.4055C51.0714 96.4055 51.5806 102.669 49.5212 108.287C46.9527 115.375 43.3714 117.101 43.3714 117.101Z" fill="#EBEBEB"/>
<path d="M159.227 26.8566L159.188 26.8284L154.996 23.7167L154.894 25.3178C154.713 25.3178 154.537 25.3178 154.328 25.3178H113.242C108.241 25.3178 103.624 29.3743 102.912 34.3699L89.8595 127.228C89.6712 128.482 89.7699 129.763 90.1481 130.973L87.687 130.855L92.6714 134.64L92.892 134.804L93.0108 134.894C94.3738 135.829 95.9918 136.321 97.6444 136.303H138.724C143.726 136.303 148.342 132.246 149.055 127.251L162.09 34.3247C162.329 32.9375 162.19 31.5114 161.686 30.1969C161.182 28.8825 160.333 27.7285 159.227 26.8566Z" fill="#FF6C37"/>
<path d="M134.396 133.067H93.3107C88.3094 133.067 84.8243 129.016 85.5258 124.015L98.5836 31.1112C99.2851 26.1098 103.907 22.059 108.914 22.059H149.994C154.996 22.059 158.481 26.1155 157.779 31.1112L144.721 124.015C144.02 129.016 139.398 133.067 134.396 133.067Z" fill="#FFAC8E"/>
<path d="M155.488 31.6373L142.566 123.59C142.247 125.576 141.245 127.388 139.733 128.714C138.221 130.04 136.293 130.797 134.283 130.855H94.0406C90.0294 130.855 87.2515 127.602 87.8173 123.59L100.745 31.6373C101.064 29.6532 102.065 27.8426 103.576 26.5175C105.087 25.1925 107.013 24.4361 109.022 24.3786H115.856C116.127 24.3706 116.395 24.4432 116.624 24.5873C116.854 24.7313 117.035 24.9402 117.146 25.1876L118.097 27.3771C118.271 27.7637 118.556 28.0901 118.915 28.3155C119.275 28.5409 119.693 28.6553 120.117 28.6444H136.97C137.438 28.6331 137.896 28.5126 138.309 28.2925C138.721 28.0725 139.077 27.759 139.347 27.3771L140.92 25.1876C141.09 24.9433 141.315 24.7426 141.578 24.602C141.84 24.4614 142.132 24.3849 142.43 24.3786H149.247C153.259 24.3786 156.054 27.6261 155.488 31.6373Z" fill="white"/>
<path d="M133.304 26.7831H121.548C121.449 26.7866 121.35 26.7676 121.259 26.7276C121.167 26.6876 121.087 26.6276 121.022 26.552C120.957 26.4765 120.91 26.3873 120.885 26.2912C120.859 26.195 120.856 26.0944 120.875 25.9967C120.908 25.7816 121.015 25.585 121.179 25.4412C121.342 25.2974 121.551 25.2157 121.769 25.2103H133.531C133.63 25.2079 133.728 25.2275 133.819 25.2679C133.909 25.3082 133.99 25.3682 134.054 25.4435C134.119 25.5188 134.166 25.6075 134.191 25.7032C134.217 25.7989 134.222 25.8991 134.204 25.9967C134.169 26.2118 134.06 26.4079 133.895 26.5514C133.731 26.6949 133.522 26.7768 133.304 26.7831Z" fill="#FF6C37"/>
<path d="M136.931 25.9967C136.896 26.2118 136.786 26.4079 136.622 26.5514C136.458 26.6949 136.249 26.7768 136.031 26.7831C135.932 26.7866 135.833 26.7676 135.742 26.7276C135.651 26.6876 135.57 26.6276 135.505 26.552C135.441 26.4765 135.394 26.3873 135.368 26.2912C135.343 26.195 135.339 26.0944 135.358 25.9967C135.391 25.7816 135.499 25.5849 135.662 25.4412C135.826 25.2974 136.034 25.2157 136.252 25.2103C136.351 25.208 136.45 25.2278 136.541 25.2681C136.631 25.3084 136.712 25.3682 136.777 25.4434C136.842 25.5186 136.889 25.6071 136.916 25.7028C136.942 25.7984 136.948 25.8988 136.931 25.9967Z" fill="#FF6C37"/>
<path d="M158.662 40.5424L158.775 40.3217L157.994 40.599C157.777 40.6807 157.585 40.8185 157.438 40.9983C157.291 41.1782 157.194 41.3937 157.157 41.623L155.573 52.876C155.546 53.0329 155.554 53.1939 155.597 53.3473C155.64 53.5007 155.716 53.6426 155.821 53.7627C155.925 53.8829 156.055 53.9784 156.201 54.0423C156.347 54.1061 156.505 54.1367 156.664 54.1319C156.789 54.1287 156.913 54.1078 157.032 54.0697L157.751 53.8151L157.524 53.7755C157.744 53.5845 157.888 53.3219 157.932 53.0344L159.516 41.7701C159.564 41.4942 159.501 41.2106 159.341 40.9807C159.181 40.7509 158.937 40.5934 158.662 40.5424Z" fill="#E24B33"/>
<path d="M157.383 53.883C157.224 53.8869 157.065 53.8555 156.919 53.791C156.774 53.7265 156.644 53.6305 156.539 53.5099C156.435 53.3893 156.359 53.2471 156.316 53.0934C156.273 52.9398 156.264 52.7786 156.291 52.6214L157.875 41.3684C157.926 41.0653 158.081 40.7895 158.314 40.5882C158.546 40.3869 158.841 40.2727 159.148 40.2652C159.307 40.2604 159.466 40.291 159.612 40.3548C159.758 40.4187 159.887 40.5142 159.992 40.6343C160.096 40.7545 160.173 40.8964 160.216 41.0498C160.259 41.2032 160.267 41.3642 160.24 41.5211L158.656 52.7798C158.605 53.0828 158.45 53.3587 158.218 53.56C157.985 53.7612 157.69 53.8755 157.383 53.883Z" fill="#E83E0A"/>
<path d="M156.433 55.6878L156.546 55.4728L155.765 55.75C155.547 55.83 155.354 55.9664 155.206 56.1453C155.058 56.3242 154.96 56.5392 154.922 56.7684L153.338 68.027C153.311 68.1845 153.32 68.346 153.363 68.4998C153.406 68.6535 153.483 68.7958 153.588 68.9161C153.693 69.0364 153.824 69.1317 153.971 69.1952C154.117 69.2587 154.276 69.2887 154.436 69.283C154.559 69.2803 154.682 69.2574 154.798 69.2151L155.516 68.9662L155.29 68.9266C155.508 68.7323 155.652 68.4683 155.697 68.1798L157.282 56.9211C157.33 56.6454 157.268 56.3618 157.109 56.1312C156.95 55.9006 156.708 55.7414 156.433 55.6878Z" fill="#E24B33"/>
<path d="M155.166 69.0284C155.006 69.0343 154.847 69.0043 154.701 68.9408C154.554 68.8773 154.424 68.7818 154.319 68.6614C154.215 68.5409 154.138 68.3986 154.096 68.2448C154.053 68.0909 154.046 67.9295 154.074 67.7724L155.652 56.5194C155.703 56.2164 155.858 55.9405 156.091 55.7393C156.323 55.538 156.618 55.4238 156.925 55.4162C157.084 55.4114 157.243 55.442 157.388 55.5059C157.534 55.5697 157.664 55.6652 157.769 55.7854C157.873 55.9056 157.95 56.0475 157.993 56.2009C158.036 56.3542 158.044 56.5152 158.017 56.6722L156.433 67.9308C156.383 68.2329 156.229 68.5079 155.997 68.7083C155.766 68.9087 155.472 69.022 155.166 69.0284Z" fill="#E83E0A"/>
<path d="M147.528 48.033H103.778C103.548 48.0391 103.321 47.9941 103.111 47.9012C102.901 47.8083 102.715 47.6699 102.565 47.496C102.416 47.3221 102.307 47.1171 102.246 46.8959C102.186 46.6746 102.176 46.4427 102.216 46.217L103.993 33.5779C104.073 33.0816 104.323 32.6287 104.701 32.2972C105.079 31.9658 105.561 31.7764 106.063 31.7618H149.813C150.043 31.7546 150.271 31.7989 150.481 31.8915C150.692 31.984 150.879 32.1225 151.028 32.2966C151.178 32.4708 151.287 32.6762 151.347 32.8979C151.407 33.1196 151.416 33.352 151.375 33.5779L149.598 46.2396C149.514 46.7317 149.261 47.1793 148.884 47.5063C148.506 47.8332 148.027 48.0194 147.528 48.033V48.033Z" stroke="#FF6C37" stroke-width="0.8513" stroke-miterlimit="10"/>
<path d="M136.631 124.054H92.8581C92.6289 124.06 92.4011 124.015 92.1914 123.922C91.9817 123.83 91.7954 123.691 91.6458 123.517C91.4963 123.343 91.3874 123.138 91.327 122.917C91.2666 122.696 91.2562 122.464 91.2966 122.238L93.0674 109.605C93.1475 109.108 93.3981 108.656 93.776 108.324C94.154 107.993 94.6356 107.803 95.1381 107.789H138.894C139.124 107.781 139.352 107.826 139.562 107.918C139.772 108.011 139.959 108.149 140.109 108.323C140.259 108.498 140.367 108.703 140.427 108.925C140.487 109.147 140.497 109.379 140.456 109.605L138.679 122.244C138.599 122.735 138.351 123.184 137.978 123.514C137.604 123.844 137.129 124.035 136.631 124.054Z" fill="#FFAC8E"/>
<path d="M135.03 89.7013H134.934L135.109 88.4792C135.19 88.0262 135.169 87.5609 135.047 87.1171C134.926 86.6732 134.707 86.2619 134.407 85.9131C134.107 85.5643 133.733 85.2866 133.312 85.1003C132.892 84.9139 132.435 84.8236 131.975 84.8357C130.967 84.8672 130.002 85.2479 129.245 85.9125C128.487 86.5772 127.984 87.4846 127.822 88.4792L127.652 89.7013C127.369 89.7096 127.098 89.8164 126.885 90.0034C126.672 90.1903 126.532 90.4456 126.487 90.7253L125.836 95.3306C125.814 95.4576 125.819 95.588 125.853 95.7125C125.887 95.8369 125.948 95.9523 126.032 96.0503C126.116 96.1482 126.221 96.2264 126.339 96.279C126.456 96.3316 126.584 96.3574 126.713 96.3546H134.136C134.419 96.3452 134.69 96.238 134.902 96.0513C135.115 95.8645 135.256 95.6098 135.301 95.3306L135.946 90.7253C135.971 90.5947 135.965 90.4602 135.93 90.3322C135.894 90.2042 135.83 90.0861 135.741 89.9871C135.652 89.8881 135.542 89.8108 135.419 89.7612C135.295 89.7116 135.162 89.6911 135.03 89.7013ZM128.71 88.4792C128.832 87.7358 129.208 87.0578 129.775 86.5613C130.342 86.0648 131.063 85.7808 131.816 85.7579C132.16 85.7492 132.501 85.817 132.814 85.9563C133.128 86.0957 133.407 86.3032 133.631 86.5637C133.855 86.8243 134.017 87.1313 134.108 87.4626C134.198 87.7939 134.214 88.1412 134.153 88.4792L133.978 89.7013H128.541L128.71 88.4792Z" fill="#FF6C37"/>
<path d="M132.184 92.0662C132.209 91.8996 132.191 91.7296 132.134 91.5715C132.076 91.4133 131.98 91.2718 131.855 91.1597C131.729 91.0476 131.578 90.9684 131.414 90.9291C131.251 90.8898 131.08 90.8917 130.917 90.9346C130.681 90.9856 130.461 91.096 130.279 91.2554C130.097 91.4147 129.958 91.6178 129.876 91.8455C129.781 92.0695 129.766 92.3196 129.836 92.553C129.905 92.7864 130.053 92.9883 130.255 93.1241C130.294 93.1478 130.324 93.1851 130.337 93.2289C130.351 93.2727 130.348 93.32 130.329 93.3618L130.018 94.1255C129.968 94.2209 129.945 94.3274 129.949 94.4347C129.954 94.5419 129.986 94.6461 130.043 94.737C130.101 94.8278 130.18 94.9022 130.275 94.9527C130.37 95.0033 130.476 95.0282 130.583 95.0251C130.697 95.0231 130.809 94.9979 130.913 94.9509C131.016 94.9039 131.109 94.8361 131.186 94.7518C131.262 94.6675 131.32 94.5684 131.357 94.4607C131.393 94.353 131.407 94.2389 131.398 94.1255L131.302 93.3731C131.3 93.3232 131.312 93.2738 131.337 93.2307C131.362 93.1875 131.399 93.1525 131.443 93.1298C131.643 93.0248 131.815 92.8734 131.943 92.6883C132.072 92.5032 132.155 92.2898 132.184 92.0662Z" fill="white"/>
<path d="M134.453 97.9727H125.882C125.826 97.9736 125.771 97.9622 125.721 97.9394C125.671 97.9165 125.626 97.8828 125.59 97.8405C125.555 97.7983 125.529 97.7487 125.514 97.6952C125.5 97.6417 125.498 97.5858 125.508 97.5314C125.528 97.4123 125.588 97.3038 125.679 97.2243C125.77 97.1448 125.885 97.0994 126.006 97.0958H134.589C134.644 97.0942 134.699 97.1048 134.749 97.127C134.8 97.1491 134.845 97.1822 134.881 97.2239C134.917 97.2656 134.944 97.3148 134.959 97.3679C134.974 97.4211 134.977 97.4769 134.968 97.5314C134.948 97.6539 134.885 97.7653 134.791 97.846C134.697 97.9268 134.577 97.9716 134.453 97.9727Z" fill="#FF6C37"/>
<path d="M134.243 99.455H125.655C125.6 99.4568 125.545 99.4462 125.495 99.424C125.445 99.4018 125.4 99.3686 125.364 99.3268C125.328 99.2849 125.302 99.2356 125.288 99.1824C125.274 99.1292 125.272 99.0735 125.282 99.0193C125.3 98.8992 125.36 98.7894 125.451 98.7088C125.542 98.6282 125.658 98.5819 125.78 98.5781H134.368C134.423 98.5771 134.478 98.5885 134.528 98.6114C134.579 98.6342 134.623 98.668 134.659 98.7102C134.695 98.7524 134.721 98.8021 134.735 98.8555C134.749 98.909 134.751 98.965 134.741 99.0193C134.722 99.1384 134.661 99.247 134.57 99.3264C134.48 99.4059 134.364 99.4513 134.243 99.455Z" fill="#FF6C37"/>
<path d="M139.137 103.8H119.845C119.616 103.807 119.389 103.763 119.179 103.671C118.97 103.578 118.783 103.44 118.634 103.267C118.485 103.093 118.376 102.888 118.317 102.667C118.257 102.446 118.248 102.215 118.289 101.99L120.999 82.6972C121.078 82.2019 121.328 81.7499 121.705 81.4192C122.082 81.0886 122.563 80.9003 123.064 80.8867H142.357C142.585 80.8795 142.813 80.9237 143.022 81.016C143.232 81.1082 143.418 81.2462 143.567 81.4199C143.717 81.5935 143.825 81.7984 143.885 82.0194C143.944 82.2404 143.954 82.472 143.912 82.6972L141.197 101.99C141.119 102.484 140.87 102.936 140.494 103.267C140.118 103.598 139.638 103.786 139.137 103.8V103.8Z" stroke="#FF6C37" stroke-width="0.8513" stroke-miterlimit="10"/>
<path d="M122.193 56.8702L121.124 56.0385L120.79 56.6552H103.121C102.764 56.6641 102.421 56.7981 102.152 57.0338C101.883 57.2695 101.706 57.592 101.65 57.9452L99.3872 74.1598L98.4819 74.4993L99.7379 75.495C99.9415 75.6584 100.195 75.7464 100.456 75.744H118.849C119.206 75.7329 119.548 75.5982 119.816 75.3629C120.085 75.1275 120.263 74.8063 120.32 74.454L122.64 57.9508C122.671 57.7471 122.646 57.5387 122.567 57.3483C122.488 57.1579 122.359 56.9925 122.193 56.8702Z" fill="#FF6C37"/>
<path d="M121.463 57.0399L119.143 73.5375C119.088 73.8897 118.911 74.2115 118.644 74.4471C118.376 74.6827 118.034 74.8172 117.678 74.8274H99.2908C99.1261 74.8351 98.9619 74.8056 98.8102 74.7411C98.6585 74.6766 98.5232 74.5788 98.4145 74.4548C98.3058 74.3309 98.2265 74.1841 98.1823 74.0253C98.1381 73.8665 98.1302 73.6998 98.1593 73.5375L100.479 57.0399C100.535 56.6872 100.713 56.3654 100.982 56.1299C101.25 55.8943 101.593 55.76 101.95 55.75H120.348C120.512 55.7439 120.675 55.7746 120.825 55.8399C120.975 55.9052 121.108 56.0034 121.215 56.1273C121.323 56.2511 121.4 56.3974 121.443 56.5554C121.486 56.7134 121.493 56.879 121.463 57.0399Z" fill="#FFAC8E"/>
<path d="M110.233 74.8274H99.2908C99.1261 74.8351 98.9619 74.8056 98.8102 74.7411C98.6585 74.6766 98.5232 74.5788 98.4145 74.4548C98.3058 74.3309 98.2265 74.1841 98.1823 74.0253C98.1381 73.8665 98.1302 73.6998 98.1593 73.5375L99.387 64.8304L102.216 60.8701C102.742 60.1346 103.8 60.1346 104.117 60.8701L108.926 71.8742L110.233 74.8274Z" fill="white"/>
<path d="M119.308 72.3777L119.143 73.5375C119.088 73.8897 118.911 74.2115 118.644 74.4471C118.376 74.6827 118.035 74.8172 117.678 74.8274H106.833L108.948 71.8798L114.069 64.7399C114.595 64.0101 115.653 64.0101 115.975 64.7399L119.308 72.3777Z" fill="white"/>
<path d="M118.329 59.7669C118.209 60.5143 117.832 61.1964 117.263 61.6953C116.694 62.1943 115.968 62.4787 115.211 62.4995C114.866 62.5093 114.523 62.4419 114.208 62.3023C113.892 62.1627 113.611 61.9544 113.386 61.6925C113.161 61.4307 112.998 61.122 112.907 60.7888C112.817 60.4557 112.802 60.1066 112.863 59.7669C112.985 59.021 113.363 58.3409 113.932 57.8432C114.501 57.3456 115.225 57.0616 115.981 57.0399C116.326 57.0293 116.668 57.0959 116.984 57.2349C117.3 57.3738 117.581 57.5816 117.806 57.843C118.031 58.1044 118.194 58.4129 118.285 58.7457C118.375 59.0786 118.39 59.4275 118.329 59.7669Z" fill="white"/>
<path d="M144.999 73.6903H131.013C130.931 73.6912 130.85 73.6743 130.775 73.6407C130.7 73.6071 130.634 73.5577 130.58 73.4958C130.526 73.4339 130.486 73.3611 130.463 73.2823C130.44 73.2035 130.435 73.1207 130.447 73.0396C130.476 72.8605 130.566 72.697 130.703 72.5773C130.839 72.4575 131.013 72.389 131.194 72.3834H145.18C145.262 72.3823 145.344 72.3993 145.419 72.4332C145.495 72.4671 145.562 72.5171 145.616 72.5797C145.669 72.6422 145.709 72.7158 145.731 72.7953C145.754 72.8747 145.759 72.9581 145.745 73.0396C145.718 73.2187 145.627 73.3821 145.491 73.5011C145.354 73.6201 145.18 73.6871 144.999 73.6903Z" fill="#FFAC8E"/>
<path d="M125.152 70.8219H140.088C140.268 70.8165 140.441 70.7488 140.578 70.6301C140.714 70.5115 140.805 70.3493 140.835 70.1712C140.848 70.0897 140.843 70.0063 140.821 69.9269C140.798 69.8474 140.759 69.7738 140.705 69.7113C140.651 69.6487 140.584 69.5987 140.508 69.5648C140.433 69.5309 140.351 69.5139 140.269 69.515H125.316C125.134 69.5205 124.961 69.5891 124.824 69.7089C124.688 69.8286 124.598 69.9921 124.569 70.1712C124.556 70.2538 124.562 70.3381 124.586 70.4181C124.61 70.4981 124.651 70.5719 124.707 70.6341C124.763 70.6962 124.831 70.7453 124.908 70.7778C124.985 70.8103 125.068 70.8253 125.152 70.8219Z" fill="#FFAC8E"/>
<path d="M137.361 59.3879H126.759C126.676 59.3889 126.594 59.3719 126.519 59.338C126.444 59.3041 126.377 59.2541 126.323 59.1915C126.269 59.129 126.229 59.0554 126.207 58.976C126.184 58.8965 126.18 58.8131 126.193 58.7316C126.223 58.5535 126.314 58.3913 126.45 58.2727C126.586 58.154 126.759 58.0863 126.94 58.0809H137.536C137.618 58.08 137.7 58.0969 137.774 58.1305C137.849 58.1641 137.916 58.2135 137.97 58.2754C138.023 58.3373 138.063 58.4102 138.086 58.4889C138.109 58.5677 138.114 58.6505 138.102 58.7316C138.074 58.9102 137.985 59.0736 137.85 59.1934C137.715 59.3133 137.542 59.3821 137.361 59.3879Z" fill="#FFAC8E"/>
<path d="M130.351 62.2563H126.357C126.275 62.2572 126.194 62.2403 126.119 62.2067C126.044 62.1731 125.977 62.1237 125.924 62.0618C125.87 61.9999 125.83 61.927 125.807 61.8483C125.784 61.7695 125.779 61.6867 125.791 61.6056C125.82 61.4274 125.909 61.2647 126.044 61.145C126.179 61.0254 126.352 60.9562 126.532 60.9494H130.526C130.609 60.9483 130.691 60.9653 130.766 60.9992C130.841 61.0331 130.908 61.0831 130.962 61.1457C131.016 61.2082 131.056 61.2818 131.078 61.3613C131.101 61.4407 131.105 61.5241 131.092 61.6056C131.062 61.7828 130.972 61.9443 130.837 62.0628C130.702 62.1813 130.531 62.2496 130.351 62.2563Z" fill="#FFAC8E"/>
<path d="M146.606 62.2563H132.62C132.538 62.2572 132.457 62.2403 132.382 62.2067C132.307 62.1731 132.24 62.1237 132.187 62.0618C132.133 61.9999 132.093 61.927 132.07 61.8483C132.047 61.7695 132.042 61.6867 132.054 61.6056C132.081 61.4265 132.17 61.2625 132.305 61.1425C132.441 61.0224 132.614 60.9541 132.795 60.9494H146.815C146.898 60.9483 146.979 60.9653 147.055 60.9992C147.13 61.0331 147.197 61.0831 147.251 61.1457C147.305 61.2082 147.344 61.2818 147.367 61.3613C147.389 61.4407 147.394 61.5241 147.381 61.6056C147.352 61.7895 147.258 61.9567 147.115 62.0763C146.973 62.1959 146.792 62.2599 146.606 62.2563Z" fill="#FFAC8E"/>
<path d="M147.007 59.3879H139.737C139.655 59.3889 139.573 59.3719 139.497 59.338C139.422 59.3041 139.355 59.2541 139.301 59.1915C139.247 59.129 139.208 59.0554 139.185 58.976C139.163 58.8965 139.158 58.8131 139.171 58.7316C139.201 58.5535 139.292 58.3913 139.428 58.2727C139.565 58.154 139.738 58.0863 139.918 58.0809H147.188C147.27 58.08 147.351 58.0969 147.426 58.1305C147.501 58.1641 147.568 58.2135 147.622 58.2754C147.675 58.3373 147.715 58.4102 147.738 58.4889C147.761 58.5677 147.766 58.6505 147.754 58.7316C147.725 58.9107 147.635 59.0742 147.499 59.1939C147.362 59.3137 147.188 59.3823 147.007 59.3879Z" fill="#FFAC8E"/>
<path d="M126.657 65.1247H125.955C125.873 65.1256 125.792 65.1087 125.717 65.0751C125.642 65.0415 125.575 64.9921 125.522 64.9302C125.468 64.8683 125.428 64.7954 125.405 64.7167C125.382 64.6379 125.377 64.5551 125.389 64.474C125.418 64.2949 125.508 64.1314 125.645 64.0117C125.781 63.8919 125.955 63.8233 126.136 63.8178H126.838C126.92 63.8167 127.002 63.8337 127.077 63.8676C127.153 63.9015 127.219 63.9515 127.273 64.0141C127.327 64.0766 127.367 64.1502 127.389 64.2297C127.412 64.3091 127.417 64.3925 127.403 64.474C127.374 64.6526 127.284 64.8154 127.147 64.9342C127.011 65.053 126.837 65.1204 126.657 65.1247Z" fill="#FFAC8E"/>
<path d="M136.716 65.1247H128.795C128.713 65.1256 128.632 65.1087 128.557 65.0751C128.482 65.0415 128.416 64.9921 128.362 64.9302C128.308 64.8683 128.268 64.7954 128.246 64.7167C128.223 64.6379 128.217 64.5551 128.23 64.474C128.258 64.2958 128.348 64.1331 128.483 64.0134C128.618 63.8938 128.79 63.8246 128.971 63.8178H136.891C136.974 63.8167 137.056 63.8337 137.131 63.8676C137.206 63.9015 137.273 63.9515 137.327 64.0141C137.381 64.0766 137.421 64.1502 137.443 64.2297C137.466 64.3091 137.47 64.3925 137.457 64.474C137.428 64.6517 137.339 64.8137 137.203 64.9324C137.068 65.0511 136.896 65.1191 136.716 65.1247Z" fill="#FFAC8E"/>
<path d="M129.542 67.9987H125.548C125.465 67.9998 125.383 67.9828 125.308 67.9489C125.233 67.9149 125.166 67.865 125.112 67.8024C125.058 67.7399 125.018 67.6663 124.996 67.5868C124.973 67.5074 124.969 67.4239 124.982 67.3424C125.011 67.1639 125.101 67.0011 125.238 66.8823C125.374 66.7635 125.548 66.6961 125.729 66.6918H129.689C129.771 66.6909 129.852 66.7078 129.927 66.7414C130.002 66.775 130.069 66.8244 130.122 66.8863C130.176 66.9482 130.216 67.021 130.239 67.0998C130.262 67.1786 130.267 67.2614 130.255 67.3424C130.227 67.5161 130.142 67.6754 130.012 67.7945C129.883 67.9137 129.717 67.9856 129.542 67.9987Z" fill="#FFAC8E"/>
<path d="M145.796 67.9987H131.811C131.728 67.9998 131.646 67.9828 131.571 67.9489C131.496 67.9149 131.429 67.865 131.375 67.8024C131.321 67.7399 131.282 67.6663 131.259 67.5868C131.237 67.5074 131.232 67.4239 131.245 67.3424C131.274 67.1639 131.365 67.0011 131.501 66.8823C131.637 66.7635 131.811 66.6961 131.992 66.6918H145.978C146.06 66.6909 146.141 66.7078 146.216 66.7414C146.29 66.775 146.357 66.8244 146.411 66.8863C146.465 66.9482 146.504 67.021 146.527 67.0998C146.55 67.1786 146.556 67.2614 146.543 67.3424C146.514 67.5216 146.424 67.685 146.288 67.8048C146.152 67.9246 145.978 67.9931 145.796 67.9987Z" fill="#FFAC8E"/>
<path d="M146.204 65.1247H138.933C138.851 65.1256 138.77 65.1087 138.695 65.0751C138.621 65.0415 138.554 64.9921 138.5 64.9302C138.446 64.8683 138.407 64.7954 138.384 64.7167C138.361 64.6379 138.355 64.5551 138.368 64.474C138.397 64.2949 138.487 64.1314 138.623 64.0117C138.759 63.8919 138.933 63.8233 139.115 63.8178H146.385C146.467 63.8167 146.549 63.8337 146.624 63.8676C146.699 63.9015 146.766 63.9515 146.82 64.0141C146.874 64.0766 146.914 64.1502 146.936 64.2297C146.959 64.3091 146.964 64.3925 146.95 64.474C146.921 64.6526 146.831 64.8154 146.694 64.9342C146.558 65.053 146.384 65.1204 146.204 65.1247Z" fill="#FFAC8E"/>
<path d="M142.288 70.8219H145.411C145.592 70.8165 145.765 70.7488 145.901 70.6301C146.037 70.5115 146.128 70.3493 146.158 70.1712C146.172 70.0897 146.167 70.0063 146.144 69.9269C146.122 69.8474 146.082 69.7738 146.028 69.7113C145.974 69.6487 145.907 69.5987 145.832 69.5648C145.757 69.5309 145.675 69.5139 145.593 69.515H142.47C142.288 69.5205 142.114 69.5891 141.978 69.7089C141.842 69.8286 141.752 69.9921 141.723 70.1712C141.71 70.2523 141.716 70.3351 141.739 70.4139C141.762 70.4927 141.801 70.5655 141.855 70.6274C141.909 70.6893 141.976 70.7387 142.05 70.7723C142.125 70.8059 142.206 70.8228 142.288 70.8219Z" fill="#FFAC8E"/>
<path d="M128.744 73.6903H124.75C124.668 73.6912 124.587 73.6743 124.512 73.6407C124.437 73.6071 124.37 73.5577 124.317 73.4958C124.263 73.4339 124.223 73.3611 124.2 73.2823C124.177 73.2035 124.172 73.1207 124.184 73.0396C124.213 72.8614 124.302 72.6987 124.437 72.579C124.573 72.4594 124.745 72.3902 124.925 72.3834H128.92C129.002 72.3823 129.084 72.3993 129.159 72.4332C129.234 72.4671 129.301 72.5171 129.355 72.5797C129.409 72.6422 129.449 72.7158 129.471 72.7953C129.494 72.8747 129.499 72.9581 129.485 73.0396C129.457 73.2173 129.367 73.3793 129.232 73.498C129.096 73.6168 128.924 73.6847 128.744 73.6903Z" fill="#FFAC8E"/>
<path d="M108.909 96.513H100.937C100.407 96.5261 99.8804 96.4213 99.3955 96.206C98.9106 95.9907 98.4796 95.6703 98.1336 95.268C97.7877 94.8658 97.5354 94.3917 97.3951 93.88C97.2548 93.3683 97.2299 92.8319 97.3223 92.3094C97.5116 91.1617 98.0934 90.1152 98.9684 89.3486C99.8433 88.5819 100.957 88.1427 102.12 88.1058H110.086C110.617 88.0925 111.144 88.1975 111.629 88.4131C112.115 88.6288 112.546 88.9497 112.892 89.3526C113.238 89.7555 113.49 90.2304 113.63 90.7428C113.77 91.2551 113.794 91.7922 113.701 92.3151C113.511 93.4609 112.929 94.5053 112.056 95.2707C111.182 96.0361 110.07 96.4751 108.909 96.513Z" fill="#FF6C37"/>
<path d="M102.052 94.6573C101.983 94.6582 101.914 94.6434 101.851 94.614C101.789 94.5846 101.733 94.5414 101.69 94.4876L100.055 92.5923C100.013 92.5448 99.9812 92.4895 99.9609 92.4296C99.9407 92.3698 99.9324 92.3065 99.9366 92.2435C99.9408 92.1804 99.9574 92.1188 99.9854 92.0622C100.013 92.0055 100.052 91.955 100.1 91.9134L102.199 90.0747C102.295 89.9907 102.42 89.9482 102.548 89.9567C102.675 89.9652 102.794 90.0239 102.878 90.1199C102.962 90.216 103.004 90.3414 102.996 90.4688C102.987 90.5961 102.929 90.7148 102.833 90.7989L101.096 92.3264L102.42 93.8596C102.502 93.957 102.542 94.0825 102.533 94.2095C102.523 94.3364 102.464 94.4545 102.369 94.5385C102.281 94.6152 102.168 94.6574 102.052 94.6573Z" fill="white"/>
<path d="M108.445 94.6573C108.347 94.6574 108.252 94.6276 108.171 94.5719C108.091 94.5162 108.029 94.4373 107.995 94.3456C107.96 94.254 107.955 94.154 107.978 94.0591C108.002 93.9642 108.055 93.8788 108.128 93.8144L109.939 92.2302L108.671 90.7536C108.588 90.6568 108.547 90.5309 108.556 90.4036C108.566 90.2763 108.626 90.158 108.722 90.0747C108.819 89.9914 108.945 89.95 109.072 89.9595C109.2 89.9691 109.318 90.0288 109.401 90.1256L110.98 91.9643C111.061 92.0607 111.102 92.1854 111.092 92.3114C111.083 92.4374 111.024 92.5545 110.929 92.6376L108.762 94.5385C108.674 94.6152 108.562 94.6574 108.445 94.6573Z" fill="white"/>
<path d="M104.654 94.6573C104.582 94.6557 104.511 94.6404 104.445 94.6121C104.33 94.5559 104.242 94.4567 104.199 94.336C104.157 94.2153 104.164 94.0828 104.218 93.9671L105.989 90.2331C106.013 90.1714 106.05 90.1153 106.096 90.0683C106.143 90.0213 106.199 89.9845 106.26 89.9601C106.322 89.9357 106.388 89.9242 106.454 89.9265C106.52 89.9287 106.585 89.9446 106.645 89.9731C106.704 90.0016 106.758 90.0421 106.801 90.0921C106.844 90.1421 106.877 90.2005 106.897 90.2637C106.916 90.3269 106.923 90.3935 106.916 90.4593C106.909 90.5251 106.888 90.5887 106.855 90.6461L105.09 94.3801C105.05 94.4625 104.989 94.5323 104.912 94.5813C104.835 94.6303 104.745 94.6567 104.654 94.6573Z" fill="white"/>
<path d="M63.6481 84.0946H39.2016C39.1173 84.0961 39.0337 84.0788 38.957 84.0439C38.8803 84.009 38.8123 83.9574 38.7581 83.8929C38.7039 83.8284 38.6648 83.7526 38.6436 83.671C38.6224 83.5894 38.6198 83.5041 38.6358 83.4213L40.6329 69.2321C40.6608 69.048 40.7527 68.8796 40.8923 68.7565C41.032 68.6334 41.2106 68.5634 41.3967 68.5588H65.8602C65.9445 68.5573 66.028 68.5746 66.1047 68.6095C66.1815 68.6444 66.2494 68.696 66.3036 68.7605C66.3579 68.825 66.397 68.9009 66.4181 68.9825C66.4393 69.064 66.442 69.1493 66.426 69.2321L64.4345 83.4213C64.4038 83.6083 64.3081 83.7783 64.1642 83.9015C64.0203 84.0247 63.8375 84.0931 63.6481 84.0946Z" fill="#FFAC8E"/>
<path d="M63.3936 81.6448H40.1635C40.0915 81.6463 40.02 81.6322 39.954 81.6034C39.8881 81.5746 39.8291 81.5319 39.7812 81.4781C39.7334 81.4243 39.6977 81.3608 39.6768 81.2919C39.6559 81.223 39.6501 81.1504 39.6599 81.0791L41.2441 69.8035C41.2738 69.647 41.3563 69.5055 41.4778 69.4025C41.5993 69.2996 41.7524 69.2414 41.9117 69.2377H65.1418C65.2138 69.2362 65.2852 69.2504 65.3512 69.2792C65.4172 69.308 65.4761 69.3507 65.524 69.4045C65.5719 69.4583 65.6075 69.5218 65.6285 69.5907C65.6494 69.6596 65.6551 69.7322 65.6453 69.8035L64.0612 81.0791C64.0305 81.2351 63.9477 81.376 63.8264 81.4788C63.7051 81.5816 63.5525 81.6401 63.3936 81.6448Z" fill="#FF6C37"/>
<path d="M62.6917 86.4708H39.4955C39.4184 86.4728 39.3417 86.4576 39.2712 86.4264C39.2006 86.3951 39.1379 86.3486 39.0875 86.2901C39.0371 86.2316 39.0004 86.1627 38.98 86.0882C38.9596 86.0138 38.9559 85.9358 38.9694 85.8598C38.9959 85.6932 39.0802 85.5413 39.2074 85.4307C39.3346 85.32 39.4967 85.2576 39.6653 85.2544H62.8614C62.9379 85.2524 63.0138 85.2674 63.0837 85.2983C63.1536 85.3293 63.2157 85.3754 63.2655 85.4334C63.3154 85.4914 63.3517 85.5597 63.3718 85.6335C63.392 85.7072 63.3954 85.7845 63.3819 85.8598C63.3568 86.0264 63.2739 86.1789 63.1477 86.2905C63.0216 86.4022 62.8601 86.466 62.6917 86.4708Z" fill="#FF6C37"/>
<path d="M63.2859 83.3082H39.8012C39.744 83.3099 39.6871 83.2989 39.6346 83.2758C39.5822 83.2528 39.5356 83.2183 39.4982 83.1749C39.4608 83.1315 39.4335 83.0804 39.4184 83.0251C39.4033 82.9699 39.4007 82.9119 39.4109 82.8556C39.4345 82.7323 39.4984 82.6203 39.5927 82.5373C39.6869 82.4544 39.806 82.4051 39.9313 82.3973H63.4161C63.4736 82.3964 63.5306 82.4083 63.583 82.432C63.6354 82.4557 63.6819 82.4907 63.7192 82.5345C63.7565 82.5783 63.7837 82.6298 63.7987 82.6853C63.8138 82.7408 63.8164 82.7989 63.8064 82.8556C63.7817 82.9778 63.7173 83.0885 63.6231 83.1704C63.529 83.2522 63.4104 83.3007 63.2859 83.3082Z" fill="#FFAC8E"/>
<path d="M49.8265 83.3082H39.8012C39.744 83.3099 39.6871 83.2989 39.6346 83.2758C39.5822 83.2528 39.5356 83.2183 39.4982 83.1749C39.4608 83.1316 39.4335 83.0804 39.4184 83.0251C39.4033 82.9699 39.4007 82.912 39.4109 82.8556C39.4345 82.7323 39.4984 82.6203 39.5927 82.5373C39.6869 82.4544 39.806 82.4051 39.9313 82.3973H49.951C50.009 82.3956 50.0666 82.4068 50.1197 82.4301C50.1728 82.4535 50.22 82.4884 50.258 82.5323C50.2959 82.5762 50.3236 82.6279 50.339 82.6839C50.3544 82.7398 50.3571 82.7985 50.347 82.8556C50.3223 82.9778 50.2578 83.0885 50.1637 83.1704C50.0696 83.2522 49.951 83.3007 49.8265 83.3082Z" fill="#FF6C37"/>
<path opacity="0.2" d="M55.6501 78.6285C57.6911 76.7259 58.0054 73.7457 56.352 71.9721C54.6987 70.1985 51.7039 70.3031 49.6629 72.2057C47.6218 74.1083 47.3076 77.0885 48.9609 78.8621C50.6142 80.6357 53.6091 80.5311 55.6501 78.6285Z" fill="white"/>
<path d="M52.0217 73.3961L54.7317 75.0934C54.785 75.1365 54.8262 75.1927 54.8513 75.2564C54.8763 75.3202 54.8844 75.3894 54.8747 75.4573C54.865 75.5251 54.8379 75.5893 54.796 75.6435C54.754 75.6977 54.6988 75.7402 54.6355 75.7666L51.4503 77.4639C51.3955 77.503 51.3304 77.5249 51.2631 77.5269C51.1959 77.5289 51.1296 77.5109 51.0726 77.4751C51.0156 77.4394 50.9705 77.3875 50.9431 77.326C50.9156 77.2646 50.9071 77.1964 50.9185 77.1301L51.3937 73.7355C51.403 73.6665 51.4284 73.6007 51.4679 73.5434C51.5075 73.4861 51.56 73.439 51.6213 73.4059C51.6825 73.3728 51.7507 73.3546 51.8203 73.3529C51.8899 73.3512 51.9589 73.366 52.0217 73.3961Z" fill="white"/>
<path d="M51.1502 82.8556C51.1096 83.1032 50.984 83.329 50.7951 83.4941C50.6062 83.6593 50.3657 83.7536 50.1148 83.7608C50.0008 83.7634 49.8876 83.7407 49.7835 83.6942C49.6793 83.6477 49.5868 83.5786 49.5126 83.492C49.4384 83.4054 49.3844 83.3033 49.3545 83.1932C49.3246 83.0832 49.3196 82.9678 49.3397 82.8556C49.3781 82.608 49.5022 82.3817 49.6904 82.2162C49.8786 82.0508 50.1189 81.9567 50.3694 81.9504C50.4839 81.9469 50.5978 81.969 50.7026 82.0151C50.8075 82.0612 50.9007 82.1302 50.9755 82.2169C51.0504 82.3036 51.1049 82.406 51.1351 82.5165C51.1653 82.627 51.1705 82.7428 51.1502 82.8556Z" fill="#274F89"/>
<path d="M195.283 118.544L183.719 125.689L174.164 118.544H195.283Z" fill="#FF6C37"/>
<path d="M195.283 118.544L186.916 108.586C186.704 108.379 186.42 108.263 186.124 108.263C185.828 108.263 185.543 108.379 185.332 108.586L174.164 118.544H195.283Z" fill="#FF6C37"/>
<path d="M192.121 128.727H174.469L176.8 112.258C176.843 111.987 176.98 111.74 177.187 111.56C177.394 111.38 177.657 111.278 177.932 111.274H193.615C193.739 111.27 193.863 111.294 193.977 111.344C194.091 111.395 194.192 111.47 194.273 111.564C194.354 111.658 194.414 111.769 194.447 111.89C194.479 112.01 194.485 112.136 194.463 112.258L192.121 128.727Z" fill="#F9BBA7"/>
<path d="M194.243 113.61H176.591L176.783 112.258C176.826 111.987 176.963 111.74 177.17 111.56C177.377 111.38 177.64 111.278 177.915 111.274H193.598C193.722 111.27 193.846 111.294 193.96 111.344C194.074 111.395 194.175 111.47 194.256 111.564C194.337 111.658 194.397 111.769 194.43 111.89C194.462 112.01 194.468 112.136 194.446 112.258L194.243 113.61Z" fill="#FF6C37"/>
<path d="M178.667 112.434C178.65 112.572 178.584 112.699 178.479 112.79C178.375 112.882 178.24 112.932 178.101 112.931C178.039 112.933 177.976 112.921 177.919 112.896C177.861 112.87 177.81 112.832 177.769 112.785C177.729 112.737 177.699 112.68 177.683 112.62C177.667 112.559 177.665 112.495 177.677 112.434C177.695 112.297 177.762 112.171 177.867 112.08C177.971 111.99 178.105 111.94 178.243 111.941C178.305 111.94 178.367 111.952 178.424 111.977C178.481 112.002 178.531 112.039 178.572 112.086C178.613 112.134 178.642 112.189 178.659 112.249C178.675 112.309 178.678 112.372 178.667 112.434Z" fill="white"/>
<path d="M180.297 112.434C180.28 112.572 180.213 112.699 180.109 112.79C180.004 112.882 179.87 112.932 179.731 112.931C179.668 112.933 179.605 112.921 179.548 112.896C179.49 112.87 179.439 112.832 179.398 112.785C179.356 112.737 179.326 112.681 179.31 112.62C179.293 112.559 179.29 112.496 179.301 112.434C179.319 112.297 179.386 112.171 179.49 112.08C179.595 111.99 179.729 111.94 179.867 111.941C179.929 111.939 179.992 111.95 180.05 111.975C180.107 112 180.159 112.037 180.2 112.084C180.241 112.131 180.271 112.187 180.288 112.248C180.305 112.308 180.308 112.372 180.297 112.434Z" fill="white"/>
<path d="M181.926 112.434C181.909 112.572 181.842 112.699 181.738 112.79C181.634 112.882 181.499 112.932 181.36 112.931C181.297 112.933 181.235 112.921 181.177 112.896C181.12 112.87 181.069 112.832 181.028 112.784C180.988 112.737 180.958 112.68 180.942 112.62C180.926 112.559 180.924 112.495 180.936 112.434C180.954 112.297 181.021 112.171 181.125 112.08C181.23 111.99 181.363 111.94 181.502 111.941C181.564 111.941 181.625 111.953 181.681 111.979C181.738 112.004 181.788 112.042 181.828 112.089C181.869 112.135 181.899 112.191 181.915 112.25C181.932 112.31 181.936 112.372 181.926 112.434Z" fill="white"/>
<path d="M181.151 119.551H178.452L177.745 120.801H176.709L179.9 115.398H180.885L182.582 120.801H181.535L181.151 119.551ZM180.93 118.764L180.245 116.394L178.905 118.759L180.93 118.764Z" fill="white"/>
<path d="M192.54 115.805H184.534L184.608 115.302H192.608L192.54 115.805Z" fill="white"/>
<path d="M192.347 117.169H184.342L184.415 116.665H192.415L192.347 117.169Z" fill="white"/>
<path d="M192.155 118.527H184.155L184.223 118.023H192.223L192.155 118.527Z" fill="white"/>
<path d="M191.962 119.89H183.962L184.03 119.387H192.036L191.962 119.89Z" fill="white"/>
<path d="M191.77 121.248H183.77L183.838 120.745H191.843L191.77 121.248Z" fill="white"/>
<path d="M191.584 122.612H176.744L176.812 122.108H191.651L191.584 122.612Z" fill="white"/>
<path d="M191.391 123.969H176.551L176.619 123.472H191.459L191.391 123.969Z" fill="white"/>
<path d="M191.199 125.333H176.359L176.432 124.829H191.267L191.199 125.333Z" fill="white"/>
<path d="M191.006 126.696H176.167L176.24 126.193H191.08L191.006 126.696Z" fill="white"/>
<path d="M195.283 118.544L193.45 131.556C193.395 131.902 193.221 132.218 192.957 132.45C192.694 132.681 192.358 132.813 192.007 132.824H173.405C173.245 132.829 173.086 132.798 172.939 132.733C172.792 132.669 172.661 132.572 172.556 132.451C172.452 132.329 172.376 132.186 172.334 132.031C172.291 131.876 172.285 131.714 172.313 131.556L174.141 118.544L183.696 125.689L195.283 118.544Z" fill="#FFAC8E"/>
<path d="M195.284 118.544L193.451 131.556C193.425 131.747 193.362 131.931 193.265 132.097C193.168 132.263 193.038 132.408 192.885 132.524L183.742 125.678L195.284 118.544Z" fill="#FF6C37"/>
<path d="M177.094 48.9665L178.379 47.8407L177.411 46.7205" stroke="#FF6C37" stroke-width="0.8513" stroke-miterlimit="10"/>
<path d="M178.379 47.8407H173.575" stroke="#FF6C37" stroke-width="0.8513" stroke-miterlimit="10"/>
<path d="M168.976 44.2707V44.3726C168.954 44.5007 168.888 44.6173 168.79 44.7028C168.692 44.7883 168.568 44.8375 168.438 44.8421H165.044C164.909 44.8402 164.778 44.8864 164.674 44.9725C164.57 45.0586 164.501 45.1789 164.478 45.3117L163.833 49.8944C163.823 49.953 163.826 50.0131 163.842 50.0704C163.858 50.1277 163.886 50.1807 163.925 50.2257C163.964 50.2706 164.013 50.3063 164.067 50.3302C164.122 50.3541 164.181 50.3657 164.24 50.364H171.143C171.277 50.3659 171.408 50.3197 171.512 50.2336C171.616 50.1475 171.685 50.0272 171.708 49.8944L172.5 44.2707C172.51 44.2099 172.507 44.1475 172.49 44.0882C172.473 44.0289 172.443 43.974 172.403 43.9275C172.362 43.881 172.312 43.8441 172.255 43.8193C172.199 43.7945 172.138 43.7825 172.076 43.7842H169.564C169.423 43.7772 169.284 43.8232 169.175 43.9132C169.067 44.0033 168.995 44.1308 168.976 44.2707Z" fill="#E83E0A"/>
<path d="M170.543 49.9057V49.7586L170.181 46.7771C170.159 46.6432 170.09 46.5216 169.986 46.4343C169.882 46.3471 169.75 46.3001 169.615 46.3018H163.703C163.654 46.3025 163.607 46.313 163.563 46.3326C163.518 46.3523 163.479 46.3807 163.446 46.4161C163.413 46.4516 163.388 46.4933 163.372 46.5388C163.356 46.5844 163.349 46.6327 163.352 46.6809L163.731 49.8265C163.748 49.977 163.821 50.1157 163.935 50.2152C164.049 50.3147 164.196 50.3678 164.348 50.364H171.137C170.997 50.3816 170.856 50.3433 170.745 50.2575C170.634 50.1716 170.561 50.0451 170.543 49.9057Z" fill="#FF6C37"/>
<path d="M185.071 44.2707V44.3726C185.048 44.5054 184.979 44.6257 184.875 44.7118C184.771 44.7979 184.64 44.8441 184.506 44.8422H181.111C180.982 44.848 180.859 44.8978 180.762 44.9832C180.666 45.0686 180.601 45.1846 180.579 45.3117L179.934 49.8944C179.923 49.9527 179.925 50.0127 179.941 50.07C179.956 50.1273 179.984 50.1805 180.022 50.2256C180.061 50.2707 180.109 50.3065 180.163 50.3305C180.218 50.3544 180.277 50.3659 180.336 50.364H187.204C187.334 50.3594 187.458 50.3102 187.556 50.2246C187.654 50.1391 187.72 50.0225 187.742 49.8944L188.528 44.2707C188.54 44.2101 188.538 44.1474 188.523 44.0876C188.507 44.0278 188.478 43.9723 188.437 43.9254C188.397 43.8785 188.347 43.8414 188.29 43.8169C188.233 43.7925 188.171 43.7813 188.109 43.7842H185.626C185.49 43.7856 185.36 43.8354 185.258 43.9247C185.157 44.014 185.09 44.1367 185.071 44.2707Z" fill="#E83E0A"/>
<path d="M186.633 49.9057V49.7586L186.277 46.7771C186.255 46.6432 186.186 46.5216 186.082 46.4343C185.978 46.3471 185.847 46.3001 185.711 46.3018H179.799C179.75 46.3025 179.703 46.313 179.659 46.3326C179.615 46.3523 179.575 46.3807 179.542 46.4161C179.509 46.4516 179.484 46.4933 179.468 46.5388C179.452 46.5844 179.445 46.6327 179.448 46.6809L179.821 49.8265C179.838 49.978 179.912 50.1175 180.027 50.2171C180.143 50.3168 180.291 50.3692 180.444 50.364H187.199C187.066 50.3664 186.936 50.3218 186.833 50.2379C186.729 50.1541 186.658 50.0365 186.633 49.9057Z" fill="#FF6C37"/>
<path d="M160.817 146.136L158.662 147.098L157.123 147.007L156.744 144.099L156.574 142.798L160.076 142.057L160.461 141.978L160.472 142.142L160.585 144.557L160.625 145.355L160.817 146.136Z" fill="#FEB3B0"/>
<path d="M160.552 143.782C159.249 143.858 157.941 143.759 156.665 143.488L156.574 142.798L160.076 142.057L160.472 142.142L160.552 143.782Z" fill="#E87C7C"/>
<path d="M143.07 141.423L142.985 141.83L142.419 144.371L142.379 144.563C142.258 145.08 142.258 145.619 142.379 146.136L140.224 147.098L138.679 147.007L138.787 143.381V142.396L142.277 141.593L143.07 141.423Z" fill="#FEB3B0"/>
<path d="M142.985 141.853L142.594 143.692C141.28 143.61 140 143.241 138.843 142.611V141.808L142.323 141.621C142.566 141.666 142.781 141.746 142.985 141.853Z" fill="#E87C7C"/>
<path d="M138.741 146.311C138.741 146.311 131.879 148.767 133.084 149.491C133.321 149.632 142.543 149.96 142.951 149.406C143.358 148.852 142.385 146.142 142.385 146.142C142.385 146.142 141.197 146.719 138.741 146.311Z" fill="black"/>
<path d="M156.02 98.5385L147.188 99.7548C147.188 99.7548 142.939 108.501 140.965 115.03C140.388 116.745 139.929 118.498 139.59 120.275C139.194 123.907 138.526 142.108 138.526 142.108C140.033 142.738 141.69 142.914 143.296 142.617C143.296 142.617 145.559 133.231 146.181 130.515C146.742 127.53 147.03 124.5 147.041 121.463C147.041 121.463 156.014 108.405 157.032 106.12C158.051 103.834 156.02 98.5385 156.02 98.5385Z" fill="black"/>
<path d="M152.354 108.366L148.444 119.347L154.47 110.493L152.354 108.366Z" fill="#0A2530"/>
<path d="M164.398 104.926C164.398 104.926 159.652 120.513 159.352 121.701C159.052 122.889 160.483 124.298 160.913 128.676C161.343 133.055 160.913 142.713 160.913 142.713C159.298 143.039 157.644 143.128 156.003 142.979C156.003 142.979 151.38 123.89 151.567 121.18C151.754 118.47 152.789 101.328 152.789 101.328" fill="black"/>
<path d="M153.344 89.9446L152.314 93.9388C148.857 92.9091 142.023 90.2727 142.023 90.2727C141.445 90.0103 140.811 89.8993 140.178 89.9502C140.072 89.9736 139.964 89.985 139.856 89.9842C139.14 90.0659 138.416 90.0659 137.7 89.9842C137.135 89.8823 135.075 88.5188 134.809 87.5457C134.543 86.5726 135.669 86.0974 136.048 86.2219C136.765 86.5886 137.525 86.8624 138.311 87.0365C138.877 87.1554 139.477 87.2855 139.658 87.161C139.839 87.0365 138.804 86.8216 138.306 86.5952C137.808 86.3689 137.74 86.0295 138.521 85.9842C139.301 85.939 140.325 86.0352 140.784 86.6009C141.246 87.0349 141.799 87.3614 142.402 87.557C142.402 87.557 149.87 88.9488 153.315 89.9446H153.344Z" fill="#FEB3B0"/>
<path d="M165.021 91.97C165.021 93.1015 164.976 94.2613 164.942 95.4098C164.801 99.834 164.546 104.122 164.405 106.08C163.313 106.289 159.477 106.08 155.918 105.588C152.357 105.105 148.945 103.844 145.927 101.893C145.927 101.893 148.077 92.8865 148.693 89.6786C148.733 89.4806 148.767 89.2996 148.79 89.1412C148.793 89.0978 148.793 89.0544 148.79 89.011C149.304 86.284 150.134 83.626 151.262 81.0904C152.88 77.7298 154.656 77.5035 155.041 77.4922C156.738 78.4709 159.256 79.2856 162.243 80.4341C162.888 80.6831 163.612 80.9999 164.371 81.3393C164.785 83.7976 164.995 86.2861 164.999 88.7791C165.038 89.8031 165.032 90.8724 165.021 91.97Z" fill="#407BFF"/>
<path d="M165.021 91.97C165.021 93.1015 164.975 94.2613 164.941 95.4098C164.308 96.6714 163.601 97.9387 163.142 98.3348C162.897 98.5832 162.6 98.7748 162.273 98.896C161.945 99.0172 161.595 99.0651 161.247 99.0363L163.51 93.9445C159.776 92.0435 159.55 90.3123 159.55 90.3123L165.021 91.97Z" fill="#0C2D3D"/>
<path d="M161.202 78.3804C161.027 79.297 161.768 80.0211 162.277 80.4568C161.998 80.8996 161.657 81.2997 161.264 81.6449C157.174 84.7169 154.554 81.6449 154.701 79.3818C154.713 78.7422 154.863 78.1128 155.143 77.5374C155.358 77.6376 155.603 77.6549 155.831 77.586C156.058 77.5171 156.252 77.3669 156.376 77.164C156.488 76.989 156.574 76.7983 156.631 76.5983C155.878 76.4248 155.195 76.0308 154.667 75.4668C153.349 73.628 156.365 67.235 156.365 67.235C158.458 62.5618 164.421 65.6508 164.715 68.2646C164.816 70.1098 164.311 71.9374 163.278 73.4696C163.25 73.5262 161.468 77.0339 161.202 78.3804Z" fill="#FEB3B0"/>
<path d="M158.95 76.2249C158.624 76.57 158.221 76.8326 157.773 76.991C157.325 77.1494 156.847 77.199 156.376 77.1357C156.488 76.9606 156.574 76.77 156.631 76.57C157.421 76.6767 158.225 76.557 158.95 76.2249Z" fill="#E87C7C"/>
<path d="M150.125 76.4399L150.062 76.6831C149.983 76.9802 149.789 77.2335 149.522 77.3873C149.256 77.5412 148.939 77.583 148.642 77.5035L140.592 75.3706C140.294 75.2928 139.977 75.3361 139.711 75.4908C139.445 75.6456 139.251 75.8993 139.172 76.1966L136.275 87.1554C136.236 87.3028 136.226 87.4566 136.246 87.6079C136.266 87.7591 136.316 87.9049 136.393 88.0368C136.47 88.1688 136.572 88.2842 136.693 88.3767C136.815 88.4691 136.953 88.5366 137.101 88.5754L153.508 92.9205C153.806 92.9982 154.122 92.9549 154.388 92.8002C154.654 92.6454 154.848 92.3917 154.928 92.0944L158.481 78.652C158.523 78.4985 158.533 78.3383 158.513 78.1807C158.492 78.023 158.44 77.8711 158.36 77.7337C158.28 77.5963 158.173 77.4762 158.047 77.3803C157.92 77.2844 157.775 77.2148 157.621 77.1753L151.607 75.5799C151.453 75.5389 151.293 75.5286 151.135 75.5497C150.977 75.5707 150.825 75.6226 150.688 75.7025C150.55 75.7824 150.429 75.8886 150.333 76.0151C150.236 76.1417 150.165 76.286 150.125 76.4399Z" fill="#E28B2D"/>
<path d="M154.034 81.1809L153.994 92.779L138.719 88.7395C137.819 88.5019 137.197 86.8102 137.197 85.8824L137.231 76.5983C137.231 76.4649 137.263 76.3335 137.322 76.2141C137.381 76.0947 137.467 75.9905 137.574 75.9096C137.68 75.8287 137.803 75.7732 137.934 75.7475C138.064 75.7217 138.2 75.7263 138.328 75.7609L152.817 79.6194C153.163 79.7109 153.469 79.9132 153.689 80.1952C153.908 80.4772 154.03 80.8235 154.034 81.1809Z" fill="#FFECD7"/>
<path d="M153.344 81.9673L153.304 92.7168L138.028 88.6773C137.592 88.5608 137.206 88.3026 136.931 87.9432C136.657 87.5839 136.51 87.1436 136.512 86.6914L136.546 77.4073C136.547 77.2746 136.578 77.1438 136.637 77.0249C136.696 76.906 136.782 76.8022 136.887 76.7215C136.993 76.6407 137.115 76.585 137.245 76.5588C137.375 76.5325 137.51 76.5364 137.638 76.57L152.105 80.4002C152.455 80.4877 152.767 80.689 152.991 80.9725C153.215 81.2561 153.339 81.6059 153.344 81.9673Z" fill="#FFFAF5"/>
<path d="M152.195 91.3986V91.0308V83.41C152.198 83.06 152.083 82.7191 151.87 82.4413C151.657 82.1636 151.357 81.9649 151.019 81.8768L136.875 78.1371C136.763 78.1067 136.646 78.1024 136.533 78.1245C136.419 78.1466 136.312 78.1945 136.221 78.2645C136.129 78.3346 136.054 78.4248 136.003 78.5283C135.951 78.6318 135.924 78.7458 135.924 78.8613L135.89 86.9008C135.896 87.2883 136.028 87.6635 136.266 87.9696C136.504 88.2757 136.834 88.4963 137.208 88.598L151.522 92.383L152.144 92.5471L153.366 92.8695C153.039 92.7824 152.749 92.5923 152.538 92.3275C152.327 92.0626 152.207 91.7369 152.195 91.3986Z" fill="#F49F38"/>
<path d="M165.066 67.1727C165.095 66.631 164.929 66.0969 164.597 65.6678C164.597 65.6678 163.431 63.7951 162.752 63.4047C162.073 63.0144 161.904 63.6763 161.904 63.6763C161.904 63.6763 160.608 62.0695 159.595 62.0695C158.583 62.0695 158.639 63.0992 158.639 63.0992C158.639 63.0992 157.083 61.6339 155.929 62.392C154.656 63.2237 155.047 64.8474 155.68 66.1713C156.812 68.4966 159.465 69.7469 161.943 70.2674L161.259 71.9647C161.259 71.9647 160.993 72.6266 161.163 72.6889C161.332 72.7511 161.728 72.174 161.728 72.174C161.728 72.174 162.294 71.3537 162.899 71.6083C164.088 72.174 162.402 75.297 162.402 75.297C163.676 73.9878 164.859 72.5928 165.943 71.1217C166.696 70.0015 166.837 67.8573 165.066 67.1727Z" fill="#0E273A"/>
<path d="M162.718 73.1528C162.396 73.6111 161.705 73.9109 161.536 73.645C161.434 73.4866 161.536 73.2094 161.683 72.9604C161.785 72.8246 162.068 72.9604 162.215 72.7058C162.362 72.4512 162.175 72.3381 162.288 72.2023C162.337 72.1498 162.397 72.1092 162.463 72.0837C162.53 72.0582 162.602 72.0485 162.673 72.0552C162.905 72.1231 163.103 72.6097 162.718 73.1528Z" fill="#E87C7C"/>
<path d="M165.343 91.5004C165.306 91.3142 165.289 91.1245 165.292 90.9346C165.309 91.1326 165.326 91.3193 165.343 91.5004Z" fill="#12364C"/>
<path d="M165.293 91.9756L165.106 92.4226C164.936 92.8243 164.659 93.4636 164.342 94.1821C163.607 95.8228 162.645 97.8708 162.079 98.4932C161.106 99.5738 157.655 97.4805 158.119 95.2287C158.527 93.7612 159.122 92.3523 159.89 91.0365C160.099 90.6517 160.297 90.301 160.455 90.0068C160.784 89.441 161.021 89.0846 161.021 89.0846L164.02 91.1044L164.501 91.4325L165.293 91.9756Z" fill="#FEB3B0"/>
<path d="M165.106 92.4226C164.936 92.8243 164.659 93.4636 164.342 94.1821C162.57 93.6064 161.013 92.5102 159.873 91.0365C160.082 90.6517 160.28 90.301 160.438 90.0068L161.417 90.1709L163.991 91.1044L164.331 91.2288C164.331 91.2288 164.387 91.3024 164.472 91.4325C164.636 91.6531 164.88 92.0209 165.106 92.4226Z" fill="#E87C7C"/>
<path d="M162.209 98.3235L160.263 94.1991C157.893 93.3909 155.464 92.7668 152.998 92.3321C151.748 92.1114 150.3 91.7663 149.259 91.5513C149.083 91.4947 148.319 91.2797 148.071 90.8271C147.822 90.3745 147.776 89.888 147.505 89.5146C147.233 89.1412 147.08 88.5471 146.882 88.236C146.684 87.9248 146.436 88.3095 146.498 88.7282C146.56 89.1468 146.667 89.69 146.532 89.8597C146.396 90.0294 145.615 89.4976 145.4 89.4976C145.185 89.4976 144.376 91.1949 144.489 91.9587C144.602 92.7224 146.119 92.8526 146.52 92.9091C147.178 93.1197 147.819 93.3788 148.438 93.6842C150.792 94.8157 155.98 97.2825 157.57 98.0972C159.652 99.1721 161.258 99.636 162.209 98.3235Z" fill="#FEB3B0"/>
<path d="M164.404 81.362C164.404 81.362 166.667 82.3294 167.386 84.3266C168.104 86.3237 165.293 93.0845 165.293 93.0845C165.293 93.0845 161.174 91.953 159.544 90.3066C159.759 88.9545 164.404 81.362 164.404 81.362Z" fill="#407BFF"/>
<path d="M145.627 89.5711C145.627 89.5711 144.637 89.1751 143.992 88.9545C143.347 88.7338 143.228 88.4453 142.781 88.5924C142.334 88.7395 142.351 89.9842 142.606 90.6235C142.956 91.5061 144.914 92.5018 144.914 92.5018L145.547 91.308L145.627 89.5711Z" fill="#FEB3B0"/>
<path d="M157.055 146.521C157.055 146.521 150.187 148.784 151.398 149.491C151.635 149.632 160.948 149.96 161.349 149.406C161.751 148.852 160.784 146.142 160.784 146.142C159.562 146.429 158.309 146.556 157.055 146.521Z" fill="black"/>
<path d="M103.887 41.0071L64.4833 44.5584C63.7987 44.6201 63.2937 45.2252 63.3554 45.9098L64.3706 57.1737C64.4323 57.8583 65.0373 58.3633 65.7219 58.3016L105.126 54.7503C105.81 54.6886 106.315 54.0835 106.254 53.3989L105.239 42.135C105.177 41.4504 104.572 40.9454 103.887 41.0071Z" fill="#FF6C37"/>
<path d="M84.9149 95.3928C84.9149 95.3928 84.7565 96.7789 82.7537 96.943C73.2885 97.7237 70.686 94.3235 69.2207 93.5484L81.8371 93.4862C81.8371 93.4862 84.8244 93.9501 84.9149 95.3928Z" fill="#161616"/>
<path d="M83.1443 101.435L78.2392 101.537L71.6877 100.196L68.9551 99.2909C69.5491 98.4988 70.2224 96.2754 70.6524 94.5555C70.9805 93.3165 71.2181 92.3434 71.2181 92.3434L76.1402 91.8172L78.5051 91.5626C78.5051 91.5626 81.6225 91.127 82.324 92.8243C82.4343 93.0988 82.4807 93.3948 82.4598 93.6899C82.4347 94.596 82.463 95.5028 82.5446 96.4055C82.737 98.8553 83.1443 101.435 83.1443 101.435Z" fill="#E49191"/>
<path d="M82.5444 96.4055C82.5444 96.4055 81.9787 95.472 79.4837 94.9459C76.5969 94.2713 73.6099 94.1389 70.6748 94.5555C71.0029 93.3165 71.2406 92.3434 71.2406 92.3434L76.1627 91.8172C78.2051 92.0661 80.8641 92.4113 81.6562 92.6036C81.8913 92.6604 82.122 92.7341 82.3464 92.8243C82.4567 93.0988 82.5031 93.3948 82.4822 93.6899C82.4496 94.5955 82.4704 95.5023 82.5444 96.4055Z" fill="#C55F60"/>
<path d="M93.9842 59.0144C93.9842 59.0144 94.0182 58.4204 94.0634 57.815C94.0651 57.4465 93.9818 57.0826 93.8201 56.7514C93.7865 56.426 93.7865 56.098 93.8201 55.7726L94.6065 55.7047C94.8502 55.3502 95.0731 54.9818 95.2741 54.6015C95.3704 54.4285 95.4211 54.2338 95.4212 54.0358C95.4149 53.7561 95.4281 53.4763 95.4608 53.1984C95.4948 52.8024 95.8173 52.6327 95.9417 53.1305C96.0244 53.5476 96.0586 53.9729 96.0436 54.3978C95.9395 54.8165 95.7994 55.2254 95.6249 55.6199C95.6249 55.6199 96.83 56.3101 96.8639 56.5421C96.8979 56.774 96.3491 57.6736 95.9248 59.3709" fill="#E49191"/>
<path d="M95.8961 53.3059C95.8961 53.3059 95.7773 52.7402 96.0262 52.6836C96.2752 52.627 96.36 53.0627 96.4223 53.3059C96.4845 53.5492 96.5977 54.3017 96.6429 54.5619C96.5125 55.1601 96.323 55.7438 96.0772 56.3045L95.3926 55.7047L95.732 53.9679" fill="#E49191"/>
<path d="M96.3434 53.6397C96.3434 53.6397 96.3094 53.2324 96.5018 53.1475C96.6941 53.0626 96.8073 53.4021 96.8639 53.6397C96.9204 53.8773 97.0449 54.6411 97.0902 54.8957C96.958 55.4934 96.7685 56.0769 96.5244 56.6383L95.8398 56.0385L96.1793 54.3017" fill="#E49191"/>
<path d="M97.0902 53.8547C97.0847 54.0985 97.1114 54.342 97.1694 54.5789C97.1431 54.7791 97.0757 54.9717 96.9714 55.1447L96.5244 56.4233L96.7451 56.989L97.441 55.3766L97.5598 55.0428C97.622 54.8509 97.6318 54.6458 97.588 54.4488C97.4919 54.0301 97.2938 53.3795 97.0902 53.8547Z" fill="#E49191"/>
<path d="M73.1641 60.9493C73.4213 60.3354 73.6404 59.7062 73.8203 59.0654C73.8203 58.856 73.396 57.7358 73.3394 57.5208C73.29 56.9095 73.3611 56.2944 73.5488 55.7104C73.7242 55.4615 73.8995 55.6369 73.9731 55.8858C74.0444 56.1843 74.0824 56.4898 74.0863 56.7967C74.1763 57.0519 74.3041 57.2922 74.4653 57.5095L76.4228 57.3285L77.1131 57.2662C77.0452 57.5996 76.9564 57.9284 76.8471 58.2507C76.7044 58.5565 76.4935 58.8256 76.2305 59.0371C75.8634 59.7149 75.5694 60.4299 75.3536 61.17" fill="#E49191"/>
<path d="M66.4314 137.519L65.5148 139.545L65.2998 140.031L64.4795 141.853C63.5611 141.805 62.6724 141.512 61.9053 141.004L62.3183 139.409L62.5729 138.419L63.1386 136.292L66.4314 137.519Z" fill="#E49191"/>
<path d="M65.5149 139.545L65.2999 140.031C64.2712 140.052 63.2514 139.837 62.3184 139.403L62.573 138.413L64.9096 138.939L65.5149 139.545Z" fill="#C55F60"/>
<path d="M73.1415 60.5759C73.9977 60.6535 74.8423 60.8281 75.6591 61.0964C75.6591 61.0964 74.5276 67.9874 73.43 70.6408C72.5418 72.7737 74.239 78.5105 74.239 78.5105L71.0029 80.7057C71.0029 80.7057 69.4923 72.9435 69.3056 71.0086C69.1189 69.0737 73.1415 60.5759 73.1415 60.5759Z" fill="black"/>
<path d="M83.5856 139.958L83.4837 140.722L83.2744 142.368L83.0764 143.873C82.1865 144.123 81.2449 144.123 80.3551 143.873L80.2589 142.475L80.1231 140.557L80.0835 139.958H83.5856Z" fill="#E49191"/>
<path d="M83.4837 140.722L83.2743 142.368C82.2789 142.543 81.2641 142.579 80.2588 142.475L80.123 140.557C80.9887 140.569 82.7595 140.654 83.4837 140.722Z" fill="#C55F60"/>
<path d="M79.6704 144.936C79.6793 144.647 79.755 144.364 79.8914 144.109C80.0278 143.854 80.2213 143.634 80.4568 143.465C80.6836 143.346 80.9353 143.281 81.1918 143.276C81.4482 143.271 81.7022 143.326 81.9335 143.437C82.2446 143.55 82.7934 143.952 83.065 143.873L84.1569 146.074C84.437 146.717 84.7983 147.321 85.2318 147.873C85.5342 147.937 85.8165 148.074 86.0548 148.271C86.2932 148.468 86.4805 148.72 86.601 149.004C86.7368 149.519 86.6858 149.666 85.2318 149.666C85.2318 149.666 83.246 149.18 82.6972 148.62C82.1484 148.059 79.6704 144.936 79.6704 144.936Z" fill="#407BFF"/>
<path d="M82.8839 149.666C82.5638 149.667 82.2491 149.583 81.9712 149.425C81.6932 149.266 81.4618 149.037 81.2997 148.761C80.7069 147.771 80.1759 146.745 79.7099 145.689C79.1781 144.116 81.2545 144.207 81.758 144.767C82.3897 145.673 82.937 146.635 83.393 147.641C83.9588 148.772 84.3775 149.434 85.2431 149.666H82.8839Z" fill="#202D74"/>
<path d="M83.1442 101.435L82.7481 98.5215C82.7481 98.5215 82.0126 99.5002 77.9335 99.0872C74.7709 98.7478 71.0822 97.6728 70.0129 96.8638C68.6324 97.9953 67.0936 100.502 67.3764 104.219C67.6304 106.473 67.6626 108.747 67.4726 111.008C66.9351 115.421 66.6749 120.626 66.5278 121.712C64.5024 125.989 62.2959 138.815 62.2959 138.815C63.3082 139.425 64.454 139.778 65.6339 139.845C65.6339 139.845 70.5107 129.661 72.5192 123.409C73.1359 121.469 73.8374 119.115 74.505 116.592C75.1726 114.069 75.8289 111.415 76.3381 108.852C76.8932 106.244 77.2413 103.595 77.3791 100.932C78.8727 101.333 79.9703 101.616 80.0381 101.605C80.2418 101.503 83.1442 101.435 83.1442 101.435Z" fill="#407BFF"/>
<path d="M76.3326 108.796C75.8234 111.359 75.201 114.029 74.4995 116.535C73.2118 112.545 72.4028 108.417 72.0894 104.236C72.0894 104.236 75.0992 107.596 76.3326 108.796Z" fill="#2A73F4"/>
<path d="M83.5343 141.915C82.3716 142.156 81.1688 142.123 80.021 141.819C80.021 141.819 77.7579 127.675 78.2388 122.402C78.2388 122.402 75.4893 115.047 73.6449 109.333C73.2941 108.241 72.6831 106.142 72.4341 105.226C71.8714 103.268 71.981 101.179 72.7453 99.2909L83.144 101.435C83.574 105.424 84.8413 117.701 84.9261 123.353C85.0223 130.147 83.5343 141.915 83.5343 141.915Z" fill="#407BFF"/>
<path d="M96.2922 59.2521C96.2922 59.2521 95.3757 68.7625 93.5313 73.3961C92.6488 74.8501 90.7025 76.9321 88.7167 78.7482C87.4124 79.9474 86.3714 81.4043 85.6595 83.0268C84.9476 84.6493 84.5803 86.4019 84.581 88.1737C84.581 89.5598 84.7168 92.2076 84.9261 95.3928C84.796 93.3335 75.1215 93.8936 70.7312 93.6955C70.2292 93.683 69.7285 93.6396 69.2319 93.5654C70.1561 90.9204 70.899 88.2154 71.4554 85.4694C72.4454 80.2983 74.0975 77.2432 76.3605 75.908L80.8866 77.1131C80.8866 77.1131 85.2826 73.7525 89.7068 70.7653C91.5003 66.6126 93.4861 58.7768 93.4861 58.7768C94.448 58.5782 95.4494 58.7477 96.2922 59.2521Z" fill="black"/>
<path d="M80.8189 77.1414C80.3873 77.2754 79.9313 77.3114 79.484 77.2468C79.0367 77.1822 78.6094 77.0186 78.2334 76.768C76.9491 75.8854 78.2334 74.2221 78.2334 74.2221H80.6209L80.5643 74.6634C80.5643 74.6634 80.5643 74.9972 80.5643 75.4441C80.5671 76.0192 80.6528 76.5908 80.8189 77.1414Z" fill="#E49191"/>
<path d="M80.5811 74.6634C80.5811 74.6634 80.5811 74.9972 80.5811 75.4441C79.9752 75.3766 79.3937 75.1673 78.8838 74.8331C79.3205 74.739 79.7234 74.5278 80.0493 74.2221H80.6207L80.5811 74.6634Z" fill="#C55F60"/>
<path d="M81.4922 67.6706C82.0902 68.8949 82.5258 70.192 82.7878 71.5291C82.8763 72.0499 82.8173 72.585 82.6173 73.074C82.4173 73.5629 82.0844 73.9861 81.6563 74.2956C81.3424 74.5143 81.0091 74.7036 80.6606 74.8614C80.1902 75.0884 79.6609 75.1635 79.146 75.0764C78.631 74.9892 78.1559 74.744 77.7865 74.3748C77.2549 73.826 76.8086 73.2004 76.4626 72.5191C74.5447 68.8983 78.7426 64.8361 81.4922 67.6706Z" fill="#E49191"/>
<path d="M64.7228 141.287C64.7228 141.287 64.7228 142.334 64.6549 142.888C64.587 143.443 64.2136 148.495 63.6591 149.112C63.515 149.278 63.3342 149.409 63.1309 149.493C62.9277 149.577 62.7076 149.614 62.488 149.598C61.8431 149.598 61.8657 148.631 61.2547 147.098C60.6436 145.564 61.0057 142.985 61.2547 141.621C61.4714 141.258 61.7445 140.931 62.0637 140.654C62.1805 140.549 62.3178 140.47 62.4668 140.421C62.6158 140.373 62.7733 140.355 62.9293 140.371C63.3932 140.41 63.7101 140.625 64.191 141.287C64.2815 141.44 64.5983 141.525 64.7228 141.287Z" fill="#407BFF"/>
<path d="M60.8871 142.062C60.9402 141.792 61.0903 141.55 61.309 141.382C61.5278 141.215 61.8002 141.133 62.0752 141.152C62.7428 141.253 63.5632 141.672 63.5009 143.098C63.4387 144.523 63.3821 148.376 63.2577 148.868C62.9804 150 61.7245 149.694 61.3228 148.772C60.9943 147.696 60.8042 146.582 60.757 145.457C60.6181 144.326 60.662 143.18 60.8871 142.062Z" fill="#202D74"/>
<path d="M81.2262 65.0285C80.8431 64.4716 80.2827 64.0608 79.6364 63.863C77.8882 63.4217 76.0891 64.2251 74.8614 65.3566C74.4446 65.7572 74.0064 66.1349 73.5488 66.4881C72.7015 67.1439 72.0243 67.9938 71.5743 68.9662C70.4428 71.546 72.2815 73.7299 71.8119 74.5276C71.3423 75.3253 69.4357 75.4724 69.2999 77.1244C69.1642 78.7765 69.9053 79.1668 69.2999 80.734C68.4419 81.726 67.8346 82.9096 67.5291 84.1851C66.6352 88.3039 71.0538 89.277 72.9378 88.1455C74.8218 87.0139 76.0438 87.7042 76.983 87.2742C80.4398 85.6844 78.6463 77.2263 78.7481 75.2122C78.7481 74.8444 78.7481 74.4314 78.7481 73.9901C78.7532 73.1918 78.9226 72.4031 79.2458 71.6731C79.5689 70.9431 80.0389 70.2874 80.6265 69.7469C81.2751 69.1627 81.6924 68.365 81.8025 67.4991C81.9125 66.6331 81.708 65.7564 81.2262 65.0285Z" fill="#2E3AAA"/>
<path d="M0 149.717H189.813" stroke="#FF6C37" stroke-miterlimit="10"/>
</g>
<defs>
<clipPath id="clip0_957_10006">
<rect width="195.283" height="150" fill="white"/>
</clipPath>
</defs>
</svg>
