<svg width="141" height="150" viewBox="0 0 141 150" fill="none" xmlns="http://www.w3.org/2000/svg">
<g clip-path="url(#clip0_957_10917)">
<path d="M89.28 144.055C89.196 144.055 89.1133 144.035 89.0377 143.999C88.9622 143.962 88.8957 143.909 88.8432 143.844L45.0238 89.3674C44.93 89.2503 44.8864 89.1008 44.9028 88.9516C44.9192 88.8024 44.9941 88.6659 45.1112 88.572C45.2283 88.4781 45.3778 88.4346 45.527 88.4509C45.6761 88.4673 45.8127 88.5423 45.9066 88.6594L89.7213 143.136C89.7892 143.22 89.8314 143.322 89.8429 143.43C89.8544 143.538 89.8348 143.646 89.7864 143.743C89.738 143.84 89.6628 143.921 89.5698 143.976C89.4767 144.032 89.3698 144.059 89.2616 144.055H89.28Z" fill="#E03C03"/>
<path d="M21.3141 144.055C21.1855 144.055 21.0609 144.011 20.9601 143.931C20.8437 143.837 20.7695 143.7 20.754 143.551C20.7385 143.402 20.7829 143.252 20.8773 143.136L64.6921 88.6594C64.7364 88.5955 64.7933 88.5414 64.8594 88.5005C64.9255 88.4596 64.9993 88.4328 65.0762 88.4217C65.1532 88.4106 65.2316 88.4155 65.3065 88.436C65.3815 88.4566 65.4514 88.4924 65.5119 88.5412C65.5724 88.59 65.6222 88.6507 65.6582 88.7196C65.6941 88.7885 65.7155 88.864 65.721 88.9416C65.7265 89.0191 65.7159 89.0969 65.69 89.1702C65.664 89.2435 65.6233 89.3106 65.5702 89.3674L21.7555 143.844C21.7024 143.91 21.6352 143.963 21.5589 144C21.4825 144.036 21.3988 144.055 21.3141 144.055Z" fill="#FF6224"/>
<path d="M65.1288 144.055C65.0449 144.055 64.9621 144.035 64.8866 143.999C64.8111 143.962 64.7446 143.909 64.6921 143.844L20.8773 89.3674C20.8243 89.3106 20.7835 89.2435 20.7575 89.1702C20.7316 89.0969 20.721 89.0191 20.7265 88.9416C20.732 88.864 20.7534 88.7885 20.7894 88.7196C20.8253 88.6507 20.8751 88.59 20.9357 88.5412C20.9962 88.4924 21.0661 88.4566 21.141 88.436C21.216 88.4155 21.2944 88.4106 21.3713 88.4217C21.4482 88.4328 21.522 88.4596 21.5881 88.5005C21.6542 88.5414 21.7112 88.5955 21.7554 88.6594L65.5702 143.136C65.6167 143.194 65.6514 143.26 65.6722 143.332C65.693 143.403 65.6995 143.478 65.6914 143.552C65.6832 143.626 65.6607 143.697 65.6249 143.762C65.5891 143.827 65.5408 143.885 65.4828 143.931C65.3828 144.012 65.2576 144.056 65.1288 144.055Z" fill="#FF6224"/>
<path d="M29.0795 90.457H8.72147C8.33896 90.4558 7.97247 90.3033 7.702 90.0328C7.43153 89.7624 7.27904 89.3959 7.27783 89.0134C7.27783 88.6301 7.42978 88.2624 7.70038 87.9909C7.97098 87.7195 8.33817 87.5663 8.72147 87.5651H29.0795C29.2694 87.5651 29.4575 87.6026 29.633 87.6755C29.8084 87.7483 29.9678 87.855 30.1019 87.9896C30.236 88.1241 30.3422 88.2838 30.4145 88.4595C30.4868 88.6352 30.5237 88.8234 30.5231 89.0134C30.5231 89.3962 30.371 89.7634 30.1003 90.0342C29.8295 90.3049 29.4623 90.457 29.0795 90.457Z" fill="#E03C03"/>
<path d="M87.6477 90.457H29.4656C29.0855 90.4558 28.721 90.3052 28.451 90.0377C28.1809 89.7702 28.0268 89.4073 28.022 89.0272C28.022 88.6439 28.1739 88.2762 28.4445 88.0047C28.7151 87.7333 29.0823 87.5801 29.4656 87.5789H87.6477V90.457Z" fill="#FF6224"/>
<path d="M44.8032 116.249C44.8042 116.562 44.7122 116.869 44.5389 117.129C44.3657 117.39 44.119 117.593 43.8301 117.714C43.5412 117.834 43.2231 117.866 42.916 117.806C42.6089 117.745 42.3266 117.595 42.105 117.374C41.8834 117.153 41.7323 116.871 41.6709 116.564C41.6095 116.257 41.6405 115.939 41.7601 115.65C41.8796 115.36 42.0824 115.113 42.3425 114.939C42.6027 114.765 42.9087 114.672 43.2217 114.672C43.6403 114.672 44.0419 114.838 44.3384 115.134C44.6349 115.43 44.802 115.831 44.8032 116.249Z" fill="#E03C03"/>
<path d="M68.9541 116.249C68.955 116.562 68.8631 116.869 68.6898 117.129C68.5166 117.39 68.2699 117.593 67.981 117.714C67.6921 117.834 67.3739 117.866 67.0668 117.806C66.7597 117.745 66.4775 117.595 66.2559 117.374C66.0342 117.153 65.8831 116.871 65.8217 116.564C65.7603 116.257 65.7914 115.939 65.911 115.65C66.0305 115.36 66.2332 115.113 66.4934 114.939C66.7536 114.765 67.0596 114.672 67.3726 114.672C67.7912 114.672 68.1928 114.838 68.4893 115.134C68.7858 115.43 68.9529 115.831 68.9541 116.249Z" fill="#FFC947"/>
<path d="M47.9343 25.4659H27.4292C26.416 25.4659 25.5947 26.2872 25.5947 27.3003V42.5504C25.5947 43.5635 26.416 44.3848 27.4292 44.3848H47.9343C48.9474 44.3848 49.7687 43.5635 49.7687 42.5504V27.3003C49.7687 26.2872 48.9474 25.4659 47.9343 25.4659Z" fill="#90B2FF"/>
<path d="M42.9231 33.8196H42.1645C42.0517 33.4092 41.8798 33.0174 41.6541 32.6565L42.238 32.068C42.2914 32.015 42.3338 31.952 42.3627 31.8825C42.3916 31.8131 42.4065 31.7386 42.4065 31.6634C42.4065 31.5882 42.3916 31.5137 42.3627 31.4443C42.3338 31.3748 42.2914 31.3118 42.238 31.2588L41.4151 30.4358C41.3621 30.3825 41.299 30.3401 41.2296 30.3112C41.1602 30.2823 41.0857 30.2674 41.0105 30.2674C40.9353 30.2674 40.8608 30.2823 40.7913 30.3112C40.7219 30.3401 40.6589 30.3825 40.6059 30.4358L39.9852 31.0565C39.6399 30.8541 39.2687 30.6995 38.8818 30.5968V29.6772C38.8818 29.5256 38.8219 29.3801 38.7151 29.2725C38.6083 29.1648 38.4633 29.1038 38.3117 29.1026H37.1439C36.9923 29.1038 36.8473 29.1648 36.7405 29.2725C36.6337 29.3801 36.5738 29.5256 36.5738 29.6772V30.6381C36.1996 30.7333 35.8395 30.877 35.5026 31.0657L34.8222 30.3807C34.7692 30.3273 34.7061 30.2849 34.6367 30.256C34.5673 30.2271 34.4928 30.2122 34.4176 30.2122C34.3424 30.2122 34.2679 30.2271 34.1984 30.256C34.129 30.2849 34.066 30.3273 34.013 30.3807L33.1854 31.2036C33.0798 31.3118 33.0207 31.457 33.0207 31.6082C33.0207 31.7594 33.0798 31.9046 33.1854 32.0128L33.8199 32.6473C33.6076 32.9873 33.4407 33.3536 33.3233 33.7369H32.4314C32.2798 33.7381 32.1348 33.7992 32.028 33.9068C31.9212 34.0145 31.8613 34.16 31.8613 34.3116V35.4748C31.8613 35.626 31.9214 35.771 32.0283 35.8779C32.1352 35.9848 32.2802 36.0449 32.4314 36.0449H33.2176C33.3034 36.4715 33.4506 36.8834 33.6544 37.2678L33.1211 37.8011C33.0155 37.9093 32.9564 38.0545 32.9564 38.2057C32.9564 38.3569 33.0155 38.5021 33.1211 38.6103L33.9486 39.4333C34.0568 39.5389 34.202 39.598 34.3532 39.598C34.5044 39.598 34.6496 39.5389 34.7578 39.4333L35.2175 38.9735C35.6064 39.2288 36.0331 39.4212 36.4819 39.5436V40.1919C36.4813 40.2669 36.4956 40.3413 36.524 40.4108C36.5525 40.4802 36.5944 40.5433 36.6475 40.5963C36.7005 40.6494 36.7636 40.6914 36.8331 40.7198C36.9025 40.7483 36.9769 40.7626 37.052 40.762H38.2152C38.2904 40.7626 38.365 40.7483 38.4347 40.7199C38.5044 40.6915 38.5678 40.6496 38.6212 40.5966C38.6747 40.5436 38.7171 40.4806 38.746 40.4111C38.775 40.3416 38.7899 40.2671 38.7898 40.1919V39.5896C39.2495 39.4808 39.6898 39.3026 40.0956 39.0609L40.5553 39.5206C40.6635 39.6262 40.8087 39.6853 40.9599 39.6853C41.1111 39.6853 41.2563 39.6262 41.3645 39.5206L42.1874 38.6977C42.2408 38.6447 42.2832 38.5816 42.3121 38.5122C42.341 38.4428 42.3559 38.3683 42.3559 38.2931C42.3559 38.2179 42.341 38.1434 42.3121 38.0739C42.2832 38.0045 42.2408 37.9415 42.1874 37.8885L41.7277 37.4287C41.9565 37.0345 42.1254 36.6084 42.2288 36.1644H42.9368C43.0893 36.1644 43.2354 36.1039 43.3432 35.9961C43.451 35.8883 43.5115 35.7421 43.5115 35.5897V34.4265C43.516 34.3472 43.504 34.2678 43.4763 34.1934C43.4485 34.119 43.4056 34.0511 43.3503 33.9941C43.295 33.9371 43.2285 33.8921 43.155 33.8621C43.0814 33.8321 43.0025 33.8176 42.9231 33.8196ZM38.3025 37.9575C37.684 38.0822 37.0418 38.0046 36.4708 37.736C35.8999 37.4674 35.4306 37.0221 35.1324 36.4661C34.8342 35.91 34.723 35.2727 34.8151 34.6486C34.9073 34.0244 35.198 33.4464 35.6441 33.0003C36.0903 32.5541 36.6682 32.2635 37.2924 32.1713C37.9166 32.0792 38.5539 32.1904 39.1099 32.4886C39.666 32.7868 40.1112 33.2561 40.3798 33.827C40.6484 34.3979 40.7261 35.0402 40.6013 35.6587C40.488 36.227 40.2094 36.7492 39.8004 37.1598C39.3915 37.5704 38.8704 37.8511 38.3025 37.9667V37.9575Z" fill="white"/>
<path d="M78.8068 15.0156H58.3017C57.2886 15.0156 56.4673 15.8369 56.4673 16.8501V32.1002C56.4673 33.1133 57.2886 33.9346 58.3017 33.9346H78.8068C79.82 33.9346 80.6413 33.1133 80.6413 32.1002V16.8501C80.6413 15.8369 79.82 15.0156 78.8068 15.0156Z" fill="#90B2FF"/>
<path d="M64.4809 27.6543C64.4058 27.6545 64.3314 27.639 64.2626 27.609C64.1937 27.5789 64.1319 27.5348 64.0809 27.4796L61.5339 24.7533C61.4273 24.6364 61.3682 24.4839 61.3682 24.3257C61.3682 24.1675 61.4273 24.015 61.5339 23.8981L64.1269 21.1396C64.1773 21.0842 64.2387 21.04 64.3072 21.0098C64.3757 20.9795 64.4497 20.9639 64.5246 20.9639C64.5995 20.9639 64.6735 20.9795 64.742 21.0098C64.8105 21.04 64.8719 21.0842 64.9223 21.1396C65.0289 21.2565 65.088 21.4089 65.088 21.5671C65.088 21.7253 65.0289 21.8778 64.9223 21.9947L62.7292 24.3395L64.8809 26.6383C64.9875 26.7551 65.0466 26.9076 65.0466 27.0658C65.0466 27.224 64.9875 27.3765 64.8809 27.4934C64.8291 27.5466 64.7668 27.5884 64.6979 27.6161C64.629 27.6438 64.5551 27.6568 64.4809 27.6543Z" fill="white"/>
<path d="M72.6369 27.6543C72.5616 27.655 72.4871 27.6399 72.4182 27.6098C72.3492 27.5796 72.2875 27.5353 72.2369 27.4796C72.1303 27.3627 72.0712 27.2102 72.0712 27.052C72.0712 26.8938 72.1303 26.7413 72.2369 26.6245L74.3839 24.3257L72.1955 21.9809C72.0889 21.864 72.0298 21.7116 72.0298 21.5534C72.0298 21.3952 72.0889 21.2427 72.1955 21.1258C72.2459 21.0704 72.3073 21.0262 72.3758 20.996C72.4443 20.9657 72.5183 20.9501 72.5932 20.9501C72.6681 20.9501 72.7421 20.9657 72.8106 20.996C72.8791 21.0262 72.9405 21.0704 72.9909 21.1258L75.5839 23.8843C75.6905 24.0012 75.7496 24.1537 75.7496 24.3119C75.7496 24.4701 75.6905 24.6226 75.5839 24.7395L73.0323 27.4658C72.9839 27.5239 72.9234 27.5708 72.8552 27.6034C72.7869 27.6359 72.7125 27.6533 72.6369 27.6543Z" fill="white"/>
<path d="M67.2899 28.4037C67.2173 28.4037 67.1455 28.3897 67.0784 28.3624C66.9362 28.2943 66.8249 28.1749 66.7669 28.0283C66.709 27.8816 66.7085 27.7185 66.7657 27.5716L69.2944 20.9235C69.3188 20.8519 69.3576 20.786 69.4085 20.7301C69.4594 20.6741 69.5213 20.6292 69.5903 20.5982C69.6593 20.5671 69.7339 20.5506 69.8095 20.5496C69.8852 20.5486 69.9602 20.5632 70.03 20.5925C70.1719 20.6597 70.283 20.7782 70.341 20.924C70.399 21.0699 70.3996 21.2324 70.3426 21.3787L67.814 28.0267C67.7744 28.1348 67.7033 28.2286 67.6099 28.2958C67.5164 28.363 67.4049 28.4006 67.2899 28.4037Z" fill="white"/>
<path d="M47.2033 35.2449H96.549C96.7514 35.2449 96.9455 35.3253 97.0886 35.4684C97.2317 35.6116 97.3121 35.8057 97.3121 36.0081V37.5713H46.4355V36.0081C46.4355 35.9075 46.4554 35.8079 46.4941 35.715C46.5327 35.6221 46.5893 35.5377 46.6607 35.4668C46.7321 35.3959 46.8167 35.3398 46.9099 35.3017C47.003 35.2636 47.1027 35.2443 47.2033 35.2449Z" fill="white"/>
<path d="M46.4355 37.5713H97.3213V63.2808C97.3213 63.6576 97.1717 64.0189 96.9052 64.2854C96.6388 64.5518 96.2775 64.7015 95.9007 64.7015H47.8608C47.484 64.7015 47.1227 64.5518 46.8562 64.2854C46.5898 64.0189 46.4401 63.6576 46.4401 63.2808V37.5713H46.4355Z" fill="#407BFF"/>
<path d="M94.8798 36.4081C94.8798 36.479 94.8588 36.5483 94.8194 36.6073C94.78 36.6663 94.724 36.7122 94.6584 36.7394C94.5929 36.7665 94.5208 36.7736 94.4512 36.7598C94.3817 36.746 94.3178 36.7118 94.2676 36.6617C94.2175 36.6115 94.1833 36.5476 94.1695 36.478C94.1556 36.4085 94.1628 36.3364 94.1899 36.2708C94.217 36.2053 94.263 36.1493 94.322 36.1099C94.3809 36.0705 94.4503 36.0495 94.5212 36.0495C94.6163 36.0495 94.7075 36.0872 94.7748 36.1545C94.842 36.2218 94.8798 36.313 94.8798 36.4081Z" fill="#FF6224"/>
<path d="M92.4203 36.4081C92.4203 36.479 92.3993 36.5483 92.3599 36.6073C92.3205 36.6663 92.2645 36.7122 92.199 36.7394C92.1334 36.7665 92.0613 36.7736 91.9918 36.7598C91.9222 36.746 91.8583 36.7118 91.8082 36.6617C91.758 36.6115 91.7239 36.5476 91.71 36.478C91.6962 36.4085 91.7033 36.3364 91.7304 36.2708C91.7576 36.2053 91.8035 36.1493 91.8625 36.1099C91.9215 36.0705 91.9908 36.0495 92.0617 36.0495C92.1568 36.0495 92.2481 36.0872 92.3153 36.1545C92.3826 36.2218 92.4203 36.313 92.4203 36.4081Z" fill="#FF6224"/>
<path d="M89.9604 36.4081C89.9604 36.479 89.9393 36.5483 89.8999 36.6073C89.8605 36.6663 89.8045 36.7122 89.739 36.7394C89.6735 36.7665 89.6014 36.7736 89.5318 36.7598C89.4622 36.746 89.3984 36.7118 89.3482 36.6617C89.298 36.6115 89.2639 36.5476 89.2501 36.478C89.2362 36.4085 89.2433 36.3364 89.2705 36.2708C89.2976 36.2053 89.3436 36.1493 89.4025 36.1099C89.4615 36.0705 89.5309 36.0495 89.6018 36.0495C89.6969 36.0495 89.7881 36.0872 89.8553 36.1545C89.9226 36.2218 89.9604 36.313 89.9604 36.4081Z" fill="#FF6224"/>
<path d="M77.3541 41.2355H49.0745C48.944 41.2355 48.8189 41.1837 48.7266 41.0914C48.6344 40.9992 48.5825 40.8741 48.5825 40.7436C48.5825 40.6131 48.6344 40.488 48.7266 40.3957C48.8189 40.3035 48.944 40.2516 49.0745 40.2516H77.3541C77.4805 40.2599 77.5988 40.3166 77.6845 40.41C77.7701 40.5033 77.8164 40.6261 77.8138 40.7528C77.8118 40.8763 77.7633 40.9945 77.6782 41.0839C77.593 41.1733 77.4773 41.2275 77.3541 41.2355Z" fill="white"/>
<path d="M77.354 44.3664H49.0745C48.944 44.3664 48.8189 44.3146 48.7266 44.2224C48.6344 44.1301 48.5825 44.005 48.5825 43.8745C48.5825 43.744 48.6344 43.6189 48.7266 43.5267C48.8189 43.4344 48.944 43.3826 49.0745 43.3826H77.354C77.4845 43.3826 77.6096 43.4344 77.7019 43.5267C77.7942 43.6189 77.846 43.744 77.846 43.8745C77.846 44.005 77.7942 44.1301 77.7019 44.2224C77.6096 44.3146 77.4845 44.3664 77.354 44.3664Z" fill="white"/>
<path d="M63.851 47.4974H49.0745C48.944 47.4974 48.8189 47.4456 48.7266 47.3533C48.6344 47.2611 48.5825 47.1359 48.5825 47.0055C48.5825 46.875 48.6344 46.7499 48.7266 46.6576C48.8189 46.5654 48.944 46.5135 49.0745 46.5135H63.851C63.9815 46.5135 64.1066 46.5654 64.1989 46.6576C64.2911 46.7499 64.343 46.875 64.343 47.0055C64.343 47.1359 64.2911 47.2611 64.1989 47.3533C64.1066 47.4456 63.9815 47.4974 63.851 47.4974Z" fill="white"/>
<path d="M77.354 53.7547H49.0745C48.944 53.7547 48.8189 53.7028 48.7266 53.6106C48.6344 53.5183 48.5825 53.3932 48.5825 53.2627C48.5825 53.1323 48.6344 53.0071 48.7266 52.9149C48.8189 52.8226 48.944 52.7708 49.0745 52.7708H77.354C77.4845 52.7708 77.6096 52.8226 77.7019 52.9149C77.7942 53.0071 77.846 53.1323 77.846 53.2627C77.846 53.3932 77.7942 53.5183 77.7019 53.6106C77.6096 53.7028 77.4845 53.7547 77.354 53.7547Z" fill="white"/>
<path d="M63.851 56.8856H49.0745C48.944 56.8856 48.8189 56.8338 48.7266 56.7415C48.6344 56.6493 48.5825 56.5241 48.5825 56.3937C48.5825 56.2632 48.6344 56.1381 48.7266 56.0458C48.8189 55.9536 48.944 55.9017 49.0745 55.9017H63.851C63.9799 55.9017 64.1037 55.9523 64.1957 56.0426C64.2877 56.1328 64.3405 56.2556 64.343 56.3845C64.3442 56.4499 64.3324 56.5148 64.3082 56.5756C64.284 56.6363 64.248 56.6916 64.2022 56.7383C64.1564 56.7849 64.1017 56.822 64.0414 56.8473C63.9811 56.8726 63.9164 56.8856 63.851 56.8856Z" fill="white"/>
<path d="M63.851 60.0165H49.0745C48.944 60.0165 48.8189 59.9647 48.7266 59.8725C48.6344 59.7802 48.5825 59.6551 48.5825 59.5246C48.5825 59.3941 48.6344 59.269 48.7266 59.1768C48.8189 59.0845 48.944 59.0327 49.0745 59.0327H63.851C63.9815 59.0327 64.1066 59.0845 64.1989 59.1768C64.2911 59.269 64.343 59.3941 64.343 59.5246C64.343 59.6551 64.2911 59.7802 64.1989 59.8725C64.1066 59.9647 63.9815 60.0165 63.851 60.0165Z" fill="white"/>
<path d="M77.354 47.4974H66.7336C66.6032 47.4974 66.478 47.4456 66.3858 47.3533C66.2935 47.2611 66.2417 47.1359 66.2417 47.0055C66.2417 46.875 66.2935 46.7499 66.3858 46.6576C66.478 46.5654 66.6032 46.5135 66.7336 46.5135H77.354C77.4788 46.5217 77.5958 46.5771 77.6812 46.6685C77.7666 46.7599 77.814 46.8804 77.8138 47.0055C77.814 47.1305 77.7666 47.251 77.6812 47.3424C77.5958 47.4338 77.4788 47.4892 77.354 47.4974Z" fill="white"/>
<path d="M91.3537 40.4677L83.8458 47.9755C83.8005 48.0216 83.7465 48.0581 83.6869 48.083C83.6273 48.108 83.5633 48.1208 83.4987 48.1208C83.4341 48.1208 83.3702 48.108 83.3106 48.083C83.251 48.0581 83.1969 48.0216 83.1516 47.9755C83.1056 47.9302 83.0691 47.8762 83.0441 47.8166C83.0192 47.757 83.0063 47.693 83.0063 47.6284C83.0063 47.5638 83.0192 47.4999 83.0441 47.4403C83.0691 47.3807 83.1056 47.3266 83.1516 47.2813L90.6594 39.7735C90.7048 39.7275 90.7588 39.6909 90.8184 39.666C90.878 39.6411 90.9419 39.6282 91.0065 39.6282C91.0711 39.6282 91.1351 39.6411 91.1947 39.666C91.2543 39.6909 91.3083 39.7275 91.3537 39.7735C91.3997 39.8188 91.4362 39.8729 91.4612 39.9325C91.4861 39.9921 91.4989 40.056 91.4989 40.1206C91.4989 40.1852 91.4861 40.2492 91.4612 40.3087C91.4362 40.3683 91.3997 40.4224 91.3537 40.4677Z" fill="white"/>
<path d="M91.5672 55.6968C92.1314 53.3176 90.66 50.9314 88.2808 50.3673C85.9015 49.8031 83.5154 51.2745 82.9512 53.6537C82.387 56.0329 83.8584 58.4191 86.2377 58.9832C88.6169 59.5474 91.003 58.076 91.5672 55.6968Z" fill="#FF6224"/>
<path d="M86.673 57.7637C86.673 58.2593 86.526 58.7438 86.2507 59.1558C85.9753 59.5679 85.584 59.889 85.1262 60.0787C84.6683 60.2683 84.1645 60.3179 83.6785 60.2213C83.1924 60.1246 82.7459 59.8859 82.3955 59.5355C82.0451 59.1851 81.8065 58.7386 81.7098 58.2526C81.6131 57.7665 81.6627 57.2627 81.8523 56.8049C82.042 56.347 82.3632 55.9557 82.7752 55.6804C83.1873 55.405 83.6717 55.2581 84.1673 55.2581C84.8318 55.2581 85.4692 55.5221 85.9391 55.992C86.409 56.4619 86.673 57.0992 86.673 57.7637Z" fill="#20C3C5"/>
<path d="M46.4399 61.9521V70.9036L54.665 62.6785" fill="#407BFF"/>
<path d="M37.6816 73.3265H55.7317L62.2602 85.887H44.2102L37.6816 73.3265Z" fill="#FF9A6C"/>
<path d="M44.5734 84.9583L39.1667 74.5586C39.1447 74.5096 39.1352 74.4558 39.139 74.4022C39.1428 74.3486 39.1598 74.2967 39.1884 74.2512C39.2171 74.2057 39.2565 74.168 39.3033 74.1414C39.35 74.1149 39.4026 74.1002 39.4563 74.0989H55.0881C55.1478 74.0982 55.2065 74.1143 55.2577 74.1451C55.3088 74.176 55.3504 74.2205 55.3777 74.2736L60.7844 84.6779C60.8052 84.727 60.8139 84.7805 60.8096 84.8337C60.8052 84.8869 60.7881 84.9382 60.7597 84.9834C60.7312 85.0285 60.6923 85.0662 60.6462 85.093C60.6 85.1199 60.5481 85.1352 60.4948 85.1376H44.8631C44.8029 85.1378 44.7438 85.1211 44.6926 85.0894C44.6414 85.0577 44.6001 85.0123 44.5734 84.9583Z" fill="white"/>
<path d="M58.8302 85.887H44.21V87.5651H58.8302V85.887Z" fill="#FF5817"/>
<path d="M71.3773 85.887H56.9593C56.8491 85.887 56.7399 85.9088 56.638 85.9511C56.5362 85.9935 56.4438 86.0555 56.366 86.1337C56.2883 86.2119 56.2267 86.3047 56.1849 86.4067C56.1432 86.5088 56.122 86.6181 56.1226 86.7284C56.122 86.8384 56.1432 86.9475 56.185 87.0493C56.2269 87.1511 56.2885 87.2436 56.3663 87.3214C56.4441 87.3992 56.5366 87.4608 56.6384 87.5027C56.7402 87.5445 56.8493 87.5657 56.9593 87.5651H71.3773C71.4873 87.5657 71.5964 87.5445 71.6982 87.5027C71.8 87.4608 71.8925 87.3992 71.9703 87.3214C72.0481 87.2436 72.1097 87.1511 72.1516 87.0493C72.1934 86.9475 72.2146 86.8384 72.214 86.7284C72.2146 86.6181 72.1934 86.5088 72.1517 86.4067C72.1099 86.3047 72.0483 86.2119 71.9706 86.1337C71.8928 86.0555 71.8004 85.9935 71.6985 85.9511C71.5967 85.9088 71.4875 85.887 71.3773 85.887Z" fill="#FF8548"/>
<path d="M44.2056 85.887L37.677 73.3265L37.3506 73.5702C37.2487 73.6471 37.1774 73.7578 37.1496 73.8825C37.1218 74.0071 37.1393 74.1376 37.1989 74.2506L44.2056 87.5835V85.887Z" fill="#FF6C37"/>
<path d="M50.78 86.6686H49.1709V86.9491H50.78V86.6686Z" fill="white"/>
<path d="M52.803 86.6686H51.1938V86.9491H52.803V86.6686Z" fill="white"/>
<path d="M54.8259 86.6686H53.2168V86.9491H54.8259V86.6686Z" fill="white"/>
<path d="M77.1149 110.479C77.1149 110.479 62.1452 122.139 59.7683 125.1C58.8718 126.221 57.3132 128.185 55.6948 130.198C53.0375 133.504 50.2192 136.952 49.8835 137.035C49.3502 137.168 44.8538 133.748 44.7205 133.012C44.6377 132.552 48.7295 125.532 52.2697 119.886C54.4259 116.456 56.3753 113.528 57.0603 112.893C58.8672 111.215 70.007 105.316 70.007 105.316L77.1149 110.479Z" fill="#407BFF"/>
<g style="mix-blend-mode:overlay" opacity="0.15">
<path d="M48.541 134.543C48.541 134.543 62.5314 114.631 69.5519 111.279" stroke="black" stroke-width="0.818478" stroke-miterlimit="10" stroke-linecap="round"/>
</g>
<path d="M92.7234 59.3545C92.5625 59.7177 92.3832 60.0901 92.1809 60.4763C91.082 62.5682 91.8912 64.6647 90.6453 65.198C90.5637 65.2321 90.479 65.2583 90.3924 65.2762C88.7833 65.6348 85.073 63.4923 84.9075 62.4165C84.742 61.3406 86.0523 59.5108 84.9075 59.2855C83.7627 59.0603 83.1467 60.9866 83.1467 60.9866C82.2271 61.0878 81.8731 59.5108 80.3284 59.5108C80.1126 59.5106 79.8978 59.5384 79.6893 59.5936C79.0335 59.7813 78.4285 60.1145 77.9192 60.5683C77.7548 60.7099 77.6011 60.8636 77.4595 61.028C77.0453 60.7384 76.7091 60.351 76.4805 59.9003C76.2519 59.4496 76.1381 58.9494 76.1492 58.4442C76.2595 55.7316 77.2618 53.7547 79.6755 53.3501C79.9421 50.3341 82.434 48.7203 85.7443 48.6192C88.6499 48.5318 89.0867 51.1433 89.1557 51.7961C89.1162 50.6858 88.8237 49.5993 88.3005 48.6192C89.7579 48.5548 91.0591 49.5939 90.705 52.9823C91.0407 51.9754 92.2176 51.3364 93.1188 52.0628C92.282 52.0628 91.4774 53.4696 91.4774 53.4696C92.1519 53.9378 92.7153 54.5483 93.128 55.2581C93.6751 56.2236 93.4452 57.6442 92.7234 59.3545Z" fill="#382424"/>
<path d="M90.6454 65.198L90.6087 65.6945L90.4799 67.4554C90.4799 67.4554 87.7996 69.7542 86.2778 67.4554L86.2456 67.4094C85.7858 66.7106 85.3491 66.4899 84.9629 66.421C84.1215 66.3198 83.4457 67.1382 82.7468 66.2508C81.2583 64.2824 80.2151 62.0141 79.6895 59.6028C79.898 59.5476 80.1128 59.5198 80.3285 59.52C81.8733 59.52 82.2089 61.097 83.1468 60.9958C83.1468 60.9958 83.7675 59.0741 84.9077 59.2947C86.0479 59.5154 84.7468 61.3544 84.9077 62.4257C84.9812 62.8854 85.7582 63.598 86.7467 64.1865C87.8915 64.8716 89.3214 65.4187 90.2317 65.3129L90.3926 65.2854C90.4795 65.2645 90.5642 65.2352 90.6454 65.198Z" fill="#FFAD94"/>
<g style="mix-blend-mode:overlay" opacity="0.25">
<path d="M91.0637 68.4761C89.8546 69.299 87.6432 69.4369 87.6432 69.4369L85.8317 69.1703C85.8317 69.1703 85.0731 68.0715 85.4271 67.4554C85.5557 67.2727 85.7106 67.11 85.8869 66.9727C86.5363 66.4654 87.232 66.0205 87.965 65.644C88.6746 65.2335 89.4539 64.9576 90.2638 64.8302C91.8223 64.7428 92.2683 67.6485 91.0637 68.4761Z" fill="black"/>
</g>
<path d="M90.6871 97.8269C87.9929 98.3464 82.292 96.7603 79.561 95.5281C79.0037 95.336 78.4964 95.0218 78.076 94.6086C77.5519 93.6891 78.076 92.9765 79.3771 90.0478C79.5242 89.7168 79.6805 89.3628 79.8369 88.972C80.715 86.8985 80.7196 82.4802 80.715 78.6642C80.715 75.4046 80.692 72.5909 81.2115 72.0897C82.3333 71.0047 87.947 67.4554 87.947 67.4554L89.0688 73.2805C89.0688 73.2805 89.6986 76.2413 90.3653 80.0987C91.6066 87.1881 92.9859 97.3901 90.6871 97.8269Z" fill="black"/>
<path d="M92.5812 100.42C92.5812 100.687 89.9008 106.944 87.648 107.84C85.3952 108.737 71.837 107.748 71.837 107.748L65.1291 112.134L66.536 125.348L67.5153 134.543L67.5429 134.842C65.4923 136.18 60.3247 136.538 59.7684 135.384C59.2305 134.221 51.0054 109.45 54.2283 105.16C57.4512 100.87 78.0988 94.6086 78.0988 94.6086C78.6836 94.9686 79.299 95.2762 79.9379 95.5281C82.3404 96.4217 84.8332 97.0507 87.3721 97.4039C88.2227 97.5372 88.9721 97.6338 89.5468 97.7027C90.2686 97.7901 90.7054 97.8223 90.7054 97.8223C90.7054 97.8223 92.5812 100.149 92.5812 100.42Z" fill="#407BFF"/>
<path d="M68.3935 143.471H50.9549C50.9238 143.306 50.9345 143.135 50.9858 142.975C51.0372 142.814 51.1277 142.669 51.2492 142.552C51.9572 141.701 53.7272 140.846 55.4375 140.106C57.0605 139.407 58.619 138.805 59.1156 138.391C60.3477 137.416 59.7776 135.522 59.7454 135.403C59.9339 135.794 60.665 136.01 61.5845 136.074C63.4235 136.207 66.182 135.748 67.5199 134.86L67.4923 134.561C68.0072 135.554 68.2555 140.465 68.3383 142.552C68.3843 143.113 68.3935 143.471 68.3935 143.471Z" fill="black"/>
<path d="M61.6074 136.06C61.5569 136.892 61.4373 138.239 61.1936 138.598C60.8396 139.136 56.9915 141.016 56.4582 140.837C56.0724 140.658 55.7256 140.405 55.4375 140.092C57.0604 139.393 58.619 138.791 59.1155 138.377C60.3477 137.403 59.7776 135.508 59.7454 135.389C59.9569 135.78 60.6695 135.996 61.6074 136.06Z" fill="#161616"/>
<path d="M68.3935 143.471H50.9549C50.9238 143.306 50.9345 143.135 50.9858 142.975C51.0372 142.814 51.1277 142.669 51.2492 142.552H68.3613C68.3843 143.113 68.3935 143.471 68.3935 143.471Z" fill="#161616"/>
<path d="M49.8837 137.035C49.1902 138.867 48.3635 140.647 47.4102 142.359C46.9505 143.099 46.5229 143.577 46.2195 143.458C45.1436 143.058 34.367 133.895 35.4014 133.224C35.6144 133.108 35.8494 133.039 36.0911 133.021C37.4034 132.949 38.7196 133.001 40.022 133.178C41.2541 133.306 42.4035 133.444 43.0012 133.444C44.523 133.444 44.7207 132.984 44.7207 132.984C44.9007 133.34 45.1546 133.654 45.4655 133.904C46.7988 135.196 49.4791 137.136 49.8837 137.035Z" fill="black"/>
<path d="M45.4654 133.932C44.7136 134.437 43.8379 134.728 42.9328 134.773C42.0278 134.817 41.1278 134.614 40.3299 134.184C40.1959 134.061 40.0968 133.903 40.0427 133.729C39.9887 133.555 39.9815 133.369 40.0219 133.191C41.254 133.32 42.4034 133.458 43.0011 133.458C44.5229 133.458 44.7206 132.998 44.7206 132.998C44.899 133.359 45.153 133.678 45.4654 133.932Z" fill="#161616"/>
<path d="M47.4102 142.359C46.9505 143.099 46.5229 143.577 46.2195 143.458C45.1436 143.058 34.367 133.895 35.4014 133.224C35.6144 133.108 35.8494 133.039 36.0911 133.021L47.4102 142.359Z" fill="#161616"/>
<path d="M79.5884 86.4157C78.7471 87.5881 77.2345 89.3812 75.9931 89.1973L75.8414 89.1743C73.4691 88.7559 59.5293 85.2572 58.8672 85.1284C58.2052 84.9997 53.5065 84.9491 53.7731 84.4572C54.0398 83.9652 56.7248 82.4021 57.4512 82.4389C58.1776 82.4756 60.9867 83.294 63.8004 83.2066C66.6141 83.1193 73.9932 83.2066 73.9932 83.2066L74.3518 82.586L74.8805 81.6665C74.7196 84.4296 78.0115 86.6364 79.5884 86.4157Z" fill="#FFAD94"/>
<g style="mix-blend-mode:overlay" opacity="0.15">
<path d="M79.5883 96.5947C79.5883 96.5947 78.9446 100.015 81.4503 101.156" stroke="black" stroke-width="0.818478" stroke-miterlimit="10" stroke-linecap="round"/>
</g>
<g style="mix-blend-mode:overlay" opacity="0.15">
<path d="M78.2733 99.3441C78.2733 99.3441 61.722 106.411 60.9175 108.599C60.1129 110.787 65.1288 134.543 65.1288 134.543" stroke="black" stroke-width="0.818478" stroke-miterlimit="10" stroke-linecap="round"/>
</g>
<g style="mix-blend-mode:overlay" opacity="0.15">
<path d="M92.5811 100.42C92.5811 100.687 89.9007 106.944 87.6479 107.84C85.3951 108.737 71.8369 107.748 71.8369 107.748L65.1291 112.134L66.5359 125.348C66.5359 125.348 63.6992 110.263 63.6992 109.256C63.6992 108.415 82.4343 103.031 87.3721 97.3947C89.303 97.7028 90.7053 97.8131 90.7053 97.8131C90.7053 97.8131 92.5811 100.149 92.5811 100.42Z" fill="black"/>
</g>
<g style="mix-blend-mode:overlay" opacity="0.25">
<path d="M83.7494 84.4296C82.5862 86.0801 80.715 88.172 79.3955 90.0662C79.5426 89.7352 79.6989 89.3812 79.8553 88.9904C80.7334 86.9169 80.738 82.4986 80.7334 78.6826L84.7517 76.0298C84.7517 76.0298 85.6298 81.7538 83.7494 84.4296Z" fill="black"/>
</g>
<path d="M80.3239 85.9054C80.1492 86.0663 79.9745 86.2226 79.7952 86.3652C79.7281 86.388 79.6587 86.4034 79.5883 86.4111C78.0113 86.6318 74.7195 84.402 74.8666 81.6711C74.9578 81.2688 75.1131 80.8839 75.3263 80.5309C76.6734 77.8137 80.7239 71.7679 81.4687 72.0484C81.4687 72.0484 84.0755 72.4484 84.7835 76.0069C85.4226 79.3723 83.0319 83.3951 80.3239 85.9054Z" fill="black"/>
<g style="mix-blend-mode:overlay" opacity="0.25">
<path d="M89.5469 97.7074C88.9722 97.6384 88.2228 97.5418 87.3722 97.4085C84.8334 97.0553 82.3405 96.4263 79.938 95.5327C81.9609 95.4591 86.2964 94.1534 86.8343 84.2135C87.0856 86.1445 87.4509 88.0589 87.9286 89.9467C88.5976 92.5048 89.1377 95.095 89.5469 97.7074Z" fill="black"/>
</g>
<g style="mix-blend-mode:overlay" opacity="0.25">
<path d="M88.4754 65.0003C88.2987 65.2048 88.1344 65.4197 87.9835 65.644C87.2511 66.0161 86.5553 66.4564 85.9054 66.9589C85.6715 66.6633 85.3351 66.4664 84.9629 66.4072L86.7467 64.1635C87.294 64.4987 87.8731 64.779 88.4754 65.0003Z" fill="black"/>
</g>
<g style="mix-blend-mode:overlay" opacity="0.25">
<path d="M79.5885 86.4157C78.7472 87.5881 77.2346 89.3812 75.9932 89.1973L75.8415 89.1743C74.3059 86.9537 74.2508 84.0434 74.3381 82.586L74.8668 81.6665C74.7197 84.4296 78.0116 86.6364 79.5885 86.4157Z" fill="black"/>
</g>
<g style="mix-blend-mode:overlay" opacity="0.25">
<path d="M92.7234 59.3545C92.5625 59.7177 92.3832 60.0901 92.1809 60.4763C91.7556 61.3852 91.5165 62.37 91.4774 63.3728C91.3001 63.2378 91.1159 63.1119 90.9257 62.9958C90.0053 63.5263 89.1777 64.2033 88.4752 65.0003C86.8385 64.4118 85.0271 63.1613 84.9121 62.4119C84.7512 61.3406 86.0569 59.5062 84.9121 59.2809C83.7673 59.0557 83.1513 60.982 83.1513 60.982C82.2317 61.0832 81.8777 59.5062 80.333 59.5062C80.1173 59.506 79.9024 59.5338 79.6939 59.589C79.0381 59.7767 78.4331 60.1099 77.9238 60.5637C77.9238 60.5637 79.6663 58.1178 82.3927 58.6143C82.3927 58.6143 81.9927 57.8511 80.1582 57.943C84.0018 56.6879 86.4615 57.1844 87.6477 58.5683C88.6086 59.7039 90.8752 61.1062 92.7234 59.3545Z" fill="black"/>
</g>
<path d="M100.539 112.134H87.1235C87.1235 112.134 97.7669 109.004 97.7669 87.9007C97.7669 87.6295 97.7669 87.3628 97.7669 87.0962C97.6611 72.9909 94.6451 65.2118 90.9303 62.9958C92.4104 62.1489 94.0147 61.5407 95.6842 61.1935C96.6612 60.9822 97.6499 60.8287 98.645 60.7338C107.84 59.8143 115.169 63.4004 116.042 67.4738C116.916 71.5472 111.537 112.134 100.539 112.134Z" fill="#EBEBEB"/>
<path d="M97.767 87.9007C97.767 109.004 87.1236 112.134 87.1236 112.134H65.1289L66.0484 111.482L71.8413 107.748L83.4594 106.958C84.0846 104.365 85.7857 104.282 88.3788 104.011C89.8868 103.854 90.0339 101.307 89.5741 97.9372C89.1671 95.2465 88.6177 92.5792 87.9282 89.9467C87.4501 88.0544 87.0847 86.1353 86.834 84.1997C86.5691 82.1443 86.4294 80.0746 86.4156 78.0022C86.3809 74.3142 86.7338 70.6328 87.4684 67.0186C87.5236 66.752 87.5788 66.4945 87.634 66.2508C87.634 66.2508 87.634 66.2508 87.634 66.2279C87.8523 65.7852 88.1291 65.3739 88.4569 65.0049C89.1593 64.2079 89.987 63.5309 90.9074 63.0004C91.0976 63.1165 91.2818 63.2424 91.4591 63.3774C94.9165 66.0118 97.6383 73.6989 97.744 87.1008C97.767 87.3628 97.767 87.6479 97.767 87.9007Z" fill="#B2B2B2"/>
<path d="M93.5234 143.471H77.6894C77.5705 143.471 77.4546 143.434 77.3578 143.365C77.2611 143.296 77.1884 143.198 77.1499 143.086C77.1114 142.974 77.109 142.852 77.1431 142.738C77.1771 142.624 77.246 142.524 77.3399 142.451L81.2984 139.352C82.1678 138.672 82.8706 137.802 83.3534 136.81C83.8362 135.817 84.0863 134.727 84.0846 133.623V112.134H87.1236V133.623C87.1242 134.726 87.3757 135.814 87.8593 136.805C88.3428 137.796 89.0455 138.664 89.9143 139.343L93.8728 142.442C93.9706 142.513 94.043 142.614 94.0795 142.73C94.116 142.846 94.1147 142.97 94.0757 143.085C94.0368 143.2 93.9622 143.299 93.8629 143.368C93.7635 143.438 93.6446 143.474 93.5234 143.471Z" fill="#E8E8E8"/>
<g style="mix-blend-mode:multiply">
<path d="M105.602 61.5245C105.602 61.5245 105.717 61.8234 105.905 62.4165" stroke="#B2B2B2" stroke-width="0.818478" stroke-miterlimit="10" stroke-linecap="round"/>
<path d="M106.438 64.2463C107.24 67.3503 107.839 70.5033 108.231 73.6851C109.67 84.7882 108.208 100.374 98.5488 110.249" stroke="#B2B2B2" stroke-width="0.818478" stroke-miterlimit="10" stroke-linecap="round" stroke-dasharray="4.15 4.15"/>
<path d="M97.8683 110.925C97.6431 111.141 97.4086 111.353 97.1787 111.564" stroke="#B2B2B2" stroke-width="0.818478" stroke-miterlimit="10" stroke-linecap="round"/>
</g>
<g style="mix-blend-mode:overlay" opacity="0.15">
<path d="M87.1239 112.134V117.992C86.1452 118.495 85.1292 118.922 84.085 119.27V112.134H87.1239Z" fill="black"/>
</g>
<g style="mix-blend-mode:overlay" opacity="0.15">
<path d="M91.3304 103.013C90.6132 105.247 86.149 104.852 85.6064 106.502C84.4571 110.01 83.818 108.466 79.3951 108.912C76.8665 109.169 75.0321 110.792 73.924 112.13H65.1289L66.0484 111.477L71.8413 107.744L83.4594 106.958C84.0846 104.365 85.7857 104.282 88.3788 104.011C89.8868 103.854 90.0339 101.307 89.5741 97.9372C89.1671 95.2465 88.6177 92.5792 87.9282 89.9467C87.4501 88.0544 87.0847 86.1353 86.834 84.1997C86.5691 82.1443 86.4294 80.0746 86.4156 78.0022C88.1213 86.9766 91.8591 101.358 91.3304 103.013Z" fill="black"/>
</g>
<g style="mix-blend-mode:overlay" opacity="0.15">
<path d="M97.7669 87.9007C97.7669 87.6295 97.7669 87.3628 97.7669 87.0962C97.6611 72.9909 94.6451 65.2118 90.9303 62.9958C92.4104 62.1489 94.0147 61.5407 95.6842 61.1935C95.0681 62.0809 94.4291 63.4095 94.7325 64.8256C95.2704 67.3359 101.348 76.9907 99.0266 92.4615C97.3485 103.624 97.9048 109.431 99.6565 112.134H87.1235C87.1235 112.134 97.7669 109.004 97.7669 87.9007Z" fill="black"/>
</g>
<g style="mix-blend-mode:overlay" opacity="0.25">
<path d="M21.0152 76.4068C21.0126 76.8704 20.9634 77.3325 20.8681 77.7861H16.5556C14.6193 76.5368 13.0362 74.8113 11.958 72.7748C13.112 74.0299 15.0843 75.5609 17.0935 76.0299C18.8635 76.416 20.1693 76.2413 21.0152 76.4068Z" fill="black"/>
</g>
<path d="M31.0383 59.2671C30.5785 61.0188 28.3487 64.4118 26.3304 68.0485C24.1235 72.0116 22.1558 76.2597 22.9236 78.9585C23.0831 79.4545 23.1774 79.9691 23.204 80.4895C23.204 81.6665 22.3213 81.2987 21.4202 80.6366C20.7659 80.1242 20.1512 79.5632 19.5811 78.9585L19.6501 73.7311C19.6501 73.7311 16.6847 71.0047 19.1168 65.0463C19.2731 64.6693 19.4478 64.2785 19.6501 63.8693C23.0017 57.0971 28.0315 49.9893 23.2684 47.9755C29.8337 47.571 32.0451 55.6075 31.0383 59.2671Z" fill="#E0E0E0"/>
<g style="mix-blend-mode:overlay" opacity="0.53">
<path d="M23.2591 47.9755C24.496 48.2738 25.5671 49.0445 26.2429 50.1226C26.4166 50.385 26.5703 50.6601 26.7027 50.9456C26.8298 51.2343 26.9388 51.5306 27.0291 51.8329C27.1238 52.1336 27.1961 52.441 27.2452 52.7524L27.3279 53.2122L27.3601 53.6719C27.2755 54.9356 26.9883 56.1774 26.5096 57.35C26.0498 58.5315 25.5625 59.6809 25.0429 60.8211C23.9947 63.1199 22.8637 65.3451 21.8706 67.6439C21.3627 68.7844 20.9236 69.9542 20.5557 71.1472C20.376 71.7377 20.2452 72.3421 20.1649 72.9541C20.0672 73.5469 20.1081 74.1544 20.2845 74.7287C20.2995 74.7757 20.2959 74.8267 20.2745 74.8711C20.2532 74.9156 20.2156 74.9502 20.1695 74.9678C20.1219 74.9842 20.0699 74.9813 20.0243 74.9599C19.9788 74.9384 19.9435 74.9 19.9259 74.8529C19.738 74.2223 19.6971 73.557 19.8063 72.9081C19.8998 72.2772 20.0427 71.6546 20.2339 71.0461C20.6232 69.8458 21.0838 68.6698 21.6132 67.5244C22.6384 65.2256 23.797 63.005 24.8728 60.7384C25.4062 59.6074 25.9257 58.4626 26.3762 57.2948C26.864 56.144 27.1636 54.9224 27.2636 53.6765L27.2406 53.2168L27.167 52.757C27.119 52.4462 27.0499 52.1389 26.9601 51.8375C26.8733 51.538 26.7705 51.2433 26.6521 50.9548C26.5172 50.6706 26.3636 50.3956 26.1923 50.1318C25.5295 49.0614 24.4785 48.2888 23.2591 47.9755Z" fill="black"/>
</g>
<path d="M28.022 69.8369C26.0128 75.1379 28.022 79.1562 25.0014 79.7263C23.6221 79.9929 23.0106 78.9677 22.7577 77.7769C22.5809 76.7722 22.5469 75.7476 22.6566 74.7333C23.0568 73.7999 23.5928 72.9307 24.2474 72.1541C25.1872 70.9543 26.5267 70.132 28.022 69.8369Z" fill="#B3B2B2"/>
<path d="M21.0155 76.4069C21.0155 77.639 20.7259 78.7056 20.1512 79.2344C20.0995 79.2872 20.0442 79.3363 19.9857 79.3815C18.5604 80.5355 17.6501 78.4206 17.6501 78.4206C17.6501 78.4206 13.8571 76.5494 11.9767 72.7564C10.5331 69.8369 10.2159 65.7819 13.6043 60.5683C14.1008 64.2785 16.1375 66.8072 18.1559 69.2117C18.4041 69.5151 18.6524 69.8094 18.9007 70.1036C20.2797 71.9149 21.023 74.1303 21.0155 76.4069Z" fill="#EBEBEB"/>
<g style="mix-blend-mode:overlay" opacity="0.53">
<path d="M13.6043 60.5683C13.2777 62.1664 13.191 63.8042 13.3469 65.4279C13.4794 67.0553 13.9894 68.6295 14.8365 70.0254C15.6824 71.4047 16.8502 72.5541 17.9123 73.8046C18.46 74.4247 18.9237 75.1141 19.2915 75.8552C19.6568 76.6242 19.8153 77.4751 19.7513 78.324C19.7466 78.3733 19.7228 78.4187 19.6849 78.4505C19.6471 78.4823 19.5983 78.498 19.549 78.4942C19.524 78.493 19.4995 78.4868 19.477 78.4759C19.4545 78.465 19.4344 78.4496 19.4181 78.4306C19.4017 78.4117 19.3894 78.3896 19.3819 78.3658C19.3743 78.3419 19.3718 78.3167 19.3743 78.2919C19.4513 77.5054 19.3197 76.7125 18.9927 75.9931C18.6504 75.2673 18.2112 74.5914 17.687 73.9839C16.6617 72.7334 15.4985 71.5518 14.6664 70.122C13.8367 68.698 13.3503 67.1002 13.2457 65.4555C13.1211 63.8176 13.242 62.1704 13.6043 60.5683Z" fill="black"/>
</g>
<g style="mix-blend-mode:overlay" opacity="0.25">
<path d="M28.0221 69.8369C27.4474 70.5036 26.9095 71.2162 26.3992 71.9196C25.8889 72.6231 25.4015 73.3955 24.9648 74.1311C24.0524 75.6196 23.4286 77.2667 23.1257 78.9861C23.1178 79.0358 23.0907 79.0804 23.0504 79.1105C23.01 79.1405 22.9595 79.1536 22.9096 79.147C22.8854 79.1436 22.862 79.1355 22.841 79.123C22.8199 79.1104 22.8016 79.0938 22.787 79.0741C22.7724 79.0544 22.7619 79.032 22.7562 79.0082C22.7504 78.9844 22.7494 78.9597 22.7533 78.9355C23.1266 77.1878 23.827 75.5265 24.8176 74.0391C25.2774 73.2897 25.8015 72.5679 26.3348 71.8691C26.8681 71.1702 27.4199 70.4852 28.0221 69.8369Z" fill="black"/>
</g>
<path d="M26.7807 79.0918L25.4934 86.995C25.4642 87.1561 25.3789 87.3017 25.2527 87.406C25.1265 87.5103 24.9675 87.5667 24.8038 87.5651H16.804C16.64 87.566 16.4808 87.5094 16.3541 87.4053C16.2273 87.3012 16.1409 87.1561 16.1098 86.995L15.0662 80.5584L14.8225 79.0734C14.8044 78.9718 14.8087 78.8674 14.8352 78.7676C14.8617 78.6678 14.9097 78.575 14.9759 78.4957C15.042 78.4165 15.1247 78.3526 15.2181 78.3086C15.3116 78.2647 15.4135 78.2417 15.5167 78.2413H26.0911C26.1964 78.2402 26.3006 78.2628 26.3959 78.3076C26.4912 78.3524 26.5751 78.4181 26.6414 78.4999C26.7077 78.5817 26.7547 78.6774 26.7788 78.7799C26.803 78.8824 26.8036 78.9891 26.7807 79.0918Z" fill="#E0E0E0"/>
<path d="M28.022 80.701H13.604L13.9856 78.5493C14.0249 78.3328 14.138 78.1366 14.3056 77.9941C14.4733 77.8516 14.6851 77.7716 14.9051 77.7677H26.6979C26.9181 77.7708 27.1304 77.8505 27.2982 77.9931C27.466 78.1358 27.5789 78.3324 27.6174 78.5493L28.022 80.701Z" fill="#8A8A8A"/>
<g style="mix-blend-mode:overlay" opacity="0.25">
<path d="M22.6431 74.7333C22.5334 75.7445 22.5674 76.7661 22.7442 77.7677H20.8546C20.9499 77.3141 20.9992 76.852 21.0018 76.3885C21.0093 74.112 20.2659 71.8965 18.8869 70.0852C18.6386 69.791 18.3904 69.4967 18.1421 69.1933C18.2028 67.7584 18.5254 66.3468 19.0938 65.0279C19.2041 66.9267 19.6731 70.2323 21.5673 70.5817C23.0109 70.8438 24.8867 69.414 26.3166 68.0301C25.5626 69.3864 24.8361 70.7886 24.2339 72.1357C23.5778 72.918 23.0417 73.7934 22.6431 74.7333Z" fill="black"/>
</g>
<g style="mix-blend-mode:overlay" opacity="0.25">
<path d="M21.59 87.5651H16.804C16.6399 87.566 16.4808 87.5094 16.354 87.4053C16.2272 87.3012 16.1408 87.1561 16.1097 86.995L15.0845 80.701H19.2223C19.0477 81.9649 19.0772 83.2486 19.3096 84.5032C19.6901 85.7582 20.4966 86.8411 21.59 87.5651Z" fill="black"/>
</g>
<path d="M57.8513 3.55391H37.3461C36.333 3.55391 35.5117 4.37521 35.5117 5.38834V20.6384C35.5117 21.6516 36.333 22.4729 37.3461 22.4729H57.8513C58.8644 22.4729 59.6857 21.6516 59.6857 20.6384V5.38834C59.6857 4.37521 58.8644 3.55391 57.8513 3.55391Z" fill="#FF6C37"/>
<path d="M41.1388 10.248V12.2847C41.1388 12.3627 41.1698 12.4376 41.2249 12.4927C41.2801 12.5479 41.355 12.5789 41.433 12.5789H42.5594C42.6379 12.5789 42.7132 12.5481 42.7691 12.493C42.825 12.438 42.857 12.3631 42.8583 12.2847V10.248C42.8583 10.1699 42.8893 10.0951 42.9444 10.0399C42.9996 9.98472 43.0745 9.95372 43.1525 9.95372H43.2582C43.3367 9.95371 43.412 9.98456 43.4679 10.0396C43.5239 10.0947 43.5559 10.1695 43.5571 10.248V15.765C43.5559 15.8435 43.5239 15.9183 43.4679 15.9734C43.412 16.0284 43.3367 16.0593 43.2582 16.0593H43.1525C43.0745 16.0593 42.9996 16.0283 42.9444 15.9731C42.8893 15.9179 42.8583 15.8431 42.8583 15.765V13.4938C42.8583 13.4146 42.8268 13.3386 42.7707 13.2825C42.7147 13.2265 42.6387 13.195 42.5594 13.195H41.433C41.3546 13.1962 41.2797 13.2282 41.2247 13.2841C41.1696 13.34 41.1388 13.4154 41.1388 13.4938V15.765C41.1388 15.8431 41.1078 15.9179 41.0526 15.9731C40.9974 16.0283 40.9226 16.0593 40.8445 16.0593H40.7342C40.6561 16.0593 40.5813 16.0283 40.5261 15.9731C40.4709 15.9179 40.4399 15.8431 40.4399 15.765V10.248C40.4399 10.1699 40.4709 10.0951 40.5261 10.0399C40.5813 9.98472 40.6561 9.95372 40.7342 9.95372H40.8445C40.9226 9.95372 40.9974 9.98472 41.0526 10.0399C41.1078 10.0951 41.1388 10.1699 41.1388 10.248Z" fill="white"/>
<path d="M45.07 10.579H44.5413C44.4633 10.579 44.3884 10.548 44.3332 10.4928C44.2781 10.4376 44.2471 10.3628 44.2471 10.2847V10.248C44.2471 10.1699 44.2781 10.0951 44.3332 10.0399C44.3884 9.98472 44.4633 9.95372 44.5413 9.95372H46.8861C46.9641 9.95372 47.0389 9.98472 47.0941 10.0399C47.1493 10.0951 47.1803 10.1699 47.1803 10.248V10.2847C47.1803 10.3628 47.1493 10.4376 47.0941 10.4928C47.0389 10.548 46.9641 10.579 46.8861 10.579H46.3573C46.2793 10.579 46.2045 10.61 46.1493 10.6652C46.0941 10.7203 46.0631 10.7952 46.0631 10.8732V15.7834C46.0631 15.8615 46.0321 15.9363 45.9769 15.9915C45.9217 16.0467 45.8469 16.0777 45.7689 16.0777H45.6585C45.5805 16.0777 45.5056 16.0467 45.4505 15.9915C45.3953 15.9363 45.3643 15.8615 45.3643 15.7834V10.8686C45.3631 10.7914 45.3315 10.7177 45.2765 10.6635C45.2214 10.6093 45.1473 10.579 45.07 10.579Z" fill="white"/>
<path d="M51.5343 13.4433C51.4883 12.6341 51.4423 11.733 51.4699 11.0433H51.4331C51.2952 11.7238 51.1343 12.4502 50.9412 13.172L50.1872 16.0409H49.7274L49.0102 13.2824C48.8125 12.5008 48.6286 11.7468 48.5137 11.0387H48.4861C48.4861 11.756 48.4493 12.6111 48.4125 13.4846L48.3068 15.7834C48.3022 15.8587 48.2693 15.9294 48.2147 15.9814C48.1601 16.0334 48.0879 16.0629 48.0125 16.0639H47.9804C47.9401 16.064 47.9003 16.0558 47.8634 16.0399C47.8264 16.0239 47.7931 16.0006 47.7655 15.9713C47.7379 15.942 47.7167 15.9073 47.703 15.8695C47.6894 15.8316 47.6836 15.7914 47.6861 15.7512L48.0125 10.2342C48.0172 10.1594 48.0503 10.0892 48.105 10.0379C48.1597 9.98663 48.2318 9.95817 48.3068 9.95831H48.5551C48.6203 9.95828 48.6837 9.97994 48.7353 10.0199C48.7869 10.0598 48.8238 10.1158 48.8401 10.179L49.5022 12.7582C49.7136 13.5674 49.8654 14.1651 49.9941 14.8639H50.0217C50.1366 14.1651 50.2745 13.5858 50.4814 12.7582L51.1159 10.1836C51.1313 10.1196 51.1678 10.0625 51.2195 10.0217C51.2712 9.98086 51.3351 9.95854 51.401 9.95831H51.6722C51.7472 9.95817 51.8193 9.98663 51.874 10.0379C51.9287 10.0892 51.9618 10.1594 51.9664 10.2342L52.2883 15.7512C52.2908 15.7914 52.285 15.8316 52.2714 15.8695C52.2577 15.9073 52.2365 15.942 52.2089 15.9713C52.1813 16.0006 52.148 16.0239 52.1111 16.0399C52.0741 16.0558 52.0343 16.064 51.994 16.0639H51.9343C51.8586 16.064 51.7857 16.0349 51.7309 15.9826C51.6761 15.9304 51.6436 15.859 51.64 15.7834L51.5343 13.4433Z" fill="white"/>
<path d="M53.5614 9.94913H53.6718C53.7498 9.94913 53.8246 9.98013 53.8798 10.0353C53.935 10.0905 53.966 10.1653 53.966 10.2434V15.1903C53.9672 15.2688 53.9992 15.3436 54.0551 15.3987C54.1111 15.4537 54.1864 15.4846 54.2648 15.4846H55.4004C55.4785 15.4846 55.5533 15.5156 55.6085 15.5708C55.6637 15.626 55.6947 15.7008 55.6947 15.7788C55.6947 15.8569 55.6637 15.9317 55.6085 15.9869C55.5533 16.0421 55.4785 16.0731 55.4004 16.0731H53.5614C53.4834 16.0731 53.4085 16.0421 53.3534 15.9869C53.2982 15.9317 53.2672 15.8569 53.2672 15.7788V10.2618C53.2647 10.2216 53.2704 10.1814 53.2841 10.1435C53.2977 10.1057 53.319 10.071 53.3466 10.0417C53.3742 10.0124 53.4075 9.98907 53.4444 9.97315C53.4814 9.95722 53.5212 9.94905 53.5614 9.94913Z" fill="white"/>
<path d="M67.2026 5.17685C67.3333 5.19114 67.4655 5.1756 67.5893 5.13139C67.7131 5.08718 67.8253 5.01545 67.9173 4.92162C68.0094 4.82778 68.079 4.71428 68.1208 4.58966C68.1627 4.46504 68.1757 4.33255 68.1589 4.20217C68.1524 3.80559 68.1248 3.40964 68.0762 3.016C68.026 2.60859 67.9968 2.19886 67.9888 1.78845C67.9888 0.528719 68.7566 0 69.7497 0H69.9152V0.726415H69.7083C69.1198 0.726415 68.8853 1.14479 68.8853 1.77466C68.8907 2.12853 68.9183 2.4817 68.9681 2.8321C68.9957 3.1953 69.0371 3.53092 69.0371 3.86655C69.0371 4.95617 68.6739 5.32857 68.0762 5.49868V5.52627C68.6739 5.70557 69.0509 6.08257 69.0371 7.18599C69.0371 7.5354 68.9957 7.88481 68.9681 8.23423C68.9189 8.58931 68.8913 8.94704 68.8853 9.30546C68.8853 9.93533 69.0922 10.3675 69.7221 10.3675H69.9152V11.0939H69.7359C68.8164 11.0939 67.9888 10.6342 67.9888 9.30546C67.9968 8.89047 68.026 8.47615 68.0762 8.06412C68.1239 7.66578 68.1515 7.26528 68.1589 6.86416C68.1751 6.73406 68.162 6.60201 68.1207 6.47759C68.0795 6.35317 68.011 6.2395 67.9203 6.14485C67.8296 6.05019 67.719 5.97692 67.5964 5.93037C67.4739 5.88381 67.3425 5.86513 67.2118 5.87568L67.2026 5.17685Z" fill="black"/>
<path d="M81.423 5.87568C81.2921 5.86426 81.1603 5.88235 81.0374 5.92861C80.9144 5.97486 80.8034 6.04812 80.7126 6.14297C80.6217 6.23782 80.5532 6.35186 80.5123 6.47667C80.4713 6.60148 80.4589 6.7339 80.4759 6.86416C80.4833 7.26528 80.5109 7.66578 80.5586 8.06412C80.6073 8.47623 80.6349 8.89054 80.6414 9.30546C80.6414 10.6342 79.8184 11.0939 78.8989 11.0939H78.7334V10.3675H78.9265C79.5564 10.2985 79.7632 9.93533 79.7632 9.30546C79.7632 8.92846 79.7219 8.58364 79.6943 8.23423C79.6462 7.88674 79.6185 7.53672 79.6115 7.18599C79.6115 6.08257 79.9747 5.70557 80.5724 5.52627V5.49868C79.9747 5.32857 79.5977 4.95617 79.6115 3.86655C79.6196 3.52045 79.6472 3.17508 79.6943 2.8321C79.7219 2.49647 79.7632 2.15166 79.7632 1.77466C79.7632 1.14479 79.5242 0.795379 78.9403 0.726415H78.7334V0H78.8989C79.8874 0 80.6552 0.528719 80.6552 1.78845C80.6487 2.19878 80.6211 2.60851 80.5724 3.016C80.5238 3.40964 80.4962 3.80559 80.4897 4.20217C80.4722 4.33188 80.4845 4.46385 80.5255 4.58812C80.5665 4.7124 80.6352 4.82574 80.7264 4.9196C80.8176 5.01346 80.929 5.08538 81.052 5.12995C81.1751 5.17451 81.3066 5.19055 81.4368 5.17685L81.423 5.87568Z" fill="black"/>
<path d="M76.6369 6.88714V4.20217L74.3151 2.85968L71.9888 4.20217V6.88714L74.3151 8.22963L76.6369 6.88714Z" fill="#FF6C37"/>
<path d="M94.1257 20.2615C92.9469 19.6722 91.5996 19.5121 90.3155 19.8087C89.0315 20.1052 87.8908 20.8399 87.0898 21.8864C86.2887 22.9329 85.8773 24.2258 85.9263 25.5427C85.9753 26.8597 86.4816 28.1185 87.3581 29.1026L86.5076 29.0014C86.4608 29.0002 86.4152 29.0165 86.3797 29.047C86.3442 29.0776 86.3213 29.1203 86.3156 29.1668C86.3099 29.2132 86.3216 29.2602 86.3486 29.2985C86.3756 29.3367 86.4159 29.3636 86.4616 29.3738L87.7627 29.5301C87.7873 29.5329 87.8122 29.5306 87.8359 29.5235C87.8596 29.5164 87.8816 29.5046 87.9006 29.4888C87.92 29.4739 87.9361 29.4552 87.9479 29.4338C87.9598 29.4125 87.9672 29.3889 87.9696 29.3646L88.1213 28.1095C88.1274 28.0595 88.1134 28.0091 88.0824 27.9695C88.0513 27.9298 88.0058 27.9041 87.9558 27.898C87.9058 27.8919 87.8554 27.9059 87.8158 27.937C87.7761 27.968 87.7504 28.0135 87.7443 28.0635L87.6524 28.8635C86.8248 27.9475 86.3435 26.771 86.2918 25.5376C86.2401 24.3042 86.6212 23.0916 87.3692 22.1095C88.1172 21.1274 89.185 20.4378 90.3878 20.1599C91.5906 19.8821 92.8526 20.0334 93.9556 20.5879C93.9997 20.6069 94.0493 20.6083 94.0944 20.592C94.1395 20.5757 94.1767 20.5428 94.1984 20.5C94.22 20.4572 94.2246 20.4078 94.2111 20.3617C94.1976 20.3157 94.1671 20.2766 94.1257 20.2523V20.2615Z" fill="#FF6C37"/>
<path d="M89.2386 30.6749C90.4172 31.2617 91.7634 31.4199 93.0459 31.1223C94.3285 30.8248 95.4675 30.0901 96.2674 29.0444C97.0674 27.9986 97.4783 26.7071 97.4298 25.3913C97.3813 24.0756 96.8764 22.8178 96.0016 21.8338L96.8568 21.935C96.8813 21.9382 96.9062 21.9364 96.93 21.9297C96.9539 21.923 96.9761 21.9116 96.9954 21.8962C97.0147 21.8807 97.0307 21.8616 97.0424 21.8398C97.0542 21.818 97.0614 21.7941 97.0636 21.7694C97.0668 21.7449 97.0651 21.72 97.0584 21.6962C97.0517 21.6723 97.0403 21.6501 97.0249 21.6308C97.0094 21.6115 96.9902 21.5955 96.9685 21.5838C96.9467 21.572 96.9228 21.5648 96.8981 21.5625L95.6016 21.4062C95.577 21.4035 95.5521 21.4058 95.5284 21.4129C95.5047 21.42 95.4827 21.4318 95.4637 21.4476C95.4444 21.4625 95.4283 21.4812 95.4164 21.5026C95.4045 21.5239 95.3972 21.5474 95.3947 21.5717L95.243 22.8269C95.2418 22.8737 95.2581 22.9193 95.2886 22.9548C95.3192 22.9903 95.3619 23.0131 95.4084 23.0188C95.4548 23.0246 95.5018 23.0128 95.5401 22.9858C95.5783 22.9588 95.6052 22.9186 95.6154 22.8729L95.712 22.0729C96.5395 22.9889 97.0208 24.1654 97.0726 25.3988C97.1243 26.6322 96.7432 27.8448 95.9952 28.8269C95.2472 29.8089 94.1794 30.4986 92.9766 30.7764C91.7738 31.0543 90.5117 30.9029 89.4087 30.3485C89.3868 30.3367 89.3627 30.3295 89.3379 30.3274C89.3132 30.3252 89.2882 30.328 89.2646 30.3358C89.2409 30.3435 89.2191 30.3559 89.2004 30.3724C89.1817 30.3888 89.1666 30.4088 89.1558 30.4312C89.1362 30.4748 89.1338 30.5242 89.1492 30.5694C89.1645 30.6146 89.1965 30.6523 89.2386 30.6749Z" fill="#FF6C37"/>
<path d="M139.563 41.2355H105.509C105.211 41.2355 104.925 41.1175 104.714 40.9072C104.503 40.697 104.384 40.4116 104.383 40.1137C104.383 39.815 104.501 39.5285 104.713 39.3172C104.924 39.106 105.21 38.9873 105.509 38.9873H139.563C139.862 38.9873 140.149 39.106 140.36 39.3172C140.571 39.5285 140.69 39.815 140.69 40.1137C140.689 40.4116 140.569 40.697 140.358 40.9072C140.147 41.1175 139.861 41.2355 139.563 41.2355Z" fill="#FF6C37"/>
<path d="M127.403 46.1227H105.509C105.211 46.1227 104.925 46.0047 104.714 45.7944C104.503 45.5842 104.384 45.2989 104.383 45.0009C104.383 44.7022 104.501 44.4157 104.713 44.2044C104.924 43.9932 105.21 43.8745 105.509 43.8745H127.403C127.702 43.8745 127.988 43.9932 128.199 44.2044C128.411 44.4157 128.529 44.7022 128.529 45.0009C128.528 45.2989 128.409 45.5842 128.198 45.7944C127.987 46.0047 127.701 46.1227 127.403 46.1227Z" fill="#407BFF"/>
<path d="M127.403 51.3685H105.509C105.211 51.3685 104.925 51.2505 104.714 51.0402C104.503 50.83 104.384 50.5447 104.383 50.2467C104.383 49.948 104.501 49.6615 104.713 49.4502C104.924 49.239 105.21 49.1203 105.509 49.1203H127.403C127.702 49.1203 127.988 49.239 128.199 49.4502C128.411 49.6615 128.529 49.948 128.529 50.2467C128.528 50.5447 128.409 50.83 128.198 51.0402C127.987 51.2505 127.701 51.3685 127.403 51.3685Z" fill="#407BFF"/>
<path d="M18.8132 22.5602H1.12181C0.824285 22.5602 0.538949 22.442 0.32857 22.2317C0.11819 22.0213 0 21.7359 0 21.4384C-2.48182e-06 21.1405 0.118041 20.8547 0.328289 20.6435C0.538537 20.4324 0.823863 20.3132 1.12181 20.312H18.8132C19.1112 20.3132 19.3965 20.4324 19.6067 20.6435C19.817 20.8547 19.935 21.1405 19.935 21.4384C19.935 21.7359 19.8168 22.0213 19.6065 22.2317C19.3961 22.442 19.1107 22.5602 18.8132 22.5602Z" fill="#407BFF"/>
<path d="M12.133 27.4474H1.12181C0.824285 27.4474 0.538949 27.3292 0.32857 27.1189C0.11819 26.9085 0 26.6231 0 26.3256C-2.48182e-06 26.0277 0.118041 25.7419 0.328289 25.5308C0.538537 25.3196 0.823863 25.2004 1.12181 25.1992H12.133C12.4309 25.2004 12.7162 25.3196 12.9265 25.5308C13.1367 25.7419 13.2548 26.0277 13.2548 26.3256C13.2548 26.6231 13.1366 26.9085 12.9262 27.1189C12.7158 27.3292 12.4305 27.4474 12.133 27.4474Z" fill="#FF6C37"/>
<path d="M12.133 32.6932H1.12181C0.824285 32.6932 0.538949 32.5751 0.32857 32.3647C0.11819 32.1543 0 31.869 0 31.5714C-2.48182e-06 31.2735 0.118041 30.9877 0.328289 30.7766C0.538537 30.5655 0.823863 30.4463 1.12181 30.445H12.133C12.4309 30.4463 12.7162 30.5655 12.9265 30.7766C13.1367 30.9877 13.2548 31.2735 13.2548 31.5714C13.2548 31.869 13.1366 32.1543 12.9262 32.3647C12.7158 32.5751 12.4305 32.6932 12.133 32.6932Z" fill="#FF6C37"/>
<path d="M125.265 150H10.965C10.0992 150 9.26894 149.656 8.65677 149.044C8.0446 148.432 7.70068 147.601 7.70068 146.736C7.70068 146.307 7.78511 145.883 7.94916 145.487C8.1132 145.091 8.35365 144.731 8.65677 144.428C8.95988 144.124 9.31973 143.884 9.71577 143.72C10.1118 143.556 10.5363 143.471 10.965 143.471H125.265C125.694 143.471 126.118 143.556 126.514 143.72C126.91 143.884 127.27 144.124 127.573 144.428C127.876 144.731 128.117 145.091 128.281 145.487C128.445 145.883 128.529 146.307 128.529 146.736C128.529 147.601 128.185 148.432 127.573 149.044C126.961 149.656 126.131 150 125.265 150Z" fill="#E8E8E8"/>
</g>
<defs>
<clipPath id="clip0_957_10917">
<rect width="140.69" height="150" fill="white"/>
</clipPath>
</defs>
</svg>
