<svg width="171" height="150" viewBox="0 0 171 150" fill="none" xmlns="http://www.w3.org/2000/svg">
<g clip-path="url(#clip0_957_11613)">
<path d="M21.371 130.782H35.3672L35.3672 79.5427H21.371L21.371 130.782Z" fill="#E6E6E6"/>
<path d="M24.6733 130.782H21.3711V121.391H28.133L24.6733 130.782Z" fill="#F0F0F0"/>
<path d="M108.748 130.782H122.744V79.5427H108.748V130.782Z" fill="#E6E6E6"/>
<path d="M21.3749 126.161L111.633 126.161V79.5469L21.3749 79.5469V126.161Z" fill="#F0F0F0"/>
<path d="M65.0614 82.6023V119.774H24.2518V82.6023H65.0614ZM65.3806 82.2832H23.9326V120.093H65.3934V82.2832H65.3806Z" fill="#FAFAFA"/>
<path d="M108.752 82.6023V119.774H67.9297V82.6023H108.752ZM109.071 82.2832H67.6147V120.093H109.075V82.2832H109.071Z" fill="#FAFAFA"/>
<path d="M73.947 91.0536C75.5686 91.0536 76.8833 90.2668 76.8833 89.2962C76.8833 88.3255 75.5686 87.5387 73.947 87.5387C72.3254 87.5387 71.0107 88.3255 71.0107 89.2962C71.0107 90.2668 72.3254 91.0536 73.947 91.0536Z" fill="#FAFAFA"/>
<path d="M59.053 91.0536C60.6746 91.0536 61.9892 90.2668 61.9892 89.2962C61.9892 88.3255 60.6746 87.5387 59.053 87.5387C57.4313 87.5387 56.1167 88.3255 56.1167 89.2962C56.1167 90.2668 57.4313 91.0536 59.053 91.0536Z" fill="#FAFAFA"/>
<path d="M108.331 130.782H111.633V121.391H104.867L108.331 130.782Z" fill="#F0F0F0"/>
<path d="M67.2573 73.5893C67.2573 73.5893 67.5126 79.5469 77.2236 79.5469C86.9345 79.5469 87.1898 73.5893 87.1898 73.5893H67.2573Z" fill="#F5F5F5"/>
<path d="M92.3389 46.0141L167.737 46.0141V-0.00426102L92.3389 -0.00426102V46.0141Z" fill="#E6E6E6"/>
<path d="M90.4539 46.0141L167.473 46.0141V-0.00426102L90.4539 -0.00426102V46.0141Z" fill="#F0F0F0"/>
<path d="M92.3389 47.7758L167.737 47.7758V46.0183L92.3389 46.0183V47.7758Z" fill="#E6E6E6"/>
<path d="M87.3006 47.7758L164.32 47.7758V46.0183L87.3006 46.0183V47.7758Z" fill="#F0F0F0"/>
<path d="M164.822 43.3714V2.64688L93.0963 2.64688V43.3714L164.822 43.3714Z" fill="#FAFAFA"/>
<path d="M142.736 43.3714L138.498 2.64688H131.166L135.404 43.3714H142.736Z" fill="white"/>
<path d="M163.596 31.7413C163.623 31.7419 163.65 31.737 163.675 31.727C163.7 31.7169 163.723 31.7019 163.742 31.6828C163.761 31.6637 163.776 31.641 163.786 31.6159C163.796 31.5909 163.801 31.564 163.8 31.5371V4.36608C163.793 4.31751 163.769 4.27311 163.732 4.241C163.695 4.2089 163.647 4.19122 163.598 4.19122C163.549 4.19122 163.502 4.2089 163.465 4.241C163.427 4.27311 163.403 4.31751 163.396 4.36608V31.5371C163.395 31.5637 163.4 31.5901 163.41 31.6149C163.42 31.6397 163.434 31.6622 163.453 31.6813C163.472 31.7003 163.494 31.7154 163.519 31.7257C163.543 31.736 163.569 31.7413 163.596 31.7413Z" fill="#F0F0F0"/>
<path d="M133.825 43.3714L129.587 2.64688H126.727L130.965 43.3714H133.825Z" fill="white"/>
<path d="M93.4326 43.3714V2.64688H93.0964V43.3714H93.4326Z" fill="#E6E6E6"/>
<path opacity="0.5" d="M89.8237 6.1023H165.839L166.081 3.6767H90.0705L89.8237 6.1023Z" fill="#E0E0E0"/>
<path opacity="0.5" d="M89.8237 10.0896H165.839L166.081 7.66405H90.0705L89.8237 10.0896Z" fill="#E0E0E0"/>
<path opacity="0.5" d="M89.8237 14.077H165.839L166.081 11.6514H90.0705L89.8237 14.077Z" fill="#E0E0E0"/>
<path opacity="0.5" d="M89.8237 18.0643H165.839L166.081 15.6387H90.0705L89.8237 18.0643Z" fill="#E0E0E0"/>
<path opacity="0.5" d="M89.8237 22.0517H165.839L166.081 19.6261H90.0705L89.8237 22.0517Z" fill="#E0E0E0"/>
<path opacity="0.5" d="M89.8237 26.0433H165.839L166.081 23.6134H90.0705L89.8237 26.0433Z" fill="#E0E0E0"/>
<path d="M28.3329 31.6137L74.2661 31.6137V1.20429L28.3329 1.20429L28.3329 31.6137Z" fill="#E0E0E0"/>
<path d="M25.5669 31.6137L73.0576 31.6137V1.20429L25.5669 1.20429L25.5669 31.6137Z" fill="#F5F5F5"/>
<path d="M29.5454 6.53211V26.2859L69.0784 26.2859V6.53211L29.5454 6.53211Z" fill="white"/>
<path d="M3.98328 68.9466H49.9165L49.9165 38.5373L3.98328 38.5373L3.98328 68.9466Z" fill="#E0E0E0"/>
<path d="M1.2129 68.9466H48.7036L48.7036 38.5373L1.2129 38.5373L1.2129 68.9466Z" fill="#F5F5F5"/>
<path d="M5.19189 43.8608L5.19189 63.6146H44.7249V43.8608H5.19189Z" fill="white"/>
<path d="M82.5087 150C128.077 150 165.017 147.843 165.017 145.183C165.017 142.522 128.077 140.366 82.5087 140.366C36.9404 140.366 0 142.522 0 145.183C0 147.843 36.9404 150 82.5087 150Z" fill="#F5F5F5"/>
<path d="M157.679 39.8645L157.51 43.3839L157.944 43.4048L158.113 39.8853L157.679 39.8645Z" fill="#FF6C37"/>
<path d="M158.294 27.3026L157.82 37.1724L158.253 37.1932L158.727 27.3234L158.294 27.3026Z" fill="#FF6C37"/>
<path d="M99.2794 21.8134H152.047C152.75 21.8088 153.447 21.9484 154.095 22.2235C154.743 22.4985 155.327 22.9033 155.812 23.4128C156.297 23.9223 156.673 24.5258 156.916 25.1861C157.159 25.8463 157.265 26.5493 157.226 27.2518L151.872 139.744C151.785 141.202 151.15 142.573 150.094 143.582C149.038 144.591 147.639 145.163 146.179 145.183H93.4197C92.7161 145.187 92.0191 145.048 91.3715 144.773C90.7239 144.498 90.1395 144.093 89.6543 143.583C89.1691 143.074 88.7934 142.47 88.5503 141.81C88.3072 141.15 88.2019 140.447 88.2408 139.744L93.5729 27.2518C93.658 25.791 94.2945 24.417 95.3538 23.4074C96.4131 22.3979 97.8162 21.8282 99.2794 21.8134Z" fill="#FF6C37"/>
<path d="M170.043 70.0488L170.167 67.4657L168.588 67.0062C168.529 66.146 168.399 65.292 168.201 64.4529L169.554 63.4146L168.677 61.0273L167.013 61.2145C166.627 60.4515 166.174 59.7239 165.66 59.04L166.537 57.5804L164.796 55.7548L163.303 56.559C162.638 56.0104 161.926 55.522 161.175 55.0994L161.443 53.4483L159.103 52.4611L158.005 53.7632C157.17 53.518 156.316 53.3457 155.451 53.2483L155.073 51.6525H152.485L151.953 53.2526C151.074 53.3505 150.204 53.5213 149.353 53.7632L148.383 52.4611L145.949 53.4483L146.055 55.0994C145.277 55.5311 144.533 56.0219 143.83 56.5676L142.413 55.759L140.498 57.5846L141.238 59.0442C140.659 59.7251 140.137 60.4524 139.677 61.2188L138.03 61.0315L136.927 63.4188L138.183 64.4571C137.901 65.2891 137.689 66.1431 137.549 67.0104L135.923 67.47L135.8 70.0531L137.383 70.5126C137.438 71.3733 137.568 72.2276 137.77 73.0659L136.417 74.1L137.293 76.4873L138.957 76.3C139.344 77.0644 139.797 77.7934 140.311 78.4788L139.43 79.9342L141.17 81.764L142.668 80.9555C143.327 81.5023 144.031 81.9907 144.775 82.4151L144.511 84.0662L146.851 85.0577L147.949 83.7513C148.784 83.9949 149.638 84.1658 150.502 84.262L150.885 85.8663H153.468L154.005 84.262C154.883 84.1657 155.751 83.9949 156.6 83.7513L157.575 85.0577L160.009 84.0662L159.898 82.4151C160.686 81.9907 161.437 81.5025 162.145 80.9555L163.567 81.764L165.481 79.9342L164.741 78.4788C165.318 77.7943 165.84 77.0658 166.303 76.3L167.95 76.4873L169.052 74.1L167.775 73.0659C168.054 72.2333 168.265 71.3794 168.405 70.5126L170.043 70.0488ZM164.039 68.7722C163.874 71.7416 162.585 74.5372 160.435 76.5918C158.285 78.6464 155.434 79.8063 152.46 79.8363C151.027 79.8505 149.607 79.5699 148.288 79.0119C146.969 78.4538 145.778 77.6303 144.791 76.5926C143.804 75.5549 143.04 74.325 142.548 72.9797C142.056 71.6343 141.847 70.2021 141.932 68.7722C142.098 65.8023 143.387 63.0068 145.538 60.9522C147.689 58.8977 150.541 57.7379 153.515 57.708C154.946 57.6945 156.364 57.9751 157.681 58.5324C158.999 59.0896 160.188 59.9117 161.175 60.9475C162.161 61.9833 162.925 63.2108 163.418 64.5539C163.91 65.897 164.122 67.327 164.039 68.7551V68.7722Z" fill="#FF6C37"/>
<path d="M151.962 23.1751H99.2155C98.1219 23.1896 97.0744 23.6184 96.2846 24.375C95.4948 25.1317 95.0214 26.1598 94.9601 27.2518L89.8621 134.204C89.8516 134.386 89.8787 134.569 89.9417 134.74C90.0047 134.912 90.1023 135.068 90.2284 135.2C90.3545 135.332 90.5064 135.437 90.6748 135.508C90.8431 135.579 91.0242 135.614 91.2068 135.612H149.285C149.664 135.61 150.028 135.462 150.302 135.201C150.577 134.939 150.741 134.582 150.762 134.204L155.843 27.2518C155.877 26.7242 155.801 26.1952 155.621 25.6981C155.441 25.2011 155.159 24.7468 154.795 24.3638C154.43 23.9809 153.99 23.6775 153.503 23.473C153.015 23.2684 152.49 23.167 151.962 23.1751Z" fill="white"/>
<path opacity="0.2" d="M142.477 130.719H98.5093C97.874 130.719 97.2452 130.591 96.6612 130.341C96.0771 130.091 95.5501 129.725 95.1122 129.264C94.6742 128.804 94.3346 128.26 94.1139 127.664C93.8931 127.068 93.796 126.434 93.8283 125.799L95.1816 97.3687C95.2569 96.0535 95.8287 94.8159 96.7813 93.906C97.7339 92.996 98.9963 92.4815 100.314 92.4664H144.277C144.913 92.4625 145.543 92.589 146.128 92.8379C146.714 93.0869 147.242 93.4531 147.681 93.9139C148.119 94.3748 148.459 94.9206 148.678 95.5177C148.898 96.1148 148.993 96.7505 148.958 97.3857L147.617 125.816C147.541 127.133 146.967 128.371 146.013 129.281C145.059 130.191 143.795 130.705 142.477 130.719ZM100.305 92.8452C99.0889 92.8583 97.9229 93.3326 97.0429 94.1723C96.163 95.012 95.6346 96.1544 95.5645 97.3687L94.2113 125.799C94.1762 126.383 94.2617 126.967 94.4625 127.516C94.6632 128.065 94.975 128.567 95.3782 128.99C95.7815 129.414 96.2677 129.749 96.8064 129.976C97.3451 130.203 97.9248 130.317 98.5093 130.31H142.477C143.694 130.297 144.861 129.822 145.742 128.982C146.622 128.141 147.151 126.998 147.221 125.782L148.57 97.3517C148.605 96.7689 148.519 96.1852 148.318 95.6369C148.117 95.0887 147.806 94.5876 147.403 94.1649C147 93.7422 146.515 93.4069 145.977 93.1799C145.439 92.9528 144.86 92.8389 144.277 92.8452H100.305Z" fill="#FF6C37"/>
<path opacity="0.1" d="M107.803 94.8665H91.0582L89.6709 124.033H106.42C107.352 124.021 108.244 123.656 108.917 123.013C109.591 122.369 109.995 121.495 110.05 120.565L111.106 98.3304C111.13 97.8828 111.062 97.4349 110.907 97.0143C110.752 96.5937 110.512 96.2093 110.203 95.8848C109.894 95.5603 109.521 95.3026 109.109 95.1275C108.696 94.9523 108.252 94.8635 107.803 94.8665Z" fill="#FF6C37"/>
<path opacity="0.1" d="M130.242 109.007H118.855C118.625 109.008 118.397 108.961 118.186 108.871C117.975 108.781 117.784 108.649 117.625 108.483C117.466 108.318 117.342 108.121 117.261 107.906C117.179 107.692 117.143 107.462 117.152 107.233L117.693 95.841C117.722 95.3652 117.93 94.9179 118.274 94.5888C118.619 94.2597 119.076 94.0731 119.552 94.0665H130.944C131.174 94.0663 131.401 94.1126 131.613 94.2026C131.824 94.2927 132.015 94.4245 132.174 94.5904C132.333 94.7562 132.457 94.9524 132.538 95.1674C132.619 95.3823 132.656 95.6115 132.646 95.841L132.106 107.233C132.077 107.709 131.869 108.157 131.523 108.486C131.177 108.816 130.72 109.002 130.242 109.007Z" fill="#FF6C37"/>
<path opacity="0.1" d="M148.421 100.037C147.736 100.045 147.079 100.314 146.584 100.788C146.089 101.262 145.792 101.906 145.753 102.59L144.974 118.944C144.955 119.273 145.004 119.603 145.117 119.913C145.231 120.223 145.406 120.507 145.634 120.746C145.861 120.985 146.135 121.176 146.439 121.305C146.743 121.434 147.07 121.499 147.4 121.497H152.238L153.255 100.045L148.421 100.037Z" fill="#FF6C37"/>
<path opacity="0.1" d="M134.851 126.978H123.455C123.225 126.978 122.998 126.932 122.786 126.842C122.575 126.752 122.384 126.62 122.225 126.454C122.066 126.288 121.942 126.092 121.861 125.877C121.78 125.662 121.743 125.433 121.753 125.204L122.293 113.812C122.322 113.336 122.53 112.889 122.875 112.56C123.219 112.23 123.676 112.044 124.153 112.037H135.54C135.77 112.037 135.997 112.083 136.209 112.173C136.42 112.263 136.611 112.395 136.77 112.561C136.929 112.727 137.053 112.923 137.134 113.138C137.215 113.353 137.252 113.582 137.242 113.812L136.702 125.204C136.673 125.678 136.467 126.124 136.123 126.453C135.78 126.782 135.326 126.969 134.851 126.978Z" fill="#FF6C37"/>
<path opacity="0.2" d="M122.727 140.051C122.687 140.774 122.373 141.455 121.849 141.956C121.325 142.456 120.63 142.738 119.906 142.744C119.558 142.745 119.214 142.675 118.895 142.538C118.576 142.401 118.288 142.2 118.049 141.948C117.81 141.696 117.625 141.397 117.505 141.071C117.385 140.745 117.333 140.398 117.352 140.051C117.394 139.328 117.708 138.648 118.232 138.149C118.756 137.649 119.45 137.368 120.174 137.361C120.521 137.361 120.864 137.431 121.183 137.568C121.502 137.705 121.79 137.905 122.029 138.157C122.268 138.408 122.453 138.706 122.573 139.032C122.693 139.357 122.746 139.704 122.727 140.051Z" fill="white"/>
<path opacity="0.2" d="M147.617 85.879H97.6243C97.4035 85.8811 97.1846 85.8379 96.9812 85.7521C96.7777 85.6664 96.594 85.5399 96.4413 85.3804C96.2886 85.2209 96.1701 85.0319 96.0933 84.8249C96.0165 84.6179 95.9828 84.3974 95.9944 84.1769L97.4881 52.7972C97.515 52.3399 97.7145 51.9098 98.0462 51.5939C98.378 51.2779 98.8173 51.0997 99.2754 51.0951H149.26C149.48 51.093 149.699 51.1362 149.902 51.222C150.106 51.3078 150.289 51.4344 150.441 51.5939C150.594 51.7535 150.712 51.9426 150.788 52.1496C150.864 52.3565 150.898 52.577 150.885 52.7972L149.396 84.1769C149.368 84.6324 149.17 85.0607 148.84 85.3762C148.51 85.6918 148.073 85.8713 147.617 85.879Z" fill="#FF9A6C"/>
<path opacity="0.6" d="M150.294 43.5715H98.9563C98.8226 43.5722 98.6902 43.5456 98.5671 43.4933C98.4441 43.4409 98.3332 43.3639 98.2411 43.2671C98.1489 43.1702 98.0777 43.0554 98.0316 42.9299C97.9855 42.8044 97.9657 42.6708 97.9732 42.5374L98.4754 31.9413C98.4915 31.6643 98.6119 31.4036 98.8125 31.2117C99.013 31.0199 99.2788 30.9111 99.5563 30.9073H150.894C151.028 30.9065 151.16 30.9331 151.283 30.9854C151.406 31.0378 151.517 31.1148 151.609 31.2117C151.701 31.3085 151.772 31.4233 151.819 31.5488C151.865 31.6743 151.884 31.8079 151.877 31.9413L151.371 42.5246C151.36 42.8039 151.242 43.0683 151.041 43.2632C150.841 43.458 150.573 43.5684 150.294 43.5715Z" fill="#FF6C37"/>
<path d="M103.293 61.623H100.578L99.667 80.8746H102.378L103.293 61.623Z" fill="#FF6C37"/>
<path d="M108.412 68.7083H105.701L105.123 80.8746H107.833L108.412 68.7083Z" fill="#FF6C37"/>
<path d="M113.676 72.7936H110.965L110.582 80.8746H113.293L113.676 72.7936Z" fill="#FF6C37"/>
<path d="M118.94 76.832H116.229L116.038 80.8746H118.748L118.94 76.832Z" fill="#FF6C37"/>
<path d="M124.902 66.2529H122.191L121.493 80.8746H124.208L124.902 66.2529Z" fill="#FF6C37"/>
<path d="M130.731 58.4442H128.016L126.953 80.8746H129.663L130.731 58.4442Z" fill="#FF6C37"/>
<path d="M136.302 56.0867H133.587L132.408 80.8746H135.123L136.302 56.0867Z" fill="#FF6C37"/>
<path d="M141.302 65.7083H138.587L137.868 80.8746H140.579L141.302 65.7083Z" fill="#FF6C37"/>
<path d="M146.523 70.6148H143.813L143.323 80.8746H146.038L146.523 70.6148Z" fill="#FF6C37"/>
<path d="M103.841 118.076H81.6025C81.1542 118.079 80.71 117.99 80.2973 117.815C79.8846 117.64 79.5121 117.382 79.2028 117.057C78.8934 116.733 78.6538 116.349 78.4986 115.928C78.3434 115.507 78.2759 115.059 78.3003 114.612L79.3599 92.3771C79.4147 91.4473 79.8195 90.5727 80.4929 89.9293C81.1663 89.2858 82.0584 88.9213 82.9898 88.9089H105.224C105.673 88.9059 106.118 88.9948 106.531 89.1702C106.944 89.3456 107.316 89.6037 107.626 89.9287C107.935 90.2536 108.175 90.6385 108.33 91.0596C108.485 91.4807 108.552 91.9291 108.527 92.3771L107.471 114.612C107.416 115.541 107.01 116.414 106.337 117.057C105.664 117.699 104.772 118.063 103.841 118.076Z" fill="#FF6C37"/>
<path opacity="0.8" d="M103.841 118.076H81.6025C81.1542 118.079 80.71 117.99 80.2973 117.815C79.8846 117.64 79.5121 117.382 79.2028 117.057C78.8934 116.733 78.6538 116.349 78.4986 115.928C78.3434 115.507 78.2759 115.059 78.3003 114.612L79.3599 92.3771C79.4147 91.4473 79.8195 90.5727 80.4929 89.9293C81.1663 89.2858 82.0584 88.9213 82.9898 88.9089H105.224C105.673 88.9059 106.118 88.9948 106.531 89.1702C106.944 89.3456 107.316 89.6037 107.626 89.9287C107.935 90.2536 108.175 90.6385 108.33 91.0596C108.485 91.4807 108.552 91.9291 108.527 92.3771L107.471 114.612C107.416 115.541 107.01 116.414 106.337 117.057C105.664 117.699 104.772 118.063 103.841 118.076Z" fill="white"/>
<path d="M103.731 105.19L103.892 101.786L102.309 100.739C102.16 100.168 101.95 99.6147 101.684 99.0879L102.109 97.4709L99.8242 95.0708L98.1944 95.424C97.6795 95.1349 97.1362 94.8996 96.573 94.7218L95.6028 93.0878H92.1985L91.075 94.7218C90.4862 94.9002 89.9161 95.1353 89.3728 95.424L87.7771 95.0708L85.2578 97.4709L85.5344 99.0837C85.2208 99.6105 84.9586 100.166 84.7514 100.743L83.0748 101.786L82.9131 105.19L84.4919 106.237C84.6423 106.809 84.8519 107.364 85.1174 107.892L84.6919 109.505L86.9813 111.91L88.6111 111.556C89.1254 111.844 89.6671 112.079 90.2282 112.259L91.1984 113.888H94.6028L95.7305 112.259C96.3184 112.078 96.8883 111.843 97.4327 111.556L99.0284 111.91L101.548 109.505L101.271 107.892C101.584 107.367 101.846 106.812 102.054 106.237L103.731 105.19ZM93.2198 107.569C92.6915 107.577 92.1672 107.476 91.6799 107.272C91.1927 107.067 90.7529 106.764 90.3884 106.382C90.0239 105.999 89.7425 105.545 89.5619 105.049C89.3812 104.552 89.3053 104.024 89.3388 103.497C89.4001 102.405 89.8735 101.376 90.6633 100.62C91.4531 99.8631 92.5006 99.4343 93.5942 99.4198C94.1229 99.4117 94.6476 99.5131 95.1351 99.7177C95.6227 99.9223 96.0626 100.226 96.4272 100.609C96.7918 100.992 97.0731 101.446 97.2535 101.943C97.4339 102.44 97.5093 102.969 97.4752 103.497C97.4128 104.588 96.939 105.615 96.1493 106.371C95.3596 107.126 94.3127 107.555 93.2198 107.569Z" fill="white"/>
<path d="M127.455 103.85H116.067C115.837 103.85 115.609 103.804 115.398 103.713C115.186 103.623 114.995 103.491 114.836 103.324C114.677 103.158 114.553 102.961 114.472 102.746C114.391 102.53 114.355 102.301 114.365 102.071L114.905 90.6834C114.934 90.2076 115.142 89.7603 115.487 89.4312C115.832 89.1021 116.288 88.9155 116.765 88.9089H128.157C128.387 88.9087 128.614 88.955 128.825 89.045C129.037 89.1351 129.228 89.267 129.387 89.4328C129.546 89.5986 129.67 89.7948 129.751 90.0098C129.832 90.2247 129.869 90.4539 129.859 90.6834L129.319 102.071C129.291 102.548 129.083 102.997 128.737 103.327C128.391 103.657 127.933 103.844 127.455 103.85Z" fill="#FF6C37"/>
<path opacity="0.6" d="M127.455 103.85H116.067C115.837 103.85 115.609 103.804 115.398 103.713C115.186 103.623 114.995 103.491 114.836 103.324C114.677 103.158 114.553 102.961 114.472 102.746C114.391 102.53 114.355 102.301 114.365 102.071L114.905 90.6834C114.934 90.2076 115.142 89.7603 115.487 89.4312C115.832 89.1021 116.288 88.9155 116.765 88.9089H128.157C128.387 88.9087 128.614 88.955 128.825 89.045C129.037 89.1351 129.228 89.267 129.387 89.4328C129.546 89.5986 129.67 89.7948 129.751 90.0098C129.832 90.2247 129.869 90.4539 129.859 90.6834L129.319 102.071C129.291 102.548 129.083 102.997 128.737 103.327C128.391 103.657 127.933 103.844 127.455 103.85Z" fill="white"/>
<path d="M160.971 116.331H144.613C144.283 116.333 143.956 116.268 143.652 116.139C143.348 116.009 143.074 115.819 142.847 115.58C142.619 115.341 142.443 115.057 142.33 114.747C142.217 114.437 142.168 114.107 142.187 113.778L142.966 97.4198C143.005 96.7354 143.302 96.0913 143.797 95.6174C144.292 95.1435 144.949 94.8751 145.634 94.8665H161.988C162.318 94.8636 162.646 94.9287 162.95 95.0576C163.254 95.1865 163.529 95.3765 163.757 95.6159C163.985 95.8553 164.161 96.1389 164.274 96.4492C164.388 96.7595 164.437 97.0899 164.418 97.4198L163.639 113.773C163.601 114.459 163.305 115.104 162.809 115.579C162.314 116.053 161.657 116.322 160.971 116.331Z" fill="#FF6C37"/>
<path opacity="0.4" d="M160.971 116.331H144.613C144.283 116.333 143.956 116.268 143.652 116.139C143.348 116.009 143.074 115.819 142.847 115.58C142.619 115.341 142.443 115.057 142.33 114.747C142.217 114.437 142.168 114.107 142.187 113.778L142.966 97.4198C143.005 96.7354 143.302 96.0913 143.797 95.6174C144.292 95.1435 144.949 94.8751 145.634 94.8665H161.988C162.318 94.8636 162.646 94.9287 162.95 95.0576C163.254 95.1865 163.529 95.3765 163.757 95.6159C163.985 95.8553 164.161 96.1389 164.274 96.4492C164.388 96.7595 164.437 97.0899 164.418 97.4198L163.639 113.773C163.601 114.459 163.305 115.104 162.809 115.579C162.314 116.053 161.657 116.322 160.971 116.331Z" fill="white"/>
<path d="M158.664 105.607L150.379 100.688L149.911 110.522L158.664 105.607Z" fill="white"/>
<path d="M132.059 121.816H120.668C120.438 121.816 120.21 121.77 119.999 121.68C119.788 121.59 119.597 121.458 119.438 121.292C119.279 121.127 119.155 120.93 119.074 120.715C118.992 120.5 118.956 120.271 118.965 120.042L119.531 108.654C119.56 108.178 119.768 107.731 120.113 107.402C120.458 107.073 120.914 106.886 121.391 106.88H132.766C132.996 106.879 133.223 106.926 133.434 107.016C133.646 107.106 133.837 107.238 133.996 107.403C134.155 107.569 134.279 107.766 134.36 107.981C134.441 108.195 134.478 108.425 134.468 108.654L133.928 120.042C133.899 120.519 133.691 120.968 133.344 121.298C132.997 121.627 132.538 121.813 132.059 121.816Z" fill="#FF6C37"/>
<path opacity="0.4" d="M132.059 121.816H120.668C120.438 121.816 120.21 121.77 119.999 121.68C119.788 121.59 119.597 121.458 119.438 121.292C119.279 121.127 119.155 120.93 119.074 120.715C118.992 120.5 118.956 120.271 118.965 120.042L119.531 108.654C119.56 108.178 119.768 107.731 120.113 107.402C120.458 107.073 120.914 106.886 121.391 106.88H132.766C132.996 106.879 133.223 106.926 133.434 107.016C133.646 107.106 133.837 107.238 133.996 107.403C134.155 107.569 134.279 107.766 134.36 107.981C134.441 108.195 134.478 108.425 134.468 108.654L133.928 120.042C133.899 120.519 133.691 120.968 133.344 121.298C132.997 121.627 132.538 121.813 132.059 121.816Z" fill="white"/>
<path d="M125.327 118.701L121.285 114.454L122.225 113.556L125.374 116.863L131.379 111.127L132.276 112.067L125.327 118.701Z" fill="white"/>
<path d="M48.3971 37.7713C48.3759 40.2012 47.9503 44.58 45.9971 45.8056C46.9157 48.0301 48.6672 49.8077 50.8781 50.7589C54.9122 49.5248 53.2611 47.295 53.2611 47.295C50.7844 46.1375 51.2483 44.2183 52.0738 42.4948L48.3971 37.7713Z" fill="#FFB573"/>
<path d="M45.9371 50.5674C46.4903 52.5802 47.0988 54.6398 47.7286 56.6442C48.0478 57.6484 48.3882 58.64 48.7456 59.623C49.0841 60.5738 49.4704 61.5069 49.9031 62.4188C50.0946 62.8245 50.3106 63.2181 50.5499 63.5975C50.6053 63.6741 50.6606 63.7635 50.7074 63.8188L50.784 63.9167C50.8053 63.9507 50.8649 64.0188 50.9031 64.0656L51.4351 64.6954C52.1245 65.5465 52.8138 66.3976 53.4777 67.2487C54.8139 68.9509 56.1076 70.6999 57.3374 72.4999L55.8139 73.8489C54.1798 72.4148 52.6011 70.9297 51.0563 69.419L48.7542 67.1551L48.1882 66.5891C48.1371 66.5381 48.1031 66.5083 48.0392 66.4359L47.852 66.2274C47.7158 66.0827 47.6222 65.9465 47.5116 65.8019C47.1341 65.2946 46.7928 64.7613 46.4903 64.2061C45.4404 62.1979 44.5565 60.1072 43.8476 57.9548C43.1157 55.8569 42.4944 53.7717 41.9497 51.6057L45.9371 50.5674Z" fill="#FFB573"/>
<path d="M40.6009 47.4439C38.8987 49.9291 41.069 56.0612 41.069 56.0612H48.699C48.699 56.0612 48.7714 50.9887 47.7075 49.0312C46.3372 46.5034 41.6988 45.8268 40.6009 47.4439Z" fill="#263238"/>
<path d="M59.648 73.0148L56.699 72.1637L55.1543 72.7765C55.1543 74.4489 57.4607 75.649 57.4607 75.649L59.2438 77.2873C59.428 77.4568 59.6618 77.5628 59.9108 77.5896C60.1597 77.6164 60.4107 77.5626 60.6268 77.4362L61.7375 76.7852C61.8793 76.7028 62.0022 76.5916 62.0983 76.4587C62.1943 76.3258 62.2614 76.1741 62.2951 76.0136C62.3288 75.8532 62.3284 75.6874 62.2939 75.527C62.2594 75.3667 62.1916 75.2154 62.0949 75.083L61.6141 74.4106C61.1326 73.7393 60.4406 73.248 59.648 73.0148Z" fill="#FFB573"/>
<path d="M87.4618 55.8739L83.534 51.9462C83.1229 51.5338 82.8921 50.9752 82.8921 50.3929C82.8921 49.8106 83.1229 49.2521 83.534 48.8397C83.9475 48.4307 84.5057 48.2012 85.0873 48.2012C85.6689 48.2012 86.227 48.4307 86.6405 48.8397L90.5683 52.7675C90.9773 53.1809 91.2067 53.7391 91.2067 54.3207C91.2067 54.9023 90.9773 55.4605 90.5683 55.8739C90.1559 56.285 89.5973 56.5159 89.015 56.5159C88.4327 56.5159 87.8742 56.285 87.4618 55.8739Z" fill="#263238"/>
<path d="M87.4009 52.3341L87.0729 52.0061C86.3749 51.3081 85.2433 51.3081 84.5453 52.0061L82.0147 54.5367C81.3167 55.2347 81.3167 56.3663 82.0147 57.0643L82.3427 57.3923C83.0406 58.0902 84.1723 58.0902 84.8703 57.3923L87.4009 54.8617C88.0989 54.1637 88.0989 53.032 87.4009 52.3341Z" fill="#263238"/>
<path d="M48.1031 94.9729L44.4392 91.309C44.3345 91.2064 44.2513 91.0839 44.1945 90.9487C44.1377 90.8135 44.1084 90.6684 44.1084 90.5217C44.1084 90.3751 44.1377 90.2299 44.1945 90.0947C44.2513 89.9596 44.3345 89.8371 44.4392 89.7345L81.7381 53.7462C81.9448 53.5448 82.2219 53.432 82.5105 53.432C82.7991 53.432 83.0762 53.5448 83.2829 53.7462L85.6361 56.0995C85.8386 56.3056 85.952 56.5829 85.952 56.8718C85.952 57.1607 85.8386 57.4381 85.6361 57.6442L49.6479 94.9431C49.4457 95.1496 49.1705 95.2684 48.8816 95.274C48.5927 95.2796 48.3131 95.1714 48.1031 94.9729Z" fill="#263238"/>
<path d="M86.4067 47.0567C85.5193 45.7954 84.7582 44.4498 84.1343 43.0395L85.1428 21.7623C85.1428 21.6176 85.1428 21.4772 85.1726 21.3368C85.4192 18.8936 86.5159 16.6146 88.2712 14.8973C90.0266 13.1801 92.3291 12.1337 94.7771 11.9408C95.0027 11.9408 95.2282 11.911 95.4538 11.911H117.544C118.858 12.6178 120.106 13.4424 121.271 14.3749C123.918 16.4964 126.088 19.1522 127.639 22.1688C129.19 25.1854 130.088 28.4951 130.274 31.8821C130.46 35.2691 129.93 38.6572 128.718 41.8255C127.506 44.9938 125.64 47.871 123.242 50.2695C122.872 50.6397 122.501 50.9887 122.114 51.3249C119.565 53.5654 116.572 55.2433 113.331 56.2489C110.089 57.2545 106.672 57.5652 103.303 57.1609C99.9333 56.7565 96.6868 55.646 93.7754 53.9021C90.8641 52.1581 88.3532 49.8197 86.4067 47.0396V47.0567Z" fill="#FF6C37"/>
<path d="M89.117 50.2865C88.1211 49.2909 87.214 48.2102 86.4062 47.0567L87.6063 21.7794C87.7164 19.7964 88.5767 17.9297 90.0126 16.5578C91.4485 15.1859 93.3526 14.4115 95.3384 14.3919H121.271C123.918 16.5135 126.088 19.1692 127.639 22.1858C129.19 25.2024 130.088 28.5121 130.274 31.8991C130.46 35.2861 129.929 38.6743 128.718 41.8425C127.506 45.0108 125.64 47.888 123.241 50.2865C122.871 50.6568 122.501 51.0057 122.114 51.3419C117.51 55.3929 111.536 57.5385 105.407 57.3424C99.2772 57.1464 93.4526 54.6234 89.117 50.2865Z" fill="white"/>
<path opacity="0.6" d="M123.242 50.2865C122.871 50.6568 122.501 51.0057 122.114 51.3419H94.879C94.637 51.344 94.3971 51.2965 94.1742 51.2022C93.9513 51.108 93.75 50.969 93.5829 50.7939C93.4158 50.6189 93.2864 50.4114 93.2026 50.1843C93.1189 49.9572 93.0826 49.7154 93.096 49.4737L93.9981 30.2732C94.0262 29.7726 94.2437 29.3014 94.6064 28.9553C94.9692 28.6091 95.45 28.4139 95.9514 28.4093H129.82C130.62 32.3155 130.438 36.3592 129.29 40.1775C128.141 43.9959 126.063 47.4694 123.242 50.2865Z" fill="#FF6C37"/>
<path opacity="0.5" d="M89.1173 50.2908C85.7417 46.916 83.4427 42.616 82.511 37.9346C81.5794 33.2532 82.0569 28.4006 83.8833 23.9906C85.7097 19.5806 88.8028 15.8112 92.7715 13.1592C96.7402 10.5072 101.406 9.09174 106.179 9.09174C110.953 9.09174 115.619 10.5072 119.587 13.1592C123.556 15.8112 126.649 19.5806 128.476 23.9906C130.302 28.4006 130.78 33.2532 129.848 37.9346C128.916 42.616 126.617 46.916 123.242 50.2908C118.716 54.8142 112.578 57.3552 106.179 57.3552C99.7805 57.3552 93.6434 54.8142 89.1173 50.2908Z" fill="white"/>
<path d="M115.535 36.6223C112.037 40.1203 108.054 39.8394 105.424 37.2053C102.794 34.5712 102.509 30.6094 106.007 27.0944C109.505 23.5794 114.475 22.8943 117.105 25.5241C119.735 28.154 119.033 33.1243 115.535 36.6223Z" fill="#263238"/>
<path d="M114.565 28.0561C113.177 26.6646 112.896 24.6943 113.939 23.6517C114.982 22.6092 116.952 22.89 118.343 24.2773C119.735 25.6646 120.007 27.6348 118.965 28.6774C117.922 29.72 115.952 29.4562 114.565 28.0561Z" fill="#263238"/>
<path d="M113.454 29.7115C113.371 29.7095 113.289 29.6886 113.216 29.6502C113.142 29.6118 113.078 29.5571 113.029 29.4902L108.624 23.3453C108.547 23.2366 108.514 23.103 108.531 22.9709L108.977 19.1835C108.983 19.1109 109.003 19.0401 109.037 18.9755C109.071 18.9108 109.117 18.8537 109.173 18.8074C109.23 18.7612 109.295 18.7268 109.365 18.7063C109.434 18.6858 109.508 18.6797 109.58 18.6883C109.653 18.697 109.722 18.7201 109.786 18.7564C109.849 18.7927 109.904 18.8414 109.948 18.8996C109.992 18.9578 110.023 19.0243 110.041 19.095C110.058 19.1657 110.061 19.2393 110.05 19.3112L109.624 22.89L113.905 28.8476C113.989 28.9639 114.022 29.1085 113.999 29.2497C113.976 29.3909 113.898 29.5172 113.782 29.6008C113.688 29.6732 113.573 29.7121 113.454 29.7115Z" fill="#263238"/>
<path d="M119.599 34.1159C119.486 34.1168 119.376 34.0826 119.284 34.018L113.148 29.6136C113.083 29.5755 113.027 29.5244 112.984 29.4636C112.94 29.4028 112.91 29.3335 112.894 29.2603C112.879 29.187 112.878 29.1114 112.894 29.0381C112.909 28.9648 112.939 28.8955 112.983 28.8346C113.026 28.7736 113.082 28.7224 113.146 28.6841C113.211 28.6458 113.282 28.6213 113.357 28.6121C113.431 28.6029 113.506 28.6093 113.578 28.6308C113.65 28.6523 113.716 28.6885 113.773 28.737L119.731 33.018L123.31 32.5924C123.449 32.5817 123.586 32.6252 123.694 32.7137C123.802 32.8022 123.871 32.9289 123.888 33.0674C123.904 33.2058 123.867 33.3453 123.783 33.4566C123.699 33.568 123.575 33.6425 123.437 33.6648L119.65 34.0903L119.599 34.1159Z" fill="#263238"/>
<path d="M109.939 33.2265C109.828 33.2274 109.719 33.1932 109.628 33.1286L103.671 28.8434L100.092 29.2689C99.9503 29.2859 99.8077 29.2458 99.6956 29.1576C99.5835 29.0694 99.511 28.9403 99.494 28.7987C99.4771 28.6571 99.5171 28.5145 99.6053 28.4024C99.6935 28.2902 99.8226 28.2177 99.9643 28.2008L103.752 27.7497C103.886 27.7347 104.02 27.7696 104.13 27.8476L110.271 32.252C110.364 32.3179 110.434 32.412 110.471 32.5205C110.507 32.629 110.508 32.7463 110.472 32.8552C110.437 32.9641 110.368 33.0588 110.275 33.1256C110.182 33.1925 110.07 33.2278 109.956 33.2265H109.939Z" fill="#263238"/>
<path d="M113.897 43.1544H113.833C113.763 43.1465 113.695 43.1248 113.633 43.0905C113.571 43.0562 113.517 43.0101 113.473 42.9547C113.429 42.8994 113.396 42.8359 113.377 42.7679C113.358 42.6999 113.352 42.6288 113.361 42.5587L113.786 38.9798L109.501 33.0222C109.419 32.905 109.387 32.7604 109.41 32.6195C109.434 32.4786 109.513 32.3527 109.629 32.269C109.686 32.2279 109.751 32.1984 109.819 32.1823C109.888 32.1663 109.959 32.1639 110.029 32.1754C110.098 32.1868 110.165 32.2119 110.225 32.2491C110.285 32.2864 110.336 32.3351 110.377 32.3924L114.782 38.533C114.862 38.642 114.897 38.7776 114.88 38.9117L114.429 42.6991C114.409 42.8261 114.345 42.942 114.247 43.0256C114.15 43.1091 114.025 43.1549 113.897 43.1544Z" fill="#263238"/>
<path d="M119.914 39.6862C119.843 39.6865 119.772 39.6727 119.706 39.6457C119.641 39.6186 119.581 39.5789 119.531 39.5288L103.1 23.0985C103 22.9973 102.943 22.8604 102.943 22.7177C102.943 22.575 103 22.4381 103.1 22.3368C103.15 22.2865 103.21 22.2466 103.275 22.2193C103.34 22.1921 103.41 22.178 103.481 22.178C103.552 22.178 103.622 22.1921 103.688 22.2193C103.753 22.2466 103.812 22.2865 103.862 22.3368L120.292 38.7671C120.343 38.8169 120.383 38.8762 120.41 38.9416C120.437 39.007 120.451 39.0771 120.451 39.1479C120.451 39.2188 120.437 39.2889 120.41 39.3542C120.383 39.4196 120.343 39.4789 120.292 39.5288C120.243 39.5792 120.184 39.6191 120.119 39.6462C120.054 39.6732 119.984 39.6869 119.914 39.6862Z" fill="#263238"/>
<path d="M117.705 25.4646C117.631 25.4649 117.557 25.4504 117.488 25.422C117.358 25.365 117.255 25.2588 117.203 25.1265C117.15 24.9943 117.152 24.8466 117.207 24.7156C117.518 23.9232 117.555 23.0501 117.314 22.2341C117.073 21.418 116.567 20.7055 115.875 20.2091C115.783 20.1165 115.727 19.9934 115.718 19.8626C115.709 19.7318 115.748 19.6023 115.828 19.4982C115.908 19.3941 116.022 19.3225 116.151 19.2967C116.279 19.2709 116.413 19.2927 116.527 19.358C117.411 19.9987 118.056 20.9167 118.359 21.9661C118.662 23.0155 118.606 24.136 118.199 25.1497C118.156 25.244 118.086 25.3239 117.998 25.3798C117.911 25.4356 117.809 25.465 117.705 25.4646Z" fill="#263238"/>
<path d="M122.85 26.9667C122.767 26.9664 122.686 26.947 122.612 26.9101C122.538 26.8732 122.474 26.8198 122.424 26.754C121.928 26.0629 121.215 25.5568 120.399 25.3156C119.583 25.0744 118.71 25.1118 117.918 25.422C117.787 25.4784 117.639 25.4805 117.506 25.4279C117.374 25.3752 117.268 25.2721 117.211 25.1411C117.155 25.0102 117.153 24.8622 117.206 24.7298C117.258 24.5973 117.361 24.4912 117.492 24.4347C118.505 24.0274 119.626 23.9703 120.675 24.2725C121.724 24.5748 122.643 25.219 123.284 26.1029C123.327 26.1592 123.358 26.2235 123.375 26.2919C123.393 26.3603 123.397 26.4316 123.387 26.5016C123.378 26.5716 123.354 26.639 123.318 26.6998C123.282 26.7606 123.234 26.8137 123.178 26.8561C123.085 26.9303 122.969 26.9694 122.85 26.9667Z" fill="#263238"/>
<path d="M125.314 14.094C121.53 10.3104 116.709 7.73383 111.461 6.69008C106.213 5.64632 100.773 6.18227 95.829 8.23016C90.8853 10.278 86.6599 13.7459 83.687 18.1952C80.7142 22.6445 79.1274 27.8754 79.1274 33.2265C79.1274 38.5776 80.7142 43.8085 83.687 48.2578C86.6599 52.7071 90.8853 56.1749 95.829 58.2228C100.773 60.2707 106.213 60.8066 111.461 59.7629C116.709 58.7191 121.53 56.1425 125.314 52.3589C127.827 49.8465 129.82 46.8638 131.18 43.581C132.54 40.2982 133.24 36.7797 133.24 33.2265C133.24 29.6732 132.54 26.1547 131.18 22.872C129.82 19.5892 127.827 16.6064 125.314 14.094ZM90.0493 49.3588C86.8576 46.168 84.6838 42.1023 83.8029 37.6759C82.922 33.2496 83.3735 28.6614 85.1003 24.4916C86.8272 20.3219 89.7518 16.7579 93.5042 14.2504C97.2567 11.7429 101.669 10.4045 106.182 10.4045C110.695 10.4045 115.107 11.7429 118.859 14.2504C122.612 16.7579 125.536 20.3219 127.263 24.4916C128.99 28.6614 129.441 33.2496 128.56 37.6759C127.68 42.1023 125.506 46.168 122.314 49.3588C120.196 51.4775 117.681 53.1582 114.913 54.3048C112.145 55.4514 109.178 56.0416 106.182 56.0416C103.186 56.0416 100.219 55.4514 97.4508 54.3048C94.6828 53.1582 92.1678 51.4775 90.0493 49.3588Z" fill="#FF6C37"/>
<path d="M59.7677 51.6057C59.4187 54.1249 57.9633 59.8996 52.9589 73.0702L36.9585 69.7807C38.3798 64.0571 39.1969 60.2528 39.0862 49.7078C39.0784 49.1237 39.1934 48.5445 39.4239 48.0078C39.6545 47.4711 39.9953 46.9888 40.4242 46.5923C40.8532 46.1959 41.3608 45.894 41.914 45.7064C42.4672 45.5188 43.0536 45.4497 43.6353 45.5034C44.3927 45.5715 45.197 45.6651 45.997 45.7928C48.4509 46.1147 50.8785 46.6125 53.2611 47.2822C55.0867 47.8354 57.0272 48.5588 58.2953 49.078C58.789 49.2726 59.2028 49.6279 59.4699 50.0865C59.737 50.5451 59.8419 51.0802 59.7677 51.6057Z" fill="#263238"/>
<path d="M60.3802 52.627C60.5121 53.5717 60.6738 54.6186 60.8653 55.6058C61.0568 56.5931 61.2696 57.5974 61.5207 58.5846C61.7677 59.5441 62.0646 60.4901 62.4101 61.4188C62.7208 62.2966 63.117 63.1419 63.5931 63.9422C63.8087 64.2957 64.052 64.6316 64.3208 64.9465L64.5165 65.1465C64.5846 65.2189 64.6144 65.2359 64.6612 65.287C64.7836 65.3843 64.9131 65.4724 65.0484 65.5508C65.8291 65.9414 66.6663 66.207 67.5294 66.3381C69.5282 66.65 71.5491 66.798 73.5721 66.7806L73.87 68.7934C71.6903 69.3625 69.4406 69.6175 67.1889 69.5509C65.9234 69.5221 64.673 69.27 63.4952 68.8062C63.1489 68.6567 62.817 68.4758 62.5037 68.2658C62.3403 68.1532 62.1826 68.0325 62.0313 67.9041L61.6441 67.5551C61.1824 67.0914 60.7597 66.5904 60.3802 66.0572C59.1093 64.0854 58.1612 61.9234 57.5716 59.6528C57.2652 58.5719 56.9886 57.4867 56.7886 56.3931C56.5886 55.2994 56.3971 54.2313 56.2822 53.0611L60.3802 52.627Z" fill="#FFB573"/>
<path d="M58.6184 49.2908C61.993 51.5461 61.9973 57.1165 61.9973 57.1165L55.0907 61.4145C55.0907 61.4145 53.1757 56.2229 53.7119 52.2909C54.0226 49.9972 56.5503 47.8992 58.6184 49.2908Z" fill="#263238"/>
<path d="M72.6616 66.7806L77.0107 66.6019L74.8489 69.9169C74.8489 69.9169 72.585 69.6147 72.0786 68.0615L72.6616 66.7806Z" fill="#FFB573"/>
<path d="M78.5381 69.0956L78.1126 69.6956C77.9723 69.8968 77.778 70.0542 77.5521 70.1498C77.3263 70.2454 77.078 70.2753 76.8359 70.236L74.8188 69.9169L77.0019 66.5891L78.104 67.2189C78.2617 67.3081 78.3991 67.429 78.5076 67.5741C78.616 67.7192 78.6931 67.8853 78.7339 68.0618C78.7747 68.2383 78.7784 68.4213 78.7447 68.5993C78.711 68.7772 78.6406 68.9462 78.5381 69.0956Z" fill="#FFB573"/>
<path d="M57.6142 35.0946C57.6142 35.418 57.8184 35.6734 58.0397 35.6606C58.261 35.6478 58.4057 35.3755 58.3887 35.0521C58.3717 34.7287 58.1887 34.4776 57.9631 34.4861C57.7376 34.4946 57.5972 34.7712 57.6142 35.0946Z" fill="#263238"/>
<path d="M57.8735 34.5116L58.6395 34.2435C58.6395 34.2435 58.2735 34.8648 57.8735 34.5116Z" fill="#263238"/>
<path d="M57.9292 35.801C58.2593 36.5254 58.689 37.2 59.2058 37.8053C59.0472 37.9331 58.8625 38.0244 58.6647 38.073C58.4669 38.1215 58.2608 38.126 58.0611 38.0862L57.9292 35.801Z" fill="#ED893E"/>
<path d="M57.8655 37.5926C56.874 37.5926 56.0952 36.2053 56.0952 34.4308C56.0952 32.6563 56.874 31.269 57.8655 31.269C58.857 31.269 59.6315 32.6605 59.6315 34.4308C59.6315 36.201 58.857 37.5926 57.8655 37.5926ZM57.8655 31.4988C57.0144 31.4988 56.325 32.8137 56.325 34.4308C56.325 36.0478 57.0144 37.367 57.8655 37.367C58.7166 37.367 59.406 36.0478 59.406 34.4308C59.406 32.8137 58.7166 31.4988 57.8655 31.4988Z" fill="#407BFF"/>
<path d="M56.3803 34.3074C56.421 34.3123 56.4622 34.3037 56.4976 34.283C56.533 34.2622 56.5605 34.2304 56.5761 34.1925C56.9293 33.3882 58.0442 33.1541 58.0527 33.1541C58.1023 33.1439 58.1458 33.1144 58.1738 33.0721C58.2017 33.0299 58.2117 32.9782 58.2017 32.9286C58.1914 32.879 58.1619 32.8355 58.1196 32.8075C58.0774 32.7796 58.0258 32.7696 57.9761 32.7797C57.925 32.7797 56.6612 33.0563 56.2271 34.0563C56.2166 34.0791 56.2108 34.1039 56.21 34.129C56.2093 34.1541 56.2136 34.1792 56.2228 34.2026C56.2319 34.226 56.2456 34.2474 56.2632 34.2654C56.2808 34.2834 56.3018 34.2977 56.325 34.3074C56.3433 34.311 56.3621 34.311 56.3803 34.3074Z" fill="#263238"/>
<path d="M46.5884 34.4818C47.0437 38.4479 47.1501 40.1373 49.2651 42.0735C52.4482 44.9885 57.2228 43.5629 57.9632 39.5415C58.6313 35.9244 57.7802 30.0434 53.8014 28.6646C52.9257 28.3564 51.9857 28.2771 51.0707 28.4343C50.1557 28.5914 49.2961 28.9799 48.5734 29.5627C47.8508 30.1455 47.2891 30.9034 46.9417 31.7643C46.5942 32.6252 46.4726 33.5607 46.5884 34.4818Z" fill="#FFB573"/>
<path d="M56.2101 35.984C58.0527 33.1541 58.9846 29.6477 57.2101 27.5795C55.4356 25.5114 52.7547 27.5795 52.7547 27.5795C52.7547 27.5795 45.5885 24.9794 43.265 28.0051C39.899 32.3584 44.3033 35.1159 43.2225 36.3287C42.1416 37.5415 40.6692 39.2352 42.0012 41.7586C43.465 44.5119 54.6228 42.3884 56.2101 45.5587C60.8868 45.2821 58.4527 37.6734 56.2101 35.984Z" fill="#263238"/>
<path d="M42.7116 37.4777C42.684 37.4777 42.6571 37.4687 42.635 37.4521C42.6137 37.4306 42.6017 37.4016 42.6017 37.3713C42.6017 37.341 42.6137 37.3119 42.635 37.2904C42.9712 36.9159 42.686 36.3372 42.286 35.5329C41.5626 34.0605 40.4647 31.835 42.6733 28.9753C42.6948 28.954 42.7239 28.942 42.7541 28.942C42.7844 28.942 42.8135 28.954 42.835 28.9753C42.8469 28.9841 42.8569 28.9952 42.8645 29.0079C42.8721 29.0207 42.877 29.0348 42.879 29.0495C42.8809 29.0642 42.8799 29.0791 42.8761 29.0934C42.8722 29.1077 42.8654 29.1211 42.8563 29.1327C40.7285 31.8818 41.7499 33.9456 42.4903 35.4563C42.9158 36.3074 43.2435 36.9755 42.8052 37.4606C42.792 37.4706 42.7766 37.4772 42.7604 37.4802C42.7442 37.4832 42.7274 37.4823 42.7116 37.4777Z" fill="#263238"/>
<path d="M57.8526 45.0779C57.6279 45.0748 57.4041 45.0491 57.1845 45.0013C57.1697 44.9982 57.1556 44.9922 57.1431 44.9837C57.1306 44.9752 57.1199 44.9643 57.1116 44.9517C57.1033 44.9391 57.0976 44.9249 57.0948 44.91C57.0919 44.8952 57.0921 44.8799 57.0951 44.8651C57.0982 44.8503 57.1042 44.8362 57.1127 44.8237C57.1212 44.8112 57.1321 44.8005 57.1447 44.7922C57.1574 44.7839 57.1715 44.7782 57.1864 44.7754C57.2012 44.7725 57.2165 44.7727 57.2313 44.7757C58.2271 44.9928 58.8739 44.7289 59.1548 43.997C59.9208 41.9969 57.7462 37.15 56.0058 36.1627C55.9824 36.1465 55.966 36.1222 55.9595 36.0945C55.9531 36.0668 55.9571 36.0377 55.9709 36.0128C55.9847 35.988 56.0071 35.9691 56.034 35.9598C56.0609 35.9506 56.0902 35.9516 56.1164 35.9627C57.9633 37.0096 60.1803 41.9544 59.3675 44.0778C59.2599 44.3878 59.0532 44.6537 58.7794 44.8344C58.5056 45.0151 58.1799 45.1007 57.8526 45.0779Z" fill="#263238"/>
<path d="M55.2737 35.7159C55.2479 35.7156 55.223 35.7066 55.2029 35.6904C55.1828 35.6742 55.1688 35.6517 55.1631 35.6265C55.1321 35.5132 55.1279 35.3943 55.1508 35.2791C55.1737 35.1639 55.223 35.0555 55.295 34.9627C55.7588 34.3499 57.2482 34.001 59.7292 33.9244C59.7438 33.9232 59.7586 33.9251 59.7725 33.9299C59.7864 33.9347 59.7991 33.9424 59.8099 33.9524C59.8207 33.9624 59.8294 33.9745 59.8352 33.988C59.8411 34.0015 59.8441 34.016 59.8441 34.0308C59.8452 34.046 59.8432 34.0613 59.8382 34.0757C59.8332 34.0901 59.8252 34.1034 59.8148 34.1146C59.8044 34.1257 59.7918 34.1347 59.7778 34.1407C59.7638 34.1468 59.7487 34.15 59.7334 34.1499C56.7546 34.2435 55.7631 34.7201 55.478 35.0989C55.4257 35.1644 55.3899 35.2414 55.3736 35.3236C55.3573 35.4058 55.361 35.4907 55.3843 35.5712C55.3881 35.586 55.389 35.6015 55.3867 35.6166C55.3845 35.6317 55.3792 35.6463 55.3713 35.6593C55.3634 35.6724 55.3529 35.6838 55.3406 35.6928C55.3282 35.7017 55.3141 35.7082 55.2992 35.7117L55.2737 35.7159Z" fill="#407BFF"/>
<path d="M55.7248 36.5883C55.922 36.9023 56.1831 37.1715 56.491 37.3782C56.7989 37.5849 57.1468 37.7246 57.5121 37.7883C58.2228 37.8989 58.027 36.8181 57.6866 35.8095C57.3802 34.9031 56.6355 33.7499 55.9844 34.1073C55.3333 34.4648 55.2738 35.7159 55.7248 36.5883Z" fill="#FFB573"/>
<path d="M17.6855 140.825C18.0246 140.893 18.3769 140.841 18.6812 140.676C18.7494 140.628 18.8048 140.565 18.8426 140.491C18.8804 140.416 18.8995 140.334 18.8983 140.251C18.9023 140.198 18.8922 140.146 18.869 140.099C18.8458 140.052 18.8103 140.011 18.7663 139.983C18.3025 139.664 16.6386 140.319 16.4344 140.408C16.4153 140.414 16.3987 140.426 16.3868 140.442C16.375 140.458 16.3687 140.478 16.3687 140.498C16.3687 140.518 16.375 140.537 16.3868 140.553C16.3987 140.569 16.4153 140.581 16.4344 140.587C16.8428 140.706 17.2618 140.786 17.6855 140.825ZM18.4855 140.072C18.546 140.072 18.6051 140.09 18.6557 140.123C18.6742 140.135 18.6891 140.151 18.6988 140.171C18.7086 140.19 18.7128 140.212 18.711 140.234C18.7129 140.29 18.7011 140.345 18.6766 140.396C18.6522 140.446 18.6158 140.49 18.5706 140.523C18.3068 140.719 17.6429 140.689 16.7705 140.455C17.3147 140.223 17.8949 140.086 18.4855 140.051V140.072Z" fill="#407BFF"/>
<path d="M16.4596 140.54H16.4979C17 140.37 18.0298 139.604 18 139.144C18 139.034 17.932 138.893 17.6724 138.838C17.5795 138.819 17.4837 138.819 17.3908 138.838C17.2978 138.857 17.2098 138.894 17.1319 138.949C16.583 139.319 16.383 140.387 16.3745 140.434C16.3727 140.447 16.3735 140.46 16.3768 140.472C16.3801 140.485 16.3859 140.497 16.3938 140.507C16.4018 140.517 16.4116 140.526 16.4229 140.532C16.4342 140.539 16.4467 140.543 16.4596 140.544V140.54ZM17.5745 139.012H17.6341C17.8043 139.046 17.8086 139.119 17.8086 139.14C17.8086 139.417 17.1192 140.034 16.6043 140.281C16.6927 139.839 16.9139 139.435 17.2383 139.123C17.3327 139.046 17.4526 139.006 17.5745 139.012Z" fill="#407BFF"/>
<path d="M11.8086 141.306L15.7534 142.072L20.1152 132.348L16.1704 131.582L11.8086 141.306Z" fill="#FFB573"/>
<path d="M16.7662 140.349L12.5108 138.842C12.4775 138.828 12.4414 138.82 12.4051 138.821C12.3687 138.822 12.333 138.831 12.3005 138.847C12.2679 138.863 12.2394 138.887 12.2169 138.915C12.1944 138.944 12.1785 138.977 12.1703 139.012L10.8937 142.34C10.8541 142.531 10.8832 142.729 10.9759 142.901C11.0686 143.072 11.2188 143.205 11.4001 143.276C12.8895 143.774 14.4385 144.017 16.3705 144.489C17.9181 144.898 19.5069 145.131 21.1068 145.183C22.7579 145.183 22.5536 143.51 21.8174 143.362C18.528 142.685 18.2343 142.085 17.362 140.808C17.2159 140.597 17.0077 140.436 16.7662 140.349Z" fill="#263238"/>
<g opacity="0.2">
<path d="M20.1111 132.353L17.8642 137.366L13.9194 136.595L16.1663 131.587L20.1111 132.353Z" fill="black"/>
</g>
<path d="M36.7709 69.6275C31.1835 74.8277 30.792 92.0154 26.7493 103.671C20.2385 115.391 14.2554 134.331 14.2554 134.331L19.6853 135.825C19.6853 135.825 28.0132 119.323 33.3368 107.739C39.2093 94.9729 47.0052 71.7595 47.0052 71.7595L36.7709 69.6275Z" fill="#407BFF"/>
<path opacity="0.2" d="M40.6948 78.4873C40.5895 81.6425 40.789 84.8005 41.2905 87.9174C42.3161 85.1386 43.2651 82.4875 44.0864 80.1768L40.6948 78.4873Z" fill="black"/>
<path d="M54.4227 140.889C54.7674 140.919 55.1122 140.832 55.4015 140.642C55.4655 140.585 55.5145 140.512 55.5442 140.432C55.5739 140.351 55.5833 140.264 55.5717 140.178C55.57 140.125 55.5541 140.074 55.5256 140.029C55.4972 139.984 55.4573 139.947 55.41 139.923C54.9163 139.655 53.312 140.472 53.1333 140.566C53.1167 140.576 53.1031 140.59 53.0941 140.607C53.0851 140.625 53.081 140.644 53.0823 140.664C53.0847 140.683 53.0934 140.702 53.1072 140.717C53.121 140.731 53.1391 140.741 53.1588 140.744C53.5747 140.832 53.9978 140.88 54.4227 140.889ZM55.1419 140.038C55.2032 140.036 55.2642 140.048 55.3206 140.072C55.3392 140.083 55.3546 140.098 55.365 140.117C55.3755 140.136 55.3808 140.157 55.3802 140.178C55.3894 140.234 55.3845 140.29 55.3659 140.343C55.3472 140.396 55.3156 140.443 55.2738 140.481C55.027 140.702 54.3674 140.74 53.4738 140.591C53.9903 140.321 54.5484 140.14 55.1249 140.055L55.1419 140.038Z" fill="#407BFF"/>
<path d="M53.1461 140.744C53.1585 140.749 53.172 140.749 53.1844 140.744C53.6653 140.532 54.6142 139.664 54.5419 139.208C54.5206 139.098 54.444 138.966 54.1802 138.936C54.0862 138.927 53.9915 138.937 53.9016 138.966C53.8116 138.994 53.7284 139.04 53.6567 139.102C53.1503 139.527 53.0567 140.604 53.0525 140.651C53.0504 140.667 53.0529 140.684 53.0596 140.699C53.0664 140.714 53.0772 140.727 53.0908 140.736C53.1079 140.744 53.1272 140.747 53.1461 140.744ZM54.1036 139.115H54.1631C54.3376 139.115 54.3461 139.2 54.3504 139.225C54.3972 139.498 53.7546 140.178 53.2652 140.476C53.3023 140.019 53.4808 139.585 53.7759 139.234C53.8725 139.157 53.9933 139.118 54.1163 139.123L54.1036 139.115Z" fill="#407BFF"/>
<path d="M48.9204 141.63L52.8992 142.23L54.8185 133.097L50.8439 132.497L48.9204 141.63Z" fill="#FFB573"/>
<path d="M53.5716 140.608H49.0481C48.9701 140.607 48.8943 140.634 48.8353 140.685C48.7763 140.736 48.7384 140.807 48.729 140.885L48.214 144.459C48.2038 144.55 48.2128 144.641 48.2405 144.728C48.2682 144.814 48.3139 144.894 48.3746 144.961C48.4353 145.029 48.5097 145.083 48.5928 145.12C48.6759 145.156 48.7658 145.175 48.8566 145.174C50.4311 145.149 51.1929 145.055 53.1801 145.055C54.4015 145.055 57.1973 145.183 58.8867 145.183C60.5761 145.183 60.6655 143.51 59.9633 143.362C56.81 142.685 55.2823 141.749 54.2398 140.855C54.0529 140.697 53.8164 140.61 53.5716 140.608Z" fill="#263238"/>
<g opacity="0.2">
<path d="M54.8185 133.102L53.8312 137.808L49.8481 137.208L50.8397 132.502L54.8185 133.102Z" fill="black"/>
</g>
<path d="M52.9458 73.0702C52.9458 73.0702 63.3589 93.2154 62.2057 105.411C61.0056 118.118 54.5459 136.646 54.5459 136.646L49.6989 135.77C49.6989 135.77 53.3927 112.327 55.6566 103.645C50.0607 90.7515 33.7538 85.8663 41.1881 70.6446C43.4051 71.0361 52.9458 73.0702 52.9458 73.0702Z" fill="#407BFF"/>
<path d="M48.9414 136.327L55.2522 137.281L55.9373 134.846L48.984 134.297L48.9414 136.327Z" fill="#263238"/>
<path d="M13.5361 135.455L19.6597 137.242L21.0257 134.863L14.017 133.502L13.5361 135.455Z" fill="#263238"/>
<path d="M36.8985 68.7934L36.1921 70.1424C36.1155 70.2403 36.2219 70.3807 36.4091 70.419L52.8776 73.8021C53.0223 73.8319 53.1585 73.8021 53.184 73.6957L53.6096 72.2957C53.6394 72.1978 53.533 72.0871 53.3755 72.0574L37.1708 68.7253C37.1233 68.7142 37.0738 68.7145 37.0264 68.7264C36.979 68.7382 36.9352 68.7612 36.8985 68.7934Z" fill="white"/>
<path d="M38.7028 71.0361L38.2772 70.9467C38.1879 70.9467 38.1325 70.8701 38.1496 70.819L38.7368 68.9977C38.7368 68.9466 38.8389 68.9169 38.924 68.9339L39.3496 69.0232C39.4347 69.0232 39.4943 69.0998 39.4773 69.1509L38.89 70.9722C38.873 71.0361 38.7879 71.0701 38.7028 71.0361Z" fill="#407BFF"/>
<path d="M51.6269 73.7085L51.2014 73.6191C51.1163 73.6191 51.0567 73.5425 51.0737 73.4914L51.661 71.6701C51.661 71.6148 51.7631 71.5893 51.8482 71.6063L52.2737 71.6956C52.3631 71.6956 52.4184 71.7722 52.4014 71.8233L51.8142 73.6446C51.7971 73.6957 51.712 73.7255 51.6269 73.7085Z" fill="#407BFF"/>
<path d="M45.1629 72.3808L44.7373 72.2914C44.6522 72.2914 44.5969 72.2148 44.6139 72.1637L45.1969 70.3424C45.1969 70.2913 45.299 70.2616 45.3884 70.2786L45.814 70.3679C45.8991 70.3679 45.9544 70.4445 45.9374 70.4956L45.3544 72.3127C45.3373 72.368 45.2522 72.3978 45.1629 72.3808Z" fill="#407BFF"/>
</g>
<defs>
<clipPath id="clip0_957_11613">
<rect width="170.167" height="150" fill="white"/>
</clipPath>
</defs>
</svg>
