<svg width="103" height="100" viewBox="0 0 103 100" fill="none" xmlns="http://www.w3.org/2000/svg">
<g clip-path="url(#clip0_1929_19709)">
<path d="M64.6975 78.2526C56.2609 78.2526 47.8516 78.2526 39.4287 78.2526C33.2238 78.2526 28.4694 73.8656 28.053 67.6716C27.9605 66.2837 28.3252 64.8522 28.5728 63.4561C28.7933 62.2586 29.1634 61.0911 29.4546 59.9182C29.9836 57.8677 29.9079 55.7081 29.2369 53.6996C24.5197 39.5172 19.7943 25.3366 15.0608 11.1578C14.4866 9.44054 13.5232 8.75202 11.727 8.74657C9.35117 8.74657 6.97261 8.74657 4.59678 8.74657C1.95969 8.74657 0.0247276 6.91506 0.000234486 4.45214C-0.0242586 1.98922 1.8726 0.0732962 4.49609 0.0488031C8.70709 0.0143313 12.9181 0.0143313 17.1291 0.0488031C19.4233 0.0488031 20.8684 1.13738 21.6086 3.34449C22.8877 7.13276 24.1477 10.9292 25.4187 14.7229C26.1344 16.8593 26.9672 17.4444 29.2287 17.4444C52.0527 17.4444 74.8757 17.4444 97.6979 17.4444C98.3745 17.4124 99.0525 17.4692 99.7145 17.6131C102.186 18.2853 103.413 20.7591 102.567 23.3472C101.179 27.5981 99.7553 31.8409 98.3401 36.0836C95.9942 43.125 93.6447 50.1645 91.2915 57.2022C90.3799 59.9399 89.0736 60.887 86.1779 60.887H41.0534C38.8001 60.887 38.0163 61.4994 37.4774 63.6765C37.2461 64.5991 37.0012 65.5162 36.7862 66.4415C36.3725 68.2104 37.2978 69.4623 39.1103 69.5875C39.4478 69.6093 39.788 69.5875 40.1281 69.5875C56.905 69.5875 73.6828 69.5875 90.4615 69.5875C91.139 69.5561 91.8176 69.6119 92.4809 69.7535C94.5845 70.3169 95.8309 72.2845 95.5806 74.5134C95.459 75.5178 94.9793 76.4448 94.2295 77.1242C93.4796 77.8035 92.5099 78.1897 91.4984 78.2118C88.0013 78.269 84.5015 78.2363 81.0044 78.239L64.6975 78.2526Z" fill="#64E8FF"/>
<path d="M34.8211 82.6399C35.9725 82.6317 37.114 82.8527 38.1792 83.2899C39.2444 83.7271 40.2119 84.3719 41.0256 85.1866C41.8392 86.0014 42.4826 86.9698 42.9184 88.0356C43.3541 89.1014 43.5735 90.2432 43.5638 91.3946C43.554 92.546 43.3153 93.6839 42.8616 94.7422C42.4078 95.8004 41.7481 96.7578 40.9208 97.5587C40.0935 98.3595 39.1152 98.9878 38.0428 99.407C36.9703 99.8261 35.8252 100.028 34.6741 100C32.3957 99.9453 30.2302 98.9968 28.645 97.3593C27.0598 95.7218 26.1822 93.5266 26.2015 91.2476C26.2208 88.9686 27.1355 86.7886 28.7481 85.1781C30.3608 83.5677 32.5421 82.656 34.8211 82.6399Z" fill="#64E8FF"/>
<path d="M86.9543 82.64C89.2298 82.6803 91.3984 83.6126 92.9934 85.236C94.5884 86.8595 95.482 89.0443 95.482 91.3201C95.482 93.596 94.5884 95.7808 92.9934 97.4042C91.3984 99.0277 89.2298 99.9599 86.9543 100C85.8015 100.021 84.6561 99.8112 83.5851 99.3841C82.5141 98.9571 81.5389 98.321 80.7165 97.5129C79.894 96.7049 79.2407 95.7411 78.7948 94.6778C78.3488 93.6146 78.1191 92.4731 78.1191 91.3201C78.1191 90.1671 78.3488 89.0257 78.7948 87.9624C79.2407 86.8992 79.894 85.9354 80.7165 85.1273C81.5389 84.3193 82.5141 83.6832 83.5851 83.2561C84.6561 82.8291 85.8015 82.6196 86.9543 82.64Z" fill="#64E8FF"/>
</g>
<defs>
<clipPath id="clip0_1929_19709">
<rect width="102.847" height="100" fill="white"/>
</clipPath>
</defs>
</svg>
