<svg width="160" height="80" viewBox="0 0 160 80" fill="none" xmlns="http://www.w3.org/2000/svg">
<g clip-path="url(#clip0_2761_25526)">
<path d="M145.337 15.777H158.714L155.541 13.4619H144.994H144.737H132.647L129.475 15.777H144.308H145.337Z" fill="white"/>
<path d="M144.994 17.4919H143.28H129.475L130.161 19.4641H143.194H145.08H158.113L158.799 17.4919H144.994Z" fill="white"/>
<path d="M100.922 73.2261C100.579 73.8264 99.7214 74.4266 98.3495 74.4266C96.2916 74.4266 95.6914 72.8832 95.6914 71.0825H107.953C108.21 70.0536 108.296 69.0246 108.296 68.0814C108.296 62.6795 103.666 60.5359 99.8929 60.5359C95.6057 60.5359 89.6035 63.1082 89.6035 70.9968C89.6035 75.1983 92.0901 78.5423 98.178 78.5423C105.638 78.5423 106.924 74.2551 107.353 73.1404H100.922V73.2261ZM96.2059 67.7385C96.7203 65.9378 97.835 64.8231 99.6357 64.8231C101.265 64.8231 102.122 65.8521 102.122 67.1383C102.122 67.3097 102.037 67.567 102.037 67.7385H96.2059Z" fill="#85754E" stroke="#85754E" stroke-width="3.024"/>
<path d="M41.5859 70.6537C41.5859 76.3986 45.4445 78.7138 50.1604 78.7138C58.1347 78.7138 60.5356 72.6259 60.5356 68.1671C60.5356 62.9367 57.1915 60.6216 52.1326 60.6216C45.1872 60.6216 41.5859 65.0803 41.5859 70.6537ZM48.1883 71.0825C48.1883 69.2818 49.1315 65.3376 51.7038 65.3376C53.4187 65.3376 54.0189 66.4522 54.0189 68.5101C54.0189 70.0535 53.0758 73.8263 50.5034 73.8263C48.617 73.912 48.1883 72.5401 48.1883 71.0825Z" fill="#85754E" stroke="#85754E" stroke-width="3.024"/>
<path d="M28.0384 78.2852H35.4124L39.0137 60.6218H45.6161L46.9023 54.6196H26.4092L25.123 60.6218H31.7254L28.0384 78.2852Z" fill="#85754E" stroke="#85754E" stroke-width="3.024"/>
<path d="M91.0615 61.0503H84.1161L79.8289 70.7395L79.4002 61.0503H73.1408L68.9393 70.7395H68.8535L68.3391 61.0503H61.9082L63.6231 78.285H70.397L74.8557 68.1671H74.9414L75.2844 78.285H82.0583L91.0615 61.0503Z" fill="#85754E" stroke="#85754E" stroke-width="3.024"/>
<path d="M108.382 78.285H114.984L116.528 71.0825C117.299 67.4812 118.671 66.2808 121.501 66.2808C122.358 66.2808 123.216 66.3665 123.987 66.7095L125.188 60.8788C124.588 60.7073 123.987 60.6216 122.873 60.6216C121.158 60.6216 119.014 61.9078 117.9 63.7084H117.814L118.414 61.0503H112.069L108.382 78.285Z" fill="#85754E" stroke="#85754E" stroke-width="3.024"/>
<path d="M26.0664 49.4748H34.0407L35.3269 43.4726L37.1275 41.9292L39.9571 49.4748H48.6173L43.3011 36.956L52.6473 28.553H43.1296L37.2132 34.7267H37.1275L40.0428 20.7502H32.0686L26.0664 49.4748Z" fill="#85754E" stroke="#85754E" stroke-width="3"/>
<path d="M75.884 28.553H67.5668L62.2506 41.0717H62.1648L60.7929 28.553H52.7329L56.4199 47.7598C56.4199 49.732 55.2195 49.8177 53.5046 49.8177C52.8186 49.8177 52.2184 49.732 51.5325 49.732L50.332 55.9914C51.6182 56.0771 52.8186 56.1628 54.0191 56.1628C61.2216 56.1628 62.5078 54.1907 64.2227 50.6752L75.884 28.553Z" fill="#85754E" stroke="#85754E" stroke-width="3"/>
<path d="M72.4541 49.4748H80.4284L86.3448 20.7502H78.3705L72.4541 49.4748Z" fill="#85754E" stroke="#85754E" stroke-width="3"/>
<path d="M84.1162 40.2143C84.1162 47.2454 88.8322 49.9892 94.5771 49.9892C104.181 49.9892 107.182 42.5294 107.182 37.2132C107.182 30.8681 103.152 28.1243 97.0637 28.1243C88.4892 28.0385 84.1162 33.5262 84.1162 40.2143ZM92.0905 40.8145C92.0905 38.6709 93.2052 33.8692 96.3777 33.8692C98.5214 33.8692 99.2073 35.2411 99.2073 37.7277C99.2073 39.5284 98.0926 44.1586 94.9201 44.1586C92.6907 44.1586 92.0905 42.5294 92.0905 40.8145Z" fill="#85754E" stroke="#85754E" stroke-width="3"/>
<path d="M106.581 49.4748H114.555L116.87 38.4137C117.385 36.27 118.242 34.4694 120.729 34.4694C122.015 34.4694 122.958 35.1554 122.958 36.4415C122.958 37.299 122.53 38.6709 122.272 39.8713L120.214 49.4748H128.189L130.761 37.7277C131.104 36.1843 131.361 34.6409 131.361 33.7834C131.361 29.6677 128.189 28.1243 124.587 28.1243C122.015 28.1243 119.614 29.4104 118.071 31.2968H117.985L118.585 28.6387H110.868L106.581 49.4748Z" fill="#85754E" stroke="#85754E" stroke-width="3"/>
<path d="M27.8666 29.4104C28.0381 22.3793 22.5504 20.0642 16.3768 20.0642C10.5461 20.0642 4.28677 23.0653 4.28677 29.4962C4.28677 34.2979 7.71656 36.0985 11.1464 37.2989C15.1764 38.6709 18.0917 38.9281 18.0917 40.986C18.0917 42.8724 15.9481 43.7298 14.2332 43.7298C12.7755 43.7298 11.7466 43.6441 10.9749 43.0438C10.2889 42.3579 9.86019 41.3289 9.86019 39.7855H1.2857C0.942717 47.0739 6.85912 50.0749 13.4615 50.0749C19.7209 50.0749 26.409 46.8166 26.409 39.8713C26.409 36.4415 24.6941 33.6976 19.7209 31.9828C16.8913 30.9538 12.604 30.8681 12.604 28.7244C12.604 26.8381 14.5762 26.4093 16.0338 26.4093C17.0628 26.4093 18.006 26.5808 18.6062 27.0953C19.2921 27.6098 19.6351 28.2957 19.6351 29.4962H27.8666V29.4104Z" fill="#85754E" stroke="#85754E" stroke-width="3"/>
<path d="M100.922 73.0547C100.579 73.655 99.7214 74.2552 98.3495 74.2552C96.2916 74.2552 95.6914 72.7118 95.6914 70.9111H107.953C108.21 69.8822 108.296 68.8532 108.296 67.91C108.296 62.5081 103.666 60.3645 99.8929 60.3645C95.6057 60.3645 89.6035 62.9368 89.6035 70.8254C89.6035 75.0269 92.0901 78.3709 98.178 78.3709C105.638 78.3709 106.924 74.0837 107.353 72.969H100.922V73.0547ZM96.2059 67.4813C96.7203 65.6807 97.835 64.566 99.6357 64.566C101.265 64.566 102.122 65.5949 102.122 66.8811C102.122 67.0526 102.037 67.3098 102.037 67.4813H96.2059Z" fill="url(#paint0_linear_2761_25526)" stroke="white" stroke-width="0.504"/>
<path d="M41.5859 70.3967C41.5859 76.1416 45.4445 78.4567 50.1604 78.4567C58.1347 78.4567 60.5356 72.3688 60.5356 67.9101C60.5356 62.6796 57.1915 60.3645 52.1326 60.3645C45.1872 60.3645 41.5859 64.909 41.5859 70.3967ZM48.1883 70.9111C48.1883 69.1105 49.1315 65.1662 51.7038 65.1662C53.4187 65.1662 54.0189 66.2809 54.0189 68.3388C54.0189 69.8822 53.0758 73.655 50.5034 73.655C48.617 73.655 48.1883 72.283 48.1883 70.9111Z" fill="url(#paint1_linear_2761_25526)" stroke="white" stroke-width="0.504"/>
<path d="M28.0384 78.0279H35.4124L39.0137 60.4502H45.6161L46.9023 54.3623H26.4092L25.123 60.4502H31.7254L28.0384 78.0279Z" fill="url(#paint2_linear_2761_25526)" stroke="white" stroke-width="0.504"/>
<path d="M91.0615 60.8789H84.1161L79.8289 70.5681L79.4002 60.8789H73.1408L68.9393 70.5681H68.8535L68.3391 60.8789H61.9082L63.6231 78.0279H70.397L74.8557 67.9957H74.9414L75.2844 78.0279H82.0583L91.0615 60.8789Z" fill="url(#paint3_linear_2761_25526)" stroke="white" stroke-width="0.504"/>
<path d="M108.382 78.028H114.984L116.528 70.8254C117.299 67.2241 118.671 66.0237 121.501 66.0237C122.358 66.0237 123.216 66.1094 123.987 66.4524L125.188 60.6217C124.588 60.4502 123.987 60.3645 122.873 60.3645C121.158 60.3645 119.014 61.6507 117.9 63.4513H117.814L118.328 60.879H111.983L108.382 78.028Z" fill="url(#paint4_linear_2761_25526)" stroke="white" stroke-width="0.504"/>
<path d="M26.0664 49.2175H34.0407L35.3269 43.3011L37.1275 41.6719L39.9571 49.2175H48.6173L43.3011 36.7845L52.6473 28.3815H43.1296L37.2132 34.4693H37.1275L40.0428 20.4929H32.0686L26.0664 49.2175Z" fill="url(#paint5_linear_2761_25526)" stroke="white" stroke-width="0.5"/>
<path d="M75.884 28.3816H67.5668L62.2506 40.9003H62.1648L60.7929 28.3816H52.7329L56.4199 47.5885C56.4199 49.5606 55.2195 49.6463 53.5046 49.6463C52.8186 49.6463 52.2184 49.5606 51.5325 49.5606L50.332 55.7342C51.6182 55.82 52.8186 55.9057 54.0191 55.9057C61.2216 55.9057 62.5078 53.9336 64.2227 50.418L75.884 28.3816Z" fill="url(#paint6_linear_2761_25526)" stroke="white" stroke-width="0.5"/>
<path d="M72.4541 49.2175H80.4284L86.3448 20.4929H78.3705L72.4541 49.2175Z" fill="url(#paint7_linear_2761_25526)" stroke="white" stroke-width="0.5"/>
<path d="M84.1162 39.9572C84.1162 46.9883 88.8322 49.7322 94.5771 49.7322C104.181 49.7322 107.182 42.2723 107.182 36.9562C107.182 30.611 103.152 27.8672 97.0637 27.8672C88.4892 27.7815 84.1162 33.2691 84.1162 39.9572ZM92.0905 40.5574C92.0905 38.4138 93.2052 33.6121 96.3777 33.6121C98.5214 33.6121 99.2073 34.984 99.2073 37.4706C99.2073 39.2713 98.0926 43.9015 94.9201 43.9015C92.6907 43.9015 92.0905 42.2723 92.0905 40.5574Z" fill="url(#paint8_linear_2761_25526)" stroke="white" stroke-width="0.5"/>
<path d="M106.581 49.2177H114.555L116.87 38.1566C117.385 36.013 118.242 34.2123 120.729 34.2123C122.015 34.2123 122.958 34.8983 122.958 36.1844C122.958 37.0419 122.53 38.4138 122.272 39.6142L120.214 49.2177H128.189L130.761 37.4706C131.104 35.9272 131.361 34.3838 131.361 33.5263C131.361 29.4106 128.189 27.8672 124.587 27.8672C122.015 27.8672 119.614 29.1534 118.071 31.0397H117.985L118.585 28.3817H110.868L106.581 49.2177Z" fill="url(#paint9_linear_2761_25526)" stroke="white" stroke-width="0.5"/>
<path d="M27.8666 29.1533C28.0381 22.1222 22.5504 19.8071 16.3768 19.8071C10.5461 19.8071 4.28677 22.8082 4.28677 29.2391C4.28677 34.0408 7.71656 35.8414 11.1464 37.0419C15.1764 38.4138 18.0917 38.671 18.0917 40.7289C18.0917 42.6153 15.9481 43.4727 14.2332 43.4727C12.7755 43.4727 11.7466 43.387 10.9749 42.7868C10.2889 42.1008 9.86019 41.0719 9.86019 39.5285H1.2857C0.942717 46.8168 6.85912 49.8178 13.4615 49.8178C19.7209 49.8178 26.409 46.5595 26.409 39.6142C26.409 36.1844 24.6941 33.4406 19.7209 31.7257C16.8913 30.6967 12.604 30.611 12.604 28.4674C12.604 26.581 14.5762 26.1523 16.0338 26.1523C17.0628 26.1523 18.006 26.3237 18.6062 26.8382C19.2921 27.3527 19.6351 28.0386 19.6351 29.2391H27.8666V29.1533Z" fill="url(#paint10_linear_2761_25526)" stroke="white" stroke-width="0.5"/>
<path d="M150.482 27.0955C151.854 24.2659 156.913 23.8372 156.913 23.8372L158.799 17.5778L158.714 15.7772L153.397 12.0901L147.31 7.80288L146.881 4.63031L145.08 3.34414L144.737 0.257324H144.137H144.051H143.451L143.108 3.34414L141.307 4.63031L140.879 7.80288L134.791 12.0901L129.475 15.7772V17.5778L131.275 23.8372C131.275 23.8372 136.248 24.2659 137.706 27.0955C139.164 29.9251 140.364 36.0987 140.621 44.5017C140.793 51.1898 140.621 55.0483 140.621 59.85C140.621 64.7375 137.963 79.4856 134.705 79.4856H143.108H145.166H153.569C150.311 79.4856 147.653 64.7375 147.653 59.85C147.653 54.9626 147.481 51.1041 147.653 44.5017C147.824 36.0987 149.11 29.9251 150.482 27.0955Z" fill="white" stroke="white" stroke-width="0.72"/>
<path d="M144.566 12.0901H153.483L147.396 7.88857L146.881 4.63026L145.166 3.34409L144.823 0.343018H144.223H144.137H143.537L143.194 3.34409L141.393 4.63026L140.879 7.88857L134.791 12.0901H143.708H144.566Z" fill="#85754E"/>
<path d="M145.337 15.777H158.799L155.627 13.4619H144.994H144.737H132.733L129.475 15.777H144.394H145.337Z" fill="#85754E"/>
<path d="M145.08 19.4641H158.113L158.799 17.4919H144.994H143.28H129.475L130.161 19.4641H143.194H145.08Z" fill="#85754E"/>
<path d="M145.166 79.3997H153.569C150.31 79.3997 147.652 64.6516 147.652 59.7641C147.652 54.8767 147.481 51.0181 147.652 44.4158C147.91 36.0985 149.11 29.9249 150.568 27.0096C151.94 24.18 156.999 23.7513 156.999 23.7513L157.684 20.8359H144.823H143.537H130.675L131.361 23.7513C131.361 23.7513 136.334 24.18 137.792 27.0096C139.249 29.8392 140.45 36.0128 140.707 44.4158C140.878 51.1039 140.707 54.9624 140.707 59.7641C140.707 64.6516 138.049 79.3997 134.791 79.3997H143.194H145.166Z" fill="#85754E"/>
<path d="M145.252 38.4995C145.252 39.0997 144.737 39.6142 144.137 39.6142C143.537 39.6142 143.022 39.0997 143.022 38.4995V34.7267C143.022 34.1265 143.537 33.6121 144.137 33.6121C144.737 33.6121 145.252 34.1265 145.252 34.7267V38.4995Z" fill="#FFCB05" stroke="white" stroke-width="0.288"/>
</g>
<defs>
<linearGradient id="paint0_linear_2761_25526" x1="33.1778" y1="69.431" x2="117.663" y2="69.431" gradientUnits="userSpaceOnUse">
<stop stop-color="#C3922E"/>
<stop offset="0.3992" stop-color="#F4E09C"/>
<stop offset="0.7457" stop-color="#FBCC34"/>
<stop offset="1" stop-color="#CDA349"/>
</linearGradient>
<linearGradient id="paint1_linear_2761_25526" x1="33.1774" y1="69.431" x2="117.662" y2="69.431" gradientUnits="userSpaceOnUse">
<stop stop-color="#C3922E"/>
<stop offset="0.3992" stop-color="#F4E09C"/>
<stop offset="0.7457" stop-color="#FBCC34"/>
<stop offset="1" stop-color="#CDA349"/>
</linearGradient>
<linearGradient id="paint2_linear_2761_25526" x1="33.1775" y1="66.2049" x2="117.662" y2="66.2049" gradientUnits="userSpaceOnUse">
<stop stop-color="#C3922E"/>
<stop offset="0.3992" stop-color="#F4E09C"/>
<stop offset="0.7457" stop-color="#FBCC34"/>
<stop offset="1" stop-color="#CDA349"/>
</linearGradient>
<linearGradient id="paint3_linear_2761_25526" x1="33.1781" y1="69.4381" x2="117.663" y2="69.4381" gradientUnits="userSpaceOnUse">
<stop stop-color="#C3922E"/>
<stop offset="0.3992" stop-color="#F4E09C"/>
<stop offset="0.7457" stop-color="#FBCC34"/>
<stop offset="1" stop-color="#CDA349"/>
</linearGradient>
<linearGradient id="paint4_linear_2761_25526" x1="33.178" y1="69.2215" x2="117.663" y2="69.2215" gradientUnits="userSpaceOnUse">
<stop stop-color="#C3922E"/>
<stop offset="0.3992" stop-color="#F4E09C"/>
<stop offset="0.7457" stop-color="#FBCC34"/>
<stop offset="1" stop-color="#CDA349"/>
</linearGradient>
<linearGradient id="paint5_linear_2761_25526" x1="9.18598" y1="34.2554" x2="122.941" y2="37.1135" gradientUnits="userSpaceOnUse">
<stop stop-color="#C3922E"/>
<stop offset="0.3992" stop-color="#F4E09C"/>
<stop offset="0.7457" stop-color="#FBCC34"/>
<stop offset="1" stop-color="#CDA349"/>
</linearGradient>
<linearGradient id="paint6_linear_2761_25526" x1="9.02254" y1="40.7512" x2="122.777" y2="43.6094" gradientUnits="userSpaceOnUse">
<stop stop-color="#C3922E"/>
<stop offset="0.3992" stop-color="#F4E09C"/>
<stop offset="0.7457" stop-color="#FBCC34"/>
<stop offset="1" stop-color="#CDA349"/>
</linearGradient>
<linearGradient id="paint7_linear_2761_25526" x1="9.21493" y1="33.0912" x2="122.97" y2="35.9495" gradientUnits="userSpaceOnUse">
<stop stop-color="#C3922E"/>
<stop offset="0.3992" stop-color="#F4E09C"/>
<stop offset="0.7457" stop-color="#FBCC34"/>
<stop offset="1" stop-color="#CDA349"/>
</linearGradient>
<linearGradient id="paint8_linear_2761_25526" x1="9.12758" y1="36.5977" x2="122.883" y2="39.4558" gradientUnits="userSpaceOnUse">
<stop stop-color="#C3922E"/>
<stop offset="0.3992" stop-color="#F4E09C"/>
<stop offset="0.7457" stop-color="#FBCC34"/>
<stop offset="1" stop-color="#CDA349"/>
</linearGradient>
<linearGradient id="paint9_linear_2761_25526" x1="9.1464" y1="35.8367" x2="122.901" y2="38.6949" gradientUnits="userSpaceOnUse">
<stop stop-color="#C3922E"/>
<stop offset="0.3992" stop-color="#F4E09C"/>
<stop offset="0.7457" stop-color="#FBCC34"/>
<stop offset="1" stop-color="#CDA349"/>
</linearGradient>
<linearGradient id="paint10_linear_2761_25526" x1="9.17414" y1="34.7098" x2="122.929" y2="37.5679" gradientUnits="userSpaceOnUse">
<stop stop-color="#C3922E"/>
<stop offset="0.3992" stop-color="#F4E09C"/>
<stop offset="0.7457" stop-color="#FBCC34"/>
<stop offset="1" stop-color="#CDA349"/>
</linearGradient>
<clipPath id="clip0_2761_25526">
<rect width="159.143" height="80" fill="white"/>
</clipPath>
</defs>
</svg>
