<svg width="100" height="100" viewBox="0 0 100 100" fill="none" xmlns="http://www.w3.org/2000/svg">
<g clip-path="url(#clip0_1929_19633)">
<path d="M13.7108 65.1483C11.5678 60.2417 10.4684 54.9432 10.4826 49.589C10.4967 44.2348 11.624 38.9421 13.793 34.0469" stroke="#407BFF" stroke-width="2" stroke-miterlimit="10"/>
<path d="M65.858 84.3047C60.9684 86.6819 55.6319 87.9998 50.1978 88.1721C44.7637 88.3443 39.3545 87.367 34.3242 85.3042" stroke="#407BFF" stroke-width="2" stroke-miterlimit="10"/>
<path d="M83.4707 32.5684C85.9702 37.613 87.3354 43.1435 87.4706 48.7718C87.6058 54.4001 86.5076 59.9898 84.2531 65.1486" stroke="#407BFF" stroke-width="2" stroke-miterlimit="10"/>
<path d="M34.4492 14.0313C39.4966 11.9817 44.9205 11.023 50.3646 11.2182C55.8088 11.4134 61.1501 12.758 66.0377 15.1639" stroke="#407BFF" stroke-width="2" stroke-miterlimit="10"/>
<path d="M43.6426 55.4308V44.0465C44.515 43.9017 45.3835 43.7981 46.2324 43.6083C49.4017 42.9156 52.2746 41.248 54.4479 38.8394C55.1208 38.1098 55.7721 37.3606 56.4665 36.6526C57.2588 35.8447 58.2094 35.6589 59.1874 36.0971C60.1987 36.5489 60.7406 37.3235 60.7406 38.458C60.7406 45.9641 60.7406 53.4702 60.7406 60.9763C60.7582 61.4883 60.6158 61.993 60.3333 62.4204C60.0507 62.8477 59.642 63.1764 59.164 63.3607C58.7063 63.565 58.1955 63.6183 57.7056 63.5127C57.2157 63.4072 56.7721 63.1484 56.4392 62.7739C55.7937 62.1069 55.1873 61.4046 54.5594 60.718C51.7837 57.6803 48.3645 55.914 44.2568 55.5091C44.0573 55.4895 43.8695 55.4582 43.6426 55.4308Z" fill="#407BFF"/>
<path d="M41.9773 55.4331C40.7352 55.3588 39.5068 55.5974 38.3156 55.216C37.5395 54.972 36.8563 54.4972 36.3572 53.8548C35.8581 53.2124 35.5668 52.433 35.5223 51.6207C35.4617 50.4138 35.448 49.203 35.4949 47.9961C35.5849 45.7799 37.1556 44.1798 39.364 44.0351C40.2227 43.9803 41.0873 44.0351 41.9793 44.0351L41.9773 55.4331Z" fill="#407BFF"/>
<path d="M37.92 56.8218C39.5612 57.2286 41.171 56.9548 42.7672 57.0702C42.7837 57.1063 42.7956 57.1444 42.8024 57.1836C42.8024 58.5177 42.8337 59.8536 42.8024 61.1877C42.7912 61.6218 42.6638 62.0451 42.4334 62.4132C42.203 62.7813 41.8781 63.0809 41.4925 63.2807C41.1069 63.4805 40.6747 63.5731 40.2411 63.5491C39.8075 63.525 39.3883 63.385 39.0272 63.1438C38.7383 62.9673 38.4935 62.7272 38.3115 62.4417C38.1294 62.1563 38.015 61.8331 37.9768 61.4968C37.9494 61.3082 37.9337 61.1181 37.9298 60.9276C37.9181 59.5759 37.92 58.2165 37.92 56.8218Z" fill="#407BFF"/>
<path d="M68.064 50.5386C67.2816 50.5386 66.4894 50.5386 65.703 50.5386C65.0947 50.5288 64.7641 50.1474 64.8385 49.5919C64.8952 49.1478 65.1925 48.9092 65.7343 48.9053C66.8767 48.9053 68.021 48.9053 69.1633 48.9053C69.5819 48.9053 70.0005 48.9053 70.4211 48.9053C70.9864 48.9209 71.3033 49.23 71.2954 49.7386C71.2876 50.2471 70.9766 50.5307 70.4269 50.5386C69.6386 50.5483 68.8523 50.5386 68.064 50.5386Z" fill="#407BFF"/>
<path d="M63.9941 56.3442C63.9941 55.9002 64.1526 55.6479 64.4597 55.5109C64.6145 55.4327 64.7909 55.4081 64.9612 55.441C65.1315 55.4739 65.2861 55.5625 65.4006 55.6928C66.1999 56.4896 66.998 57.2877 67.7948 58.0871C67.8218 58.1143 67.8472 58.1431 67.8711 58.1731C68.0028 58.3229 68.0703 58.5185 68.059 58.7176C68.0476 58.9168 67.9583 59.1034 67.8104 59.2372C67.5033 59.5463 67.0613 59.6069 66.7502 59.3077C65.8798 58.4724 65.0328 57.6176 64.1897 56.755C64.0992 56.6316 64.0328 56.4923 63.9941 56.3442Z" fill="#407BFF"/>
<path d="M64.8117 44.0704C64.6557 44.0558 64.5063 44.0009 64.378 43.9111C64.2497 43.8212 64.1471 43.6995 64.0801 43.5579C63.9471 43.2742 63.9256 42.9711 64.1505 42.7363C65.0073 41.8541 65.8738 40.9758 66.7619 40.1289C66.8366 40.0632 66.9237 40.013 67.018 39.9814C67.1124 39.9497 67.2121 39.9371 67.3113 39.9444C67.4106 39.9517 67.5074 39.9787 67.5961 40.0238C67.6848 40.0689 67.7636 40.1312 67.8279 40.2071C67.9032 40.2814 67.9626 40.37 68.0026 40.4678C68.0425 40.5656 68.0623 40.6705 68.0607 40.7762C68.059 40.8819 68.036 40.986 67.993 41.0825C67.95 41.1791 67.8878 41.2659 67.8103 41.3377C67.2137 41.9597 66.5956 42.5622 65.9853 43.1725C65.8073 43.3712 65.6165 43.558 65.4142 43.7319C65.2224 43.8601 65.0209 43.9733 64.8117 44.0704Z" fill="#407BFF"/>
<path d="M82.2718 37.1026H79.9539C79.5001 37.0479 79.0463 36.9989 78.5964 36.9344C74.7107 36.3901 71.0961 34.6325 68.2684 31.9123C65.4407 29.1921 63.5444 25.6484 62.85 21.7866C62.7268 21.102 62.6544 20.4057 62.5625 19.7152V17.3972C62.6173 16.9434 62.6642 16.4896 62.7307 16.0378C63.2058 12.4351 64.7536 9.05873 67.173 6.3474C70.7604 2.32181 75.2691 0.19166 80.6698 0.0195263C84.1198 -0.126868 87.5351 0.758455 90.4795 2.56241C96.2518 6.10289 99.3542 11.2845 99.6515 18.0623C99.8117 21.5491 98.9151 25.003 97.0792 27.9717C94.1451 32.8032 89.8829 35.7686 84.314 36.8171C83.6411 36.9364 82.9584 37.0009 82.2718 37.1026ZM82.7159 29.9395V19.1929H85.7282L86.1194 15.4079H82.7139V13.3755C82.7139 12.3975 82.9897 12.1295 83.9658 12.1295H86.0412V8.47756C85.9948 8.45838 85.9462 8.44522 85.8964 8.43842C84.7384 8.43842 83.5746 8.37583 82.4205 8.43842C80.083 8.57339 78.704 9.74312 78.3519 11.9593C78.1934 12.9374 78.2658 13.9565 78.2365 14.956C78.2365 15.0949 78.2365 15.2338 78.2365 15.4157H76.1415V19.2085H78.2462V29.9317L82.7159 29.9395Z" fill="#407BFF"/>
<path d="M80.1941 62.9092H82.5121C82.7487 62.9385 82.9874 62.9699 83.2241 62.9953C87.1362 63.4197 90.6102 64.8653 93.5325 67.4942C98.4227 71.8876 100.527 77.4095 99.7157 83.9252C99.0897 88.9601 96.6544 93.058 92.6347 96.1525C88.5778 99.2822 83.9556 100.472 78.8855 99.8299C75.4846 99.4131 72.2765 98.0226 69.647 95.8259C66.1144 92.9133 63.9138 89.1987 63.0942 84.6861C62.971 83.9995 62.8986 83.3031 62.8066 82.6126V80.2928C62.836 80.0561 62.8673 79.8194 62.8947 79.5807C63.3115 75.555 65.0312 71.7754 67.7925 68.8163C70.5538 65.8573 74.2057 63.8808 78.1931 63.187C78.8562 63.0735 79.533 63.0011 80.1941 62.9092ZM81.3541 92.1602C83.1145 92.0937 84.8906 92.1035 86.655 91.9392C88.7676 91.7436 90.3715 90.6912 91.3124 88.7293C91.7141 87.8603 91.923 86.9148 91.9246 85.9575C91.9625 83.4707 91.9827 80.9839 91.9853 78.4971C91.9853 77.7147 91.9305 76.9323 91.8523 76.1498C91.5804 73.4426 89.7476 71.424 87.0756 71.0406C85.723 70.8713 84.3601 70.7987 82.9972 70.8234C80.6812 70.8234 78.3574 70.8117 76.0492 70.978C73.9367 71.1305 72.3229 72.2142 71.3918 74.1801C70.9929 75.0381 70.7847 75.9724 70.7815 76.9186C70.745 79.4275 70.7248 81.9378 70.7209 84.4494C70.7209 85.2084 70.7757 85.9712 70.848 86.7262C71.1317 89.6212 73.1953 91.7103 76.0922 91.9529C77.8331 92.0937 79.5877 92.0937 81.3541 92.1602Z" fill="#407BFF"/>
<path d="M72.5898 81.4564C72.6348 79.8387 72.6407 78.2211 72.7385 76.6073C72.8715 74.3833 74.2838 72.9103 76.5118 72.8517C79.7288 72.7656 82.9492 72.7656 86.1728 72.8517C88.432 72.9123 89.8893 74.3735 89.9578 76.621C90.0438 79.8407 90.0438 83.0617 89.9578 86.284C89.8991 88.5295 88.4262 89.9457 86.1767 90.0748C82.9473 90.2607 79.7099 90.2607 76.4805 90.0748C75.0799 89.9946 73.9161 89.4117 73.2236 88.1188C72.7913 87.3109 72.6876 86.4209 72.674 85.5231C72.6544 84.1714 72.674 82.8198 72.674 81.4681L72.5898 81.4564ZM86.8183 81.4564C86.8159 80.3765 86.4937 79.3214 85.8923 78.4245C85.2909 77.5275 84.4372 76.8289 83.4391 76.4167C82.4409 76.0045 81.343 75.8972 80.2839 76.1085C79.2249 76.3197 78.2521 76.84 77.4885 77.6036C76.7249 78.3672 76.2046 79.34 75.9934 80.399C75.7821 81.4581 75.8894 82.556 76.3016 83.5542C76.7138 84.5523 77.4124 85.406 78.3094 86.0075C79.2063 86.6089 80.2614 86.9311 81.3413 86.9334C82.0618 86.9362 82.7758 86.7963 83.442 86.5217C84.1081 86.2471 84.7133 85.8433 85.2225 85.3335C85.7318 84.8237 86.135 84.2181 86.4089 83.5516C86.6828 82.8852 86.8219 82.1711 86.8183 81.4505V81.4564ZM88.3108 75.7838C88.3141 75.5331 88.2433 75.287 88.1072 75.0765C87.9712 74.866 87.7759 74.7003 87.5459 74.6005C87.316 74.5006 87.0617 74.471 86.8149 74.5152C86.5682 74.5595 86.34 74.6757 86.1591 74.8493C85.9782 75.0228 85.8527 75.2461 85.7983 75.4908C85.7439 75.7355 85.763 75.9908 85.8533 76.2247C85.9436 76.4585 86.1011 76.6605 86.3058 76.8051C86.5106 76.9498 86.7535 77.0307 87.0041 77.0376C87.1725 77.0428 87.3403 77.0144 87.4976 76.9541C87.6549 76.8937 87.7985 76.8025 87.9202 76.686C88.0419 76.5694 88.1391 76.4298 88.2061 76.2752C88.2732 76.1206 88.3088 75.9542 88.3108 75.7858V75.7838Z" fill="#407BFF"/>
<path d="M81.3314 85.0028C80.6294 84.9981 79.9447 84.7854 79.3637 84.3914C78.7827 83.9975 78.3316 83.4401 78.0674 82.7898C77.8033 82.1394 77.738 81.4253 77.8798 80.7379C78.0216 80.0504 78.3641 79.4204 78.864 78.9276C79.3639 78.4348 79.9987 78.1014 80.6881 77.9695C81.3776 77.8376 82.0907 77.9131 82.7372 78.1865C83.3837 78.46 83.9345 78.919 84.3201 79.5056C84.7056 80.0922 84.9085 80.7799 84.9031 81.4818C84.8938 82.4216 84.5129 83.3195 83.8437 83.9792C83.1744 84.639 82.2711 85.0069 81.3314 85.0028Z" fill="#407BFF"/>
<path d="M19.9732 99.8787H17.6552C17.5651 99.8505 17.4729 99.8296 17.3794 99.8161C15.7292 99.6965 14.1033 99.3496 12.548 98.7853C8.131 97.1988 4.4795 93.9972 2.32924 89.8255C0.178979 85.6538 -0.310221 80.8222 0.960221 76.3042C4.21903 64.6538 17.6024 59.1925 28.1085 65.2935C33.0593 68.1689 36.0364 72.5192 37.0829 78.1644C37.2042 78.8275 37.2785 79.5004 37.3607 80.1674V82.413C37.3411 82.5303 37.3157 82.6457 37.3 82.7631C37.2003 83.4908 37.1357 84.2263 36.9968 84.9461C36.2695 88.6155 34.4482 91.9787 31.7727 94.5932C29.0971 97.2076 25.6927 98.9507 22.0075 99.5931C21.3327 99.7085 20.6559 99.7848 19.9732 99.8787ZM18.8191 88.3007C20.7497 88.3007 22.6823 88.3007 24.613 88.3007C24.9147 88.3094 25.2165 88.2904 25.5147 88.244C26.3814 88.0993 27.1673 87.6484 27.7295 86.9731C28.2917 86.2978 28.5927 85.4432 28.5779 84.5646C28.5955 82.4032 28.5779 80.2418 28.5779 78.0823C28.5761 77.8045 28.5446 77.5278 28.484 77.2568C28.0928 75.512 26.6649 74.3677 24.8184 74.3599C20.8123 74.3442 16.7985 74.3599 12.7964 74.3599C12.5671 74.3568 12.3379 74.3745 12.1118 74.4127C11.2512 74.5566 10.4702 75.0029 9.90941 75.6713C9.34858 76.3397 9.04471 77.1863 9.05247 78.0588C9.029 80.2437 9.05247 82.4286 9.05247 84.6135C9.05431 84.8769 9.08515 85.1393 9.14441 85.396C9.54736 87.1564 10.9909 88.2851 12.8825 88.2949C14.86 88.3086 16.8396 88.3007 18.8191 88.3007Z" fill="#407BFF"/>
<path d="M16.2715 78.3506L21.3885 81.3355L16.2715 84.3048V78.3506Z" fill="#407BFF"/>
<path d="M0 19.8501V17.5419C0.0234728 17.4246 0.048895 17.3092 0.0664996 17.1898C0.177995 16.4074 0.242546 15.625 0.408811 14.8661C1.47487 9.99936 4.07448 6.13808 8.18613 3.34286C12.2352 0.588717 16.7322 -0.361932 21.5637 0.408759C24.9995 0.936535 28.2053 2.45987 30.7846 4.79035C34.8043 8.38365 36.9286 12.8963 37.0909 18.2872C37.2183 21.7491 36.3215 25.1717 34.5128 28.1262C31.5787 32.9577 27.3165 35.9212 21.7475 36.9716C21.0747 37.0968 20.39 37.1672 19.7113 37.2552H17.3914C16.9395 37.1985 16.4857 37.1515 16.0339 37.0869C12.1489 36.5411 8.53543 34.783 5.70835 32.063C2.88127 29.3431 0.984885 25.8001 0.289494 21.9392C0.166262 21.2369 0.0958473 20.5426 0 19.8501ZM26.671 12.9315L26.626 12.8415C27.4135 12.3295 28.0119 11.5738 28.3297 10.6898C27.5473 10.9696 26.7512 11.2454 25.9629 11.527C25.8748 11.5604 25.7784 11.5651 25.6874 11.5405C25.5964 11.5159 25.5156 11.4633 25.4562 11.3901C23.0522 9.16803 19.1558 10.3417 18.4144 13.5261C18.2716 14.1442 18.3127 14.8034 18.2657 15.4822C14.7937 15.2377 11.9007 13.7452 9.59059 11.0459C9.17804 11.7269 8.97846 12.5157 9.01746 13.311C9.07028 14.7096 9.69817 15.8187 10.8092 16.6715L10.7544 16.7732L8.99399 16.2822C8.89814 18.0427 9.97202 19.4119 12.2215 20.5073H10.461C11.1828 22.346 12.4875 23.2908 14.426 23.4982C12.5638 24.8948 10.5315 25.4444 8.19787 25.2586C8.33088 25.3505 8.36805 25.3799 8.40717 25.4034C12.1961 27.5766 16.1454 27.8543 20.0477 25.9354C24.5271 23.7348 26.6436 19.901 26.8138 14.9639C26.806 14.8016 26.8398 14.64 26.912 14.4945C26.9843 14.349 27.0925 14.2244 27.2265 14.1325C27.8702 13.6335 28.4262 13.0306 28.8715 12.3486L26.671 12.9315Z" fill="#407BFF"/>
</g>
<defs>
<clipPath id="clip0_1929_19633">
<rect width="99.8846" height="100" fill="white"/>
</clipPath>
</defs>
</svg>
