<svg width="203" height="200" viewBox="0 0 203 200" fill="none" xmlns="http://www.w3.org/2000/svg">
<path d="M25.9463 8.7903C25.6434 7.85399 26.7353 7.08455 27.5233 7.6727C35.5308 13.647 55.2314 32.0167 54.9389 68.0672C54.5742 113.298 65.7183 128.521 78.4146 137.137C78.4146 137.137 61.9967 134.272 50.1245 118.891C20.9732 81.123 31.3385 25.4296 25.9463 8.7903Z" fill="#E0E0E0"/>
<g style="mix-blend-mode:soft-light">
<path d="M33.0366 22.0943C34.5065 26.9582 35.8795 31.8478 37.0713 36.7817C38.2895 41.7074 39.3538 46.6653 40.2644 51.6555C41.1575 56.645 41.9568 61.6469 42.5418 66.6838C43.1496 71.7135 43.5399 76.7638 43.9149 81.8358C44.3176 86.9025 44.6957 92.0095 45.5959 97.0928C46.4962 102.176 48.0052 107.215 50.3969 111.837C50.9954 112.988 51.6155 114.134 52.2984 115.236C52.9597 116.346 53.6714 117.428 54.4017 118.496C55.8736 120.631 57.4938 122.66 59.2502 124.568C62.7791 128.373 66.8859 131.637 71.3017 134.293C71.4112 134.361 71.533 134.407 71.6602 134.428C71.7875 134.449 71.9176 134.445 72.0432 134.415C72.1688 134.386 72.2873 134.332 72.3922 134.257C72.497 134.182 72.586 134.087 72.6541 133.978C72.7222 133.868 72.7681 133.746 72.7891 133.619C72.8101 133.492 72.8059 133.362 72.7766 133.236C72.7473 133.11 72.6936 132.992 72.6185 132.887C72.5434 132.782 72.4484 132.693 72.3389 132.625C71.2831 131.948 70.2356 131.261 69.223 130.529C68.708 130.172 68.2157 129.791 67.714 129.421C67.2258 129.032 66.7231 128.662 66.2483 128.259C64.3205 126.679 62.5094 124.961 60.8292 123.12C57.4599 119.459 54.6191 115.275 52.3262 110.862C51.2028 108.644 50.2487 106.344 49.472 103.982C48.7029 101.606 48.0931 99.1818 47.6467 96.725C46.7341 91.7953 46.319 86.7439 45.8802 81.6802C45.4414 76.6165 44.9532 71.5312 44.2589 66.4727C43.9204 63.9429 43.5365 61.4203 43.1073 58.905C42.9013 57.6462 42.6675 56.3917 42.4378 55.1371C42.2081 53.8825 41.9485 52.633 41.69 51.3846C40.6483 46.3896 39.4527 41.433 38.1034 36.5149C36.7293 31.6068 35.2254 26.7377 33.5372 21.9336C33.513 21.8705 33.4654 21.8191 33.4043 21.79C33.3432 21.761 33.2733 21.7565 33.209 21.7775C33.1448 21.7986 33.091 21.8435 33.0589 21.903C33.0268 21.9626 33.0188 22.0321 33.0366 22.0974V22.0943Z" fill="white"/>
</g>
<path d="M43.7591 156.484C43.6344 156.884 43.4134 157.247 43.1155 157.541C42.8176 157.835 42.4519 158.051 42.0507 158.171C41.6495 158.29 41.225 158.309 40.8147 158.226C40.4043 158.143 40.0207 157.961 39.6976 157.694C31.9661 151.349 11.7289 131.428 11.8947 96.9064C12.0348 67.75 9.34021 51.9265 7.61901 44.8284C7.25437 43.3277 9.01883 42.2337 10.2024 43.2257C23.2684 54.1647 63.0157 93.6885 43.7591 156.484Z" fill="#E0E0E0"/>
<g style="mix-blend-mode:soft-light">
<path d="M41.3101 156.618C41.2734 156.645 41.2341 156.669 41.1926 156.688C41.0231 156.768 40.8286 156.778 40.6519 156.715C40.4751 156.652 40.3306 156.522 40.2502 156.352C40.0596 155.951 21.2428 115.856 19.606 75.3063C19.5985 75.1188 19.6658 74.9359 19.7931 74.798C19.9204 74.6601 20.0973 74.5784 20.2848 74.5709C20.4724 74.5634 20.6552 74.6307 20.7931 74.758C20.9311 74.8853 21.0128 75.0621 21.0203 75.2497C22.6447 115.504 41.3399 155.348 41.5284 155.745C41.5986 155.894 41.6152 156.062 41.5754 156.221C41.5356 156.38 41.4418 156.52 41.3101 156.618Z" fill="white"/>
</g>
<path d="M17.9182 166.391C17.9209 167.197 18.2424 167.969 18.8125 168.538C19.3827 169.108 20.155 169.429 20.9609 169.431H185.515C186.321 169.428 187.093 169.108 187.663 168.538C188.234 167.969 188.555 167.197 188.558 166.391L189.927 71.8258C189.927 70.1541 187.958 66.8899 184.347 67.135L23.5267 62.9736C22.4883 62.9464 21.4551 63.1305 20.49 63.5146C19.5248 63.8987 18.6477 64.4749 17.9119 65.2082C17.1761 65.9415 16.5969 66.8166 16.2095 67.7804C15.8221 68.7443 15.6346 69.7768 15.6582 70.8154L17.9182 166.391Z" fill="#333435"/>
<path d="M20.9233 163.474C20.9233 164.238 21.2264 164.971 21.7662 165.511C22.3059 166.052 23.0382 166.357 23.8022 166.358H181.547C182.312 166.358 183.046 166.054 183.587 165.513C184.127 164.972 184.431 164.239 184.431 163.474L185.723 77.6271C185.571 72.4614 181.041 70.6053 178.296 70.7145L24.1597 66.5788C23.4295 66.5599 22.7032 66.6896 22.0247 66.9599C21.3462 67.2303 20.7297 67.6356 20.2126 68.1515C19.6955 68.6673 19.2886 69.2828 19.0167 69.9607C18.7447 70.6385 18.6133 71.3645 18.6304 72.0947L20.9233 163.474Z" fill="#FFF3EE"/>
<path d="M182.723 110.893H182.717C182.484 110.893 182.298 110.743 182.305 110.563L182.408 105.191C182.408 105.013 182.599 104.871 182.829 104.871H182.835C183.068 104.871 183.255 105.021 183.247 105.2L183.144 110.573C183.141 110.751 182.953 110.893 182.723 110.893Z" fill="#C6C9D3"/>
<path d="M182.97 97.7294H182.964C182.731 97.7294 182.545 97.5779 182.552 97.3987L182.943 76.8226C182.936 75.6009 182.455 74.6255 181.514 73.9292C179.763 72.6313 176.969 72.6931 176.852 72.7014L127.588 71.6816C127.355 71.6816 127.176 71.5271 127.176 71.3479C127.176 71.1687 127.361 71.0152 127.609 71.0317L176.845 72.0504C177.154 72.037 180.121 71.9968 182.099 73.4595C183.211 74.2835 183.78 75.4166 183.788 76.8267L183.397 97.408C183.388 97.5862 183.201 97.7294 182.97 97.7294Z" fill="#C6C9D3"/>
<path d="M9.76662 177.281L194.804 177.281C195.512 177.281 196.086 176.706 196.086 175.998V170.255C196.086 169.546 195.512 168.972 194.804 168.972L9.76662 168.972C9.05836 168.972 8.48422 169.546 8.48422 170.255V175.998C8.48422 176.706 9.05836 177.281 9.76662 177.281Z" fill="#48494B"/>
<path d="M55.9347 145.225C56.6362 117.471 77.818 95.2037 103.847 95.2037C129.876 95.2037 151.057 117.471 151.759 145.225H167.003C169.391 145.225 171.287 143.056 171.123 140.501C168.705 102.884 139.508 73.1742 103.845 73.1742C68.2973 73.1742 39.1738 102.692 36.5905 140.136C36.401 142.881 38.4147 145.225 40.9785 145.225H55.9347Z" fill="#407BFF"/>
<path d="M103.85 97.612C103.429 97.612 103.025 97.4446 102.727 97.1467C102.429 96.8489 102.262 96.4449 102.262 96.0236V71.2975C102.272 70.8833 102.444 70.4897 102.741 70.2006C103.037 69.9114 103.435 69.7496 103.85 69.7496C104.264 69.7496 104.662 69.9114 104.958 70.2006C105.255 70.4897 105.427 70.8833 105.437 71.2975V96.0236C105.437 96.2322 105.397 96.4387 105.317 96.6314C105.237 96.8241 105.12 96.9992 104.973 97.1467C104.825 97.2942 104.65 97.4112 104.458 97.491C104.265 97.5709 104.059 97.612 103.85 97.612Z" fill="white"/>
<path d="M129.318 104.991C129.039 104.991 128.765 104.918 128.523 104.778C128.282 104.639 128.082 104.438 127.942 104.196C127.803 103.955 127.73 103.68 127.73 103.402C127.731 103.123 127.805 102.849 127.945 102.608L139.879 81.9841C140.091 81.6227 140.438 81.36 140.844 81.2534C141.249 81.1468 141.681 81.2048 142.043 81.4149C142.406 81.6249 142.671 81.97 142.781 82.3748C142.89 82.7795 142.835 83.2112 142.628 83.5755L130.694 104.198C130.554 104.439 130.354 104.64 130.112 104.779C129.87 104.918 129.596 104.991 129.318 104.991Z" fill="white"/>
<path d="M145.672 124.392C145.316 124.392 144.97 124.273 144.69 124.053C144.41 123.834 144.212 123.526 144.127 123.181C144.043 122.835 144.077 122.471 144.224 122.147C144.372 121.823 144.623 121.557 144.939 121.394L164.837 111.068C165.21 110.878 165.644 110.844 166.042 110.972C166.441 111.1 166.774 111.38 166.967 111.752C167.16 112.124 167.198 112.557 167.073 112.957C166.948 113.357 166.671 113.692 166.3 113.888L146.402 124.213C146.177 124.33 145.926 124.392 145.672 124.392Z" fill="white"/>
<path d="M79.1664 105.236C78.9232 105.237 78.6832 105.181 78.465 105.074C78.2467 104.967 78.056 104.811 77.9077 104.618L63.4706 85.8869C63.2134 85.5527 63.0995 85.13 63.154 84.7118C63.2084 84.2936 63.4268 83.9141 63.761 83.6569C64.0953 83.3997 64.518 83.2858 64.9362 83.3403C65.3544 83.3948 65.7339 83.6131 65.9911 83.9474L80.4282 102.679C80.6092 102.914 80.7207 103.195 80.7503 103.49C80.7799 103.785 80.7262 104.082 80.5954 104.348C80.4646 104.615 80.262 104.839 80.0103 104.996C79.7586 105.153 79.4681 105.236 79.1715 105.236H79.1664Z" fill="white"/>
<path d="M63.1371 124.089C62.921 124.089 62.7073 124.045 62.5088 123.959L40.5689 114.506C40.182 114.339 39.8773 114.025 39.7217 113.634C39.5661 113.242 39.5724 112.805 39.7392 112.418C39.9059 112.031 40.2196 111.727 40.611 111.571C41.0025 111.416 41.4397 111.422 41.8265 111.589L63.7665 121.042C64.1021 121.187 64.3776 121.443 64.5464 121.767C64.7153 122.092 64.7671 122.464 64.6931 122.822C64.6192 123.18 64.424 123.502 64.1405 123.733C63.8571 123.963 63.5027 124.089 63.1371 124.089Z" fill="white"/>
<path d="M99.3437 136.776L94.3799 71.2655C94.3572 70.9658 94.7322 70.9101 94.7919 71.2037L108.079 134.365L99.3437 136.776Z" fill="#48494B"/>
<path d="M104.746 145.542C108.577 145.542 111.683 142.436 111.683 138.605C111.683 134.773 108.577 131.667 104.746 131.667C100.915 131.667 97.8086 134.773 97.8086 138.605C97.8086 142.436 100.915 145.542 104.746 145.542Z" fill="#48494B"/>
<path d="M104.524 144.108C103.479 144.108 102.457 143.798 101.588 143.217C100.718 142.636 100.041 141.811 99.6406 140.845C99.2405 139.879 99.1359 138.816 99.3399 137.79C99.544 136.765 100.048 135.823 100.787 135.084C101.526 134.344 102.468 133.841 103.494 133.637C104.519 133.433 105.582 133.538 106.548 133.938C107.514 134.339 108.34 135.016 108.92 135.886C109.501 136.755 109.811 137.777 109.811 138.823C109.809 140.224 109.252 141.568 108.26 142.559C107.269 143.549 105.926 144.107 104.524 144.108ZM104.524 133.763C103.524 133.763 102.545 134.06 101.713 134.616C100.881 135.171 100.232 135.961 99.8493 136.886C99.4662 137.81 99.3658 138.828 99.561 139.809C99.7561 140.791 100.238 141.693 100.945 142.4C101.653 143.108 102.554 143.59 103.536 143.785C104.517 143.98 105.535 143.88 106.459 143.497C107.384 143.115 108.174 142.466 108.73 141.634C109.286 140.802 109.583 139.824 109.583 138.823C109.582 137.482 109.048 136.196 108.1 135.247C107.152 134.299 105.866 133.765 104.524 133.763Z" fill="#EFEFF4"/>
<path d="M170.673 40.4291C170.673 40.3395 170.666 40.2561 170.664 40.185C170.661 40.0851 170.68 39.9856 170.719 39.8937C170.758 39.8017 170.817 39.7193 170.891 39.6525C171.776 38.8583 175.087 36.1349 179.767 35.2861C179.879 35.2648 179.996 35.277 180.101 35.3211C180.207 35.3652 180.297 35.4394 180.361 35.5343C179.815 35.6091 179.275 35.7202 178.744 35.8671C176.431 36.4768 173.067 38.093 170.673 40.4291Z" fill="#48494B"/>
<path d="M178.746 35.8691C179.277 35.7223 179.817 35.6111 180.363 35.5364C180.429 35.6312 180.465 35.7432 180.468 35.8585C180.471 35.9738 180.44 36.0874 180.379 36.1853C180.292 36.325 180.197 36.4592 180.094 36.587C179.362 37.5038 173.442 43.5779 173.442 43.5779C173.442 43.5779 171.562 43.8066 170.989 43.4749C170.802 43.3719 170.71 41.4148 170.68 40.4322C173.068 38.0929 176.432 36.4768 178.746 35.8691Z" fill="#333435"/>
<path d="M170.898 46.7402V43.1227C170.898 42.9731 170.944 42.8271 171.032 42.7057C171.119 42.5843 171.243 42.4938 171.385 42.4469C171.834 42.3027 172.524 42.1678 173.151 42.4037C173.331 42.4737 173.488 42.5935 173.602 42.7491C173.717 42.9047 173.785 43.0896 173.798 43.2823L174.068 46.6619L170.898 46.7402Z" fill="#FFBC96"/>
<path d="M185.247 43.5367C185.289 43.3995 185.37 43.2777 185.481 43.1865C186.24 43.3359 187.821 43.7541 191.062 44.8985C194.817 46.2241 195.917 47.3829 196.233 48.002C194.625 48.4727 190.967 49.1937 185.72 48.1678L184.684 47.6816C184.684 47.6816 184.758 45.1539 185.247 43.5367Z" fill="#333435"/>
<path d="M191.061 44.8984C187.821 43.7541 186.24 43.3359 185.48 43.1865C185.565 43.1158 185.665 43.065 185.772 43.0379C185.879 43.0108 185.99 43.0081 186.098 43.0299C187.964 43.4183 193.6 44.745 196.545 47.1336C196.613 47.187 196.665 47.2579 196.696 47.3387C196.726 47.4196 196.734 47.5072 196.718 47.5921C196.702 47.6771 196.664 47.7561 196.606 47.8205C196.548 47.8849 196.474 47.9324 196.392 47.9577L196.231 48.0061C195.917 47.3829 194.817 46.2241 191.061 44.8984Z" fill="#48494B"/>
<path d="M182.742 49.8664L184.95 47.2212C185.054 47.0951 185.195 47.0034 185.352 46.958C185.51 46.9126 185.677 46.9157 185.833 46.9668C186.325 47.1349 186.765 47.4273 187.111 47.8155C187.213 47.9291 187.279 48.0714 187.299 48.2233C187.318 48.3752 187.291 48.5295 187.22 48.6653L185.614 51.7781L182.742 49.8664Z" fill="#FFBC96"/>
<path d="M174.551 45.4763C174.551 45.4763 171.857 44.9613 170.362 45.4763C170.362 45.4763 168.392 57.3002 168.731 61.1021L174.551 62.2856C174.551 62.2856 174.716 48.9672 174.551 45.4763Z" fill="black"/>
<path d="M150.66 66.1977C150.66 66.1977 169.693 67.2659 177.418 66.7333C177.791 66.7092 178.151 66.5876 178.462 66.3809C178.774 66.1741 179.025 65.8894 179.192 65.555C180.848 62.2403 185.813 52.2942 186.248 51.3404C186.248 51.3404 184.232 49.6552 182.746 49.4224C182.746 49.4224 175.696 57.2652 175.402 61.2679C175.402 61.2679 159.077 56.5719 157.465 56.6173C155.853 56.6626 150.9 58.8669 150.9 58.8669L150.66 66.1977Z" fill="black"/>
<path d="M125.293 51.362C125.293 51.362 125.991 49.9106 125.385 49.1443C124.78 48.3779 122.596 46.0068 122.596 46.0068L122.342 44.3669L121.445 47.0368L123.37 51.0643C123.37 51.0643 124.498 52.2839 125.293 51.362Z" fill="#FFBC96"/>
<path d="M120.402 58.1159C121.091 55.6499 122.089 53.2806 123.371 51.0643L125.293 51.362L124.344 58.0253C123.619 58.2488 121.64 58.7453 120.402 58.1159Z" fill="#FFBC96"/>
<path d="M119.158 64.6042C119.391 62.4101 119.807 60.2394 120.402 58.1149C121.639 58.7443 123.619 58.2437 124.344 58.0243L124.073 59.9371L124.801 57.3619C125.687 54.2277 127.572 51.4685 130.169 49.5037L131.978 48.1348C133.755 46.7896 136.597 47.2541 138.411 48.5468C142.437 51.4237 148.413 56.2485 150.454 57.9079C150.669 58.0825 150.928 58.1943 151.203 58.2306C151.478 58.267 151.757 58.2266 152.01 58.1139L152.35 57.9625C152.424 57.9299 152.504 57.9172 152.584 57.9258C152.664 57.9344 152.74 57.9639 152.805 58.0114C152.87 58.0588 152.921 58.1225 152.953 58.196C152.986 58.2696 152.998 58.3503 152.989 58.4301L152.123 66.3511L138.291 66.1915C136.633 66.1915 131.829 66.0205 131.064 64.5485L129.785 61.409C126.789 63.9583 122.944 65.7094 120.885 66.2193C119.935 66.4613 119.045 65.6322 119.158 64.6042Z" fill="#407BFF"/>
<path d="M128.872 43.8859L133.123 48.0164C133.261 48.149 133.344 48.3291 133.354 48.5203C133.365 48.7114 133.302 48.8995 133.18 49.0464C131.868 50.609 130.743 51.4279 129.807 51.4897C129.612 51.4997 129.417 51.4572 129.244 51.3666C129.07 51.2761 128.924 51.1408 128.821 50.9747L126.559 47.4045L128.872 43.8859Z" fill="#FFBC96"/>
<path d="M120.289 64.2385L116.631 62.815L112.379 66.1977L119.993 66.2255L120.289 64.2385Z" fill="#FFBC96"/>
<path d="M121.742 42.9311C121.742 42.9311 122.322 47.0111 123.89 48.2657C125.458 49.5203 128.511 48.5747 129.542 45.5L127.482 40.2406L121.742 42.9311Z" fill="#FFBC96"/>
<path d="M127.721 43.6439C127.693 43.6523 127.663 43.6548 127.634 43.651C127.605 43.6473 127.578 43.6374 127.553 43.6222C127.528 43.6069 127.507 43.5865 127.49 43.5624C127.474 43.5382 127.463 43.5109 127.458 43.4822C127.401 43.1052 127.26 42.3605 126.974 41.8526C126.974 41.8526 127.123 41.317 125.621 42.1256C124.12 42.9342 121.863 44.1218 120.534 43.4152C119.239 42.7251 117.927 39.2549 121.35 39.8976C121.38 39.9027 121.411 39.901 121.44 39.8926C121.47 39.8842 121.497 39.8694 121.52 39.8491C121.543 39.8289 121.561 39.8038 121.573 39.7757C121.585 39.7475 121.591 39.7171 121.59 39.6865C121.549 39.1158 121.604 37.8035 122.929 37.3823C124.172 36.9888 124.853 37.5502 125.133 37.889C125.153 37.9106 125.177 37.9278 125.204 37.9394C125.231 37.951 125.26 37.9567 125.289 37.9562C125.318 37.9557 125.347 37.949 125.373 37.9366C125.4 37.9241 125.423 37.9061 125.442 37.8839C125.815 37.3967 126.827 36.3625 128.316 37.0187C129.543 37.5594 129.733 38.3144 129.714 38.7852C129.713 38.8194 129.721 38.8533 129.737 38.8836C129.753 38.914 129.776 38.9399 129.805 38.959C129.833 38.9782 129.866 38.9899 129.9 38.9932C129.934 38.9965 129.969 38.9912 130 38.9778C130.376 38.8047 130.981 38.7141 131.56 39.4403C132.359 40.4425 131.216 41.3119 130.873 41.5395C130.845 41.5579 130.822 41.5827 130.806 41.6117C130.79 41.6408 130.782 41.6732 130.781 41.7064C130.781 42.2286 130.696 44.5029 129.557 45.7853C129.534 45.8102 129.505 45.8289 129.473 45.8398C129.44 45.8507 129.406 45.8534 129.372 45.8476C129.339 45.8419 129.307 45.828 129.28 45.807C129.253 45.7861 129.232 45.7588 129.218 45.7277L128.341 43.6357C128.321 43.592 128.287 43.5565 128.244 43.5353C128.201 43.5141 128.152 43.5084 128.106 43.5193L127.721 43.6439Z" fill="#333435"/>
<path d="M127.699 44.0682C127.699 44.0682 128.235 41.8856 129.05 42.5943C129.864 43.3029 128.837 44.8603 127.904 45.1601L127.699 44.0682Z" fill="#FFBC96"/>
<path d="M133.822 53.2779C133.822 53.2779 133.657 48.2307 135.733 48.1277C138.308 48.002 142.451 49.8684 139.985 57.2714C138.623 61.3617 136.57 64.3962 130.935 65.6817C130.73 64.0858 130.067 62.5834 129.027 61.3555C131.323 59.7301 133.268 57.2096 133.822 53.2779Z" fill="#5C8EFF"/>
<path d="M129.289 61.3627C129.33 61.3624 129.371 61.3494 129.405 61.3256C132.048 59.4633 133.516 56.9139 134.025 53.3057C134.026 53.2944 134.026 53.283 134.025 53.2717C133.982 51.9213 134.206 48.4027 135.744 48.3275C136.497 48.2928 137.248 48.428 137.941 48.723C137.966 48.7403 137.995 48.7519 138.025 48.7568C138.055 48.7618 138.086 48.76 138.115 48.7516C138.144 48.7432 138.171 48.7285 138.194 48.7084C138.217 48.6883 138.235 48.6634 138.247 48.6355C138.259 48.6075 138.265 48.5772 138.264 48.5468C138.263 48.5164 138.255 48.4865 138.241 48.4594C138.228 48.4323 138.208 48.4087 138.184 48.3901C138.159 48.3716 138.132 48.3586 138.102 48.3522C137.351 48.0329 136.539 47.8865 135.724 47.9237C133.52 48.0267 133.611 52.8782 133.621 53.2665C133.128 56.7481 131.713 59.2047 129.171 60.9919C129.139 61.0178 129.115 61.0531 129.103 61.093C129.091 61.1329 129.091 61.1755 129.103 61.2152C129.116 61.2549 129.14 61.2899 129.173 61.3155C129.206 61.3411 129.246 61.3561 129.288 61.3585L129.289 61.3627Z" fill="#3775FF"/>
<path d="M132.729 65.3736C132.752 65.3738 132.774 65.37 132.795 65.3623C137.47 63.7493 139.105 60.5499 140.177 57.3331C140.407 56.6507 140.593 55.9539 140.734 55.2473C140.734 55.1997 140.717 55.1536 140.686 55.1169C140.656 55.0802 140.614 55.0552 140.567 55.0461C140.52 55.037 140.472 55.0444 140.43 55.067C140.388 55.0896 140.355 55.126 140.337 55.17C140.2 55.8596 140.019 56.5395 139.793 57.2054C138.755 60.3244 137.173 63.4248 132.663 64.9812C132.622 65 132.588 65.032 132.567 65.072C132.546 65.112 132.538 65.158 132.546 65.2027C132.553 65.2474 132.575 65.2884 132.609 65.3193C132.642 65.3502 132.684 65.3693 132.729 65.3736Z" fill="#3775FF"/>
<path d="M119.254 66.1977L119.263 64.2406C119.263 64.2406 124.753 64.3621 129.028 61.3503C130.068 62.5782 130.73 64.0806 130.936 65.6765C128.084 66.3295 124.317 66.5335 119.254 66.1977Z" fill="#FFBC96"/>
<path d="M126.295 66.8816C126.282 66.8816 126.268 66.8816 126.255 66.8816L108.79 66.8631C108.582 66.8631 108.383 66.7807 108.237 66.6341C108.09 66.4875 108.008 66.2886 108.008 66.0813C108.008 65.874 108.09 65.6751 108.237 65.5285C108.383 65.3819 108.582 65.2995 108.79 65.2995L126.254 65.3191C126.458 65.3193 126.653 65.3991 126.799 65.5415C126.945 65.6839 127.029 65.8776 127.035 66.0813C127.04 66.285 126.965 66.4827 126.827 66.6322C126.688 66.7817 126.497 66.8712 126.293 66.8816H126.295Z" fill="#48494B"/>
<path d="M93.0879 51.0241H107.632C108.158 51.0241 108.673 51.1735 109.117 51.4549C109.561 51.7363 109.916 52.1381 110.14 52.6135L116.864 66.8723H98.7881C98.4502 66.8721 98.1202 66.7703 97.8408 66.5802C97.5615 66.3901 97.3457 66.1205 97.2214 65.8063L92.0074 52.6124C91.9376 52.4363 91.912 52.2457 91.9328 52.0574C91.9536 51.869 92.0203 51.6887 92.1268 51.532C92.2334 51.3754 92.3767 51.2472 92.5442 51.1586C92.7117 51.0701 92.8984 51.0239 93.0879 51.0241Z" fill="#48494B"/>
<path d="M103.337 58.3343C103.652 59.3139 103.419 60.2646 102.822 60.4593C102.224 60.654 101.475 60.0164 101.16 59.0368C100.845 58.0572 101.078 57.1065 101.68 56.9129C102.283 56.7192 103.021 57.3558 103.337 58.3343Z" fill="#A8ABB2"/>
<path d="M73.6809 122.26L37.2318 158.795C36.8694 159.158 36.586 159.591 36.3994 160.068C36.2128 160.545 36.127 161.055 36.1475 161.567C36.168 162.079 36.2944 162.581 36.5186 163.042C36.7428 163.502 37.06 163.911 37.4502 164.243L37.7201 164.473C38.0662 164.769 38.4674 164.993 38.9006 165.133C39.3337 165.272 39.7902 165.325 40.2439 165.288C40.6975 165.251 41.1392 165.124 41.5437 164.915C41.9481 164.706 42.3073 164.42 42.6004 164.071L76.0243 124.388L73.6809 122.26Z" fill="#333435"/>
<path opacity="0.2" d="M99.3369 124.489C111.313 118.886 116.562 104.811 111.061 93.0516C105.56 81.2918 91.3916 76.3003 79.4153 81.9027C67.4391 87.5052 62.1901 101.58 67.6912 113.34C73.1924 125.1 87.3607 130.091 99.3369 124.489Z" fill="white"/>
<path d="M78.2927 79.5038C64.964 85.7376 59.1257 101.399 65.2472 114.489C71.3688 127.579 87.1336 133.133 100.459 126.896C113.785 120.659 119.626 105.001 113.506 91.9158C107.385 78.8301 91.6194 73.2699 78.2927 79.5038ZM98.8318 123.411C87.4632 128.73 74.0129 123.99 68.7916 112.827C63.5703 101.663 68.5526 88.3024 79.9212 82.9843C91.2898 77.6662 104.739 82.4054 109.961 93.569C115.184 104.733 110.2 118.094 98.8318 123.411Z" fill="#333435"/>
<path d="M68.3845 116.494C68.3672 116.495 68.3498 116.492 68.3342 116.484C68.3186 116.477 68.3053 116.465 68.296 116.45C67.9622 115.924 67.646 115.378 67.3545 114.827C67.3487 114.816 67.3452 114.804 67.3441 114.792C67.3429 114.78 67.3442 114.767 67.3478 114.756C67.3515 114.744 67.3574 114.733 67.3652 114.723C67.3731 114.714 67.3827 114.706 67.3936 114.7C67.4045 114.695 67.4164 114.691 67.4287 114.69C67.441 114.689 67.4533 114.69 67.4651 114.694C67.4769 114.697 67.4878 114.703 67.4973 114.711C67.5067 114.719 67.5146 114.729 67.5203 114.739C67.8098 115.285 68.1239 115.827 68.4546 116.349C68.4612 116.36 68.4658 116.371 68.4679 116.384C68.4701 116.396 68.4698 116.408 68.4672 116.42C68.4645 116.432 68.4594 116.444 68.4523 116.454C68.4452 116.464 68.4362 116.473 68.4257 116.479C68.4134 116.487 68.3992 116.492 68.3845 116.494ZM65.451 109.791C65.4282 109.794 65.4051 109.789 65.3862 109.776C65.3672 109.763 65.3536 109.743 65.348 109.721C64.9093 108.071 64.6479 106.379 64.5682 104.674C64.3484 99.8341 65.5671 95.0377 68.0704 90.8899C70.5862 86.7195 74.2523 83.3639 78.6285 81.2261C83.0047 79.0884 87.905 78.2593 92.7409 78.8384C92.7653 78.8415 92.7874 78.854 92.8027 78.8732C92.8179 78.8925 92.8249 78.917 92.8223 78.9414C92.8209 78.9535 92.8171 78.9652 92.8112 78.9758C92.8052 78.9865 92.7973 78.9959 92.7877 79.0034C92.7781 79.011 92.7671 79.0166 92.7554 79.0199C92.7437 79.0232 92.7314 79.0242 92.7193 79.0227C87.92 78.4482 83.0568 79.2708 78.7134 81.3919C74.37 83.513 70.731 86.8424 68.2331 90.9805C65.7492 95.0968 64.5402 99.8567 64.7588 104.659C64.8377 106.351 65.0967 108.029 65.5313 109.665C65.5377 109.69 65.5343 109.715 65.522 109.737C65.5096 109.758 65.4893 109.774 65.4654 109.781L65.451 109.791Z" fill="#5C5E61"/>
<path d="M40.6871 164.102C39.1513 164.252 38.1027 163.812 37.5722 162.793C37.0314 161.763 37.2375 160.464 38.0872 159.576L42.4 155.052C42.4172 155.034 42.4409 155.024 42.4658 155.023C42.4907 155.023 42.5149 155.032 42.5329 155.049C42.5509 155.066 42.5614 155.09 42.562 155.115C42.5625 155.14 42.5532 155.164 42.536 155.182L38.2201 159.708C37.429 160.538 37.2354 161.743 37.7391 162.709C38.2314 163.652 39.2172 164.058 40.6696 163.916H40.7169C40.7292 163.915 40.7417 163.916 40.7535 163.919C40.7653 163.923 40.7764 163.929 40.7859 163.937C40.7955 163.945 40.8034 163.954 40.8093 163.965C40.8151 163.976 40.8187 163.988 40.8199 164C40.8212 164.013 40.8199 164.025 40.8164 164.037C40.8128 164.049 40.8069 164.06 40.799 164.069C40.7912 164.079 40.7815 164.087 40.7706 164.093C40.7597 164.098 40.7478 164.102 40.7355 164.103L40.6871 164.102Z" fill="#5C5E61"/>
<path d="M43.8011 153.817C43.7876 153.818 43.774 153.817 43.7612 153.812C43.7485 153.808 43.7368 153.801 43.7269 153.791C43.7092 153.774 43.6992 153.75 43.6992 153.725C43.6992 153.699 43.7092 153.675 43.7269 153.658L44.2852 153.071C44.303 153.056 44.3259 153.048 44.3495 153.048C44.3731 153.048 44.3957 153.058 44.4128 153.074C44.43 153.09 44.4404 153.112 44.4422 153.136C44.4439 153.159 44.4368 153.183 44.4222 153.201L43.8629 153.788C43.8465 153.805 43.8245 153.815 43.8011 153.817Z" fill="white"/>
<path d="M47.5179 159.839L42.31 161.141L43.612 170.905C43.612 170.905 41.6549 172.862 41.009 175.462C40.3632 178.061 39.7575 188.997 39.7575 188.997L38.5215 189.745L38.3711 190.363L41.9659 195.196L41.3726 191.355C41.2779 190.744 41.4417 189.501 41.3901 189.479C43.3472 184.273 47.5199 169.6 47.5199 169.6L47.5179 159.839Z" fill="#FFBC96"/>
<path d="M49.0408 190.435C48.9841 190.435 48.9295 190.435 48.8729 190.435C49.1242 187.296 50.2738 173.48 51.4253 168.302C52.7263 162.443 49.4683 150.726 49.4683 150.726L43.6094 156.585L46.8643 167.651C44.6343 170.996 47.2279 190.588 47.1733 190.579V190.624L46.3246 191.791L46.4276 192.424L51.6159 195.486L49.5744 192.171C49.2561 191.645 49.0728 191.049 49.0408 190.435Z" fill="#FFBC96"/>
<path d="M42.4525 124.744C42.4525 124.744 31.0458 137.599 42.4525 144.191L43.6143 143.35C43.6143 143.35 37.9491 137.927 43.6143 131.289L42.4525 124.744Z" fill="#FFBC96"/>
<path d="M51.9633 195.966H50.307C50.1542 195.966 50.0034 195.931 49.8662 195.864C49.729 195.796 49.6092 195.698 49.516 195.577C49.0009 194.907 47.9307 193.599 47.4198 193.565C46.7307 193.518 46.8193 195.966 46.8193 195.966H46.433L45.9448 192.925C45.8847 192.552 45.9435 192.169 46.1131 191.831C46.2826 191.494 46.5542 191.218 46.8893 191.043C46.8893 191.043 47.0469 192.207 47.8998 192.722C48.7527 193.237 51.3711 195.08 51.3711 195.08C51.5953 195.054 51.8221 195.06 52.0447 195.097C52.5669 195.192 52.4979 195.966 51.9633 195.966Z" fill="#333435"/>
<path d="M42.0967 195.777L40.5712 195.135C40.4303 195.076 40.3049 194.986 40.2045 194.87C40.1042 194.755 40.0316 194.619 39.9923 194.471C39.777 193.652 39.298 192.032 38.8407 191.802C38.2227 191.493 37.3564 193.782 37.3564 193.782L37 193.633L37.7293 190.645C37.8172 190.277 38.0193 189.945 38.3067 189.698C38.5942 189.451 38.9523 189.302 39.33 189.27C39.33 189.27 39.0209 190.403 39.6112 191.209C40.2014 192.014 41.8968 194.73 41.8968 194.73C42.1151 194.792 42.3233 194.886 42.5148 195.008C42.9547 195.298 42.587 195.983 42.0967 195.777Z" fill="#333435"/>
<path d="M50.963 140.82C50.963 140.82 50.7714 141.994 51.0526 145.219C51.3338 148.445 52.6739 156.018 52.401 163.264C52.401 163.264 48.5898 164.152 41.9666 163.731C41.9666 163.731 39.1721 152.418 39.853 148.118C40.5338 143.818 44.2276 140.732 44.2276 140.732L50.963 140.82Z" fill="#FF6C37"/>
<path d="M48.147 119.267L48.6126 124.744H44.1875L45.2876 116.383L48.147 119.267Z" fill="#FFBC96"/>
<path d="M42.8782 123.987C44.4057 123.903 47.8224 123.747 50.2399 123.884C50.8589 123.917 51.4497 124.154 51.9202 124.558C52.3906 124.961 52.7143 125.509 52.8407 126.116L53.4309 128.944C53.6513 129.997 53.6184 131.088 53.3352 132.126L50.9661 140.825C50.9661 140.825 48.8586 142.092 44.2306 140.737C44.2306 140.737 40.1661 131.045 41.8296 124.845C41.8909 124.61 42.0256 124.4 42.214 124.245C42.4025 124.091 42.635 124.001 42.8782 123.987Z" fill="#FF6C37"/>
<path d="M52.7244 125.603C53.3764 127.32 53.9605 129.122 54.5981 130.808C54.9195 131.652 55.246 132.48 55.5952 133.239C55.7713 133.618 55.9649 133.96 56.1431 134.28C56.2829 134.525 56.4446 134.757 56.6262 134.973C56.6468 134.99 56.5789 135.004 56.5552 135.005C56.5315 135.006 56.996 135.079 57.1351 135.102H57.68C58.5377 135.043 59.3905 134.926 60.2324 134.752C62.0226 134.418 63.8829 133.95 65.7946 133.595H65.8091C65.954 133.569 66.1037 133.59 66.2353 133.657C66.3669 133.723 66.473 133.831 66.5374 133.963C66.6018 134.096 66.621 134.246 66.5919 134.391C66.5629 134.535 66.4873 134.666 66.3766 134.764C65.6115 135.415 64.7974 136.006 63.9416 136.532C63.5152 136.793 63.0815 137.047 62.6407 137.293C62.1916 137.523 61.7404 137.754 61.2717 137.967C60.2963 138.412 59.2782 138.757 58.2331 138.997C57.9385 139.046 57.648 139.1 57.3442 139.139C57.0045 139.163 56.6638 139.17 56.3234 139.16C56.1256 139.14 55.9279 139.115 55.7301 139.087C55.6261 139.074 55.5229 139.055 55.4211 139.031C55.2861 138.991 55.1502 138.945 55.0173 138.895C54.7789 138.8 54.5496 138.684 54.3323 138.548C54.1438 138.424 53.9728 138.294 53.807 138.162C53.2919 137.715 52.844 137.197 52.4772 136.623C52.1631 136.148 51.8829 135.652 51.6388 135.138C51.1794 134.198 50.7937 133.223 50.4851 132.223C49.8661 130.306 49.4619 128.326 49.28 126.319C49.2433 125.893 49.3619 125.468 49.6138 125.123C49.8657 124.777 50.2341 124.534 50.6509 124.439C51.0678 124.344 51.505 124.402 51.8821 124.604C52.2592 124.806 52.5506 125.137 52.7028 125.536L52.7244 125.603Z" fill="#FFBC96"/>
<path d="M65.1918 134.472L65.9808 132.597L70.1381 131.561C70.1381 131.561 70.4708 132.282 68.7248 132.597C68.7248 132.597 69.348 133.286 69.0153 134.097C68.6826 134.908 65.1496 135.715 65.1918 134.472Z" fill="#FFBC96"/>
<path d="M50.0288 112.944C50.1874 113.038 51.4327 117.43 50.3893 119.271C49.3458 121.111 46.1589 119.049 45.2957 116.387C44.4325 113.724 45.8138 110.458 50.0288 112.944Z" fill="#FFBC96"/>
<path d="M41.7641 116.383C41.0492 119.886 38.6812 118.927 37.0043 120.484C34.286 123.009 30.3965 120.406 26.6163 122.799C23.8877 124.526 22.5723 128.946 23.8815 132.514C25.6965 137.458 31.8952 139.487 35.109 137.982C38.1795 136.54 37.7418 132.236 41.8733 130.566C43.6243 129.86 44.4927 130.319 45.5433 129.271C47.3819 127.437 46.8824 123.878 46.6939 122.507C46.2819 119.532 45.2817 118.994 45.7586 117.685C46.6856 115.142 51.0118 115.668 51.3713 113.874C51.6999 112.239 48.5644 109.136 45.6144 109.628C41.0492 110.386 42.0824 114.823 41.7641 116.383Z" fill="#333435"/>
<path d="M25.2462 131.676C25.2192 131.677 25.193 131.668 25.1719 131.651C25.1507 131.634 25.1359 131.611 25.1298 131.585C24.5458 129.159 24.8105 127.169 25.9178 125.671C27.7564 123.185 31.3286 122.939 31.3646 122.937C31.3962 122.935 31.4271 122.946 31.4507 122.967C31.4744 122.988 31.489 123.017 31.4913 123.049C31.4923 123.065 31.4902 123.08 31.4851 123.095C31.4799 123.11 31.4719 123.124 31.4615 123.136C31.4511 123.147 31.4384 123.157 31.4243 123.164C31.4101 123.171 31.3948 123.175 31.3791 123.176C31.344 123.176 27.8769 123.418 26.1094 125.815C25.0464 127.257 24.795 129.176 25.3626 131.529C25.3697 131.56 25.3644 131.592 25.3479 131.619C25.3313 131.646 25.3047 131.666 25.274 131.673L25.2462 131.676Z" fill="#5C5E61"/>
<path d="M36.9461 133.897C36.9414 133.898 36.9365 133.898 36.9317 133.897C36.9164 133.893 36.9033 133.884 36.8952 133.87C36.8871 133.857 36.8847 133.84 36.8884 133.825C37.458 131.64 38.4572 130.124 39.857 129.316C40.8757 128.728 41.8296 128.674 42.6721 128.625C43.4828 128.579 44.1842 128.538 44.7477 128.036C45.9137 127 45.8467 124.506 44.5478 120.626C44.5453 120.619 44.5442 120.611 44.5446 120.603C44.5451 120.595 44.5471 120.588 44.5506 120.581C44.554 120.574 44.5589 120.568 44.5648 120.562C44.5706 120.557 44.5775 120.553 44.5849 120.551C44.5924 120.548 44.6004 120.547 44.6083 120.548C44.6162 120.548 44.6239 120.55 44.631 120.554C44.6381 120.558 44.6444 120.563 44.6496 120.569C44.6548 120.575 44.6587 120.582 44.6611 120.589C45.9765 124.519 46.0332 127.055 44.827 128.126C44.2326 128.655 43.5126 128.697 42.6783 128.744C41.844 128.791 40.9108 128.847 39.9168 129.419C38.5458 130.21 37.5652 131.702 37.0048 133.854C37.001 133.867 36.9933 133.878 36.9827 133.885C36.9721 133.893 36.9593 133.897 36.9461 133.897Z" fill="#5C5E61"/>
<path d="M43.4544 115.519H43.4359C43.4283 115.517 43.4213 115.513 43.4153 115.508C43.4093 115.502 43.4044 115.496 43.4008 115.489C43.3973 115.482 43.3952 115.474 43.3947 115.466C43.3941 115.458 43.3952 115.45 43.3978 115.443C43.851 114.097 45.154 114.298 46.5363 114.51C47.4098 114.644 48.3142 114.783 49.0805 114.555C49.6532 114.386 49.9921 114.123 50.091 113.774C50.2589 113.18 49.6707 112.518 49.6656 112.511C49.6549 112.5 49.6494 112.484 49.6501 112.468C49.6509 112.453 49.6579 112.438 49.6697 112.427C49.6814 112.416 49.6969 112.411 49.7128 112.412C49.7286 112.412 49.7435 112.419 49.7542 112.431C49.7799 112.46 50.3907 113.152 50.2063 113.806C50.0961 114.198 49.7284 114.488 49.1145 114.669C48.3224 114.904 47.4046 114.764 46.5178 114.627C45.1313 114.415 43.9324 114.231 43.5111 115.482C43.5066 115.493 43.4988 115.503 43.4886 115.51C43.4785 115.516 43.4665 115.52 43.4544 115.519Z" fill="#5C5E61"/>
<path d="M116.133 17.4128L49.8132 17.0945C49.0139 17.0873 48.365 17.9711 48.3711 19.0588L48.5174 45.2981C48.5236 46.392 49.19 47.2645 49.9935 47.2315L115.935 45.8193C116.701 45.7884 117.314 44.9397 117.324 43.8962L117.555 19.3884C117.565 18.3069 116.927 17.42 116.133 17.4128Z" fill="#FFBC96"/>
<path d="M49.9503 45.5793C49.9148 45.5765 49.8801 45.5666 49.8484 45.5504C49.8167 45.5341 49.7885 45.5118 49.7655 45.4846C49.7424 45.4574 49.7249 45.426 49.714 45.392C49.7032 45.3581 49.6991 45.3223 49.702 45.2868L49.5547 19.0485C49.5534 18.9781 49.5747 18.9092 49.6155 18.8518C49.6358 18.8207 49.6635 18.7951 49.696 18.7771C49.7284 18.7592 49.7648 18.7494 49.802 18.7488L116.122 19.0681C116.159 19.0687 116.196 19.0785 116.228 19.0964C116.26 19.1144 116.288 19.14 116.308 19.1711C116.348 19.2287 116.369 19.2976 116.366 19.3678L116.136 43.8757C116.141 43.9454 116.12 44.0146 116.075 44.0688C116.031 44.1229 115.967 44.1578 115.898 44.1661L49.9503 45.5793ZM49.802 18.9785C49.7885 18.9989 49.7817 19.023 49.7824 19.0475L49.9287 45.2858C49.9278 45.2982 49.9296 45.3107 49.9339 45.3224C49.9381 45.3341 49.9448 45.3448 49.9534 45.3538L115.886 43.9405C115.902 43.9216 115.91 43.8979 115.909 43.8736L116.14 19.3658C116.141 19.3443 116.135 19.323 116.123 19.305L49.802 18.9785Z" fill="white"/>
<g opacity="0.6">
<path d="M55.7271 30.9722H52.5V43.306H55.7271V30.9722Z" fill="white"/>
<path d="M61.1178 35.2108H57.8906V43.3048H61.1178V35.2108Z" fill="white"/>
<path d="M66.5123 24.7354H63.2852V43.306H66.5123V24.7354Z" fill="white"/>
<path d="M71.9068 38.8438H68.6797V43.3049H71.9068V38.8438Z" fill="white"/>
<path d="M77.2974 27.2178H74.0703V43.305H77.2974V27.2178Z" fill="white"/>
<path d="M82.692 30.003H79.4648V43.305H82.692V30.003Z" fill="white"/>
<path d="M88.0826 33.0303H84.8555V43.305H88.0826V33.0303Z" fill="white"/>
<path d="M93.4771 20.9808H90.25V43.306H93.4771V20.9808Z" fill="white"/>
<path d="M98.8678 23.3417H95.6406V43.3049H98.8678V23.3417Z" fill="white"/>
<path d="M104.262 26.9149H101.035V43.305H104.262V26.9149Z" fill="white"/>
<path d="M109.653 39.2579H106.426V43.305H109.653V39.2579Z" fill="white"/>
<path d="M115.047 31.3956H111.82V43.3049H115.047V31.3956Z" fill="white"/>
</g>
<g opacity="0.3">
<path d="M163.661 158.253C163.588 158.295 163.507 158.322 163.423 158.333C163.339 158.344 163.254 158.339 163.172 158.317C163.09 158.295 163.014 158.257 162.947 158.205C162.88 158.153 162.824 158.089 162.781 158.016C162.437 157.417 162.06 156.824 161.665 156.253C161.569 156.115 161.531 155.944 161.559 155.778C161.587 155.612 161.68 155.463 161.816 155.364L161.827 155.357C161.896 155.309 161.974 155.275 162.057 155.257C162.14 155.239 162.225 155.237 162.308 155.252C162.391 155.267 162.471 155.299 162.542 155.344C162.613 155.39 162.674 155.449 162.723 155.519C163.14 156.119 163.535 156.744 163.898 157.373C163.977 157.511 164.003 157.673 163.969 157.829C163.936 157.984 163.846 158.122 163.718 158.216C163.7 158.229 163.681 158.241 163.661 158.253ZM159.541 153.609C159.07 153.094 158.574 152.602 158.065 152.135C157.939 152.02 157.864 151.859 157.857 151.688C157.849 151.518 157.91 151.351 158.025 151.225C158.141 151.099 158.301 151.024 158.472 151.017C158.643 151.009 158.809 151.07 158.935 151.185C159.471 151.677 159.994 152.199 160.489 152.737C160.604 152.862 160.665 153.029 160.658 153.199C160.651 153.37 160.576 153.531 160.45 153.646C160.432 153.664 160.412 153.68 160.392 153.695C160.264 153.786 160.108 153.827 159.952 153.811C159.796 153.796 159.652 153.724 159.545 153.609H159.541ZM155.419 150.026C154.848 149.633 154.253 149.261 153.65 148.919C153.577 148.878 153.512 148.822 153.46 148.755C153.408 148.688 153.37 148.612 153.347 148.53C153.325 148.449 153.319 148.364 153.329 148.28C153.34 148.196 153.367 148.115 153.409 148.041C153.45 147.968 153.506 147.903 153.573 147.851C153.64 147.799 153.716 147.761 153.798 147.739C153.879 147.716 153.964 147.71 154.048 147.721C154.132 147.731 154.213 147.758 154.287 147.8C154.921 148.159 155.547 148.552 156.148 148.965C156.219 149.012 156.28 149.073 156.327 149.144C156.374 149.215 156.407 149.295 156.423 149.379C156.439 149.462 156.439 149.549 156.421 149.632C156.404 149.716 156.37 149.795 156.322 149.865C156.273 149.936 156.211 149.996 156.14 150.042C156.068 150.088 155.988 150.119 155.904 150.134C155.82 150.149 155.734 150.147 155.65 150.129C155.567 150.11 155.488 150.075 155.419 150.026ZM150.594 147.451C149.949 147.196 149.286 146.965 148.622 146.767C148.459 146.718 148.321 146.605 148.24 146.455C148.158 146.304 148.14 146.128 148.189 145.964C148.238 145.8 148.35 145.662 148.501 145.581C148.652 145.5 148.828 145.482 148.992 145.531C149.691 145.737 150.389 145.983 151.068 146.252C151.227 146.315 151.354 146.438 151.422 146.595C151.489 146.752 151.492 146.929 151.429 147.088C151.385 147.202 151.308 147.301 151.209 147.372C151.122 147.437 151.02 147.479 150.912 147.493C150.805 147.508 150.695 147.495 150.594 147.456V147.451ZM145.317 146.02C144.633 145.917 143.936 145.836 143.243 145.79C143.072 145.778 142.913 145.699 142.801 145.571C142.689 145.442 142.632 145.274 142.644 145.103C142.656 144.933 142.735 144.774 142.864 144.662C142.993 144.549 143.161 144.493 143.331 144.505C144.059 144.554 144.794 144.636 145.513 144.747C145.596 144.76 145.677 144.789 145.749 144.833C145.821 144.876 145.884 144.934 145.934 145.002C145.984 145.071 146.02 145.148 146.04 145.23C146.061 145.312 146.064 145.398 146.051 145.481C146.039 145.565 146.009 145.645 145.966 145.717C145.922 145.79 145.864 145.853 145.796 145.903C145.728 145.953 145.65 145.989 145.568 146.009C145.486 146.029 145.401 146.033 145.317 146.02ZM139.858 145.792C139.167 145.841 138.469 145.92 137.785 146.026C137.702 146.039 137.616 146.036 137.534 146.017C137.451 145.997 137.374 145.961 137.305 145.911C137.236 145.861 137.178 145.798 137.134 145.726C137.09 145.654 137.06 145.574 137.047 145.49C137.034 145.406 137.038 145.321 137.058 145.238C137.078 145.156 137.114 145.078 137.164 145.01C137.214 144.941 137.277 144.884 137.35 144.84C137.422 144.796 137.503 144.767 137.587 144.754C138.308 144.641 139.041 144.558 139.768 144.508C139.939 144.496 140.107 144.552 140.235 144.664C140.364 144.776 140.443 144.935 140.455 145.105C140.467 145.275 140.411 145.444 140.299 145.572C140.187 145.701 140.028 145.78 139.858 145.792ZM119.473 158.3C119.4 158.258 119.335 158.202 119.283 158.135C119.232 158.068 119.193 157.992 119.171 157.91C119.149 157.829 119.143 157.744 119.154 157.66C119.164 157.576 119.191 157.495 119.233 157.421C119.594 156.789 119.987 156.163 120.402 155.561C120.499 155.421 120.648 155.324 120.817 155.294C120.985 155.263 121.158 155.3 121.299 155.397C121.439 155.494 121.535 155.643 121.566 155.811C121.597 155.98 121.559 156.153 121.462 156.293C121.068 156.864 120.695 157.458 120.352 158.059C120.307 158.14 120.245 158.211 120.171 158.265C120.07 158.339 119.951 158.382 119.826 158.389C119.702 158.396 119.578 158.367 119.47 158.305L119.473 158.3ZM134.485 146.78C133.823 146.986 133.16 147.213 132.518 147.47C132.439 147.502 132.355 147.517 132.271 147.516C132.186 147.515 132.103 147.497 132.025 147.464C131.947 147.431 131.877 147.382 131.818 147.322C131.759 147.261 131.712 147.19 131.681 147.111C131.649 147.033 131.634 146.949 131.635 146.864C131.636 146.78 131.654 146.696 131.687 146.618C131.72 146.541 131.769 146.47 131.829 146.411C131.89 146.352 131.961 146.306 132.04 146.274C132.717 146.003 133.414 145.759 134.111 145.548C134.192 145.524 134.278 145.515 134.362 145.524C134.446 145.532 134.528 145.557 134.603 145.597C134.678 145.637 134.744 145.691 134.798 145.757C134.851 145.822 134.892 145.898 134.916 145.979C134.941 146.06 134.949 146.146 134.941 146.23C134.932 146.314 134.907 146.396 134.867 146.471C134.827 146.546 134.773 146.612 134.707 146.666C134.642 146.719 134.566 146.76 134.485 146.784V146.78ZM122.667 153.681C122.542 153.566 122.467 153.405 122.46 153.234C122.453 153.063 122.514 152.897 122.629 152.771C123.123 152.235 123.646 151.713 124.184 151.219C124.246 151.162 124.319 151.118 124.398 151.089C124.478 151.06 124.562 151.047 124.647 151.051C124.731 151.055 124.814 151.075 124.891 151.111C124.968 151.146 125.037 151.197 125.094 151.259C125.151 151.321 125.195 151.395 125.224 151.474C125.253 151.553 125.266 151.638 125.262 151.722C125.259 151.807 125.238 151.89 125.203 151.967C125.167 152.043 125.116 152.112 125.054 152.169C124.539 152.638 124.046 153.133 123.577 153.643C123.548 153.675 123.515 153.704 123.48 153.729C123.361 153.818 123.214 153.862 123.065 153.855C122.916 153.848 122.775 153.789 122.664 153.69L122.667 153.681ZM129.466 148.943C128.865 149.287 128.272 149.664 127.702 150.056C127.563 150.147 127.393 150.18 127.229 150.149C127.066 150.117 126.92 150.024 126.824 149.888C126.728 149.752 126.688 149.584 126.713 149.419C126.738 149.254 126.825 149.105 126.958 149.004L126.969 148.997C127.569 148.585 128.194 148.187 128.823 147.825C128.966 147.744 129.135 147.72 129.295 147.758C129.455 147.797 129.594 147.896 129.684 148.034C129.773 148.173 129.806 148.34 129.776 148.502C129.746 148.664 129.655 148.808 129.521 148.905C129.505 148.925 129.485 148.937 129.465 148.949L129.466 148.943Z" fill="#FF6C37"/>
<path d="M118.292 162.386C118.398 162.309 118.478 162.201 118.521 162.077C118.632 161.768 118.749 161.448 118.873 161.137C118.931 160.979 118.926 160.804 118.858 160.65C118.789 160.496 118.663 160.376 118.506 160.314C118.35 160.251 118.175 160.253 118.02 160.319C117.864 160.384 117.741 160.508 117.676 160.663C117.546 160.989 117.421 161.322 117.306 161.652C117.26 161.781 117.257 161.922 117.298 162.053C117.338 162.185 117.419 162.3 117.529 162.382C117.639 162.464 117.772 162.508 117.909 162.509C118.047 162.51 118.181 162.467 118.292 162.386Z" fill="#FF6C37"/>
</g>
<g opacity="0.3">
<path d="M119.555 181.978C119.68 181.888 119.768 181.757 119.804 181.608C119.84 181.459 119.821 181.302 119.752 181.166C119.603 180.869 119.457 180.564 119.319 180.261C119.284 180.183 119.235 180.112 119.173 180.054C119.111 179.995 119.039 179.949 118.959 179.919C118.879 179.889 118.795 179.875 118.71 179.877C118.625 179.88 118.541 179.899 118.463 179.935C118.386 179.97 118.316 180.02 118.258 180.082C118.2 180.145 118.155 180.218 118.126 180.298C118.096 180.378 118.083 180.462 118.086 180.547C118.09 180.632 118.11 180.716 118.146 180.793C118.292 181.113 118.445 181.434 118.603 181.746C118.641 181.821 118.693 181.889 118.757 181.944C118.821 181.999 118.896 182.041 118.976 182.068C119.057 182.094 119.141 182.105 119.226 182.098C119.31 182.092 119.392 182.069 119.468 182.031C119.498 182.016 119.528 181.998 119.555 181.978Z" fill="#FF6C37"/>
<path d="M155.593 191.748C155.522 191.794 155.443 191.825 155.36 191.841C155.277 191.857 155.191 191.856 155.108 191.838C155.026 191.821 154.947 191.787 154.877 191.74C154.808 191.692 154.748 191.631 154.702 191.56C154.656 191.489 154.624 191.41 154.608 191.327C154.593 191.244 154.594 191.158 154.611 191.076C154.628 190.993 154.662 190.914 154.71 190.845C154.757 190.775 154.818 190.715 154.889 190.669C155.457 190.299 156.022 189.9 156.562 189.477C156.697 189.373 156.868 189.326 157.038 189.347C157.207 189.368 157.361 189.456 157.466 189.591C157.571 189.726 157.618 189.897 157.596 190.067C157.575 190.236 157.487 190.39 157.352 190.495C157.117 190.678 156.879 190.857 156.638 191.03C156.295 191.278 155.944 191.52 155.593 191.748ZM159.062 188.169C159.001 188.11 158.953 188.04 158.92 187.962C158.887 187.884 158.869 187.8 158.868 187.716C158.867 187.631 158.883 187.547 158.915 187.469C158.947 187.39 158.993 187.319 159.053 187.259C159.531 186.77 159.993 186.257 160.427 185.733C160.536 185.602 160.693 185.519 160.863 185.503C161.034 185.487 161.203 185.54 161.335 185.649C161.466 185.758 161.549 185.915 161.565 186.086C161.581 186.256 161.528 186.426 161.419 186.557C160.962 187.109 160.475 187.65 159.977 188.163C159.951 188.189 159.923 188.214 159.893 188.235C159.769 188.325 159.618 188.367 159.465 188.355C159.313 188.343 159.17 188.277 159.062 188.169ZM152.527 193.457C151.879 193.766 151.209 194.045 150.535 194.295C150.377 194.347 150.205 194.335 150.054 194.263C149.904 194.19 149.788 194.062 149.73 193.906C149.672 193.75 149.677 193.577 149.744 193.424C149.81 193.272 149.933 193.151 150.087 193.087C150.727 192.85 151.363 192.582 151.978 192.292C152.124 192.222 152.29 192.21 152.444 192.256C152.599 192.303 152.73 192.406 152.812 192.545C152.894 192.684 152.921 192.848 152.887 193.006C152.854 193.164 152.763 193.303 152.631 193.397C152.599 193.42 152.564 193.44 152.527 193.457ZM162.58 183.911C162.435 183.821 162.332 183.677 162.293 183.511C162.255 183.345 162.284 183.17 162.374 183.025C162.732 182.445 163.07 181.843 163.378 181.235C163.455 181.083 163.59 180.967 163.752 180.914C163.915 180.861 164.091 180.875 164.244 180.952C164.396 181.029 164.511 181.164 164.564 181.326C164.617 181.489 164.604 181.666 164.526 181.818C164.202 182.458 163.847 183.092 163.468 183.702C163.425 183.774 163.367 183.836 163.299 183.885C163.195 183.961 163.072 184.004 162.943 184.009C162.815 184.015 162.689 183.981 162.58 183.914V183.911ZM147.172 195.287C146.473 195.442 145.757 195.569 145.045 195.665C144.961 195.676 144.876 195.671 144.794 195.649C144.713 195.627 144.636 195.59 144.569 195.539C144.502 195.487 144.445 195.423 144.403 195.35C144.36 195.277 144.332 195.196 144.321 195.113C144.31 195.029 144.315 194.944 144.337 194.862C144.358 194.78 144.396 194.703 144.447 194.636C144.498 194.569 144.562 194.513 144.635 194.47C144.709 194.428 144.789 194.4 144.873 194.389C145.549 194.298 146.229 194.176 146.893 194.029C147.038 193.997 147.189 194.016 147.321 194.083C147.453 194.15 147.558 194.26 147.618 194.395C147.679 194.53 147.691 194.682 147.653 194.825C147.614 194.968 147.528 195.093 147.408 195.18C147.338 195.231 147.257 195.268 147.172 195.287ZM141.544 195.897C140.823 195.897 140.102 195.864 139.381 195.803C139.211 195.788 139.053 195.707 138.943 195.576C138.833 195.445 138.78 195.276 138.794 195.106C138.809 194.936 138.891 194.778 139.021 194.668C139.152 194.558 139.321 194.505 139.491 194.519C140.17 194.577 140.86 194.608 141.542 194.609C141.678 194.609 141.811 194.652 141.921 194.732C142.031 194.813 142.112 194.926 142.154 195.055C142.196 195.185 142.196 195.324 142.153 195.454C142.111 195.583 142.028 195.695 141.918 195.775C141.809 195.854 141.678 195.897 141.544 195.897ZM135.918 195.266C135.218 195.109 134.515 194.92 133.832 194.705C133.669 194.654 133.533 194.54 133.454 194.388C133.375 194.237 133.36 194.06 133.411 193.897C133.462 193.734 133.576 193.598 133.727 193.519C133.879 193.44 134.055 193.425 134.218 193.476C134.867 193.682 135.535 193.86 136.201 194.009C136.284 194.028 136.362 194.063 136.431 194.112C136.5 194.16 136.559 194.222 136.604 194.294C136.649 194.365 136.68 194.445 136.694 194.528C136.709 194.612 136.706 194.697 136.688 194.779C136.669 194.862 136.635 194.94 136.586 195.009C136.537 195.078 136.475 195.137 136.404 195.182C136.332 195.227 136.253 195.258 136.169 195.273C136.086 195.287 136 195.285 135.918 195.266ZM130.562 193.423C129.913 193.114 129.269 192.778 128.649 192.418C128.572 192.377 128.504 192.322 128.45 192.254C128.395 192.187 128.355 192.109 128.331 192.026C128.307 191.942 128.3 191.855 128.311 191.769C128.321 191.683 128.349 191.6 128.393 191.524C128.436 191.449 128.495 191.384 128.564 191.332C128.634 191.28 128.713 191.242 128.797 191.222C128.882 191.201 128.969 191.198 129.055 191.212C129.141 191.226 129.222 191.257 129.296 191.304C129.885 191.647 130.496 191.968 131.113 192.259C131.267 192.332 131.387 192.463 131.445 192.624C131.502 192.785 131.494 192.962 131.422 193.116C131.375 193.215 131.304 193.3 131.216 193.363C131.122 193.431 131.013 193.472 130.898 193.483C130.783 193.493 130.667 193.473 130.563 193.423H130.562ZM125.74 190.448C125.176 190.006 124.622 189.534 124.092 189.046C124.028 188.989 123.975 188.92 123.938 188.842C123.901 188.765 123.879 188.681 123.875 188.595C123.871 188.509 123.884 188.424 123.913 188.343C123.943 188.262 123.988 188.188 124.046 188.125C124.105 188.062 124.175 188.012 124.253 187.976C124.332 187.941 124.416 187.922 124.502 187.92C124.588 187.917 124.673 187.933 124.753 187.964C124.833 187.995 124.906 188.042 124.968 188.102C125.468 188.566 125.998 189.014 126.529 189.433C126.596 189.485 126.652 189.55 126.693 189.624C126.735 189.697 126.761 189.778 126.772 189.862C126.782 189.946 126.776 190.032 126.753 190.113C126.73 190.195 126.692 190.271 126.639 190.337C126.602 190.385 126.558 190.427 126.51 190.463C126.397 190.543 126.261 190.585 126.123 190.582C125.984 190.58 125.851 190.532 125.741 190.448H125.74ZM121.695 186.489C121.359 186.077 121.033 185.658 120.724 185.23C120.613 185.076 120.503 184.921 120.394 184.765C120.345 184.696 120.311 184.617 120.292 184.534C120.274 184.451 120.272 184.366 120.288 184.282C120.303 184.199 120.335 184.119 120.381 184.048C120.428 183.977 120.488 183.916 120.558 183.869C120.699 183.772 120.872 183.735 121.04 183.765C121.208 183.796 121.357 183.892 121.454 184.032C121.557 184.181 121.66 184.329 121.763 184.475C122.057 184.887 122.367 185.284 122.69 185.672C122.744 185.738 122.784 185.813 122.809 185.894C122.833 185.975 122.841 186.06 122.833 186.144C122.825 186.228 122.8 186.31 122.76 186.385C122.72 186.459 122.666 186.525 122.601 186.579L122.57 186.603C122.437 186.699 122.272 186.741 122.11 186.72C121.947 186.698 121.799 186.616 121.695 186.489Z" fill="#FF6C37"/>
<path d="M165.666 178.881C165.773 178.805 165.853 178.697 165.897 178.572C166.011 178.243 166.119 177.905 166.22 177.567C166.244 177.486 166.252 177.401 166.244 177.316C166.235 177.232 166.21 177.15 166.169 177.076C166.129 177.001 166.075 176.936 166.009 176.882C165.943 176.829 165.868 176.789 165.786 176.765C165.705 176.74 165.62 176.732 165.536 176.741C165.452 176.75 165.37 176.775 165.295 176.815C165.221 176.855 165.155 176.91 165.102 176.976C165.048 177.041 165.008 177.117 164.984 177.198C164.888 177.519 164.785 177.84 164.675 178.153C164.631 178.282 164.629 178.422 164.67 178.553C164.711 178.683 164.792 178.797 164.901 178.879C165.011 178.96 165.144 179.005 165.281 179.006C165.417 179.007 165.551 178.964 165.662 178.884L165.666 178.881Z" fill="#FF6C37"/>
</g>
<path d="M160.839 168.951C160.843 168.888 160.826 168.826 160.793 168.773C160.76 168.72 160.711 168.679 160.653 168.655L157.265 167.261C156.969 165.552 156.396 163.902 155.568 162.377L157.361 159.184C157.391 159.129 157.404 159.066 157.398 159.004C157.391 158.941 157.365 158.883 157.324 158.836L154.402 155.554C154.361 155.507 154.306 155.474 154.245 155.46C154.183 155.446 154.119 155.451 154.061 155.476L150.682 156.885C149.263 155.886 147.691 155.126 146.028 154.634L145.037 151.107C145.02 151.047 144.985 150.993 144.936 150.954C144.887 150.915 144.827 150.891 144.764 150.888L140.377 150.632C140.315 150.629 140.253 150.645 140.2 150.678C140.147 150.712 140.105 150.761 140.082 150.819L138.688 154.207C136.979 154.503 135.329 155.075 133.804 155.902L130.61 154.11C130.556 154.079 130.493 154.066 130.43 154.073C130.368 154.08 130.309 154.106 130.262 154.148L126.98 157.069C126.933 157.111 126.9 157.166 126.887 157.227C126.873 157.288 126.878 157.352 126.902 157.41L128.311 160.789C127.313 162.208 126.553 163.78 126.061 165.443L122.534 166.434C122.474 166.451 122.42 166.487 122.381 166.536C122.341 166.585 122.318 166.645 122.315 166.707L122.059 171.094C122.056 171.157 122.072 171.218 122.105 171.271C122.138 171.324 122.187 171.366 122.244 171.39L125.631 172.79C125.927 174.499 126.5 176.149 127.327 177.674L125.534 180.867C125.504 180.922 125.491 180.985 125.498 181.047C125.505 181.109 125.531 181.168 125.573 181.214L128.494 184.497C128.535 184.544 128.591 184.577 128.652 184.591C128.713 184.605 128.777 184.599 128.835 184.575L132.213 183.165C133.632 184.164 135.204 184.924 136.868 185.417L137.859 188.944C137.876 189.004 137.911 189.057 137.96 189.097C138.009 189.136 138.068 189.159 138.131 189.163L142.518 189.419C142.58 189.422 142.643 189.406 142.696 189.373C142.749 189.339 142.791 189.29 142.814 189.232L144.208 185.844C145.918 185.548 147.567 184.976 149.093 184.149L152.286 185.94C152.34 185.971 152.403 185.984 152.465 185.977C152.527 185.971 152.586 185.945 152.633 185.903L155.916 182.982C155.962 182.94 155.995 182.885 156.009 182.824C156.023 182.763 156.018 182.699 155.994 182.641L154.584 179.261C155.582 177.843 156.343 176.271 156.835 174.608L160.362 173.617C160.423 173.6 160.476 173.564 160.516 173.515C160.555 173.466 160.578 173.406 160.582 173.344L160.839 168.951Z" fill="#FF6C37"/>
<path opacity="0.7" d="M143.489 173.941C142.475 174.469 141.296 174.582 140.2 174.258C139.103 173.935 138.175 173.198 137.611 172.204C137.047 171.21 136.89 170.036 137.173 168.929C137.456 167.821 138.158 166.867 139.131 166.267C140.103 165.666 141.271 165.466 142.388 165.708C143.505 165.951 144.484 166.617 145.12 167.567C145.756 168.517 145.999 169.676 145.798 170.801C145.596 171.927 144.967 172.93 144.041 173.6C143.865 173.727 143.681 173.841 143.489 173.941ZM138.219 169.004C137.983 169.751 138.014 170.557 138.306 171.284C138.598 172.012 139.133 172.615 139.82 172.992C140.507 173.369 141.303 173.496 142.073 173.351C142.844 173.207 143.54 172.8 144.043 172.2C144.547 171.6 144.827 170.843 144.836 170.06C144.844 169.276 144.581 168.514 144.091 167.903C143.6 167.292 142.913 166.87 142.146 166.708C141.38 166.547 140.581 166.657 139.886 167.018C139.737 167.096 139.594 167.184 139.458 167.283C138.87 167.708 138.436 168.312 138.219 169.004Z" fill="white"/>
<path opacity="0.7" d="M147.709 178.823C148.009 178.606 148.299 178.372 148.579 178.123C148.667 178.045 148.754 177.965 148.84 177.883C149.262 177.484 149.65 177.051 150.002 176.589L150.016 176.571C150.031 176.553 150.044 176.535 150.057 176.517L150.135 176.414C150.167 176.37 150.184 176.317 150.184 176.263C150.184 176.208 150.167 176.155 150.135 176.112C150.119 176.09 150.1 176.07 150.078 176.054C150.023 176.014 149.954 175.997 149.886 176.008C149.819 176.019 149.758 176.055 149.717 176.11C148.806 177.357 147.628 178.385 146.268 179.117C144.908 179.849 143.402 180.268 141.859 180.343C140.317 180.417 138.777 180.146 137.353 179.548C135.929 178.951 134.657 178.042 133.629 176.889C133.393 176.626 133.17 176.351 132.962 176.065C131.413 173.913 130.749 171.249 131.107 168.622C131.466 165.995 132.819 163.606 134.887 161.947C136.956 160.289 139.583 159.488 142.225 159.71C144.867 159.932 147.323 161.159 149.086 163.139C149.32 163.402 149.539 163.676 149.744 163.963C150.632 165.189 151.24 166.596 151.523 168.083C151.528 168.117 151.541 168.15 151.559 168.18C151.577 168.209 151.601 168.234 151.629 168.254C151.657 168.274 151.689 168.288 151.723 168.295C151.757 168.303 151.792 168.303 151.826 168.297C151.859 168.29 151.892 168.277 151.92 168.258C151.949 168.239 151.974 168.214 151.993 168.185C152.012 168.156 152.025 168.124 152.031 168.09C152.037 168.056 152.036 168.021 152.029 167.988C151.732 166.426 151.094 164.949 150.162 163.661C149.947 163.365 149.716 163.078 149.471 162.801C147.621 160.72 145.042 159.429 142.267 159.195C139.492 158.961 136.733 159.802 134.56 161.544C132.387 163.285 130.967 165.795 130.591 168.555C130.216 171.314 130.915 174.112 132.544 176.371C132.761 176.671 132.995 176.962 133.244 177.242C135.031 179.25 137.498 180.524 140.17 180.818C142.841 181.113 145.527 180.406 147.708 178.835L147.709 178.823Z" fill="white"/>
<g opacity="0.3">
<path d="M191.471 159.09C191.54 159.039 191.592 158.968 191.617 158.886C191.643 158.804 191.642 158.716 191.613 158.635C191.5 158.316 191.376 157.998 191.244 157.686C191.199 157.595 191.121 157.524 191.026 157.489C190.931 157.453 190.826 157.456 190.732 157.495C190.638 157.535 190.563 157.608 190.522 157.701C190.481 157.794 190.477 157.899 190.511 157.995C190.637 158.292 190.755 158.596 190.863 158.899C190.881 158.949 190.908 158.994 190.943 159.033C190.978 159.072 191.02 159.103 191.067 159.126C191.114 159.148 191.165 159.161 191.217 159.164C191.27 159.167 191.322 159.159 191.371 159.142C191.407 159.129 191.44 159.112 191.471 159.09Z" fill="#FF6C37"/>
<path d="M190.153 156.329C190.108 156.356 190.058 156.373 190.006 156.38C189.954 156.387 189.902 156.383 189.851 156.37C189.801 156.356 189.753 156.333 189.712 156.301C189.671 156.269 189.636 156.23 189.61 156.184C189.331 155.703 189.027 155.236 188.701 154.784C188.632 154.69 188.562 154.595 188.495 154.501C188.432 154.417 188.405 154.311 188.419 154.206C188.434 154.102 188.49 154.008 188.574 153.944C188.659 153.884 188.764 153.859 188.868 153.873C188.971 153.888 189.065 153.941 189.131 154.022C189.205 154.125 189.278 154.219 189.35 154.318C189.69 154.789 190.011 155.283 190.302 155.786C190.351 155.871 190.367 155.971 190.347 156.067C190.327 156.164 190.271 156.249 190.192 156.307L190.153 156.329ZM187.178 152.967C186.709 152.483 186.211 152.028 185.687 151.605C185.644 151.573 185.608 151.532 185.581 151.486C185.554 151.44 185.537 151.389 185.531 151.336C185.524 151.283 185.528 151.229 185.543 151.178C185.558 151.126 185.582 151.078 185.616 151.037C185.65 150.995 185.691 150.961 185.738 150.936C185.785 150.911 185.837 150.895 185.89 150.891C185.944 150.886 185.997 150.892 186.048 150.909C186.099 150.925 186.146 150.952 186.186 150.987C186.736 151.43 187.258 151.907 187.75 152.414C187.823 152.49 187.863 152.592 187.861 152.698C187.859 152.804 187.816 152.904 187.74 152.978C187.727 152.991 187.712 153.003 187.696 153.014C187.619 153.07 187.524 153.096 187.428 153.087C187.333 153.079 187.244 153.036 187.178 152.967ZM184.034 150.438C183.461 150.083 182.866 149.764 182.253 149.483C182.203 149.463 182.157 149.433 182.118 149.395C182.079 149.357 182.049 149.312 182.028 149.261C182.008 149.211 181.998 149.157 181.999 149.103C182.001 149.049 182.013 148.995 182.036 148.946C182.058 148.896 182.091 148.852 182.131 148.816C182.172 148.78 182.219 148.752 182.27 148.735C182.322 148.718 182.376 148.711 182.431 148.716C182.485 148.72 182.537 148.736 182.585 148.762C183.228 149.056 183.851 149.391 184.453 149.763C184.535 149.821 184.593 149.909 184.613 150.009C184.633 150.108 184.615 150.211 184.561 150.297C184.508 150.383 184.424 150.446 184.326 150.472C184.228 150.498 184.123 150.486 184.034 150.438ZM180.368 148.757C179.727 148.553 179.073 148.39 178.411 148.267C178.36 148.258 178.311 148.238 178.267 148.21C178.223 148.182 178.185 148.145 178.156 148.102C178.126 148.059 178.105 148.01 178.094 147.959C178.083 147.908 178.083 147.855 178.092 147.804C178.101 147.752 178.121 147.703 178.149 147.66C178.178 147.616 178.215 147.578 178.258 147.548C178.301 147.519 178.349 147.498 178.4 147.487C178.451 147.476 178.504 147.475 178.556 147.485C179.252 147.614 179.94 147.786 180.616 148C180.716 148.031 180.8 148.102 180.849 148.196C180.898 148.289 180.907 148.398 180.875 148.499C180.843 148.6 180.773 148.684 180.679 148.732C180.585 148.781 180.476 148.791 180.376 148.759L180.368 148.757ZM176.404 148.021C175.731 147.98 175.057 147.98 174.384 148.021C174.279 148.028 174.175 147.992 174.096 147.922C174.017 147.852 173.969 147.754 173.963 147.648C173.956 147.543 173.992 147.439 174.062 147.36C174.132 147.281 174.23 147.233 174.335 147.227C175.04 147.184 175.747 147.184 176.452 147.227C176.557 147.233 176.656 147.281 176.726 147.36C176.796 147.439 176.831 147.543 176.825 147.648C176.819 147.754 176.771 147.852 176.692 147.922C176.613 147.992 176.509 148.028 176.404 148.021ZM172.385 148.275C171.723 148.399 171.069 148.563 170.427 148.768C170.327 148.8 170.218 148.791 170.124 148.743C170.03 148.694 169.959 148.61 169.927 148.51C169.895 148.409 169.904 148.3 169.953 148.206C170.001 148.113 170.085 148.042 170.185 148.01C170.858 147.796 171.543 147.624 172.237 147.495C172.289 147.485 172.341 147.486 172.392 147.497C172.443 147.507 172.492 147.528 172.535 147.558C172.578 147.587 172.615 147.625 172.644 147.669C172.672 147.712 172.692 147.761 172.701 147.813C172.711 147.864 172.71 147.917 172.699 147.968C172.689 148.019 172.668 148.067 172.638 148.11C172.609 148.154 172.571 148.19 172.528 148.219C172.484 148.247 172.435 148.267 172.383 148.277L172.385 148.275ZM168.547 149.5C167.935 149.783 167.341 150.103 166.77 150.459C166.725 150.487 166.676 150.505 166.624 150.514C166.573 150.522 166.52 150.521 166.469 150.509C166.418 150.497 166.37 150.475 166.328 150.445C166.285 150.414 166.249 150.376 166.222 150.332C166.194 150.287 166.176 150.238 166.167 150.186C166.159 150.135 166.16 150.082 166.172 150.031C166.184 149.98 166.206 149.932 166.236 149.89C166.267 149.847 166.305 149.811 166.35 149.784C166.949 149.41 167.572 149.074 168.213 148.777C168.303 148.737 168.404 148.731 168.498 148.761C168.591 148.791 168.671 148.854 168.72 148.939C168.77 149.024 168.787 149.124 168.767 149.221C168.747 149.317 168.693 149.403 168.614 149.461C168.592 149.475 168.57 149.486 168.547 149.496V149.5ZM163.071 153.002C163.033 152.966 163.003 152.923 162.982 152.875C162.961 152.827 162.95 152.775 162.949 152.723C162.948 152.671 162.958 152.619 162.977 152.57C162.996 152.522 163.025 152.478 163.062 152.44C163.488 151.999 163.938 151.581 164.409 151.188C164.48 151.128 164.552 151.069 164.624 151.01C164.665 150.977 164.711 150.952 164.762 150.937C164.812 150.922 164.865 150.917 164.917 150.923C164.969 150.929 165.019 150.945 165.065 150.97C165.111 150.996 165.151 151.03 165.183 151.071C165.216 151.112 165.241 151.158 165.256 151.209C165.27 151.259 165.275 151.311 165.27 151.363C165.264 151.415 165.248 151.465 165.223 151.511C165.198 151.557 165.164 151.598 165.124 151.63C165.056 151.685 164.989 151.741 164.918 151.797C164.468 152.173 164.039 152.572 163.631 152.993C163.615 153.01 163.597 153.025 163.578 153.039C163.502 153.092 163.41 153.118 163.317 153.111C163.225 153.104 163.137 153.064 163.071 152.999V153.002Z" fill="#FF6C37"/>
</g>
<g opacity="0.3">
<path d="M185.293 178.433C184.725 178.833 184.133 179.199 183.521 179.527C183.474 179.552 183.424 179.567 183.372 179.572C183.32 179.578 183.268 179.572 183.217 179.557C183.167 179.542 183.121 179.517 183.08 179.484C183.04 179.451 183.007 179.41 182.982 179.364C182.957 179.318 182.942 179.268 182.937 179.216C182.931 179.164 182.937 179.111 182.952 179.061C182.967 179.011 182.992 178.965 183.025 178.924C183.058 178.884 183.099 178.85 183.145 178.826C183.728 178.513 184.293 178.164 184.835 177.783C184.921 177.722 185.027 177.697 185.131 177.715C185.235 177.732 185.328 177.79 185.39 177.876C185.451 177.961 185.476 178.068 185.458 178.172C185.441 178.276 185.383 178.369 185.297 178.43L185.293 178.433ZM186.359 177.105C186.289 177.026 186.252 176.923 186.258 176.818C186.264 176.712 186.311 176.614 186.389 176.543C186.882 176.1 187.347 175.627 187.783 175.127C187.854 175.052 187.95 175.008 188.053 175.003C188.156 174.998 188.256 175.033 188.334 175.101C188.411 175.168 188.46 175.263 188.469 175.366C188.478 175.468 188.447 175.57 188.383 175.65C187.926 176.173 187.438 176.669 186.922 177.134C186.911 177.144 186.9 177.153 186.888 177.161C186.808 177.219 186.71 177.245 186.613 177.234C186.515 177.224 186.425 177.177 186.359 177.105ZM181.627 180.401C180.979 180.651 180.317 180.863 179.643 181.034C179.541 181.06 179.433 181.044 179.342 180.99C179.251 180.936 179.186 180.849 179.16 180.746C179.134 180.644 179.15 180.536 179.204 180.445C179.258 180.354 179.345 180.289 179.448 180.263C180.09 180.1 180.723 179.898 181.341 179.659C181.431 179.624 181.531 179.622 181.622 179.656C181.713 179.689 181.789 179.754 181.836 179.839C181.882 179.924 181.896 180.023 181.874 180.118C181.852 180.212 181.797 180.296 181.718 180.352C181.69 180.371 181.659 180.386 181.627 180.398V180.401ZM189.101 174.108C189.015 174.048 188.955 173.956 188.936 173.853C188.917 173.749 188.939 173.642 188.998 173.555C189.37 173.006 189.707 172.435 190.009 171.845C190.033 171.799 190.065 171.757 190.105 171.723C190.145 171.689 190.191 171.664 190.24 171.648C190.29 171.631 190.342 171.625 190.395 171.629C190.447 171.633 190.497 171.648 190.544 171.672C190.59 171.695 190.632 171.728 190.666 171.768C190.7 171.807 190.725 171.853 190.742 171.903C190.758 171.953 190.764 172.005 190.76 172.057C190.756 172.109 190.741 172.16 190.717 172.207C190.401 172.826 190.047 173.425 189.658 174.001C189.632 174.041 189.599 174.076 189.561 174.104C189.494 174.151 189.413 174.177 189.331 174.177C189.249 174.177 189.169 174.152 189.101 174.105V174.108ZM177.598 181.421C176.908 181.509 176.214 181.555 175.519 181.558C175.414 181.558 175.313 181.517 175.238 181.442C175.163 181.367 175.122 181.266 175.122 181.161C175.122 181.055 175.163 180.954 175.238 180.88C175.313 180.805 175.414 180.763 175.519 180.763C176.182 180.759 176.844 180.716 177.502 180.632C177.591 180.62 177.681 180.637 177.759 180.682C177.836 180.727 177.896 180.797 177.929 180.881C177.962 180.965 177.965 181.057 177.939 181.142C177.913 181.228 177.858 181.303 177.784 181.353C177.729 181.391 177.664 181.413 177.598 181.417V181.421ZM173.441 181.445C172.75 181.365 172.065 181.243 171.389 181.08C171.286 181.056 171.198 180.991 171.142 180.901C171.087 180.811 171.07 180.703 171.095 180.6C171.12 180.498 171.184 180.409 171.274 180.354C171.364 180.299 171.473 180.282 171.575 180.307C172.22 180.462 172.873 180.578 173.532 180.654C173.633 180.671 173.724 180.726 173.786 180.807C173.848 180.889 173.875 180.992 173.864 181.093C173.852 181.195 173.801 181.288 173.723 181.354C173.644 181.419 173.543 181.452 173.441 181.445ZM169.397 180.472C168.745 180.228 168.109 179.946 167.492 179.626C167.398 179.577 167.328 179.494 167.296 179.393C167.264 179.292 167.273 179.183 167.322 179.089C167.371 178.996 167.455 178.925 167.555 178.893C167.656 178.861 167.765 178.871 167.859 178.919C168.447 179.225 169.053 179.494 169.675 179.726C169.774 179.763 169.854 179.838 169.898 179.934C169.941 180.03 169.945 180.139 169.909 180.238C169.872 180.337 169.797 180.417 169.701 180.461C169.605 180.505 169.495 180.509 169.397 180.472Z" fill="#FF6C37"/>
<path d="M191.415 170.462C191.48 170.415 191.528 170.351 191.556 170.276C191.672 169.956 191.78 169.632 191.876 169.311C191.891 169.261 191.896 169.209 191.891 169.157C191.885 169.105 191.87 169.054 191.845 169.008C191.82 168.962 191.787 168.922 191.746 168.889C191.706 168.856 191.659 168.831 191.609 168.816C191.559 168.801 191.507 168.796 191.455 168.801C191.403 168.806 191.352 168.822 191.306 168.847C191.26 168.871 191.219 168.905 191.186 168.945C191.153 168.986 191.129 169.033 191.114 169.083C191.022 169.392 190.919 169.701 190.805 170.003C190.776 170.083 190.774 170.171 190.798 170.252C190.822 170.334 190.872 170.405 190.94 170.456C191.008 170.507 191.09 170.536 191.175 170.537C191.26 170.538 191.343 170.511 191.412 170.462H191.415Z" fill="#FF6C37"/>
</g>
<path d="M188.306 163.557C188.307 163.515 188.297 163.474 188.274 163.438C188.252 163.403 188.219 163.375 188.181 163.359L185.915 162.432C185.717 161.288 185.334 160.184 184.782 159.163L185.981 157.027C186.001 156.99 186.009 156.948 186.005 156.907C186 156.865 185.983 156.826 185.956 156.794L183.999 154.598C183.971 154.567 183.934 154.545 183.893 154.536C183.852 154.527 183.809 154.53 183.77 154.546L181.504 155.489C180.555 154.821 179.503 154.312 178.39 153.982L177.727 151.622C177.716 151.581 177.693 151.544 177.661 151.516C177.628 151.488 177.588 151.472 177.546 151.468L174.61 151.297C174.568 151.295 174.527 151.306 174.492 151.328C174.456 151.351 174.429 151.383 174.412 151.421L173.485 153.687C172.341 153.885 171.237 154.268 170.216 154.821L168.078 153.631C168.041 153.61 167.999 153.602 167.957 153.606C167.916 153.611 167.877 153.628 167.846 153.657L165.649 155.614C165.618 155.642 165.596 155.679 165.587 155.72C165.578 155.761 165.582 155.803 165.597 155.842L166.54 158.103C165.872 159.053 165.363 160.105 165.034 161.218L162.673 161.88C162.633 161.892 162.598 161.916 162.571 161.949C162.545 161.981 162.53 162.021 162.527 162.063L162.356 164.998C162.354 165.04 162.365 165.081 162.387 165.117C162.409 165.152 162.442 165.18 162.48 165.196L164.746 166.129C164.944 167.273 165.326 168.377 165.879 169.398L164.68 171.534C164.66 171.571 164.652 171.613 164.657 171.654C164.661 171.696 164.678 171.735 164.705 171.767L166.662 173.963C166.69 173.994 166.727 174.015 166.768 174.024C166.809 174.034 166.851 174.031 166.89 174.015L169.156 173.072C170.106 173.74 171.158 174.249 172.271 174.579L172.934 176.939C172.946 176.979 172.97 177.014 173.003 177.04C173.035 177.066 173.075 177.082 173.116 177.085L176.052 177.256C176.094 177.258 176.135 177.247 176.17 177.224C176.206 177.202 176.233 177.17 176.25 177.131L177.177 174.865C178.321 174.668 179.425 174.285 180.445 173.732L182.582 174.932C182.618 174.952 182.66 174.96 182.702 174.956C182.744 174.951 182.783 174.934 182.814 174.906L185.011 172.949C185.042 172.921 185.063 172.884 185.073 172.843C185.082 172.803 185.078 172.76 185.063 172.722L184.119 170.456C184.788 169.506 185.297 168.454 185.626 167.341L187.986 166.677C188.027 166.666 188.063 166.643 188.089 166.61C188.116 166.578 188.131 166.538 188.133 166.496L188.306 163.557Z" fill="#FF6C37"/>
<path opacity="0.7" d="M176.723 166.943C176.034 167.301 175.233 167.378 174.489 167.157C173.744 166.937 173.114 166.436 172.731 165.761C172.348 165.086 172.241 164.288 172.434 163.536C172.626 162.784 173.103 162.136 173.763 161.728C174.424 161.32 175.217 161.183 175.976 161.348C176.734 161.512 177.4 161.964 177.832 162.609C178.265 163.254 178.43 164.041 178.295 164.806C178.159 165.57 177.732 166.252 177.103 166.708C176.982 166.796 176.855 166.874 176.723 166.943ZM173.37 165.295C173.505 165.553 173.688 165.782 173.911 165.969C174.134 166.156 174.391 166.297 174.669 166.385C174.946 166.472 175.238 166.504 175.528 166.479C175.818 166.453 176.1 166.371 176.357 166.236C176.62 166.105 176.854 165.923 177.046 165.7C177.238 165.478 177.383 165.219 177.474 164.94C177.565 164.66 177.599 164.365 177.575 164.073C177.55 163.78 177.468 163.495 177.332 163.234C177.197 162.973 177.01 162.742 176.784 162.555C176.559 162.367 176.298 162.226 176.017 162.139C175.736 162.053 175.44 162.024 175.148 162.054C174.856 162.083 174.572 162.17 174.314 162.31C174.218 162.36 174.125 162.417 174.038 162.481C173.608 162.792 173.303 163.248 173.18 163.764C173.057 164.281 173.124 164.824 173.368 165.296L173.37 165.295Z" fill="white"/>
<path opacity="0.7" d="M179.658 170.34C180.278 169.891 180.827 169.351 181.285 168.737L181.325 168.683C181.356 168.641 181.378 168.593 181.391 168.542C181.403 168.491 181.405 168.439 181.397 168.387C181.389 168.336 181.371 168.286 181.344 168.241C181.317 168.197 181.281 168.158 181.239 168.127C181.197 168.096 181.149 168.074 181.098 168.062C181.048 168.049 180.995 168.047 180.943 168.055C180.892 168.063 180.842 168.081 180.798 168.108C180.753 168.135 180.714 168.171 180.683 168.213C180.402 168.598 180.08 168.951 179.723 169.268L179.665 169.32C178.829 170.051 177.823 170.561 176.739 170.804C176.15 170.934 175.545 170.985 174.942 170.955H174.926H174.881C174.003 170.906 173.142 170.684 172.351 170.3C171.559 169.917 170.851 169.38 170.268 168.721C170.115 168.549 169.971 168.37 169.836 168.184C168.801 166.793 168.345 165.055 168.566 163.336C168.786 161.616 169.665 160.049 171.017 158.964C172.37 157.879 174.09 157.361 175.817 157.519C177.543 157.677 179.141 158.499 180.274 159.811C180.425 159.98 180.567 160.157 180.7 160.342C181.275 161.136 181.669 162.047 181.851 163.01C181.862 163.068 181.885 163.122 181.919 163.17C181.973 163.243 182.049 163.296 182.137 163.32C182.224 163.344 182.317 163.337 182.4 163.301C182.483 163.265 182.551 163.202 182.594 163.122C182.636 163.042 182.65 162.95 182.633 162.861C182.428 161.783 181.988 160.763 181.345 159.874C181.196 159.668 181.038 159.47 180.869 159.281C179.905 158.198 178.648 157.418 177.25 157.035C175.852 156.652 174.372 156.683 172.991 157.124C171.61 157.565 170.387 158.397 169.469 159.519C168.552 160.642 167.98 162.006 167.822 163.447C167.664 164.888 167.928 166.344 168.581 167.638C169.234 168.932 170.248 170.009 171.501 170.739C172.754 171.468 174.191 171.818 175.639 171.747C177.087 171.676 178.483 171.186 179.658 170.337V170.34Z" fill="white"/>
</svg>
