<svg width="227" height="200" viewBox="0 0 227 200" fill="none" xmlns="http://www.w3.org/2000/svg">
<g clip-path="url(#clip0_1202_19767)">
<path d="M28.4947 174.376H47.1562L47.1562 106.057H28.4947L28.4947 174.376Z" fill="#E6E6E6"/>
<path d="M32.8951 174.377H28.4922V161.854H37.508L32.8951 174.377Z" fill="#F0F0F0"/>
<path d="M144.995 174.376H163.656V106.057H144.995V174.376Z" fill="#E6E6E6"/>
<path d="M28.4999 168.215L148.844 168.215V106.062L28.4999 106.062L28.4999 168.215Z" fill="#F0F0F0"/>
<path d="M86.7486 110.136V159.698H32.3357V110.136H86.7486ZM87.1741 109.711H31.9102V160.124H87.1912V109.711H87.1741Z" fill="#FAFAFA"/>
<path d="M145.002 110.136V159.698H90.5722V110.136H145.002ZM145.428 109.711H90.1523V160.124H145.433V109.711H145.428Z" fill="#FAFAFA"/>
<path d="M98.5947 121.405C100.757 121.405 102.51 120.356 102.51 119.061C102.51 117.767 100.757 116.718 98.5947 116.718C96.4325 116.718 94.6797 117.767 94.6797 119.061C94.6797 120.356 96.4325 121.405 98.5947 121.405Z" fill="#FAFAFA"/>
<path d="M78.7353 121.405C80.8975 121.405 82.6503 120.356 82.6503 119.061C82.6503 117.767 80.8975 116.718 78.7353 116.718C76.5731 116.718 74.8203 117.767 74.8203 119.061C74.8203 120.356 76.5731 121.405 78.7353 121.405Z" fill="#FAFAFA"/>
<path d="M144.439 174.377H148.842V161.854H139.82L144.439 174.377Z" fill="#F0F0F0"/>
<path d="M89.6758 98.119C89.6758 98.119 90.0162 106.063 102.964 106.063C115.912 106.063 116.252 98.119 116.252 98.119H89.6758Z" fill="#F5F5F5"/>
<path d="M123.118 61.3521L223.648 61.3521V-0.00572205L123.118 -0.00572205L123.118 61.3521Z" fill="#E6E6E6"/>
<path d="M120.605 61.3521L223.297 61.3521V-0.00572205L120.605 -0.00572205L120.605 61.3521Z" fill="#F0F0F0"/>
<path d="M123.118 63.701L223.648 63.701V61.3577L123.118 61.3577V63.701Z" fill="#E6E6E6"/>
<path d="M116.401 63.701L219.094 63.701V61.3577L116.401 61.3577V63.701Z" fill="#F0F0F0"/>
<path d="M219.762 57.8286V3.52917L124.128 3.52917V57.8286L219.762 57.8286Z" fill="#FAFAFA"/>
<path d="M190.314 57.8286L184.663 3.52917H174.887L180.538 57.8286H190.314Z" fill="white"/>
<path d="M218.126 42.3217C218.162 42.3225 218.198 42.316 218.231 42.3026C218.265 42.2892 218.295 42.2691 218.32 42.2437C218.346 42.2182 218.366 42.1879 218.379 42.1545C218.393 42.1211 218.399 42.0854 218.398 42.0494V5.8214C218.389 5.75664 218.357 5.69744 218.307 5.65463C218.258 5.61182 218.194 5.58826 218.129 5.58826C218.064 5.58826 218 5.61182 217.951 5.65463C217.901 5.69744 217.869 5.75664 217.859 5.8214V42.0494C217.859 42.0849 217.865 42.1202 217.878 42.1532C217.891 42.1862 217.911 42.2163 217.936 42.2416C217.96 42.267 217.99 42.2871 218.023 42.3009C218.055 42.3147 218.091 42.3217 218.126 42.3217Z" fill="#F0F0F0"/>
<path d="M178.433 57.8286L172.782 3.52917H168.969L174.62 57.8286H178.433Z" fill="white"/>
<path d="M124.578 57.8286V3.52917H124.13V57.8286H124.578Z" fill="#E6E6E6"/>
<path opacity="0.5" d="M119.766 8.13636H221.119L221.442 4.90222H120.095L119.766 8.13636Z" fill="#E0E0E0"/>
<path opacity="0.5" d="M119.766 13.4528H221.119L221.442 10.2186H120.095L119.766 13.4528Z" fill="#E0E0E0"/>
<path opacity="0.5" d="M119.766 18.7693H221.119L221.442 15.5352H120.095L119.766 18.7693Z" fill="#E0E0E0"/>
<path opacity="0.5" d="M119.766 24.0857H221.119L221.442 20.8516H120.095L119.766 24.0857Z" fill="#E0E0E0"/>
<path opacity="0.5" d="M119.766 29.4022H221.119L221.442 26.1681H120.095L119.766 29.4022Z" fill="#E0E0E0"/>
<path opacity="0.5" d="M119.766 34.7243H221.119L221.442 31.4845H120.095L119.766 34.7243Z" fill="#E0E0E0"/>
<path d="M37.7752 42.1515L99.0195 42.1515V1.60566L37.7752 1.60566L37.7752 42.1515Z" fill="#E0E0E0"/>
<path d="M34.0892 42.1515L97.4102 42.1515V1.60566L34.0892 1.60566L34.0892 42.1515Z" fill="#F5F5F5"/>
<path d="M39.3945 8.70939V35.0477H92.1053V8.70939L39.3945 8.70939Z" fill="white"/>
<path d="M5.31039 91.9288L66.5547 91.9288V51.383L5.31039 51.383L5.31039 91.9288Z" fill="#E0E0E0"/>
<path d="M1.61655 91.9288L64.9375 91.9288V51.383L1.61655 51.383L1.61655 91.9288Z" fill="#F5F5F5"/>
<path d="M6.92188 58.481L6.92188 84.8193H59.6326V58.481H6.92188Z" fill="white"/>
<path d="M110.012 200C170.769 200 220.023 197.124 220.023 193.577C220.023 190.03 170.769 187.154 110.012 187.154C49.2539 187.154 0 190.03 0 193.577C0 197.124 49.2539 200 110.012 200Z" fill="#F5F5F5"/>
<path d="M210.241 53.1526L210.016 57.8452L210.594 57.873L210.819 53.1804L210.241 53.1526Z" fill="#FF6C37"/>
<path d="M211.058 36.4034L210.426 49.5631L211.004 49.5909L211.636 36.4312L211.058 36.4034Z" fill="#FF6C37"/>
<path d="M132.373 29.0845H202.73C203.668 29.0784 204.597 29.2645 205.461 29.6312C206.324 29.998 207.103 30.5377 207.75 31.2171C208.397 31.8964 208.898 32.701 209.222 33.5814C209.546 34.4617 209.687 35.3991 209.635 36.3358L202.497 186.326C202.381 188.27 201.534 190.098 200.126 191.443C198.718 192.788 196.853 193.55 194.905 193.577H124.56C123.622 193.583 122.693 193.397 121.829 193.03C120.966 192.664 120.187 192.124 119.54 191.445C118.893 190.765 118.392 189.961 118.068 189.08C117.744 188.2 117.603 187.262 117.655 186.326L124.764 36.3358C124.878 34.388 125.727 32.5559 127.139 31.2099C128.551 29.8638 130.422 29.1042 132.373 29.0845Z" fill="#FF6C37"/>
<path d="M226.724 93.3983L226.889 89.9543L224.784 89.3415C224.705 88.1946 224.532 87.056 224.268 85.9371L226.072 84.5527L224.903 81.3696L222.685 81.6193C222.169 80.6019 221.565 79.6318 220.88 78.7199L222.049 76.7738L219.728 74.3397L217.737 75.412C216.851 74.6805 215.901 74.0292 214.9 73.4659L215.257 71.2644L212.137 69.948L210.673 71.6843C209.56 71.3573 208.421 71.1276 207.269 70.9977L206.764 68.87H203.314L202.605 71.0034C201.432 71.1339 200.273 71.3616 199.138 71.6843L197.844 69.948L194.599 71.2644L194.741 73.4659C193.703 74.0415 192.711 74.6959 191.773 75.4234L189.884 74.3453L187.33 76.7794L188.318 78.7256C187.545 79.6335 186.849 80.6032 186.235 81.625L184.04 81.3753L182.57 84.5584L184.244 85.9428C183.868 87.052 183.585 88.1908 183.398 89.3472L181.231 89.96L181.066 93.404L183.177 94.0168C183.251 95.1643 183.424 96.3034 183.693 97.4212L181.889 98.7999L183.058 101.983L185.276 101.733C185.792 102.752 186.396 103.725 187.081 104.638L185.906 106.579L188.227 109.019L190.224 107.941C191.102 108.67 192.042 109.321 193.033 109.887L192.681 112.088L195.802 113.41L197.265 111.668C198.378 111.993 199.517 112.221 200.67 112.349L201.18 114.488H204.625L205.339 112.349C206.51 112.221 207.668 111.993 208.801 111.668L210.1 113.41L213.345 112.088L213.198 109.887C214.248 109.321 215.25 108.67 216.194 107.941L218.089 109.019L220.642 106.579L219.655 104.638C220.423 103.726 221.12 102.754 221.737 101.733L223.933 101.983L225.402 98.7999L223.7 97.4212C224.072 96.3111 224.353 95.1725 224.54 94.0168L226.724 93.3983ZM218.719 91.6962C218.498 95.6555 216.781 99.3828 213.914 102.122C211.047 104.862 207.245 106.408 203.28 106.448C201.37 106.467 199.477 106.093 197.717 105.349C195.958 104.605 194.371 103.507 193.055 102.123C191.738 100.74 190.72 99.1 190.064 97.3062C189.409 95.5123 189.129 93.6027 189.243 91.6962C189.464 87.7364 191.183 84.009 194.051 81.2696C196.919 78.5302 200.721 76.9839 204.687 76.944C206.594 76.926 208.485 77.3001 210.242 78.0431C211.999 78.7862 213.584 79.8822 214.9 81.2633C216.215 82.6444 217.233 84.2811 217.89 86.0718C218.547 87.8626 218.829 89.7692 218.719 91.6735V91.6962Z" fill="#FF6C37"/>
<path d="M202.615 30.9001H132.287C130.829 30.9194 129.432 31.4912 128.379 32.5C127.326 33.5089 126.695 34.8797 126.613 36.3358L119.815 178.938C119.801 179.182 119.838 179.425 119.922 179.653C120.006 179.882 120.136 180.091 120.304 180.267C120.472 180.443 120.675 180.583 120.899 180.677C121.123 180.772 121.365 180.819 121.608 180.816H199.046C199.552 180.813 200.037 180.617 200.403 180.268C200.769 179.919 200.987 179.443 201.015 178.938L207.79 36.3358C207.835 35.6322 207.734 34.9269 207.494 34.2642C207.253 33.6015 206.878 32.9957 206.392 32.4851C205.906 31.9745 205.32 31.57 204.669 31.2973C204.019 31.0245 203.32 30.8893 202.615 30.9001Z" fill="white"/>
<path opacity="0.2" d="M189.97 174.291H131.347C130.5 174.293 129.662 174.121 128.883 173.788C128.104 173.455 127.401 172.966 126.818 172.353C126.234 171.739 125.781 171.013 125.486 170.219C125.192 169.424 125.063 168.578 125.106 167.732L126.91 129.825C127.011 128.071 127.773 126.421 129.043 125.208C130.313 123.995 131.996 123.309 133.753 123.289H192.37C193.218 123.283 194.059 123.452 194.839 123.784C195.62 124.116 196.324 124.604 196.909 125.219C197.494 125.833 197.946 126.561 198.239 127.357C198.532 128.153 198.659 129.001 198.611 129.848L196.824 167.755C196.722 169.51 195.958 171.161 194.686 172.374C193.413 173.588 191.728 174.273 189.97 174.291ZM133.741 123.794C132.12 123.811 130.565 124.443 129.392 125.563C128.219 126.683 127.514 128.206 127.421 129.825L125.616 167.732C125.57 168.51 125.684 169.29 125.951 170.022C126.219 170.754 126.635 171.423 127.172 171.987C127.71 172.552 128.358 172.999 129.076 173.302C129.795 173.604 130.568 173.756 131.347 173.747H189.97C191.593 173.729 193.149 173.096 194.324 171.976C195.498 170.855 196.203 169.33 196.296 167.71L198.095 129.802C198.141 129.025 198.027 128.247 197.759 127.516C197.491 126.785 197.076 126.117 196.539 125.553C196.002 124.99 195.355 124.543 194.638 124.24C193.92 123.937 193.148 123.785 192.37 123.794H133.741Z" fill="#FF6C37"/>
<path opacity="0.1" d="M143.739 126.489H121.412L119.562 165.378H141.895C143.137 165.361 144.326 164.875 145.224 164.017C146.122 163.159 146.662 161.993 146.735 160.753L148.142 131.107C148.175 130.51 148.085 129.913 147.878 129.352C147.671 128.792 147.351 128.279 146.939 127.846C146.526 127.414 146.03 127.07 145.479 126.837C144.929 126.603 144.337 126.485 143.739 126.489Z" fill="#FF6C37"/>
<path opacity="0.1" d="M173.658 145.343H158.475C158.168 145.343 157.865 145.282 157.583 145.162C157.302 145.042 157.047 144.866 156.835 144.645C156.623 144.424 156.458 144.162 156.349 143.875C156.241 143.589 156.192 143.283 156.205 142.977L156.926 127.788C156.964 127.154 157.241 126.557 157.701 126.118C158.161 125.68 158.77 125.431 159.405 125.422H174.594C174.901 125.422 175.204 125.483 175.486 125.603C175.768 125.724 176.022 125.899 176.234 126.12C176.446 126.342 176.611 126.603 176.72 126.89C176.828 127.176 176.877 127.482 176.864 127.788L176.143 142.977C176.105 143.613 175.827 144.21 175.366 144.649C174.905 145.088 174.295 145.336 173.658 145.343Z" fill="#FF6C37"/>
<path opacity="0.1" d="M197.898 133.382C196.984 133.394 196.109 133.752 195.449 134.384C194.788 135.015 194.392 135.874 194.341 136.787L193.302 158.592C193.277 159.031 193.342 159.471 193.493 159.884C193.644 160.298 193.878 160.676 194.182 160.995C194.485 161.314 194.85 161.567 195.255 161.74C195.66 161.912 196.096 161.999 196.536 161.996H202.988L204.344 133.394L197.898 133.382Z" fill="#FF6C37"/>
<path opacity="0.1" d="M179.802 169.304H164.608C164.301 169.304 163.998 169.243 163.716 169.123C163.434 169.003 163.18 168.827 162.968 168.606C162.756 168.385 162.59 168.123 162.482 167.836C162.374 167.55 162.325 167.244 162.338 166.938L163.059 151.749C163.097 151.115 163.374 150.518 163.834 150.079C164.294 149.641 164.903 149.392 165.538 149.383H180.721C181.028 149.383 181.331 149.444 181.613 149.564C181.895 149.684 182.149 149.86 182.361 150.081C182.573 150.302 182.739 150.564 182.847 150.851C182.955 151.137 183.004 151.443 182.991 151.749L182.27 166.938C182.232 167.571 181.957 168.165 181.499 168.604C181.042 169.042 180.436 169.292 179.802 169.304Z" fill="#FF6C37"/>
<path opacity="0.2" d="M163.636 186.734C163.583 187.699 163.164 188.607 162.466 189.274C161.767 189.941 160.84 190.317 159.874 190.326C159.411 190.327 158.953 190.233 158.527 190.05C158.101 189.867 157.717 189.6 157.398 189.264C157.08 188.927 156.833 188.53 156.673 188.095C156.514 187.66 156.445 187.197 156.47 186.734C156.525 185.771 156.944 184.864 157.642 184.198C158.341 183.532 159.267 183.157 160.232 183.148C160.695 183.148 161.153 183.241 161.578 183.424C162.003 183.606 162.387 183.873 162.706 184.209C163.024 184.544 163.271 184.942 163.431 185.376C163.591 185.81 163.661 186.272 163.636 186.734Z" fill="white"/>
<path opacity="0.2" d="M196.822 114.505H130.164C129.87 114.508 129.578 114.45 129.307 114.336C129.036 114.222 128.791 114.053 128.587 113.84C128.383 113.628 128.226 113.376 128.123 113.1C128.021 112.824 127.976 112.53 127.991 112.236L129.983 70.3963C130.019 69.7865 130.285 69.213 130.727 68.7918C131.169 68.3705 131.755 68.1328 132.366 68.1267H199.012C199.306 68.1239 199.597 68.1815 199.868 68.2959C200.139 68.4103 200.384 68.5791 200.587 68.7918C200.79 69.0045 200.948 69.2567 201.05 69.5327C201.151 69.8086 201.195 70.1026 201.179 70.3963L199.193 112.236C199.156 112.843 198.891 113.414 198.452 113.835C198.012 114.256 197.43 114.495 196.822 114.505Z" fill="#FF9A6C"/>
<path opacity="0.6" d="M200.392 58.0952H131.942C131.763 58.0963 131.587 58.0608 131.423 57.991C131.259 57.9212 131.111 57.8185 130.988 57.6894C130.865 57.5602 130.77 57.4072 130.709 57.2399C130.647 57.0725 130.621 56.8944 130.631 56.7164L131.301 42.5884C131.322 42.219 131.483 41.8714 131.75 41.6156C132.017 41.3598 132.372 41.2147 132.742 41.2096H201.192C201.37 41.2086 201.547 41.244 201.711 41.3138C201.875 41.3836 202.023 41.4863 202.145 41.6155C202.268 41.7447 202.363 41.8976 202.425 42.065C202.486 42.2323 202.513 42.4104 202.503 42.5884L201.827 56.6994C201.813 57.0718 201.656 57.4244 201.389 57.6842C201.121 57.944 200.764 58.0911 200.392 58.0952Z" fill="#FF6C37"/>
<path d="M137.725 82.1641H134.105L132.891 107.833H136.505L137.725 82.1641Z" fill="#FF6C37"/>
<path d="M144.55 91.6111H140.936L140.164 107.833H143.778L144.55 91.6111Z" fill="#FF6C37"/>
<path d="M151.57 97.0581H147.956L147.445 107.833H151.06L151.57 97.0581Z" fill="#FF6C37"/>
<path d="M158.588 102.443H154.974L154.719 107.833H158.333L158.588 102.443Z" fill="#FF6C37"/>
<path d="M166.537 88.3373H162.923L161.992 107.833H165.612L166.537 88.3373Z" fill="#FF6C37"/>
<path d="M174.308 77.9255H170.688L169.27 107.833H172.884L174.308 77.9255Z" fill="#FF6C37"/>
<path d="M181.735 74.7822H178.115L176.543 107.833H180.163L181.735 74.7822Z" fill="#FF6C37"/>
<path d="M188.403 87.611H184.783L183.824 107.833H187.439L188.403 87.611Z" fill="#FF6C37"/>
<path d="M195.364 94.153H191.75L191.098 107.833H194.718L195.364 94.153Z" fill="#FF6C37"/>
<path d="M138.456 157.434H108.804C108.206 157.438 107.614 157.32 107.064 157.086C106.513 156.853 106.017 156.509 105.604 156.076C105.192 155.644 104.872 155.131 104.665 154.57C104.458 154.01 104.368 153.412 104.401 152.816L105.814 123.169C105.887 121.93 106.427 120.764 107.325 119.906C108.222 119.048 109.412 118.562 110.654 118.545H140.3C140.898 118.541 141.491 118.66 142.042 118.894C142.592 119.127 143.089 119.472 143.502 119.905C143.914 120.338 144.234 120.851 144.44 121.413C144.647 121.974 144.736 122.572 144.703 123.169L143.296 152.816C143.221 154.054 142.681 155.219 141.783 156.076C140.885 156.932 139.697 157.418 138.456 157.434Z" fill="#FF6C37"/>
<path opacity="0.8" d="M138.456 157.434H108.804C108.206 157.438 107.614 157.32 107.064 157.086C106.513 156.853 106.017 156.509 105.604 156.076C105.192 155.644 104.872 155.131 104.665 154.57C104.458 154.01 104.368 153.412 104.401 152.816L105.814 123.169C105.887 121.93 106.427 120.764 107.325 119.906C108.222 119.048 109.412 118.562 110.654 118.545H140.3C140.898 118.541 141.491 118.66 142.042 118.894C142.592 119.127 143.089 119.472 143.502 119.905C143.914 120.338 144.234 120.851 144.44 121.413C144.647 121.974 144.736 122.572 144.703 123.169L143.296 152.816C143.221 154.054 142.681 155.219 141.783 156.076C140.885 156.932 139.697 157.418 138.456 157.434Z" fill="white"/>
<path d="M138.308 140.254L138.523 135.714L136.413 134.319C136.213 133.557 135.933 132.82 135.578 132.117L136.146 129.961L133.099 126.761L130.926 127.232C130.239 126.846 129.515 126.533 128.764 126.296L127.47 124.117H122.931L121.433 126.296C120.648 126.533 119.888 126.847 119.164 127.232L117.036 126.761L113.677 129.961L114.046 132.111C113.628 132.814 113.278 133.555 113.002 134.324L110.766 135.714L110.551 140.254L112.656 141.649C112.856 142.412 113.136 143.152 113.49 143.856L112.922 146.007L115.975 149.213L118.148 148.742C118.834 149.125 119.556 149.438 120.304 149.678L121.598 151.851H126.137L127.641 149.678C128.425 149.437 129.184 149.124 129.91 148.742L132.038 149.213L135.397 146.007L135.028 143.856C135.445 143.155 135.795 142.416 136.072 141.649L138.308 140.254ZM124.293 143.425C123.589 143.436 122.89 143.301 122.24 143.029C121.59 142.756 121.004 142.352 120.518 141.842C120.032 141.332 119.657 140.727 119.416 140.065C119.175 139.403 119.074 138.698 119.118 137.995C119.2 136.539 119.831 135.168 120.884 134.16C121.937 133.151 123.334 132.579 124.792 132.56C125.497 132.549 126.197 132.684 126.847 132.957C127.497 133.23 128.084 133.634 128.57 134.145C129.056 134.655 129.431 135.261 129.671 135.924C129.912 136.586 130.012 137.292 129.967 137.995C129.884 139.45 129.252 140.82 128.199 141.827C127.146 142.835 125.75 143.406 124.293 143.425Z" fill="white"/>
<path d="M169.94 138.466H154.756C154.449 138.467 154.146 138.405 153.863 138.284C153.581 138.164 153.326 137.988 153.114 137.766C152.902 137.544 152.737 137.282 152.629 136.995C152.521 136.707 152.473 136.401 152.487 136.095L153.207 120.911C153.246 120.277 153.523 119.68 153.983 119.242C154.443 118.803 155.051 118.554 155.687 118.545H170.876C171.182 118.545 171.485 118.607 171.767 118.727C172.049 118.847 172.304 119.023 172.516 119.244C172.728 119.465 172.893 119.726 173.001 120.013C173.109 120.3 173.158 120.605 173.145 120.911L172.425 136.095C172.388 136.731 172.11 137.33 171.649 137.77C171.188 138.21 170.577 138.459 169.94 138.466Z" fill="#FF6C37"/>
<path opacity="0.6" d="M169.94 138.466H154.756C154.449 138.467 154.146 138.405 153.863 138.284C153.581 138.164 153.326 137.988 153.114 137.766C152.902 137.544 152.737 137.282 152.629 136.995C152.521 136.707 152.473 136.401 152.487 136.095L153.207 120.911C153.246 120.277 153.523 119.68 153.983 119.242C154.443 118.803 155.051 118.554 155.687 118.545H170.876C171.182 118.545 171.485 118.607 171.767 118.727C172.049 118.847 172.304 119.023 172.516 119.244C172.728 119.465 172.893 119.726 173.001 120.013C173.109 120.3 173.158 120.605 173.145 120.911L172.425 136.095C172.388 136.731 172.11 137.33 171.649 137.77C171.188 138.21 170.577 138.459 169.94 138.466Z" fill="white"/>
<path d="M214.628 155.108H192.818C192.378 155.111 191.942 155.024 191.536 154.851C191.131 154.679 190.766 154.426 190.463 154.107C190.16 153.788 189.925 153.41 189.774 152.996C189.623 152.583 189.558 152.143 189.584 151.704L190.622 129.893C190.674 128.981 191.07 128.122 191.73 127.49C192.39 126.858 193.266 126.5 194.179 126.489H215.984C216.425 126.485 216.862 126.571 217.267 126.743C217.673 126.915 218.039 127.169 218.343 127.488C218.647 127.807 218.882 128.185 219.033 128.599C219.185 129.013 219.25 129.453 219.224 129.893L218.186 151.698C218.136 152.611 217.74 153.472 217.08 154.105C216.419 154.738 215.543 155.096 214.628 155.108Z" fill="#FF6C37"/>
<path opacity="0.4" d="M214.628 155.108H192.818C192.378 155.111 191.942 155.024 191.536 154.851C191.131 154.679 190.766 154.426 190.463 154.107C190.16 153.788 189.925 153.41 189.774 152.996C189.623 152.583 189.558 152.143 189.584 151.704L190.622 129.893C190.674 128.981 191.07 128.122 191.73 127.49C192.39 126.858 193.266 126.5 194.179 126.489H215.984C216.425 126.485 216.862 126.571 217.267 126.743C217.673 126.915 218.039 127.169 218.343 127.488C218.647 127.807 218.882 128.185 219.033 128.599C219.185 129.013 219.25 129.453 219.224 129.893L218.186 151.698C218.136 152.611 217.74 153.472 217.08 154.105C216.419 154.738 215.543 155.096 214.628 155.108Z" fill="white"/>
<path d="M211.554 140.81L200.507 134.251L199.883 147.363L211.554 140.81Z" fill="white"/>
<path d="M176.078 162.422H160.889C160.582 162.422 160.279 162.36 159.997 162.24C159.716 162.12 159.461 161.944 159.249 161.723C159.037 161.502 158.872 161.24 158.763 160.954C158.655 160.667 158.606 160.362 158.619 160.056L159.374 144.872C159.412 144.238 159.689 143.641 160.149 143.202C160.609 142.764 161.218 142.515 161.853 142.506H177.02C177.326 142.506 177.629 142.568 177.911 142.688C178.193 142.808 178.448 142.984 178.66 143.205C178.872 143.426 179.037 143.687 179.145 143.974C179.253 144.261 179.302 144.566 179.289 144.872L178.569 160.056C178.531 160.692 178.253 161.291 177.791 161.731C177.328 162.17 176.716 162.417 176.078 162.422Z" fill="#FF6C37"/>
<path opacity="0.4" d="M176.078 162.422H160.889C160.582 162.422 160.279 162.36 159.997 162.24C159.716 162.12 159.461 161.944 159.249 161.723C159.037 161.502 158.872 161.24 158.763 160.954C158.655 160.667 158.606 160.362 158.619 160.056L159.374 144.872C159.412 144.238 159.689 143.641 160.149 143.202C160.609 142.764 161.218 142.515 161.853 142.506H177.02C177.326 142.506 177.629 142.568 177.911 142.688C178.193 142.808 178.448 142.984 178.66 143.205C178.872 143.426 179.037 143.687 179.145 143.974C179.253 144.261 179.302 144.566 179.289 144.872L178.569 160.056C178.531 160.692 178.253 161.291 177.791 161.731C177.328 162.17 176.716 162.417 176.078 162.422Z" fill="white"/>
<path d="M167.101 158.268L161.711 152.606L162.965 151.409L167.164 155.817L175.169 148.169L176.367 149.423L167.101 158.268Z" fill="white"/>
<path d="M64.5282 50.3617C64.4998 53.6015 63.9325 59.44 61.3281 61.0741C62.5529 64.0401 64.8884 66.4102 67.8361 67.6785C73.215 66.0331 71.0135 63.0599 71.0135 63.0599C67.7113 61.5166 68.3297 58.9577 69.4305 56.6597L64.5282 50.3617Z" fill="#FFB573"/>
<path d="M61.2461 67.4232C61.9838 70.107 62.7951 72.8532 63.6349 75.5256C64.0604 76.8646 64.5143 78.1866 64.9909 79.4973C65.4422 80.7651 65.9573 82.0093 66.5342 83.2251C66.7895 83.766 67.0775 84.2909 67.3967 84.7968C67.4704 84.8989 67.5442 85.018 67.6066 85.0918L67.7087 85.2223C67.7371 85.2677 67.8165 85.3585 67.8676 85.4209L68.5769 86.2606C69.496 87.3954 70.4152 88.5302 71.3003 89.665C73.0819 91.9346 74.8068 94.2665 76.4466 96.6666L74.4153 98.4652C72.2365 96.5531 70.1315 94.5729 68.0719 92.5587L65.0023 89.5402L64.2477 88.7855C64.1796 88.7174 64.1342 88.6777 64.0491 88.5813L63.7994 88.3032C63.6178 88.1103 63.493 87.9288 63.3455 87.7359C62.8422 87.0595 62.3871 86.3485 61.9838 85.6081C60.5839 82.9306 59.4055 80.1429 58.4603 77.2731C57.4843 74.4759 56.6559 71.6957 55.9297 68.8077L61.2461 67.4232Z" fill="#FFB573"/>
<path d="M54.1346 63.2585C51.865 66.5721 54.7587 74.7482 54.7587 74.7482H64.932C64.932 74.7482 65.0285 67.9849 63.61 65.3749C61.783 62.0046 55.5984 61.1024 54.1346 63.2585Z" fill="#263238"/>
<path d="M79.5307 97.3532L75.5987 96.2184L73.5391 97.0354C73.5391 99.2653 76.6143 100.865 76.6143 100.865L78.9917 103.05C79.2374 103.276 79.5491 103.417 79.881 103.453C80.2129 103.489 80.5475 103.417 80.8357 103.248L82.3166 102.38C82.5057 102.27 82.6696 102.122 82.7977 101.945C82.9258 101.768 83.0152 101.566 83.0602 101.352C83.1051 101.138 83.1045 100.917 83.0586 100.703C83.0126 100.489 82.9222 100.287 82.7932 100.111L82.1521 99.2142C81.5101 98.3191 80.5875 97.664 79.5307 97.3532Z" fill="#FFB573"/>
<path d="M116.612 74.4986L111.375 69.2616C110.827 68.7117 110.52 67.967 110.52 67.1906C110.52 66.4142 110.827 65.6694 111.375 65.1196C111.927 64.5742 112.671 64.2683 113.446 64.2683C114.222 64.2683 114.966 64.5742 115.517 65.1196L120.754 70.3566C121.3 70.9079 121.606 71.6521 121.606 72.4276C121.606 73.2031 121.3 73.9473 120.754 74.4986C120.205 75.0467 119.46 75.3545 118.683 75.3545C117.907 75.3545 117.162 75.0467 116.612 74.4986Z" fill="#263238"/>
<path d="M116.533 69.7788L116.095 69.3414C115.165 68.4108 113.656 68.4108 112.725 69.3414L109.351 72.7156C108.42 73.6462 108.42 75.1551 109.351 76.0857L109.788 76.523C110.719 77.4537 112.228 77.4537 113.158 76.523L116.533 73.1489C117.463 72.2183 117.463 70.7094 116.533 69.7788Z" fill="#263238"/>
<path d="M64.1349 126.631L59.2497 121.745C59.11 121.608 58.9991 121.445 58.9233 121.265C58.8476 121.085 58.8086 120.891 58.8086 120.696C58.8086 120.5 58.8476 120.307 58.9233 120.126C58.9991 119.946 59.11 119.783 59.2497 119.646L108.982 71.6616C109.257 71.393 109.627 71.2427 110.011 71.2427C110.396 71.2427 110.766 71.393 111.041 71.6616L114.179 74.7993C114.449 75.0741 114.6 75.4439 114.6 75.8291C114.6 76.2143 114.449 76.5841 114.179 76.8589L66.1946 126.591C65.925 126.866 65.5581 127.025 65.1729 127.032C64.7876 127.039 64.4149 126.895 64.1349 126.631Z" fill="#263238"/>
<path d="M115.206 62.7422C114.023 61.0605 113.008 59.2664 112.176 57.386L113.52 29.0164C113.52 28.8235 113.521 28.6363 113.56 28.449C113.889 25.1914 115.351 22.1527 117.692 19.8631C120.032 17.5735 123.102 16.1783 126.366 15.921C126.667 15.921 126.968 15.8813 127.268 15.8813H156.722C158.475 16.8237 160.138 17.9232 161.692 19.1665C165.221 21.9952 168.114 25.5362 170.182 29.5583C172.251 33.5805 173.448 37.9935 173.696 42.5095C173.944 47.0254 173.237 51.543 171.621 55.7673C170.005 59.9917 167.517 63.828 164.319 67.026C163.825 67.5196 163.332 67.9849 162.816 68.4331C159.417 71.4206 155.426 73.6577 151.105 74.9985C146.783 76.3393 142.227 76.7536 137.734 76.2145C133.241 75.6753 128.913 74.1947 125.031 71.8694C121.149 69.5441 117.801 66.4263 115.206 62.7195V62.7422Z" fill="#FF6C37"/>
<path d="M118.821 67.0487C117.493 65.7212 116.284 64.2802 115.207 62.7422L116.807 29.0391C116.954 26.3953 118.101 23.9062 120.016 22.077C121.93 20.2478 124.469 19.2154 127.117 19.1892H161.693C165.222 22.018 168.115 25.5589 170.184 29.5811C172.252 33.6032 173.449 38.0162 173.697 42.5322C173.945 47.0482 173.238 51.5657 171.622 55.79C170.007 60.0144 167.519 63.8507 164.32 67.0487C163.827 67.5424 163.333 68.0076 162.817 68.4559C156.678 73.8572 148.713 76.7179 140.541 76.4566C132.368 76.1952 124.602 72.8313 118.821 67.0487Z" fill="white"/>
<path opacity="0.6" d="M164.319 67.0488C163.825 67.5424 163.331 68.0077 162.815 68.4559H126.502C126.179 68.4587 125.86 68.3953 125.562 68.2697C125.265 68.144 124.997 67.9588 124.774 67.7253C124.551 67.4919 124.379 67.2152 124.267 66.9125C124.155 66.6097 124.107 66.2873 124.125 65.9651L125.328 40.3643C125.365 39.6968 125.655 39.0686 126.139 38.6071C126.622 38.1455 127.263 37.8853 127.932 37.8792H173.091C174.157 43.0874 173.914 48.479 172.383 53.5701C170.852 58.6612 168.081 63.2926 164.319 67.0488Z" fill="#FF6C37"/>
<path opacity="0.5" d="M118.822 67.0544C114.321 62.5547 111.256 56.8214 110.013 50.5795C108.771 44.3376 109.408 37.8675 111.843 31.9874C114.278 26.1074 118.402 21.0816 123.694 17.5456C128.986 14.0097 135.207 12.1223 141.571 12.1223C147.936 12.1223 154.157 14.0097 159.449 17.5456C164.74 21.0816 168.864 26.1074 171.3 31.9874C173.735 37.8675 174.371 44.3376 173.129 50.5795C171.887 56.8214 168.822 62.5547 164.321 67.0544C158.286 73.0856 150.103 76.4736 141.571 76.4736C133.039 76.4736 124.857 73.0856 118.822 67.0544Z" fill="white"/>
<path d="M154.045 48.8297C149.381 53.4937 144.07 53.1192 140.564 49.607C137.057 46.0949 136.677 40.8125 141.341 36.1258C146.005 31.4392 152.632 30.5257 156.139 34.0321C159.645 37.5386 158.709 44.1658 154.045 48.8297Z" fill="#263238"/>
<path d="M152.752 37.4082C150.902 35.5528 150.528 32.9258 151.918 31.5357C153.308 30.1456 155.935 30.52 157.791 32.3697C159.646 34.2194 160.009 36.8465 158.619 38.2366C157.229 39.6267 154.602 39.2749 152.752 37.4082Z" fill="#263238"/>
<path d="M151.27 39.6153C151.159 39.6127 151.05 39.5847 150.952 39.5336C150.853 39.4824 150.768 39.4095 150.702 39.3202L144.83 31.1271C144.727 30.9822 144.682 30.804 144.705 30.6278L145.301 25.578C145.308 25.4811 145.335 25.3868 145.38 25.3006C145.425 25.2144 145.487 25.1382 145.562 25.0765C145.637 25.0148 145.724 24.969 145.817 24.9417C145.91 24.9144 146.008 24.9063 146.104 24.9178C146.201 24.9293 146.294 24.9601 146.378 25.0085C146.462 25.057 146.536 25.1219 146.594 25.1995C146.653 25.2771 146.695 25.3657 146.719 25.46C146.742 25.5543 146.746 25.6523 146.73 25.7482L146.163 30.52L151.871 38.4635C151.982 38.6186 152.027 38.8114 151.996 38.9996C151.966 39.1879 151.861 39.3562 151.706 39.4678C151.581 39.5642 151.428 39.6162 151.27 39.6153Z" fill="#263238"/>
<path d="M159.463 45.4878C159.313 45.4891 159.166 45.4435 159.043 45.3573L150.861 39.4848C150.776 39.434 150.701 39.3659 150.643 39.2848C150.585 39.2037 150.544 39.1114 150.523 39.0137C150.503 38.916 150.503 38.8152 150.523 38.7174C150.543 38.6197 150.584 38.5273 150.642 38.4461C150.7 38.3648 150.774 38.2965 150.86 38.2454C150.946 38.1944 151.041 38.1617 151.14 38.1495C151.239 38.1372 151.34 38.1457 151.435 38.1744C151.531 38.2031 151.62 38.2513 151.696 38.316L159.639 44.0239L164.411 43.4566C164.596 43.4423 164.78 43.5002 164.924 43.6182C165.067 43.7362 165.16 43.9052 165.182 44.0898C165.204 44.2744 165.153 44.4604 165.041 44.6088C164.93 44.7573 164.765 44.8567 164.581 44.8864L159.531 45.4538L159.463 45.4878Z" fill="#263238"/>
<path d="M146.584 44.302C146.436 44.3033 146.291 44.2576 146.17 44.1715L138.226 38.4579L133.455 39.0252C133.266 39.0478 133.076 38.9944 132.926 38.8769C132.777 38.7593 132.68 38.5871 132.657 38.3983C132.635 38.2094 132.688 38.0193 132.806 37.8698C132.923 37.7203 133.096 37.6237 133.284 37.6011L138.334 36.9997C138.513 36.9797 138.693 37.0261 138.839 37.1302L147.027 43.0027C147.151 43.0905 147.245 43.216 147.293 43.3607C147.341 43.5054 147.342 43.6618 147.295 43.8069C147.248 43.9521 147.156 44.0785 147.032 44.1676C146.908 44.2566 146.759 44.3037 146.607 44.302H146.584Z" fill="#263238"/>
<path d="M151.859 57.5392H151.774C151.68 57.5287 151.59 57.4997 151.507 57.454C151.425 57.4083 151.352 57.3468 151.294 57.273C151.235 57.1992 151.192 57.1145 151.166 57.0239C151.141 56.9333 151.133 56.8384 151.144 56.7449L151.712 51.9731L145.998 44.0296C145.889 43.8734 145.846 43.6805 145.877 43.4926C145.909 43.3048 146.014 43.1369 146.168 43.0253C146.244 42.9705 146.331 42.9312 146.422 42.9098C146.514 42.8884 146.609 42.8852 146.702 42.9005C146.794 42.9158 146.883 42.9492 146.963 42.9989C147.043 43.0485 147.112 43.1134 147.167 43.1899L153.039 51.3774C153.146 51.5227 153.193 51.7035 153.17 51.8823L152.568 56.9321C152.542 57.1015 152.457 57.256 152.326 57.3674C152.196 57.4789 152.03 57.5398 151.859 57.5392Z" fill="#263238"/>
<path d="M159.885 52.915C159.79 52.9152 159.696 52.8969 159.609 52.8608C159.521 52.8248 159.441 52.7719 159.374 52.705L137.467 30.798C137.333 30.663 137.258 30.4805 137.258 30.2902C137.258 30.0999 137.333 29.9174 137.467 29.7824C137.534 29.7153 137.613 29.6621 137.7 29.6257C137.787 29.5894 137.881 29.5707 137.975 29.5707C138.069 29.5707 138.163 29.5894 138.25 29.6257C138.337 29.6621 138.416 29.7153 138.483 29.7824L160.39 51.6894C160.457 51.7558 160.51 51.8349 160.546 51.9221C160.583 52.0093 160.602 52.1028 160.602 52.1972C160.602 52.2916 160.583 52.3851 160.546 52.4723C160.51 52.5595 160.457 52.6385 160.39 52.705C160.324 52.7722 160.246 52.8254 160.159 52.8615C160.072 52.8976 159.979 52.9158 159.885 52.915Z" fill="#263238"/>
<path d="M156.937 33.9528C156.837 33.9532 156.739 33.9339 156.647 33.896C156.473 33.82 156.336 33.6784 156.266 33.5021C156.196 33.3257 156.198 33.1288 156.273 32.9542C156.686 31.8976 156.736 30.7335 156.415 29.6454C156.093 28.5574 155.418 27.6074 154.497 26.9455C154.373 26.822 154.298 26.6578 154.287 26.4835C154.275 26.3091 154.327 26.1364 154.433 25.9976C154.54 25.8588 154.693 25.7633 154.864 25.7289C155.035 25.6945 155.213 25.7236 155.365 25.8107C156.544 26.6649 157.404 27.8889 157.808 29.2881C158.213 30.6873 158.137 32.1814 157.595 33.5329C157.537 33.6587 157.444 33.7652 157.327 33.8397C157.211 33.9142 157.075 33.9534 156.937 33.9528Z" fill="#263238"/>
<path d="M163.799 35.9556C163.689 35.9552 163.581 35.9293 163.482 35.8801C163.384 35.8309 163.298 35.7597 163.232 35.6719C162.57 34.7504 161.62 34.0757 160.532 33.7541C159.444 33.4325 158.28 33.4824 157.223 33.896C157.049 33.9712 156.851 33.974 156.675 33.9038C156.498 33.8336 156.356 33.6961 156.281 33.5215C156.206 33.3469 156.203 33.1496 156.273 32.973C156.344 32.7964 156.481 32.6549 156.656 32.5796C158.007 32.0365 159.5 31.9604 160.899 32.3633C162.299 32.7663 163.523 33.6253 164.378 34.8038C164.435 34.8789 164.476 34.9646 164.5 35.0558C164.524 35.1471 164.529 35.2421 164.516 35.3355C164.503 35.4288 164.471 35.5186 164.423 35.5997C164.375 35.6808 164.312 35.7516 164.236 35.8081C164.112 35.907 163.958 35.9592 163.799 35.9556Z" fill="#263238"/>
<path d="M167.082 18.792C162.037 13.7472 155.609 10.3118 148.611 8.9201C141.614 7.52843 134.36 8.24303 127.769 10.9735C121.177 13.7041 115.543 18.3279 111.579 24.2603C107.616 30.1926 105.5 37.1672 105.5 44.302C105.5 51.4367 107.616 58.4113 111.579 64.3437C115.543 70.2761 121.177 74.8999 127.769 77.6304C134.36 80.3609 141.614 81.0755 148.611 79.6838C155.609 78.2922 162.037 74.8567 167.082 69.8119C170.433 66.462 173.09 62.485 174.903 58.108C176.716 53.731 177.65 49.0397 177.65 44.302C177.65 39.5643 176.716 34.873 174.903 30.496C173.09 26.1189 170.433 22.1419 167.082 18.792ZM120.063 65.8118C115.807 61.5573 112.909 56.1364 111.734 50.2346C110.559 44.3327 111.161 38.2152 113.464 32.6555C115.766 27.0959 119.666 22.3439 124.669 19.0005C129.672 15.6572 135.555 13.8727 141.572 13.8727C147.59 13.8727 153.472 15.6572 158.476 19.0005C163.479 22.3439 167.378 27.0959 169.681 32.6555C171.983 38.2152 172.585 44.3327 171.411 50.2346C170.236 56.1364 167.338 61.5573 163.082 65.8118C160.258 68.6367 156.904 70.8776 153.214 72.4064C149.523 73.9352 145.567 74.7221 141.572 74.7221C137.578 74.7221 133.622 73.9352 129.931 72.4064C126.241 70.8776 122.887 68.6367 120.063 65.8118Z" fill="#FF6C37"/>
<path d="M79.6856 68.8077C79.2204 72.1666 77.2799 79.8661 70.6074 97.4269L49.2734 93.041C51.1685 85.4096 52.2579 80.3371 52.1104 66.2771C52.0999 65.4983 52.2534 64.7261 52.5607 64.0104C52.8681 63.2948 53.3225 62.6518 53.8944 62.1232C54.4664 61.5945 55.1431 61.1921 55.8807 60.9419C56.6183 60.6918 57.4003 60.5996 58.1758 60.6713C59.1858 60.7621 60.2581 60.8869 61.3248 61.0571C64.5967 61.4863 67.8335 62.15 71.0102 63.043C73.4443 63.7806 76.0316 64.7451 77.7225 65.4374C78.3808 65.6969 78.9325 66.1705 79.2887 66.782C79.6448 67.3934 79.7847 68.107 79.6856 68.8077Z" fill="#263238"/>
<path d="M80.5031 70.1694C80.6789 71.429 80.8946 72.8248 81.1499 74.1412C81.4052 75.4575 81.6889 76.7966 82.0237 78.1129C82.3531 79.3923 82.7489 80.6536 83.2095 81.8917C83.6238 83.0622 84.1522 84.1892 84.7869 85.2564C85.0743 85.7277 85.3987 86.1755 85.7571 86.5954L86.0181 86.8621C86.1089 86.9586 86.1486 86.9813 86.211 87.0493C86.3743 87.1791 86.5469 87.2967 86.7273 87.4011C87.7683 87.9219 88.8845 88.2761 90.0352 88.4508C92.7003 88.8668 95.395 89.0641 98.0922 89.0409L98.4894 91.7246C95.5832 92.4834 92.5836 92.8234 89.5813 92.7346C87.894 92.6962 86.2268 92.36 84.6564 91.7417C84.1946 91.5424 83.7521 91.3012 83.3343 91.0211C83.1165 90.871 82.9063 90.71 82.7045 90.5388L82.1882 90.0735C81.5726 89.4552 81.009 88.7872 80.5031 88.0763C78.8085 85.4472 77.5444 82.5646 76.7583 79.5371C76.3497 78.0959 75.9809 76.649 75.7143 75.1908C75.4476 73.7327 75.1923 72.3085 75.0391 70.7482L80.5031 70.1694Z" fill="#FFB573"/>
<path d="M78.1566 65.7211C82.656 68.7283 82.6617 76.1554 82.6617 76.1554L73.4529 81.8861C73.4529 81.8861 70.8997 74.9639 71.6146 69.7212C72.0288 66.663 75.3991 63.8657 78.1566 65.7211Z" fill="#263238"/>
<path d="M96.8789 89.0408L102.678 88.8025L99.7953 93.2225C99.7953 93.2225 96.7768 92.8196 96.1016 90.7486L96.8789 89.0408Z" fill="#FFB573"/>
<path d="M104.717 92.1275L104.149 92.9275C103.962 93.1957 103.703 93.4056 103.402 93.5331C103.101 93.6606 102.77 93.7004 102.447 93.6481L99.7578 93.2225L102.669 88.7855L104.138 89.6253C104.348 89.7441 104.532 89.9054 104.676 90.0989C104.821 90.2923 104.923 90.5138 104.978 90.7491C105.032 90.9844 105.037 91.2284 104.992 91.4657C104.947 91.703 104.854 91.9284 104.717 92.1275Z" fill="#FFB573"/>
<path d="M76.8183 46.7928C76.8183 47.2241 77.0906 47.5645 77.3857 47.5475C77.6807 47.5305 77.8736 47.1673 77.8509 46.7361C77.8282 46.3049 77.5842 45.9701 77.2835 45.9815C76.9828 45.9928 76.7956 46.3616 76.8183 46.7928Z" fill="#263238"/>
<path d="M77.1641 46.0155L78.1854 45.6581C78.1854 45.6581 77.6974 46.4865 77.1641 46.0155Z" fill="#263238"/>
<path d="M77.2383 47.7347C77.6784 48.7005 78.2513 49.6 78.9405 50.4072C78.729 50.5775 78.4826 50.6993 78.2189 50.764C77.9552 50.8287 77.6805 50.8347 77.4142 50.7816L77.2383 47.7347Z" fill="#ED893E"/>
<path d="M77.1494 50.1235C75.8274 50.1235 74.7891 48.2738 74.7891 45.9077C74.7891 43.5417 75.8274 41.692 77.1494 41.692C78.4714 41.692 79.5041 43.5474 79.5041 45.9077C79.5041 48.2681 78.4714 50.1235 77.1494 50.1235ZM77.1494 41.9984C76.0146 41.9984 75.0955 43.7516 75.0955 45.9077C75.0955 48.0638 76.0146 49.8227 77.1494 49.8227C78.2842 49.8227 79.2034 48.0638 79.2034 45.9077C79.2034 43.7516 78.2842 41.9984 77.1494 41.9984Z" fill="#407BFF"/>
<path d="M75.1725 45.7432C75.2267 45.7498 75.2817 45.7383 75.3288 45.7106C75.376 45.683 75.4127 45.6406 75.4335 45.59C75.9044 44.5176 77.391 44.2056 77.4023 44.2056C77.4685 44.1919 77.5265 44.1526 77.5637 44.0962C77.6009 44.0399 77.6143 43.971 77.6009 43.9048C77.5872 43.8387 77.5479 43.7807 77.4916 43.7434C77.4352 43.7062 77.3664 43.6928 77.3002 43.7063C77.2321 43.7063 75.5469 44.0751 74.9682 45.4084C74.9542 45.4389 74.9464 45.4719 74.9454 45.5054C74.9444 45.5389 74.9502 45.5723 74.9624 45.6035C74.9745 45.6348 74.9929 45.6632 75.0163 45.6872C75.0397 45.7112 75.0678 45.7303 75.0987 45.7432C75.123 45.7481 75.1481 45.7481 75.1725 45.7432Z" fill="#263238"/>
<path d="M62.1153 45.9757C62.7224 51.2638 62.8642 53.5164 65.6842 56.098C69.9283 59.9847 76.2944 58.0839 77.2817 52.722C78.1725 47.8992 77.0377 40.0578 71.7326 38.2195C70.5649 37.8085 69.3116 37.7028 68.0917 37.9123C66.8717 38.1219 65.7255 38.6398 64.762 39.4169C63.7984 40.194 63.0495 41.2045 62.5863 42.3524C62.1231 43.5003 61.9609 44.7476 62.1153 45.9757Z" fill="#FFB573"/>
<path d="M74.9442 47.9787C77.401 44.2055 78.6436 39.5302 76.2775 36.7727C73.9115 34.0152 70.3369 36.7727 70.3369 36.7727C70.3369 36.7727 60.782 33.3059 57.6841 37.3401C53.196 43.1445 59.0685 46.8212 57.6273 48.4383C56.1862 50.0553 54.223 52.3136 55.9989 55.6782C57.9508 59.3492 72.8278 56.5179 74.9442 60.745C81.1798 60.3762 77.9343 50.2312 74.9442 47.9787Z" fill="#263238"/>
<path d="M56.9481 49.9702C56.9113 49.9702 56.8755 49.9583 56.846 49.9362C56.8176 49.9075 56.8016 49.8687 56.8016 49.8284C56.8016 49.788 56.8176 49.7492 56.846 49.7205C57.2942 49.2212 56.9141 48.4496 56.3807 47.3772C55.4162 45.414 53.9523 42.4466 56.8971 38.6337C56.9257 38.6053 56.9645 38.5894 57.0049 38.5894C57.0452 38.5894 57.084 38.6053 57.1127 38.6337C57.1286 38.6454 57.1419 38.6602 57.152 38.6772C57.1621 38.6942 57.1686 38.7131 57.1713 38.7327C57.1739 38.7522 57.1726 38.7722 57.1674 38.7912C57.1622 38.8103 57.1533 38.8281 57.141 38.8436C54.3041 42.509 55.6658 45.2608 56.6531 47.2751C57.2205 48.4099 57.6574 49.3007 57.0729 49.9475C57.0553 49.9607 57.0349 49.9696 57.0132 49.9736C56.9915 49.9775 56.9693 49.9764 56.9481 49.9702Z" fill="#263238"/>
<path d="M77.1336 60.1039C76.834 60.0998 76.5355 60.0655 76.2428 60.0017C76.223 59.9976 76.2043 59.9897 76.1876 59.9783C76.1709 59.967 76.1566 59.9525 76.1456 59.9356C76.1345 59.9188 76.1269 59.8999 76.1231 59.8801C76.1193 59.8603 76.1195 59.8399 76.1236 59.8202C76.1277 59.8004 76.1356 59.7817 76.147 59.765C76.1583 59.7483 76.1729 59.734 76.1897 59.723C76.2066 59.7119 76.2254 59.7043 76.2453 59.7005C76.2651 59.6967 76.2854 59.6969 76.3052 59.701C77.6329 59.9904 78.4953 59.6386 78.8698 58.6627C79.8911 55.9959 76.9917 49.5333 74.6711 48.217C74.64 48.1953 74.618 48.1629 74.6094 48.126C74.6009 48.0891 74.6063 48.0503 74.6246 48.0172C74.643 47.984 74.6729 47.9588 74.7088 47.9465C74.7446 47.9341 74.7837 47.9355 74.8186 47.9503C77.2811 49.3461 80.2372 55.9392 79.1535 58.7705C79.01 59.1837 78.7344 59.5382 78.3693 59.7792C78.0042 60.0202 77.57 60.1343 77.1336 60.1039Z" fill="#263238"/>
<path d="M73.695 47.6212C73.6606 47.6208 73.6274 47.6088 73.6006 47.5872C73.5738 47.5656 73.5551 47.5356 73.5475 47.5021C73.5062 47.351 73.5006 47.1924 73.5311 47.0388C73.5616 46.8852 73.6275 46.7407 73.7234 46.6169C74.3419 45.7999 76.3277 45.3346 79.6356 45.2325C79.6552 45.2309 79.6748 45.2334 79.6934 45.2399C79.7119 45.2463 79.7289 45.2565 79.7433 45.2698C79.7577 45.2832 79.7692 45.2993 79.777 45.3173C79.7849 45.3353 79.7889 45.3547 79.7888 45.3744C79.7904 45.3947 79.7877 45.4151 79.781 45.4343C79.7743 45.4535 79.7637 45.4712 79.7498 45.4861C79.736 45.501 79.7192 45.5129 79.7005 45.521C79.6818 45.5291 79.6617 45.5333 79.6413 45.5332C75.6695 45.6581 74.3475 46.2935 73.9674 46.7985C73.8977 46.8858 73.85 46.9886 73.8282 47.0982C73.8065 47.2078 73.8114 47.321 73.8425 47.4283C73.8476 47.4481 73.8487 47.4686 73.8457 47.4888C73.8427 47.509 73.8357 47.5284 73.8252 47.5458C73.8146 47.5632 73.8007 47.5784 73.7842 47.5904C73.7677 47.6023 73.7489 47.6109 73.7291 47.6156L73.695 47.6212Z" fill="#407BFF"/>
<path d="M74.2959 48.7844C74.5588 49.2032 74.9068 49.562 75.3174 49.8376C75.7279 50.1133 76.1918 50.2996 76.6789 50.3844C77.6265 50.532 77.3655 49.0908 76.9115 47.7461C76.503 46.5375 75.5101 44.9999 74.642 45.4765C73.7739 45.9531 73.6944 47.6212 74.2959 48.7844Z" fill="#FFB573"/>
<path d="M23.58 187.767C24.0321 187.858 24.5019 187.788 24.9077 187.568C24.9985 187.505 25.0724 187.42 25.1228 187.321C25.1732 187.222 25.1987 187.112 25.197 187.001C25.2024 186.931 25.1889 186.861 25.158 186.798C25.127 186.735 25.0798 186.682 25.0211 186.644C24.4027 186.218 22.1842 187.092 21.9118 187.211C21.8864 187.219 21.8642 187.235 21.8485 187.256C21.8327 187.278 21.8242 187.303 21.8242 187.33C21.8242 187.357 21.8327 187.383 21.8485 187.404C21.8642 187.425 21.8864 187.441 21.9118 187.449C22.4565 187.608 23.0151 187.715 23.58 187.767ZM24.6467 186.763C24.7273 186.763 24.8062 186.786 24.8736 186.831C24.8982 186.846 24.9181 186.868 24.9311 186.894C24.9442 186.92 24.9498 186.949 24.9474 186.978C24.9499 187.053 24.9342 187.127 24.9015 187.194C24.8689 187.262 24.8204 187.32 24.7601 187.364C24.4084 187.625 23.5232 187.585 22.3601 187.273C23.0857 186.964 23.8592 186.781 24.6467 186.734V186.763Z" fill="#407BFF"/>
<path d="M21.9428 187.387H21.9939C22.6634 187.16 24.0365 186.139 23.9968 185.526C23.9968 185.378 23.906 185.191 23.5599 185.117C23.4361 185.092 23.3083 185.091 23.1844 185.117C23.0605 185.142 22.9431 185.193 22.8393 185.265C22.1074 185.758 21.8407 187.183 21.8294 187.245C21.827 187.262 21.828 187.28 21.8325 187.296C21.8369 187.313 21.8446 187.329 21.8552 187.343C21.8658 187.356 21.8789 187.368 21.894 187.376C21.909 187.385 21.9257 187.39 21.9428 187.393V187.387ZM23.4294 185.35H23.5089C23.7358 185.395 23.7415 185.492 23.7415 185.52C23.7415 185.889 22.8223 186.712 22.1358 187.041C22.2537 186.452 22.5487 185.914 22.9812 185.497C23.107 185.394 23.2668 185.341 23.4294 185.35Z" fill="#407BFF"/>
<path d="M15.7422 188.408L21.0019 189.429L26.8177 176.465L21.558 175.443L15.7422 188.408Z" fill="#FFB573"/>
<path d="M22.353 187.132L16.6791 185.123C16.6347 185.103 16.5866 185.094 16.5381 185.095C16.4897 185.096 16.442 185.108 16.3987 185.13C16.3553 185.151 16.3173 185.182 16.2873 185.22C16.2573 185.258 16.2361 185.303 16.2252 185.35L14.523 189.787C14.4702 190.041 14.509 190.306 14.6326 190.534C14.7561 190.763 14.9565 190.94 15.1982 191.035C17.1841 191.699 19.2494 192.023 21.8253 192.652C23.8889 193.197 26.0073 193.507 28.1404 193.577C30.3419 193.577 30.0695 191.347 29.0879 191.149C24.702 190.247 24.3105 189.447 23.1473 187.744C22.9525 187.463 22.6749 187.249 22.353 187.132Z" fill="#263238"/>
<g opacity="0.2">
<path d="M26.8141 176.47L23.8183 183.154L18.5586 182.127L21.5544 175.449L26.8141 176.47Z" fill="black"/>
</g>
<path d="M49.0285 92.8367C41.5787 99.7702 41.0567 122.687 35.6664 138.228C26.9853 153.854 19.0078 179.109 19.0078 179.109L26.2477 181.1C26.2477 181.1 37.3516 159.097 44.4497 143.652C52.2797 126.631 62.6743 95.6793 62.6743 95.6793L49.0285 92.8367Z" fill="#407BFF"/>
<path opacity="0.2" d="M54.2552 104.65C54.1147 108.857 54.3807 113.067 55.0495 117.223C56.4169 113.518 57.6822 109.983 58.7773 106.902L54.2552 104.65Z" fill="black"/>
<path d="M72.561 187.852C73.0206 187.892 73.4803 187.776 73.866 187.523C73.9514 187.446 74.0168 187.35 74.0563 187.242C74.0959 187.134 74.1085 187.018 74.093 186.905C74.0907 186.834 74.0695 186.765 74.0316 186.705C73.9936 186.645 73.9404 186.596 73.8774 186.564C73.2192 186.207 71.0801 187.296 70.8418 187.421C70.8196 187.434 70.8015 187.454 70.7895 187.477C70.7775 187.5 70.7721 187.525 70.7737 187.551C70.777 187.578 70.7886 187.603 70.807 187.622C70.8254 187.642 70.8495 187.655 70.8759 187.659C71.4303 187.776 71.9945 187.841 72.561 187.852ZM73.5199 186.717C73.6017 186.715 73.683 186.731 73.7582 186.763C73.783 186.777 73.8035 186.798 73.8174 186.823C73.8314 186.848 73.8384 186.876 73.8376 186.905C73.8499 186.978 73.8433 187.054 73.8185 187.124C73.7937 187.195 73.7515 187.258 73.6958 187.307C73.3667 187.602 72.4873 187.654 71.2957 187.455C71.9844 187.095 72.7286 186.854 73.4972 186.74L73.5199 186.717Z" fill="#407BFF"/>
<path d="M70.8602 187.659C70.8766 187.665 70.8947 187.665 70.9112 187.659C71.5524 187.376 72.8177 186.218 72.7212 185.611C72.6928 185.463 72.5907 185.288 72.2389 185.248C72.1137 185.236 71.9874 185.249 71.8674 185.287C71.7475 185.325 71.6365 185.387 71.541 185.469C70.8658 186.037 70.741 187.472 70.7353 187.534C70.7326 187.556 70.7359 187.578 70.7449 187.598C70.7539 187.618 70.7682 187.636 70.7864 187.648C70.8092 187.659 70.835 187.663 70.8602 187.659ZM72.1368 185.486H72.2162C72.4489 185.486 72.4602 185.6 72.4659 185.634C72.5283 185.997 71.6715 186.905 71.019 187.302C71.0684 186.692 71.3064 186.113 71.6999 185.645C71.8287 185.543 71.9897 185.491 72.1538 185.497L72.1368 185.486Z" fill="#407BFF"/>
<path d="M65.2266 188.839L70.5317 189.639L73.0906 177.463L67.7912 176.663L65.2266 188.839Z" fill="#FFB573"/>
<path d="M71.4263 187.478H65.3949C65.2909 187.475 65.1897 187.512 65.1111 187.58C65.0325 187.648 64.982 187.743 64.9693 187.846L64.2828 192.613C64.2692 192.733 64.2812 192.855 64.3181 192.97C64.355 193.085 64.4159 193.192 64.4969 193.282C64.5779 193.372 64.677 193.444 64.7878 193.493C64.8985 193.542 65.0184 193.567 65.1396 193.566C67.2389 193.532 68.2545 193.407 70.9043 193.407C72.5327 193.407 76.2604 193.577 78.513 193.577C80.7655 193.577 80.8847 191.347 79.9485 191.149C75.7441 190.247 73.7072 188.998 72.3171 187.807C72.068 187.596 71.7526 187.479 71.4263 187.478Z" fill="#263238"/>
<g opacity="0.2">
<path d="M73.0881 177.469L71.7717 183.744L66.4609 182.944L67.783 176.669L73.0881 177.469Z" fill="black"/>
</g>
<path d="M70.5919 97.4269C70.5919 97.4269 84.4759 124.287 82.9383 140.549C81.3383 157.491 72.7252 182.195 72.7252 182.195L66.2627 181.026C66.2627 181.026 71.1876 149.769 74.2061 138.194C66.7449 121.002 45.0025 114.488 54.9148 94.1927C57.8709 94.7147 70.5919 97.4269 70.5919 97.4269Z" fill="#407BFF"/>
<path d="M65.2539 181.77L73.6683 183.041L74.5818 179.795L65.3106 179.063L65.2539 181.77Z" fill="#263238"/>
<path d="M18.0469 180.607L26.2116 182.99L28.033 179.818L18.688 178.002L18.0469 180.607Z" fill="#263238"/>
<path d="M49.1941 91.7245L48.2522 93.5232C48.1501 93.6537 48.2919 93.8409 48.5416 93.892L70.4996 98.4028C70.6925 98.4425 70.8741 98.4028 70.9081 98.2609L71.4755 96.3942C71.5153 96.2637 71.3734 96.1162 71.1635 96.0764L49.5572 91.6338C49.4938 91.6189 49.4278 91.6193 49.3646 91.6351C49.3014 91.6509 49.243 91.6816 49.1941 91.7245Z" fill="white"/>
<path d="M51.6011 94.7147L51.0337 94.5956C50.9145 94.5956 50.8408 94.4934 50.8635 94.4254L51.6465 91.9969C51.6465 91.9288 51.7826 91.8891 51.8961 91.9118L52.4635 92.031C52.577 92.031 52.6564 92.1331 52.6337 92.2012L51.8507 94.6296C51.828 94.7147 51.7146 94.7601 51.6011 94.7147Z" fill="#407BFF"/>
<path d="M68.8352 98.278L68.2678 98.1589C68.1544 98.1589 68.0749 98.0567 68.0976 97.9886L68.8806 95.5602C68.8806 95.4864 69.0168 95.4524 69.1303 95.4751L69.6977 95.5942C69.8168 95.5942 69.8906 95.6964 69.8679 95.7645L69.0849 98.1929C69.0622 98.261 68.9487 98.3007 68.8352 98.278Z" fill="#407BFF"/>
<path d="M60.2165 96.5077L59.6491 96.3885C59.5356 96.3885 59.4619 96.2864 59.4846 96.2183L60.2619 93.7899C60.2619 93.7218 60.3981 93.6821 60.5172 93.7048L61.0846 93.8239C61.1981 93.8239 61.2719 93.9261 61.2492 93.9941L60.4718 96.4169C60.4491 96.4907 60.3357 96.5304 60.2165 96.5077Z" fill="#407BFF"/>
</g>
<defs>
<clipPath id="clip0_1202_19767">
<rect width="226.889" height="200" fill="white"/>
</clipPath>
</defs>
</svg>
