<svg width="294" height="200" viewBox="0 0 294 200" fill="none" xmlns="http://www.w3.org/2000/svg">
<g clip-path="url(#clip0_1204_20098)">
<path d="M202.805 45.3357C202.805 45.3357 205.356 43.9144 206.713 45.0439C208.07 46.1734 208.652 46.9264 210.655 46.499C212.658 46.0717 214.013 46.8755 212.726 47.4666C211.438 48.0577 208.396 49.0818 207.007 47.8544C205.618 46.6271 201.612 45.8308 202.805 45.3357Z" fill="#B8C1C9"/>
<path d="M213.079 49.9233C213.079 49.9233 214.888 50.2452 215.308 49.5016C215.728 48.758 214.889 49.4696 214.194 49.0818C213.499 48.694 212.174 49.0818 213.079 49.9233Z" fill="#B8C1C9"/>
<path d="M147.894 200C226.572 200 290.354 193.58 290.354 185.661C290.354 177.742 226.572 171.322 147.894 171.322C69.2152 171.322 5.43359 177.742 5.43359 185.661C5.43359 193.58 69.2152 200 147.894 200Z" fill="#EAEAEA"/>
<g opacity="0.6">
<path d="M218.842 118.877C235.139 102.219 258.009 82.5448 267.962 91.3642C279.955 101.998 250.831 115.377 228.929 129.078C221.073 133.993 208.457 129.494 218.842 118.877Z" fill="#D5D6DA"/>
</g>
<path d="M198.703 125.802C198.703 125.802 281.888 93.6119 292.866 119.342C303.845 145.071 230.654 127.013 206.837 137.244L198.703 125.802Z" fill="#B8C1C9"/>
<path d="M203.2 132.235C219.517 124.87 239.641 122.54 253.65 121.881C268.836 121.168 280.301 122.212 280.413 122.222L280.479 121.51C280.366 121.499 268.853 120.45 253.616 121.166C239.545 121.826 219.325 124.178 202.906 131.581L203.2 132.235Z" fill="white"/>
<path d="M255.866 178.807C245.426 174.135 236.9 188.871 228.495 178.796C221.388 170.27 221.247 168.932 216.403 169.223C214.743 169.331 213.106 169.675 211.543 170.244C209.66 170.914 206.488 171.599 203.512 170.123C185.326 161.108 180.813 121.098 207.268 120.324C209.179 120.268 211.221 121.201 213.393 122.333C225.219 128.475 224.944 135.776 242.493 129.417C260.041 123.058 258.208 149.324 265.785 153.923C273.362 158.522 281.202 161.005 281.202 172.61C281.202 184.215 266.304 183.487 255.866 178.807Z" fill="#D5D6DA"/>
<g opacity="0.5">
<path d="M199.66 141.427L199.69 140.674C200.022 140.687 233.387 142.436 280.906 175.688L280.473 176.303C233.138 143.177 199.99 141.44 199.66 141.427Z" fill="white"/>
<path d="M241.984 144.757C239.9 134.682 242.052 129.482 242.146 129.266L242.837 129.561C242.816 129.612 240.691 134.787 242.722 144.604L241.984 144.757Z" fill="white"/>
<path d="M238.242 152.08C238.754 147.75 242.15 143.48 248.063 139.715C250.848 137.96 253.799 136.483 256.873 135.305L257.127 136.013C256.958 136.073 240.168 142.225 238.99 152.17L238.242 152.08Z" fill="white"/>
<path d="M251.312 160.063C251.029 158.911 250.935 158.22 250.922 158.181L251.675 158.077C251.696 158.222 253.881 172.76 266.486 181.452L266.059 182.069C255.895 175.072 252.362 164.361 251.312 160.063Z" fill="white"/>
<path d="M247.065 178.536C246.56 173.325 248.064 169.598 249.414 167.388C250.884 164.982 252.464 163.826 252.53 163.777L252.966 164.393C252.904 164.436 246.882 168.932 247.808 178.468L247.065 178.536Z" fill="white"/>
</g>
<g opacity="0.6">
<path d="M273.2 146.916C275.224 149.151 275.117 150.457 274.241 151.246C273.366 152.034 272.054 152.016 270.03 149.781C266.344 145.711 266.148 142.31 266.148 142.31C266.148 142.31 269.462 142.786 273.2 146.916Z" fill="#D5D6DA"/>
</g>
<g opacity="0.6">
<path d="M275.015 137.799C277.848 137.895 278.661 138.825 278.622 139.936C278.582 141.046 277.71 141.918 274.877 141.818C269.716 141.643 267.289 139.546 267.289 139.546C267.289 139.546 269.778 137.622 275.015 137.799Z" fill="#D5D6DA"/>
</g>
<path d="M58.7684 10.86C58.7684 10.86 61.4039 5.79239 68.066 6.42678C74.7281 7.06117 73.9356 12.142 77.1019 11.6657C80.2682 11.1894 84.7165 11.6657 85.669 14.8396C86.6216 18.0134 90.9042 16.2684 91.0642 18.966C91.2242 21.6635 86.1453 23.5705 80.2739 21.1892C74.4024 18.8078 71.5486 23.0378 63.2977 22.2716C55.0468 21.5054 54.0246 20.5529 49.1415 21.0292C44.2583 21.5054 44.375 18.1621 46.5963 15.9465C48.8177 13.7308 57.8159 13.9285 58.7684 10.86Z" fill="#EAEAEA"/>
<path d="M109.587 13.4183C109.587 13.4183 110.686 11.3043 113.467 11.5678C116.247 11.8314 115.914 13.9529 117.241 13.7534C118.568 13.5539 120.419 13.7534 120.818 15.0711C121.217 16.3889 123.003 15.6679 123.077 16.7936C123.15 17.9193 121.025 18.7137 118.576 17.7198C116.127 16.7258 114.933 18.4935 111.49 18.1735C108.047 17.8534 107.622 17.4562 105.583 17.6539C103.544 17.8516 103.593 16.4566 104.521 15.5305C105.449 14.6043 109.19 14.6928 109.587 13.4183Z" fill="#EAEAEA"/>
<g opacity="0.6">
<path d="M92.1754 27.5369C92.1754 27.5369 93.5459 24.9014 97.0134 25.2308C100.481 25.5603 100.069 28.2051 101.72 27.9567C103.371 27.7082 105.673 27.9567 106.177 29.6095C106.682 31.2623 108.903 30.3625 108.986 31.7574C109.069 33.1523 106.426 34.1519 103.371 32.9132C100.315 31.6745 98.8281 33.877 94.5342 33.478C90.2402 33.0789 89.7094 32.5838 87.168 32.8304C84.6267 33.077 84.6851 31.3376 85.8503 30.1817C87.0156 29.0259 91.6803 29.1389 92.1754 27.5369Z" fill="#EAEAEA"/>
</g>
<path d="M52.0277 44.5488C50.5048 46.3278 49.4845 46.373 48.788 45.7762C48.0915 45.1795 47.9785 44.1648 49.5015 42.3878C52.2781 39.1461 54.8835 38.6605 54.8835 38.6605C54.8835 38.6605 54.8458 41.2583 52.0277 44.5488Z" fill="#D5D6DA"/>
<path d="M56.8757 58.9384C56.0078 61.1164 55.0591 61.4873 54.2063 61.1484C53.3536 60.8096 52.9187 59.8853 53.7846 57.7092C55.3621 53.7428 57.6701 52.4382 57.6701 52.4382C57.6701 52.4382 58.4758 54.9137 56.8757 58.9384Z" fill="#D5D6DA"/>
<path d="M68.8564 96.6087L68.4272 96.716C68.4102 96.6501 66.7028 89.9805 61.2493 81.2308C56.2174 73.1568 46.8766 61.6078 30.9414 52.4289L31.1635 52.0524C47.1797 61.2765 56.577 72.8895 61.6295 81.0105C67.1283 89.8186 68.8564 96.5409 68.8564 96.6087Z" fill="#D5D6DA"/>
<path d="M48.1161 64.7233L47.6851 64.6179C51.4801 48.9651 41.1679 35.0988 41.0625 34.9594L41.4164 34.6921C41.5218 34.8314 51.962 48.8615 48.1161 64.7233Z" fill="#D5D6DA"/>
<path d="M39.4576 60.1037C36.793 60.9838 33.941 61.1327 31.1992 60.5348L31.3122 60.1074C31.363 60.1206 36.4287 61.4252 41.1801 58.8688L41.391 59.2584C40.7704 59.592 40.1239 59.8747 39.4576 60.1037Z" fill="#D5D6DA"/>
<path d="M64.9034 87.3996C55.9522 89.3875 47.5243 87.5879 39.8551 82.0647C39.6689 81.9213 39.4747 81.7887 39.2734 81.6675C39.2902 81.6709 39.3075 81.6709 39.3243 81.6675V81.2251C39.456 81.2251 39.5652 81.2985 40.1187 81.6995C47.6825 87.1587 55.9898 88.9207 64.8111 86.9704L64.9034 87.3996Z" fill="#D5D6DA"/>
<path d="M51.1633 87.0833L50.7209 87.1134C50.3162 81.1065 43.8706 74.29 43.8047 74.2222L44.1266 73.9154C45.3464 75.2431 46.4675 76.6581 47.4811 78.1491C49.0474 80.4344 50.9524 83.853 51.1633 87.0833Z" fill="#D5D6DA"/>
<path d="M29.8721 50.1963C32.7786 51.4331 33.3528 52.4873 32.9932 53.3325C32.6337 54.1777 31.4872 54.494 28.5694 53.2572C23.2721 50.9982 21.3633 48.3835 21.3633 48.3835C21.3633 48.3835 24.4957 47.911 29.8721 50.1963Z" fill="#D5D6DA"/>
<path d="M31.8586 58.786C35.0042 59.0891 35.8683 59.9155 35.7798 60.8342C35.6914 61.7528 34.6861 62.4004 31.5405 62.0973C25.8102 61.5457 23.1992 59.6237 23.1992 59.6237C23.1992 59.6237 26.0436 58.2213 31.8586 58.786Z" fill="#D5D6DA"/>
<path d="M44.5898 72.4283C46.284 74.0472 46.2708 75.0638 45.6364 75.7321C45.002 76.4003 43.9836 76.4512 42.2894 74.8322C39.2059 71.8805 38.8633 69.2526 38.8633 69.2526C38.8633 69.2526 41.4592 69.4333 44.5898 72.4283Z" fill="#D5D6DA"/>
<path d="M41.4479 51.9376C42.696 53.9198 42.4362 54.9062 41.6588 55.3957C40.8813 55.8851 39.8817 55.6931 38.6317 53.7014C36.3577 50.089 36.6664 47.4573 36.6664 47.4573C36.6664 47.4573 39.14 48.2724 41.4479 51.9376Z" fill="#D5D6DA"/>
<path d="M55.9489 82.9513C56.5908 85.2103 56.0656 86.08 55.1808 86.3398C54.2961 86.5996 53.3906 86.1252 52.7506 83.87C51.5834 79.7643 52.6188 77.3246 52.6188 77.3246C52.6188 77.3246 54.7648 78.7854 55.9489 82.9513Z" fill="#D5D6DA"/>
<path d="M41.6201 81.0406C43.6212 82.2605 43.8301 83.2582 43.352 84.0432C42.8738 84.8282 41.8911 85.1011 39.8901 83.8813C36.2437 81.6581 35.3477 79.1751 35.3477 79.1751C35.3477 79.1751 37.9229 78.7873 41.6201 81.0406Z" fill="#D5D6DA"/>
<path d="M41.7166 32.6892C43.4108 35.3548 43.2903 36.5483 42.5166 37.0415C41.7429 37.5347 40.6078 37.1413 38.9117 34.4757C35.8188 29.6189 35.7266 26.381 35.7266 26.381C35.7266 26.381 38.5804 27.7628 41.7166 32.6892Z" fill="#D5D6DA"/>
<path d="M102.93 154.542C102.93 154.542 57.7768 80.1314 38.0466 93.1412C18.3163 106.151 79.3481 136.299 91.8064 158.377L102.93 154.542Z" fill="#D5D6DA"/>
<path d="M81.9192 141.269C81.9192 141.269 29.9516 86.1459 12.1207 101.836C-5.71007 117.527 56.999 130.495 71.4941 147.055L81.9192 141.269Z" fill="#EAEAEA"/>
<path d="M76.116 144.557C66.3064 132.939 51.7379 123.784 41.2431 118.15C29.8654 112.043 20.6977 108.647 20.6055 108.613L20.8163 108.049C20.9085 108.082 30.1157 111.494 41.5236 117.621C52.0654 123.28 66.7036 132.477 76.5734 144.164L76.116 144.557Z" fill="white"/>
<path d="M19.8149 162.669C31.5107 164.943 29.9483 182.608 43.1463 179.057C56.3443 175.507 55.228 174.673 61.7301 180.302C61.7301 180.302 64.3336 185.819 69.6365 186.634C90.532 189.848 118.349 158.456 96.2698 141.948C94.6754 140.757 92.3825 140.333 89.8468 139.99C76.0896 138.14 71.9501 144.525 60.8077 128.596C49.6653 112.666 35.4902 136.143 26.2793 135.521C17.0683 134.9 8.90405 132.321 1.94642 142.21C-5.01122 152.098 8.11716 160.404 19.8149 162.669Z" fill="#B8C1C9"/>
<path d="M90.1042 164.489L90.5277 163.83C90.2378 163.642 60.7545 145.141 0.347656 145.005V145.79C60.5267 145.924 89.8143 164.303 90.1042 164.489Z" fill="white"/>
<path d="M52.0423 141.971C59.8527 134.629 61.1347 128.914 61.1855 128.675L60.4175 128.511C60.4062 128.568 59.1166 134.251 51.5039 141.399L52.0423 141.971Z" fill="white"/>
<path d="M50.8413 150.451C52.9949 146.46 52.6635 140.783 49.8812 134.032C48.5599 130.868 46.93 127.841 45.015 124.996L44.375 125.446C44.4823 125.599 55.1051 140.903 50.1523 150.08L50.8413 150.451Z" fill="white"/>
<path d="M34.9228 149.427C35.8528 148.614 36.3554 148.087 36.378 148.062L35.8132 147.528C35.7078 147.639 25.1377 158.713 9.1875 158.572V159.355C22.026 159.47 31.4534 152.458 34.9228 149.427Z" fill="white"/>
<path d="M27.4777 167.71C31.028 163.568 31.9806 159.497 32.1537 156.805C32.342 153.874 31.6888 151.942 31.6624 151.861L30.9207 152.117C30.9452 152.191 33.3849 159.628 26.8828 167.2L27.4777 167.71Z" fill="white"/>
<path d="M176.171 164.619V140.561H127.642V164.619C127.642 170.871 123.482 175.938 118.35 175.938H116.395V179.044H187.419V175.938H185.463C180.331 175.938 176.171 170.871 176.171 164.619Z" fill="#455A64"/>
<path d="M187.021 179.044H116.791C116.379 179.044 115.984 178.881 115.693 178.589C115.402 178.298 115.238 177.903 115.238 177.491C115.238 177.079 115.402 176.684 115.693 176.393C115.984 176.102 116.379 175.938 116.791 175.938H187.021C187.433 175.938 187.828 176.102 188.119 176.393C188.41 176.684 188.574 177.079 188.574 177.491C188.574 177.903 188.41 178.298 188.119 178.589C187.828 178.881 187.433 179.044 187.021 179.044Z" fill="#455A64"/>
<path d="M234.566 155.331L70.4652 153.448C68.7771 153.428 67.1649 152.744 65.978 151.543C64.7912 150.343 64.1254 148.723 64.125 147.035V46.8756C64.1253 45.1917 64.7878 43.5755 65.9694 42.3759C67.1511 41.1763 68.7571 40.4895 70.4407 40.4638L232.426 37.9827C234.121 37.957 235.758 38.6036 236.978 39.7811C238.197 40.9587 238.901 42.5713 238.936 44.2664L241.051 148.787C241.069 149.646 240.914 150.5 240.595 151.298C240.276 152.096 239.799 152.822 239.195 153.432C238.59 154.043 237.868 154.525 237.073 154.851C236.278 155.177 235.426 155.34 234.566 155.331Z" fill="#455A64"/>
<path d="M229.008 48.0728H73.9237C72.0242 48.0728 70.4844 49.6126 70.4844 51.512V132.027C70.4844 133.927 72.0242 135.467 73.9237 135.467H229.008C230.907 135.467 232.447 133.927 232.447 132.027V51.512C232.447 49.6126 230.907 48.0728 229.008 48.0728Z" fill="#FFE2D7"/>
<path d="M180.788 14.9337C180.61 14.9336 180.436 14.874 180.295 14.7642C180.21 14.6993 180.138 14.6182 180.084 14.5254C180.03 14.4327 179.995 14.3303 179.981 14.224L179.83 13.0945C179.814 12.9655 179.761 12.8439 179.678 12.7439C179.595 12.6438 179.485 12.5695 179.361 12.5297L179.158 12.4639C179.032 12.4207 178.897 12.4156 178.768 12.449C178.64 12.4825 178.524 12.5532 178.435 12.6521L177.609 13.5501C177.462 13.7092 177.258 13.8036 177.041 13.8124C176.825 13.8213 176.614 13.7438 176.455 13.5971L175.487 12.7048C175.408 12.6329 175.344 12.5458 175.299 12.4489C175.254 12.3519 175.229 12.2469 175.225 12.1401C175.221 12.0329 175.237 11.9258 175.274 11.825C175.311 11.7242 175.367 11.6317 175.44 11.5527L176.152 10.7828C176.248 10.6778 176.309 10.5452 176.326 10.4038C176.343 10.2624 176.316 10.1191 176.248 9.99405V9.98276C176.181 9.86237 176.08 9.76489 175.957 9.70309C175.834 9.64129 175.695 9.61804 175.559 9.63638L174.585 9.76815C174.371 9.79703 174.153 9.73948 173.981 9.60815C173.895 9.5435 173.824 9.46242 173.77 9.36966C173.716 9.27689 173.681 9.1743 173.667 9.06788L173.492 7.7652C173.463 7.55053 173.52 7.33316 173.652 7.16089C173.783 6.98862 173.977 6.87556 174.192 6.84655L175.167 6.71478C175.307 6.69544 175.437 6.63373 175.54 6.53799C175.643 6.44226 175.714 6.31713 175.744 6.17953C175.774 6.04192 175.761 5.89849 175.706 5.76864C175.652 5.63878 175.559 5.52879 175.44 5.45352L174.551 4.89818C174.46 4.84131 174.381 4.76691 174.318 4.67927C174.255 4.59162 174.211 4.49246 174.187 4.38748C174.163 4.28251 174.159 4.17379 174.177 4.0676C174.195 3.9614 174.234 3.85982 174.292 3.7687L174.988 2.65239C175.045 2.56154 175.12 2.48284 175.207 2.42082C175.295 2.35879 175.394 2.31467 175.498 2.29096C175.603 2.2663 175.711 2.26275 175.817 2.28053C175.922 2.29831 176.023 2.33706 176.114 2.39449L177.149 3.04018C177.262 3.11267 177.394 3.14995 177.528 3.14727C177.662 3.14458 177.792 3.10207 177.902 3.02512L178.079 2.90653C178.188 2.83627 178.274 2.73635 178.328 2.61859C178.382 2.50083 178.401 2.37016 178.382 2.24201L178.23 1.11253C178.201 0.89815 178.259 0.681272 178.391 0.509426C178.522 0.337579 178.716 0.224786 178.93 0.195762L180.233 0.0188084C180.339 0.00451161 180.447 0.0113369 180.551 0.0388982C180.655 0.0664595 180.752 0.114213 180.838 0.179429C180.923 0.244645 180.995 0.326044 181.049 0.418967C181.102 0.51189 181.137 0.614512 181.151 0.720969L181.264 1.56432C181.284 1.70886 181.35 1.8433 181.451 1.94796C181.553 2.05263 181.685 2.12203 181.829 2.146C182.076 2.18747 182.319 2.24533 182.558 2.3192C182.682 2.35838 182.814 2.36148 182.94 2.32815C183.066 2.29481 183.179 2.22642 183.267 2.13095L184.002 1.33466C184.149 1.17619 184.353 1.08248 184.569 1.07401C184.785 1.06555 184.996 1.14301 185.156 1.28948L186.121 2.17989C186.28 2.32672 186.375 2.53075 186.384 2.74713C186.392 2.96351 186.315 3.17454 186.168 3.33385L185.649 3.89859C185.549 4.00585 185.487 4.14259 185.472 4.28824C185.456 4.43389 185.489 4.58056 185.564 4.70617C185.596 4.76077 185.628 4.81536 185.658 4.87183C185.725 4.99072 185.825 5.08682 185.947 5.1476C186.069 5.20838 186.207 5.23102 186.341 5.21256L187.03 5.1222C187.245 5.09384 187.462 5.15162 187.634 5.28288C187.805 5.41415 187.918 5.60819 187.947 5.82248L188.124 7.12516C188.139 7.23152 188.132 7.33972 188.105 7.44349C188.077 7.54727 188.029 7.64458 187.964 7.72981C187.899 7.81503 187.817 7.88649 187.724 7.94006C187.631 7.99363 187.528 8.02825 187.422 8.04192L186.735 8.13416C186.6 8.15302 186.474 8.21193 186.374 8.30325C186.273 8.39456 186.202 8.51405 186.17 8.6462C186.155 8.70832 186.14 8.77044 186.123 8.83444C186.085 8.97504 186.093 9.12434 186.146 9.26004C186.199 9.39575 186.295 9.51059 186.419 9.58744L187.068 9.99217C187.16 10.049 187.239 10.1234 187.302 10.2111C187.364 10.2987 187.409 10.3979 187.433 10.5029C187.457 10.6078 187.46 10.7166 187.442 10.8228C187.424 10.9289 187.385 11.0305 187.328 11.1217L186.631 12.2361C186.574 12.3276 186.5 12.4069 186.412 12.4695C186.325 12.5321 186.226 12.5768 186.121 12.6009C186.016 12.6251 185.907 12.6282 185.801 12.6102C185.695 12.5922 185.593 12.5533 185.502 12.4959L184.585 11.9311C184.475 11.8619 184.348 11.8252 184.218 11.8252C184.088 11.8252 183.961 11.8619 183.851 11.9311C183.641 12.0663 183.422 12.1865 183.196 12.2907C183.062 12.351 182.95 12.453 182.879 12.5815C182.807 12.7101 182.779 12.8583 182.799 13.0041L182.912 13.8475C182.927 13.9538 182.921 14.0621 182.893 14.1659C182.866 14.2697 182.817 14.3669 182.752 14.4518C182.687 14.5371 182.605 14.6088 182.513 14.6628C182.42 14.7167 182.318 14.7519 182.211 14.7661L180.909 14.9412C180.868 14.9409 180.828 14.9384 180.788 14.9337ZM178.936 12.2888C179.027 12.2887 179.117 12.3046 179.203 12.3359L179.391 12.4017C179.54 12.4484 179.672 12.5364 179.772 12.6555C179.872 12.7745 179.936 12.9196 179.956 13.0738L180.109 14.2033C180.12 14.292 180.149 14.3776 180.194 14.4549C180.239 14.5322 180.299 14.5997 180.37 14.6532C180.441 14.7077 180.522 14.7477 180.608 14.7706C180.694 14.7935 180.784 14.7991 180.873 14.7868L182.177 14.6118C182.266 14.5999 182.351 14.5706 182.428 14.5257C182.506 14.4808 182.573 14.4211 182.627 14.3501C182.682 14.2794 182.722 14.1985 182.745 14.1122C182.768 14.0259 182.773 13.9359 182.761 13.8475L182.648 13.0023C182.624 12.8279 182.658 12.6506 182.743 12.4968C182.829 12.343 182.962 12.2212 183.122 12.1495C183.343 12.0477 183.556 11.9307 183.761 11.7993C183.891 11.7146 184.043 11.6687 184.199 11.667C184.354 11.6653 184.507 11.708 184.64 11.7899L185.556 12.3547C185.71 12.4502 185.895 12.481 186.072 12.4405C186.248 12.3999 186.401 12.2912 186.498 12.1382L187.194 11.0238C187.29 10.8701 187.321 10.6849 187.28 10.5085C187.239 10.3322 187.131 10.179 186.978 10.0825L186.328 9.6778C186.179 9.58555 186.064 9.4474 186 9.28411C185.936 9.12082 185.927 8.94122 185.974 8.77233L186.02 8.58408C186.058 8.42449 186.144 8.28028 186.266 8.17041C186.388 8.06054 186.54 7.99015 186.703 7.9685L187.392 7.87627C187.571 7.85194 187.733 7.75759 187.842 7.61393C187.952 7.47028 188 7.28906 187.975 7.1101L187.8 5.80742C187.776 5.62908 187.681 5.46773 187.538 5.35845C187.395 5.24918 187.215 5.20081 187.036 5.22386L186.347 5.31609C186.185 5.33809 186.019 5.3105 185.873 5.23693C185.727 5.16336 185.606 5.04726 185.526 4.90383C185.496 4.84924 185.466 4.79465 185.434 4.74194C185.344 4.59124 185.306 4.41538 185.324 4.24085C185.343 4.06633 185.418 3.9026 185.538 3.77435L186.055 3.2096C186.177 3.07649 186.241 2.90068 186.234 2.72049C186.226 2.5403 186.148 2.37034 186.016 2.24766L185.05 1.35725C184.917 1.23486 184.742 1.17009 184.561 1.17715C184.381 1.18421 184.211 1.26252 184.088 1.3949L183.354 2.1893C183.248 2.30321 183.112 2.38473 182.962 2.42439C182.812 2.46405 182.653 2.46021 182.505 2.41332C182.273 2.34004 182.036 2.28342 181.795 2.2439C181.621 2.21666 181.461 2.13395 181.338 2.00811C181.215 1.88226 181.135 1.72 181.112 1.54549L180.999 0.702148C180.975 0.523214 180.88 0.36125 180.737 0.251832C180.593 0.142413 180.412 0.0944857 180.233 0.118579L178.93 0.293648C178.751 0.317974 178.589 0.412326 178.48 0.555982C178.37 0.699638 178.323 0.880852 178.347 1.05982L178.499 2.1893C178.52 2.34347 178.497 2.50042 178.432 2.64178C178.367 2.78314 178.263 2.90305 178.132 2.98747L177.961 3.10231C177.83 3.19342 177.676 3.24383 177.516 3.24718C177.357 3.25053 177.201 3.20667 177.067 3.12113L176.031 2.47544C175.956 2.42732 175.871 2.39486 175.783 2.37998C175.695 2.36511 175.604 2.36812 175.517 2.38885C175.341 2.42974 175.188 2.53869 175.092 2.69192L174.395 3.80635C174.3 3.95956 174.269 4.14424 174.309 4.32027C174.329 4.40741 174.366 4.48971 174.418 4.56242C174.47 4.63512 174.536 4.69678 174.612 4.74383L175.5 5.30857C175.64 5.39975 175.749 5.53129 175.813 5.68579C175.876 5.84029 175.891 6.01045 175.856 6.17373C175.821 6.33701 175.737 6.48572 175.615 6.60015C175.493 6.71459 175.34 6.78936 175.175 6.81455L174.198 6.94444C174.019 6.96876 173.857 7.06312 173.747 7.20678C173.638 7.35043 173.59 7.53164 173.614 7.71061L173.789 9.01516C173.813 9.1941 173.908 9.35606 174.051 9.46548C174.195 9.5749 174.376 9.62282 174.555 9.59873L175.53 9.46696C175.694 9.4453 175.86 9.47342 176.007 9.54765C176.154 9.62187 176.275 9.73874 176.355 9.88299L176.3 9.92628L176.361 9.8924C176.441 10.0419 176.473 10.2127 176.453 10.3813C176.432 10.5499 176.36 10.7079 176.246 10.8336L175.534 11.6036C175.41 11.7356 175.342 11.9115 175.346 12.093C175.35 12.1827 175.371 12.2708 175.409 12.3522C175.447 12.4336 175.5 12.5067 175.566 12.5674L176.534 13.4578C176.667 13.58 176.843 13.6444 177.023 13.637C177.203 13.6296 177.373 13.5509 177.496 13.4183L178.322 12.5203C178.403 12.4414 178.499 12.3801 178.605 12.3403C178.71 12.3004 178.823 12.2829 178.936 12.2888Z" fill="#131F2D"/>
<path d="M181.02 10.476C180.275 10.444 179.563 10.1569 179.004 9.66276C178.296 9.07919 177.812 8.29044 177.714 7.55251C177.673 7.16994 177.717 6.78296 177.844 6.4196C177.97 6.05624 178.176 5.7256 178.447 5.45166C178.982 4.86556 179.704 4.48252 180.489 4.36736C181.214 4.26947 181.95 4.55561 182.56 5.16176C183.129 5.73149 183.498 6.46963 183.614 7.26637C183.722 8.00266 183.545 8.7523 183.121 9.36345C182.91 9.66161 182.64 9.91279 182.327 10.1011C182.015 10.2893 181.666 10.4106 181.304 10.4572C181.21 10.47 181.115 10.4763 181.02 10.476ZM180.77 4.48407C180.681 4.48415 180.593 4.48981 180.506 4.50101C179.752 4.61266 179.06 4.98103 178.546 5.54391C178.289 5.80328 178.094 6.11657 177.973 6.46105C177.852 6.80553 177.809 7.17257 177.848 7.53557C177.942 8.23961 178.413 8.99448 179.09 9.55923C179.768 10.124 180.596 10.4158 181.289 10.3235C181.633 10.2797 181.963 10.1647 182.26 9.98574C182.557 9.80681 182.813 9.56793 183.012 9.28439C183.417 8.70192 183.585 7.98718 183.482 7.2852C183.367 6.5189 183.012 5.8089 182.468 5.25777C182.249 5.02338 181.987 4.83438 181.696 4.70161C181.404 4.56884 181.09 4.49491 180.77 4.48407Z" fill="#131F2D"/>
<path d="M168.385 20.7599L170.424 20.7054C170.609 20.7005 170.792 20.6591 170.961 20.5836C171.131 20.5081 171.284 20.4 171.411 20.2653C171.539 20.1307 171.639 19.9723 171.705 19.7991C171.772 19.6259 171.803 19.4413 171.798 19.2558L171.732 16.7747C171.722 16.4004 171.563 16.0455 171.292 15.7878C171.02 15.5302 170.657 15.3909 170.283 15.4005L168.839 15.4401C168.536 15.4476 168.238 15.3576 167.99 15.1834C167.742 15.0092 167.557 14.76 167.461 14.4725C167.423 14.3595 167.384 14.2466 167.342 14.1355C167.245 13.8684 167.232 13.5782 167.303 13.3032C167.375 13.0282 167.528 12.7815 167.743 12.5956L168.728 11.7335C169.01 11.4864 169.182 11.1375 169.207 10.7634C169.232 10.3893 169.108 10.0205 168.861 9.73804L167.226 7.87251C167.104 7.73279 166.955 7.61847 166.789 7.53612C166.623 7.45376 166.442 7.40498 166.257 7.39257C166.072 7.38015 165.887 7.40435 165.711 7.46377C165.536 7.52319 165.373 7.61666 165.234 7.73885L164.246 8.60103C164.033 8.78848 163.768 8.90685 163.486 8.94047C163.204 8.97408 162.919 8.92136 162.668 8.78927C162.565 8.73468 162.459 8.68009 162.352 8.62926C162.079 8.497 161.855 8.2801 161.715 8.01081C161.575 7.74152 161.526 7.43421 161.574 7.13458L161.804 5.70954C161.863 5.33962 161.773 4.96135 161.554 4.6578C161.334 4.35426 161.003 4.15026 160.633 4.09061L158.186 3.69529C157.816 3.63614 157.438 3.72623 157.134 3.94577C156.831 4.16531 156.627 4.49635 156.567 4.86619L156.241 6.88232C156.197 7.14697 156.078 7.3936 155.9 7.59354C155.721 7.79348 155.489 7.93852 155.23 8.01181C154.78 8.14041 154.34 8.30082 153.913 8.49184C153.636 8.61806 153.326 8.65199 153.028 8.58861C152.731 8.52523 152.461 8.36789 152.26 8.13982L151.202 6.93127C151.08 6.79149 150.931 6.67713 150.765 6.59475C150.599 6.51237 150.418 6.46359 150.233 6.45117C150.048 6.43876 149.862 6.46296 149.686 6.52241C149.51 6.58185 149.348 6.67537 149.208 6.79761L147.341 8.4316C147.059 8.67864 146.887 9.02733 146.863 9.40111C146.838 9.77489 146.963 10.1432 147.209 10.4251L148.632 12.0516C148.812 12.2537 148.929 12.503 148.971 12.7699C149.013 13.0368 148.978 13.3101 148.87 13.5576C148.815 13.6781 148.764 13.8004 148.715 13.9228C148.613 14.1785 148.438 14.3985 148.212 14.5555C147.985 14.7125 147.718 14.7995 147.443 14.8057L145.14 14.8659C144.766 14.8763 144.41 15.035 144.153 15.3071C143.895 15.5793 143.756 15.9426 143.766 16.3173L143.832 18.7984C143.842 19.1727 144.001 19.5277 144.273 19.7853C144.544 20.0429 144.907 20.1822 145.282 20.1726L147.26 20.1199C147.556 20.1124 147.847 20.198 148.092 20.3645C148.336 20.5309 148.523 20.77 148.625 21.048V21.0668C148.723 21.3344 148.738 21.6256 148.668 21.902C148.597 22.1783 148.444 22.4266 148.229 22.6142L146.831 23.8378C146.691 23.9601 146.577 24.1088 146.495 24.2753C146.412 24.4418 146.364 24.6229 146.352 24.8082C146.339 24.9935 146.364 25.1794 146.423 25.3553C146.483 25.5312 146.577 25.6936 146.699 25.8332L148.335 27.7006C148.457 27.8403 148.606 27.9545 148.772 28.0367C148.938 28.1189 149.119 28.1675 149.304 28.1798C149.49 28.192 149.675 28.1676 149.851 28.108C150.027 28.0484 150.189 27.9548 150.328 27.8324L151.725 26.6088C151.94 26.4203 152.206 26.3014 152.489 26.2677C152.773 26.2341 153.06 26.2874 153.312 26.4206L153.331 26.4318C153.593 26.569 153.806 26.7851 153.939 27.0496C154.071 27.3141 154.118 27.6136 154.071 27.9058L153.758 29.858C153.729 30.0413 153.735 30.2287 153.778 30.4095C153.821 30.5902 153.899 30.7608 154.007 30.9113C154.116 31.0619 154.254 31.1895 154.412 31.2869C154.57 31.3843 154.746 31.4495 154.929 31.4788L157.376 31.8722C157.746 31.9314 158.125 31.8413 158.428 31.6217C158.732 31.4022 158.936 31.0711 158.995 30.7013L159.361 28.4273C159.403 28.1554 159.525 27.902 159.71 27.6985C159.896 27.4951 160.137 27.3505 160.403 27.2827C160.532 27.2507 160.66 27.2168 160.78 27.1792C161.039 27.1048 161.313 27.106 161.571 27.1828C161.829 27.2595 162.059 27.4085 162.235 27.6122L163.658 29.2386C163.78 29.3783 163.929 29.4925 164.095 29.5747C164.262 29.6569 164.443 29.7055 164.628 29.7177C164.813 29.73 164.999 29.7056 165.174 29.646C165.35 29.5864 165.512 29.4927 165.652 29.3704L167.521 27.7364C167.661 27.6142 167.775 27.4657 167.857 27.2994C167.939 27.133 167.988 26.9521 168 26.7669C168.013 26.5818 167.988 26.3961 167.929 26.2203C167.869 26.0446 167.775 25.8824 167.653 25.7429L166.595 24.5324C166.395 24.3028 166.275 24.0151 166.251 23.7118C166.227 23.4084 166.302 23.1055 166.463 22.8476C166.707 22.4522 166.924 22.0401 167.111 21.6146C167.219 21.3647 167.396 21.1512 167.622 20.9996C167.848 20.848 168.113 20.7648 168.385 20.7599ZM161.652 21.9177C159.483 23.8171 155.05 23.2768 153.152 21.1082C151.255 18.9396 152.013 15.2725 154.182 13.39C156.351 11.5076 160.048 12.509 161.945 14.6777C163.843 16.8463 163.82 20.0182 161.652 21.9158V21.9177Z" fill="#FF6C37"/>
<path d="M157.833 33.4478C157.756 33.4481 157.678 33.4418 157.602 33.429L155.154 33.0356C154.965 33.0058 154.784 32.939 154.621 32.8389C154.458 32.7389 154.316 32.6076 154.204 32.4526C154.092 32.2976 154.012 32.1219 153.968 31.9357C153.924 31.7496 153.917 31.5565 153.948 31.3677L154.262 29.4156C154.308 29.1317 154.263 28.8408 154.134 28.5838C154.006 28.3267 153.799 28.1166 153.545 27.983H153.526C153.28 27.8554 153.002 27.8051 152.727 27.8387C152.452 27.8723 152.194 27.9882 151.986 28.1712L150.589 29.3949C150.446 29.5208 150.279 29.6173 150.098 29.6786C149.917 29.74 149.725 29.7651 149.535 29.7525C149.344 29.74 149.157 29.6899 148.986 29.6053C148.815 29.5207 148.662 29.4031 148.536 29.2593L146.9 27.39C146.774 27.2463 146.677 27.0791 146.616 26.8979C146.554 26.7168 146.529 26.5254 146.542 26.3346C146.555 26.1438 146.605 25.9574 146.69 25.7861C146.775 25.6148 146.893 25.4619 147.037 25.3362L148.436 24.1126C148.643 23.9286 148.79 23.6865 148.857 23.4178C148.924 23.1491 148.908 22.8664 148.812 22.6066V22.5878C148.715 22.3186 148.535 22.0868 148.299 21.9253C148.062 21.7638 147.781 21.6808 147.495 21.688L145.516 21.7407C145.13 21.7503 144.756 21.6065 144.477 21.3407C144.197 21.075 144.034 20.709 144.023 20.3232L143.957 17.8421C143.948 17.4566 144.091 17.083 144.357 16.8032C144.622 16.5233 144.988 16.3601 145.373 16.3493L147.675 16.2872C147.942 16.2817 148.201 16.1977 148.421 16.0457C148.64 15.8937 148.81 15.6804 148.908 15.4325C148.957 15.3083 149.01 15.1859 149.063 15.0654C149.167 14.8264 149.201 14.5624 149.161 14.3047C149.121 14.0469 149.008 13.806 148.835 13.6103L147.412 11.9838C147.158 11.6933 147.03 11.3139 147.055 10.9289C147.08 10.5439 147.257 10.1847 147.547 9.93005L149.413 8.29606C149.557 8.16996 149.724 8.07346 149.905 8.0121C150.086 7.95074 150.278 7.92573 150.468 7.9385C150.659 7.95127 150.845 8.00156 151.017 8.0865C151.188 8.17144 151.341 8.28935 151.467 8.43348L152.525 9.64203C152.72 9.8643 152.982 10.0175 153.271 10.0789C153.56 10.1403 153.862 10.1066 154.13 9.98276C154.558 9.79173 154.998 9.6307 155.448 9.50084C155.699 9.42888 155.924 9.28748 156.098 9.09296C156.272 8.89844 156.387 8.65873 156.431 8.40148L156.755 6.38535C156.816 6.00444 157.026 5.66354 157.339 5.43762C157.652 5.21169 158.042 5.11922 158.422 5.18056L160.87 5.57399C161.251 5.63595 161.592 5.8465 161.818 6.15949C162.044 6.47249 162.137 6.8624 162.076 7.24376L161.847 8.66691C161.798 8.95775 161.845 9.25653 161.981 9.51828C162.117 9.78003 162.334 9.9906 162.6 10.1183C162.707 10.1691 162.812 10.2237 162.918 10.2783C163.162 10.4049 163.439 10.4546 163.712 10.421C163.985 10.3874 164.242 10.2721 164.448 10.0901L165.435 9.22788C165.725 8.97415 166.105 8.84612 166.49 8.87188C166.875 8.89764 167.234 9.0751 167.488 9.3653L169.122 11.2308C169.248 11.3746 169.345 11.5417 169.406 11.7227C169.468 11.9038 169.493 12.0951 169.48 12.2858C169.468 12.4765 169.417 12.6629 169.333 12.8343C169.248 13.0057 169.131 13.1587 168.987 13.2846L168 14.1487C167.793 14.3292 167.644 14.5685 167.575 14.8349C167.506 15.1014 167.519 15.3826 167.613 15.6415C167.654 15.7544 167.694 15.8674 167.731 15.9803C167.822 16.2608 168.002 16.5042 168.243 16.674C168.484 16.8437 168.773 16.9306 169.068 16.9216L170.512 16.882C170.897 16.8724 171.271 17.016 171.551 17.2814C171.83 17.5467 171.994 17.9122 172.005 18.2977L172.07 20.7788C172.081 21.1641 171.937 21.5377 171.672 21.8176C171.407 22.0975 171.042 22.2607 170.657 22.2716L168.616 22.328C168.355 22.3363 168.101 22.4185 167.885 22.5651C167.669 22.7117 167.499 22.9168 167.394 23.1563C167.208 23.5848 166.991 23.9993 166.745 24.3969C166.587 24.6465 166.514 24.9404 166.537 25.2348C166.56 25.5292 166.677 25.8085 166.871 26.0309L167.929 27.2413C168.055 27.385 168.151 27.5522 168.213 27.7332C168.274 27.9142 168.299 28.1056 168.287 28.2963C168.274 28.487 168.224 28.6734 168.139 28.8447C168.055 29.0161 167.937 29.1692 167.793 29.2951L165.918 30.9253C165.775 31.0514 165.608 31.1479 165.426 31.2093C165.245 31.2706 165.054 31.2956 164.863 31.2829C164.672 31.2701 164.486 31.2198 164.315 31.1349C164.143 31.0499 163.99 30.932 163.865 30.7879L162.442 29.1614C162.27 28.9647 162.047 28.8207 161.797 28.7464C161.547 28.6721 161.281 28.6704 161.03 28.7416C160.904 28.7793 160.774 28.8151 160.653 28.8471C160.394 28.9122 160.161 29.0521 159.981 29.2493C159.801 29.4465 159.683 29.6922 159.642 29.9558L159.277 32.2299C159.22 32.5713 159.044 32.8814 158.779 33.1045C158.515 33.3277 158.179 33.4494 157.833 33.4478ZM152.888 27.7251C153.123 27.7247 153.354 27.7816 153.562 27.8908L153.581 27.9002C153.849 28.0433 154.066 28.2669 154.202 28.5397C154.337 28.8125 154.383 29.1208 154.334 29.4212L154.019 31.3733C153.962 31.7314 154.048 32.0978 154.26 32.3923C154.471 32.6869 154.791 32.8856 155.149 32.9452L157.596 33.3368C157.954 33.3944 158.32 33.3079 158.614 33.0962C158.909 32.8845 159.107 32.5649 159.166 32.2073L159.531 29.9332C159.575 29.6529 159.7 29.3917 159.891 29.1821C160.082 28.9726 160.331 28.8239 160.606 28.7548C160.732 28.7228 160.86 28.6889 160.983 28.6513C161.25 28.574 161.534 28.575 161.801 28.6541C162.068 28.7331 162.306 28.887 162.489 29.0974L163.912 30.7239C164.03 30.8594 164.174 30.9702 164.335 31.05C164.497 31.1298 164.672 31.177 164.852 31.1889C165.031 31.2008 165.212 31.1771 165.382 31.1193C165.552 31.0615 165.71 30.9706 165.845 30.8519L167.712 29.2179C167.986 28.9787 168.153 28.6407 168.178 28.2781C168.202 27.9156 168.081 27.5582 167.842 27.2846L166.783 26.0742C166.576 25.838 166.451 25.5415 166.427 25.2288C166.403 24.9161 166.48 24.6039 166.647 24.3385C166.891 23.9444 167.106 23.5336 167.293 23.1093C167.403 22.8549 167.584 22.6373 167.814 22.4817C168.043 22.326 168.312 22.2388 168.59 22.2302L170.628 22.1737C170.991 22.1633 171.336 22.0095 171.585 21.7459C171.835 21.4824 171.97 21.1305 171.961 20.7675L171.895 18.2882C171.885 17.9249 171.732 17.5803 171.468 17.3301C171.205 17.0799 170.852 16.9445 170.489 16.9536L169.045 16.9931C168.733 17.002 168.426 16.9098 168.171 16.7304C167.915 16.551 167.724 16.2939 167.626 15.9973C167.588 15.8843 167.551 15.7733 167.509 15.6622C167.409 15.3872 167.395 15.0883 167.468 14.805C167.541 14.5218 167.699 14.2673 167.92 14.0753L168.906 13.2131C169.042 13.0945 169.152 12.9503 169.232 12.7889C169.312 12.6274 169.359 12.4518 169.371 12.272C169.383 12.0923 169.359 11.912 169.302 11.7414C169.244 11.5708 169.153 11.4133 169.034 11.2779L167.4 9.41048C167.16 9.13811 166.822 8.97178 166.46 8.94779C166.098 8.92381 165.74 9.04413 165.467 9.28248L164.48 10.1446C164.261 10.3376 163.988 10.4597 163.698 10.4949C163.407 10.5302 163.113 10.477 162.854 10.3423C162.75 10.2877 162.645 10.2331 162.539 10.1823C162.257 10.0468 162.027 9.82355 161.882 9.54593C161.737 9.26831 161.687 8.9513 161.737 8.64243L161.967 7.21928C162.025 6.86113 161.939 6.49452 161.727 6.19985C161.516 5.90518 161.196 5.70652 160.838 5.64741L158.39 5.25209C158.033 5.19497 157.667 5.28167 157.373 5.49327C157.079 5.70486 156.88 6.02419 156.82 6.38158L156.495 8.39771C156.449 8.67106 156.327 8.92585 156.142 9.1327C155.957 9.33954 155.718 9.49 155.452 9.56673C155.006 9.69488 154.57 9.85466 154.147 10.0449C153.862 10.1754 153.542 10.2103 153.235 10.1445C152.928 10.0787 152.651 9.91572 152.444 9.67968L151.386 8.47113C151.267 8.33561 151.123 8.22478 150.962 8.14499C150.801 8.06519 150.625 8.018 150.446 8.00611C150.266 7.99422 150.086 8.01786 149.915 8.07569C149.745 8.13352 149.588 8.2244 149.452 8.34312L147.587 9.97711C147.314 10.2166 147.147 10.5545 147.122 10.9169C147.098 11.2793 147.218 11.6366 147.457 11.9104L148.88 13.5369C149.064 13.7446 149.184 14.0003 149.227 14.274C149.271 14.5477 149.235 14.8281 149.125 15.0824C149.072 15.201 149.019 15.3233 148.971 15.4457C148.865 15.7105 148.684 15.9382 148.449 16.1C148.215 16.2618 147.938 16.3505 147.653 16.3549L145.351 16.4171C145.171 16.4217 144.993 16.4618 144.829 16.535C144.665 16.6082 144.516 16.7131 144.392 16.8437C144.269 16.9743 144.172 17.1281 144.108 17.2962C144.043 17.4643 144.013 17.6434 144.018 17.8233L144.084 20.3044C144.094 20.6677 144.247 21.0123 144.511 21.2625C144.774 21.5128 145.126 21.6482 145.49 21.639L147.468 21.5863C147.773 21.5781 148.072 21.6659 148.324 21.8371C148.576 22.0084 148.768 22.2545 148.873 22.5408V22.5558C148.974 22.8321 148.99 23.1327 148.917 23.418C148.845 23.7033 148.687 23.9599 148.466 24.154L147.067 25.3777C146.932 25.4963 146.821 25.6404 146.741 25.8019C146.661 25.9633 146.614 26.139 146.602 26.3187C146.59 26.4984 146.614 26.6788 146.672 26.8493C146.73 27.0199 146.821 27.1774 146.939 27.3128L148.575 29.1803C148.694 29.3158 148.838 29.4267 148.999 29.5065C149.161 29.5863 149.337 29.6335 149.516 29.6454C149.696 29.6573 149.876 29.6337 150.047 29.5758C150.217 29.518 150.375 29.427 150.51 29.3083L151.905 28.0846C152.177 27.8476 152.527 27.7195 152.888 27.7251Z" fill="#131F2D"/>
<g opacity="0.6">
<path d="M217.479 58.4358H85.2778C83.3877 58.4358 81.8555 59.968 81.8555 61.8581V84.3424C81.8555 86.2325 83.3877 87.7648 85.2778 87.7648H217.479C219.369 87.7648 220.901 86.2325 220.901 84.3424V61.8581C220.901 59.968 219.369 58.4358 217.479 58.4358Z" fill="white"/>
</g>
<g opacity="0.6">
<path d="M218.823 96.7161H154.984C154.854 96.7161 154.726 96.6904 154.606 96.6407C154.486 96.5909 154.377 96.5179 154.285 96.4259C154.193 96.334 154.12 96.2248 154.071 96.1047C154.021 95.9845 153.996 95.8558 153.996 95.7259V95.1423C153.996 95.0116 154.022 94.8823 154.072 94.7616C154.122 94.641 154.196 94.5315 154.289 94.4395C154.382 94.3474 154.492 94.2746 154.613 94.2253C154.734 94.176 154.863 94.1511 154.994 94.1521L218.832 94.7413C219.093 94.7438 219.342 94.849 219.526 95.034C219.709 95.219 219.813 95.469 219.813 95.7296C219.812 95.9916 219.707 96.2425 219.522 96.4274C219.336 96.6123 219.085 96.7161 218.823 96.7161Z" fill="white"/>
</g>
<path d="M214.049 71.9483H171.215V70.3237L214.049 70.704V71.9483Z" fill="#407BFF"/>
<path d="M190.346 75.6041H171.215V73.9795L190.346 74.3616V75.6041Z" fill="#FF6C37"/>
<path d="M196.557 83.5142H171.215V81.8877L196.557 82.2698V83.5142Z" fill="#FF6C37"/>
<path d="M190.346 79.8471H171.215V78.2225L190.346 78.6047V79.8471Z" fill="#407BFF"/>
<path d="M204.296 79.8471H193.082V78.2225L204.296 78.6047V79.8471Z" fill="#407BFF"/>
<path d="M212.212 75.6041H193.082V73.9795L212.212 74.3616V75.6041Z" fill="#FF6C37"/>
<g opacity="0.6">
<path d="M218.919 102.407L154.915 103.16C154.795 103.161 154.676 103.139 154.565 103.094C154.454 103.049 154.353 102.983 154.268 102.898C154.183 102.814 154.115 102.714 154.069 102.603C154.023 102.493 154 102.374 154 102.254V101.501C154 101.262 154.095 101.032 154.265 100.862C154.434 100.693 154.664 100.598 154.904 100.598H218.908C219.148 100.598 219.378 100.693 219.547 100.862C219.717 101.032 219.813 101.261 219.813 101.501C219.813 101.739 219.719 101.968 219.552 102.138C219.385 102.307 219.157 102.404 218.919 102.407Z" fill="white"/>
</g>
<g opacity="0.6">
<path d="M117.361 122.291H82.332V120.206L116.791 120.68C117.08 120.684 117.355 120.802 117.558 121.007C117.76 121.213 117.874 121.491 117.873 121.779C117.873 121.915 117.819 122.045 117.723 122.141C117.627 122.237 117.497 122.291 117.361 122.291Z" fill="white"/>
</g>
<g opacity="0.6">
<path d="M128.31 127.387L82.9081 127.993C82.833 127.995 82.7583 127.981 82.6885 127.954C82.6187 127.926 82.5551 127.885 82.5014 127.832C82.4478 127.779 82.4052 127.717 82.3761 127.647C82.347 127.578 82.332 127.504 82.332 127.429V126.506C82.332 126.356 82.3916 126.213 82.4975 126.107C82.6034 126.001 82.747 125.941 82.8968 125.941H128.298C128.448 125.941 128.592 126.001 128.698 126.107C128.804 126.213 128.863 126.356 128.863 126.506V126.822C128.863 126.97 128.805 127.112 128.702 127.218C128.598 127.323 128.457 127.384 128.31 127.387Z" fill="white"/>
</g>
<g opacity="0.6">
<path d="M164.487 127.393L132.724 127.988C132.627 127.989 132.531 127.972 132.44 127.936C132.35 127.9 132.268 127.847 132.199 127.779C132.13 127.711 132.075 127.629 132.037 127.54C132 127.45 131.98 127.354 131.98 127.257V126.664C131.98 126.471 132.057 126.285 132.194 126.148C132.331 126.011 132.517 125.934 132.711 125.934H164.487C164.68 125.934 164.866 126.012 165.002 126.149C165.139 126.285 165.216 126.471 165.216 126.664C165.216 126.858 165.139 127.043 165.002 127.18C164.866 127.316 164.68 127.393 164.487 127.393Z" fill="white"/>
</g>
<g opacity="0.6">
<path d="M218.919 110.646L154.915 111.399C154.795 111.401 154.676 111.378 154.565 111.334C154.454 111.289 154.353 111.222 154.268 111.138C154.183 111.054 154.115 110.953 154.069 110.843C154.023 110.732 154 110.614 154 110.494V109.741C154 109.501 154.095 109.271 154.265 109.102C154.434 108.932 154.664 108.837 154.904 108.837H218.908C219.148 108.837 219.378 108.932 219.547 109.102C219.717 109.271 219.813 109.501 219.813 109.741C219.813 109.979 219.719 110.208 219.552 110.377C219.385 110.547 219.157 110.643 218.919 110.646Z" fill="white"/>
</g>
<path d="M110.927 91.7688H84.8674C83.204 91.7688 81.8555 93.1173 81.8555 94.7808V111.077C81.8555 112.741 83.204 114.089 84.8674 114.089H110.927C112.59 114.089 113.939 112.741 113.939 111.077V94.7808C113.939 93.1173 112.59 91.7688 110.927 91.7688Z" fill="white"/>
<g opacity="0.6">
<path d="M144.386 91.7688H120.804C119.389 91.7688 118.242 92.9159 118.242 94.3309V111.527C118.242 112.942 119.389 114.089 120.804 114.089H144.386C145.801 114.089 146.948 112.942 146.948 111.527V94.3309C146.948 92.9159 145.801 91.7688 144.386 91.7688Z" fill="white"/>
</g>
<path d="M111.813 126.491C111.642 135.785 110.972 148.507 108.859 159.662C105.341 178.276 83.6775 191.047 79.681 193.263C79.486 193.37 79.2685 193.431 79.0459 193.44C78.8232 193.448 78.6017 193.404 78.3991 193.312C44.5145 177.745 45.0435 154.09 45.0435 154.09V126.307C45.0434 125.932 45.1908 125.572 45.4539 125.304C45.717 125.037 46.0746 124.884 46.4497 124.878C51.6095 124.793 69.6041 123.822 77.4691 114.585C77.5976 114.435 77.7557 114.315 77.9333 114.23C78.1109 114.145 78.3042 114.098 78.5009 114.091C78.6977 114.085 78.8936 114.12 79.0763 114.193C79.259 114.266 79.4245 114.376 79.5624 114.517C82.9509 117.96 93.9973 127.506 111.753 126.495L111.813 126.491Z" fill="#407BFF"/>
<path d="M78.9635 188.739C78.9415 188.738 78.9198 188.734 78.8994 188.726C71.9908 185.612 66.125 181.855 61.4602 177.552C57.7272 174.108 54.7529 170.31 52.6125 166.257C48.9756 159.359 49.0509 154.053 49.0509 154V130.714C49.0467 130.078 49.2913 129.466 49.7325 129.009C50.1737 128.552 50.7763 128.285 51.4115 128.266C53.9453 128.18 58.9621 127.845 64.0712 126.557C70.1666 125.021 74.6601 122.604 77.4368 119.377C77.5661 119.225 77.7261 119.101 77.9062 119.014C78.0863 118.927 78.2827 118.878 78.4826 118.871C78.6826 118.865 78.8818 118.9 79.0674 118.975C79.253 119.049 79.4208 119.162 79.5602 119.306C81.4427 121.241 86.5046 125.943 92.9879 127.798C97.0174 128.922 101.164 129.574 105.345 129.738C105.964 129.764 106.549 130.032 106.974 130.484C107.399 130.937 107.629 131.537 107.617 132.157C107.346 143.016 106.559 151.765 105.207 158.907C104.428 163.024 102.572 167.156 99.6726 171.185C97.359 174.402 94.3866 177.563 90.8362 180.579C87.1867 183.68 83.2336 186.406 79.0369 188.715C79.0148 188.729 78.9896 188.737 78.9635 188.739ZM78.5324 119.187H78.4947C78.3372 119.193 78.1824 119.231 78.0402 119.299C77.898 119.367 77.7714 119.463 77.6683 119.583C74.8597 122.862 70.3135 125.311 64.154 126.862C59.0167 128.157 53.9773 128.494 51.4285 128.581C50.8752 128.597 50.3502 128.83 49.9656 129.228C49.5809 129.626 49.3668 130.158 49.369 130.712V154.009C49.369 154.066 49.2956 159.307 52.9024 166.138C55.0202 170.15 57.9738 173.916 61.6823 177.333C66.3038 181.593 72.115 185.32 78.9578 188.41C83.111 186.117 87.0247 183.416 90.6404 180.345C96.1825 175.639 103.157 168.085 104.902 158.855C106.25 151.731 107.035 142.997 107.306 132.156C107.315 131.617 107.114 131.096 106.745 130.704C106.376 130.311 105.869 130.078 105.331 130.053C101.128 129.886 96.9587 129.231 92.907 128.101C86.3522 126.218 81.2356 121.48 79.3418 119.526C79.2369 119.418 79.1111 119.332 78.9719 119.273C78.8328 119.215 78.6832 119.186 78.5324 119.187Z" fill="#131F2D"/>
<path d="M86.2262 165.477H64.7829C63.8286 165.476 62.9137 165.097 62.2389 164.422C61.5641 163.747 61.1846 162.832 61.1836 161.878V148.648C61.1841 147.693 61.5634 146.778 62.2382 146.103C62.9131 145.428 63.8283 145.048 64.7829 145.047H65.9914C66.5088 142.914 67.728 141.016 69.4532 139.66C71.1785 138.303 73.3096 137.565 75.5045 137.565C77.6994 137.565 79.8306 138.303 81.5559 139.66C83.2811 141.016 84.5003 142.914 85.0176 145.047H86.2262C87.181 145.048 88.0963 145.427 88.7715 146.103C89.4466 146.778 89.8263 147.693 89.8273 148.648V161.878C89.8259 162.832 89.4459 163.747 88.7708 164.422C88.0958 165.097 87.1807 165.476 86.2262 165.477ZM64.7829 145.355C63.9103 145.357 63.0739 145.704 62.4571 146.322C61.8403 146.939 61.4933 147.775 61.4923 148.648V161.878C61.4933 162.75 61.8403 163.587 62.4572 164.204C63.0741 164.821 63.9105 165.168 64.7829 165.169H86.2262C87.0988 165.168 87.9354 164.821 88.5525 164.204C89.1697 163.587 89.5171 162.751 89.5186 161.878V148.648C89.5176 147.775 89.1704 146.938 88.5532 146.321C87.9359 145.704 87.0991 145.356 86.2262 145.355H84.8953C84.8605 145.356 84.8267 145.344 84.7993 145.322C84.772 145.301 84.7527 145.271 84.7447 145.237C84.2633 143.147 83.0875 141.281 81.4092 139.946C79.731 138.61 77.6494 137.883 75.5045 137.883C73.3596 137.883 71.2781 138.61 69.5999 139.946C67.9216 141.281 66.7458 143.147 66.2644 145.237C66.2566 145.271 66.2375 145.301 66.2101 145.323C66.1827 145.344 66.1487 145.356 66.1138 145.355H64.7829ZM82.433 145.355H68.578C68.5538 145.356 68.53 145.35 68.5084 145.339C68.4868 145.329 68.468 145.313 68.4537 145.293C68.4393 145.274 68.4295 145.251 68.4253 145.228C68.421 145.204 68.4224 145.179 68.4292 145.156C68.8997 143.647 69.8399 142.329 71.1127 141.392C72.3856 140.456 73.9244 139.951 75.5045 139.951C77.0847 139.951 78.6235 140.456 79.8963 141.392C81.1692 142.329 82.1094 143.647 82.5798 145.156C82.5873 145.179 82.5892 145.203 82.5853 145.227C82.5815 145.251 82.572 145.274 82.5576 145.293C82.5433 145.313 82.5245 145.329 82.5028 145.339C82.4811 145.35 82.4572 145.356 82.433 145.355ZM68.7907 145.047H82.2222C81.7409 143.649 80.8353 142.436 79.6317 141.578C78.4282 140.719 76.9867 140.258 75.5083 140.258C74.0299 140.258 72.5884 140.719 71.3849 141.578C70.1813 142.436 69.2758 143.649 68.7945 145.047H68.7907Z" fill="#131F2D"/>
<path d="M88.3141 143.108H68.1133C66.0724 143.108 64.418 144.762 64.418 146.803V159.534C64.418 161.575 66.0724 163.23 68.1133 163.23H88.3141C90.355 163.23 92.0094 161.575 92.0094 159.534V146.803C92.0094 144.762 90.355 143.108 88.3141 143.108Z" fill="#131F2D"/>
<path d="M78.2144 154.903C76.308 154.904 74.4442 154.339 72.8589 153.28C71.2736 152.221 70.038 150.716 69.3083 148.954C68.5785 147.193 68.3875 145.255 68.7593 143.385C69.1312 141.515 70.0492 139.798 71.3972 138.45C72.7453 137.102 74.4628 136.184 76.3326 135.812C78.2025 135.44 80.1405 135.631 81.9018 136.361C83.663 137.091 85.1683 138.326 86.2272 139.912C87.2862 141.497 87.8511 143.361 87.8508 145.267C87.8478 147.822 86.8316 150.271 85.0251 152.078C83.2185 153.884 80.7692 154.9 78.2144 154.903ZM78.2144 138.01C76.779 138.01 75.3758 138.435 74.1821 139.232C72.9885 140.029 72.058 141.163 71.5085 142.489C70.9589 143.815 70.815 145.274 71.0948 146.682C71.3746 148.089 72.0656 149.383 73.0804 150.398C74.0952 151.413 75.3883 152.104 76.796 152.384C78.2038 152.665 79.6631 152.521 80.9892 151.972C82.3153 151.423 83.4488 150.492 84.2463 149.299C85.0438 148.105 85.4695 146.702 85.4695 145.267C85.4675 143.343 84.7025 141.499 83.3424 140.138C81.9823 138.778 80.1381 138.013 78.2144 138.01Z" fill="#131F2D"/>
<path d="M78.2162 153.955C77.9497 153.954 77.6943 153.848 77.5059 153.66C77.3175 153.471 77.2114 153.216 77.2109 152.949V148.076C77.2114 147.809 77.3175 147.554 77.5059 147.365C77.6943 147.177 77.9497 147.071 78.2162 147.07C78.4823 147.071 78.7372 147.178 78.9252 147.366C79.1132 147.554 79.2191 147.81 79.2195 148.076V152.949C79.2191 153.216 79.1132 153.471 78.9252 153.659C78.7372 153.847 78.4823 153.954 78.2162 153.955Z" fill="white"/>
<path d="M78.2167 158.373C79.7128 158.373 80.9256 157.16 80.9256 155.664C80.9256 154.168 79.7128 152.955 78.2167 152.955C76.7206 152.955 75.5078 154.168 75.5078 155.664C75.5078 157.16 76.7206 158.373 78.2167 158.373Z" fill="white"/>
<path d="M127.483 85.1406C127.423 85.1406 127.364 85.1264 127.311 85.0992L123.448 83.1678C123.403 83.146 123.362 83.1152 123.329 83.0773C123.295 83.0394 123.27 82.9952 123.254 82.9472C123.238 82.8992 123.232 82.8485 123.236 82.7982C123.24 82.7478 123.254 82.6987 123.277 82.6539C123.299 82.6083 123.33 82.5675 123.368 82.5341C123.406 82.5006 123.45 82.4751 123.498 82.4591C123.546 82.4431 123.596 82.437 123.647 82.441C123.697 82.445 123.746 82.4592 123.791 82.4826L127.66 84.4102C127.745 84.4426 127.816 84.5049 127.859 84.5856C127.901 84.6663 127.913 84.7598 127.893 84.8487C127.872 84.9376 127.819 85.0158 127.745 85.0689C127.67 85.1219 127.579 85.146 127.488 85.1369L127.483 85.1406Z" fill="#131F2D"/>
<path d="M121.993 89.7772C121.892 89.7804 121.793 89.7432 121.719 89.6736C121.645 89.6041 121.601 89.5079 121.598 89.4063C121.595 89.3047 121.632 89.206 121.701 89.1319C121.771 89.0577 121.867 89.0143 121.969 89.011L126.261 88.7211C126.362 88.7141 126.462 88.7477 126.539 88.8144C126.615 88.8811 126.662 88.9756 126.669 89.0769C126.676 89.1783 126.643 89.2782 126.576 89.3548C126.509 89.4314 126.415 89.4784 126.313 89.4854L122.02 89.7753L121.993 89.7772Z" fill="#131F2D"/>
<path d="M124.421 96.2116C124.335 96.2165 124.249 96.1914 124.179 96.1404C124.109 96.0894 124.058 96.0157 124.036 95.9317C124.014 95.8478 124.021 95.7588 124.057 95.6797C124.093 95.6007 124.155 95.5366 124.233 95.4981L127.966 93.305C128.009 93.2796 128.057 93.2629 128.107 93.2559C128.157 93.2489 128.207 93.2518 128.256 93.2644C128.304 93.277 128.35 93.299 128.39 93.3293C128.43 93.3595 128.464 93.3973 128.49 93.4406C128.515 93.4838 128.532 93.5317 128.539 93.5814C128.546 93.6311 128.543 93.6817 128.53 93.7303C128.518 93.7789 128.496 93.8245 128.465 93.8646C128.435 93.9047 128.397 93.9384 128.354 93.9639L124.623 96.157C124.562 96.1932 124.492 96.2121 124.421 96.2116Z" fill="#131F2D"/>
<path d="M140.038 85.1406C139.966 85.1413 139.896 85.1216 139.836 85.084C139.775 85.0463 139.726 84.9922 139.695 84.9279C139.672 84.8831 139.658 84.834 139.654 84.7836C139.65 84.7332 139.656 84.6825 139.672 84.6346C139.688 84.5866 139.713 84.5424 139.747 84.5045C139.78 84.4666 139.821 84.4358 139.866 84.414L143.735 82.4863C143.78 82.4639 143.829 82.4506 143.879 82.4472C143.929 82.4437 143.979 82.4502 144.027 82.4662C144.075 82.4822 144.119 82.5074 144.157 82.5404C144.195 82.5734 144.226 82.6136 144.248 82.6586C144.27 82.7035 144.284 82.7525 144.287 82.8026C144.29 82.8528 144.284 82.9031 144.268 82.9507C144.252 82.9984 144.227 83.0424 144.194 83.0803C144.161 83.1181 144.121 83.1492 144.076 83.1715L140.202 85.0954C140.151 85.1228 140.095 85.1382 140.038 85.1406Z" fill="#131F2D"/>
<path d="M145.529 89.7773H145.502L141.208 89.4874C141.107 89.4804 141.012 89.4334 140.946 89.3568C140.879 89.2802 140.845 89.1802 140.852 89.0789C140.859 88.9775 140.906 88.8831 140.983 88.8164C141.06 88.7496 141.16 88.7161 141.261 88.7231L145.553 89.013C145.655 89.0162 145.751 89.0597 145.82 89.1338C145.89 89.208 145.927 89.3067 145.924 89.4083C145.921 89.5099 145.877 89.606 145.803 89.6756C145.729 89.7451 145.63 89.7824 145.529 89.7791V89.7773Z" fill="#131F2D"/>
<path d="M143.1 96.2116C143.033 96.2103 142.968 96.1915 142.912 96.157L139.181 93.9639C139.137 93.9384 139.099 93.9047 139.069 93.8646C139.039 93.8245 139.017 93.7789 139.004 93.7303C138.992 93.6817 138.989 93.6311 138.996 93.5814C139.003 93.5317 139.02 93.4838 139.045 93.4406C139.07 93.3973 139.104 93.3595 139.144 93.3293C139.184 93.299 139.23 93.277 139.279 93.2644C139.327 93.2518 139.378 93.2489 139.427 93.2559C139.477 93.2629 139.525 93.2796 139.568 93.305L143.294 95.4943C143.372 95.5328 143.434 95.5969 143.47 95.676C143.506 95.755 143.513 95.844 143.491 95.928C143.469 96.0119 143.418 96.0856 143.348 96.1366C143.278 96.1876 143.192 96.2128 143.105 96.2078L143.1 96.2116Z" fill="#131F2D"/>
<path d="M141.447 87.5879C141.447 92.5576 138.151 96.6237 134.009 96.8685C133.874 96.876 133.738 96.8798 133.602 96.8798C129.273 96.8798 125.758 92.7195 125.758 87.5879C125.741 85.5213 126.342 83.4968 127.484 81.7748C128.921 79.6532 131.127 78.2941 133.602 78.2941C134.28 78.2948 134.953 78.3976 135.6 78.599C137.294 79.1595 138.747 80.2794 139.721 81.7748C140.863 83.4968 141.464 85.5213 141.447 87.5879Z" fill="#657285"/>
<path d="M141.444 87.5878C141.444 92.5576 138.148 96.6237 134.007 96.8684C133.471 95.3336 133.087 93.7497 132.862 92.1397C132.388 88.8001 132.589 85.6338 133.316 83.0586C133.83 81.2251 134.611 79.689 135.597 78.599C137.291 79.1595 138.745 80.2794 139.718 81.7747C140.861 83.4967 141.462 85.5213 141.444 87.5878Z" fill="#657285"/>
<path d="M133.602 85.2574C136.981 85.2574 139.72 83.6991 139.72 81.7767C139.72 79.8544 136.981 78.296 133.602 78.296C130.224 78.296 127.484 79.8544 127.484 81.7767C127.484 83.6991 130.224 85.2574 133.602 85.2574Z" fill="#131F2D"/>
<path d="M131.884 79.5026C131.784 79.5026 131.689 79.463 131.618 79.3923C131.547 79.3217 131.508 79.226 131.508 79.1261C131.436 76.2177 128.754 75.0393 128.725 75.028C128.632 74.988 128.558 74.9125 128.52 74.8181C128.482 74.7237 128.483 74.618 128.523 74.5244C128.563 74.4308 128.638 74.3569 128.733 74.3189C128.827 74.281 128.933 74.2821 129.027 74.322C129.156 74.3785 132.191 75.7113 132.272 79.1073C132.274 79.158 132.266 79.2086 132.248 79.256C132.23 79.3034 132.202 79.3467 132.167 79.3833C132.132 79.4199 132.09 79.449 132.043 79.4688C131.996 79.4887 131.946 79.4989 131.895 79.4989L131.884 79.5026Z" fill="#131F2D"/>
<path d="M135.051 80.4872C134.956 80.4874 134.863 80.4511 134.793 80.3857C134.723 80.3203 134.681 80.2307 134.675 80.1352C134.349 76.0351 137.145 74.4124 137.263 74.3447C137.352 74.2947 137.456 74.282 137.554 74.3091C137.652 74.3363 137.735 74.4012 137.785 74.4896C137.835 74.578 137.847 74.6826 137.82 74.7804C137.793 74.8782 137.728 74.9611 137.64 75.0111C137.534 75.0713 135.153 76.4813 135.437 80.0749C135.442 80.125 135.436 80.1755 135.421 80.2234C135.406 80.2713 135.381 80.3157 135.349 80.354C135.316 80.3922 135.276 80.4236 135.231 80.4461C135.186 80.4687 135.137 80.482 135.087 80.4853L135.051 80.4872Z" fill="#131F2D"/>
<g opacity="0.4">
<path d="M156.631 111.253C169.076 98.8075 169.076 78.6295 156.631 66.1841C144.185 53.7387 124.007 53.7387 111.562 66.1841C99.1163 78.6295 99.1163 98.8075 111.562 111.253C124.007 123.698 144.185 123.698 156.631 111.253Z" fill="#FF6C37"/>
</g>
<path d="M170.323 115.878C170.323 115.878 164.691 116 163.147 113.532C161.604 111.064 164.222 108.916 164.222 108.916L172.601 113.448L170.323 115.878Z" fill="#FF7955"/>
<path d="M161.545 102.97L159.094 106.928L221.257 145.426L223.708 141.468L161.545 102.97Z" fill="#131F2D"/>
<path d="M224.309 143.108L222.977 145.257C222.722 145.668 222.316 145.96 221.846 146.071C221.376 146.181 220.881 146.101 220.471 145.847L188.042 125.761C187.631 125.506 187.338 125.099 187.228 124.629C187.118 124.159 187.198 123.664 187.452 123.253L188.785 121.103C189.039 120.693 189.446 120.401 189.916 120.29C190.386 120.18 190.88 120.26 191.291 120.514L223.72 140.6C224.131 140.855 224.423 141.262 224.534 141.732C224.644 142.202 224.563 142.697 224.309 143.108Z" fill="#131F2D"/>
<path d="M105.734 71.15C102.26 76.7597 100.527 83.2736 100.754 89.8682C100.982 96.4629 103.16 102.842 107.012 108.199C110.865 113.556 116.22 117.65 122.4 119.963C128.579 122.277 135.306 122.706 141.73 121.196C148.153 119.687 153.985 116.307 158.488 111.483C162.99 106.659 165.961 100.608 167.024 94.096C168.088 87.5838 167.197 80.9024 164.463 74.8967C161.729 68.891 157.276 63.8308 151.667 60.3559C147.942 58.0486 143.8 56.4975 139.475 55.7913C135.151 55.085 130.73 55.2374 126.465 56.2397C122.2 57.2421 118.174 59.0747 114.617 61.633C111.06 64.1914 108.042 67.4252 105.734 71.15ZM159.971 104.745C156.8 109.862 152.184 113.925 146.705 116.419C141.226 118.913 135.13 119.727 129.189 118.756C123.247 117.786 117.727 115.075 113.326 110.968C108.925 106.86 105.841 101.54 104.464 95.6795C103.087 89.8191 103.479 83.6819 105.589 78.0441C107.7 72.4062 111.435 67.5209 116.323 64.0059C121.21 60.4909 127.03 58.5041 133.046 58.2967C139.063 58.0893 145.006 59.6706 150.123 62.8408C153.521 64.9455 156.472 67.699 158.806 70.944C161.14 74.189 162.812 77.8619 163.726 81.7531C164.641 85.6444 164.78 89.6776 164.135 93.6225C163.491 97.5674 162.076 101.347 159.971 104.745Z" fill="#131F2D"/>
<path d="M220.647 122.992C219.141 111.717 206.5 105.349 206.5 105.349C206.5 105.349 207.571 130.474 209.736 129.733C213.433 128.464 218.497 128.438 220.647 122.992Z" fill="#407BFF"/>
<path d="M195.944 186.365C195.944 186.365 195.848 188.248 194.576 188.752C193.303 189.257 189.644 189.631 190.974 190.881C191.737 191.6 195.434 191.258 196.473 191.278C197.512 191.299 198.478 191.794 199.271 191.109C200.142 190.356 199.395 186.461 199.395 186.461C199.395 186.461 198.484 186.911 197.678 186.868C196.515 186.806 195.944 186.365 195.944 186.365Z" fill="#131F2D"/>
<path d="M186.813 138.791C187.056 142.709 187.515 147.793 188.364 154.013C189.985 165.873 191.952 177.824 192.922 183.557C193.072 184.536 193.548 185.436 194.273 186.112C194.998 186.788 195.929 187.2 196.917 187.282L197.991 187.355C200.154 187.502 201.962 185.661 201.864 183.414L200.169 144.764L200.008 138.616C200.008 138.616 186.414 132.366 186.813 138.791Z" fill="black"/>
<path d="M207.863 186.693C207.863 186.693 207.767 188.575 206.495 189.078C205.222 189.58 201.563 189.957 202.892 191.209C203.656 191.926 207.351 191.585 208.392 191.606C209.433 191.627 210.397 192.122 211.19 191.435C212.059 190.682 211.312 186.787 211.312 186.787C211.312 186.787 210.403 187.237 209.595 187.193C208.434 187.131 207.863 186.693 207.863 186.693Z" fill="#131F2D"/>
<path d="M198.519 129.405C198.519 129.405 198.043 137.922 200.286 154.342C201.907 166.202 203.875 178.154 204.842 183.886C204.992 184.866 205.469 185.766 206.194 186.442C206.919 187.118 207.851 187.53 208.839 187.611L209.913 187.685C212.076 187.832 213.884 185.991 213.784 183.743L212.09 145.094L211.758 132.38L198.519 129.405Z" fill="black"/>
<path d="M200.818 157.686L200.656 157.663C200.656 157.593 201.584 150.613 202.277 148.108C202.97 145.602 206.193 143.401 206.23 143.373L206.321 143.511C206.291 143.531 203.12 145.681 202.439 148.151C201.758 150.621 200.818 157.616 200.818 157.686Z" fill="#131F2D"/>
<path d="M200.858 103.228L200.021 100.681L199.778 99.9388L198.343 95.5771L198.155 99.9068L198.042 102.512L198.006 103.337C197.982 103.901 197.62 104.013 197.18 104.5C197.003 104.688 195.862 105.891 197.157 106.43C198.771 107.104 201.786 106.085 202.935 104.75C202.925 104.756 201.129 104.052 200.858 103.228Z" fill="#FF7955"/>
<path d="M202.562 97.9554C203.047 95.4168 201.636 93.0136 199.408 92.5875C197.181 92.1615 194.982 93.874 194.497 96.4125C194.011 98.9511 195.423 101.354 197.65 101.78C199.877 102.207 202.076 100.494 202.562 97.9554Z" fill="#FF7955"/>
<path d="M196.25 95.5771C193.898 95.6599 192.76 94.3817 192.731 93.1976C192.697 91.6785 193.712 90.3344 194.892 90.8991C196.073 91.4639 195.566 90.0784 196.701 89.9316C198.823 89.6567 199.22 91.0799 200.956 91.1495C203.247 91.2399 205.85 94.8373 203.938 97.4633C203.938 97.4633 198.106 95.5112 196.25 95.5771Z" fill="#131F2D"/>
<path d="M194.156 94.0448C194.156 94.0448 196.667 96.3245 196.336 97.6083C196.005 98.8922 196.09 99.3929 197.556 100.078C199.022 100.763 197.727 101.872 199.681 101.961C201.635 102.049 204.032 99.8635 204.03 96.2831C204.02 95.0746 203.59 93.9071 202.814 92.9812L194.156 94.0448Z" fill="#131F2D"/>
<path d="M195.068 97.5518C195.195 97.3701 195.386 97.2429 195.603 97.1955C195.819 97.1481 196.046 97.1839 196.237 97.2958C196.324 97.3582 196.397 97.4379 196.451 97.53C196.506 97.622 196.54 97.7243 196.553 97.8304C196.566 97.9365 196.557 98.0442 196.526 98.1466C196.495 98.2489 196.444 98.3438 196.374 98.4253C196.247 98.607 196.056 98.7341 195.84 98.7812C195.623 98.8283 195.397 98.7919 195.205 98.6794C195.118 98.6173 195.045 98.5378 194.991 98.446C194.936 98.3541 194.901 98.2519 194.888 98.1459C194.876 98.0398 194.885 97.9322 194.916 97.8299C194.947 97.7276 194.999 97.6329 195.068 97.5518Z" fill="#FFB27D"/>
<path d="M204.883 98.4517C204.869 98.4512 204.856 98.4464 204.845 98.4379C204.835 98.4294 204.827 98.4177 204.824 98.4046C204.722 98.0876 204.506 97.8194 204.218 97.6516C204.211 97.6481 204.205 97.6432 204.2 97.6372C204.195 97.6313 204.192 97.6244 204.19 97.617C204.188 97.6096 204.187 97.6018 204.188 97.5942C204.189 97.5865 204.191 97.5792 204.195 97.5725C204.199 97.5657 204.204 97.5597 204.21 97.5548C204.216 97.5498 204.223 97.5461 204.23 97.5439C204.237 97.5416 204.245 97.5408 204.253 97.5415C204.26 97.5422 204.268 97.5445 204.275 97.5481C204.594 97.7333 204.831 98.0326 204.939 98.3858C204.941 98.3933 204.941 98.4012 204.94 98.4089C204.939 98.4166 204.936 98.424 204.932 98.4307C204.928 98.4373 204.923 98.4431 204.917 98.4477C204.91 98.4523 204.903 98.4555 204.896 98.4573L204.883 98.4517Z" fill="#131F2D"/>
<path d="M204.246 97.3768C204.231 97.3768 204.217 97.3712 204.206 97.361C204.195 97.3509 204.189 97.337 204.188 97.3222C204.187 97.3145 204.188 97.3068 204.191 97.2996C204.193 97.2923 204.197 97.2855 204.202 97.2798C204.207 97.274 204.213 97.2693 204.22 97.2659C204.227 97.2625 204.235 97.2605 204.242 97.2601C204.242 97.2601 204.884 97.2168 204.976 96.7537C204.979 96.7384 204.988 96.7249 205.001 96.7161C205.013 96.7073 205.029 96.7039 205.044 96.7066C205.06 96.7098 205.073 96.7189 205.082 96.7319C205.091 96.7449 205.094 96.7608 205.091 96.7763C204.982 97.3278 204.28 97.3749 204.25 97.3768H204.246Z" fill="#131F2D"/>
<path d="M195.249 90.8089C195.206 90.8089 195.164 90.8026 195.123 90.79C194.95 90.7363 194.787 90.6549 194.641 90.5491C194.508 90.4362 194.347 90.361 194.174 90.3312C194.002 90.3015 193.825 90.3182 193.662 90.3797C193.655 90.382 193.647 90.3828 193.639 90.382C193.631 90.3813 193.624 90.379 193.617 90.3753C193.61 90.3716 193.604 90.3666 193.599 90.3606C193.594 90.3545 193.591 90.3476 193.589 90.3401C193.586 90.3327 193.585 90.3249 193.586 90.3172C193.587 90.3094 193.589 90.3019 193.593 90.2951C193.597 90.2883 193.602 90.2822 193.608 90.2773C193.614 90.2725 193.621 90.2688 193.628 90.2667C193.808 90.2013 194.003 90.1842 194.192 90.2172C194.381 90.2503 194.558 90.3322 194.705 90.4549C194.842 90.5539 194.994 90.6301 195.155 90.6808C195.196 90.6946 195.241 90.6985 195.284 90.6923C195.328 90.6861 195.369 90.67 195.405 90.6451C195.663 90.47 195.725 89.8921 195.725 89.8921C195.727 89.8768 195.735 89.8628 195.747 89.853C195.759 89.8432 195.774 89.8383 195.789 89.8394C195.797 89.8401 195.805 89.8423 195.812 89.8461C195.819 89.8498 195.825 89.8549 195.83 89.8611C195.835 89.8672 195.838 89.8743 195.84 89.8819C195.842 89.8895 195.843 89.8974 195.842 89.9053C195.842 89.9297 195.774 90.534 195.465 90.7411C195.402 90.7854 195.326 90.8091 195.249 90.8089Z" fill="#131F2D"/>
<path d="M200.777 90.9613C200.222 90.9369 199.692 90.7274 199.271 90.3664C199.264 90.3617 199.258 90.3556 199.254 90.3485C199.25 90.3415 199.247 90.3336 199.246 90.3254C199.246 90.3173 199.246 90.309 199.249 90.3012C199.251 90.2934 199.255 90.2861 199.261 90.28C199.266 90.2739 199.273 90.269 199.281 90.2656C199.288 90.2623 199.296 90.2605 199.304 90.2605C199.313 90.2605 199.321 90.2622 199.328 90.2655C199.336 90.2689 199.342 90.2737 199.348 90.2798C199.348 90.2798 200.125 90.9632 201.027 90.8258C201.042 90.8236 201.058 90.8275 201.07 90.8367C201.082 90.8459 201.091 90.8595 201.093 90.8747C201.095 90.8901 201.091 90.9058 201.082 90.9185C201.073 90.9311 201.059 90.9397 201.044 90.9425C200.955 90.9552 200.866 90.9615 200.777 90.9613Z" fill="#131F2D"/>
<path d="M195.699 98.8414C195.644 98.8431 195.589 98.8361 195.537 98.8207C195.533 98.8202 195.529 98.8188 195.525 98.8166C195.522 98.8144 195.519 98.8115 195.516 98.808C195.514 98.8044 195.513 98.8005 195.512 98.7963C195.511 98.7922 195.512 98.788 195.513 98.784C195.514 98.78 195.517 98.7764 195.519 98.7733C195.522 98.7703 195.526 98.7679 195.53 98.7664C195.534 98.7648 195.538 98.7642 195.542 98.7645C195.546 98.7647 195.55 98.7659 195.554 98.768C195.574 98.768 196.085 98.928 196.446 98.2503C196.448 98.2469 196.45 98.2439 196.453 98.2415C196.456 98.2391 196.459 98.2373 196.462 98.2362C196.466 98.2352 196.47 98.2348 196.473 98.2353C196.477 98.2358 196.481 98.2371 196.484 98.239C196.49 98.2426 196.495 98.2485 196.497 98.2555C196.499 98.2626 196.498 98.2701 196.495 98.2767C196.237 98.7605 195.896 98.8414 195.699 98.8414Z" fill="#131F2D"/>
<path d="M186.817 138.791C186.817 138.791 203.864 137.85 211.955 139.825L212.076 137.483L200.732 134.085L191.572 134.313L188.759 134.923L186.773 138.038L186.817 138.791Z" fill="#131F2D"/>
<path d="M210.442 110.27C210.442 110.27 208.936 103.719 199.763 103.719C183.761 103.719 188.253 116.966 186.773 138.029C186.773 138.029 197.086 135.759 212.01 138.782C212.01 138.782 213.463 127.376 211.584 117.734C211.089 115.185 211.174 112.484 210.442 110.27Z" fill="#407BFF"/>
<path d="M197.918 103.719C197.918 103.719 192.785 103.794 188.969 107.452C185.153 111.109 180.24 116.145 179.197 119.042C177.913 122.619 180.278 126.196 183.278 126.267C186.279 126.339 188.969 124.134 188.969 124.134L197.918 103.719Z" fill="#407BFF"/>
<path d="M212.489 133.641H212.376C212.822 125.379 211.382 116.921 211.367 116.836L211.478 116.817C211.486 116.896 212.928 125.367 212.489 133.641Z" fill="#131F2D"/>
<path d="M187.195 125.322L187.137 125.226C190.149 123.419 194.075 118.662 194.115 118.613L194.202 118.686C194.164 118.733 190.226 123.507 187.195 125.322Z" fill="#131F2D"/>
<path d="M166.254 116.821C166.216 119.157 177.784 127.696 184.727 126.269C192.106 124.763 183.001 116.544 183.001 116.544L169.4 113.414C169.4 113.414 166.292 114.455 166.254 116.821Z" fill="#407BFF"/>
<path d="M169.397 113.414C169.434 113.142 169.404 112.865 169.311 112.606C169.217 112.348 169.062 112.117 168.859 111.932C168.162 111.317 167.434 108.51 166.976 109.214C166.519 109.918 166.94 112.158 166.248 112.399C165.555 112.64 169.397 113.414 169.397 113.414Z" fill="#FF7955"/>
<path d="M174.488 63.4921H173.803C173.714 63.4921 173.629 63.5274 173.566 63.5903C173.503 63.6531 173.468 63.7383 173.468 63.8272V66.8392C173.468 66.9285 173.433 67.0143 173.369 67.0774C173.306 67.1406 173.221 67.1761 173.131 67.1761H172.89C172.801 67.1756 172.716 67.1399 172.653 67.0768C172.59 67.0136 172.555 66.9282 172.555 66.8392V63.8272C172.555 63.7382 172.519 63.6529 172.456 63.5902C172.393 63.5274 172.307 63.4921 172.218 63.4921H171.552C171.462 63.4921 171.377 63.4566 171.314 63.3934C171.25 63.3302 171.215 63.2445 171.215 63.1552V63.0893C171.215 62.9999 171.25 62.9142 171.314 62.851C171.377 62.7878 171.462 62.7523 171.552 62.7523H174.488C174.578 62.7523 174.664 62.7878 174.727 62.851C174.79 62.9142 174.825 62.9999 174.825 63.0893V63.1552C174.825 63.2445 174.79 63.3302 174.727 63.3934C174.664 63.4566 174.578 63.4921 174.488 63.4921Z" fill="#FF6C37"/>
<path d="M177.665 65.2561H176.584C176.495 65.2561 176.41 65.2914 176.347 65.3542C176.284 65.417 176.249 65.5023 176.249 65.5911V66.1051C176.249 66.1941 176.284 66.2795 176.347 66.3427C176.41 66.4058 176.495 66.4415 176.584 66.442H177.97C178.014 66.442 178.057 66.4508 178.098 66.4677C178.139 66.4847 178.176 66.5095 178.207 66.5408C178.238 66.5721 178.263 66.6093 178.28 66.6502C178.296 66.691 178.305 66.7348 178.305 66.779V66.8392C178.305 66.8834 178.296 66.9272 178.28 66.968C178.263 67.0089 178.238 67.0461 178.207 67.0774C178.176 67.1087 178.139 67.1335 178.098 67.1505C178.057 67.1675 178.014 67.1762 177.97 67.1762H175.673C175.584 67.1762 175.498 67.1407 175.435 67.0775C175.371 67.0143 175.336 66.9286 175.336 66.8392V63.0743C175.336 62.9849 175.371 62.8992 175.435 62.836C175.498 62.7728 175.584 62.7373 175.673 62.7373H177.964C178.053 62.7378 178.138 62.7735 178.201 62.8367C178.264 62.8998 178.299 62.9852 178.299 63.0743V63.1402C178.299 63.2292 178.264 63.3146 178.201 63.3778C178.138 63.4409 178.053 63.4766 177.964 63.4771H176.584C176.495 63.4771 176.41 63.5124 176.347 63.5753C176.284 63.6381 176.249 63.7233 176.249 63.8122V64.1887C176.249 64.2777 176.284 64.3632 176.347 64.4263C176.41 64.4894 176.495 64.5252 176.584 64.5257H177.665C177.754 64.5257 177.839 64.5609 177.902 64.6237C177.965 64.6865 178.001 64.7717 178.002 64.8607V64.904C178.004 64.9495 177.996 64.995 177.98 65.0376C177.964 65.0803 177.94 65.1192 177.908 65.1521C177.877 65.185 177.839 65.2112 177.797 65.229C177.755 65.2469 177.71 65.2561 177.665 65.2561Z" fill="#FF6C37"/>
<path d="M181.145 66.0128C181.146 65.9419 181.135 65.8713 181.113 65.8039C181.086 65.7364 181.041 65.6773 180.983 65.6325C180.902 65.5699 180.813 65.518 180.718 65.4782C180.576 65.4156 180.43 65.3615 180.281 65.3163C180.089 65.2544 179.9 65.1815 179.716 65.0979C179.547 65.0234 179.388 64.9265 179.244 64.8099C179.114 64.7063 179.005 64.5784 178.924 64.4334C178.845 64.2765 178.805 64.1034 178.805 63.928C178.805 63.7525 178.845 63.5794 178.924 63.4225C179.004 63.2677 179.12 63.1337 179.261 63.031C179.418 62.9177 179.593 62.8324 179.779 62.7787C179.993 62.7181 180.215 62.6883 180.437 62.6902C180.665 62.6873 180.891 62.7217 181.108 62.7919C181.296 62.8524 181.47 62.949 181.622 63.0761C181.761 63.1946 181.873 63.3425 181.949 63.5091C181.967 63.5455 181.982 63.5813 181.994 63.6164C182.011 63.667 182.015 63.7209 182.007 63.7735C181.999 63.8262 181.978 63.8762 181.947 63.9193C181.916 63.9625 181.875 63.9977 181.828 64.0219C181.78 64.0461 181.728 64.0588 181.674 64.0588H181.43C181.358 64.0584 181.289 64.0356 181.232 63.9937C181.174 63.9518 181.132 63.8929 181.109 63.8254C181.109 63.8254 181.109 63.8084 181.109 63.8009C181.08 63.7234 181.034 63.6533 180.974 63.5957C180.907 63.5365 180.829 63.4917 180.744 63.4639C180.64 63.4302 180.532 63.4143 180.422 63.4169C180.317 63.4151 180.212 63.4284 180.11 63.4564C180.031 63.4793 179.957 63.5163 179.892 63.5656C179.835 63.6094 179.791 63.6663 179.762 63.7312C179.732 63.7935 179.716 63.8617 179.716 63.9308C179.717 64.0078 179.738 64.0834 179.777 64.1496C179.816 64.2158 179.873 64.2703 179.94 64.3073C180.145 64.4294 180.365 64.5219 180.596 64.5821C180.815 64.6485 181.028 64.7322 181.234 64.8325C181.402 64.9124 181.556 65.0171 181.693 65.1431C181.811 65.2528 181.906 65.3853 181.972 65.5328C182.036 65.6877 182.068 65.8543 182.066 66.0222C182.069 66.2021 182.03 66.3802 181.951 66.5418C181.874 66.6911 181.763 66.8201 181.627 66.9183C181.475 67.0286 181.303 67.1097 181.121 67.1573C180.905 67.2163 180.682 67.2448 180.458 67.2421C180.312 67.2417 180.166 67.2291 180.021 67.2044C179.878 67.1798 179.737 67.14 179.602 67.0858C179.469 67.0378 179.343 66.9746 179.225 66.8976C179.113 66.8198 179.013 66.7259 178.928 66.619C178.843 66.5079 178.776 66.3839 178.73 66.2519V66.2312C178.714 66.1808 178.711 66.1275 178.72 66.0756C178.728 66.0236 178.749 65.9744 178.781 65.932C178.812 65.8897 178.853 65.8553 178.9 65.8317C178.947 65.8081 178.999 65.796 179.052 65.7963H179.287C179.361 65.7965 179.432 65.8207 179.491 65.8652C179.549 65.9097 179.591 65.9721 179.611 66.0429C179.62 66.0752 179.631 66.1066 179.645 66.137C179.684 66.2263 179.745 66.3045 179.822 66.3648C179.905 66.4246 179.999 66.4675 180.099 66.491C180.216 66.5184 180.336 66.5317 180.456 66.5305C180.56 66.5319 180.664 66.5193 180.765 66.4928C180.843 66.4716 180.915 66.4358 180.98 66.3874C181.035 66.3456 181.079 66.2906 181.108 66.2274C181.136 66.1595 181.149 66.0862 181.145 66.0128Z" fill="#FF6C37"/>
<path d="M185.677 63.4921H184.991C184.902 63.4921 184.817 63.5274 184.754 63.5903C184.692 63.6531 184.656 63.7383 184.656 63.8272V66.8392C184.656 66.9285 184.621 67.0142 184.558 67.0774C184.494 67.1406 184.409 67.1761 184.319 67.1761H184.078C183.989 67.1756 183.904 67.1399 183.841 67.0768C183.778 67.0136 183.743 66.9282 183.743 66.8392V63.8272C183.743 63.7382 183.707 63.6529 183.644 63.5902C183.581 63.5274 183.495 63.4921 183.406 63.4921H182.746C182.656 63.4916 182.571 63.4559 182.508 63.3928C182.446 63.3296 182.41 63.2442 182.41 63.1552V63.0893C182.409 63.0441 182.416 62.999 182.432 62.9567C182.448 62.9144 182.472 62.8758 182.504 62.8431C182.535 62.8104 182.572 62.7844 182.614 62.7665C182.656 62.7487 182.7 62.7394 182.746 62.7391H185.682C185.772 62.7391 185.857 62.7746 185.92 62.8378C185.984 62.901 186.019 62.9867 186.019 63.0761V63.142C186.021 63.1878 186.013 63.2335 185.997 63.2763C185.98 63.3191 185.955 63.3581 185.923 63.3909C185.891 63.4237 185.853 63.4495 185.81 63.467C185.768 63.4844 185.722 63.4929 185.677 63.4921Z" fill="#FF6C37"/>
<path d="M187.17 67.1762H186.929C186.84 67.1757 186.755 67.14 186.692 67.0768C186.629 67.0137 186.594 66.9283 186.594 66.8392V63.0743C186.594 62.9852 186.629 62.8998 186.692 62.8367C186.755 62.7735 186.84 62.7378 186.929 62.7373H187.17C187.259 62.7373 187.345 62.7728 187.408 62.836C187.471 62.8992 187.507 62.9849 187.507 63.0743V66.8392C187.507 66.9286 187.471 67.0143 187.408 67.0775C187.345 67.1407 187.259 67.1762 187.17 67.1762Z" fill="#FF6C37"/>
<path d="M191.618 67.1762H191.23C191.172 67.1761 191.116 67.1611 191.066 67.1327C191.015 67.1044 190.974 67.0636 190.944 67.0143L189.888 65.2824C189.849 65.2204 189.791 65.1726 189.723 65.1462C189.655 65.1198 189.581 65.1162 189.51 65.136C189.44 65.1557 189.378 65.1977 189.334 65.2557C189.289 65.3137 189.265 65.3845 189.265 65.4575V66.8392C189.265 66.9286 189.229 67.0143 189.166 67.0775C189.103 67.1407 189.017 67.1762 188.928 67.1762H188.689C188.599 67.1762 188.513 67.1407 188.45 67.0775C188.387 67.0143 188.352 66.9286 188.352 66.8392V63.0743C188.352 62.9849 188.387 62.8992 188.45 62.836C188.513 62.7728 188.599 62.7373 188.689 62.7373H189.076C189.134 62.7374 189.19 62.7524 189.241 62.7807C189.291 62.8091 189.333 62.8499 189.362 62.8992L190.42 64.6348C190.458 64.6976 190.516 64.7462 190.584 64.7732C190.652 64.8002 190.728 64.8043 190.798 64.7847C190.869 64.7651 190.932 64.7229 190.976 64.6646C191.021 64.6063 191.045 64.5351 191.045 64.4617V63.0743C191.045 62.9852 191.081 62.8998 191.143 62.8367C191.206 62.7735 191.291 62.7378 191.38 62.7373H191.618C191.707 62.7373 191.793 62.7728 191.856 62.836C191.919 62.8992 191.955 62.9849 191.955 63.0743V66.8392C191.955 66.9286 191.919 67.0143 191.856 67.0775C191.793 67.1407 191.707 67.1762 191.618 67.1762Z" fill="#FF6C37"/>
<path d="M196.255 66.4796C196.256 66.5268 196.246 66.5736 196.227 66.6167C196.208 66.6599 196.179 66.6985 196.144 66.73C196.114 66.7582 196.078 66.7883 196.041 66.8185C195.934 66.8981 195.818 66.9651 195.696 67.018C195.539 67.0865 195.376 67.1389 195.209 67.1743C194.996 67.2181 194.779 67.2389 194.561 67.2364C194.293 67.2398 194.028 67.1919 193.778 67.0952C193.546 67.0042 193.339 66.862 193.17 66.6792C192.995 66.4843 192.863 66.2555 192.78 66.0071C192.683 65.7127 192.636 65.4041 192.641 65.0941V64.8325C192.636 64.5223 192.682 64.2134 192.775 63.9176C192.853 63.6697 192.981 63.4404 193.151 63.2436C193.312 63.0618 193.512 62.9195 193.737 62.8276C193.979 62.7294 194.239 62.6808 194.501 62.6845C194.756 62.6788 195.01 62.7151 195.254 62.7919C195.449 62.8547 195.628 62.958 195.781 63.0949C195.922 63.225 196.034 63.3835 196.11 63.5599C196.133 63.6095 196.152 63.6604 196.169 63.7124C196.185 63.763 196.19 63.8168 196.182 63.8695C196.173 63.9222 196.153 63.9721 196.122 64.0153C196.09 64.0585 196.049 64.0936 196.002 64.1179C195.955 64.1421 195.902 64.1548 195.849 64.1548H195.636C195.565 64.1538 195.497 64.1308 195.44 64.0889C195.384 64.0471 195.341 63.9884 195.32 63.9213L195.291 63.8517C195.256 63.7642 195.202 63.6852 195.133 63.6201C195.062 63.5532 194.977 63.5025 194.885 63.4714C194.772 63.4352 194.653 63.418 194.535 63.4206C194.396 63.4134 194.257 63.4422 194.133 63.5042C194.008 63.5662 193.901 63.6593 193.823 63.7745C193.639 64.0932 193.554 64.4595 193.578 64.8268V65.0941C193.553 65.4642 193.646 65.8328 193.844 66.1464C193.933 66.2632 194.048 66.3568 194.181 66.4191C194.314 66.4814 194.46 66.5105 194.606 66.5041C194.702 66.5057 194.798 66.4988 194.892 66.4834C194.963 66.4721 195.033 66.4545 195.101 66.4307C195.151 66.412 195.199 66.3887 195.244 66.361C195.279 66.3391 195.311 66.3139 195.34 66.2857V65.8584C195.34 65.769 195.305 65.6833 195.242 65.6201C195.179 65.5569 195.093 65.5214 195.003 65.5214H194.845C194.756 65.5214 194.671 65.4862 194.608 65.4234C194.545 65.3606 194.509 65.2754 194.508 65.1864C194.508 65.097 194.544 65.0113 194.607 64.9481C194.67 64.8849 194.756 64.8494 194.845 64.8494H195.924C195.968 64.8494 196.012 64.8581 196.053 64.8751C196.093 64.892 196.13 64.9169 196.162 64.9482C196.193 64.9795 196.217 65.0167 196.234 65.0575C196.251 65.0984 196.259 65.1422 196.259 65.1864L196.255 66.4796Z" fill="#FF6C37"/>
</g>
<defs>
<clipPath id="clip0_1204_20098">
<rect width="293.983" height="200" fill="white"/>
</clipPath>
</defs>
</svg>
