<svg width="320" height="200" viewBox="0 0 320 200" fill="none" xmlns="http://www.w3.org/2000/svg">
<g clip-path="url(#clip0_1204_20971)">
<path d="M3.51172 190.021H316.569" stroke="#263238" stroke-linecap="round" stroke-linejoin="round"/>
<path d="M245.213 132.664V133.792H244.086" stroke="#FF6C37" stroke-miterlimit="10"/>
<path d="M241.793 133.792H119.234" stroke="#FF6C37" stroke-miterlimit="10" stroke-dasharray="5.08 5.08"/>
<path d="M118.092 133.792H116.965V132.664" stroke="#FF6C37" stroke-miterlimit="10"/>
<path d="M116.965 130.405V18.6512" stroke="#FF6C37" stroke-miterlimit="10" stroke-dasharray="5.01 5.01"/>
<path d="M116.965 17.5239V16.3965H118.092" stroke="#FF6C37" stroke-miterlimit="10"/>
<path d="M120.383 16.3965H242.941" stroke="#FF6C37" stroke-miterlimit="10" stroke-dasharray="5.08 5.08"/>
<path d="M244.086 16.3965H245.213V17.5239" stroke="#FF6C37" stroke-miterlimit="10"/>
<path d="M245.215 19.7786V131.533" stroke="#FF6C37" stroke-miterlimit="10" stroke-dasharray="5.01 5.01"/>
<path d="M100.94 168.835V169.962H99.8125" stroke="#FF6C37" stroke-miterlimit="10"/>
<path d="M97.5238 169.962H2.5" stroke="#FF6C37" stroke-miterlimit="10" stroke-dasharray="5.08 5.08"/>
<path d="M1.35393 169.962H0.226562V168.835" stroke="#FF6C37" stroke-miterlimit="10"/>
<path d="M0.226562 166.612V78.7671" stroke="#FF6C37" stroke-miterlimit="10" stroke-dasharray="4.93 4.93"/>
<path d="M0.226562 77.6532V76.5259H1.35393" stroke="#FF6C37" stroke-miterlimit="10"/>
<path d="M3.64453 76.5259H98.6683" stroke="#FF6C37" stroke-miterlimit="10" stroke-dasharray="5.08 5.08"/>
<path d="M99.8125 76.5259H100.94V77.6532" stroke="#FF6C37" stroke-miterlimit="10"/>
<path d="M100.941 79.8765V167.721" stroke="#FF6C37" stroke-miterlimit="10" stroke-dasharray="4.93 4.93"/>
<path d="M314.358 168.835V169.962H313.23" stroke="#FF6C37" stroke-miterlimit="10"/>
<path d="M310.942 169.962H215.914" stroke="#FF6C37" stroke-miterlimit="10" stroke-dasharray="5.08 5.08"/>
<path d="M214.768 169.962H213.641V168.835" stroke="#FF6C37" stroke-miterlimit="10"/>
<path d="M213.641 166.612V78.7671" stroke="#FF6C37" stroke-miterlimit="10" stroke-dasharray="4.93 4.93"/>
<path d="M213.641 77.6532V76.5259H214.768" stroke="#FF6C37" stroke-miterlimit="10"/>
<path d="M217.059 76.5259H312.082" stroke="#FF6C37" stroke-miterlimit="10" stroke-dasharray="5.08 5.08"/>
<path d="M313.23 76.5259H314.358V77.6532" stroke="#FF6C37" stroke-miterlimit="10"/>
<path d="M314.355 79.8765V167.721" stroke="#FF6C37" stroke-miterlimit="10" stroke-dasharray="4.93 4.93"/>
<g opacity="0.5">
<path d="M163.655 126.622C163.655 126.622 162.599 129.517 160.358 129.914C158.117 130.31 154.167 125.963 156.669 123.722C159.172 121.481 162.599 125.039 163.655 126.622Z" fill="#C7C7C7" stroke="#263238" stroke-linecap="round" stroke-linejoin="round"/>
<path d="M167.075 112.39C167.075 112.39 163.783 120.426 165.1 124.38C166.417 128.335 174.57 131.23 176.96 126.094C179.35 120.958 174.06 113.707 172.085 112.115C170.11 110.523 167.734 111.073 167.075 112.39Z" fill="#C7C7C7" stroke="#263238" stroke-linecap="round" stroke-linejoin="round"/>
<path d="M186.316 115.817C186.316 115.817 180.652 120.953 180.002 126.094C179.353 131.235 183.159 133.075 187.118 132.407C191.078 131.74 193.044 121.738 191.858 117.125C190.672 112.512 186.316 115.817 186.316 115.817Z" fill="#C7C7C7" stroke="#263238" stroke-linecap="round" stroke-linejoin="round"/>
<path d="M187.371 144.276C187.371 144.276 181.058 144.538 180.783 147.568C180.508 150.599 183.552 151.257 186.582 148.624C189.613 145.99 190.005 144.407 187.371 144.276Z" fill="#C7C7C7" stroke="#263238" stroke-linecap="round" stroke-linejoin="round"/>
<path d="M180.887 148.29C180.887 148.29 185.874 146.012 188.102 145.616" stroke="#263238" stroke-miterlimit="10"/>
<path d="M188.781 164.105C188.781 164.105 184.131 159.807 181.8 161.755C179.469 163.703 181.133 166.319 185.137 166.612C189.141 166.905 190.544 166.066 188.781 164.105Z" fill="#C7C7C7" stroke="#263238" stroke-linecap="round" stroke-linejoin="round"/>
<path d="M181.359 162.337C181.359 162.337 186.491 164.267 188.354 165.579" stroke="#263238" stroke-miterlimit="10"/>
<path d="M164.272 162.837C164.272 162.837 170.676 156.912 173.891 159.6C177.106 162.287 174.793 165.89 169.292 166.292C163.79 166.693 161.842 165.543 164.272 162.837Z" fill="#C7C7C7" stroke="#263238" stroke-linecap="round" stroke-linejoin="round"/>
<path d="M174.501 160.402C174.501 160.402 167.43 163.058 164.859 164.871" stroke="#263238" stroke-miterlimit="10"/>
<path d="M171.69 150.599C171.69 150.599 171.031 153.755 168.659 154.95C166.287 156.145 162.071 153.629 164.312 149.809C166.553 145.99 170.504 149.02 171.69 150.599Z" fill="#C7C7C7" stroke="#263238" stroke-linecap="round" stroke-linejoin="round"/>
<path d="M166.157 140.718C166.157 140.718 164.971 138.085 160.358 139.794C155.745 141.503 153.905 144.146 156.8 145.066C159.695 145.985 166.157 140.718 166.157 140.718Z" fill="#C7C7C7" stroke="#263238" stroke-linecap="round" stroke-linejoin="round"/>
<path d="M165.272 140.597C165.272 140.597 160.389 141.124 157.746 143.37" stroke="#263238" stroke-miterlimit="10"/>
<path d="M179.332 109.098C179.332 109.098 180.121 110.942 181.704 110.545C183.287 110.149 183.679 107.777 186.182 108.435C188.685 109.093 190.795 111.993 190.795 110.69C190.795 109.386 187.639 105.946 184.076 105.946C180.514 105.946 179.463 107.384 179.332 109.098Z" fill="#C7C7C7" stroke="#263238" stroke-linecap="round" stroke-linejoin="round"/>
<path d="M166.156 140.718C166.156 140.718 171.829 139.627 174.192 145.931C174.426 146.561 174.623 147.204 174.783 147.857" stroke="#263238" stroke-miterlimit="10"/>
<path d="M189.836 134.626C189.836 134.626 191.017 131.988 195.631 133.702C200.244 135.415 202.088 138.049 199.189 138.973C196.289 139.898 189.836 134.626 189.836 134.626Z" fill="#C7C7C7" stroke="#263238" stroke-linecap="round" stroke-linejoin="round"/>
<path d="M190.879 134.788C190.879 134.788 195.632 134.522 197.878 137.296" stroke="#263238" stroke-miterlimit="10"/>
<path d="M189.838 134.626C188.505 134.436 187.145 134.621 185.91 135.158" stroke="#263238" stroke-miterlimit="10"/>
<path d="M169.177 129.887C166.399 127.05 163.653 126.622 163.653 126.622C163.653 126.622 159.595 125.548 158.012 127.001" stroke="#263238" stroke-miterlimit="10"/>
<path d="M169.748 115.294L169.5 114.189" stroke="#263238" stroke-miterlimit="10"/>
<path d="M176.159 173.543C176.159 173.543 176.749 150.851 176.159 143.961C175.568 137.07 172.813 128.998 172.813 128.998L170.008 116.457" stroke="#263238" stroke-miterlimit="10"/>
<path d="M187.871 120.164L188.381 119.077" stroke="#263238" stroke-miterlimit="10"/>
<path d="M177.539 173.516C177.539 173.516 177.737 152.822 178.522 146.91C179.307 140.998 182.463 131.749 182.463 131.749L187.298 121.377" stroke="#263238" stroke-miterlimit="10"/>
<path d="M180.883 148.29C180.883 148.29 179.53 160.159 178.719 173.543" stroke="#263238" stroke-miterlimit="10"/>
<path d="M174.194 173.516C174.194 173.516 174.586 154.576 173.801 152.033C173.017 149.489 171.691 150.599 171.691 150.599C171.691 150.599 168.047 151.027 166.73 153.142" stroke="#263238" stroke-miterlimit="10"/>
<path d="M175.094 149.331C176.126 155.104 175.175 173.538 175.175 173.538" stroke="#263238" stroke-miterlimit="10"/>
<path d="M184.791 135.767C183.393 136.773 182.345 138.193 181.797 139.826C179.438 146.139 179.704 173.547 179.704 173.547" stroke="#263238" stroke-miterlimit="10"/>
<path d="M169.867 130.64C171.345 132.428 172.479 134.475 173.209 136.678C176.365 145.733 177.538 169.187 176.947 173.516" stroke="#263238" stroke-miterlimit="10"/>
<path d="M177.868 139.136C177.674 150.567 177.539 173.538 177.539 173.538" stroke="#263238" stroke-miterlimit="10"/>
<path d="M177.891 137.692C178.021 130.135 178.175 122.739 178.342 118.753C178.734 108.512 179.347 109.089 179.347 109.089C179.347 109.089 180.073 106.789 184.168 107.051" stroke="#263238" stroke-miterlimit="10"/>
<path d="M172.838 146.324C172.838 146.324 169.542 143.388 170.863 141.94C172.185 140.493 180.333 139.438 182.719 141.314C185.104 143.19 179.824 145.823 177.844 146.418C175.864 147.014 173.506 146.802 172.838 146.324Z" fill="#C7C7C7" stroke="#263238" stroke-linecap="round" stroke-linejoin="round"/>
<path d="M175.893 143.92C175.844 144.209 175.818 144.502 175.816 144.795" stroke="#263238" stroke-miterlimit="10"/>
<path d="M177.024 140.488C176.685 141.193 176.401 141.923 176.176 142.671" stroke="#263238" stroke-miterlimit="10"/>
<path d="M172.838 165.53C172.838 165.53 169.542 162.594 170.863 161.146C172.185 159.699 180.333 158.644 182.719 160.519C185.104 162.395 179.824 165.029 177.844 165.624C175.864 166.219 173.506 166.012 172.838 165.53Z" fill="#C7C7C7" stroke="#263238" stroke-linecap="round" stroke-linejoin="round"/>
<path d="M177.025 159.694C177.025 159.694 175.816 162.107 175.816 164.001" stroke="#263238" stroke-miterlimit="10"/>
<path d="M175.304 157.408C175.304 157.408 173.049 155.415 173.951 154.432C174.853 153.449 180.395 152.732 182.005 154.008C183.615 155.284 180.035 157.079 178.695 157.471C177.356 157.863 175.751 157.733 175.304 157.408Z" fill="#C7C7C7" stroke="#263238" stroke-linecap="round" stroke-linejoin="round"/>
<path d="M178.133 153.444C177.679 154.36 177.402 155.353 177.316 156.371" stroke="#263238" stroke-miterlimit="10"/>
<path d="M181.122 170.251H172.207V190.025H181.122V170.251Z" fill="#263238" stroke="#263238" stroke-linecap="round" stroke-linejoin="round"/>
</g>
<path d="M50.332 35.8684V39.0882L53.4165 39.5392C53.698 41.0861 54.3018 42.5565 55.1887 43.8547L53.3128 46.3575L55.5901 48.6348L58.0838 46.7679C59.3768 47.6648 60.8441 48.2794 62.3904 48.5717L62.8413 51.6652H66.0611L66.5121 48.5807C68.0593 48.3004 69.5299 47.6965 70.8276 46.8084L73.3304 48.6844L75.6077 46.4296L73.7407 43.9359C74.6397 42.6457 75.2545 41.1794 75.5445 39.6339L78.6426 39.1829V35.9631L75.5581 35.5122C75.2759 33.9655 74.6721 32.4953 73.7858 31.1966L75.6347 28.6533L73.3574 26.3985L70.8637 28.27C69.5717 27.3712 68.104 26.7564 66.5571 26.4662L66.1062 23.3682H62.8864L62.4355 26.4527C60.8968 26.7304 59.4331 27.3264 58.1379 28.2023L55.6352 26.3264L53.3579 28.5811L55.2248 31.0749C54.3277 32.3677 53.7131 33.8351 53.421 35.3814L50.332 35.8684ZM64.4738 29.6995C66.0185 29.6995 67.5286 30.1575 68.813 31.0158C70.0974 31.874 71.0985 33.0938 71.6897 34.521C72.2808 35.9481 72.4355 37.5186 72.1341 39.0336C71.8327 40.5487 71.0889 41.9404 69.9966 43.0327C68.9043 44.125 67.5126 44.8689 65.9975 45.1702C64.4824 45.4716 62.912 45.3169 61.4848 44.7258C60.0577 44.1346 58.8379 43.1336 57.9796 41.8491C57.1214 40.5647 56.6633 39.0547 56.6633 37.5099C56.661 36.4825 56.8612 35.4647 57.2526 34.5148C57.644 33.5648 58.2189 32.7014 58.9443 31.9738C59.6697 31.2463 60.5315 30.669 61.4803 30.2748C62.4291 29.8807 63.4464 29.6775 64.4738 29.6769V29.6995Z" stroke="#FF6C37" stroke-miterlimit="10"/>
<path d="M76.8164 32.7478V35.5031L79.4545 35.8819C79.6965 37.2038 80.2127 38.4603 80.9696 39.5707L79.3688 41.7307L81.3169 43.6788L83.4453 42.0779C84.5513 42.8445 85.8069 43.3685 87.1296 43.6157L87.5084 46.2628H90.2637L90.638 43.6247C91.9624 43.3866 93.2212 42.8702 94.3312 42.1095L96.4687 43.7149L98.4349 41.7307L96.8385 39.5977C97.6031 38.4924 98.127 37.2387 98.3762 35.918L101.023 35.5392V32.8019L98.3853 32.4232C98.1451 31.1007 97.6288 29.8438 96.8701 28.7344L98.4754 26.5924L96.5274 24.6443L94.3763 26.2452C93.2716 25.4795 92.0177 24.9555 90.6966 24.7074L90.3178 22.0604H87.5625L87.1837 24.6984C85.8605 24.9359 84.603 25.4524 83.4949 26.2136L81.3529 24.5947L79.4049 26.5428L81.0057 28.6758C80.2393 29.7802 79.7153 31.0342 79.468 32.3555L76.8164 32.7478ZM88.9108 27.4763C90.2317 27.4763 91.523 27.8679 92.6212 28.6018C93.7195 29.3356 94.5755 30.3787 95.081 31.599C95.5865 32.8194 95.7187 34.1622 95.461 35.4577C95.2034 36.7532 94.5673 37.9432 93.6333 38.8772C92.6993 39.8112 91.5093 40.4473 90.2138 40.705C88.9182 40.9627 87.5754 40.8304 86.3551 40.325C85.1347 39.8195 84.0917 38.9635 83.3578 37.8652C82.624 36.7669 82.2323 35.4757 82.2323 34.1548C82.2323 32.3835 82.9359 30.6848 84.1884 29.4323C85.4409 28.1799 87.1396 27.4763 88.9108 27.4763Z" stroke="#407BFF" stroke-miterlimit="10"/>
<path d="M214.727 149.958V153.183L217.816 153.634C218.095 155.18 218.697 156.651 219.583 157.949L217.707 160.452L219.989 162.729L222.478 160.858C223.772 161.754 225.239 162.368 226.785 162.662L227.236 165.76H230.46L230.911 162.671C232.46 162.392 233.932 161.79 235.231 160.903L237.729 162.779L240.011 160.497L238.14 158.008C239.036 156.714 239.65 155.247 239.944 153.701L243.037 153.25V150.026L239.953 149.575C239.674 148.026 239.07 146.553 238.18 145.255L240.034 142.743L237.779 140.461L235.285 142.333C233.994 141.436 232.528 140.821 230.983 140.529L230.532 137.435H227.308L226.857 140.52C225.309 140.799 223.839 141.403 222.542 142.292L220.039 140.416L217.761 142.671L219.633 145.165C218.736 146.456 218.121 147.922 217.829 149.467L214.727 149.958ZM228.868 143.794C230.413 143.793 231.924 144.25 233.209 145.108C234.494 145.966 235.496 147.185 236.087 148.612C236.679 150.039 236.835 151.61 236.534 153.125C236.233 154.641 235.489 156.033 234.397 157.125C233.305 158.218 231.913 158.963 230.398 159.264C228.883 159.566 227.312 159.412 225.885 158.821C224.457 158.23 223.237 157.228 222.379 155.944C221.521 154.659 221.062 153.149 221.062 151.604C221.059 150.577 221.258 149.559 221.649 148.609C222.039 147.659 222.614 146.795 223.339 146.067C224.064 145.339 224.926 144.762 225.875 144.368C226.824 143.974 227.841 143.771 228.868 143.771V143.794Z" stroke="#FF6C37" stroke-miterlimit="10"/>
<path d="M241.215 146.838V149.593L243.853 149.972C244.093 151.296 244.609 152.554 245.368 153.665L243.763 155.821L245.711 157.769L247.844 156.168C248.948 156.934 250.202 157.458 251.524 157.706L251.902 160.357H254.658L255.036 157.719C256.358 157.477 257.615 156.961 258.725 156.204L260.867 157.805L262.815 155.857L261.228 153.71C261.994 152.604 262.518 151.349 262.766 150.026L265.413 149.647V146.892L262.775 146.518C262.537 145.193 262.02 143.934 261.259 142.824L262.865 140.687L260.917 138.739L258.784 140.335C257.679 139.57 256.425 139.046 255.104 138.797L254.725 136.15H251.97L251.591 138.788C250.269 139.028 249.012 139.545 247.902 140.303L245.747 138.685L243.803 140.633L245.4 142.766C244.634 143.87 244.11 145.124 243.862 146.445L241.215 146.838ZM253.309 141.566C254.63 141.566 255.921 141.958 257.02 142.692C258.118 143.426 258.974 144.469 259.479 145.689C259.985 146.909 260.117 148.252 259.86 149.548C259.602 150.843 258.966 152.033 258.032 152.967C257.098 153.901 255.908 154.537 254.612 154.795C253.317 155.053 251.974 154.92 250.754 154.415C249.533 153.909 248.49 153.053 247.756 151.955C247.022 150.857 246.631 149.566 246.631 148.245C246.632 146.474 247.336 144.776 248.588 143.524C249.84 142.271 251.538 141.567 253.309 141.566Z" stroke="#407BFF" stroke-miterlimit="10"/>
<path d="M273.438 25.4966V28.2519L276.076 28.6307C276.315 29.9534 276.831 31.2105 277.591 32.3195L275.985 34.4615L277.933 36.4096L280.066 34.8087C281.171 35.5744 282.425 36.0984 283.746 36.3464L284.125 38.998H286.88L287.259 36.36C288.581 36.1186 289.838 35.6024 290.948 34.8448L293.09 36.4456L295.047 34.5156L293.446 32.3871C294.213 31.2811 294.737 30.0256 294.984 28.7029L297.635 28.3241V25.5507L294.997 25.1764C294.756 23.8529 294.24 22.5948 293.482 21.4832L295.083 19.3457L293.126 17.3795L290.988 18.9939C289.881 18.2292 288.626 17.7054 287.304 17.4562L286.93 14.8091H284.179L283.805 17.4472C282.481 17.6873 281.223 18.2035 280.112 18.9624L277.974 17.3795L276.026 19.3276L277.622 21.4381C276.866 22.5458 276.35 23.7991 276.107 25.1178L273.438 25.4966ZM285.532 20.225C286.853 20.225 288.144 20.6167 289.242 21.3506C290.341 22.0844 291.197 23.1275 291.702 24.3478C292.208 25.5681 292.34 26.911 292.082 28.2065C291.824 29.502 291.188 30.692 290.254 31.626C289.32 32.56 288.13 33.1961 286.835 33.4538C285.539 33.7115 284.197 33.5792 282.976 33.0737C281.756 32.5683 280.713 31.7123 279.979 30.614C279.245 29.5157 278.853 28.2245 278.853 26.9036C278.853 25.1323 279.557 23.4336 280.809 22.1811C282.062 20.9287 283.761 20.225 285.532 20.225Z" stroke="#407BFF" stroke-miterlimit="10"/>
<path d="M183.655 25.7717H277.1C278.119 25.7717 279.096 26.1765 279.817 26.897C280.537 27.6175 280.942 28.5948 280.942 29.6137V126.568H179.812V29.6137C179.812 28.5948 180.217 27.6175 180.938 26.897C181.658 26.1765 182.636 25.7717 183.655 25.7717Z" fill="#455A64" stroke="#455A64" stroke-linecap="round" stroke-linejoin="round"/>
<path d="M185.959 23.4493H279.405C280.424 23.4493 281.401 23.8541 282.121 24.5746C282.842 25.2951 283.247 26.2724 283.247 27.2914V124.245H182.117V27.2914C182.117 26.2724 182.522 25.2951 183.243 24.5746C183.963 23.8541 184.94 23.4493 185.959 23.4493Z" fill="white"/>
<path d="M185.959 23.4493H279.405C280.424 23.4493 281.401 23.8541 282.122 24.5746C282.842 25.2951 283.247 26.2724 283.247 27.2914V33.1041H182.117V27.3139C182.114 26.8075 182.211 26.3054 182.403 25.8367C182.595 25.3679 182.877 24.9417 183.235 24.5826C183.592 24.2234 184.016 23.9384 184.484 23.7439C184.951 23.5494 185.453 23.4493 185.959 23.4493Z" fill="#FF6C37"/>
<path d="M265.413 30.1639C266.28 30.1639 266.982 29.4613 266.982 28.5946C266.982 27.7279 266.28 27.0253 265.413 27.0253C264.546 27.0253 263.844 27.7279 263.844 28.5946C263.844 29.4613 264.546 30.1639 265.413 30.1639Z" fill="white" stroke="#455A64" stroke-linecap="round" stroke-linejoin="round"/>
<path d="M271.689 28.5946C271.689 28.2843 271.597 27.9808 271.425 27.7228C271.252 27.4647 271.007 27.2636 270.721 27.1448C270.434 27.026 270.118 26.9949 269.814 27.0555C269.51 27.116 269.23 27.2655 269.01 27.485C268.791 27.7044 268.641 27.9841 268.581 28.2885C268.52 28.5929 268.551 28.9084 268.67 29.1952C268.789 29.4819 268.99 29.727 269.248 29.8995C269.506 30.0719 269.81 30.1639 270.12 30.1639C270.536 30.1639 270.935 29.9986 271.23 29.7043C271.524 29.41 271.689 29.0108 271.689 28.5946Z" fill="white" stroke="#455A64" stroke-linecap="round" stroke-linejoin="round"/>
<path d="M274.831 30.1639C275.698 30.1639 276.4 29.4613 276.4 28.5946C276.4 27.7279 275.698 27.0253 274.831 27.0253C273.964 27.0253 273.262 27.7279 273.262 28.5946C273.262 29.4613 273.964 30.1639 274.831 30.1639Z" fill="#455A64" stroke="#455A64" stroke-linecap="round" stroke-linejoin="round"/>
<path d="M192.492 38.8627H199.928" stroke="#455A64" stroke-width="3" stroke-linecap="round" stroke-linejoin="round"/>
<path d="M192.492 43.2324H220.428" stroke="#407BFF" stroke-width="3" stroke-linecap="round" stroke-linejoin="round"/>
<path d="M235.703 43.2324H263.639" stroke="#407BFF" stroke-width="3" stroke-linecap="round" stroke-linejoin="round"/>
<path d="M222.238 43.2324H233.291" stroke="#455A64" stroke-width="3" stroke-linecap="round" stroke-linejoin="round"/>
<path d="M192.492 47.5975H208.568" stroke="#455A64" stroke-width="3" stroke-linecap="round" stroke-linejoin="round"/>
<path d="M210.582 47.5975H226.658" stroke="#455A64" stroke-width="3" stroke-linecap="round" stroke-linejoin="round"/>
<path d="M228.668 47.5975H244.749" stroke="#455A64" stroke-width="3" stroke-linecap="round" stroke-linejoin="round"/>
<path d="M246.754 47.5975H253.59" stroke="#455A64" stroke-width="3" stroke-linecap="round" stroke-linejoin="round"/>
<path d="M201.941 38.8627H209.378" stroke="#455A64" stroke-width="3" stroke-linecap="round" stroke-linejoin="round"/>
<path d="M246.156 38.8627H253.592" stroke="#455A64" stroke-width="3" stroke-linecap="round" stroke-linejoin="round"/>
<path d="M236.309 38.8627H243.745" stroke="#407BFF" stroke-width="3" stroke-linecap="round" stroke-linejoin="round"/>
<path d="M211.383 38.8627H233.091" stroke="#455A64" stroke-width="3" stroke-linecap="round" stroke-linejoin="round"/>
<path d="M192.492 65.5317H199.928" stroke="#455A64" stroke-width="3" stroke-linecap="round" stroke-linejoin="round"/>
<path d="M192.492 69.9014H220.428" stroke="#407BFF" stroke-width="3" stroke-linecap="round" stroke-linejoin="round"/>
<path d="M235.703 69.9014H263.639" stroke="#455A64" stroke-width="3" stroke-linecap="round" stroke-linejoin="round"/>
<path d="M222.238 69.9014H233.291" stroke="#455A64" stroke-width="3" stroke-linecap="round" stroke-linejoin="round"/>
<path d="M192.492 74.2666H208.568" stroke="#455A64" stroke-width="3" stroke-linecap="round" stroke-linejoin="round"/>
<path d="M210.582 74.2666H226.658" stroke="#455A64" stroke-width="3" stroke-linecap="round" stroke-linejoin="round"/>
<path d="M228.668 74.2666H244.749" stroke="#407BFF" stroke-width="3" stroke-linecap="round" stroke-linejoin="round"/>
<path d="M246.754 74.2666H253.59" stroke="#455A64" stroke-width="3" stroke-linecap="round" stroke-linejoin="round"/>
<path d="M201.941 65.5317H209.378" stroke="#455A64" stroke-width="3" stroke-linecap="round" stroke-linejoin="round"/>
<path d="M246.156 65.5317H253.592" stroke="#455A64" stroke-width="3" stroke-linecap="round" stroke-linejoin="round"/>
<path d="M236.309 65.5317H243.745" stroke="#407BFF" stroke-width="3" stroke-linecap="round" stroke-linejoin="round"/>
<path d="M211.383 65.5317H233.091" stroke="#455A64" stroke-width="3" stroke-linecap="round" stroke-linejoin="round"/>
<path d="M192.492 104.845H199.928" stroke="#455A64" stroke-width="3" stroke-linecap="round" stroke-linejoin="round"/>
<path d="M192.492 109.215H220.428" stroke="#407BFF" stroke-width="3" stroke-linecap="round" stroke-linejoin="round"/>
<path d="M235.703 109.215H263.639" stroke="#455A64" stroke-width="3" stroke-linecap="round" stroke-linejoin="round"/>
<path d="M222.238 109.215H233.291" stroke="#455A64" stroke-width="3" stroke-linecap="round" stroke-linejoin="round"/>
<path d="M192.492 113.58H208.568" stroke="#455A64" stroke-width="3" stroke-linecap="round" stroke-linejoin="round"/>
<path d="M210.582 113.58H226.658" stroke="#455A64" stroke-width="3" stroke-linecap="round" stroke-linejoin="round"/>
<path d="M228.668 113.58H244.749" stroke="#407BFF" stroke-width="3" stroke-linecap="round" stroke-linejoin="round"/>
<path d="M246.754 113.58H253.59" stroke="#455A64" stroke-width="3" stroke-linecap="round" stroke-linejoin="round"/>
<path d="M201.941 104.845H209.378" stroke="#455A64" stroke-width="3" stroke-linecap="round" stroke-linejoin="round"/>
<path d="M246.156 104.845H253.592" stroke="#455A64" stroke-width="3" stroke-linecap="round" stroke-linejoin="round"/>
<path d="M236.309 104.845H243.745" stroke="#407BFF" stroke-width="3" stroke-linecap="round" stroke-linejoin="round"/>
<path d="M211.383 104.845H233.091" stroke="#455A64" stroke-width="3" stroke-linecap="round" stroke-linejoin="round"/>
<path d="M234.297 52.1972H241.733" stroke="#455A64" stroke-width="3" stroke-linecap="round" stroke-linejoin="round"/>
<path d="M224.449 52.1972H231.885" stroke="#455A64" stroke-width="3" stroke-linecap="round" stroke-linejoin="round"/>
<path d="M199.527 52.1972H221.231" stroke="#455A64" stroke-width="3" stroke-linecap="round" stroke-linejoin="round"/>
<path d="M234.297 60.0121H241.733" stroke="#455A64" stroke-width="3" stroke-linecap="round" stroke-linejoin="round"/>
<path d="M224.449 60.0121H231.885" stroke="#455A64" stroke-width="3" stroke-linecap="round" stroke-linejoin="round"/>
<path d="M199.527 60.0121H221.231" stroke="#407BFF" stroke-width="3" stroke-linecap="round" stroke-linejoin="round"/>
<path d="M206.963 56.1069H199.527" stroke="#455A64" stroke-width="3" stroke-linecap="round" stroke-linejoin="round"/>
<path d="M216.811 56.1069H209.375" stroke="#455A64" stroke-width="3" stroke-linecap="round" stroke-linejoin="round"/>
<path d="M241.731 56.1069H220.027" stroke="#407BFF" stroke-width="3" stroke-linecap="round" stroke-linejoin="round"/>
<path d="M234.297 79.5563H241.733" stroke="#455A64" stroke-width="3" stroke-linecap="round" stroke-linejoin="round"/>
<path d="M224.449 79.5563H231.885" stroke="#455A64" stroke-width="3" stroke-linecap="round" stroke-linejoin="round"/>
<path d="M199.527 79.5563H221.231" stroke="#455A64" stroke-width="3" stroke-linecap="round" stroke-linejoin="round"/>
<path d="M234.297 87.3712H241.733" stroke="#455A64" stroke-width="3" stroke-linecap="round" stroke-linejoin="round"/>
<path d="M224.449 87.3712H231.885" stroke="#455A64" stroke-width="3" stroke-linecap="round" stroke-linejoin="round"/>
<path d="M199.527 87.3712H221.231" stroke="#407BFF" stroke-width="3" stroke-linecap="round" stroke-linejoin="round"/>
<path d="M206.963 83.4659H199.527" stroke="#455A64" stroke-width="3" stroke-linecap="round" stroke-linejoin="round"/>
<path d="M216.811 83.4659H209.375" stroke="#455A64" stroke-width="3" stroke-linecap="round" stroke-linejoin="round"/>
<path d="M241.731 83.4659H220.027" stroke="#407BFF" stroke-width="3" stroke-linecap="round" stroke-linejoin="round"/>
<path d="M206.963 91.9708H199.527" stroke="#455A64" stroke-width="3" stroke-linecap="round" stroke-linejoin="round"/>
<path d="M216.811 91.9708H209.375" stroke="#455A64" stroke-width="3" stroke-linecap="round" stroke-linejoin="round"/>
<path d="M241.731 91.9708H220.027" stroke="#407BFF" stroke-width="3" stroke-linecap="round" stroke-linejoin="round"/>
<path d="M206.963 99.7858H199.527" stroke="#455A64" stroke-width="3" stroke-linecap="round" stroke-linejoin="round"/>
<path d="M216.811 99.7858H209.375" stroke="#455A64" stroke-width="3" stroke-linecap="round" stroke-linejoin="round"/>
<path d="M241.731 99.7858H220.027" stroke="#407BFF" stroke-width="3" stroke-linecap="round" stroke-linejoin="round"/>
<path d="M234.297 95.8806H241.733" stroke="#455A64" stroke-width="3" stroke-linecap="round" stroke-linejoin="round"/>
<path d="M224.449 95.8806H231.885" stroke="#455A64" stroke-width="3" stroke-linecap="round" stroke-linejoin="round"/>
<path d="M199.527 95.8806H221.231" stroke="#407BFF" stroke-width="3" stroke-linecap="round" stroke-linejoin="round"/>
<path d="M189.74 37.3475H187.363V40.0306H189.74V37.3475Z" fill="#455A64"/>
<path d="M189.74 41.7532H187.363V44.4364H189.74V41.7532Z" fill="#455A64"/>
<path d="M189.74 46.1591H187.363V48.8422H189.74V46.1591Z" fill="#455A64"/>
<path d="M189.74 50.5648H187.363V53.248H189.74V50.5648Z" fill="#455A64"/>
<path d="M189.74 54.975H187.363V57.6582H189.74V54.975Z" fill="#455A64"/>
<path d="M189.74 59.3808H187.363V62.0639H189.74V59.3808Z" fill="#455A64"/>
<path d="M189.74 63.7866H187.363V66.4697H189.74V63.7866Z" fill="#455A64"/>
<path d="M189.74 68.1924H187.363V70.8755H189.74V68.1924Z" fill="#455A64"/>
<path d="M189.74 72.6026H187.363V75.2857H189.74V72.6026Z" fill="#455A64"/>
<path d="M189.74 77.0084H187.363V79.6915H189.74V77.0084Z" fill="#455A64"/>
<path d="M189.74 81.4141H187.363V84.0973H189.74V81.4141Z" fill="#455A64"/>
<path d="M189.74 85.8199H187.363V88.503H189.74V85.8199Z" fill="#455A64"/>
<path d="M189.74 90.2302H187.363V92.9133H189.74V90.2302Z" fill="#455A64"/>
<path d="M189.74 94.6359H187.363V97.3191H189.74V94.6359Z" fill="#455A64"/>
<path d="M189.74 99.0417H187.363V101.725H189.74V99.0417Z" fill="#455A64"/>
<path d="M189.74 103.452H187.363V106.135H189.74V103.452Z" fill="#455A64"/>
<path d="M189.74 107.858H187.363V110.541H189.74V107.858Z" fill="#455A64"/>
<path d="M189.74 112.263H187.363V114.947H189.74V112.263Z" fill="#455A64"/>
<path d="M72.0859 59.7913V124.033H123.738V59.7913H72.0859Z" fill="white" stroke="#263238" stroke-linecap="round" stroke-linejoin="round"/>
<path d="M79.9414 113.571H116.698" stroke="#263238" stroke-linecap="round" stroke-linejoin="round"/>
<path d="M79.9414 106.352H116.698" stroke="#263238" stroke-linecap="round" stroke-linejoin="round"/>
<path d="M79.9414 99.132H116.698" stroke="#263238" stroke-linecap="round" stroke-linejoin="round"/>
<path d="M79.9414 91.9123H116.698" stroke="#263238" stroke-linecap="round" stroke-linejoin="round"/>
<path d="M79.9414 84.6881H116.698" stroke="#263238" stroke-linecap="round" stroke-linejoin="round"/>
<path d="M79.9414 77.4684H116.698" stroke="#263238" stroke-linecap="round" stroke-linejoin="round"/>
<path d="M79.9414 70.2487H116.698" stroke="#263238" stroke-linecap="round" stroke-linejoin="round"/>
<path d="M123.578 59.5883H105.707V100.891H123.578V59.5883Z" fill="#263238" stroke="#263238" stroke-linecap="round" stroke-linejoin="round"/>
<path d="M107.758 34.5381V98.7802H159.409V34.5381H107.758Z" fill="white" stroke="#263238" stroke-linecap="round" stroke-linejoin="round"/>
<path d="M115.621 88.3228H152.378" stroke="#263238" stroke-linecap="round" stroke-linejoin="round"/>
<path d="M115.621 81.103H152.378" stroke="#263238" stroke-linecap="round" stroke-linejoin="round"/>
<path d="M115.621 73.8788H152.378" stroke="#263238" stroke-linecap="round" stroke-linejoin="round"/>
<path d="M115.621 66.6592H152.378" stroke="#263238" stroke-linecap="round" stroke-linejoin="round"/>
<path d="M115.621 59.4395H152.378" stroke="#263238" stroke-linecap="round" stroke-linejoin="round"/>
<path d="M115.621 52.2198H152.378" stroke="#263238" stroke-linecap="round" stroke-linejoin="round"/>
<path d="M115.621 45.0001H152.378" stroke="#263238" stroke-linecap="round" stroke-linejoin="round"/>
<path d="M140.968 142.098H71.9141L78.8136 190.016H146.979L140.968 142.098Z" fill="#263238" stroke="#263238" stroke-linecap="round" stroke-linejoin="round"/>
<path d="M92.2048 115.384H87.6367V123.722H92.2048V115.384Z" fill="#263238" stroke="#263238" stroke-linecap="round" stroke-linejoin="round"/>
<path d="M89.9219 112.354V176.596H141.573V112.354H89.9219Z" fill="white" stroke="#263238" stroke-linecap="round" stroke-linejoin="round"/>
<path d="M97.7812 166.134H134.538" stroke="#263238" stroke-linecap="round" stroke-linejoin="round"/>
<path d="M97.7812 158.914H134.538" stroke="#263238" stroke-linecap="round" stroke-linejoin="round"/>
<path d="M97.7812 151.694H134.538" stroke="#263238" stroke-linecap="round" stroke-linejoin="round"/>
<path d="M97.7812 144.475H134.538" stroke="#263238" stroke-linecap="round" stroke-linejoin="round"/>
<path d="M97.7812 137.255H134.538" stroke="#263238" stroke-linecap="round" stroke-linejoin="round"/>
<path d="M97.7812 130.035H134.538" stroke="#263238" stroke-linecap="round" stroke-linejoin="round"/>
<path d="M97.7812 122.816H134.538" stroke="#263238" stroke-linecap="round" stroke-linejoin="round"/>
<path d="M146.989 144.484V142.847C146.99 142.561 146.934 142.278 146.825 142.014C146.716 141.749 146.556 141.509 146.354 141.307C146.152 141.105 145.912 140.944 145.648 140.835C145.384 140.725 145.101 140.669 144.815 140.669H117.109C116.531 140.669 115.977 140.898 115.569 141.307C115.16 141.715 114.931 142.269 114.931 142.847C114.93 143.281 114.757 143.696 114.45 144.003C114.144 144.31 113.728 144.483 113.294 144.484H83.1031L78.8281 190.029H146.957L151.232 144.484H146.989Z" fill="#407BFF" stroke="#263238" stroke-linecap="round" stroke-linejoin="round"/>
<path d="M139.971 56.612H135.439C135.242 56.612 135.053 56.5336 134.913 56.3941C134.774 56.2546 134.695 56.0653 134.695 55.868C134.695 55.6706 134.774 55.4814 134.913 55.3418C135.053 55.2023 135.242 55.1239 135.439 55.1239H139.971C140.169 55.1239 140.358 55.2023 140.498 55.3418C140.637 55.4814 140.715 55.6706 140.715 55.868C140.715 56.0653 140.637 56.2546 140.498 56.3941C140.358 56.5336 140.169 56.612 139.971 56.612Z" fill="#263238"/>
<path d="M140.213 51.85C140.026 51.8506 139.846 51.7815 139.708 51.6561L135.41 47.7193C135.273 47.5841 135.193 47.4007 135.188 47.2077C135.183 47.0148 135.253 46.8274 135.383 46.6852C135.514 46.543 135.695 46.457 135.887 46.4455C136.08 46.434 136.27 46.4979 136.416 46.6235L140.709 50.5603C140.818 50.6617 140.895 50.7936 140.928 50.9389C140.962 51.0842 140.951 51.2362 140.897 51.3752C140.843 51.5142 140.748 51.6338 140.626 51.7185C140.503 51.8031 140.358 51.849 140.209 51.85H140.213Z" fill="#263238"/>
<path d="M135.92 64.3729C135.77 64.3737 135.622 64.3289 135.498 64.2443C135.373 64.1598 135.277 64.0395 135.223 63.8993C135.168 63.7591 135.157 63.6056 135.191 63.4591C135.226 63.3126 135.304 63.1799 135.415 63.0786L139.708 59.1464C139.855 59.0207 140.044 58.9569 140.237 58.9684C140.43 58.9799 140.61 59.0658 140.741 59.208C140.871 59.3502 140.941 59.5376 140.936 59.7306C140.931 59.9235 140.851 60.107 140.714 60.2422L136.421 64.1789C136.284 64.3048 136.105 64.3741 135.92 64.3729Z" fill="#263238"/>
<path d="M148.201 56.612H152.733C152.93 56.612 153.12 56.5336 153.259 56.3941C153.399 56.2546 153.477 56.0653 153.477 55.868C153.477 55.6706 153.399 55.4814 153.259 55.3418C153.12 55.2023 152.93 55.1239 152.733 55.1239H148.201C148.004 55.1239 147.815 55.2023 147.675 55.3418C147.535 55.4814 147.457 55.6706 147.457 55.868C147.457 56.0653 147.535 56.2546 147.675 56.3941C147.815 56.5336 148.004 56.612 148.201 56.612Z" fill="#263238"/>
<path d="M147.965 51.85C148.061 51.8529 148.157 51.8369 148.247 51.8029C148.336 51.7688 148.419 51.7174 148.488 51.6516L152.781 47.7148C152.857 47.6498 152.919 47.5703 152.964 47.4809C153.008 47.3915 153.034 47.294 153.04 47.1944C153.046 47.0948 153.032 46.995 152.998 46.9009C152.965 46.8069 152.913 46.7205 152.845 46.647C152.778 46.5734 152.696 46.5142 152.605 46.4729C152.515 46.4315 152.416 46.4089 152.316 46.4063C152.217 46.4037 152.117 46.4211 152.025 46.4577C151.932 46.4942 151.847 46.5491 151.776 46.619L147.483 50.5558C147.338 50.6892 147.251 50.8748 147.243 51.0718C147.234 51.2688 147.305 51.4611 147.438 51.6065C147.505 51.68 147.587 51.7394 147.677 51.7812C147.768 51.823 147.866 51.8464 147.965 51.85Z" fill="#263238"/>
<path d="M152.256 64.3729C152.406 64.3728 152.553 64.3273 152.677 64.2424C152.8 64.1575 152.896 64.0372 152.95 63.8972C153.004 63.7572 153.015 63.6041 152.98 63.458C152.946 63.3119 152.868 63.1797 152.757 63.0786L148.486 59.1464C148.34 59.0207 148.15 58.9569 147.958 58.9684C147.765 58.9799 147.584 59.0658 147.454 59.208C147.323 59.3502 147.253 59.5376 147.258 59.7306C147.263 59.9235 147.343 60.107 147.481 60.2422L151.774 64.1789C151.906 64.2992 152.077 64.368 152.256 64.3729Z" fill="#263238"/>
<path d="M144.257 51.0699C145.816 51.0699 147.079 49.806 147.079 48.2469C147.079 46.6879 145.816 45.424 144.257 45.424C142.697 45.424 141.434 46.6879 141.434 48.2469C141.434 49.806 142.697 51.0699 144.257 51.0699Z" fill="#263238" stroke="#263238" stroke-linecap="round" stroke-linejoin="round"/>
<path d="M145.868 48.9459H142.648C140.616 48.9459 138.969 50.5934 138.969 52.6257V59.1013C138.969 61.1335 140.616 62.781 142.648 62.781H145.868C147.901 62.781 149.548 61.1335 149.548 59.1013V52.6257C149.548 50.5934 147.901 48.9459 145.868 48.9459Z" fill="#FF6C37" stroke="#263238" stroke-linecap="round" stroke-linejoin="round"/>
<path d="M144.259 52.8962C145.197 52.8972 146.125 52.7134 146.992 52.3551C147.859 51.9968 148.646 51.4712 149.309 50.8083C149.078 50.2568 148.689 49.7858 148.19 49.4545C147.692 49.1232 147.107 48.9463 146.509 48.9459H142C141.401 48.9463 140.816 49.1232 140.318 49.4545C139.82 49.7858 139.431 50.2568 139.199 50.8083C139.864 51.4721 140.653 51.9982 141.521 52.3565C142.389 52.7148 143.32 52.8982 144.259 52.8962Z" fill="#9E9E9E" stroke="#263238" stroke-linecap="round" stroke-linejoin="round"/>
<path d="M144.258 52.8962V62.4383" stroke="#263238" stroke-linecap="round" stroke-linejoin="round"/>
<path d="M81.9326 83.8899L78.7264 80.6881C78.6571 80.6188 78.6021 80.5366 78.5646 80.4461C78.5271 80.3555 78.5078 80.2585 78.5078 80.1605C78.5078 80.0625 78.5271 79.9655 78.5646 79.875C78.6021 79.7845 78.6571 79.7022 78.7264 79.6329C78.7956 79.5636 78.8779 79.5087 78.9684 79.4712C79.059 79.4337 79.156 79.4144 79.254 79.4144C79.352 79.4144 79.449 79.4337 79.5395 79.4712C79.63 79.5087 79.7123 79.5636 79.7816 79.6329L82.9878 82.8392C83.1271 82.9791 83.2052 83.1686 83.2048 83.3661C83.2043 83.5636 83.1255 83.7528 82.9856 83.8921C82.8456 84.0314 82.6561 84.1095 82.4586 84.1091C82.2611 84.1086 82.0719 84.0298 81.9326 83.8899Z" fill="#263238"/>
<path d="M85.4621 80.6972C85.3316 80.5657 85.2545 80.3906 85.2456 80.2056L84.9931 74.3839C84.9883 74.2864 85.0028 74.1889 85.0358 74.097C85.0688 74.0051 85.1197 73.9207 85.1855 73.8486C85.2513 73.7765 85.3308 73.7181 85.4193 73.6769C85.5078 73.6356 85.6035 73.6123 85.7011 73.6082C85.8989 73.5997 86.0921 73.6698 86.2383 73.8034C86.3845 73.9369 86.4719 74.1229 86.4812 74.3207L86.7338 80.138C86.738 80.2357 86.7229 80.3333 86.6894 80.4252C86.6559 80.5171 86.6045 80.6015 86.5384 80.6735C86.4722 80.7456 86.3924 80.8039 86.3037 80.8451C86.215 80.8863 86.119 80.9095 86.0213 80.9136C85.9181 80.9188 85.815 80.9023 85.7186 80.865C85.6223 80.8277 85.5348 80.7705 85.4621 80.6972Z" fill="#263238"/>
<path d="M73.571 86.5144C73.4658 86.4082 73.395 86.2728 73.3678 86.1258C73.3407 85.9788 73.3585 85.827 73.4188 85.6903C73.4792 85.5535 73.5793 85.4381 73.7062 85.3591C73.8331 85.28 73.9808 85.2411 74.1302 85.2472L79.9474 85.4997C80.1448 85.5081 80.3307 85.5945 80.4643 85.74C80.5979 85.8855 80.6683 86.078 80.6599 86.2754C80.6515 86.4727 80.5651 86.6586 80.4197 86.7923C80.2742 86.9259 80.0816 86.9962 79.8843 86.9879L74.0806 86.7353C73.8884 86.7312 73.7054 86.6518 73.571 86.5144Z" fill="#263238"/>
<path d="M87.7482 89.7071L90.9544 92.9134C91.0961 93.0404 91.2812 93.1084 91.4714 93.1032C91.6617 93.098 91.8427 93.0201 91.9773 92.8855C92.1119 92.7509 92.1898 92.5699 92.195 92.3796C92.2002 92.1894 92.1322 92.0043 92.0052 91.8626L88.8034 88.6564C88.6641 88.5165 88.4749 88.4376 88.2774 88.4372C88.0799 88.4368 87.8904 88.5148 87.7505 88.6541C87.6105 88.7935 87.5317 88.9827 87.5313 89.1802C87.5308 89.3776 87.6089 89.5672 87.7482 89.7071Z" fill="#263238"/>
<path d="M90.9396 86.1807C91.0729 86.3111 91.2494 86.3881 91.4357 86.3972L97.2529 86.6497C97.4503 86.6587 97.6431 86.5889 97.789 86.4557C97.9348 86.3225 98.0218 86.1368 98.0308 85.9394C98.0398 85.7421 97.97 85.5493 97.8368 85.4034C97.7036 85.2575 97.5179 85.1705 97.3206 85.1616L91.4988 84.909C91.4011 84.9048 91.3035 84.9199 91.2116 84.9534C91.1197 84.9869 91.0353 85.0382 90.9633 85.1044C90.8912 85.1706 90.8329 85.2503 90.7917 85.3391C90.7505 85.4278 90.7272 85.5238 90.7232 85.6215C90.7193 85.7246 90.7365 85.8273 90.7737 85.9234C90.811 86.0196 90.8674 86.1071 90.9396 86.1807Z" fill="#263238"/>
<path d="M85.1259 98.0677C85.2318 98.1746 85.3677 98.2468 85.5155 98.2749C85.6633 98.303 85.8161 98.2856 85.9539 98.225C86.0916 98.1645 86.2077 98.0636 86.2869 97.9357C86.3662 97.8078 86.4047 97.6588 86.3976 97.5085L86.1451 91.6913C86.1367 91.494 86.0503 91.308 85.9048 91.1744C85.7593 91.0408 85.5668 90.9704 85.3694 90.9788C85.1721 90.9872 84.9862 91.0736 84.8525 91.2191C84.7189 91.3645 84.6485 91.5571 84.6569 91.7544L84.9094 97.5762C84.9175 97.7614 84.9947 97.9368 85.1259 98.0677Z" fill="#263238"/>
<path d="M90.8737 83.8313C92.4328 83.8313 93.6967 82.5674 93.6967 81.0084C93.6967 79.4493 92.4328 78.1854 90.8737 78.1854C89.3147 78.1854 88.0508 79.4493 88.0508 81.0084C88.0508 82.5674 89.3147 83.8313 90.8737 83.8313Z" fill="#263238" stroke="#263238" stroke-linecap="round" stroke-linejoin="round"/>
<path d="M91.5154 82.638L89.2387 80.3613C87.8017 78.9243 85.4718 78.9243 84.0348 80.3613L79.4558 84.9403C78.0188 86.3773 78.0188 88.7072 79.4558 90.1442L81.7325 92.4209C83.1695 93.8579 85.4994 93.8579 86.9365 92.4209L91.5154 87.842C92.9524 86.4049 92.9524 84.0751 91.5154 82.638Z" fill="#FF6C37" stroke="#263238" stroke-linecap="round" stroke-linejoin="round"/>
<path d="M87.5807 84.2957C88.9203 85.6357 90.7366 86.3898 92.6313 86.3926C92.859 85.8384 92.9175 85.2292 92.7996 84.6418C92.6816 84.0544 92.3924 83.515 91.9684 83.0917L88.7847 79.908C88.3608 79.4864 87.8223 79.1988 87.2362 79.0809C86.65 78.9631 86.0422 79.0202 85.4883 79.2451C85.4874 80.1832 85.6717 81.1123 86.0308 81.9791C86.3899 82.8458 86.9166 83.6331 87.5807 84.2957Z" fill="#9E9E9E" stroke="#263238" stroke-linecap="round" stroke-linejoin="round"/>
<path d="M87.5821 84.2957L80.8359 91.0419" stroke="#263238" stroke-linecap="round" stroke-linejoin="round"/>
<path d="M270.391 186.445C270.391 186.445 268.776 187.229 266.49 188.537C264.204 189.845 262.819 190.251 263.063 190.9C263.306 191.549 265.02 191.716 267.96 191.802C269.749 191.813 271.531 191.594 273.263 191.148C273.592 191.148 275.969 191.229 276.871 190.9C277.773 190.571 277.119 188.127 277.119 188.127C277.119 188.127 271.762 185.903 270.391 186.445Z" fill="white" stroke="#263238" stroke-linecap="round" stroke-linejoin="round"/>
<path d="M288.284 189.709C288.284 189.709 286.615 193.2 286.029 193.984C285.443 194.769 286.223 195.161 287.598 195.653C288.974 196.144 291.134 194.967 292.802 194.178C294.471 193.389 294.768 189.759 294.768 189.759L288.284 189.709Z" fill="white" stroke="#263238" stroke-linecap="round" stroke-linejoin="round"/>
<path d="M297.166 125.156C297.166 125.156 299.227 129.666 299.114 134.175C299.001 138.685 294.496 156.934 294.722 159.185C294.947 161.435 296.976 163.243 296.751 168.655C296.526 174.066 295.046 186.332 295.046 186.332C295.046 186.332 295.385 188.356 295.159 189.146C295.025 189.617 294.836 190.071 294.595 190.498H292.228C290.875 190.498 288.287 190.048 288.287 189.709C288.504 188.795 288.767 187.892 289.076 187.004L289.189 184.411C289.189 184.411 287.047 162.22 286.596 158.504C286.145 154.788 284.458 137.097 284.458 137.097C284.458 137.097 280.625 159.401 280.512 160.19C280.4 160.979 281.076 165.602 279.836 168.979C278.596 172.357 277.811 180.582 277.811 182.381C277.811 184.181 277.36 188.916 277.36 188.916C277.36 188.916 275.105 188.916 273.865 188.352C272.625 187.788 271.728 186.891 271.39 186.778L270.375 186.44C270.45 185.869 270.563 185.305 270.713 184.749C271.024 183.93 271.401 183.138 271.841 182.381L272.179 167.288C272.179 167.288 271.953 158.955 272.179 157.602C272.318 156.556 272.355 155.499 272.292 154.445C272.292 153.994 272.292 137.21 272.855 133.602C273.234 130.862 273.473 128.105 273.572 125.341L295.61 122.789L297.166 125.156Z" fill="black"/>
<path d="M296.104 121.711L297.168 125.156C297.168 125.156 289.953 129.954 283.049 130.31C276.145 130.667 273.917 128.994 273.385 128.547C272.853 128.101 273.588 125.337 273.588 125.337C273.588 125.337 281.303 126.13 285.312 125.156C289.321 124.182 296.104 121.711 296.104 121.711Z" fill="#407BFF" stroke="#263238" stroke-linecap="round" stroke-linejoin="round"/>
<path d="M273.399 114.938L269.896 118.712L268.953 119.722L273.535 121.003L274.008 115.073L273.399 114.938Z" fill="#407BFF" stroke="#263238" stroke-linecap="round" stroke-linejoin="round"/>
<path d="M287.004 89.0803C287.004 89.0803 294.512 91.096 294.999 91.9032C295.487 92.7104 293.119 110.455 292.781 111.813C292.443 113.17 293.457 117.422 294.134 118.36C294.81 119.298 296.772 120.313 296.772 121.927C296.772 123.542 285.805 127.537 281.89 127.537C277.976 127.537 273.625 126.883 273.201 126.459C272.777 126.035 273.133 124.565 273.133 124.205C273.133 123.844 273.219 114.261 273.219 114.261C273.219 114.261 271.009 111.623 270.513 108.48C270.017 105.337 270.698 101.337 270.698 101.337C270.698 101.337 270.049 95.601 270.617 93.4229C271.185 91.2448 275.46 89.7071 275.46 89.7071C275.46 89.7071 279.654 87.9258 287.004 89.0803Z" fill="#407BFF" stroke="#263238" stroke-linecap="round" stroke-linejoin="round"/>
<path d="M280.784 113.111C279.803 112.6 278.894 111.964 278.078 111.217" stroke="#263238" stroke-linecap="round" stroke-linejoin="round"/>
<path d="M282.763 113.761C282.43 113.725 282.103 113.65 281.789 113.535" stroke="#263238" stroke-linecap="round" stroke-linejoin="round"/>
<path d="M274.018 89.0803C274.018 89.0803 273.198 91.4342 273.797 92.53C274.397 93.6258 276.702 93.7882 276.702 93.7882C276.702 93.7882 276.481 93.1298 276.977 91.9257C277.473 90.7217 278.289 88.8052 278.289 88.8052L274.018 89.0803Z" fill="#263238" stroke="#263238" stroke-linecap="round" stroke-linejoin="round"/>
<path d="M268.599 81.4141C268.599 81.4141 268.707 83.2765 269.05 83.714C269.392 84.1514 270.308 83.714 270.475 84.918C270.641 86.122 270.691 88.1468 271.129 88.3136C271.566 88.4805 272.774 88.2595 272.774 88.2595C272.774 88.2595 274.799 90.1219 275.404 90.3925C276.008 90.6631 276.17 90.7217 276.608 90.3925L278.195 89.1885C278.195 89.1885 277.32 91.7093 277.645 92.4759C277.969 93.2425 279.178 94.5006 280.549 93.2425C281.92 91.9843 282.74 89.1343 282.74 89.1343L279.133 78.8933L269.212 76.5394C269.212 76.5394 268.107 80.6385 268.599 81.4141Z" fill="#FFBC96"/>
<path d="M278.619 80.5844C278.619 80.5844 280.373 88.3046 280.81 91.2042C281.248 94.1038 280.481 95.2628 280.481 95.2628C280.481 95.2628 284.86 94.9877 286.393 92.3045C287.926 89.6214 289.243 88.1423 288.368 85.5719C287.493 83.0015 285.081 74.8393 282.781 72.0434C280.481 69.2476 275.39 68.5937 273.473 68.9229C271.557 69.2521 269.365 71.7729 268.378 73.6308C267.39 75.4887 266.736 79.218 266.078 79.6013C265.419 79.9846 264.82 80.9136 265.807 81.1887C266.726 81.3677 267.663 81.4418 268.599 81.4096C268.647 80.5413 268.775 79.6793 268.982 78.8347C269.257 78.014 269.473 77.5225 269.473 77.5225C269.473 77.5225 269.803 78.4514 273.473 79.5472C277.144 80.643 278.51 80.0929 278.51 80.0929L278.619 80.5844Z" fill="#263238" stroke="#263238" stroke-linecap="round" stroke-linejoin="round"/>
<path d="M269.473 77.5179C269.473 77.5179 272.922 82.2258 278.893 81.1842" stroke="#263238" stroke-linecap="round" stroke-linejoin="round"/>
<path d="M270.953 82.9925C270.953 82.9925 271.774 81.6757 273.145 82.2259" stroke="#263238" stroke-linecap="round" stroke-linejoin="round"/>
<path d="M275.206 86.334C275.231 86.5808 275.194 86.8299 275.099 87.059C275.003 87.288 274.853 87.4898 274.66 87.6462" stroke="#263238" stroke-linecap="round" stroke-linejoin="round"/>
<path d="M272.293 84.3904C272.428 84.7602 272.708 84.9992 272.919 84.9225C273.131 84.8459 273.199 84.4716 273.064 84.1108C272.928 83.7501 272.649 83.5066 272.437 83.5832C272.225 83.6599 272.157 84.0207 272.293 84.3904Z" fill="#263238"/>
<path d="M278.184 89.1794L279.554 87.7545L278.621 91.7544L278.184 89.1794Z" fill="#263238" stroke="#263238" stroke-linecap="round" stroke-linejoin="round"/>
<path d="M272.156 126.825L285.342 120.692L265.433 118.054L255.219 122.342L272.156 126.825Z" fill="#D1D1D1" stroke="#263238" stroke-linecap="round" stroke-linejoin="round"/>
<path d="M271.662 125.661L281.353 121.156L266.72 119.217L259.207 122.365L271.662 125.661Z" fill="#828282" stroke="#263238" stroke-linecap="round" stroke-linejoin="round"/>
<path d="M272.158 126.825L265.962 112.385L247.969 109.553L255.22 122.342L272.158 126.825Z" fill="#B2B2B2" stroke="#263238" stroke-linecap="round" stroke-linejoin="round"/>
<path d="M264.578 123.262L266.093 125.305C266.093 125.305 265.565 125.9 265.106 125.702C264.646 125.503 263.658 122.87 264.578 123.262Z" fill="#FFBC96"/>
<path d="M264.514 125.043C264.166 125.152 263.79 125.128 263.459 124.976C263.062 124.714 262.336 122.473 262.665 122.405C262.995 122.338 263.919 123.857 263.919 123.857L264.514 125.043Z" fill="#FFBC96"/>
<path d="M263.481 124.976C263.481 124.976 261.831 124.525 261.569 124.25C261.307 123.975 260.775 121.485 261.303 121.815C261.831 122.144 262.557 123.988 262.557 123.988L263.481 124.976Z" fill="#FFBC96"/>
<path d="M261.549 124.254C261.549 124.254 260.692 124.389 260.426 123.925C260.286 123.663 260.208 123.372 260.197 123.075C260.186 122.779 260.243 122.483 260.363 122.211C260.624 121.76 261.021 122.739 261.021 122.739L261.549 124.254Z" fill="#FFBC96"/>
<path d="M290.475 90.7533C290.475 90.7533 295.079 91.0735 295.963 91.7228C296.847 92.3722 302.809 110.09 303.147 112.385C303.485 114.681 302.723 114.938 302.299 114.938C301.875 114.938 291.927 118.166 290.737 118.419C289.546 118.671 289.294 118.505 288.87 118.166C288.446 117.828 286.403 115.362 286.999 113.914C287.594 112.466 288.613 112.214 288.613 112.214L295.075 109.824L289.988 100.751" fill="#407BFF"/>
<path d="M290.475 90.7533C290.475 90.7533 295.079 91.0735 295.963 91.7228C296.847 92.3722 302.809 110.09 303.147 112.385C303.485 114.681 302.723 114.938 302.299 114.938C301.875 114.938 291.927 118.166 290.737 118.419C289.546 118.671 289.294 118.505 288.87 118.166C288.446 117.828 286.403 115.362 286.999 113.914C287.594 112.466 288.613 112.214 288.613 112.214L295.075 109.824L289.988 100.751" stroke="#263238" stroke-linecap="round" stroke-linejoin="round"/>
<path d="M298.118 110.839C297.215 110.231 296.162 109.884 295.074 109.837" stroke="#263238" stroke-linecap="round" stroke-linejoin="round"/>
<path d="M297.195 109.45C298.234 109.791 299.183 110.362 299.973 111.118" stroke="#263238" stroke-linecap="round" stroke-linejoin="round"/>
<path d="M283.685 115.19C283.685 115.19 286.576 114.257 287 113.914C287.423 113.571 288.352 113.833 288.871 115.019C289.39 116.205 288.871 118.175 288.871 118.175L285.471 119.023C285.471 119.023 284.619 119.195 283.771 117.752C282.923 116.309 282.747 115.276 283.685 115.19Z" fill="#407BFF" stroke="#263238" stroke-linecap="round" stroke-linejoin="round"/>
<path d="M276.324 117.463C276.324 117.463 274.642 118.157 274.52 118.604C274.399 119.05 273.876 120.926 273.925 121.31C273.975 121.693 273.925 121.905 274.376 121.806C274.827 121.706 275.364 120.669 275.761 119.677C276.157 118.685 276.662 117.4 276.662 117.4L276.324 117.463Z" fill="#FFBC96"/>
<path d="M283.599 115.731C283.599 115.731 285.232 116.872 285.282 117.562C285.331 118.252 283.55 119.393 282.409 119.79C281.461 120.062 280.478 120.196 279.491 120.187C279.293 120.187 276.475 122.067 275.78 122.365C275.086 122.662 274.878 122.216 274.878 122.216C274.878 122.216 274.332 122.117 274.382 121.819C274.489 121.499 274.641 121.195 274.833 120.917C274.833 120.917 275.081 119.93 275.374 118.793C275.667 117.657 277.205 116.863 277.751 116.764C278.296 116.665 282.211 115.235 283.599 115.731Z" fill="#FFBC96"/>
<path d="M278.815 119.095C278.268 119.299 277.739 119.548 277.233 119.839L274.91 122.216" stroke="#263238" stroke-linecap="round" stroke-linejoin="round"/>
<path d="M277.609 117.959L274.84 120.926" stroke="#263238" stroke-linecap="round" stroke-linejoin="round"/>
<path d="M62.3506 110.257L60.5378 110.135L59.5547 113.089L63.6493 115.177L66.2468 110.848L62.3506 110.257Z" fill="#FFBC96"/>
<path d="M38.2109 100.097L42.3146 104.205L60.5374 110.135L59.5543 113.089L38.3056 109.833L38.2109 100.097Z" fill="#FF6C37" stroke="#263238" stroke-miterlimit="10"/>
<path d="M26.731 73.2385C26.731 73.2385 26.6092 76.7243 26.2349 79.1008C25.8606 81.4773 25.7344 82.4649 25.7344 82.4649L32.5933 85.0714C32.5933 85.0714 31.971 80.3364 32.8458 78.3477C33.3395 77.2807 33.6752 76.1474 33.8424 74.9837C33.8424 74.9837 31.5877 69.5001 29.2337 69.1214C26.8798 68.7426 26.731 73.2385 26.731 73.2385Z" fill="#FFBC96"/>
<path d="M36.0934 63.1508C36.0934 63.1508 37.338 62.0279 35.7191 58.2941C34.1002 54.5602 26.2492 54.8037 22.5153 58.1678C18.7815 61.5319 17.5323 67.5114 20.7701 71.3716C24.0079 75.2317 27.8726 75.7277 30.3618 74.2351C32.851 72.7424 33.1036 69.8744 33.1036 68.7561C33.1036 67.6377 32.2332 64.896 33.4779 64.1474C34.2906 63.6771 35.1737 63.3406 36.0934 63.1508Z" fill="#263238" stroke="#263238" stroke-miterlimit="10"/>
<path d="M35.7206 62.2805C35.7206 62.2805 29.8583 65.0177 29.8583 66.0143C29.8583 67.0109 32.3475 67.3671 31.599 68.6298C31.2492 69.2553 30.8319 69.8406 30.3544 70.375C30.3544 70.375 31.3509 72.1201 30.4806 72.3682C29.6103 72.6162 29.236 72.6162 28.3612 71.3716C27.4863 70.1269 26.6205 69.5001 26.368 71.6196C26.1154 73.739 27.1165 74.1088 27.8651 74.2351C28.4432 74.3053 29.0277 74.3053 29.6058 74.2351C29.6058 74.2351 30.8549 77.2249 31.7252 77.5992C32.5956 77.9734 36.83 78.4695 37.7048 77.4729C38.5797 76.4763 37.9528 71.9939 37.9528 71.9939C37.9528 71.9939 39.1974 71.7459 39.1974 70.641C39.1974 69.5362 37.2043 67.8993 37.2043 67.8993C37.2043 67.8993 37.7048 67.1552 37.3305 65.41C37.046 64.2553 36.4946 63.1834 35.7206 62.2805Z" fill="#FFBC96"/>
<path d="M35.8916 68.4359C35.8916 68.8282 35.7337 69.1439 35.5353 69.1439C35.3369 69.1439 35.1836 68.8282 35.1836 68.4359C35.1836 68.0436 35.3414 67.7234 35.5353 67.7234C35.7292 67.7234 35.8916 68.0436 35.8916 68.4359Z" fill="#263238"/>
<path d="M34.3125 67.1642C34.3125 67.1642 34.4974 66.109 36.1163 66.2984" stroke="#263238" stroke-linecap="round" stroke-linejoin="round"/>
<path d="M36.4178 73.6128C35.816 73.5583 35.26 73.2682 34.8711 72.8056" stroke="#263238" stroke-linecap="round" stroke-linejoin="round"/>
<path d="M19.8952 182.296C19.8952 182.296 21.1939 185.222 22.4972 186.197C23.8004 187.171 26.2355 187.013 26.5557 188.636C26.8759 190.26 25.5817 190.44 24.4408 190.44C23.2999 190.44 19.7284 190.44 19.079 190.278C17.0289 189.559 15.1075 188.516 13.388 187.189C11.4399 185.561 10.9484 185.723 12.414 182.634C13.8796 179.545 19.8952 182.296 19.8952 182.296Z" fill="#FF6C37" stroke="#263238" stroke-miterlimit="10"/>
<path d="M26.6054 188.952C25.0316 189.227 21.9335 189.61 19.2188 188.929C16.5041 188.248 13.2844 185.822 11.661 184.478C11.3182 185.746 11.9586 185.98 13.3926 187.184C15.1071 188.507 17.0223 189.547 19.0655 190.264C19.7149 190.426 23.2909 190.426 24.4273 190.426C25.5051 190.426 26.7046 190.282 26.6054 188.952Z" fill="white" stroke="#263238" stroke-miterlimit="10"/>
<path d="M24.7694 129.215C24.7694 129.215 22.5147 147.938 20.747 152.664C18.9793 157.39 16.2736 160.362 15.6242 163.938C14.9748 167.514 12.418 182.647 12.418 182.647C12.418 182.647 14.0414 184.275 15.1823 184.113C16.3232 183.951 19.7323 184.438 20.7064 182.647C21.6804 180.857 21.9285 177.953 22.0908 177.466C22.2531 176.979 29.0805 163.802 30.7084 158.598C32.3363 153.394 37.5719 131.902 37.4095 129.287" fill="black"/>
<path d="M23.5768 116.349C23.5768 116.349 21.5837 122.211 22.3322 127.438C23.0808 132.664 28.9386 135.284 33.0468 134.536C37.1549 133.787 39.9553 130.928 39.9553 125.941C39.9481 122.858 39.7402 119.779 39.333 116.723C39.333 116.723 31.3061 119.217 23.5768 116.349Z" fill="black"/>
<path d="M25.0961 80.2913C25.0961 80.2913 21.3578 87.2765 21.1098 92.8683C20.8617 98.46 23.5765 116.349 23.5765 116.349C23.5765 116.349 24.6993 118.604 30.0521 118.843C33.2262 119.003 36.3959 118.45 39.3281 117.224C39.3281 117.224 39.6618 106.573 39.6618 99.8444C39.6618 93.1163 34.4308 83.1594 34.4308 83.1594L25.0961 80.2913Z" fill="#FF6C37" stroke="#263238" stroke-miterlimit="10"/>
<path d="M22.2227 95.7994C22.2227 95.7994 22.5518 99.7452 27.3184 100.237" stroke="#263238" stroke-linecap="round" stroke-linejoin="round"/>
<path d="M23.5234 101.062C25.2551 102.082 27.3008 102.432 29.273 102.045" stroke="#263238" stroke-linecap="round" stroke-linejoin="round"/>
<path d="M25.1875 116.588C25.1875 116.588 29.954 112.48 32.4027 108.697" stroke="#263238" stroke-linecap="round" stroke-linejoin="round"/>
<path d="M31.9271 112.647C31.9271 112.647 27.819 116.922 26.3398 117.413" stroke="#263238" stroke-linecap="round" stroke-linejoin="round"/>
<path d="M24.3477 80.5393L35.432 85.0217L34.8097 81.4097L24.97 77.3015L24.3477 80.5393Z" fill="white" stroke="#263238" stroke-miterlimit="10"/>
<path d="M38.43 186.684C38.43 186.684 41.6814 188.636 43.4671 189.448C45.2529 190.26 45.4197 190.102 45.4197 191.252C45.4197 192.402 45.5821 192.55 42.6554 192.55C39.7288 192.55 31.2735 192.713 30.4798 192.063C29.6861 191.414 37.2891 186.196 38.43 186.684Z" fill="#FF6C37" stroke="#263238" stroke-miterlimit="10"/>
<path d="M42.6558 192.537C45.393 192.537 45.4246 192.397 45.4201 191.446C37.0866 191.698 33.0235 191.382 31.0529 190.995C30.5343 191.495 30.2772 191.896 30.4621 192.032C31.2738 192.699 39.7291 192.537 42.6558 192.537Z" fill="white" stroke="#263238" stroke-miterlimit="10"/>
<path d="M23.7969 129.521C23.7969 129.521 24.9378 140.736 26.3988 145.616C27.8599 150.495 27.8599 152.605 27.3729 156.831C26.8859 161.056 25.2625 164.948 26.3988 168.858C27.5352 172.767 29.8125 189.448 29.8125 190.102C29.8125 190.756 29.6502 191.725 30.4619 192.05C31.2736 192.375 38.2633 187.662 38.4301 186.684C38.597 185.705 37.2892 182.783 37.2892 180.185C37.2892 177.588 38.101 162.359 38.101 155.041C38.101 147.722 41.5011 132.042 38.8991 125.535" fill="black"/>
<path d="M24.7188 136.597C24.7188 136.597 25.4854 142.058 26.3963 145.616C27.3072 149.174 28.2316 150.838 27.1223 155.275C26.013 159.712 25.6432 161.191 26.1979 163.392" stroke="white" stroke-linecap="round" stroke-linejoin="round"/>
<path d="M92.8834 106.286C105.015 104.317 113.254 92.8856 111.284 80.7537C109.315 68.6218 97.8838 60.3833 85.7519 62.3526C73.62 64.3219 65.3816 75.7532 67.3509 87.8851C69.3202 100.017 80.7514 108.255 92.8834 106.286Z" stroke="#263238" stroke-width="7" stroke-linecap="round" stroke-linejoin="round"/>
<path d="M75.335 102.888L51.1327 131.352C50.6266 131.942 49.9076 132.308 49.1328 132.369C48.3581 132.43 47.5905 132.182 46.9981 131.679C46.4057 131.176 46.0365 130.459 45.9713 129.684C45.9061 128.91 46.1502 128.141 46.6502 127.546C46.6953 127.492 46.7494 127.438 46.799 127.388L73.0081 100.782C73.2955 100.495 73.6827 100.329 74.0891 100.32C74.4955 100.311 74.8898 100.459 75.1897 100.734C75.4897 101.008 75.6722 101.387 75.6993 101.793C75.7263 102.199 75.5959 102.599 75.335 102.911V102.888Z" fill="#263238"/>
<path d="M26.5431 87.033C26.5431 87.033 24.2884 90.2843 24.7393 93.5357C25.1903 96.787 32.4054 110.987 33.2126 112.128C34.0198 113.269 39.3906 114.383 39.8776 109.851C40.3647 105.319 34.1822 94.0407 33.2081 90.7714C32.2341 87.502 30.1191 86.8707 30.1191 86.8707" fill="#FF6C37"/>
<path d="M26.5431 87.033C26.5431 87.033 24.2884 90.2843 24.7393 93.5357C25.1903 96.787 32.4054 110.987 33.2126 112.128C34.0198 113.269 39.3906 114.383 39.8776 109.851C40.3647 105.319 34.1822 94.0407 33.2081 90.7714C32.2341 87.502 30.1191 86.8707 30.1191 86.8707" stroke="#263238" stroke-miterlimit="10"/>
<path d="M38.6827 106.451C38.6827 106.451 43.4447 107.055 46.7997 109.071C50.1548 111.087 57.2482 113.882 57.2482 113.882L56.4951 117.039C56.4951 117.039 48.3284 116.687 43.368 115.781C38.4076 114.875 35.2058 114.428 33.375 111.808" fill="#FF6C37"/>
<path d="M38.6827 106.451C38.6827 106.451 43.4447 107.055 46.7997 109.071C50.1548 111.087 57.2482 113.882 57.2482 113.882L56.4951 117.039C56.4951 117.039 48.3284 116.687 43.368 115.781C38.4076 114.875 35.2058 114.428 33.375 111.808" stroke="#263238" stroke-miterlimit="10"/>
<path d="M57.2492 113.882C57.2492 113.882 59.8647 113.846 60.2841 113.431C60.7034 113.017 64.7935 115.614 64.7935 115.614C64.7935 115.614 64.9604 116.286 64.541 116.539C64.2223 116.715 63.8851 116.856 63.5354 116.958C63.5354 116.958 62.4441 118.888 61.7722 119.14C61.1003 119.393 59.2514 118.974 58.4126 118.635C57.5739 118.297 56.4961 117.039 56.4961 117.039L57.2492 113.882Z" fill="#FFBC96"/>
<path d="M67.8271 111.586L66.2453 110.849C65.9631 110.717 65.6278 110.839 65.4962 111.121L65.4562 111.207C65.3247 111.489 65.4468 111.825 65.729 111.956L67.3108 112.694C67.593 112.825 67.9283 112.703 68.0599 112.421L68.0999 112.335C68.2314 112.053 68.1093 111.717 67.8271 111.586Z" fill="#FFBC96"/>
<path d="M64.9776 115.587L64.1478 115.204C64.0117 115.14 63.9064 115.025 63.8548 114.884C63.8032 114.743 63.8097 114.587 63.8727 114.451C63.9372 114.315 64.0525 114.211 64.1936 114.16C64.3346 114.11 64.49 114.117 64.6258 114.18L65.4556 114.563C65.5909 114.628 65.6952 114.743 65.7459 114.884C65.7966 115.025 65.7895 115.181 65.7261 115.316C65.6956 115.384 65.6518 115.445 65.5974 115.495C65.5429 115.546 65.4789 115.585 65.4091 115.61C65.3393 115.635 65.2651 115.646 65.191 115.642C65.1169 115.638 65.0443 115.62 64.9776 115.587Z" fill="#FFBC96"/>
<path d="M64.8684 113.014L66.0946 113.586C66.2301 113.649 66.335 113.764 66.3861 113.904C66.4373 114.044 66.4305 114.199 66.3674 114.335C66.3042 114.471 66.1898 114.575 66.0493 114.627C65.9089 114.678 65.7538 114.671 65.6183 114.608L64.3921 114.036C64.2566 113.973 64.1517 113.859 64.1006 113.718C64.0494 113.578 64.0562 113.423 64.1193 113.287C64.183 113.151 64.2983 113.045 64.4399 112.993C64.5815 112.942 64.7378 112.949 64.8744 113.012L64.8684 113.014Z" fill="#FFBC96"/>
<path d="M66.8388 112.691L65.257 111.953C64.9748 111.822 64.6395 111.944 64.508 112.226L64.468 112.312C64.3364 112.594 64.4586 112.929 64.7407 113.061L66.3225 113.798C66.6047 113.93 66.9401 113.808 67.0716 113.525L67.1116 113.44C67.2431 113.157 67.121 112.822 66.8388 112.691Z" fill="#FFBC96"/>
<path d="M61.2891 110.532C61.2891 110.532 64.369 109.35 64.6216 109.269C64.8741 109.188 67.1469 110.446 67.1469 110.446C67.0447 111.099 66.9032 111.745 66.723 112.381C66.5561 112.805 65.7985 113.057 65.6317 112.466C65.5284 112.11 65.4708 111.742 65.4603 111.371C64.9246 111.613 64.3589 111.783 63.7783 111.876C63.1451 111.897 62.5127 111.813 61.9069 111.628" fill="#FFBC96"/>
</g>
<defs>
<clipPath id="clip0_1204_20971">
<rect width="319.569" height="200" fill="white"/>
</clipPath>
</defs>
</svg>
