<svg width="107" height="100" viewBox="0 0 107 100" fill="none" xmlns="http://www.w3.org/2000/svg">
<g clip-path="url(#clip0_1929_19658)">
<path d="M57.8523 61.1115L53.5029 63.2877C52.42 58.8482 50.28 54.7362 47.265 51.3023C44.2501 47.8683 40.4496 45.2141 36.1875 43.5659C35.4594 43.2648 34.8295 42.7669 34.3686 42.1279C28.3508 33.4879 22.3625 24.8263 16.4037 16.1431C14.4194 13.2611 14.8741 9.7532 17.4401 7.73052C20.2394 5.53067 24.1548 6.12715 26.2661 9.15083C29.9542 14.4393 33.6038 19.7544 37.2565 25.0517C43.1936 33.6562 49.1337 42.2597 55.0767 50.8623C55.9448 52.1172 56.5 53.446 56.3523 54.9962C56.1397 57.2374 56.4911 59.325 57.8523 61.1115ZM21.9579 15.3074C20.7414 15.3074 20.2896 16.2405 20.8831 17.1382C23.9403 21.7682 27.0112 26.3884 30.0959 30.9987C30.5122 31.6217 31.0585 31.9643 31.7613 31.4771C32.464 30.9898 32.3312 30.3609 31.9178 29.7408C28.8606 25.1561 25.8005 20.5733 22.7375 15.9925C22.5144 15.7254 22.2515 15.4943 21.9579 15.3074ZM19.0051 11.3772C18.7098 11.7965 18.2522 12.1804 18.1399 12.647C17.9894 13.2877 18.887 14.2503 19.4569 14.0761C19.6913 13.9909 19.905 13.8571 20.0841 13.6836C20.2632 13.5101 20.4037 13.3007 20.4963 13.0692C20.6882 12.3989 19.8998 11.5692 18.9963 11.3743L19.0051 11.3772Z" fill="#00749A"/>
<path d="M106.41 21.2132C105.548 32.9063 100.72 42.7687 89.839 48.9696C84.9019 51.7836 79.5543 52.5839 74.1064 50.4135C68.3809 48.1281 65.18 43.5955 63.6682 37.8139C61.5658 29.7675 63.1219 22.164 67.0344 15.0182C70.3622 8.93242 75.0276 4.15476 81.577 1.56514C88.3183 -1.09239 94.6845 -0.516588 100.18 4.57997C103.823 7.96389 105.453 12.3931 106.085 17.2239C106.242 18.3844 106.28 19.5655 106.41 21.2132ZM103.422 21.535C103.2 19.8224 103.127 18.1157 102.743 16.4769C101.426 10.7484 98.4316 6.30736 92.6028 4.4028C87.7661 2.82009 83.1213 3.77385 78.9726 6.46977C69.5236 12.5939 65.2804 21.4848 65.933 32.6435C66.184 36.931 67.808 40.8139 70.9528 43.8996C75.4115 48.2875 82.1292 49.2856 88.2651 46.1438C98.2309 41.0295 102.569 32.3453 103.422 21.538V21.535Z" fill="#00749A"/>
<path d="M27.916 69.7542L34.5362 63.1104C36.8704 65.1681 39.633 66.681 42.624 67.5396C45.6013 68.3816 48.7302 68.541 51.7777 68.0061C52.82 73.4363 50.1596 82.4749 45.2047 87.1669L27.916 69.7542Z" fill="#00749A"/>
<path d="M27.8325 44C27.6613 53.1242 28.4762 55.95 32.7696 61.3537L26.0756 67.9119L8.81641 50.5198C14.1138 45.8543 20.4623 43.6279 27.8325 44Z" fill="#00749A"/>
<path d="M6.98876 52.4268L24.2539 69.7952L17.672 76.4302C12.729 72.2962 6.97695 70.6161 0.489617 71.5669C-1.38837 68.0324 2.42666 56.7733 6.98876 52.4268Z" fill="#00749A"/>
<path d="M19.498 78.2495L26.1419 71.5791L43.4395 88.9416C38.715 93.799 29.9805 96.4152 24.3466 95.4674C25.0789 88.1621 23.9125 84.0459 19.498 78.2495Z" fill="#00749A"/>
<path d="M100.169 80.5646C97.4347 81.7162 94.5941 82.9269 91.7387 84.108C91.4399 84.2079 91.1159 84.2027 90.8204 84.0932C83.0397 81.2851 75.2679 78.4504 67.4932 75.6511C66.7048 75.3559 66.3947 75.0842 66.6457 74.1747C67.1536 72.3115 67.0886 72.2524 68.9637 72.403C76.641 72.9493 84.3183 73.5842 91.9956 74.03C92.6964 74.0459 93.3855 74.2124 94.0162 74.5181C94.647 74.8238 95.2046 75.2615 95.6512 75.8017C97.1069 77.3874 98.6483 78.9553 100.169 80.5646Z" fill="#00749A"/>
<path d="M101.329 67.2149C98.943 68.712 96.7284 70.1677 94.4429 71.4935C93.816 71.7977 93.1158 71.9185 92.4232 71.842C84.486 71.2927 76.5518 70.6992 68.6176 70.1116C68.2987 70.088 67.9857 70.0171 67.5664 69.9522C67.9148 68.2986 68.219 66.7041 68.6087 65.1568C68.6678 64.9294 69.1285 64.6725 69.4178 64.6548C77.3904 64.1144 85.363 63.6184 93.3356 63.0751C94.0698 63.001 94.8113 63.0733 95.5173 63.2877C96.2234 63.502 96.8799 63.8543 97.4489 64.3241C98.6507 65.2985 99.9233 66.1755 101.329 67.2149Z" fill="#00749A"/>
<path d="M65.9593 77.4141C70.4446 79.0352 74.7971 80.606 79.1436 82.1828C82.5305 83.4083 85.9351 84.5776 89.2865 85.9034C90.2131 86.305 91.025 86.9311 91.6488 87.7253C93.0425 89.4793 94.265 91.3661 95.6114 93.2795C95.3841 93.3959 95.1482 93.4946 94.9057 93.5748C93.4293 93.9852 91.9263 94.3839 90.4352 94.7825C89.8512 94.9539 89.2391 95.0081 88.634 94.9423C88.029 94.8764 87.4429 94.6916 86.9095 94.3986C79.8227 90.558 72.7409 86.7262 65.664 82.9033C65.038 82.5667 64.8461 82.2212 65.038 81.5126C65.4012 80.2163 65.6433 78.8787 65.9593 77.4141Z" fill="#00749A"/>
<path d="M63.6332 92.4968C63.6338 93.9801 63.1949 95.4304 62.3719 96.6644C61.5489 97.8984 60.3787 98.861 59.0091 99.4305C57.6395 100 56.1318 100.151 54.6765 99.8643C53.2212 99.5776 51.8834 98.8662 50.8321 97.8198C49.7808 96.7734 49.063 95.439 48.7695 93.9851C48.476 92.5311 48.6198 91.0228 49.1829 89.6505C49.746 88.2782 50.703 87.1035 51.9331 86.2747C53.1633 85.4459 54.6114 85.0002 56.0947 84.9938C57.0831 84.9887 58.0627 85.1791 58.9773 85.5539C59.8919 85.9287 60.7234 86.4807 61.4239 87.1779C62.1245 87.8752 62.6803 88.704 63.0595 89.6169C63.4386 90.5297 63.6336 91.5084 63.6332 92.4968Z" fill="#00749A"/>
<path d="M51.7264 65.7677C45.747 66.7657 40.6239 65.307 36.1562 61.5894L45.31 52.415C48.715 56.1383 50.9469 60.7828 51.7264 65.7677Z" fill="#00749A"/>
<path d="M17.7898 79.8232C21.3834 83.1629 23.5478 91.1857 21.9238 95.3491C16.9974 94.5616 12.4069 92.3567 8.71289 89.0035C11.7691 85.9149 14.7809 82.8705 17.7898 79.8232Z" fill="#00749A"/>
<path d="M0.511719 73.9448C5.22146 72.4979 12.9342 74.621 16.1055 78.1791C15.9431 78.3592 15.7837 78.5512 15.6095 78.7283L7.02858 87.3564C3.57125 83.6332 1.30235 78.9638 0.511719 73.9448Z" fill="#00749A"/>
<path d="M30.2729 44.3633C34.3153 44.6054 41.1216 47.9066 43.5281 50.7915C43.4485 50.9061 43.3617 51.0156 43.2683 51.1193L34.652 59.8065C31.1765 57.4059 28.7139 48.571 30.2729 44.3633Z" fill="#00749A"/>
<path d="M57.3313 80.7211C56.5116 80.5604 55.7021 80.3513 54.9071 80.0951C53.0261 79.3658 52.8106 78.8845 53.3185 76.9829C54.1428 74.0365 54.421 70.9642 54.1393 67.9177C53.9828 66.3882 54.597 65.3694 55.7811 64.581C57.3372 63.5416 59.0617 63.2168 61.046 63.3999C59.8087 69.1579 58.5981 74.8155 57.3313 80.7211Z" fill="#00749A"/>
<path d="M63.223 63.8042L66.4711 64.4774C65.2428 70.2325 64.0292 75.9196 62.7919 81.7071L59.5586 81.025C60.7692 75.2493 61.9917 69.571 63.223 63.8042Z" fill="#00749A"/>
<path d="M70.4811 51.1694L74.3197 52.9411C74.0747 53.4963 73.8355 54.0543 73.5815 54.6065C72.489 56.9688 71.4171 59.3487 70.2744 61.6933C70.167 61.8781 70.0194 62.0364 69.8426 62.1565C69.6657 62.2766 69.4641 62.3555 69.2527 62.3872C68.0716 62.4049 66.8698 62.275 65.4141 62.1834C67.1769 58.3418 68.8216 54.7689 70.4811 51.1694Z" fill="#00749A"/>
<path d="M82.5277 94.543C80.6615 96.294 78.8101 97.7409 76.622 98.6178C75.2667 99.1641 73.9468 98.6592 72.8985 97.6139C72.3463 97.0647 72.2902 96.5922 73.0225 96.105C74.6732 95.0065 76.2854 93.852 77.939 92.7594C78.0808 92.6666 78.241 92.6053 78.4086 92.5798C78.5763 92.5543 78.7474 92.5652 78.9105 92.6118C80.068 93.164 81.1753 93.8077 82.5277 94.543Z" fill="#00749A"/>
<path d="M76.3087 91.1713L73.6305 93.0198C72.5055 91.3957 71.407 89.8071 70.3086 88.2155L70.4444 88L76.3087 91.1713Z" fill="#00749A"/>
<path d="M97.4927 15.6888C96.728 17.3424 96.0163 18.8926 95.2575 20.5225L89.4434 17.865C90.1698 16.2793 90.8784 14.7321 91.655 13.0312L97.4927 15.6888Z" fill="#00749A"/>
<path d="M87.4147 16.9227L81.5977 14.2386L83.8329 9.40186L89.647 12.0771C88.8822 13.7484 88.1647 15.3075 87.4147 16.9227Z" fill="#00749A"/>
<path d="M78.4336 21.0915L80.6659 16.2637L86.4889 18.9212C85.7477 20.5364 85.0331 22.0866 84.2683 23.7579L78.4336 21.0915Z" fill="#00749A"/>
<path d="M81.0924 30.6115L75.2754 27.9304L77.5048 23.1055L83.3277 25.7778L81.0924 30.6115Z" fill="#00749A"/>
<path d="M88.9362 34.2056L83.1191 31.5481L85.3426 26.7173L91.1626 29.3925C90.4155 31.0018 89.7069 32.555 88.9362 34.2056Z" fill="#00749A"/>
<path d="M80.1695 32.6225L77.9401 37.4533L72.1172 34.7958L74.3525 29.9473L80.1695 32.6225Z" fill="#00749A"/>
<path d="M92.1032 27.3723L86.2832 24.697L88.4949 19.8662L94.3178 22.5237C93.5796 24.1389 92.8739 25.6862 92.1032 27.3723Z" fill="#00749A"/>
<path d="M85.7761 41.0557L79.9531 38.3982L82.1825 33.5645L88.0084 36.2367L85.7761 41.0557Z" fill="#00749A"/>
<path d="M70.1646 19.7368L75.4797 22.1699L73.2769 27.0007C71.8004 26.3363 70.3861 25.7015 68.9835 25.0253C68.8942 24.9563 68.8235 24.8662 68.7777 24.7631C68.7318 24.6601 68.7122 24.5472 68.7207 24.4347C69.1636 22.8816 69.6538 21.3609 70.1646 19.7368Z" fill="#00749A"/>
<path d="M90.9492 35.1413C91.7229 33.4759 92.4256 31.9434 93.1815 30.3193L98.4966 32.7495L95.7092 37.3264L90.9492 35.1413Z" fill="#00749A"/>
<path d="M96.3446 23.4688L100.83 25.5357C100.349 27.2543 99.8821 28.9226 99.3801 30.7209L94.1152 28.2995L96.3446 23.4688Z" fill="#00749A"/>
<path d="M76.418 20.1614L71.1738 17.743L74.1827 13.2725L78.6533 15.3394L76.418 20.1614Z" fill="#00749A"/>
<path d="M71.2979 36.8418L77.0086 39.4698C76.2793 41.0378 75.5824 42.5466 74.8619 44.0998C73.0454 43.0415 71.5299 41.536 70.4593 39.7267C70.0311 39.0092 70.2172 38.3802 71.2979 36.8418Z" fill="#00749A"/>
<path d="M76.7754 45.2726C77.5963 43.5009 78.2784 42.0038 79.0166 40.3975L84.7273 43.0166C84.0984 45.4054 83.936 45.6269 81.6357 45.6535C80.0885 45.6742 78.5353 45.4261 76.7754 45.2726Z" fill="#00749A"/>
<path d="M98.6244 13.7722L92.5977 11.0024C93.1498 9.82128 93.6695 8.6874 94.2099 7.51514C96.0495 8.54837 97.5656 10.0727 98.5889 11.9178C98.8222 12.3548 98.6244 12.9985 98.6244 13.7722Z" fill="#00749A"/>
<path d="M84.8672 7.44086C84.9794 6.46053 85.4578 6.11505 86.3436 6.02056C88.3124 5.76203 90.3142 5.95697 92.1961 6.59046L90.5927 10.0777L84.8672 7.44086Z" fill="#00749A"/>
<path d="M87.7188 42.1455C88.5455 40.3738 89.2601 38.8059 90.016 37.1611L94.3124 39.1277C92.8065 40.3738 91.5161 41.6199 90.0308 42.5677C89.5761 42.8571 88.5957 42.3286 87.7188 42.1455Z" fill="#00749A"/>
<path d="M70.1173 33.8009C67.6901 32.797 68.1448 33.1661 68.0504 31.1434C67.9854 29.8766 68.0504 28.6069 68.0504 27.0508L72.3438 29.0292C71.5701 30.6621 70.8585 32.2005 70.1173 33.8009Z" fill="#00749A"/>
<path d="M79.5818 13.3172L75.8672 11.6046C77.221 10.1922 78.797 9.01122 80.5326 8.10845C80.8102 7.96376 81.321 8.27972 81.8407 8.40373L79.5818 13.3172Z" fill="#00749A"/>
<path d="M101.173 23.2386L97.2812 21.4669L99.4516 16.71C100.337 16.8369 100.777 17.2415 100.816 18.1391C100.893 19.7366 101.04 21.3518 101.173 23.2386Z" fill="#00749A"/>
</g>
<defs>
<clipPath id="clip0_1929_19658">
<rect width="106.411" height="100" fill="white"/>
</clipPath>
</defs>
</svg>
