<svg width="493" height="344" viewBox="0 0 493 344" fill="none" xmlns="http://www.w3.org/2000/svg">
<path opacity="0.4" d="M52.4204 131.633C69.0136 131.633 82.465 118.174 82.465 101.572C82.465 84.9693 69.0136 71.5103 52.4204 71.5103C35.8273 71.5103 22.3759 84.9693 22.3759 101.572C22.3759 118.174 35.8273 131.633 52.4204 131.633Z" fill="#E5E5FF"/>
<path d="M444.053 152.774C442.722 152.773 441.393 152.682 440.075 152.501L440.171 151.793C441.729 152.006 443.302 152.09 444.873 152.045L444.894 152.761C444.614 152.769 444.333 152.774 444.053 152.774ZM449.693 152.223L449.555 151.521C451.096 151.217 452.61 150.785 454.081 150.231L454.334 150.901C452.827 151.47 451.275 151.912 449.695 152.223H449.693ZM435.367 151.45C433.829 150.969 432.334 150.36 430.897 149.631L431.219 148.993C432.621 149.703 434.08 150.296 435.58 150.765L435.367 151.45ZM458.697 148.823L458.337 148.194C459.694 147.401 460.984 146.495 462.191 145.488L462.65 146.039C461.412 147.075 460.09 148.006 458.697 148.823ZM426.798 147.095C425.632 146.232 424.533 145.283 423.509 144.256L423.17 143.913L423.682 143.414L424.013 143.749C425.014 144.751 426.087 145.677 427.225 146.519L426.798 147.095ZM466.089 142.664L465.547 142.195C466.573 141.004 467.499 139.731 468.315 138.387L468.926 138.758C468.089 140.137 467.138 141.443 466.083 142.664H466.089ZM420.109 140.178C419.194 138.85 418.392 137.449 417.71 135.988L418.359 135.685C419.024 137.11 419.806 138.478 420.697 139.774L420.109 140.178ZM471.076 134.434L470.41 134.17C470.988 132.708 471.445 131.2 471.775 129.662L472.475 129.813C472.134 131.389 471.664 132.935 471.07 134.434H471.076ZM416.043 131.453C415.616 129.899 415.317 128.312 415.151 126.709L415.863 126.633C416.025 128.198 416.316 129.746 416.734 131.263L416.043 131.453ZM473.092 125.025L472.378 124.991C472.397 124.56 472.406 124.127 472.408 123.692C472.406 122.553 472.336 121.415 472.198 120.284L472.91 120.198C473.049 121.358 473.119 122.524 473.12 123.692C473.118 124.136 473.107 124.58 473.086 125.025H473.092ZM415.765 121.924L415.051 121.88C415.149 120.271 415.383 118.673 415.748 117.102L416.443 117.264C416.087 118.796 415.858 120.355 415.758 121.924H415.765ZM471.258 115.672C470.815 114.16 470.246 112.689 469.558 111.273L470.203 110.958C470.908 112.409 471.49 113.915 471.945 115.462L471.258 115.672ZM417.873 112.781L417.213 112.506C417.832 111.017 418.575 109.583 419.435 108.218L420.04 108.6C419.203 109.931 418.478 111.329 417.873 112.781ZM467.138 107.23C466.224 105.951 465.206 104.749 464.094 103.637L464.599 103.13C465.74 104.269 466.784 105.502 467.72 106.815L467.138 107.23ZM422.87 104.838L422.334 104.36C422.709 103.941 423.096 103.533 423.496 103.13C424.237 102.391 425.016 101.692 425.83 101.036L426.278 101.593C425.484 102.234 424.724 102.918 424.003 103.641C423.618 104.029 423.239 104.429 422.874 104.838H422.87ZM461.26 101.149C460.011 100.194 458.685 99.344 457.297 98.6078L457.631 97.9794C459.055 98.7332 460.414 99.6049 461.693 100.585L461.26 101.149ZM430.177 98.9472L429.827 98.3187C431.234 97.5287 432.705 96.8581 434.223 96.3141L434.464 96.9886C432.984 97.5208 431.552 98.176 430.181 98.9472H430.177ZM452.967 96.7623C451.474 96.27 449.944 95.9021 448.391 95.6626L448.501 94.9546C450.094 95.2004 451.663 95.5774 453.193 96.0816L452.967 96.7623ZM439.009 95.7778L438.882 95.0719C440.471 94.7873 442.082 94.6346 443.697 94.6152V95.3316C442.128 95.3515 440.562 95.5007 439.018 95.7778H439.009Z" fill="#9192FF"/>
<path d="M380.788 184.41L380.689 183.7C382.231 183.486 383.728 183.028 385.125 182.343L385.442 182.986C383.976 183.705 382.405 184.186 380.788 184.41ZM375.924 184.316C374.318 184.029 372.767 183.487 371.331 182.712L371.672 182.083C373.041 182.823 374.519 183.339 376.05 183.612L375.924 184.316ZM389.417 180.177L388.915 179.668L389.053 179.532C390.108 178.476 390.998 177.266 391.691 175.943L392.319 176.277C391.593 177.666 390.659 178.938 389.551 180.047L389.417 180.177ZM367.468 179.758C366.343 178.576 365.413 177.223 364.713 175.749L365.36 175.443C366.028 176.849 366.914 178.14 367.988 179.268L367.468 179.758ZM393.866 171.666L393.161 171.549C393.415 170.013 393.425 168.446 393.192 166.907L393.9 166.798C394.145 168.412 394.133 170.055 393.866 171.666ZM363.353 171.071C363.271 170.428 363.231 169.781 363.231 169.133C363.231 168.149 363.324 167.167 363.51 166.201L364.213 166.335C364.037 167.255 363.948 168.19 363.947 169.127C363.947 169.745 363.985 170.362 364.062 170.975L363.353 171.071ZM391.777 162.483C391.074 161.094 390.156 159.826 389.055 158.727L389.56 158.22C390.715 159.373 391.68 160.703 392.417 162.16L391.777 162.483ZM365.796 161.978L365.168 161.63C365.864 160.379 366.731 159.231 367.745 158.22C367.885 158.077 368.03 157.939 368.174 157.801L368.662 158.327C368.524 158.457 368.385 158.589 368.243 158.723C367.282 159.689 366.459 160.783 365.796 161.974V161.978ZM385.967 156.36C384.618 155.585 383.153 155.032 381.629 154.72L381.774 154.018C383.372 154.345 384.908 154.926 386.323 155.74L385.967 156.36ZM372.524 155.75L372.233 155.095C373.718 154.416 375.301 153.976 376.923 153.794L377.003 154.506C375.454 154.679 373.942 155.098 372.524 155.746V155.75Z" fill="#9192FF"/>
<path d="M435.222 201.818C433.436 201.818 431.691 201.288 430.206 200.295C428.721 199.302 427.563 197.891 426.88 196.24C426.197 194.589 426.018 192.773 426.366 191.02C426.715 189.268 427.575 187.658 428.837 186.394C430.1 185.131 431.709 184.27 433.461 183.922C435.212 183.573 437.028 183.752 438.678 184.436C440.328 185.12 441.738 186.278 442.73 187.764C443.722 189.249 444.252 190.996 444.252 192.783C444.249 195.178 443.297 197.475 441.604 199.168C439.911 200.862 437.616 201.815 435.222 201.818ZM435.222 184.465C433.578 184.465 431.971 184.953 430.603 185.867C429.236 186.781 428.171 188.08 427.541 189.6C426.912 191.12 426.748 192.792 427.068 194.406C427.389 196.019 428.181 197.501 429.344 198.665C430.506 199.828 431.988 200.62 433.6 200.941C435.213 201.262 436.885 201.098 438.404 200.468C439.923 199.838 441.221 198.772 442.135 197.404C443.048 196.036 443.536 194.428 443.536 192.783C443.533 190.577 442.657 188.463 441.098 186.903C439.54 185.344 437.426 184.467 435.222 184.465Z" fill="#9192FF"/>
<path d="M194.049 24.8143C192.263 24.8152 190.517 24.286 189.032 23.2938C187.546 22.3015 186.388 20.8908 185.704 19.24C185.02 17.5892 184.841 15.7725 185.189 14.0197C185.536 12.2669 186.396 10.6567 187.659 9.39278C188.921 8.12885 190.53 7.26797 192.282 6.91903C194.034 6.57008 195.849 6.74875 197.499 7.43244C199.15 8.11612 200.56 9.27411 201.552 10.7599C202.545 12.2458 203.075 13.9927 203.075 15.7797C203.072 18.1743 202.12 20.47 200.428 22.1636C198.736 23.8572 196.442 24.8105 194.049 24.8143ZM194.049 7.46152C192.405 7.46152 190.798 7.94938 189.43 8.86339C188.063 9.77741 186.998 11.0765 186.369 12.5965C185.739 14.1164 185.575 15.789 185.895 17.4025C186.216 19.0161 187.008 20.4983 188.171 21.6616C189.333 22.8249 190.815 23.6171 192.427 23.9381C194.04 24.2591 195.712 24.0943 197.231 23.4647C198.75 22.8352 200.048 21.769 200.962 20.4011C201.875 19.0332 202.363 17.4249 202.363 15.7797C202.36 13.5745 201.483 11.4603 199.925 9.90093C198.366 8.34156 196.253 7.46429 194.049 7.46152Z" fill="#9192FF"/>
<path d="M59.8274 164.646C58.0413 164.646 56.2953 164.116 54.8102 163.123C53.3252 162.13 52.1679 160.719 51.4846 159.068C50.8014 157.416 50.623 155.6 50.9719 153.847C51.3208 152.094 52.1814 150.484 53.4448 149.221C54.7082 147.958 56.3177 147.098 58.0697 146.75C59.8217 146.402 61.6374 146.582 63.2872 147.267C64.937 147.951 66.3468 149.11 67.3382 150.597C68.3296 152.084 68.8581 153.831 68.8569 155.618C68.853 158.012 67.9002 160.307 66.2076 162C64.5149 163.692 62.2204 164.644 59.8274 164.646ZM59.8274 147.294C58.1826 147.293 56.5747 147.781 55.2069 148.695C53.8392 149.609 52.773 150.908 52.1433 152.428C51.5136 153.949 51.3486 155.622 51.6692 157.236C51.9899 158.85 52.7817 160.333 53.9446 161.496C55.1074 162.66 56.5891 163.453 58.2022 163.774C59.8154 164.095 61.4875 163.931 63.0071 163.301C64.5267 162.671 65.8255 161.605 66.7393 160.237C67.6531 158.868 68.1409 157.26 68.1409 155.614C68.137 153.409 67.2598 151.296 65.7015 149.737C64.1432 148.178 62.0309 147.301 59.8274 147.298V147.294Z" fill="#9192FF"/>
<path d="M411.36 68.3953L397.354 54.3815L411.36 40.3677L425.366 54.3815L411.36 68.3953ZM398.367 54.3815L411.36 67.3814L424.363 54.3815L411.37 41.3815L398.367 54.3815Z" fill="#9192FF"/>
<path d="M30.5972 97.9542L27.2161 94.5775L27.7207 94.0705L31.0955 97.4473L30.5972 97.9542ZM34.4787 95.805L33.972 95.2981L37.3468 91.9213L37.8535 92.4283L34.4787 95.805ZM23.8497 91.1966L20.4749 87.824L20.9795 87.3171L24.3543 90.7022L23.8497 91.1966ZM41.2262 89.0474L40.7195 88.5404L44.0943 85.1637L44.601 85.6706L41.2262 89.0474ZM17.098 84.4389L13.7253 81.0664L14.2361 80.5637L17.6088 83.9404L17.098 84.4389ZM47.9758 82.2897L47.4692 81.7828L50.844 78.4061L51.3506 78.913L47.9758 82.2897ZM10.3484 77.6813L6.97569 74.3172L7.48233 73.8102L10.8571 77.187L10.3484 77.6813ZM54.7317 75.5321L54.2229 75.0378L57.5978 71.661L58.1044 72.168L54.7317 75.5321ZM56.6766 71.2316L53.2976 67.8696L53.8042 67.3647L57.179 70.7393L56.6766 71.2316ZM6.55907 70.9404L6.05243 70.4356L9.42095 67.0568L9.92759 67.5637L6.55907 70.9404ZM49.9249 64.4907L46.5501 61.1161L47.0546 60.6092L50.4294 63.9859L49.9249 64.4907ZM13.3087 64.187L12.802 63.6801L16.1768 60.3034L16.6835 60.8082L13.3087 64.187ZM43.1753 57.7394L39.8005 54.3606L40.305 53.8558L43.6819 57.2325L43.1753 57.7394ZM20.0583 57.4336L19.5516 56.9287L22.9265 53.552L23.4331 54.0589L20.0583 57.4336ZM36.4278 50.986L33.053 47.6092L33.5596 47.1023L36.9302 50.4832L36.4278 50.986ZM26.81 50.6801L26.3034 50.1753L29.6782 46.7986L30.1848 47.3055L26.81 50.6801Z" fill="#9192FF"/>
<path d="M101.114 276.593H142.887L143.18 274.58H101.407L101.114 276.593Z" fill="#D1D1FF"/>
<path d="M103.689 258.943H145.462L145.757 256.93H103.982L103.689 258.943Z" fill="#D1D1FF"/>
<path d="M106.267 241.291H148.039L148.332 239.28H106.56L106.267 241.291Z" fill="#D1D1FF"/>
<path d="M108.842 223.64H150.614L150.909 221.627H109.135L108.842 223.64Z" fill="#D1D1FF"/>
<path d="M111.712 203.977L111.419 205.99H153.191L153.485 203.977H111.712Z" fill="#D1D1FF"/>
<path d="M98.5372 294.244H140.31L140.603 292.233H98.8303L98.5372 294.244Z" fill="#D1D1FF"/>
<path d="M95.96 311.896H137.733L138.028 309.883H96.2552L95.96 311.896Z" fill="#D1D1FF"/>
<path d="M114.289 186.327L113.994 188.34H155.767L156.062 186.327H114.289Z" fill="#D1D1FF"/>
<path d="M155.557 186.269L133.354 338.921L134.299 339.059L156.502 186.406L155.557 186.269Z" fill="#1B1B43"/>
<path d="M113.802 186.137L91.5994 338.79L92.5441 338.927L114.747 186.275L113.802 186.137Z" fill="#1B1B43"/>
<path d="M158.93 144.315L145.885 159.914L140.76 162.376L145.366 168.788L147.947 167.395C150.683 165.671 153.206 163.373 154.787 160.551L160.833 149.728L158.93 144.315Z" fill="#FFBC96"/>
<path d="M126 169.464L133.795 175.036L146.362 170.101L140.76 162.376L126 169.464Z" fill="#050505"/>
<path d="M273.208 101.404C270.364 101.543 267.605 102.423 265.205 103.958L263.486 67.0757L150.736 72.3335L155.991 185.146L197.876 183.193C196.233 185.946 195.433 189.121 195.573 192.324C196.051 202.561 206.106 210.41 218.043 209.855C229.981 209.3 239.264 200.546 238.786 190.309C238.63 187.106 237.538 184.02 235.646 181.432L268.724 179.888L266.999 142.844C269.532 144.148 272.36 144.767 275.206 144.642C285.437 144.164 293.281 134.103 292.725 122.159C292.168 110.215 283.433 100.929 273.208 101.404Z" fill="#407BFF"/>
<g opacity="0.6">
<path d="M285.215 121.306C273.883 119.117 257.161 123.558 249.777 111.979C246.371 106.641 247.112 100.248 252.583 96.6869C256.142 94.3597 260.427 92.9269 264.621 91.5779L264.591 90.9243C261.901 91.8586 259.219 92.8096 256.579 93.8821C252.35 95.5893 248.052 98.2371 247.098 103.057C246.246 107.364 248.228 111.891 251.222 114.936C255.093 118.879 260.775 120.282 266.101 120.802C272.679 121.447 279.389 120.737 285.885 122.172C288.293 122.696 290.598 123.611 292.71 124.882C292.727 124.604 292.741 124.323 292.748 124.044C290.408 122.715 287.862 121.79 285.215 121.306Z" fill="white"/>
<path d="M268.155 143.006C257.291 139.38 243.34 137.499 234.612 146.776C226.815 155.059 229.738 167.801 236.546 175.694C238.362 177.773 240.455 179.593 242.766 181.103L243.989 181.046C241.797 179.698 239.783 178.079 237.995 176.228C230.425 168.293 227.108 154.531 236.111 146.315C244.874 138.316 256.565 140.297 267.049 143.517L267.018 142.851C268.722 143.718 270.564 144.285 272.461 144.526C271.006 144.003 269.572 143.49 268.155 143.006Z" fill="white"/>
<path d="M170.371 184.475L171.554 184.421C183.171 174.398 193.746 163.124 199.204 148.523C202.583 139.491 203.908 129.252 201.253 119.842C200.127 115.852 198.192 111.945 195.019 109.193C191.543 106.176 186.994 105.125 182.482 105.242C172.507 105.5 162.51 111.907 152.49 109.892L152.522 110.535C156.966 111.258 161.785 110.508 166.176 109.366C175.997 106.813 188.748 102.244 196.463 111.715C202.922 119.637 202.842 131.881 200.65 141.33C196.457 159.309 184.023 172.764 170.371 184.475Z" fill="white"/>
<path d="M204.624 81.9043C200.338 84.7154 194.818 85.7921 189.833 86.5756C184.332 87.4373 178.744 87.6013 173.202 87.0636C166.098 86.3766 158.348 84.2797 151.385 86.1503L151.418 86.8542C155.894 85.5973 160.724 86.0917 165.296 86.7264C171.012 87.5182 176.625 88.2723 182.413 88.0251C187.835 87.8108 193.209 86.9242 198.412 85.3858C202.038 84.2965 205.819 82.7192 208.214 79.6441C210.548 76.6465 211.162 73.1043 210.691 69.5391L209.853 69.5789C210.494 74.2857 209.23 78.8795 204.624 81.9043Z" fill="white"/>
</g>
<path d="M135.907 159.533C135.907 159.533 137.655 161.389 137.569 161.837C137.484 162.286 135.61 162.713 135.61 162.713L135.907 159.533Z" fill="#D28572"/>
<path d="M133.441 163.172H126.195V171.787H133.441V163.172Z" fill="#FFBC96"/>
<path d="M133.441 163.18V169.14C130.977 168.74 129.17 167.087 127.977 163.982L130.931 163.18H133.441Z" fill="#1B1B43"/>
<path d="M135.365 155.543C135.365 155.543 138.505 166.815 132.285 166.605C127.728 166.452 125.36 161.775 125.36 161.775L128.787 155.474L135.365 155.543Z" fill="#FFBC96"/>
<path d="M131.894 161.18C131.439 159.64 131.684 157.977 132.84 156.98C135.894 157.895 138.074 157.189 139.102 154.353C139.102 154.353 136.077 155.118 133.958 153.163C131.72 151.098 127.311 152.849 126.926 154.143C122.51 155.784 122.973 159.814 126.157 164.716C126.961 162.929 128.879 162.217 130.776 161.706L131.894 161.18Z" fill="#1B1B43"/>
<path d="M132.197 160.497C132.679 161.412 132.467 162.47 131.726 162.86C130.985 163.249 129.995 162.822 129.513 161.906C129.032 160.991 129.243 159.933 129.984 159.544C130.726 159.154 131.716 159.581 132.197 160.497Z" fill="#FFBC96"/>
<path d="M126.685 274.997H118.353L119.083 266.243H126.245L126.685 274.997Z" fill="#1B1B43"/>
<path d="M118.204 195.728C115.851 199.289 115.499 207.348 116.772 211.328V268.788H128.077L131.249 201.933L118.204 195.728Z" fill="#3335CF"/>
<path d="M128.236 205.816C127.878 208.619 128.833 211.964 130.703 213.986L130.941 207.798L128.236 205.816Z" fill="#1B1B43"/>
<path d="M134.358 245.566L131.64 250.409L143.316 256.968L140.172 249.356L141.97 246.019L135.729 242.59L134.358 245.566Z" fill="#1B1B43"/>
<path d="M134.749 194.295L147.993 210.651C151.213 214.828 152.484 219.064 150.974 224.022L142.99 247.179L133.008 243.637L138.802 219.007C132.681 213.707 125.835 205.207 118.838 196.047L134.749 194.295Z" fill="#3335CF"/>
<path d="M139.816 181.069C139.82 181.104 139.82 181.139 139.816 181.174C139.738 182.473 139.625 183.752 139.481 184.995C139.111 188.375 138.464 191.72 137.546 194.995C137.472 195.291 137.336 195.567 137.146 195.806C136.956 196.045 136.718 196.24 136.447 196.38C136.004 196.612 135.515 196.746 135.015 196.771C132.783 196.933 130.569 196.264 128.316 196.352C126.139 196.447 124.221 197.096 122.207 197.622C121.788 197.737 121.349 197.831 120.909 197.936C120.746 197.976 120.566 198.003 120.383 198.043C119.399 198.215 118.141 198.319 117.168 197.965C116.637 197.808 116.187 197.452 115.912 196.972C115.206 195.715 116.381 193.964 116.732 192.76C117.199 191.169 117.575 189.553 117.859 187.919C118.438 184.545 118.665 181.12 118.537 177.699C118.384 173.249 121.677 169.351 126.107 168.901C126.134 168.901 126.174 168.89 126.201 168.89C128.617 168.654 131.053 168.737 133.447 169.14C134.407 169.305 135.356 169.526 136.29 169.799H136.309C137.584 170.166 138.821 170.652 140.004 171.251C140.096 174.668 140.033 177.941 139.816 181.069Z" fill="#050505"/>
<path d="M139.807 181.032V181.174C139.73 182.473 139.617 183.753 139.472 184.995C137.842 184.119 137.245 182.328 137.036 180.895C137.025 180.849 139.807 181.032 139.807 181.032Z" fill="#1B1B43"/>
<path d="M149.861 172.567L158.85 171.213L167.792 162.252L171.895 166.042L163.312 176.071C161.958 177.652 160.041 178.64 157.969 178.826L144.298 180.049L149.861 172.567Z" fill="#FFBC96"/>
<path d="M167.792 162.252L168.839 158.777C168.839 158.777 169.182 154.514 169.735 154.988C170.287 155.461 170.624 158.7 170.624 158.7C170.624 158.7 172.833 152.935 173.702 152.935C174.571 152.935 173.053 158.572 173.053 158.572C173.053 158.572 175.419 159.309 175.578 160.993C175.668 161.953 171.895 166.046 171.895 166.046L167.319 166.362L167.792 162.252Z" fill="#FFBC96"/>
<path d="M136.29 169.795C141.206 170.994 145.941 172.083 149.844 172.567L148.948 181.404L134.331 180.866L136.29 169.795Z" fill="#050505"/>
<path d="M149.815 172.757C144.272 171.969 138.786 170.823 133.391 169.326L133.491 168.958C138.87 170.451 144.34 171.593 149.867 172.378L149.815 172.757Z" fill="#1B1B43"/>
<path d="M415.92 243.346C414.63 243.945 413.432 244.812 412.652 246.002C411.871 247.192 411.55 248.725 412.009 250.074C412.327 251.01 413.005 251.863 412.968 252.852C412.938 253.689 412.392 254.414 411.814 255.024C411.236 255.633 410.589 256.212 410.261 256.984C409.932 257.757 410.051 258.801 410.767 259.232C411.035 259.391 411.395 259.479 411.513 259.764C411.691 260.162 411.303 260.558 411 260.879C410.533 261.384 410.238 262.024 410.159 262.708C410.079 263.391 410.218 264.082 410.556 264.681C410.894 265.281 411.414 265.757 412.04 266.042C412.666 266.327 413.366 266.405 414.04 266.266L433.989 258.528C434.954 257.439 434.584 255.734 433.989 254.41C433.855 254.084 433.673 253.779 433.449 253.507C433.165 253.22 432.839 252.979 432.482 252.793L430.369 251.551C430.038 251.393 429.755 251.148 429.551 250.843C429.145 250.093 429.741 249.004 429.165 248.375C428.766 247.937 428.02 248.011 427.581 247.615C427.141 247.219 427.181 246.498 427.07 245.899C426.664 243.723 423.63 242.782 421.905 242.527C419.703 242.202 417.873 242.437 415.92 243.346Z" fill="#FFA121"/>
<path d="M429.312 256.89L424.654 260.902L423.404 259.442L419.91 255.374L421.857 253.702L424.568 251.371L429.312 256.89Z" fill="#FFBC96"/>
<path d="M423.404 259.442L419.91 255.374L421.857 253.698L424.579 253.352C424.904 255.457 424.488 257.609 423.404 259.442Z" fill="#1B1B43"/>
<path d="M424.375 248.413C425.745 251.714 424.57 255.872 422.573 256.702C420.507 257.561 417.674 256.473 415.231 252.209C413.455 249.104 414.898 246.094 417.423 245.047C419.948 243.999 423.006 245.109 424.375 248.413Z" fill="#FFBC96"/>
<path d="M422.544 248.484C422.339 248.274 422.068 248.14 421.777 248.105C421.474 248.105 421.202 248.314 420.927 248.463C420.653 248.612 420.312 248.717 420.058 248.513C419.934 248.39 419.828 248.249 419.744 248.094C419.667 247.956 419.562 247.835 419.435 247.74C419.308 247.645 419.162 247.578 419.008 247.543C418.849 247.528 418.691 247.569 418.56 247.659C418.429 247.749 418.334 247.883 418.292 248.036C418.218 248.291 418.277 248.576 418.237 248.842C418.172 249.28 417.818 249.621 417.448 249.59C417.077 249.559 416.757 249.263 416.462 249.466C416.167 249.67 416.188 250.122 416.252 250.493C416.317 250.864 416.378 251.301 416.171 251.584C416.085 251.683 415.973 251.756 415.848 251.796C415.724 251.835 415.59 251.839 415.463 251.808C415.216 251.744 414.957 251.739 414.707 251.796C414.575 251.852 414.468 251.956 414.408 252.087C414.347 252.218 414.338 252.366 414.381 252.504C414.12 252.149 413.945 251.738 413.87 251.304C413.807 250.905 413.797 250.5 413.841 250.099C414.05 247.667 415.472 245.451 417.354 244.59C417.69 244.438 418.041 244.321 418.4 244.24C420.053 243.875 421.783 244.176 423.216 245.078C423.896 245.479 424.474 246.033 424.903 246.697C425.369 247.464 425.609 248.347 425.596 249.244C425.585 249.908 425.387 250.635 424.916 250.952C424.683 251.102 424.063 251.295 423.812 251.123C423.515 250.914 423.67 250.769 423.653 250.411C423.609 249.577 423.065 248.922 422.544 248.484Z" fill="#FFA121"/>
<path d="M424.334 251.658C425.316 251.658 426.113 250.861 426.113 249.877C426.113 248.894 425.316 248.097 424.334 248.097C423.351 248.097 422.554 248.894 422.554 249.877C422.554 250.861 423.351 251.658 424.334 251.658Z" fill="#FFBC96"/>
<path d="M433.993 332.492L434.427 339.318L421.223 339.35L427.149 333.635L426.837 329.856L433.928 329.213L433.993 332.492Z" fill="#1B1B43"/>
<path d="M444.641 288.628L442.799 290.662L440.623 293.069L438.304 295.628L429.999 304.805L435.622 331.547H424.893L417.896 310.88C416.962 308.137 416.745 305.201 417.266 302.351C417.788 299.501 419.03 296.831 420.875 294.598L428.062 285.867L431.535 281.646L434.113 280.433L437.672 278.757L440.278 282.444L444.641 288.628Z" fill="#3335CF"/>
<path d="M442.799 290.662L438.304 295.628C437.012 293.146 437.785 289.6 439.637 288.297L442.799 290.662Z" fill="#1B1B43"/>
<path d="M473.067 326.58L477.087 332.113L465.956 339.218L467.9 331.214L465.614 328.191L471.256 323.847L473.067 326.58Z" fill="#1B1B43"/>
<path d="M473.601 323.832L471.997 324.967L466.251 329.035L463.818 330.755L452.324 311.406C448.795 307.499 444.813 300.861 440.623 293.068C439.135 290.289 437.617 287.358 436.08 284.348C435.431 283.06 434.772 281.751 434.113 280.433C433.817 279.861 433.531 279.277 433.235 278.694L437.301 276.966L444.45 273.92L445.587 275.858L446.569 277.559L473.601 323.832Z" fill="#3335CF"/>
<path opacity="0.6" d="M446.569 277.553C444.585 279.568 438.928 284.782 435.875 285.703C433.277 286.489 430.752 286.395 428.062 285.86L431.535 281.64L434.113 280.427C433.817 279.855 433.531 279.27 433.235 278.688L437.301 276.96L445.587 275.852L446.569 277.553Z" fill="#1B1B43"/>
<path d="M401.694 267.199C401.694 267.199 397.4 261.31 397.32 262.663C397.264 263.631 397.251 267.657 397.411 270.031C397.439 270.464 397.63 270.87 397.945 271.169C398.259 271.468 398.675 271.637 399.108 271.644L401.813 271.694L401.694 267.199Z" fill="#D28572"/>
<path d="M426.115 258.047L417.046 268.755L401.057 266.369L400.58 273.412L415.22 276.677C416.151 276.886 417.119 276.864 418.039 276.614C418.96 276.365 419.806 275.895 420.504 275.244L435.18 261.593L426.115 258.047Z" fill="#D1D1FF"/>
<path d="M432.595 283.508C432.195 283.65 431.772 283.71 431.349 283.685C430.926 283.66 430.512 283.55 430.132 283.362C429.752 283.174 429.414 282.912 429.137 282.591C428.86 282.27 428.651 281.896 428.521 281.493C428.129 280.358 427.633 279.115 427.097 277.825C426.239 275.73 425.284 273.462 424.539 271.189C422.946 266.337 422.297 261.427 425.504 257.904C426.044 257.287 426.727 256.812 427.494 256.522C428.261 256.232 429.087 256.135 429.9 256.241C432.344 256.624 436.028 258.658 439.903 266.086C440.89 267.99 442.265 269.665 443.94 271.005C445.278 272.052 446.718 273.374 447.128 274.396C448.135 276.924 438.017 281.533 432.595 283.508Z" fill="#D1D1FF"/>
<path d="M430.945 266.461C430.621 271.112 429.178 275.018 427.097 277.825C426.239 275.73 425.284 273.462 424.539 271.189L430.945 266.461Z" fill="#1B1B43"/>
<path d="M424.698 272.27C424.597 271.933 424.489 271.587 424.378 271.235C423.421 268.202 422.232 264.427 423.787 259.974L424.147 260.1C422.634 264.434 423.754 267.986 424.742 271.12C424.853 271.474 424.951 271.82 425.064 272.167L424.698 272.27Z" fill="#9192FF"/>
<path d="M401.654 272.172C401.654 272.172 397.12 265.567 397.048 266.92C396.992 267.888 396.852 272.452 397.419 274.568C397.651 275.437 398.214 276.164 399.117 276.181L401.822 276.231L401.654 272.172Z" fill="#FFBC96"/>
<path d="M429.806 258.491L417.035 273.294L401.047 270.906L400.57 277.951L415.21 281.217C416.141 281.424 417.108 281.402 418.029 281.152C418.949 280.903 419.795 280.433 420.494 279.784L435.17 266.132L429.806 258.491Z" fill="#D1D1FF"/>
<path d="M417.121 273.491L401.03 271.089L401.085 270.709L416.971 273.083L428.435 259.674L428.726 259.924L417.121 273.491Z" fill="#9192FF"/>
<path d="M397.331 226.414V339.348H284.459V302.35C286.93 303.764 289.725 304.511 292.572 304.518C302.815 304.518 311.118 294.834 311.118 282.886C311.118 270.938 302.815 261.245 292.572 261.245C289.724 261.251 286.927 262.002 284.459 263.424V226.414H325.026C323.984 224.234 323.443 221.848 323.441 219.432C323.441 209.185 333.12 200.877 345.072 200.877C357.024 200.877 366.7 209.185 366.7 219.432C366.698 221.848 366.157 224.234 365.115 226.414H397.331Z" fill="#90B2FF"/>
<g opacity="0.6">
<path d="M310.865 279.327C310.901 279.581 310.932 279.834 310.959 280.09C319.855 282.394 330.821 288.284 338.462 280.004C341.433 276.784 342.982 272.421 343.876 268.204C345.069 262.396 345.447 256.45 344.998 250.537C344.58 244.716 343.173 239.202 341.705 233.57C340.06 227.267 339.155 220.792 342.482 214.855C345.673 209.166 350.705 205.76 356.431 203.634C356.145 203.482 355.853 203.335 355.556 203.194C352.308 204.458 349.307 206.285 346.692 208.59C343.409 211.523 340.83 215.331 339.861 219.665C338.571 225.444 340.344 231.293 341.839 236.842C343.604 243.4 344.592 250.064 344.425 256.869C344.278 262.774 343.587 269.061 341.134 274.505C338.59 280.161 333.854 283.931 327.446 283.636C321.691 283.376 316.396 280.724 310.865 279.327Z" fill="white"/>
<path d="M397.331 307.38C390.877 314.711 379.984 316.544 370.617 316.274C353.186 315.769 332.416 307.933 316.53 318.744C309.578 323.476 305.872 331.22 304.806 339.35H305.535C306.552 331.708 309.919 324.383 316.327 319.76C332.131 308.354 353.444 316.593 371.009 316.999C379.624 317.208 388.804 315.742 395.612 310.03C396.215 309.518 396.789 308.973 397.331 308.398V307.38Z" fill="white"/>
<path d="M389.957 226.414H389.03C388.881 226.657 388.726 226.896 388.582 227.141C379.186 243.061 380.987 263.51 391.909 278.137C393.682 280.513 395.641 283.003 397.331 285.601V284.135C395.794 281.964 394.111 279.889 392.516 277.769C389.662 273.95 387.324 269.876 385.745 265.362C382.626 256.366 382.342 246.629 384.931 237.466C386.056 233.555 387.75 229.832 389.957 226.414Z" fill="white"/>
</g>
<path d="M397.75 112.676V225.603H365.534C366.576 223.423 367.117 221.038 367.119 218.622C367.119 208.374 357.43 200.064 345.49 200.064C333.551 200.064 323.86 208.374 323.86 218.622C323.862 221.038 324.403 223.423 325.445 225.603H284.878V188.526C287.346 189.947 290.143 190.698 292.99 190.703C303.234 190.703 311.537 181.019 311.537 169.062C311.537 157.105 303.234 147.421 292.99 147.421C290.143 147.428 287.347 148.178 284.878 149.598V112.676H397.75Z" fill="#FF6C37"/>
<path opacity="0.6" d="M397.75 124.172C392.177 122.247 386.388 121.13 380.373 121.474C372.981 121.928 365.888 124.559 359.986 129.036C353.886 133.644 349.757 139.876 346.962 146.94C343.73 155.109 342.072 163.825 338.345 171.804C335.077 178.729 330.621 185.027 325.179 190.412C314.364 201.191 300.019 208.297 284.878 210.033V210.745C297.163 209.352 308.941 204.48 318.793 196.943C330.794 187.753 338.611 175.457 343.079 161.136C345.702 152.736 347.894 143.898 353.268 136.742C358.343 129.987 365.846 125.129 374.04 123.127C382.182 121.139 390.148 122.316 397.754 124.974L397.75 124.172Z" fill="white"/>
<path d="M303.984 282.886C303.984 294.826 295.679 304.518 285.437 304.518C282.59 304.511 279.794 303.764 277.322 302.35V339.348H164.457V226.414H206.389C204.622 229.087 203.676 232.218 203.667 235.421C203.667 245.669 213.345 253.979 225.295 253.979C237.245 253.979 246.926 245.669 246.926 235.421C246.918 232.217 245.971 229.086 244.204 226.414H277.316V263.424C279.785 262.002 282.582 261.251 285.431 261.245C295.674 261.245 303.984 270.929 303.984 282.886Z" fill="#FFAC8E"/>
<path d="M215.133 323.905C214.809 314.529 213.199 304.877 204.305 299.885C188.933 291.259 172.483 302.279 164.457 315.901V317.221C167.311 311.781 171.37 307.066 176.323 303.435C183.971 297.893 193.944 295.672 202.733 299.874C212.435 304.51 214.107 314.556 214.432 324.305C214.597 329.318 214.656 334.335 214.66 339.352H215.378C215.374 334.201 215.311 329.05 215.133 323.905Z" fill="white"/>
<path d="M256.609 270.573C261.485 275.391 268.573 272.682 273.684 269.796C277.958 267.368 281.97 264.505 285.657 261.251C285.581 261.251 285.508 261.251 285.433 261.251C285.133 261.251 284.838 261.266 284.543 261.281C281.068 264.273 277.31 266.92 273.322 269.182C269.495 271.346 264.621 273.636 260.166 272.012C256.236 270.579 254.375 266.566 253.676 262.709C252.288 255.101 254.203 246.639 257.26 239.651C259.391 234.793 262.312 230.322 265.904 226.42H264.96C258.087 234.125 253.688 243.943 252.752 254.316C252.26 259.714 252.47 266.486 256.609 270.573Z" fill="white"/>
<path d="M292.431 302.92C292.699 302.792 292.965 302.656 293.229 302.514C289.117 298.343 284.227 295.138 277.946 293.731C269.572 291.845 261.493 294.987 256.401 301.848C250.72 309.498 249.981 319.293 252.275 328.319C253.246 332.128 254.611 335.825 256.349 339.35H257.241C255.325 335.506 253.738 331.482 252.763 327.297C250.688 318.4 251.699 308.76 257.578 301.483C263.4 294.279 272.501 292.245 281.091 295.408C285.485 297.034 289.201 299.696 292.431 302.92Z" fill="white"/>
<path d="M164.457 283.881V284.702C174.223 279.289 182.043 270.502 186.008 259.974C190.084 249.18 189.776 237.085 185.66 226.414H184.886C188.953 236.787 189.368 248.535 185.56 259.128C181.787 269.618 174.098 278.435 164.457 283.881Z" fill="white"/>
<path d="M493 338.395H65.3816V339.35H493V338.395Z" fill="#1B1B43"/>
</svg>
