<svg width="500" height="373" viewBox="0 0 500 373" fill="none" xmlns="http://www.w3.org/2000/svg">
<g clip-path="url(#clip0_1222_25881)">
<path d="M500 327.45H0V327.7H500V327.45Z" fill="#EBEBEB"/>
<path d="M449.9 343.54H416.78V343.79H449.9V343.54Z" fill="#EBEBEB"/>
<path d="M331.22 346.26H322.53V346.51H331.22V346.26Z" fill="#EBEBEB"/>
<path d="M415.78 334.26H396.59V334.51H415.78V334.26Z" fill="#EBEBEB"/>
<path d="M95.65 335.94H52.46V336.19H95.65V335.94Z" fill="#EBEBEB"/>
<path d="M110.89 335.94H104.56V336.19H110.89V335.94Z" fill="#EBEBEB"/>
<path d="M225.15 340.16H131.47V340.41H225.15V340.16Z" fill="#EBEBEB"/>
<path d="M237 282.85H43.91C42.3973 282.847 40.9475 282.244 39.8789 281.174C38.8102 280.103 38.21 278.652 38.21 277.14V5.7098C38.2232 4.20583 38.8292 2.76778 39.8964 1.70802C40.9637 0.648263 42.406 0.0523811 43.91 0.0498047H237C238.514 0.0498047 239.967 0.651392 241.038 1.72223C242.108 2.79306 242.71 4.24542 242.71 5.7598V277.14C242.71 278.654 242.108 280.107 241.038 281.177C239.967 282.248 238.514 282.85 237 282.85ZM43.91 0.249805C42.4636 0.252454 41.0774 0.82887 40.0557 1.85253C39.0339 2.87619 38.46 4.26345 38.46 5.7098V277.14C38.46 278.586 39.0339 279.973 40.0557 280.997C41.0774 282.021 42.4636 282.597 43.91 282.6H237C238.447 282.597 239.835 282.021 240.858 280.998C241.881 279.974 242.457 278.587 242.46 277.14V5.7098C242.457 4.26253 241.881 2.8753 240.858 1.85192C239.835 0.828545 238.447 0.252449 237 0.249805H43.91Z" fill="#EBEBEB"/>
<path d="M453.31 282.85H260.21C258.696 282.847 257.246 282.245 256.175 281.174C255.105 280.104 254.503 278.653 254.5 277.14V5.7098C254.516 4.20492 255.124 2.76688 256.193 1.7074C257.262 0.647913 258.705 0.052353 260.21 0.0498047H453.31C454.812 0.0550092 456.252 0.652054 457.317 1.71153C458.382 2.77101 458.987 4.20756 459 5.7098V277.14C459 278.651 458.401 280.1 457.335 281.17C456.268 282.241 454.821 282.845 453.31 282.85ZM260.21 0.249805C258.763 0.252449 257.375 0.828545 256.352 1.85192C255.329 2.8753 254.753 4.26253 254.75 5.7098V277.14C254.753 278.587 255.329 279.974 256.352 280.998C257.375 282.021 258.763 282.597 260.21 282.6H453.31C454.757 282.597 456.145 282.021 457.168 280.998C458.191 279.974 458.767 278.587 458.77 277.14V5.7098C458.767 4.26253 458.191 2.8753 457.168 1.85192C456.145 0.828545 454.757 0.252449 453.31 0.249805H260.21Z" fill="#EBEBEB"/>
<path d="M258.258 303.725C310.133 276.939 325.196 202.957 291.903 138.48C258.61 74.0039 189.568 43.4497 137.694 70.2356C85.8191 97.0215 70.7558 171.004 104.049 235.481C137.342 299.957 206.384 330.511 258.258 303.725Z" fill="#F0F0F0"/>
<path d="M253.975 277.458C295.852 255.844 308.024 196.13 281.161 144.084C254.298 92.0377 198.573 67.368 156.695 88.9826C114.818 110.597 102.646 170.311 129.509 222.357C156.372 274.403 212.097 299.073 253.975 277.458Z" fill="white"/>
<path d="M272.44 148.56C294 190.25 284.22 238.05 250.68 255.38C217.14 272.71 172.52 252.94 151 211.26C129.48 169.58 139.22 121.76 172.76 104.44C206.3 87.1196 250.92 106.88 272.44 148.56Z" fill="#F0F0F0"/>
<path d="M246.176 235.51C270.914 222.736 277.57 186.436 261.044 154.431C244.518 122.426 211.067 106.836 186.33 119.609C161.592 132.382 154.936 168.683 171.462 200.688C187.988 232.693 221.439 248.283 246.176 235.51Z" fill="white"/>
<path d="M252.88 160.87C264.66 183.7 260.54 209.26 243.68 217.96C226.82 226.66 203.59 215.22 191.81 192.4C180.03 169.58 184.14 144.05 201 135.31C217.86 126.57 241.09 138.05 252.88 160.87Z" fill="#F0F0F0"/>
<path d="M247 163.92C255.51 180.4 253.14 198.55 241.72 204.44C230.3 210.33 214.14 201.76 205.63 185.27C197.12 168.78 199.48 150.64 210.9 144.75C222.32 138.86 238.47 147.43 247 163.92Z" fill="white"/>
<path d="M379.45 66.5498L348.75 82.3998L346.48 112.55L372.38 128.15L403.07 112.3L376.67 96.9598L379.45 66.5498Z" fill="#F0F0F0"/>
<path d="M231.83 177.8C230.494 177.98 229.138 177.682 228.001 176.96C226.863 176.237 226.017 175.137 225.612 173.851C225.206 172.566 225.268 171.179 225.785 169.935C226.303 168.69 227.243 167.669 228.44 167.05L378.74 89.4599C380.08 88.8372 381.609 88.7563 383.007 89.234C384.406 89.7118 385.565 90.7114 386.244 92.0239C386.923 93.3365 387.069 94.8605 386.65 96.2778C386.232 97.6952 385.283 98.8961 384 99.6299L233.7 177.22C233.115 177.521 232.482 177.717 231.83 177.8Z" fill="#F5F5F5"/>
<path d="M409.36 195.59V200.4L411.84 200.64C412.169 202.227 412.796 203.738 413.69 205.09L412.09 207.01L415.5 210.42L417.43 208.83C418.785 209.719 420.294 210.346 421.88 210.68L422.11 213.16H426.93L427.16 210.68C428.746 210.346 430.255 209.719 431.61 208.83L433.54 210.42L436.94 207.01L435.35 205.05C436.235 203.693 436.863 202.185 437.2 200.6L439.68 200.36V195.55L437.2 195.31C436.863 193.725 436.235 192.217 435.35 190.86L436.94 188.94L433.54 185.53L431.61 187.12C430.255 186.231 428.746 185.604 427.16 185.27L426.93 182.79H422.11L421.88 185.27C420.294 185.604 418.785 186.231 417.43 187.12L415.5 185.53L412.09 188.94L413.69 190.86C412.796 192.213 412.169 193.723 411.84 195.31L409.36 195.59ZM424.52 191.47C425.812 191.468 427.076 191.85 428.152 192.566C429.227 193.283 430.066 194.303 430.561 195.496C431.056 196.69 431.187 198.004 430.935 199.272C430.683 200.539 430.061 201.704 429.147 202.617C428.234 203.531 427.069 204.153 425.801 204.405C424.534 204.657 423.22 204.527 422.026 204.031C420.833 203.536 419.813 202.697 419.096 201.622C418.38 200.546 417.998 199.282 418 197.99C418 196.261 418.687 194.602 419.91 193.38C421.132 192.157 422.791 191.47 424.52 191.47Z" fill="#EBEBEB"/>
<path d="M401.22 217.15L402.6 218.29L405.05 215.84L403.9 214.46C404.541 213.486 404.992 212.401 405.23 211.26L407 211.05V207.59L405.22 207.42C404.982 206.282 404.531 205.199 403.89 204.23L405.04 202.84L402.59 200.4L401.21 201.54C400.237 200.898 399.151 200.447 398.01 200.21L397.84 198.43H394.38L394.21 200.21C393.069 200.447 391.983 200.898 391.01 201.54L389.63 200.4L387.18 202.84L388.33 204.23C387.689 205.199 387.238 206.282 387 207.42L385.22 207.59V211.05L387 211.22C387.238 212.361 387.689 213.446 388.33 214.42L387.18 215.8L389.63 218.25L391 217.15C391.976 217.784 393.061 218.231 394.2 218.47L394.37 220.26H397.83L398 218.47C399.146 218.233 400.238 217.786 401.22 217.15ZM391.43 209.36C391.43 208.432 391.705 207.525 392.22 206.754C392.736 205.983 393.468 205.382 394.325 205.027C395.182 204.672 396.125 204.579 397.035 204.76C397.945 204.941 398.78 205.387 399.436 206.043C400.092 206.699 400.539 207.535 400.72 208.445C400.901 209.354 400.808 210.297 400.453 211.154C400.098 212.011 399.497 212.744 398.726 213.259C397.954 213.775 397.048 214.05 396.12 214.05C394.876 214.05 393.683 213.556 392.804 212.676C391.924 211.796 391.43 210.604 391.43 209.36Z" fill="#EBEBEB"/>
<path d="M416.6 240.59C417.959 240.311 419.252 239.775 420.41 239.01L422.05 240.37L424.97 237.46L423.61 235.81C424.367 234.652 424.902 233.363 425.19 232.01L427.31 231.81V227.68L425.19 227.49C424.904 226.133 424.368 224.841 423.61 223.68L425 222.05L422.08 219.14L420.44 220.5C419.282 219.735 417.989 219.199 416.63 218.92L416.43 216.8H412.31L412.11 218.92C410.751 219.199 409.458 219.735 408.3 220.5L406.66 219.14L403.71 222.05L405.08 223.7C404.314 224.858 403.775 226.151 403.49 227.51L401.37 227.7V231.83L403.49 232.03C403.776 233.385 404.315 234.675 405.08 235.83L403.71 237.48L406.63 240.39L408.27 239.03C409.428 239.795 410.721 240.331 412.08 240.61L412.28 242.74H416.4L416.6 240.59ZM408.76 229.75C408.758 228.646 409.084 227.566 409.696 226.647C410.307 225.728 411.178 225.011 412.198 224.587C413.217 224.164 414.339 224.052 415.422 224.266C416.506 224.48 417.501 225.011 418.282 225.791C419.063 226.571 419.596 227.565 419.812 228.648C420.028 229.73 419.918 230.853 419.496 231.873C419.074 232.893 418.359 233.765 417.441 234.379C416.523 234.992 415.444 235.32 414.34 235.32C412.862 235.32 411.444 234.733 410.398 233.689C409.352 232.645 408.763 231.228 408.76 229.75Z" fill="#EBEBEB"/>
<path d="M74.16 59.8799V64.6999L76.64 64.9299C76.9651 66.5183 77.5932 68.0292 78.49 69.3799L76.9 71.3099L80.3 74.7199L82.23 73.1199C83.5807 74.0167 85.0916 74.6448 86.68 74.9699L86.91 77.4499H91.73L91.96 74.9699C93.5484 74.6448 95.0593 74.0167 96.41 73.1199L98.34 74.7199L101.75 71.3099L100.15 69.3799C101.047 68.0292 101.675 66.5183 102 64.9299L104.48 64.6999V59.8799L102 59.6499C101.675 58.0615 101.047 56.5506 100.15 55.1999L101.75 53.2699L98.34 49.8699L96.41 51.4599C95.0714 50.5678 93.5745 49.9398 92 49.6099L91.77 47.1299H86.91L86.68 49.6099C85.0916 49.935 83.5807 50.5631 82.23 51.4599L80.3 49.8699L76.9 53.2699L78.49 55.1999C77.5932 56.5506 76.9651 58.0615 76.64 59.6499L74.16 59.8799ZM89.32 55.7699C90.6095 55.7699 91.8701 56.1523 92.9423 56.8687C94.0145 57.5851 94.8502 58.6034 95.3437 59.7948C95.8372 60.9862 95.9663 62.2971 95.7147 63.5619C95.4631 64.8266 94.8422 65.9884 93.9303 66.9002C93.0185 67.8121 91.8567 68.433 90.592 68.6846C89.3272 68.9362 88.0163 68.8071 86.8249 68.3136C85.6335 67.8201 84.6152 66.9844 83.8988 65.9122C83.1824 64.84 82.8 63.5794 82.8 62.2899C82.8 60.5607 83.4869 58.9023 84.7097 57.6795C85.9324 56.4568 87.5908 55.7699 89.32 55.7699Z" fill="#EBEBEB"/>
<path d="M102.67 302.97L104.05 304.12L106.5 301.67L105.35 300.28C105.993 299.311 106.444 298.228 106.68 297.09L108.46 296.92V293.46L106.68 293.29C106.442 292.149 105.991 291.063 105.35 290.09L106.5 288.71L104.05 286.26L102.67 287.41C101.697 286.769 100.611 286.318 99.47 286.08L99.3 284.29H95.84L95.67 286.05C94.529 286.288 93.4432 286.739 92.47 287.38L91.09 286.23L88.64 288.68L89.79 290.05C89.1488 291.023 88.6975 292.109 88.46 293.25L86.68 293.42V296.88L88.46 297.05C88.6959 298.188 89.1474 299.271 89.79 300.24L88.64 301.63L91.09 304.08L92.47 302.93C93.4432 303.571 94.529 304.022 95.67 304.26L95.84 306.04H99.3L99.47 304.26C100.608 304.035 101.694 303.597 102.67 302.97ZM92.88 295.19C92.878 294.262 93.1514 293.354 93.6655 292.582C94.1797 291.809 94.9115 291.206 95.7683 290.85C96.6251 290.493 97.5684 290.399 98.4788 290.579C99.3892 290.759 100.226 291.205 100.883 291.86C101.54 292.516 101.987 293.351 102.169 294.261C102.351 295.171 102.259 296.115 101.904 296.973C101.549 297.83 100.948 298.563 100.177 299.079C99.4052 299.595 98.498 299.87 97.57 299.87C96.3279 299.87 95.1365 299.377 94.2572 298.5C93.3779 297.623 92.8826 296.432 92.88 295.19Z" fill="#EBEBEB"/>
<path d="M408 61.42L409.38 62.57L411.83 60.12L410.68 58.74C411.321 57.7668 411.772 56.681 412.01 55.54L413.79 55.37V51.91L412.01 51.74C411.772 50.599 411.321 49.5132 410.68 48.54L411.83 47.16L409.38 44.71L408 45.86C407.027 45.2188 405.941 44.7676 404.8 44.53L404.63 42.75H401.17L401 44.53C399.859 44.7676 398.773 45.2188 397.8 45.86L396.42 44.71L394 47.16L395.15 48.54C394.509 49.5132 394.058 50.599 393.82 51.74L392.04 51.91V55.37L393.82 55.54C394.058 56.681 394.509 57.7668 395.15 58.74L394 60.12L396.45 62.57L397.83 61.42C398.803 62.0612 399.889 62.5124 401.03 62.75L401.2 64.53H404.66L404.83 62.75C405.961 62.5089 407.036 62.0577 408 61.42ZM398.21 53.64C398.21 52.7124 398.485 51.8056 399 51.0344C399.516 50.2631 400.248 49.662 401.105 49.307C401.962 48.952 402.905 48.8592 403.815 49.0401C404.725 49.2211 405.56 49.6678 406.216 50.3237C406.872 50.9796 407.319 51.8153 407.5 52.725C407.681 53.6348 407.588 54.5778 407.233 55.4348C406.878 56.2918 406.277 57.0243 405.506 57.5396C404.734 58.0549 403.828 58.33 402.9 58.33C401.658 58.3274 400.468 57.8321 399.59 56.9528C398.713 56.0735 398.22 54.8821 398.22 53.64H398.21Z" fill="#EBEBEB"/>
<path d="M70.41 206.05L71.79 207.19L74.24 204.75L73.1 203.36C73.7338 202.387 74.1814 201.306 74.42 200.17L76.21 200V196.54L74.43 196.37C74.1836 195.231 73.733 194.147 73.1 193.17L74.24 191.79L71.79 189.34L70.41 190.48C69.434 189.846 68.349 189.398 67.21 189.16L67 187.39H63.58L63.42 189.17C62.2812 189.414 61.1967 189.865 60.22 190.5L58.83 189.36L56.39 191.81L57.53 193.19C56.8888 194.163 56.4375 195.249 56.2 196.39L54.42 196.56V200.05L56.2 200.22C56.4376 201.358 56.8889 202.44 57.53 203.41L56.39 204.8L58.83 207.24L60.22 206.05C61.1923 206.693 62.2784 207.144 63.42 207.38L63.58 209.16H67L67.17 207.38C68.3249 207.147 69.4247 206.695 70.41 206.05ZM60.63 198.27C60.628 197.341 60.9016 196.433 61.4162 195.66C61.9308 194.887 62.6632 194.285 63.5206 193.929C64.378 193.572 65.3218 193.479 66.2325 193.659C67.1432 193.84 67.9798 194.287 68.6363 194.943C69.2928 195.6 69.7397 196.436 69.9203 197.347C70.101 198.258 70.0073 199.202 69.6511 200.059C69.2948 200.916 68.6922 201.649 67.9194 202.163C67.1466 202.678 66.2384 202.952 65.31 202.95C64.073 202.947 62.8872 202.456 62.0107 201.583C61.1341 200.71 60.6379 199.527 60.63 198.29V198.27Z" fill="#EBEBEB"/>
<path d="M264.45 67.49L262.66 67.66V71.12L264.45 71.29C264.684 72.4306 265.131 73.5165 265.77 74.49L264.63 75.87L267.07 78.32L268.45 77.18C269.424 77.8185 270.509 78.2664 271.65 78.5L271.82 80.29H275.28L275.45 78.5C276.591 78.2664 277.676 77.8185 278.65 77.18L280.03 78.32L282.48 75.87L281.34 74.49C281.979 73.5165 282.426 72.4306 282.66 71.29L284.45 71.12V67.66L282.66 67.49C282.426 66.3494 281.979 65.2635 281.34 64.29L282.48 62.91L280 60.47L278.62 61.61C277.646 60.9715 276.561 60.5236 275.42 60.29L275.25 58.5H271.79L271.62 60.29C270.479 60.5236 269.394 60.9715 268.42 61.61L267.04 60.47L264.6 62.91L265.74 64.29C265.112 65.2658 264.674 66.3515 264.45 67.49ZM276.87 66.05C277.526 66.7058 277.973 67.5414 278.155 68.4513C278.336 69.3612 278.243 70.3044 277.888 71.1616C277.534 72.0188 276.932 72.7515 276.161 73.267C275.39 73.7825 274.483 74.0577 273.555 74.0577C272.627 74.0577 271.72 73.7825 270.949 73.267C270.178 72.7515 269.577 72.0188 269.222 71.1616C268.867 70.3044 268.774 69.3612 268.955 68.4513C269.137 67.5414 269.584 66.7058 270.24 66.05C271.119 65.1713 272.312 64.6777 273.555 64.6777C274.798 64.6777 275.991 65.1713 276.87 66.05Z" fill="#EBEBEB"/>
<path d="M126.3 329.24C127.655 328.957 128.944 328.421 130.1 327.66L131.75 329.02L134.66 326.11L133.3 324.46C134.065 323.302 134.601 322.009 134.88 320.65L137.01 320.45V316.33L134.88 316.13C134.598 314.772 134.062 313.479 133.3 312.32L134.66 310.68L131.75 307.76L130.1 309.13C128.945 308.365 127.655 307.826 126.3 307.54L126.1 305.42H122L121.81 307.54C120.451 307.825 119.158 308.364 118 309.13L116.35 307.76L113.44 310.68L114.8 312.32C114.038 313.479 113.502 314.772 113.22 316.13L111.1 316.33V320.45L113.22 320.65C113.499 322.009 114.035 323.302 114.8 324.46L113.44 326.11L116.35 329.02L118 327.66C119.159 328.422 120.452 328.958 121.81 329.24L122 331.36H126.13L126.3 329.24ZM118.46 318.39C118.46 317.286 118.787 316.207 119.4 315.29C120.014 314.372 120.885 313.657 121.905 313.235C122.924 312.812 124.046 312.702 125.129 312.917C126.211 313.132 127.205 313.664 127.986 314.444C128.766 315.225 129.297 316.219 129.513 317.301C129.728 318.384 129.618 319.506 129.195 320.525C128.773 321.545 128.058 322.416 127.14 323.03C126.222 323.643 125.144 323.97 124.04 323.97C122.56 323.97 121.141 323.382 120.094 322.336C119.048 321.289 118.46 319.87 118.46 318.39Z" fill="#EBEBEB"/>
<path d="M348.36 305.98C347.358 307.5 346.656 309.197 346.29 310.98L343.49 311.25V316.67L346.29 316.93C346.657 318.713 347.36 320.409 348.36 321.93L346.57 324.09L350.4 327.92L352.56 326.13C354.081 327.129 355.778 327.831 357.56 328.2L357.82 331H363.24L363.51 328.2C365.293 327.834 366.99 327.131 368.51 326.13L370.67 327.92L374.51 324.09L372.72 321.93C373.716 320.407 374.419 318.711 374.79 316.93L377.59 316.67V311.25L374.79 310.98C374.42 309.198 373.717 307.502 372.72 305.98L374.51 303.82L370.67 299.98L368.51 301.77C366.988 300.772 365.292 300.07 363.51 299.7L363.24 296.9H357.82L357.56 299.7C355.779 300.073 354.084 300.775 352.56 301.77L350.4 299.98L346.57 303.82L348.36 305.98ZM365.74 308.78C366.767 309.806 367.466 311.114 367.749 312.538C368.032 313.962 367.887 315.438 367.331 316.779C366.776 318.12 365.835 319.267 364.628 320.073C363.421 320.88 362.002 321.31 360.55 321.31C359.098 321.31 357.679 320.88 356.472 320.073C355.265 319.267 354.324 318.12 353.769 316.779C353.213 315.438 353.068 313.962 353.351 312.538C353.634 311.114 354.333 309.806 355.36 308.78C356.041 308.097 356.85 307.556 357.74 307.186C358.631 306.816 359.586 306.626 360.55 306.626C361.514 306.626 362.469 306.816 363.36 307.186C364.25 307.556 365.059 308.097 365.74 308.78Z" fill="#EBEBEB"/>
<path d="M285.8 45.6498C284.808 47.175 284.107 48.87 283.73 50.6498L280.93 50.9198V56.3398L283.73 56.5998C284.106 58.3798 284.808 60.075 285.8 61.5998L284 63.7898L287.83 67.6198L289.99 65.8398C291.514 66.8325 293.209 67.5312 294.99 67.8998L295.26 70.6998H300.68L300.95 67.8998C302.731 67.5312 304.426 66.8325 305.95 65.8398L308.11 67.6198L311.94 63.7898L310.16 61.6298C311.152 60.105 311.854 58.4098 312.23 56.6298L315.03 56.3698V50.9498L312.23 50.6798C311.853 48.9 311.152 47.205 310.16 45.6798L312 43.4898L308.17 39.6498L306 41.4398C304.477 40.4441 302.781 39.742 301 39.3698L300.73 36.5698H295.31L295.04 39.3698C293.259 39.742 291.563 40.4441 290.04 41.4398L287.88 39.6498L284 43.4898L285.8 45.6498ZM303.19 48.4498C304.217 49.4763 304.916 50.7842 305.199 52.208C305.482 53.6319 305.337 55.1077 304.781 56.4489C304.226 57.7902 303.285 58.9366 302.078 59.7431C300.871 60.5497 299.452 60.9802 298 60.9802C296.548 60.9802 295.129 60.5497 293.922 59.7431C292.715 58.9366 291.774 57.7902 291.219 56.4489C290.663 55.1077 290.518 53.6319 290.801 52.208C291.084 50.7842 291.783 49.4763 292.81 48.4498C293.491 47.7671 294.3 47.2254 295.19 46.8558C296.081 46.4862 297.036 46.296 298 46.296C298.964 46.296 299.919 46.4862 300.81 46.8558C301.7 47.2254 302.509 47.7671 303.19 48.4498Z" fill="#EBEBEB"/>
<path d="M250 372.61C357.082 372.61 443.89 367.542 443.89 361.29C443.89 355.038 357.082 349.97 250 349.97C142.917 349.97 56.11 355.038 56.11 361.29C56.11 367.542 142.917 372.61 250 372.61Z" fill="#F5F5F5"/>
<path d="M93.19 58.4302H125.71C128.675 58.4302 131.519 59.6081 133.615 61.7047C135.712 63.8014 136.89 66.6451 136.89 69.6102V83.1102C136.89 86.0753 135.712 88.919 133.615 91.0156C131.519 93.1123 128.675 94.2902 125.71 94.2902H120.23L118.94 102.29L112.71 94.2902H93.19C91.721 94.2915 90.2661 94.0033 88.9085 93.442C87.551 92.8808 86.3173 92.0575 85.2781 91.0192C84.2389 89.9809 83.4145 88.748 82.852 87.3909C82.2895 86.0338 82 84.5792 82 83.1102V69.6102C82 68.1412 82.2895 66.6865 82.852 65.3295C83.4145 63.9724 84.2389 62.7395 85.2781 61.7012C86.3173 60.6629 87.551 59.8396 88.9085 59.2783C90.2661 58.7171 91.721 58.4289 93.19 58.4302Z" fill="#407BFF"/>
<path d="M122.12 75.5901C122.12 76.0371 122.253 76.474 122.501 76.8457C122.749 77.2173 123.102 77.507 123.515 77.678C123.928 77.8491 124.383 77.8939 124.821 77.8067C125.259 77.7195 125.662 77.5042 125.978 77.1881C126.294 76.8721 126.509 76.4694 126.597 76.031C126.684 75.5926 126.639 75.1382 126.468 74.7252C126.297 74.3123 126.007 73.9593 125.636 73.711C125.264 73.4626 124.827 73.3301 124.38 73.3301C123.781 73.3301 123.206 73.5682 122.782 73.992C122.358 74.4159 122.12 74.9907 122.12 75.5901Z" fill="white"/>
<path d="M112.17 75.5901C112.17 76.0371 112.303 76.474 112.551 76.8457C112.799 77.2173 113.152 77.507 113.565 77.678C113.978 77.8491 114.432 77.8939 114.871 77.8067C115.309 77.7195 115.712 77.5042 116.028 77.1881C116.344 76.8721 116.559 76.4694 116.647 76.031C116.734 75.5926 116.689 75.1382 116.518 74.7252C116.347 74.3123 116.057 73.9593 115.686 73.711C115.314 73.4626 114.877 73.3301 114.43 73.3301C114.133 73.3301 113.839 73.3885 113.565 73.5021C113.291 73.6157 113.042 73.7822 112.832 73.992C112.622 74.2019 112.456 74.451 112.342 74.7252C112.228 74.9994 112.17 75.2933 112.17 75.5901Z" fill="white"/>
<path d="M102.22 75.5901C102.22 76.0375 102.353 76.4748 102.602 76.8467C102.85 77.2186 103.204 77.5083 103.617 77.679C104.031 77.8498 104.486 77.8939 104.925 77.8059C105.363 77.7179 105.766 77.5017 106.082 77.1846C106.397 76.8675 106.612 76.4639 106.698 76.0248C106.784 75.5858 106.738 75.1311 106.565 74.7183C106.392 74.3055 106.101 73.9532 105.728 73.7061C105.355 73.459 104.917 73.3281 104.47 73.3301C103.872 73.3327 103.3 73.572 102.878 73.9956C102.457 74.4191 102.22 74.9924 102.22 75.5901Z" fill="white"/>
<path d="M92.26 75.5901C92.26 76.0371 92.3926 76.474 92.6409 76.8457C92.8892 77.2173 93.2422 77.507 93.6551 77.678C94.0681 77.8491 94.5225 77.8939 94.9609 77.8067C95.3993 77.7195 95.802 77.5042 96.1181 77.1881C96.4341 76.8721 96.6494 76.4694 96.7366 76.031C96.8238 75.5926 96.779 75.1382 96.608 74.7252C96.4369 74.3123 96.1473 73.9593 95.7756 73.711C95.4039 73.4626 94.967 73.3301 94.52 73.3301C94.2232 73.3301 93.9293 73.3885 93.6551 73.5021C93.3809 73.6157 93.1318 73.7822 92.9219 73.992C92.7121 74.2019 92.5456 74.451 92.432 74.7252C92.3185 74.9994 92.26 75.2933 92.26 75.5901Z" fill="white"/>
<path d="M270.12 358.11V361.88C270.12 362.105 270.03 362.321 269.871 362.481C269.712 362.64 269.495 362.73 269.27 362.73H162.8C161.892 362.73 160.998 362.507 160.196 362.081C159.395 361.656 158.71 361.04 158.201 360.288C157.693 359.535 157.377 358.67 157.281 357.767C157.185 356.865 157.311 355.952 157.65 355.11L191.39 271.55L245.91 271.92L244.05 282.76L232.05 352.93C231.958 353.462 231.984 354.008 232.125 354.529C232.266 355.05 232.519 355.534 232.867 355.948C233.214 356.361 233.648 356.693 234.137 356.922C234.627 357.15 235.16 357.269 235.7 357.27H269.3C269.519 357.275 269.728 357.366 269.881 357.523C270.034 357.68 270.12 357.89 270.12 358.11Z" fill="#263238"/>
<path opacity="0.6" d="M270.12 358.11V361.88C270.12 362.105 270.03 362.321 269.871 362.481C269.712 362.64 269.495 362.73 269.27 362.73H162.8C161.892 362.73 160.998 362.507 160.196 362.081C159.395 361.656 158.71 361.04 158.201 360.288C157.693 359.535 157.377 358.67 157.281 357.767C157.185 356.865 157.311 355.952 157.65 355.11L178.57 303.31L191.39 271.55L245.91 271.92L244.05 282.76L238.82 313.28L232 352.93C231.908 353.462 231.934 354.008 232.075 354.529C232.216 355.05 232.469 355.534 232.817 355.948C233.164 356.361 233.598 356.693 234.087 356.922C234.577 357.15 235.11 357.269 235.65 357.27H269.25C269.363 357.266 269.475 357.285 269.581 357.325C269.686 357.365 269.782 357.427 269.863 357.505C269.945 357.583 270.009 357.677 270.053 357.781C270.097 357.885 270.12 357.997 270.12 358.11Z" fill="#1E282D"/>
<path d="M235.67 357.27H166.4C166.001 357.269 165.608 357.17 165.256 356.981C164.904 356.792 164.605 356.52 164.383 356.188C164.162 355.856 164.025 355.474 163.987 355.077C163.948 354.679 164.007 354.279 164.16 353.91L193.74 282.76H244.05L232.05 352.93C231.959 353.459 231.984 354.003 232.123 354.522C232.262 355.041 232.513 355.524 232.857 355.936C233.201 356.349 233.631 356.682 234.117 356.912C234.603 357.143 235.133 357.265 235.67 357.27Z" fill="#263238"/>
<path opacity="0.1" d="M245.91 271.92L244.05 282.76L238.82 313.27L178.57 303.31L191.39 271.55L245.91 271.92Z" fill="black"/>
<path d="M351.93 116.16H99.52C97.8084 116.16 96.1668 116.839 94.9556 118.048C93.7444 119.258 93.0626 120.898 93.06 122.61V293.49C93.06 295.203 93.7406 296.846 94.9521 298.058C96.1636 299.269 97.8067 299.95 99.52 299.95H351.93C353.643 299.95 355.286 299.269 356.498 298.058C357.709 296.846 358.39 295.203 358.39 293.49V122.61C358.387 120.898 357.706 119.258 356.494 118.048C355.283 116.839 353.642 116.16 351.93 116.16Z" fill="#263238"/>
<path opacity="0.2" d="M104.86 299.95H99.51C97.7994 299.95 96.1588 299.27 94.9492 298.061C93.7396 296.851 93.06 295.211 93.06 293.5V122.62C93.0587 121.772 93.2245 120.931 93.5479 120.147C93.8714 119.363 94.3461 118.65 94.945 118.049C95.544 117.448 96.2554 116.971 97.0386 116.645C97.8219 116.32 98.6617 116.151 99.51 116.15H104.86C104.012 116.151 103.172 116.32 102.389 116.645C101.605 116.971 100.894 117.448 100.295 118.049C99.6961 118.65 99.2214 119.363 98.8979 120.147C98.5745 120.931 98.4087 121.772 98.41 122.62V293.5C98.41 295.211 99.0896 296.851 100.299 298.061C101.509 299.27 103.149 299.95 104.86 299.95Z" fill="black"/>
<path d="M352.57 121.7H104.24V286.48H352.57V121.7Z" fill="#FFF3EE"/>
<path opacity="0.1" d="M326.68 122.48C292.35 156.88 204.16 233.48 104.23 227.78V122.48H326.68Z" fill="white"/>
<path opacity="0.1" d="M352.57 185.7V287.26H203.06C208.79 266.75 220.25 238.66 242.49 218.59C282.48 182.47 328.9 182.58 352.57 185.7Z" fill="white"/>
<path opacity="0.3" d="M274.26 194.37L261.8 181.92L249.34 194.37H253.24V263.81H270.36V194.37H274.26Z" fill="black"/>
<path opacity="0.3" d="M305.91 186.19H292.89V191.17H305.91V186.19Z" fill="black"/>
<path opacity="0.3" d="M292.89 184.83H305.91V166.24H308.87L299.4 156.77L289.93 166.24H292.89V184.83Z" fill="black"/>
<path opacity="0.3" d="M305.91 193.16H292.89V196.77H305.91V193.16Z" fill="black"/>
<path opacity="0.3" d="M305.91 201.01H292.89V202.88H305.91V201.01Z" fill="black"/>
<path opacity="0.3" d="M232.29 170.5H219.27V175.48H232.29V170.5Z" fill="black"/>
<path opacity="0.3" d="M219.27 169.14H232.29V150.55H235.25L225.78 141.08L216.31 150.55H219.27V169.14Z" fill="black"/>
<path opacity="0.3" d="M232.29 177.47H219.27V181.08H232.29V177.47Z" fill="black"/>
<path opacity="0.3" d="M232.29 185.32H219.27V187.19H232.29V185.32Z" fill="black"/>
<path opacity="0.3" d="M325.72 268.8H312.7V273.78H325.72V268.8Z" fill="black"/>
<path opacity="0.3" d="M312.7 267.45H325.71V248.85H328.67L319.21 239.39L309.74 248.85H312.7V267.45Z" fill="black"/>
<path opacity="0.3" d="M325.72 275.78H312.7V279.39H325.72V275.78Z" fill="black"/>
<path opacity="0.3" d="M325.72 283.62H312.7V285.49H325.72V283.62Z" fill="black"/>
<path d="M280.714 264.247C287.169 253.804 283.935 240.105 273.492 233.65C263.049 227.195 249.35 230.428 242.895 240.872C236.44 251.315 239.673 265.014 250.116 271.469C260.56 277.924 274.259 274.691 280.714 264.247Z" fill="#407BFF"/>
<path opacity="0.1" d="M280.714 264.247C287.169 253.804 283.935 240.105 273.492 233.65C263.049 227.195 249.35 230.428 242.895 240.872C236.44 251.315 239.673 265.014 250.116 271.469C260.56 277.924 274.259 274.691 280.714 264.247Z" fill="black"/>
<path opacity="0.2" d="M261.8 271.9C272.492 271.9 281.16 263.232 281.16 252.54C281.16 241.847 272.492 233.18 261.8 233.18C251.108 233.18 242.44 241.847 242.44 252.54C242.44 263.232 251.108 271.9 261.8 271.9Z" fill="black"/>
<g opacity="0.6">
<path d="M263 261.4V264.18H261V261.43C258.818 261.371 256.706 260.653 254.94 259.37L256.06 256.88C257.497 257.958 259.209 258.61 261 258.76V253.81C258.26 253.14 255.31 252.25 255.31 248.81C255.31 246.29 257.15 244.08 261 243.71V240.92H263V243.66C264.766 243.742 266.484 244.261 268 245.17L267 247.67C265.776 246.947 264.413 246.494 263 246.34V251.34C265.75 252.01 268.74 252.88 268.74 256.34C268.71 258.83 266.86 261.05 263 261.4ZM261 250.81V246.41C259.25 246.68 258.51 247.57 258.51 248.66C258.51 249.75 259.51 250.39 260.94 250.81H261ZM265.61 256.53C265.61 255.32 264.52 254.75 263.03 254.33V258.71C264.78 258.44 265.55 257.59 265.55 256.53H265.61Z" fill="#407BFF"/>
</g>
<path d="M178.787 139.331C182.447 138.542 184.432 133.346 183.22 127.726C182.008 122.106 178.058 118.19 174.397 118.979C170.737 119.768 168.752 124.964 169.964 130.584C171.176 136.204 175.126 140.12 178.787 139.331Z" fill="#263238"/>
<path opacity="0.2" d="M178.787 139.331C182.447 138.542 184.432 133.346 183.22 127.726C182.008 122.106 178.058 118.19 174.397 118.979C170.737 119.768 168.752 124.964 169.964 130.584C171.176 136.204 175.126 140.12 178.787 139.331Z" fill="white"/>
<path d="M181 134.1C181 134.1 185.52 139.48 186.11 141.99C186.7 144.5 183.94 145.43 181.81 145.88" stroke="#263238" stroke-width="1.15635" stroke-miterlimit="10"/>
<path d="M216.4 286.46H200.21C200.3 284.74 200.39 282.94 200.49 281.1C200.59 279.42 200.7 277.7 200.8 275.98L200.89 274.69C201.89 260.63 203.47 246.53 206 246.57C206.32 246.57 206.66 246.83 207 247.34C207.486 248.063 207.898 248.834 208.23 249.64C211.44 256.91 214.45 273.73 216.4 286.46Z" fill="#263238"/>
<path d="M210.05 286.46H124.05C124.05 277.98 124.05 266.98 123.51 254.4C123.1 244.24 122.39 233.03 121.1 221.29C120.36 214.56 119.44 207.64 118.29 200.66C117.63 196.66 116.89 192.59 116.08 188.55C114.92 182.84 113.61 177.11 112.08 171.41C112.08 171.41 118.63 169.63 127.08 168.02C128.83 167.69 130.67 167.36 132.54 167.02C134.13 166.77 135.75 166.53 137.39 166.33H137.47L139.02 166.14L142.78 165.72C144.78 165.51 146.78 165.3 148.89 165.1C155.67 164.47 162.95 163.95 168.89 163.83H170.5C171.5 163.83 172.5 163.83 173.41 163.83C174.32 163.83 176.3 163.94 177.14 163.98H177.59L189.44 167.83L197.75 170.54C197.75 170.54 198.14 172.31 198.75 175.65C199.51 179.58 200.61 185.65 201.83 193.57C203.05 201.49 204.41 211.02 205.64 222.08C206.58 230.46 207.47 239.67 208.2 249.55C208.48 253.23 208.733 257.003 208.96 260.87C209.22 265.23 209.43 269.71 209.61 274.28C209.61 274.71 209.61 275.15 209.66 275.59C209.73 277.23 209.79 278.9 209.84 280.59C210 282.58 210 284.51 210.05 286.46Z" fill="white"/>
<g opacity="0.7">
<path d="M210.05 286.46H124.05C124.05 277.98 124.05 266.98 123.51 254.4C123.1 244.24 122.39 233.03 121.1 221.29C120.36 214.56 119.44 207.64 118.29 200.66C117.63 196.66 116.89 192.59 116.08 188.55C114.92 182.84 113.61 177.11 112.08 171.41C112.08 171.41 118.63 169.63 127.08 168.02C128.83 167.69 130.67 167.36 132.54 167.02C134.13 166.77 135.75 166.53 137.39 166.33H137.47L139.02 166.14L142.78 165.72C144.78 165.51 146.78 165.3 148.89 165.1C155.67 164.47 162.95 163.95 168.89 163.83H170.5C171.5 163.83 172.5 163.83 173.41 163.83C174.32 163.83 176.3 163.94 177.14 163.98H177.59L189.44 167.83L197.75 170.54C197.75 170.54 198.14 172.31 198.75 175.65C199.51 179.58 200.61 185.65 201.83 193.57C203.05 201.49 204.41 211.02 205.64 222.08C206.58 230.46 207.47 239.67 208.2 249.55C208.48 253.23 208.733 257.003 208.96 260.87C209.22 265.23 209.43 269.71 209.61 274.28C209.61 274.71 209.61 275.15 209.66 275.59C209.73 277.23 209.79 278.9 209.84 280.59C210 282.58 210 284.51 210.05 286.46Z" fill="white"/>
</g>
<path d="M211.66 286.46H128.09L129.73 277.29L137.45 277L200.89 274.69L209.67 274.37L210.18 274.35L210.34 275.66H210.35L210.94 280.61L211.66 286.46Z" fill="#263238"/>
<path opacity="0.4" d="M211.66 286.46H128.09L129.73 277.29L137.45 277L200.89 274.69L209.67 274.37L210.18 274.35L210.34 275.66H210.35L210.94 280.61L211.66 286.46Z" fill="white"/>
<path d="M158.29 277.4L158.44 283.09L129.3 284.48L130.78 278.33L158.29 277.4Z" fill="black"/>
<path d="M201.3 275.96L201.86 281.03L160.2 283.01L160.13 277.34L201.3 275.96Z" fill="black"/>
<path d="M210.94 280.61L203.62 280.95L203.12 275.9L210.35 275.66L210.94 280.61Z" fill="black"/>
<path d="M176.61 277.56L176.97 281.56C176.988 281.744 177.075 281.915 177.214 282.038C177.354 282.161 177.535 282.226 177.72 282.22L185.83 281.91C185.927 281.905 186.022 281.88 186.11 281.838C186.198 281.796 186.277 281.737 186.342 281.665C186.407 281.592 186.457 281.508 186.489 281.416C186.522 281.324 186.535 281.227 186.53 281.13L186.24 277.2C186.225 277.012 186.139 276.838 185.999 276.711C185.86 276.585 185.678 276.516 185.49 276.52L177.31 276.8C177.214 276.802 177.119 276.824 177.031 276.864C176.943 276.904 176.865 276.961 176.799 277.032C176.734 277.102 176.684 277.186 176.651 277.276C176.619 277.367 176.605 277.463 176.61 277.56Z" stroke="white" stroke-width="1.15635" stroke-miterlimit="10"/>
<path d="M183.41 279.15L185.1 279.06" stroke="white" stroke-width="1.15635" stroke-linecap="round" stroke-linejoin="round"/>
<path d="M285 209.24L301.36 207.05L291.36 191.73C291.36 191.73 276.89 194.56 278.66 201.96L285 209.24Z" fill="#EBB376"/>
<path d="M314.07 196.77L300.99 186.52L291.35 191.73L301.36 207.05L314.07 196.77Z" fill="#EBB376"/>
<path d="M199.07 166.77C210.19 168.68 235.79 219.45 235.79 219.45L279 196.22L288.91 210.16C288.91 210.16 243.75 247.52 231.94 245.05C220.13 242.58 197.74 212.05 197.74 212.05L199.07 166.77Z" fill="#263238"/>
<path d="M288.87 210.16C288.87 210.16 243.75 247.51 231.94 245.05C227.59 244.15 221.81 239.44 216.25 233.85C209.616 226.993 203.436 219.711 197.75 212.05L198.05 201.84L199.05 166.77C210.18 168.67 235.78 219.44 235.78 219.44L279 196.22L288.87 210.16Z" fill="black"/>
<path opacity="0.2" d="M216.25 233.87C209.615 227.007 203.435 219.718 197.75 212.05L198.05 201.84L200.14 190.84C200.14 190.84 211.92 207.6 216.25 233.87Z" fill="black"/>
<path d="M141.7 165.22C141.7 165.22 162.7 175.73 168.12 174.54C171.92 173.71 176.12 166.33 176.12 166.33C173.562 165.728 171.185 164.521 169.19 162.81C164.36 158.42 165.19 151.69 167.12 145.31L146.73 126.59C147.571 132.006 147.996 137.479 148 142.96C148 151.91 146.52 160.94 141.7 165.22Z" fill="#EBB376"/>
<path opacity="0.2" d="M148 142.96C151.64 152.23 158.13 162.46 169.19 162.79C164.36 158.4 165.19 151.67 167.12 145.29L146.73 126.57C147.572 131.993 147.997 137.472 148 142.96Z" fill="black"/>
<path d="M141.65 225.43V225.52C141.65 226.35 141.65 227.2 141.6 228.08V228.15C141.54 230.34 141.46 232.64 141.34 235.05V235.2C141.27 236.61 141.18 238.05 141.09 239.55C141.095 239.61 141.095 239.67 141.09 239.73C141.03 240.73 140.97 241.67 140.91 242.66C140.58 247.51 140.14 252.66 139.61 258.13C139.51 259.19 139.4 260.26 139.28 261.34C139.14 262.68 139 264.04 138.86 265.4C138.73 266.49 138.61 267.58 138.48 268.7C138.15 271.42 137.81 274.2 137.48 277.01C137.48 277.37 137.37 277.74 137.33 278.11C137.33 278.22 137.33 278.34 137.28 278.46C137.033 280.34 136.777 282.233 136.51 284.14C136.39 284.92 136.28 285.69 136.18 286.46H121.81V285.72C121.97 281.04 122.02 276.38 121.87 271.91C121.81 270.1 121.71 268.33 121.59 266.58C121.59 266.12 121.52 265.65 121.49 265.17C121.38 263.74 121.24 262.24 121.09 260.67C120.44 253.9 119.48 245.92 118.35 237.55C118.356 237.507 118.356 237.463 118.35 237.42C118.18 236.13 118.01 234.83 117.82 233.52C117.82 233.08 117.7 232.63 117.64 232.18L117.28 229.58C117.14 228.58 117.01 227.64 116.86 226.66C116.67 225.32 116.48 223.98 116.28 222.66C116.14 221.66 116 220.66 115.85 219.73C115.59 217.95 115.32 216.17 115.06 214.43C114.6 211.33 114.14 208.29 113.68 205.35C113.48 204.13 113.29 202.91 113.11 201.72C112.93 200.53 112.73 199.35 112.55 198.2L112.28 196.52C112.05 195.11 111.84 193.73 111.63 192.39C111.54 191.86 111.45 191.34 111.37 190.82C111.24 189.97 111.1 189.16 110.97 188.35C110.9 187.92 110.84 187.51 110.77 187.1C110.77 186.86 110.69 186.63 110.66 186.39C110.54 185.73 110.44 185.08 110.34 184.46C110.19 183.54 110.04 182.65 109.9 181.82C109.84 181.42 109.77 181.02 109.71 180.64L109.59 179.94C108.74 174.81 108.21 171.74 108.21 171.74H108.27C108.42 171.67 108.82 171.51 109.47 171.29L110.08 171.08C110.24 171.02 110.41 170.96 110.59 170.91C112.32 170.34 114.97 169.55 118.45 168.74C119.96 168.39 121.61 168.03 123.45 167.68C124.02 167.57 124.6 167.46 125.21 167.36C126 167.22 126.83 167.07 127.69 166.94C130.23 166.54 133.02 166.17 136.02 165.87L137.3 165.75C137.3 165.75 137.35 165.97 137.43 166.42C137.51 166.87 137.57 167.31 137.67 167.97C137.67 167.97 137.67 168.06 137.67 168.11C137.675 168.147 137.675 168.183 137.67 168.22C137.67 168.46 137.75 168.73 137.8 169.01C137.94 169.93 138.1 171.01 138.28 172.27L138.37 172.92C138.43 173.36 138.49 173.81 138.55 174.28C138.61 174.75 138.68 175.28 138.75 175.76C138.82 176.24 138.88 176.76 138.94 177.31C139.29 180.11 139.65 183.31 140 186.95C140 187.38 140.08 187.83 140.12 188.28C140.23 189.46 140.34 190.69 140.44 191.95C140.44 192.17 140.44 192.39 140.49 192.63C140.57 193.54 140.64 194.47 140.71 195.41C140.71 195.8 140.77 196.19 140.79 196.59C140.81 196.99 140.85 197.4 140.87 197.8C140.89 198.2 140.93 198.61 140.95 199.02C140.95 199.67 141.03 200.34 141.07 201.02C141.07 201.35 141.07 201.69 141.12 202.02C141.12 202.55 141.19 203.09 141.22 203.65C141.22 203.93 141.22 204.23 141.22 204.52C141.62 211.05 141.78 218.05 141.65 225.43Z" fill="#263238"/>
<path d="M141.66 225.44C141.66 226.27 141.66 227.13 141.6 228.01V228.08C141.553 230.267 141.467 232.567 141.34 234.98V235.13C141.27 236.54 141.18 237.98 141.09 239.48C141.095 239.54 141.095 239.6 141.09 239.66C141.04 240.66 140.98 241.6 140.91 242.59C140.58 247.44 140.14 252.59 139.61 258.06C139.51 259.12 139.4 260.19 139.28 261.27C139.14 262.61 139 263.97 138.86 265.33C138.73 266.42 138.6 267.51 138.48 268.63C138.15 271.35 137.81 274.13 137.48 276.94C137.48 277.3 137.37 277.67 137.33 278.04C137.33 278.15 137.33 278.27 137.33 278.39C137.083 280.27 136.827 282.163 136.56 284.07C136.44 284.85 136.33 285.62 136.23 286.39H121.81C121.81 286.5 121.81 286.61 121.81 286.72C121.82 286.61 121.82 286.5 121.81 286.39C121.81 286.15 121.81 285.89 121.81 285.65C121.97 280.97 122.02 276.31 121.87 271.84C121.82 270.03 121.72 268.25 121.6 266.51C121.6 266.05 121.53 265.58 121.49 265.1C121.38 263.67 121.24 262.17 121.09 260.6C120.46 253.83 119.49 245.85 118.35 237.48C118.356 237.437 118.356 237.393 118.35 237.35L118.08 235.28C118 234.67 117.92 234.06 117.82 233.45C117.82 233.01 117.7 232.56 117.64 232.11C117.53 231.25 117.4 230.38 117.28 229.51C117.16 228.64 117.01 227.57 116.86 226.59C116.67 225.25 116.48 223.91 116.28 222.59C116.14 221.59 116 220.59 115.85 219.66C115.59 217.88 115.32 216.1 115.06 214.36C114.6 211.26 114.14 208.22 113.68 205.28C113.59 204.74 113.5 204.22 113.42 203.69C113.32 203 113.21 202.32 113.11 201.69C112.91 200.49 112.73 199.32 112.55 198.17L112.28 196.49C112.05 195.08 111.84 193.7 111.63 192.36C111.54 191.83 111.45 191.3 111.37 190.79C111.24 189.94 111.1 189.13 110.97 188.32C110.9 187.89 110.84 187.48 110.77 187.07C110.77 186.83 110.69 186.6 110.66 186.36C110.54 185.7 110.44 185.05 110.34 184.43C110.19 183.51 110.04 182.62 109.9 181.79C109.84 181.39 109.77 180.99 109.71 180.61L109.59 179.91C108.78 174.91 108.26 171.91 108.22 171.71H108.28C108.43 171.64 108.83 171.48 109.48 171.26L110.09 171.05C110.25 170.99 110.42 170.93 110.6 170.88C112.33 170.31 114.98 169.52 118.46 168.71C119.97 168.36 121.62 168 123.46 167.65C124.03 167.54 124.61 167.43 125.22 167.33C126.01 167.19 126.84 167.04 127.7 166.91C130.24 166.51 133.03 166.14 136.03 165.84L137.31 165.71C137.311 165.727 137.311 165.743 137.31 165.76C137.31 165.86 137.38 166.06 137.43 166.37C137.48 166.68 137.57 167.26 137.68 167.92C137.675 167.973 137.675 168.027 137.68 168.08C137.685 168.116 137.685 168.153 137.68 168.19C137.68 168.43 137.75 168.7 137.81 168.98C137.94 169.89 138.1 170.98 138.29 172.24L138.38 172.89C138.38 173.32 138.49 173.78 138.56 174.25C138.63 174.72 138.69 175.25 138.76 175.73C138.83 176.21 138.88 176.73 138.95 177.28C139.3 180.08 139.66 183.28 140.01 186.92L140.13 188.25C140.24 189.43 140.35 190.66 140.45 191.92C140.45 192.14 140.45 192.36 140.5 192.6C140.58 193.51 140.65 194.44 140.72 195.38C140.72 195.77 140.78 196.16 140.8 196.56C140.82 196.96 140.86 197.37 140.88 197.77C140.9 198.17 140.94 198.58 140.96 198.99C140.96 199.64 141.04 200.31 141.08 200.99C141.08 201.32 141.08 201.66 141.13 201.99C141.13 202.53 141.2 203.07 141.23 203.62C141.23 203.9 141.23 204.2 141.23 204.49C141.31 206.16 141.37 207.87 141.43 209.61C141.68 214.64 141.75 219.96 141.66 225.44Z" fill="black"/>
<path opacity="0.2" d="M137.32 165.68C140.503 185.432 141.955 205.425 141.66 225.43C141.658 225.456 141.658 225.483 141.66 225.51L122.66 186.17L133.44 182.84L121.11 178.65L127.69 166.88C130.61 166.43 133.82 166.05 137.32 165.68Z" fill="#605F5F"/>
<path d="M218.5 286.46H213.84C212.47 278.71 210.84 270.15 209.02 260.96C208.08 256.293 207.08 251.497 206.02 246.57C204.747 240.73 203.38 234.73 201.92 228.57C201.27 225.79 200.61 223.12 199.92 220.57C199.18 217.57 198.43 214.78 197.71 212.12C186.54 171.02 178.15 164.5 177.58 164.12L185.21 165.12L199.04 166.89C201.81 176.03 204.53 189.05 207.04 203.81C208.39 211.64 209.7 219.95 210.94 228.42C213.93 248.25 216.5 269.05 218.5 286.46Z" fill="#263238"/>
<path d="M218.5 286.46H213.84C212.47 278.71 210.84 270.15 209.02 260.96C208.08 256.293 207.08 251.497 206.02 246.57C204.747 240.73 203.38 234.73 201.92 228.57C201.27 225.79 200.61 223.12 199.92 220.57C199.18 217.57 198.43 214.78 197.71 212.12C186.54 171.02 178.15 164.5 177.58 164.12L185.21 165.12L199.04 166.89C201.81 176.03 204.53 189.05 207.04 203.81C208.39 211.64 209.7 219.95 210.94 228.42C213.93 248.25 216.5 269.05 218.5 286.46Z" fill="black"/>
<path opacity="0.2" d="M188.84 179.67L198 183.05C198 183.05 200.85 207.51 199.91 220.48C187.65 171.8 178.18 164.48 177.58 164.01L185.2 165.01C188.61 167.16 193.94 170.95 197.5 175.6L188.84 179.67Z" fill="#605F5F"/>
<path d="M173.16 101.26C173.16 101.26 183.82 108.02 180.16 126.95C176.5 145.88 153.71 108.23 173.16 101.26Z" fill="#263238"/>
<path d="M140.9 125.52C143.58 140.15 141.76 142.76 150.12 149.36C162.7 159.3 181.3 159.36 182.12 144.08C182.91 130.34 181.38 105.81 166.23 101.81C151.35 97.8697 138.22 110.88 140.9 125.52Z" fill="#EBB376"/>
<path d="M158.92 124.88C159.12 126.13 159.7 126.18 160.52 126.04C161.34 125.9 162.08 125.64 161.88 124.38C161.68 123.12 160.88 122.23 160.04 122.38C159.2 122.53 158.72 123.63 158.92 124.88Z" fill="#263238"/>
<path d="M174.41 124.05C174.61 125.3 175.2 125.34 176.02 125.2C176.84 125.06 177.58 124.8 177.38 123.55C177.18 122.3 176.38 121.39 175.53 121.55C174.68 121.71 174.21 122.76 174.41 124.05Z" fill="#263238"/>
<path d="M172 123.72C172 123.72 174.74 129.08 177.43 131.52C175.87 133.3 172.88 132.88 172.88 132.88L172 123.72Z" fill="#D58745"/>
<path d="M155.92 119.51C155.79 119.501 155.665 119.456 155.56 119.38C155.41 119.266 155.308 119.099 155.277 118.914C155.245 118.728 155.286 118.537 155.39 118.38C156.053 117.391 156.945 116.576 157.989 116.003C159.033 115.43 160.199 115.117 161.39 115.09C161.488 115.091 161.586 115.112 161.676 115.152C161.766 115.192 161.847 115.249 161.914 115.321C161.982 115.393 162.034 115.478 162.067 115.571C162.101 115.663 162.115 115.762 162.11 115.86C162.1 116.057 162.012 116.242 161.866 116.375C161.72 116.508 161.527 116.578 161.33 116.57C160.391 116.614 159.476 116.877 158.658 117.339C157.84 117.801 157.142 118.449 156.62 119.23C156.541 119.337 156.433 119.419 156.31 119.469C156.186 119.518 156.051 119.532 155.92 119.51Z" fill="#263238"/>
<path d="M179.79 117.45C179.672 117.484 179.548 117.489 179.428 117.465C179.308 117.44 179.195 117.387 179.1 117.31C178.411 116.68 177.581 116.226 176.679 115.986C175.777 115.745 174.831 115.726 173.92 115.93C173.73 115.98 173.529 115.955 173.358 115.86C173.186 115.765 173.058 115.607 173 115.42C172.973 115.326 172.964 115.228 172.975 115.13C172.986 115.033 173.016 114.939 173.063 114.853C173.11 114.768 173.174 114.693 173.251 114.632C173.328 114.571 173.416 114.526 173.51 114.5C174.656 114.227 175.851 114.236 176.994 114.525C178.136 114.814 179.191 115.375 180.07 116.16C180.145 116.224 180.207 116.303 180.251 116.391C180.296 116.479 180.323 116.575 180.33 116.673C180.338 116.772 180.326 116.871 180.295 116.965C180.264 117.058 180.215 117.145 180.15 117.22C180.054 117.329 179.929 117.409 179.79 117.45Z" fill="#263238"/>
<path d="M143.6 135.32C150.46 138.99 148.68 132.03 148.18 131.32C146 128.25 147.7 123.86 149.78 117.68C150.71 114.93 149.83 110.51 149.83 110.51C149.83 110.51 141.47 109.17 136.55 110.57C131.47 112.02 131.42 116.15 131.42 116.15C132.93 129.05 138.07 132.36 143.6 135.32Z" fill="#263238"/>
<path d="M135.34 136.17C136.988 139.193 139.722 141.477 142.99 142.56C147.14 143.8 148.86 139.68 147.42 135.37C146.12 131.48 142.42 126.16 138.42 126.82C134.42 127.48 133.2 132.32 135.34 136.17Z" fill="#EBB376"/>
<path d="M174.93 137.25C174.297 139.392 173.823 141.578 173.51 143.79H172.33C166.99 143.84 164.5 142.1 163.33 140.16C162.794 139.197 162.492 138.121 162.45 137.02C162.41 136.396 162.457 135.77 162.59 135.16C165.44 136.82 170.42 137.16 173.09 137.22C174.22 137.28 174.93 137.25 174.93 137.25Z" fill="#263238"/>
<path d="M173.11 137.24L172.64 139.16C167.64 139.16 164.06 138.55 162.47 137.04C162.43 136.416 162.477 135.79 162.61 135.18C165.46 136.84 170.44 137.17 173.11 137.24Z" fill="white"/>
<path d="M172.33 143.81C166.99 143.86 164.5 142.12 163.33 140.18C165.36 140.194 167.372 140.57 169.27 141.29C170.531 141.785 171.602 142.667 172.33 143.81Z" fill="#DE5753"/>
<path d="M131.7 118.18C131.7 118.18 125.32 110.18 135.36 101.9C145.4 93.6199 161.82 92.2299 171.25 95.2299C180.68 98.2299 174.1 106.23 164.25 109.94C158.88 111.94 156.59 111.09 156.59 111.09C156.59 111.09 159.42 111.37 163.31 107.53C163.31 107.53 149.81 107.86 147.88 116.11C145.95 124.36 131.7 118.18 131.7 118.18Z" fill="#263238"/>
<path opacity="0.2" d="M118.09 235.35C117.52 231.15 116.92 226.87 116.29 222.63C115.89 219.86 115.48 217.1 115.07 214.39C115.45 213.299 115.985 212.268 116.66 211.33C116.66 211.33 120.44 221.38 118.09 235.35Z" fill="black"/>
<path d="M161.44 177.23L168.69 182.91C168.69 182.91 174.26 218.13 174.04 248.58L180.41 255.39L185.12 247.33C185.12 247.33 176.67 197.76 171.88 182.91L176.14 174.63L168.14 174.54L161.44 177.23Z" fill="black"/>
<path d="M168.13 174.54C168.13 174.54 164.56 179.45 160.32 184.36C153.45 181.59 137.26 173.98 137.32 165.68C138.03 163.21 144.17 161.16 144.17 161.16C144.17 161.16 151.76 169.45 168.13 174.54Z" fill="#407BFF"/>
<path d="M168.13 174.54C171.599 176.876 174.717 179.694 177.39 182.91C181.98 179.35 178.23 164.24 176.3 162.69C173.624 161.484 170.685 160.978 167.76 161.22C167.76 161.22 171.81 167.89 168.13 174.54Z" fill="#407BFF"/>
<path d="M168.13 174.54C168.13 174.54 164.56 179.45 160.32 184.36C153.45 181.59 137.26 173.98 137.32 165.68C138.03 163.21 144.17 161.16 144.17 161.16C144.17 161.16 151.76 169.45 168.13 174.54Z" fill="white"/>
<path d="M168.13 174.54C171.599 176.875 174.717 179.694 177.39 182.91C181.98 179.35 178.23 164.24 176.3 162.69C173.624 161.483 170.685 160.978 167.76 161.22C167.76 161.22 171.81 167.89 168.13 174.54Z" fill="white"/>
<path d="M118.66 216.47L118.31 218.47L116.87 226.67L112.1 253.87L112.86 286.47H104.23V176.28C105.54 173.72 106.88 172.09 108.23 171.7C108.44 171.93 113.02 177.18 116.09 188.54C117.148 192.511 117.887 196.561 118.3 200.65C118.836 205.905 118.956 211.195 118.66 216.47Z" fill="black"/>
<path d="M118.66 216.47L118.31 218.47L116.87 226.67L112.1 253.87L112.86 286.47H104.23V176.28C105.54 173.72 106.88 172.09 108.23 171.7C108.44 171.93 113.02 177.18 116.09 188.54C117.148 192.511 117.887 196.561 118.3 200.65C118.836 205.905 118.956 211.195 118.66 216.47Z" fill="black"/>
<path d="M147.3 131.12C148.86 136.64 147.3 142.19 143.74 143.52C140.18 144.85 136.09 141.45 134.53 135.94C132.97 130.43 134.53 124.87 138.09 123.54C141.65 122.21 145.74 125.61 147.3 131.12Z" fill="#263238"/>
<path opacity="0.2" d="M147.3 131.12C148.86 136.64 147.3 142.19 143.74 143.52C140.18 144.85 136.09 141.45 134.53 135.94C132.97 130.43 134.53 124.87 138.09 123.54C141.65 122.21 145.74 125.61 147.3 131.12Z" fill="white"/>
<path d="M139.94 128.79C139.94 128.79 137.32 101.26 151.15 94.6899C149.836 94.4958 148.494 94.6796 147.28 95.2199C145.28 96.1299 133.34 101.1 135.34 128.55L139.94 128.79Z" fill="#263238"/>
<path opacity="0.4" d="M139.78 125.55C139.78 127.55 139.94 128.79 139.94 128.79L135.34 128.55C135.29 127.96 135.26 127.38 135.23 126.81C133.85 100.89 145.34 96.1099 147.28 95.2199C148.497 94.6804 149.843 94.4966 151.16 94.6899C140.25 99.8699 139.57 118.05 139.78 125.55Z" fill="white"/>
<path d="M182.823 144.643L180.251 145.191C179.787 145.29 179.49 145.747 179.589 146.211L179.645 146.475C179.744 146.94 180.201 147.236 180.666 147.137L183.238 146.59C183.702 146.491 183.999 146.034 183.9 145.569L183.844 145.305C183.745 144.841 183.288 144.544 182.823 144.643Z" fill="#263238"/>
<path opacity="0.2" d="M182.823 144.643L180.251 145.191C179.787 145.29 179.49 145.747 179.589 146.211L179.645 146.475C179.744 146.94 180.201 147.236 180.666 147.137L183.238 146.59C183.702 146.491 183.999 146.034 183.9 145.569L183.844 145.305C183.745 144.841 183.288 144.544 182.823 144.643Z" fill="white"/>
<path opacity="0.2" d="M139.94 128.79L135.34 128.55C135.29 127.96 135.26 127.38 135.23 126.81C135.23 126.81 136.46 124.54 139.78 125.55C139.82 127.57 139.94 128.79 139.94 128.79Z" fill="black"/>
<path d="M143.8 132.77C144.97 136.92 143.8 141.1 141.12 142.1C138.44 143.1 135.36 140.54 134.19 136.39C133.02 132.24 134.19 128.07 136.87 127.07C139.55 126.07 142.62 128.63 143.8 132.77Z" fill="#263238"/>
<path opacity="0.4" d="M143.8 132.77C144.97 136.92 143.8 141.1 141.12 142.1C138.44 143.1 135.36 140.54 134.19 136.39C133.02 132.24 134.19 128.07 136.87 127.07C139.55 126.07 142.62 128.63 143.8 132.77Z" fill="white"/>
<path d="M376.89 124.49H316.74C315.332 124.49 314.19 125.632 314.19 127.04V183.24C314.19 184.649 315.332 185.79 316.74 185.79H376.89C378.298 185.79 379.44 184.649 379.44 183.24V127.04C379.44 125.632 378.298 124.49 376.89 124.49Z" fill="#407BFF"/>
<path opacity="0.7" d="M376.89 124.49H316.74C315.332 124.49 314.19 125.632 314.19 127.04V183.24C314.19 184.649 315.332 185.79 316.74 185.79H376.89C378.298 185.79 379.44 184.649 379.44 183.24V127.04C379.44 125.632 378.298 124.49 376.89 124.49Z" fill="white"/>
<path d="M346.81 176.3C358.496 176.3 367.97 166.827 367.97 155.14C367.97 143.454 358.496 133.98 346.81 133.98C335.124 133.98 325.65 143.454 325.65 155.14C325.65 166.827 335.124 176.3 346.81 176.3Z" fill="#407BFF"/>
<path opacity="0.3" d="M346.81 155.14H368C368.002 159.669 366.553 164.078 363.864 167.722C361.175 171.365 357.388 174.051 353.061 175.383C348.733 176.716 344.092 176.626 339.819 175.126C335.547 173.627 331.867 170.797 329.322 167.052C326.776 163.307 325.498 158.844 325.676 154.319C325.854 149.794 327.478 145.446 330.31 141.912C333.142 138.379 337.032 135.846 341.409 134.687C345.787 133.527 350.42 133.802 354.63 135.47L346.81 155.14Z" fill="white"/>
<path opacity="0.3" d="M346.81 155.14L346.25 176.29C343.158 176.211 340.122 175.455 337.354 174.075C334.586 172.696 332.154 170.726 330.229 168.305C328.304 165.884 326.934 163.071 326.214 160.063C325.494 157.055 325.442 153.926 326.062 150.896C326.682 147.866 327.958 145.009 329.801 142.526C331.645 140.042 334.01 137.993 336.73 136.523C339.451 135.052 342.461 134.195 345.548 134.014C348.636 133.832 351.726 134.329 354.6 135.47L346.81 155.14Z" fill="white"/>
<path d="M346.81 168.34C354.1 168.34 360.01 162.431 360.01 155.14C360.01 147.85 354.1 141.94 346.81 141.94C339.52 141.94 333.61 147.85 333.61 155.14C333.61 162.431 339.52 168.34 346.81 168.34Z" fill="white"/>
<path d="M330.17 131.44H320.66V136.42H330.17V131.44Z" fill="white"/>
<path d="M372.73 174.85H363.22V179.83H372.73V174.85Z" fill="white"/>
<path d="M371.74 129.62H362.23V134.6H371.74V129.62Z" fill="white"/>
<path d="M325.41 133.93L333.61 142.97" stroke="white" stroke-width="0.481435" stroke-miterlimit="10"/>
<path d="M366.99 132.5L361.41 144.55" stroke="white" stroke-width="0.481435" stroke-miterlimit="10"/>
<path d="M367.97 177.34L360.55 166.33" stroke="white" stroke-width="0.481435" stroke-miterlimit="10"/>
<path d="M334.25 142.97C334.25 143.14 334.183 143.303 334.063 143.423C333.943 143.543 333.78 143.61 333.61 143.61C333.44 143.61 333.277 143.543 333.157 143.423C333.037 143.303 332.97 143.14 332.97 142.97C332.97 142.8 333.037 142.638 333.157 142.518C333.277 142.398 333.44 142.33 333.61 142.33C333.78 142.33 333.943 142.398 334.063 142.518C334.183 142.638 334.25 142.8 334.25 142.97Z" fill="white"/>
<path d="M361.41 145.19C361.763 145.19 362.05 144.904 362.05 144.55C362.05 144.197 361.763 143.91 361.41 143.91C361.057 143.91 360.77 144.197 360.77 144.55C360.77 144.904 361.057 145.19 361.41 145.19Z" fill="white"/>
<path d="M361.19 166.33C361.19 166.5 361.123 166.663 361.003 166.783C360.883 166.903 360.72 166.97 360.55 166.97C360.38 166.97 360.217 166.903 360.097 166.783C359.977 166.663 359.91 166.5 359.91 166.33C359.91 166.161 359.977 165.998 360.097 165.878C360.217 165.758 360.38 165.69 360.55 165.69C360.72 165.69 360.883 165.758 361.003 165.878C361.123 165.998 361.19 166.161 361.19 166.33Z" fill="white"/>
<path d="M368.48 216.66H291.96C290.552 216.66 289.41 217.802 289.41 219.21V275.41C289.41 276.818 290.552 277.96 291.96 277.96H368.48C369.888 277.96 371.03 276.818 371.03 275.41V219.21C371.03 217.802 369.888 216.66 368.48 216.66Z" fill="#FF6C37"/>
<path opacity="0.7" d="M368.48 216.66H291.96C290.552 216.66 289.41 217.802 289.41 219.21V275.41C289.41 276.818 290.552 277.96 291.96 277.96H368.48C369.888 277.96 371.03 276.818 371.03 275.41V219.21C371.03 217.802 369.888 216.66 368.48 216.66Z" fill="white"/>
<path opacity="0.1" d="M362.51 230.23V229.99H358.69V226.4H358.45V229.99H352.06V226.4H351.82V229.99H345.42V226.4H345.18V229.99H338.79V226.4H338.55V229.99H332.16V226.4H331.92V229.99H325.53V226.4H325.29V229.99H318.9V226.4H318.65V229.99H312.26V226.4H312V229.99H305.61V226.4H305.37V229.99H298.19V230.23H305.37V236.32H298.19V236.56H305.37V242.64H298.19V242.88H305.37V248.97H298.19V249.21H305.37V255.29H298.19V255.53H305.37V261.62H298.19V261.86H305.37V268.64H305.61V261.86H312V268.64H312.24V261.86H318.63V268.64H318.88V261.86H325.27V268.64H325.51V261.86H331.9V268.64H332.14V261.86H338.53V268.64H338.77V261.86H345.16V268.64H345.4V261.86H351.8V268.64H352.04V261.86H358.43V268.64H358.67V261.86H362.49V261.62H358.67V255.53H362.49V255.29H358.67V249.21H362.49V248.97H358.67V242.88H362.49V242.64H358.67V236.56H362.49V236.32H358.67V230.23H362.51ZM351.82 230.23V236.32H345.42V230.23H351.82ZM325.53 242.88H331.92V248.97H325.53V242.88ZM325.29 248.97H318.9V242.88H325.29V248.97ZM332.16 242.88H338.55V248.97H332.16V242.88ZM338.79 242.88H345.18V248.97H338.79V242.88ZM338.79 242.64V236.56H345.18V242.64H338.79ZM338.55 242.64H332.16V236.56H338.55V242.64ZM331.92 242.64H325.53V236.56H331.92V242.64ZM325.29 242.64H318.9V236.56H325.29V242.64ZM318.65 242.64H312.26V236.56H318.65V242.64ZM318.65 242.88V248.97H312.26V242.88H318.65ZM318.65 249.21V255.29H312.26V249.21H318.65ZM318.9 249.21H325.29V255.29H318.9V249.21ZM325.53 249.21H331.92V255.29H325.53V249.21ZM332.16 249.21H338.55V255.29H332.16V249.21ZM338.79 249.21H345.18V255.29H338.79V249.21ZM345.42 249.21H351.82V255.29H345.42V249.21ZM345.42 248.97V242.88H351.82V248.97H345.42ZM345.42 242.64V236.56H351.82V242.64H345.42ZM345.18 230.23V236.32H338.79V230.23H345.18ZM338.55 230.23V236.32H332.16V230.23H338.55ZM331.92 230.23V236.32H325.53V230.23H331.92ZM325.29 230.23V236.32H318.9V230.23H325.29ZM318.65 230.23V236.32H312.26V230.23H318.65ZM305.65 230.23H312V236.32H305.61L305.65 230.23ZM305.65 236.56H312V242.64H305.61L305.65 236.56ZM305.65 242.88H312V248.97H305.61L305.65 242.88ZM305.65 249.21H312V255.29H305.61L305.65 249.21ZM305.65 261.62V255.53H312V261.62H305.65ZM312.28 261.62V255.53H318.67V261.62H312.28ZM318.92 261.62V255.53H325.31V261.62H318.92ZM325.55 261.62V255.53H331.94V261.62H325.55ZM332.18 261.62V255.53H338.57V261.62H332.18ZM338.81 261.62V255.53H345.2V261.62H338.81ZM345.44 261.62V255.53H351.84V261.62H345.44ZM358.44 261.62H352.05V255.53H358.44V261.62ZM358.44 255.29H352.05V249.21H358.44V255.29ZM358.44 248.97H352.05V242.88H358.44V248.97ZM358.44 242.64H352.05V236.56H358.44V242.64ZM358.44 236.32H352.05V230.23H358.44V236.32Z" fill="black"/>
<path d="M307 265.39C307 265.701 306.908 266.004 306.735 266.263C306.563 266.521 306.318 266.722 306.031 266.841C305.744 266.96 305.428 266.991 305.124 266.93C304.819 266.87 304.539 266.72 304.32 266.5C304.1 266.281 303.951 266.001 303.89 265.697C303.83 265.392 303.861 265.076 303.98 264.79C304.098 264.503 304.3 264.257 304.558 264.085C304.816 263.912 305.119 263.82 305.43 263.82C305.846 263.82 306.246 263.986 306.54 264.28C306.835 264.575 307 264.974 307 265.39Z" fill="white"/>
<path d="M298.64 268.08L305.39 265.39L312.02 261.86L318.65 259.18L325.29 255.29L338.55 258.57L345.18 255.29L358.69 249.21" stroke="white" stroke-width="0.96287" stroke-miterlimit="10"/>
<path d="M362.24 268.08H297.94V226" stroke="#263238" stroke-width="0.96287" stroke-miterlimit="10"/>
<path d="M297.94 268.08L305.39 261.62L312.02 253.04L318.9 255.29L325.53 249.21L338.55 255.53L345.18 248.97L358.45 236.56" stroke="#FF6C37" stroke-width="0.96287" stroke-miterlimit="10"/>
<path d="M307 261.62C307 261.931 306.908 262.234 306.735 262.493C306.563 262.751 306.318 262.952 306.031 263.071C305.744 263.19 305.428 263.221 305.124 263.16C304.819 263.1 304.539 262.95 304.32 262.73C304.1 262.511 303.951 262.231 303.89 261.927C303.83 261.622 303.861 261.306 303.98 261.019C304.098 260.733 304.3 260.487 304.558 260.315C304.816 260.142 305.119 260.05 305.43 260.05C305.846 260.05 306.246 260.216 306.54 260.51C306.835 260.805 307 261.204 307 261.62Z" fill="white" stroke="#FF6C37" stroke-width="0.96287" stroke-miterlimit="10"/>
<path d="M313.59 261.62C313.59 261.93 313.498 262.232 313.327 262.49C313.155 262.748 312.911 262.949 312.625 263.068C312.34 263.188 312.025 263.22 311.721 263.161C311.417 263.102 311.137 262.955 310.917 262.737C310.697 262.519 310.545 262.242 310.483 261.938C310.42 261.635 310.448 261.32 310.564 261.033C310.68 260.746 310.878 260.499 311.133 260.324C311.389 260.149 311.69 260.054 312 260.05C312.208 260.047 312.414 260.086 312.607 260.164C312.8 260.241 312.975 260.357 313.123 260.503C313.271 260.649 313.388 260.823 313.469 261.014C313.549 261.206 313.59 261.412 313.59 261.62Z" fill="white"/>
<path d="M318.65 260.75C319.517 260.75 320.22 260.047 320.22 259.18C320.22 258.313 319.517 257.61 318.65 257.61C317.783 257.61 317.08 258.313 317.08 259.18C317.08 260.047 317.783 260.75 318.65 260.75Z" fill="white"/>
<path d="M326.86 255.53C326.86 255.84 326.768 256.144 326.595 256.402C326.423 256.66 326.178 256.862 325.891 256.98C325.604 257.099 325.288 257.13 324.984 257.07C324.679 257.009 324.399 256.86 324.18 256.64C323.96 256.421 323.811 256.141 323.75 255.836C323.69 255.532 323.721 255.216 323.84 254.929C323.958 254.642 324.16 254.397 324.418 254.225C324.676 254.052 324.98 253.96 325.29 253.96C325.706 253.96 326.106 254.125 326.4 254.42C326.695 254.714 326.86 255.114 326.86 255.53Z" fill="white"/>
<path d="M340.12 258.58C340.118 258.89 340.024 259.193 339.851 259.449C339.677 259.706 339.431 259.906 339.144 260.023C338.857 260.141 338.541 260.17 338.238 260.109C337.934 260.047 337.655 259.897 337.436 259.677C337.218 259.457 337.069 259.177 337.009 258.873C336.95 258.568 336.981 258.253 337.1 257.967C337.22 257.681 337.421 257.436 337.679 257.264C337.937 257.092 338.24 257 338.55 257C338.757 257 338.962 257.041 339.153 257.12C339.344 257.2 339.518 257.316 339.664 257.463C339.81 257.61 339.925 257.784 340.003 257.976C340.082 258.168 340.121 258.373 340.12 258.58Z" fill="white"/>
<path d="M346.76 255.53C346.762 255.843 346.671 256.149 346.499 256.41C346.326 256.672 346.08 256.876 345.792 256.997C345.503 257.118 345.185 257.151 344.878 257.091C344.571 257.031 344.288 256.881 344.066 256.661C343.844 256.44 343.693 256.159 343.631 255.852C343.569 255.545 343.6 255.227 343.719 254.938C343.839 254.648 344.041 254.401 344.301 254.227C344.561 254.053 344.867 253.96 345.18 253.96C345.597 253.96 345.998 254.125 346.294 254.419C346.59 254.713 346.757 255.113 346.76 255.53Z" fill="white"/>
<path d="M360 249.21C360 249.521 359.908 249.824 359.735 250.082C359.563 250.341 359.318 250.542 359.031 250.661C358.744 250.779 358.428 250.811 358.124 250.75C357.819 250.689 357.539 250.54 357.32 250.32C357.1 250.101 356.951 249.821 356.89 249.516C356.83 249.212 356.861 248.896 356.98 248.609C357.098 248.322 357.3 248.077 357.558 247.905C357.816 247.732 358.119 247.64 358.43 247.64C358.846 247.64 359.246 247.806 359.54 248.1C359.835 248.394 360 248.794 360 249.21Z" fill="white"/>
<path d="M313.59 253.05C313.59 253.361 313.498 253.664 313.325 253.922C313.153 254.18 312.908 254.382 312.621 254.5C312.334 254.619 312.018 254.65 311.714 254.59C311.409 254.529 311.129 254.38 310.91 254.16C310.69 253.941 310.541 253.661 310.48 253.356C310.42 253.052 310.451 252.736 310.57 252.449C310.688 252.162 310.89 251.917 311.148 251.745C311.406 251.572 311.709 251.48 312.02 251.48C312.436 251.48 312.836 251.645 313.13 251.94C313.425 252.234 313.59 252.634 313.59 253.05Z" fill="white" stroke="#FF6C37" stroke-width="0.96287" stroke-miterlimit="10"/>
<path d="M320.47 255.29C320.472 255.604 320.381 255.91 320.208 256.172C320.035 256.433 319.788 256.637 319.499 256.758C319.21 256.879 318.892 256.911 318.584 256.85C318.277 256.79 317.994 256.639 317.773 256.417C317.551 256.196 317.401 255.913 317.34 255.606C317.279 255.299 317.311 254.98 317.432 254.691C317.553 254.402 317.757 254.155 318.018 253.982C318.28 253.809 318.587 253.718 318.9 253.72C319.316 253.723 319.713 253.889 320.007 254.183C320.301 254.477 320.467 254.875 320.47 255.29Z" fill="white" stroke="#FF6C37" stroke-width="0.96287" stroke-miterlimit="10"/>
<path d="M327.1 249.21C327.1 249.521 327.008 249.824 326.835 250.082C326.663 250.341 326.418 250.542 326.131 250.661C325.844 250.779 325.528 250.811 325.224 250.75C324.919 250.689 324.639 250.54 324.42 250.32C324.2 250.101 324.051 249.821 323.99 249.516C323.93 249.212 323.961 248.896 324.079 248.609C324.198 248.322 324.4 248.077 324.658 247.905C324.916 247.732 325.219 247.64 325.53 247.64C325.946 247.64 326.346 247.806 326.64 248.1C326.935 248.394 327.1 248.794 327.1 249.21Z" fill="white" stroke="#FF6C37" stroke-width="0.96287" stroke-miterlimit="10"/>
<path d="M340.12 255.53C340.12 255.84 340.028 256.144 339.855 256.402C339.683 256.66 339.438 256.862 339.151 256.98C338.864 257.099 338.548 257.13 338.244 257.07C337.939 257.009 337.659 256.86 337.44 256.64C337.22 256.421 337.071 256.141 337.01 255.836C336.95 255.532 336.981 255.216 337.1 254.929C337.218 254.642 337.42 254.397 337.678 254.225C337.936 254.052 338.239 253.96 338.55 253.96C338.966 253.96 339.366 254.125 339.66 254.42C339.955 254.714 340.12 255.114 340.12 255.53Z" fill="white" stroke="#FF6C37" stroke-width="0.96287" stroke-miterlimit="10"/>
<path d="M346.76 248.97C346.762 249.283 346.671 249.589 346.499 249.85C346.326 250.112 346.08 250.316 345.792 250.437C345.503 250.558 345.185 250.591 344.878 250.531C344.571 250.471 344.288 250.321 344.066 250.101C343.844 249.88 343.693 249.599 343.631 249.292C343.569 248.985 343.6 248.667 343.719 248.378C343.839 248.088 344.041 247.841 344.301 247.667C344.561 247.493 344.867 247.4 345.18 247.4C345.387 247.399 345.592 247.438 345.784 247.517C345.976 247.595 346.15 247.71 346.297 247.856C346.443 248.002 346.56 248.176 346.64 248.367C346.719 248.558 346.76 248.763 346.76 248.97Z" fill="white" stroke="#FF6C37" stroke-width="0.96287" stroke-miterlimit="10"/>
<path d="M360 236.56C360 236.871 359.908 237.174 359.735 237.432C359.563 237.691 359.318 237.892 359.031 238.011C358.744 238.13 358.428 238.161 358.124 238.1C357.819 238.039 357.539 237.89 357.32 237.67C357.1 237.451 356.951 237.171 356.89 236.867C356.83 236.562 356.861 236.246 356.98 235.959C357.098 235.673 357.3 235.427 357.558 235.255C357.816 235.082 358.119 234.99 358.43 234.99C358.846 234.99 359.246 235.156 359.54 235.45C359.835 235.745 360 236.144 360 236.56Z" fill="white" stroke="#FF6C37" stroke-width="0.96287" stroke-miterlimit="10"/>
<path d="M288.64 99.6602H212.12C210.712 99.6602 209.57 100.802 209.57 102.21V158.41C209.57 159.818 210.712 160.96 212.12 160.96H288.64C290.048 160.96 291.19 159.818 291.19 158.41V102.21C291.19 100.802 290.048 99.6602 288.64 99.6602Z" fill="#FF6C37"/>
<path opacity="0.7" d="M288.64 99.6602H212.12C210.712 99.6602 209.57 100.802 209.57 102.21V158.41C209.57 159.818 210.712 160.96 212.12 160.96H288.64C290.048 160.96 291.19 159.818 291.19 158.41V102.21C291.19 100.802 290.048 99.6602 288.64 99.6602Z" fill="white"/>
<path opacity="0.1" d="M282.66 113.23V112.99H278.84V109.4H278.6V112.99H272.21V109.4H272V112.99H265.61V109.4H265.36V112.99H258.97V109.4H258.73V112.99H252.34V109.4H252.1V112.99H245.71V109.4H245.47V112.99H239.08V109.4H238.84V112.99H232.44V109.4H232.2V112.99H225.81V109.4H225.57V112.99H218.39V113.23H225.57V119.31H218.39V119.55H225.57V125.64H218.39V125.88H225.57V131.96H218.39V132.21H225.57V138.29H218.39V138.53H225.57V144.62H218.39V144.86H225.57V151.64H225.81V144.86H232.2V151.64H232.44V144.86H238.84V151.64H239.08V144.86H245.47V151.64H245.71V144.86H252.1V151.64H252.34V144.86H258.73V151.64H258.97V144.86H265.36V151.64H265.61V144.86H272V151.64H272.24V144.86H278.63V151.64H278.87V144.86H282.69V144.62H278.87V138.53H282.69V138.29H278.87V132.21H282.69V131.96H278.87V125.88H282.69V125.64H278.87V119.55H282.69V119.31H278.87V113.23H282.66ZM271.97 113.23V119.31H265.58V113.23H271.97ZM245.68 125.88H252.07V131.96H245.68V125.88ZM245.44 131.96H239.05V125.88H245.44V131.96ZM252.31 125.88H258.7V131.96H252.31V125.88ZM258.94 125.88H265.33V131.96H258.94V125.88ZM258.94 125.64V119.55H265.33V125.64H258.94ZM258.7 125.64H252.31V119.55H258.7V125.64ZM252.07 125.64H245.68V119.55H252.07V125.64ZM245.44 125.64H239.05V119.55H245.44V125.64ZM238.81 125.64H232.41V119.55H238.81V125.64ZM238.81 125.88V131.96H232.41V125.88H238.81ZM238.81 132.21V138.29H232.41V132.21H238.81ZM239.05 132.21H245.44V138.29H239.05V132.21ZM245.68 132.21H252.07V138.29H245.68V132.21ZM252.31 132.21H258.7V138.29H252.31V132.21ZM258.94 132.21H265.33V138.29H258.94V132.21ZM265.58 132.21H272V138.29H265.61L265.58 132.21ZM265.58 131.96V125.88H272V131.96H265.58ZM265.58 125.64V119.55H272V125.64H265.58ZM265.33 113.23V119.31H258.94V113.23H265.33ZM258.7 113.23V119.31H252.31V113.23H258.7ZM252.07 113.23V119.31H245.68V113.23H252.07ZM245.44 113.23V119.31H239.05V113.23H245.44ZM238.81 113.23V119.31H232.41V113.23H238.81ZM225.81 113.23H232.2V119.31H225.81V113.23ZM225.81 119.55H232.2V125.64H225.81V119.55ZM225.81 125.88H232.2V131.96H225.81V125.88ZM225.81 132.21H232.2V138.29H225.81V132.21ZM225.81 144.62V138.53H232.2V144.62H225.81ZM232.44 144.62V138.53H238.84V144.62H232.44ZM239.08 144.62V138.53H245.47V144.62H239.08ZM245.71 144.62V138.53H252.1V144.62H245.71ZM252.34 144.62V138.53H258.73V144.62H252.34ZM258.97 144.62V138.53H265.36V144.62H258.97ZM265.61 144.62V138.53H272V144.62H265.61ZM278.61 144.62H272.22V138.53H278.61V144.62ZM278.61 138.29H272.22V132.21H278.61V138.29ZM278.61 131.96H272.22V125.88H278.61V131.96ZM278.61 125.64H272.22V119.55H278.61V125.64ZM278.61 119.31H272.22V113.23H278.61V119.31Z" fill="black"/>
<path d="M227.54 147.26H222.46V151.07H227.54V147.26Z" fill="#FF6C37"/>
<path d="M237.38 140.23H232.3V151.08H237.38V140.23Z" fill="#FF6C37"/>
<path d="M247.21 132.41H242.13V151.08H247.21V132.41Z" fill="#FF6C37"/>
<path d="M257.05 135.79H251.97V151.08H257.05V135.79Z" fill="#FF6C37"/>
<path d="M266.88 129.65H261.8V151.08H266.88V129.65Z" fill="#FF6C37"/>
<path d="M276.71 114.69H271.63V151.07H276.71V114.69Z" fill="#FF6C37"/>
<path d="M282.39 151.08H218.09V108.99" stroke="#263238" stroke-width="0.96287" stroke-miterlimit="10"/>
<path d="M425.551 95.9531C432.565 88.9393 432.565 77.5676 425.551 70.5538C418.537 63.54 407.165 63.54 400.152 70.5538C393.138 77.5676 393.138 88.9392 400.152 95.9531C407.165 102.967 418.537 102.967 425.551 95.9531Z" fill="#FF6C37"/>
<path d="M415.51 79.4402C415.51 77.9302 414.21 76.9002 412.13 76.9002C411.283 76.8527 410.437 77.0181 409.67 77.3815C408.903 77.7448 408.24 78.2945 407.74 78.9802L405.12 77.2802C406.63 75.2802 409.06 73.9902 412.43 73.9902C416.43 73.9902 419.04 75.8002 419.04 78.9002C419.04 83.3002 414.43 83.7002 414.43 86.9002H411C411 82.8902 415.51 82.1402 415.51 79.4402ZM410.57 91.2302C410.56 90.8034 410.677 90.3834 410.907 90.0235C411.137 89.6636 411.468 89.3803 411.86 89.2096C412.251 89.0389 412.684 88.9886 413.104 89.065C413.524 89.1414 413.912 89.3411 414.218 89.6387C414.524 89.9363 414.735 90.3183 414.823 90.736C414.911 91.1537 414.873 91.5882 414.714 91.9841C414.554 92.3801 414.28 92.7195 413.927 92.9593C413.574 93.199 413.157 93.3281 412.73 93.3302C412.448 93.3425 412.167 93.2971 411.903 93.1967C411.639 93.0963 411.399 92.943 411.197 92.7464C410.995 92.5497 410.835 92.3138 410.727 92.0531C410.619 91.7923 410.566 91.5123 410.57 91.2302Z" fill="white"/>
<path d="M412.85 96.0703L410.39 99.4003L412.85 106.73L415.31 99.4003L412.85 96.0703Z" fill="#FF6C37"/>
<path d="M396.75 171.62C396.75 171.62 395.53 173.07 393.75 175.1C392.13 176.89 390.05 179.1 387.92 181.21C384.05 184.98 380.01 188.21 378.37 187.21C375.22 185.34 376.97 180.32 376.97 180.32C376.97 180.32 387.97 160.15 394.75 157.01C399.11 155.01 405.62 155.88 405.62 155.88C406.3 157.81 396.75 171.62 396.75 171.62Z" fill="#FF6C37"/>
<path opacity="0.2" d="M393.72 175.1C392.1 176.89 390.02 179.1 387.89 181.21C388.89 171.61 393.47 166.05 393.47 166.05C394.31 167.55 394.25 171.12 393.72 175.1Z" fill="black"/>
<path d="M428.92 164.05C432.4 160.15 430.28 153.05 431.37 139C432.46 124.95 423.61 123 423.61 123C423.61 123 422.39 116 415.84 116.37C409.29 116.74 396.47 119.77 396.34 134.87C396.21 149.97 394.14 152.06 390.65 155.11C387.16 158.16 394.41 164.32 393.02 167.2C393.02 167.2 406.52 173.03 425.48 171.86C425.48 171.86 424.8 168.66 428.92 164.05Z" fill="black"/>
<path d="M430.65 348.42L429.87 349.5L428.31 348.84L427.31 353.61L420.74 362.72C420.74 362.72 418.23 363.12 420.21 357.94C420.306 357.685 420.373 357.42 420.41 357.15C421 354.06 419.71 348.15 419.71 348.15L423.32 343.15C423.656 343.161 423.99 343.198 424.32 343.26C425.85 343.48 428.84 344.2 430.65 348.42Z" fill="#FF6C37"/>
<path opacity="0.2" d="M430.65 348.42L429.87 349.5L428.31 348.84L427.31 353.61L420.74 362.72C420.74 362.72 418.23 363.12 420.21 357.94C420.306 357.685 420.373 357.42 420.41 357.15C421 354.06 419.71 348.15 419.71 348.15L423.32 343.15C423.656 343.161 423.99 343.198 424.32 343.26C425.85 343.48 428.84 344.2 430.65 348.42Z" fill="black"/>
<path d="M424.36 343.23C423.15 343.36 424.21 348.7 423.73 351.69C423.29 354.36 422.13 356.88 420.42 357.14C421 354.05 418.91 347.05 418.91 347.05L421.81 343.05C421.81 343.05 423.72 343.12 424.36 343.23Z" fill="#EBB376"/>
<path opacity="0.2" d="M424.36 343.23C423.15 343.36 424.21 348.7 423.73 351.69C423.29 354.36 422.13 356.88 420.42 357.14C421 354.05 418.91 347.05 418.91 347.05L421.81 343.05C421.81 343.05 423.72 343.12 424.36 343.23Z" fill="black"/>
<path d="M420.58 362.38H419.24L418.87 360.72L414.44 362.72H403.2C403.2 362.72 401.41 360.92 406.76 359.49C407.022 359.418 407.277 359.321 407.52 359.2C410.37 357.86 414.44 353.34 414.44 353.34H420.6C420.79 353.625 420.961 353.922 421.11 354.23C421.78 355.59 423 358.44 420.58 362.38Z" fill="#FF6C37"/>
<path d="M421.11 354.24C420.29 353.33 416.59 357.32 413.87 358.67C411.45 359.88 408.73 360.41 407.52 359.19C410.37 357.85 414.86 352.01 414.86 352.01H419.86C419.86 352.01 420.82 353.66 421.11 354.24Z" fill="#EBB376"/>
<path d="M386.61 289.49C389.61 295.04 392.66 301.01 395.61 306.99C399.46 314.89 403.08 322.8 406.18 329.88C409.45 337.34 412.1 343.88 413.76 348.39C415.33 348.56 420.06 345.74 421.43 343.18C419.006 328.619 415.326 314.296 410.43 300.37C407.37 292 403.62 283.78 399.12 277.12C417.52 224.79 413.01 205.17 413.01 205.17L391.69 204.22C391.69 204.22 388.47 223.71 385.89 243.7C384.55 254.18 383.38 264.8 382.95 272.82V272.89C382.609 278.656 383.876 284.403 386.61 289.49Z" fill="black"/>
<path opacity="0.2" d="M404.18 261.55C406.88 252.66 408.83 244.95 410.18 238.35C408.82 233.18 406.88 228.76 404.25 226.1C404.27 226.1 400.48 240.49 404.18 261.55Z" fill="black"/>
<path opacity="0.2" d="M406.15 329.88C409.42 337.34 412.07 343.88 413.73 348.39C415.3 348.56 420.03 345.74 421.4 343.18C418.976 328.619 415.296 314.296 410.4 300.37C408.81 309.05 407.06 319.98 406.15 329.88Z" fill="black"/>
<path d="M399.76 201.85C399.76 201.85 405.97 249.85 409.52 272.97C413.26 297.24 413.73 336.18 412.8 352.05C414.16 352.84 419.11 353.79 421.8 352.96C421.8 352.96 434.45 303.88 426.05 275.37C433.7 219.22 422.63 205.47 422.63 205.47L399.76 201.85Z" fill="black"/>
<path opacity="0.7" d="M401.83 171.62C408.068 165.994 414.985 161.17 422.42 157.26L420.35 157.06C415.628 156.56 410.875 156.399 406.13 156.58C404.96 156.65 403.75 156.74 402.56 156.84C399.62 163.59 401.83 171.62 401.83 171.62Z" fill="white"/>
<path d="M422.42 201.85C423.06 194.57 425.67 181.22 430.16 167.2C431.62 162.64 429.16 157.49 429.16 157.49C429.16 157.49 423.04 157.33 422.43 157.26L420.36 157.06C415.638 156.56 410.885 156.399 406.14 156.58C404.97 156.65 403.76 156.74 402.57 156.84C402.19 156.84 397.89 156.92 397.52 156.96C397.52 156.96 391.57 163.76 391.21 169.27C390.762 173.511 390.599 177.777 390.72 182.04C390.72 187.04 391.11 193.64 391.44 200.67L422.42 201.85Z" fill="#FF6C37"/>
<path opacity="0.8" d="M422.42 201.85C423.06 194.57 425.67 181.22 430.16 167.2C431.62 162.64 429.16 157.49 429.16 157.49C429.16 157.49 423.04 157.33 422.43 157.26L420.36 157.06C415.638 156.56 410.885 156.399 406.14 156.58C404.97 156.65 403.76 156.74 402.57 156.84C402.19 156.84 397.89 156.92 397.52 156.96C397.52 156.96 391.57 163.76 391.21 169.27C390.762 173.511 390.599 177.777 390.72 182.04C390.72 187.04 391.11 193.64 391.44 200.67L422.42 201.85Z" fill="white"/>
<path d="M422.42 201.85L391.42 199.76C391.42 199.76 390.49 209.07 390.7 208.94C390.91 208.81 423.92 210.1 423.92 210.1L422.42 201.85Z" fill="black"/>
<path d="M422.14 202.36L391.44 200.66V203.57L422.42 205.22L422.14 202.36Z" fill="black"/>
<path d="M405.44 203.98L405.57 202.27C405.578 202.193 405.571 202.115 405.548 202.04C405.525 201.966 405.487 201.897 405.436 201.838C405.385 201.779 405.323 201.731 405.254 201.697C405.184 201.663 405.108 201.644 405.03 201.64L401.67 201.37C401.589 201.365 401.507 201.376 401.43 201.403C401.354 201.43 401.283 201.472 401.223 201.527C401.163 201.583 401.115 201.65 401.082 201.724C401.049 201.798 401.031 201.879 401.03 201.96V203.76C401.032 203.911 401.091 204.055 401.195 204.164C401.299 204.274 401.44 204.34 401.59 204.35L404.82 204.52C404.973 204.528 405.124 204.477 405.24 204.376C405.355 204.275 405.427 204.133 405.44 203.98Z" stroke="white" stroke-width="0.5" stroke-miterlimit="10"/>
<path d="M419.9 223.16L430.62 221.22L424.38 198.15C424.38 198.15 425.98 192.43 427.74 185.86C428.59 182.66 429.49 179.27 430.24 176.25C431.088 173.246 431.756 170.194 432.24 167.11C432.44 163.44 429.16 157.49 429.16 157.49L421.42 156.23C421.42 156.23 414.36 164.02 413.9 178.96C413.44 193.9 419.9 223.16 419.9 223.16Z" fill="#FF6C37"/>
<path d="M403.72 156.24C403.72 156.24 396.99 167.96 395.44 176.62C393.89 185.28 389.62 222.13 389.62 222.13L387.3 220.96L390.53 198.96C390.53 198.96 389.37 173.48 390.27 168.25C391.17 163.02 397.03 156.25 397.03 156.25L403.72 156.24Z" fill="#FF6C37"/>
<path d="M407.05 155.68L406.59 155.27C406.59 155.27 400 156.05 394 163.58L396.33 165.86L392.33 169.06L394.23 184.51C394.23 184.51 400.28 163.92 402.9 158.97C404.118 157.68 405.516 156.572 407.05 155.68Z" fill="#FF6C37"/>
<path opacity="0.2" d="M407.05 155.68L406.59 155.3C406.59 155.3 400 156.05 394 163.58L396.33 165.86L392.33 169.06L394.23 184.51C394.23 184.51 400.28 163.92 402.9 158.97C404.118 157.68 405.516 156.572 407.05 155.68Z" fill="black"/>
<path d="M419.9 156.24C419.9 156.24 412.41 164.5 414.07 186.24L421.4 170.63L418.75 166.36L424.95 160.54C424.95 160.54 421.7 154.37 419.4 154.99L419.9 156.24Z" fill="#FF6C37"/>
<path opacity="0.2" d="M419.9 156.24C419.9 156.24 412.41 164.5 414.07 186.24L421.4 170.63L418.75 166.36L424.95 160.54C424.95 160.54 421.7 154.37 419.4 154.99L419.9 156.24Z" fill="black"/>
<path d="M404.3 158.58L406.02 168.88L419.56 157.05C416.7 153.9 418.5 145.57 419.9 141.05L416.06 143.93L410.36 148.19C410.465 149.368 410.37 150.554 410.08 151.7C409.65 153.52 408.88 155.22 408.02 155.58L404.3 158.58Z" fill="#EBB376"/>
<path opacity="0.2" d="M410.08 151.66C412.36 151.15 415.34 148.8 415.82 146.48C415.999 145.629 416.079 144.76 416.06 143.89L410.36 148.15C410.465 149.328 410.37 150.514 410.08 151.66Z" fill="black"/>
<path d="M418.9 154.43C418.9 154.43 413.1 158.91 406.3 168.35C406.3 168.35 405.69 158.92 408.03 155.55L407.54 154.97C403.978 156.521 400.878 158.967 398.54 162.07L403.03 160.65L406.1 168.96L415.34 161.33L421.56 162.41C421.56 162.41 421.29 156.27 418.9 154.43Z" fill="#FF6C37"/>
<path opacity="0.7" d="M418.9 154.43C418.9 154.43 413.1 158.91 406.3 168.35C406.3 168.35 405.69 158.92 408.03 155.55L407.54 154.97C403.978 156.521 400.878 158.967 398.54 162.07L403.03 160.65L406.1 168.96L415.34 161.33L421.56 162.41C421.56 162.41 421.29 156.27 418.9 154.43Z" fill="white"/>
<path opacity="0.2" d="M426.32 184.05C426.584 184.784 427.084 185.409 427.74 185.83C428.59 182.63 429.49 179.24 430.24 176.22C428.24 173.83 426.58 171.83 426.58 171.83C426.58 171.83 424.3 178.95 426.32 184.05Z" fill="black"/>
<path d="M429.14 157.49C433.39 158 446.38 190.27 445.61 195.37C444.84 200.47 416.88 198.15 416.88 198.15V190.39L433.19 187.1L427.55 176.05C426.548 172.834 426.132 169.464 426.32 166.1C426.664 163.068 427.624 160.138 429.14 157.49Z" fill="#FF6C37"/>
<path d="M404.69 204.66L426.13 202.06C426.323 202.042 426.51 201.985 426.679 201.892C426.849 201.799 426.998 201.672 427.117 201.519C427.236 201.366 427.322 201.191 427.371 201.004C427.42 200.817 427.429 200.621 427.4 200.43L423.64 172.85C423.569 172.457 423.35 172.107 423.028 171.87C422.706 171.634 422.306 171.53 421.91 171.58L400.47 174.18C400.277 174.2 400.09 174.258 399.92 174.352C399.75 174.446 399.602 174.574 399.483 174.727C399.364 174.881 399.278 175.057 399.229 175.245C399.18 175.433 399.171 175.628 399.2 175.82L403 203.39C403.066 203.777 403.278 204.125 403.593 204.361C403.907 204.597 404.299 204.704 404.69 204.66Z" fill="black"/>
<path opacity="0.6" d="M404.69 204.66L426.13 202.06C426.323 202.042 426.51 201.985 426.679 201.892C426.849 201.799 426.998 201.672 427.117 201.519C427.236 201.366 427.322 201.191 427.371 201.004C427.42 200.817 427.429 200.621 427.4 200.43L423.64 172.85C423.569 172.457 423.35 172.107 423.028 171.87C422.706 171.634 422.306 171.53 421.91 171.58L400.47 174.18C400.277 174.2 400.09 174.258 399.92 174.352C399.75 174.446 399.602 174.574 399.483 174.727C399.364 174.881 399.278 175.057 399.229 175.245C399.18 175.433 399.171 175.628 399.2 175.82L403 203.39C403.066 203.777 403.278 204.125 403.593 204.361C403.907 204.597 404.299 204.704 404.69 204.66Z" fill="white"/>
<path opacity="0.2" d="M405.59 204.55L426.13 202.05C426.323 202.032 426.51 201.975 426.679 201.882C426.849 201.789 426.998 201.662 427.117 201.509C427.236 201.357 427.322 201.181 427.371 200.994C427.42 200.807 427.429 200.612 427.4 200.42L423.64 172.84C423.569 172.447 423.35 172.097 423.028 171.861C422.706 171.624 422.306 171.52 421.91 171.57L401.37 174.05C401.177 174.07 400.99 174.128 400.82 174.222C400.65 174.317 400.502 174.444 400.383 174.598C400.264 174.751 400.178 174.927 400.129 175.115C400.08 175.303 400.071 175.499 400.1 175.69L403.86 203.26C403.927 203.657 404.144 204.012 404.466 204.253C404.788 204.493 405.191 204.6 405.59 204.55Z" fill="white"/>
<path d="M413.8 185.77C414.418 185.69 415.043 185.854 415.542 186.227C416.04 186.601 416.374 187.154 416.47 187.77C416.513 188.069 416.495 188.373 416.417 188.665C416.339 188.956 416.202 189.229 416.015 189.466C415.827 189.702 415.594 189.898 415.328 190.042C415.063 190.185 414.771 190.273 414.47 190.3C413.853 190.375 413.231 190.209 412.733 189.837C412.235 189.464 411.901 188.913 411.8 188.3C412.101 188.275 412.394 188.188 412.66 188.045C412.927 187.902 413.161 187.706 413.348 187.468C413.536 187.231 413.672 186.958 413.75 186.666C413.828 186.374 413.845 186.069 413.8 185.77Z" fill="black"/>
<path opacity="0.3" d="M406.52 175.67L417.84 174.3C418.108 174.269 418.36 174.156 418.562 173.977C418.764 173.799 418.906 173.562 418.97 173.3L419.32 171.87L404.37 173.69L405.13 174.98C405.272 175.216 405.478 175.406 405.724 175.528C405.97 175.651 406.247 175.7 406.52 175.67Z" fill="black"/>
<path d="M404.9 189.44L411.28 191.26L412.62 195.49C412.01 198.92 405.41 197.49 405.41 197.49L404.05 198.34C403.796 198.498 403.508 198.592 403.209 198.613C402.911 198.634 402.612 198.581 402.339 198.46C402.065 198.339 401.826 198.152 401.641 197.917C401.457 197.681 401.333 197.404 401.28 197.11L400.58 193.11C400.521 192.783 400.553 192.445 400.673 192.134C400.792 191.824 400.996 191.553 401.26 191.35L403.26 189.77C403.487 189.587 403.754 189.462 404.04 189.404C404.325 189.347 404.62 189.359 404.9 189.44Z" fill="#EBB376"/>
<path d="M442.14 182.05C444.38 188.18 445.89 193.54 445.61 195.37C444.83 200.47 412.1 197.37 412.1 197.37L411.28 191.3L433.19 187.14L442.14 182.05Z" fill="#FF6C37"/>
<path d="M410.59 124.05C403.25 124.56 401.15 128.65 401.14 136.26C401.14 145.77 403.68 152.35 412.73 149.69C425 146.05 422.79 123.22 410.59 124.05Z" fill="#EBB376"/>
<path d="M405.86 135.53C405.345 136.669 404.697 137.743 403.93 138.73C404.168 139.018 404.48 139.235 404.833 139.359C405.185 139.482 405.564 139.507 405.93 139.43L405.86 135.53Z" fill="#D58745"/>
<path d="M410.31 134.62C410.31 135.23 410.69 135.7 411.09 135.68C411.49 135.66 411.8 135.16 411.77 134.56C411.74 133.96 411.4 133.48 410.99 133.49C410.58 133.5 410.29 134.05 410.31 134.62Z" fill="black"/>
<path d="M411.16 133.52L409.83 133.06C409.83 133.06 410.53 134.14 411.16 133.52Z" fill="black"/>
<path d="M402.8 134.84C402.8 135.44 403.17 135.92 403.57 135.9C403.97 135.88 404.28 135.38 404.25 134.77C404.22 134.16 403.88 133.69 403.47 133.71C403.06 133.73 402.77 134.23 402.8 134.84Z" fill="black"/>
<path d="M403.64 133.73L402.31 133.28C402.31 133.28 403 134.35 403.64 133.73Z" fill="black"/>
<path d="M410 129.54C410.575 129.429 411.168 129.452 411.733 129.606C412.299 129.76 412.821 130.042 413.26 130.43" stroke="black" stroke-width="0.7" stroke-linecap="round" stroke-linejoin="round"/>
<path d="M404.68 129.6C404.168 129.508 403.643 129.533 403.142 129.674C402.641 129.814 402.179 130.066 401.79 130.41" stroke="black" stroke-width="0.7" stroke-linecap="round" stroke-linejoin="round"/>
<path d="M419.48 135.89C419.48 135.89 415.63 130.09 415.82 125.39C415.82 125.39 400.82 120.45 401.16 135.28C401.16 135.28 398.83 122.28 411.44 121.09C424.05 119.9 425.27 138.4 419.13 144.36C419.13 144.36 421.86 139.52 419.48 135.89Z" fill="black"/>
<path d="M411.05 140.43C410.732 141.237 410.131 141.9 409.361 142.297C408.59 142.694 407.702 142.798 406.86 142.59" stroke="black" stroke-width="0.5" stroke-linecap="round" stroke-linejoin="round"/>
<path d="M420.75 134.59H413.42C413.401 134.362 413.354 134.137 413.28 133.92C412.963 133.059 412.34 132.344 411.531 131.911C410.722 131.478 409.783 131.357 408.89 131.57C408.218 131.699 407.607 132.046 407.153 132.558C406.699 133.07 406.427 133.718 406.38 134.4C406.13 134.195 405.813 134.089 405.49 134.1C405.341 134.108 405.199 134.161 405.08 134.25C405.063 134.077 405.026 133.906 404.97 133.74C404.654 132.877 404.033 132.16 403.224 131.725C402.415 131.29 401.474 131.168 400.58 131.38C400.154 131.457 399.75 131.624 399.393 131.869C399.036 132.113 398.735 132.431 398.509 132.8C398.283 133.169 398.138 133.582 398.083 134.011C398.028 134.44 398.065 134.876 398.19 135.29C398.509 136.152 399.133 136.867 399.944 137.3C400.755 137.733 401.696 137.854 402.59 137.64C403.259 137.513 403.867 137.168 404.321 136.66C404.775 136.152 405.048 135.509 405.1 134.83C405.149 134.746 405.215 134.673 405.295 134.616C405.374 134.559 405.464 134.52 405.56 134.5C405.725 134.516 405.885 134.566 406.03 134.646C406.174 134.727 406.3 134.838 406.4 134.97C406.419 135.143 406.452 135.313 406.5 135.48C406.821 136.341 407.446 137.054 408.256 137.487C409.066 137.92 410.006 138.042 410.9 137.83C411.571 137.7 412.181 137.352 412.635 136.841C413.088 136.329 413.361 135.682 413.41 135H420.77H420.82C420.866 134.991 420.907 134.966 420.936 134.929C420.965 134.893 420.981 134.847 420.98 134.8C420.98 134.771 420.974 134.742 420.962 134.715C420.951 134.688 420.933 134.664 420.912 134.644C420.89 134.624 420.864 134.609 420.837 134.6C420.809 134.591 420.779 134.587 420.75 134.59ZM402.46 137.26C401.679 137.444 400.857 137.337 400.15 136.957C399.443 136.578 398.899 135.953 398.62 135.2C398.509 134.839 398.477 134.458 398.525 134.083C398.572 133.708 398.699 133.347 398.897 133.024C399.094 132.702 399.358 132.425 399.671 132.213C399.983 132 400.338 131.856 400.71 131.79C401.484 131.6 402.3 131.699 403.007 132.067C403.714 132.435 404.262 133.047 404.55 133.79C404.669 134.156 404.708 134.542 404.664 134.924C404.621 135.305 404.496 135.673 404.297 136.002C404.099 136.332 403.832 136.614 403.515 136.831C403.198 137.048 402.838 137.195 402.46 137.26ZM410.77 137.45C409.989 137.634 409.167 137.527 408.46 137.147C407.753 136.768 407.209 136.143 406.93 135.39C406.819 135.028 406.787 134.646 406.835 134.271C406.882 133.895 407.009 133.534 407.207 133.211C407.404 132.887 407.668 132.61 407.98 132.396C408.293 132.182 408.647 132.037 409.02 131.97C409.801 131.786 410.623 131.894 411.33 132.273C412.037 132.653 412.581 133.278 412.86 134.03C412.971 134.392 413.003 134.774 412.955 135.15C412.908 135.525 412.781 135.887 412.583 136.21C412.386 136.533 412.122 136.811 411.81 137.024C411.497 137.238 411.143 137.383 410.77 137.45Z" fill="black"/>
<g opacity="0.3">
<path d="M420.75 134.59H413.42C413.401 134.362 413.354 134.137 413.28 133.92C412.963 133.059 412.34 132.344 411.531 131.911C410.722 131.478 409.783 131.357 408.89 131.57C408.218 131.699 407.607 132.046 407.153 132.558C406.699 133.07 406.427 133.718 406.38 134.4C406.13 134.195 405.813 134.089 405.49 134.1C405.341 134.108 405.199 134.161 405.08 134.25C405.063 134.077 405.026 133.906 404.97 133.74C404.654 132.877 404.033 132.16 403.224 131.725C402.415 131.29 401.474 131.168 400.58 131.38C400.154 131.457 399.75 131.624 399.393 131.869C399.036 132.113 398.735 132.431 398.509 132.8C398.283 133.169 398.138 133.582 398.083 134.011C398.028 134.44 398.065 134.876 398.19 135.29C398.509 136.152 399.133 136.867 399.944 137.3C400.755 137.733 401.696 137.854 402.59 137.64C403.259 137.513 403.867 137.168 404.321 136.66C404.775 136.152 405.048 135.509 405.1 134.83C405.149 134.746 405.215 134.673 405.295 134.616C405.374 134.559 405.464 134.52 405.56 134.5C405.725 134.516 405.885 134.566 406.03 134.646C406.174 134.727 406.3 134.838 406.4 134.97C406.419 135.143 406.452 135.313 406.5 135.48C406.821 136.341 407.446 137.054 408.256 137.487C409.066 137.92 410.006 138.042 410.9 137.83C411.571 137.7 412.181 137.352 412.635 136.841C413.088 136.329 413.361 135.682 413.41 135H420.77H420.82C420.866 134.991 420.907 134.966 420.936 134.929C420.965 134.893 420.981 134.847 420.98 134.8C420.98 134.771 420.974 134.742 420.962 134.715C420.951 134.688 420.933 134.664 420.912 134.644C420.89 134.624 420.864 134.609 420.837 134.6C420.809 134.591 420.779 134.587 420.75 134.59ZM402.46 137.26C401.679 137.444 400.857 137.337 400.15 136.957C399.443 136.578 398.899 135.953 398.62 135.2C398.509 134.839 398.477 134.458 398.525 134.083C398.572 133.708 398.699 133.347 398.897 133.024C399.094 132.702 399.358 132.425 399.671 132.213C399.983 132 400.338 131.856 400.71 131.79C401.484 131.6 402.3 131.699 403.007 132.067C403.714 132.435 404.262 133.047 404.55 133.79C404.669 134.156 404.708 134.542 404.664 134.924C404.621 135.305 404.496 135.673 404.297 136.002C404.099 136.332 403.832 136.614 403.515 136.831C403.198 137.048 402.838 137.195 402.46 137.26ZM410.77 137.45C409.989 137.634 409.167 137.527 408.46 137.147C407.753 136.768 407.209 136.143 406.93 135.39C406.819 135.028 406.787 134.646 406.835 134.271C406.882 133.895 407.009 133.534 407.207 133.211C407.404 132.887 407.668 132.61 407.98 132.396C408.293 132.182 408.647 132.037 409.02 131.97C409.801 131.786 410.623 131.894 411.33 132.273C412.037 132.653 412.581 133.278 412.86 134.03C412.971 134.392 413.003 134.774 412.955 135.15C412.908 135.525 412.781 135.887 412.583 136.21C412.386 136.533 412.122 136.811 411.81 137.024C411.497 137.238 411.143 137.383 410.77 137.45Z" fill="white"/>
</g>
<path d="M418.39 137.52C418.394 137.097 418.481 136.679 418.648 136.289C418.814 135.9 419.055 135.548 419.358 135.252C419.661 134.956 420.02 134.724 420.413 134.567C420.806 134.411 421.227 134.334 421.65 134.34C423.94 134.43 425.35 139.03 419.77 140.54C419 140.76 418.45 140.05 418.39 137.52Z" fill="#EBB376"/>
<path opacity="0.2" d="M382.44 183.75C382.44 183.75 398.94 162.08 397.51 156.96C396.08 151.84 386.38 167.96 386.38 167.96L382.44 183.75Z" fill="black"/>
<path opacity="0.2" d="M406.63 149.91C404.53 149.2 403.15 147.49 402.3 145.08L404.61 144.36L406.63 149.91Z" fill="black"/>
<path d="M393.47 154.05L397.66 147.75L401.96 154.95C401.96 154.95 397.89 160.35 395.2 158.13L393.47 154.05Z" fill="#EBB376"/>
<path d="M404.45 144.61L406.05 152.06L401.96 154.99L397.66 147.79L404.45 144.61Z" fill="#EBB376"/>
<path d="M382.84 183.41L378.34 187.24C377.101 187.247 375.903 186.794 374.979 185.968C374.056 185.142 373.471 184.002 373.34 182.77C371.94 175.11 393.04 153.1 393.04 153.1L397.13 158.66L382.84 183.41Z" fill="#FF6C37"/>
</g>
<defs>
<clipPath id="clip0_1222_25881">
<rect width="500" height="372.61" fill="white"/>
</clipPath>
</defs>
</svg>
