<svg width="146" height="100" viewBox="0 0 146 100" fill="none" xmlns="http://www.w3.org/2000/svg">
<g clip-path="url(#clip0_1929_19654)">
<path d="M0 48.8105C2.25376 44.7621 4.4866 40.6929 6.74036 36.6236C6.87143 36.2494 7.08001 35.907 7.3525 35.6189C7.62498 35.3308 7.95539 35.1034 8.32177 34.9518C8.68815 34.8001 9.08241 34.7276 9.47879 34.7388C9.87517 34.75 10.2646 34.8446 10.6218 35.0167C18.969 37.1035 27.3163 39.1903 35.6635 41.2771C36.511 41.482 37.4012 41.4164 38.2094 41.0894C42.7795 39.0026 47.3079 36.8113 51.8363 34.6619C52.212 34.4949 52.5875 34.2863 53.1093 33.9942L51.6486 32.9717C43.0927 27.1077 34.5368 21.202 25.9183 15.3797C25.2097 14.9976 24.6426 14.3978 24.3007 13.6689C23.9588 12.94 23.8601 12.1207 24.0192 11.3315C24.9165 5.63446 29.0484 1.33544 36.5401 3.31791C41.0277 4.65061 45.4377 6.23212 49.7495 8.05502C60.0584 12.02 70.3255 16.0684 80.5927 20.1168C81.0339 20.3221 81.5147 20.4286 82.0014 20.4286C82.488 20.4286 82.9686 20.3221 83.4098 20.1168C95.6176 14.3781 107.888 8.70203 120.096 2.94243C124.618 0.701696 129.689 -0.189368 134.704 0.375692C144.178 1.54431 148.706 10.8098 143.969 19.157C141.756 23.0717 138.379 26.2004 134.307 28.1092C123.623 33.2219 112.876 38.2094 102.149 43.2595L98.8105 44.7828C100.104 40.964 101.315 37.4374 102.504 33.9106C102.713 33.2846 103.151 32.6168 103.047 32.0325C102.966 31.2235 102.577 30.4765 101.962 29.9456C101.767 29.8244 101.548 29.7463 101.32 29.7166C101.093 29.6869 100.862 29.7065 100.642 29.7737C100.423 29.8409 100.22 29.9543 100.048 30.1064C99.8761 30.2585 99.7388 30.4457 99.6452 30.6553C99.3673 31.2026 99.1437 31.7756 98.9776 32.3664C92.2163 52.4415 85.4688 72.5097 78.7354 92.5709C78.0693 94.9292 76.8206 97.0821 75.1043 98.8313C74.4442 99.4502 73.6007 99.8377 72.7011 99.9356C71.8016 100.033 70.8946 99.8364 70.1168 99.3739C69.9317 99.2271 69.7828 99.0397 69.6815 98.8262C69.5802 98.6128 69.5292 98.379 69.5324 98.1428C70.0333 92.2371 70.5968 86.3314 71.1602 80.4258C71.9532 71.8281 72.788 63.2305 73.6019 54.6537C73.894 51.5861 74.2488 48.5184 74.3949 45.4299C74.3854 45.035 74.2953 44.6462 74.1302 44.2874C73.9651 43.9285 73.7284 43.6072 73.4348 43.3431C72.3496 42.4875 70.889 43.3431 70.7221 44.9082C70.3047 48.6853 69.8873 52.4625 69.6369 56.2397C69.6616 56.9067 69.4723 57.5639 69.0968 58.1158C68.7214 58.6677 68.1795 59.0852 67.5501 59.3072C53.8397 65.5677 40.171 72.0993 26.4815 78.5058C23.9356 79.6953 22.788 79.2989 21.6193 76.7738C19.9499 73.1984 18.2943 69.63 16.6527 66.0685C15.6093 63.8147 16.0268 62.7296 18.3014 61.6444L21.6193 60.0793L20.1378 59.3905C14.4617 57.0324 8.7437 54.7163 3.08844 52.2956C2.03472 51.6987 1.04211 50.9997 0.125076 50.2088L0 48.8105Z" fill="#FF5EE5"/>
</g>
<defs>
<clipPath id="clip0_1929_19654">
<rect width="145.743" height="100" fill="white"/>
</clipPath>
</defs>
</svg>
