<svg width="25" height="20" viewBox="0 0 25 20" fill="none" xmlns="http://www.w3.org/2000/svg">
<path d="M7.74175 19.9997C9.63148 20.0116 11.5048 19.6482 13.2529 18.9305C15.0011 18.2128 16.5894 17.1551 17.9257 15.8189C19.2619 14.4826 20.3196 12.8943 21.0373 11.1461C21.755 9.39797 22.1184 7.52469 22.1065 5.63496V4.9749C23.0861 4.25721 23.9339 3.37528 24.6125 2.36821C23.6901 2.77163 22.7141 3.03918 21.7149 3.16252C22.7743 2.5313 23.5692 1.53772 23.9524 0.365645C22.9652 0.957957 21.8826 1.37435 20.7528 1.59627C19.992 0.785586 18.9852 0.248239 17.8882 0.0673704C16.7912 -0.113498 15.6652 0.0721963 14.6844 0.595721C13.7036 1.11924 12.9227 1.95142 12.4624 2.96347C12.0022 3.97552 11.8883 5.11105 12.1384 6.19434C10.1314 6.09582 8.16768 5.57569 6.37504 4.66781C4.5824 3.75992 3.00109 2.48465 1.73406 0.92502C1.09517 2.0339 0.901519 3.34412 1.19232 4.59041C1.48312 5.83669 2.23664 6.92591 3.30031 7.63752C2.51564 7.60726 1.74911 7.39263 1.06281 7.01102V7.06696C1.05584 8.2258 1.44623 9.35203 2.16893 10.2579C2.89162 11.1638 3.90295 11.7947 5.03438 12.0454C4.30455 12.2417 3.54005 12.2723 2.79688 12.1349C3.12443 13.1232 3.7497 13.986 4.58693 14.6049C5.42416 15.2238 6.43236 15.5685 7.47325 15.5918C5.69356 17.0244 3.48165 17.813 1.19706 17.8293C0.796498 17.8177 0.396874 17.7841 0 17.7287C2.31241 19.2019 4.99993 19.9787 7.74175 19.9662" fill="white"/>
</svg>
