<svg width="314" height="200" viewBox="0 0 314 200" fill="none" xmlns="http://www.w3.org/2000/svg">
<g clip-path="url(#clip0_1204_21247)">
<path d="M27.5547 96.9461C34.2167 96.9461 39.6172 91.5455 39.6172 84.8836C39.6172 78.2216 34.2167 72.821 27.5547 72.821C20.8928 72.821 15.4922 78.2216 15.4922 84.8836C15.4922 91.5455 20.8928 96.9461 27.5547 96.9461Z" fill="white"/>
<path d="M28.9792 98.5822C27.853 98.5822 26.8033 98.4015 25.8301 98.04C24.8707 97.6646 24.0365 97.1363 23.3274 96.455C22.6184 95.7737 22.0622 94.9743 21.659 94.0567C21.2697 93.139 21.0751 92.131 21.0751 91.0326C21.0751 89.9343 21.2697 88.9263 21.659 88.0086C22.0622 87.091 22.6184 86.2916 23.3274 85.6103C24.0504 84.929 24.8916 84.4076 25.8509 84.0462C26.8103 83.6708 27.86 83.4831 29 83.4831C30.2653 83.4831 31.4053 83.7055 32.4203 84.1504C33.4492 84.5814 34.3112 85.221 35.0063 86.0691L32.8374 88.0712C32.3369 87.5012 31.7807 87.0771 31.169 86.799C30.5572 86.5071 29.8899 86.3611 29.1669 86.3611C28.4856 86.3611 27.86 86.4723 27.2899 86.6948C26.7199 86.9172 26.2263 87.237 25.8092 87.6541C25.3921 88.0712 25.0654 88.5648 24.829 89.1348C24.6066 89.7049 24.4953 90.3375 24.4953 91.0326C24.4953 91.7278 24.6066 92.3604 24.829 92.9305C25.0654 93.5005 25.3921 93.9941 25.8092 94.4112C26.2263 94.8283 26.7199 95.1481 27.2899 95.3705C27.86 95.593 28.4856 95.7042 29.1669 95.7042C29.8899 95.7042 30.5572 95.5652 31.169 95.2871C31.7807 94.9951 32.3369 94.5572 32.8374 93.9732L35.0063 95.9753C34.3112 96.8234 33.4492 97.47 32.4203 97.9149C31.4053 98.3598 30.2583 98.5822 28.9792 98.5822ZM22.9938 116.012C22.4376 116.012 21.9579 115.824 21.5547 115.449C21.1654 115.059 20.9708 114.566 20.9708 113.968C20.9708 113.37 21.1654 112.89 21.5547 112.529C21.9579 112.154 22.4376 111.966 22.9938 111.966C23.5638 111.966 24.0435 112.154 24.4328 112.529C24.8221 112.89 25.0167 113.37 25.0167 113.968C25.0167 114.566 24.8221 115.059 24.4328 115.449C24.0435 115.824 23.5638 116.012 22.9938 116.012ZM22.9938 123.499C22.4376 123.499 21.9579 123.311 21.5547 122.936C21.1654 122.546 20.9708 122.053 20.9708 121.455C20.9708 120.857 21.1654 120.377 21.5547 120.016C21.9579 119.641 22.4376 119.453 22.9938 119.453C23.5638 119.453 24.0435 119.641 24.4328 120.016C24.8221 120.377 25.0167 120.857 25.0167 121.455C25.0167 122.053 24.8221 122.546 24.4328 122.936C24.0435 123.311 23.5638 123.499 22.9938 123.499ZM19.5735 150.417L26.4557 130.772H29.3546L22.4724 150.417H19.5735Z" fill="#B4CFFE"/>
<path d="M81.5742 30.0611C88.2362 30.0611 93.6368 24.6605 93.6368 17.9986C93.6368 11.3366 88.2362 5.93604 81.5742 5.93604C74.9123 5.93604 69.5117 11.3366 69.5117 17.9986C69.5117 24.6605 74.9123 30.0611 81.5742 30.0611Z" fill="white"/>
<path d="M85.0912 28.9715L75.1641 25.1967V22.4855L85.0912 18.7107V21.3176L76.1443 24.5711V23.1112L85.0912 26.3646V28.9715ZM82.7554 58.226H79.8565L72.9743 38.5804H75.8732L82.7554 58.226ZM75.1641 78.9715V76.3646L84.111 73.1112V74.5711L75.1641 71.3176V68.7107L85.0912 72.4855V75.1967L75.1641 78.9715Z" fill="#B4CFFE"/>
<path d="M297.918 115.929C304.58 115.929 309.981 110.529 309.981 103.867C309.981 97.2048 304.58 91.8043 297.918 91.8043C291.256 91.8043 285.855 97.2048 285.855 103.867C285.855 110.529 291.256 115.929 297.918 115.929Z" fill="white"/>
<path d="M296.956 121.055C295.663 121.055 294.683 120.728 294.016 120.074C293.348 119.435 293.015 118.517 293.015 117.321V113.547C293.015 113.213 292.931 112.97 292.764 112.817C292.597 112.65 292.375 112.567 292.097 112.567H291.409V110.022H292.097C292.375 110.022 292.597 109.939 292.764 109.772C292.931 109.605 293.015 109.362 293.015 109.042V105.267C293.015 104.058 293.348 103.133 294.016 102.493C294.683 101.854 295.663 101.534 296.956 101.534H298.166V104.078H297.79C297.29 104.078 296.908 104.211 296.643 104.475C296.393 104.739 296.268 105.121 296.268 105.622V108.959C296.268 109.57 296.185 110.05 296.018 110.398C295.851 110.745 295.587 110.995 295.225 111.148C294.878 111.301 294.426 111.413 293.87 111.482V111.107C294.426 111.162 294.878 111.273 295.225 111.44C295.587 111.593 295.851 111.844 296.018 112.191C296.185 112.539 296.268 113.018 296.268 113.63V116.967C296.268 117.467 296.393 117.85 296.643 118.114C296.908 118.378 297.29 118.51 297.79 118.51H298.166V121.055H296.956ZM301.203 117.176C300.647 117.176 300.167 116.988 299.764 116.612C299.375 116.223 299.18 115.73 299.18 115.132C299.18 114.534 299.375 114.054 299.764 113.693C300.167 113.317 300.647 113.13 301.203 113.13C301.773 113.13 302.253 113.317 302.642 113.693C303.031 114.054 303.226 114.534 303.226 115.132C303.226 115.73 303.031 116.223 302.642 116.612C302.253 116.988 301.773 117.176 301.203 117.176ZM293.056 142.176C292.5 142.176 292.02 141.988 291.617 141.612C291.228 141.223 291.033 140.73 291.033 140.132C291.033 139.534 291.228 139.054 291.617 138.693C292.02 138.317 292.5 138.13 293.056 138.13C293.626 138.13 294.106 138.317 294.495 138.693C294.885 139.054 295.079 139.534 295.079 140.132C295.079 140.73 294.885 141.223 294.495 141.612C294.106 141.988 293.626 142.176 293.056 142.176ZM298.514 142.176C297.958 142.176 297.479 141.988 297.075 141.612C296.686 141.223 296.491 140.73 296.491 140.132C296.491 139.534 296.686 139.054 297.075 138.693C297.479 138.317 297.958 138.13 298.514 138.13C299.084 138.13 299.564 138.317 299.953 138.693C300.343 139.054 300.537 139.534 300.537 140.132C300.537 140.73 300.343 141.223 299.953 141.612C299.564 141.988 299.084 142.176 298.514 142.176ZM291.847 171.055H290.637V168.51H291.012C291.513 168.51 291.888 168.378 292.139 168.114C292.403 167.85 292.535 167.467 292.535 166.967V163.63C292.535 163.018 292.618 162.539 292.785 162.191C292.966 161.844 293.23 161.593 293.578 161.44C293.925 161.273 294.377 161.162 294.933 161.107V161.482C294.377 161.413 293.925 161.301 293.578 161.148C293.23 160.995 292.966 160.745 292.785 160.398C292.618 160.05 292.535 159.57 292.535 158.959V155.622C292.535 155.121 292.403 154.739 292.139 154.475C291.888 154.211 291.513 154.078 291.012 154.078H290.637V151.534H291.847C293.154 151.534 294.134 151.854 294.787 152.493C295.455 153.133 295.788 154.058 295.788 155.267V159.042C295.788 159.362 295.872 159.605 296.039 159.772C296.205 159.939 296.428 160.022 296.706 160.022H297.394V162.567H296.706C296.428 162.567 296.205 162.65 296.039 162.817C295.872 162.97 295.788 163.213 295.788 163.547V167.321C295.788 168.517 295.455 169.435 294.787 170.074C294.134 170.728 293.154 171.055 291.847 171.055Z" fill="#B4CFFE"/>
<path d="M222.102 27.4033C223.617 25.8887 223.617 23.433 222.102 21.9184C220.588 20.4038 218.132 20.4038 216.617 21.9184C215.103 23.433 215.103 25.8887 216.617 27.4033C218.132 28.9179 220.588 28.9179 222.102 27.4033Z" fill="white"/>
<path d="M34.9357 181.657C36.3861 180.081 36.2841 177.628 34.7079 176.177C33.1317 174.727 30.6782 174.829 29.2278 176.405C27.7773 177.981 27.8793 180.435 29.4555 181.885C31.0317 183.336 33.4853 183.234 34.9357 181.657Z" fill="white"/>
<path d="M65.4626 57.823C68.0868 57.823 70.2142 55.6956 70.2142 53.0714C70.2142 50.4471 68.0868 48.3198 65.4626 48.3198C62.8383 48.3198 60.7109 50.4471 60.7109 53.0714C60.7109 55.6956 62.8383 57.823 65.4626 57.823Z" fill="#B4CFFE"/>
<path d="M193.77 15.2906C197.993 15.2906 201.416 11.8677 201.416 7.64532C201.416 3.42293 197.993 0 193.77 0C189.548 0 186.125 3.42293 186.125 7.64532C186.125 11.8677 189.548 15.2906 193.77 15.2906Z" fill="#B4CFFE"/>
<path d="M264.827 102.497C266.966 102.497 268.701 100.783 268.701 98.6693C268.701 96.5555 266.966 94.842 264.827 94.842C262.687 94.842 260.953 96.5555 260.953 98.6693C260.953 100.783 262.687 102.497 264.827 102.497Z" fill="#B4CFFE"/>
<path d="M291.079 182.419C291.092 183.456 290.797 184.472 290.23 185.34C289.664 186.208 288.853 186.888 287.899 187.293C286.945 187.699 285.893 187.812 284.875 187.617C283.857 187.423 282.92 186.931 282.183 186.202C281.445 185.474 280.941 184.543 280.734 183.528C280.527 182.513 280.627 181.459 281.02 180.5C281.414 179.542 282.084 178.722 282.944 178.144C283.805 177.567 284.818 177.259 285.854 177.259C286.536 177.255 287.212 177.385 287.844 177.642C288.475 177.899 289.05 178.278 289.535 178.757C290.021 179.236 290.407 179.806 290.672 180.435C290.937 181.063 291.075 181.738 291.079 182.419Z" fill="#B4CFFE"/>
<path d="M6.52614 98.6693C6.52614 99.3123 6.33546 99.9409 5.97819 100.476C5.62093 101.01 5.11314 101.427 4.51903 101.673C3.92492 101.919 3.27118 101.984 2.64048 101.858C2.00978 101.733 1.43045 101.423 0.975738 100.968C0.521028 100.514 0.211367 99.9343 0.085913 99.3036C-0.0395411 98.6729 0.0248456 98.0191 0.270933 97.425C0.51702 96.8309 0.933755 96.3231 1.46844 95.9659C2.00312 95.6086 2.63174 95.4179 3.27479 95.4179C4.1371 95.4179 4.9641 95.7605 5.57384 96.3702C6.18359 96.98 6.52614 97.8069 6.52614 98.6693Z" fill="#B4CFFE"/>
<path d="M63.4616 64.7344H248.287C250.23 64.7344 252.093 65.5062 253.466 66.8798C254.84 68.2535 255.612 70.1166 255.612 72.0593V188.918H56.1367V72.0593C56.1367 70.1166 56.9084 68.2535 58.2821 66.8798C59.6558 65.5062 61.5189 64.7344 63.4616 64.7344Z" fill="#3C4D77"/>
<g style="mix-blend-mode:soft-light">
<path d="M187.517 185.09H124.231C124.056 185.091 123.883 185.057 123.721 184.99C123.559 184.923 123.411 184.825 123.288 184.701C123.164 184.577 123.065 184.43 122.999 184.268C122.932 184.106 122.898 183.932 122.898 183.757C122.898 183.582 122.932 183.408 122.999 183.246C123.065 183.083 123.163 182.936 123.287 182.812C123.411 182.687 123.558 182.589 123.72 182.521C123.882 182.454 124.056 182.419 124.231 182.419H187.517C187.872 182.419 188.212 182.56 188.463 182.811C188.714 183.062 188.854 183.402 188.854 183.757C188.854 183.933 188.82 184.106 188.753 184.268C188.685 184.43 188.587 184.578 188.462 184.701C188.338 184.825 188.191 184.923 188.028 184.99C187.866 185.057 187.692 185.091 187.517 185.09Z" fill="white"/>
</g>
<path d="M61.7754 67.3076H249.968C250.566 67.3076 251.139 67.545 251.561 67.9674C251.984 68.3899 252.221 68.9629 252.221 69.5603V176.781C252.221 177.076 252.163 177.369 252.05 177.643C251.936 177.916 251.77 178.164 251.561 178.374C251.352 178.583 251.104 178.749 250.83 178.862C250.557 178.975 250.264 179.033 249.968 179.033H61.7754C61.1792 179.033 60.6074 178.797 60.1858 178.375C59.7642 177.953 59.5273 177.382 59.5273 176.785V69.5603C59.5267 69.2647 59.5844 68.9719 59.6971 68.6986C59.8098 68.4253 59.9753 68.1769 60.1842 67.9677C60.393 67.7585 60.641 67.5924 60.914 67.4792C61.1871 67.3659 61.4798 67.3076 61.7754 67.3076Z" fill="#383C56"/>
<path d="M248.35 69.1377H63.3991C62.3114 69.1377 61.4297 70.0194 61.4297 71.1071V175.476C61.4297 176.563 62.3114 177.445 63.3991 177.445H248.35C249.438 177.445 250.319 176.563 250.319 175.476V71.1071C250.319 70.0194 249.438 69.1377 248.35 69.1377Z" fill="white"/>
<path d="M125.792 138.517H91.4022C89.8425 138.517 88.5781 139.781 88.5781 141.341V162.289C88.5781 163.849 89.8425 165.113 91.4022 165.113H125.792C127.352 165.113 128.616 163.849 128.616 162.289V141.341C128.616 139.781 127.352 138.517 125.792 138.517Z" fill="#DEE9FE"/>
<path d="M250.319 69.1377H134.496V177.445H250.319V69.1377Z" fill="#FF6C37"/>
<g style="mix-blend-mode:soft-light">
<path d="M195.432 166.506H142.416C142.093 166.506 141.784 166.378 141.556 166.15C141.327 165.922 141.199 165.612 141.199 165.29C141.199 164.967 141.327 164.657 141.556 164.429C141.784 164.201 142.093 164.073 142.416 164.073H195.432C195.754 164.074 196.063 164.202 196.291 164.43C196.519 164.658 196.647 164.967 196.649 165.29C196.649 165.612 196.521 165.922 196.292 166.15C196.064 166.378 195.755 166.506 195.432 166.506Z" fill="white"/>
</g>
<g style="mix-blend-mode:soft-light">
<path d="M195.432 172.888H142.416C142.093 172.888 141.784 172.76 141.556 172.532C141.327 172.304 141.199 171.994 141.199 171.671C141.199 171.349 141.327 171.039 141.556 170.811C141.784 170.583 142.093 170.454 142.416 170.454H195.432C195.755 170.454 196.064 170.583 196.292 170.811C196.521 171.039 196.649 171.349 196.649 171.671C196.649 171.994 196.521 172.304 196.292 172.532C196.064 172.76 195.755 172.888 195.432 172.888Z" fill="white"/>
</g>
<g style="mix-blend-mode:soft-light">
<path d="M229.188 79.5838H188.551C187.153 79.5838 186.02 80.7172 186.02 82.1152V95.7755C186.02 97.1736 187.153 98.3069 188.551 98.3069H229.188C230.586 98.3069 231.72 97.1736 231.72 95.7755V82.1152C231.72 80.7172 230.586 79.5838 229.188 79.5838Z" fill="white"/>
</g>
<path d="M85.0921 75.3199H69.2115C67.8391 75.3199 66.7266 76.4325 66.7266 77.8049V91.9622C66.7266 93.3346 67.8391 94.4472 69.2115 94.4472H85.0921C86.4645 94.4472 87.577 93.3346 87.577 91.9622V77.8049C87.577 76.4325 86.4645 75.3199 85.0921 75.3199Z" fill="#FF6C37"/>
<path d="M85.7702 101.224H67.3908C67.0239 101.224 66.7266 101.521 66.7266 101.888V101.893C66.7266 102.26 67.0239 102.557 67.3908 102.557H85.7702C86.137 102.557 86.4344 102.26 86.4344 101.893V101.888C86.4344 101.521 86.137 101.224 85.7702 101.224Z" fill="#DEE9FE"/>
<path d="M95.2874 97.7682H67.3908C67.0239 97.7682 66.7266 98.0656 66.7266 98.4324V98.437C66.7266 98.8039 67.0239 99.1012 67.3908 99.1012H95.2874C95.6542 99.1012 95.9516 98.8039 95.9516 98.437V98.4324C95.9516 98.0656 95.6542 97.7682 95.2874 97.7682Z" fill="#DEE9FE"/>
<path d="M44.2373 188.918H268.813V190.729C268.813 193.193 267.834 195.556 266.092 197.298C264.35 199.04 261.987 200.019 259.523 200.019H53.5083C51.0446 200.019 48.6817 199.04 46.9396 197.298C45.1975 195.556 44.2188 193.193 44.2188 190.729V188.918H44.2373Z" fill="#383C56"/>
<path d="M197.553 22.2857H110.352C106.999 22.2857 104.281 25.0037 104.281 28.3564V152.972C104.281 156.324 106.999 159.042 110.352 159.042H197.553C200.906 159.042 203.624 156.324 203.624 152.972V28.3564C203.624 25.0037 200.906 22.2857 197.553 22.2857Z" fill="#407BFF"/>
<path d="M104.281 152.971C104.281 154.582 104.921 156.126 106.059 157.264C107.198 158.403 108.742 159.042 110.352 159.042H197.553C199.163 159.042 200.707 158.403 201.846 157.264C202.984 156.126 203.624 154.582 203.624 152.971H104.281Z" fill="#7BA9FA"/>
<path d="M150.314 156.005C150.315 156.22 150.252 156.431 150.133 156.61C150.014 156.79 149.844 156.93 149.646 157.012C149.447 157.095 149.228 157.117 149.017 157.075C148.805 157.034 148.611 156.93 148.459 156.778C148.307 156.625 148.203 156.431 148.161 156.22C148.119 156.009 148.141 155.79 148.224 155.591C148.307 155.392 148.447 155.223 148.627 155.104C148.806 154.984 149.017 154.921 149.232 154.922C149.519 154.922 149.794 155.036 149.997 155.239C150.2 155.442 150.314 155.718 150.314 156.005Z" fill="white"/>
<path d="M155.041 156.005C155.042 156.22 154.979 156.43 154.86 156.61C154.741 156.789 154.572 156.929 154.373 157.012C154.175 157.095 153.956 157.117 153.745 157.076C153.534 157.034 153.34 156.931 153.187 156.779C153.035 156.628 152.931 156.434 152.888 156.223C152.846 156.012 152.867 155.793 152.949 155.594C153.032 155.395 153.171 155.225 153.35 155.106C153.529 154.986 153.739 154.922 153.954 154.922C154.242 154.922 154.517 155.036 154.721 155.239C154.925 155.442 155.04 155.717 155.041 156.005Z" fill="white"/>
<path d="M159.778 156.005C159.778 156.219 159.714 156.428 159.595 156.606C159.476 156.784 159.307 156.922 159.11 157.004C158.912 157.086 158.694 157.108 158.484 157.066C158.274 157.024 158.082 156.921 157.93 156.77C157.779 156.618 157.676 156.426 157.634 156.216C157.592 156.006 157.614 155.788 157.696 155.59C157.778 155.393 157.916 155.224 158.094 155.105C158.272 154.986 158.481 154.922 158.696 154.922C158.983 154.922 159.258 155.036 159.461 155.239C159.664 155.442 159.778 155.718 159.778 156.005Z" fill="white"/>
<path d="M135.88 51.24C133.893 51.24 132.34 50.6867 131.22 49.58C130.1 48.4733 129.54 46.8933 129.54 44.84V37H132.78V44.72C132.78 46.0533 133.053 47.0133 133.6 47.6C134.147 48.1867 134.913 48.48 135.9 48.48C136.887 48.48 137.653 48.1867 138.2 47.6C138.747 47.0133 139.02 46.0533 139.02 44.72V37H142.22V44.84C142.22 46.8933 141.66 48.4733 140.54 49.58C139.42 50.6867 137.867 51.24 135.88 51.24ZM145.422 51V37H148.662V51H145.422ZM149.664 53L156.264 34.16H159.044L152.444 53H149.664ZM166.036 51.24C164.05 51.24 162.496 50.6867 161.376 49.58C160.256 48.4733 159.696 46.8933 159.696 44.84V37H162.936V44.72C162.936 46.0533 163.21 47.0133 163.756 47.6C164.303 48.1867 165.07 48.48 166.056 48.48C167.043 48.48 167.81 48.1867 168.356 47.6C168.903 47.0133 169.176 46.0533 169.176 44.72V37H172.376V44.84C172.376 46.8933 171.816 48.4733 170.696 49.58C169.576 50.6867 168.023 51.24 166.036 51.24ZM173.783 51L179.803 42.7V45.06L174.043 37H177.723L181.703 42.62L180.163 42.64L184.083 37H187.603L181.883 44.92V42.6L187.943 51H184.203L180.083 45.06H181.563L177.503 51H173.783Z" fill="white"/>
<path d="M201.42 28.0267C201.427 28.6967 201.234 29.3536 200.867 29.9142C200.5 30.4747 199.975 30.9138 199.358 31.1757C198.741 31.4377 198.061 31.5107 197.402 31.3856C196.744 31.2605 196.138 30.9429 195.66 30.473C195.182 30.0031 194.855 29.4021 194.719 28.7459C194.583 28.0898 194.645 27.408 194.896 26.787C195.148 26.166 195.579 25.6337 196.133 25.2574C196.687 24.8811 197.341 24.6777 198.011 24.6731C198.908 24.6669 199.77 25.0165 200.409 25.6451C201.048 26.2738 201.412 27.1302 201.42 28.0267Z" fill="#FF6C37"/>
<path d="M200.117 26.8097L199.281 25.9736L198.041 27.2138L196.801 25.9736L195.965 26.8097L197.205 28.0499L195.965 29.29L196.801 30.1261L198.041 28.8859L199.281 30.1261L200.117 29.29L198.877 28.0499L200.117 26.8097Z" fill="#FEFEFE"/>
<path d="M190.154 100.95H119.07C117.159 100.95 115.609 102.499 115.609 104.41V129.385C115.609 131.296 117.159 132.846 119.07 132.846H190.154C192.065 132.846 193.614 131.296 193.614 129.385V104.41C193.614 102.499 192.065 100.95 190.154 100.95Z" fill="#7BA9FA"/>
<path d="M123.572 111.285C125.668 111.285 127.367 109.586 127.367 107.49C127.367 105.394 125.668 103.695 123.572 103.695C121.476 103.695 119.777 105.394 119.777 107.49C119.777 109.586 121.476 111.285 123.572 111.285Z" fill="#FF6C37"/>
<path d="M188.463 108.474H131.216C131.086 108.475 130.958 108.45 130.838 108.401C130.718 108.352 130.609 108.279 130.517 108.188C130.425 108.096 130.352 107.987 130.302 107.868C130.252 107.748 130.227 107.619 130.227 107.49C130.227 107.227 130.331 106.976 130.516 106.79C130.702 106.605 130.954 106.5 131.216 106.5H188.463C188.593 106.5 188.721 106.526 188.841 106.576C188.961 106.626 189.069 106.698 189.161 106.79C189.252 106.882 189.325 106.991 189.374 107.111C189.423 107.231 189.448 107.36 189.448 107.49C189.448 107.751 189.344 108.001 189.159 108.186C188.975 108.371 188.724 108.474 188.463 108.474Z" fill="white"/>
<path d="M125.031 120.397C126.966 119.591 127.881 117.369 127.075 115.434C126.269 113.5 124.047 112.585 122.112 113.391C120.178 114.197 119.263 116.419 120.069 118.353C120.875 120.288 123.097 121.203 125.031 120.397Z" fill="#FF6C37"/>
<path d="M188.463 117.885H131.216C131.086 117.885 130.958 117.86 130.838 117.811C130.718 117.762 130.609 117.689 130.517 117.598C130.425 117.506 130.352 117.398 130.302 117.278C130.252 117.158 130.227 117.03 130.227 116.9C130.227 116.638 130.331 116.386 130.516 116.2C130.702 116.015 130.954 115.911 131.216 115.911H188.463C188.593 115.911 188.721 115.936 188.841 115.986C188.961 116.036 189.069 116.109 189.161 116.201C189.252 116.293 189.325 116.402 189.374 116.522C189.423 116.642 189.448 116.77 189.448 116.9C189.448 117.029 189.422 117.157 189.373 117.277C189.323 117.396 189.251 117.505 189.159 117.596C189.068 117.688 188.959 117.76 188.84 117.81C188.72 117.859 188.592 117.885 188.463 117.885Z" fill="white"/>
<path d="M127.315 126.917C127.652 124.849 126.248 122.899 124.179 122.562C122.11 122.226 120.161 123.63 119.824 125.699C119.488 127.767 120.892 129.717 122.96 130.053C125.029 130.39 126.979 128.986 127.315 126.917Z" fill="#FF6C37"/>
<path d="M188.463 127.295H131.216C131.086 127.296 130.958 127.271 130.838 127.221C130.718 127.172 130.609 127.1 130.517 127.008C130.425 126.917 130.352 126.808 130.302 126.688C130.252 126.569 130.227 126.44 130.227 126.31C130.227 126.048 130.331 125.796 130.516 125.611C130.702 125.425 130.954 125.321 131.216 125.321H188.463C188.593 125.321 188.721 125.347 188.841 125.396C188.961 125.446 189.069 125.519 189.161 125.611C189.252 125.703 189.325 125.812 189.374 125.932C189.423 126.052 189.448 126.181 189.448 126.31C189.448 126.572 189.344 126.822 189.159 127.007C188.975 127.191 188.724 127.295 188.463 127.295Z" fill="white"/>
<path d="M191.482 80.6289H117.741C116.564 80.6289 115.609 81.5834 115.609 82.7609V90.6013C115.609 91.7787 116.564 92.7332 117.741 92.7332H191.482C192.659 92.7332 193.614 91.7787 193.614 90.6013V82.7609C193.614 81.5834 192.659 80.6289 191.482 80.6289Z" fill="#7BA9FA"/>
<path d="M154.846 85.4363H118.937C118.658 85.4363 118.389 85.3252 118.192 85.1274C117.994 84.9297 117.883 84.6615 117.883 84.3819C117.883 84.2434 117.91 84.1063 117.963 83.9784C118.016 83.8505 118.094 83.7342 118.192 83.6363C118.29 83.5384 118.406 83.4608 118.534 83.4078C118.662 83.3548 118.799 83.3275 118.937 83.3275H154.846C154.985 83.3275 155.122 83.3548 155.25 83.4078C155.377 83.4608 155.494 83.5384 155.592 83.6363C155.69 83.7342 155.767 83.8505 155.82 83.9784C155.873 84.1063 155.9 84.2434 155.9 84.3819C155.9 84.6615 155.789 84.9297 155.592 85.1274C155.394 85.3252 155.126 85.4363 154.846 85.4363Z" fill="white"/>
<path d="M190.434 88.0559H118.798C118.292 88.0559 117.883 88.4656 117.883 88.9709V89.1196C117.883 89.6249 118.292 90.0346 118.798 90.0346H190.434C190.94 90.0346 191.349 89.6249 191.349 89.1196V88.9709C191.349 88.4656 190.94 88.0559 190.434 88.0559Z" fill="white"/>
<path d="M161.215 146.998H146.686C145.561 146.998 144.483 146.552 143.687 145.756C142.892 144.961 142.445 143.882 142.445 142.758C142.445 141.633 142.892 140.554 143.687 139.759C144.483 138.964 145.561 138.517 146.686 138.517H161.215C162.34 138.517 163.418 138.964 164.214 139.759C165.009 140.554 165.456 141.633 165.456 142.758C165.456 143.882 165.009 144.961 164.214 145.756C163.418 146.552 162.34 146.998 161.215 146.998Z" fill="white"/>
<path d="M193.055 70.3128H116.481C116.086 70.3128 115.766 70.6331 115.766 71.0281C115.766 71.4231 116.086 71.7434 116.481 71.7434H193.055C193.45 71.7434 193.77 71.4231 193.77 71.0281C193.77 70.6331 193.45 70.3128 193.055 70.3128Z" fill="#B4CFFE"/>
<path d="M38.1244 19.7682H5.1232C2.29374 19.7682 0 22.062 0 24.8915V57.8927C0 60.7222 2.29374 63.0159 5.1232 63.0159H38.1244C40.9539 63.0159 43.2476 60.7222 43.2476 57.8927V24.8915C43.2476 22.062 40.9539 19.7682 38.1244 19.7682Z" fill="#7BA9FA"/>
<path d="M41.3948 24.2783C41.3948 24.7377 41.2586 25.1867 41.0034 25.5686C40.7482 25.9505 40.3855 26.2482 39.9611 26.4239C39.5368 26.5997 39.0698 26.6457 38.6193 26.5561C38.1688 26.4665 37.755 26.2453 37.4302 25.9205C37.1054 25.5957 36.8842 25.1819 36.7946 24.7314C36.705 24.2809 36.751 23.8139 36.9268 23.3896C37.1026 22.9652 37.4002 22.6025 37.7821 22.3473C38.1641 22.0921 38.6131 21.9559 39.0724 21.9559C39.6883 21.9559 40.279 22.2006 40.7146 22.6361C41.1501 23.0717 41.3948 23.6624 41.3948 24.2783Z" fill="#FF6C37"/>
<path d="M40.4933 23.4422L39.9173 22.8663L39.0673 23.7163L38.2127 22.8663L37.6367 23.4422L38.4914 24.2922L37.6367 25.1469L38.2127 25.7228L39.0673 24.8682L39.9173 25.7228L40.4933 25.1469L39.6386 24.2922L40.4933 23.4422Z" fill="#FEFEFE"/>
<path d="M33.841 53.6103C40.5887 46.8626 40.5887 35.9223 33.841 29.1746C27.0933 22.4269 16.153 22.4269 9.40533 29.1746C2.65761 35.9223 2.65761 46.8626 9.40533 53.6103C16.153 60.358 27.0933 60.358 33.841 53.6103Z" fill="#407BFF"/>
<path d="M26.0082 35.5234C26.0082 36.3933 25.7502 37.2438 25.2669 37.9671C24.7835 38.6905 24.0966 39.2542 23.2928 39.5872C22.4891 39.9201 21.6047 40.0072 20.7514 39.8375C19.8982 39.6677 19.1144 39.2488 18.4993 38.6337C17.8841 38.0185 17.4652 37.2347 17.2955 36.3815C17.1257 35.5283 17.2128 34.6438 17.5458 33.8401C17.8787 33.0364 18.4425 32.3494 19.1658 31.8661C19.8892 31.3827 20.7396 31.1248 21.6096 31.1248C22.7761 31.1248 23.8949 31.5882 24.7198 32.4131C25.5447 33.238 26.0082 34.3568 26.0082 35.5234Z" fill="white"/>
<path d="M29.9416 48.0039H13.3086C13.3079 46.9022 13.5269 45.8114 13.9528 44.7953C14.3786 43.7793 15.0029 42.8583 15.7889 42.0864C16.263 41.632 16.8973 41.3832 17.5539 41.3943H25.6962C26.3551 41.3832 26.9915 41.6338 27.4659 42.0911C28.2506 42.8628 28.8736 43.7832 29.2987 44.7984C29.7237 45.8136 29.9423 46.9033 29.9416 48.0039Z" fill="white"/>
<path d="M48.2383 39.3971H88.5876C91.1561 39.3971 95.4293 39.3971 95.4293 45.8069V77.1964" stroke="#7BA9FA" stroke-width="2" stroke-miterlimit="10"/>
<path d="M97.2225 77.1964C97.2234 76.8416 97.119 76.4945 96.9226 76.1991C96.7262 75.9036 96.4465 75.6731 96.1189 75.5367C95.7914 75.4003 95.4308 75.3641 95.0827 75.4328C94.7346 75.5014 94.4147 75.6718 94.1635 75.9223C93.9123 76.1729 93.7411 76.4924 93.6715 76.8403C93.602 77.1882 93.6372 77.5489 93.7728 77.8768C93.9083 78.2047 94.1381 78.485 94.433 78.6822C94.728 78.8794 95.0748 78.9846 95.4296 78.9846C95.9043 78.9846 96.3596 78.7964 96.6957 78.4612C97.0318 78.1259 97.2213 77.6711 97.2225 77.1964Z" fill="#7BA9FA"/>
<path d="M50.3358 39.3971C50.3367 39.0423 50.2323 38.6952 50.0359 38.3997C49.8394 38.1043 49.5597 37.8738 49.2322 37.7374C48.9047 37.6009 48.5441 37.5648 48.196 37.6334C47.8479 37.7021 47.528 37.8725 47.2768 38.123C47.0256 38.3736 46.8543 38.693 46.7848 39.041C46.7152 39.3889 46.7505 39.7496 46.886 40.0775C47.0216 40.4053 47.2514 40.6856 47.5463 40.8828C47.8413 41.0801 48.1881 41.1853 48.5429 41.1853C49.0176 41.1853 49.4729 40.9971 49.809 40.6618C50.1451 40.3266 50.3345 39.8718 50.3358 39.3971Z" fill="#7BA9FA"/>
<path d="M291.322 10.9849H238.33C234.687 10.9849 231.734 13.9379 231.734 17.5805V78.483C231.734 82.1257 234.687 85.0786 238.33 85.0786H291.322C294.965 85.0786 297.918 82.1257 297.918 78.483V17.5805C297.918 13.9379 294.965 10.9849 291.322 10.9849Z" fill="#7BA9FA"/>
<path d="M291.047 24.3062H238.608C236.863 24.3062 235.449 25.7203 235.449 27.4647V60.8607C235.449 62.6051 236.863 64.0192 238.608 64.0192H291.047C292.792 64.0192 294.206 62.6051 294.206 60.8607V27.4647C294.206 25.7203 292.792 24.3062 291.047 24.3062Z" fill="#407BFF"/>
<path d="M247.582 59.221L248.232 58.9656" stroke="#EBAC3B" stroke-width="0.75" stroke-linecap="round" stroke-linejoin="round"/>
<path d="M249.562 58.4454L256.242 55.8164L264.83 59.221L273.869 55.8164L280.771 58.6822" stroke="#FF6C37" stroke-width="0.75" stroke-linecap="round" stroke-linejoin="round" stroke-dasharray="3.07 3.07"/>
<path d="M281.43 58.9563L282.071 59.2211" stroke="#EBAC3B" stroke-width="0.75" stroke-linecap="round" stroke-linejoin="round"/>
<path d="M273.867 38.993C273.867 43.9862 264.829 57.0752 264.829 57.0752C264.829 57.0752 255.785 43.9862 255.785 38.993C255.839 36.6306 256.815 34.3831 258.504 32.7312C260.194 31.0794 262.463 30.1545 264.826 30.1545C267.189 30.1545 269.458 31.0794 271.148 32.7312C272.838 34.3831 273.814 36.6306 273.867 38.993Z" fill="white"/>
<path d="M269.215 42.2309C271.03 39.802 270.532 36.3617 268.104 34.5466C265.675 32.7316 262.234 33.2292 260.419 35.6581C258.604 38.0869 259.102 41.5273 261.531 43.3423C263.96 45.1574 267.4 44.6598 269.215 42.2309Z" fill="#407BFF"/>
<path d="M252.066 48.1108C252.066 50.5864 247.584 57.0752 247.584 57.0752C247.584 57.0752 243.102 50.5725 243.102 48.1108C243.102 46.922 243.574 45.7819 244.414 44.9414C245.255 44.1008 246.395 43.6285 247.584 43.6285C248.773 43.6285 249.913 44.1008 250.753 44.9414C251.594 45.7819 252.066 46.922 252.066 48.1108Z" fill="#7BA9FA"/>
<path d="M247.581 50.8186C249.084 50.8186 250.303 49.6 250.303 48.0968C250.303 46.5936 249.084 45.3749 247.581 45.3749C246.078 45.3749 244.859 46.5936 244.859 48.0968C244.859 49.6 246.078 50.8186 247.581 50.8186Z" fill="#407BFF"/>
<path d="M286.55 48.1108C286.55 50.5864 282.068 57.0752 282.068 57.0752C282.068 57.0752 277.586 50.5725 277.586 48.1108C277.586 46.922 278.058 45.7819 278.899 44.9414C279.739 44.1008 280.879 43.6285 282.068 43.6285C283.257 43.6285 284.397 44.1008 285.238 44.9414C286.078 45.7819 286.55 46.922 286.55 48.1108Z" fill="#7BA9FA"/>
<path d="M282.07 50.8186C283.573 50.8186 284.791 49.6 284.791 48.0968C284.791 46.5936 283.573 45.3749 282.07 45.3749C280.566 45.3749 279.348 46.5936 279.348 48.0968C279.348 49.6 280.566 50.8186 282.07 50.8186Z" fill="#407BFF"/>
<path d="M293.969 17.9445C295.139 17.4132 295.657 16.0338 295.126 14.8636C294.594 13.6934 293.215 13.1754 292.045 13.7068C290.874 14.2381 290.357 15.6175 290.888 16.7877C291.419 17.9579 292.799 18.4758 293.969 17.9445Z" fill="#FF6C37"/>
<path d="M294.439 14.9702L293.863 14.3942L293.009 15.2489L292.154 14.3942L291.578 14.9702L292.433 15.8248L291.578 16.6795L292.154 17.2508L293.009 16.3961L293.863 17.2508L294.439 16.6795L293.585 15.8248L294.439 14.9702Z" fill="#FEFEFE"/>
<path d="M274.777 20.4928L236.648 20.4278C236.329 20.4266 236.025 20.2993 235.8 20.0738C235.575 19.8483 235.449 19.5431 235.449 19.2248C235.449 19.0666 235.479 18.9099 235.54 18.7637C235.6 18.6175 235.688 18.4846 235.8 18.3728C235.912 18.2609 236.045 18.1724 236.191 18.1121C236.337 18.0519 236.494 18.0212 236.652 18.0218L274.781 18.0868C275.1 18.0868 275.406 18.2136 275.632 18.4392C275.858 18.6648 275.984 18.9708 275.984 19.2898C275.983 19.6093 275.855 19.9153 275.629 20.1408C275.403 20.3662 275.096 20.4928 274.777 20.4928Z" fill="white"/>
<path d="M293.045 70.0202L236.606 69.9506C236.454 69.9506 236.303 69.9206 236.163 69.8625C236.023 69.8044 235.895 69.7192 235.788 69.6118C235.681 69.5044 235.595 69.3769 235.537 69.2366C235.479 69.0963 235.449 68.9459 235.449 68.794V68.7058C235.449 68.3978 235.572 68.1024 235.789 67.8847C236.007 67.6669 236.302 67.5446 236.61 67.5446L293.045 67.6096C293.352 67.6108 293.647 67.7335 293.864 67.951C294.082 68.1685 294.205 68.4632 294.206 68.7708V68.859C294.206 69.0115 294.176 69.1625 294.117 69.3034C294.059 69.4443 293.974 69.5723 293.866 69.6801C293.758 69.7879 293.63 69.8735 293.489 69.9318C293.348 69.9902 293.197 70.0202 293.045 70.0202Z" fill="white"/>
<path d="M255.073 75.7008L236.606 75.6404C236.299 75.6392 236.004 75.5163 235.788 75.2986C235.571 75.081 235.449 74.7864 235.449 74.4792C235.449 74.1712 235.572 73.8759 235.789 73.6581C236.007 73.4403 236.302 73.318 236.61 73.318L255.083 73.3784C255.39 73.3808 255.683 73.5041 255.9 73.7215C256.116 73.9388 256.238 74.2328 256.239 74.5396C256.238 74.848 256.115 75.1433 255.896 75.3609C255.678 75.5786 255.382 75.7008 255.073 75.7008Z" fill="white"/>
<path d="M216.586 60.9443V85.2923" stroke="white" stroke-width="2" stroke-miterlimit="10"/>
<path d="M226.198 37.0051H219.788C216.602 37.0051 216.602 38.928 216.602 40.0938V69.1377" stroke="#7BA9FA" stroke-width="2" stroke-miterlimit="10"/>
<path d="M216.587 87.0805C216.232 87.0814 215.884 86.977 215.589 86.7803C215.293 86.5837 215.063 86.3037 214.926 85.9759C214.79 85.6481 214.754 85.2872 214.823 84.939C214.892 84.5908 215.063 84.2709 215.314 84.0199C215.565 83.7689 215.885 83.598 216.233 83.529C216.582 83.4599 216.942 83.4958 217.27 83.6321C217.598 83.7684 217.878 83.9989 218.075 84.2945C218.271 84.59 218.376 84.9373 218.375 85.2923C218.375 85.7665 218.186 86.2214 217.851 86.5568C217.516 86.8921 217.061 87.0805 216.587 87.0805Z" fill="white"/>
<path d="M226.199 39.1323C225.845 39.1323 225.498 39.0272 225.203 38.8302C224.908 38.6332 224.678 38.3532 224.543 38.0256C224.407 37.698 224.372 37.3375 224.441 36.9897C224.51 36.6419 224.681 36.3224 224.931 36.0717C225.182 35.821 225.502 35.6502 225.849 35.581C226.197 35.5118 226.558 35.5473 226.885 35.683C227.213 35.8187 227.493 36.0485 227.69 36.3434C227.887 36.6382 227.992 36.9849 227.992 37.3395C227.993 37.5751 227.947 37.8085 227.857 38.0263C227.767 38.2441 227.635 38.442 227.468 38.6086C227.302 38.7752 227.104 38.9072 226.886 38.9971C226.668 39.087 226.435 39.133 226.199 39.1323Z" fill="#7BA9FA"/>
<path d="M78.2136 107.183H10.5622C8.52798 107.183 6.87891 108.832 6.87891 110.866V154.36C6.87891 156.395 8.52798 158.044 10.5622 158.044H78.2136C80.2478 158.044 81.8969 156.395 81.8969 154.36V110.866C81.8969 108.832 80.2478 107.183 78.2136 107.183Z" fill="#7BA9FA"/>
<path d="M76.0575 117.546H12.7212C11.5052 117.546 10.5195 118.531 10.5195 119.747V152.869C10.5195 154.085 11.5052 155.071 12.7212 155.071H76.0575C77.2734 155.071 78.2591 154.085 78.2591 152.869V119.747C78.2591 118.531 77.2734 117.546 76.0575 117.546Z" fill="#407BFF"/>
<path d="M66.9102 122.906H70.3891V137.305C70.3891 137.767 70.2056 138.21 69.8789 138.536C69.5523 138.863 69.1093 139.046 68.6473 139.046C68.4188 139.046 68.1925 139.001 67.9815 138.914C67.7704 138.826 67.5787 138.698 67.4173 138.536C67.256 138.374 67.1281 138.182 67.0411 137.971C66.954 137.76 66.9096 137.533 66.9102 137.305V122.906Z" fill="#7BA9FA"/>
<path d="M57.2305 122.906H60.7141V135.999C60.7141 136.461 60.5305 136.904 60.2039 137.231C59.8772 137.558 59.4342 137.741 58.9723 137.741C58.5103 137.741 58.0673 137.558 57.7406 137.231C57.414 136.904 57.2305 136.461 57.2305 135.999V122.906Z" fill="#7BA9FA"/>
<path d="M47.5547 127.551H51.0336V144.272C51.0343 144.5 50.9897 144.726 50.9026 144.937C50.8156 145.148 50.6876 145.34 50.5262 145.501C50.3648 145.663 50.173 145.791 49.962 145.878C49.751 145.965 49.5248 146.01 49.2965 146.009C49.068 146.01 48.8416 145.965 48.6303 145.878C48.419 145.791 48.2269 145.663 48.0651 145.502C47.9033 145.34 47.775 145.149 47.6874 144.938C47.5998 144.727 47.5547 144.5 47.5547 144.272V127.551Z" fill="#7BA9FA"/>
<path d="M37.875 122.906H41.3586V150.082C41.3586 150.544 41.1751 150.987 40.8484 151.314C40.5218 151.641 40.0787 151.824 39.6168 151.824C39.1548 151.824 38.7118 151.641 38.3852 151.314C38.0585 150.987 37.875 150.544 37.875 150.082V122.906Z" fill="#7BA9FA"/>
<path d="M28.1992 122.906H31.6828V146.594C31.6828 147.056 31.4993 147.499 31.1727 147.826C30.846 148.152 30.403 148.336 29.941 148.336C29.4791 148.336 29.036 148.152 28.7094 147.826C28.3827 147.499 28.1992 147.056 28.1992 146.594V122.906Z" fill="#7BA9FA"/>
<path d="M18.5234 122.906H22.0024V136.673C22.0024 137.135 21.8189 137.578 21.4922 137.905C21.1656 138.231 20.7225 138.415 20.2606 138.415C20.0321 138.415 19.8058 138.37 19.5947 138.282C19.3837 138.194 19.192 138.066 19.0306 137.904C18.8692 137.742 18.7414 137.55 18.6543 137.339C18.5673 137.128 18.5228 136.901 18.5234 136.673V122.906Z" fill="#7BA9FA"/>
<path d="M22.0024 151.815H18.5234V137.416C18.5247 136.956 18.7082 136.516 19.0339 136.191C19.3595 135.866 19.8007 135.684 20.2606 135.684C20.7225 135.684 21.1656 135.867 21.4922 136.194C21.8189 136.52 22.0024 136.963 22.0024 137.425V151.815Z" fill="white"/>
<path d="M31.6828 151.815H28.1992V143.366C28.1992 142.904 28.3827 142.461 28.7094 142.134C29.036 141.808 29.4791 141.624 29.941 141.624C30.403 141.624 30.846 141.808 31.1727 142.134C31.4993 142.461 31.6828 142.904 31.6828 143.366V151.815Z" fill="white"/>
<path d="M41.3586 151.815H37.875V130.449C37.8775 129.989 38.062 129.548 38.3884 129.223C38.7148 128.899 39.1564 128.716 39.6168 128.716C40.0787 128.716 40.5218 128.9 40.8484 129.227C41.1751 129.553 41.3586 129.996 41.3586 130.458V151.815Z" fill="white"/>
<path d="M51.0336 151.815H47.5547V124.643C47.5547 124.414 47.5998 124.188 47.6874 123.977C47.775 123.766 47.9033 123.574 48.0651 123.413C48.2269 123.252 48.419 123.124 48.6303 123.037C48.8416 122.95 49.068 122.905 49.2965 122.906C49.5248 122.905 49.751 122.95 49.962 123.037C50.173 123.124 50.3648 123.252 50.5262 123.413C50.6876 123.575 50.8156 123.766 50.9026 123.977C50.9897 124.188 51.0343 124.415 51.0336 124.643V151.815Z" fill="white"/>
<path d="M60.7141 151.815H57.2305V132.771C57.2317 132.542 57.2781 132.316 57.367 132.104C57.456 131.893 57.5857 131.702 57.7488 131.541C57.9119 131.38 58.1052 131.253 58.3175 131.166C58.5298 131.08 58.7571 131.037 58.9862 131.039C59.4482 131.039 59.8912 131.222 60.2178 131.549C60.5445 131.876 60.728 132.319 60.728 132.781L60.7141 151.815Z" fill="white"/>
<path d="M70.3891 151.815H66.9102V138.048C66.9096 137.819 66.954 137.593 67.0411 137.382C67.1281 137.17 67.256 136.978 67.4173 136.816C67.5787 136.655 67.7704 136.526 67.9815 136.439C68.1925 136.351 68.4188 136.306 68.6473 136.306C69.1093 136.306 69.5523 136.49 69.8789 136.816C70.2056 137.143 70.3891 137.586 70.3891 138.048V151.815Z" fill="white"/>
<path d="M80.5862 110.927C80.5862 111.386 80.45 111.835 80.1948 112.217C79.9396 112.599 79.5769 112.897 79.1525 113.072C78.7282 113.248 78.2612 113.294 77.8107 113.205C77.3602 113.115 76.9464 112.894 76.6216 112.569C76.2968 112.244 76.0756 111.83 75.986 111.38C75.8964 110.929 75.9424 110.463 76.1182 110.038C76.294 109.614 76.5916 109.251 76.9735 108.996C77.3555 108.741 77.8045 108.604 78.2638 108.604C78.8797 108.604 79.4704 108.849 79.906 109.285C80.3415 109.72 80.5862 110.311 80.5862 110.927Z" fill="#FF6C37"/>
<path d="M79.6925 110.091L79.1165 109.515L78.2619 110.369L77.4072 109.515L76.8359 110.091L77.6859 110.945L76.8359 111.795L77.4072 112.371L78.2619 111.517L79.1165 112.371L79.6925 111.795L78.8378 110.945L79.6925 110.091Z" fill="#FEFEFE"/>
<path d="M61.9513 111.517H11.7876C11.0872 111.517 10.5195 112.084 10.5195 112.785C10.5195 113.485 11.0872 114.053 11.7876 114.053H61.9513C62.6516 114.053 63.2193 113.485 63.2193 112.785C63.2193 112.084 62.6516 111.517 61.9513 111.517Z" fill="#DEE9FE"/>
<path d="M40.3281 161.253V167.579C40.3281 170.366 42.2464 170.854 43.4123 170.854H104.092" stroke="#7BA9FA" stroke-width="2" stroke-miterlimit="10"/>
<path d="M105.898 170.854C105.898 171.209 105.793 171.555 105.596 171.85C105.399 172.145 105.119 172.375 104.792 172.51C104.464 172.646 104.103 172.682 103.756 172.612C103.408 172.543 103.088 172.372 102.838 172.122C102.587 171.871 102.416 171.552 102.347 171.204C102.278 170.856 102.313 170.495 102.449 170.168C102.585 169.84 102.814 169.56 103.109 169.363C103.404 169.166 103.751 169.061 104.105 169.061C104.341 169.06 104.574 169.106 104.792 169.196C105.01 169.286 105.208 169.418 105.375 169.585C105.541 169.751 105.673 169.949 105.763 170.167C105.853 170.385 105.899 170.618 105.898 170.854Z" fill="#7BA9FA"/>
<path d="M42.117 161.253C42.1179 161.608 42.0135 161.955 41.8168 162.251C41.6202 162.547 41.3402 162.777 41.0124 162.913C40.6846 163.05 40.3237 163.085 39.9755 163.016C39.6273 162.947 39.3074 162.777 39.0564 162.526C38.8054 162.275 38.6345 161.955 38.5655 161.606C38.4964 161.258 38.5323 160.897 38.6686 160.57C38.8049 160.242 39.0354 159.962 39.331 159.765C39.6265 159.568 39.9738 159.464 40.3288 159.465C40.803 159.465 41.2579 159.653 41.5933 159.989C41.9286 160.324 42.117 160.779 42.117 161.253Z" fill="#7BA9FA"/>
<path d="M309.659 124.736H225.277C223.405 124.736 221.887 126.254 221.887 128.127V168.1C221.887 169.972 223.405 171.49 225.277 171.49H309.659C311.532 171.49 313.05 169.972 313.05 168.1V128.127C313.05 126.254 311.532 124.736 309.659 124.736Z" fill="#7BA9FA"/>
<path d="M309.319 130.96C310.604 130.96 311.646 129.918 311.646 128.633C311.646 127.348 310.604 126.306 309.319 126.306C308.034 126.306 306.992 127.348 306.992 128.633C306.992 129.918 308.034 130.96 309.319 130.96Z" fill="#FF6C37"/>
<path d="M310.751 127.778L310.175 127.202L309.32 128.057L308.466 127.202L307.895 127.778L308.745 128.633L307.895 129.483L308.466 130.059L309.32 129.204L310.175 130.059L310.751 129.483L309.896 128.633L310.751 127.778Z" fill="#FEFEFE"/>
<path d="M239.686 130.328H227.67C226.78 130.328 226.059 131.05 226.059 131.94V143.956C226.059 144.846 226.78 145.568 227.67 145.568H239.686C240.577 145.568 241.298 144.846 241.298 143.956V131.94C241.298 131.05 240.577 130.328 239.686 130.328Z" fill="white"/>
<path d="M299.122 133.988H248.326C247.841 133.988 247.375 133.795 247.032 133.452C246.689 133.109 246.496 132.644 246.496 132.158C246.496 131.673 246.689 131.207 247.032 130.864C247.375 130.521 247.841 130.328 248.326 130.328H299.122C299.364 130.324 299.605 130.369 299.83 130.459C300.056 130.55 300.261 130.684 300.434 130.854C300.607 131.025 300.744 131.228 300.838 131.451C300.931 131.675 300.98 131.916 300.979 132.158C300.98 132.401 300.931 132.641 300.838 132.865C300.744 133.089 300.607 133.292 300.434 133.462C300.261 133.633 300.056 133.767 299.83 133.857C299.605 133.947 299.364 133.992 299.122 133.988Z" fill="white"/>
<path d="M276.153 139.604H247.708C247.387 139.604 247.079 139.476 246.851 139.249C246.624 139.021 246.496 138.713 246.496 138.391C246.495 138.232 246.526 138.074 246.587 137.926C246.648 137.779 246.737 137.644 246.85 137.531C246.962 137.418 247.096 137.329 247.243 137.267C247.391 137.206 247.549 137.175 247.708 137.175H276.153C276.313 137.175 276.471 137.206 276.618 137.267C276.765 137.329 276.899 137.418 277.012 137.531C277.125 137.644 277.214 137.779 277.274 137.926C277.335 138.074 277.366 138.232 277.365 138.391C277.365 138.551 277.334 138.708 277.273 138.855C277.212 139.003 277.123 139.136 277.01 139.249C276.898 139.361 276.764 139.451 276.617 139.512C276.47 139.572 276.312 139.604 276.153 139.604Z" fill="white"/>
<path d="M305.59 149.019H229.35C227.442 149.019 225.895 150.566 225.895 152.475V163.278C225.895 165.187 227.442 166.734 229.35 166.734H305.59C307.498 166.734 309.046 165.187 309.046 163.278V152.475C309.046 150.566 307.498 149.019 305.59 149.019Z" fill="#407BFF"/>
<path d="M264.828 157.235V152.79C264.828 152.719 264.846 152.649 264.88 152.587C264.915 152.524 264.965 152.472 265.025 152.434C265.086 152.396 265.155 152.375 265.226 152.371C265.297 152.368 265.368 152.382 265.432 152.414L269.877 154.611C269.946 154.647 270.004 154.701 270.045 154.767C270.086 154.833 270.107 154.91 270.107 154.987C270.107 155.065 270.086 155.141 270.045 155.208C270.004 155.274 269.946 155.328 269.877 155.364L265.432 157.612C265.368 157.643 265.297 157.658 265.226 157.655C265.155 157.651 265.086 157.63 265.025 157.592C264.965 157.554 264.915 157.502 264.88 157.439C264.846 157.377 264.828 157.307 264.828 157.235Z" fill="#FF6C37"/>
<path d="M277.756 156.585V153.403C277.756 153.352 277.769 153.302 277.794 153.257C277.819 153.212 277.856 153.174 277.899 153.147C277.943 153.12 277.993 153.105 278.044 153.103C278.096 153.1 278.147 153.111 278.193 153.134L281.37 154.704C281.419 154.729 281.461 154.768 281.49 154.815C281.52 154.863 281.535 154.918 281.535 154.973C281.535 155.029 281.52 155.084 281.49 155.132C281.461 155.179 281.419 155.218 281.37 155.243L278.22 156.873C278.172 156.904 278.116 156.921 278.059 156.922C278.002 156.923 277.945 156.907 277.897 156.877C277.848 156.846 277.809 156.803 277.784 156.751C277.759 156.7 277.749 156.642 277.756 156.585Z" fill="white"/>
<path d="M282.543 153.12H282.329C282.203 153.12 282.102 153.222 282.102 153.348V156.673C282.102 156.799 282.203 156.901 282.329 156.901H282.543C282.669 156.901 282.77 156.799 282.77 156.673V153.348C282.77 153.222 282.669 153.12 282.543 153.12Z" fill="white"/>
<path d="M257.17 156.585V153.403C257.17 153.352 257.156 153.302 257.131 153.257C257.106 153.212 257.07 153.174 257.027 153.147C256.983 153.12 256.933 153.105 256.882 153.103C256.83 153.1 256.779 153.111 256.733 153.134L253.556 154.727C253.506 154.752 253.465 154.791 253.435 154.839C253.406 154.886 253.391 154.941 253.391 154.997C253.391 155.052 253.406 155.107 253.435 155.155C253.465 155.202 253.506 155.241 253.556 155.266L256.733 156.878C256.781 156.902 256.834 156.913 256.888 156.909C256.941 156.906 256.993 156.889 257.037 156.859C257.081 156.829 257.117 156.788 257.14 156.74C257.164 156.692 257.174 156.638 257.17 156.585Z" fill="white"/>
<path d="M252.395 156.901H252.608C252.734 156.901 252.836 156.799 252.836 156.673V153.348C252.836 153.222 252.734 153.12 252.608 153.12H252.395C252.269 153.12 252.167 153.222 252.167 153.348V156.673C252.167 156.799 252.269 156.901 252.395 156.901Z" fill="white"/>
<path d="M232.329 161.341C232.329 161.408 232.309 161.472 232.273 161.527C232.236 161.582 232.184 161.625 232.123 161.65C232.061 161.676 231.994 161.682 231.929 161.669C231.864 161.656 231.805 161.625 231.758 161.578C231.711 161.531 231.679 161.472 231.667 161.407C231.654 161.342 231.66 161.275 231.686 161.213C231.711 161.152 231.754 161.1 231.809 161.063C231.864 161.027 231.928 161.007 231.995 161.007C232.083 161.007 232.168 161.042 232.231 161.105C232.294 161.168 232.329 161.253 232.329 161.341Z" fill="white"/>
<path d="M232.329 162.489C232.33 162.555 232.311 162.62 232.275 162.676C232.239 162.731 232.187 162.775 232.126 162.801C232.065 162.827 231.997 162.834 231.932 162.822C231.867 162.809 231.807 162.778 231.76 162.731C231.713 162.685 231.68 162.625 231.667 162.56C231.654 162.495 231.66 162.428 231.685 162.366C231.71 162.305 231.753 162.253 231.808 162.216C231.863 162.179 231.928 162.159 231.995 162.159C232.082 162.159 232.167 162.193 232.229 162.255C232.292 162.317 232.328 162.401 232.329 162.489Z" fill="white"/>
<path d="M230.54 161.007H229.448C229.248 161.007 229.086 161.169 229.086 161.369V162.461C229.086 162.661 229.248 162.823 229.448 162.823H230.54C230.74 162.823 230.902 162.661 230.902 162.461V161.369C230.902 161.169 230.74 161.007 230.54 161.007Z" fill="white"/>
<path d="M234.541 161.007H233.44C233.242 161.007 233.082 161.167 233.082 161.365V162.465C233.082 162.663 233.242 162.823 233.44 162.823H234.541C234.738 162.823 234.898 162.663 234.898 162.465V161.365C234.898 161.167 234.738 161.007 234.541 161.007Z" fill="white"/>
<path d="M303.302 161.341C303.302 161.408 303.282 161.472 303.245 161.527C303.209 161.582 303.156 161.625 303.095 161.65C303.034 161.676 302.967 161.682 302.902 161.669C302.837 161.656 302.778 161.625 302.731 161.578C302.684 161.531 302.652 161.472 302.639 161.407C302.626 161.342 302.633 161.275 302.658 161.213C302.684 161.152 302.726 161.1 302.781 161.063C302.836 161.027 302.901 161.007 302.967 161.007C303.056 161.007 303.141 161.042 303.204 161.105C303.266 161.168 303.302 161.253 303.302 161.341Z" fill="white"/>
<path d="M303.302 162.489C303.303 162.555 303.284 162.62 303.248 162.676C303.211 162.731 303.159 162.775 303.098 162.801C303.037 162.827 302.97 162.834 302.905 162.822C302.84 162.809 302.78 162.778 302.732 162.731C302.685 162.685 302.653 162.625 302.64 162.56C302.626 162.495 302.633 162.428 302.658 162.366C302.683 162.305 302.726 162.253 302.781 162.216C302.836 162.179 302.901 162.159 302.967 162.159C303.055 162.159 303.139 162.193 303.202 162.255C303.265 162.317 303.3 162.401 303.302 162.489Z" fill="white"/>
<path d="M301.493 161.007H300.401C300.201 161.007 300.039 161.169 300.039 161.369V162.461C300.039 162.661 300.201 162.823 300.401 162.823H301.493C301.693 162.823 301.855 162.661 301.855 162.461V161.369C301.855 161.169 301.693 161.007 301.493 161.007Z" fill="white"/>
<path d="M305.485 161.007H304.394C304.193 161.007 304.031 161.169 304.031 161.369V162.461C304.031 162.661 304.193 162.823 304.394 162.823H305.485C305.685 162.823 305.847 162.661 305.847 162.461V161.369C305.847 161.169 305.685 161.007 305.485 161.007Z" fill="white"/>
<path d="M297.429 161.806H237.512V162.164H297.429V161.806Z" fill="white"/>
<path d="M268.238 163.055C268.845 163.055 269.338 162.562 269.338 161.955C269.338 161.347 268.845 160.854 268.238 160.854C267.63 160.854 267.137 161.347 267.137 161.955C267.137 162.562 267.63 163.055 268.238 163.055Z" fill="white"/>
<path d="M250.734 109.575H210.543" stroke="white" stroke-width="2" stroke-miterlimit="10"/>
<path d="M274.314 119.176V112.924C274.314 109.575 272.391 109.575 271.23 109.575H250.328" stroke="#7BA9FA" stroke-width="2" stroke-miterlimit="10"/>
<path d="M208.75 109.575C208.75 109.221 208.855 108.874 209.052 108.579C209.249 108.284 209.529 108.055 209.857 107.919C210.184 107.783 210.545 107.748 210.893 107.817C211.24 107.886 211.56 108.057 211.811 108.307C212.061 108.558 212.232 108.878 212.301 109.225C212.371 109.573 212.335 109.934 212.199 110.261C212.064 110.589 211.834 110.869 211.539 111.066C211.244 111.263 210.897 111.368 210.543 111.368C210.307 111.368 210.074 111.322 209.857 111.232C209.639 111.142 209.442 111.009 209.275 110.843C209.109 110.677 208.977 110.479 208.886 110.261C208.796 110.044 208.75 109.811 208.75 109.575Z" fill="white"/>
<path d="M272.52 119.176C272.519 118.821 272.623 118.474 272.819 118.179C273.016 117.883 273.296 117.653 273.623 117.516C273.951 117.38 274.311 117.344 274.659 117.412C275.007 117.481 275.327 117.651 275.579 117.902C275.83 118.153 276.001 118.472 276.071 118.82C276.14 119.168 276.105 119.529 275.969 119.856C275.834 120.184 275.604 120.465 275.309 120.662C275.014 120.859 274.667 120.964 274.312 120.964C273.838 120.964 273.382 120.776 273.046 120.441C272.71 120.106 272.521 119.651 272.52 119.176Z" fill="#7BA9FA"/>
</g>
<defs>
<clipPath id="clip0_1204_21247">
<rect width="313.05" height="200" fill="white"/>
</clipPath>
</defs>
</svg>
