<svg width="296" height="200" viewBox="0 0 296 200" fill="none" xmlns="http://www.w3.org/2000/svg">
<g clip-path="url(#clip0_1316_19857)">
<path fill-rule="evenodd" clip-rule="evenodd" d="M253.466 63.6991C254.155 64.2133 254.772 64.8166 255.302 65.4932L257.64 65.0628L259.196 68.6924L257.267 70.0872C257.392 70.9358 257.402 71.7972 257.298 72.6486L259.253 74.0019L257.786 77.6574L255.437 77.2789C254.924 77.967 254.32 78.5827 253.643 79.1092L254.068 81.4529L250.438 83.0084L249.064 81.064C248.204 81.1832 247.332 81.1832 246.472 81.064L245.118 83.024L241.489 81.5566L241.867 79.2078C241.178 78.695 240.56 78.0915 240.032 77.4137L237.693 77.8389L236.138 74.2093L238.062 72.8145C237.948 71.9541 237.948 71.0824 238.062 70.222L236.102 68.9309L237.569 65.3013L239.918 65.6746C240.432 64.9877 241.035 64.3722 241.712 63.8443L241.287 61.4799L244.916 59.9243L246.311 61.848C247.17 61.7229 248.042 61.7142 248.904 61.8221L250.252 59.8673L253.907 61.3347L253.529 63.6835L253.466 63.6991ZM249.396 67.6139C248.622 67.3029 247.772 67.2286 246.955 67.4003C246.138 67.572 245.391 67.9821 244.807 68.5787C244.223 69.1753 243.83 69.9315 243.676 70.7519C243.521 71.5722 243.614 72.4198 243.942 73.1875C244.27 73.9552 244.817 74.6085 245.516 75.0648C246.215 75.5211 247.034 75.76 247.868 75.7511C248.703 75.7423 249.516 75.4862 250.205 75.0151C250.895 74.5441 251.429 73.8794 251.74 73.1049C251.947 72.5905 252.05 72.0403 252.044 71.486C252.038 70.9316 251.923 70.3838 251.706 69.8738C251.488 69.3639 251.172 68.9019 250.776 68.5141C250.379 68.1263 249.911 67.8204 249.396 67.6139Z" fill="#EBEBEB"/>
<path fill-rule="evenodd" clip-rule="evenodd" d="M36.3826 79.4774C37.6257 80.408 38.7399 81.4995 39.6959 82.7232L43.927 81.9507L46.7217 88.4943L43.2166 91.035C43.4397 92.5711 43.4554 94.1302 43.2633 95.6705L46.7995 98.1126L44.1499 104.718L39.9241 103.998C38.9962 105.243 37.9044 106.358 36.6782 107.311L37.4508 111.542L30.9071 114.368L28.3872 110.884C26.8511 111.106 25.2924 111.123 23.7517 110.935L21.3043 114.466L14.6985 111.807L15.3777 107.56C14.1346 106.629 13.0204 105.538 12.0645 104.314L7.8386 105.087L5.04383 98.543L8.52822 96.023C8.306 94.487 8.28856 92.9282 8.47637 91.3876L4.94531 88.9609L7.60009 82.3603L11.8415 83.0447C12.7735 81.8012 13.8648 80.6855 15.0874 79.7263L14.3148 75.4797L20.8584 72.6849L23.3836 76.1693C24.9196 75.947 26.4784 75.9296 28.019 76.1174L30.4612 72.5812L37.0671 75.2359L36.3826 79.4774ZM29.0301 86.5602C27.6294 85.997 26.093 85.862 24.6154 86.172C23.1378 86.4821 21.7854 87.2235 20.7292 88.3023C19.673 89.3811 18.9605 90.7489 18.6818 92.2327C18.403 93.7165 18.5706 95.2497 19.1633 96.6382C19.756 98.0268 20.7472 99.2083 22.0116 100.033C23.2759 100.859 24.7565 101.29 26.2662 101.274C27.7759 101.257 29.2468 100.794 30.4928 99.9411C31.7388 99.0886 32.7041 97.8857 33.2664 96.4845C34.0186 94.6065 33.995 92.5069 33.2008 90.6463C32.4066 88.7856 30.9066 87.3161 29.0301 86.5602Z" fill="#EBEBEB"/>
<path fill-rule="evenodd" clip-rule="evenodd" d="M19.0223 46.3549C19.7092 46.8692 20.3248 47.4725 20.8527 48.149L23.1911 47.7238L24.7467 51.3534L22.823 52.7482C22.9395 53.6084 22.9395 54.4805 22.823 55.3407L24.7778 56.694L23.3104 60.3236L20.9667 59.9451C20.4507 60.6337 19.8457 61.251 19.1675 61.7806L19.5979 64.1191L15.9683 65.6746L14.5735 63.751C13.7233 63.8624 12.8622 63.8624 12.0121 63.751L10.6587 65.7057L7.02916 64.2384L7.40768 61.8895C6.71957 61.3766 6.10389 60.7732 5.57733 60.0955L3.23366 60.5206L1.67813 56.8911L3.60699 55.4963C3.48163 54.6459 3.4729 53.7824 3.58106 52.9296L1.62109 51.5815L3.08848 47.926L5.43733 48.3045C5.95151 47.616 6.55479 46.9988 7.23138 46.469L6.8062 44.1305L10.4358 42.575L11.8306 44.5038C12.6894 44.377 13.5615 44.3666 14.4231 44.4727L15.7764 42.5179L19.406 43.9853L19.0327 46.3342L19.0223 46.3549ZM14.952 50.2697C14.177 49.9577 13.327 49.8824 12.5092 50.0533C11.6915 50.2242 10.9427 50.6336 10.3576 51.2299C9.77246 51.8262 9.37718 52.5825 9.2217 53.4033C9.06623 54.2241 9.15754 55.0726 9.48409 55.8416C9.81064 56.6105 10.3578 57.2654 11.0564 57.7236C11.755 58.1817 12.5737 58.4225 13.4091 58.4155C14.2445 58.4085 15.0591 58.154 15.7499 57.6843C16.4407 57.2146 16.9769 56.5506 17.2905 55.7763C17.4991 55.2612 17.6041 54.7101 17.5995 54.1544C17.5948 53.5987 17.4806 53.0494 17.2634 52.5379C17.0462 52.0265 16.7302 51.5628 16.3336 51.1736C15.937 50.7844 15.4675 50.4772 14.952 50.2697Z" fill="#F0F0F0"/>
<path fill-rule="evenodd" clip-rule="evenodd" d="M66.6484 17.5568C68.6575 18.2951 70.5583 19.2996 72.3002 20.5434L77.589 17.8575L83.8526 25.407L80.2231 30.1099C81.1209 32.0534 81.7573 34.1073 82.1156 36.218L87.7467 38.0587L86.8393 47.8274L80.9594 48.5948C80.2211 50.6055 79.2166 52.5081 77.9727 54.2518L80.6586 59.5406L73.1039 65.8042L68.4062 62.1746C66.467 63.0754 64.4164 63.7136 62.3085 64.0724L60.4678 69.7086L50.6991 68.796L49.9576 62.9265C47.9486 62.1882 46.0477 61.1837 44.3058 59.9399L39.017 62.6206L32.7534 55.071L36.383 50.3681C35.4852 48.4246 34.8488 46.3707 34.4904 44.2601L28.8594 42.4194L29.7357 32.6506L35.6156 31.8832C36.3513 29.8718 37.3522 27.9677 38.5918 26.2211L35.9059 20.9375L43.4606 14.6739L48.1583 18.3034C50.1018 17.4008 52.1581 16.7643 54.2716 16.4109L56.1123 10.7747L65.8811 11.7028L66.6484 17.5827V17.5568ZM59.7108 29.804C57.6378 29.6109 55.5542 30.0368 53.7233 31.028C51.8925 32.0192 50.3967 33.531 49.4251 35.3723C48.4535 37.2136 48.0498 39.3017 48.265 41.3725C48.4803 43.4433 49.3047 45.4037 50.6342 47.0059C51.9636 48.608 53.7384 49.78 55.7339 50.3734C57.7295 50.9669 59.8562 50.9553 61.8451 50.34C63.834 49.7247 65.5958 48.5335 66.9077 46.9169C68.2195 45.3002 69.0225 43.3309 69.2151 41.2579C69.3436 39.8817 69.1997 38.4936 68.7915 37.173C68.3833 35.8525 67.719 34.6253 66.8363 33.5616C65.9537 32.4979 64.8701 31.6185 63.6474 30.9738C62.4248 30.329 61.0871 29.9315 59.7108 29.804Z" fill="#E0E0E0"/>
<path d="M25.6461 179.182C32.1172 174.946 33.7608 166.831 33.6882 159.478C33.6882 158.255 33.849 156.969 33.2838 155.88C32.7186 154.791 31.3653 154.029 30.2402 154.516C29.312 154.921 28.8868 155.968 28.3476 156.829C27.6286 157.981 26.5987 158.907 25.3765 159.499C24.578 159.883 23.598 160.106 22.8306 159.665C21.7936 159.058 21.6847 157.591 21.721 156.383C21.7936 154.115 21.8627 151.849 21.9284 149.585C22.0347 148.368 21.9401 147.142 21.6484 145.956C21.4938 145.368 21.2008 144.826 20.794 144.375C20.3872 143.924 19.8783 143.577 19.3099 143.363C18.1433 143.01 16.6811 143.643 16.4011 144.825C16.343 145.328 16.3188 145.834 16.3285 146.339C16.3295 146.593 16.2552 146.841 16.1149 147.053C15.9745 147.264 15.7746 147.429 15.5404 147.527C15.2855 147.55 15.0289 147.508 14.7948 147.405C14.5607 147.301 14.3569 147.14 14.2026 146.936C13.0221 145.615 12.0657 144.111 11.3715 142.482C10.6784 140.855 9.79419 139.316 8.7375 137.898C7.61752 136.529 6.04643 135.43 4.2835 135.305C2.52056 135.181 0.617626 136.197 0.135411 137.898C-0.346804 139.599 0.617626 141.367 1.69094 142.777C3.27941 144.88 5.16385 146.742 7.28567 148.304C7.69878 148.543 8.02561 148.906 8.21899 149.342C8.46269 150.161 7.66419 150.944 6.85013 151.193C5.92199 151.473 4.92645 151.353 3.96721 151.441C3.00796 151.53 1.9502 151.924 1.5665 152.81C1.04799 154.044 2.0539 155.372 3.06499 156.248C5.10444 158.011 7.42956 159.414 9.94045 160.396C10.8663 160.673 11.7342 161.116 12.5019 161.703C13.2174 162.346 13.6322 163.45 13.1708 164.295C12.7093 165.141 11.5686 165.389 10.6197 165.192C9.70475 164.92 8.81485 164.569 7.95974 164.145C6.27976 163.476 4.09165 163.538 2.97166 164.959C2.62582 165.444 2.39873 166.004 2.30867 166.593C2.21861 167.182 2.2681 167.784 2.45315 168.35C2.84043 169.477 3.45058 170.513 4.2472 171.399C6.86187 174.653 10.2912 177.158 14.1871 178.658C18.0811 180.1 21.7158 180.551 25.6513 179.234" fill="#A6A6A6"/>
<path d="M1.94922 136.296L2.06847 136.415L2.42625 136.742C2.74254 137.032 3.20401 137.457 3.78993 138.022C5.4434 139.615 6.97554 141.329 8.37357 143.15C9.26022 144.296 10.1832 145.598 11.1476 147.008C12.112 148.419 13.1231 149.943 14.1342 151.576C15.2006 153.277 16.1717 155.036 17.0431 156.844C17.4994 157.783 17.8986 158.768 18.303 159.769C18.7075 160.769 19.1223 161.786 19.5371 162.818C21.1268 166.67 22.4961 170.611 23.6385 174.619C24.5578 177.897 25.1638 181.254 25.4481 184.647C25.634 186.934 25.6167 189.233 25.3963 191.517C25.3133 192.321 25.2355 192.948 25.1681 193.373C25.137 193.576 25.1163 193.736 25.0955 193.856C25.0921 193.911 25.0921 193.966 25.0955 194.022C25.113 193.969 25.1269 193.915 25.137 193.861C25.137 193.742 25.1889 193.581 25.2252 193.379C25.3081 192.959 25.4015 192.342 25.5 191.528C25.7542 189.239 25.7958 186.932 25.6244 184.637C25.364 181.231 24.7718 177.858 23.8563 174.567C22.7219 170.546 21.3559 166.593 19.7653 162.729C19.3435 161.692 18.9322 160.678 18.5312 159.686C18.1216 158.685 17.7171 157.695 17.2608 156.746C16.3809 154.932 15.4011 153.168 14.3261 151.462C13.289 149.829 12.2831 148.315 11.3187 146.905C10.3543 145.494 9.41577 144.198 8.51356 143.052C7.09474 141.234 5.53434 139.532 3.84697 137.96C3.25068 137.405 2.77365 136.985 2.44699 136.711L2.07885 136.394C1.99588 136.327 1.9544 136.291 1.94922 136.296Z" fill="#263238"/>
<path d="M17.1844 156.735C17.246 156.568 17.2894 156.394 17.314 156.217C17.3866 155.88 17.4799 155.398 17.5784 154.791C17.7807 153.583 18.0088 151.908 18.2473 150.062C18.4858 148.216 18.7347 146.547 18.9577 145.344C19.0666 144.747 19.1599 144.26 19.2273 143.923C19.2741 143.754 19.3019 143.58 19.3103 143.405C19.2317 143.57 19.1743 143.744 19.1392 143.923C19.0458 144.25 18.9266 144.732 18.7969 145.328C18.5377 146.526 18.2784 148.196 18.0244 150.047C17.7703 151.898 17.5784 153.521 17.4229 154.786C17.3451 155.351 17.2777 155.823 17.231 156.217C17.1955 156.387 17.1798 156.561 17.1844 156.735Z" fill="#263238"/>
<path d="M1.41797 153.438C1.62388 153.487 1.83394 153.516 2.04537 153.526C2.4498 153.573 3.04091 153.635 3.76164 153.739C5.20829 153.925 7.19937 154.257 9.37711 154.713C11.5549 155.17 13.5252 155.683 14.9096 156.082C15.6148 156.279 16.18 156.456 16.5689 156.575C16.7685 156.649 16.9752 156.703 17.1859 156.736C16.9965 156.641 16.8007 156.559 16.6 156.492C16.2163 156.347 15.6563 156.15 14.9563 155.932C13.5615 155.486 11.6067 154.957 9.42378 154.496C7.55996 154.095 5.6771 153.789 3.78238 153.578C3.05128 153.495 2.46018 153.459 2.05574 153.443C1.84387 153.42 1.63019 153.418 1.41797 153.438Z" fill="#263238"/>
<path d="M23.6562 174.272C23.7022 174.215 23.7406 174.152 23.7703 174.085L24.0555 173.525C24.2992 173.037 24.6362 172.327 25.0407 171.451C25.8496 169.678 26.8866 167.194 27.991 164.441C29.0954 161.687 30.1169 159.193 30.8843 157.41L31.8021 155.294L32.0509 154.719C32.1028 154.584 32.1287 154.511 32.1183 154.511C32.0756 154.569 32.0392 154.632 32.0095 154.698L31.7243 155.258C31.4754 155.745 31.1435 156.456 30.7391 157.332C29.9302 159.105 28.8932 161.589 27.7836 164.342C26.674 167.095 25.6629 169.589 24.8903 171.373C24.517 172.244 24.2059 172.96 23.9725 173.489L23.7288 174.064C23.6958 174.13 23.6714 174.2 23.6562 174.272Z" fill="#263238"/>
<path d="M2.77344 167.075C2.77344 167.075 2.84084 167.116 2.97566 167.168L3.58231 167.381L5.82228 168.158C7.70966 168.812 10.3074 169.745 13.1748 170.782C16.0421 171.819 18.6502 172.726 20.5532 173.343C21.5072 173.654 22.2746 173.893 22.8139 174.049L23.4309 174.225C23.5761 174.266 23.6539 174.282 23.6539 174.272C23.588 174.235 23.5184 174.206 23.4465 174.183L22.8398 173.966L20.605 173.193C18.7176 172.54 16.1199 171.606 13.2525 170.569C10.3852 169.532 7.77188 168.62 5.87413 168.003C4.92007 167.697 4.14749 167.453 3.61343 167.298L2.99121 167.121C2.92035 167.098 2.8474 167.083 2.77344 167.075Z" fill="#263238"/>
<path d="M236.064 124.469L204.782 124.323C203.887 124.321 203.001 124.142 202.175 123.797C201.349 123.452 200.599 122.946 199.969 122.31C199.339 121.674 198.841 120.92 198.503 120.091C198.165 119.262 197.994 118.374 198 117.479L198.332 39.272C198.337 38.3782 198.518 37.4941 198.864 36.6702C199.211 35.8463 199.716 35.0988 200.352 34.4704C200.988 33.842 201.741 33.345 202.569 33.0079C203.396 32.6707 204.283 32.5 205.176 32.5054L236.458 32.6454C238.262 32.6523 239.99 33.3746 241.263 34.6538C242.535 35.933 243.248 37.6647 243.245 39.469L242.914 117.681C242.911 118.577 242.731 119.463 242.385 120.29C242.039 121.116 241.534 121.866 240.898 122.497C240.261 123.127 239.507 123.626 238.677 123.964C237.848 124.303 236.96 124.474 236.064 124.469Z" fill="#455A64"/>
<path d="M236.415 35.3676H230.349C230.152 35.3703 229.957 35.4119 229.776 35.4901C229.595 35.5682 229.431 35.6813 229.293 35.823C229.156 35.9646 229.048 36.1319 228.976 36.3154C228.903 36.4989 228.868 36.6948 228.871 36.892V37.9913C228.875 38.3893 228.723 38.773 228.446 39.0593C228.169 39.3455 227.791 39.5114 227.393 39.5209L215.566 39.4639C215.367 39.4592 215.172 39.4151 214.99 39.3341C214.809 39.2531 214.645 39.1369 214.509 38.9921C214.373 38.8474 214.267 38.677 214.198 38.4909C214.128 38.3049 214.096 38.1068 214.104 37.9083V36.7987C214.111 36.6004 214.078 36.4026 214.008 36.2169C213.939 36.0311 213.833 35.861 213.697 35.7164C213.561 35.5718 213.398 35.4556 213.217 35.3743C213.035 35.2931 212.84 35.2485 212.642 35.2432H210.505H205.196C204.57 35.2398 203.95 35.3596 203.37 35.596C202.791 35.8323 202.264 36.1804 201.819 36.6205C201.374 37.0606 201.02 37.584 200.777 38.1608C200.535 38.7376 200.408 39.3566 200.405 39.9824L200.078 116.323C200.075 117.587 200.575 118.801 201.466 119.697C202.358 120.593 203.569 121.099 204.833 121.103L236.052 121.249C237.316 121.254 238.531 120.758 239.43 119.87C240.329 118.982 240.839 117.773 240.849 116.509L241.17 40.169C241.175 39.5411 241.056 38.9184 240.819 38.3367C240.582 37.7551 240.233 37.226 239.791 36.7798C239.349 36.3336 238.823 35.9791 238.244 35.7368C237.665 35.4944 237.043 35.369 236.415 35.3676Z" fill="white"/>
<path d="M235.905 87.312H205.012V89.3809H235.905V87.312Z" fill="#455A64"/>
<path d="M234.804 95.4474C234.804 95.52 228.209 95.5822 220.079 95.5822C211.948 95.5822 205.348 95.52 205.348 95.4474C205.348 95.3748 211.943 95.3126 220.079 95.3126C228.214 95.3126 234.804 95.3748 234.804 95.4474Z" fill="#455A64"/>
<path d="M234.804 46.443C234.804 46.5208 228.209 46.5778 220.079 46.5778C211.948 46.5778 205.348 46.5208 205.348 46.443C205.348 46.3653 211.943 46.3082 220.079 46.3082C228.214 46.3082 234.804 46.3549 234.804 46.443Z" fill="#455A64"/>
<path d="M234.804 99.2118C234.804 99.2844 228.209 99.3467 220.079 99.3467C211.948 99.3467 205.348 99.2844 205.348 99.2118C205.348 99.1393 211.943 99.077 220.079 99.077C228.214 99.077 234.804 99.1341 234.804 99.2118Z" fill="#455A64"/>
<path d="M234.804 102.961C234.804 103.033 228.209 103.096 220.079 103.096C211.948 103.096 205.348 103.033 205.348 102.961C205.348 102.888 211.943 102.826 220.079 102.826C228.214 102.826 234.804 102.899 234.804 102.961Z" fill="#455A64"/>
<path d="M234.804 106.735C234.804 106.808 228.209 106.87 220.079 106.87C211.948 106.87 205.348 106.808 205.348 106.735C205.348 106.663 211.943 106.601 220.079 106.601C228.214 106.601 234.804 106.658 234.804 106.735Z" fill="#455A64"/>
<path d="M234.804 110.495C234.804 110.572 228.209 110.629 220.079 110.629C211.948 110.629 205.348 110.572 205.348 110.495C205.348 110.417 211.943 110.36 220.079 110.36C228.214 110.36 234.804 110.422 234.804 110.495Z" fill="#455A64"/>
<path d="M235.222 114.762C235.222 114.835 228.627 114.897 220.497 114.897C212.366 114.897 205.766 114.835 205.766 114.762C205.766 114.689 212.361 114.627 220.497 114.627C228.632 114.627 235.222 114.684 235.222 114.762Z" fill="#455A64"/>
<path d="M236.318 50.7207H205.348V80.6854H236.318V50.7207Z" fill="#E0E0E0"/>
<g clip-path="url(#clip1_1316_19857)">
<path fill-rule="evenodd" clip-rule="evenodd" d="M214.105 57.2023C212.758 57.2023 211.762 58.3806 211.807 59.6585C211.849 60.8862 211.794 62.4762 211.393 63.7729C210.992 65.0732 210.313 65.8972 209.203 66.003V67.1971C210.313 67.3031 210.992 68.1267 211.393 69.4272C211.794 70.7238 211.849 72.3139 211.806 73.5416C211.762 74.8193 212.758 75.9978 214.105 75.9978H227.903C229.25 75.9978 230.246 74.8194 230.201 73.5416C230.158 72.3139 230.214 70.7238 230.615 69.4272C231.016 68.1267 231.694 67.3027 232.803 67.1971V66.003C231.694 65.897 231.016 65.0734 230.615 63.7729C230.214 62.4764 230.158 60.8862 230.201 59.6585C230.246 58.3808 229.25 57.2023 227.903 57.2023H214.105H214.105ZM225.203 68.7721C225.203 70.5317 223.89 71.5988 221.712 71.5988H218.003C217.897 71.5988 217.795 71.5567 217.72 71.4817C217.645 71.4067 217.603 71.305 217.603 71.1989V62.0011C217.603 61.8951 217.645 61.7934 217.72 61.7184C217.795 61.6434 217.897 61.6012 218.003 61.6012H221.691C223.507 61.6012 224.699 62.585 224.699 64.0954C224.699 65.1556 223.897 66.1046 222.876 66.2709V66.3262C224.267 66.4787 225.203 67.4419 225.203 68.7721ZM221.307 62.8689H219.193V65.8551H220.974C222.351 65.8551 223.11 65.3008 223.11 64.3101C223.11 63.3816 222.457 62.8689 221.307 62.8689ZM219.193 67.0399V70.3307H221.385C222.819 70.3307 223.578 69.7557 223.578 68.6749C223.578 67.5942 222.797 67.0397 221.293 67.0397H219.193V67.0399Z" fill="#7952B3"/>
</g>
<path d="M233.919 78.2019C233.919 78.2019 233.919 78.1604 233.919 78.0774C233.919 77.9944 233.919 77.8752 233.919 77.73C233.919 77.4085 233.919 76.9626 233.919 76.3819C233.919 75.1945 233.919 73.473 233.883 71.2901C233.883 66.9139 233.846 60.6814 233.821 53.1993L233.945 53.3237H207.781C207.745 53.3548 208.056 53.0437 207.926 53.1785V59.9192C207.926 62.1228 207.926 64.2798 207.926 66.3746C207.926 70.5746 207.926 74.5412 207.926 78.1915L207.796 78.0619L226.717 78.1293L232.058 78.1604H233.473H233.836H233.966H233.852H233.499H232.109L226.8 78.1915L207.796 78.2589H207.667V78.1293C207.667 74.4997 207.667 70.5123 207.667 66.3124C207.667 64.2384 207.667 62.0606 207.667 59.8569V53.1163C207.532 53.2459 207.843 52.9296 207.817 52.9659H233.981H234.033V53.1837C234.002 60.7021 233.981 66.9605 233.966 71.3575C233.966 73.5249 233.966 75.236 233.935 76.4182C233.935 76.9885 233.935 77.4293 233.935 77.7404C233.935 77.8804 233.935 77.9893 233.935 78.0774C233.935 78.1194 233.93 78.1613 233.919 78.2019Z" fill="#455A64"/>
<path d="M73.5195 5.98878V75.0648C73.5195 78.3723 76.2008 81.0536 79.5083 81.0536H183.853C187.161 81.0536 189.842 78.3723 189.842 75.0648V5.98878C189.842 2.68125 187.161 -2.28882e-05 183.853 -2.28882e-05H79.5083C76.2008 -2.28882e-05 73.5195 2.68125 73.5195 5.98878Z" fill="#455A64"/>
<path d="M81.4805 2.55622V78.4973H178.623V2.55622H81.4805Z" fill="white"/>
<path d="M183.994 37.4157C184.609 37.4157 185.211 37.5982 185.722 37.94C186.234 38.2819 186.633 38.7678 186.868 39.3362C187.104 39.9047 187.165 40.5302 187.045 41.1337C186.925 41.7372 186.629 42.2915 186.194 42.7266C185.759 43.1617 185.204 43.458 184.601 43.5781C183.997 43.6981 183.372 43.6365 182.803 43.401C182.235 43.1656 181.749 42.7668 181.407 42.2552C181.065 41.7436 180.883 41.1421 180.883 40.5268C180.883 39.7017 181.211 38.9104 181.794 38.3269C182.377 37.7435 183.169 37.4157 183.994 37.4157Z" fill="#263238"/>
<path d="M76.8672 28.9536V52.1C76.8672 52.4493 77.1504 52.7325 77.4998 52.7325H77.5205C77.8699 52.7325 78.1531 52.4493 78.1531 52.1V28.9536C78.1531 28.6043 77.8699 28.3211 77.5205 28.3211H77.4998C77.1504 28.3211 76.8672 28.6043 76.8672 28.9536Z" fill="#263238"/>
<path d="M156.678 8.26508H125.785V10.3339H156.678V8.26508Z" fill="#455A64"/>
<path d="M116.436 43.7935H85.543V45.8623H116.436V43.7935Z" fill="#455A64"/>
<path d="M164.2 15.9546C164.2 16.0323 155.603 16.0894 145.016 16.0894C134.428 16.0894 125.805 16.0323 125.805 15.9546C125.805 15.8768 134.402 15.8198 145.016 15.8198C155.629 15.8198 164.2 15.882 164.2 15.9546Z" fill="#455A64"/>
<path d="M164.2 20.4708C164.2 20.5434 155.603 20.6056 145.016 20.6056C134.428 20.6056 125.805 20.5434 125.805 20.4708C125.805 20.3982 134.402 20.336 145.016 20.336C155.629 20.336 164.2 20.393 164.2 20.4708Z" fill="#455A64"/>
<path d="M164.2 24.9819C164.2 25.0545 155.603 25.1167 145.016 25.1167C134.428 25.1167 125.805 25.0545 125.805 24.9819C125.805 24.9093 134.402 24.847 145.016 24.847C155.629 24.847 164.2 24.9093 164.2 24.9819Z" fill="#455A64"/>
<path d="M164.2 29.4929C164.2 29.5707 155.603 29.6277 145.016 29.6277C134.428 29.6277 125.805 29.5707 125.805 29.4929C125.805 29.4151 134.402 29.3581 145.016 29.3581C155.629 29.3581 164.2 29.4203 164.2 29.4929Z" fill="#455A64"/>
<path d="M164.2 33.9988C164.2 34.0714 155.603 34.1336 145.016 34.1336C134.428 34.1336 125.805 34.0714 125.805 33.9988C125.805 33.9262 134.402 33.864 145.016 33.864C155.629 33.864 164.2 33.9314 164.2 33.9988Z" fill="#455A64"/>
<path d="M155.776 38.5202C155.776 38.5928 149.061 38.655 140.78 38.655C132.5 38.655 125.785 38.5928 125.785 38.5202C125.785 38.4476 132.495 38.3854 140.78 38.3854C149.066 38.3854 155.776 38.4476 155.776 38.5202Z" fill="#455A64"/>
<path d="M136.278 51.9289C136.278 52.0015 124.995 52.0637 111.079 52.0637C97.1617 52.0637 85.8789 52.0015 85.8789 51.9289C85.8789 51.8563 97.1617 51.7941 111.079 51.7941C124.995 51.7941 136.278 51.8511 136.278 51.9289Z" fill="#455A64"/>
<path d="M136.278 55.688C136.278 55.7658 124.995 55.8228 111.079 55.8228C97.1617 55.8228 85.8789 55.7658 85.8789 55.688C85.8789 55.6103 97.1617 55.5532 111.079 55.5532C124.995 55.5532 136.278 55.6154 136.278 55.688Z" fill="#455A64"/>
<path d="M136.278 59.4524C136.278 59.525 124.995 59.5873 111.079 59.5873C97.1617 59.5873 85.8789 59.525 85.8789 59.4524C85.8789 59.3798 97.1617 59.3176 111.079 59.3176C124.995 59.3176 136.278 59.3747 136.278 59.4524Z" fill="#455A64"/>
<path d="M136.278 63.2116C136.278 63.2894 124.995 63.3464 111.079 63.3464C97.1617 63.3464 85.8789 63.2894 85.8789 63.2116C85.8789 63.1338 97.1617 63.0768 111.079 63.0768C124.995 63.0768 136.278 63.139 136.278 63.2116Z" fill="#455A64"/>
<path d="M136.278 66.976C136.278 67.0486 124.995 67.1108 111.079 67.1108C97.1617 67.1108 85.8789 67.0486 85.8789 66.976C85.8789 66.9034 97.1617 66.8412 111.079 66.8412C124.995 66.8412 136.278 66.9034 136.278 66.976Z" fill="#455A64"/>
<path d="M116.85 7.20209H85.8789V37.1668H116.85V7.20209Z" fill="#FF6C37"/>
<g clip-path="url(#clip2_1316_19857)">
<path fill-rule="evenodd" clip-rule="evenodd" d="M94.9018 12.4023C93.5552 12.4023 92.5588 13.5806 92.6034 14.8585C92.6462 16.0862 92.5906 17.6762 92.1902 18.9729C91.7884 20.2732 91.1094 21.0972 90 21.203V22.3971C91.1094 22.5031 91.7884 23.3267 92.1902 24.6272C92.5906 25.9238 92.6462 27.5139 92.6034 28.7416C92.5588 30.0193 93.5552 31.1978 94.902 31.1978H108.7C110.047 31.1978 111.043 30.0194 110.998 28.7416C110.955 27.5139 111.011 25.9238 111.411 24.6272C111.813 23.3267 112.491 22.5027 113.6 22.3971V21.203C112.491 21.097 111.813 20.2734 111.411 18.9729C111.011 17.6764 110.955 16.0862 110.998 14.8585C111.043 13.5808 110.047 12.4023 108.7 12.4023H94.9016H94.9018ZM106 23.9721C106 25.7317 104.687 26.7989 102.509 26.7989H98.8C98.6939 26.7989 98.5922 26.7567 98.5171 26.6817C98.4421 26.6067 98.4 26.505 98.4 26.399V17.2012C98.4 17.0951 98.4421 16.9934 98.5171 16.9184C98.5922 16.8434 98.6939 16.8013 98.8 16.8013H102.487C104.304 16.8013 105.496 17.785 105.496 19.2954C105.496 20.3556 104.694 21.3046 103.673 21.4709V21.5262C105.063 21.6787 106 22.6419 106 23.9721ZM102.104 18.0689H99.9896V21.0551H101.771C103.147 21.0551 103.907 20.5008 103.907 19.5101C103.906 18.5816 103.254 18.0689 102.104 18.0689ZM99.9896 22.2399V25.5308H102.182C103.616 25.5308 104.375 24.9557 104.375 23.875C104.375 22.7942 103.594 22.2398 102.09 22.2398H99.9896V22.2399Z" fill="white"/>
</g>
<path d="M114.449 34.6832C114.449 34.6832 114.449 34.6365 114.449 34.5588C114.449 34.481 114.449 34.3565 114.449 34.2114C114.449 33.8899 114.449 33.4388 114.449 32.8632C114.449 31.6707 114.449 29.9544 114.418 27.7715C114.418 23.3952 114.382 17.1627 114.356 9.68061L114.48 9.80505H88.3161C88.2798 9.83617 88.5909 9.53025 88.4612 9.66506V13.0509C88.4612 14.1709 88.4612 15.2857 88.4612 16.385V22.8404C88.4612 27.0404 88.4612 31.007 88.4612 34.6573L88.3316 34.5277L107.252 34.5899L112.588 34.6262H114.003H114.371H114.501H114.387H114.034H112.645L107.335 34.6625L88.3316 34.7247H88.202V34.5951C88.202 30.9655 88.202 26.9781 88.202 22.7782C88.202 20.68 88.202 18.5281 88.202 16.3227V9.5821C88.0672 9.71173 88.3783 9.39543 88.3523 9.42654H114.516H114.646V9.55617C114.62 17.0694 114.599 23.333 114.584 27.73C114.584 29.8974 114.558 31.6084 114.553 32.7906C114.553 33.3558 114.553 33.8277 114.553 34.1128C114.553 34.2528 114.553 34.3617 114.553 34.4499C114.549 34.538 114.512 34.6214 114.449 34.6832Z" fill="#455A64"/>
<path d="M165.152 47.7704H143.234V68.9775H165.152V47.7704Z" fill="#FF6C37"/>
<path d="M144.934 67.1627L150.995 56.248L155.957 63.222L158.97 59.5198L163.455 67.1627H144.934Z" fill="#E0E0E0"/>
<path d="M158.068 54.1222C158.068 54.4298 157.977 54.7306 157.806 54.9864C157.635 55.2422 157.392 55.4416 157.108 55.5593C156.824 55.677 156.511 55.7078 156.209 55.6478C155.907 55.5878 155.63 55.4397 155.413 55.2221C155.195 55.0046 155.047 54.7274 154.987 54.4256C154.927 54.1239 154.958 53.8111 155.075 53.5269C155.193 53.2427 155.393 52.9997 155.648 52.8288C155.904 52.6579 156.205 52.5667 156.513 52.5667C156.925 52.5667 157.321 52.7305 157.612 53.0223C157.904 53.314 158.068 53.7096 158.068 54.1222Z" fill="#E0E0E0"/>
<path d="M163.451 67.2146C163.451 67.2146 163.451 67.1835 163.451 67.1316C163.451 67.0798 163.451 66.9865 163.451 66.8827C163.451 66.6546 163.451 66.3642 163.451 65.9287C163.451 65.0887 163.451 63.8546 163.451 62.2991C163.451 59.1881 163.425 54.7911 163.405 49.4971L163.493 49.5852H144.977C144.951 49.5852 145.174 49.3882 145.08 49.4867V54.2466C145.08 55.8022 145.08 57.3249 145.08 58.8147C145.08 61.7858 145.08 64.5909 145.08 67.1731L144.992 67.085L158.328 67.1835H162.103H163.109H163.457C163.457 67.1835 163.431 67.1835 163.379 67.1835H163.13H162.145L158.385 67.2094L144.94 67.2561H144.847V67.1628C144.847 64.5702 144.847 61.7754 144.847 58.8043V49.5541C144.754 49.6423 144.977 49.4193 144.956 49.4452H163.472H163.565V49.5334C163.565 54.8533 163.529 59.2814 163.519 62.3924C163.519 63.948 163.519 65.1406 163.493 65.9754C163.493 66.3798 163.493 66.6909 163.493 66.9139C163.493 67.0124 163.493 67.0902 163.493 67.1524C163.493 67.2146 163.457 67.2198 163.451 67.2146Z" fill="#455A64"/>
<path d="M180.936 89.2512H33.4453C29.273 89.2512 25.8906 92.6336 25.8906 96.8059V189.22C25.8906 193.392 29.273 196.775 33.4453 196.775H180.936C185.108 196.775 188.49 193.392 188.49 189.22V96.8059C188.49 92.6336 185.108 89.2512 180.936 89.2512Z" fill="#263238"/>
<path d="M19.0859 188.826H195.25V189.008C195.25 191.455 194.278 193.803 192.547 195.534C190.816 197.265 188.468 198.237 186.021 198.237H28.3154C25.8676 198.237 23.5201 197.265 21.7892 195.534C20.0583 193.803 19.0859 191.455 19.0859 189.008V188.826Z" fill="#263238"/>
<path d="M183.667 93.5238H30.25V184.325H183.667V93.5238Z" fill="#E0E0E0"/>
<path d="M91.1602 188.826L93.3431 192.3H124.106L126.134 188.826H91.1602Z" fill="#455A64"/>
<path d="M176.615 99.5696H35.3672V184.289H176.615V99.5696Z" fill="#FAFAFA"/>
<path d="M41.3982 103.744C41.3992 103.979 41.3305 104.209 41.2006 104.405C41.0708 104.601 40.8857 104.754 40.6688 104.844C40.4519 104.935 40.213 104.959 39.9824 104.914C39.7517 104.869 39.5396 104.756 39.3731 104.59C39.2065 104.424 39.0929 104.213 39.0466 103.982C39.0004 103.752 39.0236 103.513 39.1133 103.296C39.203 103.078 39.3552 102.893 39.5506 102.762C39.746 102.631 39.9758 102.561 40.2108 102.561C40.5248 102.561 40.8261 102.686 41.0486 102.907C41.2711 103.129 41.3968 103.43 41.3982 103.744Z" fill="#455A64"/>
<path d="M46.2302 103.744C46.2313 103.979 46.1624 104.209 46.0323 104.405C45.9022 104.601 45.7168 104.754 45.4996 104.845C45.2825 104.935 45.0433 104.959 44.8125 104.914C44.5817 104.868 44.3696 104.755 44.2032 104.588C44.0369 104.422 43.9237 104.21 43.878 103.979C43.8324 103.748 43.8563 103.509 43.9468 103.292C44.0374 103.075 44.1904 102.889 44.3864 102.759C44.5825 102.629 44.8127 102.56 45.048 102.561C45.3616 102.561 45.6623 102.686 45.884 102.908C46.1057 103.129 46.2302 103.43 46.2302 103.744Z" fill="#455A64"/>
<path d="M51.0662 103.744C51.0672 103.979 50.9984 104.209 50.8686 104.405C50.7387 104.601 50.5537 104.754 50.3368 104.844C50.1199 104.935 49.881 104.959 49.6503 104.914C49.4197 104.869 49.2076 104.756 49.041 104.59C48.8744 104.424 48.7608 104.213 48.7146 103.982C48.6684 103.752 48.6916 103.513 48.7813 103.296C48.871 103.078 49.0232 102.893 49.2186 102.762C49.4139 102.631 49.6437 102.561 49.8788 102.561C50.0345 102.561 50.1888 102.591 50.3328 102.65C50.4768 102.709 50.6078 102.796 50.7181 102.906C50.8284 103.016 50.916 103.146 50.9757 103.29C51.0354 103.434 51.0662 103.588 51.0662 103.744Z" fill="#455A64"/>
<path d="M176.615 108.929C176.615 109.007 144.986 109.064 105.994 109.064C67.0015 109.064 35.3672 109.007 35.3672 108.929C35.3672 108.851 66.9964 108.794 105.994 108.794C144.991 108.794 176.615 108.856 176.615 108.929Z" fill="#455A64"/>
<path d="M188.49 188.893H25.8906V189.412H188.49V188.893Z" fill="#455A64"/>
<path d="M77.8421 150.093H46.9492V152.162H77.8421V150.093Z" fill="#455A64"/>
<path d="M117.744 121.404H86.8516V123.473H117.744V121.404Z" fill="#455A64"/>
<path d="M163.695 129.099C163.695 129.171 146.491 129.234 125.273 129.234C104.056 129.234 86.8516 129.171 86.8516 129.099C86.8516 129.026 104.051 128.959 125.273 128.959C146.496 128.959 163.695 129.021 163.695 129.099Z" fill="#455A64"/>
<path d="M163.695 133.61C163.695 133.682 146.491 133.745 125.273 133.745C104.056 133.745 86.8516 133.682 86.8516 133.61C86.8516 133.537 104.051 133.475 125.273 133.475C146.496 133.475 163.695 133.553 163.695 133.61Z" fill="#455A64"/>
<path d="M163.695 138.121C163.695 138.199 146.491 138.256 125.273 138.256C104.056 138.256 86.8516 138.199 86.8516 138.121C86.8516 138.043 104.051 137.986 125.273 137.986C146.496 137.986 163.695 138.048 163.695 138.121Z" fill="#455A64"/>
<path d="M163.695 142.637C163.695 142.71 146.491 142.772 125.273 142.772C104.056 142.772 86.8516 142.71 86.8516 142.637C86.8516 142.564 104.051 142.497 125.273 142.497C146.496 142.497 163.695 142.559 163.695 142.637Z" fill="#455A64"/>
<path d="M163.695 147.148C163.695 147.221 146.491 147.283 125.273 147.283C104.056 147.283 86.8516 147.221 86.8516 147.148C86.8516 147.076 104.051 147.013 125.273 147.013C146.496 147.013 163.695 147.07 163.695 147.148Z" fill="#455A64"/>
<path d="M116.847 151.659C116.847 151.732 110.133 151.794 101.852 151.794C93.5715 151.794 86.8516 151.732 86.8516 151.659C86.8516 151.587 93.5922 151.524 101.852 151.524C110.112 151.524 116.847 151.587 116.847 151.659Z" fill="#455A64"/>
<path d="M163.128 160.417C163.128 160.495 151.819 160.552 137.876 160.552C123.934 160.552 112.625 160.495 112.625 160.417C112.625 160.339 123.929 160.282 137.876 160.282C151.824 160.282 163.128 160.344 163.128 160.417Z" fill="#455A64"/>
<path d="M163.128 165.208C163.128 165.281 151.819 165.343 137.876 165.343C123.934 165.343 112.625 165.281 112.625 165.208C112.625 165.135 123.929 165.073 137.876 165.073C151.824 165.073 163.128 165.135 163.128 165.208Z" fill="#455A64"/>
<path d="M163.128 169.999C163.128 170.072 151.819 170.134 137.876 170.134C123.934 170.134 112.625 170.072 112.625 169.999C112.625 169.926 123.929 169.864 137.876 169.864C151.824 169.864 163.128 169.921 163.128 169.999Z" fill="#455A64"/>
<path d="M163.128 174.79C163.128 174.863 151.819 174.925 137.876 174.925C123.934 174.925 112.625 174.863 112.625 174.79C112.625 174.717 123.929 174.655 137.876 174.655C151.824 174.655 163.128 174.712 163.128 174.79Z" fill="#455A64"/>
<path d="M77.9174 159.96C77.9174 160.033 71.1767 160.095 62.8806 160.095C54.5844 160.095 47.8438 160.033 47.8438 159.96C47.8438 159.888 54.5844 159.826 62.8806 159.826C71.1767 159.826 77.9174 159.883 77.9174 159.96Z" fill="#455A64"/>
<path d="M77.9174 163.72C77.9174 163.798 71.1767 163.855 62.8806 163.855C54.5844 163.855 47.8438 163.798 47.8438 163.72C47.8438 163.642 54.5844 163.585 62.8806 163.585C71.1767 163.585 77.9174 163.626 77.9174 163.72Z" fill="#455A64"/>
<path d="M77.9174 167.484C77.9174 167.557 71.1767 167.619 62.8806 167.619C54.5844 167.619 47.8438 167.557 47.8438 167.484C47.8438 167.412 54.5844 167.349 62.8806 167.349C71.1767 167.349 77.9174 167.412 77.9174 167.484Z" fill="#455A64"/>
<path d="M77.9174 171.243C77.9174 171.321 71.1767 171.378 62.8806 171.378C54.5844 171.378 47.8438 171.321 47.8438 171.243C47.8438 171.166 54.5844 171.109 62.8806 171.109C71.1767 171.109 77.9174 171.171 77.9174 171.243Z" fill="#455A64"/>
<path d="M77.9174 175.034C77.9174 175.106 71.1767 175.168 62.8806 175.168C54.5844 175.168 47.8438 175.106 47.8438 175.034C47.8438 174.961 54.5844 174.899 62.8806 174.899C71.1767 174.899 77.9174 174.935 77.9174 175.034Z" fill="#455A64"/>
<path d="M77.9199 114.648H46.9492V144.613H77.9199V114.648Z" fill="#E0E0E0"/>
<path d="M75.4462 142.025C75.444 141.986 75.444 141.946 75.4462 141.906C75.4462 141.813 75.4462 141.699 75.4462 141.554C75.4462 141.237 75.4462 140.786 75.4462 140.205C75.4462 139.018 75.4462 137.302 75.4099 135.119C75.4099 130.743 75.3737 124.51 75.3477 117.023L75.4722 117.153H49.3081C49.2718 117.184 49.5829 116.873 49.4533 117.007V123.748C49.4533 125.946 49.4533 128.103 49.4533 130.203C49.4533 134.398 49.4533 138.365 49.4533 142.015L49.3237 141.891L68.2441 141.953L73.5848 141.989H75.0003H75.4929C75.4929 141.989 75.4566 141.989 75.3788 141.989H75.0262H73.6366L68.3271 142.025L49.3237 142.088H49.1992V141.958C49.1992 138.328 49.1992 134.341 49.1992 130.146C49.1992 128.046 49.1992 125.889 49.1992 123.691V116.95L49.3496 116.8H75.5136H75.6433V116.924C75.6433 124.443 75.5914 130.701 75.5759 135.098C75.5759 137.271 75.5759 138.977 75.5448 140.159C75.5448 140.729 75.5448 141.17 75.5448 141.486C75.5448 141.626 75.5448 141.735 75.5448 141.818C75.5448 141.901 75.4514 142.031 75.4462 142.025Z" fill="#455A64"/>
<path d="M108.753 158.135H86.8359V179.342H108.753V158.135Z" fill="#E0E0E0"/>
<path d="M88.5312 177.528L94.5978 166.613L99.5548 173.587L102.567 169.885L107.052 177.528H88.5312Z" fill="#FF6C37"/>
<path d="M101.666 164.487C101.666 164.795 101.575 165.096 101.404 165.351C101.233 165.607 100.99 165.807 100.705 165.924C100.421 166.042 100.108 166.073 99.8068 166.013C99.505 165.953 99.2278 165.805 99.0103 165.587C98.7928 165.37 98.6446 165.092 98.5846 164.791C98.5246 164.489 98.5554 164.176 98.6731 163.892C98.7908 163.608 98.9902 163.365 99.246 163.194C99.5018 163.023 99.8026 162.932 100.11 162.932C100.523 162.932 100.918 163.096 101.21 163.387C101.502 163.679 101.666 164.075 101.666 164.487Z" fill="#FF6C37"/>
<path d="M107.052 177.585C107.05 177.555 107.05 177.526 107.052 177.497C107.052 177.434 107.052 177.351 107.052 177.248C107.052 177.025 107.052 176.729 107.052 176.294C107.052 175.454 107.052 174.22 107.026 172.69C107.026 169.579 107.026 165.182 106.985 159.888L107.073 159.976H88.5516C88.5516 159.976 88.7486 159.779 88.6553 159.878V169.211C88.6553 172.182 88.6553 174.987 88.6553 177.574L88.562 177.481L101.955 177.528L105.73 177.554H106.731H105.745H101.991L88.5412 177.6H88.4531V177.512C88.4531 174.92 88.4531 172.12 88.4531 169.149C88.4531 167.666 88.4531 166.136 88.4531 164.581V159.831C88.3597 159.919 88.5775 159.696 88.5568 159.722H107.078H107.166V159.81C107.166 165.13 107.13 169.558 107.119 172.674C107.119 174.23 107.119 175.417 107.119 176.252C107.119 176.657 107.119 176.968 107.119 177.191C107.119 177.289 107.119 177.367 107.119 177.429C107.107 177.485 107.084 177.538 107.052 177.585Z" fill="#455A64"/>
<path d="M291.767 189.034L286.582 188.417L285.363 198.133L292.949 199.113L293.063 198.517C293.551 195.852 295.339 184.942 295.018 183.081C294.66 181.007 291.767 189.034 291.767 189.034Z" fill="#407BFF"/>
<path d="M294.565 182.386C294.658 182.386 294.3 186.047 293.766 190.532C293.232 195.017 292.729 198.647 292.636 198.636C292.542 198.626 292.905 195.007 293.434 190.49C293.963 185.974 294.471 182.376 294.565 182.386Z" fill="black"/>
<path d="M292.846 188.577C292.794 188.65 292.524 188.546 292.275 188.308C292.026 188.069 291.923 187.789 291.995 187.742C292.068 187.696 292.286 187.846 292.514 188.069C292.742 188.292 292.903 188.515 292.846 188.577Z" fill="black"/>
<path d="M293.262 187.996C293.22 188.079 292.914 187.996 292.613 187.768C292.313 187.54 292.147 187.25 292.214 187.198C292.282 187.146 292.536 187.286 292.816 187.499C293.096 187.711 293.308 187.914 293.262 187.996Z" fill="black"/>
<path d="M292.953 195.702C292.953 195.743 292.824 195.873 292.564 196.059C292.235 196.284 291.928 196.539 291.647 196.822C291.381 197.103 291.189 197.444 291.087 197.817C291.014 198.107 291.035 198.299 290.983 198.31C290.931 198.32 290.838 198.128 290.853 197.791C290.89 197.349 291.072 196.931 291.372 196.604C291.668 196.294 292.02 196.043 292.409 195.862C292.735 195.717 292.927 195.66 292.953 195.702Z" fill="black"/>
<path d="M291.875 188.432C291.958 188.396 292.124 188.588 292.186 188.873C292.248 189.158 292.186 189.391 292.092 189.391C291.999 189.391 291.916 189.184 291.859 188.93C291.802 188.676 291.787 188.468 291.875 188.432Z" fill="black"/>
<path d="M291.357 188.515C291.445 188.515 291.492 188.785 291.461 189.116C291.43 189.448 291.321 189.697 291.233 189.676C291.144 189.656 291.093 189.391 291.129 189.08C291.165 188.769 291.264 188.515 291.357 188.515Z" fill="black"/>
<path d="M288.603 198.911L259.862 195.997L200.27 197.33L216.115 184.554L255.89 182.64L290.667 187.431L288.603 198.911Z" fill="black"/>
<path d="M240.026 190.926C240.026 191.004 234.431 191.061 227.53 191.061C220.629 191.061 215.039 191.004 215.039 190.926C215.039 190.848 220.629 190.791 227.53 190.791C234.431 190.791 240.026 190.853 240.026 190.926Z" fill="black"/>
<path d="M237.246 183.537L239.289 196.391H243.209L240.228 183.392L237.246 183.537Z" fill="black"/>
<path d="M252.417 196.557L251.837 191.372L242.094 192.409L242.846 200H243.452C246.159 199.865 257.188 199.129 258.925 198.393C260.885 197.547 252.417 196.557 252.417 196.557Z" fill="#407BFF"/>
<path d="M259.128 197.848C259.128 197.942 255.498 198.424 251.013 198.927C246.528 199.43 242.878 199.762 242.867 199.668C242.857 199.575 246.497 199.098 250.977 198.595C255.457 198.092 259.117 197.776 259.128 197.848Z" fill="black"/>
<path d="M252.697 197.599C252.609 197.563 252.65 197.278 252.827 196.982C253.003 196.687 253.247 196.521 253.314 196.578C253.382 196.635 253.278 196.884 253.117 197.153C252.956 197.423 252.79 197.636 252.697 197.599Z" fill="black"/>
<path d="M253.364 197.848C253.276 197.848 253.286 197.511 253.442 197.164C253.597 196.816 253.826 196.599 253.903 196.645C253.981 196.692 253.903 196.972 253.748 197.293C253.592 197.615 253.452 197.895 253.364 197.848Z" fill="black"/>
<path d="M245.792 199.321C245.761 199.352 245.595 199.233 245.356 199.025C245.063 198.756 244.746 198.515 244.408 198.304C244.073 198.11 243.695 198.001 243.308 197.988C243.013 197.988 242.826 198.045 242.79 197.988C242.754 197.931 242.93 197.807 243.272 197.744C243.718 197.682 244.171 197.773 244.558 198.004C244.926 198.225 245.25 198.514 245.512 198.854C245.73 199.119 245.828 199.29 245.792 199.321Z" fill="black"/>
<path d="M252.622 196.619C252.679 196.692 252.529 196.894 252.265 197.024C252 197.153 251.746 197.143 251.746 197.055C251.746 196.967 251.907 196.837 252.14 196.723C252.373 196.609 252.571 196.542 252.622 196.619Z" fill="black"/>
<path d="M252.415 196.132C252.415 196.225 252.182 196.329 251.855 196.37C251.529 196.412 251.259 196.37 251.254 196.277C251.249 196.184 251.503 196.08 251.814 196.039C252.125 195.997 252.395 196.044 252.415 196.132Z" fill="black"/>
<path d="M195.412 137.245L203.708 137.094C203.822 136.135 203.983 132.397 203.983 132.397C203.983 132.397 207.457 132.07 207.711 128.637C207.965 125.205 207.856 117.261 207.856 117.261C205.952 116.3 203.827 115.865 201.698 116C199.57 116.134 197.516 116.835 195.749 118.029L195.23 118.392L195.412 137.245Z" fill="#B78876"/>
<path d="M206.711 123.126C206.621 123.029 206.57 122.902 206.57 122.77C206.57 122.638 206.621 122.511 206.711 122.415C206.782 122.339 206.875 122.287 206.976 122.264C207.077 122.242 207.183 122.25 207.28 122.288C207.376 122.327 207.459 122.393 207.518 122.479C207.576 122.565 207.607 122.666 207.607 122.77C207.607 122.874 207.576 122.976 207.518 123.062C207.459 123.148 207.376 123.214 207.28 123.252C207.183 123.291 207.077 123.299 206.976 123.276C206.875 123.254 206.782 123.201 206.711 123.126Z" fill="black"/>
<path d="M207.585 122.389C207.528 122.446 207.206 122.166 206.734 122.135C206.262 122.104 205.899 122.327 205.853 122.265C205.806 122.203 205.889 122.13 206.045 122.026C206.257 121.893 206.505 121.831 206.755 121.85C207.004 121.866 207.24 121.962 207.429 122.125C207.585 122.254 207.621 122.363 207.585 122.389Z" fill="black"/>
<path d="M202.11 122.467C202.184 122.555 202.227 122.665 202.232 122.78C202.237 122.895 202.203 123.008 202.137 123.102C202.07 123.196 201.975 123.265 201.865 123.298C201.755 123.331 201.636 123.327 201.529 123.286C201.455 123.258 201.389 123.213 201.335 123.156C201.281 123.098 201.241 123.028 201.218 122.953C201.195 122.877 201.189 122.797 201.202 122.719C201.215 122.641 201.245 122.567 201.291 122.502C201.337 122.437 201.396 122.384 201.466 122.346C201.535 122.309 201.613 122.287 201.692 122.284C201.771 122.28 201.85 122.295 201.922 122.327C201.994 122.359 202.059 122.407 202.11 122.467Z" fill="black"/>
<path d="M202.4 122.488C202.343 122.545 202.022 122.265 201.545 122.234C201.068 122.203 200.715 122.426 200.663 122.363C200.611 122.301 200.7 122.229 200.86 122.125C201.072 121.992 201.32 121.93 201.57 121.948C201.819 121.967 202.056 122.065 202.245 122.229C202.4 122.353 202.447 122.467 202.4 122.488Z" fill="black"/>
<path d="M204.081 126.517C204.33 126.435 204.591 126.396 204.853 126.403C204.978 126.403 205.081 126.371 205.092 126.309C205.104 126.184 205.081 126.058 205.024 125.946L204.708 124.961C204.404 124.121 204.185 123.252 204.055 122.369C204.444 123.17 204.75 124.009 204.967 124.873C205.071 125.215 205.164 125.542 205.263 125.863C205.334 126.027 205.346 126.21 205.299 126.382C205.278 126.428 205.246 126.469 205.207 126.501C205.167 126.534 205.121 126.557 205.071 126.568C205 126.578 204.929 126.578 204.858 126.568C204.598 126.594 204.335 126.577 204.081 126.517Z" fill="black"/>
<path d="M202.509 126.947C202.032 126.62 203.821 127.751 204.791 127.761C204.614 128 204.361 128.173 204.075 128.251C203.788 128.329 203.483 128.308 203.209 128.191C202.203 127.751 202.509 126.947 202.509 126.947Z" fill="white"/>
<path d="M204.005 132.345C202.414 132.275 200.88 131.733 199.598 130.789C199.598 130.789 200.505 133.33 203.958 133.231L204.005 132.345Z" fill="#A36957"/>
<path d="M208.104 116.022C208.301 116.015 208.495 115.964 208.669 115.871C208.843 115.778 208.993 115.647 209.109 115.487C209.224 115.327 209.301 115.142 209.334 114.948C209.367 114.753 209.355 114.554 209.299 114.365C209.243 114.175 209.144 114.002 209.011 113.857C208.877 113.711 208.712 113.599 208.528 113.528C208.344 113.456 208.146 113.428 207.949 113.445C207.753 113.462 207.563 113.524 207.394 113.626C207.806 113.287 208.142 112.865 208.379 112.387C208.493 112.147 208.531 111.878 208.488 111.615C208.444 111.353 208.321 111.11 208.135 110.92C207.919 110.771 207.666 110.684 207.404 110.668C207.142 110.651 206.881 110.706 206.647 110.827C205.916 111.143 205.341 111.76 204.573 112.019C203.806 112.278 202.987 112.149 202.183 112.185C201.287 112.202 200.42 112.501 199.704 113.041C199.352 113.313 199.069 113.664 198.877 114.065C198.685 114.467 198.59 114.908 198.6 115.353C197.475 115.218 196.23 115.203 195.344 115.903C194.987 116.22 194.705 116.613 194.518 117.052C194.33 117.491 194.242 117.966 194.26 118.443C194.347 119.396 194.574 120.331 194.934 121.217C194.997 121.477 195.114 121.721 195.276 121.933L195.696 124.401L197.226 124.37L197.127 119.237C197.127 119.237 196.972 117.069 198.839 117.261C200.705 117.453 203.23 119.553 206.855 119.019C207.447 118.988 208.025 118.823 208.545 118.537C208.797 118.378 209.002 118.155 209.139 117.891C209.275 117.626 209.339 117.33 209.323 117.033C209.291 116.739 209.146 116.469 208.919 116.28C208.691 116.091 208.399 115.999 208.104 116.022Z" fill="black"/>
<path d="M195.889 121.44C195.811 121.414 193.333 121.093 193.566 124.033C193.8 126.973 196.677 125.754 196.677 125.671C196.677 125.588 195.889 121.44 195.889 121.44Z" fill="#B78876"/>
<path d="M195.7 124.702C195.7 124.702 195.648 124.738 195.565 124.785C195.449 124.846 195.314 124.861 195.187 124.826C194.989 124.721 194.822 124.566 194.704 124.375C194.586 124.185 194.52 123.967 194.513 123.743C194.484 123.492 194.512 123.239 194.596 123.001C194.616 122.907 194.658 122.819 194.719 122.745C194.781 122.671 194.859 122.613 194.948 122.576C195.006 122.556 195.069 122.557 195.126 122.579C195.183 122.601 195.23 122.642 195.26 122.695C195.306 122.773 195.291 122.83 195.306 122.835C195.322 122.84 195.368 122.783 195.332 122.664C195.312 122.591 195.266 122.529 195.202 122.488C195.161 122.461 195.114 122.442 195.065 122.433C195.016 122.424 194.966 122.425 194.917 122.436C194.793 122.469 194.68 122.535 194.589 122.626C194.498 122.717 194.432 122.83 194.399 122.954C194.293 123.217 194.255 123.503 194.29 123.784C194.295 124.045 194.378 124.299 194.528 124.513C194.677 124.727 194.887 124.892 195.13 124.987C195.21 125.004 195.294 125.003 195.374 124.983C195.454 124.963 195.528 124.926 195.591 124.873C195.7 124.769 195.711 124.707 195.7 124.702Z" fill="#A36957"/>
<path d="M188.68 188.515C190.235 190.833 199.667 205.03 210.929 194.706C225.276 181.567 236.621 170.056 236.621 170.056L240.883 196.059L254.24 195.333C254.24 195.333 249.055 156.616 245.747 153.096C242.071 149.165 238.69 149.497 209.819 172.28L188.68 188.515Z" fill="black"/>
<path d="M236.457 144.421L248.932 135.321L249.544 136.296L237.152 145.51L236.457 144.421Z" fill="black"/>
<path d="M239.543 144.141C239.543 144.141 241.213 139.785 241.617 138.857C242.021 137.929 242.628 136.311 242.867 136.265C243.105 136.218 243.976 136.368 242.867 139.137C241.757 141.906 244.215 140.216 244.215 140.216L246.615 138.494C246.615 138.494 248.513 144.167 247.435 145.878C246.587 147.155 245.635 148.361 244.588 149.481L239.543 144.141Z" fill="#B78876"/>
<path d="M239.682 143.633C239.433 143.067 223.567 157.078 220.409 157.555L211.159 145.51C211.159 145.51 209.24 142.461 205.118 137.245C202.453 133.879 195.111 134.579 193.192 138.681C189.915 145.65 189.874 153.396 188.127 168.469L187.364 178.663C187.2 180.833 187.233 183.012 187.463 185.176C187.743 187.701 188.313 190.361 189.485 189.982L210.645 172.493L211.325 164.549C215.774 169.06 217.158 170.004 219.471 169.641C225.293 168.739 245.676 150.41 245.676 150.41C245.676 150.41 239.926 144.203 239.682 143.633Z" fill="#407BFF"/>
<path d="M242.943 152.955C242.53 152.707 242.149 152.409 241.807 152.069C240.94 151.295 240.128 150.461 239.376 149.575C238.619 148.692 237.926 147.756 237.302 146.775C237.024 146.379 236.789 145.955 236.602 145.51C236.916 145.873 237.202 146.259 237.457 146.666C237.976 147.387 238.702 148.372 239.578 149.398C240.454 150.425 241.304 151.307 241.937 151.929C242.296 152.247 242.632 152.59 242.943 152.955Z" fill="black"/>
<path d="M219.512 162.33C219.52 161.518 219.617 160.71 219.802 159.919C219.904 159.113 220.091 158.321 220.362 157.555C220.354 158.367 220.257 159.175 220.072 159.966C219.971 160.772 219.783 161.565 219.512 162.33Z" fill="black"/>
<path d="M221.533 161.832C221.212 161.173 220.975 160.476 220.827 159.758C220.598 159.064 220.45 158.345 220.387 157.617C220.707 158.276 220.944 158.973 221.092 159.691C221.32 160.386 221.468 161.104 221.533 161.832Z" fill="black"/>
<path d="M198.625 147.625C198.815 147.834 198.988 148.058 199.144 148.294L200.523 150.171C201.689 151.753 203.318 153.93 205.137 156.31L209.83 162.398L211.246 164.249C211.437 164.468 211.61 164.702 211.764 164.949C211.556 164.751 211.364 164.538 211.189 164.311C210.831 163.891 210.328 163.274 209.706 162.517C208.466 160.987 206.771 158.861 204.951 156.476C203.131 154.091 201.523 151.893 200.398 150.28C199.833 149.476 199.361 148.818 199.081 148.356C198.91 148.125 198.757 147.881 198.625 147.625Z" fill="black"/>
<path d="M195.921 157.871C195.373 157.56 194.872 157.173 194.433 156.72C193.935 156.33 193.493 155.873 193.121 155.361C193.672 155.672 194.176 156.062 194.614 156.518C195.114 156.902 195.554 157.358 195.921 157.871Z" fill="black"/>
<path d="M194.105 163.715C193.564 164.835 192.866 165.872 192.031 166.795C192.259 166.213 192.572 165.667 192.959 165.177C193.27 164.637 193.655 164.145 194.105 163.715Z" fill="black"/>
<path d="M196.654 171.777C196.597 171.824 196.136 171.357 195.617 170.74C195.268 170.389 194.984 169.978 194.777 169.527C194.834 169.48 195.296 169.947 195.814 170.564C196.165 170.915 196.449 171.326 196.654 171.777Z" fill="black"/>
<path d="M191.719 176.947C191.392 177.33 190.999 177.652 190.558 177.896C190.167 178.213 189.723 178.459 189.246 178.622C189.573 178.238 189.967 177.917 190.408 177.673C190.799 177.356 191.243 177.11 191.719 176.947Z" fill="black"/>
<path d="M198.62 178.316C198.071 178.076 197.595 177.695 197.241 177.211C196.82 176.778 196.521 176.242 196.375 175.656C196.448 175.62 196.826 176.304 197.443 177.025C198.06 177.746 198.667 178.248 198.62 178.316Z" fill="black"/>
<path d="M205.058 173.432C204.679 173.927 204.232 174.367 203.73 174.738C203.284 175.174 202.777 175.544 202.227 175.837C202.605 175.341 203.052 174.902 203.554 174.531C203.999 174.093 204.506 173.723 205.058 173.432Z" fill="black"/>
<path d="M191.811 182.863C190.926 182.457 190.222 181.736 189.836 180.841C189.898 180.8 190.287 181.297 190.831 181.847C191.376 182.397 191.858 182.811 191.811 182.863Z" fill="black"/>
<path d="M206.202 168.812C205.311 169.321 204.284 169.542 203.262 169.444C204.231 169.185 205.212 168.974 206.202 168.812Z" fill="black"/>
<path d="M201.413 163.362C201.305 163.994 201.132 164.613 200.894 165.208C200.725 165.807 200.523 166.395 200.287 166.971H200.23C200.23 166.94 200.262 166.929 200.272 166.929C200.282 166.929 200.272 166.929 200.272 166.986H200.215C200.276 166.364 200.412 165.751 200.619 165.161C200.778 164.52 201.046 163.911 201.413 163.362Z" fill="black"/>
<path d="M203.437 159.904C202.875 159.669 202.35 159.35 201.882 158.96C201.368 158.642 200.904 158.249 200.508 157.793C201.06 158.033 201.575 158.351 202.037 158.737C202.56 159.053 203.032 159.447 203.437 159.904Z" fill="black"/>
<path d="M199.29 152.281C199.133 152.796 198.872 153.273 198.522 153.681C198.242 154.14 197.871 154.537 197.434 154.848C197.666 154.37 197.959 153.924 198.305 153.521C198.576 153.065 198.907 152.648 199.29 152.281Z" fill="black"/>
<path d="M192.975 151.244C192.888 150.662 192.888 150.069 192.975 149.487C192.982 148.899 193.076 148.315 193.255 147.755C193.348 148.335 193.348 148.927 193.255 149.507C193.254 150.098 193.159 150.684 192.975 151.244Z" fill="black"/>
<path d="M190.51 162.672C190.369 162.052 190.313 161.415 190.344 160.78C190.291 160.147 190.326 159.51 190.448 158.887C190.648 160.14 190.669 161.414 190.51 162.672Z" fill="black"/>
<path d="M190.171 173.634C189.936 173.297 189.778 172.913 189.71 172.509C189.557 172.128 189.486 171.72 189.502 171.311C189.898 172.025 190.127 172.819 190.171 173.634Z" fill="black"/>
<path d="M198.902 142.694C198.49 143.167 198.043 143.607 197.564 144.011C197.15 144.481 196.697 144.917 196.211 145.313C196.493 144.74 196.89 144.231 197.378 143.819C197.801 143.342 198.321 142.958 198.902 142.694Z" fill="black"/>
<path d="M195.193 141.455C195.081 140.89 195.06 140.31 195.131 139.739C195.11 139.163 195.18 138.587 195.338 138.033C195.448 138.598 195.469 139.177 195.401 139.749C195.419 140.325 195.349 140.9 195.193 141.455Z" fill="black"/>
<path d="M204.278 140.221C203.303 139.632 202.361 138.989 201.457 138.297C202.548 138.683 203.52 139.346 204.278 140.221Z" fill="black"/>
<path d="M202.303 146.692C202.159 146.098 202.102 145.487 202.132 144.877C202.076 144.269 202.109 143.656 202.23 143.057C202.434 144.257 202.458 145.48 202.303 146.687V146.692Z" fill="black"/>
<path d="M207.623 150.477C206.576 150.269 205.539 150.02 204.512 149.73C205.6 149.664 206.683 149.924 207.623 150.477Z" fill="black"/>
<path d="M207.985 146.619C207.802 145.61 207.802 144.575 207.985 143.565C208.121 144.061 208.172 144.577 208.135 145.09C208.176 145.604 208.125 146.122 207.985 146.619Z" fill="black"/>
<path d="M212.039 153.096C211.874 152.468 211.799 151.82 211.816 151.172C211.745 150.528 211.763 149.877 211.868 149.238C212.101 150.51 212.159 151.808 212.039 153.096Z" fill="black"/>
<path d="M208.923 155.284C208.866 155.335 208.446 154.952 207.985 154.433C207.523 153.915 207.192 153.448 207.249 153.396C207.306 153.344 207.726 153.728 208.187 154.252C208.649 154.775 208.98 155.237 208.923 155.284Z" fill="black"/>
<path d="M212.864 158.27C212.375 158.437 211.861 158.521 211.345 158.519C210.83 158.609 210.304 158.609 209.789 158.519C210.275 158.347 210.788 158.263 211.303 158.27C211.819 158.174 212.348 158.174 212.864 158.27Z" fill="black"/>
<path d="M215.83 159.784C215.611 158.659 215.567 157.506 215.701 156.367C215.926 157.492 215.97 158.646 215.83 159.784Z" fill="black"/>
<path d="M218.755 165.462C218.134 165.581 217.495 165.581 216.873 165.462C216.241 165.437 215.62 165.291 215.043 165.032C215.667 165.029 216.29 165.085 216.904 165.198C217.529 165.224 218.149 165.313 218.755 165.462Z" fill="black"/>
<path d="M223.786 162.844C223.573 164.021 223.181 165.159 222.625 166.219C222.686 165.625 222.838 165.045 223.076 164.498C223.224 163.912 223.464 163.354 223.786 162.844Z" fill="black"/>
<path d="M227.408 158.26C226.33 158.147 225.278 157.854 224.297 157.394C225.374 157.513 226.424 157.806 227.408 158.26Z" fill="black"/>
<path d="M230.321 159.997C230.013 160.448 229.633 160.845 229.196 161.174C228.817 161.567 228.377 161.898 227.895 162.154C228.2 161.699 228.58 161.299 229.02 160.972C229.399 160.58 229.838 160.25 230.321 159.997Z" fill="black"/>
<path d="M231.488 155.709C231.201 155.196 231.024 154.629 230.969 154.044C230.821 153.472 230.796 152.875 230.897 152.292C231.062 152.849 231.175 153.42 231.234 153.998C231.372 154.559 231.457 155.132 231.488 155.709Z" fill="black"/>
<path d="M237.036 154.724C235.97 155.788 234.891 156.841 233.801 157.881C234.624 156.596 235.731 155.516 237.036 154.724Z" fill="black"/>
<path d="M237.588 152.738C236.993 152.654 236.414 152.479 235.872 152.219C235.296 152.05 234.751 151.793 234.254 151.457C234.847 151.543 235.424 151.718 235.965 151.976C236.541 152.148 237.088 152.405 237.588 152.738Z" fill="black"/>
<path d="M237.06 150.607C236.796 150.176 236.612 149.702 236.516 149.207C236.334 148.735 236.238 148.234 236.23 147.729C236.485 148.161 236.661 148.635 236.749 149.129C236.936 149.6 237.041 150.1 237.06 150.607Z" fill="black"/>
<path d="M208.033 165.545C207.97 165.592 207.514 165.078 207.058 164.404C206.729 164.021 206.473 163.582 206.301 163.108C206.691 163.427 207.021 163.813 207.276 164.249C207.6 164.635 207.856 165.073 208.033 165.545Z" fill="black"/>
<path d="M247.564 191.667C247.542 191.595 247.528 191.52 247.522 191.445C247.501 191.289 247.47 191.071 247.429 190.791C247.356 190.205 247.242 189.36 247.102 188.282C246.807 186.104 246.387 182.946 245.759 179.063C245.132 175.179 244.297 170.569 243.11 165.509C242.988 164.873 242.78 164.258 242.493 163.678C242.167 163.107 241.746 162.595 241.248 162.164C240.192 161.29 238.842 160.852 237.473 160.941C236.775 160.979 236.093 161.165 235.472 161.485C234.847 161.837 234.253 162.239 233.693 162.688L230.126 165.338C225.325 168.941 220.829 172.472 216.816 175.786C212.803 179.099 209.303 182.2 206.373 184.828C204.89 186.104 203.309 187.125 201.706 187.291C200.972 187.375 200.227 187.284 199.534 187.027C198.957 186.809 198.414 186.511 197.921 186.14C197.247 185.627 196.622 185.053 196.055 184.424L195.614 183.937C195.56 183.882 195.512 183.823 195.469 183.76C195.528 183.805 195.582 183.858 195.629 183.916L196.091 184.388C196.674 184.996 197.307 185.554 197.984 186.057C198.474 186.411 199.009 186.697 199.575 186.908C200.253 187.148 200.977 187.228 201.691 187.141C203.246 186.97 204.802 185.959 206.254 184.683C209.163 182.044 212.652 178.907 216.665 175.594C220.679 172.28 225.164 168.723 229.97 165.12L233.538 162.47C234.111 162.014 234.719 161.605 235.358 161.246C236.011 160.909 236.729 160.715 237.463 160.676C238.898 160.586 240.314 161.047 241.419 161.967C241.943 162.417 242.384 162.956 242.721 163.559C243.018 164.158 243.232 164.795 243.358 165.452C244.535 170.528 245.344 175.148 245.951 179.031C246.558 182.915 246.946 186.083 247.211 188.266C247.33 189.35 247.424 190.195 247.491 190.786C247.491 191.066 247.538 191.305 247.553 191.445C247.564 191.518 247.567 191.593 247.564 191.667Z" fill="black"/>
<path d="M253.621 191.377C253.453 191.429 253.279 191.457 253.103 191.46C252.766 191.496 252.278 191.538 251.677 191.579C250.469 191.662 248.804 191.75 246.964 191.828L242.25 192.03L240.819 192.082C240.647 192.103 240.473 192.103 240.301 192.082C240.468 192.027 240.643 191.996 240.819 191.989C241.156 191.948 241.644 191.901 242.245 191.849C243.453 191.75 245.118 191.652 246.958 191.569L251.677 191.398L253.108 191.367C253.279 191.349 253.451 191.352 253.621 191.377Z" fill="black"/>
<path d="M240.33 166.001C239.15 167.923 237.611 169.601 235.799 170.943C235.747 170.88 236.836 169.869 238.101 168.506C239.366 167.142 240.253 165.955 240.33 166.001Z" fill="black"/>
<path d="M240.834 167.578C240.135 168.111 239.396 168.591 238.625 169.014C237.9 169.517 237.137 169.965 236.344 170.352C236.985 169.743 237.703 169.22 238.48 168.796C239.209 168.29 240 167.881 240.834 167.578Z" fill="black"/>
<path d="M284.516 192.715C284.411 192.726 284.305 192.726 284.2 192.715L283.287 192.663L279.969 192.347L269.034 191.206C264.761 190.76 260.903 190.262 258.098 190.122C256.698 190.05 255.557 190.055 254.774 190.086L253.872 190.122C253.766 190.136 253.658 190.136 253.551 190.122C253.655 190.097 253.76 190.079 253.867 190.071C254.069 190.039 254.386 190.014 254.769 189.977C255.881 189.904 256.995 189.889 258.108 189.931C260.929 190.024 264.792 190.491 269.059 190.936L279.995 192.145L283.308 192.544L284.205 192.663C284.311 192.668 284.415 192.686 284.516 192.715Z" fill="black"/>
<path d="M283.861 198.512C283.788 198.512 284.022 195.919 284.379 192.699C284.737 189.479 285.1 186.913 285.173 186.923C285.245 186.933 285.012 189.516 284.654 192.73C284.296 195.945 283.933 198.517 283.861 198.512Z" fill="black"/>
<g clip-path="url(#clip3_1316_19857)">
<path fill-rule="evenodd" clip-rule="evenodd" d="M55.7026 120.002C54.356 120.002 53.3596 121.181 53.4042 122.458C53.447 123.686 53.3914 125.276 52.991 126.573C52.5892 127.873 51.9102 128.697 50.8008 128.803V129.997C51.9102 130.103 52.5892 130.927 52.991 132.227C53.3914 133.524 53.447 135.114 53.4042 136.341C53.3595 137.619 54.3559 138.798 55.7028 138.798H69.5008C70.8474 138.798 71.8436 137.619 71.799 136.341C71.7562 135.114 71.8118 133.524 72.2122 132.227C72.614 130.927 73.2914 130.103 74.4008 129.997V128.803C73.2914 128.697 72.614 127.873 72.2122 126.573C71.8117 125.276 71.7562 123.686 71.799 122.458C71.8436 121.181 70.8474 120.002 69.5008 120.002H55.7024H55.7026ZM66.8008 131.572C66.8008 133.332 65.488 134.399 63.3094 134.399H59.6008C59.4947 134.399 59.3929 134.357 59.3179 134.282C59.2429 134.207 59.2008 134.105 59.2008 133.999V124.801C59.2008 124.695 59.2429 124.593 59.3179 124.518C59.3929 124.443 59.4947 124.401 59.6008 124.401H63.2883C65.1049 124.401 66.2971 125.385 66.2971 126.895C66.2971 127.955 65.4951 128.905 64.4733 129.071V129.126C65.8642 129.279 66.8008 130.242 66.8008 131.572ZM62.905 125.669H60.7904V128.655H62.5714C63.9482 128.655 64.7074 128.101 64.7074 127.11C64.7073 126.182 64.0546 125.669 62.905 125.669ZM60.7904 129.84V133.131H62.9828C64.4163 133.131 65.1756 132.556 65.1756 131.475C65.1756 130.394 64.395 129.84 62.8906 129.84H60.7904V129.84Z" fill="#7952B3"/>
</g>
</g>
<defs>
<clipPath id="clip0_1316_19857">
<rect width="295.053" height="200" fill="white"/>
</clipPath>
<clipPath id="clip1_1316_19857">
<rect width="23.6" height="18.8" fill="white" transform="translate(209.203 57.2001)"/>
</clipPath>
<clipPath id="clip2_1316_19857">
<rect width="23.6" height="18.8" fill="white" transform="translate(90 12.4)"/>
</clipPath>
<clipPath id="clip3_1316_19857">
<rect width="23.6" height="18.8" fill="white" transform="translate(50.8008 120)"/>
</clipPath>
</defs>
</svg>
