<svg width="329" height="200" viewBox="0 0 329 200" fill="none" xmlns="http://www.w3.org/2000/svg">
<g clip-path="url(#clip0_1204_21371)">
<path d="M203.503 200C274.027 200 331.198 196.662 331.198 192.545C331.198 188.427 274.027 185.089 203.503 185.089C132.98 185.089 75.8086 188.427 75.8086 192.545C75.8086 196.662 132.98 200 203.503 200Z" fill="#F5F5F5"/>
<path d="M312.265 4.08997H93.0914C89.4921 4.08997 86.5742 7.00781 86.5742 10.6072V145.592C86.5742 149.191 89.4921 152.109 93.0914 152.109H312.265C315.864 152.109 318.782 149.191 318.782 145.592V10.6072C318.782 7.00781 315.864 4.08997 312.265 4.08997Z" fill="#407BFF"/>
<path d="M232.383 192.545H178.161C183.472 172.513 180.291 150.931 168.625 130.908H222.847C234.513 150.931 237.695 172.513 232.383 192.545Z" fill="#407BFF"/>
<path d="M229.552 192.545H175.321C180.632 172.513 177.46 150.931 165.785 130.908H220.017C231.728 150.931 234.864 172.513 229.552 192.545Z" fill="#407BFF"/>
<path d="M231.401 159.696H176.581C174.698 149.547 171.044 139.808 165.785 130.926H220.606C225.857 139.812 229.51 149.549 231.401 159.696Z" fill="#407BFF"/>
<path d="M229.552 192.545H175.321C180.632 172.513 177.46 150.931 165.785 130.908H220.017C231.728 150.931 234.864 172.513 229.552 192.545Z" fill="#407BFF"/>
<path d="M309.183 4.08997H90.0094C86.41 4.08997 83.4922 7.00781 83.4922 10.6072V145.592C83.4922 149.191 86.41 152.109 90.0094 152.109H309.183C312.782 152.109 315.7 149.191 315.7 145.592V10.6072C315.7 7.00781 312.782 4.08997 309.183 4.08997Z" fill="#407BFF"/>
<path d="M219.493 188.257H157.584C156.447 188.257 155.357 188.709 154.553 189.513C153.749 190.317 153.297 191.408 153.297 192.545H223.78C223.78 191.408 223.329 190.317 222.525 189.513C221.721 188.709 220.63 188.257 219.493 188.257Z" fill="#407BFF"/>
<path d="M315.7 11.577H83.4922V130.89H315.7V11.577Z" fill="#407BFF"/>
<path opacity="0.84" d="M315.618 11.577H83.4102V130.89H315.618V11.577Z" fill="#FAFAFA"/>
<path opacity="0.23" d="M281.952 20.8044H125.512C124.09 20.8044 122.938 21.957 122.938 23.3787V114.891C122.938 116.313 124.09 117.466 125.512 117.466H281.952C283.373 117.466 284.526 116.313 284.526 114.891V23.3787C284.526 21.957 283.373 20.8044 281.952 20.8044Z" fill="#407BFF"/>
<path opacity="0.67" d="M283.85 27.4576V114.891C283.85 115.574 283.579 116.229 283.096 116.712C282.613 117.194 281.958 117.466 281.276 117.466H124.836C124.154 117.463 123.501 117.191 123.018 116.709C122.536 116.227 122.264 115.573 122.262 114.891V27.4576H283.85Z" fill="#FAFAFA"/>
<path opacity="0.41" d="M283.376 30.8749H122.73V114.039H283.376V30.8749Z" fill="white"/>
<path opacity="0.19" d="M250.573 88.2968C246.351 88.2968 242.224 87.0448 238.714 84.6993C235.203 82.3537 232.467 79.0199 230.851 75.1194C229.236 71.2188 228.813 66.9268 229.637 62.786C230.46 58.6453 232.493 54.8417 235.479 51.8564C238.464 48.8711 242.268 46.838 246.408 46.0144C250.549 45.1907 254.841 45.6134 258.742 47.2291C262.642 48.8447 265.976 51.5807 268.322 55.0911C270.667 58.6015 271.919 62.7286 271.919 66.9505C271.912 72.6097 269.661 78.035 265.659 82.0367C261.657 86.0383 256.232 88.2896 250.573 88.2968ZM250.573 45.8308C246.396 45.8308 242.313 47.0695 238.839 49.3901C235.366 51.7108 232.659 55.0092 231.061 58.8683C229.462 62.7275 229.044 66.9739 229.859 71.0708C230.674 75.1676 232.685 78.9307 235.639 81.8844C238.593 84.838 242.356 86.8495 246.453 87.6644C250.549 88.4793 254.796 88.061 258.655 86.4625C262.514 84.864 265.813 82.1571 268.133 78.684C270.454 75.2108 271.693 71.1276 271.693 66.9505C271.688 61.3507 269.461 55.9816 265.501 52.0219C261.542 48.0623 256.173 45.8356 250.573 45.8308Z" fill="#407BFF"/>
<path opacity="0.19" d="M214.686 88.2968C210.464 88.2968 206.337 87.0448 202.827 84.6993C199.316 82.3537 196.58 79.0199 194.965 75.1194C193.349 71.2188 192.926 66.9268 193.75 62.786C194.574 58.6453 196.607 54.8417 199.592 51.8564C202.577 48.8711 206.381 46.838 210.522 46.0144C214.662 45.1907 218.954 45.6134 222.855 47.2291C226.756 48.8447 230.089 51.5807 232.435 55.0911C234.78 58.6015 236.032 62.7286 236.032 66.9505C236.023 72.6089 233.771 78.0329 229.77 82.034C225.769 86.0351 220.345 88.2872 214.686 88.2968ZM214.686 45.8308C210.509 45.8308 206.426 47.0695 202.953 49.3901C199.48 51.7108 196.773 55.0092 195.174 58.8683C193.576 62.7275 193.157 66.9739 193.972 71.0708C194.787 75.1676 196.799 78.9307 199.752 81.8844C202.706 84.838 206.469 86.8495 210.566 87.6644C214.663 88.4793 218.909 88.061 222.768 86.4625C226.627 84.864 229.926 82.1571 232.247 78.684C234.567 75.2108 235.806 71.1276 235.806 66.9505C235.799 61.3514 233.571 55.9837 229.612 52.0246C225.653 48.0654 220.285 45.838 214.686 45.8308Z" fill="#407BFF"/>
<path opacity="0.19" d="M271.809 100.225H145.816C145.801 100.226 145.786 100.222 145.772 100.216C145.759 100.21 145.746 100.202 145.736 100.19C145.726 100.179 145.718 100.166 145.713 100.152C145.708 100.138 145.706 100.123 145.707 100.108V96.5998C145.706 96.5847 145.708 96.5696 145.713 96.5553C145.718 96.5411 145.726 96.528 145.736 96.5169C145.746 96.5058 145.759 96.497 145.772 96.491C145.786 96.485 145.801 96.4819 145.816 96.4819H271.809C271.824 96.4819 271.839 96.485 271.853 96.491C271.867 96.497 271.879 96.5058 271.889 96.5169C271.9 96.528 271.908 96.5411 271.912 96.5553C271.917 96.5696 271.919 96.5847 271.918 96.5998V100.108C271.919 100.123 271.917 100.138 271.912 100.152C271.908 100.166 271.9 100.179 271.889 100.19C271.879 100.202 271.867 100.21 271.853 100.216C271.839 100.222 271.824 100.226 271.809 100.225ZM145.898 99.9989H271.691V96.7085H145.898V99.9989Z" fill="#407BFF"/>
<path opacity="0.19" d="M278.864 106.353H127.273C127.258 106.353 127.243 106.35 127.229 106.344C127.216 106.338 127.203 106.329 127.193 106.318C127.183 106.307 127.175 106.294 127.17 106.279C127.165 106.265 127.163 106.25 127.164 106.235V38.6882C127.163 38.6731 127.165 38.658 127.17 38.6437C127.175 38.6295 127.183 38.6164 127.193 38.6053C127.203 38.5942 127.216 38.5854 127.229 38.5794C127.243 38.5733 127.258 38.5703 127.273 38.5703H278.864C278.879 38.5703 278.894 38.5733 278.907 38.5794C278.921 38.5854 278.934 38.5942 278.944 38.6053C278.954 38.6164 278.962 38.6295 278.967 38.6437C278.972 38.658 278.974 38.6731 278.972 38.6882V106.217C278.977 106.233 278.977 106.25 278.973 106.267C278.97 106.283 278.963 106.299 278.952 106.312C278.941 106.325 278.928 106.336 278.913 106.343C278.897 106.35 278.881 106.353 278.864 106.353ZM127.418 106.126H278.791V38.7969H127.391L127.418 106.126Z" fill="#407BFF"/>
<path d="M276.84 24.1492C276.838 24.4202 276.917 24.6857 277.066 24.912C277.215 25.1383 277.429 25.3151 277.678 25.4201C277.928 25.5251 278.204 25.5535 278.47 25.5017C278.736 25.4499 278.981 25.3203 279.173 25.1292C279.365 24.9382 279.497 24.6943 279.55 24.4286C279.604 24.1628 279.577 23.8872 279.474 23.6366C279.371 23.3859 279.195 23.1716 278.97 23.0208C278.745 22.87 278.48 22.7895 278.209 22.7895C278.029 22.7883 277.852 22.8226 277.685 22.8904C277.519 22.9582 277.369 23.0581 277.241 23.1845C277.114 23.3109 277.013 23.4612 276.944 23.6267C276.875 23.7923 276.84 23.9698 276.84 24.1492Z" fill="white"/>
<path d="M273.361 25.5179C274.117 25.5179 274.73 24.9051 274.73 24.1492C274.73 23.3932 274.117 22.7805 273.361 22.7805C272.605 22.7805 271.992 23.3932 271.992 24.1492C271.992 24.9051 272.605 25.5179 273.361 25.5179Z" fill="white"/>
<path d="M268.513 25.5179C269.269 25.5179 269.882 24.9051 269.882 24.1492C269.882 23.3932 269.269 22.7805 268.513 22.7805C267.757 22.7805 267.145 23.3932 267.145 24.1492C267.145 24.9051 267.757 25.5179 268.513 25.5179Z" fill="white"/>
<path d="M283.85 27.2853H122.262V27.6298H283.85V27.2853Z" fill="#407BFF"/>
<path opacity="0.47" d="M145.555 11.5861L124.227 130.899H145.337L166.665 11.5861H145.555Z" fill="#FAFAFA"/>
<path opacity="0.47" d="M171.815 11.5861L150.496 130.899H161.047L182.375 11.5861H171.815Z" fill="#FAFAFA"/>
<path opacity="0.4" d="M289.793 11.5861L268.465 130.899H273.749L295.068 11.5861H289.793Z" fill="white"/>
<path opacity="0.4" d="M280.504 11.5861L259.176 130.899H264.46L285.779 11.5861H280.504Z" fill="white"/>
<path d="M234.24 188.257H223.155C222.017 188.257 220.927 188.709 220.123 189.513C219.319 190.317 218.867 191.408 218.867 192.545H238.518C238.52 191.982 238.41 191.425 238.195 190.905C237.981 190.385 237.666 189.912 237.269 189.514C236.871 189.115 236.399 188.799 235.879 188.584C235.36 188.368 234.803 188.257 234.24 188.257Z" fill="#407BFF"/>
<path d="M204.035 141.776C204.035 142.654 203.775 143.513 203.287 144.243C202.799 144.974 202.105 145.543 201.294 145.879C200.482 146.215 199.589 146.303 198.727 146.132C197.866 145.961 197.074 145.538 196.453 144.916C195.832 144.295 195.409 143.504 195.238 142.642C195.066 141.781 195.154 140.888 195.49 140.076C195.827 139.265 196.396 138.571 197.126 138.083C197.857 137.595 198.715 137.334 199.594 137.334C200.772 137.334 201.902 137.802 202.734 138.635C203.567 139.468 204.035 140.598 204.035 141.776Z" fill="#407BFF"/>
<path d="M204.612 181.414C204.157 165.648 204.197 69.4995 205.112 61.603L206.357 59.884C206.357 59.884 205.784 61.412 205.646 88.4341C205.508 115.456 205.323 177.404 205.475 181.414H204.612Z" fill="#407BFF"/>
<path d="M212.005 122.938C217.273 114.165 223.043 107.929 227.218 104.497C231.394 101.066 220.448 123.346 216.167 131.638C211.886 139.93 206.611 149.097 204.912 156.842C204.582 141.089 206.729 131.71 212.005 122.938Z" fill="#407BFF"/>
<path d="M205.02 62.7094C206.1 52.7383 204.638 43.5246 210.064 31.8477C215.491 20.1708 219.621 11.0032 224.856 6.74209C226.114 5.71468 221.814 26.0126 216.815 37.4458C213.291 45.5135 212.159 51.2762 208.418 56.7162C207.542 57.9807 205.02 62.7094 205.02 62.7094Z" fill="#407BFF"/>
<path d="M204.996 115.911C206.089 103.602 207.077 91.7468 214.144 74.2348C215.863 69.9671 231.794 40.146 235.95 36.9189C237.985 35.3316 230.866 55.1487 223.911 71.8243C218.701 84.3376 216.541 87.9204 210.739 102.436C208.467 108.185 204.996 115.911 204.996 115.911Z" fill="#407BFF"/>
<path d="M195.72 55.1685C189.793 47.1402 184.063 41.7134 179.855 38.8749C175.646 36.0364 187.099 55.7744 192.605 64.3888C198.111 73.0032 203.097 80.4783 205.375 87.9468C204.282 72.2261 201.648 63.2034 195.72 55.1685Z" fill="#407BFF"/>
<path d="M204.993 137.723C203.873 129.162 201.568 119.105 198.275 111.65C194.982 104.194 189.911 92.761 185.88 88.8819C184.912 87.9467 190.095 110.187 193.428 116.102C196.76 122.016 199.197 127.594 201.291 130.946C201.989 132.033 204.993 137.723 204.993 137.723Z" fill="#407BFF"/>
<path opacity="0.5" d="M204.612 181.414C204.157 165.648 204.197 69.4995 205.112 61.603L206.357 59.884C206.357 59.884 205.784 61.412 205.646 88.4341C205.508 115.456 205.323 177.404 205.475 181.414H204.612Z" fill="white"/>
<path opacity="0.5" d="M212.005 122.938C217.273 114.165 223.043 107.929 227.218 104.497C231.394 101.066 220.448 123.346 216.167 131.638C211.886 139.93 206.611 149.097 204.912 156.842C204.582 141.089 206.729 131.71 212.005 122.938Z" fill="white"/>
<path opacity="0.5" d="M205.02 62.7094C206.1 52.7383 204.638 43.5246 210.064 31.8477C215.491 20.1708 219.621 11.0032 224.856 6.74209C226.114 5.71468 221.814 26.0126 216.815 37.4458C213.291 45.5135 212.159 51.2762 208.418 56.7162C207.542 57.9807 205.02 62.7094 205.02 62.7094Z" fill="white"/>
<path opacity="0.5" d="M204.996 115.911C206.089 103.602 207.077 91.7468 214.144 74.2348C215.863 69.9671 231.794 40.146 235.95 36.9189C237.985 35.3316 230.866 55.1487 223.911 71.8243C218.701 84.3376 216.541 87.9204 210.739 102.436C208.467 108.185 204.996 115.911 204.996 115.911Z" fill="white"/>
<path opacity="0.5" d="M195.72 55.1685C189.793 47.1402 184.063 41.7134 179.855 38.8749C175.646 36.0364 187.099 55.7744 192.605 64.3888C198.111 73.0032 203.097 80.4783 205.375 87.9468C204.282 72.2261 201.648 63.2034 195.72 55.1685Z" fill="white"/>
<path opacity="0.5" d="M204.993 137.723C203.873 129.162 201.568 119.105 198.275 111.65C194.982 104.194 189.911 92.761 185.88 88.8819C184.912 87.9467 190.095 110.187 193.428 116.102C196.76 122.016 199.197 127.594 201.291 130.946C201.989 132.033 204.993 137.723 204.993 137.723Z" fill="white"/>
<path d="M217.532 192.545H192.571L190.688 178.194H219.415L217.532 192.545Z" fill="#263238"/>
<path d="M221.276 179.867H188.827L187.898 175.026H222.205L221.276 179.867Z" fill="#263238"/>
<path d="M141.953 25.1464H39.7539C36.2546 25.1464 33.418 27.9831 33.418 31.4823V186.2C33.418 189.699 36.2546 192.536 39.7539 192.536H141.953C145.452 192.536 148.289 189.699 148.289 186.2V31.4823C148.289 27.9831 145.452 25.1464 141.953 25.1464Z" fill="#407BFF"/>
<path d="M138.914 25.1464H36.7148C33.2156 25.1464 30.3789 27.9831 30.3789 31.4823V186.2C30.3789 189.699 33.2156 192.536 36.7148 192.536H138.914C142.413 192.536 145.25 189.699 145.25 186.2V31.4823C145.25 27.9831 142.413 25.1464 138.914 25.1464Z" fill="#407BFF"/>
<path d="M145.25 32.4249H30.3789V177.725H145.25V32.4249Z" fill="#FAFAFA"/>
<path opacity="0.1" d="M145.25 32.4249H30.3789V177.725H145.25V32.4249Z" fill="#407BFF"/>
<path opacity="0.48" d="M71.1066 32.7786L44.8203 178.087H64.8976L91.1839 32.7786H71.1066Z" fill="#FAFAFA"/>
<path opacity="0.48" d="M97.1457 32.4249L70.8594 177.725H80.8935L107.18 32.4249H97.1457Z" fill="#FAFAFA"/>
<path d="M87.8107 189.354C90.1935 189.354 92.1252 187.423 92.1252 185.04C92.1252 182.657 90.1935 180.725 87.8107 180.725C85.4278 180.725 83.4961 182.657 83.4961 185.04C83.4961 187.423 85.4278 189.354 87.8107 189.354Z" fill="#407BFF"/>
<path d="M88.8066 28.5001C88.8066 28.6973 88.7481 28.8901 88.6386 29.0541C88.529 29.218 88.3733 29.3458 88.1911 29.4213C88.0089 29.4967 87.8085 29.5165 87.615 29.478C87.4216 29.4396 87.244 29.3446 87.1045 29.2051C86.9651 29.0657 86.8701 28.888 86.8317 28.6946C86.7932 28.5012 86.8129 28.3007 86.8884 28.1186C86.9639 27.9364 87.0917 27.7806 87.2556 27.6711C87.4196 27.5615 87.6124 27.5031 87.8096 27.5031C88.074 27.5031 88.3276 27.6081 88.5146 27.7951C88.7016 27.9821 88.8066 28.2357 88.8066 28.5001Z" fill="#407BFF"/>
<path d="M176.169 87.9607L179.952 87.2516C180.013 87.2415 180.07 87.2182 180.121 87.1833C180.171 87.1484 180.213 87.1028 180.244 87.0498C180.275 86.9967 180.294 86.9375 180.299 86.8764C180.304 86.8153 180.296 86.7537 180.274 86.6962L177.299 77.8848C177.253 77.7577 177.164 77.6506 177.047 77.5819C176.93 77.5132 176.793 77.487 176.66 77.5079L172.881 78.212C172.82 78.2219 172.762 78.2453 172.711 78.2805C172.66 78.3157 172.618 78.3619 172.587 78.4155C172.556 78.4692 172.537 78.5291 172.533 78.5908C172.528 78.6525 172.537 78.7146 172.559 78.7724L175.534 87.5838C175.579 87.7111 175.667 87.8186 175.783 87.8875C175.899 87.9564 176.036 87.9823 176.169 87.9607Z" fill="#407BFF"/>
<path opacity="0.6" d="M176.169 87.9607L179.952 87.2516C180.013 87.2415 180.07 87.2182 180.121 87.1833C180.171 87.1484 180.213 87.1028 180.244 87.0498C180.275 86.9967 180.294 86.9375 180.299 86.8764C180.304 86.8153 180.296 86.7537 180.274 86.6962L177.299 77.8848C177.253 77.7577 177.164 77.6506 177.047 77.5819C176.93 77.5132 176.793 77.487 176.66 77.5079L172.881 78.212C172.82 78.2219 172.762 78.2453 172.711 78.2805C172.66 78.3157 172.618 78.3619 172.587 78.4155C172.556 78.4692 172.537 78.5291 172.533 78.5908C172.528 78.6525 172.537 78.7146 172.559 78.7724L175.534 87.5838C175.579 87.7111 175.667 87.8186 175.783 87.8875C175.899 87.9564 176.036 87.9823 176.169 87.9607Z" fill="black"/>
<path d="M176.631 87.8913L180.409 87.1872C180.47 87.1773 180.529 87.1539 180.579 87.1187C180.63 87.0835 180.673 87.0374 180.704 86.9837C180.735 86.9301 180.753 86.8702 180.758 86.8084C180.763 86.7467 180.754 86.6847 180.732 86.6269L177.756 77.8154C177.71 77.6883 177.621 77.5813 177.504 77.5126C177.387 77.4438 177.251 77.4177 177.117 77.4386L173.338 78.1477C173.277 78.1569 173.219 78.1797 173.168 78.2143C173.117 78.249 173.075 78.2947 173.044 78.348C173.013 78.4013 172.994 78.4609 172.99 78.5223C172.985 78.5838 172.994 78.6455 173.016 78.703L175.991 87.5145C176.038 87.6416 176.127 87.7486 176.244 87.8173C176.36 87.8861 176.497 87.9122 176.631 87.8913Z" fill="#407BFF"/>
<path opacity="0.3" d="M176.631 87.8913L180.409 87.1872C180.47 87.1773 180.529 87.1539 180.579 87.1187C180.63 87.0835 180.673 87.0374 180.704 86.9837C180.735 86.9301 180.753 86.8702 180.758 86.8084C180.763 86.7467 180.754 86.6847 180.732 86.6269L177.756 77.8154C177.71 77.6883 177.621 77.5813 177.504 77.5126C177.387 77.4438 177.251 77.4177 177.117 77.4386L173.338 78.1477C173.277 78.1569 173.219 78.1797 173.168 78.2143C173.117 78.249 173.075 78.2947 173.044 78.348C173.013 78.4013 172.994 78.4609 172.99 78.5223C172.985 78.5838 172.994 78.6455 173.016 78.703L175.991 87.5145C176.038 87.6416 176.127 87.7486 176.244 87.8173C176.36 87.8861 176.497 87.9122 176.631 87.8913Z" fill="black"/>
<path d="M175.794 86.9144L180.534 86.0268L177.866 78.1228L173.121 79.0054L175.794 86.9144Z" fill="#FAFAFA"/>
<path opacity="0.14" d="M175.794 86.9144L180.534 86.0268L177.866 78.1228L173.121 79.0054L175.794 86.9144Z" fill="#407BFF"/>
<path d="M173.121 82.4219L173.493 81.5591L177.063 85.5706L173.974 85.8136L173.121 82.4219Z" fill="#E58A7B"/>
<path d="M112.12 51.3117C116.345 51.3117 119.771 47.8862 119.771 43.6606C119.771 39.435 116.345 36.0095 112.12 36.0095C107.894 36.0095 104.469 39.435 104.469 43.6606C104.469 47.8862 107.894 51.3117 112.12 51.3117Z" fill="#407BFF"/>
<path d="M112.12 52.7546C111.595 52.755 111.071 52.7102 110.553 52.6207L110.637 52.1248C111.622 52.2929 112.628 52.2929 113.613 52.1248L113.697 52.6207C113.176 52.7097 112.649 52.7545 112.12 52.7546ZM107.593 51.5447C106.677 51.0177 105.859 50.3347 105.178 49.5265L105.56 49.2042C106.202 49.9708 106.974 50.6187 107.841 51.1182L107.593 51.5447ZM116.657 51.5447L116.409 51.1182C117.276 50.6187 118.048 49.9708 118.69 49.2042L119.067 49.5216C118.386 50.3216 117.571 50.9962 116.657 51.5149V51.5447ZM103.596 46.8043C103.234 45.8095 103.049 44.7588 103.051 43.7002H103.547C103.539 44.6985 103.707 45.6904 104.043 46.6307L103.596 46.8043ZM120.644 46.8043L120.178 46.6357C120.513 45.6954 120.681 44.7035 120.674 43.7051H121.011H121.17C121.172 44.7476 120.994 45.7827 120.644 46.7646V46.8043ZM104.052 40.7895L103.586 40.6209C103.947 39.6253 104.479 38.7006 105.158 37.8887L105.535 38.206C104.898 38.9625 104.397 39.823 104.052 40.7498V40.7895ZM120.168 40.7399C119.826 39.8033 119.322 38.934 118.68 38.1713L119.062 37.849C119.744 38.6562 120.281 39.5756 120.649 40.5663L120.168 40.7399ZM107.811 36.2771L107.563 35.8507C108.482 35.3135 109.49 34.9457 110.538 34.7648L110.623 35.2606C109.635 35.4229 108.683 35.7569 107.811 36.2474V36.2771ZM116.38 36.2771C115.513 35.7838 114.566 35.448 113.583 35.2854L113.667 34.7896C114.714 34.968 115.721 35.3288 116.642 35.8557L116.38 36.2771Z" fill="#407BFF"/>
<path d="M171.644 82.3525H170.156V82.8484H171.644V82.3525Z" fill="#407BFF"/>
<path d="M167.176 82.8484H164.201V82.3526H167.176V82.8484ZM161.186 82.5063C160.201 82.2342 159.265 81.811 158.409 81.2518L158.682 80.8402C159.494 81.3682 160.382 81.7679 161.315 82.0253L161.186 82.5063ZM156.138 79.2237C155.49 78.4372 154.967 77.5559 154.586 76.6105L155.047 76.427C155.414 77.3246 155.915 78.1607 156.535 78.9063L156.138 79.2237ZM153.892 73.6453C153.892 73.3924 153.892 73.1494 153.892 72.8816C153.891 72.1172 153.978 71.3553 154.15 70.6106L154.646 70.7246C154.483 71.432 154.401 72.1557 154.403 72.8816C154.403 73.1246 154.403 73.3775 154.403 73.6105L153.892 73.6453ZM155.687 68.042L155.261 67.7891C155.782 66.9118 156.434 66.1192 157.195 65.4388L157.527 65.8107C156.804 66.4514 156.184 67.1989 155.687 68.0272V68.042ZM159.952 64.2289L159.748 63.7776C160.677 63.3578 161.666 63.0852 162.679 62.9694L162.738 63.4652C161.777 63.5715 160.837 63.824 159.952 64.214V64.2289ZM171.971 63.3958H171.644V62.9H171.971C172.834 62.8994 173.693 62.7826 174.525 62.5528L174.659 63.0487C173.782 63.2807 172.878 63.3924 171.971 63.3809V63.3958ZM168.664 63.3958H165.689V62.9H168.664V63.3958ZM177.431 61.7694L177.158 61.3578C177.97 60.8266 178.695 60.1745 179.31 59.424L179.692 59.7364C179.047 60.5222 178.284 61.2031 177.431 61.7545V61.7694ZM181.244 57.1182L180.783 56.9347C181.14 56.0323 181.359 55.0811 181.432 54.1133L181.928 54.153C181.849 55.1652 181.619 56.1598 181.244 57.1033V57.1182ZM181.204 51.2324C180.982 50.2878 180.615 49.383 180.118 48.5497L180.545 48.2969C181.068 49.1731 181.452 50.1247 181.685 51.1183L181.204 51.2324ZM178.274 46.3233C177.549 45.68 176.732 45.1501 175.849 44.7515L176.047 44.3002C176.978 44.7161 177.84 45.273 178.601 45.9514L178.274 46.3233ZM173.057 43.9878C172.698 43.9481 172.337 43.9282 171.976 43.9283H170.107V43.4325H171.971C172.352 43.4285 172.733 43.4501 173.112 43.4969L173.057 43.9878ZM167.107 43.9283H164.132V43.4325H167.107V43.9283ZM161.156 43.9283H158.181V43.4325H161.156V43.9283ZM155.206 43.9283H152.231V43.4325H155.206V43.9283ZM149.256 43.9283H146.281V43.4325H149.256V43.9283ZM143.305 43.9283H140.33V43.4325H143.305V43.9283ZM137.355 43.9283H134.38V43.4325H137.355V43.9283ZM131.405 43.9283H128.43V43.4325H131.405V43.9283Z" fill="#407BFF"/>
<path d="M125.37 43.4126H123.883V43.9085H125.37V43.4126Z" fill="#407BFF"/>
<path d="M112.331 54.3513H111.914V55.5959H112.331V54.3513Z" fill="#407BFF"/>
<path d="M60.3796 136.694H59.968V134.215H60.3796V136.694ZM60.3796 131.735H59.968V129.256H60.3796V131.735ZM105.637 130.461C105.151 130.46 104.668 130.407 104.194 130.302L104.283 129.901C105.072 130.069 105.886 130.089 106.683 129.96L106.747 130.367C106.376 130.42 106.002 130.443 105.627 130.436L105.637 130.461ZM80.0801 130.461L80.0553 130.044C80.8601 129.995 81.6479 129.791 82.3759 129.444L82.5545 129.816C81.7729 130.176 80.9294 130.381 80.0702 130.421L80.0801 130.461ZM77.5363 130.109C76.7205 129.838 75.9645 129.412 75.3099 128.854L75.5777 128.537C76.1913 129.061 76.9 129.462 77.6653 129.717L77.5363 130.109ZM109.133 129.459L108.914 129.107C109.601 128.684 110.2 128.134 110.68 127.486L111.017 127.734C110.503 128.419 109.864 128.999 109.133 129.444V129.459ZM101.838 129.276C101.13 128.791 100.52 128.175 100.043 127.461L100.391 127.228C100.838 127.9 101.41 128.479 102.076 128.934L101.838 129.276ZM84.5924 128.284L84.29 128.006C84.8337 127.41 85.2579 126.715 85.5395 125.958L85.9313 126.102C85.626 126.898 85.1716 127.629 84.5924 128.254V128.284ZM73.7133 126.876C73.3118 126.115 73.0625 125.283 72.9794 124.426L73.3909 124.387C73.4697 125.189 73.7038 125.969 74.0802 126.682L73.7133 126.876ZM60.3796 126.727H59.968V124.248H60.3796V126.727ZM112.128 125.413L111.726 125.309C111.856 124.793 111.923 124.264 111.924 123.732V122.884H112.341V123.732C112.336 124.299 112.261 124.864 112.118 125.413H112.128ZM99.0567 125.086C98.9656 124.64 98.9191 124.187 98.9179 123.732V122.562H99.3344V123.732C99.335 124.158 99.3782 124.584 99.4633 125.001L99.0567 125.086ZM86.3428 123.559H85.9313V121.079H86.3428V123.559ZM73.3562 121.887H72.9397V119.408H73.3562V121.887ZM60.3647 121.739H59.9531V119.259H60.3796L60.3647 121.739ZM112.326 120.395H111.909V117.916H112.326V120.395ZM99.3344 120.068H98.9179V118.312C98.9196 118.075 98.9064 117.839 98.8782 117.603L99.2897 117.554C99.3194 117.805 99.3343 118.059 99.3344 118.312V120.068ZM86.3428 118.58H85.9313V118.317C85.9299 117.549 86.0607 116.785 86.318 116.061L86.7098 116.2C86.4663 116.879 86.3421 117.596 86.3428 118.317V118.58ZM72.7959 116.964C72.6226 116.175 72.2976 115.427 71.8389 114.762L72.181 114.529C72.6609 115.239 72.9977 116.036 73.1728 116.874L72.7959 116.964ZM60.5432 116.825L60.1416 116.726C60.345 115.89 60.7088 115.102 61.2126 114.405L61.5448 114.648C61.0782 115.302 60.74 116.039 60.5482 116.82L60.5432 116.825ZM112.326 115.412H111.909V112.932H112.326V115.412ZM98.1592 115.322C97.775 114.612 97.2582 113.983 96.6369 113.468L96.8997 113.15C97.5643 113.701 98.1165 114.374 98.5261 115.134L98.1592 115.322ZM87.9345 114.142L87.6221 113.864C88.1936 113.221 88.8839 112.694 89.6552 112.312L89.8386 112.684C89.1173 113.041 88.4722 113.534 87.9395 114.137L87.9345 114.142ZM70.1331 113.081C69.4629 112.633 68.7117 112.32 67.9216 112.159L68.0059 111.752C68.8481 111.926 69.6481 112.263 70.3612 112.744L70.1331 113.081ZM63.2903 113.007L63.0721 112.655C63.7965 112.19 64.6053 111.874 65.4522 111.722L65.5266 112.134C64.7336 112.276 63.9757 112.57 63.2952 113.002L63.2903 113.007ZM94.5295 112.322C93.9169 112.128 93.278 112.029 92.6353 112.03C92.4518 112.03 92.308 112.03 92.1394 112.03L92.1097 111.613C92.2783 111.613 92.4518 111.613 92.6055 111.613C93.2916 111.613 93.9736 111.717 94.6287 111.921L94.5295 112.322ZM112.326 110.428H111.909V107.949H112.326V110.428ZM112.326 105.445H111.909V102.965H112.326V105.445ZM112.326 100.461H111.909V97.982H112.326V100.461ZM112.326 95.5027H111.909V93.0234H112.326V95.5027ZM112.326 90.5193H111.909V88.04H112.326V90.5193ZM112.326 85.531H111.909V83.0517H112.326V85.531ZM112.326 80.5724H111.909V78.0931H112.326V80.5724ZM112.326 75.589H111.909V73.1097H112.326V75.589ZM112.326 70.6056H111.909V68.1263H112.326V70.6056ZM112.326 65.647H111.909V63.1677H112.326V65.647ZM112.326 60.6636H111.909V58.1843H112.326V60.6636Z" fill="#407BFF"/>
<path d="M60.3736 139.238H59.957V140.482H60.3736V139.238Z" fill="#407BFF"/>
<path d="M111.183 47.3943C110.986 47.3925 110.798 47.3143 110.658 47.1761L108.059 44.5778C107.921 44.4377 107.844 44.2489 107.844 44.0522C107.844 43.8555 107.921 43.6667 108.059 43.5266C108.128 43.457 108.21 43.4018 108.3 43.3641C108.39 43.3264 108.487 43.307 108.585 43.307C108.683 43.307 108.779 43.3264 108.87 43.3641C108.96 43.4018 109.042 43.457 109.11 43.5266L111.183 45.5993L115.125 41.6572C115.266 41.5258 115.453 41.4543 115.645 41.4577C115.838 41.4611 116.022 41.5392 116.158 41.6754C116.295 41.8117 116.373 41.9956 116.376 42.1883C116.379 42.3809 116.308 42.5674 116.176 42.7084L111.714 47.1712C111.645 47.242 111.562 47.2982 111.471 47.3365C111.38 47.3749 111.282 47.3945 111.183 47.3943Z" fill="white"/>
<path d="M204.428 62.2305C203.932 64.7098 202.851 69.6684 204.577 71.3295C204.577 71.3295 203.902 73.8088 199.326 73.8088C194.288 73.8088 196.916 71.3295 196.916 71.3295C199.668 70.675 199.593 68.637 199.117 66.723L204.428 62.2305Z" fill="#E58A7B"/>
<path d="M194.398 72.1775C194.398 71.8056 194.964 71.4237 195.787 71.1262C196.228 70.9626 196.66 70.3428 197.329 70.2287C197.825 70.1444 198.464 70.5709 199.099 70.5262C199.63 70.4866 200.185 69.9709 200.8 69.9659C201.415 69.961 201.911 70.4618 202.516 70.4965C202.893 70.4965 203.269 70.0403 203.587 70.07C203.904 70.0998 204.246 70.6403 204.549 70.6948C204.95 70.7642 205.402 70.3626 205.674 70.4519C206.111 70.5907 206.17 71.1808 206.364 71.3394C206.919 71.7907 207.355 72.2171 206.859 72.2965C205.635 72.4898 205.585 71.8006 204.345 71.8006C203.106 71.8006 203.106 72.2965 201.866 72.2717C200.626 72.2469 200.631 71.7758 199.387 71.7758C198.142 71.7758 198.167 72.1179 196.907 72.2469C196.075 72.3864 195.222 72.3629 194.398 72.1775Z" fill="#407BFF"/>
<g opacity="0.6">
<path d="M194.398 72.1775C194.398 71.8056 194.964 71.4237 195.787 71.1262C196.228 70.9626 196.66 70.3428 197.329 70.2287C197.825 70.1444 198.464 70.5709 199.099 70.5262C199.63 70.4866 200.185 69.9709 200.8 69.9659C201.415 69.961 201.911 70.4618 202.516 70.4965C202.893 70.4965 203.269 70.0403 203.587 70.07C203.904 70.0998 204.246 70.6403 204.549 70.6948C204.95 70.7642 205.402 70.3626 205.674 70.4519C206.111 70.5907 206.17 71.1808 206.364 71.3394C206.919 71.7907 207.355 72.2171 206.859 72.2965C205.635 72.4898 205.585 71.8006 204.345 71.8006C203.106 71.8006 203.106 72.2965 201.866 72.2717C200.626 72.2469 200.631 71.7758 199.387 71.7758C198.142 71.7758 198.167 72.1179 196.907 72.2469C196.075 72.3864 195.222 72.3629 194.398 72.1775Z" fill="black"/>
</g>
<path d="M213.431 76.67C214.075 78.0336 214.581 79.3377 215.092 80.6964C215.602 82.055 216.014 83.4236 216.411 84.8071C216.812 86.2043 217.143 87.621 217.402 89.0516C217.521 89.7706 217.645 90.4896 217.725 91.2285C217.774 91.5904 217.819 91.9574 217.844 92.3293L217.928 93.4697C217.95 94.4127 217.781 95.3504 217.432 96.2267C217.147 96.9619 216.807 97.6747 216.416 98.3589C215.677 99.6325 214.848 100.852 213.936 102.008C212.171 104.249 210.235 106.35 208.145 108.291L206.598 106.863C207.416 105.782 208.254 104.671 209.037 103.551C209.821 102.43 210.604 101.309 211.313 100.164C212.024 99.0468 212.667 97.8876 213.237 96.6928C213.5 96.1462 213.722 95.5811 213.902 95.0019C214.047 94.5728 214.114 94.121 214.1 93.6681L213.976 92.7309C213.941 92.4086 213.887 92.0863 213.822 91.7392C213.718 91.0946 213.574 90.445 213.431 89.8004C213.287 89.1558 213.123 88.5111 212.935 87.8665C212.746 87.2219 212.578 86.5773 212.379 85.9376C211.988 84.6583 211.536 83.3839 211.07 82.1244C210.604 80.865 210.079 79.5856 209.583 78.4105L213.431 76.67Z" fill="#E58A7B"/>
<path d="M211.742 72.2766C213.467 72.6534 215.307 78.8616 215.307 78.8616L208.514 83.1954C208.514 83.1954 206.381 78.2368 207.205 76.0749C208.067 73.8435 209.704 71.8303 211.742 72.2766Z" fill="#407BFF"/>
<path opacity="0.6" d="M211.742 72.2766C213.467 72.6534 215.307 78.8616 215.307 78.8616L208.514 83.1954C208.514 83.1954 206.381 78.2368 207.205 76.0749C208.067 73.8435 209.704 71.8303 211.742 72.2766Z" fill="white"/>
<path opacity="0.28" d="M210.817 74.389L208.496 83.1558V83.1955L211.213 81.46L210.817 74.389Z" fill="#407BFF"/>
<path d="M189.89 72.3957C189.89 72.3957 187.907 73.0948 191.874 97.4614H208.733C208.45 90.5987 208.441 86.3641 211.708 72.2767C209.346 71.789 206.951 71.4725 204.543 71.3296C201.993 71.1509 199.433 71.1509 196.882 71.3296C193.624 71.6321 189.89 72.3957 189.89 72.3957Z" fill="#407BFF"/>
<path opacity="0.6" d="M189.89 72.3957C189.89 72.3957 187.907 73.0948 191.874 97.4614H208.733C208.45 90.5987 208.441 86.3641 211.708 72.2767C209.346 71.789 206.951 71.4725 204.543 71.3296C201.993 71.1509 199.433 71.1509 196.882 71.3296C193.624 71.6321 189.89 72.3957 189.89 72.3957Z" fill="white"/>
<path d="M207.403 106.308L203.387 105.098L205.063 108.975C205.063 108.975 207.716 109.233 208.673 107.795L207.403 106.308Z" fill="#E58A7B"/>
<path d="M200.133 106.377L201.71 109.545L205.062 108.985L203.386 105.107L200.133 106.377Z" fill="#E58A7B"/>
<path d="M218.032 190.966H213.882L212.543 181.346H216.698L218.032 190.966Z" fill="#E58A7B"/>
<path d="M199.155 190.966H195.004L194.727 181.346H198.877L199.155 190.966Z" fill="#E58A7B"/>
<path d="M194.727 181.346L194.87 186.305H199.026L198.882 181.346H194.727Z" fill="#CF6F64"/>
<path d="M216.698 181.346H212.543L213.232 186.305H217.388L216.698 181.346Z" fill="#CF6F64"/>
<path d="M196.336 97.4614C196.336 97.4614 198.746 125.973 201.25 142.039C203.268 155.016 212.228 185.348 212.228 185.348H217.891C217.891 185.348 213.225 156.052 212.199 143.2C209.605 110.721 214.152 104.974 208.752 97.4415L196.336 97.4614Z" fill="#407BFF"/>
<path opacity="0.6" d="M196.336 97.4614C196.336 97.4614 198.746 125.973 201.25 142.039C203.268 155.016 212.228 185.348 212.228 185.348H217.891C217.891 185.348 213.225 156.052 212.199 143.2C209.605 110.721 214.152 104.974 208.752 97.4415L196.336 97.4614Z" fill="black"/>
<path opacity="0.4" d="M201.486 108.678C201.486 108.678 199.165 115.907 199.2 126.335C199.601 129.861 200.028 133.362 200.464 136.605C201.793 133.58 204.238 124.763 201.486 108.678Z" fill="black"/>
<path d="M191.88 97.4614C191.88 97.4614 188.603 129.459 188.875 142.124C189.158 155.299 193.988 185.348 193.988 185.348H199.601C199.601 185.348 198.713 156.092 199.209 143.13C199.75 129.023 204.232 97.4614 204.232 97.4614H191.88Z" fill="#407BFF"/>
<path opacity="0.6" d="M191.88 97.4614C191.88 97.4614 188.603 129.459 188.875 142.124C189.158 155.299 193.988 185.348 193.988 185.348H199.601C199.601 185.348 198.713 156.092 199.209 143.13C199.75 129.023 204.232 97.4614 204.232 97.4614H191.88Z" fill="black"/>
<path d="M212.195 191.209C211.913 191.232 211.633 191.157 211.401 190.996C211.332 190.929 211.281 190.845 211.253 190.754C211.224 190.662 211.219 190.564 211.238 190.47C211.244 190.41 211.265 190.353 211.3 190.305C211.335 190.256 211.382 190.217 211.436 190.192C211.932 189.979 213.181 190.787 213.32 190.882C213.337 190.892 213.35 190.907 213.357 190.924C213.365 190.942 213.368 190.962 213.365 190.981C213.362 191 213.354 191.018 213.34 191.032C213.327 191.046 213.31 191.056 213.291 191.06C212.932 191.15 212.564 191.199 212.195 191.209ZM211.639 190.351C211.597 190.349 211.554 190.357 211.515 190.376C211.486 190.376 211.446 190.415 211.436 190.5C211.42 190.561 211.421 190.626 211.439 190.687C211.456 190.748 211.489 190.803 211.535 190.847C211.743 191.04 212.289 191.065 213.023 190.921C212.607 190.636 212.135 190.442 211.639 190.351Z" fill="#407BFF"/>
<path d="M213.265 191.065C213.251 191.069 213.235 191.069 213.221 191.065C212.824 190.842 212.07 189.944 212.16 189.478C212.175 189.401 212.217 189.332 212.277 189.281C212.337 189.231 212.413 189.202 212.492 189.2C212.567 189.189 212.643 189.196 212.716 189.219C212.788 189.242 212.854 189.282 212.908 189.334C213.36 189.731 213.365 190.931 213.365 190.981C213.365 190.998 213.36 191.015 213.352 191.03C213.343 191.045 213.33 191.057 213.315 191.065C213.299 191.07 213.282 191.07 213.265 191.065ZM212.561 189.379H212.517C212.393 189.379 212.363 189.448 212.353 189.493C212.298 189.781 212.77 190.455 213.161 190.767C213.173 190.303 213.04 189.848 212.779 189.463C212.72 189.408 212.642 189.378 212.561 189.379Z" fill="#407BFF"/>
<path d="M193.302 191.209C192.952 191.237 192.603 191.148 192.31 190.956C192.242 190.894 192.19 190.817 192.16 190.73C192.129 190.643 192.121 190.551 192.136 190.46C192.138 190.406 192.155 190.353 192.183 190.307C192.212 190.261 192.252 190.223 192.3 190.197C192.796 189.919 194.467 190.767 194.65 190.862C194.669 190.871 194.685 190.886 194.695 190.905C194.705 190.923 194.708 190.945 194.705 190.966C194.702 190.986 194.693 191.004 194.678 191.018C194.664 191.033 194.646 191.042 194.626 191.045C194.19 191.141 193.747 191.196 193.302 191.209ZM192.563 190.351C192.5 190.347 192.437 190.359 192.379 190.386C192.36 190.397 192.344 190.413 192.333 190.432C192.322 190.451 192.315 190.472 192.315 190.495C192.307 190.552 192.313 190.611 192.333 190.665C192.353 190.719 192.386 190.768 192.429 190.807C192.682 191.035 193.366 191.075 194.283 190.921C193.747 190.634 193.165 190.442 192.563 190.351Z" fill="#407BFF"/>
<path d="M194.588 191.065H194.548C194.053 190.842 193.061 189.944 193.15 189.473C193.15 189.364 193.249 189.225 193.522 189.196C193.62 189.186 193.719 189.196 193.813 189.226C193.906 189.256 193.993 189.305 194.068 189.369C194.588 189.8 194.682 190.921 194.687 190.966C194.689 190.983 194.686 191 194.679 191.015C194.672 191.031 194.661 191.044 194.648 191.055C194.629 191.065 194.609 191.068 194.588 191.065ZM193.596 189.379H193.537C193.358 189.379 193.344 189.468 193.339 189.493C193.294 189.776 193.958 190.485 194.464 190.782C194.423 190.312 194.237 189.865 193.934 189.503C193.841 189.424 193.723 189.38 193.601 189.379H193.596Z" fill="#407BFF"/>
<path d="M194.443 57.862C194.411 57.8654 194.378 57.8613 194.348 57.8501C194.318 57.839 194.291 57.821 194.269 57.7976C194.11 57.6076 193.907 57.4585 193.679 57.3627C193.45 57.2669 193.202 57.2273 192.955 57.2472C192.903 57.2542 192.85 57.2405 192.809 57.2089C192.767 57.1773 192.739 57.1305 192.732 57.0786C192.726 57.0276 192.739 56.9763 192.77 56.9349C192.8 56.8935 192.845 56.8651 192.895 56.8554C193.207 56.8293 193.52 56.8773 193.81 56.9953C194.1 57.1134 194.357 57.2982 194.562 57.5348C194.597 57.5724 194.616 57.6221 194.616 57.6736C194.616 57.7252 194.597 57.7748 194.562 57.8124C194.528 57.8403 194.486 57.8576 194.443 57.862Z" fill="#263238"/>
<path d="M193.581 60.3264C193.395 61.1251 193.099 61.8943 192.703 62.6123C192.889 62.7093 193.095 62.7644 193.305 62.7738C193.514 62.7833 193.724 62.7468 193.918 62.6669L193.581 60.3264Z" fill="#DF5753"/>
<path d="M193.799 59.6966C193.843 60.0288 193.709 60.3213 193.491 60.3511C193.273 60.3808 193.06 60.1379 192.995 59.8106C192.931 59.4833 193.085 59.1809 193.303 59.1511C193.521 59.1214 193.764 59.3842 193.799 59.6966Z" fill="#263238"/>
<path d="M193.422 59.2008L192.594 59.0867C192.594 59.0867 193.09 59.6223 193.422 59.2008Z" fill="#263238"/>
<path d="M213.6 190.485H218.266C218.346 190.483 218.424 190.511 218.484 190.563C218.544 190.615 218.583 190.688 218.593 190.767L219.129 194.462C219.138 194.555 219.128 194.65 219.099 194.739C219.07 194.829 219.022 194.911 218.959 194.98C218.896 195.05 218.819 195.106 218.733 195.144C218.646 195.182 218.553 195.201 218.459 195.2C216.833 195.171 216.049 195.076 213.997 195.076C212.737 195.076 210.892 195.205 209.147 195.205C207.402 195.205 207.312 193.48 208.036 193.326C211.294 192.627 211.805 191.66 212.906 190.738C213.1 190.574 213.346 190.484 213.6 190.485Z" fill="#263238"/>
<path d="M194.86 190.485H199.526C199.606 190.484 199.684 190.512 199.745 190.564C199.806 190.616 199.846 190.688 199.858 190.768L200.388 194.462C200.398 194.555 200.388 194.649 200.359 194.738C200.33 194.827 200.283 194.909 200.22 194.979C200.158 195.048 200.081 195.104 199.996 195.142C199.91 195.18 199.818 195.2 199.724 195.201C198.098 195.171 197.314 195.077 195.261 195.077C193.997 195.077 191.389 195.205 189.643 195.205C187.898 195.205 187.808 193.48 188.532 193.326C191.785 192.627 193.07 191.66 194.165 190.738C194.361 190.576 194.606 190.486 194.86 190.485Z" fill="#263238"/>
<path opacity="0.28" d="M189.406 76.3327V76.4319C189.456 79.2037 189.838 83.8698 190.988 91.7143L193.338 82.5062L189.406 76.3327Z" fill="#407BFF"/>
<path d="M192.744 77.7559C192.278 80.1113 191.753 82.417 191.128 84.7327C190.503 87.0484 189.868 89.3492 189.045 91.6747L188.723 92.5425L188.371 93.4152C188.292 93.6219 188.197 93.8225 188.088 94.0152C187.952 94.272 187.785 94.5117 187.592 94.7292C187.143 95.2241 186.553 95.57 185.902 95.721C185.357 95.8453 184.79 95.8453 184.245 95.721C183.83 95.6353 183.426 95.5022 183.04 95.3243C182.401 95.0247 181.796 94.6573 181.236 94.2284C180.234 93.4569 179.301 92.599 178.449 91.6648C178.022 91.2185 177.626 90.7524 177.239 90.2814C176.852 89.8103 176.48 89.3392 176.113 88.8186L177.685 87.4252C179.352 88.9309 181.153 90.2819 183.065 91.4615C183.478 91.7015 183.913 91.9008 184.364 92.0565C184.746 92.2003 185.088 92.1607 184.954 92.1359C184.874 92.1469 184.797 92.1775 184.731 92.2251L184.801 92.0119L185.064 91.2285L185.312 90.4202C185.956 88.2434 186.507 85.9575 187.052 83.7162L188.604 76.8931L192.744 77.7559Z" fill="#E58A7B"/>
<path d="M176.244 89.0267L173.973 85.8135L177.062 85.5755C177.062 85.5755 178.807 87.5887 178.192 89.2052L176.244 89.0267Z" fill="#E58A7B"/>
<path d="M176.051 84.9856L176.705 84.579L177.008 83.0616L177.509 83.6864L177.881 87.2616L176.051 84.9856Z" fill="#E58A7B"/>
<path d="M204.786 56.9794C205.124 61.0851 205.352 62.8157 203.596 65.2057C200.953 68.7908 195.831 68.3049 194.279 64.3776C192.876 60.8421 192.563 54.7183 196.322 52.5266C197.147 52.0387 198.084 51.77 199.042 51.7462C200 51.7224 200.949 51.9442 201.797 52.3905C202.645 52.8369 203.366 53.4928 203.889 54.296C204.412 55.0993 204.721 56.023 204.786 56.9794Z" fill="#E58A7B"/>
<path d="M195.604 52.0653C194.764 52.4184 194.076 53.0569 193.662 53.8681C193.247 54.6792 193.132 55.6108 193.338 56.4983C193.338 56.4983 196.566 55.105 196.695 60.2768C196.789 64.0106 194.216 69.0486 194.216 69.0486C194.216 69.0486 200.201 70.2882 208.814 67.6502C212.478 66.5296 210.827 44.5332 195.604 52.0653Z" fill="#263238"/>
<path d="M195.297 54.3513C194.712 55.7596 194.866 58.5463 197.171 58.2488C199.477 57.9513 198.803 55.6257 198.803 55.6257L195.297 54.3513Z" fill="#263238"/>
<path d="M197.864 59.9148C197.888 60.712 197.598 61.4867 197.056 62.0718C196.332 62.8354 195.424 62.3197 195.176 61.3479C194.948 60.4801 195.053 59.0272 196 58.6206C196.208 58.5355 196.435 58.5038 196.659 58.5285C196.883 58.5532 197.098 58.6334 197.283 58.762C197.468 58.8905 197.618 59.0633 197.72 59.2647C197.821 59.466 197.871 59.6895 197.864 59.9148Z" fill="#E58A7B"/>
<path d="M218.313 185.531H211.842L211.152 183.275L218.536 183.448L218.313 185.531Z" fill="#407BFF"/>
<path d="M206.707 98.3738H207.153C207.247 98.3738 207.316 98.3291 207.307 98.2696L207.093 96.2862C207.093 96.2316 207.009 96.1821 206.915 96.1821H206.459C206.369 96.1821 206.3 96.2316 206.305 96.2862L206.518 98.2696C206.538 98.3391 206.617 98.3738 206.707 98.3738Z" fill="#407BFF"/>
<path d="M195.623 98.3738H196.079C196.169 98.3738 196.238 98.3291 196.233 98.2696L196.02 96.2862C196.02 96.2316 195.931 96.1821 195.841 96.1821H195.385C195.291 96.1821 195.221 96.2316 195.231 96.2862L195.445 98.2696C195.45 98.3391 195.529 98.3738 195.623 98.3738Z" fill="#407BFF"/>
<path d="M200.032 185.531H193.556L193.09 183.597L200.275 183.275L200.032 185.531Z" fill="#407BFF"/>
<path d="M209.006 96.4747L209.765 97.9623C209.824 98.0813 209.686 98.2003 209.492 98.2003H191.785C191.631 98.2003 191.507 98.1259 191.497 98.0317L191.344 96.5441C191.344 96.44 191.468 96.3507 191.631 96.3507H208.714C208.769 96.3433 208.826 96.3509 208.877 96.3727C208.928 96.3945 208.973 96.4297 209.006 96.4747Z" fill="#407BFF"/>
<path opacity="0.1" d="M209.006 96.4747L209.765 97.9623C209.824 98.0813 209.686 98.2003 209.492 98.2003H191.785C191.631 98.2003 191.507 98.1259 191.497 98.0317L191.344 96.5441C191.344 96.44 191.468 96.3507 191.631 96.3507H208.714C208.769 96.3433 208.826 96.3509 208.877 96.3727C208.928 96.3945 208.973 96.4297 209.006 96.4747Z" fill="black"/>
<path opacity="0.6" d="M206.707 98.3738H207.153C207.247 98.3738 207.316 98.3291 207.307 98.2696L207.093 96.2862C207.093 96.2316 207.009 96.1821 206.915 96.1821H206.459C206.369 96.1821 206.3 96.2316 206.305 96.2862L206.518 98.2696C206.538 98.3391 206.617 98.3738 206.707 98.3738Z" fill="black"/>
<path opacity="0.6" d="M195.623 98.3738H196.079C196.169 98.3738 196.238 98.3291 196.233 98.2696L196.02 96.2862C196.02 96.2316 195.931 96.1821 195.841 96.1821H195.385C195.291 96.1821 195.221 96.2316 195.231 96.2862L195.445 98.2696C195.45 98.3391 195.529 98.3738 195.623 98.3738Z" fill="black"/>
<path d="M189.89 72.3957C188.179 72.8321 186.984 79.8782 186.984 79.8782L193.589 84.3658C193.589 84.3658 196.242 75.9758 194.908 74.0767C193.535 72.1329 192.389 71.761 189.89 72.3957Z" fill="#407BFF"/>
<path opacity="0.6" d="M189.89 72.3957C188.179 72.8321 186.984 79.8782 186.984 79.8782L193.589 84.3658C193.589 84.3658 196.242 75.9758 194.908 74.0767C193.535 72.1329 192.389 71.761 189.89 72.3957Z" fill="white"/>
<path d="M149.014 152.759C149.017 152.737 149.017 152.715 149.014 152.693C149.198 151.633 149.357 150.566 149.488 149.486C151.352 151.56 152.972 152.087 154.131 152.087C154.254 152.094 154.377 152.094 154.5 152.087C156.772 151.863 158.689 149.637 159.637 146.16C159.656 146.091 159.66 146.019 159.648 145.949C159.637 145.878 159.611 145.811 159.571 145.752C159.49 145.627 159.366 145.536 159.222 145.495C157.613 145.054 155.925 144.977 154.282 145.267C152.638 145.557 151.08 146.209 149.719 147.174C149.798 146.16 149.844 145.146 149.857 144.125C150.225 144.189 150.597 144.222 150.97 144.224C154.724 144.224 157.049 140.885 157.161 140.72C157.203 140.656 157.228 140.583 157.235 140.508C157.242 140.432 157.23 140.355 157.2 140.285C157.17 140.209 157.124 140.139 157.065 140.081C157.006 140.023 156.935 139.978 156.858 139.949C154.513 139.067 152.61 138.988 151.207 139.725C150.314 140.211 149.629 141.004 149.277 141.958C148.285 139.797 146.783 137.909 144.899 136.458C143.015 135.006 140.806 134.035 138.463 133.627C138.396 133.611 138.327 133.611 138.26 133.628C138.193 133.644 138.131 133.676 138.079 133.721C138.027 133.766 137.986 133.823 137.96 133.886C137.934 133.95 137.924 134.019 137.93 134.088C138.167 137.493 138.799 141.649 141.605 143.638C142.727 144.407 144.064 144.801 145.425 144.764C146.588 144.738 147.742 144.555 148.856 144.217C148.798 146.644 148.578 149.064 148.197 151.462C146.637 149.69 142.665 145.752 137.245 144.395C137.185 144.376 137.121 144.371 137.059 144.379C136.996 144.387 136.936 144.409 136.883 144.443C136.829 144.477 136.784 144.522 136.75 144.575C136.716 144.628 136.694 144.688 136.685 144.751C136.283 147.681 136.982 150.059 138.694 151.626C140.116 152.943 142.158 153.602 144.621 153.602C145.714 153.592 146.804 153.477 147.875 153.26C147.506 155.268 147.051 157.211 146.557 159.108C144.852 157.751 139.919 154.32 135.216 155.749C135.154 155.769 135.098 155.804 135.051 155.849C135.004 155.895 134.968 155.951 134.946 156.012C134.924 156.078 134.916 156.148 134.923 156.218C134.929 156.287 134.951 156.354 134.986 156.414C136.725 159.655 138.463 161.452 140.446 162.078C140.962 162.239 141.499 162.321 142.04 162.322C143.438 162.264 144.798 161.849 145.991 161.117C145.247 163.606 144.43 165.924 143.627 167.992C142.283 166.738 140.647 165.839 138.868 165.379C137.088 164.919 135.221 164.912 133.438 165.358C133.382 165.37 133.329 165.394 133.282 165.427C133.235 165.461 133.195 165.503 133.165 165.553C133.134 165.602 133.115 165.657 133.106 165.714C133.098 165.771 133.101 165.829 133.116 165.885C133.391 166.953 133.912 167.941 134.637 168.772C135.362 169.604 136.271 170.254 137.291 170.673C138.037 170.981 138.835 171.14 139.642 171.14C140.71 171.132 141.757 170.851 142.685 170.324C141.635 172.889 140.45 175.398 139.135 177.838C139.079 177.96 139.07 178.098 139.111 178.226C139.151 178.354 139.237 178.462 139.352 178.53C139.439 178.586 139.539 178.616 139.642 178.615C139.719 178.618 139.795 178.599 139.862 178.562C139.929 178.525 139.985 178.471 140.024 178.405C141.618 175.416 143.037 172.338 144.272 169.184C144.298 169.134 144.318 169.081 144.331 169.026C144.577 168.407 144.821 167.768 145.062 167.11C146.65 168.941 148.579 169.955 150.516 169.955C150.726 169.955 150.931 169.955 151.141 169.955C152.215 169.848 153.228 169.41 154.042 168.702C154.856 167.994 155.43 167.051 155.686 166.003C155.704 165.885 155.685 165.764 155.63 165.658C155.576 165.551 155.489 165.465 155.383 165.411C153.931 164.597 152.306 164.138 150.643 164.073C148.98 164.008 147.325 164.338 145.813 165.035C146.334 163.527 146.841 161.927 147.308 160.267C147.35 160.2 147.373 160.122 147.374 160.043C147.499 159.575 147.631 159.108 147.75 158.627C149.653 160.695 151.411 161.709 153.104 161.709C155.159 161.709 157.055 160.188 158.88 157.099C158.929 156.984 158.937 156.856 158.902 156.736C158.867 156.616 158.792 156.511 158.689 156.441C154.862 153.806 150.285 155.604 148.243 156.658C148.533 155.424 148.788 154.168 149.007 152.891L149.014 152.759Z" fill="#407BFF"/>
<path opacity="0.3" d="M149.014 152.759C149.017 152.737 149.017 152.715 149.014 152.693C149.198 151.633 149.357 150.566 149.488 149.486C151.352 151.56 152.972 152.087 154.131 152.087C154.254 152.094 154.377 152.094 154.5 152.087C156.772 151.863 158.689 149.637 159.637 146.16C159.656 146.091 159.66 146.019 159.648 145.949C159.637 145.878 159.611 145.811 159.571 145.752C159.49 145.627 159.366 145.536 159.222 145.495C157.613 145.054 155.925 144.977 154.282 145.267C152.638 145.557 151.08 146.209 149.719 147.174C149.798 146.16 149.844 145.146 149.857 144.125C150.225 144.189 150.597 144.222 150.97 144.224C154.724 144.224 157.049 140.885 157.161 140.72C157.203 140.656 157.228 140.583 157.235 140.508C157.242 140.432 157.23 140.355 157.2 140.285C157.17 140.209 157.124 140.139 157.065 140.081C157.006 140.023 156.935 139.978 156.858 139.949C154.513 139.067 152.61 138.988 151.207 139.725C150.314 140.211 149.629 141.004 149.277 141.958C148.285 139.797 146.783 137.909 144.899 136.458C143.015 135.006 140.806 134.035 138.463 133.627C138.396 133.611 138.327 133.611 138.26 133.628C138.193 133.644 138.131 133.676 138.079 133.721C138.027 133.766 137.986 133.823 137.96 133.886C137.934 133.95 137.924 134.019 137.93 134.088C138.167 137.493 138.799 141.649 141.605 143.638C142.727 144.407 144.064 144.801 145.425 144.764C146.588 144.738 147.742 144.555 148.856 144.217C148.798 146.644 148.578 149.064 148.197 151.462C146.637 149.69 142.665 145.752 137.245 144.395C137.185 144.376 137.121 144.371 137.059 144.379C136.996 144.387 136.936 144.409 136.883 144.443C136.829 144.477 136.784 144.522 136.75 144.575C136.716 144.628 136.694 144.688 136.685 144.751C136.283 147.681 136.982 150.059 138.694 151.626C140.116 152.943 142.158 153.602 144.621 153.602C145.714 153.592 146.804 153.477 147.875 153.26C147.506 155.268 147.051 157.211 146.557 159.108C144.852 157.751 139.919 154.32 135.216 155.749C135.154 155.769 135.098 155.804 135.051 155.849C135.004 155.895 134.968 155.951 134.946 156.012C134.924 156.078 134.916 156.148 134.923 156.218C134.929 156.287 134.951 156.354 134.986 156.414C136.725 159.655 138.463 161.452 140.446 162.078C140.962 162.239 141.499 162.321 142.04 162.322C143.438 162.264 144.798 161.849 145.991 161.117C145.247 163.606 144.43 165.924 143.627 167.992C142.283 166.738 140.647 165.839 138.868 165.379C137.088 164.919 135.221 164.912 133.438 165.358C133.382 165.37 133.329 165.394 133.282 165.427C133.235 165.461 133.195 165.503 133.165 165.553C133.134 165.602 133.115 165.657 133.106 165.714C133.098 165.771 133.101 165.829 133.116 165.885C133.391 166.953 133.912 167.941 134.637 168.772C135.362 169.604 136.271 170.254 137.291 170.673C138.037 170.981 138.835 171.14 139.642 171.14C140.71 171.132 141.757 170.851 142.685 170.324C141.635 172.889 140.45 175.398 139.135 177.838C139.079 177.96 139.07 178.098 139.111 178.226C139.151 178.354 139.237 178.462 139.352 178.53C139.439 178.586 139.539 178.616 139.642 178.615C139.719 178.618 139.795 178.599 139.862 178.562C139.929 178.525 139.985 178.471 140.024 178.405C141.618 175.416 143.037 172.338 144.272 169.184C144.298 169.134 144.318 169.081 144.331 169.026C144.577 168.407 144.821 167.768 145.062 167.11C146.65 168.941 148.579 169.955 150.516 169.955C150.726 169.955 150.931 169.955 151.141 169.955C152.215 169.848 153.228 169.41 154.042 168.702C154.856 167.994 155.43 167.051 155.686 166.003C155.704 165.885 155.685 165.764 155.63 165.658C155.576 165.551 155.489 165.465 155.383 165.411C153.931 164.597 152.306 164.138 150.643 164.073C148.98 164.008 147.325 164.338 145.813 165.035C146.334 163.527 146.841 161.927 147.308 160.267C147.35 160.2 147.373 160.122 147.374 160.043C147.499 159.575 147.631 159.108 147.75 158.627C149.653 160.695 151.411 161.709 153.104 161.709C155.159 161.709 157.055 160.188 158.88 157.099C158.929 156.984 158.937 156.856 158.902 156.736C158.867 156.616 158.792 156.511 158.689 156.441C154.862 153.806 150.285 155.604 148.243 156.658C148.533 155.424 148.788 154.168 149.007 152.891L149.014 152.759Z" fill="black"/>
<path d="M125.131 166.109C125.841 166.332 126.58 166.449 127.324 166.458C128.269 166.453 129.202 166.247 130.061 165.853C130.92 165.459 131.685 164.887 132.304 164.173C132.924 163.46 133.384 162.623 133.654 161.718C133.925 160.812 133.998 159.86 133.871 158.923C133.849 158.821 133.789 158.731 133.704 158.67C133.619 158.609 133.514 158.582 133.41 158.594C131.589 158.796 129.837 159.399 128.278 160.362C126.72 161.324 125.395 162.622 124.4 164.159C123.57 161.881 122.793 159.457 122.141 156.948C123.206 157.577 124.41 157.932 125.645 157.982C126.153 157.983 126.658 157.903 127.14 157.745C129.702 156.895 131.46 153.839 132.982 150.658C133.009 150.601 133.024 150.538 133.024 150.474C133.024 150.41 133.009 150.347 132.982 150.289C132.959 150.232 132.924 150.181 132.878 150.14C132.832 150.098 132.778 150.068 132.718 150.052C127.706 148.623 123.149 153.523 121.713 155.275C121.21 153.15 120.823 151 120.554 148.834C121.616 149.037 122.694 149.143 123.775 149.15C126.409 149.15 128.49 148.452 129.9 147.075C131.572 145.449 132.145 143.012 131.566 140.035C131.555 139.977 131.531 139.923 131.498 139.875C131.464 139.827 131.42 139.787 131.37 139.757C131.32 139.727 131.263 139.708 131.205 139.702C131.147 139.695 131.088 139.701 131.032 139.719C125.685 141.141 121.911 145.119 120.37 147.003C120.37 146.614 120.304 146.226 120.278 145.837C120.27 145.74 120.23 145.647 120.166 145.574C120.032 144.844 119.737 144.154 119.301 143.553C118.866 142.952 118.302 142.457 117.65 142.103C116.188 141.379 114.258 141.484 111.927 142.413C111.858 142.439 111.795 142.481 111.744 142.534C111.693 142.588 111.654 142.652 111.63 142.722C111.607 142.79 111.6 142.862 111.61 142.933C111.62 143.005 111.648 143.072 111.689 143.13C111.808 143.288 114.324 146.595 118.091 146.595C118.498 146.593 118.903 146.554 119.303 146.476C119.382 147.547 119.494 148.621 119.639 149.697C118.219 148.732 116.606 148.089 114.912 147.812C113.219 147.536 111.485 147.633 109.832 148.096C109.767 148.112 109.706 148.142 109.653 148.182C109.599 148.223 109.555 148.275 109.523 148.333C109.49 148.389 109.468 148.452 109.461 148.516C109.453 148.581 109.458 148.646 109.477 148.709C110.642 152.252 112.717 154.485 115.035 154.676C115.14 154.682 115.246 154.682 115.351 154.676C116.537 154.676 118.177 154.136 119.961 151.949C120.398 154.413 120.969 156.851 121.674 159.253C119.553 158.212 114.758 156.421 111.005 159.147C110.951 159.181 110.906 159.225 110.87 159.276C110.834 159.327 110.808 159.385 110.795 159.446C110.781 159.508 110.78 159.571 110.791 159.633C110.802 159.694 110.826 159.753 110.86 159.806C112.881 162.921 114.87 164.416 116.938 164.416H116.991C118.71 164.416 120.442 163.343 122.26 161.202C123.004 163.547 123.821 165.773 124.657 167.841C122.576 166.478 120.139 166.695 117.136 168.499C117.071 168.541 117.015 168.596 116.973 168.661C116.931 168.725 116.904 168.798 116.892 168.875C116.884 168.947 116.895 169.019 116.922 169.086C116.95 169.153 116.994 169.212 117.05 169.257C117.202 169.375 119.764 171.305 122.629 171.305C123.729 171.316 124.807 170.997 125.724 170.39C127.345 174.157 129.213 177.814 131.316 181.335C131.358 181.402 131.416 181.456 131.485 181.493C131.555 181.53 131.632 181.548 131.711 181.546C131.817 181.547 131.92 181.515 132.007 181.454C132.123 181.383 132.206 181.269 132.239 181.138C132.273 181.006 132.253 180.867 132.185 180.749C129.428 176.075 127.069 171.178 125.131 166.109Z" fill="#407BFF"/>
<path opacity="0.5" d="M125.131 166.109C125.841 166.332 126.58 166.449 127.324 166.458C128.269 166.453 129.202 166.247 130.061 165.853C130.92 165.459 131.685 164.887 132.304 164.173C132.924 163.46 133.384 162.623 133.654 161.718C133.925 160.812 133.998 159.86 133.871 158.923C133.849 158.821 133.789 158.731 133.704 158.67C133.619 158.609 133.514 158.582 133.41 158.594C131.589 158.796 129.837 159.399 128.278 160.362C126.72 161.324 125.395 162.622 124.4 164.159C123.57 161.881 122.793 159.457 122.141 156.948C123.206 157.577 124.41 157.932 125.645 157.982C126.153 157.983 126.658 157.903 127.14 157.745C129.702 156.895 131.46 153.839 132.982 150.658C133.009 150.601 133.024 150.538 133.024 150.474C133.024 150.41 133.009 150.347 132.982 150.289C132.959 150.232 132.924 150.181 132.878 150.14C132.832 150.098 132.778 150.068 132.718 150.052C127.706 148.623 123.149 153.523 121.713 155.275C121.21 153.15 120.823 151 120.554 148.834C121.616 149.037 122.694 149.143 123.775 149.15C126.409 149.15 128.49 148.452 129.9 147.075C131.572 145.449 132.145 143.012 131.566 140.035C131.555 139.977 131.531 139.923 131.498 139.875C131.464 139.827 131.42 139.787 131.37 139.757C131.32 139.727 131.263 139.708 131.205 139.702C131.147 139.695 131.088 139.701 131.032 139.719C125.685 141.141 121.911 145.119 120.37 147.003C120.37 146.614 120.304 146.226 120.278 145.837C120.27 145.74 120.23 145.647 120.166 145.574C120.032 144.844 119.737 144.154 119.301 143.553C118.866 142.952 118.302 142.457 117.65 142.103C116.188 141.379 114.258 141.484 111.927 142.413C111.858 142.439 111.795 142.481 111.744 142.534C111.693 142.588 111.654 142.652 111.63 142.722C111.607 142.79 111.6 142.862 111.61 142.933C111.62 143.005 111.648 143.072 111.689 143.13C111.808 143.288 114.324 146.595 118.091 146.595C118.498 146.593 118.903 146.554 119.303 146.476C119.382 147.547 119.494 148.621 119.639 149.697C118.219 148.732 116.606 148.089 114.912 147.812C113.219 147.536 111.485 147.633 109.832 148.096C109.767 148.112 109.706 148.142 109.653 148.182C109.599 148.223 109.555 148.275 109.523 148.333C109.49 148.389 109.468 148.452 109.461 148.516C109.453 148.581 109.458 148.646 109.477 148.709C110.642 152.252 112.717 154.485 115.035 154.676C115.14 154.682 115.246 154.682 115.351 154.676C116.537 154.676 118.177 154.136 119.961 151.949C120.398 154.413 120.969 156.851 121.674 159.253C119.553 158.212 114.758 156.421 111.005 159.147C110.951 159.181 110.906 159.225 110.87 159.276C110.834 159.327 110.808 159.385 110.795 159.446C110.781 159.508 110.78 159.571 110.791 159.633C110.802 159.694 110.826 159.753 110.86 159.806C112.881 162.921 114.87 164.416 116.938 164.416H116.991C118.71 164.416 120.442 163.343 122.26 161.202C123.004 163.547 123.821 165.773 124.657 167.841C122.576 166.478 120.139 166.695 117.136 168.499C117.071 168.541 117.015 168.596 116.973 168.661C116.931 168.725 116.904 168.798 116.892 168.875C116.884 168.947 116.895 169.019 116.922 169.086C116.95 169.153 116.994 169.212 117.05 169.257C117.202 169.375 119.764 171.305 122.629 171.305C123.729 171.316 124.807 170.997 125.724 170.39C127.345 174.157 129.213 177.814 131.316 181.335C131.358 181.402 131.416 181.456 131.485 181.493C131.555 181.53 131.632 181.548 131.711 181.546C131.817 181.547 131.92 181.515 132.007 181.454C132.123 181.383 132.206 181.269 132.239 181.138C132.273 181.006 132.253 180.867 132.185 180.749C129.428 176.075 127.069 171.178 125.131 166.109Z" fill="white"/>
<path d="M143.244 192.545H127.557L126.371 176.324H144.43L143.244 192.545Z" fill="#263238"/>
<path d="M145.592 175.224H125.195V177.97H145.592V175.224Z" fill="#263238"/>
<path d="M67.6685 60.4969H17.8242C14.325 60.4969 11.4883 63.3336 11.4883 66.8329V186.2C11.4883 189.699 14.325 192.536 17.8242 192.536H67.6685C71.1677 192.536 74.0044 189.699 74.0044 186.2V66.8329C74.0044 63.3336 71.1677 60.4969 67.6685 60.4969Z" fill="#407BFF"/>
<path d="M64.6294 60.4969H14.7851C11.2859 60.4969 8.44922 63.3336 8.44922 66.8329V186.2C8.44922 189.699 11.2859 192.536 14.7851 192.536H64.6294C68.1286 192.536 70.9653 189.699 70.9653 186.2V66.8329C70.9653 63.3336 68.1286 60.4969 64.6294 60.4969Z" fill="#407BFF"/>
<path d="M70.9653 67.7757H8.44922V181.242H70.9653V67.7757Z" fill="#FAFAFA"/>
<path opacity="0.18" d="M71.0044 67.5399H8.48828V181.006H71.0044V67.5399Z" fill="#407BFF"/>
<path opacity="0.4" d="M31.1361 67.7757L10.8594 181.251H30.9367L51.2225 67.7757H31.1361Z" fill="white"/>
<path opacity="0.4" d="M56.1166 67.7757L35.8398 181.251H45.883L66.1597 67.7757H56.1166Z" fill="white"/>
<path d="M42.5286 186.499C42.5286 187.056 42.3633 187.601 42.0535 188.065C41.7438 188.529 41.3035 188.89 40.7884 189.103C40.2733 189.317 39.7065 189.372 39.1597 189.264C38.6128 189.155 38.1105 188.886 37.7163 188.492C37.322 188.098 37.0536 187.596 36.9448 187.049C36.836 186.502 36.8918 185.935 37.1052 185.42C37.3186 184.905 37.6799 184.465 38.1435 184.155C38.607 183.845 39.1521 183.68 39.7096 183.68C40.4572 183.68 41.1743 183.977 41.7029 184.506C42.2316 185.034 42.5286 185.751 42.5286 186.499Z" fill="#407BFF"/>
<path d="M47.0986 64.8477C47.6493 64.8477 48.0957 64.4013 48.0957 63.8506C48.0957 63.3 47.6493 62.8536 47.0986 62.8536C46.548 62.8536 46.1016 63.3 46.1016 63.8506C46.1016 64.4013 46.548 64.8477 47.0986 64.8477Z" fill="#407BFF"/>
<path d="M43.0274 64.8477H32.3135C32.049 64.8477 31.7954 64.7427 31.6084 64.5557C31.4215 64.3687 31.3164 64.1151 31.3164 63.8506C31.3188 63.5869 31.4246 63.3347 31.6111 63.1482C31.7975 62.9618 32.0498 62.8559 32.3135 62.8536H43.0183C43.282 62.8559 43.5343 62.9618 43.7208 63.1482C43.9072 63.3347 44.013 63.5869 44.0154 63.8506C44.0154 64.1135 43.9116 64.3658 43.7266 64.5525C43.5416 64.7392 43.2903 64.8453 43.0274 64.8477Z" fill="#407BFF"/>
</g>
<defs>
<clipPath id="clip0_1204_21371">
<rect width="328.834" height="200" fill="white"/>
</clipPath>
</defs>
</svg>
