<svg width="310" height="238" viewBox="0 0 310 238" fill="none" xmlns="http://www.w3.org/2000/svg">
<path d="M237.345 119.001C237.345 119.489 237.342 119.975 237.336 120.459C237.317 121.917 237.271 123.369 237.198 124.813C234.876 170.556 205.311 209.121 164.382 224.659C163.951 224.822 163.519 224.983 163.086 225.141C161.786 225.618 160.475 226.07 159.154 226.497C158.714 226.641 158.272 226.782 157.829 226.919C155.171 227.742 152.473 228.47 149.734 229.104C148.82 229.315 147.903 229.514 146.983 229.702C144.682 230.174 142.355 230.574 140.003 230.902C139.532 230.968 139.061 231.03 138.59 231.091C137.645 231.21 136.697 231.318 135.745 231.416C135.27 231.464 134.794 231.509 134.318 231.551C133.362 231.637 132.404 231.71 131.444 231.77C129.04 231.92 126.617 231.994 124.175 231.994C121.733 231.994 119.31 231.92 116.907 231.77C115.946 231.708 114.988 231.635 114.033 231.551C113.556 231.509 113.08 231.464 112.605 231.416C111.654 231.319 110.706 231.211 109.762 231.091C109.289 231.03 108.818 230.968 108.347 230.902C105.997 230.574 103.671 230.174 101.367 229.702C100.446 229.514 99.529 229.315 98.6161 229.104C95.8797 228.474 93.1811 227.745 90.5204 226.919C90.0778 226.781 89.6374 226.641 89.196 226.497C87.8734 226.069 86.5629 225.617 85.2643 225.141C84.8322 224.983 84.4005 224.822 83.9691 224.659C43.0387 209.121 13.4751 170.556 11.1521 124.813C11.0914 123.612 11.0495 122.405 11.0263 121.194C11.0263 120.95 11.0173 120.704 11.015 120.459L11.0083 119.925C11.0083 119.617 11.0083 119.307 11.0083 118.999C11.0083 117.653 11.0319 116.316 11.0791 114.988C11.094 114.57 11.1109 114.152 11.1296 113.734C11.1386 113.549 11.1465 113.367 11.1554 113.184C11.2049 112.221 11.2659 111.261 11.3386 110.304C11.3752 109.826 11.4149 109.349 11.4576 108.872C11.5419 107.92 11.6385 106.965 11.7463 106.024C11.8542 105.083 11.971 104.135 12.1069 103.194C12.3039 101.786 12.5285 100.387 12.7809 98.9961C14.9451 86.8973 19.0854 75.2358 25.0363 64.4774C25.231 64.1252 25.4273 63.7749 25.625 63.4265C27.932 59.3545 30.4906 55.4299 33.286 51.6753C33.4433 51.4634 33.6017 51.2525 33.7589 51.0416C36.3907 47.5549 39.2209 44.222 42.2355 41.0593L42.2962 40.9965C46.3507 36.7538 50.7279 32.8307 55.3885 29.2622C57.5467 27.6097 59.7653 26.0346 62.0441 24.5368C64.323 23.0391 66.6558 21.624 69.0424 20.2916C69.8378 19.8429 70.6394 19.4081 71.4475 18.9871C72.2555 18.5661 73.0688 18.15 73.8873 17.7388C74.4288 17.4696 74.9747 17.2071 75.5206 16.9469C76.4994 16.4811 77.4861 16.0287 78.4806 15.5898C78.7367 15.4776 78.9928 15.3654 79.2489 15.2533C79.9641 14.9437 80.683 14.6409 81.4057 14.3448C82.2587 13.9971 83.1158 13.6606 83.977 13.3353C84.4084 13.1716 84.8401 13.0108 85.2722 12.853C85.8181 12.6534 86.3652 12.4586 86.9134 12.2687C87.675 12.004 88.4392 11.7468 89.206 11.497C89.6475 11.3534 90.0879 11.2132 90.5304 11.0753C91.4179 10.8009 92.3083 10.5365 93.2017 10.2823C95.4401 9.64896 97.7059 9.08217 99.9989 8.58194C100.916 8.38229 101.837 8.19535 102.762 8.02113C103.688 7.84691 104.617 7.68167 105.548 7.52539C106.946 7.29284 108.354 7.08721 109.772 6.9085C110.715 6.78812 111.663 6.67969 112.615 6.58323C113.09 6.53463 113.566 6.48977 114.043 6.44864C114.999 6.3634 115.957 6.28863 116.917 6.22432C119.32 6.07477 121.743 6 124.185 6C126.627 6 129.05 6.07477 131.454 6.22432C132.415 6.28638 133.373 6.36116 134.328 6.44864C134.805 6.49052 135.281 6.53538 135.755 6.58323C136.708 6.67969 137.656 6.78812 138.6 6.9085C140.015 7.08796 141.423 7.29359 142.822 7.52539C143.755 7.67867 144.684 7.84392 145.609 8.02113C146.534 8.19834 147.455 8.38528 148.371 8.58194C150.664 9.07993 152.929 9.64672 155.167 10.2823C156.062 10.5358 156.952 10.8001 157.839 11.0753C158.282 11.2136 158.724 11.3542 159.164 11.497C159.933 11.746 160.697 12.0032 161.458 12.2687C162.006 12.4593 162.553 12.6541 163.098 12.853C163.531 13.0108 163.963 13.1716 164.394 13.3353C165.256 13.6628 166.113 13.9993 166.963 14.3448C167.687 14.6401 168.406 14.943 169.121 15.2533C169.378 15.3654 169.634 15.4776 169.89 15.5898C170.884 16.0287 171.871 16.4811 172.851 16.9469C173.397 17.2071 173.941 17.4711 174.483 17.7388C175.302 18.1448 176.115 18.5609 176.923 18.9871C177.731 19.4133 178.533 19.8481 179.328 20.2916C181.716 21.624 184.049 23.0391 186.327 24.5368C188.605 26.0346 190.824 27.6097 192.982 29.2622C197.643 32.8301 202.02 36.7533 206.074 40.9965C206.095 41.0167 206.115 41.038 206.135 41.0593C209.149 44.222 211.98 47.5549 214.611 51.0416C214.769 51.2525 214.927 51.4637 215.085 51.6753C217.88 55.4304 220.439 59.355 222.746 63.4265C222.943 63.7742 223.14 64.1245 223.335 64.4774C229.285 75.2361 233.425 86.8975 235.589 98.9961C235.839 100.387 236.063 101.787 236.263 103.195C236.395 104.135 236.515 105.078 236.623 106.024C236.735 106.968 236.828 107.92 236.913 108.872C236.955 109.349 236.993 109.826 237.025 110.304C237.1 111.261 237.161 112.221 237.208 113.184C237.299 115.112 237.345 117.051 237.345 119.001Z" fill="#FF6C37"/>
<path d="M33.7589 51.0416C33.6016 51.2525 33.4433 51.4634 33.286 51.6753C30.4906 55.4299 27.932 59.3545 25.625 63.4265C25.4273 63.7749 25.231 64.1252 25.0363 64.4774C19.0854 75.2358 14.9451 86.8973 12.7809 98.9961C12.5285 100.387 12.3039 101.786 12.1069 103.194C11.971 104.135 11.8542 105.083 11.7463 106.024C11.6385 106.965 11.5419 107.92 11.4576 108.872C11.4149 109.349 11.3752 109.826 11.3386 110.304C11.2659 111.261 11.2049 112.221 11.1554 113.184C11.1465 113.367 11.1386 113.549 11.1296 113.734C11.1109 114.152 11.094 114.57 11.0791 114.988C11.0319 116.316 11.0083 117.653 11.0083 118.999C11.0083 119.307 11.0083 119.617 11.0083 119.925L11.015 120.459C11.0173 120.704 11.0263 120.95 11.0263 121.194C11.0495 122.405 11.0914 123.612 11.1521 124.813C13.4751 170.556 43.0387 209.121 83.9691 224.659C84.4005 224.822 84.8322 224.983 85.2643 225.141C86.5629 225.617 87.8734 226.069 89.196 226.497C89.6374 226.641 90.0778 226.781 90.5204 226.919C93.1811 227.745 95.8797 228.474 98.6161 229.104C99.529 229.315 100.446 229.514 101.367 229.702C103.671 230.174 105.997 230.574 108.347 230.902C108.818 230.968 109.289 231.03 109.762 231.091C110.706 231.211 111.654 231.319 112.605 231.416C113.08 231.464 113.556 231.509 114.033 231.551C114.988 231.635 115.946 231.708 116.907 231.77C119.31 231.92 121.733 231.994 124.175 231.994C126.617 231.994 129.04 231.92 131.444 231.77C132.404 231.709 133.362 231.637 134.318 231.551C134.794 231.509 135.27 231.464 135.745 231.416C136.697 231.318 137.645 231.21 138.59 231.091C139.061 231.03 139.532 230.968 140.003 230.902C142.355 230.574 144.682 230.174 146.983 229.702C147.903 229.514 148.82 229.315 149.734 229.104C152.473 228.47 155.171 227.742 157.829 226.919C158.272 226.782 158.714 226.641 159.154 226.497C160.475 226.07 161.786 225.618 163.086 225.141C163.519 224.983 163.951 224.822 164.382 224.659C200.07 211.111 227.118 180.056 234.999 142M69.0424 20.2916C69.8378 19.8429 70.6394 19.4081 71.4475 18.9871C72.2555 18.5661 73.0688 18.15 73.8873 17.7388C74.4288 17.4696 74.9747 17.2071 75.5206 16.9469C76.4994 16.4811 77.4861 16.0287 78.4806 15.5898C78.7367 15.4776 78.9928 15.3654 79.2489 15.2533C79.9641 14.9437 80.683 14.6409 81.4057 14.3448C82.2587 13.9971 83.1158 13.6606 83.977 13.3353C84.4084 13.1716 84.8401 13.0108 85.2722 12.853C85.8181 12.6534 86.3652 12.4586 86.9134 12.2687C87.675 12.004 88.4392 11.7468 89.206 11.497C89.6475 11.3534 90.0879 11.2132 90.5304 11.0753C91.4179 10.8009 92.3083 10.5365 93.2017 10.2823C95.4401 9.64896 97.7059 9.08217 99.9989 8.58194C100.916 8.38229 101.837 8.19535 102.762 8.02113C103.688 7.84691 104.617 7.68167 105.548 7.52539C106.946 7.29284 108.354 7.08721 109.772 6.9085C110.715 6.78812 111.663 6.67969 112.615 6.58323C113.09 6.53463 113.566 6.48977 114.043 6.44864C114.999 6.3634 115.957 6.28863 116.917 6.22432C119.32 6.07477 121.743 6 124.185 6C126.627 6 129.05 6.07477 131.454 6.22432C132.415 6.28638 133.373 6.36116 134.328 6.44864C134.805 6.49052 135.281 6.53538 135.755 6.58323C136.708 6.67969 137.656 6.78812 138.6 6.9085C140.015 7.08796 141.423 7.29359 142.822 7.52539C143.755 7.67867 144.684 7.84392 145.609 8.02113C146.534 8.19835 147.455 8.38528 148.371 8.58194C150.664 9.07993 152.929 9.64672 155.167 10.2823C156.062 10.5358 156.952 10.8001 157.839 11.0753C158.282 11.2136 158.724 11.3542 159.164 11.497C159.933 11.746 160.697 12.0032 161.458 12.2687C162.006 12.4593 162.553 12.6541 163.098 12.853C163.531 13.0108 163.963 13.1716 164.394 13.3353C165.256 13.6628 166.113 13.9993 166.963 14.3448C167.687 14.6401 168.406 14.943 169.121 15.2533C169.378 15.3654 169.634 15.4776 169.89 15.5898C170.884 16.0287 171.871 16.4811 172.851 16.9469C173.397 17.2071 173.941 17.4711 174.483 17.7388C175.302 18.1448 176.115 18.5609 176.923 18.9871C177.731 19.4133 178.533 19.8481 179.328 20.2916C181.716 21.624 184.049 23.0391 186.327 24.5368C188.605 26.0346 190.824 27.6097 192.982 29.2622C197.643 32.8301 202.02 36.7533 206.074 40.9965C206.096 41.0167 206.115 41.038 206.135 41.0593C209.149 44.222 211.98 47.5549 214.611 51.0416C214.769 51.2525 214.927 51.4637 215.085 51.6753C217.88 55.4304 220.439 59.355 222.746 63.4265C222.943 63.7742 223.14 64.1245 223.335 64.4774C229.285 75.2361 233.425 86.8975 235.589 98.9961C235.839 100.387 236.063 101.787 236.263 103.195C236.395 104.135 236.515 105.078 236.623 106.024C236.735 106.968 236.828 107.92 236.913 108.872C236.955 109.349 236.993 109.826 237.025 110.304C237.1 111.261 237.161 112.221 237.208 113.184" stroke="black" stroke-width="3" stroke-linecap="round"/>
<path d="M124.172 213.01C176.172 213.01 218.326 170.92 218.326 119C218.326 67.0797 176.172 24.99 124.172 24.99C72.173 24.99 30.019 67.0797 30.019 119C30.019 170.92 72.173 213.01 124.172 213.01Z" fill="white"/>
<path d="M124.172 193.449C165.352 193.449 198.735 160.117 198.735 119C198.735 77.8829 165.352 44.5508 124.172 44.5508C82.9925 44.5508 49.6096 77.8829 49.6096 119C49.6096 160.117 82.9925 193.449 124.172 193.449Z" fill="#FF6C37"/>
<path d="M124.172 175.452C155.397 175.452 180.71 150.177 180.71 119C180.71 87.8225 155.397 62.5482 124.172 62.5482C92.9474 62.5482 67.6345 87.8225 67.6345 119C67.6345 150.177 92.9474 175.452 124.172 175.452Z" fill="white"/>
<path d="M152.068 147.17C167.475 131.787 167.475 106.846 152.068 91.4632C136.662 76.0801 111.683 76.0801 96.2762 91.4632C80.8696 106.846 80.8696 131.787 96.2762 147.17C111.683 162.554 136.662 162.554 152.068 147.17Z" fill="#FF6C37"/>
<path d="M124.172 136.987C134.633 136.987 143.113 128.52 143.113 118.076C143.113 107.631 134.633 99.1643 124.172 99.1643C113.712 99.1643 105.232 107.631 105.232 118.076C105.232 128.52 113.712 136.987 124.172 136.987Z" fill="white"/>
<path d="M310 106.811L294.573 122.258L309.947 137.425H262.956L251.338 125.242H122.752C121.968 125.24 121.216 124.928 120.662 124.374C120.107 123.82 119.795 123.07 119.792 122.286V121.95C119.795 121.167 120.107 120.416 120.662 119.862C121.216 119.309 121.968 118.996 122.752 118.994H251.405L262.849 106.811H310Z" fill="#407BFF"/>
</svg>
