<svg width="291" height="198" viewBox="0 0 291 198" fill="none" xmlns="http://www.w3.org/2000/svg">
<path d="M290.314 197.473C290.314 197.548 225.31 197.603 145.157 197.603C65.0041 197.603 0 197.548 0 197.473C0 197.397 64.9891 197.342 145.182 197.342C225.375 197.342 290.314 197.402 290.314 197.473Z" fill="#263238"/>
<path d="M162.324 88.826H106.622L110.741 49.1465H166.915L162.324 88.826Z" fill="#263238"/>
<path d="M159.492 88.826H103.785L107.903 49.1465H164.077L159.492 88.826Z" fill="#455A64"/>
<path d="M157.422 87.0278H105.733L109.556 50.2112H161.682L157.422 87.0278Z" fill="#F5F5F5"/>
<path d="M111.339 80.8902C111.263 80.8902 111.776 75.3401 112.484 68.5192C113.192 61.6984 113.815 56.1633 113.885 56.1734C113.956 56.1834 113.448 61.6984 112.74 68.5443C112.032 75.3903 111.409 80.8952 111.339 80.8902Z" fill="#263238"/>
<path d="M120.746 57.4038C119.021 57.5779 117.283 57.5779 115.558 57.4038C117.283 57.2297 119.021 57.2297 120.746 57.4038Z" fill="#263238"/>
<path d="M142.826 57.4038C142.826 57.4741 138.2 57.5344 132.489 57.5344C126.779 57.5344 122.158 57.4741 122.158 57.4038C122.158 57.3335 126.784 57.2732 132.489 57.2732C138.195 57.2732 142.826 57.3335 142.826 57.4038Z" fill="#FF6C37"/>
<path d="M120.139 70.488C118.412 70.6621 116.672 70.6621 114.945 70.488C116.672 70.3139 118.412 70.3139 120.139 70.488Z" fill="#263238"/>
<path d="M142.213 70.488C142.213 70.5634 137.588 70.6186 131.882 70.6186C126.176 70.6186 121.545 70.5634 121.545 70.488C121.545 70.4127 126.171 70.3574 131.882 70.3574C137.593 70.3574 142.213 70.4177 142.213 70.488Z" fill="#FF6C37"/>
<path d="M135.172 76.5202C135.172 76.5906 130.546 76.6508 124.84 76.6508C119.134 76.6508 114.503 76.5906 114.503 76.5202C114.503 76.4499 119.129 76.3896 124.84 76.3896C130.551 76.3896 135.172 76.4499 135.172 76.5202Z" fill="#FF6C37"/>
<path d="M123.057 61.0956C121.845 61.2311 120.624 61.2764 119.405 61.2312C118.186 61.2764 116.966 61.2311 115.754 61.0956C116.966 60.9665 118.187 60.9228 119.405 60.965C120.624 60.9228 121.844 60.9665 123.057 61.0956Z" fill="#FF6C37"/>
<path d="M122.851 66.515C121.638 66.6442 120.418 66.6878 119.199 66.6456C117.981 66.6878 116.76 66.6442 115.548 66.515C116.76 66.3829 117.981 66.3392 119.199 66.3844C120.418 66.3392 121.638 66.3829 122.851 66.515Z" fill="#FF6C37"/>
<path d="M129.024 74.2551C127.811 74.3843 126.591 74.4279 125.372 74.3857C124.154 74.4281 122.933 74.3845 121.721 74.2551C122.933 74.1228 124.154 74.0791 125.372 74.1245C126.591 74.0794 127.811 74.123 129.024 74.2551Z" fill="#FF6C37"/>
<path d="M149.592 61.0954C149.592 61.1708 145.418 61.231 140.27 61.231C135.121 61.231 130.942 61.1708 130.942 61.0954C130.942 61.0201 135.116 60.9648 140.27 60.9648C145.423 60.9648 149.592 61.0251 149.592 61.0954Z" fill="#263238"/>
<path d="M143.836 66.8264C143.836 66.9017 139.662 66.957 134.514 66.957C129.365 66.957 125.186 66.9017 125.186 66.8264C125.186 66.751 129.36 66.6958 134.514 66.6958C139.667 66.6958 143.836 66.7561 143.836 66.8264Z" fill="#263238"/>
<path d="M150.255 74.2551C150.255 74.3254 146.081 74.3857 140.933 74.3857C135.784 74.3857 131.595 74.3204 131.595 74.2551C131.595 74.1898 135.769 74.1245 140.923 74.1245C146.076 74.1245 150.255 74.1798 150.255 74.2551Z" fill="#263238"/>
<path d="M133.228 80.8901C133.228 80.9604 129.049 81.0207 123.901 81.0207C118.752 81.0207 114.573 80.9604 114.573 80.8901C114.573 80.8198 118.752 80.7595 123.901 80.7595C129.049 80.7595 133.228 80.8148 133.228 80.8901Z" fill="#263238"/>
<path d="M153.851 80.8901C153.851 80.9604 149.677 81.0207 144.529 81.0207C139.381 81.0207 135.202 80.9604 135.202 80.8901C135.202 80.8198 139.376 80.7595 144.529 80.7595C149.682 80.7595 153.851 80.8148 153.851 80.8901Z" fill="#263238"/>
<path d="M133.223 83.0449C133.223 83.1202 129.049 83.1755 123.901 83.1755C118.752 83.1755 114.573 83.1202 114.573 83.0449C114.573 82.9696 118.747 82.9143 123.901 82.9143C129.054 82.9143 133.223 82.9746 133.223 83.0449Z" fill="#263238"/>
<path d="M134.132 62.6526C134.132 62.7229 129.958 62.7832 124.81 62.7832C119.661 62.7832 115.482 62.7229 115.482 62.6526C115.482 62.5823 119.656 62.522 124.81 62.522C129.963 62.522 134.132 62.5823 134.132 62.6526Z" fill="#263238"/>
<path d="M129.159 61.1207C127.562 61.2948 125.95 61.2948 124.353 61.1207C125.95 60.9399 127.562 60.9399 129.159 61.1207Z" fill="#455A64"/>
<path d="M119.541 72.2661C117.945 72.4402 116.335 72.4402 114.739 72.2661C116.335 72.092 117.945 72.092 119.541 72.2661Z" fill="#455A64"/>
<path d="M119.41 74.2551C117.814 74.4292 116.204 74.4292 114.609 74.2551C116.204 74.081 117.814 74.081 119.41 74.2551Z" fill="#455A64"/>
<path d="M161.034 54.1442C161.034 54.2145 149.411 54.2747 135.071 54.2747C120.731 54.2747 109.109 54.2145 109.109 54.1442C109.109 54.0738 120.731 54.0085 135.071 54.0085C149.411 54.0085 161.034 54.0688 161.034 54.1442Z" fill="#263238"/>
<path d="M113.227 52.3861C113.227 52.5085 113.191 52.6282 113.123 52.7299C113.055 52.8316 112.958 52.9108 112.845 52.9574C112.732 53.004 112.607 53.0159 112.487 52.9917C112.367 52.9674 112.257 52.9081 112.171 52.8212C112.085 52.7343 112.026 52.6237 112.003 52.5035C111.98 52.3834 111.993 52.259 112.04 52.1462C112.088 52.0334 112.168 51.9373 112.27 51.87C112.372 51.8027 112.492 51.7673 112.614 51.7683C112.695 51.7683 112.775 51.7843 112.85 51.8154C112.925 51.8466 112.993 51.8921 113.05 51.9496C113.107 52.007 113.152 52.0752 113.182 52.1501C113.213 52.225 113.228 52.3052 113.227 52.3861Z" fill="white"/>
<path d="M115.869 52.3861C115.869 52.5085 115.833 52.6282 115.765 52.7299C115.697 52.8316 115.6 52.9108 115.487 52.9574C115.374 53.004 115.249 53.0159 115.129 52.9917C115.009 52.9674 114.899 52.9081 114.813 52.8212C114.727 52.7343 114.668 52.6237 114.645 52.5035C114.622 52.3834 114.635 52.259 114.682 52.1462C114.73 52.0334 114.81 51.9373 114.912 51.87C115.014 51.8027 115.134 51.7673 115.256 51.7683C115.337 51.7683 115.417 51.7843 115.492 51.8154C115.567 51.8466 115.635 51.8921 115.692 51.9496C115.749 52.007 115.794 52.0752 115.824 52.1501C115.855 52.225 115.87 52.3052 115.869 52.3861Z" fill="white"/>
<path d="M118.536 52.3861C118.536 52.5085 118.5 52.6282 118.432 52.7299C118.364 52.8316 118.267 52.9108 118.154 52.9574C118.041 53.004 117.916 53.0159 117.796 52.9917C117.676 52.9674 117.566 52.9081 117.48 52.8212C117.394 52.7343 117.335 52.6237 117.312 52.5035C117.289 52.3834 117.302 52.259 117.349 52.1462C117.397 52.0334 117.477 51.9373 117.579 51.87C117.681 51.8027 117.801 51.7673 117.924 51.7683C118.004 51.7683 118.085 51.7843 118.159 51.8154C118.234 51.8466 118.302 51.8921 118.359 51.9496C118.416 52.007 118.461 52.0752 118.491 52.1501C118.522 52.225 118.537 52.3052 118.536 52.3861Z" fill="white"/>
<path d="M235.501 90.0315H176.905L181.235 48.2876H240.332L235.501 90.0315Z" fill="#263238"/>
<path d="M232.517 90.0315H173.922L178.257 48.2876H237.349L232.517 90.0315Z" fill="#455A64"/>
<path d="M230.347 88.138H175.976L179.994 49.4077H234.828L230.347 88.138Z" fill="#EBEBEB"/>
<path d="M181.898 81.096C181.828 81.096 182.37 75.2596 183.108 68.0822C183.847 60.9047 184.51 55.0884 184.58 55.0984C184.65 55.1084 184.108 60.9298 183.37 68.1123C182.631 75.2948 181.968 81.1011 181.898 81.096Z" fill="#263238"/>
<path d="M191.798 56.3942C189.982 56.5683 188.154 56.5683 186.338 56.3942C188.153 56.2133 189.982 56.2133 191.798 56.3942Z" fill="#263238"/>
<path d="M215.023 56.3942C215.023 56.4645 210.156 56.5248 204.149 56.5248C198.142 56.5248 193.28 56.4645 193.28 56.3942C193.28 56.3238 198.147 56.2585 204.149 56.2585C210.151 56.2585 215.023 56.3188 215.023 56.3942Z" fill="#FF6C37"/>
<path d="M191.155 70.1565C189.339 70.3306 187.511 70.3306 185.695 70.1565C187.511 69.9824 189.339 69.9824 191.155 70.1565Z" fill="#263238"/>
<path d="M214.38 70.1565C214.38 70.2268 209.508 70.2871 203.506 70.2871C197.504 70.2871 192.637 70.2268 192.637 70.1565C192.637 70.0862 197.504 70.0259 203.506 70.0259C209.508 70.0259 214.38 70.0862 214.38 70.1565Z" fill="#FF6C37"/>
<path d="M206.971 76.5002C206.971 76.5756 202.104 76.6308 196.102 76.6308C190.1 76.6308 185.228 76.5756 185.228 76.5002C185.228 76.4249 190.095 76.3696 196.102 76.3696C202.109 76.3696 206.971 76.4299 206.971 76.5002Z" fill="#FF6C37"/>
<path d="M194.204 60.2568C191.647 60.4309 189.081 60.4309 186.524 60.2568C189.081 60.0827 191.647 60.0827 194.204 60.2568Z" fill="#FF6C37"/>
<path d="M194.008 65.9726C191.451 66.1534 188.885 66.1534 186.328 65.9726C188.885 65.7985 191.451 65.7985 194.008 65.9726Z" fill="#FF6C37"/>
<path d="M200.502 74.1194C197.945 74.2935 195.379 74.2935 192.822 74.1194C195.379 73.9452 197.945 73.9452 200.502 74.1194Z" fill="#FF6C37"/>
<path d="M222.14 60.2568C222.14 60.3321 217.75 60.3874 212.331 60.3874C206.911 60.3874 202.521 60.3321 202.521 60.2568C202.521 60.1815 206.911 60.1262 212.331 60.1262C217.75 60.1262 222.14 60.2066 222.14 60.2568Z" fill="#263238"/>
<path d="M216.088 66.2839C216.088 66.3592 211.693 66.4145 206.278 66.4145C200.864 66.4145 196.469 66.3592 196.469 66.2839C196.469 66.2086 200.859 66.1533 206.278 66.1533C211.698 66.1533 216.088 66.2337 216.088 66.2839Z" fill="#263238"/>
<path d="M222.838 74.1194C222.838 74.1897 218.443 74.25 213.029 74.25C207.614 74.25 203.219 74.1897 203.219 74.1194C203.219 74.049 207.609 73.9888 213.029 73.9888C218.448 73.9888 222.838 74.044 222.838 74.1194Z" fill="#263238"/>
<path d="M204.927 81.0959C204.927 81.1662 200.537 81.2265 195.118 81.2265C189.698 81.2265 185.308 81.1662 185.308 81.0959C185.308 81.0256 189.703 80.9653 195.118 80.9653C200.532 80.9653 204.927 81.0256 204.927 81.0959Z" fill="#263238"/>
<path d="M226.62 81.0959C226.62 81.1662 222.225 81.2265 216.811 81.2265C211.396 81.2265 207.002 81.1662 207.002 81.0959C207.002 81.0256 211.391 80.9653 216.811 80.9653C222.23 80.9653 226.62 81.0256 226.62 81.0959Z" fill="#263238"/>
<path d="M204.927 83.3613C204.927 83.4316 200.537 83.4919 195.118 83.4919C189.698 83.4919 185.308 83.4316 185.308 83.3613C185.308 83.291 189.698 83.2307 195.118 83.2307C200.537 83.2307 204.927 83.296 204.927 83.3613Z" fill="#263238"/>
<path d="M205.877 61.9143C205.877 61.9846 201.487 62.0449 196.067 62.0449C190.648 62.0449 186.258 61.9846 186.258 61.9143C186.258 61.844 190.648 61.7837 196.067 61.7837C201.487 61.7837 205.877 61.844 205.877 61.9143Z" fill="#263238"/>
<path d="M200.643 60.2968C198.963 60.4709 197.27 60.4709 195.59 60.2968C197.27 60.1227 198.963 60.1227 200.643 60.2968Z" fill="#455A64"/>
<path d="M190.512 72.0249C188.832 72.199 187.139 72.199 185.459 72.0249C187.139 71.8508 188.832 71.8508 190.512 72.0249Z" fill="#455A64"/>
<path d="M190.391 74.1193C188.712 74.2935 187.018 74.2935 185.339 74.1193C187.018 73.9452 188.712 73.9452 190.391 74.1193Z" fill="#455A64"/>
<path d="M234.175 52.9587C234.175 53.0341 221.949 53.0893 206.866 53.0893C191.783 53.0893 179.557 53.0341 179.557 52.9587C179.557 52.8834 191.783 52.8281 206.866 52.8281C221.949 52.8281 234.175 52.8884 234.175 52.9587Z" fill="#263238"/>
<path d="M183.887 51.1152C183.887 51.2434 183.849 51.3687 183.778 51.4752C183.707 51.5818 183.605 51.6648 183.487 51.7139C183.369 51.7629 183.238 51.7757 183.113 51.7507C182.987 51.7257 182.872 51.664 182.781 51.5734C182.69 51.4828 182.629 51.3673 182.604 51.2416C182.579 51.116 182.591 50.9857 182.64 50.8673C182.69 50.7489 182.773 50.6477 182.879 50.5765C182.986 50.5053 183.111 50.4673 183.239 50.4673C183.324 50.4666 183.409 50.4829 183.488 50.5153C183.567 50.5476 183.638 50.5953 183.699 50.6556C183.759 50.7159 183.807 50.7876 183.839 50.8665C183.871 50.9454 183.888 51.03 183.887 51.1152Z" fill="white"/>
<path d="M186.665 51.1152C186.665 51.2434 186.627 51.3687 186.555 51.4752C186.484 51.5818 186.383 51.6648 186.265 51.7139C186.146 51.7629 186.016 51.7757 185.89 51.7507C185.765 51.7257 185.649 51.664 185.558 51.5734C185.468 51.4828 185.406 51.3673 185.381 51.2416C185.356 51.116 185.369 50.9857 185.418 50.8673C185.467 50.7489 185.55 50.6477 185.657 50.5765C185.763 50.5053 185.889 50.4673 186.017 50.4673C186.102 50.4666 186.186 50.4829 186.265 50.5153C186.344 50.5476 186.416 50.5953 186.476 50.6556C186.537 50.7159 186.584 50.7876 186.617 50.8665C186.649 50.9454 186.665 51.03 186.665 51.1152Z" fill="white"/>
<path d="M189.447 51.1152C189.447 51.2434 189.409 51.3687 189.338 51.4752C189.267 51.5818 189.166 51.6648 189.047 51.7139C188.929 51.7629 188.799 51.7757 188.673 51.7507C188.547 51.7257 188.432 51.664 188.341 51.5734C188.25 51.4828 188.189 51.3673 188.164 51.2416C188.139 51.116 188.152 50.9857 188.201 50.8673C188.25 50.7489 188.333 50.6477 188.439 50.5765C188.546 50.5053 188.671 50.4673 188.799 50.4673C188.885 50.4666 188.969 50.4829 189.048 50.5153C189.127 50.5476 189.199 50.5953 189.259 50.6556C189.319 50.7159 189.367 50.7876 189.399 50.8665C189.432 50.9454 189.448 51.03 189.447 51.1152Z" fill="white"/>
<path d="M202.069 40.6179H146.111L150.25 0.757568H206.68L202.069 40.6179Z" fill="#263238"/>
<path d="M199.221 40.6179H143.263L147.402 0.757568H203.832L199.221 40.6179Z" fill="#455A64"/>
<path d="M197.142 38.8148H145.222L149.059 1.82739H201.421L197.142 38.8148Z" fill="#FAFAFA"/>
<path d="M150.928 32.6318C150.858 32.6318 151.375 27.0566 152.083 20.2056C152.791 13.3546 153.419 7.79441 153.494 7.80446C153.57 7.8145 153.047 13.3747 152.339 20.2307C151.631 27.0867 151.003 32.6318 150.928 32.6318Z" fill="#263238"/>
<path d="M160.386 9.02488C158.652 9.199 156.906 9.199 155.172 9.02488C156.906 8.85076 158.652 8.85076 160.386 9.02488Z" fill="#263238"/>
<path d="M182.561 9.02488C182.561 9.0952 177.915 9.15547 172.179 9.15547C166.443 9.15547 161.797 9.0952 161.797 9.02488C161.797 8.95456 166.443 8.89429 172.179 8.89429C177.915 8.89429 182.561 8.93949 182.561 9.02488Z" fill="#FF6C37"/>
<path d="M159.768 22.1594C158.034 22.3335 156.288 22.3335 154.554 22.1594C156.288 21.9853 158.034 21.9853 159.768 22.1594Z" fill="#263238"/>
<path d="M181.948 22.1594C181.948 22.2297 177.297 22.29 171.566 22.29C165.835 22.29 161.184 22.2297 161.184 22.1594C161.184 22.0891 165.83 22.0288 171.566 22.0288C177.302 22.0288 181.948 22.0841 181.948 22.1594Z" fill="#FF6C37"/>
<path d="M174.876 28.2168C174.876 28.2871 170.225 28.3474 164.494 28.3474C158.763 28.3474 154.112 28.2871 154.112 28.2168C154.112 28.1465 158.758 28.0862 164.494 28.0862C170.23 28.0862 174.876 28.1465 174.876 28.2168Z" fill="#FF6C37"/>
<path d="M162.681 12.7265C160.24 12.9007 157.789 12.9007 155.348 12.7265C157.789 12.5524 160.24 12.5524 162.681 12.7265Z" fill="#FF6C37"/>
<path d="M162.495 18.1662C160.054 18.3404 157.603 18.3404 155.162 18.1662C157.603 17.9921 160.054 17.9921 162.495 18.1662Z" fill="#FF6C37"/>
<path d="M168.693 25.9414C166.252 26.1155 163.801 26.1155 161.36 25.9414C163.801 25.7673 166.252 25.7673 168.693 25.9414Z" fill="#FF6C37"/>
<path d="M189.357 12.7265C189.357 12.7969 185.163 12.8571 179.989 12.8571C174.816 12.8571 170.622 12.7969 170.622 12.7265C170.622 12.6562 174.811 12.5959 179.989 12.5959C185.168 12.5959 189.357 12.6512 189.357 12.7265Z" fill="#263238"/>
<path d="M183.576 18.4826C183.576 18.553 179.382 18.6132 174.208 18.6132C169.035 18.6132 164.841 18.553 164.841 18.4826C164.841 18.4123 169.035 18.3521 174.208 18.3521C179.382 18.3521 183.576 18.4073 183.576 18.4826Z" fill="#263238"/>
<path d="M190.025 25.9414C190.025 26.0117 185.831 26.072 180.657 26.072C175.484 26.072 171.29 26.0117 171.29 25.9414C171.29 25.8711 175.484 25.8108 180.657 25.8108C185.831 25.8108 190.025 25.866 190.025 25.9414Z" fill="#263238"/>
<path d="M172.917 32.6318C172.917 32.7021 168.723 32.7624 163.55 32.7624C158.377 32.7624 154.198 32.677 154.198 32.6318C154.198 32.5866 158.392 32.5012 163.565 32.5012C168.738 32.5012 172.917 32.5314 172.917 32.6318Z" fill="#263238"/>
<path d="M193.636 32.6318C193.636 32.7021 189.442 32.7624 184.269 32.7624C179.095 32.7624 174.901 32.7021 174.901 32.6318C174.901 32.5615 179.095 32.5012 184.269 32.5012C189.442 32.5012 193.636 32.5314 193.636 32.6318Z" fill="#263238"/>
<path d="M172.917 34.7715C172.917 34.8468 168.723 34.9021 163.55 34.9021C158.377 34.9021 154.183 34.8468 154.183 34.7715C154.183 34.6961 158.377 34.6409 163.55 34.6409C168.723 34.6409 172.917 34.7011 172.917 34.7715Z" fill="#263238"/>
<path d="M173.826 14.2888C173.826 14.3591 169.632 14.4194 164.459 14.4194C159.286 14.4194 155.092 14.3591 155.092 14.2888C155.092 14.2185 159.286 14.1582 164.459 14.1582C169.632 14.1582 173.826 14.2135 173.826 14.2888Z" fill="#263238"/>
<path d="M168.834 12.7468C167.23 12.9209 165.611 12.9209 164.007 12.7468C165.611 12.5727 167.23 12.5727 168.834 12.7468Z" fill="#455A64"/>
<path d="M159.155 23.9424C157.551 24.1165 155.932 24.1165 154.328 23.9424C155.932 23.7682 157.551 23.7682 159.155 23.9424Z" fill="#455A64"/>
<path d="M159.045 25.9414C157.44 26.1155 155.822 26.1155 154.218 25.9414C155.822 25.7673 157.44 25.7673 159.045 25.9414Z" fill="#455A64"/>
<path d="M200.849 5.73508C200.849 5.81042 189.176 5.8707 174.776 5.8707C160.376 5.8707 148.673 5.81042 148.673 5.73508C148.673 5.65974 160.345 5.60449 174.756 5.60449C189.166 5.60449 200.849 5.66476 200.849 5.73508Z" fill="#263238"/>
<path d="M152.214 4.58984C152.555 4.58984 152.831 4.31324 152.831 3.97205C152.831 3.63085 152.555 3.35425 152.214 3.35425C151.872 3.35425 151.596 3.63085 151.596 3.97205C151.596 4.31324 151.872 4.58984 152.214 4.58984Z" fill="white"/>
<path d="M154.866 4.58984C155.207 4.58984 155.483 4.31324 155.483 3.97205C155.483 3.63085 155.207 3.35425 154.866 3.35425C154.524 3.35425 154.248 3.63085 154.248 3.97205C154.248 4.31324 154.524 4.58984 154.866 4.58984Z" fill="white"/>
<path d="M157.518 4.58984C157.859 4.58984 158.135 4.31324 158.135 3.97205C158.135 3.63085 157.859 3.35425 157.518 3.35425C157.176 3.35425 156.9 3.63085 156.9 3.97205C156.9 4.31324 157.176 4.58984 157.518 4.58984Z" fill="white"/>
<path d="M107.275 191.194H102.916V197.141H107.275V191.194Z" fill="#263238"/>
<path d="M130.646 121.801H169.326V119.917H130.646V121.801Z" fill="#263238"/>
<path d="M175.318 121.8L182.576 94.6123H152.369L145.8 121.8H175.318Z" fill="#263238"/>
<path d="M147.613 119.746H174.595L180.873 95.8682H153.751L147.613 119.746Z" fill="#F5F5F5"/>
<path d="M154.424 100.494L152.751 107.255H170.642L172.551 100.494H154.424Z" fill="#E0E0E0"/>
<path d="M168.764 99.6001C168.764 99.6754 165.629 99.7307 161.757 99.7307C157.884 99.7307 154.75 99.6754 154.75 99.6001C154.75 99.5247 157.884 99.4695 161.757 99.4695C165.629 99.4695 168.764 99.5297 168.764 99.6001Z" fill="#455A64"/>
<path d="M160.622 101.785C158.742 101.959 156.851 101.959 154.971 101.785C156.851 101.611 158.742 101.611 160.622 101.785Z" fill="#263238"/>
<path d="M165.152 101.679C163.933 101.854 162.695 101.854 161.476 101.679C162.695 101.505 163.933 101.505 165.152 101.679Z" fill="#263238"/>
<path d="M170.27 103.01C170.27 103.086 166.81 103.146 162.54 103.146C158.271 103.146 154.81 103.086 154.81 103.01C154.81 102.935 158.271 102.88 162.54 102.88C166.81 102.88 170.27 102.95 170.27 103.01Z" fill="#455A64"/>
<path d="M159.502 104.13C157.832 104.306 156.149 104.306 154.479 104.13C156.149 103.955 157.832 103.955 159.502 104.13Z" fill="#FF6C37"/>
<path d="M168.884 105.733C168.884 105.803 165.675 105.863 161.717 105.863C157.759 105.863 154.544 105.803 154.544 105.733C154.544 105.662 157.754 105.602 161.717 105.602C165.68 105.602 168.884 105.657 168.884 105.733Z" fill="#455A64"/>
<path d="M158.331 109.193C156.494 109.366 154.644 109.366 152.806 109.193C154.644 109.021 156.494 109.021 158.331 109.193Z" fill="#455A64"/>
<path d="M163.073 109.219C162.449 109.34 161.813 109.379 161.179 109.334C160.546 109.373 159.91 109.322 159.291 109.183C159.914 109.062 160.551 109.023 161.184 109.068C161.818 109.029 162.454 109.08 163.073 109.219Z" fill="#263238"/>
<path d="M165.75 109.088C165.75 109.163 165.388 109.218 164.946 109.218C164.504 109.218 164.148 109.163 164.148 109.088C164.148 109.013 164.509 108.957 164.946 108.957C165.383 108.957 165.75 109.018 165.75 109.088Z" fill="#263238"/>
<path d="M154.655 110.58C154.655 110.655 154.258 110.71 153.771 110.71C153.284 110.71 152.892 110.655 152.892 110.58C152.892 110.504 153.289 110.449 153.771 110.449C154.253 110.449 154.655 110.509 154.655 110.58Z" fill="#FF6C37"/>
<path d="M159.929 110.58C158.531 110.754 157.117 110.754 155.72 110.58C157.117 110.405 158.531 110.405 159.929 110.58Z" fill="#263238"/>
<path d="M172.506 110.419C172.506 110.494 169.994 110.55 166.885 110.55C163.776 110.55 161.26 110.494 161.26 110.419C161.26 110.344 163.771 110.288 166.885 110.288C169.999 110.288 172.506 110.349 172.506 110.419Z" fill="#455A64"/>
<path d="M154.384 112.021C154.384 112.092 153.982 112.152 153.479 112.152C152.977 112.152 152.575 112.092 152.575 112.021C152.575 111.951 152.977 111.891 153.479 111.891C153.982 111.891 154.384 111.946 154.384 112.021Z" fill="#263238"/>
<path d="M157.156 111.991C156.808 112.121 156.435 112.165 156.066 112.122C155.696 112.165 155.321 112.12 154.971 111.991C155.321 111.865 155.696 111.82 156.066 111.861C156.435 111.82 156.808 111.865 157.156 111.991Z" fill="#263238"/>
<path d="M165.418 111.861C163.059 112.035 160.691 112.035 158.331 111.861C160.691 111.686 163.059 111.686 165.418 111.861Z" fill="#455A64"/>
<path d="M161.049 114.367C159.623 114.496 158.19 114.54 156.759 114.497C155.328 114.54 153.896 114.496 152.47 114.367C153.896 114.234 155.328 114.191 156.759 114.236C158.19 114.191 159.623 114.235 161.049 114.367Z" fill="#455A64"/>
<path d="M166.056 114.256C164.766 114.43 163.459 114.43 162.169 114.256C163.459 114.082 164.766 114.082 166.056 114.256Z" fill="#FF725E"/>
<path d="M173.495 114.256C171.349 114.43 169.192 114.43 167.046 114.256C169.192 114.082 171.349 114.082 173.495 114.256Z" fill="#263238"/>
<path d="M171.777 99.4946C171.777 99.57 171.476 99.6252 171.109 99.6252C170.743 99.6252 170.441 99.57 170.441 99.4946C170.441 99.4193 170.743 99.364 171.109 99.364C171.476 99.364 171.777 99.4343 171.777 99.4946Z" fill="#263238"/>
<path d="M158.171 98.5905C157.201 98.7646 156.207 98.7646 155.237 98.5905C156.207 98.4164 157.201 98.4164 158.171 98.5905Z" fill="#FF6C37"/>
<path d="M180.421 97.5859H153.299L153.756 95.8682H180.878L180.421 97.5859Z" fill="#EBEBEB"/>
<path d="M154.896 97.0334C155.06 97.0334 155.192 96.9007 155.192 96.737C155.192 96.5733 155.06 96.4407 154.896 96.4407C154.732 96.4407 154.6 96.5733 154.6 96.737C154.6 96.9007 154.732 97.0334 154.896 97.0334Z" fill="#FAFAFA"/>
<path d="M155.915 97.0334C156.079 97.0334 156.212 96.9007 156.212 96.737C156.212 96.5733 156.079 96.4407 155.915 96.4407C155.752 96.4407 155.619 96.5733 155.619 96.737C155.619 96.9007 155.752 97.0334 155.915 97.0334Z" fill="#FAFAFA"/>
<path d="M156.935 97.0334C157.099 97.0334 157.231 96.9007 157.231 96.737C157.231 96.5733 157.099 96.4407 156.935 96.4407C156.771 96.4407 156.639 96.5733 156.639 96.737C156.639 96.9007 156.771 97.0334 156.935 97.0334Z" fill="#FAFAFA"/>
<path d="M213.476 124.332H149.165V161.857H213.476V124.332Z" fill="#263238"/>
<path d="M178.462 124.332H149.165V161.857H178.462V124.332Z" fill="#455A64"/>
<path d="M175.479 137.074C175.471 137.011 175.471 136.947 175.479 136.884V136.336C175.479 135.834 175.479 135.146 175.454 134.252C175.454 132.438 175.424 129.847 175.404 126.652L175.499 126.748L151.932 126.783L152.063 126.652V129.36C152.063 130.254 152.063 131.143 152.063 132.012C152.063 133.754 152.063 135.447 152.063 137.064L151.942 136.944L168.824 136.999L173.726 137.034H175.042H175.389H175.509H175.404H175.072H173.781L168.904 137.064L151.942 137.125H151.817V136.999C151.817 135.382 151.817 133.689 151.817 131.946V126.662L151.948 126.532L175.514 126.567H175.61V126.662C175.584 129.882 175.569 132.494 175.554 134.317C175.554 135.201 175.554 135.894 175.554 136.381V136.914C175.484 137.019 175.479 137.105 175.479 137.074Z" fill="#263238"/>
<path d="M164.695 131.866C164.63 131.581 164.471 131.327 164.243 131.143C164.121 131.057 163.98 131.003 163.832 130.985C163.684 130.966 163.534 130.984 163.394 131.037C163.227 131.102 163.082 131.216 162.98 131.363C162.878 131.511 162.823 131.686 162.822 131.866C162.824 132.045 162.88 132.22 162.982 132.368C163.084 132.515 163.227 132.629 163.394 132.695C163.534 132.746 163.684 132.762 163.832 132.743C163.98 132.724 164.121 132.669 164.243 132.584C164.469 132.399 164.628 132.145 164.695 131.861C164.695 131.861 164.74 131.951 164.695 132.117C164.655 132.358 164.528 132.576 164.339 132.73C164.195 132.847 164.023 132.926 163.84 132.959C163.657 132.991 163.469 132.976 163.294 132.916C163.074 132.84 162.883 132.698 162.748 132.509C162.613 132.32 162.54 132.093 162.54 131.861C162.54 131.629 162.613 131.402 162.748 131.213C162.883 131.024 163.074 130.882 163.294 130.806C163.469 130.745 163.657 130.729 163.84 130.761C164.022 130.793 164.194 130.871 164.339 130.987C164.528 131.141 164.655 131.359 164.695 131.6C164.745 131.776 164.71 131.866 164.695 131.866Z" fill="#263238"/>
<path d="M175.479 148.551C175.472 148.486 175.472 148.421 175.479 148.356V147.808C175.479 147.306 175.479 146.618 175.454 145.724C175.454 143.915 175.424 141.324 175.404 138.124L175.499 138.22L151.932 138.26L152.063 138.129V140.836C152.063 141.736 152.063 142.62 152.063 143.494C152.063 145.236 152.063 146.929 152.063 148.546L151.942 148.421L168.824 148.481L173.726 148.516H175.042H175.389H175.509H175.404H175.072H173.781L168.904 148.551L151.942 148.612H151.817V148.486C151.817 146.869 151.817 145.176 151.817 143.433V138.134C151.787 138.134 152.063 137.883 151.948 137.999L175.514 138.039H175.61V138.109C175.584 141.334 175.569 143.946 175.554 145.769C175.554 146.653 175.554 147.341 175.554 147.833V148.361C175.484 148.496 175.479 148.556 175.479 148.551Z" fill="#263238"/>
<path d="M164.695 143.338C164.625 143.059 164.466 142.811 164.243 142.63C164.109 142.534 163.952 142.477 163.788 142.465C163.624 142.453 163.46 142.486 163.313 142.56C163.166 142.635 163.043 142.748 162.956 142.888C162.87 143.028 162.823 143.188 162.822 143.353C162.823 143.533 162.878 143.708 162.98 143.856C163.082 144.003 163.227 144.117 163.394 144.182C163.534 144.235 163.684 144.253 163.832 144.234C163.98 144.216 164.121 144.162 164.243 144.076C164.47 143.892 164.629 143.637 164.695 143.353C164.695 143.353 164.74 143.443 164.695 143.609C164.655 143.85 164.528 144.068 164.339 144.222C164.195 144.339 164.023 144.418 163.84 144.451C163.657 144.483 163.469 144.468 163.294 144.408C163.074 144.332 162.883 144.19 162.748 144.001C162.613 143.812 162.54 143.585 162.54 143.353C162.54 143.121 162.613 142.894 162.748 142.705C162.883 142.516 163.074 142.374 163.294 142.298C163.469 142.238 163.657 142.223 163.84 142.255C164.023 142.288 164.195 142.367 164.339 142.484C164.528 142.638 164.655 142.856 164.695 143.097C164.745 143.247 164.71 143.338 164.695 143.338Z" fill="#263238"/>
<path d="M175.479 160.023C175.471 159.96 175.471 159.896 175.479 159.833V159.285C175.479 158.783 175.479 158.095 175.454 157.201C175.454 155.387 175.424 152.796 175.404 149.601L175.499 149.697L151.932 149.732L152.063 149.601V152.308C152.063 153.203 152.063 154.092 152.063 154.96C152.063 156.703 152.063 158.396 152.063 160.013L151.942 159.893L168.824 159.948L173.726 159.983H175.042H175.389H175.509H175.404H175.072H173.781L168.904 160.013L151.942 160.074H151.817V159.948C151.817 158.331 151.817 156.638 151.817 154.895V149.611L151.948 149.481L175.514 149.516H175.61V149.611C175.584 152.831 175.569 155.443 175.554 157.266C175.554 158.15 175.554 158.843 175.554 159.33V159.863C175.484 159.968 175.479 160.028 175.479 160.023Z" fill="#263238"/>
<path d="M164.695 154.815C164.63 154.53 164.471 154.275 164.243 154.092C164.121 154.006 163.98 153.952 163.832 153.933C163.684 153.915 163.534 153.933 163.394 153.986C163.227 154.051 163.082 154.164 162.98 154.312C162.878 154.46 162.823 154.635 162.822 154.815C162.823 154.979 162.87 155.14 162.956 155.28C163.043 155.42 163.166 155.533 163.313 155.608C163.46 155.682 163.624 155.715 163.788 155.703C163.952 155.691 164.109 155.634 164.243 155.538C164.469 155.353 164.628 155.099 164.695 154.815C164.695 154.815 164.74 154.905 164.695 155.071C164.655 155.312 164.528 155.53 164.339 155.684C164.195 155.801 164.023 155.88 163.84 155.912C163.657 155.945 163.469 155.93 163.294 155.87C163.074 155.794 162.883 155.652 162.748 155.463C162.613 155.274 162.54 155.047 162.54 154.815C162.54 154.583 162.613 154.356 162.748 154.167C162.883 153.978 163.074 153.836 163.294 153.76C163.469 153.699 163.657 153.683 163.84 153.715C164.022 153.747 164.194 153.824 164.339 153.941C164.528 154.095 164.655 154.313 164.695 154.554C164.745 154.724 164.71 154.815 164.695 154.815Z" fill="#263238"/>
<path d="M106.336 192.4L63.3566 192.365V124.332H106.336V192.4Z" fill="#263238"/>
<path d="M215.812 121.715H61.2822V125.281H215.812V121.715Z" fill="#263238"/>
<path d="M68.1483 125.281H63.3566V197.458H68.1483V125.281Z" fill="#263238"/>
<path d="M213.476 125.281H208.684V197.478H213.476V125.281Z" fill="#263238"/>
<path d="M183.254 125.281H178.462V197.478H183.254V125.281Z" fill="#263238"/>
<path d="M83.0106 121.715C83.0106 121.785 78.4047 121.846 72.724 121.846C67.0433 121.846 62.4375 121.785 62.4375 121.715C62.4375 121.645 67.0433 121.584 72.724 121.584C78.4047 121.584 83.0106 121.64 83.0106 121.715Z" fill="#455A64"/>
<path d="M128.195 193.942L128.316 188.784L118.647 188.492L118.391 196.026L118.988 196.082C121.65 196.313 132.55 197.056 134.343 196.584C136.352 196.041 128.195 193.942 128.195 193.942Z" fill="#FF6C37"/>
<g opacity="0.4">
<path d="M132.173 195.112C132.173 195.112 135.031 196.026 134.654 196.493C134.278 196.96 123.243 196.614 118.391 196.041V195.825L131.264 196.328C131.264 196.328 131.595 195.117 132.173 195.112Z" fill="white"/>
</g>
<path d="M118.26 195.815H118.426L118.928 195.861L120.681 195.991C122.163 196.092 124.197 196.197 126.477 196.272C128.758 196.348 130.797 196.363 132.284 196.358H134.041H134.544H134.71H134.544H134.041H132.284C130.802 196.358 128.768 196.308 126.482 196.237C124.197 196.167 122.168 196.072 120.686 195.991L118.928 195.901H118.426L118.26 195.815Z" fill="#263238"/>
<path d="M131.274 196.478C131.36 196.189 131.48 195.911 131.631 195.65C131.812 195.41 132.02 195.191 132.248 194.997C131.955 195.116 131.705 195.322 131.531 195.586C131.357 195.851 131.268 196.162 131.274 196.478Z" fill="#263238"/>
<path d="M128.466 194.946C128.491 194.946 128.637 194.801 128.783 194.585C128.928 194.369 129.029 194.173 129.004 194.158C128.979 194.143 128.833 194.298 128.687 194.519C128.542 194.74 128.441 194.926 128.466 194.946Z" fill="#263238"/>
<path d="M127.698 194.51C127.698 194.51 127.874 194.434 128.044 194.289C128.215 194.143 128.336 194.007 128.316 193.982C128.295 193.957 128.14 194.057 127.969 194.203C127.798 194.349 127.678 194.484 127.698 194.51Z" fill="#263238"/>
<path d="M127.231 193.58C127.391 193.642 127.562 193.669 127.733 193.661C127.901 193.686 128.073 193.673 128.235 193.621C128.075 193.56 127.904 193.532 127.733 193.54C127.457 193.53 127.231 193.545 127.231 193.58Z" fill="#263238"/>
<path d="M127.075 192.932C127.239 193.045 127.433 193.108 127.632 193.113C127.828 193.151 128.031 193.13 128.215 193.053C128.027 193.014 127.835 192.996 127.643 192.998C127.456 192.955 127.266 192.933 127.075 192.932Z" fill="#263238"/>
<path d="M128.823 194.113C129.027 194.148 129.236 194.148 129.441 194.113C129.667 194.09 129.89 194.048 130.109 193.987C130.241 193.952 130.369 193.904 130.49 193.841C130.566 193.802 130.623 193.736 130.651 193.656C130.663 193.61 130.661 193.562 130.646 193.517C130.631 193.473 130.603 193.433 130.566 193.405C130.332 193.281 130.063 193.242 129.804 193.294C129.545 193.346 129.312 193.486 129.144 193.691C129.045 193.812 128.972 193.952 128.928 194.103C128.917 194.157 128.917 194.214 128.928 194.268C129 194.085 129.102 193.916 129.23 193.766C129.373 193.607 129.56 193.494 129.767 193.44C130.015 193.367 130.281 193.392 130.511 193.51C130.606 193.585 130.561 193.701 130.45 193.766C130.337 193.822 130.22 193.867 130.099 193.902C129.887 193.967 129.67 194.018 129.451 194.052C129.084 194.098 128.823 194.093 128.823 194.113Z" fill="#263238"/>
<path d="M128.979 194.148C129.059 194.021 129.089 193.869 129.064 193.721C129.051 193.556 128.997 193.398 128.908 193.259C128.859 193.166 128.788 193.086 128.7 193.028C128.612 192.97 128.511 192.936 128.406 192.927C128.342 192.938 128.285 192.974 128.248 193.027C128.21 193.079 128.195 193.145 128.205 193.209C128.218 193.308 128.252 193.404 128.306 193.49C128.381 193.629 128.476 193.758 128.587 193.872C128.68 193.986 128.799 194.077 128.933 194.138C128.933 194.138 128.813 194.022 128.647 193.816C128.552 193.7 128.469 193.573 128.401 193.44C128.321 193.304 128.265 193.068 128.426 193.043C128.587 193.018 128.732 193.193 128.823 193.319C128.908 193.442 128.965 193.583 128.989 193.731C129 193.87 128.996 194.01 128.979 194.148Z" fill="#263238"/>
<path d="M118.536 193.173C118.536 193.198 118.818 193.173 119.25 193.224C119.818 193.301 120.353 193.54 120.79 193.911C121.228 194.282 121.551 194.77 121.721 195.318C121.786 195.548 121.84 195.781 121.881 196.016C121.894 195.952 121.894 195.885 121.881 195.82C121.864 195.651 121.834 195.483 121.791 195.318C121.635 194.744 121.309 194.23 120.855 193.846C120.401 193.461 119.842 193.223 119.25 193.163C119.073 193.145 118.894 193.145 118.717 193.163C118.657 193.159 118.596 193.163 118.536 193.173Z" fill="#263238"/>
<path d="M119.661 189.18C119.577 189.838 119.528 190.501 119.516 191.164C119.47 191.833 119.461 192.504 119.491 193.173C119.576 192.515 119.624 191.853 119.636 191.189C119.686 190.521 119.694 189.85 119.661 189.18Z" fill="#263238"/>
<path d="M123.142 195.162C123.601 195.286 124.074 195.348 124.549 195.348C125.022 195.385 125.498 195.361 125.965 195.278C125.965 195.243 125.332 195.278 124.554 195.233C123.775 195.188 123.147 195.132 123.142 195.162Z" fill="#263238"/>
<path d="M121.249 195.102C121.249 195.102 121.294 195.238 121.354 195.383C121.414 195.529 121.444 195.665 121.48 195.66C121.515 195.655 121.535 195.509 121.48 195.343C121.424 195.177 121.269 195.082 121.249 195.102Z" fill="#263238"/>
<path d="M120.545 194.193C120.545 194.193 120.581 194.319 120.676 194.424C120.771 194.53 120.872 194.595 120.897 194.57C120.922 194.545 120.862 194.449 120.761 194.344C120.661 194.238 120.586 194.173 120.545 194.193Z" fill="#263238"/>
<path d="M119.541 193.756C119.541 193.791 119.676 193.791 119.817 193.847C119.958 193.902 120.058 193.977 120.083 193.957C120.108 193.937 120.033 193.801 119.857 193.736C119.682 193.671 119.541 193.726 119.541 193.756Z" fill="#263238"/>
<path d="M118.828 193.54C118.828 193.57 118.873 193.621 118.948 193.656C119.024 193.691 119.104 193.691 119.114 193.656C119.124 193.621 119.074 193.57 118.993 193.54C118.913 193.51 118.843 193.51 118.828 193.54Z" fill="#263238"/>
<g opacity="0.3">
<path d="M118.556 192.917L128.22 193.053L128.24 191.888L118.501 192.3L118.556 192.917Z" fill="black"/>
</g>
<path d="M143.444 194.745V189.582L133.77 189.547L133.715 197.081L134.313 197.121C136.98 197.277 147.874 197.734 149.677 197.202C151.656 196.624 143.444 194.745 143.444 194.745Z" fill="#FF6C37"/>
<g opacity="0.4">
<path d="M147.452 195.805C147.452 195.805 150.33 196.649 149.964 197.121C149.597 197.594 138.562 197.548 133.695 197.121V196.905L146.573 197.071C146.573 197.071 146.89 195.831 147.452 195.805Z" fill="white"/>
</g>
<path d="M133.564 196.875H133.73L134.207 196.905L135.965 196.991C137.447 197.051 139.481 197.106 141.766 197.116C144.052 197.126 146.086 197.116 147.573 197.051L149.331 196.986L149.808 196.956H149.974H149.331L147.573 196.981C146.066 196.981 144.032 197.026 141.766 197.016C139.501 197.006 137.452 196.961 135.965 196.925L134.207 196.875H133.564Z" fill="#263238"/>
<path d="M146.593 197.202C146.669 196.909 146.78 196.628 146.925 196.363C147.099 196.116 147.301 195.89 147.528 195.69C147.225 195.8 146.975 196.018 146.824 196.302C146.637 196.562 146.555 196.883 146.593 197.202Z" fill="#263238"/>
<path d="M143.745 195.74C143.77 195.74 143.906 195.589 144.052 195.368C144.197 195.147 144.283 194.957 144.258 194.936C144.233 194.916 144.092 195.087 143.951 195.308C143.811 195.529 143.715 195.72 143.745 195.74Z" fill="#263238"/>
<path d="M142.962 195.323C142.962 195.323 143.138 195.243 143.303 195.097C143.469 194.951 143.59 194.806 143.57 194.781C143.549 194.755 143.394 194.861 143.228 195.007C143.062 195.152 142.942 195.298 142.962 195.323Z" fill="#263238"/>
<path d="M142.47 194.409C142.631 194.466 142.802 194.488 142.972 194.474C143.141 194.495 143.312 194.478 143.474 194.424C143.474 194.389 143.253 194.359 142.972 194.359C142.691 194.359 142.47 194.364 142.47 194.409Z" fill="#263238"/>
<path d="M142.304 193.761C142.471 193.871 142.667 193.929 142.866 193.927C143.064 193.966 143.268 193.94 143.449 193.851C143.26 193.822 143.068 193.809 142.876 193.811C142.687 193.778 142.496 193.761 142.304 193.761Z" fill="#263238"/>
<path d="M144.077 194.896C144.281 194.935 144.491 194.935 144.695 194.896C144.92 194.871 145.142 194.823 145.358 194.751C145.491 194.716 145.619 194.666 145.739 194.6C145.814 194.556 145.869 194.486 145.895 194.404C145.904 194.358 145.9 194.311 145.883 194.267C145.866 194.223 145.837 194.186 145.8 194.158C145.563 194.04 145.293 194.009 145.035 194.068C144.778 194.128 144.549 194.275 144.388 194.484C144.295 194.608 144.225 194.747 144.182 194.896C144.169 194.952 144.169 195.011 144.182 195.067C144.249 194.885 144.346 194.715 144.469 194.565C144.61 194.401 144.794 194.281 145.001 194.218C145.245 194.138 145.51 194.158 145.739 194.273C145.84 194.349 145.8 194.464 145.689 194.53C145.579 194.59 145.463 194.639 145.343 194.675C145.132 194.746 144.918 194.801 144.7 194.841C144.313 194.866 144.077 194.866 144.077 194.896Z" fill="#263238"/>
<path d="M144.238 194.931C144.31 194.8 144.335 194.647 144.308 194.499C144.291 194.336 144.234 194.179 144.142 194.042C144.091 193.952 144.018 193.877 143.93 193.821C143.843 193.766 143.743 193.733 143.64 193.726C143.608 193.732 143.578 193.744 143.552 193.762C143.525 193.779 143.502 193.802 143.484 193.829C143.467 193.856 143.454 193.886 143.448 193.917C143.442 193.948 143.442 193.981 143.449 194.012C143.463 194.111 143.499 194.205 143.555 194.288C143.635 194.426 143.733 194.553 143.846 194.665C144.037 194.856 144.192 194.931 144.197 194.916C144.202 194.901 144.077 194.806 143.906 194.61C143.807 194.493 143.72 194.367 143.645 194.233C143.56 194.103 143.504 193.866 143.645 193.841C143.786 193.816 143.956 193.982 144.052 194.103C144.14 194.223 144.2 194.362 144.228 194.509C144.243 194.649 144.246 194.791 144.238 194.931Z" fill="#263238"/>
<path d="M133.77 194.233C133.77 194.233 134.047 194.208 134.483 194.263C135.053 194.329 135.592 194.554 136.041 194.911C136.485 195.273 136.821 195.751 137.01 196.292C137.156 196.704 137.171 196.986 137.191 196.981C137.201 196.916 137.201 196.85 137.191 196.785C137.172 196.615 137.138 196.447 137.09 196.282C136.919 195.713 136.579 195.208 136.115 194.836C135.652 194.463 135.087 194.239 134.494 194.193C134.316 194.177 134.138 194.177 133.961 194.193C133.836 194.208 133.77 194.223 133.77 194.233Z" fill="#263238"/>
<path d="M134.79 190.21C134.72 190.877 134.69 191.548 134.699 192.219C134.665 192.889 134.674 193.56 134.725 194.228C134.792 193.561 134.822 192.89 134.815 192.219C134.849 191.549 134.841 190.878 134.79 190.21Z" fill="#263238"/>
<path d="M138.426 196.102C138.889 196.211 139.363 196.26 139.838 196.247C140.313 196.271 140.789 196.234 141.254 196.137C141.254 196.107 140.616 196.137 139.838 196.137C139.059 196.137 138.431 196.066 138.426 196.102Z" fill="#263238"/>
<path d="M136.528 196.087C136.528 196.112 136.583 196.222 136.643 196.368C136.704 196.513 136.744 196.644 136.779 196.639C136.814 196.634 136.829 196.488 136.754 196.323C136.678 196.157 136.553 196.066 136.528 196.087Z" fill="#263238"/>
<path d="M135.82 195.198C135.794 195.198 135.86 195.318 135.96 195.424C136.061 195.529 136.156 195.589 136.181 195.564C136.206 195.539 136.141 195.444 136.041 195.338C135.94 195.233 135.845 195.172 135.82 195.198Z" fill="#263238"/>
<path d="M134.8 194.786C134.8 194.821 134.936 194.821 135.076 194.871C135.217 194.921 135.322 194.997 135.347 194.977C135.372 194.957 135.292 194.821 135.116 194.761C134.941 194.7 134.79 194.756 134.8 194.786Z" fill="#263238"/>
<path d="M134.072 194.59C134.072 194.62 134.117 194.67 134.197 194.705C134.278 194.741 134.353 194.735 134.363 194.705C134.373 194.675 134.318 194.625 134.237 194.595C134.157 194.565 134.107 194.56 134.072 194.59Z" fill="#263238"/>
<g opacity="0.3">
<path d="M133.785 193.972L143.449 193.856L143.439 192.691L133.71 193.359L133.785 193.972Z" fill="black"/>
</g>
<path d="M122.087 106.361L125.96 118.018C127.005 121.168 129.757 121.71 133.077 121.71H154.62V116.873L134.941 114.066L130.249 102.081L122.087 106.361Z" fill="#FFBE9D"/>
<path d="M156.99 115.874L158.698 115.065C158.698 115.065 160.541 111.504 160.963 111.65C161.385 111.795 161.511 112.84 160.772 114.472L163.043 113.824C163.043 113.824 167.965 116.1 167.749 116.406C167.533 116.713 167.126 117.441 166.056 116.908C164.987 116.376 163.575 115.713 163.575 115.713L160.923 116.471L164.344 116.908L167.563 119.832C167.563 119.832 166.503 120.625 165.594 119.786L157.236 121.58L154.62 121.73V116.893L156.99 115.874Z" fill="#FFBE9D"/>
<path d="M165.594 119.771C165.559 119.771 165.403 119.545 165.092 119.219C164.914 119.032 164.71 118.872 164.484 118.747C164.201 118.611 163.894 118.531 163.58 118.511C162.731 118.453 161.889 118.31 161.069 118.084C161.92 118.055 162.771 118.112 163.61 118.254C163.962 118.276 164.305 118.374 164.615 118.541C164.856 118.687 165.069 118.876 165.243 119.098C165.418 119.287 165.539 119.52 165.594 119.771Z" fill="#EB996E"/>
<path d="M164.288 120.103C164.253 120.103 164.228 119.932 163.997 119.882C163.766 119.832 163.374 119.791 162.992 119.751C162.5 119.743 162.01 119.695 161.526 119.605C162.01 119.437 162.529 119.397 163.033 119.49C163.39 119.521 163.742 119.593 164.082 119.706C164.142 119.728 164.196 119.763 164.239 119.81C164.283 119.856 164.315 119.911 164.334 119.972C164.334 120.063 164.303 120.108 164.288 120.103Z" fill="#EB996E"/>
<path d="M103.9 58.4086L102.73 82.1059L112.876 83.0602L113.438 77.3343C113.438 77.3343 117.014 78.2183 118.099 74.9083C118.798 72.7937 119.415 56.2288 119.415 56.2288L103.9 58.4086Z" fill="#FFBE9D"/>
<path d="M120.289 58.9711C120.571 61.1912 117.472 62.487 117.472 62.487L116.929 67.7358C116.444 67.7011 115.957 67.7011 115.472 67.7358C115.734 65.2746 112.559 65.7568 112.238 67.4344C111.916 69.112 113.745 70.1266 113.745 70.1266C112.479 72.0704 111.962 73.1 110.163 74.9233C108.215 76.8972 107.15 77.058 105.141 76.9977L102.926 76.8972C102.926 76.8972 102.132 75.0037 101.554 70.5284C101.278 68.3787 99.5956 65.5559 100.078 62.0601C101.434 52.1201 110.957 53.1699 110.957 53.1699C115.935 53.2753 119.636 53.8278 120.289 58.9711Z" fill="#263238"/>
<path d="M113.011 53.426C115.161 53.4813 117.391 53.652 119.28 54.6817C121.168 55.7114 122.625 57.836 122.238 59.9506L121.163 60.1464L120.721 59.3528C120.721 59.7748 120.721 60.1967 120.721 60.6186L118.833 61.146C118.549 59.5335 117.981 57.9842 117.155 56.5703" fill="#263238"/>
<path d="M104.302 64.3303C104.227 64.216 104.171 64.0906 104.136 63.9586C104.014 63.6073 103.924 63.2459 103.865 62.8787C103.661 61.6595 103.746 60.4094 104.113 59.2291C104.48 58.0487 105.12 56.9711 105.979 56.083C106.233 55.8123 106.51 55.5652 106.808 55.3446C106.913 55.2535 107.031 55.1804 107.16 55.1287C107.185 55.1638 106.723 55.5104 106.115 56.2035C105.326 57.1064 104.732 58.1634 104.372 59.3076C104.027 60.4558 103.921 61.6628 104.061 62.8536C104.156 63.7728 104.347 64.3152 104.302 64.3303Z" fill="#455A64"/>
<path d="M106.301 63.5016C106.106 63.1195 105.972 62.7094 105.904 62.2861C105.681 61.2742 105.615 60.234 105.708 59.2021C105.796 58.1668 106.039 57.1506 106.432 56.1885C106.573 55.782 106.778 55.4005 107.039 55.0583C106.499 56.3889 106.139 57.786 105.969 59.2121C105.888 60.6503 106 62.0929 106.301 63.5016Z" fill="#455A64"/>
<path d="M119.255 59.8251C119.204 59.8251 119.119 59.2123 118.707 58.3183C118.178 57.1395 117.33 56.132 116.259 55.4096C115.188 54.6871 113.936 54.2785 112.645 54.2298C111.64 54.1846 111.042 54.3352 111.032 54.29C111.165 54.2232 111.307 54.1791 111.454 54.1595C111.848 54.0815 112.248 54.0444 112.65 54.049C113.99 54.047 115.301 54.4477 116.411 55.199C117.522 55.9503 118.381 57.0178 118.878 58.263C119.03 58.6337 119.142 59.0192 119.214 59.4132C119.25 59.5474 119.264 59.6865 119.255 59.8251Z" fill="#455A64"/>
<path d="M104.618 51.5073C105.186 51.6273 105.698 51.9309 106.075 52.3712C106.515 52.7489 106.816 53.2637 106.929 53.8328C106.858 53.863 106.532 53.1899 105.889 52.5521C105.246 51.9142 104.583 51.5827 104.618 51.5073Z" fill="#263238"/>
<path d="M106.984 51.5173C107.059 51.5424 106.904 52.0749 106.934 52.7328C106.964 53.3908 107.145 53.9031 107.074 53.9383C106.792 53.6062 106.648 53.1782 106.673 52.7429C106.613 52.3094 106.724 51.8696 106.984 51.5173Z" fill="#455A64"/>
<path d="M120.264 103.819L121.917 109.429L132.434 104.673C132.058 103.498 130.315 98.2639 126.99 89.9563C126.079 87.6788 124.598 85.6742 122.688 84.1356C120.778 82.5969 118.504 81.5761 116.085 81.1715C112.769 80.5664 109.41 80.2304 106.04 80.167C100.143 80.2323 91.4739 83.919 90.2985 89.7102C89.4045 94.1201 90.2634 101.91 90.2634 111.373L91.0319 129.455L121.249 130.46L120.264 103.819Z" fill="#FF6C37"/>
<g opacity="0.3">
<path d="M90.2784 107.194C93.9551 107.948 97.7271 107.194 101.474 106.968C103.744 106.833 106.266 106.587 108.064 107.973C109.49 109.078 110.073 110.941 110.475 112.699C112.042 119.395 112.323 123.885 112.675 130.751L94.4875 131.856L90.2784 107.194Z" fill="black"/>
</g>
<path d="M126.106 88.2236C126.106 88.2989 118.17 88.3542 108.385 88.3542C98.6011 88.3542 90.6702 88.2989 90.6702 88.2236C90.6702 88.1483 98.6011 88.093 108.385 88.093C118.17 88.093 126.106 88.1533 126.106 88.2236Z" fill="#FAFAFA"/>
<path d="M128.311 93.3015C128.311 93.3718 119.681 93.4321 109.048 93.4321C98.4152 93.4321 89.7862 93.3718 89.7862 93.3015C89.7862 93.2312 98.4052 93.1709 109.048 93.1709C119.692 93.1709 128.311 93.2312 128.311 93.3015Z" fill="#FAFAFA"/>
<path d="M131.093 99.6704C131.093 99.7457 121.891 99.801 110.54 99.801C99.1888 99.801 89.9871 99.7457 89.9871 99.6704C89.9871 99.595 99.1888 99.5398 110.54 99.5398C121.891 99.5398 131.093 99.6001 131.093 99.6704Z" fill="#FAFAFA"/>
<path d="M120.043 106.541C120.043 106.612 117.165 106.672 113.624 106.672C110.083 106.672 107.2 106.612 107.2 106.541C107.2 106.471 110.073 106.411 113.624 106.411C117.175 106.411 120.043 106.466 120.043 106.541Z" fill="#FAFAFA"/>
<path d="M120.631 114C120.631 114.07 117.617 114.106 113.91 114.075C110.204 114.045 107.19 113.965 107.19 113.89C107.19 113.814 110.204 113.784 113.91 113.814C117.617 113.844 120.631 113.915 120.631 114Z" fill="#FAFAFA"/>
<path d="M120.922 120.053C120.748 120.084 120.571 120.093 120.395 120.078L118.953 120.048C117.738 120.022 116.06 119.987 114.207 119.987C112.353 119.987 110.691 120.017 109.46 120.043L108.019 120.073C107.842 120.096 107.663 120.096 107.486 120.073C107.658 120.023 107.835 119.996 108.014 119.992C108.35 119.957 108.842 119.922 109.45 119.887C110.666 119.811 112.348 119.751 114.207 119.751C116.065 119.751 117.748 119.817 118.958 119.892C119.566 119.927 120.058 119.967 120.4 120.002C120.575 119.998 120.751 120.015 120.922 120.053Z" fill="#FAFAFA"/>
<path d="M120.827 124.955C120.827 125.025 117.863 125.085 114.207 125.085C110.55 125.085 107.592 125.025 107.592 124.955C107.592 124.884 110.55 124.824 114.207 124.824C117.863 124.824 120.827 124.879 120.827 124.955Z" fill="#FAFAFA"/>
<path d="M121.726 83.2461C121.726 83.3214 115.909 83.3767 108.737 83.3767C101.565 83.3767 95.7432 83.3214 95.7432 83.2461C95.7432 83.1707 101.559 83.1155 108.737 83.1155C115.914 83.1155 121.726 83.1758 121.726 83.2461Z" fill="#FAFAFA"/>
<path d="M121.048 84.1903C121.048 84.2205 120.746 84.2355 120.244 84.4314C119.547 84.7371 118.945 85.2246 118.501 85.8428C117.86 86.7715 117.5 87.8645 117.461 88.9921C117.423 90.3791 117.531 91.7663 117.783 93.1308C118.206 95.6301 118.769 98.1036 119.471 100.539C119.717 101.448 119.923 102.197 120.078 102.764C120.163 103.034 120.228 103.309 120.274 103.588C120.154 103.333 120.056 103.067 119.983 102.795C119.812 102.292 119.571 101.524 119.29 100.59C118.542 98.1577 117.955 95.6796 117.532 93.171C117.28 91.7863 117.179 90.3784 117.23 88.972C117.283 87.8041 117.677 86.6774 118.366 85.7323C118.836 85.0983 119.48 84.6134 120.219 84.336C120.419 84.2678 120.626 84.2207 120.837 84.1954C120.906 84.1836 120.977 84.1819 121.048 84.1903Z" fill="#263238"/>
<path d="M132.098 103.236C131.629 103.563 131.134 103.849 130.616 104.09C129.682 104.592 128.371 105.22 126.904 105.883C125.438 106.546 124.091 107.099 123.107 107.476C122.584 107.702 122.043 107.885 121.49 108.023C121.987 107.746 122.504 107.506 123.037 107.305C124.001 106.883 125.337 106.3 126.799 105.647C128.26 104.994 129.576 104.366 130.531 103.924C131.037 103.66 131.56 103.43 132.098 103.236Z" fill="#263238"/>
<path d="M100.359 129.751L136.462 131.027C139.279 131.128 141.945 132.329 143.886 134.372C145.828 136.415 146.892 139.138 146.849 141.957L145.343 193.52L131.395 193.058L132.434 144.779L100.354 143.936L100.359 129.751Z" fill="#263238"/>
<path d="M85.4416 129.751L121.55 131.027C124.367 131.128 127.032 132.329 128.974 134.372C130.916 136.415 131.979 139.138 131.937 141.957L130.43 193.52L116.296 192.4L117.532 144.779L85.4516 143.936L85.4416 129.751Z" fill="#263238"/>
<path d="M112.464 148.481H108.913V191.029H112.464V148.481Z" fill="#455A64"/>
<path d="M79.1129 107.184V138.506C79.1129 140.479 79.8966 142.371 81.2917 143.766C82.6867 145.161 84.5787 145.945 86.5516 145.945H107.411V107.184C107.411 106.749 107.325 106.318 107.159 105.916C106.992 105.514 106.748 105.148 106.44 104.84C106.132 104.533 105.767 104.288 105.365 104.122C104.962 103.955 104.531 103.869 104.096 103.869H82.4279C81.9926 103.869 81.5615 103.955 81.1593 104.122C80.7571 104.288 80.3917 104.533 80.0839 104.84C79.7761 105.148 79.5319 105.514 79.3653 105.916C79.1987 106.318 79.1129 106.749 79.1129 107.184Z" fill="#455A64"/>
<path d="M135.478 148.481H84.6882C84.6882 147.016 85.2703 145.61 86.3064 144.574C87.3425 143.538 88.7478 142.956 90.2132 142.956H129.978C131.443 142.956 132.849 143.538 133.885 144.574C134.921 145.61 135.503 147.016 135.503 148.481H135.478Z" fill="#455A64"/>
<path d="M107.411 142.238C107.417 142.318 107.417 142.399 107.411 142.479C107.407 142.709 107.378 142.938 107.326 143.162C107.158 143.871 106.788 144.516 106.26 145.019C105.732 145.521 105.069 145.858 104.352 145.99C103.685 146.062 103.014 146.087 102.343 146.065H97.7774C94.5377 146.065 91.6045 146.065 89.4849 146.035L86.9735 146L86.2904 145.975C86.2095 145.974 86.1288 145.965 86.0493 145.95C86.1277 145.927 86.209 145.917 86.2904 145.92L86.9735 145.895L89.4849 145.849C91.6045 145.824 94.5377 145.809 97.7774 145.804H102.338C102.996 145.831 103.656 145.816 104.312 145.759C104.868 145.664 105.395 145.441 105.849 145.106C106.52 144.611 107.004 143.903 107.22 143.097C107.396 142.57 107.381 142.238 107.411 142.238Z" fill="#263238"/>
<path d="M113.805 148.592C112.771 148.724 111.727 148.768 110.686 148.722C109.646 148.767 108.604 148.724 107.572 148.592C108.604 148.463 109.646 148.419 110.686 148.461C111.727 148.419 112.771 148.463 113.805 148.592Z" fill="#263238"/>
<path d="M129.255 146.216C129.106 145.724 129.001 145.22 128.943 144.709C128.773 143.745 128.547 142.343 128.275 140.616C128.004 138.888 127.818 136.793 126.864 134.719C126.364 133.64 125.731 132.628 124.98 131.705C124.16 130.727 123.206 129.868 122.148 129.154C121.093 128.431 119.935 127.874 118.712 127.501C117.574 127.138 116.391 126.933 115.196 126.893C112.901 126.843 110.801 126.853 109.053 126.818C107.305 126.783 105.884 126.768 104.905 126.738C104.4 126.749 103.896 126.714 103.398 126.632C103.896 126.554 104.4 126.521 104.905 126.532C105.884 126.502 107.3 126.472 109.053 126.451C110.806 126.431 112.881 126.386 115.211 126.416C117.787 126.477 120.291 127.277 122.424 128.722C123.525 129.461 124.513 130.356 125.357 131.379C126.134 132.34 126.784 133.396 127.291 134.523C127.406 134.789 127.502 135.065 127.607 135.332L127.758 135.733C127.793 135.869 127.833 136.005 127.869 136.14C127.944 136.407 128.019 136.673 128.09 136.934C128.16 137.195 128.185 137.461 128.235 137.717C128.411 138.747 128.506 139.691 128.627 140.565C128.848 142.298 129.024 143.71 129.129 144.679C129.217 145.186 129.259 145.701 129.255 146.216Z" fill="#455A64"/>
<path d="M126.221 194.866H125.719C125.755 192.859 125.392 190.864 124.649 188.998C123.906 187.133 122.798 185.434 121.392 184.002C119.985 182.569 118.307 181.431 116.455 180.654C114.604 179.877 112.616 179.477 110.608 179.477C108.6 179.477 106.612 179.877 104.761 180.654C102.909 181.431 101.231 182.569 99.8242 184.002C98.4174 185.434 97.3102 187.133 96.5672 188.998C95.8243 190.864 95.4605 192.859 95.4971 194.866H94.9948C94.9576 192.792 95.334 190.732 96.1019 188.805C96.8698 186.878 98.0139 185.123 99.4674 183.644C100.921 182.164 102.655 180.988 104.567 180.186C106.48 179.384 108.534 178.97 110.608 178.97C112.682 178.97 114.736 179.384 116.648 180.186C118.561 180.988 120.295 182.164 121.748 183.644C123.202 185.123 124.346 186.878 125.114 188.805C125.882 190.732 126.258 192.792 126.221 194.866Z" fill="#455A64"/>
<path d="M97.5865 195.66C97.5865 196.123 97.4492 196.575 97.1921 196.96C96.9349 197.345 96.5693 197.645 96.1416 197.822C95.7139 197.999 95.2433 198.046 94.7893 197.955C94.3353 197.865 93.9182 197.642 93.5909 197.315C93.2635 196.987 93.0406 196.57 92.9503 196.116C92.86 195.662 92.9063 195.192 93.0835 194.764C93.2607 194.336 93.5607 193.971 93.9456 193.714C94.3305 193.456 94.783 193.319 95.2459 193.319C95.5535 193.318 95.8581 193.379 96.1424 193.496C96.4267 193.613 96.685 193.786 96.9025 194.003C97.1199 194.221 97.2923 194.479 97.4097 194.763C97.5271 195.047 97.5872 195.352 97.5865 195.66Z" fill="#263238"/>
<path d="M128.426 195.338C128.426 195.801 128.289 196.254 128.032 196.639C127.774 197.023 127.409 197.323 126.981 197.501C126.553 197.678 126.083 197.724 125.629 197.634C125.175 197.543 124.758 197.321 124.43 196.993C124.103 196.666 123.88 196.249 123.79 195.795C123.7 195.341 123.746 194.87 123.923 194.442C124.1 194.015 124.4 193.649 124.785 193.392C125.17 193.135 125.623 192.998 126.085 192.998C126.706 192.998 127.302 193.244 127.741 193.683C128.179 194.122 128.426 194.717 128.426 195.338Z" fill="#263238"/>
<path d="M126.07 191.029C126.07 191.104 119.275 191.164 110.897 191.164C102.519 191.164 95.7231 191.104 95.7231 191.029C95.7231 190.953 102.514 190.898 110.897 190.898C119.28 190.898 126.07 190.958 126.07 191.029Z" fill="#455A64"/>
<path d="M74.2359 93.2913C74.6063 93.5255 74.926 93.8314 75.1761 94.1912C75.4263 94.5509 75.6019 94.9571 75.6925 95.3858C75.8642 96.2496 75.8367 97.1411 75.6121 97.9926C75.2304 99.6401 74.1053 101.217 72.8998 102.433C71.6391 101.041 71.5638 98.8615 71.5939 97.7515C71.6441 95.9986 72.8044 92.8594 74.2359 93.2913Z" fill="#FF6C37"/>
<path d="M74.2158 105.386C74.1777 104.899 74.2687 104.41 74.4794 103.97C74.6901 103.529 75.0132 103.151 75.4162 102.875C75.8257 102.605 76.2847 102.418 76.7667 102.327C77.2486 102.236 77.744 102.241 78.2239 102.342C78.4491 102.366 78.6664 102.438 78.8607 102.555C79.055 102.671 79.2217 102.828 79.349 103.015C79.4377 103.208 79.4733 103.421 79.4521 103.632C79.4309 103.843 79.3537 104.045 79.2284 104.216C78.9692 104.558 78.622 104.824 78.2239 104.984C76.913 105.607 75.5317 105.989 74.2057 105.396" fill="#FF6C37"/>
<path d="M72.0962 109.063C72.1658 108.694 72.2735 108.334 72.4176 107.988C72.558 107.603 72.7453 107.237 72.9752 106.898C73.2378 106.474 73.5299 106.07 73.8491 105.687C74.4364 104.983 75.1887 104.434 76.039 104.09C76.2977 103.995 76.5652 103.926 76.8376 103.884C76.9374 103.868 77.0392 103.868 77.139 103.884C77.139 103.919 76.7171 103.965 76.0893 104.231C75.2807 104.6 74.565 105.146 73.9948 105.828C73.6797 106.203 73.3879 106.598 73.1208 107.008C72.8908 107.335 72.6955 107.686 72.5382 108.053C72.4151 108.4 72.2674 108.737 72.0962 109.063Z" fill="#263238"/>
<path d="M73.5628 95.7576C73.5816 95.9463 73.5816 96.1364 73.5628 96.3251C73.5628 96.6868 73.5126 97.2142 73.4674 97.8621C73.372 99.163 73.2163 100.956 73.0053 102.935C72.7943 104.914 72.5432 106.692 72.3373 107.958C72.2318 108.601 72.1464 109.118 72.0761 109.465C72.0502 109.652 72.0082 109.837 71.9505 110.017C71.9488 109.827 71.9657 109.637 72.0008 109.45C72.056 109.058 72.1213 108.54 72.2017 107.943C72.3724 106.652 72.5985 104.869 72.8144 102.89C73.0304 100.911 73.1962 99.158 73.3167 97.832C73.382 97.2091 73.4372 96.6918 73.4774 96.295C73.4928 96.114 73.5213 95.9344 73.5628 95.7576Z" fill="#263238"/>
<path d="M72.0158 105.783C71.8221 104.766 71.3895 103.81 70.7538 102.994C70.118 102.177 69.2973 101.524 68.3593 101.087C67.857 100.871 67.2593 100.735 66.8776 101.087C66.4958 101.438 66.5963 102.091 66.7972 102.568C67.235 103.576 67.9615 104.431 68.885 105.025C69.8085 105.62 70.8875 105.927 71.9857 105.908" fill="#FF6C37"/>
<path d="M68.7259 102.583C68.821 102.613 68.9108 102.657 68.9921 102.714C70.0075 103.297 70.8915 104.084 71.5889 105.025C71.8635 105.441 72.0687 105.899 72.1966 106.381C72.2958 106.775 72.3414 107.18 72.3323 107.586C72.3252 107.858 72.2933 108.129 72.2368 108.395C72.2237 108.495 72.1966 108.593 72.1565 108.686C72.1163 108.686 72.2067 108.259 72.1966 107.586C72.1869 107.194 72.1312 106.805 72.0309 106.426C71.8963 105.966 71.6931 105.529 71.4282 105.13C70.9209 104.412 70.3019 103.779 69.5949 103.257C69.2916 103.05 69.0014 102.826 68.7259 102.583Z" fill="#263238"/>
<path d="M71.8501 121.715C70.1845 121.714 68.5875 121.051 67.4103 119.873C66.233 118.695 65.5717 117.097 65.5717 115.432V109.153H78.1285V115.432C78.1285 117.097 77.4672 118.695 76.2899 119.873C75.1126 121.051 73.5157 121.714 71.8501 121.715Z" fill="#263238"/>
<path d="M78.1335 112.242C78.0828 112.306 78.0256 112.365 77.9627 112.418L77.4605 112.885L75.5468 114.502L75.5016 114.537L75.4463 114.507L71.8249 112.332H71.9304L68.52 114.502L68.4698 114.537L68.4195 114.497L66.3351 112.865L65.7625 112.403C65.6916 112.351 65.6275 112.29 65.5717 112.222C65.6535 112.255 65.7297 112.301 65.7977 112.358C65.9584 112.473 66.1593 112.619 66.4004 112.785L68.525 114.362H68.4246L71.7948 112.142L71.8501 112.106L71.9053 112.137L75.5267 114.357H75.4262L77.37 112.785L77.9175 112.353C78.0582 112.282 78.1285 112.232 78.1335 112.242Z" fill="#E0E0E0"/>
<path d="M78.1335 110.986C78.0828 111.051 78.0256 111.11 77.9627 111.162L77.4605 111.629L75.5669 113.262L75.5217 113.297L75.4664 113.267L71.8249 111.077H71.9304L68.5401 113.272L68.4899 113.307L68.4396 113.267L66.3552 111.634L65.7826 111.172C65.7117 111.12 65.6476 111.06 65.5917 110.992C65.6736 111.025 65.7498 111.071 65.8178 111.127L66.4205 111.554L68.5451 113.131H68.4447L71.8149 110.911L71.8702 110.876L71.9254 110.906L75.5468 113.126H75.4463L77.3901 111.554L77.9376 111.122C78.0582 111.027 78.1285 110.986 78.1335 110.986Z" fill="#E0E0E0"/>
<path d="M78.1335 113.498C78.1335 113.498 78.0782 113.568 77.9627 113.679L77.4604 114.141L75.5669 115.773L75.5217 115.813L75.4664 115.778L71.8249 113.613H71.9304L68.5401 115.808L68.4899 115.843L68.4396 115.808C67.6008 115.145 66.8926 114.593 66.3552 114.176L65.7826 113.709C65.652 113.598 65.5867 113.538 65.5917 113.528C65.6723 113.564 65.7482 113.609 65.8178 113.663C65.9785 113.784 66.1794 113.925 66.4205 114.095L68.5451 115.668H68.4447L71.8149 113.448L71.8701 113.412L71.9254 113.448L75.5468 115.663H75.4463L77.3901 114.085L77.9376 113.658C77.9956 113.597 78.0614 113.543 78.1335 113.498Z" fill="#E0E0E0"/>
<path d="M240.87 136.462C238.268 136.884 237.103 140.078 237.354 142.705C237.605 145.332 238.665 147.904 238.359 150.52C237.992 153.851 235.475 156.663 235.184 159.998C234.838 163.931 237.62 167.422 238.449 171.279C238.856 173.158 238.801 175.147 239.499 176.935C240.095 178.458 241.2 179.727 242.627 180.526C244.054 181.325 245.714 181.604 247.324 181.316C248.934 181.028 250.394 180.191 251.456 178.947C252.517 177.703 253.114 176.129 253.145 174.494C253.201 171.48 251.337 168.632 251.563 165.619C251.729 163.394 253.035 161.284 252.759 159.089C252.422 156.452 249.981 154.569 249.117 152.057C248.253 149.546 249.087 146.773 248.786 144.132C248.253 139.395 245.626 136.095 240.875 136.472" fill="#FF6C37"/>
<path d="M227.58 159.401C227.133 163.79 229.087 168.944 231.332 172.746C233.617 176.565 237.06 179.556 241.161 181.285C241.618 181.476 242.191 181.636 242.578 181.325C242.715 181.175 242.819 180.996 242.88 180.802C242.942 180.607 242.96 180.402 242.934 180.2C242.968 175.54 241.489 170.995 238.721 167.247C235.952 163.499 232.043 160.749 227.58 159.411" fill="#FF6C37"/>
<g opacity="0.2">
<path d="M227.58 159.401C227.133 163.79 229.087 168.944 231.332 172.746C233.617 176.565 237.06 179.556 241.161 181.285C241.618 181.476 242.191 181.636 242.578 181.325C242.715 181.175 242.819 180.996 242.88 180.802C242.942 180.607 242.96 180.402 242.934 180.2C242.968 175.54 241.489 170.995 238.721 167.247C235.952 163.499 232.043 160.749 227.58 159.411" fill="black"/>
</g>
<path d="M246.701 190.451C246.649 190.377 246.606 190.296 246.576 190.21L246.259 189.487C245.998 188.864 245.601 187.98 245.099 186.85C243.791 183.967 242.338 181.152 240.744 178.417C239.14 175.684 237.4 173.034 235.531 170.476C234.812 169.496 234.22 168.708 233.803 168.17C233.612 167.919 233.451 167.708 233.331 167.542C233.272 167.472 233.219 167.397 233.175 167.316C233.175 167.316 233.25 167.377 233.366 167.512L233.868 168.11C234.31 168.612 234.923 169.401 235.661 170.37C239.506 175.436 242.729 180.945 245.26 186.779C245.762 187.9 246.114 188.814 246.35 189.452L246.621 190.19C246.655 190.274 246.682 190.362 246.701 190.451Z" fill="#263238"/>
<path d="M243.873 148.607C243.902 148.746 243.918 148.887 243.924 149.029C243.924 149.325 243.974 149.727 244.009 150.239C244.079 151.309 244.175 152.826 244.295 154.684C244.531 158.441 244.863 163.63 245.27 169.356C245.677 175.081 246.068 180.27 246.36 184.022C246.5 185.88 246.616 187.392 246.701 188.467C246.736 188.969 246.762 189.376 246.782 189.673C246.794 189.815 246.794 189.957 246.782 190.099C246.782 190.099 246.757 189.954 246.721 189.678C246.686 189.401 246.646 188.979 246.591 188.472C246.49 187.402 246.35 185.89 246.174 184.037C245.837 180.285 245.41 175.107 245.009 169.376C244.607 163.645 244.31 158.456 244.104 154.684C244.019 152.821 243.949 151.309 243.899 150.234C243.899 149.732 243.868 149.32 243.858 149.019C243.851 148.881 243.856 148.743 243.873 148.607Z" fill="#263238"/>
<path d="M239.835 184.193H250.83V192.264C250.829 193.663 250.272 195.005 249.282 195.994C248.292 196.983 246.95 197.538 245.551 197.538C244.201 197.539 242.901 197.021 241.921 196.092C240.941 195.163 240.354 193.894 240.282 192.545L239.835 184.193Z" fill="#263238"/>
<path d="M184.153 77.7812L210.372 92.302L209.387 94.1503L183.4 79.3584L184.153 77.7812Z" fill="#FF6C37"/>
<path d="M182.862 76.41L184.068 74.5667L184.771 74.9986L183.691 76.857L182.862 76.41Z" fill="#FF6C37"/>
<path d="M207.393 90.0066L208.74 90.7801L204.35 118.797L202.27 118.822L207.393 90.0066Z" fill="#FF6C37"/>
<path d="M196.228 121.715C196.228 121.715 199.427 118.481 203.707 118.702C204.93 118.746 206.132 119.033 207.244 119.544C208.356 120.055 209.356 120.781 210.186 121.68L196.228 121.715Z" fill="#FF6C37"/>
<path d="M182.888 89.1126L172.506 83.1155L175.519 77.927C175.913 77.2451 176.436 76.6475 177.061 76.1682C177.685 75.6888 178.398 75.3372 179.158 75.1333C179.918 74.9295 180.711 74.8775 181.492 74.9802C182.272 75.0829 183.025 75.3384 183.706 75.732C185.082 76.5273 186.086 77.8363 186.498 79.3714C186.909 80.9065 186.695 82.5421 185.901 83.9191L182.888 89.1126Z" fill="#FF6C37"/>
</svg>
