<svg width="395" height="350" viewBox="0 0 395 350" fill="none" xmlns="http://www.w3.org/2000/svg">
<g clip-path="url(#clip0_1167_14988)">
<g opacity="0.4">
<path d="M273.684 23.5736L266.984 13.9979C266.08 12.7136 264.728 11.8147 263.195 11.4787C261.661 11.1426 260.057 11.3938 258.699 12.1827C249.923 17.1606 242.031 23.5578 235.345 31.1148C234.296 32.273 233.715 33.7797 233.715 35.3422C233.715 36.9047 234.296 38.4114 235.345 39.5696L243.373 48.2438C244.293 49.224 244.869 50.4777 245.012 51.8146C245.154 53.1514 244.857 54.4984 244.165 55.651C241.723 59.6592 239.682 63.8992 238.074 68.3089C237.646 69.4475 236.887 70.432 235.895 71.1355C234.902 71.8389 233.722 72.2293 232.506 72.2561L219.044 72.78C217.591 72.8392 216.204 73.4013 215.12 74.3702C214.035 75.339 213.321 76.6545 213.099 78.0917C211.454 88.3308 211.528 98.7726 213.318 108.987C213.576 110.481 214.366 111.83 215.542 112.786C216.718 113.743 218.2 114.241 219.714 114.189L232.189 113.763C233.478 113.71 234.75 114.063 235.827 114.771C236.905 115.479 237.733 116.507 238.196 117.71C239.02 119.944 239.964 122.132 241.022 124.265C242.021 126.303 243.101 128.265 244.263 130.149C244.908 131.221 245.213 132.463 245.137 133.712C245.061 134.96 244.607 136.156 243.836 137.142L235.857 147.412C234.95 148.587 234.488 150.045 234.552 151.527C234.617 153.01 235.204 154.422 236.21 155.513C243.188 163.144 251.385 169.562 260.466 174.506C261.779 175.229 263.307 175.456 264.774 175.148C266.24 174.84 267.547 174.015 268.458 172.825L276.194 162.689C276.966 161.669 278.036 160.913 279.255 160.525C280.474 160.137 281.784 160.135 283.004 160.521C287.755 162.06 292.655 163.094 297.623 163.603C298.988 163.746 300.266 164.339 301.259 165.287C302.251 166.235 302.9 167.485 303.106 168.841L304.872 180.257C305.119 181.818 305.943 183.23 307.182 184.212C308.421 185.194 309.984 185.673 311.561 185.556C321.812 184.824 331.868 182.378 341.311 178.32C342.629 177.77 343.721 176.791 344.412 175.541C345.102 174.291 345.349 172.844 345.112 171.436L342.675 157.597C342.458 156.455 342.572 155.274 343.004 154.195C343.435 153.116 344.167 152.182 345.112 151.505C348.843 148.936 352.322 146.019 355.504 142.795C356.453 141.837 357.69 141.216 359.025 141.026C360.36 140.837 361.721 141.09 362.899 141.747L373.206 147.436C374.574 148.187 376.172 148.402 377.689 148.039C379.207 147.676 380.536 146.763 381.417 145.475C387.2 137.002 391.558 127.639 394.318 117.759C394.714 116.352 394.606 114.852 394.012 113.517C393.417 112.182 392.375 111.097 391.066 110.449L379.151 104.577C378.038 104.049 377.112 103.195 376.494 102.129C375.876 101.064 375.596 99.8357 375.691 98.6076C376.058 94.0017 375.981 89.3711 375.459 84.7801C375.32 83.4764 375.599 82.1623 376.256 81.0278C376.913 79.8932 377.914 78.9972 379.114 78.4694L390.298 73.4744C391.693 72.8471 392.81 71.7322 393.44 70.339C394.071 68.9459 394.171 67.3705 393.721 65.9089C390.759 56.1666 386.233 46.9706 380.32 38.6803C379.427 37.4304 378.107 36.5516 376.609 36.2103C375.112 35.869 373.541 36.0889 372.194 36.8285L361.583 42.6154C360.426 43.2671 359.09 43.5279 357.773 43.3589C356.456 43.1899 355.228 42.6001 354.273 41.6773C350.654 38.1937 346.677 35.1024 342.407 32.4549C341.277 31.7502 340.404 30.7003 339.917 29.4606C339.43 28.2208 339.355 26.8572 339.703 25.5716L342.846 13.9127C343.249 12.4259 343.089 10.8426 342.397 9.46649C341.704 8.09043 340.528 7.01861 339.094 6.45677C329.623 2.71762 319.609 0.541057 309.441 0.0120602C307.909 -0.0672188 306.402 0.416961 305.204 1.37316C304.005 2.32935 303.198 3.69136 302.935 5.20194L300.852 17.202C300.63 18.5054 299.997 19.7037 299.046 20.622C298.095 21.5403 296.875 22.1306 295.564 22.3066C290.541 22.957 285.602 24.1498 280.835 25.864C279.557 26.321 278.164 26.3443 276.872 25.9303C275.579 25.5163 274.459 24.6881 273.684 23.5736ZM321.124 48.0732C375.35 75.716 350.363 149.398 290.448 138.226C289.794 138.103 289.162 137.886 288.572 137.58C234.37 109.913 259.418 36.2803 319.248 47.4276C319.901 47.5506 320.533 47.7681 321.124 48.0732Z" fill="#FF6C37"/>
<path d="M130.391 110.242L124.994 102.518C124.262 101.488 123.173 100.767 121.938 100.497C120.704 100.227 119.413 100.426 118.318 101.056C111.251 105.077 104.896 110.234 99.5074 116.321C98.6641 117.255 98.1973 118.468 98.1973 119.727C98.1973 120.985 98.6641 122.198 99.5074 123.132L105.989 130.125C106.729 130.916 107.191 131.926 107.305 133.003C107.42 134.08 107.18 135.165 106.622 136.094C104.669 139.326 103.036 142.741 101.749 146.291C101.408 147.211 100.798 148.006 99.9985 148.573C99.1986 149.141 98.2462 149.453 97.2658 149.471L86.3743 149.897C85.2039 149.943 84.0859 150.395 83.2123 151.175C82.3386 151.956 81.7638 153.016 81.5865 154.173C80.26 162.426 80.3177 170.842 81.757 179.075C81.9676 180.277 82.6048 181.363 83.5514 182.132C84.4981 182.902 85.6908 183.305 86.9104 183.266L96.9612 182.913C98.006 182.864 99.0394 183.147 99.9144 183.72C100.789 184.293 101.461 185.128 101.834 186.105C102.499 187.906 103.26 189.671 104.112 191.392C104.917 193.024 105.794 194.608 106.72 196.131C107.243 196.992 107.491 197.993 107.43 198.999C107.369 200.005 107.002 200.968 106.378 201.759L99.946 210.044C99.2171 210.99 98.8466 212.163 98.9002 213.356C98.9537 214.549 99.4277 215.685 100.238 216.562C105.868 222.714 112.48 227.888 119.804 231.875C120.864 232.458 122.098 232.642 123.283 232.394C124.467 232.146 125.523 231.482 126.261 230.523L132.486 222.348C133.108 221.527 133.969 220.918 134.951 220.606C135.932 220.294 136.987 220.294 137.969 220.606C141.796 221.825 145.74 222.642 149.737 223.043C150.838 223.156 151.871 223.632 152.673 224.394C153.475 225.157 154.002 226.164 154.172 227.258L155.585 236.456C155.783 237.716 156.448 238.856 157.448 239.648C158.448 240.44 159.71 240.827 160.982 240.732C169.233 240.146 177.328 238.186 184.933 234.933C185.995 234.492 186.876 233.703 187.431 232.696C187.987 231.689 188.184 230.524 187.991 229.39L186.03 218.231C185.846 217.301 185.937 216.338 186.292 215.46C186.647 214.581 187.25 213.825 188.028 213.284C191.036 211.219 193.839 208.869 196.397 206.267C197.164 205.494 198.162 204.993 199.241 204.842C200.319 204.69 201.417 204.895 202.367 205.427L210.676 210.007C211.777 210.612 213.064 210.786 214.286 210.495C215.508 210.205 216.579 209.471 217.291 208.436C221.947 201.603 225.457 194.056 227.683 186.092C228.007 184.957 227.923 183.743 227.444 182.663C226.965 181.584 226.123 180.706 225.063 180.184L215.463 175.445C214.568 175.016 213.823 174.328 213.326 173.469C212.828 172.611 212.601 171.622 212.674 170.632C212.974 166.923 212.908 163.194 212.479 159.497C212.367 158.447 212.592 157.389 213.122 156.475C213.652 155.562 214.459 154.841 215.427 154.417L224.43 150.385C225.552 149.878 226.452 148.981 226.961 147.86C227.469 146.739 227.553 145.471 227.195 144.293C224.8 136.442 221.137 129.034 216.353 122.364C215.632 121.356 214.566 120.648 213.358 120.374C212.15 120.1 210.883 120.279 209.798 120.878L201.27 125.605C200.339 126.124 199.265 126.329 198.208 126.191C197.15 126.053 196.165 125.578 195.398 124.837C192.487 122.032 189.285 119.545 185.847 117.418C184.935 116.849 184.231 116.001 183.838 115.001C183.446 114 183.385 112.9 183.666 111.863L186.2 102.47C186.52 101.269 186.388 99.9927 185.829 98.8831C185.27 97.7736 184.322 96.9082 183.167 96.4513C175.537 93.442 167.468 91.6932 159.276 91.2736C158.041 91.2075 156.825 91.5962 155.858 92.3662C154.89 93.1362 154.238 94.2342 154.025 95.4523L152.344 105.125C152.168 106.176 151.658 107.143 150.89 107.882C150.122 108.621 149.137 109.094 148.08 109.231C144.034 109.76 140.056 110.72 136.214 112.094C135.176 112.476 134.04 112.501 132.985 112.166C131.931 111.83 131.018 111.154 130.391 110.242ZM168.62 129.978C212.332 152.261 192.133 211.603 143.902 202.649C143.376 202.55 142.868 202.378 142.391 202.137C98.7155 179.843 118.902 120.512 167.11 129.467C167.634 129.567 168.143 129.739 168.62 129.978Z" fill="#FEF5F4"/>
</g>
<path d="M212.189 22.1361C212.189 21.2494 211.926 20.3826 211.434 19.6453C210.941 18.9081 210.241 18.3334 209.422 17.9941C208.602 17.6548 207.701 17.566 206.831 17.739C205.962 17.912 205.163 18.339 204.536 18.966C203.909 19.593 203.482 20.3918 203.309 21.2615C203.136 22.1311 203.225 23.0326 203.564 23.8518C203.903 24.671 204.478 25.3712 205.215 25.8638C205.952 26.3564 206.819 26.6194 207.706 26.6194C208.894 26.6162 210.032 26.1428 210.873 25.3027C211.713 24.4626 212.186 23.3242 212.189 22.1361Z" stroke="#39194B" stroke-width="1.10676" stroke-miterlimit="10"/>
<path d="M185.287 188.931C188.261 188.931 190.672 186.52 190.672 183.546C190.672 180.572 188.261 178.161 185.287 178.161C182.313 178.161 179.902 180.572 179.902 183.546C179.902 186.52 182.313 188.931 185.287 188.931Z" fill="#407BFF"/>
<path d="M350.291 26.6073C353.265 26.6073 355.676 24.1964 355.676 21.2224C355.676 18.2485 353.265 15.8376 350.291 15.8376C347.317 15.8376 344.906 18.2485 344.906 21.2224C344.906 24.1964 347.317 26.6073 350.291 26.6073Z" fill="#407BFF"/>
<path d="M344.908 30.2012C347.882 30.2012 350.293 27.7904 350.293 24.8164C350.293 21.8425 347.882 19.4316 344.908 19.4316C341.934 19.4316 339.523 21.8425 339.523 24.8164C339.523 27.7904 341.934 30.2012 344.908 30.2012Z" stroke="#39194B" stroke-width="1.10676" stroke-miterlimit="10"/>
<path d="M28.3614 213.138C31.3353 213.138 33.7462 210.727 33.7462 207.753C33.7462 204.78 31.3353 202.369 28.3614 202.369C25.3874 202.369 22.9766 204.78 22.9766 207.753C22.9766 210.727 25.3874 213.138 28.3614 213.138Z" fill="#407BFF"/>
<path d="M28.3493 204.172C28.3493 203.285 28.0864 202.418 27.5938 201.681C27.1012 200.944 26.401 200.369 25.5817 200.03C24.7625 199.69 23.8611 199.602 22.9914 199.775C22.1218 199.948 21.3229 200.375 20.6959 201.002C20.0689 201.629 19.6419 202.427 19.469 203.297C19.296 204.167 19.3848 205.068 19.7241 205.887C20.0634 206.707 20.638 207.407 21.3753 207.899C22.1126 208.392 22.9794 208.655 23.8661 208.655C25.0551 208.655 26.1954 208.183 27.0362 207.342C27.877 206.501 28.3493 205.361 28.3493 204.172Z" stroke="#39194B" stroke-width="1.10676" stroke-miterlimit="10"/>
<path d="M339.973 39.8135H320.895V58.8918H339.973V39.8135Z" fill="white"/>
<path d="M339.973 70.7456H320.895V89.8239H339.973V70.7456Z" fill="#FEF2FB"/>
<path d="M339.973 103.932H320.895V123.01H339.973V103.932Z" fill="#FEF2FB"/>
<path d="M333.699 98.5225H314.621V117.601H333.699V98.5225Z" stroke="#39194B" stroke-width="1.10676" stroke-miterlimit="10"/>
<path d="M333.699 34.4773H314.621V53.5556H333.699V34.4773Z" stroke="#39194B" stroke-width="1.10676" stroke-miterlimit="10"/>
<path d="M333.699 65.8237H314.621V84.902H333.699V65.8237Z" stroke="#39194B" stroke-width="1.10676" stroke-miterlimit="10"/>
<path d="M318.375 73.8767L324.674 80.1874L340.694 64.167" stroke="#407BFF" stroke-width="2.52297" stroke-miterlimit="10"/>
<path d="M335.489 288.915H262.855V295.64H335.489V288.915Z" fill="black"/>
<path d="M324.734 295.64L349.551 347.649" stroke="black" stroke-width="1.10676" stroke-miterlimit="10"/>
<path d="M332.812 313.5L256.438 311.478" stroke="black" stroke-width="1.10676" stroke-miterlimit="10"/>
<path d="M344.166 335.612L256.438 333.602" stroke="black" stroke-width="1.10676" stroke-miterlimit="10"/>
<path d="M102.934 243.851C107.27 243.85 111.56 244.736 115.54 246.454C119.521 248.172 123.108 250.686 126.082 253.841V203.892H269.754V347.624H222.813C226.577 342.931 228.937 337.27 229.623 331.294C230.308 325.318 229.291 319.269 226.688 313.846C224.085 308.422 220.003 303.845 214.912 300.641C209.82 297.437 203.927 295.737 197.912 295.737C191.896 295.737 186.003 297.437 180.912 300.641C175.82 303.845 171.738 308.422 169.135 313.846C166.532 319.269 165.515 325.318 166.201 331.294C166.886 337.27 169.247 342.931 173.01 347.624H126.082V297.736C122.445 301.571 117.912 304.442 112.891 306.093C107.87 307.743 102.518 308.121 97.3148 307.193C92.1118 306.264 87.2207 304.058 83.0808 300.772C78.9408 297.487 75.6814 293.225 73.5954 288.369C71.5093 283.512 70.6617 278.214 71.1288 272.95C71.5959 267.685 73.3629 262.619 76.2714 258.206C79.1798 253.792 83.1386 250.171 87.7923 247.665C92.446 245.16 97.6491 243.849 102.934 243.851Z" fill="#455A64"/>
<path d="M323.819 262.613L317.301 266.877L320.212 270.921C321.382 268.132 322.6 265.39 323.819 262.613Z" fill="#39194B"/>
<path d="M331.738 277.939L334.248 278.901L337.903 265.987L337.342 265.366C335.332 269.508 333.566 273.711 331.738 277.939Z" fill="#39194B"/>
<path d="M321.59 273.236C321.59 273.236 327.17 288.197 328.766 287.502L365.07 268.546C365.07 268.546 359.101 263.38 351.499 265.902C340.022 269.715 338.305 264.391 338.305 264.391L333.432 277.451L321.59 273.236Z" fill="black"/>
<path d="M278.523 208.302C280.339 208.009 316.205 267.388 316.205 267.388C316.205 267.388 333.188 256.619 333.261 256.424C333.261 256.424 320.067 204.915 302.804 177.735C299.673 172.801 292.643 171.753 289.951 171.753C269.374 171.753 256.18 178.856 244.07 180.415L251.015 202.612" fill="black"/>
<path d="M253.16 191.611C292.852 186.458 293.631 194.048 297.335 202.576L327.597 260.2" stroke="white" stroke-width="0.284134" stroke-miterlimit="10"/>
<path d="M288.563 273.005L287.746 262.43L271.75 263.88L271.227 273.443L279.304 282.702L288.563 273.005Z" fill="#FFAA06"/>
<path d="M337.878 265.987L330.715 258.081L317.277 266.877L322.784 274.527L334.26 278.889L337.878 265.987Z" fill="#FFAA06"/>
<path d="M288.563 273.005L287.746 262.43L271.75 263.88L271.227 273.443L279.304 282.702L288.563 273.005Z" fill="#FFAA06"/>
<path d="M323.819 262.613L317.301 266.877L320.212 270.921C321.382 268.132 322.6 265.39 323.819 262.613Z" fill="#39194B"/>
<path d="M331.738 277.939L334.248 278.901L337.903 265.987L337.342 265.366C335.332 269.508 333.566 273.711 331.738 277.939Z" fill="#39194B"/>
<path d="M323.819 262.613L317.301 266.877L320.212 270.921C321.382 268.132 322.6 265.39 323.819 262.613Z" fill="#39194B"/>
<path d="M331.738 277.939L334.248 278.901L337.903 265.987L337.342 265.366C335.332 269.508 333.566 273.711 331.738 277.939Z" fill="#39194B"/>
<path d="M277.026 269.959C280.412 267.364 283.251 264.623 286.455 262.552L271.738 263.88L271.227 273.455L271.738 274.04L277.026 269.959Z" fill="#39194B"/>
<path d="M270.786 271.762C270.786 271.762 268.678 287.6 270.408 287.709L311.367 288.05C311.367 288.05 308.528 280.68 300.634 279.34C288.707 277.317 289.669 271.799 289.669 271.799L279.229 281.033L270.786 271.762Z" fill="black"/>
<path d="M204.672 176.237C204.637 183.918 207.653 191.299 213.058 196.757C218.464 202.215 225.815 205.303 233.497 205.341H264.892C265.323 205.343 265.747 205.444 266.133 205.636C266.519 205.828 266.855 206.106 267.116 206.449C267.378 206.791 267.557 207.189 267.64 207.612C267.723 208.034 267.708 208.471 267.596 208.887L270.143 267.096C270.12 267.179 270.117 267.265 270.134 267.349C270.15 267.434 270.185 267.513 270.237 267.581C270.289 267.649 270.356 267.705 270.432 267.743C270.509 267.782 270.593 267.802 270.679 267.803H281.643C281.862 267.803 288.258 268.29 288.356 268.083L296.884 193.646C300.137 186.275 290.196 173.837 282.204 173.678L204.672 176.237Z" fill="black"/>
<path d="M222.898 177.077C222.898 177.077 220.059 194.669 236.518 194.133C245.667 193.816 260.421 194.023 271.726 194.279C273.601 194.32 275.442 194.791 277.106 195.655C278.77 196.519 280.214 197.754 281.326 199.264C282.438 200.774 283.189 202.519 283.521 204.364C283.852 206.21 283.756 208.107 283.239 209.91L279.134 267.388" stroke="white" stroke-width="0.284134" stroke-miterlimit="10"/>
<path d="M313.498 114.896L322.087 101.605L315.423 94.6117C315.423 94.6117 318.506 85.8279 318.189 84.366C317.47 81.1741 302.205 106.782 302.205 106.782L291.082 117.832L304.41 130.795L313.498 114.896Z" fill="#FFAA06"/>
<path d="M308.396 97.5356L311.271 98.9366C311.759 99.1681 313.501 99.7285 312.648 100.496C312.289 100.749 311.868 100.901 311.43 100.935C310.882 101.044 310.333 101.13 309.773 101.19C308.727 101.288 307.675 101.288 306.63 101.19C306.155 101.19 306.155 101.885 306.63 101.921C307.888 102.029 309.155 101.996 310.406 101.824C311.002 101.757 311.593 101.647 312.173 101.495C312.665 101.388 313.099 101.101 313.391 100.691C313.517 100.495 313.584 100.266 313.584 100.033C313.584 99.7998 313.517 99.5715 313.391 99.3752C313.065 98.9998 312.644 98.7181 312.173 98.559L308.725 96.8777C308.299 96.6706 307.933 97.3041 308.348 97.5112L308.396 97.5356Z" fill="#39194B"/>
<path d="M314.9 94.7213C313.995 95.9089 313.207 97.1819 312.549 98.5223C312.503 98.607 312.492 98.7058 312.517 98.7986C312.542 98.8914 312.601 98.9712 312.683 99.0218C312.724 99.0458 312.77 99.0614 312.818 99.0677C312.865 99.074 312.914 99.0708 312.96 99.0583C313.007 99.0459 313.05 99.0244 313.088 98.9952C313.126 98.9659 313.158 98.9294 313.182 98.8878C313.843 97.5489 314.631 96.2762 315.534 95.0868C315.558 95.0452 315.573 94.9993 315.579 94.9516C315.586 94.904 315.582 94.8556 315.57 94.8093C315.558 94.7629 315.536 94.7194 315.507 94.6813C315.478 94.6432 315.441 94.6113 315.4 94.5873C315.358 94.5633 315.312 94.5477 315.264 94.5414C315.217 94.5352 315.168 94.5384 315.122 94.5508C315.076 94.5633 315.032 94.5847 314.994 94.614C314.956 94.6432 314.924 94.6797 314.9 94.7213Z" fill="#39194B"/>
<path d="M311.748 101.215C311.691 101.559 311.774 101.911 311.977 102.194C312.181 102.478 312.488 102.669 312.832 102.725C313.224 102.747 313.615 102.677 313.975 102.521C314.334 102.364 314.652 102.126 314.903 101.824C316.094 100.685 317.069 99.3396 317.778 97.8523C317.985 97.4259 317.352 97.0482 317.145 97.4746C316.586 98.6589 315.851 99.7516 314.964 100.715C314.576 101.213 314.091 101.628 313.539 101.934C313.42 101.993 313.288 102.025 313.155 102.025C313.022 102.025 312.89 101.993 312.771 101.934C312.671 101.893 312.586 101.821 312.53 101.729C312.473 101.637 312.446 101.53 312.454 101.422C312.552 100.959 311.845 100.764 311.748 101.227V101.215Z" fill="#39194B"/>
<path d="M313.281 102.518C313.353 103.017 313.488 103.504 313.683 103.968C313.82 104.389 314.039 104.778 314.329 105.113C315.011 105.832 315.985 105.235 316.607 104.736C317.258 104.135 317.827 103.451 318.3 102.701L320.188 100.033C320.457 99.6554 319.823 99.2777 319.555 99.6675L318.02 101.836C317.582 102.504 317.102 103.143 316.582 103.749C316.266 104.078 315.254 105.101 314.816 104.565C314.358 103.898 314.073 103.128 313.987 102.323C313.987 101.86 313.22 102.055 313.281 102.518Z" fill="#39194B"/>
<path d="M316.021 104.577C316.092 105.005 316.283 105.404 316.572 105.728C316.861 106.051 317.236 106.286 317.653 106.405C318.079 106.49 318.457 106.149 318.737 105.881C319.64 105.008 320.456 104.049 321.174 103.018L321.698 102.323L321.893 102.068L321.966 101.958C322.031 101.886 322.067 101.793 322.067 101.696C322.067 101.599 322.031 101.506 321.966 101.434C321.932 101.399 321.891 101.371 321.846 101.352C321.801 101.333 321.753 101.323 321.704 101.323C321.655 101.323 321.607 101.333 321.562 101.352C321.517 101.371 321.476 101.399 321.442 101.434C320.881 102.141 320.37 102.872 319.809 103.578C319.456 104.041 319.078 104.492 318.689 104.918C318.518 105.089 318.36 105.259 318.177 105.418C318.066 105.521 317.943 105.611 317.811 105.686H317.653C317.564 105.64 317.478 105.587 317.397 105.528C317.22 105.4 317.071 105.239 316.958 105.052C316.845 104.866 316.77 104.659 316.739 104.443C316.727 104.397 316.705 104.353 316.675 104.315C316.646 104.277 316.609 104.246 316.567 104.222C316.525 104.198 316.479 104.183 316.431 104.177C316.383 104.171 316.335 104.175 316.289 104.187C316.242 104.2 316.199 104.222 316.161 104.252C316.123 104.281 316.091 104.318 316.067 104.36C316.044 104.402 316.028 104.448 316.022 104.496C316.016 104.543 316.02 104.592 316.033 104.638L316.021 104.577Z" fill="#39194B"/>
<path d="M261.686 174.909C261.686 174.909 251.014 101.373 248.285 96.7924C248.285 96.7924 254.596 93.4421 263.014 111.144C271.433 128.845 272.626 133.962 272.626 133.962L291.144 114.945L306.275 130.782L273.65 168.025C272.316 169.55 270.495 170.566 268.496 170.9L262.758 171.875" fill="#407BFF"/>
<path d="M298.749 122.973L291.086 114.945L287.199 118.941C291.11 120.123 294.947 121.475 298.749 122.973Z" fill="#39194B"/>
<path d="M219.974 92.0655C219.974 92.0655 200.141 98.3884 197.643 117.832C195.146 137.276 206.537 187.14 206.537 187.14C206.537 187.14 218.646 181.999 223.592 180.635C229.524 179.056 235.645 178.306 241.781 178.405L263.71 174.129L255.901 112.094C254.744 107.123 254.135 99.9965 249.615 97.1579L241.989 92.5406L226.882 88.6665L219.974 92.0655Z" fill="#407BFF"/>
<path d="M264.32 174.239C258.569 162.726 212.299 101.994 213.079 97.0117C206.987 100.496 199.239 105.418 197.643 117.832C195.146 137.325 206.537 187.14 206.537 187.14C206.537 187.14 218.646 181.999 223.592 180.635C229.524 179.056 235.645 178.306 241.781 178.405L256.51 175.969C257.144 175.359 264.612 174.799 264.32 174.239Z" fill="#0345D8"/>
<path d="M269.214 148.362L277.498 120.098C277.686 119.463 278.01 118.877 278.447 118.38C278.885 117.884 279.426 117.489 280.032 117.223L296.625 110.047C298.672 109.146 300.28 111.266 299.525 113.398L292.118 136.545C291.885 137.3 291.5 138 290.987 138.602C290.473 139.203 289.842 139.693 289.133 140.041L271.334 148.996C270.773 149.325 268.995 148.971 269.214 148.362Z" fill="#FEF2FB"/>
<path d="M270.798 149.386L279.399 120.049C279.552 119.565 279.804 119.117 280.14 118.735C280.476 118.353 280.887 118.046 281.348 117.832L297.978 110.79C299.196 110.267 300.207 111.668 299.842 112.959L292.142 137.057C291.995 137.747 291.689 138.393 291.25 138.945C290.81 139.497 290.248 139.939 289.608 140.236C284.187 142.977 270.652 149.861 270.798 149.386Z" fill="#455A64"/>
<path d="M295.8 115.871C295.617 116.248 295.678 116.675 295.946 116.797C296.214 116.919 296.58 116.711 296.763 116.322C296.945 115.932 296.884 115.518 296.616 115.396C296.348 115.274 295.934 115.542 295.8 115.871Z" fill="white"/>
<path d="M295.541 115.773C295.285 116.321 295.383 116.906 295.76 117.089C296.138 117.272 296.662 116.967 296.918 116.419C297.174 115.871 297.076 115.274 296.698 115.103C296.321 114.933 295.797 115.225 295.541 115.773Z" stroke="white" stroke-width="0.066194" stroke-miterlimit="10"/>
<path d="M278.233 121.426C278.178 121.381 278.114 121.35 278.044 121.336C277.975 121.322 277.903 121.325 277.836 121.346C277.768 121.366 277.706 121.403 277.657 121.453C277.607 121.504 277.57 121.565 277.55 121.633L276.527 125.215C276.502 125.293 276.501 125.377 276.525 125.455C276.549 125.534 276.597 125.603 276.661 125.654C276.714 125.699 276.778 125.731 276.847 125.745C276.915 125.759 276.986 125.756 277.053 125.735C277.12 125.714 277.181 125.677 277.229 125.627C277.278 125.576 277.313 125.514 277.331 125.446L278.415 121.913C278.441 121.823 278.437 121.727 278.404 121.64C278.371 121.552 278.311 121.477 278.233 121.426Z" stroke="#3A6C8A" stroke-width="0.132388" stroke-miterlimit="10"/>
<path d="M276.744 126.506C276.69 126.461 276.625 126.43 276.556 126.416C276.487 126.402 276.415 126.405 276.347 126.426C276.28 126.446 276.218 126.483 276.168 126.533C276.119 126.584 276.082 126.645 276.062 126.713L275.039 130.295C275.014 130.373 275.013 130.457 275.037 130.535C275.061 130.614 275.108 130.683 275.173 130.734C275.225 130.779 275.288 130.811 275.356 130.826C275.424 130.841 275.494 130.839 275.561 130.82C275.628 130.8 275.689 130.764 275.738 130.715C275.787 130.666 275.823 130.605 275.843 130.539L276.915 126.994C276.946 126.905 276.946 126.809 276.915 126.72C276.884 126.632 276.824 126.556 276.744 126.506Z" stroke="#3A6C8A" stroke-width="0.132388" stroke-miterlimit="10"/>
<path d="M274.406 130.368L275.418 137.958L272.043 137.385L274.406 130.368Z" fill="#03182B"/>
<path d="M256.132 171.887C272.811 155.197 285.7 142.052 287.637 140.212C288.746 139.176 291.767 135.704 291.511 135.12C290.939 133.804 284.799 140.651 284.945 140.2C285.091 139.749 292.864 132.659 292.425 131.587C291.767 129.954 283.251 138.007 283.093 138.141C280.827 140.09 291.548 130.758 291.353 129.528C291.158 128.297 285.992 132.208 285.798 132.342C285.798 132.342 281.57 135.997 281.253 135.692C280.937 135.388 288.149 125.178 286.87 124.971C285.59 124.764 280.778 130.782 279.268 132.281C277.757 133.779 271.958 138.567 272.311 137.386L275.296 128.858C275.296 128.858 269.107 134.949 267.986 138.202C267.599 139.496 267.298 140.815 267.085 142.149L242.195 160.74" fill="#FFAA06"/>
<path d="M224.858 108.634C224.858 108.634 218.852 91.3345 207.802 98.7904C196.18 106.612 196.521 137.58 220.74 174.616C226.235 183.01 237.906 184.143 249.979 177.321L269.532 163.664L257.873 146.778L246.483 154.904L224.858 108.634Z" fill="#407BFF"/>
<path d="M265.915 158.364L257.923 146.779L251.941 151.067L265.915 158.364Z" fill="#0345D8"/>
<path d="M229.267 74.1934L226.355 87.9356L231.643 93.9417C239.866 102.811 241.011 96.9387 242.546 96.1955L241.486 80.0777L233.824 77.0198L229.267 74.1934Z" fill="#FFAA06"/>
<path d="M233.839 77.0198L241.502 81.2472C241.502 81.2472 242.33 88.6665 240.088 88.898C238.224 89.0929 231.78 83.099 232.438 78.5426" fill="#38194B"/>
<path d="M229.659 76.0452C229.659 76.0452 228.623 70.3437 229.927 71.9396L233.362 59.1598C234.641 60.6102 236.066 61.9248 237.614 63.0827C239.722 64.5446 244.656 63.7284 245.959 63.1558C247.263 62.5832 246.727 56.6258 246.727 56.6258C246.727 56.6258 253.513 52.6298 252.648 50.9364C251.783 49.243 250.601 49.6329 250.601 49.6329C250.601 49.6329 255.255 46.9161 253.098 45.5638C252.538 38.4247 226.296 50.4369 225.188 57.2228C225.188 57.2228 225.748 70.1122 227.99 71.5619" fill="#38194B"/>
<path d="M246.7 56.4307C249.259 75.7282 248.552 81.4542 246.7 82.9527C244.093 85.0968 239.391 83.8054 237.088 82.9527C233.324 81.5273 230.668 77.5313 229.851 76.3374C229.437 75.7526 224.698 76.7394 225.332 72.2196C225.807 68.8937 227.573 69.9658 228.475 70.7455C228.535 70.7977 228.607 70.8344 228.684 70.8524C228.762 70.8703 228.843 70.8691 228.92 70.8486C228.996 70.8282 229.067 70.7892 229.126 70.7352C229.184 70.6811 229.228 70.6135 229.255 70.5384C229.925 68.5769 232.081 61.1576 232.8 58.782C233.104 57.7464 237.673 57.9048 238.075 57.8439C241.961 57.2713 245.47 57.3809 246.469 56.6256L246.7 56.4307Z" fill="#FFAA06"/>
<path d="M226.09 71.8298L228.697 73.5841C228.697 73.5841 227.576 69.1252 226.09 71.8298Z" fill="#EF9F04"/>
<path d="M244.047 68.5526C244.047 69.0886 243.876 69.5394 243.608 69.5516C243.34 69.5637 243.097 69.1373 243.072 68.5891C243.048 68.0409 243.255 67.6145 243.523 67.6023C243.791 67.5901 244.023 68.0287 244.047 68.5526Z" fill="#012A39"/>
<path d="M247.203 67.9315C247.203 68.4797 247.033 68.9183 246.765 68.9305C246.497 68.9427 246.253 68.5163 246.229 67.9802C246.204 67.4442 246.411 66.9934 246.679 66.9812C246.947 66.969 247.179 67.3954 247.203 67.9315Z" fill="#012A39"/>
<path d="M239.758 65.0806C239.063 65.6044 240.099 63.3262 241.061 63.0338C241.488 62.8751 241.96 62.891 242.375 63.078C242.79 63.265 243.115 63.6081 243.279 64.0328C242.019 63.9607 240.773 64.3313 239.758 65.0806Z" fill="#38194B"/>
<path d="M247.626 63.9719C247.03 63.9167 246.429 63.962 245.848 64.1059C245.921 63.696 246.136 63.3245 246.454 63.0555C246.771 62.7864 247.173 62.6366 247.59 62.6318" fill="#38194B"/>
<path d="M245.702 68.0288L247.371 72.0979C247.379 72.1119 247.384 72.1277 247.384 72.144C247.385 72.1602 247.381 72.1763 247.374 72.1908C247.367 72.2053 247.356 72.2178 247.342 72.2271C247.329 72.2364 247.314 72.2423 247.298 72.2441L245.543 72.4512C245.543 72.4512 245.434 72.4512 245.434 72.3415L245.519 68.0775C245.519 68.0558 245.525 68.0346 245.539 68.0172C245.552 67.9999 245.57 67.9874 245.591 67.9818C245.612 67.9762 245.635 67.9778 245.655 67.9863C245.675 67.9948 245.691 68.0098 245.702 68.0288Z" fill="#EF9F04"/>
<path d="M54.2493 111.656C54.2493 111.656 66.9194 154.088 74.1073 151.859L73.7418 130.709C73.4859 131.136 62.0219 106.527 62.0219 106.527C62.0219 106.527 63.094 94.7336 61.5711 93.9661C60.0483 93.1986 60.3528 100.399 59.4757 100.849C58.5985 101.3 55.297 84.7072 53.4939 85.5965C52.5315 86.0838 55.7356 95.6108 54.7122 96.3661C54.164 96.756 49.2909 88.6057 48.4259 88.4473C45.9893 87.9965 53.6645 97.8524 52.9092 97.8524C52.1538 97.8524 47.0858 89.4828 46.1842 90.9813C45.636 91.9072 50.8259 98.754 50.3751 99.3509C49.9244 99.9479 47.3782 95.4646 45.8919 95.3184C44.4055 95.1722 49.1812 101.593 49.3274 102.336C50.3914 105.714 52.059 108.872 54.2493 111.656Z" fill="#FFAA06"/>
<path d="M108.45 102.055C108.45 102.055 96.2676 109.597 92.1985 113.812C88.1295 118.027 73.3274 129.515 73.3274 129.515L72.9375 153.309C72.9375 153.309 123.594 122.181 108.45 102.055Z" fill="#80FFF9"/>
<path d="M108.45 102.055C108.45 102.055 96.2676 109.597 92.1985 113.812C88.1295 118.027 73.3274 129.515 73.3274 129.515L72.9375 153.309C72.9375 153.309 123.594 122.181 108.45 102.055Z" fill="#FF6C37"/>
<path d="M108.451 102.055C108.451 102.055 107.233 102.835 105.393 104.017C105.319 104.242 105.23 104.462 105.125 104.675C100.422 114.811 93.4538 124.033 87.7644 133.633C84.6456 138.921 81.5796 144.232 78.5664 149.568C91.3218 140.699 120.366 117.978 108.451 102.055Z" fill="#39194B"/>
<path d="M90.1277 84.6705C89.2262 82.8796 89.0191 76.508 91.2485 73.706C95.0618 68.9303 103.906 65.7749 111.192 68.7354C111.192 68.7354 117.283 70.6846 119.72 74.4126C121.23 76.776 121.669 80.1019 123.009 82.1852C124.349 84.2684 128.394 85.6207 127.492 88.7639C126.591 91.9071 123.314 92.7964 125.848 95.7934C128.382 98.7904 131.683 100.118 132.122 103.712L122.717 104.93L120.024 101.19L119.72 104.626H101.774" fill="#39194B"/>
<path d="M120.525 63.3751C120.522 61.9733 120.104 60.6036 119.324 59.4392C118.543 58.2748 117.435 57.3679 116.139 56.8331C114.843 56.2983 113.418 56.1596 112.043 56.4346C110.669 56.7096 109.407 57.3858 108.416 58.3779C107.426 59.37 106.752 60.6334 106.479 62.0085C106.207 63.3836 106.348 64.8086 106.885 66.1035C107.422 67.3984 108.33 68.505 109.496 69.2836C110.662 70.0621 112.032 70.4777 113.434 70.4777C114.366 70.4777 115.289 70.2939 116.15 69.9368C117.011 69.5797 117.794 69.0563 118.452 68.3967C119.111 67.737 119.633 66.9539 119.988 66.0922C120.344 65.2306 120.526 64.3072 120.525 63.3751Z" fill="#39194B"/>
<path d="M109.231 86.5224C109.305 86.7661 110.218 84.8168 110.45 84.7194C111.497 84.3417 113.824 83.2574 115.14 85.9376C116.456 88.6179 114.397 91.0666 112.85 91.7245C112.048 92.1227 111.329 92.6682 110.73 93.3326C108.781 97.1336 111.351 105.199 111.632 108.281C112.241 115.091 117.723 107.623 117.723 107.623C117.723 107.623 99.2903 122.121 96.5736 114.019C98.7908 110.121 100.228 97.8646 98.2304 98.5956C95.6598 99.558 90.2751 96.3296 89.6172 84.6706C92.6142 75.9965 96.3421 74.6564 96.3908 73.9741C96.6954 79.9681 100.131 84.0006 109.231 86.5224Z" fill="#FFAA06"/>
<path d="M114.274 87.0949C114.274 87.0949 111.399 84.2076 110.973 89.5315L114.274 87.0949Z" fill="#EF9F04"/>
<path d="M94.4043 86.5103L94.7697 89.3854L93.2591 89.2758C93.1962 89.2709 93.1356 89.2498 93.0833 89.2146C93.031 89.1794 92.9887 89.1312 92.9605 89.0748C92.9323 89.0184 92.9191 88.9556 92.9224 88.8926C92.9256 88.8297 92.945 88.7686 92.9789 88.7153L94.4043 86.5103Z" fill="#EF9F04"/>
<path d="M98.8497 83.7934C99.3248 84.1345 98.5817 82.5751 97.9116 82.4411C97.6206 82.3559 97.3081 82.3824 97.0355 82.5153C96.7629 82.6483 96.5496 82.8781 96.4375 83.1599C97.291 83.0817 98.1448 83.306 98.8497 83.7934Z" fill="black"/>
<path d="M90.8356 83.6472C90.3604 83.9884 91.0914 82.429 91.7614 82.2828C92.051 82.1968 92.3622 82.2215 92.6346 82.3521C92.907 82.4827 93.1212 82.7098 93.2356 82.9894C92.3833 82.9212 91.534 83.154 90.8356 83.6472Z" fill="black"/>
<path d="M97.3904 86.5223C97.3904 87.034 97.1467 87.4482 96.9031 87.436C96.6594 87.4238 96.4767 86.9974 96.4889 86.4858C96.501 85.9741 96.7325 85.5721 96.9762 85.5843C97.2198 85.5964 97.4148 86.0106 97.3904 86.5223Z" fill="black"/>
<path d="M93.3317 86.1081C93.3317 86.6076 93.1124 86.9852 92.8687 86.9852C92.6251 86.9852 92.4545 86.571 92.4789 86.0837C92.5032 85.5964 92.7104 85.2065 92.9418 85.2065C93.1733 85.2065 93.3561 85.6207 93.3317 86.1081Z" fill="black"/>
<path d="M98.8633 98.4859C98.8633 98.4859 102.518 97.2067 104.772 96.2077C107.026 95.2087 101.373 104.711 98.8633 98.4859Z" fill="#39194B"/>
<path d="M103.592 323.173L101.789 335.953C101.789 335.953 98.9013 344.481 96.2211 341.155C94.6863 339.24 92.89 337.551 90.885 336.136L90.0078 322.844L103.592 323.173Z" fill="#FFAA06"/>
<path d="M146.328 322.187L150.3 334.942C150.3 334.942 153.333 337.598 154.43 337.525C156.415 337.403 157.451 333.967 157.451 333.967L157.78 322.187H146.328Z" fill="#FFAA06"/>
<path d="M102.617 330.105L103.592 323.173L91.1289 322.869C94.8812 325.342 98.731 327.742 102.617 330.105Z" fill="#39194B"/>
<path d="M157.61 328.57L157.781 322.187H146.926C150.548 324.225 154.11 326.353 157.61 328.57Z" fill="#39194B"/>
<path d="M90.0077 336.051L79.2991 344.737C78.7508 345.139 79.1407 345.821 79.9204 345.833L95.758 345.955C95.9238 345.969 96.0902 345.936 96.2385 345.861C96.3869 345.785 96.5115 345.671 96.5986 345.529L97.8169 343.092C98.158 342.386 98.8525 342.337 98.7916 343.092L99.3763 345.456C99.3763 345.821 103.116 345.724 103.153 345.383C103.247 341.75 103.043 338.115 102.544 334.516C102.495 334.364 102.401 334.23 102.275 334.132C102.149 334.034 101.997 333.977 101.837 333.967C101.68 333.941 101.519 333.949 101.366 333.991C101.212 334.033 101.07 334.108 100.948 334.211C99.888 335.246 96.4768 338.353 94.6616 337.72C93.4941 337.343 92.3864 336.802 91.3722 336.111C91.1824 335.954 90.9464 335.863 90.7002 335.852C90.454 335.841 90.2108 335.911 90.0077 336.051Z" fill="black"/>
<path d="M157.609 333.529L163.701 343.714C163.851 343.956 163.947 344.228 163.982 344.511C164.018 344.794 163.993 345.081 163.909 345.353C163.825 345.626 163.683 345.877 163.494 346.09C163.305 346.303 163.072 346.473 162.811 346.589C160.911 347.71 159.352 349.976 158.158 350C156.001 350.061 152.639 347.795 150.677 346.93C149.362 346.357 148.338 345.529 148.497 344.42L150.007 334.211C150.007 334.077 150.251 334.041 150.361 334.138L152.688 336.246C153.192 336.586 153.795 336.748 154.403 336.706C155.01 336.664 155.585 336.421 156.038 336.014C156.403 335.429 157.256 333.517 157.256 333.517C157.28 333.494 157.308 333.475 157.339 333.463C157.369 333.451 157.402 333.446 157.435 333.447C157.468 333.448 157.501 333.456 157.531 333.47C157.561 333.484 157.587 333.504 157.609 333.529Z" fill="black"/>
<path d="M121.499 151.262C126.372 159.936 132.853 169.219 135.68 180.245C138.945 193.049 157.609 301.768 159.205 325.037C155.172 326.012 149.13 325.391 146.571 325.245C138.47 302.012 113.97 216.939 110.498 202.308C109.962 200.054 106.49 200.541 106.758 202.844C108.731 219.559 103.7 281.24 103.7 327.109C101.592 328.193 92.3943 327.425 89.9578 327.109C87.3019 298.455 72.5973 188.687 93.8807 153.503C103.615 152.09 111.643 150.969 121.499 151.262Z" fill="black"/>
<path d="M96.389 154.856C89.9107 172.179 86.5571 190.514 86.4844 209.008C86.4844 239.283 94.6956 326.049 94.6956 326.049" stroke="white" stroke-width="0.311364" stroke-miterlimit="10"/>
<path d="M153.614 325.037L120.562 156.293" stroke="white" stroke-width="0.311364" stroke-miterlimit="10"/>
<path d="M98.6582 106.539C97.708 107.306 88.3516 129.503 88.6927 136.24C89.0338 142.977 92.3475 155.976 92.3475 155.976C92.3475 155.976 96.4775 160.094 125.534 155.526C132.709 140.054 131.357 116.541 121.793 106.868C121.793 106.868 114.094 103.919 111.633 103.737C111.633 103.737 105.054 107.976 101.472 107.915C99.8521 107.891 98.4389 108.951 98.6582 106.539Z" fill="#FF6C37"/>
<path d="M124.58 120.488C122.789 129.698 119.061 138.458 116.491 147.461C115.577 150.653 114.712 153.857 113.859 157.061C117.222 156.72 121.084 156.22 125.543 155.526C131.22 143.343 131.549 125.983 126.7 114.519L124.58 120.488Z" fill="#39194B"/>
<path d="M174.566 109.718C174.566 109.718 156.755 155.172 149.969 151.932L131.609 138.872L139.711 122.535L149.238 129.54C149.433 130.003 170.826 103.432 170.826 103.432C170.826 103.432 183.715 100.094 187.37 98.6564C187.412 98.6391 187.459 98.6362 187.503 98.648C187.546 98.6598 187.585 98.6857 187.613 98.7217C187.641 98.7577 187.656 98.8018 187.656 98.8473C187.656 98.8927 187.641 98.9369 187.614 98.9731L182.741 106.502C181.839 107.501 174.566 109.718 174.566 109.718Z" fill="#FFAA06"/>
<path d="M115.662 106.173C115.662 106.173 123.3 104.638 126.748 109.438C130.196 114.238 149.104 129.138 149.104 129.138L140.052 145.999C140.052 145.999 97.6556 123.765 115.662 106.173Z" fill="#FF6C37"/>
<path d="M145.949 126.628C145.705 129.808 145.462 132.975 145.34 136.119L149.092 129.138C149.092 129.138 147.862 128.163 145.949 126.628Z" fill="#39194B"/>
<path d="M170.523 103.591C170.523 103.591 179.441 95.9031 179.648 97.3042C179.795 98.3519 177.699 101.641 177.699 101.641L170.523 103.591Z" fill="#FFAA06"/>
<path d="M80.3945 173.094H116.492V168.866H80.3945V173.094Z" fill="#455A64"/>
<path d="M116.492 168.854H92.9062L94.7702 173.093H116.492V168.854Z" fill="#455A64"/>
<path d="M35.2691 173.093H92.175L78.4328 133.853H21.5391L35.2691 173.093Z" fill="#455A64"/>
<path d="M57.0774 158.145C59.0488 158.145 60.6469 156.547 60.6469 154.575C60.6469 152.604 59.0488 151.006 57.0774 151.006C55.106 151.006 53.5078 152.604 53.5078 154.575C53.5078 156.547 55.106 158.145 57.0774 158.145Z" fill="#000307"/>
<path d="M-0.0117798 178.758L126.434 178.758V173.081L-0.0117798 173.081V178.758Z" fill="black"/>
<path d="M53.1777 81.1618C53.1777 79.3619 52.6439 77.6024 51.644 76.1058C50.644 74.6093 49.2227 73.4428 47.5598 72.754C45.8969 72.0652 44.067 71.885 42.3017 72.2362C40.5364 72.5873 38.9148 73.454 37.6421 74.7268C36.3693 75.9995 35.5026 77.6211 35.1514 79.3864C34.8003 81.1517 34.9805 82.9816 35.6693 84.6445C36.3581 86.3074 37.5246 87.7287 39.0211 88.7287C40.5177 89.7287 42.2772 90.2624 44.0771 90.2624C45.2722 90.2624 46.4556 90.027 47.5598 89.5697C48.6639 89.1123 49.6671 88.442 50.5122 87.5969C51.3573 86.7518 52.0276 85.7486 52.4849 84.6445C52.9423 83.5403 53.1777 82.3569 53.1777 81.1618Z" fill="#407BFF"/>
<g opacity="0.55">
<path d="M47.7921 97.2139C56.6684 95.163 62.2016 86.3047 60.1507 77.4283C58.0998 68.5519 49.2415 63.0188 40.3651 65.0697C31.4887 67.1206 25.9556 75.9789 28.0065 84.8553C30.0574 93.7317 38.9157 99.2648 47.7921 97.2139Z" stroke="#39194B" stroke-width="1.40355" stroke-miterlimit="10" stroke-dasharray="14.17 14.17"/>
</g>
<path d="M44.078 111.205C60.6702 111.205 74.1208 97.7541 74.1208 81.162C74.1208 64.5698 60.6702 51.1191 44.078 51.1191C27.4858 51.1191 14.0352 64.5698 14.0352 81.162C14.0352 97.7541 27.4858 111.205 44.078 111.205Z" stroke="#FEF2FB" stroke-width="1.40355" stroke-miterlimit="10" stroke-dasharray="15.49 15.49"/>
<path d="M212.664 51.2409C212.664 44.6172 210.033 38.2647 205.349 33.581C200.666 28.8974 194.313 26.2661 187.69 26.2661C181.066 26.2661 174.713 28.8974 170.03 33.581C165.346 38.2647 162.715 44.6172 162.715 51.2409C162.715 65.0196 186.459 86.6563 186.459 86.6563C186.459 86.6563 212.664 65.0196 212.664 51.2409Z" fill="#FFF0EB"/>
<path d="M205.782 48.2438C205.782 41.6201 203.15 35.2677 198.467 30.584C193.783 25.9003 187.431 23.269 180.807 23.269C174.183 23.269 167.831 25.9003 163.147 30.584C158.463 35.2677 155.832 41.6201 155.832 48.2438C155.832 62.0347 179.576 83.6714 179.576 83.6714C179.576 83.6714 205.782 62.0347 205.782 48.2438Z" stroke="#407BFF" stroke-width="1.10676" stroke-miterlimit="10"/>
<path d="M175.64 72.902C173.688 66.0475 172.147 59.0829 171.023 52.045C170.785 50.9637 170.761 49.8464 170.95 48.7556C171.049 48.2097 171.299 47.7025 171.671 47.2913C172.044 46.88 172.524 46.5813 173.058 46.4287C173.697 46.325 174.352 46.4364 174.922 46.7455C177.2 47.8785 178.004 50.6805 178.479 53.178C178.582 53.453 178.582 53.7558 178.479 54.0308C178.401 54.115 178.307 54.1822 178.202 54.2281C178.097 54.2741 177.984 54.2978 177.87 54.2978C177.755 54.2978 177.642 54.2741 177.537 54.2281C177.432 54.1822 177.338 54.115 177.261 54.0308C176.949 53.6705 176.769 53.2153 176.749 52.7394C176.59 51.8253 176.616 50.8886 176.825 49.9846C177.035 49.0807 177.423 48.2278 177.967 47.4765C178.523 46.7287 179.322 46.198 180.227 45.9756C181.132 45.7533 182.086 45.8532 182.926 46.2582C184.777 47.3546 185.021 49.913 184.68 52.0816C184.583 52.642 184.229 53.3729 183.669 53.2267C183.34 52.426 183.194 51.5618 183.243 50.6975C183.291 49.8332 183.532 48.9907 183.949 48.2318C184.851 46.6115 186.885 45.4663 188.578 46.1851C189.099 46.4425 189.555 46.8157 189.909 47.276C190.264 47.7363 190.509 48.2715 190.625 48.8409C190.82 49.986 190.82 51.1558 190.625 52.3008C189.76 60.1344 187.421 67.7121 185.106 75.2289L184.924 74.4614" stroke="#407BFF" stroke-width="0.276689" stroke-miterlimit="10"/>
<path d="M176.639 77.3609C175.008 76.9761 173.41 76.4587 171.863 75.8137C176.152 80.4919 179.624 83.6716 179.624 83.6716C179.624 83.6716 182.207 81.5396 185.715 78.1894C182.666 78.3204 179.614 78.0418 176.639 77.3609Z" fill="#FFD857"/>
<path d="M189.686 78.0308H169.56C168.815 78.0276 168.101 77.7301 167.574 77.203C167.047 76.6759 166.749 75.962 166.746 75.2166C166.746 74.4702 167.043 73.7544 167.57 73.2266C168.098 72.6989 168.814 72.4024 169.56 72.4024H189.686C190.056 72.4008 190.423 72.4724 190.765 72.6133C191.107 72.7542 191.418 72.9614 191.68 73.223C191.942 73.4847 192.149 73.7956 192.29 74.1377C192.43 74.4799 192.502 74.8466 192.501 75.2166C192.501 75.5862 192.428 75.9521 192.286 76.2936C192.145 76.635 191.938 76.9452 191.676 77.2066C191.415 77.4679 191.105 77.6752 190.763 77.8166C190.422 77.958 190.056 78.0308 189.686 78.0308Z" fill="#FF6C37"/>
<path d="M180.062 90.9081C176.966 90.9081 173.998 89.6785 171.809 87.4897C169.62 85.301 168.391 82.3323 168.391 79.237V77.2268H191.733V79.237C191.733 82.3323 190.503 85.301 188.314 87.4897C186.126 89.6785 183.157 90.9081 180.062 90.9081Z" fill="#FF6C37"/>
<path d="M184.935 89.836C186.967 88.9084 188.689 87.416 189.896 85.5368C191.104 83.6575 191.745 81.4707 191.745 79.237V77.2268H169.938C174.884 81.4664 179.883 85.6695 184.935 89.836Z" fill="#39194B"/>
</g>
<defs>
<clipPath id="clip0_1167_14988">
<rect width="394.638" height="350" fill="white"/>
</clipPath>
</defs>
</svg>
