<svg width="496" height="350" viewBox="0 0 496 350" fill="none" xmlns="http://www.w3.org/2000/svg">
<g clip-path="url(#clip0_1167_15961)">
<path d="M93.6064 44.4214C100.106 37.9218 100.106 27.3839 93.6064 20.8843C87.1068 14.3847 76.5689 14.3847 70.0693 20.8843C63.5697 27.3839 63.5697 37.9218 70.0693 44.4214C76.5689 50.921 87.1068 50.921 93.6064 44.4214Z" fill="#407BFF"/>
<path d="M396.433 58.2252C398.357 58.2252 399.917 56.6655 399.917 54.7415C399.917 52.8175 398.357 51.2578 396.433 51.2578C394.509 51.2578 392.949 52.8175 392.949 54.7415C392.949 56.6655 394.509 58.2252 396.433 58.2252Z" fill="url(#paint0_linear_1167_15961)"/>
<path d="M344.484 73.2745C346.408 73.2745 347.967 71.7148 347.967 69.7908C347.967 67.8668 346.408 66.3071 344.484 66.3071C342.56 66.3071 341 67.8668 341 69.7908C341 71.7148 342.56 73.2745 344.484 73.2745Z" fill="#F0F0F0"/>
<path d="M478.977 288.783C484.364 288.783 488.731 284.416 488.731 279.029C488.731 273.642 484.364 269.275 478.977 269.275C473.59 269.275 469.223 273.642 469.223 279.029C469.223 284.416 473.59 288.783 478.977 288.783Z" fill="#407BFF"/>
<path d="M460.138 185.097C470.485 174.751 470.485 157.976 460.138 147.63C449.792 137.284 433.017 137.284 422.671 147.63C412.325 157.976 412.325 174.751 422.671 185.097C433.017 195.444 449.792 195.444 460.138 185.097Z" fill="#F0F0F0"/>
<path d="M37.9704 314.815C37.9722 317.387 37.2108 319.903 35.7827 322.042C34.3546 324.182 32.3239 325.85 29.9476 326.835C27.5713 327.82 24.9562 328.078 22.4331 327.577C19.91 327.076 17.5923 325.837 15.7733 324.018C13.9543 322.199 12.7157 319.881 12.2143 317.358C11.7128 314.835 11.9711 312.22 12.9563 309.844C13.9415 307.467 15.6095 305.437 17.7491 304.009C19.8887 302.58 22.4039 301.819 24.9764 301.821C28.4226 301.821 31.7277 303.19 34.1646 305.627C36.6014 308.064 37.9704 311.369 37.9704 314.815Z" fill="#F0F0F0"/>
<path d="M141.365 355.609C151.786 352.534 157.742 341.593 154.667 331.171C151.592 320.75 140.65 314.795 130.229 317.87C119.808 320.945 113.852 331.886 116.927 342.307C120.002 352.729 130.944 358.684 141.365 355.609Z" fill="#F0F0F0"/>
<path d="M0.226562 110.114H84.7143" stroke="#F0F0F0" stroke-miterlimit="10" stroke-linecap="round"/>
<path d="M417.781 248.921H502.26" stroke="#F0F0F0" stroke-miterlimit="10" stroke-linecap="round"/>
<path d="M276.125 45.3008H360.604" stroke="#F0F0F0" stroke-miterlimit="10" stroke-linecap="round"/>
<path d="M45.1134 280.884H41.8823V277.661C41.8823 277.43 41.7906 277.209 41.6273 277.046C41.4639 276.882 41.2424 276.791 41.0114 276.791C40.7804 276.791 40.5589 276.882 40.3956 277.046C40.2323 277.209 40.1405 277.43 40.1405 277.661V280.884H36.9529C36.722 280.884 36.5004 280.976 36.3371 281.139C36.1738 281.302 36.082 281.524 36.082 281.755C36.082 281.986 36.1738 282.207 36.3371 282.371C36.5004 282.534 36.722 282.626 36.9529 282.626H40.1841V285.857C40.1841 286.088 40.2758 286.309 40.4391 286.473C40.6025 286.636 40.824 286.728 41.055 286.728C41.286 286.728 41.5075 286.636 41.6708 286.473C41.8341 286.309 41.9259 286.088 41.9259 285.857V282.626H45.1134C45.3444 282.626 45.566 282.534 45.7293 282.371C45.8926 282.207 45.9844 281.986 45.9844 281.755C45.9844 281.524 45.8926 281.302 45.7293 281.139C45.566 280.976 45.3444 280.884 45.1134 280.884Z" fill="#F0F0F0"/>
<path d="M421.088 73.2833H416.167V68.3713C416.167 68.0248 416.029 67.6926 415.784 67.4476C415.539 67.2026 415.207 67.0649 414.861 67.0649C414.514 67.0649 414.182 67.2026 413.937 67.4476C413.692 67.6926 413.554 68.0248 413.554 68.3713V73.2833H408.642C408.296 73.2833 407.964 73.4209 407.719 73.6659C407.474 73.9109 407.336 74.2432 407.336 74.5897C407.336 74.9361 407.474 75.2684 407.719 75.5134C407.964 75.7584 408.296 75.896 408.642 75.896H413.554V80.808C413.554 81.1545 413.692 81.4868 413.937 81.7318C414.182 81.9768 414.514 82.1144 414.861 82.1144C415.207 82.1144 415.539 81.9768 415.784 81.7318C416.029 81.4868 416.167 81.1545 416.167 80.808V75.8786H421.088C421.434 75.8786 421.766 75.741 422.011 75.496C422.256 75.251 422.394 74.9187 422.394 74.5722C422.394 74.2258 422.256 73.8935 422.011 73.6485C421.766 73.4035 421.434 73.2659 421.088 73.2659V73.2833Z" fill="#407BFF"/>
<path d="M456.726 313.961H453.504V310.739C453.504 310.508 453.412 310.287 453.249 310.123C453.086 309.96 452.864 309.868 452.633 309.868C452.402 309.868 452.181 309.96 452.017 310.123C451.854 310.287 451.762 310.508 451.762 310.739V313.961H448.531C448.3 313.961 448.079 314.053 447.915 314.217C447.752 314.38 447.66 314.601 447.66 314.832C447.66 315.063 447.752 315.285 447.915 315.448C448.079 315.612 448.3 315.703 448.531 315.703H451.762V318.934C451.762 319.165 451.854 319.387 452.017 319.55C452.181 319.714 452.402 319.805 452.633 319.805C452.864 319.805 453.086 319.714 453.249 319.55C453.412 319.387 453.504 319.165 453.504 318.934V315.703H456.726C456.957 315.703 457.179 315.612 457.342 315.448C457.506 315.285 457.597 315.063 457.597 314.832C457.597 314.601 457.506 314.38 457.342 314.217C457.179 314.053 456.957 313.961 456.726 313.961Z" fill="url(#paint1_linear_1167_15961)"/>
<path d="M252.653 42.2437H247.68C247.363 42.2437 247.105 42.501 247.105 42.8185V47.7914C247.105 48.1089 247.363 48.3662 247.68 48.3662H252.653C252.971 48.3662 253.228 48.1089 253.228 47.7914V42.8185C253.228 42.501 252.971 42.2437 252.653 42.2437Z" fill="#F0F0F0"/>
<path d="M260.841 42.2439H255.868C255.55 42.2439 255.293 42.5012 255.293 42.8187V47.7916C255.293 48.1091 255.55 48.3665 255.868 48.3665H260.841C261.158 48.3665 261.416 48.1091 261.416 47.7916V42.8187C261.416 42.5012 261.158 42.2439 260.841 42.2439Z" fill="#F0F0F0"/>
<path d="M269.028 42.2439H264.055C263.738 42.2439 263.48 42.5012 263.48 42.8187V47.7916C263.48 48.1091 263.738 48.3665 264.055 48.3665H269.028C269.346 48.3665 269.603 48.1091 269.603 47.7916V42.8187C269.603 42.5012 269.346 42.2439 269.028 42.2439Z" fill="#F0F0F0"/>
<path d="M115.474 268.116H110.501C110.183 268.116 109.926 268.374 109.926 268.691V273.664C109.926 273.981 110.183 274.239 110.501 274.239H115.474C115.791 274.239 116.048 273.981 116.048 273.664V268.691C116.048 268.374 115.791 268.116 115.474 268.116Z" fill="#F0F0F0"/>
<path d="M123.653 268.116H118.68C118.363 268.116 118.105 268.374 118.105 268.691V273.664C118.105 273.981 118.363 274.239 118.68 274.239H123.653C123.971 274.239 124.228 273.981 124.228 273.664V268.691C124.228 268.374 123.971 268.116 123.653 268.116Z" fill="#F0F0F0"/>
<path d="M131.841 268.116H126.868C126.55 268.116 126.293 268.374 126.293 268.691V273.664C126.293 273.981 126.55 274.239 126.868 274.239H131.841C132.158 274.239 132.416 273.981 132.416 273.664V268.691C132.416 268.374 132.158 268.116 131.841 268.116Z" fill="#F0F0F0"/>
<path d="M284.093 314.493H280.906C280.699 314.493 280.531 314.66 280.531 314.867V318.055C280.531 318.262 280.699 318.429 280.906 318.429H284.093C284.3 318.429 284.468 318.262 284.468 318.055V314.867C284.468 314.66 284.3 314.493 284.093 314.493Z" fill="#F0F0F0"/>
<path d="M289.363 314.493H286.175C285.968 314.493 285.801 314.66 285.801 314.867V318.055C285.801 318.262 285.968 318.429 286.175 318.429H289.363C289.57 318.429 289.737 318.262 289.737 318.055V314.867C289.737 314.66 289.57 314.493 289.363 314.493Z" fill="#F0F0F0"/>
<path d="M294.632 314.493H291.445C291.238 314.493 291.07 314.66 291.07 314.867V318.055C291.07 318.262 291.238 318.429 291.445 318.429H294.632C294.839 318.429 295.007 318.262 295.007 318.055V314.867C295.007 314.66 294.839 314.493 294.632 314.493Z" fill="#F0F0F0"/>
<path d="M103.926 202.902V195.552C103.926 195.207 103.789 194.877 103.546 194.634C103.303 194.391 102.973 194.254 102.628 194.254H100.739C100.468 194.256 100.205 194.167 99.992 194.001C99.7787 193.835 99.6275 193.602 99.5629 193.339C98.9212 190.529 97.8175 187.845 96.2969 185.397C96.1478 185.165 96.082 184.89 96.1105 184.616C96.139 184.342 96.2601 184.086 96.4537 183.89L97.7862 182.558C98.0282 182.313 98.1639 181.983 98.1639 181.639C98.1639 181.295 98.0282 180.964 97.7862 180.72L92.5607 175.494C92.4407 175.372 92.2977 175.276 92.14 175.21C91.9822 175.143 91.8129 175.109 91.6419 175.109C91.4708 175.109 91.3015 175.143 91.1438 175.21C90.986 175.276 90.843 175.372 90.7231 175.494L89.3905 176.818C89.1961 177.011 88.9416 177.132 88.6692 177.16C88.3967 177.189 88.1227 177.123 87.8926 176.975C85.4438 175.453 82.76 174.346 79.9498 173.7C79.6873 173.639 79.4537 173.49 79.2874 173.278C79.1211 173.065 79.0322 172.803 79.0353 172.533V170.652C79.0353 170.306 78.8977 169.973 78.6527 169.728C78.4077 169.483 78.0754 169.346 77.729 169.346H70.3871C70.0407 169.346 69.7084 169.483 69.4634 169.728C69.2184 169.973 69.0808 170.306 69.0808 170.652V172.533C69.0863 172.797 69.0036 173.055 68.8458 173.266C68.6881 173.478 68.4642 173.631 68.2098 173.7C65.3981 174.341 62.7134 175.448 60.2671 176.975C60.0355 177.124 59.7601 177.19 59.4862 177.161C59.2123 177.133 58.9562 177.012 58.7604 176.818L57.4366 175.494C57.3166 175.372 57.1736 175.276 57.0159 175.21C56.8581 175.143 56.6888 175.109 56.5178 175.109C56.3467 175.109 56.1774 175.143 56.0197 175.21C55.8619 175.276 55.7189 175.372 55.5989 175.494L50.3734 180.72C50.1314 180.964 49.9957 181.295 49.9957 181.639C49.9957 181.983 50.1314 182.313 50.3734 182.558L51.706 183.89C51.8982 184.087 52.0182 184.343 52.0467 184.616C52.0752 184.89 52.0103 185.165 51.8627 185.397C50.3357 187.843 49.2289 190.528 48.5881 193.339C48.5266 193.602 48.3775 193.836 48.1653 194.002C47.9531 194.168 47.6906 194.257 47.421 194.254H45.5399C45.1957 194.254 44.8656 194.391 44.6223 194.634C44.3789 194.877 44.2422 195.207 44.2422 195.552V202.902C44.2422 203.246 44.3789 203.576 44.6223 203.82C44.8656 204.063 45.1957 204.2 45.5399 204.2H47.4646C47.7341 204.197 47.9967 204.286 48.2089 204.452C48.4211 204.618 48.5702 204.852 48.6316 205.114C49.2724 207.926 50.3793 210.611 51.9063 213.057C52.0539 213.289 52.1187 213.564 52.0902 213.838C52.0618 214.111 51.9417 214.367 51.7495 214.564L50.417 215.888C50.1745 216.134 50.0385 216.465 50.0385 216.811C50.0385 217.156 50.1745 217.488 50.417 217.734L55.6425 222.959C55.8871 223.201 56.2172 223.337 56.5613 223.337C56.9054 223.337 57.2356 223.201 57.4801 222.959L58.8126 221.627C59.0079 221.435 59.2623 221.316 59.5343 221.287C59.8063 221.259 60.0799 221.323 60.3106 221.47C62.7594 222.992 65.4432 224.099 68.2534 224.745C68.5078 224.815 68.7316 224.967 68.8894 225.179C69.0471 225.39 69.1298 225.648 69.1243 225.912V227.802C69.1243 228.148 69.2619 228.48 69.5069 228.725C69.7519 228.97 70.0842 229.108 70.4307 229.108H77.7725C78.119 229.108 78.4513 228.97 78.6963 228.725C78.9412 228.48 79.0789 228.148 79.0789 227.802V225.912C79.0758 225.642 79.1647 225.38 79.3309 225.168C79.4972 224.955 79.7309 224.806 79.9934 224.745C82.7994 224.095 85.4797 222.988 87.9274 221.47C88.1594 221.323 88.4345 221.258 88.708 221.286C88.9816 221.315 89.2374 221.435 89.4341 221.627L90.7666 222.959C91.0112 223.201 91.3414 223.337 91.6854 223.337C92.0295 223.337 92.3597 223.201 92.6042 222.959L97.8297 217.734C98.0723 217.488 98.2082 217.156 98.2082 216.811C98.2082 216.465 98.0723 216.134 97.8297 215.888L96.4972 214.564C96.3036 214.368 96.1826 214.112 96.1541 213.838C96.1256 213.564 96.1913 213.289 96.3405 213.057C97.8611 210.608 98.9647 207.924 99.6064 205.114C99.6707 204.853 99.8206 204.621 100.032 204.456C100.244 204.29 100.505 204.2 100.773 204.2H102.672C103.009 204.189 103.328 204.047 103.562 203.805C103.796 203.563 103.926 203.239 103.926 202.902ZM74.0798 216.445C70.6744 216.447 67.345 215.438 64.5125 213.548C61.6801 211.657 59.4718 208.97 58.1671 205.824C56.8623 202.678 56.5195 199.217 57.1822 195.876C57.8449 192.536 59.4832 189.467 61.89 187.058C64.2967 184.649 67.3639 183.007 70.7035 182.341C74.0431 181.675 77.5053 182.015 80.6521 183.316C83.799 184.618 86.4892 186.823 88.3826 189.654C90.2759 192.484 91.2874 195.813 91.2892 199.218C91.2903 201.479 90.8461 203.718 89.9818 205.808C89.1176 207.897 87.8503 209.796 86.2523 211.396C84.6542 212.995 82.7568 214.265 80.6682 215.131C78.5797 215.997 76.3409 216.444 74.0798 216.445Z" fill="#F0F0F0"/>
<path d="M362.286 132.758V127.533C362.286 127.286 362.188 127.049 362.013 126.874C361.838 126.699 361.601 126.601 361.354 126.601H360.004C359.814 126.597 359.63 126.532 359.48 126.414C359.331 126.296 359.224 126.132 359.177 125.948C358.714 123.945 357.926 122.033 356.843 120.287C356.739 120.121 356.693 119.926 356.714 119.731C356.734 119.537 356.82 119.355 356.956 119.215L357.905 118.266C358.077 118.09 358.173 117.854 358.173 117.609C358.173 117.363 358.077 117.127 357.905 116.951L354.195 113.25C354.11 113.163 354.008 113.094 353.896 113.047C353.784 112.999 353.664 112.975 353.542 112.975C353.42 112.975 353.3 112.999 353.188 113.047C353.075 113.094 352.974 113.163 352.889 113.25L351.939 114.199C351.799 114.335 351.618 114.421 351.423 114.441C351.229 114.462 351.034 114.416 350.868 114.312C349.122 113.221 347.206 112.429 345.198 111.969C345.014 111.922 344.85 111.815 344.732 111.666C344.615 111.516 344.549 111.332 344.545 111.142V109.792C344.545 109.67 344.521 109.549 344.474 109.437C344.427 109.324 344.358 109.222 344.272 109.136C344.185 109.05 344.082 108.983 343.969 108.937C343.856 108.891 343.735 108.868 343.613 108.869H338.388C338.266 108.868 338.145 108.891 338.032 108.937C337.919 108.983 337.816 109.05 337.729 109.136C337.643 109.222 337.574 109.324 337.527 109.437C337.48 109.549 337.456 109.67 337.456 109.792V111.151C337.453 111.341 337.387 111.525 337.269 111.674C337.151 111.824 336.987 111.931 336.803 111.978C334.8 112.437 332.887 113.226 331.142 114.312C330.977 114.42 330.78 114.468 330.584 114.449C330.387 114.43 330.204 114.345 330.062 114.208L329.121 113.258C329.035 113.171 328.933 113.102 328.82 113.055C328.707 113.007 328.586 112.983 328.464 112.983C328.341 112.983 328.22 113.007 328.107 113.055C327.995 113.102 327.892 113.171 327.806 113.258L324.105 116.96C324.018 117.046 323.948 117.148 323.901 117.261C323.854 117.374 323.83 117.495 323.83 117.617C323.83 117.74 323.854 117.861 323.901 117.974C323.948 118.087 324.018 118.189 324.105 118.275L325.045 119.224C325.182 119.364 325.267 119.546 325.288 119.74C325.308 119.934 325.263 120.13 325.159 120.295C324.075 122.042 323.287 123.954 322.825 125.956C322.775 126.148 322.662 126.317 322.504 126.436C322.345 126.555 322.151 126.616 321.954 126.61H320.604C320.357 126.61 320.12 126.708 319.945 126.882C319.77 127.057 319.672 127.294 319.672 127.541V132.767C319.672 132.889 319.696 133.01 319.743 133.122C319.79 133.235 319.859 133.337 319.945 133.423C320.032 133.509 320.135 133.576 320.248 133.622C320.361 133.668 320.482 133.691 320.604 133.69H321.954C322.151 133.684 322.345 133.745 322.504 133.864C322.662 133.983 322.775 134.152 322.825 134.343C323.285 136.349 324.074 138.264 325.159 140.013C325.264 140.177 325.311 140.372 325.292 140.567C325.273 140.761 325.189 140.943 325.054 141.084L324.105 142.033C324.018 142.119 323.949 142.22 323.902 142.332C323.855 142.445 323.83 142.565 323.83 142.687C323.83 142.808 323.855 142.929 323.902 143.041C323.949 143.153 324.018 143.255 324.105 143.34L327.806 147.05C327.982 147.222 328.218 147.318 328.464 147.318C328.71 147.318 328.946 147.222 329.121 147.05L330.071 146.101C330.211 145.964 330.392 145.879 330.587 145.859C330.781 145.838 330.976 145.883 331.142 145.987C332.887 147.072 334.8 147.861 336.803 148.321C336.994 148.371 337.164 148.484 337.282 148.642C337.401 148.801 337.462 148.995 337.456 149.192V150.542C337.456 150.789 337.554 151.027 337.729 151.201C337.904 151.376 338.141 151.474 338.388 151.474H343.613C343.861 151.474 344.098 151.376 344.272 151.201C344.447 151.027 344.545 150.789 344.545 150.542V149.192C344.539 148.995 344.6 148.801 344.719 148.642C344.838 148.484 345.007 148.371 345.198 148.321C347.202 147.862 349.115 147.074 350.859 145.987C351.025 145.883 351.22 145.838 351.415 145.859C351.609 145.879 351.791 145.964 351.931 146.101L352.889 147.05C353.063 147.221 353.298 147.317 353.542 147.317C353.786 147.317 354.021 147.221 354.195 147.05L357.905 143.34C358.076 143.166 358.172 142.931 358.172 142.687C358.172 142.442 358.076 142.208 357.905 142.033L356.956 141.084C356.82 140.944 356.734 140.762 356.714 140.568C356.693 140.374 356.739 140.178 356.843 140.013C357.927 138.264 358.716 136.349 359.177 134.343C359.224 134.159 359.331 133.995 359.48 133.877C359.63 133.759 359.814 133.694 360.004 133.69H361.354C361.477 133.691 361.598 133.668 361.712 133.622C361.826 133.575 361.929 133.507 362.016 133.42C362.102 133.333 362.171 133.23 362.217 133.116C362.264 133.003 362.287 132.881 362.286 132.758ZM340.966 142.417C338.537 142.418 336.162 141.7 334.141 140.351C332.121 139.003 330.545 137.086 329.614 134.842C328.684 132.598 328.439 130.129 328.912 127.746C329.385 125.364 330.554 123.175 332.271 121.457C333.988 119.738 336.176 118.568 338.558 118.093C340.941 117.619 343.41 117.862 345.654 118.791C347.899 119.72 349.817 121.294 351.167 123.313C352.517 125.333 353.237 127.708 353.237 130.137C353.237 133.392 351.944 136.514 349.643 138.817C347.342 141.12 344.221 142.414 340.966 142.417Z" fill="#F0F0F0"/>
<path d="M52.3331 176.374V171.41C52.3331 171.179 52.2413 170.957 52.078 170.794C51.9147 170.63 51.6931 170.539 51.4622 170.539H50.1819C50.0002 170.541 49.8231 170.481 49.6804 170.368C49.5377 170.256 49.438 170.098 49.3981 169.92C48.9582 168.021 48.211 166.206 47.186 164.547C47.084 164.392 47.0386 164.207 47.0577 164.023C47.0768 163.839 47.159 163.667 47.2905 163.537L48.1614 162.666C48.2443 162.584 48.3103 162.488 48.3553 162.381C48.4002 162.274 48.4234 162.159 48.4234 162.043C48.4234 161.927 48.4002 161.812 48.3553 161.705C48.3103 161.598 48.2443 161.501 48.1614 161.42L44.6777 157.937C44.5966 157.854 44.4997 157.788 44.3928 157.743C44.2859 157.698 44.171 157.674 44.055 157.674C43.939 157.674 43.8242 157.698 43.7172 157.743C43.6103 157.788 43.5134 157.854 43.4323 157.937L42.5614 158.807C42.4244 158.93 42.252 159.007 42.0689 159.025C41.8858 159.044 41.7015 159.004 41.5424 158.912C39.8828 157.862 38.0569 157.103 36.1427 156.665C35.9655 156.622 35.808 156.52 35.6957 156.376C35.5835 156.232 35.5231 156.055 35.5244 155.872V154.601C35.5244 154.37 35.4326 154.148 35.2693 153.985C35.106 153.822 34.8844 153.73 34.6535 153.73H29.6718C29.4408 153.73 29.2193 153.822 29.056 153.985C28.8927 154.148 28.8009 154.37 28.8009 154.601V155.872C28.8021 156.055 28.7418 156.232 28.6295 156.376C28.5173 156.52 28.3598 156.622 28.1825 156.665C26.2804 157.097 24.464 157.845 22.809 158.877C22.6534 158.976 22.469 159.019 22.2857 159C22.1023 158.981 21.9308 158.901 21.7987 158.773L20.9278 157.902C20.8467 157.819 20.7498 157.753 20.6429 157.708C20.536 157.663 20.4211 157.64 20.3051 157.64C20.1891 157.64 20.0742 157.663 19.9673 157.708C19.8604 157.753 19.7635 157.819 19.6824 157.902L16.1987 161.385C16.1158 161.466 16.0499 161.563 16.0049 161.67C15.9599 161.777 15.9367 161.892 15.9367 162.008C15.9367 162.124 15.9599 162.239 16.0049 162.346C16.0499 162.453 16.1158 162.55 16.1987 162.631L17.0696 163.502C17.1982 163.634 17.2785 163.805 17.2975 163.989C17.3165 164.172 17.273 164.356 17.1741 164.512C16.1454 166.169 15.398 167.985 14.962 169.886C14.9189 170.063 14.8171 170.22 14.6733 170.332C14.5294 170.445 14.3519 170.505 14.1695 170.504H12.8631C12.6321 170.504 12.4106 170.596 12.2473 170.759C12.0839 170.922 11.9922 171.144 11.9922 171.375V176.339C11.9922 176.57 12.0839 176.791 12.2473 176.955C12.4106 177.118 12.6321 177.21 12.8631 177.21H14.1434C14.3243 177.211 14.4998 177.272 14.6419 177.384C14.7839 177.496 14.8844 177.652 14.9272 177.828C15.3639 179.729 16.1113 181.545 17.1393 183.202C17.2404 183.358 17.2851 183.544 17.2661 183.73C17.2471 183.915 17.1655 184.088 17.0348 184.221L16.1639 185.092C16.0809 185.173 16.015 185.27 15.97 185.377C15.925 185.484 15.9018 185.598 15.9018 185.714C15.9018 185.83 15.925 185.945 15.97 186.052C16.015 186.159 16.0809 186.256 16.1639 186.337L19.6476 189.821C19.7287 189.904 19.8255 189.97 19.9325 190.015C20.0394 190.06 20.1542 190.083 20.2703 190.083C20.3863 190.083 20.5011 190.06 20.6081 190.015C20.715 189.97 20.8119 189.904 20.893 189.821L21.7639 188.95C21.8955 188.818 22.0682 188.735 22.2535 188.714C22.4387 188.693 22.6255 188.737 22.7829 188.837C24.4359 189.867 26.249 190.614 28.1477 191.049C28.325 191.092 28.4825 191.194 28.5947 191.338C28.7069 191.481 28.7673 191.659 28.7661 191.841V193.122C28.7661 193.353 28.8578 193.574 29.0211 193.737C29.1845 193.901 29.406 193.992 29.637 193.992H34.6099C34.8409 193.992 35.0624 193.901 35.2257 193.737C35.3891 193.574 35.4808 193.353 35.4808 193.122V191.841C35.4796 191.659 35.54 191.481 35.6522 191.338C35.7644 191.194 35.9219 191.092 36.0992 191.049C37.9979 190.614 39.811 189.867 41.464 188.837C41.6231 188.744 41.8074 188.704 41.9905 188.723C42.1736 188.742 42.346 188.818 42.483 188.941L43.3539 189.812C43.435 189.895 43.5319 189.961 43.6388 190.006C43.7458 190.051 43.8606 190.074 43.9766 190.074C44.0927 190.074 44.2075 190.051 44.3144 190.006C44.4214 189.961 44.5182 189.895 44.5993 189.812L48.083 186.328C48.166 186.247 48.2319 186.15 48.2769 186.044C48.3219 185.937 48.345 185.822 48.345 185.706C48.345 185.59 48.3219 185.475 48.2769 185.368C48.2319 185.261 48.166 185.164 48.083 185.083L47.2121 184.212C47.0814 184.079 46.9998 183.906 46.9808 183.721C46.9618 183.536 47.0065 183.35 47.1076 183.193C48.1356 181.536 48.883 179.72 49.3197 177.82C49.3611 177.643 49.4612 177.486 49.6035 177.373C49.7459 177.261 49.9222 177.2 50.1035 177.201H51.3838C51.501 177.212 51.6192 177.199 51.7311 177.163C51.8431 177.126 51.9466 177.068 52.0353 176.99C52.124 176.913 52.1962 176.819 52.2473 176.713C52.2985 176.607 52.3277 176.491 52.3331 176.374ZM32.1539 184.212C30.1139 184.214 28.1191 183.611 26.4215 182.479C24.7239 181.348 23.3998 179.739 22.6163 177.855C21.8329 175.972 21.6252 173.898 22.0196 171.896C22.414 169.895 23.3928 168.055 24.8323 166.61C26.2718 165.164 28.1074 164.177 30.1073 163.775C32.1072 163.372 34.1817 163.571 36.0686 164.346C37.9555 165.122 39.5702 166.439 40.7088 168.132C41.8474 169.825 42.4587 171.817 42.4656 173.857C42.4702 175.214 42.2069 176.559 41.6909 177.815C41.1748 179.071 40.4161 180.212 39.4582 181.174C38.5004 182.136 37.3621 182.899 36.1088 183.421C34.8554 183.942 33.5114 184.211 32.1539 184.212Z" fill="#407BFF"/>
<path d="M174.968 263.204C156.365 263.204 138.523 255.814 125.369 242.66C112.214 229.505 104.824 211.664 104.824 193.061C104.824 174.457 112.214 156.616 125.369 143.462C138.523 130.307 156.365 122.917 174.968 122.917C222.267 122.917 252.227 184.822 253.481 187.452L256.146 193.061L253.481 198.669C252.227 201.3 222.267 263.204 174.968 263.204ZM174.968 149.045C163.294 149.045 152.098 153.682 143.844 161.937C135.589 170.191 130.952 181.387 130.952 193.061C130.952 204.735 135.589 215.93 143.844 224.185C152.098 232.439 163.294 237.077 174.968 237.077C197.551 237.077 217.948 209.103 226.944 193.061C217.948 177.027 197.551 149.045 174.968 149.045Z" fill="url(#paint2_linear_1167_15961)"/>
<path d="M308.393 263.204C261.094 263.204 231.134 201.3 229.88 198.669L227.215 193.061L229.88 187.452C231.134 184.839 261.094 122.917 308.393 122.917C326.996 122.917 344.838 130.307 357.992 143.462C371.147 156.616 378.537 174.457 378.537 193.061C378.537 211.664 371.147 229.505 357.992 242.66C344.838 255.814 326.996 263.204 308.393 263.204ZM256.417 193.061C265.413 209.103 285.801 237.077 308.393 237.077C320.067 237.077 331.263 232.439 339.517 224.185C347.772 215.93 352.409 204.735 352.409 193.061C352.409 181.387 347.772 170.191 339.517 161.937C331.263 153.682 320.067 149.045 308.393 149.045C285.801 149.045 265.413 177.027 256.417 193.061Z" fill="url(#paint3_linear_1167_15961)"/>
<path style="mix-blend-mode:multiply" d="M280.488 224.1L263.993 244.279C255.541 236.67 248.048 228.06 241.68 218.639C248.926 208.11 256.407 193.087 256.407 193.087C261.432 202.005 269.985 214.659 280.488 224.1Z" fill="url(#paint4_linear_1167_15961)"/>
<path style="mix-blend-mode:multiply" d="M241.679 167.499C234.433 178.029 226.943 193.069 226.943 193.069C221.927 184.134 213.374 171.479 202.871 162.039L219.366 141.859C227.818 149.468 235.31 158.078 241.679 167.499Z" fill="url(#paint5_linear_1167_15961)"/>
<path style="mix-blend-mode:multiply" d="M317.539 136.46L308.394 149.044C295.713 149.044 283.721 157.867 274.054 168.448L260.633 144.934C273.287 132.854 289.451 122.926 308.394 122.926L317.539 136.46Z" fill="url(#paint6_linear_1167_15961)"/>
<path style="mix-blend-mode:multiply" d="M221.084 143.375L202.054 161.298C193.911 154.174 184.636 149.044 174.969 149.044L165.824 135.536L174.969 122.943C193.101 122.917 208.691 132.053 221.084 143.375Z" fill="url(#paint7_linear_1167_15961)"/>
<path style="mix-blend-mode:multiply" d="M184.112 249.67L174.967 263.213C157.093 263.229 139.893 256.39 126.91 244.105L140.087 219.885C144.193 225.234 149.474 229.568 155.522 232.551C161.571 235.533 168.224 237.085 174.967 237.085L184.112 249.67Z" fill="url(#paint8_linear_1167_15961)"/>
<path style="mix-blend-mode:multiply" d="M349.675 249.749C337.697 258.514 323.236 263.231 308.394 263.213L299.258 249.67L308.394 237.086C314.373 237.088 320.29 235.87 325.781 233.505C331.273 231.141 336.224 227.679 340.33 223.334L349.675 249.749Z" fill="url(#paint9_linear_1167_15961)"/>
<path d="M363.652 206.952C363.652 206.952 364.924 214.79 364.114 218.213C366.261 218.391 368.42 218.054 370.411 217.228C374.251 215.818 369.366 206.952 369.366 206.952" fill="#09085F"/>
<path d="M360.124 194.759C360.124 194.759 359.366 199.113 361.865 200.768L362.736 197.006" fill="#09085F"/>
<path d="M368.688 236.258L363.131 231.451L362.373 232.156L354.265 239.707L330.515 242.79C329.335 242.992 328.225 243.493 327.293 244.244C326.965 244.678 326.674 245.139 326.422 245.621C326.956 245.749 327.511 245.764 328.051 245.664L330.376 245.176L330.663 246.152C330.663 246.152 351.208 248.765 355.92 248.294H356.268C360.274 247.685 372.363 239.489 372.363 239.489L368.688 236.258Z" fill="#FF928A"/>
<path d="M378.067 214.433L369.566 216.784L369.192 215.731C369.253 215.05 369.276 214.367 369.262 213.684C369.214 212.078 368.921 210.489 368.391 208.972L371.273 207.23L374.853 203.416L378.067 214.433Z" fill="#FFA49A"/>
<path d="M369.262 213.675C369.214 212.069 368.921 210.48 368.391 208.963L371.273 207.222L372.223 206.978C372.223 206.978 372.318 211.559 369.262 213.675Z" fill="#FF8189"/>
<path d="M327.203 315.381L323.44 326.877L319.782 330.143L316.281 324.438L318.65 313.465L327.203 315.381Z" fill="#FFA49A"/>
<path d="M377.013 200.289C375.523 202.151 374.322 204.227 373.451 206.447C373.04 207.798 372.316 209.034 371.339 210.053C370.361 211.073 369.157 211.849 367.825 212.317C359.751 214.982 361.423 200.124 361.449 198.173C361.449 196.806 361.058 191.85 366.466 191.145C371.718 190.465 377.283 192.695 377.013 200.289Z" fill="#FFA49A"/>
<path d="M347.715 336.292H349.674L353.158 316.992H393.22L396.704 336.292H398.629L387.542 275.014C387.527 274.885 387.486 274.76 387.421 274.648C387.356 274.535 387.269 274.437 387.164 274.36C387.06 274.282 386.941 274.227 386.814 274.198C386.688 274.168 386.556 274.165 386.429 274.188C386.301 274.212 386.179 274.261 386.071 274.333C385.963 274.405 385.871 274.499 385.801 274.608C385.73 274.717 385.683 274.84 385.662 274.968C385.641 275.096 385.646 275.228 385.678 275.354L392.863 315.094H353.48L360.665 275.354C360.697 275.228 360.703 275.096 360.681 274.968C360.66 274.84 360.613 274.717 360.543 274.608C360.473 274.499 360.38 274.405 360.272 274.333C360.164 274.261 360.043 274.212 359.915 274.188C359.787 274.165 359.656 274.168 359.529 274.198C359.403 274.227 359.284 274.282 359.179 274.36C359.075 274.437 358.987 274.535 358.923 274.648C358.858 274.76 358.816 274.885 358.802 275.014L351.834 313.395L351.495 315.303L351.259 316.539L350.911 318.473L347.715 336.292Z" fill="#A6A6A6"/>
<path d="M357.939 277.113L338.892 280.727L326.447 318.682L316.91 316.069L326.49 273.533C326.975 271.81 327.875 270.232 329.111 268.937C330.346 267.642 331.881 266.669 333.58 266.104L353.611 259.442" fill="url(#paint10_linear_1167_15961)"/>
<path d="M337.543 311.148L338.614 315.172L340.913 323.559L341.253 325.623L345.076 326.076L348.046 322.166L347.158 311.915L347.071 310.878L337.543 311.148Z" fill="#FFA49A"/>
<path d="M382.907 255.854L374.328 253.668L361.622 257.36C357.816 258.231 351.293 258.876 341.591 260.983C341.591 260.983 327.395 262.647 327.656 274.657C327.656 276.164 335.712 313.465 335.712 313.465L347.234 311.723L345.379 276.625C352.616 277.182 370.392 278.193 377.69 275.249C389.448 270.529 382.907 255.854 382.907 255.854Z" fill="url(#paint11_linear_1167_15961)"/>
<path d="M377.474 212.491C377.474 212.491 382.882 218.718 384.345 226.425C385.486 232.478 383.753 240.874 383.518 246.3C383.309 251.107 383.378 251.795 383.997 254.73C384.302 256.159 384.868 258.214 383.997 259.181C383.439 258.44 370.611 257.761 361.605 257.343C361.605 257.343 363.582 252.779 363.635 250.445C363.748 245.638 362.154 235.831 362.276 231.181C362.407 226.391 363.835 225.015 365.498 222.567C366.873 220.363 368.101 218.07 369.174 215.704C372.184 215.422 375.058 214.309 377.474 212.491Z" fill="url(#paint12_linear_1167_15961)"/>
<path style="mix-blend-mode:multiply" opacity="0.5" d="M378.292 230.562C378.292 230.562 377.02 238.035 376.471 240.517L370.375 241.344L378.292 230.562Z" fill="url(#paint13_linear_1167_15961)"/>
<path d="M367.963 233.375L364.279 231.39C364.087 231.851 359.402 242.668 359.402 242.668C349.996 240.238 336.967 239.332 336.967 239.332C336.967 239.332 332.064 239.332 330.209 239.568C328.354 239.803 325.924 241.484 324.844 242.59C324.199 243.252 322.605 245.533 322.605 245.533C323.525 245.738 324.487 245.602 325.314 245.15C326.533 244.392 327.648 243.609 327.648 243.609L330.705 242.781C331.318 242.615 331.971 242.686 332.534 242.982C333.127 243.275 333.757 243.485 334.406 243.609C335.622 243.877 336.863 244.02 338.108 244.035C343.934 246.326 359.576 254.486 363.878 252.57C367.118 251.151 371.063 244.027 373.145 239.899C374.016 238.157 374.564 236.929 374.564 236.929L367.963 233.375Z" fill="#FFA49A"/>
<path d="M379.572 223.081C379.572 223.081 378.57 232.661 375.67 238.505C375.67 238.505 366.674 236.763 362.293 233.358C364.018 228.887 366.134 224.577 368.616 220.477" fill="url(#paint14_linear_1167_15961)"/>
<path d="M360.125 194.759C360.178 195.843 360.542 196.888 361.174 197.77C361.806 198.652 362.678 199.333 363.687 199.732C365.854 200.56 368.12 201.102 370.428 201.343C370.915 201.298 371.406 201.359 371.868 201.521C372.329 201.683 372.75 201.944 373.102 202.284C374.269 203.442 375.958 207.509 376.054 211.245C376.166 213.23 375.891 215.218 375.244 217.098C375.244 217.098 382.682 217.159 386.566 213.388C384.246 209.701 382.625 205.618 381.785 201.343C380.548 194.576 378.928 187.217 371.421 189.359C360.073 186.729 360.125 194.759 360.125 194.759Z" fill="#09085F"/>
<path d="M369.939 202.737C369.939 202.737 369.225 200.411 370.958 199.967C374.398 199.096 373.727 205.785 372.203 205.75C370.679 205.715 369.939 202.737 369.939 202.737Z" fill="#FFA49A"/>
<path d="M324.416 323.872C324.416 323.872 322.961 325.771 316.264 324.438C316.264 324.438 305.456 328.392 304.071 328.924C302.059 329.69 301.354 331.658 304.942 331.658H324.163C324.378 331.676 324.594 331.651 324.798 331.584C325.003 331.517 325.192 331.409 325.354 331.268C325.516 331.127 325.649 330.955 325.743 330.761C325.838 330.568 325.893 330.358 325.905 330.143C326.158 328.88 325.522 325.266 324.416 323.872Z" fill="#0E085D"/>
<path d="M346.486 247.902H283.371V252.196H346.486V247.902Z" fill="#A6A6A6"/>
<path d="M313.932 336.292H315.918V252.196H313.932V336.292Z" fill="#A6A6A6"/>
<path d="M336.629 336.283H293.249V334.785C293.249 333.951 293.58 333.151 294.169 332.562C294.759 331.972 295.559 331.641 296.393 331.641H333.485C334.319 331.641 335.118 331.972 335.708 332.562C336.298 333.151 336.629 333.951 336.629 334.785V336.283Z" fill="#32338F"/>
<path d="M308.602 331.658H321.012C321.012 331.222 320.839 330.803 320.53 330.495C320.221 330.186 319.803 330.012 319.366 330.012H310.248C309.811 330.012 309.392 330.186 309.084 330.495C308.775 330.803 308.602 331.222 308.602 331.658Z" fill="#32338F"/>
<path d="M361.378 203.407C361.378 203.407 360.507 207.553 360.829 208.014C361.152 208.476 362.728 207.962 362.728 207.962" fill="#FFA49A"/>
<path d="M347.88 320.293C348.58 321.337 349.186 322.442 349.691 323.593C350.431 325.335 349.917 328.819 346.861 330.718C344.683 332.059 343.377 335.786 342.001 336.291H330.836C330.836 336.291 327.892 334.236 334.476 331.937C337.759 329.646 340.912 323.602 340.912 323.602C341.303 323.973 341.792 324.225 342.322 324.327C342.851 324.428 343.399 324.377 343.899 324.177C348.045 322.54 347.88 320.293 347.88 320.293Z" fill="#0E085D"/>
<path d="M397.574 237.712C394.874 238.052 394.534 246.117 390.659 254.399C389.184 256.982 386.94 259.04 384.24 260.287C379.572 262.499 376.881 260.827 372.221 262.386C369.06 263.448 365.411 268.839 363.39 272.201C362.892 273.028 362.188 273.713 361.347 274.189C360.507 274.665 359.558 274.916 358.592 274.918C357.822 274.92 357.084 275.228 356.54 275.773C355.997 276.318 355.691 277.057 355.691 277.827C355.691 278.596 355.997 279.334 356.541 279.878C357.085 280.422 357.822 280.727 358.592 280.727H388.516C389.112 280.711 389.7 280.596 390.258 280.387C398.68 276.468 400.195 257.36 400.561 249.653C400.918 241.527 401.11 237.268 397.574 237.712Z" fill="#A6A6A6"/>
<path d="M342.818 246.004L314.356 245.342L304.689 218.431C304.642 218.296 304.569 218.172 304.475 218.066C304.38 217.96 304.265 217.873 304.137 217.812C304.009 217.75 303.87 217.714 303.728 217.706C303.585 217.698 303.443 217.717 303.309 217.764C303.174 217.811 303.051 217.884 302.944 217.979C302.838 218.074 302.752 218.188 302.69 218.317C302.628 218.445 302.592 218.584 302.584 218.726C302.576 218.868 302.596 219.01 302.643 219.145L311.63 247.885H344.664C344.66 247.393 344.465 246.923 344.121 246.572C343.776 246.221 343.309 246.017 342.818 246.004Z" fill="#455A64"/>
<path d="M294.05 231.503C290 236.397 294.05 240.308 294.05 240.308C294.05 240.308 298.091 236.397 294.05 231.503Z" fill="white"/>
<path d="M290.667 232.208C288.821 238.305 294.064 240.334 294.064 240.334C294.064 240.334 296.285 235.135 290.667 232.208Z" fill="white"/>
<path d="M297.419 232.208C299.265 238.305 294.022 240.334 294.022 240.334C294.022 240.334 291.827 235.135 297.419 232.208Z" fill="white"/>
<path d="M300.317 234.124C299.673 240.447 294.047 240.308 294.047 240.308C294.047 240.308 293.995 234.682 300.317 234.124Z" fill="white"/>
<path d="M287.77 234.124C288.414 240.447 294.049 240.308 294.049 240.308C294.049 240.308 294.092 234.682 287.77 234.124Z" fill="white"/>
<path d="M297.812 247.894H290.278L289.016 238.923H299.075L297.812 247.894Z" fill="#455A64"/>
<path d="M189.425 302.335C190.628 302.82 191.896 303.128 193.187 303.249L194.659 299.199L188.563 295.062C188.563 295.062 187.735 298.929 187.405 300.427C187.344 300.427 187.509 301.551 189.425 302.335Z" fill="#EF9795"/>
<path d="M199.004 310.713C197.852 309.861 196.632 309.107 195.355 308.457C193.456 306.132 193.613 303.824 193.117 303.232C191.844 302.981 190.598 302.608 189.398 302.117C187.517 301.333 187.308 300.375 187.308 300.375C185.218 301.653 183.608 303.585 182.727 305.87C182.727 305.87 189.981 311.967 192.028 313.604H199.736C199.911 313.104 199.935 312.563 199.805 312.048C199.675 311.534 199.397 311.07 199.004 310.713Z" fill="#222842"/>
<path d="M230.306 307.255C230.306 307.255 231.491 308.013 234.443 307.787C235.398 307.674 236.343 307.496 237.274 307.255C238.36 307.769 239.473 308.223 240.609 308.614C242.525 309.285 245.06 309.973 246.906 311.227C247.29 311.488 247.596 311.849 247.791 312.271C247.986 312.693 248.063 313.16 248.012 313.622H229.392C229.392 313.622 227.624 310.652 230.306 307.255Z" fill="#222842"/>
<path d="M229.992 302.256C230.184 304.294 230.306 307.255 230.306 307.255C232.57 308.866 237.273 307.255 237.273 307.255C237.273 307.255 237.43 304.033 237.56 302.108L229.992 302.256Z" fill="#EF9795"/>
<path d="M278.498 113.45L196.876 120.806C193.527 121.108 191.057 124.067 191.359 127.416L193.039 146.056C193.341 149.405 196.3 151.875 199.649 151.573L281.271 144.216C284.62 143.915 287.09 140.955 286.788 137.607L285.108 118.966C284.806 115.618 281.847 113.148 278.498 113.45Z" fill="url(#paint15_linear_1167_15961)"/>
<path d="M220.656 139.386C220.816 141.164 220.264 142.933 219.121 144.304C217.978 145.676 216.337 146.538 214.56 146.702L205.85 147.494C204.196 147.642 202.55 147.127 201.275 146.062C200 144.997 199.199 143.47 199.049 141.816L198.021 130.372C197.873 128.717 198.388 127.072 199.453 125.796C200.518 124.521 202.045 123.72 203.699 123.57L212.792 122.76C213.629 122.68 214.475 122.766 215.279 123.013C216.083 123.261 216.83 123.665 217.478 124.203C218.126 124.74 218.66 125.4 219.052 126.145C219.443 126.89 219.684 127.705 219.759 128.543L220.656 139.386Z" fill="url(#paint16_linear_1167_15961)"/>
<path d="M227.639 124.214C227.44 124.204 227.252 124.12 227.111 123.979C226.971 123.837 226.888 123.648 226.88 123.449C226.871 123.25 226.937 123.055 227.064 122.902C227.192 122.748 227.372 122.648 227.57 122.621L278.344 118.118C278.451 118.103 278.561 118.11 278.666 118.138C278.77 118.166 278.868 118.215 278.953 118.283C279.038 118.35 279.109 118.434 279.161 118.529C279.212 118.624 279.244 118.729 279.254 118.837C279.264 118.945 279.252 119.054 279.219 119.157C279.186 119.261 279.132 119.356 279.06 119.438C278.989 119.52 278.902 119.586 278.804 119.633C278.707 119.68 278.6 119.707 278.492 119.712L227.744 124.214H227.639Z" fill="url(#paint17_linear_1167_15961)"/>
<path d="M227.999 128.264C227.8 128.265 227.609 128.191 227.462 128.057C227.315 127.924 227.224 127.739 227.206 127.541C227.187 127.33 227.252 127.12 227.388 126.957C227.523 126.793 227.718 126.69 227.929 126.671L278.713 122.098C278.917 122.092 279.116 122.164 279.269 122.3C279.422 122.436 279.517 122.626 279.535 122.829C279.553 123.033 279.492 123.236 279.365 123.396C279.238 123.557 279.054 123.663 278.852 123.692L228.077 128.264H227.999Z" fill="url(#paint18_linear_1167_15961)"/>
<path d="M228.362 132.279C228.163 132.28 227.971 132.206 227.824 132.072C227.678 131.938 227.587 131.754 227.569 131.556C227.552 131.346 227.618 131.136 227.753 130.974C227.888 130.811 228.082 130.708 228.292 130.685L279.075 126.113C279.28 126.107 279.479 126.179 279.632 126.315C279.784 126.451 279.879 126.64 279.897 126.844C279.915 127.048 279.854 127.251 279.727 127.411C279.6 127.572 279.417 127.677 279.214 127.707L228.44 132.279H228.362Z" fill="url(#paint19_linear_1167_15961)"/>
<path d="M228.73 136.303C228.53 136.304 228.337 136.23 228.189 136.097C228.041 135.963 227.948 135.779 227.928 135.58C227.911 135.369 227.977 135.16 228.113 134.997C228.248 134.835 228.441 134.731 228.651 134.709L279.435 130.137C279.542 130.122 279.651 130.128 279.756 130.157C279.861 130.185 279.959 130.234 280.044 130.301C280.129 130.369 280.199 130.453 280.251 130.548C280.303 130.643 280.335 130.748 280.345 130.856C280.355 130.964 280.343 131.073 280.309 131.176C280.276 131.279 280.222 131.375 280.151 131.457C280.08 131.538 279.993 131.605 279.895 131.652C279.797 131.699 279.691 131.726 279.583 131.731L228.799 136.303H228.73Z" fill="url(#paint20_linear_1167_15961)"/>
<path d="M229.085 140.318C228.886 140.319 228.695 140.245 228.548 140.111C228.401 139.977 228.31 139.793 228.292 139.595C228.273 139.384 228.338 139.173 228.474 139.01C228.609 138.847 228.804 138.744 229.015 138.724L279.79 134.152C279.897 134.137 280.007 134.143 280.111 134.172C280.216 134.2 280.314 134.249 280.399 134.316C280.484 134.384 280.555 134.467 280.606 134.563C280.658 134.658 280.69 134.763 280.7 134.871C280.71 134.979 280.698 135.088 280.665 135.191C280.631 135.294 280.577 135.39 280.506 135.471C280.435 135.553 280.348 135.62 280.25 135.667C280.152 135.714 280.046 135.741 279.938 135.745L229.155 140.318H229.085Z" fill="url(#paint21_linear_1167_15961)"/>
<path d="M229.485 144.342C229.285 144.342 229.092 144.267 228.945 144.131C228.798 143.996 228.708 143.809 228.693 143.61C228.681 143.505 228.69 143.399 228.72 143.297C228.75 143.196 228.801 143.102 228.868 143.02C228.936 142.939 229.019 142.872 229.113 142.824C229.207 142.775 229.31 142.747 229.415 142.739L280.19 138.158C280.297 138.143 280.407 138.15 280.511 138.178C280.616 138.206 280.714 138.256 280.799 138.323C280.884 138.39 280.955 138.474 281.006 138.569C281.058 138.664 281.09 138.769 281.1 138.877C281.11 138.985 281.098 139.094 281.065 139.197C281.031 139.301 280.978 139.396 280.906 139.478C280.835 139.56 280.748 139.626 280.65 139.673C280.553 139.72 280.446 139.747 280.338 139.752L229.485 144.333V144.342Z" fill="url(#paint22_linear_1167_15961)"/>
<path d="M237.385 152.084C237.385 151.675 238.065 150.603 238.143 149.854C238.221 149.105 238.317 148.113 238.317 148.113L237.533 148.182H237.237L236.366 145.953C236.366 145.953 236.122 144.638 236.027 143.671C235.931 142.704 234.929 142.373 234.868 142.8C234.868 142.965 234.868 143.54 234.868 143.802C234.825 143.497 234.781 143.201 234.755 142.931C234.668 141.964 233.449 141.563 233.388 142.007C233.362 142.454 233.362 142.902 233.388 143.349C233.074 142.652 232.168 142.408 232.116 142.791C232.063 143.388 232.049 143.987 232.073 144.585C231.838 143.941 231.271 143.767 231.202 144.254C231.132 144.742 230.705 146.083 230.932 146.702C231.129 147.369 231.395 148.014 231.724 148.626C232.309 149.486 232.816 150.395 233.24 151.344C233.405 151.91 229.242 162.422 229.242 162.422C231.328 162.765 233.435 162.971 235.548 163.04C235.548 163.04 237.385 152.476 237.385 152.084Z" fill="#FF928A"/>
<path d="M236.749 205.689L225.767 205.924L211.1 202.919L205.004 200.89C206.336 199.148 207.843 194.141 208.853 190.291C209.594 187.522 210.073 185.344 210.073 185.344L221.09 184.169L226.376 183.594C226.376 183.594 233.344 182.618 234.929 186.416C235.173 187.032 235.277 187.696 235.233 188.358C235.173 190.392 235.237 192.428 235.425 194.454C235.834 199.915 236.749 205.689 236.749 205.689Z" fill="#FFA49A"/>
<path d="M236.75 205.689L235.714 197.746C235.714 197.746 232.282 199.322 224.871 199.087C217.764 198.861 209.761 197.215 207.357 195.403C204.256 197.885 200.816 203.546 201.443 211.846C201.826 216.898 202.271 221.958 201.661 226.992C200.459 236.868 199.919 248.555 199.553 250.95C195.016 260.531 187.273 298.851 187.273 298.851C187.273 298.851 191.01 301.176 194.746 301.159C194.746 301.159 208.472 268.813 212.957 254.765C214.342 250.41 215.909 245.185 217.407 239.515C218.905 233.846 220.368 227.932 221.509 222.184C222.754 216.341 223.535 210.409 223.843 204.443C227.188 205.314 229.644 205.968 229.783 205.95C230.262 205.837 236.75 205.689 236.75 205.689Z" fill="black"/>
<path style="mix-blend-mode:multiply" opacity="0.5" d="M221.51 222.158C220.369 227.906 218.897 233.872 217.408 239.489C214.522 230.559 212.71 221.318 212.008 211.959C212.008 211.959 218.749 219.475 221.51 222.158Z" fill="url(#paint23_linear_1167_15961)"/>
<path d="M237.71 304.242C235.115 304.776 232.432 304.702 229.871 304.024C229.871 304.024 224.742 264.406 225.795 252.64C225.795 252.64 219.647 236.189 215.519 223.395C214.726 220.948 213.359 216.253 212.801 214.207C211.542 209.823 211.787 205.144 213.498 200.917L236.778 205.715C237.736 214.642 240.601 242.128 240.767 254.774C240.949 269.954 237.71 304.242 237.71 304.242Z" fill="black"/>
<path d="M231.543 151.317C230.575 151.613 229.553 151.688 228.553 151.537C227.552 151.386 226.598 151.014 225.76 150.447C222.886 148.47 225.812 144.751 225.812 144.751H231.142L231.012 145.735C230.982 146.315 230.982 146.896 231.012 147.477C231.001 148.776 231.18 150.07 231.543 151.317Z" fill="#FFA49A"/>
<path d="M231.01 145.77C230.981 146.35 230.981 146.931 231.01 147.512C229.649 147.359 228.343 146.891 227.195 146.144C227.195 146.144 229.172 145.674 229.808 144.777H231.149L231.01 145.77Z" fill="#FF8189"/>
<path d="M231.541 151.317C231.541 151.317 235.077 156.282 236.418 160.767C237.847 165.513 234.999 184.708 235.19 189.403C226.618 190.933 217.799 190.314 209.525 187.6C210.114 182.596 209.795 177.528 208.584 172.638C207.086 166.384 208.697 156.36 210.117 153.477C211.536 150.595 224.504 150.185 224.504 150.185C226.698 151.213 229.136 151.605 231.541 151.317Z" fill="#407BFF"/>
<path d="M258.174 146.945L257.843 145.595C257.843 145.595 257.782 144.829 257.765 143.618C257.765 142.251 257.042 141.955 256.755 142.068V141.911C256.946 140.718 256.145 140.17 255.884 140.318C255.818 140.378 255.767 140.452 255.736 140.535C255.805 139.116 255.004 138.855 254.725 138.968C254.328 139.799 254.035 140.677 253.854 141.581C253.857 141.405 253.843 141.23 253.811 141.058C253.654 140.431 253.14 140.318 252.809 141.058C252.377 142.071 252.084 143.137 251.938 144.228C251.938 144.768 252.174 146.841 252.174 146.841L250.71 146.972C251.084 147.804 251.413 148.656 251.695 149.523C251.825 150.142 252.182 151.927 252.182 151.927C251.259 154.392 249.099 159.4 247.314 163.301C245.015 168.318 243.09 172.725 243.09 172.725L249.186 179.1C251.738 175.546 252.435 172.202 253.854 166.036C255.039 160.924 256.511 154.427 256.885 152.545C257.536 151.485 258.029 150.335 258.348 149.131C258.458 148.399 258.398 147.651 258.174 146.945Z" fill="#FFA49A"/>
<path d="M243.979 166.576C243.979 166.576 249.353 175.424 249.832 176.504C250.311 177.584 248.961 181.486 244.049 180.397C239.842 179.466 235.191 171.889 235.191 171.889L243.979 166.576Z" fill="#FFA49A"/>
<path d="M233.544 153.591C235.551 154.763 237.323 156.299 238.769 158.119C241.029 161.148 243.045 164.351 244.796 167.699C241.693 170.466 238.198 172.759 234.423 174.501C234.423 174.501 227.804 166.367 226.411 161.281C225.017 156.195 230.13 151.875 233.544 153.591Z" fill="#407BFF"/>
<path d="M233.057 130.119C234.4 132.859 235.375 135.764 235.957 138.759C236.154 139.923 236.022 141.12 235.574 142.213C235.126 143.306 234.381 144.251 233.423 144.942C232.721 145.45 231.975 145.893 231.193 146.266C230.141 146.776 228.956 146.944 227.804 146.747C226.651 146.551 225.589 145.999 224.766 145.169C223.575 143.943 222.574 142.546 221.796 141.023C217.502 132.863 226.874 123.779 233.057 130.119Z" fill="#FFA49A"/>
<path d="M232.465 124.215C231.603 122.97 230.349 122.05 228.903 121.602C224.984 120.618 220.96 122.421 218.208 124.946C217.277 125.836 216.297 126.674 215.273 127.454C213.377 128.922 211.862 130.825 210.858 133.002C208.245 138.776 212.443 143.654 211.38 145.448C210.318 147.242 206.076 147.564 205.771 151.257C205.467 154.949 207.13 155.829 205.771 159.347C203.85 161.567 202.49 164.217 201.809 167.073C199.806 176.296 209.647 178.516 213.914 175.956C218.182 173.395 220.803 174.859 222.955 174.005C233.205 169.955 226.691 151.518 226.917 147.007C226.917 146.188 226.917 145.265 226.917 144.272C226.932 142.484 227.314 140.718 228.039 139.084C228.764 137.449 229.817 135.981 231.133 134.77C233.493 132.541 235.104 128.77 232.465 124.215Z" fill="url(#paint24_linear_1167_15961)"/>
<path d="M229.906 138.846C229.392 137.2 227.485 136.172 226.57 137.679C225.656 139.185 226.414 143.026 228.147 143.113C229.88 143.2 231.047 142.504 229.906 138.846Z" fill="#FFA49A"/>
<path d="M184.66 319.274V336.727" stroke="black" stroke-miterlimit="10"/>
<path d="M246.906 319.274V336.727" stroke="black" stroke-miterlimit="10"/>
<path d="M256.502 313.648H175.062V319.274H256.502V313.648Z" fill="#455A64"/>
<path d="M429.588 165.383H400.194C395.485 165.383 391.668 169.2 391.668 173.909V188.802C391.668 193.511 395.485 197.328 400.194 197.328H429.588C434.297 197.328 438.114 193.511 438.114 188.802V173.909C438.114 169.2 434.297 165.383 429.588 165.383Z" fill="white"/>
<path d="M429.59 197.772H400.188C397.812 197.77 395.534 196.825 393.854 195.145C392.174 193.465 391.229 191.187 391.227 188.81V173.909C391.229 171.533 392.174 169.255 393.854 167.575C395.534 165.894 397.812 164.95 400.188 164.947H429.582C431.957 164.952 434.234 165.898 435.914 167.577C437.593 169.257 438.539 171.534 438.544 173.909V188.81C438.539 191.184 437.594 193.46 435.917 195.139C434.239 196.819 431.964 197.765 429.59 197.772ZM400.188 165.818C398.043 165.82 395.987 166.674 394.47 168.19C392.953 169.707 392.1 171.764 392.097 173.909V188.81C392.1 190.956 392.953 193.012 394.47 194.529C395.987 196.046 398.043 196.899 400.188 196.901H429.582C431.727 196.899 433.783 196.046 435.3 194.529C436.817 193.012 437.67 190.956 437.673 188.81V173.909C437.67 171.764 436.817 169.707 435.3 168.19C433.783 166.674 431.727 165.82 429.582 165.818H400.188Z" fill="#407BFF"/>
<path d="M409.82 196.056C409.686 196.055 409.554 196.032 409.428 195.987C409.29 195.935 409.163 195.857 409.054 195.757C408.946 195.656 408.859 195.535 408.797 195.401C408.736 195.267 408.701 195.122 408.696 194.974C408.691 194.827 408.714 194.679 408.766 194.541L418.912 167.395C419.016 167.115 419.227 166.888 419.498 166.764C419.769 166.64 420.078 166.629 420.358 166.733C420.637 166.837 420.864 167.047 420.988 167.318C421.112 167.59 421.124 167.899 421.02 168.178L410.865 195.325C410.787 195.539 410.644 195.724 410.457 195.855C410.271 195.986 410.048 196.056 409.82 196.056Z" fill="#407BFF"/>
<path d="M405.675 191.362C405.503 191.365 405.333 191.332 405.174 191.266C405.015 191.2 404.872 191.102 404.752 190.979L397.227 183.437C396.679 182.888 396.371 182.144 396.371 181.369C396.371 180.593 396.679 179.849 397.227 179.3L404.909 171.619C405.154 171.373 405.486 171.234 405.833 171.233C406.18 171.232 406.514 171.369 406.76 171.614C407.006 171.859 407.144 172.192 407.145 172.539C407.146 172.886 407.009 173.219 406.764 173.465L399.074 181.146C399.045 181.175 399.022 181.209 399.006 181.246C398.99 181.283 398.982 181.324 398.982 181.364C398.982 181.405 398.99 181.445 399.006 181.482C399.022 181.52 399.045 181.554 399.074 181.582L406.598 189.107C406.721 189.227 406.818 189.371 406.884 189.53C406.95 189.688 406.984 189.858 406.984 190.03C406.984 190.202 406.95 190.372 406.884 190.53C406.818 190.689 406.721 190.832 406.598 190.953C406.48 191.08 406.338 191.182 406.179 191.253C406.02 191.323 405.849 191.36 405.675 191.362Z" fill="#407BFF"/>
<path d="M423.946 191.362C423.774 191.364 423.604 191.33 423.445 191.265C423.286 191.199 423.143 191.102 423.022 190.979C422.9 190.858 422.803 190.715 422.737 190.556C422.671 190.398 422.637 190.228 422.637 190.056C422.637 189.884 422.671 189.714 422.737 189.556C422.803 189.397 422.9 189.254 423.022 189.133L430.704 181.451C430.733 181.423 430.756 181.389 430.772 181.352C430.787 181.314 430.795 181.274 430.795 181.234C430.795 181.193 430.787 181.153 430.772 181.116C430.756 181.078 430.733 181.044 430.704 181.016L423.188 173.491C422.957 173.244 422.831 172.916 422.837 172.578C422.843 172.239 422.981 171.916 423.22 171.677C423.459 171.437 423.782 171.3 424.121 171.294C424.459 171.288 424.787 171.414 425.034 171.645L432.559 179.161C433.107 179.71 433.415 180.454 433.415 181.229C433.415 182.005 433.107 182.749 432.559 183.298L424.869 190.979C424.749 191.103 424.605 191.2 424.447 191.266C424.288 191.332 424.117 191.365 423.946 191.362Z" fill="#407BFF"/>
<path d="M85.5428 321.782L85.2031 330.039C85.2031 330.039 88.7826 331.554 91.587 330.039L92.8759 322.035" fill="#FFA49A"/>
<path d="M53.7008 319.074L51.6367 328.88C51.6367 328.88 55.6081 330.831 58.7173 329.49L61.2778 321.329" fill="#FFA49A"/>
<path d="M84.0434 336.335H101.462C101.511 336.335 101.56 336.324 101.605 336.302C101.649 336.281 101.689 336.25 101.72 336.212C101.752 336.174 101.775 336.129 101.787 336.081C101.8 336.033 101.802 335.983 101.793 335.935C101.636 335.221 100.608 334.08 98.6312 333.052C96.6543 332.024 91.5333 330.039 91.5333 330.039C89.4202 330.395 87.2625 330.395 85.1494 330.039C84.5081 330.742 84.0846 331.616 83.9301 332.556C83.8291 333.816 83.867 335.083 84.0434 336.335Z" fill="black"/>
<path d="M70.4731 222.942C70.4731 222.942 64.2721 242.05 62.1993 258.945C60.1266 275.841 60.9017 271.913 60.2137 276.251C59.5953 280.161 58.106 285.831 56.2858 293.93C54.2217 303.171 51.9922 324.726 51.9922 324.726C54.6406 325.593 57.4424 325.889 60.2137 325.597C60.2137 325.597 70.2466 299.818 71.6488 292.563C72.5118 288.171 73.0936 283.729 73.3906 279.264C73.3906 279.264 81.1418 261.994 84.1203 250.976L85.7141 250.524L86.1757 280.344C84.764 285.972 83.8001 291.703 83.293 297.484C82.5701 306.497 84.9913 325.867 84.9913 325.867C84.9913 325.867 90.7132 327.609 92.6553 326.259C92.6553 326.259 99.7882 290.708 101.042 279.499C102.183 269.266 104.308 249.322 104.526 245.063C105.397 230.083 103.254 223.682 103.254 223.682L70.4731 222.942Z" fill="black"/>
<path d="M58.7875 329.185C56.3975 329.448 53.9794 329.268 51.6547 328.654L51.2193 330.039C51.2193 330.039 47.9533 331.145 46.7079 332.495C44.8529 334.541 45.7238 336.335 45.7238 336.335H59.2404C59.9967 333.98 59.8349 331.426 58.7875 329.185Z" fill="black"/>
<path d="M112.853 217.725C112.853 217.725 106.06 218.596 102.202 218.195C97.7252 217.681 101.879 213.431 101.879 213.431L112.374 215.957L112.853 217.725Z" fill="#FFA49A"/>
<path d="M102.777 198.565C103.465 198.399 104.136 198.225 104.763 198.034C111.269 196.126 113.072 193.844 113.072 193.844C108.987 182.392 106.4 179.823 104.493 177.715C101.009 173.831 103.622 186.241 104.04 186.424L102.777 198.565Z" fill="#407BFF"/>
<path style="mix-blend-mode:multiply" d="M104.198 187.234L105.696 194.158L102.082 193.252L104.198 187.234Z" fill="url(#paint25_linear_1167_15961)"/>
<path d="M71.5462 217.751C71.3285 219.606 68.9944 223.229 69.0118 225.354C69.0118 225.868 70.7536 228.045 75.2215 228.838C75.2215 228.838 83.1555 230.736 94.9739 229.134C97.7173 228.76 102.864 227.688 103.936 226.774C104.676 226.138 102.96 220.338 102.699 216.636C102.081 208.058 103.57 206.09 103.674 198.748C103.674 198.565 103.674 198.382 103.674 198.19C103.866 186.868 105.016 181.207 104.484 177.715C101.872 174.78 94.6168 172.49 94.1552 172.385C94.1552 172.385 86.5347 172.324 84.8799 172.385C81.0827 173.36 74.368 175.372 71.0236 181.094C71.2065 185.64 70.9191 191.162 71.4678 198.251C71.5723 199.288 72.5042 209.861 71.5462 217.751Z" fill="#407BFF"/>
<path d="M101.775 154.949C101.775 154.949 102.35 158.894 100.512 159.617L99.7891 155.263" fill="#192139"/>
<path d="M92.1952 177.994C96.6369 177.463 94.6425 172.925 94.1722 172.324C94.1722 172.324 93.4319 167.499 93.3709 167.264L85.7852 163.981C85.7852 163.981 85.611 172.22 84.8533 172.333C83.7386 172.873 85.2714 178.821 92.1952 177.994Z" fill="#FFA49A"/>
<path style="mix-blend-mode:multiply" d="M88.4414 166.724C88.9825 167.808 89.7592 168.757 90.7146 169.501C91.67 170.246 92.78 170.767 93.963 171.026L93.3621 167.273L88.4414 166.724Z" fill="url(#paint26_linear_1167_15961)"/>
<path d="M100.869 154.766C100.869 154.766 102.611 167.769 96.8457 169.903C96.8457 169.903 91.1325 170.434 87.8056 165.958C86.8475 164.669 85.637 164.381 85.2363 162.822C84.6006 160.297 83.6948 155.628 84.8444 152.815C86.4992 148.809 100.721 145.012 100.869 154.766Z" fill="#FFA49A"/>
<path d="M97.045 145.639C97.045 145.639 95.7038 142.547 91.593 144.011C89.8668 144.626 88.3549 145.727 87.2385 147.181C87.0668 147.051 86.8691 146.961 86.659 146.916C86.4489 146.87 86.2314 146.871 86.0218 146.919C85.8121 146.966 85.6152 147.058 85.4448 147.189C85.2744 147.32 85.1346 147.487 85.035 147.677C84.347 148.609 84.7912 150.595 84.7912 150.595C77.9545 151.849 84.8608 166.376 84.9392 166.846L85.6708 167.273C85.8624 165.148 85.8014 163.206 85.9234 161.716C85.9669 161.272 86.6724 161.011 86.8378 160.697C88.1878 160.915 89.5115 160.898 90.2692 160.253C91.6105 159.112 91.8804 157.24 92.0111 155.977C93.2826 156.404 103.725 158.05 103.211 152.093C103.501 151.505 103.711 150.881 103.838 150.238C105.075 142.844 97.045 145.639 97.045 145.639Z" fill="#192139"/>
<path d="M88.1813 163.536C85.5686 164.529 84.7847 158.163 87.2494 157.875C89.1132 157.658 89.1829 160.262 89.1829 160.262C89.1829 160.262 89.6619 162.97 88.1813 163.536Z" fill="#FFA49A"/>
<path style="mix-blend-mode:multiply" d="M81.8677 189.76L78.8978 199.575L72.8711 200.42L81.8677 189.76Z" fill="url(#paint27_linear_1167_15961)"/>
<path d="M62.5406 201.247C64.5073 195.69 66.8018 190.255 69.4122 184.97L79.48 190.744C79.48 190.744 75.6305 198.425 73.0787 203.808C75.5434 204.409 81.9011 206.002 86.7608 207.57C90.6348 208.801 94.6191 209.652 98.6576 210.113C98.492 211.317 98.4048 212.53 98.3963 213.745C89.9402 214.136 81.4697 214.096 73.0178 213.623C70.4473 213.544 67.8926 213.191 65.3972 212.569C63.0458 211.759 61.4433 211.123 61.3301 208.659C61.2963 206.136 61.706 203.628 62.5406 201.247Z" fill="#FFA49A"/>
<path d="M86.8482 216.636H100.783V215.269H86.8482C86.7578 215.269 86.6684 215.287 86.5849 215.321C86.5014 215.356 86.4256 215.407 86.3617 215.471C86.2978 215.534 86.2471 215.61 86.2125 215.694C86.178 215.777 86.1602 215.867 86.1602 215.957C86.1601 216.047 86.178 216.136 86.2127 216.219C86.2474 216.302 86.2982 216.377 86.3622 216.441C86.4262 216.504 86.5021 216.554 86.5856 216.587C86.669 216.621 86.7582 216.638 86.8482 216.636Z" fill="#C7C7C7"/>
<path d="M94.3902 216.636H127.729C127.928 216.631 128.119 216.562 128.276 216.44C128.433 216.318 128.546 216.148 128.6 215.957L135.75 190.222C135.792 190.088 135.802 189.946 135.777 189.808C135.753 189.67 135.695 189.539 135.61 189.428C135.524 189.317 135.413 189.228 135.286 189.169C135.159 189.11 135.019 189.083 134.879 189.089H102.734C102.35 189.087 101.977 189.211 101.672 189.443C101.366 189.674 101.146 190 101.044 190.37L93.9199 216.009C93.8999 216.082 93.897 216.159 93.9111 216.233C93.9253 216.307 93.9563 216.377 94.0016 216.438C94.047 216.498 94.1056 216.548 94.1729 216.582C94.2403 216.617 94.3146 216.635 94.3902 216.636Z" fill="#C7C7C7"/>
<path d="M95.6531 216.636H128.992C129.191 216.632 129.383 216.564 129.54 216.441C129.697 216.319 129.81 216.149 129.863 215.957L137.013 190.222C137.055 190.088 137.064 189.946 137.04 189.808C137.016 189.67 136.958 189.539 136.873 189.428C136.787 189.317 136.676 189.228 136.549 189.169C136.422 189.11 136.282 189.083 136.142 189.089H103.918C103.548 189.112 103.195 189.251 102.91 189.487C102.625 189.724 102.423 190.045 102.333 190.404L95.2089 216.044C95.1952 216.113 95.196 216.183 95.2115 216.252C95.2269 216.32 95.2566 216.384 95.2985 216.44C95.3404 216.496 95.3937 216.542 95.4548 216.576C95.5159 216.61 95.5835 216.63 95.6531 216.636Z" fill="#455A64"/>
<path d="M125.082 216.636C125.082 216.636 124.507 217.925 121.895 218.195L122.069 216.636H125.082Z" fill="#FFA49A"/>
<path d="M124.471 212.264C124.419 212.021 123.827 211.751 123.357 211.907C123.497 211.546 123.617 211.177 123.714 210.801C123.661 210.122 122.999 210.209 122.625 210.418C122.251 210.627 121.676 211.794 121.545 211.916C121.69 211.64 121.801 211.348 121.876 211.045C121.804 210.919 121.705 210.81 121.587 210.727C121.468 210.643 121.333 210.586 121.19 210.56C121.047 210.535 120.901 210.541 120.76 210.578C120.62 210.615 120.489 210.682 120.378 210.775C119.918 211.369 119.505 211.998 119.141 212.656C119.18 212.526 119.207 212.391 119.22 212.256C119.124 211.846 118.349 211.698 117.844 212.169C117.103 213.149 116.491 214.22 116.023 215.356C115.536 216.462 115.074 216.602 114.935 216.602H112.191C112.287 216.97 112.475 217.307 112.737 217.583C112.999 217.859 113.327 218.063 113.689 218.178C115.565 218.698 117.512 218.91 119.455 218.805C120.12 218.829 120.782 218.696 121.387 218.418C121.992 218.14 122.524 217.723 122.939 217.202C123.343 216.192 123.669 215.153 123.914 214.093C124.01 213.745 124.48 212.308 124.471 212.264Z" fill="#FFA49A"/>
<path d="M71.033 181.068C71.033 181.068 68.8121 183.846 64.832 193.496C68.9932 195.804 73.4756 197.477 78.1309 198.46C78.1309 198.46 79.6638 195.36 83.2607 186.267" fill="#407BFF"/>
<path d="M71.3906 125.181C71.3929 127.386 72.2699 129.501 73.8292 131.06C75.3885 132.619 77.5027 133.496 79.7079 133.499H122.365C124.571 133.499 126.687 132.622 128.247 131.062C129.806 129.503 130.683 127.387 130.683 125.181C130.683 122.975 129.806 120.86 128.247 119.3C126.687 117.74 124.571 116.864 122.365 116.864H79.6905C77.4883 116.871 75.3786 117.75 73.8231 119.309C72.2675 120.868 71.3929 122.979 71.3906 125.181Z" fill="white"/>
<path d="M121.729 122.246H85.7248C85.4777 122.246 85.2407 122.148 85.0659 121.973C84.8912 121.799 84.793 121.562 84.793 121.314C84.793 121.067 84.8912 120.83 85.0659 120.656C85.2407 120.481 85.4777 120.383 85.7248 120.383H121.729C121.976 120.383 122.213 120.481 122.388 120.656C122.562 120.83 122.66 121.067 122.66 121.314C122.66 121.562 122.562 121.799 122.388 121.973C122.213 122.148 121.976 122.246 121.729 122.246Z" fill="#407BFF"/>
<path d="M108.151 126.131H85.7248C85.4777 126.131 85.2407 126.032 85.0659 125.858C84.8912 125.683 84.793 125.446 84.793 125.199C84.793 124.952 84.8912 124.715 85.0659 124.54C85.2407 124.365 85.4777 124.267 85.7248 124.267H108.151C108.398 124.267 108.635 124.365 108.81 124.54C108.985 124.715 109.083 124.952 109.083 125.199C109.083 125.446 108.985 125.683 108.81 125.858C108.635 126.032 108.398 126.131 108.151 126.131Z" fill="#407BFF"/>
<path d="M121.727 126.131H112.147C111.9 126.131 111.663 126.032 111.488 125.858C111.313 125.683 111.215 125.446 111.215 125.199C111.215 124.952 111.313 124.715 111.488 124.54C111.663 124.365 111.9 124.267 112.147 124.267H121.727C121.974 124.267 122.211 124.365 122.386 124.54C122.561 124.715 122.659 124.952 122.659 125.199C122.659 125.446 122.561 125.683 122.386 125.858C122.211 126.032 121.974 126.131 121.727 126.131Z" fill="#407BFF"/>
<path d="M102.795 130.024H85.7248C85.4777 130.024 85.2407 129.925 85.0659 129.751C84.8912 129.576 84.793 129.339 84.793 129.092C84.793 128.845 84.8912 128.608 85.0659 128.433C85.2407 128.258 85.4777 128.16 85.7248 128.16H102.795C103.042 128.16 103.279 128.258 103.454 128.433C103.629 128.608 103.727 128.845 103.727 129.092C103.727 129.339 103.629 129.576 103.454 129.751C103.279 129.925 103.042 130.024 102.795 130.024Z" fill="#407BFF"/>
<path d="M82.3794 121.314C82.3794 121.498 82.3251 121.677 82.2235 121.83C82.1218 121.983 81.9773 122.102 81.808 122.173C81.6388 122.244 81.4523 122.264 81.272 122.229C81.0917 122.195 80.9257 122.108 80.7947 121.979C80.6637 121.851 80.5736 121.686 80.5357 121.507C80.4978 121.327 80.5138 121.14 80.5817 120.97C80.6495 120.799 80.7663 120.652 80.9172 120.548C81.0681 120.443 81.2466 120.386 81.4301 120.382C81.5542 120.379 81.6778 120.4 81.7934 120.446C81.9091 120.491 82.0143 120.559 82.103 120.646C82.1916 120.733 82.2618 120.837 82.3093 120.952C82.3568 121.067 82.3806 121.19 82.3794 121.314Z" fill="#407BFF"/>
<path d="M82.3794 125.199C82.3794 125.383 82.3245 125.564 82.2217 125.717C82.1189 125.871 81.9729 125.99 81.8021 126.061C81.6313 126.131 81.4435 126.149 81.2625 126.112C81.0815 126.075 80.9155 125.986 80.7855 125.855C80.6555 125.723 80.5675 125.557 80.5325 125.375C80.4975 125.194 80.5172 125.006 80.5891 124.836C80.661 124.666 80.7818 124.521 80.9361 124.42C81.0905 124.318 81.2715 124.265 81.4562 124.267C81.5782 124.267 81.6989 124.291 81.8115 124.338C81.9241 124.385 82.0263 124.454 82.1121 124.54C82.1979 124.627 82.2658 124.73 82.3116 124.843C82.3575 124.956 82.3805 125.077 82.3794 125.199Z" fill="#407BFF"/>
<path d="M82.3794 129.092C82.3794 129.276 82.3245 129.457 82.2217 129.61C82.1189 129.764 81.9729 129.883 81.8021 129.953C81.6313 130.024 81.4435 130.042 81.2625 130.005C81.0815 129.968 80.9155 129.879 80.7855 129.747C80.6555 129.616 80.5675 129.449 80.5325 129.268C80.4975 129.087 80.5172 128.899 80.5891 128.729C80.661 128.559 80.7818 128.414 80.9361 128.313C81.0905 128.211 81.2715 128.158 81.4562 128.16C81.5782 128.16 81.6989 128.184 81.8115 128.231C81.9241 128.278 82.0263 128.347 82.1121 128.433C82.1979 128.52 82.2658 128.623 82.3116 128.736C82.3575 128.849 82.3805 128.97 82.3794 129.092Z" fill="#407BFF"/>
<path d="M258.141 90.484C258.141 92.6876 259.016 94.8009 260.574 96.359C262.132 97.9172 264.246 98.7926 266.449 98.7926H309.124C310.215 98.7926 311.296 98.5777 312.304 98.1601C313.312 97.7426 314.228 97.1306 314.999 96.359C315.771 95.5875 316.383 94.6716 316.8 93.6636C317.218 92.6555 317.433 91.5751 317.433 90.484C317.433 88.2796 316.558 86.1654 315 84.6059C313.442 83.0464 311.329 82.1691 309.124 82.1667H266.449C264.245 82.1691 262.132 83.0464 260.574 84.6059C259.016 86.1654 258.141 88.2796 258.141 90.484Z" stroke="#407BFF" stroke-miterlimit="10"/>
<path d="M308.471 87.5403H272.467C272.22 87.5403 271.983 87.4421 271.808 87.2673C271.633 87.0926 271.535 86.8556 271.535 86.6084C271.535 86.3613 271.633 86.1242 271.808 85.9495C271.983 85.7747 272.22 85.6765 272.467 85.6765H308.471C308.718 85.6765 308.955 85.7747 309.13 85.9495C309.304 86.1242 309.403 86.3613 309.403 86.6084C309.403 86.8556 309.304 87.0926 309.13 87.2673C308.955 87.4421 308.718 87.5403 308.471 87.5403Z" fill="#407BFF"/>
<path d="M294.893 91.4331H272.467C272.22 91.4331 271.983 91.3349 271.808 91.1602C271.633 90.9854 271.535 90.7484 271.535 90.5012C271.535 90.2541 271.633 90.017 271.808 89.8423C271.983 89.6675 272.22 89.5693 272.467 89.5693H294.893C295.14 89.5693 295.377 89.6675 295.552 89.8423C295.727 90.017 295.825 90.2541 295.825 90.5012C295.825 90.7484 295.727 90.9854 295.552 91.1602C295.377 91.3349 295.14 91.4331 294.893 91.4331Z" fill="#407BFF"/>
<path d="M308.469 91.4331H298.889C298.642 91.4331 298.405 91.3349 298.23 91.1602C298.055 90.9854 297.957 90.7484 297.957 90.5012C297.957 90.2541 298.055 90.017 298.23 89.8423C298.405 89.6675 298.642 89.5693 298.889 89.5693H308.469C308.716 89.5693 308.953 89.6675 309.128 89.8423C309.303 90.017 309.401 90.2541 309.401 90.5012C309.401 90.7484 309.303 90.9854 309.128 91.1602C308.953 91.3349 308.716 91.4331 308.469 91.4331Z" fill="#407BFF"/>
<path d="M289.58 95.3262H272.51C272.263 95.3262 272.026 95.228 271.851 95.0532C271.676 94.8785 271.578 94.6414 271.578 94.3943C271.578 94.1471 271.676 93.9101 271.851 93.7353C272.026 93.5606 272.263 93.4624 272.51 93.4624H289.58C289.827 93.4624 290.064 93.5606 290.239 93.7353C290.414 93.9101 290.512 94.1471 290.512 94.3943C290.512 94.6414 290.414 94.8785 290.239 95.0532C290.064 95.228 289.827 95.3262 289.58 95.3262Z" fill="#407BFF"/>
<path d="M269.129 86.6084C269.129 86.7927 269.075 86.9729 268.972 87.1261C268.87 87.2794 268.724 87.3988 268.554 87.4693C268.384 87.5399 268.196 87.5583 268.016 87.5224C267.835 87.4864 267.669 87.3977 267.539 87.2673C267.408 87.137 267.319 86.971 267.284 86.7902C267.248 86.6094 267.266 86.4221 267.337 86.2518C267.407 86.0815 267.527 85.936 267.68 85.8336C267.833 85.7312 268.013 85.6765 268.198 85.6765C268.445 85.6765 268.682 85.7747 268.856 85.9495C269.031 86.1242 269.129 86.3613 269.129 86.6084Z" fill="#407BFF"/>
<path d="M269.129 90.5012C269.129 90.6855 269.075 90.8657 268.972 91.0189C268.87 91.1722 268.724 91.2916 268.554 91.3622C268.384 91.4327 268.196 91.4512 268.016 91.4152C267.835 91.3792 267.669 91.2905 267.539 91.1602C267.408 91.0298 267.319 90.8638 267.284 90.683C267.248 90.5023 267.266 90.3149 267.337 90.1446C267.407 89.9743 267.527 89.8288 267.68 89.7264C267.833 89.624 268.013 89.5693 268.198 89.5693C268.445 89.5693 268.682 89.6675 268.856 89.8423C269.031 90.017 269.129 90.2541 269.129 90.5012Z" fill="#407BFF"/>
<path d="M269.129 94.3943C269.129 94.5786 269.075 94.7588 268.972 94.912C268.87 95.0653 268.724 95.1847 268.554 95.2552C268.384 95.3258 268.196 95.3442 268.016 95.3083C267.835 95.2723 267.669 95.1835 267.539 95.0532C267.408 94.9229 267.319 94.7569 267.284 94.5761C267.248 94.3953 267.266 94.2079 267.337 94.0377C267.407 93.8674 267.527 93.7218 267.68 93.6195C267.833 93.5171 268.013 93.4624 268.198 93.4624C268.445 93.4624 268.682 93.5606 268.856 93.7353C269.031 93.9101 269.129 94.1471 269.129 94.3943Z" fill="#407BFF"/>
<path d="M214.253 63.9382H199.709C196.871 63.9382 194.57 66.2388 194.57 69.0766V83.621C194.57 86.4588 196.871 88.7594 199.709 88.7594H214.253C217.091 88.7594 219.391 86.4588 219.391 83.621V69.0766C219.391 66.2388 217.091 63.9382 214.253 63.9382Z" fill="white"/>
<path d="M201.867 75.9949C201.695 76.2687 201.429 76.4701 201.118 76.5609C201.429 76.6458 201.697 76.8449 201.867 77.1183C202.045 77.4742 202.126 77.8707 202.102 78.268V81.4468C202.083 81.7901 202.191 82.1285 202.407 82.3961C202.533 82.5092 202.681 82.5959 202.841 82.6512C203.001 82.7066 203.17 82.7294 203.339 82.7183H203.696V84.3644H202.825C202.443 84.3937 202.058 84.3473 201.693 84.2277C201.329 84.1081 200.991 83.9178 200.7 83.6676C200.448 83.3967 200.254 83.0766 200.132 82.7275C200.009 82.3783 199.959 82.0076 199.986 81.6384V78.1547C199.986 77.6148 199.734 77.3535 199.228 77.3535H198.68V75.6116H199.254C199.76 75.6116 200.012 75.3417 200.012 74.8017V71.318C199.985 70.9489 200.035 70.5781 200.158 70.2289C200.281 69.8798 200.474 69.5597 200.726 69.2888C201.316 68.7877 202.079 68.5376 202.851 68.5921H203.722V70.4297H203.365C203.195 70.4178 203.025 70.441 202.865 70.498C202.704 70.5549 202.558 70.6443 202.433 70.7606C202.216 71.0239 202.107 71.3603 202.129 71.7012V74.8801C202.138 75.2679 202.048 75.6518 201.867 75.9949Z" fill="#FF6C37"/>
<path d="M215.8 75.7077V77.4495H215.234C215.134 77.4424 215.033 77.4565 214.939 77.491C214.844 77.5256 214.758 77.5797 214.686 77.6498C214.616 77.7324 214.563 77.828 214.53 77.9311C214.497 78.0343 214.485 78.1429 214.494 78.2508V81.7344C214.52 82.105 214.469 82.4769 214.343 82.8264C214.217 83.1758 214.019 83.4951 213.762 83.7637C213.47 84.0145 213.131 84.2052 212.765 84.3248C212.399 84.4443 212.013 84.4904 211.629 84.4604H210.758V82.7883H211.115C211.285 82.8 211.456 82.7775 211.618 82.7222C211.779 82.6668 211.928 82.5797 212.055 82.466C212.278 82.2018 212.391 81.8617 212.369 81.5167V78.2682C212.342 77.8689 212.42 77.4696 212.595 77.1099C212.762 76.8378 213.027 76.6411 213.336 76.5612C213.026 76.4784 212.761 76.2785 212.595 76.0038C212.419 75.6444 212.341 75.2448 212.369 74.8455V71.6666C212.392 71.3241 212.28 70.9862 212.055 70.726C211.93 70.6091 211.782 70.5193 211.62 70.4623C211.458 70.4054 211.286 70.3825 211.115 70.3951H210.758V68.6881H211.629C212.404 68.6323 213.17 68.8824 213.762 69.3848C214.019 69.6534 214.217 69.9727 214.343 70.3221C214.469 70.6716 214.52 71.0435 214.494 71.4141V74.8977C214.485 75.0056 214.497 75.1143 214.53 75.2174C214.563 75.3206 214.616 75.4162 214.686 75.4987C214.757 75.5704 214.843 75.6261 214.938 75.6622C215.032 75.6982 215.133 75.7137 215.234 75.7077H215.8Z" fill="#FF6C37"/>
<path d="M154.972 303.092C163.308 303.092 170.065 296.335 170.065 287.999C170.065 279.664 163.308 272.906 154.972 272.906C146.636 272.906 139.879 279.664 139.879 287.999C139.879 296.335 146.636 303.092 154.972 303.092Z" fill="#407BFF"/>
<path d="M152.897 281.851L161.415 286.763C161.637 286.891 161.822 287.076 161.95 287.298C162.079 287.521 162.146 287.773 162.146 288.03C162.146 288.287 162.079 288.539 161.95 288.761C161.822 288.984 161.637 289.169 161.415 289.297L152.897 294.209C152.675 294.338 152.424 294.406 152.168 294.406C151.911 294.407 151.66 294.339 151.438 294.211C151.216 294.083 151.032 293.899 150.904 293.676C150.777 293.454 150.71 293.202 150.711 292.946V283.079C150.716 282.825 150.787 282.578 150.917 282.36C151.047 282.143 151.232 281.964 151.453 281.839C151.674 281.715 151.923 281.651 152.176 281.653C152.43 281.655 152.678 281.723 152.897 281.851Z" fill="white"/>
<path d="M391.889 143.845L388.84 150.812C388.748 151.024 388.596 151.203 388.402 151.329C388.209 151.454 387.982 151.52 387.752 151.518H385.836C385.702 151.518 385.573 151.465 385.478 151.37C385.384 151.275 385.331 151.147 385.331 151.013V141.293C385.331 141.15 385.387 141.013 385.489 140.911C385.59 140.81 385.727 140.753 385.87 140.753H387.429C387.593 140.753 387.751 140.688 387.867 140.572C387.983 140.456 388.048 140.299 388.048 140.135C388.048 139.971 387.983 139.814 387.867 139.698C387.751 139.582 387.593 139.517 387.429 139.517H381.995C381.831 139.517 381.674 139.582 381.558 139.698C381.442 139.814 381.377 139.971 381.377 140.135C381.377 140.299 381.442 140.456 381.558 140.572C381.674 140.688 381.831 140.753 381.995 140.753H383.554C383.697 140.753 383.834 140.81 383.936 140.911C384.037 141.013 384.094 141.15 384.094 141.293V150.995C384.094 151.129 384.041 151.258 383.946 151.352C383.851 151.447 383.723 151.5 383.589 151.5H381.681C381.45 151.502 381.223 151.436 381.028 151.311C380.833 151.186 380.679 151.006 380.584 150.795L377.545 143.828C376.809 142.57 376.424 141.139 376.43 139.682C376.453 137.526 377.307 135.461 378.814 133.918C380.321 132.376 382.365 131.473 384.521 131.4C385.625 131.373 386.724 131.567 387.752 131.972C388.78 132.376 389.717 132.982 390.507 133.754C391.297 134.525 391.926 135.447 392.354 136.466C392.783 137.484 393.004 138.577 393.003 139.682C393.011 141.145 392.626 142.582 391.889 143.845Z" fill="#FF6C37"/>
<path d="M388.281 153.538H381.166C381.064 153.54 380.964 153.521 380.87 153.483C380.776 153.445 380.69 153.388 380.618 153.317C380.546 153.246 380.489 153.161 380.45 153.067C380.411 152.974 380.391 152.873 380.391 152.772C380.391 152.566 380.472 152.369 380.618 152.224C380.763 152.078 380.96 151.997 381.166 151.997H388.281C388.487 151.997 388.684 152.078 388.829 152.224C388.975 152.369 389.056 152.566 389.056 152.772C389.056 152.873 389.036 152.974 388.997 153.067C388.958 153.161 388.901 153.246 388.829 153.317C388.757 153.388 388.671 153.445 388.577 153.483C388.483 153.521 388.383 153.54 388.281 153.538Z" fill="#FF6C37"/>
<path d="M388.281 155.568H381.166C380.96 155.568 380.763 155.486 380.618 155.341C380.472 155.195 380.391 154.998 380.391 154.792C380.391 154.587 380.472 154.39 380.618 154.244C380.763 154.099 380.96 154.017 381.166 154.017H388.281C388.487 154.017 388.684 154.099 388.829 154.244C388.975 154.39 389.056 154.587 389.056 154.792C389.056 154.998 388.975 155.195 388.829 155.341C388.684 155.486 388.487 155.568 388.281 155.568Z" fill="#FF6C37"/>
<path d="M386.75 156.125C386.803 156.126 386.855 156.138 386.902 156.16C386.95 156.183 386.993 156.215 387.027 156.256C387.061 156.297 387.085 156.344 387.099 156.395C387.113 156.446 387.116 156.5 387.107 156.552C387.005 157.109 386.711 157.614 386.276 157.977C385.841 158.34 385.292 158.539 384.725 158.539C384.158 158.539 383.609 158.34 383.174 157.977C382.738 157.614 382.444 157.109 382.343 156.552C382.333 156.5 382.334 156.447 382.347 156.396C382.359 156.345 382.383 156.297 382.416 156.256C382.45 156.215 382.492 156.183 382.539 156.16C382.587 156.137 382.639 156.125 382.691 156.125H386.75Z" fill="#FF6C37"/>
<path d="M139.868 105.812C134.2 105.812 128.659 104.131 123.946 100.981C119.234 97.8316 115.561 93.3551 113.393 88.1179C111.226 82.8807 110.66 77.1181 111.767 71.5592C112.875 66.0003 115.607 60.8949 119.616 56.8887C123.626 52.8825 128.734 50.1556 134.294 49.053C139.854 47.9504 145.616 48.5215 150.851 50.6942C156.086 52.8669 160.56 56.5435 163.705 61.259C166.85 65.9744 168.526 71.5168 168.521 77.1849C168.505 84.7769 165.48 92.0529 160.109 97.4187C154.739 102.785 147.46 105.803 139.868 105.812ZM139.868 49.2024C134.338 49.2024 128.932 50.8421 124.333 53.9141C119.735 56.9862 116.15 61.3528 114.033 66.4617C111.916 71.5707 111.361 77.1926 112.439 82.6169C113.517 88.0411 116.178 93.024 120.088 96.9357C123.997 100.847 128.978 103.512 134.402 104.593C139.825 105.674 145.448 105.123 150.558 103.009C155.668 100.895 160.037 97.3134 163.112 92.7168C166.187 88.1203 167.83 82.7152 167.833 77.1849C167.831 69.7664 164.885 62.652 159.641 57.4039C154.398 52.1558 147.287 49.2029 139.868 49.1937V49.2024Z" fill="white"/>
<path d="M148.753 100.104C161.429 95.1976 167.728 80.9437 162.821 68.2673C157.914 55.5909 143.66 49.2922 130.984 54.1989C118.308 59.1056 112.009 73.3595 116.916 86.0359C121.822 98.7124 136.076 105.011 148.753 100.104Z" fill="white"/>
<path d="M142.109 77.185C142.109 77.6277 141.978 78.0605 141.732 78.4285C141.486 78.7966 141.137 79.0835 140.728 79.2529C140.319 79.4223 139.869 79.4667 139.434 79.3803C139 79.2939 138.601 79.0808 138.288 78.7677C137.975 78.4547 137.762 78.0559 137.676 77.6217C137.589 77.1875 137.634 76.7375 137.803 76.3285C137.973 75.9195 138.259 75.5699 138.628 75.324C138.996 75.0781 139.428 74.9468 139.871 74.9468C140.465 74.9468 141.034 75.1826 141.454 75.6024C141.874 76.0221 142.109 76.5914 142.109 77.185Z" fill="#407BFF"/>
<path d="M139.626 76.7148C139.546 76.7607 139.458 76.7902 139.367 76.8015C139.276 76.8127 139.183 76.8056 139.094 76.7804C139.006 76.7552 138.923 76.7126 138.852 76.6549C138.78 76.5973 138.72 76.5258 138.677 76.4448L131.44 63.381C131.394 63.3013 131.364 63.2132 131.353 63.1218C131.342 63.0305 131.349 62.9378 131.374 62.8493C131.399 62.7608 131.442 62.6782 131.499 62.6065C131.557 62.5348 131.628 62.4753 131.71 62.4317C131.789 62.3858 131.877 62.3563 131.969 62.345C132.06 62.3338 132.153 62.3409 132.241 62.3661C132.33 62.3913 132.412 62.4339 132.484 62.4916C132.556 62.5492 132.615 62.6207 132.659 62.7017L139.905 75.7655C139.949 75.846 139.977 75.9346 139.987 76.026C139.997 76.1174 139.989 76.2099 139.963 76.2982C139.937 76.3864 139.894 76.4687 139.836 76.5402C139.779 76.6117 139.707 76.671 139.626 76.7148Z" fill="#407BFF"/>
<path d="M140.228 77.516C140.292 77.4501 140.37 77.3978 140.455 77.3622C140.54 77.3265 140.632 77.3081 140.724 77.3081C140.816 77.3081 140.908 77.3265 140.993 77.3622C141.078 77.3978 141.156 77.4501 141.221 77.516L147.482 83.7779C147.613 83.91 147.687 84.0884 147.687 84.2743C147.687 84.4602 147.613 84.6386 147.482 84.7707C147.35 84.9015 147.172 84.9749 146.986 84.9749C146.8 84.9749 146.622 84.9015 146.49 84.7707L140.228 78.5088C140.097 78.3767 140.023 78.1983 140.023 78.0124C140.023 77.8265 140.097 77.6481 140.228 77.516Z" fill="#407BFF"/>
<path d="M140.027 58.3296C139.796 58.3296 139.575 58.2379 139.411 58.0746C139.248 57.9112 139.156 57.6897 139.156 57.4587V54.6282C139.156 54.3973 139.248 54.1757 139.411 54.0124C139.575 53.8491 139.796 53.7573 140.027 53.7573C140.258 53.7573 140.48 53.8491 140.643 54.0124C140.806 54.1757 140.898 54.3973 140.898 54.6282V57.4587C140.898 57.6897 140.806 57.9112 140.643 58.0746C140.48 58.2379 140.258 58.3296 140.027 58.3296Z" fill="#407BFF"/>
<path d="M162.428 78.1779H159.597C159.366 78.1779 159.145 78.0861 158.982 77.9228C158.818 77.7595 158.727 77.5379 158.727 77.307C158.727 77.076 158.818 76.8544 158.982 76.6911C159.145 76.5278 159.366 76.436 159.597 76.436H162.428C162.659 76.436 162.88 76.5278 163.044 76.6911C163.207 76.8544 163.299 77.076 163.299 77.307C163.299 77.5379 163.207 77.7595 163.044 77.9228C162.88 78.0861 162.659 78.1779 162.428 78.1779Z" fill="#407BFF"/>
<path d="M139.722 100.56C139.491 100.56 139.27 100.469 139.107 100.305C138.943 100.142 138.852 99.9204 138.852 99.6894V96.859C138.852 96.628 138.943 96.4065 139.107 96.2431C139.27 96.0798 139.491 95.988 139.722 95.988C139.953 95.988 140.175 96.0798 140.338 96.2431C140.502 96.4065 140.593 96.628 140.593 96.859V99.6894C140.593 99.9204 140.502 100.142 140.338 100.305C140.175 100.469 139.953 100.56 139.722 100.56Z" fill="#407BFF"/>
<path d="M120.17 77.8817H117.34C117.109 77.8817 116.887 77.79 116.724 77.6266C116.561 77.4633 116.469 77.2418 116.469 77.0108C116.469 76.7798 116.561 76.5583 116.724 76.395C116.887 76.2316 117.109 76.1399 117.34 76.1399H120.17C120.401 76.1399 120.623 76.2316 120.786 76.395C120.949 76.5583 121.041 76.7798 121.041 77.0108C121.041 77.2418 120.949 77.4633 120.786 77.6266C120.623 77.79 120.401 77.8817 120.17 77.8817Z" fill="#407BFF"/>
<g opacity="0.5">
<path d="M130.151 60.4546C130.075 60.4541 130 60.4338 129.934 60.3956C129.869 60.3574 129.814 60.3027 129.776 60.2369L128.357 57.7896C128.3 57.6891 128.286 57.5703 128.317 57.4593C128.348 57.3483 128.422 57.2541 128.522 57.1974C128.571 57.1679 128.625 57.1486 128.682 57.1405C128.738 57.1324 128.796 57.1358 128.851 57.1504C128.906 57.1651 128.958 57.1906 129.003 57.2256C129.049 57.2606 129.086 57.3043 129.114 57.3541L130.534 59.8014C130.588 59.9037 130.602 60.0231 130.571 60.1349C130.54 60.2467 130.468 60.3424 130.368 60.4023C130.301 60.437 130.226 60.455 130.151 60.4546Z" fill="#407BFF"/>
<path d="M157.009 67.8747C156.914 67.8737 156.822 67.8417 156.747 67.7835C156.672 67.7253 156.618 67.6441 156.593 67.5523C156.568 67.4605 156.574 67.3632 156.61 67.2752C156.646 67.1871 156.71 67.1132 156.791 67.0647L159.239 65.6451C159.339 65.5876 159.459 65.5718 159.571 65.6011C159.683 65.6304 159.78 65.7024 159.84 65.8019C159.894 65.9042 159.907 66.0236 159.877 66.1354C159.846 66.2472 159.773 66.3429 159.674 66.4028L157.201 67.8137C157.143 67.8497 157.077 67.8706 157.009 67.8747Z" fill="#407BFF"/>
<path d="M151.008 97.2159C150.931 97.2161 150.855 97.1961 150.788 97.158C150.721 97.1198 150.665 97.0647 150.625 96.9982L149.214 94.5509C149.186 94.5012 149.167 94.4463 149.16 94.3894C149.153 94.3325 149.156 94.2747 149.171 94.2193C149.186 94.1639 149.212 94.112 149.247 94.0665C149.282 94.0211 149.326 93.9829 149.375 93.9544C149.425 93.9258 149.48 93.9072 149.537 93.8999C149.594 93.8925 149.652 93.8964 149.707 93.9113C149.763 93.9263 149.814 93.952 149.86 93.9871C149.905 94.0221 149.943 94.0657 149.972 94.1155L151.383 96.5627C151.412 96.6117 151.432 96.6661 151.44 96.7226C151.448 96.7792 151.444 96.8368 151.43 96.892C151.415 96.9473 151.39 96.999 151.355 97.0442C151.32 97.0893 151.276 97.127 151.226 97.155C151.161 97.1953 151.085 97.2165 151.008 97.2159Z" fill="#407BFF"/>
<path d="M120.284 88.7246C120.208 88.7259 120.132 88.7064 120.066 88.668C120 88.6296 119.946 88.5739 119.909 88.5068C119.852 88.4074 119.837 88.2894 119.866 88.1785C119.895 88.0676 119.967 87.9728 120.066 87.9146L122.522 86.5037C122.62 86.4593 122.732 86.453 122.834 86.4858C122.937 86.5187 123.024 86.5885 123.078 86.6817C123.132 86.7749 123.15 86.8849 123.128 86.9903C123.105 87.0958 123.045 87.1893 122.958 87.2527L120.502 88.6723C120.434 88.707 120.36 88.7249 120.284 88.7246Z" fill="#407BFF"/>
</g>
<g opacity="0.5">
<path d="M122.888 67.6051C122.811 67.6066 122.736 67.5854 122.671 67.5441L120.215 66.1332C120.116 66.0751 120.044 65.9802 120.014 65.8694C119.985 65.7585 120.001 65.6405 120.058 65.541C120.115 65.4407 120.209 65.3669 120.32 65.3359C120.431 65.3049 120.55 65.3191 120.65 65.3755L123.106 66.7951C123.188 66.8436 123.251 66.9175 123.287 67.0056C123.323 67.0936 123.329 67.1909 123.304 67.2827C123.28 67.3745 123.226 67.4557 123.151 67.5139C123.075 67.5721 122.983 67.6041 122.888 67.6051Z" fill="#407BFF"/>
<path d="M149.854 60.6377C149.777 60.6382 149.701 60.6171 149.636 60.5767C149.586 60.5487 149.542 60.511 149.507 60.4659C149.472 60.4207 149.447 60.369 149.432 60.3137C149.418 60.2585 149.414 60.2009 149.422 60.1444C149.43 60.0878 149.45 60.0334 149.479 59.9845L150.89 57.5285C150.95 57.429 151.046 57.3569 151.159 57.3276C151.271 57.2983 151.39 57.3141 151.491 57.3717C151.541 57.3997 151.584 57.4374 151.619 57.4825C151.654 57.5277 151.68 57.5794 151.695 57.6347C151.709 57.6899 151.713 57.7475 151.705 57.8041C151.696 57.8606 151.677 57.915 151.648 57.9639L150.237 60.3938C150.202 60.4658 150.147 60.5266 150.08 60.5697C150.012 60.6127 149.934 60.6362 149.854 60.6377Z" fill="#407BFF"/>
<path d="M159.31 88.986C159.234 88.9864 159.16 88.9684 159.092 88.9337L156.637 87.5141C156.538 87.456 156.466 87.3611 156.436 87.2503C156.407 87.1394 156.423 87.0214 156.48 86.9219C156.538 86.823 156.633 86.7511 156.744 86.7218C156.855 86.6924 156.973 86.708 157.072 86.7651L159.528 88.176C159.61 88.2245 159.673 88.2984 159.709 88.3865C159.745 88.4745 159.751 88.5718 159.726 88.6636C159.702 88.7554 159.648 88.8366 159.572 88.8948C159.497 88.953 159.405 88.985 159.31 88.986Z" fill="#407BFF"/>
<path d="M128.463 97.0334C128.386 97.0349 128.311 97.0137 128.246 96.9724C128.147 96.9141 128.075 96.8199 128.044 96.7096C128.013 96.5992 128.026 96.4812 128.08 96.3802L129.5 93.9242C129.528 93.8744 129.565 93.8307 129.61 93.7957C129.656 93.7607 129.707 93.7351 129.763 93.7205C129.818 93.7059 129.875 93.7025 129.932 93.7106C129.989 93.7186 130.043 93.738 130.092 93.7674C130.191 93.8257 130.263 93.9199 130.294 94.0303C130.324 94.1406 130.311 94.2587 130.257 94.3596L128.838 96.8156C128.8 96.8814 128.745 96.9362 128.679 96.9744C128.614 97.0126 128.539 97.0329 128.463 97.0334Z" fill="#407BFF"/>
</g>
<path d="M15.457 336.727H467.899" stroke="#232230" stroke-linecap="round" stroke-linejoin="round"/>
</g>
<defs>
<linearGradient id="paint0_linear_1167_15961" x1="396.433" y1="-9.33192" x2="396.433" y2="60.2457" gradientUnits="userSpaceOnUse">
<stop stop-color="#DFEDF2"/>
<stop offset="1" stop-color="#E8F8FF"/>
</linearGradient>
<linearGradient id="paint1_linear_1167_15961" x1="448.017" y1="319.762" x2="460.863" y2="306.045" gradientUnits="userSpaceOnUse">
<stop stop-color="#DFEDF2"/>
<stop offset="1" stop-color="#E8F8FF"/>
</linearGradient>
<linearGradient id="paint2_linear_1167_15961" x1="102.133" y1="193.061" x2="378.51" y2="193.061" gradientUnits="userSpaceOnUse">
<stop stop-color="#FF6C37"/>
<stop offset="1" stop-color="#FF6C37"/>
</linearGradient>
<linearGradient id="paint3_linear_1167_15961" x1="102.134" y1="193.061" x2="378.511" y2="193.061" gradientUnits="userSpaceOnUse">
<stop stop-color="#F85419"/>
<stop offset="1" stop-color="#FF6C37"/>
</linearGradient>
<linearGradient id="paint4_linear_1167_15961" x1="270.908" y1="229.021" x2="243.474" y2="202.675" gradientUnits="userSpaceOnUse">
<stop stop-color="#FF6C37" stop-opacity="0.14"/>
<stop offset="1" stop-color="#FF6C37"/>
</linearGradient>
<linearGradient id="paint5_linear_1167_15961" x1="214.655" y1="152.92" x2="236.21" y2="186.45" gradientUnits="userSpaceOnUse">
<stop stop-color="#CBE1F2" stop-opacity="0"/>
<stop offset="1" stop-color="#AED2ED"/>
</linearGradient>
<linearGradient id="paint6_linear_1167_15961" x1="267.739" y1="150.02" x2="318.836" y2="139.281" gradientUnits="userSpaceOnUse">
<stop stop-color="#FF6C37" stop-opacity="0.07"/>
<stop offset="1" stop-color="#FF6C37"/>
</linearGradient>
<linearGradient id="paint7_linear_1167_15961" x1="202.882" y1="143.888" x2="164.997" y2="138.445" gradientUnits="userSpaceOnUse">
<stop stop-color="#FF6C37" stop-opacity="0.07"/>
<stop offset="1" stop-color="#FF6C37"/>
</linearGradient>
<linearGradient id="paint8_linear_1167_15961" x1="141.559" y1="238.54" x2="181.186" y2="248.991" gradientUnits="userSpaceOnUse">
<stop stop-color="#FF6C37" stop-opacity="0.12"/>
<stop offset="1" stop-color="#FF6C37"/>
</linearGradient>
<linearGradient id="paint9_linear_1167_15961" x1="346.523" y1="239.298" x2="305.154" y2="248.225" gradientUnits="userSpaceOnUse">
<stop stop-color="#FC622B" stop-opacity="0.09"/>
<stop offset="1" stop-color="#FE320F"/>
</linearGradient>
<linearGradient id="paint10_linear_1167_15961" x1="337.42" y1="345.036" x2="337.42" y2="291.561" gradientUnits="userSpaceOnUse">
<stop stop-color="#283770"/>
<stop offset="1" stop-color="#141049"/>
</linearGradient>
<linearGradient id="paint11_linear_1167_15961" x1="356.205" y1="227.592" x2="356.205" y2="307.368" gradientUnits="userSpaceOnUse">
<stop stop-color="#283770"/>
<stop offset="1" stop-color="#141A5A"/>
</linearGradient>
<linearGradient id="paint12_linear_1167_15961" x1="373.18" y1="209.643" x2="373.18" y2="255.932" gradientUnits="userSpaceOnUse">
<stop stop-color="#49A5F7"/>
<stop offset="1" stop-color="#1C6CEB"/>
</linearGradient>
<linearGradient id="paint13_linear_1167_15961" x1="370.34" y1="235.953" x2="378.292" y2="235.953" gradientUnits="userSpaceOnUse">
<stop stop-color="#49A5F7"/>
<stop offset="1" stop-color="#1C6CEB"/>
</linearGradient>
<linearGradient id="paint14_linear_1167_15961" x1="370.932" y1="209.643" x2="370.932" y2="255.932" gradientUnits="userSpaceOnUse">
<stop stop-color="#49A5F7"/>
<stop offset="1" stop-color="#1C6CEB"/>
</linearGradient>
<linearGradient id="paint15_linear_1167_15961" x1="301.841" y1="100.693" x2="191.966" y2="156.388" gradientUnits="userSpaceOnUse">
<stop stop-color="#407BFF"/>
<stop offset="1" stop-color="#407BFF"/>
</linearGradient>
<linearGradient id="paint16_linear_1167_15961" x1="225.986" y1="126.601" x2="196.749" y2="141.415" gradientUnits="userSpaceOnUse">
<stop stop-color="#DFEDF2"/>
<stop offset="1" stop-color="#E8F8FF"/>
</linearGradient>
<linearGradient id="paint17_linear_1167_15961" x1="253.026" y1="118.074" x2="253.026" y2="124.241" gradientUnits="userSpaceOnUse">
<stop stop-color="#DFEDF2"/>
<stop offset="1" stop-color="#E8F8FF"/>
</linearGradient>
<linearGradient id="paint18_linear_1167_15961" x1="253.395" y1="122.098" x2="253.395" y2="128.264" gradientUnits="userSpaceOnUse">
<stop stop-color="#DFEDF2"/>
<stop offset="1" stop-color="#E8F8FF"/>
</linearGradient>
<linearGradient id="paint19_linear_1167_15961" x1="253.758" y1="126.113" x2="253.758" y2="132.279" gradientUnits="userSpaceOnUse">
<stop stop-color="#DFEDF2"/>
<stop offset="1" stop-color="#E8F8FF"/>
</linearGradient>
<linearGradient id="paint20_linear_1167_15961" x1="254.117" y1="130.137" x2="254.117" y2="136.303" gradientUnits="userSpaceOnUse">
<stop stop-color="#DFEDF2"/>
<stop offset="1" stop-color="#E8F8FF"/>
</linearGradient>
<linearGradient id="paint21_linear_1167_15961" x1="254.472" y1="134.152" x2="254.472" y2="140.318" gradientUnits="userSpaceOnUse">
<stop stop-color="#DFEDF2"/>
<stop offset="1" stop-color="#E8F8FF"/>
</linearGradient>
<linearGradient id="paint22_linear_1167_15961" x1="254.838" y1="138.167" x2="254.838" y2="144.342" gradientUnits="userSpaceOnUse">
<stop stop-color="#DFEDF2"/>
<stop offset="1" stop-color="#E8F8FF"/>
</linearGradient>
<linearGradient id="paint23_linear_1167_15961" x1="212.008" y1="225.729" x2="221.51" y2="225.729" gradientUnits="userSpaceOnUse">
<stop stop-color="#283770"/>
<stop offset="1" stop-color="#141A5A"/>
</linearGradient>
<linearGradient id="paint24_linear_1167_15961" x1="223.616" y1="113.293" x2="214.35" y2="171.61" gradientUnits="userSpaceOnUse">
<stop stop-color="#272E79"/>
<stop offset="1" stop-color="#0B1B38"/>
</linearGradient>
<linearGradient id="paint25_linear_1167_15961" x1="103.885" y1="188.114" x2="103.885" y2="196.039" gradientUnits="userSpaceOnUse">
<stop stop-color="#6EC4F7"/>
<stop offset="1" stop-color="#398EF6"/>
</linearGradient>
<linearGradient id="paint26_linear_1167_15961" x1="88.4501" y1="165.818" x2="97.8734" y2="172.612" gradientUnits="userSpaceOnUse">
<stop stop-color="#F4CFB3"/>
<stop offset="1" stop-color="#F2BB9B"/>
</linearGradient>
<linearGradient id="paint27_linear_1167_15961" x1="77.365" y1="184.7" x2="77.365" y2="215.8" gradientUnits="userSpaceOnUse">
<stop stop-color="#6EC4F7"/>
<stop offset="1" stop-color="#398EF6"/>
</linearGradient>
<clipPath id="clip0_1167_15961">
<rect width="495.334" height="350" fill="white"/>
</clipPath>
</defs>
</svg>
