<svg width="349" height="200" viewBox="0 0 349 200" fill="none" xmlns="http://www.w3.org/2000/svg">
<path d="M66.9063 163.894C66.7269 156.158 65.4023 148.369 62.2308 141.309C59.0593 134.248 53.9353 127.942 47.2335 124.069C42.4841 121.309 35.93 120.032 31.7453 123.631C30.384 124.88 29.334 126.43 28.6794 128.158C26.8496 132.672 26.8043 137.713 28.5527 142.259C30.025 146.037 32.6635 149.24 35.5079 152.127C43.1174 159.842 53.1649 165.947 64.0039 165.9" fill="#D6E3FF"/>
<path d="M65.5207 179.42C60.7669 174.151 54.2957 170.744 47.2621 169.805C44.7977 169.478 39.3465 168.617 37.8795 171.293C36.4705 173.879 39.832 177.815 41.5734 179.256C43.5479 181.01 45.791 182.435 48.2172 183.478C51.126 184.582 54.2862 184.847 57.3385 184.245C60.3908 183.642 63.2128 182.195 65.4837 180.069" fill="#D6E3FF"/>
<path d="M246.132 165.272C242.259 154.227 240.765 141.984 244.211 130.792C247.657 119.599 256.681 109.747 268.153 107.398C269.708 107.003 271.333 106.972 272.902 107.309C274.457 107.8 275.859 108.681 276.976 109.868C282.475 115.267 283.989 123.826 282.338 131.356C280.686 138.887 276.29 145.536 271.335 151.435C265.879 157.931 258.997 164.1 250.565 165.003" fill="#D6E3FF"/>
<path d="M251.523 177.847C253.107 175.346 255.745 173.72 258.336 172.301C263.581 169.43 269.17 167.024 275.091 166.169C278.31 165.72 282.215 166.084 283.84 168.892C285.186 171.23 284.294 174.253 282.785 176.491C281.542 178.327 279.937 179.891 278.069 181.085C276.2 182.279 274.108 183.079 271.919 183.435C269.149 183.868 266.315 183.573 263.539 183.193C259.682 182.665 255.75 181.942 252.389 179.979" fill="#D6E3FF"/>
<path d="M265.541 120.892C256.502 132.017 248.125 143.664 240.454 155.773C238.301 159.178 236.206 162.617 234.169 166.09C234.132 166.174 234.126 166.269 234.155 166.357C234.183 166.445 234.243 166.519 234.323 166.565C234.403 166.612 234.497 166.627 234.587 166.609C234.678 166.59 234.758 166.538 234.813 166.464C242.015 154.203 249.93 142.374 258.517 131.039C260.98 127.789 263.499 124.582 266.074 121.419C266.375 121.05 265.847 120.517 265.546 120.892H265.541Z" fill="white"/>
<path d="M274.69 175.119C264.262 177.265 253.623 178.207 242.98 177.926C242.881 177.926 242.785 177.965 242.715 178.036C242.645 178.106 242.605 178.201 242.605 178.301C242.605 178.4 242.645 178.495 242.715 178.566C242.785 178.636 242.881 178.675 242.98 178.675C253.688 178.953 264.393 178.002 274.885 175.842C275.355 175.741 275.16 175.024 274.69 175.119Z" fill="white"/>
<path d="M37.9949 136.026C50.9555 143.85 62.8832 153.27 73.4988 164.063C76.454 167.064 79.2983 170.165 82.0318 173.367C82.3431 173.736 82.8708 173.203 82.5595 172.839C72.7276 161.343 61.4992 151.12 49.1347 142.406C45.6167 139.944 42.0283 137.601 38.3695 135.377C37.9579 135.129 37.5833 135.778 37.9949 136.026Z" fill="white"/>
<path d="M45.6604 176.158C53.8621 178.924 62.3662 180.696 70.9902 181.435C73.4528 181.64 75.9049 181.763 78.3464 181.805C78.4374 181.794 78.5213 181.75 78.5822 181.682C78.6431 181.613 78.6767 181.524 78.6767 181.433C78.6767 181.341 78.6431 181.253 78.5822 181.184C78.5213 181.116 78.4374 181.072 78.3464 181.061C69.7586 180.915 61.2193 179.74 52.911 177.562C50.5364 176.939 48.1846 176.236 45.8556 175.451C45.4018 175.293 45.2066 176.016 45.6604 176.169V176.158Z" fill="white"/>
<path d="M67.3722 195.652L254.998 195.277L233.979 70.3798C233.581 68.048 232.371 65.9322 230.563 64.4064C228.755 62.8806 226.466 62.0432 224.1 62.0421L56.7495 62.3798C55.298 62.382 53.8644 62.7003 52.5484 63.3125C51.2323 63.9248 50.0654 64.8163 49.1288 65.9252C48.1922 67.0341 47.5083 68.3337 47.1248 69.7336C46.7412 71.1335 46.6672 72.6001 46.9078 74.0316L67.3722 195.652Z" fill="white"/>
<path d="M81.0341 104.791C78.6647 102.923 75.6251 102.923 74.2584 104.791C72.8916 106.66 73.699 109.704 76.0737 111.572C78.4483 113.441 81.4826 113.446 82.8547 111.572C84.2267 109.699 83.4087 106.665 81.0341 104.791Z" fill="#FF6C37"/>
<path d="M89.2148 108.39H191.283" stroke="#206BC7" stroke-width="1.13304" stroke-miterlimit="10"/>
<path d="M91.6209 152.41C93.1464 150.667 92.5374 147.638 90.2605 145.646C87.9836 143.654 84.9011 143.453 83.3755 145.197C81.85 146.941 82.4591 149.969 84.7359 151.961C87.0128 153.953 90.0953 154.154 91.6209 152.41Z" fill="#FF6C37"/>
<path d="M98.1523 149.029H200.221" stroke="#206BC7" stroke-width="1.13304" stroke-miterlimit="10"/>
<path d="M47.0662 75.2558L46.9078 74.0316C46.6672 72.6001 46.7412 71.1335 47.1248 69.7336C47.5083 68.3337 48.1922 67.0341 49.1288 65.9252C50.0654 64.8163 51.2323 63.9248 52.5484 63.3125C53.8644 62.7003 55.298 62.382 56.7495 62.3798L224.1 62.0421C226.466 62.0432 228.755 62.8806 230.563 64.4064C232.371 65.9322 233.581 68.048 233.979 70.3798L234.845 75.5039C235.288 74.7229 47.0662 75.2558 47.0662 75.2558Z" fill="#206BC7"/>
<path d="M62.5367 67.9313C61.3071 66.955 59.7293 66.955 59.0169 67.9313C58.3045 68.9075 58.732 70.4748 59.9615 71.4458C61.1911 72.4168 62.7689 72.4168 63.4813 71.4458C64.1937 70.4748 63.7662 68.9023 62.5367 67.9313Z" fill="white"/>
<path d="M70.6656 67.9313C69.4361 66.9551 67.8582 66.9551 67.1458 67.9313C66.4334 68.9076 66.8609 70.4749 68.0904 71.4459C69.32 72.4168 70.8978 72.4168 71.6102 71.4459C72.3226 70.4749 71.8952 68.9023 70.6656 67.9313Z" fill="#FFB701"/>
<path d="M78.8375 67.9313C77.6079 66.955 76.0301 66.955 75.3177 67.9313C74.6053 68.9075 75.0327 70.4748 76.2623 71.4458C77.4918 72.4168 79.0697 72.4168 79.7821 71.4458C80.4945 70.4748 80.067 68.9023 78.8375 67.9313Z" fill="#8FC6C6"/>
<path d="M187.06 55.6992C190.592 55.6992 193.456 52.8357 193.456 49.3034C193.456 45.7711 190.592 42.9077 187.06 42.9077C183.528 42.9077 180.664 45.7711 180.664 49.3034C180.664 52.8357 183.528 55.6992 187.06 55.6992Z" fill="#206BC7" stroke="#206BC7" stroke-width="2.43053" stroke-miterlimit="10"/>
<path d="M174.933 70.7441L191.06 43.8998C191.999 41.6729 189.376 34.971 187.677 33.2454C183.033 28.4961 176.316 26.132 169.698 25.6729C166.031 25.4196 159.002 29.409 156.917 34.0264C154.606 39.1346 153.223 44.1636 146.891 46.6491C133.287 51.9578 136.041 66.8444 136.041 66.8444" fill="#000400"/>
<path d="M172.658 28.9604C173.864 28.0759 175.196 27.3785 176.61 26.8918C175.28 26.5081 173.926 26.2103 172.557 26C172.32 26.0792 172.077 26.1583 171.84 26.2533C165.291 28.8549 160.758 37.8997 162.389 44.723C163.164 44.723 164.953 45.066 165.703 44.9235C165.819 39.1662 167.908 32.4116 172.658 28.9604Z" fill="#206BC7"/>
<path d="M166.755 45.3351C166.736 45.408 166.704 45.4764 166.658 45.5364C166.613 45.5964 166.557 45.6468 166.492 45.6846C166.427 45.7224 166.355 45.747 166.281 45.7567C166.206 45.7665 166.131 45.7613 166.058 45.7415C164.771 45.3721 161.884 44.2639 160.517 47.5093C159.15 50.7547 161.842 53.6148 163.757 54.2692C164.311 54.4539 165.578 54.9341 165.868 55.4565C166.686 57.0396 164.391 69.7837 162.174 74.0898C162.011 82.3219 174.311 93.5726 174.311 93.5726C174.311 93.5726 177.546 89.0132 180.143 79.0607C180.143 79.0607 180.95 61.1188 181.071 61.0344C183.082 59.9051 191.034 60.5066 190.855 46.4644C190.691 33.4354 181.625 31.8101 179.245 31.5779C177.309 31.3826 170.602 29.9473 166.755 45.3351Z" fill="#FFB4A5"/>
<path d="M185.814 32.1424C185.814 32.1424 178.289 49.43 166.374 45.7361C166.374 45.7361 163.587 23.467 185.814 32.1424Z" fill="#000400"/>
<path d="M161.715 48.9022C161.715 48.9022 164.934 45.2083 165.889 51.6357L161.715 48.9022Z" fill="#FF8164"/>
<path d="M177.93 48.4855C178.53 48.6405 179.071 48.9697 179.483 49.4317C179.896 49.8937 180.163 50.4678 180.25 51.0813C180.337 51.6948 180.24 52.3203 179.971 52.8788C179.703 53.4372 179.275 53.9036 178.741 54.2189C178.208 54.5342 177.593 54.6844 176.974 54.6504C176.356 54.6164 175.761 54.3998 175.265 54.028C174.77 53.6562 174.395 53.1458 174.19 52.5613C173.984 51.9768 173.956 51.3444 174.109 50.7441C174.212 50.3447 174.391 49.9693 174.639 49.6395C174.886 49.3098 175.196 49.032 175.551 48.8222C175.906 48.6124 176.299 48.4747 176.707 48.4169C177.115 48.3591 177.531 48.3825 177.93 48.4855Z" fill="#FF9E87"/>
<path d="M190.188 53.1504C189.615 52.8717 189.141 52.4254 188.828 51.8707C188.514 51.3161 188.377 50.6793 188.435 50.0449C188.492 49.4105 188.741 48.8086 189.148 48.3189C189.555 47.8293 190.102 47.4751 190.716 47.3035C190.716 47.3035 191.09 51.0132 190.188 53.1504Z" fill="#FF9E87"/>
<path d="M188.09 50.8812L182.84 51.8786C182.84 51.8786 184.634 54.1477 186.101 53.5936C187.568 53.0395 188.09 50.8812 188.09 50.8812Z" fill="white"/>
<path d="M185.504 46.5488L185.309 50.0369L187.103 49.7836C187.179 49.773 187.251 49.7428 187.312 49.696C187.372 49.6492 187.42 49.5874 187.45 49.5166C187.48 49.4459 187.491 49.3686 187.482 49.2924C187.473 49.2161 187.444 49.1436 187.398 49.0818L185.504 46.5488Z" fill="#FF8164"/>
<path d="M179.948 43.6571C179.388 44.1004 180.169 42.2217 180.95 41.9579C181.291 41.8156 181.674 41.814 182.017 41.9534C182.359 42.0928 182.632 42.3619 182.776 42.7019C181.75 42.6793 180.749 43.0173 179.948 43.6571Z" fill="black"/>
<path d="M189.546 42.8126C190.153 43.182 189.145 41.4142 188.332 41.2295C187.976 41.1322 187.596 41.1797 187.275 41.3616C186.953 41.5435 186.717 41.845 186.617 42.2005C187.635 42.0549 188.672 42.2716 189.546 42.8126Z" fill="black"/>
<path d="M181.92 46.8179C181.989 47.43 182.284 47.8733 182.58 47.8733C182.875 47.8733 183.06 47.3456 182.997 46.707C182.933 46.0685 182.633 45.6252 182.337 45.6516C182.042 45.678 181.852 46.2057 181.92 46.8179Z" fill="black"/>
<path d="M186.753 45.9894C186.816 46.5752 187.096 47.0448 187.381 46.992C187.666 46.9393 187.845 46.4643 187.777 45.8733C187.708 45.2823 187.434 44.8179 187.149 44.8707C186.864 44.9234 186.684 45.4036 186.753 45.9894Z" fill="black"/>
<path d="M181.603 60.7652C179.7 61.1032 177.742 60.9673 175.904 60.3694C173.086 59.3668 178.638 66.5858 181.603 60.7652Z" fill="#FF8164"/>
<path d="M164.114 195.631C165.032 191.762 165.75 188.739 166.225 186.77C166.869 184.063 171.048 184.66 170.726 187.425C170.489 189.414 170.299 192.211 170.14 195.631H201.898C199.856 167.836 195.328 142.992 186.557 128.496C174.842 126.881 160.547 128.992 148.668 129.346C142.763 139.789 139.639 147.441 136.241 160.723C135.148 165.008 132.394 178.211 128.953 195.631H164.114Z" fill="black"/>
<g style="mix-blend-mode:multiply" opacity="0.21">
<path d="M186.392 133.763L133.305 172.491C133.305 172.491 137.416 149.657 145.97 133.573L186.392 133.763Z" fill="black"/>
</g>
<path d="M241.917 106.496C241.917 106.496 231.579 116.042 214.872 128.216L214.846 128.274L214.761 128.232C213.743 128.396 209.758 130.433 208.914 130.343C208.914 130.343 198.561 134.396 191.415 110.66C190.36 108.549 175.352 82.9181 175.109 82.6226C175.109 82.6226 176.882 77.2875 177.02 77.1714C186.481 69.0553 196.714 101.673 206.012 112.755C206.199 112.98 206.455 113.139 206.74 113.209C207.025 113.278 207.325 113.254 207.595 113.14C208.74 112.665 210.318 111.889 210.318 111.889L220.054 107.092L237.152 95.963C237.152 95.963 238.476 90.0632 238.941 89.3983C239.801 89.1345 243.315 89.0026 243.315 89.0026C243.315 89.0026 254.117 79.8838 254.117 82.1107C254.117 83.4353 248.313 89.9946 248.313 89.9946C248.313 89.9946 251.294 93.6411 251.479 96.0263C251.663 98.4115 241.917 106.496 241.917 106.496Z" fill="#FF9E87"/>
<g style="mix-blend-mode:multiply">
<path d="M238.859 89.6464C240.031 89.5725 241.197 89.5303 242.358 89.5303C242.944 89.5303 243.524 89.5303 244.105 89.5303H244.981C245.306 89.5134 245.632 89.549 245.946 89.6358C246.148 89.7195 246.313 89.8731 246.411 90.0685C246.5 90.2446 246.54 90.4415 246.527 90.6384C246.494 91.0028 246.329 91.3426 246.063 91.5936C245.582 91.9947 245.009 92.2703 244.395 92.3957C243.266 92.7018 242.128 92.9709 240.981 93.2031C242.061 92.7493 243.148 92.3341 244.242 91.9577C244.766 91.8103 245.25 91.549 245.661 91.1925C245.821 91.0367 245.921 90.8291 245.941 90.6068C245.954 90.5227 245.939 90.4368 245.899 90.3617C245.859 90.2866 245.796 90.2264 245.72 90.1899C245.471 90.1273 245.215 90.1006 244.96 90.1107L244.089 90.0738C243.508 90.0369 242.928 90.0158 242.342 89.9683C241.181 89.9085 240.02 89.8012 238.859 89.6464Z" fill="#D18478"/>
<path d="M247.796 89.9841C247.463 90.3535 247.125 90.7176 246.819 91.1081C246.513 91.4986 246.212 91.8838 245.927 92.2796C245.368 93.0792 244.874 93.9227 244.45 94.802L244.334 94.4168C244.522 94.5046 244.729 94.5452 244.937 94.535C245.145 94.5249 245.347 94.4644 245.526 94.3587C245.968 94.1427 246.388 93.8866 246.782 93.5936C247.199 93.3086 247.627 93.0289 248.059 92.7545C248.492 92.4801 248.925 92.2268 249.373 91.963C249.004 92.3218 248.613 92.649 248.234 93.0184C247.854 93.3878 247.458 93.678 247.062 93.9999C246.664 94.3477 246.229 94.6503 245.764 94.9023C245.506 95.0327 245.227 95.1167 244.941 95.1503C244.626 95.182 244.309 95.1157 244.033 94.9603L243.801 94.8126L243.917 94.5645C244.362 93.6525 244.916 92.7983 245.569 92.021C245.896 91.6338 246.248 91.2689 246.624 90.9287C246.991 90.5861 247.383 90.2704 247.796 89.9841Z" fill="#D18478"/>
<path d="M245.785 94.7335C245.72 95.017 245.695 95.3084 245.711 95.5989C245.724 95.7091 245.764 95.8145 245.826 95.9063C245.889 95.9981 245.972 96.0736 246.07 96.1266C246.228 96.1899 246.423 96.1266 246.682 95.9683C246.94 95.81 247.209 95.6833 247.447 95.5356C247.975 95.2506 248.465 94.9445 248.972 94.6385C249.479 94.3324 249.975 94.0105 250.508 93.7097C249.751 94.667 248.811 95.4635 247.742 96.0527C247.479 96.2005 247.215 96.343 246.935 96.4696C246.78 96.5449 246.618 96.6016 246.45 96.6385C246.241 96.6826 246.024 96.6448 245.843 96.5329C245.689 96.4274 245.568 96.2811 245.494 96.1104C245.419 95.9397 245.394 95.7516 245.421 95.5672C245.478 95.2654 245.602 94.9804 245.785 94.7335Z" fill="#D18478"/>
<path d="M250.891 95.9893C250.746 96.3448 250.488 96.6432 250.157 96.8389C249.826 97.0434 249.452 97.168 249.065 97.203C248.678 97.2336 248.289 97.1721 247.93 97.0236C247.574 96.886 247.272 96.6358 247.07 96.3112C247.39 96.4351 247.723 96.5235 248.062 96.575C248.378 96.625 248.699 96.6356 249.018 96.6067C249.337 96.5814 249.652 96.5194 249.957 96.422C250.283 96.3109 250.596 96.1659 250.891 95.9893Z" fill="#D18478"/>
</g>
<path d="M175.871 77.029C177.413 75.7352 179.325 74.9644 181.333 74.8279C183.341 74.6913 185.34 75.196 187.043 76.2691C193.328 79.963 205.043 105.446 208.71 110.475L223.623 101.33C223.623 101.33 231.713 114.032 234.758 116.438C234.758 116.438 211.85 137.055 203.343 133.14C194.837 129.224 175.871 77.029 175.871 77.029Z" fill="#FF6C37"/>
<path opacity="0.93" d="M194.399 101.572C191.401 92.2478 186.029 84.0368 179.359 76.9339C178.96 76.5231 178.688 76.0067 178.573 75.4457C177.591 75.8195 176.677 76.3546 175.871 77.0289C175.871 77.0289 188.262 111.14 197.507 126.28C197.75 117.921 196.969 109.588 194.399 101.572Z" fill="#FF6C37"/>
<path d="M180.411 73.7572C180.073 74.5857 193.218 99.6147 192.812 107.747C192.406 115.879 190.981 130.718 191.414 131.947C191.414 131.947 180.918 135.894 145.941 130.39C146.216 123.335 148.247 78.8865 148.247 78.8865C148.247 78.8865 159.688 71.8574 162.649 71.6358C162.649 71.6358 164.759 74.4432 167.788 75.2295C169.941 75.7967 172.15 76.1224 174.374 76.2004C178.094 76.2743 178.823 75.7466 180.411 73.7572Z" fill="#FF6C37"/>
<g opacity="0.93">
<path d="M171.53 127.842C147.255 116.174 153.203 90.6912 149.43 78.1741L148.247 78.8865C148.247 78.8865 146.216 123.335 145.941 130.39C170.474 134.253 182.96 133.462 188.232 132.649C185.683 131.367 174.142 129.113 171.53 127.842Z" fill="#FF6C37"/>
</g>
<path d="M169.116 53.2921C170.478 50.0329 168.94 46.2867 165.681 44.9247C162.422 43.5627 158.676 45.1007 157.314 48.3598C155.952 51.619 157.49 55.3652 160.749 56.7272C164.008 58.0892 167.754 56.5512 169.116 53.2921Z" fill="#206BC7" stroke="#206BC7" stroke-width="2.43053" stroke-miterlimit="10"/>
<path d="M166.629 51.5778L170.281 55.5197C170.97 56.2624 171.836 56.819 172.799 57.1382C173.761 57.4573 174.788 57.5287 175.785 57.3456L185.753 55.5144" stroke="#206BC7" stroke-width="1.13304" stroke-miterlimit="10"/>
<path d="M185.799 54.1972L184.046 54.5557C183.527 54.662 183.192 55.1694 183.298 55.6891L183.342 55.9063C183.449 56.4259 183.956 56.761 184.476 56.6547L186.228 56.2962C186.748 56.1899 187.083 55.6825 186.977 55.1628L186.932 54.9457C186.826 54.426 186.319 54.0909 185.799 54.1972Z" fill="#206BC7"/>
<path d="M163.21 55.0184C165.533 55.0184 167.416 53.1354 167.416 50.8126C167.416 48.4898 165.533 46.6068 163.21 46.6068C160.887 46.6068 159.004 48.4898 159.004 50.8126C159.004 53.1354 160.887 55.0184 163.21 55.0184Z" stroke="#000400" stroke-width="1.13304" stroke-miterlimit="10"/>
<path d="M155.17 77.9684C148.399 72.4539 132.452 93.0027 132.452 93.0027L119.048 108.792L96.8849 89.4248C96.5683 87.4934 95.9667 84.2058 95.3493 82.6808C94.6896 81.0554 94.9218 78.4591 95.096 77.1346C95.1122 77.0409 95.1029 76.9446 95.069 76.8558C95.035 76.767 94.9777 76.6891 94.9031 76.6301C94.8285 76.5712 94.7394 76.5335 94.6452 76.5211C94.5509 76.5086 94.4551 76.5219 94.3677 76.5594C93.927 76.7326 93.5456 77.0294 93.2694 77.4142C92.9933 77.7989 92.8341 78.2552 92.811 78.7283C92.6844 80.1372 91.9825 82.2058 91.9297 83.3246C91.9302 83.383 91.9154 83.4406 91.8869 83.4917C91.8584 83.5427 91.8171 83.5855 91.7671 83.6158C91.7171 83.6461 91.6601 83.663 91.6017 83.6646C91.5432 83.6663 91.4853 83.6528 91.4337 83.6254C90.278 83.1663 89.7661 82.4908 88.2358 81.2349C86.9709 80.0776 85.8462 78.7758 84.8849 77.3562C83.4284 75.1768 81.4495 72.1583 80.7741 73.2401C80.2939 74.0159 82.8849 78.5172 83.344 79.1504C84.1857 80.4397 84.8931 81.8118 85.4548 83.2454C85.5709 83.6834 82.2516 80.533 80.8163 78.5752C79.3809 76.6174 78.0511 74.5383 77.2807 74.6174C76.5102 74.6966 77.6131 76.6966 77.6131 76.6966C77.6131 76.6966 76.1567 75.5198 75.7609 76.0053C75.497 76.3325 77.0062 79.5515 78.1303 81.6729C76.0722 80.2006 76.0617 81.3193 76.0617 81.3193C76.0617 81.3193 79.2279 86.3219 80.7213 87.256C81.9086 88.0106 83.497 90.0686 83.7609 90.4855C84.0247 90.9024 88.1355 95.0343 92.0617 96.9552C95.4179 101.462 122.041 136.976 125.344 133.968C150.03 111.499 164.8 85.8101 155.17 77.9684Z" fill="#FF9E87"/>
<g style="mix-blend-mode:multiply">
<path d="M78.0391 81.4776L79.2106 82.6016C79.5892 82.9516 79.9951 83.271 80.4243 83.5568C80.8464 83.8417 81.3161 84.0845 81.7805 84.4169C82.245 84.73 82.6811 85.0831 83.0839 85.4723H82.4665C82.9414 85.0924 83.4216 84.7177 83.923 84.3694C84.4301 84.0165 84.9588 83.6957 85.5061 83.409C85.1563 83.9168 84.7719 84.3999 84.3557 84.8549C83.9494 85.3087 83.5219 85.7415 83.0839 86.1636L82.7937 86.4486L82.4665 86.1583C82.076 85.8153 81.6591 85.5145 81.2422 85.2032C80.8253 84.8918 80.361 84.6016 79.923 84.2322C79.4896 83.864 79.1111 83.4358 78.799 82.9604C78.4924 82.4953 78.2376 81.9981 78.0391 81.4776Z" fill="#D18478"/>
<path d="M92.1663 84.2057C92.2507 84.7071 92.3088 85.1609 92.3615 85.6253C92.4143 86.0897 92.4512 86.5329 92.4829 86.9815L92.6465 89.7466C92.2645 89.405 91.9804 88.9679 91.8233 88.4802C91.6535 88.0169 91.5504 87.5318 91.5172 87.0395C91.4836 86.5505 91.5137 86.0591 91.6069 85.5778C91.6933 85.0858 91.884 84.6179 92.1663 84.2057Z" fill="#D18478"/>
<path d="M77.6953 76.9604C78.1345 77.6015 78.6083 78.218 79.1148 78.8074C79.6425 79.3826 80.1228 79.9472 80.6557 80.5013C81.1887 81.0554 81.7111 81.6306 82.2388 82.2374C82.7706 82.8349 83.2262 83.4961 83.5951 84.2058C82.9354 83.7414 82.318 83.277 81.7111 82.7757C81.0968 82.2752 80.5151 81.7358 79.9697 81.1609C79.4203 80.573 78.934 79.9292 78.5185 79.2401C78.0847 78.5476 77.8041 77.7703 77.6953 76.9604Z" fill="#D18478"/>
</g>
<path d="M155.172 77.9683C148.401 72.4538 132.454 93.0026 132.454 93.0026L119.05 108.791L107.013 98.2743C104.871 101.636 99.6781 107.942 97.6992 111.404C106.86 123.119 123.061 136.016 125.309 133.968C150.032 111.499 164.802 85.81 155.172 77.9683Z" fill="#FF6C37"/>
<path d="M36.1953 195.346H294.274" stroke="#206BC7" stroke-width="1.13304" stroke-miterlimit="10"/>
<path d="M212.137 47.9577L216.992 43.0976H235.356C236.245 43.0976 237.125 42.9224 237.946 42.5821C238.767 42.2418 239.513 41.743 240.141 41.1142C240.77 40.4855 241.268 39.7391 241.607 38.9177C241.947 38.0963 242.122 37.216 242.121 36.3271V34.8601C242.123 33.9704 241.95 33.0889 241.61 32.2663C241.271 31.4437 240.773 30.696 240.145 30.0662C239.517 29.4363 238.77 28.9366 237.948 28.5956C237.126 28.2546 236.245 28.0791 235.356 28.0791H218.881C217.09 28.0847 215.375 28.7999 214.111 30.068C212.847 31.3361 212.137 33.0537 212.137 34.8443V47.9577Z" fill="#FF6C37"/>
<path d="M232.367 35.3931C232.367 35.7273 232.466 36.054 232.652 36.3318C232.838 36.6096 233.102 36.826 233.411 36.9537C233.72 37.0813 234.06 37.1145 234.387 37.0489C234.715 36.9833 235.016 36.8219 235.252 36.5853C235.488 36.3486 235.648 36.0472 235.713 35.7193C235.777 35.3914 235.743 35.0517 235.614 34.7432C235.486 34.4347 235.269 34.1714 234.99 33.9864C234.712 33.8015 234.385 33.7034 234.051 33.7044C233.604 33.7058 233.175 33.8843 232.86 34.2009C232.544 34.5174 232.367 34.9461 232.367 35.3931Z" fill="white"/>
<path d="M226.18 35.3932C226.18 35.7272 226.279 36.0537 226.464 36.3314C226.65 36.609 226.914 36.8255 227.222 36.9533C227.531 37.0811 227.87 37.1145 228.198 37.0494C228.525 36.9842 228.826 36.8234 229.062 36.5872C229.299 36.3511 229.459 36.0502 229.525 35.7226C229.59 35.3951 229.556 35.0555 229.428 34.747C229.301 34.4384 229.084 34.1747 228.807 33.9891C228.529 33.8036 228.202 33.7045 227.868 33.7045C227.42 33.7045 226.991 33.8824 226.674 34.1991C226.358 34.5158 226.18 34.9453 226.18 35.3932Z" fill="white"/>
<path d="M219.988 35.3932C219.988 35.7272 220.087 36.0537 220.273 36.3314C220.458 36.609 220.722 36.8255 221.031 36.9533C221.339 37.0811 221.679 37.1145 222.006 37.0494C222.334 36.9842 222.635 36.8234 222.871 36.5872C223.107 36.3511 223.268 36.0502 223.333 35.7226C223.398 35.3951 223.365 35.0555 223.237 34.747C223.109 34.4384 222.893 34.1747 222.615 33.9891C222.337 33.8036 222.011 33.7045 221.677 33.7045C221.229 33.7045 220.8 33.8824 220.483 34.1991C220.166 34.5158 219.988 34.9453 219.988 35.3932Z" fill="white"/>
<g style="mix-blend-mode:multiply">
<path d="M239.915 31.4142C241.845 31.4142 243.409 29.8501 243.409 27.9208C243.409 25.9914 241.845 24.4274 239.915 24.4274C237.986 24.4274 236.422 25.9914 236.422 27.9208C236.422 29.8501 237.986 31.4142 239.915 31.4142Z" fill="#206BC7"/>
</g>
<path d="M208.079 27.1345L203.204 22.2586H184.845C183.955 22.2593 183.075 22.0846 182.253 21.7446C181.431 21.4046 180.685 20.9059 180.056 20.2771C179.427 19.6483 178.928 18.9016 178.588 18.0799C178.248 17.2581 178.074 16.3774 178.074 15.4881V14.0211C178.074 13.1322 178.249 12.2521 178.59 11.431C178.93 10.6098 179.429 9.8638 180.058 9.23553C180.686 8.60725 181.433 8.10905 182.254 7.76937C183.076 7.4297 183.956 7.25523 184.845 7.25592H201.314C203.109 7.25592 204.829 7.96868 206.098 9.23739C207.367 10.5061 208.079 12.2269 208.079 14.0211V27.1345Z" fill="#FF6C37"/>
<path d="M187.827 14.57C187.827 14.904 187.727 15.2305 187.542 15.5082C187.356 15.7859 187.093 16.0023 186.784 16.1301C186.476 16.2579 186.136 16.2914 185.808 16.2262C185.481 16.1611 185.18 16.0002 184.944 15.7641C184.708 15.5279 184.547 15.227 184.482 14.8994C184.417 14.5719 184.45 14.2323 184.578 13.9238C184.706 13.6152 184.922 13.3515 185.2 13.1659C185.477 12.9804 185.804 12.8813 186.138 12.8813C186.586 12.8813 187.015 13.0593 187.332 13.3759C187.649 13.6926 187.827 14.1221 187.827 14.57Z" fill="white"/>
<path d="M194.014 14.57C194.014 14.904 193.915 15.2305 193.729 15.5082C193.544 15.7859 193.28 16.0023 192.972 16.1301C192.663 16.2579 192.324 16.2914 191.996 16.2262C191.668 16.1611 191.367 16.0002 191.131 15.7641C190.895 15.5279 190.734 15.227 190.669 14.8994C190.604 14.5719 190.637 14.2323 190.765 13.9238C190.893 13.6152 191.11 13.3515 191.387 13.1659C191.665 12.9804 191.991 12.8813 192.325 12.8813C192.773 12.8813 193.203 13.0593 193.519 13.3759C193.836 13.6926 194.014 14.1221 194.014 14.57Z" fill="white"/>
<path d="M200.205 14.57C200.205 14.904 200.106 15.2305 199.921 15.5082C199.735 15.7859 199.472 16.0023 199.163 16.1301C198.854 16.2579 198.515 16.2914 198.187 16.2262C197.86 16.1611 197.559 16.0002 197.323 15.7641C197.087 15.5279 196.926 15.227 196.861 14.8994C196.795 14.5719 196.829 14.2323 196.957 13.9238C197.084 13.6152 197.301 13.3515 197.579 13.1659C197.856 12.9804 198.183 12.8813 198.517 12.8813C198.964 12.8827 199.393 13.0611 199.709 13.3775C200.026 13.6939 200.204 14.1226 200.205 14.57Z" fill="white"/>
<path opacity="0.51" d="M247.223 90.38L263.207 76.343H323.392C335.64 76.343 345.555 67.6148 345.555 56.8443V52.6227C345.555 41.8523 335.624 33.124 323.392 33.124H269.407C257.154 33.124 247.244 41.8523 247.244 52.6227L247.223 90.38Z" fill="#D6E3FF"/>
<path d="M287.722 45.4249H262.973V63.6834H287.722V45.4249Z" fill="#407BFF"/>
<path d="M262.961 45.1187L273.621 55.7625C274.077 56.2172 274.694 56.4725 275.338 56.4725C275.982 56.4725 276.6 56.2172 277.056 55.7625L287.784 45.0342L262.961 45.1187Z" fill="#7AA3FF"/>
<path opacity="0.73" d="M285.673 59.8574H279.378C279.337 59.8574 279.296 59.8494 279.259 59.8338C279.221 59.8181 279.186 59.7952 279.158 59.7663C279.129 59.7373 279.106 59.703 279.09 59.6653C279.074 59.6275 279.066 59.587 279.066 59.5461C279.066 59.5055 279.074 59.4652 279.09 59.4277C279.106 59.3903 279.129 59.3563 279.158 59.3278C279.187 59.2993 279.221 59.2769 279.259 59.2618C279.297 59.2467 279.337 59.2393 279.378 59.24H285.673C285.714 59.2393 285.754 59.2467 285.792 59.2618C285.83 59.2769 285.864 59.2993 285.893 59.3278C285.922 59.3563 285.945 59.3903 285.961 59.4277C285.977 59.4652 285.985 59.5055 285.985 59.5461C285.985 59.587 285.977 59.6275 285.961 59.6653C285.945 59.703 285.922 59.7373 285.893 59.7663C285.865 59.7952 285.83 59.8181 285.792 59.8338C285.755 59.8494 285.714 59.8574 285.673 59.8574Z" fill="white"/>
<path d="M271.404 58.1055H265.103C265.022 58.1055 264.944 58.0733 264.887 58.0159C264.829 57.9585 264.797 57.8806 264.797 57.7994C264.796 57.7588 264.804 57.7184 264.819 57.6807C264.834 57.6429 264.856 57.6086 264.885 57.5796C264.913 57.5506 264.947 57.5276 264.985 57.5119C265.022 57.4962 265.062 57.4881 265.103 57.4881H271.404C271.444 57.4881 271.485 57.4962 271.522 57.5119C271.56 57.5276 271.594 57.5506 271.622 57.5796C271.651 57.6086 271.673 57.6429 271.688 57.6807C271.703 57.7184 271.711 57.7588 271.71 57.7994C271.71 57.8396 271.702 57.8794 271.687 57.9166C271.671 57.9537 271.649 57.9874 271.62 58.0159C271.592 58.0443 271.558 58.0668 271.521 58.0822C271.484 58.0976 271.444 58.1055 271.404 58.1055Z" fill="white"/>
<path d="M271.404 59.7466H265.103C265.021 59.7452 264.943 59.7118 264.886 59.6535C264.829 59.5953 264.797 59.5169 264.797 59.4352C264.797 59.395 264.805 59.3552 264.82 59.3181C264.836 59.281 264.858 59.2472 264.887 59.2188C264.915 59.1904 264.949 59.1678 264.986 59.1524C265.023 59.1371 265.063 59.1292 265.103 59.1292H271.404C271.444 59.1292 271.484 59.1371 271.521 59.1524C271.558 59.1678 271.592 59.1904 271.62 59.2188C271.649 59.2472 271.671 59.281 271.687 59.3181C271.702 59.3552 271.71 59.395 271.71 59.4352C271.71 59.5169 271.678 59.5953 271.621 59.6535C271.563 59.7118 271.485 59.7452 271.404 59.7466Z" fill="white"/>
<path d="M331.524 50.6015H294.141C293.65 50.6001 293.178 50.4038 292.831 50.0556C292.484 49.7074 292.289 49.2357 292.289 48.744C292.289 48.2523 292.484 47.7806 292.831 47.4324C293.178 47.0842 293.65 46.8879 294.141 46.8865H331.524C332.016 46.8879 332.487 47.0842 332.834 47.4324C333.181 47.7806 333.376 48.2523 333.376 48.744C333.376 49.2357 333.181 49.7074 332.834 50.0556C332.487 50.4038 332.016 50.6001 331.524 50.6015Z" fill="white"/>
<path d="M313.935 56.6226H293.313C293.178 56.6233 293.045 56.5973 292.92 56.5461C292.796 56.4949 292.683 56.4195 292.587 56.3243C292.492 56.2291 292.417 56.116 292.366 55.9915C292.314 55.867 292.288 55.7335 292.289 55.5989C292.289 55.3274 292.397 55.067 292.589 54.875C292.781 54.683 293.041 54.5751 293.313 54.5751H313.935C314.07 54.5751 314.203 54.6016 314.327 54.6531C314.451 54.7045 314.564 54.7799 314.659 54.875C314.754 54.97 314.83 55.0829 314.881 55.2071C314.933 55.3313 314.959 55.4644 314.959 55.5989C314.959 55.7333 314.933 55.8664 314.881 55.9907C314.83 56.1149 314.754 56.2277 314.659 56.3228C314.564 56.4178 314.451 56.4933 314.327 56.5447C314.203 56.5961 314.07 56.6226 313.935 56.6226Z" fill="white"/>
<path d="M313.935 61.1292H293.313C293.178 61.1299 293.045 61.1039 292.92 61.0527C292.796 61.0015 292.683 60.9261 292.587 60.8309C292.492 60.7357 292.417 60.6226 292.366 60.4981C292.314 60.3735 292.288 60.2401 292.289 60.1055C292.289 59.834 292.397 59.5736 292.589 59.3816C292.781 59.1896 293.041 59.0817 293.313 59.0817H313.935C314.07 59.0817 314.203 59.1082 314.327 59.1597C314.451 59.2111 314.564 59.2865 314.659 59.3816C314.754 59.4766 314.83 59.5895 314.881 59.7137C314.933 59.8379 314.959 59.971 314.959 60.1055C314.959 60.2399 314.933 60.373 314.881 60.4973C314.83 60.6215 314.754 60.7343 314.659 60.8294C314.564 60.9244 314.451 60.9998 314.327 61.0513C314.203 61.1027 314.07 61.1292 313.935 61.1292Z" fill="white"/>
<path d="M279.298 156.908H223.984L219.383 138.084H274.697L279.298 156.908Z" fill="#407BFF"/>
<path d="M234.164 152.28C233.637 152.28 233.125 152.196 232.627 152.028C232.133 151.855 231.679 151.613 231.262 151.304C230.851 150.988 230.497 150.625 230.2 150.213C229.908 149.794 229.695 149.337 229.562 148.841C229.429 148.345 229.398 147.891 229.467 147.479C229.542 147.06 229.701 146.697 229.945 146.388C230.193 146.072 230.519 145.831 230.92 145.663C231.321 145.489 231.787 145.402 232.321 145.402C232.847 145.402 233.357 145.489 233.85 145.663C234.342 145.831 234.793 146.069 235.202 146.378C235.618 146.687 235.972 147.051 236.265 147.469C236.563 147.888 236.779 148.345 236.912 148.841C237.045 149.337 237.074 149.794 237 150.213C236.932 150.631 236.773 150.995 236.522 151.304C236.279 151.613 235.957 151.855 235.557 152.028C235.155 152.196 234.691 152.28 234.164 152.28ZM233.993 151.642C234.413 151.642 234.782 151.574 235.099 151.439C235.421 151.298 235.678 151.101 235.871 150.85C236.068 150.592 236.196 150.296 236.253 149.961C236.308 149.62 236.281 149.247 236.172 148.841C236.063 148.435 235.891 148.065 235.655 147.73C235.416 147.389 235.13 147.093 234.796 146.842C234.467 146.584 234.105 146.388 233.708 146.252C233.317 146.111 232.911 146.04 232.491 146.04C232.071 146.04 231.7 146.111 231.378 146.252C231.055 146.388 230.794 146.584 230.596 146.842C230.404 147.093 230.276 147.389 230.215 147.73C230.158 148.065 230.183 148.435 230.292 148.841C230.399 149.24 230.572 149.61 230.81 149.952C231.055 150.293 231.342 150.592 231.671 150.85C232.005 151.101 232.371 151.298 232.769 151.439C233.165 151.574 233.573 151.642 233.993 151.642ZM239.477 152.222L237.665 145.46H238.275L244.679 151.333H244.359L242.785 145.46H243.515L245.327 152.222H244.717L238.323 146.349H238.643L240.217 152.222H239.477ZM250.229 152.222L248.417 145.46H249.157L250.803 151.603H254.723L254.889 152.222H250.229ZM256.118 152.222L254.305 145.46H255.045L256.858 152.222H256.118ZM259.135 152.222L257.323 145.46H257.933L264.337 151.333H264.017L262.443 145.46H263.173L264.985 152.222H264.375L257.981 146.349H258.301L259.875 152.222H259.135ZM266.928 148.484H270.628L270.791 149.092H267.091L266.928 148.484ZM267.844 151.603H272.054L272.22 152.222H267.27L265.458 145.46H270.258L270.423 146.078H266.363L267.844 151.603Z" fill="white"/>
<path d="M218.01 165.988C218.912 164.957 218.552 163.166 217.205 161.988C215.858 160.809 214.035 160.69 213.133 161.721C212.231 162.752 212.592 164.543 213.939 165.721C215.285 166.899 217.108 167.019 218.01 165.988Z" fill="#206BC7"/>
<g style="mix-blend-mode:multiply">
<path d="M218.811 154.385C219.634 157.462 222.8 159.958 225.877 159.958C228.953 159.958 230.779 157.462 229.956 154.385C229.133 151.309 225.966 148.807 222.89 148.807C219.813 148.807 217.988 151.303 218.811 154.385Z" fill="#206BC7"/>
</g>
<path d="M220.701 157.741L217.408 156.686C217.092 156.586 216.986 156.158 217.255 156.084L223.35 154.021C223.411 154.009 223.473 154.01 223.533 154.024C223.593 154.039 223.649 154.067 223.697 154.105C223.745 154.144 223.784 154.193 223.811 154.249C223.837 154.305 223.851 154.366 223.852 154.427L223.398 161.082C223.398 161.372 222.965 161.367 222.796 161.082L220.954 157.915C220.892 157.831 220.803 157.769 220.701 157.741Z" fill="#8FC6C6"/>
<path d="M100.041 55.4142C99.9574 52.8806 98.8923 50.4786 97.0706 48.7158C95.2489 46.953 92.8132 45.9675 90.2782 45.9675C87.7432 45.9675 85.3075 46.953 83.4857 48.7158C81.664 50.4786 80.5989 52.8806 80.5156 55.4142C80.5156 60.8074 89.8085 69.2718 89.8085 69.2718C89.8085 69.2718 100.041 60.8074 100.041 55.4142Z" fill="#FFB701"/>
<path opacity="0.55" d="M83.7156 48.1953C83.2819 49.248 83.0613 50.3761 83.0665 51.5146C83.0665 55.6729 86.0691 60.19 90.296 61.0502C94.3488 61.8787 98.8026 59.0924 100.006 55.1927C100.003 55.1663 100.003 55.1399 100.006 55.1135C99.9517 53.2487 99.3636 51.4385 98.3112 49.8981C97.2589 48.3576 95.7865 47.1515 94.069 46.423C92.3514 45.6946 90.4609 45.4743 88.6219 45.7885C86.7829 46.1026 85.0728 46.938 83.6945 48.1953H83.7156Z" fill="#FFE25E"/>
<path d="M88.6532 66.8074C88.0159 66.6555 87.3913 66.4544 86.7852 66.2058C88.4633 68.0317 89.8195 69.2718 89.8195 69.2718C89.8195 69.2718 90.8326 68.438 92.2152 67.1293C91.0188 67.1835 89.8205 67.0752 88.6532 66.8074Z" fill="#FFE25E"/>
<path d="M87.4412 64.8654C87.4412 64.8654 88.6971 54.6279 87.2829 55.2559C85.8686 55.8839 85.0771 57.4617 86.6496 57.7783C88.2222 58.095 94.5283 57.7783 94.5283 57.7783C94.5283 57.7783 95.0876 55.9841 94.0533 55.5725C92.4702 54.9393 92.4702 60.9287 92.1641 65.1767" stroke="white" stroke-width="0.492768" stroke-miterlimit="10"/>
<path d="M93.7393 67.0712H85.8607C85.5686 67.0698 85.2889 66.9531 85.0824 66.7466C84.8758 66.5401 84.7592 66.2603 84.7578 65.9683C84.7578 65.8234 84.7863 65.68 84.8418 65.5462C84.8972 65.4124 84.9784 65.2908 85.0808 65.1884C85.1833 65.086 85.3048 65.0047 85.4387 64.9493C85.5725 64.8939 85.7159 64.8654 85.8607 64.8654H93.7393C93.8842 64.8654 94.0276 64.8939 94.1614 64.9493C94.2952 65.0047 94.4168 65.086 94.5192 65.1884C94.6216 65.2908 94.7029 65.4124 94.7583 65.5462C94.8137 65.68 94.8422 65.8234 94.8422 65.9683C94.8409 66.2603 94.7242 66.5401 94.5177 66.7466C94.3111 66.9531 94.0314 67.0698 93.7393 67.0712Z" fill="#E1E8F0"/>
<path d="M89.9553 72.1214C88.7442 72.12 87.5831 71.6379 86.7273 70.781C85.8714 69.9242 85.3906 68.7626 85.3906 67.5515V66.7652H94.5252V67.5515C94.5252 68.7635 94.0437 69.9259 93.1867 70.7829C92.3297 71.6399 91.1673 72.1214 89.9553 72.1214Z" fill="#E1E8F0"/>
<g style="mix-blend-mode:multiply">
<path d="M91.8626 71.6887C92.6527 71.3216 93.3211 70.7359 93.7887 70.0008C94.2563 69.2658 94.5036 68.4121 94.5011 67.5409V66.7546H86.0156C87.9505 68.4151 89.8995 70.0598 91.8626 71.6887Z" fill="#E1E8F0"/>
</g>
<path d="M72.6641 55.4724H77.1021" stroke="#FFB701" stroke-width="1.26476" stroke-miterlimit="10" stroke-linecap="round"/>
<path d="M103.742 55.4722H108.18" stroke="#FFB701" stroke-width="1.26476" stroke-miterlimit="10" stroke-linecap="round"/>
<path d="M77.8672 42.9182L81.007 46.058" stroke="#FFB701" stroke-width="1.26476" stroke-miterlimit="10" stroke-linecap="round"/>
<path d="M90.4219 37.7203V42.1583" stroke="#FFB701" stroke-width="1.26476" stroke-miterlimit="10" stroke-linecap="round"/>
<path d="M102.976 42.9182L99.8359 46.058" stroke="#FFB701" stroke-width="1.26476" stroke-miterlimit="10" stroke-linecap="round"/>
<g style="mix-blend-mode:multiply">
<g style="mix-blend-mode:multiply">
<path d="M80.7371 13.0184L78.03 9.15034C77.6644 8.63117 77.1179 8.26749 76.4979 8.13078C75.8778 7.99407 75.229 8.09423 74.6791 8.41156C71.1349 10.4285 67.9471 13.0155 65.2437 16.0685C64.821 16.5377 64.587 17.1468 64.587 17.7783C64.587 18.4098 64.821 19.0189 65.2437 19.4881L68.4944 22.992C68.8662 23.388 69.0983 23.8947 69.1555 24.4349C69.2127 24.975 69.0917 25.5191 68.811 25.9841C67.8214 27.6023 66.9958 29.3153 66.3466 31.0976C66.1683 31.5538 65.8594 31.9473 65.4586 32.2289C65.0579 32.5104 64.5829 32.6676 64.0933 32.6807L58.6368 32.8918C58.049 32.9154 57.4876 33.1425 57.0487 33.5343C56.6098 33.9261 56.3205 34.4581 56.2305 35.0395C55.5662 39.1774 55.5965 43.3971 56.3202 47.525C56.4221 48.1296 56.7397 48.6766 57.2142 49.0648C57.6888 49.453 58.288 49.6558 58.9007 49.6358L63.9455 49.4617C64.4649 49.4386 64.9784 49.5789 65.4139 49.8628C65.8493 50.1468 66.1848 50.5602 66.373 51.0448C66.7098 51.9431 67.092 52.8238 67.5181 53.6833C67.9192 54.4995 68.3554 55.2911 68.8268 56.058C69.0882 56.4905 69.2116 56.9924 69.1805 57.4968C69.1494 58.0012 68.9653 58.4841 68.6527 58.8812L65.4337 63.0501C65.0693 63.5253 64.8839 64.1136 64.9099 64.7119C64.936 65.3101 65.1719 65.8801 65.5762 66.3218C68.4012 69.4095 71.72 72.0061 75.3967 74.0052C75.9284 74.2948 76.5461 74.3848 77.1383 74.259C77.7305 74.1332 78.2582 73.7999 78.6263 73.3192L81.7556 69.2242C82.0678 68.8127 82.4994 68.5077 82.9916 68.3509C83.4837 68.1941 84.0122 68.1932 84.5049 68.3482C86.4242 68.9688 88.4034 69.3863 90.4099 69.5936C90.9609 69.6504 91.4775 69.8884 91.8786 70.2705C92.2798 70.6525 92.5427 71.1568 92.6263 71.7044L93.3387 76.3218C93.4389 76.9516 93.7725 77.5206 94.2731 77.9157C94.7737 78.3107 95.4047 78.5028 96.0405 78.4538C100.185 78.1591 104.25 77.1709 108.067 75.5303C108.6 75.3092 109.043 74.9138 109.323 74.4088C109.603 73.9037 109.703 73.3188 109.608 72.7493L108.616 67.1556C108.528 66.6883 108.577 66.2058 108.756 65.7653C108.934 65.3247 109.236 64.9447 109.624 64.6701C111.14 63.6361 112.554 62.4592 113.845 61.1556C114.228 60.7674 114.727 60.5154 115.267 60.4382C115.806 60.361 116.356 60.4628 116.832 60.7282L121.001 63.029C121.553 63.3328 122.198 63.42 122.811 63.2737C123.424 63.1273 123.96 62.7579 124.315 62.2374C126.654 58.8145 128.417 55.0319 129.534 51.0395C129.696 50.4688 129.653 49.8595 129.413 49.3169C129.173 48.7744 128.751 48.3328 128.22 48.0686L123.397 45.7361C122.948 45.5196 122.575 45.1735 122.326 44.7426C122.077 44.3117 121.963 43.8158 121.998 43.3192C122.149 41.4578 122.117 39.5861 121.903 37.7308C121.847 37.2048 121.959 36.6744 122.224 36.2163C122.488 35.7582 122.892 35.396 123.376 35.182L127.898 33.1609C128.461 32.9077 128.913 32.4575 129.167 31.8948C129.422 31.3321 129.462 30.6958 129.281 30.1055C128.689 28.1566 127.939 26.2594 127.038 24.4327C126.12 22.5708 125.052 20.7866 123.845 19.0976C123.483 18.5927 122.949 18.2382 122.343 18.101C121.737 17.9639 121.102 18.0537 120.558 18.3535L116.262 20.7229C115.795 20.9815 115.257 21.0841 114.728 21.0158C114.198 20.9475 113.704 20.7117 113.318 20.343C111.856 18.9339 110.248 17.685 108.521 16.6174C108.064 16.331 107.712 15.9057 107.516 15.4042C107.319 14.9027 107.288 14.3513 107.428 13.8311L108.705 9.09229C108.868 8.49104 108.803 7.851 108.522 7.29493C108.242 6.73886 107.766 6.3059 107.186 6.0791C103.359 4.56681 99.311 3.68811 95.2015 3.47752C94.5793 3.44416 93.9665 3.64084 93.48 4.03009C92.9934 4.41935 92.667 4.97397 92.563 5.58834L91.7239 10.4379C91.6364 10.9613 91.3847 11.4433 91.0053 11.8142C90.6259 12.1851 90.1383 12.4257 89.6131 12.5013C87.5824 12.7633 85.5864 13.2464 83.6606 13.9419C83.1397 14.1323 82.5704 14.145 82.0416 13.9779C81.5128 13.8109 81.0541 13.4735 80.7371 13.0184ZM99.9139 22.9182C121.835 34.0949 111.703 63.8733 87.5128 59.3667C87.2499 59.3181 86.9957 59.231 86.7582 59.1081C64.8479 47.9261 74.9746 18.1635 99.154 22.6596C99.4173 22.7023 99.6731 22.7823 99.9139 22.897V22.9182Z" fill="#E1E8F0"/>
</g>
<g style="mix-blend-mode:multiply">
<path d="M22.8281 48.0263L20.6434 44.9076C20.3492 44.4881 19.9082 44.1946 19.4077 44.0851C18.9073 43.9756 18.3839 44.0582 17.9415 44.3166C15.0852 45.939 12.5174 48.0235 10.3426 50.4854C9.99994 50.8623 9.81009 51.3534 9.81009 51.8627C9.81009 52.3721 9.99994 52.8632 10.3426 53.24L12.9811 56.0633C13.2801 56.3827 13.467 56.7908 13.5137 57.2258C13.5603 57.6609 13.4641 58.0993 13.2397 58.4749C12.4376 59.7872 11.7693 61.1768 11.2449 62.6226C11.1034 62.9925 10.8554 63.3122 10.5323 63.5414C10.2093 63.7705 9.82556 63.8989 9.42964 63.9102L5.03387 64.0791C4.56313 64.098 4.1132 64.2782 3.75961 64.5895C3.40601 64.9008 3.17026 65.3243 3.09191 65.7889C2.56025 69.1226 2.58521 72.5214 3.16579 75.8469C3.24959 76.3326 3.50623 76.7716 3.88836 77.083C4.27048 77.3943 4.75231 77.5569 5.24495 77.5408L9.31355 77.3984C9.7328 77.3817 10.1467 77.497 10.497 77.728C10.8472 77.959 11.1162 78.294 11.2661 78.686C11.5365 79.4139 11.8447 80.1273 12.1895 80.8232C12.5077 81.4797 12.86 82.119 13.2449 82.7387C13.456 83.0881 13.5555 83.4935 13.53 83.9008C13.5046 84.3082 13.3554 84.6981 13.1025 85.0184L10.5062 88.3641C10.211 88.7468 10.0607 89.2216 10.0819 89.7045C10.1032 90.1874 10.2946 90.6472 10.6223 91.0026C12.9 93.4883 15.575 95.5783 18.5378 97.1873C18.9637 97.4252 19.4608 97.5028 19.9389 97.406C20.4171 97.3092 20.8448 97.0444 21.1447 96.6596L23.6618 93.3614C23.9129 93.029 24.2608 92.7825 24.6577 92.6559C25.0546 92.5292 25.481 92.5287 25.8782 92.6543C27.4219 93.1535 29.0137 93.4896 30.6275 93.6569C31.0719 93.704 31.4883 93.8967 31.8118 94.205C32.1354 94.5132 32.3479 94.9198 32.4165 95.3614L32.9864 99.0817C33.067 99.5903 33.3359 100.05 33.7395 100.37C34.1432 100.689 34.6523 100.845 35.1658 100.807C38.5057 100.562 41.7808 99.7571 44.8544 98.4274C45.2833 98.2491 45.6392 97.9309 45.8644 97.5247C46.0895 97.1185 46.1706 96.6481 46.0946 96.1899L45.2977 91.678C45.2278 91.3024 45.2666 90.9146 45.4096 90.5602C45.5527 90.2059 45.794 89.8998 46.1051 89.678C47.3226 88.8463 48.4555 87.8972 49.4877 86.8443C49.7972 86.5318 50.2004 86.3292 50.6358 86.2673C51.0712 86.2054 51.5149 86.2875 51.8993 86.5013L55.2555 88.3535C55.7009 88.5994 56.222 88.6703 56.7169 88.5522C57.2117 88.4341 57.6447 88.1355 57.931 87.715C59.8235 84.9589 61.2497 81.9103 62.1526 78.6912C62.2838 78.2322 62.2501 77.7418 62.0573 77.3051C61.8645 76.8684 61.5248 76.513 61.0972 76.3007L57.2133 74.3852C56.8528 74.2115 56.5528 73.9335 56.3523 73.5872C56.1519 73.2409 56.0602 72.8423 56.0893 72.4432C56.2079 70.942 56.1814 69.4328 56.0101 67.9366C55.9649 67.5128 56.0555 67.0855 56.2689 66.7165C56.4823 66.3476 56.8075 66.056 57.1975 65.8838L60.8386 64.2532C61.2933 64.0508 61.6582 63.6889 61.8643 63.2358C62.0704 62.7828 62.1035 62.2699 61.9573 61.7941C61.48 60.2222 60.8746 58.692 60.1473 57.2189C59.409 55.7196 58.5495 54.2829 57.5774 52.9234C57.2868 52.5184 56.8581 52.2337 56.3721 52.1228C55.8861 52.012 55.3763 52.0828 54.9389 52.3218L51.4771 54.2321C51.1003 54.4418 50.666 54.5247 50.2384 54.4686C49.8108 54.4126 49.4126 54.2205 49.1025 53.9208C47.9219 52.7894 46.6274 51.7831 45.2397 50.9181C44.8708 50.6891 44.5858 50.347 44.427 49.9429C44.2683 49.5388 44.2442 49.0943 44.3584 48.6754L45.3821 44.8812C45.5119 44.3961 45.4588 43.8803 45.2331 43.4318C45.0074 42.9833 44.6247 42.6333 44.1579 42.4485C41.0742 41.2274 37.8128 40.5146 34.5009 40.3377C34.0037 40.3135 33.5148 40.4718 33.1261 40.7828C32.7374 41.0937 32.4757 41.536 32.3901 42.0263L31.6618 45.9524C31.5901 46.3769 31.3845 46.7672 31.0749 47.0663C30.7653 47.3655 30.3682 47.5576 29.9415 47.6147C28.3059 47.8275 26.6978 48.215 25.1447 48.7704C24.7303 48.9166 24.2794 48.9229 23.861 48.7886C23.4427 48.6542 23.0798 48.3865 22.8281 48.0263ZM38.2792 56.0052C55.9415 65.0131 47.7779 89.0079 28.2845 85.3772C28.0736 85.3374 27.8693 85.2681 27.6777 85.1714C10.0207 76.1582 18.179 52.1741 37.6671 55.7994C37.8799 55.8384 38.0861 55.9077 38.2792 56.0052Z" fill="#E1E8F0"/>
</g>
</g>
<path d="M25.2265 166.077C28.6038 165.103 30.5524 161.576 29.5789 158.199C28.6054 154.822 25.0784 152.873 21.7011 153.846C18.3238 154.82 16.3751 158.347 17.3487 161.724C18.3222 165.102 21.8492 167.05 25.2265 166.077Z" fill="#407BFF"/>
<path d="M17.8523 144.792C17.8523 144.173 17.6688 143.568 17.3249 143.053C16.9811 142.538 16.4924 142.137 15.9206 141.9C15.3488 141.664 14.7196 141.602 14.1125 141.722C13.5055 141.843 12.9479 142.141 12.5103 142.579C12.0727 143.016 11.7746 143.574 11.6539 144.181C11.5331 144.788 11.5951 145.417 11.832 145.989C12.0688 146.561 12.4699 147.05 12.9845 147.393C13.4991 147.737 14.1041 147.921 14.723 147.921C15.5525 147.919 16.3477 147.589 16.9342 147.003C17.5208 146.416 17.8509 145.621 17.8523 144.792Z" fill="#407BFF"/>
<path d="M48.1258 29.525C48.1258 28.9061 47.9422 28.3011 47.5984 27.7865C47.2545 27.2719 46.7658 26.8708 46.194 26.634C45.6222 26.3971 44.993 26.3351 44.386 26.4559C43.779 26.5766 43.2214 26.8747 42.7837 27.3123C42.3461 27.7499 42.0481 28.3075 41.9273 28.9145C41.8066 29.5216 41.8685 30.1508 42.1054 30.7226C42.3422 31.2944 42.7433 31.7831 43.2579 32.1269C43.7725 32.4708 44.3776 32.6543 44.9965 32.6543C45.8264 32.6543 46.6224 32.3246 47.2092 31.7378C47.7961 31.1509 48.1258 30.355 48.1258 29.525Z" fill="#407BFF"/>
<path d="M296.212 186.253C296.212 185.634 296.028 185.029 295.684 184.515C295.34 184 294.852 183.599 294.28 183.362C293.708 183.125 293.079 183.063 292.472 183.184C291.865 183.305 291.307 183.603 290.87 184.041C290.432 184.478 290.134 185.036 290.013 185.643C289.893 186.25 289.954 186.879 290.191 187.451C290.428 188.023 290.829 188.511 291.344 188.855C291.858 189.199 292.464 189.383 293.082 189.383C293.912 189.383 294.708 189.053 295.295 188.466C295.882 187.879 296.212 187.083 296.212 186.253Z" fill="#407BFF"/>
<path d="M271.555 88.38C271.556 87.7608 271.374 87.1553 271.031 86.64C270.687 86.1247 270.199 85.7228 269.627 85.4851C269.056 85.2475 268.426 85.1848 267.819 85.3049C267.212 85.4251 266.653 85.7227 266.215 86.1601C265.777 86.5975 265.479 87.1551 265.357 87.7623C265.236 88.3694 265.298 88.9989 265.535 89.571C265.771 90.1431 266.172 90.6322 266.687 90.9763C267.202 91.3203 267.807 91.504 268.426 91.504C268.837 91.5047 269.244 91.4244 269.623 91.2677C270.003 91.111 270.348 90.881 270.639 90.5909C270.929 90.3007 271.16 89.9561 271.317 89.5767C271.474 89.1974 271.555 88.7907 271.555 88.38Z" fill="#407BFF"/>
<path d="M140.38 43.6727C143.365 43.6727 145.784 41.2534 145.784 38.269C145.784 35.2846 143.365 32.8653 140.38 32.8653C137.396 32.8653 134.977 35.2846 134.977 38.269C134.977 41.2534 137.396 43.6727 140.38 43.6727Z" fill="#407BFF"/>
</svg>
