<svg width="337" height="200" viewBox="0 0 337 200" fill="none" xmlns="http://www.w3.org/2000/svg">
<g clip-path="url(#clip0_1200_18131)">
<path d="M95.2491 0.00994873H65.1367V41.2182H95.2491V0.00994873Z" fill="#F5F5F5"/>
<path d="M87.6163 5.19897H57.5039V46.4073H87.6163V5.19897Z" fill="#E0E0E0"/>
<path d="M229.555 61.5507H229.361H228.778H226.51L218.001 61.5806L188.646 61.6803H188.566V61.6005C188.244 60.4972 188.187 59.3333 188.4 58.2036C188.612 57.074 189.089 56.0106 189.79 55.1001C190.492 54.1896 191.399 53.4577 192.437 52.964C193.475 52.4703 194.615 52.2289 195.764 52.2593L195.659 52.4038C195.474 51.7564 195.396 51.0827 195.43 50.4099C195.465 49.2827 195.793 48.1839 196.382 47.2222C196.971 46.2606 197.801 45.4694 198.79 44.9268C199.752 44.425 200.822 44.1658 201.907 44.1719C202.992 44.178 204.059 44.4491 205.016 44.9617L204.861 45.0165C205.392 43.7861 206.173 42.679 207.154 41.7653C208.134 40.8517 209.294 40.1511 210.559 39.7079C211.723 39.2678 212.964 39.0708 214.208 39.1291C215.451 39.1874 216.669 39.4998 217.786 40.0468C219.802 41.1095 221.387 42.8374 222.273 44.9368C223.082 46.779 223.274 48.8334 222.821 50.7938L222.741 50.6991C223.898 50.5793 225.067 50.7506 226.141 51.1975C227.096 51.5833 227.957 52.1718 228.663 52.9222C228.984 53.26 229.251 53.645 229.455 54.0637C229.637 54.4505 229.779 54.8547 229.879 55.27C230.051 55.996 230.147 56.7376 230.168 57.4832C230.203 58.507 230.114 59.5312 229.904 60.5338C229.848 60.7954 229.776 61.0534 229.69 61.3064L229.6 61.5557" fill="#EBEBEB"/>
<path d="M307.849 41.9659C306.46 42.1978 305.164 42.8161 304.109 43.7501C303.055 44.6841 302.285 45.8961 301.887 47.2474C301.49 48.5987 301.48 50.0346 301.861 51.3909C302.241 52.7472 302.995 53.969 304.038 54.9165C305.08 55.864 306.368 56.499 307.754 56.7487C309.14 56.9984 310.569 56.8527 311.876 56.3284C313.184 55.8041 314.317 54.9223 315.147 53.784C315.976 52.6456 316.469 51.2967 316.567 49.8916L318.626 49.5476L319.743 47.2248L321.348 49.089L323.925 48.6603L325.026 46.3475L326.631 48.2117L328.845 47.8429L329.518 46.4322L330.515 47.5687L331.806 47.3544L333.221 45.4801L330.794 42.8083L315.466 45.3555C314.674 44.1005 313.527 43.1087 312.172 42.5053C310.816 41.902 309.312 41.7142 307.849 41.9659ZM303.672 50.2704C303.603 49.8509 303.659 49.4202 303.834 49.0326C304.009 48.645 304.294 48.3179 304.655 48.0924C305.015 47.867 305.434 47.7533 305.86 47.7658C306.285 47.7782 306.696 47.9162 307.043 48.1624C307.39 48.4086 307.656 48.7519 307.808 49.149C307.96 49.5462 307.991 49.9794 307.897 50.3941C307.803 50.8088 307.588 51.1864 307.28 51.4793C306.971 51.7722 306.583 51.9673 306.164 52.0399C305.884 52.0885 305.598 52.0812 305.321 52.0184C305.043 51.9556 304.781 51.8386 304.55 51.6741C304.318 51.5096 304.121 51.3009 303.971 51.0599C303.82 50.819 303.719 50.5507 303.672 50.2704Z" fill="#EBEBEB"/>
<path d="M300.239 99.3096L301.166 116.307C301.182 116.599 301.308 116.874 301.519 117.076C301.73 117.278 302.011 117.392 302.303 117.394L332.884 117.613C333.034 117.615 333.184 117.586 333.323 117.53C333.463 117.473 333.59 117.39 333.697 117.285C333.805 117.179 333.89 117.053 333.949 116.915C334.008 116.776 334.039 116.627 334.04 116.477L334.135 103.248C334.136 103.096 334.108 102.946 334.051 102.806C333.994 102.665 333.909 102.538 333.803 102.43C333.696 102.323 333.569 102.238 333.43 102.179C333.29 102.121 333.14 102.091 332.988 102.091H314.181C314.031 102.092 313.882 102.062 313.743 102.004C313.604 101.945 313.479 101.86 313.374 101.752L310.129 98.5121C309.915 98.2992 309.628 98.1777 309.326 98.1731L301.396 98.1183C301.24 98.1168 301.086 98.1469 300.943 98.2067C300.8 98.2665 300.67 98.3548 300.562 98.4662C300.454 98.5776 300.37 98.7098 300.314 98.8547C300.259 98.9997 300.233 99.1545 300.239 99.3096Z" fill="#EBEBEB"/>
<path d="M334.159 100.097L300.742 99.852L300.596 119.82L334.012 120.065L334.159 100.097Z" fill="#F5F5F5"/>
<path d="M298.076 101.622L300.473 122.458C300.493 122.638 300.578 122.805 300.712 122.926C300.846 123.047 301.02 123.115 301.201 123.116L333.766 123.351C333.951 123.353 334.13 123.284 334.267 123.159C334.404 123.034 334.489 122.862 334.504 122.678L336.298 101.867C336.307 101.765 336.295 101.663 336.262 101.566C336.23 101.47 336.177 101.381 336.108 101.306C336.039 101.231 335.955 101.171 335.862 101.13C335.768 101.09 335.667 101.069 335.566 101.069L298.809 100.8C298.704 100.799 298.601 100.821 298.506 100.863C298.41 100.905 298.325 100.967 298.256 101.045C298.187 101.123 298.135 101.215 298.104 101.314C298.073 101.414 298.063 101.519 298.076 101.622Z" fill="#EBEBEB"/>
<path d="M296.379 193.151C288.628 187.738 286.869 177.699 287.178 168.646C287.228 167.151 287.063 165.546 287.781 164.225C288.499 162.904 290.168 161.997 291.519 162.63C292.641 163.158 293.129 164.464 293.757 165.541C294.592 166.979 295.818 168.151 297.292 168.921C298.254 169.419 299.445 169.723 300.392 169.2C301.693 168.482 301.848 166.682 301.838 165.182C301.818 162.384 301.799 159.589 301.783 156.798C301.692 155.298 301.845 153.793 302.236 152.342C302.705 150.916 303.732 149.595 305.162 149.191C306.593 148.787 308.353 149.615 308.652 151.085C308.707 151.707 308.721 152.331 308.692 152.955C308.736 153.578 309.025 154.266 309.614 154.45C310.202 154.634 310.815 154.201 311.264 153.757C312.814 152.262 313.861 150.293 314.843 148.354C315.825 146.415 316.782 144.426 318.187 142.771C319.593 141.116 321.532 139.81 323.67 139.69C325.809 139.571 328.112 140.897 328.655 143.005C329.198 145.114 327.962 147.267 326.621 148.987C324.627 151.526 322.277 153.764 319.643 155.631C319.138 155.919 318.736 156.358 318.496 156.888C318.172 157.885 319.119 158.881 320.106 159.21C321.223 159.584 322.439 159.465 323.596 159.604C324.752 159.744 326.033 160.257 326.477 161.364C327.09 162.894 325.809 164.504 324.548 165.556C322.025 167.663 319.158 169.32 316.074 170.456C314.967 170.86 313.806 171.214 312.919 171.991C312.031 172.769 311.488 174.115 312.026 175.171C312.565 176.228 313.945 176.567 315.102 176.353C316.258 176.138 317.29 175.51 318.392 175.097C320.455 174.319 323.117 174.459 324.438 176.243C324.841 176.856 325.096 177.554 325.182 178.283C325.269 179.011 325.185 179.75 324.937 180.44C324.434 181.816 323.661 183.077 322.664 184.149C319.393 188.064 315.143 191.041 310.346 192.777C305.566 194.437 301.135 194.886 296.389 193.146" fill="#EBEBEB"/>
<path d="M296.258 199.85C296.68 195.661 297.502 191.522 298.71 187.488C300.212 182.572 301.995 177.746 304.049 173.033L305.639 169.314C306.167 168.093 306.686 166.882 307.269 165.73C308.393 163.519 309.639 161.372 311.002 159.3C312.288 157.306 313.58 155.472 314.801 153.762C316.022 152.052 317.198 150.482 318.325 149.096C320.095 146.89 322.039 144.828 324.137 142.93C324.875 142.263 325.468 141.764 325.872 141.435L326.335 141.056C326.384 141.009 326.44 140.969 326.5 140.937L326.355 141.081C326.241 141.176 326.096 141.31 325.907 141.475C325.513 141.824 324.91 142.337 324.207 143.015C322.146 144.933 320.23 147 318.474 149.201C317.358 150.592 316.201 152.167 314.985 153.877C313.769 155.587 312.493 157.436 311.212 159.42C309.862 161.497 308.628 163.647 307.513 165.86C306.935 167.006 306.417 168.203 305.893 169.429L304.298 173.148C302.251 177.863 300.467 182.689 298.955 187.603C297.742 191.619 296.908 195.739 296.462 199.91" fill="#E0E0E0"/>
<path d="M307.352 165.7C307.283 165.491 307.235 165.276 307.208 165.057C307.128 164.644 307.033 164.061 306.929 163.293C306.714 161.797 306.495 159.729 306.256 157.441C306.016 155.153 305.757 153.089 305.533 151.604C305.418 150.861 305.319 150.258 305.249 149.844C305.194 149.631 305.166 149.412 305.164 149.191C305.25 149.395 305.314 149.607 305.353 149.824C305.458 150.228 305.588 150.821 305.727 151.569C306.011 153.064 306.296 155.123 306.53 157.411C306.764 159.699 306.964 161.708 307.123 163.268C307.198 163.971 307.263 164.569 307.312 165.042C307.351 165.26 307.365 165.48 307.352 165.7Z" fill="#E0E0E0"/>
<path d="M326.642 162.092C326.389 162.149 326.13 162.181 325.87 162.186C325.371 162.231 324.658 162.291 323.776 162.391C322.011 162.585 319.579 162.934 316.917 163.432C314.255 163.931 311.858 164.504 310.138 164.958C309.276 165.182 308.583 165.381 308.104 165.516C307.859 165.599 307.607 165.66 307.352 165.7C307.583 165.582 307.825 165.485 308.074 165.411C308.543 165.242 309.231 165.018 310.068 164.768C311.778 164.27 314.171 163.667 316.842 163.158C319.124 162.719 321.427 162.398 323.741 162.196C324.628 162.116 325.346 162.087 325.845 162.077C326.111 162.061 326.377 162.066 326.642 162.092Z" fill="#E0E0E0"/>
<path d="M298.949 187.135C298.895 187.061 298.85 186.98 298.815 186.895C298.725 186.711 298.616 186.477 298.486 186.197C298.202 185.594 297.813 184.702 297.349 183.595C296.417 181.387 295.231 178.297 293.965 174.867C292.699 171.438 291.537 168.332 290.655 166.109C290.221 165.028 289.867 164.115 289.598 163.472L289.319 162.754C289.281 162.672 289.252 162.585 289.234 162.495C289.289 162.569 289.334 162.65 289.369 162.735L289.698 163.432C289.982 164.036 290.371 164.928 290.834 166.034C291.767 168.243 292.953 171.333 294.219 174.768C295.485 178.202 296.647 181.297 297.529 183.521L298.586 186.158L298.865 186.875C298.903 186.958 298.932 187.045 298.949 187.135Z" fill="#E0E0E0"/>
<path d="M324.584 178.87C324.505 178.916 324.419 178.951 324.33 178.975L323.582 179.224L320.841 180.116C318.523 180.869 315.333 181.94 311.814 183.107C308.294 184.273 305.084 185.35 302.751 186.053C301.585 186.407 300.638 186.681 299.98 186.855L299.222 187.055C299.135 187.082 299.044 187.1 298.953 187.11C299.033 187.062 299.118 187.025 299.207 187L299.95 186.756L302.697 185.863C305.014 185.111 308.18 184.039 311.724 182.843C315.268 181.646 318.448 180.605 320.781 179.902C321.947 179.548 322.895 179.274 323.552 179.099L324.315 178.9C324.404 178.88 324.494 178.87 324.584 178.87Z" fill="#E0E0E0"/>
<path d="M327.916 199.87C327.916 199.945 256.252 200 167.869 200C79.4853 200 7.80078 199.945 7.80078 199.87C7.80078 199.796 79.4504 199.756 167.869 199.756C256.287 199.756 327.916 199.801 327.916 199.87Z" fill="#263238"/>
<path d="M290.997 182.469C291.864 183.59 293.424 183.127 294.122 182.379C294.82 181.631 295.074 180.595 295.308 179.598C295.837 177.33 296.37 174.952 295.777 172.699C295.625 172.014 295.289 171.383 294.805 170.875C294.559 170.626 294.253 170.446 293.916 170.354C293.579 170.261 293.224 170.258 292.886 170.346C292.098 170.595 291.645 171.398 291.326 172.161C290.382 174.403 289.951 176.828 290.065 179.259C290.043 180.398 290.368 181.518 290.997 182.469Z" fill="#455A64"/>
<g opacity="0.2">
<path d="M290.997 182.469C291.864 183.59 293.424 183.127 294.122 182.379C294.82 181.631 295.074 180.595 295.308 179.598C295.837 177.33 296.37 174.952 295.777 172.699C295.625 172.014 295.289 171.383 294.805 170.875C294.559 170.626 294.253 170.446 293.916 170.354C293.579 170.261 293.224 170.258 292.886 170.346C292.098 170.595 291.645 171.398 291.326 172.161C290.382 174.403 289.951 176.828 290.065 179.259C290.043 180.398 290.368 181.518 290.997 182.469Z" fill="black"/>
</g>
<path d="M294.322 188.191C295.652 187.482 297.174 187.219 298.664 187.439C299.473 187.472 300.248 187.774 300.867 188.296C301.441 188.864 301.595 189.906 301.002 190.449C300.614 190.737 300.139 190.883 299.656 190.863C298.5 190.908 297.209 190.768 296.321 191.511C295.823 191.93 295.499 192.608 294.881 192.837C294.569 192.925 294.237 192.909 293.935 192.792C293.633 192.676 293.377 192.464 293.206 192.189C292.878 191.626 292.778 190.959 292.927 190.325C292.979 189.886 293.132 189.464 293.374 189.094C293.616 188.724 293.941 188.415 294.322 188.191Z" fill="#455A64"/>
<path d="M288.838 184.248C289.227 183.682 289.472 183.029 289.552 182.346C289.632 181.664 289.544 180.972 289.297 180.33C288.78 179.046 287.917 177.93 286.804 177.105C285.546 176.096 284.104 175.341 282.557 174.882C281.959 174.676 281.323 174.601 280.693 174.663C280.382 174.696 280.084 174.805 279.823 174.978C279.563 175.152 279.348 175.386 279.198 175.66C278.804 176.512 279.273 177.494 279.766 178.287C280.63 179.691 281.603 181.024 282.677 182.274C283.544 183.271 284.526 184.268 285.783 184.672C287.039 185.076 288.325 184.961 288.938 184.074" fill="#455A64"/>
<path d="M291.829 199.975C291.863 199.801 291.878 199.624 291.874 199.447C291.874 199.058 291.919 198.574 291.944 197.996C291.969 197.418 292.034 196.665 292.158 195.873C292.305 195.013 292.52 194.166 292.801 193.34C293.076 192.517 293.466 191.737 293.958 191.023C294.361 190.441 294.889 189.957 295.503 189.607C295.917 189.371 296.367 189.202 296.834 189.108C297.003 189.093 297.17 189.059 297.333 189.009C297.155 188.988 296.976 188.988 296.799 189.009C296.313 189.069 295.842 189.218 295.408 189.447C294.761 189.79 294.202 190.28 293.778 190.878C293.263 191.604 292.859 192.402 292.577 193.246C292.292 194.083 292.08 194.944 291.944 195.818C291.841 196.53 291.783 197.247 291.77 197.966C291.77 198.579 291.77 199.078 291.77 199.417C291.768 199.605 291.788 199.792 291.829 199.975Z" fill="#263238"/>
<path d="M291.867 198.863C291.874 198.782 291.874 198.701 291.867 198.619C291.867 198.435 291.867 198.201 291.832 197.916C291.797 197.313 291.752 196.421 291.732 195.344C291.678 193.171 291.732 190.17 291.907 186.87C292.081 183.571 292.435 180.57 292.764 178.421C292.844 177.883 292.924 177.399 292.998 176.976C293.073 176.552 293.133 176.183 293.198 175.884C293.263 175.585 293.293 175.386 293.327 175.196C293.344 175.116 293.354 175.034 293.357 174.952C293.321 175.026 293.296 175.105 293.283 175.186L293.113 175.869C293.038 176.163 292.964 176.527 292.879 176.951C292.794 177.375 292.699 177.858 292.615 178.396C292.154 181.202 291.845 184.031 291.688 186.87C291.493 190.185 291.483 193.201 291.578 195.374C291.618 196.466 291.688 197.343 291.747 197.951L291.822 198.649C291.827 198.722 291.843 198.794 291.867 198.863Z" fill="#263238"/>
<path d="M291.588 193.066C291.593 192.823 291.578 192.579 291.543 192.339C291.468 191.677 291.36 191.02 291.219 190.37C291.014 189.404 290.751 188.452 290.432 187.518C290.051 186.369 289.59 185.248 289.051 184.164C288.112 182.166 286.818 180.356 285.233 178.82C284.957 178.558 284.666 178.314 284.36 178.087C284.226 177.988 284.106 177.888 283.987 177.808L283.653 177.599C283.449 177.465 283.237 177.344 283.02 177.235C283.755 177.76 284.459 178.327 285.128 178.935C286.659 180.487 287.913 182.289 288.837 184.263C289.373 185.337 289.836 186.446 290.222 187.583C290.545 188.509 290.821 189.451 291.05 190.404C291.244 191.217 291.364 191.9 291.444 192.349C291.472 192.591 291.52 192.831 291.588 193.066Z" fill="#263238"/>
<path d="M56.4856 87.9745H0.128906V125.718H56.4856V87.9745Z" fill="#FAFAFA"/>
<path d="M41.178 110.869H39.6826V101.832C39.6463 100.812 39.2158 99.8468 38.4817 99.1384C37.7477 98.43 36.7673 98.0341 35.7472 98.0341C34.7271 98.0341 33.7467 98.43 33.0127 99.1384C32.2786 99.8468 31.8481 100.812 31.8118 101.832V110.869H30.3164V101.832C30.3592 100.419 30.9507 99.0778 31.9654 98.0933C32.9801 97.1088 34.3384 96.5582 35.7522 96.5582C37.166 96.5582 38.5242 97.1088 39.539 98.0933C40.5537 99.0778 41.1452 100.419 41.188 101.832L41.178 110.869Z" fill="#263238"/>
<path d="M41.4881 106.846H29.9984C29.0651 106.846 28.3086 107.603 28.3086 108.536V114.697C28.3086 115.631 29.0651 116.387 29.9984 116.387H41.4881C42.4213 116.387 43.1779 115.631 43.1779 114.697V108.536C43.1779 107.603 42.4213 106.846 41.4881 106.846Z" fill="#263238"/>
<path d="M35.7451 111.617C35.4996 111.617 35.2596 111.544 35.0555 111.408C34.8514 111.271 34.6923 111.077 34.5984 110.851C34.5044 110.624 34.4799 110.374 34.5278 110.133C34.5756 109.893 34.6939 109.672 34.8674 109.498C35.041 109.324 35.2622 109.206 35.5029 109.158C35.7437 109.11 35.9933 109.135 36.2201 109.229C36.4469 109.323 36.6407 109.482 36.7771 109.686C36.9135 109.89 36.9863 110.13 36.9863 110.376C36.9863 110.705 36.8555 111.02 36.6227 111.253C36.39 111.486 36.0743 111.617 35.7451 111.617Z" fill="#455A64"/>
<path d="M36.0803 110.869H35.4023V113.426H36.0803V110.869Z" fill="#455A64"/>
<path d="M27.9371 110.759C29.0136 110.285 29.9272 109.505 30.5643 108.516C31.2014 107.527 31.5341 106.373 31.5211 105.197C31.5211 101.872 29.0288 99.1651 25.9034 99.1501C22.778 99.1352 20.2508 101.817 20.2358 105.132C20.2099 106.32 20.5384 107.488 21.1793 108.489C21.8203 109.489 22.7447 110.276 23.8348 110.749C15.1764 112.07 15.5452 121.496 15.5452 121.496L36.0771 121.591C36.0771 121.591 36.5457 112.06 27.9371 110.759Z" fill="#407BFF"/>
<path d="M56.4858 125.723C56.4858 125.723 56.4858 125.484 56.4858 125.031C56.4858 124.577 56.4858 123.909 56.4858 123.037C56.4858 121.287 56.4858 118.725 56.4558 115.445C56.4558 108.885 56.4259 99.4642 56.406 87.9745L56.5057 88.0792H0.178896L0.308497 87.9496C0.308497 101.408 0.308497 114.184 0.308497 125.698L0.19385 125.579L40.784 125.634L52.3884 125.669H55.4739H56.2714H56.5456H55.5038H52.4382L40.8638 125.703L0.19385 125.758H0.0742188V125.644C0.0742188 114.129 0.0742188 101.343 0.0742188 87.8947V87.7651H0.208805L56.5605 87.795H56.6652V87.8947C56.6652 99.4093 56.6253 108.855 56.6104 115.43C56.6104 118.7 56.6104 121.257 56.5855 123.002C56.5855 123.864 56.5855 124.522 56.5855 124.996C56.5855 125.469 56.4858 125.723 56.4858 125.723Z" fill="#263238"/>
<path d="M56.477 92.5105C56.477 92.5803 43.8658 92.6401 28.3186 92.6401C12.7714 92.6401 0.160156 92.5803 0.160156 92.5105C0.160156 92.4407 12.7664 92.3809 28.3186 92.3809C43.8707 92.3809 56.477 92.4407 56.477 92.5105Z" fill="#263238"/>
<path d="M3.84219 90.2475C3.84219 90.3629 3.80799 90.4756 3.74391 90.5715C3.67982 90.6674 3.58874 90.7422 3.48217 90.7863C3.3756 90.8305 3.25834 90.842 3.14521 90.8195C3.03208 90.797 2.92816 90.7415 2.8466 90.6599C2.76504 90.5783 2.70949 90.4744 2.68699 90.3613C2.66448 90.2482 2.67603 90.1309 2.72017 90.0243C2.76432 89.9178 2.83907 89.8267 2.93498 89.7626C3.03088 89.6985 3.14364 89.6643 3.25899 89.6643C3.41366 89.6643 3.56201 89.7257 3.67138 89.8351C3.78075 89.9445 3.84219 90.0928 3.84219 90.2475Z" fill="#263238"/>
<path d="M5.75235 90.2475C5.75235 90.4022 5.69091 90.5505 5.58153 90.6599C5.47216 90.7693 5.32382 90.8307 5.16914 90.8307C5.01447 90.8307 4.86613 90.7693 4.75676 90.6599C4.64738 90.5505 4.58594 90.4022 4.58594 90.2475C4.58594 90.0928 4.64738 89.9445 4.75676 89.8351C4.86613 89.7257 5.01447 89.6643 5.16914 89.6643C5.32382 89.6643 5.47216 89.7257 5.58153 89.8351C5.69091 89.9445 5.75235 90.0928 5.75235 90.2475Z" fill="#263238"/>
<path d="M7.79923 90.2475C7.79919 90.3622 7.76533 90.4744 7.70188 90.5699C7.63843 90.6655 7.54822 90.7402 7.44252 90.7848C7.33682 90.8293 7.22033 90.8417 7.10763 90.8204C6.99492 90.7991 6.89101 90.745 6.80888 90.6649C6.72676 90.5848 6.67006 90.4823 6.6459 90.3702C6.62174 90.2581 6.63117 90.1413 6.67303 90.0345C6.71489 89.9277 6.78731 89.8356 6.88123 89.7698C6.97515 89.7039 7.0864 89.6673 7.20107 89.6643C7.2789 89.6623 7.35635 89.6759 7.42884 89.7043C7.50134 89.7328 7.56741 89.7754 7.62316 89.8298C7.67891 89.8841 7.72321 89.9491 7.75345 90.0208C7.78369 90.0926 7.79925 90.1697 7.79923 90.2475Z" fill="#263238"/>
<path d="M56.4858 125.723C56.4858 125.723 56.4858 125.484 56.4858 125.031C56.4858 124.577 56.4858 123.909 56.4858 123.037C56.4858 121.287 56.4858 118.725 56.4558 115.445C56.4558 108.885 56.4259 99.4642 56.406 87.9745L56.5057 88.0792H0.178896L0.308497 87.9496C0.308497 101.408 0.308497 114.184 0.308497 125.698L0.19385 125.579L40.784 125.634L52.3884 125.669H55.4739H56.2714H56.5456H55.5038H52.4382L40.8638 125.703L0.19385 125.758H0.0742188V125.644C0.0742188 114.129 0.0742188 101.343 0.0742188 87.8947V87.7651H0.208805L56.5605 87.795H56.6652V87.8947C56.6652 99.4093 56.6253 108.855 56.6104 115.43C56.6104 118.7 56.6104 121.257 56.5855 123.002C56.5855 123.864 56.5855 124.522 56.5855 124.996C56.5855 125.469 56.4858 125.723 56.4858 125.723Z" fill="#263238"/>
<path d="M27.9421 126.98C27.8723 126.98 27.8125 126.7 27.8125 126.356C27.8125 126.013 27.8723 125.733 27.9421 125.733C28.0119 125.733 28.0767 126.013 28.0767 126.356C28.0767 126.7 28.0169 126.98 27.9421 126.98Z" fill="#263238"/>
<path d="M27.9453 132.423C27.8188 131.979 27.7749 131.516 27.8157 131.057C27.7746 130.599 27.8185 130.138 27.9453 129.696C28.0781 130.137 28.1238 130.599 28.0799 131.057C28.1236 131.517 28.0779 131.98 27.9453 132.423Z" fill="#263238"/>
<path d="M27.9453 137.876C27.8188 137.433 27.7749 136.97 27.8157 136.51C27.7746 136.053 27.8185 135.591 27.9453 135.149C28.0781 135.59 28.1238 136.052 28.0799 136.51C28.1236 136.97 28.0779 137.434 27.9453 137.876Z" fill="#263238"/>
<path d="M27.9453 143.329C27.8188 142.886 27.7749 142.423 27.8157 141.963C27.7746 141.506 27.8185 141.044 27.9453 140.603C28.0781 141.043 28.1238 141.505 28.0799 141.963C28.1236 142.423 28.0779 142.887 27.9453 143.329Z" fill="#263238"/>
<path d="M27.9453 148.783C27.8188 148.339 27.7749 147.876 27.8157 147.417C27.7746 146.959 27.8185 146.498 27.9453 146.056C28.0781 146.496 28.1238 146.959 28.0799 147.417C28.1236 147.876 28.0779 148.34 27.9453 148.783Z" fill="#263238"/>
<path d="M29.1883 152.755C28.7859 152.882 28.362 152.926 27.9421 152.885L27.8125 152.755V152.287C27.8125 152.137 27.8125 152.003 27.8424 151.888C27.8424 151.664 27.8972 151.524 27.9321 151.524C27.967 151.524 28.0019 151.664 28.0268 151.888C28.0268 152.003 28.0268 152.137 28.0268 152.287V152.521V152.755C27.967 152.695 28.1515 152.885 27.8923 152.626C28.3286 152.577 28.7702 152.622 29.1883 152.755Z" fill="#263238"/>
<path d="M34.0881 152.755C33.6925 152.882 33.2752 152.926 32.8619 152.885C32.4502 152.925 32.0346 152.881 31.6406 152.755C32.0346 152.629 32.4502 152.585 32.8619 152.626C33.2752 152.585 33.6925 152.629 34.0881 152.755Z" fill="#263238"/>
<path d="M38.9876 152.755C38.592 152.882 38.1747 152.926 37.7614 152.885C37.3481 152.926 36.9308 152.882 36.5352 152.755C36.9308 152.629 37.3481 152.585 37.7614 152.626C38.1747 152.585 38.592 152.629 38.9876 152.755Z" fill="#263238"/>
<path d="M43.89 152.755C43.4943 152.882 43.077 152.926 42.6637 152.885C42.2504 152.926 41.8331 152.882 41.4375 152.755C41.8331 152.629 42.2504 152.585 42.6637 152.626C43.077 152.585 43.4943 152.629 43.89 152.755Z" fill="#263238"/>
<path d="M48.7834 152.755C47.9767 152.928 47.1426 152.928 46.3359 152.755C47.1426 152.582 47.9767 152.582 48.7834 152.755Z" fill="#263238"/>
<path d="M53.6858 152.755C52.8791 152.928 52.045 152.928 51.2383 152.755C52.045 152.582 52.8791 152.582 53.6858 152.755Z" fill="#263238"/>
<path d="M58.5853 152.755C57.7769 152.928 56.9412 152.928 56.1328 152.755C56.9412 152.583 57.7769 152.583 58.5853 152.755Z" fill="#263238"/>
<path d="M63.4787 152.755C62.672 152.928 61.8379 152.928 61.0312 152.755C61.8379 152.582 62.672 152.582 63.4787 152.755Z" fill="#263238"/>
<path d="M68.3811 152.755C67.5744 152.928 66.7403 152.928 65.9336 152.755C66.7403 152.582 67.5744 152.582 68.3811 152.755Z" fill="#263238"/>
<path d="M73.2806 152.755C72.4722 152.928 71.6365 152.928 70.8281 152.755C71.6365 152.583 72.4722 152.583 73.2806 152.755Z" fill="#263238"/>
<path d="M78.174 152.755C77.3674 152.928 76.5332 152.928 75.7266 152.755C76.5332 152.582 77.3674 152.582 78.174 152.755Z" fill="#263238"/>
<path d="M81.8712 152.755C81.8712 152.825 81.592 152.885 81.2481 152.885C80.9041 152.885 80.625 152.825 80.625 152.755C80.625 152.685 80.9041 152.626 81.2481 152.626C81.592 152.626 81.8712 152.685 81.8712 152.755Z" fill="#263238"/>
<path d="M82.4522 11.5295H52.3398V52.7378H82.4522V11.5295Z" fill="white"/>
<path d="M82.4725 52.7079C82.4725 52.7079 82.4725 52.6381 82.4725 52.5035C82.4725 52.369 82.4725 52.1696 82.4725 51.9203C82.4725 51.4219 82.4725 50.6443 82.4725 49.6673C82.4725 47.6983 82.4725 44.8272 82.4326 41.1933C82.4326 33.9406 82.3778 23.6573 82.3429 11.4897L82.4775 11.6243L52.37 11.6591L52.5196 11.5096V52.7179L52.3999 52.5983L74.2677 52.6431L80.354 52.673H81.9541H82.5124C82.5124 52.673 82.3379 52.673 81.984 52.673H80.4038L74.3425 52.7079L52.4099 52.7877H52.2853V52.6631C52.2853 41.0986 52.2504 26.8474 52.2305 11.4548V11.3052H52.385H82.4924H82.632V11.4448C82.632 23.6473 82.5971 33.9656 82.5821 41.2382C82.5821 44.8521 82.5821 47.7183 82.5522 49.6723C82.5522 50.6393 82.5522 51.382 82.5522 51.8954C82.5522 52.1397 82.5522 52.3291 82.5522 52.4637C82.5338 52.5475 82.5071 52.6293 82.4725 52.7079Z" fill="#263238"/>
<path d="M70.7522 19.8091C70.7522 19.8938 67.4773 19.9586 63.4347 19.9636C59.3921 19.9686 56.1172 19.9038 56.1172 19.8191C56.1172 19.7343 59.3921 19.6646 63.4347 19.6646C67.4773 19.6646 70.7522 19.7244 70.7522 19.8091Z" fill="#263238"/>
<path d="M78.6678 23.3831C78.6678 23.4678 73.6184 23.5376 67.3925 23.5426C61.1667 23.5476 56.1172 23.4828 56.1172 23.3981C56.1172 23.3133 61.1667 23.2435 67.3925 23.2435C73.6184 23.2435 78.6678 23.2984 78.6678 23.3831Z" fill="#263238"/>
<path d="M78.6757 27.1216C78.6757 27.2013 73.6262 27.2711 67.4003 27.2761C61.1745 27.2811 56.125 27.2163 56.125 27.1365C56.125 27.0568 61.1745 26.982 67.4003 26.977C73.6262 26.972 78.6757 27.0368 78.6757 27.1216Z" fill="#263238"/>
<path d="M78.6746 30.8551C78.6746 30.9399 73.6301 31.0097 67.4042 31.0146C61.1784 31.0196 56.1289 30.9548 56.1289 30.8701C56.1289 30.7853 61.1734 30.7156 67.4042 30.7106C73.6351 30.7056 78.6746 30.7754 78.6746 30.8551Z" fill="#263238"/>
<path d="M78.6796 34.5886C78.6796 34.6734 73.6301 34.7432 67.4042 34.7481C61.1784 34.7531 56.1289 34.6883 56.1289 34.6086C56.1289 34.5288 61.1784 34.454 67.4042 34.4491C73.6301 34.4441 78.6796 34.5089 78.6796 34.5886Z" fill="#263238"/>
<path d="M78.6785 38.3272C78.6785 38.4119 73.634 38.4817 67.4081 38.4867C61.1823 38.4917 56.1328 38.4269 56.1328 38.3421C56.1328 38.2574 61.1773 38.1876 67.4081 38.1826C73.639 38.1776 78.6785 38.2524 78.6785 38.3272Z" fill="#263238"/>
<path d="M78.6835 42.0607C78.6835 42.1454 73.634 42.2152 67.4081 42.2202C61.1823 42.2252 56.1328 42.1604 56.1328 42.0806C56.1328 42.0009 61.1823 41.9261 67.4081 41.9211C73.634 41.9161 78.6835 41.9809 78.6835 42.0607Z" fill="#263238"/>
<path d="M68.2545 45.8042C68.2545 45.8889 65.5428 45.9587 62.1981 45.9587C58.8534 45.9587 56.1367 45.8989 56.1367 45.8141C56.1367 45.7294 58.8484 45.6596 62.1981 45.6596C65.5478 45.6596 68.2545 45.7294 68.2545 45.8042Z" fill="#263238"/>
<path d="M79.8349 55.7237C83.2128 55.7237 85.9511 52.9853 85.9511 49.6075C85.9511 46.2296 83.2128 43.4913 79.8349 43.4913C76.4571 43.4913 73.7188 46.2296 73.7188 49.6075C73.7188 52.9853 76.4571 55.7237 79.8349 55.7237Z" fill="#FF6C37"/>
<path d="M83.3509 47.2497C83.6101 47.494 82.4088 49.2037 80.6691 51.073C80.385 51.3721 80.1109 51.6562 79.8467 51.9204L79.423 52.3391L78.9993 51.9852C77.4789 50.7091 76.482 49.6125 76.6664 49.3732C76.8509 49.1339 78.1618 49.8368 79.7719 50.9982L78.9295 51.063C79.1737 50.7839 79.428 50.4848 79.7171 50.1857C81.4767 48.3165 83.0867 47.0055 83.3509 47.2497Z" fill="#E0E0E0"/>
<path d="M65.1218 54.9859C64.949 54.1641 64.949 53.3154 65.1218 52.4936C65.2946 53.3154 65.2946 54.1641 65.1218 54.9859Z" fill="#263238"/>
<path d="M65.1218 59.9706C64.949 59.1488 64.949 58.3001 65.1218 57.4783C65.2946 58.3001 65.2946 59.1488 65.1218 59.9706Z" fill="#263238"/>
<path d="M65.1218 64.9553C64.949 64.1335 64.949 63.2847 65.1218 62.463C65.2946 63.2847 65.2946 64.1335 65.1218 64.9553Z" fill="#263238"/>
<path d="M65.1218 69.94C64.949 69.1182 64.949 68.2694 65.1218 67.4476C65.2946 68.2694 65.2946 69.1182 65.1218 69.94Z" fill="#263238"/>
<path d="M65.1218 74.9246C64.949 74.1028 64.949 73.254 65.1218 72.4323C65.2946 73.254 65.2946 74.1028 65.1218 74.9246Z" fill="#263238"/>
<path d="M65.1218 79.9093C64.949 79.0875 64.949 78.2387 65.1218 77.4169C65.2946 78.2387 65.2946 79.0875 65.1218 79.9093Z" fill="#263238"/>
<path d="M65.1218 84.8939C64.949 84.0722 64.949 83.2234 65.1218 82.4016C65.2946 83.2234 65.2946 84.0722 65.1218 84.8939Z" fill="#263238"/>
<path d="M65.1218 89.8786C64.949 89.0568 64.949 88.2081 65.1218 87.3863C65.2946 88.2081 65.2946 89.0568 65.1218 89.8786Z" fill="#263238"/>
<path d="M67.5171 92.4557C67.1146 92.582 66.6908 92.6261 66.2709 92.5853C65.8822 92.5948 65.4934 92.5681 65.1095 92.5055H65.0547V92.4706C65.0547 92.4158 65.0846 92.3859 65.0995 92.3859C65.1145 92.3859 65.1344 92.4158 65.1494 92.4706L65.0995 92.4258C65.4828 92.3582 65.872 92.3298 66.261 92.341C66.6831 92.294 67.1104 92.333 67.5171 92.4557Z" fill="#263238"/>
<path d="M72.5041 92.4557C71.6823 92.6285 70.8335 92.6285 70.0117 92.4557C70.8335 92.2829 71.6823 92.2829 72.5041 92.4557Z" fill="#263238"/>
<path d="M77.4884 92.4557C76.6666 92.6285 75.8179 92.6285 74.9961 92.4557C75.8179 92.2829 76.6666 92.2829 77.4884 92.4557Z" fill="#263238"/>
<path d="M82.4728 92.4557C81.651 92.6285 80.8023 92.6285 79.9805 92.4557C80.8023 92.2829 81.651 92.2829 82.4728 92.4557Z" fill="#263238"/>
<path d="M87.4572 92.4557C86.6354 92.6285 85.7866 92.6285 84.9648 92.4557C85.7866 92.2829 86.6354 92.2829 87.4572 92.4557Z" fill="#263238"/>
<path d="M170.485 47.3644C170.312 46.5426 170.312 45.6939 170.485 44.8721C170.658 45.6939 170.658 46.5426 170.485 47.3644Z" fill="#263238"/>
<path d="M170.485 52.349C170.312 51.5272 170.312 50.6785 170.485 49.8567C170.658 50.6785 170.658 51.5272 170.485 52.349Z" fill="#263238"/>
<path d="M170.485 57.3337C170.312 56.5119 170.312 55.6632 170.485 54.8414C170.658 55.6632 170.658 56.5119 170.485 57.3337Z" fill="#263238"/>
<path d="M170.485 62.3134C170.312 61.4916 170.312 60.6428 170.485 59.821C170.658 60.6428 170.658 61.4916 170.485 62.3134Z" fill="#263238"/>
<path d="M170.485 67.3031C170.312 66.4812 170.312 65.6326 170.485 64.8107C170.657 65.6326 170.657 66.4812 170.485 67.3031Z" fill="#263238"/>
<path d="M170.485 72.2877C170.312 71.466 170.312 70.6172 170.485 69.7954C170.658 70.6172 170.658 71.466 170.485 72.2877Z" fill="#263238"/>
<path d="M170.485 77.2724C170.312 76.4506 170.312 75.6019 170.485 74.7801C170.658 75.6019 170.658 76.4506 170.485 77.2724Z" fill="#263238"/>
<path d="M170.485 82.2571C170.312 81.4353 170.312 80.5866 170.485 79.7648C170.658 80.5866 170.658 81.4353 170.485 82.2571Z" fill="#263238"/>
<path d="M204.336 50.5645H204.042H203.16H199.726L186.845 50.6094L142.387 50.7141H142.287L142.252 50.5994C141.764 48.9287 141.677 47.1661 141.999 45.4555C142.322 43.7448 143.044 42.1345 144.106 40.7559C145.169 39.3773 146.543 38.2694 148.115 37.5224C149.687 36.7755 151.414 36.4108 153.154 36.4579L152.989 36.6723C152.716 35.7 152.6 34.6903 152.645 33.6815C152.78 30.242 154.734 26.9222 157.735 25.387C159.19 24.626 160.809 24.2327 162.451 24.2414C164.094 24.2501 165.709 24.6605 167.156 25.4368L166.926 25.5215C167.728 23.6616 168.907 21.9884 170.389 20.6079C171.871 19.2273 173.623 18.1694 175.535 17.5012C179.204 16.1653 183.271 16.3398 186.471 17.9997C189.515 19.609 191.907 22.2229 193.241 25.3969C194.466 28.1859 194.76 31.2956 194.078 34.2647L193.953 34.1251C195.709 33.939 197.483 34.1979 199.113 34.8778C200.56 35.4636 201.862 36.3565 202.931 37.4947C203.419 38.0031 203.825 38.5851 204.132 39.2194C204.406 39.8064 204.622 40.4192 204.775 41.0488C205.034 42.1461 205.181 43.2667 205.214 44.3935C205.268 45.9461 205.133 47.4996 204.81 49.0193C204.725 49.412 204.619 49.7997 204.491 50.1807C204.401 50.4399 204.351 50.5645 204.351 50.5645" fill="#407BFF"/>
<path d="M198.698 33.492H196.779V21.9475C196.779 20.6136 196.249 19.3343 195.306 18.3911C194.363 17.4479 193.083 16.918 191.749 16.918C190.415 16.918 189.136 17.4479 188.193 18.3911C187.25 19.3343 186.72 20.6136 186.72 21.9475V33.492H184.801V21.9475C184.801 20.1046 185.533 18.3372 186.836 17.0341C188.139 15.731 189.907 14.9989 191.749 14.9989C193.592 14.9989 195.36 15.731 196.663 17.0341C197.966 18.3372 198.698 20.1046 198.698 21.9475V33.492Z" fill="#E0E0E0"/>
<path d="M199.558 28.3528H183.936C183.003 28.3528 182.246 29.1094 182.246 30.0426V38.8555C182.246 39.7888 183.003 40.5453 183.936 40.5453H199.558C200.491 40.5453 201.248 39.7888 201.248 38.8555V30.0426C201.248 29.1094 200.491 28.3528 199.558 28.3528Z" fill="#E0E0E0"/>
<path d="M191.751 34.4491C191.436 34.4501 191.128 34.3575 190.866 34.1832C190.604 34.0088 190.399 33.7605 190.278 33.4698C190.157 33.179 190.125 32.8589 190.187 32.55C190.248 32.2411 190.399 31.9573 190.622 31.7346C190.845 31.5119 191.128 31.3604 191.437 31.2992C191.746 31.238 192.066 31.2699 192.357 31.3909C192.648 31.5118 192.896 31.7164 193.071 31.9787C193.245 32.2409 193.337 32.549 193.336 32.8639C193.336 33.2843 193.169 33.6875 192.872 33.9848C192.575 34.2821 192.172 34.4491 191.751 34.4491Z" fill="#455A64"/>
<path d="M192.18 33.4921H191.312V36.757H192.18V33.4921Z" fill="#455A64"/>
<path d="M308.583 29.6588C310.012 28.3293 311.037 26.6242 311.543 24.7389C312.048 22.8535 312.011 20.864 311.438 18.9982C310.865 17.1323 309.778 15.4656 308.302 14.1888C306.826 12.912 305.02 12.0767 303.091 11.7785C301.162 11.4804 299.188 11.7315 297.395 12.503C295.602 13.2745 294.063 14.5354 292.953 16.1411C291.844 17.7469 291.209 19.6326 291.121 21.5825C291.033 23.5324 291.496 25.4675 292.457 27.1664L290.339 29.1603L290.837 32.6496L287.562 31.7723L284.915 34.2646L285.414 37.7539L282.129 36.8317L279.866 38.9402L280.175 41.0787L278.181 40.5204L276.875 41.7416L276.676 44.9966L281.526 46.2179L297.263 31.533C299.125 32.3663 301.192 32.633 303.205 32.2997C305.218 31.9664 307.088 31.0479 308.583 29.6588ZM307.047 16.8781C307.453 17.3099 307.72 17.8523 307.817 18.4365C307.914 19.0207 307.835 19.6204 307.59 20.1597C307.345 20.699 306.946 21.1535 306.443 21.4657C305.94 21.7779 305.356 21.9338 304.764 21.9135C304.172 21.8932 303.6 21.6977 303.119 21.3518C302.638 21.0058 302.271 20.525 302.064 19.9703C301.857 19.4155 301.819 18.8118 301.956 18.2356C302.092 17.6594 302.397 17.1366 302.83 16.7335C303.41 16.1953 304.178 15.9083 304.969 15.9354C305.759 15.9625 306.506 16.3014 307.047 16.8781Z" fill="#263238"/>
<path d="M307.048 16.8781C307.048 16.8781 306.853 16.6937 306.454 16.4494C305.892 16.1086 305.233 15.9648 304.58 16.0407C304.05 16.0971 303.546 16.3002 303.124 16.6271C302.703 16.954 302.381 17.3918 302.194 17.8915C302.008 18.3911 301.964 18.9329 302.068 19.4559C302.172 19.979 302.42 20.4628 302.783 20.853C303.147 21.2432 303.612 21.5245 304.126 21.6652C304.641 21.8059 305.184 21.8005 305.696 21.6497C306.208 21.4989 306.667 21.2086 307.023 20.8113C307.379 20.414 307.617 19.9254 307.71 19.4004C307.83 18.7522 307.732 18.0828 307.431 17.4962C307.217 17.0825 307.028 16.8931 307.048 16.8781C307.067 16.8632 307.102 16.913 307.192 17.0077C307.319 17.1419 307.43 17.2908 307.521 17.4514C307.874 18.0521 308.006 18.7573 307.895 19.4452C307.828 19.8491 307.68 20.2355 307.462 20.5818C307.243 20.928 306.958 21.2272 306.622 21.4616C306.287 21.6961 305.907 21.8612 305.507 21.9472C305.107 22.0332 304.693 22.0384 304.291 21.9625C303.642 21.8421 303.049 21.5157 302.6 21.0317C302.151 20.5477 301.87 19.932 301.799 19.2757C301.75 18.8679 301.784 18.4545 301.899 18.06C302.013 17.6656 302.205 17.298 302.464 16.9792C302.723 16.6604 303.043 16.3967 303.406 16.2038C303.768 16.0109 304.166 15.8927 304.575 15.8563C305.263 15.7894 305.953 15.9658 306.524 16.3547C306.678 16.4568 306.818 16.5774 306.943 16.7136C306.986 16.7625 307.022 16.8181 307.048 16.8781Z" fill="#263238"/>
<path d="M308.582 29.6588C308.536 29.7109 308.486 29.7592 308.432 29.8034L307.973 30.2121C307.357 30.7102 306.689 31.1398 305.98 31.4932C304.615 32.146 303.125 32.4952 301.612 32.5167C300.099 32.5382 298.599 32.2315 297.217 31.6178H297.301L281.595 46.3276L281.545 46.3674H281.485L276.635 45.1512L276.535 45.1262V45.0266C276.595 44.0296 276.66 42.9031 276.73 41.7766V41.7267L276.769 41.6918L278.09 40.4556L278.14 40.4108H278.21L280.204 40.974L280.044 41.1136C279.95 40.4456 279.845 39.7129 279.735 38.9752V38.9054L279.78 38.8605L282.058 36.737L282.108 36.6872H282.178L285.463 37.6094L285.298 37.7489C285.139 36.6374 284.964 35.441 284.8 34.2597V34.1949L284.845 34.145L285.547 33.492L287.491 31.6776L287.546 31.6278H287.616L290.901 32.5499L290.736 32.6895C290.567 31.5098 290.401 30.3467 290.238 29.2002V29.1354L290.288 29.0906L292.401 27.0967L292.376 27.2512C291.564 25.8011 291.101 24.1813 291.026 22.5208C290.988 21.7142 291.047 20.906 291.2 20.1132C291.341 19.3342 291.574 18.5747 291.893 17.8501C292.686 16.0096 293.991 14.4356 295.653 13.3151C297.315 12.1946 299.263 11.5746 301.267 11.529C303.271 11.4833 305.245 12.0138 306.956 13.0575C308.668 14.1011 310.043 15.614 310.919 17.4165C311.743 19.1198 312.088 21.0153 311.916 22.8996C311.803 24.2944 311.406 25.6513 310.75 26.8873L310.556 27.2562L310.346 27.5852C310.202 27.7945 310.087 28.0039 309.947 28.1734C309.668 28.5123 309.449 28.8164 309.24 29.0307L308.741 29.5292L308.572 29.6837L308.726 29.5093L309.19 29.0108C309.394 28.7965 309.603 28.5123 309.873 28.1534C310.007 27.979 310.122 27.7696 310.256 27.5603L310.466 27.2313L310.65 26.8624C311.39 25.4181 311.782 23.8212 311.796 22.1987C311.81 20.5762 311.445 18.9728 310.73 17.5161C309.634 15.3124 307.786 13.5736 305.519 12.6145C303.253 11.6554 300.718 11.5393 298.373 12.2872C296.982 12.7312 295.701 13.4662 294.615 14.4434C293.53 15.4206 292.665 16.6175 292.077 17.9548C291.767 18.6619 291.541 19.4031 291.404 20.163C291.255 20.936 291.199 21.7244 291.24 22.5108C291.312 24.1339 291.766 25.7171 292.566 27.1316L292.611 27.2163L292.541 27.2861L290.427 29.28L290.467 29.1703C290.633 30.3268 290.8 31.4898 290.966 32.6596L290.996 32.854L290.806 32.8041L287.521 31.882L287.646 31.8521L285.702 33.6665L284.999 34.3195L285.039 34.2098C285.213 35.4111 285.383 36.6074 285.537 37.6991L285.567 37.8935L285.378 37.8436L282.093 36.9215L282.218 36.8916L279.94 39.015L279.98 38.9004C280.084 39.6381 280.189 40.3709 280.289 41.0388V41.2332L280.104 41.1834L278.11 40.6201L278.23 40.5902L276.909 41.8264L276.949 41.7417C276.879 42.8682 276.809 43.9798 276.745 44.9917L276.655 44.8671L281.505 46.0933H281.395L297.157 31.4433L297.192 31.4084H297.241C298.605 32.02 300.085 32.3311 301.58 32.3208C303.074 32.3105 304.549 31.9789 305.905 31.3486C306.62 31.0092 307.296 30.5948 307.924 30.1124C308.128 29.9479 308.283 29.8183 308.392 29.7236L308.582 29.6588Z" fill="#263238"/>
<path d="M308.23 28.4824C309.659 27.1529 310.685 25.4478 311.19 23.5625C311.695 21.6771 311.659 19.6876 311.086 17.8218C310.513 15.9559 309.426 14.2892 307.95 13.0124C306.474 11.7356 304.668 10.9003 302.739 10.6021C300.81 10.304 298.836 10.5551 297.043 11.3266C295.25 12.0981 293.711 13.359 292.601 14.9647C291.491 16.5705 290.856 18.4562 290.769 20.4061C290.681 22.356 291.144 24.2912 292.105 25.9901L289.992 27.9839L290.49 31.4732L287.205 30.551L284.558 33.0434L285.057 36.5326L281.772 35.6105L279.514 37.7539L279.823 39.8923L277.829 39.334L276.508 40.5702L276.309 43.8202L281.159 45.0415L296.895 30.3616C298.76 31.1975 300.83 31.4651 302.846 31.1308C304.862 30.7966 306.735 29.8754 308.23 28.4824ZM306.695 15.6967C307.101 16.1283 307.37 16.6707 307.467 17.2551C307.564 17.8395 307.485 18.4396 307.241 18.9793C306.996 19.519 306.597 19.9739 306.094 20.2864C305.591 20.5989 305.006 20.7549 304.414 20.7346C303.822 20.7142 303.249 20.5185 302.768 20.1723C302.288 19.826 301.921 19.3448 301.714 18.7896C301.507 18.2345 301.47 17.6304 301.607 17.054C301.744 16.4776 302.049 15.9549 302.483 15.5521C303.062 15.0154 303.83 14.7294 304.619 14.7565C305.408 14.7836 306.154 15.1215 306.695 15.6967Z" fill="#E0E0E0"/>
<path d="M306.697 15.6968C306.697 15.6968 306.502 15.5173 306.103 15.2731C305.542 14.9301 304.883 14.7845 304.229 14.8593C303.699 14.9167 303.196 15.1205 302.775 15.4479C302.354 15.7753 302.033 16.2133 301.847 16.713C301.661 17.2127 301.618 17.7542 301.723 18.277C301.827 18.7997 302.075 19.283 302.439 19.6728C302.803 20.0625 303.268 20.3433 303.782 20.4837C304.296 20.624 304.84 20.6185 305.351 20.4676C305.862 20.3166 306.321 20.0264 306.677 19.6292C307.033 19.2321 307.271 18.7438 307.364 18.219C307.485 17.572 307.385 16.9034 307.08 16.3198C306.866 15.9061 306.677 15.7167 306.697 15.6968C306.716 15.6768 306.751 15.7366 306.841 15.8264C306.968 15.9605 307.079 16.1094 307.17 16.27C307.523 16.8708 307.655 17.576 307.544 18.2639C307.478 18.6694 307.332 19.0577 307.115 19.4061C306.897 19.7545 306.612 20.056 306.277 20.2927C305.941 20.5295 305.561 20.6969 305.16 20.785C304.759 20.8732 304.344 20.8803 303.94 20.806C303.291 20.6831 302.699 20.3553 302.25 19.8708C301.802 19.3863 301.52 18.7706 301.448 18.1143C301.374 17.5053 301.487 16.8882 301.772 16.3448C302.008 15.8853 302.357 15.4932 302.786 15.2047C303.215 14.9162 303.709 14.7408 304.224 14.6948C304.912 14.6309 305.601 14.8071 306.173 15.1933C306.328 15.2939 306.469 15.4146 306.592 15.5522C306.668 15.6452 306.703 15.6934 306.697 15.6968Z" fill="#263238"/>
<path d="M308.233 28.4824C308.186 28.5318 308.136 28.5784 308.084 28.622L307.63 29.0307C307.014 29.5289 306.345 29.9585 305.636 30.3118C304.271 30.9646 302.781 31.3138 301.268 31.3353C299.756 31.3568 298.256 31.0502 296.873 30.4364H296.958L281.231 45.1312L281.186 45.1761H281.122L276.272 43.9598H276.172V43.8601C276.232 42.8632 276.296 41.7317 276.366 40.6051V40.5553L276.401 40.5254C276.81 40.1416 277.264 39.7129 277.722 39.2892L277.777 39.2393H277.842L279.836 39.7976L279.676 39.9372C279.576 39.2692 279.472 38.5365 279.367 37.7988V37.734L279.412 37.6841L281.69 35.5656L281.74 35.5158H281.81L285.094 36.433L284.93 36.5775C284.77 35.461 284.596 34.2696 284.431 33.0883V33.0235L284.481 32.9786L285.179 32.3206L287.123 30.5062L287.178 30.4563H287.248L290.533 31.3785L290.368 31.5231C290.199 30.3367 290.029 29.1703 289.87 28.0338V27.969L289.92 27.9241L292.033 25.9303V26.0848C291.217 24.636 290.752 23.0156 290.677 21.3543C290.611 19.7536 290.907 18.1585 291.545 16.6887C292.338 14.8482 293.643 13.2742 295.305 12.1537C296.967 11.0331 298.915 10.4132 300.919 10.3675C302.922 10.3219 304.897 10.8524 306.608 11.896C308.319 12.9397 309.695 14.4526 310.571 16.255C311.399 17.9467 311.753 19.8315 311.593 21.7082C311.48 23.1031 311.083 24.4602 310.427 25.696L310.237 26.0649L310.023 26.3938C309.878 26.6082 309.764 26.8126 309.629 26.987C309.345 27.326 309.131 27.6251 308.921 27.8394L308.423 28.3379C308.313 28.4475 308.253 28.4974 308.253 28.4974C308.253 28.4974 308.303 28.4326 308.408 28.3229L308.871 27.8244C309.076 27.6101 309.285 27.326 309.559 26.9621C309.689 26.7876 309.803 26.5783 309.938 26.3689L310.147 26.0399L310.337 25.6711C310.921 24.4493 311.259 23.1243 311.331 21.772C311.403 20.4196 311.208 19.0662 310.758 17.7892C310.307 16.5121 309.609 15.3364 308.704 14.3291C307.798 13.3217 306.704 12.5026 305.482 11.9183C304.26 11.3341 302.935 10.9963 301.583 10.9241C300.23 10.8519 298.877 11.0468 297.6 11.4976C296.323 11.9484 295.147 12.6464 294.14 13.5516C293.132 14.4568 292.313 15.5516 291.729 16.7734C291.108 18.2108 290.822 19.7703 290.892 21.3344C290.964 22.956 291.418 24.5375 292.218 25.9502L292.267 26.0399L292.193 26.1047L290.079 28.0986L290.119 27.9889C290.282 29.1454 290.448 30.3085 290.617 31.4782L290.647 31.6776L290.458 31.6228L287.173 30.7006L287.298 30.6707L285.354 32.4851L284.651 33.1431L284.691 33.0284C284.865 34.2297 285.035 35.4261 285.189 36.5177L285.219 36.7171L285.03 36.6623L281.755 35.76L281.879 35.7301L279.601 37.8536L279.641 37.7439C279.746 38.4817 279.856 39.2393 279.95 39.8824L279.975 40.0718L279.791 40.0219L277.797 39.4587L277.917 39.4288L276.591 40.665L276.63 40.5802C276.561 41.7067 276.491 42.8183 276.426 43.8302L276.336 43.7056L281.186 44.9318L281.077 44.9617L296.813 30.3068L296.853 30.2719H296.898C298.462 30.9714 300.173 31.2778 301.883 31.1642C303.152 31.0699 304.395 30.7492 305.552 30.2171C306.256 29.8724 306.924 29.4583 307.545 28.9809L308.014 28.5871L308.233 28.4824Z" fill="#263238"/>
<path d="M307.282 27.6699C307.794 27.1218 308.26 26.5334 308.678 25.9103C309.152 25.1714 309.512 24.3647 309.744 23.5177C310.064 22.3994 310.166 21.23 310.043 20.0733C309.901 18.6729 309.432 17.3257 308.673 16.1404C307.801 14.7792 306.583 13.6747 305.143 12.9402C304.371 12.5405 303.543 12.2614 302.686 12.1128C302.244 12.0334 301.798 11.9818 301.35 11.9582C300.892 11.9518 300.434 11.9751 299.979 12.028C298.072 12.2478 296.285 13.0739 294.881 14.3848C293.478 15.6957 292.532 17.4223 292.183 19.3106C292.099 19.7602 292.044 20.2148 292.019 20.6714C292.011 21.1209 292.031 21.5703 292.079 22.0173C292.173 22.8761 292.395 23.716 292.737 24.5096C293.368 25.9976 294.385 27.29 295.682 28.2531C296.716 29.0151 297.9 29.5499 299.155 29.8222C300.41 30.0945 301.708 30.0983 302.965 29.8333C303.827 29.6608 304.657 29.3582 305.428 28.936C306.078 28.5608 306.697 28.1359 307.282 27.6649C307.282 27.6649 307.247 27.7048 307.177 27.7696L306.853 28.0587C306.68 28.2222 306.493 28.3706 306.295 28.5024C306.034 28.6861 305.76 28.8526 305.477 29.0008C304.7 29.4437 303.86 29.7648 302.985 29.9529C301.705 30.2368 300.379 30.2454 299.095 29.9781C297.811 29.7108 296.599 29.1738 295.538 28.4027C294.205 27.4199 293.157 26.1004 292.502 24.5794C292.15 23.7694 291.923 22.9105 291.829 22.0323C291.775 21.5758 291.753 21.116 291.765 20.6565C291.785 20.1862 291.84 19.718 291.929 19.2558C292.289 17.3149 293.263 15.5409 294.706 14.1949C296.15 12.8488 297.988 12.0019 299.949 11.7788C300.416 11.7249 300.886 11.7032 301.355 11.714C301.815 11.7367 302.273 11.79 302.726 11.8735C303.606 12.0309 304.456 12.3217 305.248 12.7358C306.72 13.4933 307.963 14.6309 308.847 16.0307C309.619 17.245 310.09 18.6256 310.223 20.0583C310.333 21.2327 310.216 22.4173 309.879 23.5476C309.631 24.4029 309.252 25.2149 308.757 25.9552C308.584 26.2286 308.391 26.4885 308.179 26.7328C308.028 26.9133 307.861 27.0802 307.681 27.2313L307.367 27.5353C307.322 27.64 307.282 27.6749 307.282 27.6699Z" fill="#263238"/>
<path d="M306.856 20.3075C306.856 20.3075 307.075 20.0832 307.355 19.6197C307.697 19.0659 307.875 18.4268 307.87 17.776C307.865 17.1252 307.676 16.489 307.325 15.941C306.996 15.4312 306.537 15.0196 305.994 14.7496C305.401 14.4447 304.731 14.3265 304.07 14.4107C303.357 14.4923 302.689 14.8001 302.165 15.289C301.64 15.778 301.285 16.4222 301.154 17.1273C301.026 17.7828 301.097 18.4616 301.358 19.0763C301.545 19.513 301.82 19.9063 302.167 20.2313C302.513 20.5564 302.923 20.8061 303.371 20.9649C303.818 21.1236 304.294 21.1879 304.768 21.1537C305.242 21.1195 305.703 20.9875 306.123 20.7661C306.622 20.5069 306.826 20.2677 306.846 20.3075C306.866 20.3474 306.801 20.3723 306.692 20.472C306.541 20.6192 306.374 20.7481 306.193 20.8559C305.601 21.1968 304.923 21.359 304.241 21.3227C303.559 21.2864 302.902 21.0533 302.35 20.6515C301.798 20.2517 301.372 19.7037 301.119 19.071C300.867 18.4383 300.799 17.747 300.924 17.0775C301.065 16.3188 301.445 15.6254 302.01 15.0995C302.574 14.5735 303.293 14.2429 304.06 14.1565C304.535 14.0992 305.018 14.138 305.478 14.2708C305.938 14.4036 306.367 14.6275 306.739 14.9293C307.111 15.231 307.418 15.6045 307.643 16.0275C307.868 16.4505 308.005 16.9143 308.047 17.3915C308.122 18.1977 307.914 19.0048 307.459 19.6745C307.338 19.8554 307.198 20.0225 307.041 20.173C306.986 20.2267 306.924 20.2721 306.856 20.3075Z" fill="#263238"/>
<path d="M279.864 44.4683C279.814 44.4184 283.353 41.0338 287.774 36.9115C292.196 32.7892 295.82 29.4844 295.87 29.5392C295.919 29.594 292.38 32.9736 287.954 37.1009C283.528 41.2282 279.929 44.5231 279.864 44.4683Z" fill="#263238"/>
<path d="M264.567 89.4998C263.745 89.6726 262.896 89.6726 262.074 89.4998C262.896 89.327 263.745 89.327 264.567 89.4998Z" fill="#263238"/>
<path d="M269.551 89.4998C268.729 89.6726 267.88 89.6726 267.059 89.4998C267.88 89.327 268.729 89.327 269.551 89.4998Z" fill="#263238"/>
<path d="M274.535 89.4998C273.714 89.6726 272.865 89.6726 272.043 89.4998C272.865 89.327 273.714 89.327 274.535 89.4998Z" fill="#263238"/>
<path d="M279.52 89.4998C278.698 89.6726 277.849 89.6726 277.027 89.4998C277.849 89.327 278.698 89.327 279.52 89.4998Z" fill="#263238"/>
<path d="M284.504 89.4998C283.682 89.6726 282.834 89.6726 282.012 89.4998C282.834 89.327 283.682 89.327 284.504 89.4998Z" fill="#263238"/>
<path d="M289.488 89.4998C288.667 89.6726 287.818 89.6726 286.996 89.4998C287.818 89.327 288.667 89.327 289.488 89.4998Z" fill="#263238"/>
<path d="M293.722 88.7471C293.772 88.7471 293.822 89.0561 293.842 89.4998V89.5945H293.717H293.219C292.799 89.6353 292.375 89.5912 291.973 89.4649C292.375 89.3385 292.799 89.2945 293.219 89.3353H293.717L293.598 89.4549C293.623 89.0561 293.667 88.7471 293.722 88.7471Z" fill="#263238"/>
<path d="M293.723 83.7625C293.896 84.5842 293.896 85.433 293.723 86.2548C293.551 85.433 293.551 84.5842 293.723 83.7625Z" fill="#263238"/>
<path d="M293.723 78.7778C293.896 79.5996 293.896 80.4483 293.723 81.2701C293.551 80.4483 293.551 79.5996 293.723 78.7778Z" fill="#263238"/>
<path d="M293.723 73.7931C293.896 74.6149 293.896 75.4636 293.723 76.2854C293.551 75.4636 293.551 74.6149 293.723 73.7931Z" fill="#263238"/>
<path d="M293.723 68.8084C293.896 69.6302 293.896 70.479 293.723 71.3007C293.551 70.479 293.551 69.6302 293.723 68.8084Z" fill="#263238"/>
<path d="M293.723 63.8237C293.896 64.6455 293.896 65.4943 293.723 66.3161C293.551 65.4943 293.551 64.6455 293.723 63.8237Z" fill="#263238"/>
<path d="M293.723 58.8391C293.896 59.6608 293.896 60.5096 293.723 61.3314C293.551 60.5096 293.551 59.6608 293.723 58.8391Z" fill="#263238"/>
<path d="M293.723 53.8544C293.896 54.6762 293.896 55.5249 293.723 56.3467C293.551 55.5249 293.551 54.6762 293.723 53.8544Z" fill="#263238"/>
<path d="M293.723 48.8698C293.896 49.6915 293.896 50.5403 293.723 51.3621C293.551 50.5403 293.551 49.6915 293.723 48.8698Z" fill="#263238"/>
<path d="M293.723 43.8851C293.896 44.7069 293.896 45.5556 293.723 46.3774C293.551 45.5556 293.551 44.7069 293.723 43.8851Z" fill="#263238"/>
<path d="M293.723 38.9004C293.896 39.7222 293.896 40.5709 293.723 41.3927C293.551 40.5709 293.551 39.7222 293.723 38.9004Z" fill="#263238"/>
<path d="M256.348 139.182C255.526 139.355 254.677 139.355 253.855 139.182C254.677 139.009 255.526 139.009 256.348 139.182Z" fill="#263238"/>
<path d="M261.332 139.182C260.51 139.355 259.662 139.355 258.84 139.182C259.662 139.009 260.51 139.009 261.332 139.182Z" fill="#263238"/>
<path d="M266.317 139.182C265.495 139.355 264.646 139.355 263.824 139.182C264.646 139.009 265.495 139.009 266.317 139.182Z" fill="#263238"/>
<path d="M271.301 139.182C270.479 139.355 269.63 139.355 268.809 139.182C269.63 139.009 270.479 139.009 271.301 139.182Z" fill="#263238"/>
<path d="M276.285 139.182C275.464 139.355 274.615 139.355 273.793 139.182C274.615 139.009 275.464 139.009 276.285 139.182Z" fill="#263238"/>
<path d="M281.27 139.182C280.448 139.355 279.599 139.355 278.777 139.182C279.599 139.009 280.448 139.009 281.27 139.182Z" fill="#263238"/>
<path d="M286.254 139.182C285.432 139.355 284.584 139.355 283.762 139.182C284.584 139.009 285.432 139.009 286.254 139.182Z" fill="#263238"/>
<path d="M291.242 139.182C290.421 139.355 289.572 139.355 288.75 139.182C289.572 139.009 290.421 139.009 291.242 139.182Z" fill="#263238"/>
<path d="M296.227 139.182C295.405 139.355 294.556 139.355 293.734 139.182C294.556 139.009 295.405 139.009 296.227 139.182Z" fill="#263238"/>
<path d="M301.211 139.182C300.389 139.355 299.541 139.355 298.719 139.182C299.541 139.009 300.389 139.009 301.211 139.182Z" fill="#263238"/>
<path d="M305.729 138.718C305.774 138.718 305.804 138.898 305.829 139.187V139.277H305.719C305.51 139.277 305.221 139.302 304.941 139.302C304.522 139.345 304.097 139.301 303.695 139.172C304.098 139.046 304.522 139.002 304.941 139.042C305.241 139.042 305.51 139.042 305.719 139.072L305.619 139.172C305.649 138.898 305.689 138.718 305.729 138.718Z" fill="#263238"/>
<path d="M305.784 133.734C305.91 134.136 305.95 134.561 305.904 134.98C305.941 135.401 305.892 135.825 305.759 136.226C305.636 135.823 305.597 135.399 305.644 134.98C305.607 134.559 305.654 134.136 305.784 133.734Z" fill="#263238"/>
<path d="M305.831 128.749C305.954 129.152 305.994 129.576 305.95 129.995C305.988 130.416 305.939 130.84 305.806 131.241C305.683 130.838 305.644 130.414 305.691 129.995C305.654 129.575 305.701 129.151 305.831 128.749Z" fill="#263238"/>
<path d="M305.88 123.764C306.003 124.168 306.044 124.591 306 125.011C306.035 125.431 305.985 125.855 305.856 126.257C305.733 125.854 305.692 125.43 305.736 125.011C305.701 124.59 305.75 124.166 305.88 123.764Z" fill="#263238"/>
<path d="M289.388 108.142L290.305 124.986C290.319 125.275 290.444 125.548 290.653 125.749C290.863 125.949 291.141 126.061 291.431 126.062L321.743 126.287C322.045 126.288 322.335 126.17 322.55 125.958C322.765 125.746 322.887 125.457 322.89 125.155L322.984 112.045C322.986 111.895 322.957 111.747 322.901 111.607C322.844 111.468 322.761 111.342 322.655 111.235C322.549 111.129 322.424 111.044 322.285 110.986C322.146 110.929 321.998 110.899 321.848 110.899H303.205C302.904 110.898 302.615 110.778 302.403 110.565L299.187 107.35C299.083 107.244 298.959 107.161 298.822 107.103C298.685 107.046 298.538 107.016 298.39 107.016L290.529 106.956C290.375 106.956 290.223 106.987 290.082 107.047C289.94 107.107 289.812 107.195 289.706 107.306C289.599 107.417 289.516 107.548 289.461 107.692C289.407 107.836 289.382 107.989 289.388 108.142Z" fill="#FF6C37"/>
<path d="M323.001 108.918L289.879 108.675L289.734 128.463L322.856 128.706L323.001 108.918Z" fill="#F5F5F5"/>
<path d="M287.239 110.43L289.616 131.087C289.635 131.265 289.719 131.431 289.853 131.55C289.986 131.67 290.16 131.736 290.339 131.735L322.615 131.974C322.8 131.976 322.978 131.907 323.114 131.782C323.25 131.658 323.334 131.485 323.348 131.301L325.127 110.675C325.135 110.574 325.123 110.473 325.09 110.377C325.057 110.281 325.005 110.194 324.937 110.119C324.868 110.045 324.785 109.985 324.693 109.945C324.6 109.904 324.501 109.882 324.399 109.882L287.971 109.618C287.868 109.617 287.766 109.639 287.671 109.68C287.577 109.722 287.492 109.783 287.423 109.86C287.354 109.937 287.302 110.027 287.27 110.125C287.238 110.224 287.227 110.328 287.239 110.43Z" fill="#FF6C37"/>
<path d="M260.184 78.3142H93.3525C89.3414 78.3142 86.0898 81.5658 86.0898 85.5769V190.983C86.0898 194.994 89.3414 198.245 93.3525 198.245H260.184C264.196 198.245 267.447 194.994 267.447 190.983V85.5769C267.447 81.5658 264.196 78.3142 260.184 78.3142Z" fill="#263238"/>
<path d="M78.5039 189.378H274.995V190.998C274.995 193.351 274.06 195.608 272.396 197.272C270.732 198.936 268.475 199.87 266.122 199.87H87.3766C86.2114 199.87 85.0577 199.641 83.9812 199.195C82.9047 198.749 81.9266 198.096 81.1027 197.272C80.2788 196.448 79.6252 195.47 79.1793 194.393C78.7334 193.317 78.5039 192.163 78.5039 190.998V189.378Z" fill="#263238"/>
<path d="M262.071 83.0795H90.957V184.358H262.071V83.0795Z" fill="#455A64"/>
<path d="M158.891 189.378L161.328 193.256H195.638L197.901 189.378H158.891Z" fill="#455A64"/>
<path d="M257.27 86.509H96.1105C95.2102 86.509 94.4805 87.2388 94.4805 88.139V182.404C94.4805 183.304 95.2102 184.034 96.1105 184.034H257.27C258.17 184.034 258.9 183.304 258.9 182.404V88.139C258.9 87.2388 258.17 86.509 257.27 86.509Z" fill="#EBEBEB"/>
<path d="M258.9 93.657H94.4805V184.039H258.9V93.657Z" fill="#FAFAFA"/>
<path d="M107.968 90.2774C107.968 90.5379 107.891 90.7926 107.746 91.0091C107.601 91.2256 107.395 91.3942 107.154 91.4937C106.914 91.5932 106.649 91.6189 106.393 91.5677C106.138 91.5166 105.903 91.3907 105.72 91.2062C105.536 91.0217 105.411 90.7867 105.361 90.5311C105.31 90.2755 105.337 90.0108 105.438 89.7704C105.538 89.53 105.707 89.3248 105.924 89.1808C106.141 89.0368 106.396 88.9605 106.657 88.9615C106.829 88.9615 107 88.9956 107.16 89.0618C107.319 89.128 107.464 89.225 107.586 89.3472C107.707 89.4695 107.804 89.6146 107.869 89.7742C107.935 89.9339 107.968 90.1049 107.968 90.2774Z" fill="#263238"/>
<path d="M100.011 90.2774C100.011 90.5377 99.9336 90.7921 99.789 91.0085C99.6444 91.225 99.4389 91.3936 99.1985 91.4932C98.958 91.5928 98.6934 91.6189 98.4381 91.5681C98.1829 91.5173 97.9484 91.392 97.7643 91.208C97.5803 91.0239 97.455 90.7894 97.4042 90.5342C97.3534 90.2789 97.3795 90.0143 97.4791 89.7738C97.5787 89.5334 97.7474 89.3279 97.9638 89.1833C98.1802 89.0387 98.4346 88.9615 98.6949 88.9615C99.0439 88.9615 99.3786 89.1001 99.6254 89.3469C99.8722 89.5937 100.011 89.9284 100.011 90.2774Z" fill="#263238"/>
<path d="M103.831 90.2774C103.831 90.5379 103.754 90.7926 103.609 91.0091C103.464 91.2256 103.258 91.3942 103.018 91.4937C102.777 91.5932 102.512 91.6189 102.257 91.5677C102.001 91.5166 101.767 91.3907 101.583 91.2062C101.399 91.0217 101.274 90.7867 101.224 90.5311C101.174 90.2755 101.2 90.0108 101.301 89.7704C101.401 89.53 101.571 89.3248 101.788 89.1808C102.005 89.0368 102.26 88.9605 102.52 88.9615C102.693 88.9615 102.864 88.9956 103.023 89.0618C103.182 89.128 103.327 89.225 103.449 89.3472C103.571 89.4695 103.667 89.6146 103.733 89.7742C103.798 89.9339 103.832 90.1049 103.831 90.2774Z" fill="#263238"/>
<path d="M265.908 189.378C265.908 189.442 225.656 189.497 176.014 189.497C126.372 189.497 86.1055 189.442 86.1055 189.378C86.1055 189.313 126.352 189.258 176.014 189.258C225.676 189.258 265.908 189.313 265.908 189.378Z" fill="#455A64"/>
<path d="M143.395 139.187H105.875V141.699H143.395V139.187Z" fill="#E0E0E0"/>
<path d="M191.859 104.339H154.34V106.851H191.859V104.339Z" fill="#E0E0E0"/>
<path d="M247.663 113.685C247.663 113.75 226.772 113.805 201.001 113.805C175.231 113.805 154.34 113.75 154.34 113.685C154.34 113.621 175.231 113.571 201.001 113.571C226.772 113.571 247.663 113.621 247.663 113.685Z" fill="#E0E0E0"/>
<path d="M247.663 119.169C247.663 119.233 226.772 119.283 201.001 119.283C175.231 119.283 154.34 119.233 154.34 119.169C154.34 119.104 175.231 119.049 201.001 119.049C226.772 119.049 247.663 119.104 247.663 119.169Z" fill="#E0E0E0"/>
<path d="M247.663 124.647C247.663 124.712 226.772 124.766 201.001 124.766C175.231 124.766 154.34 124.712 154.34 124.647C154.34 124.582 175.231 124.532 201.001 124.532C226.772 124.532 247.663 124.582 247.663 124.647Z" fill="#E0E0E0"/>
<path d="M247.663 130.13C247.663 130.195 226.772 130.245 201.001 130.245C175.231 130.245 154.34 130.195 154.34 130.13C154.34 130.065 175.231 130.01 201.001 130.01C226.772 130.01 247.663 130.065 247.663 130.13Z" fill="#E0E0E0"/>
<path d="M247.663 135.608C247.663 135.673 226.772 135.728 201.001 135.728C175.231 135.728 154.34 135.673 154.34 135.608C154.34 135.543 175.231 135.493 201.001 135.493C226.772 135.493 247.663 135.543 247.663 135.608Z" fill="#E0E0E0"/>
<path d="M190.768 141.091C190.768 141.156 182.613 141.206 172.554 141.206C162.495 141.206 154.34 141.156 154.34 141.091C154.34 141.026 162.495 140.972 172.554 140.972C182.613 140.972 190.768 141.026 190.768 141.091Z" fill="#E0E0E0"/>
<path d="M246.965 151.723C246.965 151.788 233.233 151.843 216.3 151.843C199.367 151.843 185.629 151.788 185.629 151.723C185.629 151.659 199.357 151.609 216.3 151.609C233.242 151.609 246.965 151.659 246.965 151.723Z" fill="#E0E0E0"/>
<path d="M246.965 157.546C246.965 157.61 233.233 157.66 216.3 157.66C199.367 157.66 185.629 157.61 185.629 157.546C185.629 157.481 199.357 157.426 216.3 157.426C233.242 157.426 246.965 157.481 246.965 157.546Z" fill="#E0E0E0"/>
<path d="M246.968 163.368C246.968 163.432 233.235 163.482 216.302 163.482C199.369 163.482 185.656 163.427 185.656 163.368C185.656 163.308 199.384 163.248 216.327 163.248C233.27 163.248 246.968 163.298 246.968 163.368Z" fill="#E0E0E0"/>
<path d="M246.965 169.18C246.965 169.245 233.233 169.294 216.3 169.294C199.367 169.294 185.629 169.245 185.629 169.18C185.629 169.115 199.357 169.06 216.3 169.06C233.242 169.06 246.965 169.115 246.965 169.18Z" fill="#E0E0E0"/>
<path d="M143.493 151.17C143.493 151.235 135.309 151.285 125.21 151.285C115.111 151.285 106.926 151.235 106.926 151.17C106.926 151.105 115.111 151.051 125.21 151.051C135.309 151.051 143.493 151.105 143.493 151.17Z" fill="#E0E0E0"/>
<path d="M143.493 155.736C143.493 155.801 135.309 155.856 125.21 155.856C115.111 155.856 106.926 155.801 106.926 155.736C106.926 155.671 115.111 155.621 125.21 155.621C135.309 155.621 143.493 155.671 143.493 155.736Z" fill="#E0E0E0"/>
<path d="M143.493 160.307C143.493 160.372 135.309 160.427 125.21 160.427C115.111 160.427 106.926 160.372 106.926 160.307C106.926 160.242 115.111 160.187 125.21 160.187C135.309 160.187 143.493 160.242 143.493 160.307Z" fill="#E0E0E0"/>
<path d="M143.493 164.863C143.493 164.928 135.309 164.978 125.21 164.978C115.111 164.978 106.926 164.928 106.926 164.863C106.926 164.798 115.111 164.743 125.21 164.743C135.309 164.743 143.493 164.813 143.493 164.863Z" fill="#E0E0E0"/>
<path d="M143.493 169.444C143.493 169.509 135.309 169.564 125.21 169.564C115.111 169.564 106.926 169.509 106.926 169.444C106.926 169.379 115.111 169.329 125.21 169.329C135.309 169.329 143.493 169.379 143.493 169.444Z" fill="#E0E0E0"/>
<path d="M180.935 148.947H154.316V174.703H180.935V148.947Z" fill="#F5F5F5"/>
<path d="M156.379 172.5L163.741 159.245L169.768 167.719L173.426 163.218L178.87 172.5H156.379Z" fill="#EBEBEB"/>
<path d="M172.334 156.668C172.335 157.048 172.223 157.42 172.013 157.736C171.802 158.053 171.503 158.299 171.152 158.445C170.801 158.591 170.415 158.63 170.042 158.556C169.669 158.482 169.327 158.299 169.058 158.03C168.789 157.762 168.607 157.419 168.533 157.046C168.459 156.674 168.497 156.287 168.643 155.937C168.789 155.586 169.036 155.286 169.352 155.076C169.668 154.865 170.04 154.753 170.42 154.754C170.928 154.754 171.415 154.956 171.774 155.315C172.133 155.674 172.334 156.161 172.334 156.668Z" fill="#EBEBEB"/>
<path d="M178.874 172.574C178.869 172.538 178.869 172.501 178.874 172.465C178.874 172.39 178.874 172.29 178.874 172.166C178.874 171.891 178.874 171.508 178.874 171.009C178.874 169.987 178.874 168.517 178.844 166.633C178.844 162.869 178.814 157.516 178.789 151.08L178.899 151.19H156.408L156.533 151.066V156.888C156.533 158.782 156.533 160.636 156.533 162.436C156.533 166.044 156.533 169.454 156.533 172.594L156.423 172.48L172.683 172.539L177.269 172.564H178.485H178.804H178.914H178.51H177.314L172.753 172.589L156.423 172.649H156.309V172.539C156.309 169.399 156.309 165.99 156.309 162.381C156.309 160.581 156.309 158.727 156.309 156.833V151.09L156.438 150.961H178.929H179.039V151.066C179.014 157.546 178.994 162.909 178.984 166.687C178.984 168.552 178.959 170.022 178.954 171.039C178.954 171.528 178.954 171.906 178.954 172.176C178.954 172.295 178.954 172.39 178.954 172.465C178.931 172.504 178.905 172.541 178.874 172.574Z" fill="#EBEBEB"/>
<path d="M142.686 100.052H106.582V134.985H142.686V100.052Z" fill="#F5F5F5"/>
<path d="M109.383 131.994L119.372 114.019L127.542 125.509L132.502 119.408L139.889 131.994H109.383Z" fill="#E0E0E0"/>
<path d="M131.022 110.53C131.022 111.044 130.87 111.546 130.584 111.973C130.299 112.4 129.894 112.733 129.419 112.93C128.944 113.126 128.422 113.177 127.918 113.077C127.415 112.977 126.952 112.73 126.589 112.367C126.226 112.003 125.978 111.541 125.878 111.037C125.778 110.533 125.829 110.011 126.026 109.536C126.222 109.062 126.555 108.656 126.982 108.371C127.409 108.085 127.912 107.933 128.425 107.933C129.114 107.933 129.774 108.207 130.262 108.694C130.749 109.181 131.022 109.841 131.022 110.53Z" fill="#E0E0E0"/>
<path d="M139.889 132.094C139.889 132.094 139.889 132.044 139.889 131.949C139.889 131.855 139.889 131.71 139.889 131.541C139.889 131.172 139.889 130.648 139.889 129.97C139.889 128.585 139.864 126.581 139.849 124.039C139.849 118.934 139.805 111.672 139.775 102.948L139.919 103.093L109.418 103.118C109.378 103.153 109.742 102.794 109.587 102.953V110.789C109.587 113.358 109.587 115.867 109.587 118.316C109.587 123.206 109.587 127.832 109.587 132.089L109.438 131.939L131.495 132.014L137.716 132.054H139.371H139.795H139.944H139.815H139.401H137.781L131.595 132.094L109.438 132.169H109.288V132.019C109.288 127.762 109.288 123.136 109.288 118.246C109.288 115.801 109.288 113.292 109.288 110.72V102.958C109.134 103.108 109.498 102.739 109.463 102.779L139.964 102.804H140.114V102.953C140.084 111.716 140.059 119.014 140.039 124.138C140.039 126.666 140.009 128.659 139.999 130.035C139.999 130.698 139.999 131.217 139.999 131.58C139.999 131.745 139.999 131.87 139.999 131.969C139.973 132.019 139.935 132.062 139.889 132.094Z" fill="#E0E0E0"/>
<path d="M147.526 113.327L149.311 116.94L153.298 117.519L150.412 120.335L151.095 124.308L147.526 122.429L143.962 124.308L144.64 120.335L141.754 117.519L145.742 116.94L147.526 113.327Z" fill="#407BFF"/>
<path d="M160.093 100.765L161.872 104.379L165.86 104.957L162.974 107.774L163.657 111.741L160.093 109.867L156.524 111.741L157.206 107.774L154.32 104.957L158.308 104.379L160.093 100.765Z" fill="#407BFF"/>
<path d="M176.882 95.8353L178.661 99.4492L182.654 100.027L179.763 102.839L180.446 106.812L176.882 104.937L173.313 106.812L173.996 102.839L171.109 100.027L175.097 99.4492L176.882 95.8353Z" fill="#407BFF"/>
<path d="M194.252 100.88L196.036 104.494L200.024 105.077L197.138 107.888L197.821 111.861L194.252 109.987L190.688 111.861L191.371 107.888L188.484 105.077L192.472 104.494L194.252 100.88Z" fill="#407BFF"/>
<path d="M206.229 112.858L208.014 116.472L212.002 117.05L209.115 119.866L209.793 123.834L206.229 121.96L202.66 123.834L203.343 119.866L200.457 117.05L204.445 116.472L206.229 112.858Z" fill="#407BFF"/>
<path d="M210.573 130.235L212.358 133.848L216.345 134.427L213.459 137.238L214.142 141.211L210.573 139.337L207.009 141.211L207.687 137.238L204.801 134.427L208.794 133.848L210.573 130.235Z" fill="#407BFF"/>
<path d="M206.346 147.492L208.131 151.105L212.119 151.684L209.233 154.5L209.915 158.473L206.346 156.594L202.782 158.473L203.46 154.5L200.574 151.684L204.567 151.105L206.346 147.492Z" fill="#407BFF"/>
<path d="M193.632 159.465L195.416 163.079L199.404 163.662L196.518 166.473L197.201 170.446L193.632 168.572L190.063 170.446L190.746 166.473L187.859 163.662L191.847 163.079L193.632 159.465Z" fill="#407BFF"/>
<path d="M176.542 164.404L178.326 168.018L182.314 168.597L179.428 171.408L180.106 175.381L176.542 173.506L172.973 175.381L173.656 171.408L170.77 168.597L174.757 168.018L176.542 164.404Z" fill="#407BFF"/>
<path d="M160.221 159.475L162.006 163.088L165.994 163.667L163.108 166.478L163.785 170.451L160.221 168.577L156.652 170.451L157.335 166.478L154.449 163.667L158.437 163.088L160.221 159.475Z" fill="#407BFF"/>
<path d="M147.307 147.177L149.092 150.791L153.08 151.375L150.194 154.186L150.876 158.159L147.307 156.284L143.743 158.159L144.421 154.186L141.535 151.375L145.523 150.791L147.307 147.177Z" fill="#407BFF"/>
<path d="M142.968 130.255L144.747 133.868L148.735 134.447L145.854 137.258L146.532 141.231L142.968 139.357L139.399 141.231L140.081 137.258L137.195 134.447L141.183 133.868L142.968 130.255Z" fill="#407BFF"/>
<path d="M189.189 142.651H185.699V123.66C185.699 121.51 184.845 119.449 183.325 117.929C181.805 116.409 179.744 115.555 177.594 115.555C175.445 115.555 173.383 116.409 171.863 117.929C170.343 119.449 169.489 121.51 169.489 123.66V142.651H166V123.66C166 122.137 166.3 120.63 166.883 119.223C167.465 117.816 168.319 116.538 169.396 115.461C170.473 114.385 171.751 113.531 173.157 112.948C174.564 112.365 176.072 112.065 177.594 112.065C179.117 112.065 180.625 112.365 182.031 112.948C183.438 113.531 184.716 114.385 185.793 115.461C186.869 116.538 187.723 117.816 188.306 119.223C188.889 120.63 189.189 122.137 189.189 123.66V142.651Z" fill="#263238"/>
<path d="M190.319 134.202H164.857C163.258 134.202 161.961 135.499 161.961 137.098V151.36C161.961 152.959 163.258 154.256 164.857 154.256H190.319C191.918 154.256 193.215 152.959 193.215 151.36V137.098C193.215 135.499 191.918 134.202 190.319 134.202Z" fill="#407BFF"/>
<path d="M180.204 141.615C180.204 142.131 180.051 142.636 179.764 143.066C179.477 143.495 179.069 143.83 178.592 144.028C178.115 144.225 177.59 144.277 177.083 144.176C176.576 144.076 176.111 143.827 175.746 143.461C175.38 143.096 175.131 142.631 175.031 142.124C174.93 141.617 174.982 141.092 175.179 140.615C175.377 140.138 175.712 139.73 176.141 139.443C176.571 139.156 177.076 139.003 177.592 139.003C178.285 139.003 178.95 139.278 179.439 139.768C179.929 140.257 180.204 140.922 180.204 141.615Z" fill="#263238"/>
<path d="M178.308 142.651H176.883V148.025H178.308V142.651Z" fill="#263238"/>
<path d="M163.634 152.352C163.564 152.352 163.504 149.007 163.504 144.875C163.504 140.742 163.564 137.398 163.634 137.398C163.703 137.398 163.763 140.742 163.763 144.875C163.763 149.007 163.723 152.352 163.634 152.352Z" fill="#FAFAFA"/>
<path d="M175.549 144.964C175.549 144.964 175.424 144.924 175.24 144.79C174.981 144.596 174.755 144.364 174.567 144.102C174.244 143.672 174.019 143.176 173.909 142.649C173.799 142.123 173.807 141.579 173.931 141.055C174.055 140.532 174.293 140.042 174.628 139.621C174.963 139.2 175.386 138.858 175.868 138.619C176.154 138.47 176.462 138.365 176.78 138.31C176.895 138.286 177.014 138.286 177.129 138.31C176.727 138.447 176.335 138.613 175.958 138.808C175.514 139.052 175.127 139.386 174.821 139.789C174.515 140.191 174.296 140.653 174.179 141.145C174.063 141.637 174.05 142.148 174.142 142.645C174.235 143.143 174.43 143.615 174.716 144.032C174.968 144.365 175.247 144.676 175.549 144.964Z" fill="#FAFAFA"/>
<path d="M67.651 125.3C67.2993 126.441 67.3273 127.665 67.7307 128.789C68.1395 129.903 68.6677 130.969 69.3059 131.969C70.1283 129.978 70.8357 127.941 71.4243 125.868C71.5189 125.65 71.5579 125.412 71.5379 125.176C71.5179 124.939 71.4395 124.711 71.3097 124.512C71.1725 124.398 71.0126 124.315 70.8408 124.268C70.6689 124.22 70.4889 124.21 70.3128 124.238C69.2506 124.303 68.2433 124.732 67.4615 125.454" fill="#263238"/>
<path d="M23.6979 181.208L15.543 199.85H26.7685L34.7589 181.063L23.6979 181.208Z" fill="#263238"/>
<path d="M72.1883 199.631C83.1895 195.987 75.6477 181.437 75.6477 181.437L27.5606 185.958C25.7141 185.958 23.9428 186.69 22.6348 187.993C21.3268 189.297 20.5886 191.065 20.582 192.912C20.582 194.763 21.3173 196.538 22.626 197.846C23.9347 199.155 25.7097 199.89 27.5606 199.89L72.2332 199.651" fill="black"/>
<path d="M83.1256 199.87C93.8476 196.251 86.7793 181.427 86.7793 181.427L39.9234 185.843C35.3475 185.903 33.1094 188.111 33.1094 192.787C33.1094 196.625 34.535 199.865 39.9085 199.766L83.1455 199.875" fill="black"/>
<path d="M72.5615 183.89H72.4319H72.0381L70.5427 183.949L65.0296 184.223L46.8406 185.22C45.9483 185.265 45.071 185.34 44.2087 185.355C43.3463 185.37 42.484 185.405 41.6465 185.455C40.8091 185.505 39.9866 185.569 39.1542 185.654C38.3542 185.712 37.5659 185.88 36.8114 186.153C36.0813 186.426 35.4171 186.851 34.8624 187.399C34.3351 187.939 33.9304 188.587 33.6761 189.298C33.4362 189.961 33.2691 190.648 33.1776 191.347C33.0889 191.989 33.0456 192.637 33.048 193.286C33.0296 194.405 33.2399 195.516 33.6661 196.551C33.9901 197.32 34.4904 198.003 35.1266 198.544C35.5156 198.879 35.9659 199.135 36.4525 199.297C36.7815 199.402 36.7915 199.367 36.4525 199.247C35.9812 199.066 35.5458 198.803 35.1665 198.47C34.558 197.929 34.0822 197.255 33.7757 196.501C33.3705 195.482 33.1755 194.392 33.2025 193.296C33.2054 192.657 33.2537 192.019 33.3471 191.386C33.4385 190.705 33.6057 190.037 33.8455 189.393C34.0878 188.713 34.4776 188.095 34.987 187.583C35.5221 187.058 36.1626 186.652 36.8662 186.392C37.6064 186.135 38.3776 185.979 39.1592 185.928C39.9567 185.849 40.7792 185.784 41.6166 185.739C42.4541 185.694 43.3015 185.654 44.1688 185.639C45.0361 185.624 45.9134 185.554 46.8007 185.51L65.0247 184.408L70.5377 184.054L72.0331 183.944L72.4219 183.909C72.4693 183.912 72.5168 183.906 72.5615 183.89Z" fill="#263238"/>
<path d="M83.1485 188.48C83.0349 188.566 82.9065 188.63 82.7696 188.67C82.4025 188.803 82.018 188.882 81.6281 188.904C80.9789 188.953 80.3268 188.86 79.7178 188.63C79.1088 188.399 78.5576 188.038 78.1032 187.572C77.6489 187.106 77.3023 186.546 77.088 185.931C76.8736 185.316 76.7968 184.662 76.8628 184.014C76.8926 183.626 76.9817 183.244 77.127 182.883C77.1665 182.746 77.2326 182.619 77.3214 182.509C77.1841 183.006 77.0923 183.515 77.0472 184.029C77.0069 184.646 77.0967 185.264 77.3108 185.844C77.5249 186.423 77.8586 186.952 78.2901 187.394C78.7217 187.836 79.2414 188.183 79.8156 188.411C80.3899 188.64 81.0057 188.745 81.6232 188.72C82.1383 188.691 82.6492 188.61 83.1485 188.48Z" fill="#263238"/>
<path d="M59.2974 159.006L54.8511 174.224L38.3867 175.994V178.915L62.5773 179.249L65.8722 159.43L59.2974 159.006Z" fill="#FFBE9D"/>
<path d="M80.771 143.105C83.692 143.105 91.6027 144.6 92.2956 149.934C92.9236 154.749 93.8608 160.212 93.8608 160.212L83.4528 160.491L86.9969 161.434L88.4923 183.909L61.5451 182.972L62.9757 171.418L64.1721 159.878L58.2852 159.38C58.2852 159.38 60.279 149.326 63.8132 146.22C66.0296 144.429 68.7304 143.341 71.5693 143.095C74.6341 142.922 77.7062 142.922 80.771 143.095" fill="#FF6C37"/>
<path d="M65.1407 152.401C65.2055 152.401 64.7917 156.469 64.2235 161.473C63.6552 166.478 63.1418 170.531 63.077 170.521C63.0122 170.511 63.4259 166.453 63.9992 161.448C64.5724 156.444 65.0808 152.401 65.1407 152.401Z" fill="#263238"/>
<path d="M81.5747 143.14C81.5747 143.14 81.5747 143.205 81.6046 143.329C81.6345 143.454 81.6295 143.638 81.6345 143.873C81.6487 144.549 81.5493 145.223 81.3404 145.866C81.0679 146.849 80.5419 147.743 79.8151 148.458C79.3672 148.885 78.836 149.214 78.2549 149.425C77.6227 149.633 76.9612 149.737 76.2959 149.735C75.6285 149.752 74.961 149.707 74.302 149.6C73.6866 149.503 73.1016 149.266 72.5923 148.907C71.7781 148.276 71.206 147.383 70.9723 146.38C70.7954 145.731 70.7197 145.058 70.7479 144.386C70.7479 144.152 70.7729 143.967 70.7878 143.843C70.7912 143.778 70.8029 143.715 70.8227 143.653C70.8365 143.897 70.8365 144.142 70.8227 144.386C70.8266 145.051 70.9222 145.711 71.1068 146.35C71.3533 147.309 71.9152 148.157 72.7019 148.758C73.1891 149.094 73.7465 149.316 74.3319 149.406C74.9713 149.507 75.6187 149.551 76.266 149.535C76.9075 149.535 77.545 149.434 78.1552 149.236C78.7127 149.042 79.2225 148.731 79.6506 148.324C80.3615 147.636 80.8848 146.778 81.1709 145.832C81.3842 145.203 81.5035 144.546 81.5248 143.883C81.5647 143.429 81.5597 143.14 81.5747 143.14Z" fill="#263238"/>
<g opacity="0.2">
<path d="M83.0222 152.401C82.0253 157.172 80.7243 162.072 79.7274 166.857C79.5862 167.885 79.2258 168.871 78.6706 169.748C78.2598 170.25 77.7798 170.692 77.245 171.059C75.3215 172.597 73.1817 173.844 70.8945 174.758C74.2331 174.472 77.5405 173.897 80.7791 173.038C81.0497 173.023 81.3145 172.954 81.5583 172.836C81.8021 172.717 82.02 172.552 82.1994 172.349C82.3788 172.146 82.5162 171.909 82.6035 171.653C82.6908 171.396 82.7264 171.125 82.7082 170.855C83.426 164.738 83.2067 158.572 83.0222 152.411" fill="black"/>
</g>
<path d="M94.0321 160.292C93.7738 160.337 93.5117 160.357 93.2495 160.352L91.1111 160.432C89.3117 160.491 86.8193 160.551 84.0628 160.606H83.1805H83.0708V160.496C82.9711 157.939 83.016 155.666 83.0708 154.016C83.0708 153.204 83.1257 152.546 83.1556 152.092C83.1566 151.857 83.1783 151.621 83.2204 151.389C83.2397 151.623 83.2397 151.858 83.2204 152.092C83.2204 152.591 83.2204 153.234 83.2204 154.021C83.2204 155.656 83.1905 157.929 83.2951 160.472L83.1805 160.362H84.0678C86.8193 160.307 89.3116 160.272 91.1161 160.257H93.2545C93.5142 160.249 93.7742 160.261 94.0321 160.292Z" fill="#263238"/>
<path d="M17.767 161.374L26.9637 179.468H55.9646L54.7882 177.11L46.389 176.856L39.5401 161.613C39.332 161.149 38.9938 160.755 38.5666 160.479C38.1393 160.203 37.6412 160.057 37.1325 160.058H18.5845C18.43 160.059 18.2783 160.1 18.1436 160.175C18.0088 160.251 17.8954 160.36 17.8139 160.491C17.7323 160.622 17.6853 160.772 17.6771 160.926C17.6689 161.081 17.6998 161.235 17.767 161.374Z" fill="#E0E0E0"/>
<path d="M31.1741 170.595C31.788 170.595 32.2857 170.098 32.2857 169.484C32.2857 168.87 31.788 168.372 31.1741 168.372C30.5602 168.372 30.0625 168.87 30.0625 169.484C30.0625 170.098 30.5602 170.595 31.1741 170.595Z" fill="#263238"/>
<path d="M81.7208 129.472L80.684 144.187C80.6008 145.344 80.0827 146.426 79.2338 147.217C78.3849 148.008 77.2681 148.448 76.108 148.449C75.4804 148.448 74.8595 148.32 74.2836 148.07C73.7077 147.821 73.1891 147.456 72.7598 146.998C72.3305 146.54 71.9996 145.999 71.7876 145.408C71.5755 144.818 71.4869 144.19 71.5271 143.564C71.6218 142.163 71.7016 141.011 71.7016 141.011C71.7016 141.011 68.1475 140.458 68.0977 136.899C68.0977 135.219 68.297 131.914 68.5463 128.779C68.6876 127.024 69.4836 125.386 70.7763 124.19C72.0689 122.994 73.7639 122.328 75.5248 122.324C76.4054 122.374 77.267 122.6 78.0586 122.989C78.8502 123.378 79.5557 123.922 80.1334 124.588C80.7111 125.255 81.1493 126.031 81.4219 126.869C81.6946 127.708 81.7962 128.593 81.7208 129.472Z" fill="#FFBE9D"/>
<path d="M71.6818 141.196C73.3274 141.228 74.9449 140.768 76.3276 139.875C76.3276 139.875 75.2259 142.437 71.6719 142.118L71.6818 141.196Z" fill="#EB996E"/>
<path d="M69.6602 131.102C69.6602 131.234 69.7127 131.361 69.8062 131.454C69.8996 131.548 70.0264 131.6 70.1586 131.6C70.2884 131.607 70.4158 131.563 70.5136 131.477C70.6114 131.392 70.6718 131.271 70.682 131.142C70.682 131.009 70.6295 130.883 70.536 130.789C70.4425 130.696 70.3158 130.643 70.1835 130.643C70.0537 130.636 69.9264 130.68 69.8286 130.766C69.7308 130.852 69.6704 130.972 69.6602 131.102Z" fill="#263238"/>
<path d="M69.3437 130.404C69.4085 130.469 69.7924 130.185 70.3407 130.185C70.889 130.185 71.2878 130.459 71.3376 130.394C71.3875 130.329 71.3027 130.244 71.1283 130.115C70.8905 129.952 70.6089 129.865 70.3207 129.866C70.0359 129.867 69.7586 129.957 69.5282 130.125C69.3687 130.254 69.3138 130.374 69.3437 130.404Z" fill="#263238"/>
<path d="M74.8164 131.251C74.8164 131.384 74.8689 131.51 74.9624 131.604C75.0559 131.697 75.1827 131.75 75.3149 131.75C75.4404 131.75 75.5616 131.703 75.654 131.618C75.7464 131.533 75.8033 131.416 75.8133 131.291C75.8133 131.159 75.7608 131.032 75.6673 130.939C75.5739 130.845 75.4471 130.793 75.3149 130.793C75.1893 130.792 75.0682 130.839 74.9758 130.924C74.8834 131.009 74.8265 131.126 74.8164 131.251Z" fill="#263238"/>
<path d="M74.7223 130.504C74.7871 130.568 75.1759 130.284 75.7192 130.289C76.2626 130.294 76.6663 130.563 76.7162 130.494C76.766 130.424 76.6813 130.344 76.5068 130.22C76.2705 130.054 75.988 129.967 75.6993 129.97C75.4148 129.969 75.1371 130.058 74.9067 130.225C74.7522 130.354 74.6924 130.469 74.7223 130.504Z" fill="#263238"/>
<path d="M72.7354 134.561C72.4471 134.472 72.1492 134.419 71.8481 134.402C71.7085 134.402 71.5739 134.362 71.549 134.267C71.5381 134.121 71.5711 133.975 71.6437 133.848L72.0575 132.787C72.4391 131.885 72.7491 130.955 72.9846 130.005C72.5309 130.874 72.1459 131.778 71.8331 132.707C71.6986 133.081 71.564 133.435 71.4394 133.774C71.3494 133.943 71.3246 134.14 71.3696 134.327C71.3903 134.376 71.4216 134.42 71.4613 134.455C71.5009 134.49 71.5479 134.516 71.5989 134.531C71.6756 134.55 71.7542 134.56 71.8331 134.561C72.1325 134.602 72.436 134.602 72.7354 134.561Z" fill="#263238"/>
<path d="M74.3463 134.955C74.2566 134.955 74.2566 135.543 73.7482 135.952C73.2397 136.361 72.6067 136.311 72.6017 136.391C72.5967 136.47 72.7462 136.505 73.0104 136.515C73.359 136.521 73.6983 136.403 73.9675 136.181C74.2258 135.969 74.392 135.666 74.4311 135.334C74.456 135.085 74.3862 134.955 74.3463 134.955Z" fill="#263238"/>
<path d="M74.5814 128.36C74.6362 128.51 75.1845 128.44 75.8226 128.515C76.4606 128.59 76.984 128.769 77.0687 128.634C77.1535 128.5 77.0189 128.43 76.8095 128.285C76.5306 128.109 76.2149 127.998 75.8867 127.962C75.5584 127.925 75.2262 127.964 74.9153 128.076C74.6761 128.171 74.5564 128.29 74.5814 128.36Z" fill="#263238"/>
<path d="M69.5463 128.819C69.641 128.943 70.0448 128.819 70.4735 128.819C70.9021 128.819 71.3059 128.904 71.3956 128.769C71.4853 128.634 71.3956 128.585 71.2062 128.465C70.9809 128.322 70.7181 128.25 70.4516 128.258C70.1851 128.266 69.9271 128.354 69.7108 128.51C69.5563 128.629 69.5114 128.759 69.5463 128.819Z" fill="#263238"/>
<path d="M80.5191 132.378C80.579 132.348 82.9666 131.655 82.8869 134.088C82.8071 136.52 80.3945 135.942 80.3945 135.872C80.3945 135.802 80.5191 132.378 80.5191 132.378Z" fill="#FFBE9D"/>
<path d="M81.1495 134.955C81.1495 134.955 81.1944 134.985 81.2642 135.02C81.3139 135.04 81.3673 135.051 81.4212 135.051C81.4751 135.051 81.5284 135.04 81.5782 135.02C81.7354 134.924 81.8643 134.788 81.9519 134.626C82.0394 134.464 82.0825 134.282 82.0767 134.098C82.0867 133.889 82.0527 133.68 81.977 133.484C81.9557 133.408 81.9165 133.338 81.8628 133.28C81.809 133.222 81.7422 133.178 81.6679 133.151C81.62 133.135 81.5683 133.138 81.5218 133.157C81.4753 133.176 81.4371 133.211 81.4137 133.255C81.3788 133.325 81.4137 133.375 81.3788 133.375C81.3439 133.375 81.329 133.335 81.3788 133.235C81.3923 133.175 81.4278 133.121 81.4785 133.086C81.5119 133.061 81.5498 133.044 81.5901 133.035C81.6303 133.025 81.672 133.024 81.7128 133.031C81.8124 133.053 81.9046 133.1 81.9806 133.168C82.0566 133.236 82.1137 133.323 82.1465 133.42C82.2418 133.636 82.2845 133.872 82.2711 134.108C82.2742 134.324 82.2141 134.537 82.0981 134.721C81.9822 134.904 81.8153 135.049 81.6181 135.139C81.5513 135.153 81.4823 135.154 81.4154 135.14C81.3485 135.126 81.2852 135.099 81.2293 135.06C81.1545 135.035 81.1445 134.98 81.1495 134.955Z" fill="#EB996E"/>
<path d="M59.0476 179.498H23.6016V181.228H59.0476V179.498Z" fill="#263238"/>
<path d="M48.1328 180.36L58.9147 199.87H68.565L59.0492 181.228L48.1328 180.36Z" fill="#263238"/>
<path d="M59.0456 181.228C59.0456 181.298 51.1 181.397 41.3001 181.447C31.5003 181.497 23.5547 181.477 23.5547 181.407C23.5547 181.337 31.5003 181.238 41.3001 181.188C51.1 181.138 59.0456 181.158 59.0456 181.228Z" fill="black"/>
<path d="M67.5643 127.194C67.8878 127.313 68.233 127.361 68.5768 127.336C68.9206 127.311 69.2551 127.214 69.5582 127.049C69.5041 127.11 69.4635 127.181 69.439 127.258C69.4145 127.336 69.4068 127.417 69.4162 127.498C69.4256 127.578 69.452 127.656 69.4937 127.726C69.5353 127.795 69.5913 127.855 69.6578 127.902C69.9379 128.074 70.2684 128.147 70.595 128.106C72.3663 128.037 74.0503 127.319 75.3254 126.087C75.3536 126.395 75.4717 126.687 75.6649 126.929C75.8581 127.17 76.1179 127.349 76.4121 127.443C77.0056 127.62 77.6379 127.62 78.2315 127.443C78.0113 128.344 77.974 129.279 78.1218 130.195C78.2018 130.65 78.4134 131.072 78.7305 131.409C79.0476 131.745 79.4564 131.982 79.9063 132.089C80.02 132.56 80.0587 133.046 80.021 133.529C80.0559 134.028 80.335 134.566 80.8235 134.581C81.312 134.596 81.5662 134.152 81.626 133.729C81.6859 133.305 81.4316 132.443 81.7357 131.76C82.0398 131.077 81.9351 131.152 82.2591 130.409C82.5831 129.666 82.7576 128.639 83.0267 127.867C83.3191 127.098 83.3419 126.253 83.0915 125.469C82.9539 125.085 82.7019 124.753 82.3694 124.517C82.037 124.28 81.6401 124.152 81.2323 124.148C81.3811 123.763 81.4046 123.341 81.2992 122.942C81.1939 122.543 80.9652 122.187 80.6457 121.926C80.3263 121.664 79.9324 121.51 79.5203 121.486C79.1083 121.462 78.6991 121.568 78.3511 121.79C78.3511 121.79 75.5796 119.906 72.5141 120.948C69.4485 121.99 68.9899 124.771 68.322 124.856C67.654 124.941 65.6302 123.859 65.9792 124.537C66.3281 125.215 66.9063 125.898 67.1954 125.928C67.4845 125.958 64.8776 124.856 65.7748 125.843C66.2741 126.409 66.8828 126.869 67.5643 127.194Z" fill="#263238"/>
<path d="M91.9998 150.906C91.7148 150.563 91.392 150.254 91.0377 149.984C90.0344 149.293 88.8355 148.944 87.6183 148.987C86.078 148.987 84.3134 149.65 82.5788 150.712C80.8441 151.773 79.0646 153.204 76.8613 154.166C74.7797 155.107 72.4122 155.194 70.2666 154.41C69.3434 154.065 68.4817 153.573 67.7145 152.955C66.9917 152.396 66.3537 151.833 65.7206 151.379C64.7768 150.609 63.6241 150.139 62.4108 150.029C61.9641 150.018 61.5185 150.077 61.0898 150.203C61.0898 150.203 61.0898 150.203 61.1696 150.163C61.249 150.127 61.3306 150.095 61.4138 150.069C61.7372 149.972 62.0733 149.925 62.4108 149.929C63.6575 150 64.8518 150.454 65.8303 151.23C67.1063 152.112 68.4073 153.513 70.3165 154.186C72.4085 154.926 74.7049 154.835 76.7317 153.932C78.8851 152.995 80.6497 151.544 82.4292 150.507C84.2088 149.47 86.0032 148.772 87.5884 148.802C88.8427 148.775 90.0705 149.166 91.0776 149.914C91.3457 150.117 91.5854 150.355 91.7904 150.622C91.8718 150.707 91.9421 150.803 91.9998 150.906Z" fill="#FAFAFA"/>
<path d="M83.1285 164.026C83.1285 164.026 82.8843 163.866 82.4406 163.612C81.8118 163.25 81.1308 162.988 80.4218 162.834C79.3756 162.602 78.2892 162.621 77.2516 162.889C76.0752 163.183 74.8739 163.801 73.538 164.295C72.8841 164.536 72.2053 164.703 71.5142 164.793C70.8693 164.874 70.2176 164.886 69.5702 164.828C68.4755 164.731 67.407 164.439 66.4149 163.966C65.7449 163.655 65.1223 163.25 64.5656 162.764C64.4111 162.637 64.2661 162.499 64.1319 162.351C64.0372 162.256 63.9874 162.201 63.9973 162.191C64.0073 162.181 64.2217 162.371 64.6304 162.69C65.2027 163.136 65.8271 163.511 66.4897 163.806C67.4715 164.242 68.5196 164.51 69.5902 164.599C70.9012 164.701 72.2186 164.512 73.4483 164.046C74.6698 163.514 75.9195 163.05 77.1918 162.655C78.0881 162.431 79.0205 162.392 79.9323 162.541C80.8441 162.689 81.7162 163.021 82.4955 163.517C82.6681 163.627 82.8345 163.747 82.9939 163.876C83.0837 163.971 83.1335 164.021 83.1285 164.026Z" fill="#FAFAFA"/>
<path d="M87.0512 172.405C86.7376 172.281 86.4162 172.178 86.0891 172.096C85.1807 171.949 84.2499 172.033 83.3824 172.34C82.7801 172.538 82.1963 172.788 81.6378 173.088C81.0297 173.407 80.3966 173.786 79.7137 174.154C78.9986 174.56 78.2415 174.886 77.4557 175.126C76.5956 175.379 75.6868 175.416 74.8088 175.236C72.9994 174.842 71.5688 173.796 70.2528 173.013C69.1314 172.233 67.8454 171.721 66.4944 171.518C65.5805 171.421 64.6597 171.62 63.8675 172.086C63.5845 172.27 63.3235 172.485 63.0898 172.729C63.1301 172.65 63.1803 172.576 63.2394 172.509C63.4057 172.317 63.5988 172.149 63.8126 172.011C64.6143 171.491 65.5677 171.256 66.5193 171.343C67.7256 171.403 69.0565 171.996 70.3874 172.799C71.7183 173.601 73.1389 174.598 74.8736 174.972C75.7116 175.144 76.579 175.11 77.4008 174.872C78.1694 174.638 78.9112 174.324 79.614 173.935C80.2969 173.576 80.935 173.202 81.5531 172.883C82.1284 172.588 82.7289 172.344 83.3476 172.156C84.2411 171.851 85.2007 171.794 86.124 171.991C86.3728 172.051 86.6137 172.139 86.8418 172.255C86.9814 172.34 87.0562 172.395 87.0512 172.405Z" fill="#FAFAFA"/>
<path d="M88.3253 181.931C88.2483 181.978 88.1642 182.014 88.0761 182.035C87.8241 182.107 87.565 182.15 87.3034 182.165C86.3374 182.165 85.3817 181.965 84.4971 181.577C83.8882 181.339 83.2657 181.137 82.6328 180.973C81.9039 180.821 81.1564 180.777 80.4146 180.844C78.8395 180.978 77.1796 181.577 75.43 182.085C74.5635 182.343 73.6762 182.525 72.7781 182.628C71.9369 182.707 71.0896 182.695 70.2509 182.593C68.84 182.397 67.4587 182.027 66.1385 181.492C65.2501 181.144 64.38 180.752 63.5315 180.315C63.2275 180.166 62.9982 180.036 62.8437 179.952C62.76 179.913 62.6813 179.865 62.6094 179.807C62.6989 179.827 62.7847 179.86 62.8636 179.907L63.5714 180.226C64.1895 180.505 65.0668 180.909 66.2033 181.327C67.5152 181.831 68.8822 182.178 70.2758 182.359C71.1041 182.451 71.9399 182.451 72.7681 182.359C73.6512 182.257 74.5236 182.076 75.3751 181.821C77.1347 181.322 78.8145 180.719 80.4346 180.595C81.2006 180.528 81.9724 180.58 82.7225 180.749C83.3625 180.922 83.9902 181.137 84.6018 181.392C85.4634 181.785 86.3924 182.008 87.3383 182.05C87.6701 182.038 88.0003 181.998 88.3253 181.931Z" fill="#FAFAFA"/>
<path d="M93.4369 157.775C93.3525 157.896 93.25 158.004 93.1329 158.094C92.8243 158.354 92.4781 158.566 92.106 158.722C91.5486 158.954 90.9501 159.071 90.3464 159.066C89.6055 159.038 88.8801 158.846 88.223 158.503C87.5251 158.169 86.897 157.805 86.2839 157.585C85.7468 157.391 85.1707 157.327 84.6041 157.401C84.2229 157.45 83.8616 157.6 83.5573 157.835C83.3479 158.014 83.2582 158.144 83.2383 158.129C83.2894 157.987 83.3751 157.86 83.4875 157.76C83.7865 157.477 84.1631 157.289 84.5692 157.222C85.1696 157.116 85.7869 157.164 86.3637 157.361C87.0461 157.623 87.712 157.926 88.3575 158.268C88.9749 158.594 89.6547 158.784 90.3514 158.827C90.9254 158.844 91.4973 158.751 92.0362 158.552C92.5278 158.34 92.997 158.08 93.4369 157.775Z" fill="#FAFAFA"/>
<path d="M64.4884 157.526C64.4884 157.526 64.4585 157.61 64.3289 157.7C64.1404 157.816 63.9218 157.873 63.7008 157.865C63.3765 157.853 63.0599 157.762 62.7786 157.6C62.4646 157.426 62.1655 157.182 61.8415 156.972C61.292 156.611 60.6236 156.477 59.9772 156.598C59.4788 156.688 59.2046 156.873 59.1797 156.833C59.3824 156.618 59.6475 156.474 59.9374 156.419C60.2824 156.326 60.6435 156.308 60.9961 156.366C61.3487 156.425 61.6846 156.558 61.9811 156.758C62.325 156.977 62.6141 157.222 62.8982 157.391C63.1442 157.547 63.4218 157.645 63.7108 157.68C63.9791 157.699 64.2478 157.646 64.4884 157.526Z" fill="#FAFAFA"/>
<path d="M50.9499 173.621L58.2026 172.749L63.3119 176.098L82.8518 171.418L83.4251 160.511L92.1981 160.292L91.9937 173.093C91.9731 174.072 91.7589 175.038 91.3636 175.934C90.9682 176.83 90.3995 177.639 89.6902 178.314C88.9809 178.99 88.145 179.519 87.2305 179.87C86.3161 180.221 85.3413 180.388 84.3622 180.36L55.7402 179.568L54.5239 177.13L48.3828 176.951L50.9499 173.621Z" fill="#FFBE9D"/>
<path d="M82.6064 171.418C82.4859 171.462 82.3627 171.499 82.2375 171.528L81.1758 171.807L77.2529 172.804L64.2927 175.944L63.0914 176.228H63.0416L63.0017 176.198L57.8924 172.838H57.9622L50.7095 173.676H50.7543L48.8402 176.108C48.6209 176.373 48.4514 176.607 48.3418 176.746C48.2852 176.823 48.2218 176.895 48.1523 176.961C48.1986 176.877 48.252 176.797 48.3119 176.722L48.8103 176.059L50.6746 173.566H50.7045L57.9522 172.659H57.9921H58.027L63.1413 175.999H63.0515L64.2578 175.71L77.218 172.634L81.1608 171.727L82.2326 171.493C82.3546 171.456 82.4797 171.431 82.6064 171.418Z" fill="#EB996E"/>
<path d="M54.9103 175.7C53.9744 175.812 53.031 175.85 52.089 175.814H51.5905H51.6653C51.0965 176.334 50.4845 176.804 49.8359 177.22C50.3491 176.647 50.9111 176.12 51.5158 175.645L51.5507 175.615H52.104C53.0402 175.567 53.9787 175.595 54.9103 175.7Z" fill="#EB996E"/>
<path d="M86.2038 173.601C85.8575 172.997 85.3684 172.487 84.7791 172.116C84.1899 171.745 83.5187 171.524 82.8242 171.473C83.0256 171.401 83.2422 171.384 83.4523 171.423C83.9676 171.475 84.464 171.646 84.9028 171.921C85.3409 172.196 85.708 172.57 85.9745 173.013C86.1022 173.185 86.1814 173.388 86.2038 173.601Z" fill="#EB996E"/>
</g>
<defs>
<clipPath id="clip0_1200_18131">
<rect width="336.296" height="200" fill="white"/>
</clipPath>
</defs>
</svg>
