<svg width="314" height="200" viewBox="0 0 314 200" fill="none" xmlns="http://www.w3.org/2000/svg">
<g clip-path="url(#clip0_1321_21555)">
<path d="M54.9694 1.4837H51.6016V73.9078H54.9694V1.4837Z" fill="#E0E0E0"/>
<path d="M51.0414 2.04425H2.78538C2.75937 2.04425 2.73828 2.06534 2.73828 2.09135V73.9597C2.73828 73.9857 2.75937 74.0068 2.78538 74.0068H51.0414C51.0674 74.0068 51.0885 73.9857 51.0885 73.9597V2.09135C51.0885 2.06534 51.0674 2.04425 51.0414 2.04425Z" fill="#F5F5F5"/>
<path d="M51.5955 74.5672H2.22318C2.21658 74.5673 2.21004 74.5659 2.204 74.5632C2.19795 74.5606 2.19253 74.5567 2.18809 74.5518C2.18365 74.5469 2.18028 74.5412 2.17821 74.5349C2.17614 74.5286 2.17542 74.522 2.17608 74.5154V1.50724C2.17532 1.50087 2.17602 1.49441 2.17812 1.48835C2.18022 1.48229 2.18366 1.47679 2.1882 1.47225C2.19273 1.46772 2.19824 1.46427 2.20429 1.46217C2.21035 1.46008 2.21681 1.45938 2.22318 1.46014H51.5955C51.6021 1.45948 51.6087 1.4602 51.615 1.46227C51.6213 1.46434 51.6271 1.46771 51.6319 1.47215C51.6368 1.47659 51.6407 1.48201 51.6434 1.48805C51.646 1.4941 51.6474 1.50064 51.6474 1.50724V74.5154C51.6474 74.5292 51.6419 74.5423 51.6322 74.552C51.6225 74.5618 51.6093 74.5672 51.5955 74.5672ZM3.34421 73.4603H50.4792C50.493 73.4603 50.5061 73.4549 50.5159 73.4452C50.5256 73.4354 50.531 73.4222 50.531 73.4085V2.65182C50.5311 2.64521 50.5297 2.63868 50.5271 2.63263C50.5244 2.62659 50.5205 2.62117 50.5156 2.61673C50.5107 2.61229 50.505 2.60892 50.4987 2.60685C50.4924 2.60478 50.4858 2.60406 50.4792 2.60472H3.34421C3.33784 2.60396 3.33138 2.60466 3.32532 2.60675C3.31926 2.60885 3.31376 2.6123 3.30923 2.61683C3.30469 2.62137 3.30124 2.62687 3.29914 2.63293C3.29705 2.63899 3.29635 2.64545 3.29711 2.65182V73.3944C3.29381 73.4019 3.29251 73.4101 3.29335 73.4182C3.29418 73.4263 3.29712 73.4341 3.30187 73.4408C3.30662 73.4474 3.31303 73.4527 3.32045 73.4562C3.32787 73.4596 3.33606 73.461 3.34421 73.4603Z" fill="#EBEBEB"/>
<path d="M46.2574 6.48126H7.65257C7.62656 6.48126 7.60547 6.50235 7.60547 6.52836V69.4708C7.60547 69.4968 7.62656 69.5179 7.65257 69.5179H46.2574C46.2834 69.5179 46.3045 69.4968 46.3045 69.4708V6.52836C46.3045 6.50235 46.2834 6.48126 46.2574 6.48126Z" fill="white"/>
<path d="M37.7468 24.3517H16.0751C16.0595 24.3517 16.0469 24.3644 16.0469 24.38V49.7916C16.0469 49.8072 16.0595 49.8198 16.0751 49.8198H37.7468C37.7624 49.8198 37.775 49.8072 37.775 49.7916V24.38C37.775 24.3644 37.7624 24.3517 37.7468 24.3517Z" fill="#EBEBEB"/>
<path d="M36.0579 46.7017C36.0862 46.7865 35.0123 47.2575 32.9728 47.0173C31.7151 46.8461 30.521 46.36 29.5013 45.6042C28.1143 44.5689 27.1556 43.0604 26.8071 41.365C26.606 40.3031 26.6911 39.2069 27.0536 38.1887C27.4162 37.1706 28.0432 36.2673 28.8702 35.5715C29.3353 35.1725 29.8638 34.8541 30.434 34.6294C31.0579 34.398 31.7288 34.322 32.3887 34.408C33.1139 34.4788 33.7981 34.7773 34.3434 35.2606C34.6485 35.5475 34.8781 35.9052 35.0121 36.302C35.146 36.6988 35.18 37.1225 35.1112 37.5356C34.9627 38.2821 34.5877 38.9647 34.0373 39.4904C33.5545 39.9703 33.0038 40.3766 32.4028 40.6962C31.2036 41.3617 29.8678 41.7435 28.4981 41.8125C27.0495 41.8915 25.6077 41.5653 24.3342 40.8705C23.0222 40.1382 21.9568 39.0335 21.2726 37.6958C20.5681 36.3257 20.3729 34.75 20.7215 33.2493C21.0688 31.7963 21.8991 30.5043 23.0766 29.5848C23.6612 29.1312 24.3283 28.7953 25.0408 28.5957C25.7635 28.4027 26.521 28.3786 27.2546 28.525C28.0283 28.6741 28.7326 29.0709 29.2611 29.6555C29.7662 30.2575 30.0445 31.0174 30.0477 31.8033C30.0536 32.5185 29.8734 33.223 29.5249 33.8475C29.203 34.4129 28.7836 34.9168 28.2861 35.336C27.3857 36.0915 26.336 36.6484 25.2056 36.9704C24.1562 37.2785 23.054 37.3635 21.9697 37.22C20.9573 37.0823 19.9903 36.7133 19.1436 36.1414C18.4185 35.6624 17.8036 35.0346 17.3399 34.2996C16.8762 33.5646 16.5742 32.7394 16.4541 31.8787C16.3079 30.5782 16.6633 29.2709 17.4479 28.2236C17.9164 27.5719 18.5552 27.0619 19.2943 26.7493C19.803 26.5561 20.0903 26.5609 20.1045 26.6127C20.1186 26.6645 19.8737 26.7917 19.4639 27.0837C18.8853 27.4889 18.4029 28.0163 18.0508 28.6286C17.4852 29.5648 17.2777 30.6742 17.4668 31.7515C17.61 32.4457 17.8969 33.1023 18.309 33.679C18.721 34.2558 19.2492 34.74 19.8595 35.1004C20.5982 35.5342 21.4228 35.8011 22.2755 35.8824C23.1283 35.9638 23.9885 35.8577 24.7958 35.5715C25.7072 35.2758 26.5476 34.7947 27.264 34.1584C27.6155 33.8824 27.9014 33.5317 28.101 33.1318C28.3005 32.7318 28.4088 32.2926 28.418 31.8457C28.4157 31.4373 28.2632 31.044 27.9896 30.7408C27.716 30.4377 27.3403 30.2458 26.9343 30.2018C26.4643 30.1173 25.9813 30.1398 25.5212 30.2678C25.0343 30.4169 24.5791 30.6548 24.1788 30.9696C23.3323 31.6548 22.7389 32.603 22.4925 33.6638C22.242 34.7559 22.389 35.9016 22.907 36.895C23.4364 37.9189 24.2555 38.7642 25.2621 39.3255C26.2457 39.8651 27.3585 40.1242 28.4792 40.0744C29.5845 40.0271 30.6649 39.7309 31.6398 39.2077C32.1012 38.9733 32.5263 38.6734 32.9021 38.3175C33.2142 38.0399 33.4371 37.676 33.5427 37.2719C33.5742 37.1216 33.567 36.9658 33.5217 36.8191C33.4763 36.6724 33.3944 36.5397 33.2836 36.4334C32.9925 36.1716 32.627 36.0069 32.238 35.9624C31.8257 35.9012 31.4048 35.9367 31.0086 36.066C30.594 36.2131 30.2059 36.4262 29.8593 36.6972C29.2052 37.2181 28.6995 37.9017 28.3928 38.6796C28.0861 39.4575 27.9892 40.3024 28.1118 41.1295C28.3466 42.5569 29.0791 43.8551 30.1796 44.7941C31.0445 45.5121 32.0631 46.0213 33.1564 46.2825C34.9369 46.7582 36.0438 46.5462 36.0579 46.7017Z" fill="#E0E0E0"/>
<path d="M307.159 7.39032H268.695V47.4883H307.159V7.39032Z" fill="#E0E0E0"/>
<path d="M304.553 7.39032H266.09V47.4883H304.553V7.39032Z" fill="#FAFAFA"/>
<path d="M304.565 47.5024H266.078V7.38092H304.565V47.5024ZM266.102 47.4742H304.542V7.40447H266.102V47.4742Z" fill="#E0E0E0"/>
<path d="M299.386 12.7835H271.262V42.0998H299.386V12.7835Z" fill="white"/>
<path d="M271.259 42.293C271.062 42.5886 270.829 42.859 270.567 43.0984C270.096 43.5694 269.483 44.2147 268.777 44.9118C268.07 45.609 267.42 46.2307 266.94 46.6687C266.697 46.9275 266.424 47.1553 266.125 47.347C266.325 47.0547 266.557 46.786 266.817 46.5463C267.288 46.0753 267.901 45.4253 268.607 44.7281C269.314 44.031 269.969 43.4093 270.449 42.9665C270.689 42.7086 270.962 42.4822 271.259 42.293Z" fill="#E0E0E0"/>
<path d="M299.387 42.2223C299.68 42.4224 299.95 42.6547 300.192 42.9147C300.663 43.3622 301.308 43.9933 302.006 44.7046C302.703 45.4158 303.324 46.0611 303.762 46.5416C304.019 46.7845 304.247 47.0564 304.441 47.3517C304.147 47.1544 303.876 46.9236 303.635 46.664C303.164 46.193 302.519 45.5807 301.822 44.8694C301.125 44.1582 300.498 43.5082 300.06 43.0324C299.804 42.7908 299.577 42.5187 299.387 42.2223Z" fill="#E0E0E0"/>
<path d="M299.305 12.8589C299.508 12.5662 299.741 12.2962 300.002 12.0534C300.473 11.5824 301.08 10.9371 301.787 10.24C302.493 9.54287 303.148 8.92113 303.624 8.48308C303.868 8.22559 304.141 7.99792 304.439 7.80481C304.241 8.09964 304.008 8.37 303.746 8.61025C303.275 9.08127 302.668 9.72657 301.957 10.4237C301.245 11.1208 300.591 11.7567 300.12 12.1853C299.878 12.4436 299.604 12.6699 299.305 12.8589Z" fill="#E0E0E0"/>
<path d="M271.184 12.9295C270.885 12.7308 270.613 12.4949 270.374 12.2277C269.903 11.7566 269.257 11.149 268.565 10.4425C267.872 9.73596 267.246 9.08124 266.803 8.60551C266.548 8.35998 266.32 8.08667 266.125 7.79065C266.421 7.98743 266.691 8.21999 266.93 8.48305C267.401 8.95407 268.047 9.56168 268.749 10.2729C269.45 10.9842 270.067 11.6342 270.51 12.1146C270.763 12.3616 270.989 12.6348 271.184 12.9295Z" fill="#E0E0E0"/>
<path d="M299.304 42.0998C299.304 42.0998 299.304 42.048 299.304 41.9538C299.304 41.8596 299.304 41.723 299.304 41.5487C299.304 41.1813 299.304 40.6491 299.304 39.9661C299.304 38.5766 299.304 36.5559 299.276 33.9888C299.276 28.8547 299.243 21.5398 299.22 12.7929L299.328 12.9012H271.288L271.411 12.7788C271.411 23.5369 271.411 33.6026 271.411 42.0951L271.302 41.9868L291.608 42.0433L297.312 42.0668H298.824H299.177H299.309H298.81H297.321L291.641 42.0951L271.265 42.1469H271.156V42.0433C271.156 33.5649 271.156 23.4851 271.156 12.727V12.5998H271.288H299.328H299.441V12.7081C299.441 21.4927 299.403 28.8312 299.389 33.9841C299.389 36.5371 299.389 38.5483 299.361 39.9331C299.361 40.6114 299.361 41.1342 299.361 41.4969C299.361 41.6665 299.361 41.7936 299.361 41.8926C299.353 41.9642 299.334 42.0341 299.304 42.0998Z" fill="#E0E0E0"/>
<path d="M290.012 22.7503H280.629V32.133H290.012V22.7503Z" fill="#EBEBEB"/>
<path d="M307.159 61.5106H268.695V101.609H307.159V61.5106Z" fill="#E0E0E0"/>
<path d="M304.553 61.5106H266.09V101.609H304.553V61.5106Z" fill="#FAFAFA"/>
<path d="M304.565 101.618H266.078V61.4965H304.565V101.618ZM266.102 101.618H304.542V61.52H266.102V101.618Z" fill="#E0E0E0"/>
<path d="M299.386 66.899H271.262V96.2154H299.386V66.899Z" fill="white"/>
<path d="M271.259 96.4084C271.061 96.7051 270.829 96.9771 270.567 97.2186C270.096 97.6896 269.483 98.3302 268.777 99.0273C268.07 99.7244 267.42 100.346 266.94 100.789C266.698 101.047 266.424 101.274 266.125 101.463C266.326 101.171 266.558 100.903 266.817 100.662C267.288 100.191 267.901 99.5454 268.607 98.8436C269.314 98.1418 269.969 97.5248 270.449 97.082C270.693 96.8276 270.964 96.6016 271.259 96.4084Z" fill="#E0E0E0"/>
<path d="M299.387 96.3379C299.68 96.538 299.95 96.7703 300.192 97.0303C300.663 97.5013 301.308 98.1136 302.006 98.8202C302.703 99.5267 303.324 100.177 303.762 100.657C304.021 100.9 304.249 101.174 304.441 101.472C304.147 101.272 303.877 101.04 303.635 100.78C303.164 100.332 302.519 99.6963 301.822 98.9897C301.125 98.2832 300.498 97.6285 300.06 97.148C299.802 96.9076 299.576 96.6354 299.387 96.3379Z" fill="#E0E0E0"/>
<path d="M299.305 66.9745C299.508 66.6818 299.741 66.4118 300.002 66.169C300.473 65.698 301.08 65.0527 301.787 64.3556C302.493 63.6585 303.148 63.0414 303.624 62.5987C303.868 62.3412 304.141 62.1135 304.439 61.9204C304.242 62.2164 304.009 62.4869 303.746 62.7259C303.275 63.1969 302.668 63.8422 301.957 64.5393C301.245 65.2364 300.591 65.8629 300.12 66.3009C299.878 66.5592 299.604 66.7855 299.305 66.9745Z" fill="#E0E0E0"/>
<path d="M271.184 67.0498C270.888 66.8493 270.616 66.6153 270.374 66.3527C269.903 65.9052 269.257 65.274 268.565 64.5675C267.872 63.861 267.246 63.211 266.803 62.7305C266.548 62.485 266.32 62.2117 266.125 61.9156C266.421 62.1124 266.691 62.345 266.93 62.6081C267.401 63.0555 268.047 63.6914 268.749 64.3979C269.45 65.1045 270.067 65.7592 270.51 66.2396C270.765 66.4833 270.991 66.7551 271.184 67.0498Z" fill="#E0E0E0"/>
<path d="M299.306 96.2154C299.306 96.2154 299.306 96.1636 299.306 96.0741C299.306 95.9846 299.306 95.8386 299.306 95.6643C299.306 95.2969 299.306 94.7694 299.306 94.0817C299.306 92.6922 299.306 90.6715 299.278 88.1044C299.278 82.9703 299.245 75.6553 299.221 66.9085L299.329 67.0168H271.289L271.412 66.8944C271.412 77.6525 271.412 87.7229 271.412 96.2107L271.304 96.1024L291.609 96.1589L297.313 96.1871H298.825H299.216H298.849H297.36L291.68 96.2154L271.304 96.2719H271.195V96.1636C271.195 87.6852 271.195 77.6054 271.195 66.8473V66.7201H271.327H299.367H299.48V66.8284C299.48 75.613 299.442 82.9515 299.428 88.1044C299.428 90.6621 299.428 92.6733 299.4 94.0534C299.4 94.7317 299.4 95.2545 299.4 95.6172C299.4 95.7868 299.4 95.9187 299.4 96.0129C299.38 96.0851 299.348 96.1535 299.306 96.2154Z" fill="#E0E0E0"/>
<path d="M290.012 76.8658H280.629V86.2486H290.012V76.8658Z" fill="#EBEBEB"/>
<path d="M215.983 35.1334C215.845 39.8865 214.3 44.4919 211.543 48.3661C208.786 52.2403 204.941 55.209 200.495 56.8963C196.049 58.5836 191.203 58.9135 186.57 57.8442C181.936 56.775 177.724 54.3546 174.468 50.8898C171.211 47.425 169.056 43.0715 168.275 38.3809C167.495 33.6903 168.124 28.8735 170.083 24.5406C172.042 20.2078 175.243 16.5538 179.28 14.0416C183.317 11.5294 188.009 10.2719 192.762 10.4284C199.117 10.6252 205.134 13.3386 209.489 17.9717C213.844 22.6047 216.18 28.778 215.983 35.1334Z" fill="#EBEBEB"/>
<path d="M210.928 35.2182C210.818 38.8363 209.637 42.3404 207.535 45.2871C205.433 48.2338 202.504 50.4907 199.118 51.7721C195.733 53.0535 192.044 53.3018 188.517 52.4856C184.991 51.6694 181.785 49.8255 179.307 47.187C176.829 44.5486 175.189 41.2343 174.596 37.6636C174.002 34.0929 174.48 30.4263 175.971 27.1278C177.462 23.8293 179.898 21.0472 182.97 19.1335C186.043 17.2199 189.614 16.2607 193.232 16.3774C195.631 16.4523 197.992 16.9991 200.18 17.9865C202.367 18.9739 204.339 20.3826 205.983 22.1322C207.626 23.8818 208.908 25.938 209.757 28.1833C210.606 30.4286 211.004 32.8191 210.928 35.2182Z" fill="#EBEBEB"/>
<path d="M210.272 34.9497C210.258 34.8515 210.25 34.7523 210.249 34.653C210.249 34.4363 210.249 34.149 210.216 33.7863C210.216 33.5932 210.216 33.3765 210.192 33.1457C210.169 32.9149 210.131 32.6747 210.098 32.378C210.035 31.743 209.926 31.1134 209.773 30.4939C209.395 28.7771 208.76 27.1272 207.889 25.6C205.598 21.5527 201.85 18.5306 197.409 17.1489C192.968 15.7672 188.168 16.1297 183.985 18.1626C183.594 18.3557 183.222 18.5818 182.835 18.7937C182.447 19.0056 182.074 19.2449 181.719 19.5097C180.979 20.0168 180.273 20.5739 179.609 21.1771C178.95 21.8136 178.335 22.4934 177.767 23.2119C176.594 24.6827 175.667 26.3338 175.021 28.1011C173.652 31.7592 173.523 35.7658 174.654 39.5045C175.184 41.3117 176.004 43.0203 177.084 44.5633C177.603 45.319 178.172 46.0382 178.789 46.7158C179.415 47.3602 180.082 47.9628 180.786 48.5198C181.475 49.0674 182.2 49.5663 182.958 50.013C186.998 52.3278 191.772 53.0076 196.298 51.9126C200.825 50.8176 204.76 48.031 207.295 44.1252C208.261 42.6571 208.999 41.0517 209.486 39.3632C209.68 38.7468 209.83 38.1171 209.933 37.4791C209.985 37.2059 210.041 36.9563 210.079 36.7255C210.117 36.4947 210.122 36.2545 210.14 36.0896C210.178 35.7222 210.206 35.4349 210.23 35.2229C210.238 35.1248 210.252 35.0273 210.272 34.9309C210.283 35.0295 210.283 35.129 210.272 35.2276C210.272 35.4396 210.244 35.7269 210.22 36.0943C210.22 36.2874 210.192 36.5041 210.178 36.7349C210.164 36.9657 210.098 37.2059 210.051 37.5027C209.958 38.1399 209.82 38.7695 209.636 39.3868C209.172 41.1122 208.443 42.7552 207.474 44.2571C206.075 46.4606 204.222 48.3406 202.039 49.7717C199.855 51.2028 197.392 52.1521 194.813 52.5565C191.554 53.0622 188.219 52.6882 185.153 51.4731C184.343 51.1511 183.557 50.775 182.798 50.3474C182.025 49.8925 181.284 49.3858 180.579 48.8307C179.113 47.7002 177.84 46.3384 176.811 44.7988C175.707 43.218 174.867 41.4681 174.324 39.6176C173.172 35.7997 173.304 31.7092 174.701 27.9739C175.368 26.1683 176.322 24.4823 177.527 22.9811C178.109 22.2497 178.738 21.5574 179.411 20.9086C180.092 20.2938 180.813 19.7242 181.568 19.2035C181.929 18.9328 182.31 18.6903 182.708 18.4782C183.099 18.2615 183.485 18.0071 183.881 17.8329C184.671 17.4529 185.486 17.1287 186.321 16.8626C189.457 15.843 192.809 15.6804 196.029 16.3915C198.576 16.9625 200.973 18.0688 203.06 19.6369C205.147 21.2051 206.876 23.1992 208.134 25.4869C209 27.0366 209.62 28.7114 209.971 30.4515C210.119 31.0804 210.218 31.7197 210.268 32.3638C210.296 32.6417 210.334 32.8961 210.343 33.1363C210.352 33.3765 210.343 33.5838 210.343 33.7769C210.343 34.1443 210.343 34.4316 210.343 34.6483C210.333 34.7514 210.309 34.8528 210.272 34.9497Z" fill="#E0E0E0"/>
<path d="M193.712 45.331L193.655 48.5198L190.829 48.468L190.885 45.3687C188.059 45.1473 185.384 44.2194 183.844 42.9665L185.469 39.5234C187.081 40.6938 188.971 41.4243 190.951 41.6429L191.032 36.8903C187.89 36.0661 184.381 34.9545 184.437 30.8848C184.494 27.8703 186.726 25.3221 191.229 24.8887L191.286 21.7329L194.112 21.78L194.055 24.884C196.089 25.0311 198.059 25.6591 199.802 26.7163L198.318 30.1924C196.993 29.39 195.522 28.86 193.99 28.6334L193.905 33.4707C197.051 34.2668 200.499 35.3831 200.428 39.3915C200.391 42.373 198.186 44.8694 193.712 45.331ZM191.088 32.7077L191.159 28.671C189.647 28.9866 189.034 29.8015 189.016 30.7388C188.997 31.6762 189.845 32.2885 191.088 32.7077ZM195.859 39.6505C195.859 38.6567 195.063 38.1009 193.848 37.6534L193.778 41.577C195.205 41.2897 195.845 40.5596 195.859 39.6505Z" fill="#E0E0E0"/>
<path d="M214.776 56.6638C210.574 60.4823 205.464 63.1611 199.933 64.4449C194.402 65.7286 188.634 65.5747 183.18 63.9976C174.113 61.3504 166.341 54.6902 162.738 45.9009C160.943 41.4689 160.237 36.6716 160.677 31.9104C161.117 27.1492 162.691 22.5627 165.267 18.5347C170.495 10.3672 179.539 5.02108 189.176 4.09317C201.267 2.92504 213.226 8.45482 219.849 18.6948C220.833 20.2162 223.278 18.8031 222.289 17.2817C219.133 12.423 214.837 8.40981 209.775 5.59216C204.713 2.77452 199.038 1.23792 193.246 1.11632C182.568 0.894939 171.974 5.54862 165.196 13.8339C161.858 17.9035 159.545 22.7148 158.452 27.8636C157.359 33.0124 157.517 38.3484 158.913 43.4234C161.763 53.5173 169.469 61.6424 179.134 65.5613C191.851 70.7426 206.679 67.8693 216.773 58.6515C218.12 57.4221 216.114 55.425 214.776 56.6496V56.6638Z" fill="#F5F5F5"/>
<path d="M212.16 17.7575L223.672 10.0045V21.7329L212.16 17.7575Z" fill="#F5F5F5"/>
<path d="M302.353 199.595C302.353 199.666 234.71 199.717 151.288 199.717C67.8652 199.717 0.203125 199.666 0.203125 199.595C0.203125 199.524 67.8322 199.472 151.288 199.472C234.743 199.472 302.353 199.529 302.353 199.595Z" fill="#263238"/>
<path d="M168.37 74.5719C168.37 74.5719 185.633 79.122 191.092 97.3269L183.777 100.582C183.777 100.582 182.095 87.9159 164.993 82.4003C155.737 79.414 143.481 83.6249 140.09 87.4873L131.852 83.9311C137.358 77.8691 150.947 69.824 168.37 74.5719Z" fill="#FF6C37"/>
<path d="M195.786 92.7391L177.539 98.7918L191.543 105.81L195.786 92.7391Z" fill="#FF6C37"/>
<path d="M146.834 199.595L82.3044 199.557C74.542 199.557 68.2539 192.963 68.2539 184.781L68.2869 14.7665C68.2869 6.60842 74.5891 -0.00470769 82.3515 2.51457e-06L146.881 0.0376832C154.644 0.0376832 160.932 6.66023 160.932 14.8136L160.899 184.852C160.899 192.986 154.601 199.6 146.834 199.595Z" fill="#263238"/>
<path d="M146.816 6.05261H134.306C132.624 6.05261 131.263 7.54575 131.263 9.38744V11.7567C131.263 13.5984 129.902 15.0915 128.225 15.0915H103.84C102.163 15.0915 100.802 13.5936 100.802 11.752V9.35918C100.802 7.51749 99.4407 6.02435 97.7638 6.02435H93.3645H82.4133C76.973 6.02435 72.5642 10.6545 72.5642 16.3868L72.5312 182.332C72.5312 188.046 76.9353 192.694 82.3709 192.694L146.773 192.737C152.209 192.737 156.623 188.107 156.623 182.374L156.656 16.4292C156.656 10.6875 152.251 6.05732 146.816 6.05261Z" fill="white"/>
<path d="M86.1659 179.562V184.433C86.1701 184.53 86.1475 184.627 86.1005 184.712C86.0535 184.798 85.9839 184.869 85.8993 184.918C85.8148 184.966 85.7184 184.991 85.6209 184.988C85.5234 184.986 85.4284 184.957 85.3463 184.904L81.5169 182.469C81.4411 182.42 81.3786 182.353 81.3354 182.274C81.2922 182.195 81.2695 182.106 81.2695 182.016C81.2695 181.926 81.2922 181.838 81.3354 181.759C81.3786 181.68 81.4411 181.613 81.5169 181.564L85.3322 179.11C85.413 179.055 85.5077 179.022 85.6057 179.017C85.7037 179.012 85.8013 179.034 85.8876 179.081C85.9738 179.128 86.0455 179.197 86.0946 179.282C86.1437 179.367 86.1684 179.464 86.1659 179.562Z" fill="#E0E0E0"/>
<path d="M117.627 181.95C117.626 182.615 117.428 183.263 117.059 183.815C116.689 184.367 116.164 184.796 115.55 185.05C114.937 185.303 114.262 185.369 113.61 185.239C112.959 185.109 112.361 184.789 111.892 184.319C111.423 183.849 111.104 183.251 110.974 182.599C110.845 181.948 110.912 181.273 111.166 180.66C111.421 180.046 111.851 179.522 112.403 179.153C112.955 178.784 113.605 178.587 114.269 178.587C115.16 178.589 116.014 178.944 116.644 179.574C117.273 180.205 117.627 181.059 117.627 181.95Z" fill="#E0E0E0"/>
<path d="M147.036 179.025H142.603C142.117 179.025 141.723 179.42 141.723 179.906V184.353C141.723 184.839 142.117 185.233 142.603 185.233H147.036C147.522 185.233 147.917 184.839 147.917 184.353V179.906C147.917 179.42 147.522 179.025 147.036 179.025Z" fill="#E0E0E0"/>
<path d="M95.94 65.9806H101.121L100.113 65.2128C100.876 67.7249 101.641 70.237 102.407 72.7491L106.039 84.713C106.317 85.6551 106.599 86.55 106.877 87.4685C106.942 87.6868 107.075 87.8789 107.256 88.0169C107.437 88.1549 107.657 88.2317 107.885 88.2363L122.703 88.1939H124.828C126.17 88.1939 126.175 86.1026 124.828 86.1073L110.009 86.1449H107.885L108.893 86.908L106.604 79.3717L102.968 67.4125L102.129 64.6523C102.064 64.434 101.932 64.2419 101.751 64.1039C101.569 63.9659 101.349 63.8891 101.121 63.8845H95.94C94.5929 63.8845 94.5929 65.9759 95.94 65.9759V65.9806Z" fill="#263238"/>
<path d="M128.128 68.6419C127.152 73.0129 126.175 77.384 125.199 81.7551C125.062 82.3815 124.921 83.0127 124.779 83.6392L125.538 83.0645L119.193 83.0033L109.019 82.9044L106.692 82.8808L107.446 83.4555C106.089 79.1283 104.73 74.7997 103.367 70.4694L102.792 68.6419L102.034 69.631H128.882C129.08 69.6157 129.264 69.5264 129.399 69.381C129.533 69.2356 129.608 69.0448 129.608 68.8468C129.608 68.6487 129.533 68.4579 129.399 68.3125C129.264 68.1671 129.08 68.0778 128.882 68.0625H102.034C101.914 68.0642 101.795 68.0933 101.688 68.1476C101.581 68.2018 101.487 68.2798 101.415 68.3756C101.342 68.4714 101.292 68.5825 101.269 68.7005C101.246 68.8184 101.249 68.9401 101.28 69.0564C102.64 73.3835 104 77.7121 105.359 82.0424C105.552 82.65 105.746 83.2623 105.934 83.87C105.983 84.034 106.083 84.1782 106.219 84.2823C106.356 84.3863 106.521 84.4447 106.692 84.4493L113.037 84.5105L123.211 84.6095L125.538 84.633C125.708 84.6299 125.873 84.5725 126.009 84.4692C126.144 84.3658 126.243 84.2219 126.291 84.0584L129.217 70.9404L129.64 69.0564C129.857 68.0719 128.35 67.6527 128.128 68.6419Z" fill="#263238"/>
<path d="M107.377 69.3106C108.201 74.0915 109.261 78.8347 110.075 83.6155C110.245 84.6094 111.757 84.1854 111.587 83.201C110.763 78.4154 109.703 73.677 108.889 68.8914C108.719 67.9023 107.207 68.3215 107.377 69.3106Z" fill="#263238"/>
<path d="M115.652 69.1035C115.731 74.0084 115.814 78.9117 115.902 83.8134C115.902 84.8214 117.485 84.8261 117.471 83.8134C117.392 78.9117 117.309 74.0084 117.221 69.1035C117.221 68.0955 115.638 68.0908 115.652 69.1035Z" fill="#263238"/>
<path d="M123.296 83.9924L125.288 70.9263L125.571 69.0422C125.618 68.842 125.589 68.6312 125.487 68.4521C125.386 68.273 125.221 68.1388 125.024 68.0766C124.827 68.0312 124.619 68.0629 124.444 68.1653C124.269 68.2677 124.14 68.4331 124.082 68.6277C123.417 72.98 122.754 77.3353 122.095 81.6938C122 82.3156 121.902 82.9373 121.807 83.5779C121.76 83.7781 121.789 83.989 121.891 84.1681C121.992 84.3472 122.158 84.4813 122.354 84.5435C122.554 84.5985 122.768 84.5719 122.949 84.4696C123.13 84.3672 123.263 84.1973 123.319 83.9971L123.296 83.9924Z" fill="#263238"/>
<path d="M103.745 74.2186H127.452C127.649 74.2033 127.834 74.1141 127.968 73.9687C128.103 73.8233 128.178 73.6325 128.178 73.4344C128.178 73.2363 128.103 73.0455 127.968 72.9001C127.834 72.7547 127.649 72.6655 127.452 72.6501H103.745C103.548 72.6655 103.363 72.7547 103.229 72.9001C103.094 73.0455 103.02 73.2363 103.02 73.4344C103.02 73.6325 103.094 73.8233 103.229 73.9687C103.363 74.1141 103.548 74.2033 103.745 74.2186Z" fill="#263238"/>
<path d="M105.969 79.7203H126.496C126.704 79.7203 126.903 79.6379 127.049 79.4913C127.196 79.3446 127.278 79.1458 127.278 78.9384C127.278 78.731 127.196 78.5321 127.049 78.3855C126.903 78.2389 126.704 78.1565 126.496 78.1565H105.969C105.762 78.1565 105.563 78.2389 105.417 78.3855C105.27 78.5321 105.188 78.731 105.188 78.9384C105.188 79.1458 105.27 79.3446 105.417 79.4913C105.563 79.6379 105.762 79.7203 105.969 79.7203Z" fill="#263238"/>
<path d="M124.82 95.1131C126.36 95.1131 127.608 93.8647 127.608 92.3247C127.608 90.7847 126.36 89.5363 124.82 89.5363C123.28 89.5363 122.031 90.7847 122.031 92.3247C122.031 93.8647 123.28 95.1131 124.82 95.1131Z" fill="#263238"/>
<path d="M109.484 95.1131C111.024 95.1131 112.272 93.8647 112.272 92.3247C112.272 90.7847 111.024 89.5363 109.484 89.5363C107.944 89.5363 106.695 90.7847 106.695 92.3247C106.695 93.8647 107.944 95.1131 109.484 95.1131Z" fill="#263238"/>
<path d="M104.137 54.7702C104.137 54.7702 92.6676 54.384 85.9414 64.591L89.8603 67.9494C89.8603 67.9494 93.2375 60.4601 104.787 60.2199C111.042 60.0928 115.338 63.7337 116.718 66.7388L123.807 66.6164C121.522 61.8638 115.743 55.0623 104.137 54.7702Z" fill="#FF6C37"/>
<path d="M84.4297 61.2656L94.5472 68.3639L85.3529 70.2291L84.4297 61.2656Z" fill="#FF6C37"/>
<path d="M151.444 23.5322C151.445 23.7578 151.379 23.9787 151.254 24.1667C151.129 24.3548 150.952 24.5017 150.743 24.5886C150.535 24.6756 150.306 24.6989 150.084 24.6554C149.863 24.612 149.659 24.5038 149.5 24.3446C149.34 24.1854 149.231 23.9823 149.186 23.761C149.142 23.5398 149.164 23.3103 149.25 23.1018C149.337 22.8932 149.483 22.7149 149.67 22.5895C149.858 22.464 150.078 22.397 150.304 22.397C150.605 22.397 150.895 22.5165 151.108 22.7292C151.322 22.942 151.443 23.2307 151.444 23.5322Z" fill="#263238"/>
<path d="M150.304 27.7855C150.933 27.7855 151.444 27.2751 151.444 26.6456C151.444 26.0161 150.933 25.5057 150.304 25.5057C149.674 25.5057 149.164 26.0161 149.164 26.6456C149.164 27.2751 149.674 27.7855 150.304 27.7855Z" fill="#263238"/>
<path d="M150.304 30.8989C150.933 30.8989 151.444 30.3886 151.444 29.7591C151.444 29.1295 150.933 28.6192 150.304 28.6192C149.674 28.6192 149.164 29.1295 149.164 29.7591C149.164 30.3886 149.674 30.8989 150.304 30.8989Z" fill="#263238"/>
<path d="M82.4302 22.9905L77.7812 26.4761H78.9682V30.6399L81.4693 30.6493V27.5312L83.4476 27.5265V30.6399H85.8687V26.4337L87.0745 26.4196L82.4302 22.9905Z" fill="#263238"/>
<path d="M156.952 35.0298C156.952 35.0958 137.984 35.1523 114.593 35.1523C91.2024 35.1523 72.2344 35.0958 72.2344 35.0298C72.2344 34.9639 91.1977 34.9073 114.593 34.9073C137.989 34.9073 156.952 34.9639 156.952 35.0298Z" fill="#E0E0E0"/>
<path d="M113.698 113.45H112.944C110.395 113.45 108.328 115.517 108.328 118.066V155.201C108.328 157.751 110.395 159.817 112.944 159.817H113.698C116.247 159.817 118.314 157.751 118.314 155.201V118.066C118.314 115.517 116.247 113.45 113.698 113.45Z" fill="#E0E0E0"/>
<path d="M132.764 137.731C132.775 140.916 131.841 144.032 130.08 146.686C128.32 149.339 125.811 151.411 122.873 152.639C119.934 153.866 116.698 154.194 113.572 153.582C110.447 152.969 107.574 151.443 105.317 149.197C103.059 146.95 101.519 144.085 100.891 140.963C100.262 137.841 100.574 134.602 101.787 131.658C103 128.713 105.059 126.195 107.704 124.421C110.349 122.647 113.461 121.697 116.645 121.693C118.757 121.687 120.849 122.098 122.802 122.901C124.755 123.704 126.53 124.884 128.027 126.373C129.524 127.862 130.712 129.632 131.525 131.581C132.338 133.53 132.759 135.62 132.764 137.731Z" fill="#FF6C37"/>
<path d="M129.38 137.901C129.384 140.322 128.671 142.691 127.33 144.707C125.989 146.723 124.08 148.296 121.845 149.228C119.61 150.16 117.148 150.408 114.772 149.941C112.396 149.474 110.212 148.313 108.495 146.605C106.779 144.897 105.607 142.719 105.128 140.345C104.65 137.971 104.885 135.509 105.806 133.269C106.726 131.029 108.29 129.113 110.3 127.762C112.309 126.41 114.674 125.685 117.096 125.678C118.705 125.673 120.3 125.985 121.788 126.597C123.277 127.209 124.63 128.108 125.771 129.243C126.912 130.378 127.818 131.727 128.437 133.213C129.056 134.698 129.377 136.291 129.38 137.901Z" fill="#FF6C37"/>
<path d="M128.937 137.736C128.922 137.671 128.914 137.605 128.913 137.538C128.913 137.392 128.885 137.199 128.871 136.954C128.871 136.825 128.861 136.684 128.842 136.53C128.842 136.37 128.791 136.2 128.758 136.017C128.702 135.59 128.616 135.168 128.499 134.754C128.206 133.613 127.744 132.522 127.128 131.518C126.233 130.045 125.037 128.776 123.618 127.797C122.199 126.817 120.59 126.148 118.894 125.833C116.76 125.444 114.561 125.63 112.522 126.37C111.979 126.566 111.45 126.799 110.939 127.067C110.685 127.209 110.44 127.369 110.185 127.538C109.93 127.688 109.686 127.856 109.455 128.042C108.971 128.402 108.51 128.792 108.075 129.21C107.649 129.655 107.253 130.127 106.888 130.623C106.134 131.636 105.549 132.764 105.155 133.963C104.755 135.199 104.545 136.489 104.533 137.788C104.551 139.087 104.764 140.376 105.164 141.612C105.562 142.811 106.15 143.937 106.907 144.947C107.272 145.445 107.67 145.917 108.099 146.36C108.533 146.779 108.994 147.169 109.479 147.528C109.952 147.877 110.449 148.192 110.967 148.47C111.479 148.736 112.007 148.967 112.55 149.163C114.592 149.899 116.793 150.08 118.927 149.686C120.786 149.343 122.538 148.568 124.043 147.425C125.288 146.484 126.341 145.313 127.147 143.977C127.759 142.97 128.218 141.878 128.508 140.736C128.625 140.323 128.71 139.901 128.762 139.474C128.791 139.29 128.828 139.121 128.842 138.965C128.857 138.81 128.842 138.668 128.871 138.537C128.889 138.292 128.904 138.099 128.913 137.957C128.914 137.891 128.922 137.824 128.937 137.759C128.943 137.825 128.943 137.891 128.937 137.957V138.541C128.937 138.668 128.937 138.814 128.937 138.97C128.937 139.125 128.894 139.3 128.866 139.488C128.822 139.918 128.743 140.343 128.63 140.76C128.36 141.922 127.911 143.034 127.297 144.057C126.405 145.563 125.204 146.862 123.772 147.87C122.341 148.878 120.712 149.57 118.993 149.902C116.821 150.313 114.579 150.136 112.498 149.389C111.944 149.192 111.404 148.958 110.882 148.687C110.353 148.41 109.845 148.095 109.361 147.745C108.865 147.38 108.393 146.983 107.948 146.558C107.512 146.114 107.106 145.642 106.733 145.145C105.957 144.114 105.354 142.964 104.948 141.74C104.09 139.207 104.09 136.463 104.948 133.93C105.35 132.705 105.948 131.553 106.719 130.52C107.09 130.021 107.496 129.549 107.934 129.107C108.378 128.679 108.85 128.281 109.347 127.915C109.582 127.726 109.831 127.554 110.091 127.402C110.35 127.251 110.6 127.086 110.864 126.931C111.385 126.658 111.925 126.422 112.479 126.224C114.559 125.472 116.801 125.29 118.975 125.697C120.859 126.053 122.634 126.846 124.156 128.014C125.416 128.968 126.477 130.161 127.279 131.523C127.896 132.545 128.351 133.658 128.626 134.82C128.736 135.239 128.815 135.666 128.861 136.097C128.889 136.28 128.918 136.455 128.932 136.61V137.043C128.932 137.288 128.932 137.481 128.932 137.628C128.935 137.664 128.937 137.7 128.937 137.736Z" fill="#263238"/>
<g opacity="0.3">
<path d="M128.835 137.863C128.764 137.863 128.712 137.326 128.515 136.389C128.241 135.067 127.764 133.796 127.101 132.621C126.648 131.821 126.108 131.074 125.491 130.393C124.783 129.619 123.979 128.94 123.098 128.372C122.625 128.066 122.131 127.795 121.619 127.562C120.53 127.064 119.373 126.733 118.185 126.582C117.56 126.504 116.93 126.474 116.301 126.493C115.676 126.515 115.054 126.586 114.44 126.705C113.844 126.816 113.256 126.973 112.684 127.176C112.13 127.373 111.593 127.614 111.077 127.896C110.584 128.163 110.112 128.467 109.664 128.805C108.821 129.431 108.061 130.163 107.403 130.981C106.833 131.701 106.344 132.482 105.943 133.308C105.362 134.522 104.971 135.819 104.784 137.152C104.648 138.094 104.629 138.64 104.558 138.645C104.488 138.65 104.398 138.108 104.422 137.119C104.481 135.711 104.8 134.326 105.364 133.035C106.439 130.53 108.307 128.448 110.682 127.11C111.234 126.799 111.811 126.533 112.406 126.314C113.018 126.085 113.648 125.905 114.29 125.777C114.953 125.647 115.626 125.57 116.301 125.546C116.976 125.527 117.652 125.56 118.322 125.645C118.971 125.73 119.612 125.867 120.239 126.055C121.429 126.41 122.559 126.945 123.588 127.642C124.518 128.268 125.36 129.017 126.089 129.87C126.719 130.615 127.261 131.43 127.704 132.3C128.339 133.555 128.74 134.915 128.887 136.313C128.962 137.317 128.891 137.863 128.835 137.863Z" fill="black"/>
</g>
<g opacity="0.3">
<path d="M118.066 145.055L118.099 147.189L116.191 147.222L116.158 145.14C114.274 145.055 112.451 144.495 111.387 143.69L112.399 141.334C113.508 142.079 114.789 142.526 116.12 142.63L116.069 139.446C113.944 138.975 111.57 138.292 111.528 135.564C111.495 133.544 112.941 131.796 115.946 131.396L115.913 129.276L117.821 129.248L117.854 131.325C119.218 131.381 120.55 131.759 121.74 132.427L120.826 134.783C119.92 134.277 118.922 133.957 117.892 133.84L117.943 137.081C120.068 137.552 122.404 138.216 122.446 140.901C122.479 142.917 121.057 144.655 118.066 145.055ZM116.026 136.652L115.984 133.944C114.976 134.189 114.571 134.75 114.594 135.381C114.618 136.012 115.183 136.412 116.026 136.662V136.652ZM119.38 141.198C119.38 140.534 118.81 140.18 117.967 139.903L118.009 142.536C118.98 142.324 119.389 141.82 119.38 141.207V141.198Z" fill="black"/>
</g>
<path d="M107.964 115.306H89.3867V156.831H107.964V115.306Z" fill="white"/>
<path d="M211.071 134.1C211.822 137.419 211.572 140.886 210.352 144.063C209.131 147.239 206.996 149.983 204.216 151.945C201.435 153.908 198.135 155.001 194.733 155.087C191.331 155.173 187.98 154.248 185.105 152.429C182.229 150.609 179.957 147.977 178.578 144.867C177.198 141.756 176.773 138.305 177.355 134.952C177.938 131.6 179.502 128.495 181.85 126.031C184.197 123.568 187.223 121.856 190.544 121.113C192.745 120.618 195.021 120.561 197.244 120.945C199.466 121.33 201.592 122.149 203.498 123.354C205.404 124.56 207.054 126.13 208.353 127.974C209.653 129.817 210.576 131.899 211.071 134.1Z" fill="#FF6C37"/>
<path d="M207.575 135.06C208.148 137.589 207.958 140.232 207.029 142.652C206.099 145.073 204.472 147.164 202.354 148.66C200.236 150.156 197.722 150.99 195.129 151.056C192.537 151.122 189.984 150.417 187.792 149.032C185.6 147.646 183.869 145.641 182.817 143.27C181.766 140.9 181.441 138.271 181.884 135.716C182.328 133.161 183.519 130.795 185.308 128.918C187.096 127.04 189.402 125.735 191.932 125.169C193.609 124.791 195.344 124.747 197.037 125.04C198.731 125.332 200.35 125.956 201.803 126.874C203.255 127.793 204.513 128.989 205.503 130.393C206.494 131.798 207.198 133.384 207.575 135.06Z" fill="#FF6C37"/>
<path d="M207.074 134.99C207.044 134.926 207.02 134.86 207.003 134.792L206.824 134.194L206.697 133.756C206.641 133.596 206.565 133.426 206.495 133.242C206.335 132.812 206.147 132.393 205.929 131.989C205.36 130.865 204.625 129.833 203.748 128.928C201.664 126.746 198.887 125.355 195.891 124.994C192.895 124.634 189.867 125.325 187.324 126.949C186.804 127.28 186.307 127.645 185.836 128.042C185.6 128.249 185.365 128.476 185.153 128.687C184.921 128.904 184.705 129.137 184.507 129.385C184.085 129.871 183.696 130.385 183.344 130.925C183 131.483 182.695 132.064 182.43 132.663C181.878 133.894 181.53 135.206 181.399 136.549C181.102 139.33 181.728 142.132 183.179 144.523C183.871 145.681 184.746 146.72 185.77 147.599C186.745 148.471 187.86 149.175 189.067 149.681C189.642 149.941 190.236 150.158 190.843 150.331C191.437 150.489 192.041 150.607 192.651 150.684C195.645 151.068 198.678 150.401 201.235 148.797C203.791 147.193 205.712 144.752 206.669 141.89C207.078 140.7 207.303 139.455 207.338 138.197C207.362 137.739 207.354 137.279 207.314 136.822C207.314 136.624 207.314 136.44 207.276 136.271C207.239 136.101 207.229 135.955 207.206 135.8C207.168 135.541 207.14 135.329 207.116 135.183C207.103 135.113 207.095 135.042 207.093 134.971C207.116 135.038 207.134 135.108 207.145 135.178C207.173 135.329 207.21 135.531 207.262 135.79C207.284 135.929 207.313 136.086 207.347 136.261C207.347 136.431 207.375 136.615 207.394 136.817C207.445 137.277 207.461 137.74 207.441 138.202C207.427 139.474 207.215 140.735 206.815 141.942C206.234 143.718 205.283 145.35 204.025 146.73C202.766 148.111 201.229 149.208 199.514 149.949C197.345 150.882 194.965 151.217 192.623 150.92C191.998 150.845 191.38 150.727 190.772 150.566C190.153 150.389 189.547 150.169 188.958 149.907C188.358 149.642 187.776 149.339 187.216 148.998C186.655 148.632 186.12 148.227 185.614 147.787C184.566 146.894 183.671 145.834 182.967 144.65C182.244 143.43 181.711 142.107 181.384 140.727C181.092 139.334 181.011 137.905 181.144 136.488C181.28 135.117 181.638 133.777 182.204 132.522C182.476 131.909 182.791 131.315 183.146 130.746C183.509 130.199 183.907 129.677 184.338 129.182C184.54 128.929 184.761 128.692 184.997 128.471C185.233 128.254 185.468 128.023 185.694 127.816C186.174 127.409 186.682 127.038 187.216 126.704C189.21 125.439 191.506 124.728 193.866 124.646C195.736 124.587 197.596 124.926 199.324 125.641C201.052 126.355 202.608 127.429 203.89 128.791C204.767 129.711 205.496 130.762 206.052 131.905C206.264 132.316 206.447 132.743 206.598 133.181C206.669 133.369 206.739 133.539 206.791 133.699C206.843 133.859 206.871 134.01 206.904 134.17L207.06 134.773C207.071 134.845 207.076 134.917 207.074 134.99Z" fill="#263238"/>
<g opacity="0.3">
<path d="M207.003 135.164C206.928 135.164 206.749 134.632 206.325 133.699C205.729 132.387 204.934 131.175 203.97 130.105C203.31 129.38 202.574 128.727 201.775 128.16C200.856 127.517 199.859 126.994 198.807 126.606C197.651 126.177 196.439 125.922 195.209 125.847C194.562 125.805 193.913 125.814 193.268 125.876C192.609 125.941 191.956 126.054 191.313 126.215C190.67 126.386 190.041 126.603 189.429 126.865C188.833 127.124 188.258 127.429 187.71 127.778C186.669 128.44 185.73 129.249 184.921 130.181C184.187 131.028 183.567 131.967 183.075 132.974C182.647 133.857 182.315 134.784 182.086 135.739C181.764 137.14 181.657 138.582 181.77 140.016C181.85 141.038 181.959 141.603 181.879 141.622C181.799 141.641 181.587 141.104 181.408 140.063C181.13 138.586 181.13 137.07 181.408 135.593C181.817 133.378 182.791 131.307 184.234 129.578C184.647 129.073 185.097 128.601 185.581 128.165C186.084 127.711 186.623 127.299 187.192 126.931C187.78 126.549 188.397 126.215 189.038 125.932C189.701 125.645 190.384 125.408 191.082 125.226C191.781 125.048 192.493 124.925 193.211 124.858C193.909 124.802 194.61 124.802 195.307 124.858C195.983 124.905 196.654 125.005 197.314 125.16C197.947 125.302 198.567 125.494 199.17 125.734C200.284 126.172 201.335 126.759 202.293 127.477C203.122 128.107 203.876 128.831 204.539 129.634C205.495 130.796 206.229 132.122 206.706 133.548C207.008 134.552 207.059 135.136 207.003 135.164Z" fill="black"/>
</g>
<g opacity="0.3">
<path d="M197.439 145.154L197.972 147.378L195.989 147.849L195.47 145.691C193.478 146.04 191.453 145.875 190.157 145.282L190.671 142.606C191.999 143.122 193.439 143.284 194.849 143.077L194.057 139.78C191.731 139.78 189.098 139.625 188.405 136.789C187.906 134.688 188.999 132.522 192.046 131.415L191.519 129.215L193.502 128.744L194.02 130.906C195.455 130.645 196.933 130.729 198.33 131.151L197.924 133.826C196.856 133.507 195.736 133.403 194.627 133.52L195.433 136.893C197.76 136.893 200.35 137.039 201.019 139.832C201.547 141.89 200.463 144.038 197.439 145.154ZM193.365 136.869L192.691 134.043C191.698 134.514 191.42 135.206 191.575 135.856C191.731 136.506 192.428 136.803 193.37 136.869H193.365ZM197.91 140.816C197.745 140.124 197.077 139.874 196.153 139.789L196.808 142.526C197.76 142.083 198.07 141.466 197.91 140.816Z" fill="black"/>
</g>
<path d="M173.939 126.573C172.868 128.839 171.361 130.872 169.505 132.555C167.648 134.239 165.478 135.541 163.118 136.386C160.758 137.231 158.255 137.603 155.752 137.48C153.248 137.358 150.794 136.744 148.527 135.673C147.512 135.194 146.539 134.628 145.621 133.982C142.667 131.878 140.374 128.975 139.011 125.614C137.648 122.253 137.272 118.573 137.926 115.005C138.581 111.438 140.239 108.131 142.707 105.473C145.174 102.814 148.349 100.915 151.857 99.9967C155.366 99.0786 159.064 99.1801 162.517 100.289C165.971 101.399 169.036 103.469 171.354 106.259C173.672 109.049 175.146 112.442 175.604 116.039C176.062 119.637 175.484 123.291 173.939 126.573Z" fill="#FF6C37"/>
<path d="M170.219 125.037C168.997 127.646 167.028 129.833 164.562 131.322C162.096 132.811 159.244 133.536 156.366 133.403C153.489 133.271 150.715 132.288 148.396 130.578C146.078 128.869 144.318 126.51 143.341 123.8C142.363 121.09 142.211 118.151 142.905 115.355C143.598 112.559 145.105 110.032 147.235 108.093C149.366 106.153 152.023 104.89 154.872 104.462C157.721 104.034 160.633 104.46 163.239 105.688C164.968 106.499 166.521 107.644 167.807 109.056C169.094 110.467 170.09 112.119 170.738 113.916C171.387 115.713 171.675 117.62 171.585 119.528C171.496 121.436 171.032 123.308 170.219 125.037Z" fill="#FF6C37"/>
<path d="M169.827 124.632C169.848 124.557 169.873 124.483 169.902 124.411C169.964 124.25 170.048 124.039 170.152 123.765L170.34 123.294C170.397 123.12 170.449 122.917 170.51 122.706C170.666 122.221 170.786 121.725 170.868 121.222C171.137 119.849 171.196 118.444 171.042 117.053C170.703 113.716 169.215 110.6 166.831 108.239C164.447 105.879 161.317 104.421 157.976 104.114C157.294 104.048 156.608 104.029 155.923 104.058C155.579 104.058 155.235 104.128 154.886 104.161C154.536 104.192 154.188 104.249 153.845 104.331C152.42 104.589 151.047 105.085 149.785 105.796C148.461 106.499 147.26 107.412 146.229 108.5C144.074 110.74 142.713 113.626 142.357 116.714C142.175 118.202 142.236 119.71 142.536 121.179C142.792 122.604 143.284 123.977 143.992 125.24C144.32 125.86 144.693 126.455 145.108 127.02C145.522 127.565 145.972 128.081 146.455 128.565C148.277 130.395 150.553 131.707 153.049 132.366C155.03 132.883 157.097 132.976 159.116 132.638C161.135 132.3 163.059 131.54 164.764 130.407C165.934 129.639 166.982 128.699 167.872 127.618C168.206 127.232 168.511 126.823 168.786 126.394C168.913 126.21 169.036 126.045 169.13 125.89L169.38 125.442L169.719 124.839C169.754 124.768 169.795 124.701 169.841 124.637C169.816 124.712 169.785 124.784 169.747 124.853C169.667 125.004 169.563 125.211 169.431 125.47L169.196 125.941C169.102 126.102 168.984 126.271 168.861 126.46C168.593 126.897 168.292 127.315 167.962 127.708C167.082 128.813 166.036 129.776 164.862 130.562C163.142 131.729 161.193 132.516 159.145 132.872C157.097 133.227 154.996 133.143 152.983 132.625C151.023 132.128 149.188 131.227 147.596 129.978C146.004 128.73 144.692 127.162 143.742 125.376C143.395 124.733 143.092 124.067 142.833 123.384C142.589 122.68 142.394 121.961 142.249 121.231C141.942 119.733 141.88 118.195 142.065 116.676C142.431 113.521 143.821 110.573 146.022 108.283C147.075 107.174 148.302 106.243 149.653 105.527C150.307 105.166 150.985 104.852 151.683 104.585C152.376 104.352 153.082 104.163 153.798 104.02C154.147 103.938 154.501 103.881 154.858 103.851C155.216 103.818 155.569 103.766 155.918 103.752C159.252 103.615 162.536 104.597 165.249 106.54C166.93 107.762 168.332 109.328 169.362 111.133C170.391 112.938 171.025 114.942 171.221 117.011C171.364 118.418 171.287 119.838 170.995 121.222C170.904 121.727 170.775 122.225 170.609 122.71C170.538 122.922 170.486 123.12 170.421 123.299C170.355 123.478 170.279 123.629 170.218 123.77L169.94 124.406C169.913 124.486 169.875 124.562 169.827 124.632Z" fill="#263238"/>
<g opacity="0.3">
<path d="M169.649 124.721C169.569 124.689 169.786 124.086 170.049 122.979C170.426 121.426 170.559 119.824 170.445 118.231C170.363 117.143 170.162 116.067 169.847 115.023C169.481 113.833 168.963 112.695 168.307 111.637C167.953 111.066 167.558 110.523 167.124 110.012C166.675 109.478 166.187 108.979 165.664 108.518C165.123 108.04 164.545 107.605 163.935 107.218C162.68 106.421 161.307 105.826 159.866 105.457C157.833 104.94 155.71 104.883 153.653 105.292C152.431 105.538 151.246 105.938 150.125 106.484C149.147 106.968 148.225 107.557 147.374 108.24C146.134 109.248 145.057 110.442 144.181 111.778C143.554 112.72 143.262 113.299 143.182 113.262C143.102 113.224 143.281 112.607 143.809 111.556C144.581 110.076 145.619 108.749 146.87 107.642C147.731 106.874 148.68 106.21 149.697 105.664C150.874 105.04 152.131 104.577 153.432 104.289C154.134 104.133 154.847 104.03 155.565 103.982C157.095 103.878 158.632 104.013 160.12 104.383C161.678 104.768 163.162 105.405 164.515 106.267C165.169 106.687 165.789 107.159 166.366 107.68C167.462 108.664 168.403 109.809 169.154 111.076C170.433 113.216 171.14 115.649 171.208 118.141C171.258 119.81 171 121.474 170.445 123.049C170.073 124.203 169.72 124.75 169.649 124.721Z" fill="black"/>
</g>
<g opacity="0.3">
<path d="M154.445 126.987L153.395 129.295L151.337 128.353L152.354 126.106C150.371 125.056 148.699 123.525 147.969 122.126L150.244 120.124C151.051 121.494 152.2 122.63 153.579 123.422L155.142 119.978C153.108 118.382 150.903 116.46 152.231 113.507C153.225 111.321 155.665 110.167 159.09 111.274L160.131 108.985L162.194 109.927L161.171 112.159C162.612 112.908 163.852 113.99 164.789 115.315L162.608 117.383C161.893 116.38 160.985 115.53 159.937 114.882L158.345 118.386C160.394 119.96 162.561 121.867 161.242 124.773C160.272 126.921 157.874 128.066 154.445 126.987ZM156.518 116.936L157.846 114.006C156.64 113.756 155.938 114.161 155.628 114.84C155.317 115.518 155.741 116.234 156.518 116.936ZM157.813 123.53C158.138 122.809 157.719 122.145 156.97 121.434L155.679 124.26C156.815 124.505 157.512 124.175 157.813 123.516V123.53Z" fill="black"/>
</g>
<path d="M52.8838 93.9261C47.3681 96.7805 43.1383 101.703 40.0955 107.115C37.0528 112.527 35.098 118.476 33.1527 124.378L31.457 154.81C37.8723 143.892 43.0253 131.057 44.4195 118.466L40.1474 118.085C43.0112 117.647 45.4134 115.574 46.9442 113.111C48.475 110.647 49.2616 107.845 50.0105 105.019L44.8293 105.801C48.9395 103.024 51.8236 98.7718 52.8838 93.9261Z" fill="#455A64"/>
<g opacity="0.3">
<path d="M52.8838 93.9261C47.3681 96.7805 43.1383 101.703 40.0955 107.115C37.0528 112.527 35.098 118.476 33.1527 124.378L31.457 154.81C37.8723 143.892 43.0253 131.057 44.4195 118.466L40.1474 118.085C43.0112 117.647 45.4134 115.574 46.9442 113.111C48.475 110.647 49.2616 107.845 50.0105 105.019L44.8293 105.801C48.9395 103.024 51.8236 98.7718 52.8838 93.9261Z" fill="black"/>
</g>
<path d="M30.5055 161.946C30.5055 161.946 16.568 145.272 16.7329 129.352H22.3851C22.3851 129.352 16.2619 125.334 16.7329 123.082C17.2039 120.831 17.3782 112.31 17.3782 112.31L22.5217 113.596C22.5217 113.596 18.6641 111.665 18.1836 108.613C17.7032 105.56 19.3046 91.4062 19.3046 91.4062C19.3046 91.4062 25.5786 98.0005 27.5051 104.75C29.4316 111.5 34.4998 119.385 33.0161 139.964C31.5323 160.543 30.5055 161.946 30.5055 161.946Z" fill="#455A64"/>
<path d="M37.5654 163.519C37.5654 163.519 52.6381 153.463 56.0153 140.633L51.4888 139.403C51.4888 139.403 57.2823 137.519 57.386 135.597C57.4896 133.676 59.2276 126.794 59.2276 126.794L54.8095 126.7C54.8095 126.7 58.3327 125.993 59.3878 123.643C60.4429 121.292 62.2563 109.559 62.2563 109.559C62.2563 109.559 55.7751 113.488 52.7464 118.509C49.7177 123.53 43.9101 128.73 40.5894 145.602C37.2687 162.474 37.5654 163.519 37.5654 163.519Z" fill="#455A64"/>
<path d="M23.1094 105.961C23.1342 106.015 23.1516 106.072 23.1612 106.13C23.1894 106.258 23.2318 106.427 23.2837 106.644L23.7217 108.622C23.9148 109.484 24.1409 110.534 24.3811 111.764C24.6213 112.993 24.9181 114.383 25.2007 115.932C25.7942 119.027 26.4254 122.72 27.0848 126.832C27.7442 130.944 28.3424 135.484 28.8982 140.256C29.454 145.027 29.8685 149.587 30.1982 153.741C30.5279 157.896 30.7352 161.635 30.8624 164.782C30.9377 166.35 30.9754 167.778 31.0178 169.021C31.0602 170.265 31.079 171.348 31.0885 172.229C31.0979 173.109 31.0885 173.778 31.0885 174.254V174.782C31.0956 174.841 31.0956 174.901 31.0885 174.961C31.082 174.901 31.082 174.841 31.0885 174.782C31.0885 174.654 31.0885 174.48 31.0885 174.259C31.0885 173.788 31.0461 173.1 31.0178 172.229C30.9895 171.357 30.9566 170.274 30.9001 169.026C30.8435 167.778 30.8011 166.355 30.7116 164.787C30.5656 161.645 30.316 157.905 29.9957 153.755C29.6754 149.606 29.2232 145.056 28.6768 140.284C28.1305 135.513 27.504 130.981 26.887 126.869C26.2699 122.757 25.6435 119.06 25.0688 115.965C24.7956 114.416 24.5177 113.017 24.2869 111.792C24.0561 110.567 23.8442 109.508 23.6652 108.646L23.2695 106.653C23.2318 106.437 23.1989 106.267 23.1753 106.135C23.1498 106.078 23.1278 106.02 23.1094 105.961Z" fill="#263238"/>
<path d="M28.5737 172.158C28.5737 172.158 15.8232 157.693 11.8572 148.946L14.8435 147.67C12.6768 148.028 10.4583 147.095 8.77672 145.682C7.09517 144.269 5.86581 142.408 4.65529 140.576L8.59302 139.912C4.97446 138.881 1.89337 136.494 -0.0078125 133.247C4.63645 134.015 8.83795 136.544 12.3047 139.752C15.0567 142.396 17.5561 145.291 19.7703 148.4C20.8926 149.891 21.8704 151.485 22.6907 153.162C24.8103 157.589 28.5784 166.845 28.5737 172.158Z" fill="#455A64"/>
<path d="M56.2124 117.981C56.1999 118.032 56.1809 118.081 56.1559 118.127L55.9581 118.546C55.7744 118.928 55.5106 119.465 55.1809 120.153C54.4979 121.542 53.5276 123.558 52.3548 126.069C51.1819 128.579 49.8254 131.575 48.3699 134.933C46.9145 138.292 45.3931 141.999 43.867 145.95C42.3409 149.902 40.9843 153.675 39.7879 157.132C38.5915 160.59 37.5836 163.727 36.7687 166.374C35.9538 169.021 35.3085 171.164 34.8846 172.653C34.6679 173.383 34.5031 173.957 34.3806 174.362L34.244 174.805C34.2322 174.856 34.2132 174.905 34.1875 174.951C34.1875 174.951 34.1875 174.899 34.2205 174.796L34.3335 174.348C34.4418 173.938 34.5973 173.364 34.8045 172.624C35.2049 171.131 35.8172 168.974 36.618 166.322C37.4187 163.67 38.4173 160.528 39.5901 157.062C40.7629 153.595 42.1336 149.808 43.655 145.861C45.1764 141.914 46.7261 138.202 48.1768 134.844C49.6275 131.485 51.0029 128.49 52.2134 125.993C53.424 123.497 54.3849 121.504 55.0961 120.091C55.4447 119.413 55.7178 118.881 55.9157 118.509C56.0052 118.334 56.0758 118.203 56.1323 118.099C56.1547 118.057 56.1815 118.017 56.2124 117.981Z" fill="#263238"/>
<path d="M29.652 178.357C29.6214 178.27 29.6024 178.18 29.5955 178.088L29.4683 177.32C29.4212 176.986 29.36 176.581 29.2705 176.11C29.181 175.639 29.1056 175.097 28.9785 174.508C28.7477 173.321 28.4227 171.922 28.0035 170.387C27.5843 168.851 27.0614 167.179 26.402 165.46C25.7426 163.741 25.036 162.135 24.3436 160.698C23.6512 159.261 22.9635 158.004 22.3512 156.963C22.0592 156.435 21.7624 155.978 21.5175 155.55C21.2726 155.121 21.0465 154.791 20.8628 154.509L20.4483 153.854C20.3962 153.779 20.3521 153.698 20.3164 153.614C20.3164 153.614 20.3824 153.68 20.4907 153.826L20.9617 154.457C21.1595 154.73 21.395 155.074 21.6494 155.479C21.9037 155.884 22.2193 156.36 22.5019 156.873C23.1331 157.905 23.8302 159.167 24.5509 160.599C25.2715 162.031 25.9639 163.647 26.6281 165.371C27.2922 167.094 27.8009 168.785 28.2201 170.326C28.6393 171.866 28.9408 173.284 29.1622 174.475C29.2799 175.069 29.3506 175.611 29.4212 176.086C29.4919 176.562 29.5437 176.972 29.5814 177.311C29.6191 177.65 29.6379 177.881 29.6567 178.083C29.6666 178.174 29.665 178.266 29.652 178.357Z" fill="#263238"/>
<path d="M46.4775 174.956H18.5742V180.646H46.4775V174.956Z" fill="#FF725E"/>
<path d="M21.2344 180.646L24.2489 199.793H41.1114L43.9234 180.646H21.2344Z" fill="#FF725E"/>
<path d="M44.762 180.646C44.762 180.712 39.4865 180.768 32.9864 180.768C26.4864 180.768 21.2109 180.712 21.2109 180.646C21.2109 180.58 26.4864 180.523 32.9864 180.523C39.4865 180.523 44.762 180.575 44.762 180.646Z" fill="#263238"/>
<path d="M251.696 142.62H178.367C176.32 142.62 174.66 144.28 174.66 146.327V196.298C174.66 198.345 176.32 200.005 178.367 200.005H251.696C253.743 200.005 255.402 198.345 255.402 196.298V146.327C255.402 144.28 253.743 142.62 251.696 142.62Z" fill="#455A64"/>
<path d="M254.217 166.039H233.318C229.85 166.039 227.039 168.85 227.039 172.318V173.35C227.039 176.817 229.85 179.628 233.318 179.628H254.217C257.685 179.628 260.496 176.817 260.496 173.35V172.318C260.496 168.85 257.685 166.039 254.217 166.039Z" fill="#455A64"/>
<path d="M254.215 179.864H233.316C231.588 179.861 229.931 179.174 228.709 177.952C227.487 176.73 226.799 175.073 226.797 173.345V172.318C226.799 170.59 227.487 168.934 228.709 167.713C229.931 166.492 231.588 165.805 233.316 165.804H254.215C255.942 165.806 257.597 166.494 258.818 167.715C260.04 168.936 260.727 170.591 260.729 172.318V173.345C260.727 175.072 260.04 176.728 258.819 177.95C257.598 179.172 255.942 179.86 254.215 179.864ZM233.316 166.275C231.713 166.276 230.176 166.913 229.042 168.046C227.909 169.179 227.27 170.715 227.268 172.318V173.345C227.269 174.949 227.907 176.486 229.041 177.62C230.175 178.754 231.712 179.392 233.316 179.393H254.215C255.818 179.39 257.354 178.752 258.487 177.618C259.62 176.485 260.257 174.948 260.258 173.345V172.318C260.256 170.716 259.618 169.181 258.485 168.048C257.353 166.915 255.817 166.277 254.215 166.275H233.316Z" fill="black"/>
<path d="M238.48 175.589C240.014 173.408 239.49 170.397 237.309 168.863C235.128 167.329 232.116 167.853 230.582 170.034C229.048 172.215 229.573 175.227 231.754 176.761C233.935 178.295 236.946 177.77 238.48 175.589Z" fill="black"/>
<path d="M228.653 38.7556C228.596 41.2407 229.067 43.7097 230.035 45.9994C231.003 48.289 232.446 50.3473 234.268 52.0383C235.1 49.6141 235.937 47.19 236.778 44.7658" fill="black"/>
<path d="M247.572 24.2905C245.415 23.113 242.815 22.9434 240.408 23.4285C238.011 23.9843 235.721 24.9294 233.63 26.2264C232.402 26.8611 231.303 27.7188 230.389 28.7558C228.826 30.7246 227.281 33.937 227.13 36.4664C227.007 38.4965 227.785 43.5741 228.642 45.4158C229.429 47.1067 233.112 48.3926 234.93 48.8118L251.604 29.4105C251.305 28.3327 250.794 27.3251 250.102 26.4462C249.41 25.5673 248.55 24.8345 247.572 24.2905Z" fill="black"/>
<path d="M250.448 26.9094L246.449 26.1934C248.635 31.3746 249.228 43.3056 250.481 48.8024C251.955 46.6593 255.38 40.145 255.191 37.5544C255.003 34.9638 255.201 26.4666 250.448 26.9094Z" fill="black"/>
<path d="M252.737 35.3972C252.478 31.4029 249.816 26.5043 245.836 26.9188L236.628 29.2739C235.21 29.6342 233.945 30.4399 233.019 31.5727C232.093 32.7055 231.555 34.1054 231.484 35.5667C231.484 35.7175 231.484 35.5338 231.484 35.6468L233.543 59.4993L240.457 73.2201L246.581 61.6471C246.581 59.7018 246.581 55.3355 246.581 55.3449C246.581 55.3543 251.686 54.4876 252.704 47.8086C253.203 44.5208 253.019 39.8342 252.737 35.3972Z" fill="#FFBF9D"/>
<path d="M249.881 40.861C249.885 41.084 249.801 41.2995 249.648 41.4616C249.495 41.6236 249.284 41.7191 249.061 41.7277C248.953 41.736 248.843 41.7227 248.74 41.6885C248.636 41.6544 248.541 41.6 248.458 41.5286C248.376 41.4572 248.309 41.3702 248.26 41.2726C248.212 41.175 248.183 41.0687 248.176 40.9599C248.174 40.7369 248.259 40.522 248.413 40.3604C248.567 40.1987 248.777 40.103 249 40.0933C249.108 40.0856 249.217 40.0994 249.32 40.1338C249.423 40.1683 249.518 40.2228 249.6 40.2941C249.682 40.3654 249.749 40.4523 249.797 40.5495C249.845 40.6468 249.874 40.7527 249.881 40.861Z" fill="black"/>
<path d="M251.737 38.0066C251.629 38.1197 250.983 37.6392 250.06 37.6439C249.137 37.6487 248.468 38.115 248.369 37.9972C248.27 37.8795 248.43 37.7476 248.722 37.5262C249.118 37.2478 249.59 37.0996 250.074 37.1023C250.553 37.1005 251.019 37.2506 251.407 37.5309C251.69 37.757 251.789 37.9548 251.737 38.0066Z" fill="black"/>
<path d="M242.186 40.861C242.189 41.0839 242.106 41.2995 241.953 41.4615C241.799 41.6235 241.589 41.7191 241.366 41.7277C241.257 41.736 241.148 41.7227 241.045 41.6885C240.941 41.6543 240.845 41.6 240.763 41.5286C240.681 41.4572 240.613 41.3702 240.565 41.2725C240.516 41.1749 240.488 41.0687 240.48 40.9599C240.479 40.7369 240.564 40.522 240.718 40.3603C240.872 40.1987 241.082 40.103 241.305 40.0932C241.413 40.0842 241.523 40.0971 241.626 40.1311C241.73 40.1651 241.825 40.2195 241.907 40.2911C241.989 40.3626 242.056 40.4499 242.104 40.5478C242.152 40.6457 242.18 40.7522 242.186 40.861Z" fill="black"/>
<path d="M243.006 38.0066C242.902 38.1196 242.252 37.6392 241.334 37.6439C240.416 37.6486 239.742 38.1149 239.643 37.9972C239.544 37.8794 239.7 37.7475 239.996 37.5262C240.391 37.2469 240.864 37.0986 241.348 37.1022C241.827 37.1005 242.293 37.2505 242.681 37.5309C242.964 37.757 243.058 37.9548 243.006 38.0066Z" fill="black"/>
<path d="M245.877 45.2274C246.361 45.0732 246.863 44.9814 247.37 44.9542C247.606 44.9542 247.841 44.8835 247.841 44.7234C247.862 44.4806 247.808 44.2373 247.686 44.0263C247.465 43.461 247.215 42.8628 246.989 42.2411C246.019 39.6976 245.317 37.6063 245.42 37.5686C245.524 37.5309 246.424 39.5469 247.366 42.1045C247.596 42.731 247.837 43.3292 248.034 43.8991C248.186 44.1885 248.23 44.5226 248.157 44.8411C248.123 44.9239 248.07 44.9978 248.003 45.0573C247.936 45.1169 247.857 45.1605 247.771 45.185C247.642 45.2197 247.509 45.2386 247.375 45.2415C246.877 45.299 246.374 45.2942 245.877 45.2274Z" fill="black"/>
<path d="M237.707 52.9851C237.707 52.9851 239.874 57.5587 246.539 56.9228V55.3543C243.432 55.4 240.374 54.5796 237.707 52.9851Z" fill="#FF9A6C"/>
<path d="M242.716 34.6859C242.627 34.9356 241.709 34.8178 240.63 34.9497C239.551 35.0816 238.68 35.3783 238.539 35.157C238.473 35.0486 238.623 34.8131 238.977 34.5729C239.442 34.2684 239.973 34.0794 240.526 34.0218C241.078 33.9567 241.638 34.0212 242.161 34.2102C242.556 34.3657 242.754 34.5682 242.716 34.6859Z" fill="black"/>
<path d="M251.436 35.1946C251.275 35.4066 250.64 35.1946 249.881 35.1946C249.123 35.1946 248.468 35.3359 248.322 35.1192C248.261 35.0156 248.36 34.8037 248.642 34.6058C249.02 34.3691 249.46 34.2495 249.906 34.2621C250.352 34.2746 250.784 34.4188 251.148 34.6765C251.417 34.879 251.506 35.091 251.436 35.1946Z" fill="black"/>
<path d="M250.928 29.3163C250.692 28.8268 250.325 28.4122 249.868 28.1187C249.41 27.8252 248.881 27.6642 248.337 27.6536C247.249 27.6551 246.183 27.9672 245.266 28.5533C241.3 30.8424 239.261 36.3816 235.342 38.7556C234.376 39.3396 233.123 38.8027 232.304 39.5751C231.484 40.3476 230.952 41.5864 231.404 42.6179C230.843 41.9188 230.385 41.1433 230.043 40.3146C229.876 39.8989 229.8 39.4523 229.819 39.0048C229.839 38.5573 229.954 38.119 230.156 37.7193C230.495 37.1305 231.098 36.6831 231.258 36.0236C231.404 35.4443 231.173 34.8414 231.197 34.2432C231.265 33.6363 231.475 33.0539 231.809 32.5428C233.345 29.8297 235.455 27.3616 238.177 25.8449C239.953 24.8203 241.973 24.2976 244.023 24.3329C246.08 24.3823 248.051 25.1659 249.581 26.542C250.461 27.3616 251.38 28.2047 250.928 29.3163Z" fill="black"/>
<path d="M232.398 40.4041C232.328 40.211 228.856 38.958 228.809 42.6508C228.762 46.2353 232.384 45.5335 232.394 45.4299C232.403 45.3262 232.398 40.4041 232.398 40.4041Z" fill="#FFBF9D"/>
<path d="M231.297 44.0592C231.297 44.0592 231.235 44.1016 231.127 44.1487C231.053 44.1803 230.973 44.1966 230.892 44.1966C230.811 44.1966 230.731 44.1803 230.656 44.1487C230.279 44.0074 229.964 43.4045 229.954 42.7356C229.949 42.4289 230.012 42.1249 230.138 41.8454C230.173 41.7348 230.234 41.6342 230.316 41.5522C230.398 41.4702 230.498 41.4092 230.609 41.3744C230.681 41.3554 230.757 41.3626 230.825 41.3944C230.892 41.4263 230.946 41.4809 230.976 41.5486C231.023 41.6476 230.976 41.7182 231.019 41.7276C231.061 41.7371 231.094 41.6664 231.066 41.5204C231.05 41.4307 231.001 41.3501 230.929 41.2943C230.831 41.2191 230.708 41.1852 230.585 41.2001C230.438 41.2267 230.299 41.291 230.184 41.3867C230.068 41.4824 229.98 41.6063 229.926 41.7465C229.769 42.0553 229.691 42.3985 229.7 42.745C229.7 43.4704 230.081 44.1581 230.595 44.3041C230.691 44.3331 230.793 44.3401 230.892 44.3246C230.992 44.3091 231.086 44.2715 231.169 44.2146C231.292 44.144 231.311 44.0639 231.297 44.0592Z" fill="#FF9A6C"/>
<path d="M230.969 38.5577C231.045 38.5244 231.118 38.4833 231.185 38.4352C231.322 38.3505 231.534 38.2327 231.788 38.0537C232.494 37.5359 233.142 36.9455 233.724 36.2921C234.567 35.312 235.353 34.2851 236.079 33.2163C236.962 31.9063 237.953 30.6726 239.042 29.5282C239.614 28.9578 240.245 28.4509 240.926 28.0163C241.573 27.6203 242.266 27.304 242.989 27.0742C244.215 26.6775 245.505 26.5177 246.79 26.6032C247.657 26.6483 248.513 26.8067 249.339 27.0742C249.631 27.1637 249.852 27.2674 250.003 27.3239C250.079 27.3572 250.158 27.384 250.238 27.4039L250.017 27.2909C249.802 27.1879 249.582 27.0967 249.357 27.0177C248.535 26.7133 247.674 26.5262 246.8 26.4619C245.499 26.3596 244.191 26.5083 242.947 26.9C242.21 27.1248 241.504 27.4413 240.846 27.842C240.145 28.2816 239.493 28.7948 238.901 29.3728C237.805 30.5225 236.812 31.766 235.933 33.0892C235.209 34.1581 234.431 35.1894 233.602 36.1791C233.032 36.8331 232.401 37.431 231.718 37.9642C231.473 38.1526 231.247 38.2751 231.134 38.3693C231.074 38.4282 231.019 38.4912 230.969 38.5577Z" fill="#455A64"/>
<path d="M231.875 39.5751C231.819 40.5549 231.772 41.5864 232.224 42.4578C232.676 43.3292 233.82 43.9227 234.673 43.4328C235.365 43.0371 235.573 42.1469 235.69 41.3556C236.034 39.0711 236.19 36.7584 236.548 34.4787L231.875 39.5751Z" fill="black"/>
<path d="M250.043 27.6065C250.043 27.6065 249.728 27.55 249.153 27.5311C248.347 27.5162 247.546 27.6635 246.798 27.9645C246.276 28.165 245.777 28.4208 245.31 28.7275C244.775 29.0873 244.262 29.479 243.774 29.9004C242.648 30.8571 241.641 31.945 240.774 33.141C240.303 33.7816 239.916 34.4363 239.478 35.0251C239.065 35.6183 238.583 36.1606 238.042 36.6407C237.11 37.4285 236.092 38.1094 235.008 38.6708C234.066 39.1418 233.322 39.4951 232.795 39.7306L232.182 39.9896C232.111 40.023 232.037 40.0498 231.961 40.0697C231.961 40.0697 232.027 40.0226 232.163 39.952L232.762 39.6552C233.28 39.4009 234.038 39.0429 234.943 38.5436C236.006 37.9722 237.004 37.2867 237.919 36.4994C238.453 36.0274 238.927 35.4928 239.332 34.9073C239.761 34.3044 240.166 33.645 240.628 33.0232C241.503 31.8122 242.527 30.7156 243.675 29.7591C244.17 29.3361 244.693 28.9458 245.239 28.5909C245.718 28.2817 246.23 28.0258 246.765 27.8279C247.54 27.5356 248.368 27.4072 249.196 27.4511C249.419 27.4633 249.641 27.4948 249.86 27.5453C249.923 27.5599 249.984 27.5804 250.043 27.6065Z" fill="#455A64"/>
<path d="M231.775 37.3566C231.676 37.4394 231.569 37.512 231.455 37.5733L230.546 38.1056L230.24 38.2798C230.12 38.3502 229.987 38.395 229.849 38.4117C229.765 38.4204 229.68 38.4005 229.608 38.3552C229.571 38.3304 229.538 38.2978 229.514 38.2597C229.49 38.2215 229.474 38.1786 229.467 38.1338C229.471 37.9625 229.53 37.7971 229.637 37.6628L230.692 35.9718L230.833 36.1084C230.485 36.3663 230.095 36.5608 229.679 36.6831C229.264 36.8066 228.83 36.8576 228.398 36.8338C228.287 36.8311 228.178 36.812 228.073 36.7773C228.011 36.7605 227.954 36.7296 227.905 36.6872C227.857 36.6447 227.82 36.5917 227.795 36.5323C227.774 36.4719 227.768 36.4072 227.778 36.344C227.788 36.2807 227.813 36.2209 227.852 36.1697C227.913 36.0894 227.983 36.0153 228.059 35.9483C228.53 35.4896 228.94 34.9719 229.279 34.408C229.576 33.8757 229.836 33.3233 230.056 32.7548C230.037 32.9157 229.999 33.0739 229.943 33.2258C229.805 33.6574 229.623 34.074 229.401 34.4693C229.073 35.0574 228.664 35.5964 228.186 36.0707C228.054 36.1979 227.922 36.3439 227.974 36.457C228.026 36.57 228.219 36.6265 228.407 36.6265C229.233 36.6688 230.048 36.426 230.715 35.9389L231.144 35.6233L230.857 36.0943L229.783 37.7711C229.699 37.8697 229.646 37.9911 229.632 38.1197C229.632 38.2233 229.722 38.2798 229.835 38.2704C230.065 38.2254 230.284 38.1358 230.48 38.0066L231.422 37.5356C231.531 37.4601 231.65 37.3999 231.775 37.3566Z" fill="#455A64"/>
<path d="M245.082 46.9701C244.904 46.7672 244.679 46.6117 244.427 46.5179C244.174 46.4241 243.902 46.395 243.635 46.4332C243.442 46.456 243.254 46.5173 243.084 46.6135C242.914 46.7098 242.766 46.839 242.646 46.9937C242.533 47.1418 242.468 47.3216 242.462 47.5081C242.455 47.6946 242.506 47.8786 242.609 48.0346C242.759 48.1858 242.949 48.2903 243.157 48.3354C243.366 48.3806 243.582 48.3644 243.781 48.289C244.193 48.1291 244.568 47.8908 244.888 47.5872C244.986 47.5158 245.069 47.4262 245.133 47.3234C245.166 47.2753 245.183 47.2187 245.183 47.1609C245.183 47.103 245.166 47.0465 245.133 46.9984" fill="#FF9A6C"/>
<path d="M242.807 45.5477C242.953 45.5477 242.981 46.4897 243.825 47.1209C244.668 47.7521 245.709 47.6343 245.709 47.7662C245.709 47.8227 245.487 47.9546 245.054 47.9781C244.495 48.0083 243.944 47.8416 243.495 47.5071C243.066 47.1873 242.78 46.712 242.699 46.1836C242.657 45.7785 242.741 45.543 242.807 45.5477Z" fill="black"/>
<path d="M256.194 109.305L260.047 118.014L241.329 125.023L237.137 115.65L256.194 109.305Z" fill="black"/>
<path d="M294.022 162.323L299.142 173.378C299.142 173.378 311.93 171.682 313.075 173.637L292.171 184.532L283.48 167.636L294.022 162.323Z" fill="#455A64"/>
<path d="M292.32 175.738C292.148 175.904 292.043 176.129 292.026 176.367C292.009 176.606 292.08 176.843 292.226 177.033C292.386 177.21 292.607 177.32 292.845 177.34C293.083 177.36 293.32 177.289 293.507 177.141C293.689 176.965 293.8 176.727 293.817 176.474C293.835 176.221 293.758 175.97 293.601 175.771C293.416 175.602 293.172 175.511 292.921 175.517C292.67 175.523 292.431 175.626 292.254 175.804" fill="#E0E0E0"/>
<path d="M292.164 184.532L291.477 183.208L311.98 173.039C312.225 173.06 312.463 173.131 312.679 173.248C312.895 173.364 313.085 173.524 313.238 173.717L292.164 184.532Z" fill="black"/>
<path d="M299.373 173.35C299.42 173.453 298.926 173.764 298.587 174.353C298.248 174.942 298.196 175.521 298.078 175.53C297.96 175.54 297.809 174.857 298.238 174.15C298.667 173.444 299.345 173.241 299.373 173.35Z" fill="black"/>
<path d="M302.061 173.138C302.136 173.227 301.778 173.632 301.651 174.249C301.524 174.866 301.651 175.38 301.547 175.427C301.444 175.474 301.076 174.923 301.255 174.16C301.434 173.397 302.004 173.039 302.061 173.138Z" fill="black"/>
<path d="M304.681 175.163C304.601 175.229 304.21 174.786 304.167 174.084C304.125 173.383 304.516 172.907 304.605 172.973C304.695 173.039 304.549 173.491 304.572 174.07C304.596 174.65 304.78 175.097 304.681 175.163Z" fill="black"/>
<path d="M297.914 170.962C297.914 171.075 297.372 171.173 296.807 171.513C296.242 171.852 295.865 172.266 295.776 172.205C295.686 172.144 295.931 171.55 296.6 171.164C297.269 170.778 297.923 170.834 297.914 170.962Z" fill="black"/>
<path d="M297.102 168.409C297.102 168.451 296.749 168.724 296.038 168.946C295.62 169.072 295.188 169.147 294.752 169.167C294.495 169.186 294.237 169.186 293.979 169.167C293.819 169.163 293.66 169.134 293.508 169.082C293.402 169.044 293.312 168.971 293.252 168.875C293.193 168.78 293.167 168.667 293.179 168.555C293.194 168.455 293.232 168.361 293.29 168.279C293.348 168.197 293.424 168.13 293.513 168.084C293.646 168.014 293.789 167.965 293.937 167.938C294.193 167.88 294.453 167.843 294.714 167.829C295.156 167.809 295.597 167.859 296.024 167.975C296.744 168.183 297.112 168.484 297.083 168.522C297.055 168.559 296.65 168.376 295.958 168.253C295.555 168.184 295.145 168.167 294.738 168.201C294.501 168.223 294.266 168.264 294.036 168.324C293.777 168.376 293.565 168.475 293.565 168.602C293.565 168.654 293.565 168.668 293.65 168.71C293.756 168.746 293.867 168.767 293.979 168.771C294.22 168.798 294.462 168.81 294.705 168.809C295.116 168.803 295.526 168.761 295.929 168.682C296.313 168.563 296.705 168.471 297.102 168.409Z" fill="black"/>
<path d="M274.128 180.085L273.478 192.252C273.478 192.252 285.569 196.741 285.668 199.001L262.094 198.846L262.325 179.85L274.128 180.085Z" fill="#455A64"/>
<path d="M266.348 191.15C266.116 191.214 265.918 191.362 265.79 191.565C265.662 191.768 265.614 192.011 265.655 192.247C265.714 192.478 265.859 192.678 266.06 192.807C266.261 192.935 266.504 192.983 266.739 192.939C266.983 192.869 267.192 192.71 267.326 192.495C267.46 192.279 267.509 192.021 267.464 191.771C267.379 191.535 267.206 191.341 266.981 191.23C266.756 191.12 266.497 191.101 266.258 191.178" fill="#E0E0E0"/>
<path d="M262.094 198.846V197.334L284.971 197.942C285.178 198.075 285.355 198.249 285.492 198.453C285.629 198.657 285.722 198.887 285.767 199.129L262.094 198.846Z" fill="black"/>
<path d="M273.69 192.332C273.69 192.449 273.106 192.492 272.527 192.855C271.948 193.217 271.637 193.702 271.528 193.655C271.42 193.608 271.609 192.939 272.315 192.511C273.022 192.082 273.742 192.228 273.69 192.332Z" fill="black"/>
<path d="M276.173 193.406C276.197 193.523 275.702 193.712 275.288 194.197C274.873 194.682 274.76 195.196 274.643 195.191C274.525 195.186 274.468 194.527 274.977 193.933C275.486 193.34 276.173 193.297 276.173 193.406Z" fill="black"/>
<path d="M277.54 196.42C277.431 196.444 277.281 195.86 277.591 195.229C277.902 194.597 278.449 194.352 278.496 194.451C278.543 194.55 278.199 194.885 277.954 195.393C277.709 195.902 277.653 196.397 277.54 196.42Z" fill="black"/>
<path d="M273.531 189.525C273.479 189.628 272.952 189.459 272.292 189.492C271.633 189.525 271.12 189.722 271.063 189.623C271.006 189.525 271.501 189.115 272.278 189.086C273.055 189.058 273.592 189.435 273.531 189.525Z" fill="black"/>
<path d="M274.001 186.91C273.608 187.006 273.197 186.997 272.809 186.882C272.38 186.798 271.963 186.662 271.566 186.477C271.332 186.367 271.105 186.241 270.888 186.1C270.755 186.024 270.636 185.927 270.534 185.813C270.46 185.729 270.415 185.623 270.407 185.512C270.4 185.4 270.43 185.289 270.492 185.196C270.552 185.116 270.629 185.051 270.719 185.006C270.808 184.962 270.906 184.938 271.005 184.937C271.157 184.941 271.307 184.965 271.453 185.007C272.135 185.194 272.759 185.547 273.271 186.034C273.813 186.557 273.996 186.976 273.954 187.014C273.912 187.052 273.638 186.684 273.083 186.251C272.76 186.002 272.407 185.794 272.032 185.634C271.811 185.54 271.583 185.466 271.349 185.412C271.1 185.342 270.878 185.337 270.817 185.445C270.756 185.554 270.789 185.507 270.841 185.582C270.919 185.662 271.008 185.732 271.104 185.789C271.305 185.924 271.512 186.049 271.726 186.161C272.093 186.352 272.476 186.51 272.871 186.632C273.254 186.697 273.632 186.79 274.001 186.91Z" fill="black"/>
<path d="M220.211 121.679C220.211 121.679 267.45 115.763 270.233 115.763C276.766 115.763 280.869 120.741 281.844 124.585C282.565 127.411 297.105 168.508 297.105 168.508L286.38 174.066L270.605 146.035L262.565 132.051L221.115 138.452L220.211 121.679Z" fill="black"/>
<path d="M264.515 130.76C264.515 130.76 270.992 130.76 274.487 135.941C276.54 138.989 275.82 144.42 275.862 148.532C275.919 154.123 274.567 188.187 274.567 188.187L261.326 188.408L258.552 152.907L258.712 146.346L232.293 144.189C232.293 144.189 229.886 136.181 235.806 129.851C236.532 129.041 264.515 130.76 264.515 130.76Z" fill="black"/>
<path d="M224.248 110.256C224.248 110.256 213.806 126.328 220.212 138.405C223.264 144.156 232.397 144.151 232.397 144.151L241.766 132.423V113.026L224.248 110.256Z" fill="black"/>
<path d="M232.398 144.151C232.455 144.115 232.515 144.083 232.577 144.057L233.105 143.812L235.14 142.87L242.676 139.521L253.835 134.589L260.429 131.683C261.008 131.443 261.564 131.156 262.176 130.948C262.79 130.737 263.42 130.579 264.06 130.477C265.368 130.283 266.697 130.272 268.008 130.444C269.323 130.601 270.606 130.963 271.809 131.518C272.399 131.797 272.948 132.156 273.438 132.588C273.915 133.022 274.321 133.529 274.64 134.09C275.263 135.174 275.641 136.381 275.746 137.627C275.798 138.24 275.746 138.829 275.746 139.417C275.746 140.006 275.746 140.585 275.746 141.16C275.69 145.753 275.643 149.883 275.605 153.36C275.567 156.836 275.516 159.629 275.487 161.584C275.487 162.526 275.454 163.293 275.445 163.821C275.445 164.066 275.445 164.259 275.445 164.4C275.45 164.466 275.45 164.532 275.445 164.598C275.441 164.532 275.441 164.466 275.445 164.4C275.445 164.259 275.445 164.066 275.445 163.821C275.445 163.293 275.445 162.544 275.445 161.584C275.445 159.629 275.445 156.822 275.478 153.36C275.511 149.898 275.53 145.748 275.563 141.16C275.563 140.585 275.563 140.006 275.563 139.417C275.563 138.829 275.591 138.23 275.539 137.646C275.437 136.439 275.068 135.27 274.461 134.222C274.156 133.684 273.768 133.197 273.311 132.781C272.839 132.366 272.309 132.022 271.738 131.759C270.562 131.215 269.308 130.859 268.022 130.703C266.736 130.535 265.433 130.546 264.15 130.736C263.525 130.84 262.91 130.998 262.313 131.207C261.724 131.41 261.154 131.678 260.58 131.938L253.985 134.83L242.808 139.709L235.272 142.978L233.213 143.854L232.676 144.076C232.588 144.116 232.495 144.141 232.398 144.151Z" fill="#455A64"/>
<path d="M269.301 115.763C269.301 115.829 259.386 116.945 247.139 118.254C234.892 119.564 224.959 120.572 224.949 120.506C224.94 120.44 234.864 119.324 247.111 118.014C259.357 116.705 269.291 115.697 269.301 115.763Z" fill="#455A64"/>
<path d="M257.626 92.3482C258.393 89.9036 261.078 80.9071 260.475 76.164C260.004 72.3958 256.599 67.5254 255.586 64.9348C255.115 63.7149 251.295 62.4573 249.02 61.7837L246.759 59.113L246.571 60.4177C245.904 61.1798 245.07 61.7762 244.133 62.1596C243.196 62.5431 242.182 62.703 241.173 62.6268C237.814 62.3254 235.05 60.9547 233.227 58.9293C224.503 61.5906 224.532 62.1841 222.864 62.8482C220.707 63.7055 227.16 84.3786 227.16 84.3786C227.16 84.3786 229.473 97.3646 227.297 101.74C226.072 104.204 224.654 107.016 223.613 109.305C223.613 109.305 220.712 114.835 221.333 114.693C222.638 114.392 231.696 116.578 240.207 117.049C255.944 117.878 258.954 115.546 258.954 115.546C258.13 111.519 256.749 97.4023 256.754 94.6609C256.745 94.1852 257.489 92.7721 257.626 92.3482Z" fill="#407BFF"/>
<path d="M247.039 59.7583C247.039 59.7583 257.293 62.4007 258.296 63.7667C261.024 67.4736 277.453 92.8381 269.389 100.403C264.104 105.358 256.671 94.9011 256.671 94.9011L247.039 59.7583Z" fill="#407BFF"/>
<path d="M268.402 89.6305C268.159 89.6091 267.918 89.5682 267.681 89.508L265.717 89.103C264.045 88.7638 261.704 88.2834 259.019 87.8971L259.16 87.8171L258.355 89.8048L256.443 94.4726V94.3548L259.41 97.9157L260.234 98.9331C260.337 99.05 260.428 99.1761 260.507 99.31C260.507 99.31 261.266 99.6585 260.178 98.9803L259.297 98.0052L256.254 94.5056L256.207 94.449L256.235 94.3878L258.119 89.7059C258.397 89.0276 258.67 88.3635 258.93 87.7229L258.967 87.6287H259.076C261.774 88.029 264.111 88.5377 265.773 88.924C266.607 89.1171 267.267 89.2819 267.723 89.395C267.955 89.4568 268.182 89.5355 268.402 89.6305Z" fill="black"/>
<path d="M258.541 88.4388C258.542 88.1592 258.568 87.8803 258.616 87.6051C258.692 87.0304 258.786 86.2674 258.904 85.3489C259.256 82.8813 259.339 80.3829 259.153 77.8974C258.898 75.4104 258.179 72.9932 257.034 70.7708C256.605 69.9136 256.214 69.2353 255.941 68.769C255.787 68.534 255.65 68.2885 255.531 68.0342C255.531 68.0342 255.588 68.0907 255.673 68.2037C255.757 68.3168 255.88 68.4911 256.031 68.7172C256.332 69.1882 256.746 69.8335 257.203 70.6907C258.41 72.9148 259.162 75.3564 259.417 77.8738C259.606 80.3776 259.496 82.8949 259.087 85.3724C258.951 86.3145 258.814 87.0917 258.72 87.6192C258.682 87.8967 258.622 88.1708 258.541 88.4388Z" fill="black"/>
<g opacity="0.3">
<path d="M224.949 107.374L244.36 98.4244L243.046 94.5856L246.032 93.4458L250.898 94.0816C252.101 94.2404 253.325 94.1199 254.474 93.7295C255.623 93.339 256.667 92.6891 257.525 91.8302L245.434 88.7732L231.642 91.7124L228.138 81.5525L227.271 84.5293L227.992 90.9211L228.463 97.8263L224.949 107.374Z" fill="black"/>
</g>
<path d="M223.099 62.7446C221.903 63.2685 220.838 64.0502 219.979 65.0339C219.121 66.0176 218.491 67.1788 218.134 68.4346C217.468 69.9212 216.962 71.475 216.627 73.0694C214.992 80.276 211.446 93.7943 211.314 97.4023C211.059 103.893 216.222 105.735 219.01 106.3C221.799 106.865 241.148 96.8512 241.148 96.8512L237.126 85.9188L225.298 90.8127C225.298 90.8127 227.997 82.4757 228.779 79.0655C229.561 75.6553 223.099 62.7446 223.099 62.7446Z" fill="#407BFF"/>
<path d="M259.091 86.6112C258.855 85.5405 258.818 84.4357 258.982 83.3518C259.118 82.7012 259.142 82.0321 259.053 81.3735C258.93 80.7282 258.327 80.0452 257.673 80.097L256.684 84.8496L259.091 86.6112Z" fill="#FFBF9D"/>
<path d="M258.632 75.4574L255.152 92.254L246.895 91.7547L249.339 75.1371C249.371 74.9254 249.478 74.7321 249.64 74.5928C249.803 74.4536 250.011 74.3776 250.225 74.3788H257.761C257.894 74.3786 258.025 74.4082 258.145 74.4655C258.266 74.5227 258.371 74.6061 258.455 74.7096C258.538 74.8131 258.598 74.9339 258.628 75.0634C258.659 75.1928 258.661 75.3274 258.632 75.4574Z" fill="black"/>
<path d="M249.352 79.8239C249.408 79.671 249.451 79.5134 249.479 79.3528C249.549 78.9996 249.644 78.5427 249.757 77.9916L250.148 75.9756C250.148 75.8814 250.181 75.7778 250.204 75.7024C250.235 75.6212 250.285 75.5486 250.35 75.4905C250.415 75.4279 250.497 75.3854 250.586 75.368C250.683 75.3604 250.78 75.3604 250.878 75.368H252.182C253.968 75.368 255.588 75.3397 256.756 75.3209L258.169 75.2832C258.339 75.2891 258.51 75.2765 258.678 75.2455C258.509 75.2245 258.339 75.215 258.169 75.2173H256.756C255.588 75.2173 253.968 75.2173 252.182 75.2173H250.878C250.768 75.2062 250.658 75.2062 250.548 75.2173C250.434 75.242 250.329 75.2955 250.242 75.3727C250.157 75.4503 250.092 75.5473 250.053 75.6553C250.026 75.7546 250.004 75.8552 249.987 75.9568C249.856 76.7104 249.738 77.3934 249.634 77.9822L249.413 79.3481C249.38 79.5048 249.359 79.6639 249.352 79.8239Z" fill="#455A64"/>
<path d="M253.763 76.1593C253.799 76.0686 253.866 75.9939 253.953 75.9489C254.039 75.9039 254.139 75.8916 254.234 75.9143C254.309 75.9344 254.376 75.9758 254.428 76.0335C254.48 76.0912 254.514 76.1627 254.526 76.2393C254.529 76.323 254.509 76.4059 254.47 76.4796C254.43 76.5533 254.371 76.6151 254.3 76.6585C254.226 76.6997 254.142 76.7177 254.058 76.7101C253.974 76.7026 253.894 76.6698 253.829 76.6162C253.769 76.5577 253.731 76.4813 253.719 76.3988C253.707 76.3163 253.722 76.2322 253.763 76.1593Z" fill="#FAFAFA"/>
<path d="M253.991 81.2275C254.184 81.2746 258.55 83.5308 258.55 83.5308L260.83 85.933C260.83 85.933 261.654 87.3461 260.985 89.4939C260.316 91.6418 259.228 92.4284 256.718 93.0501L251.975 92.3012L249.572 90.3323C249.343 90.1419 249.176 89.8873 249.092 89.6012C249.008 89.315 249.011 89.0104 249.101 88.7262L249.134 88.6272L248.861 88.1562C248.778 88.0165 248.737 87.8554 248.745 87.693C248.752 87.5305 248.808 87.3738 248.904 87.2424C249.033 87.0664 249.228 86.9488 249.444 86.9153C249.66 86.8817 249.881 86.935 250.058 87.0635L252.761 89.0417L254.622 89.2867L254.9 88.6791L252.172 87.266L248.706 84.5812C248.597 84.4972 248.506 84.3919 248.438 84.2718C248.371 84.1516 248.329 84.019 248.314 83.882C248.3 83.7451 248.313 83.6066 248.354 83.4749C248.394 83.3433 248.461 83.2213 248.55 83.1163C248.706 82.933 248.921 82.8106 249.158 82.771C249.395 82.7313 249.639 82.7769 249.846 82.8996L253.067 84.7837L256.43 86.2674L255.898 84.9297L251.946 82.0047C251.946 82.0047 251.607 80.6246 253.991 81.2275Z" fill="#FFBF9D"/>
<path d="M253.595 78.9241C253.595 78.9241 252.686 78.4013 251.174 79.0278C249.662 79.6542 247.731 80.601 247.731 80.601L244.834 81.4253L245.178 80.7093C245.178 80.7093 248.037 81.0013 247.9 78.9194L246.176 78.9948L244.697 78.2365L241.782 81.0626L240.684 85.071L237.477 86.7384L239.997 93.5964L244.523 91.0859L250.175 90.9776L252.252 89.296L252.483 87.1623L254.518 85.0898C254.518 85.0898 254.772 84.0536 253.835 83.9546C252.898 83.8557 250.642 86.0978 250.642 86.0978L248.376 86.1496C248.376 86.1496 247.99 85.7963 248.305 85.5938C248.621 85.3912 255.295 82.1129 255.592 81.3782C255.889 80.6434 256.195 80.1629 255.531 79.9651C254.937 79.8761 254.33 79.9343 253.764 80.1347C253.764 80.1347 254.099 79.0843 253.595 78.9241Z" fill="#FFBF9D"/>
<path d="M248.059 83.022C249.073 82.6029 250.065 82.1312 251.031 81.609C252.023 81.1469 252.99 80.6328 253.928 80.0687C252.913 80.4791 251.921 80.9429 250.955 81.4582C249.962 81.9267 248.995 82.4488 248.059 83.022Z" fill="#FF9A6C"/>
<path d="M246.711 88.3493C246.819 88.4001 246.933 88.4365 247.05 88.4576C247.271 88.5141 247.596 88.5989 247.992 88.6695C248.469 88.7569 248.954 88.7901 249.438 88.7685C250.037 88.7362 250.622 88.5755 251.153 88.2974C252.097 87.7699 252.916 87.0454 253.555 86.1731C253.805 85.8481 253.998 85.5797 254.125 85.3913C254.199 85.297 254.263 85.1942 254.313 85.0851C254.009 85.4064 253.723 85.7445 253.456 86.0978C252.805 86.9299 251.997 87.6261 251.077 88.1467C250.566 88.4154 250.005 88.5757 249.429 88.6177C248.957 88.6471 248.483 88.6266 248.016 88.5565C247.215 88.4293 246.716 88.321 246.711 88.3493Z" fill="#FF9A6C"/>
<path d="M237.477 86.7384L237.679 86.6207L238.291 86.2863L240.647 85.0334L240.618 85.0663L241.692 81.0485L244.594 78.2224L244.641 78.1753L244.697 78.2083L246.181 78.9619H246.134L247.858 78.8818H247.961V78.9807C247.989 79.3057 247.925 79.6319 247.778 79.9228C247.609 80.1851 247.368 80.3941 247.085 80.5257C246.475 80.7909 245.807 80.8947 245.145 80.8271L245.253 80.7659L244.914 81.4866L244.782 81.3311L247.679 80.4974L250.505 79.2115C251.409 78.7405 252.573 78.326 253.68 78.8159C253.746 78.8401 253.806 78.8777 253.857 78.9263C253.909 78.9749 253.949 79.0335 253.976 79.0985C254.025 79.2147 254.049 79.3399 254.047 79.4659C254.049 79.705 254.016 79.9431 253.948 80.1724L253.793 80.0217C254.128 79.9141 254.474 79.84 254.824 79.8003C255.205 79.732 255.598 79.8022 255.931 79.9981C256.026 80.0707 256.09 80.1768 256.11 80.2949C256.129 80.3992 256.129 80.5062 256.11 80.6105C256.059 80.7887 255.996 80.9633 255.922 81.1333L255.818 81.3829C255.796 81.4318 255.771 81.4791 255.743 81.5242C255.711 81.5655 255.676 81.6048 255.639 81.642C255.501 81.7693 255.355 81.8873 255.201 81.9953C254.004 82.767 252.768 83.4775 251.499 84.1243L249.657 85.0663C249.356 85.2265 249.054 85.3772 248.753 85.5373C248.616 85.6127 248.414 85.6975 248.395 85.7587C248.376 85.82 248.447 85.9707 248.546 86.0649L248.461 86.0319L250.726 85.9801L250.646 86.0131C251.311 85.3516 252.04 84.7582 252.822 84.242C253.018 84.1146 253.226 84.0088 253.444 83.9265C253.675 83.8331 253.931 83.8215 254.17 83.8935C254.292 83.9307 254.404 83.9973 254.495 84.0876C254.586 84.1779 254.654 84.2892 254.692 84.4116C254.751 84.6434 254.751 84.8863 254.692 85.1181V85.1464L252.549 87.233L252.577 87.1718C252.497 87.9066 252.417 88.6178 252.342 89.3102V89.3479L252.314 89.3715L250.227 91.0436H250.204H250.194L244.518 91.1331H244.551L241.183 92.9653L240.298 93.4364L240.072 93.5541C240.02 93.5824 239.992 93.5918 239.992 93.5871L240.062 93.54L240.284 93.4081L241.151 92.9088L244.49 91.0247H244.518L250.171 90.8928H250.119L252.191 89.2066L252.154 89.2725C252.229 88.5849 252.304 87.8736 252.38 87.1388V87.12L252.403 87.0964L254.433 85.0192L254.405 85.071C254.49 84.6895 254.405 84.2091 254.009 84.129C253.803 84.0998 253.593 84.114 253.393 84.1708C253.192 84.2276 253.006 84.3257 252.846 84.4587C252.079 84.9663 251.366 85.5502 250.717 86.2015L250.684 86.2345H250.665L248.404 86.2957H248.352L248.319 86.2627C248.248 86.1956 248.188 86.1177 248.14 86.0319C248.111 85.9801 248.093 85.9225 248.088 85.8631C248.083 85.8037 248.092 85.744 248.112 85.6881C248.165 85.5897 248.25 85.5118 248.352 85.4667L248.579 85.3489L249.483 84.8779L251.32 83.9359C252.58 83.292 253.806 82.5845 254.994 81.8163C255.129 81.7097 255.257 81.5932 255.375 81.4677C255.403 81.4419 255.428 81.4135 255.451 81.3829C255.471 81.3542 255.487 81.3224 255.498 81.2887L255.606 81.0391C255.729 80.7282 255.917 80.3326 255.705 80.1913C255.417 80.0349 255.084 79.9833 254.763 80.0452C254.43 80.0802 254.102 80.1496 253.783 80.2525L253.567 80.3232L253.628 80.1018C253.688 79.8967 253.718 79.6842 253.717 79.4706C253.717 79.2634 253.647 79.0844 253.515 79.0467C253.039 78.8518 252.515 78.8058 252.012 78.9148C251.505 79.0275 251.016 79.2081 250.557 79.4518L247.764 80.7235L244.862 81.5478L244.627 81.6137L244.735 81.3924L245.079 80.6764L245.107 80.6105H245.187C245.808 80.6745 246.435 80.5806 247.01 80.3373C247.272 80.2106 247.49 80.0089 247.636 79.7579C247.762 79.504 247.818 79.221 247.797 78.9384L247.905 79.0326L246.181 79.1032H246.153L244.674 78.3354H244.782L241.862 81.1616V81.1286C241.424 82.6924 241.047 84.0442 240.741 85.1323V85.1558L238.348 86.3663L237.726 86.6725L237.477 86.7384Z" fill="#FF9A6C"/>
<path d="M225.303 104.411C225.398 104.35 225.497 104.296 225.6 104.251L226.471 103.818L229.768 102.244L241.125 96.8748L241.064 97.0208C240.329 95.0142 239.537 92.8428 238.708 90.5961C238.134 89.004 237.569 87.4544 237.027 85.9565L237.187 86.0272L225.614 90.8881H225.591C224.642 90.9701 223.709 91.1793 222.816 91.5099C222.145 91.7569 221.533 92.1402 221.017 92.6356C220.691 92.9497 220.431 93.3261 220.254 93.7425C220.197 93.8838 220.164 93.9968 220.141 94.0722C220.135 94.1127 220.124 94.1523 220.108 94.19C220.099 94.1496 220.099 94.1079 220.108 94.0675C220.131 93.9507 220.162 93.8357 220.202 93.7236C220.365 93.2925 220.615 92.8996 220.937 92.5696C221.455 92.0531 222.074 91.649 222.755 91.3827C223.662 91.0314 224.613 90.8079 225.581 90.7185H225.553L237.093 85.7964L237.211 85.7493L237.253 85.867C237.799 87.3649 238.365 88.9145 238.939 90.5019C239.759 92.7486 240.545 94.9247 241.294 96.9313L241.332 97.0349L241.233 97.082L229.844 102.367L226.547 103.884L225.656 104.279C225.541 104.33 225.424 104.374 225.303 104.411Z" fill="black"/>
<path d="M229.253 74.4024C228.973 73.9545 228.716 73.4923 228.485 73.0176C228.014 72.1557 227.345 70.9922 226.511 69.7582C225.677 68.5241 224.844 67.469 224.217 66.7154C223.862 66.3257 223.529 65.9169 223.219 65.4907C223.219 65.4907 223.346 65.5755 223.544 65.7686C223.742 65.9617 224.015 66.2396 224.349 66.6023C226.065 68.5061 227.509 70.6381 228.64 72.9376C228.852 73.3756 229.017 73.7383 229.111 73.9974C229.179 74.1244 229.226 74.261 229.253 74.4024Z" fill="black"/>
<path d="M229.718 76.7103C229.699 76.9144 229.655 77.1153 229.586 77.3085C229.483 77.6853 229.327 78.2506 229.115 78.8959C228.715 80.2383 228.145 82.0847 227.495 84.1148C226.845 86.1449 226.223 87.9771 225.757 89.296C225.522 89.9507 225.328 90.483 225.182 90.8504C225.122 91.0444 225.04 91.2309 224.938 91.4062C224.971 91.2055 225.023 91.0084 225.093 90.8174C225.225 90.3982 225.394 89.8754 225.592 89.2395C226.035 87.8594 226.614 86.046 227.26 84.0582C227.905 82.0705 228.503 80.243 228.951 78.877L229.483 77.3132C229.54 77.1046 229.619 76.9025 229.718 76.7103Z" fill="black"/>
</g>
<defs>
<clipPath id="clip0_1321_21555">
<rect width="313.238" height="200" fill="white"/>
</clipPath>
</defs>
</svg>
