<svg width="80" height="80" viewBox="0 0 80 80" fill="none" xmlns="http://www.w3.org/2000/svg">
<g clip-path="url(#clip0_1180_17876)">
<mask id="mask0_1180_17876" style="mask-type:luminance" maskUnits="userSpaceOnUse" x="0" y="0" width="80" height="80">
<path d="M0 0H79.9994V80H0V0Z" fill="white"/>
</mask>
<g mask="url(#mask0_1180_17876)">
<path d="M5.68751 39.999C5.68751 53.582 13.5809 65.3193 25.0269 70.8823L8.65838 26.0339C6.69617 30.4279 5.6838 35.1867 5.68751 39.999ZM63.167 38.2674C63.167 34.0265 61.6437 31.0896 60.3372 28.8037C58.5977 25.9771 56.968 23.5834 56.968 20.7569C56.968 17.6025 59.3597 14.6662 62.7295 14.6662C62.8817 14.6662 63.026 14.6852 63.1748 14.6937C57.0692 9.1006 48.9356 5.68573 40.002 5.68573C28.0141 5.68573 17.4672 11.8364 11.3315 21.1525C12.1366 21.1767 12.896 21.193 13.5397 21.193C17.129 21.193 22.6848 20.7575 22.6848 20.7575C24.5346 20.6485 24.7527 23.3653 22.9055 23.5841C22.9055 23.5841 21.0459 23.8028 18.9774 23.9112L31.4734 61.0797L38.9835 38.5579L33.6365 23.9106C31.7887 23.8022 30.0382 23.5834 30.0382 23.5834C28.1891 23.475 28.4059 20.6478 30.255 20.7569C30.255 20.7569 35.9218 21.1924 39.2936 21.1924C42.8822 21.1924 48.4387 20.7569 48.4387 20.7569C50.2897 20.6478 50.5072 23.3647 48.6587 23.5834C48.6587 23.5834 46.7959 23.8022 44.7313 23.9106L57.1319 60.7977L60.5539 49.3601C62.0381 44.6139 63.167 41.2049 63.167 38.2674Z" fill="#00749A"/>
<path d="M40.6041 43.0006L30.3086 72.9169C33.4562 73.8445 36.7207 74.3155 40.0021 74.3155C43.9981 74.3155 47.8302 73.6241 51.3972 72.3704C51.3015 72.2206 51.2198 72.0624 51.153 71.8977L40.6041 43.0006ZM70.1117 23.5358C70.2593 24.6288 70.3429 25.8028 70.3429 27.0643C70.3429 30.5464 69.6925 34.4608 67.7337 39.3552L57.2521 69.6601C67.4536 63.7111 74.3154 52.6588 74.3154 39.999C74.3245 34.2447 72.8785 28.5814 70.1117 23.5358Z" fill="#00749A"/>
<path d="M40.0003 0C17.9447 0 0 17.9434 0 39.999C0 62.0572 17.9441 80.0007 40.0003 80.0007C62.0553 80.0007 80.0026 62.0579 80.0026 39.999C80.002 17.9434 62.0553 0 40.0003 0ZM40.0003 78.1665C18.9561 78.1665 1.8341 61.0445 1.8341 39.999C1.8341 18.9555 18.9555 1.83476 40.0003 1.83476C61.0439 1.83476 78.1646 18.9555 78.1646 39.999C78.1646 61.0445 61.0432 78.1665 40.0003 78.1665Z" fill="#00749A"/>
</g>
</g>
<defs>
<clipPath id="clip0_1180_17876">
<rect width="80" height="80" fill="white"/>
</clipPath>
</defs>
</svg>
