<svg width="241" height="200" viewBox="0 0 241 200" fill="none" xmlns="http://www.w3.org/2000/svg">
<g clip-path="url(#clip0_1321_21721)">
<mask id="mask0_1321_21721" style="mask-type:luminance" maskUnits="userSpaceOnUse" x="9" y="6" width="215" height="191">
<path d="M121.33 196.115C178.479 196.115 210.623 172.217 221.478 125.389C232.333 78.5619 191.322 72.2017 185.926 44.1318C180.529 16.0619 133.02 -2.43955 91.2045 10.3064C49.3892 23.0525 12.7912 67.4508 9.92115 104.449C7.05112 141.446 36.228 196.115 121.33 196.115Z" fill="white"/>
</mask>
<g mask="url(#mask0_1321_21721)">
<path opacity="0.64" d="M5.88963 105.32H14.4485V117.471H22.6485V92.8249H31.2074V107.37H44.8964V87.6948L52.9427 79.6484H64.0641V94.8801H74.6781V79.6484H177.358V90.5699H187.972V81.5293H199.248V96.9352H209.17V114.032L214.295 119.157V126.686H228.67C228.67 126.686 271.829 185.583 196.188 192.087C120.547 198.591 72.9663 200.287 64.0641 199.959C55.1619 199.631 27.7838 189.007 27.7838 189.007L9.73342 175.318C9.73342 175.318 2.45585 163.679 0.400701 160.599C-1.65445 157.518 4.86462 103.782 4.86462 103.782" fill="#E2E2E2"/>
<path d="M169.66 102.501H73.4982C70.1186 102.501 67.3789 105.241 67.3789 108.62V164.36C67.3789 167.74 70.1186 170.48 73.4982 170.48H169.66C173.039 170.48 175.779 167.74 175.779 164.36V108.62C175.779 105.241 173.039 102.501 169.66 102.501Z" fill="#262F38"/>
<path d="M175.781 170.48H67.3807L55.0703 176.676H188.091L175.781 170.48Z" fill="#262F38"/>
<path d="M61.5469 175.138L67.7482 172.017H175.41L181.611 175.138H61.5469Z" fill="#999999"/>
<path d="M182.822 182.431H60.3328C58.9399 182.425 57.6064 181.866 56.6239 180.879C55.6414 179.892 55.0898 178.556 55.0898 177.163V176.676H188.09V177.163C188.09 178.56 187.535 179.9 186.547 180.888C185.559 181.876 184.219 182.431 182.822 182.431Z" fill="#1E262D"/>
<path d="M170.408 108.246H72.75V164.735H170.408V108.246Z" fill="#FFF3EE"/>
<path d="M158.277 68.4246H84.3838C81.542 68.4246 79.2383 70.7283 79.2383 73.5701V168.409C79.2383 171.251 81.542 173.555 84.3838 173.555H158.277C161.119 173.555 163.422 171.251 163.422 168.409V73.5701C163.422 70.7283 161.119 68.4246 158.277 68.4246Z" fill="#BABABA"/>
<path d="M160.341 71.5046H82.3125V170.48H160.341V71.5046Z" fill="white"/>
<path d="M141.027 91.6154H102.133V94.7263H141.027V91.6154Z" fill="#999999"/>
<path d="M141.027 110.558H102.133V113.669H141.027V110.558Z" fill="#999999"/>
<path d="M141.027 129.5H102.133V132.611H141.027V129.5Z" fill="#999999"/>
<path d="M141.027 148.447H102.133V151.558H141.027V148.447Z" fill="#999999"/>
<path d="M93.0854 98.6521C96.114 98.6521 98.5692 96.1969 98.5692 93.1683C98.5692 90.1396 96.114 87.6844 93.0854 87.6844C90.0568 87.6844 87.6016 90.1396 87.6016 93.1683C87.6016 96.1969 90.0568 98.6521 93.0854 98.6521Z" fill="#39AB68"/>
<path d="M92.6809 95.6232C92.5392 95.6233 92.3992 95.5932 92.2702 95.5349C92.1411 95.4766 92.026 95.3913 91.9326 95.2849L90.0825 93.2041C90.0377 93.1537 90.0033 93.0949 89.9813 93.0311C89.9593 92.9673 89.95 92.8999 89.954 92.8325C89.9581 92.7652 89.9754 92.6993 90.0049 92.6386C90.0344 92.578 90.0755 92.5237 90.126 92.479C90.1765 92.4342 90.2353 92.3998 90.2991 92.3778C90.3628 92.3558 90.4303 92.3465 90.4976 92.3505C90.6336 92.3587 90.7608 92.4206 90.8512 92.5225L92.7014 94.6033L95.9763 91.0157C96.0687 90.9158 96.197 90.8567 96.333 90.8515C96.469 90.8462 96.6016 90.8951 96.7015 90.9876C96.8014 91.08 96.8605 91.2083 96.8657 91.3443C96.871 91.4803 96.8221 91.6129 96.7297 91.7128L93.4394 95.3003C93.3422 95.4037 93.2246 95.4858 93.094 95.5413C92.9634 95.5969 92.8228 95.6248 92.6809 95.6232Z" fill="white"/>
<path d="M96.9649 115.955C99.1065 113.813 99.1065 110.341 96.9649 108.199C94.8234 106.058 91.3512 106.058 89.2097 108.199C87.0681 110.341 87.0681 113.813 89.2097 115.955C91.3512 118.096 94.8234 118.096 96.9649 115.955Z" fill="#39AB68"/>
<path d="M92.6809 114.545C92.5396 114.543 92.4001 114.512 92.2714 114.454C92.1426 114.396 92.0273 114.311 91.9326 114.207L90.0825 112.126C89.9921 112.024 89.9459 111.89 89.9541 111.754C89.9622 111.618 90.0241 111.491 90.126 111.401C90.228 111.31 90.3616 111.264 90.4976 111.272C90.6336 111.28 90.7608 111.342 90.8512 111.444L92.7014 113.525L95.9763 109.937C96.0687 109.837 96.197 109.778 96.333 109.773C96.469 109.768 96.6016 109.817 96.7015 109.909C96.8014 110.002 96.8605 110.13 96.8657 110.266C96.871 110.402 96.8221 110.534 96.7297 110.634L93.4394 114.196C93.3445 114.304 93.2279 114.391 93.0972 114.451C92.9665 114.511 92.8247 114.543 92.6809 114.545Z" fill="white"/>
<path d="M93.0854 136.465C96.114 136.465 98.5692 134.01 98.5692 130.981C98.5692 127.952 96.114 125.497 93.0854 125.497C90.0568 125.497 87.6016 127.952 87.6016 130.981C87.6016 134.01 90.0568 136.465 93.0854 136.465Z" fill="#39AB68"/>
<path d="M92.6809 133.436C92.5396 133.434 92.4001 133.403 92.2714 133.345C92.1426 133.287 92.0273 133.202 91.9326 133.098L90.0825 131.017C89.9921 130.915 89.9459 130.781 89.9541 130.645C89.9622 130.509 90.0241 130.382 90.126 130.292C90.228 130.201 90.3616 130.155 90.4976 130.163C90.6336 130.171 90.7608 130.233 90.8512 130.335L92.7014 132.416L95.9763 128.828C96.022 128.779 96.0771 128.739 96.1383 128.711C96.1995 128.683 96.2657 128.667 96.333 128.664C96.4004 128.661 96.4676 128.672 96.5308 128.695C96.594 128.719 96.652 128.754 96.7015 128.8C96.7509 128.846 96.7909 128.901 96.8191 128.962C96.8473 129.023 96.8631 129.09 96.8657 129.157C96.8684 129.224 96.8577 129.291 96.8343 129.355C96.811 129.418 96.7754 129.476 96.7297 129.525L93.4394 133.113C93.3422 133.216 93.2246 133.298 93.094 133.354C92.9634 133.41 92.8228 133.437 92.6809 133.436Z" fill="white"/>
<path d="M98.4223 151.139C99.118 148.191 97.2924 145.238 94.3448 144.542C91.3972 143.847 88.4437 145.672 87.748 148.62C87.0523 151.567 88.8778 154.521 91.8254 155.217C94.7731 155.912 97.7266 154.087 98.4223 151.139Z" fill="#39AB68"/>
<path d="M92.6833 152.342C92.5416 152.34 92.402 152.308 92.2732 152.249C92.1444 152.19 92.0293 152.105 91.935 151.999L90.0746 149.908C89.9843 149.806 89.9381 149.672 89.9462 149.536C89.9544 149.4 90.0163 149.273 90.1182 149.183C90.2202 149.092 90.3538 149.046 90.4898 149.054C90.6258 149.062 90.753 149.124 90.8434 149.226L92.6935 151.302L95.9685 147.74C96.0609 147.64 96.1892 147.581 96.3252 147.576C96.4612 147.57 96.5937 147.619 96.6937 147.712C96.7936 147.804 96.8527 147.932 96.8579 148.068C96.8632 148.204 96.8143 148.337 96.7218 148.437L93.4316 151.999C93.3373 152.105 93.2222 152.19 93.0934 152.249C92.9646 152.308 92.825 152.34 92.6833 152.342Z" fill="white"/>
<path d="M127.501 66.4411C127.501 64.2962 126.649 62.2392 125.132 60.7225C123.615 59.2058 121.558 58.3538 119.413 58.3538C117.269 58.3538 115.212 59.2058 113.695 60.7225C112.178 62.2392 111.326 64.2962 111.326 66.4411H102.07V74.7437H136.757V66.4411H127.501ZM119.413 70.5975C118.593 70.5975 117.79 70.3542 117.108 69.8982C116.425 69.4423 115.893 68.7943 115.579 68.036C115.264 67.2778 115.182 66.4434 115.342 65.6382C115.501 64.8331 115.896 64.0934 116.476 63.5126C117.056 62.9318 117.796 62.5361 118.6 62.3753C119.405 62.2146 120.24 62.296 120.999 62.6095C121.757 62.9229 122.406 63.4542 122.863 64.1362C123.319 64.8182 123.564 65.6203 123.565 66.4411C123.565 67.5426 123.128 68.599 122.349 69.3783C121.571 70.1576 120.515 70.5961 119.413 70.5975Z" fill="#407BFF"/>
<path d="M54.7783 50.7072C57.674 50.574 60.5389 49.9743 62.5018 48.1447C63.5678 47.1453 64.6697 46.2433 64.6697 44.839C64.6919 42.5535 64.8425 40.2709 65.1207 38.0022C65.143 37.7979 65.2167 37.6025 65.3348 37.4342C65.4529 37.2659 65.6116 37.1302 65.7962 37.0397C65.9808 36.9492 66.1853 36.9068 66.3906 36.9165C66.596 36.9262 66.7956 36.9876 66.9708 37.0951C67.7498 37.5768 68.5698 38.5045 68.862 40.2675C69.0311 41.2925 68.5135 47.3657 68.5135 47.3657C68.5135 47.3657 78.4817 46.9403 79.1582 48.8673C79.8347 50.7944 76.1037 51.5067 76.1037 51.5067C76.1037 51.5067 76.8468 57.6055 75.176 59.8144C71.855 64.2015 62.0251 62.8895 54.7578 62.7665L54.7783 50.7072Z" fill="#E2E2E2"/>
<path d="M58.9086 49.1594H53.9219V64.2117H58.9086V49.1594Z" fill="#407BFF"/>
<path d="M57.5655 61.6287C57.5666 61.856 57.5001 62.0785 57.3746 62.2679C57.249 62.4574 57.0701 62.6053 56.8604 62.693C56.6507 62.7807 56.4198 62.8041 56.1967 62.7604C55.9737 62.7167 55.7687 62.6078 55.6076 62.4474C55.4465 62.2871 55.3367 62.0825 55.292 61.8597C55.2473 61.6369 55.2697 61.4058 55.3564 61.1957C55.4432 60.9856 55.5903 60.806 55.7792 60.6797C55.9681 60.5533 56.1903 60.4858 56.4175 60.4858C56.7211 60.4858 57.0123 60.6061 57.2275 60.8203C57.4426 61.0345 57.5642 61.3251 57.5655 61.6287Z" fill="#E2E2E2"/>
<path d="M84.668 127.527C85.9749 125.548 87.4457 121.792 87.3637 118.814C87.2817 115.836 92.6323 115.104 94.1032 113.51C95.5741 111.916 96.9117 110.921 97.6446 111.742C98.3775 112.562 94.8873 116.59 93.4369 117.143C93.4369 117.143 96.1327 122.115 96.5581 123.837C96.9835 125.559 94.7797 128.926 93.9597 129.013C93.1397 129.1 93.5753 127.368 93.5753 127.368C93.5753 127.368 90.3106 132.298 87.8404 132.098C85.3701 131.898 84.668 127.527 84.668 127.527Z" fill="#F3B8A5"/>
<path d="M85.5638 125.933C87.6044 127.324 89.8298 128.423 92.1751 129.197C92.1751 129.197 90.8375 130.945 89.833 131.478C88.8285 132.011 85.1641 126.917 85.1641 126.917L85.5638 125.933Z" fill="#DD938A"/>
<path d="M48.7248 129.505L47.3821 133.61L41.4062 131.022L44.2609 121.74L48.7248 129.505Z" fill="#F3B8A5"/>
<path d="M48.3257 130.725C46.1884 129.954 44.2101 128.799 42.4883 127.317L44.4614 122.355L49.074 128.731L48.3257 130.725Z" fill="#DD938A"/>
<path d="M57.0478 114.816C57.0068 118.286 60.6815 123.596 60.6815 123.596L57.6987 124.621L56.6737 131.437C56.6737 131.437 48.735 130.714 45.2192 126.824C41.7034 122.935 44.7067 114.868 44.7067 114.868C44.7067 114.868 47.0232 111.962 47.6639 111.89C48.3045 111.818 55.5359 112.495 55.5359 112.495L57.0478 114.816Z" fill="#F3B8A5"/>
<path d="M60.1466 113.674C56.841 115.057 47.9131 115.319 47.9131 115.319L46.6626 123.006L42.4806 127.327C37.0378 122.822 34.7571 118.814 34.7059 115.119C34.6847 114.116 34.7862 113.114 35.0083 112.136C35.7668 108.743 38.0064 106.048 41.8451 104.449C46.7549 102.399 52.3771 103.936 54.3399 104.449C56.3028 104.961 53.8941 100.861 51.6595 101.415C49.425 101.968 54.5193 97.3145 59.6034 101.368C60.5378 102.089 61.3178 102.991 61.8971 104.019C62.4764 105.047 62.8432 106.182 62.9757 107.354C63.2883 110.214 62.0634 112.874 60.1466 113.674Z" fill="#262F38"/>
<path opacity="0.72" d="M60.1466 113.674C56.841 115.057 47.9131 115.319 47.9131 115.319L46.6626 123.006L42.4806 127.327C37.0378 122.822 34.7571 118.814 34.7059 115.119C34.6847 114.116 34.7862 113.114 35.0083 112.136C34.1165 117.799 39.8719 120.275 39.7233 117.574C39.5747 114.873 41.6144 111.121 48.2309 112.09C54.8473 113.059 57.2458 111.89 57.2458 111.89C57.2458 111.89 53.6122 111.408 55.5033 109.881C57.292 108.441 60.3773 111.29 62.9757 107.344C63.2883 110.214 62.0634 112.874 60.1466 113.674Z" fill="#191E23"/>
<path d="M47.5603 120.762C47.0478 116.662 44.7056 116.031 43.5474 117.64C42.3891 119.25 43.1886 125.758 46.8479 124.334C50.5072 122.909 47.5603 120.762 47.5603 120.762Z" fill="#F3B8A5"/>
<path d="M56.0499 125.692C55.1683 125.648 54.3287 125.303 53.6719 124.713C53.6719 124.713 53.7283 127.245 55.4093 127.317L56.0499 125.692Z" fill="white"/>
<path d="M55.5325 117.871C55.6812 118.527 56.045 119.009 56.3167 118.942C56.5883 118.876 56.7113 118.296 56.5627 117.64C56.414 116.984 56.0502 116.503 55.7785 116.569C55.5069 116.636 55.3839 117.215 55.5325 117.871Z" fill="#262F38"/>
<path d="M46.2536 120.992C45.5412 118.466 44.6905 118.988 44.4752 120.68C44.4195 121.149 44.5279 121.624 44.7819 122.022C45.036 122.421 45.4201 122.72 45.8692 122.868L46.2536 120.992Z" fill="#DD938A"/>
<path d="M89.8337 131.458C89.8337 131.458 86.8201 138.725 83.3966 146.53C79.9731 154.336 76.1447 162.669 74.5047 164.852C71.6193 168.691 62.9528 163.269 55.2293 157.811C54.1531 157.047 53.0922 156.273 52.0723 155.55C51.4744 155.12 50.8884 154.679 50.3144 154.228C45.6211 150.504 41.3764 146.248 37.6658 141.544L37.1533 135.624L37.0508 134.527L38.1424 134.425C43.4725 133.912 46.4809 133.825 46.9063 134.538C47.3316 135.25 48.4796 137.69 48.4796 137.69C48.4796 137.69 49.1305 138.166 50.1812 138.95C53.9737 141.774 62.9938 148.591 65.2847 151.297L84.97 126.696L89.8337 131.458Z" fill="#407BFF"/>
<path d="M50.1436 138.95C50.1693 139.806 50.3538 146.443 50.3025 154.269C50.2564 160.716 50.0514 167.979 49.462 173.478C49.293 175.293 49.0088 177.095 48.6113 178.874C46.1717 189.017 16.8359 167.938 16.8359 167.938C16.8359 167.938 17.5893 165.795 18.886 162.531C22.0994 154.607 28.6236 140.083 35.8294 133.605C35.8294 133.605 38.7968 129.407 39.8115 129.546C41.5523 129.776 43.268 130.167 44.9366 130.714C48.0475 131.683 50.938 132.98 51.0867 133.605C51.2814 134.594 50.0975 138.848 50.0975 138.848L50.1436 138.95Z" fill="#407BFF"/>
<path d="M50.3053 154.279C50.2591 160.727 50.0541 167.989 49.4647 173.488C49.2187 173.534 49.024 180.427 49.024 180.427C49.024 180.427 37.1031 171.74 32.5675 169.624C28.0318 167.507 21.2667 164.335 18.9297 162.541C22.1431 154.618 28.6673 140.093 35.8731 133.615C35.8731 133.615 38.8405 129.418 39.8553 129.556C41.5961 129.786 43.3117 130.178 44.9803 130.725C45.6927 132.775 39.8553 129.556 39.025 132.616C38.8243 133.272 38.5046 133.885 38.082 134.425C37.795 134.814 37.4619 135.214 37.0929 135.624C34.8686 138.115 31.3272 141.026 29.2208 144.403C26.197 149.247 27.8627 153.762 34.6892 159.199C41.5158 164.637 47.1943 162.828 46.2308 158.144C45.2673 153.459 38.9123 148.626 39.3684 146.551C39.8245 144.475 42.2384 148.17 50.3001 154.269L50.3053 154.279Z" fill="#407BFF"/>
<path d="M83.3851 146.571C79.9615 154.377 76.1331 162.71 74.4931 164.893C71.6077 168.732 62.9412 163.31 55.2178 157.852C51.9634 154.469 50.3592 152.306 53.6803 154.167C58.1801 156.683 60.5683 161.47 69.5679 161.767C78.5675 162.064 77.8859 156.191 83.3851 146.571Z" fill="#407BFF"/>
<path d="M197.647 138.264C196.32 140.913 184.404 147.817 185.731 143.465C185.931 142.86 186.013 142.221 185.972 141.585C185.726 138.648 182.154 137.1 177.311 132.021C176.673 131.345 176.12 130.593 175.666 129.782V129.756C171.673 122.791 172.452 110.281 178.274 107.083C178.274 107.083 192.271 109.512 194.085 110.716C195.899 111.921 198.036 120.106 198.036 120.106C198.036 120.106 198.969 135.614 197.647 138.264Z" fill="black"/>
<path d="M192.627 134.287C192.627 134.287 187.958 139.873 187.563 140.99C187.445 141.334 186.805 141.503 185.974 141.585C185.728 138.648 182.156 137.1 177.313 132.021C176.675 131.345 176.122 130.593 175.668 129.782C177.457 132.78 183.868 137.182 184.278 135.768C184.688 134.353 181.239 133.861 181.557 132.872C181.874 131.883 186.261 132.939 181.557 129.894C176.852 126.85 173.695 114.458 177.17 109.907L185.129 112.495L192.304 124.052L192.627 134.287Z" fill="#030200"/>
<path d="M186.152 126.512L188.09 132.447L194.071 129.858L191.211 120.577L186.152 126.512Z" fill="#F3B8A5"/>
<path d="M191.769 122.186C191.441 125.159 187.182 129.669 187.182 129.669L186.449 127.429L189.842 122.186L191.113 120.193L191.769 122.186Z" fill="#DD938A"/>
<path d="M178.425 113.648C178.466 117.123 174.797 122.427 174.797 122.427L177.775 123.452L178.887 130.822C178.887 130.822 186.087 128.736 189.608 124.841C193.129 120.946 190.782 113.684 190.782 113.684C190.782 113.684 188.471 110.783 187.825 110.706C187.179 110.629 179.942 111.311 179.942 111.311L178.425 113.648Z" fill="#F3B8A5"/>
<path d="M179.942 116.708C179.793 117.364 179.429 117.84 179.157 117.779C178.886 117.717 178.763 117.128 178.911 116.472C179.06 115.816 179.424 115.339 179.696 115.401C179.967 115.462 180.09 116.052 179.942 116.708Z" fill="#262F38"/>
<path d="M179.863 124.739C181.258 124.061 182.412 122.971 183.169 121.617C183.169 121.617 183.933 125.548 180.606 126.512L179.863 124.739Z" fill="white"/>
<path d="M149.837 144.132C147.787 142.943 144.794 140.242 143.538 137.536C142.283 134.83 137.163 136.572 135.138 135.798C133.114 135.025 131.469 134.738 131.177 135.798C130.884 136.859 135.789 138.904 137.357 138.75C137.357 138.75 137.163 144.388 137.552 146.136C137.942 147.883 141.411 149.897 142.165 149.605C142.918 149.313 141.78 147.965 141.78 147.965C141.78 147.965 146.905 150.917 149.022 149.636C151.139 148.355 149.837 144.132 149.837 144.132Z" fill="#F3B8A5"/>
<path d="M148.183 142.994C147.536 145.358 146.292 147.517 144.57 149.262C144.57 149.262 145.636 150.118 147.809 149.846C149.982 149.575 149.121 143.809 149.121 143.809" fill="#DD938A"/>
<path d="M198.164 135.686C198.164 135.686 196.33 145.567 191.543 154.689C189.231 159.097 186.582 164.094 183.901 167.809C183.819 167.938 183.727 168.061 183.635 168.179C180.862 171.94 178.069 174.257 175.619 173.032C172.647 171.546 162.709 163.351 155.37 157.144L155.032 156.857C150.46 152.993 146.98 149.974 146.98 149.974L149.123 143.824L177.823 156.75C178.92 152.342 186.787 137.069 186.787 137.069C186.787 137.069 186.72 134.425 186.787 133.543C186.853 132.662 189.959 131.304 195.602 129.136L198.164 135.686Z" fill="#FF6C37"/>
<path d="M183.638 168.179C180.865 171.94 178.072 174.257 175.622 173.032C172.65 171.546 162.712 163.351 155.373 157.144L155.035 156.857C159.747 159.638 164.255 162.752 168.524 166.175C174.439 171.059 180.768 171.91 183.638 168.179Z" fill="#FF6C37"/>
<path d="M220.393 169.957L201.076 181.268C201.076 181.268 188.776 186.393 188.443 183.953C188.207 182.293 187.295 172.232 186.696 162.941C186.409 158.538 186.183 154.31 186.152 151.235L195.603 129.115C195.603 129.115 197.279 128.664 200.072 132.447C200.549 133.092 201.461 134.62 202.635 136.7C208.354 146.792 220.393 169.957 220.393 169.957Z" fill="#FF6C37"/>
<path d="M220.393 169.957L201.076 181.268C201.076 181.268 188.776 186.393 188.443 183.953C188.207 182.293 187.295 172.232 186.695 162.941C191.175 157.626 194.239 150.041 195.603 151.235C196.966 152.429 191.559 163.484 189.324 166.098C187.09 168.712 188.233 173.309 194.07 167.22C199.908 161.132 205.991 156.406 206.314 151.235C206.637 146.064 195.254 148.96 193.014 145.27C191.39 142.599 198.093 138.74 202.639 136.7C208.354 146.792 220.393 169.957 220.393 169.957Z" fill="#FF6C37"/>
<path d="M211.954 139.422C207.51 148.498 197.014 146.515 192.479 144.147C191.191 143.464 190.108 142.451 189.34 141.212C188.572 139.973 188.146 138.552 188.107 137.095C188.037 135.011 188.693 132.968 189.962 131.314C193.319 126.865 192.094 117.502 188.532 117.558L186.995 117.594C183.32 117.651 178.144 117.241 177.057 109.425C176.642 106.447 179.999 100.979 189.152 99.8206C196.061 98.9442 202.319 103.89 203.503 109.046C203.602 109.46 203.668 109.882 203.697 110.306C204.077 115.888 198.685 119.952 204.077 121.346C209.468 122.74 216.397 130.34 211.954 139.422Z" fill="black"/>
<path d="M186.602 118.676C187.115 114.576 189.457 113.945 190.615 115.549C191.773 117.153 190.974 123.673 187.315 122.248C183.655 120.823 186.602 118.676 186.602 118.676Z" fill="#F3B8A5"/>
<path d="M187.562 118.245C187.891 116.662 189.151 116.662 189.315 117.646C189.479 118.63 187.89 120.577 187.89 120.577L187.562 118.245Z" fill="#DD938A"/>
<path d="M211.952 139.422C207.509 148.498 197.013 146.515 192.477 144.147C191.19 143.464 190.106 142.451 189.338 141.212C188.57 139.973 188.145 138.552 188.105 137.095C190.478 141.052 199.785 142.897 200.477 141.61C201.277 140.129 193.861 139.442 194.773 136.731C195.685 134.02 206.407 140.355 208.918 135.353C211.43 130.35 210.153 125.333 205.269 124.077C200.385 122.822 198.197 124.59 198.35 121.628C198.504 118.665 203.327 115.811 203.727 110.301C204.106 115.882 198.714 119.947 204.106 121.341C209.497 122.735 216.396 130.34 211.952 139.422Z" fill="#030200"/>
</g>
<path d="M141.978 54.3153L137.294 56.7804L138.191 51.5631L134.398 47.868L139.636 47.1094L141.978 42.3585L144.326 47.1094L149.563 47.868L145.771 51.5631L146.668 56.7804L141.978 54.3153Z" fill="#F7B313"/>
<path d="M101.651 54.3153L96.9672 56.7804L97.8589 51.5631L94.0664 47.868L99.3093 47.1094L101.651 42.3585L103.994 47.1094L109.231 47.868L105.444 51.5631L106.336 56.7804L101.651 54.3153Z" fill="#F7B313"/>
<path d="M120.72 46.3254L117.163 48.1909L117.84 44.2343L114.965 41.4258L118.942 40.8518L120.72 37.2489L122.499 40.8518L126.476 41.4258L123.595 44.2343L124.277 48.1909L120.72 46.3254Z" fill="#F7B313"/>
<path fill-rule="evenodd" clip-rule="evenodd" d="M20.4611 16.8819C21.9945 16.8862 23.4898 17.3601 24.7457 18.24C25.5656 16.8778 26.7878 15.8033 28.2439 15.1646C29.6999 14.5258 31.3182 14.3543 32.8758 14.6736C34.4334 14.9928 35.8537 15.7872 36.9411 16.9473C38.0284 18.1074 38.7293 19.5761 38.9472 21.1511C40.2124 21.196 41.4359 21.6151 42.463 22.3555C43.8064 22.0331 45.2176 22.1469 46.492 22.6805C47.7664 23.214 48.8378 24.1395 49.5509 25.3229H12.3789C12.5993 20.6181 16.1407 16.8819 20.4611 16.8819Z" fill="#E0EBFF"/>
<path fill-rule="evenodd" clip-rule="evenodd" d="M201.343 26.8758C202.876 26.8769 204.372 27.3492 205.627 28.2288C206.447 26.8666 207.669 25.7921 209.125 25.1533C210.582 24.5146 212.2 24.343 213.757 24.6623C215.315 24.9816 216.735 25.776 217.823 26.9361C218.91 28.0962 219.611 29.5648 219.829 31.1398C221.094 31.1863 222.317 31.6053 223.345 32.3442C224.689 32.0215 226.1 32.1357 227.375 32.6703C228.65 33.2049 229.721 34.1319 230.433 35.3168H193.266C193.466 30.612 197.022 26.8758 201.343 26.8758Z" fill="#E0EBFF"/>
<path d="M32.0766 195.505C34.6496 195.505 36.7353 193.42 36.7353 190.847C36.7353 188.274 34.6496 186.188 32.0766 186.188C29.5037 186.188 27.418 188.274 27.418 190.847C27.418 193.42 29.5037 195.505 32.0766 195.505Z" fill="#E0EBFF"/>
<path d="M20.6352 49.3491C23.2081 49.3491 25.2939 47.2634 25.2939 44.6905C25.2939 42.1176 23.2081 40.0318 20.6352 40.0318C18.0623 40.0318 15.9766 42.1176 15.9766 44.6905C15.9766 47.2634 18.0623 49.3491 20.6352 49.3491Z" stroke="#E0EBFF" stroke-width="2" stroke-miterlimit="10"/>
<path d="M191.908 0.256226L182.027 17.2253" stroke="#E0EBFF" stroke-width="2" stroke-miterlimit="10"/>
<path d="M51.2266 3.06989L60.9898 13.2585" stroke="#E0EBFF" stroke-width="2" stroke-miterlimit="10"/>
<path d="M67.5742 0.256226L71.8485 8.16418" stroke="#E0EBFF" stroke-width="2" stroke-miterlimit="10"/>
</g>
<defs>
<clipPath id="clip0_1321_21721">
<rect width="240.944" height="200" fill="white"/>
</clipPath>
</defs>
</svg>
