<svg width="320" height="200" viewBox="0 0 320 200" fill="none" xmlns="http://www.w3.org/2000/svg">
<g clip-path="url(#clip0_1201_19105)">
<mask id="mask0_1201_19105" style="mask-type:luminance" maskUnits="userSpaceOnUse" x="0" y="-14" width="320" height="214">
<path d="M320 -13.3333H0V200H320V-13.3333Z" fill="white"/>
</mask>
<g mask="url(#mask0_1201_19105)">
<path d="M79.0449 91.2533C79.0449 91.1217 79.1089 91.0577 79.2369 91.0613L82.8103 91.168C83.1182 91.1685 83.4235 91.2245 83.7116 91.3333C83.937 91.4169 84.1397 91.552 84.3036 91.728C84.4538 91.9037 84.5615 92.1118 84.6183 92.336C84.6845 92.5917 84.7115 92.8561 84.6983 93.12L84.6716 94.1066C84.6646 94.3708 84.6215 94.6328 84.5436 94.8853C84.4699 95.1039 84.3498 95.3041 84.1916 95.472C84.017 95.6374 83.8074 95.7614 83.5783 95.8346C83.2823 95.9208 82.9741 95.9569 82.6663 95.9413L80.7409 95.8826L80.3409 94.752H80.2929L80.2556 95.8666L78.9062 95.824L79.0449 91.2533ZM80.2929 94.6293L82.5809 94.6986C82.772 94.7181 82.9632 94.6627 83.1142 94.544C83.248 94.3749 83.3127 94.1615 83.2956 93.9466L83.3222 93.1466C83.3496 92.9315 83.2985 92.7138 83.1783 92.5333C83.0271 92.413 82.838 92.3505 82.6449 92.3573L80.4583 92.2933C80.4467 92.2872 80.4339 92.2841 80.4209 92.2841C80.4079 92.2841 80.3951 92.2872 80.3836 92.2933C80.3763 92.314 80.3763 92.3366 80.3836 92.3573L80.2929 94.6293Z" fill="#F1F1F4"/>
<path d="M86.64 93.296H86.592L86.5493 94.7253C86.5468 94.7375 86.5471 94.7502 86.5503 94.7622C86.5535 94.7743 86.5595 94.7854 86.5678 94.7947C86.5761 94.8041 86.5865 94.8113 86.5981 94.8159C86.6097 94.8206 86.6222 94.8224 86.6346 94.8213L90.6666 94.9333L90.6293 96.1706L85.3333 96C85.3069 96.0019 85.2804 95.9978 85.2558 95.9881C85.2311 95.9783 85.209 95.9631 85.1911 95.9437C85.1731 95.9242 85.1598 95.9009 85.1521 95.8756C85.1444 95.8502 85.1426 95.8235 85.1466 95.7973L85.28 91.4186C85.2774 91.3923 85.2807 91.3657 85.2898 91.3409C85.2989 91.316 85.3134 91.2935 85.3324 91.2751C85.3513 91.2566 85.3742 91.2427 85.3993 91.2343C85.4244 91.2259 85.4511 91.2233 85.4773 91.2266L90.6026 91.3866C90.7306 91.3866 90.7946 91.456 90.7893 91.5893L90.752 92.8266L89.488 93.2533H89.4346V92.6133C89.4346 92.5653 89.4346 92.544 89.3706 92.544L86.6666 92.4586C86.6548 92.4536 86.6421 92.4511 86.6293 92.4511C86.6165 92.4511 86.6038 92.4536 86.592 92.4586C86.5872 92.4797 86.5872 92.5016 86.592 92.5226V93.12L88.816 93.184V94.1546L86.9493 94.1013L86.64 93.296Z" fill="#F1F1F4"/>
<path d="M95.5819 93.2107H95.5285V92.6773C95.5285 92.624 95.5285 92.5973 95.4539 92.5973L92.9365 92.5226C92.9026 92.5161 92.8676 92.5175 92.8343 92.5268C92.801 92.536 92.7702 92.5529 92.7445 92.576C92.7053 92.622 92.6844 92.6809 92.6859 92.7413V92.8587C92.6741 92.9217 92.6876 92.9867 92.7232 93.04C92.7761 93.0748 92.8363 93.0967 92.8992 93.104L95.8485 93.6053C96.012 93.6311 96.1716 93.6777 96.3232 93.744C96.4426 93.7959 96.5497 93.8722 96.6379 93.968C96.7219 94.0633 96.7789 94.1793 96.8032 94.304C96.8381 94.4579 96.8525 94.6157 96.8459 94.7733V95.152C96.8467 95.3332 96.8178 95.5134 96.7605 95.6853C96.7096 95.8275 96.6255 95.9555 96.5152 96.0587C96.3868 96.1652 96.2352 96.2401 96.0725 96.2773C95.8558 96.327 95.6333 96.3467 95.4112 96.336L91.1445 96.208L91.1819 94.9707L94.9845 95.0827C95.1019 95.0827 95.1765 95.0826 95.2139 95.0293C95.2589 94.9655 95.2814 94.8886 95.2779 94.8107V94.6827C95.2838 94.6523 95.2836 94.6211 95.2772 94.5908C95.2708 94.5606 95.2583 94.532 95.2405 94.5067C95.1972 94.4651 95.1404 94.4405 95.0805 94.4373L92.2325 93.9893C92.0642 93.965 91.8994 93.9202 91.7419 93.856C91.6164 93.8094 91.5032 93.7346 91.4112 93.6373C91.3253 93.5451 91.2631 93.4335 91.2299 93.312C91.1922 93.164 91.1778 93.0111 91.1872 92.8587V92.5226C91.1828 92.3767 91.2074 92.2313 91.2596 92.0949C91.3118 91.9585 91.3905 91.8338 91.4912 91.728C91.7527 91.5239 92.0846 91.4318 92.4139 91.472L96.6805 91.6C96.7089 91.5979 96.7373 91.6024 96.7636 91.613C96.79 91.6235 96.8136 91.64 96.8326 91.6611C96.8517 91.6822 96.8656 91.7073 96.8735 91.7346C96.8813 91.7619 96.8828 91.7907 96.8779 91.8187L96.8459 92.8L95.5819 93.2107Z" fill="#F1F1F4"/>
<path d="M97.3711 96.384L97.5151 91.616L98.8644 91.6586L98.7204 96.4266L97.3711 96.384Z" fill="#F1F1F4"/>
<path d="M103.73 94.5334C103.735 94.4588 103.735 94.3839 103.73 94.3094C103.73 94.2347 103.73 94.1707 103.73 94.112V94.0534L105.063 94.0907L104.994 96.432C104.994 96.5547 104.935 96.6134 104.823 96.6134L101.234 96.5014C100.927 96.4987 100.622 96.4446 100.333 96.3414C100.111 96.2603 99.9119 96.126 99.7538 95.9503C99.5957 95.7745 99.4832 95.5627 99.426 95.3334C99.3623 95.0771 99.3354 94.8132 99.346 94.5494L99.378 93.568C99.3798 93.3016 99.423 93.0372 99.506 92.784C99.5737 92.5642 99.6946 92.3646 99.858 92.2027C100.03 92.0341 100.241 91.9097 100.471 91.84C100.765 91.7512 101.072 91.7151 101.378 91.7334L104.951 91.84C105.079 91.84 105.138 91.9094 105.133 92.0427L105.106 93.072L103.837 93.4934H103.783V93.0347C103.783 92.992 103.783 92.9707 103.725 92.9707L101.447 92.9014C101.338 92.8863 101.226 92.8863 101.117 92.9014C101.032 92.9184 100.955 92.9591 100.893 93.0187C100.83 93.0827 100.784 93.1616 100.759 93.248C100.727 93.3663 100.711 93.4882 100.711 93.6107L100.685 94.4534C100.654 94.667 100.706 94.8842 100.829 95.0614C100.975 95.1906 101.167 95.2575 101.362 95.248L103.623 95.312C103.671 95.312 103.698 95.312 103.698 95.2374L103.73 94.5334Z" fill="#F1F1F4"/>
<path d="M107.901 91.9307C107.969 91.9226 108.039 91.9377 108.098 91.9734C108.157 92.0092 108.202 92.0636 108.226 92.128L109.928 95.6107C109.939 95.6341 109.957 95.6542 109.978 95.6691C109.999 95.6841 110.024 95.6933 110.05 95.696H110.125C110.139 95.6987 110.154 95.698 110.167 95.6939C110.181 95.6898 110.194 95.6826 110.204 95.6727C110.215 95.6628 110.223 95.6505 110.227 95.637C110.232 95.6234 110.234 95.6089 110.232 95.5947L110.338 92.0053L111.565 92.0427L111.426 96.624C111.426 96.7467 111.362 96.8107 111.24 96.8053L109.298 96.7467C109.228 96.7508 109.158 96.736 109.096 96.704C109.04 96.6647 108.996 96.6113 108.968 96.5493L107.202 93.072C107.192 93.0476 107.175 93.0265 107.153 93.0114C107.132 92.9963 107.106 92.9877 107.08 92.9867H107.01C106.941 92.9867 106.909 93.0187 106.904 93.088L106.797 96.672L105.57 96.6347L105.709 92.0587C105.709 91.9307 105.778 91.8667 105.896 91.872L107.901 91.9307Z" fill="#F1F1F4"/>
<path d="M82.7212 85.6586C81.3829 83.4838 79.4202 81.7627 77.0892 80.72L75.8359 81.3013L78.6625 86.4266C78.4341 87.6046 77.8274 88.6757 76.9345 89.4773C75.7465 89.6487 74.5349 89.4277 73.4839 88.848L71.3505 83.392L70.0919 83.9786C69.4021 86.4294 69.4653 89.0309 70.2732 91.4453C70.2732 91.4453 70.8065 92.6773 70.8972 92.7893C71.3985 93.3653 72.6892 94.0373 75.1959 93.8826L83.8519 110.4C83.3669 111.233 83.1605 112.198 83.2628 113.156C83.365 114.114 83.7706 115.015 84.4203 115.726C85.0701 116.438 85.9301 116.923 86.8749 117.112C87.8198 117.3 88.8002 117.182 89.6733 116.774C90.5463 116.367 91.2663 115.691 91.7285 114.845C92.1906 114 92.3706 113.029 92.2423 112.074C92.114 111.119 91.6841 110.23 91.0153 109.537C90.3464 108.843 89.4735 108.381 88.5239 108.219L81.4305 91.0186C83.1159 89.2373 83.4732 87.8186 83.3452 87.024C83.1608 86.5584 82.9525 86.1027 82.7212 85.6586ZM89.8252 114.091L87.5372 115.157L85.4679 113.712L85.6865 111.195L87.9745 110.128L90.0439 111.573L89.8252 114.091Z" fill="url(#paint0_linear_1201_19105)"/>
<path d="M83.3462 87.0026C82.012 84.8251 80.0506 83.1017 77.7196 82.0586L76.4662 82.6453L79.2876 87.7653C79.0633 88.9447 78.4558 90.0171 77.5596 90.8159C76.3709 90.9873 75.1588 90.7643 74.1089 90.1813L71.9756 84.7306L70.7222 85.3173C70.0321 87.7676 70.0934 90.3688 70.8982 92.7839C70.8982 92.7839 72.8556 95.4026 75.8209 95.2159L84.4662 111.707C83.9838 112.539 83.7796 113.503 83.8834 114.46C83.9872 115.416 84.3935 116.314 85.0433 117.023C85.693 117.733 86.5522 118.216 87.4958 118.403C88.4394 118.59 89.418 118.471 90.2893 118.064C91.1605 117.656 91.8788 116.981 92.3396 116.136C92.8004 115.292 92.9797 114.322 92.8512 113.369C92.7228 112.416 92.2934 111.528 91.6256 110.836C90.9577 110.144 90.0863 109.683 89.1382 109.52L82.0396 92.3253C84.1036 90.1813 83.3462 87.0026 83.3462 87.0026ZM90.4556 115.435L88.1676 116.501L86.0982 115.056L86.3169 112.539L88.6049 111.472L90.6742 112.923L90.4556 115.435Z" fill="url(#paint1_linear_1201_19105)"/>
<path d="M71.3609 83.3895L70.1094 83.9741L70.7369 85.3174L71.9884 84.7328L71.3609 83.3895Z" fill="#E5E2FF"/>
<path d="M77.0835 80.725L75.832 81.3097L76.4596 82.653L77.7111 82.0684L77.0835 80.725Z" fill="#E5E2FF"/>
<path d="M89.8295 114.097L87.5391 115.167L88.1666 116.51L90.457 115.44L89.8295 114.097Z" fill="#E5E2FF"/>
<path d="M77.6875 96.4586L84.6688 109.867C85.2091 109.887 85.7464 109.777 86.2361 109.548C86.7258 109.319 87.1539 108.977 87.4848 108.549L81.8048 94.528C81.0192 94.5297 80.2435 94.7035 79.5322 95.037C78.8209 95.3705 78.1913 95.8558 77.6875 96.4586ZM86.9355 108.667C86.6624 108.903 86.3593 109.102 86.0342 109.259C85.7281 109.401 85.4029 109.498 85.0688 109.547L78.0822 96.4053C78.5888 95.9619 79.1541 95.5904 79.7622 95.3013C80.3087 95.0445 80.8915 94.8736 81.4902 94.7946L86.9355 108.667Z" fill="url(#paint2_linear_1201_19105)"/>
<path d="M86.935 108.667L87.4683 108.555C87.1634 109.01 86.74 109.373 86.2437 109.605C85.7474 109.838 85.1972 109.93 84.6523 109.872L85.063 109.547C85.7563 109.432 86.4043 109.127 86.935 108.667Z" fill="#E5E2FF"/>
<path style="mix-blend-mode:multiply" opacity="0.62" d="M77.6875 96.4587L78.0928 96.4053C79.0456 95.5468 80.2316 94.99 81.5008 94.8053L81.8048 94.544C81.0184 94.5373 80.2404 94.7068 79.5279 95.0399C78.8154 95.3731 78.1866 95.8615 77.6875 96.4693V96.4587Z" fill="url(#paint3_linear_1201_19105)"/>
<path style="mix-blend-mode:multiply" opacity="0.62" d="M75.8359 95.232C78.0994 94.7471 80.2248 93.7592 82.0546 92.3413L82.9613 94.5386C82.9613 94.5386 81.9319 93.52 79.6759 94.4426C77.0359 95.5093 77.1799 97.6426 77.1799 97.6426L75.8359 95.232Z" fill="url(#paint4_linear_1201_19105)"/>
<path style="mix-blend-mode:screen" opacity="0.5" d="M82.9619 94.5386C82.5562 94.2559 82.0797 94.0915 81.5859 94.064L88.3379 110.4L89.1539 109.557L82.9619 94.5386Z" fill="url(#paint5_linear_1201_19105)"/>
<path d="M82.9617 94.5387C82.9617 94.5387 82.2577 96.72 84.2897 97.7387L82.9617 94.5387Z" fill="white"/>
<path d="M184.659 200H159.592C156.968 185.429 150.867 166.469 150.867 166.469C149.384 165.589 146.488 166.672 146.488 166.672L137.325 200H114.424C113.208 179.435 124.461 156.091 124.461 156.091C124.251 155.699 124.148 155.26 124.163 154.816C124.371 154.427 124.663 154.089 125.016 153.824C125.635 153.259 126.371 152.693 126.371 152.693L169.096 152.427C169.096 152.427 169.528 152.645 170.077 152.96C171.011 153.525 172.275 154.4 172.275 155.04C172.288 155.604 172.138 156.16 171.843 156.64V156.667C180.984 173.947 184.659 200 184.659 200Z" fill="black"/>
<path style="mix-blend-mode:multiply" opacity="0.76" d="M172.269 155.051C172.283 155.615 172.133 156.17 171.837 156.651V156.677C162.941 158.688 156.173 166.992 156.173 166.992C161.005 176.272 169.069 200 169.069 200H159.592C156.968 185.429 150.867 166.469 150.867 166.469C149.384 165.589 146.488 166.672 146.488 166.672L137.325 200H131.395C133.528 186.037 139.784 168.992 139.784 168.992C133.624 161.819 124.461 156.091 124.461 156.091L123.395 155.408L124.184 154.816C128.147 158.619 140.925 163.584 141.32 163.739L125.037 153.824C125.656 153.259 126.392 152.693 126.392 152.693L169.117 152.427C169.117 152.427 169.549 152.645 170.099 152.96L158.429 159.36L172.269 155.051Z" fill="url(#paint6_linear_1201_19105)"/>
<path style="mix-blend-mode:multiply" opacity="0.76" d="M150.867 166.469L155.854 163.232L154.67 166.469L153.801 176.208L150.867 166.469Z" fill="url(#paint7_linear_1201_19105)"/>
<path style="mix-blend-mode:multiply" opacity="0.76" d="M146.487 166.672L141.292 163.733L130.172 158.725L144.332 168.085L145.175 171.44L146.487 166.672Z" fill="url(#paint8_linear_1201_19105)"/>
<path d="M160.779 66.48C160.811 66.7093 160.838 66.832 160.838 66.832C160.595 67.8527 160.299 68.8603 159.952 69.8506C159.172 72.1583 158.052 74.3369 156.63 76.3146C156.197 76.9214 155.711 77.4889 155.179 78.0106C147.398 75.568 143.563 67.9573 142.091 64.144C142.088 64.1245 142.088 64.1047 142.091 64.0853C141.808 63.3706 141.622 62.7946 141.504 62.4213C141.414 62.1226 141.371 61.9573 141.371 61.9573L141.467 61.76V61.7333C141.595 61.4666 141.723 61.2 141.84 60.9333C142.716 59.0104 143.43 57.0177 143.974 54.976C144.352 53.5786 144.555 52.5013 144.651 51.9306C144.699 51.6373 144.72 51.4773 144.72 51.4773L148.347 53.392L160.843 60.0053C160.673 61.0528 160.583 62.112 160.576 63.1733C160.576 63.84 160.576 64.4373 160.624 64.944C160.662 65.5626 160.726 66.0533 160.774 66.3733C160.77 66.4089 160.772 66.4449 160.779 66.48Z" fill="#FE9083"/>
<path d="M157.335 78.8479C156.574 79.6028 155.704 80.2392 154.754 80.7359L154.69 80.7733L154.615 80.7306C154.343 80.5653 153.415 79.9946 152.167 79.0559C148.903 76.5973 143.452 71.6266 141.895 64.9279C141.71 64.1224 141.585 63.3041 141.522 62.4799C141.522 62.2613 141.49 62.0426 141.484 61.8186C142.313 63.6659 143.304 65.4364 144.444 67.1093C146.652 70.3413 149.964 73.8666 153.922 73.8879C157.346 73.8879 159.1 71.5679 159.991 69.4079C160.316 68.6176 160.557 67.7953 160.711 66.9546C160.748 66.7626 160.775 66.5919 160.802 66.4479C160.802 66.3733 160.802 66.3093 160.828 66.2506C160.86 66.0106 160.871 65.8719 160.871 65.8719C160.871 65.8719 162.135 74.0106 157.335 78.8479Z" fill="url(#paint9_linear_1201_19105)"/>
<path style="mix-blend-mode:multiply" opacity="0.5" d="M157.336 78.848C156.575 79.6028 155.705 80.2393 154.755 80.736H154.611C154.339 80.5706 153.411 80 152.163 79.0613C148.899 76.6026 143.448 71.632 141.891 64.9333C141.706 64.1277 141.581 63.3095 141.518 62.4853C141.518 62.2666 141.486 62.048 141.48 61.824C142.309 63.6713 143.3 65.4417 144.44 67.1146C144.44 67.1146 146.574 73.0346 151.256 75.968C153.592 77.4346 155.363 77.2213 156.664 76.3573C157.85 75.4607 158.763 74.2534 159.304 72.8693C159.716 71.9288 159.948 70.9193 159.987 69.8933C159.987 69.7155 159.987 69.5555 159.987 69.4133C160.312 68.6229 160.554 67.8007 160.707 66.96C160.744 66.768 160.771 66.5973 160.798 66.4533C160.798 66.3786 160.798 66.3146 160.824 66.256C160.856 66.016 160.867 65.8773 160.867 65.8773C160.867 65.8773 162.136 74.0106 157.336 78.848Z" fill="url(#paint10_linear_1201_19105)"/>
<path d="M187.264 127.216L187.179 127.259C186.742 127.312 185.382 127.013 183.6 125.472C182.107 124.165 180.315 121.984 178.528 118.411C174.955 111.269 173.931 106.501 173.766 105.669V105.541L171.68 108.848C170.267 113.115 167.59 130.688 167.638 131.445C167.686 132.203 170.011 135.893 169.963 136.347C169.899 136.805 168.854 137.813 168.555 138.912C168.352 139.643 169.771 141.947 170.768 143.669C171.169 144.256 171.478 144.899 171.686 145.579C171.686 146.384 169.158 150.325 169.158 150.325V152.459L169.12 152.496L169.003 152.603L168.907 152.683C167.947 153.44 163.878 155.92 151.163 156.603C136.096 157.408 126.059 152.56 126.059 152.56L126.816 150.485C126.816 150.485 126.112 149.883 126.059 149.579C126.006 149.275 126.592 148.565 126.592 148.565C126.592 148.565 125.078 147.76 125.078 146.747C125.078 145.733 128.112 142.608 128.011 139.925C127.91 137.243 125.584 134.875 125.28 133.36C124.976 131.845 129.222 128.107 129.222 128.107C125.584 116.587 124.875 101.125 124.875 101.125L124.123 100.267C124.123 100.267 119.776 110.171 115.835 115.019C115.366 115.595 114.87 116.165 114.358 116.715C113.288 117.869 112.155 118.964 110.966 119.995C108.235 122.373 105.755 123.936 105.126 123.813C104.112 123.611 100.07 115.627 100.256 107.44C100.342 103.547 102.688 99.1894 105.126 95.7067C105.387 95.3334 105.659 94.9654 105.915 94.6081C107.209 92.8478 108.605 91.165 110.096 89.5681C110.406 89.2374 110.582 89.0614 110.582 89.0614C110.582 89.0614 110.048 87.2747 109.648 85.7227C109.642 85.6848 109.633 85.6474 109.622 85.6107C109.624 85.593 109.624 85.5751 109.622 85.5574C109.623 85.545 109.623 85.5325 109.622 85.5201C109.398 84.5654 109.259 83.7387 109.387 83.5361C109.723 83.0027 111.68 82.3894 112.016 81.9894C112.352 81.5894 113.766 74.7787 114.843 74.0374C115.92 73.2961 117.696 72.8107 123.76 70.4267L124.683 70.064C131.483 67.3707 138.155 64.1014 138.155 64.1014L140.715 60.9547H141.856L141.483 61.7547V61.7814C141.664 62.592 141.872 63.3814 142.107 64.1121C142.104 64.1315 142.104 64.1513 142.107 64.1707C145.6 75.2747 154.667 78.8534 154.667 78.8534C160.96 74.2081 160.838 66.832 160.838 66.832V65.8187L162.016 66.1707L162.822 68.0907C162.822 68.0907 164.187 70.224 169.595 72.592C170.611 73.047 171.602 73.5543 172.566 74.1121C177.515 76.9227 183.019 81.2694 183.44 82.1921C183.5 82.3408 183.549 82.4942 183.584 82.6507C184.166 84.9334 185.36 93.4827 186.47 96.5174C186.939 97.9299 187.847 99.1557 189.062 100.016C189.379 100.243 189.728 100.422 190.096 100.549C190.182 101.019 190.262 101.483 190.336 101.941C192.667 116.597 188.267 126.523 187.264 127.216Z" fill="#407BFF"/>
<path style="mix-blend-mode:multiply" opacity="0.5" d="M129.225 99.6106L124.83 101.088L124.126 100.267C124.126 100.267 119.779 110.171 115.838 115.019C115.369 115.595 114.873 116.165 114.361 116.715C113.291 117.869 112.158 118.964 110.969 119.995L107.619 105.557L105.918 94.5973C107.212 92.8371 108.608 91.1542 110.099 89.5573C110.409 89.2266 110.585 89.0506 110.585 89.0506C110.585 89.0506 110.051 87.2639 109.651 85.7119C109.645 85.6741 109.636 85.6366 109.625 85.5999C109.627 85.5823 109.627 85.5643 109.625 85.5466C109.626 85.5342 109.626 85.5217 109.625 85.5093C109.401 84.5546 109.262 83.7279 109.39 83.5253C109.726 82.9919 111.683 82.3786 112.019 81.9786C112.355 81.5786 113.769 74.7679 114.846 74.0266C114.846 74.0266 114.142 80.5599 117.881 88.8479L119.699 91.4079L125.033 95.6746C125.033 95.6746 127.022 98.3786 129.225 99.6106Z" fill="url(#paint11_linear_1201_19105)"/>
<path d="M116.507 111.429C115.563 118.432 105.125 123.824 105.125 123.824C102.8 123.824 100.203 119.781 97.8453 114.795C95.488 109.808 95.344 95.4827 95.2213 94.5974C95.0987 93.712 93.7813 91.9307 93.7013 91.184C93.6213 90.4374 95.8347 88.8587 95.8347 88.8587V88.8214V88.784C95.6053 88.2934 94.3147 85.5254 94.4053 85.0187C94.496 84.512 96.976 83.2534 96.976 83.2534L97.1307 85.9787C97.1307 85.9787 102.88 84.912 104.827 80.4374L105.168 79.072L106.128 79.712V85.5787C106.128 85.5787 106.325 86.4907 106.629 86.4907C106.933 86.4907 109.173 85.3707 109.643 85.5254C110.112 85.68 110.581 88.816 111.211 89.216C111.84 89.616 113.504 90.784 113.755 91.3494C113.88 92.08 113.925 92.8223 113.888 93.5627C113.859 94.8004 113.933 96.0383 114.107 97.264C114.421 98.8107 117.451 104.421 116.507 111.429Z" fill="#407BFF"/>
<path d="M211.971 105.429C211.502 106.171 209.144 107.723 208.536 108.331C207.928 108.939 208.536 110.928 208.536 110.928C202.39 117.49 195.204 122.993 187.267 127.216L187.182 127.259C180.963 123.077 181.496 116.192 183.56 110.389C184.924 106.713 186.775 103.237 189.064 100.053C190.076 99.63 191.137 99.3361 192.222 99.1787C192.64 99.1687 193.05 99.296 193.39 99.5414C194.147 100.011 194.787 100.752 195.406 100.443C196.318 99.984 198.355 95.168 199.736 95.0347C200.702 94.944 202.04 95.9254 202.936 96.4854C203.326 96.7307 203.63 96.896 203.779 96.8534C204.312 96.72 206.003 94.6614 206.142 94.608C206.28 94.5547 207.059 95.1414 207.059 95.1414L206.526 95.824C207.062 98.7716 208.301 101.547 210.136 103.915L211.987 101.205C211.987 101.205 212.446 104.688 211.971 105.429Z" fill="#407BFF"/>
<path d="M160.809 66.2719C160.809 66.3413 160.809 66.4106 160.782 66.4799C160.756 66.6239 160.722 66.7663 160.681 66.9066C160.046 69.2586 157.481 71.6639 154.243 70.5066C150.707 69.2426 143.977 54.9866 143.977 54.9866L144.654 51.9413L160.654 64.9546L160.83 66.1866L160.809 66.2719Z" fill="#CB4D7A"/>
<path d="M107.618 63.664C107.618 63.664 106.642 58.272 107.085 54.2986C107.326 51.4716 107.289 48.6276 106.973 45.808C106.436 45.5863 105.834 45.5863 105.298 45.808C104.589 46.2133 102.941 50.3253 103.698 53.6266C104.455 56.928 103.869 64.8266 103.869 64.8266H102.754L100.327 61.4933L99.1486 61.152C99.1486 61.152 92.3646 67.552 92.466 71.36L93.3513 74.7466L101.709 74.4586L107.143 68.2666L107.618 63.664Z" fill="#EE8183"/>
<path d="M99.1267 61.168C99.2643 63.825 99.6464 66.4637 100.268 69.0506C100.198 69.5027 99.9669 69.9141 99.6167 70.2084C99.2665 70.5027 98.8214 70.6599 98.364 70.6506L97.9374 70.1706C97.9374 70.1706 97.6334 71.8613 96.092 71.9893L94.6254 70.5226L95.004 71.7333C94.841 72.1058 94.5721 72.4222 94.2307 72.6431C93.8894 72.864 93.4906 72.9798 93.084 72.976C93.084 72.976 90.7587 71.1573 90.6094 68.7786L92.908 66.8373V65.344L95.6334 63.424L95.6867 62.3573C96.6952 61.6385 97.8896 61.2255 99.1267 61.168Z" fill="url(#paint12_linear_1201_19105)"/>
<path style="mix-blend-mode:multiply" opacity="0.6" d="M107.2 53.1573C106.986 53.7094 106.647 54.2042 106.208 54.6027C105.492 54.946 104.731 55.1866 103.947 55.3174L103.872 64.8427H102.758L100.331 61.5094C100.331 61.5094 101.563 63.408 101.638 64.8427L100.678 65.312L99.8458 62.4587L99.4511 64.512L99.8405 67.072C101.014 66.2171 102.432 65.7644 103.883 65.7813L104.272 66.4907C104.272 66.4907 99.5685 70.3893 98.4805 72.688C98.4805 72.688 100.806 69.7334 106.112 66.4747L106.614 64.912L107.286 61.1787C107.286 61.1787 106.624 55.7813 107.2 53.1573Z" fill="url(#paint13_linear_1201_19105)"/>
<path d="M111.12 69.76C110.682 71.072 106.101 76.528 105.594 77.712C105.244 78.5946 104.973 79.5067 104.784 80.4374C102.533 85.3334 97.0664 85.9787 97.0664 85.9787L96.8157 81.584C96.8157 81.584 93.8877 79.8987 93.3917 78.976L93.3331 78.8214C93.2588 77.4748 93.2588 76.1252 93.3331 74.7787L98.4584 72.704C100.682 69.824 106.09 66.4907 106.09 66.4907L106.341 64.9814C102.458 63.072 103.109 57.296 103.765 56.5867C104.284 56.1371 104.946 55.8875 105.632 55.8827C105.632 55.8827 107.05 60.528 107.957 62.704C108.864 64.88 111.557 68.448 111.12 69.76Z" fill="url(#paint14_linear_1201_19105)"/>
<path d="M95.6744 62.3307C95.6744 62.3307 96.2451 67.6374 97.9251 70.1654C96.5115 68.1914 95.7102 65.845 95.6211 63.4187L95.6744 62.3307Z" fill="#E28183"/>
<path d="M92.8984 65.3386C92.8984 65.3386 93.4318 69.6053 96.0984 71.984C96.0984 71.984 93.7678 70.8213 92.8984 66.832V65.3386Z" fill="#E28183"/>
<path style="mix-blend-mode:multiply" opacity="0.91" d="M106.307 76.5813C106.307 76.5813 100.531 82.192 96.8398 81.584L97.0905 85.9786C98.9568 85.723 100.709 84.9321 102.135 83.7017C103.562 82.4712 104.601 80.8539 105.128 79.0453C105.453 78.1934 105.847 77.3693 106.307 76.5813Z" fill="url(#paint15_linear_1201_19105)"/>
<path d="M228.458 84.208C228.458 84.208 223.152 93.9093 216.938 96.8906H214.805L209.904 104.32C209.904 104.32 206.736 102.331 206.501 95.7866C207.155 95.0921 207.632 94.2507 207.893 93.3333C207.893 93.3333 206.144 91.9573 205.669 90.9493C205.194 89.9413 205.029 86.9066 204.693 85.6586C204.357 84.4106 201.493 81.8186 200.853 81.4826C200.213 81.1466 197.317 80.976 197.317 80.976C197.317 80.976 196.912 79.9093 197.317 79.4293C197.722 78.9493 202.234 77.168 204.693 78.8533C204.779 79.5176 204.926 80.1728 205.13 80.8106C205.402 81.4826 207.557 83.872 207.893 83.872C208.229 83.872 209.68 82.6613 210.32 81.7386C212.076 78.3993 213.633 74.9586 214.981 71.4346C214.978 71.4116 214.978 71.3883 214.981 71.3653C214.981 71.328 215.008 71.2906 215.013 71.2586C215.014 71.2356 215.014 71.2124 215.013 71.1893C215.013 71.1893 215.013 71.1893 215.013 71.1626C215.621 69.1093 219.157 65.168 221.045 64.0906C221.315 64.0495 221.59 64.1087 221.819 64.2571C222.048 64.4056 222.215 64.6329 222.288 64.896C222.288 64.896 220.773 69.2106 219.189 71.7706C218.922 72.2027 218.656 72.7093 218.336 73.2533C216.986 75.7333 215.466 78.9813 215.248 79.456L215.221 79.5146L216.064 79.9466L218.341 77.7866L220.677 75.5733L226.037 81.232L225.504 81.904L223.829 84.0373L224.677 84.192L226.65 82.0106L228.458 84.208Z" fill="url(#paint16_linear_1201_19105)"/>
<path style="mix-blend-mode:multiply" opacity="0.6" d="M227.201 86.2719L225.505 88.7626C225.505 88.7626 216.215 81.5999 214.193 80.9759C212.172 80.3519 211.431 80.7733 211.431 80.7733L209.345 83.4399C209.345 83.4399 213.185 86.8426 213.521 91.4399C213.521 91.4399 212.241 85.6479 207.895 83.8933C208.231 83.8933 209.681 82.6826 210.321 81.7599C212.078 78.4206 213.634 74.9799 214.983 71.4559C214.797 72.0534 214.827 72.6972 215.068 73.2746C215.527 74.1226 218.225 73.3226 218.385 73.2746L215.292 79.4773L215.265 79.5359L216.108 79.9679L218.385 77.8079L217.244 80.4746L225.553 81.9413L223.879 84.0746L224.727 84.2293L227.201 86.2719Z" fill="url(#paint17_linear_1201_19105)"/>
<path d="M220.726 75.552C220.726 75.552 222.326 75.3173 223.392 77.408L223.158 78.0799C223.158 78.0799 224.758 78.3893 226.256 80.944C225.162 82.6451 223.504 83.9079 221.574 84.512C221.574 84.512 220.027 84.0746 219.755 82.7626L220.059 81.92L218.848 82.832C218.848 82.832 217.398 83.2693 216.758 81.1093L220.726 75.552Z" fill="url(#paint18_linear_1201_19105)"/>
<path d="M228.946 83.536C229.019 83.026 228.932 82.5059 228.697 82.0474C228.462 81.5889 228.09 81.2146 227.634 80.976L224.434 84.512C224.492 84.8744 224.669 85.2072 224.938 85.4574C225.206 85.7077 225.551 85.8611 225.916 85.8933C225.916 85.8933 228.103 85.152 228.946 83.536Z" fill="url(#paint19_linear_1201_19105)"/>
<path style="mix-blend-mode:multiply" opacity="0.91" d="M205.672 90.9493C208.218 93.6136 211.349 95.6479 214.819 96.8907L212.472 100.443L207.581 94.2293L207.896 93.3333C207.896 93.3333 205.939 91.8613 205.672 90.9493Z" fill="url(#paint20_linear_1201_19105)"/>
<path d="M223.153 78.08C223.153 78.08 221.606 80.64 220.054 81.92L219.75 82.7626C219.75 82.7626 222.758 80.7306 223.867 78.3893C223.653 78.238 223.41 78.1327 223.153 78.08Z" fill="#E28183"/>
<path d="M211.968 105.429C211.499 106.171 209.141 107.723 208.533 108.331C207.925 108.939 208.533 110.928 208.533 110.928C202.387 117.489 195.201 122.993 187.264 127.216L187.179 127.259C186.368 127.36 182.427 126.251 178.485 118.368C174.912 111.227 173.888 106.459 173.723 105.627V105.499L174.592 104.32L175.883 89.7707L176.789 92.6987C180.224 88.5547 183.461 82.192 183.461 82.192L183.605 82.6507C184.187 84.9334 185.381 93.4827 186.491 96.5173C186.96 97.9299 187.868 99.1557 189.083 100.016C185.92 102.901 184.352 107.051 183.579 110.352C183.159 112.102 182.906 113.888 182.821 115.685C183.616 112.512 184.839 109.461 186.459 106.619C187.504 104.849 188.824 103.256 190.368 101.899C191.333 101.022 192.352 100.206 193.419 99.456C194.176 99.9253 194.816 100.667 195.435 100.357C191.275 106.603 191.376 118.965 195.285 116.608C199.195 114.251 200.085 109.248 200.085 109.248C199.163 103.152 199.435 96.2774 200.176 94.9707C201.077 94.9707 203.653 96.8107 203.803 96.768C203.615 101.002 204.706 105.194 206.933 108.8L209.157 105.36C207.219 102.101 206.184 98.3839 206.16 94.592C206.293 94.5333 207.077 95.1253 207.077 95.1253L206.544 95.808C207.072 98.7593 208.303 101.54 210.133 103.915L211.984 101.205C211.984 101.205 212.443 104.688 211.968 105.429Z" fill="#407BFF" style="mix-blend-mode:multiply"/>
<path d="M169.068 150.299V152.432L169.031 152.469L168.914 152.576L168.818 152.656C167.858 153.413 163.788 155.893 151.074 156.576C136.007 157.381 125.97 152.533 125.97 152.533L126.727 150.459C126.727 150.459 126.023 149.856 125.97 149.552C125.916 149.248 126.503 148.539 126.503 148.539C126.503 148.539 124.988 147.733 124.988 146.72C124.988 145.808 127.463 143.168 127.863 140.688C127.912 140.428 127.931 140.163 127.922 139.899C127.82 137.232 125.516 134.869 125.196 133.355C124.892 131.84 129.138 128.101 129.138 128.101C125.5 116.581 124.791 101.12 124.791 101.12L124.124 100.267C124.124 100.267 119.778 110.171 115.836 115.019C111.895 119.867 106.135 124.027 105.127 123.824C102.802 123.824 100.204 119.781 97.8471 114.795C95.4898 109.808 95.3458 95.4827 95.2231 94.5973C95.1005 93.712 93.7831 91.9307 93.7031 91.184C96.2311 95.5307 100.258 94.2507 100.258 94.2507C97.3405 94.3147 95.8258 88.8587 95.8258 88.8587V88.8213V88.784L94.4018 85.024C94.5618 85.2053 97.8951 88.9333 101.116 86.624C104.418 84.2667 106.119 79.6907 106.119 79.6907V85.5573C106.119 85.5573 106.316 86.4693 106.62 86.4693C106.335 89.5717 105.846 92.652 105.159 95.6907C103.66 102.693 101.607 109.456 101.607 109.456C101.607 109.456 107.175 106.427 109.132 98.7467C109.903 95.7453 110.239 92.6488 110.13 89.552C110.089 88.2599 109.939 86.9736 109.682 85.7067C109.675 85.6688 109.667 85.6314 109.655 85.5947C109.658 85.577 109.658 85.559 109.655 85.5413L110.188 86.6827L111.212 89.2213C112.402 99.0773 109.948 113.931 109.948 113.931C113.522 109.483 114.263 99.648 114.108 97.2587C114.039 96.1173 113.948 94.7093 113.89 93.5573C113.81 92.2987 113.756 91.344 113.756 91.344L121.068 95.7067L119.719 91.44L125.052 95.7067C125.052 95.7067 129.852 101.467 134.754 102.139C139.655 102.811 157.724 102.411 157.724 102.411C157.724 102.411 142.028 103.419 137.458 104.768C132.887 106.117 132.002 107.664 132.002 107.664C135.314 124.512 153.644 130.192 154.215 130.363C137.586 127.867 129.847 113.728 129.847 113.728C129.847 113.728 129.575 121.68 130.855 124.709C132.135 127.739 139.682 135.152 149.383 136.699C150.183 136.824 150.99 136.906 151.799 136.944C159.98 137.328 166.732 133.147 167.447 132.677L167.506 132.64C167.244 133.04 163.89 137.755 150.343 138.272C149.522 138.304 148.743 138.299 147.943 138.272C135.388 137.739 128.994 129.381 128.994 129.381C128.994 129.381 124.348 131.877 127.314 135.579L127.41 135.696C128.284 136.704 130.21 137.936 132.487 139.205L132.674 139.312C135.426 140.832 138.652 142.4 141.148 143.696H141.186C142.386 144.285 143.547 144.949 144.663 145.685C145.367 146.219 145.511 146.528 144.823 146.608C141.319 147.013 128.05 144.117 127.511 144.923C126.972 145.728 128.167 147.819 128.167 147.819C140.348 153.856 166.412 150.88 167.234 150.789C145.335 156.427 127.468 149.333 127.468 149.333L128.06 151.424C134.915 153.606 142.039 154.83 149.228 155.061C160.684 155.328 167.826 152.395 167.826 152.395L169.068 150.299Z" fill="#407BFF" style="mix-blend-mode:multiply"/>
<path style="mix-blend-mode:multiply" opacity="0.5" d="M160.168 102.331C160.168 102.331 168.84 102.805 174.568 104.32L171.619 108.8C168.192 106.016 164.321 103.829 160.168 102.331Z" fill="url(#paint21_linear_1201_19105)"/>
<path style="mix-blend-mode:multiply" opacity="0.5" d="M168.272 126.245C168.272 126.245 162.859 130.763 157.536 132.848C154.189 134.129 150.67 134.902 147.094 135.141C147.094 135.141 150.155 136.048 157.68 134.837C165.206 133.627 167.814 129.547 167.814 129.547L168.272 126.245Z" fill="url(#paint22_linear_1201_19105)"/>
<path style="mix-blend-mode:multiply" opacity="0.5" d="M170.699 143.637C160.683 146.224 147.968 142.512 148.075 142.037C148.182 141.563 151.558 142.24 159.387 140.672C166.976 139.152 169.728 136.453 169.894 136.288C169.83 136.747 168.784 137.755 168.486 138.853C168.283 139.611 169.702 141.915 170.699 143.637Z" fill="url(#paint23_linear_1201_19105)"/>
<path style="mix-blend-mode:multiply" opacity="0.5" d="M143.496 103.691C134.963 104.56 132.638 106.944 132.638 106.944C130.232 107.248 124.83 101.077 124.83 101.077L124.126 100.267C124.126 100.267 119.779 110.171 115.838 115.019C115.368 115.595 114.872 116.165 114.36 116.715L114.92 115.456C114.92 115.456 115.838 115.019 116.104 110.203C116.371 105.387 114.083 98.2133 114.067 97.2373C114.051 96.2613 113.715 91.3226 113.715 91.3226L121.027 95.6853L119.678 91.4186L125.011 95.6853C125.011 95.6853 127.096 98.8213 132.36 101.435C137.315 103.915 142.883 103.717 143.496 103.691Z" fill="url(#paint24_linear_1201_19105)"/>
<path style="mix-blend-mode:multiply" opacity="0.5" d="M124.125 100.267L129.224 99.6C131.171 100.784 133.22 101.793 135.346 102.613L131.938 107.643C131.938 107.643 133.293 114.811 137.176 118.843C137.176 118.843 126.872 113.12 125.442 108.309L124.125 100.267Z" fill="url(#paint25_linear_1201_19105)"/>
<path style="mix-blend-mode:multiply" opacity="0.5" d="M94.3711 85.0241L95.8271 88.8588C95.8271 88.8588 97.3098 94.0321 100.259 94.2508C103.208 94.4695 106.088 85.5735 106.088 85.5735V79.7068C106.088 79.7068 102.952 86.4268 99.5658 87.1735C96.1791 87.9201 94.3711 85.0241 94.3711 85.0241Z" fill="url(#paint26_linear_1201_19105)"/>
<path style="mix-blend-mode:multiply" opacity="0.5" d="M112 81.9893C112 81.9893 114.629 87.2427 117.867 88.8587C117.867 88.8587 114.021 79.5254 114.832 74.0374C114.821 74.0374 113.408 74.9173 112 81.9893Z" fill="url(#paint27_linear_1201_19105)"/>
<path style="mix-blend-mode:multiply" opacity="0.76" d="M175.861 89.7706L176.768 92.6986L177.685 116.725C175.992 113.169 174.664 109.451 173.723 105.627L174.571 104.32C174.571 104.32 176 95.264 175.861 89.7706Z" fill="url(#paint28_linear_1201_19105)"/>
<path style="mix-blend-mode:multiply" opacity="0.5" d="M203.784 96.8427C203.784 96.8427 203.251 108.645 208.286 109.643L208.536 110.933C208.536 110.933 202.046 110.688 203.784 96.8427Z" fill="url(#paint29_linear_1201_19105)"/>
<path style="mix-blend-mode:multiply" opacity="0.3" d="M195.414 100.432C195.414 100.432 195.222 100.853 193.398 99.5306C193.398 99.5306 187.088 104 184.656 110.299C184.656 110.299 188.544 104.512 190.614 103.899C192.683 103.285 193.184 105.584 193.184 105.584C193.184 105.584 194.006 102.315 195.414 100.432Z" fill="url(#paint30_linear_1201_19105)"/>
<path style="mix-blend-mode:multiply" opacity="0.5" d="M93.7042 91.2C93.7042 91.2 96.1309 95.6746 100.68 94.2719C100.68 94.2719 97.9549 96.1066 95.2242 94.6133C95.2242 94.5973 93.5282 91.6906 93.7042 91.2Z" fill="url(#paint31_linear_1201_19105)"/>
<path style="mix-blend-mode:multiply" opacity="0.5" d="M109.601 85.52C109.601 85.52 112.94 98 104.23 107.387C106.001 106.363 107.534 104.976 108.729 103.316C109.924 101.657 110.754 99.7633 111.164 97.76C111.901 93.6161 111.356 89.3457 109.601 85.52Z" fill="url(#paint32_linear_1201_19105)"/>
<path style="mix-blend-mode:multiply" opacity="0.5" d="M169.408 75.5466C169.408 75.5466 169.035 81.1786 166.331 85.2213C163.627 89.264 158.277 91.9893 158.277 91.9893C158.277 91.9893 164.997 89.5146 168.08 86.032C171.163 82.5493 169.408 75.5466 169.408 75.5466Z" fill="url(#paint33_linear_1201_19105)"/>
<path style="mix-blend-mode:multiply" opacity="0.5" d="M135.036 67.072C135.103 70.295 135.607 73.494 136.535 76.5814C138.049 81.3814 151.207 89.7707 151.207 89.7707C151.207 89.7707 137.649 84.1334 135.02 79.072C132.391 74.0107 135.036 67.072 135.036 67.072Z" fill="url(#paint34_linear_1201_19105)"/>
<path style="mix-blend-mode:multiply" opacity="0.5" d="M162.825 68.0907C162.409 73.0507 160.899 76.5067 159.289 78.8373C157.07 82.0373 154.67 83.1307 154.67 83.1307C152.421 82.153 150.312 80.8815 148.398 79.3493C143.568 75.3923 140.001 70.1086 138.137 64.1493C141.337 71.904 146.062 76.6027 149.635 79.248C151.177 80.4371 152.864 81.4263 154.654 82.192V79.712C154.09 79.5006 153.538 79.2585 153.001 78.9867C146.707 75.8133 143.401 69.2 141.854 64.9227C141.378 63.6366 140.99 62.3198 140.691 60.9813H141.833L141.459 61.7813V61.808C141.641 62.6187 141.849 63.408 142.083 64.1387C142.08 64.1581 142.08 64.1779 142.083 64.1973C145.603 75.2747 154.67 78.8533 154.67 78.8533C160.963 74.208 160.841 66.832 160.841 66.832V65.8187L162.019 66.1707L162.825 68.0907Z" fill="url(#paint35_linear_1201_19105)"/>
<path style="mix-blend-mode:multiply" opacity="0.3" d="M200.156 95.0453C200.156 95.0453 198.444 100.629 200.065 109.323C200.065 109.323 200.87 98.3093 201.478 97.3493C202.086 96.3893 203.782 96.8426 203.782 96.8426C202.606 96.1803 201.395 95.5804 200.156 95.0453Z" fill="url(#paint36_linear_1201_19105)"/>
<path style="mix-blend-mode:multiply" opacity="0.5" d="M183.557 125.429C182.064 124.123 180.272 121.941 178.485 118.368C174.912 111.227 173.888 106.459 173.723 105.627L174.571 104.32L175.707 93.3333L176.773 92.6987C179.481 89.5241 181.734 85.9879 183.467 82.192C183.527 82.3408 183.575 82.4942 183.611 82.6507C184.192 84.9334 185.387 93.4827 186.496 96.5173C186.965 97.9299 187.873 99.1557 189.088 100.016C189.088 100.016 182.523 109.755 182.203 116.704C181.893 123.051 183.301 125.109 183.557 125.429Z" fill="url(#paint37_linear_1201_19105)"/>
<path style="mix-blend-mode:multiply" opacity="0.5" d="M144.576 145.739C144.576 145.739 132.741 143.797 127.909 140.683C127.957 140.423 127.977 140.158 127.968 139.893C127.866 137.227 125.562 134.864 125.242 133.349C125.296 133.493 125.642 134.293 127.322 135.733C128.91 137.048 130.609 138.222 132.4 139.243L132.586 139.349C136 141.365 138.938 142.731 141.061 143.733H141.098C143.008 144.629 144.245 145.221 144.576 145.723V145.739Z" fill="url(#paint38_linear_1201_19105)"/>
<path style="mix-blend-mode:multiply" opacity="0.5" d="M169.893 136.315C169.829 136.773 168.784 137.781 168.485 138.88C168.485 138.88 164.144 143.477 148.074 142.08C148.181 141.627 151.557 142.283 159.386 140.715C166.976 139.2 169.728 136.48 169.893 136.315Z" fill="url(#paint39_linear_1201_19105)"/>
<g style="mix-blend-mode:multiply" opacity="0.5">
<path d="M172.566 74.1333L162.294 77.44L159.286 78.8373H154.668L153.014 78.9707L152.14 79.0347L149.649 79.232L148.396 79.3333L136.076 74.8747L133.868 74.096L123.734 70.4267L124.657 70.064C131.457 67.3707 138.129 64.1013 138.129 64.1013L140.689 60.9547H141.83C142.706 59.0317 143.42 57.039 143.964 54.9973L144.641 51.952C144.689 51.6587 144.71 51.4987 144.71 51.4987L148.337 53.4133L160.566 63.1947C160.566 63.8613 160.566 64.4587 160.614 64.9653L160.79 66.1973C160.822 65.9573 160.833 65.8187 160.833 65.8187L162.012 66.1707L162.817 68.0907C162.817 68.0907 164.182 70.224 169.59 72.592C170.608 73.0537 171.602 73.5682 172.566 74.1333Z" fill="#7A4AC0"/>
</g>
<path d="M164.742 64.7413C161.311 65.3059 157.79 64.7877 154.667 63.2586C149.382 60.6986 144.939 53.1253 144.667 51.2693C144.395 49.4133 146.688 44.464 146.688 40.6026C146.688 36.7413 144.806 30.16 147.968 26.5866C151.131 23.0133 165.686 22.48 170.406 27.0613C170.406 27.0613 171.867 30.7306 171.867 32.8053C171.841 33.5048 171.766 34.2016 171.643 34.8906C171.6 35.2053 171.542 35.5413 171.488 35.888C171.067 38.4 170.486 41.4666 170.758 42.8213C170.853 43.2719 170.994 43.7115 171.179 44.1333C171.76 45.4773 172.624 46.5493 172.779 47.712C172.982 49.248 170.944 60.0266 164.742 64.7413Z" fill="url(#paint40_linear_1201_19105)"/>
<path d="M146.668 39.5413C146.668 39.5413 145.361 36.2613 142.076 36.208C142.076 36.208 140.156 36.9707 139.852 38.432C139.852 38.432 140.561 43.7653 141.366 46.2133C142.172 48.6613 145.142 48.3467 145.142 48.3467C146.711 45.6971 147.254 42.5642 146.668 39.5413Z" fill="url(#paint41_linear_1201_19105)"/>
<path d="M159.27 50.3414C159.807 50.2882 160.348 50.3803 160.838 50.608C161.307 50.9654 163.024 52.6294 165.2 53.088C167.376 53.5467 168.827 51.6907 169.291 51.5947C169.755 51.4987 170.262 52.1547 170.262 52.1547C170.148 51.8763 169.967 51.6303 169.735 51.4386C169.504 51.2469 169.228 51.1155 168.934 51.056C168.934 51.056 168.475 52.8 165.323 52.2027C162.171 51.6054 160.838 50.208 160.838 50.208L160.678 49.92C160.197 50.0203 159.726 50.1612 159.27 50.3414Z" fill="url(#paint42_linear_1201_19105)"/>
<path style="mix-blend-mode:multiply" opacity="0.6" d="M154.624 34.0267L154.666 33.6907C154.666 33.6907 157.808 28.176 164.021 28.0267C170.234 27.8773 171.642 31.76 171.642 31.76L172.8 30.0213L170.176 24.688L151.914 24.3893L147.466 27.9733L146.906 36.7573L148.885 48.352L153.685 50.912L155.04 49.712C154.538 45.8293 151.653 42.2827 151.653 42.2827L153.76 40.8213C153.76 40.8213 159.162 43.4347 162.293 42.6507C162.293 42.6507 164.645 35.7973 164.506 30.7147C164.506 30.7147 156.501 31.8987 154.624 34.0267Z" fill="url(#paint43_linear_1201_19105)"/>
<path d="M154.348 34.432C154.348 34.432 154.652 32.448 158.001 31.6534C161.734 30.768 164.769 30.0214 164.769 30.0214C164.769 30.0214 164.108 32.1974 162.865 33.0134C162.865 33.0134 158.913 32.8694 156.913 33.328C154.913 33.7867 154.348 34.432 154.348 34.432Z" fill="#38368E"/>
<path d="M171.645 31.7707C171.645 31.7707 169.747 33.232 168.445 36.7147C168.445 36.7147 169.683 35.1147 170.819 35.1147C170.917 35.1118 171.015 35.1312 171.105 35.1716C171.194 35.2119 171.274 35.2721 171.337 35.3475C171.4 35.423 171.445 35.5118 171.469 35.6073C171.493 35.7027 171.495 35.8024 171.475 35.8987C171.929 34.568 171.988 33.1343 171.645 31.7707Z" fill="#38368E"/>
<path d="M155.602 40.048C155.602 40.048 155.804 35.856 159.895 34.7947C160.768 35.9815 161.32 37.3742 161.495 38.8373C161.495 38.8373 159.34 38.432 155.602 40.048Z" fill="url(#paint44_linear_1201_19105)"/>
<path d="M167.324 41.7173C167.324 41.7173 167.655 38.3787 169.57 37.1467C169.57 37.1467 170.876 38.1227 170.743 40.9173C170.743 40.9173 169.602 40.5333 167.324 41.7173Z" fill="url(#paint45_linear_1201_19105)"/>
<path d="M155.602 40.048C155.602 40.048 156.93 41.6853 160.652 42.0053C161.166 41.0214 161.388 39.9112 161.292 38.8053C161.292 38.8053 157.868 38.4853 155.602 40.048Z" fill="#FFEBED"/>
<path d="M167.324 41.7174V42.208C167.324 42.208 167.895 43.4027 169.948 43.6054C170.406 42.7767 170.654 41.8481 170.668 40.9014C170.668 40.9014 169.362 40.5707 167.324 41.7174Z" fill="#FFEBED"/>
<path d="M159.581 38.7253C158.964 39.5842 158.661 40.6294 158.723 41.6853C159.358 41.8353 160.003 41.9422 160.653 42.0053C161.217 41.0397 161.443 39.9135 161.293 38.8053C160.731 38.6844 160.153 38.6574 159.581 38.7253Z" fill="#7F9EC9"/>
<path d="M169.271 40.9547C169.271 40.9547 168.738 41.5307 168.637 43.2853C169.053 43.4654 169.496 43.5736 169.949 43.6053C170.45 42.7945 170.7 41.8539 170.669 40.9013C170.208 40.776 169.721 40.7946 169.271 40.9547Z" fill="#7F9EC9"/>
<path d="M159.27 41.808C159.27 41.808 158.934 39.5413 160.23 38.6773L161.296 38.8106C161.483 39.9197 161.255 41.0587 160.656 42.0106C160.656 42.0106 159.595 41.8826 159.27 41.808Z" fill="#38368E"/>
<path d="M169.739 40.8586C169.387 41.6806 169.15 42.5476 169.035 43.4346C169.328 43.5391 169.636 43.5967 169.947 43.6053C170.474 42.806 170.727 41.8569 170.667 40.9013C170.365 40.8191 170.048 40.8045 169.739 40.8586Z" fill="#38368E"/>
<path d="M155.602 40.048C155.602 40.048 158.076 38.608 162.295 39.4293L161.511 38.8373C160.498 38.5902 159.442 38.5706 158.42 38.7799C157.399 38.9892 156.436 39.4223 155.602 40.048Z" fill="#131163"/>
<path d="M167.324 41.7174C168.662 41.0783 170.175 40.9037 171.623 41.2214L170.668 40.5334C170.668 40.5334 169.116 40.2774 167.324 41.7174Z" fill="#131163"/>
<path d="M158.277 40.048C158.513 40.0177 158.752 40.0445 158.975 40.1262C159.198 40.2079 159.397 40.3421 159.557 40.5173C159.322 40.5822 159.072 40.5718 158.842 40.4877C158.613 40.4035 158.415 40.2498 158.277 40.048Z" fill="white"/>
<path d="M168.23 42.0054C168.23 42.0054 169.297 41.7974 169.649 42.2827C169.649 42.2827 169.068 42.6667 168.23 42.0054Z" fill="white"/>
<path d="M155.848 40.2933C157.251 41.5546 158.991 42.3793 160.856 42.6667L160.936 41.5467L160.653 42.0213C160.653 42.0213 157.693 41.8293 155.848 40.2933Z" fill="#C6659C"/>
<path d="M167.324 42.208C167.324 42.208 167.666 43.4347 170.172 43.9893L170.092 43.392L169.948 43.6053C169.948 43.6053 168.167 43.376 167.324 42.208Z" fill="#C6659C"/>
<path d="M162.293 47.1253C163.177 46.9913 164.076 46.9913 164.96 47.1253C166.677 47.328 168.613 47.7973 169.664 47.1253C169.664 47.1253 168.266 48.528 167.05 48.7253C165.834 48.9227 163.984 47.872 163.984 47.872H163.178C162.823 47.7052 162.517 47.4477 162.293 47.1253Z" fill="#CB5F7D"/>
<path d="M163.281 47.8986C163.512 47.7523 163.782 47.6814 164.055 47.696C164.407 47.7653 164.769 48.2773 164.769 48.2773C164.307 48.0433 163.799 47.914 163.281 47.8986Z" fill="#9F4A8B"/>
<path d="M169.651 47.1253C170.105 46.688 167.779 42.544 166.665 42.3947C165.55 42.2453 164.531 47.0347 164.531 47.0347C164.531 47.0347 166.078 47.2533 167.577 47.4507C169.075 47.648 169.651 47.1253 169.651 47.1253Z" fill="#FFBCAF"/>
<path style="mix-blend-mode:multiply" opacity="0.6" d="M171.314 34.0907C170.685 34.0107 168.461 36.7147 168.461 36.7147C168.461 36.7147 167.048 41.0933 167.325 42.3893C167.602 43.6853 171.058 44.3787 171.058 44.3787L171.202 44.1493C171.018 43.7275 170.876 43.2879 170.781 42.8373C170.509 41.4933 171.09 38.4267 171.512 35.904C171.596 35.5774 171.648 35.2434 171.666 34.9067C171.661 34.5067 171.602 34.1333 171.314 34.0907Z" fill="url(#paint46_linear_1201_19105)"/>
<path d="M171.2 51.872C170.491 50.3893 170.928 49.616 164.768 48.8106C156.048 47.664 155.301 50.3253 153.819 49.92C153.759 49.9025 153.7 49.8811 153.643 49.856C152.043 49.232 148.256 45.5146 148.16 40.5066C148.059 35.3013 151.547 31.6106 151.547 31.6106C150.283 30.544 149.776 27.472 151.141 26.1546C152.507 24.8373 154.832 25.1466 160.539 25.7493C166.245 26.352 166.251 26.0053 166.251 26.0053C168.064 26.4693 169.104 28.1706 169.397 28.7146C169.456 28.8213 169.483 28.8853 169.483 28.8853L170.192 28.2293C171.344 29.9378 171.896 31.981 171.76 34.0373C171.76 34.0373 174.891 27.6693 174.533 26.768C173.826 25.2611 172.964 23.8313 171.963 22.5013C171.963 22.5013 171.456 17.6533 169.941 17.6533C168.427 17.6533 161.941 19.1146 161.941 19.1146C162.381 17.9724 162.588 16.7539 162.549 15.5306L162.523 15.5573C160.389 17.4506 158.347 17.6586 155.424 19.0133C154.371 19.4547 153.435 20.1337 152.688 20.9973L152.491 21.232L152.283 21.4826C152.08 21.7386 151.872 22.016 151.621 22.2666C151.612 22.2786 151.601 22.2894 151.589 22.2986C151.325 22.5829 151.042 22.8484 150.741 23.0933C148.821 24.656 144.597 25.7013 144.091 27.36C143.584 29.0186 144.731 31.264 145.339 33.5893C145.701 35.0188 145.812 36.5006 145.664 37.968C146.937 39.8412 147.42 42.1409 147.008 44.368C146.416 47.7653 145.12 48.32 145.12 48.32C144.575 49.4443 144.407 50.714 144.64 51.9413C146.507 59.3653 154.24 63.7866 154.24 63.7866C161.109 66.3466 165.627 65.232 165.627 65.232C170.624 61.9733 172.336 51.1893 172.411 50.688C172.325 50.8266 171.397 52.2666 171.2 51.872ZM168.117 58.7466C166.907 58.544 166.651 55.4773 166.251 55.072C165.851 54.6666 163.653 54.8373 163.653 54.8373C163.653 54.8373 161.632 57.1306 160.827 57.1946C160.021 57.2586 155.707 55.5093 156.64 52.8853C157.573 50.2613 160.827 49.92 160.827 49.92C162.044 50.8505 163.506 51.4064 165.035 51.52C167.563 51.6853 168.475 51.2213 168.768 51.088C169.061 50.9546 170.699 51.6906 170.656 53.984C170.667 55.5573 169.344 58.9493 168.128 58.7466H168.117Z" fill="#263238"/>
<path d="M167.814 43.312C167.814 43.312 169.99 46.016 169.782 47.0453C169.558 48.16 167.035 48.752 167.035 48.752C167.035 48.752 169.056 48.0533 169.472 47.0453C169.112 45.7242 168.552 44.4655 167.814 43.312Z" fill="#D2726C"/>
<path style="mix-blend-mode:multiply" opacity="0.5" d="M154.234 63.7973C156.318 63.3881 158.444 63.2377 160.565 63.3493C164.378 63.504 166.565 63.52 165.621 65.2426C165.621 65.2426 160.837 66.3253 154.234 63.7973Z" fill="url(#paint47_linear_1201_19105)"/>
<path style="mix-blend-mode:multiply" opacity="0.8" d="M146.263 43.9893C146.263 43.9893 145.596 40.7893 143.97 39.232C143.524 38.779 142.973 38.4443 142.366 38.258C141.759 38.0718 141.115 38.0399 140.492 38.1653C140.492 38.1653 140.999 44.0693 141.527 45.5093C142.055 46.9493 142.866 47.328 142.866 47.328C142.092 46.5345 141.635 45.4856 141.58 44.3787C141.426 42.4267 141.378 39.6693 141.804 39.344C142.231 39.0187 143.97 40.2933 143.97 40.2933C143.503 41.022 143.204 41.8455 143.095 42.704C142.764 44.448 143.98 45.712 144.434 45.6853C144.887 45.6587 144.407 43.6693 144.487 43.0987C144.567 42.528 145.57 42.6667 146.263 43.9893Z" fill="url(#paint48_linear_1201_19105)"/>
<path style="mix-blend-mode:multiply" opacity="0.8" d="M144.636 40.0374C144.086 40.443 143.65 40.9834 143.37 41.6065C143.089 42.2295 142.974 42.9143 143.036 43.5947C143.228 45.9894 144.598 45.8827 144.604 45.3814C144.609 44.88 144.342 43.584 144.481 42.8534C144.62 42.1227 145.798 42.4534 145.798 42.4534C145.475 41.6186 145.086 40.8108 144.636 40.0374Z" fill="url(#paint49_linear_1201_19105)"/>
<path d="M172.566 74.1333C172.566 74.1333 181.756 80.8426 182.945 83.152C184.134 85.4613 184.62 92.6986 186.236 95.8346C186.236 95.8346 185.132 90.7093 184.358 86.688C183.585 82.6666 183.772 82.6133 183.34 81.632C182.908 80.6506 176.049 75.8613 172.566 74.1333Z" fill="#34C7FF"/>
<path d="M170.918 111.467C170.918 111.467 166.492 130.427 166.694 131.707C166.897 132.987 169.761 135.6 169.894 136.315C169.894 136.315 167.702 139.248 167.804 139.899C167.905 140.549 171.644 144.656 171.537 145.931C171.51 146.299 169.084 150.299 169.084 150.299C169.084 150.299 171.825 146.368 171.958 145.739C172.092 145.109 168.604 139.872 168.497 139.339C168.236 137.957 170.241 136.944 170.31 136.032C170.38 135.12 167.59 132.901 167.569 131.419C167.548 129.936 170.918 111.467 170.918 111.467Z" fill="#34C7FF"/>
<path d="M111.12 69.7599C111.12 69.7599 108.645 69.2266 107.616 67.0933C106.586 64.9599 107.258 61.8026 107.258 61.8026C108.138 63.5168 109.109 65.1831 110.165 66.7946C111.13 68.0426 111.392 69.4879 111.12 69.7599Z" fill="#FFBCAF"/>
<path opacity="0.6" d="M187.553 58.4586L189.27 107.419C189.302 108.353 189.696 109.239 190.369 109.889C191.041 110.539 191.94 110.902 192.876 110.901H277.212C278.154 110.9 279.058 110.531 279.732 109.872C280.405 109.214 280.795 108.318 280.817 107.376L281.996 57.8506C282.008 57.3678 281.923 56.8874 281.746 56.4381C281.569 55.9887 281.303 55.5795 280.965 55.2348C280.627 54.89 280.223 54.6168 279.777 54.4312C279.331 54.2457 278.852 54.1516 278.369 54.1546L191.132 54.7253C190.65 54.7285 190.173 54.8285 189.73 55.0192C189.287 55.2099 188.887 55.4876 188.553 55.8357C188.22 56.1837 187.959 56.5952 187.787 57.0458C187.616 57.4963 187.536 57.9767 187.553 58.4586Z" fill="#FF6C37"/>
<path d="M277.211 111.035H192.875C191.906 111.035 190.974 110.659 190.278 109.985C189.581 109.311 189.174 108.393 189.142 107.424L187.424 58.464C187.406 57.9622 187.489 57.4618 187.668 56.9927C187.847 56.5236 188.119 56.0956 188.468 55.7341C188.816 55.3726 189.234 55.0851 189.696 54.8889C190.159 54.6926 190.656 54.5917 191.158 54.592L278.395 54.0214C278.891 54.0234 279.382 54.1233 279.84 54.3155C280.298 54.5077 280.713 54.7884 281.062 55.1414C281.412 55.4985 281.687 55.9223 281.87 56.3877C282.053 56.8532 282.141 57.3507 282.128 57.8507L280.944 107.381C280.924 108.358 280.521 109.287 279.823 109.97C279.125 110.653 278.188 111.035 277.211 111.035ZM278.4 54.288L191.168 54.8587C190.704 54.862 190.244 54.9584 189.817 55.1424C189.39 55.3264 189.004 55.5941 188.683 55.9297C188.361 56.2654 188.11 56.6621 187.944 57.0965C187.778 57.5309 187.701 57.9941 187.718 58.4587L189.435 107.413C189.463 108.315 189.841 109.169 190.49 109.796C191.138 110.422 192.005 110.771 192.907 110.768H277.211C278.117 110.763 278.985 110.406 279.632 109.774C280.28 109.141 280.657 108.281 280.683 107.376L281.867 57.8454C281.878 57.382 281.796 56.9212 281.626 56.4901C281.456 56.0589 281.201 55.6661 280.877 55.3346C280.553 55.0032 280.166 54.7399 279.739 54.5602C279.312 54.3804 278.853 54.2879 278.39 54.288H278.4Z" fill="#744CA2"/>
<path style="mix-blend-mode:multiply" opacity="0.6" d="M187.678 60.9546H281.902L282.051 58.3733C282.082 57.8328 282.002 57.2917 281.816 56.7833C281.63 56.275 281.342 55.8102 280.969 55.4178C280.596 55.0253 280.146 54.7136 279.648 54.5018C279.15 54.2901 278.614 54.1828 278.072 54.1866L190.872 54.8746C190.44 54.8781 190.012 54.9673 189.614 55.1372C189.217 55.307 188.856 55.5541 188.555 55.8642C188.253 56.1742 188.016 56.541 187.857 56.9433C187.698 57.3457 187.621 57.7755 187.63 58.208L187.678 60.9546Z" fill="url(#paint50_linear_1201_19105)"/>
<path style="mix-blend-mode:multiply" opacity="0.3" d="M192.418 64.9067V93.2373H221.255V64.7573L192.418 64.9067Z" fill="url(#paint51_linear_1201_19105)"/>
<g opacity="0.3">
<path d="M261.669 66.8053H249.125V79.3493H261.669V66.8053Z" fill="white" style="mix-blend-mode:multiply"/>
</g>
<g opacity="0.3">
<path d="M276.47 66.8053H263.926V79.3493H276.47V66.8053Z" fill="white" style="mix-blend-mode:multiply"/>
</g>
<g opacity="0.3">
<path d="M246.618 66.8053H234.074V79.3493H246.618V66.8053Z" fill="white" style="mix-blend-mode:multiply"/>
</g>
<path d="M276.471 86.6666H244.391V89.6693H276.471V86.6666Z" fill="white"/>
<path d="M276.478 91.2373H236.371V92.1653H276.478V91.2373Z" fill="white"/>
<path d="M244.425 80.9493H236.75V81.8773H244.425V80.9493Z" fill="white"/>
<path d="M259.237 80.9493H251.562V81.8773H259.237V80.9493Z" fill="white"/>
<path d="M274.038 80.9493H266.363V81.8773H274.038V80.9493Z" fill="white"/>
<path d="M246.976 92.752H234.074V93.6799H246.976V92.752Z" fill="white"/>
<path d="M276.478 94.2454H236.371V95.1734H276.478V94.2454Z" fill="white"/>
<path d="M276.469 95.7386H234.074V96.6667H276.469V95.7386Z" fill="white"/>
<path d="M276.469 97.2319H234.074V98.1599H276.469V97.2319Z" fill="white"/>
<path d="M276.478 103.269H236.371V104.197H276.478V103.269Z" fill="white"/>
<path d="M276.469 104.763H234.074V105.691H276.469V104.763Z" fill="white"/>
<path d="M276.469 106.256H234.074V107.184H276.469V106.256Z" fill="white"/>
<path d="M274.768 98.7253H234.074V99.6533H274.768V98.7253Z" fill="white"/>
<path d="M276.478 100.219H236.371V101.147H276.478V100.219Z" fill="white"/>
<path d="M268.426 101.712H234.074V102.64H268.426V101.712Z" fill="white"/>
<g style="mix-blend-mode:soft-light">
<path d="M200.498 87.5574C198.875 87.5584 197.287 87.0779 195.937 86.1767C194.586 85.2754 193.534 83.9938 192.911 82.4941C192.289 80.9944 192.126 79.3439 192.442 77.7513C192.758 76.1588 193.54 74.6958 194.687 73.5473C195.835 72.3989 197.298 71.6166 198.89 71.2995C200.482 70.9823 202.133 71.1446 203.633 71.7657C205.133 72.3867 206.415 73.4388 207.317 74.7887C208.22 76.1386 208.701 77.7257 208.701 79.3494C208.7 81.5249 207.835 83.611 206.297 85.1498C204.76 86.6887 202.674 87.5545 200.498 87.5574ZM200.498 71.68C198.98 71.679 197.496 72.1283 196.233 72.9712C194.97 73.8141 193.985 75.0127 193.404 76.4153C192.822 77.8178 192.67 79.3614 192.966 80.8506C193.262 82.3399 193.993 83.7079 195.066 84.7815C196.14 85.8551 197.508 86.5862 198.997 86.8821C200.486 87.1781 202.03 87.0257 203.433 86.4441C204.835 85.8626 206.034 84.8781 206.877 83.6152C207.72 82.3523 208.169 80.8677 208.168 79.3494C208.165 77.3162 207.356 75.3671 205.918 73.9294C204.481 72.4918 202.532 71.6828 200.498 71.68Z" fill="#E0FFFF"/>
</g>
<path d="M200.498 83.808C202.96 83.808 204.956 81.8117 204.956 79.3493C204.956 76.8868 202.96 74.8906 200.498 74.8906C198.035 74.8906 196.039 76.8868 196.039 79.3493C196.039 81.8117 198.035 83.808 200.498 83.808Z" fill="white"/>
<g style="mix-blend-mode:soft-light">
<path d="M221.255 72.9599C219.631 72.9599 218.044 72.4784 216.694 71.5763C215.344 70.6741 214.292 69.3919 213.671 67.8918C213.05 66.3917 212.888 64.741 213.205 63.1487C213.522 61.5563 214.304 60.0938 215.453 58.9461C216.601 57.7984 218.064 57.0171 219.657 56.701C221.249 56.3849 222.9 56.5482 224.4 57.1703C225.899 57.7923 227.181 58.8452 228.082 60.1957C228.983 61.5462 229.464 63.1337 229.463 64.7573C229.46 66.9328 228.594 69.0184 227.055 70.5562C225.517 72.094 223.43 72.9585 221.255 72.9599ZM221.255 57.0826C219.737 57.0826 218.253 57.5327 216.991 58.376C215.729 59.2193 214.745 60.418 214.164 61.8203C213.584 63.2227 213.432 64.7658 213.728 66.2545C214.024 67.7433 214.755 69.1108 215.828 70.1841C216.901 71.2574 218.269 71.9883 219.758 72.2845C221.246 72.5806 222.789 72.4286 224.192 71.8477C225.594 71.2669 226.793 70.2832 227.636 69.0211C228.479 67.759 228.93 66.2752 228.93 64.7573C228.931 63.7483 228.734 62.7489 228.349 61.8162C227.964 60.8836 227.399 60.0359 226.686 59.3217C225.973 58.6075 225.127 58.0407 224.195 57.6538C223.263 57.2668 222.264 57.0673 221.255 57.0666V57.0826Z" fill="#E0FFFF"/>
</g>
<path d="M226.592 65.3092C226.963 63.0143 225.403 60.8532 223.108 60.4823C220.813 60.1114 218.652 61.6712 218.281 63.9661C217.91 66.261 219.47 68.4221 221.765 68.793C224.06 69.1639 226.221 67.6042 226.592 65.3092Z" fill="white"/>
<g style="mix-blend-mode:soft-light">
<path d="M190.977 57.1093L191.579 56.2026L194.822 59.04L194.321 59.7333L190.977 57.1093Z" fill="white"/>
<path d="M194.903 57.1093L194.305 56.2026L191.062 59.04L191.559 59.7333L194.903 57.1093Z" fill="white"/>
</g>
<path d="M279.617 56.816H250.582V58.272H279.617V56.816Z" fill="white"/>
<path d="M97.7891 35.7974V48.4L112.856 48.528L113.064 35.392L97.7891 35.7974Z" fill="#407BFF"/>
<path d="M113.063 35.392L114.045 37.0507L113.554 48.5174L112.855 48.528L113.063 35.392Z" fill="#296BFF"/>
<path d="M100.48 40.0533L101.867 38.032L109.398 44.3467L108.24 45.888L100.48 40.0533Z" fill="white"/>
<path d="M109.589 40.0533L108.197 38.032L100.672 44.3467L101.824 45.888L109.589 40.0533Z" fill="white"/>
<path opacity="0.9" d="M132.945 184.096H81.3766C80.2732 184.095 79.2139 183.663 78.4247 182.891C77.6356 182.12 77.1791 181.071 77.1526 179.968L76.1926 137.675C76.1791 137.112 76.2784 136.552 76.4847 136.028C76.691 135.504 77 135.027 77.3937 134.624C77.7874 134.221 78.2576 133.902 78.7768 133.684C79.296 133.466 79.8535 133.354 80.4166 133.355H134.102C134.666 133.354 135.225 133.467 135.745 133.687C136.265 133.906 136.735 134.227 137.129 134.631C137.523 135.035 137.832 135.514 138.037 136.04C138.243 136.565 138.341 137.127 138.326 137.691L137.169 179.989C137.138 181.089 136.68 182.134 135.891 182.901C135.102 183.667 134.045 184.096 132.945 184.096Z" fill="#FF6C37"/>
<path d="M117.214 142.005H90.0938V143.168H117.214V142.005Z" fill="white"/>
<path d="M103.651 144.827H90.0938V145.989H103.651V144.827Z" fill="white"/>
<path d="M103.651 147.189H90.0938V148.352H103.651V147.189Z" fill="white"/>
<path d="M115.965 147.189H105.176V148.352H115.965V147.189Z" fill="white"/>
<path d="M111.955 149.547H90.0938V150.709H111.955V149.547Z" fill="white"/>
<path d="M97.8751 151.904H90.0938V153.067H97.8751V151.904Z" fill="white"/>
<path d="M112.929 158.976H99.4727V160.139H112.929V158.976Z" fill="white"/>
<path d="M114.483 154.261H90.0938V155.424H114.483V154.261Z" fill="white"/>
<path d="M108.856 156.619H90.0938V157.781H108.856V156.619Z" fill="white"/>
<path d="M98.9204 158.976H90.0938V160.139H98.9204V158.976Z" fill="white"/>
<path d="M103.651 161.333H90.0938V162.496H103.651V161.333Z" fill="white"/>
<path d="M93.9818 163.691H90.0938V164.853H93.9818V163.691Z" fill="white"/>
<path d="M109.698 163.691H95.5859V164.853H109.698V163.691Z" fill="white"/>
<path d="M112.929 165.979H99.4727V167.141H112.929V165.979Z" fill="white"/>
<path d="M98.9204 165.979H90.0938V167.141H98.9204V165.979Z" fill="white"/>
<path d="M103.651 168.336H90.0938V169.499H103.651V168.336Z" fill="white"/>
<path d="M93.9818 170.699H90.0938V171.861H93.9818V170.699Z" fill="white"/>
<path d="M109.698 170.699H95.5859V171.861H109.698V170.699Z" fill="white"/>
<path d="M271.319 44.7147C271.319 45.1862 271.179 45.6471 270.917 46.0392C270.655 46.4312 270.283 46.7368 269.847 46.9172C269.411 47.0977 268.932 47.1449 268.47 47.0529C268.007 46.9609 267.582 46.7338 267.249 46.4004C266.916 46.067 266.689 45.6422 266.597 45.1798C266.505 44.7173 266.552 44.238 266.732 43.8024C266.913 43.3667 267.218 42.9944 267.61 42.7325C268.002 42.4705 268.463 42.3307 268.935 42.3307C269.567 42.3307 270.173 42.5819 270.621 43.0289C271.068 43.476 271.319 44.0824 271.319 44.7147Z" fill="#407BFF"/>
<path d="M47.9062 99.9893C47.9072 100.577 47.7338 101.152 47.4078 101.642C47.0817 102.131 46.6178 102.513 46.0748 102.738C45.5318 102.964 44.934 103.023 44.3573 102.908C43.7805 102.794 43.2507 102.511 42.8349 102.095C42.4192 101.679 42.1361 101.15 42.0217 100.573C41.9072 99.9961 41.9665 99.3983 42.192 98.8553C42.4175 98.3123 42.7991 97.8484 43.2884 97.5224C43.7778 97.1963 44.3528 97.0229 44.9408 97.0239C45.3303 97.0239 45.7159 97.1006 46.0756 97.2497C46.4354 97.3987 46.7623 97.6171 47.0376 97.8925C47.313 98.1678 47.5314 98.4947 47.6805 98.8545C47.8295 99.2143 47.9062 99.5998 47.9062 99.9893Z" fill="#FF6C37"/>
<path d="M275.931 47.0987C277.248 47.0987 278.315 46.0313 278.315 44.7147C278.315 43.398 277.248 42.3307 275.931 42.3307C274.614 42.3307 273.547 43.398 273.547 44.7147C273.547 46.0313 274.614 47.0987 275.931 47.0987Z" fill="#FF6C37"/>
<path d="M122.24 62.7894C123.171 62.7894 123.925 62.0348 123.925 61.104C123.925 60.1733 123.171 59.4187 122.24 59.4187C121.309 59.4187 120.555 60.1733 120.555 61.104C120.555 62.0348 121.309 62.7894 122.24 62.7894Z" fill="#FF6C37"/>
<path d="M235.127 137.152C236.058 137.152 236.812 136.397 236.812 135.467C236.812 134.536 236.058 133.781 235.127 133.781C234.196 133.781 233.441 134.536 233.441 135.467C233.441 136.397 234.196 137.152 235.127 137.152Z" fill="#407BFF"/>
<path d="M59.9181 153.776C60.7487 153.776 61.4221 153.103 61.4221 152.272C61.4221 151.441 60.7487 150.768 59.9181 150.768C59.0874 150.768 58.4141 151.441 58.4141 152.272C58.4141 153.103 59.0874 153.776 59.9181 153.776Z" fill="#407BFF"/>
<path opacity="0.73" d="M85.597 137.477H59.5703C58.5669 137.477 57.6026 137.088 56.8798 136.392C56.1569 135.696 55.7316 134.747 55.693 133.744L55.1117 116.629C55.0938 116.108 55.181 115.589 55.368 115.102C55.5551 114.616 55.8383 114.172 56.2006 113.797C56.563 113.422 56.9971 113.124 57.477 112.921C57.957 112.718 58.473 112.613 58.9943 112.613H86.125C86.6444 112.614 87.1585 112.718 87.6368 112.921C88.115 113.124 88.5478 113.421 88.9093 113.794C89.2709 114.167 89.5539 114.608 89.7416 115.093C89.9294 115.577 90.018 116.094 90.0023 116.613L89.469 133.733C89.4331 134.737 89.0097 135.688 88.2877 136.386C87.5658 137.084 86.6013 137.475 85.597 137.477Z" fill="#407BFF"/>
<path d="M66.5097 118.741L60.0938 126.181L66.6324 131.728V128.864L62.8511 125.589L66.3604 121.621L66.5097 118.741Z" fill="white"/>
<path d="M77.7862 119.077L84.2075 126.512L77.6689 132.059V129.2L81.4502 125.925L77.2422 121.472L77.7862 119.077Z" fill="white"/>
<path d="M67.9102 131.728L73.4995 119.408H76.1288L69.7928 131.728H67.9102Z" fill="white"/>
<path opacity="0.73" d="M260.704 172.704H228.144C226.884 172.705 225.673 172.215 224.767 171.34C223.862 170.464 223.332 169.27 223.29 168.011L222.565 146.597C222.544 145.946 222.653 145.296 222.888 144.688C223.122 144.08 223.477 143.525 223.93 143.056C224.383 142.587 224.926 142.215 225.526 141.96C226.127 141.705 226.772 141.574 227.424 141.573H261.36C262.01 141.574 262.654 141.705 263.253 141.958C263.852 142.212 264.395 142.583 264.848 143.05C265.301 143.517 265.655 144.07 265.891 144.677C266.126 145.283 266.238 145.931 266.218 146.581L265.562 168C265.522 169.262 264.993 170.458 264.086 171.336C263.179 172.214 261.966 172.705 260.704 172.704Z" fill="#407BFF"/>
<g style="mix-blend-mode:multiply">
<path d="M258.912 145.019H229.094V162.731H258.912V145.019Z" fill="#D1D4FB"/>
</g>
<path d="M241.363 149.413V158.336L248.985 153.467L241.363 149.413Z" fill="white"/>
<g style="mix-blend-mode:multiply">
<path d="M258.912 165.995H229.094V167.616H258.912V165.995Z" fill="#D1D4FB"/>
</g>
<path d="M236.811 165.995H229.094V167.616H236.811V165.995Z" fill="white"/>
<path fill-rule="evenodd" clip-rule="evenodd" d="M207.246 139.424L205.694 143.872C206.552 141.413 207.79 139.819 207.246 139.424ZM205.694 143.872L204.131 148.325C204.526 148.208 204.83 146.336 205.694 143.872ZM207.246 139.424L205.694 143.872C206.552 141.413 207.79 139.819 207.246 139.424ZM205.694 143.872L204.131 148.325C204.526 148.208 204.83 146.336 205.694 143.872ZM210.184 147.733L211.699 148.587L213.331 144.133L211.582 143.84C211.614 143.675 211.64 143.509 211.662 143.349C211.784 142.615 211.834 141.87 211.811 141.125L213.64 139.979L212.803 136.053L211.048 137.733C210.814 137.253 210.506 136.812 210.136 136.427C210.042 136.32 209.94 136.221 209.832 136.128L210.899 133.653L208.046 132.725L207.363 135.221C206.694 135.232 206.036 135.387 205.432 135.675L205.118 133.317L201.976 135.691L202.702 137.781C202.108 138.464 201.595 139.212 201.171 140.011L199.656 139.157L198.024 143.611L199.774 143.904C199.594 144.797 199.518 145.708 199.544 146.619L197.715 147.765L198.547 151.691L200.302 150.016C200.586 150.627 200.995 151.171 201.502 151.616L200.435 154.096L203.24 155.189L203.672 153.589L203.971 152.523C204.641 152.508 205.3 152.354 205.907 152.069L206.216 154.427L209.358 152.048L208.632 149.963C209.093 149.43 209.505 148.857 209.864 148.251C209.992 148.085 210.088 147.909 210.184 147.733ZM205.694 143.872C204.83 146.336 205.694 148.869 204.131 148.325C202.568 147.781 201.998 145.339 202.862 142.885C203.726 140.432 205.688 138.875 207.246 139.424C208.803 139.973 206.552 141.413 205.694 143.872ZM207.246 139.424L205.694 143.872C206.552 141.413 207.79 139.819 207.246 139.424ZM205.694 143.872L204.131 148.325C204.526 148.208 204.83 146.336 205.694 143.872Z" fill="url(#paint52_linear_1201_19105)"/>
<path fill-rule="evenodd" clip-rule="evenodd" d="M211.699 148.587L213.331 144.133L211.662 143.349L211.395 143.221L211.571 140.768L213.416 139.867L212.803 136.053L208.776 134.747L209.518 136.512L210.92 133.653L208.067 132.725L206.899 132.347L204.088 131.248L203.555 133.168L201.107 132.005L197.982 134.4L198.931 136.971L195.998 145.115L194.547 150.4L197.336 150.704L196.424 152.8L199.24 153.899L203.262 155.205L202.616 153.915L202.211 153.141L203.694 153.627L206.238 154.453L209.379 152.075L207.438 149.787L209.886 148.277L211.699 148.587ZM202.862 142.885C203.726 140.427 205.688 138.875 207.246 139.424L205.694 143.872L204.131 148.325C202.568 147.776 201.998 145.339 202.862 142.885Z" fill="url(#paint53_linear_1201_19105)"/>
<path fill-rule="evenodd" clip-rule="evenodd" d="M207.672 147.275L209.304 142.821L207.555 142.528C207.73 141.636 207.809 140.728 207.79 139.819L209.603 138.667L208.766 134.741L207.011 136.416C206.728 135.804 206.319 135.259 205.811 134.816L206.878 132.341L204.067 131.243L203.336 133.909C202.668 133.921 202.01 134.074 201.406 134.357L201.096 132.005L197.982 134.4L198.702 136.491C198.108 137.175 197.595 137.925 197.171 138.725L195.656 137.872L194.03 142.325L195.779 142.619C195.598 143.51 195.519 144.419 195.544 145.328L193.715 146.475L194.547 150.4L196.302 148.725C196.587 149.336 196.996 149.88 197.502 150.325L196.435 152.8L199.246 153.893L199.971 151.227C200.641 151.213 201.301 151.059 201.907 150.773L202.216 153.131L205.358 150.752L204.632 148.667C205.226 147.982 205.739 147.233 206.163 146.432L207.672 147.275ZM200.104 147.013C198.542 146.48 197.971 144.027 198.835 141.573C199.699 139.12 201.662 137.563 203.224 138.112C204.787 138.661 205.358 141.093 204.494 143.552C203.63 146.011 201.667 147.557 200.104 147.013Z" fill="#407BFF"/>
<g style="mix-blend-mode:multiply" opacity="0.5">
<path fill-rule="evenodd" clip-rule="evenodd" d="M213.64 139.979L209.618 138.672L207.789 139.819L211.81 141.125L213.64 139.979Z" fill="#601734"/>
</g>
<g style="mix-blend-mode:soft-light">
<path fill-rule="evenodd" clip-rule="evenodd" d="M209.377 152.053L205.35 150.741L204.625 148.656L208.652 149.968L209.377 152.053Z" fill="#B3D9FF"/>
</g>
<g style="mix-blend-mode:multiply" opacity="0.5">
<path fill-rule="evenodd" clip-rule="evenodd" d="M205.832 134.821L208.035 135.461L208.781 134.747L210.248 135.221L210.925 133.653L206.904 132.341L205.832 134.821Z" fill="#601734"/>
</g>
<g style="mix-blend-mode:multiply" opacity="0.5">
<path fill-rule="evenodd" clip-rule="evenodd" d="M199.965 151.216L202.072 152.09L201.901 150.762C201.308 151.084 200.639 151.24 199.965 151.216Z" fill="#601734"/>
</g>
<g style="mix-blend-mode:multiply" opacity="0.5">
<path fill-rule="evenodd" clip-rule="evenodd" d="M200.289 139.147L203.841 141.024C204.105 140.666 204.411 140.342 204.753 140.059C204.753 140.059 203.825 136.144 200.289 139.147Z" fill="#601734"/>
</g>
<path d="M118.822 6.37866L122.24 13.232L119.958 14.272L116.758 7.97866L118.822 6.37866Z" fill="#FF6C37"/>
<path d="M41.7812 166.027L44.9493 169.504L46.1919 168.069L43.1999 164.779L41.7812 166.027Z" fill="#FF6C37"/>
<path d="M202.731 48.1974L199.536 50.1333L198.262 47.7067L201.744 45.6747L202.731 48.1974Z" fill="#407BFF"/>
<path d="M218.433 170.709L213.862 173.957L212.582 171.536L217.019 168.944L218.433 170.709Z" fill="#FF6C37"/>
<path fill-rule="evenodd" clip-rule="evenodd" d="M212.394 31.6267L211.621 13.6747H235.125L234.16 31.5733L212.394 31.6267Z" fill="#FF6C37"/>
<path fill-rule="evenodd" clip-rule="evenodd" d="M211.622 13.6747L210.918 14.7307L211.622 31.6267H212.395L211.622 13.6747Z" fill="#FF642C"/>
<path d="M219.424 17.2587L215.738 16.864L216.24 29.1627L219.424 28.8533V27.5787L217.578 27.6213L217.37 18.1387L219.424 18.1973V17.2587Z" fill="white"/>
<path d="M226.977 17.2587L230.667 16.864L230.161 29.1627L226.977 28.8533V27.5787L228.822 27.6213L229.035 18.1387L226.977 18.1973V17.2587Z" fill="white"/>
<path fill-rule="evenodd" clip-rule="evenodd" d="M50.3215 70.9226L50.8495 58.6826H34.8281L35.4841 70.8853L50.3215 70.9226Z" fill="#407BFF"/>
<path fill-rule="evenodd" clip-rule="evenodd" d="M50.8483 58.6826L51.3283 59.408L50.8483 70.9226H50.3203L50.8483 58.6826Z" fill="#296BFF"/>
<path d="M44.6799 61.1467C45.3687 61.107 46.0597 61.132 46.7439 61.2213C47.0532 61.3653 46.6639 64.2293 46.6639 64.2293L47.3626 64.8693L46.7119 65.504C46.7119 65.504 46.7439 68.4053 46.3332 68.6507C45.9226 68.896 44.5039 68.6507 44.5039 68.6507V67.9253C44.9606 67.9741 45.4222 67.9453 45.8692 67.84C46.0612 67.6853 46.0452 65.1733 46.0452 65.1733L46.3546 64.8373L46.0452 64.4693C46.0452 64.4693 46.0986 62.6613 46.0452 62.1653C46.0452 61.8347 44.6799 61.8187 44.6799 61.8187V61.1467Z" fill="white"/>
<path d="M40.6528 61.1467C39.964 61.107 39.273 61.132 38.5888 61.2213C38.2742 61.3653 38.6688 64.2293 38.6688 64.2293L37.9648 64.8693L38.6208 65.504C38.6208 65.504 38.5888 68.4053 38.9995 68.6507C39.4102 68.896 40.8235 68.6507 40.8235 68.6507V67.9253C40.3704 67.9736 39.9123 67.9447 39.4688 67.84C39.2768 67.6853 39.2928 65.1733 39.2928 65.1733L38.9835 64.8373L39.2928 64.4693C39.2928 64.4693 39.2342 62.6613 39.2928 62.1653C39.2928 61.8347 40.6582 61.8187 40.6582 61.8187L40.6528 61.1467Z" fill="white"/>
<path d="M185.527 33.2427L181.602 22.9653L191.783 25.0987L185.527 33.2427ZM182.023 23.328L185.602 32.704L191.308 25.2693L182.023 23.328Z" fill="#FF6C37"/>
<path d="M217.298 173.095L213.855 177.821L214.071 177.979L217.514 173.253L217.298 173.095Z" fill="#FF6C37"/>
<path d="M181.293 135.552L177.586 130.939L177.794 130.773L181.501 135.387L181.293 135.552Z" fill="#FF6C37"/>
<path d="M66.9779 167.936L59.5859 162.571L59.7406 162.357L67.1379 167.723L66.9779 167.936Z" fill="#407BFF"/>
<path d="M66.0207 161.435L60.4844 168.703L60.6965 168.864L66.2328 161.597L66.0207 161.435Z" fill="#407BFF"/>
<path d="M50.3819 86.5147L50.2578 86.7507L55.0451 89.2663L55.1692 89.0302L50.3819 86.5147Z" fill="#FF6C37"/>
<path d="M238.963 24.7307L238.766 24.5547L244.296 18.2454L244.494 18.4214L238.963 24.7307Z" fill="#407BFF"/>
<path d="M131.512 39.9904L131.273 40.1091L133.746 45.08L133.985 44.9612L131.512 39.9904Z" fill="#FF6C37"/>
<path d="M98.5058 123.635L92.1484 128.953L92.3195 129.157L98.6769 123.84L98.5058 123.635Z" fill="#407BFF"/>
</g>
</g>
<defs>
<linearGradient id="paint0_linear_1201_19105" x1="89.4884" y1="117.568" x2="73.5418" y2="83.0167" gradientUnits="userSpaceOnUse">
<stop stop-color="#DBCCFF"/>
<stop offset="1" stop-color="#D1BBFF"/>
</linearGradient>
<linearGradient id="paint1_linear_1201_19105" x1="90.1073" y1="118.919" x2="74.1607" y2="84.3681" gradientUnits="userSpaceOnUse">
<stop stop-color="#B5A6E7"/>
<stop offset="1" stop-color="#7760BF"/>
</linearGradient>
<linearGradient id="paint2_linear_1201_19105" x1="86.1424" y1="110.329" x2="79.4201" y2="95.7637" gradientUnits="userSpaceOnUse">
<stop stop-color="#B5A6E7"/>
<stop offset="1" stop-color="#7760BF"/>
</linearGradient>
<linearGradient id="paint3_linear_1201_19105" x1="77.487" y1="97.0092" x2="81.6221" y2="95.1008" gradientUnits="userSpaceOnUse">
<stop stop-color="#8B8BE0"/>
<stop offset="1" stop-color="#A177B7"/>
</linearGradient>
<linearGradient id="paint4_linear_1201_19105" x1="79.9972" y1="97.0159" x2="78.8413" y2="94.5116" gradientUnits="userSpaceOnUse">
<stop stop-color="white"/>
<stop offset="1" stop-color="#A177B7"/>
</linearGradient>
<linearGradient id="paint5_linear_1201_19105" x1="89.0164" y1="110.803" x2="81.6065" y2="94.7487" gradientUnits="userSpaceOnUse">
<stop/>
<stop offset="1" stop-color="white"/>
</linearGradient>
<linearGradient id="paint6_linear_1201_19105" x1="147.821" y1="200" x2="147.821" y2="152.421" gradientUnits="userSpaceOnUse">
<stop stop-color="#CCCCFF"/>
<stop offset="1" stop-color="#755CBB"/>
</linearGradient>
<linearGradient id="paint7_linear_1201_19105" x1="153.363" y1="176.213" x2="153.363" y2="163.232" gradientUnits="userSpaceOnUse">
<stop stop-color="#CCCCFF"/>
<stop offset="1" stop-color="#755CBB"/>
</linearGradient>
<linearGradient id="paint8_linear_1201_19105" x1="138.327" y1="171.44" x2="138.327" y2="158.725" gradientUnits="userSpaceOnUse">
<stop stop-color="#CCCCFF"/>
<stop offset="1" stop-color="#755CBB"/>
</linearGradient>
<linearGradient id="paint9_linear_1201_19105" x1="151.223" y1="80.7733" x2="151.223" y2="61.7813" gradientUnits="userSpaceOnUse">
<stop stop-color="#D5CDF8"/>
<stop offset="1" stop-color="#F3EDFB"/>
</linearGradient>
<linearGradient id="paint10_linear_1201_19105" x1="141.448" y1="71.2586" x2="161" y2="71.2586" gradientUnits="userSpaceOnUse">
<stop stop-color="#CCCCFF"/>
<stop offset="1" stop-color="#755CBB"/>
</linearGradient>
<linearGradient id="paint11_linear_1201_19105" x1="105.918" y1="97.0239" x2="129.225" y2="97.0239" gradientUnits="userSpaceOnUse">
<stop stop-color="#CCCCFF"/>
<stop offset="1" stop-color="#755CBB"/>
</linearGradient>
<linearGradient id="paint12_linear_1201_19105" x1="95.4254" y1="72.9706" x2="95.4254" y2="61.168" gradientUnits="userSpaceOnUse">
<stop offset="0.02" stop-color="#FFC2A9"/>
<stop offset="1" stop-color="#FF9595"/>
</linearGradient>
<linearGradient id="paint13_linear_1201_19105" x1="102.859" y1="72.688" x2="102.859" y2="53.1573" gradientUnits="userSpaceOnUse">
<stop stop-color="#FFEADB"/>
<stop offset="0.99" stop-color="#C27CB6"/>
</linearGradient>
<linearGradient id="paint14_linear_1201_19105" x1="102.224" y1="85.9787" x2="102.224" y2="55.8667" gradientUnits="userSpaceOnUse">
<stop offset="0.02" stop-color="#FFC2A9"/>
<stop offset="1" stop-color="#FF9595"/>
</linearGradient>
<linearGradient id="paint15_linear_1201_19105" x1="96.8398" y1="81.28" x2="106.307" y2="81.28" gradientUnits="userSpaceOnUse">
<stop offset="0.02" stop-color="#D1A1D6"/>
<stop offset="0.99" stop-color="#BD89C4"/>
</linearGradient>
<linearGradient id="paint16_linear_1201_19105" x1="212.8" y1="104.32" x2="212.8" y2="64.0533" gradientUnits="userSpaceOnUse">
<stop offset="0.02" stop-color="#FFC2A9"/>
<stop offset="1" stop-color="#FF9595"/>
</linearGradient>
<linearGradient id="paint17_linear_1201_19105" x1="217.559" y1="91.4186" x2="217.559" y2="71.4133" gradientUnits="userSpaceOnUse">
<stop stop-color="#FFEADB"/>
<stop offset="0.99" stop-color="#C27CB6"/>
</linearGradient>
<linearGradient id="paint18_linear_1201_19105" x1="221.504" y1="84.512" x2="221.504" y2="75.5466" gradientUnits="userSpaceOnUse">
<stop stop-color="#FFB0B0"/>
<stop offset="0.98" stop-color="#FFC2A9"/>
</linearGradient>
<linearGradient id="paint19_linear_1201_19105" x1="226.706" y1="85.8933" x2="226.706" y2="80.976" gradientUnits="userSpaceOnUse">
<stop stop-color="#FFB0B0"/>
<stop offset="0.98" stop-color="#FFC2A9"/>
</linearGradient>
<linearGradient id="paint20_linear_1201_19105" x1="205.672" y1="95.696" x2="214.819" y2="95.696" gradientUnits="userSpaceOnUse">
<stop offset="0.02" stop-color="#D1A1D6"/>
<stop offset="0.99" stop-color="#BD89C4"/>
</linearGradient>
<linearGradient id="paint21_linear_1201_19105" x1="160.168" y1="105.568" x2="174.573" y2="105.568" gradientUnits="userSpaceOnUse">
<stop stop-color="#CCEDFF"/>
<stop offset="1" stop-color="#755CBB"/>
</linearGradient>
<linearGradient id="paint22_linear_1201_19105" x1="147.094" y1="130.859" x2="168.272" y2="130.859" gradientUnits="userSpaceOnUse">
<stop stop-color="#CCEDFF"/>
<stop offset="1" stop-color="#755CBB"/>
</linearGradient>
<linearGradient id="paint23_linear_1201_19105" x1="148.075" y1="140.432" x2="170.699" y2="140.432" gradientUnits="userSpaceOnUse">
<stop stop-color="#CCEDFF"/>
<stop offset="1" stop-color="#755CBB"/>
</linearGradient>
<linearGradient id="paint24_linear_1201_19105" x1="128.606" y1="116.725" x2="128.606" y2="91.3333" gradientUnits="userSpaceOnUse">
<stop stop-color="#CCEDFF"/>
<stop offset="1" stop-color="#755CBB"/>
</linearGradient>
<linearGradient id="paint25_linear_1201_19105" x1="130.648" y1="118.859" x2="130.648" y2="99.6106" gradientUnits="userSpaceOnUse">
<stop stop-color="#CCEDFF"/>
<stop offset="1" stop-color="#755CBB"/>
</linearGradient>
<linearGradient id="paint26_linear_1201_19105" x1="100.232" y1="94.2561" x2="100.232" y2="79.7121" gradientUnits="userSpaceOnUse">
<stop stop-color="#CCEDFF"/>
<stop offset="1" stop-color="#755CBB"/>
</linearGradient>
<linearGradient id="paint27_linear_1201_19105" x1="111.995" y1="81.4507" x2="117.856" y2="81.4507" gradientUnits="userSpaceOnUse">
<stop stop-color="#CCEDFF"/>
<stop offset="1" stop-color="#755CBB"/>
</linearGradient>
<linearGradient id="paint28_linear_1201_19105" x1="175.707" y1="116.725" x2="175.707" y2="89.7706" gradientUnits="userSpaceOnUse">
<stop stop-color="#CCCCFF"/>
<stop offset="1" stop-color="#755CBB"/>
</linearGradient>
<linearGradient id="paint29_linear_1201_19105" x1="206.014" y1="110.928" x2="206.014" y2="96.8427" gradientUnits="userSpaceOnUse">
<stop stop-color="#CCCCFF"/>
<stop offset="1" stop-color="#755CBB"/>
</linearGradient>
<linearGradient id="paint30_linear_1201_19105" x1="190.038" y1="110.299" x2="190.038" y2="99.5306" gradientUnits="userSpaceOnUse">
<stop stop-color="#CCCCFF"/>
<stop offset="1" stop-color="#755CBB"/>
</linearGradient>
<linearGradient id="paint31_linear_1201_19105" x1="97.1869" y1="95.1839" x2="97.1869" y2="91.184" gradientUnits="userSpaceOnUse">
<stop stop-color="#CCEDFF"/>
<stop offset="1" stop-color="#755CBB"/>
</linearGradient>
<linearGradient id="paint32_linear_1201_19105" x1="107.868" y1="107.376" x2="107.868" y2="85.52" gradientUnits="userSpaceOnUse">
<stop stop-color="#CCCCFF"/>
<stop offset="1" stop-color="#755CBB"/>
</linearGradient>
<linearGradient id="paint33_linear_1201_19105" x1="164.091" y1="91.9893" x2="164.091" y2="75.5466" gradientUnits="userSpaceOnUse">
<stop stop-color="#CCEDFF"/>
<stop offset="1" stop-color="#755CBB"/>
</linearGradient>
<linearGradient id="paint34_linear_1201_19105" x1="142.545" y1="89.7707" x2="142.545" y2="67.072" gradientUnits="userSpaceOnUse">
<stop stop-color="#CCEDFF"/>
<stop offset="1" stop-color="#755CBB"/>
</linearGradient>
<linearGradient id="paint35_linear_1201_19105" x1="138.153" y1="72.0427" x2="162.825" y2="72.0427" gradientUnits="userSpaceOnUse">
<stop stop-color="#CCCCFF"/>
<stop offset="1" stop-color="#755CBB"/>
</linearGradient>
<linearGradient id="paint36_linear_1201_19105" x1="201.574" y1="109.323" x2="201.574" y2="95.0453" gradientUnits="userSpaceOnUse">
<stop stop-color="#CCCCFF"/>
<stop offset="1" stop-color="#755CBB"/>
</linearGradient>
<linearGradient id="paint37_linear_1201_19105" x1="181.392" y1="125.429" x2="181.392" y2="82.192" gradientUnits="userSpaceOnUse">
<stop stop-color="#CCCCFF"/>
<stop offset="1" stop-color="#755CBB"/>
</linearGradient>
<linearGradient id="paint38_linear_1201_19105" x1="134.906" y1="145.739" x2="134.906" y2="133.344" gradientUnits="userSpaceOnUse">
<stop stop-color="#CCCCFF"/>
<stop offset="1" stop-color="#755CBB"/>
</linearGradient>
<linearGradient id="paint39_linear_1201_19105" x1="158.981" y1="142.336" x2="158.981" y2="136.315" gradientUnits="userSpaceOnUse">
<stop stop-color="#CCCCFF"/>
<stop offset="1" stop-color="#755CBB"/>
</linearGradient>
<linearGradient id="paint40_linear_1201_19105" x1="158.72" y1="64.9653" x2="158.72" y2="23.7866" gradientUnits="userSpaceOnUse">
<stop offset="0.02" stop-color="#FFC2A9"/>
<stop offset="1" stop-color="#FF9595"/>
</linearGradient>
<linearGradient id="paint41_linear_1201_19105" x1="143.372" y1="48.352" x2="143.372" y2="36.208" gradientUnits="userSpaceOnUse">
<stop offset="0.02" stop-color="#FFC2A9"/>
<stop offset="1" stop-color="#FF9595"/>
</linearGradient>
<linearGradient id="paint42_linear_1201_19105" x1="164.443" y1="52.944" x2="164.95" y2="50.2934" gradientUnits="userSpaceOnUse">
<stop stop-color="#E1616A"/>
<stop offset="1" stop-color="#FF8883"/>
</linearGradient>
<linearGradient id="paint43_linear_1201_19105" x1="159.845" y1="50.912" x2="159.845" y2="24.3893" gradientUnits="userSpaceOnUse">
<stop stop-color="#FFEADB"/>
<stop offset="0.99" stop-color="#C27CB6"/>
</linearGradient>
<linearGradient id="paint44_linear_1201_19105" x1="158.556" y1="40.048" x2="158.556" y2="34.7947" gradientUnits="userSpaceOnUse">
<stop stop-color="#CF6074"/>
<stop offset="1" stop-color="#F37270"/>
</linearGradient>
<linearGradient id="paint45_linear_1201_19105" x1="169.036" y1="41.7173" x2="169.036" y2="37.1467" gradientUnits="userSpaceOnUse">
<stop stop-color="#CF6074"/>
<stop offset="1" stop-color="#FF817F"/>
</linearGradient>
<linearGradient id="paint46_linear_1201_19105" x1="169.469" y1="44.3787" x2="169.469" y2="34.0907" gradientUnits="userSpaceOnUse">
<stop stop-color="#FFEADB"/>
<stop offset="0.99" stop-color="#C27CB6"/>
</linearGradient>
<linearGradient id="paint47_linear_1201_19105" x1="160.037" y1="65.472" x2="160.037" y2="63.328" gradientUnits="userSpaceOnUse">
<stop stop-color="#776D7E"/>
<stop offset="1" stop-color="#9D68C2"/>
</linearGradient>
<linearGradient id="paint48_linear_1201_19105" x1="145.138" y1="45.472" x2="139.698" y2="38.8107" gradientUnits="userSpaceOnUse">
<stop stop-color="#FFEADB"/>
<stop offset="0.99" stop-color="#B060F4"/>
</linearGradient>
<linearGradient id="paint49_linear_1201_19105" x1="145.708" y1="44.6134" x2="143.03" y2="41.3387" gradientUnits="userSpaceOnUse">
<stop stop-color="#FFEADB"/>
<stop offset="0.99" stop-color="#B060F4"/>
</linearGradient>
<linearGradient id="paint50_linear_1201_19105" x1="187.63" y1="57.5733" x2="282.056" y2="57.5733" gradientUnits="userSpaceOnUse">
<stop stop-color="#9D68C2"/>
<stop offset="1" stop-color="#AEC2FF"/>
</linearGradient>
<linearGradient id="paint51_linear_1201_19105" x1="206.834" y1="93.2373" x2="206.834" y2="64.7573" gradientUnits="userSpaceOnUse">
<stop stop-color="#CCEDFF"/>
<stop offset="1" stop-color="#9D68C2"/>
</linearGradient>
<linearGradient id="paint52_linear_1201_19105" x1="204.946" y1="155.94" x2="208.295" y2="133.166" gradientUnits="userSpaceOnUse">
<stop stop-color="#1852A0"/>
<stop offset="1" stop-color="#067ED3"/>
</linearGradient>
<linearGradient id="paint53_linear_1201_19105" x1="202.429" y1="155.359" x2="208.496" y2="132.726" gradientUnits="userSpaceOnUse">
<stop stop-color="#1852A0"/>
<stop offset="1" stop-color="#067ED3"/>
</linearGradient>
<clipPath id="clip0_1201_19105">
<rect width="320" height="200" fill="white"/>
</clipPath>
</defs>
</svg>
