<svg width="50" height="50" viewBox="0 0 50 50" fill="none" xmlns="http://www.w3.org/2000/svg">
<g clip-path="url(#clip0_1087_21874)">
<path d="M44.8171 50H5.17929C5.17065 49.8229 5.15625 49.6674 5.15625 49.5105C5.15625 40.1685 5.15625 30.827 5.15625 21.4859C5.15625 21.1807 5.20952 20.9619 5.4816 20.7589C11.9367 15.9305 18.3876 11.0959 24.8341 6.25502C24.8874 6.21972 24.9426 6.18752 24.9996 6.15857C25.1436 6.26366 25.3134 6.37019 25.4675 6.4868C31.7729 11.2173 38.0798 15.9459 44.3881 20.6726C44.6875 20.8957 44.8329 21.1044 44.8315 21.5032C44.82 30.827 44.8171 40.1508 44.8228 49.4745L44.8171 50ZM11.1925 29.3461C11.7683 33.9687 12.3442 38.5365 12.92 43.0942H37.0634C37.6393 38.5019 38.2151 33.937 38.7809 29.3461H11.1925ZM25.8346 23.2912C28.5482 22.5383 29.4811 20.2364 29.268 18.4887C29.1526 17.4658 28.6745 16.5181 27.9204 15.8174C27.1663 15.1167 26.1862 14.7093 25.1576 14.6691C24.129 14.6289 23.12 14.9585 22.3135 15.5982C21.507 16.2379 20.9564 17.1454 20.7615 18.1562C20.3109 20.4595 21.5273 22.2964 24.2366 23.2897H23.56C22.0326 23.2897 20.5066 23.2825 18.9792 23.2897C17.8103 23.2984 16.7536 23.9995 16.5103 25.0864C16.3318 25.8882 16.3664 26.739 16.3174 27.5725H33.6084C33.6084 27.0658 33.6084 26.5864 33.6084 26.1056C33.6084 24.3478 32.546 23.2897 30.7897 23.2883C29.1457 23.2883 27.4872 23.2912 25.8346 23.2912ZM39.6158 44.8851H10.3719V46.5478H39.6173L39.6158 44.8851Z" fill="#ED893E"/>
<path d="M49.9778 18.3347L47.8731 21.1434L24.9835 3.97765L2.09399 21.1434C1.39291 20.212 0.709106 19.2993 -0.0078125 18.3448C0.136147 18.2253 0.261394 18.1087 0.399595 18.0065C8.13598 12.1992 15.8738 6.39281 23.6131 0.587403C24.6568 -0.194297 25.3003 -0.197175 26.3324 0.577327L49.5474 17.9964C49.6827 18.0972 49.8036 18.1951 49.9778 18.3347Z" fill="#ED893E"/>
<path d="M27.5693 36.2361C27.5692 36.7505 27.416 37.2533 27.1291 37.6804C26.8423 38.1075 26.4349 38.4395 25.9587 38.6342C25.4825 38.8289 24.9591 38.8775 24.4553 38.7737C23.9514 38.6699 23.4898 38.4185 23.1293 38.0515C22.7688 37.6845 22.5257 37.2184 22.431 36.7128C22.3363 36.2071 22.3942 35.6847 22.5974 35.2121C22.8007 34.7395 23.1399 34.3381 23.5721 34.059C24.0042 33.7798 24.5097 33.6357 25.0241 33.6448C25.7033 33.6569 26.3506 33.9352 26.8267 34.4199C27.3027 34.9045 27.5694 35.5567 27.5693 36.2361Z" fill="#ED893E"/>
</g>
<defs>
<clipPath id="clip0_1087_21874">
<rect width="49.9784" height="50" fill="white"/>
</clipPath>
</defs>
</svg>
