<svg width="50" height="50" viewBox="0 0 50 50" fill="none" xmlns="http://www.w3.org/2000/svg">
<g clip-path="url(#clip0_1087_21860)">
<path d="M50.0015 26.2682C49.6101 27.1148 48.9409 27.3614 48.0342 27.3562C42.9567 27.3288 37.8792 27.3431 32.8004 27.3431H32.1885C31.933 28.548 31.3819 29.6703 30.5848 30.6093C29.7878 31.5482 28.7698 32.2742 27.6224 32.722L32.6451 39.2098C33.5818 40.4178 34.5277 41.6207 35.45 42.8405C35.6405 43.0935 35.8414 43.1509 36.1402 43.1744C36.8472 43.2318 37.5843 43.2436 38.2471 43.4641C39.9535 44.0329 41.0663 45.6466 41.1172 47.4418C41.1263 47.8162 41.1328 48.1919 41.1172 48.565C41.1088 48.9443 40.9539 49.3057 40.6848 49.5732C40.4158 49.8408 40.0537 49.9938 39.6743 50.0001C39.5438 50.0066 39.4134 50.0001 39.2829 50.0001H10.7135C9.40895 50.0001 8.92364 49.4782 8.87928 48.1658C8.82058 46.4398 9.32937 44.993 10.771 43.9585C11.6842 43.3062 12.7278 43.1001 13.825 43.1757C14.1733 43.1979 14.3821 43.0753 14.5921 42.8013C17.0822 39.5642 19.5809 36.334 22.0883 33.1108C22.1757 32.9973 22.2566 32.8785 22.361 32.735C19.9684 31.6914 18.4381 29.9341 17.8119 27.3497H17.2457C12.0856 27.3497 6.9263 27.3497 1.76792 27.3497C1.52506 27.357 1.28234 27.3311 1.04648 27.2727C0.721467 27.1823 0.438696 26.9802 0.247833 26.702C0.0569703 26.4238 -0.0297807 26.0873 0.00280704 25.7515C0.0396719 25.4088 0.194521 25.0896 0.440847 24.8485C0.687173 24.6074 1.00965 24.4595 1.35306 24.43C1.53049 24.4143 1.71052 24.4235 1.88925 24.4235C17.2687 24.4235 32.6486 24.4191 48.0289 24.4104C48.9422 24.4104 49.6075 24.6504 49.9963 25.4984L50.0015 26.2682ZM31.9785 43.1405L24.9963 34.1297L18.0193 43.1405H31.9785Z" fill="#76C04F"/>
<path d="M40.2357 0C40.3531 0.0430517 40.4705 0.093931 40.5905 0.13046C41.3006 0.333377 41.9258 0.760796 42.3726 1.34873C42.8195 1.93667 43.0639 2.65351 43.0693 3.39195C43.081 4.18776 43.0693 4.98356 43.0693 5.85634H44.3321C46.5004 5.85634 47.9459 7.30053 47.9537 9.45964C47.9537 10.1889 47.9537 10.9195 47.9537 11.6775H27.3945C27.448 10.5803 27.3945 9.45964 27.5824 8.39509C27.8433 6.9509 29.2418 5.90592 30.7226 5.85765C31.2444 5.84069 31.7558 5.85765 32.3246 5.85765V3.78464C32.3246 1.77034 33.1504 0.653606 35.0851 0.0600143C35.1125 0.0521868 35.1334 0.0208736 35.1569 0H40.2357ZM40.1352 5.83547C40.1352 5.01357 40.1444 4.22168 40.1352 3.42979C40.1352 3.10234 39.92 2.93274 39.5951 2.93143C38.3279 2.93143 37.0616 2.93143 35.7961 2.93143C35.4687 2.93143 35.2743 3.11146 35.2652 3.44022C35.2547 4.23081 35.2652 5.0214 35.2652 5.83416L40.1352 5.83547Z" fill="#76C04F"/>
<path d="M12.9896 0C13.9928 0.224391 14.9556 0.521838 15.7997 1.15718C16.7256 1.84536 17.4275 2.79191 17.817 3.87784C18.2065 4.96377 18.2663 6.14062 17.9888 7.26043C17.7114 8.38024 17.1091 9.39305 16.2576 10.1715C15.4062 10.95 14.3436 11.4594 13.2035 11.6357C10.0334 12.1106 7.00929 9.95147 6.54355 6.88306C6.03998 3.57068 8.12733 0.620986 11.3484 0.0874058C11.4416 0.0646025 11.5331 0.0353995 11.6223 0H12.9896Z" fill="#76C04F"/>
<path d="M22.5161 21.4606H2.10045C1.79387 18.2474 3.57986 14.4158 6.57913 12.5333C8.22814 13.9005 10.1289 14.6441 12.2933 14.6441C14.4576 14.6441 16.3649 13.9135 18.0165 12.5385C20.7079 13.9696 22.8879 18.2878 22.5161 21.4606Z" fill="#76C04F"/>
<path d="M47.9336 14.6819C47.9336 15.9435 48.0014 17.1816 47.9166 18.4079C47.8498 19.2461 47.4687 20.0282 46.8495 20.5972C46.2304 21.1663 45.4191 21.4803 44.5782 21.4763C39.9921 21.4937 35.406 21.4937 30.8199 21.4763C29.93 21.4743 29.0768 21.1216 28.4453 20.4947C27.8138 19.8678 27.4548 19.0172 27.4462 18.1274C27.4266 16.9911 27.4462 15.8548 27.4462 14.6832L47.9336 14.6819Z" fill="#76C04F"/>
</g>
<defs>
<clipPath id="clip0_1087_21860">
<rect width="50" height="50" fill="white"/>
</clipPath>
</defs>
</svg>
