<svg width="170" height="53" viewBox="0 0 170 53" fill="none" xmlns="http://www.w3.org/2000/svg">
<g clip-path="url(#clip0_132_60)">
<path d="M128.142 7.67845C127.852 5.13978 126.382 2.80919 124.269 1.415C122.695 0.416182 120.81 -0.0832289 118.946 0.0208151C118.159 0.10405 117.393 0.249712 116.627 0.499417C116.15 0.686697 115.695 0.894784 115.239 1.14449C114.183 1.78956 113.209 2.60111 112.526 3.64155C111.614 4.9525 111.076 6.51316 111.034 8.11544C110.952 10.7998 111.656 13.4217 112.505 15.9604C113.209 17.9996 114.038 19.9973 115.011 21.9117C115.156 22.3487 115.405 22.7648 115.777 23.077C116.523 22.7024 117.207 22.2446 117.89 21.7868C118.304 21.4955 118.739 21.2042 119.174 20.9128V20.8712C120.562 19.9348 121.846 18.8528 123.089 17.7291C124.497 16.439 125.822 15.0031 126.837 13.3801C127.914 11.7154 128.411 9.65529 128.142 7.67845ZM122.964 13.8587C121.784 14.6078 120.355 14.9407 118.967 14.8367C118.615 14.7951 118.263 14.7326 117.911 14.6494C116.917 14.3373 115.985 13.7962 115.26 13.0471C112.899 10.7165 112.878 6.47154 115.363 4.22419C115.757 3.87044 116.192 3.55831 116.627 3.2878C117.372 2.89243 118.201 2.62191 119.05 2.53868C120.914 2.37221 122.84 3.07971 124.124 4.45309C124.663 5.07735 125.118 5.76404 125.388 6.55478C126.402 9.17669 125.325 12.3604 122.964 13.8587Z" fill="#D62128"/>
<path d="M169.399 41.8465C168.902 40.9101 167.494 40.9725 166.852 41.7424C165.713 43.095 164.615 44.51 163.248 45.6337C161.736 46.8614 159.644 47.0903 157.78 46.7574C156.372 46.5077 155.171 45.5088 154.508 44.2603C156.848 43.6568 159.168 42.9285 161.301 41.7841C163.186 40.806 164.884 39.3494 165.92 37.4558C167.1 35.3333 167.411 32.753 166.831 30.4016C166.376 28.4872 165.029 26.8225 163.269 25.9902C161.405 25.0954 159.272 25.0746 157.262 25.4075C154.011 25.9902 151.194 28.0919 149.33 30.797C146.99 34.2513 145.995 38.6003 146.617 42.7413C145.271 43.9898 143.924 45.4256 142.122 45.9666C140.507 46.4244 138.643 46.466 137.131 45.6129C135.536 44.6973 134.832 42.8453 134.521 41.1182C133.9 37.7472 134.086 34.3137 134.148 30.9219C136.592 30.9219 139.057 30.9219 141.501 30.9219C142.785 30.9011 144.111 30.7762 145.333 30.3392C146.285 29.9855 147.176 29.3404 147.549 28.3624C147.839 27.5717 147.922 26.6769 147.652 25.8653C147.466 25.2827 146.845 24.9914 146.285 25.0122C144.069 24.9914 141.874 25.0122 139.658 25.0122C143.282 21.766 146.14 17.417 146.865 12.5061C147.217 9.90499 147.342 7.0958 146.223 4.64036C145.623 3.32941 144.566 2.10169 143.137 1.72713C140.983 1.20691 138.767 1.97684 137.11 3.3086C134.604 5.32705 132.926 8.17786 131.601 11.0495C129.613 15.4193 128.474 20.1221 127.686 24.8457C126.547 24.8665 125.408 24.8457 124.29 24.8457C123.565 24.8457 122.819 25.1578 122.405 25.7821C121.763 26.7601 121.763 27.9878 121.887 29.0907C121.97 29.8398 122.488 30.5473 123.234 30.7138C124.455 31.0051 125.74 30.8386 126.982 30.8802C126.817 33.7727 126.713 36.6651 126.962 39.5575C126.609 39.7448 126.278 39.9529 126.03 40.265C124.683 41.8881 123.316 43.5112 121.784 44.9678C121.224 45.4672 120.624 45.9458 119.94 46.2163C119.257 46.4868 118.346 46.3204 117.931 45.6545C117.331 44.6973 117.351 43.5112 117.351 42.4291C117.662 37.6431 119.195 33.0444 119.795 28.3C119.878 27.4676 120.003 26.3856 119.195 25.8237C117.993 25.0746 116.461 25.1995 115.135 25.47C114.183 25.6781 113.499 26.448 113.106 27.3011C110.889 27.2179 108.673 27.1347 106.499 26.7601C107.451 24.1174 108.259 21.3914 108.777 18.6239C109.378 15.1488 109.812 11.5073 108.922 8.0322C108.363 6.09698 107.244 4.26581 105.525 3.16294C103.723 1.99765 101.466 1.85199 99.3946 2.22654C96.7435 2.68434 94.3202 4.26581 92.8912 6.57558C90.7372 9.9258 90.3851 14.0667 90.6336 17.958C90.8407 21.1625 91.9384 24.3671 94.0096 26.8642C95.0452 28.1335 96.3086 29.1947 97.6962 30.0687C96.3086 33.1276 94.6102 36.0616 92.6633 38.7876C91.1928 40.806 89.5566 42.8245 87.3198 44.0314C86.1185 44.6973 84.5858 45.0718 83.281 44.4476C81.9969 43.8025 81.2306 42.4916 80.7128 41.2014C79.8015 38.8708 79.4701 36.353 79.2009 33.8767C78.8695 30.3392 78.8073 26.7809 78.9523 23.2434C79.1594 18.4158 79.6979 13.609 80.4228 8.84374C80.6507 7.44955 80.9613 5.93051 80.2986 4.59875C79.7601 3.55831 78.5381 3.16294 77.4404 3.10051C76.2598 3.0589 74.9757 3.0797 73.9608 3.76639C72.946 4.53632 72.6353 5.86808 72.3039 7.03337C71.8483 9.25991 71.5169 11.5073 71.2683 13.7754C70.7298 18.9568 70.502 24.1798 70.647 29.4028C70.6884 32.2744 70.9577 35.1252 71.3926 37.9552C71.9104 41.1182 72.7389 44.2603 74.1887 47.1111C75.3692 49.6498 77.5232 51.8763 80.2986 52.5422C83.1775 53.2081 86.2013 52.5214 88.7903 51.1896C92.1041 49.4833 94.7552 46.7782 97.1577 43.969C99.9952 40.5355 102.336 36.6859 104.2 32.6282C106.644 33.19 109.17 33.2525 111.656 33.3357C110.931 37.5183 110.061 41.7841 110.703 46.0499C111.138 48.3804 112.07 51.0024 114.328 52.126C116.606 53.1873 119.36 53 121.577 51.8555C124.352 50.4405 126.568 48.1307 128.515 45.7169C129.364 47.881 130.731 49.9203 132.699 51.1896C135.101 52.7295 138.084 53.0208 140.838 52.7087C143.924 52.3133 146.679 50.5446 148.833 48.3596C149.972 49.8579 151.422 51.1272 153.162 51.8555C155.585 52.896 158.298 52.9792 160.866 52.6671C164.304 52.2509 167.494 50.1492 169.213 47.1319C170.145 45.5296 170.29 43.4696 169.399 41.8465ZM136.282 15.7939C136.8 13.4633 137.483 11.1327 138.581 9.01021C138.974 8.2819 139.43 7.47036 140.238 7.15823C140.942 7.03337 141.315 7.76168 141.46 8.32352C141.936 10.4252 141.625 12.6309 140.983 14.6494C139.906 18.2701 137.711 21.4955 134.853 23.9509C135.184 21.225 135.681 18.499 136.282 15.7939ZM99.9331 24.159C99.8295 24.0758 99.6431 23.9301 99.5603 23.8469C96.992 21.7036 96.205 18.1453 96.3707 14.9407C96.4742 13.0887 96.7021 11.0287 97.9862 9.59286C98.6904 8.78131 100.057 8.40676 100.969 9.09345C101.735 9.73852 101.963 10.7581 102.087 11.7154C102.46 15.565 101.424 19.373 100.327 23.0145C100.182 23.3683 100.057 23.7636 99.9331 24.159ZM155.44 32.9819C156.144 31.8999 157.325 30.9843 158.671 31.0051C159.665 30.9635 160.659 31.6918 160.846 32.6906C161.136 34.0848 160.618 35.5622 159.644 36.5819C158.091 38.3298 155.813 39.1622 153.597 39.7032C153.659 37.3518 154.094 34.938 155.44 32.9819Z" fill="#0095DA"/>
<path d="M73.5258 47.6938C71.9517 44.6765 70.7918 41.4303 70.2119 38.0593C69.632 34.8964 69.4663 31.6918 69.3213 28.5081C69.3213 27.5717 69.342 26.6353 69.3213 25.6781C66.5667 23.0562 62.6522 21.7244 58.862 22.203C55.8174 22.5568 52.835 23.8885 50.7845 26.2191C50.3496 25.7821 49.9146 25.3659 49.4383 24.9706C47.8228 23.7429 46.0209 22.7648 44.0119 22.4111C40.9051 21.7244 37.612 22.2862 34.816 23.7845C32.1442 25.1787 30.218 27.7798 29.2446 30.6098C28.4989 32.6282 28.2918 34.7923 28.209 36.9356C28.209 39.7032 28.209 42.4916 28.209 45.2592C28.209 47.6522 28.209 50.0244 28.209 52.4174C30.5494 52.4174 32.9105 52.4174 35.2509 52.4174C35.2509 48.8175 35.2509 45.1967 35.2509 41.5968C35.2716 38.7044 35.0438 35.7287 35.893 32.9195C35.9137 32.9612 35.9551 33.0444 35.9758 33.086C36.535 31.2548 38.5026 30.2768 40.3045 30.1936C42.1271 30.1103 44.2604 30.2144 45.5859 31.6502C46.9943 32.8987 47.0979 34.8964 47.2843 36.6235C47.2636 41.8881 47.2843 47.1528 47.2843 52.4174C49.6661 52.4174 52.0479 52.4174 54.4297 52.4174C54.4297 47.4441 54.4297 42.4708 54.4297 37.4975C54.4297 36.9356 54.4712 36.3946 54.5126 35.8328C54.5747 34.7507 54.7818 33.6687 55.2582 32.6906C55.8174 31.4629 57.0601 30.6722 58.3028 30.3601C60.0633 30.0271 61.9273 30.0687 63.6049 30.7762C64.5991 31.4213 65.5725 32.2953 65.9039 33.5022C66.5874 35.6663 66.401 37.9761 66.4424 40.2234C66.4424 44.302 66.4424 48.3805 66.4424 52.459C68.8242 52.459 71.2061 52.4798 73.5879 52.459C73.5258 50.8151 73.6707 49.2544 73.5258 47.6938Z" fill="#FDC00B"/>
<path d="M10.2315 38.8084C13.069 38.8292 15.9064 38.8084 18.7232 38.8084C21.6849 38.8292 24.6674 38.8084 27.6499 38.8084C27.6913 37.1229 27.6499 35.4166 27.2978 33.7519L27.2356 33.7935L27.3185 33.7311C27.0492 32.3369 26.7386 30.9427 26.1379 29.6733C25.6408 28.6329 25.0609 27.6133 24.2946 26.7185C23.3004 25.4492 21.9335 24.596 20.5872 23.7845C18.9096 22.9313 17.0663 22.3486 15.2022 22.1822C12.9861 21.9325 10.7493 22.3278 8.65741 23.0561C5.48855 24.1382 2.79605 26.6353 1.53265 29.7774C0.724903 31.4837 0.331384 33.3357 0.124269 35.2085C0.0207115 36.3946 0 37.6015 0 38.7876L0.103558 38.7044C0.0207115 40.161 0.248538 41.6592 0.68348 43.0534L0.807749 43.0742L0.766326 43.2199C1.01486 44.8221 1.82261 46.2996 2.6925 47.6521C3.39669 48.6926 4.37013 49.4833 5.34357 50.2324C7.06262 51.6682 9.25804 52.4382 11.4535 52.7711C14.8294 53.3329 18.4539 52.8127 21.3743 50.9815C24.3153 49.1712 26.4279 46.0915 27.1321 42.6996C24.6053 42.6788 22.0785 42.6996 19.5724 42.6996C19.0132 43.9274 18.1433 45.0302 17.0456 45.8002C15.5543 46.6533 13.7524 46.6325 12.1162 46.362C10.8321 46.0915 9.83796 45.1967 9.05093 44.1979C8.07749 42.8453 7.60112 41.1806 7.45614 39.5367H7.43543C7.41472 39.287 7.39401 39.0373 7.3733 38.7876C8.30531 38.8084 9.27875 38.8292 10.2315 38.8084ZM7.7461 33.8143C8.0982 32.4825 8.74025 31.234 9.63085 30.1727C10.335 29.5901 11.1014 29.1323 11.9505 28.7994C14.0631 28.2791 16.5692 28.5913 18.1226 30.256C18.9096 31.0675 19.4067 32.108 19.7588 33.1692C19.8209 33.3773 19.883 33.5854 19.9659 33.7935C19.5724 33.7935 19.1789 33.7935 18.7853 33.8143C15.4094 33.7935 12.0127 33.8143 8.6367 33.8143C8.30531 33.8143 8.03606 33.8143 7.7461 33.8143Z" fill="#FDC00B"/>
</g>
<defs>
<clipPath id="clip0_132_60">
<rect width="170" height="53" fill="white"/>
</clipPath>
</defs>
</svg>
